<svg id="Layer_1" data-name="Layer 1" xmlns="http://www.w3.org/2000/svg" viewBox="0 0 1700.7874 375.06901"><defs><style>.cls-1{fill:#070707;}.cls-2{fill:#e2e2e2;}.cls-3{fill:#a9a7a7;}.cls-4{fill:none;}</style></defs><title>advbox</title><path class="cls-1" d="M27.63533,305.41458c-.16572-25.39115,11.50846-43.17855,30.4454-51.32718,25.13736-10.81674,35.99148-30.09721,32.08865-56.99993-3.05032-21.02631,10.05388-42.68251,31.90752-51.9803,19.209-8.17258,29.66315-22.73379,31.79376-43.14495.68122-6.52592-.82409-13.24918-.81322-19.8813.04822-29.41406,25.56277-51.47971,56.09662-48.6883,26.7444,2.44495,47.41021,29.9136,42.98755,57.13835a50.05666,50.05666,0,0,0,29.16954,53.65211c25.04541,10.99184,34.84237,26.7862,33.511,54.02529-1.44348,29.53357,7.10865,44.00666,33.5362,56.75474,22.86991,11.032,33.96438,34.0606,27.88868,57.8883-5.679,22.27205-27.36049,38.30722-50.2103,37.13456-24.3255-1.24845-43.57757-18.99123-47.17248-43.75224a43.20789,43.20789,0,0,1,.02058-11.59929c3.37847-26.15738-7.95544-46.26877-32.10451-56.5784-21.37544-9.12553-33.29985-29.48484-30.56607-52.64373,1.73322-14.68244-.80984-28.12127-10.0538-40.03718-2.41546-3.11368-3.949-3.96192-6.66254-.22839-7.7905,10.71872-12.33027,22.3501-10.33772,35.7458,3.9087,26.27807-7.28692,47.13253-31.72042,57.46994-12.70566,5.37559-21.49519,14.32569-27.3596,26.56359-2.18921,4.56845-1.92094,6.7359,4.10121,7.14515,14.51543.98639,27.1429-2.85618,38.87452-11.54219,21.70746-16.072,51.37969-12.29734,68.018,8.06659a49.82708,49.82708,0,0,1-5.02979,68.47746c-17.3607,15.76477-43.21423,18.057-62.04693,3.29228-20.3009-15.91578-49.75-15.1095-68.29782.42069-14.975,12.53876-33.41923,12.89578-50.8195,3.9652C37.23179,335.69348,27.94673,320.66307,27.63533,305.41458Zm13.50428-5.32136c.33148,14.41122,6.69173,25.56572,19.61127,32.20086,13.20823,6.78339,26.29939,5.664,38.3503-3.26505,5.83306-4.322,11.86354-8.23577,18.77575-10.49439,23.06122-7.53557,43.98986-3.71452,63.56684,10.83615,15.91589,11.82944,35.60983,9.05176,48.68672-5.637a35.84694,35.84694,0,0,0-.11517-47.17706c-13.06687-14.6348-32.40981-16.77253-48.71085-5.3006-5.68366,3.99989-11.40208,7.98506-18.00431,10.25733-23.20821,7.98746-44.59126,4.64225-64.3512-10.16007-11.94836-8.95061-25.15277-9.82254-38.35849-3.08253C47.89305,274.75146,41.71781,285.70411,41.13961,300.09322ZM301.44512,199.49308c0-2.77437.01746-5.54884-.00285-8.32306-.13059-17.82338-12.07383-31.73911-30.30747-35.32426-15.54623-3.05678-32.70533,6.50869-39.07337,21.78166-7.92254,19.00126.58412,38.7172,20.66488,47.89513,28.00854,12.8013,43.96261,40.016,39.95023,68.14766-2.85677,20.02926,8.21617,37.17113,26.92621,41.68426A36.30228,36.30228,0,0,0,362.63014,311.592c6.00577-18.11842-2.79457-36.72672-21.28118-44.999C313.14956,253.97449,299.34165,230.86519,301.44512,199.49308ZM239.0923,81.50507c-.59669-2.75425-1.05568-6.6505-2.293-10.28146-5.81838-17.07344-23.72945-27.45669-40.738-23.83326-19.81679,4.22167-31.20752,20.55828-29.26709,41.97494,2.86227,31.59138-11.13648,55.60714-40.03715,68.68632-18.55832,8.39868-27.17133,26.84371-21.03211,45.04122a36.14269,36.14269,0,0,0,43.0747,23.66924c18.02507-4.26,29.48965-21.65493,26.97846-41.09984a57.22949,57.22949,0,0,1-.38734-14.92523c3.36528-25.47923,16.65716-43.57332,40.26428-53.86757C230.69127,110.31265,238.26376,98.83094,239.0923,81.50507ZM87.07254,251.24437a63.59418,63.59418,0,0,1,23.76825,12.01617c2.36981,1.90479,4.49957,3.21425,6.03509-1.21786,2.73325-7.88917,7.73614-14.54512,13.24744-21.55792-10.91163-2.63227-19.74007-8.03746-27.74386-15.99023A75.4209,75.4209,0,0,1,87.07254,251.24437ZM240.36179,115.7899a62.98621,62.98621,0,0,1-22.27564,14.74667c-2.016.79027-5.4554,1.62726-2.50824,5.1228,5.53191,6.56121,9.09423,14.30178,12.57133,22.98249,7.93162-8.44752,16.89529-12.98523,27.604-16.08A74.6665,74.6665,0,0,1,240.36179,115.7899Z"/><path class="cls-2" d="M41.13961,300.09322c.5782-14.38911,6.75344-25.34176,19.45086-31.82235,13.20572-6.74,26.41013-5.86808,38.35849,3.08253,19.75994,14.80232,41.143,18.14753,64.3512,10.16007,6.60223-2.27227,12.32065-6.25744,18.00431-10.25733,16.301-11.47193,35.644-9.3342,48.71085,5.3006a35.84694,35.84694,0,0,1,.11517,47.17706c-13.07689,14.68875-32.77083,17.46643-48.68672,5.637-19.577-14.55067-40.50562-18.37172-63.56684-10.83615-6.91221,2.25862-12.94269,6.17242-18.77575,10.49439-12.05091,8.929-25.14207,10.04844-38.3503,3.26505C47.83134,325.65894,41.47109,314.50444,41.13961,300.09322Zm35.72505,18.48012c10.92377.17393,19.215-7.69109,19.25893-18.269a18.79821,18.79821,0,1,0-19.25893,18.269Zm144.54081-18.60423a18.22276,18.22276,0,0,0-18.70342-18.20353c-10.90344.04165-18.863,8.2745-18.518,19.15384a18.61875,18.61875,0,0,0,37.22138-.95031Z"/><path class="cls-2" d="M301.44512,199.49308c-2.10347,31.37211,11.70444,54.48141,39.90384,67.09994,18.48661,8.27226,27.287,26.88056,21.28118,44.999a36.30228,36.30228,0,0,1-43.02739,23.76247c-18.71-4.51313-29.783-21.655-26.92621-41.68426,4.01238-28.1317-11.94169-55.34636-39.95023-68.14766-20.08076-9.17793-28.58742-28.89387-20.66488-47.89513,6.368-15.273,23.52714-24.83844,39.07337-21.78166,18.23364,3.58515,30.17688,17.50088,30.30747,35.32426C301.46258,193.94424,301.44512,196.71871,301.44512,199.49308Zm-35.93874,10.63514a18.66209,18.66209,0,0,0,18.732-18.16475c.22264-10.37675-8.15459-18.63179-18.89619-18.62052-10.53137.01105-18.48042,7.63145-18.70177,17.92861A18.71154,18.71154,0,0,0,265.50638,210.12822ZM328.51974,281.661a18.19669,18.19669,0,0,0-18.92506,17.803c-.35046,10.76752,7.53169,19.14457,18.18328,19.325a18.56767,18.56767,0,0,0,.74178-37.12792Z"/><path class="cls-2" d="M239.0923,81.50507c-.82854,17.32587-8.401,28.80758-23.43731,35.36436-23.60712,10.29425-36.899,28.38834-40.26428,53.86757a57.22949,57.22949,0,0,0,.38734,14.92523c2.51119,19.44491-8.95339,36.83988-26.97846,41.09984a36.14269,36.14269,0,0,1-43.0747-23.66924c-6.13922-18.19751,2.47379-36.64254,21.03211-45.04122,28.90067-13.07918,42.89942-37.09494,40.03715-68.68632-1.94043-21.41666,9.4503-37.75327,29.26709-41.97494,17.00858-3.62343,34.91965,6.75982,40.738,23.83326C238.03662,74.85457,238.49561,78.75082,239.0923,81.50507ZM158.60719,191.94449a18.2283,18.2283,0,0,0-17.87873-18.84336c-10.72632-.32914-19.21188,7.63542-19.38988,18.19936a18.51605,18.51605,0,0,0,17.9317,18.88026C150.04882,210.50011,158.454,202.57332,158.60719,191.94449Zm43.77135-90.23641a18.65686,18.65686,0,0,0,19.02965-18.72985,18.61224,18.61224,0,1,0-19.02965,18.72985Z"/><path class="cls-3" d="M87.07254,251.24437a75.4209,75.4209,0,0,0,15.30692-26.74984c8.00379,7.95277,16.83223,13.358,27.74386,15.99023-5.5113,7.0128-10.51419,13.66875-13.24744,21.55792-1.53552,4.43211-3.66528,3.12265-6.03509,1.21786A63.59418,63.59418,0,0,0,87.07254,251.24437Z"/><path class="cls-3" d="M240.36179,115.7899a74.6665,74.6665,0,0,0,15.39148,26.772c-10.70874,3.09475-19.67241,7.63246-27.604,16.08-3.4771-8.68071-7.03942-16.42128-12.57133-22.98249-2.94716-3.49554.49222-4.33253,2.50824-5.1228A62.98621,62.98621,0,0,0,240.36179,115.7899Z"/><path class="cls-1" d="M76.86466,318.57334A18.39563,18.39563,0,0,1,58.538,300.145a18.7957,18.7957,0,0,1,37.58561.15938C96.07964,310.88225,87.78843,318.74727,76.86466,318.57334Zm12.63782-18.214c.08258-6.67519-5.12707-11.803-12.04923-11.85983a11.883,11.883,0,0,0-12.32233,11.6364,12.18864,12.18864,0,0,0,24.37156.22343Z"/><path class="cls-1" d="M221.40547,299.96911a18.61875,18.61875,0,0,1-37.22138.95031c-.345-10.87934,7.61452-19.11219,18.518-19.15384A18.22276,18.22276,0,0,1,221.40547,299.96911Zm-6.68753.42714c.04929-7.01942-4.90405-11.92385-12.01551-11.89688-7.1195.027-12.11959,5.046-11.957,12.00236a11.98887,11.98887,0,0,0,23.97247-.10548Z"/><path class="cls-1" d="M265.50638,210.12822a18.71154,18.71154,0,0,1-18.866-18.85666c.22135-10.29716,8.1704-17.91756,18.70177-17.92861,10.7416-.01127,19.11883,8.24377,18.89619,18.62052A18.66209,18.66209,0,0,1,265.50638,210.12822Zm.331-6.701c6.61129-.16294,12.07167-5.81415,11.80806-12.22082a12.20187,12.20187,0,0,0-24.38364.82867C253.49912,198.71357,258.89138,203.59837,265.83738,203.42718Z"/><path class="cls-1" d="M328.51974,281.661a18.56767,18.56767,0,0,1-.74178,37.12792c-10.65159-.1804-18.53374-8.55745-18.18328-19.325A18.19669,18.19669,0,0,1,328.51974,281.661Zm-.273,6.83846c-7.16907-.03949-12.10361,4.81756-12.03893,11.84977a11.94356,11.94356,0,0,0,23.88257.19521C340.25152,293.44213,335.43037,288.539,328.24675,288.49942Z"/><path class="cls-1" d="M158.60719,191.94449c-.15317,10.62883-8.55837,18.55562-19.33691,18.23626a18.51605,18.51605,0,0,1-17.9317-18.88026c.178-10.56394,8.66356-18.5285,19.38988-18.19936A18.2283,18.2283,0,0,1,158.60719,191.94449Zm-6.56627-.3627a12.01269,12.01269,0,0,0-24.01632-.32632,11.5722,11.5722,0,0,0,11.82407,12.17225C146.90155,203.51775,152.06364,198.50231,152.04092,191.58179Z"/><path class="cls-1" d="M202.37854,101.70808a18.63848,18.63848,0,1,1,19.02965-18.72985A18.65686,18.65686,0,0,1,202.37854,101.70808Zm.51291-6.68694A12.00857,12.00857,0,0,0,203.05119,71.01a12.04868,12.04868,0,0,0-12.31032,11.95336A11.86355,11.86355,0,0,0,202.89145,95.02114Z"/><path class="cls-2" d="M89.50248,300.3593a12.18864,12.18864,0,0,1-24.37156-.22343,11.883,11.883,0,0,1,12.32233-11.6364C84.37541,288.55632,89.58506,293.68411,89.50248,300.3593Z"/><path class="cls-2" d="M214.71794,300.39625a11.98887,11.98887,0,0,1-23.97247.10548c-.16263-6.95631,4.83746-11.97536,11.957-12.00236C209.81389,288.4724,214.76723,293.37683,214.71794,300.39625Z"/><path class="cls-2" d="M265.83738,203.42718c-6.946.17119-12.33826-4.71361-12.57558-11.39215a12.20187,12.20187,0,0,1,24.38364-.82867C277.90905,197.613,272.44867,203.26424,265.83738,203.42718Z"/><path class="cls-2" d="M328.24675,288.49942c7.18362.03957,12.00477,4.94271,11.84364,12.045a11.94356,11.94356,0,0,1-23.88257-.19521C316.14314,293.317,321.07768,288.45993,328.24675,288.49942Z"/><path class="cls-2" d="M152.04092,191.58179c.02272,6.92052-5.13937,11.936-12.19225,11.84593a11.5722,11.5722,0,0,1-11.82407-12.17225,12.01269,12.01269,0,0,1,24.01632.32632Z"/><path class="cls-2" d="M202.89145,95.02114a11.86355,11.86355,0,0,1-12.15058-12.05778A12.04868,12.04868,0,0,1,203.05119,71.01a12.00857,12.00857,0,0,1-.15974,24.01114Z"/><path class="cls-4" d="M1163.79079,177.62563c19.78519.30536,34.43959-7.87524,42.3533-26.16555,16.24821-37.55128-3.40058-67.39345-43.94182-67.26968-1.38657.00489-2.78149.10831-4.15809-.00651-5.23258-.434-7.58371,1.78579-7.52141,7.16759.15634,13.57951.05191,27.16145.05191,40.74177q-.48828.00122-.97616.00163c0,5.26861-.04153,10.538.0116,15.80584.05334,5.26616.274,10.53071.29356,15.79606C1149.95519,177.59387,1149.93035,177.41227,1163.79079,177.62563Z"/><path class="cls-4" d="M1164.29506,200.93048a61.5527,61.5527,0,0,1-7.47866-.05049c-5.327-.65959-7.145,1.2117-7.029,6.7979.35911,17.29685.1311,34.60591.1311,51.91008q0,14.96913.00184,29.93989c.01791,16.46869.02341,16.46869,16.70158,16.46869,24.97318-.00081,40.18966-12.63734,45.24574-37.2907a82.37626,82.37626,0,0,0,1.183-22.344C1210.94427,215.67283,1195.06086,200.93374,1164.29506,200.93048Z"/><path d="M1229.70321,191.16034c-5.94449-2.14327-12.17583-3.49178-20.57873-5.85818,13.61635-3.78167,24.72074-8.01122,34.40518-15.27734,20.4177-15.3197,28.31879-35.81517,24.25577-60.73644-3.9596-24.28692-19.93665-37.40145-42.58212-43.76694-13.757-3.868-27.82939-4.96488-42.0408-4.56668-28.5808.80129-57.1789,3.583-85.73181.81269-7.8449-.76057-9.773.64819-9.30069,8.42082,3.99645,65.75668,3.81181,131.57851,2.26217,197.4036-.41815,17.76345-1.45437,35.51142-2.13411,53.26917-.13172,3.44455-1.15226,7.01206,4.9551,6.96483,34.99474-.27116,70.01595.64,104.98138-.41041,24.88625-.74754,47.41018-9.04622,63.12624-29.91872C1290.44616,258.81275,1275.14255,207.54841,1229.70321,191.16034Zm-79.18044-99.80886c-.0623-5.3818,2.28883-7.60162,7.52141-7.16759,1.3766.11482,2.77152.0114,4.15809.00651,40.54124-.12377,60.19,29.7184,43.94182,67.26968-7.91371,18.29031-22.56811,26.47091-42.3533,26.16555-13.86044-.21336-13.8356-.03176-13.88711-13.92885-.01954-5.26535-.24022-10.5299-.29356-15.79606-.05313-5.2678-.0116-10.53723-.0116-15.80584m62.26918,136.611c-5.05608,24.65336-20.27256,37.28989-45.24574,37.2907-16.67817,0-16.68367,0-16.70158-16.46869q-.01618-14.97034-.00184-29.93989c0-17.30417.228-34.61323-.1311-51.91008-.116-5.5862,1.70192-7.45749,7.029-6.7979a61.5527,61.5527,0,0,0,7.47866.05049c30.7658.00326,46.64921,14.74235,48.75563,45.4314A82.37626,82.37626,0,0,1,1211.8677,268.70585Z"/><path d="M803.43448,299.13458c-4.62662,6.64521-7.71043,11.166-10.88636,15.62119-18.61522,26.11368-79.52134,26.664-102.03723-10.74253-15.44006-25.65113-18.57181-53.68593-16.72469-82.6779a108.46535,108.46535,0,0,1,15.23272-48.83923c25.55516-43.19051,80.103-49.87321,110.17054-11.0621,1.6209-3.0959.99347-6.13548.9212-8.96344-.73044-28.59612-1.34026-57.19893-2.53517-85.77683-.27065-6.47528,1.46994-8.4331,7.67868-7.53131,14.93167,2.16878,29.90976,1.80976,44.84062-.0415,5.24031-.64975,6.42148,1.00853,6.12313,6.30077-4.78949,84.9554-3.92306,169.928-.03084,254.88574.26,5.67457-.46172,7.76293-6.729,7.52826-13.59406-.50905-27.2438-.63329-40.82361.03817-6.94437.34333-7.97437-2.50224-7.30287-8.10721C802.05483,313.729,802.57559,307.66722,803.43448,299.13458Zm-3.81139-64.94038c0-6.93424.46823-13.907-.09915-20.79453-1.12222-13.62289-3.47-26.99464-11.97846-38.3684-11.76887-15.73232-31.39455-15.39629-42.57865.7635a61.02388,61.02388,0,0,0-8.339,18.94952c-5.69449,20.88362-6.29149,42.15333-4.3581,63.55765,1.1777,13.03636,3.33736,25.87074,10.23359,37.3488,10.22361,17.01634,29.3323,18.65513,42.30748,3.62836a50.93672,50.93672,0,0,0,10.03958-18.96782C799.38419,265.24944,800.0847,249.75882,799.62309,234.1942Z"/><path d="M663.206,327.73426c-21.66452,0-42.22107-.21538-62.76713.154-5.03277.09044-5.94271-2.64764-7.13212-6.159-7.29941-21.54767-14.84719-43.01411-21.86-64.65416-1.85185-5.7145-4.59767-7.73718-10.6182-7.66216-24.73.3083-49.46739.2415-74.19934.01654-5.24036-.04764-7.72575,1.65148-9.56773,6.73461C469.30688,277.56322,461.70062,299.006,455.47275,320.9c-1.42642,5.01468-3.42913,7.34687-9.08016,6.92277a168.71937,168.71937,0,0,0-23.32741-.02952c-6.58072.42085-8.26722-.65486-5.206-7.41769,20.92823-46.23317,39.85539-93.31946,58.99727-140.308q23.218-56.99419,45.74633-114.26823c1.88748-4.76805,3.52232-7.40244,9.45607-5.60778a29.72445,29.72445,0,0,0,16.50987.03553c5.73908-1.65174,7.61572.43816,9.51119,5.43241q29.81115,78.5466,60.04956,156.93084c12.38429,32.10281,26.1689,63.62,40.52022,94.88938C660.02384,320.47376,661.32725,323.50024,663.206,327.73426ZM525.42157,136.38084c-12.62406,29.84161-24.7266,58.921-34.80541,88.96711h68.95078c-10.78549-28.5225-21.22846-56.15691-31.699-83.78092C527.29821,140.06391,526.49906,138.64771,525.42157,136.38084Z"/><path d="M1306.68043,239.26771a108.03059,108.03059,0,0,1,7.16892-44.06863c16.525-41.907,56.22493-64.6487,102.221-58.69385,50.8986,6.58956,80.02286,39.49663,80.84847,91.04961.30211,18.86-2.2069,37.11527-10.20824,54.3512-14.40237,31.0245-39.23448,47.31791-72.80437,50.62077a124.35637,124.35637,0,0,1-41.38732-2.70368c-38.78894-9.29275-63.79693-39.1067-65.812-78.89119C1306.51045,247.05336,1306.68043,243.15623,1306.68043,239.26771Zm57.93326-1.56428c-.01577,11.9437.15391,23.89051,2.24548,35.69122,2.24689,12.67681,5.45152,25.05659,14.90551,34.5831,11.95515,12.04694,30.525,10.85359,41.00713-2.45358,5.44542-6.91284,8.40219-14.99852,10.469-23.38786,6.39022-25.93807,6.08272-52.32994,4.44259-78.69891-.72362-11.6336-3.15323-23.13037-8.86239-33.57649-10.57142-19.343-34.81539-21.44143-48.47693-4.19051-5.07919,6.41366-8.13917,13.8455-10.28561,21.67144C1365.5356,203.83237,1364.62336,220.71956,1364.61369,237.70343Z"/><path d="M1606.7663,201.70062c12.56079-19.08256,24.39115-36.427,35.46257-54.24338,3.49462-5.62373,6.97052-7.897,13.30263-5.98892,8.16472,2.4602,16.3895-.96977,25.94018-.38334-10.184,12.98671-19.76238,25.08874-29.21576,37.28763-9.6881,12.50183-19.05556,25.25832-28.98062,37.5668-3.471,4.30442-3.868,7.47108-.90369,12.29235,18.88537,30.71644,37.45621,61.62638,56.124,92.47673,1.12355,1.85656,2.1903,3.74739,4.0394,6.91849-21.2198-2.26252-41.26191-1.5872-61.28162-.20969-4.37449.301-4.81117-3.11923-6.176-5.56482-10.66507-19.11221-21.21736-38.28719-32.57053-58.829-10.9509,17.19626-21.99412,33.05907-31.394,49.84219-5.81878,10.38907-11.69833,17.0582-24.75281,13.91225-5.23482-1.26147-11.02764-.20755-16.78352-.20755,11.77193-16.02058,23.85116-32.33812,35.79226-48.75612,7.01766-9.6485,13.634-19.59318,20.79931-29.12781,2.96533-3.94591,2.85051-6.96149.42508-11.15389-17.2199-29.76674-34.623-59.4189-53.01124-88.48432-1.45071-2.293-2.78384-4.6605-4.16319-6.97923,2.08587-2.41549,4.44789-1.37075,6.41751-1.18261a241.43877,241.43877,0,0,0,51.51993-.1847c5.01882-.59529,7.41311,1.26094,9.65023,5.54617C1586.36956,164.18407,1596.10733,181.9248,1606.7663,201.70062Z"/><path d="M1063.09922,140.8345c-6.45334,15.03535-12.24535,28.814-18.2614,42.49407-19.78051,44.9802-37.88668,90.60762-52.82385,137.43794-1.71118,5.36457-3.85873,7.45583-9.75182,7.08506-9.96588-.627-20.0023-.2816-30.00453-.09608-3.34387.062-5.58-.30084-6.91108-4.038q-32.35937-90.84871-64.94776-181.61592c-.07451-.20809.084-.49953.22851-1.2341,18.45684,1.95927,37.01241,2.87552,55.53368.189,5.7457-.83342,5.29569,3.92721,6.2631,6.95q18.889,59.01974,37.53978,118.11571c.81727,2.57326,1.84218,5.08056,3.33818,9.17065,1.40754-3.181,2.35581-4.9565,3.00075-6.83611q21.02243-61.27885,42.00171-122.57243c.854-2.48984,1.08792-5.72015,5.32857-4.61334C1042.941,143.70036,1052.30447,142.65862,1063.09922,140.8345Z"/></svg>