<svg id="Layer_1" data-name="Layer 1" xmlns="http://www.w3.org/2000/svg" viewBox="0 0 1700.7874 647.44056"><defs><style>.cls-1{fill:#4d555a;}.cls-2{fill:#32373b;}.cls-3{fill:#eb8446;}.cls-4{fill:#535456;}.cls-5{fill:#ee8749;}</style></defs><title>advertorch</title><path class="cls-1" d="M242.3232,601.93738c-39.71229-11.47407-73.91507-32.7846-104.484-59.96226-61.846-54.985-94.27162-126.24953-111.42765-205.492A573.83776,573.83776,0,0,1,14.53756,180.648c.38669-6.55984-.45733-12.47223,9.99947-12.10913,80.443,2.7933,150.9765-24.01928,213.92928-72.88176.94332-.73218,2.52547-.64125,3.80951-.93447Q242.29952,348.33,242.3232,601.93738Z"/><path class="cls-2" d="M242.3232,601.93738q-.02367-253.60735-.04738-507.21471,25.58981,16.82307,51.17591,33.644c-7.52933,13.80615-21.13882,23.16353-28.66915,37.885,10.10587,1.281,17.498,4.44646,16.70644,15.57928-3.26581,45.93131,33.66,99.08378,90.88068,110.59368,9.14217,1.83894,10.7,5.9134,10.66481,14.06587-.26861,62.11541-.13995,124.23253-.16209,186.3491-.0015,4.16231.637,8.45562-1.84947,12.25784C344.06918,550.668,298.3312,583.65735,242.3232,601.93738Z"/><path class="cls-3" d="M381.023,505.09739c2.48649-3.80222,1.848-8.09553,1.84947-12.25784.02214-62.11657-.10652-124.23369.16209-186.3491.03524-8.15247-1.52264-12.22693-10.66481-14.06587-57.22064-11.5099-94.14649-64.66237-90.88068-110.59368.79157-11.13282-6.60057-14.29823-16.70644-15.57928,7.53033-14.72142,21.13982-24.0788,28.66915-37.885,6.32766-5.90525,12.65163-11.81263,19.95226-18.63231.52854,9.92236,1.04844,19.68209,1.57029,29.44241-.22781,13.05837-.08135,26.13575-.76107,39.17006-1.72839,33.14392,15.60695,55.74766,41.01566,73.2896,16.15061,11.1502,27.16884,5.24427,27.4884-14.30336.41194-25.19529-.1781-50.407-.33664-75.61158.17588-12.12561.33334-24.25154.534-36.37673.1412-8.53563-2.43879-14.98572-12.37082-14.87865-9.52411.10266-8.49545-3.969-4.84933-10.20247C377.45056,80.16511,388.96457,59.925,401.9739,37.30133c13.38541,23.17805,25.83458,44.68033,38.21906,66.21978,2.93273,5.10063.15614,6.99132-4.537,6.76887-12.47593-.59132-14.68135,6.81927-14.31243,17.10414.48477,13.51267.42633,27.04483.60066,40.56854-.14115,23.73109-.76215,47.47246-.25983,71.19.36027,17.00924,10.29333,22.286,25.10556,13.95345,9.376-5.27451,17.55662-12.17038,23.59589-21.28937,13.284-13.71,19.83478-30.09589,19.77681-49.1996-.073-24.06955-.01759-48.13948-.01759-76.60231,18.28658,21.5246,33.7493,39.72534,51.20514,60.27211-18.77109-.12133-18.67789,11.16108-19.14275,23.60488-1.3081,35.01321-18.64835,61.7053-45.61044,82.83442-3.29664,2.5834-6.82785,4.86744-10.25065,7.28847-11.83678,5.48381-23.768,10.95194-36.69415,13.08038-6.53474,1.076-8.335,3.9089-8.28956,10.08954.33275,45.22764.41452,90.45717.57549,135.68607q-.2597,67.81149-.51816,135.623c-.01233,3.26286.11953,6.53175-.03219,9.78771-.60649,13.01525-8.09185,21.178-19.29616,21.161-11.68611-.01768-18.94576-7.62553-19.10447-20.965-.25508-21.439-.02368-42.88335-.10584-64.32507C382.86185,515.08546,383.77654,509.8488,381.023,505.09739Z"/><path class="cls-4" d="M994.13413,153.651c0-37.8388.03733-72.72528-.037-107.61154-.01224-5.736-.15258-11.44467,5.44263-14.93966,8.82614-5.51313,17.52931.71356,17.55448,13.08587q.18367,90.3617-.0381,180.7241a90.31152,90.31152,0,0,1-7.14838,34.04234c-19.92109,48.93031-72.00176,73.68206-125.85034,59.88512-49.06177-12.57049-80.72925-60.7642-74.6017-113.53426,6.13337-52.82119,48.41862-90.7491,101.64017-91.16652C945.44518,113.86706,968.61508,124.46713,994.13413,153.651ZM913.462,136.24872c-46.57485-.01313-81.2395,34.5803-81.47754,81.31007-.23932,46.98439,35.3029,83.06625,81.74067,82.98157,45.80678-.08353,80.40926-35.6042,80.408-82.54161C994.13181,170.80755,960.04206,136.26185,913.462,136.24872Z"/><path class="cls-4" d="M742.06585,282.95852c-30.63073,36.10558-66.40972,45.64393-107.35848,36.10252-38.17594-8.89528-62.79151-33.31763-73.724-70.92568-16.68311-57.39039,16.02019-116.63955,71.81573-130.79662,59.97361-15.21718,117.50488,18.66089,130.04708,77.04315,4.139,19.2663,2.93748,39.013,2.89287,58.5986-.04145,18.2056.02791,36.41441-.31707,54.6149-.14069,7.42058-3.69784,12.7336-11.99429,12.31945-7.97073-.39786-11.40818-5.34459-11.36905-13.05817C742.09316,300.04989,742.06585,293.24284,742.06585,282.95852Zm-.021-63.44171c.57772-46.49538-33.363-82.78614-77.87573-83.26767-48.12262-.52057-82.86767,32.79-83.64438,80.191-.78729,48.04215,33.036,83.65613,79.87047,84.09935C706.77262,300.9784,741.46039,266.557,742.04487,219.51681Z"/><path class="cls-4" d="M1364.546,226.03405c-23.34886.00385-46.70731.39191-70.04187-.187-9.34742-.23189-10.56236,2.683-9.1367,11.33707,9.05681,54.97544,74.926,81.87809,122.51882,49.69567,1.92641-1.30265,3.6778-2.8617,5.54444-4.25588,6.08628-4.54549,12.54452-5.17681,17.24417,1.15751,4.98668,6.7216,1.16691,12.30825-4.72825,16.53305-21.5985,15.47823-45.62877,23.45857-72.246,21.43014-40.25943-3.06806-70.48592-22.25913-84.9-60.45614-16.10612-42.68118-12.35563-84.37842,19.61754-118.86443,27.45325-29.61085,62.95557-34.70694,100.54931-22.468,37.32452,12.15136,63.71763,53.24862,61.453,92.84043-.6064,10.60055-6.81992,13.25114-15.82792,13.24179Q1399.56945,226.002,1364.546,226.03405Zm-9.387-20.88828c20.08678,0,40.19642-.57376,60.25117.2286,10.93766.43759,12.45478-3.7844,10.46038-13.08693-7.226-33.70578-35.58983-56.40969-70.57155-56.03282a71.40547,71.40547,0,0,0-69.20188,58.28188c-1.43389,7.77127.16217,10.98057,8.80566,10.764C1314.977,204.7976,1335.07227,205.14035,1355.159,205.14577Z"/><path class="cls-5" d="M973.03825,405.54357c60.89387.02038,103.03279,42.81035,102.96532,104.556-.06508,59.51127-43.95367,103.20674-103.6231,103.16726-59.92673-.03964-104.11133-44.40517-104.1-104.52593C868.29192,448.44576,911.86361,405.52306,973.03825,405.54357Zm80.30729,104.37857c.28993-47.09631-35.18226-83.72285-81.15439-83.79529-44.38265-.06992-80.59944,36.84844-81.31184,82.88706-.69939,45.19764,35.74062,82.24358,81.13768,82.48676C1018.10994,591.74766,1053.05766,556.69256,1053.34554,509.92214Z"/><path class="cls-5" d="M1522.123,435.144c18.72516-17.05854,37.18676-27.27484,59.955-30.17773,57.3297-7.30923,103.955,31.84234,104.70694,89.54592.42625,32.69675.03768,65.40365.10532,98.1058.01816,8.76791.28685,18.01836-11.89735,18.00868-11.904-.00942-10.50012-9.33958-10.68918-17.2881-.84307-35.46023,2.05467-70.99056-1.73529-106.39022-4.22409-39.4545-32.74535-60.99957-77.4932-58.79342-38.27968,1.88714-62.93253,27.73093-62.9488,66.01823q-.02133,49.75418-.01422,99.50839c-.00633,8.0644.72834,17.14831-11.12,16.96743-10.95257-.16719-11.85266-8.21532-11.84444-16.83471q.11071-117.72809-.01387-235.45633c-.011-8.76658,1.25818-16.67756,12.04771-16.65936,11.63945.01962,10.95051,9.09844,10.94623,17.20835C1522.11463,383.16048,1522.123,407.414,1522.123,435.144Z"/><path class="cls-5" d="M1360.41244,405.52319c34.58921-.23615,59.2895,10.96571,78.83375,33.44919,4.49467,5.17081,8.37095,11.064,1.47807,16.97265-6.49385,5.56662-12.75053,4.29987-18.184-2.31236-26.052-31.70384-70.72311-30.77865-93.14618-18.17458-28.68377,16.1232-44.3735,54.76071-36.58386,91.50816,12.69316,59.88028,77.00324,84.52628,126.191,48.193,6.83259-5.047,13.335-8.21138,19.1961-.00484,5.55694,7.78077-.02758,13.06367-5.99244,17.39834-32.64619,23.72331-68.26556,27.77636-104.76491,11.96625-35.46525-15.36221-55.0768-44.19518-58.41792-82.65934-4.37-50.30822,16.02709-89.77472,54.02335-107.71361C1336.79043,407.65669,1347.53081,405.46334,1360.41244,405.52319Z"/><path class="cls-5" d="M742.62293,494.31963c-.00283-14.94328-.74743-29.93575.23624-44.814.767-11.59865-3.87-14.92324-14.44378-13.70359a65.85172,65.85172,0,0,1-13.98312-.17583c-6.3494-.63474-10.705-4.2672-10.61519-10.83423.08888-6.49475,4.13778-10.10825,10.8129-10.36221.93307-.03549,1.869-.00724,2.80091-.05647,25.19033-1.33212,25.18827-1.33319,25.1911-26.07891.00119-10.74042-.02758-21.48111.03245-32.22123.04195-7.51148,3.21747-13.01591,11.20935-13.34073,8.74436-.35543,12.52106,5.28656,12.62115,13.39.19026,15.408.70984,30.855-.14179,46.21745-.56633,10.21318,3.17038,12.86887,12.72261,12.21088,11.154-.76845,22.40244-.13808,33.60974-.17417,7.06164-.02273,12.085,3.019,12.52936,10.28087.47249,7.72276-5.24535,10.75194-11.7982,11.00587-12.59041.48789-25.21524.44067-37.81593.16491-6.49934-.14231-9.15759,2.08332-9.10382,8.84163.26767,33.61869-.56239,67.26486.52241,100.852.7702,23.85029,18.33179,39.44278,44.35611,42.18953a75.62236,75.62236,0,0,0,9.79644.19574c8.04291-.20092,12.53758,3.81989,12.48955,11.66946-.04367,7.13841-4.44989,10.48081-11.61531,11.32242-43.05563,5.05745-78.21357-25.25369-79.34442-68.94946C742.28111,526.08293,742.62575,510.19683,742.62293,494.31963Z"/><path class="cls-4" d="M1142.57922,289.84613c4.61446-9.74346,7.81892-16.27422,10.82507-22.895q30.62915-67.459,61.14527-134.96909c3.45448-7.66034,7.19727-15.55137,17.28767-11.14794,9.91366,4.32628,7.3925,12.27445,3.75178,20.1656q-39.53226,85.687-78.81535,171.489c-2.80219,6.1033-5.912,11.88415-13.801,12.11423-8.272.24129-10.84775-6.17884-13.61381-12.09447q-39.66468-84.83089-79.21735-169.71405c-.98453-2.11088-1.895-4.26282-2.71485-6.44271-2.49728-6.64072-1.08069-12.0805,5.55959-15.20737,7.19248-3.38686,11.70213.59616,14.56323,6.619,8.39732,17.67711,16.53416,35.47818,24.747,53.24273C1108.51747,216.09292,1124.72094,251.188,1142.57922,289.84613Z"/><path class="cls-4" d="M1520.48569,148.021c19.65111-23.50136,40.78937-35.434,68.02761-33.87666,2.79379.15974,5.69736-.0622,8.356.63372,7.50818,1.96531,16.96058,2.68734,15.40237,14.00027-1.51712,11.01337-10.50115,8.83741-17.644,8.05694-19.88264-2.1725-38.29132,1.06079-53.78462,14.36951-11.77663,10.11587-19.21836,23.07646-19.46119,38.88047-.58791,38.26964-.70333,76.54757-.81242,114.82271-.02209,7.75281-1.25,14.57079-10.50526,15.0358-9.7949.49215-12.5005-5.99417-12.49177-14.611q.08709-87.54672.01182-175.09351c-.00582-8.15488,2.66947-13.76692,11.91037-13.66518,8.63279.09505,10.98236,5.61951,10.99024,13.04717C1520.48962,134.25506,1520.48569,138.88879,1520.48569,148.021Z"/><path class="cls-3" d="M1154.13279,439.57189c20.427-26.06307,43.59533-36.65382,72.40069-33.9194a51.8806,51.8806,0,0,1,12.24508,2.36254c5.26428,1.8517,8.869,5.625,7.43258,11.75419-1.31676,5.61893-5.12445,8.80691-11.1257,8.60265-5.5965-.19048-11.18272-.83-16.77768-.89089-38.27806-.4167-63.638,23.92306-64.0848,62.18369-.40356,34.55629-.12613,69.121-.06243,103.68184.01516,8.22893.44029,17.07339-10.99058,17.23663-11.24317.16064-11.57626-8.25783-11.56238-16.75722q.13935-85.468-.0441-170.9362c-.02646-8.477,1.44819-15.39243,11.48635-15.44359,10.34616-.05279,11.61728,7.24321,11.12467,15.53307C1153.93311,427.0418,1154.13279,431.1306,1154.13279,439.57189Z"/><path class="cls-2" d="M382.38063,161.72147c.15854,25.20462.74858,50.41629.33664,75.61158-.31956,19.54763-11.33779,25.45356-27.4884,14.30336-25.40871-17.54194-42.744-40.14568-41.01566-73.2896.67972-13.03431.53326-26.11169.76107-39.17006C336.94088,148.18886,358.98652,156.9711,382.38063,161.72147Z"/><path class="cls-2" d="M421.9381,438.8707c-.161-45.2289-.24274-90.45843-.57549-135.68607-.04546-6.18064,1.75482-9.01354,8.28956-10.08954,12.92615-2.12844,24.85737-7.59657,36.69415-13.08038C460.0134,335.33559,448.12332,389.10128,421.9381,438.8707Z"/><path class="cls-2" d="M470.3858,231.81674c-6.03927,9.119-14.21987,16.01486-23.59589,21.28937-14.81223,8.33258-24.74529,3.05579-25.10556-13.95345-.50232-23.71754.11868-47.45891.25983-71.19,11.08263.29337,22.26459,1.64,33.21946.59858,12.1744-1.15733,14.841,3.867,14.53245,14.75356C469.23833,199.46262,470.091,215.64758,470.3858,231.81674Z"/></svg>