<svg id="Layer_1" data-name="Layer 1" xmlns="http://www.w3.org/2000/svg" viewBox="0 0 1419.5065 737.00787"><defs><style>.cls-1{fill:none;}.cls-2{fill:#252525;}.cls-3{fill:#0570e5;}</style></defs><title>AIforPeople</title><path class="cls-1" d="M808.24759,555.72546a22.6313,22.6313,0,0,0-9.44067-13.62139,23.378,23.378,0,0,0-6.677-2.95972q-1.23046-.33508-2.53588-.56079a31.96488,31.96488,0,0,0-5.50342-.44837,22.957,22.957,0,0,0-6.10449.83722q-.58631.1626-1.16089.35535a23.3443,23.3443,0,0,0-2.24829.8855q-.54969.24966-1.085.52685-1.07117.55409-2.08349,1.21375a25.05944,25.05944,0,0,0-3.77686,3.02173,26.00225,26.00225,0,0,0-2.58471,2.91742,27.64236,27.64236,0,0,0-5.57544,16.516,22.79128,22.79128,0,0,0,.11621,2.50873,24.49108,24.49108,0,0,0,.38452,2.49139,29.388,29.388,0,0,0,6.11548,12.5155q.81189.98786,1.69726,1.90021a29.03636,29.03636,0,0,0,3.78662,3.28711q1.00233.72638,2.05323,1.34772a23.62056,23.62056,0,0,0,3.23144,1.59637q.55115.22046,1.10889.40894a19.50274,19.50274,0,0,0,3.39062.82293,17.53236,17.53236,0,0,0,2.29175.18763,24.44917,24.44917,0,0,0,5.2356-.48108,23.99755,23.99755,0,0,0,4.85547-1.53607,24.51076,24.51076,0,0,0,5.38281-3.24079,25.62189,25.62189,0,0,0,3.636-3.51922q.41235-.48642.80273-.99463a26.87274,26.87274,0,0,0,2.12793-3.23249,28.92685,28.92685,0,0,0,3.61157-14.40313q-.01171-1.50138-.134-2.93067A32.06433,32.06433,0,0,0,808.24759,555.72546Z"/><path class="cls-1" d="M1013.53787,538.26233c-13.77392-.16473-24.91186,10.82135-25.49365,25.14587-.54932,13.53278,11.84277,27.5066,24.72315,27.87824,13.19287.38086,24.23583-11.356,24.45532-25.99194C1037.46976,548.87079,1028.32938,538.43909,1013.53787,538.26233Z"/><path class="cls-1" d="M895.83328,538.12793a33.77232,33.77232,0,0,0-8.46875,2.5097c-3.30493,1.43427-8.78174,6.42853-8.12011,11.52747a6.46349,6.46349,0,0,0,.20654.99268l32.63721-1.06574c1.99755-.0733,5.6455-.49621,5.6455-.49621s-.51928-4.4256-3.05371-7.16083C909.16336,538.48175,902.44705,537.15088,895.83328,538.12793Z"/><path class="cls-1" d="M788.29739,172.48535c13.80762-.086,27.198-13.4823,26.94288-26.95532-.26734-14.1651-13.00562-26.01587-27.75293-25.82037-14.6565.19439-25.065,11.21069-25.00782,26.46893C762.534,160.66467,774.221,172.57312,788.29739,172.48535Z"/><path class="cls-1" d="M853.03153,409.61206c13.26123.36237,25.60888-12.52191,25.66186-26.77685.05444-14.67933-11.6626-26.82325-25.61352-26.54676-13.67847.271-24.35987,11.84235-24.37964,26.41156C828.68167,396.47327,840.24442,409.2627,853.03153,409.61206Z"/><path class="cls-1" d="M375.43216,241.41681c-43.52087-.15588-79.0166,34.82562-79.09619,77.95038-.07861,42.48517,35.98169,78.75488,78.35058,78.80591,41.70264.05,77.00135-35.37195,78.269-76.43061C454.32376,277.41486,416.25565,240.15546,375.43216,241.41681ZM399.563,313.619c-12.66589.01538-18.44629-5.93457-18.459-19.0022-.012-11.95062,7.00647-19.3006,18.549-19.42578,10.153-.11,19.94958,9.54462,19.84533,19.55719C419.39029,305.11731,410.42313,313.60571,399.563,313.619Z"/><path class="cls-1" d="M1306.39725,551.7179c.63672-.06751,1.07788-.11829,1.07788-.11829s-.11206-.442-.29859-1.08618c-.48754-1.68237-1.52856-4.86646-2.75512-6.07465-8.238-8.10907-17.82178-7.91748-27.31592-3.79736-2.77515,1.20477-7.072,4.92419-7.9873,9.10541a6.81967,6.81967,0,0,0,.07421,3.41461l32.637-1.06574C1303.14652,552.04742,1305.16434,551.84876,1306.39725,551.7179Z"/><path class="cls-1" d="M1129.51932,538.1109c-13.488.09223-24.15845,11.86652-24.011,26.495.14209,14.13873,12.51392,27.28387,25.283,26.86291,14.05029-.46313,24.45508-12.36578,24.26953-27.7641C1154.87137,548.02081,1144.877,538.00574,1129.51932,538.1109Z"/><path class="cls-2" d="M739.24149,434.68933h26.93188v-76.3421h32.219V332.56079H770.951c-5.24561-.75293-5.23657-4.96173-3.40552-10.11151,2.66333-7.49109,8.35523-11.57935,16.02588-12.73486a35.0831,35.0831,0,0,1,10.29419-.18689c5.48437.82611,8.7439-.27509,10.273-3.05921.022-.03985.03808-.08545.05908-.126v-20.7865c-.021-.04785-.03686-.10187-.05908-.14856-1.03418-2.17145-3.229-3.08148-6.53638-3.4303-31.10083-3.28162-52.75513,12.39069-58.63891,42.83356-.35474,1.83545.0083,5.659-.82422,7.75024H727.74612v25.78644h11.49537Z"/><rect class="cls-2" x="865.62137" y="92.05432" width="27.61108" height="134.52362"/><path class="cls-3" d="M514.17264,105.75818c-14.50928-9.56-29.63233-17.05432-45.33032-24.94367L441.864,128.68329s6.79664,4.18841,12.82642,7.7088c9.72656,5.67871,20.82166,11.22931,30.24316,17.40839,80.5542,52.829,118.7212,146.23626,92.22144,240.84539-22.99731,82.10492-77.9602,132.89814-160.19092,153.83167-4.0448,1.02972-6.67175,2.35382-8.2478,4.15l12.0896,52.91529a20.70276,20.70276,0,0,0,4.23389-.5647c46.91626-10.52728,88.44531-31.41229,124.67309-63.20166,12.085-10.60474,22.34595-22.94373,35.12427-36.43658,0,35.66754-.18311,68.59332.07739,101.51538.13013,16.44506.41358,31.36645.12647,49.33807h56.15332q.12158-155.15734.32544-310.31415c.09179-31.55957-3.58911-62.22363-13.32666-92.50439C607.8743,190.187,569.11331,141.96027,514.17264,105.75818Z"/><path class="cls-3" d="M320.47574,548.65222c-43.20007-9.523-80.47058-30.55285-109.94666-63.38305-53.29345-59.35712-70.95556-128.34144-50.03173-205.90522,17.2677-64.012,56.72314-109.42566,115.27063-137.72522,2.33605-1.12915,6.80432-3.34448,9.108-4.60638,4.34741-2.38135,11.22363-6.0918,11.22363-6.0918l-27.1853-50.126c-11.72852,6.26484-23.06873,11.50043-34.24854,18.08905-55.53174,32.7262-96.14673,78.2035-119.76611,138.42914-12.94482,33.00586-18.80164,67.15369-18.5791,102.84088.65869,105.33619.23926,210.67933.24182,316.01978H154.013c-1.60889-1.44043-1.522-3.32446-1.51977-5.27057q.085-66.704.17285-133.408c.00757-2.79932-1.17066-6.14307,3.62011-9.49194,2.15918,2.76983,4.29151,5.83282,6.74829,8.60742q60.07362,67.84809,148.3523,88.09637a21.51165,21.51165,0,0,0,5.71326.67121l12.03332-52.66889C327.57608,550.808,324.76761,549.59839,320.47574,548.65222Z"/><path class="cls-2" d="M499.28885,314.41077c-1.833-51.63568-36.52686-100.379-89.77539-115.28736C330.02615,176.869,253.34659,232.52173,250.3057,314.913c-1.82178,49.3587-.29236,98.83831-.54651,148.2622-.03186,6.18262,2.061,7.94672,7.92981,7.73456,10.31543-.37317,20.66479-.38086,30.98-.00226,6.03637.22156,7.89257-1.925,7.718-7.91656-.39953-13.67517-.126-27.37006-.126-42.1836,5.49621,2.55585,9.95874,3.43183,14.29736,6.04505,29.88672,17.99951,62.56555,23.00146,95.78882,13.96032C464.67825,424.93878,501.37528,373.19458,499.28885,314.41077Zm-46.33325,7.33172c-1.2677,41.05866-36.56641,76.48066-78.269,76.43061-42.36889-.051-78.42919-36.32074-78.35058-78.80591.07959-43.12476,35.57532-78.10626,79.09619-77.95038C416.25565,240.15546,454.32376,277.41486,452.9556,321.74249Z"/><path class="cls-2" d="M1127.28763,510.3078c-28.25708,2.3324-44.97437,20.60211-47.8479,43.881l-.84839,102.00458h26.80322c.05762-11.84192.23413-23.685.1272-35.52545-.06177-6.89954,1.8269-8.61682,8.84814-5.79694,12.39405,4.97821,25.053,4.35089,37.7544-.31335,23.10107-8.48279,37.45679-40.841,27.519-69.287C1171.427,521.75073,1149.51541,508.473,1127.28763,510.3078Zm3.50366,81.161c-12.769.421-25.14087-12.72418-25.283-26.86291-.14746-14.62848,10.523-26.40277,24.011-26.495,15.35766-.10516,25.352,9.90991,25.5415,25.59381C1155.24637,579.103,1144.84158,591.00568,1130.79129,591.46881Z"/><path class="cls-2" d="M806.68118,514.61353c-24.80835-10.12452-51.62231-2.446-65.50024,18.7417-7.07227,10.79791-9.18945,23.1043-9.40112,35.92767-.47779,28.969-.96265,57.96521-.96265,86.91046H759.1575c-.42969-15.76453.35181-27.04736.20508-40.56964-.05762-5.29926,4.20337-3.117,6.73877-1.94531,29.72778,13.73816,64.36719-3.59137,70.14722-39.06574C840.12625,550.81128,827.78494,523.226,806.68118,514.61353Zm-.99316,63.85778a26.87274,26.87274,0,0,1-2.12793,3.23249q-.39075.50811-.80273.99463a25.62189,25.62189,0,0,1-3.636,3.51922,24.51076,24.51076,0,0,1-5.38281,3.24079,23.99755,23.99755,0,0,1-4.85547,1.53607,24.44917,24.44917,0,0,1-5.2356.48108,17.53236,17.53236,0,0,1-2.29175-.18763,19.50274,19.50274,0,0,1-3.39062-.82293q-.55737-.18823-1.10889-.40894a23.62056,23.62056,0,0,1-3.23144-1.59637q-1.04956-.61963-2.05323-1.34772a29.03636,29.03636,0,0,1-3.78662-3.28711q-.884-.91059-1.69726-1.90021a29.388,29.388,0,0,1-6.11548-12.5155,24.49108,24.49108,0,0,1-.38452-2.49139,22.79128,22.79128,0,0,1-.11621-2.50873,27.64236,27.64236,0,0,1,5.57544-16.516,26.00225,26.00225,0,0,1,2.58471-2.91742,25.05944,25.05944,0,0,1,3.77686-3.02173q1.0111-.65855,2.08349-1.21375.53541-.277,1.085-.52685a23.3443,23.3443,0,0,1,2.24829-.8855q.57457-.19254,1.16089-.35535a22.957,22.957,0,0,1,6.10449-.83722,31.96488,31.96488,0,0,1,5.50342.44837q1.30443.22521,2.53588.56079a23.378,23.378,0,0,1,6.677,2.95972,22.6313,22.6313,0,0,1,9.44067,13.62139,32.06433,32.06433,0,0,1,.918,5.41205q.12158,1.42887.134,2.93067A28.92685,28.92685,0,0,1,805.688,578.47131Z"/><path class="cls-2" d="M1273.6658,574.58118c22.03931.56189,40.49414.66766,62.2627-1.0329,0,0,1.37134-17.90613-.88379-26.33215-5.60449-20.93891-24.2478-35.95752-44.95093-37.06092-28.782-1.53393-54.57495,22.55408-54.22314,55.87946.395,37.57355,41.10962,66.05212,77.9956,45.28412,4.46607-2.51422,12.03565-4.2652,7.62769-12.25165-5.61182-10.166-15.34107-14.81952-21.86035-11.11975-10.0083,5.67932-21.70459,4.10284-29.12159-4.2782a9.70914,9.70914,0,0,1-2.05493-6.19855C1268.54056,574.37976,1271.46463,574.52515,1273.6658,574.58118Zm-4.5476-24.83435c.91528-4.18122,5.21215-7.90064,7.9873-9.10541,9.49414-4.12012,19.07788-4.31171,27.31592,3.79736,1.22656,1.20819,2.26758,4.39228,2.75512,6.07465.18653.64422.29859,1.08618.29859,1.08618s-.44116.05078-1.07788.11829c-1.23291.13086-3.25073.32952-4.56787.3778l-32.637,1.06574A6.81967,6.81967,0,0,1,1269.1182,549.74683Z"/><path class="cls-2" d="M734.04422,226.57782h28.33106c.20117-5.48547.09277-8.85522.09326-15.116.001-3.8352.09326-7.67273-.00977-11.50494-.11841-4.404,2.02344-5.48254,5.70557-3.85962,13.66919,6.02557,27.20605,5.97833,40.84912-.20709,5.0498-2.28967,6.76489.18445,6.57275,5.29254-.25927,6.89337.11426,13.80957-.10669,20.70575-.06079,1.90472.03882,3.2439.06787,4.68933h26.98389c-.05908-1.44543.08765-2.87555.05029-4.77722-.5625-28.73816,1.60962-57.53674-1.18969-86.21265-2.11719-21.68664-23.06836-41.77563-44.64649-43.82947-28.57275-2.7196-51.72314,11.50568-59.57544,35.24244-5.7561,17.3974-1.30591,35.0158-3.10913,49.581,0,16.65521-.05493,30.46216.03687,44.26825C734.11112,222.88507,734.01346,224.07312,734.04422,226.57782Zm53.44312-106.86816c14.74731-.1955,27.48559,11.65527,27.75293,25.82037.25512,13.473-13.13526,26.86932-26.94288,26.95532-14.07641.08777-25.76342-11.82068-25.81787-26.30676C762.42239,130.92035,772.83084,119.90405,787.48734,119.70966Z"/><path class="cls-2" d="M801.39774,382.82727c-.14893,29.23438,24.84253,53.84265,51.81689,53.99335,29.38916.164,54.50195-26.16046,52.14038-54.55353,2.019-27.29742-20.38574-53.60822-51.27466-53.78436C824.83768,328.31574,801.54569,353.7478,801.39774,382.82727Zm51.68213-26.53882c13.95092-.27649,25.668,11.86743,25.61352,26.54676-.053,14.25494-12.40063,27.13922-25.66186,26.77685-12.78711-.34936-24.34986-13.13879-24.3313-26.912C828.72,368.1308,839.4014,356.55945,853.07987,356.28845Z"/><path class="cls-2" d="M1013.92923,510.23712c-29.75586-.54822-53.70044,22.763-52.27661,53.84845-.21289,31.21851,21.167,53.95453,50.92236,54.1521,29.3313.1947,52.60108-23.13342,52.57593-53.07214C1065.12235,531.16779,1043.5303,510.78253,1013.92923,510.23712Zm-1.16186,81.04932C999.887,590.9148,987.4949,576.941,988.04422,563.4082c.58179-14.32452,11.71973-25.3106,25.49365-25.14587,14.79151.17676,23.93189,10.60846,23.68482,27.03217C1037.0032,579.93048,1025.96024,591.6673,1012.76737,591.28644Z"/><path class="cls-2" d="M1222.99661,481.96918a14.59114,14.59114,0,0,0-.655-5.14929h-25.6792a15.07355,15.07355,0,0,0-1.04394,6.81878c.38647,19.918.13379,39.84857.13281,59.77429-.00073,18.77594-.04272,37.55213.01026,56.32813.06079,21.18738-.25953,16.0404,17.35644,17.01617,7.42676.41126,9.96533-1.869,9.91235-9.488C1222.73563,565.50427,1222.79666,523.73541,1222.99661,481.96918Z"/><path class="cls-2" d="M974.201,357.21289c5.33935.30756,8.92285-.433,11.16748-2.18115v-23.811a9.18391,9.18391,0,0,0-1.5271-.61871c-16.842-5.10541-42.15576,3.71338-53.59473,17.85925-12.68432,15.68683-11.56714,33.96424-11.36157,52.23712,0,9.18586.17017,18.376-.06836,27.55555-.07593,2.90527.5,4.84588,2.03858,5.86517a7.17321,7.17321,0,0,0,4.55029.80963,58.86174,58.86174,0,0,1,11.45019.02771c2.71387.3313,4.57251.02344,5.83033-.83734,1.948-1.33289,2.4414-4.00372,2.33545-7.77289-.37574-13.38525-.14429-26.78869-.10523-40.18445C944.97391,366.12262,954.19022,356.06036,974.201,357.21289Z"/><path class="cls-2" d="M399.653,275.191c-11.54249.12518-18.56092,7.47516-18.549,19.42578.0127,13.06763,5.7931,19.01758,18.459,19.0022,10.86011-.01325,19.82727-8.50165,19.9353-18.87079C419.60257,284.7356,409.80594,275.081,399.653,275.191Z"/><path class="cls-2" d="M900.35233,510.15149c-28.78174-1.53394-54.57471,22.55408-54.22315,55.87946.395,37.57348,41.10986,66.05212,77.99561,45.28405,4.46606-2.51422,12.03564-4.26519,7.62768-12.25165-5.61181-10.16589-15.34106-14.81951-21.86035-11.11975-10.0083,5.67939-21.70459,4.10285-29.12183-4.27813a9.71324,9.71324,0,0,1-2.05468-6.19861c.08349-3.09088,3.00757-2.94544,5.20874-2.88941,22.0393.562,40.49414.66761,62.26269-1.03314,0,0,1.37134-17.90594-.88379-26.332C939.69876,526.27344,921.05545,511.25488,900.35233,510.15149ZM912.08817,552.092,879.451,553.15778a6.46349,6.46349,0,0,1-.20654-.99268c-.66163-5.09894,4.81518-10.0932,8.12011-11.52747a33.77232,33.77232,0,0,1,8.46875-2.5097c6.61377-.977,13.33008.35382,18.84668,6.30707,2.53443,2.73523,3.05371,7.16083,3.05371,7.16083S914.08572,552.01874,912.08817,552.092Z"/></svg>