<svg xmlns="http://www.w3.org/2000/svg" role="img" viewBox="-1.40 -21.40 2802.80 992.80"><title>aivancity School for Technology, Business &amp; Society logo</title><defs><style>.cls-1{fill:#976e13}.cls-2{fill:#595d81}.cls-3{fill:#9b98b1}.cls-4{fill:#9b98b0}</style></defs><path d="M2750.136 181.21606c-27.52609-2.95255-43.37893 13.26691-55.39674 34.64273-12.02835 21.39431-18.97783 45.02348-27.92872 67.75847-11.45326 29.09107-22.50529 58.34-33.73444 87.51928q-16.09338 41.81946-32.195 83.63564c-8.34863 21.687-16.97641 43.27189-24.96136 65.09191-7.13087 19.48615-15.9161 38.13849-27.42833 55.33654-11.14551 16.65026-24.34551 31.22716-44.95446 36.5026-30.551 7.82044-67.52392-.3377-83.76117-32.011-11.06777-21.58931-13.19607-44.74347.75578-66.99866 10.49535-16.74117 34.52382-25.39652 54.31605-19.15765 11.17392 3.52218 21.30237 8.62033 25.47945 19.96442 9.54083 25.91294 4.36617 53.457-28.03131 62.63831-2.72021.77077-5.81518.26766-8.7359.27025-3.34642.00295-7.551-.546-8.80525 3.02371-1.15413 3.28449.70771 6.92232 2.97488 9.85343a22.693 22.693 0 0 0 13.81263 8.59371c13.952 2.251 28.17589 2.54231 40.67713-5.72616 10.7627-7.11873 18.90634-16.88711 25.71267-27.81755 11.23987-18.05016 17.62318-38.28974 26.42127-57.42912 6.18923-13.46387 2.13993-23.65731-4.04894-35.28943-8.24391-15.49507-14.79128-31.894-22.031-47.9212-9.16213-20.28251-18.25261-40.59738-27.4353-60.87062q-28.53616-63.00139-57.16367-125.96143c-7.89613-17.31487-16.25137-34.42229-23.98255-51.80868-1.1922-2.68082-2.60154-2.34635-4.34936-2.34789-39.52424-.035-79.04883.03483-118.57253-.11763-4.14635-.016-4.68964 1.62206-4.68535 5.14749.08149 67.07976-.20427 134.16176.33008 201.23736a75.09059 75.09059 0 0 0 6.84618 31.87087c10.33933 21.732 41.23436 26.91336 59.01462 12.73831 11.23111-8.9537 16.25691-20.78375 17.153-34.54067.28487-4.37538 1.10356-6.37875 5.69508-5.61656a10.82318 10.82318 0 0 0 3.649-.00174c5.971-1.09253 7.54746 1.64459 6.97718 7.17389-2.03073 19.685-8.142 37.41989-22.007 52.27021-20.62576 22.09134-46.04641 31.48186-75.87737 31.4778-19.69895-.00268-38.69465-2.7138-56.31086-11.59781-23.09916-11.64909-36.83941-30.993-43.49509-55.6745-3.53085-13.09318-4.34168-26.51254-4.35973-39.966q-.12626-93.66771.08972-187.33531c.01805-5.61473-1.21615-7.70616-7.1189-7.22283-6.78578.55564-13.66287-.10156-20.47939.21494-4.01177.18627-5.56819-1.41481-4.65979-5.007.97524-3.856-3.42041-10.46347 4.28842-11.017 9.08708-.65249 18.25708-.153 27.84259-.153 0-15.663.13958-31.98224-.09043-48.29629-.06362-4.52956.66178-6.5748 5.776-8.21817 21.41139-6.8803 42.48982-14.78926 63.75412-22.13666 10.71213-3.70131 21.56061-7.00781 32.85874-10.658v89.649c28.961 0 57.49483.0095 86.02869-.01522 2.74094-.00238 5.48205-.31837 8.223-.31932q86.00207-.02945 172.00395.0227c2.52576.00216 6.02445-1.20249 7.11782 2.04976 1.39683 4.15534.96792 8.71681.15906 12.97544-.33295 1.75258-2.99811 1.002-4.62387 1.00993-10.72267.05243-21.44605.02707-33.54053.02707 26.12032 62.37948 51.92753 124.01088 78.24247 186.85516 8.14919-20.77715 16.29694-39.83161 23.119-59.34933 10.15989-29.067 23.84761-56.88985 31.51445-86.76667 2.50164-9.74843 2.695-20.42683-3.597-29.98883-5.77211-8.772-14.52875-10.81313-23.80294-12.16062a26.90235 26.90235 0 0 0-7.30512-.00086c-6.23676.82487-9.03167-.83089-8.58256-7.98441.36011-5.73636 2.49431-6.808 7.57193-6.78786 38.54846.153 77.09781.08357 115.647.08348z" class="cls-1"/><path d="M54.864 387.60119c4.00158-12.5402 9.31172-24.15029 19.31-33.41444 9.33637-8.65082 20.00182-14.69724 31.661-19.32286 22.597-8.965 46.51784-13.76849 69.34529-21.95687 15.53206-5.57149 30.59628-12.04966 42.544-24.29079 10.64491-10.90633 16.2489-23.81684 18.76434-38.60033a86.088 86.088 0 0 0-.457-31.53237c-4.18858-21.15479-17.76678-33.45443-38.02481-38.04655-21.74429-4.929-42.86043-2.83645-62.30241 9.39052a20.75384 20.75384 0 0 0-5.91816 5.23206c-2.46265 3.41825-6.06284 7.16325-4.2223 11.62493 1.77408 4.30057 6.4911 1.887 9.91033 2.31615 20.49781 2.57264 34.89643 13.23564 39.11431 29.47168 6.18329 23.80143-2.37579 43.26548-22.02122 54.02426-19.84053 10.86564-40.1309 12.13541-59.88389.31173-14.22991-8.5177-22.043-21.95676-23.06675-38.47194-2.02673-32.69437 14.91239-54.878 41.03478-71.714 20.23353-13.04059 42.84665-17.81254 66.33825-20.68a202.664 202.664 0 0 1 36.31207-1.00626c29.12348 1.68175 57.45566 7.03052 81.78046 24.745 17.39744 12.66961 28.75718 29.66294 35.04839 50.25527 3.93314 12.874 4.51615 25.94167 4.449 39.26295-.22766 45.12379-.07571 90.24947-.10019 135.37442-.00328 6.037 1.31382 11.81445 2.73341 17.639 1.58247 6.49287 5.11138 10.9678 11.78754 11.99506 7.496 1.15336 14.13767-1.427 18.43847-7.56569 2.94369-4.2016 5.32669-9.15846 5.09925-14.67762-.33129-8.0403 5.23854-6.83294 10.33392-7.008 6.77009-.23268 4.425 4.81276 4.19078 7.63595-2.44774 29.49569-19.66264 56.94508-53.3503 63.9465-21.14675 4.395-42.33434 2.95742-61.64232-7.692-16.69617-9.20889-27.37565-23.60854-32.14544-43.06413-6.22993 9.07051-12.62988 17.927-20.88985 25.12538a113.12215 113.12215 0 0 1-59.52636 27.5288c-23.26436 3.36918-45.07718-.86771-65.48333-10.94971a70.61426 70.61426 0 0 1-37.61037-44.928c-.32285-1.11222.00652-2.48174-1.55092-2.90118zM233.47124 294.914c-12.75138 11.95271-26.20319 20.29873-38.98715 29.50945-9.2616 6.67293-17.78733 13.94938-24.40616 23.26579-13.38655 18.84237-17.41389 40.03631-13.97236 62.45928 1.86637 12.16029 6.50629 23.32047 18.06067 30.37483 23.99372 14.64908 57.27348-.263 58.89066-33.26958 1.80619-36.8641.41434-73.88485.41434-112.33977zm1832.9646-261.53409c6.37562 3.99566 13.27077 7.01046 19.73093 10.96386 10.11593 6.19069 17.75668 29.54084 14.70263 40.45952-7.1827 25.67977-24.77156 39.11335-51.75543 39.40827-15.94255.17425-29.854-3.54843-42.1953-14.5868-13.23-11.83326-16.81449-38.4018-5.21094-54.85139 7.13945-10.12085 16.90617-15.89431 28.1598-19.83555 1.081-.37863 2.47823.00231 2.89571-1.55791z" class="cls-2"/><path d="M495.53583 33.37991c7.80342 4.20757 16.22849 6.708 23.11841 13.23738 24.58365 23.29723 12.45258 63.02487-17.07068 73.25847-22.63772 7.84686-43.68126 6.39586-62.73764-8.92643-6.54746-5.26449-10.50526-12.11948-12.42695-20.74235-4.79077-21.49687 3.49768-40.78181 22.91792-50.67 4.14563-2.11083 8.34939-4.10769 12.52634-6.15706z" class="cls-1"/><path d="M1628.692 918.9331c-12.27748-3.84746-24.43772-7.79757-34.19909-16.88715-20.204-18.81391-28.90022-41.5983-21.65-68.55061 7.60732-28.2797 26.99887-45.58343 55.69893-50.46061 30.57906-5.19642 54.00848 7.3591 71.01277 32.846 3.08568 4.62488 2.57956 6.42479-3.19129 6.06645a52.15839 52.15839 0 0 0-8.77147.02135c-6.75379.72713-11.675-1.52125-16.72067-6.44167-14.82595-14.45839-38.08416-15.8543-56.77426-4.37866-16.87848 10.36328-25.13078 31.55637-19.79831 50.84512 5.65165 20.4438 23.78488 34.73 44.33951 35.113 14.51266.27052 26.66647-4.76943 36.19461-15.75076a7.98381 7.98381 0 0 1 6.935-3.15079c3.40558.16742 6.85208-.22415 10.23264.111 3.2265.31984 7.71634-1.96178 9.3757 1.51653 1.2921 2.709-2.21284 5.60734-3.93975 8.17556-10.69819 15.90951-25.35936 25.96886-44.288 29.64434a10.08137 10.08137 0 0 0-2.49593 1.28085zm-279.62895 0c-8.43853-3.52745-17.50675-5.33646-25.38286-10.45825-24.42942-15.88646-37.07764-44.64975-31.22046-71.87829 6.05242-28.13542 29.54153-49.76761 58.575-53.94437 29.54225-4.25 57.33087 10.44663 72.49807 39.2738-11.71105-1.16712-22.43524 2.91994-32.89252-6.90874-18.634-17.51368-48.65947-14.68986-65.58781 4.30211-16.67689 18.70974-15.10537 47.67181 3.54265 65.287a46.83573 46.83573 0 0 0 65.30518-1.33731c3.81465-3.89964 7.60652-5.43885 12.83346-5.103 5.27957.33913 10.598.0746 16.946.0746-9.37883 19.10864-23.2852 31.31445-42.42146 37.73262-2.92466.98076-6.28743.68219-8.77085 2.95988zm-218.13989 0c-11.53162-4.08474-22.56632-8.79181-29.41438-19.91966a51.586 51.586 0 0 1-6.55175-18.41912c-.50478-2.82855.08873-4.19427 3.11874-4.11494a46.29876 46.29876 0 0 0 7.30414-.054c6.9669-.93243 10.87323.79654 13.93443 8.35843 5.73591 14.1684 28.08161 16.65684 38.47992 5.28537 6.98566-7.6398 5.67587-18.984-2.9865-24.60762-8.70284-5.64986-19.0754-7.19006-28.42671-11.26417-13.26917-5.78119-24.39385-13.47423-26.32468-29.40546-2.7371-22.58472 10.79344-40.113 33.39184-43.24419 21.595-2.99217 40.47643 9.98324 44.94374 30.43062 1.05576 4.83242-.12528 6.24826-4.76219 5.89519a49.57869 49.57869 0 0 0-8.76513.013c-5.12418.52442-8.29045-.77814-10.77011-6.04867-3.67258-7.80543-12.20278-10.42841-20.63291-7.8065-7.48008 2.32656-11.60042 8.20808-11.59658 15.79829.00277 5.46314 2.98006 8.77529 7.44389 10.67194 8.04964 3.42025 16.34287 6.26211 24.45962 9.53119 10.32771 4.15943 19.8118 9.65393 25.72742 19.51754 11.89566 19.83479 2.472 46.2826-19.531 55.20092-3.77007 1.52805-7.64638 2.79451-11.47354 4.18185z" class="cls-3"/><path d="M1398.83993 209.48962c10.942-15.87665 23.91428-27.49128 39.36644-35.92784 12.979-7.08626 27.15355-10.75686 41.90614-13.08046 16.942-2.66843 33.07435.2206 48.668 5.39861 23.63754 7.849 39.42907 24.86814 48.52455 47.76123 7.48437 18.83842 10.4092 38.6649 10.40206 58.93029-.02181 60.74181.08631 121.484-.15495 182.22486-.02413 6.01307 1.28907 8.04557 7.51046 7.60048 8.25356-.59053 16.59772.17153 24.87057-.26346 5.0115-.2635 6.52432 1.57379 5.857 6.17214a12.25414 12.25414 0 0 0 .002 3.65078c.80493 5.003-.97239 6.62231-6.24624 6.52855-19.02555-.33819-38.06057-.1328-57.092-.13275-33.67109 0-67.34512-.23273-101.01084.193-6.87388.08688-7.42539-2.65591-7.06331-8.03387.307-4.56114-1.00983-9.16413 6.64593-8.43683 7.20414.68434 17.02725 2.693 21.17869-.9829 4.7647-4.21884 1.47154-14.19037 1.48342-21.64282q.1662-104.28543-.01564-208.571c-.02779-11.73-2.97112-22.80958-13.29016-30.02613-16.99777-11.88722-35.22956-9.92383-49.5375 3.08961-12.3227 11.20787-19.09561 25.12974-20.85531 41.97132a196.3705 196.3705 0 0 0-1.10079 20.204c-.08177 62.93726.05191 125.87506-.20535 188.81141-.02537 6.2181 1.636 7.96074 7.65183 7.44959 6.54058-.55573 13.17185.05651 19.75-.19646 3.67687-.14133 5.54184.75161 5.006 4.79445a21.17048 21.17048 0 0 0 .00474 5.84172c.69019 4.61367-1.21972 5.66943-5.66291 5.637-27.81382-.20276-55.62978-.10216-83.445-.10212-25.86333 0-51.73354-.3335-77.58552.20807-7.50573.15728-6.12329-3.98767-6.09442-8.174.02814-4.08684-1.62309-8.86217 5.933-8.28875 8.7334.66272 17.56179-.03774 26.33692.2372 4.1786.13092 5.90632-.603 5.89774-5.45328q-.24006-135.022-.02108-270.04459c.00634-4.428-.99866-5.924-5.62789-5.73357-9.256.38079-18.54481-.08311-27.80783.20238-4.01329.12369-5.39922-1.38566-4.68794-5.02755.68921-3.52833-2.57223-8.928 4.32336-9.67154a34.29312 34.29312 0 0 1 3.65792-.0269c41.47884-.00047 82.95865.13393 124.4357-.1399 6.49617-.0429 8.49973 1.88728 8.22416 8.304-.47579 11.07416-.13195 22.18356-.13195 34.74603zM1091.7509 431.68967c-12.58148 18.935-27.08949 33.8769-46.89923 42.75622-19.50031 8.74067-39.51673 13.23539-61.24221 10.01527-15.78582-2.33974-30.73784-6.26059-44.121-14.8999-18.64069-12.03316-29.58451-28.84227-32.81012-51.2576-2.44615-16.99925-.60406-33.1047 6.96645-48.045 6.38742-12.60524 17.071-21.87883 29.64447-28.55006 17.9505-9.52419 37.41765-14.69587 56.85862-20.21582 21.85075-6.20419 44.17464-12.15566 62.51822-26.43867 15.8044-12.306 24.59044-28.669 26.06483-49.21043.72745-10.13614.92288-20.07013-1.387-29.80986-5.21229-21.978-20.66186-32.55061-41.9459-36.33076-20.57911-3.655-39.90571-.86713-57.86934 10.22042a23.1969 23.1969 0 0 0-6.83492 6.40083c-2.10588 3.0033-5.21952 6.28386-3.14206 10.421 2.00571 3.99443 6.09031 1.93768 9.27794 2.24818 33.28694 3.24251 50.58906 32.99691 37.62228 61.762-8.32093 18.459-23.622 26.93692-43.50117 29.249-12.10118 1.40747-23.07288.02082-33.6717-5.80533-15.73471-8.6493-24.30271-22.13783-25.5975-39.71985-2.37394-32.23519 14.15693-54.44164 39.71359-71.21535 20.19577-13.25517 42.97574-18.5766 66.692-21.16843 22.46338-2.45494 44.51286-1.25444 66.82657 2.6786 24.91677 4.39188 46.93766 14.00952 64.64814 31.69777 14.45288 14.43469 22.99032 32.72037 25.42637 53.161 3.66784 30.7762.89974 61.72447 1.4953 92.591q.57864 29.98954-.06 59.99731c-.16236 8.04905 1.02564 15.92532 1.84987 23.8041.69243 6.61959 4.68723 12.22416 11.66 14.14221 7.03794 1.93588 16.63176-2.20474 20.18933-8.31666 2.65829-4.567 4.61664-9.66734 4.3164-14.85961-.33125-5.72947 2.19675-6.20443 6.80043-6.06167 8.60383.26685 9.28822.5275 7.95331 9.03669-2.78865 17.77589-8.66084 33.876-22.40539 46.77758-10.85688 10.1909-23.75218 15.39814-37.68348 17.0903-16.50452 2.00472-33.35092 1.09252-48.88627-5.88-19.5939-8.79407-32.32228-23.90168-38.46683-46.26448zm-6.21318-136.73467c-13.06981 11.67453-26.40411 20.47-39.4204 29.69688-12.07562 8.56-22.47035 18.66909-29.80264 31.74356-9.95017 17.74269-10.6199 37.35512-7.754 56.18828 4.111 27.01547 25.32665 36.22236 42.3858 33.09255 25.02731-4.59178 33.68351-21.05845 34.30016-41.94951 1.055-35.74765.29108-71.54897.29108-108.77176zm677.82628 24.99722a212.50483 212.50483 0 0 0 9.09994 68.96655c8.508 27.2899 23.42317 49.94109 53.41283 57.51745 37.50244 9.47432 75.896-4.698 90.31729-46.60654.96273-2.79789.83513-5.581 1.73549-8.3646 3.2022-9.90013 5.083-11.32917 15.32939-9.77673 2.11436.32033 3.12.85187 2.79044 3.08384-3.60556 24.42389-12.56 46.54771-30.07008 64.24886-17.41927 17.60919-39.16556 27.32713-63.32592 32.35828-17.04218 3.549-34.23466 3.54491-51.319 2.56438a140.37046 140.37046 0 0 1-44.98575-10.5232c-16.46278-6.74024-31.4678-16.16869-43.8811-29.02733a143.46908 143.46908 0 0 1-34.64963-58.41557c-7.46275-24.23252-11.10887-48.74439-9.5789-73.75639a180.94642 180.94642 0 0 1 14.1681-60.86461 152.49176 152.49176 0 0 1 35.70708-50.70621c20.567-19.58921 45.18929-31.36377 72.858-36.95042 12.70193-2.56468 25.53557-5.046 38.53166-4.34082 31.19866 1.69272 61.34237 7.69379 85.86231 28.71569 18.04047 15.46693 28.29491 35.44451 30.991 59.55964 1.9428 17.37655-.55079 33.349-10.56218 47.52423-9.93722 14.07052-23.91713 21.304-41.41539 22.31675-14.84382.85912-28.04025-2.73088-39.496-12.00955a44.77392 44.77392 0 0 1-17.1705-32.64733c-1.30228-16.90957 2.14779-32.1252 14.85008-44.02256 10.19832-9.5519 22.08674-15.61044 36.631-15.43957 12.021.14124 14.18579-3.77279 8.68515-14.406-6.07378-11.74109-17.26843-16.17393-28.85215-18.7816-25.24926-5.684-47.664-.20039-65.31286 19.8026-9.78138 11.08616-15.65982 24.45885-19.85835 38.31991-7.90861 26.10984-10.78609 53.02429-10.49195 81.66085zM696.31346 182.679c25.96824 76.24159 51.77585 152.0115 77.99943 229.00278 9.31815-27.32047 18.26123-53.41251 27.1154-79.53468 10.64448-31.40421 21.33015-62.79542 31.75347-94.2732 3.81224-11.513 5.21533-23.38262 2.16253-35.38154-3.37072-13.24822-12.71711-20.69519-26.49079-21.26161-2.43578-.10017-4.87916-.0142-7.3191-.01493-9.27107-.00283-9.0273.00052-8.90019-8.91735.066-4.62945 2.01759-5.7847 6.23333-5.774 37.33029.09516 74.66171.16984 111.9908-.05672 6.28555-.03814 6.62189 3.23841 6.34024 7.84693-.20874 3.41475 1.28951 7.47693-4.98693 6.97356-24.39287-1.95627-38.37278 12.70058-49.54384 31.60789-9.49205 16.06552-14.47442 33.88159-20.30711 51.41673-7.77951 23.38819-16.35055 46.51207-24.43451 69.80048-7.60947 21.92132-14.93693 43.94057-22.55573 65.8586-8.16853 23.49959-16.96386 46.793-24.55054 70.47585-2.31207 7.21732-5.791 8.19227-12.30523 8.05228q-28.89954-.62127-57.81992-.01207c-6.41887.12584-9.06357-1.17355-11.17428-8.185-5.86584-19.48561-13.47879-38.44447-20.371-57.62244-8.09173-22.51562-16.56354-44.90551-24.12239-67.599-9.8828-29.67075-20.31743-59.13781-30.87134-88.57078q-12.58763-35.10446-24.53089-70.43646c-1.05776-3.14284-2.38091-3.45171-4.99684-3.42914-10.00286.08628-20.00736-.01825-30.01026.06571-2.93364.02462-5.82027-.01747-4.8335-4.04257 1.0092-4.11638-3.58349-10.29341 4.10953-12.023a23.82211 23.82211 0 0 1 5.11185-.06572q84.54268-.001 169.08536.03538c2.52349.0021 6.05555-1.17218 7.02543 2.18723a24.8869 24.8869 0 0 1-.01188 12.93608c-.435 1.70534-3.04658.90313-4.67315.91145-10.97641.05615-21.95323.02926-34.11795.02926z" class="cls-1"/><path d="M428.19072 289.542c0-39.98574.11514-79.97215-.116-119.95655-.03751-6.48384.75759-7.91355 7.95164-6.26075 24.96493 5.73557 47.9301 15.288 65.76434 33.97524 13.74682 14.40431 22.77313 31.77341 24.46529 52.13169 3.39289 40.81992.65695 81.72259 1.45009 122.58024.246 12.67364.39562 25.36994-.095 38.02931-.29644 7.64868 1.53364 14.82767 3.43686 21.93371 2.85647 10.66529 17.312 13.28912 26.83687 5.21715a24.812 24.812 0 0 0 9.23054-18.79922c.13448-7.62947 4.58549-7.30249 10.0314-7.49957 7.24708-.26226 4.74879 4.86373 4.65908 7.99866-.79546 27.80322-22.84708 53.62981-47.74732 61.16289-19.37234 5.86079-38.56195 6.43886-57.181-.56172a72.934 72.934 0 0 1-39.89789-35.5951c-7.49308-14.48957-8.93249-30.09144-8.84836-46.10225.18947-36.08363.05941-72.16901.05946-108.25373z" class="cls-2"/><path d="M1999.09064 293.07206c0-41.19508.106-82.39074-.11974-123.58458-.03235-5.86482.38209-7.652 7.21737-6.06545 24.62269 5.71512 47.10171 15.03572 65.06713 33.53715 13.40088 13.80052 21.31613 30.24022 24.44094 49.08216a244.42869 244.42869 0 0 1 3.0108 41.03217c-.16781 44.607-.30864 89.2172.069 133.82169.134 15.83527 8.21031 22.07115 19.4298 20.75122 7.82089-.92006 12.55163-6.58783 16.10375-12.99069a41.2233 41.2233 0 0 0 3.74228-10.67883c1.44633-6.25433 4.582-8.2539 10.83329-7.01844 3.57643.70689 2.29969 3.16768 2.42551 5.05219 1.00312 15.044-4.42246 28.02048-13.282 39.743-14.956 19.78932-35.52516 27.64942-59.72573 28.55536-23.478.879-43.41288-6.85522-59.40761-23.68917-12.69514-13.361-19.96612-29.342-19.86729-48.35056.20654-39.73142.0625-79.46469.0625-119.19722z" class="cls-1"/><path d="M2087.12414 878.36532q0-4.62073-.00018-9.24146c.00018-26.581.08418-53.16265-.08006-79.7426-.02788-4.49454.8555-6.46222 5.9653-6.51207 15.89269-.15491 15.89072-.38058 15.89072 15.48185 0 37.06714-.11581 74.135.12117 111.20061.03681 5.73518-1.07407 7.603-7.40556 8.11972-10.72409.87507-17.09329-2.86688-23.24356-11.76929-19.92537-28.8412-40.93268-56.935-61.58649-85.40363-2.42015 1.58754-1.30658 3.7088-1.31176 5.38086-.08668 27.80013-.2477 55.60285.081 83.39932.0738 6.25433-1.296 8.5163-7.993 8.25418-13.1128-.51352-13.1287-.10632-13.1287-13.22176 0-38.04263.12617-76.08615-.13189-114.127-.04-5.89564 1.90616-6.87282 7.43129-7.44736 10.43172-1.08466 16.70745 2.72224 22.65041 11.32591 18.5541 26.86037 38.07736 53.05152 57.2298 79.49843 1.27316 1.7581 2.58921 3.48537 3.88524 5.22694q.8133-.21132 1.62627-.42265z" class="cls-4"/><path d="M1038.41063 917.35547c-8.30288 0-16.03772-.089-23.76871.04556-2.9151.05075-4.25938-1.70565-5.80651-3.68486q-15.52575-19.86159-31.19357-39.61222c-2.5322-3.20323-14.94-5.49155-18.12143-3.38441-2.01447 1.33427-1.41676 3.47161-1.4256 5.32458-.05541 11.7-.21571 23.40449.06147 35.09812.11054 4.66437-1.16423 6.31284-6.09629 6.34688-15.83506.10908-15.83372.3176-15.83372-15.50258 0-37.05034.18167-74.10238-.16772-111.14942-.06264-6.64634 1.89651-8.33618 8.216-7.95712 15.29856.91787 30.69031-1.12138 45.96644 1.22528 18.24537 2.80273 31.14853 15.2837 34.80332 33.65279 3.6245 18.21642-3.81626 37.01613-18.96621 45.52671-5.242 2.94469-4.98756 4.74406-1.69734 8.8707 11.38025 14.27354 22.45355 28.79161 33.63185 43.22587a9.8105 9.8105 0 0 1 .39802 1.97412zm-64.74384-112.73956c-15.60165-.00062-15.60165-.00062-15.60165 15.53563 0 1.94321-.07783 3.89008.01385 5.829.342 7.23232-3.04609 16.70642 1.25448 21.11314 4.66587 4.781 14.26461 1.46318 21.69188 1.5083 13.91843.08452 22.55175-8.61546 22.51458-22.04431-.03717-13.41107-8.65718-21.78808-22.58455-21.93389-2.42926-.02547-4.85906-.00358-7.28859-.00787z" class="cls-3"/><path d="M1828.84756 850.38276c-.00036 20-.15012 40.00191.09829 59.99876.06738 5.40793-1.62057 7.16219-7.11711 7.10939-14.50193-.13937-14.50408.11006-14.50426-14.65592 0-13.41464-.19033-26.83339.09937-40.24178.1058-4.89112-1.007-6.84915-6.37849-6.74311q-25.23916.49905-50.49353.008c-5.242-.09578-6.581 1.67072-6.49661 6.67538.27557 16.33673-.02431 32.68275.185 49.02154.05647 4.41342-1.27316 5.83846-5.79481 5.91922-16.06586.28651-16.063.46117-16.063-15.26842.00017-37.31711.1167-74.63493-.12332-111.95052-.03645-5.689 1.39379-7.532 7.28636-7.40358 14.60594.31831 14.61184.01787 14.61274 14.63224.00071 10.48782.13725 20.97814-.06238 31.46212-.07827 4.10422 1.35644 5.5465 5.4851 5.50844 17.319-.15982 34.64212-.18627 51.96042.01707 4.44176.05208 5.94867-1.34795 5.86682-5.8365-.24-13.16628.11456-26.34435-.18658-39.50813-.11062-4.83349 1.41274-6.33939 6.20853-6.21252 18.17344.48073 15.21858-2.28824 15.38068 14.78581.16653 17.55929.03696 35.12157.03678 52.68251z" class="cls-4"/><path d="M922.74792 916.59314a9.14033 9.14033 0 0 1-1.40862.52737c-21.38762 1.64982-21.35643 1.63552-29.821-17.79787-3.79043-8.70238-7.91221-17.2646-11.5309-26.03587-1.70279-4.12726-3.91992-5.94718-8.64914-5.80486-11.93354.359-23.88916.29455-35.82744.0251-4.25769-.09613-6.56864 1.23984-8.27188 5.21952-5.458 12.753-11.57156 25.23039-16.83969 38.05737-2.101 5.1158-4.812 7.18729-10.29831 6.681-5.02482-.46367-10.12613-.09845-16.25182-.09845 4.35057-9.94822 8.25373-19.03878 12.28879-28.07038 14.79364-33.112 29.98523-66.0536 44.21266-99.40648 3.74-8.76743 9.99352-6.20761 16.09768-6.98575 5.90114-.75214 7.95608 2.5022 10.02077 7.16478Q893.374 850.825 920.6046 911.4375c.68233 1.5276 1.28692 3.08978 2.14332 5.15564zM853.4945 814.01255c-5.04563 11.28713-9.44674 21.13252-14.28864 31.96394 8.86672 0 16.58708-.08336 24.30441.034 4.06583.06191 3.62959-1.82251 2.4-4.50767-3.92497-8.57182-7.76813-17.18122-12.41577-27.49027zM1966.97356 917.3661c-6.94536 1.92972-10.91782-1.71459-13.81335-9.33455-4.574-12.037-10.55146-23.53439-15.66232-35.37774-1.535-3.55657-3.29817-5.26214-7.48455-5.16083-12.42439.30063-24.86432.27374-37.29067.01537-4.1333-.08594-6.10273 1.60613-7.64056 5.15823-5.51137 12.73076-11.47131 25.2714-16.7868 38.08087-2.06951 4.98724-4.71734 6.8889-10.27159 6.7666-16.1252-.35521-16.34985-.18306-9.73474-15.14049 16.73515-37.84108 33.909-75.49026 50.35771-113.45427 3.19809-7.38107 8.431-5.62655 13.71291-5.93753 5.02312-.2958 8.89031-.05 11.50365 5.92092 17.85783 40.80328 36.11866 81.43136 54.459 122.0213 2.41282 5.33968 1.36877 7.03667-4.28771 6.47267-1.93099-.19252-3.8972-.03055-7.06098-.03055zm-55.57723-103.32273c-4.63 10.19479-8.468 18.78515-12.4335 27.31636-1.80447 3.88213.02824 4.68171 3.43936 4.64159 5.8368-.06861 11.67664-.10953 17.51148.01305 4.01284.08424 5.39573-1.08618 3.5053-5.1368-3.89311-8.34163-7.5446-16.79602-12.02264-26.8342zM1565.901 917.36414c-6.87942 0-12.70818-.20423-18.51433.07227-3.81787.1818-5.49841-1.409-6.97191-4.82375-5.792-13.42152-12.12352-26.61094-17.88249-40.04587-1.605-3.74427-3.57214-5.12518-7.60152-5.04924-12.19545.23-24.40216.261-36.59582-.01376-4.27368-.0963-6.557 1.2578-8.24471 5.23766-5.23007 12.33374-11.12031 24.392-16.18578 36.78956-2.32632 5.69347-5.18861 8.24373-11.76833 8.01448-15.39131-.53639-15.45707-.17867-9.06357-14.54629 17.0361-38.2842 34.17219-76.52418 51.11232-114.85072 1.75319-3.96646 4.0544-5.40731 8.33675-5.22783 15.84622.66414 12.105-2.97578 19.00106 12.3751q26.05746 58.00413 51.91512 116.098c.68376 1.53061 1.28209 3.09931 2.46321 5.97039zm-83.45887-71.39391c8.74029 0 16.50729-.00831 24.2743.00465 2.584.00429 3.61717-.89437 2.41684-3.545-4.08076-9.01132-8.09584-18.05239-12.65868-28.24986-4.24044 9.267-7.89166 17.19385-11.4873 25.14579-.78858 1.74375-1.37878 3.57725-2.54516 6.64442zM700.49 849.9374c.00036-20.24056-.0247-40.48112.03025-60.7215.00733-2.70536-1.06567-6.34626 3.77064-6.1926 16.79051.53326 33.66657-1.5159 50.374 1.15908 22.42952 3.59132 35.75328 20.81 35.11951 44.83442-.57992 21.98552-15.47262 37.73387-37.6 40.40974-8.04807.97308-16.05889.87659-24.08262.765-4.41768-.06129-6.00609 1.35124-5.91119 5.85686.24636 11.70006-.10687 23.41342.17223 35.112.11219 4.70154-1.24273 6.29427-6.14026 6.32643-15.73426.10354-15.73287.30786-15.73287-15.607q.00007-25.97123.00031-51.94243zm37.56383-45.32131a63.1871 63.1871 0 0 1-8.04039-.05771c-5.90864-.76367-8.21669 1.19133-7.88214 7.51552.52734 9.96885.36417 19.99319.045 29.97973-.15665 4.90219 1.05155 7.14628 6.4136 6.73381 5.57615-.4291 11.2119-.02877 16.81972-.112 13.84762-.20575 22.54108-8.96755 22.35647-22.4458-.17921-13.08713-8.816-21.42573-22.39614-21.60521-2.43828-.03219-4.87737-.00459-7.31611-.00834z" class="cls-3"/><path fill="#9c99b2" d="M1073.91746 850.34836c-.00018 19.99828-.16281 39.99888.11045 59.9934.07131 5.21782-1.00312 7.26341-6.77211 7.18211-15.15415-.21352-15.15826.08094-15.15826-14.81511 0-37.31389.11751-74.6285-.12224-111.94087-.03744-5.827 1.16781-8.11329 7.54781-7.93837 14.38506.39434 14.39444.05084 14.39444 14.10881q0 26.70497-.00009 53.41003zm166.83098 23.02909c-10.71231-.00053-21.42729-.14062-32.13548.0696-4.16359.08183-6.00113-.818-6.09272-5.573-.30552-15.87735-.51139-15.87342 15.472-15.87342 17.52927 0 35.06139.1802 52.586-.10283 5.71948-.09237 8.282 1.15381 8.12961 7.60067-.32776 13.87152.01135 13.87956-13.85668 13.87956q-12.05142-.00003-24.10273-.00058z"/></svg>