<svg id="logo" xmlns="http://www.w3.org/2000/svg" viewBox="0 0 400 308"><defs><style>.cls-1{fill:#f60;}</style></defs><title>Alibaba_alink</title><g id="g4687"><path id="path4689" class="cls-1" d="M29.3203,220.70142h-19.1l29.4-56.8h21.1l28.1,56.8h-21.2l-4.3-10.2h-29.5Zm28.9-22.6-9.1-20.7-9.6,20.7Z"/></g><path id="path4691" class="cls-1" d="M93.15329,163.9h18.3v56.8h-18.3Z"/><path id="path4693" class="cls-1" d="M120.75329,163.9h18.3v11.6h-18.3Zm0,17.2h18.3v39.6h-18.3Z"/><g id="g4703"><path id="path4705" class="cls-1" d="M149.04459,163.8558h18.3v22.9a22.14487,22.14487,0,0,1,7.3-5,22.99878,22.99878,0,0,1,8.8-1.7q9.3,0,15,6c3.8,4,5.7,9.3,5.7,15.8,0,6-1.9,10.8-5.6,14.4s-8.7,5.4-14.9,5.4a21.79542,21.79542,0,0,1-9.3-1.9,18.95823,18.95823,0,0,1-7.1-5.5,20.566,20.566,0,0,1-.2,3.6,17.77058,17.77058,0,0,1-.5,2.8h-18.3a15.85439,15.85439,0,0,0,.5-2.8c.1-1.1.2-2.4.2-3.8v-50.2m36.8,37.2c0-3.5-.8-6.2-2.5-8.3a8.18559,8.18559,0,0,0-6.7-3,8.89981,8.89981,0,0,0-7,2.9c-1.6,1.9-2.4,4.8-2.4,8.5q0,5.25,2.4,8.1a8.477,8.477,0,0,0,6.8,2.9,8.38446,8.38446,0,0,0,6.8-3,12.11436,12.11436,0,0,0,2.6-8.1"/></g><g id="g4707"><path id="path4709" class="cls-1" d="M245.94369,214.3351a15.16716,15.16716,0,0,1-6.8,5.1,27.33114,27.33114,0,0,1-10.1,1.7c-5.6,0-10-1-13-3a9.59138,9.59138,0,0,1-4.5-8.5q0-7.5,7.8-10.8c5.2-2.2,14-3.4,26.3-3.5v-.9a5.5228,5.5228,0,0,0-1.8-4.5c-1.2-1-3-1.5-5.5-1.5a10.16487,10.16487,0,0,0-5.1,1.1,4.242,4.242,0,0,0-2.1,3.3h-16.9a10.75324,10.75324,0,0,1,6.2-9.8c4.1-2.1,10.3-3.2,18.7-3.2,8,0,14,1.2,18,3.8,3.9,2.5,5.9,6.3,5.9,11.4v20.2a22.33451,22.33451,0,0,0,.2,3,6.463,6.463,0,0,0,.6,2.1h-17a13.65387,13.65387,0,0,1-.7-2.9,30.28241,30.28241,0,0,1-.2-3.1m-.4-11.3c-5.9,0-10,.4-12.1,1.2s-3.2,2.1-3.2,4a3.58728,3.58728,0,0,0,1.6,3.1,7.71015,7.71015,0,0,0,4.4,1.1c3.1,0,5.4-.7,7-2.2,1.6-1.4,2.3-3.6,2.3-6.6Z"/></g><g id="g4711"><path id="path4713" class="cls-1" d="M271.41929,163.8558h18.3v22.9a22.14494,22.14494,0,0,1,7.3-5,22.99882,22.99882,0,0,1,8.8-1.7q9.3,0,15,6c3.8,4,5.7,9.3,5.7,15.8,0,6-1.9,10.8-5.6,14.4s-8.7,5.4-14.9,5.4a21.79534,21.79534,0,0,1-9.3-1.9,18.95826,18.95826,0,0,1-7.1-5.5c0,1.3-.1,2.5-.2,3.6a17.77058,17.77058,0,0,1-.5,2.8h-18.3a15.85439,15.85439,0,0,0,.5-2.8c.1-1.1.2-2.4.2-3.8v-50.2m36.8,37.2c0-3.5-.8-6.2-2.5-8.3a8.18559,8.18559,0,0,0-6.7-3,8.54753,8.54753,0,0,0-6.9,2.9c-1.6,1.9-2.4,4.8-2.4,8.5q0,5.25,2.4,8.1a9.31284,9.31284,0,0,0,13.6-.1c1.7-2,2.5-4.7,2.5-8.1"/></g><g id="g4715"><path id="path4717" class="cls-1" d="M368.31979,214.3351a15.16711,15.16711,0,0,1-6.8,5.1,27.33114,27.33114,0,0,1-10.1,1.7c-5.6,0-10-1-13-3a9.59139,9.59139,0,0,1-4.5-8.5q0-7.5,7.8-10.8c5.2-2.2,14-3.4,26.3-3.5v-.9a5.52282,5.52282,0,0,0-1.8-4.5c-1.2-1-3-1.5-5.5-1.5a10.16477,10.16477,0,0,0-5.1,1.1,4.242,4.242,0,0,0-2.1,3.3h-16.9a10.75324,10.75324,0,0,1,6.2-9.8c4.1-2.1,10.3-3.2,18.7-3.2,8,0,14,1.2,18,3.8,3.9,2.5,5.9,6.3,5.9,11.4v20.2a22.33257,22.33257,0,0,0,.2,3,6.46277,6.46277,0,0,0,.6,2.1h-17a13.65448,13.65448,0,0,1-.7-2.9,30.28241,30.28241,0,0,1-.2-3.1m-.4-11.3c-5.9,0-9.9.4-12.1,1.2-2.1.8-3.2,2.1-3.2,4a3.58728,3.58728,0,0,0,1.6,3.1,7.71015,7.71015,0,0,0,4.4,1.1c3.1,0,5.4-.7,7-2.2,1.6-1.4,2.3-3.6,2.3-6.6Z"/></g><g id="g4739"><path id="path4741" d="M118.861,120.11021a8.72749,8.72749,0,0,1-3.7-1.9c-10.7-10.5,3-22.6,19-29.6v-20c3.7,2.4,5.8,2.5,5.9,2.8l12.2-12.1-4.1-10.4c35.7-12.3,50-17,79-21.9l-5.2-4.9,8.5-4.8c19.5,6.4,37.9,8.1,34.7,24.5.8-11.1-13-15.3-34-21.2l-4.1,2.5,7.8,6.4c-34.7,6-56.1,12.8-81.5,21.6l3.5,9-12.8,12.7c2.1.6,24.4,8,47.5-8.1,0,0,.5-.3.5-.5a27.41608,27.41608,0,0,0-4.2-4.1,11.15246,11.15246,0,0,1,10.4,12.6h-3.2a11.047,11.047,0,0,0-.9-5.6c-17.9,13.1-38.7,15-56.4,8.8v15.5c-8.6,3-23.9,12.5-23.8,21.7a8.35375,8.35375,0,0,0,4.9,7"/></g><g id="g4743"><path id="path4745" class="cls-1" d="M192.07348,114.9868c-19.2,9.7-37.6,17.5-65.9,18.6-36.9-.8-42.6-25.3-25.2-50.9,16.5-25.8,42.7-49.2,84.3-63.8,12.1-4.3,29.8-9.1,46.9-9.4,24.6-.2,48.5,7.4,46.9,31-.9,18.1-27,43.5-40.7,61.8-5.9,8-6.9,13.2,3.2,12.7,36.5-2.4,69.5-15,100.2-28.1-20.8,14.1-128.1,67.2-128.5,31,.1-4.6,2.2-9.5,5.7-14.7,3.4-5.2,8.1-10.6,13-16.1,7.3-8.3,25.5-28.3,31.6-40.3,10.3-22.4-12.7-23.5-32.6-30.5l-8.5,4.8,5.2,4.9c-29,4.8-43.3,9.6-79,21.9l4.1,10.4-12.1,12a28.15926,28.15926,0,0,1-5.9-2.8v20c-15.9,7-29.7,19.1-19,29.6a8.72729,8.72729,0,0,0,3.7,1.9c19.6,11,72.7-4,72.6-4"/></g><g id="g4747"><path id="path4749" class="cls-1" d="M306.81289,127.98026h2.5a3.72985,3.72985,0,0,0,1.2-.2,1.79373,1.79373,0,0,0,.7-.5,1.20246,1.20246,0,0,0,.2-.8,1.23075,1.23075,0,0,0-.5-1,1.955,1.955,0,0,0-1.4-.4h-2.7Zm-1.1,5v-8.9h4a7.44954,7.44954,0,0,1,1.8.2,2.12582,2.12582,0,0,1,1,.9,2.00987,2.00987,0,0,1,.4,1.3,2.271,2.271,0,0,1-.6,1.6,3.05455,3.05455,0,0,1-1.9.8,2.14651,2.14651,0,0,1,.7.4,6.342,6.342,0,0,1,1,1.2l1.6,2.4h-1.5l-1.2-1.8a4.84623,4.84623,0,0,0-.9-1.3,1.69788,1.69788,0,0,0-.6-.6c-.2-.1-.3-.2-.5-.2h-2.2v4h-1.1Z"/></g><g id="g4751"><path id="path4753" class="cls-1" d="M309.2669,137.10138a8.5,8.5,0,1,0-8.5-8.5,8.49287,8.49287,0,0,0,8.5,8.5m-7.2-8.5a7.2,7.2,0,1,1,7.2,7.2,7.17006,7.17006,0,0,1-7.2-7.2"/></g><path d="M142.05627,255.14806h10.0289l15.0074,42.41807H157.481l-2.79895-8.719H139.0613l-2.87568,8.719H126.9143Zm-.58405,26.38918h10.8636l-5.35849-16.69087Z"/><path d="M180.2008,297.56613h-8.20163V255.14806h8.20163Z"/><path d="M196.63258,262.45794h-8.31651v-7.56857h8.31651Zm-8.31651,3.74131h8.31651v31.36688h-8.31651Z"/><path d="M229.86891,267.9972q3.08013,2.5475,3.08093,8.44666v21.12227h-8.40328v-19.0793a8.76426,8.76426,0,0,0-.65715-3.79834q-1.20024-2.41736-4.57039-2.41735a5.66411,5.66411,0,0,0-5.68466,3.53966,12.2322,12.2322,0,0,0-.80016,4.77685v16.97848h-8.20163V266.25629h7.94294v4.576a13.90422,13.90422,0,0,1,2.97971-3.48262,10.32632,10.32632,0,0,1,6.39083-1.89917A12.02592,12.02592,0,0,1,229.86891,267.9972Z"/><path d="M240.48869,255.29266h8.05783v22.88247l10.345-11.83208h10.19881l-11.2432,11.68506,11.67863,19.538h-9.98191l-7.5999-13.40186-3.39746,3.53162v9.87024h-8.05783Z"/></svg>