<svg id="Layer_1" data-name="Layer 1" xmlns="http://www.w3.org/2000/svg" viewBox="0 0 640 623.99874"><defs><style>.cls-1{fill:none;}.cls-2{fill:#069fb3;}.cls-3{fill:#6a6a6a;}.cls-4{fill:#666;}.cls-5{fill:#019db2;}</style></defs><title>aresdb</title><path class="cls-1" d="M603.41861,577.05687c-6.03015.03613-12.06073.009-18.09106.00171q-6.65122,0-13.30237.00024,6.65112,0,13.30237.00367C591.35788,577.0659,597.38846,577.093,603.41861,577.05687Z"/><path class="cls-2" d="M629.435,589.94359v-7.46753c-1.93683-5.5835-5.08118-10.26074-10.51416-13.24268,6.04376-5.98584,8.05188-12.71215,4.8302-20.22412-3.40442-7.938-10.14386-10.98559-18.46857-10.9917-18.64856-.01367-37.29748.05127-55.94531-.06518-3.07568-.01929-4.38049.5979-4.34967,4.05884.18347,20.59985.13873,41.20166.17071,61.80273q32.77506.04761,65.55024.09473C620.42813,603.92162,625.66837,597.91844,629.435,589.94359Zm-66.347-29.51392a4.07387,4.07387,0,0,0,.00324-.53027c.13092-9.50781-1.06214-7.8894,7.71808-7.9834,9.02716-.09692,18.05676-.07617,27.08435.00269,5.65564.04956,8.56878,2.40259,8.28381,6.65747-.34552,5.16211-3.91461,6.11743-8.24194,6.05762-4.95575-.06861-9.91321-.01587-14.86994-.01514-3.983.00049-7.97192-.11255-11.952-.05371-1.32666.01953-2.65235.05835-3.9765.12695C563.74014,564.86742,562.62442,563.5786,563.088,560.42967Zm40.41852,29.41138c-12.4151.07568-24.83105-.00513-37.24615.06714-2.18085.01269-3.03864-.56079-3.2331-2.94043-.81012-9.917-.9068-9.90894,8.99793-9.90894q6.65112,0,13.30237-.00024c6.03033.00732,12.06091.03442,18.09106-.00171,4.15192-.02515,7.09082,1.73584,7.23737,6.03247C610.81119,587.64256,607.862,589.81468,603.5065,589.84105Z"/><path class="cls-3" d="M188.7565,538.04c-19.33948-.16944-38.68323.09375-58.021-.15357-4.29473-.05493-4.85546,1.542-4.83087,5.24561.13678,20.5813.03021,41.1643.007,61.74658H138.713c1.1084-1.95288.88678-4.09424.88648-6.20654-.00244-15.28052.16632-30.56421-.10791-45.84009-.07782-4.33545,1.30877-5.33325,5.40069-5.2605,13.49958.24,27.006.07227,40.50977.10864,5.47357.01489,9.85077,2.12622,11.5791,7.58985,1.548,4.89331-.00293,9.127-4.22656,12.1792-2.40192,1.73583-5.203,2.09008-8.107,2.07934-9.76812-.03589-19.5365-.01367-29.33856-.01367-.49554,2.21142,1.3493,2.85718,2.34821,3.85864,8.65753,8.68042,17.57238,17.11231,26.01587,25.99365,3.37335,3.54834,6.82556,5.15406,11.63507,4.634a88.334,88.334,0,0,1,9.5874-.05005c-6.79071-8.21192-15.47687-14.42481-23.01349-21.84815-1.4021-1.3811-3.47656-2.301-3.98511-4.90014,5.15,0,9.95185.23706,14.72193-.051a19.34022,19.34022,0,0,0,17.74682-16.34009C212.39432,548.03319,203.21011,538.16649,188.7565,538.04Z"/><path class="cls-3" d="M73.29166,549.3745c-4.82532-9.12818-10.49286-13.10449-20.691-11.56323-3.34735.5061-5.33582,1.27319-7.06909,4.24536C37.395,556.008,28.92776,569.76634,20.73544,583.686c-4.13092,7.019-8.90661,13.67456-12.17047,21.19263H22.43326a9.77562,9.77562,0,0,0,1.82818-2.51367c2.66578-8.60913,8.90271-9.64966,16.9-9.26441,12.90582.62183,25.86358.1709,38.79944.16358,2.10577-.001,4.51916-.44751,5.33435,2.23339,2.54254,8.36133,8.81909,9.34961,16.16406,8.46143a20.169,20.169,0,0,1,3.18115.105c.57929-2.24512-1.18371-3.59155-2.1239-5.176C92.73447,582.40209,82.238,566.29881,73.29166,549.3745Zm2.96972,37.20874c-13.82306-.06983-27.6466-.02954-42.57452-.02954,7.801-13.23731,15.19635-25.78638,23.10358-39.20386,7.46014,12.60352,14.29827,24.21167,21.20587,35.77856C79.34744,585.39086,79.52975,586.5996,76.26138,586.58324Z"/><path class="cls-4" d="M338.78384,228.67137c1.99585,3.0542,3.78955,3.32227,6.90717,2.477,33.38525-9.051,66.77228-18.09985,100.23846-26.84423,4.84-1.26465,5.57239-2.76539,3.94684-7.41138-21.36029-61.04761-80.5404-98.8147-145.30993-92.51367-69.73719,6.78418-123.95935,66.67309-124.02747,139.05737a169.73044,169.73044,0,0,0,2.95,26.50317c11.74664,61.11011,68.07623,108.67017,130.246,110.08081,4.16895.09473,5.34253-.928,5.3208-5.18383-.17742-34.6587-.12127-69.31861-.06256-103.978.00519-3.0481.07862-4.925-4.10388-5.54273-11.40088-1.68359-19.15039-10.88159-19.91394-22.40893-.6723-10.1499,5.90961-19.97974,15.78168-23.56909A23.3125,23.3125,0,0,1,338.78384,228.67137Z"/><path class="cls-5" d="M182.12332,320.94261c3.19287-1.80346,3.025-3.17871,1.49548-6.00805-12.30743-22.76612-18.53509-47.10523-18.438-75.29981a125.31748,125.31748,0,0,1,2.63458-26.86377C187.90048,110.73949,299.453,57.62792,391.51242,106.313c3.443,1.82081,4.87689,1.61768,6.86389-1.91088q15.54474-27.605,31.69593-54.86621c2.03991-3.44581,1.68554-4.8357-1.83448-6.68238-63.111-33.1123-128.61792-38.68384-194.2464-10.98584-85.70373,36.17041-133.03216,102.396-141.233,195.3374-3.87738,43.94263,6.335,85.30787,27.29236,124.0813,1.73663,3.21289,2.946,3.823,6.27069,1.86231Q154.06979,336.78526,182.12332,320.94261Z"/><path class="cls-4" d="M318.95566,432.17723c-.00012-5.42212-.022-10.84424-.02564-16.26635-.0036-5.42188.01087-10.84375.08332-16.26465.03875-2.89746-.65821-3.91919-3.78919-4.02759-39.42059-1.363-73.66809-15.37158-102.38226-42.51416-2.29193-2.16651-3.43537-1.88135-5.47022.17431-15.25689,15.41358-30.55029,30.79322-46.03686,45.97486-2.76972,2.71509-1.99738,4.0647.32306,6.2229a248.69281,248.69281,0,0,0,20.72894,17.57715q58.14395,43.29162,130.60828,45.6145c4.97418.14966,6.25439-1.26221,6.07476-6.09668C318.69394,452.45262,318.956,442.31,318.95566,432.17723Z"/><path class="cls-2" d="M431.36209,137.13085c32.74188,35.85424,47.03479,78.30859,39.5954,126.14648-9.874,63.49365-46.98865,105.28833-107.84406,125.813-3.71722,1.25366-4.18084,2.5896-3.25781,5.95556,5.48749,20.01319,11.02069,40.01856,16.05652,60.147,1.27686,5.10376,2.9787,5.73657,7.76013,4.322C479.38376,431.19725,545.90268,342.09129,545.92984,241.908A227.60092,227.60092,0,0,0,483.09512,85.063c-2.73236-2.86962-4.27557-3.43579-7.39129-.23681q-21.76236,22.34362-44.10175,44.12085C428.39487,132.0764,428.146,133.60887,431.36209,137.13085Zm15.10547-8.481c10.00739-9.32715,19.56451-19.147,29.09192-28.9729,2.65991-2.74341,4.10126-3.28174,6.90808.008,30.44708,35.6858,48.073,76.73243,52.14648,123.51563.53907,6.19116.80487,12.40625,1.19721,18.61035a217.50764,217.50764,0,0,1-145.3725,204.58521c-4.16,1.45923-5.94812,1.44238-7.12335-3.44873-3.35608-13.967-7.18054-27.82642-11.07941-41.655-.877-3.11035-.16949-4.14649,2.753-5.29517,57.96119-22.78345,93.96491-64.593,105.35712-125.82593,9.07324-48.76831-3.26929-93.00244-34.2135-131.81762C443.00357,134.42894,442.48581,132.36083,446.46756,128.64989Z"/><path class="cls-5" d="M344.686,252.76488q49.55852,28.53844,99.02326,57.23828c3.49579,2.03784,4.66278,1.09668,6.21173-2.0603a147.00968,147.00968,0,0,0,15.49994-67.55908,141.15785,141.15785,0,0,0-3.07239-29.28077c-.62079-3.07422-1.85773-3.73437-4.64746-2.93505-6.13177,1.75756-12.29413,3.41015-18.45569,5.06176q-45.9527,12.31788-91.92877,24.54785c-3.14307.82984-5.1427,1.82593-4.65,5.51807a7.79443,7.79443,0,0,1-.4917,4.189C340.73257,250.48876,342.52835,251.52245,344.686,252.76488Z"/><path class="cls-2" d="M498.65536,538.13866c-20.06243-.41333-40.13964-.07446-60.20989-.17774-2.83039-.01464-3.69355,1.00025-3.64545,3.72071.1286,7.28-.04743,14.56518.061,21.84594.20069,13.47608-.564,26.96216.4115,40.42994q32.541.0542,65.082.10815c15.131-2.14331,22.2497-10.24634,22.26483-25.34937q.00778-7.7263-.00055-15.45288C522.59891,547.60887,514.28635,538.46092,498.65536,538.13866Zm5.86469,40.16748c-.127,6.74707-3.72839,10.45117-10.5766,10.64551-6.20264.17627-12.41424.03735-18.62195.03735v.03c-6.20782,0-12.41687-.0708-18.62286.03516-2.476.04223-3.96954-.28907-3.92169-3.37818.15368-9.93017.12286-19.86474.0119-29.79614-.02881-2.57739.8905-3.33057,3.40015-3.3103,12.5921.10254,25.18737-.07715,37.77777.10376,6.734.09668,10.423,4.04174,10.55334,10.73486Q504.66513,570.85471,504.52005,578.30614Z"/><path class="cls-3" d="M394.74246,564.95213a51.99548,51.99548,0,0,0-5.85431-.23c-11.91168-.02172-23.82434.06934-35.73492-.05224-5.92493-.0603-9.57428-3.42139-9.67542-8.42578-.10608-5.25659,3.71656-8.87354,9.73481-8.94287,8.17712-.09449,16.3562-.02686,24.53442-.02759,7.4671-.00073,14.93439.029,22.40124-.01489,3.00007-.01758,6.60676-4.2959,6.03241-7.59913-.56762-3.26513-3.47985-1.5498-5.19525-1.57153-13.50976-.17041-27.02276-.137-40.53436-.07349-5.3205.02515-10.66528-.44287-15.95129.66456a18.223,18.223,0,0,0-13.92267,23.084c2.5216,8.80908,9.75458,13.91968,20.28393,14.01025,13.15534.1128,26.31238.05054,39.46863.02076,2.91925-.0066,5.68274.29077,7.88446,2.48608,2.93158,2.92334,3.85126,6.42163,2.41168,10.25928-1.62591,4.33447-5.0899,6.18408-9.62432,6.1853q-24.26808.00586-48.53608.012c-8.35833.002-8.73175.3606-9.64709,9.29053q30.96213.00658,61.92425.01367c.69947-.12158,1.40747-.20727,2.09723-.37012,10.74774-2.53808,16.82782-10.50366,16.19025-21.19653C412.47018,573.085,405.28946,566.16893,394.74246,564.95213Z"/><path class="cls-3" d="M262.657,594.2368c-4.73492-.04321-11.19391,2.16822-13.73688-1.03051-2.37683-2.98951-.53961-9.189-.927-13.94556-.30316-3.72266,1.33747-4.44971,4.61554-4.33887,6.03461.2041,12.081.05811,18.1225.05786,9.4176-.00049,18.8371-.11523,28.252.04468,4.98572.08447,4.67011-3.99512,4.95136-6.66968.31781-3.02221-2.83911-1.686-4.39789-1.698-15.28046-.11767-30.56458-.219-45.842.02442-4.24262.06763-5.84113-.79639-5.75879-5.44922.237-13.3938.01819-13.39746,13.30115-13.39771,13.8598-.00024,27.71972.0232,41.57946-.0205,2.9206-.00928,6.75928-5.03833,6.01862-8.33228-.693-3.08227-3.54987-1.38232-5.27991-1.394-21.3219-.1438-42.64624.019-63.967-.19238-4.08276-.04053-5.0108,1.16357-4.96985,5.09277.21119,20.25464.11457,40.51221.12543,60.769q35.734.05237,71.46814.105c1.01056-2.99267,2.02106-5.98535,3.23224-9.57226C293.45938,594.28954,278.0571,594.37767,262.657,594.2368Z"/><path class="cls-2" d="M333.911,379.45506c40.70728-5.24316,73.282-24.231,97.55487-57.34155,1.29413-1.76538,4.72778-3.90552.32337-6.16089-2.86133-1.46484-5.09736-5.64746-8.719-.02685-6.67145,10.35351-15.42151,18.99511-25.14886,26.58642a127.21147,127.21147,0,0,1-65.152,26.56226c-1.9043.21582-4.24011-.19507-3.53436,3.47C331.00772,374.33763,326.46854,380.41356,333.911,379.45506Z"/><path class="cls-5" d="M301.93076,242.00658c.0357,9.14795,7.55072,17.02661,16.27813,17.06592,9.48157.04272,17.99335-8.00953,17.85132-16.88746-.15912-9.9519-7.4433-17.36572-17.08447-17.38891C309.202,224.77269,301.89236,232.15331,301.93076,242.00658Z"/></svg>