<svg id="Layer_1" data-name="Layer 1" xmlns="http://www.w3.org/2000/svg" xmlns:xlink="http://www.w3.org/1999/xlink" viewBox="0 0 993 1450"><defs><style>.cls-1{fill:url(#linear-gradient);}.cls-2{fill:#fff;}.cls-3{fill:url(#linear-gradient-2);}.cls-4{fill:#3968f6;}</style><linearGradient id="linear-gradient" x1="211.01541" y1="421.53587" x2="777.32465" y2="421.53587" gradientUnits="userSpaceOnUse"><stop offset="0" stop-color="#44a2eb"/><stop offset="1" stop-color="#3968f6"/></linearGradient><linearGradient id="linear-gradient-2" x1="8761.23937" y1="-6326.08301" x2="9497.91299" y2="-6326.08301" gradientTransform="matrix(-0.20036, 0.97972, 0.97972, 0.20036, 8523.46905, -7268.17295)" xlink:href="#linear-gradient"/></defs><circle class="cls-1" cx="494.17003" cy="421.53587" r="283.15462"/><g id="_9hFGD6" data-name="9hFGD6"><path class="cls-2" d="M421.00871,248.15923c6.09888-.3211,13.27116.62319,20.46479.39653a2.76286,2.76286,0,0,1,1.54987.29932,16.82154,16.82154,0,0,0,6.85825,1.94347,2.84364,2.84364,0,0,1,.78318.13916c4.37267,1.93352,9.19224,2.62459,13.43486,4.96022a32.06625,32.06625,0,0,0,8.85683,3.23723c4.0704.85088,8.15035.80367,12.03477-1.40175a84.60082,84.60082,0,0,1,15.81688-6.66788,20.883,20.883,0,0,1,3.93434-.635,13.28382,13.28382,0,0,0,4.046-1.11792,7.9847,7.9847,0,0,1,3.42721-.73829q13.01722-.00612,26.03444-.00081a7.49912,7.49912,0,0,1,2.91666.461c2.90566,1.22331,6.00125,1.28974,9.05984,1.58438a13.55,13.55,0,0,1,4.21759.89122,11.53975,11.53975,0,0,0,3.83735,1.03842c2.44895.16222,4.514,1.56652,6.85357,2.04521a18.40259,18.40259,0,0,1,5.60152,1.85241,5.39426,5.39426,0,0,0,1.95458.5801,15.08893,15.08893,0,0,1,4.6025,1.22955c1.878.919,3.97173.97508,6.00019,1.26045a4.9571,4.9571,0,0,1,1.82893.57908,116.08655,116.08655,0,0,0,11.88788,6.29535,31.18966,31.18966,0,0,1,4.04031,2.34849,8.431,8.431,0,0,0,3.82383,1.37159,5.03334,5.03334,0,0,1,3.18934,1.34891c3.61,3.43292,7.85859,5.94882,12.04551,8.59112a59.527,59.527,0,0,1,11.92607,9.49682,15.56082,15.56082,0,0,0,2.64817,2.15871,27.74993,27.74993,0,0,1,7.40983,7.3456,22.87843,22.87843,0,0,0,4.48845,4.3633,27.184,27.184,0,0,1,6.07406,7.05367c1.46632,2.51295,3.53018,4.56782,5.27275,6.86852,2.74725,3.62717,5.69152,7.1296,7.33071,11.4731a8.84251,8.84251,0,0,0,1.947,2.933,22.18585,22.18585,0,0,1,4.69391,8.36363,89.213,89.213,0,0,0,7.05452,15.64706c1.47889,2.54158,2.13083,5.43,3.243,8.12441.80794,1.95731.59417,4.33882.81887,6.533a5.04716,5.04716,0,0,0,.519,1.97354,10.747,10.747,0,0,1,1.26481,4.80932,14.404,14.404,0,0,0,1.19654,4.96053c1.0082,2.35949.91087,4.91365,1.34695,7.3734a5.13191,5.13191,0,0,0,.13649.90027c2.23777,5.96043,1.57365,12.23265,1.9899,18.38823.38283,5.6616.09474,11.32632-.07178,16.98173-.10725,3.643-.53566,7.279-.45816,10.9357a2.16228,2.16228,0,0,1-.17733.88967c-1.342,3.046-1.65141,6.305-1.98957,9.55749a4.72518,4.72518,0,0,1-.43125,1.64614,20.15545,20.15545,0,0,0-1.69663,7.2783,7.75306,7.75306,0,0,1-.77421,2.961c-1.09144,2.05707-1.0107,4.35-1.2407,6.56654a20.81477,20.81477,0,0,1-1.25349,4.78968c-1.7748,5.05362-4.623,9.56212-6.88073,14.36362a54.61288,54.61288,0,0,0-2.31142,6.5355,31.88169,31.88169,0,0,1-5.02333,9.14222,22.40786,22.40786,0,0,0-3.93752,7.28134,2.69425,2.69425,0,0,1-.7163,1.28109c-4.25949,4.00265-7.08064,9.11672-10.61585,13.67832a58.33,58.33,0,0,1-7.41727,8.19385,46.61273,46.61273,0,0,0-3.58714,3.82358c-4.36077,4.82029-9.80026,8.40617-14.56811,12.7573a59.55184,59.55184,0,0,1-11.30425,7.65981,21.32928,21.32928,0,0,0-4.9616,3.79645,12.83806,12.83806,0,0,1-6.59728,3.62584,4.31407,4.31407,0,0,0-1.20535.33253c-3.91876,2.25971-8.253,3.71265-12.07631,6.135a48.28425,48.28425,0,0,1-7.72868,3.8848c-1.45215.59013-3.0674.4894-4.58538.8349a48.373,48.373,0,0,0-10.09733,3.08254,11.84955,11.84955,0,0,1-3.96278.94254,11.26974,11.26974,0,0,0-4.0265,1.16911c-1.8479.94486-3.88489.99969-5.88263,1.20881a10.531,10.531,0,0,0-3.51546.901,10.20507,10.20507,0,0,1-4.05859.98609,63.71291,63.71291,0,0,0-14.21252,1.89328,5.823,5.823,0,0,1-1.57767.22336c-4.033-.0293-8.068.13861-12.09864-.09351a4.72525,4.72525,0,0,1-1.78508-.30719c-3.14866-1.56038-6.59485-1.35073-9.9366-1.73967a5.60933,5.60933,0,0,1-2.4904-.70621c-1.8709-1.19913-4.02693-1.2879-6.13333-1.55578a6.30112,6.30112,0,0,1-1.64751-.435q-5.83706-2.43951-11.66994-4.889a10.34583,10.34583,0,0,0-3.38954-.95054,7.07942,7.07942,0,0,1-4.21062-2.08344c-2.24991-1.9325-2.49256-1.99079-4.91337-.26378-1.79342,1.27939-3.593,2.41761-5.88417,2.47189a2.09234,2.09234,0,0,0-.86841.2615,59.01062,59.01062,0,0,1-7.5873,3.11315c-3.21369,1.13053-6.392,2.38051-9.59362,3.53038-3.39585,1.21963-7.07807,1.43426-10.298,3.20064a7.83048,7.83048,0,0,1-3.7034.50591c-4.06975.04929-8.13957.14789-12.20661.22409-4.666.08739-9.34629-.2249-14.02327-.25509a4.742,4.742,0,0,1-1.89-.38419c-4.24537-1.86722-8.50433-3.70543-12.591-5.90975a9.68453,9.68453,0,0,1-1.54867-.96038,23.57632,23.57632,0,0,0-6.4258-3.821c-2.4291-.94416-3.89748-3.0833-5.14605-5.30618a10.82318,10.82318,0,0,0-3.53629-3.96512c-2.42935-1.55177-3.63086-4.04945-5.03756-6.38059a7.52749,7.52749,0,0,0-4.65995-3.709c-2.60207-.69772-5.12-1.69883-7.84045-1.93541a3.7278,3.7278,0,0,1-1.62229-.497c-3.81048-2.41123-7.96833-4.34792-10.921-7.9456a9.9522,9.9522,0,0,0-3.141-2.20236,11.25819,11.25819,0,0,1-5.72324-6.206,11.56691,11.56691,0,0,0-2.46982-3.93531,18.57052,18.57052,0,0,1-3.09692-4.75965,67.76429,67.76429,0,0,0-3.99154-7.2943,7.20872,7.20872,0,0,1-1.04519-3.99907,30.68542,30.68542,0,0,0-.61137-7.82767,8.41048,8.41048,0,0,0-3.29343-5.042c-.33977-.24368-.65051-.52818-.99277-.76805-2.11032-1.4787-3.947-3.061-4.54929-5.834-.38288-1.76286-1.75708-3.17945-2.85611-4.63166a35.854,35.854,0,0,1-6.88353-16.34452,68.3568,68.3568,0,0,1-.52312-13.30556c.13385-2.89185.132-5.778.17846-8.66642a10.82708,10.82708,0,0,1,1.2-5.021c1.11658-2.13816,1.71828-4.52093,2.8166-6.7a3.8437,3.8437,0,0,0-.5739-4.002,11.80239,11.80239,0,0,1-1.6893-3.83834,4.26816,4.26816,0,0,0-.35422-1.081c-1.42435-2.41126-1.40077-5.08024-1.44825-7.74661-.03657-2.05418-.21166-4.10876-.17779-6.16074.08154-4.9414.2457-9.88151.39047-14.82173a3.0149,3.0149,0,0,1,.21255-1.1074,95.86843,95.86843,0,0,1,5.09268-10.93455,57.28886,57.28886,0,0,1,3.6412-5.78411,6.6627,6.6627,0,0,0,1.01293-1.64792,17.78391,17.78391,0,0,1,6.02889-7.59791,7.38526,7.38526,0,0,0,2.9866-6.63685c-.22725-5.025.2335-10.03858.45607-15.05516a2.82923,2.82923,0,0,1,.28522-1.43731c1.61647-2.27273,1.88735-5.12014,3.28417-7.48929a14.52918,14.52918,0,0,1,2.22381-3.29013c2.06686-1.98482,3.12669-4.56754,4.21689-7.10838a7.751,7.751,0,0,1,3.16492-3.73948,22.136,22.136,0,0,0,3.51231-2.72185,7.30952,7.30952,0,0,0,2.62461-5.50033,22.9155,22.9155,0,0,1,1.41106-7.46148,19.7627,19.7627,0,0,0,.6759-3.80985,16.89875,16.89875,0,0,1,4.56825-9.38522,37.59632,37.59632,0,0,0,6.34832-8.97871,4.18419,4.18419,0,0,1,2.056-2.03613,17.97732,17.97732,0,0,0,3.68976-2.261,7.08072,7.08072,0,0,0,2.87174-4.87369,9.97085,9.97085,0,0,1,1.00416-3.48325,25.75921,25.75921,0,0,0,1.48049-4.29073,14.88159,14.88159,0,0,1,3.63561-5.85828,15.934,15.934,0,0,1,1.77943-1.60346,15.68637,15.68637,0,0,0,4.63433-5.70442,7.1296,7.1296,0,0,1,5.10894-4.31433,6.46985,6.46985,0,0,0,2.54373-1.24678c3.191-2.45448,6.34513-4.967,10.23426-6.28519a1.4718,1.4718,0,0,0,.401-.21544c3.7897-2.83713,8.2391-3.04952,12.69978-3.15284C414.5821,248.10886,417.24767,248.15923,421.00871,248.15923Zm84.54885,170.75319h.0272q0,64.79041-.01344,129.5808a2.85176,2.85176,0,0,0,1.32956,2.48277,7.64134,7.64134,0,0,0,4.32219,1.24926c6.65719.2238,13.30781-.19058,19.96227-.27067,1.85444-.02233,3.75341.12375,5.46032-.846a6.27568,6.27568,0,0,1,3.52012-.729c.68311.03368,1.36961.0116,2.05428-.001,4.90676-.09025,9.81409-.166,14.49442-1.95813a5.87357,5.87357,0,0,1,1.455-.2514,10.02539,10.02539,0,0,0,2.76135-.661c2.97915-1.22489,6.10167-2.09152,8.95569-3.63172,2.17334-1.17293,4.6354-1.70959,6.75881-2.9841a9.45947,9.45947,0,0,1,3.61918-1.29554,9.02192,9.02192,0,0,0,1.98048-.51639c4.21281-1.60569,7.52254-4.6933,11.34227-6.9488a62.38268,62.38268,0,0,1,6.36993-3.75065,17.68973,17.68973,0,0,0,7.52374-5.91195,12.22046,12.22046,0,0,1,5.40744-4.20841,9.83778,9.83778,0,0,0,5.5071-5.47808,8.58519,8.58519,0,0,1,4.0594-4.31759,10.91827,10.91827,0,0,0,5.02667-4.77863,11.92088,11.92088,0,0,1,2.30635-3.5172c2.72506-2.60342,4.6352-5.81289,6.75288-8.86948,1.34206-1.937,2.72862-3.84811,3.06729-6.29021a4.46517,4.46517,0,0,1,.66194-1.43529,46.08679,46.08679,0,0,1,4.3596-6.53492,9.53154,9.53154,0,0,0,.96515-1.6734c1.1928-2.29832,2.03264-4.74153,3.03236-7.11908a11.96889,11.96889,0,0,0,1.11692-4.49021,10.40141,10.40141,0,0,1,.97851-4.50894,28.83533,28.83533,0,0,0,3.13439-8.87657,10.51453,10.51453,0,0,1,.95289-3.14987,12.13518,12.13518,0,0,0,1.08087-4.38956c.1208-1.69127-.06142-3.4741.70978-5.05342a16.54242,16.54242,0,0,0,1.48425-7.42127c.00552-8.5933.03231-17.18663.01494-25.77989a17.59444,17.59444,0,0,0-1.10186-7.38451A10.2979,10.2979,0,0,1,656,392.5599a10.19009,10.19009,0,0,0-.92921-4.5416A20.50253,20.50253,0,0,1,653.831,384.352c-.7257-3.02471-1.96908-5.87939-2.97234-8.813-.32921-.96278-1.05352-1.80093-1.02389-2.87608a17.24383,17.24383,0,0,0-2.42581-8.66079c-1.93406-3.65195-3.37334-7.57826-6.06121-10.79828a8.505,8.505,0,0,1-2.11145-4.92719,3.5204,3.5204,0,0,0-.8385-2.09323c-3.2988-3.69314-5.82165-7.98167-9.039-11.73926a26.2404,26.2404,0,0,1-2.27747-3.272,15.90621,15.90621,0,0,0-6.48928-6.23294,5.12433,5.12433,0,0,1-2.33867-2.39,16.66113,16.66113,0,0,0-7.15036-7.292,14.6486,14.6486,0,0,1-4.17816-3.12074,36.11733,36.11733,0,0,0-10.9534-7.889,60.06234,60.06234,0,0,1-10.15-6.0655,25.363,25.363,0,0,0-11.6501-4.88012,15.17131,15.17131,0,0,1-4.3093-1.33861c-1.87881-.91338-3.72431-2.10735-5.71973-2.51208a30.26177,30.26177,0,0,1-6.384-1.93761,5.6422,5.6422,0,0,0-1.33289-.29506,15.46688,15.46688,0,0,1-4.12626-1.276,8.27294,8.27294,0,0,0-1.84-.58472c-2.09462-.46155-4.242-.25441-6.34992-.56435-3.08082-.453-6.0916-1.37417-9.24077-1.37185q-12.54675.00921-25.09346.00945c-.37148.00027-.788-.0635-1.03489.32514-1.54044,2.42457-3.26682,4.57262-3.258,7.85825Q505.653,355.263,505.55756,418.91242ZM382.34038,477.9837c-.30026.16487-.52251.308-.761.41469a21.25806,21.25806,0,0,0-7.87856,6.07008,12.30939,12.30939,0,0,1-4.00652,3.15374,18.46636,18.46636,0,0,0-6.873,5.85734,22.26476,22.26476,0,0,1-3.31427,3.90537,2.93,2.93,0,0,0-.76641,3.3262,26.31517,26.31517,0,0,1,.75274,2.981,11.04168,11.04168,0,0,0,1.41728,4.28959,6.6337,6.6337,0,0,1,.90285,2.56476c.5721,3.491,2.1697,6.33668,5.49957,7.85332a22.52219,22.52219,0,0,1,5.13509,3.34119c.66762.55941,1.35935,1.09158,2.05793,1.61221,3.20025,2.38508,7.29318,2.06819,10.80367,3.53521a5.45787,5.45787,0,0,0,1.92644.10736c1.673.02436,3.34687.01327,5.01925.05832.96212.0259,2.5088,1.13574,2.60506,2.05991.24921,2.39249,1.47059,4.43891,2.19138,6.65956a5.77635,5.77635,0,0,0,1.34755,2.20566,27.12225,27.12225,0,0,1,4.21966,5.2737,21.54063,21.54063,0,0,0,2.93327,4.10911,9.48628,9.48628,0,0,0,5.591,2.74055c.68778.12072.50993-.38118.51356-.72043.0389-3.65257-.04086-7.31039.13033-10.95652a13.06519,13.06519,0,0,0-4.02925-10.16851,57.16117,57.16117,0,0,1-4.97258-5.49806,12.78948,12.78948,0,0,0-4.04684-3.78767,7.35257,7.35257,0,0,1-1.49156-1.3973c-.58964-.58037-.41858-.93281.10179-1.4666,2.33824-2.39857,5.134-4.28332,7.42917-6.73472,1.55763-1.66373,3.27528-3.1768,4.89819-4.7807a.89091.89091,0,0,1,1.26141-.18458q3.706,2.019,7.47544,3.92065a7.80892,7.80892,0,0,1,3.96813,4.20821,12.704,12.704,0,0,0,3.065,4.62489,19.13906,19.13906,0,0,1,4.98067,8.95362,6.554,6.554,0,0,0,.81706,1.99685,6.25168,6.25168,0,0,1,1.027,3.6717q.0292,2.39711.03082,4.7945c.00645,3.53788.03749,7.07618-.00554,10.6135a2.88183,2.88183,0,0,0,2.46847,3.01349,23.42,23.42,0,0,0,5.89362-.44274c2.42759-.57747,4.5391-1.92615,6.8448-2.77931a44.31255,44.31255,0,0,0,10.03158-5.089,11.38863,11.38863,0,0,1,5.26354-2.07173,4.52587,4.52587,0,0,0,1.824-.62536,47.65446,47.65446,0,0,0,10.68989-8.2902,4.842,4.842,0,0,0,1.37947-3.57415c-.04279-11.26519-.0099-22.53069-.01508-33.79607-.00163-3.52085-.5737-4.07752-4.13694-4.08081-10.65676-.00981-21.31379.03409-31.97023-.0266-6.997-.03984-13.99247.17689-20.99357-.332-3.60155-.26181-6.65547-1.25612-9.21789-3.80537a36.65388,36.65388,0,0,0-4.88267-3.75166,15.03488,15.03488,0,0,1-3.92085-3.61418q-4.27373-6.19941-8.575-12.37985a3.37037,3.37037,0,0,1-.62854-1.805,9.22445,9.22445,0,0,0-1.388-4.52352c-.61637-1.00223-1.0251-2.14376-1.71093-3.08931-1.45658-2.00825-1.47479-4.33256-1.70739-6.62943a.8862.8862,0,0,1,.62994-1.04346,15.47243,15.47243,0,0,0,3.01349-1.59889,23.64632,23.64632,0,0,1,10.3257-4.55245c1.682-.2312,2.5689-.00313,3.30755,1.48951a42.54761,42.54761,0,0,0,3.4707,5.61666,17.76688,17.76688,0,0,1,2.68959,5.0054,42.20587,42.20587,0,0,0,2.85046,7.07688c1.62082,3.163,3.80377,5.86709,7.28086,7.21727a17.23615,17.23615,0,0,1,3.32192,1.4988,7.72867,7.72867,0,0,0,4.43714,1.17856q22.48119-.05349,44.96254-.02822c1.95674-.00039,2.83713-.85121,2.83972-2.76.0075-5.51856.067-11.03784-.00176-16.55548-.05308-4.25681.29163-8.52357-.26978-12.7709-.27078-2.04856-.73689-2.47853-2.83131-2.57026-1.79415-.07858-3.56908.25061-5.3542.25581-10.88511.03167-21.77036.01182-32.6554.055a16.07459,16.07459,0,0,1-6.3745-.96179,10.73035,10.73035,0,0,0-2.10272-.49374c-2.051-.39092-4.17751-.32832-6.18323-.97822-1.6674-.54029-2.16309-1.50977-1.36224-3.03816,2.28156-4.35418,3.51017-9.12473,5.48964-13.59511.14095-.31838.21039-.67247.67134-.62417a6.75691,6.75691,0,0,1,3.29209.70328,6.90435,6.90435,0,0,0,3.91627,1.40938,20.77881,20.77881,0,0,1,7.255,1.30789,5.29254,5.29254,0,0,0,1.76584.41475c3.20556-.09982,6.36825.51474,9.56362.52,4.87164.00793,9.74338.01423,14.61493-.00954a28.60184,28.60184,0,0,0,6.57-.65586c2.976-.71382,3.99775-1.97254,4.00131-5.04754q.01857-16.09944.0194-32.19889.00113-8.73461-.02034-17.46922c-.00271-1.57862-.34446-2.00776-1.92361-2.2766a27.1065,27.1065,0,0,0-3.989-.10216,6.34262,6.34262,0,0,1-3.70166-.94356,6.22885,6.22885,0,0,0-2.97682-1.05885,12.98706,12.98706,0,0,1-4.27141-1.1552,9.87643,9.87643,0,0,0-2.49958-.76862,13.4407,13.4407,0,0,1-3.68684-1.16318,9.5615,9.5615,0,0,0-4.27322-1.09259,7.49451,7.49451,0,0,1-4.9184-1.80115,10.00841,10.00841,0,0,0-6.81546-2.485,3.53893,3.53893,0,0,1-2.06514-.56642,6.863,6.863,0,0,0-4.01813-1.04066c-4.22283.00038-8.4537-.16958-12.66556.04232a7.54272,7.54272,0,0,1-6.46926-2.47946,1.84689,1.84689,0,0,1-.64226-1.3527c.022-4.83342.03019-9.66714-.00988-14.50034-.00707-.85375.23776-1.10543,1.09038-1.09,6.65532.12027,13.31214-.149,19.96831.322,5.39161.38153,10.80507.08447,16.20809.16127a7.83818,7.83818,0,0,1,3.98694.75994,8.29071,8.29071,0,0,0,3.70932.98931c3.031.20439,6.07346.362,8.87871,1.75242a6.05733,6.05733,0,0,0,2.64429.64611,11.05064,11.05064,0,0,1,5.94557,1.66235c.85528.52457,1.61593.11407,2.06752-.77159a5.01653,5.01653,0,0,0,.41107-2.33953q-.00147-16.21308-.01557-32.42617a3.856,3.856,0,0,0-.39613-1.75008,14.86724,14.86724,0,0,0-6.28205-6.12068c-4.12678-2.42513-8.12941-5.05464-12.38891-7.26636-2.48535-1.29052-4.69512-3.12711-7.60273-3.49366a2.30738,2.30738,0,0,1-.74715-.27428,13.00377,13.00377,0,0,0-5.05289-1.28288,15.257,15.257,0,0,1-5.973-1.30923,10.58335,10.58335,0,0,0-3.53014-.85419,8.91774,8.91774,0,0,1-2.31827-.571c-2.87713-1.23831-5.92368-1.24527-8.96528-1.33237a13.91292,13.91292,0,0,0-5.91912.959,20.579,20.579,0,0,1-2.65016,1.03425c-1.88276.50242-3.39743,1.87214-5.38218,2.14647a6.87193,6.87193,0,0,0-4.46471,2.50738,27.63226,27.63226,0,0,0-2.43767,3.84635c-1.05035,1.79953-1.03442,1.7866.52651,3.05507a25.895,25.895,0,0,1,5.4094,5.66039c1.37056,2.05956,2.798,4.07024,5.34709,4.8814a3.4841,3.4841,0,0,1,1.61446,1.41078c1.27055,1.75488,2.5249,3.52151,3.78317,5.28525.429.60129.477.98263-.28171,1.52-2.96952,2.10314-6.0531,4.09-8.02725,7.32092a7.88556,7.88556,0,0,1-2.91757,2.50716c-.34129.19883-.65156.41722-.98836-.00807-1.357-1.71358-3.27865-2.98246-4.04387-5.16449a1.70913,1.70913,0,0,0-.85151-1.0301,18.9012,18.9012,0,0,1-5.99193-5.02091,1.93942,1.93942,0,0,0-2.7066-.475,48.51153,48.51153,0,0,0-7.07292,4.57094c-1.33087.99328-2.86336,1.76857-3.5537,3.41819a40.43263,40.43263,0,0,1-2.78833,5.228c-2.8051,4.651-4.29115,9.5989-3.60986,15.105a10.67245,10.67245,0,0,0,3.67751,7.33714,10.59824,10.59824,0,0,1,3.01637,3.51711,22.03323,22.03323,0,0,0,7.19511,8.545,7.01956,7.01956,0,0,1,2.887,3.84324,9.87355,9.87355,0,0,0,1.06967,2.25994c1.133,1.96858,2.93653,3.265,4.58906,4.71785a15.06783,15.06783,0,0,1,4.22839,5.31736,6.616,6.616,0,0,0,3.569,3.7177,26.14409,26.14409,0,0,0,10.62724,2.71622,99.29379,99.29379,0,0,0,11.06195-.23127,3.72434,3.72434,0,0,1,3.679,2.7942c.57116,4.12709.25348,8.27917.201,12.42a2.19542,2.19542,0,0,1-2.20128,2.00472c-1.48159.03531-2.96526-.02282-4.44807-.02982-4.06507-.01921-8.13151.18964-12.16758-.63557-2.177-.44511-3.84458.58019-4.99034,2.436-1.39716,2.263-2.74916,4.554-4.15928,6.80875-2.31288,3.6983-4.33315,7.61911-7.87247,10.396a6.57978,6.57978,0,0,0-1.34366,1.83232c-.22321.35813-.48066.86664-.853.86878-1.61259.00923-3.39347.46491-4.788-.44685a77.63933,77.63933,0,0,0-8.09632-4.43688,9.51346,9.51346,0,0,1-3.05532-2.15917c-1.18642-1.358-1.20811-1.63254.03-2.96793a11.80789,11.80789,0,0,0,3.1299-4.96265,12.37554,12.37554,0,0,1,4.19339-6.65234,20.56676,20.56676,0,0,0,5.707-8.2568,2.666,2.666,0,0,0-.42313-2.95884,6.625,6.625,0,0,0-2.131-1.69576,10.66574,10.66574,0,0,1-2.77954-2.32312,96.02973,96.02973,0,0,1-6.24286-7.85287c-3.14068-4.26086-6.73038-8.14994-10.0161-12.28654-1.57682-1.98516-2.7312-4.29241-4.56214-6.10646-1.11674-1.10639-1.57356-1.11529-2.4598.19012a2.45725,2.45725,0,0,0-.37269.92979c-.601,3.04723-2.26047,5.75052-2.84905,8.81568-.248,1.29166-.86281,2.50841-1.2073,3.7871a9.01238,9.01238,0,0,0,.36745,5.172c.69636,2.19553.91025,4.56255,1.99654,6.61094a10.64859,10.64859,0,0,1,1.24135,4.905c.03913,1.85585-.31875,2.309-1.99963,3.1451-2.57153,1.27916-5.36758,2.2137-7.33984,4.48517a9.8023,9.8023,0,0,1-3.297,2.39763,10.85151,10.85151,0,0,0-4.45455,4.1382c-.82255,1.27948-1.5531,2.61219-2.2511,3.967a13.09864,13.09864,0,0,0-1.47184,6.57814c.1219,4.0102.06249,8.02815-.00907,12.04127-.05554,3.115,1.38879,4.69529,4.4905,4.70342.22826.0006.45652-.01116.68482-.01505,1.82469-.0311,3.64985-.04507,5.474-.09611,3.19179-.08933,6.39036.39414,9.57438-.0657,1.81726-.26245,3.64258-.20436,5.46386-.3.60251-.03163.78815.17077.80158.7638q.163,7.18813.37868,14.37506c.017.58562-.13844.9327-.77783,1.01464a47.46686,47.46686,0,0,1-6.213.79135c-4.33829-.01519-8.67789.0811-13.01454.001a4.05143,4.05143,0,0,0-3.32017,1.60022,13.52468,13.52468,0,0,0-3.48875,8.61189c-.16913,5.52728-.53906,11.08919.25023,16.58856a13.4812,13.4812,0,0,0,3.73121,8.00261,20.15818,20.15818,0,0,0,3.58889,2.61527,1.159,1.159,0,0,0,1.36074-.01887A28.70886,28.70886,0,0,0,357.965,474.421c1.36161-1.68322,2.68085-3.43206,4.97853-3.94544a1.40631,1.40631,0,0,0,.5-.26891c2.49019-1.86072,5.46105-2.61146,8.31765-3.63209a.80466.80466,0,0,1,.99866.19485C376.20336,470.2715,379.20969,474.14217,382.34038,477.9837Z"/><path class="cls-2" d="M542.17517,485.06364a8.97657,8.97657,0,0,1-7.13132-2.4635,20.503,20.503,0,0,0-2.9226-2.17939c-3.0705-1.9039-4.42316-4.81577-5.4724-8.15335-.96779-3.0785-.55514-5.8604.11977-8.87565a7.84615,7.84615,0,0,1,4.1998-5.68083,14.38756,14.38756,0,0,0,5.98984-6.24326,10.49292,10.49292,0,0,1,4.18059-3.92762,18.099,18.099,0,0,0,6.65945-7.17858,5.46961,5.46961,0,0,1,2.3698-2.39531,18.93484,18.93484,0,0,0,8.25561-8.39533,3.97018,3.97018,0,0,1,1.475-1.552,31.05276,31.05276,0,0,0,6.85419-5.43841,2.24692,2.24692,0,0,1,1.81661-.76256c.87457.016,1.74993.04583,2.62389.02529a4.29454,4.29454,0,0,1,2.78357,1.11066c5.19545,3.98772,9.03648,9.3207,13.74843,13.78666a7.433,7.433,0,0,1,1.04223,1.35251c.90616,1.3856.87338,2.08342-.12436,3.38526-1.29532,1.6901-2.58929,3.38137-3.903,5.05711a3.77872,3.77872,0,0,1-.90279.85462,12.49531,12.49531,0,0,0-4.43071,5.11161,9.74736,9.74736,0,0,1-4.63521,4.68221,12.76044,12.76044,0,0,0-6.1926,6.14155,9.90674,9.90674,0,0,1-4.83531,4.80432,12.07482,12.07482,0,0,0-5.93855,5.92455,10.07957,10.07957,0,0,1-4.801,4.83994,13.15138,13.15138,0,0,0-4.5514,3.56015A6.491,6.491,0,0,1,542.17517,485.06364Zm28.90313-53.30378a10.0458,10.0458,0,0,0-.31213-1.56828c-.46367-1.22661-1.48254-1.34422-2.28357-.28948a2.61,2.61,0,0,0-.40329.68672c-.85807,2.44605-2.77315,3.81016-4.95394,4.93457a9.70134,9.70134,0,0,0-4.03922,3.24853c-.63136.996-1.301,1.96852-1.90738,2.97923a9.98,9.98,0,0,1-4.332,4.245,12.73463,12.73463,0,0,0-6.3904,6.39327,9.42647,9.42647,0,0,1-4.24142,4.30705c-1.84282.98949-3.74042,1.9741-4.868,3.84153a28.64615,28.64615,0,0,1-6.30481,7.72522,1.44256,1.44256,0,0,0-.22743.25539,1.37122,1.37122,0,0,0,.7768,2.28712,3.69882,3.69882,0,0,0,3.379-.86365,14.24541,14.24541,0,0,0,1.72857-1.777c.56367-.63373,1.53222-1.002,1.6526-1.9129.14-1.059,1.46426-.375,1.61193-1.27006a.21811.21811,0,0,1,.06334-.09361c1.00287-1.0978,2.12475-2.073,3.12155-3.18743,1.13585-1.26991,2.5795-2.24451,3.55759-3.70609.19149-.28612.04117-.82038.3511-.78843,1.17811.1216,1.39768-.9133,2.00144-1.49635.82652-.79821,1.56365-1.72447,2.37416-2.46732.9216-.84458,2.19815-1.248,2.28048-2.76855.00613-.11257.17538-.27485.3-.31355,1.55687-.48377,2.46715-1.72316,3.5359-2.83727,2.19-2.2831,4.5141-4.43743,6.7757-6.65217.23825-.23329.642-.51252.50229-.83574-.36239-.83844.01249-.89668.67061-.76443.41729.08389.6264-.21893.85188-.46437,1.254-1.36483,2.75991-2.43731,3.658-4.21676C570.46957,433.47475,570.74278,432.57391,571.0783,431.75986ZM539.64172,479.302a5.85441,5.85441,0,0,0,2.51268-.54,10.13659,10.13659,0,0,0,4.81452-4.83877,11.62762,11.62762,0,0,1,5.66732-5.67713,9.99713,9.99713,0,0,0,4.8059-4.85472,10.5895,10.5895,0,0,1,5.22695-5.324,11.11229,11.11229,0,0,0,5.4023-5.50052,10.95181,10.95181,0,0,1,4.89737-4.89177c3.1763-1.74845,5.71744-4.099,6.22673-7.9815.10237-.7806.10889-1.64579-.5489-2.08243-.603-.40024-1.32969.04169-1.888.45a14.37626,14.37626,0,0,0-1.36478,1.20524c-2.43064,2.30457-4.43367,5.0151-6.8524,7.32254-3.38118,3.22562-6.844,6.3589-9.9311,9.88543-2.07683,2.37245-4.69227,4.20381-6.80757,6.55851-2.00518,2.23211-4.03816,4.4427-6.23456,6.49711a84.08594,84.08594,0,0,0-7.06764,6.9473,2.23723,2.23723,0,0,0-.68868,2.179C538.11446,479.47807,539.07074,479.11481,539.64172,479.302Z"/><path class="cls-2" d="M578.30012,417.72466c-.99214.341-1.69186-.25267-2.42439-.71748a20.36879,20.36879,0,0,0-5.27432-2.65455,3.17965,3.17965,0,0,0-2.718.346c-1.03141.64524-2.09564,1.24538-3.08156,1.95419a7.17285,7.17285,0,0,1-4.03147.957c-.54056.03339-.79495-.38494-1.0981-.71692-2.48678-2.72322-4.89548-5.52325-7.48265-8.14736-1.80616-1.83192-3.91513-3.34339-5.449-5.47761a2.36955,2.36955,0,0,0-3.11834-.57768,6.43909,6.43909,0,0,1-6.21864-.1817c-1.61789-.839-3.31131-1.53191-4.96771-2.29726a9.32246,9.32246,0,0,0-2.703-.8596,15.6901,15.6901,0,0,1-5.36656-2.13132,2.46105,2.46105,0,0,1-1.05-1.01087c-.84943-1.86058-1.91332-3.65242-2.20911-5.72023-.3041-2.126-1.66794-3.81359-2.31938-5.79651a36.999,36.999,0,0,0-1.53526-3.92587c-.37664-.81768.0576-1.38488.35654-2.01483.236-.49727.59916-.1586.871-.04157a13.03992,13.03992,0,0,1,4.37518,3.23831,29.66449,29.66449,0,0,0,9.0684,6.60116c1.57006.75662,3.15179.73827,4.28352-.53947,2.57761-2.9101,5.537-5.43261,8.18724-8.2643.23385-.24983.466-.50311.67747-.77165,1.29652-1.646,1.31932-2.91542-.0925-4.49159-2.97231-3.31833-5.55605-6.94438-8.368-10.38837a.93475.93475,0,0,1-.04138-1.3578c1.26956-1.89372,1.55448-2.03121,3.61561-.92156a11.41629,11.41629,0,0,0,4.9785,1.46695,5.53593,5.53593,0,0,1,2.50119.7165,10.91333,10.91333,0,0,0,4.91126,1.30223c3.01265.15915,4.33372,1.4814,4.379,4.51974a22.21749,22.21749,0,0,0,1.39854,7.8099,27.46073,27.46073,0,0,1,1.32663,6.00064,8.04815,8.04815,0,0,1-.29643,2.935,4.16333,4.16333,0,0,0,1.0584,3.89974,50.9185,50.9185,0,0,0,6.599,5.608,19.51358,19.51358,0,0,1,2.67633,2.47414c3.18271,3.66593,7.12087,6.519,10.60441,9.86147,1.28977,1.23751,2.61926,2.43356,3.914,3.666,1.12464,1.07046,1.073,1.528-.24664,2.28519a6.9241,6.9241,0,0,0-2.38531,1.91645A3.19808,3.19808,0,0,1,578.30012,417.72466Z"/><path class="cls-2" d="M627.12439,478.54171a14.40753,14.40753,0,0,1-7.6161-1.35636,15.85631,15.85631,0,0,0-1.77568-.77547,17.27588,17.27588,0,0,1-7.89751-6.11733c-3.75959-4.89832-8.34233-9.05607-12.54715-13.5547-2.20738-2.36166-4.46294-4.67875-6.64621-7.06224-1.25756-1.37287-1.207-1.44789-.33275-3.05419a35.55073,35.55073,0,0,1,2.07783-2.98762,6.25964,6.25964,0,0,0,.55386-6.87448,14.96278,14.96278,0,0,0-2.64742-3.27514c-1.44663-1.46049-1.26749-2.87177.43036-4.05137q1.17015-.813,2.31728-1.65893a1.80141,1.80141,0,0,1,1.02389-.45549c3.15525-.05314,6.26422.06893,8.782,2.3779a30.84613,30.84613,0,0,1,2.68689,2.46573c3.31092,3.85873,7.36531,6.91609,11.04751,10.3727,2.24639,2.10875,3.98176,4.73239,6.49007,6.56015a35.89492,35.89492,0,0,1,6.3168,5.74086,76.25307,76.25307,0,0,0,5.837,6.24683,5.80106,5.80106,0,0,1,1.88893,4.14323,36.27524,36.27524,0,0,1-.21745,5.80607,2.67467,2.67467,0,0,1-.28455.85779c-.25662.50828-.55827.99359-.83429,1.49225C633.77819,476.99418,631.11212,479.42922,627.12439,478.54171Zm1.44277-12.24185a6.64093,6.64093,0,0,0-1.45291-4.10721,2.52425,2.52425,0,0,0-3.67176-.84427c-3.85067,2.081-4.95945,8.34492-2.10091,11.75827a.84233.84233,0,0,0,.88689.29713A7.45894,7.45894,0,0,0,628.56716,466.29986Z"/><path class="cls-2" d="M584.55985,427.43872a2.72294,2.72294,0,0,1-3.011-1.46381,1.75367,1.75367,0,0,1,.08771-2.25615,70.21993,70.21993,0,0,1,8.92212-9.72169c4.85391-4.10649,9.12549-8.83709,13.63513-13.31091,6.94317-6.888,13.81673-13.84615,20.7267-20.76768a6.85527,6.85527,0,0,0,1.79927-2.98745c.75054-2.58607,2.22564-4.92,2.6686-7.61686.0837-.50966.56122-.59168.92944-.74829,1.32791-.5648,2.683-1.0675,3.99905-1.65777a1.82376,1.82376,0,0,1,1.905.3736,16.08661,16.08661,0,0,1,6.21479,6.94656c.95851,2.27213.97889,2.40724-.84617,4.04582a12.21746,12.21746,0,0,1-4.49609,2.61352c-3.80777,1.219-6.68181,3.83968-9.41935,6.6091-3.04823,3.08373-5.84761,6.41764-9.14529,9.24934-3.101,2.66288-5.62776,5.88271-8.5701,8.69236-3.438,3.283-7.0694,6.37018-10.40533,9.75106-2.77605,2.81345-5.33981,5.83941-8.32346,8.4493a16.86041,16.86041,0,0,0-3.18988,3.23738c-.50345.76082-1.37641.48776-2.086.64454A5.91743,5.91743,0,0,1,584.55985,427.43872Z"/></g><g id="vhMTIq"><path class="cls-3" d="M633.25735,98.33188c12.68129,6.82393,25.827,12.9127,37.972,20.58537,123.03007,77.72464,183.324,189.65187,169.20942,334.48258C821.15359,651.286,645.0044,777.00756,467.502,760.01433c-172.30389-16.49556-304.20168-159.6931-308.7696-329.40366-4.853-180.30364,134.42907-334.324,313.6809-346.06221,11.39082-.74592,18.58971.6114,16.3592,14.63253-1.27669,8.02521,3.4668,8.83789,9.64173,5.94553Q524.679,92.82409,550.89894,80.426c6.5331-3.09466,7.415-7.14653,1.24365-11.507q-23.67868-16.73073-47.5505-33.18771c-5.73443-3.96934-10.59536-3.18207-10.63405,4.46494-.075,14.8266-9.58678,15.42728-20.83267,16.59257C330.164,71.60242,225.97625,143.17239,167.02755,274.35361c-85.83835,191.02,15.911,417.8863,214.60057,484.225,183.72072,61.34094,383.40847-34.74889,449.24174-216.17525,60.53138-166.8149-13.125-354.21577-171.22536-435.35455-8.18095-4.19855-16.87393-7.39947-25.32852-11.06486Q633.78664,97.15791,633.25735,98.33188Z"/></g><path class="cls-4" d="M150.179,953.60514H97.92965L84.73082,991.19921H67.52718l48.426-131.35128h16.20267l48.426,131.35128H163.3778Zm-47.42459-13.9268h42.60033L124.32778,879.7829h-.54646Z"/><path class="cls-4" d="M186.68108,943.86562c0-29.675,16.29367-48.97248,40.14246-48.97248,13.56329,0,24.48624,6.64467,30.12995,17.02212h.364V859.84793h15.83868V991.19921H258.04593V975.17853h-.273c-6.09917,10.923-16.93113,17.6591-30.58494,17.6591C203.06575,992.83763,186.68108,973.54011,186.68108,943.86562Zm16.20267,0c0,21.48192,10.559,35.04521,27.3081,35.04521,16.29367,0,27.21662-13.83628,27.21662-35.04521,0-21.1184-10.923-35.04568-27.21662-35.04568C213.44272,908.81994,202.88375,922.47423,202.88375,943.86562Z"/><path class="cls-4" d="M337.42135,991.19921H321.21868l-34.86322-94.66765H303.0136l26.12466,77.82753h.364l26.21565-77.82753h16.47567Z"/><path class="cls-4" d="M460.217,964.07311c-2.73086,16.56714-18.75154,28.76452-39.41449,28.76452-27.1261,0-43.60176-18.84253-43.60176-48.608,0-29.4015,16.74865-49.33647,42.87331-49.33647,25.57868,0,41.32637,18.56954,41.32637,47.24259v6.0077h-67.906v.91044c0,18.11456,10.65,30.039,27.67208,30.039,12.01539,0,20.84494-6.0987,23.4848-15.01972Zm-66.63159-28.30906h51.42988c-.364-15.83869-10.286-27.1261-25.21422-27.1261C404.96386,908.638,394.58688,920.01636,393.58544,935.76405Z"/><path class="cls-4" d="M477.33014,896.53156h14.92824v15.4747h.36447a23.1842,23.1842,0,0,1,22.93834-17.11312,40.82382,40.82382,0,0,1,6.37216.637v15.3837a31.88608,31.88608,0,0,0-8.46556-.91044c-12.28886,0-20.299,8.82954-20.299,22.21084v58.985H477.33014Z"/><path class="cls-4" d="M567.902,894.89314c20.75394,0,34.59022,12.19738,35.2272,28.94652H588.019c-1.18343-9.922-8.46556-16.02068-20.117-16.02068-11.56041,0-19.20652,5.7347-19.20652,14.01779,0,6.55415,4.82426,11.01443,15.38322,13.56329l15.01972,3.64083c19.11552,4.64226,26.03318,12.10638,26.03318,25.66967,0,16.47567-15.56521,28.12707-36.68362,28.12707-22.21037,0-36.04665-11.19642-37.86706-28.94651h15.83868c1.91141,10.83243,9.19354,16.02068,22.02838,16.02068s20.75394-5.46172,20.75394-14.0178c0-6.82714-3.73182-10.74144-14.56425-13.3813l-15.01924-3.64082c-17.84109-4.27828-26.48865-12.56185-26.48865-26.21566C533.12977,906.45355,547.421,894.89314,567.902,894.89314Z"/><path class="cls-4" d="M617.69344,964.43757c0-16.20315,12.47085-26.39765,34.31724-27.67208l27.1261-1.54742v-7.91958c0-11.56041-7.64659-18.47855-20.75442-18.47855-12.19739,0-19.8435,5.73471-21.84638,15.01972H621.24375c1.09244-16.38515,15.11023-28.94652,37.50307-28.94652,22.21037,0,36.22817,12.01539,36.22817,30.85792v65.44815H679.95575V974.90554h-.364c-5.64371,10.832-17.6591,17.93209-30.40294,17.93209C630.34629,992.83763,617.69344,981.45922,617.69344,964.43757Zm61.44334-9.194v-7.73711l-25.30569,1.54742c-12.74337.81945-20.026,6.46316-20.026,15.3837,0,9.01155,7.55559,14.92825,18.934,14.92825C667.66737,979.36582,679.13678,968.89785,679.13678,955.24356Z"/><path class="cls-4" d="M715.09243,896.53156h14.92824v15.4747h.36447a23.18419,23.18419,0,0,1,22.93834-17.11312,40.82382,40.82382,0,0,1,6.37216.637v15.3837a31.88887,31.88887,0,0,0-8.46556-.91044c-12.28886,0-20.299,8.82954-20.299,22.21084v58.985H715.09243Z"/><path class="cls-4" d="M771.347,869.76992a9.922,9.922,0,1,1,9.922,9.92151A9.887,9.887,0,0,1,771.347,869.76992Zm2.00288,26.76164h15.83869v94.66765H773.34992Z"/><path class="cls-4" d="M806.75624,964.43757c0-16.20315,12.47085-26.39765,34.31723-27.67208l27.1261-1.54742v-7.91958c0-11.56041-7.64659-18.47855-20.75442-18.47855-12.19738,0-19.8435,5.73471-21.84638,15.01972H810.30654c1.09244-16.38515,15.11024-28.94652,37.50308-28.94652,22.21036,0,36.22816,12.01539,36.22816,30.85792v65.44815H869.01854V974.90554h-.364c-5.64371,10.832-17.6591,17.93209-30.40294,17.93209C819.40908,992.83763,806.75624,981.45922,806.75624,964.43757Zm61.44333-9.194v-7.73711l-25.30569,1.54742c-12.74336.81945-20.026,6.46316-20.026,15.3837,0,9.01155,7.5556,14.92825,18.934,14.92825C856.73016,979.36582,868.19957,968.89785,868.19957,955.24356Z"/><path class="cls-4" d="M904.97467,859.84793h15.83821V991.19921H904.97467Z"/><path class="cls-4" d="M58.83389,1184.28016H42.44922V1052.92888H91.6947c25.30521,0,41.87187,15.47422,41.87187,39.14149,0,18.29608-9.922,32.49635-26.39765,37.68507l30.40294,54.52472H118.36534l-28.12707-51.97633H58.83389Zm0-66.44959H90.23827c16.83965,0,26.39766-9.10254,26.39766-25.21422,0-15.74769-10.195-25.12322-27.12611-25.12322H58.83389Z"/><path class="cls-4" d="M147.03934,1136.94657c0-30.221,17.6591-48.97248,43.87476-48.97248,26.12466,0,43.78376,18.75153,43.78376,48.97248,0,30.12947-17.6591,48.972-43.78376,48.972C164.69844,1185.91858,147.03934,1167.076,147.03934,1136.94657Zm71.54684,0c0-22.30184-10.92343-35.04568-27.67208-35.04568s-27.76308,12.74384-27.76308,35.04568c0,22.30137,11.01442,35.04521,27.76308,35.04521S218.58618,1159.24794,218.58618,1136.94657Z"/><path class="cls-4" d="M266.92121,1168.25948h-.364v16.02068H251.447V1052.92888H267.2852v52.52231h.36446c5.9167-10.83243,16.93065-17.4771,30.312-17.4771,23.84879,0,39.96046,19.29751,39.96046,48.97248,0,29.76549-16.02068,48.972-40.23393,48.972C283.85234,1185.91858,273.0199,1179.18243,266.92121,1168.25948Zm.273-31.31291c0,21.11793,11.37842,35.04521,27.3991,35.04521,16.74913,0,27.1261-13.3813,27.1261-35.04521,0-21.48239-10.377-35.04568-27.1261-35.04568C278.57262,1101.90089,267.1942,1115.91916,267.1942,1136.94657Z"/><path class="cls-4" d="M431.67976,1184.28016H416.66052v-15.3837h-.364c-5.64371,10.92343-15.4747,17.02212-30.03895,17.02212-20.663,0-32.76934-13.38082-32.76934-34.86322V1089.6125h15.83869v58.621c0,15.3837,7.19113,23.66727,21.84638,23.66727,15.38323,0,24.66824-10.55944,24.66824-26.67112V1089.6125h15.83821Z"/><path class="cls-4" d="M485.295,1087.97409c20.75395,0,34.59023,12.19738,35.22721,28.94651H505.412c-1.18343-9.922-8.46556-16.02068-20.117-16.02068-11.5604,0-19.20652,5.73471-19.20652,14.0178,0,6.55415,4.82426,11.01442,15.38323,13.56329l15.01971,3.64082c19.11553,4.64227,26.03319,12.10639,26.03319,25.66968,0,16.47566-15.56522,28.12707-36.68362,28.12707-22.21037,0-36.04665-11.19642-37.86707-28.94652h15.83869c1.91141,10.83243,9.19354,16.02068,22.02838,16.02068s20.75394-5.46171,20.75394-14.01779c0-6.82715-3.73182-10.74144-14.56426-13.3813l-15.01923-3.64083c-17.8411-4.27828-26.48865-12.56184-26.48865-26.21565C450.52277,1099.53449,464.814,1087.97409,485.295,1087.97409Z"/><path class="cls-4" d="M559.84615,1066.76468v22.84782H578.2337v13.01684H559.84615V1158.884c0,8.64708,3.6413,12.56137,11.74288,12.56137a61.6485,61.6485,0,0,0,6.55367-.455v13.28982a56.44607,56.44607,0,0,1-10.013.728c-17.38611,0-24.12178-7.09965-24.12178-25.30521v-57.07358H529.89867V1089.6125h14.10927v-22.84782Z"/><path class="cls-4" d="M595.07383,1089.6125h14.92824v15.11024h.36446c5.27925-10.195,15.38323-16.74865,30.03848-16.74865,20.75394,0,32.76981,13.38082,32.76981,34.86321v61.44286H657.33613v-58.621c0-15.2927-7.19113-23.66679-21.75538-23.66679-14.92824,0-24.66824,10.559-24.66824,26.57964v55.70816H595.07383Z"/><path class="cls-4" d="M771.66577,1157.15406c-2.73086,16.56713-18.75154,28.76452-39.41448,28.76452-27.12611,0-43.60177-18.84254-43.60177-48.608,0-29.4015,16.74865-49.33647,42.87331-49.33647,25.57868,0,41.32637,18.56954,41.32637,47.24259v6.00769h-67.906v.91045c0,18.11456,10.65,30.039,27.67208,30.039,12.01539,0,20.84494-6.09869,23.4848-15.01971ZM705.03419,1128.845h51.42987c-.364-15.83868-10.286-27.1261-25.21422-27.1261C716.4126,1101.71889,706.03563,1113.09731,705.03419,1128.845Z"/><path class="cls-4" d="M821.91268,1087.97409c20.754,0,34.59023,12.19738,35.22721,28.94651H842.02965c-1.18343-9.922-8.46556-16.02068-20.117-16.02068-11.5604,0-19.20652,5.73471-19.20652,14.0178,0,6.55415,4.82426,11.01442,15.38323,13.56329l15.01971,3.64082c19.11553,4.64227,26.03319,12.10639,26.03319,25.66968,0,16.47566-15.56522,28.12707-36.68362,28.12707-22.21037,0-36.04665-11.19642-37.86707-28.94652h15.83869c1.91141,10.83243,9.19354,16.02068,22.02838,16.02068s20.75394-5.46171,20.75394-14.01779c0-6.82715-3.73182-10.74144-14.56426-13.3813l-15.01923-3.64083c-17.8411-4.27828-26.48865-12.56184-26.48865-26.21565C787.14047,1099.53449,801.43173,1087.97409,821.91268,1087.97409Z"/><path class="cls-4" d="M908.66123,1087.97409c20.75395,0,34.59023,12.19738,35.2272,28.94651H928.7782c-1.18344-9.922-8.46556-16.02068-20.117-16.02068-11.5604,0-19.20652,5.73471-19.20652,14.0178,0,6.55415,4.82426,11.01442,15.38323,13.56329l15.01924,3.64082c19.116,4.64227,26.03366,12.10639,26.03366,25.66968,0,16.47566-15.56522,28.12707-36.68363,28.12707-22.21036,0-36.04664-11.19642-37.86706-28.94652h15.83869c1.91141,10.83243,9.19354,16.02068,22.02837,16.02068s20.75395-5.46171,20.75395-14.01779c0-6.82715-3.73182-10.74144-14.56426-13.3813l-15.01923-3.64083c-17.8411-4.27828-26.48865-12.56184-26.48865-26.21565C873.889,1099.53449,888.18028,1087.97409,908.66123,1087.97409Z"/><path class="cls-4" d="M235.56281,1377.36158v-116.605H194.14544V1246.0103h99.21892v14.74625H251.94747v116.605Z"/><path class="cls-4" d="M278.98258,1330.02752c0-30.22047,17.6591-48.972,43.87475-48.972,26.12467,0,43.78377,18.75154,43.78377,48.972,0,30.13-17.6591,48.97248-43.78377,48.97248C296.64168,1379,278.98258,1360.15747,278.98258,1330.02752Zm71.54684,0c0-22.30137-10.923-35.04521-27.67209-35.04521s-27.76308,12.74384-27.76308,35.04521c0,22.30184,11.014,35.04568,27.76308,35.04568S350.52942,1352.32936,350.52942,1330.02752Z"/><path class="cls-4" d="M377.929,1330.02752c0-30.22047,17.6591-48.972,43.87475-48.972,26.12467,0,43.78376,18.75154,43.78376,48.972,0,30.13-17.65909,48.97248-43.78376,48.97248C395.58809,1379,377.929,1360.15747,377.929,1330.02752Zm71.54684,0c0-22.30137-10.92295-35.04521-27.67209-35.04521s-27.76308,12.74384-27.76308,35.04521c0,22.30184,11.014,35.04568,27.76308,35.04568S449.47583,1352.32936,449.47583,1330.02752Z"/><path class="cls-4" d="M482.33711,1246.0103h15.83821v131.35128H482.33711Z"/><path class="cls-4" d="M535.86039,1361.3409h-.364v16.02068H520.38617V1246.0103h15.83821v52.52231h.36446c5.9167-10.83243,16.93065-17.4771,30.31194-17.4771,23.84879,0,39.96047,19.29752,39.96047,48.972,0,29.766-16.02068,48.97248-40.23393,48.97248C552.79151,1379,541.95908,1372.26433,535.86039,1361.3409Zm.273-31.31338c0,21.1184,11.37841,35.04568,27.39909,35.04568,16.74913,0,27.12611-13.3813,27.12611-35.04568,0-21.48192-10.377-35.04521-27.12611-35.04521C547.51179,1294.98231,536.13338,1309.00058,536.13338,1330.02752Z"/><path class="cls-4" d="M618.24014,1330.02752c0-30.22047,17.6591-48.972,43.87476-48.972,26.12466,0,43.78376,18.75154,43.78376,48.972,0,30.13-17.6591,48.97248-43.78376,48.97248C635.89924,1379,618.24014,1360.15747,618.24014,1330.02752Zm71.54684,0c0-22.30137-10.92343-35.04521-27.67208-35.04521s-27.76308,12.74384-27.76308,35.04521c0,22.30184,11.01442,35.04568,27.76308,35.04568S689.787,1352.32936,689.787,1330.02752Z"/><path class="cls-4" d="M753.14172,1341.31493l-22.84782,36.04665H712.7258l32.22335-47.33406-31.67737-47.33359h17.65957l22.75635,35.50019h.364l22.48384-35.50019h17.6591l-31.95037,46.69661,31.49538,47.971h-17.5681l-22.66583-36.04665Z"/></svg>