<svg id="Layer_1" data-name="Layer 1" xmlns="http://www.w3.org/2000/svg" viewBox="0 0 2880 720"><path d="M232.99014,71.57015H338.36052L496.038,517.23937H395.05185l-29.40861-91.613H201.52183l-30.212,91.613H73.9Zm-6.13677,277.25819H340.99213l-56.29961-175.3651Z"/><path d="M728.85056,179.96387q1.65826.156,7.40753.45345v88.28757q-8.16361-.90715-14.51292-1.20954-6.34932-.2979-10.28005-.30213-52.007,0-69.84391,33.86348-9.97716,19.04793-9.97741,58.65646V517.23937H544.8679V187.674h82.24039V245.121q19.95509-32.95161,34.77089-45.05043,24.18546-20.253,62.88933-20.258Q727.18534,179.81255,728.85056,179.96387Z"/><path d="M752.888,252.07553V190.69737h45.95783V98.7817h85.26373v91.91567h53.51668v61.37816H884.10951V426.2306q0,20.26044,5.14028,25.24692,5.13753,4.989,31.44491,4.98846,3.92575,0,8.31443-.15132,4.37971-.14784,8.61706-.45295v64.401l-40.81756,1.51216q-61.07776,2.11146-83.44992-21.16536-14.51293-14.81008-14.51293-45.65471V252.07553Z"/><path d="M1081.54688,148.36764H994.16621V68.849h87.38067ZM994.16621,187.674h87.38067V517.23937H994.16621Z"/><path d="M1328.03162,187.3714q31.40012,13.004,50.72928,47.77214V187.674h84.05419V500.30787q0,63.79176-21.467,96.14855-36.89229,55.62814-141.50161,55.63262-63.19669,0-103.10263-24.793-39.9109-24.79547-44.14353-74.07628h93.72948q3.6286,15.1147,11.79171,21.76963,13.90368,11.79072,46.86524,11.79172,46.55738,0,62.28456-31.14328,10.27582-19.95434,10.28-67.12171V467.35079q-12.40071,21.16686-26.60677,31.74755-25.70262,19.65717-66.82057,19.65319-63.49385,0-101.43964-44.59748-37.948-44.59449-37.94554-120.7902,0-73.47177,36.53741-123.51141,36.53764-50.03739,103.57548-50.03989Q1309.61136,179.81255,1328.03162,187.3714ZM1357.379,423.66121q20.77711-22.82586,20.77712-72.71643,0-46.862-19.72388-71.35508-19.72139-24.49083-52.83625-24.49083-45.16866,0-62.32737,42.63186-9.03567,22.67653-9.03269,55.93476,0,28.72868,9.63248,51.09811,17.46135,41.72447,62.63,41.72446Q1336.60165,446.48806,1357.379,423.66121Z"/><path d="M1726.31644,179.96387q1.659.156,7.40853.45345v88.28757q-8.16361-.90715-14.51342-1.20954-6.34931-.2979-10.27955-.30213-52.0085,0-69.84441,33.86348-9.97791,19.04793-9.97791,58.65646V517.23937h-86.7749V187.674h82.24039V245.121q19.95433-32.95161,34.76989-45.05043,24.18621-20.253,62.88983-20.258Q1724.651,179.81255,1726.31644,179.96387Z"/><path d="M1914.75,316.77916q24.05779-3.01862,34.4155-7.55885,18.582-7.859,18.581-24.49083,0-20.253-14.2536-27.96763-14.2501-7.7104-41.833-7.71016-30.95364,0-43.827,15.11769-9.19844,11.18968-12.2596,30.23538h-83.1473q2.72818-43.23414,24.29224-71.05294,34.312-43.53952,117.8236-43.53927,54.3529,0,96.56368,21.4675,42.20677,21.47148,42.20728,81.03086v151.1759q0,15.72545.60427,38.09685.90789,16.93648,5.14077,22.97917,4.23039,6.05215,12.69862,9.97792v12.69862h-93.72948a95.63978,95.63978,0,0,1-5.44241-18.7463q-1.51713-8.76539-2.41906-19.95483a177.91407,177.91407,0,0,1-41.36111,32.95609q-27.97758,16.0226-63.25817,16.02459-45.0126,0-74.356-25.54856-29.35137-25.54656-29.34739-72.41379,0-60.7724,47.21067-87.98494,25.893-14.81007,76.14991-21.16436Zm52.68992,40.2123a95.34454,95.34454,0,0,1-16.70551,8.31542q-8.4324,3.17466-23.13945,5.89537l-19.61536,3.6286q-27.58038,4.83963-39.608,11.79172-20.359,11.7922-20.357,36.58469,0,22.07475,12.43382,31.89786,12.42984,9.83008,30.24036,9.8266a90.05939,90.05939,0,0,0,52.03786-16.32722q23.79648-16.32573,24.71333-59.56286Z"/><path d="M2405.74938,223.04918q40.32229,42.63237,40.3218,125.1739,0,87.079-39.40992,132.73423Q2367.25433,526.615,2305.17384,526.612q-39.56224,0-65.733-19.6522-14.30088-10.88581-27.9965-31.74755v171.737h-85.26373V187.674h82.543v48.679q13.99478-21.46476,29.81926-33.864,28.90639-22.06654,68.77126-22.07177Q2365.43007,180.41732,2405.74938,223.04918Zm-66.13516,61.98293q-17.56663-29.32374-56.9656-29.32848-47.351,0-65.063,44.44617-9.16857,23.58369-9.16459,59.865,0,57.44991,30.82571,80.72922,18.3252,13.605,43.383,13.60552,36.35324,0,55.45442-27.81631,19.08975-27.81481,19.09472-74.07728Q2357.17885,314.36084,2339.61422,285.03211Z"/><path d="M2743.69634,189.49729A96.76351,96.76351,0,0,1,2784.49,221.87748q13.5423,18.4678,16.55419,37.98337,3.01189,19.51606,3.01438,63.69768V517.23937h-87.98543V316.55219q0-26.63739-9.00431-42.98129-11.70711-23.00282-44.4173-23.00754-33.91624,0-51.4764,22.85622-17.55915,22.85349-17.55468,65.22826V517.23937h-86.17163V73.08182h86.17163V230.30589q18.66566-28.72122,43.19881-40.062a121.64214,121.64214,0,0,1,51.63169-11.33827Q2718.85809,178.90565,2743.69634,189.49729Z"/></svg>