<svg id="Layer_1" data-name="Layer 1" xmlns="http://www.w3.org/2000/svg" viewBox="0 0 373.99898 395.98281"><defs><style>.cls-1{fill:#7984e9;}.cls-2{fill:#00e2fb;}.cls-3{fill:#01e2fb;}.cls-4{fill:#6644e7;}.cls-5{fill:#5617b2;}.cls-6{fill:#0654c4;}</style></defs><title>audit-ai</title><polygon class="cls-1" points="47.56 77.575 104.914 5.758 249.435 5.615 249.532 77.377 47.56 77.575"/><path class="cls-2" d="M105.87621,149.68356q-28.23012-10.31944-56.454-20.65411c-2.09013-.76736-2.82009-2.41328-2.80327-4.475q.18219-22.33479.31716-44.66992c1.73067-2.22214,4.29654-2.44644,6.88243-2.46134,15.14108-.08723,30.28267-.129,45.42331.026,2.77342.02839,5.55.32636,7.3477,2.7882.95762,1.709.912,3.57884.91584,5.425q.05952,28.87557-.00688,57.75117C107.49315,145.59791,107.79947,147.91474,105.87621,149.68356Z"/><path class="cls-3" d="M105.49863,150.52481c9.05384,3.462,16.9018,9.13809,25.27794,13.83725,10.65654,5.97856,21.22021,12.12733,31.73364,18.35512,12.76957,7.56422,26.1824,14.0489,38.26988,22.75683-11.43737.14361-22.61938-2.271-33.92363-3.44034-16.01682-1.65675-31.9768-3.86938-47.9992-5.46061-4.08114-.4053-5.89694-1.50767-6.63458-5.78826C109.912,177.37593,106.70735,164.1203,105.49863,150.52481Z"/><path class="cls-4" d="M176.85117,78.608q-35.39094.04188-70.78154.08308a17.44946,17.44946,0,0,0,3.44948-11.16878c-.10809-14.093-.07522-28.18746.00148-42.28084.00969-1.77863-1.05-4.25663.98416-5.19869,1.7896-.82882,2.7093,1.58919,4.00159,2.575,17.62328,13.444,32.32014,29.89582,47.2888,46.06646C166.004,73.231,172.68029,74.015,176.85117,78.608Z"/><polygon class="cls-4" points="103.785 148.541 204.779 207.412 176.851 148.523 103.785 148.541"/><rect class="cls-5" x="104.91373" y="77.34528" width="72.42667" height="72.42667"/><rect class="cls-6" x="177.10539" y="77.37692" width="72.42667" height="72.42667"/><polygon class="cls-4" points="104.914 77.345 104.914 5.758 177.105 77.377 104.914 77.345"/><polygon class="cls-1" points="104.914 5.758 46.923 78.372 104.914 77.345 104.914 5.758"/><polygon class="cls-3" points="46.923 78.372 46.923 128.126 104.914 149.772 104.914 77.345 46.923 78.372"/><polygon class="cls-5" points="177.105 149.804 249.532 149.804 302.132 201.35 279.599 218.404 258.124 289.012 204.779 207.412 177.105 149.804"/><polygon class="cls-3" points="104.914 149.772 113.909 194.786 204.779 207.412 104.914 149.772"/><polygon class="cls-3" points="249.435 5.615 249.532 77.377 322.395 78.736 249.435 5.615"/><polygon class="cls-4" points="249.532 149.804 302.132 201.35 323.247 150.525 322.395 78.736 249.532 77.377 249.532 149.804"/><path d="M48.3609,319.05947l26.12966,69.87387H58.53862l-5.28475-15.56015H27.12477l-5.4801,15.56015H6.1822l26.42266-69.87387Zm.8807,42.86351-8.80755-25.63963h-.1959L31.137,361.923Z"/><path d="M113.34181,388.93334v-7.0456h-.29357A15.633,15.633,0,0,1,106.198,388.248a20.22234,20.22234,0,0,1-8.61221,1.95785,24.32287,24.32287,0,0,1-9.15024-1.46783,13.1971,13.1971,0,0,1-5.62688-4.159,16.26528,16.26528,0,0,1-2.88711-6.5578A40.75278,40.75278,0,0,1,79.09,369.4586V338.33831H92.98637v28.57642q0,6.26369,1.9573,9.345,1.95645,3.08244,6.94793,3.083,5.67515,0,8.22042-3.37657,2.54415-3.37547,2.54443-11.10753V338.33831h13.897v50.595Z"/><path d="M173.03684,382.47487a14.34318,14.34318,0,0,1-6.40991,5.92045,21.32432,21.32432,0,0,1-8.95489,1.81051,21.63173,21.63173,0,0,1-9.98183-2.20231,20.0238,20.0238,0,0,1-7.09527-5.96955,27.05294,27.05294,0,0,1-4.2076-8.66078,36.3357,36.3357,0,0,1-1.41927-10.17771,34.14549,34.14549,0,0,1,1.41927-9.835,25.55911,25.55911,0,0,1,4.2076-8.36721,20.42559,20.42559,0,0,1,16.78353-8.02452,19.89439,19.89439,0,0,1,8.5631,1.90762,14.92826,14.92826,0,0,1,6.40991,5.62688h.1959V319.05947h13.89641v69.87387H173.23218v-6.45847Zm-.58713-25.0045a14.74841,14.74841,0,0,0-2.00641-5.08886,11.31773,11.31773,0,0,0-3.66958-3.57191,10.76415,10.76415,0,0,0-5.676-1.36961,11.291,11.291,0,0,0-5.77422,1.36961,10.8364,10.8364,0,0,0-3.76781,3.621,15.99205,15.99205,0,0,0-2.055,5.138,27.82248,27.82248,0,0,0-.63625,6.01867,25.70736,25.70736,0,0,0,.68536,5.87133,15.97494,15.97494,0,0,0,2.20175,5.2362,12.17048,12.17048,0,0,0,3.81637,3.71814,10.32087,10.32087,0,0,0,5.52976,1.41872,11.01466,11.01466,0,0,0,5.72455-1.36961,10.41852,10.41852,0,0,0,3.67014-3.67014,16.46015,16.46015,0,0,0,1.9573-5.23508,30.88721,30.88721,0,0,0,.58713-6.06779A30.15989,30.15989,0,0,0,172.44971,357.47037Z"/><path d="M197.30576,330.50913V319.05947h13.89641v11.44966Zm13.89641,7.82918v50.595H197.30576v-50.595Z"/><path d="M249.95519,338.33831v9.297H239.77747v25.0525q0,3.52281,1.17427,4.69818,1.17454,1.17372,4.69762,1.17427,1.17454,0,2.25086-.09823a19.06316,19.06316,0,0,0,2.055-.29356v10.76485a33.29552,33.29552,0,0,1-3.91459.39179q-2.15321.09544-4.20816.09711a40.56667,40.56667,0,0,1-6.11634-.43979,14.41673,14.41673,0,0,1-5.08886-1.71228,9.06086,9.06086,0,0,1-3.47425-3.621,12.92828,12.92828,0,0,1-1.27193-6.166v-29.8478h-8.41632v-9.297h8.41632V323.1694h13.89641v15.16891Z"/><path d="M320.12207,319.05947l26.12965,69.87387H330.29978l-5.28531-15.56015H298.88593l-5.4801,15.56015H277.94336l26.42211-69.87387Zm.8807,42.86351-8.80812-25.63963h-.19534L302.89763,361.923Z"/><path d="M367.6832,319.05947v69.87387H352.31839V319.05947Z"/></svg>