<?xml version="1.0" encoding="utf-8"?>
<!-- Generator: Adobe Illustrator 26.0.1, SVG Export Plug-In . SVG Version: 6.00 Build 0)  -->
<svg version="1.1" id="图层_1" xmlns="http://www.w3.org/2000/svg" xmlns:xlink="http://www.w3.org/1999/xlink" x="0px" y="0px"
	 viewBox="0 0 1920 1080" style="enable-background:new 0 0 1920 1080;" xml:space="preserve">
<style type="text/css">
	.st0{fill:#FFFFFF;}
	.st1{fill:#0C0C0C;}
	.st2{fill:#1550E9;}
</style>
<g>
	<g>
		<g>
			<path class="st0" d="M1402.05-335.53h-20.24v6.92h17.4c1.27,0,2.31,1.03,2.31,2.31v0c0,1.27-1.03,2.31-2.31,2.31h-17.4v6.92h17.4
				c1.27,0,2.31,1.03,2.31,2.31c0,1.27-1.03,2.31-2.31,2.31h-17.4v6.92h20.24c5.1,0,9.23-4.13,9.23-9.23c0-2.18-0.76-4.19-2.03-5.77
				c1.27-1.58,2.03-3.59,2.03-5.77v0C1411.28-331.4,1407.15-335.53,1402.05-335.53z"/>
			<rect x="1511.42" y="-335.53" class="st0" width="10.45" height="30"/>
			<polygon class="st0" points="1488.95,-335.53 1478.51,-335.53 1478.5,-335.53 1465.65,-305.53 1476.1,-305.53 1483.73,-323.35 
				1491.36,-305.53 1501.81,-305.53 1488.96,-335.53 			"/>
			<polygon class="st0" points="1444.38,-335.53 1433.94,-335.53 1433.93,-335.53 1421.08,-305.53 1431.53,-305.53 1439.16,-323.35 
				1446.79,-305.53 1457.23,-305.53 1444.39,-335.53 			"/>
		</g>
	</g>
	<g>
		<polygon class="st0" points="1570.65,-326.83 1568.02,-335.3 1572.34,-335.3 1574.96,-326.83 		"/>
		<polygon class="st0" points="1580.72,-305.79 1582.77,-314.24 1586.56,-314.24 1584.5,-305.79 		"/>
		<polygon class="st0" points="1591.99,-314.24 1595.72,-314.24 1597.21,-305.79 1593.42,-305.79 		"/>
		<polygon class="st0" points="1570.5,-317.45 1567.5,-325.29 1571.68,-325.29 1575.09,-317.45 		"/>
		<path class="st0" d="M1569.68-311.39l0.76-4.64h4.32l-0.97,6.39c-0.12,0.87-0.99,2.32-1.64,2.83c-0.75,0.57-1.69,1.15-3.32,1.15
			h-1.07v-3.69c0,0,0.54-0.17,0.71-0.26C1568.65-309.71,1569.53-310.31,1569.68-311.39"/>
		<path class="st0" d="M1597.19-330.42h-5.8l0.65-1.28h5.02v-3.6h-20.68v23.81c-0.05,1.41-1.28,2.19-1.74,2.26h-0.1v3.7h1.21
			c1.8,0,2.91-0.9,3.39-1.32c0.48-0.43,1.44-1.55,1.55-3.48v-21.37h6.44l-0.59,1.28h-5.06v14.9h5.63v4.23
			c0.07,1.59-0.91,2.06-0.91,2.06l-0.27,0.13v3.57h0.59c1.75-0.13,3.28-1.24,3.62-1.7c0.4-0.38,1.35-1.72,1.33-3.37l-0.04-4.92h0.81
			c1.6,0.05,2.9-0.76,3.49-1.39c0.7-0.55,1.48-2.16,1.45-3.43V-330.42z M1585.41-326.7h7.65v1.92h-7.65V-326.7z M1592.34-319.83
			c-0.42,0.36-0.83,0.72-1.69,0.71h-5.24v-1.93h7.59C1593-321.05,1592.79-320.21,1592.34-319.83"/>
		<path class="st0" d="M1535.41-330.35v-3.47h1.7l0.59-1.29h4.91l-0.33,1.16h8.31v3.6h-4.58v1.29h4.45v3.47h-4.39l1.24,1.03
			c0.31,0.29,0.66,0.42,1.05,0.39h2.22v3.6h-3.79c-0.5,0-0.83-0.02-1-0.05c-0.19-0.04-0.37-0.14-0.51-0.27l-1.96-1.86l-1.57,1.8
			c-0.26,0.26-0.76,0.39-1.51,0.39h-4.71v-3.47h3.08c0.31,0.02,0.59-0.11,0.85-0.39l1.11-1.15h-5.17v-3.47h5.5v-1.29H1535.41z"/>
		<path class="st0" d="M1551.51-334.84v14.13h8.42c3.2,0,5.06-2.74,5.06-4.81v-9.32H1551.51z M1560.41-326.74
			c-0.03,0.66-0.15,1.52-0.89,2.01c-1.02,0.69-1.61,0.55-1.61,0.55h-1.69v-6.81h4.19V-326.74z"/>
		<path class="st0" d="M1536.06-319.62v13.97h23.46c2.58,0,4.94-2.17,4.94-5.16v-8.81H1536.06z M1558.58-309.54
			c-0.29,0.27-0.91,0.5-1.61,0.58h-16.2v-1.8h18.58C1559.35-310.76,1559.15-310.06,1558.58-309.54 M1559.31-314.23h-18.54v-1.67
			h18.54V-314.23z"/>
		<path class="st0" d="M1601.34-306.31v-16.22h-1.49v-3.78h0.5c0.24,0,0.44-0.08,0.6-0.26c0.17-0.17,0.34-0.49,0.52-0.94l1.49-3.97
			h-2.84v-3.73h12.68v3.73h-5.7l-1.24,3.17h7.35v14.33c0,0.85-0.16,3.6-2.14,5.45c-2.36,2.21-4.61,2.22-5.48,2.22H1601.34z
			 M1609.26-324.56h-4.09v14.52h0.91c0.36,0,1.51-0.44,2.11-1.03c1.16-1.15,1.08-2.25,1.08-2.67V-324.56z M1616.13-318.8h-1.94
			v-3.91h1.94v-8.79h-1.94v-3.89h15.11v3.89h-1.3v8.79h1.17v3.91H1628v12.58h-4.08v-12.58h-3.56v5.95c0,0.38-0.03,2.95-2.13,4.98
			c-2.04,1.98-4.04,1.89-4.04,1.89v-3.84c0,0,0.72-0.47,1.15-0.99c0.85-1.01,0.8-1.87,0.8-2.36V-318.8z M1623.92-331.49h-3.56v8.79
			h3.56V-331.49z"/>
		<path class="st0" d="M1644.31-334.2l-0.03-1.19h5.69l0.02,1.19h10.98v5.95h-4.34v-2.31h-19.57v2.5h-4.25v-6.15H1644.31z
			 M1645.21-329.41l-0.8,2.75c-0.26,0.88-1.24,2.45-2.65,3.33c-0.9,0.57-2.69,1.36-4.28,1.36h-4.63v-3.67h3.98
			c0.66,0,1.58-0.09,2.4-0.64c0.48-0.33,1.22-1.29,1.34-1.75l0.34-1.38H1645.21z M1642.71-320.19h16.66v8.8c0,0.12,0,0.33,0.01,0.63
			c0.01,0.3,0.06,0.55,0.17,0.74c0.11,0.19,0.4,0.28,0.88,0.28h1.14v3.84h-2.5c-1.33,0-2.25-0.25-2.78-0.76
			c-0.52-0.51-0.86-1.09-1.02-1.74c-0.15-0.66-0.23-1.2-0.23-1.64v-6.48h-12.69l-0.69,4.87c-0.25,1.48-1.12,3.04-2.58,4.27
			c-0.94,0.79-2.75,1.49-3.79,1.49h-1.94v-3.84h0.53c0.79,0,1.92-0.64,2.14-0.79c0.21-0.16,1.25-1.24,1.38-2.1l0.51-3.89h-5.04
			v-3.67h5.4l0.19-1.01h4.38L1642.71-320.19z M1648.41-329.3h4.16l0.4,1.47c0.12,0.45,0.58,1.06,1.03,1.36
			c0.41,0.27,1.62,0.72,2.29,0.72h5.12v3.67h-5.43c-1.26,0-3.28-0.68-4.35-1.61c-1.15-1-2.26-2.44-2.42-3.08L1648.41-329.3z"/>
		<path class="st0" d="M1665.15-335.01h10.68v10.73c0,0.52-0.09,1.05-0.27,1.59c-0.18,0.54-0.42,0.89-0.71,1.05l-0.66,0.42
			c0.6,0.48,1.02,0.91,1.27,1.3c0.25,0.38,0.37,0.86,0.37,1.44v4.39c0.03,0.99-0.68,3.61-1.68,4.61c-0.66,0.66-1.99,1.88-4.01,2.35
			l-1.18,0.14v1.25h-3.8V-335.01z M1668.96-323h1.88c0.32,0,0.58-0.12,0.78-0.37c0.2-0.25,0.3-0.73,0.3-1.46v-6.76h-2.96V-323z
			 M1668.96-319.57v9.17c0,0,0.92,0.05,1.95-0.89c0.78-0.71,0.98-2.05,0.99-2.44l0.02-4.29c0-0.59-0.09-0.99-0.28-1.22
			c-0.19-0.22-0.44-0.34-0.75-0.34H1668.96z M1676.52-306v-3.3c0,0,0.37-0.2,1.01-0.7c0.78-0.62,1.04-1.39,1.16-1.84l1.44-5.79
			l4.16-0.02l-1.85,7.38C1680.67-306.23,1676.52-306,1676.52-306 M1676.73-328.73v-5.55h6.12v-1.25h4.55v1.25h6.55v5.54l-3.94,0.02
			v-2.18h-9.39v2.18H1676.73z M1676.91-323.9l-0.02-3.42l17.29-0.02v3.44H1676.91z M1676.97-321.88h17.32v3.41h-3.56v5.4
			c0,0.99,0.7,2.18,1.07,2.58c1.07,1.13,2.64,1.06,2.64,1.06l0.03,3.6c0,0-2.8,0.24-5.27-1.88c-1.66-1.42-2.42-3.92-2.42-4.74v-6.02
			h-9.81V-321.88z"/>
	</g>
</g>
<g>
	<g>
		<g>
			<path class="st0" d="M798.48-417.75H732.9v22.43h56.37c4.13,0,7.48,3.35,7.48,7.48v0c0,4.13-3.35,7.48-7.48,7.48H732.9v22.43
				h56.37c4.13,0,7.48,3.35,7.48,7.48s-3.35,7.48-7.48,7.48H732.9v22.43h65.58c16.52,0,29.91-13.39,29.91-29.91
				c0-7.08-2.46-13.57-6.57-18.7c4.11-5.12,6.57-11.62,6.57-18.7v0C828.39-404.36,815-417.75,798.48-417.75z"/>
			<rect x="1152.87" y="-417.75" class="st0" width="33.85" height="97.22"/>
			<polygon class="st0" points="1080.06,-417.75 1046.24,-417.75 1046.21,-417.75 1004.58,-320.53 1038.43,-320.53 1063.15,-378.26 
				1087.87,-320.53 1121.73,-320.53 1080.1,-417.75 			"/>
			<polygon class="st0" points="935.63,-417.75 901.81,-417.75 901.78,-417.75 860.15,-320.53 894,-320.53 918.72,-378.26 
				943.44,-320.53 977.29,-320.53 935.66,-417.75 			"/>
		</g>
	</g>
	<g>
		<polygon class="st0" points="831.49,-265.48 823.93,-289.83 836.33,-289.83 843.85,-265.48 		"/>
		<polygon class="st0" points="860.4,-205.05 866.29,-229.32 877.19,-229.32 871.26,-205.06 		"/>
		<polygon class="st0" points="892.79,-229.32 903.5,-229.32 907.75,-205.05 896.88,-205.05 		"/>
		<polygon class="st0" points="831.06,-238.54 822.42,-261.06 834.45,-261.06 844.22,-238.54 		"/>
		<path class="st0" d="M828.7-221.15l2.17-13.34h12.41l-2.79,18.36c-0.34,2.49-2.83,6.67-4.72,8.12c-2.15,1.65-4.85,3.32-9.52,3.32
			h-3.08v-10.6c0,0,1.55-0.5,2.03-0.75C825.73-216.31,828.27-218.05,828.7-221.15"/>
		<path class="st0" d="M907.71-275.81h-16.65l1.88-3.69h14.41v-10.33h-59.39v68.4c-0.15,4.06-3.68,6.29-4.99,6.5h-0.29v10.61h3.48
			c5.18,0,8.37-2.57,9.74-3.79c1.38-1.24,4.13-4.46,4.45-10.01v-61.38h18.49l-1.69,3.69H862.6v42.8h16.17v12.16
			c0.21,4.56-2.63,5.92-2.63,5.92l-0.76,0.37v10.24h1.69c5.03-0.38,9.43-3.56,10.39-4.89c1.16-1.1,3.88-4.95,3.82-9.68l-0.11-14.12
			h2.34c4.6,0.15,8.32-2.18,10.02-3.99c2.01-1.57,4.24-6.21,4.18-9.86V-275.81z M873.88-265.11h21.97v5.53h-21.97V-265.11z
			 M893.78-245.37c-1.22,1.03-2.39,2.07-4.85,2.03h-15.04v-5.53h21.8C895.69-248.88,895.06-246.46,893.78-245.37"/>
		<path class="st0" d="M730.27-275.59v-9.96h4.88l1.69-3.69h14.1l-0.94,3.32h23.87v10.33h-13.15v3.69h12.78v9.96h-12.6l3.57,2.95
			c0.88,0.83,1.88,1.2,3.01,1.11h6.39v10.33h-10.9c-1.44,0-2.39-0.05-2.87-0.14c-0.56-0.13-1.05-0.39-1.46-0.78l-5.63-5.35
			l-4.51,5.16c-0.75,0.74-2.19,1.11-4.32,1.11h-13.54v-9.96h8.83c0.88,0.06,1.69-0.31,2.44-1.11l3.2-3.32h-14.84v-9.96h15.79v-3.69
			H730.27z"/>
		<path class="st0" d="M776.51-288.51v40.59h24.19c9.19,0,14.52-7.87,14.52-13.82v-26.77H776.51z M802.07-265.24
			c-0.08,1.91-0.43,4.37-2.55,5.79c-2.93,1.98-4.63,1.57-4.63,1.57h-4.85v-19.55h12.03V-265.24z"/>
		<path class="st0" d="M732.12-244.79v40.13h67.37c7.4,0,14.2-6.23,14.19-14.83v-25.29H732.12z M796.81-215.83
			c-0.83,0.78-2.61,1.44-4.64,1.67h-46.52v-5.16h53.37C799.02-219.32,798.43-217.33,796.81-215.83 M798.9-229.29h-53.25v-4.79h53.25
			V-229.29z"/>
		<path class="st0" d="M919.64-206.55v-46.58h-4.29v-10.85h1.43c0.68,0,1.25-0.24,1.73-0.73c0.48-0.49,0.98-1.39,1.5-2.71l4.29-11.4
			h-8.16v-10.72h36.43v10.72H936.2l-3.55,9.1h21.12v41.15c0,2.45-0.47,10.35-6.14,15.65c-6.77,6.34-13.25,6.37-15.73,6.37H919.64z
			 M942.38-258.97h-11.76v41.7h2.61c1.05,0,4.34-1.26,6.05-2.96c3.32-3.3,3.09-6.45,3.09-7.68V-258.97z M962.12-242.42h-5.58v-11.22
			h5.58v-25.24h-5.58v-11.18h43.39v11.18h-3.74v25.24h3.37v11.22h-3.37v36.14h-11.71v-36.14h-10.24v17.1c0,1.11-0.1,8.47-6.11,14.29
			c-5.86,5.68-11.6,5.44-11.6,5.44v-11.04c0,0,2.06-1.35,3.29-2.84c2.43-2.91,2.29-5.36,2.29-6.77V-242.42z M984.48-278.88h-10.24
			v25.24h10.24V-278.88z"/>
		<path class="st0" d="M1043.06-286.65l-0.08-3.41h16.34l0.06,3.41h31.54v17.1h-12.45v-6.62h-56.21v7.17h-12.22v-17.65H1043.06z
			 M1045.64-272.9l-2.29,7.89c-0.73,2.52-3.56,7.04-7.6,9.58c-2.6,1.63-7.72,3.91-12.28,3.91h-13.29v-10.53h11.43
			c1.9,0,4.54-0.25,6.89-1.84c1.39-0.94,3.51-3.72,3.85-5.04l0.99-3.97H1045.64z M1038.45-246.42h47.86v25.29
			c0,0.34,0.01,0.94,0.03,1.82c0.02,0.87,0.17,1.58,0.48,2.12c0.31,0.54,1.15,0.8,2.54,0.8h3.27v11.04h-7.19
			c-3.82,0-6.48-0.73-7.99-2.19c-1.5-1.45-2.48-3.12-2.93-5.01c-0.44-1.88-0.66-3.46-0.66-4.71v-18.62h-36.44l-1.98,13.98
			c-0.72,4.25-3.22,8.73-7.42,12.26c-2.71,2.28-7.9,4.29-10.88,4.29h-5.58v-11.04h1.53c2.28,0,5.52-1.83,6.13-2.28
			c0.62-0.45,3.6-3.55,3.97-6.03l1.46-11.19h-14.48v-10.53h15.5l0.55-2.89h12.59L1038.45-246.42z M1054.82-272.58h11.95l1.15,4.23
			c0.34,1.29,1.66,3.06,2.95,3.91c1.19,0.78,4.66,2.06,6.57,2.06h14.7v10.53h-15.59c-3.63,0-9.43-1.95-12.5-4.62
			c-3.29-2.87-6.48-7.01-6.95-8.84L1054.82-272.58z"/>
		<path class="st0" d="M1102.93-288.97h30.67v30.81c0,1.5-0.26,3.03-0.78,4.57c-0.52,1.55-1.21,2.55-2.03,3.01l-1.89,1.2
			c1.72,1.38,2.93,2.62,3.64,3.72c0.71,1.11,1.06,2.48,1.06,4.14v12.61c0.09,2.85-1.95,10.37-4.83,13.24
			c-1.9,1.89-5.7,5.39-11.53,6.76l-3.38,0.41v3.58h-10.92V-288.97z M1113.85-254.49h5.4c0.92,0,1.66-0.35,2.23-1.06
			c0.57-0.7,0.86-2.1,0.86-4.18v-19.4h-8.49V-254.49z M1113.85-244.65v26.34c0,0,2.63,0.13,5.59-2.55c2.24-2.04,2.82-5.9,2.85-7
			l0.05-12.33c0-1.69-0.27-2.85-0.81-3.5c-0.54-0.64-1.25-0.96-2.15-0.96H1113.85z M1135.58-205.66v-9.47c0,0,1.07-0.56,2.9-2.01
			c2.25-1.78,2.99-3.99,3.33-5.27l4.14-16.62l11.95-0.04l-5.31,21.19C1147.5-206.33,1135.58-205.66,1135.58-205.66 M1136.17-270.95
			v-15.95h17.57v-3.58h13.06v3.58h18.81v15.91l-11.3,0.05v-6.25h-26.98v6.25H1136.17z M1136.68-257.06l-0.05-9.84l49.67-0.04v9.88
			H1136.68z M1136.86-251.27h49.76v9.79h-10.24v15.52c0,2.85,2,6.26,3.08,7.4c3.07,3.26,7.57,3.06,7.57,3.06l0.09,10.35
			c0,0-8.05,0.68-15.15-5.4c-4.77-4.09-6.94-11.26-6.94-13.62v-17.3h-28.18V-251.27z"/>
	</g>
</g>
<g>
	<g>
		<g>
			<g>
				<path class="st1" d="M798.48,271.56H732.9V294h56.37c4.13,0,7.48,3.35,7.48,7.48v0c0,4.13-3.35,7.48-7.48,7.48H732.9v22.43
					h56.37c4.13,0,7.48,3.35,7.48,7.48s-3.35,7.48-7.48,7.48H732.9v22.43h65.58c16.52,0,29.91-13.39,29.91-29.91
					c0-7.08-2.46-13.57-6.57-18.7c4.11-5.12,6.57-11.62,6.57-18.7v0C828.39,284.95,815,271.56,798.48,271.56z"/>
				<rect x="1152.87" y="271.56" class="st1" width="33.85" height="97.22"/>
				<polygon class="st1" points="1080.06,271.56 1046.24,271.56 1046.21,271.56 1004.58,368.78 1038.43,368.78 1063.15,311.05 
					1087.87,368.78 1121.73,368.78 1080.1,271.56 				"/>
				<polygon class="st1" points="935.63,271.56 901.81,271.56 901.78,271.56 860.15,368.78 894,368.78 918.72,311.05 943.44,368.78 
					977.29,368.78 935.66,271.56 				"/>
			</g>
		</g>
		<g>
			<polygon class="st1" points="831.49,423.83 823.93,399.48 836.33,399.48 843.85,423.83 			"/>
			<polygon class="st1" points="860.4,484.26 866.29,459.99 877.19,459.99 871.26,484.26 			"/>
			<polygon class="st1" points="892.79,459.99 903.5,459.99 907.75,484.26 896.88,484.26 			"/>
			<polygon class="st1" points="831.06,450.77 822.42,428.25 834.45,428.25 844.22,450.77 			"/>
			<path class="st1" d="M828.7,468.17l2.17-13.34h12.41l-2.79,18.36c-0.34,2.49-2.83,6.67-4.72,8.12c-2.15,1.65-4.85,3.32-9.52,3.32
				h-3.08v-10.6c0,0,1.55-0.5,2.03-0.75C825.73,473,828.27,471.26,828.7,468.17"/>
			<path class="st1" d="M907.71,413.5h-16.65l1.88-3.69h14.41v-10.33h-59.39v68.4c-0.15,4.06-3.68,6.29-4.99,6.5h-0.29v10.61h3.48
				c5.18,0,8.37-2.57,9.74-3.79c1.38-1.24,4.13-4.46,4.45-10.01v-61.38h18.49l-1.69,3.69H862.6v42.8h16.17v12.16
				c0.21,4.56-2.63,5.92-2.63,5.92l-0.76,0.37v10.24h1.69c5.03-0.38,9.43-3.56,10.39-4.89c1.16-1.1,3.88-4.95,3.82-9.68l-0.11-14.12
				h2.34c4.6,0.15,8.32-2.18,10.02-3.99c2.01-1.57,4.24-6.21,4.18-9.86V413.5z M873.88,424.2h21.97v5.53h-21.97V424.2z
				 M893.78,443.94c-1.22,1.03-2.39,2.07-4.85,2.03h-15.04v-5.53h21.8C895.69,440.43,895.06,442.85,893.78,443.94"/>
			<path class="st1" d="M730.27,413.72v-9.96h4.88l1.69-3.69h14.1l-0.94,3.32h23.87v10.33h-13.15v3.69h12.78v9.96h-12.6l3.57,2.95
				c0.88,0.83,1.88,1.2,3.01,1.11h6.39v10.33h-10.9c-1.44,0-2.39-0.05-2.87-0.14c-0.56-0.13-1.05-0.39-1.46-0.78l-5.63-5.35
				l-4.51,5.16c-0.75,0.74-2.19,1.11-4.32,1.11h-13.54v-9.96h8.83c0.88,0.06,1.69-0.31,2.44-1.11l3.2-3.32h-14.84v-9.96h15.79v-3.69
				H730.27z"/>
			<path class="st1" d="M776.51,400.8v40.59h24.19c9.19,0,14.52-7.87,14.52-13.82V400.8H776.51z M802.07,424.08
				c-0.08,1.91-0.43,4.37-2.55,5.79c-2.93,1.98-4.63,1.57-4.63,1.57h-4.85v-19.55h12.03V424.08z"/>
			<path class="st1" d="M732.12,444.52v40.13h67.37c7.4,0,14.2-6.23,14.19-14.83v-25.29H732.12z M796.81,473.48
				c-0.83,0.78-2.61,1.44-4.64,1.67h-46.52v-5.16h53.37C799.02,469.99,798.43,471.98,796.81,473.48 M798.9,460.02h-53.25v-4.79
				h53.25V460.02z"/>
			<path class="st1" d="M919.64,482.76v-46.58h-4.29v-10.85h1.43c0.68,0,1.25-0.24,1.73-0.73c0.48-0.49,0.98-1.39,1.5-2.71
				l4.29-11.4h-8.16v-10.72h36.43v10.72H936.2l-3.55,9.1h21.12v41.15c0,2.45-0.47,10.35-6.14,15.65
				c-6.77,6.34-13.25,6.37-15.73,6.37H919.64z M942.38,430.34h-11.76v41.7h2.61c1.05,0,4.34-1.26,6.05-2.96
				c3.32-3.3,3.09-6.45,3.09-7.68V430.34z M962.12,446.89h-5.58v-11.22h5.58v-25.24h-5.58v-11.18h43.39v11.18h-3.74v25.24h3.37
				v11.22h-3.37v36.14h-11.71v-36.14h-10.24v17.1c0,1.11-0.1,8.47-6.11,14.29c-5.86,5.68-11.6,5.44-11.6,5.44v-11.04
				c0,0,2.06-1.35,3.29-2.84c2.43-2.91,2.29-5.36,2.29-6.77V446.89z M984.48,410.43h-10.24v25.24h10.24V410.43z"/>
			<path class="st1" d="M1043.06,402.66l-0.08-3.41h16.34l0.06,3.41h31.54v17.1h-12.45v-6.62h-56.21v7.17h-12.22v-17.65H1043.06z
				 M1045.64,416.41l-2.29,7.89c-0.73,2.52-3.56,7.04-7.6,9.58c-2.6,1.63-7.72,3.91-12.28,3.91h-13.29v-10.53h11.43
				c1.9,0,4.54-0.25,6.89-1.84c1.39-0.94,3.51-3.72,3.85-5.04l0.99-3.97H1045.64z M1038.45,442.89h47.86v25.29
				c0,0.34,0.01,0.94,0.03,1.82c0.02,0.87,0.17,1.58,0.48,2.12c0.31,0.54,1.15,0.8,2.54,0.8h3.27v11.04h-7.19
				c-3.82,0-6.48-0.73-7.99-2.19c-1.5-1.45-2.48-3.12-2.93-5.01c-0.44-1.88-0.66-3.46-0.66-4.71v-18.62h-36.44l-1.98,13.98
				c-0.72,4.25-3.22,8.73-7.42,12.26c-2.71,2.28-7.9,4.29-10.88,4.29h-5.58v-11.04h1.53c2.28,0,5.52-1.83,6.13-2.28
				c0.62-0.45,3.6-3.55,3.97-6.03l1.46-11.19h-14.48v-10.53h15.5l0.55-2.89h12.59L1038.45,442.89z M1054.82,416.73h11.95l1.15,4.23
				c0.34,1.29,1.66,3.06,2.95,3.91c1.19,0.78,4.66,2.06,6.57,2.06h14.7v10.53h-15.59c-3.63,0-9.43-1.95-12.5-4.62
				c-3.29-2.87-6.48-7.01-6.95-8.84L1054.82,416.73z"/>
			<path class="st1" d="M1102.93,400.34h30.67v30.81c0,1.5-0.26,3.03-0.78,4.57c-0.52,1.55-1.21,2.55-2.03,3.01l-1.89,1.2
				c1.72,1.38,2.93,2.62,3.64,3.72c0.71,1.11,1.06,2.48,1.06,4.14v12.61c0.09,2.85-1.95,10.37-4.83,13.24
				c-1.9,1.89-5.7,5.39-11.53,6.76l-3.38,0.41v3.58h-10.92V400.34z M1113.85,434.82h5.4c0.92,0,1.66-0.35,2.23-1.06
				c0.57-0.7,0.86-2.1,0.86-4.18v-19.4h-8.49V434.82z M1113.85,444.67v26.34c0,0,2.63,0.13,5.59-2.55c2.24-2.04,2.82-5.9,2.85-7
				l0.05-12.33c0-1.69-0.27-2.85-0.81-3.5c-0.54-0.64-1.25-0.96-2.15-0.96H1113.85z M1135.58,483.65v-9.47c0,0,1.07-0.56,2.9-2.01
				c2.25-1.78,2.99-3.99,3.33-5.27l4.14-16.62l11.95-0.04l-5.31,21.19C1147.5,482.98,1135.58,483.65,1135.58,483.65 M1136.17,418.36
				v-15.95h17.57v-3.58h13.06v3.58h18.81v15.91l-11.3,0.05v-6.25h-26.98v6.25H1136.17z M1136.68,432.25l-0.05-9.84l49.67-0.04v9.88
				H1136.68z M1136.86,438.04h49.76v9.79h-10.24v15.52c0,2.85,2,6.26,3.08,7.4c3.07,3.26,7.57,3.06,7.57,3.06l0.09,10.35
				c0,0-8.05,0.68-15.15-5.4c-4.77-4.09-6.94-11.26-6.94-13.62v-17.3h-28.18V438.04z"/>
		</g>
	</g>
</g>
<g>
	<g>
		<g>
			<path class="st2" d="M798.48,612.96H732.9v22.43h56.37c4.13,0,7.48,3.35,7.48,7.48v0c0,4.13-3.35,7.48-7.48,7.48H732.9v22.43
				h56.37c4.13,0,7.48,3.35,7.48,7.48c0,4.13-3.35,7.48-7.48,7.48H732.9v22.43h65.58c16.52,0,29.91-13.39,29.91-29.91
				c0-7.08-2.46-13.57-6.57-18.7c4.11-5.12,6.57-11.62,6.57-18.7v0C828.39,626.35,815,612.96,798.48,612.96z"/>
			<rect x="1152.87" y="612.96" class="st2" width="33.85" height="97.22"/>
			<polygon class="st2" points="1080.06,612.96 1046.24,612.96 1046.21,612.96 1004.58,710.18 1038.43,710.18 1063.15,652.45 
				1087.87,710.18 1121.73,710.18 1080.1,612.96 			"/>
			<polygon class="st2" points="935.63,612.96 901.81,612.96 901.78,612.96 860.15,710.18 894,710.18 918.72,652.45 943.44,710.18 
				977.29,710.18 935.66,612.96 			"/>
		</g>
	</g>
	<g>
		<polygon class="st2" points="831.49,765.23 823.93,740.88 836.33,740.88 843.85,765.23 		"/>
		<polygon class="st2" points="860.4,825.66 866.29,801.39 877.19,801.39 871.26,825.66 		"/>
		<polygon class="st2" points="892.79,801.39 903.5,801.39 907.75,825.66 896.88,825.66 		"/>
		<polygon class="st2" points="831.06,792.17 822.42,769.65 834.45,769.65 844.22,792.17 		"/>
		<path class="st2" d="M828.7,809.57l2.17-13.34h12.41l-2.79,18.36c-0.34,2.49-2.83,6.67-4.72,8.12c-2.15,1.65-4.85,3.32-9.52,3.32
			h-3.08v-10.6c0,0,1.55-0.5,2.03-0.75C825.73,814.4,828.27,812.66,828.7,809.57"/>
		<path class="st2" d="M907.71,754.9h-16.65l1.88-3.69h14.41v-10.33h-59.39v68.4c-0.15,4.06-3.68,6.29-4.99,6.5h-0.29v10.61h3.48
			c5.18,0,8.37-2.57,9.74-3.79c1.38-1.24,4.13-4.46,4.45-10.01v-61.38h18.49l-1.69,3.69H862.6v42.8h16.17v12.16
			c0.21,4.56-2.63,5.92-2.63,5.92l-0.76,0.37v10.24h1.69c5.03-0.38,9.43-3.56,10.39-4.89c1.16-1.1,3.88-4.95,3.82-9.68l-0.11-14.12
			h2.34c4.6,0.15,8.32-2.18,10.02-3.99c2.01-1.57,4.24-6.21,4.18-9.86V754.9z M873.88,765.6h21.97v5.53h-21.97V765.6z
			 M893.78,785.34c-1.22,1.03-2.39,2.07-4.85,2.03h-15.04v-5.53h21.8C895.69,781.83,895.06,784.25,893.78,785.34"/>
		<path class="st2" d="M730.27,755.12v-9.96h4.88l1.69-3.69h14.1l-0.94,3.32h23.87v10.33h-13.15v3.69h12.78v9.96h-12.6l3.57,2.95
			c0.88,0.83,1.88,1.2,3.01,1.11h6.39v10.33h-10.9c-1.44,0-2.39-0.05-2.87-0.14c-0.56-0.13-1.05-0.39-1.46-0.78l-5.63-5.35
			l-4.51,5.16c-0.75,0.74-2.19,1.11-4.32,1.11h-13.54v-9.96h8.83c0.88,0.06,1.69-0.31,2.44-1.11l3.2-3.32h-14.84v-9.96h15.79v-3.69
			H730.27z"/>
		<path class="st2" d="M776.51,742.2v40.59h24.19c9.19,0,14.52-7.87,14.52-13.82V742.2H776.51z M802.07,765.48
			c-0.08,1.91-0.43,4.37-2.55,5.79c-2.93,1.97-4.63,1.57-4.63,1.57h-4.85v-19.55h12.03V765.48z"/>
		<path class="st2" d="M732.12,785.92v40.13h67.37c7.4,0,14.2-6.23,14.19-14.83v-25.29H732.12z M796.81,814.88
			c-0.83,0.78-2.61,1.44-4.64,1.67h-46.52v-5.16h53.37C799.02,811.39,798.43,813.38,796.81,814.88 M798.9,801.42h-53.25v-4.79h53.25
			V801.42z"/>
		<path class="st2" d="M919.64,824.16v-46.58h-4.29v-10.85h1.43c0.68,0,1.25-0.24,1.73-0.73c0.48-0.49,0.98-1.39,1.5-2.71l4.29-11.4
			h-8.16v-10.72h36.43v10.72H936.2l-3.55,9.1h21.12v41.15c0,2.45-0.47,10.35-6.14,15.65c-6.77,6.34-13.25,6.37-15.73,6.37H919.64z
			 M942.38,771.74h-11.76v41.7h2.61c1.05,0,4.34-1.26,6.05-2.96c3.32-3.3,3.09-6.45,3.09-7.68V771.74z M962.12,788.29h-5.58v-11.22
			h5.58v-25.24h-5.58v-11.18h43.39v11.18h-3.74v25.24h3.37v11.22h-3.37v36.14h-11.71v-36.14h-10.24v17.1c0,1.11-0.1,8.47-6.11,14.29
			c-5.86,5.68-11.6,5.44-11.6,5.44v-11.04c0,0,2.06-1.35,3.29-2.84c2.43-2.91,2.29-5.36,2.29-6.77V788.29z M984.48,751.83h-10.24
			v25.24h10.24V751.83z"/>
		<path class="st2" d="M1043.06,744.06l-0.08-3.41h16.34l0.06,3.41h31.54v17.1h-12.45v-6.62h-56.21v7.17h-12.22v-17.65H1043.06z
			 M1045.64,757.81l-2.29,7.89c-0.73,2.52-3.56,7.03-7.6,9.58c-2.6,1.63-7.72,3.91-12.28,3.91h-13.29v-10.53h11.43
			c1.9,0,4.54-0.25,6.89-1.84c1.39-0.94,3.51-3.72,3.85-5.04l0.99-3.97H1045.64z M1038.45,784.29h47.86v25.29
			c0,0.34,0.01,0.94,0.03,1.82c0.02,0.87,0.17,1.58,0.48,2.12c0.31,0.54,1.15,0.8,2.54,0.8h3.27v11.04h-7.19
			c-3.82,0-6.48-0.73-7.99-2.19c-1.5-1.45-2.48-3.12-2.93-5.01c-0.44-1.88-0.66-3.46-0.66-4.71v-18.62h-36.44l-1.98,13.98
			c-0.72,4.25-3.22,8.73-7.42,12.26c-2.71,2.28-7.9,4.29-10.88,4.29h-5.58v-11.04h1.53c2.28,0,5.52-1.83,6.13-2.28
			c0.62-0.45,3.6-3.55,3.97-6.03l1.46-11.19h-14.48v-10.53h15.5l0.55-2.89h12.59L1038.45,784.29z M1054.82,758.13h11.95l1.15,4.23
			c0.34,1.29,1.66,3.06,2.95,3.91c1.19,0.78,4.66,2.06,6.57,2.06h14.7v10.53h-15.59c-3.63,0-9.43-1.95-12.5-4.62
			c-3.29-2.87-6.48-7.01-6.95-8.84L1054.82,758.13z"/>
		<path class="st2" d="M1102.93,741.74h30.67v30.81c0,1.5-0.26,3.03-0.78,4.57c-0.52,1.55-1.21,2.55-2.03,3.01l-1.89,1.2
			c1.72,1.38,2.93,2.62,3.64,3.72c0.71,1.11,1.06,2.48,1.06,4.14v12.61c0.09,2.85-1.95,10.37-4.83,13.24
			c-1.9,1.89-5.7,5.39-11.53,6.76l-3.38,0.41v3.58h-10.92V741.74z M1113.85,776.22h5.4c0.92,0,1.66-0.35,2.23-1.06
			c0.57-0.7,0.86-2.1,0.86-4.18v-19.4h-8.49V776.22z M1113.85,786.07v26.34c0,0,2.63,0.13,5.59-2.55c2.24-2.04,2.82-5.9,2.85-7
			l0.05-12.33c0-1.69-0.27-2.85-0.81-3.5c-0.54-0.64-1.25-0.96-2.15-0.96H1113.85z M1135.58,825.05v-9.47c0,0,1.07-0.56,2.9-2.01
			c2.25-1.78,2.99-3.99,3.33-5.27l4.14-16.62l11.95-0.04l-5.31,21.19C1147.5,824.38,1135.58,825.05,1135.58,825.05 M1136.17,759.76
			v-15.95h17.57v-3.58h13.06v3.58h18.81v15.91l-11.3,0.05v-6.25h-26.98v6.25H1136.17z M1136.68,773.65l-0.05-9.84l49.67-0.04v9.88
			H1136.68z M1136.86,779.44h49.76v9.79h-10.24v15.52c0,2.85,2,6.26,3.08,7.4c3.07,3.26,7.57,3.06,7.57,3.06l0.09,10.35
			c0,0-8.05,0.68-15.15-5.4c-4.77-4.09-6.94-11.26-6.94-13.62v-17.3h-28.18V779.44z"/>
	</g>
</g>
</svg>
