<?xml version="1.0" encoding="UTF-8" standalone="no"?>
<svg
   xmlns:svg="http://www.w3.org/2000/svg"
   xmlns="http://www.w3.org/2000/svg"
   version="1.1"
   width="730.83978"
   height="347.64621"
   id="svg3374">
  <defs
     id="defs3376" />
  <g
     transform="translate(-51.722958,-338.53908)"
     id="layer1">
    <path
       d="m 460.18225,339.53909 c 0,0 -14.80179,29.5137 -20.33213,43.12552 -8.92901,21.70615 -14.66053,50.72332 -14.66053,50.72332 0,0 -4.53728,-23.77362 -14.98158,-50.5093 -6.25372,-16.1544 -20.76016,-43.23253 -20.76016,-43.23253 l -44.08863,0 c 0,0 15.34113,20.43486 25.57569,43.33954 6.20236,13.88577 14.90451,36.31532 17.87086,52.5425 1.59662,8.74496 5.08518,24.92078 4.7085,41.30633 -0.20546,9.80223 -0.27823,24.19737 -4.17343,41.41333 -2.5854,11.62999 -7.20828,29.27399 -17.65685,52.43549 -10.14895,22.528 -25.46868,43.55356 -25.46868,43.55356 l 44.19564,0.107 c 0,0 12.8071,-22.0229 20.97419,-43.66057 9.57108,-25.27604 14.12548,-48.58308 14.12548,-48.58308 0,0 4.39602,23.48682 14.55353,48.58308 9.0617,22.54941 20.86717,43.76759 20.86717,43.76759 l 44.40965,0 c 0,0 -15.12282,-21.26099 -25.46866,-43.55357 -11.09492,-23.87205 -15.82054,-41.20787 -18.1919,-52.64951 -3.54421,-16.95485 -4.29757,-30.83635 -4.38746,-41.30632 -0.1541,-17.25449 2.7138,-32.43724 4.28045,-41.41334 1.39114,-7.96163 8.13712,-32.09908 17.76385,-52.5425 10.54275,-22.48948 24.61259,-43.44655 24.61259,-43.44655 l -43.76759,0 z m -147.88949,36.16979 c 0,0 29.87325,50.98442 32.95945,59.81926 10.22171,29.29968 7.73478,61.0178 0.32104,82.71966 -4.52444,13.21375 -33.17348,60.78237 -33.17348,60.78237 l 45.15873,0 c 0,0 22.52372,-47.64567 25.6827,-61.42443 6.06111,-26.39752 5.57741,-49.30649 1.07011,-75.22887 -2.85079,-16.40697 -27.39487,-66.66799 -27.39487,-66.66799 l -44.62368,0 z m 181.16998,0 c 0,0 -24.54409,50.26102 -27.39488,66.66799 -4.51159,25.92238 -4.99527,48.83135 1.07011,75.22887 3.15898,13.77876 25.68269,61.31741 25.68269,61.31741 l 45.15874,0 c 0,0 -28.55915,-47.46588 -33.06646,-60.67535 -7.42659,-21.70615 -9.90497,-53.42427 0.32102,-82.71966 3.08621,-8.83913 32.95945,-59.81926 32.95945,-59.81926 l -44.73067,0 z m 32.85243,32.63842 c 0,0 -9.3057,11.17625 -15.3026,27.39486 -5.1451,13.92859 -7.32812,29.08566 -7.49078,41.19932 -0.19263,15.50806 2.37136,29.24402 6.7417,41.30632 6.36931,17.59265 15.73065,28.03694 15.73065,28.03694 l 47.19195,0 c 0,0 -35.88729,-26.63295 -35.52773,-69.45027 0.33388,-38.97776 35.74174,-68.48717 35.74174,-68.48717 l -47.08493,0 z m -249.3361,0.107 c 0,0 35.3993,29.39811 35.74174,68.38015 0.351,42.81733 -35.42071,69.45028 -35.42071,69.45028 l 47.08494,0 c 0,0 9.35277,-10.44429 15.73063,-28.03694 4.37463,-12.0623 7.05847,-25.79826 6.84873,-41.30632 -0.14983,-12.11366 -2.4527,-27.27073 -7.5978,-41.19932 -6.00119,-16.21861 -15.19559,-27.28785 -15.19559,-27.28785 l -47.19194,0 z"
       id="path14"
       style="fill:#fbca8e;fill-opacity:1;fill-rule:nonzero;stroke:none" />
    <path
       d="m 494.1048,443.12594 c 0,0 -1.6865,0.0514 -1.60516,1.07011 0.12841,1.51957 1.21563,0.37668 2.8893,2.67528 1.49815,2.09315 1.49815,5.6716 1.49815,5.6716 l 0.21402,47.40596 c 0,0 0.0985,3.42008 -1.49815,5.7786 -1.34406,2.02466 -2.8251,1.511 -2.99631,2.56828 -0.18406,1.14716 1.28412,1.17712 1.28412,1.17712 0,0 15.9832,0.20974 16.90778,0 0.92457,-0.21402 1.3783,-0.77905 0.9631,-1.60517 -0.40664,-0.8304 -1.91336,-0.107 -3.21034,-2.67528 -1.08295,-2.16591 -1.17712,-5.02952 -1.17712,-5.02952 l -0.107,-21.18823 15.40961,0.107 c 0,0 3.14614,0.27824 4.06644,1.71219 1.0487,1.60089 1.42966,2.36709 2.35423,2.56826 0.99307,0.21403 0.9631,-1.39115 0.9631,-1.39115 l 0.107,-15.08857 c 0,0 -0.004,-1.16856 -1.39113,-0.85609 -0.7448,0.14554 -0.85182,2.39278 -3.10333,3.21034 -1.85344,0.67631 -4.81551,1.28414 -4.81551,1.28414 l -13.69744,-0.107 0,-19.048 14.01848,0.107 c 0,0 3.68118,-0.0814 5.67158,0.64206 2.44843,0.88606 2.34998,3.44576 3.7454,3.63839 1.1172,0.14553 0.9631,-0.9631 0.9631,-0.9631 l 0,-9.524 c 0,0 0.14125,-1.1814 -0.21402,-1.71218 -0.30391,-0.44927 -2.35425,-0.32104 -2.35425,-0.32104 l -34.88565,-0.107 z m -440.565127,2.14023 c 0,0 -0.749078,-0.0599 -0.749078,1.07011 0,0.5479 1.9048,1.32266 2.889302,2.67527 1.643693,2.26009 1.391146,5.99264 1.391146,5.99264 l 0,45.26574 c 0,0 0.115575,2.62391 -0.642067,5.02952 -0.993064,3.21034 -2.598233,2.49978 -3.424359,3.63838 -0.826126,1.13004 0.428045,1.60517 0.428045,1.60517 l 25.682685,0.21403 c 0,0 8.24415,0.33815 14.446512,-4.7085 2.743775,-2.21299 5.996913,-5.94983 6.099638,-13.69744 0.04713,-4.93535 -1.600888,-9.44266 -4.066425,-12.19927 -2.696675,-3.01344 -7.597788,-5.45756 -7.597788,-5.45756 0,0 4.199113,-2.07174 6.634688,-6.42068 1.262737,-2.2772 1.605175,-5.29491 1.284137,-9.30997 -0.693437,-8.86909 -9.494037,-13.01685 -15.088575,-13.3764 -4.7299,-0.27395 -27.287861,-0.32104 -27.287861,-0.32104 z m 588.775647,2.99631 c -0.41521,0.0599 -0.64207,0.9631 -0.64207,0.9631 l 0.42805,52.11446 c 0,0 -0.0727,2.39277 -1.28414,3.95941 -1.01019,1.3141 -1.99469,1.42539 -1.9262,2.35425 0.0214,0.65063 0.53505,0.64207 0.53505,0.64207 l 14.76755,0 c 0,0 0.89034,0.0556 0.74908,-0.9631 -0.14125,-0.96739 -1.93048,-0.009 -3.21034,-2.99632 -0.809,-1.91336 -0.9631,-4.17343 -0.9631,-4.17343 l -0.107,-30.39119 37.2399,40.34322 c 0,0 1.20709,0.62923 1.60517,0.21403 0.40237,-0.4152 0.32103,-1.17713 0.32103,-1.17713 l -0.107,-50.50928 c 0,0 0.14552,-3.06908 0.9631,-4.60148 0.77904,-1.47247 2.46981,-1.32266 2.56826,-2.24724 0.0814,-0.85608 -0.53505,-0.85608 -0.53505,-0.85608 l -15.73065,0 c 0,0 -0.50937,0.0599 -0.53506,0.85608 -0.0514,1.13004 1.85772,0.0171 2.88931,1.60517 0.86465,1.32266 1.49815,3.63838 1.49815,3.63838 l 0.42805,32.63842 -37.77496,-41.0923 c 0,0 -0.44944,-0.42805 -1.17711,-0.32104 z m -33.3875,0.85609 c -0.62495,-0.0385 -1.07011,0.85608 -1.07011,0.85608 l -23.64947,54.68273 c 0,0 -0.83469,1.69506 -1.9262,2.03321 -0.80515,0.24957 -1.29369,0.75089 -1.39115,1.17713 l -2.78229,-2.24723 c 0,0 -12.28918,-17.59692 -14.76755,-21.18822 -0.25255,-0.3724 -0.32104,-0.9631 -0.32104,-0.9631 0,0 4.182,-1.4896 6.42068,-3.42436 3.14185,-2.68812 5.37196,-7.03705 5.45757,-11.12917 0.12413,-5.76576 -1.5324,-8.58657 -3.10332,-11.02215 -3.49285,-5.50893 -12.4133,-6.42067 -12.4133,-6.42067 l -24.71977,-0.107 c 0,0 -1.24561,0.10275 -1.28413,0.9631 -0.0428,1.08295 1.82347,1.04871 2.7823,2.78229 1.06582,1.88768 0.85608,4.81551 0.85608,4.81551 l 0.32104,41.73436 c 0,0 0.0685,2.00325 -0.74909,3.85241 -0.84325,1.84915 -2.56826,1.82775 -2.67527,2.56827 -0.1327,0.95453 0.85609,1.17712 0.85609,1.17712 l 14.76755,0 c 0,0 1.16427,-0.107 1.17712,-0.9631 0.009,-0.97166 -0.59926,-0.38524 -2.03321,-2.03321 -1.43806,-1.64815 -1.605,-4.49464 -1.605,-4.49464 l -0.42805,-41.09231 c 0,0 -0.2611,-0.92885 0.42805,-1.49815 0.91174,-0.74053 7.54642,-0.84753 11.77122,0.21402 3.90805,0.98022 6.20665,5.24783 6.09964,9.30998 -0.0941,4.00221 -2.21299,7.22967 -6.52767,8.6679 -4.3147,1.43395 -8.40253,0.03 -8.88194,0.85609 -0.75335,1.32266 1.71219,4.38746 1.71219,4.38746 l 14.87455,22.47235 c 0,0 2.17447,3.46716 4.7085,4.17344 2.30287,0.63351 11.77122,0 11.77122,0 l -0.64206,-0.53505 c 1.92359,0.2611 13.48341,-0.107 13.48341,-0.107 0,0 0.73624,0.24826 0.53505,-0.9631 -0.2397,-1.48104 -1.84059,-0.43233 -1.71217,-3.21034 0.077,-1.83631 4.49447,-11.23618 4.49447,-11.23618 l 20.97419,0 c 0,0 4.25049,7.98732 4.17344,11.34319 -0.0514,2.39705 -1.7721,2.06318 -1.81919,3.21034 -0.0514,1.07011 1.17712,0.85609 1.17712,0.85609 l 14.23249,0 c 0,0 1.37831,-0.24827 0.53506,-1.60518 -0.31676,-0.56929 -1.69506,0.41093 -4.38746,-5.02952 -1.05299,-2.13167 -23.11442,-51.68642 -23.11442,-51.68642 0,0 -0.83897,-1.12147 -1.60517,-1.17711 z m 113.96693,0.42805 c -3.19201,-0.0171 -6.62879,0.35398 -9.41698,1.39115 -10.63263,3.94656 -14.55352,10.91086 -17.1218,17.12178 -2.5169,6.1082 -3.27026,18.48725 1.39115,27.18085 7.14407,13.30792 18.21759,15.28548 26.00373,15.40962 9.66952,0.14552 16.15869,-2.7823 16.15869,-2.7823 l 1.28413,-8.34688 c 0,0 -0.0556,-2.09314 -0.85608,-2.14021 -1.18142,-0.0599 -1.8192,1.17711 -1.8192,1.17711 0,0 -3.54422,2.79941 -9.41699,3.85241 -5.57741,0.98022 -11.21478,0.58214 -16.37271,-3.31735 -6.5876,-4.991 -8.20562,-12.14363 -8.34688,-18.83397 -0.20117,-9.9606 4.61861,-17.11323 9.95205,-20.22511 6.47204,-3.77537 13.7916,-2.51263 18.40593,-1.39115 4.62716,1.13003 5.47897,3.52281 6.95572,3.53137 1.02303,0.009 1.17713,-1.28414 1.17713,-1.28414 l -0.107,-8.88193 c 0,0 0.0727,-0.93314 -0.74908,-1.0701 -1.2713,-0.21403 -1.26274,0.59926 -2.35425,0.64206 -1.1386,0.0514 -3.14612,-0.5479 -4.06642,-0.85609 -0.57787,-0.19005 -5.38113,-1.14707 -10.70113,-1.17712 z m -565.76823,0.74907 c -0.41521,0.0599 -0.74908,0.9631 -0.74908,0.9631 l 0.53506,52.11447 c 0,0 -0.0727,2.38848 -1.28414,3.95941 -1.01019,1.30553 -1.98612,1.41682 -1.9262,2.35425 0.0257,0.64206 0.53505,0.74907 0.53505,0.74907 l 14.76755,0 c 0,0 0.89461,-0.0427 0.74908,-1.07011 -0.13697,-0.95883 -1.93048,0.0941 -3.21033,-2.8893 -0.80901,-1.91336 -0.9631,-4.28045 -0.9631,-4.28045 l -0.21402,-30.39119 37.34691,40.34323 c 0,0 1.10007,0.62495 1.49815,0.21402 0.40236,-0.4152 0.42805,-1.17712 0.42805,-1.17712 l -0.107,-50.50929 c 0,0 0.0385,-3.06907 0.85609,-4.60147 0.78332,-1.4682 2.46981,-1.32267 2.56826,-2.24724 0.0856,-0.85609 -0.42804,-0.85609 -0.42804,-0.85609 l -15.73065,0 c 0,0 -0.6121,0.16265 -0.64206,0.9631 -0.0514,1.12575 1.96472,-0.0899 2.99631,1.49815 0.86893,1.31838 1.49815,3.63839 1.49815,3.63839 l 0.32104,32.63841 -37.66794,-41.0923 c 0,0 -0.45374,-0.42376 -1.17712,-0.32104 z m 619.80889,0.21403 -31.14026,0.21402 c 0,0 -1.24561,0.458 -0.42804,1.28413 0.82184,0.83041 2.2772,1.16428 2.78229,3.31735 0.51794,2.15735 0.74907,3.95941 0.74907,3.95941 l 0.107,41.09231 c 0,0 -0.077,3.58702 -0.9631,5.13654 -0.82185,1.42539 -2.61963,0.98878 -2.46126,2.03321 0.17123,0.98878 1.39115,1.07012 1.39115,1.07012 l 33.17348,-0.107 c 0,0 0.14125,-0.24399 0.74907,-4.49448 0.5693,-3.91232 1.21138,-7.45226 -0.107,-7.27676 -1.62229,0.20974 -0.70627,1.44251 -2.8893,2.78229 -2.30716,1.4254 -4.60147,1.17712 -4.60147,1.17712 l -11.23619,0.21403 c 0,0 -1.70789,0 -2.67528,-0.85609 -0.65062,-0.5479 -0.64206,-2.8893 -0.64206,-2.8893 l 0,-14.98158 c 0,0 8.95041,-0.12841 11.98525,0.107 2.99631,0.2183 4.11779,0.63352 5.13654,1.60518 0.77904,0.72339 1.53669,2.19159 2.35425,2.14022 0.55217,-0.0471 0.74907,-1.28413 0.74907,-1.28413 l -0.107,-13.59043 c 0,0 -0.13268,-1.16429 -0.9631,-0.85609 -0.82185,0.31248 -1.7507,1.7507 -2.46125,2.56827 -0.94598,1.08723 -3.10332,1.39115 -3.10332,1.39115 l -13.69744,0.32103 c 0,0 -0.27824,-12.06231 -0.21402,-15.62363 0.0214,-0.65919 1.07011,-0.85609 1.07011,-0.85609 l 12.19927,0.107 c 0,0 3.62983,-0.14125 4.49448,0.64207 1.18569,1.05728 2.05034,3.0862 3.42435,3.10333 0.90746,0.0129 0.8561,-1.49816 0.8561,-1.49816 l -0.107,-8.34688 c 0,0 0.0343,-1.10007 -0.53506,-1.39114 -0.58214,-0.29535 -2.8893,-0.21402 -2.8893,-0.21402 z M 123.525,450.93777 c -0.62494,-0.0427 -1.07012,0.9631 -1.07012,0.9631 l -23.649471,54.68272 c 0,0 -0.945975,1.69505 -2.033212,2.03321 -1.463913,0.44944 -1.98185,1.618 -0.642063,1.9262 1.339775,0.30819 13.804436,-0.107 13.804436,-0.107 0,0 0.74053,0.24827 0.53506,-0.9631 -0.2397,-1.48103 -1.7293,-0.43661 -1.60517,-3.21033 0.077,-1.8406 4.49447,-11.12917 4.49447,-11.12917 l 20.9742,-0.107 c 0,0 4.14348,8.0986 4.06643,11.4502 -0.0514,2.39277 -1.77211,1.95617 -1.81919,3.10333 -0.0471,1.07011 1.17711,0.9631 1.17711,0.9631 l 14.2325,-0.107 c 0,0 1.38258,-0.24399 0.53505,-1.60517 -0.32103,-0.5693 -1.58376,0.40664 -4.28045,-5.02953 -1.0487,-2.13594 -23.22142,-51.68641 -23.22142,-51.68641 0,0 -0.74053,-1.12148 -1.49816,-1.17711 z m 114.28797,0.32102 c -5.55547,0.0715 -11.1656,1.29056 -15.1956,3.7454 -6.71602,4.05786 -14.13403,11.89108 -14.12547,25.7897 0.009,18.24755 11.844,26.80844 18.08489,28.89303 9.16016,3.08191 16.37272,1.71217 16.37272,1.71217 0,0 11.65138,6.71174 13.59041,7.49079 1.97329,0.80472 5.17507,2.89357 7.38378,2.78229 3.1761,-0.1327 7.81182,-5.13654 7.81182,-5.13654 0,0 0.81757,-1.11291 0.32103,-1.60516 -0.48369,-0.47085 -0.89889,-0.0685 -2.46125,0.21401 -2.28149,0.41521 -7.5764,-2.62391 -9.30998,-3.42435 -1.73786,-0.80045 -6.6347,-3.63839 -6.6347,-3.63839 0,0 6.1296,-3.55705 10.16607,-9.95204 2.8679,-4.5544 4.09638,-11.15485 4.17343,-16.58673 0.20119,-13.83869 -7.64487,-23.45258 -15.40961,-27.39488 -3.74539,-1.90265 -9.21207,-2.961 -14.76754,-2.8893 z m 226.75674,0.42805 -31.14026,0.32103 c 0,0 -1.24561,0.351 -0.42805,1.17712 0.82185,0.83041 2.26864,0.73197 2.7823,2.88931 0.50937,2.15307 0.74907,3.95942 0.74907,3.95942 l 0.107,41.0923 c 0,0 -0.0814,3.69402 -0.9631,5.24355 -0.81756,1.42538 -2.62391,0.88605 -2.46126,1.9262 0.1755,0.99733 1.39115,1.17712 1.39115,1.17712 l 32.85244,-0.21402 c 0,0 0.12841,-0.24827 0.74907,-4.49448 0.57359,-3.91232 1.21565,-7.45225 -0.107,-7.27676 -1.63085,0.21402 -0.69771,1.44251 -2.8893,2.7823 -2.2986,1.42539 -4.28045,1.28412 -4.28045,1.28412 l -11.23617,0.21403 c 0,0 -1.70361,-0.0985 -2.67528,-0.9631 -0.64635,-0.5479 -0.64207,-2.8893 -0.64207,-2.8893 l 0,-14.98156 c 0,0 8.95042,-0.12843 11.98526,0.107 2.98775,0.22258 4.11351,0.62922 5.13654,1.60517 0.77476,0.71911 1.21992,2.19159 2.03321,2.14023 0.56501,-0.0471 0.74908,-1.28414 0.74908,-1.28414 l 0,-13.59043 c 0,0 -0.13698,-1.16 -0.9631,-0.85608 -0.83042,0.30818 -1.53668,1.74642 -2.24724,2.56827 -0.94598,1.08723 -3.10333,1.39114 -3.10333,1.39114 l -13.69743,0.32104 c 0,0 -0.29107,-11.52725 -0.21402,-15.08858 0.0129,-0.65491 1.07012,-0.8561 1.07012,-0.8561 l 12.30628,0 c 0,0 3.52709,-0.0343 4.38745,0.74909 1.19425,1.06155 1.72075,2.97919 3.10333,2.99631 0.8989,0.0129 0.8561,-1.39115 0.8561,-1.39115 l -0.107,-8.45389 c 0,0 0.0342,-0.99306 -0.53506,-1.28413 -0.57358,-0.29535 -2.56827,-0.32103 -2.56827,-0.32103 z m -71.69751,0.107 c -5.27406,0.0129 -9.97773,0.13269 -10.38009,0.42804 -0.68486,0.50081 -0.61637,0.88177 -0.107,1.60517 0.51366,0.71912 1.1172,-0.53933 2.35425,1.9262 1.22849,2.46554 1.17713,4.70849 1.17713,4.70849 l 0.42805,39.1661 c 0,0 0.15837,5.50894 -1.17713,6.74171 -1.33979,1.23277 -2.57684,1.51957 -2.56827,2.24724 0.0171,1.17711 1.60517,1.07011 1.60517,1.07011 l 24.18453,-0.32103 c 0,0 7.12695,-0.92458 11.55721,-3.74539 4.21196,-2.671 7.87602,-5.8257 9.524,-9.41699 4.34037,-9.42984 3.29594,-16.00887 2.67527,-21.08121 -1.15143,-9.57536 -6.49771,-14.70761 -9.41698,-17.2288 -3.8096,-3.31308 -11.89964,-5.59455 -16.37272,-5.88563 -2.36066,-0.14552 -8.20933,-0.22686 -13.48341,-0.21401 z m -39.27311,0.42804 -31.24727,0.21402 c 0,0 -1.24561,0.45373 -0.42805,1.28414 0.82185,0.82613 2.27292,0.73195 2.78229,2.8893 0.50938,2.15735 0.74909,3.95941 0.74909,3.95941 l 0.21401,41.0923 c 0,0 -0.18405,3.58274 -1.07011,5.13654 -0.82184,1.4254 -2.62819,0.99308 -2.46125,2.03322 0.1755,0.99735 1.39114,1.07011 1.39114,1.07011 l 32.85245,-0.107 c 0,0 0.14125,-0.24826 0.74907,-4.49447 0.5693,-3.90805 1.21136,-7.44798 -0.107,-7.27676 -1.63085,0.21403 -0.71055,1.44679 -2.8893,2.78229 -2.31145,1.42967 -4.17344,1.17712 -4.17344,1.17712 l -11.23617,0.21403 c 0,0 -1.81491,0.004 -2.7823,-0.85609 -0.6549,-0.5479 -0.53505,-2.88931 -0.53505,-2.88931 l -0.107,-14.98156 c 0,0 8.95041,-0.11988 11.98525,0.107 2.98776,0.22259 4.21625,0.63778 5.24355,1.60516 0.77049,0.7234 1.10864,2.19159 1.9262,2.14022 0.56075,-0.0471 0.8561,-1.28412 0.8561,-1.28412 l -0.107,-13.59043 c 0,0 -0.1327,-1.16 -0.9631,-0.85608 -0.82613,0.30818 -1.52813,1.7507 -2.24724,2.56826 -0.93742,1.08724 -3.10332,1.39115 -3.10332,1.39115 l -13.69744,0.32102 c 0,0 -0.28679,-11.52723 -0.21403,-15.08857 0.009,-0.65491 1.07012,-0.85609 1.07012,-0.85609 l 12.30628,0 c 0,0 3.51854,-0.13697 4.38747,0.64206 1.18568,1.06156 1.72502,3.0862 3.10332,3.10333 0.90318,0.0129 0.85609,-1.39114 0.85609,-1.39114 l -0.107,-8.45388 c 0,0 0.0342,-1.10008 -0.53505,-1.39115 -0.57855,-0.29493 -2.46194,-0.21359 -2.46194,-0.21359 z m -50.08124,0.21402 c -0.21959,0.0385 -0.55646,0.14554 -0.74908,0.53507 -0.29963,0.61637 0.19262,1.31837 1.81919,2.03321 1.27558,0.53505 1.71218,4.06642 1.71218,4.06642 0,0 0.73196,26.36328 0.32103,31.99635 -0.23542,3.18893 -0.60355,5.37624 -1.60517,7.06274 -0.82184,1.30981 -3.28738,5.38053 -10.80813,5.45758 -5.35483,0.0342 -8.63366,-1.80635 -10.91515,-5.56459 -1.81062,-2.99631 -1.71217,-6.6347 -1.71217,-6.6347 l -0.32104,-29.85613 c 0,0 0.26539,-4.76413 1.39115,-5.88561 1.12576,-1.13003 2.18303,-1.2927 2.14023,-2.24724 -0.0257,-0.64206 -0.64207,-0.53505 -0.64207,-0.53505 l -15.73065,0.107 c 0,0 -0.7662,0.0427 -0.64207,0.85609 0.16266,1.05299 1.93049,0.92029 2.67529,2.35424 0.96737,1.89625 1.17712,5.45757 1.17712,5.45757 l 0.53505,31.99635 c 0,0 0.0643,6.43352 4.49448,10.80814 6.63897,6.51056 12.30628,7.06274 18.40592,7.06274 6.3479,0.0129 13.66319,-2.44414 17.87088,-8.66791 3.55276,-5.2307 3.10332,-11.23618 3.10332,-11.23618 l 0,-31.03325 c 0,0 0.24399,-2.8465 1.07011,-4.60147 0.8304,-1.75072 2.1659,-1.40399 2.46125,-2.46127 0.23972,-0.79188 -0.53505,-1.07011 -0.53505,-1.07011 l -15.19558,0 c 0,0 -0.10188,-0.0385 -0.32104,0 z m -229.646053,0.53507 c 3.41845,0.0664 7.360187,0.68915 9.309975,2.8893 4.224812,4.75985 2.512625,11.57861 -2.140225,14.01846 -5.401925,2.83366 -13.483406,1.81919 -13.483406,1.81919 l 0,-18.29892 c 0,0 2.895168,-0.49438 6.313656,-0.42803 z m 163.513123,6.09963 c 13.48342,0 19.18497,8.47529 20.54615,18.29892 1.7721,12.86702 -4.59292,25.84962 -18.29891,26.43176 -7.43514,0.31247 -13.76165,-2.91926 -17.54984,-8.6679 -5.21787,-7.90171 -5.04665,-22.33539 2.03322,-29.96314 3.40295,-3.66835 5.59453,-5.35912 13.26938,-6.09964 z m 164.47623,0.42804 c 4.47306,0 9.46406,0.6806 13.16237,3.53138 1.46392,1.1386 7.70909,5.4276 7.91883,16.58673 0.23542,13.004 -4.62289,18.08062 -10.16606,20.54615 -6.27087,2.77373 -13.09389,2.3628 -15.08858,1.28414 -2.00754,-1.08296 -1.92621,-2.24724 -1.92621,-2.24724 l -0.42804,-38.73806 c 0,0 2.06318,-0.9631 6.52769,-0.9631 z m 207.60172,6.74171 7.5978,19.47604 -15.51662,0 7.91882,-19.47604 z m -485.50982,1.9262 7.59778,19.47604 -15.40961,-0.107 7.81183,-19.36902 z m -53.826641,11.87824 c 2.4741,-0.107 6.587613,0.03 8.667913,0.42805 5.671587,1.13004 7.850337,3.17181 9.523987,6.95573 1.16,2.60251 1.078675,8.78776 -1.712175,11.77123 -4.7299,5.05949 -15.602237,3.94229 -17.442825,2.99632 -1.476755,-0.74053 -1.71218,-2.35425 -1.71218,-2.35425 l 0,-19.04799 c 0,0 0.0085,-0.64208 2.67528,-0.74909 z M 516.89819,633.49888 c -0.78333,0.1155 -1.46819,0.6121 -2.03322,1.39114 -0.2183,0.29963 -0.32103,0.57786 -0.32103,0.9631 -0.0129,0.26111 0.0129,0.56073 0.107,0.8561 0.23542,0.69342 0.78332,1.30125 1.49816,1.81918 l 0.64206,0.42804 8.5609,4.38746 c 0.12413,0.0856 0.24399,0.12413 0.32104,0.10701 0.0899,-0.0129 0.22686,-0.0643 0.32102,-0.21403 l 0.74909,-1.07011 c 0.0985,-0.13269 0.21401,-0.24399 0.21401,-0.32103 -0.0214,-0.0856 -0.10275,-0.20546 -0.21401,-0.32103 l -7.0624,-6.95591 -0.42805,-0.42805 c -0.80044,-0.57786 -1.58376,-0.76191 -2.35425,-0.64206 z m -162.76404,11.5572 c -5.45758,0 -10.14039,2.11026 -13.91146,6.20665 -3.77964,4.08784 -5.67159,9.07027 -5.67159,14.98157 0,5.32488 1.89195,9.82363 5.67159,13.48342 3.77107,3.67262 8.45388,5.45757 13.91146,5.45757 5.48325,0 10.13181,-2.02037 13.91145,-6.09965 3.77107,-4.07926 5.56459,-9.0617 5.56459,-14.98156 0,-5.342 -1.79352,-9.80651 -5.56459,-13.48341 -3.77964,-3.67263 -8.4282,-5.56459 -13.91145,-5.56459 z m 38.52402,0.53506 c -3.72826,0 -6.94716,1.04871 -9.52398,3.10333 -2.56828,2.05033 -3.7454,4.49018 -3.7454,7.49078 0,2.82509 0.83468,5.20503 2.67528,7.16975 1.87484,1.96473 4.95675,3.72399 9.09595,5.24355 2.54687,0.93742 4.36178,2.02465 5.56459,3.10333 1.2028,1.08295 1.81919,2.27719 1.81919,3.63837 0,2.05462 -1.02303,3.28311 -2.46126,4.38747 -1.43823,1.09578 -3.45004,1.60516 -6.09964,1.60516 -1.88768,0 -3.73683,-0.62922 -5.35056,-2.03321 -1.51528,-1.30554 -2.27292,-2.6496 -2.99632,-4.70849 -0.0599,-0.14126 -0.0985,-0.26111 -0.21402,-0.32104 -0.12413,-0.077 -0.30391,-0.13268 -0.42804,-0.107 l -0.42805,0.32104 c -0.12841,0.0129 -0.36811,0.43233 -0.42804,0.64206 -0.0814,0.26111 -0.23115,0.62495 -0.21402,0.74909 l 0.107,5.45756 c 0.0385,0.26968 0.0985,0.46658 0.21401,0.64208 0.11988,0.1755 0.30391,0.32102 0.53506,0.42803 1.32267,0.62923 2.59395,1.09152 3.74539,1.39115 1.39971,0.34244 3.12901,0.53505 5.02953,0.53505 4.50303,0 8.06865,-1.0059 10.70112,-3.10332 2.64531,-2.08885 3.95941,-4.991 3.95941,-8.56089 0,-2.6924 -0.84752,-4.93107 -2.46125,-6.74171 -1.6223,-1.78923 -4.19912,-3.37299 -7.81182,-4.70849 -3.0862,-1.0958 -5.40193,-2.18731 -6.84871,-3.42436 -1.43824,-1.24561 -1.81919,-2.12739 -1.81919,-3.63838 0,-1.72502 0.51792,-3.01343 1.71217,-3.95942 1.20709,-0.94598 2.92783,-1.39114 5.13654,-1.39114 2.27291,0 3.88665,0.0514 5.35056,1.39114 1.3355,1.24561 2.17019,2.98776 2.56827,5.13654 0.0342,0.14982 0.107,0.23971 0.21402,0.32103 0.0941,0.0856 0.20546,0.12413 0.32104,0.107 l 0.74907,-0.107 c 0.1327,-0.009 0.34244,-0.22258 0.42805,-0.32103 0.22687,-0.20974 0.2397,-0.4152 0.32103,-0.74908 l -0.107,-5.67159 c -0.0256,-0.38525 -0.14553,-0.702 -0.32103,-0.9631 -0.19262,-0.24827 -0.48797,-0.47513 -0.85608,-0.64207 -1.16857,-0.57786 -2.2558,-1.03159 -3.31735,-1.28414 -1.38259,-0.33387 -2.94924,-0.42804 -4.81552,-0.42804 z m 66.775,0 c -3.72827,0 -6.95573,1.04871 -9.524,3.10333 -2.56398,2.06745 -3.8524,4.61432 -3.8524,7.5978 0,2.83365 0.94598,5.20502 2.78229,7.16975 1.862,1.96472 4.84975,3.72398 8.98894,5.24353 2.54687,0.93743 4.46451,1.91765 5.6716,2.99633 1.20709,1.08722 1.81919,2.25579 1.81919,3.63837 0,2.03751 -1.01447,3.29167 -2.46127,4.38747 -1.43395,1.10435 -3.57417,1.71217 -6.20665,1.71217 -1.88338,0 -3.62125,-0.72767 -5.24353,-2.14022 -1.50244,-1.3141 -2.26864,-2.63248 -2.99633,-4.70849 -0.0599,-0.14126 -0.0899,-0.25255 -0.21401,-0.32104 -0.11988,-0.077 -0.2868,-0.12412 -0.42805,-0.107 l -0.42805,0.32104 c -0.13269,0.0171 -0.458,0.42376 -0.53505,0.64206 -0.0728,0.25255 -0.12413,0.62066 -0.107,0.74909 l 0.107,5.45756 c 0.0385,0.27824 0.0941,0.46658 0.21402,0.64208 0.11563,0.1755 0.30819,0.32958 0.53505,0.42803 1.32267,0.65063 2.6068,1.09152 3.7454,1.39115 1.41254,0.34244 3.01343,0.53505 4.92252,0.53505 4.49875,0 8.15853,-1.0059 10.80812,-3.10332 2.64104,-2.08885 3.95943,-4.991 3.95943,-8.56089 0,-2.6924 -0.83898,-4.82835 -2.46127,-6.6347 -1.62228,-1.79779 -4.2034,-3.39011 -7.81182,-4.70849 -3.0862,-1.11292 -5.41904,-2.29432 -6.84871,-3.53137 -1.43823,-1.25418 -1.81919,-2.1231 -1.81919,-3.63838 0,-1.71218 0.51365,-3.00487 1.71217,-3.95942 1.20709,-0.93741 2.92355,-1.39114 5.13654,-1.39114 2.2772,0 3.89093,0.0342 5.35056,1.39114 1.34407,1.23705 2.14879,2.9792 2.56828,5.13654 0.0256,0.14126 0.11125,0.23971 0.21401,0.32103 0.0985,0.0856 0.20119,0.11988 0.32104,0.107 l 0.74907,-0.107 c 0.12842,-0.004 0.33817,-0.22258 0.42805,-0.32103 0.21403,-0.20974 0.23114,-0.42377 0.32104,-0.74908 l -0.107,-5.67159 c -0.0171,-0.36812 -0.14126,-0.71056 -0.32104,-0.9631 -0.18833,-0.25683 -0.49653,-0.46657 -0.85608,-0.64207 -1.17285,-0.56074 -2.26008,-0.91174 -3.31735,-1.17713 -1.38259,-0.33387 -2.96208,-0.53505 -4.8155,-0.53505 z m 81.43553,0 c 0,0 -0.68915,0.2183 -0.21403,0.74908 0.47942,0.53077 1.29698,0.53077 1.60517,1.9262 0.30391,1.38258 0.53506,2.56827 0.53506,2.56827 l 0,1.9262 0,0.107 0.107,26.43176 c 0,0 -0.0214,1.56665 -0.74908,2.56828 -0.59071,0.8518 -1.11292,0.89032 -1.07011,1.49815 0.009,0.41521 0.21401,0.42805 0.21401,0.42805 l 8.77493,0 c 0,0 0.62066,0.0129 0.53505,-0.64208 -0.0899,-0.6335 -1.16856,0.004 -1.9262,-1.9262 -0.47085,-1.2242 -0.64206,-2.67527 -0.64206,-2.67527 l -0.107,-19.58288 10.70112,21.50925 c 0,0 0.19946,0.27952 0.42804,0.53505 0.0989,0.11038 0.16009,0.22388 0.32104,0.32104 0.0612,0.0436 0.14681,0.0727 0.21402,0.107 0.20118,0.0839 0.46079,0.0976 0.74908,0.107 0.11812,0.004 0.18705,0.0129 0.32103,0 0.23372,-0.004 0.44397,-0.0886 0.64207,-0.21402 0.8325,-0.35913 1.07011,-1.07012 1.07011,-1.07012 l 10.80814,-21.50925 -0.21403,19.79708 c 0,0 -0.0471,1.45106 -0.53506,2.67527 -0.7448,1.93049 -1.84915,1.2927 -1.9262,1.9262 -0.0856,0.65492 0.42805,0.64208 0.42805,0.64208 l 8.77491,0 c 0,0 0.31248,-0.0129 0.32104,-0.42805 0.0256,-0.60783 -0.57359,-0.64635 -1.17713,-1.49816 -0.71483,-1.00163 -0.74907,-2.56827 -0.74907,-2.56827 l 0.21445,-28.89251 c 0.0385,-0.30049 0.16822,-0.97927 0.42804,-2.14022 0.29535,-1.39115 1.1386,-1.28842 1.60517,-1.81919 0.50081,-0.53078 -0.21402,-0.85609 -0.21402,-0.85609 l -3.63838,0 c -0.0689,-0.009 -0.14382,1.3e-4 -0.21402,0 -0.10525,-2.1e-4 -0.21445,-0.0171 -0.32104,0 -1.06724,0.16265 -2.14023,1.07011 -2.14023,1.07011 L 560.88022,672.45164 547.93186,647.304 c -0.53095,-0.4283 -1.98861,-1.68131 -3.21034,-1.71217 l -0.21401,0 -3.63839,0 z m -128.41345,0.32104 c -2.19643,0.03 -4.48805,0.14767 -4.92251,0.21401 -0.86465,0.1327 -0.51794,0.56503 0.42805,0.74909 0.71055,0.14981 1.28412,0.9631 1.28412,0.9631 l 13.05538,18.83396 0.107,12.52031 c 0,0 -0.009,1.28414 -0.53507,2.46127 -0.55217,1.21565 -1.64797,1.22848 -1.71217,1.71217 -0.0941,0.61639 0.53505,0.74909 0.53505,0.74909 l 9.524,0 c 0,0 0.74907,-0.0814 0.74907,-0.64208 0.0171,-0.6335 -0.34243,-0.22257 -1.28412,-1.28413 -0.92886,-1.07867 -0.9631,-2.99632 -0.9631,-2.99632 l -0.21403,-12.19927 c 3.0255,-4.23739 12.25797,-17.1854 12.84134,-17.97788 1.74643,-2.35853 2.58111,-1.9947 2.7823,-2.24723 0.55218,-0.57787 -0.32104,-0.64208 -0.32104,-0.64208 l -9.95203,0 c 0,0 -0.78333,-0.14125 -0.74909,0.32104 0.0257,0.50081 1.16,0.35527 1.17712,1.39115 0.0556,1.44679 -8.5609,14.12547 -8.5609,14.12547 0,0 -9.68665,-13.43205 -9.73801,-14.23248 -0.077,-1.20282 0.91174,-0.7662 1.07011,-1.39115 0.12413,-0.51794 -0.32103,-0.42804 -0.32103,-0.42804 0,0 -2.08403,-0.03 -4.28045,0 z m -161.26588,0.107 -20.22512,0.107 c 0,0 -0.86036,0.32104 -0.32104,0.8561 0.5265,0.54361 1.49389,0.73195 1.8192,2.14021 0.33815,1.40399 0.53505,2.56828 0.53505,2.56828 l 0.107,26.7528 c 0,0 -0.17121,2.31143 -0.74907,3.31735 -0.53507,0.93314 -1.7079,0.7234 -1.60518,1.39113 0.11563,0.65492 0.9631,0.64208 0.9631,0.64208 l 21.50926,-0.107 c 0,0 0.14553,-0.11987 0.53505,-2.8893 0.37668,-2.54259 0.7448,-4.81979 -0.107,-4.7085 -1.05726,0.1327 -0.40663,0.94599 -1.81918,1.8192 -1.49817,0.91173 -2.99632,0.74908 -2.99632,0.74908 l -7.27676,0.107 c 0,0 -1.18569,0.0171 -1.81919,-0.53507 -0.41948,-0.36811 -0.32103,-1.81918 -0.32103,-1.81918 l -0.10738,-9.7375 c 0,0 5.84709,-0.15411 7.81181,0 1.93477,0.14981 2.76089,0.43232 3.42437,1.07011 0.50508,0.47512 0.86037,1.43395 1.39115,1.39114 0.36811,-0.0256 0.53505,-0.85609 0.53505,-0.85609 l 0,-8.88193 c 0,0 -0.107,-0.62922 -0.64207,-0.42805 -0.53506,0.19263 -1.15145,1.07011 -1.60517,1.60517 -0.61639,0.702 -2.03321,0.96311 -2.03321,0.96311 l -8.88193,0.107 c 0,0 -0.26111,-7.74333 -0.21402,-10.05905 0.0129,-0.4152 0.74907,-0.53505 0.74907,-0.53505 l 7.91884,0 c 0,0 2.33284,-0.0727 2.8893,0.42803 0.77476,0.69344 1.34834,2.00754 2.24724,2.03322 0.59497,0 0.53505,-0.9631 0.53505,-0.9631 l -0.107,-5.45757 c 0,0 0.0514,-0.77048 -0.32103,-0.96311 -0.3724,-0.18834 -1.8192,-0.107 -1.8192,-0.107 z m 31.78233,0 c -0.14254,0.0258 -0.30391,0.17765 -0.42805,0.42805 -0.20118,0.41092 0.11987,0.82185 1.17712,1.28414 0.82185,0.351 1.07012,2.67527 1.07012,2.67527 0,0 0.47941,17.10895 0.21402,20.76018 -0.15837,2.07601 -0.42805,3.39011 -1.07011,4.49447 -0.54363,0.8518 -2.06746,3.56989 -6.95573,3.63838 -3.47145,0.0171 -5.57742,-1.18997 -7.06275,-3.63838 -1.17711,-1.93905 -1.17711,-4.28045 -1.17711,-4.28045 l -0.107,-19.47604 c 0,0 0.11988,-3.03483 0.85609,-3.7454 0.73195,-0.74907 1.40826,-0.87321 1.39114,-1.49815 -0.0171,-0.41948 -0.42804,-0.32103 -0.42804,-0.32103 l -10.16606,0 c 0,0 -0.62495,0.009 -0.53507,0.53506 0.10275,0.68059 1.3355,0.66346 1.81919,1.60516 0.62924,1.22849 0.74909,3.53138 0.74909,3.53138 l 0.32102,20.76017 c 0,0 0.0129,4.22908 2.88932,7.06274 4.31041,4.22907 8.03011,4.60147 11.98525,4.60147 4.12635,0.009 8.822,-1.62656 11.55721,-5.67158 2.31572,-3.3944 2.03321,-7.27677 2.03321,-7.27677 l 0.107,-20.11811 c 0,0 0.107,-1.96472 0.64206,-3.10332 0.54362,-1.14288 1.39972,-0.81329 1.60518,-1.49815 0.14981,-0.50938 -0.32104,-0.74909 -0.32104,-0.74909 l -9.84504,0 c 0,0 -0.17891,-0.0256 -0.32102,0 z m 193.79729,0 c -0.36555,0.0129 -0.77263,0.0171 -0.9631,0.107 -0.3724,0.19262 -0.32104,0.8561 -0.32104,0.8561 l -0.107,5.56457 c 0,0 -0.0343,0.86465 0.53506,0.85609 0.89461,-0.0256 1.25845,-1.23276 2.03321,-1.9262 0.56502,-0.50081 2.8893,-0.42803 2.8893,-0.42803 l 4.92252,-0.10701 0.21402,28.14394 c 0,0 0.0129,1.26702 -0.53505,2.46127 -0.53506,1.19425 -1.6437,1.22848 -1.71219,1.71217 -0.077,0.62922 0.53507,0.74909 0.53507,0.74909 l 9.631,0 c 0,0 0.74908,-0.0814 0.74908,-0.64208 0.0129,-0.63778 -0.35528,-0.21402 -1.28413,-1.28412 -0.93777,-1.06122 -1.07045,-2.99598 -1.07045,-2.99598 l 0,-28.14395 4.70848,0 c 0,0 2.32,-0.0727 2.8893,0.42805 0.76193,0.69343 1.02732,2.00753 1.9262,2.03322 0.57787,0.009 0.64208,-0.96311 0.64208,-0.96311 l -0.107,-5.45757 c 0,0 0.0556,-0.67203 -0.32104,-0.85609 -0.3724,-0.19262 -1.60516,-0.107 -1.60516,-0.107 l -11.02216,0.107 -11.98525,-0.107 c 0,0 -0.27652,-0.0129 -0.64207,0 z m -175.7124,0.107 c 0,0 -0.8304,-0.0129 -0.85609,0.53506 -0.03,0.71055 1.19425,0.80473 1.81919,1.9262 0.68915,1.22849 0.64207,3.10333 0.64207,3.10333 l 0.21401,27.07383 c 0,0 0.004,1.3569 -0.53505,2.56827 -0.53506,1.20708 -1.63941,1.12147 -1.71217,1.60517 -0.0856,0.62066 0.53505,0.74908 0.53505,0.74908 l 9.524,0 c 0,0 0.74907,0.0171 0.74907,-0.53507 0,-0.61637 -0.34671,-0.31246 -1.28413,-1.39113 -0.92458,-1.07012 -0.9631,-2.8893 -0.9631,-2.8893 l -0.32103,-26.6458 c 0,0 -0.12412,-0.71055 0.32103,-1.0701 0.59926,-0.49227 4.85831,-0.58215 7.5978,0.107 2.54258,0.63351 4.0279,3.46288 3.95941,6.09963 -0.0599,2.6068 -1.47248,4.62718 -4.28045,5.56459 -2.79941,0.92886 -5.3634,0.107 -5.67159,0.64206 -0.49225,0.85182 1.07011,2.7823 1.07011,2.7823 l 9.631,14.66054 c 0,0 1.45537,2.21299 3.10333,2.67528 1.48532,0.42376 7.5978,0 7.5978,0 l -2.8893,-2.35425 c 0,0 -8.01729,-11.46304 -9.63101,-13.80444 -0.15838,-0.23971 -0.21403,-0.53506 -0.21403,-0.53506 0,0 2.81654,-0.9845 4.28045,-2.24724 2.02894,-1.7293 3.373,-4.6186 3.42436,-7.27676 0.0814,-3.76252 -0.90745,-5.48325 -1.9262,-7.06274 -2.27292,-3.58701 -8.13285,-4.28045 -8.13285,-4.28045 l -16.05168,0 z m 227.93386,0 -20.22511,0.21402 c 0,0 -0.85609,0.21403 -0.32104,0.74908 0.53506,0.54362 1.49387,0.51366 1.81919,1.92621 0.33816,1.39543 0.53506,2.56826 0.53506,2.56826 l 0.107,26.64579 c 0,0 -0.1755,2.41846 -0.74908,3.42436 -0.53077,0.9417 -1.60945,0.61639 -1.49816,1.28414 0.11988,0.6549 0.85609,0.74908 0.85609,0.74908 l 21.40224,-0.21403 c 0,0 0.0256,-0.11125 0.42805,-2.8893 0.36812,-2.53402 0.86893,-4.81979 0,-4.70849 -1.04443,0.14125 -0.50082,0.94169 -1.9262,1.81919 -1.49388,0.91601 -2.78229,0.74908 -2.78229,0.74908 l -7.27676,0.21402 c 0,0 -1.08297,-0.0899 -1.71219,-0.64207 -0.41948,-0.35955 -0.42804,-1.81919 -0.42804,-1.81919 l -0.107,-9.7375 c 0,0 5.83425,-0.14981 7.81181,0 1.93477,0.14981 2.75234,0.43232 3.42437,1.07011 0.50081,0.46656 0.76192,1.42539 1.28413,1.39114 0.3724,-0.0342 0.53505,-0.85609 0.53505,-0.85609 l -0.107,-8.77491 c 0,0 -0.107,-0.7448 -0.64206,-0.53506 -0.53506,0.19262 -0.92457,1.07011 -1.39115,1.60517 -0.60354,0.70199 -2.03321,0.9631 -2.03321,0.9631 l -8.88228,0.21403 c 0,0 -0.16265,-7.52932 -0.107,-9.84504 0.0171,-0.41949 0.64207,-0.53505 0.64207,-0.53505 l 8.02583,0 c 0,0 2.22155,-0.0727 2.78229,0.42804 0.77049,0.69343 1.12576,1.99897 2.03321,2.03321 0.58643,0 0.53507,-0.9631 0.53507,-0.9631 l 0,-5.45758 c 0,0 0.0514,-0.66346 -0.32104,-0.85608 -0.3724,-0.19262 -1.71218,-0.21403 -1.71218,-0.21403 z m 79.83036,0 -20.22511,0.21402 c 0,0 -0.8561,0.1969 -0.32104,0.74908 0.52221,0.5265 1.4896,0.52222 1.81919,1.92621 0.3296,1.40827 0.53506,2.56826 0.53506,2.56826 l 0.107,26.64579 c 0,0 -0.1755,2.41846 -0.74909,3.42436 -0.5479,0.92458 -1.71217,0.60783 -1.60516,1.28414 0.12413,0.6549 0.9631,0.74908 0.9631,0.74908 l 21.29523,-0.107 c 0,0 0.12841,-0.12842 0.53506,-2.8893 0.36811,-2.54259 0.76191,-4.93537 -0.107,-4.8155 -1.05299,0.12412 -0.39809,0.95453 -1.81919,1.81919 -1.49389,0.92457 -2.7823,0.85608 -2.7823,0.85608 l -7.27676,0.107 c 0,0 -1.07868,-0.0856 -1.71218,-0.64207 -0.41948,-0.35099 -0.42805,-1.81919 -0.42805,-1.81919 l -0.107,-9.73801 c 0,0 5.82998,-0.14983 7.81183,0 1.93476,0.14552 2.73949,0.4366 3.42436,1.07011 0.49653,0.46229 0.76191,1.51099 1.28413,1.49815 0.3724,-0.0428 0.53506,-0.85609 0.53506,-0.85609 l -0.107,-8.88192 c 0,0 -0.12413,-0.73624 -0.64206,-0.53507 -0.53507,0.20119 -0.91603,1.07012 -1.39115,1.60518 -0.60783,0.70199 -2.03322,0.9631 -2.03322,0.9631 l -8.88193,0.21401 c 0,0 -0.15838,-7.53786 -0.107,-9.84502 0,-0.42377 0.64206,-0.53505 0.64206,-0.53505 l 7.91882,0 c 0,0 2.32429,-0.0899 2.8893,0.42803 0.76193,0.67632 1.1386,2.02465 2.03323,2.03322 0.5907,0 0.53505,-0.9631 0.53505,-0.9631 l 0,-5.45758 c 0,0 0.0471,-0.66775 -0.32104,-0.85609 -0.3724,-0.20117 -1.71217,-0.21402 -1.71217,-0.21402 z m -255.54275,4.49447 c 8.75351,0 12.49463,5.50038 13.3764,11.87825 1.15144,8.35972 -2.98347,16.74512 -11.87825,17.12179 -4.83262,0.1969 -8.99322,-1.82775 -11.4502,-5.56459 -3.38584,-5.13225 -3.19749,-14.52783 1.39115,-19.47603 2.20871,-2.37993 3.56134,-3.47573 8.5609,-3.95942 z"
       id="path24"
       style="fill:#1a66ba;fill-opacity:1;fill-rule:nonzero;stroke:none" />
  </g>
</svg>
