<?xml version="1.0" encoding="utf-8"?>
<!-- Generator: Adobe Illustrator 19.2.1, SVG Export Plug-In . SVG Version: 6.00 Build 0)  -->
<svg version="1.1" id="layer" xmlns="http://www.w3.org/2000/svg" xmlns:xlink="http://www.w3.org/1999/xlink" x="0px" y="0px"
	 viewBox="0 0 652 652" style="enable-background:new 0 0 652 652;" xml:space="preserve">
<style type="text/css">
	.st0{fill:#00439A;}
</style>
<path class="st0" d="M332.6,290.5c-1-7.9-5.3-12.1-7.7-14.2c-3.1-2.7-9.8-4.6-13.5-4.8c-3.9-0.2-19-0.3-19.6,0.2
	c-0.6,0.4-0.5,0.7-0.1,1.3c0.4,0.6,0.9-0.4,1.9,1.6c1,2,1,3.9,1,3.9l0.4,32.2c0,0,0.2,4.5-1,5.5c-1.1,1-2.1,1.3-2.1,1.9
	c0,1,1.3,0.9,1.3,0.9l19.9-0.3c0,0,5.8-0.8,9.5-3.1c3.5-2.2,6.5-4.8,7.8-7.8C334,300.1,333.1,294.7,332.6,290.5 M316.6,311.2
	c-5.2,2.3-10.7,1.9-12.4,1c-1.6-0.9-1.6-1.8-1.6-1.8l-0.4-31.8c0,0,1.7-0.8,5.4-0.8c3.7,0,7.7,0.6,10.8,2.9
	c1.2,0.9,6.4,4.5,6.5,13.6C325.2,305,321.2,309.2,316.6,311.2"/>
<path class="st0" d="M200.8,323.4c-0.4-0.4-0.7,0-2,0.2c-1.9,0.3-6.2-2.2-7.7-2.8c-1.4-0.7-5.5-3-5.5-3s5-2.9,8.3-8.2
	c2.4-3.8,3.4-9.2,3.5-13.7c0.2-11.4-6.3-19.3-12.7-22.5c-6.2-3.1-18.1-3.4-24.7,0.7c-5.5,3.3-11.6,9.8-11.6,21.2
	c0,15,9.8,22.1,14.9,23.8c7.5,2.5,13.5,1.4,13.5,1.4s9.5,5.5,11.1,6.2c1.6,0.7,4.3,2.4,6.1,2.3c2.6-0.1,6.4-4.3,6.4-4.3
	S201.2,323.8,200.8,323.4 M174.2,314.2c-6.1,0.3-11.4-2.4-14.5-7.1c-4.3-6.5-4.2-18.4,1.6-24.7c2.8-3,4.6-4.4,11-5
	c11.1,0,15.8,7,16.9,15.1C190.7,303,185.5,313.7,174.2,314.2"/>
<path class="st0" d="M103.8,319.6H116c0,0,0.7,0,0.6-0.9c-0.1-0.8-1.6,0-2.7-2.4c-0.7-1.6-0.8-3.5-0.8-3.5l-0.1-25l30.7,33.2
	c0,0,1,0.6,1.3,0.2c0.3-0.3,0.3-1,0.3-1l-0.1-41.6c0,0,0.1-2.5,0.8-3.8c0.6-1.2,2-1.1,2.1-1.8c0.1-0.7-0.4-0.7-0.4-0.7l-12.9,0
	c0,0-0.5,0.1-0.5,0.7c0,0.9,1.6,0,2.4,1.3c0.7,1.1,1.2,3,1.2,3l0.3,26.9l-31.1-33.8c0,0-0.3-0.3-0.9-0.3c-0.3,0-0.6,0.8-0.6,0.8
	l0.4,42.9c0,0,0,2-1,3.3c-0.8,1.1-1.7,1.1-1.6,1.9C103.4,319.5,103.8,319.6,103.8,319.6"/>
<path class="st0" d="M197.8,272.3l12.9,0c0,0,0.5-0.1,0.6,0.4c0,0.8-0.9,0.9-1.8,1.8c-0.9,0.9-1.1,4.9-1.1,4.9l0.3,24.6
	c0,0-0.1,3,1.4,5.5c1.9,3.1,4.6,4.6,9,4.6c6.2-0.1,8.2-3.5,8.8-4.5c0.8-1.4,1.2-3.2,1.3-5.8c0.3-4.6-0.3-26.3-0.3-26.3
	s-0.3-2.9-1.4-3.3c-1.3-0.6-1.7-1.1-1.5-1.7c0.3-0.6,0.9-0.5,0.9-0.5l12.4,0c0,0,0.7,0.2,0.5,0.9c-0.2,0.9-1.3,0.5-2,2
	c-0.7,1.4-0.9,3.9-0.9,3.9l0,25.5c0,0,0.3,4.9-2.6,9.2c-3.5,5.1-9.4,7.1-14.6,7.1c-5,0-9.8-0.5-15.2-5.8c-3.6-3.6-3.7-8.9-3.7-8.9
	l-0.5-26.3c0,0-0.2-2.9-1-4.5c-0.6-1.2-2.1-1.1-2.2-2C197.2,272.3,197.8,272.3,197.8,272.3"/>
<path class="st0" d="M242.2,271.9c0,0-1,0.3-0.3,1c0.7,0.7,1.9,0.6,2.3,2.4c0.4,1.8,0.6,3.2,0.6,3.2l0.1,33.8c0,0-0.1,3-0.9,4.3
	c-0.7,1.2-2.2,0.8-2,1.7c0.1,0.8,1.2,0.9,1.2,0.9l27.1-0.2c0,0,0.1-0.1,0.6-3.6c0.5-3.2,1-6.2-0.1-6c-1.3,0.2-0.6,1.2-2.4,2.3
	c-1.9,1.2-3.5,1-3.5,1l-9.3,0.2c0,0-1.4,0-2.2-0.7c-0.5-0.5-0.5-2.4-0.5-2.4l-0.1-12.3c0,0,7.4-0.1,9.9,0.1c2.5,0.2,3.5,0.6,4.3,1.3
	c0.6,0.6,0.9,1.8,1.6,1.8c0.5,0,0.7-1.1,0.7-1.1l-0.1-11.2c0,0-0.1-0.9-0.8-0.7c-0.7,0.2-1.2,1.4-1.8,2.1c-0.8,0.9-2.5,1.2-2.5,1.2
	l-11.3,0.2c0,0-0.2-9.5-0.2-12.4c0-0.5,0.9-0.7,0.9-0.7l10.1,0c0,0,2.9-0.1,3.6,0.6c1,0.9,1.4,2.5,2.5,2.5c0.7,0,0.7-1.2,0.7-1.2
	l-0.1-6.9c0,0,0.1-0.9-0.4-1.1c-0.5-0.2-2.1-0.2-2.1-0.2L242.2,271.9z"/>
<path class="st0" d="M394.5,293.7l0,17.4c0,0,0.1,2.4,1,4.2c1.1,2.1,2.3,1.6,2.6,2.2c0.3,0.7,0,1.1-0.8,1.3c-0.8,0.2-13.9,0-13.9,0
	s-1.1,0-1-1c0.1-0.9,1.3-0.5,2.4-2.2c1.3-1.9,1.2-4.7,1.2-4.7l-0.2-39c0,0,0.1-2.9-1.2-4.6c-1.4-1.9-2.3-1-2.5-2.3
	c-0.1-0.8,1.4-0.8,1.4-0.8l28.7,0.1c0,0,1.6-0.1,1.9,0.3c0.3,0.4,0.2,1.4,0.2,1.4l0,7.8c0,0,0.1,0.9-0.9,0.8c-1.1-0.2-1-2.2-3-3
	c-1.6-0.6-4.7-0.6-4.7-0.6l-11.5,0v15.6l11.2,0.1c0,0,2.5-0.4,4-1c1.9-0.7,2-2.6,2.6-2.7c1.1-0.3,1.1,0.7,1.1,0.7l0,12.4
	c0,0,0,1.4-0.8,1.2c-0.8-0.2-1-0.8-1.9-2.1c-0.8-1.2-3.4-1.4-3.4-1.4L394.5,293.7z"/>
<path class="st0" d="M418.2,274.1c-0.8-1.4-2.3-1.5-2.3-2.3c0-0.7,1.1-0.8,1.1-0.8l20.4,0.1c0,0,7.4,0.8,10.2,5.3
	c1.3,2,2.6,4.3,2.5,9c-0.1,3.4-1.9,7-4.5,9.2c-1.8,1.6-5.3,2.8-5.3,2.8s0,0.4,0.2,0.8c2,3,12.2,17.5,12.2,17.5l3.7,3
	c0,0-7.8,0.5-9.7,0c-2.1-0.6-3.9-3.5-3.9-3.5l-12.2-18.5c0,0-2-2.5-1.4-3.6c0.4-0.7,3.8,0.5,7.3-0.7c3.6-1.2,5.3-3.8,5.4-7.1
	c0.1-3.3-1.8-6.9-5-7.7c-3.5-0.9-8.9-0.8-9.6-0.2c-0.6,0.5-0.4,1.3-0.4,1.3l0.3,33.8c0,0,0.1,2.4,1.3,3.7c1.2,1.4,1.6,0.9,1.6,1.7
	c0,0.7-0.9,0.7-0.9,0.7l-12.2,0c0,0-0.8-0.1-0.7-0.9c0.1-0.6,1.5-0.6,2.2-2.2c0.7-1.5,0.6-3.2,0.6-3.2l-0.2-34.4
	C419,278.1,419.1,275.7,418.2,274.1"/>
<path class="st0" d="M586,317.5c0,0-5.4,2.5-13.3,2.4c-6.4-0.1-15.5-1.7-21.4-12.7c-3.8-7.2-3.3-17.4-1.2-22.4
	c2.1-5.1,5.4-10.9,14.2-14.1c6.1-2.3,15.7-0.4,16.5-0.1c0.8,0.3,2.4,0.7,3.4,0.7c0.9,0,0.9-0.8,2-0.6c0.7,0.1,0.6,0.9,0.6,0.9l0,7.4
	c0,0-0.1,1-0.9,1c-1.2,0-1.9-2-5.7-2.9c-3.8-0.9-9.8-2-15.1,1.2c-4.4,2.6-8.4,8.5-8.2,16.7c0.1,5.5,1.4,11.4,6.8,15.5
	c4.2,3.2,8.9,3.5,13.5,2.7c4.8-0.9,7.7-3.1,7.7-3.1s0.6-1,1.5-1c0.7,0,0.7,1.7,0.7,1.7L586,317.5z"/>
<path class="st0" d="M333.7,271.5c0,0-1,0.3-0.3,1c0.7,0.7,1.9,0.6,2.3,2.4c0.4,1.8,0.6,3.2,0.6,3.2l0.1,33.8c0,0-0.1,3-0.9,4.3
	c-0.7,1.2-2.1,0.8-2,1.7c0.1,0.8,1.2,0.9,1.2,0.9l27-0.2c0,0,0.1-0.2,0.6-3.7c0.5-3.2,1-6.2-0.1-6c-1.3,0.2-0.6,1.2-2.4,2.3
	c-1.9,1.2-3.5,1-3.5,1l-9.3,0.2c0,0-1.4,0-2.2-0.7c-0.5-0.4-0.5-2.4-0.5-2.4l-0.1-12.3c0,0,7.4-0.1,9.9,0.1c2.5,0.2,3.5,0.5,4.3,1.3
	c0.6,0.6,0.9,1.8,1.6,1.8c0.5,0,0.7-1.1,0.7-1.1l-0.1-11.2c0,0-0.1-0.9-0.8-0.7c-0.7,0.3-1.2,1.4-1.8,2.1c-0.8,0.9-2.5,1.2-2.5,1.2
	l-11.3,0.2c0,0-0.2-9.5-0.2-12.4c0-0.5,0.9-0.7,0.9-0.7l10.1,0c0,0,2.9-0.1,3.6,0.6c1,0.9,1.4,2.5,2.6,2.5c0.7,0,0.7-1.2,0.7-1.2
	l-0.1-6.9c0,0,0.1-0.9-0.4-1.1c-0.5-0.2-2.1-0.2-2.1-0.2L333.7,271.5z"/>
<path class="st0" d="M503.2,317.9h12.2c0,0,0.7,0,0.6-0.8c-0.1-0.8-1.6,0-2.7-2.4c-0.7-1.6-0.8-3.5-0.8-3.5l-0.1-25l30.7,33.2
	c0,0,1,0.6,1.3,0.2c0.3-0.3,0.3-1,0.3-1l-0.1-41.6c0,0,0.1-2.5,0.8-3.8c0.6-1.2,2-1.1,2.1-1.8c0.1-0.7-0.4-0.7-0.4-0.7l-12.9,0
	c0,0-0.5,0.1-0.5,0.7c0,0.9,1.6,0,2.4,1.3c0.7,1.1,1.2,3,1.2,3l0.3,26.9l-31.1-33.8c0,0-0.3-0.3-0.9-0.3c-0.3,0-0.6,0.8-0.6,0.8
	l0.4,42.9c0,0,0,2-1,3.3c-0.8,1.1-1.7,1.1-1.6,1.9C502.9,317.8,503.2,317.9,503.2,317.9"/>
<path class="st0" d="M590.8,270.5c0,0-1,0.3-0.3,1c0.7,0.7,1.9,1,2.3,2.8c0.4,1.8,0.6,3.3,0.6,3.3l0.1,33.8c0,0-0.1,3-0.9,4.3
	c-0.7,1.2-2.2,0.8-2,1.7c0.1,0.8,1.2,0.9,1.2,0.9l27.3-0.2c0,0,0.1-0.2,0.6-3.7c0.5-3.2,1-6.2-0.1-6c-1.3,0.2-0.6,1.2-2.4,2.3
	c-1.9,1.2-3.8,1-3.8,1l-9.3,0.2c0,0-1.4,0-2.2-0.7c-0.5-0.4-0.5-2.4-0.5-2.4l-0.1-12.3c0,0,7.4-0.1,9.9,0.1c2.5,0.2,3.5,0.5,4.3,1.3
	c0.6,0.6,1.2,1.8,1.9,1.8c0.5,0,0.7-1.1,0.7-1.1l-0.1-11.2c0,0-0.1-0.9-0.8-0.7c-0.7,0.3-1.5,1.4-2.1,2.1c-0.8,0.9-2.5,1.2-2.5,1.2
	l-11.3,0.2c0,0-0.2-9.9-0.2-12.8c0-0.5,0.9-0.7,0.9-0.7l10.1,0c0,0,2.9-0.1,3.6,0.6c1,0.9,1.7,2.5,2.8,2.5c0.7,0,0.7-1.2,0.7-1.2
	l-0.1-6.9c0,0,0.1-0.9-0.4-1.1c-0.5-0.2-2.3-0.2-2.3-0.2L590.8,270.5z"/>
<path class="st0" d="M55.6,294.7c-2.2-2.5-6.3-4.5-6.3-4.5s3.5-1.7,5.5-5.3c1-1.9,1.3-4.3,1-7.7c-0.6-7.3-7.8-10.8-12.4-11.1
	c-3.9-0.2-22.5-0.3-22.5-0.3s-0.6,0-0.6,0.9c0,0.5,1.6,1.1,2.4,2.2c1.4,1.9,1.1,4.9,1.1,4.9l0,37.3c0,0,0.1,2.1-0.6,4.1
	c-0.8,2.6-2.1,2.1-2.8,3c-0.7,0.9,0.4,1.3,0.4,1.3l21.1,0.2c0,0,6.7,0.2,11.8-3.9c2.3-1.8,5-4.9,5.1-11.2
	C59,300.7,57.6,297,55.6,294.7 M32.4,272.7c0,0,9.6-1.6,12.9,2c3.5,3.9,2.1,9.6-1.7,11.6c-4.5,2.3-11.2,1.5-11.2,1.5V272.7z
	 M48.1,310.4c-3.9,4.2-12.8,3.2-14.3,2.4c-1.2-0.6-1.4-1.9-1.4-1.9v-15.7c0,0,0-0.5,2.2-0.6c2-0.1,5.4,0,7.1,0.3
	c4.7,0.9,6.5,2.7,7.9,5.8C50.6,302.8,50.4,307.9,48.1,310.4"/>
<path class="st0" d="M102.4,318.3c-0.3-0.5-1.4,0.3-3.6-4.2c-0.9-1.8-19.1-42.6-19.1-42.6s-0.7-0.9-1.3-1c-0.5,0-0.9,0.8-0.9,0.8
	l-19.5,45c0,0-0.7,1.4-1.6,1.7c-1.2,0.4-1.7,1.4-0.6,1.6c1.1,0.3,11.4-0.1,11.4-0.1s0.6,0.2,0.4-0.8c-0.2-1.2-1.4-0.4-1.3-2.7
	c0.1-1.5,3.7-9.2,3.7-9.2l17.3,0c0,0,3.5,6.6,3.4,9.4c0,2-1.5,1.7-1.5,2.6c0,0.9,1,0.8,1,0.8l11.8-0.1
	C102,319.7,103.1,319.5,102.4,318.3 M72.4,300.8l6.5-16l6.2,16L72.4,300.8z"/>
<path class="st0" d="M502.1,316.8c-0.3-0.5-1.4,0.3-3.6-4.2c-0.9-1.8-19.1-42.6-19.1-42.6s-0.7-0.9-1.3-1c-0.5,0-0.9,0.8-0.9,0.8
	l-19.5,45c0,0-0.7,1.4-1.6,1.7c-1.2,0.4-1.7,1.4-0.6,1.6c1.1,0.3,11.4-0.1,11.4-0.1s0.6,0.2,0.4-0.8c-0.2-1.2-1.4-0.4-1.3-2.7
	c0.1-1.5,3.7-9.2,3.7-9.2l17.3,0c0,0,3.5,6.6,3.4,9.4c0,2-1.5,1.7-1.5,2.6c0,0.9,1,0.8,1,0.8l11.8-0.1
	C501.7,318.1,502.8,317.9,502.1,316.8 M472.1,299.3l6.5-16l6.2,16L472.1,299.3z"/>
<path class="st0" d="M362.7,322.7h30.8c-0.1-0.5-0.3-1-0.4-1.5h-30.8C362.4,321.6,362.5,322.1,362.7,322.7"/>
<path class="st0" d="M292.9,321.2h-30.8c-0.1,0.5-0.3,1-0.4,1.5h30.8C292.7,322.1,292.8,321.6,292.9,321.2"/>
<path class="st0" d="M227,322.7h28.2c0.2-0.5,0.3-1,0.5-1.5h-27.9C227.5,321.7,227.3,322.2,227,322.7"/>
<path class="st0" d="M300.1,321.2c-0.1,0.5-0.2,1-0.3,1.5h55.5c-0.1-0.5-0.2-1-0.3-1.5H300.1z"/>
<path class="st0" d="M400,322.7h27.8c-0.2-0.5-0.5-1-0.7-1.5h-27.5C399.6,321.7,399.8,322.2,400,322.7"/>
<path class="st0" d="M402.6,329.9h29.3c-0.3-0.5-0.7-1-1-1.5H402C402.2,328.8,402.3,329.4,402.6,329.9"/>
<path class="st0" d="M364.6,329.9h31c-0.2-0.5-0.3-1-0.5-1.5h-30.9C364.3,328.8,364.4,329.3,364.6,329.9"/>
<path class="st0" d="M222.8,329.9h29.7c0.2-0.5,0.4-1,0.6-1.5h-29.3C223.5,328.8,223.2,329.4,222.8,329.9"/>
<path class="st0" d="M356.5,328.3h-28.7c0.1,0.4,0.1,1,0.2,1.5h28.8C356.7,329.4,356.6,328.8,356.5,328.3"/>
<path class="st0" d="M298.3,329.9h28.6c0.1-0.6,0.2-1.1,0.2-1.5h-28.5C298.5,328.8,298.4,329.4,298.3,329.9"/>
<path class="st0" d="M291,328.3h-31c-0.2,0.5-0.3,1-0.5,1.5h31C290.7,329.3,290.9,328.8,291,328.3"/>
<path class="st0" d="M366.8,336.9h31.4c-0.2-0.5-0.4-1-0.6-1.5h-31.3C366.4,335.9,366.6,336.4,366.8,336.9"/>
<path class="st0" d="M358.2,335.4H329c0.1,0.5,0.2,1,0.3,1.5h29.4C358.5,336.4,358.4,335.9,358.2,335.4"/>
<path class="st0" d="M216.9,336.9h32.3c0.3-0.5,0.5-1,0.8-1.5h-31.6C217.9,335.9,217.4,336.4,216.9,336.9"/>
<path class="st0" d="M296.5,336.9h29c0.1-0.5,0.2-1,0.3-1.5h-28.9C296.8,335.9,296.6,336.4,296.5,336.9"/>
<path class="st0" d="M406,336.9h31.8c-0.5-0.5-1-1-1.5-1.5h-31.2C405.4,335.9,405.7,336.4,406,336.9"/>
<path class="st0" d="M288.9,335.4h-31.3c-0.2,0.5-0.4,1-0.6,1.5h31.4C288.6,336.4,288.7,335.9,288.9,335.4"/>
<path class="st0" d="M410.5,344.1h36.8c-0.9-0.5-1.7-1-2.6-1.5h-35.3C409.8,343.1,410.2,343.6,410.5,344.1"/>
<path class="st0" d="M286.5,342.6h-31.8c-0.2,0.5-0.5,1-0.7,1.5h32C286.1,343.6,286.3,343.1,286.5,342.6"/>
<path class="st0" d="M207,344.1h37.5c0.4-0.5,0.7-1,1.1-1.5h-35.9C208.9,343.1,208,343.6,207,344.1"/>
<path class="st0" d="M294.3,344.1h29.4c0.1-0.5,0.3-1,0.4-1.5h-29.3C294.7,343.1,294.5,343.6,294.3,344.1"/>
<path class="st0" d="M360.3,342.6h-29.8c0.1,0.5,0.2,1,0.4,1.5h29.9C360.6,343.6,360.5,343.1,360.3,342.6"/>
<path class="st0" d="M369.2,344.1h31.9c-0.2-0.5-0.5-1-0.7-1.5h-31.8C368.9,343.1,369.1,343.6,369.2,344.1"/>
<path class="st0" d="M283.6,349.7h-32.4c-0.3,0.5-0.5,1-0.8,1.5h32.5C283.2,350.8,283.4,350.2,283.6,349.7"/>
<path class="st0" d="M371.5,349.7c0.2,0.5,0.4,1,0.7,1.5h32.2l-0.5-1.5H371.5z"/>
<path class="st0" d="M291.9,351.3h29.8c0.2-0.5,0.3-1,0.5-1.5h-29.7C292.2,350.3,292,350.8,291.9,351.3"/>
<path class="st0" d="M362.7,349.7h-30.3c0.1,0.5,0.3,1,0.4,1.5h30.4C363.1,350.8,362.9,350.3,362.7,349.7"/>
<path class="st0" d="M365.5,356.9h-30.8c0.2,0.5,0.3,1,0.5,1.5h30.9C365.9,357.9,365.7,357.4,365.5,356.9"/>
<path class="st0" d="M289.1,358.4h30.3c0.2-0.5,0.4-1,0.5-1.5h-30.2C289.5,357.4,289.3,357.9,289.1,358.4"/>
<path class="st0" d="M280.3,356.9h-33c-0.3,0.5-0.6,1-0.9,1.5h33.2C279.7,357.9,280,357.4,280.3,356.9"/>
<path class="st0" d="M408.3,358.4l-0.5-1.5h-32.9c0.3,0.5,0.5,1,0.8,1.5H408.3z"/>
<path class="st0" d="M413,365.8l-1-1.5h-33.2c0.3,0.5,0.6,1,0.9,1.5H413z"/>
<path class="st0" d="M368.6,364.3h-31.3c0.2,0.5,0.4,0.9,0.5,1.4c0,0,0,0.1,0,0.1h31.4C369.1,365.3,368.9,364.8,368.6,364.3"/>
<path class="st0" d="M285.8,365.8h30.9c0.2-0.5,0.4-1,0.5-1.5h-30.7C286.3,364.8,286.1,365.3,285.8,365.8"/>
<path class="st0" d="M276.4,364.3h-33.9c-0.4,0.5-0.7,1-1.1,1.5h34.1C275.8,365.3,276.1,364.8,276.4,364.3"/>
<path class="st0" d="M340.1,371.4c0.2,0.5,0.4,1,0.6,1.5h32c-0.3-0.5-0.5-1-0.8-1.5H340.1z"/>
<path class="st0" d="M282.4,372.9H314c0.2-0.5,0.4-1,0.6-1.5h-31.4C282.9,371.9,282.7,372.4,282.4,372.9"/>
<path class="st0" d="M237.2,371.4c-0.5,0.6-0.9,1.1-1.3,1.5h35.4c0.3-0.5,0.6-1,1-1.5H237.2z"/>
<path class="st0" d="M417.4,371.4H383c0.3,0.5,0.6,1,1,1.5h34.8L417.4,371.4z"/>
<path class="st0" d="M278.5,380.2h32.3c0.2-0.5,0.4-1,0.7-1.5h-32.2C279.1,379.2,278.8,379.7,278.5,380.2"/>
<path class="st0" d="M375.8,378.7h-32.6c0.2,0.5,0.4,1,0.7,1.5h32.4L375.8,378.7z"/>
<path class="st0" d="M274.4,387.5h33.2c0.2-0.5,0.5-1,0.7-1.5h-33C275,386.5,274.7,387,274.4,387.5"/>
<path class="st0" d="M379.7,386h-33.3c0.2,0.5,0.5,1,0.7,1.5h33.1L379.7,386z"/>
<path class="st0" d="M384.3,393.3h-34.4c0.2,0.5,0.5,1,0.7,1.5h34.3L384.3,393.3z"/>
<path class="st0" d="M269.7,394.8h34.2c0.3-0.5,0.5-1,0.8-1.5h-34C270.4,393.8,270,394.4,269.7,394.8"/>
<path class="st0" d="M265.4,401.5l-0.2,0.7h34.8c0.3-0.4,0.6-0.9,0.9-1.5h-34.9C265.7,401,265.5,401.2,265.4,401.5"/>
<path class="st0" d="M353.5,400.7c0.3,0.6,0.5,1.1,0.8,1.5h35.2l-0.8-1.5H353.5z"/>
<path class="st0" d="M398,314.7h26.8c-0.2-0.5-0.3-1-0.5-1.5h-26.6C397.8,313.7,397.9,314.2,398,314.7"/>
<path class="st0" d="M295.2,313.2h-31.5c-0.1,0.5-0.2,1-0.3,1.5h31.5C295,314.2,295.1,313.7,295.2,313.2"/>
<path class="st0" d="M360.2,314.7h31.5c-0.1-0.5-0.2-1-0.3-1.5h-31.5C360,313.7,360.1,314.2,360.2,314.7"/>
<path class="st0" d="M301.2,313.2c-0.1,0.5-0.1,1-0.2,1.5h53.2c-0.1-0.5-0.1-1-0.2-1.5H301.2z"/>
<path class="st0" d="M230,314.7h27.1c0.1-0.5,0.2-1,0.3-1.5h-26.9C230.4,313.7,230.2,314.2,230,314.7"/>
<path class="st0" d="M396.6,307.4h26.1c-0.1-0.5-0.2-1-0.3-1.5h-26.1C396.5,306.4,396.5,306.9,396.6,307.4"/>
<path class="st0" d="M232.1,307.4h26.5c0.1-0.5,0.2-1,0.2-1.5h-26.4C232.3,306.4,232.2,306.9,232.1,307.4"/>
<path class="st0" d="M353.2,305.9h-51.3c0,0.5-0.1,1-0.1,1.5h51.5C353.3,306.9,353.2,306.4,353.2,305.9"/>
<path class="st0" d="M359.1,307.4h31.4c-0.1-0.5-0.2-1-0.2-1.5h-31.3C358.9,306.4,359,306.9,359.1,307.4"/>
<path class="st0" d="M296.2,305.9H265c-0.1,0.5-0.2,1-0.2,1.5h31.3C296.1,306.9,296.2,306.4,296.2,305.9"/>
<path class="st0" d="M233.3,300.1h26.2c0-0.5,0.1-1,0.1-1.5h-26.1C233.4,299.1,233.4,299.6,233.3,300.1"/>
<path class="st0" d="M352.8,298.6h-50.5c0,0.5,0,1-0.1,1.5h50.6C352.8,299.6,352.8,299.1,352.8,298.6"/>
<path class="st0" d="M358.3,300.1h31.1c-0.1-0.5-0.1-1-0.1-1.5h-31.1C358.3,299.1,358.3,299.6,358.3,300.1"/>
<path class="st0" d="M296.9,298.6h-31c0,0.5-0.1,1-0.2,1.5h31C296.8,299.6,296.8,299.1,296.9,298.6"/>
<path class="st0" d="M395.7,300.1h25.8c-0.1-0.5-0.1-1-0.2-1.5h-25.8C395.6,299.1,395.7,299.6,395.7,300.1"/>
<path class="st0" d="M259.9,292.7c0-0.6,0-1.1,0-1.5h-26.1c0,0.3,0,0.6,0,0.9c0,0.2,0,0.4,0,0.6H259.9z"/>
<path class="st0" d="M395.4,291.2c0,0.4,0,0.9,0,1.5h25.8c0-0.1,0-0.2,0-0.3c0-0.4,0-0.8,0-1.2H395.4z"/>
<path class="st0" d="M297,292.7c0-0.5,0-1,0-1.5c0,0,0,0,0-0.1h-30.8v0.3c0,0.5,0,0.9,0,1.2H297z"/>
<path class="st0" d="M358.1,291.2c0,0.5,0,1,0,1.5h30.8c0-0.3,0-0.7,0-1c0-0.2,0-0.3,0-0.5H358.1z"/>
<path class="st0" d="M352.8,291.2h-50.4c0,0.5,0,1,0,1.5h50.4C352.8,292.2,352.8,291.7,352.8,291.2"/>
<path class="st0" d="M292.5,261.2h-30.8c0.1,0.5,0.3,1,0.4,1.5h30.8C292.8,262.3,292.7,261.8,292.5,261.2"/>
<path class="st0" d="M428.2,261.2h-28.1c-0.2,0.5-0.3,1-0.5,1.5h27.8C427.7,262.2,427.9,261.7,428.2,261.2"/>
<path class="st0" d="M255.2,261.2h-28.4c0.3,0.5,0.5,1,0.8,1.5h28.1C255.5,262.2,255.4,261.7,255.2,261.2"/>
<path class="st0" d="M355.8,262.7c0.1-0.4,0.2-0.9,0.3-1.5h-56.9c0.1,0.7,0.2,1.2,0.3,1.5H355.8z"/>
<path class="st0" d="M393.6,261.2h-30.8c-0.2,0.6-0.3,1.1-0.4,1.5h30.8C393.3,262.2,393.4,261.7,393.6,261.2"/>
<path class="st0" d="M395.7,254.1h-31c-0.2,0.5-0.3,1-0.4,1.5h31C395.4,255.1,395.5,254.6,395.7,254.1"/>
<path class="st0" d="M290.6,254.1h-31c0.2,0.5,0.3,1,0.5,1.5h31C290.9,255.1,290.7,254.6,290.6,254.1"/>
<path class="st0" d="M357.6,254.1H328c-0.1,0.6-0.2,1.1-0.2,1.5h29.5C357.3,255.1,357.5,254.6,357.6,254.1"/>
<path class="st0" d="M298,255.6h29.1c-0.1-0.4-0.1-1-0.2-1.5h-29.3C297.8,254.6,297.9,255.1,298,255.6"/>
<path class="st0" d="M432.5,254.1h-29.8c-0.2,0.5-0.4,1-0.6,1.5h29.4C431.8,255.1,432.2,254.6,432.5,254.1"/>
<path class="st0" d="M252.6,254.1h-30c0.4,0.5,0.7,1,1,1.5h29.6C253,255.1,252.8,254.6,252.6,254.1"/>
<path class="st0" d="M296.2,248.5h29.6c-0.1-0.5-0.2-1-0.3-1.5h-29.7C296,247.5,296.1,248,296.2,248.5"/>
<path class="st0" d="M249.2,247h-32.7c0.5,0.5,1,1,1.5,1.5h32C249.7,248,249.4,247.5,249.2,247"/>
<path class="st0" d="M359.4,247h-30.1c-0.1,0.5-0.2,1-0.3,1.5h30C359.1,248,359.3,247.5,359.4,247"/>
<path class="st0" d="M438.7,247h-32.6c-0.3,0.5-0.6,1-0.8,1.5h31.8C437.7,248,438.2,247.5,438.7,247"/>
<path class="st0" d="M398.3,247h-31.4c-0.2,0.5-0.3,1-0.5,1.5h31.3C397.9,248,398.1,247.5,398.3,247"/>
<path class="st0" d="M288.4,247H257c0.2,0.5,0.4,1,0.6,1.5h31.3C288.7,248,288.6,247.5,288.4,247"/>
<path class="st0" d="M401.3,239.8h-32c-0.2,0.5-0.4,1-0.6,1.5h31.8C400.9,240.8,401.1,240.4,401.3,239.8"/>
<path class="st0" d="M449.1,239.8h-38.3c-0.4,0.5-0.7,1-1.1,1.5h36.5C447.2,240.8,448.1,240.3,449.1,239.8"/>
<path class="st0" d="M361.6,239.8H331c-0.1,0.5-0.3,1-0.4,1.5h30.5C361.3,240.9,361.4,240.4,361.6,239.8"/>
<path class="st0" d="M294.2,241.4h30c-0.1-0.5-0.3-1-0.4-1.5h-30.1C293.9,240.4,294,240.9,294.2,241.4"/>
<path class="st0" d="M285.9,239.8h-32c0.2,0.5,0.5,1,0.7,1.5h31.8C286.3,240.9,286.1,240.4,285.9,239.8"/>
<path class="st0" d="M244.6,239.8h-38.2c0.9,0.5,1.9,1,2.8,1.5h36.5C245.3,240.8,244.9,240.3,244.6,239.8"/>
<path class="st0" d="M291.8,234.2h30.3c-0.2-0.5-0.3-1-0.5-1.5h-30.4C291.5,233.2,291.7,233.7,291.8,234.2"/>
<path class="st0" d="M283,232.7h-32.5c0.3,0.5,0.5,1,0.8,1.5h32.4C283.4,233.7,283.2,233.2,283,232.7"/>
<path class="st0" d="M364,232.7h-31c-0.2,0.5-0.3,1-0.4,1.5h31C363.6,233.7,363.8,233.2,364,232.7"/>
<path class="st0" d="M371.6,234.2h32.2l0.5-1.5h-32.1C372.1,233.2,371.9,233.7,371.6,234.2"/>
<path class="st0" d="M279.5,225.5h-33.2c0.3,0.5,0.6,1,0.9,1.5h33C280,226.5,279.8,226,279.5,225.5"/>
<path class="st0" d="M408.3,225.5h-32.5c-0.3,0.5-0.5,1-0.8,1.5h32.8L408.3,225.5z"/>
<path class="st0" d="M289.2,227h30.7c-0.2-0.5-0.4-1-0.5-1.5h-30.8C288.8,226,289,226.5,289.2,227"/>
<path class="st0" d="M366.7,225.5h-31.5c-0.2,0.5-0.3,1-0.5,1.5h31.4C366.3,226.5,366.5,226,366.7,225.5"/>
<path class="st0" d="M285.9,219.7h31.4c-0.2-0.5-0.4-1-0.6-1.5h-31.5C285.5,218.6,285.7,219.1,285.9,219.7"/>
<path class="st0" d="M413.1,218.1h-33.3c-0.3,0.5-0.6,1-0.8,1.5H412L413.1,218.1z"/>
<path class="st0" d="M275.6,218.1h-34.1c0.3,0.5,0.7,1,1.1,1.5h33.9C276.1,219.1,275.8,218.6,275.6,218.1"/>
<path class="st0" d="M369.5,219.4c0.2-0.4,0.4-0.8,0.5-1.2h-32.1c0,0,0,0.1,0,0.1c-0.2,0.5-0.4,0.9-0.5,1.4h32
	C369.4,219.6,369.4,219.5,369.5,219.4"/>
<path class="st0" d="M373.3,211h-32.5c-0.2,0.5-0.4,1-0.6,1.5h32.4C372.8,212,373.1,211.5,373.3,211"/>
<path class="st0" d="M282.4,212.4c0,0,0,0.1,0.1,0.1h32.2c-0.2-0.5-0.4-1-0.6-1.5h-32.3C281.9,211.5,282.2,212,282.4,212.4"/>
<path class="st0" d="M271.5,211h-35.6c0.4,0.4,0.8,0.9,1.3,1.5h35.2C272,211.9,271.7,211.4,271.5,211"/>
<path class="st0" d="M418.7,211h-34.9c-0.2,0.4-0.5,0.9-0.9,1.5h34.5L418.7,211z"/>
<path class="st0" d="M376.3,203.7h-32.4c-0.2,0.5-0.4,1-0.7,1.5h32.6L376.3,203.7z"/>
<path class="st0" d="M278.8,205.2h32.8c-0.2-0.5-0.4-1-0.7-1.5H278C278.3,204.2,278.6,204.7,278.8,205.2"/>
<path class="st0" d="M274.9,198h33.4c-0.2-0.5-0.5-1-0.7-1.5h-33.5C274.4,196.9,274.6,197.4,274.9,198"/>
<path class="st0" d="M380.3,196.4h-33.1c-0.2,0.5-0.5,1-0.7,1.5h33.3L380.3,196.4z"/>
<path class="st0" d="M269.8,189.2c0.3,0.5,0.6,0.9,0.9,1.4h34.1c-0.3-0.5-0.5-1-0.8-1.5L269.8,189.2L269.8,189.2z"/>
<path class="st0" d="M384.9,189.1h-34.3c-0.2,0.5-0.5,1-0.7,1.5h34.4L384.9,189.1z"/>
<path class="st0" d="M389.5,181.7h-35.2c-0.2,0.5-0.5,1-0.8,1.5h35.2L389.5,181.7z"/>
<path class="st0" d="M300.8,183.2c-0.3-0.6-0.6-1.1-0.9-1.5h-34.8l0.2,0.6c0.2,0.3,0.4,0.6,0.6,0.9H300.8z"/>
<path class="st0" d="M425.1,268.4h-27c-0.1,0.5-0.2,1-0.3,1.5h26.8C424.7,269.4,424.9,268.9,425.1,268.4"/>
<path class="st0" d="M354.6,269.9c0.1-0.5,0.1-1,0.2-1.5h-54.6c0.1,0.5,0.1,1,0.2,1.5H354.6z"/>
<path class="st0" d="M360,269.9h31.5c0.1-0.5,0.2-1,0.3-1.5h-31.6C360.1,268.9,360.1,269.4,360,269.9"/>
<path class="st0" d="M294.9,268.4h-31.4c0.1,0.5,0.2,1,0.3,1.5h31.4C295,269.4,295,268.9,294.9,268.4"/>
<path class="st0" d="M257.2,268.4h-27.3c0.2,0.5,0.4,1,0.5,1.5h27.1C257.4,269.4,257.3,268.9,257.2,268.4"/>
<path class="st0" d="M258.6,276.5H232c0.1,0.5,0.2,1,0.3,1.5h26.5C258.7,277.5,258.7,277,258.6,276.5"/>
<path class="st0" d="M296,276.5h-31.2c0.1,0.5,0.2,1,0.2,1.5h31.2C296.1,277.5,296,277,296,276.5"/>
<path class="st0" d="M358.9,278h31.3c0.1-0.5,0.1-1,0.2-1.5h-31.3C359.1,277,359,277.5,358.9,278"/>
<path class="st0" d="M353.9,276.5h-52.6c0.1,0.5,0.1,1,0.2,1.5h52.3C353.7,277.5,353.8,277,353.9,276.5"/>
<path class="st0" d="M423,276.5h-26.3c-0.1,0.5-0.2,1-0.2,1.5h26.2C422.7,277.5,422.8,277,423,276.5"/>
<path class="st0" d="M259.5,283.8h-26.2c0.1,0.5,0.1,1,0.1,1.5h26.2C259.6,284.9,259.5,284.4,259.5,283.8"/>
<path class="st0" d="M353.2,283.8h-51.2c0,0.5,0.1,1,0.1,1.5h51C353.1,284.8,353.1,284.3,353.2,283.8"/>
<path class="st0" d="M296.7,283.8h-31c0.1,0.5,0.1,1,0.1,1.5h30.9C296.8,284.8,296.8,284.3,296.7,283.8"/>
<path class="st0" d="M358.3,285.4h31.1c0-0.5,0.1-1,0.1-1.5h-31.1C358.3,284.3,358.3,284.8,358.3,285.4"/>
<path class="st0" d="M421.7,283.8h-25.9c-0.1,0.5-0.1,1-0.1,1.5h25.9C421.6,284.9,421.6,284.3,421.7,283.8"/>
<path class="st0" d="M167.3,430c0,0-0.7,0.2-0.2,0.7c0.4,0.4,1.2,0.7,1.5,1.8c0.3,1.2,0.4,2.1,0.4,2.1l0.1,22c0,0-0.1,1.9-0.6,2.8
	c-0.4,0.8-1.4,0.5-1.3,1.1c0.1,0.5,0.8,0.6,0.8,0.6l17.7-0.1c0,0,0.1-0.1,0.4-2.4c0.3-2.1,0.7-4,0-3.9c-0.9,0.1-0.4,0.8-1.5,1.5
	c-1.2,0.8-2.4,0.6-2.4,0.6l-6,0.1c0,0-0.9,0-1.4-0.5c-0.3-0.3-0.3-1.5-0.3-1.5l0-8c0,0,4.8-0.1,6.4,0c1.6,0.1,2.2,0.4,2.8,0.9
	c0.4,0.4,0.8,1.2,1.2,1.1c0.3,0,0.4-0.7,0.4-0.7l0-7.3c0,0-0.1-0.6-0.5-0.4c-0.4,0.2-1,0.9-1.3,1.4c-0.5,0.6-1.7,0.8-1.7,0.8
	l-7.3,0.1c0,0-0.1-6.4-0.1-8.3c0-0.3,0.6-0.5,0.6-0.5l6.5,0c0,0,1.9-0.1,2.4,0.4c0.6,0.6,1.1,1.6,1.8,1.6c0.5,0,0.5-0.8,0.5-0.8
	l-0.1-4.5c0,0,0-0.6-0.3-0.7c-0.3-0.2-1.5-0.1-1.5-0.1L167.3,430z"/>
<path class="st0" d="M191.4,430.2l8.4,0c0,0,0.3-0.1,0.4,0.3c0,0.5-0.6,0.6-1.2,1.2c-0.6,0.6-0.7,3.1-0.7,3.1l0.2,16
	c0,0-0.1,2,0.9,3.6c1.2,2,3,3,5.9,3c4-0.1,5.3-2.2,5.8-3c0.5-0.9,0.7-2.1,0.9-3.8c0.2-3-0.2-17.1-0.2-17.1s-0.2-1.9-0.9-2.2
	c-0.9-0.4-1.1-0.7-1-1.1c0.2-0.4,0.6-0.3,0.6-0.3l8.1,0c0,0,0.4,0.1,0.3,0.6c-0.2,0.6-0.9,0.3-1.3,1.3c-0.4,0.9-0.6,2.5-0.6,2.5
	l0,16.6c0,0,0.2,3.2-1.7,6c-2.2,3.3-6.1,4.6-9.5,4.6c-3.3,0-6.3-0.3-9.9-3.8c-2.4-2.3-2.4-5.8-2.4-5.8l-0.3-17.1
	c0,0-0.1-1.9-0.6-2.9c-0.4-0.8-1.3-0.8-1.4-1.3C190.9,430.2,191.4,430.2,191.4,430.2"/>
<path class="st0" d="M225.8,432c-0.5-0.9-1.5-0.9-1.5-1.5c0-0.5,0.7-0.5,0.7-0.5l13.2,0.1c0,0,4.8,0.5,6.6,3.5
	c0.8,1.3,1.7,2.8,1.6,5.9c0,2.2-1.2,4.5-2.9,6c-1.2,1-3.5,1.8-3.5,1.8s0,0.3,0.1,0.5c1.3,1.9,7.9,11.4,7.9,11.4l2.4,2
	c0,0-5.1,0.3-6.3,0c-1.4-0.4-2.5-2.3-2.5-2.3l-7.9-12c0,0-1.3-1.7-0.9-2.4c0.3-0.4,2.4,0.3,4.8-0.5c2.3-0.8,3.4-2.5,3.5-4.6
	c0.1-2.2-1.2-4.5-3.3-5c-2.3-0.6-5.8-0.5-6.3-0.1c-0.4,0.3-0.2,0.8-0.2,0.8l0.2,21.9c0,0,0.1,1.5,0.9,2.4c0.8,0.9,1.1,0.6,1.1,1.1
	c0,0.5-0.6,0.5-0.6,0.5l-7.9,0c0,0-0.5-0.1-0.4-0.6c0.1-0.4,1-0.4,1.4-1.4c0.4-1,0.4-2.1,0.4-2.1l-0.2-22.3
	C226.3,434.5,226.3,433,225.8,432"/>
<path class="st0" d="M396,430.1c0,0-0.7,0.2-0.2,0.7c0.4,0.4,1.2,0.4,1.5,1.6c0.3,1.2,0.4,2.1,0.4,2.1l0.1,22c0,0-0.1,1.9-0.6,2.8
	c-0.4,0.8-1.4,0.5-1.3,1.1c0.1,0.5,0.8,0.6,0.8,0.6l17.6-0.1c0,0,0.1-0.1,0.4-2.4c0.3-2.1,0.7-4,0-3.9c-0.9,0.1-0.4,0.8-1.5,1.5
	c-1.2,0.8-2.3,0.6-2.3,0.6l-6,0.1c0,0-0.9,0-1.4-0.5c-0.3-0.3-0.3-1.5-0.3-1.5l0-8c0,0,4.8-0.1,6.4,0c1.6,0.1,2.2,0.4,2.8,0.9
	c0.4,0.4,0.6,1.2,1,1.1c0.3,0,0.4-0.7,0.4-0.7l0-7.3c0,0-0.1-0.6-0.5-0.4c-0.4,0.2-0.8,0.9-1.2,1.3c-0.5,0.6-1.6,0.8-1.6,0.8
	l-7.3,0.2c0,0-0.1-6.2-0.1-8.1c0-0.3,0.6-0.5,0.6-0.5l6.5,0c0,0,1.9,0,2.4,0.4c0.6,0.6,0.9,1.6,1.7,1.6c0.5,0,0.5-0.8,0.5-0.8
	l-0.1-4.5c0,0,0-0.6-0.3-0.7c-0.3-0.2-1.4-0.1-1.4-0.1L396,430.1z"/>
<path class="st0" d="M461.7,430.1c0,0-0.7,0.2-0.2,0.7c0.4,0.4,1.2,0.4,1.5,1.5c0.3,1.2,0.4,2.1,0.4,2.1l0.1,22c0,0-0.1,1.9-0.6,2.8
	c-0.4,0.8-1.4,0.5-1.3,1.1c0.1,0.5,0.8,0.6,0.8,0.6l17.6-0.1c0,0,0.1-0.1,0.4-2.4c0.3-2.1,0.7-4,0-3.9c-0.9,0.1-0.4,0.8-1.5,1.5
	c-1.2,0.8-2.3,0.7-2.3,0.7l-6,0.1c0,0-0.9,0-1.4-0.5c-0.4-0.3-0.3-1.5-0.3-1.5l0-8c0,0,4.8-0.1,6.4,0c1.6,0.1,2.2,0.4,2.8,0.9
	c0.4,0.4,0.6,1.2,1,1.2c0.3,0,0.4-0.7,0.4-0.7l0-7.3c0,0-0.1-0.6-0.5-0.4c-0.4,0.2-0.8,0.9-1.2,1.4c-0.5,0.6-1.7,0.8-1.7,0.8
	l-7.3,0.2c0,0-0.2-6.2-0.1-8.1c0-0.3,0.6-0.5,0.6-0.5l6.5,0c0,0,1.9-0.1,2.4,0.4c0.6,0.6,0.9,1.6,1.7,1.6c0.5,0,0.5-0.8,0.5-0.8
	l-0.1-4.5c0,0,0-0.6-0.3-0.7c-0.3-0.2-1.4-0.1-1.4-0.1L461.7,430.1z"/>
<path class="st0" d="M306.9,437.9c-0.1,0-0.2,0-0.3-0.1c-0.1-0.1-0.1-0.2-0.2-0.3c-0.3-1.8-1-3.2-2.1-4.2c-1.2-1.1-2.5-1.2-4.4-1.2
	c-1.8,0-3.2,0.4-4.2,1.2c-1,0.8-1.5,1.9-1.5,3.3c0,1.2,0.4,1.9,1.5,2.9c1.2,1,3.1,2,5.6,2.9c3,1.1,5.1,2.4,6.5,3.9
	c1.3,1.5,2,3.3,2,5.5c0,2.9-1.1,5.3-3.3,7c-2.2,1.7-5.1,2.6-8.8,2.6c-1.6,0-2.9-0.1-4.1-0.4c-1-0.2-2-0.6-3.1-1.1
	c-0.2-0.1-0.3-0.2-0.4-0.4c-0.1-0.1-0.2-0.3-0.2-0.6l-0.1-4.5c0-0.1,0.1-0.4,0.1-0.6c0-0.2,0.3-0.5,0.4-0.5l0.4-0.3
	c0.1,0,0.2,0,0.3,0.1c0.1,0,0.2,0.1,0.2,0.3c0.6,1.7,1.2,2.8,2.5,3.9c1.3,1.2,2.8,1.7,4.3,1.7c2.2,0,3.9-0.5,5-1.4
	c1.2-0.9,2.1-1.9,2.1-3.6c0-1.1-0.5-2.1-1.5-3c-1-0.9-2.5-1.7-4.6-2.5c-3.4-1.2-5.9-2.7-7.4-4.3c-1.5-1.6-2.3-3.6-2.3-5.9
	c0-2.5,1.1-4.5,3.2-6.2c2.1-1.7,4.7-2.5,7.8-2.5c1.5,0,2.9,0.1,4,0.4c0.9,0.2,1.8,0.5,2.7,1c0.3,0.1,0.5,0.3,0.7,0.5
	c0.1,0.2,0.2,0.5,0.2,0.8l0.1,4.6c-0.1,0.3-0.1,0.5-0.3,0.7c-0.1,0.1-0.2,0.2-0.3,0.2L306.9,437.9z"/>
<path class="st0" d="M280.1,433.7c-3.1-3-6.9-4.5-11.4-4.5c-4.5,0-8.3,1.7-11.4,5.1c-3.1,3.4-4.7,7.5-4.7,12.4
	c0,4.4,1.6,8.1,4.7,11.1c3.1,3,6.9,4.5,11.4,4.5c4.5,0,8.3-1.7,11.4-5c3.1-3.4,4.7-7.5,4.7-12.3
	C284.7,440.4,283.2,436.7,280.1,433.7 M269.2,457.6c-4,0.2-7.4-1.5-9.4-4.6c-2.8-4.2-2.7-12,1.1-16c1.8-2,3-2.9,7.1-3.3
	c7.2,0,10.3,4.6,11,9.8C280,450.4,276.6,457.3,269.2,457.6"/>
<path class="st0" d="M329.8,443.8l0.2,13.4c0,0,0.1,1.5,0.9,2.4c0.8,0.9,1.1,0.6,1.1,1.1c0,0.5-0.6,0.5-0.6,0.5h-7.9
	c0,0-0.5-0.1-0.4-0.6c0.1-0.4,1-0.4,1.4-1.4c0.4-1,0.4-2,0.4-2l-0.2-13.8"/>
<path class="st0" d="M342.5,430l-8.2,0c0,0-0.7,0-0.6,0.3c0,0.4,1,0.3,1,1.1c0.1,1.2-7.1,11.6-7.1,11.6s-8-11.1-8-11.8
	c-0.1-1,0.7-0.6,0.9-1.1c0.1-0.4-0.3-0.3-0.3-0.3s-6.9,0-7.6,0.2c-0.7,0.1-0.4,0.5,0.4,0.7c0.6,0.1,1,0.7,1,0.7l12.7,18.4
	c0,0,0.2,0.3,0.6,0.3c0.4,0,0.8-0.4,0.8-0.4s11.8-16.6,12.4-17.3c1.4-1.9,2.1-1.6,2.3-1.8C343.3,430.1,342.5,430,342.5,430"/>
<path class="st0" d="M382.4,433.8l0,23.3c0,0,0.1,1.5,0.9,2.4c0.8,0.9,1.1,0.6,1.1,1.1c0,0.5-0.6,0.5-0.6,0.5h-7.9
	c0,0-0.5-0.1-0.4-0.6c0.1-0.4,1-0.4,1.4-1.4c0.4-1,0.4-2.1,0.4-2.1l-0.2-23.5"/>
<path class="st0" d="M378.1,434h8.1c0,0,1.9,0,2.4,0.4c0.6,0.6,0.9,1.6,1.6,1.6c0.5,0,0.5-0.8,0.5-0.8l-0.1-4.5c0,0,0-0.6-0.3-0.7
	c-0.3-0.2-1.4-0.1-1.4-0.1l-11,0.1"/>
<path class="st0" d="M380,434l-7.1,0c0,0-1.9,0-2.4,0.4c-0.6,0.6-0.9,1.6-1.7,1.6c-0.5,0-0.5-0.8-0.5-0.8l0.1-4.5c0,0,0-0.6,0.3-0.7
	c0.3-0.2,1.4-0.1,1.4-0.1l9.8,0.1"/>
<path class="st0" d="M361.9,437.9c-0.1,0-0.2,0-0.3-0.1c-0.1-0.1-0.1-0.2-0.2-0.3c-0.3-1.8-1-3.2-2.2-4.2c-1.2-1.1-2.5-1.2-4.4-1.2
	c-1.8,0-3.2,0.4-4.2,1.2c-1,0.8-1.5,1.9-1.5,3.3c0,1.2,0.4,1.9,1.5,2.9c1.2,1,3.1,2,5.6,2.9c3,1.1,5.1,2.4,6.5,3.9
	c1.3,1.5,2,3.3,2,5.5c0,2.9-1.1,5.3-3.3,7c-2.2,1.7-5.1,2.6-8.8,2.6c-1.6,0-2.9-0.1-4.1-0.4c-1-0.2-2-0.6-3.1-1.2
	c-0.2-0.1-0.3-0.2-0.4-0.3c-0.1-0.1-0.2-0.3-0.2-0.5l-0.1-4.5c0-0.1,0.1-0.4,0.1-0.6c0.1-0.2,0.3-0.5,0.4-0.5l0.4-0.3
	c0.1,0,0.2,0,0.3,0.1c0.1,0.1,0.2,0.1,0.2,0.3c0.6,1.7,1.2,2.8,2.5,3.9c1.3,1.2,2.8,1.7,4.3,1.7c2.2,0,3.9-0.5,5-1.4
	c1.2-0.9,2.1-1.9,2.1-3.6c0-1.1-0.5-2.2-1.5-3c-1-0.9-2.5-1.7-4.6-2.5c-3.4-1.2-5.9-2.7-7.4-4.3c-1.5-1.6-2.3-3.6-2.3-5.9
	c0-2.5,1.1-4.5,3.2-6.2c2.1-1.7,4.7-2.5,7.8-2.5c1.5,0,2.9,0.1,4,0.4c0.9,0.2,1.8,0.6,2.7,1c0.3,0.1,0.5,0.3,0.7,0.5
	c0.1,0.2,0.2,0.5,0.3,0.8l0.1,4.7c-0.1,0.3-0.1,0.5-0.3,0.7c-0.1,0.1-0.2,0.2-0.3,0.2L361.9,437.9z"/>
<path class="st0" d="M410.1,427.6c-0.1,0.1-0.1,0.2-0.2,0.2c-0.1,0-0.2,0-0.3-0.1l-7.1-3.7l-0.5-0.3c-0.6-0.4-1-0.9-1.2-1.5
	c-0.1-0.2-0.1-0.4-0.1-0.7c0-0.3,0.1-0.6,0.3-0.8c0.5-0.6,1-1,1.7-1.1c0.6-0.1,1.3,0.1,1.9,0.6l0.4,0.3l5.8,5.7
	c0.1,0.1,0.1,0.2,0.2,0.3c0,0.1,0,0.2-0.1,0.3L410.1,427.6z"/>
<path class="st0" d="M449.6,430.4c0,0,1.6-1.3,2.6-0.8c1.4,0.8,1,1.8,1,1.8l-0.2,25.7c0,0,0,1.3,0.6,2.1c0.5,0.7,1,0.7,1,1.2
	c0,0.3-0.2,0.4-0.2,0.4h-7.2c0,0-0.4,0-0.4-0.5c0.1-0.5,1,0,1.6-1.6c0.4-1,0.5-2.2,0.5-2.2l0.2-16.3l-8.9,17.7c0,0-0.5,1.1-1.8,1.1
	c-1.7,0-1.8-3-1.8-3"/>
<path class="st0" d="M451.5,429.6l3.2,0c0,0,0.6,0.2,0.2,0.7c-0.4,0.4-1.1,0.4-1.4,1.5c-0.3,1.1-0.4,2.1-0.4,2.1l0,1.7"/>
<path class="st0" d="M428.2,431c-0.5-0.4-2.2-1.8-3.3-1.3c-1.4,0.8-1,1.8-1,1.8l0.1,25.7c0,0,0,1.3-0.6,2.1c-0.5,0.7-1,0.7-0.9,1.2
	c0,0.3,0.2,0.4,0.2,0.4h7.2c0,0,0.4,0,0.4-0.5c-0.1-0.5-0.9,0-1.6-1.6c-0.4-1-0.5-2.2-0.5-2.2l-0.1-16.1l8.8,17.7c0,0,0.3,1,1.7,0.9
	c1.5,0,2.1-3.7,2.1-3.7"/>
<path class="st0" d="M425.6,429.5l-3.2,0c0,0-0.6,0.2-0.2,0.7c0.4,0.4,1.1,0.4,1.4,1.5c0.2,1.1,0.4,2.1,0.4,2.1l0,1.7"/>
</svg>
