<svg version="1.1" id="Layer_1" xmlns="http://www.w3.org/2000/svg" xmlns:xlink="http://www.w3.org/1999/xlink" x="0px" y="0px"
	 width="100%" viewBox="0 0 1024 1024" enable-background="new 0 0 1024 1024" xml:space="preserve">
<path fill="#000000" opacity="1.000000" stroke="none" 
	d="
M323.987305,579.928467 
	C319.914886,587.035156 316.013428,593.818115 312.145172,600.619934 
	C310.879242,602.845947 309.596985,604.966125 306.590485,604.964844 
	C296.764435,604.960632 286.938385,604.989075 277.112427,604.961243 
	C276.134857,604.958496 275.106415,604.784851 274.339813,603.814941 
	C273.793915,602.039307 275.083008,600.757080 275.875610,599.384094 
	C289.944580,575.013245 303.958740,550.609619 318.233673,526.359680 
	C320.322266,522.811646 320.366516,520.164978 318.097412,516.915771 
	C315.926849,513.807556 314.167114,510.412506 311.682556,506.226654 
	C305.071167,517.709167 298.831818,528.545532 292.714325,539.170227 
	C290.252930,539.211487 289.835968,537.542297 289.133270,536.333923 
	C284.529999,528.418457 280.079376,520.412598 275.374146,512.558960 
	C273.721466,509.800446 273.656097,507.563080 275.303131,504.734344 
	C290.719208,478.257294 306.025208,451.716034 321.322235,425.169830 
	C322.654633,422.857666 324.250854,421.044250 327.079498,421.029694 
	C336.904572,420.979095 346.730103,420.985199 356.555176,421.031738 
	C357.306915,421.035278 358.056335,421.522980 358.797943,421.782501 
	C359.214386,424.813171 357.286224,426.703308 356.111969,428.767548 
	C348.703522,441.791046 341.425171,454.901825 333.535004,467.631195 
	C330.532532,472.475159 330.391144,476.227570 333.761658,480.630890 
	C335.662415,483.114075 336.997925,486.029907 339.182343,489.767700 
	C352.505585,466.762543 365.428436,444.448761 378.232178,422.340576 
	C379.120850,422.428619 379.617218,422.339508 379.732147,422.509033 
	C385.892639,431.596527 391.199951,441.196320 396.515594,450.784149 
	C397.991089,453.445465 395.797913,455.558838 394.603210,457.633392 
	C377.570007,487.210999 360.478546,516.755066 343.403107,546.308472 
	C336.989899,557.408142 330.581665,568.510742 323.987305,579.928467 
z"/>
<path fill="#000000" opacity="1.000000" stroke="none" 
	d="
M281.931763,556.830322 
	C276.216248,567.120117 270.567261,577.042603 265.005188,586.812378 
	C262.140594,586.139099 261.629761,584.202454 260.753418,582.688660 
	C236.736069,541.201294 212.782242,499.677063 188.682190,458.237823 
	C186.834839,455.061371 186.826797,452.690918 188.720337,449.589630 
	C193.576950,441.635315 198.172867,433.517334 202.701202,425.369324 
	C204.398697,422.314941 206.410233,420.783325 210.154678,420.801636 
	C239.795761,420.946777 269.437836,420.889648 299.079620,420.903656 
	C300.713531,420.904419 302.409302,420.743042 303.769135,421.953064 
	C304.202545,424.490540 302.542419,426.115967 301.503235,427.919037 
	C286.791321,453.446228 272.099823,478.985657 257.230896,504.421295 
	C255.355652,507.629181 255.563217,510.069244 257.358154,513.105774 
	C264.982208,526.002991 272.442413,538.997253 279.923767,551.978394 
	C280.742920,553.399719 281.312775,554.964722 281.931763,556.830322 
M233.574234,471.793793 
	C234.430191,472.966003 234.772476,474.586975 237.093109,475.291809 
	C242.310211,466.420410 247.931870,457.633667 252.709900,447.439819 
	C241.455246,447.496857 231.142014,446.924255 219.892151,447.838654 
	C224.685287,456.213531 228.966019,463.693085 233.574234,471.793793 
z"/>
<path fill="#000000" opacity="1.000000" stroke="none" 
	d="
M799.529053,472.668518 
	C800.630005,472.564117 801.421387,472.670807 801.915344,472.337189 
	C803.899841,470.996857 804.532593,456.947662 802.724060,455.334473 
	C801.607544,454.338501 800.234558,454.690613 798.911194,454.695435 
	C794.921143,454.709991 790.929504,454.705505 786.941162,454.604309 
	C784.736389,454.548370 783.699829,453.360107 783.776794,451.059814 
	C783.850952,448.845215 785.206970,448.157898 787.017944,448.101654 
	C791.011047,447.977722 795.012451,447.857941 799.002625,447.984711 
	C802.372620,448.091827 804.108459,446.868469 803.642273,443.348511 
	C803.067871,439.011749 805.322693,437.749939 809.192810,437.996277 
	C811.182922,438.122925 813.189575,438.073639 815.185425,438.005157 
	C818.510803,437.891052 820.262634,439.363647 819.970093,442.764191 
	C819.598633,447.082916 821.826782,448.247223 825.704285,448.024750 
	C829.021912,447.834381 832.361938,448.004150 835.691345,448.057465 
	C838.071411,448.095612 839.359802,449.126862 839.280884,451.738037 
	C839.200317,454.400421 837.356934,454.591400 835.510620,454.638794 
	C831.689209,454.736877 827.847900,454.885986 824.044617,454.606995 
	C820.815063,454.370087 819.834961,455.780609 820.011841,458.656494 
	C820.052673,459.319824 820.011658,459.988190 820.008484,460.654236 
	C819.955444,471.853485 819.955505,471.853485 830.778992,472.717651 
	C837.159668,473.227142 839.798645,478.378693 836.054749,483.644989 
	C831.814514,489.609253 827.314819,495.409393 822.613037,501.016907 
	C820.156433,503.946808 820.293457,506.114746 822.890686,508.683167 
	C827.931641,513.668396 831.302246,520.259094 837.910767,523.784058 
	C839.945984,524.869629 839.459290,527.174133 838.353455,529.656616 
	C828.325195,527.579163 817.929932,526.584229 811.430664,515.081421 
	C805.510376,526.975830 794.948914,527.579590 785.002930,529.689331 
	C783.557739,526.899902 783.532837,524.898804 786.104309,523.325378 
	C792.739624,519.265564 795.786133,512.101135 800.561829,506.431427 
	C801.974548,504.754272 800.782349,503.331146 799.667542,502.030914 
	C795.982910,497.733612 792.277222,493.454254 788.612915,489.139709 
	C787.360352,487.664886 786.205933,486.106689 784.775452,484.293427 
	C795.519714,481.774323 804.350342,482.895721 809.699646,493.987274 
	C813.841309,489.127838 817.219360,485.200012 819.832703,479.948425 
	C815.630127,478.807281 811.985962,479.371460 808.414185,479.315826 
	C801.755005,479.212128 795.093262,479.257812 788.432617,479.263092 
	C786.078186,479.264954 784.007874,478.969604 784.052063,475.883118 
	C784.097412,472.720978 786.328918,472.693695 788.592285,472.692810 
	C792.089111,472.691437 795.585876,472.682800 799.529053,472.668518 
z"/>
<path fill="#000000" opacity="1.000000" stroke="none" 
	d="
M657.388306,466.595459 
	C659.981506,465.861267 659.643188,464.024200 659.676575,462.406097 
	C659.728088,459.909180 659.467163,457.383545 659.754028,454.918427 
	C660.327759,449.989807 658.613281,447.605133 653.412231,448.380524 
	C652.436340,448.526031 651.417419,448.383881 650.418396,448.372803 
	C648.426758,448.350677 646.795044,448.011841 646.732910,445.427307 
	C646.673096,442.937836 648.144348,442.198792 650.176208,442.158020 
	C655.169739,442.057831 660.165527,442.036835 665.160339,442.047424 
	C667.695923,442.052826 669.719727,441.456177 671.976074,439.847107 
	C676.967163,436.287811 682.673767,438.224243 688.782715,438.617615 
	C686.657593,444.079102 684.598083,448.410767 678.422485,448.454529 
	C676.097961,448.470978 675.138062,449.696564 675.279114,451.950134 
	C675.330933,452.779236 675.253235,453.615662 675.281006,454.447205 
	C675.402649,458.092896 674.370972,462.405884 675.972839,465.212524 
	C677.928284,468.638733 682.689697,466.232330 686.194031,466.687164 
	C688.241394,466.952850 689.812744,467.360748 689.847900,469.783295 
	C689.885254,472.356415 688.433350,473.301575 686.042419,473.262817 
	C684.211365,473.233124 682.362915,473.440826 680.550537,473.259613 
	C675.473755,472.751984 674.486206,475.228638 675.565125,479.319458 
	C676.584656,480.336945 677.650085,480.151733 678.597900,480.049744 
	C683.343140,479.538940 684.903015,481.858154 685.345093,486.361420 
	C686.445984,497.573792 686.555847,508.926849 689.639709,519.898438 
	C690.121033,521.611023 690.329651,523.513733 688.608887,525.425659 
	C683.531860,522.296021 678.615051,519.488525 678.180054,512.294617 
	C677.639160,503.347870 676.384521,494.444305 675.246216,485.505524 
	C675.246216,498.151489 675.265991,510.797516 675.238220,523.443481 
	C675.223511,530.130676 675.138062,530.181030 668.598145,530.216064 
	C667.432556,530.222351 666.257019,530.112793 665.102905,530.226868 
	C660.927551,530.639465 659.609253,528.713806 659.663391,524.663452 
	C659.838989,511.524109 659.729065,498.381012 659.532898,485.230072 
	C658.458557,494.607178 657.304260,503.976044 656.337280,513.364197 
	C655.676697,519.778564 650.653015,522.165100 646.488342,525.410339 
	C644.111694,523.741394 644.545654,521.648071 645.033508,520.103638 
	C648.274170,509.843964 647.779480,499.080963 649.472107,488.616730 
	C650.772095,480.579498 650.501038,480.535645 658.940247,479.765778 
	C660.415955,473.948181 659.999634,473.365387 654.292236,473.286499 
	C652.128052,473.256592 649.961487,473.292938 647.800171,473.201172 
	C645.759827,473.114594 644.880127,471.928986 644.926331,469.919312 
	C644.972839,467.896118 645.942871,466.817841 647.970642,466.775970 
	C650.966919,466.714111 653.963989,466.689636 657.388306,466.595459 
z"/>
<path fill="#000000" opacity="1.000000" stroke="none" 
	d="
M524.397705,459.635712 
	C526.062195,461.371155 526.354431,463.123993 526.348022,465.015747 
	C526.321167,473.002838 526.413513,480.991150 526.304199,488.976868 
	C526.235291,494.014160 524.005249,496.124664 518.910706,496.321442 
	C516.916870,496.398468 514.917603,496.338135 512.920837,496.335297 
	C505.382294,496.324524 505.371490,496.323669 505.352264,504.084259 
	C505.337036,510.240906 505.419525,516.398560 505.333527,522.554016 
	C505.261841,527.686218 503.231201,529.876221 498.157623,530.156738 
	C494.507812,530.358459 490.835724,530.120667 487.178589,530.236572 
	C483.148773,530.364319 481.616913,528.132629 481.174072,524.566162 
	C489.117004,522.361267 489.111725,522.361267 489.110229,513.789734 
	C489.109436,509.297058 488.936401,504.792542 489.208496,500.315704 
	C489.400726,497.153381 488.210602,496.160004 485.219971,496.307068 
	C481.900574,496.470306 478.562256,496.426300 475.239258,496.294342 
	C471.074921,496.128906 468.746002,493.833923 468.696106,489.671539 
	C468.596375,481.352875 468.564087,473.030182 468.714386,464.712952 
	C468.802338,459.845428 471.134094,457.624115 476.450684,457.800293 
	C480.350586,457.929443 482.814606,456.869781 483.898560,452.975403 
	C484.550598,450.632843 486.170319,449.464722 488.748871,449.647614 
	C492.534668,449.916077 496.372498,449.216644 500.115448,450.100983 
	C501.562622,452.640656 498.881287,454.546570 499.506500,457.694244 
	C505.021973,457.694244 510.739594,457.694031 516.457214,457.694305 
	C519.116455,457.694458 521.822388,457.478638 524.397705,459.635712 
M502.366333,489.787415 
	C503.193542,489.787506 504.027008,489.721619 504.846924,489.799103 
	C508.300934,490.125549 510.015106,488.975616 509.967224,485.114685 
	C509.921875,481.460632 508.630829,480.108246 504.975128,480.265106 
	C499.690582,480.491852 494.386658,480.426514 489.095917,480.292389 
	C485.656921,480.205231 484.923279,482.029114 484.982513,484.968170 
	C485.038696,487.757538 485.461365,489.885895 488.997498,489.789429 
	C493.130219,489.676666 497.268738,489.777374 502.366333,489.787415 
M509.813080,467.741425 
	C509.887421,465.160309 508.483032,464.282349 506.077576,464.303680 
	C500.451904,464.353577 494.822693,464.414368 489.200226,464.267639 
	C485.807220,464.179108 485.005951,465.900146 484.985748,468.876648 
	C484.964264,472.040405 485.745544,473.884094 489.434601,473.735291 
	C494.555786,473.528687 499.702240,473.496521 504.818451,473.762817 
	C508.777832,473.968903 510.353577,472.436981 509.813080,467.741425 
z"/>
<path fill="#000000" opacity="1.000000" stroke="none" 
	d="
M614.010742,445.377350 
	C610.687988,445.378448 607.855225,445.474792 605.031921,445.352814 
	C602.079590,445.225250 600.636780,446.135040 600.110901,449.412720 
	C598.619080,458.710876 598.434692,458.680023 608.029846,458.678589 
	C612.023193,458.677979 616.017700,458.622864 620.009521,458.701904 
	C625.542908,458.811462 627.854248,460.998596 628.086426,466.578461 
	C628.266113,470.897369 628.156555,475.229004 628.144836,479.554901 
	C628.139099,481.671539 628.365295,483.525848 630.950806,484.112671 
	C632.975037,484.572113 633.344116,486.163361 633.149048,487.999939 
	C632.899719,490.347961 631.107361,490.362427 629.446533,490.364502 
	C611.476807,490.386719 593.507141,490.370392 575.537415,490.368103 
	C573.455139,490.367828 571.991699,489.720154 571.870300,487.305237 
	C571.746887,484.848572 573.192566,483.987061 575.260864,484.015167 
	C578.855042,484.063995 579.582886,482.008575 579.805054,478.915314 
	C580.111084,474.653717 580.891418,470.426178 581.419739,466.543060 
	C580.091187,464.976471 578.571777,465.430054 577.379150,464.902802 
	C575.883301,464.241486 575.762634,462.923706 575.786621,461.552765 
	C575.812622,460.065979 576.350464,459.006897 578.017090,458.781128 
	C579.746460,458.546936 581.981567,459.037323 582.518982,456.602020 
	C583.196594,453.531494 584.286255,450.406738 583.535461,447.256470 
	C582.880493,444.508087 580.313293,445.529388 578.478027,445.412170 
	C576.069580,445.258331 573.620056,445.442993 573.780029,441.898468 
	C573.926758,438.649597 576.315674,438.876862 578.460388,438.873077 
	C594.433716,438.844757 610.407532,438.920197 626.380127,438.813080 
	C630.795471,438.783508 632.076050,440.629364 630.621094,445.376617 
	C625.377869,445.376617 619.941406,445.376617 614.010742,445.377350 
M599.952698,483.935059 
	C613.224365,483.778595 611.568298,485.421234 611.654114,474.437683 
	C611.730774,464.630890 611.010193,464.101715 601.190002,465.220276 
	C599.033081,465.465973 597.735779,466.298340 597.466492,468.439026 
	C596.948364,472.557465 596.620239,476.703705 595.976440,480.801178 
	C595.546326,483.539062 597.003662,483.941132 599.952698,483.935059 
z"/>
<path fill="#000000" opacity="1.000000" stroke="none" 
	d="
M470.000488,439.893677 
	C488.332214,439.886932 506.164093,439.879028 523.995972,439.876984 
	C525.328674,439.876831 526.661987,439.900391 527.993958,439.945190 
	C530.190857,440.018982 531.302307,441.027618 531.284607,443.371979 
	C531.265259,445.940033 529.724731,446.372467 527.682556,446.374725 
	C520.349976,446.382812 513.017334,446.409393 505.684723,446.413483 
	C493.352509,446.420349 481.020325,446.412628 468.688110,446.416412 
	C461.427307,446.418671 461.385376,446.423309 461.378174,453.476196 
	C461.357666,473.474518 461.385498,493.472870 461.371704,513.471191 
	C461.366089,521.645447 458.905853,525.041870 451.068878,527.073303 
	C447.611572,527.969543 444.272888,529.804321 440.447021,529.218201 
	C439.423431,526.904785 439.140472,524.741821 441.491760,523.422607 
	C445.072174,521.413818 445.075775,518.160339 445.071472,514.762085 
	C445.045715,494.430420 445.040558,474.098785 445.041321,453.767120 
	C445.041412,451.768829 445.001587,449.757904 445.199280,447.774658 
	C445.757660,442.171783 447.876617,440.102386 453.502899,439.939209 
	C458.831421,439.784668 464.167725,439.898285 470.000488,439.893677 
z"/>
<path fill="#000000" opacity="1.000000" stroke="none" 
	d="
M751.054810,460.257202 
	C748.149902,460.100647 747.649902,458.523315 747.791870,456.441803 
	C747.944458,454.205109 749.530273,453.606689 751.284424,453.818390 
	C756.270630,454.420166 757.285095,451.748352 756.942810,447.558868 
	C756.780945,445.578064 756.967957,443.564362 757.060547,441.568512 
	C757.136169,439.937134 757.749817,438.589325 759.558350,438.331757 
	C763.367310,437.789246 767.199585,437.777496 771.008118,438.279816 
	C772.838745,438.521271 773.302612,439.968323 773.308777,441.611725 
	C773.316345,443.610779 773.514282,445.628265 773.311279,447.605011 
	C772.876404,451.839020 773.920044,454.418732 778.904785,453.805176 
	C781.066650,453.539062 782.287781,454.698547 782.242004,457.079010 
	C782.196228,459.459045 780.935852,460.532990 778.778381,460.241333 
	C773.587219,459.539490 773.160889,462.508148 773.285461,466.552429 
	C773.493958,473.321747 773.342468,480.102173 773.342468,486.757263 
	C776.479980,487.564697 778.937073,485.901672 781.640381,487.026978 
	C783.270203,490.841461 781.749939,492.915527 777.699707,493.212067 
	C774.260010,493.463928 773.222229,495.183441 773.284302,498.438293 
	C773.430359,506.099182 773.367615,513.765137 773.311218,521.428406 
	C773.265381,527.656555 771.084717,529.941956 765.009460,530.126831 
	C761.514099,530.233215 758.009216,530.044373 754.515137,530.170410 
	C750.454956,530.316895 748.885132,528.159302 748.630432,524.481750 
	C756.947815,522.339905 757.022217,522.339111 756.924927,513.107544 
	C756.872803,508.156860 757.457825,503.165070 756.484436,498.227112 
	C753.724304,497.083923 751.065491,499.249084 748.296143,497.828156 
	C746.700684,494.091156 748.001221,491.981781 752.207703,491.687042 
	C756.119385,491.412964 757.076965,489.154510 756.982483,485.602631 
	C756.805298,478.943207 756.726807,472.267578 756.999207,465.614716 
	C757.171509,461.405365 755.541870,459.782623 751.054810,460.257202 
z"/>
<path fill="#000000" opacity="1.000000" stroke="none" 
	d="
M716.702759,462.000183 
	C716.703857,455.336670 716.832336,449.169586 716.659851,443.010956 
	C716.566833,439.690186 717.687622,438.243896 721.143555,437.998383 
	C732.810120,437.169586 733.119873,437.359863 733.126892,449.184204 
	C733.134766,462.510895 733.111450,475.837616 733.149536,489.164185 
	C733.155945,491.403595 732.759155,493.619904 735.547119,495.126282 
	C737.570862,496.219727 737.435791,499.026428 735.625793,500.228119 
	C732.774231,502.121429 733.144226,504.673187 733.127991,507.284393 
	C733.090698,513.281128 733.025391,519.279175 733.108032,525.274780 
	C733.157654,528.872070 731.616089,530.304504 727.986755,530.263000 
	C714.761353,530.111633 716.889465,531.092346 716.728088,519.590149 
	C716.671997,515.592957 716.474121,511.575684 716.778809,507.601166 
	C717.119629,503.155640 715.409424,502.260437 711.250305,502.906281 
	C705.839600,503.746521 700.317566,503.891327 694.838196,504.256622 
	C692.747620,504.396057 690.759338,504.276886 690.742065,501.298187 
	C690.726013,498.526337 692.553772,498.000671 694.671509,497.832458 
	C700.309021,497.384705 705.949707,496.970551 711.593140,496.605255 
	C715.158630,496.374451 716.880493,494.946075 716.778015,490.983490 
	C716.532715,481.494781 716.702515,471.995300 716.702759,462.000183 
z"/>
<path fill="#000000" opacity="1.000000" stroke="none" 
	d="
M576.295410,517.213623 
	C576.425903,512.614502 576.467773,508.455078 576.610657,504.299133 
	C576.786377,499.191650 578.806580,496.943176 583.939148,496.885651 
	C596.420532,496.745636 608.905396,496.758972 621.387024,496.886017 
	C625.916260,496.932098 628.441162,499.347412 628.396790,504.121552 
	C628.341125,510.112885 628.470703,516.106812 628.354858,522.096497 
	C628.254578,527.277283 626.277344,529.240234 620.955750,529.289429 
	C609.805054,529.392395 598.652893,529.340515 587.501343,529.336853 
	C577.551208,529.333557 576.150513,527.869629 576.295410,517.213623 
M598.739380,503.323303 
	C592.114075,502.312836 593.066101,507.007202 593.126892,510.889771 
	C593.344727,524.792236 591.252808,522.667542 604.847900,522.817566 
	C611.978760,522.896301 611.979553,522.816528 611.992554,515.703613 
	C612.015198,503.332916 612.015259,503.332916 598.739380,503.323303 
z"/>
<path fill="#000000" opacity="1.000000" stroke="none" 
	d="
M554.054993,528.162109 
	C550.109802,525.590881 550.141602,521.828064 550.128967,518.161133 
	C550.081177,504.354523 550.089355,490.547638 550.113220,476.740936 
	C550.119385,473.159790 549.965637,469.894623 544.950806,470.264160 
	C543.023010,470.406189 542.454468,468.966614 542.471558,467.268799 
	C542.488525,465.585205 543.107300,464.192047 544.943420,464.112457 
	C550.579224,463.868164 556.268677,463.215332 561.834045,464.449829 
	C566.626099,465.512787 567.014099,469.554932 567.019043,473.513184 
	C567.035339,486.654175 566.960571,499.795288 566.967163,512.936340 
	C566.968201,514.894531 566.578186,516.939636 567.786499,518.899963 
	C569.343140,518.899963 570.948425,518.899963 572.653748,518.899963 
	C573.943726,522.184021 573.477478,524.562561 569.761292,525.382812 
	C564.673950,526.505615 560.024231,529.939697 554.054993,528.162109 
z"/>
<path fill="#000000" opacity="1.000000" stroke="none" 
	d="
M813.317322,560.012634 
	C819.266052,559.798218 824.767273,559.575989 830.257629,559.733704 
	C836.142822,559.902649 839.556824,564.121948 838.341431,569.751343 
	C837.828552,572.126587 837.869202,574.063660 838.770569,576.410522 
	C840.865417,581.864685 837.326965,587.057983 831.494507,587.310364 
	C826.171814,587.540649 820.831482,587.382874 815.499084,587.356934 
	C813.966492,587.349487 812.032593,587.185913 812.027832,585.310120 
	C812.006592,576.925354 810.367310,568.472168 813.317322,560.012634 
M827.746521,582.533936 
	C829.819458,582.149353 831.863770,581.485413 831.528015,578.887817 
	C831.184875,576.232788 828.860718,576.363220 826.875183,576.325562 
	C825.058533,576.291016 823.231628,576.272339 821.424133,576.423950 
	C819.409363,576.592957 819.302063,578.159546 819.307922,579.723572 
	C819.313477,581.214111 819.813049,582.378967 821.476990,582.481995 
	C823.289673,582.594116 825.111877,582.551880 827.746521,582.533936 
M819.477173,566.787170 
	C819.172485,568.786865 819.312012,570.754578 821.896301,570.687073 
	C824.912476,570.608276 828.505310,572.169373 830.737427,569.078308 
	C832.261047,566.968384 830.394897,565.527954 828.470398,565.248474 
	C825.580811,564.828857 822.538818,564.162354 819.477173,566.787170 
z"/>
<path fill="#000000" opacity="1.000000" stroke="none" 
	d="
M551.493225,574.066650 
	C547.024170,580.065308 544.609802,579.765198 537.278564,572.042053 
	C537.278564,576.393127 537.251587,580.150391 537.289307,583.907043 
	C537.310059,585.981262 536.880615,587.513428 534.316467,587.473389 
	C531.942383,587.436279 529.879944,587.102173 529.866821,584.096497 
	C529.836304,577.104980 529.831848,570.113159 529.866272,563.121704 
	C529.873962,561.564575 530.189270,560.020813 532.155457,559.824890 
	C534.465576,559.594604 536.844971,559.205688 538.489929,561.564087 
	C540.656677,564.670654 542.872620,567.742798 545.227051,571.054199 
	C548.270264,568.392944 549.766968,565.178345 551.629333,562.296204 
	C553.430481,559.508728 555.925354,559.251465 558.595398,559.844604 
	C561.793945,560.555115 560.404175,563.271423 560.421692,565.227600 
	C560.473694,571.053650 560.387817,576.880737 560.371216,582.707458 
	C560.364258,585.162537 560.354919,587.436890 556.823608,587.359680 
	C553.581848,587.288818 553.591248,585.176636 553.588684,582.923157 
	C553.584778,579.491333 553.587708,576.059570 553.587708,571.520264 
	C552.439575,572.886169 552.055542,573.343018 551.493225,574.066650 
z"/>
<path fill="#000000" opacity="1.000000" stroke="none" 
	d="
M476.596100,575.874634 
	C476.603149,571.567444 476.687225,567.739868 476.591949,563.916626 
	C476.521271,561.080994 477.462830,559.567566 480.577667,559.652100 
	C485.564087,559.787354 490.569946,559.477234 495.542908,559.771729 
	C501.886963,560.147400 506.413147,567.106140 503.117798,572.316650 
	C500.238159,576.869812 500.695831,580.486267 502.945343,584.644409 
	C503.231720,585.173828 503.126190,585.915161 503.219849,586.707397 
	C499.209015,588.226501 496.317963,587.552734 495.021698,583.208923 
	C494.008972,579.815369 492.216370,577.993713 488.246826,578.138123 
	C484.877777,578.260742 483.271790,579.205994 483.455597,582.680481 
	C483.598694,585.384949 483.299469,587.639954 479.534058,587.395691 
	C475.739075,587.149536 476.635712,584.532776 476.580475,582.343750 
	C476.530151,580.349243 476.586700,578.352051 476.596100,575.874634 
M490.294525,572.768494 
	C493.282806,572.752502 496.555969,572.450562 496.402924,568.625122 
	C496.247742,564.746460 492.762421,564.907471 489.914459,564.955200 
	C487.963318,564.987854 485.934387,564.354126 484.075348,565.344238 
	C482.617706,572.348633 482.873993,572.697388 490.294525,572.768494 
z"/>
<path fill="#000000" opacity="1.000000" stroke="none" 
	d="
M758.697144,580.309937 
	C757.771118,573.374023 752.782471,576.952698 749.630493,576.412842 
	C746.117859,575.811401 746.413086,578.747742 746.315552,581.105896 
	C746.235474,583.041626 746.966248,585.283203 745.244141,586.761536 
	C744.066711,587.772217 742.366943,587.493835 740.915466,587.120850 
	C739.067200,586.645996 738.983154,585.010681 738.975830,583.506042 
	C738.944336,577.025452 738.954407,570.544495 738.975586,564.063782 
	C738.984070,561.459717 739.628418,559.584839 742.920715,559.660278 
	C746.047241,559.731934 746.244080,561.565186 746.341614,563.933716 
	C746.600952,570.232422 750.517090,572.713196 756.630615,570.618896 
	C759.594971,569.603516 758.359863,567.090393 758.692810,565.129456 
	C759.003540,563.298706 757.942749,560.999451 760.454285,559.918030 
	C763.465759,558.621216 766.124084,560.201599 766.201233,563.592529 
	C766.341064,569.738220 766.264160,575.889038 766.261353,582.037720 
	C766.260071,584.767578 766.444824,587.471924 762.313782,587.387573 
	C758.467834,587.309143 758.720642,584.785828 758.710632,582.246094 
	C758.708679,581.747498 758.705750,581.248962 758.697144,580.309937 
z"/>
<path fill="#000000" opacity="1.000000" stroke="none" 
	d="
M688.198364,582.613647 
	C691.303101,582.613708 693.965942,582.588806 696.627502,582.638062 
	C697.924927,582.662048 698.867432,583.232239 698.978333,584.681396 
	C699.104919,586.335144 698.246521,587.278137 696.677917,587.279175 
	C690.858948,587.282898 685.040039,587.183960 679.221130,587.115540 
	C679.062073,587.113586 678.903687,587.021606 678.745544,586.969849 
	C673.277893,585.180054 670.877563,578.849915 672.059265,569.337402 
	C672.819702,563.216125 676.247986,559.852722 682.106140,559.695984 
	C686.263855,559.584717 690.428040,559.623352 694.587341,559.702087 
	C696.324890,559.734863 698.676941,559.294128 698.829834,561.944885 
	C699.004456,564.972351 696.346619,564.625122 694.513672,564.758850 
	C691.365845,564.988586 688.193726,564.866760 685.033569,564.955139 
	C683.357788,565.002014 681.670044,565.172119 680.525452,566.649109 
	C679.907593,567.446533 679.318359,568.354614 679.668091,569.392456 
	C680.132263,570.770020 681.421387,570.756226 682.586548,570.767151 
	C686.747009,570.806274 690.907959,570.794617 695.068359,570.836182 
	C697.008301,570.855591 698.951843,571.163940 698.941956,573.653076 
	C698.931458,576.291016 696.790527,576.216064 694.955627,576.239502 
	C691.128357,576.288513 687.298889,576.204041 683.472717,576.285583 
	C681.928833,576.318481 679.769958,575.725830 679.566772,578.189575 
	C679.415649,580.021912 680.740601,581.162659 682.364075,581.935669 
	C684.102661,582.763489 685.933044,582.601501 688.198364,582.613647 
z"/>
<path fill="#000000" opacity="1.000000" stroke="none" 
	d="
M467.171875,570.563782 
	C465.110016,576.794067 460.701904,578.657593 454.987701,578.250732 
	C450.337036,577.919556 446.210541,577.950989 447.059601,584.621216 
	C447.374084,587.091797 445.364044,587.456726 443.342438,587.430786 
	C441.281738,587.404297 439.726807,586.910156 439.728149,584.423706 
	C439.731995,577.284851 439.730499,570.145935 439.694214,563.007202 
	C439.682678,560.736389 440.716949,559.677673 442.998566,559.694153 
	C448.311096,559.732483 453.636841,559.486511 458.933105,559.784668 
	C464.296448,560.086548 467.027374,563.763000 467.171875,570.563782 
M449.946777,572.691467 
	C451.757751,572.695496 453.571655,572.766174 455.379028,572.687195 
	C457.793427,572.581726 459.604218,571.572754 459.583862,568.872803 
	C459.563599,566.178101 457.678711,565.244934 455.323425,565.033752 
	C454.178986,564.931091 453.013733,564.891785 451.870605,564.983154 
	C450.143036,565.121216 447.864441,564.636597 447.453369,567.075317 
	C447.123169,569.034424 446.309540,571.448669 449.946777,572.691467 
z"/>
<path fill="#000000" opacity="1.000000" stroke="none" 
	d="
M794.911499,565.204346 
	C794.940735,561.845459 795.282837,559.407532 799.229004,559.673828 
	C803.314636,559.949463 802.240723,562.925354 802.299744,565.178772 
	C802.425720,569.992310 802.408936,574.812927 802.313904,579.627991 
	C802.206909,585.049011 800.078125,587.239197 794.808411,587.370605 
	C790.824585,587.470032 786.836182,587.395325 782.849854,587.383423 
	C778.196655,587.369446 775.724365,585.027710 775.660095,580.374573 
	C775.582092,574.728394 775.655640,569.080200 775.621338,563.433167 
	C775.607300,561.114746 776.262878,559.699341 778.989380,559.655884 
	C781.798035,559.611145 782.943726,560.860718 782.946350,563.490662 
	C782.951111,568.141113 783.020081,572.793030 782.925476,577.441589 
	C782.836060,581.838379 785.536987,582.575073 789.106506,582.643372 
	C792.655518,582.711243 794.928101,581.646057 794.877686,577.635498 
	C794.827637,573.650024 794.889526,569.663208 794.911499,565.204346 
z"/>
<path fill="#000000" opacity="1.000000" stroke="none" 
	d="
M693.008301,441.498169 
	C706.355042,439.888519 706.374756,439.880371 711.247375,451.638428 
	C712.813232,455.416931 714.244934,459.251068 715.925903,463.539062 
	C710.934326,464.776764 706.524292,464.260132 702.153870,464.125092 
	C700.869263,464.085449 700.151794,463.038452 699.694946,461.919281 
	C697.188477,455.779236 694.677979,449.640442 692.248718,443.469788 
	C692.061890,442.995239 692.491150,442.278107 693.008301,441.498169 
z"/>
<path fill="#000000" opacity="1.000000" stroke="none" 
	d="
M654.035889,586.452271 
	C649.391846,588.342346 646.645569,587.314270 645.137207,582.483276 
	C642.832336,575.101013 639.969788,567.892944 637.100159,559.934692 
	C649.421265,558.699890 645.263000,570.580627 650.783691,574.528564 
	C653.147461,571.577026 653.824585,567.623779 655.309204,564.086548 
	C657.355164,559.211792 657.512817,559.045410 663.715393,560.600403 
	C660.751282,569.211060 658.001099,577.835510 654.035889,586.452271 
z"/>
<path fill="#000000" opacity="1.000000" stroke="none" 
	d="
M711.766724,480.344879 
	C713.001282,483.939392 714.964172,486.909485 715.345825,490.664764 
	C710.830017,491.961609 706.534973,491.340576 702.287170,491.342926 
	C701.208740,491.343506 700.341370,490.713562 699.937561,489.747253 
	C697.150574,483.078094 694.413818,476.387909 691.552246,469.440796 
	C696.415710,468.172028 700.555969,468.790710 704.656067,468.713135 
	C706.731201,468.673889 707.483093,470.172455 708.149353,471.726624 
	C709.326599,474.472900 710.457031,477.239319 711.766724,480.344879 
z"/>
<path fill="#000000" opacity="1.000000" stroke="none" 
	d="
M522.424255,503.042755 
	C526.381409,504.937805 525.221497,508.676514 526.184875,511.502533 
	C527.588562,515.620239 526.916809,520.379395 530.726379,523.772705 
	C531.986816,524.895325 531.628967,527.167053 530.776062,528.892334 
	C518.254333,527.421387 509.882629,517.651306 510.767242,505.770081 
	C510.934479,503.523895 512.241211,502.970398 514.040039,502.929321 
	C516.689392,502.868866 519.341675,502.939880 522.424255,503.042755 
z"/>
<path fill="#000000" opacity="1.000000" stroke="none" 
	d="
M467.838959,527.836060 
	C466.159729,528.491272 464.927795,529.570007 463.205933,528.917114 
	C462.360870,526.397339 462.579437,524.438171 464.586029,522.211609 
	C467.974609,518.451599 467.356995,513.175720 468.566833,508.589294 
	C469.857605,503.696136 478.134033,500.423126 482.225037,503.431366 
	C483.366486,504.270691 483.412170,505.453186 483.198761,506.564514 
	C482.386475,510.794434 481.581207,515.034485 480.507812,519.202332 
	C479.789734,521.990295 477.477692,523.433838 474.951599,524.535522 
	C472.667877,525.531494 470.423431,526.617493 467.838959,527.836060 
z"/>
<path fill="#000000" opacity="1.000000" stroke="none" 
	d="
M551.198059,438.006836 
	C560.822998,437.994171 560.910217,437.959595 564.234375,446.347961 
	C565.548096,449.662964 567.643066,452.770233 567.709045,456.787933 
	C563.149353,457.755249 558.704590,457.236969 554.286377,457.192810 
	C553.234253,457.182312 552.300110,456.660797 551.878479,455.687683 
	C549.534668,450.278656 547.249390,444.844269 545.043579,439.652802 
	C547.079346,437.630829 548.994507,438.173279 551.198059,438.006836 
z"/>
<path fill="#000000" opacity="1.000000" stroke="none" 
	d="
M603.340454,574.064575 
	C603.338745,577.538147 603.322937,580.526917 603.341919,583.515381 
	C603.355469,585.645264 603.251831,587.522949 600.289734,587.495850 
	C597.576355,587.470947 595.771240,586.784424 595.811890,583.620422 
	C595.871643,578.972412 595.692261,574.319092 595.840454,569.675171 
	C595.950684,566.220459 595.065186,564.276245 591.071716,564.731506 
	C589.058655,564.960876 586.215759,565.234619 586.346191,561.966248 
	C586.465576,558.974487 589.160278,559.725769 590.993530,559.701660 
	C597.135620,559.620850 603.279663,559.662720 609.422729,559.703186 
	C611.125427,559.714355 612.918762,559.834167 612.964600,562.186523 
	C613.003906,564.204590 611.380249,564.864502 609.925110,564.694885 
	C602.412598,563.819153 603.180176,568.885071 603.340454,574.064575 
z"/>
<path fill="#000000" opacity="1.000000" stroke="none" 
	d="
M513.537781,560.582642 
	C519.885437,559.217896 520.260620,559.481384 520.297729,565.249451 
	C520.335999,571.203125 520.288818,577.157288 520.293152,583.111267 
	C520.294861,585.465698 519.949341,587.340881 516.861023,587.384338 
	C513.843628,587.426880 512.671265,586.101685 512.767517,583.213196 
	C513.014709,575.790955 512.201111,568.346069 513.537781,560.582642 
z"/>
<path fill="#000000" opacity="1.000000" stroke="none" 
	d="
M628.199097,586.267944 
	C622.335876,587.914673 621.732422,587.519531 621.675171,582.060974 
	C621.610596,575.898499 621.683899,569.734741 621.666382,563.571594 
	C621.659973,561.320862 622.139282,559.725281 624.935730,559.679077 
	C627.688721,559.633667 629.037109,560.793884 628.978149,563.470398 
	C628.813599,570.943481 629.632080,578.440735 628.199097,586.267944 
z"/>
<path fill="#000000" opacity="1.000000" stroke="none" 
	d="
M577.590942,581.450684 
	C577.511536,584.312988 578.693970,587.507874 574.197205,587.371460 
	C572.062012,587.306763 570.684753,586.655579 570.689026,584.248169 
	C570.701660,577.112488 570.604980,569.975708 570.702148,562.841431 
	C570.763672,558.322205 574.085693,559.972717 576.944214,559.883118 
	C578.339355,566.958801 577.425842,574.050049 577.590942,581.450684 
z"/>
</svg>