<svg id="Layer_1" data-name="Layer 1" xmlns="http://www.w3.org/2000/svg" viewBox="0 0 1600 341.58071"><defs><style>.cls-1{fill:#334046;}.cls-2{fill:#d13496;}.cls-3{fill:#f2bb44;}.cls-4{fill:#4faed0;}</style></defs><path class="cls-1" d="M138.39665,324.99883c-8.00827-4.53224-15.48869-8.72711-22.93283-12.98531Q61.47317,281.12972,7.46433,250.278c-2.93367-1.66935-4.15644-3.45081-4.14715-6.9559q.19117-72.19081.0293-144.38226c-.00666-3.74284.12115-5.27915,4.33537-2.85418q63.38957,36.47583,126.927,72.69484c2.29862,1.31466,4.16173,2.391,4.15032,5.86031-.162,49.28859-.11188,98.57788-.11985,147.867C138.63923,322.99809,138.54747,323.48842,138.39665,324.99883ZM59.8467,202.4478c0-15.59562-.04431-31.1915.04456-46.78661.01445-2.53509-.43842-4.26133-2.9203-5.61919Q43.2269,142.52248,29.7428,134.53305c-3.34172-1.98652-3.70609-.89967-3.69887,2.3156q.10679,47.53322-.01919,95.06663c-.00767,2.566.99381,3.8445,3.07771,5.0083,8.97381,5.01167,17.92057,10.07611,26.77638,15.29236,3.34495,1.9702,4.06056,1.173,4.02743-2.48411C59.7635,233.9716,59.84522,218.20933,59.8467,202.4478Zm22.50549-37.75c0,12.94558.03616,24.67651-.03409,36.40681-.01232,2.05745,1.20679,2.89065,2.69235,3.73469,9.21072,5.23322,18.45695,10.4068,27.58745,15.77681,3.12184,1.83608,3.53067.67769,3.50735-2.237-.08347-10.43523-.04468-20.87158-.01887-31.30741.00422-1.70644-.05341-3.18983-1.84683-4.20138C103.893,177.03463,93.593,171.11636,82.35219,164.69784Zm-.00582,64.39933c0,10.50808.50411,19.98615-.16909,29.37992-.48589,6.78,1.83409,10.45663,7.85528,13.38889,8.71586,4.24455,16.9558,9.46563,26.03549,14.63243,0-12.64963-.00134-24.41567.002-36.18174a2.96706,2.96706,0,0,0-1.4134-2.94779C104.1496,241.44,93.65225,235.494,82.34637,229.09717Z"/><path class="cls-1" d="M342.11026,176.56261c-.0007-25.73242.08375-51.46542-.09433-77.19661-.02589-3.73872.91171-4.71079,4.64625-4.62915,24.56482.5369,49.15927-.818,73.704,1.117,12.66083.99812,24.96028,3.12042,35.77016,10.58153,12.0559,8.32115,15.42635,20.29887,14.31934,33.934-1.11354,13.71636-8.55069,23.31891-20.80307,29.35517-1.27879.63-3.5503.55008-3.59955,2.14662-.0685,2.22089,2.48344,1.68657,3.84722,2.20552a41.8851,41.8851,0,0,1,27.464,40.99c-.67453,19.06656-12.41735,33.45668-31.75973,39.242-10.65407,3.1866-21.62375,3.45732-32.54809,3.61915-22.2503.32966-44.5082.11975-66.76048.36368-3.68855.04041-4.27227-1.23378-4.25585-4.53178C342.16815,228.02781,342.111,202.29506,342.11026,176.56261Zm57.66311,11.78709c-8.80756,0-16.11424.1059-23.41513-.05312-2.84626-.062-3.689.92737-3.65974,3.71995q.18784,17.92005-.00159,35.84293c-.03525,3.196.94667,4.33937,4.2724,4.29192,12.61407-.18,25.233.00286,37.8481-.13595a44.84683,44.84683,0,0,0,17.89722-3.86c7.51107-3.36881,12.08532-9.02832,12.11921-17.73969.04174-10.72855-6.82982-18.37634-18.76663-20.914C416.84969,187.542,407.53294,188.7707,399.77337,188.3497Zm-1.17527-66.35079c-8.30335,0-15.26479.08406-22.2224-.04159-2.76358-.04991-3.796.88084-3.7629,3.72737q.188,16.14858.00341,32.30038c-.0369,3.19929,1.03223,4.345,4.32311,4.29257q16.15284-.25741,32.31209-.01326a52.37322,52.37322,0,0,0,16.09717-2.43543c9.051-2.73309,13.81091-9.2527,13.65492-18.7907-.14839-9.076-4.93339-14.65283-14.08381-17.37357C415.77225,120.94482,406.47132,122.55971,398.5981,121.99891Z"/><path class="cls-1" d="M730.62819,148.45478c0,12.01275.01406,23.42233-.00292,34.83189-.03474,23.40858-.16,46.81748-.052,70.22535.01643,3.55912-.64708,4.9887-4.58146,4.79041-6.95785-.35061-13.95148-.26045-20.91919-.02737-3.2296.108-4.24483-.79557-4.17906-4.11279.2105-10.62108.07793-21.249.07793-31.87419-.00018-40.67477.09394-81.35-.12667-122.0236-.02585-4.76668,1.44579-5.813,5.784-5.52766,5.45773.35893,10.95592.12132,16.43659.10483a11.86372,11.86372,0,0,1,10.20371,5.016q25.24059,33.28522,50.71158,66.39583c9.94021,12.98329,19.91217,25.94236,30.04074,39.135,1.65635-1.61472,1.0482-3.34709,1.05629-4.84866.18155-33.53369.39577-67.06769.36072-100.6014-.00432-4.09363.942-5.43867,5.14465-5.21467,6.79012.36192,13.61778.23541,20.4211.03141,2.88787-.0866,3.55321.89278,3.54926,3.6421q-.11179,77.94571.00055,155.89157c.00419,2.86916-.47036,4.117-3.75,3.9977-7.298-.2655-14.61421-.17725-21.91879-.02868a5.92474,5.92474,0,0,1-5.35126-2.75738Q774.753,204.46626,735.8464,153.52738C734.58063,151.86794,734.05954,149.5386,730.62819,148.45478Z"/><path class="cls-1" d="M1123.19679,259.59526c-34.28929-1.8805-61.39075-16.2918-76.538-47.92262-12.591-26.29293-10.36657-66.13512,14.62242-91.2363,13.297-13.3568,29.72535-21.006,48.13272-24.05519,30.16862-4.99751,57.82494,1.16467,80.16254,22.64475,18.24761,17.547,26.20883,39.965,23.85823,65.42634a80.92893,80.92893,0,0,1-59.0264,71.12982C1144.26881,258.41032,1133.83629,259.05327,1123.19679,259.59526Zm-52.50842-82.70544c-.00036,30.483,25.46245,55.468,56.52663,55.46589,30.27157-.002,55.09556-25.11936,55.0722-55.72295-.02276-29.91316-24.83288-54.62053-54.852-54.625C1095.74623,122.003,1070.68874,146.2371,1070.68837,176.88982Z"/><path class="cls-1" d="M526.48677,176.57412c.00018-25.73146.08305-51.46349-.09217-77.19376-.02525-3.71862.89233-4.66475,4.63354-4.64966q55.7996.22506,111.60028-.00053c3.70628-.01487,4.85068.84756,4.63956,4.61854-.34277,6.12319-.28631,12.28806-.01588,18.41848.14711,3.33457-.97714,4.08845-4.16623,4.09076-26.40509.0192-52.811.38672-79.214.21994-5.2468-.03314-6.3814,1.53384-6.19268,6.41746.37788,9.78.28887,19.58943.02933,29.37706-.1041,3.92618,1.06591,5.12046,5.0307,5.0952,23.41537-.14918,46.83276.02958,70.24837-.10369,3.72892-.02122,5.377.65758,5.09276,4.84965a137.3459,137.3459,0,0,0-.00572,17.419c.22876,3.84009-1.08665,4.68262-4.7425,4.67753-23.24922-.03249-46.4993.29707-69.748.21065-4.49884-.01672-6.06686,1.06457-5.90491,5.78361.35847,10.44633.25468,20.91635.03626,31.37038-.07738,3.70636,1.073,4.81227,4.79331,4.813,27.23537.00557,54.47134.35339,81.70562.24059,4.59588-.019,5.57874,1.38337,5.30374,5.55893a120.31578,120.31578,0,0,0,.00536,15.92543c.26015,3.87457-1.13448,4.58855-4.74573,4.57475-36.03733-.1379-72.07539-.0839-108.1132-.08341-10.17554.00012-10.17724.00116-10.17773-10.41184Q526.48526,212.18315,526.48677,176.57412Z"/><path class="cls-1" d="M1344.29511,213.707c5.66513-10.99087,10.97776-21.21754,16.2186-31.481,13.68148-26.794,27.43182-53.55389,40.90936-80.45025,2.69945-5.38726,6.32853-7.659,12.22522-6.99724,4.40807.49465,10.19391-1.82442,12.9441.89792,2.75433,2.72634.832,8.49888.83752,12.9254.05937,48.14182-.01351,96.2839.12679,144.42537.01168,4.03063-.84227,5.3781-5.11965,5.28694-12.34982-.26325-12.335-.06124-12.35773-12.40506q-.10714-58.2666-.24883-116.53313a7.90856,7.90856,0,0,0-1.07127-4.33931c-4.38,8.42676-8.794,16.83607-13.13367,25.28354q-21.20647,41.2797-42.387,82.57255a38.32174,38.32174,0,0,1-3.13908,5.06278c-3.476,4.75615-8.40681,4.85613-11.895.07082-4.60422-6.3162-7.8629-13.431-11.39439-20.35877-13.89563-27.25939-27.65961-54.58579-41.5208-81.86278-1.68757-3.321-3.66826-6.49329-5.55368-9.80585-2.5701,1.36975-1.58231,3.57481-1.65532,5.33865-1.67735,40.48776-.9289,80.99822-.95068,121.5-.00231,4.21776-.7594,5.65868-5.33368,5.49609-10.88359-.38688-10.89527-.11449-10.89539-10.803-.00085-49.13794.06242-98.2761-.11-147.41344-.01521-4.35676.9822-5.50682,5.39294-5.40549,20.74714.47664,15.388-2.14421,24.21682,14.73835,15.80076,30.21428,31.16128,60.65838,46.73547,90.99116C1339.30748,204.67072,1341.64822,208.81336,1344.29511,213.707Z"/><path class="cls-1" d="M953.06936,94.82155c20.5898.00045,41.18076.114,61.76832-.101,3.84578-.04014,4.79379,1.06828,4.61127,4.71578a160.64221,160.64221,0,0,0,.01375,17.91621c.24421,3.94511-1.25281,4.58117-4.78771,4.58472-13.61358.01362-27.22795.55-40.83945.46881-4.203-.025-4.87611,1.4881-4.86273,5.19931.15022,41.66136.074,83.32366.2941,124.98449.02409,4.5614-1.12766,5.99694-5.73279,5.71974a175.84613,175.84613,0,0,0-20.41154-.003c-4.14591.23344-4.85548-1.30287-4.8564-5.03827-.00784-31.5364-.19833-63.07281-.36236-94.60908-.05347-10.29061-.36138-20.58345-.203-30.86987.06054-3.93524-.76475-5.42189-5.12482-5.38984-13.77717.10125-27.55818-.45309-41.33791-.46368-3.4917-.00269-4.53334-.96561-4.37095-4.4432.28606-6.128.30176-12.29017-.00585-18.41613-.18-3.58562,1.03324-4.35927,4.43934-4.33337C911.8892,94.89973,932.47955,94.82109,953.06936,94.82155Z"/><path class="cls-2" d="M116.38922,29.57235c7.16025-4.10838,13.67633-7.72987,20.06018-11.571,2.36821-1.42494,4.07015-.328,5.94088.74176Q180.642,40.61824,218.892,62.49623C235.88978,72.22076,252.84737,82.0165,269.91325,91.62c2.69936,1.519,3.57192,3.26443,3.56651,6.28289q-.13128,72.9746.00441,145.94943c.006,3.06736-.94581,4.85381-3.63811,6.26906-4.9918,2.624-9.92944,5.38912-14.676,8.42884-3.76755,2.41276-4.56951,1.50109-4.55758-2.6851.10586-37.19278.06236-74.386.06272-111.57906.00013-10.6266-.26882-21.26317.12567-31.87512.16861-4.53664-1.55156-6.7594-5.29551-8.8849Q183.37146,68.25126,121.4033,32.68479C119.977,31.86921,118.608,30.95369,116.38922,29.57235Z"/><path class="cls-3" d="M228.48089,196.34726c.00047,24.23455-.08206,48.46974.0924,72.703.02519,3.49973-1.123,5.47456-4.07973,7.05514-5.26238,2.81306-10.42154,5.82742-15.54075,8.89609-2.32384,1.393-3.33148,1.06237-3.22349-1.74351.04465-1.16013.00248-2.32355.00248-3.48548.0002-47.30719-.08185-94.61475.12916-141.921.02105-4.71638-1.66513-7.03183-5.53416-9.22735Q138.85347,93.74086,77.54269,58.57139c-.72019-.41153-1.374-.95356-2.12087-1.30151-3.35708-1.564-2.90351-2.84566.07492-4.44493,4.96844-2.66782,9.90431-5.42012,14.67973-8.4144,2.90613-1.82219,5.29211-1.71694,8.25143-.01175q41.83005,24.103,83.78432,47.99045c13.68284,7.82406,27.31928,15.73174,41.09148,23.3955,3.68622,2.05125,5.3747,4.27178,5.317,8.85653C228.31992,148.54008,228.48043,172.44468,228.48089,196.34726Z"/><path class="cls-4" d="M26.75158,80.84888C33.97846,76.66111,40.46233,73,46.8378,69.15909c2.33528-1.40688,4.06106-.34932,5.94939.73158q39.09183,22.37658,78.19234,44.738c15.84113,9.05769,31.626,18.21726,47.58566,27.06162,3.97809,2.20453,5.39627,4.738,5.37829,9.34211q-.27892,71.44853-.03463,142.89855c.00954,3.74042-.78127,6.15528-4.36336,7.87562a127.64474,127.64474,0,0,0-13.83539,7.86415c-3.8112,2.4578-4.28508.9581-4.26782-2.66.091-19.086.04382-38.17262.044-57.259.00034-28.54663-.1148-57.0942.11694-85.639.03734-4.59839-1.42149-7.0602-5.37921-9.30437Q93.02879,118.97419,30.02032,82.81081C29.1828,82.33222,28.36514,81.8189,26.75158,80.84888Z"/><path class="cls-1" d="M1496.22689,176.025c0-25.55914.08542-51.11889-.0943-76.67676-.02616-3.73744.89994-5.0389,4.641-4.57545,4.38082.54272,10.27848-1.87318,12.8021,1.014,2.1665,2.47866.69394,8.20338.69808,12.49279.042,42.65385.11377,85.30791-.00925,127.96136-.01253,4.32731.78994,5.92295,5.61184,5.86167,20.58384-.2616,41.17474.07426,61.761-.08915,3.83728-.03044,4.62953,1.10387,4.57453,4.721-.17388,11.46622-.01837,11.46853-11.66464,11.46859-24.57273.00018-49.14606-.0804-73.71757.08836-3.65281.02509-4.72614-.78547-4.69913-4.59391C1496.31487,227.80779,1496.22689,201.91608,1496.22689,176.025Z"/></svg>