<svg id="Layer_1" data-name="Layer 1" xmlns="http://www.w3.org/2000/svg" viewBox="0 0 216 216"><defs><style>.cls-1{fill:#ee5a23;}.cls-2{fill:#f99d0e;}.cls-3{fill:#28aae1;}.cls-4{fill:#03a551;}.cls-5{fill:#b3cf04;}.cls-6{fill:#873590;}.cls-7{fill:#03a9ad;}.cls-8{fill:#ec1265;}.cls-9{fill:#dd0931;}.cls-10{fill:#6a2472;}.cls-11{fill:#048d92;}.cls-12{fill:#88b405;}.cls-13{fill:#168bd2;}.cls-14{fill:#058a3e;}</style></defs><title>bokeh</title><path class="cls-1" d="M74.88021,183.96945c-7.09978-.56761-14.22977-.88889-21.29288-1.75548-13.589-1.66726-21.76081-10.47131-22.53325-24.226-.39074-6.95783-.28419-13.94358-.402-20.91656q5.2769.48625,10.55294.97216c.33369.3,1.01982.22635,1.39335.28917,12.39238,2.08415,24.40814,4.68543,36.80183,6.762,8.76164,1.468,17.51194,3.00372,27.09761,4.652-4.825,5.14195-9.21775,9.40353-13.10328,14.086-3.64024,4.38684-6.31794,7.24374-10.91571,13.17247C79.1057,178.40981,77.17286,181.38591,74.88021,183.96945Z"/><path class="cls-2" d="M41.20493,138.04359q-5.27622-.486-10.55288-.97221c-4.30651-4.80433-8.86323-9.40944-12.86815-14.45276-9.27343-11.67774-8.754-24.07066,1.38663-35.03,4.38469-4.73865,9.16264-9.11341,13.76214-13.65383q2.58425,3.03205,5.16761,6.065c1.03884,1.67091,1.99392,3.40142,3.13048,5.00316q16.86455,23.76668,33.76818,47.50559c.64109.903,1.91088,1.74725,1.40084,2.96868-.53925,1.29141-2.02106.84153-3.10174.84893A277.16093,277.16093,0,0,0,41.20493,138.04359Z"/><path class="cls-3" d="M197.40741,91.89513c10.36774,10.645,10.9897,24.23911,1.23956,35.29225-4.50368,5.1056-9.61611,9.67422-14.45067,14.48309-3.70211-2.62746-6.35968-6.272-9.34837-9.59335.65676-2.1668-1.05855-3.38063-2.05455-4.7988-5.4408-7.74682-10.96954-15.43185-16.46426-23.14082-5.01315-7.03329-10.059-14.044-14.97633-21.14374-.5154-.74411-3.50681-2.8156.63982-2.8081,5.71028,2.83989,12.07855,2.9925,18.14551,4.32258C172.5076,87.22008,184.84966,90.11605,197.40741,91.89513Z"/><path class="cls-4" d="M128.98107,42.59886c-8.70679,6.04928-17.20267,12.40438-25.95381,18.38694-7.32365,5.00668-13.94551,11.05426-22.015,14.96092,1.4897-7.60186,3.03907-15.19262,4.45508-22.80818,2.10924-11.34373,5.39472-22.45977,6.57308-33.98277C102.637,8.76015,116.07225,7.97355,127.18915,17.53346c5.24994,4.51464,9.90216,9.72433,14.82446,14.61855-1.63192,2.88669-4.63521,4.24994-7.01052,6.31069"/><path class="cls-5" d="M34.0141,56.97661C34.30436,40.3228,44.00118,30.88179,61.559,30.35315c5.808-.17486,11.62712.01767,17.44151.04191q-.02527,4.25391-.05124,8.50844c-3.03733,7.35694-3.396,15.28232-4.78588,22.97872C71.74976,75.2477,69.62233,88.66473,67.268,102.04134c-.174.98883.84224,3.95935-2.28881,2.267L63.843,103.06425l.10171.13986L62.82258,102.085l-.05372.13357c.65905-2.18612-.48508-3.8528-1.60376-5.51852-2.30772-3.43622-4.59358-6.88783-6.94811-10.29183C47.44766,76.62167,41.65939,66.1615,34.0141,56.97661Z"/><path class="cls-6" d="M182.813,158.9314c-.45329,16.50728-9.94188,26.17171-26.46769,26.70941-6.13679.19968-12.28755-.03062-18.43212-.06477-.16734-3.48492-.74-7.009.99464-10.31128.35822-1.791.7592-3.57395,1.06637-5.373,3.21018-18.80109,7.1364-37.49745,9.54523-56.41736.557-4.37466,1.98728-1.979,3.46649-.19341-.22964,2.1295.97972,3.408,2.10764,5.08772,5.59336,8.32966,11.24691,16.47186,16.42249,25.10556C174.76638,148.8964,177.91582,154.615,182.813,158.9314Z"/><path class="cls-7" d="M119.54676,60.65391c10.004-6.43849,19.93336-12.99377,29.84847-19.56914,3.37287-2.23677,7.383-3.681,9.57755-7.44311,16.68232.11725,26.61622,10.00818,26.97566,26.96513.12965,6.117.06455,12.238.08851,18.35756a56.33249,56.33249,0,0,1-11.50753.014c-4.44224-1.74-6.88875-1.766-11.19558-2.82176-16.27869-3.99037-33.068-6.46468-49.5928-9.26733-.821-.13923-3.09916.54766-1.91077-1.88761"/><path class="cls-8" d="M74.88021,183.96945c2.29265-2.58354,4.22549-5.55964,7.6-6.96446.8411-.53076,1.70579-1.026,2.51687-1.59732q25.03421-17.63427,50.0574-35.28418c.18532,3.8553-.95022,7.50991-1.69623,11.22514q-4.62314,23.02413-9.22979,46.05156C112.749,207.62744,99.666,207.85624,88.51487,197.725,83.74306,193.3896,79.4117,188.56939,74.88021,183.96945Z"/><path class="cls-9" d="M124.12842,197.40019q4.61356-23.02605,9.22979-46.05156c.746-3.71523,1.88155-7.36984,1.69591-11.225a4.75835,4.75835,0,0,1,.8264-.21083c.07914-.00721.241.21842.26277.35368,1.39689,8.693.63051,17.46957,1.009,26.20239.13088,3.01929-.25572,6.14907,1.75473,8.79641-1.73382,3.30174-1.16118,6.82582-.99384,10.31074Q131.021,191.488,124.12842,197.40019Z"/><path class="cls-10" d="M182.813,158.9314c-4.89721-4.31642-8.04665-10.035-11.297-15.4571-5.17558-8.6337-11.02281-16.7759-16.61617-25.10556-1.12792-1.67972-2.28061-4.05968-4.42014-7.63365,4.14009,3.827,10.64967,9.97641,14.97225,13.5846,3.11507,2.60024,4.95,4.12888,9.39549,7.75745,2.98911,3.32131,5.64668,6.96587,9.34879,9.59333Q183.50279,150.30414,182.813,158.9314Z"/><path class="cls-11" d="M142.01361,32.152c-1.6319,2.88666-4.63519,4.24994-7.0105,6.31067L112.094,64.94629c11.42438-5.61386,27.38613-17.28613,37.30123-23.86151,3.37293-2.23676,7.383-3.681,9.57758-7.44312Q150.49354,32.89715,142.01361,32.152Z"/><path class="cls-12" d="M34.0141,56.97661C41.65939,66.1615,47.44766,76.62167,54.217,86.40822c2.35453,3.404,4.64039,6.85561,6.94811,10.29183,1.11868,1.66572,4.47347,5.42276,3.81409,7.60829-3.04765-2.80066-8.21842-7.794-11.37252-10.46812C48.31882,89.357,44.13114,83.64453,38.10076,79.99964Q35.51681,76.967,32.93267,73.9348,33.47321,65.45608,34.0141,56.97661Z"/><path class="cls-13" d="M174.14206,78.78464c3.70176-.39243,7.86689.64867,11.89489.17971q5.68449,6.46521,11.36991,12.93093c-12.5572-1.77923-24.89926-4.6752-37.26874-7.387-6.067-1.33008-12.43523-1.48269-18.14534-4.3226,8.542-.35557,17.08746-.64519,25.62322-1.11218C169.79809,78.95407,171.42881,79.07228,174.14206,78.78464Z"/><path class="cls-14" d="M78.94929,38.9035q.02578-4.25438.05124-8.50844L92.0404,19.15577c-1.17834,11.523-4.46382,22.639-6.57306,33.98277-1.416,7.61556-2.96538,15.20632-4.45512,22.8082-1.69745-1.208-.9001-3.00107-.95909-4.52485C79.63357,60.58443,79.30609,49.74339,78.94929,38.9035Z"/><path class="cls-12" d="M63.94475,103.20411a1.18115,1.18115,0,0,1-1.12141-1.11856Q63.38328,102.64429,63.94475,103.20411Z"/><path class="cls-12" d="M64.97919,104.30834q-.56775-.6213-1.13582-1.24334Q64.41094,103.68591,64.97919,104.30834Z"/></svg>