<svg id="Layer_1" data-name="Layer 1" xmlns="http://www.w3.org/2000/svg" xmlns:xlink="http://www.w3.org/1999/xlink" viewBox="0 0 1200 260"><defs><style>.cls-1{fill:#252525;}.cls-2{fill:#1c60f7;}.cls-3{fill:#f7931e;}.cls-4{fill:url(#linear-gradient);}.cls-5{fill:url(#linear-gradient-2);}.cls-6{fill:url(#linear-gradient-3);}.cls-7{fill:url(#linear-gradient-4);}</style><linearGradient id="linear-gradient" x1="72.4367" y1="228.76001" x2="72.4367" y2="29.06" gradientUnits="userSpaceOnUse"><stop offset="0" stop-color="#7b26ba"/><stop offset="1" stop-color="#fe610d"/></linearGradient><linearGradient id="linear-gradient-2" x1="143.90499" y1="228.71001" x2="143.90499" y2="98.3" gradientUnits="userSpaceOnUse"><stop offset="0" stop-color="#7b26ba"/><stop offset="0.21972" stop-color="#a13788"/><stop offset="0.48011" stop-color="#c94953"/><stop offset="0.70652" stop-color="#e6562d"/><stop offset="0.88733" stop-color="#f75e16"/><stop offset="1" stop-color="#fe610d"/></linearGradient><linearGradient id="linear-gradient-3" x1="135.69701" y1="44.90441" x2="103.63029" y2="82.76056" gradientTransform="matrix(1, 0, 0, -1, 0, 262)" gradientUnits="userSpaceOnUse"><stop offset="0.25" stop-color="#4872f9"/><stop offset="0.37" stop-color="#4e6bf0"/><stop offset="0.57" stop-color="#5d59d9"/><stop offset="0.82" stop-color="#773cb2"/><stop offset="1" stop-color="#8b2493"/></linearGradient><linearGradient id="linear-gradient-4" x1="116.6721" y1="61.03347" x2="73.1821" y2="87.33348" xlink:href="#linear-gradient-3"/></defs><title>botorch</title><path class="cls-1" d="M426.61,179.06c0,28.48-18,49.7-63.07,49.7H307.72V47.08h52.91c43.31,0,60.17,19.48,60.17,46.52,0,16.85-10.76,38.07-38.66,43C411.5,140.39,426.61,157.26,426.61,179.06ZM360.05,58.13H319.93v74.13H358.3c28.49,0,50.29-12.5,50.29-37.79C408.59,72.67,394.35,58.13,360.05,58.13ZM358.3,143.3H319.93v74.42h43.9c37.2,0,50.57-16.28,50.57-38.95C414.4,157.55,397.84,143.3,358.3,143.3Z"/><path class="cls-1" d="M514.12,231.67c-36.05,0-64.24-26.74-64.24-68.89s29.35-70.06,65.4-70.06,64.24,26.75,64.24,68.9S550.16,231.67,514.12,231.67Zm.58-128.19c-30.23,0-52.91,24.42-52.91,58.72,0,36.33,22.39,58.72,52.91,58.72,30.23,0,52.9-24.42,52.9-58.72C567.6,125.86,544.93,103.48,514.7,103.48Z"/><path class="cls-2" d="M645.72,58.42V228.76H633.51V58.42H569.27V47.08H710V58.42Z"/><path class="cls-2" d="M764,231.67c-36.05,0-64.25-26.74-64.25-68.89s29.36-70.06,65.41-70.06,64.24,26.75,64.24,68.9S800,231.67,764,231.67Zm.58-128.19c-30.24,0-52.91,24.42-52.91,58.72,0,36.33,22.38,58.72,52.91,58.72,30.23,0,52.9-24.42,52.9-58.72-.05005-36.34-22.72-58.72-52.95-58.72Z"/><path class="cls-2" d="M871.3,228.76H859.38V96.5l11.92-3.78v33.14c7.85-19.48,23-33.14,41-33.14a48.12019,48.12019,0,0,1,21.8,5.53L930.6,109a37.91988,37.91988,0,0,0-19.47-5.23c-15.12,0-28.78,11.34-39.83,41.28Z"/><path class="cls-2" d="M1003.36,231.67c-37.79,0-64.53-28.49-64.53-68.89s26.45-70.06,63.08-70.06c15.7,0,29.65,4.07,40.11,11l-2.9,10.75a69.51,69.51,0,0,0-37.21-10.75C972,103.77,951,128.48,951,162.2c0,34,20.64,58.42,52.32,58.42,12.79,0,25.87-4.94,35.47-11l2.9,10.75C1031,227,1017.32,231.67,1003.36,231.67Z"/><path class="cls-2" d="M1157.28,228.76V140.39c0-23.54-9.88-36.62-31.39-36.62-15.12,0-31.39,8.43-45.93005,23v102H1068V32.84l12-3.78v86.63c15.41-15.7,34.59-23,47.38-23,26.17,0,41.86,15.7,41.86,45.06v91Z"/><path class="cls-3" d="M100.06,133.53c5.86,14.18,12.64,28.17,18.49,41.91C135.63,152.91,145,128.61,145,98.3c-19.42-35.54-43.62-67.51-44.88-69.17h0C122.84,64.28,114.14,99.43,100.06,133.53Z"/><path class="cls-4" d="M100.08,29.14v-.08S75.05,61.8,55.1,98.3c-13.26,24.25-24.3,50.16-24.3,69.22,0,29.88,16.4,50.68,36.93,61.24,0-17.2,6.09-35,13.86-53.32,5.84-13.74,12.62-27.73,18.47-41.91C114.14,99.43,122.84,64.28,100.08,29.14Z"/><path class="cls-5" d="M169.26,167.52c0-19.06-11-45-24.3-69.22,0,30.31-9.33,54.61-26.41,77.14,7.76,18.27,13.86,36.09,13.87,53.27C152.91,218.14,169.26,197.35,169.26,167.52Z"/><path class="cls-6" d="M100.08,196.42v.05l32.29,32.29a.30954.30954,0,0,0,.1,0c0-17.18-6.11-35-13.87-53.27A204.00166,204.00166,0,0,1,100.08,196.42Z"/><path class="cls-7" d="M100.06,133.53c-5.85,14.18-12.63,28.17-18.47,41.91-7.77,18.29-13.86,36.12-13.86,53.32h0L100,196.47v-.05a203.99974,203.99974,0,0,0,18.47-21C112.7,161.7,105.92,147.71,100.06,133.53Z"/></svg>