<?xml version="1.0" encoding="utf-8"?>
<!-- Generator: Adobe Illustrator 26.4.0, SVG Export Plug-In . SVG Version: 6.00 Build 0)  -->
<svg version="1.1" id="Layer_1" xmlns="http://www.w3.org/2000/svg" xmlns:xlink="http://www.w3.org/1999/xlink" x="0px" y="0px"
	 viewBox="0 0 877 365" style="enable-background:new 0 0 877 365;" xml:space="preserve">
<style type="text/css">
	.st0{fill:#000B1B;}
	.st1{fill:#FFFFFF;}
	.st2{fill:#FF9D00;}
	.st3{fill-rule:evenodd;clip-rule:evenodd;fill:#FFD21E;}
	.st4{fill-rule:evenodd;clip-rule:evenodd;fill:#32343D;}
	.st5{fill:#FF323D;}
	.st6{fill-rule:evenodd;clip-rule:evenodd;fill:#FFAD03;}
</style>
<path class="st0" d="M248.5,161V92.1h18.2v25.6h20.6V92.1h18.2V161h-18.2v-27.3h-20.6V161H248.5z M335.4,162.3
	c-5.8,0-10-1.9-12.6-5.8c-2.6-4-3.9-9.2-3.9-15.8V108h18.2v30.3c0,3.4,0.4,5.6,1.3,6.8c0.9,1.1,2.3,1.7,4,1.7c1.7,0,3.1-0.4,4.2-1.1
	c1.1-0.7,2.3-1.9,3.4-3.6V108h18.2v53h-14.8l-1.3-7h-0.4c-2.1,2.5-4.5,4.6-7.1,6C342,161.5,339,162.3,335.4,162.3z M399.8,182.8
	c-4,0-7.7-0.5-11.1-1.4c-3.4-0.8-6.1-2.2-8.2-4.1c-2-1.9-3-4.4-3-7.6c0-4.2,2.5-7.6,7.4-10.2v-0.4c-1.4-1-2.5-2.2-3.5-3.6
	c-0.9-1.5-1.4-3.3-1.4-5.5c0-1.8,0.5-3.6,1.6-5.4c1.1-1.8,2.6-3.3,4.3-4.6v-0.4c-1.9-1.3-3.6-3.1-5.1-5.4c-1.4-2.4-2.1-5.1-2.1-8.2
	c0-4.4,1.1-8,3.2-10.8c2.2-2.9,5-5,8.5-6.4c3.5-1.4,7.1-2.1,11-2.1c3.1,0,5.9,0.4,8.5,1.3h19.7v13.1H422c0.2,0.6,0.4,1.4,0.5,2.4
	c0.2,1,0.3,2,0.3,3.1c0,4.2-1,7.6-2.9,10.2c-1.9,2.5-4.5,4.4-7.7,5.6c-3.2,1.2-6.9,1.8-10.8,1.8c-1.8,0-3.7-0.2-5.9-0.7
	c-0.8,0.8-1.3,1.8-1.3,3.1c0,1.1,0.6,1.9,1.7,2.4c1.2,0.5,3.1,0.7,5.7,0.7h7.9c6.6,0,11.8,1.1,15.4,3.3c3.7,2.1,5.5,5.6,5.5,10.5
	c0,3.8-1.3,7.2-3.8,10.1c-2.5,2.9-6,5.2-10.6,6.8C411.5,182,406.1,182.8,399.8,182.8z M401.5,133.5c1.7,0,3.1-0.6,4.1-1.8
	c1.1-1.2,1.6-3.1,1.6-5.6c0-2.5-0.5-4.3-1.6-5.4c-1.1-1.2-2.4-1.8-4.1-1.8c-1.7,0-3.1,0.6-4.1,1.8c-1.1,1.1-1.6,2.9-1.6,5.4
	c0,2.5,0.5,4.4,1.6,5.6C398.4,132.9,399.8,133.5,401.5,133.5z M402.8,171.6c3,0,5.4-0.5,7.4-1.4c2-0.8,3-2,3-3.5
	c0-1.4-0.6-2.3-1.9-2.6c-1.2-0.4-2.9-0.5-5.2-0.5h-4.1c-2.1,0-3.7-0.1-4.9-0.2c-1.1-0.1-2-0.2-2.8-0.4c-1.3,1.3-1.9,2.5-1.9,3.8
	c0,1.7,1,2.9,2.9,3.7C397.2,171.2,399.7,171.6,402.8,171.6z M457.6,182.8c-4,0-7.7-0.5-11.1-1.4c-3.4-0.8-6.1-2.2-8.2-4.1
	c-2-1.9-3-4.4-3-7.6c0-4.2,2.5-7.6,7.4-10.2v-0.4c-1.4-1-2.5-2.2-3.5-3.6c-0.9-1.5-1.4-3.3-1.4-5.5c0-1.8,0.5-3.6,1.6-5.4
	c1.1-1.8,2.6-3.3,4.3-4.6v-0.4c-1.9-1.3-3.6-3.1-5.1-5.4c-1.4-2.4-2.1-5.1-2.1-8.2c0-4.4,1.1-8,3.2-10.8c2.2-2.9,5-5,8.5-6.4
	c3.5-1.4,7.1-2.1,11-2.1c3.1,0,5.9,0.4,8.5,1.3h19.7v13.1h-7.6c0.2,0.6,0.4,1.4,0.5,2.4c0.2,1,0.3,2,0.3,3.1c0,4.2-1,7.6-2.9,10.2
	c-1.9,2.5-4.5,4.4-7.7,5.6c-3.2,1.2-6.9,1.8-10.8,1.8c-1.8,0-3.7-0.2-5.9-0.7c-0.8,0.8-1.3,1.8-1.3,3.1c0,1.1,0.6,1.9,1.7,2.4
	c1.2,0.5,3.1,0.7,5.7,0.7h7.9c6.6,0,11.8,1.1,15.4,3.3c3.7,2.1,5.5,5.6,5.5,10.5c0,3.8-1.3,7.2-3.8,10.1c-2.5,2.9-6,5.2-10.6,6.8
	C469.3,182,463.9,182.8,457.6,182.8z M459.3,133.5c1.7,0,3.1-0.6,4.1-1.8c1.1-1.2,1.6-3.1,1.6-5.6c0-2.5-0.5-4.3-1.6-5.4
	c-1.1-1.2-2.4-1.8-4.1-1.8c-1.7,0-3.1,0.6-4.1,1.8c-1.1,1.1-1.6,2.9-1.6,5.4c0,2.5,0.5,4.4,1.6,5.6
	C456.2,132.9,457.6,133.5,459.3,133.5z M460.6,171.6c3,0,5.4-0.5,7.4-1.4c2-0.8,3-2,3-3.5c0-1.4-0.6-2.3-1.9-2.6
	c-1.2-0.4-2.9-0.5-5.2-0.5h-4.1c-2.1,0-3.7-0.1-4.9-0.2c-1.1-0.1-2-0.2-2.8-0.4c-1.3,1.3-1.9,2.5-1.9,3.8c0,1.7,1,2.9,2.9,3.7
	C455,171.2,457.5,171.6,460.6,171.6z M496.2,161v-53h18.2v53H496.2z M505.3,101.5c-3,0-5.4-0.8-7.2-2.4c-1.8-1.7-2.8-3.9-2.8-6.7
	c0-2.8,0.9-4.9,2.8-6.6c1.8-1.7,4.2-2.5,7.2-2.5s5.4,0.8,7.2,2.5c1.8,1.6,2.8,3.8,2.8,6.6c0,2.8-0.9,5-2.8,6.7
	C510.6,100.7,508.2,101.5,505.3,101.5z M526.7,161v-53h14.8l1.3,6.4h0.4c2.1-2,4.5-3.8,7.2-5.3c2.8-1.6,5.9-2.3,9.5-2.3
	c5.9,0,10.1,2,12.6,5.9c2.6,3.9,3.9,9.1,3.9,15.7V161h-18.2v-30.3c0-3.4-0.4-5.6-1.3-6.8c-0.8-1.1-2.2-1.7-4-1.7
	c-1.7,0-3.1,0.4-4.2,1.1c-1.1,0.7-2.4,1.7-3.8,3V161H526.7z M607.6,182.8c-4,0-7.7-0.5-11.1-1.4c-3.4-0.8-6.1-2.2-8.2-4.1
	c-2-1.9-3-4.4-3-7.6c0-4.2,2.5-7.6,7.4-10.2v-0.4c-1.4-1-2.5-2.2-3.5-3.6c-0.9-1.5-1.4-3.3-1.4-5.5c0-1.8,0.5-3.6,1.6-5.4
	c1.1-1.8,2.6-3.3,4.3-4.6v-0.4c-1.9-1.3-3.6-3.1-5.1-5.4c-1.4-2.4-2.1-5.1-2.1-8.2c0-4.4,1.1-8,3.2-10.8c2.2-2.9,5-5,8.5-6.4
	c3.5-1.4,7.1-2.1,11-2.1c3.1,0,5.9,0.4,8.5,1.3h19.7v13.1h-7.6c0.2,0.6,0.4,1.4,0.5,2.4c0.2,1,0.3,2,0.3,3.1c0,4.2-1,7.6-2.9,10.2
	c-1.9,2.5-4.5,4.4-7.7,5.6c-3.2,1.2-6.8,1.8-10.8,1.8c-1.8,0-3.7-0.2-5.9-0.7c-0.8,0.8-1.3,1.8-1.3,3.1c0,1.1,0.6,1.9,1.7,2.4
	c1.2,0.5,3.1,0.7,5.7,0.7h7.9c6.6,0,11.8,1.1,15.4,3.3c3.7,2.1,5.5,5.6,5.5,10.5c0,3.8-1.3,7.2-3.8,10.1c-2.5,2.9-6,5.2-10.6,6.8
	C619.3,182,613.9,182.8,607.6,182.8z M609.3,133.5c1.7,0,3.1-0.6,4.1-1.8c1.1-1.2,1.6-3.1,1.6-5.6c0-2.5-0.5-4.3-1.6-5.4
	c-1.1-1.2-2.4-1.8-4.1-1.8s-3.1,0.6-4.1,1.8c-1.1,1.1-1.6,2.9-1.6,5.4c0,2.5,0.5,4.4,1.6,5.6C606.2,132.9,607.6,133.5,609.3,133.5z
	 M610.6,171.6c3,0,5.4-0.5,7.4-1.4c2-0.8,3-2,3-3.5c0-1.4-0.6-2.3-1.9-2.6c-1.2-0.4-2.9-0.5-5.2-0.5h-4.1c-2.1,0-3.7-0.1-4.9-0.2
	c-1.1-0.1-2-0.2-2.8-0.4c-1.3,1.3-1.9,2.5-1.9,3.8c0,1.7,1,2.9,2.9,3.7C605,171.2,607.5,171.6,610.6,171.6z M668.8,161V92.1h44.9
	v15.3h-26.7v13.1H710v15.3h-22.9V161H668.8z M733.7,162.3c-3.3,0-6.2-0.7-8.6-2.2c-2.3-1.5-4.2-3.6-5.4-6c-1.3-2.5-1.9-5.2-1.9-8.1
	c0-5.5,2.3-9.8,6.8-12.9c4.5-3.2,11.9-5.3,22-6.4c-0.4-3.7-2.9-5.5-7.4-5.5c-1.9,0-3.9,0.4-6,1.2c-2.1,0.7-4.6,1.8-7.3,3.3
	l-6.4-11.9c3.7-2.3,7.5-4,11.3-5.2c3.9-1.2,7.9-1.8,12-1.8c6.9,0,12.3,2,16.2,5.9c3.9,3.9,5.8,10.2,5.8,18.9V161H750l-1.3-5.1h-0.4
	c-2.1,1.9-4.4,3.5-6.8,4.7C739.2,161.7,736.6,162.3,733.7,162.3z M740,148.3c1.5,0,2.7-0.3,3.7-1c1-0.7,1.9-1.6,2.9-2.6v-7.2
	c-4.3,0.6-7.3,1.6-9,2.9c-1.6,1.3-2.4,2.6-2.4,4.1C735.2,147,736.8,148.3,740,148.3z M800.7,162.3c-5,0-9.5-1.1-13.6-3.3
	c-4-2.2-7.2-5.3-9.6-9.4c-2.3-4.2-3.5-9.2-3.5-15c0-5.9,1.3-10.8,3.9-14.9c2.7-4.2,6.2-7.3,10.5-9.5c4.3-2.2,9-3.3,14-3.3
	c3.2,0,6,0.5,8.6,1.5c2.6,1,4.9,2.3,6.9,4l-8.5,11.7c-1.1-1-2.2-1.7-3.1-2c-0.9-0.4-1.9-0.5-2.9-0.5c-3.4,0-6,1.2-7.9,3.6
	c-1.9,2.3-2.9,5.5-2.9,9.5c0,4,1,7.2,3,9.6c2,2.3,4.4,3.5,7.2,3.5c1.5,0,2.9-0.3,4.3-1c1.4-0.7,2.8-1.5,4.1-2.4l7,11.9
	c-2.6,2.3-5.5,4-8.7,4.9C806.4,161.8,803.4,162.3,800.7,162.3z M848,162.3c-5.2,0-9.8-1.1-14-3.3c-4.1-2.2-7.3-5.3-9.7-9.4
	c-2.4-4.2-3.6-9.2-3.6-15c0-5.7,1.2-10.6,3.6-14.7c2.5-4.2,5.6-7.4,9.5-9.6c3.9-2.3,8-3.4,12.3-3.4c5.2,0,9.5,1.2,12.9,3.5
	c3.5,2.3,6,5.3,7.6,9.2c1.7,3.9,2.5,8.2,2.5,12.9c0,1.6-0.1,3.1-0.3,4.6c-0.1,1.4-0.3,2.4-0.4,3.1h-30.2c0.8,3.2,2.4,5.4,4.6,6.7
	c2.2,1.2,4.8,1.8,7.7,1.8c3.4,0,7-1.1,10.8-3.2l5.9,10.8c-2.8,2-6,3.5-9.5,4.6C854.3,161.7,851,162.3,848,162.3z M838.1,128.2h15.7
	c0-2-0.5-3.8-1.6-5.3c-1-1.6-2.9-2.3-5.6-2.3c-2,0-3.7,0.6-5.3,1.8C839.7,123.5,838.7,125.5,838.1,128.2z"/>
<path class="st1" d="M209.4,171.1c-0.5-2-1.4-3.9-2.6-5.7c0.2-0.9,0.4-1.9,0.6-2.8c0.8-6-1.2-11.4-5.1-15.7
	c-2.1-2.3-4.4-3.8-6.8-4.8c1.6-6.7,2.4-13.6,2.4-20.6c0-3.2-0.2-6.3-0.5-9.3c-0.2-1.5-0.3-3-0.6-4.6c-0.7-4.5-1.7-8.9-3.1-13.2
	c-0.9-2.8-1.9-5.6-3.1-8.4c-1.7-4.1-3.7-8-6-11.8c-1.5-2.5-3.1-4.9-4.9-7.3c-0.9-1.2-1.8-2.3-2.7-3.4c-2.8-3.4-5.8-6.5-9-9.5
	c-1.1-1-2.2-1.9-3.3-2.9c-1.1-0.9-2.3-1.8-3.4-2.7c-2.3-1.7-4.8-3.4-7.3-4.9c-13.8-8.4-29.9-13.2-47.2-13.2
	c-50.3,0-91.1,40.8-91.1,91.1c0,7,0.8,14,2.4,20.8c-2.2,0.9-4.2,2.4-6.2,4.5c-3.9,4.2-6,9.7-5.1,15.7c0.1,1,0.3,1.9,0.6,2.8
	c-1.2,1.7-2,3.7-2.6,5.7c-1.2,4.6-0.8,8.7,0.7,12.3c-1.7,4.7-1.2,9.7,0.9,14.1c1.6,3.2,3.8,5.6,6.6,7.9c3.3,2.6,7.4,4.8,12.4,7
	c5.9,2.5,13.2,4.9,16.5,5.8c8.5,2.2,16.7,3.6,24.9,3.7c11.8,0.1,21.9-2.7,29.2-9.7c3.6,0.4,7.2,0.7,10.8,0.7c3.8,0,7.6-0.2,11.4-0.7
	c7.2,7.1,17.4,9.9,29.2,9.8c8.3-0.1,16.4-1.5,24.9-3.7c3.3-0.9,10.6-3.2,16.5-5.8c5-2.1,9.1-4.4,12.4-7c2.7-2.2,5-4.7,6.6-7.9
	c2.2-4.4,2.6-9.4,0.9-14.1C210.2,179.8,210.6,175.6,209.4,171.1z M200.9,183.1c1.7,3.2,1.8,6.8,0.3,10.1c-2.2,5.1-7.8,9-18.6,13.3
	c-6.7,2.7-12.8,4.4-12.9,4.4c-8.9,2.3-16.9,3.5-23.8,3.5c-11.5,0-20.1-3.2-25.5-9.4c-9.2,1.6-18.6,1.6-27.7,0.2
	c-5.4,6.2-13.9,9.3-25.3,9.3c-6.9,0-15-1.2-23.8-3.5c-0.1,0-6.2-1.7-12.9-4.4c-10.8-4.3-16.3-8.3-18.6-13.3
	c-1.5-3.3-1.4-6.9,0.3-10.1c0.2-0.3,0.3-0.6,0.5-0.9c-1-1.5-1.7-3.2-2-5c-0.3-1.8-0.2-3.6,0.2-5.4c0.7-2.5,2-4.6,3.9-6.1
	c-0.9-1.5-1.5-3.1-1.7-4.8c-0.5-3.7,0.7-7.4,3.5-10.4c2.2-2.4,5.2-3.6,8.6-3.6h0.1c-2.5-8.2-3.8-16.7-3.8-25.2
	c0-46.7,37.8-84.5,84.5-84.5c46.7,0,84.5,37.8,84.5,84.5c0,8.6-1.3,17.1-3.9,25.3c0.4,0,0.8-0.1,1.2-0.1c3.4,0,6.4,1.3,8.6,3.6
	c2.8,3,4,6.7,3.5,10.4c-0.2,1.7-0.8,3.3-1.7,4.8c1.9,1.5,3.2,3.6,3.9,6.1c0.5,1.7,0.5,3.6,0.2,5.4c-0.3,1.8-1,3.5-2,5
	C200.6,182.5,200.8,182.8,200.9,183.1z"/>
<path class="st2" d="M200.4,182.2c1-1.5,1.7-3.2,2-5c0.3-1.8,0.2-3.6-0.2-5.4c-0.7-2.5-2-4.6-3.9-6.1c0.9-1.5,1.5-3.1,1.7-4.8
	c0.5-3.7-0.7-7.4-3.5-10.4c-2.2-2.4-5.2-3.6-8.6-3.6c-0.4,0-0.8,0-1.2,0.1c2.6-8.2,3.9-16.7,3.9-25.3c0-46.7-37.8-84.5-84.5-84.5
	s-84.5,37.8-84.5,84.5c0,8.6,1.3,17.1,3.8,25.2h-0.1c-3.4,0-6.4,1.3-8.6,3.6c-2.8,3-4,6.7-3.5,10.4c0.2,1.7,0.8,3.3,1.7,4.8
	c-1.9,1.5-3.2,3.6-3.9,6.1c-0.5,1.7-0.5,3.6-0.2,5.4c0.3,1.8,1,3.5,2,5c-0.2,0.3-0.3,0.6-0.5,0.9c-1.7,3.2-1.8,6.8-0.3,10.1
	c2.2,5.1,7.8,9,18.6,13.3c6.7,2.7,12.9,4.4,12.9,4.4c8.9,2.3,16.9,3.5,23.8,3.5c11.4,0,19.9-3.1,25.4-9.3c9.2,1.5,18.6,1.4,27.7-0.2
	c5.4,6.3,14,9.4,25.5,9.4c6.9,0,15-1.2,23.8-3.5c0.1,0,6.2-1.7,12.9-4.4c10.8-4.3,16.3-8.3,18.6-13.3c1.5-3.3,1.4-6.9-0.3-10.1
	C200.8,182.8,200.6,182.5,200.4,182.2z M88.8,195.4c-0.5,0.8-1,1.6-1.5,2.4c-1.4,2.1-3.3,3.6-5.4,4.8c-4.1,2.2-9.3,3-14.6,3
	c-8.3,0-16.9-1.9-21.7-3.2c-0.2-0.1-29.3-8.3-25.7-15.3c0.6-1.2,1.6-1.6,2.9-1.6c5.2,0,14.6,7.7,18.7,7.7c0.9,0,1.5-0.4,1.8-1.3
	c1.7-6.2-26.3-8.8-23.9-17.8c0.4-1.6,1.5-2.2,3.1-2.2c6.9,0,22.2,12.1,25.5,12.1c0.2,0,0.4-0.1,0.5-0.2l0-0.1
	c1.5-2.5,0.6-4.3-9.7-10.6l-1-0.6c-11.4-6.9-19.4-11-14.8-16c0.5-0.6,1.3-0.8,2.2-0.8c1.1,0,2.4,0.4,3.8,1c6,2.5,14.4,9.5,17.8,12.5
	c1,0.9,1.6,1.4,1.6,1.4s4.4,4.6,7.1,4.6c0.6,0,1.1-0.2,1.5-0.8c1.9-3.2-17.6-17.9-18.7-24c-0.7-4.1,0.5-6.2,2.9-6.2
	c1.1,0,2.5,0.5,4,1.4c4.7,3,13.6,18.4,16.9,24.4c1.1,2,3,2.9,4.7,2.9c3.4,0,6-3.3,0.3-7.6c-8.5-6.4-5.5-16.8-1.5-17.5
	c0.2,0,0.3,0,0.5,0c3.7,0,5.3,6.4,5.3,6.4s4.8,12,13,20.3C92.1,181.6,93.1,187.7,88.8,195.4z M115.4,196.8l-0.4,0.1l-0.7,0.1
	c-0.4,0-0.8,0.1-1.2,0.1l-0.4,0l-0.3,0l-0.5,0c-0.2,0-0.4,0-0.5,0l-0.5,0l-0.1,0l-0.4,0l-0.2,0l-0.5,0l-0.6,0l-0.5,0l-0.4,0H108
	c-0.1,0-0.2,0-0.3,0h-0.2c-0.1,0-0.2,0-0.3,0l-0.4,0h-0.6c-0.5,0-1,0-1.5,0l-0.4,0c-0.1,0-0.2,0-0.3,0l-0.4,0l-0.5,0l-0.5,0l-0.1,0
	l-0.4,0c-0.1,0-0.2,0-0.4,0l-0.3,0c-0.4,0-0.7,0-1.1-0.1l-0.4,0l-0.5,0l-0.6-0.1c-0.3,0-0.6-0.1-0.9-0.1h0c4.6-10.2,2.3-19.7-7-28.9
	c-6.1-6-10.1-15-10.9-16.9c-1.7-5.8-6.2-12.3-13.6-12.3c-0.6,0-1.3,0.1-1.9,0.1c-3.3,0.5-6.1,2.4-8.1,5.2c-2.2-2.7-4.3-4.9-6.3-6.1
	c-2.9-1.8-5.8-2.8-8.6-2.8c-3.5,0-6.7,1.4-8.9,4.1l-0.1,0.1l-0.1-0.5l0,0c-0.4-1.8-0.8-3.6-1.1-5.4c0,0,0,0,0,0l-0.1-0.4
	c0-0.2-0.1-0.4-0.1-0.7c0-0.2-0.1-0.4-0.1-0.6c0-0.2,0-0.4-0.1-0.6c0-0.2,0-0.4-0.1-0.6c0-0.2,0-0.4-0.1-0.5l0,0
	c-0.1-0.8-0.2-1.6-0.2-2.4l0-0.5c0-0.1,0-0.3,0-0.4c0,0,0-0.1,0-0.1l0-0.5c0-0.2,0-0.4,0-0.6c0-0.2,0-0.4,0-0.6l0-0.5l0-0.2l0-0.5
	l0-0.4c0-0.2,0-0.3,0-0.5l0-0.5c0-0.2,0-0.3,0-0.5c0-0.2,0-0.3,0-0.5c0-41.9,33.9-75.8,75.8-75.8s75.8,33.9,75.8,75.8v1
	c0,0.2,0,0.3,0,0.5c0,0.1,0,0.3,0,0.4c0,0.1,0,0.2,0,0.4c0,0.2,0,0.3,0,0.5v0c0,0.3,0,0.7,0,1l0,0.1l0,0.5l0,0.4
	c-0.1,0.9-0.1,1.9-0.2,2.8v0c0,0.2,0,0.3-0.1,0.5c0,0.4-0.1,0.8-0.1,1.2l-0.1,0.4l-0.1,0.5c0,0.2,0,0.3-0.1,0.5
	c0,0.2-0.1,0.4-0.1,0.6l-0.1,0.5l-0.1,0.5c0,0.2-0.1,0.3-0.1,0.5c0,0.2-0.1,0.3-0.1,0.5c-0.1,0.3-0.1,0.7-0.2,1
	c-0.1,0.7-0.3,1.4-0.4,2c0,0.2-0.1,0.3-0.1,0.5c-2.1-2.1-5-3.2-8.1-3.2c-2.8,0-5.7,0.9-8.6,2.8c-1.9,1.2-4.1,3.4-6.3,6.1
	c-2-2.8-4.9-4.7-8.1-5.2c-0.6-0.1-1.2-0.1-1.9-0.1c-7.4,0-11.9,6.5-13.6,12.3c-0.8,2-4.9,10.9-10.9,17
	C113.3,177.2,110.9,186.6,115.4,196.8z M193.7,176.4L193.7,176.4c-0.1,0.1-0.1,0.2-0.1,0.3c0,0.1-0.1,0.2-0.1,0.3
	c-0.1,0.2-0.2,0.4-0.3,0.6c-0.2,0.2-0.4,0.5-0.5,0.7c0,0.1-0.1,0.1-0.1,0.2c-0.1,0.1-0.1,0.2-0.2,0.2c-1.3,1.3-3.4,2.5-5.7,3.6
	c-0.3,0.1-0.5,0.2-0.8,0.4l-0.3,0.1c-0.2,0.1-0.4,0.2-0.5,0.2c-0.2,0.1-0.4,0.2-0.6,0.2l-0.6,0.2c-1.3,0.5-2.6,1-3.9,1.6l-0.6,0.2
	l-0.6,0.2c-0.4,0.1-0.7,0.3-1.1,0.4l-0.5,0.2l-0.5,0.2l-0.3,0.1c-0.2,0.1-0.3,0.1-0.5,0.2c-3.8,1.6-6.6,3.3-6,5.4
	c0,0.1,0,0.1,0.1,0.2c0.1,0.2,0.1,0.3,0.2,0.4c0.1,0.1,0.1,0.2,0.2,0.2c0.7,0.7,1.9,0.6,3.5,0c0.1,0,0.3-0.1,0.4-0.1
	c0.1,0,0.2-0.1,0.3-0.1l0.1-0.1c0.4-0.2,0.7-0.3,1.1-0.5c0.1,0,0.2-0.1,0.3-0.1c1.9-0.9,4.1-2.2,6.2-3.3c0.3-0.2,0.7-0.3,1-0.5
	c0.5-0.3,1.1-0.5,1.6-0.8c2-1,4-1.6,5.5-1.6c0.7,0,1.4,0.1,1.9,0.5l0.1,0.1c0.3,0.2,0.5,0.4,0.7,0.7c0,0.1,0.1,0.1,0.1,0.2
	c0,0.1,0.1,0.1,0.1,0.2c0.8,1.4,0.1,2.9-1.4,4.4c-1.4,1.4-3.7,2.8-6.2,4.1c-0.2,0.1-0.4,0.2-0.6,0.3c-7.5,3.7-17.4,6.5-17.5,6.5
	c-2.6,0.7-6.4,1.6-10.6,2.2l-0.6,0.1l-0.1,0c-1,0.1-1.9,0.3-2.9,0.4l-0.1,0c-1.8,0.2-3.6,0.3-5.4,0.4h0c-0.6,0-1.3,0-1.9,0h-0.7
	c-1,0-2-0.1-3-0.1c0,0,0,0-0.1,0c-0.4,0-0.7-0.1-1.1-0.1c-0.6-0.1-1.2-0.1-1.8-0.2c-0.2,0-0.5-0.1-0.7-0.1c-0.1,0-0.2,0-0.3-0.1l0,0
	c-0.3-0.1-0.7-0.1-1-0.2c-0.2,0-0.4-0.1-0.6-0.1l-0.1,0c-0.1,0-0.2-0.1-0.3-0.1l-0.1,0l-0.3-0.1c-0.1,0-0.2-0.1-0.3-0.1l0,0
	l-0.3-0.1c-0.1,0-0.2-0.1-0.3-0.1c-0.1,0-0.2-0.1-0.3-0.1l-0.2-0.1c-0.2-0.1-0.4-0.1-0.6-0.2l-0.2-0.1l-0.1-0.1
	c-0.3-0.1-0.6-0.2-0.8-0.4l-0.2-0.1l0,0c-0.1,0-0.1-0.1-0.2-0.1c-0.1-0.1-0.3-0.1-0.4-0.2l0,0l-0.2-0.1c-0.3-0.2-0.6-0.4-1-0.5
	l-0.2-0.1c-0.1-0.1-0.2-0.1-0.3-0.2l-0.2-0.1c-0.1-0.1-0.2-0.1-0.2-0.2l-0.1-0.1c-0.2-0.1-0.3-0.2-0.4-0.3c-0.1-0.1-0.2-0.1-0.2-0.2
	c-0.2-0.1-0.3-0.3-0.5-0.4l0,0c-0.2-0.1-0.3-0.3-0.5-0.4l0,0c-0.1-0.1-0.2-0.2-0.2-0.2c-0.1-0.1-0.2-0.2-0.2-0.2
	c-0.1-0.1-0.2-0.2-0.2-0.2c-0.1-0.1-0.1-0.2-0.2-0.2l0,0c-0.4-0.4-0.7-0.9-1-1.3l-0.1-0.2c-0.1-0.1-0.2-0.2-0.2-0.4l-0.2-0.4
	c-0.1-0.2-0.2-0.4-0.3-0.5c-0.1-0.1-0.2-0.3-0.2-0.4c-0.1-0.1-0.1-0.2-0.2-0.3c0-0.1-0.1-0.1-0.1-0.2c0-0.1-0.1-0.1-0.1-0.2
	l-0.1-0.1c0,0,0,0,0-0.1c-0.1-0.1-0.1-0.2-0.2-0.4c0-0.1-0.1-0.1-0.1-0.2l-0.1-0.2l-0.1-0.2l-0.2-0.3c0-0.1-0.1-0.1-0.1-0.2
	c-0.1-0.1-0.1-0.2-0.2-0.4c0,0,0-0.1-0.1-0.1c-0.1-0.2-0.1-0.3-0.2-0.5c0-0.1-0.1-0.2-0.1-0.3c-0.1-0.3-0.2-0.7-0.4-1
	c0-0.1-0.1-0.2-0.1-0.3c-0.1-0.2-0.1-0.5-0.2-0.7c-0.1-0.3-0.1-0.5-0.2-0.8c0-0.2-0.1-0.3-0.1-0.5c0-0.2-0.1-0.3-0.1-0.5
	c0-0.3-0.1-0.6-0.1-1c0-0.1,0-0.1,0-0.2c0-0.1,0-0.2,0-0.3c-0.1-4.3,2.1-8.4,6.7-13c8.2-8.2,13-20.3,13-20.3s0.1-0.5,0.4-1.2
	c0.1-0.2,0.2-0.5,0.3-0.7c0.1-0.3,0.2-0.5,0.4-0.8l0-0.1c0.2-0.3,0.3-0.7,0.5-1c0-0.1,0.1-0.1,0.1-0.2c0.1-0.2,0.3-0.4,0.5-0.6
	c0.1-0.2,0.3-0.3,0.4-0.5c0.5-0.5,1-0.9,1.6-1.1l0.1,0c0.1,0,0.1,0,0.2,0c0.1,0,0.1,0,0.2,0l0,0c0.1,0,0.3,0,0.4-0.1h0
	c0.1,0,0.1,0,0.2,0c0.2,0,0.4,0,0.5,0c0.7,0.1,1.4,0.6,2.1,1.2l0.1,0.1c0.2,0.2,0.4,0.5,0.5,0.7c0.1,0.2,0.2,0.4,0.3,0.6
	c0,0.1,0.1,0.2,0.1,0.3c0,0,0,0.1,0.1,0.1c0,0.1,0.1,0.2,0.1,0.3c0.2,0.5,0.4,1.1,0.5,1.7c0.1,0.6,0.2,1.2,0.2,1.8
	c0,0.3,0,0.5,0,0.8c0,0.1,0,0.2,0,0.3c-0.1,1.2-0.3,2.4-0.8,3.5c0,0.1-0.1,0.2-0.1,0.3c-0.2,0.5-0.5,1-0.7,1.5
	c-0.2,0.3-0.3,0.5-0.5,0.8l-0.1,0.2c-0.4,0.6-0.9,1.2-1.5,1.7c-0.5,0.5-1.1,1-1.7,1.5c-0.6,0.4-1.2,0.9-1.7,1.5
	c-1.5,1.6-1.9,3-1.5,4c0,0.1,0.1,0.2,0.1,0.3c0.1,0.2,0.3,0.5,0.5,0.7l0.1,0.1c0.1,0.1,0.1,0.1,0.2,0.2l0.1,0
	c0.1,0.1,0.3,0.2,0.5,0.3c0,0,0.1,0.1,0.1,0.1c0.2,0.1,0.5,0.2,0.7,0.3l0.1,0l0.1,0l0.1,0l0.1,0l0.1,0l0.1,0c0.1,0,0.1,0,0.2,0
	l0.1,0l0.1,0l0.1,0l0.1,0h0.1l0.1,0h0.3l0.1,0l0.1,0l0.1,0l0.1,0c0,0,0.1,0,0.1,0c0.5-0.1,0.9-0.2,1.3-0.4c0.1,0,0.2-0.1,0.3-0.1
	c0.2-0.1,0.3-0.2,0.5-0.3c0.2-0.1,0.4-0.3,0.6-0.5l0.1-0.1c0,0,0,0,0.1-0.1c0.1-0.1,0.3-0.3,0.4-0.4c0.2-0.3,0.4-0.6,0.6-0.9
	c2-3.6,4-7.1,6.2-10.5l0.3-0.5l0.3-0.5c0.1-0.2,0.3-0.5,0.4-0.7l0.2-0.2l0.3-0.5c0.4-0.6,0.8-1.2,1.2-1.9l0.3-0.5
	c0.6-0.9,1.2-1.8,1.8-2.6l0.3-0.4c0.7-0.9,1.3-1.8,2.1-2.7l0.3-0.3c0-0.1,0.1-0.1,0.1-0.2l0.3-0.3c0-0.1,0.1-0.1,0.1-0.2l0.3-0.3
	l0.1-0.1c0.1-0.1,0.3-0.3,0.4-0.4c0.1-0.1,0.2-0.2,0.3-0.3c0.5-0.5,1.1-1,1.7-1.4l0.1-0.1l0.1-0.1c0.1-0.1,0.2-0.1,0.3-0.2
	c2.4-1.3,4.3-1.4,5.4-0.3c0.7,0.7,1.1,1.8,1,3.4c0,0.1,0,0.1,0,0.2v0.1c0,0.1,0,0.1,0,0.2c0,0.1,0,0.2,0,0.3c0,0.1,0,0.2,0,0.2
	c0,0,0,0,0,0.1c0,0.1,0,0.1,0,0.2c0,0,0,0,0,0.1c0,0.1,0,0.2,0,0.3c0,0.1,0,0.2,0,0.3c0,0.1,0,0.1,0,0.1c0,0.1-0.1,0.3-0.1,0.4
	c-0.1,0.3-0.2,0.5-0.3,0.8c0,0.1-0.1,0.2-0.2,0.3c-0.1,0.2-0.2,0.4-0.4,0.7c-0.1,0.1-0.1,0.2-0.2,0.3l-0.1,0.2
	c-0.1,0.2-0.2,0.4-0.4,0.5c-0.1,0.2-0.3,0.4-0.4,0.6c-0.2,0.3-0.4,0.5-0.6,0.8l-0.2,0.2c-0.4,0.5-0.9,1.1-1.4,1.6l-0.4,0.4l-0.2,0.2
	c-0.3,0.3-0.5,0.6-0.8,0.8l-0.2,0.2c-0.1,0.1-0.3,0.3-0.4,0.4c-0.1,0.1-0.3,0.3-0.4,0.4l-0.4,0.4l-0.4,0.4c-0.1,0.1-0.3,0.3-0.4,0.4
	l-0.8,0.9c-4.1,4.2-8.3,8.3-9.8,10.9c-0.1,0.2-0.2,0.3-0.3,0.5c-0.2,0.5-0.3,0.9-0.2,1.2c0,0.1,0.1,0.2,0.1,0.3
	c0.1,0.1,0.2,0.3,0.3,0.4c0.1,0.1,0.1,0.1,0.2,0.1c0.3,0.2,0.7,0.3,1,0.3h0.1l0.1,0l0.1,0l0.1,0c0,0,0,0,0,0l0.1,0l0,0l0.1,0l0,0
	l0.1,0l0.1,0c0.1,0,0.2-0.1,0.2-0.1c0.2-0.1,0.4-0.1,0.5-0.2c0,0,0.1,0,0.1-0.1l0.1-0.1c0.2-0.1,0.3-0.2,0.5-0.3
	c0.1-0.1,0.3-0.2,0.4-0.3l0.1-0.1c0,0,0.1-0.1,0.1-0.1l0.1-0.1l0.1,0l0.2-0.1c0.2-0.1,0.3-0.3,0.5-0.4l0,0l0.3-0.2
	c0.4-0.3,0.7-0.6,1-0.9l0.2-0.2l0,0l0.1-0.1c0.3-0.2,0.5-0.4,0.7-0.6l0.1-0.1l0.2-0.2l0.1-0.1l0,0l0,0c0.1-0.1,0.1-0.1,0.2-0.2l0,0
	l0,0c0,0,0,0,0,0l0,0l0,0l0.2-0.2l0.1-0.1c0.1,0,0.1-0.1,0.2-0.2l0.1-0.1c0,0,0,0,0.1-0.1l0.1-0.1l0.2-0.2l0.1-0.1
	c0.4-0.4,1-0.8,1.6-1.4l0.2-0.2l0.4-0.3l0.4-0.4c0.6-0.5,1.1-0.9,1.8-1.4l0.4-0.3c0.3-0.3,0.7-0.6,1.1-0.8c0.1-0.1,0.3-0.2,0.4-0.3
	c0.4-0.3,0.7-0.6,1.1-0.9c0.9-0.6,1.7-1.3,2.6-1.9l0.4-0.3c0.3-0.2,0.5-0.4,0.8-0.6l0.2-0.2c0.5-0.3,1-0.6,1.5-1l0.2-0.2l0.2-0.1
	c0.2-0.1,0.5-0.3,0.7-0.4l0.2-0.1l0.5-0.3c0.2-0.1,0.3-0.2,0.5-0.3l0.1-0.1l0.4-0.2c0.2-0.1,0.3-0.2,0.5-0.2l0.2-0.1l0.2-0.1
	c0.5-0.3,1-0.5,1.6-0.7c0.1,0,0.1-0.1,0.2-0.1c0.1-0.1,0.3-0.1,0.4-0.2c0.1,0,0.3-0.1,0.4-0.1c0.1,0,0.2-0.1,0.4-0.1l0,0
	c0.1,0,0.1,0,0.2-0.1l0,0c0.1,0,0.3-0.1,0.4-0.1h0c0.2,0,0.4-0.1,0.5-0.1c0.1,0,0.1,0,0.2,0c0.2,0,0.3,0,0.5-0.1c0.1,0,0.2,0,0.3,0
	h0.1c0.1,0,0.2,0,0.3,0c0,0,0.1,0,0.1,0h0c0,0,0.1,0,0.1,0c0,0,0.1,0,0.1,0h0c0,0,0.1,0,0.1,0c0.4,0.1,0.7,0.3,1,0.6l0,0l0.1,0.1
	l0.1,0.1c0.4,0.4,0.7,0.9,1,1.4l0,0.1c0.1,0.2,0.2,0.4,0.2,0.6c0.1,0.6,0.1,1.2-0.1,1.8c-0.1,0.2-0.2,0.5-0.3,0.7l-0.1,0.1
	c-0.3,0.5-0.7,1-1.1,1.5l-0.1,0.1c-0.2,0.2-0.4,0.4-0.6,0.6c-0.1,0.1-0.1,0.1-0.2,0.2l-0.1,0.1c-0.2,0.2-0.4,0.4-0.7,0.6
	c0,0-0.1,0.1-0.1,0.1c-0.2,0.1-0.3,0.3-0.5,0.4c-0.6,0.4-1.2,0.9-1.8,1.3c-0.4,0.2-0.7,0.5-1.1,0.7c-0.7,0.5-1.4,0.9-2.2,1.4
	c-0.2,0.1-0.4,0.3-0.6,0.4c-2,1.2-4.1,2.5-6.5,3.9l-0.6,0.4c-0.7,0.4-1.3,0.8-1.9,1.2l-0.3,0.2l-0.6,0.4c-0.2,0.1-0.4,0.3-0.6,0.4
	c-0.2,0.1-0.3,0.2-0.5,0.3l-0.3,0.2c-0.1,0.1-0.3,0.2-0.4,0.3l-0.1,0.1c-0.1,0.1-0.3,0.2-0.4,0.3l-0.2,0.2l-0.3,0.2l-0.2,0.2
	c-0.4,0.3-0.8,0.6-1.2,0.8l-0.1,0.1c-0.2,0.1-0.3,0.2-0.4,0.3l-0.2,0.1c-0.3,0.2-0.6,0.5-0.8,0.7l-0.1,0.1c-0.1,0.1-0.1,0.1-0.2,0.2
	c0,0-0.1,0.1-0.1,0.1l-0.1,0.1c-0.1,0.1-0.3,0.3-0.4,0.4l-0.1,0.1c-0.1,0.2-0.3,0.3-0.4,0.5l0,0.1c-0.1,0.2-0.2,0.4-0.3,0.6l0,0.1
	l0,0.1l0,0l0,0.1c0,0,0,0.1,0,0.1c0,0.1-0.1,0.2-0.1,0.4l0,0.1l0,0.1l0,0.1v0.3c0,0,0,0.1,0,0.1c0,0,0,0,0,0c0,0,0,0.1,0,0.1l0,0.1
	v0c0,0,0,0.1,0,0.1c0,0,0,0.1,0,0.1c0,0.1,0.1,0.2,0.1,0.3c0,0,0,0,0,0c0,0,0,0.1,0,0.1c0,0.1,0.1,0.2,0.2,0.3l0.1,0.1l0.1,0.1
	l0.1,0.1c0,0,0,0,0,0.1l0,0l0,0l0,0c0,0,0,0,0.1,0c0,0,0,0,0.1,0c0,0,0,0,0.1,0c0.6,0.1,1.8-0.3,3.3-1.2l0.3-0.1l0.5-0.3l0.2-0.1
	c0.2-0.1,0.3-0.2,0.5-0.3l0.3-0.2c2.1-1.2,4.6-2.7,7.1-4.2c0.2-0.1,0.5-0.3,0.7-0.4l0.5-0.3c0.2-0.1,0.5-0.3,0.7-0.4
	c1-0.6,2.1-1.2,3.1-1.7l0.5-0.2c0.3-0.2,0.6-0.3,0.9-0.5c0.6-0.3,1.2-0.6,1.8-0.8l0.3-0.1l0,0c1.8-0.7,3.4-1.1,4.7-1.1
	c0.3,0,0.6,0,0.8,0.1h0c0.1,0,0.2,0,0.3,0.1h0c0.1,0,0.2,0.1,0.4,0.1c0.1,0,0.2,0.1,0.3,0.1c0.4,0.2,0.7,0.5,0.9,0.8
	c0,0,0,0.1,0.1,0.1c0.1,0.1,0.2,0.3,0.2,0.4c0,0.1,0.1,0.2,0.1,0.3c0,0.1,0.1,0.2,0.1,0.3C193.9,174.8,193.9,175.6,193.7,176.4z"/>
<path class="st3" d="M181.9,122.1v-0.5c0-41.9-33.9-75.8-75.8-75.8c-41.9,0-75.8,33.9-75.8,75.8l0,0.2c0,0.1,0,0.2,0,0.3
	c0,0.2,0,0.3,0,0.5l0,0.4l0,0.1l0,0.2c0,0.1,0,0.2,0,0.3l0,0.4l0,0.5l0,0.2l0,0.5v0l0,0.6v0c0,0.2,0,0.4,0,0.6c0,0.2,0,0.3,0,0.5
	l0,0c0,0.1,0,0.3,0,0.4l0,0c0,0.1,0,0.3,0,0.4l0,0l0,0.2c0.1,0.7,0.1,1.4,0.2,2.2l0,0l0.1,0.5l0.1,0.6c0,0.4,0.1,0.7,0.1,1.1
	c0,0.2,0.1,0.4,0.1,0.7l0,0c0.1,0.5,0.2,1,0.2,1.5c0.2,1.5,0.5,2.9,0.9,4.3l0,0l0,0.1c0,0.1,0.1,0.3,0.1,0.4l0.1-0.1
	c2.2-2.6,5.4-4.1,8.9-4.1c2.8,0,5.7,0.9,8.6,2.8c1.9,1.2,4.1,3.4,6.3,6.1c2-2.8,4.9-4.7,8.1-5.2c0.6-0.1,1.2-0.1,1.9-0.1
	c7.4,0,11.9,6.5,13.6,12.3c0.8,2,4.9,10.9,10.9,16.9c9.2,9.2,11.5,18.7,7,28.9h0c0.3,0,0.6,0.1,0.9,0.1c0.2,0,0.4,0,0.6,0.1l0.1,0
	c0.1,0,0.3,0,0.4,0l0.4,0c0.4,0,0.7,0.1,1.1,0.1l0.3,0l0.2,0l0.1,0l0.4,0l0.1,0l0.5,0l0.5,0l0.4,0l0.1,0c0.1,0,0.2,0,0.3,0l0.1,0
	c0.6,0,1.2,0,1.8,0h0.6l0.4,0c0.1,0,0.2,0,0.3,0h0.2l0.2,0c0.1,0,0.1,0,0.2,0h0.2l0.4,0l0.5,0l0.6,0c0.2,0,0.3,0,0.5,0l0.2,0l0.3,0
	l0.2,0l0.1,0l0.5,0c0.2,0,0.4,0,0.5,0l0.5,0l0.3,0l0.4,0c0.4,0,0.8-0.1,1.2-0.1c0.2,0,0.5-0.1,0.7-0.1l0.4-0.1
	c-4.5-10.2-2.2-19.6,7-28.8c6.1-6.1,10.1-15,10.9-17c1.7-5.8,6.2-12.3,13.6-12.3c0.6,0,1.3,0.1,1.9,0.1c3.3,0.5,6.1,2.4,8.1,5.2
	c2.2-2.7,4.3-4.9,6.3-6.1c2.9-1.8,5.8-2.8,8.6-2.8c3.1,0,5.9,1.1,8.1,3.2c0.1-0.5,0.2-1,0.3-1.6c0.1-0.3,0.1-0.7,0.2-1
	c0.1-0.4,0.2-0.8,0.2-1.2c0-0.1,0-0.2,0.1-0.3c0-0.2,0.1-0.3,0.1-0.5l0-0.1l0.1-0.5l0.1-0.5l0,0c0-0.2,0.1-0.4,0.1-0.6
	c0-0.1,0-0.3,0.1-0.4l0-0.1l0.1-0.5l0.1-0.4c0-0.3,0.1-0.5,0.1-0.8c0-0.1,0-0.2,0-0.3l0-0.1c0-0.2,0-0.4,0.1-0.5l0-0.4
	c0.1-0.9,0.2-1.8,0.2-2.8v0l0-0.5l0-0.1l0-0.5c0-0.2,0-0.4,0-0.5v0l0-0.1c0-0.1,0-0.2,0-0.3l0,0c0-0.1,0-0.2,0-0.3l0-0.1
	c0-0.1,0-0.2,0-0.3l0-0.1c0-0.1,0-0.3,0-0.4V122.1z M87.3,197.8c6-8.8,5.6-15.4-2.7-23.6s-13-20.3-13-20.3s-1.8-7-5.9-6.3
	c-4.1,0.6-7.1,11.1,1.5,17.5c8.5,6.4-1.7,10.7-5,4.7c-3.3-6-12.3-21.4-16.9-24.4c-4.7-3-7.9-1.3-6.8,4.8c0.5,3,5.6,8.2,10.3,13
	c4.8,4.9,9.3,9.4,8.3,11c-1.9,3.2-8.6-3.7-8.6-3.7s-20.9-19-25.4-14c-4.2,4.6,2.3,8.4,12.2,14.4c0.8,0.5,1.7,1,2.6,1.6
	c11.4,6.9,12.3,8.7,10.7,11.3c-0.6,1-4.4-1.3-9.1-4.1c-8-4.8-18.5-11.1-20-5.5C18.2,179,26,182,33,184.7c5.9,2.3,11.2,4.3,10.4,7.2
	c-0.8,2.9-5.2,0.5-10.1-2.2c-5.4-3-11.4-6.3-13.3-2.6c-3.7,7,25.4,15.2,25.6,15.3C55.1,204.8,79,210,87.3,197.8z M126,197.8
	c-6-8.8-5.6-15.4,2.7-23.6s13-20.3,13-20.3s1.8-7,5.9-6.3c4.1,0.6,7.1,11.1-1.5,17.5s1.7,10.7,5,4.7c3.3-6,12.3-21.4,16.9-24.4
	c4.7-3,7.9-1.3,6.8,4.8c-0.5,3-5.6,8.2-10.3,13c-4.8,4.9-9.3,9.4-8.3,11c1.9,3.2,8.6-3.7,8.6-3.7s20.9-19,25.4-14
	c4.2,4.6-2.3,8.4-12.2,14.4c-0.8,0.5-1.7,1-2.6,1.6c-11.4,6.9-12.3,8.7-10.7,11.3c0.6,1,4.4-1.3,9.1-4.1c8-4.8,18.5-11.1,20-5.5
	c1.3,4.9-6.5,7.9-13.5,10.6c-5.9,2.3-11.2,4.3-10.4,7.2c0.8,2.9,5.2,0.5,10.1-2.2c5.4-3,11.4-6.3,13.3-2.6
	c3.7,7-25.4,15.2-25.6,15.3C158.2,204.8,134.3,210,126,197.8z"/>
<path class="st4" d="M130.7,101c1.2,0.4,2.1,1.7,2.9,2.9c1.1,1.6,2.2,3.2,3.8,2.3c1.9-1,3.5-2.6,4.5-4.5c1-1.9,1.5-4.1,1.2-6.2
	c-0.2-1.6-0.7-3.2-1.5-4.5c-0.8-1.4-1.9-2.6-3.3-3.5c-1.3-0.9-2.9-1.5-4.5-1.7c-1.6-0.2-3.2-0.1-4.8,0.3c-2.1,0.6-3.9,1.8-5.3,3.5
	c-1.4,1.7-2.2,3.7-2.4,5.8c-0.2,2.1,0.2,4.3,1.2,6.2c0.7,1.4,2.4,0.7,4.2,0C128.2,101.1,129.6,100.6,130.7,101z M79.3,101
	c-1.2,0.4-2.1,1.7-2.9,2.9c-1.1,1.6-2.2,3.2-3.8,2.3c-1.4-0.8-2.7-1.8-3.6-3.1s-1.6-2.8-1.9-4.4c-0.3-1.6-0.3-3.2,0.1-4.8
	c0.4-1.6,1.1-3,2.1-4.3c1-1.2,2.3-2.3,3.8-2.9c1.5-0.7,3-1.1,4.7-1.1c1.6,0,3.2,0.4,4.7,1c1.5,0.7,2.7,1.7,3.8,2.9
	c1.4,1.7,2.2,3.7,2.4,5.8c0.2,2.1-0.2,4.3-1.2,6.2c-0.8,1.4-2.4,0.7-4.2,0C81.9,101.1,80.4,100.6,79.3,101z M122.8,147.7
	c8.1-6.4,11.1-16.9,11.1-23.3c0-5.1-3.4-3.5-8.9-0.8l-0.3,0.2c-5,2.5-11.8,5.8-19.1,5.8c-7.4,0-14.1-3.3-19.1-5.8
	c-5.7-2.8-9.2-4.6-9.2,0.6c0,6.7,3.2,17.6,11.9,23.9c1.2-2.3,2.8-4.4,4.8-6.1c2-1.7,4.3-2.9,6.8-3.7c0.9-0.3,1.8,1.2,2.7,2.8
	c0.9,1.5,1.8,3,2.7,3c1,0,1.9-1.5,2.9-3c1-1.5,1.9-3,2.9-2.7C116.5,140.1,120.4,143.4,122.8,147.7z"/>
<path class="st5" d="M122.8,147.7c-4.2,3.3-9.9,5.6-17.2,5.6c-6.9,0-12.3-2-16.4-5c1.2-2.3,2.8-4.4,4.8-6.1c2-1.7,4.3-2.9,6.8-3.7
	c1.7-0.5,3.5,5.8,5.4,5.8c2,0,3.9-6.2,5.8-5.7C116.5,140.1,120.4,143.4,122.8,147.7z"/>
<path class="st6" d="M59.9,110c-0.8,0.5-1.6,0.9-2.6,1.1c-0.9,0.2-1.9,0.2-2.8,0c-0.9-0.2-1.8-0.5-2.6-1.1c-0.8-0.5-1.4-1.2-2-2
	c-0.5-0.8-0.9-1.6-1.1-2.6c-0.2-0.9-0.2-1.9,0-2.8c0.2-0.9,0.5-1.8,1.1-2.6c0.5-0.8,1.2-1.4,2-2c1.6-1,3.5-1.4,5.3-1
	c1.8,0.4,3.5,1.5,4.5,3c1,1.6,1.4,3.5,1.1,5.3C62.5,107.4,61.4,109,59.9,110z M161.3,110c-0.8,0.5-1.6,0.9-2.6,1.1s-1.9,0.2-2.8,0
	c-0.9-0.2-1.8-0.5-2.6-1.1c-0.8-0.5-1.4-1.2-2-2c-0.5-0.8-0.9-1.6-1.1-2.6c-0.2-0.9-0.2-1.9,0-2.8c0.2-0.9,0.5-1.8,1.1-2.6
	c0.5-0.8,1.2-1.4,2-2c1.6-1,3.5-1.4,5.3-1c1.8,0.4,3.5,1.5,4.5,3c1,1.6,1.4,3.5,1.1,5.3C163.9,107.4,162.8,109,161.3,110z"/>
<g>
	<path d="M290.7,284c-5.2,0-9.3,2-12.1,5.9c-2.9,3.9-4.3,9.4-4.3,16.4c0,14.6,5.5,21.9,16.4,21.9c4.6,0,10.2-1.1,16.7-3.4v11.6
		c-5.4,2.2-11.4,3.4-18,3.4c-9.5,0-16.8-2.9-21.8-8.7c-5-5.8-7.6-14.1-7.6-24.9c0-6.8,1.2-12.8,3.7-17.9c2.5-5.1,6-9,10.7-11.8
		c4.6-2.7,10.1-4.1,16.3-4.1c6.4,0,12.7,1.5,19.2,4.6l-4.5,11.3c-2.4-1.2-4.9-2.2-7.4-3C295.5,284.4,293,284,290.7,284z"/>
	<path d="M361.3,338.8l-4.7-15.6h-23.9l-4.7,15.6H313l23.1-65.7h17l23.2,65.7H361.3z M353.3,311.6c-4.4-14.1-6.9-22.1-7.4-23.9
		c-0.6-1.8-0.9-3.3-1.2-4.4c-1,3.8-3.8,13.3-8.5,28.3H353.3z"/>
	<path d="M442.5,338.8h-17.6l-28.5-49.5H396c0.6,8.7,0.9,15,0.9,18.7v30.8h-12.4v-65.4H402l28.4,49h0.3c-0.4-8.5-0.7-14.5-0.7-18
		v-31h12.5V338.8z"/>
	<path d="M513.3,305.5c0,10.8-3.1,19-9.2,24.7c-6.1,5.7-15,8.6-26.6,8.6H459v-65.4h20.5c10.7,0,19,2.8,24.9,8.5
		C510.3,287.5,513.3,295.4,513.3,305.5z M498.9,305.8c0-14.1-6.2-21.1-18.6-21.1h-7.4v42.6h6C492.2,327.4,498.9,320.2,498.9,305.8z"
		/>
	<path d="M526.8,338.8v-65.4h13.9v54h26.5v11.5H526.8z"/>
	<path d="M616.3,338.8h-37.7v-65.4h37.7v11.4h-23.8v14.4h22.2v11.4h-22.2v16.9h23.8V338.8z"/>
</g>
</svg>
