<svg id="Ebene_1" data-name="Ebene 1" xmlns="http://www.w3.org/2000/svg" viewBox="0 0 630.66667 344.44833"><defs><style>.cls-1{fill:#5082c3;}.cls-2{fill:#1d1d1b;}</style></defs><path class="cls-1" d="M606.352,210.5875a12.55065,12.55065,0,1,1-8.869,21.4218,12.169,12.169,0,0,1-3.6508-8.9101,12.52471,12.52471,0,0,1,12.5198-12.5117Zm14.5951,12.4841a13.93547,13.93547,0,0,0-4.2592-10.2531,14.5717,14.5717,0,1,0,4.2592,10.2531Zm-10.7004-3.1191a2.42545,2.42545,0,0,1-1.6647,2.4679,8.15946,8.15946,0,0,1-2.6984.3435h-2.5674v-5.7066h2.4268a7.50692,7.50692,0,0,1,3.4339.5874A2.37253,2.37253,0,0,1,610.24673,219.9525Zm-9.756-4.8883v15.9667h2.8255v-6.2664h2.2316a7.01822,7.01822,0,0,1,3.1397.5035c1.0076.615,1.5106,1.8254,1.5106,3.6709v1.245l.0486.5036c.0282.0773.0282.1336.0493.1893a.73642.73642,0,0,0,.0416.1541h2.6302l-.0978-.1958a2.36683,2.36683,0,0,1-.1407-.8264c-.0276-.4197-.0351-.8108-.0351-1.1959v-1.153a4.40106,4.40106,0,0,0-.8589-2.4761,3.83138,3.83138,0,0,0-2.72049-1.5663,5.97313,5.97313,0,0,0,2.30779-.7773,3.52634,3.52634,0,0,0,1.5452-3.1537,3.98586,3.98586,0,0,0-2.4895-4.0565,12.39687,12.39687,0,0,0-4.3648-.5657Z"/><polygon class="cls-1" points="11.239 12 121.936 12 121.936 26.407 11.239 26.407 11.239 12 11.239 12"/><polygon class="cls-1" points="11.239 42.262 121.936 42.262 121.936 56.607 11.239 56.607 11.239 42.262 11.239 42.262"/><polygon class="cls-1" points="42.851 72.412 90.325 72.412 90.325 86.82 42.851 86.82 42.851 72.412 42.851 72.412"/><polygon class="cls-1" points="42.851 102.632 90.325 102.632 90.325 116.962 42.851 116.962 42.851 102.632 42.851 102.632"/><polygon class="cls-1" points="42.851 132.768 90.325 132.768 90.325 147.161 42.851 147.161 42.851 132.768 42.851 132.768"/><polygon class="cls-1" points="42.851 162.939 90.325 162.939 90.325 177.402 42.851 177.402 42.851 162.939 42.851 162.939"/><polygon class="cls-1" points="11.239 193.152 121.936 193.152 121.936 207.545 11.239 207.545 11.239 193.152 11.239 193.152"/><polygon class="cls-1" points="11.239 223.351 121.936 223.351 121.936 237.696 11.239 237.696 11.239 223.351 11.239 223.351"/><path class="cls-1" d="M137.68624,42.2622H308.28473a73.37887,73.37887,0,0,1,4.9167,14.3447H137.68624V42.2622Z"/><polygon class="cls-1" points="169.375 72.412 216.744 72.412 216.744 86.82 169.375 86.82 169.375 72.412 169.375 72.412"/><path class="cls-1" d="M264.18223,72.4124H314.768c.1542,3.3425-1.2237,11.1683-2.168,14.4074h-48.4178V72.4124Z"/><path class="cls-1" d="M169.37524,132.7681H291.20633c3.8041,2.6226,10.071,10.1622,13.155,14.3928H169.37524V132.7681Z"/><polygon class="cls-1" points="169.375 162.939 216.744 162.939 216.744 177.402 169.375 177.402 169.375 162.939 169.375 162.939"/><path class="cls-1" d="M264.18223,162.9394H312.313c1.0494,2.2234,2.5951,11.3158,2.7484,14.4626h-50.8792V162.9394Z"/><path class="cls-1" d="M137.68624,193.1523H313.06163c-.25179,3.6087-2.9585,11.6794-4.4275,14.3929H137.68624V193.1523Z"/><path class="cls-1" d="M137.68624,223.3507H296.25553c-14.0575,11.7778-26.4713,14.3452-48.2288,14.3452H137.68624V223.3507Z"/><polygon class="cls-1" points="327.455 12 417.856 12 422.619 26.407 327.455 26.407 327.455 12 327.455 12"/><polygon class="cls-1" points="327.455 42.262 427.857 42.262 432.592 56.607 327.455 56.607 327.455 42.262 327.455 42.262"/><polygon class="cls-1" points="359.053 72.412 437.886 72.412 442.649 86.82 359.053 86.82 359.053 72.412 359.053 72.412"/><polygon class="cls-1" points="460.014 102.632 548.78 102.632 548.78 116.962 501.361 116.962 501.361 104.31 497.004 116.962 455.265 116.962 460.014 102.632 460.014 102.632"/><polygon class="cls-1" points="452.65 116.962 410.842 116.962 406.498 104.255 406.498 116.962 359.053 116.962 359.053 102.632 447.894 102.632 452.65 116.962 452.65 116.962"/><polygon class="cls-1" points="359.053 132.768 406.498 132.768 406.498 147.161 359.053 147.161 359.053 132.768 359.053 132.768"/><polygon class="cls-1" points="359.053 162.939 406.498 162.939 406.498 177.402 359.053 177.402 359.053 162.939 359.053 162.939"/><polygon class="cls-1" points="327.455 193.152 406.498 193.152 406.498 207.545 327.455 207.545 327.455 193.152 327.455 193.152"/><polygon class="cls-1" points="327.455 223.351 406.498 223.351 406.498 237.696 327.455 237.696 327.455 223.351 327.455 223.351"/><polygon class="cls-1" points="490.108 12 580.398 12 580.398 26.407 485.269 26.407 490.108 12 490.108 12"/><polygon class="cls-1" points="480.072 42.262 580.398 42.262 580.398 56.607 475.303 56.607 480.072 42.262 480.072 42.262"/><polygon class="cls-1" points="470.022 72.412 548.78 72.412 548.78 86.82 465.26 86.82 470.022 72.412 470.022 72.412"/><polygon class="cls-1" points="501.361 132.768 548.78 132.768 548.78 147.161 501.361 147.161 501.361 132.768 501.361 132.768"/><polygon class="cls-1" points="501.361 162.939 548.78 162.939 548.78 177.402 501.361 177.402 501.361 162.939 501.361 162.939"/><polygon class="cls-1" points="501.361 193.152 580.398 193.152 580.398 207.545 501.361 207.545 501.361 193.152 501.361 193.152"/><polygon class="cls-1" points="501.361 223.351 580.398 223.351 580.398 237.696 501.361 237.696 501.361 223.351 501.361 223.351"/><polygon class="cls-1" points="416.191 132.768 491.724 132.768 486.828 147.161 421.108 147.161 416.191 132.768 416.191 132.768"/><polygon class="cls-1" points="426.416 162.939 481.492 162.939 476.59 177.402 431.311 177.402 426.416 162.939 426.416 162.939"/><polygon class="cls-1" points="436.634 193.152 471.246 193.152 466.357 207.545 441.544 207.545 436.634 193.152 436.634 193.152"/><polygon class="cls-1" points="446.88 223.351 461.063 223.351 456.147 237.696 451.762 237.696 446.88 223.351 446.88 223.351"/><path class="cls-1" d="M169.37524,116.9906H291.20633c3.9723-2.7421,11.2458-10.3299,14.1968-14.3587H169.37524v14.3587Z"/><path class="cls-1" d="M137.68624,26.4074H296.25553c-14.0575-11.7772-26.4713-14.3522-48.2288-14.3522H137.68624V26.4074Z"/><path class="cls-2" d="M20.80529,289.90918a16.44854,16.44854,0,0,1,12.28076-4.93262q9.97486,0,14.58692,6.61328a14.41144,14.41144,0,0,1,2.73486,7.45411H42.06017a11.37624,11.37624,0,0,0-2.04492-4.33692q-2.23021-2.60155-6.61084-2.60254a8.14709,8.14709,0,0,0-7.03711,3.67285q-2.57518,3.67383-2.57519,10.39454,0,6.72216,2.71777,10.06933a8.51577,8.51577,0,0,0,6.90625,3.34668,7.82264,7.82264,0,0,0,6.54883-2.87305,12.59851,12.59851,0,0,0,2.06787-4.63476h8.294a17.9962,17.9962,0,0,1-5.4834,10.625,15.96009,15.96009,0,0,1-11.30176,4.09277q-8.52686,0-13.40723-5.5293-4.88011-5.55615-4.87988-15.23242Q15.25451,295.57421,20.80529,289.90918Z"/><path class="cls-2" d="M68.15344,307.7168a12.20354,12.20354,0,0,0,3.085-.67774,2.32376,2.32376,0,0,0,1.66552-2.19531,2.59608,2.59608,0,0,0-1.27734-2.50684,8.07346,8.07346,0,0,0-3.75-.6914q-2.77515,0-3.9292,1.35547a5.58233,5.58233,0,0,0-1.09863,2.71H55.39514a11.29687,11.29687,0,0,1,2.17773-6.36914q3.07543-3.90381,10.562-3.90332a18.83057,18.83057,0,0,1,8.65625,1.9248q3.783,1.9248,3.7832,7.26367v13.55176q0,1.40917.0542,3.415a4.28051,4.28051,0,0,0,.46094,2.05957,2.75751,2.75751,0,0,0,1.13818.89453v1.13867H73.8258a8.57623,8.57623,0,0,1-.48828-1.68066q-.13549-.78516-.2168-1.78906a15.93832,15.93832,0,0,1-3.70752,2.95508,11.21,11.21,0,0,1-5.67041,1.43652,9.78073,9.78073,0,0,1-6.66553-2.291,8.14246,8.14246,0,0,1-2.63086-6.49121q0-5.44774,4.23194-7.88672A18.89915,18.89915,0,0,1,65.505,308.042Zm4.72314,3.60449a8.51846,8.51846,0,0,1-1.49756.74512,12.622,12.622,0,0,1-2.07422.52929l-1.7583.3252a11.57622,11.57622,0,0,0-3.55078,1.05664,3.52761,3.52761,0,0,0-1.82471,3.2793,3.42562,3.42562,0,0,0,1.11475,2.85937,4.23215,4.23215,0,0,0,2.71045.88184,8.07372,8.07372,0,0,0,4.665-1.46387q2.1328-1.46339,2.21533-5.33984Z"/><path class="cls-2" d="M103.73449,295.45215q.14868.01464.66406.041v7.91407c-.48779-.05469-.92138-.08985-1.30078-.1084-.37939-.01758-.687-.02735-.92187-.02735q-4.66187,0-6.26075,3.03614a11.80631,11.80631,0,0,0-.89453,5.25781v14.12109h-7.7788v-29.543h7.37207V301.293a16.34009,16.34009,0,0,1,3.11718-4.03809,8.48269,8.48269,0,0,1,5.6377-1.8164C103.51281,295.43848,103.63488,295.44336,103.73449,295.45215Z"/><path class="cls-2" d="M134.151,299.69434q3.31422,4.20117,3.31446,10.84082a18.99153,18.99153,0,0,1-3.26953,11.41113,11.86612,11.86612,0,0,1-15.0376,3.0625,11.76857,11.76857,0,0,1-2.88818-3.03516v3.71289h-7.61573V285.79H116.379v14.20215a11.31232,11.31232,0,0,1,3.2461-3.14453,9.68879,9.68879,0,0,1,5.34619-1.3545A11.042,11.042,0,0,1,134.151,299.69434Zm-6.457,17.99609a10.94251,10.94251,0,0,0,1.66748-6.3418,14.19958,14.19958,0,0,0-.81982-5.2041,5.709,5.709,0,0,0-5.73877-3.90234,5.79477,5.79477,0,0,0-5.8208,3.82129,14.23081,14.23081,0,0,0-.82031,5.25781,10.94225,10.94225,0,0,0,1.69482,6.28809,5.81538,5.81538,0,0,0,5.16455,2.49414A5.35544,5.35544,0,0,0,127.694,317.69043Z"/><path class="cls-2" d="M167.46935,322.07227q-3.74048,4.61718-11.35644,4.61718-7.61646,0-11.35645-4.61718a18.32969,18.32969,0,0,1,0-22.19239q3.74049-4.68456,11.35645-4.68554,7.61572,0,11.35644,4.68554a18.32966,18.32966,0,0,1,0,22.19239Zm-6.17968-4.26954q1.81567-2.40819,1.81591-6.84668,0-4.43847-1.81591-6.834a6.86488,6.86488,0,0,0-10.42139,0q-1.8296,2.395-1.82959,6.834,0,4.43848,1.82959,6.84668a6.83956,6.83956,0,0,0,10.42139,0Z"/><path class="cls-2" d="M200.56164,297.83691q2.90112,2.39941,2.90137,7.95508v19.89453h-7.91407V307.7168a8.25692,8.25692,0,0,0-.61914-3.57813q-1.13011-2.27637-4.30468-2.27637a5.33532,5.33532,0,0,0-5.354,3.334,11.52167,11.52167,0,0,0-.75342,4.499v15.99121h-7.72461V296.19727h7.48047v4.30957a13.09559,13.09559,0,0,1,2.80713-3.2793,9.72573,9.72573,0,0,1,6.01856-1.78906A11.32737,11.32737,0,0,1,200.56164,297.83691Z"/><path class="cls-2" d="M250.10021,286.60254a13.20457,13.20457,0,0,1,6.8086,5.06836,17.77895,17.77895,0,0,1,2.84814,6.45117,30.94989,30.94989,0,0,1,.75977,6.61328A26.5448,26.5448,0,0,1,257.316,318.2334q-4.34033,7.45313-13.3999,7.45312H226.691V285.73535h17.2251A21.02856,21.02856,0,0,1,250.10021,286.60254ZM234.795,292.67383v26.07422h7.71q5.918,0,8.25244-5.82715a20.53308,20.53308,0,0,0,1.27588-7.61621q0-6.09814-1.91406-9.36426-1.91382-3.26659-7.61426-3.2666Z"/><path class="cls-2" d="M285.40539,296.74219a12.01392,12.01392,0,0,1,5.10547,4.37011,14.51436,14.51436,0,0,1,2.35351,6.10743,37.73966,37.73966,0,0,1,.25489,5.86328H271.60217q.17944,4.44581,3.08935,6.23437a7.84466,7.84466,0,0,0,4.25928,1.11133,5.99944,5.99944,0,0,0,5.87891-3.38867h7.88623a9.64725,9.64725,0,0,1-2.86377,5.33984q-3.96974,4.30957-11.11475,4.30957a16.105,16.105,0,0,1-10.40576-3.63476q-4.50879-3.63574-4.5083-11.82813,0-7.67577,4.06982-11.77246a14.244,14.244,0,0,1,10.56446-4.09668A16.81805,16.81805,0,0,1,285.40539,296.74219ZM273.84973,303.415a8.02788,8.02788,0,0,0-2.05811,4.57226h13.30811a6.44577,6.44577,0,0,0-2.05762-4.668,6.77066,6.77066,0,0,0-4.58154-1.59278A6.12651,6.12651,0,0,0,273.84973,303.415Z"/><path class="cls-2" d="M303.01525,316.25488a5.14544,5.14544,0,0,0,1.062,2.92676q1.44361,1.5454,5.33789,1.54492a8.164,8.164,0,0,0,3.63575-.67773,2.17022,2.17022,0,0,0,1.34814-2.03223,2.19255,2.19255,0,0,0-1.08594-1.97949q-1.08618-.67675-8.08105-2.33008-5.03613-1.24657-7.0957-3.11719a6.75723,6.75723,0,0,1-2.05957-5.3125,9.20612,9.20612,0,0,1,3.21826-7.0332q3.219-2.94141,9.05859-2.94141a16.655,16.655,0,0,1,9.03125,2.209q3.49073,2.21044,4.00684,7.62988h-7.72461a4.56575,4.56575,0,0,0-.84229-2.35742q-1.27807-1.57178-4.34912-1.57227a6.25859,6.25859,0,0,0-3.60107.78614,2.26112,2.26112,0,0,0-1.07324,1.84277,2.01631,2.01631,0,0,0,1.1416,1.9248q1.14111.62256,8.06494,2.14063a14.80949,14.80949,0,0,1,6.9209,3.2793,7.44739,7.44739,0,0,1,2.27539,5.55664,8.96821,8.96821,0,0,1-3.27149,7.16894q-3.27391,2.77736-10.1167,2.77832-6.98,0-10.30664-2.94043a9.55915,9.55915,0,0,1-3.32715-7.49414Z"/><path class="cls-2" d="M335.838,292.62012h-7.833v-7.12891h7.833Zm-7.833,3.52343h7.833v29.543h-7.833Z"/><path class="cls-2" d="M357.93371,296.11621a9.27971,9.27971,0,0,1,4.54785,4.28223v-4.25489h7.53418V324.169q0,5.71875-1.92383,8.61914-3.30762,4.98631-12.68457,4.98632a17.28274,17.28274,0,0,1-9.24219-2.22168,8.20187,8.20187,0,0,1-3.958-6.64062h8.40234a3.47556,3.47556,0,0,0,1.05762,1.95117,6.52408,6.52408,0,0,0,4.20117,1.05664q4.17334,0,5.583-2.791.92139-1.78859.92187-6.01758v-1.89649a9.42723,9.42723,0,0,1-2.38574,2.84571,9.58832,9.58832,0,0,1-5.98926,1.76172,11.33618,11.33618,0,0,1-9.09375-3.998q-3.40137-3.99756-3.40136-10.82813a18.26632,18.26632,0,0,1,3.27539-11.07129,10.81459,10.81459,0,0,1,9.28418-4.48632A10.16353,10.16353,0,0,1,357.93371,296.11621Zm2.63086,21.18164q1.86182-2.04639,1.8623-6.51855,0-4.20117-1.76757-6.39649a5.76852,5.76852,0,0,0-4.73633-2.19531,5.58307,5.58307,0,0,0-5.58789,3.82129,13.60406,13.60406,0,0,0-.80957,5.01465,11.49054,11.49054,0,0,0,.86328,4.58008,5.62894,5.62894,0,0,0,5.61426,3.74023A5.93181,5.93181,0,0,0,360.56457,317.29785Z"/><path class="cls-2" d="M401.04894,297.83691q2.90186,2.39941,2.90137,7.95508v19.89453h-7.91406V307.7168a8.24977,8.24977,0,0,0-.61914-3.57813q-1.13086-2.27637-4.30469-2.27637a5.33678,5.33678,0,0,0-5.35449,3.334,11.53138,11.53138,0,0,0-.75293,4.499v15.99121h-7.72461V296.19727h7.48047v4.30957a13.09511,13.09511,0,0,1,2.80664-3.2793,9.72769,9.72769,0,0,1,6.01953-1.78906A11.32689,11.32689,0,0,1,401.04894,297.83691Z"/><path class="cls-2" d="M433.19445,313.35449a8.10279,8.10279,0,0,0,1.52246,4.09278q2.07423,2.46679,7.11231,2.46582a15.2983,15.2983,0,0,0,4.89746-.65039q3.56982-1.24659,3.57031-4.63477a3.41464,3.41464,0,0,0-1.749-3.0625,18.95228,18.95228,0,0,0-5.54688-1.87012l-4.32519-.94824q-6.37647-1.40918-8.76075-3.06348-4.03857-2.76415-4.03906-8.6455a11.48274,11.48274,0,0,1,3.95117-8.917q3.95068-3.55077,11.60645-3.55078A17.79714,17.79714,0,0,1,452.34,287.917q4.51318,3.34863,4.7334,9.7168h-8.02344a5.71809,5.71809,0,0,0-3.22266-5.12207,11.03693,11.03693,0,0,0-4.97363-1.00293,9.46986,9.46986,0,0,0-5.28027,1.30078,4.116,4.116,0,0,0-1.97266,3.63184,3.42539,3.42539,0,0,0,1.94531,3.19824,24.15888,24.15888,0,0,0,5.30762,1.65332l7.01172,1.65332a17.83179,17.83179,0,0,1,6.90918,2.90039q3.57276,2.81837,3.57227,8.1582a11.46275,11.46275,0,0,1-4.23243,9.09278q-4.23339,3.61962-11.958,3.61914-7.88966,0-12.41016-3.56446a11.79219,11.79219,0,0,1-4.52051-9.79785Z"/><path class="cls-2" d="M464.74426,331.35156l.97558.05371a12.218,12.218,0,0,0,2.168-.081,3.90624,3.90624,0,0,0,1.73535-.62305,4.17867,4.17867,0,0,0,1.25977-1.9248,4.64787,4.64787,0,0,0,.502-1.78907l-10.85547-30.84375h8.5918l6.45117,21.791,6.09766-21.791h8.21289L479.754,325.19824q-2.93555,8.40234-4.64453,10.42188-1.70948,2.01855-6.83789,2.01953-1.03125,0-1.65527-.01367-.624-.01466-1.87207-.09473Z"/><path class="cls-2" d="M500.43957,316.25488a5.13819,5.13819,0,0,0,1.0625,2.92676q1.44286,1.5454,5.33789,1.54492a8.16088,8.16088,0,0,0,3.63477-.67773,2.16921,2.16921,0,0,0,1.34863-2.03223,2.19257,2.19257,0,0,0-1.08594-1.97949q-1.08691-.67675-8.08105-2.33008-5.03614-1.24657-7.09571-3.11719a6.75726,6.75726,0,0,1-2.05957-5.3125,9.20337,9.20337,0,0,1,3.21875-7.0332q3.21826-2.94141,9.0586-2.94141a16.65733,16.65733,0,0,1,9.03125,2.209q3.48925,2.21044,4.00586,7.62988h-7.72461a4.56562,4.56562,0,0,0-.8418-2.35742q-1.27881-1.57178-4.34863-1.57227a6.25938,6.25938,0,0,0-3.60157.78614,2.2599,2.2599,0,0,0-1.07324,1.84277,2.01553,2.01553,0,0,0,1.1416,1.9248q1.14112.62256,8.06543,2.14063a14.8007,14.8007,0,0,1,6.91992,3.2793,7.44817,7.44817,0,0,1,2.27637,5.55664,8.96906,8.96906,0,0,1-3.27246,7.16894q-3.27246,2.77736-10.11621,2.77832-6.98,0-10.30664-2.94043a9.55758,9.55758,0,0,1-3.32715-7.49414Z"/><path class="cls-2" d="M522.28527,301.916v-5.502h4.11914V288.1748H534.048v8.23926h4.79785v5.502H534.048v15.6123a3.51025,3.51025,0,0,0,.46093,2.2627q.46.44823,2.81836.44726c.23536,0,.4834-.0039.7461-.01269.26172-.00977.51855-.02247.77246-.041V325.958l-3.65918.13476q-5.47559.19044-7.48047-1.89648a5.65084,5.65084,0,0,1-1.30176-4.09277V301.916Z"/><path class="cls-2" d="M563.05676,296.74219a12.01143,12.01143,0,0,1,5.10449,4.37011,14.522,14.522,0,0,1,2.35449,6.10743,37.764,37.764,0,0,1,.25391,5.86328h-21.5166q.18016,4.44581,3.08886,6.23437a7.84755,7.84755,0,0,0,4.25977,1.11133,5.99941,5.99941,0,0,0,5.8789-3.38867h7.88672a9.64825,9.64825,0,0,1-2.86425,5.33984q-3.96974,4.30957-11.11426,4.30957a16.10534,16.10534,0,0,1-10.40625-3.63476q-4.50879-3.63574-4.50879-11.82813,0-7.67577,4.07031-11.77246a14.24319,14.24319,0,0,1,10.56445-4.09668A16.82364,16.82364,0,0,1,563.05676,296.74219ZM551.50012,303.415a8.02432,8.02432,0,0,0-2.05762,4.57226h13.30859a6.44637,6.44637,0,0,0-2.05859-4.668,6.7685,6.7685,0,0,0-4.58106-1.59278A6.12916,6.12916,0,0,0,551.50012,303.415Z"/><path class="cls-2" d="M611.5382,296.252a8.59181,8.59181,0,0,1,3.44238,2.65625,8.486,8.486,0,0,1,1.68067,3.79395,26.36171,26.36171,0,0,1,.27051,4.36426l-.05371,18.62011h-7.915V306.877a6.17228,6.17228,0,0,0-.542-2.76465,3.85166,3.85166,0,0,0-3.79394-2.06054,4.43934,4.43934,0,0,0-4.418,2.65625,8.33467,8.33467,0,0,0-.62305,3.38769v17.59082h-7.77929V308.0957a9.8841,9.8841,0,0,0-.542-3.82129,3.7847,3.7847,0,0,0-3.82128-2.14062q-3.30762,0-4.44532,2.14062a8.2478,8.2478,0,0,0-.623,3.63184v17.78027h-7.833V296.19727h7.50683v4.30957a12.43963,12.43963,0,0,1,2.71094-3.2793,10.72538,10.72538,0,0,1,11.30176-.24414,8.67654,8.67654,0,0,1,2.54785,3.55078,9.81652,9.81652,0,0,1,3.76758-3.82129,11.49278,11.49278,0,0,1,5.3125-1.21973A10.28427,10.28427,0,0,1,611.5382,296.252Z"/></svg>