<svg id="Layer_1" data-name="Layer 1" xmlns="http://www.w3.org/2000/svg" viewBox="0 0 1000 290.95651"><defs><style>.cls-1{fill:#fc0;}.cls-2{fill:red;}.cls-3{fill:#fff;}</style></defs><title>catboost</title><polygon class="cls-1" points="6.968 4.612 6.968 285.058 243.026 285.058 321.713 144.835 242.018 4.612 6.968 4.612"/><circle class="cls-2" cx="182.94586" cy="84.70822" r="30.91657"/><rect class="cls-2" x="164.90939" y="102.90747" width="7.73316" height="72.63353" transform="translate(34.11675 -33.21593) rotate(12.49417)"/><circle class="cls-3" cx="114.34758" cy="84.70822" r="30.91657"/><rect class="cls-3" x="125.81851" y="104.54676" width="7.73316" height="72.63353" transform="translate(286.77342 250.33503) rotate(167.50583)"/><circle class="cls-3" cx="225.9926" cy="126.57106" r="22.07397"/><rect class="cls-3" x="192.20417" y="129.20308" width="7.28063" height="51.85925" transform="translate(211.09095 404.50946) rotate(-131.88212)"/><circle class="cls-3" cx="71.35883" cy="129.53378" r="22.07397"/><rect class="cls-3" x="98.73325" y="131.22231" width="7.28063" height="51.85925" transform="translate(286.98047 190.27854) rotate(133.25457)"/><circle class="cls-2" cx="149.71257" cy="199.81445" r="43.88276"/><path d="M430.2207,193.77125q-23.64434,0-35.02136-12.782-11.3817-12.782-11.37937-39.23407,0-26.45028,11.3045-39.23407,11.30625-12.7803,34.80142-12.78205,15.6617,0,24.8259,5.172v13.00433q-10.49553-6.35242-24.38252-6.35476-17.29015,0-25.12188,9.531-7.83348,9.53214-7.83231,30.515,0,21.13494,7.906,30.73727,7.90368,9.60934,25.49156,9.60467,13.74194,0,23.93914-6.35242v13.002Q445.73557,193.77124,430.2207,193.77125Z"/><path d="M494.648,193.77125q-11.96956,0-18.32491-5.98508-6.35417-5.98391-6.35359-16.92106,0-23.78821,31.03209-23.79056a128.51529,128.51529,0,0,1,19.80129,1.47872v-2.06951q0-10.63942-4.58006-14.92525-4.58357-4.28351-15.812-4.28525a48.31894,48.31894,0,0,0-25.41669,7.24035V121.95384q11.22729-6.05761,26.74684-6.05878,16.84619,0,24.30882,6.94437,7.4597,6.94905,7.46146,22.61016v46.54813H522.72383l-.8856-9.60467A37.10553,37.10553,0,0,1,494.648,193.77125Zm2.65913-11.3782q13.74367,0,23.49575-12.265V159.0447a143.997,143.997,0,0,0-18.47114-1.33132q-19.36085,0-19.35791,13.00433Q482.97384,182.39422,497.30714,182.393Z"/><path d="M582.42368,193.77125q-11.67651,0-17.14334-5.09831-5.468-5.09949-5.46565-16.1817V128.45483H545.7762V117.66742h14.3333l1.329-21.13144h11.08339v21.13144h22.01938v10.78741H572.52186v42.56q0,6.50333,2.58543,9.08758,2.58658,2.58659,9.08992,2.58542a23.61074,23.61074,0,0,0,10.344-2.06834v11.3782A35.79949,35.79949,0,0,1,582.42368,193.77125Z"/><path d="M611.53483,191.99772V91.51254H650.99q17.73062,0,26.00865,6.27988,8.27217,6.28222,8.27335,19.58019,0,16.84619-13.74135,21.72223v.296q9.30753,2.36549,13.59394,8.4231,4.28526,6.06111,4.28642,16.40164,0,14.48421-8.35056,21.1326-8.34939,6.65075-26.376,6.64957ZM624.834,135.10556h23.938q12.85926,0,18.10263-3.62076,5.24338-3.62018,5.24572-12.33866,0-8.71791-5.09831-12.26613-5.096-3.54648-17.51068-3.54589H624.834Zm0,45.06941h28.077q12.55743,0,17.80549-3.69446,5.24339-3.69213,5.24572-12.85458,0-9.311-5.39312-13.00432-5.3943-3.69213-18.39745-3.69447H624.834Z"/><path d="M768.24651,183.94431q-9.08641,9.83044-26.67079,9.82694-17.59023,0-26.67314-9.82694-9.08992-9.82695-9.08992-29.03862,0-19.20642,9.08992-29.11,9.08642-9.89889,26.67314-9.90064,17.58321,0,26.67079,9.90064,9.08993,9.90066,9.08992,29.11Q777.33643,174.11736,768.24651,183.94431Zm-43.88666-8.27569q5.54169,6.72793,17.21587,6.72443,11.66949,0,17.21353-6.72443,5.54169-6.72093,5.54286-20.76293,0-14.035-5.54286-20.83546-5.54171-6.79464-17.21353-6.797-11.67653,0-17.21587,6.797-5.54171,6.79989-5.54287,20.83546Q718.817,168.94769,724.35985,175.66862Z"/><path d="M855.43256,183.94431q-9.08641,9.83044-26.67079,9.82694-17.59023,0-26.67314-9.82694-9.08992-9.82695-9.08992-29.03862,0-19.20642,9.08992-29.11,9.08642-9.89889,26.67314-9.90064,17.58321,0,26.67079,9.90064,9.08993,9.90066,9.08992,29.11Q864.52248,174.11736,855.43256,183.94431Zm-43.88666-8.27569q5.54169,6.72793,17.21587,6.72443,11.66949,0,17.21353-6.72443,5.54169-6.72093,5.54286-20.76293,0-14.035-5.54286-20.83546-5.5417-6.79464-17.21353-6.797-11.67652,0-17.21587,6.797-5.5417,6.79989-5.54287,20.83546Q806.003,168.94769,811.5459,175.66862Z"/><path d="M906.78068,193.77125q-18.02893,0-28.077-6.50216V174.70932a52.72162,52.72162,0,0,0,28.22439,7.83114q17.73413,0,17.73295-10.78858a7.78361,7.78361,0,0,0-2.9551-6.64957q-2.95862-2.21457-11.23079-3.98927l-10.344-2.21574q-10.78859-2.362-15.44234-7.09412-4.65376-4.72746-4.65376-13.29913,0-22.609,29.25855-22.609,14.4807,0,23.49576,4.72863V133.332a46.29976,46.29976,0,0,0-23.49576-6.20618q-16.70229,0-16.69878,10.49143a6.843,6.843,0,0,0,2.81,5.87862q2.8077,2.05665,10.6482,3.67224l10.17089,2.33039q11.53612,2.50938,16.26593,7.51527,4.731,5.01174,4.73331,13.70391Q937.22315,193.77243,906.78068,193.77125Z"/><path d="M979.33863,193.77125q-11.67653,0-17.14334-5.09831-5.468-5.09949-5.46566-16.1817V128.45483H942.69114V117.66742h14.3333l1.329-21.13144h11.08339v21.13144h22.01937v10.78741H969.43681v42.56q0,6.50333,2.58542,9.08758,2.5866,2.58659,9.08992,2.58542a23.61068,23.61068,0,0,0,10.344-2.06834v11.3782A35.79943,35.79943,0,0,1,979.33863,193.77125Z"/></svg>