<svg id="content" xmlns="http://www.w3.org/2000/svg" viewBox="0 0 1240.41855 229.69814"><defs><style>.cls-1{fill:#2fa5de;}</style></defs><title>chainer-RL</title><path class="cls-1" d="M198.12318,12.62431c48.00846,1.31932,88.20368,16.27516,122.087,47.564,27.03677,24.96642,44.34879,55.413,52.63715,91.10587.95773,4.12427,2.57025,7.03322,6.39367,9.38363,10.96155,6.73856,15.86829,21.1931,12.04508,33.72142-3.9625,12.98505-14.8855,20.98655-28.13278,21.47474-10.39869.38321-18.48581-3.57935-24.81839-11.42365-2.35294-2.91467-5.0163-3.78287-8.62293-3.77978q-129.20388.11031-258.40782-.01032a9.94952,9.94952,0,0,0-8.83409,4.30744c-7.46788,9.8027-21.65477,13.71459-33.38915,9.55841A30.41425,30.41425,0,0,1,8.85117,186.86589c-.499-11.5141,4.49215-19.97922,13.35172-26.36992,3.19655-2.30578,4.48938-5.02807,5.26317-8.54594,5.709-25.95447,16.51947-49.58867,33.04189-70.41736,29.80882-37.578,68.41582-60.143,116.03159-66.86569C184.4315,13.55275,192.42384,13.14929,198.12318,12.62431ZM83.99858,88.94965c-1.10973.39462-1.508.41047-1.68243.61618a153.28169,153.28169,0,0,0-32.62941,63.397c-.71033,2.90132.42047,4.337,2.83038,5.49177a28.10944,28.10944,0,0,1,14.6003,15.71814c1.37953,3.62757,3.57205,4.61515,7.18744,4.60971q75.97642-.11388,151.953.01459c4.32751.00876,5.87625-1.45376,5.8081-5.79992-.19854-12.65966-.24624-25.32822.02344-37.98526.10187-4.78028-1.24155-7.81766-5.37176-10.69344-13.52124-9.41452-16.61918-27.06393-7.81189-41.28143C226.787,70.3143,244.468,65.68268,258.203,72.74332c10.793,5.54832,16.45572,14.64254,16.63733,26.519.18838,12.31847-5.67136,21.69712-16.5694,27.63907-2.31082,1.26-4.298,2.27471-4.28113,5.39694q.11325,20.99259.00089,41.98618c-.01325,3.19638,1.42639,4.47943,4.55072,4.45343,8.16348-.068,16.32965-.11514,24.49127.02908,3.71643.06571,5.01123-1.5516,4.945-5.10907-.13016-6.99534-.03031-13.99492-.02961-20.99275.0015-15.17174.00022-15.03856,15.071-15.00954,4.46792.00863,6.266,1.35863,6.14566,6.01909-.25794,9.99013.00375,19.99257-.10745,29.98818-.03965,3.56012,1.23675,5.22851,4.95132,5.09964,4.65958-.16165,9.33286-.15137,13.99292.00421,3.12311.10425,4.948-1.03735,5.89243-4.10327A25.301,25.301,0,0,1,346.1147,160.019c5.06015-2.81532,5.124-5.84718,3.74936-10.594C336.202,102.24943,307.03,68.30359,262.43022,48.08368c-27.8208-12.61294-57.161-16.07288-87.43008-11.17275-4.44245.71917-6.096,2.55883-6.01013,7.18282.26913,14.49054.17895,28.99.04339,43.48425-.03436,3.67824.7609,6.23862,4.40146,8.00691a26.56289,26.56289,0,0,1,11.74664,11.91124c5.86628,11.081,5.22061,22.10186-1.99038,32.07619-7.2721,10.05885-17.5199,14.81156-30.10762,12.33214-13.30787-2.62123-22.42226-12.121-24.71885-25.00906-2.17076-12.18189,3.45055-24.10439,15.03333-31.26415,2.58478-1.59775,3.74313-3.42026,3.72465-6.42293-.081-13.16208-.10122-26.32556.01163-39.48719.03453-4.0281-1.26938-5.005-5.0825-3.50078-11.86968,4.68248-22.63866,11.26468-33.07938,18.48828-2.569,1.77742-3.00439,4.14424-2.99426,6.935.04053,11.16307.01314,22.32639.01242,33.48961-.00089,13.66279-.00021,13.66278-13.85851,13.64332-8.12506-.01142-8.12779-.01141-8.13259-8.3571C83.99536,103.35547,83.99858,96.29149,83.99858,88.94965Z"/><path class="cls-1" d="M1063.00041,113.67433c.00073-15.31793.14282-30.638-.08459-45.95251-.06934-4.67418,1.67334-6.146,6.13623-5.98636,12.79626.45778,25.603-.41388,38.41235.85571,13.40247,1.32835,23.90418,9.76112,27.18616,22.74437,3.608,14.2733-1.31519,28.52161-13.04431,35.33824-4.67676,2.71794-4.117,4.86279-1.65052,8.48892,7.30347,10.7374,14.4209,21.60151,21.58265,32.43491.79858,1.20793,2.21252,2.41568,1.50354,3.99443-.76026,1.6928-2.60913,1.10962-4.0304,1.16-17.8761.63393-17.8938.63525-27.76892-14.26457-4.59827-6.93787-9.0752-13.95616-13.68359-20.88718a9.918,9.918,0,0,0-11.34937-3.70346c-2.507.94231-2.23315,3.06775-2.24341,5.01218-.04748,8.99069-.01,17.98182-.03528,26.9727-.01892,6.737-.16955,6.86456-7.10534,6.89281q-3.49659.01423-6.993-.00089c-6.62342-.03841-6.81653-.19492-6.82581-6.64607Q1062.97325,136.901,1063.00041,113.67433Zm31.87134-5.911c3.65771-.06665,7.31238.04256,10.90649-.97243,6.39539-1.806,9.396-5.93518,9.23365-12.98167-.1438-6.24133-3.35193-10.551-9.59485-11.58077-5.55335-.916-11.24475-1.00531-16.87757-1.42665-3.50341-.26208-4.70861,1.60332-4.616,4.87941.10815,3.82618-.014,7.65827.0188,11.48731C1084.03764,108.30646,1082.5435,107.829,1094.87175,107.76335Z"/><path class="cls-1" d="M1183.99614,105.20518c0,12.33327.10889,24.66805-.06128,36.999-.05688,4.11227,1.44824,5.60923,5.554,5.53972,10.66345-.18055,21.33422.06918,31.99768-.11347,4.11035-.07042,5.63,1.4326,5.55139,5.54068-.30615,15.99794,1.86474,13.43536-13.45069,13.57585-14.832.13608-29.66809-.09945-44.49853.1035-4.5365.06209-6.13623-1.4545-6.11475-6.04786.14344-30.83252.06055-61.666.08692-92.4992.00512-6.00527.50964-6.44177,6.65832-6.50675,2.99951-.03171,6.00366.10179,8.99878-.016,3.86487-.152,5.3302,1.637,5.29907,5.42511-.104,12.66572-.03943,25.33285-.03943,37.99943Z"/><path class="cls-1" d="M506.3264,166.69984c-11.55572.69094-22.3642-1.51638-31.87311-8.221-10.83117-7.63706-15.70282-18.71328-17.02533-31.50734-1.73986-16.83123,1.29236-32.21325,14.22754-44.40451a37.24484,37.24484,0,0,1,10.35474-6.89338c16.66034-7.48913,33.53894-7.42917,50.50439-1.13815,3.04834,1.13036,5.8877,2.42983,3.74848,6.90314-2.57447,5.38379-2.44745,5.4499-7.88282,2.55365-16.70922-8.90375-47.75732-6.7141-56.92468,16.84848-5.15112,13.24-4.8833,26.50618,1.41864,39.2604,4.58582,9.28113,12.69861,14.52286,22.72394,16.31936,12.40717,2.22329,24.573,1.55921,35.73071-5.22762,2.39325-1.45576,4.0918-1.07468,5.16864,1.51671,1.1637,2.80066,3.5951,5.68349-.728,8.08891-6.70447,3.73055-13.98157,5.30246-21.51941,5.86951C511.59886,166.86742,508.91991,166.69984,506.3264,166.69984Z"/><path class="cls-1" d="M908.534,132.794c-7.49444,0-14.98938.0511-22.48315-.02169-3.71631-.03608-4.9043,1.38964-4.362,5.21843,1.53686,10.84973,6.75128,16.64073,17.60736,18.8523A40.26972,40.26972,0,0,0,924.2,154.22354c1.79748-.7928,3.97259-3.4986,5.72747.22289,1.98932,4.2185,1.24158,7.41247-2.38409,8.72575-7.45886,2.70166-15.30273,3.23878-23.10937,2.976-4.76606-.16041-9.63623-.29547-14.28766-1.96939-12.09424-4.35248-17.79212-13.42566-18.99939-25.696a54.89436,54.89436,0,0,1,.90637-15.90284c2.316-11.90456,8.899-20.14988,20.737-23.13211,13.08295-3.2959,25.98663-3.21181,36.443,7.059,6.4527,6.33821,6.98224,14.82914,6.64386,23.29814-.12182,3.05122-2.67859,2.941-4.85992,2.94939-7.49433.02888-14.98883.0111-22.48328.0111Zm-4.8518-8.05922c4.48962,0,8.98632.15181,13.46624-.0568,2.69776-.12562,6.51471,1.47637,7.8368-1.31979,1.544-3.26556-.738-6.71437-2.68622-9.63713a12.73134,12.73134,0,0,0-5.67548-4.73918,29.66953,29.66953,0,0,0-23.73291-.14873c-4.90924,2.04675-7.64777,6.16885-9.48,11.0213-1.25971,3.33621-.64722,5.01883,3.312,4.91081C892.37193,124.61114,898.02867,124.726,903.68224,124.73479Z"/><path class="cls-1" d="M562.95122,117.01652c-.00092-13.317.04193-26.63421-.02887-39.95082-.01941-3.64361.10016-6.49374,5.12158-6.471,5.20447.02357,4.91406,3.22244,4.90045,6.67221-.027,6.82484.10047,13.6521-.04327,20.474-.0824,3.911,1.27374,4.64423,4.77557,3.11742a46.86207,46.86207,0,0,1,32.191-2.10465c9.5246,2.64032,13.57416,9.54465,13.90533,18.50461.5224,14.13.17524,28.29149.24653,42.43941.01733,3.44453-2.01325,4.07026-4.8797,4.09361-3.06025.02492-5.20526-.60645-5.187-4.3241.058-11.81839.02759-23.63742-.01141-35.456-.04529-13.74452-5.70239-19.06832-19.41254-18.20918a47.89005,47.89005,0,0,0-6.89782,1.06456c-12.902,2.73719-14.64,4.879-14.64087,17.81637-.00073,11.153-.0603,22.30641.029,33.45867.02789,3.48071-.64008,5.6623-4.8819,5.71118-4.43078.051-5.26056-2.11856-5.22949-5.88683C563.02031,144.31692,562.95213,130.66644,562.95122,117.01652Z"/><path class="cls-1" d="M708.91679,137.20744c-.00213,6.8299.0116,13.65984-.00988,20.48966-.00721,2.28511-.3415,4.36995-3.22406,4.79135-10.66248,1.5587-21.19043,4.46483-32.12769,3.244a46.9698,46.9698,0,0,1-7.86676-1.19563c-7.19006-2.0858-12.59277-6.05687-13.59845-14.17191-1.1029-8.89955,1.51758-16.04963,9.4505-20.91488,7.03674-4.31562,14.94238-5.44889,22.8617-6.60511,2.46911-.3605,4.95312-.61691,7.42608-.952,6.31818-.8561,8.36353-5.79236,4.53546-11.0654-2.437-3.35681-6.05438-4.72206-9.9649-4.98871-8.89765-.60673-17.69361-.16159-25.7074,4.41081-2.43512,1.38939-4.05914,1.05426-5.10675-1.58955-.93335-2.3553-2.254-4.91071,1.17621-6.30591,13.30151-5.41029,26.84625-7.7991,40.75256-2.36281,7.97632,3.11815,11.21607,9.54291,11.37934,17.72652C709.02232,124.212,708.91887,130.71074,708.91679,137.20744Zm-9.97741,4.56145c0-2.329-.12061-4.66556.02588-6.98528.27941-4.42549-1.90961-5.52449-5.8678-4.8061-3.75934.68229-7.55359,1.18559-11.34345,1.68429-5.32989.70137-10.50781,1.82059-14.90063,5.17131a11.24071,11.24071,0,0,0-4.63983,10.924c.5841,4.62521,3.39032,7.377,7.749,8.80737,5.04877,1.65692,10.23309,1.41637,15.33276.88213,12.01764-1.259,13.6529-3.2394,13.65314-15.17865C698.94847,142.10161,698.94847,141.93524,698.93938,141.76889Z"/><path class="cls-1" d="M783.00365,132.66362c.00055-8.48863.10888-16.97929-.04938-25.465-.06952-3.72638,1.14813-5.208,5.09692-5.52284,8.74994-.69774,16.97858-4.33574,25.9303-4.53778,14.64148-.33046,30.243,5.45912,30.02576,25.8583-.12232,11.48331-.07544,22.96944.01312,34.4534.0285,3.7002-.22473,6.48662-5.19165,6.41258-4.68921-.0699-4.929-2.71519-4.90356-6.201.07257-9.9861-.02179-19.97341.04589-29.95957a41.535,41.535,0,0,0-1.3142-10.37066c-1.31861-5.28608-4.59961-9.18668-9.973-10.04427-7.38348-1.17844-14.89349-1.551-22.18347,1.08295-5.05194,1.82528-7.73382,4.76237-7.54156,10.72839.418,12.96909.04748,25.96184.173,38.94322.03711,3.844-.95123,5.86092-5.3078,5.81157-4.2544-.0482-4.8988-2.25186-4.85541-5.72386C783.07451,149.64178,783.0031,141.15227,783.00365,132.66362Z"/><path class="cls-1" d="M974.07207,138.02142c0,6.99869-.098,13.99932.03882,20.99532.07495,3.83392-1.83728,4.81871-5.27308,4.79841-3.32995-.01966-4.86816-1.21559-4.85376-4.68786q.1095-26.49456.01087-52.98979c-.00928-3.16042,1.31885-4.68052,4.48511-4.47788,3.081.19719,5.8684-.81291,8.72265-1.80754,8.567-2.98538,17.36511-2.889,26.14453-1.26257,4.34351.80469,6.05262,4.66188,4.35193,8.70715-1.1886,2.82732-3.23,1.65285-5.05639,1.07747a34.32444,34.32444,0,0,0-21.61329.14073c-4.62585,1.527-7.2301,4.23126-7.00647,9.51309.28174,6.65352.068,13.328.068,19.99347Z"/><path class="cls-1" d="M752.93571,132.22684c-.0014,8.48231-.1051,16.96647.04468,25.44615.06928,3.92239-.70392,6.23092-5.4317,6.21576-4.52765-.01454-5.65411-1.9034-5.60815-6.02912.15765-14.13542.04876-28.27375.06427-42.41093.00372-3.38136.46038-6.75853-4.62348-7.08385-2.67444-.17112-2.257-2.84851-2.27691-4.80269-.02076-2.03744.65149-3.60723,3.00213-3.81453.33124-.02922.66321-.07154.99488-.07154,16.53015-.00045,13.58074-1.707,13.81695,12.59265C753.02824,118.91972,752.93712,125.574,752.93571,132.22684Z"/><path class="cls-1" d="M742.12743,80.09793c-.60413-4.319.97943-6.39525,5.67834-6.39258,4.27374.00243,5.27551,1.88765,5.32062,5.745.04931,4.21377-.88452,6.48524-5.75488,6.33073C743.25285,85.65045,741.5258,84.16948,742.12743,80.09793Z"/></svg>