<?xml version="1.0" standalone="no"?>
<!DOCTYPE svg PUBLIC "-//W3C//DTD SVG 20010904//EN"
 "http://www.w3.org/TR/2001/REC-SVG-20010904/DTD/svg10.dtd">
<svg version="1.0" xmlns="http://www.w3.org/2000/svg"
 width="404.000000pt" height="198.000000pt" viewBox="0 0 404.000000 198.000000"
 preserveAspectRatio="xMidYMid meet">

<g transform="translate(0.000000,198.000000) scale(0.100000,-0.100000)"
fill="#000000" stroke="none">
<path d="M0 1805 l0 -175 2004 0 c1102 0 2011 -3 2020 -6 14 -5 16 14 16 175
l0 181 -2020 0 -2020 0 0 -175z"/>
<path d="M775 1460 c-9 -10 -80 -52 -157 -91 -168 -86 -242 -149 -289 -244
-29 -59 -31 -70 -28 -147 5 -98 34 -169 100 -239 l41 -44 -36 45 c-20 24 -49
69 -64 100 -23 47 -27 67 -27 145 0 75 4 98 25 140 32 66 99 132 186 183 85
51 109 55 38 8 -62 -42 -105 -94 -142 -173 -24 -52 -27 -70 -27 -163 0 -94 3
-111 28 -165 15 -32 39 -74 52 -91 14 -18 25 -35 25 -37 0 -11 -128 6 -152 21
-15 9 -30 13 -34 9 -4 -3 -3 -44 2 -89 l9 -83 40 -14 c65 -22 199 -25 299 -7
122 23 216 22 317 -5 109 -29 252 -32 292 -6 26 17 27 21 27 101 0 45 -2 85
-5 88 -3 3 -22 -3 -43 -14 -26 -13 -54 -18 -94 -17 -32 1 -58 4 -58 7 0 2 16
26 36 53 185 253 38 608 -274 658 -64 10 -156 1 -195 -21 -10 -5 -20 -8 -23
-6 -2 2 21 17 51 32 46 24 120 86 103 86 -3 0 -13 -9 -23 -20z m160 -201 c48
-23 52 -28 33 -47 -10 -10 -6 -18 15 -39 22 -22 29 -25 39 -15 11 11 10 12 -3
7 -18 -7 -54 29 -44 44 12 20 31 11 62 -26 46 -59 64 -100 70 -164 4 -50 3
-59 -11 -59 -9 0 -16 5 -16 10 0 6 -4 10 -10 10 -5 0 -7 -7 -4 -15 4 -8 15
-15 25 -15 28 0 24 -37 -12 -108 -29 -60 -99 -132 -126 -132 -7 0 -13 10 -13
23 0 33 -8 38 -38 24 -21 -10 -26 -9 -30 3 -8 24 -61 72 -72 65 -6 -4 -10 11
-10 38 l0 45 -97 6 c-148 10 -203 17 -203 27 0 5 9 9 19 9 11 0 23 5 26 10 3
6 26 10 51 10 24 0 44 5 44 10 0 6 12 10 28 11 26 1 26 1 3 8 -20 5 -22 8 -9
19 12 10 19 7 39 -17 20 -24 33 -30 69 -31 79 -3 98 0 104 16 5 13 3 14 -6 7
-7 -6 -38 -11 -68 -12 l-56 -1 -11 43 c-7 23 -15 50 -18 59 -5 12 0 18 17 21
18 3 16 5 -9 6 -25 1 -31 -2 -27 -14 4 -10 0 -15 -15 -15 -12 0 -21 5 -21 10
0 6 -10 10 -22 9 -13 0 -18 -3 -12 -5 7 -3 9 -15 7 -27 -5 -18 -3 -20 8 -9 7
6 19 12 27 12 7 0 12 -6 9 -12 -2 -7 -11 -12 -18 -10 -8 2 -11 0 -7 -3 11 -11
-10 -45 -27 -45 -8 0 -15 -5 -15 -11 0 -7 -14 -10 -35 -7 -24 3 -35 0 -35 -9
0 -7 -7 -13 -16 -13 -14 0 -16 10 -12 66 2 38 9 69 17 73 7 5 12 11 12 15 -1
3 6 20 14 36 14 26 18 28 35 18 16 -10 23 -9 45 12 25 23 25 23 25 2 0 -11 -4
-23 -9 -27 -6 -3 -9 -14 -8 -25 1 -10 4 -17 8 -14 4 2 10 -2 12 -8 4 -9 8 -10
14 -2 4 6 13 13 20 15 8 3 9 9 3 19 -8 13 -11 12 -23 -4 -8 -11 -17 -15 -20
-9 -3 5 2 15 12 22 11 8 16 22 13 36 -3 19 2 25 33 35 20 7 34 14 32 16 -2 3
-27 -4 -55 -15 -49 -20 -72 -15 -56 10 30 50 225 67 309 28z m-355 -14 c19
-11 21 -14 8 -15 -10 0 -18 -5 -18 -11 0 -5 -5 -7 -12 -3 -9 6 -9 9 1 12 8 3
7 8 -6 18 -24 18 -5 17 27 -1z m513 -9 c3 -8 -3 -22 -14 -32 -18 -16 -19 -16
-13 -1 5 14 2 16 -12 10 -14 -4 -12 0 6 15 30 26 27 25 33 8z m-473 -41 c0
-15 -27 -28 -42 -19 -5 3 -2 14 8 25 18 20 34 17 34 -6z m-72 -5 c4 -12 2 -13
-9 -4 -8 7 -23 14 -34 17 -13 4 -9 5 9 4 16 -1 32 -9 34 -17z m558 -5 c-11 -8
-24 -15 -30 -15 -5 0 -1 7 10 15 10 8 24 14 29 14 6 0 1 -6 -9 -14z m-611 -5
c3 -5 1 -10 -4 -10 -6 0 -11 5 -11 10 0 6 2 10 4 10 3 0 8 -4 11 -10z m25 -20
c0 -5 -10 -10 -21 -10 -19 0 -20 -2 -8 -17 13 -15 12 -15 -8 -2 l-23 14 23 12
c27 15 37 16 37 3z m606 -5 c-25 -19 -41 -19 -24 0 7 8 20 14 28 14 11 0 10
-3 -4 -14z m34 -35 c0 -3 -10 -11 -22 -19 -13 -7 -20 -10 -16 -6 4 5 3 14 -2
21 -8 9 -4 12 15 10 14 0 25 -3 25 -6z m-679 -23 c-6 -8 -7 -17 -3 -22 4 -4
-3 -1 -15 6 -30 18 -29 29 3 29 21 0 24 -3 15 -13z m699 -31 c0 -8 -4 -18 -10
-21 -6 -3 -7 1 -4 9 10 26 -4 18 -21 -11 -14 -24 -16 -25 -12 -5 3 12 0 22 -6
22 -19 0 16 20 36 20 9 0 17 -6 17 -14z m-715 -16 c18 -8 17 -9 -7 -9 -15 -1
-30 4 -33 9 -7 12 12 12 40 0z m240 0 c3 -5 1 -10 -6 -10 -7 0 -4 -6 7 -14 10
-8 15 -18 11 -22 -11 -11 -51 32 -43 45 9 14 23 14 31 1z m459 -57 c-26 -19
-36 -16 -22 6 6 11 18 17 26 13 12 -4 12 -8 -4 -19z m-694 8 c0 -4 -11 -6 -25
-3 -14 2 -25 6 -25 8 0 2 11 4 25 4 14 0 25 -4 25 -9z m-10 -36 c-10 -12 -10
-15 0 -15 8 0 11 -2 9 -5 -3 -2 -15 -1 -28 2 -23 6 -23 7 -6 20 25 18 40 17
25 -2z m720 -14 c0 -4 -11 -6 -25 -3 -14 2 -25 6 -25 8 0 2 11 4 25 4 14 0 25
-4 25 -9z m-710 -41 c-20 -13 -43 -13 -35 0 3 6 16 10 28 10 18 0 19 -2 7 -10z
m695 0 l20 -9 -20 0 c-11 0 -27 4 -35 9 -13 9 -13 10 0 9 8 0 24 -4 35 -9z
m-545 -45 c0 -23 7 -41 20 -52 23 -20 29 -93 8 -93 -21 1 -48 26 -48 45 0 10
-6 26 -14 34 -7 9 -16 35 -20 59 -6 42 -6 42 24 42 28 0 30 -3 30 -35z m-135
15 c-3 -5 -16 -10 -28 -10 -18 0 -19 2 -7 10 20 13 43 13 35 0z m215 -27 c0
-20 7 -44 16 -54 24 -27 10 -79 -22 -79 -15 0 -24 6 -24 16 0 11 6 15 20 11
18 -4 16 0 -10 33 -21 26 -30 49 -30 74 0 32 3 36 25 36 22 0 25 -4 25 -37z
m470 15 c0 -6 -7 -7 -16 -4 -9 3 -20 6 -25 6 -5 0 -9 4 -9 9 0 4 11 6 25 3 14
-2 25 -9 25 -14z m-408 -23 c5 -40 -11 -62 -30 -43 -7 7 -12 27 -12 45 0 26 4
33 19 33 14 0 20 -9 23 -35z m-252 -10 c0 -17 -37 -39 -44 -26 -3 5 4 11 15
14 15 4 20 11 15 22 -3 9 -2 13 4 10 6 -3 10 -13 10 -20z m639 -1 c14 -12 -19
-1 -35 12 -18 14 -18 14 6 3 14 -6 27 -13 29 -15z m-292 -69 c16 -33 17 -34
45 -19 27 14 28 14 28 -9 0 -23 -2 -23 -52 -16 -29 4 -74 8 -100 8 -27 1 -48
3 -48 6 0 19 35 67 53 74 30 12 55 -3 74 -44z m-367 -166 c0 -10 -4 -19 -10
-19 -5 0 -10 12 -10 26 0 14 4 23 10 19 6 -3 10 -15 10 -26z m270 5 c0 -22
-16 -17 -17 6 -1 11 2 18 8 15 5 -4 9 -13 9 -21z m330 1 c0 -25 -15 -24 -16 1
-1 13 2 21 7 18 5 -3 9 -11 9 -19z m-720 -6 c0 -11 -4 -17 -10 -14 -5 3 -10
13 -10 21 0 8 5 14 10 14 6 0 10 -9 10 -21z m47 -2 c2 -14 -1 -16 -12 -7 -10
8 -14 8 -18 -2 -3 -7 -6 -3 -6 9 -1 28 34 28 36 0z m37 8 c3 -8 1 -15 -3 -15
-5 0 -11 7 -15 15 -3 8 -1 15 3 15 5 0 11 -7 15 -15z m63 -17 c-3 -7 -5 -2 -5
12 0 14 2 19 5 13 2 -7 2 -19 0 -25z m36 12 c-3 -11 -7 -20 -9 -20 -2 0 -4 9
-4 20 0 11 4 20 9 20 5 0 7 -9 4 -20z m38 3 c0 -16 2 -15 10 2 l9 20 -3 -20
c-3 -25 -30 -27 -35 -2 -2 9 1 17 7 17 6 0 11 -8 12 -17z m46 -15 c-3 -7 -5
-2 -5 12 0 14 2 19 5 13 2 -7 2 -19 0 -25z m43 12 c0 -11 -4 -20 -10 -20 -5 0
-10 9 -10 20 0 11 5 20 10 20 6 0 10 -9 10 -20z m46 1 c0 -11 -4 -17 -8 -15
-4 3 -8 12 -8 20 0 8 4 14 8 14 4 0 8 -9 8 -19z m51 -13 c-3 -7 -5 -2 -5 12 0
14 2 19 5 13 2 -7 2 -19 0 -25z m63 10 c0 -12 -3 -18 -7 -14 -11 10 -12 36 -2
36 5 0 9 -10 9 -22z m33 2 c3 -11 1 -20 -4 -20 -5 0 -9 9 -9 20 0 11 2 20 4
20 2 0 6 -9 9 -20z m32 11 c-3 -6 3 -15 12 -21 17 -10 16 -11 -2 -8 -21 3 -35
38 -15 38 6 0 9 -4 5 -9z m48 -16 c-7 -21 -13 -19 -13 6 0 11 4 18 10 14 5 -3
7 -12 3 -20z m24 -7 c-3 -7 -5 -2 -5 12 0 14 2 19 5 13 2 -7 2 -19 0 -25z m43
17 c7 -9 10 -18 6 -22 -3 -3 -6 -1 -6 6 0 7 -6 11 -13 8 -8 -3 -14 1 -14 9 0
18 11 18 27 -1z m37 -6 c2 -16 -1 -19 -9 -11 -5 5 -7 15 -4 21 10 15 12 14 13
-10z m56 1 c3 -11 1 -20 -4 -20 -5 0 -9 9 -9 20 0 11 2 20 4 20 2 0 6 -9 9
-20z m30 0 c3 -11 1 -18 -4 -14 -5 3 -9 12 -9 20 0 20 7 17 13 -6z m54 -2 c2
-15 -1 -17 -11 -9 -7 6 -16 8 -19 4 -4 -3 -7 0 -7 8 0 23 36 21 37 -3z m53 2
c0 -11 -2 -20 -4 -20 -2 0 -6 9 -9 20 -3 11 -1 20 4 20 5 0 9 -9 9 -20z m-20
-4 c0 -3 -4 -8 -10 -11 -5 -3 -10 -1 -10 4 0 6 5 11 10 11 6 0 10 -2 10 -4z"/>
<path d="M751 1258 c-1 -11 8 -18 27 -20 48 -5 82 3 81 21 0 10 -2 11 -6 4 -3
-8 -23 -13 -48 -13 -25 0 -45 5 -48 13 -3 7 -6 6 -6 -5z"/>
<path d="M920 1215 c0 -8 5 -15 10 -15 6 0 10 7 10 15 0 8 -4 15 -10 15 -5 0
-10 -7 -10 -15z"/>
<path d="M824 1189 c-3 -6 0 -15 7 -20 18 -11 21 -11 39 1 13 9 13 11 0 20
-20 13 -37 13 -46 -1z"/>
<path d="M932 1175 c-11 -12 -10 -15 3 -15 8 0 15 7 15 15 0 18 -2 18 -18 0z"/>
<path d="M788 1163 c7 -3 16 -2 19 1 4 3 -2 6 -13 5 -11 0 -14 -3 -6 -6z"/>
<path d="M723 1153 c9 -2 23 -2 30 0 6 3 -1 5 -18 5 -16 0 -22 -2 -12 -5z"/>
<path d="M800 1136 c0 -8 -6 -17 -12 -19 -8 -3 -6 -6 5 -6 11 -1 17 6 17 19 0
11 -2 20 -5 20 -3 0 -5 -6 -5 -14z"/>
<path d="M573 1133 c9 -2 23 -2 30 0 6 3 -1 5 -18 5 -16 0 -22 -2 -12 -5z"/>
<path d="M748 1133 c6 -2 18 -2 25 0 6 3 1 5 -13 5 -14 0 -19 -2 -12 -5z"/>
<path d="M905 1119 c-8 -25 -4 -31 15 -19 10 6 11 10 3 10 -7 0 -10 7 -7 15 4
8 4 15 1 15 -3 0 -9 -9 -12 -21z"/>
<path d="M943 1120 c5 -31 17 -36 17 -7 0 15 -4 27 -10 27 -5 0 -9 -9 -7 -20z"/>
<path d="M996 1123 c-8 -9 14 -33 30 -33 8 0 14 4 14 10 0 12 -35 31 -44 23z"/>
<path d="M548 1103 c7 -3 16 -2 19 1 4 3 -2 6 -13 5 -11 0 -14 -3 -6 -6z"/>
<path d="M801 1084 c0 -11 3 -14 6 -6 3 7 2 16 -1 19 -3 4 -6 -2 -5 -13z"/>
<path d="M563 1083 c9 -2 23 -2 30 0 6 3 -1 5 -18 5 -16 0 -22 -2 -12 -5z"/>
<path d="M888 1044 c-13 -29 -14 -33 -3 -18 23 32 61 21 77 -22 7 -19 16 -34
20 -34 5 0 1 14 -7 31 -9 17 -15 35 -13 41 2 5 13 -8 23 -31 16 -32 25 -41 45
-40 23 2 23 2 3 6 -14 3 -31 22 -47 56 -14 28 -26 43 -26 34 0 -23 -47 -23
-52 -1 -2 11 -9 3 -20 -22z"/>
<path d="M610 1025 c0 -8 2 -15 4 -15 2 0 6 7 10 15 3 8 1 15 -4 15 -6 0 -10
-7 -10 -15z"/>
<path d="M896 1013 c-6 -14 -5 -15 5 -6 7 7 10 15 7 18 -3 3 -9 -2 -12 -12z"/>
<path d="M875 980 c-3 -5 -1 -10 4 -10 6 0 11 5 11 10 0 6 -2 10 -4 10 -3 0
-8 -4 -11 -10z"/>
<path d="M915 979 c-16 -6 -14 -8 13 -8 33 -1 41 4 20 12 -7 2 -22 1 -33 -4z"/>
<path d="M890 940 c0 -5 6 -7 13 -4 8 3 20 -2 27 -11 10 -12 10 -18 -1 -32
-13 -16 -12 -17 3 -4 15 11 19 10 29 -13 9 -20 9 -29 -1 -41 -11 -13 -10 -14
4 -9 12 4 16 0 16 -15 0 -24 -10 -27 -28 -9 -9 9 -15 9 -24 0 -18 -18 -28 -15
-28 9 0 16 4 19 19 14 18 -5 18 -3 8 19 -13 29 -27 34 -27 10 0 -9 -7 -14 -17
-12 -27 5 -26 27 1 34 17 4 23 10 18 22 -3 10 -7 12 -10 4 -2 -7 -10 -12 -17
-12 -24 0 -28 -34 -6 -52 12 -9 21 -23 21 -32 0 -22 19 -30 36 -15 13 10 17
10 24 -2 11 -17 45 0 45 22 0 8 10 20 23 27 25 14 25 33 1 40 -11 3 -11 2 1
-7 13 -10 13 -12 0 -21 -25 -16 -35 -12 -50 23 -7 17 -15 35 -17 39 -5 8 36
32 43 25 3 -2 0 -16 -5 -31 -7 -16 -7 -26 -1 -26 15 0 24 50 12 62 -8 8 -18 6
-36 -5 -21 -14 -26 -14 -36 -2 -14 17 -40 20 -40 5z"/>
<path d="M833 1452 c11 -11 82 -54 160 -94 206 -106 281 -184 310 -324 9 -46
9 -65 -5 -117 -20 -76 -15 -89 6 -16 28 94 14 180 -45 268 -49 74 -116 126
-249 192 -58 29 -125 66 -150 82 -32 22 -40 25 -27 9z"/>
<path d="M1579 1361 c-52 -52 -33 -130 36 -147 15 -4 36 -2 48 4 19 8 17 10
-15 9 -50 -1 -78 25 -78 73 0 47 28 74 75 73 19 -1 32 3 29 8 -12 20 -66 9
-95 -20z"/>
<path d="M1710 1300 c0 -53 4 -90 10 -90 6 0 10 18 10 40 l0 40 45 0 45 0 0
-40 c0 -22 5 -40 10 -40 6 0 10 37 10 90 0 53 -4 90 -10 90 -5 0 -10 -18 -10
-40 l0 -40 -45 0 -45 0 0 40 c0 22 -4 40 -10 40 -6 0 -10 -37 -10 -90z"/>
<path d="M1903 1300 c-18 -49 -28 -90 -23 -90 5 0 15 12 22 27 12 25 24 30 66
24 5 0 14 -12 20 -26 6 -14 16 -25 21 -25 5 0 -5 40 -22 90 -18 49 -37 90 -42
90 -6 0 -25 -40 -42 -90z m66 -7 c1 -7 -10 -13 -24 -13 -29 0 -29 0 -13 53
l12 40 12 -34 c7 -19 13 -40 13 -46z"/>
<path d="M2050 1300 c0 -53 4 -90 10 -90 6 0 10 37 10 90 0 53 -4 90 -10 90
-6 0 -10 -37 -10 -90z"/>
<path d="M2090 1380 c0 -5 11 -10 25 -10 25 0 25 -1 25 -80 0 -47 4 -80 10
-80 6 0 10 33 10 80 0 79 0 80 25 80 14 0 25 5 25 10 0 6 -27 10 -60 10 -33 0
-60 -4 -60 -10z"/>
<path d="M2233 1300 c-18 -49 -28 -90 -23 -90 5 0 15 12 22 27 12 25 24 30 66
24 5 0 14 -12 20 -26 6 -14 16 -25 21 -25 6 0 -4 41 -22 90 -17 50 -36 90 -42
90 -6 0 -25 -40 -42 -90z m66 -7 c1 -7 -10 -13 -24 -13 -29 0 -29 0 -13 53
l12 40 12 -34 c7 -19 13 -40 13 -46z"/>
<path d="M2380 1300 c0 -53 4 -90 10 -90 6 0 10 32 10 77 l0 78 45 -78 c25
-42 50 -77 55 -77 6 0 10 38 10 90 0 53 -4 90 -10 90 -6 0 -10 -31 -10 -72 l0
-73 -42 73 c-24 39 -49 72 -55 72 -10 0 -13 -25 -13 -90z"/>
<path d="M2565 1340 c14 -28 25 -66 25 -90 0 -22 5 -40 10 -40 6 0 10 18 10
40 0 26 10 57 30 90 17 29 25 50 18 48 -7 -3 -22 -24 -34 -48 l-22 -43 -21 46
c-12 26 -26 47 -31 47 -6 0 1 -22 15 -50z"/>
<path d="M2693 1300 c-18 -49 -28 -90 -22 -90 5 0 14 11 19 25 5 14 13 25 17
26 5 0 16 2 26 4 20 4 47 -20 47 -41 0 -8 6 -14 14 -14 12 0 8 20 -17 90 -18
49 -37 90 -42 90 -6 0 -25 -40 -42 -90z m66 -7 c1 -7 -10 -13 -24 -13 -29 0
-29 1 -14 55 l12 40 13 -35 c7 -19 13 -41 13 -47z"/>
<path d="M1560 990 l0 -90 35 0 c56 0 95 51 61 80 -12 9 -13 17 -3 37 10 22 8
28 -12 44 -13 11 -36 19 -52 19 l-29 0 0 -90z m76 59 c12 -19 -8 -49 -32 -49
-20 0 -24 5 -24 28 0 16 3 31 6 34 7 8 43 -2 50 -13z m-12 -69 c16 -6 26 -17
26 -29 0 -22 -4 -26 -42 -35 -27 -6 -28 -5 -28 34 0 43 4 46 44 30z"/>
<path d="M1700 990 c0 -53 4 -90 10 -90 6 0 10 18 10 40 l0 40 45 0 45 0 0
-40 c0 -22 5 -40 10 -40 6 0 10 37 10 90 0 53 -4 90 -10 90 -5 0 -10 -18 -10
-40 l0 -40 -45 0 -45 0 0 40 c0 22 -4 40 -10 40 -6 0 -10 -37 -10 -90z"/>
<path d="M1892 990 c-29 -85 -29 -122 0 -63 8 17 23 28 40 30 22 3 30 -2 43
-27 32 -61 33 -27 2 60 -17 50 -37 90 -43 90 -6 0 -25 -40 -42 -90z m67 -7 c1
-7 -10 -13 -24 -13 -29 0 -29 1 -14 55 l12 40 13 -35 c7 -19 13 -41 13 -47z"/>
<path d="M2040 990 c0 -53 4 -90 10 -90 6 0 10 18 10 40 0 33 3 40 20 40 19 0
25 -8 46 -65 6 -18 8 -18 11 -3 3 10 -2 31 -10 48 -13 25 -13 31 -1 41 35 29
3 79 -52 79 l-34 0 0 -90z m61 70 c26 -15 24 -49 -3 -59 -30 -11 -38 -6 -38
28 0 41 9 48 41 31z"/>
<path d="M2192 990 c-17 -49 -27 -90 -21 -90 5 0 15 13 20 29 8 22 15 28 37
26 38 -3 38 -2 50 -30 6 -14 16 -25 21 -25 5 0 -5 40 -22 90 -18 49 -37 90
-43 90 -6 0 -25 -40 -42 -90z m67 -7 c1 -7 -10 -13 -24 -13 -29 0 -29 0 -13
53 l12 40 12 -34 c7 -19 13 -40 13 -46z"/>
<path d="M2300 1070 c0 -5 11 -10 25 -10 25 0 25 -1 25 -80 0 -47 4 -80 10
-80 6 0 10 33 10 80 l0 80 31 0 c17 0 28 4 24 10 -3 6 -33 10 -66 10 -33 0
-59 -4 -59 -10z"/>
<path d="M2450 990 c0 -53 4 -90 10 -90 6 0 10 18 10 40 l0 40 45 0 45 0 0
-40 c0 -22 5 -40 10 -40 6 0 10 37 10 90 0 53 -4 90 -10 90 -5 0 -10 -18 -10
-40 l0 -40 -45 0 -45 0 0 40 c0 22 -4 40 -10 40 -6 0 -10 -37 -10 -90z"/>
<path d="M2610 990 c0 -53 4 -90 10 -90 6 0 10 37 10 90 0 53 -4 90 -10 90 -6
0 -10 -37 -10 -90z"/>
<path d="M1255 810 c-8 -16 -30 -47 -47 -67 l-32 -38 30 28 c29 26 82 107 70
107 -3 0 -12 -13 -21 -30z"/>
<path d="M1560 680 c0 -53 4 -90 10 -90 6 0 10 37 10 90 0 53 -4 90 -10 90 -6
0 -10 -37 -10 -90z"/>
<path d="M1620 680 c0 -53 4 -90 10 -90 6 0 10 32 10 77 l0 78 45 -78 c25 -42
50 -77 55 -77 6 0 10 38 10 90 0 58 -4 90 -11 90 -7 0 -9 -24 -7 -70 2 -39 1
-70 -2 -70 -3 0 -23 32 -45 70 -22 39 -46 70 -52 70 -10 0 -13 -25 -13 -90z"/>
<path d="M1810 752 c-30 -24 -20 -53 25 -75 57 -27 44 -73 -20 -69 -29 1 -29
1 -6 -10 18 -10 29 -9 50 3 39 22 35 58 -11 88 -21 13 -38 30 -38 37 0 18 29
32 53 26 14 -3 18 -1 13 6 -11 17 -41 15 -66 -6z"/>
<path d="M1910 760 c0 -5 11 -10 25 -10 25 0 25 -1 25 -80 0 -47 4 -80 10 -80
6 0 10 33 10 80 0 78 1 80 24 80 14 0 28 5 31 10 4 6 -18 10 -59 10 -37 0 -66
-4 -66 -10z"/>
<path d="M2060 680 c0 -53 4 -90 10 -90 6 0 10 37 10 90 0 53 -4 90 -10 90 -6
0 -10 -37 -10 -90z"/>
<path d="M2100 760 c0 -5 11 -10 25 -10 25 0 25 -1 25 -80 0 -47 4 -80 10 -80
6 0 10 33 10 80 0 79 0 80 25 80 14 0 25 5 25 10 0 6 -27 10 -60 10 -33 0 -60
-4 -60 -10z"/>
<path d="M2250 709 c0 -109 48 -152 105 -94 22 21 25 33 25 90 0 88 -18 83
-22 -6 -3 -61 -6 -74 -25 -86 -19 -13 -24 -12 -42 6 -17 17 -21 34 -21 86 0
37 -4 65 -10 65 -6 0 -10 -27 -10 -61z"/>
<path d="M2405 760 c3 -5 17 -10 31 -10 23 0 24 -2 24 -80 0 -47 4 -80 10 -80
6 0 10 33 10 80 0 79 0 80 25 80 14 0 25 5 25 10 0 6 -29 10 -66 10 -41 0 -63
-4 -59 -10z"/>
<path d="M2550 680 l0 -90 50 0 c28 0 50 4 50 8 0 4 -17 8 -37 8 -35 -1 -38 2
-41 28 -4 33 13 49 46 41 12 -3 22 -1 22 5 0 5 -16 10 -35 10 -32 0 -35 3 -35
29 0 31 11 39 48 36 12 -1 22 2 22 7 0 4 -20 8 -45 8 l-45 0 0 -90z"/>
<path d="M2774 758 c-43 -20 -58 -99 -26 -137 9 -11 31 -24 49 -27 27 -5 37
-1 63 24 71 71 2 183 -86 140z m86 -38 c25 -47 -2 -110 -47 -110 -39 0 -63 27
-63 70 0 72 78 101 110 40z"/>
<path d="M2920 680 c0 -53 4 -90 10 -90 6 0 10 18 10 40 0 39 1 40 35 40 19 0
35 4 35 10 0 5 -8 9 -17 8 -47 -4 -54 1 -51 35 3 27 7 32 30 32 15 1 30 4 34
8 4 4 -14 7 -39 7 l-47 0 0 -90z"/>
<path d="M780 490 c-8 -28 -8 -50 -1 -55 15 -9 22 11 12 37 -6 12 -10 21 -11
18z"/>
<path d="M665 470 c-3 -5 1 -10 9 -10 9 0 16 5 16 10 0 6 -4 10 -9 10 -6 0
-13 -4 -16 -10z"/>
<path d="M850 470 c0 -5 5 -10 11 -10 5 0 7 5 4 10 -3 6 -8 10 -11 10 -2 0 -4
-4 -4 -10z"/>
<path d="M923 468 c3 -9 1 -18 -6 -21 -6 -2 -4 -6 6 -10 19 -7 23 10 6 33 -9
13 -10 13 -6 -2z"/>
<path d="M977 473 c-9 -9 -9 -43 1 -43 4 0 8 11 8 25 2 27 1 29 -9 18z"/>
<path d="M1015 470 c-3 -5 -1 -10 4 -10 6 0 11 5 11 10 0 6 -2 10 -4 10 -3 0
-8 -4 -11 -10z"/>
<path d="M810 451 c0 -12 5 -21 10 -21 6 0 10 6 10 14 0 8 -4 18 -10 21 -5 3
-10 -3 -10 -14z"/>
<path d="M891 454 c0 -11 3 -14 6 -6 3 7 2 16 -1 19 -3 4 -6 -2 -5 -13z"/>
<path d="M710 452 c0 -5 -13 -7 -30 -4 -17 2 -30 0 -30 -6 0 -14 63 -8 68 6 2
7 1 12 -2 12 -3 0 -6 -4 -6 -8z"/>
<path d="M1540 450 c0 -5 11 -10 25 -10 25 0 25 -1 25 -80 0 -47 4 -80 10 -80
6 0 10 33 10 80 l0 80 31 0 c17 0 28 4 24 10 -3 6 -33 10 -66 10 -33 0 -59 -4
-59 -10z"/>
<path d="M1690 370 l0 -90 45 0 c25 0 45 5 45 10 0 6 -15 8 -35 6 -35 -4 -35
-4 -35 36 0 37 2 40 23 35 12 -4 29 -2 37 3 11 7 5 10 -22 10 -37 0 -38 1 -38
35 0 36 0 36 35 29 23 -4 35 -2 35 5 0 6 -19 11 -45 11 l-45 0 0 -90z"/>
<path d="M1839 431 c-33 -34 -38 -78 -13 -116 18 -28 73 -42 101 -26 15 8 11
10 -19 9 -51 -2 -78 24 -78 72 0 47 24 70 76 70 29 0 35 3 24 10 -27 18 -61
10 -91 -19z"/>
<path d="M1970 370 c0 -53 4 -90 10 -90 6 0 10 18 10 40 l0 40 45 0 45 0 0
-40 c0 -22 5 -40 10 -40 6 0 10 37 10 90 0 53 -4 90 -10 90 -5 0 -10 -18 -10
-40 l0 -40 -45 0 -45 0 0 40 c0 22 -4 40 -10 40 -6 0 -10 -37 -10 -90z"/>
<path d="M2140 370 c0 -53 4 -90 10 -90 6 0 10 32 10 77 l0 78 45 -78 c25 -42
50 -77 55 -77 6 0 10 38 10 90 0 58 -4 90 -11 90 -7 0 -9 -24 -7 -70 2 -39 1
-70 -2 -70 -3 0 -23 32 -45 70 -22 38 -46 70 -52 70 -10 0 -13 -25 -13 -90z"/>
<path d="M2357 453 c-23 -6 -47 -54 -47 -93 0 -36 38 -80 69 -80 40 0 71 23
83 61 22 76 -29 132 -105 112z m83 -43 c25 -47 -2 -110 -47 -110 -39 0 -63 27
-63 70 0 72 78 101 110 40z"/>
<path d="M2500 370 l0 -90 52 0 c65 0 59 15 -7 19 -24 1 -25 3 -25 81 0 47 -4
80 -10 80 -6 0 -10 -37 -10 -90z"/>
<path d="M2659 453 c-21 -5 -49 -56 -49 -90 0 -59 55 -96 111 -73 39 17 55 60
40 111 -15 49 -49 67 -102 52z m66 -28 c61 -60 -4 -165 -70 -113 -36 28 -35
88 1 117 34 27 40 26 69 -4z"/>
<path d="M2844 450 c-49 -20 -70 -93 -39 -136 16 -24 65 -37 101 -28 20 5 24
12 24 45 0 37 -2 39 -32 39 -17 0 -28 -3 -24 -7 4 -5 13 -8 19 -8 17 0 22 -55
5 -56 -54 -5 -88 20 -88 65 0 50 24 76 71 76 24 0 38 4 34 10 -7 12 -42 12
-71 0z"/>
<path d="M2960 453 c0 -5 11 -28 25 -52 15 -25 25 -59 25 -82 0 -21 5 -39 10
-39 6 0 10 19 10 43 1 27 9 56 25 82 26 43 30 55 17 55 -5 0 -17 -18 -27 -40
-10 -22 -21 -40 -25 -40 -4 0 -15 18 -25 40 -16 35 -35 53 -35 33z"/>
<path d="M585 440 c4 -6 11 -8 16 -5 14 9 11 15 -7 15 -8 0 -12 -5 -9 -10z"/>
<path d="M845 440 c3 -5 10 -10 16 -10 5 0 9 5 9 10 0 6 -7 10 -16 10 -8 0
-12 -4 -9 -10z"/>
<path d="M1010 440 c0 -5 4 -10 9 -10 6 0 13 5 16 10 3 6 -1 10 -9 10 -9 0
-16 -4 -16 -10z"/>
<path d="M618 423 c7 -3 16 -2 19 1 4 3 -2 6 -13 5 -11 0 -14 -3 -6 -6z"/>
<path d="M950 396 c0 -2 8 -10 18 -17 15 -13 16 -12 3 4 -13 16 -21 21 -21 13z"/>
<path d="M609 365 c-32 -17 -85 -21 -159 -12 -44 6 -50 5 -30 -4 40 -17 151
-14 188 5 18 9 32 19 32 21 0 7 -1 6 -31 -10z"/>
<path d="M995 359 c11 -17 105 -29 156 -19 91 17 78 26 -16 11 -33 -6 -66 -4
-97 4 -26 6 -45 8 -43 4z"/>
<path d="M742 340 c0 -14 2 -19 5 -12 2 6 2 18 0 25 -3 6 -5 1 -5 -13z"/>
<path d="M791 344 c0 -11 3 -14 6 -6 3 7 2 16 -1 19 -3 4 -6 -2 -5 -13z"/>
<path d="M873 345 c0 -8 4 -12 9 -9 5 3 6 10 3 15 -9 13 -12 11 -12 -6z"/>
<path d="M670 310 c0 -4 19 -24 43 -45 23 -20 54 -47 68 -61 l26 -24 24 26
c13 14 38 34 56 46 18 11 38 29 44 40 8 16 0 12 -31 -13 -24 -19 -54 -46 -67
-60 l-24 -26 -37 34 c-20 18 -52 46 -69 62 -18 16 -33 26 -33 21z"/>
</g>
</svg>
