<svg id="Layer_1" data-name="Layer 1" xmlns="http://www.w3.org/2000/svg" viewBox="0 0 502.94162 365.68347"><defs><style>.cls-1{fill:none;stroke:#000;stroke-miterlimit:10;}</style></defs><title>clever-hans</title><path class="cls-1" d="M158.26386,67.51332l23.66575,12.79814h9.161V67.51332L174.67722,39.08717l8.39753-3.43536-8.39753-3.43535V23.819h-4.19879L165.898,13.8946l-7.63411,6.87072L147.57607,13.8946l-3.817,7.63415H127.72736v9.16092l-9.92436,8.3975v3.81707L111.69572,53.592l3.81705,6.10729-7.63413,13.74142,3.81708,3.05365-3.81708,9.92435h3.81708l-3.81708,9.92436H113.986l-6.10731,12.21457h4.58049S91.847,124.58932,80.39582,129.93325s-25.1926,21.37549-25.1926,21.37549,0-4.58042-10.68777,0-12.978,51.14861-12.978,51.14861a88.79947,88.79947,0,0,1-4.45237,30.263c-4.104,12.312,9.79624,22.41245,18.95719,17.832S52.913,233.75725,52.913,223.83289V194.05982s-3.05364-9.16093,3.05365-14.50479,9.92435,4.58043,9.92435,4.58043l4.58049,10.68779L59.78368,217.7256l4.58048,11.45118s16.78231,35.9935,20.59938,35.9935,17.82569,1.28646,17.82569,1.28646-11.27858-14.02031-14.25035-18.06742c-4.575-6.23041-13.23342-28.2572-13.23342-28.2572l4.32693-8.5138L104.825,243.6816l2.29023,12.978,21.37285-8.74343-24.42649-21.793L91.847,201.694l22.90236-30.5365s32.0633-6.87072,37.40718-9.16093,19.84871-17.94021,19.84871-17.94021l10.68779-4.58043,25.19257-39.31572v22.90236l-9.16093,8.3975L200.2515,149.782s17.17679-20.61214,17.17679-23.66579,1.1451-27.48285,1.1451-27.48285l15.26826,9.16092-3.81708,11.45122,17.55847-6.10729L235.36847,97.86989,217.04657,88.709,199.13244,83.7722,178.4892,104.94961,163.60772,87.94553Z"/><path d="M336.90226,67.51332,313.23649,80.31144h-9.161V67.51332L320.4889,39.08719h-6.489l6.489-6.87071V23.81894h4.19877l4.58047-9.92435,7.63412,6.87071L347.59,13.89459l3.81706,7.63412h16.03165v9.16094l9.92436,8.39754v3.81706L383.4704,53.592l-3.81706,6.1073,7.63412,13.74142-3.81706,3.05365,3.81706,9.92435H383.4704l3.81706,9.92436h-6.1073l6.1073,12.21459H382.707s20.61212,16.03166,32.0633,21.37554,25.1926,21.37554,25.1926,21.37554,3.14907-4.77133,10.68777,0c9.82538,6.21859,10.974,47.5224,10.974,47.5224s-.47714,17.463,4.86675,33.4947c4.104,12.312-8.20668,22.80694-17.36763,18.22646s-6.8707-16.79506-6.8707-26.71942,1.336-29.39136,1.336-29.39136,1.71767-9.54265-4.38962-14.88654-9.92436,4.58048-9.92436,4.58048l-4.58047,10.68776,10.68777,22.90237-4.58048,11.45118s-14.88653,35.88036-18.70359,35.88036H390.91367l16.98591-16.41336L419.78483,219.983l-4.25113-8.36464-25.19259,32.0633-2.29024,12.978L366.678,247.91619l24.42649-21.793L403.31911,201.694l-22.90236-30.53648s-32.06331-6.87071-37.40719-9.16094-19.0853-22.52066-19.0853-22.52066H312.47308l-25.1926-39.31572v22.90236l9.16094,8.39753-1.52682,18.32189s-17.17677-20.61212-17.17677-23.66577-1.14512-27.48283-1.14512-27.48283l-15.26824,9.16094,3.81706,11.45118-17.55848-6.1073,12.2146-15.26824L278.11953,88.709l25.1926-1.52683,13.36478,17.76744,14.88147-17.004Z"/><path class="cls-1" d="M38.59288,324.485a8.27423,8.27423,0,0,0-3.05018-2.60634,8.97016,8.97016,0,0,0-4.23176-1.034q-5.60931,0-8.709,3.34528a13.924,13.924,0,0,0,0,17.51726q3.10034,3.34645,8.709,3.34528a7.93509,7.93509,0,0,0,4.23176-1.08362,12.86934,12.86934,0,0,0,3.05018-2.55676L48.336,351.64618a18.85185,18.85185,0,0,1-8.11885,4.96952,30.59228,30.59228,0,0,1-8.90618,1.42593A30.1498,30.1498,0,0,1,20.92925,356.271a24.93918,24.93918,0,0,1-8.46353-5.06867,23.77291,23.77291,0,0,1-5.6577-7.92054,26.8638,26.8638,0,0,1,0-20.66659,23.77281,23.77281,0,0,1,5.6577-7.92054,24.97672,24.97672,0,0,1,8.46353-5.06868,30.1498,30.1498,0,0,1,10.38169-1.77061,30.59228,30.59228,0,0,1,8.90618,1.42593,18.85185,18.85185,0,0,1,8.11885,4.96952Z"/><path class="cls-1" d="M53.84493,282.4648h14.761v74.39642h-14.761Z"/><path class="cls-1" d="M124.50064,348.596a23.54777,23.54777,0,0,1-8.95458,6.98566,26.853,26.853,0,0,1-11.2186,2.46A30.1498,30.1498,0,0,1,93.94577,356.271a24.93918,24.93918,0,0,1-8.46353-5.06867,23.77291,23.77291,0,0,1-5.6577-7.92054,26.8638,26.8638,0,0,1,0-20.66659,23.77281,23.77281,0,0,1,5.6577-7.92054,24.97672,24.97672,0,0,1,8.46353-5.06868,30.1498,30.1498,0,0,1,10.38169-1.77061,23.63212,23.63212,0,0,1,9.29926,1.77061,19.36457,19.36457,0,0,1,7.086,5.06868,23.12133,23.12133,0,0,1,4.47729,7.92054,31.99007,31.99007,0,0,1,1.57466,10.33329v4.62484h-34.246a11.67574,11.67574,0,0,0,3.83751,6.74013,10.85211,10.85211,0,0,0,7.28194,2.50955,11.09945,11.09945,0,0,0,6.15111-1.62188,16.56451,16.56451,0,0,0,4.37931-4.18337Zm-12.497-21.06084a8.55687,8.55687,0,0,0-2.46-6.39545,8.75608,8.75608,0,0,0-6.59376-2.65828,11.09117,11.09117,0,0,0-4.32974.78851,10.89844,10.89844,0,0,0-3.1989,2.01614,8.86167,8.86167,0,0,0-2.06572,2.85422,9.38515,9.38515,0,0,0-.83691,3.39486Z"/><path class="cls-1" d="M130.70014,309.0358h15.94142l12.10391,32.473h.19712l11.21861-32.473h14.859l-18.89362,47.82542H150.48025Z"/><path class="cls-1" d="M235.69983,348.596a23.54777,23.54777,0,0,1-8.95458,6.98566,26.853,26.853,0,0,1-11.2186,2.46A30.1498,30.1498,0,0,1,205.145,356.271a24.93928,24.93928,0,0,1-8.46353-5.06867,23.77291,23.77291,0,0,1-5.6577-7.92054,26.8638,26.8638,0,0,1,0-20.66659,23.77281,23.77281,0,0,1,5.6577-7.92054A24.97681,24.97681,0,0,1,205.145,309.626a30.1498,30.1498,0,0,1,10.38169-1.77061,23.63212,23.63212,0,0,1,9.29926,1.77061,19.36457,19.36457,0,0,1,7.086,5.06868,23.12133,23.12133,0,0,1,4.47729,7.92054,31.99007,31.99007,0,0,1,1.57466,10.33329v4.62484h-34.246a11.67574,11.67574,0,0,0,3.83751,6.74013,10.85211,10.85211,0,0,0,7.28194,2.50955,11.09945,11.09945,0,0,0,6.15111-1.62188,16.56451,16.56451,0,0,0,4.37931-4.18337Zm-12.497-21.06084a8.55692,8.55692,0,0,0-2.46-6.39545,8.75608,8.75608,0,0,0-6.59376-2.65828,11.09112,11.09112,0,0,0-4.32973.78851,10.89849,10.89849,0,0,0-3.19891,2.01614,8.86167,8.86167,0,0,0-2.06572,2.85422,9.38515,9.38515,0,0,0-.83691,3.39486Z"/><path class="cls-1" d="M246.91725,309.0358h14.76219v7.675h.19595a18.17306,18.17306,0,0,1,5.6093-6.64334,14.18248,14.18248,0,0,1,8.16842-2.21208q1.27662,0,2.55795.09679a12.80431,12.80431,0,0,1,2.362.39426v13.48262a22.51057,22.51057,0,0,0-3.09975-.73893,20.21626,20.21626,0,0,0-3.19891-.24553,15.69063,15.69063,0,0,0-6.69055,1.18041,8.89368,8.89368,0,0,0-3.78911,3.2957,12.5171,12.5171,0,0,0-1.72222,5.06868,49.22937,49.22937,0,0,0-.39307,6.4946v19.97723H246.91725Z"/><path d="M301.73069,282.4648v33.0656h.196a8.89188,8.89188,0,0,1,1.67264-2.75507,13.08256,13.08256,0,0,1,2.85423-2.46,15.54723,15.54723,0,0,1,3.93666-1.773,16.87039,16.87039,0,0,1,4.91994-.687,20.34457,20.34457,0,0,1,9.05373,1.721,13.10639,13.10639,0,0,1,5.3626,4.77358,19.30045,19.30045,0,0,1,2.6087,7.184,54.699,54.699,0,0,1,.68818,8.95458v26.37268h-14.761V333.43956q0-2.06454-.14755-4.28016a13.492,13.492,0,0,0-.8853-4.08421,6.34946,6.34946,0,0,0-6.64216-4.23059,9.10865,9.10865,0,0,0-4.626,1.034,7.02827,7.02827,0,0,0-2.7055,2.75507,11.21434,11.21434,0,0,0-1.23,3.88591,33.48049,33.48049,0,0,0-.29511,4.528v23.81356H286.96851V282.4648Z"/><path d="M373.46765,350.85767h-.19595a13.90151,13.90151,0,0,1-6.54418,5.5125,22.51934,22.51934,0,0,1-8.61108,1.67146,22.19048,22.19048,0,0,1-6.445-.93488,16.26539,16.26539,0,0,1-5.46175-2.80465,13.50609,13.50609,0,0,1-3.73953-4.62484,14.10865,14.10865,0,0,1-1.37754-6.39545,14.66455,14.66455,0,0,1,1.52509-6.988,13.6607,13.6607,0,0,1,4.13261-4.724,20.51874,20.51874,0,0,1,5.954-2.90144,43.38366,43.38366,0,0,1,6.93726-1.52509,66.34351,66.34351,0,0,1,7.184-.59256q3.5908-.09563,6.64216-.0968a7.67784,7.67784,0,0,0-2.80465-6.24908,10.11394,10.11394,0,0,0-6.64216-2.3136,14.46556,14.46556,0,0,0-6.64215,1.52509,18.20077,18.20077,0,0,0-5.36378,4.18337l-7.87214-8.06928a27.07759,27.07759,0,0,1,9.64393-5.758,34.51814,34.51814,0,0,1,11.41573-1.917,29.87728,29.87728,0,0,1,10.6768,1.62188,15.54128,15.54128,0,0,1,6.69173,4.77357,18.40851,18.40851,0,0,1,3.49283,7.72459,50.75589,50.75589,0,0,1,.98446,10.57882v24.307h-13.5806Zm-3.64038-14.95814q-1.675,0-4.18218.14873a21.28062,21.28062,0,0,0-4.822.83573,10.74383,10.74383,0,0,0-3.93666,2.06808,4.76034,4.76034,0,0,0-1.62425,3.83632,4.22178,4.22178,0,0,0,2.264,3.93785,9.47087,9.47087,0,0,0,4.724,1.2772,14.80272,14.80272,0,0,0,4.18219-.59021,12.43631,12.43631,0,0,0,3.592-1.67145,8.11363,8.11363,0,0,0,2.50837-2.75508,7.94448,7.94448,0,0,0,.93488-3.93784v-3.14933Z"/><path d="M396.29675,309.0358h14.1708v6.4946h.19713a11.9039,11.9039,0,0,1,1.96774-2.75507,14.3123,14.3123,0,0,1,3.05136-2.46,17.43486,17.43486,0,0,1,4.03463-1.773,16.87046,16.87046,0,0,1,4.91995-.687,20.34463,20.34463,0,0,1,9.05373,1.721,13.10642,13.10642,0,0,1,5.36259,4.77358,19.30028,19.30028,0,0,1,2.60871,7.184,54.7002,54.7002,0,0,1,.68817,8.95458v26.37268h-14.761V333.43956q0-2.06454-.14755-4.28016a13.49231,13.49231,0,0,0-.88531-4.08421,6.34944,6.34944,0,0,0-6.64216-4.23059,9.10865,9.10865,0,0,0-4.626,1.034,7.02818,7.02818,0,0,0-2.70549,2.75507,11.21435,11.21435,0,0,0-1.23,3.88591,33.48052,33.48052,0,0,0-.2951,4.528v23.81356H396.29675Z"/><path d="M479.84369,323.10863a10.44582,10.44582,0,0,0-8.5615-4.03464,8.05065,8.05065,0,0,0-3.64038.88531,3.13044,3.13044,0,0,0-1.77179,3.05017,2.73752,2.73752,0,0,0,1.82137,2.60634,23.96245,23.96245,0,0,0,4.62484,1.47787q2.80465.641,6.00238,1.37636a22.66389,22.66389,0,0,1,6.00355,2.3136,13.45367,13.45367,0,0,1,4.62484,4.28016,12.77838,12.77838,0,0,1,1.82019,7.23354,13.39108,13.39108,0,0,1-2.01731,7.62544,15.47759,15.47759,0,0,1-5.16665,4.82315,22.27269,22.27269,0,0,1-7.08481,2.55913,42.21229,42.21229,0,0,1-7.77417.73657,37.68379,37.68379,0,0,1-10.13617-1.42593,18.92268,18.92268,0,0,1-8.65947-5.06868l8.95457-9.939a14.87466,14.87466,0,0,0,4.57645,3.88826,12.33621,12.33621,0,0,0,5.85482,1.32678,13.7047,13.7047,0,0,0,4.62484-.73657,2.722,2.722,0,0,0,2.0669-2.70786A3.00257,3.00257,0,0,0,474.186,340.574a20.21285,20.21285,0,0,0-4.62484-1.57467q-2.80465-.63741-6.00356-1.37635a24.82768,24.82768,0,0,1-6.00238-2.21445,12.53815,12.53815,0,0,1-4.62484-4.18337,12.7459,12.7459,0,0,1-1.82137-7.23118,14.58524,14.58524,0,0,1,1.72222-7.28312,15.13886,15.13886,0,0,1,4.52687-5.01909,19.61719,19.61719,0,0,1,6.44621-2.90145,29.54054,29.54054,0,0,1,7.37991-.93488,34.63053,34.63053,0,0,1,9.546,1.37636,17.73752,17.73752,0,0,1,8.16725,4.91994Z"/></svg>