<svg id="Layer_1" data-name="Layer 1" xmlns="http://www.w3.org/2000/svg" viewBox="0 0 432 470.5"><defs><style>.cls-1{fill:#013d70;}.cls-2{fill:#b2bfc6;}.cls-3{fill:#fefefe;}</style></defs><title>coach</title><path class="cls-1" d="M61.18142,270.14019c8.44383.31149,16.42662.45707,24.32838-.95519a82.72468,82.72468,0,0,0,35.09586-14.75324c2.20927-1.62963,3.11818-1.31384,4.72041.80956,20.53558,27.2157,47.77355,43.4989,81.59065,47.34654,37.58342,4.2762,70.24417-7.28379,97.51571-33.66742,2.141-2.07132,4.12413-4.34282,6.45056-6.17933a31.01732,31.01732,0,0,1,42.75052,3.59532c10.67713,11.79772,10.24133,30.55032-1.15914,42.38894-24.65354,25.601-53.84765,43.89534-88.67678,51.57054-69.83375,15.389-129.4598-3.416-178.4391-55.5642a160.29076,160.29076,0,0,1-22.76242-31.85018C62.16945,272.11855,61.7924,271.32787,61.18142,270.14019Z"/><path class="cls-1" d="M61.45321,98.6551A134.45486,134.45486,0,0,1,75.51679,76.56374C103.6693,39.424,140.34411,15.357,186.279,6.9173,242.81757-3.47062,293.61445,9.83439,337.9799,46.69547c3.68188,3.05909,7.16184,6.38147,10.55969,9.75851a31.05438,31.05438,0,0,1-43.15179,44.67c-9.43724-9.02212-19.56039-17.09313-31.3191-22.71483-37.212-17.79062-74.26607-17.19659-110.7226,2.22411a112.11535,112.11535,0,0,0-38.26027,33.53319c-.95656,1.31658-1.56839,2.75318-3.798,1.12919-17.117-12.46745-36.35063-17.64577-57.42186-16.2349a17.02809,17.02809,0,0,1-1.93424-.0434C61.84111,99.01306,61.75611,98.89018,61.45321,98.6551Z"/><path class="cls-1" d="M3.66988,184.04715c-.83824-34.53756,29.16449-65.59678,64.23382-66.49568,38.89447-.99694,68.98891,27.85664,70.01369,67.12689.90363,34.62776-29.2123,65.77376-63.78822,67.08893C34.56265,253.27236,3.04014,221.70859,3.66988,184.04715Z"/><path class="cls-2" d="M360.00257,248.41376c-5.47572,2.0494-7.95882-1.93229-9.804-6.9658-.7566-2.064-1.9373-4.01531-2.40768-6.1328-1.12784-5.07758-5.27432-6.29524-9.28679-7.765-1.217-.44574-2.2675.23037-3.33006.6977-2.84366,1.25079-5.89538,2.17311-8.48858,3.81834-5.35239,3.39571-9.14411,1.40689-13.00541-2.6227-5.172-5.39739-5.315-5.2599-2.44584-12.16787,1.14157-2.74838,2.09283-5.59745,3.48044-8.21533,1.16907-2.20564.69076-3.9653.01071-6.19811a8.96433,8.96433,0,0,0-6.8405-6.527c-.87254-.23661-1.72346-.55812-2.575-.86626-11.417-4.13179-11.34148-4.13212-11.21191-16.22153a4.14324,4.14324,0,0,1,2.91287-4.37521c4.3079-1.77184,8.56268-3.67231,12.85381-5.48552,4.03482-1.70489,6.54169-7.48542,4.861-11.43534-1.672-3.92951-3.3554-7.85676-5.15805-11.72714-1.06528-2.28724-.82958-3.98686,1.04261-5.88284,8.2884-8.39373,8.21238-8.39163,19.50613-4.09843,2.84442,1.08127,5.56463,3.27562,8.83225,2.32756,3.82452-1.10964,7.46306-2.32377,8.49671-7.26168.755-3.60673,2.8296-6.925,4.18272-10.42345.77764-2.01058,2.06854-2.85,4.17066-2.5516a8.23335,8.23335,0,0,0,1.16594.0073c12.02469-.02859,11.98579-.013,16.47473,11.14137,1.21965,3.03069,1.91835,6.28382,5.67483,7.833a11.14936,11.14936,0,0,0,9.978-.182c3.47182-1.7196,7.12541-3.07634,10.72168-4.5373.82395-.3347,2.16325-.92372,2.545-.58463a115.6308,115.6308,0,0,1,9.503,9.12567c1.75615,1.96119.00414,4.21225-.71109,6.20085-1.09364,3.04059-2.36972,6.02073-3.67972,8.97717-2.5504,5.75591-.1433,11.31726,5.8842,13.45548.97509.3459,1.93526.73729,2.88949,1.13824,14.05177,5.90408,10.44373,1.62458,11.03028,16.70634a3.70737,3.70737,0,0,1-2.687,4.097c-4.20956,1.66633-8.3815,3.42936-12.55154,5.19365a9.54745,9.54745,0,0,0-4.71024,12.513c1.78322,3.87945,3.39768,7.83663,5.19267,11.71038a3.28168,3.28168,0,0,1-.92364,4.44094c-1.286,1.07992-2.40245,2.36163-3.59441,3.55354-5.44133,5.44107-5.44323,5.4456-12.68388,2.53008a37.08575,37.08575,0,0,1-5.71049-2.42428c-4.22723-2.60688-8.09333-1.268-12.07376.54419-1.52839.69589-1.91431,1.99389-2.4366,3.29921-1.39364,3.48332-3.01646,6.89857-4.09732,10.477-1.16166,3.846-3.24493,5.67314-7.33621,4.88826A24.613,24.613,0,0,0,360.00257,248.41376Zm.75213-85.71262c-11.26107-1.04379-21.06977,9.7162-21.05794,20.53083.01233,11.27506,10.37858,21.03151,21.1024,20.86339a21.47346,21.47346,0,0,0,21.35739-21.061C382.38254,172.715,372.36777,161.73121,360.7547,162.70114Z"/><path class="cls-3" d="M363.25659,162.70114c11.61308-.96993,21.62785,10.01382,21.40185,20.33317a21.47345,21.47345,0,0,1-21.35739,21.061c-10.72382.16812-21.09007-9.58833-21.10239-20.86339C342.18683,172.41734,351.99553,161.65735,363.25659,162.70114Z"/><path d="M120.36615,434.6416a11.21153,11.21153,0,0,0-1.82373-4.88281q-2.1372-2.92969-6.63037-2.92969-6.40869,0-8.76611,6.34766a26.34242,26.34242,0,0,0-1.24561,8.94336,24.21831,24.21831,0,0,0,1.24561,8.5459q2.269,6.03809,8.54345,6.0371,4.4502,0,6.31885-2.39648a11.92087,11.92087,0,0,0,2.26953-6.21484h12.917a21.159,21.159,0,0,1-4.17675,10.91992q-5.95459,8.30127-17.63965,8.30078-11.68727,0-17.19629-6.9248-5.51-6.92433-5.50977-17.957,0-12.4497,6.08692-19.375,6.08715-6.92431,16.79638-6.9248,9.10841,0,14.90723,4.084,5.79858,4.084,6.86524,14.42676Z"/><path d="M182.33441,459.751q-6.12523,7.56151-18.59912,7.56152T145.13617,459.751a30.01944,30.01944,0,0,1,0-36.34668q6.12525-7.67286,18.59912-7.67285,12.47315,0,18.59912,7.67285a30.01944,30.01944,0,0,1,0,36.34668Zm-10.1206-6.99219q2.97363-3.94482,2.97412-11.21484,0-7.26856-2.97412-11.19141a11.244,11.244,0,0,0-17.06787,0q-2.99634,3.92139-2.99659,11.19141,0,7.27,2.99659,11.21484a11.20415,11.20415,0,0,0,17.06787,0Z"/><path d="M216.67963,436.23926a19.99191,19.99191,0,0,0,5.05273-1.10938q2.72754-1.1543,2.72852-3.5957a4.25363,4.25363,0,0,0-2.09375-4.10645,13.2281,13.2281,0,0,0-6.14063-1.13183q-4.54393,0-6.43554,2.21972a9.14689,9.14689,0,0,0-1.79883,4.43946H195.78461a18.49875,18.49875,0,0,1,3.56689-10.43164q5.03613-6.39258,17.29688-6.39258a30.85588,30.85588,0,0,1,14.17773,3.15137q6.19629,3.15234,6.19727,11.89648V453.374q0,2.30861.08789,5.59278a7.02519,7.02519,0,0,0,.7539,3.374,4.541,4.541,0,0,0,1.86524,1.46484v1.86426H225.96869a14.11273,14.11273,0,0,1-.79883-2.75195q-.22266-1.2876-.35547-2.92969a26.082,26.082,0,0,1-6.07226,4.83789,18.34868,18.34868,0,0,1-9.28711,2.35254,16.02877,16.02877,0,0,1-10.916-3.75q-4.30884-3.75147-4.3081-10.63183,0-8.92237,6.93115-12.917,3.7998-2.17529,11.17969-3.10742Zm7.73633,5.90429a14.06212,14.06212,0,0,1-2.45313,1.22071,20.79669,20.79669,0,0,1-3.39844.86523l-2.8789.53321a18.95239,18.95239,0,0,0-5.81446,1.73046,5.77552,5.77552,0,0,0-2.98828,5.3711q0,3.24169,1.82422,4.68359a6.93786,6.93786,0,0,0,4.43945,1.44238,13.22641,13.22641,0,0,0,7.64063-2.39648q3.49218-2.39795,3.62891-8.74512Z"/><path d="M277.01752,434.6416a11.21841,11.21841,0,0,0-1.82422-4.88281q-2.1372-2.92969-6.62988-2.92969-6.40869,0-8.7666,6.34766a26.36832,26.36832,0,0,0-1.24512,8.94336,24.24208,24.24208,0,0,0,1.24512,8.5459q2.2705,6.03809,8.54394,6.0371,4.4502,0,6.31836-2.39648a11.91254,11.91254,0,0,0,2.26953-6.21484h12.918a21.16748,21.16748,0,0,1-4.17676,10.91992q-5.95605,8.30127-17.64062,8.30078-11.68653,0-17.19629-6.9248-5.50928-6.92433-5.50977-17.957,0-12.4497,6.08692-19.375,6.08789-6.92431,16.79687-6.9248,9.10841,0,14.90723,4.084,5.79784,4.084,6.86523,14.42676Z"/><path d="M333.40814,417.55273a14.2056,14.2056,0,0,1,5.98926,4.75391,12.68265,12.68265,0,0,1,2.43067,5.57617,68.94685,68.94685,0,0,1,.44238,9.35157v28.43554h-12.918V436.20605a13.05545,13.05545,0,0,0-1.32129-6.31054q-1.71972-3.37647-6.52148-3.377-4.979,0-7.55762,3.35547-2.57812,3.3545-2.57715,9.57618v26.21972H298.72357v-65.208h12.65137v23.082a15.48309,15.48309,0,0,1,6.34277-5.88184,17.86058,17.86058,0,0,1,7.58008-1.66406A20.48365,20.48365,0,0,1,333.40814,417.55273Z"/></svg>