<svg version="1.1" viewBox="0 0 1692 252" xml:space="preserve" xmlns="http://www.w3.org/2000/svg"><path d="m227.31 128.08c-12.001-10.535-15.187-24.249-15.187-36.13 0-8.33 2.572-22.779 14.329-33.557 8.817-8.084 20.453-12.983 38.701-12.983 7.594 0 12.125 0.489 17.759 1.227 4.653 0.611 8.573 1.712 12.246 2.081 1.349 0.122 1.837 0.734 1.837 1.469 0 0.979-0.367 2.449-0.611 6.737-0.245 4.042-0.125 10.776-0.367 13.226-0.124 1.836-0.367 2.817-1.471 2.817-0.979 0-1.225-0.981-1.225-2.695-0.122-3.798-1.714-8.083-4.775-11.267-4.042-4.287-13.595-7.593-24.862-7.593-10.655 0-17.637 2.693-23.027 7.593-8.939 8.205-11.268 19.841-11.268 31.721 0 29.144 22.168 43.599 38.58 43.599 10.9 0 17.514-1.226 22.414-6.862 2.081-2.321 3.673-5.873 4.163-8.079 0.368-1.96 0.611-2.451 1.593-2.451 0.855 0 1.103 0.86 1.103 1.837 0 1.469-1.47 12.123-2.696 16.291-0.612 2.08-1.103 2.692-3.185 3.55-4.899 1.96-14.205 2.817-22.044 2.817-16.778 1e-3 -30.863-3.674-42.007-13.348z" fill="#093552" stroke="#093552" stroke-width=".949"/><path d="m312.67 100.92c0-17.523 11.58-40.168 42.323-40.168 25.516 0 41.399 14.858 41.399 38.323 0 23.466-16.396 42.014-42.424 42.014-29.41 1e-3 -41.298-22.03-41.298-40.169zm69.377 1.95c0-22.956-13.219-37.199-30.025-37.199-11.785 0-25.209 6.56-25.209 32.075 0 21.313 11.787 38.222 31.46 38.222 7.172 0 23.774-3.486 23.774-33.098z" fill="#093552" stroke="#093552" stroke-width=".949"/><path d="m433.1 109.94c0 13.119 0 20.187 2.154 22.03 1.742 1.539 4.405 2.257 12.399 2.257 5.431 0 9.427-0.101 11.989-2.87 1.231-1.332 2.459-4.198 2.665-6.149 0.104-0.92 0.306-1.538 1.127-1.538 0.718 0 0.819 0.51 0.819 1.745 0 1.125-0.717 8.812-1.538 11.785-0.614 2.253-1.125 2.766-6.454 2.766-14.756 0-21.519-0.615-29.819-0.615-2.358 0-8.815 0.309-12.914 0.309-1.332 0-2.049-0.309-2.049-1.023 0-0.515 0.41-0.819 1.641-0.819 1.535 0 2.765-0.208 3.686-0.414 2.051-0.409 2.563-2.662 2.974-5.633 0.511-4.303 0.511-12.4 0.511-21.829v-18.035c0-15.578 0-18.448-0.205-21.724-0.203-3.488-1.023-5.125-4.405-5.843-0.821-0.205-2.049-0.308-3.382-0.308-1.126 0-1.742-0.205-1.742-0.921 0-0.717 0.718-0.922 2.256-0.922 4.814 0 11.271 0.307 14.037 0.307 2.46 0 9.941-0.307 13.937-0.307 1.434 0 2.152 0.205 2.152 0.922 0 0.716-0.614 0.921-1.844 0.921-1.127 0-2.768 0.103-3.995 0.308-2.768 0.512-3.588 2.254-3.792 5.843-0.207 3.275-0.207 6.146-0.207 21.724v18.033z" fill="#093552" stroke="#093552" stroke-width=".949"/><path d="m484 91.908c0-15.578 0-18.448-0.207-21.724-0.204-3.488-1.023-5.125-4.406-5.843-0.819-0.205-2.562-0.308-3.997-0.308-1.126 0-1.741-0.205-1.741-0.921 0-0.717 0.716-0.922 2.254-0.922 5.431 0 11.887 0.307 14.96 0.307 2.459 0 8.916-0.307 12.604-0.307 1.537 0 2.254 0.205 2.254 0.922 0 0.716-0.614 0.921-1.638 0.921-1.128 0-1.743 0.103-2.972 0.308-2.768 0.512-3.586 2.254-3.791 5.843-0.207 3.275-0.207 6.146-0.207 21.724v14.343c0 14.861 2.971 21.111 7.993 25.208 4.611 3.792 9.326 4.202 12.81 4.202 4.509 0 10.042-1.434 14.14-5.534 5.637-5.631 5.946-14.859 5.946-25.41v-12.81c0-15.578 0-18.448-0.205-21.724-0.205-3.488-1.026-5.125-4.407-5.843-0.821-0.205-2.562-0.308-3.69-0.308-1.126 0-1.742-0.205-1.742-0.921 0-0.717 0.719-0.922 2.151-0.922 5.227 0 11.684 0.307 11.786 0.307 1.229 0 7.686-0.307 11.682-0.307 1.435 0 2.152 0.205 2.152 0.922 0 0.716-0.615 0.921-1.843 0.921-1.13 0-1.745 0.103-2.973 0.308-2.768 0.512-3.586 2.254-3.793 5.843-0.205 3.275-0.205 6.146-0.205 21.724v10.965c0 11.375-1.127 23.462-9.733 30.845-7.276 6.249-14.655 7.375-21.315 7.375-5.431 0-15.268-0.307-22.749-7.07-5.225-4.715-9.119-12.297-9.119-27.155v-14.959z" fill="#093552" stroke="#093552" stroke-width=".949"/><path d="m580.33 62.6c0.306-1.742 0.922-2.666 1.743-2.666 0.818 0 1.435 0.514 2.767 3.179l27.973 57.796 27.875-58.513c0.716-1.64 1.332-2.461 2.255-2.461 0.921 0 1.535 1.027 1.842 3.179l9.328 63.328c0.922 6.453 1.945 9.425 5.021 10.352 2.97 0.92 5.021 1.025 6.352 1.025 0.924 0 1.641 0.101 1.641 0.716 0 0.818-1.229 1.127-2.665 1.127-2.561 0-16.703-0.309-20.802-0.615-2.356-0.205-2.971-0.512-2.971-1.127 0-0.515 0.41-0.823 1.127-1.126 0.614-0.208 0.921-1.54 0.512-4.41l-6.146-45.09h-0.413l-22.338 46.527c-2.357 4.817-2.869 5.737-3.792 5.737-0.921 0-1.947-2.049-3.586-5.122-2.459-4.715-10.554-20.395-11.785-23.262-0.921-2.154-7.07-15.062-10.657-22.749h-0.411l-5.327 40.784c-0.205 1.843-0.307 3.175-0.307 4.815 0 1.948 1.332 2.87 3.072 3.28 1.846 0.409 3.28 0.515 4.305 0.515 0.821 0 1.536 0.202 1.536 0.716 0 0.921-0.922 1.127-2.457 1.127-4.305 0-8.916-0.309-10.76-0.309-1.946 0-6.866 0.309-10.146 0.309-1.025 0-1.843-0.206-1.843-1.127 0-0.514 0.613-0.716 1.64-0.716 0.82 0 1.537 0 3.074-0.31 2.868-0.615 3.688-4.615 4.201-8.095l10.142-66.814z" fill="#093552" stroke="#093552" stroke-width=".949"/><path d="m689.67 91.908c0-15.578 0-18.448-0.205-21.724-0.205-3.488-1.025-5.125-4.406-5.843-0.817-0.205-2.562-0.308-3.997-0.308-1.125 0-1.742-0.205-1.742-0.921 0-0.717 0.716-0.922 2.251-0.922 5.434 0 11.89 0.307 13.938 0.307 5.021 0 9.017-0.307 12.504-0.307 18.545 0 21.825 9.939 21.825 15.37 0 8.404-4.817 13.424-10.452 17.934 8.404 2.868 18.648 10.142 18.648 22.13 0 10.967-8.505 22.342-27.359 22.342-2.458 0-11.783-0.615-14.857-0.615-2.357 0-8.813 0.309-12.913 0.309-1.334 0-2.048-0.309-2.048-1.023 0-0.515 0.409-0.819 1.638-0.819 1.539 0 2.767-0.208 3.689-0.414 2.049-0.409 2.562-2.662 2.972-5.633 0.512-4.303 0.512-12.4 0.512-21.829v-18.034zm12.298 1.742c0 0.817 0.306 1.023 0.716 1.126 0.925 0.202 2.46 0.307 4.817 0.307 3.381 0 5.636-0.41 7.378-1.946 2.663-2.153 4.201-5.845 4.201-10.862 0-6.866-3.997-15.883-12.808-15.883-1.435 0-2.358 0-3.383 0.205-0.718 0.205-0.922 0.614-0.922 1.743v25.31zm13.526 8.198c-2.15-1.541-4.509-2.257-8.505-2.46-1.845-0.105-2.869-0.105-4.405-0.105-0.412 0-0.616 0.208-0.616 0.721v24.286c0 6.761 0.306 8.503 3.586 9.839 2.767 1.124 5.122 1.225 7.479 1.225 4.613 0 12.401-2.46 12.401-13.114 1e-3 -6.353-2.151-14.961-9.94-20.392z" fill="#093552" stroke="#093552" stroke-width=".949"/><path d="m760.78 91.908c0-15.578 0-18.448-0.206-21.724-0.204-3.488-1.227-5.229-3.482-5.741-1.129-0.307-2.458-0.41-3.688-0.41-1.025 0-1.641-0.205-1.641-1.025 0-0.613 0.821-0.818 2.458-0.818 3.895 0 10.352 0.307 13.322 0.307 2.562 0 8.61-0.307 12.505-0.307 1.328 0 2.149 0.205 2.149 0.818 0 0.82-0.612 1.025-1.639 1.025s-1.842 0.103-3.074 0.308c-2.768 0.512-3.585 2.254-3.792 5.843-0.205 3.275-0.205 6.146-0.205 21.724v18.033c0 9.939 0 18.037 0.411 22.44 0.305 2.77 1.026 4.612 4.097 5.021 1.435 0.206 3.692 0.414 5.227 0.414 1.125 0 1.639 0.305 1.639 0.819 0 0.715-0.818 1.023-1.946 1.023-6.763 0-13.221-0.309-15.987-0.309-2.356 0-8.813 0.309-12.912 0.309-1.332 0-2.048-0.309-2.048-1.023 0-0.515 0.41-0.819 1.638-0.819 1.539 0 2.768-0.208 3.692-0.414 2.048-0.409 2.664-2.151 2.969-5.122 0.512-4.303 0.512-12.4 0.512-22.34v-18.032z" fill="#093552" stroke="#093552" stroke-width=".949"/><path d="m823.14 112.91c-0.514 0-0.721 0.204-0.923 0.819l-5.534 14.654c-1.026 2.562-1.542 5.021-1.542 6.251 0 1.844 0.926 3.179 4.103 3.179h1.539c1.227 0 1.534 0.202 1.534 0.819 0 0.817-0.612 1.023-1.738 1.023-3.284 0-7.686-0.309-10.867-0.309-1.123 0-6.76 0.309-12.089 0.309-1.334 0-1.949-0.206-1.949-1.023 0-0.617 0.41-0.819 1.233-0.819 0.923 0 2.355-0.105 3.174-0.208 4.715-0.615 6.661-4.099 8.714-9.222l25.716-64.354c1.233-2.971 1.845-4.1 2.872-4.1 0.922 0 1.536 0.924 2.562 3.281 2.457 5.636 18.854 47.445 25.413 63.02 3.895 9.226 6.868 10.658 9.02 11.169 1.536 0.309 3.071 0.414 4.299 0.414 0.82 0 1.336 0.101 1.336 0.819 0 0.817-0.927 1.023-4.715 1.023-3.689 0-11.17 0-19.37-0.206-1.844-0.103-3.073-0.103-3.073-0.817 0-0.617 0.415-0.819 1.437-0.925 0.719-0.204 1.437-1.128 0.923-2.359l-8.2-21.723c-0.204-0.512-0.514-0.716-1.021-0.716h-22.854zm20.902-5.122c0.513 0 0.617-0.311 0.513-0.616l-9.221-25.312c-0.103-0.408-0.208-0.922-0.512-0.922-0.312 0-0.514 0.514-0.612 0.922l-9.43 25.209c-0.106 0.408 0 0.719 0.41 0.719h18.852z" fill="#093552" stroke="#093552" stroke-width=".949"/><path d="m932.93 82.649c0-18.619 0-22.048-0.246-25.965-0.249-4.165-1.223-6.125-5.265-6.982-0.983-0.245-3.064-0.367-4.779-0.367-1.347 0-2.081-0.245-2.081-1.103 0-0.855 0.857-1.103 2.691-1.103 6.491 0 14.211 0.369 17.887 0.369 2.936 0 10.652-0.369 15.06-0.369 1.834 0 2.699 0.247 2.699 1.103 0 0.858-0.741 1.103-1.965 1.103-1.346 0-2.08 0.122-3.549 0.367-3.309 0.612-4.287 2.694-4.534 6.982-0.244 3.917-0.244 7.347-0.244 25.965v17.145c0 17.756 3.551 25.228 9.551 30.128 5.514 4.533 11.149 5.021 15.312 5.021 5.389 0 12.001-1.711 16.899-6.612 6.74-6.736 7.105-17.759 7.105-30.374v-15.308c0-18.619 0-22.048-0.246-25.965-0.242-4.165-1.224-6.125-5.268-6.982-0.98-0.245-3.062-0.367-4.408-0.367-1.348 0-2.082-0.245-2.082-1.103 0-0.855 0.854-1.103 2.57-1.103 6.25 0 13.965 0.369 14.089 0.369 1.469 0 9.183-0.369 13.958-0.369 1.714 0 2.57 0.247 2.57 1.103 0 0.858-0.729 1.103-2.204 1.103-1.345 0-2.081 0.122-3.55 0.367-3.308 0.612-4.285 2.694-4.531 6.982-0.245 3.917-0.245 7.347-0.245 25.965v13.105c0 13.591-1.347 28.042-11.638 36.862-8.69 7.47-17.511 8.817-25.471 8.817-6.495 0-18.249-0.369-27.188-8.454-6.249-5.631-10.898-14.691-10.898-32.452v-17.878z" fill="#093552" stroke="#093552" stroke-width=".949"/><path d="m1043.7 125.72c0.208 7.994 1.54 10.652 3.587 11.371 1.745 0.617 3.688 0.723 5.332 0.723 1.126 0 1.739 0.202 1.739 0.819 0 0.817-0.918 1.023-2.356 1.023-6.658 0-10.76-0.309-12.705-0.309-0.925 0-5.738 0.309-11.068 0.309-1.332 0-2.25-0.104-2.25-1.023 0-0.617 0.61-0.819 1.633-0.819 1.332 0 3.181-0.105 4.615-0.515 2.663-0.82 3.071-3.792 3.175-12.709l0.923-60.662c0-2.049 0.306-3.484 1.328-3.484 1.134 0 2.055 1.333 3.795 3.179 1.229 1.329 16.807 18.034 31.769 32.892 6.965 6.967 20.796 21.724 22.542 23.363h0.512l-1.021-46.01c-0.105-6.249-1.027-8.197-3.485-9.222-1.536-0.615-4-0.615-5.433-0.615-1.234 0-1.641-0.308-1.641-0.921 0-0.821 1.129-0.922 2.663-0.922 5.332 0 10.248 0.307 12.401 0.307 1.131 0 5.02-0.307 10.045-0.307 1.328 0 2.354 0.101 2.354 0.922 0 0.613-0.615 0.921-1.844 0.921-1.026 0-1.841 0-3.077 0.308-2.865 0.819-3.688 2.971-3.79 8.71l-1.126 64.66c0 2.255-0.409 3.179-1.332 3.179-1.126 0-2.361-1.13-3.485-2.254-6.452-6.151-19.568-19.575-30.226-30.129-11.173-11.068-22.546-23.876-24.395-25.823h-0.305l1.126 43.038z" fill="#093552" stroke="#093552" stroke-width=".949"/><path d="m1138.3 91.908c0-15.578 0-18.448-0.201-21.724-0.209-3.488-1.236-5.229-3.486-5.741-1.126-0.307-2.463-0.41-3.688-0.41-1.025 0-1.643-0.205-1.643-1.025 0-0.613 0.825-0.818 2.462-0.818 3.892 0 10.347 0.307 13.323 0.307 2.56 0 8.606-0.307 12.502-0.307 1.332 0 2.151 0.205 2.151 0.818 0 0.82-0.617 1.025-1.638 1.025-1.027 0-1.846 0.103-3.077 0.308-2.768 0.512-3.588 2.254-3.793 5.843-0.207 3.275-0.207 6.146-0.207 21.724v18.033c0 9.939 0 18.037 0.412 22.44 0.307 2.77 1.027 4.612 4.102 5.021 1.432 0.206 3.687 0.414 5.225 0.414 1.125 0 1.637 0.305 1.637 0.819 0 0.715-0.817 1.023-1.942 1.023-6.765 0-13.221-0.309-15.988-0.309-2.359 0-8.814 0.309-12.912 0.309-1.328 0-2.049-0.309-2.049-1.023 0-0.515 0.41-0.819 1.639-0.819 1.534 0 2.766-0.208 3.691-0.414 2.044-0.409 2.66-2.151 2.973-5.122 0.509-4.303 0.509-12.4 0.509-22.34v-18.032z" fill="#093552" stroke="#093552" stroke-width=".949"/><path d="m1183.3 72.233c-2.356-5.637-4.099-6.765-7.786-7.79-1.54-0.41-3.177-0.41-3.998-0.41-0.925 0-1.229-0.308-1.229-0.921 0-0.821 1.125-0.922 2.667-0.922 5.431 0 11.271 0.307 14.858 0.307 2.559 0 7.479-0.307 12.6-0.307 1.233 0 2.358 0.205 2.358 0.922 0 0.716-0.612 0.921-1.535 0.921-1.638 0-3.179 0.103-3.997 0.717-0.718 0.514-1.022 1.231-1.022 2.153 0 1.332 0.923 4.201 2.354 7.891l17.627 46.521h0.405c4.408-11.274 17.729-44.267 20.192-51.031 0.513-1.332 0.917-2.869 0.917-3.791 0-0.82-0.404-1.64-1.326-1.947-1.231-0.411-2.771-0.514-4.1-0.514-0.929 0-1.743-0.102-1.743-0.819 0-0.819 0.92-1.024 2.869-1.024 5.125 0 9.424 0.307 10.756 0.307 1.744 0 6.563-0.307 9.631-0.307 1.335 0 2.154 0.205 2.154 0.922 0 0.716-0.612 0.921-1.637 0.921-1.026 0-3.176 0-5.024 1.23-1.332 0.921-2.866 2.665-5.637 9.222-3.993 9.635-6.762 15.163-12.298 27.769-6.555 14.963-11.372 26.132-13.624 31.255-2.664 5.943-3.276 7.582-4.715 7.582-1.332 0-1.949-1.433-3.895-6.251l-25.822-62.606z" fill="#093552" stroke="#093552" stroke-width=".949"/><path d="m1272.2 91.908c0-15.578 0-18.448-0.202-21.724-0.207-3.488-1.024-5.125-4.407-5.843-0.819-0.205-2.563-0.308-4-0.308-1.125 0-1.739-0.205-1.739-0.921 0-0.717 0.718-0.922 2.254-0.922 5.428 0 11.888 0.307 14.756 0.307 3.281 0 23.676 0 25.615-0.102 1.95-0.205 3.59-0.411 4.408-0.615 0.514-0.104 1.13-0.41 1.638-0.41 0.513 0 0.618 0.41 0.618 0.921 0 0.717-0.514 1.948-0.818 6.663-0.105 1.022-0.308 5.533-0.514 6.762-0.105 0.512-0.307 1.128-1.021 1.128-0.721 0-0.925-0.513-0.925-1.436 0-0.717-0.103-2.46-0.614-3.69-0.719-1.842-1.745-3.073-6.868-3.688-1.742-0.204-12.502-0.408-14.548-0.408-0.513 0-0.721 0.307-0.721 1.024v25.927c0 0.718 0.103 1.126 0.721 1.126 2.25 0 14.039 0 16.392-0.204 2.461-0.204 3.994-0.517 4.92-1.538 0.719-0.82 1.129-1.334 1.644-1.334 0.403 0 0.715 0.208 0.715 0.821s-0.513 2.254-0.819 7.479c-0.201 2.051-0.41 6.149-0.41 6.868 0 0.818 0 1.943-0.923 1.943-0.718 0-0.923-0.407-0.923-0.92-0.105-1.023-0.105-2.355-0.41-3.691-0.514-2.046-1.944-3.584-5.741-3.994-1.938-0.206-12.091-0.305-14.549-0.305-0.513 0-0.615 0.405-0.615 1.023v8.093c0 3.483-0.1 12.912 0 15.883 0.208 7.068 1.845 8.61 12.295 8.61 2.666 0 6.971 0 9.639-1.233 2.658-1.229 3.888-3.378 4.61-7.58 0.202-1.125 0.406-1.541 1.124-1.541 0.82 0 0.82 0.822 0.82 1.847 0 2.354-0.82 9.324-1.332 11.375-0.715 2.664-1.641 2.664-5.532 2.664-15.475 0-22.341-0.615-28.39-0.615-2.353 0-8.812 0.309-12.908 0.309-1.332 0-2.049-0.309-2.049-1.023 0-0.515 0.409-0.819 1.639-0.819 1.536 0 2.766-0.208 3.688-0.414 2.051-0.409 2.563-2.662 2.974-5.633 0.512-4.303 0.512-12.4 0.512-21.829v-18.033z" fill="#093552" stroke="#093552" stroke-width=".949"/><path d="m1342.6 91.908c0-15.578 0-18.448-0.207-21.724-0.202-3.488-1.021-5.125-4.403-5.843-0.817-0.205-2.56-0.308-3.999-0.308-1.124 0-1.742-0.205-1.742-0.921 0-0.717 0.721-0.922 2.26-0.922 5.428 0 11.885 0.307 14.038 0.307 3.483 0 11.268-0.307 14.445-0.307 6.46 0 13.322 0.615 18.859 4.406 2.871 1.946 6.966 7.173 6.966 14.038 0 7.584-3.177 14.55-13.526 22.954 9.119 11.48 16.188 20.594 22.234 26.952 5.745 5.943 9.942 6.662 11.48 6.969 1.128 0.204 2.047 0.31 2.869 0.31 0.817 0 1.228 0.305 1.228 0.819 0 0.817-0.716 1.023-1.947 1.023h-9.734c-5.739 0-8.299-0.514-10.963-1.948-4.407-2.359-8.299-7.173-14.04-15.062-4.099-5.639-8.811-12.608-10.143-14.142-0.517-0.615-1.129-0.716-1.845-0.716l-8.915-0.208c-0.512 0-0.823 0.208-0.823 0.823v1.431c0 9.532 0 17.63 0.513 21.933 0.311 2.971 0.922 5.224 3.998 5.633 1.536 0.206 3.789 0.414 5.021 0.414 0.819 0 1.227 0.305 1.227 0.819 0 0.715-0.719 1.023-2.047 1.023-5.942 0-13.525-0.309-15.065-0.309-1.945 0-8.402 0.309-12.498 0.309-1.332 0-2.051-0.309-2.051-1.023 0-0.515 0.411-0.819 1.641-0.819 1.533 0 2.763-0.208 3.688-0.414 2.048-0.409 2.561-2.662 2.971-5.633 0.512-4.303 0.512-12.4 0.512-21.829v-18.035zm12.092 8.095c0 1.126 0.206 1.536 0.922 1.845 2.154 0.718 5.228 1.025 7.79 1.025 4.098 0 5.43-0.412 7.277-1.744 3.07-2.257 6.041-6.967 6.041-15.372 0-14.551-9.63-18.751-15.672-18.751-2.568 0-4.41 0.102-5.437 0.411-0.716 0.205-0.922 0.613-0.922 1.434v31.152z" fill="#093552" stroke="#093552" stroke-width=".949"/><path d="m1420.6 138.43c-1.639-0.717-1.945-1.228-1.945-3.483 0-5.638 0.409-11.785 0.515-13.422 0.099-1.542 0.41-2.664 1.227-2.664 0.925 0 1.03 0.918 1.03 1.742 0 1.332 0.41 3.479 0.918 5.223 2.255 7.584 8.303 10.349 14.65 10.349 9.229 0 13.734-6.25 13.734-11.677 0-5.025-1.533-9.839-10.041-16.398l-4.715-3.689c-11.271-8.812-15.167-15.986-15.167-24.288 0-11.271 9.43-19.366 23.675-19.366 6.657 0 10.963 1.024 13.629 1.741 0.919 0.205 1.432 0.512 1.432 1.229 0 1.333-0.41 4.304-0.41 12.298 0 2.253-0.305 3.075-1.125 3.075-0.719 0-1.023-0.614-1.023-1.845 0-0.923-0.514-4.099-2.665-6.764-1.54-1.947-4.512-5.021-11.172-5.021-7.581 0-12.191 4.408-12.191 10.555 0 4.712 2.356 8.298 10.859 14.755l2.873 2.154c12.296 9.528 16.804 16.395 16.804 26.128 0 5.946-2.255 13.018-9.638 17.831-5.118 3.277-10.857 4.2-16.288 4.2-5.947 1e-3 -10.558-0.715-14.966-2.663z" fill="#093552" stroke="#093552" stroke-width=".949"/><path d="m1490.4 91.908c0-15.578 0-18.448-0.209-21.724-0.205-3.488-1.228-5.229-3.485-5.741-1.125-0.307-2.457-0.41-3.686-0.41-1.029 0-1.641-0.205-1.641-1.025 0-0.613 0.82-0.818 2.461-0.818 3.895 0 10.351 0.307 13.318 0.307 2.561 0 8.61-0.307 12.503-0.307 1.335 0 2.153 0.205 2.153 0.818 0 0.82-0.611 1.025-1.642 1.025-1.024 0-1.845 0.103-3.067 0.308-2.771 0.512-3.59 2.254-3.797 5.843-0.207 3.275-0.207 6.146-0.207 21.724v18.033c0 9.939 0 18.037 0.414 22.44 0.307 2.77 1.021 4.612 4.098 5.021 1.43 0.206 3.688 0.414 5.229 0.414 1.124 0 1.637 0.305 1.637 0.819 0 0.715-0.818 1.023-1.947 1.023-6.763 0-13.217-0.309-15.986-0.309-2.354 0-8.811 0.309-12.907 0.309-1.336 0-2.051-0.309-2.051-1.023 0-0.515 0.403-0.819 1.641-0.819 1.534 0 2.763-0.208 3.685-0.414 2.051-0.409 2.663-2.151 2.974-5.122 0.514-4.303 0.514-12.4 0.514-22.34v-18.032z" fill="#093552" stroke="#093552" stroke-width=".949"/><path d="m1560.4 67.929l-15.268 0.41c-5.943 0.204-8.403 0.715-9.938 2.972-1.024 1.537-1.54 2.765-1.743 3.586-0.208 0.819-0.513 1.23-1.132 1.23-0.713 0-0.916-0.513-0.916-1.64 0-1.639 1.946-10.964 2.148-11.785 0.311-1.332 0.618-1.946 1.229-1.946 0.82 0 1.846 1.024 4.409 1.229 2.97 0.307 6.865 0.512 10.248 0.512h40.579c6.556 0 9.014-1.025 9.837-1.025 0.716 0 0.818 0.616 0.818 2.155 0 2.149-0.305 9.221-0.305 11.886-0.104 1.023-0.31 1.639-0.922 1.639-0.818 0-1.027-0.512-1.13-2.049l-0.099-1.128c-0.208-2.663-2.973-5.534-12.095-5.739l-12.912-0.306v42.013c0 9.429 0 17.526 0.509 21.93 0.312 2.87 0.927 5.123 3.999 5.532 1.436 0.206 3.688 0.414 5.229 0.414 1.126 0 1.64 0.305 1.64 0.819 0 0.715-0.822 1.023-1.946 1.023-6.768 0-13.219-0.309-16.091-0.309-2.358 0-8.812 0.309-12.911 0.309-1.332 0-2.047-0.309-2.047-1.023 0-0.515 0.41-0.819 1.637-0.819 1.535 0 2.77-0.208 3.69-0.414 2.045-0.409 2.663-2.662 2.97-5.633 0.513-4.303 0.513-12.4 0.513-21.829v-42.014z" fill="#093552" stroke="#093552" stroke-width=".949"/><path d="m1645.4 113.12c0-5.534-1.022-7.786-2.355-10.757-0.718-1.641-14.448-24.184-18.034-29.513-2.56-3.793-5.124-6.353-7.073-7.479-1.329-0.719-3.071-1.334-4.299-1.334-0.825 0-1.54-0.205-1.54-0.921 0-0.616 0.715-0.922 1.947-0.922 1.841 0 9.528 0.307 12.911 0.307 2.151 0 6.352-0.307 10.967-0.307 1.022 0 1.538 0.307 1.538 0.922 0 0.613-0.723 0.716-2.258 1.126-0.922 0.205-1.435 1.025-1.435 1.844 0 0.821 0.513 2.051 1.229 3.485 1.436 3.075 15.782 27.769 17.426 30.641 1.021-2.46 13.933-25.004 15.366-28.182 1.027-2.255 1.434-3.997 1.434-5.33 0-1.022-0.406-2.149-2.147-2.56-0.923-0.205-1.846-0.411-1.846-1.024 0-0.717 0.514-0.922 1.74-0.922 3.383 0 6.663 0.307 9.631 0.307 2.26 0 9.021-0.307 10.968-0.307 1.123 0 1.845 0.205 1.845 0.818 0 0.717-0.819 1.025-1.942 1.025-1.03 0-2.975 0.41-4.515 1.23-2.153 1.025-3.277 2.254-5.529 5.021-3.386 4.099-17.731 28.182-19.573 32.588-1.539 3.688-1.539 6.862-1.539 10.245v8.406c0 1.637 0 5.944 0.31 10.247 0.202 2.971 1.125 5.224 4.203 5.633 1.431 0.206 3.688 0.414 5.122 0.414 1.126 0 1.634 0.305 1.634 0.819 0 0.715-0.814 1.023-2.146 1.023-6.458 0-12.915-0.309-15.681-0.309-2.561 0-9.02 0.309-12.811 0.309-1.437 0-2.255-0.206-2.255-1.023 0-0.515 0.513-0.819 1.639-0.819 1.437 0 2.665-0.208 3.589-0.414 2.051-0.409 2.973-2.662 3.177-5.633 0.305-4.303 0.305-8.61 0.305-10.247v-8.407z" fill="#093552" stroke="#093552" stroke-width=".949"/><g fill="#093552" stroke="#093552" stroke-width=".949">	<path d="m225.91 219c0-10.23 0-12.117-0.135-14.271-0.134-2.287-0.808-3.432-2.287-3.768-0.741-0.201-1.616-0.267-2.423-0.267-0.673 0-1.077-0.136-1.077-0.674 0-0.402 0.539-0.54 1.615-0.54 2.559 0 6.796 0.205 8.749 0.205 1.684 0 5.654-0.205 8.209-0.205 0.876 0 1.415 0.138 1.415 0.54 0 0.538-0.404 0.674-1.076 0.674s-1.212 0.065-2.02 0.201c-1.817 0.335-2.355 1.479-2.489 3.833-0.135 2.153-0.135 4.04-0.135 14.271v11.844c0 6.524 0 11.846 0.269 14.737 0.201 1.816 0.672 3.031 2.691 3.297 0.942 0.136 2.423 0.27 3.431 0.27 0.74 0 1.078 0.201 1.078 0.538 0 0.471-0.54 0.673-1.28 0.673-4.439 0-8.681-0.202-10.497-0.202-1.548 0-5.786 0.202-8.48 0.202-0.875 0-1.344-0.202-1.344-0.673 0-0.337 0.268-0.538 1.078-0.538 1.007 0 1.815-0.134 2.421-0.27 1.346-0.266 1.75-1.413 1.952-3.368 0.337-2.82 0.337-8.142 0.337-14.666v-11.843z"/>	<path d="m263.53 241.2c0.134 5.248 1.01 6.998 2.356 7.472 1.142 0.402 2.421 0.471 3.498 0.471 0.74 0 1.144 0.133 1.144 0.538 0 0.535-0.605 0.673-1.545 0.673-4.376 0-7.067-0.202-8.346-0.202-0.606 0-3.768 0.202-7.269 0.202-0.875 0-1.48-0.065-1.48-0.673 0-0.405 0.404-0.538 1.076-0.538 0.876 0 2.089-0.068 3.031-0.335 1.749-0.541 2.018-2.495 2.085-8.348l0.606-39.841c0-1.344 0.202-2.287 0.875-2.287 0.739 0 1.345 0.876 2.489 2.085 0.808 0.876 11.038 11.847 20.861 21.604 4.577 4.577 13.662 14.268 14.806 15.343h0.336l-0.673-30.214c-0.066-4.106-0.672-5.383-2.287-6.056-1.01-0.403-2.626-0.403-3.566-0.403-0.81 0-1.078-0.2-1.078-0.605 0-0.539 0.74-0.608 1.75-0.608 3.5 0 6.729 0.205 8.143 0.205 0.741 0 3.298-0.205 6.596-0.205 0.875 0 1.547 0.069 1.547 0.608 0 0.405-0.404 0.605-1.212 0.605-0.673 0-1.211 0-2.02 0.201-1.883 0.537-2.422 1.952-2.491 5.722l-0.739 42.461c0 1.48-0.269 2.089-0.875 2.089-0.741 0-1.546-0.74-2.287-1.482-4.24-4.038-12.854-12.852-19.853-19.784-7.334-7.269-14.806-15.681-16.016-16.96h-0.203l0.741 28.262z"/><path d="m359.49 203.25l-10.028 0.267c-3.902 0.133-5.518 0.47-6.526 1.952-0.673 1.009-1.01 1.815-1.144 2.353-0.134 0.539-0.337 0.808-0.741 0.808-0.47 0-0.606-0.337-0.606-1.071 0-1.08 1.278-7.206 1.414-7.744 0.203-0.877 0.404-1.276 0.809-1.276 0.538 0 1.21 0.67 2.893 0.806 1.952 0.202 4.509 0.338 6.729 0.338h26.649c2.153 0 3.634-0.205 4.643-0.338 1.012-0.204 1.548-0.335 1.817-0.335 0.472 0 0.539 0.403 0.539 1.408 0 1.417-0.202 6.062-0.202 7.812-0.066 0.667-0.202 1.077-0.605 1.077-0.537 0-0.672-0.337-0.74-1.348l-0.068-0.737c-0.133-1.751-1.952-3.639-7.939-3.774l-8.48-0.195v27.588c0 6.189 0 11.504 0.336 14.4 0.203 1.887 0.605 3.368 2.625 3.634 0.942 0.136 2.423 0.27 3.43 0.27 0.743 0 1.079 0.201 1.079 0.538 0 0.471-0.539 0.673-1.279 0.673-4.441 0-8.681-0.202-10.565-0.202-1.548 0-5.788 0.202-8.479 0.202-0.876 0-1.347-0.202-1.347-0.673 0-0.337 0.269-0.538 1.077-0.538 1.009 0 1.817-0.134 2.423-0.27 1.346-0.266 1.751-1.747 1.952-3.7 0.336-2.83 0.336-8.145 0.336-14.334v-27.591z"/><path d="m436.27 220.88c0.202 0 0.404-0.134 0.404-0.471v-1.411c0-10.23 0-12.117-0.134-14.271-0.136-2.287-0.672-3.359-2.893-3.833-0.538-0.136-1.682-0.201-2.624-0.201-0.741 0-1.144-0.136-1.144-0.605 0-0.471 0.47-0.608 1.413-0.608 3.635 0 7.873 0.205 9.69 0.205 1.616 0 5.856-0.205 8.479-0.205 0.942 0 1.413 0.138 1.413 0.608s-0.404 0.605-1.21 0.605c-0.539 0-1.146 0.065-1.951 0.201-1.818 0.335-2.357 1.479-2.49 3.833-0.135 2.153-0.135 4.04-0.135 14.271v11.844c0 6.189 0 11.504 0.335 14.4 0.203 1.887 0.606 3.368 2.625 3.634 0.941 0.136 2.422 0.27 3.432 0.27 0.741 0 1.077 0.201 1.077 0.538 0 0.471-0.539 0.673-1.346 0.673-4.373 0-8.613-0.202-10.498-0.202-1.548 0-5.786 0.202-8.413 0.202-0.942 0-1.412-0.202-1.412-0.673 0-0.337 0.268-0.538 1.076-0.538 1.009 0 1.816-0.134 2.422-0.27 1.347-0.266 1.682-1.747 1.952-3.7 0.335-2.83 0.335-8.145 0.335-14.334v-5.923c0-0.271-0.202-0.404-0.404-0.404h-25.707c-0.201 0-0.403 0.068-0.403 0.404v5.923c0 6.189 0 11.504 0.337 14.4 0.201 1.887 0.605 3.368 2.625 3.634 0.942 0.136 2.421 0.27 3.431 0.27 0.74 0 1.077 0.201 1.077 0.538 0 0.471-0.537 0.673-1.347 0.673-4.374 0-8.613-0.202-10.498-0.202-1.546 0-5.788 0.202-8.479 0.202-0.875 0-1.347-0.202-1.347-0.673 0-0.337 0.27-0.538 1.077-0.538 1.01 0 1.818-0.134 2.423-0.27 1.347-0.266 1.683-1.747 1.952-3.7 0.338-2.83 0.338-8.145 0.338-14.334v-11.844c0-10.23 0-12.117-0.136-14.271-0.134-2.287-0.673-3.359-2.896-3.833-0.536-0.136-1.682-0.201-2.624-0.201-0.739 0-1.144-0.136-1.144-0.605 0-0.471 0.472-0.608 1.413-0.608 3.634 0 7.875 0.205 9.69 0.205 1.616 0 5.855-0.205 8.481-0.205 0.942 0 1.413 0.138 1.413 0.608s-0.405 0.605-1.21 0.605c-0.539 0-1.145 0.065-1.954 0.201-1.816 0.335-2.354 1.479-2.489 3.833-0.134 2.153-0.134 4.04-0.134 14.271v1.411c0 0.337 0.203 0.471 0.403 0.471h25.709z"/><path d="m470.59 219c0-10.23 0-12.117-0.135-14.271-0.135-2.287-0.674-3.359-2.895-3.833-0.539-0.136-1.682-0.201-2.624-0.201-0.739 0-1.144-0.136-1.144-0.605 0-0.471 0.474-0.608 1.48-0.608 3.566 0 7.809 0.205 9.692 0.205 2.152 0 15.544 0 16.822-0.067 1.279-0.138 2.355-0.271 2.892-0.406 0.337-0.068 0.741-0.271 1.078-0.271s0.404 0.271 0.404 0.608c0 0.471-0.336 1.275-0.538 4.373-0.068 0.676-0.203 3.64-0.336 4.442-0.067 0.337-0.202 0.743-0.672 0.743-0.472 0-0.606-0.34-0.606-0.944 0-0.473-0.067-1.617-0.404-2.424-0.47-1.214-1.145-2.017-4.508-2.423-1.144-0.134-8.21-0.271-9.556-0.271-0.336 0-0.471 0.208-0.471 0.677v17.023c0 0.47 0.067 0.739 0.471 0.739 1.481 0 9.218 0 10.766-0.132 1.615-0.138 2.625-0.337 3.229-1.011 0.474-0.535 0.741-0.878 1.08-0.878 0.269 0 0.471 0.141 0.471 0.541 0 0.403-0.337 1.479-0.539 4.913-0.135 1.347-0.27 4.037-0.27 4.506 0 0.539 0 1.281-0.605 1.281-0.471 0-0.605-0.271-0.605-0.605-0.066-0.676-0.066-1.548-0.27-2.425-0.336-1.346-1.278-2.354-3.768-2.621-1.28-0.136-7.942-0.204-9.557-0.204-0.335 0-0.403 0.271-0.403 0.673v5.318c0 2.288-0.067 8.479 0 10.431 0.134 4.644 1.211 5.65 8.076 5.65 1.75 0 4.576 0 6.325-0.81 1.75-0.806 2.557-2.216 3.029-4.977 0.132-0.739 0.269-1.012 0.741-1.012 0.537 0 0.537 0.539 0.537 1.213 0 1.549-0.537 6.125-0.875 7.473-0.472 1.747-1.076 1.747-3.634 1.747-10.162 0-14.671-0.403-18.642-0.403-1.545 0-5.788 0.202-8.479 0.202-0.875 0-1.345-0.202-1.345-0.673 0-0.337 0.267-0.538 1.076-0.538 1.009 0 1.816-0.134 2.422-0.27 1.347-0.266 1.684-1.747 1.951-3.7 0.338-2.83 0.338-8.145 0.338-14.334v-11.841z"/><path d="m541.18 243.96c-6.595-5.79-8.344-13.325-8.344-19.853 0-4.574 1.413-12.515 7.872-18.438 4.846-4.442 11.239-7.131 21.266-7.131 4.174 0 6.663 0.267 9.76 0.67 2.556 0.338 4.709 0.941 6.729 1.145 0.74 0.064 1.01 0.403 1.01 0.812 0 0.535-0.205 1.345-0.336 3.697-0.135 2.223-0.068 5.924-0.202 7.268-0.068 1.012-0.201 1.55-0.809 1.55-0.536 0-0.671-0.538-0.671-1.48-0.068-2.089-0.942-4.442-2.625-6.194-2.219-2.354-7.47-4.17-13.661-4.17-5.854 0-9.69 1.479-12.652 4.17-4.913 4.509-6.191 10.904-6.191 17.434 0 16.015 12.182 23.955 21.199 23.955 5.991 0 9.623-0.674 12.316-3.769 1.144-1.281 2.018-3.229 2.286-4.442 0.204-1.075 0.337-1.344 0.876-1.344 0.471 0 0.605 0.471 0.605 1.009 0 0.806-0.81 6.658-1.482 8.952-0.336 1.14-0.603 1.477-1.748 1.949-2.693 1.074-7.809 1.548-12.115 1.548-9.221-2e-3 -16.96-2.023-23.083-7.338z"/><path d="m597.44 219c0-10.23 0-12.117-0.135-14.271-0.134-2.287-0.81-3.432-2.289-3.768-0.741-0.201-1.616-0.267-2.425-0.267-0.671 0-1.074-0.136-1.074-0.674 0-0.402 0.539-0.54 1.614-0.54 2.558 0 6.796 0.205 8.748 0.205 1.682 0 5.653-0.205 8.211-0.205 0.876 0 1.412 0.138 1.412 0.54 0 0.538-0.403 0.674-1.076 0.674-0.671 0-1.211 0.065-2.019 0.201-1.818 0.335-2.355 1.479-2.49 3.833-0.134 2.153-0.134 4.04-0.134 14.271v11.844c0 6.524 0 11.846 0.268 14.737 0.202 1.816 0.674 3.031 2.693 3.297 0.942 0.136 2.423 0.27 3.432 0.27 0.74 0 1.076 0.201 1.076 0.538 0 0.471-0.538 0.673-1.277 0.673-4.443 0-8.682-0.202-10.499-0.202-1.549 0-5.787 0.202-8.479 0.202-0.875 0-1.347-0.202-1.347-0.673 0-0.337 0.27-0.538 1.076-0.538 1.01 0 1.818-0.134 2.424-0.27 1.345-0.266 1.75-1.413 1.951-3.368 0.339-2.82 0.339-8.142 0.339-14.666v-11.843z"/><path d="m640.24 203.25l-10.029 0.267c-3.902 0.133-5.516 0.47-6.527 1.952-0.672 1.009-1.01 1.815-1.144 2.353-0.137 0.539-0.337 0.808-0.74 0.808-0.473 0-0.605-0.337-0.605-1.071 0-1.08 1.277-7.206 1.412-7.744 0.203-0.877 0.405-1.276 0.807-1.276 0.539 0 1.213 0.67 2.896 0.806 1.951 0.202 4.507 0.338 6.729 0.338h26.647c2.155 0 3.635-0.205 4.646-0.338 1.008-0.204 1.549-0.335 1.817-0.335 0.47 0 0.539 0.403 0.539 1.408 0 1.417-0.204 6.062-0.204 7.812-0.067 0.667-0.203 1.077-0.603 1.077-0.541 0-0.674-0.337-0.741-1.348l-0.068-0.737c-0.134-1.751-1.951-3.639-7.94-3.774l-8.479-0.195v27.588c0 6.189 0 11.504 0.333 14.4 0.204 1.887 0.608 3.368 2.625 3.634 0.943 0.136 2.424 0.27 3.434 0.27 0.74 0 1.076 0.201 1.076 0.538 0 0.471-0.54 0.673-1.278 0.673-4.441 0-8.682-0.202-10.566-0.202-1.546 0-5.786 0.202-8.479 0.202-0.875 0-1.347-0.202-1.347-0.673 0-0.337 0.269-0.538 1.076-0.538 1.012 0 1.818-0.134 2.424-0.27 1.347-0.266 1.749-1.747 1.951-3.7 0.339-2.83 0.339-8.145 0.339-14.334v-27.591z"/><path d="m690.36 232.92c0-3.633-0.671-5.114-1.547-7.068-0.473-1.073-9.488-15.88-11.843-19.377-1.684-2.491-3.367-4.173-4.644-4.915-0.874-0.47-2.021-0.873-2.826-0.873-0.539 0-1.012-0.136-1.012-0.605 0-0.403 0.473-0.608 1.28-0.608 1.211 0 6.258 0.205 8.479 0.205 1.414 0 4.172-0.205 7.202-0.205 0.671 0 1.009 0.205 1.009 0.608 0 0.405-0.471 0.47-1.482 0.736-0.606 0.136-0.941 0.676-0.941 1.214s0.335 1.346 0.808 2.29c0.942 2.018 10.361 18.233 11.44 20.118 0.674-1.613 9.15-16.419 10.093-18.504 0.674-1.481 0.942-2.626 0.942-3.502 0-0.671-0.268-1.412-1.412-1.682-0.606-0.137-1.209-0.266-1.209-0.671 0-0.471 0.334-0.608 1.142-0.608 2.22 0 4.374 0.205 6.326 0.205 1.482 0 5.921-0.205 7.199-0.205 0.741 0 1.213 0.138 1.213 0.54 0 0.474-0.537 0.674-1.277 0.674-0.674 0-1.952 0.267-2.964 0.807-1.41 0.669-2.15 1.481-3.635 3.293-2.22 2.694-11.638 18.511-12.849 21.402-1.009 2.425-1.009 4.511-1.009 6.731v5.518c0 1.078 0 3.901 0.2 6.731 0.135 1.953 0.741 3.435 2.759 3.7 0.942 0.136 2.424 0.27 3.364 0.27 0.741 0 1.077 0.201 1.077 0.538 0 0.471-0.536 0.673-1.412 0.673-4.241 0-8.481-0.202-10.297-0.202-1.682 0-5.922 0.202-8.413 0.202-0.94 0-1.479-0.138-1.479-0.673 0-0.337 0.335-0.538 1.076-0.538 0.94 0 1.75-0.134 2.355-0.27 1.347-0.266 1.954-1.747 2.087-3.7 0.201-2.83 0.201-5.653 0.201-6.731v-5.518z"/><path d="m747.63 224.92c0-11.505 7.605-26.378 27.794-26.378 16.755 0 27.187 9.755 27.187 25.166s-10.764 27.592-27.857 27.592c-19.317 0-27.124-14.467-27.124-26.38zm45.561 1.276c0-15.072-8.684-24.426-19.72-24.426-7.738 0-16.554 4.306-16.554 21.063 0 13.999 7.741 25.102 20.664 25.102 4.708 1e-3 15.61-2.288 15.61-21.739z"/><path d="m828.6 230.84c0 6.461 0 11.504 0.339 14.334 0.198 1.953 0.602 3.435 2.624 3.7 0.943 0.136 2.42 0.27 3.363 0.27 0.874 0 1.15 0.201 1.15 0.538 0 0.471-0.473 0.673-1.485 0.673-4.238 0-8.478-0.202-10.229-0.202-1.749 0-5.991 0.202-8.55 0.202-0.94 0-1.408-0.138-1.408-0.673 0-0.337 0.271-0.538 1.009-0.538 1.008 0 1.814-0.134 2.421-0.27 1.347-0.266 1.682-1.747 1.955-3.7 0.335-2.83 0.335-7.873 0.335-14.334v-11.844c0-10.23 0-12.117-0.134-14.271-0.136-2.287-0.678-3.359-2.896-3.833-0.537-0.136-1.682-0.201-2.624-0.201-0.675 0-1.146-0.136-1.146-0.541 0-0.535 0.54-0.673 1.546-0.673 3.5 0 7.741 0.205 9.692 0.205 2.557 0 16.22 0 17.764-0.067 1.282-0.068 2.088-0.068 2.762-0.271 0.403-0.136 0.738-0.406 1.08-0.406 0.267 0 0.468 0.271 0.468 0.608 0 0.471-0.34 1.275-0.542 3.027-0.063 0.678-0.196 4.647-0.335 5.451-0.064 0.535-0.201 0.944-0.671 0.944-0.473 0-0.608-0.339-0.674-1.079 0-0.538 0-1.613-0.399-2.558-0.471-0.941-1.889-1.951-4.448-2.019l-10.36-0.203c-0.406 0-0.608 0.203-0.608 0.944v16.822c0 0.407 0.064 0.605 0.473 0.605l8.611-0.067c1.146 0 2.085 0 3.029-0.064 1.279-0.066 2.223-0.337 2.896-1.212 0.335-0.406 0.471-0.677 0.871-0.677 0.27 0 0.406 0.203 0.406 0.606 0 0.406-0.341 2.089-0.537 4.174-0.14 1.347-0.27 4.443-0.27 4.911 0 0.609 0 1.279-0.673 1.279-0.406 0-0.542-0.472-0.542-0.938 0-0.473-0.131-1.281-0.399-2.088-0.339-0.943-1.347-2.152-3.434-2.423-1.68-0.201-8.815-0.201-9.959-0.201-0.335 0-0.473 0.134-0.473 0.607v5.453z"/><path d="m892.8 241.2c0.134 5.248 1.01 6.998 2.353 7.472 1.145 0.402 2.421 0.471 3.501 0.471 0.744 0 1.144 0.133 1.144 0.538 0 0.535-0.603 0.673-1.544 0.673-4.376 0-7.063-0.202-8.346-0.202-0.607 0-3.774 0.202-7.267 0.202-0.877 0-1.484-0.065-1.484-0.673 0-0.405 0.404-0.538 1.077-0.538 0.876 0 2.089-0.068 3.031-0.335 1.746-0.541 2.012-2.495 2.086-8.348l0.606-39.841c0-1.344 0.197-2.287 0.874-2.287 0.734 0 1.344 0.876 2.488 2.085 0.811 0.876 11.039 11.847 20.861 21.604 4.576 4.577 13.659 14.268 14.803 15.343h0.335l-0.664-30.214c-0.074-4.106-0.677-5.383-2.29-6.056-1.016-0.403-2.627-0.403-3.565-0.403-0.812 0-1.079-0.2-1.079-0.605 0-0.539 0.738-0.608 1.746-0.608 3.5 0 6.731 0.205 8.143 0.205 0.74 0 3.298-0.205 6.595-0.205 0.876 0 1.551 0.069 1.551 0.608 0 0.405-0.406 0.605-1.213 0.605-0.673 0-1.214 0-2.018 0.201-1.884 0.537-2.42 1.952-2.49 5.722l-0.744 42.461c0 1.48-0.266 2.089-0.874 2.089-0.738 0-1.546-0.74-2.282-1.482-4.24-4.038-12.856-12.852-19.854-19.784-7.339-7.269-14.809-15.681-16.017-16.96h-0.203l0.74 28.262z"/><path d="m956.19 219c0-10.23 0-12.117-0.139-14.271-0.132-2.287-0.666-3.359-2.891-3.833-0.541-0.136-1.682-0.201-2.623-0.201-0.74 0-1.146-0.136-1.146-0.605 0-0.471 0.47-0.608 1.48-0.608 3.565 0 7.809 0.205 9.688 0.205 2.157 0 15.546 0 16.828-0.067 1.275-0.138 2.353-0.271 2.891-0.406 0.34-0.068 0.744-0.271 1.078-0.271 0.337 0 0.406 0.271 0.406 0.608 0 0.471-0.335 1.275-0.536 4.373-0.071 0.676-0.204 3.64-0.342 4.442-0.068 0.337-0.202 0.743-0.671 0.743-0.474 0-0.61-0.34-0.61-0.944 0-0.473-0.065-1.617-0.4-2.424-0.474-1.214-1.145-2.017-4.51-2.423-1.141-0.134-8.208-0.271-9.558-0.271-0.332 0-0.47 0.208-0.47 0.677v17.023c0 0.47 0.069 0.739 0.47 0.739 1.479 0 9.223 0 10.771-0.132 1.61-0.138 2.625-0.337 3.231-1.011 0.465-0.535 0.734-0.878 1.075-0.878 0.268 0 0.469 0.141 0.469 0.541 0 0.403-0.339 1.479-0.536 4.913-0.135 1.347-0.273 4.037-0.273 4.506 0 0.539 0 1.281-0.6 1.281-0.474 0-0.61-0.271-0.61-0.605-0.066-0.676-0.066-1.548-0.269-2.425-0.336-1.346-1.277-2.354-3.769-2.621-1.275-0.136-7.939-0.204-9.557-0.204-0.334 0-0.403 0.271-0.403 0.673v5.318c0 2.288-0.064 8.479 0 10.431 0.138 4.644 1.214 5.65 8.078 5.65 1.744 0 4.576 0 6.324-0.81 1.748-0.806 2.558-2.216 3.029-4.977 0.13-0.739 0.267-1.012 0.739-1.012 0.539 0 0.539 0.539 0.539 1.213 0 1.549-0.539 6.125-0.879 7.473-0.468 1.747-1.069 1.747-3.63 1.747-10.167 0-14.673-0.403-18.643-0.403-1.544 0-5.787 0.202-8.478 0.202-0.875 0-1.349-0.202-1.349-0.673 0-0.337 0.271-0.538 1.08-0.538 1.008 0 1.817-0.134 2.423-0.27 1.345-0.266 1.681-1.747 1.947-3.7 0.341-2.83 0.341-8.145 0.341-14.334v-11.841z"/><path d="m996.16 206.07c-0.806-2.49-1.546-4.103-2.494-4.779-0.734-0.472-2.084-0.603-2.688-0.603-0.674 0-1.078-0.071-1.078-0.605 0-0.471 0.536-0.608 1.483-0.608 3.5 0 7.2 0.205 7.805 0.205 0.607 0 3.565-0.205 7.468-0.205 0.943 0 1.414 0.205 1.414 0.608 0 0.534-0.537 0.605-1.211 0.605-0.534 0-1.21 0-1.68 0.267-0.604 0.27-0.74 0.742-0.74 1.48 0 0.876 0.669 3.165 1.479 6.192 1.144 4.444 7.403 24.831 8.613 28.602h0.201l13.059-35.065c0.739-1.881 1.145-2.419 1.682-2.419 0.738 0 1.076 1.009 1.949 3.161l13.996 33.85h0.205c1.213-4.509 6.598-22.275 8.95-30.145 0.472-1.55 0.67-2.963 0.67-3.906 0-1.072-0.602-2.017-3.225-2.017-0.674 0-1.145-0.2-1.145-0.605 0-0.471 0.534-0.608 1.548-0.608 3.566 0 6.393 0.205 6.994 0.205 0.472 0 3.368-0.205 5.586-0.205 0.744 0 1.215 0.138 1.215 0.54 0 0.474-0.342 0.674-0.943 0.674-0.675 0-1.613 0.065-2.353 0.335-1.62 0.609-2.355 3.3-3.771 7.135-3.097 8.479-10.16 29.88-13.462 39.971-0.739 2.355-1.074 3.165-1.949 3.165-0.674 0-1.075-0.81-2.085-3.296l-13.999-33.717h-0.134c-1.28 3.43-10.229 27.257-13.12 33.445-1.279 2.758-1.615 3.567-2.424 3.567-0.674 0-1.009-0.741-1.547-2.488l-14.269-42.736z"/><path d="m1109.8 232.92c0-3.633-0.677-5.114-1.551-7.068-0.472-1.073-9.491-15.88-11.845-19.377-1.681-2.491-3.362-4.173-4.64-4.915-0.876-0.47-2.021-0.873-2.829-0.873-0.538 0-1.01-0.136-1.01-0.605 0-0.403 0.472-0.608 1.281-0.608 1.207 0 6.261 0.205 8.478 0.205 1.415 0 4.175-0.205 7.203-0.205 0.671 0 1.006 0.205 1.006 0.608 0 0.405-0.47 0.47-1.479 0.736-0.606 0.136-0.941 0.676-0.941 1.214s0.335 1.346 0.805 2.29c0.942 2.018 10.368 18.233 11.44 20.118 0.675-1.613 9.156-16.419 10.093-18.504 0.676-1.481 0.949-2.626 0.949-3.502 0-0.671-0.273-1.412-1.415-1.682-0.608-0.137-1.216-0.266-1.216-0.671 0-0.471 0.341-0.608 1.145-0.608 2.225 0 4.376 0.205 6.327 0.205 1.484 0 5.923-0.205 7.199-0.205 0.74 0 1.214 0.138 1.214 0.54 0 0.474-0.537 0.674-1.278 0.674-0.674 0-1.951 0.267-2.963 0.807-1.415 0.669-2.151 1.481-3.631 3.293-2.223 2.694-11.641 18.511-12.854 21.402-1.011 2.425-1.011 4.511-1.011 6.731v5.518c0 1.078 0 3.901 0.201 6.731 0.138 1.953 0.745 3.435 2.762 3.7 0.941 0.136 2.421 0.27 3.361 0.27 0.744 0 1.079 0.201 1.079 0.538 0 0.471-0.537 0.673-1.414 0.673-4.244 0-8.476-0.202-10.294-0.202-1.688 0-5.92 0.202-8.413 0.202-0.941 0-1.483-0.138-1.483-0.673 0-0.337 0.339-0.538 1.079-0.538 0.941 0 1.751-0.134 2.356-0.27 1.347-0.266 1.948-1.747 2.085-3.7 0.204-2.83 0.204-5.653 0.204-6.731v-5.518z"/><path d="m1142.1 224.92c0-11.505 7.607-26.378 27.792-26.378 16.76 0 27.186 9.755 27.186 25.166s-10.765 27.592-27.857 27.592c-19.316 0-27.121-14.467-27.121-26.38zm45.56 1.276c0-15.072-8.68-24.426-19.722-24.426-7.737 0-16.553 4.306-16.553 21.063 0 13.999 7.742 25.102 20.661 25.102 4.71 1e-3 15.614-2.288 15.614-21.739z"/><path d="m1214.6 219c0-10.23 0-12.117-0.138-14.271-0.134-2.287-0.671-3.359-2.896-3.833-0.537-0.136-1.678-0.201-2.623-0.201-0.74 0-1.141-0.136-1.141-0.605 0-0.471 0.467-0.608 1.479-0.608 3.566 0 7.802 0.205 9.217 0.205 2.288 0 7.402-0.205 9.49-0.205 4.238 0 8.747 0.406 12.382 2.894 1.883 1.28 4.571 4.714 4.571 9.223 0 4.979-2.087 9.556-8.876 15.072 5.986 7.538 10.63 13.525 14.6 17.695 3.769 3.906 6.529 4.376 7.54 4.578 0.735 0.136 1.343 0.204 1.885 0.204 0.537 0 0.804 0.201 0.804 0.538 0 0.535-0.47 0.673-1.281 0.673h-6.391c-3.768 0-5.449-0.338-7.2-1.279-2.89-1.546-5.449-4.714-9.218-9.893-2.692-3.699-5.789-8.276-6.662-9.285-0.335-0.402-0.741-0.475-1.213-0.475l-5.854-0.131c-0.335 0-0.536 0.131-0.536 0.539v0.94c0 6.258 0 11.572 0.335 14.402 0.201 1.953 0.602 3.435 2.622 3.7 1.007 0.136 2.492 0.27 3.299 0.27 0.54 0 0.81 0.201 0.81 0.538 0 0.471-0.479 0.673-1.349 0.673-3.905 0-8.884-0.202-9.891-0.202-1.282 0-5.518 0.202-8.208 0.202-0.876 0-1.35-0.202-1.35-0.673 0-0.337 0.271-0.538 1.08-0.538 1.004 0 1.814-0.134 2.423-0.27 1.347-0.266 1.681-1.747 1.947-3.7 0.341-2.83 0.341-8.145 0.341-14.334v-11.843zm7.941 5.315c0 0.742 0.132 1.009 0.602 1.211 1.415 0.471 3.435 0.672 5.115 0.672 2.694 0 3.571-0.269 4.779-1.141 2.017-1.484 3.967-4.577 3.967-10.095 0-9.557-6.322-12.316-10.296-12.316-1.68 0-2.892 0.066-3.565 0.268-0.47 0.135-0.602 0.405-0.602 0.944v20.457z"/><path d="m1277 221.96h0.339c2.284-2.495 12.108-12.521 14.062-14.808 1.886-2.217 3.364-3.898 3.364-5.047 0-0.737-0.264-1.211-0.941-1.347-0.605-0.137-0.876-0.266-0.876-0.671 0-0.471 0.339-0.608 1.077-0.608 1.413 0 5.115 0.205 6.935 0.205 2.085 0 5.787-0.205 7.869-0.205 0.677 0 1.145 0.138 1.145 0.608s-0.335 0.605-1.009 0.605c-0.942 0-2.624 0.267-3.902 0.738-2.09 0.81-4.373 2.222-7.269 5.05-2.085 2.018-12.245 12.109-14.536 14.535 2.423 3.16 15.613 17.359 18.24 19.85 2.961 2.83 5.987 5.855 9.62 7.268 2.019 0.808 3.369 1.012 4.172 1.012 0.471 0 0.878 0.133 0.878 0.538 0 0.471-0.341 0.673-1.616 0.673h-5.855c-2.021 0-3.229 0-4.644-0.138-3.631-0.332-5.449-1.817-8.344-4.372-2.958-2.623-16.219-18.171-17.63-20.119l-0.74-1.009h-0.339v6.123c0 6.189 0 11.504 0.202 14.4 0.137 1.887 0.74 3.368 2.421 3.634 0.943 0.136 2.427 0.27 3.303 0.27 0.537 0 0.869 0.201 0.869 0.538 0 0.471-0.537 0.673-1.275 0.673-3.768 0-8.011-0.202-9.688-0.202-1.554 0-5.788 0.202-8.482 0.202-0.876 0-1.347-0.202-1.347-0.673 0-0.337 0.269-0.538 1.077-0.538 1.01 0 1.816-0.134 2.42-0.27 1.35-0.266 1.682-1.747 1.952-3.7 0.339-2.83 0.339-8.145 0.339-14.334v-11.844c0-10.23 0-12.117-0.136-14.271-0.132-2.287-0.676-3.359-2.894-3.833-0.534-0.136-1.682-0.201-2.623-0.201-0.745 0-1.145-0.136-1.145-0.605 0-0.471 0.468-0.608 1.479-0.608 3.57 0 7.805 0.205 9.423 0.205 1.612 0 5.855-0.205 8.146-0.205 0.937 0 1.407 0.138 1.407 0.608s-0.399 0.605-0.942 0.605c-0.666 0-1.073 0.065-1.884 0.201-1.814 0.335-2.353 1.479-2.485 3.833-0.138 2.153-0.138 4.04-0.138 14.271v2.963z"/></g><path d="m82.595 123.15c0-2e-3 -61.81-2e-3 -61.81-2e-3 0.314-5.577-1.429-12.059-3.411-16.881-6.281-15.281-19.214-29.116-16.12-47.116 1.719-10 9.795-16.964 19.677-17.756 17.665-1.421 32.906 8.027 50.039 11.053 1.37 0.241 3.215-2.678 4.879-4.344-7.946-5.989-6.865-17.729 2.333-22.799 0.634-0.728 0.402-7.489 0.04-7.793-0.749-0.625-6.617 0.499-7.45-0.225-0.831-0.725-0.668-7.766-0.134-8.441 0.534-0.673 7.148 0.049 7.52-0.403 0.372-0.455-0.187-6.789 0.438-7.288s3.999-0.374 3.999-0.374h-1.39s3.368-0.126 3.994 0.374c0.623 0.5 0.066 6.833 0.441 7.288 0.373 0.452 6.986-0.27 7.519 0.403 0.533 0.676 0.7 7.717-0.133 8.441-0.832 0.723-6.7-0.4-7.449 0.225-0.365 0.304-0.595 7.065 0.038 7.793 9.201 5.069 10.281 16.81 2.333 22.799 1.664 1.666 3.506 4.584 4.879 4.344 17.135-3.026 32.374-12.475 50.036-11.053 9.885 0.792 17.962 7.756 19.68 17.756 3.094 18-9.838 31.834-16.116 47.116-1.984 4.822-3.728 11.304-3.414 16.881 0 0-61.808 0-61.808 2e-3m34.256-37.276s7.074-1.061 7.59-0.049c0.518 1.012-2.389 6.983-1.893 8 0.497 1.019 9.866-0.892 10.03 0.162 0.166 1.055-0.539 6.313-1.435 7.09-0.899 0.779-9.644 0.833-9.644 0.833-1.822 1.386-2.296 4.204-2.307 7.09-0.013 3.659 2.834 5.55 7.377 4.281 8.469-2.367 18.964-20.739 25.193-33.456 4.58-9.351 7.342-24.647-4.676-29.229-7.329-2.793-15.017-1.21-22.898 1.128-8.259 2.452-19.154 5.77-25.574 9.756-1.575 0.977 1.875 0.198-3.822 12.824-2.647 5.874-5.306 18.383-4.196 24.7 1.586 9.036 6.606 14.776 10.784 14.802 2.74 0.012 4.939-1.023 6.936-2.771 2.75-2.408 4.996-6.367 4.275-8.708-0.61-0.786-8.022 0.343-8.549-0.394-0.525-0.737 0.901-6.507 1.743-7.255 0.835-0.745 7.526 0.25 8.422-0.483 0.896-0.727 1.725-7.883 2.644-8.321m-67.124 0c0.917 0.438 1.746 7.594 2.644 8.322 0.896 0.732 7.584-0.262 8.423 0.483 0.839 0.748 2.267 6.519 1.741 7.255-0.528 0.736-7.939-0.392-8.55 0.394-0.719 2.341 1.524 6.301 4.275 8.708 1.999 1.748 4.195 2.783 6.937 2.771 4.177-0.026 9.197-5.767 10.785-14.802 1.108-6.317-1.549-18.826-4.199-24.7-5.694-12.626-2.245-11.848-3.819-12.824-6.422-3.987-17.315-7.304-25.574-9.756-7.882-2.338-15.57-3.921-22.897-1.128-12.02 4.582-9.256 19.877-4.68 29.229 6.231 12.716 16.728 31.088 25.197 33.456 4.542 1.269 7.389-0.622 7.375-4.281-9e-3 -2.886-0.485-5.704-2.305-7.09 0 0-8.747-0.055-9.645-0.833-0.897-0.777-1.6-6.035-1.437-7.09 0.165-1.054 9.537 0.857 10.031-0.162 0.498-1.018-2.409-6.988-1.891-8 0.513-1.012 7.589 0.048 7.589 0.048" fill="#093552"/><polyline points="82.595 131.51 19.411 131.51 19.411 142.12 82.595 142.12" fill="#093552"/><polyline points="81.205 131.51 144.39 131.51 144.39 142.12 81.205 142.12" fill="#093552"/></svg>
