<svg id="Layer_1" data-name="Layer 1" xmlns="http://www.w3.org/2000/svg" viewBox="0 0 2011.53083 500"><defs><style>.cls-1{fill:#455a64;}</style></defs><title>cortex</title><path class="cls-1" d="M564.54692,153.09489c-.15186,19.5308-8.68728,33.88615-25.37681,42.53948-16.669,8.64276-33.7854,7.88088-48.93578-3.52032-7.27017-5.47109-13.02613-5.87065-21.08526-2.31259C432.678,205.90312,395.93352,221.38818,359.33916,237.214c-5.2874,2.28663-11.17422,3.578-11.32433,11.86629-.15515,8.56693,5.39485,10.46369,11.30173,12.99829q56.41863,24.20893,112.7595,48.59706c6.06555,2.64066,10.48039,2.63666,16.18338-1.8857,20.61867-16.35011,46.94544-13.63774,64.61038,5.797,16.09162,17.70376,15.49461,46.10428-1.33364,63.44019-17.6706,18.20363-44.09189,19.76981-64.0667,3.29024-4.44327-3.66576-7.9237-4.42594-13.20857-2.13067q-58.73721,25.50988-117.69759,50.50724c-5.98,2.54079-8.17154,6.31406-8.53446,12.85938C346.586,468.578,325.55463,488.2422,300.209,488.00413c-24.93036-.23413-44.68-19.70983-46.00018-46.01345-.30887-6.1538-2.45658-9.59887-8.07759-11.98776Q186.70672,404.748,127.46839,379.05925c-4.85292-2.10542-8.12622-1.62945-12.29791,1.83494-17.366,14.42169-37.5027,15.71189-55.838,4.20055-17.05013-10.7045-25.1406-30.34339-20.7586-50.38977,4.08581-18.6914,21.70848-34.29548,42.04238-36.34689,12.8496-1.29632,24.56209,2.72082,34.29367,11.125,4.44342,3.83734,8.29267,4.16312,13.39047,1.953q59.24082-25.683,118.62394-51.038c5.408-2.30308,7.20072-5.72155,7.23691-11.36427.03586-5.59921-2.71545-8.15725-7.3797-10.14314-39.60593-16.863-79.2267-33.69477-118.67787-50.91218-6.666-2.90921-10.46378.36985-15.13283,3.69766-23.02053,16.40766-54.10106,10.513-68.48257-12.82477-11.47982-18.62906-8.54535-43.29906,6.937-58.31892,16.14545-15.66316,39.81542-18.92954,58.20325-5.805,9.65094,6.88849,17.06288,6.24424,26.95035,1.84493C172.03513,100.7966,207.761,85.61424,243.54863,70.59534c7.43027-3.11824,10.603-7.04394,10.83567-15.55363C255.04983,30.703,276.592,10.87177,301.04,10.79813c24.34251-.07332,46.1765,19.74559,46.79294,44.091.23415,9.248,4.21326,12.88739,11.73087,16.06246,36.4037,15.37505,72.74861,30.89779,108.898,46.85537,8.30683,3.66694,14.43961,3.5929,22.07051-2.1903,14.78238-11.20308,31.6387-11.891,48.00334-3.67721C555.3136,120.36068,564.10823,134.57168,564.54692,153.09489ZM132.18808,154.5553c-1.52692,7.3999,2.2925,10.84236,8.6432,13.53679q57.43221,24.36685,114.62155,49.301c5.0506,2.19455,8.66375,2.11016,13.31317-1.64756,22.30449-18.02672,43.12566-17.77637,64.71806.43713,3.3701,2.84272,6.16942,3.97757,10.37527,2.16146q59.70207-25.77981,119.52256-51.28554c6.63983-2.81889,6.91708-7.81643,7.01154-13.73153.09329-5.8422-1.24232-10.03678-7.17086-12.55913q-59.35319-25.25224-118.54043-50.89126c-4.49129-1.94266-7.53789-1.24057-11.31741,1.99644-20.87885,17.882-43.4206,18.39932-63.97851,1.061-4.879-4.11492-8.51948-4.58987-14.03191-2.19748q-56.745,24.62725-113.70285,48.76482C134.56739,142.49991,130.38094,146.54762,132.18808,154.5553Zm.08635,191.77735c-2.34112,7.60454,2.6063,10.64978,9.166,13.433q56.49663,23.97058,112.734,48.54383c6.49575,2.85351,10.60664,1.99936,15.88084-2.69769,18.23388-16.23842,43.48486-16.4999,61.64026-.38488,5.74283,5.09741,10.24708,5.5994,16.87731,2.70927q56.25837-24.52329,112.80131-48.39289c6.4468-2.714,9.28192-6.13474,9.12088-13.31587-.15742-7.02226-1.5373-11.80686-8.77-14.84774q-57.54982-24.19593-114.75362-49.20528c-6.15668-2.68886-9.97009-1.58014-14.87633,2.74965-18.82377,16.61207-43.38038,16.515-62.33595-.3813-5.15369-4.59378-9.11222-4.69477-14.977-2.14228q-56.75672,24.7018-113.77986,48.79215C134.10969,334.10431,130.75928,338.294,132.27443,346.33265Zm145.63379-96.65093c-.09549,13.41194,9.59437,23.62108,22.73862,23.95727a23.07106,23.07106,0,0,0,23.6892-23.01906c.26856-13.96221-9.69121-24.38638-23.27321-24.35836C287.877,226.28875,278.00365,236.27534,277.90822,249.68172Zm262.68149,96.12146c.17578-13.483-9.3282-23.69511-22.51223-24.18968a23.08229,23.08229,0,0,0-23.90427,22.80227c-.3583,13.99937,9.46466,24.47487,23.04142,24.57208C530.411,369.08233,540.41554,359.1592,540.58971,345.80318ZM324.32411,58.50408c-.0001-13.98479-10.34917-24.55224-23.70362-24.20376-13.15512.34327-22.79832,10.51513-22.71091,23.956.08835,13.58447,9.881,23.531,23.04285,23.40489C314.45191,81.53189,324.32421,71.75022,324.32411,58.50408Zm.00045,382.51921c.01022-13.99576-10.3267-24.57476-23.67736-24.23189-13.16664.33815-22.81924,10.50041-22.73778,23.93833.0823,13.5798,9.87708,23.55179,23.01908,23.43551C314.41592,464.0459,324.31493,454.25439,324.32456,441.02329ZM108.057,153.87622c-.03956-13.39139-9.89716-23.12615-23.35648-23.06536-13.69592.06186-23.61066,9.53385-23.84661,22.78171-.24483,13.74629,9.92141,23.7145,23.992,23.5247C98.42832,176.93405,108.09649,167.25339,108.057,153.87622Zm-.02593,191.7501c.1319-13.25574-9.87576-23.77273-22.84774-24.01044-13.07743-.23968-24.308,10.85911-24.32616,24.04069C60.84,358.08305,71.93241,368.957,84.65756,368.98843,97.81675,369.02091,107.89852,358.944,108.03105,345.62632ZM516.896,130.813c-13.80086.207-22.93714,9.705-22.72022,23.61967.21465,13.76781,9.75116,22.89435,23.68878,22.67033,13.84807-.22259,22.92362-9.66859,22.70877-23.63594C540.36115,139.66874,530.88605,130.60318,516.896,130.813Z"/><path class="cls-1" d="M1631.81972,259.86472c-29.30213,0-58.60685.21627-87.90471-.13479-8.53568-.10228-10.90521,2.22234-9.4873,11.05139,12.61817,78.57293,98.459,98.07649,151.51126,61.96024,2.03723-1.38686,3.83685-3.1251,5.89478-4.47608,7.97677-5.23681,16.1125-4.54857,20.707,2.02674,5.444,7.791,2.15649,14.14857-4.322,19.1973a128.06264,128.06264,0,0,1-62.63566,26.52636c-75.01375,9.91182-134.45489-37.20558-141.19923-112.66855-4.42267-49.48636,9.27581-92.94426,52.58906-121.36832,39.28-25.77735,81.84216-26.207,122.49369-3.28374,40.62423,22.90785,56.85508,60.81645,56.79157,106.26167-.01461,10.46636-5.26485,14.7313-17.59173,14.81266-28.94771.191-57.89763.06113-86.84664.06113Zm-10.70511-25.92266q38.58888,0,77.17775-.00072c5.2871-.00034,10.29261-.1853,8.95852-7.85523-3.78331-21.75023-12.12859-41.24641-29.50883-55.61438-51.77068-42.79781-129.55726-14.23144-142.112,51.90391-1.54519,8.1394.48609,11.77882,9.36519,11.67415C1570.36514,233.75066,1595.741,233.94456,1621.11461,233.94206Z"/><path class="cls-1" d="M881.33071,250.23167c.03143-72.96506,54.93407-127.98678,127.71023-127.98721,72.63892-.00044,127.58354,55.20594,127.58561,128.19361.00206,72.78285-55.02249,127.78438-127.78377,127.73028C936.01029,378.11418,881.29927,323.221,881.33071,250.23167Zm127.23882,100.03309c57.33691.11853,99.69188-42.324,99.4121-99.61768-.27823-56.93815-42.68992-100.47786-97.9817-100.58761-56.90095-.11294-99.99838,43.25149-100.08995,100.71C909.82,307.213,952.39488,350.14864,1008.56953,350.26476Z"/><path class="cls-1" d="M1775.66736,125.99065c6.637-.32522,10.68027,4.57927,14.56873,9.74872,20.333,27.03154,40.8546,53.92514,60.88325,81.17891,5.02634,6.83945,7.633,7.93159,13.55115.47989,21.68754-27.30731,44.12957-54.0188,66.29194-80.951,1.11873-1.35964,2.191-2.77267,3.43251-4.01417,7.27519-7.27519,17.138-8.78132,22.56879-2.90258,6.8385,7.40292,4.54852,15.01683-1.14189,21.86128-18.243,21.94316-36.65712,43.74482-55.00541,65.601-2.03839,2.42821-4.11805,4.82315-6.10924,7.28933-16.79766,20.805-16.79831,20.81283-1.0309,41.78767q30.48864,40.558,60.96978,81.12152a66.45253,66.45253,0,0,1,5.77112,8.81835c2.73429,5.20185,2.24587,10.27286-1.95147,14.586A13.64292,13.64292,0,0,1,1943.934,374.392c-6.21065-1.81708-9.79942-6.62155-13.4253-11.415-22.10689-29.22451-44.38-58.3265-66.1948-87.76618-5.37183-7.24956-8.28151-8.20208-14.32491-.24768-23.656,31.1363-47.99488,61.75793-72.18207,92.49085-6.53984,8.30955-13.96157,9.85274-20.93111,4.854-7.49869-5.37823-8.16962-13.25273-1.86791-22.17185.81243-1.14976,1.6986-2.24977,2.58424-3.34585,23.91505-29.59634,47.56441-59.41307,71.93255-88.63384,6.54748-7.85128,7.24647-13.15932.60729-21.53209-21.45031-27.052-41.9851-54.82625-62.83148-82.35325-2.54027-3.35426-5.27366-6.64638-6.10317-10.97724C1759.42266,134.02683,1765.67819,126.1241,1775.66736,125.99065Z"/><path class="cls-1" d="M760.1422,123.64059c38.98986-.50689,69.00075,12.78552,92.82395,39.58844,9.554,10.74893,9.89054,16.52206,3.00321,22.64136-7.376,6.55346-14.45743,5.57266-23.564-4.31655-15.12746-16.42747-33.22675-26.60773-55.59731-29.859-52.75158-7.6667-96.95985,26.48689-102.09239,79.80393-3.28033,34.076,1.064,66.16678,26.67346,92.02845,32.91928,33.24342,90.95377,36.73341,128.04071,7.65181,3.04357-2.38663,5.74228-5.36218,9.7555-6.07045,6.71828-1.18562,11.81233,1.34485,14.93738,7.348,3.5184,6.75866,1.148,12.1978-4.28336,16.77756-21.2605,17.927-46.10471,27.41033-73.61492,28.69937-81.43659,3.81583-143.312-65.376-131.1939-145.93973,7.24388-48.15966,30.69909-84.00521,77.53054-102.21574A94.73953,94.73953,0,0,1,760.1422,123.64059Z"/><path class="cls-1" d="M1375.21158,232.25785c0-20.40781-.23593-40.81971.12029-61.22133.13569-7.76991-2.67039-10.85888-10.4812-10.4257-7.73774.42915-15.52087.11747-23.28266.01717-8.33765-.10773-13.72526-4.29316-13.98318-12.62539-.26206-8.46475,5.2417-12.80272,13.37718-13.25317a204.49838,204.49838,0,0,1,23.27438-.13306c8.21.48332,11.3-2.5688,11.11877-10.91338-.42776-19.69458-.07826-39.40515-.1397-59.109-.01837-5.89751,1.09351-11.17549,6.18258-14.93383,9.81506-7.24838,22.35122-1.26782,23.27878,12.15475,1.06518,15.41247.42012,30.93937.61466,46.41536.38416,30.57987-3.93684,25.83831,26.35688,26.2676,10.23091.145,20.46985-.106,30.69624.15965,8.54512.222,14.68075,4.3017,14.41766,13.34557-.25973,8.93059-6.31516,12.71-15.0287,12.67987-15.17266-.05246-30.35037.238-45.51656-.07163-7.35655-.15015-11.06961,1.948-11.014,10.063.28185,41.16489-.29285,82.34155.46319,123.49523.51985,28.29576,23.5292,49.87965,52.9947,51.51493,4.22347.23439,8.47475-.02728,12.69849.2044,9.58961.526,16.29281,6.47838,16.042,14.71793-.28612,9.40214-6.319,14.162-14.99171,14.661-32.157,1.85032-60.11336-7.05954-80.165-33.71492a84.01157,84.01157,0,0,1-16.978-51.23862c-.09015-19.35175-.01992-38.70424-.01992-58.05641Z"/><path class="cls-1" d="M1195.938,161.03289c20.02076-22.38043,43.07616-35.74068,72.15555-38.37715a72.91868,72.91868,0,0,1,29.24509,3.12656c7.14545,2.312,12.73251,6.98431,11.15744,15.589-1.55076,8.47182-7.84639,10.97113-15.75965,10.77234-10.50992-.26407-20.77369-2.55679-31.56973-.74285-41.31766,6.94213-64.69281,33.349-65.00324,75.50109-.30565,41.52261-.06675,83.04915-.09391,124.574a87.75225,87.75225,0,0,1-.38,11.59173c-.97193,7.23217-5.43625,11.4974-12.681,11.897-7.64823.42193-12.75489-3.62326-14.86119-10.89658-.76329-2.63537-.6104-5.57948-.61156-8.38282q-.04347-105.57155-.06946-211.143c-.01061-8.80853,1.45077-16.40593,11.7351-18.33244,9.22421-1.7279,15.98821,3.38891,16.63844,12.93485C1196.33441,146.40941,1195.938,153.73458,1195.938,161.03289Z"/></svg>