<?xml version="1.0" encoding="UTF-8" standalone="no"?>
<svg
   xmlns:dc="http://purl.org/dc/elements/1.1/"
   xmlns:cc="http://creativecommons.org/ns#"
   xmlns:rdf="http://www.w3.org/1999/02/22-rdf-syntax-ns#"
   xmlns:svg="http://www.w3.org/2000/svg"
   xmlns="http://www.w3.org/2000/svg"
   height="113.54473"
   width="500"
   version="1.1"
   id="svg2"
   viewBox="0 0 500 113.54473">
  <metadata
     id="metadata12">
    <rdf:RDF>
      <cc:Work
         rdf:about="">
        <dc:format>image/svg+xml</dc:format>
        <dc:type
           rdf:resource="http://purl.org/dc/dcmitype/StillImage" />
        <dc:title></dc:title>
      </cc:Work>
    </rdf:RDF>
  </metadata>
  <defs
     id="defs10" />
  <path
     style="fill:#262626"
     id="path4"
     d="m 129.51179,83.4172 c 9.30714,3.40291 28.7193,6.78583 44.41737,6.78583 16.91482,0 26.32967,-4.68345 27.08366,-11.95203 0.68617,-6.6303 -6.23934,-7.5279 -25.34032,-12.05181 C 149.279,59.72847 132.43997,49.71122 134.09156,33.70198 136.01044,15.11563 160.884,1.06914 199.05006,1.06914 c 18.6063,0 36.64612,1.3125 45.99316,4.37631 l -3.20744,23.4374 c -6.06779,-2.11036 -29.29376,-5.04253 -45.0038,-5.04253 -15.92945,0 -24.17542,5.01062 -24.7459,10.50395 -0.71808,6.95343 7.55981,7.27656 28.25254,12.78585 28.02116,7.10901 40.27243,17.11828 38.66872,32.63683 -1.87898,18.25528 -24.25921,33.77778 -68.94785,33.77778 -18.60231,0 -34.63549,-3.3949 -43.4679,-6.7899 L 129.5078,83.42119 Z M 392.11041,6.89758 c 101.74823,-19.18476 110.52878,15.28717 107.38518,45.78969 l -5.92418,56.42926 -32.29773,0 5.40556,-51.46651 c 1.16888,-11.33373 8.44544,-33.50252 -26.68473,-32.67273 -12.15952,0.29521 -18.18742,1.96275 -18.18742,1.96275 0,0 -1.05718,13.69542 -2.33776,23.81639 l -6.12364,58.3601 -31.6754,0 6.28721,-57.51835 4.15291,-44.7006 z M 263.59766,4.2287 c 7.2606,-0.78989 18.41481,-1.59174 33.76581,-1.59174 25.62755,0 46.34821,4.46008 59.17794,13.83903 11.52123,8.74465 19.18875,22.90283 17.06642,43.41604 -1.95877,19.08902 -11.88426,32.4533 -26.33367,40.7192 -13.22069,7.7952 -29.88019,11.1263 -54.93327,11.1263 -14.77255,0 -28.86291,-0.7978 -39.57829,-2.3856 L 263.60165,4.2287 Z m 21.17544,84.22704 c 2.4694,0.47872 5.71673,0.95345 12.11963,0.95345 25.63553,0 43.71125,-12.59835 45.5264,-30.31104 2.63696,-25.60361 -13.39622,-34.5557 -40.40807,-34.40012 -3.49866,0 -8.36167,0 -10.9348,0.47074 l -6.30715,63.28298 z" />
  <path
     style="fill:#ca0c16"
     id="path6"
     d="m 111.14086,109.99823 c -6.07577,2.1063 -18.662147,3.5425 -36.247187,3.5425 -50.56893,0 -77.8640296,-23.7366 -74.63664955,-55.11678 C 4.1187134,21.03581 44.554713,0 88.828463,0 105.97466,0 116.07169,1.38031 125.53043,3.69413 l -3.03589,25.18872 c -6.2912,-2.11834 -21.03582,-4.06514 -32.971937,-4.06514 -26.05042,0 -48.17532,7.75928 -50.71255,32.30572 -2.26196,21.94937 13.26856,32.4413 42.57429,32.4413 10.20075,0 25.240577,-1.46005 32.194007,-3.57042 l -2.43749,24.00392 z" />
</svg>
