<svg id="Layer_1" data-name="Layer 1" xmlns="http://www.w3.org/2000/svg" viewBox="0 0 800 300"><defs><style>.cls-1{fill:none;}</style></defs><title>d6tflow</title><path class="cls-1" d="M525.00565,72.60162q8.4017-.085,16.80334-.17529a2.14166,2.14166,0,0,0,1.76892-.037c.26923.25861.458.1192.62513-.12652q2.80911-.131,5.61828-.262a.56167.56167,0,0,0,.76337-.27685c7.40967-1.33655,12.687-5.09833,13.92785-12.935,1.0373-6.55011-.564-13.60272-6.59942-16.51892a29.13607,29.13607,0,0,0-8.46826-2.21265.53108.53108,0,0,0-.7594-.24292q-3.44312-.00255-6.88623-.00506c-5.69995-.05029-11.40125-.04694-17.09894-.18781-1.46131-.03613-1.44733.61768-1.44385,1.70282.03137,9.78992.04657,19.58026-.01868,29.36988C523.22849,72.08771,523.7197,72.61469,525.00565,72.60162Z"/><path class="cls-1" d="M309.34067,106.24225c.08466-1.44031-.21826-1.99817-1.83618-1.9082-2.94708.16387-5.9281-.16462-8.86237.089-5.75165.49714-11.56732.74738-16.953,3.27271a11.67831,11.67831,0,0,0-4.25623,18.21783c3.4198,4.14307,8.19837,4.84211,13.21424,4.49994,6.00976-.40991,11.07605-2.92425,15.61859-6.83087,3.68689-3.17065,3.08368-7.27966,3.04553-11.33618C309.31125,110.24451,309.22342,108.23737,309.34067,106.24225Z"/><path class="cls-1" d="M458.47312,104.8504c-1.44336-1.57129-4.83295-.30865-7.37366-.46093a16.00512,16.00512,0,0,0-2.57276.003c-5.7431.58667-11.56372.6958-16.96521,3.1983-5.20129,2.40979-7.38592,5.99152-7.11761,12.06512.20343,4.60364,3.19781,8.29328,8.11688,9.88971,6.83136,2.21717,13.17139.61518,19.11225-2.84778,4.76806-2.77929,8.27264-6.47741,7.18524-12.68511a11.75136,11.75136,0,0,1-.01526-1.999l-.11615-.00036C458.72684,109.548,459.70169,106.18787,458.47312,104.8504Z"/><path class="cls-1" d="M210.78244,53.09137c-4.77856-7.0697-11.4544-11.04407-19.83771-12.55969-7.20739-1.303-14.44262-.56739-21.65747-.90723-1.79382-.08447-1.72076.66852-1.71661,1.99017.0448,14.29865.028,28.59748.028,42.89624h.01685q0,21.44816-.00763,42.89637c-.00085,1.04065-.35437,2.02362,1.43909,1.97094,8.53766-.25061,17.10882.475,25.49939-2.09991,11.45862-3.51654,18.374-12.3291,21.30493-23.25519,2.16705-8.07831,2.18591-16.3753,1.95874-24.65771C217.55478,70.06421,216.15152,61.03467,210.78244,53.09137Z"/><path class="cls-1" d="M560.40451,94.43591a27.34186,27.34186,0,0,0-7.75036-2.59912l-.55231-.04431q-5.15478-.00841-10.30957-.01691c-5.71784-.04718-11.43616-.0653-17.153-.16632-1.1278-.01989-1.40924.25721-1.40381,1.41846q.08186,17.44629.00812,34.89319c-.004,1.11426.23609,1.48413,1.40857,1.46472,6.47913-.10712,12.95966-.13208,19.43976-.18518q2.29275.00924,4.58551.01855l.50134-.07324c11.21588-.87506,17.03266-6.37292,18.69269-14.92694C569.36594,106.51709,566.28031,97.90027,560.40451,94.43591Z"/><path class="cls-1" d="M644.84189,69.10895c-9.06671.34546-15.02545,6.0722-18.10132,12.9704a38.3672,38.3672,0,0,0-2.95617,18.38153,62.85363,62.85363,0,0,0,.08,8.28241,39.36413,39.36413,0,0,0,2.13178,7.95587c3.33636,9.29822,10.79748,14.66339,19.97937,14.663,10.067-.00049,16.47186-5.72394,19.58557-13.88293a47.92394,47.92394,0,0,0,1.20874-31.35309C663.91831,76.58069,657.11612,68.6413,644.84189,69.10895Z"/><path d="M575.1257,81.95416c-1.48156-.89374-1.76532-1.41662-.09839-2.53479a25.14666,25.14666,0,0,0,4.44361-3.99927c8.44922-9.26641,9.18439-20.12628,5.8977-31.49884-3.54327-12.26074-12.53985-18.61547-24.48773-21.6773-4.64148-1.18952-9.37347-1.14044-14.0285-1.909q-7.97553-.1572-15.95117-.31433-12.94392.06015-25.88782.12225c-1.31885.00672-2.67169-.16113-3.85364.65778q.00457,62.90277.00635,125.80566c0,.3794-.04218.75879-.06476,1.13764.09784,1.12567,1.141.782,1.74506,1.121l.57287.04614c8.01685-.25311,16.03339-.27832,24.04962.02729a118.84544,118.84544,0,0,1,14.89118.00042c9.53064-.77032,19.17273-.86981,28.04339-5.25415A35.81777,35.81777,0,0,0,584.589,131.30634c4.10016-6.12653,5.57489-13.02155,5.7157-20.244a34.13728,34.13728,0,0,0-1.80359-12.62519A31.288,31.288,0,0,0,575.1257,81.95416Zm-51.86926-40.6297c-.00348-1.08514-.01746-1.739,1.44385-1.70282,5.69769.14087,11.399.13752,17.09894.18781q3.44312.00248,6.88623.00506a.53108.53108,0,0,1,.7594.24292,29.13607,29.13607,0,0,1,8.46826,2.21265c6.03546,2.9162,7.63672,9.96881,6.59942,16.51892-1.2409,7.83667-6.51818,11.59845-13.92785,12.935a.56167.56167,0,0,1-.76337.27685q-2.8092.131-5.61828.262c-.16712.24572-.3559.38513-.62513.12652a2.14166,2.14166,0,0,1-1.76892.037q-8.4017.08808-16.80334.17529c-1.28595.01307-1.77716-.51391-1.76789-1.90728C523.303,60.90472,523.28781,51.11438,523.25644,41.32446Zm44.615,72.89435c-1.66,8.554-7.47681,14.05188-18.69269,14.92694l-.50134.07324q-2.29266-.00924-4.58551-.01855c-6.4801.0531-12.96063.07806-19.43976.18518-1.17248.01941-1.4126-.35046-1.40857-1.46472q.06289-17.44656-.00812-34.89319c-.00543-1.16125.276-1.43835,1.40381-1.41846,5.71686.101,11.43518.11914,17.153.16632q5.15478.00843,10.30957.01691l.55231.04431a27.34186,27.34186,0,0,1,7.75036,2.59912C566.28031,97.90027,569.36594,106.51709,567.87143,114.21881Z"/><path d="M218.39652,31.697c-10.79761-8.36975-23.32294-11.24756-36.60212-11.50787-10.87158-.21314-21.75073-.04-32.62652-.03742a6.41666,6.41666,0,0,0-3.611.59516q-.02646,61.105-.03309,122.21093c.00306,5.95563-1.33483,5.8736,5.79334,5.80188,12.19263-.12249,24.39246.37,36.57745-.41357q.448-.04522.89594-.09058a1.3508,1.3508,0,0,1,1.38055-.29815,54.20029,54.20029,0,0,0,17.77674-4.69031c14.552-6.5365,23.86016-17.67536,28.67639-32.8208a74.87424,74.87424,0,0,0,3.24176-21.063c.22918-9.33319.18475-18.64905-2.30664-27.75586C234.28574,49.66144,228.35605,39.41705,218.39652,31.697Zm-2.54529,72.32611c-2.931,10.92609-9.84631,19.73865-21.30493,23.25519-8.39057,2.57495-16.96173,1.8493-25.49939,2.09991-1.79346.05268-1.43994-.93029-1.43909-1.97094q.017-21.44824.00763-42.89637h-.01685c0-14.29876.01685-28.59759-.028-42.89624-.00415-1.32165-.07721-2.07464,1.71661-1.99017,7.21485.33984,14.45008-.39575,21.65747.90723,8.38331,1.51562,15.05915,5.49,19.83771,12.55969,5.36908,7.9433,6.77234,16.97284,7.02753,26.274C218.03714,87.64777,218.01828,95.94476,215.85123,104.02307Z"/><path d="M483.0546,141.50494c-1.84864-4.03625-2.17163-8.37317-2.31568-12.64111-.26385-7.81207-.07513-15.63953-.07513-23.46051l-.05872-.00006c0-4.006.07355-8.01379-.01788-12.01782-.12592-5.51331.37262-11.0304-.65869-16.53711-2.29974-12.27906-9.28967-20.75934-21.03888-24.52692-11.546-3.70239-23.37109-3.425-34.53333,1.72992-10.9342,5.04962-18.88824,12.73279-19.8031,25.72882-.17462,2.4809.41956,3.47534,3.02674,3.40717,5.2442-.13709,10.49536-.09845,15.74182-.01435,2.15893.03461,3.17987-.7016,3.07715-2.96991a8.68421,8.68421,0,0,1,3.84076-7.59845c6.35211-4.67718,13.386-4.96875,20.58221-2.51574,5.58673,1.90442,7.66315,6.51379,7.98853,11.98871.3172,5.33691.19232,5.29815-5.091,5.35424-10.07812.10694-20.16913.02765-29.82312,3.715-11.597,4.42956-19.68365,12.74-21.00494,25.91193-1.80658,18.0097,11.2489,30.46209,27.53808,32.781a36.97314,36.97314,0,0,0,26.93036-6.034c2.196-1.51893,3.13831-1.43671,3.65082,1.23315.53009,2.76117,2.15473,3.89355,5.07709,3.76794,4.76178-.20471,9.54938-.24151,14.30578.02,2.83094.15564,3.54505-1.16028,3.40766-3.47308A10.94582,10.94582,0,0,0,483.0546,141.50494ZM458.843,112.01367a11.75136,11.75136,0,0,0,.01526,1.999c1.0874,6.2077-2.41718,9.90582-7.18524,12.68511-5.94086,3.463-12.28089,5.06495-19.11225,2.84778-4.91907-1.59643-7.91345-5.28607-8.11688-9.88971-.26831-6.0736,1.91632-9.65533,7.11761-12.06512,5.40149-2.5025,11.22211-2.61163,16.96521-3.1983a16.00512,16.00512,0,0,1,2.57276-.003c2.54071.15228,5.9303-1.11036,7.37366.46093,1.22857,1.33747.25372,4.69763.25372,7.16291Z"/><path d="M333.54868,141.99481a41.96188,41.96188,0,0,1-2.40485-13.42322c-.11383-14.11126-.08789-28.22393-.0628-42.336a54.06559,54.06559,0,0,0-.93824-10.50312C327.80759,63.743,320.4747,55.94476,309.21817,52.3A46.34061,46.34061,0,0,0,276.274,53.42285c-11.5752,4.89441-20.12519,12.5719-21.27271,26.15412-.20886,2.4721.207,3.72723,3.08325,3.62481,5.14441-.1831,10.30079-.11249,15.4502-.02667,2.206.03674,3.39484-.54877,3.30206-3.04279-.1325-3.5628,1.79-6.10662,4.58368-8.08111,4.53327-3.204,9.65918-3.75873,14.97681-3.19385,6.75439.71753,11.14062,4.08075,12.68158,11.02179,1.37091,6.17487.53741,7.54028-5.56445,7.54059-.57233,0-1.145-.01422-1.71686.00232-8.16657.23614-16.37134.13452-24.28821,2.64874-10.63892,3.37866-18.968,9.18353-22.83545,20.34113-3.93677,11.3576-.14142,24.98339,9.37427,32.33728a34.25253,34.25253,0,0,0,14.35693,6.55475,38.89779,38.89779,0,0,0,31.87946-7.11847,15.19848,15.19848,0,0,1,1.03021,2.55084c.6344,3.21606,2.53418,4.25659,5.74011,4.07532,4.27869-.24189,8.5813-.05469,12.87366-.06141,4.18616-.00653,5.00867-1.0177,4.16247-5.14086A13.13581,13.13581,0,0,0,333.54868,141.99481Zm-27.283-18.41217c-4.54254,3.90662-9.60883,6.421-15.61859,6.83087-5.01587.34217-9.79444-.35687-13.21424-4.49994a11.67831,11.67831,0,0,1,4.25623-18.21783c5.38568-2.52533,11.20135-2.77557,16.953-3.27271,2.93427-.2536,5.91529.07489,8.86237-.089,1.61792-.09,1.92084.46789,1.83618,1.9082-.11725,1.99512-.02942,4.00226-.02942,6.00421C309.3494,116.303,309.95261,120.412,306.26572,123.58264Z"/><path d="M393.743,131.52545c.00171-1.78485-.91143-2.51172-2.55108-1.94452a25.8177,25.8177,0,0,1-6.45728,1.02918c-6.27606.51745-8.063-1.07074-8.08594-7.39929-.0296-8.20411-.0072-16.40845-.00531-24.61268.0019-8.872.07911-17.74523-.0589-26.61511-.03009-1.93316.65857-2.25763,2.28174-2.23279,4.00714.06122,8.01776-.05444,12.023.05115,1.99817.05267,2.74488-.75049,2.71967-2.678-.05347-4.10138-.11621-8.20752.026-12.30475.08093-2.33068-.95209-2.98956-3.06128-2.95043-3.91125.07257-7.8302-.10254-11.73505.07116-1.77233.07886-2.27606-.29168-2.23339-2.12158.131-5.62549-.01386-11.2569.07818-16.88391.03729-2.28424-.732-3.2915-3.13354-3.2428-5.34186.10828-10.68842.09308-16.031.00476-2.10492-.03479-2.83752.72418-2.78815,2.85138.12391,5.33942-.06408,10.68665.08814,16.02466.0708,2.48193-.38812,3.63086-3.26349,3.38477-3.59967-.30817-7.24646-.04041-10.87238-.07752-1.77191-.01813-2.59863.68768-2.57067,2.5376.06329,4.19659.04315,8.395.00872,12.59216-.01629,1.9823.66883,2.91443,2.86554,2.80774,3.52259-.1712,7.06812.10315,10.58759-.09784,2.47809-.14154,3.27637.56079,3.25671,3.15332-.12,15.83521-.08246,31.67182-.04516,47.50781.01074,4.56348.0567,9.14173,1.43127,13.569,2.91382,9.38562,8.696,14.52643,18.056,15.89686a39.40036,39.40036,0,0,0,16.43537-1.16974c1.59948-.45209,3.08575-.97492,3.05853-3.12793C393.70773,140.87457,393.73868,136.19977,393.743,131.52545Z"/><path d="M670.37168,57.25293c-9.18183-6.39-19.50739-8.1153-30.40711-6.74554q-20.72223,2.60421-31.255,20.76129c-5.20038,8.97094-7.28833,18.66522-6.7887,31.34753.18964,2.43146.04224,7.25269,1.19641,12.05194a48.80539,48.80539,0,0,0,12.605,23.50824,38.28573,38.28573,0,0,0,20.518,10.95435c11.65686,2.24218,22.777,1.04925,32.90954-5.32147,14.61682-9.19031,20.0791-23.50983,21.21222-39.89423a65.09264,65.09264,0,0,0-1.92407-19.19013C685.79416,73.332,680.03653,63.97919,670.37168,57.25293Zm-4.81055,60.22626c-3.11371,8.159-9.51856,13.88244-19.58557,13.88293-9.18189.00043-16.643-5.36474-19.97937-14.663a39.36413,39.36413,0,0,1-2.13178-7.95587,62.85363,62.85363,0,0,1-.08-8.28241,38.3672,38.3672,0,0,1,2.95617-18.38153c3.07587-6.8982,9.03461-12.62494,18.10132-12.9704,12.27423-.46765,19.07642,7.47174,21.928,17.01715A47.92394,47.92394,0,0,1,665.56113,117.47919Z"/><path d="M723.59232,13.72052c-5.05274.144-10.11988.20874-15.16626-.02032-2.85944-.12983-3.41065.90771-3.40662,3.56292q.10089,65.238.01843,130.4762.83433.56195,1.66858,1.124l.5727.04828,17.75427-.04431c2.35443-.82739,1.82379-2.84619,1.82464-4.57807q.02692-56.22655.017-112.45306c.00031-4.95972-.11358-9.92346.05347-14.87762C727.01529,14.38708,726.04135,13.6507,723.59232,13.72052Z"/><path d="M45.81687,89.3891c1.37054-.3125,2.0188-.87894,4.12915-.68707l-3.75953,15.65228c-1.501,6.64813-2.90435,13.32019-4.5241,19.93933-3.0362,12.40723-6.202,24.78271-9.29584,37.1759-.183.73322-.18494,1.50983-.30817,2.26014-.58032,3.53338.16876,5.33386,2.547,6.07849,2.96106.92712,5.48572-.25183,6.95172-3.37989,4.702-10.03253,9.30225-20.11309,14.06165-30.11816,4.62121-9.71454,8.78692-19.644,13.78552-29.17993a7.45517,7.45517,0,0,1,.31836-1.05457q11.163-23.90679,22.3277-47.81286c.99218-2.131,1.60913-4.438-.12507-6.451-1.73315-2.01166-4.207-1.68262-6.39935-1.14838C73.91208,53.49323,62.33072,56.45612,50.28018,59.488c2.66376-7.36676,5.1529-14.36365,7.72431-21.33026,2.6214-7.1023,5.436-14.13526,7.95062-21.27442,1.646-4.67315-.27118-7.13641-5.21045-7.13769q-14.44694-.00386-28.8938.03949c-4.33288.00793-5.80566,1.06585-6.8435,5.19958q-2.76966,11.031-5.3982,22.09717C17.36972,46.481,15.3035,55.92383,12.86832,65.27124L10.42545,75.31366Q8.24218,83.38779,6.60379,91.6062c-.83636,4.18549,1.74854,6.789,5.82721,5.97748,3.42035-.6806,6.75574-1.77966,10.16724-2.5152"/><path d="M789.92868,132.133c.0426-2.5896-.93091-3.05915-3.35113-2.33051a22.96031,22.96031,0,0,1-9.32337.7085,4.407,4.407,0,0,1-4.27356-4.42878c-.10516-1.13678-.14508-2.28326-.14636-3.42541q-.02738-24.4563.00134-48.91242c.00306-1.16375-.65075-2.4425.31836-3.53607,3.2143-.891,6.47162-.33252,9.71369-.28772a28.50356,28.50356,0,0,1,3.69915-.12292c2.301.20825,3.3285-.59784,3.25269-3.02985-.12476-4.00061-.11584-8.01031-.00055-12.01153.06079-2.11438-.777-2.91828-2.83227-2.88629-4.00489.06237-8.01685-.10578-12.01484.07067-1.80908.07978-2.24115-.36828-2.20269-2.15435.1231-5.71808.00463-11.44092.06286-17.16108.02069-2.03924-.75219-2.94427-2.85718-2.91754q-8.1534.10364-16.30889.00135c-1.97174-.02222-2.85688.49853-2.78919,2.74829.17188,5.71557.01538,11.44024.0799,17.16027.01892,1.68134-.44538,2.35248-2.27686,2.32624-4.0849-.05841-8.17413.22107-12.26013.18738-1.66266-.01368-2.147.60125-2.129,2.14019.05,4.28992.08508,8.58258-.017,12.87073-.05206,2.18512.87415,2.75818,2.92688,2.67273,3.52289-.14667,7.066.12018,10.582-.0932,2.54053-.15424,3.22132.66284,3.20288,3.19427-.11639,15.92194-.08368,31.84522-.04651,47.768.01044,4.46667.126,8.94391,1.47181,13.269,1.62164,5.21155,4.24322,9.70856,9.05554,12.65186,8.42773,5.15448,17.31445,3.80865,26.22394,1.82544a2.77833,2.77833,0,0,0,2.25262-3.14051C789.84158,140.90607,789.85666,136.51776,789.92868,132.133Z"/><path d="M246.9751,236.44629a18.23378,18.23378,0,0,1,6.58056,6.34375V215.415H268.77v77.49219H254.1875V284.958a21.1642,21.1642,0,0,1-7.31738,7.42285,20.548,20.548,0,0,1-10.21289,2.31641q-10.05616,0-16.9253-8.13379-6.8701-8.13282-6.87011-20.87305,0-14.688,6.76513-23.11133,6.76392-8.42139,18.083-8.42285A18.51027,18.51027,0,0,1,246.9751,236.44629Zm3.68506,40.87793q3.31713-4.7373,3.31689-12.26563,0-10.52783-5.31738-15.05664a11.44782,11.44782,0,0,0-7.58057-2.7373q-6.58154,0-9.66015,4.97461a23.05261,23.05261,0,0,0-3.07959,12.3457q0,7.94971,3.13232,12.71289,3.1311,4.76514,9.502,4.76465Q247.34278,282.0625,250.66016,277.32422Z"/><path d="M314.93848,235.78809a7.65,7.65,0,0,0-1.42139-4.05274,8.23859,8.23859,0,0,0-7.31738-3.58008q-7.31836,0-10.42383,8.21192-1.68531,4.52929-2.31592,13.37207a16.84139,16.84139,0,0,1,6.4751-4.84375,23.70624,23.70624,0,0,1,25.085,5.37011q6.501,6.89649,6.50146,17.63575a29.77,29.77,0,0,1-6.37011,18.84668q-6.37061,8.16065-19.79395,8.15918-14.425,0-21.26855-12.05469-5.31738-9.42334-5.3169-24.32227a110.45949,110.45949,0,0,1,.73731-14.21386,43.43985,43.43985,0,0,1,5.10644-16.21387,26.11391,26.11391,0,0,1,8.55469-8.89649,23.0711,23.0711,0,0,1,12.66064-3.36914q10.6333,0,16.95118,5.44825a20.71913,20.71913,0,0,1,7.10693,14.50293ZM297.145,278.79883a10.57731,10.57731,0,0,0,8.42285,3.89551,9.35664,9.35664,0,0,0,7.87012-3.76368,15.66976,15.66976,0,0,0,2.86914-9.76562q0-6.68554-3.26367-10.23926a10.44756,10.44756,0,0,0-8.002-3.55371,10.68384,10.68384,0,0,0-6.791,2.31641q-4.42236,3.42188-4.42237,11.05468A14.96961,14.96961,0,0,0,297.145,278.79883Z"/><path d="M336.47021,246.73828V236.05176h8.002V220.04785h14.8457v16.00391h9.31836v10.68652h-9.31836v30.32324q0,3.52736.895,4.39551.89428.86865,5.4751.86914c.45508,0,.93847-.00879,1.44726-.02637s1.00879-.04394,1.501-.0791v11.21289l-7.10742.26368q-10.63477.36766-14.52979-3.68555-2.52685-2.57812-2.52685-7.94922V246.73828Z"/><path d="M402.0127,214.59961q1.15722.07909,3.1582.23633V227.0498q-1.2627-.15819-4.23731-.2373-2.97582-.07909-4.10693,1.31641a4.77511,4.77511,0,0,0-1.13184,3.0791v4.84375H405.54v10.58105h-9.84522v46.27442H380.79639V246.63281h-8.42285V236.05176h8.21289v-3.68555q0-9.21093,3.10546-12.68652,3.26369-5.15919,15.74024-5.15918Q400.85523,214.52051,402.0127,214.59961Z"/><path d="M429.49316,292.90723h-15.0039V215.30957h15.0039Z"/><path d="M491.98145,285.8877q-7.26562,8.96777-22.0586,8.96777-14.79345,0-22.05762-8.96777t-7.26464-21.59278a33.43887,33.43887,0,0,1,7.26464-21.51172q7.26563-9.0996,22.05762-9.10058,14.79347,0,22.0586,9.10058a33.43887,33.43887,0,0,1,7.26464,21.51172Q499.24609,276.9204,491.98145,285.8877Zm-12.00293-8.292q3.52587-4.68017,3.52636-13.30078,0-8.62061-3.52636-13.27246-3.52735-4.65234-10.1084-4.65234-6.58008,0-10.13379,4.65234-3.55371,4.65089-3.55371,13.27246,0,8.62208,3.55371,13.30078t10.13379,4.67774Q476.4502,282.27344,479.97852,277.5957Z"/><path d="M537.044,235.52539h15.21386l8.73926,41.3252,8.94922-41.3252H585.582l-16.63574,57.38184H553.52148l-9.00195-41.79981-9.10742,41.79981h-15.583l-16.1084-57.38184h16.1084l8.9502,41.168Z"/></svg>