<svg id="Layer_1" data-name="Layer 1" xmlns="http://www.w3.org/2000/svg" viewBox="0 0 622.03094 500"><defs><style>.cls-1{fill:#b0b3b5;}.cls-2{fill:#6cb6f2;}.cls-3{fill:#fcfdfe;}.cls-4{fill:#2491eb;}.cls-5{fill:#1c71bb;}.cls-6{fill:#43494d;}.cls-7{fill:#434a4e;}.cls-8{fill:#444b4f;}.cls-9{fill:#1e72bc;}.cls-10{fill:#455e65;}</style></defs><path class="cls-1" d="M12.94144,413.99924l.506.02484c.02192.955.06283,1.91011.063,2.86516q.00529,36.33376.01149,72.66755c.00047,1.01581-.242,2.08524.42814,3.01387l-1.00857.0717Z"/><path class="cls-2" d="M298.796,4.48027,298.79277,4H316.059a.26678.26678,0,0,1,.14408.31132Z"/><path class="cls-1" d="M327.04309,494.51047l.047.52955H318.457l.05228-.53567Q322.77616,494.50747,327.04309,494.51047Z"/><path class="cls-3" d="M316.203,4.31132A.26678.26678,0,0,0,316.059,4h4.31654q.0025.18924.00152.37852Q318.29,4.34494,316.203,4.31132Z"/><path class="cls-4" d="M316.203,4.31132q2.087.03361,4.174.0672a205.0776,205.0776,0,0,1,28.13835,4.27387A178.61481,178.61481,0,0,1,477.891,128.79869a166.66372,166.66372,0,0,1,7.57082,39.87742,159.87827,159.87827,0,0,1-10.18213,67.1935c-4.60556,12.33568-9.37942,24.6248-16.36354,35.89662-17.36525,28.02624-40.33388,50.16967-69.278,66.04774a49.92587,49.92587,0,0,1-13.75047,5.45727,15.85281,15.85281,0,0,1-5.48383.196c-3.87326-.54822-5.33324-3.69175-3.32828-7.04748a12.32378,12.32378,0,0,1,4.98369-4.36662,164.89661,164.89661,0,0,0,26.8834-18.3277,170.6374,170.6374,0,0,0,40.87339-49.04937c.15193-.27682.35011-.52826.52666-.79153q.19808-.26456.39627-.52905l-.06341.0607c.47189-.1721.5536-.55551.5384-.99149l-.04306.00884c.74644.07689,1.107-.39653,1.52819-.927a55.06957,55.06957,0,0,0,5.79615-9.30886,117.66719,117.66719,0,0,0,8.88429-23.137c1.51791-5.67384,2.799-11.44169,2.52-17.37433-.15371-3.26765-.79334-6.49316-3.02357-9.10729-2.60062-3.04823-5.08275-3.18845-7.90049-.35028-4.005,4.034-5.36357,9.24861-6.28481,14.63029a154.94847,154.94847,0,0,1-5.61122,19.27647A144.29369,144.29369,0,0,1,412.66,277.37175c-19.7085,23.66187-43.97184,41.397-71.63484,54.63522-9.58463,4.58675-19.379,8.6656-29.73109,11.2521a56.32256,56.32256,0,0,1-17.32436,1.72486,23.61282,23.61282,0,0,1-5.84845-1.18659,12.84145,12.84145,0,0,1-3.21821-1.57554c-4.55264-3.0833-4.83079-8.10995-.61135-11.63932a17.16677,17.16677,0,0,1,7.81162-3.42026A175.56719,175.56719,0,0,0,356.96,299.79388a130.4537,130.4537,0,0,0,14.861-11.69859c.64-.59291,1.35237-1.10771,2.03164-1.65892a.88913.88913,0,0,0,.71509-.51158l-.03771.02935a.7138.7138,0,0,0,.51258-.50927l-.03114.01827c.67323.02467,1.009-.291.98191-.97285l-.01653.01487a2.05094,2.05094,0,0,0,1.76413-.53011c1.64414-1.50635,3.37324-2.92551,4.95243-4.496,2.65615-2.64167,5.33488-5.25363,7.76689-8.12719,3.49876-4.13405,6.95113-8.28988,10.03289-12.74893A161.17624,161.17624,0,0,0,416.23208,230.469a102.16614,102.16614,0,0,0,5.58-15.49317,75.085,75.085,0,0,0,1.8144-11.752,43.60185,43.60185,0,0,0-.64185-10.38,9.58763,9.58763,0,0,0-1.229-3.35435c-2.75483-4.75311-7.611-5.63126-11.538-1.8246a26.00913,26.00913,0,0,0-5.84064,9.22047c-.66738,1.64565-1.72424,3.21612-1.54719,5.13165a21.573,21.573,0,0,0-1.58712,5.24,125.97471,125.97471,0,0,1-27.619,52.53045c-19.31709,22.30992-43.35147,37.47445-71.2744,46.71391a176.10656,176.10656,0,0,1-26.60395,6.99752,147.51273,147.51273,0,0,1-34.13542,1.8746,116.06365,116.06365,0,0,1-21.54648-3.05151,34.91637,34.91637,0,0,1-11.79576-5.13933,13.47679,13.47679,0,0,1-4.35269-4.70719,6.57807,6.57807,0,0,1,1.36908-8.30571,13.30515,13.30515,0,0,1,8.499-3.40587,26.48071,26.48071,0,0,1,8.332.64622,122.40034,122.40034,0,0,0,32.102,3.14426,126.3882,126.3882,0,0,0,44.5153-9.41645c.80868-.335,1.638-.62022,2.45815-.92877.41062.337.73564.30389.94817-.21814l-.02527.02848a5.99687,5.99687,0,0,0,3.02782-.55378q7.04025-2.33337,13.81724-5.35255a121.67556,121.67556,0,0,0,21.99072-12.9698c6.03546-4.37607,11.22351-9.67992,16.429-14.967a85.082,85.082,0,0,0,6.61583-7.84877,129.0713,129.0713,0,0,0,10.2609-15.547,135.04355,135.04355,0,0,0,9.36476-20.414,136.43092,136.43092,0,0,0,5.68426-20.94077,108.69558,108.69558,0,0,0,2.04223-19.17269,65.77942,65.77942,0,0,0-.378-6.66434,41.62928,41.62928,0,0,0-2.48329-11.37624c-2.18731-5.63855-5.7174-10.20225-11.48377-12.49479a25.882,25.882,0,0,0-16.40907-.99447,28.09622,28.09622,0,0,0-11.62293,5.92751,30.81,30.81,0,0,0-8.98183,13.33755c-.88189,2.5599-1.85538,5.09014-2.8508,7.60877A145.03923,145.03923,0,0,1,323.11588,189.01,115.06453,115.06453,0,0,1,303.858,211.71251a120.49936,120.49936,0,0,1-11.59,9.19281,97.85988,97.85988,0,0,1-27.57823,13.02337,82.71645,82.71645,0,0,1-19.66456,3.49959,109.41338,109.41338,0,0,1-16.97232-.291,105.0525,105.0525,0,0,1-20.71136-4.40024,92.9007,92.9007,0,0,1-23.83113-11.5026,95.86055,95.86055,0,0,1-19.54523-17.46777,92.5228,92.5228,0,0,1-11.18136-16.62252,79.59474,79.59474,0,0,1-6.90136-17.79193,77.45678,77.45678,0,0,1-2.09525-10.02519c-.36383-3.0775-.69132-6.1468-.966-9.23441a45.56257,45.56257,0,0,1,.05053-11.88665,2.11383,2.11383,0,0,0-.30778-1.834,132.22827,132.22827,0,0,1,15.73348-44.41025c14.31714-25.04813,34.05227-44.93785,58.17494-60.56615A166.85385,166.85385,0,0,1,280.25,6.52434a144.78071,144.78071,0,0,1,18.546-2.04407ZM312.67571,89.0185c-.84074,2.03917-2.64671,3.322-3.97,4.97955A62.55162,62.55162,0,0,0,301.365,104.862c-.22687.45271-.73351.90008-.36952,1.4884a.66059.66059,0,0,0,.85379-.258,83.22088,83.22088,0,0,1,12.28437-12.03814,73.04355,73.04355,0,0,1,16.37323-10.259,62.79593,62.79593,0,0,1,19.95739-5.38876,91.42538,91.42538,0,0,1,11.68953-.60649,19.4074,19.4074,0,0,0,7.2328-1.33061,6.9673,6.9673,0,0,0,1.65538-.93351,3.07154,3.07154,0,0,0,1.37255-3.9148,10.01729,10.01729,0,0,0-1.01538-2.14383c-1.50109-2.63867-3.83907-4.463-6.12767-6.29012a77.65446,77.65446,0,0,0-15.46809-9.46032,4.35631,4.35631,0,0,0-2.7102-.76073c-1.93351-1.26247-3.81412-2.61621-5.80949-3.772-9.80673-5.68042-20.24567-8.56383-31.649-6.82173a28.18823,28.18823,0,0,0-15.09222,6.72528c-4.93524,4.46448-7.23257,9.99135-5.54519,16.57209,2.0146,7.85672,7.3525,13.23783,14.03086,17.44665C305.92252,85.609,309.358,87.21749,312.67571,89.0185Zm-103.031,57.18608a12.80992,12.80992,0,0,0-.56912-4.51014,17.13642,17.13642,0,0,0-7.80812-9.02511,29.50956,29.50956,0,0,0-17.903-3.58178c-7.28169.81616-13.48,3.51128-18.44022,8.9752-4.00086,4.40711-5.07476,11.61674-2.30007,16.70521a18.4161,18.4161,0,0,0,8.22568,7.73615,28.58019,28.58019,0,0,0,17.38356,2.71744,30.83955,30.83955,0,0,0,13.29564-4.96546C206.44372,156.86944,209.55105,152.38307,209.64471,146.20458Zm31.78359,80.78987a75.411,75.411,0,0,0,7.79707-.91851,97.07407,97.07407,0,0,0,27.03881-8.46023,101.37488,101.37488,0,0,0,24.51052-16.92657c1.97856-1.80559,2.94116-5.33929.18123-7.81414-2.20324-1.9757-5.06961-1.95688-7.48563.421a80.43124,80.43124,0,0,1-16.20078,12.19371,83.16651,83.16651,0,0,1-17.50878,7.631,93.29829,93.29829,0,0,1-20.35152,3.83347,4.67787,4.67787,0,0,0-4.00647,3.32552,4.46355,4.46355,0,0,0,1.00519,5.06071A5.47843,5.47843,0,0,0,241.4283,226.99445Zm10.37586-72.67871a8.93625,8.93625,0,0,0-.60112-3.88827,12.26577,12.26577,0,0,0-7.1267-6.3367,18.75237,18.75237,0,0,0-11.43535-.94595c-4.871,1.156-9.068,3.24582-11.55431,7.97935a9.752,9.752,0,0,0,3.17112,12.24665,18.70536,18.70536,0,0,0,13.71639,3.27967,19.18427,19.18427,0,0,0,9.20561-3.6085C249.99327,160.92637,252.09584,158.24887,251.80416,154.31574Zm-43.68822,35.75584a23.11489,23.11489,0,0,0,5.21612-.4374,17.1237,17.1237,0,0,0,9.55654-5.9763,8.819,8.819,0,0,0,1.70308-8.55826c-1.58069-4.61287-5.28717-7.1336-9.73329-8.406-5.41119-1.54855-10.59809-.42629-15.41327,2.32845a12.48745,12.48745,0,0,0-6.08956,6.80787,10.13172,10.13172,0,0,0,4.14466,11.30284A16.05935,16.05935,0,0,0,208.11594,190.07158Zm17.91831,36.93373c.39856,0,.79717.00465,1.19566-.00075a5.20031,5.20031,0,0,0,5.3505-4.95516,5.30783,5.30783,0,0,0-5.01583-5.12154,96.05966,96.05966,0,0,1-11.50954-1.74838,7.88352,7.88352,0,0,0-4.70095.13781,5.38737,5.38737,0,0,0-3.15506,4.69132,5.25587,5.25587,0,0,0,3.98794,4.83758A89.71594,89.71594,0,0,0,226.03425,227.00531ZM194.21,215.22381a5.36265,5.36265,0,0,0,5.59917,5.51243,5.18812,5.18812,0,0,0,5.01633-5.054c.20094-3.31592-2.59786-5.24241-5.70356-5.45723C196.91205,210.07215,193.85967,212.24335,194.21,215.22381Z"/><path class="cls-5" d="M142.56393,136.37189a2.11383,2.11383,0,0,1,.30778,1.834,45.56257,45.56257,0,0,0-.05053,11.88665c.27465,3.08761.60214,6.15691.966,9.23441a77.45678,77.45678,0,0,0,2.09525,10.02519,79.59474,79.59474,0,0,0,6.90136,17.79193,92.5228,92.5228,0,0,0,11.18136,16.62252,95.86055,95.86055,0,0,0,19.54523,17.46777,92.9007,92.9007,0,0,0,23.83113,11.5026,105.0525,105.0525,0,0,0,20.71136,4.40024,109.41338,109.41338,0,0,0,16.97232.291,82.71645,82.71645,0,0,0,19.66456-3.49959A97.85988,97.85988,0,0,0,292.268,220.90532a120.49936,120.49936,0,0,0,11.59-9.19281A115.06453,115.06453,0,0,0,323.11588,189.01a145.03923,145.03923,0,0,0,14.02049-27.41293c.99542-2.51863,1.96891-5.04887,2.8508-7.60877a30.81,30.81,0,0,1,8.98183-13.33755,28.09622,28.09622,0,0,1,11.62293-5.92751,25.882,25.882,0,0,1,16.40907.99447c5.76637,2.29254,9.29646,6.85624,11.48377,12.49479a41.62928,41.62928,0,0,1,2.48329,11.37624,65.77942,65.77942,0,0,1,.378,6.66434,108.69558,108.69558,0,0,1-2.04223,19.17269,136.43092,136.43092,0,0,1-5.68426,20.94077,135.04355,135.04355,0,0,1-9.36476,20.414,129.0713,129.0713,0,0,1-10.2609,15.547,85.082,85.082,0,0,1-6.61583,7.84877c-5.20546,5.28708-10.39351,10.59093-16.429,14.967a121.67556,121.67556,0,0,1-21.99072,12.9698q-6.79176,3.01621-13.81724,5.35255a5.99687,5.99687,0,0,1-3.02782.55378c.61179-.82443,1.61628-.96524,2.459-1.35652,20.931-9.71836,38.09051-23.90419,50.84741-43.19775a104.67749,104.67749,0,0,0,16.36776-44.08511c.42379-3.08745.75367-6.17988.87106-9.2951a6.08418,6.08418,0,0,0-.684-3.23785,5.57333,5.57333,0,0,0-5.03729-3.13569,5.4755,5.4755,0,0,0-5.09423,3.02637,25.44591,25.44591,0,0,0-1.18519,2.8745c-5.7676,14.897-12.8877,29.06362-22.87244,41.63056-18.4217,23.18593-42.32371,37.64876-71.394,42.64561-33.43806,5.74764-63.21093-3.19838-88.8129-25.36164-19.93713-17.25926-31.45178-39.33567-35.70424-65.26048A121.499,121.499,0,0,1,142.56393,136.37189Z"/><path class="cls-6" d="M589.15508,464.695a5.06147,5.06147,0,0,0,1.48446,2.05472q10.086,11.39812,20.19616,22.77493c.37113.41824.736.842,1.10578,1.26143.38588.43768.71855.92728.38167,1.50211-.29127.497-.85719.28443-1.30068.2858-4.87427.01516-9.74953-.04387-14.62227.04423a3.32637,3.32637,0,0,1-2.74515-1.55593c-6.65567-7.6584-13.36017-15.27485-19.96467-22.97694a4.5617,4.5617,0,0,0-4.05988-1.86576c-3.18887.15333-6.39051.0413-9.58676.04375-2.50124.00191-2.26536-.15974-2.26746,2.37732q-.0087,10.54579-.00235,21.09162c0,.55923-.02025,1.11907-.00082,1.67757.02711.77581-.26609,1.17807-1.10378,1.17477-4.23493-.01648-8.47-.01083-12.705-.006-.67839.00079-1.03874-.28964-1.03388-.99091.00439-.63907-.008-1.27823-.008-1.91733q-.00087-36.55086-.00052-73.10168c0-.23968-.00252-.47939.00047-.719.02529-2.04757.0257-2.07523,2.12572-2.07207,9.82838.01475,19.65677.05584,29.48516.06691,4.31011.00485,8.62215-.23239,12.89853.622,14.23545,2.84435,22.95507,14.64523,20.97314,29.57436-1.47544,11.11322-7.51086,17.55943-18.42383,20.35646C589.7546,464.45538,589.53868,464.55531,589.15508,464.695Zm-18.6123-11.83149v-.03374c3.75409,0,7.514.13384,11.261-.02956,6.58132-.287,11.34722-4.73312,11.9427-10.91221.65057-6.7509-2.79082-12.02876-8.96219-13.72646a16.28573,16.28573,0,0,0-4.25917-.58607c-7.0292-.02649-14.05864.005-21.08772-.03641-1.19108-.007-1.69821.29449-1.68937,1.59684q.07507,11.14055.00023,22.28182c-.00767,1.19438.42423,1.4817,1.532,1.466C563.03373,452.83067,566.78852,452.86348,570.54278,452.86348Z"/><path class="cls-7" d="M13.95,492.57066c-.67011-.92863-.42767-1.99806-.42814-3.01387q-.01682-36.33376-.01149-72.66755c-.00014-.955-.04105-1.91013-.063-2.86513a5.61708,5.61708,0,0,1,1.16123-.23818c11.184.071,22.37652-.35248,33.55068.18108,18.35385.87638,31.76841,12.96335,34.873,31.08091a44.41268,44.41268,0,0,1-2.46122,24.92014c-4.95308,12.01184-14.006,19.10565-26.65856,21.69437a49.32022,49.32022,0,0,1-10.00187.926Q28.93038,492.56067,13.95,492.57066Zm14.30676-39.51494q0,11.73576.00594,23.47157c.00291,1.691.03752,1.72489,1.69136,1.73124,4.711.01815,9.42229-.01033,14.13328.01358a31.87243,31.87243,0,0,0,5.95621-.48611c7.67908-1.41413,13.34224-5.50858,16.56343-12.68788a29.40784,29.40784,0,0,0,2.0572-16.62739c-1.82621-12.542-10.677-20.41512-23.35763-20.59673-5.02951-.07206-10.06087-.025-15.09135-.01384-1.92791.00427-1.95182.02757-1.95437,1.96349Q28.24553,441.4397,28.25677,453.05572Z"/><path class="cls-8" d="M489.83027,413.76837q13.30536,0,26.61071.00017c.55936,0,1.12041.03065,1.67778-.00243.91263-.05417,1.27878.32678,1.272,1.25734-.029,3.99468-.02178,7.98974-.00538,11.98456.00322.78831-.29514,1.19459-1.10877,1.18153-.639-.01024-1.27843.00533-1.9177.00533q-18.93916.00075-37.87833.00047a14.85145,14.85145,0,0,1-1.67693-.00884c-1.28438-.14681-1.615.43741-1.60085,1.64921.05506,4.71333.01683,9.42769.02392,14.14166.00374,2.4943-.22968,2.358,2.29749,2.35882q16.30206.00515,32.60414.00161c1.91788,0,3.836-.01785,5.75358.00533,1.89018.02291,1.92262.04091,1.9348,1.81033q.03547,5.15313-.00141,10.3067c-.01258,1.63744-.05087,1.6771-1.79481,1.68076q-11.50737.02415-23.01468.00723c-5.35411.00012-10.70826-.011-16.06231.00735-1.66959.00573-1.70471.04217-1.712,1.74634-.01976,4.634-.00562,9.26815-.00744,13.90223-.00088,2.20662-.126,2.08516,2.07678,2.08524q18.81928.00079,37.63849.01827c1.40805.00345,3.20667-.64985,4.13054.3715.89009.98394.27629,2.7506.29754,4.17087.043,2.87567-.0274,5.75324.03121,8.62838.02324,1.13765-.35673,1.64107-1.5118,1.51369a10.99388,10.99388,0,0,0-1.19793-.00585q-26.73059.00009-53.46115-.00021c-.55936,0-1.11959-.025-1.67787-.00149-.83933.0353-1.135-.399-1.1029-1.17415.01651-.39873-.00167-.79879-.00167-1.19828q-.00045-37.03272-.00012-74.06542c0-.39948.02441-.80058-.00287-1.19816-.0548-.79864.28565-1.19206,1.09916-1.17482.559.01185,1.11869-.00489,1.678-.005Q476.52491,413.768,489.83027,413.76837Z"/><path class="cls-7" d="M257.424,432.71919a29.5363,29.5363,0,0,0-14.18523-6.89622c-13.99215-2.64407-27.91416,4.19025-31.68205,20.60416a33.01311,33.01311,0,0,0-.08552,14.72761,23.71833,23.71833,0,0,0,21.09752,19.01407,39.59851,39.59851,0,0,0,8.8404.1599,26.64692,26.64692,0,0,0,12.761-5.03962,2.91862,2.91862,0,0,0,1.43455-2.75423c-.10568-3.35166-.02665-6.70893-.03857-10.06389-.00748-2.10486-.02137-2.12789-2.06973-2.1336-5.03337-.014-10.06679-.00448-15.1002-.00483-.55926,0-1.12058-.03363-1.67732.00313-.91656.0605-1.28921-.32985-1.28295-1.252q.03663-5.39173-.00208-10.78374c-.008-.92037.32731-1.302,1.25278-1.25327.87637.04613,1.75715.007,2.636.007q13.9019-.00026,27.80381.00384c1.95772.00181,1.984.02417,1.98585,1.92693.0096,9.82539-.01946,19.65086.03355,29.476a4.25778,4.25778,0,0,1-1.2753,3.17266c-8.70628,9.29776-19.54691,13.171-32.10456,12.68846a51.96484,51.96484,0,0,1-13.214-2.04058c-12.223-3.71695-20.43782-11.6066-24.20054-23.79136a46.59584,46.59584,0,0,1,2.65434-35.41861c6.18031-12.50946,16.6044-19.20595,30.32237-21.02708a42.4452,42.4452,0,0,1,25.99217,4.48314,39.64219,39.64219,0,0,1,8.39406,5.92287c1.27857,1.17615,1.32023,1.25169.13533,2.38823C263.14223,427.43507,260.37358,429.96824,257.424,432.71919Z"/><path class="cls-7" d="M184.21384,492.58362c-5.28091,0-10.07322-.03541-14.86428.02684a1.84434,1.84434,0,0,1-1.93668-1.35813c-1.75978-4.02129-3.60263-8.0066-5.32979-12.04155a2.14883,2.14883,0,0,0-2.32357-1.49444q-18.93963.063-37.87951-.00076a2.1782,2.1782,0,0,0-2.33772,1.50421c-1.72531,3.949-3.59807,7.83391-5.3,11.79254a2.27269,2.27269,0,0,1-2.51009,1.60475c-4.15364-.08968-8.31045-.03021-12.466-.03732-.45843-.00079-.91676-.05857-1.34362-.08775-.30814-.996.28675-1.65123.59724-2.34521q16.62225-37.1545,33.24785-74.30753c.67631-1.51665,1.41894-2.18072,3.16254-2.11428,3.91014.149,7.83306.13879,11.74425.00392a2.90358,2.90358,0,0,1,3.188,2.07714q15.43968,34.66688,30.99284,69.28332C181.9244,487.47616,182.99436,489.86258,184.21384,492.58362Zm-57.95747-28.78068h29.10644c-4.8018-11.12985-9.55127-22.079-14.56015-33.42091C135.84419,441.77438,131.1123,452.64617,126.25637,463.80294Z"/><path class="cls-7" d="M327.04309,494.51047q-4.26689-.003-8.53377-.00612a55.5649,55.5649,0,0,1-11.96245-2.30239,27.997,27.997,0,0,1-16.9823-15.2091c-.79875-1.72042-.79735-1.73509.92917-2.63473,3.11362-1.62237,6.24874-3.204,9.34432-4.85985.86694-.46373,1.35317-.50172,1.862.4992,3.66483,7.20936,10.10189,10.14174,17.66659,11.05992a30.97588,30.97588,0,0,0,12.58955-.87278,17.26547,17.26547,0,0,0,5.75636-2.8478c4.3938-3.3886,5.78212-11.5804-.93965-15.61717-3.786-2.27371-8.015-3.06682-12.309-3.60834-5.54571-.69942-11.07766-1.448-16.39937-3.27485a34.37389,34.37389,0,0,1-4.84452-2.044c-8.09092-4.24943-11.42444-11.12455-10.88952-20.18243.44759-7.5787,4.42213-12.983,10.89865-16.67542a37.68944,37.68944,0,0,1,15.97918-4.58458,44.6045,44.6045,0,0,1,21.35159,3.12289A25.27885,25.27885,0,0,1,352.88974,425.391a8.829,8.829,0,0,1,.43538.85332,3.67913,3.67913,0,0,1,.1178.65675c-3.55134,1.83061-7.16231,3.67931-10.75794,5.55728-.63444.33132-.96793.12541-1.40679-.36445-7.16176-7.99422-16.15717-9.24248-26.05034-6.9376a12.62324,12.62324,0,0,0-5.44773,2.89668c-3.50634,3.07106-4.83685,10.10551,1.75,13.309a35.40727,35.40727,0,0,0,11.07605,2.84288c5.69919.75191,11.39589,1.48964,16.87954,3.33187a32.07575,32.07575,0,0,1,7.55153,3.56874,19.43261,19.43261,0,0,1,8.75909,13.95892,27.69517,27.69517,0,0,1-.11244,9.3059,21.5335,21.5335,0,0,1-10.42047,14.81817,37.36464,37.36464,0,0,1-14.65289,4.887C329.42419,494.24082,328.23238,494.36656,327.04309,494.51047Z"/><path class="cls-7" d="M414.78767,459.91254q0,14.85894-.00009,29.71791c0,.5592-.02865,1.12.00419,1.67725.05331.90436-.3189,1.29026-1.24892,1.28464q-6.23205-.03784-12.46444-.00377c-.81389.00372-1.16774-.326-1.14134-1.13049.021-.63831-.00108-1.278-.00111-1.91707q-.00048-29.35841-.00029-58.71682c0-.5592.00948-1.11864-.00226-1.6776-.03767-1.79631-.0406-1.83018-1.87318-1.8343-6.79156-.01531-13.58317-.00606-20.37476-.00671-.5593-.00005-1.11875-.01554-1.67781-.0057-.69668.01226-1.01447-.31645-1.01342-1.01263q.00857-5.75173-.00351-11.50345c-.00179-.70364.32511-1.01535,1.01207-1.0051.47924.00717.95873-.00708,1.43812-.00711q29.843-.0007,59.68606-.00217c3.092-.00053,2.58186.0262,2.6,2.55869q.03262,4.55334-.00047,9.107c-.01218,1.82669-.0365,1.86052-1.85073,1.86459-6.79155.01522-13.58317.006-20.37476.00664-.5593.00006-1.119.02073-1.67775.004-.67876-.02034-1.04787.24773-1.03025.96714.01364.55876-.00492,1.11829-.005,1.67746Q414.78733,444.93377,414.78767,459.91254Z"/><path class="cls-9" d="M402.82982,202.017c-.17705-1.91553.87981-3.486,1.54719-5.13165a26.00913,26.00913,0,0,1,5.84064-9.22047c3.927-3.80666,8.78312-2.92851,11.538,1.8246a9.58763,9.58763,0,0,1,1.229,3.35435,43.60185,43.60185,0,0,1,.64185,10.38,75.085,75.085,0,0,1-1.8144,11.752,102.16614,102.16614,0,0,1-5.58,15.49317,161.17624,161.17624,0,0,1-15.73893,28.13393c-3.08176,4.459-6.53413,8.61488-10.03289,12.74893-2.432,2.87356-5.11074,5.48552-7.76689,8.12719-1.57919,1.57053-3.30829,2.98969-4.95243,4.496a2.05094,2.05094,0,0,1-1.76413.53011c3.11949-3.51149,6.45429-6.82431,9.4615-10.442a127.33314,127.33314,0,0,0,27.07739-57.60444,80.71437,80.71437,0,0,0,1.48-9.68055c.2531-3.375-.85821-5.539-3.41847-6.73018-2.50077-1.16349-4.97728-.60253-7.37735,1.66832C403.08473,201.82523,402.95355,201.91715,402.82982,202.017Z"/><path class="cls-9" d="M442.69072,216.8592c.92124-5.38169,2.27985-10.5963,6.28481-14.6303,2.81774-2.83817,5.29987-2.698,7.90049.35028,2.23023,2.61413,2.86986,5.83964,3.02357,9.10729.279,5.93264-1.00209,11.70049-2.52,17.37433a117.66719,117.66719,0,0,1-8.88429,23.137,55.06957,55.06957,0,0,1-5.79615,9.30886c-.42115.53043-.78175,1.00385-1.52819.927,1.0686-2.31114,2.14648-4.61815,3.20471-6.93415a122.07889,122.07889,0,0,0,9.64956-31.48459c.17707-1.10248.26656-2.21892.40058-3.32842a6.26388,6.26388,0,0,0-3.43448-6.53079,6.14911,6.14911,0,0,0-7.38962,1.60825C443.28333,216.11568,442.99367,216.49345,442.69072,216.8592Z"/><path class="cls-9" d="M375.99334,284.49029c.02711.68186-.30868.99752-.98191.97285A1.37254,1.37254,0,0,1,375.99334,284.49029Z"/><path class="cls-5" d="M302.13858,283.991c-.21253.522-.53755.55516-.94817.21814Q301.66406,284.1002,302.13858,283.991Z"/><path class="cls-9" d="M441.214,262.42474c.0152.436-.06651.81939-.5384.99149A.9399.9399,0,0,1,441.214,262.42474Z"/><path class="cls-9" d="M375.04257,285.44487a.7138.7138,0,0,1-.51258.50927A.49184.49184,0,0,1,375.04257,285.44487Z"/><path class="cls-9" d="M374.5677,285.92479a.88913.88913,0,0,1-.71509.51158A.83815.83815,0,0,1,374.5677,285.92479Z"/><path class="cls-9" d="M440.739,263.35553q-.19817.26451-.39627.52905A.45877.45877,0,0,1,440.739,263.35553Z"/><path class="cls-5" d="M209.64471,146.20458c-.09366,6.17849-3.201,10.66486-8.11562,14.05151a30.83955,30.83955,0,0,1-13.29564,4.96546,28.58019,28.58019,0,0,1-17.38356-2.71744,18.4161,18.4161,0,0,1-8.22568-7.73615c-2.77469-5.08847-1.70079-12.2981,2.30007-16.70521,4.96024-5.46392,11.15853-8.159,18.44022-8.9752a29.50956,29.50956,0,0,1,17.903,3.58178,17.13642,17.13642,0,0,1,7.80812,9.02511A12.80992,12.80992,0,0,1,209.64471,146.20458Zm-4.3248.883c-3.53426-8.059-9.67589-12.59445-18.38717-13.54456-5.423-.59147-12.9974,2.05429-14.94366,5.21306C184.86823,134.739,195.41443,139.51687,205.31991,147.08756Z"/><path class="cls-3" d="M303.02814,83.11629c-6.67836-4.20882-12.01626-9.58993-14.03086-17.44665-1.68738-6.58074.61-12.10761,5.54519-16.57209a28.18823,28.18823,0,0,1,15.09222-6.72528c11.40333-1.7421,21.84227,1.14131,31.649,6.82173,1.99537,1.15577,3.876,2.50951,5.80938,3.77178.64925.57962,1.28094,1.18077,1.95087,1.7358A64.86826,64.86826,0,0,1,360.10248,65.872c.48044.64947,1.30964,1.22492.97575,2.33217a84.104,84.104,0,0,0-13.21668,1.87274c-5.319-9.69433-18.24611-17.01549-26.14875-17.06487.45368.72673.90244,1.36782,1.27223,2.0516a6.00741,6.00741,0,0,1-1.25733,7.627c-2.885,2.46606-6.22573,2.74248-9.677,1.48741-3.30916-1.20342-5.52276-3.43674-5.92958-7.12392-.04508-.40849.2726-.96995-.52305-1.24312a14.86936,14.86936,0,0,0-5.90789,7.48872,19.60868,19.60868,0,0,0-.16463,12.23786A31.964,31.964,0,0,0,303.02814,83.11629Z"/><path class="cls-10" d="M303.02814,83.11629a31.964,31.964,0,0,1-3.50254-7.57871,19.60868,19.60868,0,0,1,.16463-12.23786,14.86936,14.86936,0,0,1,5.90789-7.48872c.79565.27317.478.83463.52305,1.24312.40682,3.68718,2.62042,5.9205,5.92958,7.12392,3.45122,1.25507,6.79191.97865,9.677-1.48741a6.00741,6.00741,0,0,0,1.25733-7.627c-.36979-.68378-.81855-1.32487-1.27223-2.0516,7.90264.04938,20.82971,7.37054,26.1489,17.06508A73.61888,73.61888,0,0,0,316.503,86.24024c-1.19711,1.029-2.27,2.24061-3.82727,2.77826C309.358,87.21749,305.92252,85.609,303.02814,83.11629Z"/><path class="cls-2" d="M241.4283,226.99445a5.47843,5.47843,0,0,1-5.02036-1.654,4.46355,4.46355,0,0,1-1.00519-5.06071,4.67787,4.67787,0,0,1,4.00647-3.32552,93.29829,93.29829,0,0,0,20.35152-3.83347,83.16651,83.16651,0,0,0,17.50878-7.631A80.43124,80.43124,0,0,0,293.4703,193.296c2.416-2.37789,5.28239-2.39671,7.48563-.421,2.75993,2.47485,1.79733,6.00855-.18123,7.81414a101.37488,101.37488,0,0,1-24.51052,16.92657,97.07407,97.07407,0,0,1-27.03881,8.46023A75.411,75.411,0,0,1,241.4283,226.99445Z"/><path class="cls-5" d="M312.67571,89.0185c1.55731-.53765,2.63016-1.7493,3.82727-2.77826A73.61888,73.61888,0,0,1,347.8617,70.07711a84.07538,84.07538,0,0,1,13.21653-1.873c.33389-1.10725-.49531-1.6827-.97575-2.33217a64.86826,64.86826,0,0,0-11.05854-11.17041c-.66993-.555-1.30162-1.15618-1.95087-1.7358a4.35787,4.35787,0,0,1,2.71031.76093A77.65446,77.65446,0,0,1,365.27147,63.187c2.2886,1.82712,4.62658,3.65145,6.12767,6.29012a10.01729,10.01729,0,0,1,1.01538,2.14383,3.07154,3.07154,0,0,1-1.37255,3.9148,6.9673,6.9673,0,0,1-1.65538.93351,19.4074,19.4074,0,0,1-7.2328,1.33061,91.42538,91.42538,0,0,0-11.68953.60649,62.79593,62.79593,0,0,0-19.95739,5.38876,73.04355,73.04355,0,0,0-16.37323,10.259,83.22088,83.22088,0,0,0-12.28437,12.03814.66059.66059,0,0,1-.85379.258c-.364-.58832.14265-1.03569.36952-1.4884a62.55162,62.55162,0,0,1,7.34073-10.86391C310.029,92.34047,311.835,91.05767,312.67571,89.0185Z"/><path class="cls-5" d="M251.80416,154.31574c.29168,3.93313-1.81089,6.61063-4.62436,8.72625a19.18427,19.18427,0,0,1-9.20561,3.6085,18.70536,18.70536,0,0,1-13.71639-3.27967,9.752,9.752,0,0,1-3.17112-12.24665c2.48633-4.73353,6.68326-6.82333,11.55431-7.97935a18.75237,18.75237,0,0,1,11.43535.94595,12.26577,12.26577,0,0,1,7.1267,6.3367A8.93625,8.93625,0,0,1,251.80416,154.31574Zm-2.66686-.10474c-3.71467-9.06767-15.7472-10.49178-20.65477-4.96565C236.47091,146.78115,242.93777,149.88988,249.1373,154.211Z"/><path class="cls-5" d="M208.11594,190.07158a16.05935,16.05935,0,0,1-10.61572-2.93878A10.13172,10.13172,0,0,1,193.35556,175.83a12.48745,12.48745,0,0,1,6.08956-6.80787c4.81518-2.75474,10.00208-3.877,15.41327-2.32845,4.44612,1.27238,8.1526,3.79311,9.73329,8.406a8.819,8.819,0,0,1-1.70308,8.55826,17.1237,17.1237,0,0,1-9.55654,5.9763A23.11489,23.11489,0,0,1,208.11594,190.07158Zm14.02718-12.23389c-1.8548-4.81623-5.53516-7.33888-10.42037-8.15866a11.59565,11.59565,0,0,0-10.00056,2.88609C209.57891,170.39887,216.02811,173.38492,222.14312,177.83769Z"/><path class="cls-2" d="M226.03425,227.00531a89.71594,89.71594,0,0,1-13.84728-2.15912,5.25587,5.25587,0,0,1-3.98794-4.83758,5.38737,5.38737,0,0,1,3.15506-4.69132,7.88352,7.88352,0,0,1,4.70095-.13781,96.05966,96.05966,0,0,0,11.50954,1.74838,5.30783,5.30783,0,0,1,5.01583,5.12154,5.20031,5.20031,0,0,1-5.3505,4.95516C226.83142,227.01,226.43281,227.00531,226.03425,227.00531Z"/><path class="cls-2" d="M194.21,215.22381c-.35028-2.98046,2.7021-5.15166,4.91194-4.99882,3.1057.21482,5.9045,2.14131,5.70356,5.45723a5.18812,5.18812,0,0,1-5.01633,5.054A5.36265,5.36265,0,0,1,194.21,215.22381Z"/><path class="cls-2" d="M205.31991,147.08756c-9.90548-7.57069-20.45168-12.34857-33.33083-8.3315,1.94626-3.15877,9.52065-5.80453,14.94366-5.21306C195.644,134.49311,201.78565,139.02852,205.31991,147.08756Z"/><path class="cls-2" d="M249.1373,154.211c-6.19953-4.32112-12.66639-7.42985-20.65477-4.96565C233.3901,143.71922,245.42263,145.14333,249.1373,154.211Z"/><path class="cls-2" d="M222.14312,177.83769c-6.115-4.45277-12.56421-7.43882-20.42093-5.27257a11.59565,11.59565,0,0,1,10.00056-2.88609C216.608,170.49881,220.28832,173.02146,222.14312,177.83769Z"/></svg>