<?xml version="1.0" encoding="utf-8"?>
<!-- Generator: Adobe Illustrator 25.2.0, SVG Export Plug-In . SVG Version: 6.00 Build 0)  -->
<svg version="1.1" id="Layer_1" xmlns="http://www.w3.org/2000/svg" xmlns:xlink="http://www.w3.org/1999/xlink" x="0px" y="0px"
	 viewBox="0 0 1000 575" style="enable-background:new 0 0 1000 575;" xml:space="preserve">
<style type="text/css">
	.st0{fill:#1A65D3;}
	.st1{fill:#0B386D;}
	.st2{fill:#FFFFFF;}
</style>
<g>
	<polygon class="st0" points="295.7,1.43 283.71,8.22 388.91,193.8 404.76,193.8 	"/>
	<polygon class="st0" points="534.52,450.67 546.51,443.88 513.45,385.55 497.6,385.55 	"/>
	<polygon class="st0" points="465.48,124.33 453.49,131.12 489.02,193.8 504.87,193.8 	"/>
	<polygon class="st0" points="704.3,573.57 716.29,566.78 613.56,385.55 597.71,385.55 	"/>
	<path class="st1" d="M103.08,252.38c-9.02-13.08-23-24.8-44.64-24.8c-27.95,0-55.68,22.54-55.68,60.64v0.45
		c0,38.32,27.73,60.41,55.68,60.41c21.42,0,35.17-11.95,44.64-25.92v23.45h17.35V182.04h-17.35V252.38z M103.75,288.44
		c0,26.83-20.51,45.08-42.16,45.08c-22.09,0-41.02-17.58-41.02-45.08v-0.45c0-28.18,18.48-44.86,41.02-44.86
		c21.64,0,42.16,18.03,42.16,44.86V288.44z"/>
	<path class="st1" d="M203.14,228.48c-16.91,0-29.53,3.83-42.38,9.7l5.18,14.2c10.82-4.96,21.64-8.57,35.4-8.57
		c21.87,0,34.71,10.82,34.71,31.79v4.06c-10.37-2.93-20.96-4.96-35.84-4.96c-29.53,0-49.82,13.08-49.82,37.65v0.45
		c0,23.89,21.87,36.29,43.51,36.29c20.51,0,34.04-9.47,42.16-20.06v17.58h16.69v-71.23c0-14.88-4.06-26.15-11.95-34.04
		C232.23,232.76,219.6,228.48,203.14,228.48z M236.28,303.77c0,18.49-17.58,31.56-39,31.56c-15.78,0-29.31-8.56-29.31-23.22v-0.45
		c0-14.65,12.17-24.12,34.04-24.12c14.2,0,25.7,2.48,34.27,4.96V303.77z"/>
	<path class="st1" d="M294.65,315.72c0,23.67,14.2,32.91,32.91,32.91c8.34,0,14.88-1.8,20.96-4.96V328.8
		c-6.09,2.93-11.05,4.06-16.91,4.06c-11.73,0-19.61-5.18-19.61-19.39v-68.08h36.97v-15.33h-36.97v-35.17h-17.36v35.17h-3.63h-12.6
		v15.33h12.6h3.63V315.72z"/>
	<path class="st1" d="M461.23,241.33c-8.56-8.56-21.19-12.85-37.65-12.85c-16.91,0-29.53,3.83-42.38,9.7l5.18,14.2
		c10.82-4.96,21.64-8.57,35.4-8.57c21.87,0,34.71,10.82,34.71,31.79v4.06c-10.37-2.93-20.96-4.96-35.84-4.96
		c-29.53,0-49.82,13.08-49.82,37.65v0.45c0,23.89,21.87,36.29,43.51,36.29c20.51,0,34.04-9.47,42.16-20.06v17.58h16.69v-71.23
		C473.18,260.49,469.13,249.22,461.23,241.33z M417.73,335.33c-15.78,0-29.31-8.56-29.31-23.22v-0.45
		c0-14.65,12.17-24.12,34.04-24.12c14.2,0,25.7,2.48,34.27,4.96v11.27C456.73,322.26,439.14,335.33,417.73,335.33z"/>
	<path class="st1" d="M590.16,313.47c0-20.97-19.38-27.95-37.42-33.37c-15.55-4.73-29.98-9.01-29.98-20.06v-0.45
		c0-9.7,8.79-16.91,22.54-16.91c11.27,0,23.67,4.28,34.49,11.27l7.89-13.08c-11.95-7.89-27.73-12.85-41.93-12.85
		c-22.99,0-39.67,13.3-39.67,33.36v0.45c0,21.42,20.29,27.73,38.55,32.91c15.33,4.28,29.08,8.79,29.08,20.51v0.45
		c0,11.27-10.15,18.49-24.12,18.49c-13.75,0-27.73-5.41-40.35-14.88l-8.79,12.4c13.08,10.59,31.56,17.13,48.24,17.13
		c23.22,0,41.48-12.85,41.48-34.94V313.47z"/>
	<path class="st1" d="M679.64,227.58c-4.52,0-8.58,0.58-12.34,1.52c-12.92,3.24-21.62,11.46-27.56,21.25V193.8v-11.77h-17.36v11.77
		v152.8h17.36v-66.73c0-19.09,11.34-32.67,27.56-35.82c2.36-0.46,4.83-0.7,7.38-0.7c20.51,0,32.23,13.53,32.23,35.17v68.08h17.36
		v-72.36C724.28,246.51,707.82,227.58,679.64,227.58z"/>
	<rect x="761.68" y="185.42" class="st1" width="19.84" height="19.16"/>
	<rect x="762.81" y="230.06" class="st1" width="17.36" height="116.55"/>
	<path class="st1" d="M953.96,227.58c-20.29,0-32.68,10.37-41.02,23.22c-6.32-13.08-18.49-23.22-37.42-23.22
		c-19.61,0-29.98,10.59-37.64,22.09v-19.61h-17.36V346.6h17.36v-66.5c0-21.41,13.97-36.74,32.46-36.74s29.98,12.85,29.98,34.71
		v68.53h17.13v-67.18c0-22.99,14.65-36.07,32.23-36.07c18.94,0,30.21,12.62,30.21,35.17v68.08h17.36v-72.14
		C997.24,245.61,980.79,227.58,953.96,227.58z"/>
</g>
</svg>
