<svg xmlns="http://www.w3.org/2000/svg" role="img" viewBox="-1.75 -1.75 91.00 82.38"><title>DataPractices.org logo</title><g fill="none" fill-rule="evenodd" transform="translate(6.398)"><rect width="72" height="72" fill="#79e2f2" rx="36"/><path fill="#6553c0" d="M53 56H20c-.608 0-1-.3869-1-1V19c0-.6131.392-1 1-1h33c.608 0 1 .3869 1 1v36c0 .61309-.392 1-1 1z"/><path fill="#e6fcff" d="M49.43478 52.52174H23.34783c-.48 0-.86957-.38957-.86957-.86957V22.08696c0-.48.38957-.86957.86957-.86957h26.08695c.48 0 .86957.38957.86957.86957v29.56521c0 .48-.38957.86957-.86957.86957z"/><path fill="#998dd9" d="M43.67633 25h-3.55556c-.49066 0-.88889-.3584-.88889-.8 0-1.3232-1.19644-2.4-2.66666-2.4-1.47022 0-2.66667 1.0768-2.66667 2.4 0 .4416-.39822.8-.88889.8h-3.55555c-.49067 0-.8889-.3584-.8889-.8v-7.4c0-.4416.39823-.8.8889-.8h14.22222c.49067 0 .88889.3584.88889.8v7.4c0 .4416-.39822.8-.8889.8z"/><path d="M42.2174 30.7826H28.56521c-.48087 0-.86957-.38956-.86957-.86956s.3887-.86956.86957-.86956h13.65217c.48087 0 .86957.38956.86957.86956s-.3887.86957-.86957.86957zm2 6.95653H28.56521c-.48087 0-.86957-.38956-.86957-.86957 0-.48.3887-.86956.86957-.86956h15.65217c.48087 0 .86957.38956.86957.86957 0 .48-.3887.86956-.86957.86956zm-2 6.95652H28.56521c-.48087 0-.86957-.38956-.86957-.86956s.3887-.86957.86957-.86957h13.65217c.48087 0 .86957.38957.86957.86957 0 .48-.3887.86956-.86957.86956z" fill="#403294"/></g><path d="M73.21092 72.92077c-.40104 0-.77213.0677-1.11328.20312-.33854.13542-.6224.33073-.85156.58594-.23959.26823-.42188.59114-.54688.96875-.125.375-.1875.79948-.1875 1.27344 0 .48177.0625.91015.1875 1.28515.1276.375.3086.6914.54297.94922.23438.25781.51823.45443.85156.58984.33594.13542.70834.20313 1.1172.20313.41926 0 .79166-.06641 1.11718-.19922.32813-.13281.61198-.33073.85156-.59375.23177-.2526.41146-.5677.53906-.94531.13021-.38021.19532-.8099.19532-1.28906 0-.47917-.0638-.90756-.1914-1.28516-.125-.3776-.306-.69661-.54298-.95703-.23177-.2526-.51432-.44662-.84765-.58203-.33073-.13802-.70443-.20703-1.1211-.20703zm-32.78515.01563c-.42709 0-.81641.0664-1.16797.19921-.34896.13282-.64714.32553-.89453.57813-.25521.26042-.45053.57943-.58594.95703-.13542.3776-.20313.80599-.20313 1.28516 0 .5052.07031.94922.21094 1.33203.14062.3802.33594.694.58594.9414.2552.2526.55469.4388.89844.5586.34635.11719.73046.17578 1.15234.17578.22396 0 .42838-.01823.61328-.0547.1875-.03384.36068-.07551.51953-.125.1875-.0599.33854-.11718.45313-.17187.11718-.05469.2474-.11328.39062-.17578v-.90625h-.05469c-.28385.25521-.58854.44662-.91406.57422-.32552.1276-.67448.1914-1.04688.1914-.27083 0-.52864-.04556-.77343-.13671-.24219-.09375-.45443-.23698-.63672-.42969-.17448-.1849-.31771-.42448-.42969-.71875-.10937-.29427-.16406-.64583-.16406-1.05469 0-.39062.04948-.73437.14844-1.03125.10156-.29947.24218-.54687.42187-.74218.1849-.20052.39453-.34766.6289-.44141.23699-.09635.50261-.14453.79688-.14453.35938 0 .69662.0612 1.01172.1836.3151.12239.63281.3177.95313.58593h.05859v-.91797c-.38021-.1901-.72657-.32291-1.03907-.39844-.3099-.07552-.62109-.11328-.93359-.11328zm13.90625 0c-.42709 0-.81641.0664-1.16797.19921-.34896.13282-.64714.32553-.89453.57813-.25521.26042-.45053.57943-.58594.95703-.13542.3776-.20313.80599-.20313 1.28516 0 .5052.07031.94922.21094 1.33203.14062.3802.33594.694.58594.9414.2552.2526.55469.4388.89844.5586.34635.11719.73046.17578 1.15234.17578.22396 0 .42838-.01823.61328-.0547.1875-.03384.36068-.07551.51953-.125.1875-.0599.33854-.11718.45313-.17187.11718-.05469.2474-.11328.39062-.17578v-.90625h-.05469c-.28385.25521-.58854.44662-.91406.57422-.32552.1276-.67448.1914-1.04688.1914-.27083 0-.52864-.04556-.77343-.13671-.24219-.09375-.45443-.23698-.63672-.42969-.17448-.1849-.31771-.42448-.42969-.71875-.10937-.29427-.16406-.64583-.16406-1.05469 0-.39062.04948-.73437.14844-1.03125.10156-.29947.24218-.54687.42187-.74218.1849-.20052.39453-.34766.6289-.44141.23699-.09635.50261-.14453.79688-.14453.35938 0 .69662.0612 1.01172.1836.3151.12239.63281.3177.95313.58593h.05859v-.91797c-.38021-.1901-.72657-.32291-1.03907-.39844-.3099-.07552-.62109-.11328-.93359-.11328zm10.09765 0c-.63281 0-1.15495.15625-1.5664.46875-.41146.3099-.6172.70833-.6172 1.1953 0 .42449.1237.76954.3711 1.03516.25.26303.63281.44922 1.14844.5586.2552.05208.4961.09505.72266.1289.22916.03385.4414.07682.63671.12891.25782.06771.44922.16276.57422.28516.1276.1224.1914.3125.1914.5703 0 .29949-.1341.53907-.40233.71876-.26563.17969-.63803.26953-1.1172.26953-.33853 0-.70051-.0664-1.08593-.19922-.38542-.13281-.72526-.32161-1.01953-.5664h-.0547v.96875c.34636.15364.6862.26953 1.01954.34765.33594.07813.71354.11719 1.13281.11719.39063 0 .72396-.04687 1-.14063.27865-.09375.52214-.22395.73047-.39062.1901-.15365.33724-.34115.4414-.5625.10678-.22135.16016-.44531.16016-.67188 0-.41666-.10937-.74088-.32812-.97265-.21875-.23177-.54427-.40495-.97656-.51953-.21354-.0547-.47396-.10807-.78125-.16016-.3073-.05208-.54427-.09635-.71094-.13281-.3151-.07292-.53516-.17839-.66016-.3164-.125-.13803-.1875-.32813-.1875-.57032 0-.27083.125-.49219.375-.66406.2526-.17188.58594-.25782 1-.25782.3776 0 .7461.0625 1.10547.1875.36198.1224.65365.27735.875.46485h.0547v-.91406c-.26303-.11459-.56511-.21094-.90626-.28907-.34115-.07813-.71615-.11718-1.125-.11718zm20.99219 0c-.94792 0-1.69401.26953-2.23828.80859-.54167.53646-.8125 1.26953-.8125 2.19922 0 .50781.07292.95182.21875 1.33203.14583.3776.35286.6927.6211.94531.26562.25.58723.4375.96484.5625.3776.125.79296.1875 1.24609.1875.35156 0 .71484-.05339 1.08984-.16015.3776-.10938.72526-.23698 1.04297-.38282v-2.4961h-2.32422v.6797h1.5586v1.42578c-.1875.07812-.40625.14192-.65625.1914-.2474.04948-.4961.07422-.7461.07422-.68229 0-1.22135-.20833-1.61718-.625-.39584-.41927-.59375-1.0052-.59375-1.7578 0-.71355.1888-1.27865.5664-1.69532.38021-.41927.89583-.6289 1.54688-.6289.28906 0 .54687.02733.77343.08202.22917.05208.4336.1185.61329.19922.14843.06771.29947.15235.45312.2539.15365.10157.27083.1836.35156.2461h.07031v-.91797c-.39843-.1901-.77083-.32421-1.11718-.40234-.34376-.08073-.681-.1211-1.01172-.1211zm-85.42188.10546v5.8164h1.46875c.53386 0 .96355-.03645 1.28907-.10937.32812-.07292.625-.1914.89062-.35547.38281-.23698.6888-.57031.91797-1 .23177-.42969.34766-.90885.34766-1.4375 0-.5651-.11068-1.05338-.33203-1.46484-.22136-.41146-.52995-.74089-.92579-.98828-.23177-.14323-.51562-.25521-.85156-.33594-.33333-.08333-.78385-.125-1.35156-.125zm7.60938 0l-2.11719 5.8164h.78516l.57031-1.62109h2.51563l.5703 1.6211h.82423l-2.1172-5.81641zm3.25 0v.6875h2.07812v5.1289h.77344v-5.1289h2.07813v-.6875zm7.15625 0l-2.11719 5.8164h.78516l.57031-1.62109h2.51563l.5703 1.6211h.82423l-2.1172-5.81641zm4.03125 0v5.8164h.77344V76.6903h.77343c.41667 0 .76172-.04948 1.03516-.14844.27344-.10156.51042-.2526.71094-.45313.16146-.16145.28646-.35156.375-.5703.09115-.22136.13672-.46095.13672-.71876 0-.33854-.0612-.61849-.1836-.83984-.11979-.22136-.29036-.40625-.51172-.55469-.1875-.125-.40234-.21614-.64453-.27344-.24218-.05989-.53776-.08984-.88672-.08984zm4.82812 0v5.8164h.77344v-2.3125h1.08985l1.9453 2.3125h1.00391l-2.1875-2.54296c.3698-.14323.66016-.35547.8711-.63672.21094-.28386.3164-.63542.3164-1.05469 0-.3099-.0599-.5651-.17968-.76562-.11719-.20313-.28125-.3711-.4922-.50391-.1875-.11718-.39843-.19791-.6328-.24219-.23438-.04687-.52735-.0703-.8789-.0703zm7 0l-2.11718 5.8164h.78515l.57032-1.62109h2.51562l.57031 1.6211h.82422l-2.11719-5.81641zm8.84375 0v.6875h2.07813v5.1289h.77344v-5.1289h2.07812v-.6875zm5.47266 0v.59375h.76172v4.6289h-.76172v.59376h2.29688v-.59375h-.76172V73.6356h.76172v-.59375zm9.21484 0v5.8164h3.83204v-.6875h-3.0586v-2.16015h3.0586v-.6875h-3.0586v-1.59375h3.0586v-.6875zm19.73438 0v5.8164h.77344v-2.3125h1.08984l1.94531 2.3125h1.0039l-2.1875-2.54296c.3698-.14323.66017-.35547.8711-.63672.21094-.28386.3164-.63542.3164-1.05469 0-.3099-.0599-.5651-.17968-.76562-.11719-.20313-.28125-.3711-.49219-.50391-.1875-.11718-.39843-.19791-.6328-.24219-.23438-.04687-.52735-.0703-.87891-.0703zm-3.92578.54687c.58593 0 1.04817.20573 1.38672.6172.33854.40885.5078.99088.5078 1.74609 0 .76302-.17187 1.34765-.51562 1.7539-.34114.40365-.80078.60547-1.3789.60547-.57813 0-1.03906-.20182-1.38281-.60547-.34375-.40625-.51563-.99088-.51563-1.7539 0-.75521.16797-1.33724.5039-1.7461.33855-.41146.8034-.61719 1.39454-.61719zm-72.4414.1172h.72655c.35938 0 .66797.02603.92579.07812.2578.04948.5013.13932.73046.26953.3151.17969.55209.42579.71094.73828.15886.3125.23828.69662.23828 1.15235 0 .45312-.07291.83073-.21875 1.13281-.14323.30208-.35937.54557-.64843.73047-.23178.14844-.48698.25-.76563.30469-.27604.05469-.60026.08203-.97266.08203H.77342zm22.04687 0h.76562c.2448 0 .44662.01822.60547.05468.16146.03385.30469.09115.42969.17188.14323.09375.25.21484.32031.36328.07031.14844.10547.32291.10547.52344 0 .17187-.02604.32682-.07813.46484-.04948.13802-.13542.26953-.25781.39453-.1224.1224-.28125.21224-.47657.26953-.1953.0547-.44921.08203-.76171.08203h-.65235zm4.82812 0h.91016c.20833 0 .38932.01562.54297.04686.15364.02864.28646.08073.39843.15625.13542.08854.23177.19792.28907.32813.05989.1276.08984.27474.08984.4414 0 .21875-.02864.39974-.08594.54297-.0547.14063-.14063.26563-.25781.375-.12761.11719-.28256.19792-.46485.24219-.1823.04167-.39583.0625-.64062.0625h-.78125zm50.26563 0h.91015c.20834 0 .38933.01562.54297.04686.15365.02864.28646.08073.39844.15625.13542.08854.23177.19792.28906.32813.0599.1276.08984.27474.08984.4414 0 .21875-.02864.39974-.08594.54297-.05469.14063-.14062.26563-.25781.375-.1276.11719-.28255.19792-.46484.24219-.1823.04167-.39584.0625-.64063.0625h-.78125zm-69.8086.01171l1.01953 2.85547H7.08202zm10.40625 0l1.01953 2.85547h-2.04296zm15.85938 0l1.01953 2.85547h-2.04297zm33.77344 4.02734v1.11329h.93359v-1.11329z"/></svg>