<?xml version="1.0" encoding="utf-8"?>
<!-- Generator: Adobe Illustrator 19.2.1, SVG Export Plug-In . SVG Version: 6.00 Build 0)  -->
<svg version="1.1" id="layer" xmlns="http://www.w3.org/2000/svg" xmlns:xlink="http://www.w3.org/1999/xlink" x="0px" y="0px"
	 viewBox="0 0 652 652" style="enable-background:new 0 0 652 652;" xml:space="preserve">
<style type="text/css">
	.st0{fill:#464547;}
	.st1{fill:#DC2327;}
	.st2{fill:#F0562C;}
	.st3{fill:#444545;}
</style>
<g>
	<path class="st0" d="M616.6,314.6c0.2-0.5,0.6-1,1-1.4c0.4-0.4,0.9-0.7,1.4-0.9c0.5-0.2,1.1-0.3,1.7-0.3c0.6,0,1.2,0.1,1.7,0.3
		c0.5,0.2,1,0.5,1.4,0.9c0.4,0.4,0.7,0.9,1,1.4c0.2,0.5,0.4,1.1,0.4,1.8c0,0.6-0.1,1.2-0.4,1.8c-0.2,0.5-0.6,1-1,1.4
		c-0.4,0.4-0.9,0.7-1.4,0.9c-0.5,0.2-1.1,0.3-1.7,0.3c-0.6,0-1.2-0.1-1.7-0.3c-0.5-0.2-1-0.5-1.4-0.9c-0.4-0.4-0.7-0.9-1-1.4
		c-0.2-0.5-0.4-1.1-0.4-1.8C616.2,315.7,616.3,315.2,616.6,314.6 M617.3,317.9c0.2,0.5,0.4,0.9,0.8,1.2c0.3,0.3,0.7,0.6,1.2,0.8
		c0.4,0.2,0.9,0.3,1.5,0.3c0.5,0,1-0.1,1.4-0.3c0.4-0.2,0.8-0.5,1.2-0.8c0.3-0.3,0.6-0.7,0.8-1.2c0.2-0.5,0.3-1,0.3-1.5
		c0-0.5-0.1-1-0.3-1.5c-0.2-0.5-0.4-0.9-0.8-1.2c-0.3-0.3-0.7-0.6-1.2-0.8c-0.4-0.2-0.9-0.3-1.4-0.3c-0.5,0-1,0.1-1.5,0.3
		c-0.5,0.2-0.8,0.5-1.2,0.8c-0.3,0.3-0.6,0.7-0.8,1.2c-0.2,0.5-0.3,1-0.3,1.5C617,316.9,617.1,317.4,617.3,317.9 M621,313.8
		c0.6,0,1.1,0.1,1.4,0.4c0.3,0.2,0.4,0.6,0.4,1.1c0,0.5-0.1,0.8-0.4,1c-0.3,0.2-0.6,0.3-1,0.4l1.5,2.3h-0.9l-1.4-2.2h-0.9v2.2H619
		v-5.2H621z M620.6,316.1c0.2,0,0.4,0,0.5,0c0.2,0,0.3,0,0.4-0.1c0.1-0.1,0.2-0.1,0.3-0.3c0.1-0.1,0.1-0.3,0.1-0.5
		c0-0.2,0-0.3-0.1-0.4c-0.1-0.1-0.2-0.2-0.3-0.2c-0.1-0.1-0.2-0.1-0.4-0.1c-0.1,0-0.3,0-0.4,0h-1.1v1.7H620.6z"/>
</g>
<polygon class="st1" points="25.3,311.2 25.2,311.3 25.2,324.2 38.9,331.3 25.2,338.4 25.2,351.4 62.2,370.7 66,370.7 103,351.4 
	103,338.4 89.3,331.3 103,324.2 103,311.3 102.9,311.2 64.1,291.3 "/>
<polygon class="st2" points="64.1,344.5 38.9,331.3 25.2,338.4 64.1,358.7 103,338.4 89.3,331.3 "/>
<polygon class="st2" points="25.2,311.3 64.1,331.6 103,311.3 64.1,291.3 "/>
<g>
	<path class="st3" d="M158.6,318.4h0.3c0,0-0.3-3.4-0.3-3.8v-26.9h-8.1v-6.9H167v76.6h7.7v6.9h-14.1l-1.2-7.8H159
		c0,0-5.2,8.6-17.8,8.6c-13.8,0-24.2-9.3-24.2-27c0-17.3,11.2-26.9,24.3-26.9C154.6,311.3,158.6,318.4,158.6,318.4 M158.6,349.4
		v-23.5c-1.5-2.2-5.9-7.5-15.7-7.5c-8.4,0-17.6,6.2-17.6,19.8c0,13.6,8.3,19.9,17.7,19.9C149.3,358.1,155.7,355.1,158.6,349.4"/>
	<path class="st3" d="M217.6,355.6c0,0-4.6,9.5-19.9,9.5c-10.8,0-18-6.4-18-15.1c0-9.7,9.2-14.8,23.9-14.8h13.2v-4.4
		c0-9-5.2-12.8-14.7-12.8c-9.1,0-13.7,4.4-13.7,10.2v1.1h-7.7v-2.6c0-7.6,6.7-15.6,21.6-15.6c14.1,0,22.9,6.3,22.9,19.9v26.2h6.3
		v6.9h-12.5l-1-8.7H217.6z M216.7,341.3H204c-9.2,0-16.1,2.7-16.1,8.7c0,5.2,4.8,8.5,11.5,8.5c12.1,0,17.3-9.1,17.3-9.1V341.3z"/>
	<path class="st3" d="M248.8,298.1v14h16.6v6.7h-16.6V347c0,7.4,3.3,11,8.7,11c5.8,0,9.4-1.7,9.4-1.7v7.1c0,0-4.3,1.8-10.8,1.8
		c-10.1,0-15.8-5.8-15.8-17.7v-28.7h-8v-6.7h8l1.5-14H248.8z"/>
	<path class="st3" d="M309.8,355.6c0,0-4.6,9.5-19.9,9.5c-10.8,0-18-6.4-18-15.1c0-9.7,9.2-14.8,23.9-14.8h13.2v-4.4
		c0-9-5.2-12.8-14.7-12.8c-9.1,0-13.7,4.4-13.7,10.2v1.1h-7.7v-2.6c0-7.6,6.7-15.6,21.6-15.6c14.1,0,22.9,6.3,22.9,19.9v26.2h6.3
		v6.9H311l-1-8.7H309.8z M308.9,341.3h-12.7c-9.2,0-16.1,2.7-16.1,8.7c0,5.2,4.8,8.5,11.5,8.5c12.1,0,17.3-9.1,17.3-9.1V341.3z"/>
	<path class="st3" d="M339,356.5l-1.3,7.8h-6.4v-76.6h-7.7v-6.9h16.1v33.8c0,0.4-0.3,3.8-0.3,3.8h0.3c0,0,4.7-7.2,17.5-7.2
		c13,0,24.2,9.6,24.2,26.9c0,17.7-10.4,27-24.1,27c-12.7,0-17.9-8.6-17.9-8.6H339z M339.7,325.8v23.5c2.8,5.7,9.3,8.7,15.7,8.7
		c9.3,0,17.6-6.4,17.6-19.9c0-13.7-9.1-19.8-17.5-19.8C345.9,318.3,341.3,323.5,339.7,325.8"/>
	<path class="st3" d="M422.3,319.8c-1.2-0.4-3.3-0.8-5.9-0.8c-13,0-15.7,15.5-15.7,15.5v23h8.5v6.9h-24.7v-6.9h7.7V319h-7.7v-6.9
		h14.1l0.8,13.3h0.3c0,0,2.6-14.1,16.8-14.1c2.4,0,4.4,0.3,5.7,0.6V319.8z"/>
	<path class="st3" d="M446.1,357.4h7.5v6.9h-23.6v-6.9h7.7V319h-7.7v-6.9h16.1V357.4z M441.5,302.6c-3.6,0-6.5-2.9-6.5-6.7
		c0-3.6,2.9-6.5,6.5-6.5c3.7,0,6.7,2.9,6.7,6.5C448.2,299.7,445.2,302.6,441.5,302.6"/>
	<path class="st3" d="M464.5,338.2c0,13.7,8.8,19.9,18.8,19.9c12.2,0,17.1-5.7,17.1-5.7l2.9,6.1c0,0-5.8,6.7-20.6,6.7
		c-15.6,0-26.6-9.6-26.6-27c0-18.2,10-26.9,26-26.9c16.4,0,22.3,9,22.3,18.7v2.8h-7.7v-1.7c0-7.8-4.5-12.8-14.7-12.8
		C471.6,318.3,464.5,323.6,464.5,338.2"/>
	<polygon class="st3" points="523.9,333.9 536.9,333.9 549.4,318.8 542.9,318.8 542.9,312.1 566.6,312.1 566.6,318.8 558.5,318.8 
		543.3,337.3 559.3,357.7 567.3,357.7 567.3,364.4 554.6,364.4 536.2,340.5 523.9,340.5 523.9,357.4 531.4,357.4 531.4,364.4 
		507.6,364.4 507.6,357.4 515.5,357.4 515.5,287.7 507.6,287.7 507.6,280.8 523.9,280.8 	"/>
	<path class="st3" d="M578.9,347.4v1.2c0,5.4,4.5,9.6,14,9.6c9.6,0,13.9-3.1,13.9-8.3c0-5.4-6.9-7.2-14.5-8.5
		c-9.4-1.7-19.9-4.1-19.9-15.5c0-9,8.5-14.7,20.2-14.7c15.5,0,21.2,6.4,21.2,14.3v3.8h-7.8V327c0-5.6-3.7-8.9-13-8.9
		c-6.1,0-12.2,2.5-12.2,8c0,6.2,7.4,7.3,15,8.7c9.9,1.9,19.4,4.9,19.4,15.2c0,8.4-6.3,15.1-22,15.1c-16.1,0-22.1-7.2-22.1-14.6v-3.3
		H578.9z"/>
</g>
</svg>
