<svg id="Layer_1" data-name="Layer 1" xmlns="http://www.w3.org/2000/svg" viewBox="0 0 224.86481 200"><defs><style>.cls-1{fill:none;}.cls-2{fill:#1099cd;}.cls-3{fill:#f3ba65;}.cls-4{fill:#b14220;}.cls-5{fill:#0b9dd4;}.cls-6{fill:#3f4648;}</style></defs><title>datahublogo</title><path class="cls-1" d="M55.75527,82.5102q0-1.87776.00045-3.75558c.00044-2.03422.0038-4.06851-.00184-6.10279.00564,2.03428.00228,4.06857.00139,6.10279Z"/><path class="cls-2" d="M115.21253,188.56142a88.85117,88.85117,0,0,1-14.05618-1.15249,85.98231,85.98231,0,0,1-41.43806-18.5683c-19.79754-16.29049-30.72355-37.31086-32.67286-62.85875A85.29309,85.29309,0,0,1,34.69317,63.5212a88.45639,88.45639,0,0,1,86.14357-51.81193,87.217,87.217,0,0,1,38.67332,11.63811,89.24694,89.24694,0,0,1,21.50129,17.38954c1.9174,2.10058,4.36345,2.25134,6.2345.51979,1.86459-1.72547,1.84977-4.13315-.05427-6.25223a92.85074,92.85074,0,0,0-19.15-16.34848C147.21235,5.37093,124.52267.446,100.11594,4.27739a93.90581,93.90581,0,0,0-57.37877,31.4965c-16.95909,19.24443-24.98181,41.8737-24.26686,67.533A94.98023,94.98023,0,0,0,31.511,148.7957c.25562.44248.65954.83906.493,1.42933a3.20393,3.20393,0,0,1,1.47922,1.76327c.88882,1.83559,2.46955,3.21717,3.24382,5.11234a5.987,5.987,0,0,1,.653.64118,96.91657,96.91657,0,0,0,43.10915,32.79234A95.45579,95.45579,0,0,0,114.96931,197a4.519,4.519,0,0,0,2.54275-.639,4.23331,4.23331,0,0,0,1.841-4.62812A4.02763,4.02763,0,0,0,115.21253,188.56142Z"/><path class="cls-3" d="M219.28512,37.58573a12.69426,12.69426,0,0,0-25.025,3.20779c-.21554.88965.56868,2.08533-.881,3.006-4.98487,3.16569-9.89155,6.45681-14.77574,9.77707-.95632.6501-1.39393.40854-1.98977-.38024-1.10114-1.45776-2.22969-2.90259-3.44512-4.26505a76.33853,76.33853,0,0,0-56.96289-25.79047,4.16113,4.16113,0,0,0-4.47863,4.21978c-.00652,2.50114,1.74567,4.17615,4.422,4.254a71.79571,71.79571,0,0,1,19.4432,2.96794c18.30318,5.70489,31.85007,17.10979,40.797,33.97636a66.18951,66.18951,0,0,1,7.578,30.89533,4.25087,4.25087,0,1,0,8.46963-.088,70.03617,70.03617,0,0,0-.57254-8.90534,74.83074,74.83074,0,0,0-9.01513-27.8307c-.55127-.99394-.493-1.47023.49256-2.10673q7.24329-4.67786,14.38582-9.51086a1.49225,1.49225,0,0,1,2.03543.133,12.53743,12.53743,0,0,0,14.40456-.05192A12.70158,12.70158,0,0,0,219.28512,37.58573Z"/><path class="cls-3" d="M172.32947,141.91255c-1.98762-.43608-3.38687.48466-4.62724,1.941A66.41955,66.41955,0,0,1,148.75812,159.359a68.297,68.297,0,0,1-66.5605-.48218,66.75347,66.75347,0,0,1-17.92035-14.81272,6.8318,6.8318,0,0,0-2.31618-2.0738,4.36531,4.36531,0,0,0-5.19814,1.33675c-1.21885,1.6386-1.05162,3.76951.51758,5.59522,15.40723,17.926,35.01088,26.88337,58.54734,27.42868a78.33981,78.33981,0,0,0,19.3933-2.51184A77.05382,77.05382,0,0,0,173.98124,149.642c1.074-1.25772,2.03846-2.56047,1.64923-4.35769A4.07331,4.07331,0,0,0,172.32947,141.91255Z"/><path class="cls-4" d="M104.4476,145.55308a45.63528,45.63528,0,0,1-19.33732-9.5721c-2.28839-1.881-4.79384-1.82033-6.39938.11505-1.74726,2.10622-1.33941,4.51207,1.11506,6.50576,10.31808,8.38137,22.136,12.57607,33.5468,12.701,10.47669-.01412,18.6484-1.89422,26.38853-5.65106a54.52617,54.52617,0,0,0,10.42483-6.62417,4.229,4.229,0,1,0-5.15724-6.70187c-.50941.36536-.99127.769-1.49967,1.1359A46.86108,46.86108,0,0,1,104.4476,145.55308Z"/><path class="cls-5" d="M32.004,150.225c-1.83249,1.20086-3.68618,2.371-5.48726,3.61716a1.76168,1.76168,0,0,1-2.23387.16115,10.10089,10.10089,0,0,0-4.75749-1.42844c-5.4252-.35206-9.626,1.80627-12.25193,6.52893a11.86853,11.86853,0,0,0,.96519,13.69209,11.92,11.92,0,0,0,12.57879,4.83119,12.45027,12.45027,0,0,0,9.967-14.682,2.09943,2.09943,0,0,1,1.12976-2.62247c1.6733-.95278,3.215-2.13667,4.81283-3.222-.77427-1.89517-2.355-3.27675-3.24382-5.11234A3.20393,3.20393,0,0,0,32.004,150.225Z"/><path class="cls-4" d="M166.91915,96.7961a4.37426,4.37426,0,0,0,3.79053-4.43956l-.069-.4896a56.00826,56.00826,0,0,0-38.1059-45.63314,4.21889,4.21889,0,0,0-5.45053,5.34352c.6111,1.97489,2.31213,2.53109,4.003,3.14853,13.24422,4.8367,22.54005,13.8305,28.06194,26.76046a50.76738,50.76738,0,0,1,3.15182,11.7733A4.14086,4.14086,0,0,0,166.91915,96.7961Z"/><path class="cls-6" d="M50.45126,91.568c2.71618-.075,5.43591-.02906,8.15418-.02412a12.48815,12.48815,0,0,0,6.42192-1.70756,12.7442,12.7442,0,0,0-5.43179-23.79588c-3.07678-.15494-6.16737-.01577-9.24942-.09694-1.06827-.02818-1.30775.35294-1.29426,1.34986.05161,3.81528.0209,7.63165.02077,11.44757s.04173,7.63267-.02609,11.44745C49.02675,91.30238,49.367,91.5979,50.45126,91.568Zm6.07816-19.95957a7.22029,7.22029,0,0,1,4.2372,13.54866,5.39721,5.39721,0,0,1-.86578.35225c-3.7086,1.07638-4.14557.7582-4.14557-2.99915V78.75462c.00089-2.03422.00425-4.06851-.00139-6.10279C55.75236,72.10259,55.75591,71.69658,56.52942,71.60844Z"/><path class="cls-6" d="M102.75056,109.39382H94.48108a.73854.73854,0,0,1-.47008-.27316V99.51633H87.19433v25.6442H94.011V115.01278a.98479.98479,0,0,1,.77782-.425h7.70549c.71475.0934,1.01628.47743.97544,1.50993-.1034,2.61138.01444,5.23087-.05331,7.8446a1.76777,1.76777,0,0,0,.11283.774v.87236h6.61024V99.51633h-6.61024v.489a2.00947,2.00947,0,0,0-.11271.84424c.071,2.40414-.03432,4.81379.04749,7.21723C103.49229,108.89556,103.28435,109.267,102.75056,109.39382Z"/><path class="cls-6" d="M158.42653,123.08192a9.96773,9.96773,0,0,0,.99691-12.16531,8.25437,8.25437,0,0,0-4.87824-3.43284,7.91193,7.91193,0,0,0-7.4182,1.70382,2.13565,2.13565,0,0,1-.17154-.45907l-.13348,1.51911v-13.462h-6.27489v28.37494H146.822v-.37841a1.76793,1.76793,0,0,0,.06484-1.29951C151.206,126.45226,155.24438,126.2476,158.42653,123.08192Zm-11.60391-6.55047a3.879,3.879,0,0,1,3.761-4.00924,3.98642,3.98642,0,0,1,4.085,3.89444,4.06716,4.06716,0,0,1-3.89,3.955A3.94737,3.94737,0,0,1,146.82262,116.53145Z"/><path class="cls-6" d="M120.45264,76.068a9.94454,9.94454,0,0,0-1.07308,12.26485,8.646,8.646,0,0,0,5.79145,3.64951,8.11224,8.11224,0,0,0,6.89106-2.13148V91.683H138.215V73.65969h-6.15294V75.6798C128.09633,72.81779,123.5533,73.04783,120.45264,76.068Zm11.6093,6.76771a4.11081,4.11081,0,0,1-4.05742,3.95181,3.86981,3.86981,0,0,1-3.84467-4.08288,3.79455,3.79455,0,0,1,3.97371-3.76755A4.06125,4.06125,0,0,1,132.06194,82.83566Z"/><path class="cls-6" d="M94.49539,74.15232c-1.04129.06351-2.09.037-3.1344.00868-1.05435-.02862-2.20354-.27133-2.14105,1.45377a8.25349,8.25349,0,0,0-11.56079.79283,10.01172,10.01172,0,0,0,.04692,12.94167c2.97516,3.28917,7.41985,3.54916,11.76893.48833-.34643,1.562.32584,1.8152,1.47042,1.72535a25.82535,25.82535,0,0,1,3.44657-.00406c.86274.048,1.16763-.20617,1.16028-1.11766-.041-5.06858-.03419-10.13774-.00532-15.20645C95.55145,74.4367,95.34186,74.10078,94.49539,74.15232ZM85.65262,86.7862a3.94269,3.94269,0,0,1-3.98917-3.96909,3.93623,3.93623,0,1,1,3.98917,3.96909Z"/><path class="cls-6" d="M116.39794,108.89245c.05718,1.77632.01716,3.55574.01716,5.3339h.0323c0,1.67329-.03565,3.34754.00791,5.0197a5.7974,5.7974,0,0,0,4.23846,5.76156,15.25438,15.25438,0,0,0,9.40392.14842c3.148-.93328,4.64928-2.77247,4.77832-6.01668.13924-3.49856.035-7.00643.07022-10.50987.007-.69132-.254-.91662-.91351-.90212-1.30687.02881-2.61962.07763-3.92085-.01285-1.09379-.07611-1.42692.27335-1.39659,1.38373.07694,2.82193.083,5.6493-.00114,8.471-.07718,2.58567-2.02079,3.791-4.46115,2.89417-1.61511-.59357-1.68666-2.02181-1.72123-3.36844q-.10476-4.07664.00025-8.15747c.02451-.9921-.29526-1.276-1.24728-1.21935a32.31751,32.31751,0,0,1-3.76343.00031C116.59461,107.66531,116.37014,108.03,116.39794,108.89245Z"/><polygon class="cls-6" points="103.529 68.851 103.529 74.288 101.594 74.288 101.594 79.384 103.529 79.384 103.529 91.683 110.14 91.683 110.14 79.384 113.287 79.384 113.287 74.288 110.14 74.288 110.14 68.851 103.529 68.851"/></svg>