<svg id="Layer_1" data-name="Layer 1" xmlns="http://www.w3.org/2000/svg" viewBox="0 0 668.50948 397.50934"><defs><style>.cls-1{fill:#3f93eb;}.cls-2{fill:#505050;}</style></defs><title>datmo</title><path id="Shape" class="cls-1" d="M132.66849,274.56922H103.51687V262.4601c-3.1394,3.81213-14.8,15.02429-34.75769,15.02429-33.63648,0-57.40626-25.33947-57.40626-61.44263,0-36.32739,21.97583-61.66688,55.61231-61.66688,20.18189,0,31.84253,11.21216,34.7577,15.24854v-57.182h30.94556ZM72.57131,181.73255c-17.93945,0-30.04858,14.12732-30.04858,34.53345,0,20.85462,12.55761,33.86072,30.04858,33.86072,18.83643,0,30.04859-15.24853,30.04859-33.86072C102.6199,194.29017,89.61379,181.73255,72.57131,181.73255Z"/><path class="cls-1" d="M195.68083,199.44776c11.88489,0,21.07885,3.5879,25.33948,6.50305v-7.62426c0-10.31519-7.62427-17.26673-21.30311-17.26673-11.66064,0-22.42432,3.81214-31.16981,8.297L156.88676,168.278c10.53942-7.17578,28.25464-13.90308,46.19409-13.90308,37.67285,0,48.885,19.7334,48.885,45.96985v74.22449H224.6082L222.59,266.945c-6.05457,6.50306-15.02429,10.53943-28.47888,10.53943-23.76978,0-43.95168-14.5758-43.95168-39.24256C150.15945,215.14479,168.32315,199.44776,195.68083,199.44776Zm5.83032,54.04261c11.66064,0,20.18189-6.27881,20.18189-16.14551,0-10.31518-8.52125-16.36975-20.40614-16.36975s-20.18189,6.7273-20.18189,16.36975S189.8505,253.49037,201.51115,253.49037Z"/><path class="cls-1" d="M277.75383,132.62329h30.49709V157.29h21.9758v25.11524h-21.9758v45.29713c0,17.491,5.38181,21.07886,17.2667,21.07886a50.7544,50.7544,0,0,0,5.60609-.22425v26.4607a63.09905,63.09905,0,0,1-13.23035,1.12122c-28.03041,0-40.36377-15.697-40.36377-47.53956v-46.1941H265.19621V157.29h12.55762Z"/><path class="cls-2" d="M517.02131,274.56922H486.07575V204.38111c0-13.90307-6.95155-22.20007-18.38793-22.20007-11.21218,0-19.06068,8.297-19.06068,22.42432v69.96386H417.68157V203.2599c0-13.23035-6.72727-21.07886-18.16369-21.07886-10.98793,0-19.06067,8.297-19.06067,22.20007v70.18811H349.51164V157.29h30.27285v13.67884c4.26059-8.07276,14.57578-16.594,30.49706-16.594,15.02429,0,26.01223,6.7273,32.06679,17.491,6.95151-10.76367,19.06064-17.491,34.75768-17.491,26.68494,0,39.91529,17.71522,39.91529,42.83045Z"/><path class="cls-2" d="M596.8519,154.37488c35.87891,0,63.23656,26.4607,63.23656,61.89112s-26.4607,61.21839-63.23656,61.21839c-36.55165,0-63.01236-25.788-63.01236-61.21839C533.83954,180.61133,561.19723,154.37488,596.8519,154.37488Zm0,95.75184c18.61217,0,32.291-13.90307,32.291-33.86072s-13.67886-34.53345-32.291-34.53345-32.06679,14.35157-32.06679,34.53345C564.78511,236.22365,578.46394,250.12672,596.8519,250.12672Z"/></svg>