<svg id="Layer_1" data-name="Layer 1" xmlns="http://www.w3.org/2000/svg" viewBox="0 0 1910.18613 1625.49546"><defs><style>.cls-1{fill:#fefefe;}.cls-2{fill:#666;}.cls-3{fill:#8b1515;}.cls-4{fill:#8c1515;}.cls-5{fill:#fdfdfd;}.cls-6{fill:#901319;}</style></defs><title>dawnbench</title><path class="cls-1" d="M.09317,1218.093Q.09253,611.34361,0,4.59421C-.00091.84813.83948-.00057,4.59153,0Q955.09119.14528,1905.59091.00055c3.74463-.00057,4.59607.83705,4.59522,4.59064q-.14924,604.50074-.00049,1209.00153c.001,3.74841-.843,4.59363-4.59265,4.59314Q952.84323,1218.04084.09317,1218.093Z"/><path class="cls-2" d="M1304.36691,659.63532c-2.07837-3.51385-3.948-6.61011-5.75634-9.74176q-72.15675-124.95795-144.21228-249.97427c-2.08948-3.63059-4.21253-5.009-8.47181-4.98169-32.16369.20633-64.32946.16507-96.494.03882-3.55237-.014-4.83533.66748-4.83033,4.59079q.178,137.99257.01453,275.98541c-.0033,3.19787,1.29663,4.69836,3.83386,6.15942q89.99761,51.82911,179.891,103.8385c2.40259,1.39063,3.82569,1.3841,6.04175-.42187,17.18445-14.00513,36.56409-17.47156,57.14343-9.61072,20.82752,7.95575,32.82434,23.84448,36.27723,45.84473,4.7423,30.21472-18.62146,60.45672-49.04151,63.83508-36.25683,4.02649-65.42236-22.6-64.66626-59.03723a4.40645,4.40645,0,0,1,.0586-1.4906c3.75231-9.1391-2.09974-12.48987-8.88294-16.37818q-93.99921-53.88289-187.7829-108.1416c-3.27392-1.88281-4.528-3.82812-4.5227-7.72027q.19692-145.74216.21637-291.48447c.00732-4.73267-.98053-6.05508-5.90039-6.02356q-55.24494.3539-110.493.03314c-4.37684-.01983-5.79883.864-5.79114,5.60413q.23594,145.742.20221,291.48447c.00433,3.928-1.077,6.14953-4.59674,8.1726q-96.31688,55.36232-192.53717,110.89252c-4.28705,2.46167-5.514,4.76349-4.62366,9.72656,5.25464,29.29376-17.01257,59.631-46.72656,64.16822-37.9198,5.79028-70.48853-24.40888-66.40723-62.25757,2.36383-21.92151,14.19086-37.98078,34.58759-46.52344,20.535-8.60065,40.19311-5.71289,57.78216,8.06055,3.31,2.59192,5.29706,2.39074,8.55847.50122Q765.80234,733.47168,854.531,682.442c3.61609-2.07812,5.07055-4.19781,5.06414-8.4801q-.20535-136.49248.00641-272.98535c.00782-4.73648-1.02673-6.09012-5.93982-6.05222q-47.74466.36832-95.49328.01294c-4.29267-.0281-6.35382,1.47473-8.41992,5.06421Q676.5213,527.22368,603.04239,654.301c-.90448,1.56665-1.8703,3.09784-3.13422,5.18518-1.092-1.69128-1.98681-2.95386-2.75738-4.28827q-62.16889-107.66491-124.22-215.3977c-2.30011-4.00193-4.408-4.94406-8.98169-4.13559-25.26816,4.46658-51.56583-10.95023-61.00189-35.71216-1.53479-4.02756-3.49378-5.00858-7.51474-4.99085-34.83085.15378-69.663.01819-104.49369.1829-4.07632.01928-5.51465-.88452-5.30221-5.16367.36313-7.31491.30194-14.66879.01626-21.9906-.14709-3.7706,1.03028-4.77182,4.77378-4.7569,34.99762.13962,69.99624.02332,104.99383.16422,3.98953.01605,6.02353-.87457,7.55774-4.98166a56.86123,56.86123,0,0,1,106.07791.0889c1.42734,3.72418,3.10718,4.91024,7.10517,4.90875q435.977-.16059,871.95428.009c4.09412.00165,5.629-1.35818,7.03442-5.00729a56.92835,56.92835,0,0,1,106.33619.52487c1.26879,3.4028,2.80346,4.47131,6.37011,4.45752,34.99756-.1355,69.99659.02072,104.99341-.2016,4.78027-.03033,5.906,1.45493,5.68189,5.89093-.34424,6.81558-.335,13.67337-.00074,20.49.20716,4.22424-.78015,5.62473-5.38464,5.59552-35.16345-.223-70.32922-.07-105.49341-.20593-3.38464-.01306-4.78735.95843-6.00647,4.18207-9.8977,26.16775-35.74194,40.87088-63.455,36.09457-3.80152-.65518-4.88428,1.25943-6.37085,3.836Q1369.565,546.982,1307.21933,654.83271C1306.39609,656.25788,1305.53915,657.66358,1304.36691,659.63532Z"/><path class="cls-2" d="M1339.08591,955.64905q0-85.73647.0852-171.47284c.00769-3.60943-1.01013-5.53674-4.2135-7.3778q-87.43542-50.25312-174.67309-100.84955c-3.0813-1.78638-4.90638-1.62421-7.72608.60425a56.49626,56.49626,0,0,1-65.00281,3.762,57.20189,57.20189,0,0,1-26.30615-59.242c4.22449-23.09772,23.01319-41.55707,46.56482-45.74848,38.47986-6.84814,73.33679,28.24219,65.74793,66.37726-.78711,3.95435.02209,5.79028,3.54272,7.814q94.57325,54.36282,189.03308,108.92334c3.52319,2.02551,4.69617,4.19433,4.69238,8.17987q-.16149,167.72406-.22583,335.44793c-.00866,5.24671,1.60621,7.02234,6.5011,8.18555,14.55408,3.45886,28.98377,7.45068,43.417,11.39954,2.84179.77758,4.3341.26941,6.07067-2.28882,13.86963-20.43079,37.7439-29.68408,61.08826-23.93421,23.00415,5.666,40.01807,24.944,43.202,48.95081,3.88086,29.26135-17.90735,58.35718-46.99744,62.75989-31.40637,4.75329-60.708-15.07312-65.58447-45.1355-1.12683-6.94653-3.48389-9.70422-10.38-11.32422-21.19531-4.97961-42.11914-11.10364-63.23938-16.422-4.28882-1.08-5.7334-2.53662-5.71838-7.13647C1339.1506,1069.96455,1339.086,1012.80671,1339.08591,955.64905Z"/><path class="cls-2" d="M565.09982,955.57831c0,57.32575-.05755,114.65162.11853,171.97693.01288,4.20313-1.2995,5.58362-5.16613,6.56946-22.87842,5.83338-45.67035,12.00488-68.52909,17.91663-3.12991.80945-4.31332,2.00525-4.76629,5.49218-3.6269,27.92115-25.74942,48.80591-52.96588,50.43787a57.11038,57.11038,0,1,1,42.85934-89.875c2.60257,3.7583,4.76932,4.27161,8.878,3.11023,14.23776-4.0249,28.56253-7.75977,42.93008-11.29675,3.96534-.9762,5.09015-2.68006,5.08545-6.764q-.19207-167.72763-.23034-335.45538c-.00714-4.81531,1.38739-7.33094,5.53778-9.71546q94.15356-54.09558,188.17-108.42956c3.44617-1.98175,4.46124-3.74054,3.64606-7.77954-6.18341-30.63678,15.3836-61.178,46.67743-66.47992,31.375-5.31574,61.71155,16.8814,65.85418,48.18548,3.16236,23.89636-7.64837,46.04383-28.21978,57.81262a56.3416,56.3416,0,0,1-63.67188-4.99908c-2.77667-2.21252-4.5188-1.98792-7.32623-.36157q-87.26632,50.55185-174.6853,100.83972c-3.14838,1.81006-4.29328,3.684-4.28516,7.33655Q565.20175,869.83872,565.09982,955.57831Z"/><path class="cls-3" d="M950.944,22.13486c150.15082.12683,279.946,103.44317,312.89227,248.001a322.35359,322.35359,0,0,1,7.73792,56.827c.14526,3.13858-.635,4.032-3.74719,3.97073-9.16138-.18051-18.33265-.22281-27.49134.01694-3.45971.0906-4.03125-1.286-4.21582-4.33557-4.61718-76.27477-34.71838-140.853-90.41577-193.004-46.448-43.49046-101.80786-68.33864-165.20654-74.68418A284.4626,284.4626,0,0,0,673.37289,284.09373a238.70266,238.70266,0,0,0-5.31329,42.563c-.0824,3.12943-.85669,4.37693-4.25549,4.29129-9.15906-.23077-18.3302-.19873-27.49133-.01324-3.16755.06412-3.82325-.92221-3.689-4.013,6.218-143.09752,109.77924-266.44388,249.39056-297.009a322.63338,322.63338,0,0,1,32.9513-5.61831A295.16784,295.16784,0,0,1,950.944,22.13486Z"/><path class="cls-2" d="M266.17728,379.0918q0,97.74551-.0037,195.491c-.00015,2.33276.06418,4.67413-.1044,6.99683-.76916,10.59668-6.89425,16.30029-17.42511,16.31268q-7.99962.00944-15.99926.001c-11.50341-.00489-17.327-5.38813-18.35888-17.0343-.14663-1.6551-.07841-3.33094-.07846-4.99714q-.00424-196.741-.01843-393.482a36.898,36.898,0,0,1,.93089-9.41347c2.18319-8.36775,7.12146-12.22278,15.75535-12.24962q8.99949-.028,17.99916-.00274c10.3921.01571,16.28248,5.4264,17.17247,15.89085.2113,2.48428.12579,4.99637.126,7.49567Q266.18125,281.59619,266.17728,379.0918Z"/><path class="cls-2" d="M1638.00864,379.08753q.00054-98.24592.00427-196.49182c.00024-3.49272-.06763-6.96921.99976-10.3933,2.49658-8.009,6.9718-11.45321,15.30346-11.48375q9.74946-.03575,19.49915.002c7.71606.03616,11.94739,3.047,14.62036,10.35863a29.56943,29.56943,0,0,1,1.56128,10.30374q-.03242,197.74161-.00281,395.48326a29.05269,29.05269,0,0,1-1.68445,10.77557c-2.84887,7.285-7.03259,10.21613-14.77173,10.24591-5.99963.02308-11.99951.01087-17.99926.00428-10.52649-.0116-16.6576-5.71949-17.42078-16.3161-.17932-2.48865-.10584-4.99726-.10608-7.49671Q1638.00485,476.58342,1638.00864,379.08753Z"/><path class="cls-2" d="M147.97253,379.10825q.0003-98.24025.003-196.48045c.00022-3.6597-.10622-7.31279,1.0903-10.87842,2.59265-7.72612,6.99174-10.9973,15.15622-11.03009q9.74889-.03916,19.498.00063c7.77321.03454,11.95151,3.01225,14.59885,10.34649a29.94292,29.94292,0,0,1,1.60384,10.299q-.02535,197.7303-.00325,395.46062a29.89648,29.89648,0,0,1-1.68279,10.78472c-2.75536,7.247-7.04308,10.24689-14.74171,10.27692-5.99932.02344-11.99878.0105-17.99819.00482-10.56631-.01007-16.66533-5.69348-17.40291-16.30853-.173-2.48938-.11711-4.99664-.11732-7.49567Q147.96853,476.59825,147.97253,379.10825Z"/><path class="cls-2" d="M1756.21286,379.35343q-.00056,98.23974-.01514,196.47946c-.00085,3.15064.17627,6.30524-.70483,9.42774-2.54712,9.0263-7.17566,12.61981-16.54773,12.63147q-8.99908.01116-17.998-.003c-8.50879-.02594-13.70861-4.02124-15.68261-12.40436a39.20754,39.20754,0,0,1-.95362-8.90467q-.06756-197.22939-.056-394.45877a31.54032,31.54032,0,0,1,1.8534-11.75973c2.6593-6.74463,6.82837-9.59726,14.10412-9.63944,6.33252-.03671,12.66541-.01986,18.99805-.007,10.09289.02052,15.97424,5.44789,16.85644,15.66436.21436,2.4838.14075,4.99547.14112,7.49433Q1756.21769,281.61364,1756.21286,379.35343Z"/><path class="cls-2" d="M133.30328,379.37275q0,97.48883-.00772,194.97766c-.00041,2.66443.05509,5.34546-.20465,7.99036-.9994,10.17712-6.93612,15.54034-17.05137,15.55157q-8.749.00971-17.498-.00085c-9.26565-.01477-14.62882-4.31-16.392-13.38923a44.55945,44.55945,0,0,1-.74339-8.43762Q81.354,379.33709,81.37043,182.6095a33.88889,33.88889,0,0,1,1.34964-10.84614c2.63184-7.91007,6.85245-11.01021,15.10833-11.04433q9.24879-.03822,18.49785-.00357c9.97536.02283,15.72261,5.17612,16.75316,15.19a83.23637,83.23637,0,0,1,.21588,8.48967Q133.31088,281.88392,133.30328,379.37275Z"/><path class="cls-2" d="M1770.88229,379.37662q0-97.7389.00806-195.47779a77.47663,77.47663,0,0,1,.21265-7.98984c1.042-10.01741,6.77966-15.17021,16.75244-15.19361q8.99891-.02109,17.99792.00077c9.24353.02484,14.57544,4.36407,16.23377,13.44624a47.29974,47.29974,0,0,1,.6947,8.44273q.04871,196.72767.03381,393.45537a32.87757,32.87757,0,0,1-1.44177,10.83258c-2.66638,7.75861-7.10254,10.97364-15.22583,10.99646q-8.9989.02527-17.99792.00275c-10.11768-.01105-16.05811-5.37543-17.0553-15.54749-.25928-2.64495-.20435-5.32592-.20484-7.99035Q1770.87516,476.86551,1770.88229,379.37662Z"/><path class="cls-2" d="M69.10021,379.28763q-.002,41.21564.02719,82.43116a24.72133,24.72133,0,0,1-2.9254,12.46426c-2.65187,4.73154-6.46719,7.36792-12.12987,7.21738-6.32353-.16812-12.65506-.03018-18.98311-.03446-11.09576-.00747-16.9836-5.53372-17.88218-16.82333-.11863-1.49051-.06806-2.99582-.06813-4.49426q-.004-80.93244-.02154-161.8649a29.90665,29.90665,0,0,1,1.72158-11.26135c2.80621-7.07511,6.83635-9.86844,14.414-9.89484,5.8284-.0203,11.65692-.007,17.48539-.00549,12.09092.003,18.20905,6.05584,18.33837,18.33612.09819,9.32449.0243,18.65088.02475,27.97641Q69.10261,351.311,69.10021,379.28763Z"/><path class="cls-2" d="M1835.08566,379.62733q.002-41.4652-.02893-82.93036a24.57241,24.57241,0,0,1,2.23145-11.14371c2.70251-5.47958,6.70837-8.8747,13.32556-8.58691,6.1499.26742,12.32056.05239,18.48206.056,11.12023.00644,16.98327,5.5091,17.88415,16.82773.11865,1.49048.06665,2.99585.06677,4.49433q.004,80.93211.01941,161.86419a29.60032,29.60032,0,0,1-1.71545,11.25806c-2.84912,7.10788-6.798,9.85819-14.41394,9.89288-5.99488.02732-11.98987.0112-17.98487.00675-11.34607-.00842-17.53039-5.86258-17.80981-17.31088-.22742-9.32007-.0564-18.64991-.05725-27.97541Q1835.08206,407.85367,1835.08566,379.62733Z"/><path class="cls-3" d="M1003.59775,299.86808c-6.24359-18.86533-21.57129-27.31125-40.40845-23.20621,28.0011-33.1252,55.63434-65.81518,83.26758-98.50516l.772.44475C1032.75143,218.83936,1018.274,259.07728,1003.59775,299.86808Z"/><path class="cls-4" d="M948.80728,306.49665a23.72112,23.72112,0,0,1,24.30866-23.74612,24.0513,24.0513,0,0,1,23.757,23.9504,24.38034,24.38034,0,0,1-24.21442,24.12723A24.02007,24.02007,0,0,1,948.80728,306.49665Z"/><path class="cls-4" d="M1049.86655,134.8594a21.90728,21.90728,0,0,1,22.13537-21.68855,21.99484,21.99484,0,1,1-.69775,43.98261A21.72539,21.72539,0,0,1,1049.86655,134.8594Z"/><path class="cls-4" d="M854.32047,135.3397a21.70437,21.70437,0,0,1-21.91724,21.81456,21.9932,21.9932,0,1,1,21.91724-21.81456Z"/><path class="cls-4" d="M974.09049,103.246a21.99834,21.99834,0,1,1-21.77521-22.12A21.91795,21.91795,0,0,1,974.09049,103.246Z"/><path class="cls-1" d="M599.82053,596.82868c-7.94995-13.777-15.48749-26.84955-23.03449-39.91663q-38.68459-66.97943-77.44076-133.91738c-1.75287-3.0196-1.85749-4.91831.65762-7.61921a46.82741,46.82741,0,0,0,9.82285-17.22216c.77191-2.29547,1.74148-3.14865,4.1708-3.1456q100.43757.12574,200.87525.1344a11.60054,11.60054,0,0,1,1.23754.25787C677.38974,462.46778,638.78836,529.33088,599.82053,596.82868Z"/><path class="cls-1" d="M1304.19,596.51429q-58.0468-100.53195-115.88769-200.70676c1.49731-1.20614,3.02221-.7319,4.39258-.73248q97.942-.0423,195.884-.1022c3.54321-.00574,5.29736.90606,6.37012,4.443a46.00319,46.00319,0,0,0,10.08081,17.06515c1.58716,1.78464,1.80908,3.00061.58923,5.10743q-50.13189,86.58824-100.13989,173.24823A20.79288,20.79288,0,0,1,1304.19,596.51429Z"/><path class="cls-1" d="M1271.37021,854.12177a25.49308,25.49308,0,1,1-.15637-50.98584,25.49312,25.49312,0,0,1,.15637,50.98584Z"/><path class="cls-1" d="M658.43045,828.5a25.223,25.223,0,0,1-25.1037,25.62146A25.49437,25.49437,0,1,1,658.43045,828.5Z"/><path class="cls-1" d="M436.49445,395.151h38.05578C469.51538,407.62833,446.86459,407.94843,436.49445,395.151Z"/><path class="cls-5" d="M1429.28012,395.31162c12.70532,0,25.254,0,37.80359-.00384C1459.74106,407.88575,1436.75742,407.58512,1429.28012,395.31162Z"/><path class="cls-5" d="M1428.83847,363.31785a24.58608,24.58608,0,0,1,38.72205,0h-38.72205Z"/><path class="cls-5" d="M436.74716,363.00288c9.94605-13.10682,31.46671-11.07908,38.13718,0Z"/><path class="cls-1" d="M1117.50644,657.11481a25.491,25.491,0,1,1,.11194-50.98162,25.491,25.491,0,0,1-.11194,50.98162Z"/><path class="cls-1" d="M1499.47861,1150.69575a25.40027,25.40027,0,0,1-50.796.639,25.40168,25.40168,0,1,1,50.796-.639Z"/><path class="cls-1" d="M812.18344,631.817a25.27487,25.27487,0,0,1-25.45282,25.29779A25.49133,25.49133,0,1,1,812.18344,631.817Z"/><path class="cls-1" d="M430.2161,1176.30073a25.1207,25.1207,0,0,1-25.50171-25.17823,25.43583,25.43583,0,0,1,25.53332-25.79943,25.84389,25.84389,0,0,1,25.41376,25.59423A25.50355,25.50355,0,0,1,430.2161,1176.30073Z"/><path class="cls-6" d="M212.29831,1472.78828q0,26.22216-8.30615,47.71679a105.8057,105.8057,0,0,1-23.45117,36.80664,104.37319,104.37319,0,0,1-36.39893,23.69532q-21.25342,8.39063-46.98486,8.38769H10.0278v-233.377H97.1572q25.73,0,46.98486,8.38769a103.85586,103.85586,0,0,1,36.39893,23.77735,106.66838,106.66838,0,0,1,23.45117,36.88769Q212.29856,1446.56709,212.29831,1472.78828Zm-32.40918,0q0-21.49806-5.86279-38.43457a81.00519,81.00519,0,0,0-16.61133-28.66309,70.88963,70.88963,0,0,0-26.05762-17.915,90.52981,90.52981,0,0,0-34.20019-6.18848H41.62253v182.23926H97.1572a90.47282,90.47282,0,0,0,34.20019-6.18945,71.30807,71.30807,0,0,0,26.05762-17.833,80.12985,80.12985,0,0,0,16.61133-28.58105Q179.88938,1494.28632,179.88913,1472.78828Z"/><path class="cls-6" d="M441.11911,1589.39472h-24.4292a10.49937,10.49937,0,0,1-6.83984-2.11719,12.98387,12.98387,0,0,1-3.90869-5.374l-21.82325-56.34961H279.40036l-21.82324,56.34961a11.43482,11.43482,0,0,1-3.74561,5.21094,10.40313,10.40313,0,0,1-6.84033,2.28027H222.56247l93.31787-233.377h31.92041Zm-65.79492-86.64062-36.64356-94.94727q-1.62963-4.23194-3.41992-9.85254-1.7937-5.61913-3.41992-11.96973a177.79015,177.79015,0,0,1-7.00293,21.98536l-36.64307,94.78418Z"/><path class="cls-6" d="M760.31735,1356.01777,687.52,1589.39472h-28.3374l-59.11817-178.00488q-.81664-2.603-1.54687-5.53711-.73316-2.93115-1.54737-6.18848-.81665,3.25927-1.62841,6.18848-.81666,2.93115-1.62842,5.53711L534.27,1589.39472h-28.3374l-72.79785-233.377H459.355a11.568,11.568,0,0,1,7.084,2.11719,9.41445,9.41445,0,0,1,3.66456,5.375l48.206,162.207q1.13745,4.39746,2.19873,9.44531,1.05688,5.05078,2.03565,10.749,1.13745-5.69824,2.36132-10.83008,1.22169-5.12988,2.6875-9.36425L582.476,1363.51a11.918,11.918,0,0,1,3.82715-5.12989,10.49333,10.49333,0,0,1,6.92139-2.3623h9.12012a10.52408,10.52408,0,0,1,6.83984,2.11719,13.06184,13.06184,0,0,1,3.90869,5.375l54.7207,162.207q1.46559,4.23633,2.687,9.12011,1.22167,4.88526,2.36132,10.25977.813-5.37452,1.79151-10.25977.97706-4.88525,2.11719-9.12011l48.36914-162.207a10.17713,10.17713,0,0,1,3.66455-5.21192,10.73364,10.73364,0,0,1,6.92138-2.28027Z"/><path class="cls-6" d="M984.24509,1356.01777v233.377H968.44821a13.54787,13.54787,0,0,1-6.26953-1.30273,15.79523,15.79523,0,0,1-4.9668-4.39746l-135.01025-175.8877q.32447,4.07373.48828,7.98047.16039,3.9082.16309,7.3291v166.27832H795.167v-233.377h16.28565a22.23022,22.23022,0,0,1,3.583.24511,9.19558,9.19558,0,0,1,2.606.81348,10.02776,10.02776,0,0,1,2.27979,1.62891,25.73522,25.73522,0,0,1,2.44287,2.6875L957.374,1537.11738q-.32812-4.2334-.57031-8.22461-.24316-3.98877-.24414-7.57324V1356.01777Z"/><path class="cls-6" d="M1118.27438,1356.01777q21.49806,0,37.05079,4.23437,15.54931,4.2378,25.56835,12.05176a46.89127,46.89127,0,0,1,14.73926,19.13574,65.65388,65.65388,0,0,1,4.72266,25.48731,50.9397,50.9397,0,0,1-2.6875,16.53027,49.57068,49.57068,0,0,1-8.06152,14.73926,57.53519,57.53519,0,0,1-13.59864,12.2959,74.44622,74.44622,0,0,1-19.29883,8.876q25.73,4.88526,38.67872,18.32129,12.94774,13.43555,12.94726,35.25879a65.56746,65.56746,0,0,1-5.45508,27.03418,57.93829,57.93829,0,0,1-15.96093,21.00879,74.34941,74.34941,0,0,1-25.8125,13.59863q-15.31056,4.80615-34.85157,4.80469h-82.40722v-233.377Zm-42.99511,24.918v79.63769h41.69238a81.81955,81.81955,0,0,0,23.207-2.93164,46.74327,46.74327,0,0,0,16.28613-8.14258,31.831,31.831,0,0,0,9.52735-12.62207,41.65379,41.65379,0,0,0,3.09375-16.2041q0-20.68067-12.377-30.21-12.37792-9.52734-38.43457-9.52734Zm50.48632,183.3789q13.51612,0,23.28907-3.09472a43.19036,43.19036,0,0,0,16.042-8.71289,33.79112,33.79112,0,0,0,9.20117-13.3545,47.66441,47.66441,0,0,0,2.93164-17.01855q0-18.07764-12.86621-28.582-12.86718-10.5044-38.59766-10.50391h-50.48632v81.2666Z"/><path class="cls-6" d="M1379.01364,1566.26874a55.03027,55.03027,0,0,1-12.86621,11.31836,79.98633,79.98633,0,0,1-16.041,7.89942,101.74137,101.74137,0,0,1-17.6709,4.64062,107.97074,107.97074,0,0,1-18.07715,1.54785,83.92,83.92,0,0,1-31.5127-5.78125,69.15463,69.15463,0,0,1-24.918-16.9375,77.685,77.685,0,0,1-16.36718-27.60449q-5.86232-16.44726-5.86231-37.7832a96.09736,96.09736,0,0,1,5.293-32.24609,75.9752,75.9752,0,0,1,15.22656-25.97657,70.08692,70.08692,0,0,1,24.2666-17.26269q14.32911-6.26807,32.2461-6.27051a74.30653,74.30653,0,0,1,27.4414,4.96777,62.15117,62.15117,0,0,1,21.82325,14.33106,65.744,65.744,0,0,1,14.41308,23.126q5.209,13.76514,5.21094,31.35059,0,6.84082-1.46582,9.12012-1.46484,2.28222-5.53711,2.28027H1264.3613q.48779,15.63427,4.31543,27.19727a54.583,54.583,0,0,0,10.667,19.29882,43.03587,43.03587,0,0,0,16.28613,11.5625,55.89951,55.89951,0,0,0,21.17188,3.82715,62.06529,62.06529,0,0,0,18.80957-2.52441,89.42584,89.42584,0,0,0,13.59863-5.45508,103.35658,103.35658,0,0,0,9.52734-5.45605q3.82471-2.52246,6.59571-2.52442a6.3846,6.3846,0,0,1,5.53808,2.76856Zm-23.45215-77.35742a57.20451,57.20451,0,0,0-2.84961-18.48437,41.56548,41.56548,0,0,0-8.30566-14.49512,37.07865,37.07865,0,0,0-13.27344-9.44531,44.83,44.83,0,0,0-17.751-3.33887q-20.84913,0-32.9795,12.13281-12.13329,12.13477-15.06445,33.63086Z"/><path class="cls-6" d="M1444.48337,1448.35956a97.89107,97.89107,0,0,1,11.40039-10.9121,75.15991,75.15991,0,0,1,12.78418-8.38672,64.96569,64.96569,0,0,1,14.332-5.375,68.119,68.119,0,0,1,16.36719-1.873,59.58159,59.58159,0,0,1,23.8584,4.47949,46.21451,46.21451,0,0,1,17.26269,12.70215,56.14109,56.14109,0,0,1,10.50488,19.78809,86.18116,86.18116,0,0,1,3.583,25.56836v105.04394H1525.4238V1484.35078q0-18.72657-8.54981-29.07032-8.55029-10.34033-25.97558-10.34179a48.7302,48.7302,0,0,0-24.02149,6.18945,79.087,79.087,0,0,0-20.60156,16.77441v121.49219H1417.123V1424.41913h17.42578q6.1875,0,7.65429,6.0254Z"/><path class="cls-6" d="M1713.68747,1453.73359a12.96473,12.96473,0,0,1-2.60547,2.76855,5.8559,5.8559,0,0,1-3.583.97754,9.65173,9.65173,0,0,1-5.374-2.03613q-2.93262-2.03467-7.24805-4.47852a58.12252,58.12252,0,0,0-10.585-4.47851,57.08553,57.08553,0,0,0-36.88769,2.27929,41.38366,41.38366,0,0,0-15.55274,12.459,56.37963,56.37963,0,0,0-9.44629,19.70605,97.78587,97.78587,0,0,0-3.17578,25.89453,94.575,94.575,0,0,0,3.41992,26.627,56.79542,56.79542,0,0,0,9.69043,19.54394,41.658,41.658,0,0,0,15.14551,12.05078,46.51086,46.51086,0,0,0,19.9502,4.15332q10.585,0,17.42578-2.52441a51.01068,51.01068,0,0,0,11.31933-5.61914q4.47657-3.09082,7.49121-5.61816a9.33415,9.33415,0,0,1,5.94434-2.52442,6.38289,6.38289,0,0,1,5.53711,2.76856l8.14258,10.58593a57.71,57.71,0,0,1-12.21387,11.40039,75.17507,75.17507,0,0,1-14.73926,7.89844,80.19281,80.19281,0,0,1-16.52929,4.6416,104.97761,104.97761,0,0,1-17.58887,1.46582,72.08081,72.08081,0,0,1-28.74512-5.70019,65.47957,65.47957,0,0,1-23.04394-16.53027,77.35336,77.35336,0,0,1-15.3086-26.627q-5.53857-15.79541-5.53808-35.99219a108.6055,108.6055,0,0,1,5.13086-34.0371,77.10053,77.10053,0,0,1,14.98242-26.95313,68.08066,68.08066,0,0,1,24.2666-17.6709q14.4126-6.35156,33.1416-6.35156,17.42431,0,30.69824,5.61914a73.54391,73.54391,0,0,1,23.53321,15.87891Z"/><path class="cls-6" d="M1783.5527,1446.40449a87.55688,87.55688,0,0,1,23.45118-17.91407q12.86279-6.67675,29.64062-6.67773a59.58159,59.58159,0,0,1,23.8584,4.47949,46.21451,46.21451,0,0,1,17.26269,12.70215,56.14127,56.14127,0,0,1,10.50489,19.78809,86.18116,86.18116,0,0,1,3.583,25.56836v105.04394h-29.15235V1484.35078q0-18.72657-8.5498-29.07032-8.5503-10.34033-25.97559-10.34179a48.73016,48.73016,0,0,0-24.02148,6.18945,79.08706,79.08706,0,0,0-20.60157,16.77441v121.49219h-29.15234V1349.5041h29.15234Z"/></svg>