<svg id="Layer_1" data-name="Layer 1" xmlns="http://www.w3.org/2000/svg" viewBox="0 0 1000 243.77866"><defs><style>.cls-1{fill:#1a1a1a;}.cls-2{fill:#4699d3;}.cls-3{fill:#1b1b1b;}</style></defs><title>deepmindlab</title><path class="cls-1" d="M128.62368,87.64848a10.6264,10.6264,0,0,1-1.63574-5.53947c.0753-20.16313.02809-40.32662.05464-60.48993.00969-7.37605,4.08088-11.48434,11.41235-11.5919,4.0811-.05985,8.16759.06955,12.24367-.09,2.38229-.09329,3.99194-1.39009,3.90169-4.00367-.08849-2.56176-1.63234-3.75658-4.09433-3.78666-3.46313-.04232-6.95081.24982-10.38644-.06076-11.281-1.01966-21.27181,7.08745-20.994,20.749.40491,19.90773.14748,39.83.05827,59.74559a15.98351,15.98351,0,0,0,2.29218,8.38117q29.337,51.03071,58.54108,102.13781c2.97549,5.18644,4.75947,10.6063,3.83377,16.61651-2.072,13.45249-11.863,21.94081-25.57288,21.97832-28.69857.07852-57.3975.02981-86.09625.00589-.77351-.00063-1.72051.3934-2.52084-.76133,1.97648-3.42475,4.17792-6.83563,5.95121-10.4562,1.15069-2.3494,2.61277-3.02841,5.16116-3.01744,23.25551.1,46.523-.37935,69.76314.22607,13.36949.34827,21.21618-13.17974,13.90763-24.41838-5.37351-8.26311-9.91832-17.06522-14.82966-25.62875-1.16682-2.03444-2.29663-4.09053-3.49022-6.109-1.3523-2.28693-3.40287-3.01573-5.66107-1.70112-2.16927,1.26278-2.23093,3.391-1.19047,5.533.43023.88579.969,1.71888,1.46009,2.575q8.47352,14.77242,16.94279,29.54725c3.96463,6.9417.8823,12.2989-7.14693,12.30547q-51.95469.04233-103.90938.00168c-8.16688-.00576-11.22487-5.43214-7.12587-12.58574q14.44845-25.21562,28.94739-50.40238c7.80859-13.58837,15.58415-27.1959,23.45082-40.75055,3.45891-5.95987,9.62067-5.99507,13.18523-.18757.6453,1.05133,1.24352,2.13166,1.85829,3.20157q9.22238,16.05,18.44311,32.10085c.24575.42769.52728.83762.74072,1.28058,1.301,2.70058,3.32661,4.34927,6.1888,2.64236,2.69459-1.607,2.0613-4.07091.671-6.474-7.1067-12.28336-14.09316-24.63672-21.25338-36.88863-6.31959-10.81345-20.17608-10.74739-26.48444.1752q-26.662,46.16379-53.128,92.44072c-6.3721,11.147.54327,23.02562,13.33515,23.1595q10.01872.10494,20.03917-.01368c2.14458-.02542,2.72042.38986,1.45941,2.41922-2.018,3.24751-3.91247,6.57708-5.72654,9.94343a3.15113,3.15113,0,0,1-3.20366,1.8924c-7.42067-.09247-14.84869.09809-22.26257-.15318a22.62548,22.62548,0,0,1-18.26316-9.84058c-6.46486-9.01152-6.86568-18.526-1.3514-28.17025Q45.72378,141.84365,75.37,90.1367c.91831-1.6033,1.90123-3.12256,1.89756-5.11939-.04018-21.64768.10108-43.29667-.09741-64.94263C77.0764,9.85239,68.95919,2.23613,58.755,2.14076c-3.9581-.037-7.91841.06193-11.87474-.02932-2.86-.066-5.09592.81044-5.09964,3.95063-.00376,3.20075,2.40867,3.95932,5.15971,3.95333,3.58736-.00779,7.17507-.033,10.762.00657,7.66084.08459,11.57762,4.01519,11.58768,11.72084.02619,20.16331-.00838,40.32676.03742,60.49a9.94709,9.94709,0,0,1-1.43675,5.22749Q55.93827,108.13026,44.117,128.8761C32.46218,149.22041,20.74007,169.52657,9.17717,189.923c-10.41823,18.37738-2.18345,41.00164,17.29152,47.84742,2.06479.72576,4.19315,1.27075,6.292,1.89965H163.40526c7.45411-1.71792,14.23388-4.62872,19.58461-10.39227,10.04658-10.82174,11.73524-26.23463,3.984-39.80945Q157.87838,138.51291,128.62368,87.64848Z"/><path class="cls-1" d="M614.74417,87.301c0-5.61812-.01844-5.341-5.60634-5.71195-3.95465-.26255-6.04309.98578-7.99507,4.55913-8.10077,14.82935-16.61,29.4358-25.00076,44.106-.64,1.11888-.97572,2.49733-2.42235,3.35543-.728-1.20356-1.43752-2.31683-2.08921-3.463-7.98746-14.04813-16.21282-27.96968-23.81237-42.22482-2.61952-4.9136-5.5165-6.93812-11.10191-6.41333-3.20293.30092-3.70583,1.15295-3.69251,4.05.11322,24.60813.06475,49.217.06475,73.82566,0,8.16651,0,8.06022,8.07317,8.06086,2.48655.00018,3.06113-.77216,3.04495-3.15763-.10823-15.95159-.06415-31.90422-.06882-47.85648q-.002-6.75232-.00022-13.48874c1.158.52265,1.43109,1.97522,2.0584,3.073q11.38375,19.92063,22.61841,39.92606c1.161,2.07376,2.21938,3.35036,4.98941,3.3258,2.808-.02491,4.05663-1.15934,5.312-3.40513,8.06312-14.42377,16.26284-28.77115,24.41766-43.14363l.69364.15912c0,.57947.02641,1.16034-.00385,1.73827-.97119,18.53776-.34619,37.09007-.50218,55.63512-.06007,7.14517-.00022,6.92222,7.13643,7.2275,3.44487.14738,3.97377-1.0136,3.95814-4.12578C614.68872,138.00256,614.74422,112.65168,614.74417,87.301Z"/><path class="cls-2" d="M93.747,131.14554Q77.57,159.228,61.4768,187.35846c-2.79884,4.891-1.07906,7.74784,4.61513,7.76025,10.62941.0232,21.25891.00666,31.88836.00661q16.12965-.00006,32.25919-.0058c5.96073-.01128,7.60159-2.78421,4.64082-7.94573q-16.033-27.95071-32.14026-55.85885C99.82874,126.27144,96.59043,126.20942,93.747,131.14554Z"/><path class="cls-1" d="M288.48511,82.13719c-9.96839-1.13742-20.01308-.18521-30.01717-.48569-2.75068-.08263-2.13909,1.74158-2.14131,3.23229q-.02957,19.84527-.01142,39.69057,0,19.84532.01785,39.6906c.003,1.337-.65576,3.16746,1.8717,3.12061,10.99553-.20374,22.07818.94858,32.97068-.76477,20.99242-3.30206,33.58495-18.53255,34.48029-40.85652C326.59883,102.25012,311.83653,84.8017,288.48511,82.13719Zm24.99563,51.521c-2.88837,13.28884-13.19293,22.1861-26.869,22.85672-5.54649.272-11.11618.042-16.669.22876-2.15.0723-2.65831-.66175-2.6381-2.70833.09759-9.88067.044-19.7628.04395-29.64442,0-9.75808.06873-19.51706-.05179-29.27365-.02768-2.24361.52044-3.01563,2.85756-2.92058,7.13987.29033,14.33606-.49977,21.40344,1.11286,12.56788,2.86771,20.96618,12.08714,22.42994,24.86932A47.14957,47.14957,0,0,1,313.48074,133.65814Z"/><path class="cls-1" d="M993.97526,135.01176c-.90287-13.94584-10.61-25.63405-23.48236-27.82054-9.61872-1.63383-17.70164,1.52914-24.57524,9.83007.98224-9.99367.49538-19.02041.58064-28.03727.06932-7.31938.00924-7.15786-7.24339-7.37791-3.05166-.09261-3.89934.69953-3.88248,3.81579.13447,24.84236.075,49.68572.075,74.52881,0,7.5991-.00036,7.51179,7.55058,7.48561,2.19581-.00761,3.15549-.46362,2.97282-2.85285-.11988-1.56792-.45116-3.28145.35447-5.02737,11.58945,14.57731,34.6713,13.01854,44.477-6.51936C993.64533,147.372,994.38029,141.2691,993.97526,135.01176Zm-11.08664,3.13012c.06642,13.5982-9.28273,22.52377-21.55739,20.67151-9.8476-1.48605-16.5823-11.77847-15.25328-23.31069,1.25281-10.87026,7.998-18.07034,17.325-18.493,10.19954-.46217,18.60042,7.20117,19.47338,17.795C982.96745,135.91,982.88862,137.02916,982.88862,138.14188Z"/><path class="cls-1" d="M775.823,88.06824c0-6.38624-.01431-6.12918-6.322-6.47967-3.90885-.21719-4.94854.96575-4.80193,4.82427.376,9.90246-.24411,19.82432.64408,30.19635a13.66938,13.66938,0,0,1-1.29178-1.03485c-9.80075-11.04364-25.85124-11.844-36.60678-1.73858-9.21857,8.66139-11.783,19.52907-9.41416,31.52369,2.21675,11.22482,8.73746,19.53609,19.88445,22.8015,10.47192,3.06764,19.7802.27464,27.16513-8.82214.78135,8.055.79386,7.81692,6.84442,8.13579,3.42217.18036,3.9885-.97241,3.972-4.10978C775.76494,138.26652,775.823,113.16727,775.823,88.06824ZM756.50586,156.3051a17.82077,17.82077,0,0,1-20.13522-.631c-5.9-4.44156-8.08972-10.62986-8.09-17.78156.03824-13.15247,8.90677-21.96459,20.915-20.77417,7.12107.70592,13.49494,6.5421,15.37525,14.07822C767.1108,141.37566,763.87683,151.44373,756.50586,156.3051Z"/><path class="cls-1" d="M486.88179,107.619c-5.41638,1.24343-9.7072,4.4291-13.5939,9.21771-.14824-3.01188.55668-5.92077-.58712-7.40446-1.31891-1.71086-4.4011-.29884-6.6792-.64752-2.74873-.42067-3.50621.54576-3.4913,3.3861.12736,24.24686.07285,48.49467.0729,72.74221,0,8.343-.00023,8.24639,8.25866,8.22378,2.28965-.0063,2.91537-.59845,2.85847-2.88882-.25114-10.11346.27859-20.23743-.43739-30.31922.67556-.137.92574.27836,1.26509.651,10.13434,11.12814,26.01684,11.67735,36.92968,1.29055,11.69012-11.12664,13.23987-31.33539,3.2525-44.0469C507.58836,108.73372,498.33649,104.98934,486.88179,107.619Zm23.16639,30.64656c.06094,13.56149-9.38552,22.46958-21.649,20.53242-9.69374-1.53122-16.34924-11.65469-15.15266-23.04828,1.07585-10.24381,7.20344-17.53595,15.618-18.5862,10.91411-1.36223,20.12692,6.19256,21.16838,17.3955C510.14677,135.78441,510.04818,137.02956,510.04818,138.26557Z"/><path class="cls-1" d="M923.15757,137.46174c.00054-4.07775.1776-8.18083-.69065-12.19175-2.04232-9.4335-8.17888-15.1793-17.24169-17.4008-10.40414-2.55029-20.19592-1.27818-27.90815,7.18323-4.84044,5.31067-4.7336,5.62423,1.85167,8.47509a10.52987,10.52987,0,0,1,1.01976.43281c1.985,1.1226,3.27845,1.32331,4.8417-1.16931,3.37378-5.379,11.65995-7.3172,18.35767-4.86658,6.26777,2.29327,9.51352,7.42965,8.86591,14.24988-12.43886-4.22327-22.45971-3.99022-30.77.6052-7.88837,4.36214-11.091,10.82518-9.95923,20.09857.8899,7.29214,6.6748,13.62352,14.572,15.45653,10.30493,2.3919,19.30113.33019,26.603-9.59584,0,3.407-.85729,6.28254.21158,7.812,1.41528,2.02524,4.57866.47345,6.95334.83513,2.53906.38669,3.40332-.55568,3.35467-3.21784C923.05626,155.26858,923.1563,146.36425,923.15757,137.46174Zm-10.7057,7.006c-1.14435,10.94429-16.03618,18.35853-25.41486,12.59792-5.00608-3.07485-5.82966-8.99262-1.87179-13.70217,3.718-4.42421,8.85948-4.96018,14.13494-5.09569,3.83093.23876,7.61264.58218,11.13621,2.37654A3.31265,3.31265,0,0,1,912.45187,144.46773Z"/><path class="cls-1" d="M368.28672,107.70586c-12.66788-3.10811-24.14107,1.16922-31.14416,11.65591-5.71734,8.5614-6.7969,18.04819-4.32956,27.719,3.03987,11.915,10.72573,19.66607,23.12467,21.67092,11.44034,1.84981,21.35409-1.12468,28.43615-10.93441,3.17443-4.39712,3.10792-4.44442-1.7322-6.44768-1.139-.47146-2.31465-.87373-3.40418-1.44079-1.48641-.77365-2.17878-.46375-3.10593,1.075-4.13914,6.86957-11.47655,9.61971-19.53532,7.60381-7.07662-1.77021-12.84307-8.64989-13.66738-15.92155-.264-2.32884.55881-2.635,2.55351-2.605,6.6777.10021,13.35785.038,20.03709.03792q7.79244-.00007,15.58483,0c8.11749,0,8.11749,0,7.28825-8.01763C387.14475,120.03752,379.1852,110.37979,368.28672,107.70586Zm6.27755,23.33842c-4.67778-.12369-9.36105-.03738-14.0421-.03765-4.92738-.00027-9.855-.02877-14.782.01663-1.53479.01409-2.27786-.23745-1.78457-2.08373,1.79576-6.721,8.66384-11.90786,16.03717-11.95774,8.54-.05777,14.53749,4.12047,16.63567,11.31752C377.2735,130.51211,376.8116,131.10372,374.56427,131.04428Z"/><path class="cls-1" d="M432.64128,107.70994c-12.77494-3.16284-24.27445,1.22454-31.3407,11.97324-4.94265,7.5184-6.20167,15.8612-4.73646,24.51751,1.96652,11.61795,8.22736,20.20386,19.82283,23.57746,11.6011,3.37523,22.33,1.61218,30.77423-7.94124,5.18255-5.86332,5.04147-6.31711-1.94114-9.20648a8.4281,8.4281,0,0,1-1.02175-.42606c-1.7409-1.00911-2.968-1.0492-3.93178,1.18626a12.07246,12.07246,0,0,1-5.32258,5.52211c-11.57328,6.65877-27.0178-1.74243-27.81646-15.03649-.13152-2.18983,1.15228-1.73885,2.27914-1.74316,6.80365-.026,13.60744-.01291,20.41118-.01354q7.97892-.001,15.95788-.00064c7.94537,0,7.94533,0,7.06561-8.03779C451.52255,120.03226,443.54719,110.41006,432.64128,107.70994ZM438.24,131.066c-4.55754-.23514-9.13638-.05853-13.70607-.05917-4.81674-.00063-9.63389-.03842-14.44991.0208-1.587.01948-2.22381-.27954-1.742-2.09066,1.668-6.26972,8.23533-11.58062,14.96971-11.92952,8.62977-.44713,14.78445,3.25023,17.38431,10.3457C441.60083,129.82251,441.59444,131.23905,438.24,131.066Z"/><path class="cls-1" d="M707.43489,127.20937c-.55745-12.76383-9.41869-20.56948-22.1707-20.371-7.54119.11739-13.47016,3.50725-18.2999,9.844-.74611-7.91882-.74969-7.77887-7.37152-7.94732-2.70166-.06877-3.5276.54155-3.49973,3.40328.15671,16.07192.07552,32.14624.07552,48.2197,0,7.05832.00548,6.88194,7.21961,7.10467,3.20166.09886,3.88053-.97,3.82222-3.96412-.18294-9.39309-.04222-18.79221-.05971-28.18892-.01056-5.69741,1.70034-10.708,5.88312-14.68673,4.44228-4.22567,9.74783-4.43834,15.22641-2.76486,5.24964,1.60353,7.47428,5.73678,8.15827,10.85707a46.52,46.52,0,0,1,.39081,5.91026c.04195,8.28381.01807,16.568.01812,24.852.00009,8.50921-.00349,8.44864,8.62261,7.95321,1.79105-.10284,2.3234-.671,2.308-2.39747C707.64547,152.42407,707.98473,139.79769,707.43489,127.20937Z"/><path class="cls-1" d="M861.84814,156.63484c-10.01741.15685-20.04171-.07209-30.05694.14434-3.05283.066-3.57675-.95107-3.56253-3.72051.10856-21.15262.05935-42.306.05935-63.45917-.00009-8.00934-.00172-7.8799-7.849-7.98854-2.69056-.03725-3.23378.83458-3.21086,3.34061.11979,13.11138.05591,26.22444.05591,39.3369-.00009,13.35989.06977,26.72045-.06216,40.07907-.02473,2.51151.74484,3.08645,3.12469,3.06588,12.493-.10783,24.98744-.05038,37.48138-.05038,7.31181,0,7.201-.00118,7.28163-7.41887C865.1372,157.42271,864.50074,156.59329,861.84814,156.63484Z"/><path class="cls-3" d="M641.97219,138.00718q.00014-10.74513,0-21.49019c0-7.769-.00331-7.62075-7.65609-7.79337-2.82394-.06365-3.44124.74262-3.41741,3.472.13782,15.80765.06733,31.61716.06733,47.42607,0,7.934-.00019,7.83592,7.93907,7.82164,2.42248-.00439,3.16528-.664,3.12405-3.13007C641.88275,155.54667,641.97205,146.77618,641.97219,138.00718Z"/><path class="cls-1" d="M98.276,77.63827c3.4354-.04259,3.84646-2.7568,3.82712-5.5932-.05392-7.90464-.01872-15.80987-.02021-23.71483-.0015-8.02851-.02089-16.05711.00929-24.08548.01019-2.713-.4643-5.16918-3.78575-5.21349-3.54309-.04725-4.01066,2.495-4.00454,5.36794q.0511,23.90013-.008,47.8004C94.28411,75.12264,94.90109,77.68,98.276,77.63827Z"/><path class="cls-3" d="M636.34038,80.81615A7.55429,7.55429,0,0,0,628.72,88.6265a7.66687,7.66687,0,0,0,7.74335,7.7424,7.83633,7.83633,0,0,0,7.7163-7.86219A7.73193,7.73193,0,0,0,636.34038,80.81615Z"/></svg>