<svg id="Layer_1" data-name="Layer 1" xmlns="http://www.w3.org/2000/svg" viewBox="0 0 873.47608 193.26277"><defs><style>.cls-1{fill:#ef002f;}.cls-2{fill:#fefefe;}</style></defs><title>deepdetect</title><path class="cls-1" d="M74.22878,24.1023c-20.64856-5.44067-41.54968-3.47778-62.43927-1.42309-4.0943.40258-4.72375,2.24951-4.69922,5.76074.12464,17.813.05744,35.6272.05726,53.44092-.00019,18.14672.02386,36.29345-.02759,54.44018-.00727,2.55737.10052,4.46192,3.46856,4.73242,18.27051,1.46729,36.55048,2.62867,54.686-1.00512,16.009-3.20752,29.90552-10.12305,39.03491-24.41748,8.29584-12.98951,10.5047-27.35645,9.61066-42.48951C112.46829,48.56934,98.06619,30.38331,74.22878,24.1023Zm7.11493,61.1438c-1.42779,14.772-7.75775,25.99561-22.92486,30.49243-5.335,1.58179-10.83271,1.40552-16.32032,1.61328-3.619.137-3.52587-1.81176-3.51892-4.33911.04767-17.31128.02484-34.6228.02472-51.93432V55.08594c0-9.40576,0-9.40576,9.66022-9.35888C72.44247,45.55811,83.636,61.5293,81.34371,85.2461Z"/><path class="cls-1" d="M459.94131,24.02686c-20.32672-5.32739-40.90131-3.29541-61.46649-1.50512-4.776.41577-5.449,2.60888-5.40583,6.71557.184,17.479.07819,34.96094.07819,52.44165q.00009,27.22009-.00946,54.44019c-.00232,2.39038-.2738,4.61645,3.25043,4.90576,18.43579,1.51367,36.88818,2.69311,55.17865-1.02857,15.8089-3.21679,29.559-10.08813,38.6289-24.199,8.33747-12.97119,10.6308-27.31836,9.72541-42.45361C498.42727,48.3711,484.08657,30.35548,459.94131,24.02686ZM467.356,85.16651c-1.40179,14.75513-7.68866,26.02466-22.86041,30.54565-5.16736,1.5398-10.49,1.46265-15.81708,1.6377-3.35577.11035-4.17541-1.0686-4.13946-4.25708.15405-13.64771.06543-27.2981.0653-40.94727-.00006-6.8247.30054-13.66748-.10559-20.46777-.27118-4.54126,1.17322-6.4248,5.69208-5.96142a37.93411,37.93411,0,0,0,3.99274.01562C458.3926,45.52906,469.60976,61.44385,467.356,85.16651Z"/><path d="M346.35073,51.8567a38.77491,38.77491,0,0,0-24.40076,9.509c-1.39483-7.751-1.39483-7.751-8.54083-7.751-4.66211,0-9.33069.15283-13.98449-.0437-4.38373-.18506-5.83808,1.75757-5.72651,5.98657q.48057,18.21168.52533,36.43433.11151,36.71374-.03894,73.428c-.02307,4.4187,1.3714,6.43848,6.03058,6.26953,6.65149-.24072,13.31885-.11963,19.97809-.03809,3.58527.0437,5.19989-1.56982,5.08289-5.13427-.08741-2.66138-.01679-5.32764-.01679-7.9917.00006-8.051,0-16.102,0-24.51343,23.5332,13.04541,49.16272,1.04565,56.76868-21.11206,4.70032-13.69287,4.82007-27.408-.32111-40.96729C376.503,62.208,363.6954,51.01,346.35073,51.8567Zm4.7898,59.58154a13.83961,13.83961,0,0,1-15.69977,6.7727c-5.73108-1.34985-9.78613-6.21582-10.10816-12.64306-.24078-4.80664-.21789-9.64087-.02862-14.45166.28131-7.15186,5.05347-12.9458,11.23736-14.01367,7.1905-1.24146,13.16645,2.35327,15.9712,9.67724a31.51453,31.51453,0,0,1,1.75537,11.34546C354.15316,102.37549,353.65707,107.13917,351.14053,111.43824Z"/><path d="M137.17117,58.60645c-15.40839,10.20435-22.94471,30.85205-18.76148,51.23609,3.1792,15.49194,12.03674,26.27075,27.17865,30.8706,16.25708,4.93872,32.51294,3.26441,48.50946-2.032,2.52741-.83692,2.83417-2.12036,2.28552-4.4563-1.02453-4.36157-1.8645-8.77417-2.5841-13.19751-.645-3.96411-2.37909-5.446-6.52918-4.17627a60.15671,60.15671,0,0,1-23.71441,2.229c-6.824-.68188-12.81733-3.05126-16.2345-10.791,16.83862,0,32.81122-.00635,48.78375.00806,2.00183.0017,4.04175.36669,4.38428-2.59375,1.60571-13.88038.70062-27.30713-7.68439-39.15259C181.27718,50.26612,155.25332,46.6316,137.17117,58.60645Zm31.638,27.05078c-3.13611-.17334-6.28925-.03955-9.435-.03906-2.649.00024-5.3158-.19507-7.94318.04346-4.55426.41357-4.11889-1.648-2.57263-4.582,2.71277-5.14746,7.17218-7.59229,13.03742-7.092,5.147.43872,7.8822,3.63256,9.52874,8.16162C172.35848,84.71827,171.68307,85.81617,168.80917,85.65723Z"/><path d="M223.30837,58.50342C208.02346,68.53907,200.291,89.17017,204.25692,109.189c2.81073,14.1875,10.19672,24.9353,23.93372,30.22168,17.41284,6.70117,34.869,4.79639,52.19537-.88623,2.39728-.78613,2.48145-2.07031,2.02948-4.13013-.99622-4.54028-1.81372-9.12011-2.67871-13.68872-.68414-3.61328-2.38812-5.10644-6.30158-3.90136a60.5529,60.5529,0,0,1-23.709,2.2937c-6.85394-.65406-12.8963-2.97852-16.42566-10.80884h5.66217c14.32355,0,28.64716-.01807,42.97058.019,2.2356.00562,4.282.24829,4.62958-2.92578,1.40423-12.82519.59527-25.26587-6.24408-36.64258C269.52993,50.79346,242.4136,45.95948,223.30837,58.50342ZM254.8688,85.657c-3.13611-.17481-6.28955-.03931-9.43543-.03906-2.81469.00024-5.6394-.14966-8.44171.03686-3.79407.25244-3.704-1.30224-2.34784-4.06494,2.70685-5.51416,7.06842-8.10352,13.19379-7.60547,5.14441.41846,7.9137,3.571,9.5628,8.11182C258.30142,84.57716,257.84182,85.82276,254.8688,85.657Z"/><path d="M523.44418,58.40137C507.985,68.45533,500.21291,89.24659,504.34,109.50831c3.61578,17.75244,15.01215,29.33691,32.68243,32.64892a84.52473,84.52473,0,0,0,40.87-2.71093c3.63232-1.114,5.78528-2.332,4.16308-6.86011-1.32684-3.70337-1.63269-7.78345-2.288-11.71362-.66827-4.00782-2.59656-5.22828-6.65185-3.9856a59.42453,59.42453,0,0,1-23.71692,2.17554c-6.79456-.71045-12.76-3.09815-16.03235-10.77344,16.92169,0,32.90918-.019,48.89648.02319,2.117.00562,3.935.09912,4.2627-2.76343,1.52923-13.35595.64319-26.30444-6.924-37.92309C568.49844,50.57764,542.0342,46.31129,523.44418,58.40137Zm31.27661,27.25489c-3.13562-.17945-6.28949-.03858-9.43537-.03809-2.48358.00024-4.96722.01758-7.45062-.00342-4.73212-.04-5.14764-.78247-2.66571-5.03247,2.85864-4.89526,7.05151-7.23022,12.8172-6.59985,4.8775.53345,7.6225,3.41846,9.27838,7.79394C558.26309,84.41407,558.06619,85.84766,554.72079,85.65626Z"/><path d="M668.31606,58.49781C653.02761,68.53,645.291,89.15894,649.255,109.17969c2.8089,14.18653,10.18994,24.93653,23.92724,30.22681,17.41285,6.70581,34.86841,4.79981,52.19526-.87817,2.387-.78223,2.49627-2.0564,2.041-4.12525-.99908-4.53955-1.81488-9.11987-2.68054-13.68823-.683-3.60449-2.3692-5.123-6.29389-3.91357a60.58325,60.58325,0,0,1-23.70867,2.29809c-6.85816-.65088-12.89924-2.97729-16.43641-10.8103h5.6543q21.48533,0,42.97064.01807c2.22846.00537,4.28754.26562,4.637-2.91578,1.40887-12.82519.59784-25.26587-6.2367-36.64379C714.542,50.79737,687.42654,45.95753,668.31606,58.49781Zm31.43946,27.18188c-2.97846-.19238-5.97919-.04028-8.97-.04-2.65857,0-5.3172.01586-7.97565-.00342-4.768-.03467-5.15515-.72437-2.66895-5.0166,2.85419-4.92774,7.05481-7.2732,12.84461-6.64771,4.90466.52979,7.64483,3.4519,9.30725,7.82886C703.28256,84.40674,703.14986,85.89893,699.75552,85.67969Z"/><path d="M639.89517,77.62842c.66638-.00048,1.33679-.04858,1.99841.00757,3.78332.321,5.58276-1.25219,5.40124-5.19067-.16851-3.65723-.035-7.32813-.03595-10.99316-.00189-7.73853-.09845-7.83472-7.84143-7.83741-10.665-.00342-10.665-.00342-10.665-10.86328,0-2.499.03906-4.99853-.00855-7.49658-.08722-4.585-1.71643-5.82324-6.3006-4.78589q-5.58893,1.26453-11.15539,2.62744c-4.17969,1.02735-9.57886.89087-12.17524,3.51172-2.687,2.71216-.96527,8.23-.75164,12.471.19793,3.9292-1.201,5.04248-4.81757,4.55884-4.79529-.64136-6.68658,1.616-6.34668,6.3601.24939,3.48047.04608,6.99317.04956,10.49146.007,6.97632.0116,7.16821,6.90436,7.05591,3.30743-.05371,4.18018.96875,4.17389,4.21924-.02283,11.81567-.53,23.644.428,35.44824,1.13916,14.03784,8.34143,22.9873,21.0733,25.56006,7.9292,1.60229,15.889.80053,23.75928-.94336,2.5426-.56324,3.392-1.95118,3.2287-4.561-.23877-3.8164-.1286-7.66064-.04657-11.49023.14349-6.69751,1.08215-9.24-8.35865-8.57813-7.51056.52637-9.46868-1.58374-9.62744-9.196-.132-6.32764-.02856-12.66016-.02868-18.99048C628.75222,77.637,628.75247,77.637,639.89517,77.62842Z"/><path d="M866.7806,125.00977c.26764-6.02539.304-8.52124-8.13251-7.83056-7.76617.63574-9.76611-1.55249-9.86822-9.41895-.11444-8.82056.14154-17.64844-.11487-26.46289-.095-3.26587,1.04474-3.92993,3.95423-3.72339,3.31231.23535,6.65533.00073,9.983.06909,3.05767.063,4.69055-1.20215,4.66479-4.39917-.04022-4.99316-.02295-9.98706-.00433-14.98047.01263-3.40063-1.78693-4.73169-5.03052-4.66455-3.494.07251-6.99951-.13672-10.48315.06617-2.45563.14282-3.12873-.69092-3.05048-3.08985.17377-5.3208.02551-10.65137.06458-15.97754.02258-3.08276-1.4845-5.08838-4.48975-4.38916-8.52686,1.98438-17.26831,3.13379-25.51489,6.26-.00415,4.7981-.032,9.59644-.00049,14.39429.01233,1.86963-.3974,2.9834-2.64728,3.30566-5.9151.84742-8.34369,3.83155-8.359,9.66309q-.015,5.70813-.04217,11.416c.7146,2.594,2.86255,2.65161,4.80578,2.32788,5.07953-.8462,5.93616,1.4436,5.85144,6.05224-.20471,11.13379-.51971,22.28809.37256,33.42041,1.12189,13.9961,7.85584,22.54248,20.42481,25.53,7.24371,1.72193,14.501.894,21.7738-.16333,4.22491-.61426,6.54364-2.11011,5.90314-6.93139A59.90582,59.90582,0,0,1,866.7806,125.00977Z"/><path class="cls-2" d="M807.17391,70.39991c-.04126-1.273-.03692-2.55127-.04657-3.834C807.10336,67.84424,807.11355,69.12257,807.17391,70.39991Z"/><path class="cls-2" d="M818.35482,49.91016c-.06641,2.10523-.57092,3.36841-2.54877,3.75464C817.56741,53.40894,818.32485,52.28712,818.35482,49.91016Z"/><path d="M816.11068,54.16846c2.24988-.32226,2.65961-1.436,2.64728-3.30566-.0315-4.79785-.00366-9.59619.00049-14.39429-1.14441,4.24341-.54956,8.58081-.40918,12.84326.00683.2085.008.4065.00555.59839-.03,2.377-.78741,3.49878-2.54877,3.75464a8.08466,8.08466,0,0,1-1.99823-.00342c-2.10632-.22436-4.462-.51587-5.871,1.73072-.84082,1.34033-1.45581.41162-2.33844.08471a62.31568,62.31568,0,0,0-35.84308-2.24926c-17.26483,3.86059-29.50067,13.856-34.10229,31.30419-4.649,17.62818-2.40271,34.11084,11.39477,47.43921,12.02692,11.61792,43.06922,15.69336,57.21369,7.8396,1.61175-.89477,1.90533-1.93506,1.61542-3.62524-.89985-5.24561-1.59327-10.52661-2.49091-15.77271-.57446-3.35742-2.26294-4.92065-5.95789-3.67138a34.37294,34.37294,0,0,1-14.8222,1.38891c-7.12268-.77319-12.75366-4.08862-15.49286-10.8977-5.1416-12.781-.8916-32.2832,21.35327-30.52979a31.65871,31.65871,0,0,1,7.34009,1.31934c4.11414,1.35083,6.22742.21606,6.99194-4.14526.91724-5.23243,2.22919-10.39576,3.37018-15.58887a28.78009,28.78009,0,0,1,.9588,8.27807c.00965,1.28272.00531,2.561.04657,3.834a26.45154,26.45154,0,0,0,.53553,4.84741l.00006.00025q.02151-5.70813.04217-11.416C807.767,58,810.19558,55.01588,816.11068,54.16846Z"/></svg>