<?xml version="1.0" encoding="UTF-8"?><svg id="Layer_1" xmlns="http://www.w3.org/2000/svg" viewBox="0 0 432 134.57175"><defs><style>.cls-1{fill:#0155fc;}</style></defs><path class="cls-1" d="m115.58304,66.15153c0,17.22892.00005,34.45785-.00008,51.68677q0,1.14482-1.12262,1.14663c-3.2588.00083-6.51761.00073-9.77641.00007q-1.1859-.00024-1.18751-1.17442c-.0003-30.15723-.00026-60.31445-.00027-90.47168q0-1.83735-1.80598-1.83736c-13.30234,0-26.6047-.02019-39.90698.00749-8.13904.01694-15.55668,2.44878-22.19929,7.09557-8.16497,5.71174-13.54315,13.43016-16.03768,23.1005-1.1473,4.44761-1.4257,8.96942-1.11252,13.55687.51869,7.59794,2.97571,14.48715,7.43768,20.62729,6.10912,8.40677,14.2863,13.70155,24.45867,15.88008,1.56137.33439,3.13708.61287,4.74037.64484.48138.0096.72556.22729.86013.66399,1.12161,3.63974,2.2454,7.27885,3.38174,10.914.1752.56048-.02685.67358-.55709.68129-7.97683.11609-15.59626-1.50746-22.74164-5.01705-14.36066-7.05352-23.73262-18.33266-28.06713-33.75046-.86616-3.08091-1.33913-6.23612-1.571-9.43472-.65714-9.06516.49459-17.84827,4.33865-26.13177,7.18666-15.48643,19.09796-25.37387,35.65837-29.59442,3.2842-.83701,6.64159-1.20229,10.03546-1.34739,3.92482-.1678,7.84735-.08267,11.7703-.0891,14.13035-.02316,28.26077-.00223,42.39112-.02695.80842-.00142,1.03302.2029,1.03188,1.0229-.02404,17.28231-.01819,34.56468-.01818,51.84702Z"/><path class="cls-1" d="m86.25192,46.80184c0,1.76264.02054,3.52556-.0035,5.28787-.11447,8.39116-3.18853,15.52439-9.21181,21.35469-.7547.73053-.94958,1.29209-.6293,2.31881,4.37778,14.03336,8.70254,28.08324,13.04025,42.1291.26578.86059.2522.86815-.65942.90996-3.76015.17242-7.52375.1199-11.28529.19185-.64467.01233-.78891-.32416-.94425-.82897-3.07824-10.00312-6.17011-20.00206-9.25942-30.00177-.42456-1.37424-.86951-2.7426-1.26647-4.12475-.16881-.58777-.39082-.67269-.95348-.40432-2.56245,1.22217-5.2745,1.81882-8.11797,1.81716-7.50002-.00438-14.36786-4.56329-17.30954-11.49734-4.75616-11.21112,2.2622-24.0727,14.19961-26.02165,7.68041-1.25394,15.14288,2.14785,19.28567,8.78369.16378.26235.25836.73281.57634.69989.39887-.04129.33972-.55108.41827-.85727.35124-1.36925.57161-2.75559.56338-4.18229-.02355-4.08598.00372-8.17227-.02064-12.25824-.00383-.64429.15701-.88782.84462-.8813,3.31132.0314,6.62325.0296,9.93462.00094.64849-.00562.81943.21266.81067.83404-.03162,2.24292-.01243,4.48655-.01234,6.72991Zm-29.2673,27.08316c3.48856.18619,7.349-2.70196,7.41692-7.31475.0585-3.97291-3.35832-7.36728-7.32966-7.39487-4.01261-.02788-7.28013,3.29419-7.39076,7.30237-.1107,4.01053,3.45443,7.57181,7.30351,7.40725Z"/><path class="cls-1" d="m138.74888,85.25125c0-7.77237-.00042-15.54476.00054-23.31713.00013-1.0383.00338-1.03969,1.0655-1.03947,5.44868.00117,10.89835-.05951,16.34564.02825,3.27397.05275,6.53702.37328,9.71232,1.28815,6.01263,1.73239,9.60764,5.78161,11.25555,11.70133.88359,3.17405,1.19803,6.42255,1.35604,9.70695.18061,3.75405-.10908,7.45522-.92599,11.11045-1.7843,7.98394-6.97434,12.43368-14.78878,14.11901-2.58867.5583-5.21689.77237-7.85467.79165-5.04776.03691-10.09611-.00743-15.14387.02931-.80521.00586-1.0433-.20049-1.04015-1.02132.03-7.79896.01788-15.5981.01787-23.39719Zm9.70684-.13728c0,5.07382-.00065,10.14766.00112,15.22148.00018.44934-.08677.95413.63358.93716,3.08986-.07283,6.18341.15847,9.26858-.28891,4.8706-.70631,8.08773-3.29908,9.26779-8.12128,1.2487-5.1027,1.2414-10.25731.00622-15.35902-1.39325-5.75439-5.13888-7.70556-10.08713-8.23448-2.68847-.28737-5.38765-.08949-8.07975-.18066-.83084-.02813-1.03205.25071-1.02693,1.04465.0323,4.99351.01636,9.98733.01651,14.98105Z"/><path class="cls-1" d="m280.18375,76.41384c.08264-.07111.18159-.12073.22737-.20076,1.6385-2.86427,4.24639-4.28473,7.37829-4.81664,3.4788-.59081,6.95548-.52809,10.34526.56093,4.31136,1.38511,6.58482,4.60186,7.69493,8.7995,1.13254,4.28238,1.12728,8.66482.921,13.03192-.15494,3.28027-.8372,6.48647-2.18913,9.52476-1.57225,3.5334-4.26667,5.66092-7.99965,6.49146-3.2706.72767-6.56412.73013-9.82963-.00853-2.69121-.60871-4.87392-1.99048-6.19433-4.51726-.06116-.11706-.13651-.2279-.2161-.33348-.02657-.03525-.08699-.04499-.18536-.09182-.17302.2923-.09892.61412-.0992.91335-.00511,5.68807-.01708,11.37621.01246,17.06413.00385.74154-.20176.95453-.94383.94147-2.53614-.0447-5.07384-.0375-7.6103-.003-.64262.00874-.8182-.19418-.81768-.8212.0143-16.79718.01389-33.59436.00139-50.39154-.00045-.58619.16754-.79252.77117-.7863,2.61677.02702,5.23408.0233,7.85095.00213.55004-.00444.76246.16129.74233.73112-.03674,1.04017-.01761,2.08267-.00493,3.12399.00305.24959-.09587.52772.14498.78578Zm17.12612,13.82851c.0308-1.70928-.08791-3.78191-.49899-5.82571-.61768-3.07088-2.10468-5.39025-5.39884-6.11376-1.23858-.27203-2.49562-.3033-3.74017-.19559-3.48203.30135-6.22337,1.63154-7.35107,5.6731-1.29851,4.65349-1.29018,9.37292.11043,14.01666.78308,2.5963,2.55412,4.32563,5.21657,5.05668,1.51197.41517,3.06415.46583,4.6032.31935,3.31461-.31545,5.3369-2.05901,6.26576-5.28011.6862-2.37962.79934-4.82219.79312-7.65061Z"/><path class="cls-1" d="m260.00978,104.12322c0,.93475-.05154,1.87331.017,2.80302.05105.69254-.25343,1.01222-.83679,1.24844-1.73791.70368-3.54714,1.14696-5.38401,1.4702-3.26585.57468-6.56461.78958-9.8742.63693-2.99512-.13813-5.94055-.5951-8.6563-1.97932-3.9209-1.99846-5.91774-5.41675-6.87217-9.53826-.8416-3.63432-.96608-7.32621-.71635-11.04403.15609-2.32362.47745-4.60978,1.19615-6.82566,1.53784-4.74145,4.70212-7.78849,9.55914-8.99137,4.51539-1.1183,9.07376-1.16875,13.61698-.22921,5.14807,1.06461,8.01103,4.45036,9.22569,9.41206.77657,3.17216.83049,6.38692.5103,9.61319-.19016,1.91594-.23312,1.87164-2.18126,1.98904-3.80292.22919-7.60237.51482-11.40413.7638-1.941.1271-3.88419.22033-5.82582.33827-1.64879.10014-3.296.22895-4.94553.31262-.52494.02663-.5196.33315-.50183.70207.21338,4.43184,3.01825,7.42113,7.4136,7.92171,5.18791.59083,10.19079-.14421,15.01527-2.10502.59279-.24092.66694-.08434.65223.45709-.02755,1.01413-.00792,2.02954-.00796,3.04443Zm-14.16232-26.0317c-.43296,0-.83597-.03052-1.23309.00479-3.41588.30376-5.84184,1.32753-7.00193,4.90324-.29483.90876-.47415,1.84959-.54531,2.81234-.13516,1.82882-.15159,1.82781,1.67851,1.6951,3.82285-.27724,7.64606-.55034,11.46835-.83523.90149-.06719,1.79921-.18369,2.70025-.25861.37143-.03087.48019-.20518.48778-.56459.01814-.85721-.06155-1.70379-.19634-2.54655-.4338-2.71306-1.95558-4.36528-4.61108-4.9855-.91192-.21298-1.84184-.29138-2.74715-.22501Z"/><path class="cls-1" d="m218.84829,104.18801c0,.85482-.06619,1.71624.01845,2.5626.08605.86061-.29405,1.22973-1.0427,1.51787-2.00228.77065-4.07953,1.21437-6.18594,1.54235-2.90704.45262-5.83795.60221-8.77301.47149-2.64214-.11769-5.24854-.49571-7.72098-1.52027-4.3437-1.79999-6.66359-5.23756-7.77936-9.63536-.53889-2.12399-.7922-4.28791-.84886-6.48121-.09442-3.6563.00704-7.28559.97003-10.85046,1.62165-6.003,5.61672-9.32336,11.64359-10.30488,3.54055-.5766,7.10103-.62911,10.6549-.03505,5.87381.98187,9.12039,4.06903,10.46071,9.9709.80104,3.52727.73975,7.08292.33353,10.65119-.05576.49-.37779.54888-.71774.57184-1.83453.12383-3.67083.22093-5.50592.33671-3.26998.20633-6.53925.42413-9.80938.62786-1.94131.12095-3.88388.2219-5.8256.33655-.79789.0471-1.59454.1178-2.3928.15547-.36407.01717-.50931.13894-.50301.53253.07071,4.41176,2.89342,7.55162,7.32251,8.07824,5.18186.61611,10.18971-.10585,15.01433-2.07284.63135-.25739.71378-.07569.69592.49976-.03144,1.01402-.00878,2.02972-.00869,3.04472Zm-14.17993-26.09644c-.82957-.06263-1.67822.02461-2.52101.16337-2.81723.46387-4.81063,1.91086-5.65006,4.74072-.34979,1.17919-.57953,2.37294-.62185,3.60631-.03774,1.10054-.01456,1.10873,1.03708,1.01931,3.20868-.27281,6.41988-.51591,9.63038-.76694,1.61948-.12663,3.23863-.26043,4.8598-.36102.74857-.04646,1.02612-.38955.91366-1.12358-.12078-.78832-.14602-1.59426-.30794-2.37274-.50571-2.43103-1.86587-4.07021-4.38084-4.63055-.97097-.21634-1.94122-.32689-2.95922-.27488Z"/><path class="cls-1" d="m350.62654,109.65053c-1.72962,0-3.30412-.01726-4.87784.00981-.5168.00889-.67645-.35524-.8968-.67505-4.22494-6.13221-8.47845-12.24517-12.64035-18.41989-.74027-1.09831-1.47178-1.54351-2.81225-1.46486-2.34209.1374-4.69866.0698-7.04779.02251-.76156-.01534-.99333.18241-.98918.96996.03275,6.19563.00513,12.39157.03479,18.58724.00368.76544-.19288,1.0425-.97846.9865-.93002-.06629-1.86986-.04852-2.80246-.00405-.61412.02928-.83305-.20659-.75718-.78819.0137-.10504.0018-.21339.0018-.32022,0-15.51622-.00012-31.03244.00004-46.54865q0-1.11072,1.14133-1.1111c3.65876.0013,7.31971-.07472,10.97561.02843,3.18896.08998,6.3841.26294,9.48051,1.19326,4.36006,1.30998,6.73588,4.18954,7.31329,8.72379.42504,3.3376.47747,6.64664-.39295,9.91264-1.10403,4.14241-3.99145,6.40836-8.01972,7.41411q-1.58205.39501-.62484,1.7503c4.51349,6.38662,9.02753,12.77284,13.53981,19.16029.10338.14632.18869.30538.35265.57316Zm-29.24601-34.63475c0,3.09772.02763,6.19587-.01902,9.29289-.01197.79482.23925.98218.99447.96522,2.16197-.04859,4.32574-.01232,6.48881-.01861,2.00103-.00581,3.99071-.15971,5.96684-.48291,3.69417-.6042,5.57648-2.29158,6.34387-5.81014.50995-2.33826.55757-4.7098.19601-7.07709-.50796-3.32612-2.36486-5.44914-5.66558-6.26755-1.42604-.35358-2.87712-.54465-4.33498-.65765-3.03603-.23529-6.0804-.1516-9.12195-.18254-.66197-.00673-.86855.19925-.86201.86529.03068,3.12411.01366,6.24869.01354,9.3731Z"/><path class="cls-1" d="m354.99283,90.96779c-.01021-3.94849.24797-7.52298,1.40178-10.98041,1.54758-4.63745,4.71799-7.44001,9.51256-8.38428,3.6955-.72782,7.39402-.77561,11.09324.00707,3.69586.78196,6.17596,2.96049,7.55673,6.45667.84972,2.1516,1.29902,4.37514,1.44502,6.6805.10475,1.653-.02641,3.29786-.0279,4.94641-.00051.58705-.18935.91508-.87258.95089-1.91337.10024-3.82252.27966-5.73425.41412-3.08139.21674-6.16312.42784-9.24541.63084-1.86055.12253-3.72278.21939-5.58352.33873-1.54132.09886-3.08123.21953-4.62259.3171-.34044.02155-.486.18085-.46957.50287.11696,2.2883.24993,4.5742.94868,6.7817,1.17423,3.70953,3.76265,5.82268,7.52984,6.43741,5.28648.86264,10.46214.3194,15.48793-1.55213.96817-.36053.96191-.37786.96242.67127.00035.74773-.0407,1.49841.01303,2.24226.04234.58653-.18579.86115-.72137,1.04698-2.14851.74545-4.36382,1.18392-6.60765,1.49713-2.25041.31412-4.51568.41431-6.78256.31349-2.24019-.09966-4.45284-.40354-6.57858-1.17946-4.3122-1.57398-6.61426-4.85463-7.72405-9.12506-.79631-3.06418-1.01826-6.19639-.9812-9.0141Zm4.53427-3.60208c0,.16012.00207.32028-.00035.48036-.01687,1.1239-.01428,1.16387,1.14336,1.08139,2.54792-.18154,5.09192-.41672,7.63882-.61339,4.27237-.3299,8.54481-.66056,12.8198-.95342.59126-.0405.80617-.21246.76978-.80033-.11661-1.88467-.16067-3.7727-.60469-5.62531-.73581-3.07036-2.61021-4.99583-5.68096-5.73198-2.95147-.70756-5.91457-.70648-8.85868.0144-2.69963.66102-4.6825,2.23119-5.7989,4.82129-1.0082,2.33895-1.26157,4.82396-1.42819,7.327Z"/><path class="cls-1" d="m411.55582,106.41606c3.12823.09225,6.16085-.40221,9.08533-1.51488.46843-.17821.62233-.11095.60523.40326-.02657.8002-.06715,1.60778.00967,2.40145.08096.83704-.26617,1.15504-1.04154,1.36532-1.72633.46818-3.47191.83296-5.24238,1.02683-3.21877.35245-6.43207.33507-9.61903-.36857-5.03295-1.11122-8.09023-4.25027-9.4942-9.13396-.98328-3.42052-1.15756-6.92206-1.13898-10.45.01561-2.96526.23416-5.90279.97854-8.78799,1.57251-6.09468,5.44723-9.40816,11.73174-10.06751,4.30238-.45139,8.55006-.22674,12.76072.79092.71644.17315.95299.49388.902,1.2057-.05897.82359-.02602,1.65486-.00986,2.48233.00967.4946-.15883.59457-.62973.43592-3.58895-1.2093-7.29823-1.52167-11.04761-1.30618-2.68104.15409-5.24304.75773-7.14108,2.89118-1.49268,1.6778-2.13869,3.74922-2.45999,5.89833-.72157,4.82607-.78015,9.66717.13488,14.47791.65712,3.45491,2.20048,6.29774,5.78019,7.53234,1.31624.45396,2.67936.68981,4.07425.71449.58727.0104,1.17486.00174,1.76186.00311Z"/></svg>