<svg id="Layer_1" data-name="Layer 1" xmlns="http://www.w3.org/2000/svg" viewBox="0 0 363.29442 78.86147"><defs><style>.cls-1{fill:#8d1818;}.cls-2{fill:#fefefe;}</style></defs><path class="cls-1" d="M151.00285,32.697a10.04847,10.04847,0,0,1-6.97387,1.58192,8.53219,8.53219,0,0,1-7.53776-7.384c-.954-5.51779.97731-10.295,5.10529-12.53551a12.689,12.689,0,0,1,8.26757-1.09849c1.05647.16675,1.3673-.02548,1.30078-1.13084-.11024-1.83164-.02677-3.674-.07461-5.51056-.05112-1.96169-.24955-2.19679-2.05186-2.60134-.34228-.07683-.58484-.10167-.5875-.55073-.00343-.587.38427-.469.72845-.50157a33.95584,33.95584,0,0,0,5.77727-.94121c.78844-.21559.97273-.01426.94213.76287-.34585,8.78421-.09027,17.57258-.14812,26.359-.01534,2.33.0621,2.37034,2.37212,3.07974.36424.11186.41393.28116.417.584.00377.37362-.11138.62337-.53184.62772a34.03016,34.03016,0,0,0-6.15.83667C150.69483,34.501,151.44582,33.25992,151.00285,32.697Zm.13571-8.99072c0-1.99464-.00454-3.9893.00352-5.98391a1.24226,1.24226,0,0,0-.44377-1.14661c-2.70307-2.13625-7.41939-.95153-8.68337,2.25775a12.89915,12.89915,0,0,0-.52815,7.518c.94269,4.46763,4.69419,5.64235,8.428,4.74862a1.38964,1.38964,0,0,0,1.25346-1.65093C151.065,27.54,151.13859,25.62113,151.13856,23.70628Z"/><path class="cls-1" d="M190.51332,17.0464c0-2.63656.02141-5.27337-.00732-7.90962-.02029-1.86332-.33864-2.27984-2.14377-2.75415-.48262-.12681-.51491-.34443-.53318-.7342-.02741-.585.33112-.50811.70338-.48883a65.85,65.85,0,0,0,8.01984.00324c.39607-.02778.70754-.04053.69041.5115-.01288.41492-.10616.60271-.57247.70848-1.615.36635-2.02511.83163-2.15818,2.52714-.34129,4.34808-.0838,8.70586-.152,13.05885a34.26928,34.26928,0,0,1-.26768,4.54022,8.20678,8.20678,0,0,1-7.13658,7.45946,19.5564,19.5564,0,0,1-8.89791-.23494,7.86688,7.86688,0,0,1-6.05531-7.05749,49.10985,49.10985,0,0,1-.19585-5.984c-.01833-3.71682-.02281-7.43371-.042-11.15053-.01147-2.2267-.15884-2.47118-2.24192-3.17123-.52416-.17614-.41067-.49063-.42807-.82188-.02216-.42278.2709-.40263.56346-.38713a79.5482,79.5482,0,0,0,9.21673-.00743c.32349-.02036.55365.05171.52783.442-.02014.30384.05941.58989-.37911.75516-2.28959.86285-2.43719,1.04884-2.4501,3.52838q-.03843,7.37331.00711,14.74689a12.54871,12.54871,0,0,0,.316,2.60964c.67891,3.07207,2.56291,4.38979,6.40916,4.514a10.45318,10.45318,0,0,0,2.96366-.33769c2.67828-.695,3.99138-2.59253,4.19379-6.09774.08055-1.39477.10128-2.79363.12166-4.191.0198-1.35873.00431-2.718.00431-4.077Z"/><path class="cls-1" d="M205.28492,14.7673a10.0728,10.0728,0,0,1,7.87361-1.46474,5.79767,5.79767,0,0,1,4.68028,5.36766c.33665,3.34929.11679,6.707.18668,10.06009.01581.75831.021,1.52018.10084,2.273a2.04119,2.04119,0,0,0,1.78683,1.96023c.36084.06731.84937-.05408.82519.58668-.02656.70395-.55728.45037-.88065.437a86.1056,86.1056,0,0,0-8.61433.00646c-.28313.01665-.67578.17335-.73638-.33976-.05446-.46076.17488-.62157.60983-.68045a2.31881,2.31881,0,0,0,2.09005-2.49428,71.80043,71.80043,0,0,0,.00925-10.534c-.24457-2.77395-1.76759-4.03056-4.54732-3.95948-.1996.0051-.39984.008-.59853.02573-2.72949.24405-2.96077.49358-2.96077,3.18471,0,3.19726-.008,6.39456.00612,9.59175.00316.71649.07792,1.433.12974,2.14883a2.05133,2.05133,0,0,0,1.844,2.02916c.39721.074.84557.02718.77424.63453-.07858.66933-.61294.397-.93818.38469a77.90669,77.90669,0,0,0-8.61453.012c-.30691.02236-.66257.12945-.67666-.38875-.01028-.3776.10462-.56889.5237-.62366,1.59984-.20909,2.161-1.25012,2.23319-2.75492.19934-4.15228.14069-8.3031.04173-12.45571-.032-1.34313-.61845-2.09427-1.9996-2.16517-.4156-.02134-.75188-.11158-.7394-.69267.01326-.61649.37109-.59371.78987-.594a16.5478,16.5478,0,0,0,5.74214-.96426C205.64433,12.84073,204.73835,14.29937,205.28492,14.7673Z"/><path class="cls-1" d="M65.69211,14.9018a10.281,10.281,0,0,1,8.05014-1.60333,5.81646,5.81646,0,0,1,4.73292,5.44545c.32268,3.35081.13129,6.70814.191,10.0621.01213.679.01584,1.3597.06825,2.03614A2.07435,2.07435,0,0,0,80.62,32.96568c.4352.06231.79281.09327.72148.67365-.07621.62018-.55038.3581-.83438.34658-2.87274-.11658-5.74392-.16161-8.61637.00721-.2805.01648-.67916.18216-.7412-.33093-.05455-.45114.1616-.62679.6036-.68876a2.33179,2.33179,0,0,0,2.089-2.50272,68.43766,68.43766,0,0,0-.00924-10.65452c-.271-2.69122-1.81814-3.90594-4.54991-3.82734a8.094,8.094,0,0,0-.83684.04891c-2.60477.34752-2.695.45252-2.695,3.06447q0,4.91688.00357,9.83374c.00137.59849.02976,1.19851.07981,1.795a2.158,2.158,0,0,0,2.03538,2.25156c.433.04536.6812.18058.63672.65119-.04841.5121-.44714.37017-.72965.36028a79.58617,79.58617,0,0,0-8.85546.00735c-.33089.02526-.64508.07513-.64846-.42455-.00272-.401.18648-.49593.5544-.60238,1.75505-.5078,2.02681-.81785,2.16058-2.66576a110.02673,110.02673,0,0,0,.0587-12.45287c-.07148-1.7457-.28514-1.91067-2.02239-2.23492-.50587-.09441-.775-.22-.72481-.8162.05783-.68773.53587-.46889.87793-.472a13.81277,13.81277,0,0,0,5.61556-.98974c.58048-.25929.81713-.06053.8422.52653C65.64691,14.14352,65.66513,14.4174,65.69211,14.9018Z"/><path class="cls-1" d="M350.12528,28.78206c1.35475-4.06051,2.67231-7.94488,3.93909-11.84576.38415-1.183.0176-1.79736-1.22064-2.09323-.51857-.12391-.74183-.24006-.719-.81566.02778-.69895.50457-.51253.84554-.48871a47.87865,47.87865,0,0,0,6.45855.01245c.31358-.02043.68942-.10017.65982.40746-.01836.31431.1873.71366-.38585.8333-1.36862.28568-1.84328,1.42565-2.26734,2.555q-4.09461,10.90506-8.16637,21.81873a20.19407,20.19407,0,0,1-.84142,1.97818,7.92034,7.92034,0,0,1-10.48641,3.691c-1.78311-.79846-1.878-1.17833-.66486-2.6503.1777-.21562.35742-.43048.52124-.65656.52531-.72521.94164-.923,1.62672-.04585a3.344,3.344,0,0,0,5.06525.06711c1.70036-1.88592,2.3328-4.32553,3.19313-6.63377.09033-.24241-.08286-.61061-.19459-.89671q-3.30237-8.45772-6.626-16.9071c-.41981-1.06513-.74215-2.23886-2.21205-2.36307-.48314-.04082-.271-.49469-.2957-.77755-.0339-.38867.23374-.45873.54666-.43764a66.39191,66.39191,0,0,0,8.13142-.008c.36951-.0204.63692.05464.5923.50979-.02934.2992.04233.55657-.40442.72191-1.78386.66025-1.94982,1.03642-1.29038,2.82121C347.28225,21.23831,348.66478,24.88729,350.12528,28.78206Z"/><path class="cls-1" d="M14.12118,4.51566c1.63045.15086,3.09893.30209,4.57032.41586.65551.05069.96607.22427.92069,1.0067-.08544,1.47314-.02114,2.95537-.00544,4.43367.00378.35424.14831.72113-.43818.766-.54112.04136-.6228-.19824-.7043-.67558a3.28157,3.28157,0,0,0-3.06447-3.1464,10.09738,10.09738,0,0,0-4.51091-.01645A3.93256,3.93256,0,0,0,8.97,13.89494a23.21424,23.21424,0,0,0,4.1472,3.02786c1.48314,1.01093,2.99112,1.97868,4.40785,3.09168C21.256,22.94565,21.2543,31.19782,15.3566,33.302c-3.88885,1.38748-7.762,1.07125-11.65265.04089-.483-.12791-.605-.36644-.61013-.83559-.01692-1.55577-.07558-3.11123-.13219-4.66631-.01291-.35462-.009-.656.463-.63683.34079.01383.66065-.08377.83792.42438,1.10433,3.16581,2.18382,3.939,5.526,4.0292a10.67925,10.67925,0,0,0,1.43267-.08873c1.75267-.19017,3.31722-.73515,3.97843-2.56549a4.79438,4.79438,0,0,0-1.03-5.32091,24.00109,24.00109,0,0,0-3.54392-2.64913c-1.30155-.92248-2.66858-1.75885-3.923-2.74024A7.44654,7.44654,0,0,1,3.9146,9.88638C4.891,6.60155,7.38147,5.155,10.57285,4.71473,11.79349,4.54635,13.04075,4.571,14.12118,4.51566Z"/><path class="cls-1" d="M117.68643,23.42955c-.16843,4.41016-1.48026,8.20633-5.86509,10.11816a11.172,11.172,0,0,1-9.18974-.04224c-3.84743-1.67663-5.14538-4.99679-5.33538-8.90106a12.74005,12.74005,0,0,1,.98718-5.729c2.07334-4.80556,6.42118-6.51282,11.68955-5.65766,4.83044.78407,7.55328,4.28514,7.71253,9.493C117.6928,22.95012,117.68643,23.18993,117.68643,23.42955Zm-4.91173.47488a12.42841,12.42841,0,0,0-1.032-5.56089,4.43487,4.43487,0,0,0-4.28088-2.899,4.3468,4.3468,0,0,0-4.258,2.922A13.6748,13.6748,0,0,0,103.27,29.08559a4.35043,4.35043,0,0,0,4.26726,2.91061,4.47614,4.47614,0,0,0,4.26721-2.925A11.89047,11.89047,0,0,0,112.7747,23.90443Z"/><path class="cls-1" d="M49.09615,32.26391a7.42028,7.42028,0,0,1-5.92763,1.95364c-2.66184-.21082-4.50943-1.676-4.99228-4.03693-.59-2.88464.40045-5.3261,2.79425-6.51656a40.45556,40.45556,0,0,1,6.98962-2.434,1.12466,1.12466,0,0,0,.9783-1.32127c-.05957-2.07132-.83908-3.38689-2.48436-3.94937a4.66271,4.66271,0,0,0-5.09247,1.43412c-.281.33724-.364,1.06284-1.1427.549-.77612-.51215-.25888-1.013-.02877-1.42611,1.46331-2.62732,3.87407-3.53467,6.72273-3.54514a10.0451,10.0451,0,0,1,2.13736.22014A5.15432,5.15432,0,0,1,53.49034,18.497c.09636,3.35153-.00464,6.70856-.00486,10.06319a6.00153,6.00153,0,0,0,.13852,1.6626c.25924.88636.8411,1.382,1.80414.88832.32766-.168.55579-.25042.80013.0833.16587.22653.30753.39673.13748.731A4.86343,4.86343,0,0,1,50.60708,33.893,3.29751,3.29751,0,0,1,49.09615,32.26391Zm-.17909-5.18577c0-.95832-.01443-1.91695.006-2.87484.01029-.48229-.14151-.66421-.62882-.49947a19.83173,19.83173,0,0,0-3.97675,1.60743,3.56607,3.56607,0,0,0-1.46092,4.17979c.4304,1.31261,1.51715,1.934,3.25663,1.81706a8.52756,8.52756,0,0,0,1.40775-.25767c1.01039-.24325,1.5914-.77339,1.415-1.93861A13.82006,13.82006,0,0,1,48.91706,27.07814Z"/><path class="cls-1" d="M91.21689,23.64805c.07141,2.02039-.13311,4.4607.12569,6.89281.17706,1.6638.51806,2.01616,2.19974,2.28053a7.11716,7.11716,0,0,0,.94877.12753c.46171.00939.48773.28565.48483.63906-.00347.42041-.28107.41694-.5698.41072-1.11809-.02409-2.23905-.00913-3.35354-.08642-2.11855-.14689-4.22935.04634-6.34366.06061-.34173.00231-.90988.39529-.97915-.41672-.05634-.66017.409-.51777.76417-.604a2.3355,2.3355,0,0,0,1.9625-2.11319A37.34708,37.34708,0,0,0,86.61,25.81282c.02281-2.87809-.03012-5.75723.02837-8.63432.0177-.87036-.26227-1.13854-1.07318-1.01664a3.53046,3.53046,0,0,1-.83785.00084c-.28264-.02585-.70847.15919-.73537-.352-.02194-.41613-.16028-.91694.47279-1.05954,2.01638-.45418,2.36094-1.85185,2.22052-3.67253A11.28183,11.28183,0,0,1,87.082,7.52082a6.834,6.834,0,0,1,5.87442-5.52943,9.748,9.748,0,0,1,6.50869.87991c.88191.47527,1.21769,1.005.42794,1.838-.10924.11524-.19465.25287-.2936.37817-.44189.55961-.68522,1.47916-1.33648,1.62087-.89464.19469-.83625-.96464-1.3113-1.445a3.542,3.542,0,0,0-3.62823-.96809,2.71926,2.71926,0,0,0-1.93971,2.6043,55.17479,55.17479,0,0,0-.17467,5.98449c-.01759.52272.16207.70532.68295.68975.99831-.02986,1.9995.02294,2.99687-.01972.62941-.02693.90572.09945.90594.82728.00053,1.78694.04324,1.78693-1.76,1.787-2.81788.00008-2.81788.00008-2.81788,2.86711Z"/><path class="cls-1" d="M266.17656,22.88576c-1.79748,0-3.59725.05406-5.39145-.02263-.90674-.03875-1.08356.298-.98374,1.0935a16.10941,16.10941,0,0,0,.55543,2.93286c.91989,2.871,3.02694,4.3552,6.26648,4.38019a9.26045,9.26045,0,0,0,4.29288-.89954c.355-.178.65378-.40835.97817.13869a.78453.78453,0,0,1-.1206,1.139,9.788,9.788,0,0,1-7.33258,2.63478,12.99107,12.99107,0,0,1-2.72108-.33717,7.34167,7.34167,0,0,1-5.77912-5.16084c-1.46349-4.88753-1.03829-9.53016,2.635-13.37925,2.60572-2.73042,7.88336-3.09871,10.989-.96314,2.42963,1.67072,2.92153,4.22155,3.08848,6.934.06925,1.12512-.1257,1.65681-1.44686,1.54391C269.54109,22.77775,267.8542,22.88575,266.17656,22.88576Zm-2.34171-2.32463c1.07475,0,2.14966.01014,3.22414-.00685.28167-.00445.63274.13564.75457-.34462a4.53361,4.53361,0,0,0-2.07175-4.37812,4.01608,4.01608,0,0,0-4.09017.27745c-1.363.9723-1.60362,2.489-1.802,4.001-.06541.49831.33446.44643.64155.44833C261.6057,20.5652,262.72029,20.561,263.83485,20.56113Z"/><path class="cls-1" d="M244.88677,27.65378c.74678-1.84022,1.38669-3.40689,2.01855-4.97678.71457-1.7755,1.4518-3.54268,2.12348-5.33438.59713-1.59284.36175-2.09432-1.22451-2.55376-.486-.14075-.50847-.37232-.52642-.75285-.02717-.576.35847-.53027.71762-.50547a45.63889,45.63889,0,0,0,6.57983.00726c.3026-.02277.69381-.10054.657.41588-.02307.32333.14207.73445-.41588.83011-1.26808.21741-1.797,1.19093-2.26473,2.24475-2.37737,5.35609-4.815,10.68615-7.11966,16.07323-.50569,1.18211-1.4032,1.12032-2.29688,1.27964-.525.09359-.47333-.45466-.58814-.74129-2.14916-5.36435-4.26644-10.74154-6.42661-16.10142-.47661-1.18257-.72329-2.60766-2.41256-2.80677-.45243-.05332-.23737-.52419-.24352-.80487-.01133-.516.40456-.39483.69765-.37742a62.16668,62.16668,0,0,0,7.06165.01593c.31912-.01733.639-.02139.95792-.0407.36608-.02217.642.04509.58542.50874-.03566.29223.06737.56157-.39258.72488-1.79939.63889-1.95513.9249-1.32075,2.67118C242.25877,20.74726,243.52813,24.04151,244.88677,27.65378Z"/><path class="cls-1" d="M292.62306,30.57942c-.05607-.63629-.12329-1.27186-.16393-1.90914-.02346-.368-.21152-.83711.47444-.84046.52-.00254.8276.02394.95777.7134a4.55008,4.55008,0,0,0,6.86894,2.82928,2.68648,2.68648,0,0,0,.3708-4.07764,13.342,13.342,0,0,0-2.64748-1.83919c-.87815-.55221-1.76717-1.08737-2.64091-1.64641a5.77194,5.77194,0,0,1-2.69672-6.1845,5.16944,5.16944,0,0,1,4.41363-4.28553,22.03517,22.03517,0,0,1,7.26954.18158c.38031.0594.67378.075.65056.6134-.05829,1.35519-.0568,2.71322-.06415,4.0702-.00208.38829.004.72346-.54144.68637-.39516-.02687-.71618.04039-.87745-.52984a3.92734,3.92734,0,0,0-5.33366-2.82575,2.24425,2.24425,0,0,0-1.63978,1.87652,2.35453,2.35453,0,0,0,1.052,2.50077c1.39439.92588,2.84514,1.76757,4.28038,2.631,1.60391.96486,3.05194,2.05375,3.52363,4.01543.96843,4.02771-1.41169,7.1094-5.93418,7.59951a17.37533,17.37533,0,0,1-6.18182-.45433c-.79448-.20143-1.27411-.51415-1.12356-1.44946a10.65628,10.65628,0,0,0,.016-1.67461Z"/><path class="cls-1" d="M324.43077,22.78878c0-1.8762-.03455-3.75335.01669-5.62815.021-.76848-.18238-1.04038-.98664-1.02248-.56744.01263-1.47277.42907-1.67714-.319-.24979-.9145.84317-.864,1.36092-1.16432a12.59069,12.59069,0,0,0,4.48223-4.88059c.26522-.459.48493-.99692,1.14352-.778.597.19842.26858.75648.29148,1.14185a22.67286,22.67286,0,0,1,.004,2.636c-.03619.63177.17143.8201.80323.80547,1.75717-.0407,3.51945.05413,5.27275-.03748,1.209-.06317.87225.72475.88308,1.32632.01127.62606.27154,1.38259-.90679,1.32244-1.71369-.08748-3.43566.00141-5.153-.03471-.63514-.01335-.91163.11085-.9029.83543.04333,3.59605.02808,7.1928.04041,10.78927.01446,4.21924,2.76517,4.521,5.55749,3.73584.35294-.09925.73264-.67591,1.10783-.05185.34392.572-.12467.87875-.46584,1.197-1.97843,1.84561-6.41624,2.25352-8.66882.78166A4.8008,4.8008,0,0,1,324.53,29.97075a9.12659,9.12659,0,0,1-.15726-1.3076c-.017-1.958-.00735-3.91632-.00735-5.87451Z"/><path class="cls-1" d="M24.49274,23.077c0-1.9181-.04174-3.83754.01919-5.7537.02683-.84375-.11832-1.23248-1.0801-1.14861-.51469.04489-1.3563.39289-1.56267-.28958-.26882-.8889.75383-.84918,1.24386-1.12563a12.50675,12.50675,0,0,0,4.58961-4.938c.22293-.38624.35052-.96011,1.008-.80642.76287.17833.326.7933.36,1.18625.09228,1.06631-.33322,2.49606.20852,3.12166.63235.73024,2.0978.18242,3.19982.23381.91717.04276,1.83923.03868,2.75661-.00185.5936-.02622.90524.11507.82128.77958a4.526,4.526,0,0,0-.00047,1.07737c.07234.62543-.1578.82392-.79424.80946-1.79745-.04084-3.59659-.00029-5.39469-.02258-.52691-.00654-.79538.08364-.78629.71019.05388,3.71522.03771,7.4316.10741,11.14642.07752,4.131,3.01254,4.2362,5.53419,3.5018.34931-.10173.72111-.658,1.11785-.02955.39173.62051-.15014.87593-.46921,1.17336a8.035,8.035,0,0,1-8.65686.784,4.87032,4.87032,0,0,1-2.19519-4.17476c-.07823-2.075-.01859-4.15522-.01859-6.23319Z"/><path class="cls-1" d="M282.1447,15.04088a6.80922,6.80922,0,0,1,6.5357-1.49689c1.887.54679,2.06273,1.0524,1.14765,2.72787a2.27768,2.27768,0,0,1-.11112.21233c-.42177.60746-.49974,1.53413-1.21411,1.831-.94454.39256-1.16317-.751-1.77324-1.11511a4.52084,4.52084,0,0,0-3.80089-.392.87663.87663,0,0,0-.70535.958c.03894,4.1961.01625,8.3932.09926,12.58826.03584,1.81222.6,2.2843,2.40513,2.44039.27818.02405.55663.04713.83368.08137.41387.05115.321.37639.33955.6424.03371.48326-.30169.49239-.63089.47859a91.83182,91.83182,0,0,0-9.93581-.00689c-.33452.0222-.6308.02968-.63663-.46129-.00486-.40984.1763-.49709.53816-.6091,1.81049-.56047,2.22641-.98215,2.25978-2.869.0735-4.1552.04129-8.31245.0333-12.46883A1.78506,1.78506,0,0,0,275.71,15.62638c-.4341-.04385-.9703.015-.94764-.75455.02518-.85444.60761-.55549,1.0153-.57994a19.41914,19.41914,0,0,0,5.06956-.80389c1.06642-.35956,1.39857-.1491,1.26137.92947A4.24545,4.24545,0,0,0,282.1447,15.04088Z"/><path class="cls-1" d="M127.17539,14.91411a7.262,7.262,0,0,1,5.25428-1.60686,5.17043,5.17043,0,0,1,2.35172.79765.97314.97314,0,0,1,.37536,1.43195c-.41155.77444-.84772,1.5358-1.25791,2.31094-.42459.80235-.93508.80412-1.46919.14307a3.97987,3.97987,0,0,0-4.21673-1.288,1.1928,1.1928,0,0,0-1.1179,1.38108c.0628,3.87559.03267,7.75256.0658,11.62878.02062,2.41094.40472,2.81455,2.78148,3.12.41985.054.89888-.02862.85979.67554-.04413.79487-.61966.48868-.96665.47574-3.15245-.11747-6.30334-.18006-9.45548.00624-.3191.01886-.746.20661-.79038-.40457-.0352-.48463.21927-.55531.61829-.666,1.68676-.46775,2.1271-.92588,2.162-2.674q.1234-6.17131.07619-12.34556c-.012-1.69219-.34117-2.0011-1.99023-2.26135-.53049-.08372-.75239-.21-.75739-.79108-.00669-.77559.5157-.54492.89727-.55673a21.1232,21.1232,0,0,0,4.73093-.66266C126.91328,13.21142,126.9096,13.19743,127.17539,14.91411Z"/><path class="cls-1" d="M229.93748,21.94444c0,2.8341-.07744,5.67109.02776,8.50128.06793,1.82738.38769,2.07428,2.14,2.49093.4129.09818.80885.099.70675.68514-.09815.5634-.54056.37569-.85389.36081a89.61365,89.61365,0,0,0-8.97186.00434c-.29391.01548-.66755.13972-.72971-.36072-.05636-.45425.1483-.57455.58308-.68177,1.90265-.46917,2.3672-.98526,2.39335-2.98085.05385-4.11307.044-8.22754.007-12.34095-.01391-1.5389-.40157-1.91782-1.984-2.13773-.49337-.06856-.68857-.19539-.69273-.71368-.00477-.5977.33106-.61142.76812-.61627a17.37508,17.37508,0,0,0,5.75774-.92635c1.04646-.37754.96776.32618.91839.93664A72.63519,72.63519,0,0,0,229.93748,21.94444Z"/><path class="cls-1" d="M314.50011,33.98129c-1.43418,0-2.86839.006-4.30251-.00429-.35249-.00254-.83579.23742-.87892-.44691-.03446-.546.3321-.503.68711-.58721,1.68572-.39985,2.1773-.85729,2.257-2.595.19758-4.30681.135-8.61875.03736-12.92836a1.73311,1.73311,0,0,0-1.81774-1.9299c-.55242-.01635-.903-.11445-.849-.80212.05877-.74864.58879-.50644.96858-.5204a17.19551,17.19551,0,0,0,5.40064-.89131c1.02321-.37943,1.12461.13857,1.077.89039-.31341,4.94387-.08611,9.8929-.15088,14.839a10.73041,10.73041,0,0,0,.07446,1.31064c.21974,1.99494.35364,2.1722,2.27544,2.63446.41381.09954.66284.17636.60609.65633-.0587.49663-.42581.38487-.72224.38626-1.5537.00727-3.10752.00339-4.66127.00339Z"/><path class="cls-1" d="M227.3517,9.5302a2.43115,2.43115,0,0,1-2.69842-2.52,2.61167,2.61167,0,0,1,2.75244-2.68019,2.53992,2.53992,0,0,1,2.755,2.63758A2.50558,2.50558,0,0,1,227.3517,9.5302Z"/><path class="cls-1" d="M314.43479,9.53019a2.42882,2.42882,0,0,1-2.71233-2.5041,2.60551,2.60551,0,0,1,2.73359-2.69579,2.53554,2.53554,0,0,1,2.76752,2.62238A2.49876,2.49876,0,0,1,314.43479,9.53019Z"/><path class="cls-2" d="M151.13856,23.70628c0,1.91485-.07361,3.83369.02969,5.743a1.38964,1.38964,0,0,1-1.25346,1.65093c-3.73381.89373-7.48531-.281-8.428-4.74862a12.89915,12.89915,0,0,1,.52815-7.518c1.264-3.20928,5.9803-4.394,8.68337-2.25775a1.24226,1.24226,0,0,1,.44377,1.14661C151.134,19.717,151.13856,21.71164,151.13856,23.70628Z"/><path class="cls-2" d="M112.7747,23.90443a11.89047,11.89047,0,0,1-.97023,5.16675,4.47614,4.47614,0,0,1-4.26721,2.925A4.35043,4.35043,0,0,1,103.27,29.08559a13.6748,13.6748,0,0,1-.06617-10.71914,4.3468,4.3468,0,0,1,4.258-2.922,4.43487,4.43487,0,0,1,4.28088,2.899A12.42841,12.42841,0,0,1,112.7747,23.90443Z"/><path class="cls-2" d="M48.91742,27.07814a13.77087,13.77087,0,0,0,.01852,2.03369c.17645,1.16522-.40456,1.69536-1.415,1.93861a8.52756,8.52756,0,0,1-1.40775.25767c-1.73948.11693-2.82623-.50445-3.25663-1.81706a3.56607,3.56607,0,0,1,1.46092-4.17979,19.83173,19.83173,0,0,1,3.97675-1.60743c.48731-.16474.63911.01718.62882.49947C48.90263,25.16119,48.91706,26.11982,48.91742,27.07814Z"/><path class="cls-2" d="M263.83485,20.56108c-1.11456-.00006-2.22915.00412-3.34365-.00278-.30709-.0019-.707.05-.64155-.44833.19837-1.51195.439-3.02868,1.802-4.001a4.01608,4.01608,0,0,1,4.09017-.27745,4.53361,4.53361,0,0,1,2.07175,4.37812c-.12183.48026-.4729.34017-.75457.34462C265.98451,20.57127,264.9096,20.56113,263.83485,20.56108Z"/><path d="M128.86478,51.76418a6.59064,6.59064,0,0,1,3.40088,2.53125,8.87671,8.87671,0,0,1,1.42236,3.22265,15.42106,15.42106,0,0,1,.37988,3.30274,13.257,13.257,0,0,1-1.59912,6.74218,7.21462,7.21462,0,0,1-6.69287,3.72266h-8.60352V51.33058h8.60352A10.52659,10.52659,0,0,1,128.86478,51.76418Zm-7.64453,3.03222V67.81984h3.85107a4.15735,4.15735,0,0,0,4.12158-2.91016,10.25456,10.25456,0,0,0,.6377-3.80468,9.35057,9.35057,0,0,0-.95606-4.67676q-.9558-1.63184-3.80322-1.63184Z"/><path d="M147.19193,56.82863a5.99947,5.99947,0,0,1,2.55078,2.18262,7.26885,7.26885,0,0,1,1.17578,3.05078,18.84439,18.84439,0,0,1,.127,2.92871H140.29788a3.539,3.539,0,0,0,1.54346,3.11328,3.91759,3.91759,0,0,0,2.12793.55566,3.00225,3.00225,0,0,0,2.93555-1.69238h3.93945a4.81649,4.81649,0,0,1-1.42969,2.667,7.176,7.176,0,0,1-5.55273,2.15235,8.04609,8.04609,0,0,1-5.19727-1.81543q-2.25219-1.81641-2.25195-5.90821a7.98931,7.98931,0,0,1,2.03271-5.87988,7.11348,7.11348,0,0,1,5.27784-2.0459A8.3971,8.3971,0,0,1,147.19193,56.82863Zm-5.77149,3.333a4.01024,4.01024,0,0,0-1.02783,2.28418h6.647a3.21918,3.21918,0,0,0-1.02734-2.332,3.38429,3.38429,0,0,0-2.28906-.79589A3.0574,3.0574,0,0,0,141.42044,60.16164Z"/><path d="M163.30521,56.82863a5.997,5.997,0,0,1,2.5498,2.18262,7.2429,7.2429,0,0,1,1.17578,3.05078,18.72014,18.72014,0,0,1,.127,2.92871H156.41068a3.53873,3.53873,0,0,0,1.543,3.11328,3.92227,3.92227,0,0,0,2.12793.55566,3.00239,3.00239,0,0,0,2.93653-1.69238h3.93847a4.8164,4.8164,0,0,1-1.42968,2.667,7.17379,7.17379,0,0,1-5.55176,2.15235,8.04868,8.04868,0,0,1-5.19824-1.81543q-2.25147-1.81641-2.251-5.90821a7.98711,7.98711,0,0,1,2.03223-5.87988,7.11386,7.11386,0,0,1,5.27734-2.0459A8.39851,8.39851,0,0,1,163.30521,56.82863Zm-5.77149,3.333a4.00746,4.00746,0,0,0-1.02832,2.28418h6.64746a3.21978,3.21978,0,0,0-1.02832-2.332,3.3817,3.3817,0,0,0-2.28808-.79589A3.0574,3.0574,0,0,0,157.53372,60.16164Z"/><path d="M182.21146,58.11378a7.86684,7.86684,0,0,1,1.80566,5.6045,8.85123,8.85123,0,0,1-1.76465,5.94238,5.72785,5.72785,0,0,1-4.54394,2.04492,4.76768,4.76768,0,0,1-2.94336-.87988,5.69966,5.69966,0,0,1-1.25391-1.42188v7.68946h-3.81738V56.5298h3.69531v2.17871a6.20528,6.20528,0,0,1,1.33594-1.51562,4.92226,4.92226,0,0,1,3.0791-.98828A5.83357,5.83357,0,0,1,182.21146,58.11378Zm-2.96094,2.77442a2.74615,2.74615,0,0,0-2.55078-1.3125,2.89962,2.89962,0,0,0-2.91309,1.99023,7.451,7.451,0,0,0-.41015,2.67969,4.25721,4.25721,0,0,0,1.37988,3.61524,3.16655,3.16655,0,0,0,1.94238.60937,2.82157,2.82157,0,0,0,2.48242-1.24609,6.52313,6.52313,0,0,0,.06934-6.33594Z"/><path d="M187.74271,51.33058h4.16894V67.69777h9.96387v3.58789H187.74271Z"/><path d="M209.17532,71.28566h-4.14257V51.33058h4.14257Z"/><path d="M213.7681,51.35793h14.22754v3.50585h-10.085v4.58985h8.83984v3.46582h-8.83984v8.36621H213.7681Z"/><path d="M245.896,51.33058v3.5332h-5.97071V71.28566H235.729V54.86378H229.731v-3.5332Z"/></svg>