<?xml version="1.0" encoding="UTF-8" standalone="no"?>
<svg
   xmlns:dc="http://purl.org/dc/elements/1.1/"
   xmlns:cc="http://creativecommons.org/ns#"
   xmlns:rdf="http://www.w3.org/1999/02/22-rdf-syntax-ns#"
   xmlns:svg="http://www.w3.org/2000/svg"
   xmlns="http://www.w3.org/2000/svg"
   viewBox="0 0 1122.6667 794.66669"
   height="794.66669"
   width="1122.6667"
   xml:space="preserve"
   id="svg2"
   version="1.1"><metadata
     id="metadata8"><rdf:RDF><cc:Work
         rdf:about=""><dc:format>image/svg+xml</dc:format><dc:type
           rdf:resource="http://purl.org/dc/dcmitype/StillImage" /></cc:Work></rdf:RDF></metadata><defs
     id="defs6" /><g
     transform="matrix(1.3333333,0,0,-1.3333333,0,794.66667)"
     id="g10"><g
       transform="scale(0.1)"
       id="g12"><path
         id="path14"
         style="fill:#ffffff;fill-opacity:1;fill-rule:evenodd;stroke:none"
         d="M 0,5952.76 H 8418.9 V 0 H 0 v 5952.76" /><path
         id="path16"
         style="fill:#38546b;fill-opacity:1;fill-rule:nonzero;stroke:none"
         d="m 2334.27,2298.55 c -52.87,0 -116.18,0 -169.06,0 v -430.94 c 52.88,0 116.19,0 169.06,0 150.61,0 217.01,110.04 215.16,219.16 -1.84,106.66 -67.62,211.78 -215.16,211.78 z m -88.52,-76.85 h 88.52 c 93.44,0 132.79,-67.11 134.63,-134.32 1.85,-70.28 -36.88,-141.7 -134.63,-141.7 h -88.52 v 276.02" /><path
         id="path18"
         style="fill:#38546b;fill-opacity:1;fill-rule:nonzero;stroke:none"
         d="m 2906.27,1992.41 c 11.68,124.79 -51.64,187.49 -153.07,187.49 -98.36,0 -161.07,-66.39 -161.07,-158.6 0,-97.13 62.09,-161.68 166.6,-161.68 46.11,0 98.36,15.98 130.33,49.18 l -47.95,47.33 c -17.22,-17.83 -53.49,-28.27 -81.15,-28.27 -52.87,0 -85.45,27.05 -90.37,64.55 z m -235.45,62.08 c 11.07,39.35 44.26,59.02 84.84,59.02 43.03,0 73.77,-19.67 78.68,-59.02 h -163.52" /><path
         id="path20"
         style="fill:#38546b;fill-opacity:1;fill-rule:nonzero;stroke:none"
         d="m 2977.25,2248.14 v -78.07 h -56.56 v -64.55 h 56.56 v -130.95 c 0,-75.61 43.03,-113.11 108.8,-110.65 22.75,0.62 40.58,4.3 62.09,12.91 l -20.89,63.94 c -11.07,-5.54 -24.59,-9.23 -36.28,-9.23 -23.36,0 -39.34,14.14 -39.34,43.03 v 130.95 h 84.22 v 64.55 h -83.6 v 86.06 l -75,-7.99" /><path
         id="path22"
         style="fill:#38546b;fill-opacity:1;fill-rule:nonzero;stroke:none"
         d="m 3487.77,1992.41 c 11.68,124.79 -51.64,187.49 -153.07,187.49 -98.36,0 -161.07,-66.39 -161.07,-158.6 0,-97.13 62.09,-161.68 166.6,-161.68 46.11,0 98.36,15.98 130.32,49.18 l -47.94,47.33 c -17.22,-17.83 -53.49,-28.27 -81.15,-28.27 -52.87,0 -85.45,27.05 -90.37,64.55 z m -235.45,62.08 c 11.07,39.35 44.26,59.02 84.84,59.02 43.03,0 73.76,-19.67 78.68,-59.02 h -163.52" /><path
         id="path24"
         style="fill:#38546b;fill-opacity:1;fill-rule:nonzero;stroke:none"
         d="m 3540.92,2170.68 v -303.07 h 75 v 159.84 c 0,55.94 36.27,76.84 75.61,76.84 24.59,0 38.73,-6.77 54.1,-19.67 l 33.81,65.16 c -16.6,16.6 -46.72,28.89 -78.07,28.89 -30.74,0 -62.09,-5.53 -85.45,-43.03 l -5.54,35.04 h -69.46" /><path
         id="path26"
         style="fill:#38546b;fill-opacity:1;fill-rule:nonzero;stroke:none"
         d="m 4079.72,1867.61 v 162.29 c 0,39.96 25.21,75 65.78,75 40.57,0 57.17,-33.81 57.17,-73.77 v -163.52 h 75 v 163.52 c 0,90.98 -42.42,143.85 -128.48,143.85 -39.35,0 -74.39,-12.29 -101.44,-55.32 -17.21,41.8 -53.48,56.55 -89.75,56.55 -28.89,0 -63.93,-11.06 -79.92,-41.8 l -5.53,36.89 h -69.47 v -303.69 h 75 v 162.29 c 0,39.96 23.98,76.23 64.55,76.23 41.19,0 62.09,-36.27 62.09,-76.23 v -162.29 h 75" /><path
         id="path28"
         style="fill:#38546b;fill-opacity:1;fill-rule:nonzero;stroke:none"
         d="m 4424.26,2171.91 v -304.3 h -75 v 304.3 z m -81.76,84.22 c 0,-58.4 88.52,-58.4 88.52,0 0,58.4 -88.52,58.4 -88.52,0" /><path
         id="path30"
         style="fill:#38546b;fill-opacity:1;fill-rule:nonzero;stroke:none"
         d="m 4785.4,1867.61 v 159.22 c 0,95.28 -57.17,148.77 -128.48,148.77 -38.12,0 -68.86,-15.37 -99.59,-45.49 l -4.92,41.19 h -67.01 v -303.69 h 74.39 v 154.92 c 0,46.1 31.35,84.83 77.46,84.83 47.95,0 73.15,-35.04 73.15,-81.15 v -158.6 h 75" /><path
         id="path32"
         style="fill:#38546b;fill-opacity:1;fill-rule:nonzero;stroke:none"
         d="m 5145.92,1992.41 c 11.69,124.79 -51.63,187.49 -153.07,187.49 -98.36,0 -161.06,-66.39 -161.06,-158.6 0,-97.13 62.09,-161.68 166.59,-161.68 46.11,0 98.36,15.98 130.33,49.18 l -47.95,47.33 c -17.21,-17.83 -53.48,-28.27 -81.15,-28.27 -52.87,0 -85.45,27.05 -90.37,64.55 z m -235.45,62.08 c 11.07,39.35 44.27,59.02 84.84,59.02 43.03,0 73.77,-19.67 78.69,-59.02 h -163.53" /><path
         id="path34"
         style="fill:#38546b;fill-opacity:1;fill-rule:nonzero;stroke:none"
         d="m 5346,2107.98 c 47.33,0 87.91,-35.66 87.91,-88.53 0,-54.71 -40.58,-89.14 -87.91,-89.14 -47.95,0 -86.07,36.27 -86.07,89.14 0,54.71 38.12,88.53 86.07,88.53 z m 92.82,189.34 v -167.83 c -17.82,31.35 -67.62,48.57 -99.59,48.57 -88.52,0 -154.3,-54.1 -154.3,-158.61 0,-99.59 67.01,-158.6 156.15,-158.6 36.88,0 74.38,12.29 97.74,48.56 l 4.92,-41.8 h 70.08 v 429.71 h -75" /><path
         id="path36"
         style="fill:#f67b21;fill-opacity:1;fill-rule:nonzero;stroke:none"
         d="m 6058.53,1867.61 h 88.52 l -193.03,430.94 h -88.52 l -193.04,-430.94 h 87.92 l 36.88,81.15 h 225 z m -68.85,156.76 h -159.84 l 79.92,183.61 z" /><path
         id="path38"
         style="fill:#f67b21;fill-opacity:1;fill-rule:nonzero;stroke:none"
         d="m 6253.68,1867.61 v 430.94 h -80.52 v -430.94 h 80.52" /><path
         id="path40"
         style="fill:#f67b21;fill-opacity:1;fill-rule:evenodd;stroke:none"
         d="m 3400.28,3763.34 c 67.29,3.81 124.94,-47.65 128.76,-114.93 3.81,-67.3 -47.65,-124.94 -114.94,-128.76 -67.29,-3.81 -124.93,47.65 -128.75,114.94 -3.81,67.29 47.64,124.93 114.93,128.75 z m 1400.17,105.43 c 62.51,3.55 116.07,-44.26 119.62,-106.78 3.54,-62.52 -44.27,-116.08 -106.78,-119.62 -18.39,-1.04 -35.99,2.36 -51.78,9.26 l -1.05,-0.73 c -61.83,-14.52 -110.03,-50.39 -148.07,-102.13 1.29,-6.53 2.16,-13.22 2.55,-20.06 4.53,-79.94 -56.6,-148.42 -136.54,-152.95 -79.94,-4.53 -148.42,56.6 -152.96,136.54 -4.53,79.94 56.61,148.42 136.54,152.95 30.17,1.71 58.71,-5.93 82.79,-20.41 l 0.44,0.31 c 59.85,19.29 109.46,53.29 148.57,102.37 l -0.11,1.63 c -3.55,62.52 44.26,116.08 106.78,119.62 z m -688.55,-37.2 c 18.35,1.04 35.93,-2.36 51.7,-9.24 l 0.64,0.45 c 55.39,16.06 102.13,45.47 135.98,94.79 -1.32,6.64 -2.2,13.44 -2.59,20.39 -4.59,80.97 57.33,150.34 138.3,154.94 80.98,4.59 150.35,-57.34 154.94,-138.31 4.59,-80.98 -57.33,-150.34 -138.31,-154.94 -31.1,-1.76 -60.47,6.3 -85.13,21.46 -54.17,-9.88 -100.34,-39.7 -135.95,-95.73 l 0.04,-0.6 c 3.55,-62.51 -44.26,-116.07 -106.78,-119.62 -62.52,-3.54 -116.07,44.27 -119.62,106.79 -3.54,62.51 44.27,116.07 106.78,119.62 z m 715.78,-722.73 c 14.71,0.84 28.91,-1.2 42.07,-5.61 l 1.07,0.89 c 81.57,30.08 139.37,75.93 169.33,140.3 l 0.7,0.58 c 0.78,47.27 37.95,86.61 85.91,89.34 50.22,2.84 93.24,-35.56 96.09,-85.79 2.85,-50.22 -35.56,-93.24 -85.78,-96.09 -7,-0.39 -13.87,0.02 -20.51,1.14 l -0.22,-0.19 c -71.39,-29.58 -128.68,-76.29 -170.76,-141.47 l -0.12,-0.1 c 0.4,-2.93 0.69,-5.9 0.86,-8.9 3.52,-62.01 -43.9,-115.13 -105.91,-118.65 -62,-3.51 -115.12,43.91 -118.64,105.91 -3.51,62.01 43.91,115.13 105.91,118.64 z m -865.5,45.88 c 72.78,4.13 135.11,-51.52 139.24,-124.29 4.13,-72.77 -51.52,-135.11 -124.29,-139.23 -72.77,-4.13 -135.11,51.52 -139.24,124.29 -1,17.73 1.55,34.83 7.02,50.63 l -0.17,0.45 c -22.74,60.88 -69.74,103 -130.14,134.67 -13.49,-5.04 -27.96,-8.16 -43.08,-9.01 -80.97,-4.59 -150.34,57.32 -154.93,138.29 -4.59,80.97 57.33,150.34 138.3,154.93 80.97,4.59 150.33,-57.33 154.92,-138.3 1.28,-22.59 -2.62,-44.27 -10.66,-63.9 27.28,-58.46 69.87,-103.43 129.78,-133.15 l 1.92,-0.98 c 9.97,3.06 20.46,4.99 31.33,5.6 z m 680.6,-371.95 c 69.21,2.68 128.08,-50.59 132.02,-120.03 3.98,-70.21 -49.71,-130.36 -119.92,-134.34 -70.22,-3.98 -130.36,49.71 -134.34,119.92 -1.79,31.6 8.1,61.15 25.91,84.47 -15,58.39 -41.33,111.03 -77.16,158.86 -5.08,-0.79 -10.24,-1.35 -15.47,-1.65 -86.27,-4.89 -160.16,61.08 -165.05,147.34 -1.52,26.67 3.75,52.16 14.29,74.79 -43.05,55.95 -95.05,104.74 -161.51,141.89 l -1.47,1.4 c -17.24,-7.8 -36.17,-12.62 -56.19,-13.76 -87.12,-4.94 -161.75,61.69 -166.69,148.81 -4.95,87.12 61.68,161.76 148.8,166.7 87.13,4.94 161.76,-61.69 166.7,-148.81 1.35,-23.75 -2.63,-46.58 -10.9,-67.32 l 0.53,-0.49 c 36.48,-63 88.34,-113.42 150.37,-155.55 19.08,9.95 40.53,16.09 63.4,17.39 33.34,1.89 64.83,-6.81 91.2,-23.17 73.49,41.14 139.08,95.42 191.89,170.97 l 0.1,0.08 c -0.71,4.26 -1.21,8.59 -1.46,13 -3.7,65.37 46.28,121.36 111.64,125.07 65.37,3.7 121.36,-46.29 125.07,-111.64 3.7,-65.36 -46.28,-121.36 -111.65,-125.07 -16.85,-0.95 -33.07,1.67 -47.94,7.19 l -1,-0.82 c -78.41,-38.81 -144.01,-93.55 -202.24,-157.48 5.27,-14.25 8.54,-29.51 9.44,-45.47 2.63,-46.39 -15.24,-89.2 -45.73,-119.63 16.21,-54.24 46.13,-104.91 87.36,-152.65 z m -1026.07,331.37 c 44.68,2.53 82.95,-31.63 85.48,-76.31 2.53,-44.67 -31.63,-82.94 -76.3,-85.47 -44.68,-2.54 -82.95,31.63 -85.48,76.3 -2.53,44.68 31.63,82.95 76.3,85.48 z m -305.7,277.73 c 67.29,3.81 124.94,-47.65 128.75,-114.94 3.82,-67.29 -47.64,-124.93 -114.93,-128.75 -67.29,-3.81 -124.94,47.64 -128.75,114.94 -3.81,67.29 47.65,124.93 114.93,128.75 z m 1747.56,247.77 c 44.68,2.53 82.95,-31.63 85.48,-76.3 2.53,-44.68 -31.63,-82.95 -76.3,-85.48 -44.68,-2.54 -82.95,31.63 -85.48,76.3 -2.54,44.67 31.63,82.95 76.3,85.48 z M 4016.93,4075.6 c 44.67,2.53 82.94,-31.63 85.48,-76.31 2.53,-44.67 -31.64,-82.94 -76.31,-85.47 -44.67,-2.53 -82.94,31.63 -85.48,76.3 -2.53,44.68 31.63,82.95 76.31,85.48 z m -280.18,-119.23 c 81.53,4.63 151.37,-57.72 155.99,-139.25 4.63,-81.53 -57.72,-151.37 -139.25,-155.99 -81.52,-4.62 -151.36,57.73 -155.99,139.25 -4.62,81.53 57.73,151.37 139.25,155.99" /></g></g></svg>