<svg id="Layer_1" data-name="Layer 1" xmlns="http://www.w3.org/2000/svg" viewBox="0 0 456.04001 150.78999"><defs><style>.cls-1{fill:#677b80;fill-rule:evenodd;}</style></defs><title>dlrm</title><path id="Fill-11" class="cls-1" d="M45.24412,17.09178v6.115a.628.628,0,0,1-.664.664h-26.233v12.498h21.65a.628.628,0,0,1,.664.665v6.115a.627.627,0,0,1-.664.665h-21.65v18.478a.62694.62694,0,0,1-.664.665h-6.575a.627.627,0,0,1-.663-.665v-45.2a.628.628,0,0,1,.663-.665h33.472a.628.628,0,0,1,.664.666"/><path id="Fill-12" class="cls-1" d="M84.85712,43.27978c-2.423-6.713-5.113-13.427-7.87-19.542h-1.56q-4.32036,9.61774-7.903,19.542Zm13.913,19.675h-7.238a.723.723,0,0,1-.763-.598q-1.521-6.00687-3.454-11.898h-22.215c-1.328,4.055-2.49,8.076-3.42,11.898a.723.723,0,0,1-.764.598h-6.973c-.465,0-.731-.265-.598-.73a309.65629,309.65629,0,0,1,17.001-44.934,1.27,1.27,0,0,1,1.296-.864h9.43a1.27,1.27,0,0,1,1.295.864,304.35671,304.35671,0,0,1,17.001,44.934C99.50112,62.68978,99.23512,62.95478,98.77012,62.95478Z"/><path id="Fill-13" class="cls-1" d="M110.65712,40.08978c0-14.424,9.497-24.527,23.045-24.527h.995a20.675,20.675,0,0,1,18.562,10.568.588.588,0,0,1-.232.93l-5.844,2.892a.81.81,0,0,1-1.12207-.23053q-.02158-.03274-.04-.06747c-2.457-4.255-6.143-6.514-11.589-6.514h-.996c-8.534,0-14.41,6.78-14.41,16.617,0,9.87,5.777,16.484,14.41,16.484h.996c5.579,0,8.833-1.894,11.324-4.786a.844.844,0,0,1,1.095-.232l6.01,2.925a.55.55,0,0,1,.332.464.877.877,0,0,1-.199.5c-3.685,5.383-10.327,8.707-18.429,8.707h-.996c-13.78,0-22.912-9.472-22.912-23.73"/><path id="Fill-14" class="cls-1" d="M206.15511,56.17578v6.115a.628.628,0,0,1-.664.665h-34.866a.628.628,0,0,1-.665-.665v-45.2a.628.628,0,0,1,.665-.664h34.268a.628.628,0,0,1,.664.665v6.115a.627.627,0,0,1-.664.664h-27.03v12.098h21.983a.628.628,0,0,1,.664.665v6.05a.628.628,0,0,1-.664.664h-21.983v12.164h27.628a.628.628,0,0,1,.664.665"/><path id="Fill-15" class="cls-1" d="M258.08712,49.49478c0-4.32-2.856-6.281-9.132-6.281h-15.64v12.495h15.64c6.377,0,9.132-1.861,9.132-6.215m-11.356-25.823h-13.414v12.496h13.415c6.01,0,8.766-1.96,8.766-6.248s-2.756-6.248-8.766-6.248m19.458,26.521c0,8.143-6.242,12.763-17.266,12.763h-22.847a.628.628,0,0,1-.664-.664v-45.2a.62789.62789,0,0,1,.664-.665h20.82c10.725,0,16.57,4.254,16.57,12.031,0,5.118-2.59,8.475-7.836,10.037,7.37,1.562,10.558,5.982,10.558,11.698"/><path id="Fill-16" class="cls-1" d="M305.00512,56.24278c9.53,0,15.54-6.548,15.54-16.551,0-10.004-6.01-16.552-15.54-16.552h-.996c-9.53,0-15.54,6.548-15.54,16.552,0,10.003,6.01,16.55,15.54,16.55Zm-24.903-16.551c0-14.026,9.297-24.13,23.907-24.13h.996c14.61,0,23.909,10.104,23.909,24.13,0,14.024-9.298,24.128-23.909,24.128h-.996C289.39913,63.81978,280.10214,53.71578,280.10214,39.69178Z"/><path id="Fill-17" class="cls-1" d="M367.29812,56.24278c9.53,0,15.54-6.548,15.54-16.551,0-10.004-6.01-16.552-15.54-16.552h-.997c-9.53,0-15.54,6.548-15.54,16.552,0,10.003,6.01,16.55,15.54,16.55Zm-24.904-16.551c0-14.026,9.297-24.13,23.907-24.13h.997c14.61,0,23.908,10.104,23.908,24.13,0,14.024-9.297,24.128-23.908,24.128h-.997C351.69113,63.81978,342.39413,53.71578,342.39413,39.69178Z"/><path id="Fill-18" class="cls-1" d="M448.48412,62.95578h-8.567a1.262,1.262,0,0,1-1.163-.565,181.56807,181.56807,0,0,0-19.16-19.31h-3.85v19.21a.627.627,0,0,1-.665.665h-6.575a.628.628,0,0,1-.664-.665v-45.2a.628.628,0,0,1,.664-.664h6.575a.62788.62788,0,0,1,.664.665v18.345h3.918a142.66907,142.66907,0,0,0,17.333-18.511,1.065,1.065,0,0,1,.997-.5h8.102c.399,0,.598.2.598.467a.825.825,0,0,1-.233.498,165.508,165.508,0,0,1-20.753,21.603,200.40617,200.40617,0,0,1,23.145,23.13c.364.433.165.832-.366.832"/><path d="M182.64855,105.376a11.047,11.047,0,0,1,3.99073,3.84765V92.62109h9.227v46.9961h-8.84375V134.7959a12.833,12.833,0,0,1-4.438,4.502,12.45821,12.45821,0,0,1-6.19385,1.40527,12.93289,12.93289,0,0,1-10.26416-4.93261q-4.166-4.93359-4.1665-12.65918,0-8.90772,4.10254-14.01563a13.34775,13.34775,0,0,1,10.96679-5.1084A11.22516,11.22516,0,0,1,182.64855,105.376Zm2.23487,24.791a12.69411,12.69411,0,0,0,2.01123-7.43847q0-6.38526-3.22461-9.13184a6.94156,6.94156,0,0,0-4.59717-1.66016,6.38973,6.38973,0,0,0-5.8584,3.01758,16.26781,16.26781,0,0,0,.03174,15.19727,6.42634,6.42634,0,0,0,5.7627,2.88867A6.71688,6.71688,0,0,0,184.88342,130.167Z"/><path d="M213.42541,139.61719h-9.09863V92.55762h9.09863Z"/><path d="M241.63244,104.00293q.17432.01758.78223.04785V113.374q-.8628-.09668-1.53321-.12793c-.44629-.02148-.80859-.03222-1.085-.03222q-5.4917,0-7.375,3.57617a13.91173,13.91173,0,0,0-1.05371,6.19336v16.63379h-9.1626V104.81738h8.68409v6.06641a19.23126,19.23126,0,0,1,3.67089-4.75781,9.99641,9.99641,0,0,1,6.64063-2.13868C241.37072,103.9873,241.51525,103.99316,241.63244,104.00293Z"/><path d="M291.16564,104.94531a10.10514,10.10514,0,0,1,4.05469,3.12891,10.00452,10.00452,0,0,1,1.97949,4.46973,30.87588,30.87588,0,0,1,.31934,5.13964l-.06348,21.9336h-9.32324V117.46a7.28356,7.28356,0,0,0-.63769-3.25586q-1.21437-2.42578-4.46973-2.42676a5.22922,5.22922,0,0,0-5.2041,3.12891,9.8131,9.8131,0,0,0-.73438,3.99023v20.72071h-9.16308V118.89648a11.63451,11.63451,0,0,0-.63868-4.501q-1.1499-2.52246-4.502-2.52246-3.895,0-5.23535,2.52246a9.70891,9.70891,0,0,0-.73438,4.27832v20.94336h-9.22656V104.88086h8.84375V109.957a14.62222,14.62222,0,0,1,3.19238-3.8623,12.63115,12.63115,0,0,1,13.31348-.28809,10.22925,10.22925,0,0,1,3.001,4.18262,11.57055,11.57055,0,0,1,4.4375-4.502,13.55215,13.55215,0,0,1,6.25781-1.43652A12.11946,12.11946,0,0,1,291.16564,104.94531Z"/></svg>