<?xml version="1.0" encoding="UTF-8"?>
<svg id="_图层_2" data-name="图层 2" xmlns="http://www.w3.org/2000/svg" xmlns:xlink="http://www.w3.org/1999/xlink" viewBox="0 0 304.83 61.86">
  <defs>
    <style>
      .cls-1 {
        fill: url(#_未命名的渐变_18);
      }

      .cls-1, .cls-2, .cls-3, .cls-4, .cls-5, .cls-6, .cls-7, .cls-8, .cls-9, .cls-10, .cls-11, .cls-12, .cls-13, .cls-14, .cls-15, .cls-16, .cls-17 {
        stroke-width: 0px;
      }

      .cls-2 {
        fill: url(#_未命名的渐变_22);
      }

      .cls-3 {
        fill: url(#_未命名的渐变_21);
      }

      .cls-4 {
        fill: url(#_未命名的渐变_25);
      }

      .cls-5 {
        fill: url(#_未命名的渐变_29);
      }

      .cls-6 {
        fill: url(#_未命名的渐变_66);
      }

      .cls-7 {
        fill: url(#_未命名的渐变_67);
      }

      .cls-8 {
        fill: url(#_未命名的渐变_61);
      }

      .cls-9 {
        fill: url(#_未命名的渐变_65);
      }

      .cls-10 {
        fill: url(#_未命名的渐变_63);
      }

      .cls-11 {
        fill: url(#_未命名的渐变_57);
      }

      .cls-12 {
        fill: url(#_未命名的渐变_58);
      }

      .cls-13 {
        fill: url(#_未命名的渐变_53);
      }

      .cls-14 {
        fill: url(#_未命名的渐变_32);
      }

      .cls-15 {
        fill: #333;
      }

      .cls-16 {
        fill: #1677ff;
      }

      .cls-17 {
        fill: url(#_未命名的渐变_112);
      }
    </style>
    <radialGradient id="_未命名的渐变_18" data-name="未命名的渐变 18" cx="26.68" cy="18.39" fx="3.24" fy="-4.75" r="59.03" gradientUnits="userSpaceOnUse">
      <stop offset="0" stop-color="#08d9ff"/>
      <stop offset=".09" stop-color="#08d2ff"/>
      <stop offset=".23" stop-color="#0bbeff"/>
      <stop offset=".39" stop-color="#109fff"/>
      <stop offset=".56" stop-color="#1677ff"/>
    </radialGradient>
    <linearGradient id="_未命名的渐变_29" data-name="未命名的渐变 29" x1="49.29" y1="37.97" x2="9.54" y2="37.97" gradientUnits="userSpaceOnUse">
      <stop offset="0" stop-color="#1677ff"/>
      <stop offset=".71" stop-color="#1677ff"/>
      <stop offset=".79" stop-color="#166eff"/>
      <stop offset=".91" stop-color="#1657ff"/>
      <stop offset=".94" stop-color="#1650ff"/>
    </linearGradient>
    <linearGradient id="_未命名的渐变_21" data-name="未命名的渐变 21" x1="7.06" y1="41.66" x2="7.06" y2="10.38" gradientUnits="userSpaceOnUse">
      <stop offset="0" stop-color="#08d9ff"/>
      <stop offset=".66" stop-color="#1677ff"/>
      <stop offset=".77" stop-color="#1671ff"/>
      <stop offset=".9" stop-color="#1661ff"/>
      <stop offset="1" stop-color="#1650ff"/>
    </linearGradient>
    <linearGradient id="_未命名的渐变_53" data-name="未命名的渐变 53" x1="288.79" y1="43.06" x2="288.79" y2="14.74" gradientUnits="userSpaceOnUse">
      <stop offset="0" stop-color="#08d9ff"/>
      <stop offset=".35" stop-color="#0eabff"/>
      <stop offset=".7" stop-color="#1385ff"/>
      <stop offset=".88" stop-color="#1677ff"/>
    </linearGradient>
    <linearGradient id="_未命名的渐变_63" data-name="未命名的渐变 63" x1="295.37" y1="17.06" x2="303.93" y2="13.49" gradientUnits="userSpaceOnUse">
      <stop offset="0" stop-color="#1650ff"/>
      <stop offset=".43" stop-color="#1662ff"/>
      <stop offset="1" stop-color="#1677ff"/>
    </linearGradient>
    <linearGradient id="_未命名的渐变_65" data-name="未命名的渐变 65" x1="216.8" y1="42.42" x2="216.8" y2="12.29" gradientUnits="userSpaceOnUse">
      <stop offset="0" stop-color="#08d9ff"/>
      <stop offset=".9" stop-color="#1677ff"/>
    </linearGradient>
    <linearGradient id="_未命名的渐变_25" data-name="未命名的渐变 25" x1="224.72" y1="41.69" x2="234.33" y2="11.35" gradientUnits="userSpaceOnUse">
      <stop offset=".09" stop-color="#1650ff"/>
      <stop offset=".14" stop-color="#1655ff"/>
      <stop offset=".42" stop-color="#1667ff"/>
      <stop offset=".7" stop-color="#1673ff"/>
      <stop offset=".99" stop-color="#1677ff"/>
    </linearGradient>
    <linearGradient id="_未命名的渐变_57" data-name="未命名的渐变 57" x1="6492.48" y1="11561.63" x2="6492.48" y2="11596.33" gradientTransform="translate(-6315.92 -11552.9)" gradientUnits="userSpaceOnUse">
      <stop offset="0" stop-color="#1677ff"/>
      <stop offset=".17" stop-color="#147fff"/>
      <stop offset=".43" stop-color="#1195ff"/>
      <stop offset=".76" stop-color="#0cb9ff"/>
      <stop offset="1" stop-color="#08d9ff"/>
    </linearGradient>
    <linearGradient id="_未命名的渐变_58" data-name="未命名的渐变 58" x1="7888.19" y1="16114.43" x2="7888.19" y2="16149.13" gradientTransform="translate(8077.8 16158.27) rotate(-180)" gradientUnits="userSpaceOnUse">
      <stop offset="0" stop-color="#1650ff"/>
      <stop offset=".13" stop-color="#1558ff"/>
      <stop offset=".34" stop-color="#126eff"/>
      <stop offset=".6" stop-color="#0f92ff"/>
      <stop offset=".89" stop-color="#0ac4ff"/>
      <stop offset="1" stop-color="#08d9ff"/>
    </linearGradient>
    <linearGradient id="_未命名的渐变_22" data-name="未命名的渐变 22" x1="119.6" y1="37.99" x2="91.21" y2="37.99" gradientUnits="userSpaceOnUse">
      <stop offset="0" stop-color="#1677ff"/>
      <stop offset=".29" stop-color="#1671ff"/>
      <stop offset=".66" stop-color="#1661ff"/>
      <stop offset=".94" stop-color="#1650ff"/>
    </linearGradient>
    <linearGradient id="_未命名的渐变_67" data-name="未命名的渐变 67" x1="88.53" y1="40.67" x2="88.53" y2="2.66" gradientUnits="userSpaceOnUse">
      <stop offset="0" stop-color="#08d9ff"/>
      <stop offset=".85" stop-color="#1677ff"/>
    </linearGradient>
    <linearGradient id="_未命名的渐变_32" data-name="未命名的渐变 32" x1="129.6" y1="41.02" x2="129.6" y2="8.2" gradientUnits="userSpaceOnUse">
      <stop offset="0" stop-color="#08d9ff"/>
      <stop offset=".86" stop-color="#1677ff"/>
    </linearGradient>
    <linearGradient id="_未命名的渐变_66" data-name="未命名的渐变 66" x1="132.32" y1="35.11" x2="158.91" y2="27.36" gradientUnits="userSpaceOnUse">
      <stop offset=".22" stop-color="#1650ff"/>
      <stop offset=".75" stop-color="#1677ff"/>
    </linearGradient>
    <linearGradient id="_未命名的渐变_112" data-name="未命名的渐变 112" x1="254.7" y1="25.3" x2="277.42" y2="25.3" gradientUnits="userSpaceOnUse">
      <stop offset="0" stop-color="#1650ff"/>
      <stop offset=".38" stop-color="#1666ff"/>
      <stop offset=".62" stop-color="#1677ff"/>
    </linearGradient>
    <radialGradient id="_未命名的渐变_61" data-name="未命名的渐变 61" cx="268.83" cy="35.26" fx="261.54" fy="35.26" r="13.04" gradientUnits="userSpaceOnUse">
      <stop offset="0" stop-color="#08d9ff"/>
      <stop offset=".17" stop-color="#08d2ff"/>
      <stop offset=".41" stop-color="#0bbeff"/>
      <stop offset=".7" stop-color="#109fff"/>
      <stop offset="1" stop-color="#1677ff"/>
    </radialGradient>
  </defs>
  <g id="_图层_1-2" data-name="图层 1">
    <g>
      <g>
        <path class="cls-1" d="M71.28,9.24C67.28,3.46,60.7,0,53.68,0h-27.32s-19.68,0-19.68,0C3.32.02.56,2.85.56,6.27v9.8c0-3.44,2.8-6.23,6.22-6.23h15.01l4.5-.02h.07s27.18,0,27.18,0c.22,0,.44.01.66.05,6.05.39,10.82,5.42,10.82,11.57s-4.78,11.21-10.84,11.59t-.03.01c-.16.02-.32.03-.47.03h-23.37s-20.3,0-20.3,0v1.49c0,.22,0,.41.02.61.12,2.78,1.29,5.52,3.18,7.71h17.45s23.49,0,23.49,0c8.7,0,16.54-5.38,19.5-13.4,2.59-7,1.73-14.4-2.37-20.24Z"/>
        <path class="cls-5" d="M49.76,33.07v9.8H13.21c-1.9-2.19-3.07-4.93-3.18-7.71-.02-.2-.02-.39-.02-.61v-1.49h39.75Z"/>
        <path class="cls-3" d="M10.38,35.17c-.02-.2-.02-.39-.02-.61V9.84h-3.59c-3.42,0-6.22,2.79-6.22,6.23v18.76c.02,4.44,3.69,8.05,8.2,8.05h4.81c-1.9-2.19-3.07-4.93-3.18-7.71Z"/>
      </g>
      <path class="cls-16" d="M304.23,9.99c-.72-.17-1.48-.26-2.28-.26-1.47,0-2.95.32-4.44.95-1.49.63-3.15,1.93-3.82,4.29v-4.37c0-.44-.36-.8-.8-.8h-8.19c-.44,0-.8.36-.8.8v31.44c0,.44.36.8.8.8h8.19c.44,0,.8-.36.8-.8v-18.79c0-2.27,1.32-4.42,3.45-5.21.01,0,.03-.01.04-.02,1.39-.51,2.86-.77,4.41-.77.9,0,1.85.11,2.85.34.2.04.39-.1.39-.3v-6.51c0-.37-.24-.7-.6-.79Z"/>
      <path class="cls-13" d="M293.69,16.11v25.93c0,.44-.36.8-.8.8h-8.19c-.44,0-.81-.36-.81-.8v-25.93h9.79Z"/>
      <path class="cls-10" d="M304.83,10.78v6.51c0,.2-.19.35-.39.3-1-.22-1.95-.34-2.85-.34-1.55,0-3.02.26-4.4.76-.01,0-.03.01-.04.02-2.13.79-3.45,2.94-3.45,5.21v-8.28c.67-2.36,2.34-3.66,3.82-4.29,1.49-.63,2.97-.95,4.44-.95.8,0,1.56.09,2.28.26.35.08.6.42.6.79Z"/>
      <path class="cls-9" d="M229.65,41.67l-.1.32c-.17.53-.66.89-1.21.89h-13.16c-.56,0-1.05-.36-1.21-.89l-9.99-31.56c-.11-.33.14-.66.49-.66h8.28c.57,0,1.06.37,1.22.91l7.6,26.04c.02.09.11.15.2.15s.17-.06.2-.15l.5-1.7,7.2,6.65Z"/>
      <path class="cls-4" d="M239.55,10.43l-9.99,31.56c-.17.53-.66.88-1.22.88-3.04,0-4.38-1.62-5.16-2.7-.77-1.05-1.26-2.21-1.62-3.45.03.09.11.14.2.14s.17-.05.2-.14l7.66-26.04c.16-.55.66-.91,1.22-.91h8.22c.35,0,.58.33.49.66Z"/>
      <path class="cls-11" d="M187.37,39.32c0,2.38-1.91,4.28-4.28,4.31h-.03c-9.56,0-17.34-7.78-17.34-17.36s7.78-17.34,17.34-17.34c-2.38.03-4.28,1.93-4.28,4.31s1.91,4.28,4.28,4.31c-4.8,0-8.72,3.92-8.72,8.72s3.92,8.75,8.72,8.75h.03c2.38.03,4.28,1.93,4.28,4.31Z"/>
      <path class="cls-12" d="M178.78,13.24c0-2.38,1.91-4.28,4.28-4.31h.03c9.56,0,17.34,7.78,17.34,17.36,0,9.56-7.78,17.34-17.34,17.34,2.38-.03,4.28-1.93,4.28-4.31s-1.91-4.28-4.28-4.31c4.8,0,8.72-3.92,8.72-8.72,0-4.83-3.92-8.75-8.72-8.75h-.03c-2.38-.03-4.28-1.93-4.28-4.31Z"/>
      <path class="cls-2" d="M119.94,33.08v9.81h-25.32c-1.82-2.09-2.95-4.73-3.06-7.4-.02-.19-.02-.38-.02-.58v-1.84h28.4Z"/>
      <path class="cls-7" d="M94.96,42.88h-5.01c-4.32,0-7.85-3.46-7.87-7.72V.01h9.8v34.89c0,.21,0,.39.02.59.11,2.67,1.24,5.3,3.06,7.4Z"/>
      <g>
        <path class="cls-16" d="M155.57,33.17c-1.84-2.81-5.91-6.51-9.83-8.14,4.8,0,9.11-1.98,10.84-4.1,1.73-2.12,2.6-4.85,2.6-8.2,0-4.04-1.25-7.17-3.76-9.39-2.51-2.22-5.93-3.34-10.25-3.34h-18.56c-.7,0-1.27.57-1.27,1.27v40.3c0,.7.57,1.27,1.27,1.27h5.99c.7,0,1.27-.57,1.27-1.27v-16.11h3.9c1.08,0,2.14.4,2.95,1.12,2.84,2.52,4.06,4.44,5.49,6.65,1.43,2.22,2.97,4.95,4.62,8.2.43.85,1.31,1.41,2.27,1.41h8.72c-1.67-3.63-4.41-6.85-6.24-9.67ZM133.87,18.42V7.04h10.57c2.04,0,3.64.54,4.8,1.62,1.16,1.08,1.74,2.44,1.74,4.07s-.57,2.94-1.71,4.04c-1.14,1.1-2.75,1.65-4.83,1.65h-10.57Z"/>
        <path class="cls-14" d="M125.34,9.41v32.16c0,.7.57,1.27,1.27,1.27h5.98c.7,0,1.27-.57,1.27-1.27V9.41h-8.53Z"/>
        <path class="cls-6" d="M155.32,33.17c-1.78-2.73-5.67-6.3-9.48-7.99,5.01-.35,9.01-2.13,10.75-4.25.09-.12.19-.23.28-.36l-6.04-6.47c-.24,1.01-.76,1.89-1.55,2.66-1.14,1.1-2.76,1.65-4.84,1.65h-10.57v7.04h3.65c1.08,0,2.14.4,2.95,1.12,2.84,2.52,4.06,4.44,5.49,6.65,1.43,2.22,2.97,4.95,4.62,8.2.43.85,1.31,1.41,2.27,1.41h8.71c-1.67-3.63-4.4-6.86-6.24-9.67Z"/>
      </g>
      <g>
        <path class="cls-15" d="M2.35,50.49c.92,0,1.69.12,2.3.36s1.09.68,1.44,1.32c.35.64.52,1.55.52,2.73,0,1.61-.37,2.75-1.11,3.41-.74.67-1.79,1-3.15,1H0v-8.82h2.35ZM2.36,58.56c1.08,0,1.9-.27,2.48-.82.58-.55.87-1.49.87-2.84,0-.97-.14-1.72-.42-2.26-.28-.54-.66-.91-1.14-1.11s-1.08-.3-1.79-.3H.84v7.33h1.53Z"/>
        <path class="cls-15" d="M24.02,55.88l-4.77.32c0,.61.09,1.1.24,1.46.15.36.39.63.73.8.34.17.8.25,1.39.25.37,0,.76-.04,1.15-.12.39-.08.73-.18,1-.31v.76c-.22.1-.54.19-.97.27-.43.08-.85.12-1.28.12-.72,0-1.3-.11-1.75-.33-.45-.22-.78-.59-1-1.11-.22-.52-.33-1.23-.33-2.12s.11-1.59.33-2.12c.22-.52.55-.89.99-1.11.44-.22,1.01-.33,1.71-.33,1.03,0,1.73.26,2.08.79.36.53.53,1.21.53,2.04,0,.19-.01.43-.04.72ZM23.27,55.26c0-.5-.04-.91-.13-1.22-.08-.31-.26-.56-.53-.75-.27-.19-.66-.28-1.19-.28-.55,0-.98.09-1.3.27-.31.18-.53.46-.66.82-.13.36-.2.85-.22,1.46l4.02-.3Z"/>
        <path class="cls-15" d="M41.36,55.88l-4.77.32c0,.61.09,1.1.24,1.46.15.36.39.63.73.8.34.17.8.25,1.39.25.37,0,.76-.04,1.15-.12.39-.08.73-.18,1-.31v.76c-.22.1-.54.19-.97.27-.43.08-.85.12-1.28.12-.72,0-1.3-.11-1.75-.33-.45-.22-.78-.59-1-1.11-.22-.52-.33-1.23-.33-2.12s.11-1.59.33-2.12c.22-.52.55-.89.99-1.11.44-.22,1.01-.33,1.71-.33,1.03,0,1.73.26,2.08.79.36.53.53,1.21.53,2.04,0,.19-.01.43-.04.72ZM40.61,55.26c0-.5-.04-.91-.13-1.22-.08-.31-.26-.56-.53-.75-.27-.19-.66-.28-1.19-.28-.55,0-.98.09-1.3.27-.31.18-.53.46-.66.82-.13.36-.2.85-.22,1.46l4.02-.3Z"/>
        <path class="cls-15" d="M59.43,55.88c0,1.12-.2,1.99-.61,2.62s-1.11.94-2.12.94c-1.25,0-2.04-.49-2.36-1.46v3.88h-.81v-9.41h.81v1.39c.14-.48.4-.86.78-1.12.38-.26.9-.39,1.58-.39,1.03,0,1.74.29,2.14.88.4.59.6,1.48.6,2.68ZM58.59,55.88c0-.64-.06-1.16-.17-1.57-.11-.41-.31-.73-.6-.95-.29-.22-.71-.34-1.24-.34-.84,0-1.43.25-1.77.74-.34.49-.51,1.2-.51,2.12s.17,1.61.52,2.11c.35.5.94.75,1.77.75.79,0,1.32-.24,1.59-.73.28-.49.41-1.2.41-2.13Z"/>
        <path class="cls-15" d="M85.69,58.54h3.95v.78h-4.79v-8.82h.84v8.05Z"/>
        <path class="cls-15" d="M106.39,55.88l-4.77.32c0,.61.09,1.1.24,1.46.15.36.39.63.73.8.34.17.8.25,1.39.25.37,0,.76-.04,1.15-.12.39-.08.73-.18,1-.31v.76c-.22.1-.54.19-.97.27-.43.08-.85.12-1.28.12-.72,0-1.3-.11-1.75-.33-.45-.22-.78-.59-1-1.11-.22-.52-.33-1.23-.33-2.12s.11-1.59.33-2.12c.22-.52.55-.89.99-1.11.44-.22,1.01-.33,1.71-.33,1.03,0,1.73.26,2.08.79.36.53.53,1.21.53,2.04,0,.19-.01.43-.04.72ZM105.64,55.26c0-.5-.04-.91-.13-1.22-.08-.31-.26-.56-.53-.75-.27-.19-.66-.28-1.19-.28-.55,0-.98.09-1.3.27-.31.18-.53.46-.66.82-.13.36-.2.85-.22,1.46l4.02-.3Z"/>
        <path class="cls-15" d="M123.82,54.46v4.86h-.69l-.13-1.14c-.2.4-.53.71-1,.93-.47.22-1,.34-1.58.34-1.56,0-2.34-.67-2.34-2.02,0-.8.24-1.36.71-1.68.47-.32,1.14-.48,2-.48h2.21v-.66c0-.53-.13-.93-.38-1.19s-.73-.39-1.44-.39c-.53,0-1.03.06-1.53.17v-.74c.57-.08,1.09-.13,1.58-.13.97,0,1.65.18,2.02.55.37.37.56.9.56,1.58ZM123,57.27v-1.33h-2.14c-.46,0-.83.04-1.11.12-.28.08-.49.23-.64.44-.14.22-.22.52-.22.92,0,.44.13.77.38.99s.64.32,1.17.32c.64,0,1.18-.13,1.62-.38.44-.25.75-.61.92-1.08Z"/>
        <path class="cls-15" d="M139.48,52.32l-.03.74h-.15c-.51,0-.95.11-1.32.34-.37.23-.65.63-.83,1.21v4.7h-.81v-6.86h.81v1.23c.31-.91,1.05-1.36,2.2-1.36h.13Z"/>
        <path class="cls-15" d="M156.37,54.54v4.78h-.81v-4.4c0-.45-.04-.81-.13-1.07-.08-.27-.24-.47-.46-.6-.22-.13-.54-.2-.95-.2-.53,0-.99.11-1.37.32-.38.22-.65.62-.8,1.2v4.74h-.8v-6.86h.8v1.09c.14-.42.43-.73.85-.93.42-.19.89-.29,1.41-.29.83,0,1.41.19,1.75.57.34.38.51.93.51,1.65Z"/>
        <path class="cls-15" d="M168.73,50.52c0-.22.04-.36.11-.43.07-.06.21-.1.41-.1.19,0,.32.03.39.1.07.06.11.21.11.43s-.04.36-.11.43c-.07.06-.2.1-.39.1-.2,0-.34-.03-.41-.1-.07-.06-.11-.21-.11-.43ZM168.83,59.31v-6.86h.81v6.86h-.81Z"/>
        <path class="cls-15" d="M187.51,54.54v4.78h-.81v-4.4c0-.45-.04-.81-.13-1.07-.08-.27-.24-.47-.46-.6-.22-.13-.54-.2-.95-.2-.53,0-.99.11-1.37.32-.38.22-.65.62-.8,1.2v4.74h-.8v-6.86h.8v1.09c.14-.42.43-.73.85-.93.42-.19.89-.29,1.41-.29.83,0,1.41.19,1.75.57.34.38.51.93.51,1.65Z"/>
        <path class="cls-15" d="M205.49,58.86c0,.97-.27,1.71-.81,2.22-.54.52-1.35.78-2.42.78-.64,0-1.17-.05-1.6-.15v-.71c.45.1.98.15,1.6.15.83,0,1.44-.19,1.84-.58s.59-1,.59-1.84v-.8c-.15.46-.42.81-.79,1.04-.37.24-.9.36-1.58.36s-1.24-.13-1.65-.4c-.4-.27-.69-.65-.85-1.16-.17-.5-.25-1.15-.25-1.94,0-1.11.21-1.97.62-2.58.41-.61,1.12-.91,2.13-.91.68,0,1.2.13,1.58.4.37.27.64.64.79,1.11v-1.39h.8v6.41ZM204.71,55.82c0-.91-.17-1.6-.51-2.08-.34-.48-.92-.72-1.75-.72-.55,0-.97.11-1.26.34-.29.23-.49.54-.59.95-.1.4-.15.9-.15,1.51s.05,1.14.16,1.54c.11.4.3.71.6.93.29.22.71.33,1.25.33.84,0,1.43-.24,1.76-.71.33-.47.5-1.17.5-2.08Z"/>
        <path class="cls-15" d="M233.88,55.6c-.12,0-.31.01-.58.01h-1.16v3.7h-.84v-8.82h1.94c.86,0,1.52.08,2,.23.48.15.82.41,1.04.77.21.36.32.87.32,1.52,0,.77-.15,1.35-.44,1.73-.29.39-.76.64-1.42.76l2.69,3.81h-1l-2.55-3.71ZM233.23,54.89c.65,0,1.15-.04,1.51-.13.35-.09.61-.27.78-.53.17-.27.25-.67.25-1.21,0-.48-.08-.85-.25-1.11-.17-.25-.43-.43-.79-.53-.36-.1-.85-.15-1.49-.15h-1.09v3.66h1.09Z"/>
        <path class="cls-15" d="M248.38,55.88c0-.89.11-1.59.32-2.12s.54-.89.99-1.11c.44-.22,1.02-.33,1.73-.33s1.29.11,1.73.33c.44.22.77.59.99,1.11.22.52.33,1.23.33,2.12s-.11,1.59-.33,2.12c-.22.52-.55.89-.99,1.11-.44.22-1.02.33-1.73.33s-1.29-.11-1.73-.33c-.44-.22-.77-.59-.99-1.11-.22-.52-.32-1.23-.32-2.12ZM253.62,55.88c0-.73-.07-1.3-.2-1.71-.14-.41-.36-.71-.68-.88-.32-.18-.76-.27-1.32-.27s-1.01.09-1.32.27c-.31.18-.54.47-.67.88-.13.41-.2.98-.2,1.71s.07,1.3.2,1.71c.14.41.36.71.67.88.31.18.75.27,1.31.27s1.02-.09,1.33-.27c.31-.18.54-.47.67-.88.13-.41.2-.98.2-1.72Z"/>
        <path class="cls-15" d="M267.97,59.31l-2.59-6.86h.83l2.22,6.02h.08l2.16-6.02h.85l-2.59,6.86h-.95Z"/>
        <path class="cls-15" d="M288.04,55.88l-4.77.32c0,.61.09,1.1.24,1.46.15.36.39.63.73.8.34.17.8.25,1.39.25.37,0,.76-.04,1.15-.12.39-.08.73-.18,1-.31v.76c-.22.1-.54.19-.97.27-.43.08-.85.12-1.28.12-.72,0-1.3-.11-1.75-.33-.45-.22-.78-.59-1-1.11-.22-.52-.33-1.23-.33-2.12s.11-1.59.33-2.12c.22-.52.55-.89.99-1.11.44-.22,1.01-.33,1.71-.33,1.03,0,1.73.26,2.08.79.36.53.53,1.21.53,2.04,0,.19-.01.43-.04.72ZM287.29,55.26c0-.5-.04-.91-.13-1.22-.08-.31-.26-.56-.53-.75-.27-.19-.66-.28-1.19-.28-.55,0-.98.09-1.3.27-.31.18-.53.46-.66.82-.13.36-.2.85-.22,1.46l4.02-.3Z"/>
        <path class="cls-15" d="M303.34,52.32l-.03.74h-.15c-.51,0-.95.11-1.32.34-.37.23-.65.63-.83,1.21v4.7h-.81v-6.86h.81v1.23c.31-.91,1.05-1.36,2.2-1.36h.13Z"/>
      </g>
      <g>
        <path class="cls-16" d="M274.13,13.41c-3.11-2.93-7.33-4.41-12.67-4.41s-9.63,1.47-12.72,4.41c-3.11,2.93-4.66,7.17-4.66,12.67,0,3.59.72,6.7,2.15,9.33,1.43,2.62,3.45,4.66,6.09,6.09,2.64,1.43,5.68,2.13,9.15,2.13,5.4,0,7.72-.8,10.37-2.13,2.04-1.03,5.66-3.99,6.38-8.55.03-.19-.13-.37-.32-.37h-8.14c-.31,0-.55.2-.67.48-.78,1.77-3.44,3.49-6.6,3.49-3.85,0-8.32-1.75-8.49-7.44,0-.18.14-.34.32-.34h21.74s1.87,0,1.87,0c.41,0,.76-.31.79-.72.05-.64.07-1.29.07-1.97,0-5.51-1.55-9.74-4.64-12.67ZM268.39,21.92h-13.72c-.21,0-.37-.21-.31-.42.34-1.12.82-2.07,1.46-2.85,1.4-1.69,3.26-2.54,5.63-2.54s4.37.85,5.74,2.54c.63.78,1.16,1.74,1.51,2.85.06.2-.1.42-.31.42Z"/>
        <path class="cls-17" d="M254.67,21.91c-.2,0-.37-.19-.31-.42-.32,1.13-.45,2.43-.49,3.66-.05,1.63.05,3.14.1,3.95,0-.18.12-.31.3-.34h19.46v-6.85h-19.07Z"/>
        <path class="cls-8" d="M277.88,32.58h-8.14c-.3,0-.55.2-.68.48-.78,1.77-3.44,3.49-6.6,3.49-3.82,0-8.26-1.72-8.49-7.31h-9.71c.31,2.29.96,4.35,1.95,6.18,1.43,2.62,3.45,4.66,6.09,6.08,2.63,1.43,5.68,2.14,9.14,2.14,5.4,0,7.72-.8,10.37-2.14,2.04-1.03,5.66-3.99,6.38-8.55.03-.19-.13-.37-.32-.37Z"/>
      </g>
    </g>
  </g>
</svg>