<?xml version="1.0" encoding="UTF-8"?>
<!DOCTYPE svg PUBLIC "-//W3C//DTD SVG 1.1//EN" "http://www.w3.org/Graphics/SVG/1.1/DTD/svg11.dtd">
<svg xmlns="http://www.w3.org/2000/svg" version="1.1" width="732px" height="260px" style="shape-rendering:geometricPrecision; text-rendering:geometricPrecision; image-rendering:optimizeQuality; fill-rule:evenodd; clip-rule:evenodd" xmlns:xlink="http://www.w3.org/1999/xlink">
<g><path style="opacity:0.997" fill="#3ed1e1" d="M 31.5,25.5 C 46.1667,25.5 60.8333,25.5 75.5,25.5C 75.5,40.1667 75.5,54.8333 75.5,69.5C 61.1628,69.6666 46.8295,69.4999 32.5,69C 31.5096,54.5785 31.1763,40.0785 31.5,25.5 Z"/></g>
<g><path style="opacity:0.972" fill="#2eb1ef" d="M 123.5,41.5 C 130.167,41.5 136.833,41.5 143.5,41.5C 144.822,60.5298 144.822,79.5298 143.5,98.5C 136.833,98.5 130.167,98.5 123.5,98.5C 124.263,97.7321 125.263,97.2321 126.5,97C 126.151,78.3408 125.151,59.8408 123.5,41.5 Z"/></g>
<g><path style="opacity:0.993" fill="#37c4e8" d="M 89.5,42.5 C 90.8333,42.5 92.1667,42.5 93.5,42.5C 93.5,97.8333 93.5,153.167 93.5,208.5C 86.7186,206.048 81.0519,202.048 76.5,196.5C 77.4985,159.337 77.8318,122.004 77.5,84.5C 75.5853,84.7845 73.9187,84.4511 72.5,83.5C 78.1667,83.5 83.8333,83.5 89.5,83.5C 89.5,69.8333 89.5,56.1667 89.5,42.5 Z"/></g>
<g><path style="opacity:0.981" fill="#34beea" d="M 89.5,42.5 C 96.9818,41.508 104.648,41.1746 112.5,41.5C 111.048,42.3019 109.382,42.8019 107.5,43C 109.163,60.8398 110.163,78.8398 110.5,97C 109.263,97.2321 108.263,97.7321 107.5,98.5C 106.5,98.5 105.5,98.5 104.5,98.5C 104.333,111.504 104.5,124.504 105,137.5C 106.164,142.171 107.997,146.504 110.5,150.5C 109.761,150.369 109.094,150.536 108.5,151C 109.494,172.758 109.827,194.591 109.5,216.5C 103.499,214.833 98.1659,212.166 93.5,208.5C 93.5,153.167 93.5,97.8333 93.5,42.5C 92.1667,42.5 90.8333,42.5 89.5,42.5 Z"/></g>
<g><path style="opacity:0.995" fill="#31b8ec" d="M 112.5,41.5 C 116.167,41.5 119.833,41.5 123.5,41.5C 125.151,59.8408 126.151,78.3408 126.5,97C 125.263,97.2321 124.263,97.7321 123.5,98.5C 118.167,98.5 112.833,98.5 107.5,98.5C 108.263,97.7321 109.263,97.2321 110.5,97C 110.163,78.8398 109.163,60.8398 107.5,43C 109.382,42.8019 111.048,42.3019 112.5,41.5 Z"/></g>
<g><path style="opacity:0.992" fill="#2babf2" d="M 143.5,41.5 C 149.21,42.2554 154.877,43.2554 160.5,44.5C 160.189,65.879 160.522,87.2123 161.5,108.5C 156.393,103.612 150.393,100.279 143.5,98.5C 144.822,79.5298 144.822,60.5298 143.5,41.5 Z"/></g>
<g><path style="opacity:0.989" fill="#28a5f5" d="M 160.5,44.5 C 165.928,46.3086 171.262,48.3086 176.5,50.5C 177.16,104.216 176.493,157.716 174.5,211C 175.056,211.383 175.389,211.883 175.5,212.5C 170.797,215.016 165.797,216.683 160.5,217.5C 160.173,196.924 160.507,176.424 161.5,156C 160.906,155.536 160.239,155.369 159.5,155.5C 173.389,140.469 174.056,124.802 161.5,108.5C 160.522,87.2123 160.189,65.879 160.5,44.5 Z"/></g>
<g><path style="opacity:0.994" fill="#26a0f7" d="M 176.5,50.5 C 178.996,51.5804 181.33,52.9138 183.5,54.5C 184.158,105.294 184.824,155.961 185.5,206.5C 182.451,208.863 179.118,210.863 175.5,212.5C 175.389,211.883 175.056,211.383 174.5,211C 176.493,157.716 177.16,104.216 176.5,50.5 Z"/></g>
<g><path style="opacity:0.995" fill="#249ef8" d="M 183.5,54.5 C 187.221,56.3535 190.554,58.6869 193.5,61.5C 192.167,107.833 192.167,154.167 193.5,200.5C 191.2,202.984 188.533,204.984 185.5,206.5C 184.824,155.961 184.158,105.294 183.5,54.5 Z"/></g>
<g><path style="opacity:0.983" fill="#1e8fff" d="M 380.5,58.5 C 410.365,58.1784 440.198,58.5117 470,59.5C 474.646,62.1522 477.313,66.1522 478,71.5C 478.5,84.8292 478.667,98.1625 478.5,111.5C 465.833,111.5 453.167,111.5 440.5,111.5C 440.5,116.833 440.5,122.167 440.5,127.5C 444.182,127.335 447.848,127.501 451.5,128C 452,128.5 452.5,129 453,129.5C 455.635,124.702 458.468,120.035 461.5,115.5C 468.134,114.503 474.8,114.17 481.5,114.5C 479.325,120.513 476.325,126.18 472.5,131.5C 467.533,132.329 462.533,132.829 457.5,133C 464.777,140.731 472.61,147.898 481,154.5C 481.483,155.448 481.649,156.448 481.5,157.5C 472.494,157.666 463.494,157.5 454.5,157C 446.667,149.833 438.833,142.667 431,135.5C 422.5,142.667 414,149.833 405.5,157C 395.839,157.5 386.172,157.666 376.5,157.5C 376.281,156.325 376.614,155.325 377.5,154.5C 386.312,147.522 394.979,140.355 403.5,133C 398.136,132.829 392.802,132.329 387.5,131.5C 383.876,126.617 381.209,121.284 379.5,115.5C 385.868,115.17 392.202,115.504 398.5,116.5C 400.916,121.001 403.583,125.334 406.5,129.5C 410.122,127.213 413.455,124.547 416.5,121.5C 417.417,118.242 417.751,114.909 417.5,111.5C 405.167,111.5 392.833,111.5 380.5,111.5C 380.5,106.5 380.5,101.5 380.5,96.5C 406.833,96.5 433.167,96.5 459.5,96.5C 459.5,94.8333 459.5,93.1667 459.5,91.5C 433.167,91.5 406.833,91.5 380.5,91.5C 380.5,87.5 380.5,83.5 380.5,79.5C 406.833,79.5 433.167,79.5 459.5,79.5C 459.739,77.5328 459.406,75.6995 458.5,74C 432.502,73.5 406.502,73.3334 380.5,73.5C 380.5,68.5 380.5,63.5 380.5,58.5 Z"/></g>
<g><path style="opacity:0.964" fill="#1e8fff" d="M 508.5,58.5 C 513.833,58.5 519.167,58.5 524.5,58.5C 524.173,63.2137 524.507,67.8804 525.5,72.5C 526.706,68.9285 527.373,65.2618 527.5,61.5C 532.833,61.5 538.167,61.5 543.5,61.5C 543.048,64.876 542.382,68.2094 541.5,71.5C 542.689,72.4287 544.022,72.762 545.5,72.5C 545.5,77.1667 545.5,81.8333 545.5,86.5C 538.492,86.3337 531.492,86.5004 524.5,87C 529.202,87.1717 533.868,87.6717 538.5,88.5C 540.797,94.6123 542.131,100.946 542.5,107.5C 537.821,107.666 533.155,107.499 528.5,107C 527.085,103.27 525.918,99.4368 525,95.5C 524.501,99.4862 524.334,103.486 524.5,107.5C 519.167,107.5 513.833,107.5 508.5,107.5C 508.5,100.5 508.5,93.5 508.5,86.5C 501.5,86.5 494.5,86.5 487.5,86.5C 487.5,81.8333 487.5,77.1667 487.5,72.5C 488.978,72.762 490.311,72.4287 491.5,71.5C 490.618,68.2094 489.952,64.876 489.5,61.5C 494.833,61.5 500.167,61.5 505.5,61.5C 505.605,65.3189 506.438,68.9855 508,72.5C 508.499,67.8452 508.666,63.1785 508.5,58.5 Z"/></g>
<g><path style="opacity:0.97" fill="#1e8fff" d="M 553.5,58.5 C 558.833,58.5 564.167,58.5 569.5,58.5C 569.249,62.2488 568.583,65.9155 567.5,69.5C 573.758,69.1903 579.924,69.5236 586,70.5C 586.847,89.5558 583.347,107.723 575.5,125C 579,128.5 582.5,132 586,135.5C 586.831,142.856 586.665,150.189 585.5,157.5C 578.561,151.899 571.894,145.899 565.5,139.5C 560.183,145.815 554.183,151.481 547.5,156.5C 546.335,149.189 546.169,141.856 547,134.5C 550.396,131.607 553.229,128.274 555.5,124.5C 549.325,112.962 546.325,100.629 546.5,87.5C 551.167,87.5 555.833,87.5 560.5,87.5C 560.528,95.2411 562.195,102.574 565.5,109.5C 569.886,101.887 571.886,93.554 571.5,84.5C 563.167,84.5 554.833,84.5 546.5,84.5C 548.437,75.6939 550.771,67.0272 553.5,58.5 Z"/></g>
<g><path style="opacity:0.984" fill="#1e8fff" d="M 601.5,58.5 C 606.833,58.5 612.167,58.5 617.5,58.5C 617.5,60.1667 617.5,61.8333 617.5,63.5C 626.833,63.5 636.167,63.5 645.5,63.5C 645.5,68.5 645.5,73.5 645.5,78.5C 640.833,78.5 636.167,78.5 631.5,78.5C 631.5,79.5 631.5,80.5 631.5,81.5C 636.5,81.5 641.5,81.5 646.5,81.5C 646.5,86.5 646.5,91.5 646.5,96.5C 644.076,96.1924 641.743,96.5258 639.5,97.5C 642.959,101.432 645.626,105.766 647.5,110.5C 641.794,110.829 636.128,110.495 630.5,109.5C 628.488,106.795 626.488,104.128 624.5,101.5C 621.118,103.87 618.118,106.704 615.5,110C 609.175,110.5 602.842,110.666 596.5,110.5C 596.351,109.448 596.517,108.448 597,107.5C 600.5,104 604,100.5 607.5,97C 603.514,96.5012 599.514,96.3345 595.5,96.5C 595.5,91.5 595.5,86.5 595.5,81.5C 602.167,81.5 608.833,81.5 615.5,81.5C 615.5,80.5 615.5,79.5 615.5,78.5C 608.8,78.83 602.134,78.4967 595.5,77.5C 597.51,71.1386 599.51,64.8053 601.5,58.5 Z"/></g>
<g><path style="opacity:0.977" fill="#1e8fff" d="M 649.5,58.5 C 664.5,58.5 679.5,58.5 694.5,58.5C 694.667,72.1707 694.5,85.8374 694,99.5C 692.782,104.775 689.615,108.275 684.5,110C 672.838,110.5 661.171,110.667 649.5,110.5C 649.5,93.1667 649.5,75.8333 649.5,58.5 Z M 665.5,73.5 C 669.5,73.5 673.5,73.5 677.5,73.5C 677.797,80.5581 677.464,87.5581 676.5,94.5C 672.893,95.4892 669.226,95.8226 665.5,95.5C 665.5,88.1667 665.5,80.8333 665.5,73.5 Z"/></g>
<g><path style="opacity:0.982" fill="#1d8fff" d="M 276.5,58.5 C 306.833,58.5 337.167,58.5 367.5,58.5C 367.5,63.8333 367.5,69.1667 367.5,74.5C 337.167,74.5 306.833,74.5 276.5,74.5C 276.5,69.1667 276.5,63.8333 276.5,58.5 Z"/></g>
<g><path style="opacity:0.993" fill="#2298fa" d="M 193.5,61.5 C 200.885,67.552 207.219,74.552 212.5,82.5C 211.508,115.093 211.174,147.76 211.5,180.5C 207.288,188.715 201.288,195.382 193.5,200.5C 192.167,154.167 192.167,107.833 193.5,61.5 Z"/></g>
<g><path style="opacity:0.975" fill="#3dcfe2" d="M 58.5,83.5 C 58.5,113.167 58.5,142.833 58.5,172.5C 53.5256,164.675 50.3589,156.009 49,146.5C 47.6573,125.525 47.1573,104.525 47.5,83.5C 51.1667,83.5 54.8333,83.5 58.5,83.5 Z"/></g>
<g><path style="opacity:0.994" fill="#3acae5" d="M 58.5,83.5 C 63.1667,83.5 67.8333,83.5 72.5,83.5C 73.9187,84.4511 75.5853,84.7845 77.5,84.5C 77.8318,122.004 77.4985,159.337 76.5,196.5C 68.5529,189.93 62.5529,181.93 58.5,172.5C 58.5,142.833 58.5,113.167 58.5,83.5 Z"/></g>
<g><path style="opacity:0.942" fill="#1f8eff" d="M 490.5,87.5 C 495.5,87.5 500.5,87.5 505.5,87.5C 503.959,94.1226 502.626,100.789 501.5,107.5C 496.833,107.5 492.167,107.5 487.5,107.5C 488.716,100.868 489.716,94.2013 490.5,87.5 Z"/></g>
<g><path style="opacity:0.984" fill="#1e8fff" d="M 272.5,90.5 C 305.5,90.5 338.5,90.5 371.5,90.5C 371.5,95.5 371.5,100.5 371.5,105.5C 363.5,105.5 355.5,105.5 347.5,105.5C 347.187,117.884 347.52,130.217 348.5,142.5C 356.167,143.167 363.833,143.833 371.5,144.5C 369.593,148.727 367.593,152.894 365.5,157C 355.772,157.891 346.106,157.557 336.5,156C 335,154.5 333.5,153 332,151.5C 330.548,136.238 330.048,120.905 330.5,105.5C 324.132,105.17 317.798,105.504 311.5,106.5C 305.277,123.176 299.277,139.843 293.5,156.5C 287.158,156.666 280.825,156.5 274.5,156C 280.939,139.511 287.273,123.011 293.5,106.5C 286.532,105.503 279.532,105.17 272.5,105.5C 272.5,100.5 272.5,95.5 272.5,90.5 Z"/></g>
<g><path style="opacity:0.952" fill="#1f92fd" d="M 212.5,82.5 C 226.76,106.156 230.26,131.489 223,158.5C 220.383,166.554 216.55,173.888 211.5,180.5C 211.174,147.76 211.508,115.093 212.5,82.5 Z"/></g>
<g><path style="opacity:0.979" fill="#1e8fff" d="M 490.5,108.5 C 495.5,108.5 500.5,108.5 505.5,108.5C 505.5,109.833 505.5,111.167 505.5,112.5C 512.833,112.5 520.167,112.5 527.5,112.5C 527.5,111.167 527.5,109.833 527.5,108.5C 532.5,108.5 537.5,108.5 542.5,108.5C 542.5,109.833 542.5,111.167 542.5,112.5C 543.5,112.5 544.5,112.5 545.5,112.5C 545.5,117.167 545.5,121.833 545.5,126.5C 544.5,126.5 543.5,126.5 542.5,126.5C 542.827,131.544 542.494,136.544 541.5,141.5C 540.5,142 539.5,142.5 538.5,143C 540.764,143.236 542.931,143.736 545,144.5C 545.828,148.871 545.661,153.205 544.5,157.5C 535.028,156.576 525.695,154.909 516.5,152.5C 506.991,155.002 497.325,156.668 487.5,157.5C 487.334,153.154 487.501,148.821 488,144.5C 490.405,143.726 492.905,143.226 495.5,143C 493.671,142.727 492.171,141.893 491,140.5C 490.501,135.845 490.334,131.179 490.5,126.5C 489.5,126.5 488.5,126.5 487.5,126.5C 487.5,121.833 487.5,117.167 487.5,112.5C 488.5,112.5 489.5,112.5 490.5,112.5C 490.5,111.167 490.5,109.833 490.5,108.5 Z M 505.5,126.5 C 512.833,126.5 520.167,126.5 527.5,126.5C 527.5,128.833 527.5,131.167 527.5,133.5C 523.757,134.534 520.09,135.868 516.5,137.5C 512.91,135.868 509.243,134.534 505.5,133.5C 505.5,131.167 505.5,128.833 505.5,126.5 Z"/></g>
<g><path style="opacity:0.99" fill="#1d8fff" d="M 596.5,112.5 C 628.833,112.5 661.167,112.5 693.5,112.5C 693.666,122.506 693.5,132.506 693,142.5C 692.456,148.087 689.956,152.587 685.5,156C 655.835,156.5 626.169,156.667 596.5,156.5C 596.5,141.833 596.5,127.167 596.5,112.5 Z M 614.5,125.5 C 635.167,125.5 655.833,125.5 676.5,125.5C 676.5,126.833 676.5,128.167 676.5,129.5C 655.833,129.5 635.167,129.5 614.5,129.5C 614.5,128.167 614.5,126.833 614.5,125.5 Z M 614.5,139.5 C 634.844,139.167 655.178,139.5 675.5,140.5C 675.167,141.167 674.833,141.833 674.5,142.5C 654.511,143.5 634.511,143.833 614.5,143.5C 614.5,142.167 614.5,140.833 614.5,139.5 Z"/></g>
<g><path style="opacity:0.989" fill="#31b8ec" d="M 110.5,150.5 C 114.515,154.513 118.848,158.179 123.5,161.5C 125.138,180.277 126.138,199.277 126.5,218.5C 127.522,218.855 128.189,219.522 128.5,220.5C 122.087,219.418 115.754,218.084 109.5,216.5C 109.827,194.591 109.494,172.758 108.5,151C 109.094,150.536 109.761,150.369 110.5,150.5 Z"/></g>
<g><path style="opacity:0.986" fill="#2babf2" d="M 159.5,155.5 C 160.239,155.369 160.906,155.536 161.5,156C 160.507,176.424 160.173,196.924 160.5,217.5C 154.969,219.118 149.302,220.118 143.5,220.5C 144.486,201.91 144.82,183.243 144.5,164.5C 143.5,164.5 142.5,164.5 141.5,164.5C 148.203,163.035 154.203,160.035 159.5,155.5 Z"/></g>
<g><path style="opacity:0.988" fill="#2eb1ef" d="M 123.5,161.5 C 129.207,163.772 135.207,164.772 141.5,164.5C 142.5,164.5 143.5,164.5 144.5,164.5C 144.82,183.243 144.486,201.91 143.5,220.5C 138.5,220.5 133.5,220.5 128.5,220.5C 128.189,219.522 127.522,218.855 126.5,218.5C 126.138,199.277 125.138,180.277 123.5,161.5 Z"/></g>
<g><path style="opacity:0.967" fill="#1e8fff" d="M 336.5,172.5 C 339.247,172.187 341.914,172.52 344.5,173.5C 347.19,178.226 350.356,182.56 354,186.5C 356.833,182.167 359.667,177.833 362.5,173.5C 365.086,172.52 367.753,172.187 370.5,172.5C 370.5,183.833 370.5,195.167 370.5,206.5C 367.5,206.5 364.5,206.5 361.5,206.5C 361.666,201.156 361.499,195.823 361,190.5C 359.5,192.667 358,194.833 356.5,197C 354.5,197.667 352.5,197.667 350.5,197C 348.667,194.5 346.833,192 345,189.5C 344.501,195.157 344.334,200.824 344.5,206.5C 341.833,206.5 339.167,206.5 336.5,206.5C 336.5,195.167 336.5,183.833 336.5,172.5 Z"/></g>
<g><path style="opacity:0.939" fill="#1e90ff" d="M 540.5,171.5 C 546.107,171.105 550.941,172.772 555,176.5C 555.982,177.759 556.315,179.092 556,180.5C 554.084,182.209 551.918,183.543 549.5,184.5C 548.155,183.653 547.155,182.487 546.5,181C 544.044,180.054 542.044,180.554 540.5,182.5C 545.697,184.39 550.53,187.057 555,190.5C 558.105,197.451 556.272,202.617 549.5,206C 542.84,207.54 536.84,206.373 531.5,202.5C 530.253,200.677 529.586,198.677 529.5,196.5C 531.675,196.318 533.675,195.651 535.5,194.5C 537.606,195.43 539.606,196.596 541.5,198C 543.134,198.494 544.801,198.66 546.5,198.5C 546.762,197.022 546.429,195.689 545.5,194.5C 541.284,193.485 537.284,191.985 533.5,190C 528.67,180.98 531.003,174.814 540.5,171.5 Z"/></g>
<g><path style="opacity:0.883" fill="#1d8fff" d="M 677.5,171.5 C 680.5,171.5 683.5,171.5 686.5,171.5C 686.5,183.167 686.5,194.833 686.5,206.5C 683.552,206.777 680.719,206.444 678,205.5C 677.5,194.172 677.333,182.838 677.5,171.5 Z"/></g>
<g><path style="opacity:0.956" fill="#1e8fff" d="M 281.5,172.5 C 287.509,172.334 293.509,172.501 299.5,173C 309.855,177.556 313.355,185.389 310,196.5C 307.359,201.144 303.525,204.311 298.5,206C 292.843,206.499 287.176,206.666 281.5,206.5C 281.5,195.167 281.5,183.833 281.5,172.5 Z M 290.5,180.5 C 301.063,181.115 304.063,186.282 299.5,196C 296.794,197.908 293.794,198.741 290.5,198.5C 290.5,192.5 290.5,186.5 290.5,180.5 Z"/></g>
<g><path style="opacity:0.944" fill="#1e8fff" d="M 444.5,174.5 C 447.5,174.5 450.5,174.5 453.5,174.5C 453.5,176.833 453.5,179.167 453.5,181.5C 455.833,181.5 458.167,181.5 460.5,181.5C 460.5,184.167 460.5,186.833 460.5,189.5C 458.167,189.5 455.833,189.5 453.5,189.5C 452.88,193.302 453.714,196.635 456,199.5C 457.356,198.62 458.856,198.286 460.5,198.5C 461.45,201.068 461.45,203.568 460.5,206C 447.023,208.688 441.69,203.188 444.5,189.5C 443.167,189.5 441.833,189.5 440.5,189.5C 440.5,186.833 440.5,184.167 440.5,181.5C 441.833,181.5 443.167,181.5 444.5,181.5C 444.5,179.167 444.5,176.833 444.5,174.5 Z"/></g>
<g><path style="opacity:0.931" fill="#1e90ff" d="M 403.5,181.5 C 414.306,180.145 419.473,184.812 419,195.5C 417.266,196.249 415.433,196.749 413.5,197C 420.167,200 420.167,203 413.5,206C 397.976,208.137 392.476,201.637 397,186.5C 398.805,184.174 400.972,182.508 403.5,181.5 Z M 406.5,188.5 C 407.756,188.461 408.756,188.961 409.5,190C 408.167,190.667 406.833,190.667 405.5,190C 406.056,189.617 406.389,189.117 406.5,188.5 Z M 404.5,197.5 C 406.628,196.371 408.961,196.204 411.5,197C 409.205,199.854 406.872,200.021 404.5,197.5 Z"/></g>
<g><path style="opacity:0.938" fill="#1e8fff" d="M 490.5,181.5 C 493.85,181.335 497.183,181.502 500.5,182C 502.286,182.785 503.786,183.951 505,185.5C 506.384,192.411 506.884,199.411 506.5,206.5C 503.606,206.958 501.106,206.291 499,204.5C 497.475,205.72 495.641,206.387 493.5,206.5C 484.45,206.065 481.783,201.731 485.5,193.5C 486.665,192.416 487.998,191.583 489.5,191C 487.668,190.252 486.001,189.252 484.5,188C 486.027,185.31 488.027,183.143 490.5,181.5 Z M 494.5,188.5 C 497.99,190.336 497.323,190.836 492.5,190C 493.416,189.722 494.082,189.222 494.5,188.5 Z M 494.5,196.5 C 498.075,197.207 498.242,198.207 495,199.5C 493.317,198.824 493.15,197.824 494.5,196.5 Z"/></g>
<g><path style="opacity:0.939" fill="#1e90ff" d="M 587.5,181.5 C 601.213,180.941 606.379,187.275 603,200.5C 599.004,206.233 593.504,208.066 586.5,206C 579.229,201.799 577.063,195.632 580,187.5C 582.134,184.847 584.634,182.847 587.5,181.5 Z M 589.5,189.5 C 594.674,189.835 596.341,192.501 594.5,197.5C 590.631,199.425 588.298,198.258 587.5,194C 588.044,192.415 588.711,190.915 589.5,189.5 Z"/></g>
<g><path style="opacity:0.959" fill="#1e8eff" d="M 628.5,181.5 C 631.5,181.5 634.5,181.5 637.5,181.5C 637.334,186.844 637.501,192.177 638,197.5C 640.022,198.991 641.688,198.658 643,196.5C 643.499,191.511 643.666,186.511 643.5,181.5C 646.5,181.5 649.5,181.5 652.5,181.5C 652.5,189.833 652.5,198.167 652.5,206.5C 649.289,206.988 646.456,206.321 644,204.5C 643.5,205 643,205.5 642.5,206C 639.167,206.667 635.833,206.667 632.5,206C 631.667,205.167 630.833,204.333 630,203.5C 628.609,196.254 628.109,188.921 628.5,181.5 Z"/></g>
</svg>
