<svg id="Layer_1" data-name="Layer 1" xmlns="http://www.w3.org/2000/svg" viewBox="0 0 508.44859 250"><defs><style>.cls-1{fill:#4a99a1;}.cls-2{fill:#6fa3e1;}.cls-3{fill:#a9b70c;}.cls-4{fill:#a9b60b;}.cls-5{fill:#4e9ba3;}</style></defs><path class="cls-1" d="M143.829,5.56817c-.031.54562-.08921,1.09124-.08928,1.63687q-.00646,50.28714-.00735,100.57429c-.00037,2.40538.24286,2.0462-1.98585,2.04719q-30.44538.0135-60.89073.00247c-1.93134-.00043-1.71353.2303-1.71374-1.65913q-.006-50.47738-.00438-100.95478c0-.549-.02248-1.09794-.03446-1.64691Z"/><path class="cls-2" d="M440.29845,157.57666c.0097-.54938.02795-1.09877.02795-1.64814q.00209-51.38208.0013-102.76416c0-1.634.0005-1.63445,1.62961-1.63445q30.45538-.00016,60.91077-.00127c.54951,0,1.099-.01827,1.64851-.028v60.9049c-.67277,1.436-.551,3.022-.68476,4.52141a53.67876,53.67876,0,0,1-3.15626,13.74976,34.02155,34.02155,0,0,1-8.34966,12.98121,42.22,42.22,0,0,1-11.77221,7.788c-7.24936,3.35007-14.94032,4.896-22.83376,5.66605a25.48744,25.48744,0,0,0-4.73016.46473Z"/><path class="cls-1" d="M4.47813,104.28487a34.25245,34.25245,0,0,0,.95505-5.40851A59.192,59.192,0,0,1,52.14826,51.76793a91.40834,91.40834,0,0,1,17.76065-1.58979c.791.00081,1.09173.164,1.09062,1.03446q-.03673,28.78761.00753,57.57525c.0022,1.14775-.58759,1.0495-1.332,1.04929q-31.77492-.00924-63.54984-.00382c-.549,0-1.09807.0225-1.6471.0345Z"/><path class="cls-3" d="M183.561,49.17713c10.14807-.0001,20.29619.016,30.44409-.02395,1.06293-.00418,1.32139.29579,1.31967,1.34021q-.04761,28.979.002,57.958c.002,1.11158-.2752,1.40685-1.40213,1.40482q-30.50759-.05489-61.01524.00126c-1.15751.00222-1.38336-.3412-1.38156-1.42312q.0478-28.979-.00085-57.958c-.00181-1.0644.29641-1.32588,1.3362-1.322C163.09562,49.19224,173.32831,49.17723,183.561,49.17713Z"/><path class="cls-3" d="M279.34767,54.8825A42.866,42.866,0,0,1,290.57,50.73779c8.76455-1.95128,17.6143-1.8997,26.48981-1.07189a60.60071,60.60071,0,0,1,20.27167,5.17461c11.18151,5.23029,17.93218,14.019,20.71937,25.95233a60.95436,60.95436,0,0,1,1.48975,13.82747c.00694,4.69448-.01955,9.38915.02057,14.08329.00747.87474-.21847,1.14582-1.12347,1.14473q-31.02849-.03717-62.057.004c-.99349.00147-1.18309-.3297-1.18315-1.23377-.00059-6.21545.166-12.44158-.13717-18.64395a53.9199,53.9199,0,0,0-9.7366-28.63472,36.07148,36.07148,0,0,0-5.023-5.36085A2.93027,2.93027,0,0,1,279.34767,54.8825Z"/><path class="cls-4" d="M255.11642,109.829c-10.10549,0-20.211-.0162-30.31636.02423-1.04834.00418-1.33445-.26531-1.33271-1.32109q.04744-29.04146.025-58.08305c.00006-.64507-.20281-1.2842.93908-1.2999,9.19051-.12641,18.331.24433,27.32908,2.34142,7.29556,1.70032,14.25759,4.16142,20.284,8.78958,6.32806,4.85977,10.01162,11.40984,12.15374,18.952a75.41392,75.41392,0,0,1,2.57,19.2778c.065,3.37916.04589,6.76014.13085,10.13862.02392.9507-.26089,1.20539-1.21262,1.20213C275.49652,109.81581,265.30646,109.829,255.11642,109.829Z"/><path class="cls-2" d="M398.65074,109.83862c-10.65892-.00008-21.31787-.01536-31.97664.02273-1.10909.004-1.53151-.19973-1.46471-1.43144.87154-16.06225,6.434-30.05512,18.36191-41.13478a59.37394,59.37394,0,0,1,28.70416-14.52376A87.96622,87.96622,0,0,1,431.17938,51.291c1.05905.00672,1.00368.55165,1.00316,1.27383q-.01367,18.649-.00654,37.29793c0,6.174-.02811,12.3483.02547,18.52187.00985,1.13343-.25144,1.48862-1.44724,1.48307C420.05324,109.818,409.352,109.83871,398.65074,109.83862Z"/><path class="cls-5" d="M143.17192,143.84645c-1.28419,3.83025-2.61494,7.64593-3.82091,11.50066-.31436,1.0048-.82949,1.1327-1.73042,1.15945-.90917.027-1.22887-.33025-1.47349-1.13665-1.1464-3.77916-2.40669-7.52381-3.36208-11.53254a4.83512,4.83512,0,0,0-.342,1.90588c-.16131,3.29-.337,6.57932-.502,9.86915-.09373,1.8695-1.49446.78139-2.28192.95141-.96246.20778-.6301-.588-.59866-1.08732.29727-4.7214.62228-9.4413.8744-14.16511.0634-1.18786.40417-1.64188,1.704-1.57667,2.54468.12766,2.55147.03552,3.32969,2.40768.52617,1.60381,1.07141,3.20207,1.55965,4.81744.47179,1.561.8815,3.14065,1.32789,4.746.53855-.29144.4787-.83016.58386-1.2357.8596-3.31438,2.109-6.5,3.154-9.75238.23175-.72124.57449-1.026,1.34814-.95909.96487.08345,2.16726-.27764,2.8474.1786.74935.50263.29572,1.79727.35788,2.74228.27711,4.21413.489,8.43259.77234,12.64627.06375.948-.125,1.355-1.19259,1.29859-2.21791-.11725-1.79077.2517-1.897-1.91839-.17756-3.62557-.33487-7.25212-.5007-10.87826Z"/><path class="cls-5" d="M189.47786,151.95014c0-3.9269.0598-7.46826-.03185-11.00571-.03287-1.26864.61939-1.18222,1.4703-1.18709.86242-.00492,1.48431-.06315,1.46429,1.19294-.07744,4.86005-.04734,9.72215-.01541,14.58321.00528.80418-.21339,1.02341-1.04584,1.10626a3.03417,3.03417,0,0,1-3.37566-1.86572c-1.88031-3.47475-4.05815-6.78586-5.93032-10.52661a6.01447,6.01447,0,0,0-.14344,2.39715c-.00081,2.959-.06323,5.92.028,8.87623.0428,1.38675-.82337,1.044-1.56519,1.08114-.79419.03973-1.4365.11643-1.41776-1.11219.07414-4.86015.04885-9.72221.01209-14.58321-.00659-.86855.24881-1.07383,1.12316-1.17615a3.34164,3.34164,0,0,1,3.768,2.07076C185.59347,145.09769,187.749,148.18531,189.47786,151.95014Z"/><path class="cls-5" d="M227.63167,144.2872c0,3.70953-.05739,7.42046.032,11.12784.03015,1.24957-.58141,1.21861-1.45674,1.20094-.83408-.01686-1.50038.10574-1.479-1.1771.08029-4.81812.05392-9.6386.01317-14.45773-.00762-.9026.18919-1.17421,1.16379-1.25508a3.34385,3.34385,0,0,1,3.69015,2.01989c1.82361,3.4028,4.0543,6.581,5.76384,10.087-.23919-3.597-.01635-7.1705-.15634-10.73476-.05416-1.37909.61037-1.32976,1.5838-1.35084,1.00555-.02178,1.49058.0978,1.46821,1.33814-.08606,4.77565-.06054,9.554-.01314,14.33078.00939.9473-.26394,1.14714-1.19723,1.22971a2.97428,2.97428,0,0,1-3.26981-1.83784C231.8433,151.25757,229.59674,147.882,227.63167,144.2872Z"/><path class="cls-5" d="M6.46885,148.2076q0-3.67934-.00183-7.35865c-.00079-.48144-.031-.93454.6515-.99691a23.904,23.904,0,0,1,7.69524.10179c4.37856,1.02226,6.71768,4.55437,6.06816,9.12795-.6661,4.69032-3.36748,7.23182-8.31644,7.66375-1.63583.14279-3.29523.0092-4.9438.01513-.90818.00327-1.204-.391-1.17664-1.322C6.516,153.03018,6.46881,150.6182,6.46885,148.2076Zm3.126.02946q0,2.59308-.00125,5.18614c-.00076.43457-.03029.8107.60636.86622,5.00189.43624,7.74294-2.24085,7.36334-7.046-.24953-3.15865-1.96413-4.78372-4.942-5.10334-.66694-.07155-1.3478-.00415-2.0216-.02357-.74474-.02147-1.03994.28915-1.01885,1.06127C9.62691,144.86309,9.59511,146.5505,9.59489,148.23706Z"/><path class="cls-5" d="M357.38455,139.51869c4.72808.02422,7.77465,3.45489,7.74856,8.72546-.02581,5.21337-3.30492,8.72626-8.15226,8.73337-4.59534.00677-7.80923-3.62424-7.7731-8.78188C349.2441,143.0041,352.55193,139.49392,357.38455,139.51869Zm-.24407,2.54223a3.7451,3.7451,0,0,0-3.5343,2.05325,8.17134,8.17134,0,0,0-.251,7.759,4.17172,4.17172,0,0,0,7.66316-.067,8.177,8.177,0,0,0-.25934-7.64553A3.79421,3.79421,0,0,0,357.14048,142.06092Z"/><path class="cls-5" d="M310.50325,151.6977c-.00016,1.14157-.01478,2.28339.00623,3.42457a.87621.87621,0,0,1-.72034,1.00918,14.13774,14.13774,0,0,1-9.08276-.05889,6.84935,6.84935,0,0,1-3.49151-2.99992,8.86437,8.86437,0,0,1,7.20295-13.47657,14.15346,14.15346,0,0,1,4.64387.43982c1.48686.39361.51679,1.31424.47794,2.01864-.05116.9286-.61009.75309-1.23713.55107a9.09676,9.09676,0,0,0-4.64219-.19361c-3.312.67668-5.04431,4.11068-4.02652,7.79921a5.72037,5.72037,0,0,0,7.21512,3.872c.28965-.093.61818-.138.62345-.51318a17.05547,17.05547,0,0,0-.05026-3.4103c-.154-.80162-1.09035-.39384-1.64925-.37944-.93044.024-1.32714-.15893-1.31673-1.228.01035-1.06449.313-1.39016,1.36258-1.31319,1.26192.09256,2.53629.0436,3.80424.01293.65855-.01592.90621.241.88917.8943C310.48128,149.32943,310.50337,150.51385,310.50325,151.6977Z"/><path class="cls-5" d="M266.394,151.70215c0,1.14048-.00511,2.281.00258,3.42141.003.44608-.02814.80186-.58047.95828-3.11215.88146-6.23765,1.239-9.30577-.056-3.33665-1.40833-4.8798-4.50147-4.53726-8.78031a8.15873,8.15873,0,0,1,6.25807-7.281,13.43607,13.43607,0,0,1,6.63444.04461c1.47754.34382.67863,1.175.58859,1.90763-.10563.85945-.46189,1.00391-1.272.70336a8.66694,8.66694,0,0,0-4.38528-.25545c-3.40946.53027-5.27127,3.89529-4.3247,7.69424a5.672,5.672,0,0,0,7.20349,4.03149c.28-.09353.62561-.11775.63125-.50245q.025-1.70856.00005-3.41766c-.00479-.30874-.2617-.40262-.537-.40937-.3378-.00832-.67581-.00978-1.01373-.01092a1.44626,1.44626,0,0,1-1.39061-2.18437c.17361-.36876.47627-.29651.7516-.29854,1.47865-.0109,2.958.01929,4.43586-.01688.68445-.01674.87042.26866.85121.90406C266.36856,149.336,266.394,150.51943,266.394,151.70215Z"/><path class="cls-1" d="M333.373,148.63049c2.37371,1.92518,2.20038,4.897,3.09946,7.42826a.50539.50539,0,0,1-.09087.44028c-.62063.58555-3.04658-.0843-3.27887-.91271-.32974-1.17612-.58954-2.37216-.93161-3.54442a3.0708,3.0708,0,0,0-3.774-2.34671c-.68718.09736-.535.52555-.538.90969-.01292,1.64685-.04564,3.29525.01119,4.94024.02819.81685-.20577,1.09948-1.05265,1.07059-2.48791-.08483-2.02541.25475-2.03916-1.9696-.02792-4.51841.0162-9.03735-.02866-13.55548-.00908-.91512.23034-1.25285,1.17974-1.30037a26.98322,26.98322,0,0,1,5.80576-.00386c2.25305.37149,3.78651,1.5203,4.21441,3.291.53006,2.19349-.18011,3.84921-2.26036,5.27763A3.98829,3.98829,0,0,0,333.373,148.63049Zm-5.517-3.86687c0,.67441.00769,1.34893-.00294,2.02317-.00614.38869.08276.65691.551.6365a9.24087,9.24087,0,0,0,2.50908-.18116,2.65079,2.65079,0,0,0,2.004-3.17991c-.29844-1.52744-1.8055-2.27468-4.23926-1.97322-1.65173.20457-.48026,1.54955-.818,2.29823A.94644.94644,0,0,0,327.856,144.76362Z"/><path class="cls-5" d="M378.83287,145.76213c0-1.6492.04294-3.3-.01785-4.94694-.03123-.84644.26114-1.08365,1.07963-1.05706,2.51835.08181,1.9978-.28772,2.064,2.08383.086,3.08217-.23093,6.17619.16917,9.24618.28655,2.1984,1.48073,3.29455,3.33262,3.27246,1.88979-.02253,3.20051-1.23813,3.29715-3.45049.1438-3.2922.11786-6.594.07935-9.89065-.01168-1.00105.27211-1.31281,1.27728-1.26757,2.28289.10277,1.94265-.255,1.90922,1.98272-.0493,3.29268.30876,6.60272-.20091,9.87542-.54756,3.51594-3.10919,5.50114-6.71271,5.3675-3.71881-.13793-5.97636-2.27832-6.20552-6.01659-.10584-1.72681-.01806-3.46547-.01806-5.19876Z"/><path class="cls-5" d="M40.85838,139.7728c2.43155.03906,1.85108-.3089,2.56272,1.85216,1.51653,4.60523,2.98388,9.22678,4.52532,13.82355.30231.90157.19067,1.17837-.80348,1.17129-2.19519-.01567-2.19548.02632-2.89011-2.099-.85486-2.61557-.85486-2.61557-3.6583-2.61559-2.43777,0-2.43728.00014-3.173,2.36807-.05.16082-.12318.31446-.17276.47537-.56465,1.83248-1.374,2.27237-3.294,1.85544-.822-.17853-.30023-.68545-.2161-.95688.92389-2.9805,1.89386-5.9467,2.85049-8.91706.54289-1.68572,1.08128-3.37291,1.627-5.05772C38.832,139.77168,38.8346,139.77252,40.85838,139.7728Zm-.16213,2.82462c-.39847,1.40217-.71863,2.61645-1.089,3.81522-1.01465,3.28392-1.023,3.28123,2.416,3.07606.084-.005.1684-.00427.25257-.003.372.00573.54128-.12066.41186-.52927C42.0333,146.89047,41.39108,144.82062,40.69625,142.59742Z"/><path class="cls-5" d="M92.2092,139.77264c2.367.06238,1.793-.4251,2.559,1.86932,1.52223,4.56006,2.931,9.158,4.46449,13.71421.36745,1.09172.09259,1.28657-.94517,1.26391-2.04625-.04469-2.04723,0-2.66478-1.89944-.91535-2.81539-.9156-2.83919-3.88059-2.80852-2.82854.02922-2.08468-.42674-2.95248,2.17129a15.768,15.768,0,0,0-.51668,1.69324.895.895,0,0,1-1.03447.83448c-3.05318-.05011-2.54441.26847-1.74489-2.31113,1.29845-4.18934,2.67244-8.35524,4.0083-12.533C90.139,139.77453,90.13245,139.77246,92.2092,139.77264Zm-.17557,2.89674c-.71763,2.41931-1.35184,4.55737-2.02169,6.81558,1.25621,0,2.38722-.00484,3.51816.00235.45623.00291.59757-.17831.4562-.6218C93.35721,146.89192,92.73989,144.91458,92.03363,142.66938Z"/><path class="cls-5" d="M406.628,148.23063c0-2.41038.00437-4.82078-.00325-7.23114-.00183-.57758-.02086-1.0972.78484-1.16436a22.90338,22.90338,0,0,1,6.31443-.01637c2.4376.47067,4.05711,2.05514,4.253,4.22209.259,2.86567-.84616,4.80982-3.29367,5.78127a8.03139,8.03139,0,0,1-3.72306.59442c-.99923-.09345-1.22207.28553-1.1724,1.19938.07105,1.307-.0264,2.62288.03387,3.931.03836.8328-.232,1.09838-1.07353,1.07135-2.53954-.08152-2.08446.27121-2.11437-2.0446C406.6065,152.45965,406.628,150.345,406.628,148.23063Zm3.17875-3.18633c0,.67558.0053,1.35122-.00186,2.02672-.0048.4531.01927.84715.63751.85851a6.2412,6.2412,0,0,0,2.73549-.35634,2.92539,2.92539,0,0,0,1.61151-3.47119c-.4574-1.57033-2.12679-2.43546-4.27719-1.97019-1.4222.30773-.42071,1.60735-.69889,2.4084A1.59269,1.59269,0,0,0,409.80672,145.0443Z"/><path class="cls-5" d="M64.92171,149.46993c0-2.02991-.03048-4.06054.0155-6.08941.01761-.777-.22927-1.049-1.0093-1.00428-1.01182.058-2.02976-.00025-3.04467.0162-1.22309.01981-.70093-.90156-.76714-1.45827-.06712-.5643-.17942-1.186.804-1.17587q5.58293.0576,11.16669-.0004c1.294-.01527.80772.87836.88589,1.488.09026.70391.00374,1.24108-.96032,1.16122-.92425-.07655-1.86376.03678-2.78927-.03171-.89893-.06654-1.14945.27236-1.14044,1.1486.04039,3.93256-.06566,7.86838.05819,11.79746.05076,1.61027-.89286,1.2248-1.76771,1.28951-.97542.07217-1.57084-.02659-1.48525-1.30728C65.01734,153.367,64.9217,151.41528,64.92171,149.46993Z"/><path class="cls-5" d="M164.356,148.225c-.00025,2.44548-.02954,4.89154.01648,7.33615.01505.79964-.18519,1.12311-1.0404,1.10072-2.66332-.06977-2.12867.24185-2.14526-2.126-.03162-4.51129.01472-9.02317-.02906-13.53425-.00923-.95248.19234-1.45365,1.24083-1.28055a2.64066,2.64066,0,0,0,.75748.00141c.90107-.1164,1.25739.1703,1.22565,1.16684C164.30388,143.33237,164.35626,145.77953,164.356,148.225Z"/><path class="cls-1" d="M207.03153,148.18875c-.00011-2.45042.02888-4.90139-.01664-7.351-.01492-.80273.18391-1.10951,1.04408-1.08032,2.50607.085,2.03335-.2449,2.0474,1.96385.02876,4.52041-.0239,9.04155.033,13.56143.01306,1.03915-.2393,1.39266-1.318,1.34137-1.78632-.08492-1.78965-.0159-1.7897-1.84457Q207.03155,151.48415,207.03153,148.18875Z"/><path d="M220.59306,219.47314q-4.81055,4.0144-13.73975,4.01416H195.44609v19.69922H184.073V188.40088h23.523q8.135,0,12.97119,4.23682,4.83691,4.23705,4.83643,13.1206Q225.40361,215.45924,220.59306,219.47314Zm-8.73779-19.73632a9.2205,9.2205,0,0,0-6.09229-1.82129H195.44609v16.13135H205.763a8.747,8.747,0,0,0,6.09229-1.97022q2.17457-1.96949,2.17529-6.24414Q214.03056,201.55884,211.85527,199.73682Z"/><path d="M234.58427,188.4751h39.06348v9.62646H245.95781v12.6001h24.2705v9.51514h-24.2705v22.96972H234.58427Z"/><path d="M292.58574,188.40088h12.95263l19.3833,54.78564H312.50761l-3.61523-11.26172h-20.1753l-3.71386,11.26172H273.02861Zm-.7544,34.083H305.8621l-6.92089-21.55762Z"/></svg>