<?xml version="1.0" encoding="UTF-8"?><svg id="Layer_1" xmlns="http://www.w3.org/2000/svg" xmlns:xlink="http://www.w3.org/1999/xlink" viewBox="0 0 5210.44299 2085.09942"><defs><style>.cls-1,.cls-2,.cls-3{fill:none;}.cls-4{fill:#fed45e;}.cls-5{fill:gray;}.cls-6{fill:url(#linear-gradient-4);}.cls-7{fill:url(#linear-gradient-3);}.cls-8{fill:url(#linear-gradient-2);}.cls-9{fill:#fd5b0a;}.cls-10{fill:url(#linear-gradient);}.cls-11{fill:#c64707;}.cls-12{fill:#020101;}.cls-2{stroke:#c64707;}.cls-2,.cls-3{stroke-linecap:round;stroke-linejoin:round;}.cls-13{fill:#fd6b10;}.cls-14{fill:#9b9b9b;}.cls-3{stroke:#c74d0a;}.cls-15{fill:#b3b3b3;}.cls-16{fill:#fcfcfc;}.cls-17{fill:#c74d0a;}</style><linearGradient id="linear-gradient" x1="979.29266" y1="-51.19523" x2="979.29266" y2="1415.74859" gradientUnits="userSpaceOnUse"><stop offset=".42728" stop-color="#ffb02c"/><stop offset=".72332" stop-color="#ff690f"/></linearGradient><linearGradient id="linear-gradient-2" x1="633.44225" y1="1063.78541" x2="1311.0982" y2="1063.78541" xlink:href="#linear-gradient"/><linearGradient id="linear-gradient-3" x1="9088.25766" y1="-6945.61572" x2="9088.25766" y2="-6400.59549" gradientTransform="translate(1684.85913 9283.75558) rotate(-71.58008) scale(.76716 .53473)" xlink:href="#linear-gradient"/><linearGradient id="linear-gradient-4" x1="-883.59227" y1="6644.91327" x2="-883.59227" y2="7189.93351" gradientTransform="translate(4889.55007 -943.47038) rotate(45.11358) scale(.83553 .606)" xlink:href="#linear-gradient"/></defs><path class="cls-10" d="M1746.44019,795.15772c0,354.8675-343.46351,642.54458-767.14736,642.54458S212.14513,1150.02522,212.14513,795.15772c0-254.35358,142.96573-449.60445,395.7356-564.25079,54.97147-24.93287,145.64029-105.70536,206.02789-137.06628,31.38246-16.29776,30.53111,14.71038,59.33503,21.76182,16.48397,4.03541,54.90031-19.50271,83.69452-14.30468,416.94442,75.26823,789.50201,338.99242,789.50201,693.85992Z"/><path class="cls-1" d="M362.35478,1574.50431c.93408-4.19449,1.91232-8.38028,2.9374-12.55486-1.02508,4.17458-2.00332,8.3602-2.9374,12.55469v.00017Z"/><path class="cls-1" d="M513.01641,1711.7787c3.73163-.73268,31.73926-34.05656,36.17547-39.78498,14.73582-19.02833,30.1615-34.00838,14.5003-59.13616-1.18165-1.89626-4.05146-1.20406-4.17625-1.38539-10.43612-15.20269-11.45685-17.39487-26.69551-28.74917-.33021-.24607-2.06856.31415-3.4322-.64402-3.33217-2.34172-9.52512-8.64106-12.99513-11.65641l43.12284-2.07408,46.74239,11.99464c5.53756,1.8071,14.76761-14.0438,15.9884-18.05946,4.97417-16.36042-10.91119-29.64461-21.66045-39.11219-15.84554-13.95531-20.71566-14.6117-39.01684-22.58851-2.29204-.99932-5.25018-4.32145-8.20363-5.12371.97556-2.16993,9.52412-4.53122,12.31063-5.14379,11.93994-2.62526,31.06313-2.2355,43.12384,0,6.50777,1.20607,41.0854,15.54913,42.94118,14.21425,7.88246-12.59065,1.57208-28.52954-5.58005-40.30254-2.41984-3.98355-5.25319-5.00093-6.55862-6.76772-8.79044-11.89578-11.01088-12.01622-20.535-20.535-2.24286-2.00566-7.55894-9.2906-11.80713-12.25443-5.38099-3.75438-13.15438-7.00559-18.99572-10.33441-.26129-.73-4.46397-1.74169-4.10633-4.08626,5.45225.09501,10.97709-.20809,16.42767-.02074,13.94159.48009,30.0966,3.33351,43.12351,8.214,4.72292,1.7698,27.17425,15.4685,28.72291,14.37149,3.52287-13.33303,2.9481-27.83868.0261-41.067-4.21138-19.06363-9.42041-23.54834-26.69551-30.80251-15.42534-6.47699-26.03944-9.34212-43.12351-8.214-83.51772,5.51548-143.13347,94.03747-170.44087,164.28037-9.57531,24.6303-15.18413,41.38416-20.53534,67.76552-1.8695,9.21834-7.73626,27.20252-6.16519,35.84676,1.10537,6.08071,10.14807,11.31399,14.37952,15.49091,10.78038,10.64137,21.94449,19.35787,32.85601,28.74901,9.56193,8.22922,18.50492,16.74382,28.74901,24.64201,9.9848,7.69828,19.73207,17.7403,31.53351,22.27352Z"/><path class="cls-1" d="M428.4716,1415.74276c-4.99157,7.15212-9.66095,14.49126-14.09214,21.95954,4.43152-7.46861,9.10057-14.80742,14.09214-21.95954Z"/><path class="cls-1" d="M206.54969,878.90461c.27567,5.72424.64302,11.64186,1.09567,17.69028-.45265-6.04843-.82-11.96637-1.09567-17.69028Z"/><path class="cls-1" d="M209.00667,912.48559c.87319,9.07548,1.91968,18.31255,3.13846,27.52821-1.21878-9.216-2.26527-18.45273-3.13846-27.52821Z"/><path class="cls-1" d="M159.08299,999.52852c.66878-20.50623,2.17628-40.98269,4.45962-61.37819-2.28334,20.3955-3.79118,40.87195-4.45962,61.37819Z"/><path class="cls-1" d="M1549.30415,1568.34849c-2.11606-14.30927-4.39037-23.53329-8.214-36.96301-4.60917-16.18813-8.72587-28.13309-16.428-43.12351-28.37899-55.23174-79.671-92.51023-134.79434-118.81364-62.44809-29.79817-128.35917-51.06987-175.28457,16.13828-8.8433,12.66559-11.55922,16.72977-14.3745,32.85601-2.81394,16.11854-3.06553,29.17188,2.07826,45.17233,12.53746-9.42442,26.89791-24.21076,41.04525-30.79782,10.39196-4.838,24.96552-6.65966,35.96102-10.22133-2.21074,4.88986-7.57768,10.28691-11.31901,14.32867-10.24475,11.06709-14.85927,15.12257-22.58851,28.74901-6.93767,12.23067-6.97247,13.23735-10.2675,26.69551-2.16691,8.85066-8.30065,16.93184-2.15721,27.8253,9.16314,16.24734,25.9277-5.39404,37.06672-11.3973,14.7288-7.93799,28.31576-11.87738,45.17735-12.321,4.7808-.12579,9.5917.08698,14.3745,0-7.86272,7.92394-16.92649,14.47688-24.64201,22.58851-10.78539,11.33875-14.50297,16.7378-20.53534,30.80251-2.0893,4.87113-7.80952,9.79444-5.85974,16.99641.49213,1.81797,21.95318,23.57444,23.60689,23.86132l37.69769-20.32273c15.14063-2.40445,29.51146-8.87274,45.17634-8.19326-5.13208,4.61519-8.45823,11.63199-12.32033,16.40726-1.39376,1.72329-4.7092,3.13027-7.01562,6.30787-9.60575,13.23518-19.63405,29.78312-16.14965,46.57344l98.42216,82.41937c7.83529,1.39208,85.60969-67.00139,95.18366-77.80251,2.50983-2.83184,8.52213-5.1468,9.84596-9.66815,1.5055-5.14312.59551-17.04559.42154-23.18803-.33389-11.77718-2.39174-23.31064-4.107-34.90951Z"/><path class="cls-1" d="M1719.74469,1278.80459c4.6811-6.75936,9.60408-13.34273,14.44008-19.99972-4.836,6.65698-9.75931,13.24036-14.44008,19.99972Z"/><path class="cls-1" d="M1594.02081,1533.77454c-1.31748-5.61183-2.80357-11.17883-4.45427-16.69297,1.6507,5.51414,3.13679,11.08148,4.45427,16.69297Z"/><path class="cls-1" d="M1635.59801,1386.55046c4.654-5.83665,9.43312-11.57126,14.26878-17.26004-4.83566,5.68878-9.61512,11.42339-14.26878,17.26004Z"/><path class="cls-1" d="M321.30953,1075.50804c20.94182,44.88595,41.41193,75.76808,73.92602,112.94253,48.68783,55.66565,87.4541,77.97982,151.27922,112.5966,3.63394,1.9712,12.80711,9.84897,14.28752,10.13268,4.02069.77048,15.06804-4.65366,20.47077-5.4837,28.00027-4.30272,56.74526-3.07557,82.95132,8.01728-.15724-28.82428,1.62025-58.01791-5.06082-86.29921-15.61537-4.1244-32.03936-6.14043-46.25629-14.32164-25.99896-14.96098-38.03894-45.79259-25.67311-73.93003,1.10604-2.51719,14.05701-21.37541,15.4056-22.58449,2.64834-2.37467,24.85913-11.51272,29.46395-12.63281,12.71277-3.09129,26.33854-2.29873,38.7686-4.35524,50.56469-8.36455,73.16122-28.68578,106.31499-63.09847,26.54195-27.5503,53.63591-64.521,84.19352-88.30052,80.21097-62.41932,182.29383-51.82195,254.63406,16.428,26.04045,24.5674,46.087,55.16549,71.87285,80.08652,27.80422,26.87148,52.82796,45.25195,91.98498,52.78681,25.64935,4.93603,48.31982,1.03779,70.91502,17.3855,16.80538,12.15841,29.79616,35.99012,26.02238,57.14472-.38775,2.1726-6.9166,16.59194-8.54722,19.1747-10.96472,17.36677-36.67462,31.0106-57.06008,32.25715l4.88852,67.81168c7.61682,2.54998,15.47552,3.20036,23.26397,5.4847,9.34748,2.74202,34.5977,14.47621,40.69297,14.88871,3.97686.26932,42.13088-15.68429,48.83604-18.75015,49.06387-22.43327,88.37212-52.48637,124.52684-92.1178,29.14244-31.94468,45.98864-58.09486,65.71202-96.51452,18.52366-36.08179,26.28534-57.71915,36.96301-96.51452,12.13164-44.07733,17.71671-72.91165,20.535-119.10336,2.52389-41.35539,1.50951-79.75497-4.107-121.15653-31.38162-231.32994-182.95926-416.25739-394.93819-507.57627-94.74506-40.81508-199.32303-66.3731-303.24227-61.25473-2.32516-2.06287,10.20494-13.57726,12.28621-15.41497,21.18772-18.71168,50.90125-31.07517,78.04941-37.98708,4.52352-5.88483-26.64532-22.05389-30.83797-23.55002-23.56072-8.40871-51.41446-7.40505-75.57203-1.733-37.68699,8.84899-70.85748,36.08045-74.31076,76.64194-2.71257,3.32314-26.28534-25.01403-28.37966-28.07053-4.98487-7.27624-18.83011-33.12164-18.83011-40.7214v-31.82926c-43.92979,18.45608-61.86229,66.84984-31.65094,106.60371,2.14985,2.82967,17.80704,16.41931,15.2129,18.64945-100.85973,11.80043-193.6734,65.51764-272.93055,126.47596-80.05975,61.57591-147.70182,136.55879-197.31169,224.68333-26.4834,47.04517-41.16268,83.48359-55.44451,135.53103-9.62783,35.08883-17.45977,67.82038-20.535,104.72886-3.71055,44.53366-1.16492,89.52131,6.1605,133.47787,7.87543,47.2536,21.04955,86.45879,41.07001,129.37053ZM1545.18009,918.38748c-18.95758,21.11713-39.85725,44.92643-63.64145,60.60603-82.88072,54.63823-198.22737,61.86998-273.1159-10.2675-19.03386-18.33497-42.98902-53.69947-51.33751-78.03335-10.10959-29.4673-10.0932-70.27702-4.107-100.62152,6.58271-33.36955,25.86815-69.89161,49.28401-94.46136,91.47645-95.98325,249.2059-68.92308,305.97191,49.28435,18.81271,39.17475,24.34626,80.24677,16.428,123.21003-3.71457,20.15428-13.52206,43.31186-24.59851,60.60101,14.88704-.0194,28.91762-9.38461,42.09408-13.34006,2.87216-.86215,3.65033.21278,3.02237,3.02237ZM1624.25692,673.02128c1.33354.6845,1.33354,1.369,0,2.0535v-2.0535ZM925.08751,152.50675c25.50917-32.18623,68.7016-24.89393,104.68972-19.54338.48979,5.43418.10806,3.33284-3.08125,4.06184-39.81275,9.0979-70.31583,20.14525-98.60583,51.34019l-23.56507,32.87508c4.0963-23.55035,5.13308-49.26528,20.56244-68.73372ZM812.1229,126.8052c2.78551-.51756,3.13211,3.68646,3.53424,5.64562,2.0167,9.81318,2.20706,19.21083,5.72424,29.20467,8.52648,24.22649,27.32514,41.35605,46.1596,57.52143-52.86543-9.3555-82.3993-38.34807-55.41808-92.37172ZM804.64626,251.79005c332.41683-86.47652,691.5285,103.89147,818.53907,418.1754-2.05149,1.48141-4.82897-2.81495-6.05545-4.19164-55.80383-62.65385-90.87425-116.71932-176.23236-146.16755-5.4586-1.88321-28.05882-5.78112-29.18393-6.77006-3.33652-2.93238,1.35495-3.69817,2.60418-4.68511,5.28062-4.17124,37.83519-24.30511,38.45713-27.16991.75208-3.46532-14.24336-11.3528-17.68928-13.06037-40.89738-20.26803-87.00646-16.5645-130.14001-6.42279,3.65736-23.3727,14.12158-37.31563,34.26582-48.88054l17.04827-8.57934c-38.10786-15.01217-76.14077-26.18431-117.79692-22.34963-19.56881,1.80125-37.75356,10.02863-56.72452,14.10017.15657-17.00277,11.83188-32.10995,24.80861-41.90907,7.96911-6.01798,14.36647-6.92998,21.83977-10.98947,2.39609-1.30142,3.46867.08029,2.61689-4.57939-42.58354-5.21973-85.49494-7.84666-126.87073,5.56232-13.74286,4.4536-25.87718,12.3384-39.44742,17.00277,1.76043-12.63816,5.10866-24.09467,10.55355-35.62914l24.33522-36.2223c-54.14242,10.39095-123.54191,20.64574-165.28404,59.55386-3.38001,3.15017-8.22772,15.53106-11.49499,7.42378-11.07244-27.47569-7.26219-53.93801,10.4582-77.23209-56.30231,8.05208-119.07727,21.16163-162.01878,60.76528-3.82899,3.53157-7.4917,14.55717-12.07845,5.50176-6.13608-12.11559-1.74705-36.87268,1.59315-49.84874-38.26978.82869-71.86181,14.14266-107.41768,25.01135-2.0361.62261-6.13909,3.48506-7.55861.65606,48.68081-30.79046,102.92995-54.51177,158.87329-69.0656ZM445.61756,913.20991c-11.04802-25.22815-16.76189-50.45362-17.52568-77.96176-.89025-32.06311,8.62651-72.63764,24.64201-100.62152,73.33954-128.14706,264.84235-124.55829,332.66741,6.1605,15.68897,30.23744,21.8478,66.77958,20.535,100.62152-1.1512,29.67673-11.29693,66.78493-26.69551,92.40786-8.22069,13.67863-29.66903,36.82116-42.15798,47.16929-19.81906,16.42165-43.61798,26.28835-66.67754,37.02423-8.64023-1.41651-31.10762,5.50879-42.11917,6.13976-42.56714,2.43891-102.9691-13.43775-139.96723-34.53748-8.71885-4.97283-25.92402-19.53268-33.53147-20.88629l-28.75269-27.71858-16.38117-22.6146,45.12147,13.36147c.83371-.82267-7.848-15.55481-9.15745-18.5444Z"/><path class="cls-1" d="M1717.62026,665.23617c.00803-.18467.02275-.35429.08096-.41753-.05855.06323-.07293.23285-.08096.41753Z"/><path class="cls-16" d="M1023.35778,1630.73067c1.29874-12.95883-1.94377-30.83697.68115-42.44219,3.39574-15.00999,21.79494-15.4332,33.79243-17.54542,48.83337-8.59724,96.94242-9.70896,146.48404-8.57549-60.81814-66.78962-81.2588-161.85552-10.26717-229.97198-11.03497-2.85911-29.64227,6.2428-39.01651,4.107,2.28836,9.13737-3.66572,19.78527-13.43608,20.45204-15.36144,1.04883-43.46944-12.41334-62.54378-12.23803-7.56095.06959-24.16192,4.107-31.82892,4.107h-98.56802c-5.8962,0-19.35001-5.99657-25.66909,0,65.74614,14.92987,131.05769,32.58703,197.17787,46.16228,16.38552,6.19228,13.63681,28.87012-4.88551,27.66271l-330.37136-76.41042c-8.38195-.78888-12.04031-13.65588-9.77303-20.00306l-73.92602-18.4815c-.14185,9.05307-3.72092,18.90304-1.99863,27.68512.76513,3.90058,9.19492,13.39024,11.97173,18.81305,46.73738,91.2804-48.11441,244.71098-101.57634,318.80311-31.91658,44.2329-67.61296,80.06093-105.4796,118.35212-6.22909,6.29884-38.32431,35.87319-40.1182,39.9899-1.094,2.50967.81765,2.64265,2.04213,4.04059,58.93794-15.30942,120.02004-21.90835,180.76224-26.60819,68.88761-5.32997,138.80633-4.2256,206.73711-19.14794,71.73869-15.75873,161.91005-79.9082,169.80957-158.75068ZM783.38561,1384.38756c104.02395,27.00129,210.39079,46.31283,314.17621,74.07021,5.49574,1.4697,20.8244,4.27896,24.07895,7.73726,8.52648,9.06177-.02676,28.26792-14.2825,23.67916l-328.61026-78.12569c-15.61671-4.96915-12.73083-28.69548,4.63761-27.36094ZM751.96819,1494.80353c3.09029-.91969,6.19596-.58982,9.27287.11576l228.43236,52.94538c20.8903,8.48633,10.93126,31.3398-9.98781,26.43823l-226.77497-52.52351c-13.83955-3.04512-13.7248-23.1713-.94244-26.97586ZM727.32919,1560.55971c3.78449-.84576,7.56229-.75676,11.33172.09267l229.10214,54.29966c17.07905,4.73898,13.28553,28.54309-4.41446,27.18747l-231.34566-54.27524c-16.17776-.5383-20.18606-23.83556-4.67374-27.30456ZM712.24677,1626.02114c46.53798,14.79905,100.15917,21.49735,145.92098,36.916,2.79922.94311,9.1909,2.69551,10.89212,4.50127,7.86974,8.35401,1.01872,26.90511-12.52274,24.01873-46.55805-16.73747-107.40095-21.26015-152.33173-38.83234-20.04957-7.84131-11.93493-30.07267,8.04137-26.60367Z"/><path class="cls-15" d="M794.39047,1320.12618c33.56092,2.77614,85.07541,20.05592,119.9799,27.97083,3.04044.68918,6.38465.02007,8.61547.52659,6.31908-5.99657,19.77289,0,25.66909,0h98.56802c7.667,0,24.26797-4.03741,31.82892-4.107l-110.32363-26.23516c-13.58863-11.73754-6.14712-26.8116,12.26279-24.57275,42.65881,5.18795,110.98939,21.93043,153.5271,33.33175,8.11732,2.17561,17.92179,8.67201,20.51359,9.26216,9.37424,2.1358,27.98154-6.96611,39.01651-4.107,21.76249-20.88093,55.78609-37.10051,86.24133-39.02621l-4.09228-61.60468c-57.99851,6.52015-115.38143,19.15262-173.5412,24.64033-81.62146,7.7018-168.86077,7.92863-250.50698.00201-51.92633-5.04141-103.40837-15.57255-155.03795-22.57479,1.64501,24.60487,4.48271,49.24386,4.09663,73.92133l73.92602,18.4815c2.1358-5.9785,13.78401-6.3619,19.25667-5.90892Z"/><path class="cls-11" d="M1793.24247,893.29952c-2.88788-19.40387-6.42012-38.6766-10.61243-57.6964-1.11775-5.07186-2.28267-10.12599-3.4951-15.16004-1.47137-6.11199-3.03709-12.1825-4.64865-18.23092-2.36999-8.89549-4.86778-17.72909-7.54288-26.46433-4.49408-14.67493-9.42074-29.10564-14.78835-43.23057-3.5784-9.41639-7.35286-18.69696-11.32537-27.82262-3.97251-9.126-8.14308-18.09743-12.51404-26.89624-.27868-.56105-1.34458-3.06352-2.75372-5.77141-.47005-.90263-.97824-1.82801-1.50784-2.71224-.23185-.38675-.46804-.76513-.70658-1.1308-1.19369-1.82701-2.45731-3.32046-3.61888-3.80757-.46503-.19471-.91334-.22884-1.33421-.05821-.24088.09769-.47239.26162-.6932.50049-.05821.06323-.07293.23285-.08096.41753-.00167.04416-.02007.04918-.01907.10003.00435.26296.0445.61257.11609,1.03746.14352.84977.41318,2.00131.77282,3.36462.22482.85211.48511,1.78653.77182,2.78183.57309,1.98993,1.25224,4.22276,1.96719,6.52182.35731,1.14953.72364,2.31579,1.09032,3.47636.29307.92839.58681,1.85377.87587,2.76376.57778,1.82065,1.13816,3.58242,1.64534,5.19497,1.01437,3.22478,1.81463,5.85305,2.11439,7.1635,8.34983,36.52006,13.69335,74.2967,15.9061,112.51965.31582,5.46061.56807,10.93026.75609,16.40659.13315,3.88285.23419,7.76938.30277,11.65825.12011,6.80552.14018,13.61908.06089,20.43564-.23854,20.4507-9.59766,40.93083-11.6612,61.31997-1.89492,18.72171-4.56701,37.36648-8.03167,55.83929-1.15488,6.15782,5.82153,12.29625,4.49,18.41259-7.98952,36.6967-27.38797,72.58244-41.88057,106.90347-4.83031,11.44012-10.0293,22.7066-15.60098,33.77169-13.92888,27.66204-30.18626,54.06313-48.84374,78.76737-11.19489,14.82247-15.03364,9.53264-27.97156,23.03931-6.8808,7.18357-12.35786,1.4401-20.21155,8.20749-3.92668,3.38369-11.38178,10.60975-15.47673,13.88304-6.1431,4.9106-7.02758,15.34839-13.40956,19.99972-2.1271,1.55066-10.24351-1.52055-12.385,0-4.28298,3.04144-8.07934,8.37057-12.38139,11.28957-6.45324,4.37899-13.24798-.70082-19.60386,3.39146-2.11874,1.36432-7.19072,18.30968-9.28604,19.64121l-22.69921,12.02243-41.43947,15.25506c20.35033,11.14972,57.41336,43.48789,73.95712,59.3428,12.40732,11.8911,3.09194,21.4213,13.08377,35.39634,3.33083,4.65835,12.51407,10.42535,15.55886,15.27908,1.52256,2.4272,9.5671,14.0519,11.0164,16.52459,6.81958,11.6345,6.61712,14.79028,11.74986,27.29362,1.41216,3.4399,11.0089,19.34606,12.28791,22.84082,1.97588,5.39838-1.65136,4.93085,0,10.44466,1.6507,5.51414,13.20214,16.43205,14.51962,22.04388,3.29336,14.02891,19.78911,12.53893,20.90118,26.98168l42.72204-52.73361c1.59784-2.03711,3.14683-4.10533,4.655-6.19898,3.01635-4.18696,5.87044-8.47629,8.62919-12.8225,6.89686-10.86502,13.19787-22.086,19.95187-32.96273l-41.02317-85.2835c4.65366-5.83665,9.43312-11.57126,14.26878-17.26004,4.83566-5.68878,9.72786-11.33139,14.60735-16.98437,4.87982-5.65298,9.7466-11.31566,14.53208-17.04459,4.78548-5.72859,9.48966-11.52342,14.04296-17.44037,9.64724-12.53512,17.87261-26.2753,26.69551-39.01651,4.68076-6.75936,9.60408-13.34273,14.44008-19.99972,2.05484-2.82833,4.08559-5.6774,6.08355-8.55123.73937-1.06355,1.46937-2.13446,2.19602-3.20772,1.50951-2.22881,2.98423-4.48404,4.42215-6.76805.40214-.63833.81765-1.26696,1.2131-1.91098,2.02272-3.29336,3.99325-6.61683,5.92564-9.96239,5.79684-10.03699,11.24842-20.27271,16.72576-30.4907,5.477-10.21832,10.97944-20.41858,16.87698-30.38498,1.96585-3.32213,3.97519-6.61884,6.04274-9.88076,10.87037-72.21644,12.55686-151.23238,4.07723-229.30555-1.27164-11.71077-2.77246-23.40081-4.50546-35.043Z"/><path class="cls-2" d="M1743.98088,858.66066c.07929-6.81656.05922-13.63012-.06089-20.43564"/><path class="cls-2" d="M1721.22911,679.04193c-.71494-2.29906-1.39409-4.53189-1.96719-6.52182"/><path class="cls-2" d="M1724.05409,669.31474c-.23185-.38675-.46804-.76513-.70658-1.1308"/><path class="cls-2" d="M1718.39442,664.31815c.42087-.17062.86917-.1365,1.33421.05821"/><path class="cls-11" d="M1311.09809,1137.11305c-12.20391,10.73588-28.16621,15.3126-43.12384,20.535-20.01879,6.98953-34.97508,9.99116-55.44451,14.3745-26.01,5.56968-47.24289,9.28893-73.92602,12.321-34.07881,3.87248-68.34195,7.17287-102.67536,8.214-43.72236,1.32584-87.89805.01137-131.42403-2.0535-82.53881-3.91597-186.82104-12.52843-263.41948-43.58185-3.13311-1.26997-6.30637-2.1184-7.64258-5.70216-32.1474,8.09791-21.40619,28.91628-2.74871,40.73813,16.59796,10.51675,97.73449,30.07143,122.10416,33.8151,164.49616,25.2693,302.07818,15.00354,466.32242-11.49156,23.13818-3.73263,95.55368-13.3414,111.14128-24.38975,24.29775-17.2219,16.87886-38.29576-19.16333-42.77892Z"/><path class="cls-9" d="M314.28119,1349.84005c-24.82668-29.49373-48.3506-60.48325-70.02075-92.7133-7.22338-10.74324-14.24102-21.62499-21.03249-32.63453-3.3954-5.50477-6.7346-11.04166-10.01458-16.60933-2.45999-4.17592-4.88651-8.36924-7.27925-12.57928-7.17688-12.6308-14.0453-25.41349-20.57582-38.33469-5.80453-11.48528-11.34209-23.0803-16.59261-34.77569-1.19972-2.67276-.51856-5.8139-3.87348-5.81658-.47908-.00067-1.04114.0629-1.70222.2014,12.90012,129.61676,59.34141,256.67284,129.37053,365.52308l46.96086-103.27522c-8.54454-9.48933-16.96497-19.15463-25.24019-28.98587Z"/><path class="cls-5" d="M1277.05037,1654.65406c-152.29986,92.29026-327.82654,149.73742-508.07708,172.45624l20.8351,4.17157c38.54058.68684,77.3045-1.21561,115.7984-.08498-1.25206-5.44606,2.91022-4.09563,6.57699-5.06216,9.31163-2.45447,19.13456-4.45828,28.60562-6.3072,102.04119-19.91976,204.25797-39.20235,306.42843-58.44982,14.27283-27.65735,30.55965-69.2292,32.7722-99.87245.21185-2.93321,2.20466-8.21618-2.93966-6.85119Z"/><path class="cls-16" d="M1064.54087,1608.25525c-2.95345,15.40142-3.53357,31.0111-7.02968,46.36134-7.59374,33.34345-25.76611,63.03858-48.278,88.25887,32.07783-8.10243,65.00042-23.26999,95.19738-37.23266,52.50645-24.27868,102.9517-53.01531,154.00551-80.09137,9.22871-3.08728-8.88077-18.02467-12.93458-19.32893-11.85697-3.81443-45.12248-6.38365-58.6616-7.05042-40.69765-2.00432-82.18585,3.55749-122.29903,9.08318Z"/><path class="cls-14" d="M897.36732,1823.75152c-3.8988,1.04971-8.32447-.41694-6.99318,5.49778,15.583.46744,34.0042,1.40324,50.35917,2.25292,75.94956,3.94648,160.02334,29.97048,235.42121,38.7649,38.32602-24.80161,57.60147-77.56368,77.44788-116.84534-108.63583,20.90382-217.3209,41.84579-325.81929,63.47976-10.07038,2.00803-20.51492,4.18429-30.41579,6.84997Z"/><path class="cls-17" d="M414.37947,1437.7023c4.43119-7.46828,9.10057-14.80742,14.09214-21.95954,2.29706-3.29136,4.64162-6.50208,7.03235-9.64322,4.78146-6.28161,9.74593-12.28487,14.87701-18.0981,2.56604-2.90628,5.17323-5.76506,7.82023-8.58737,2.64734-2.82197,5.33415-5.60782,8.05843-8.3679,8.17386-8.28091,16.68728-16.33165,25.48575-24.45097-14.16507-7.08086-27.98421-14.95362-41.40824-23.54232-26.84773-17.17707-52.11268-37.21727-75.39438-59.50903-5.81992-5.57269-11.51673-11.28689-17.08273-17.13157-2.78317-2.92234-5.53321-5.87747-8.25047-8.86438-5.43452-5.97349-10.73521-12.07343-15.89673-18.29014-5.16118-6.21671-10.18286-12.55051-15.05833-18.99137-2.4379-3.22043-4.83934-6.46762-7.20364-9.74058-4.72794-6.54557-9.30733-13.19386-13.73082-19.93515-22.11946-33.70645-40.3554-69.73605-53.92496-106.89544-.81364-2.2278-1.64702-4.48839-2.49177-6.77408-4.22443-11.42807-8.7339-23.48545-12.46787-35.25377-1.3322-4.19934-2.54295-8.34983-3.62959-12.43408-.13181-.49414-.2837-.99898-.41083-1.49078-2.6102-10.10022-4.9842-21.06996-7.09993-32.49603-2.11573-11.42573-3.97318-23.30813-5.54994-35.23269-1.21878-9.21566-2.26527-18.45273-3.13846-27.52821-.51655-5.36861-.97155-10.67767-1.36131-15.89071-.45265-6.04843-.82-11.96604-1.09567-17.69028-.12445-2.58477-.23285-5.13509-.3205-7.63522-.24423-6.97682-.30913-13.94025-.21445-20.89198.09468-6.95172.34961-13.89107.74405-20.81971.39478-6.92797.92973-13.84524,1.58479-20.7518.36266-3.82263.77015-7.64124,1.20373-11.45718,1.13247-9.97443,2.48708-19.92879,4.01968-29.86374,1.05954-6.86842,2.20037-13.72747,3.40343-20.57917,1.80426-10.27687,3.74802-20.53567,5.76506-30.77942.67212-3.41481,1.35261-6.82727,2.03878-10.23873,0,.00033-.00033.00033-.00033.00067l-39.41563-1.62451-4.67877,16.87327c-2.45764,6.94604-9.81328,9.51365-12.11804,16.52459-2.37869,7.23677,6.61663,18.47287,4.40656,25.7732-.95884,3.1679-8.49939,14.01147-9.42544,17.19075-7.02633,24.1124-10.88692,53.56906-15.91227,78.21642-.41217,2.02038.39351,18.03918-.00461,20.06257-1.05586,5.37195,11.2504,3.45412,10.29591,8.84514-1.90964,10.78205-8.9229,18.76824-10.41234,29.61385-.93107,6.77876.72533,18.66559-.03545,25.46376-2.28334,20.3955-9.0895,36.19493-9.75828,56.70117-.3011,9.24309-.04532,19.13712-.00317,28.96602.08397,19.65713-1.44354,35.57904-.14145,55.20239.65104,9.8115,24.70235,23.67215,25.61903,32.88112.66108-.13851,1.22313-.20207,1.70222-.2014,3.35492.00268,2.67377,3.14382,3.87348,5.81658,5.25051,11.69538,10.78807,23.2904,16.59261,34.77569,6.53052,12.9212,13.39894,25.70388,20.57582,38.33469,2.39274,4.21004,4.81927,8.40336,7.27925,12.57928,3.27998,5.56767,6.61918,11.10456,10.01458,16.60933,6.79147,11.00955,13.8091,21.89129,21.03249,32.63453,21.67015,32.23005,45.19407,63.21958,70.02075,92.7133,8.27523,9.83124,16.69565,19.49655,25.24019,28.98587l-46.96086,103.27522v.00033c2.6015,4.04377,5.21371,8.09925,7.84733,12.15373,10.53314,16.21757,21.40485,32.41138,33.27487,47.70926,4.54861,5.86208,9.30198,11.53513,14.18113,17.08474,3.05248,3.47235,6.18459,6.8634,9.38996,10.18186,1.69921,1.75909,3.35492,3.56251,5.10096,5.27326v-.00017c.93408-4.19449,1.91232-8.38011,2.9374-12.55469,1.02441-4.17458,2.09565-8.33846,3.21407-12.48895,2.23684-8.30099,4.66404-16.54911,7.29197-24.72732.63934-1.98893,1.29573-3.97151,1.95949-5.95174,1.90429-5.68108,3.88619-11.33406,6.00025-16.93385,4.23246-11.21061,8.92493-22.23087,14.0637-33.03566,3.58509-7.53753,7.40438-14.96131,11.46621-22.25796,1.65505-2.97286,3.35392-5.92263,5.0916-8.85166Z"/><path class="cls-3" d="M205.93411,1195.3036c-7.17688-12.6308-14.0453-25.41349-20.57582-38.33469"/><path class="cls-9" d="M1739.14154,1326.14416c-14.21191-3.54963-32.18556-.58781-46.09235-8.32307-4.5533,5.91695-9.25748,11.71178-14.04296,17.44037-4.78548,5.72893-9.65226,11.39161-14.53208,17.04459-4.87949,5.65298-9.77169,11.29559-14.60735,16.98437-4.83566,5.68878-9.61478,11.42339-14.26878,17.26004l41.02317,85.2835c29.87913-48.11742,49.18967-86.49593,69.81902-139.63837-1.59884-3.75103-3.32548-5.05915-7.29866-6.05144Z"/><path class="cls-13" d="M1770.75099,1197.9138c-5.47734,10.21799-10.92892,20.45371-16.72576,30.4907-1.93239,3.34555-3.90292,6.66903-5.92564,9.96239-.39544.64402-.81096,1.27265-1.2131,1.91098-1.43792,2.28401-2.91264,4.53925-4.42215,6.76805-.72665,1.07325-1.45665,2.14416-2.19602,3.20772-1.99796,2.87383-4.02872,5.7229-6.08355,8.55123-4.836,6.65698-9.75898,13.24036-14.44008,19.99972-8.82289,12.7412-17.04827,26.48139-26.69551,39.01651,13.9068,7.73525,31.88044,4.77344,46.09235,8.32307,3.97318.99229,5.69982,2.3004,7.29866,6.05144,23.16327-59.66827,37.62677-110.74416,47.23051-174.54754-2.06755,3.26191-4.07689,6.55862-6.04274,9.88076-5.89754,9.9664-11.39997,20.16666-16.87698,30.38498Z"/><path class="cls-12" d="M1542.15771,915.36511c-13.17646,3.95545-27.20704,13.32065-42.09408,13.34006,11.07646-17.28915,20.88395-40.44673,24.59851-60.60101,7.91826-42.96326,2.38471-84.03527-16.428-123.21003-56.76601-118.20742-214.49545-145.26759-305.97191-49.28435-23.41586,24.56974-42.7013,61.09181-49.28401,94.46136-5.9862,30.3445-6.00259,71.15423,4.107,100.62152,8.34849,24.33388,32.30366,59.69838,51.33751,78.03335,74.88853,72.13748,190.23517,64.90574,273.1159,10.2675,23.78421-15.6796,44.68388-39.4889,63.64145-60.60603.62796-2.8096-.15022-3.88452-3.02237-3.02237ZM1273.63124,704.36476c80.3187-10.47192,90.50859,115.35668,11.75627,120.61823-75.45627,5.04108-86.21089-110.91077-11.75627-120.61823ZM1216.63707,946.15792c15.52337,4.5436,28.16588,15.2855,43.1951,21.46942,97.06018,39.93319,206.70433-11.90716,229.35305-115.4915l4.65099-27.14281c27.29804,161.07567-174.34079,234.46372-277.19915,121.16489Z"/><path class="cls-4" d="M1026.69597,137.0252c3.18932-.729,3.57104,1.37235,3.08125-4.06184-35.98811-5.35054-79.18054-12.64285-104.68972,19.54338-15.42936,19.46844-16.46614,45.18337-20.56244,68.73372l23.56507-32.87508c28.29-31.19494,58.79308-42.24229,98.60583-51.34019Z"/><path class="cls-4" d="M821.38139,161.6555c-3.51718-9.99384-3.70754-19.39149-5.72424-29.20467-.40214-1.95916-.74873-6.16318-3.53424-5.64562-26.98122,54.02366,2.55266,83.01622,55.41808,92.37172-18.83446-16.16538-37.63312-33.29494-46.1596-57.52143Z"/><path class="cls-4" d="M1624.25692,673.02128v2.0535c1.33354-.6845,1.33354-1.369,0-2.0535Z"/><path class="cls-4" d="M653.33158,320.19958c35.55587-10.8687,69.1479-24.18266,107.41768-25.01135-3.3402,12.97606-7.72923,37.73315-1.59315,49.84874,4.58675,9.05541,8.24946-1.9702,12.07845-5.50176,42.94151-39.60365,105.71647-52.7132,162.01878-60.76528-17.72039,23.29408-21.53064,49.7564-10.4582,77.23209,3.26727,8.10728,8.11497-4.27361,11.49499-7.42378,41.74213-38.90811,111.14161-49.1629,165.28404-59.55386l-24.33522,36.2223c-5.44489,11.53446-8.79312,22.99098-10.55355,35.62914,13.57023-4.66437,25.70455-12.54917,39.44742-17.00277,41.37579-13.40898,84.2872-10.78205,126.87073-5.56232.85178,4.65969-.22081,3.27797-2.61689,4.57939-7.4733,4.05949-13.87066,4.97149-21.83977,10.98947-12.97673,9.79912-24.65204,24.9063-24.80861,41.90907,18.97096-4.07154,37.15571-12.29892,56.72452-14.10017,41.65615-3.83467,79.68907,7.33747,117.79692,22.34963l-17.04827,8.57934c-20.14424,11.56491-30.60847,25.50783-34.26582,48.88054,43.13355-10.14171,89.24263-13.84524,130.14001,6.42279,3.44592,1.70757,18.44136,9.59505,17.68928,13.06037-.62194,2.8648-33.17651,22.99867-38.45713,27.16991-1.24923.98694-5.9407,1.75274-2.60418,4.68511,1.12511.98895,23.72532,4.88685,29.18393,6.77006,85.35811,29.44823,120.42854,83.5137,176.23236,146.16755,1.22648,1.3767,4.00396,5.67305,6.05545,4.19164-127.01058-314.28393-486.12224-504.65192-818.53907-418.1754-55.94333,14.55382-110.19248,38.27513-158.87329,69.0656,1.41952,2.829,5.5225-.03346,7.55861-.65606Z"/><path class="cls-12" d="M778.748,1411.7485l328.61026,78.12569c14.25574,4.58876,22.80898-14.61739,14.2825-23.67916-3.25455-3.4583-18.58321-6.26756-24.07895-7.73726-103.78541-27.75738-210.15225-47.06892-314.17621-74.07021-17.36844-1.33454-20.25431,22.39179-4.63761,27.36094Z"/><path class="cls-12" d="M914.37037,1348.09701c-34.90449-7.91491-86.41898-25.19469-119.9799-27.97083-5.47266-.45299-17.12087-.06959-19.25667,5.90892-2.26728,6.34718,1.39108,19.21418,9.77303,20.00306l330.37136,76.41042c18.52232,1.20741,21.27103-21.47042,4.88551-27.66271-66.12017-13.57525-131.43173-31.23241-197.17787-46.16228-2.23081-.50652-5.57503.16259-8.61547-.52659Z"/><path class="cls-12" d="M732.00293,1587.86427l231.34566,54.27524c17.69998,1.35562,21.49351-22.44849,4.41446-27.18747l-229.10214-54.29966c-3.76943-.84944-7.54723-.93843-11.33172-.09267-15.51233,3.469-11.50402,26.76626,4.67374,27.30456Z"/><path class="cls-12" d="M752.91063,1521.77939l226.77497,52.52351c20.91907,4.90157,30.87812-17.9519,9.98781-26.43823l-228.43236-52.94538c-3.07691-.70558-6.18258-1.03545-9.27287-.11576-12.78235,3.80456-12.89711,23.93074.94244,26.97586Z"/><path class="cls-12" d="M980.99103,1293.70869c-18.40991-2.23884-25.85142,12.83521-12.26279,24.57275l110.32363,26.23516c19.07434-.17531,47.18233,13.28686,62.54378,12.23803,9.77035-.66677,15.72443-11.31466,13.43608-20.45204-2.5918-.59016-12.39628-7.08655-20.51359-9.26216-42.5377-11.40131-110.86828-28.1438-153.5271-33.33175Z"/><path class="cls-12" d="M869.05987,1667.43842c-1.70121-1.80576-8.09289-3.55816-10.89212-4.50127-45.76181-15.41865-99.383-22.11695-145.92098-36.916-19.9763-3.469-28.09094,18.76236-8.04137,26.60367,44.93078,17.57218,105.77368,22.09487,152.33173,38.83234,13.54146,2.88638,20.39248-15.66472,12.52274-24.01873Z"/><path class="cls-16" d="M897.61182,1005.98343c53.96143-24.47406,104.15175-24.9237,159.39152-3.91463,8.41775,3.20136,35.24005,19.72036,15.16673-1.81898-53.95106-57.89112-161.15462-55.09892-200.52141,17.73946,3.31778,2.53593,21.21649-9.85265,25.96316-12.00585Z"/><path class="cls-12" d="M1075.02918,1054.02892c-7.1916,4.60716-11.7623,19.61765-10.35181,27.63962.24121,1.36967,8.0862,16.8288,9.38896,18.33229,7.74161,8.93463,25.80425,13.76093,35.78805,6.30971,24.09467-17.98235-5.58306-71.01606-34.8252-52.28163Z"/><path class="cls-12" d="M409.65354,918.39284l16.38117,22.6146,28.75269,27.71858c7.60745,1.35361,24.81263,15.91346,33.53147,20.88629,36.99814,21.09973,97.40009,36.97639,139.96723,34.53748,11.01155-.63097,33.47895-7.55627,42.11917-6.13976,23.05956-10.73588,46.85849-20.60258,66.67754-37.02423,12.48895-10.34813,33.93729-33.49066,42.15798-47.16929,15.39858-25.62292,25.5443-62.73113,26.69551-92.40786,1.3128-33.84194-4.84603-70.38408-20.535-100.62152-67.82507-130.71879-259.32787-134.30756-332.66741-6.1605-16.0155,27.98388-25.53226,68.55841-24.64201,100.62152.76379,27.50814,6.47766,52.73361,17.52568,77.96176,1.30945,2.98959,9.99116,17.72173,9.15745,18.5444l-45.12147-13.36147ZM552.82581,706.37276c91.63436-14.6301,95.34826,131.62777-.31649,118.4289-60.3056-8.32039-62.33167-108.4267.31649-118.4289ZM460.9683,833.20435c2.9568-.48109,2.86446,3.61654,3.45997,5.73026,2.74135,9.73422,3.82062,20.36907,6.91325,30.0705,30.0434,94.2459,137.76252,137.03452,227.1403,98.02169,6.70984.13148,41.9974-26.76275,43.78526-24.98626,2.23282,2.21877-2.99226,5.71487-4.29,6.98351-8.52547,8.3331-20.74678,18.14427-30.78243,24.66208-111.31826,72.29539-262.37266-3.6132-246.22635-140.48178Z"/><path class="cls-1" d="M897.61175,1005.98341c53.96153-24.47405,104.15191-24.92365,159.39161-3.91467,8.41769,3.20152,35.23994,19.72034,15.16667-1.8189-53.95105-57.89112-161.15462-55.09888-200.52132,17.73951,3.31773,2.53585,21.21648-9.85271,25.96304-12.00595Z"/><path class="cls-1" d="M1064.67742,1081.66865c.24115,1.36945,8.0862,16.82872,9.38898,18.33216,7.74154,8.93461,25.80429,13.76087,35.78797,6.3097,24.09477-17.98226-5.58306-71.016-34.82526-52.28171-7.19144,4.60717-11.76226,19.61778-10.35169,27.63985Z"/><path class="cls-1" d="M871.24006,1109.06259c1.62267-.40753,14.19015-6.2997,14.7828-6.85916,3.92403-3.70384,9.98178-18.69159,10.26739-24.64186,1.26626-26.35295-27.42616-36.24837-43.12341-18.48155-7.68312,8.69568-12.01468,23.66184-8.214,34.90956,3.86545,11.4395,14.47084,18.04052,26.28723,15.07301Z"/><path class="cls-1" d="M1200.35115,1165.28976c-2.03052-.52755-4.06453-1.05082-6.07442-1.6441,2.00988.59328,4.04405,1.11671,6.07442,1.6441Z"/><path class="cls-1" d="M879.86223,1174.07609c.10129,1.09385.38864,2.02655.82729,2.82796-.43865-.80141-.72584-1.73412-.82729-2.82796Z"/><path class="cls-1" d="M1198.14552,1149.45535l-49.27434,4.08581c-33.51645.74394-67.10403,1.24117-100.62176,2.05338-44.31616,1.07384-87.35368.7822-131.42408,0-51.2466-.90969-101.19329.5728-151.95901-6.16046-2.62221-.348-5.55036.21607-8.214.02032-4.40523,3.19676,35.59937,13.02661,38.62784,13.7161,28.76291,6.55101,55.39782,8.55534,84.58207,10.9056,46.25428,3.72495,93.1436,5.81183,139.63824,4.10692,31.40655-1.15148,66.80319-3.98516,98.56822-8.21385,22.52386-2.99895,46.21507-7.15429,67.76558-14.37463,3.47967-1.16592,11.02514-2.23151,12.31124-6.13919Z"/><path class="cls-8" d="M1229.58938,1119.02643c-111.0687-50.2696-105.08358-182.88784-252.35966-184.53847-69.55276-.77953-112.68927,49.60497-143.23154,83.84187-9.34881,10.47949-22.46201,22.11783-31.25945,31.77892-8.03254,8.82078-22.02688,21.82584-30.84591,29.8314l-10.28197,3.75679c-8.83094,8.01603-4.79819,11.57431-14.68853,18.24026-13.54464,9.12909-25.63607,13.30929-41.12788,18.44275-8.70727,2.88512-23.12301,4.21908-32.29195,5.79333-14.21174,2.44044-27.02537,8.95858-40.06024,15.04681,1.33627,3.58366,4.50953,4.43206,7.64263,5.70213,76.59842,31.05348,180.88068,39.66581,263.41953,43.5819,43.52586,2.06481,87.70168,3.37933,131.42392,2.05354,34.33343-1.04114,68.59652-4.34157,102.6753-8.21416,26.68317-3.03197,47.91617-6.7512,73.9262-12.32093,20.46937-4.38332,35.42568-7.38497,55.44449-14.37447,14.95759-5.22236,30.9198-9.79905,43.12388-20.53493-29.59687-5.59211-52.40014-4.91199-81.50882-18.08672ZM1109.85437,1106.31051c-9.98369,7.45117-28.04643,2.62491-35.78797-6.3097-1.30277-1.50344-9.14782-16.96271-9.38898-18.33216-1.41057-8.02207,3.16025-23.03268,10.35169-27.63985,29.2422-18.73429,58.92003,34.29945,34.82526,52.28171ZM1072.17003,1000.24985c20.07326,21.53924-6.74898,5.02042-15.16667,1.8189-55.23969-21.00899-105.43008-20.55938-159.39161,3.91467-4.74656,2.15324-22.64531,14.5418-25.96304,12.00595,39.3667-72.83839,146.57027-75.63063,200.52132-17.73951ZM853.16684,1059.08002c15.69724-17.76682,44.38966-7.8714,43.12341,18.48155-.28561,5.95027-6.34335,20.93802-10.26739,24.64186-.59265.55946-13.16013,6.45163-14.7828,6.85916-11.81639,2.96751-22.42178-3.63351-26.28723-15.07301-3.80068-11.24772.53089-26.21388,8.214-34.90956ZM1118.06869,1169.96917c-31.76503,4.22869-67.16166,7.06237-98.56822,8.21385-46.49464,1.70491-93.38396-.38197-139.63824-4.10692.10145,1.09385.38864,2.02655.82729,2.82796-.43865-.80141-.726-1.73412-.82729-2.82796-29.18425-2.35026-55.81916-4.35459-84.58207-10.9056-3.02848-.68949-43.03307-10.51934-38.62784-13.7161,2.66365.19575,5.59179-.36832,8.214-.02032,50.76572,6.73326,100.71241,5.25078,151.95901,6.16046,44.0704.7822,87.10792,1.07384,131.42408,0,33.51772-.81221,67.1053-1.30944,100.62176-2.05338l49.27434-4.08581c-1.2861,3.90768-8.83158,4.97327-12.31124,6.13919-21.55051,7.22034-45.24172,11.37568-67.76558,14.37463ZM1194.27673,1163.64566c2.00988.59328,4.0439,1.11655,6.07442,1.6441-2.03036-.5274-4.06453-1.05082-6.07442-1.6441Z"/><path class="cls-16" d="M1019.50036,1178.18306c31.40671-1.15154,66.80333-3.98522,98.56836-8.214,22.52394-2.99895,46.21514-7.15413,67.76552-14.3745,3.47971-1.16593,11.02527-2.23148,12.3113-6.13909l-49.27431,4.08559c-33.51642.74405-67.1041,1.2412-100.62186,2.0535-44.3162,1.07392-87.35373.78219-131.42403,0-51.24651-.90966-101.19328.57276-151.95904-6.1605-2.62224-.34794-5.55027.21612-8.214.02041-4.40509,3.19668,35.59936,13.02658,38.62776,13.7161,28.76306,6.55093,55.39801,8.55525,84.58227,10.9055,46.25428,3.72494,93.14354,5.81189,139.63803,4.107Z"/><path class="cls-12" d="M853.16682,1059.08004c-7.68306,8.69576-12.01455,23.66176-8.214,34.90951,3.86545,11.43945,14.47086,18.04056,26.28735,15.07305,1.62259-.40749,14.19016-6.29968,14.78266-6.85905,3.924-3.70386,9.98179-18.69161,10.2675-24.64201,1.26629-26.35292-27.42617-36.2484-43.12351-18.4815Z"/><path class="cls-16" d="M1285.38752,824.98299c78.75231-5.26155,68.56243-131.09014-11.75627-120.61823-74.45461,9.70746-63.7,125.65931,11.75627,120.61823Z"/><path class="cls-16" d="M1489.18523,852.13583c-22.64873,103.58435-132.29287,155.42469-229.35305,115.4915-15.02923-6.18392-27.67174-16.92582-43.1951-21.46942,102.85836,113.29883,304.49719,39.91078,277.19915-121.16489l-4.65099,27.14281Z"/><path class="cls-16" d="M552.50932,824.80166c95.66475,13.19888,91.95085-133.059.31649-118.4289-62.64816,10.0022-60.62209,110.10851-.31649,118.4289Z"/><path class="cls-16" d="M707.19465,973.68613c10.03566-6.51781,22.25696-16.32898,30.78243-24.66208,1.29774-1.26863,6.52282-4.76474,4.29-6.98351-1.78786-1.77649-37.07542,25.11774-43.78526,24.98626-89.37779,39.01283-197.0969-3.77579-227.1403-98.02169-3.09263-9.70143-4.1719-20.33628-6.91325-30.0705-.59551-2.11372-.50317-6.21135-3.45997-5.73026-16.14631,136.86858,134.90809,212.77718,246.22635,140.48178Z"/><path class="cls-7" d="M588.94778,1345.97855c93.16494,5.96072,141.83986,25.26427,51.75132,246.49345-45.30618,111.25775-122.67036,188.40377-189.20995,166.24328-47.69269-15.88368-71.49489-66.53539-70.34586-141.69171.45406-29.69982-14.74649-56.6504,6.96989-101.99277,51.46756-107.46084,130.84493-173.53022,200.8346-169.05225Z"/><path class="cls-6" d="M1545.64796,1672.15364c-54.20601,90.55078-98.43948,130.09858-269.14252-66.28505-85.8478-98.76274-121.52984-213.31374-65.21748-269.40325,40.36225-40.20252,102.50143-39.78395,175.77882-2.60117,28.95732,14.69366,63.33613,12.37378,96.63516,55.88454,78.91829,103.11996,102.668,214.37914,61.94603,282.40493Z"/><path class="cls-12" d="M882.65836,101.55148c13.9619-6.61503,26.09108-16.1921,40.51955-22.09209,61.33365-25.08016,132.04076-12.24374,185.29562,25.28535,2.91138,2.05167,3.32954,6.15035,5.74067,7.03232,16.02661,5.86241,52.52812,8.7809,72.37996,13.37173,521.65952,120.63621,827.26285,666.97436,674.063,1179.28018-154.54387,516.80025-722.15119,800.36864-1227.88671,592.27047-16.87896-6.94529-77.40685-40.18718-88.12593-41.41583-13.13472-1.50553-55.39117,9.66413-70.6711,13.28893-16.2225,3.84839-65.24092,20.93095-77.04066,19.68902-5.75192-.6054-12.73193-6.98115-14.4549-12.37734-3.01615-9.44629,2.98552-15.95071,8.33166-22.71017,13.73851-17.37046,43.49687-37.57723,54.54319-54.28434,1.3015-1.96847,2.50745-3.52245,2.10256-6.09791-.28705-1.82586-25.74216-18.54258-29.83936-21.8192C151.25816,1557.96008,18.13914,1230.654,69.80331,889.42175,124.37484,528.98696,391.38224,226.11052,743.86888,132.19613c10.08158-22.3931,18.93116-46.09234,37.14245-63.47917,39.2598-37.48246,100.75816-27.94968,101.64704,32.83453ZM835.41745,95.4008c-43.92962,18.45597-61.86241,66.84961-31.6511,106.60393,2.15015,2.82933,17.80728,16.41891,15.21296,18.64912-92.07655,10.32655-175.10418,55.88389-249.11472,109.22194-221.40536,159.56281-366.69931,428.21236-268.39369,702.98479,47.55826,132.92932,124.79228,202.73923,245.02232,268.35464,3.50702,1.91395,11.31449,9.05717,12.98788,9.37816,4.01895.77092,15.06859-4.6538,20.47062-5.48385,28.0004-4.30237,56.74575-3.07553,82.95125,8.01731-.15726-28.82418,1.62052-58.018-5.06076-86.29891-37.43782-4.95076-81.23775-26.09881-76.83644-70.57255,5.94773-60.09976,71.60591-50.98214,111.7269-62.81876,106.79364-31.50658,133.14659-169.76889,256.68553-184.81749,187.53011-22.84353,187.15335,163.68636,343.15656,190.69136,22.968,3.97588,37.23054.01301,58.09463,15.83146,51.27979,38.87862,15.44125,103.75614-40.78789,107.72585l3.98692,64.60628c1.15938,6.50593,15.46702,6.16475,22.58616,8.21638,15.45372,4.45352,30.29711,12.10832,45.70164,15.0581,251.78934-84.31416,334.78374-368.42821,276.98286-608.80492-46.8357-194.7758-184.14081-351.08783-364.40206-434.41039-99.25208-45.87751-211.62402-74.659-321.72459-69.46811-2.32527-2.06292,10.20501-13.577,12.28621-15.41498,21.18773-18.7116,50.90105-31.0751,78.04954-37.98715,4.52335-5.88481-26.64551-22.05372-30.83795-23.54996-23.56075-8.4086-51.41454-7.4051-75.57204-1.73287-37.68712,8.84902-70.85763,36.08039-74.31087,76.64172-2.71264,3.32315-26.28536-25.01397-28.37955-28.07055-4.98507-7.27597-18.83031-33.12167-18.83031-40.72126v-31.82929ZM1601.34741,1575.96016c12.27405-18.09443,27.69135-34.80521,40.71627-52.72865,161.49281-222.22826,201.48792-500.08878,117.97102-762.01034-3.87011-12.13725-34.63471-94.02132-40.61196-96.98327-3.7539-1.8602-3.09082,1.6844-2.27018,4.32421,35.58064,114.45355,33.58211,250.52158.23977,365.28489-39.24066,135.06515-129.23066,258.26142-259.74844,316.26959l39.96615,28.78516c60.46762,50.03683,88.63958,110.32302,100.25972,187.233.36073,2.38756.5168,9.9707,3.47764,9.82541ZM427.9864,1307.81898c-168.83394-123.05102-247.44116-333.49155-216.5853-539.64774,2.79882-18.69963,8.65013-37.8943,11.56744-56.21406.34737-2.18134,2.17298-7.14269-1.5224-6.65078-113.71338,273.84928-72.58877,593.95986,105.94291,829.38616,2.83177,3.7342,31.39707,40.91615,33.64455,39.22518,18.67484-87.2372,59.16823-170.17025,129.38534-226.91733-22.07581-11.04022-42.59844-24.72577-62.43253-39.18143ZM954.09941,944.10287c-110.26244,11.88332-140.26036,166.57712-278.04221,190.15634-18.97435,3.24717-48.57393-1.70852-57.75486,20.29177-8.6868,20.81621,16.05183,30.52999,32.22983,34.40991,205.31222,49.23938,420.69422,44.22041,626.81421,4.46286,21.19138-4.08751,68.91054-7.08415,60.66134-38.93828-5.24741-20.26277-38.68909-17.60267-53.66183-20.25061-18.27259-3.23152-39.16322-8.15247-56.05632-15.81627-111.59743-50.62773-125.28727-190.36344-274.19016-174.31573ZM1242.01093,1300.80672c10.94694-4.14991,25.37963-7.96478,36.97687-8.20647l-4.11166-61.62221c-51.28791,5.63001-101.96359,16.62834-153.25049,22.34275-98.71369,10.99872-208.94812,10.02297-307.47844-2.08966-39.54111-4.86091-78.87396-12.95374-118.35742-18.18537.68142,18.07144,3.835,37.49341,4.09649,55.43996.18265,12.53604-3.82292,36.85115-1.9983,46.16682.76312,3.89614,9.1959,13.3928,11.9715,18.81282,46.74716,91.28514-48.08689,244.6729-101.57627,318.8031-31.91662,44.23281-67.61288,80.06089-105.47966,118.3521-6.22896,6.29878-38.3242,35.8731-40.11836,39.98979-1.09378,2.50969.81773,2.64272,2.0421,4.04066,58.9382-15.30939,120.02016-21.90836,180.76222-26.60814,68.88816-5.33007,138.80647-4.22564,206.7373-19.14797,71.73889-15.75884,161.90985-79.90816,169.8097-158.75069,1.29845-12.95883-1.94394-30.8371.68127-42.44229,3.39539-15.00994,21.79439-15.43303,33.79227-17.5453,48.83319-8.59723,96.9421-9.70898,146.48379-8.57564-41.99829-48.44167-69.09235-107.43328-47.78881-172.00571,13.07192-39.62186,47.61052-73.90983,86.80591-88.76855ZM1383.7023,1561.62231c-16.00272,20.01727-39.7683,40.98902-35.48601,69.28859,32.70814,27.95974,65.62869,56.87399,99.79119,82.39143,16.70068-11.73941,101.32171-74.92074,104.03656-89.11462,3.49139-18.25389-3.84352-66.41255-8.75914-85.61056-14.72118-57.49371-50.29781-104.1415-98.53661-137.61617-33.9853-23.58364-113.69585-64.27435-154.45115-61.10116-60.44672,4.70634-109.4496,62.53225-89.33146,123.16879,21.89794-19.84729,47.32984-38.16361,77.96709-40.05875-20.83781,16.09224-59.40655,68.62502-48.17067,95.46645,7.38334,17.63808,24.64435-1.87631,35.27813-7.75832,19.77305-10.93735,39.20127-17.11588,62.21719-14.76806-17.52633,14.78425-47.86426,41.24762-50.99266,65.21839-1.30262,9.98109,17.26414,21.572,23.56312,29.00984,24.74306-15.86347,53.2322-27.30847,82.87442-28.51585ZM656.00959,1365.24296c-35.99699-25.18205-85.98511-10.62326-120.2306,10.6895-62.00243,38.58736-102.79974,116.21162-120.74627,185.22559-2.94123,11.31058-13.09708,51.83042-10.44047,60.59359,1.16724,3.85029,36.64733,36.27601,42.68394,41.52756,19.32843,16.81478,40.893,32.30547,61.58111,47.46014,2.39568,1.27625,3.40421.11048,5.23051-1.11427,7.65198-5.13151,27.17434-29.68494,33.78253-38.21793,6.05496-7.81861,19.67696-23.75854,20.66241-32.76361,3.4101-31.16182-32.9422-52.32037-53.46107-68.80753,23.65047-3.06565,44.47356-1.57337,67.78731,3.03734,6.11157,1.20867,19.97875,7.28634,23.69114,7.11258,4.81461-.22535,14.65716-16.97015,15.27301-21.63791,3.40373-25.79835-48.05098-56.87911-69.77888-63.47502,31.51388-15.27358,66.90497-2.13374,97.32025,9.39679,16.11607-23.47627-17.10477-59.82215-35.30589-73.97594-10.0822-7.84025-21.80437-12.36403-31.22137-20.63101,32.13557-2.64349,60.87154,6.8806,88.27648,22.56052,4.15021-21.70854,4.96613-52.94004-15.10414-66.9804ZM1007.91186,1742.28894c32.07783-8.10239,65.00055-23.26996,95.19727-37.23263,52.50677-24.27861,102.95186-53.01528,154.00553-80.09135,9.22868-3.08734-8.88066-18.02475-12.93446-19.3289-11.85686-3.81446-45.12263-6.38371-58.66158-7.05049-40.69767-2.00434-82.18612,3.55758-122.29902,9.08314-2.95356,15.40149-3.53369,31.01113-7.02966,46.3614-7.59384,33.34336-25.76631,63.03863-48.27808,88.25882ZM1278.96238,1654.01866c-22.50409,10.10396-42.69228,25.21359-64.32028,37.30698-109.47982,61.21611-229.31875,101.88217-352.48636,125.97971-20.19086,3.95031-41.78334,5.67467-61.67451,10.2203-2.27548.52-6.63934.00625-6.12351,3.06383,93.77589-1.37904,187.01531,1.34588,280.28356,10.29758,33.43584,3.20911,66.67621,9.34322,100.18465,11.93786,61.68399-46.7423,95.31508-123.11338,104.13645-198.80627Z"/><path d="M2577.56174,589.96801v571.6611c0,42.02082.97706,89.90212,3.90822,122.15052h-77.19854l-3.90915-82.08567h-1.95411c-26.38422,52.77029-84.03885,92.83514-161.23832,92.83514-114.33222,0-202.28023-96.74336-202.28023-240.39097-.97706-157.3301,96.74243-254.07346,212.05264-254.07346,72.31233,0,121.17254,34.20252,142.67148,72.31326h1.95411v-282.40993h85.99389ZM2491.56785,1003.32382c0-10.74947-.97706-25.40716-3.90915-36.15663-12.70358-54.7244-59.60875-99.67453-124.10463-99.67453-88.92506,0-141.69349,78.17559-141.69349,182.7354,0,95.76631,46.90517,174.91895,139.73938,174.91895,57.65464,0,110.424-38.11074,126.05875-102.6057,2.9321-11.72652,3.90915-23.45305,3.90915-37.13368v-82.08381Z"/><path d="M3148.24022,1043.38867c0,174.91895-121.17347,251.14044-235.50569,251.14044-128.01286,0-226.71033-93.8122-226.71033-243.32399,0-158.30529,103.58368-251.14044,234.5277-251.14044,135.83116,0,227.68831,98.69747,227.68831,243.32399ZM2772.99515,1048.27395c0,103.58275,59.60875,181.7602,143.64853,181.7602,82.08474,0,143.64853-77.19854,143.64853-183.71431,0-80.1297-40.06578-181.7602-141.69442-181.7602s-145.60264,93.8122-145.60264,183.71431Z"/><path d="M3593.83794,1266.19078c-22.47506,11.72652-72.31233,27.36127-135.83023,27.36127-142.67148,0-235.50569-96.74336-235.50569-241.36988,0-145.60171,99.67453-251.14044,254.07253-251.14044,50.81432,0,95.76538,12.70358,119.21843,24.4301l-19.5439,66.45092c-20.52188-11.72652-52.76936-22.47599-99.67453-22.47599-108.46989,0-167.10158,80.1297-167.10158,178.82718,0,109.44694,70.35822,176.87307,164.16949,176.87307,48.86021,0,81.10769-12.70358,105.53779-23.45305l14.65769,64.49681Z"/><path d="M3694.48581,589.96801h85.99389v693.81163h-85.99389v-693.81163Z"/><path d="M4020.86138,677.91601c.97706,29.31538-20.52002,52.76843-54.72254,52.76843-30.29244,0-51.79138-23.45305-51.79138-52.76843,0-30.2943,22.47599-53.74734,53.74549-53.74734,32.24841,0,52.76843,23.45305,52.76843,53.74734ZM3925.09693,1283.77964v-472.96549h85.99389v472.96549h-85.99389Z"/><path d="M4153.7558,938.827c0-48.85835-.97706-88.92506-3.91008-128.01286h76.22148l4.88714,78.17559h1.95411c23.45305-44.95013,78.17559-88.92506,156.35304-88.92506,65.47201,0,167.10065,39.0878,167.10065,201.30317v282.41179h-85.99389v-272.63937c0-76.22148-28.33833-139.73938-109.44694-139.73938-56.67665,0-100.65159,40.06485-115.30928,87.94801-3.90822,10.74947-5.86233,25.40716-5.86233,40.06485v284.3659h-85.99389v-344.95263Z"/><path d="M5103.58385,810.81415c-1.95411,34.20252-3.90822,72.31326-3.90822,129.96883v274.59348c0,108.46803-21.49894,174.91895-67.42612,215.96086-45.92904,42.99602-112.37811,56.67665-171.98779,56.67665-56.67851,0-119.21936-13.68064-157.3301-39.0878l21.49894-65.47201c31.26949,19.54483,80.1297,37.13368,138.76233,37.13368,87.94801,0,152.44296-45.92904,152.44296-165.14654v-52.76843h-1.95411c-26.38422,43.97307-77.19854,79.15265-150.48885,79.15265-117.26339,0-201.30317-99.67453-201.30317-230.62041,0-160.25941,104.55981-251.14044,213.02969-251.14044,82.08567,0,127.0358,42.99788,147.55768,82.08567h1.95411l3.90822-71.3362h75.24442ZM5014.65879,997.45963c0-14.65769-.97706-27.36127-4.88528-39.0878-15.63475-49.83726-57.65557-90.87917-120.19641-90.87917-82.08381,0-140.71644,69.38023-140.71644,178.82718,0,92.83328,46.9061,170.03368,139.73938,170.03368,52.76843,0,100.65159-33.22546,119.21936-87.94801,4.88528-14.65955,6.83939-31.27135,6.83939-45.92904v-85.01684Z"/></svg>