<svg id="Layer_1" data-name="Layer 1" xmlns="http://www.w3.org/2000/svg" viewBox="0 0 308.08853 457"><defs><style>.cls-1{fill:#fefefe;}.cls-2{fill:#603813;}.cls-3{fill:#f8bd3c;}.cls-4{fill:#8faf54;}.cls-5{fill:#666;}.cls-6{fill:#676767;}.cls-7{fill:#fe89fe;}.cls-8{fill:#8dab51;}.cls-9{fill:#040301;}.cls-10{fill:#999998;}.cls-11{fill:#060705;}.cls-12{fill:#050603;}.cls-13{fill:#ececec;}.cls-14{fill:#c3c3c3;}.cls-15{fill:#ccc;}</style></defs><title>doozer</title><path class="cls-1" d="M150.00867,382.17343h-147v-4.38636q0-184.61142-.1097-369.22271c-.00435-3.98424,1.16089-4.485,4.71237-4.47507q68.19825.19123,136.39733.08414c2.43066,5.943,1.338,12.06176.73285,18.11044-.19754,1.97452-2.17017,2.84184-3.943,3.45147-22.42415,7.71094-36.48938,23.55316-44.303,45.48971A6.23646,6.23646,0,0,1,95.271,73.378a6.502,6.502,0,0,0-4.23839,4.97649c-1.36605,5.98345-1.56212,12.09129-2.32644,18.13636-.23148,1.83078.98083,3.07618,1.80559,4.48258.58208,7.10175-1.85274,13.39835-7.2888,17.53969-4.57232,3.48332-6.57978,7.08739-5.45312,12.56572-6.90617,7.84565-13.81595,15.76416-22.537,21.64784-9.54531,6.43977-19.7157,6.18167-29.93921,1.45079a59.832,59.832,0,0,1-13.74481-8.99135c-.88637-.75809-2.08688-1.5693-3.1095-.54225-1.04378,1.04831-.2165,2.25993.61992,3.06061,14.43729,13.82033,38.6844,20.84077,56.24576,1.34692,2.91364-3.23428,5.10093-7.5095,10.0984-8.266,2.17629,1.48272.97283,3.25228.295,4.846-1.2331,2.89914-2.92277,5.59242-4.04581,8.54542-10.40843,27.36873-5.98815,52.72625,10.38505,76.46331,1.58893,2.30357,3.75383,4.24661,4.50171,7.0839-3.57145,7.04877-14.61824,9.52527-23.10238,4.68848.652,5.45242,2.72317,9.44653,7.17145,12.04433,5.16039,3.01365,10.84431,4.11659,16.74014,4.45349,5.67556.32426,6.74188,1.97526,4.5595,7.35921-3.838,9.46844-9.869,16.90335-19.65379,20.83026a71.78656,71.78656,0,0,0-9.462,4.79727,26.99576,26.99576,0,0,0,15.11682,5.89709,44.4811,44.4811,0,0,0,12.94161-.6083c1.40572-.32428,3.16728-1.02329,4.2136.37884,1.16479,1.56092.05022,3.21994-.74763,4.63977-4.85386,8.63782-11.05172,15.77463-20.793,19.23078-2.156.76492-6.07949.69946-5.87877,3.427.18171,2.46908,3.87772,3.311,6.327,4.19089,9.15063,3.28744,18.052,1.74142,26.78429-1.79514.927-.37543,1.79767-.88605,2.72646-1.2464,2.1023-.81564,4.59637-3.28848,6.352-1.5094,2.077,2.1048-.42977,4.64374-1.69372,6.65164-4.58278,7.28019-11.26061,12.12311-19.74288,15.99082,10.59492,2.73456,20.24027,2.85315,29.57749-1.89642,10.55554-5.36924,9.37934-4.27427,11.60931,5.27737,2.31987,9.93677,8.78607,17.39062,15.60351,24.59186C147.13,377.16848,150.32965,378.52029,150.00867,382.17343Z"/><path class="cls-1" d="M175.00867,4.17343q62.25,0,124.49973-.08373c2.98324-.00888,3.58386.60172,3.58157,3.58375q-.14241,185.49984,0,370.99976c.00229,2.98151-.59793,3.59049-3.5813,3.58344q-74.24969-.17527-148.5-.08322c-3.497-7.90671-3.75085-16.11469-1.85683-24.37992a49.89474,49.89474,0,0,1,6.34009-15.68863c2.95659-4.66333,4.357-4.51013,7.12856.4524,2.93927,5.26285,3.84063,10.8988,3.7297,16.855-.09433,5.06366.7106,5.39252,5.03965,2.92865a37.97612,37.97612,0,0,0,15.41767-16.56677c2.96473-5.93726,3.642-5.944,8.52013-1.65366,7.36278,6.47556,15.95349,9.62131,26.87965,9.81665-6.20826-6.51562-9.13162-13.57138-12.03828-20.633-.693-1.68369-1.6877-3.50388-.10033-5.11451,1.36972-1.3898,3.16108-.75991,4.72786-.24887a41.44336,41.44336,0,0,0,20.2322,1.33716,12.33739,12.33739,0,0,0,3.35324-.97446c2.32039-1.14141,5.94561-1.68274,5.94833-4.50921.00227-2.38169-3.56476-2.47635-5.66907-3.19507-11.11415-3.79611-17.418-12.368-22.41758-22.26453-.58759-1.16308-1.28557-2.58358-.26529-3.7586,1.06938-1.23157,2.52642-.452,3.71792-.03018,6.00634,2.12655,12.05817,3.78216,18.54807,3.35a27.35069,27.35069,0,0,0,11.48086-3.07989c1.28128-.69715,3.1019-1.22818,3.0983-2.92466-.00412-1.94528-2.07509-1.94769-3.38641-2.33471-12.14389-3.58441-19.50527-12.23328-24.72762-23.16315-2.69244-5.635-1.983-6.6687,4.29006-7.62854,6.60807-1.01112,13.204-2.1599,17.8694-7.80211a12.76347,12.76347,0,0,0,3.41769-8.18661c-7.78969,3.85672-13.986,3.20941-18.81905-1.78536-.53215-2.631,1.04261-4.43812,2.54561-6.19571,12.49047-14.60612,18.21269-31.91018,19.456-50.71513.67488-10.20792-1.9635-20.07457-5.74567-29.59317-1.01831-2.56282-2.7732-4.99292-2.15481-8.01839a1.87144,1.87144,0,0,1,1.60867-1.01553c12.12015.83067,22.29971-4.33818,32.12689-10.46745a141.71027,141.71027,0,0,0,16.8469-12.42478c1.16046-.98835,3.413-2.25684,2.184-3.85726-1.20929-1.57464-3.0672.11886-4.26981,1.11351a154.35858,154.35858,0,0,1-17.88589,12.70229c-7.52442,4.60147-15.16312,8.93462-24.4757,8.98024-6.15728.03015-9.97642-2.81956-12.29847-8.22311a6.84494,6.84494,0,0,1,.8787-2.79995c2.25347-5.19164,1.73667-6.99324-2.85516-10.50671-4.0094-3.06784-7.63438-6.388-7.18779-12.11534.53447-1.54152,1.36192-3.02877,1.0197-4.75068-1.15469-5.80986-1.48514-11.72368-2.21713-17.58652-.28379-2.2731-1.08277-4.105-3.272-5.11005-1.458-1.72986-1.70257-3.92877-2.32989-5.98112-7.02384-22.97917-20.90834-39.7647-43.90082-48.09853-4.29837-1.558-6.283-4.06748-5.82422-8.50951C174.186,13.27314,172.44417,8.5175,175.00867,4.17343Z"/><path class="cls-2" d="M231.82654,241.13632a62.521,62.521,0,0,0,7.534,2.58526c4.418.93979,8.76437,1.13826,10.47545-5.50445,3.28926,5.51076,1.51742,9.47619-1.23458,13.11619-4.98262,6.59035-12.50747,8.13149-19.98954,8.68813-5.157.38367-4.75583,2.01828-2.95835,5.59964,5.344,10.6474,12.40677,19.30035,24.47647,22.685a12.67837,12.67837,0,0,1,5.76018,2.77591c-6.34466,9.095-19.51584,10.39947-39.54948,3.72421,2.54124,7.53766,6.99456,13.27966,12.25825,18.58438,5.37325,5.41516,13.1494,6.12384,19.48192,9.86728-7.92406,8.44211-15.19313,9.33319-38.79753,4.7663,4.4259,9.48535,6.88243,19.43478,16.3391,26.57162-14.787,1.83575-25.72237-3.58554-35.37783-13.25693-4.49,12.20767-12.62475,20.5517-24.88856,25.23429-.50879-17.09278-1.12895-19.81073-6.56783-27.835-5.48227,9.61377-10.22574,18.91095-9.27148,30.06989.38185,4.465.98791,8.91083,1.49191,13.36539h-1c-2.33881-3.85352-6.04678-6.44129-9.01648-9.7153-7.66751-8.45328-13.73363-17.61362-13.87624-30.73255-13.2881,8.91239-26.97956,10.98621-42.93359,5.44647,12.57894-4.1419,20.94569-11.476,25.80571-22.64737-6.42851,3.20292-12.807,6.23114-19.92969,7.22254-8.57418,1.19348-16.56221-.09116-23.74132-5.2887-2.45821-1.77975-2.27828-2.91778.44382-3.94751,1.86788-.70657,3.70464-1.50961,5.60456-2.11493,11.21785-3.57394,17.47567-12.10232,22.93048-22.9198-13.02836,3.86835-24.55114,2.57486-35.20253-5.66461,3.99642-2.81235,8.3429-4.34973,12.51336-6.1593,9.915-4.30206,15.32356-12.40051,19.11615-21.985.94528-2.38886.35806-3.28382-2.26633-3.27964a41.48869,41.48869,0,0,1-17.92537-3.88656c-7.30769-3.444-10.68332-10.595-8.18553-16.90845,5.57043,6.45921,13.31575,5.99,22.73791-1.37761.89894-2.9584,3.78607-4.05679,5.722-6.03384q9.56094-9.764,19.31879-19.33507A49.54074,49.54074,0,0,1,131.97469,200.747a9.86482,9.86482,0,0,1,6.3383-.2181,5.38856,5.38856,0,0,1,1.33487.65457c12.39186,9.40968,25.07834,10.24658,38.12242,1.35283a7.63671,7.63671,0,0,1,2.73494-1.14684c8.84973.49138,15.58489,5.41,21.77263,10.989,9.73163,8.77425,18.05837,19.042,28.50992,27.07448A4.40855,4.40855,0,0,1,231.82654,241.13632Z"/><path class="cls-3" d="M175.00867,4.17343c-.01741,5.317.04874,10.63628-.09045,15.95014-.0618,2.35993.75314,3.45084,3.08159,4.24642,26.832,9.168,41.85946,28.64327,48.18927,55.6172a3.84849,3.84849,0,0,1-2.67788,2.74121c-7.16395,2.68559-14.31781,5.44627-22.11976,5.63968-3.84-.5672-4.53922-4.01045-6.02362-6.686-8.26345-14.894-21.05274-22.54789-37.91185-22.05611-14.56194.42477-25.92331,7.45826-33.68454,19.96956-1.03174,1.66321-1.66269,3.6954-3.86128,4.32816-8.60016-1.09887-16.139-5.16119-23.89268-8.6104a2.12179,2.12179,0,0,1-1.392-2.34915c7.46157-23.54187,22.11723-40.32274,45.83633-48.42263,2.65451-.90649,3.77692-2.0199,3.65527-4.87777-.21945-5.15565-.09132-10.32609-.10838-15.49035Z"/><path class="cls-4" d="M137.54973,200.947c-10.46857,1.40164-19.06791,6.4516-26.58163,13.62-7.933,7.56829-14.79477,16.24137-23.61453,22.89367a12.96041,12.96041,0,0,1-1.27.75447c-13.94818-16.8098-21.71056-35.843-21.38588-57.97773.18261-12.44941,3.92421-23.77947,9.451-34.71834.70709-1.39951,2.7774-2.71585,1.07184-4.74277,1.11751-3.45616,3.64735-5.24293,7.072-5.98564a126.66471,126.66471,0,0,0,46.46053,14.26921c32.84442,3.65347,65.41874,3.20906,96.846-9.0235,2.78571-1.0843,5.23369-2.93866,8.22538-3.51239,5.04617,1.9811,8.11363,6.459,12.17033,9.69551,3.11849,8.54466,7.06183,16.82749,8.06668,26.03424,2.62682,24.06713-4.26176,45.23105-19.35528,63.9381-1.19005,1.47493-3.21485,2.55053-2.878,4.94542-9.45093-5.51277-16.39732-13.81974-23.81589-21.55611-7.68136-8.01041-15.99684-14.88538-27.02108-17.71913-.24086-1.90529,1.166-3.02142,2.11283-4.33955,9.67234-13.4647,4.36593-28.95878-11.5977-33.21616-9.35055-2.49371-18.7754-2.71527-27.79846,1.52029-12.46407,5.85086-15.99168,19.01355-8.38774,30.49684C136.24707,197.72306,138.26638,198.71618,137.54973,200.947Z"/><path class="cls-3" d="M234.86547,137.07669c-20.12372,10.70393-41.95558,14.28238-64.36563,15.122-21.32618.79906-42.53253-.117-63.25777-5.96606-9.15692-2.58426-18.08115-5.6771-25.97672-11.17749-2.3208-.26046-3.48136-1.71163-3.962-3.8606-2.4996-6.54993-2.1274-8.23244,3.40632-12.00948,6.31212-4.30836,7.93547-10.96835,9.39371-17.77467,1.32955-.90158,2.57084-.21569,3.73027.328,7.92908,3.71827,16.18172,6.63311,24.31218,9.85488,1.7353,1.21859,2.38485,3.12221,3.16446,4.96209a40.86652,40.86652,0,0,0,60.59933,17.84823,42.545,42.545,0,0,0,12.56207-13.2768c1.03391-1.68423,1.82424-3.58172,3.666-4.64226,9.49843-2.40313,18.92554-5.04437,28.18492-8.2678,1.37333-.47811,2.84488-1.08484,4.28411-.05762a18.821,18.821,0,0,0,7.05763,10.57774c6.99051,5.13042,7.271,7.46527,1.93926,14.64353C238.9272,135.77,237.13649,136.73121,234.86547,137.07669Z"/><path class="cls-5" d="M117.99628,112.26589c-9.80339-2.32133-18.744-6.85929-27.89377-10.85653-1.3184-1.0807-3.34318-1.50652-2.948-4.00662,1.15793-7.32566,1.21054-14.79818,3.1353-22.03619.70371-2.64633,1.74622-3.66111,4.33767-2.40292,7.94291,4.65372,16.62632,7.49343,25.31856,10.31144,1.059,1.15118.7785,2.5056.378,3.74292-2.23965,6.91886-2.23559,13.9672-1.38828,21.08209C119.11271,109.58615,119.22809,111.08506,117.99628,112.26589Z"/><path class="cls-6" d="M77.30337,131.19456q1.97962,1.93028,3.96061,3.86058c-1.227,2.74184-4.31769,3.5161-6.04617,5.72385-2.7988,2.83621-5.67828,5.60295-8.38872,8.52643-13.277,14.32058-29.193,17.086-46.48694,7.99914a59.23306,59.23306,0,0,1-12.57536-8.91618c-1.713-1.57588-3.1562-3.41106-1.0917-5.49523,1.81613-1.83342,3.5799-.65255,5.17578.8364A50.65547,50.65547,0,0,0,27.26193,153.702c12.39548,5.07733,23.48264,3.00266,32.954-6.50476C65.731,141.6611,71.045,135.92944,77.30337,131.19456Z"/><path class="cls-5" d="M230.60671,108.15916c-10.72316,3.46543-21.20992,7.7844-32.55171,9.0164-1.25634-1.53442-.60848-3.17762-.12824-4.71241,1.96782-6.28885,2.01914-12.67038,1.19884-19.12944-.26431-2.08125-.901-4.35888,1.681-5.62736,8.66417-1.904,17.384-3.62486,25.3823-7.71909,2.37251-.95217,3.49138-.34482,3.8641,2.39036,1.0002,7.3401.96639,14.823,2.89705,22.02876C233.55532,106.66529,231.83858,107.19516,230.60671,108.15916Z"/><path class="cls-6" d="M234.86547,137.07669q2.36931-1.84773,4.73838-3.69587c6.99814,7.80571,11.21392,8.97992,21.12153,5.433,11.77993-4.21723,21.72921-11.50246,31.40887-19.19353,1.17374-.93261,2.2851-1.94665,3.48642-2.841,1.49609-1.11376,3.118-1.36428,4.47873.12618,1.39868,1.532.94461,3.11766-.46112,4.38556-1.85382,1.672-3.76611,3.28706-5.7327,4.825-8.94815,6.99775-18.24072,13.459-28.87192,17.69691-6.11673,2.43829-12.41027,3.83632-19.03831,2.40623C241.04718,144.67868,237.90021,140.946,234.86547,137.07669Z"/><path class="cls-7" d="M137.54973,200.947c-6.83989-6.79251-9.62653-14.75946-6.29678-24.09089,3.27583-9.18022,10.73344-13.09938,19.78944-14.71838a46.6335,46.6335,0,0,1,21.75406,1.08673c17.21933,5.13126,22.097,23.62708,9.81375,36.77188-.56247.60193-1.082,1.244-1.62025,1.86647C164.56664,213.17816,151.9384,212.91218,137.54973,200.947Z"/><path class="cls-8" d="M163.95263,230.01214c2.81758.6982,4.02154,3.15378,5.77839,5.486a119.627,119.627,0,0,1-25.49821.0308c1.6102-2.95614,3.2278-4.79953,5.8587-5.62232A16.70838,16.70838,0,0,1,163.95263,230.01214Z"/><path class="cls-9" d="M163.95263,230.01214a57.2216,57.2216,0,0,1-13.86049-.10525c.68579-3.17658,3.61987-4.55825,5.4676-6.80523a1.7203,1.7203,0,0,1,2.94612.09194C160.28556,225.49615,163.31841,226.80105,163.95263,230.01214Z"/><path class="cls-10" d="M200.80661,87.70635a3.78809,3.78809,0,0,0-.74041,3.277c2.15811,8.95431.93412,17.63665-2.01169,26.1922-7.14092,14.39371-18.22608,23.23592-34.53874,25.22869A42.05612,42.05612,0,0,1,120.16169,117.285c-.70507-1.68024-1.44274-3.3468-2.16535-5.01938-1.72787-9.82347-1.59115-19.52182,1.95-28.99081,4.38315-7.31119,9.30149-14.00056,16.77683-18.68656C157.2607,51.714,185.123,59.19464,196.3722,80.75936,197.63066,83.17184,197.86991,86.3339,200.80661,87.70635Z"/><path class="cls-11" d="M200.05669,165.7974c-.20483,2.987-1.89743,5.28522-5.68256,5.57569a5.73432,5.73432,0,0,1-6.52085-5.828c.00225-3.69666,1.94648-5.90431,5.636-6.26686C197.04378,158.9289,199.9267,161.62292,200.05669,165.7974Z"/><path class="cls-12" d="M118.20113,165.24173a6.2592,6.2592,0,0,1,7.00068-5.94547c3.65929.58646,5.4703,3.009,5.39217,6.60617-.07458,3.43324-3.3348,5.91518-6.93183,5.45839C119.8726,170.8796,118.41156,168.3636,118.20113,165.24173Z"/><path class="cls-1" d="M158.92069,136.1376a35.90309,35.90309,0,0,1-35.68164-35.66137c-.2238-19.21867,16.17912-35.43606,35.8183-35.41317A35.70085,35.70085,0,0,1,194.755,100.61173C194.8039,119.97686,178.4945,136.14588,158.92069,136.1376Z"/><path class="cls-13" d="M192.53878,165.642c-1.10794-.07756-1.82167-.59679-1.84426-1.77954a1.54581,1.54581,0,0,1,1.32543-1.7365,1.60486,1.60486,0,0,1,2.09056,1.4289C194.28138,164.7286,193.61554,165.35786,192.53878,165.642Z"/><path class="cls-14" d="M124.84694,163.62123a1.8813,1.8813,0,0,1-1.60412,2.10861,1.7939,1.7939,0,0,1-2.23548-1.89642,1.73457,1.73457,0,0,1,1.79907-1.85709A1.84717,1.84717,0,0,1,124.84694,163.62123Z"/><path class="cls-15" d="M135.48705,91.31829c4.29895-10.0694,14.49953-15.15129,26.37581-14.24794,9.572.72807,19.4839,9.06923,22.52824,19.82337a25.10309,25.10309,0,0,1-9.8775,27.42588c6.961-14.60846,5.98279-26.43926-3.1545-34.08786C163.22991,83.427,150.36283,78.80394,135.48705,91.31829Z"/><path d="M46.89322,384.92969a21.09158,21.09158,0,0,1,10.875,8.0957,28.39915,28.39915,0,0,1,4.54932,10.30371,49.40951,49.40951,0,0,1,1.21337,10.56348q0,12.728-5.1123,21.55957-6.93237,11.90625-21.40332,11.90527H9.50211v-63.8125H37.01529A33.606,33.606,0,0,1,46.89322,384.92969ZM22.44644,394.627v41.64746H34.76138q9.45264,0,13.18116-9.30761a32.78681,32.78681,0,0,0,2.03808-12.165q0-9.74121-3.05713-14.958-3.05712-5.21631-12.16211-5.2168Z"/><path d="M111.88834,441.585q-5.97437,7.374-18.13916,7.374-12.16626,0-18.13965-7.374a29.2791,29.2791,0,0,1,0-35.44824q5.97436-7.48242,18.13965-7.4834,12.16479,0,18.13916,7.4834a29.27719,29.27719,0,0,1,0,35.44824Zm-9.87061-6.81934q2.9004-3.84813,2.90088-10.9375,0-7.08984-2.90088-10.915a9.80775,9.80775,0,0,0-8.312-3.82618,9.86556,9.86556,0,0,0-8.3335,3.82618q-2.92236,3.8247-2.92236,10.915,0,7.08985,2.92236,10.9375a9.84249,9.84249,0,0,0,8.3335,3.84668A9.785,9.785,0,0,0,102.01773,434.76562Z"/><path d="M166.04654,441.585q-5.97363,7.374-18.13965,7.374-12.16479,0-18.13867-7.374a29.2791,29.2791,0,0,1,0-35.44824q5.97436-7.48242,18.13867-7.4834,12.16552,0,18.13965,7.4834a29.27719,29.27719,0,0,1,0,35.44824Zm-9.87012-6.81934q2.89893-3.84813,2.90039-10.9375,0-7.08984-2.90039-10.915a10.965,10.965,0,0,0-16.64551,0q-2.92236,3.8247-2.92236,10.915,0,7.08985,2.92236,10.9375a10.927,10.927,0,0,0,16.64551,0Z"/><path d="M178.16861,410.21289V400.169H215.486v10.25976L192.3317,437.22656h23.97656v10.13086H176.5231v-9.61133l23.3916-27.5332Z"/><path d="M255.93424,401.125a19.19641,19.19641,0,0,1,8.15429,6.98047,23.20217,23.20217,0,0,1,3.75977,9.75586,60.36877,60.36877,0,0,1,.40625,9.36523H233.88638q.28712,7.1001,4.93457,9.957a12.5313,12.5313,0,0,0,6.80274,1.77539,9.5856,9.5856,0,0,0,9.39062-5.4121H267.611q-.498,4.1997-4.57422,8.52929-6.3413,6.88331-17.75293,6.88281a25.7211,25.7211,0,0,1-16.62207-5.80566q-7.20117-5.80518-7.20019-18.89258,0-12.26074,6.5-18.80371,6.49952-6.54345,16.875-6.54394A26.85935,26.85935,0,0,1,255.93424,401.125Zm-18.458,10.6582a12.82425,12.82425,0,0,0-3.28711,7.30469H255.446q-.33692-4.91309-3.28711-7.457a10.81437,10.81437,0,0,0-7.31738-2.54395Q240.0895,409.08691,237.47623,411.7832Z"/><path d="M300.70767,399.06445q.23731.02344,1.06055.06543v12.6416q-1.16895-.13036-2.07813-.17382-.90966-.04248-1.47168-.043-7.44726,0-10.001,4.84863-1.42822,2.72754-1.42871,8.39844v22.55566H274.36392V400.169h11.77539v8.22558a26.1299,26.1299,0,0,1,4.97852-6.45117,13.55859,13.55859,0,0,1,9.00488-2.90039C300.35318,399.043,300.54849,399.05078,300.70767,399.06445Z"/></svg>