<svg id="Layer_1" data-name="Layer 1" xmlns="http://www.w3.org/2000/svg" viewBox="0 0 595.27559 561.03087"><defs><style>.cls-1{fill:none;}.cls-2{fill:#fbbc05;}.cls-3{fill:#34a853;}.cls-4{fill:#ea4335;}.cls-5{fill:#4285d4;}</style></defs><title>dopamine</title><polygon class="cls-1" points="377.122 289.163 377.122 193.432 289.424 144.994 201.727 193.432 201.727 289.163 289.424 337.586 377.122 289.163"/><path class="cls-2" d="M407.34441,306.98941V175.59564L289.424,110.47186,171.50365,175.59564V306.98941L289.424,372.11817ZM201.72652,193.43228,289.424,144.994l87.69751,48.43827v95.73039L289.424,337.58611l-87.69751-48.42344Z"/><path class="cls-3" d="M454.88413,156.92481,289.53225,61.72861,129.12077,153.84838,93.98335,89.23878a46.57052,46.57052,0,1,0-25.5606,16.2653l48.93159,89.95977L289.31581,96.70334l152.36973,85.51251a14.69413,14.69413,0,1,0,13.19859-25.291Z"/><path class="cls-4" d="M449.85184,296.40767a15.34161,15.34161,0,0,0-10.85362,4.48075L289.31581,389.34886,117.35434,290.58835,90.781,339.44287a44.95255,44.95255,0,1,0,24.57156,18.07758l13.7682-25.31662,160.41148,92.11976L456.34589,325.74a15.383,15.383,0,0,0-6.49405-29.33229Z"/><path class="cls-5" d="M534.10673,9.30376a46.5716,46.5716,0,0,0-40.6142,69.37155L468.282,114.00684,289.42507,13.6347l-151.37863,86.923a15.37641,15.37641,0,1,0,14.89344,26.04893l136.48506-80.661L475.27519,154.10686,517.14947,99.2597A46.57635,46.57635,0,1,0,534.10673,9.30376Z"/><path d="M143.43125,480.20994a18.79822,18.79822,0,0,1,9.69436,7.21718,25.31,25.31,0,0,1,4.05524,9.18494,44.04843,44.04843,0,0,1,1.08163,9.41633q0,11.34506-4.55749,19.21831-6.179,10.61322-19.07929,10.61277H110.1001V478.97494h24.5256A29.9779,29.9779,0,0,1,143.43125,480.20994Zm-21.79236,8.645v37.12539h10.9778q8.4264,0,11.75-8.29792a29.22557,29.22557,0,0,0,1.81663-10.84416q0-8.68269-2.72472-13.333-2.72561-4.65076-10.84191-4.65031Z"/><path d="M201.36961,530.71318q-5.32545,6.57456-16.16983,6.57412-10.8446,0-16.16982-6.57412a26.09846,26.09846,0,0,1,0-31.59883q5.32544-6.67008,16.16982-6.671,10.84393,0,16.16983,6.671a26.0985,26.0985,0,0,1,0,31.59883Zm-8.79883-6.07815q2.585-3.43056,2.5857-9.75,0-6.32029-2.5857-9.73023a9.7745,9.7745,0,0,0-14.83841,0q-2.6052,3.41037-2.605,9.73023,0,6.32031,2.605,9.75a9.74125,9.74125,0,0,0,14.83841,0Z"/><path d="M249.94276,498.30985q5.14652,5.44181,5.14674,15.977,0,11.11367-5.03059,16.942a16.32788,16.32788,0,0,1-12.95317,5.827,13.58411,13.58411,0,0,1-8.3903-2.50857,16.20228,16.20228,0,0,1-3.57317-4.05209V552.415H214.2591V493.79407h10.53563v6.21357a17.69671,17.69671,0,0,1,3.80636-4.32206,14.043,14.043,0,0,1,8.77775-2.81709A16.63388,16.63388,0,0,1,249.94276,498.30985Zm-8.44142,7.91137q-2.242-3.74268-7.271-3.74358a8.26888,8.26888,0,0,0-8.30419,5.67276,21.30839,21.30839,0,0,0-1.17,7.64141q0,7.332,3.9346,10.30424a9.02917,9.02917,0,0,0,5.53733,1.73635,8.04856,8.04856,0,0,0,7.07772-3.55074q2.437-3.55029,2.43772-9.45489A16.42757,16.42757,0,0,0,241.50134,506.22122Z"/><path d="M279.50747,510.27331a17.41909,17.41909,0,0,0,4.39246-.965,3.30854,3.30854,0,0,0,2.37135-3.12562,3.69506,3.69506,0,0,0-1.81887-3.56958,11.48911,11.48911,0,0,0-5.33957-.98477q-3.95052,0-5.59383,1.93008a7.94931,7.94931,0,0,0-1.565,3.85927H261.34119a16.092,16.092,0,0,1,3.101-9.06923q4.379-5.55751,15.03841-5.55706a26.812,26.812,0,0,1,12.32536,2.74q5.386,2.74041,5.3871,10.34191v19.29634q0,2.00721.07713,4.86288a6.11145,6.11145,0,0,0,.65562,2.93279,3.94456,3.94456,0,0,0,1.62066,1.27357v1.62066h-11.963a12.20425,12.20425,0,0,1-.69418-2.39288q-.19372-1.118-.30853-2.54713a22.68271,22.68271,0,0,1-5.27948,4.20636,15.94715,15.94715,0,0,1-8.07414,2.04578,13.93163,13.93163,0,0,1-9.49077-3.26105q-3.746-3.261-3.74582-9.24233,0-7.75712,6.02613-11.23072,3.30477-1.89017,9.71947-2.7014Zm6.72524,5.13284a12.17964,12.17964,0,0,1-2.13233,1.061,18.04288,18.04288,0,0,1-2.95342.75248l-2.50363.46279a16.50466,16.50466,0,0,0-5.05571,1.505,5.02414,5.02414,0,0,0-2.59826,4.67,4.879,4.879,0,0,0,1.587,4.07183,6.03291,6.03291,0,0,0,3.85972,1.25383,11.497,11.497,0,0,0,6.64228-2.08434q3.03638-2.08391,3.15432-7.60195Z"/><path d="M359.28661,493.94923a12.23042,12.23042,0,0,1,4.90145,3.78124,12.09341,12.09341,0,0,1,2.39287,5.40279,37.44483,37.44483,0,0,1,.38566,6.21358l-.07714,26.51263H355.62107V509.07688a8.80231,8.80231,0,0,0-.77221-3.9364q-1.46775-2.9328-5.4028-2.9328-4.5539,0-6.2907,3.78214a11.87168,11.87168,0,0,0-.88791,4.82341v25.04624H331.19189V510.81323a14.08481,14.08481,0,0,0-.77131-5.44136q-1.38972-3.0485-5.44137-3.04849-4.71,0-6.32927,3.04849a11.74461,11.74461,0,0,0-.88791,5.1714v25.3162H306.60935V493.8712h10.68989v6.13644a17.672,17.672,0,0,1,3.85927-4.66915,15.27077,15.27077,0,0,1,16.09269-.348,12.35,12.35,0,0,1,3.627,5.05571,13.98822,13.98822,0,0,1,5.36423-5.44137,16.36816,16.36816,0,0,1,7.56428-1.73635A14.64308,14.64308,0,0,1,359.28661,493.94923Z"/><path d="M388.38494,488.77782H377.23226v-10.15h11.15268Zm-11.15268,5.01625h11.15268v42.0654H377.23226Z"/><path d="M432.95622,496.20667q4.13148,3.41442,4.131,11.32668v28.32612H425.81886V510.27331a11.75284,11.75284,0,0,0-.88073-5.09427q-1.61034-3.24221-6.13017-3.24132-5.55481,0-7.62346,4.74629a16.42005,16.42005,0,0,0-1.07267,6.4064v22.76906H399.11341V493.8712h10.65133v6.13644a18.60683,18.60683,0,0,1,3.99649-4.66915,13.84318,13.84318,0,0,1,8.56967-2.54713A16.12127,16.12127,0,0,1,432.95622,496.20667Z"/><path d="M474.72565,494.6461a17.11447,17.11447,0,0,1,7.26831,6.22344,20.67567,20.67567,0,0,1,3.35163,8.69614,53.72336,53.72336,0,0,1,.36234,8.349H455.07146q.2556,6.32838,4.39829,8.87551a11.16768,11.16768,0,0,0,6.06469,1.58209,8.5417,8.5417,0,0,0,8.37057-4.82341h11.22892q-.444,3.744-4.07721,7.60194-5.65168,6.13734-15.82542,6.13645a22.92756,22.92756,0,0,1-14.81733-5.17589q-6.41852-5.17543-6.419-16.84069,0-10.92936,5.79473-16.76266,5.79427-5.832,15.04245-5.8324A23.95394,23.95394,0,0,1,474.72565,494.6461Zm-16.45413,9.50153a11.42441,11.42441,0,0,0-2.9301,6.51134h18.94835a9.17771,9.17771,0,0,0-2.9301-6.64677,9.63573,9.63573,0,0,0-6.523-2.2682A8.72236,8.72236,0,0,0,458.27152,504.14763Z"/></svg>