<?xml version="1.0" encoding="UTF-8"?> <!-- Generator: Adobe Illustrator 21.0.0, SVG Export Plug-In . SVG Version: 6.00 Build 0) --> <svg xmlns:cc="http://creativecommons.org/ns#" xmlns:dc="http://purl.org/dc/elements/1.1/" xmlns:rdf="http://www.w3.org/1999/02/22-rdf-syntax-ns#" xmlns:svg="http://www.w3.org/2000/svg" xmlns="http://www.w3.org/2000/svg" xmlns:xlink="http://www.w3.org/1999/xlink" id="logo" x="0px" y="0px" viewBox="0 0 400 300" style="enable-background:new 0 0 400 300;" xml:space="preserve"> <style type="text/css"> .st0{fill:#092E6E;} </style> <path id="logo_1_" class="st0" d="M197.89658,161.83112c0.46098,1.11003,0.98419,2.19324,1.5668,3.24463 c-3.70627,2.01617-7.24222,4.33092-10.57271,6.92101c-0.83905-2.3564,0.34535-4.76199,1.14722-7.09373 c0.16048-0.46878,0.34547-0.92529,0.54288-1.36942h0.06171c0.3331-0.03705,1.06099-0.07397,1.39407-0.14807 c0.7155-0.14796,1.62839-0.23433,1.75182-1.15962c0.0097-0.14374,0.0097-0.28798,0-0.43185c0-1.14734,0.82664-5.6749,1.12268-7.3158 c0.74016,1.71487,1.57907,3.65182,1.82591,4.35493l0.03693,0.01239C197.11937,159.84485,197.48938,160.84412,197.89658,161.83112z M165.79578,122.72293v-0.01227c2.89392,3.71023,5.51224,7.62743,7.83403,11.72006v-0.09863 c0.0313-0.31239,0.23688-0.58006,0.53049-0.69084c0.2448-0.0451,0.48883,0.08203,0.59219,0.3083 c0.18501,0.29616,0.32069,0.6046,0.53049,0.87598c0.21465,0.37115,0.53752,0.66809,0.92529,0.8513 c0.39467,0.1357,0.91289,0.27138,1.31996,0.39481l1.07336,0.32069c0.70311,0.16661,1.34219,0.53546,1.83818,1.06097 c0.2485,0.35175,0.51619,0.68942,0.80186,1.01166c0.3773,0.3336,0.79114,0.62325,1.23372,0.86357 c2.0927,1.13228,4.44348,1.702,6.82237,1.65318c1.06647-2.01003,3.20593-3.21475,5.47763-3.08429 c1.69022,0.06898,3.27428,0.84312,4.3672,2.13434c3.55089-0.82141,6.76883-2.70137,9.22809-5.39125 c0.3824-0.38254,0.9005-0.93768,1.51736-1.48044l-1.35703-1.80125c-0.7648,0-1.3694,0-2.13422,0 c-0.65761-0.00052-1.3082-0.1348-1.91228-0.39481c-0.52756-0.21873-0.91776-0.6778-1.04858-1.23358c0-0.30843,0-0.62926,0-0.92529 c0-0.29616-0.50583-0.39479-0.65392-0.60458c-0.11461-0.19843-0.11461-0.44298,0-0.64153c0,0,0.22206-0.29604,0.25911-0.27138 l-0.08636-0.07397c-0.25911-0.1974-0.54289-0.38254-0.44412-0.76495c0.09863-0.3824,0.56741-0.41946,0.32069-0.80186 c-0.09927-0.13364-0.21541-0.25387-0.34535-0.35774c-0.36375-0.21964-0.63219-0.56728-0.75255-0.97474 c0-0.62912,1.06097-1.34462,1.64078-1.89989c0.36618-0.30012,0.56013-0.762,0.5181-1.23359 c-0.12788-0.57035-0.22665-1.14684-0.29604-1.72715c0-0.29617,0-0.60459,0-0.91302 c-0.32593,0.47159-0.84721,0.77082-1.41872,0.81426c0.61314-0.72355,0.87917-1.67912,0.72789-2.61539 c0.01379-0.88658,0.40399-1.72536,1.07324-2.30709c-0.987-0.50583-1.52975,0.60459-1.56682,0.57993 c0.02684-1.49194,1.258-2.67966,2.74994-2.65295c0.1077,0.00191,0.21529,0.01035,0.32196,0.02517 c-0.78972-0.49625-1.2838-1.35036-1.32008-2.28242c0.31776,0.41383,0.74527,0.73006,1.23372,0.91302 c0.55795,0.19088,1.13879,0.30702,1.72716,0.34535c0.59348,0.01009,1.18581-0.052,1.76421-0.18501 c0.7896-0.14809,1.5668-0.32082,2.3564-0.48117c2.30428-0.82295,4.86537-0.46827,6.8593,0.94994 c-0.32593-0.40962-0.44846-0.94509-0.33308-1.45577c0.17273,0.48117,0.53049,0.67857,0.92528,1.12269 c0.9267,0.75612,1.89453,1.4605,2.89917,2.10969c0.71191,0.67192,1.22783,1.52477,1.49283,2.4673 c0.97345-0.19267,1.9326,0.39136,2.20819,1.34475c-1.2336-0.77721-1.03619,1.57907-1.02393,2.12196 c0.0621,1.04514-0.00844,2.09384-0.20967,3.12122c-0.61992,2.35999-2.18073,4.36222-4.31801,5.53934 c-0.51094,0.22372-0.94138,0.59821-1.23372,1.07324c-0.03731,0.12483-0.03731,0.25771,0,0.38254 c0.22232-0.11934,0.45856-0.21057,0.70323-0.27151c0.54289-0.14795,1.93695-0.48103,2.13435,0.3331 c0.1077,0.5945,0.27304,1.17711,0.49344,1.73955c0.14807,0.18513,0.5798,0.53049,0.99925,1.03632 c0.25668,0.26715,0.49957,0.54723,0.72789,0.83891c0.60895,0.76915,1.14198,1.59543,1.59148,2.46744 c0.63666,1.26463,1.15309,2.58638,1.54214,3.94774c0.52716,1.84074,0.89857,3.72261,1.11029,5.6257 c0.17274,1.45578,0.28377,2.92383,0.30843,4.392c0,0.66617,0,1.31996,0,1.98613c3.57977-3.96053,6.6053-8.38879,8.99364-13.16344 c4.32069-8.87099,6.5731-18.60645,6.58792-28.47376c0.28391-37.71398-28.64636-71.40612-74.63849-63.27618 c-8.3842,1.54981-16.43097,4.56051-23.77321,8.895c-7.88783,4.5471-14.68758,10.76155-19.92424,18.20934 c-2.66675,3.86189-5.03018,7.92461-7.06908,12.15192c8.32581,3.925,16.26102,8.62988,23.69936,14.0518 C150.94658,106.40952,158.9559,114.06992,165.79578,122.72293z M179.29243,143.85622v0.06158h-0.98688 c0.36183,0.86371,0.71141,1.73546,1.04858,2.61552c0.05673-0.23152,0.1974-0.43378,0.39481-0.56755 c0.67435-0.30293,1.4651-0.16621,1.99852,0.34549c1.50279,1.08908,3.36731,1.55734,5.20625,1.30769 c0.1974-0.7155,0.3824-1.44339,0.5798-2.15901c-0.85118-0.24672-1.7025-0.50583-2.55368-0.78947 c-0.97243-0.36209-1.97591-0.63461-2.99792-0.81425C181.08743,143.77304,180.18706,143.77304,179.29243,143.85622z M200.04318,216.05194l-0.01227-0.01227c50.11327,0.02913,90.76181-40.57225,90.7908-90.68564 c0.02914-50.11326-40.57227-90.7618-90.68552-90.79079c-19.08174-0.01112-37.68127,5.99368-53.15424,17.16063 c0,0,0.16035,0.1233,0.56754-0.13568c4.24379-2.6283,8.71051-4.87814,13.34859-6.72374 c1.38167-0.57572,2.77995-1.11438,4.19458-1.61612c13.75871-4.9557,28.56435-6.2731,42.98183-3.82445 c5.61752,0.98317,11.11124,2.57578,16.38354,4.74973c15.38416,6.3412,29.00412,17.55556,37.01077,32.28581 c8.72226,16.11205,11.59674,35.8882,6.87167,53.67808c-2.86926,10.48558-8.07373,20.18604-15.22368,28.375 c-7.32002,8.44807-16.3253,15.27249-26.43817,20.03513c-10.3582,4.89156-21.65752,7.46797-33.11234,7.55026 c-0.36388,0.98969-0.67282,1.99878-0.92529,3.02258c-0.08636,0.28377-0.11102,0.5798-0.20967,0.86357 c-0.28377,0.76482-1.14734,0.65378-1.82591,0.64153c-0.32069,0-0.86357-0.06172-1.23372-0.09877 c-0.81847,0.94087-1.5148,1.98128-2.07251,3.09656v0.11104c-0.86357,1.87523-1.39418,2.99791-0.76494,4.57712 c0.21005,0.55847,0.28212,1.15948,0.20967,1.75182c-0.00958,0.58542-0.24889,1.14363-0.66618,1.55441 c-0.50391,0.31442-1.10097,0.44513-1.69009,0.37013c-1.19398-0.03807-2.38272,0.17198-3.49136,0.61687 c-1.33171,0.72623-2.70329,1.37706-4.10822,1.9492c-1.36469,0.59859-2.92177,0.5761-4.26857-0.06171 c-0.22206-0.1357-0.41945-0.32069-0.6539-0.43173c-0.21388-0.07883-0.43851-0.12457-0.66618-0.13582 c-0.68802-0.02248-1.30846-0.42035-1.61612-1.03618c-0.11984-0.37219-0.07014-0.77811,0.13568-1.11043 c0.20979-0.37001,0.5798-0.3824,0.97461-0.33308c0.27699,0.05264,0.55733,0.0856,0.83891,0.09875 c0.50597-0.00778,1.00514-0.1169,1.46817-0.32082c0.91469-0.42584,1.74927-1.00591,2.46732-1.71477 c0.66617-0.61685,1.54214-1.3694,2.31935-2.02332c0.77721-0.65378,1.23372-1.04858,1.60385-1.39406 c1.19884-1.11745,2.21458-2.41634,3.01019-3.84911c0.53227-1.11835,0.97371-2.27757,1.32008-3.46671l-0.44411-0.29604 c-0.54289-0.4072-1.23372-0.8513-1.03632-1.64091c0.16034-0.48103,0.3824-0.94994,0.59219-1.41872 c-18.60414-2.4673-29.6087-10.69614-29.52234-10.68375c6.15926,1.43521,12.48079,2.05334,18.80154,1.83818 c-0.13339-0.127-0.24225-0.27751-0.32083-0.44411c-0.10361-0.22807-0.15025-0.47786-0.13568-0.72789 c-0.0023-0.26767,0.10988-0.52359,0.30843-0.70323c0.0442-0.0368,0.09416-0.06593,0.14809-0.08636 c0.12151-0.02977,0.2485-0.02977,0.37001,0c0.58351,0.09058,1.17482,0.11946,1.76421,0.08636 c0.41512-0.03258,0.82729-0.09442,1.23372-0.18501l0.64151-0.16034l1.02393-0.32083 c0.32939-0.13031,0.64369-0.29578,0.93768-0.49342c0.76929-0.45767,1.48517-0.99979,2.13422-1.61613 c1.13266-0.96924,2.12144-2.09499,2.93622-3.3434c0-0.07397,0.11102-0.22206,0.16035-0.34535 c0.64305-1.76306,1.14632-3.57402,1.50522-5.41591l0.20966-1.09804l-0.11102-0.06171 c-0.70323-0.44412-1.5051-1.06097-1.23372-2.06024c0.20979-0.64153,0.32083-0.67857,0.55515-1.30769 c0.23445-0.62926,0.54289-1.86298,0.7896-2.82518l0.86359-3.38034c-0.4247,0.03871-0.84071,0.14272-1.23372,0.30844 c-0.98688,0.43172-1.85045,1.04857-2.82518,1.51749c0.23445,0.83891,0.4689,1.69009,0.67856,2.54141 c0.09187,0.33513,0.03821,0.69351-0.14795,0.98686c-0.18398,0.30357-0.48155,0.52116-0.82664,0.6046h-0.30844 c-0.58644-0.02504-1.08742-0.43083-1.2337-0.99939c-0.25899-1.04858-0.55516-2.09717-0.86359-3.14589 c-0.14655-0.12572-0.27533-0.27098-0.3824-0.43172c-0.72202,0.07193-1.38193-0.41243-1.52975-1.1227 c-0.6902-0.2632-1.11937-0.95505-1.04871-1.69022c-0.37003-0.06172-0.59207-0.43173-0.74016-0.80186 c-0.39481-0.987,0.49344-1.72716,1.23372-2.02333c0.11972-0.04228,0.2439-0.07115,0.37001-0.08636 c-0.48526-1.28304-1.00336-2.55777-1.55441-3.82445c-1.02393-0.27138-1.1227-0.86357-1.11029-0.83891 c-0.9129,0-1.23372-1.06097-1.17201-1.11029c-1.23372-0.09865-1.23372-1.64079-1.23372-1.64079 c-0.52103-0.13173-0.86728-0.62491-0.81425-1.15974c0-0.30843,0.34547-0.56741,0.76494-0.77721 c0.25949-0.12534,0.52742-0.23253,0.80186-0.32069c-2.55879-4.83827-5.53946-9.44133-8.90727-13.75577 c-6.65793-8.52333-14.41542-16.12738-23.0701-22.61359c-7.2348-5.49538-15.05453-10.17484-23.31683-13.95304 c-5.24049,11.48906-8.00626,23.9517-8.11767,36.57903c0,0.32899,0,0.658,0,0.987 C109.30503,175.42705,149.92993,216.05194,200.04318,216.05194z M209.99916,146.43456 c-1.64346,0.62044-3.32462,1.13547-5.03349,1.54214c1.80112,2.46744,3.70102,4.93474,5.55159,7.3282l1.23372,1.35701 c0.16214-1.12447,0.26091-2.25713,0.29604-3.39259c0.04727-2.4079-0.64612-4.77209-1.98627-6.77306v-0.06171H209.99916z M396.25,257.06003c0,4.83597-6.10675,8.37677-15.66794,8.37677c-0.56741,0-1.20892,0-1.80112,0 c-2.06665-0.03986-4.1279-0.22537-6.16846-0.55515h-14.9895c-2.30695-2.51675-8.63589-8.27814-13.07721-12.55911h-0.12329v6.2919 c-0.13568,4.29321,0.48117,4.70041,4.79907,4.93472v1.38181h-20.97281c-1.30951,0.02682-2.61948-0.02261-3.9231-0.14807 c-2.54767-0.30984-4.92081-1.45514-6.74838-3.25693c-1.86923-1.974-3.52344-4.14105-4.93475-6.46461 c-0.5517-0.88568-1.52261-1.42256-2.56607-1.41872h-0.78961v5.00885c0,4.29321,0.49344,4.70029,4.71271,4.93472v1.40646h-19.73911 v-1.40646c4.34268-0.28375,4.83609-0.69083,4.83609-4.93472v-7.27888c-0.20966,8.25349-9.22797,13.96544-21.07144,13.96544 c-12.60843,0-20.77542-6.34109-20.77542-13.57065c0.0018-0.37538,0.02658-0.75024,0.07397-1.12256 c-2.06023,4.29323-4.52766,8.9566-6.9951,14.31079h-6.57552l-12.55911-21.54022h-0.17261l-11.44868,21.54022h-6.57565 l-12.6824-24.51349c-3.10883,0.33308-3.2693,1.15974-3.10883,4.7744l0.62912,13.34859 c0.18501,4.41663,0.30844,4.8237,4.78679,5.10748v1.2337h-19.4801v-1.38181c4.66336-0.23431,4.8485-0.50583,4.78679-4.93472 l-0.18501-14.02716h-0.24684l-12.27521,20.39301h-2.83745l-11.65848-18.99881h-0.12343l-0.43172,8.84555 c-0.21388,2.18918-0.17249,4.39597,0.12329,6.57553c0.24684,1.46817,1.61626,1.99866,5.66277,2.19604v1.38168h-26.41339v-1.38168 h1.78874c2.20831-0.19739,2.33174-0.88821,1.55453-2.31934l-2.15901-3.98492h-9.86948l-1.80125,3.70114 c-0.83893,1.7149-0.77721,2.40573,1.97386,2.60312h1.72728v1.38168H93.06956c-2.60274,0.18463-5.21263-0.23776-7.62424-1.2337 c-3.54067-1.73944-5.79845-5.35422-7.93266-8.51248c-0.52001-0.87125-1.45296-1.41246-2.46744-1.43112h-0.77721v4.7868 c0,4.2439,0.48117,4.68802,4.62632,4.93472v1.38181H59.88312v-1.38181c4.26857-0.185,4.74974-0.62912,4.74974-4.93472v-13.15118 c0-2.30696-0.14809-3.54068-0.90063-4.21925c-0.3152-0.24455-0.6824-0.41345-1.07324-0.49344 c-0.53956-0.07449-1.08397-0.10745-1.62852-0.09875h-0.54288c1.03517,1.60551,1.59926,3.46899,1.62852,5.37898 c0,13.26221-16.2724,18.90018-36.17197,18.90018H3.75v-1.71475c6.27949-0.32083,6.97045-0.97473,6.97045-6.73602v-17.59247 c0-5.7614-0.69096-6.13153-6.29188-6.45222v-2.07265h25.14274c10.59737,0,19.38135,1.27078,25.15501,4.73735 c1.73865,1.06161,3.29293,2.39908,4.60165,3.96027h19.56636c4.68802,0,7.74766,0.35774,10.15338,1.35701 s4.20685,2.78813,4.20685,5.14453c0,3.50375-3.29395,5.57626-7.74753,6.73601c0.85118,1.12256,3.0719,3.87376,4.81132,5.69966 c2.04798,2.12198,3.36806,3.46671,4.33028,4.26859c0.40604,0.35187,0.87482,0.62387,1.3818,0.80185 c0.63143,0.16086,1.29313,0.16086,1.92456,0c1.78886-0.41943,2.03558-1.45578,2.03558-4.4906v-13.15118 c0-4.29323-0.48117-4.81145-4.55233-5.0459v-1.31996h28.74512c0.06158,0.67844,0.35775,3.59,0.66618,6.57552l-2.6771,0.12343 c-0.29054-1.48619-1.05701-2.83733-2.18367-3.84911c-0.94994-0.67857-2.9486-0.91302-6.16846-0.91302H112.784 c-2.34401,0-2.46744,0.1974-2.46744,1.59146v7.59958h3.04724c5.21851,0,5.40365-0.16034,6.00812-3.18292h2.67709v9.40082h-2.78812 c-0.60447-3.54079-0.77721-3.70114-6.00812-3.70114h-3.03484v6.41519c0,2.07263,0.13569,3.15826,1.23372,3.51599 c1.39445,0.32159,2.82761,0.44196,4.25617,0.35788c2.43038,0,5.89708-0.27148,7.22943-1.2337 c0.53573-0.43097,1.0054-0.93808,1.39407-1.5051l0.3948-0.6539l11.96691-20.59042l4.13287-0.55515l4.07117,7.5256 c2.55368,4.74973,5.13214,9.45003,7.40218,13.50891c0.81425,1.45578,1.81352,2.96088,2.18367,2.8869 c0.37001-0.0741,0.43172-0.59219,0.54276-1.01166c0.51208-2.29431,0.84619-4.62466,0.99925-6.97046l0.69096-8.04369 c0.48105-5.02112,0-5.69955-4.93486-5.97105v-1.31996h14.644l10.89354,15.77882l9.52414-15.79123h12.69466l-1.04858-2.04797 c-2.30708-4.47823-3.84923-4.47823-7.77231-4.79904v-1.81354h26.64783v1.81354l-2.73882,0.22205 c-3.15826,0.32069-3.41737,0.57982-2.39333,2.78813l8.09302,17.85159l0.17261-0.29616l11.1897-22.55188h5.98346l12.97844,22.55188 l0.17274,0.29616c3.04724-6.30414,6.27948-13.9901,7.40216-17.02493c1.12271-3.03497,0.88824-3.4791-2.81291-3.70116 l-3.24451-0.22206v-1.81352h20.40526v1.81352c-4.74973,0.44412-5.55157,0.38242-8.45074,5.13214 c-0.18515,0.30843-1.55453,2.8745-3.61478,6.90874c3.36792-3.50374,8.52487-6.16846,17.49384-6.16846 c11.28821,0,20.8494,5.1568,21.05905,12.80569v-5.58865c0-4.29321-0.09863-4.70029-4.19446-4.93474l-0.39481-1.33235h19.40601 c4.77441,0,7.89563,0.24672,10.33841,1.23372c2.44263,0.98688,4.28082,2.89915,4.28082,5.21851 c0,3.45432-3.36792,5.50229-7.8956,6.64963c0.9006,1.09792,3.17065,4.09584,4.93472,5.90935 c0.96234,0.987,1.8999,1.98627,2.83759,2.98553c0.80072,1.02008,1.91498,1.74835,3.17053,2.07263 c0.94995,0.17276,2.27005-0.03705,2.66483-1.06097c0.28198-1.11169,0.39429-2.25967,0.3331-3.405v-13.41028 c0-4.29323-0.48117-4.70041-4.73746-4.93474v-1.33249h18.88791v1.33249c-4.00958,0.28377-4.49075,0.69084-4.49075,4.93474v6.16846 c4.44128-3.21997,8.14246-6.13141,11.67075-9.11693c0.85129-0.66618,1.51749-1.7766-0.12332-1.8999h-2.30707v-1.33247h16.28479 v1.60385c-3.46658,0.23445-5.23077,0.25911-8.51248,2.29469c-3.28156,2.03558-6.31641,4.04651-8.87021,5.97107 c3.77512,3.70102,7.78458,7.79698,11.60904,11.1032c1.42548,1.39905,3.15735,2.44647,5.05814,3.05963l0.82666,0.185l-0.23444-0.7648 c-0.46878-1.48044-1.04858-3.146-1.60373-5.1076l2.71414-0.5181c2.23657,3.95605,6.39896,6.43384,10.94284,6.51395 c3.24466,0,5.71198-1.14734,5.71198-3.70117c0-2.31934-2.34402-3.68875-6.16849-4.71268l-0.92526-0.27136 c-5.11975-1.45578-10.79477-3.54068-10.79477-7.74767c0-4.4413,5.11972-8.05595,14.80435-8.05595 c1.90155-0.00525,3.80002,0.15152,5.6749,0.46877c1.41885,0.23433,2.4057,0.38242,3.2077,0.54276 c0.24673,1.5668,0.67856,3.49136,1.35703,6.16859l-2.71417,0.27138c-1.43225-3.32513-4.77222-5.41757-8.38904-5.25557 c-3.146,0-5.36661,1.33235-5.36661,3.29396s2.34402,3.14601,6.35349,4.24391l1.35715,0.39479l-0.06174-0.0741 C391.31525,250.41039,396.25,252.45836,396.25,257.06003z M46.27543,247.64691c0-11.46094-9.38831-14.65627-16.70412-14.65627 c-1.24534-0.06439-2.49324,0.06042-3.70115,0.37013c-0.43172,0.11104-0.5181,1.33235-0.5181,2.66472v20.47939 c0,4.70041,1.89989,5.93411,6.03277,5.93411l-0.01239,0.01227C38.78701,262.45126,46.27543,257.08469,46.27543,247.64691z M82.99028,246.11716c0-3.82445-3.49136-5.39125-6.00811-5.39125s-2.70176,0.4072-2.70176,1.99866v9.16626h0.83879 c1.53282,0.1109,3.07101-0.12086,4.50301-0.67857v0.00012C81.66444,250.34216,82.9899,248.33699,82.99028,246.11716z M139.56752,254.62964l-3.76286-7.5256h-0.18501l-3.70102,7.5256H139.56752z M287.48752,251.75513 c0-7.8956-4.0589-11.68314-9.42551-11.68314c-4.81131,0-9.22797,4.60165-9.22797,11.48575 c0,5.19385,3.03485,11.43628,9.20331,11.43628l0.01239,0.01239C283.41623,263.00641,287.48752,257.33139,287.48752,251.75513z M318.09549,246.08011c0-3.77513-3.60239-5.46523-6.16846-5.46523s-2.75122,0.40706-2.75122,1.97386v9.19104h0.86359 c1.55991,0.11142,3.12555-0.11575,4.58939-0.66617h0.03705C316.72467,250.28735,318.07977,248.29852,318.09549,246.08011z"></path> </svg> 