<svg id="Layer_1" data-name="Layer 1" xmlns="http://www.w3.org/2000/svg" viewBox="0 0 625.03998 267.54001"><defs><style>.cls-1{fill:#242021;}.cls-2{fill:#70ccdb;}</style></defs><path class="cls-1" d="M168.416,81.931a17.83392,17.83392,0,0,1-7.22-6.678c-2.47-3.972-3.708-8.19-2.29-12.882a13.31024,13.31024,0,0,0,.447-2.711c.39-4.57-.217-9.089-.73-13.615-.766-6.773-2.394-13.27-6.007-19.136a1.339,1.339,0,0,1,.16788-1.88617l.04212-.03383a26.35288,26.35288,0,0,0,5.185-8.274,3.407,3.407,0,0,0-6.305-2.583,26.84521,26.84521,0,0,1-6.913,9.373c-5.075,4.735-10.846,8.558-16.516,12.508-9.09,6.335-17.997,12.883-25.735,20.893A88.37806,88.37806,0,0,0,80.392,95.68a121.77221,121.77221,0,0,0-3.4,42.78,65.855,65.855,0,0,0,8.468,27.342c4.17,7.293,9.72,13.45,15.81,19.163,5.04,4.73,10.44,9.072,15.213,14.09,3.44,3.616,6.465,7.536,8.045,12.34,2.566,7.796,1.9,15.564-.854,23.136-2.518,6.924-7.09,12.052-14.202,14.611a3.184,3.184,0,0,0-1.964,1.97,3.226,3.226,0,0,0,.721,3.55,3.295,3.295,0,0,0,3.743.82,29.055,29.055,0,0,0,15.73-13.349c3.559-6.121,4.863-12.837,5.143-19.835a34.36309,34.36309,0,0,0-5.98-21.28,64.60618,64.60618,0,0,0-9.358-10.574c-5.15-4.848-10.632-9.335-15.583-14.399-6.966-7.125-12.393-15.2-15.44-24.77-2.525-7.931-3.243-16.096-3.22-24.362a124.31749,124.31749,0,0,1,1.677-20.4A84.921,84.921,0,0,1,96.546,75.44c6.157-9.816,14.275-17.782,23.337-24.877,8.654-6.776,18.105-12.458,26.607-19.439.522-.428.637-.102.832.265a36.78066,36.78066,0,0,1,2.666,6.132c1.456,4.604,1.864,9.387,2.391,14.146a29.05,29.05,0,0,1-.034,8.839c-.376,1.916-1.023,3.788-.904,5.774.582,9.738,5.362,16.835,13.692,21.68,1.34.78,1.463.993.876,2.449a19.15294,19.15294,0,0,1-3.204,5.027,3.407,3.407,0,0,0,5.157,4.453,21.56782,21.56782,0,0,0,4.47-7.176c1.562-4.312.698-8.433-4.016-10.782ZM383.96,147.19c-5.24.03-10.479.015-15.718.015-5.319,0-10.638.015-15.957-.016-.76-.005-1.028.16-1.002.971q.10662,2.93805-.004,5.878c-.042,1.012.272,1.242,1.26,1.237,7.48-.045,14.958-.007,22.437-.048.907-.005,1.129.225,1.11,1.118-.06,2.918-.022,5.839-.022,8.758,0,5.296,0,5.296-4.536,8.104-12.476,7.727-28.703,4.731-36.973-6.946-5.314-7.504-6.465-15.914-4.81-24.802a26.899,26.899,0,0,1,26.77-22.271,26,26,0,0,1,20.38,9.253c.4.462.676.642,1.26.254q2.84559-1.883,5.753-3.67c.572-.354.675-.586.195-1.153a35.85333,35.85333,0,0,0-10.245-8.552c-7.5-4.079-15.533-4.986-23.822-3.603-11.143,1.86-19.834,7.53-25.489,17.426a38.455,38.455,0,0,0-4.643,22.76,35.658,35.658,0,0,0,33.406,33.53c12.143.943,22.562-2.84,31.053-11.682a1.977,1.977,0,0,0,.596-1.484q-.032-12.058.006-24.117c.004-.82-.26-.965-1.005-.96Zm110.099,7.676a20.365,20.365,0,0,0,11.889-5.412c5.642-5.466,7.018-12.288,5.817-19.726-1.73-10.712-10.132-16.89-20.171-17.247-10.026-.357-20.073-.094-30.111-.133-.768-.003-.928.248-.916.961.042,2.399.016,4.8.016,7.199q0,31.196-.027,62.392c-.002,1.075.27,1.335,1.313,1.293q3.23661-.13309,6.476,0c1.056.045,1.314-.235,1.308-1.3-.05-8.678-.01-17.357-.052-26.035-.004-1.006.268-1.251,1.257-1.236,3.959.06,7.919.053,11.878.004a1.912,1.912,0,0,1,1.902,1.023c5.544,8.773,11.15,17.507,16.7,26.278a2.26,2.26,0,0,0,2.25,1.27c2.715-.095,5.437-.024,8.157-.04.286,0,.63.162.913-.21l-19.18-28.993c.28-.043.43-.068.58-.088Zm-23.553-7.121c-.792.004-.9-.275-.895-.962.028-4.235.014-8.47.014-12.706s.017-8.47-.015-12.706c-.006-.748.143-1.03.973-1.024,6.153.037,12.31-.112,18.458.06,5.61.156,10.253,2.364,12.553,7.798,2.28,5.389,1.668,10.591-2.255,15.092a13.155,13.155,0,0,1-10.134,4.404c-6.232.088-12.466.008-18.7.044ZM608.38,171.612q-11.676-29.078-23.334-58.163a1.454,1.454,0,0,0-1.634-1.111c-2.838.074-5.68.085-8.518-.002a1.815,1.815,0,0,0-2.057,1.374q-13.484,33.568-27.046,67.104c-.437,1.082-.849,2.174-1.308,3.353,3.221,0,6.26-.03,9.298.02a1.206,1.206,0,0,0,1.361-.933c1.827-4.72,3.729-9.412,5.559-14.132a1.305,1.305,0,0,1,1.45-1.018q16.79792.052,33.597-.002a1.294,1.294,0,0,1,1.423,1.032c1.855,4.753,3.766,9.485,5.627,14.237.217.553.438.82,1.087.812,3.118-.036,6.237-.016,9.543-.016-1.722-4.284-3.386-8.419-5.047-12.555Zm-15.244-11.409c-9.4.002-18.798-.008-28.196.018-.895.003-1.082-.14-.729-1.036q7.193-18.243,14.327-36.51a1.54216,1.54216,0,0,1,.483-.846l15.113,38.322c-.448.024-.723.052-.998.052Zm-285.874-47.86q-22.315.047-44.631-.009c-1.132-.004-1.272.36-1.269,1.346q.05,17.277.021,34.554v6.479c0,9.438.017,18.876-.024,28.314-.005.974.287,1.161,1.196,1.16q22.436-.042,44.871.005c.944.002,1.13-.274,1.102-1.138-.063-1.877-.081-3.761.005-5.637.047-1.019-.286-1.237-1.261-1.234-11.878.034-23.755.008-35.633.047-1.012.003-1.243-.272-1.237-1.254q.064-11.098,0-22.196c-.006-1.006.172-1.328,1.274-1.323,11.557.049,23.115.005,34.673.066,1.28.006,1.527-.382,1.464-1.534a45.9958,45.9958,0,0,1,.001-5.156c.065-1.13-.221-1.464-1.416-1.459-11.637.051-23.275.029-34.913.037-.638,0-1.091.059-1.085-.89.047-7.078.036-14.157.01-21.235-.003-.739.199-.947.94-.937,2.919.043,5.839.018,8.758.018,9.078,0,18.157-.015,27.235.022.942.004,1.225-.237,1.187-1.185q-.12035-2.81724.003-5.637c.048-1.03-.307-1.226-1.27-1.224Zm138.038-.001q-22.314.05-44.628-.002c-1.041-.002-1.32.225-1.316,1.3.044,11.517.027,23.034.027,34.551q0,17.456-.007,34.912c0,.647-.04,1.089.894,1.086q22.675-.048,45.35-.004c.786.002.917-.27.903-.963-.041-1.999-.06-4,.007-5.998.03-.88-.287-1.043-1.09-1.036-4.64.035-9.278.017-13.917.017q-11.037,0-22.075.005c-.59,0-1.046.06-1.042-.825q.05-11.577.01-23.154c-.002-.558.136-.787.73-.755.837.045,1.679.011,2.518.011,10.958,0,21.915-.012,32.872.021.931.003,1.234-.214,1.193-1.176q-.12672-2.81711.002-5.637c.05-1.045-.223-1.322-1.3-1.318-11.637.045-23.274.017-34.91.05-.892.002-1.124-.207-1.119-1.11.042-6.839.063-13.678-.013-20.515-.014-1.271.373-1.466,1.524-1.461,11.757.043,23.515.008,35.272.055,1.138.004,1.397-.333,1.347-1.394q-.12794-2.69648,0-5.396c.048-.99-.22-1.266-1.231-1.264Z"/><path class="cls-2" d="M56.39,60.7c2.493-3.717,5.008-7.42,7.49-11.144,1.722-2.585.633-5.639-2.242-6.375a4.017,4.017,0,0,0-4.326,1.861Q51.548,53.59,45.814,62.159,29.445,86.546,13.071,110.931a5.34487,5.34487,0,0,0-1.062,2.565,5.06494,5.06494,0,0,0,1.105,3.038q15.402,22.944,30.792,45.896l13.358,19.911a3.925,3.925,0,0,0,4.063,1.948c2.877-.441,4.447-3.656,2.477-6.563C55.288,165.153,46.86,152.52,38.401,139.91q-8.481-12.645-16.96-25.291c-.327-.487-.683-.847-.2-1.563Q38.845,86.9,56.388,60.7Zm148.734,5.984q-7.214-10.75-14.416-21.51a4.34,4.34,0,0,0-3.426-2.103,4.003,4.003,0,0,0-3.463,6.134c.929,1.537,1.968,3.008,2.97,4.501q19.885,29.607,39.79,59.2a1.259,1.259,0,0,1-.043,1.68c-1.703,2.465-3.363,4.96-5.034,7.448q-10.327,15.375-20.65,30.753-8.349,12.443-16.69,24.892a4.293,4.293,0,0,0-.91,3.363,3.986,3.986,0,0,0,7.36,1.338q8.615-12.842,17.247-25.673,13.463-20.056,26.916-40.118c1.498-2.233,1.508-3.476.01-5.71q-14.827-22.1-29.66-44.195Z"/><path class="cls-1" d="M157.062,121.73a3.3,3.3,0,0,0-3.493-.47,3.395,3.395,0,0,0-2.096,3.343,13.73348,13.73348,0,0,1-.521,3.9,2.92,2.92,0,0,1-2.547,2.202,35.4209,35.4209,0,0,1-6.7.1c-7.622-.342-15.21-1.124-22.809-1.78a14.131,14.131,0,0,1-9.804-4.816,52.98137,52.98137,0,0,1-5.82-8.012,10.253,10.253,0,0,0-.464,3.406c-.094,6.077,2.017,11.039,7.528,14.081,1.183.653,1.351,1.187,1.032,2.44a63.35016,63.35016,0,0,0-.902,25.332,35.97089,35.97089,0,0,0,5.435,14.693,8.50592,8.50592,0,0,0,4.193,3.552,32.76867,32.76867,0,0,1-2.746-10.629,111.21932,111.21932,0,0,1-.504-18.662,100.22979,100.22979,0,0,1,1.386-13.573c.15-.788.407-1.041,1.242-.954q5.899.613,11.81,1.103a142.35415,142.35415,0,0,0,16.398.619c4.11-.135,7.35-1.738,9.199-5.572a17.82092,17.82092,0,0,0,1.446-7.825,3.08,3.08,0,0,0-1.263-2.478Zm378.123,26.645q0-17.46.022-34.92c.002-.893-.203-1.143-1.109-1.114q-3.358.12042-6.718-.004c-1.047-.042-1.219.31-1.217,1.269q.04606,23.4.022,46.8c0,7.56.018,15.12-.024,22.68-.005.92.246,1.128,1.126,1.102,2.238-.065,4.482-.087,6.718.008,1.052.044,1.205-.31,1.202-1.261-.034-11.52-.022-23.04-.022-34.56ZM130.66,75.029c0,.365-.01.711.002,1.056a7.425,7.425,0,1,0,14.83295-.71148q-.00838-.17453-.02495-.34851a10.33,10.33,0,0,0-9.679-8.706c-3.297-.093-6.032,1.38-8.619,3.13-2.417,1.636-4.873,2.521-7.75,1.44a.915.915,0,0,0-.338.015c.658,4.331,4.558,5.73,11.577,4.125Zm4.956-1.422c.309-1.246,1.332-.846,1.95-.949a22.49513,22.49513,0,0,1,3.608.516,1.19988,1.19988,0,0,1,1.065,1.44,3.355,3.355,0,0,1-1.981,3.038,3.309,3.309,0,0,1-3.673-.551A3.356,3.356,0,0,1,135.616,73.607Zm23.134,29.291a22.248,22.248,0,0,0-5.549,1.797c-3.986,1.588-7.995,3.117-12.116,4.717,3.266,3.135,6.322,6.35,10.18,8.633a6.75158,6.75158,0,0,0,2.133.76,5.7,5.7,0,0,0,6.293-2.775,7.968,7.968,0,0,1-5.927-3.78c-.445-.626-.366-.746.234-1.063a22.44076,22.44076,0,0,0,3.385-2.024c2.963-2.32,6.106-3.422,9.964-1.687-.16-.35-.212-.476-.274-.598a8.113,8.113,0,0,0-8.323-3.98Z"/></svg>