<svg xmlns="http://www.w3.org/2000/svg" version="1.1" xmlns:xlink="http://www.w3.org/1999/xlink" xmlns:svgjs="http://svgjs.dev/svgjs" width="1000" height="1000" viewBox="0 0 1000 1000"><rect width="1000" height="1000" fill="#ffffff"></rect><g transform="matrix(0.7,0,0,0.7,149.57575757575756,282.1265587044535)"><svg viewBox="0 0 396 247" data-background-color="#ffffff" preserveAspectRatio="xMidYMid meet" height="623" width="1000" xmlns="http://www.w3.org/2000/svg" xmlns:xlink="http://www.w3.org/1999/xlink"><g id="tight-bounds" transform="matrix(1,0,0,1,0.2400000000000091,-0.09999999999999432)"><svg viewBox="0 0 395.52 247.2" height="247.2" width="395.52"><g><svg></svg></g><g><svg viewBox="0 0 395.52 247.2" height="247.2" width="395.52"><g transform="matrix(1,0,0,1,75.54432000000001,87.98635639956825)"><svg viewBox="0 0 244.43135999999996 71.2272872008635" height="71.2272872008635" width="244.43135999999996"><g><svg viewBox="0 0 244.43135999999996 71.2272872008635" height="71.2272872008635" width="244.43135999999996"><g><svg viewBox="0 0 244.43136 71.22728720086351" height="71.2272872008635" width="244.43135999999996"><g><svg viewBox="0 0 244.43136 71.22728720086351" height="71.22728720086351" width="244.43136"><g id="textblocktransform"><svg viewBox="0 0 244.43136 71.22728720086351" height="71.22728720086351" width="244.43136" id="textblock"><g><svg viewBox="0 0 244.43136 38.854352015579366" height="38.854352015579366" width="244.43136"><g transform="matrix(1,0,0,1,0,0)"><svg width="244.43136" viewBox="3.9000000953674316 -32.20000076293945 205.3800048828125 32.650001525878906" height="38.854352015579366" data-palette-color="#0063db"><path d="M16.2-5.3L24.15-5.6 24.55-5.05 24.1 0 3.9 0 4.25-9.6 3.9-32.2 24.3-32.2 24.7-31.65 24.2-26.6 16.5-26.85 10.7-26.8 10.55-19.05 16.1-18.95 21.35-19.1 21.75-18.6 21.3-13.55 15.6-13.7 10.45-13.65 10.4-10.2 10.55-5.35 16.2-5.3ZM55.1-25.25L57.45 0 51.8 0 51.45-7.65 50.6-15.9 50.2-15.9 44.65-2.5 39.8-2.5 34.85-15.9 34.45-15.9 33.55-8.25 33 0 27.65 0 30.35-25.25 37.75-25.25 38.75-21.55 42.4-10.85 42.8-10.85 46.75-21.5 47.85-25.25 55.1-25.25ZM73.95-4.9L80.75-5.1 81.15-4.7 80.7 0 63.4 0 63.65-7.5 63.4-25.25 80.95-25.25 81.3-24.75 80.9-20.1 74.4-20.35 69.7-20.35 69.59-15.25 74.09-15.2 78.45-15.35 78.8-14.9 78.4-10.15 73.65-10.3 69.5-10.3 69.45-8.1 69.55-4.9 73.95-4.9ZM103.34-25.25L103.69-24.75 103.34-19.95 98.24-20.3 96.79-20.3 96.64-8.1 96.84 0 90.59 0 90.84-7.5 90.74-20.3 89.29-20.3 84.09-19.95 83.69-20.45 84.04-25.25 103.34-25.25ZM114.59-15.95L115.14-15.4 115.14-11.3 103.24-9.45 102.69-10 102.69-14.15 114.59-15.95ZM136.19-5.6L136.59-5.05 136.14 0 118.74 0 119.09-9.6 118.74-32.2 125.64-32.2 125.24-10.2 125.39-5.6 136.19-5.6ZM154.03-25.25L162.08 0 155.73 0 155.03-3.65 154.58-5.1 149.48-5.15 144.98-5.05 144.63-4 143.88 0 137.73 0 146.58-25.25 154.03-25.25ZM149.88-9.8L153.23-9.85 150.38-19.5 149.98-19.5 146.63-9.85 149.88-9.8ZM182.03-13.05Q184.68-12.4 185.96-10.98 187.23-9.55 187.23-7.2L187.23-7.2Q187.23-3.4 184.08-1.6 180.93 0.2 174.73 0.2L174.73 0.2Q171.98 0.2 166.98 0L166.98 0 167.23-7.5 166.98-25.25 177.13-25.3Q181.33-25.3 183.71-23.65 186.08-22 186.08-18.9L186.08-18.9Q186.08-16.9 185.03-15.4 183.98-13.9 182.03-13.05L182.03-13.05ZM179.53-18.05Q179.53-19.6 178.46-20.2 177.38-20.8 174.68-20.8L174.68-20.8 173.13-20.8 173.03-14.85 176.68-14.75Q178.13-15.1 178.83-15.88 179.53-16.65 179.53-18.05L179.53-18.05ZM175.83-4.2Q178.23-4.2 179.51-5.03 180.78-5.85 180.78-7.5L180.78-7.5Q180.78-8.7 179.93-9.4 179.08-10.1 177.33-10.5L177.33-10.5 172.98-10.4 172.93-8.1 173.03-4.35Q174.63-4.2 175.83-4.2L175.83-4.2ZM201.78-25.6Q205.38-25.6 208.68-24.35L208.68-24.35 207.73-18.75 206.83-18.5Q205.23-19.7 203.73-20.3 202.23-20.9 200.98-20.9L200.98-20.9Q199.58-20.9 198.78-20.23 197.98-19.55 197.98-18.6L197.98-18.6Q197.98-17.55 198.98-16.88 199.98-16.2 202.13-15.3L202.13-15.3Q204.38-14.35 205.8-13.55 207.23-12.75 208.25-11.33 209.28-9.9 209.28-7.75L209.28-7.75Q209.28-5.6 208.15-3.73 207.03-1.85 204.75-0.7 202.48 0.45 199.13 0.45L199.13 0.45Q197.33 0.45 195.2 0.08 193.08-0.3 191.08-1.1L191.08-1.1 191.93-7 192.58-7.45Q194.23-5.95 196.28-5.05 198.33-4.15 199.93-4.15L199.93-4.15Q201.33-4.15 202.2-4.85 203.08-5.55 203.08-6.6L203.08-6.6Q203.08-7.7 202.05-8.38 201.03-9.05 198.88-9.9L198.88-9.9Q196.63-10.85 195.2-11.68 193.78-12.5 192.75-13.95 191.73-15.4 191.73-17.55L191.73-17.55Q191.73-19.8 192.95-21.65 194.18-23.5 196.45-24.55 198.73-25.6 201.78-25.6L201.78-25.6Z" opacity="1" transform="matrix(1,0,0,1,0,0)" fill="#0063db" class="wordmark-text-0" data-fill-palette-color="primary" id="text-0"></path></svg></g></svg></g><g transform="matrix(1,0,0,1,0,48.02693202200928)"><svg viewBox="0 0 244.43136 23.20035517885424" height="23.20035517885424" width="244.43136"><g transform="matrix(1,0,0,1,0,0)"><svg width="244.43136" viewBox="5.760000228881836 -41.939998626708984 447.0099792480469 42.43000030517578" height="23.20035517885424" data-palette-color="#0063db"><path d="M5.76 0L5.76-37.35 27.22-37.35 27.22-33.74 9.91-33.74 9.91-19.07 24.93-19.07 24.93-15.48 9.91-15.48 9.91 0 5.76 0ZM37.42-36.01L37.42-36.01Q35.79-36.01 35.32-36.47L35.32-36.47Q34.59-37.23 34.59-38.56 34.59-39.89 34.75-40.47 34.91-41.04 35.23-41.36L35.23-41.36Q35.81-41.94 37.02-41.94 38.23-41.94 38.75-41.82 39.28-41.7 39.62-41.36L39.62-41.36Q40.21-40.77 40.21-39.44 40.21-38.11 40.07-37.54 39.94-36.96 39.62-36.62L39.62-36.62Q39.01-36.01 37.42-36.01ZM35.5 0L35.45-29.05 39.45-29.05 39.45 0 35.5 0ZM64.94-25.73L64.94-25.73Q60.18-25.73 55.24-22.92L55.24-22.92 55.24 0 51.19 0 51.19-29.05 54.76-29.05 55.15-26.05Q57.81-28.22 61.76-29.15L61.76-29.15Q63.37-29.54 65.55-29.54 67.72-29.54 69.38-29.04 71.04-28.54 72.02-27.44L72.02-27.44Q73.8-25.46 73.8-20.24L73.8-20.24 73.8 0 69.7 0 69.7-19.48Q69.7-23 69.01-24.01 68.33-25.02 67.39-25.38 66.45-25.73 64.94-25.73ZM89.3 0L89.3-33.74 79.34-33.74 79.34-37.35 103.75-37.35 103.75-33.74 93.45-33.74 93.45 0 89.3 0ZM131.04-5.03L132.24-1.54Q127.19 0.49 121.08 0.49L121.08 0.49Q117.54 0.49 115.08-0.24L115.08-0.24Q111.15-1.37 109.85-4.88L109.85-4.88Q108.66-8.18 108.66-14.65L108.66-14.65 108.66-15.89Q108.66-23.63 111.88-26.76L111.88-26.76Q114.78-29.54 121.57-29.54L121.57-29.54Q128.19-29.54 130.61-26.27L130.61-26.27Q131.78-24.68 132.16-22.42 132.53-20.17 132.53-18.12L132.53-18.12Q132.53-14.92 132.39-13.16L132.39-13.16Q128.95-13.01 126.21-13.01L126.21-13.01Q126.21-13.01 122.28-13.01L122.28-13.01Q116.13-13.01 112.81-13.55L112.81-13.55Q112.81-7.93 114.22-5.71L114.22-5.71Q115.96-3 121.13-3 126.31-3 131.04-5.03L131.04-5.03ZM112.81-16.41L128.41-16.41 128.41-18.75Q128.41-22.58 126.92-24.22L126.92-24.22Q125.26-26.05 121.18-26.05L121.18-26.05Q116.3-26.05 114.52-23.93L114.52-23.93Q112.81-21.9 112.81-16.41L112.81-16.41ZM161.76-4.59L162.98-1.29Q159.58 0.49 153.67 0.49L153.67 0.49Q150.18 0.49 148.55-0.05L148.55-0.05Q144.37-1.46 143.08-4.86L143.08-4.86Q142.18-7.23 142.03-9.96 141.88-12.7 141.88-14.58 141.88-16.46 141.98-18.25 142.08-20.04 142.46-21.7 142.83-23.36 143.62-24.79 144.4-26.22 145.74-27.29L145.74-27.29Q148.64-29.54 154.09-29.54L154.09-29.54Q158.09-29.54 161.46-28.37L161.46-28.37Q162.37-28.08 162.83-27.81L162.83-27.81 161.61-24.19Q156.92-26 153.93-26 150.94-26 149.54-25.32 148.13-24.63 147.35-23.24L147.35-23.24Q146.03-20.85 146.03-14.45L146.03-14.45Q146.03-11.89 146.2-9.78 146.37-7.67 147.06-6.15L147.06-6.15Q148.5-3.03 153-3.03 157.51-3.03 161.76-4.59L161.76-4.59ZM185.7-25.76L185.7-25.76Q180.84-25.76 176.06-22.95L176.06-22.95 176.06 0 172.01 0 172.01-41.55 175.96-41.94 175.96-26.05Q178.48-28.2 182.5-29.15L182.5-29.15Q184.12-29.54 186.31-29.54 188.51-29.54 190.17-29.04 191.83-28.54 192.81-27.44L192.81-27.44Q194.57-25.46 194.57-20.24L194.57-20.24 194.57 0 190.46 0 190.46-19.51Q190.46-23.02 189.78-24.04 189.1-25.05 188.16-25.4 187.22-25.76 185.7-25.76ZM218.07 0L218.07-37.23Q226.01-37.84 231.4-37.84L231.4-37.84 231.89-37.84Q237.77-37.84 240.14-35.21L240.14-35.21Q242.12-32.93 242.12-27.78L242.12-27.78Q242.12-21.19 240.24-17.97L240.24-17.97Q238.31-14.7 233.84-13.87L233.84-13.87Q234.67-12.84 235.48-11.72L235.48-11.72 236.92-9.64 243.34 0 238.46 0 232.84-8.84Q230.5-12.4 229.37-13.55L229.37-13.55 229.11-13.55Q227.37-13.57 225.76-13.62L225.76-13.62 222.22-13.77 222.22 0 218.07 0ZM222.22-34.13L222.22-17.07Q224.78-16.94 230.28-16.94L230.28-16.94Q234.79-16.94 236.43-19.48L236.43-19.48Q237.82-21.7 237.82-27.25L237.82-27.25Q237.82-31.91 235.75-33.35L235.75-33.35Q234.53-34.2 233.07-34.3 231.62-34.4 230.53-34.4 229.45-34.4 228.43-34.39 227.42-34.38 226.42-34.35 225.42-34.33 224.39-34.28L224.39-34.28 222.22-34.13ZM272.66-5.03L273.85-1.54Q268.8 0.49 262.7 0.49L262.7 0.49Q259.16 0.49 256.69-0.24L256.69-0.24Q252.76-1.37 251.47-4.88L251.47-4.88Q250.27-8.18 250.27-14.65L250.27-14.65 250.27-15.89Q250.27-23.63 253.49-26.76L253.49-26.76Q256.4-29.54 263.19-29.54L263.19-29.54Q269.8-29.54 272.22-26.27L272.22-26.27Q273.39-24.68 273.77-22.42 274.15-20.17 274.15-18.12L274.15-18.12Q274.15-14.92 274-13.16L274-13.16Q270.56-13.01 267.82-13.01L267.82-13.01Q267.82-13.01 263.89-13.01L263.89-13.01Q257.74-13.01 254.42-13.55L254.42-13.55Q254.42-7.93 255.84-5.71L255.84-5.71Q257.57-3 262.75-3 267.92-3 272.66-5.03L272.66-5.03ZM254.42-16.41L270.02-16.41 270.02-18.75Q270.02-22.58 268.53-24.22L268.53-24.22Q266.87-26.05 262.79-26.05L262.79-26.05Q257.91-26.05 256.13-23.93L256.13-23.93Q254.42-21.9 254.42-16.41L254.42-16.41ZM282.69-2.39L284.45-5.76Q289.48-2.95 294.56-2.95L294.56-2.95Q298.78-2.95 299.51-5.96L299.51-5.96Q299.76-6.98 299.76-8.46 299.76-9.94 299.41-10.75 299.07-11.57 298.27-11.98 297.46-12.38 296.13-12.57 294.8-12.77 292.75-13.12 290.7-13.48 288.99-13.92 287.28-14.36 286.08-15.19L286.08-15.19Q283.54-16.97 283.64-21.19L283.64-21.19 283.64-21.8Q283.64-26.25 286.57-28.13L286.57-28.13Q289.4-29.98 295.92-29.39L295.92-29.39Q300.37-28.98 303-27.86L303-27.86 301.85-24.17Q298.93-25.42 294.82-25.98L294.82-25.98Q293.55-26.15 292.44-26.15 291.33-26.15 290.43-25.98 289.53-25.81 288.92-25.34L288.92-25.34Q287.74-24.39 287.69-21.8L287.69-21.8Q287.62-18.75 289.4-17.92L289.4-17.92Q291.11-17.11 293.46-16.81 295.8-16.5 297.29-16.27 298.78-16.04 300-15.65 301.22-15.26 302.1-14.4L302.1-14.4Q303.93-12.67 303.88-8.37L303.88-8.37Q303.76-0.88 297.63 0.17L297.63 0.17Q295.78 0.49 293.92 0.49 292.06 0.49 290.51 0.26 288.96 0.02 287.55-0.39L287.55-0.39Q284.86-1.15 282.69-2.39L282.69-2.39ZM335.1-5.03L336.3-1.54Q331.25 0.49 325.14 0.49L325.14 0.49Q321.6 0.49 319.14-0.24L319.14-0.24Q315.21-1.37 313.91-4.88L313.91-4.88Q312.72-8.18 312.72-14.65L312.72-14.65 312.72-15.89Q312.72-23.63 315.94-26.76L315.94-26.76Q318.84-29.54 325.63-29.54L325.63-29.54Q332.25-29.54 334.66-26.27L334.66-26.27Q335.84-24.68 336.22-22.42 336.59-20.17 336.59-18.12L336.59-18.12Q336.59-14.92 336.45-13.16L336.45-13.16Q333-13.01 330.27-13.01L330.27-13.01Q330.27-13.01 326.34-13.01L326.34-13.01Q320.19-13.01 316.87-13.55L316.87-13.55Q316.87-7.93 318.28-5.71L318.28-5.71Q320.02-3 325.19-3 330.37-3 335.1-5.03L335.1-5.03ZM316.87-16.41L332.47-16.41 332.47-18.75Q332.47-22.58 330.98-24.22L330.98-24.22Q329.32-26.05 325.24-26.05L325.24-26.05Q320.36-26.05 318.58-23.93L318.58-23.93Q316.87-21.9 316.87-16.41L316.87-16.41ZM369.09-19.41L369.09-10.3Q369.09-5.44 369.55-0.2L369.55-0.2 365.94 0.1 365.33-3.3Q362.23-0.81 357.12 0.17L357.12 0.17Q355.46 0.49 354.17 0.49 352.88 0.49 351.89 0.37 350.9 0.24 349.98-0.11 349.07-0.46 348.29-1.1 347.5-1.73 346.92-2.78L346.92-2.78Q345.67-5 345.67-8.12 345.67-11.23 346.12-12.95 346.58-14.67 347.63-15.82L347.63-15.82Q349.7-18.09 354.61-18.09 359.52-18.09 365.08-16.24L365.08-16.24 365.08-19.41Q365.08-24.71 360.71-25.68L360.71-25.68Q359.3-26 357.47-26L357.47-26Q353.29-26 348.8-24.34L348.8-24.34 347.89-27.86Q349.14-28.69 354.24-29.35L354.24-29.35Q355.85-29.54 358.11-29.54 360.37-29.54 362.54-29 364.72-28.47 366.16-27.25L366.16-27.25Q369.09-24.83 369.09-19.41L369.09-19.41ZM364.98-13.18L364.98-13.18Q359.27-14.62 354.44-14.62L354.44-14.62Q351.46-14.62 350.48-12.92L350.48-12.92Q349.82-11.72 349.82-9.38 349.82-7.03 350.08-5.98 350.34-4.93 350.92-4.25L350.92-4.25Q352.07-2.95 354.71-2.95L354.71-2.95Q358.83-2.95 362.89-5.08L362.89-5.08Q364.13-5.71 365.13-6.49L365.13-6.49Q364.98-9.13 364.98-13.18ZM390.57-25.51L390.57-25.51Q387.44-25.51 384.2-22.39L384.2-22.39 384.2 0 380.14 0 380.14-29.05 383.71-29.05 384.1-25.2Q385.25-26.98 386.58-27.98 387.91-28.98 388.76-29.2L388.76-29.2Q389.98-29.54 391.08-29.54 392.18-29.54 393.84-29.1L393.84-29.1 393.47-25.22Q392.23-25.51 390.57-25.51ZM419.96-4.59L421.18-1.29Q417.79 0.49 411.88 0.49L411.88 0.49Q408.39 0.49 406.75-0.05L406.75-0.05Q402.58-1.46 401.28-4.86L401.28-4.86Q400.38-7.23 400.23-9.96 400.09-12.7 400.09-14.58 400.09-16.46 400.18-18.25 400.28-20.04 400.66-21.7 401.04-23.36 401.82-24.79 402.6-26.22 403.94-27.29L403.94-27.29Q406.85-29.54 412.29-29.54L412.29-29.54Q416.3-29.54 419.67-28.37L419.67-28.37Q420.57-28.08 421.03-27.81L421.03-27.81 419.81-24.19Q415.13-26 412.14-26 409.14-26 407.74-25.32 406.34-24.63 405.56-23.24L405.56-23.24Q404.24-20.85 404.24-14.45L404.24-14.45Q404.24-11.89 404.41-9.78 404.58-7.67 405.26-6.15L405.26-6.15Q406.7-3.03 411.21-3.03 415.71-3.03 419.96-4.59L419.96-4.59ZM443.91-25.76L443.91-25.76Q439.05-25.76 434.26-22.95L434.26-22.95 434.26 0 430.21 0 430.21-41.55 434.17-41.94 434.17-26.05Q436.68-28.2 440.71-29.15L440.71-29.15Q442.32-29.54 444.52-29.54 446.72-29.54 448.38-29.04 450.04-28.54 451.01-27.44L451.01-27.44Q452.77-25.46 452.77-20.24L452.77-20.24 452.77 0 448.67 0 448.67-19.51Q448.67-23.02 447.98-24.04 447.3-25.05 446.36-25.4 445.42-25.76 443.91-25.76Z" opacity="1" transform="matrix(1,0,0,1,0,0)" fill="#0063db" class="slogan-text-1" data-fill-palette-color="secondary" id="text-1"></path></svg></g></svg></g></svg></g></svg></g></svg></g></svg></g></svg></g><path d="M210.137 81.986L210.137 19.45 1.837 19.45 1.837 227.75 210.137 227.75 210.137 165.214 206.633 165.214 206.633 224.246 5.341 224.246 5.341 22.954 206.633 22.954 206.633 81.986Z" fill="#0063db" stroke="transparent" data-fill-palette-color="primary"></path></svg></g><defs></defs></svg><rect width="395.52" height="247.2" fill="none" stroke="none" visibility="hidden"></rect></g></svg></g></svg>