<svg xmlns="http://www.w3.org/2000/svg" role="img" viewBox="-11.05 32.95 834.60 557.10"><g transform="translate(-.606 .252) translate(1.196 -.252) scale(2.52227)"><g transform="translate(75.544 87.986)"><path fill="#0063db" stroke-width="1.19" d="M14.64923 32.0117l9.46071-.357.47601.6545-.53551 6.00964H.0119l.41651-11.42425L.01192 0h24.27652l.47601.65452-.595 6.00963-9.1632-.29751-6.90216.0595-.1785 9.2227 6.60464.119 6.24764-.1785.476.59501-.5355 6.00964-6.78315-.1785-6.12864.0595-.0595 4.10558.1785 5.77163zM60.94125 8.27068l2.79656 30.04816h-6.72365l-.41651-9.1037-1.01152-9.81772h-.47601l-6.60465 15.94635h-5.77162l-5.89063-15.94635h-.47601l-1.07103 9.1037-.65451 9.81772h-6.36664L31.4881 8.27068h8.8062l1.19002 4.4031 4.3436 12.73328h.476l4.7006-12.67378 1.30904-4.4626zm22.43199 24.21703l8.09217-.238.47601.476-.5355 5.59313H70.81845l.2975-8.9252-.2975-21.12296h20.88496l.4165.59501-.476 5.53362-7.73517-.2975h-5.59313l-.1309 6.06913 5.35512.0595 5.18851-.1785.41651.5355-.476 5.65263-5.65263-.1785h-4.93861l-.0595 2.61805.119 3.80809zM118.3481 8.27068l.41651.59501-.41651 5.71213-6.06913-.41651h-1.72554l-.17851 14.51832.23801 9.6392h-7.43766l.2975-8.92519-.119-15.23233h-1.72554l-6.18813.4165-.47601-.595.4165-5.71213zm13.38779 11.06724l.65452.65452v4.8791L118.2291 27.0731l-.65452-.65451v-4.93861zm25.70456 12.31677l.47601.65452-.53551 6.00963H136.6745l.41651-11.42425L136.6745 0h8.21118l-.47601 26.18057.1785 5.47412zm21.23007-23.384l9.57971 30.04815h-7.55667l-.83302-4.3436-.53551-1.72553-6.06913-.0595-5.35512.119-.41651 1.24953-.89252 4.7601h-7.31866l10.53173-30.04816zm-4.93861 18.3859l3.98659-.0595-3.39158-11.48376h-.47601l-3.98659 11.48375zm38.25934-3.8676q3.15356.77353 4.6768 2.46336 1.51133 1.70174 1.51133 4.4983 0 4.5221-3.74858 6.66415-3.74858 2.14204-11.12674 2.14204-3.27258 0-9.22271-.238l.29751-8.9252-.29751-21.12296 12.07877-.0595q4.99811 0 7.83037 1.96354 2.82036 1.96355 2.82036 5.65263 0 2.38005-1.24953 4.16509-1.24952 1.78504-3.57007 2.79656zm-2.97507-5.95012q0-1.84454-1.27333-2.55856-1.28523-.71401-4.4983-.71401h-1.84454l-.119 7.08065 4.3436.119q1.72553-.4165 2.55855-1.34472.83302-.91633.83302-2.58236zm-4.4031 16.48186q2.85607 0 4.3793-.98772 1.51133-.97582 1.51133-2.93937 0-1.42803-1.01152-2.26105-1.01152-.83301-3.09407-1.30902l-5.17661.119-.0595 2.73706.119 4.4626q1.90404.1785 3.33207.1785zm30.88118-25.46656q4.28409 0 8.21118 1.48753l-1.13053 6.66415-1.07102.2975q-1.90404-1.42802-3.68908-2.14204-1.78504-.71402-3.27257-.71402-1.66604 0-2.61806.79732-.95202.80922-.95202 1.93974 0 1.24953 1.19003 2.04685 1.19002.80922 3.74858 1.88024 2.67756 1.13053 4.36739 2.08255 1.70174.95202 2.91557 2.64185 1.22572 1.70174 1.22572 4.2603 0 2.55855-1.34473 4.7839-1.33282 2.23725-4.04608 3.60578-2.70136 1.36853-6.68795 1.36853-2.14205 0-4.6768-.44031-2.52286-.45221-4.90291-1.40423l1.01152-7.02115.77352-.53552q1.96354 1.78504 4.4031 2.85607 2.43955 1.07102 4.34359 1.07102 1.66604 0 2.70136-.83302 1.04722-.83302 1.04722-2.08254 0-1.30903-1.22572-2.11825-1.21383-.79732-3.77239-1.80884-2.67756-1.13052-4.37929-2.11825-1.68984-.97582-2.91557-2.70135-1.21382-1.72554-1.21382-4.2841 0-2.67756 1.45183-4.8791 1.46373-2.20155 4.16509-3.45108 2.71326-1.24953 6.34284-1.24953z" class="wordmark-text-0" data-fill-palette-color="primary" opacity="1"/><path fill="#0063db" stroke-width=".547" d="M.0051 70.95943V50.53677h11.73414v1.97392H2.27428v8.02143h8.2128v1.96298h-8.2128v8.46433zm17.3114-19.68996q-.89126 0-1.14825-.25152-.39916-.41556-.39916-1.1428 0-.72723.08749-1.04437.08749-.31167.26246-.48664.31713-.31714.97875-.31714t.94595.06561q.2898.06562.4757.25153.32262.3226.32262 1.04984 0 .72723-.07655 1.0389-.07108.31714-.24606.50305-.33354.33354-1.20294.33354zm-1.04983 19.68996l-.02734-15.8843h2.18716v15.8843zM32.3642 56.89049q-2.60273 0-5.30388 1.53648v12.53246h-2.2145v-15.8843h1.95204l.21325 1.64038q1.45446-1.18653 3.61429-1.69505.88033-.21325 2.07234-.21325 1.18654 0 2.0942.2734.90768.2734 1.44354.87486.97329 1.08265.97329 3.9369v11.06706h-2.24185v-10.6515q0-1.9247-.37728-2.47696-.37182-.55226-.8858-.7491-.51399-.19138-1.33964-.19138zm13.31983 14.06894V52.51069H40.238v-1.97392h13.34718v1.97392h-5.63195v18.44874zm22.82307-2.75036l.65615 1.9083q-2.7613 1.10999-6.10219 1.10999-1.93564 0-3.28075-.39916-2.14889-.61788-2.85972-2.53711-.65068-1.80442-.65068-5.34216v-.67802q0-4.23216 1.76067-5.94362 1.5857-1.52008 5.2984-1.52008 3.61977 0 4.943 1.788.63975.8694.84753 2.10516.20231 1.23028.20231 2.3512 0 1.74973-.07655 2.71208-1.88096.08202-3.37917.08202h-2.14889q-3.36277 0-5.17811-.29526 0 3.07296.77097 4.28684.95142 1.4818 3.77833 1.4818 2.83238 0 5.4187-1.10998zm-9.968-6.22249h8.52994V60.7071q0-2.09421-.81472-2.99095-.90767-1.00063-3.13858-1.00063-2.66834 0-3.64163 1.1592-.93501 1.10999-.93501 4.11187zm26.76543 6.46308l.66709 1.8044q-1.8591.9733-5.09063.9733-1.9083 0-2.79957-.29527-2.28559-.77098-2.99095-2.63007-.49211-1.2959-.57413-2.78863-.08202-1.49821-.08202-2.52618t.05468-2.00672q.05468-.97876.26246-1.88643.20231-.90768.63428-1.68959.4265-.78191 1.1592-1.36698 1.58569-1.23028 4.5657-1.23028 2.18717 0 4.02985.63975.49758.15857.7491.3062l-.66708 1.97939q-2.56445-.9897-4.19936-.9897-1.6349 0-2.4004.37182-.77098.37729-1.19748 1.13733-.72177 1.30683-.72177 4.8063 0 1.39978.09295 2.5535.09295 1.15374.47025 1.98486.78737 1.70599 3.24793 1.70599 2.46603 0 4.7899-.853zm13.09018-11.57558q-2.6574 0-5.27106 1.53649v12.54886h-2.2145V48.24025l2.15982-.21325v8.68851q1.37791-1.1756 3.57601-1.69505.8858-.21325 2.08328-.21325 1.20294 0 2.11061.2734.90768.2734 1.44353.87486.96235 1.08265.96235 3.9369v11.06706h-2.24731v-10.6679q0-1.91924-.37182-2.47697-.37181-.55226-.8858-.74363-.51398-.19685-1.3451-.19685zm17.69964 14.08535V50.60239q4.34152-.33355 7.28873-.33355h.26793q3.21513 0 4.51102 1.43806 1.08265 1.24669 1.08265 4.06266 0 3.60336-1.02797 5.36403-1.0553 1.788-3.49946 2.24184.45384.5632.89674 1.1756l.78738 1.13733 3.5104 5.27107h-2.66834l-3.07297-4.83364q-1.27949-1.94657-1.89737-2.57538h-.14216q-.95142-.01094-1.83175-.03828l-1.93565-.08202v7.52931zm2.26918-18.662v9.32827q1.39979.07108 4.40714.07108 2.46603 0 3.36277-1.38885.76004-1.21388.76004-4.24857 0-2.54805-1.13186-3.33543-.66708-.46477-1.4654-.51945-.79285-.05468-1.38885-.05468-.59053 0-1.14826.00547-.55226.00547-1.09905.02187-.54679.01094-1.10999.03828zm27.58016 15.91164l.65068 1.9083q-2.7613 1.10999-6.09672 1.10999-1.93564 0-3.28622-.39916-2.14889-.61788-2.85425-2.53711-.65615-1.80442-.65615-5.34216v-.67802q0-4.23216 1.76067-5.94362 1.59116-1.52008 5.30387-1.52008 3.6143 0 4.93753 1.788.63975.8694.84753 2.10516.20778 1.23028.20778 2.3512 0 1.74973-.082 2.71208-1.88096.08202-3.37917.08202h-2.14889q-3.36277 0-5.17812-.29526 0 3.07296.77645 4.28684.94595 1.4818 3.77833 1.4818 2.82691 0 5.4187-1.10998zm-9.97348-6.22249h8.52995V60.7071q0-2.09421-.81472-2.99095-.90767-1.00063-3.13858-1.00063-2.66834 0-3.64163 1.1592-.93502 1.10999-.93502 4.11187zm15.4578 7.66602l.96235-1.8427q2.75036 1.5365 5.52806 1.5365 2.30746 0 2.70662-1.64585.13669-.55773.13669-1.36698 0-.80925-.19137-1.25215-.18591-.44837-.62335-.67255-.4429-.21872-1.17013-.32261-.72723-.10936-1.84815-.30073-1.12093-.19685-2.05594-.43744-.93501-.24059-1.59116-.69442-1.38885-.9733-1.33417-3.28075v-.33354q0-2.43323 1.6021-3.4612 1.54742-1.01156 5.11249-.68895 2.43323.22418 3.87129.8366l-.62881 2.01765q-1.59663-.68349-3.84395-.9897-.69442-.09295-1.30136-.09295t-1.09905.09296q-.49211.09295-.82565.34994-.64522.51946-.67256 1.93565-.0383 1.66771.93502 2.12155.93501.4429 2.21997.60694 1.27949.1695 2.09421.29526.81472.12576 1.4818.33901.66709.21325 1.14827.6835 1.00062.94594.97328 3.29714-.0656 4.09547-3.41744 4.6696-1.01157.17497-2.0286.17497-1.01703 0-1.86456-.12576-.84752-.13123-1.6185-.35541-1.47087-.41556-2.6574-1.09358zm28.65733-1.44353l.65615 1.9083q-2.7613 1.10999-6.10219 1.10999-1.93564 0-3.28075-.39916-2.14889-.61788-2.85972-2.53711-.65068-1.80442-.65068-5.34216v-.67802q0-4.23216 1.76067-5.94362 1.58569-1.52008 5.2984-1.52008 3.61976 0 4.93753 1.788.64521.8694.85299 2.10516.20232 1.23028.20232 2.3512 0 1.74973-.0765 2.71208-1.88643.08202-3.37917.08202h-2.14889q-3.36277 0-5.17812-.29526 0 3.07296.77098 4.28684.95142 1.4818 3.77833 1.4818 2.83238 0 5.4187-1.10998zm-9.96801-6.22249h8.52995V60.7071q0-2.09421-.81472-2.99095-.90768-1.00063-3.13858-1.00063-2.66835 0-3.64163 1.1592-.93502 1.10999-.93502 4.11187zm28.55345-1.64037v4.98127q0 2.6574.25152 5.52259l-1.97392.16404-.33354-1.8591q-1.69505 1.36152-4.48916 1.89737-.90767.17498-1.61303.17498t-1.24669-.06562q-.54132-.07107-1.04437-.26245-.49758-.19138-.92407-.54133-.43197-.34448-.74911-.9186-.68349-1.21389-.68349-2.91987 0-1.70053.24606-2.641.25152-.94049.82565-1.5693 1.13186-1.24121 3.81661-1.24121 2.68474 0 5.7249 1.01156v-1.73333q0-2.898-2.38948-3.42838-.77097-.17497-1.7716-.17497-2.28559 0-4.74068.90767l-.49758-1.9247q.68349-.45384 3.47212-.81472.88034-.1039 2.11609-.1039t2.42228.29527q1.19201.2898 1.97939.95689 1.6021 1.32323 1.6021 4.28684zm-2.24732 3.4065q-3.12218-.78737-5.76318-.78737-1.62944 0-2.16529.92954-.36088.65615-.36088 1.93564 0 1.28496.14216 1.8591.14217.57413.45931.94594.62881.71083 2.07234.71083 2.25278 0 4.47275-1.16466.67802-.34448 1.22481-.77098-.082-1.44353-.082-3.65803zm13.99239-6.74193q-1.71145 0-3.48306 1.70599v12.24266h-2.21997v-15.8843h1.95204l.21325 2.10516q.62881-.9733 1.35605-1.52008.72723-.5468 1.192-.66709.66709-.1859 1.26856-.1859t1.50914.24058l-.20231 2.12155q-.67802-.15857-1.5857-.15857zm16.0702 11.43887l.66709 1.80442q-1.85363.97328-5.08516.97328-1.90831 0-2.80504-.29526-2.28012-.77098-2.99095-2.63007-.49211-1.2959-.57413-2.78864-.0765-1.4982-.0765-2.52617t.0492-2.00672q.0547-.97876.26246-1.88644.20778-.90767.63428-1.68958.42649-.78191 1.15919-1.36698 1.59117-1.23028 4.56571-1.23028 2.19263 0 4.03532.63975.49211.15857.74364.3062l-.66709 1.97938q-2.55898-.98969-4.19389-.98969-1.64037 0-2.40588.37182-.76551.37729-1.192 1.13733-.72177 1.30683-.72177 4.8063 0 1.39978.093 2.5535.093 1.15374.46477 1.98486.78738 1.70599 3.25341 1.70599 2.46056 0 4.78442-.853zm13.09565-11.57557q-2.6574 0-5.27653 1.53649v12.54886h-2.21451V48.24025l2.16529-.21325v8.68851q1.37245-1.1756 3.57602-1.69505.88033-.21325 2.08327-.21325 1.20295 0 2.11062.2734t1.43806.87486q.96235 1.08265.96235 3.9369v11.06706h-2.24184v-10.6679q0-1.91924-.37729-2.47697-.37182-.55226-.8858-.74363-.51398-.19685-1.33964-.19685z" class="slogan-text-1" data-fill-palette-color="secondary" opacity="1"/></g><path fill="#0063db" stroke="transparent" d="M210.137 81.986V19.45H1.837v208.3h208.3v-62.536h-3.504v59.032H5.341V22.954h201.292v59.032z" data-fill-palette-color="primary"/></g></svg>