<svg xmlns="http://www.w3.org/2000/svg" role="img" viewBox="-1.16 -1.16 60.52 18.14"><g transform="translate(-50.18 -117.91)"><path fill="#50285a" stroke-width=".265" d="M95.12927 131.74132c0 1.19459-.67522 1.41234-1.24381 1.41234-.56833 0-1.24354-.21775-1.24354-1.41234v-3.85577c0-.75618.0048-1.57824.0098-2.21668a10.96433 10.96433 0 0 1-2.42412.70167v.35825c1.02712.17674 1.0848.25214 1.0848 1.37583v3.6158c0 1.21946-.10954 1.30783-1.21788 1.43324v.4191h11.45566v-.4191c-1.12474-.12541-1.24354-.20849-1.24354-1.43854v-3.82957c0-.75618.005-1.57824.009-2.21668a10.96222 10.96222 0 0 1-2.42385.70167v.35825c1.02712.17674 1.08453.25214 1.08453 1.37583v3.6367c0 1.19459-.68448 1.41234-1.261 1.41234-.57653 0-1.261-.21775-1.261-1.41234v-7.36865c0-.92445.0093-1.76292.01401-2.49422a11.19796 11.19796 0 0 1-2.5347.6006v.39317c1.10701.14605 1.19565.25241 1.19565 1.41923v7.44987z" class="cls-3"/><path fill="#50285a" stroke-width=".265" d="M66.0124 126.87246a7.99304 7.99304 0 0 0 .04233-.41619l-2.11535 2.11481-2.72388-2.72362 2.72388-2.72389 2.11535 2.11482q-.01588-.20955-.04233-.41646l-1.88595-1.88568.9533-.95303a7.80203 7.80203 0 0 0-.1368-.23786l-1.00356 1.00356-2.72389-2.72362 1.00357-1.00356a8.76591 8.76591 0 0 0-.2376-.13653l-.95303.95303-1.88568-1.88595a8.28728 8.28728 0 0 0-.41672-.0423l2.11534 2.11508-2.72388 2.72415-2.72415-2.72389 2.11534-2.11534q-.20981.0159-.41672.0423l-1.88568 1.88569-.95303-.95303c-.08017.0444-.15955.0897-.2376.13652l1.00357 1.00357-2.72389 2.72415-1.00383-1.00357c-.0471.0783-.09208.1577-.13652.23786l.95303.95303-1.88569 1.88569q-.02646.2069-.0426.41645l2.1156-2.11534 2.7239 2.72415-2.7239 2.72362-2.1156-2.11508a7.94384 7.94384 0 0 0 .0426.41646l1.88569 1.88568-.95303.95356c.04445.0796.08943.15928.13652.23707l1.00383-1.00357 2.72389 2.72415-1.00383 1.00383c.07832.0471.15769.0921.2376.13653l.95329-.95356 1.88595 1.88621q.20664.0262.41672.0421l-2.11561-2.11508 2.72415-2.72415 2.72388 2.72415-2.1156 2.11535q.2098-.0159.41671-.0421l1.88595-1.88622.95303.95356c.08017-.0444.15954-.0894.2376-.13652l-1.00357-1.00383 2.72389-2.72415 1.00383 1.00356c.04683-.078.09207-.15769.13652-.23707l-.9533-.95355zm-4.98396-6.66036l2.72389 2.72415-2.72389 2.72388-2.72388-2.72362zm-.18706 5.63536l-2.72388 2.72362-2.72415-2.72362 2.72415-2.72389zm-8.35898-2.91095l2.72389-2.72441 2.72388 2.72415-2.72388 2.72388zm2.72389 8.54605l-2.72389-2.72442 2.72389-2.72362 2.72388 2.72362zm5.82215 0l-2.72388-2.72442 2.72388-2.72362 2.72389 2.72362z" class="cls-3" display="inline"/><path fill="#50285a" stroke-width=".265" d="M108.23011 132.47765a1.20994 1.20994 0 0 1-.61251.18945c-.32253 0-.6186-.25639-.6186-1.07871v-3.34354c0-.95171-.254-1.54781-.86307-2.07804a2.37305 2.37305 0 0 0-1.43219-.46275c-.9316.19764-2.01268.86571-2.51089 1.23163-.3392.24262-.54055.43603-.54055.65537a.80354.80354 0 0 0 .73475.73449.45561.45561 0 0 0 .46514-.37307 3.65548 3.65548 0 0 1 .47704-1.13929 1.025 1.025 0 0 1 .81624-.38259c.92816 0 1.55972.75301 1.55972 2.01189v.40058c-.40746.3183-1.71397.75856-2.75881 1.12025-.93345.32147-1.39621.86307-1.39621 1.71a2.11058 2.11058 0 0 0 2.09868 2.11138c.50985 0 1.38985-.66305 2.07751-1.13507a1.55813 1.55813 0 0 0 .4146.79481 1.25942 1.25942 0 0 0 .82127.34026l1.42583-.88318zm-2.53471-.34528a2.21959 2.21959 0 0 1-1.42981.62654 1.2835 1.2835 0 0 1-1.27661-1.35044c0-.64902.41116-.98478 1.05886-1.27582.42519-.19076 1.29222-.55668 1.65735-.75115-.00026.85328-.01 1.91611-.01 2.75087" class="cls-3"/><path fill="#50285a" stroke-width=".265" d="M99.54887 124.81823a.88874.88874 0 0 0 .87656-.88424.87127.87127 0 0 0-.85884-.91546.90064.90064 0 0 0-.90196.91546.91387.91387 0 0 0 .88423.88424" class="cls-3"/><path fill="#50285a" stroke-width=".265" d="M78.89205 130.72611a7.43744 7.43744 0 0 1-.87868 1.53062c-.4027.5162-.59849.67548-1.61475.67548h-1.67138c-.91148-.0132-1.3237-.10028-1.3237-1.32265v-3.69465h2.01876c1.22952 0 1.36605.17675 1.61476 1.43881h.46275v-3.55415h-.46275c-.2122 1.19645-.31936 1.45203-1.61105 1.45203h-2.02248v-3.95605c0-.50773.03545-.56065.5641-.56065h1.74413c1.05542 0 1.41023.10028 1.70656.65961a6.1415 6.1415 0 0 1 .53472 1.35678l.45482-.0741c-.06588-.82339-.13652-2.1344-.14949-2.62308-.245.0225-.89164.0352-2.5146.0352h-5.29775v.41936c1.3388.1614 1.4957.25453 1.4957 1.81266v7.08687c0 1.44859-.11907 1.59808-1.73859 1.74572v.4191h8.43545c.16695-.52996.60193-2.23652.70326-2.72891z" class="cls-3" display="inline"/><path fill="#50285a" stroke-width=".265" d="M84.0038 125.70406c-.86466 0-1.64888 1.00462-2.21536 1.87616.0095-.60193.0095-1.42161.01402-1.93384a9.153 9.153 0 0 1-2.3868.72866v.37068c.99166.14737 1.04325.21511 1.04325 1.37107v3.64199c0 1.18586-.09684 1.27423-1.18586 1.39462v.4191h3.94044v-.4191c-1.33668-.12938-1.42505-.21749-1.42505-1.40732v-3.37291c.40746-.89667 1.03293-1.4015 1.39912-1.4015.31803 0 .53022.17648.79507.44133a.33285.33285 0 0 0 .4453.0262 1.14803 1.14803 0 0 0 .558-.92921c0-.41408-.36618-.80592-.98213-.80592" class="cls-3"/><path fill="#50285a" stroke-width=".265" d="M87.8093 128.98912c-.9517-.45482-1.49198-.81253-1.49198-1.60099a1.07527 1.07527 0 0 1 1.11416-1.16232c1.00674 0 1.52294.63606 1.84097 1.71715l.43682-.10954c-.07435-.38655-.2077-1.51368-.25108-1.91399a9.36202 9.36202 0 0 0-1.63936-.21537c-1.5994 0-2.67124.97525-2.66647 2.23202.005 1.2483.98795 1.80419 2.16826 2.40004.91757.46408 1.40414.88 1.40414 1.6891a1.1864 1.1864 0 0 1-1.25571 1.22475c-1.21788 0-1.85023-.90461-2.15874-2.00686l-.4326.0788c.06616.54557.2392 1.55972.32756 2.01084a4.6347 4.6347 0 0 0 1.99893.45217c1.37213 0 2.79956-.84455 2.79956-2.41856 0-1.14194-.75036-1.68116-2.19446-2.37728" class="cls-3"/><path fill="#50285a" stroke-width=".265" d="M91.88442 124.81823a.88847.88847 0 0 0 .8763-.88424.871.871 0 0 0-.85858-.91546.90064.90064 0 0 0-.9017.91546.91387.91387 0 0 0 .88397.88424" class="cls-3"/></g></svg>