<svg id="Capa_1" data-name="Capa 1" xmlns="http://www.w3.org/2000/svg" xmlns:xlink="http://www.w3.org/1999/xlink" viewBox="0 0 220 60">
  <defs>
    <style>
      .cls-1 {
        fill: none;
      }

      .cls-2 {
        clip-path: url(#clip-path);
      }

      .cls-3 {
        fill: #50285a;
      }
    </style>
    <clipPath id="clip-path">
      <rect class="cls-1" width="220" height="60"/>
    </clipPath>
  </defs>
  <g>
    <g class="cls-2">
      <path class="cls-3" d="M108.519,48.439a28.1102,28.1102,0,0,1-3.321,5.785c-1.522,1.951-2.262,2.553-6.103,2.553H92.778c-3.445-.05-5.003-.379-5.003-4.999V37.814h7.63c4.647,0,5.163.668,6.103,5.438h1.749V29.819h-1.749c-.802,4.522-1.207,5.488-6.089,5.488H87.775V20.355c0-1.919.134-2.119,2.132-2.119h6.592c3.989,0,5.33.379,6.45,2.493a23.21249,23.21249,0,0,1,2.021,5.128l1.719-.28c-.249-3.112-.516-8.067-.565-9.914-.926.085-3.37.133-9.504.133H76.597v1.585c5.06.61,5.653.962,5.653,6.851V51.017c0,5.475-.45,6.04-6.571,6.598v1.584h31.882c.631-2.003,2.275-8.453,2.658-10.314Z"/>
    </g>
    <g class="cls-2">
      <path class="cls-3" d="M127.839,29.458c-3.268,0-6.232,3.797-8.373,7.091.036-2.275.036-5.373.053-7.309a34.59382,34.59382,0,0,1-9.021,2.754v1.401c3.748.557,3.943.813,3.943,5.182V52.342c0,4.482-.366,4.816-4.482,5.271v1.584h14.893V57.613c-5.052-.489-5.386-.822-5.386-5.319V39.546c1.54-3.389,3.904-5.297,5.288-5.297,1.202,0,2.004.667,3.005,1.668a1.25814,1.25814,0,0,0,1.683.099,4.33884,4.33884,0,0,0,2.109-3.512c0-1.565-1.384-3.046-3.712-3.046"/>
    </g>
    <g class="cls-2">
      <path class="cls-3" d="M142.222,41.874c-3.597-1.719-5.639-3.071-5.639-6.051a4.06419,4.06419,0,0,1,4.211-4.393c3.805,0,5.756,2.404,6.958,6.49l1.651-.414c-.281-1.461-.785-5.721-.949-7.234a35.38428,35.38428,0,0,0-6.196-.814c-6.045,0-10.096,3.686-10.078,8.436.019,4.718,3.734,6.819,8.195,9.071,3.468,1.754,5.307,3.326,5.307,6.384a4.48438,4.48438,0,0,1-4.746,4.629c-4.603,0-6.993-3.419-8.159-7.585l-1.635.298c.25,2.062.904,5.895,1.238,7.6A17.51736,17.51736,0,0,0,139.935,60c5.186,0,10.581-3.192,10.581-9.141,0-4.316-2.836-6.354-8.294-8.985"/>
    </g>
    <g class="cls-2">
      <path class="cls-3" d="M157.624,26.11a3.358,3.358,0,0,0,3.312-3.342,3.29186,3.29186,0,0,0-3.245-3.46,3.40357,3.40357,0,0,0-3.408,3.46,3.45373,3.45373,0,0,0,3.341,3.342"/>
    </g>
    <g class="cls-2">
      <path class="cls-3" d="M186.592,26.11a3.35884,3.35884,0,0,0,3.313-3.342,3.29264,3.29264,0,0,0-3.246-3.46,3.40377,3.40377,0,0,0-3.409,3.46,3.45389,3.45389,0,0,0,3.342,3.342"/>
    </g>
    <g class="cls-2">
      <path class="cls-3" d="M219.403,55.059a4.57349,4.57349,0,0,1-2.315.716c-1.219,0-2.338-.969-2.338-4.077V39.061c0-3.597-.96-5.85-3.262-7.854a8.96866,8.96866,0,0,0-5.413-1.749c-3.521.747-7.607,3.272-9.49,4.655-1.282.917-2.043,1.648-2.043,2.477a3.03746,3.03746,0,0,0,2.777,2.776,1.72245,1.72245,0,0,0,1.758-1.41,13.81571,13.81571,0,0,1,1.803-4.306,3.87421,3.87421,0,0,1,3.085-1.446c3.508,0,5.895,2.846,5.895,7.604v1.514c-1.54,1.203-6.478,2.867-10.427,4.234-3.528,1.215-5.277,3.262-5.277,6.463a7.97721,7.97721,0,0,0,7.932,7.98c1.927,0,5.253-2.506,7.852-4.29a5.889,5.889,0,0,0,1.567,3.004,4.75949,4.75949,0,0,0,3.104,1.286L220,56.661Zm-9.58-1.305a8.389,8.389,0,0,1-5.404,2.368,4.85123,4.85123,0,0,1-4.825-5.104c0-2.453,1.554-3.722,4.002-4.822,1.607-.721,4.884-2.104,6.264-2.839-.001,3.225-.037,7.242-.037,10.397"/>
    </g>
    <g class="cls-2">
      <path class="cls-3" d="M169.888,52.276c0,4.515-2.552,5.338-4.701,5.338-2.148,0-4.7-.823-4.7-5.338V37.703c0-2.858.018-5.965.037-8.378a41.44051,41.44051,0,0,1-9.162,2.652v1.354c3.882.668,4.1.953,4.1,5.2V52.197c0,4.609-.414,4.943-4.603,5.417v1.584h43.297V57.614c-4.251-.474-4.7-.788-4.7-5.437V37.703c0-2.858.017-5.965.035-8.378a41.43186,41.43186,0,0,1-9.161,2.652v1.354c3.882.668,4.099.953,4.099,5.2V52.276c0,4.515-2.587,5.338-4.766,5.338s-4.766-.823-4.766-5.338V24.426c0-3.494.035-6.663.053-9.427a42.32288,42.32288,0,0,1-9.58,2.27v1.486c4.184.552,4.519.954,4.519,5.364V52.276Z"/>
    </g>
    <g class="cls-2">
      <path class="cls-3" d="M59.84,33.874c.067-.52.12-1.046.16-1.573l-7.995,7.993L41.71,30,52.005,19.705,60,27.698q-.06-.792-.16-1.574l-7.128-7.127,3.603-3.602c-.168-.303-.339-.603-.517-.899l-3.793,3.793L41.71,7.995l3.793-3.793c-.296-.177-.596-.348-.898-.516L41.003,7.288,33.876.16C33.355.093,32.83.041,32.301,0l7.995,7.994L30.001,18.29,19.705,7.995,27.7,0q-.7935.06-1.575.16L18.998,7.287,15.396,3.685c-.303.168-.603.339-.898.516l3.793,3.793L7.996,18.29,4.202,14.497c-.178.296-.348.596-.516.899l3.602,3.602L.161,26.125Q.0605,26.9065,0,27.699l7.996-7.995L18.291,30,7.996,40.294,0,32.3c.04.528.094,1.055.161,1.574l7.127,7.127L3.686,44.605c.168.301.338.602.516.896l3.794-3.793L18.291,52.004l-3.794,3.794c.296.178.596.348.898.516l3.603-3.604,7.128,7.129q.7815.099,1.575.159l-7.996-7.994L30.001,41.708,40.296,52.004,32.3,59.999q.7935-.06,1.575-.159l7.128-7.129,3.602,3.604c.303-.168.603-.338.898-.516L41.71,52.005,52.005,41.709l3.794,3.793c.177-.295.348-.596.516-.896l-3.603-3.604ZM41.003,8.701,51.298,18.997,41.003,29.292,30.708,18.998ZM40.296,30,30.001,40.294,19.705,30,30.001,19.705ZM8.703,18.998,18.998,8.701,29.293,18.997,18.998,29.292Zm10.295,32.3L8.703,41.001,18.998,30.707,29.293,41.001Zm22.005,0L30.708,41.001,41.003,30.707,51.298,41.001Z"/>
    </g>
  </g>
</svg>
