<?xml version="1.0" encoding="UTF-8" standalone="no"?>
<svg
   xmlns:dc="http://purl.org/dc/elements/1.1/"
   xmlns:cc="http://creativecommons.org/ns#"
   xmlns:rdf="http://www.w3.org/1999/02/22-rdf-syntax-ns#"
   xmlns:svg="http://www.w3.org/2000/svg"
   xmlns="http://www.w3.org/2000/svg"
   xmlns:sodipodi="http://sodipodi.sourceforge.net/DTD/sodipodi-0.dtd"
   xmlns:inkscape="http://www.inkscape.org/namespaces/inkscape"
   width="800"
   height="88.022163"
   viewBox="0 0 800 88.022163"
   version="1.1"
   id="svg20"
   sodipodi:docname="Facebook Group Logo.svg"
   inkscape:version="0.92.4 (5da689c313, 2019-01-14)">
  <metadata
     id="metadata26">
    <rdf:RDF>
      <cc:Work
         rdf:about="">
        <dc:format>image/svg+xml</dc:format>
        <dc:type
           rdf:resource="http://purl.org/dc/dcmitype/StillImage" />
        <dc:title />
      </cc:Work>
    </rdf:RDF>
  </metadata>
  <defs
     id="defs24" />
  <sodipodi:namedview
     pagecolor="#ffffff"
     bordercolor="#666666"
     borderopacity="1"
     objecttolerance="10"
     gridtolerance="10"
     guidetolerance="10"
     inkscape:pageopacity="0"
     inkscape:pageshadow="2"
     inkscape:window-width="1366"
     inkscape:window-height="705"
     id="namedview22"
     showgrid="false"
     fit-margin-top="0"
     fit-margin-left="0"
     fit-margin-right="0"
     fit-margin-bottom="0"
     inkscape:zoom="1.2162237"
     inkscape:cx="438.97473"
     inkscape:cy="93.958658"
     inkscape:window-x="-8"
     inkscape:window-y="-8"
     inkscape:window-maximized="1"
     inkscape:current-layer="svg20" />
  <g
     id="g3745"
     style="fill:#687b81;fill-opacity:1">
    <path
       d="m 63.475203,2.788922 v 11.154776 c 0,0.727251 -0.485438,1.211573 -1.212051,1.211573 H 14.414033 v 22.793868 h 39.492266 c 0.726616,0 1.210514,0.485859 1.210514,1.213111 v 11.154773 c 0,0.727252 -0.483895,1.211574 -1.210514,1.211574 H 14.414033 v 33.705715 c 0,0.727248 -0.48236,1.211574 -1.210515,1.211574 H 1.2105146 C 0.48389856,86.445886 0,85.96156 0,85.234312 V 2.788922 C 0,2.061671 0.48389856,1.575813 1.2105146,1.575813 H 62.263152 c 0.726616,0 1.212051,0.485858 1.212051,1.213109"
       id="Fill-11"
       inkscape:connector-curvature="0"
       style="fill:#687b81;fill-opacity:1;fill-rule:evenodd;stroke:none;stroke-width:6.60233116" />
    <path
       d="M 135.73078,50.558108 C 131.30964,38.313226 126.4046,26.066806 121.37513,14.912034 h -2.84502 c -5.02794,11.154772 -9.99442,23.401192 -14.41557,35.646074 z m 25.37779,35.887468 h -13.20352 c -0.72661,0 -1.21051,-0.364381 -1.39178,-1.091648 -1.75739,-6.971158 -3.87733,-14.305166 -6.2999,-21.702222 H 99.693397 c -2.422563,7.397056 -4.544038,14.731064 -6.239988,21.702222 -0.181228,0.727254 -0.665165,1.091648 -1.391788,1.091648 H 79.342006 c -0.847976,0 -1.333414,-0.484347 -1.090691,-1.333037 7.631773,-27.037451 19.260699,-56.862441 31.010985,-81.959528 0.54535,-1.153147 1.21205,-1.575969 2.36265,-1.575969 h 17.20068 c 1.15059,0 1.8173,0.422822 2.36265,1.575969 11.87165,25.035586 23.31931,54.922077 31.01099,81.959528 0.24269,0.848717 -0.24269,1.333037 -1.0907,1.333037 z"
       id="Fill-12"
       inkscape:connector-curvature="0"
       style="fill:#687b81;fill-opacity:1;fill-rule:evenodd;stroke:none;stroke-width:6.60233116" />
    <path
       d="M 182.78984,44.739022 C 182.78984,18.428823 200.11187,0 224.82449,0 h 1.81578 c 15.50626,0 27.49927,7.881373 33.85754,19.277538 0.424,0.727254 0.30264,1.334577 -0.424,1.697432 l -10.6596,5.273726 c -0.7266,0.364394 -1.63603,0.364394 -2.11992,-0.544285 -4.48106,-7.75991 -11.20495,-11.882025 -21.13792,-11.882025 h -1.81731 c -15.56617,0 -26.28568,12.366347 -26.28568,30.310849 0,18.002929 10.53824,30.067922 26.28568,30.067922 h 1.81731 c 10.17569,0 16.11152,-3.456366 20.65402,-8.730091 0.60524,-0.66729 1.27195,-0.787215 1.99858,-0.424332 l 10.96221,5.335226 c 0.42401,0.241381 0.60525,0.544296 0.60525,0.847178 0,0.304433 -0.12137,0.547333 -0.36254,0.910217 -6.72236,9.820202 -18.83672,15.882672 -33.61483,15.882672 h -1.8173 c -25.13662,0 -41.79194,-17.27721 -41.79194,-43.282978"
       id="Fill-13"
       inkscape:connector-curvature="0"
       style="fill:#687b81;fill-opacity:1;fill-rule:evenodd;stroke:none;stroke-width:6.60233116" />
    <path
       d="m 356.98118,74.079688 v 11.154776 c 0,0.727253 -0.48539,1.211573 -1.21203,1.211573 h -63.59656 c -0.72661,0 -1.21206,-0.484346 -1.21206,-1.211573 V 2.789077 c 0,-0.727251 0.48539,-1.213109 1.21206,-1.213109 h 62.50587 c 0.72812,0 1.21205,0.485858 1.21205,1.213109 v 11.154774 c 0,0.727253 -0.48389,1.211573 -1.21205,1.211573 h -49.30235 v 22.06508 h 40.09597 c 0.72661,0 1.21205,0.485859 1.21205,1.213111 v 11.033309 c 0,0.72725 -0.48546,1.213111 -1.21205,1.213111 h -40.09597 v 22.186547 h 50.39304 c 0.72661,0 1.21203,0.484347 1.21203,1.213106"
       id="Fill-14"
       inkscape:connector-curvature="0"
       style="fill:#687b81;fill-opacity:1;fill-rule:evenodd;stroke:none;stroke-width:6.60233116" />
    <path
       d="m 451.7064,61.893695 c 0,-7.879836 -5.20919,-11.457666 -16.65685,-11.457666 h -28.52699 v 22.793866 h 28.52699 c 11.63045,0 16.65685,-3.394859 16.65685,-11.3362 M 430.99248,14.79149 h -24.46992 v 22.79387 h 24.46992 c 10.96222,0 15.98862,-3.576293 15.98862,-11.396166 0,-7.82141 -5.0264,-11.397704 -15.98862,-11.397704 m 35.49203,48.37528 c 0,14.852529 -11.38622,23.279732 -31.49488,23.279732 h -41.67059 c -0.72661,0 -1.21205,-0.485868 -1.21205,-1.211577 V 2.789538 c 0,-0.728789 0.48549,-1.213109 1.21205,-1.213109 h 37.97605 c 19.56334,0 30.22294,7.759909 30.22294,21.945152 0,9.335877 -4.72379,15.458318 -14.29267,18.307359 13.4447,2.849042 19.25915,10.911844 19.25915,21.33783"
       id="Fill-15"
       inkscape:connector-curvature="0"
       style="fill:#687b81;fill-opacity:1;fill-rule:evenodd;stroke:none;stroke-width:6.60233116" />
    <path
       d="m 537.28579,74.201309 c 17.38347,0 28.3457,-11.943527 28.3457,-30.189385 0,-18.247396 -10.96223,-30.190922 -28.3457,-30.190922 h -1.81731 c -17.38349,0 -28.3457,11.943526 -28.3457,30.190922 0,18.245858 10.96221,30.189385 28.3457,30.189385 z M 491.86077,44.011924 c 0,-25.582946 16.95796,-44.01177 43.60771,-44.01177 h 1.81731 c 26.64976,0 43.60925,18.428824 43.60925,44.01177 0,25.581407 -16.95949,44.010236 -43.60925,44.010236 h -1.81731 c -26.64975,0 -43.60771,-18.428829 -43.60771,-44.010236 z"
       id="Fill-16"
       inkscape:connector-curvature="0"
       style="fill:#687b81;fill-opacity:1;fill-rule:evenodd;stroke:none;stroke-width:6.60233116" />
    <path
       d="m 650.90963,74.201309 c 17.38194,0 28.34419,-11.943527 28.34419,-30.189385 0,-18.247396 -10.96225,-30.190922 -28.34419,-30.190922 h -1.81885 c -17.38195,0 -28.34417,11.943526 -28.34417,30.190922 0,18.245858 10.96222,30.189385 28.34417,30.189385 z M 605.48307,44.011924 c 0,-25.582946 16.95949,-44.01177 43.60771,-44.01177 h 1.81885 c 26.64976,0 43.60923,18.428824 43.60923,44.01177 0,25.581407 -16.95947,44.010236 -43.60923,44.010236 h -1.81885 c -26.64822,0 -43.60771,-18.428829 -43.60771,-44.010236 z"
       id="Fill-17"
       inkscape:connector-curvature="0"
       style="fill:#687b81;fill-opacity:1;fill-rule:evenodd;stroke:none;stroke-width:6.60233116" />
    <path
       d="M 798.99395,86.446037 H 783.3679 c -1.03083,0 -1.45326,-0.242906 -2.12155,-1.030146 C 770.28571,72.503724 757.32334,59.651517 746.29968,50.194174 h -7.02493 v 35.04029 c 0,0.727253 -0.48395,1.211573 -1.21205,1.211573 h -11.99302 c -0.72506,0 -1.21053,-0.484346 -1.21053,-1.211573 V 2.789077 c 0,-0.727251 0.48528,-1.213109 1.21053,-1.213109 h 11.99302 c 0.7281,0 1.21205,0.485858 1.21205,1.213109 v 33.462784 h 7.1463 C 758.2328,25.582946 769.13512,14.063778 778.03731,2.486184 778.64272,1.697431 779.128,1.575968 779.85459,1.575968 h 14.77813 c 0.72816,0 1.0907,0.364394 1.0907,0.850253 0,0.241387 -0.12134,0.544285 -0.42387,0.90868 -13.02224,16.064104 -25.9216,29.219202 -37.85467,39.403796 15.01926,12.730741 29.25355,26.914444 42.21742,42.191335 0.66368,0.788752 0.30107,1.516005 -0.66821,1.516005"
       id="Fill-18"
       inkscape:connector-curvature="0"
       style="fill:#687b81;fill-opacity:1;fill-rule:evenodd;stroke:none;stroke-width:6.60233116" />
  </g>
</svg>
