<svg id="content" xmlns="http://www.w3.org/2000/svg" viewBox="0 0 550 289"><defs><style>.cls-1{fill:#4095d1;}.cls-2{fill:#ef4637;}.cls-3{fill:#ffc20e;}.cls-4{fill:#30b455;}.cls-5{fill:none;}</style></defs><title>facets</title><path class="cls-1" d="M11.93407,77.47981c0-36.58693,30.75928-66.37483,67.34683-66.37483,20.23653,0,34.64479,7.93282,45.49112,18.29377l-12.78909,12.7891A46.24031,46.24031,0,0,0,79.2809,29.237c-26.712,0-47.59568,21.5315-47.59568,48.24285,0,26.712,20.8837,48.24347,47.59568,48.24347,17.32177,0,27.19735-6.96144,33.511-13.27509,5.18109-5.18048,8.58-12.62731,9.87557-22.82646H79.2809V71.49037h61.03194a59.07173,59.07173,0,0,1,.972,11.33233c0,13.59868-3.72373,30.43507-15.70385,42.4152-11.6553,12.1413-26.55017,18.61674-46.30009,18.61674C42.69335,143.85464,11.93407,114.06736,11.93407,77.47981Z"/><path class="cls-2" d="M190.609,58.37707c-23.63665,0-42.9012,17.96957-42.9012,42.73879,0,24.60742,19.26453,42.73878,42.90119,42.73878,23.63544,0,42.9-18.13136,42.9-42.73878C233.50894,76.34664,214.24442,58.37707,190.609,58.37707Zm0,68.64116c-12.95211,0-24.122-10.68454-24.122-25.90238,0-15.37964,11.16992-25.90239,24.122-25.90239,12.95089,0,24.12081,10.52275,24.12081,25.90239C214.7298,116.3337,203.55988,127.01824,190.609,127.01823Z"/><path class="cls-3" d="M284.19662,58.37707c-23.63665,0-42.90119,17.96957-42.90119,42.73879,0,24.60742,19.26454,42.73878,42.90119,42.73878,23.63541,0,42.90119-18.13136,42.90119-42.73878C327.09781,76.34664,307.832,58.37707,284.19662,58.37707Zm0,68.64116c-12.95089,0-24.122-10.68454-24.122-25.90238,0-15.37964,11.17118-25.90239,24.122-25.90239s24.12079,10.52275,24.12079,25.90239C308.31741,116.3337,297.14749,127.01824,284.19662,127.01823Z"/><path class="cls-1" d="M399.07,60.967v6.96144h-.64719c-4.20911-5.01868-12.30371-9.55137-22.50287-9.55137-21.36908,0-40.95843,18.77915-40.95843,42.90058,0,23.96025,19.58935,42.577,40.95843,42.577,10.19916,0,18.29376-4.53268,22.50287-9.71316H399.07v6.15185c0,16.351-8.74179,25.09281-22.82645,25.09281-11.4935,0-18.61737-8.25641-21.53088-15.21723l-16.351,6.799c4.69449,11.33234,17.16,25.2552,37.8819,25.2552,22.01749,0,40.63486-12.9515,40.63486-44.51974V60.967Zm-21.53089,66.05123c-12.95089,0-23.79846-10.84632-23.79846-25.74058,0-15.05544,10.84757-26.06418,23.79846-26.06418,12.7891,0,22.82645,11.00874,22.82645,26.06418,0,14.89426-10.03741,25.74059-22.82651,25.74059Z"/><rect class="cls-4" x="429.82922" y="15.63828" width="18.77914" height="125.62643"/><path class="cls-2" d="M500.08957,127.01824c-9.552,0-16.351-4.37089-20.72192-12.95088l57.14767-23.636-1.94275-4.85689c-3.562-9.55137-14.40826-27.19735-36.58755-27.19735-22.01749,0-40.31,17.3224-40.31,42.73879,0,23.95962,18.13074,42.73878,42.41458,42.73878a42.51282,42.51282,0,0,0,35.61554-18.94095l-14.57-9.71316C516.27881,122.32376,509.64157,127.01824,500.08957,127.01824ZM498.6322,74.88988c7.44745,0,13.76111,3.72371,15.86566,9.066l-38.20547,15.865C475.80573,83.30808,489.08145,74.88988,498.6322,74.88988Z"/><rect class="cls-5" x="11.02012" y="11" width="526.1177" height="172.00002"/><path d="M131.50342,209.94434h47.07617V221.5459H145.20947v15.18457H174.459v11.4668H145.20947v27.68164H131.50342Z"/><path d="M205.8457,246.18164a20.15076,20.15076,0,0,0,5.09864-1.12012q2.75244-1.16308,2.75293-3.62793a4.29085,4.29085,0,0,0-2.11182-4.14355,13.35349,13.35349,0,0,0-6.19727-1.1416q-4.5857,0-6.49267,2.23926a9.23152,9.23152,0,0,0-1.81641,4.47949H184.76123a18.68121,18.68121,0,0,1,3.59863-10.52637q5.08374-6.4497,17.45508-6.4502a31.12582,31.12582,0,0,1,14.30567,3.18067q6.25268,3.18018,6.25244,12.00391v22.39648q0,2.32909.08984,5.64355a7.08617,7.08617,0,0,0,.76123,3.4043,4.56737,4.56737,0,0,0,1.88135,1.47852v1.88086H215.21973a14.22271,14.22271,0,0,1-.80616-2.77735q-.22411-1.29784-.35839-2.95605a26.35973,26.35973,0,0,1-6.12745,4.88281,18.51959,18.51959,0,0,1-9.37109,2.373,16.17291,16.17291,0,0,1-11.01562-3.78418q-4.3484-3.78516-4.34766-10.72754,0-9.00439,6.99414-13.03516,3.83569-2.19433,11.28125-3.13574Zm7.80567,5.957a14.07482,14.07482,0,0,1-2.47461,1.23242,20.92763,20.92763,0,0,1-3.42822.873l-2.90577.53809a19.10888,19.10888,0,0,0-5.86767,1.74609,5.83075,5.83075,0,0,0-3.01563,5.41992q0,3.271,1.8418,4.72559a6.99946,6.99946,0,0,0,4.48,1.45605,13.34321,13.34321,0,0,0,7.709-2.41894q3.52589-2.41846,3.66114-8.82422Z"/><path d="M266.731,244.56934a11.329,11.329,0,0,0-1.84082-4.92774q-2.15625-2.95605-6.69043-2.95605-6.46656,0-8.84571,6.40527a26.59161,26.59161,0,0,0-1.25683,9.02539,24.44432,24.44432,0,0,0,1.25683,8.62305q2.28955,6.09228,8.6211,6.09179,4.49048,0,6.376-2.41894a12.02329,12.02329,0,0,0,2.29-6.27051h13.03467a21.35257,21.35257,0,0,1-4.21484,11.01856q-6.00879,8.376-17.79981,8.376-11.79272,0-17.35205-6.9873-5.55981-6.98732-5.56006-18.12012,0-12.5625,6.14209-19.55078,6.14283-6.9873,16.94922-6.98731,9.19116,0,15.04248,4.1211,5.85059,4.12208,6.92774,14.55762Z"/><path d="M320.35938,228.044a19.86407,19.86407,0,0,1,8.43652,7.22265,24,24,0,0,1,3.89062,10.09375,62.34571,62.34571,0,0,1,.41993,9.69043h-35.5586q.29591,7.34619,5.10547,10.30176a12.96469,12.96469,0,0,0,7.03809,1.83691,9.9149,9.9149,0,0,0,9.71582-5.59961h13.0332q-.51562,4.34619-4.73242,8.82422-6.55957,7.12207-18.36817,7.12207a26.61121,26.61121,0,0,1-17.19726-6.00683q-7.4502-6.00733-7.4502-19.54688,0-12.68554,6.72559-19.45605,6.7251-6.769,17.459-6.76953A27.80784,27.80784,0,0,1,320.35938,228.044Zm-19.09766,11.02832a13.25878,13.25878,0,0,0-3.40039,7.55761h21.99316q-.34863-5.083-3.40137-7.71484a11.18553,11.18553,0,0,0-7.57128-2.63281Q303.96729,236.28223,301.26172,239.07227Z"/><path d="M334.5459,236.5957v-9.09277h6.80859V213.88672h12.63184v13.61621h7.92773v9.09277h-7.92773v25.80078q0,3.00147.76074,3.74024.76171.73828,4.65918.73926.58155,0,1.23145-.02246.64891-.022,1.27636-.06739v9.541l-6.04687.22363q-9.04834.31349-12.36231-3.13574-2.15039-2.19433-2.15039-6.76367V236.5957Z"/><path d="M380.01074,260.291a8.50877,8.50877,0,0,0,1.75488,4.83789q2.38624,2.55321,8.82129,2.55273a13.51071,13.51071,0,0,0,6.00879-1.11914,3.58656,3.58656,0,0,0,2.22754-3.35938,3.62376,3.62376,0,0,0-1.79394-3.2705q-1.79591-1.11915-13.35547-3.85157-8.32177-2.05956-11.72559-5.15136-3.40429-3.04542-3.40429-8.7793a15.21416,15.21416,0,0,1,5.31933-11.624q5.31885-4.85889,14.96973-4.85938,9.15673,0,14.92578,3.65039,5.7671,3.65185,6.62109,12.60938H397.61426a7.54683,7.54683,0,0,0-1.39258-3.89746q-2.1123-2.59717-7.18652-2.59766-4.17774,0-5.95118,1.29883a3.73706,3.73706,0,0,0-1.77441,3.0459,3.33247,3.33247,0,0,0,1.88672,3.18066q1.88525,1.02978,13.3291,3.53809,7.62744,1.79149,11.43555,5.41992a12.30524,12.30524,0,0,1,3.76269,9.18262,14.82554,14.82554,0,0,1-5.4082,11.84765q-5.40967,4.59082-16.71875,4.59082-11.53564,0-17.03223-4.86035a15.79451,15.79451,0,0,1-5.499-12.38476Z"/></svg>
