<svg id="Layer_1" data-name="Layer 1" xmlns="http://www.w3.org/2000/svg" viewBox="0 0 843 221.5"><defs><style>.cls-1{fill:#036aea;}.cls-2{fill:#2c2c2c;}</style></defs><path class="cls-1" d="M96.98183,3.82942c.234.64911.89285.75636,1.38878,1.04463q8.65418,5.03016,17.32827,10.02611a4.902,4.902,0,0,1,1.39222.93905,6.25317,6.25317,0,0,1-2.00979,1.34288Q70.88744,42.70567,26.65977,68.17055a3.50019,3.50019,0,0,0-2.0716,3.5423q.10251,39.40015.016,78.80068a3.00409,3.00409,0,0,0,1.724,3.0837c5.73342,3.19444,11.38854,6.52925,17.078,9.80282a3.8722,3.8722,0,0,0,1.65567.74254,4.76975,4.76975,0,0,0,.16835-1.97075q.00955-39.07209.00546-78.14418a10.84824,10.84824,0,0,0-.00873-1.31225,1.868,1.868,0,0,1,1.15285-2.078c2.35661-1.275,4.65619-2.65541,6.97762-3.99534q41.571-23.99491,83.12628-48.0171a2.65164,2.65164,0,0,1,3.07973.008q24.1989,14.04395,48.46065,27.97945a2.25268,2.25268,0,0,1,1.37049,2.28945c-.08568,3.11684-.11286,6.2409.0103,9.35523a2.4617,2.4617,0,0,1-1.52131,2.53527q-23.40626,13.44753-46.77324,26.96342c-10.65983,6.15167-21.30612,12.32707-31.99592,18.42625a2.88237,2.88237,0,0,0-1.714,2.91539q.07715,45.31035.03865,90.6209a10.0153,10.0153,0,0,0,.00764,1.14829,1.33291,1.33291,0,0,1-.80486,1.44372q-4.63959,2.62992-9.23928,5.32968a1.43947,1.43947,0,0,1-1.65763-.04425c-2.734-1.60919-5.478-3.2023-8.24537-4.75318a1.44108,1.44108,0,0,1-.887-1.56446,8.606,8.606,0,0,0,.00566-.98426q0-51.54891,0-103.09778c0-.38307.018-.76708-.00318-1.14895a1.11659,1.11659,0,0,1,.66771-1.19286c.39321-.18913.75949-.43409,1.1385-.65292q34.24956-19.774,68.499-39.54835c.47206-.27256.93909-.55383,1.39333-.82209.007-.54509-.44507-.61675-.74218-.78887-6.20049-3.592-12.42607-7.14119-18.59626-10.78426-.93444-.55172-1.49672-.20794-2.21449.20668Q113.88327,65.67955,90.99915,78.8828c-7.81676,4.512-15.61837,9.05069-23.46491,13.51032a2.65213,2.65213,0,0,0-1.547,2.67872q.05772,51.54883.03049,103.09774v1.90088a1.98245,1.98245,0,0,1-1.48181-.51058Q34.82546,182.426,5.10991,165.301a2.32332,2.32332,0,0,1-1.325-2.3298q.0438-51.95928-.00905-103.91855A2.55549,2.55549,0,0,1,5.3444,56.52984Q49.6378,31.01361,93.8931,5.43133A7.57374,7.57374,0,0,0,96.325,3.82942Z"/><path class="cls-2" d="M406.66533,111.13912q0-21.75044.00341-43.50088c.00088-1.99986-.23346-1.77545,1.71609-1.7759q32.51073-.00749,65.02142-.00316c.05473,0,.10949-.00024.16422.00005,1.59946.00851,1.53387-.17085,1.53419,1.47169q.00109,5.335.00024,10.67c0,1.25852-.03536,2.51836.01255,3.775.02791.73161-.25342.98561-.95122.9186-.37959-.03646-.76563-.006-1.14875-.006q-21.67378,0-43.3476,0c-.38312,0-.76944.032-1.14867-.00619-.77979-.07865-1.07775.23169-1.051,1.02469.046,1.36639.01207,2.73547.01207,4.10342-.00012,4.15858-.00838,8.31718.00324,12.47573.0065,2.31839-.25863,2.0417,1.96948,2.043q18.88248.011,37.765.00354c.27366,0,.54733-.003.821.00052,1.37427.0175,1.56587-.33008,1.556,1.47974-.01254,2.29807-.003,4.59626-.003,6.8944,0,2.24344.01122,4.487-.00457,6.7303-.0087,1.23577-.02915,1.25527-1.27825,1.25691q-8.70237.01141-17.40472.00341-10.75481,0-21.50961.00035c-.4378,0-.87588-.00268-1.31337.01a.54333.54333,0,0,0-.59468.61008c.00128.27352-.00613.54706-.00617.8206q-.0006,8.9464.00128,17.89282c.001,1.55574.01006,1.56338,1.65768,1.5636q22.82319.003,45.64635.00435c2.26791.00091,2.02424-.2668,2.02889,1.99323.00918,4.43215-.00445,8.86434.006,13.29648.00457,1.95036-.1742,1.56473-1.63434,1.56507q-33.41376.00788-66.82757.00353c-.32839,0-.6571-.01149-.98509-.00072-.46828.01539-.71312-.18356-.70666-.66849.00581-.43762-.00349-.87543-.00349-1.31316Q406.66519,132.80748,406.66533,111.13912Z"/><path class="cls-2" d="M513.31065,156.45837c1.1358-2.56891,2.14283-4.86277,3.1628-7.15086q18.22116-40.87458,36.44543-81.74775a6.42378,6.42378,0,0,0,.32655-.75122,1.274,1.274,0,0,1,1.45485-.966c6.23906.02992,12.47863.049,18.71721-.0147,1.0498-.01071,1.26353.58652,1.57741,1.28905q6.88782,15.41556,13.78619,30.82638,12.68511,28.35665,25.36151,56.71718a3.36256,3.36256,0,0,1,.57324,1.67325,2.47773,2.47773,0,0,1-1.28334.11881q-9.523.01257-19.046.00241c-1.69861-.00224-1.391.24-2.094-1.4456-2.31342-5.54685-4.62717-11.094-6.86493-16.67151a1.71471,1.71471,0,0,0-1.90176-1.27479c-13.08033.03439-26.16082.01937-39.24123.02676-1.67592.00094-1.3594-.17374-1.98515,1.3373q-3.449,8.32875-6.89713,16.6579c-.64267,1.54393-.3947,1.37069-1.98274,1.37171q-9.35881.006-18.71761.00167Zm36.35634-35.5013h28.52933c-4.754-11.47235-9.44276-22.78747-14.26793-34.4317C559.09375,98.19776,554.40929,109.50762,549.667,120.95707Z"/><path class="cls-2" d="M713.98,88.12853c-1.637-.806-3.27286-1.66366-4.95094-2.42854a47.75769,47.75769,0,0,0-19.33751-4.522,32.35839,32.35839,0,0,0-9.90406,1.11834,13.05768,13.05768,0,0,0-5.13508,2.80669,8.32045,8.32045,0,0,0-2.82459,6.07891,7.00248,7.00248,0,0,0,3.77276,6.62115,31.90542,31.90542,0,0,0,6.3716,2.56944c5.00042,1.60757,10.1758,2.53423,15.23579,3.91174,3.90238,1.0624,7.78776,2.17437,11.57027,3.61655a28.95664,28.95664,0,0,1,8.27264,4.92864,19.50427,19.50427,0,0,1,7.12729,12.52991,25.5682,25.5682,0,0,1-4.42141,19.3113,27.22717,27.22717,0,0,1-8.68919,7.62631,41.34745,41.34745,0,0,1-15.96426,5.14524,73.95511,73.95511,0,0,1-33.62809-3.55857,45.30332,45.30332,0,0,1-11.27532-5.58956c-1.05842-.745-1.062-.76284-.52813-1.95271q3.05259-6.80407,6.12511-13.59924c.12982-.287.18655-.63759.49979-.813.40208-.115.6094.2109.86141.38035a52.27012,52.27012,0,0,0,23.35155,8.48261,43.17455,43.17455,0,0,0,13.71855-.38468,13.85447,13.85447,0,0,0,6.75877-3.13964,7.526,7.526,0,0,0,2.61431-5.29555,6.74317,6.74317,0,0,0-2.46244-5.80928,18.70328,18.70328,0,0,0-6.467-3.455c-4.10469-1.35353-8.32259-2.27839-12.51476-3.30206a144.53336,144.53336,0,0,1-14.62078-4.27867,28.78563,28.78563,0,0,1-8.01364-4.40112,20.46471,20.46471,0,0,1-8.334-14.33c-1.05246-9.6633,1.77723-17.81665,9.50926-24.0004a33.38776,33.38776,0,0,1,9.61788-5.2143,53.77246,53.77246,0,0,1,18.21586-2.88365,65.80215,65.80215,0,0,1,25.93727,4.84629,47.20984,47.20984,0,0,1,5.41593,2.72406c.48319.27872.72478.55629.47028,1.17158-2.04541,4.94518-4.06163,9.90239-6.09405,14.853C714.22532,87.97991,714.10056,88.03058,713.98,88.12853Z"/><path class="cls-1" d="M189.18405,93.90147a5.75067,5.75067,0,0,1,.177,2.03461q.00734,33.40442.03057,66.8088a2.65321,2.65321,0,0,1-1.51465,2.69453q-28.95562,16.6287-57.85668,33.35236a4.3432,4.3432,0,0,1-1.7149.81539,2.35111,2.35111,0,0,1-.20956-1.49481c-.00983-6.89427.02277-13.78882-.03574-20.68259a2.28137,2.28137,0,0,1,1.37171-2.28679c12.5244-7.18525,25.00977-14.43863,37.54958-21.5967a2.8667,2.8667,0,0,0,1.658-2.95331c-.07751-6.29145-.03353-12.58438-.03353-18.87678v-1.93291c-1.864.8833-3.43649,1.91268-5.06556,2.82509-1.71779.96208-3.41214,1.966-5.11685,2.95142q-2.48583,1.437-4.97187,2.87369-2.55732,1.47764-5.115,2.95468-2.48616,1.43652-4.97219,2.87323-2.48767,1.43408-4.97823,2.86314-2.5593,1.47405-5.1167,2.95139-2.46252,1.42031-4.92745,2.84133a2.42479,2.42479,0,0,1-.246-1.57167c-.01008-6.89427.02652-13.78886-.03824-20.68254a2.39471,2.39471,0,0,1,1.44387-2.40646q28.94585-16.64544,57.85091-33.36175C187.90819,94.57416,188.48034,94.28216,189.18405,93.90147Z"/><path class="cls-2" d="M292.04237,111.13648q0-21.75032.00345-43.50063c.00086-1.99891-.23365-1.773,1.71844-1.77348q32.51052-.00756,65.021-.00319c.10945,0,.21894-.00115.32839.00021,1.35511.01681,1.364.01689,1.36641,1.4735q.00843,5.17081.00189,10.34165c0,1.368-.0344,2.73707.01283,4.10336.02534.73425-.25747.9834-.95343.91668-.37959-.03639-.76559-.006-1.14871-.006q-21.75574,0-43.51156.00328c-2.03089.00085-1.81285-.25159-1.81514,1.85809q-.01085,10.09543-.0025,20.19086c0,.383.01193.76624.00152,1.14891-.01251.45929.15768.72306.65767.71.4375-.01145.8756.00146,1.31345.00147q19.04657.00033,38.09314.00485c1.947.0014,1.83849-.33249,1.8405,1.84352q.00614,6.64821.00116,13.29642c-.00008,1.82985.12858,1.70205-1.66377,1.70206q-19.12869,0-38.25734.004c-2.26547.00146-1.9801-.28376-1.98244,2.02537q-.01449,14.28132-.00405,28.56267,0,.41038-.00008.82077c-.00215,1.72193.11671,1.59765-1.59526,1.5976q-8.8665-.00027-17.733-.00207c-1.79385-.00162-1.69236.21539-1.69242-1.65509Q292.04194,132.96886,292.04237,111.13648Z"/><path class="cls-2" d="M798.68444,65.85918H835.9475a9.24874,9.24874,0,0,0,.98426-.00559c.73809-.07944,1.07158.12822,1.06564.971q-.05292,7.54884.00249,15.09814c.00769.92817-.37847,1.05668-1.164,1.05349-5.85469-.0237-11.70963-.0128-17.56449-.01273-3.00953,0-6.019-.00775-9.02852.004-1.18432.00463-1.1872.02446-1.21743,1.13834-.01043.38266-.00193.76582-.00193,1.14875q-.00012,34.62795-.00312,69.25589c-.00048,2.20708.2387,1.94064-1.89507,1.9444q-8.6181.01523-17.23621.00016c-2.12607-.00358-1.88151.25407-1.882-1.95759q-.00746-34.71-.00834-69.42c-.001-2.4471.32915-2.10418-2.048-2.10837q-12.39367-.02182-24.78736-.00561c-.2189,0-.43772.00055-.65662-.00011-1.47-.00448-1.46664.18021-1.46087-1.38175.00385-1.03937.00072-2.07876.00072-3.11815q0-5.4978.00185-10.9956c.003-1.79542-.153-1.60515,1.552-1.60656q9.521-.00789,19.04195-.0021Z"/></svg>