<?xml version="1.0" encoding="UTF-8"?><svg id="a" xmlns="http://www.w3.org/2000/svg" viewBox="0 0 944.18633 711.87508"><defs><style>.b{fill:#0190f4;}.c{fill:#0135d6;}.d{fill:#02cdd7;}</style></defs><g><path d="M427.96589,547.44136c-5.70001,.19995-11.40002,.30005-17.09998,0-3.29999-.19995-4.20001,1.30005-4.40002,4.09998-.29999,2.90002-.09998,6-1.5,9.19995-5.29999-7.30005-11.29999-12.40002-19.70001-14.40002-18.40002-4.30005-38.5,5-48.5,23-7.90002,14.30005-10.79999,29.80005-8.40002,46,2,13.80005,8.20001,25.19995,22.09998,30,14.5,4.90002,28,2.19995,39.40002-8.5,1.5-1.40002,2.5-3.19995,3.70001-4.80005,.40002,.30005,.90002,.69995,1.29999,1-1.09998,7.59998-2,15.19995-5.79999,22.09998-7.70001,13.69995-23.5,15.5-34.09998,3.90002-.70001-.80005-1.29999-1.5-2.5-1.59998-9.09998-1-18.20001-2.09998-28-3.30005,2.59998,10.90002,7.70001,19.40002,16.29999,25.69995,27.09998,19.59998,67.29999,5.69995,76.90002-26.59998,2.70001-9.19995,3.5-18.59998,4.59998-28,3-24.69995,6-49.30005,9.09998-74,.40009-3.2998-.49994-3.8999-3.39996-3.7998h0Zm-41.79999,74.3999c-6.5,4.5-13.59998,6.09998-21,2.40002-7.20001-3.5-9.79999-9.90002-10.09998-17.40002-.5-10.69995,.59998-21.09998,6.5-30.30005,3.70001-5.80005,8.90002-9.5,15.90002-10.59998,11.5-1.69995,20.5,4.80005,22.29999,16.30005,.40002,2.40002,.29999,4.80005,.5,7.40002-.70001,12.40002-2.70001,24.40002-14.10004,32.19995h0Z"/><path d="M534.76594,518.34126c-2.5-8.90002-2.5-8.59998-11.90002-8.90002-13.79999-.40002-23.09998,5.5-29.40002,17.90002-17.29999,34.30005-35,68.40002-52.59998,102.59998-2.90002,5.59998-5.70001,11.30005-9,17.59998,9.40002,0,17.70001-.09998,26,.09998,3,.09998,4.29999-1.19995,5.40002-3.59998,3.90002-8.30005,8-16.40002,11.90002-24.69995,1.09998-2.30005,2.29999-3.30005,5.09998-3.30005,16.09998,.09998,32.20001,.09998,48.29999,0,2.79999,0,3.90002,1,4.5,3.59998,1.90002,7.90002,4.29999,15.59998,6,23.5,.79999,3.59998,2.40002,4.59998,6,4.5,6.90002-.30005,13.90002-.30005,20.79999,0,4.29999,.19995,4.79999-.90002,3.70001-4.80005-11.79999-41.49988-23.29999-82.99988-34.79999-124.49988Zm-46.5,74.40002c8.20001-16.80005,16.20001-33.19995,24.90002-51,4.40002,17.80005,8.5,34.19995,12.70001,51h-37.60004Z"/><path d="M155.46589,509.44136c-10.69995,.19995-21.5,.09998-32.19995,.09998h-32.69995c-13.80005,.30005-24.69995,8.69995-27.09998,21.19995-.80005,4.19995-1.09998,8.59998-1.69995,12.80005-4.09998,33.59998-8.19995,67.19995-12.40002,100.69995-.30005,2.69995,.40002,3.40002,2.90002,3.30005,5.5-.09998,11.09998,0,16.59998,0,8.30005,0,8.09998,0,9.09998-8.09998,1.80005-15.40002,3.80005-30.80005,5.59998-46.30005,.40002-3.30005,1.40002-4.5,5-4.40002,16.40002,.19995,32.90002,0,49.30005,.19995,2.90002,0,4.40002-.40002,4.5-3.80005,.19995-4.80005,1-9.59998,1.80005-14.40002,.59998-3.80005,.09998-5.5-4.5-5.40002-15.90002,.30005-31.90002,0-47.80005,.19995-3.90002,.09998-5.09998-.80005-4.5-4.90002,1.30005-7.80005,2.19995-15.69995,2.90002-23.59998,.30005-3.19995,1.30005-4.30005,4.69995-4.30005,17.30005,.19995,34.59998,.09998,51.90002,.09998,7.09998,0,11.09998-3.59998,12.09998-10.80005,.30005-2.59998,.30005-5.19995,1-7.69995,1.59985-4.69971-.80005-4.99976-4.50012-4.89966h0Z"/><path d="M310.36591,570.84126c.20001-12.69995-5.5-20-17.80005-23.30005-10.69995-2.80005-21.5-2.69995-32.5-1.40002-15.59998,1.80005-26.5,10-33.40002,23.80005-1.40002,2.80005-1.40002,4.09998,2.40002,4.5,5.30005,.59998,10.5,1.90002,15.80005,2.90002,2.40002,.5,3.90002,.19995,5.5-2.30005,5.80005-9.19995,18.80005-12.59998,28.80005-7.90002,5.09998,2.40002,4.80005,6.90002,4.90002,11.5s-3.40002,4.59998-6.19995,5.30005c-8.69995,2-17.59998,3.69995-26.30005,5.80005-9.90002,2.40002-20,4.59998-27.09998,13-7.40002,8.80005-10,18.80005-6.40002,29.90002,2.90002,9.09998,9.90002,14,18.80005,15.90002,12,2.59998,23.40002,.40002,33.80005-6.09998,2.80005-1.69995,5.40002-3.59998,8.40002-5.59998,.59998,2.90002,1.09998,5.40002,1.5,7.90002,.30005,1.90002,1.30005,2.59998,3.09998,2.59998,6.90002,0,13.90002-.09998,20.79999,0,2.20001,0,2.70001-.69995,2.09998-2.80005-3.90002-11.59998-1.79999-23.19995-.5-34.90002,1.49988-12.80005,4.09985-25.69995,4.29987-38.80005Zm-31.59998,45.1001c-2.69995,8.90002-14.19995,16.19995-23.59998,15.19995-6.30005-.69995-10.5-4.40002-11.59998-10.09998-.90002-5.09998,1.80005-10.59998,7.09998-13.19995,3.09998-1.5,6.5-2.5,9.80005-3.30005,6.80005-1.69995,13.69995-3.09998,20.90002-4.69995-.6001,5.69995-1.1001,10.99988-2.6001,16.09998Z"/><path d="M899.96592,593.04133c-17,.19995-33.89999,.09998-50.89999,.09998-17.10001,0-34.29999,.09998-51.40002-.09998-3.29999,0-4.5,.69995-4.40002,4.19995,.20001,15.40002,.20001,30.69995,0,46.09998,0,3.19995,.90002,4.09998,4.09998,4.09998,29.10001-.09998,58.10001,0,87.20001-.09998,11.79999-.09998,19.39999-7.59998,19.70001-19.5,.29999-10.19995-.10001-20.40002,.10001-30.59998,.10004-3.40002-1.09998-4.19995-4.39996-4.19995h0Zm-20,42.29993c-20.79999-.09998-41.5-.09998-62.29999,0-3.89999,0-3.39999-2.19995-3.60001-4.59998-.20001-2.80005,.60001-3.90002,3.70001-3.90002,17,.09998,33.89999-.19995,50.89999,.19995,5.5,.09998,8.79999-1.30005,10.20001-6.59998,.5-1.80005,2-3.19995,1.79999-5.59998h-61.19998c-5.20001,0-6.70001-2.19995-5.39999-7.19995,.5-1.90002,1.79999-1.80005,3.10001-1.80005,20.89999,0,41.89999,0,62.79999-.09998,2.89999,0,3.5,1.19995,3.39999,3.69995-.10001,7.40002-.10001,14.80005,0,22.30005,.19998,2.80005-.70004,3.59998-3.40002,3.59998h0Z"/><path d="M680.06593,627.54133c9-27.30005,18.09998-54.59998,27.09998-81.90002,3.20001-9.59998-.5-14.5-10.70001-14.5h-29.59998c-11.5,0-11.40002,0-11.09998,11.5,.09998,2.90002,.90002,3.80005,3.79999,3.80005,8.79999-.19995,17.59998-.09998,26.90002-.09998-.59998,2-1.09998,3.59998-1.59998,5.19995-8.79999,26.59998-17.70001,53.30005-26.40002,79.90002-2.90002,9,1.79999,15.80005,11.09998,15.90002,29.90002,.19995,59.90002,.09998,89.79999,.19995,1.29999,0,2.90002,.40002,3.79999-1,2.59998-4.30005,5-8.69995,8-13.80005h-92.79999c.70001-2.29993,1.20001-3.79993,1.70001-5.19995h0Z"/><path d="M206.36591,509.44136c-5.69995,.19995-11.5,.40002-17.09998,0-4.90002-.40002-6,1.59998-6.5,6-2.69995,24.19995-5.80005,48.30005-8.80005,72.5-2.30005,18.5-4.5,37-6.80005,55.5-.40002,3.19995,.30005,4.5,3.69995,4.19995,3.09998-.30005,6.19995-.09998,9.30005-.09998,3.30005,0,6.59998-.09998,9.90002,0,2.40002,.09998,3.40002-.80005,3.5-3.19995,0-1.90002,.5-3.80005,.69995-5.59998,3-24.19995,6-48.30005,8.90002-72.5,2.19995-17.59998,4.30005-35.30005,6.59998-52.90002,.30005-2.80005-.29993-4.00012-3.3999-3.90002h0Z"/><path d="M620.46589,547.44136c-6.20001,.09998-12.40002,.19995-18.70001,0-3.09998-.09998-4.40002,.5-4.79999,4-3.5,29.80005-7.29999,59.5-11,89.19995-.79999,6.80005-.70001,6.80005,6.20001,6.80005h6.20001c2.90002,0,5.90002-.30005,8.79999,.09998,3.59998,.40002,4.59998-1,5-4.40002,3.59998-30.80005,7.40002-61.59998,11.29999-92.30005,.60004-3.09998-.5-3.3999-3-3.3999h0Z"/><path d="M905.26591,535.84126c0-2.80005-.60001-3.90002-3.70001-3.90002-14.89999,.19995-29.70001,.09998-44.60001,0-2.89999,0-3.89999,.80005-3.79999,3.80005,.20001,7.90002,.10001,15.90002,.10001,23.80005,0,8.09998,.10001,16.19995-.10001,24.30005-.10001,2.90002,.89999,3.90002,3.79999,3.80005,12.60001-.09998,25.20001,0,37.79999-.09998,6.60001-.09998,10.29999-3.80005,10.39999-10.30005,.10004-13.80005,.00003-27.6001,.10004-41.40015h0Zm-27.69998,38.5c-4.29999,.19995-5.60001-1-5.39999-5.30005,.39999-6.90002,.20001-13.80005,.10001-20.59998-.10001-2.69995,.70001-3.5,3.5-3.59998,10.39999-.30005,10.39999-.5,10.39999,10v10.8999c-.00003,8.50012-.00003,8.30017-8.60001,8.6001h0Z"/><path d="M794.36591,589.04133c10-.09998,20.60001,2.19995,27.39999-8.40002,1.39999-2.09998,2.5-.40002,3.60001,.59998,2.60001,2.5,4.29999,6.90002,7.70001,7.30005,6.5,.80005,13.20001,.19995,20.70001,.19995-6.70001-7.5-12.60001-14.09998-18.5-20.69995-.20001-.59998-.5-1.19995-.70001-1.80005,12,4.5,13-4.19995,16.20001-11.5-5.10001,0-9.60001-.19995-14,.09998-3.10001,.19995-3.70001-1-3.70001-3.80005,.10001-3.19995,2.10001-2.30005,3.89999-2.59998,3-.5,6.89999,1.90002,9-1.69995,2-3.30005,4-6.69995,4.89999-11.19995h-33.79999c-1.39999-1.90002,3-4.69995-1.20001-5.09998-5-.5-10-.09998-15-.09998-1.20001,0-1.79999,.69995-2.29999,1.69995-3,6.30005-6,12.69995-9.09998,19.30005h15.70001c1.5,0,3.20001,.30005,4.09998-1.5,.90002-1.90002,2.60001-1.80005,4-1.19995,1.79999,.80005,.89999,2.69995,.89999,4.19995,0,2.5-2.10001,1.80005-3.5,1.80005-3.60001,.09998-7.30002,0-10.89999,0-8.59998,0-8.40002,0-8.5,8.40002,0,3.19995,.79999,4.19995,4.09998,4,5.20001-.30005,10.5-.09998,17-.09998-7.5,8-14.09998,15-20.5,21.80005,.40002,.2998,1.5,.2998,2.5,.2998h0Z"/><path d="M748.76594,533.84126c-1.5,0-2.59998,.40002-3.79999,1.30005-13.5,11.80005-27.09998,23.5-41.70001,36.19995,9.90002,0,18.29999-.19995,26.70001,.09998,3.20001,.09998,5.5-1,7.70001-3.19995,10.79999-10.40002,21.79999-20.69995,32.59998-31,.90002-.80005,2.40002-1.40002,2.20001-3.40002h-23.70001Z"/><path d="M736.26594,583.74128h-26.79999c.09998,.80005,0,1.19995,.20001,1.40002,10.09998,10.59998,20.20001,21.19995,30.29999,31.90002,1.20001,1.19995,2.40002,1.69995,4.09998,1.69995,8.59998-.09998,17.20001,0,27.20001,0-11.20001-11.80005-21.59998-22.69995-31.90002-33.59998-.79999-.90002-1.79999-1.40002-3.09998-1.40002h0Z"/><path d="M625.6659,509.44136c-4,.09998-8,0-11.90002,0q-11.40002,0-13,11.30005c-.59998,4.09998-2.59998,9.40002-.90002,12,2.20001,3.19995,8,.40002,11.40002,1.09998,4.29999,0,7.70001-.09998,11.20001,0,2.29999,.09998,3.5-.59998,3.70001-3,.59998-6.19995,1.40002-12.30005,2.20001-18.5,.40002-2.1001-.29999-3.00012-2.70001-2.90002h0Z"/></g><g><path class="b" d="M371.6659,307.04133h0c-9.59998-2.59998-9.70001-2.80005-6-12.40002,12.09998-31.80005,30.09998-59.69995,53-84.90002,30.5-33.5,67.20001-57.5,109.90002-72.19995,24-8.30005,48.90002-12.90002,74.29999-14.69995,5.59998-.40002,7.09998,1,5.79999,6.69995-3.20001,13.19995-3.79999,27-8.40002,39.90002,.40002,.09998,.79999,.19995,1.09998,.19995h0c10.59998-2.40002,21.29999-2.90002,32.09998-3,4.40002,0,6.29999-1.30005,7.20001-5.90002,6-28.59998,12.5-57.19995,18.79999-85.69995,4.09998-18.40002,8.09998-36.90002,12.29999-55.90002-2.20001,.40002-3.5,.59998-4.79999,1-42.90002,12.59998-84.79999,28-124.5,48.80005-52.20001,27.40002-98.59998,61.80005-133.70001,109.80005-26.40002,36.09998-43.5,76.09998-48.09998,120.90002-.5,5.30005-3.09998,3.69995-5.90002,3-20.90002-5.30005-41.29999-12-61.59998-19.09998-3.69995-1.30005-5.19995-1-6.30005,2.90002-4.40002,15.40002-6,30.90002-2.5,46.69995,9,40.90002,47,73.19995,90.90002,78.30005,41.5,4.80005,82.40002,2.19995,123.09998-6.30005,60.29999-12.69995,116-36.59998,168-69.30005,1.29999-.80005,3-1.30005,3.09998-1.80005-14.5,0-29.09998-.19995-43.70001,0-60.20001,1.09998-120.09998-3.09998-179.60004-12.5-22.59998-3.59998-45.20001-7.5-67.29999-13.5h0c-2.39984-.09998-4.7998-.5-7.19983-1h0Z"/><path class="d" d="M578.6659,243.64131c9.20001,1.40002,9,1.80005,10.70001-7.69995,3.90002-22,8-44.09998,12.09998-66.09998h0c-.40002-.09998-.79999-.09998-1.09998-.19995h-.20001c-30.70001,3.59998-60.29999,11.69995-89.09998,23-38.59998,15.19995-73,37-102.20001,66.40002-13.90002,14-26.20001,29.30005-36.09998,46.40002-.29999,.59998-.70001,1.19995-1,1.80005,2.40002,.40002,4.90002,.90002,7.29999,1.30005h0c.5-.69995,1-1.5,1.59998-2.19995,55.10004-55.20032,121.60004-74.80029,198-62.70032h0Z"/><path class="c" d="M602.96589,122.94136c-25.40002,1.80005-50.29999,6.40002-74.29999,14.69995-42.70001,14.80005-79.40002,38.69995-109.90002,72.19995-22.90002,25.09998-40.90002,53.09998-53,84.90002-3.59998,9.5-3.59998,9.80005,6,12.40002h0c.29999-.59998,.70001-1.19995,1-1.80005,10-17.09998,22.20001-32.40002,36.09998-46.40002,29.20001-29.40002,63.59998-51.19995,102.20001-66.40002,28.70001-11.30005,58.29999-19.30005,89.09998-23h.20001c4.59998-12.90002,5.29999-26.69995,8.40002-39.90002,1.30005-5.69983-.29999-7.09985-5.79999-6.69983h0Z"/></g></svg>