<svg id="Layer_1" data-name="Layer 1" xmlns="http://www.w3.org/2000/svg" xmlns:xlink="http://www.w3.org/1999/xlink" viewBox="0 0 1224 430.73418"><defs><style>.cls-1{fill:#fff;}.cls-2{fill:url(#linear-gradient);}</style><linearGradient id="linear-gradient" x1="81.59524" y1="8.34818" x2="338.70042" y2="265.45336" gradientUnits="userSpaceOnUse"><stop offset="0" stop-color="#e5c9d3"/><stop offset="0.33034" stop-color="#b385df"/><stop offset="1" stop-color="#6f2aef"/></linearGradient></defs><title>Flyte</title><path d="M539.23551,234.02574V319.022H497.28543V92.79936H646.69958v39.93136H539.876v61.07333h83.51264v40.22169Z"/><path d="M1202.36537,251.84006H1089.21149c.9236,17.70508,16.5471,31.786,37.70388,34.84443,21.74982,3.14411,41.37982-3.00845,60.09857-13.37487q3.95274-2.189,7.95073-4.29546c.16622-.08781.5051.15154,1.80428.58913,0,10.14563.32344,20.68172-.25572,31.1679-.12519,2.26676-3.08278,5.09755-5.43732,6.41154-30.57068,17.06142-62.67469,20.71543-95.39343,7.8154-34.56784-13.62905-53.34684-53.21026-46.51106-94.542,5.27066-31.86805,21.19992-55.33828,52.82239-65.643,46.42022-15.127,87.80549,7.48426,96.82014,53.26362C1201.53394,221.88922,1201.197,236.30375,1202.36537,251.84006ZM1089.55149,220.9604h71.39692c1.29673-18.88169-11.19484-32.87889-29.97451-34.10529C1108.71463,185.40152,1091.05458,199.79308,1089.55149,220.9604Z"/><path d="M737.84208,341.81542c8.99052,1.83747,16.84175,4.21458,24.84029,4.91831,17.36986,1.52811,32.34633-9.08119,36.82286-25.93216.88746-3.34087-.27352-7.67747-1.63763-11.09711q-28.95185-72.57993-58.24124-145.02524c-1.21774-3.02825-2.276-6.12062-3.92817-10.58873,14.03352,0,26.93464-.30831,39.79073.31335,2.06485.09984,4.70846,4.04524,5.76681,6.732,12.65135,32.11591,25.04859,64.33188,37.53238,96.51387.81653,2.10512,1.796,4.14706,3.48105,8.00946C830.05,245.748,837.186,227.51466,844.30028,209.27279c6.16279-15.80216,12.63189-31.49685,18.28568-47.47961,2.24157-6.3368,5.6201-8.17488,11.995-7.88731,10.885.491,21.808.13537,34.2106.13537-1.12462,3.54039-1.80117,6.28442-2.84885,8.87856q-33.67993,83.401-67.48382,166.75166c-10.4577,25.64025-26.22252,46.65526-55.70671,50.46224-12.8432,1.65825-26.33209-1.33981-39.47537-2.72127-1.95949-.20591-5.10471-3.08545-5.19138-4.85132C737.58608,362.392,737.84208,352.18578,737.84208,341.81542Z"/><path d="M1034.068,279.05911c0,9.50241.18956,19.69191-.17567,29.86147a7.24021,7.24021,0,0,1-3.78369,5.18988c-18.33671,7.51637-37.31062,10.90838-56.8877,6.07554-28.02135-6.91742-44.97617-28.24064-45.65694-61.35623-1.04113-50.64922-.22926-101.33656-.17834-152.00769a11.33588,11.33588,0,0,1,.77217-2.44226h38.66628v49.45009h63.051v37.74783H967.31858c0,8.8522-.01245,16.90019.00289,24.9481.02569,13.34992-.4633,26.72735.22615,40.04338,1.1125,21.487,14.93639,33.3071,36.37323,30.51709C1013.89779,285.78777,1023.54385,281.94722,1034.068,279.05911Z"/><path d="M716.88222,319.22354H677.71739V92.62988h39.16483Z"/><path class="cls-1" d="M1089.55149,220.9604c1.50309-21.16732,19.16314-35.55888,41.42241-34.10529,18.77967,1.2264,31.27124,15.2236,29.97451,34.10529Z"/><path class="cls-2" d="M115.90248,219.884c8.21245-19.51645,12.39276-39.59549,16.15665-59.74644,6.41724-34.35612,10.7557-68.94039,9.29819-103.99877-.27695-6.66168,1.59877-9.13821,8.77394-8.46056,19.42778,1.83488,38.69207,4.05528,56.15705,13.6227,4.6234,2.53273,8.68073,1.173,13.101-.07332,33.42848-9.42543,67.32588-15.81756,102.24761-15.09955,22.94777.47179,45.20237,4.17623,66.36881,13.67643,6.91995,3.10592,9.4839,7.52193,8.84637,14.86859-1.7155,19.7682-9.6182,37.48628-17.82471,55.10338-2.24346,4.816-5.50514,2.04631-8.27317.29808C342.90093,112.4833,312.99085,99.174,282.18466,87.81046,260.31892,79.74477,238.206,72.40388,214.293,68.73983c7.37922,7.30165,14.4961,14.89294,22.18282,21.85506,34.03271,30.82448,69.49977,59.74758,110.49051,81.09075,4.5225,2.35476,5.61954,4.76894,2.51647,9.17536-11.395,16.18106-23.052,32.16311-40.149,42.87558-5.08484,3.186-6.30107,7.71783-7.56112,12.74991-9.80218,39.14623-24.04373,76.39459-47.39988,109.67308A152.15807,152.15807,0,0,1,219.066,382.599c-6.24682,4.51989-11.81069,5.05168-18.14242.29264-15.27817-11.48342-26.76573-26.27127-37.41558-41.85692-2.92674-4.28326-.84933-6.628,2.916-8.56474,30.69726-15.78936,57.97218-36.51963,84.26335-58.62758a487.58754,487.58754,0,0,0,45.78358-43.13065c-3.01824-2.87618-5.607-.75936-7.86473-.15738-50.65859,13.50657-99.45293,31.6419-144.3151,59.22752-6.13169,3.77037-9.39212,3.30118-12.38131-3.59534-7.63634-17.61794-14.71494-35.38681-15.90664-54.76851-.39047-6.35024-4.27253-9.77119-8.14232-13.53184-27.61741-26.83785-51.63723-56.38937-68.351-91.347-8.16366-17.07467-14.12733-34.7908-14.85762-54.02659-.28964-7.62921,2.80325-11.88542,9.69143-14.36779A181.141,181.141,0,0,1,84.03749,47.71838c6.80459-.45393,8.47657,1.94264,8.29848,8.08207C91.078,99.16858,97.70762,141.66871,106.95307,183.839,109.60327,195.927,112.90141,207.873,115.90248,219.884Zm95.22859-141.37c-11.1085,57.5509-46.01264,100.55511-85.35853,141.063,53.716-21.93249,107.26515-12.09693,161.30961-1.422C245.61638,179.99016,226.82387,130.41467,211.13107,78.514Z"/></svg>