<svg id="content" xmlns="http://www.w3.org/2000/svg" viewBox="0 0 1348.20716 603.21987"><defs><style>.cls-1{fill:#231f20;}.cls-2{fill:#a61d38;}</style></defs><title>foolbox</title><path class="cls-1" d="M328.34953,460.76448h94.666v23.3291H355.91106v30.53418h58.81738v23.05859H355.91106v55.665H328.34953Z"/><path class="cls-1" d="M520.83391,581.34065q-12.42919,15.3435-37.74024,15.34326-25.3125,0-37.74023-15.34326-12.43066-15.34278-12.43066-36.94385,0-21.2373,12.43066-36.80713,12.4292-15.56909,37.74023-15.56982,25.30958,0,37.74024,15.56982,12.43067,15.5691,12.42969,36.80713Q533.2636,565.99739,520.83391,581.34065Zm-20.53613-14.1875q6.03369-8.00536,6.03418-22.75635,0-14.74951-6.03418-22.70947-6.03663-7.95849-17.29395-7.96-11.26026,0-17.33887,7.96-6.08057,7.95923-6.08007,22.70947,0,14.75244,6.08007,22.75635,6.07911,8.00465,17.33887,8.00342Q494.26115,575.15657,500.29778,567.15315Z"/><path class="cls-1" d="M633.51457,581.34065q-12.4292,15.3435-37.74023,15.34326-25.3125,0-37.74024-15.34326-12.43066-15.34278-12.43066-36.94385,0-21.2373,12.43066-36.80713,12.42921-15.56909,37.74024-15.56982,25.30957,0,37.74023,15.56982,12.43066,15.5691,12.42969,36.80713Q645.94426,565.99739,633.51457,581.34065Zm-20.53613-14.1875q6.03369-8.00536,6.03418-22.75635,0-14.74951-6.03418-22.70947-6.03661-7.95849-17.29395-7.96-11.26025,0-17.33886,7.96-6.08056,7.95923-6.08008,22.70947,0,14.75244,6.08008,22.75635,6.0791,8.00465,17.33886,8.00342Q606.94183,575.15657,612.97844,567.15315Z"/><path class="cls-1" d="M690.5302,593.35139H664.86028V460.5843H690.5302Z"/><path class="cls-1" d="M799.40227,506.972q11.01563,13.96215,11.01562,36.02881,0,22.88012-10.86523,37.92041-10.86328,15.04394-30.3291,15.04248-12.22266,0-19.64551-4.86426-4.437-2.88135-9.59668-10.08789v12.33984H714.67082V460.76448h25.6709v47.19824A37.56755,37.56755,0,0,1,751.12883,497.514q6.98-4.50292,17.76856-4.50342Q788.38713,493.01057,799.40227,506.972Zm-21.457,59.8081q5.54-8.01562,5.541-21.07715,0-10.448-2.72461-17.29394-5.17676-12.97046-19.07129-12.97022-14.07714,0-19.34472,12.7002-2.72609,6.75513-2.72461,17.47412,0,12.61158,5.63086,20.89648,5.62939,8.2881,17.16406,8.28663A17.80539,17.80539,0,0,0,777.94524,566.7801Z"/><path class="cls-1" d="M910.12785,581.34065q-12.42919,15.3435-37.74023,15.34326-25.3125,0-37.74023-15.34326-12.43066-15.34278-12.43067-36.94385,0-21.2373,12.43067-36.80713,12.4292-15.56909,37.74023-15.56982,25.30957,0,37.74023,15.56982,12.43066,15.5691,12.42969,36.80713Q922.55754,565.99739,910.12785,581.34065Zm-20.53613-14.1875q6.03369-8.00536,6.03418-22.75635,0-14.74951-6.03418-22.70947-6.03661-7.95849-17.29394-7.96-11.26026,0-17.33887,7.96-6.08056,7.95923-6.08008,22.70947,0,14.75244,6.08008,22.75635,6.0791,8.00465,17.33887,8.00342Q883.5551,575.15657,889.59172,567.15315Z"/><path class="cls-1" d="M931.16008,593.35139l33.50684-49.72021-32.06641-48.27881h31.43555l16.40234,28.4375,16.02441-28.4375H1026.997L994.7509,543.181l33.50684,50.17041H996.28215L979.38567,563.8343l-17.06055,29.51709Z"/><path class="cls-2" d="M1270.51623,106.96237c.55536.838,1.14981,1.73592,1.7476,2.6388l.00048-.00048C1271.666,108.69757,1271.07112,107.79994,1270.51623,106.96237Z"/><path class="cls-2" d="M1316.97909,118.47881q3.69325,7.23959,7.387,14.47915-3.69325-7.23885-7.386-14.47962Z"/><path class="cls-2" d="M1312.71307,116.11532c.76463.94053,2.82875,1.45919,4.174,2.21405l.00286-.00286C1315.54373,117.57427,1313.47818,117.05633,1312.71307,116.11532Z"/><path class="cls-2" d="M1312.60056,149.54915l-.0019.00024c-4.33943,6.08226,1.5202,8.93485,3.59911,12.98468C1314.11982,158.48543,1308.26542,155.63188,1312.60056,149.54915Z"/><path class="cls-2" d="M1316.58581,163.43361a6.80381,6.80381,0,0,0-.35324-.83471A6.80381,6.80381,0,0,1,1316.58581,163.43361Z"/><path class="cls-2" d="M1272.108,109.88957l.00095-.00262a15.70549,15.70549,0,0,0-10.52084,6.71317A15.69972,15.69972,0,0,1,1272.108,109.88957Z"/><path class="cls-2" d="M1309.28605,147.37443a22.86314,22.86314,0,0,0,3.376,1.88822l.00763-.01668A21.32716,21.32716,0,0,1,1309.28605,147.37443Z"/><path class="cls-2" d="M1312.52763,149.55916l.071-.00977-.071.00953Z"/><path class="cls-2" d="M1334.49126,80.5337c1.769-16.00532-4.55919-27.84115-19.5701-33.43479a17.3816,17.3816,0,0,1-6.33587-4.66668C1293.19254,25.53,1265.0289,26.93245,1251.604,45.37706c-1.10357,1.51616-2.21,3.0304-3.46468,4.75059-.79323-1.07163-1.28186-1.6258-1.65416-2.2498-7.03757-11.8089-16.8815-18.81835-31.14256-16.85814-14.51752,1.99524-25.23286,9.41727-30.51,23.62685a11.9808,11.9808,0,0,1-1.9869,3.91373c-16.82715,18.51945-15.64874,39.33852-8.083,61.09145.76082,2.18807.65451,4.72675.69408,7.10693.102,6.10538-.808,12.36736.24455,18.28968,2.71911,15.29908,5.61223,16.79856,20.47775,12.67674.39375-.1094.89953.18544,1.7085.3754,3.75595,12.7778,14.83453,16.09279,26.04707,20.64174-.11154-8.72534,3.11383-12.84382,9.17512-12.89554,7.67254-.06531,5.98072,5.76977,6.01361,10.14234q.18805,24.84172.01287,49.6856c-.092,12.349-3.34884,16.6267-15.081,20.62243-8.86287,3.01848-18.0008,5.43013-26.48755,9.27855-5.3958,2.44645-9.82342,7.02757-14.6858,10.6517q.49053.39722.9801.79443,9.62393-1.83054,19.24786-3.66156.46836,1.52664.93577,3.05281c-5.72712,2.68169-11.45471,5.36339-17.79344,8.33134,2.73771.72459,4.60019,1.2175,7.29881,1.93208-6.16044,5.84868-17.476,4.97011-17.1842,16.59476,9.32384-4.76059,18.304-9.34553,27.28364-13.93046a44.68821,44.68821,0,0,1-8.96632,11.50166c-6.44979,5.79123-13.44923,11.0252-13.41491,20.03847,4.03434-3.121,7.83224-7.12815,12.47581-9.43134,9.97835-4.9489,21.996-7.14817,23.36323-21.92955,3.233,10.13209,1.944,13.81367-5.71663,19.07743-5.08118,3.4909-10.6915,6.35112-15.28358,10.38379-7.90375,6.942-7.858,18.03894-.54964,23.0939-1.80814-11.03068.76654-16.32471,9.84774-19.19756-4.89384,7.42275-6.6095,14.66316-.91718,22.04229-.22071-10.261,4.37328-17.20065,12.994-22.48062,7.30071-4.47172,13.87207-10.13424,20.04776-14.73443-.45763,6.83331-5.309,12.63789-12.768,16.86434-7.33551,4.15614-12.08348,9.99957-11.70307,18.63267,10.24912-7.74929,20.50635-15.50478,30.50377-23.06387.58349,8.64764-1.99262,12.76731-10.13662,16.94252-4.29176,2.20046-8.18785,5.17318-13.7629,8.76348,7.44134,1.03087,12.21457,1.63366,16.96826,2.36468,6.93079,1.06567,11.53717-1.57121,13.54981-8.36709.67025-2.262,1.14123-4.58279,1.75475-7.0862,13.7896,16.26607,20.91441,19.06623,33.28009,13.27118-17.27906-6.24362-25.97223-16.7044-25.3897-30.55287,16.82191,22.33832,33.18524,30.1584,51.61411,24.35859-6.02839-1.6289-11.755-3.17627-17.48214-4.72365,24.186-3.79719,29.3635-6.55706,31.20929-17.63875-24.20509,10.96824-40.69188,7.90947-49.79691-10.96155,4.40426,1.919,7.50665,2.967,10.2987,4.55895,4.05722,2.31392,7.61009,6.39855,11.87992,7.269,8.61976,1.75713,15.77078-2.76845,23.50863-7.88276-6.547-.72316-11.654-1.2871-16.76041-1.851q-.2374-1.31213-.47575-2.62378c3.99859-2.09988,7.79887-4.89288,12.05058-6.10991,4.51486-1.29234,9.45732-1.08926,14.37356-1.55429-6.43406-7.3827-13.9183-7.77718-24.74853-2.69051a28.09972,28.09972,0,0,1-13.88256,2.80492c-6.44264-.61256-12.70843-3.085-19.43424-4.86452-.603-2.08391-1.36-4.69886-2.578-8.90792,11.86038,8.96012,23.22594,10.64527,35.50391,5.74023,5.57648-2.22764,11.29072-4.1099,17.42733-6.32371-.92433-1.20582-2.1547-2.81065-2.8035-3.657-5.04924,1.21059-9.1465,2.19307-13.24377,3.17556q-.75653-.92207-1.51258-1.84389c1.77667-3.53738,3.55335-7.07452,6.16711-12.27869-11.30931,5.67086-20.72611,17.14631-34.7512,5.84844,10.18191.14849,18.51707-.82422,24.79764-9.24209-2.74582-.39257-4.66645-.56942-6.54514-.9515-12.24556-2.49006-23.57013-13.55459-23.78131-24.29185-.36992-18.7795-.205-37.5721-.05339-56.35755.04243-5.25613,1.9297-9.62965,8.6126-10.66695.28746,2.65285.40044,5.05139.82994,7.39176,1.09213,5.9514,4.12015,10.29084,9.88969,12.90675,2.55513,1.15862,4.46862,3.73306,7.36126,6.26722,19.25309-5.96166,35.68887-30.6568,32.80434-51.76308-.75224-5.50307,1.0969-8.343,4.17211-9.17654,2.33632-6.50295,4.18593-11.65111,6.03507-16.79927V94.83194C1338.3721,90.05084,1333.995,85.02281,1334.49126,80.5337Zm-106.026,211.41295c3.01277-12.58187,1.341-22.7049-8.80757-30.70971,2.527-2.28555,4.615-4.17473,6.97513-6.30964C1233.0483,266.96668,1239.80271,278.20282,1228.46527,291.94665ZM1246.75972,78.354c1.08974-1.15553,2.46265-2.6109,5.32144-5.64178.55107,6.34611.9434,10.86788,1.37386,15.82846-7.56052-5.16485-14.13807-9.65849-21.44117-14.64767.80706-2.869,1.83865-6.53393,3.5605-12.65433C1240.03344,68.06147,1243.29361,73.05065,1246.75972,78.354Zm-36.01685,6.12612a85.88829,85.88829,0,0,1-9.86967,2.34919q-.48337-.63926-.96627-1.27852c3.28353-1.9192,6.47077-4.04935,9.91114-5.626,1.00155-.45859,2.72722.66357,4.1211,1.06114C1212.888,82.19167,1212.05571,84.01578,1210.74287,84.48009Zm2.4207,4.50079c-.89239,6.092-1.47683,10.0799-2.33585,15.94025-4.52057-3.38984-7.97858-5.9831-12.73942-9.55314C1203.49793,93.07624,1207.40023,91.4228,1213.16357,88.98088Zm-12.35472-7.57124c-6.56087-7.94784-6.46553-8.5604,2.04458-14.71917,2.40259,2.92338,4.79707,5.83652,7.60342,9.25067C1206.94116,77.93376,1203.84831,79.68707,1200.80885,81.40964Zm-3.03183,2.05721c-3.68254,4.67027-7.11242,9.01971-10.54182,13.36939l-1.9235-.68359q3.35933-9.7723,6.71818-19.5446,1.11978.15087,2.2386.302C1195.46453,79.14578,1196.66105,81.38152,1197.777,83.46685Zm-10.7859,29.83878c7.76169,7.00086,6.99515,10.73059-3.02134,14.58951C1185.00422,122.89905,1185.96526,118.25929,1186.99112,113.30563Zm2.62712-2.42475q-.53772-.97356-1.075-1.94734c1.95019-3.10143,3.89991-6.2031,6.67623-10.62,1.43631,4.57493,2.35539,7.5026,3.582,11.4099C1195.42687,110.1489,1192.52279,110.515,1189.61824,110.88088Zm12.78328,2.3039c-.76654-3.70088-1.48208-7.15436-2.64142-12.75086,5.55646,3.38769,9.49784,5.791,13.79437,8.41024-3.25541,3.61961-6.619,6.08583-8.13113,9.39749-1.52545,3.34026-1.21274,7.51952-1.70517,11.331q-1.21488.43155-2.42928.86308c-2.005-4.98775-4.01-9.9755-6.28057-15.624C1197.61255,114.23877,1199.823,113.7523,1202.40152,113.18478Zm20.92489-1.12764q.41616.84984.8328,1.69969c-1.90538,2.29914-3.81077,4.59828-6.04793,7.29737-2.40831-2.03743-4.36851-3.69588-8.00385-6.77157C1215.71155,113.339,1219.519,112.69807,1223.32641,112.05714Zm-9.3-2.20547c.76511-6.27341.88048-12.38618,2.57992-18.02153.51484-1.70827,5.41011-2.09607,8.92341-3.30332.23168-2.18092.62306-5.86869,1.02444-9.65157,7.07094,2.001,8.01243,4.68528,6.47363,16.87673H1228.983v12.3409C1224.17447,108.65848,1219.63053,109.19287,1214.0264,109.85167Zm13.49834,4.31941c10.72153,1.97069,11.65063,3.61723,8.56064,15.02236-4.051-2.7718-7.46232-5.106-11.21636-7.67445C1225.769,119.02845,1226.66143,116.55984,1227.52474,114.17108Zm7.56528-3.31118c-1.68467-2.81636-3.36982-5.63249-5.77288-9.64967,5.56265.89787,8.96441,1.447,14.22436,2.296C1240.032,106.5598,1237.56125,108.70973,1235.09,110.8599Zm11.71356-5.77026q.72077.3586,1.44155.71744c-.76177,4.26483-1.52307,8.5299-2.526,14.14784-2.95842-3.17722-4.86857-5.22824-7.26639-7.80363C1241.51026,109.56613,1244.15692,107.328,1246.80358,105.08964Zm-.08247-5.50664c-3.35885-5.84915-6.00361-10.455-8.64883-15.06072C1247.83135,87.295,1251.0143,92.77783,1246.72111,99.583Zm-25.76582-63.68638c2.7787.64117,6.0589.85354,8.77563,2.20189,2.07128,1.028,4.65978,3.41964,4.77943,5.34409.13729,2.21238-1.699,5.66419-3.60626,6.52845-1.48684.67382-4.86333-1.3064-6.56468-2.96462C1221.53162,44.27063,1216.09148,41.98412,1220.95529,35.89662Zm-3.6363,22.27707c5.115-1.09714,10.54516-.727,17.50932-1.11692-1.80671,5.02851-3.048,8.48413-4.51152,12.55732-3.91421-2.47886-6.95987-4.4076-10.50416-6.65263-2.03457,4.04244-3.94949,7.84677-6.16091,12.241-1.20368-1.41391-1.70422-1.934-2.12849-2.51009C1204.693,63.42529,1205.59543,60.68806,1217.319,58.17369Zm-2.33346-22.95875V48.61388c-6.947,2.84282-10.55469-2.30439-15.98815-7.10551C1204.77979,39.23235,1209.60879,37.3315,1214.98553,35.21494Zm-18.24582,8.93485c2.5618,1.8651,4.63451,3.37458,7.60914,5.54048-5.188,2.1547-9.34386,3.88085-13.50024,5.607q-.67858-.69789-1.35765-1.39627C1191.77818,50.82483,1194.06493,47.74818,1196.73971,44.14979Zm-6.5561,17.51313c6.19857,6.33586,3.78121,10.69841-.973,15.32434-2.1547-1.83673-4.33419-3.69469-6.94891-5.92351C1185.10719,67.68726,1187.67,64.64565,1190.18361,61.66292Zm-16.03869,31.10251c1.26374-5.97834,2.49125-11.78411,3.71876-17.58964q1.79909-.23669,3.59768-.47289c1.35,3.561,3.928,7.1844,3.75118,10.66743C1184.968,90.17812,1181.89564,93.9324,1174.14492,92.76543Zm5.19035,55.28306c4.73462,2.41855,8.80852,4.4996,13.82249,7.06117C1183.72857,158.65538,1181.76264,157.66645,1179.33527,148.04849Zm19.7789-6.95534c-.95341,3.98023-1.38578,8.08512-2.26148,13.4018-3.01515-2.30486-5.46159-4.175-8.85286-6.76752,12.68031-3.69636,4.562-9.60868,2.80778-14.71894C1198.4158,131.71019,1200.76166,134.21479,1199.11417,141.09315Zm3.90325,15.18109q-1.12694-.90633-2.25433-1.81266c.54153-4.34134,1.08259-8.6822,1.80193-14.4496,6.385,2.70339,11.38321,4.81971,16.38192,6.93628q.16947,1.33714.33941,2.67478Q1211.15188,152.94877,1203.01742,156.27424Zm36.02781-3.36052c-2.56324-4.421-5.126-8.84189-8.16164-14.079-2.56848,1.8253-4.85332,3.44943-7.53859,5.35791a53.59239,53.59239,0,0,0-4.86333-5.10478c-.901-.74508-3.305-1.32547-3.5357-.98058-3.83556,5.7295-5.88491.2753-8.841-.83494,5.50974-7.096,12.47438-9.66612,19.43806-7.45874C1234.29107,132.58661,1239.76791,140.7032,1239.04523,152.91372Zm.11679-18.17789c.49577-3.965.9372-7.49235,1.37863-11.01995q1.01823-.17448,2.03647-.34919c1.85962,4.06294,3.71877,8.12613,6.23243,13.618C1244.69893,136.0265,1242.21626,135.44779,1239.162,134.73583Zm14.79354-2.61448c-2.89311-3.37029-6.12278-5.44252-6.09942-7.47709.04195-3.59578,2.06412-7.16867,3.25731-10.75133q1.42153.46084,2.84211.92123Zm76.21582-50.78226c-11.61727-5.72545-18.25822-12.574-8.71224-22.75043C1328.47145,64.97458,1331.97808,72.0622,1330.17138,81.33909Zm-5.392,15.23425c-1.99881-5.24112-3.90277-10.23316-6.21287-16.29015C1330.89882,85.75146,1332.48625,90.24605,1324.77938,96.57334Zm-18.60049-46.086c4.02147,1.61674,8.04342,3.23372,13.58605,5.46207-3.69493,3.00943-6.159,5.01587-9.90494,8.06654-1.98738-4.93674-3.40176-8.45124-4.81614-11.9655Q1305.61161,51.26887,1306.17889,50.48732Zm9.874,27.37946c-3.58719,3.89491-6.16,6.68863-9.17463,9.96239-2.39353-4.0055-4.482-7.50022-7.85751-13.14867C1305.82518,75.95353,1310.60651,76.84807,1316.05285,77.86678Zm-15.36844-9.11957V57.26485c4.655,4.53321,7.85655,7.65109,11.05809,10.769l-1.25564,1.98C1307.467,69.62363,1304.447,69.23321,1300.68441,68.74721Zm-8.29178-7.23541c-3.88847-2.93959-7.52238-5.68707-11.15677-8.43455q.05292-1.05291.10536-2.10584c6.0875-.74127,12.17548-1.48231,20.00581-2.43571C1297.6173,53.9408,1295.19517,57.45029,1292.39263,61.5118Zm.93958,7.11027c-4.41522.66763-6.88788,1.0416-10.24817,1.54953-.2517-3.53738-.46288-6.51153-.67406-9.48592q1.04184-.50734,2.08415-1.01514C1287.03544,62.24426,1289.57627,64.81774,1293.33221,68.62207Zm5.80768-25.65093c-8.78183-.40854-17.18754,4.86714-21.18136-6.80733C1285.76693,34.46413,1292.02033,36.44984,1299.13989,42.97114ZM1268.373,74.599c-4.00145-.82279-7.14817-1.46968-10.97753-2.25719,2.3449-10.65242,10.19669-14.8169,18.98424-19.12963,1.36671,4.5232,2.60518,8.62285,4.12253,13.64468-4.9663-.66119-9.13793-1.21655-14.12568-1.8806C1267.14117,68.66164,1267.62408,70.99081,1268.373,74.599Zm-2.20952-36.48044c2.79967-.1833,6.395-1.51711,8.20263-.26648,2.40783,1.66632,3.42464,5.34289,5.03923,8.15616q-1.02467.80729-2.04839,1.61483-5.6139-3.53417-11.22732-7.06808Q1266.14677,39.33651,1266.16346,38.11854Zm-6.77015,9.97811c2.80588-2.306,8.18405-1.48254,12.44482-2.0186q.23454,1.49769.4686,2.99513-7.01612,5.502-14.03176,11.00422-.85378-.22416-1.70755-.44858C1257.39688,55.64811,1256.94544,50.10858,1259.39331,48.09665Zm.32083,26.505c3.15768.79729,5.87012,1.48183,9.16653,2.31416-4.001,4.65262-7.31025,8.50057-10.61905,12.34852l-1.74187-.5177C1257.50509,84.3826,1258.49091,80.01862,1259.71414,74.6016Zm-2.20237,38.5174a42.55435,42.55435,0,0,1,15.15154-26.93732c1.78477-1.52378,5.73951-.50554,8.86811-.66572,1.58218-8.953,4.11538-10.03127,12.80187-4.49459q1.46945-2.28783,2.93745-4.5735.74079.20058,1.48207.40115c-.53105,3.802-1.0621,7.6039-1.72376,12.339-3.57575-2.13444-6.21383-3.70923-9.01017-5.37817-.86188,2.706-1.59172,4.99728-2.43357,7.63917-3.69827-.32821-7.26544-.64474-11.48808-1.01943,1.4611,7.51142-2.1423,10.87337-9.64133,11.43779,1.2585,2.27959,2.20094,3.98619,3.4828,6.308C1264.6361,109.74108,1261.70294,111.13186,1257.51177,113.119Zm7.78552,11.67184c-2.13516-1.63032-3.7712-2.87905-5.09215-3.88775a6.99723,6.99723,0,0,1,.6016-2.833,10.1033,10.1033,0,0,1,.78132-1.46992,15.70549,15.70549,0,0,1,10.52084-6.71317c.03814-.08342.07675-.16709.11489-.25075l.04-.035c-.59779-.90288-1.19224-1.80075-1.7476-2.6388-.56489-.8533-1.08879-1.64438-1.53164-2.31272-.1311-.1976-.255-.3847-.37088-.55941,3.76357-2.89836,7.08667-5.4573,10.40977-8.01649q-.5792-1.10046-1.15886-2.2007c2.81779.18377,5.63559.36754,8.79661.57371.81516-2.31463,1.61221-4.57873,2.52033-7.15817,2.64951,1.71088,5.07927,3.27995,7.98287,5.15483,1.02825-2.76345,1.92255-5.16651,3.31595-8.91126,2.23383,3.12694,3.90372,5.46493,6.16807,8.635,1.92063-2.6929,3.63152-5.09191,6.8588-9.617,3.60293,7.34672,6.20907,12.66053,8.81473,17.97411q-1.27638.86343-2.55275,1.72685-3.77192-4.55919-7.54812-9.12291c-1.14409.80825-3.02564,3.25946-4.60972,3.08046-14.18145-1.60339-25.31486,4.33538-35.34708,13.392.05434.08175.10821.16351.16255.2455l-.0019-.00214c-.10536.00953-.21166.03265-.317.04552C1269.93275,114.64874,1267.75278,119.41816,1265.29729,124.79084Zm45.81119-7.76955c-11.30263-1.89489-20.68416-3.46754-31.05722-5.20655,6.97464-10.29274,10.81926-11.147,18.10328-5.57934,1.38149-2.086,2.75821-4.165,5.52881-8.34851C1306.44966,105.015,1308.33979,109.88623,1311.10848,117.02129Zm-33.27056-4.434c2.57754,1.56382,5.26138,3.19176,8.43527,5.11717-4.74463,4.45813-9.147,8.59448-13.59368,12.77255C1267.11067,127.25564,1268.40349,122.32843,1277.83792,112.58724Zm-7.611,36.44755c-.22835-1.54595-1.10167-3.36529-.58158-4.59471,4.11061-9.71259,9.93831-18.00914,21.362-23.48694,1.18222,5.51975,2.12419,9.91686,2.63808,12.31516-7.08906,5.46064-12.68413,9.90971-18.45748,14.11423C1273.84553,148.36025,1271.89677,148.50612,1270.22688,149.03479Zm3.509,11.24305c2.661-11.3701,4.59256-12.60047,12.2589-7.45517C1281.91421,155.30439,1278.19688,157.56492,1273.73589,160.27784Zm20.45582,19.93478c-2.9589-2.35349-6.87216-4.14684-8.65836-7.18917-2.85164-4.8557-.932-9.81579,4.1578-13.86682v11.0333q.57205.06936,1.14409.139.70075-2.8452,1.40056-5.69089l2.48982-.276,2.57849,13.90925Q1295.74815,179.24194,1294.19171,180.21262Zm9.27426-30.48518c-3.489,2.02074-6.12563,8.43288-11.02853,3.20964-1.39007-1.48088,1.06972-6.57517,1.76333-10.0122l10.01649,3.9614Q1303.84185,148.3071,1303.466,149.72744Zm2.06413,31.082c1.9297-7.05688,3.64011-13.31266,5.47494-20.0213C1316.27166,168.828,1315.28822,172.4495,1305.5301,180.80945Zm13.65088-14.5068q-1.20558-.044-2.41212-.08843a5.15625,5.15625,0,0,0,.06817-1.72471,5.444,5.444,0,0,0-.25122-1.0559,6.80381,6.80381,0,0,0-.35324-.83471c-.011-.02169-.02384-.0429-.0348-.06483-2.07891-4.04983-7.93854-6.90242-3.59911-12.98468l-.071.00977v-.00024l.13443-.29627a22.86314,22.86314,0,0,1-3.376-1.88822,4.05541,4.05541,0,0,1-.39185-.37278c-1.63367-1.78144-2.49412-5.1434-4.33848-5.71568-10.82069-3.356-8.07822-12.91818-10.36544-20.54067,7.25113-2.08939,13.71094-.89716,18.80595,3.83913,1.55548,1.4456.68025,5.50569.07627,9.23684-3.58767-6.88264-7.60437-5.86774-11.9767-1.82267h5.23945c2.78157,3.6115,5.29046,6.86953,7.79935,10.12732q1.05541-.37861,2.11036-.75724-1.78764,3.93852-3.57527,7.87729c.03432.01906.07055.0367.10439.05625l-.00715.00762.00048-.00047-.00048.00047c-.061.08152-.10916.159-.16637.23931,1.97594-.26934,3.95474-.53868,6.19858-.84448,2.27149-.30938,4.81423-.65571,7.9004-1.07616C1323.71109,155.0515,1321.44627,160.67707,1319.181,166.30265Zm5.1851-33.34469q-3.69325-7.23957-7.387-14.47915c-.10965.04076-.22072.08176-.33036.12252.07961-.09034.15922-.18139.23835-.272-1.34526-.75486-3.40938-1.27352-4.174-2.21405a1.33852,1.33852,0,0,1-.24312-.43309c-1.4058-4.32417-2.088-8.88337-3.54382-15.68521,5.67373,3.88108,9.9612,6.81376,15.02,10.27439-2.86642,3.27209-4.97536,5.67944-7.05617,8.0551l.01907.00953-.00286.00286.00095.00072.00143-.00143.07151.14015c2.59327-.96318,5.24707-1.94853,9.40679-3.49329.29937,6.13732.56775,11.63037.83613,17.12343Q1325.79429,132.53322,1324.36608,132.958Zm9.51452-11.41085c-6.77967-14.7635-6.87549-16.87339-1.40293-26.1784C1338.72582,104.17533,1339.26545,112.20611,1333.8806,121.54711Z"/><path class="cls-2" d="M1316.9071,118.33962l-.00095-.00072-.21642.221C1316.76123,118.48668,1316.90377,118.34152,1316.9071,118.33962Z"/><path class="cls-2" d="M105.84449,115.43864c.06673-6.74035.685-12.70391,8.66885-14.29848H85.9855c5.88633,1.36694,10.51131,3.35813,10.44076,10.486-.21833,21.97031.071,43.95682-.72269,65.9052-.36324,10.02817-4.05579,19.33962-12.85621,25.60636-21.127,15.04452-48.271,2.73533-50.56584-24.294-1.89442-22.309-1.03873-44.88258-.64307-67.32554.06674-3.77073,3.991-7.47328,5.872-10.75229H5.33014v1.48374c10.753.26171,12.39286,1.775,13.0693,12.34185.18878,2.95366.15827,5.92352.17162,8.88647.07484,16.54781-.22691,33.10729.30652,49.63984.44667,13.84752,4.69791,26.35979,17.00448,34.45469,28.69612,18.87484,65.714,1.88012,68.63957-32.18915C106.22823,155.5089,105.64618,135.42872,105.84449,115.43864Z"/><path class="cls-2" d="M559.12173,259.91576q.71148,33.34194,1.40866,66.68437c.0348,1.76643-.32368,3.54048-.62591,6.58709-29.37542-31.77157-57.775-62.48819-87.65718-94.80773-.34561,5.09405-.69741,7.94021-.7079,10.7878-.11012,29.65-.13491,59.3-.25742,88.95-.02908,6.96321-.03623,14.12234-9.7,15.14678h30.7345c-10.47937-3.26923-11.93666-4.93388-12.27178-16.00675-.66548-21.97579-1.19414-43.9561-1.73758-65.93547-.05435-2.19045.1759-4.38781.3375-7.99837,29.23861,31.91053,56.57612,63.06095,87.69961,90.86539a25.78012,25.78012,0,0,0,1.07591-8.636q.0801-42.25188.1883-84.50354c.03147-7.44778-2.06222-15.97576,11.20253-18.65221H545.58336C558.84763,246.78878,558.84143,246.789,559.12173,259.91576Z"/><path class="cls-2" d="M876.26488,242.385c10.76158,3.64726,11.59962,4.7258,11.83321,16.01914.22882,11.11029.5606,22.21963.65547,33.33111.11488,13.4385.02717,26.87892.02717,41.48344-29.18331-31.54489-57.75977-62.43384-86.33623-93.32279l-2.03219,1.114q0,5.08047-.00048,10.16093c-.03861,28.406.00811,56.81256-.17828,85.21765-.04815,7.39677.61924,15.66662-10.13805,17.112h31.30463c-10.66481-3.15077-11.90853-4.45431-12.30228-15.60393-.828-23.44117-1.52164-46.88735-2.20952-70.33353-.02861-.98654.55583-1.991,1.07735-3.72973,28.56025,31.24171,55.96259,62.37545,87.59711,92.194.27124-4.80946.51245-7.22277.52771-9.63751q.28173-44.08744.4705-88.17488c.01907-6.99181-.58682-14.0923,8.73464-15.82989H876.26488Z"/><path class="cls-2" d="M141.30168,194.9356c-.62972-17.536-.971-35.083-1.34954-52.62686-.13586-6.27771-.02193-12.5609-.02193-19.58989,29.01121,30.77764,57.57814,61.08478,86.146,91.39215q1.1112-.72579,2.2224-1.4518c.18067-3.14219.50673-6.28414.5196-9.42705q.18164-44.12176.25409-88.244c.00953-6.4436-.052-12.7971,8.615-14.089H206.98283c13.24282,3.80815,13.26618,3.80767,13.61608,17.41922.337,13.09409.71792,26.18842.89525,39.28513.14826,10.96918.03,21.94218.03,34.40917-29.46837-31.84212-57.979-62.64908-86.48925-93.45556q-1.099.42368-2.1976.84782c0,2.83185.00667,5.664-.001,8.496-.07723,28.9216-.01717,57.84462-.3356,86.76336-.07771,7.05426,1.39245,15.70166-9.60224,17.2171H154.075C142.50822,208.20107,141.75026,207.43334,141.30168,194.9356Z"/><path class="cls-2" d="M566.20221,199.40827c-5.97882-12.15808-11.663-24.46108-17.649-37.07417,2.76917-1.28973,4.99966-2.24718,7.1577-3.34694C568.17862,152.6339,576.11,137.9295,574.3014,124.593c-1.70565-12.579-9.39535-21.57131-23.573-22.74519-17.37584-1.43869-34.96143-.34275-52.45645-.34275,6.43455,1.01181,10.24436,3.908,10.19335,11.15153-.19926,28.41057-.0901,56.823-.19449,85.23456-.02241,6.09251-.8514,11.95644-8.06869,14.05251H531.2546c-2.875-1.97332-8.85-3.969-9.17987-6.65717-1.63081-13.29406-1.769-26.77142-2.42547-40.01615,17.09458-2.05149,17.00115-2.01073,23.04146,11.91449,3.53428,8.14829,6.78778,16.53326,11.40417,24.05231,2.60281,4.23908,7.24828,8.686,11.81081,9.90542,6.31346,1.68753,13.41634.42379,20.18076.42379C577.87763,210.049,570.19746,207.53321,566.20221,199.40827ZM522.90038,158.5474c-1.57265-.94316-2.52176-3.99716-2.62282-6.12707-.32559-6.89313-.12156-13.81129-.13158-20.71991s-.25884-13.832.15064-20.7161c.11441-1.91635,2.00359-5.17676,3.3722-5.3386,10.86217-1.28519,22.01226-2.24146,30.48662,6.75393,8.22837,8.73464,10.81878,19.312,7.45754,30.83771C557.398,157.68957,535.71989,166.23544,522.90038,158.5474Z"/><path class="cls-2" d="M377.01293,292.6312c-1.2585-.6414-2.45407-1.40485-3.29116-1.888,3.67538-5.68279,7.92042-10.67363,10.4174-16.42363,5.801-13.36056-.245-27.68836-14.31588-30.13171-14.89079-2.58587-30.34551-1.92278-45.55426-2.67883q-.40329,1.05293-.80706,2.1056c10.21719.14968,11.45137,6.59853,11.21016,14.19789-.133,4.19118-.00763,8.39022-.01811,12.58593-.05578,22.4575.06483,44.91809-.29413,67.37082-.10058,6.293.36277,13.7343-8.84237,16.31375q16.4384,0,32.87728-.00573a72.75892,72.75892,0,0,0,7.39653-.15063c17.05216-1.76881,28.76428-11.65492,31.49055-26.47182C399.97287,312.82626,392.93768,300.75327,377.01293,292.6312Zm-30.83747-24.26659c0-5.16317.27029-10.34446-.07484-15.48475-.35419-5.27187,2.08748-6.81233,6.91744-6.988,10.037-.36515,16.83431,3.98548,20.3519,13.57127,3.96141,10.7959,2.20428,24.606-5.44443,28.29545-5.473,2.63974-12.69509,1.83888-19.15251,2.01621-.80515.02193-2.32822-3.33311-2.44263-5.18987-.33274-5.38865-.11775-10.81115-.11775-16.22031ZM384.89,334.40091c-2.51318,13.64873-23.88379,20.92179-34.85083,12.00982a10.45472,10.45472,0,0,1-3.39746-6.9377c-.429-12.30777-.35324-24.63317-.44572-36.95262-.01812-2.43023-.00286-4.8607-.00286-7.53191C376.25068,289.79577,388.44094,315.11825,384.89,334.40091Z"/><path class="cls-2" d="M674.49111,314.87227c-.20117,5.18248-.04291,10.379-.04291,15.56914-.00047,16.87816-2.41021,19.2836-19.593,19.4004a46.4021,46.4021,0,0,1-6.64954-.40139c-35.2975-4.881-56.55323-39.4186-45.96326-74.63983,5.18414-17.24237,16.93679-26.8427,34.61057-28.98381a75.88509,75.88509,0,0,1,17.69761-.0808c13.84633,1.60268,27.11585,4.553,30.836,21.48121a146.09411,146.09411,0,0,0,1.70374-19.10365c.01382-1.4661-2.06317-4.12611-3.36839-4.251-14.45937-1.38339-29.00216-3.68968-43.4334-3.187-26.25206.9148-44.64566,16.51539-50.93576,40.85039-6.47935,25.06864,2.23526,51.25419,22.27063,63.3739,21.864,13.22566,45.294,13.90687,69.25547,6.06415,4.083-1.33644,5.73093-3.84629,5.61557-8.25555-.25122-9.63156-.20832-19.27932.03623-28.91207.16208-6.35564-.0062-13.23,8.71938-15.06549h-31.215C673.95672,300.185,674.79429,307.05076,674.49111,314.87227Z"/><path class="cls-2" d="M290.76155,258.09928c-.1411,14.57282.22167,29.15423-.12013,43.72038-.19592,8.34993-.52294,16.85933-2.282,24.97377-3.09666,14.28418-14.50132,23.11964-28.53689,23.53866-18.58333.55465-31.97584-10.636-33.30489-30.25994-1.41581-20.902-.94244-41.93583-1.15267-62.91364-.06435-6.43407.19068-12.95752,8.46435-14.65458H199.634c12.3881,3.57957,13.01019,4.12348,13.1718,15.60918.26457,18.77019-.204,37.5585.42665,56.31249.5134,15.26357,5.55264,28.72448,20.17122,36.31288,30.28068,15.71858,63.05785-1.80575,65.52861-35.64335,1.41867-19.42375.97485-38.99028,1.14837-58.4946.05912-6.64215.63259-12.5261,8.77564-14.1867H280.07958C290.404,243.2514,290.83639,250.3426,290.76155,258.09928Z"/><path class="cls-2" d="M898.66279,192.58832c-11.17822-28.48637-22.05707-57.09024-33.0918-85.6331-1.09069-2.82184-2.46265-5.53524-4.48006-10.02555-1.90538,4.599-3.10667,7.22683-4.09774,9.9314-10.78541,29.43191-21.62183,58.84546-32.24374,88.336-2.95365,8.20025-6.55229,15.35461-16.37333,16.80832h28.781c-8.15163-1.576-6.90553-7.3255-5.32335-12.62787,2.68-8.98253,5.63988-17.90284,9.03544-26.6339.72363-1.85962,3.75737-3.85748,5.82913-3.97356a190.91544,190.91544,0,0,1,24.44058.03933,9.56278,9.56278,0,0,1,6.77729,4.71769c3.9738,9.02519,7.28737,18.349,10.62191,27.6426,1.17126,3.26375,1.70421,6.75608,2.67573,10.749h25.53033C905.67843,210.32168,902.08457,201.30841,898.66279,192.58832ZM844.25091,163.0389c4.55395-14.11948,8.95869-27.77465,13.363-41.42981q1.034-.0615,2.06746-.12323c4.7718,13.62394,9.54408,27.24813,14.55423,41.553Z"/><path class="cls-2" d="M386.22951,112.00447c-3.1901,9.34124-6.52369,18.64053-10.07656,27.84949-6.825,17.68974-13.84728,35.30322-21.28671,54.21667-1.43774-2.78681-2.343-4.184-2.91647-5.70614-9.48926-25.17686-18.89843-50.384-28.42392-75.54677-2.13611-5.64369-3.93423-10.85167,4.8886-11.97956H293.853c10.36353,1.13551,13.89686,8.67982,17.17038,17.03905,11.70069,29.88073,23.68644,59.64966,35.60641,89.4441.95913,2.39639,2.24146,4.66288,4.12539,8.53442,2.01264-3.7731,3.41844-5.97929,4.42238-8.35542q19.44735-46.04526,38.796-92.13246c2.79968-6.65335,5.719-13.19229,14.16953-14.34472H379.51276C387.85412,103.697,388.634,104.96189,386.22951,112.00447Z"/><path class="cls-2" d="M479.18191,208.20154c1.719-4.22383,1.576-9.20609,2.25767-14.24461-3.19344,4.23027-5.40582,10.23959-8.64883,10.85978-8.4982,1.62461-17.46117,1.22751-26.20248.83423-1.78144-.08008-4.81709-3.63009-4.87525-5.64893-.42-14.68366-.22548-29.385-.22548-43.97327,21.43783-2.66835,27.17162-.85568,31.76465,10.78327.5854-7.32574,1.07783-13.484,1.43107-17.9-11.1787.50054-22.18626.99345-33.27438,1.48994V106.90136c18.45558-3.9576,29.47505-.55012,34.07429,11.26569.63115-6.7239,1.16411-12.40073,1.65559-17.63707H417.987c6.50271,1.69682,10.63143,4.56467,10.56565,12.11374-.24884,28.42392-.15874,56.8507-.26934,85.27605-.02383,6.07248-.69885,11.95071-8.39379,14.23794,17.4831.777,34.52524.97891,51.55213.57085C474.15984,212.66349,478.26425,210.4554,479.18191,208.20154Z"/><path class="cls-2" d="M754.87856,348.53754a99.927,99.927,0,0,1-10.36735-.09248c-8.35613-.58706-11.13436-3.00609-11.58485-11.29453-.48242-8.86668-.338-17.7746-.26314-26.663.13777-16.38239-1.97546-13.935,14.28347-13.60989,7.43133.1485,16.05012-.99225,18.28491,9.77743.53152-6.06629,1.06305-12.13234,1.4344-16.37119-10.29012.47909-20.412,1.053-30.541,1.27423-1.09451.02407-3.18914-1.97951-3.20678-3.06925-.22262-13.47617-.14539-26.95734-.14539-40.24855,22.08757-3.01229,30.20535-.43237,34.77932,10.15045.49-5.43609.98058-10.87242,1.46157-16.20458H710.20287c5.77716,2.22882,10.53228,4.455,10.45315,12.06464-.297,28.39723-.154,56.79874-.27172,85.19811-.02575,6.21287-.86236,12.16237-9.08263,13.87945,17.97076.86,35.42907.97486,52.88214.71816,2.24908-.03289,5.904-1.52569,6.43215-3.14839,1.54023-4.7308,1.82578-9.87014,2.60328-14.84931C768.457,346.05726,765.71164,348.17072,754.87856,348.53754Z"/><path class="cls-2" d="M96.10305,258.61436c3.817-3.653,6.29058-8.11993,9.36246-8.57875,10.508-1.57,21.22617-1.73211,31.90766-2.434,0,32.90445.03766,63.99791-.0348,95.09112-.01335,5.61557-3.03374,9.13531-8.5225,10.6026H162.709c-11.77409-3.60793-12.05106-3.60983-12.20217-17.01283-.2641-23.46548-.15779-46.93526-.20165-70.40313-.01049-5.62224-.00143-11.24472-.00143-17.19088,8.1154,0,15.44424-.12156,22.76736.03432,7.21586.15374,13.67709,1.7538,16.01628,10.07179V241.49046H100.01965C98.97662,246.05156,97.64948,251.85232,96.10305,258.61436Z"/><path class="cls-2" d="M775.48549,195.51408c-.07675-1.23108-.102-2.4667-.1044-3.70041q-.08223-39.258-.12823-78.51567c-.001-2.11561.34132-4.23146.52437-6.35374,8.35089,0,16.00246-.369,23.60016.11131,6.63142.419,13.03545,2.03,15.11912,10.19549V100.0087H724.893c-1.02348,4.83044-2.16138,10.19955-3.29879,15.56866,11.4609-15.46712,27.30557-6.13136,41.1662-9.64943,0,31.90576.09868,62.2-.08914,92.49261-.0348,5.60079.09009,11.945-7.61582,13.44662h34.27164C776.55569,208.58767,776.28063,208.2392,775.48549,195.51408Z"/><path class="cls-2" d="M904.254,115.953c11.36175-16.00865,27.40616-6.7034,41.13426-9.7095,0,32.58793.21547,63.88994-.28649,95.18028-.05959,3.71566-4.03959,7.3684-5.80768,10.37831h33.06844c-12.6541-2.88811-13.38965-3.13886-13.598-14.56-.52676-28.88822-.552-57.78575-.72411-86.67969a17.05526,17.05526,0,0,1,.88476-3.72949c7.60676,0,14.999-.33632,22.346.097,6.98656.41211,13.82154,1.78144,15.91093,10.415V99.91241H907.87318C906.78582,104.73307,905.51969,110.34315,904.254,115.953Z"/><path class="cls-2" d="M621.957,214.55648c13.82821-.383,26.06519-4.63213,31.8762-18.66246,5.84916-14.1221,2.49841-26.75212-8.24315-37.25271-5.81388-5.68373-12.40954-10.559-18.44366-16.02963-4.00383-3.63033-8.13685-7.30142-11.3155-11.61487-4.28986-5.82031-4.33562-12.55375-1.01491-18.94873,3.14768-6.06223,8.69841-8.49676,15.30933-8.70627,11.11291-.352,19.94861,2.778,23.144,15.1177V100.729c-6.00646-.84305-11.83654-2.27674-17.68474-2.354-12.114-.1597-23.53151,2.40354-29.42595,14.52467-5.9607,12.257-2.997,23.74293,5.606,33.66,4.33943,5.002,9.69138,9.12482,14.58092,13.64945,4.70936,4.35707,9.83439,8.353,14.02462,13.163,7.00325,8.03889,7.8861,18.15311,3.09952,26.1131-4.61592,7.67612-13.72715,11.25616-23.94767,9.40941-10.26438-1.85461-14.93226-6.94009-17.0431-18.44651-.13062-.71148-.809-1.32262-1.64558-2.6214C598.456,211.44051,601.29044,215.12924,621.957,214.55648Z"/><path class="cls-2" d="M433.72538,338.23527c-.27077-27.37446-.12156-54.7532-.25933-82.12956-.03194-6.292.634-11.858,8.05724-13.71428H414.14145c1.99834,3.29926,6.30106,7.13339,6.37495,11.04712.542,28.85438.30366,57.725.153,86.58984-.03147,6.01433-1.0211,11.81795-8.73941,13.10434h33.93032C434.56009,350.32947,433.84074,349.9064,433.72538,338.23527Z"/><path class="cls-2" d="M707.53047,100.74521H679.34728c2.15423,3.04947,6.57184,6.40713,6.62857,9.83677.49386,29.87238.30509,59.75859.05768,89.63836-.04338,5.23039-1.24325,10.49844-8.06583,11.70307H711.059c-11.01947-3.1074-11.61678-3.361-11.756-15.3265-.32177-27.645-.14063-55.29568-.3642-82.94257C698.8864,107.17951,700.84422,102.59124,707.53047,100.74521Z"/><path class="cls-2" d="M274.64373,197.45141c-.5587-28.12074-.39662-56.25649-.44429-84.38628-.00953-5.7991,1.46444-10.80258,8.339-12.201H253.26883c7.67492,1.704,8.58543,7.34719,8.63071,13.29621q.17877,23.32473.02956,46.65138c-.10249,13.31671-.03623,26.66107-.96533,39.92868-.27744,3.96093-3.65679,7.70448-5.36339,11.05308H288.6979C275.61287,208.97523,274.873,208.98977,274.64373,197.45141Z"/><path class="cls-2" d="M618.4284,42.65079c4.4486,5.76692,8.37616,10.16856,11.51763,15.0736,6.43788,10.05439,14.83549,14.92106,26.98428,11.20682a67.53309,67.53309,0,0,1,1.28471-7.32907c3.77359-13.4397,3.81887-13.18157,15.7069-13.31194,4.83711-.05316,7.09049,1.69348,8.38426,6.18951,1.47635,5.12766,3.643,10.0563,5.54359,15.16418h7.14959C687.57375,51.17139,680.08427,32.539,672.242,13.03035c-1.31808,3.20345-2.32345,5.438-3.16722,7.73213C663.96168,34.666,658.931,48.60053,653.76833,62.48571c-1.58218,4.25434-3.97141,8.73154-8.75036,3.46158-7.72594-8.51964-14.78925-17.64041-22.53425-26.99238,8.973-8.5604,17.13892-16.3514,25.23239-24.073h-7.93425q.62137.67716,1.24276,1.35455c-7.25018,7.60556-14.49989,15.21113-22.5905,23.69859V14.92715h-7.458V69.43366h7.4523ZM670.51635,24.896c1.11549,1.52306,1.87965,2.1976,2.18045,3.038,1.98594,5.54644,3.87226,11.12888,6.05127,17.45544H663.85252C666.06633,38.58118,668.16,32.14282,670.51635,24.896Z"/><path class="cls-2" d="M550.43,70.70193c17.08886-.69837,27.80945-12.36211,27.717-29.34682-.08723-15.95168-10.07035-25.79561-27.43809-26.59814-7.86561-.36325-15.7622-.06149-22.76926-.06149V69.6906C535.23365,70.05623,542.85757,71.01131,550.43,70.70193ZM535.05155,60.60678c-.57824-6.35636-.19545-12.80044-.19545-19.20948h-.12537c0-6.40951.14825-12.8238-.05673-19.22664-.11965-3.72686,1.33238-5.20369,5.01492-5.63606,20.84433-2.44716,36.24233,14.47534,31.63594,34.62726-3.83984,16.80069-20.53495,19.35868-32.13457,16.14189C537.27537,66.7727,535.27178,63.02605,535.05155,60.60678Z"/><path class="cls-2" d="M402.169,34.46746c-.07007,1.22561-2.33632,3.28664-3.64058,3.32692-9.3186.28912-18.65055.15421-27.88095.15421V14.87591h-7.54717V69.35739H370.699V40.29683c9.393,0,18.95373-.13443,28.49971.18139,1.10929.03647,3.00753,2.53463,3.0571,3.94424.2927,8.24673.14349,16.509.14349,25.066h6.8488V14.8771h-6.907C402.34113,21.56573,402.53658,28.03268,402.169,34.46746Z"/><path class="cls-2" d="M715.34125,46.95209c5.719-1.86916,8.788.04576,10.51656,5.27758,1.22894,3.71829,3.38268,7.12,4.86428,10.76826,2.16375,5.32668,5.79957,7.69852,10.435,6.7699-4.23741-8.18881-8.32657-16.09041-12.53491-24.223,2.35587-1.33763,3.90086-2.08343,5.30571-3.03612,6.25625-4.24243,9.23851-12.03891,6.95415-18.80309-2.34109-6.93294-8.07107-8.87765-14.63146-9.04-6.51034-.16112-13.02783-.03527-18.45843-.03527V69.39958h7.54907Zm-.79752-17.0667c-.00191-.92552-.1168-1.87463-.072-2.7911a5.99884,5.99884,0,0,1,.10869-.90335c.64308-3.14219.94626-8.59568,2.33966-8.91078,3.77645-.85449,9.27188-.93052,11.82272,1.28758,3.45515,3.00418,6.36543,8.36185,6.5685,12.84286.1678,3.71567-3.01038,9.00279-6.302,11.17512-8.24744,5.443-14.44125,1.49685-14.46223-8.25721C714.54373,32.84739,714.54659,31.36651,714.54373,29.88539Z"/><path class="cls-2" d="M323.14449,46.81408c5.66753-1.57884,8.80233.209,10.46126,5.54383a73.49129,73.49129,0,0,0,5.18748,11.42515c2.98178,5.81506,4.41285,6.37876,9.85966,5.45158-3.90516-7.41036-8.04914-15.27453-12.30944-23.35847,2.06461-1.33334,3.28926-2.08963,4.47863-2.89788,6.52178-4.43239,9.79292-11.92045,8.04771-18.38431-1.75475-6.49746-7.00039-9.78362-16.26655-9.97192-5.894-.11989-11.79174-.0224-16.80666-.0224V69.2885h7.34791ZM322.183,30.26556h-.02717c0-1.48207-.00382-2.96438.00047-4.44645.02527-9.3708,4.03148-11.95977,12.89054-8.33206,6.41833,2.62854,10.28726,11.17607,8.1297,17.961-2.07128,6.51487-9.73571,10.70986-16.76471,8.58257-1.74187-.527-3.58338-3.00728-4.052-4.91553C321.67338,36.31946,322.183,33.22994,322.183,30.26556Z"/><path class="cls-2" d="M486.98078,46.99785c5.485-1.83912,8.73988-.27792,10.49891,5.05306,1.227,3.71972,3.32215,7.1434,4.7985,10.7928,2.139,5.28688,5.72187,7.78862,10.49844,6.88336-4.18641-8.11611-8.26509-16.02343-12.43338-24.10451,1.88631-1.12454,2.94269-1.71994,3.96474-2.36921,7.19918-4.57159,10.29775-11.51334,8.40428-18.7938-1.69039-6.497-6.80017-9.64609-16.267-9.8239-5.89015-.1106-11.78364-.0205-16.9163-.0205V69.4513h7.45183Zm-.77512-8.68339a77.84414,77.84414,0,0,1,.00047-8.43121q-.01357-1.85307-.00858-3.70566c.01-9.79864,5.01635-12.77994,13.85825-8.2534,6.22527,3.18676,9.34481,11.82629,6.7239,18.6217-2.24814,5.82913-10.3049,9.637-16.76614,7.43228a6.79309,6.79309,0,0,1-3.63248-4.49245C486.30767,39.09792,486.25047,38.7075,486.20566,38.31446Z"/><path class="cls-2" d="M261.90383,60.16011c3.26828-7.86966.64975-13.50143-10.55278-22.069,1.05733-1.39031,2.24861-2.27817,2.466-3.36124.91384-4.55752,3.44132-10.14544,1.73138-13.49452-1.71136-3.35194-7.56528-5.34075-11.96668-6.3597-4.56682-1.05733-9.56935-.23549-13.15845-.23549V69.05349C249.72835,71.67226,258.11976,69.2723,261.90383,60.16011ZM237.35694,22.63783c.15875-2.12848,1.23276-5.62343,2.49745-5.92137a9.87864,9.87864,0,0,1,7.51476,1.55906c5.02016,4.001,5.739,9.75264,3.5891,15.48-2.30439,6.14089-7.56,5.1453-13.71667,4.128C237.24158,32.44958,236.99227,27.5207,237.35694,22.63783Zm-.08866,35.94058c-.03957-1.95925-.00572-3.91993-.00572-5.8799h-.0267a24.991,24.991,0,0,1,.03051-3.67038c.41664-2.78061.74938-7.8227,1.54547-7.90708,3.41654-.36253,8.3814-.49911,10.20908,1.56264a34.85529,34.85529,0,0,1,7.817,14.81522c.59349,2.62712-2.61282,7.4647-5.40916,9.24424C244.01887,71.45846,237.44561,67.3283,237.26828,58.57841Z"/><path class="cls-2" d="M447.34479,48.59338A9.09482,9.09482,0,0,1,453.643,52.9116c2.61615,5.21465,4.30558,10.89434,6.47173,16.672h6.96273c-7.285-18.31852-14.60191-36.71712-22.62244-56.88478-7.5281,20.18958-14.36594,38.52836-21.12654,56.66026h6.21335C429.60285,53.32681,434.38037,47.64331,447.34479,48.59338Zm-4.90766-22.9516q.80658.02574,1.61317.05124c2.26052,6.33921,4.52105,12.67841,7.049,19.76675H436.08744C438.26884,38.65125,440.353,32.14663,442.43713,25.64178Z"/><path class="cls-2" d="M214.79648,63.12711a12.06792,12.06792,0,0,1-1.89442,2.38018c-5.894,4.37662-16.80332,2.66668-17.31864-2.93125-.62162-6.7475-.1473-13.59582-.1473-21.41542,5.85869.64307,10.74776,1.17984,16.105,1.76785.09248-.56513.35658-2.17925.66262-4.05007H195.62156V16.69263c6.0794.78608,11.57913,1.49708,17.25476,2.231-.04481-.56633-.18592-2.33847-.32321-4.06056H188.49675V70.28315q9.576,0,19.14822-.00167C214.29689,70.27361,214.29689,70.26789,214.79648,63.12711Z"/><path class="cls-2" d="M801.78,68.00474c-3.008-.04934-5.964-3.26232-8.94295-5.06783.07293,2.75606,1.11453,6.11133,3.23586,7.065,7.62678,3.42917,18.00032.25075,21.8783-5.96523,4.10251-6.57588,2.69624-15.18252-3.81648-21.43973-3.72783-3.58171-7.90851-6.68815-11.7107-10.19788-4.10823-3.79289-5.96737-9.178-1.81672-12.95156,2.77966-2.527,8.34374-2.50388,12.676-2.55942,1.7538-.0224,3.54429,2.78061,6.76538,5.5362-1.22942-3.65036-1.309-6.50915-2.75344-7.67159-3.96427-3.18962-15.29789-1.35908-19.48621,2.58516-4.16495,3.92184-5.11836,11.58556-1.55548,17.07242,1.97689,3.04471,4.788,5.5791,7.386,8.18118,2.95413,2.9589,7.23922,5.21609,8.83236,8.73512,1.68849,3.73044,2.528,9.54765.69361,12.65909C811.54953,66.72741,805.71707,68.0691,801.78,68.00474Z"/><path class="cls-2" d="M295.92,70.42925c5.38007.235,7.8861-1.74687,7.14864-7.16246-1.17126,1.10213-2.18711,2.48982-3.55287,3.24277-5.80815,3.20226-15.25022,1.2063-15.67782-3.57456-.62162-6.95057-.15922-13.99816-.15922-21.9715,5.97309.81731,10.88266,1.489,16.11639,2.20523.10106-1.07377.255-2.70958.41521-4.41427-4.4772.21165-8.6598.75867-12.7685.41878-1.49018-.12323-3.90277-2.282-4.0086-3.65727-.45-5.8296-.19116-11.71355-.19116-18.71633,6.34016.60589,11.65588,1.11382,17.5813,1.67991.031-.13682.38184-1.67156.79609-3.48184h-24.9068V70.364C283.15718,70.364,289.54929,70.1511,295.92,70.42925Z"/><path class="cls-2" d="M781.33273,70.38158c4.48292.07437,6.38211-1.755,5.41059-6.77753-.86522.81064-1.42106,1.80075-2.08272,1.877-5.19082.59874-10.69961,2.18688-15.47.9658-2.11227-.54058-3.62771-6.81924-3.86606-10.59115-.55918-8.8469-.29508-17.75458-.144-26.63366.08057-4.73009.61924-9.45231.9639-14.35283h-7.98431V70.347C766.114,70.347,773.725,70.25573,781.33273,70.38158Z"/><path class="cls-2" d="M886.71088,107.533c-.22691-2.15041-3.80981-5.60246-5.71949-5.47542-2.11322.14039-5.38388,3.56574-5.58887,5.79624-.19783,2.14969,2.87214,4.60019,5.80959,8.76657C884.00893,112.28858,886.94447,109.74346,886.71088,107.533Z"/><path class="cls-2" d="M259.02025,285.72615c2.01646.36063,4.60734-2.48911,9.07787-5.23134-4.317-3.04757-6.68052-6.016-8.82-5.8625-2.15947.15517-4.09679,3.40628-6.13184,5.30094C255.08173,281.9907,256.78833,285.32715,259.02025,285.72615Z"/><path class="cls-2" d="M259.50506,256.39149c1.86153-2.12586,5.08833-4.18688,5.19273-6.39617.10011-2.11537-3.04184-4.38448-6.271-8.52488-2.54512,4.46218-5.31954,7.14936-4.89622,9.16486C254.001,252.87366,257.388,254.49922,259.50506,256.39149Z"/><path class="cls-2" d="M843.59544,113.36855c2.168.01836,4.36327-3.24325,8.39094-6.60925-4.44-2.45741-7.19012-5.22372-9.24662-4.77919-2.19.47336-5.25613,4.0956-5.10883,6.13922C837.77632,110.13674,841.44837,113.35068,843.59544,113.36855Z"/><path class="cls-2" d="M1318.79914,148.70467c-2.24384.3058-4.22264.57514-6.19858.84448"/><line class="cls-2" x1="1312.76693" y1="149.30984" x2="1312.76741" y2="149.30937"/><line class="cls-2" x1="1272.42305" y1="109.8419" x2="1272.42496" y2="109.84405"/></svg>