<?xml version="1.0" encoding="UTF-8"?><svg id="Layer_1" xmlns="http://www.w3.org/2000/svg" viewBox="0 0 707.38 181.35"><polygon points="0 67.91 0 77.43 0 94.54 0 107.96 0 144.73 24.95 144.73 24.95 115.02 61.47 115.02 61.47 94.53 24.95 94.53 24.95 73.81 64.36 73.81 64.36 52.8 0 52.8 0 67.91"/><path d="M128.05,114.92c0,6.96-2.1,9.46-10.11,9.46h-4.33c-8.01,0-10.11-2.5-10.11-9.46V52.8h-24.95v63.17c0,21.54,12.21,30.08,32.44,30.08h9.59c20.23,0,32.44-8.54,32.44-30.08V52.8h-24.95v62.12Z"/><rect x="260.69" y="52.8" width="24.95" height="91.94"/><path d="M344.22,51.48h-8.14c-21.54,0-33.75,8.54-33.75,31.39v31.78c0,22.85,12.22,31.39,33.75,31.39h8.14c21.54,0,33.75-8.54,33.75-31.39v-31.78c0-22.85-12.21-31.39-33.75-31.39Zm8.8,64.09c0,6.96-2.1,9.46-10.11,9.46h-5.52c-8.01,0-10.11-2.5-10.11-9.46v-33.62c0-6.96,2.1-9.46,10.11-9.46h5.52c8.01,0,10.11,2.5,10.11,9.46v33.62Z"/><path d="M418.19,73.81h32.93l5.52-21.01h-38.44c-2.22,0-4.29,.13-6.27,.35-16.1,1.78-23.94,10.71-23.94,24.87v3.68c0,12.21,4.34,20.23,17.47,24.56l20.75,6.83c3.02,1.05,4.07,2.1,4.07,4.99v1.18c0,2.49-1.58,4.46-5.25,4.46h-31.54l-5.57,21.01h37.11c19.96,0,30.21-9.85,30.21-25.87v-3.42c0-8.38-2.86-14.64-8.63-19.03-2.37-1.8-5.21-3.29-8.57-4.48l-13.91-4.87-6.71-2.35c-3.15-1.05-4.47-2.23-4.47-5.25v-1.18c0-2.5,1.58-4.47,5.25-4.47Z"/><path d="M245.49,88.27v-7.77c0-19.87-11.98-27.9-33.43-27.9h-40.93v92.13h25.01v-28.56h8.03l16.58,28.56h28.3l-20.8-32.77c11.32-3.69,17.24-11.45,17.24-23.69Zm-25.01,0c0,4.34-2.11,6.84-8.82,6.84h-15.53v-21.45h15.53c6.71,0,8.82,2.5,8.82,6.84v7.77Z"/><polygon points="539.43 106.38 515.29 106.38 496.9 106.38 498.83 99.42 506.06 73.19 512.02 94.4 536.53 94.4 529.74 72.5 506.25 72.5 511.68 52.8 489.29 52.8 460.65 144.73 486.39 144.73 491.32 126.74 520.86 126.74 525.8 144.73 552.06 144.73 540.12 106.38 539.43 106.38"/><polygon points="697.88 69.63 636.9 67.17 707.38 33.55 698.15 0 570.04 62.7 579.97 94.33 647.67 94.33 613.04 111.18 634.94 181.35 643.79 180.88 643.79 133.41 707.13 103.19 697.88 69.63"/></svg>