<svg id="Layer_1" data-name="Layer 1" xmlns="http://www.w3.org/2000/svg" viewBox="0 0 424 227.75591"><defs><style>.cls-1{fill:#d82028;}</style></defs><title>netflix-genie</title><path class="cls-1" d="M66.84932,120.17738c-6,1.1-12.1,1.4-18.5,2.2l-19.3-56.6v59c-6,.6-11.5,1.5-17.2,2.3v-108.1h16l22,61.3v-61.3h17v101.2Zm33.3-61.6c6.5,0,16.6-.3,22.6-.3v16.9c-7.5,0-16.3,0-22.6.3v25.1c9.9-.6,19.8-1.5,29.9-1.8v16.3l-46.8,3.7v-99.8h46.8v16.9h-29.9Zm92.6-22.7h-17.5v77.7c-5.7,0-11.4,0-16.9.2v-77.9h-17.5v-16.9h51.9Zm27.5,21.6h23.1v16.9h-23.1v38.3h-16.6v-93.7h47.2v16.9h-30.6Zm58.1,40.4c9.6.2,19.3,1,28.7,1.5v16.7c-15.1-1-30.2-1.9-45.6-2.2v-94.9h16.9v78.9Zm42.9,19.3c5.4.3,11.1.6,16.6,1.3v-99.5h-16.6Zm90.6-98.2-21.4,51.4,21.4,56.7c-6.3-.8-12.7-2-19-3.1l-12.1-31.2-12.4,28.8c-6.1-1.1-12-1.4-18.2-2.2l21.7-49.5-19.6-50.8h18.2l11.1,28.4,11.8-28.4,18.5-.1Z"/><path d="M136.95341,158.33285a12.628,12.628,0,0,1,6.19043,5.8291v-5.793h10.25733v38.15136q0,7.78564-2.61963,11.7334-4.50221,6.78809-17.26758,6.78906-7.7124,0-12.582-3.02539a11.16514,11.16514,0,0,1-5.38672-9.04h11.438a4.73415,4.73415,0,0,0,1.439,2.65625q1.69629,1.44,5.71875,1.43946,5.68214,0,7.60108-3.80078,1.25391-2.43457,1.25439-8.19043v-2.583a12.81944,12.81944,0,0,1-3.24707,3.874,13.05228,13.05228,0,0,1-8.15429,2.39844A15.42708,15.42708,0,0,1,119.2166,193.329q-4.6311-5.44189-4.63086-14.74024,0-8.96631,4.459-15.07226Q123.503,157.411,131.68388,157.41A13.81488,13.81488,0,0,1,136.95341,158.33285Zm3.58106,28.834q2.53564-2.78467,2.53564-8.87305,0-5.71875-2.40674-8.708a7.85368,7.85368,0,0,0-6.44775-2.98828,7.6,7.6,0,0,0-7.606,5.20215,18.50865,18.50865,0,0,0-1.10254,6.82617,15.62607,15.62607,0,0,0,1.17579,6.23535,7.66276,7.66276,0,0,0,7.64257,5.0918A8.07357,8.07357,0,0,0,140.53447,187.16684Z"/><path d="M189.42265,159.18442a16.34893,16.34893,0,0,1,6.94971,5.94921,19.76976,19.76976,0,0,1,3.20459,8.31446,51.39566,51.39566,0,0,1,.34619,7.98144h-29.291q.24464,6.05274,4.20557,8.48633a10.6799,10.6799,0,0,0,5.79785,1.5127,8.16565,8.16565,0,0,0,8.00293-4.61231h10.73584q-.42407,3.58008-3.89844,7.26953-5.40379,5.86524-15.13037,5.86621a21.92176,21.92176,0,0,1-14.166-4.94824q-6.137-4.94825-6.13672-16.10156,0-10.4502,5.54-16.02637,5.54-5.57519,14.38183-5.57617A22.8869,22.8869,0,0,1,189.42265,159.18442Zm-15.73144,9.084a10.92716,10.92716,0,0,0-2.80127,6.22461h18.1167a8.77433,8.77433,0,0,0-2.80127-6.35449,9.21578,9.21578,0,0,0-6.23682-2.168A8.33876,8.33876,0,0,0,173.69121,168.2684Z"/><path d="M237.67216,160.67563q3.94923,3.26513,3.94922,10.8291v27.082H230.848V174.12387a11.21933,11.21933,0,0,0-.84375-4.87012q-1.5381-3.0996-5.85938-3.09961-5.31153,0-7.28906,4.53906a15.69115,15.69115,0,0,0-1.02539,6.124v21.76953H205.31474V158.4432h10.1836v5.86622a17.869,17.869,0,0,1,3.82031-4.46387A13.23837,13.23837,0,0,1,227.512,157.41,15.42113,15.42113,0,0,1,237.67216,160.67563Z"/><path d="M262.20927,153.57309H251.54619V143.869h10.66308Zm-10.66308,4.7959h10.66308v40.21777H251.54619Z"/><path d="M298.5999,159.18442a16.353,16.353,0,0,1,6.95019,5.94921,19.78205,19.78205,0,0,1,3.20411,8.31446,51.38375,51.38375,0,0,1,.34667,7.98144h-29.292q.24464,6.05274,4.20606,8.48633a10.67985,10.67985,0,0,0,5.79785,1.5127,8.16565,8.16565,0,0,0,8.00293-4.61231h10.73633q-.42481,3.58008-3.89844,7.26953-5.40381,5.86524-15.13086,5.86621a21.92273,21.92273,0,0,1-14.166-4.94824q-6.13768-4.94825-6.13671-16.10156,0-10.4502,5.54-16.02637,5.54-5.57519,14.38184-5.57617A22.88855,22.88855,0,0,1,298.5999,159.18442Zm-15.73145,9.084a10.92367,10.92367,0,0,0-2.80078,6.22461h18.11621a8.77274,8.77274,0,0,0-2.80176-6.35449,9.21273,9.21273,0,0,0-6.23632-2.168A8.33953,8.33953,0,0,0,282.86845,168.2684Z"/></svg>