<svg id="Layer_1" data-name="Layer 1" xmlns="http://www.w3.org/2000/svg" xmlns:xlink="http://www.w3.org/1999/xlink" viewBox="0 0 1684.8 465.46894"><defs><style>.cls-1{fill:none;}.cls-2{fill:#fefefe;}.cls-3{fill:#49bcd7;}.cls-4{fill:#64abd9;}.cls-5{fill:#4bbbd6;}.cls-6{fill:#3dbfc6;}.cls-7{fill:#3973c2;}.cls-8{fill:#49bcd4;}.cls-9{fill:#2950aa;}.cls-10{fill:url(#linear-gradient);}.cls-11{fill:url(#linear-gradient-2);}.cls-12{fill:url(#linear-gradient-3);}.cls-13{fill:#3a74be;}.cls-14{fill:url(#linear-gradient-4);}.cls-15{fill:#4a72ba;}.cls-16{fill:url(#linear-gradient-5);}.cls-17{fill:url(#linear-gradient-6);}.cls-18{fill:#4971c3;}.cls-19{fill:url(#linear-gradient-7);}.cls-20{fill:url(#linear-gradient-8);}.cls-21{fill:url(#linear-gradient-9);}.cls-22{fill:url(#linear-gradient-10);}.cls-23{fill:#3867ba;}.cls-24{fill:url(#linear-gradient-11);}.cls-25{fill:url(#linear-gradient-12);}.cls-26{fill:#fff;}</style><linearGradient id="linear-gradient" x1="95.73468" y1="267.37825" x2="402.52655" y2="159.23842" gradientUnits="userSpaceOnUse"><stop offset="0" stop-color="#2c5bb5"/><stop offset="0.1984" stop-color="#336ec1"/><stop offset="0.58489" stop-color="#3e8fd6"/><stop offset="0.79669" stop-color="#429cde"/></linearGradient><linearGradient id="linear-gradient-2" x1="123.60654" y1="346.4505" x2="430.39841" y2="238.31067" xlink:href="#linear-gradient"/><linearGradient id="linear-gradient-3" x1="109.23184" y1="305.6696" x2="416.02371" y2="197.52977" xlink:href="#linear-gradient"/><linearGradient id="linear-gradient-4" x1="121.80014" y1="341.32577" x2="428.59201" y2="233.18593" xlink:href="#linear-gradient"/><linearGradient id="linear-gradient-5" x1="119.19738" y1="333.94176" x2="425.98925" y2="225.80192" xlink:href="#linear-gradient"/><linearGradient id="linear-gradient-6" x1="89.60651" y1="249.99269" x2="396.39838" y2="141.85285" xlink:href="#linear-gradient"/><linearGradient id="linear-gradient-7" x1="95.76347" y1="267.45994" x2="402.55534" y2="159.3201" xlink:href="#linear-gradient"/><linearGradient id="linear-gradient-8" x1="105.36582" y1="294.70174" x2="412.15769" y2="186.56191" xlink:href="#linear-gradient"/><linearGradient id="linear-gradient-9" x1="115.90746" y1="324.60829" x2="422.69933" y2="216.46845" xlink:href="#linear-gradient"/><linearGradient id="linear-gradient-10" x1="50.08933" y1="132.47994" x2="328.67789" y2="34.28138" xlink:href="#linear-gradient"/><linearGradient id="linear-gradient-11" x1="41.6576" y1="108.55917" x2="320.24616" y2="10.36061" xlink:href="#linear-gradient"/><linearGradient id="linear-gradient-12" x1="53.80383" y1="143.01794" x2="332.39239" y2="44.81938" xlink:href="#linear-gradient"/></defs><title>gluon</title><path class="cls-1" d="M1590.73853,294.21538c-27.95826-29.54126-56.95-58.10522-85.55433-87.03393-1.73339-1.75318-3.3175-4.72266-6.34851-3.11182-2.422,1.28735-1.30041,4.17822-1.30566,6.3352-.07495,30.59205-.26587,61.18653.10376,91.77417.05664,4.69873-.92774,7.25171-3.61865,8.272h120.42309C1605.45532,308.04521,1598.0481,301.939,1590.73853,294.21538Z"/><path class="cls-1" d="M335.43219,211.20488c-40.041.92945-86.74347,20.04737-113.87463,42.72608-42.99378,35.93847-57.26172,66.85522-57.26172,66.85522s-.24121-.11011-.69269-.32666c.44464.22925.68378.3479.68378.3479l.03357.03c.05664.05029.19274.16943.394.33862l.02087.01758c.10016.084.21216.177.3465.28614.16705.082.33679.15844.504.23974.35974.17529.7229.34277,1.08361.51538,1.066.5105,2.1258,1.03394,3.20148,1.5232.28382.1289.57221.24755.85651.375.72882.3269,1.46606.63476,2.19916.95214q5.701,2.46681,11.567,4.54786,3.15327,1.11914,6.34894,2.12622c.271.08545.54163.17187.813.2561l.00256.00073q3.199.9928,6.43726,1.87622A199.79208,199.79208,0,0,0,222.27,338.87969a214.46523,214.46523,0,0,0,30.32458,2.158c.26923,0,.53968-.00806.80921-.00879.36609-.00122.733-.009,1.0993-.012,3.59613-.029,7.20032-.12414,10.81409-.32629q3.22074-.18036,6.44794-.44861a152.45148,152.45148,0,0,0,15.42474-2.08691c.90356-.19678,1.81879-.40747,2.73279-.61695q6.89639-1.57983,14.18323-3.65014c.86712-.2749,1.73907-.54444,2.59423-.8335a140.84218,140.84218,0,0,0,22.848-10.08569q1.8933-1.04334,3.7384-2.13257c.60907-.35986,1.222-.71582,1.82312-1.083.7843-.47876,1.55383-.9707,2.32471-1.46142q5.77047-3.67383,11.04907-7.75611c.3092-.23852.62384-.4729.9306-.71313A177.47736,177.47736,0,0,0,383.73309,273.615c.13465-.187.26471-.37451.39862-.56152.17182-.24048.34143-.481.51178-.7212,3.87616-5.47168,7.36182-10.94628,10.47638-16.2915.13788-.23657.27979-.47436.4162-.71045.76587-1.32568,1.50238-2.6394,2.224-3.946.039-.07056.07727-.14087.116-.21119q.0996-.1809.19855-.36157c.044-.08032.0888-.16089.13256-.24121.06116-.11206.12378-.22461.1847-.33642.17614-.45557.2622-.69825.2622-.69825S381.04675,210.146,335.43219,211.20488Z"/><path class="cls-1" d="M1333.02686,191.42754a93.4942,93.4942,0,0,0-31.49073-4.87964,98.656,98.656,0,0,0-33.26928,4.69678c-20.27991,6.70215-31.36585,22.20386-31.80726,44.53833-.48107,24.33789,9.77527,41.07959,30.19776,48.4082,16.3761,5.87671,33.39538,6.72119,50.406,3.99365,34.43311-5.521,48.20447-23.2893,45.78882-58.09375C1361.58325,211.81011,1350.33679,197.25273,1333.02686,191.42754Z"/><path class="cls-2" d="M164.75281,321.32329c.10895.05371.22.103.3291.1565-.13434-.10914-.24634-.20215-.3465-.28614C164.73987,321.23613,164.747,321.28008,164.75281,321.32329Z"/><path class="cls-3" d="M287.18988,338.15508c.986-.1853,1.95215-.397,2.92456-.60034A143.54453,143.54453,0,0,0,304.1059,333.888q-7.29338,2.08448-14.18323,3.65014C289.00867,337.74761,288.09344,337.9583,287.18988,338.15508Z"/><path class="cls-4" d="M398.70892,249.657c-.03418-.07641-.05481-.12134-.05481-.12134s-.08606.24268-.2622.69825C398.49658,250.04229,398.60529,249.84844,398.70892,249.657Z"/><path class="cls-5" d="M74.15576,215.63384c-1.772-5.51929-3.25921-10.7898-4.73834-16.801l-.01093.1438Q71.36161,207.40459,74.15576,215.63384Z"/><path class="cls-6" d="M69.41742,198.83281q-.30515-1.24-.61115-2.52685c.19184.89209.39386,1.78174.60022,2.67065Z"/><path class="cls-7" d="M164.71454,321.17607c-.2013-.16919-.3374-.28833-.394-.33862l-.03357-.03s-.049.0813-.13465.22852c.131.06518.26483.125.39594.18994l.01538.00732c.0625.031.12652.05909.18921.09009-.0058-.04321-.01294-.08716-.0174-.12964Z"/><path class="cls-7" d="M89.66766,248.69609l-.03619.07471c-.17249.35742-.26733.56323-.27161.573.01557.02783.03144.05542.04718.083C89.45331,249.295,89.54108,249.043,89.66766,248.69609Z"/><path class="cls-7" d="M89.69647,249.8687c.23706.35986.59748.90332,1.06915,1.60376.32618.48438.71393,1.05518,1.14612,1.686-1.56567-2.31006-2.5047-3.73169-2.5047-3.73169C89.46,249.50811,89.556,249.65508,89.69647,249.8687Z"/><path class="cls-8" d="M405.82349,281.67461q-.03891-.587-.08228-1.17725c-.225-3.06811-.54175-6.17846-.98785-9.04345-.00959-.06128-.02063-.11866-.03022-.17945-.06042-.38452-.12658-.75537-.19024-1.13208-.01007-.05835-.01959-.11694-.02942-.175-.32208-1.8811-.67713-3.67285-1.0553-5.3413-.55786-2.4607-1.15442-4.66089-1.73291-6.58814-.938-3.125-1.82471-5.50976-2.39941-6.93945-.03223-.07984-.05664-.13745-.08655-.21143l-.00452-.011c-.24914-.61158-.4328-1.03321-.51587-1.219-.10363.19141-.21234.38526-.317.57691-.06092.11181-.12354.22436-.1847.33642-.04376.08032-.08856.16089-.13256.24121q-.09935.18091-.19855.36157c-.03876.07032-.077.14063-.116.21119-.72162,1.30664-1.45813,2.62036-2.224,3.946-.13641.23609-.27832.47388-.4162.71045-3.11456,5.34522-6.60022,10.81982-10.47638,16.2915-.17035.24024-.34.48072-.51178.7212-.13391.187-.264.37451-.39862.56152A177.47736,177.47736,0,0,1,349.414,309.82256c-.30676.24023-.6214.47461-.9306.71313q-5.28021,4.07081-11.04907,7.75611c-.77088.49072-1.54041.98266-2.32471,1.46142-.60114.36719-1.214.72315-1.82312,1.083q-1.8447,1.08984-3.7384,2.13257a140.84218,140.84218,0,0,1-22.848,10.08569c-.85516.28906-1.72711.5586-2.59423.8335a143.54453,143.54453,0,0,1-13.99146,3.66675c-.97241.20337-1.9386.415-2.92456.60034a152.45148,152.45148,0,0,1-15.42474,2.08691q-3.227.27137-6.44794.44861c-3.61377.20215-7.218.29724-10.81409.32629-.36633.00293-.73321.01075-1.0993.012-.26953.00073-.54.00879-.80921.00879a214.46523,214.46523,0,0,1-30.32458-2.158,199.79208,199.79208,0,0,1-24.17462-4.98731q-3.23868-.88219-6.43726-1.87622l-.00256-.00073c-.27136-.08423-.542-.17065-.813-.2561q-3.196-1.00744-6.34894-2.12622-5.86431-2.08081-11.567-4.54786c-.7331-.31738-1.47034-.62524-2.19916-.95214-.2843-.12745-.57269-.2461-.85651-.375-1.07568-.48926-2.1355-1.0127-3.20148-1.5232-.36071-.17261-.72387-.34009-1.08361-.51538-.16718-.0813-.33692-.15771-.504-.23974-.10907-.05347-.22015-.10279-.3291-.1565-.06269-.031-.12671-.05908-.18921-.09009l-.01538-.00732c-.13111-.06494-.265-.12476-.39594-.18994-.10138.17431-.261.45312-.47589.83935-.234.42139-.53216.96875-.89227,1.64991q-.3219.60938-.70777,1.36181l-.03552.06909c-.17059.33374-.348.68286-.53619,1.0586q-.40833.81482-.87085,1.76513-.0585.1205-.118.24341c-.11463.23657-.23236.48145-.3515.73023-1.10712,2.311-2.40876,5.14819-3.87317,8.54687-2.53333,5.87915-5.5492,13.42822-8.87372,22.81531-.22083.62353-.43091,1.23987-.64227,1.85693q-1.01021,2.95-1.88562,5.798c-.08063.26269-.15686.52173-.2359.7832-.17853.59045-.35669,1.18079-.52649,1.76355-.999,3.42419-1.85218,6.70789-2.582,9.82092q-.69361,2.95752-1.24091,5.6947c-.30371,1.506-.57947,2.96192-.82581,4.3573q-.31668,1.79408-.57415,3.45411c-.692,4.43127-1.0968,8.14062-1.33106,10.9309.12049.0586.239.12073.35968.17908a193.3749,193.3749,0,0,0,46.88318,15.62244q5.14719,1.01092,10.38782,1.74682a195.42666,195.42666,0,0,0,81.5664-5.76171c1.23725-.35865,2.47291-.721,3.70008-1.10328.04657-.01452.09283-.03.1394-.04455a193.97849,193.97849,0,0,0,30.10687-12.26746c.18494-.094.37317-.18286.55787-.27759a196.08983,196.08983,0,0,0,42.65008-29.61059c.28711-.262.56738-.53089.853-.79444.19275-.17773.384-.35742.576-.53613.66717-.62073,1.33734-1.23816,1.99585-1.86792.66-.63159,1.30938-1.27429,1.96057-1.91491.42553-.41834.85681-.83094,1.27838-1.2533a196.89086,196.89086,0,0,0,15.364-17.3125c.14368-.1825.28357-.36816.42676-.55127l.00073-.00085c.19428-.24842.38294-.50159.57593-.75086a195.07767,195.07767,0,0,0,29.31256-53.35571c-.01257-2.17847-.05835-4.9895-.18292-8.08447C406.02124,285.0396,405.93567,283.36968,405.82349,281.67461Z"/><path class="cls-8" d="M102.22583,378.31938c-1.62793-2.06262-3.23218-4.217-4.79266-6.46264-.03675-.053-.07312-.1062-.10987-.1593q-.7737-1.11712-1.53186-2.264c-.03119-.04736-.06274-.09448-.09411-.14173-.16931-.2572-.3393-.51379-.50751-.77319-.1781-.27453-.35376-.55285-.53015-.82995-1.56818-2.46192-3.07324-5.02124-4.49341-7.676-.14771-.27637-.29852-.54932-.44446-.82764q-1.39251-2.65649-2.65747-5.44091-.60242-1.32294-1.17584-2.67115c-.13507-.32007-.26544-.64367-.39752-.96582-.13123-.31958-.2627-.639-.39106-.96118a95.338,95.338,0,0,1-6.16162-23.88525c-.04492-.3711-.08477-.7439-.12542-1.11621q-.318-2.91285-.469-5.87476c-.00342-.06714-.00641-.13452-.00982-.20166l-.00342-.07178a142.37487,142.37487,0,0,1,.66314-21.207l.007-.06689q.109-1.07337.23035-2.13745.09192-.8097.19055-1.61377.22458-1.83216.47937-3.63233.16287-1.1499.33765-2.282.12945-.84484.26471-1.6792.40769-2.51916.858-4.93994a242.8101,242.8101,0,0,1,6.02954-24.93091q.39551-1.31909.72791-2.37622c.40338-1.28735.72668-2.27173.94171-2.91235.18945-.5647.29651-.86817.29651-.86817s-.15827-.22827-.43354-.64258l-.07361-.11181c-.16455-.249-.36407-.55493-.59466-.91455a90.2859,90.2859,0,0,1-6.78552-12.65039c-.47547-1.11451-.9928-2.38453-1.52405-3.72315-.03436-.08667-.06812-.16992-.10254-.25732-.57172-1.44531-1.15772-2.96729-1.72675-4.47022-1.85974-4.91162-3.53161-9.60986-3.87835-10.68579-.028-.08716-.05432-.17309-.08228-.26025q-2.7876-8.22657-4.74927-16.65723c-.20636-.88891-.40838-1.77856-.60022-2.67065-.14886-.626-.2973-1.24561-.447-1.89087-.00781-.03345-.01446-.06641-.02215-.09986-.44727-1.93725-.81446-3.82421-1.12043-5.604-.2135-1.24194-.39807-2.43066-.553-3.5376-.21485-1.53564-.37781-2.91479-.49933-4.08105-.09424-.9043-.16352-1.67285-.21387-2.28711-.08337-1.02149-.11487-1.61475-.11487-1.61475-2.53015,3.03955-18.16546,21.959-27.191,36.0669-.17608.27563-.34393.54492-.51489.81665-.13452.21338-.27356.43017-.40448.64111-.14069.22656-.27325.44678-.40991.67017a61.09283,61.09283,0,0,0-3.8523,7.13379c-1.253,2.88086-2.41412,5.70654-3.47332,8.38989-.53834,1.36352-1.0495,2.68872-1.53248,3.96557q-.50215,1.32752-.96331,2.58057c.03082.7041.06012,1.4082.09851,2.1106q.15188,2.79089.38659,5.55957l.00708.07934c.01331.15845.02863.31641.04224.47461.084.97656.16254,1.95484.2608,2.92749.05048.49927.1131.99488.16748,1.49292A194.82359,194.82359,0,0,0,87.52228,369.7177c.43982.42151.88568.83679,1.32953,1.25427q.5343.50281,1.07391,1,1.08948,1.01,2.19135,2.00562c.22357.201.45013.39856.67462.59863.349.311.69745.62244,1.0487.93091a196.61417,196.61417,0,0,0,15.54071,12.3291c1.06562.76025,2.14331,1.50476,3.22473,2.24414a145.77464,145.77464,0,0,1-10.17163-11.49658C102.36475,378.49614,102.29541,378.40728,102.22583,378.31938Z"/><path class="cls-8" d="M89.35986,249.3438l-.0028.0061.05.07691C89.3913,249.39922,89.37543,249.37163,89.35986,249.3438Z"/><path class="cls-9" d="M139.47845,390.19023c.24634-1.39538.5221-2.85131.82581-4.3573q.55262-2.73742,1.24091-5.6947c.72979-3.113,1.583-6.39673,2.582-9.82092.1698-.58276.348-1.1731.52649-1.76355.079-.26147.15527-.52051.2359-.7832q.87258-2.84217,1.88562-5.798c.21136-.61706.42144-1.2334.64227-1.85693,3.32452-9.38709,6.34039-16.93616,8.87372-22.81531,1.46441-3.39868,2.766-6.23584,3.87317-8.54687.11914-.24878.23687-.49366.3515-.73023q.05924-.12267.118-.24341.46124-.94848.87085-1.76513c.18823-.37574.3656-.72486.53619-1.0586l.03552-.06909q.38517-.75183.70777-1.36181c.36011-.68116.65826-1.22852.89227-1.64991.21485-.38623.37451-.665.47589-.83935.0857-.14722.13465-.22852.13465-.22852s-.23914-.11865-.68378-.3479c-4.39429-2.1084-28.83673-14.373-47.355-34.80054-8.16266-9.00415-19.39746-25.21386-24.33637-32.50048-.43219-.63086-.81994-1.20166-1.14612-1.686-.47167-.70044-.83209-1.2439-1.06915-1.60376-.1405-.21362-.23651-.36059-.28943-.44189l-.05-.07691s-.10706.30347-.29651.86817c-.215.64062-.53833,1.625-.94171,2.91235q-.33134,1.058-.72791,2.37622a242.8101,242.8101,0,0,0-6.02954,24.93091q-.4488,2.41736-.858,4.93994-.13514.8346-.26471,1.6792-.174,1.13342-.33765,2.282-.25515,1.79809-.47937,3.63233-.09841.80382-.19055,1.61377-.121,1.06421-.23035,2.13745l-.007.06689a142.37487,142.37487,0,0,0-.66314,21.207l.00342.07178c.00341.06714.0064.13452.00982.20166q.15363,2.95861.469,5.87476c.04065.37231.0805.74511.12542,1.11621a95.338,95.338,0,0,0,6.16162,23.88525c.12836.32214.25983.6416.39106.96118.13208.32215.26245.64575.39752.96582q.57028,1.35078,1.17584,2.67115,1.2659,2.78027,2.65747,5.44091c.14594.27832.29675.55127.44446.82764,1.42017,2.65479,2.92523,5.21411,4.49341,7.676.17639.2771.352.55542.53015.82995.16821.2594.3382.516.50751.77319.03137.04725.06292.09437.09411.14173q.75825,1.1466,1.53186,2.264c.03675.0531.07312.10632.10987.1593,1.56048,2.2456,3.16473,4.4,4.79266,6.46264.06958.0879.13892.17676.20837.26441a145.77464,145.77464,0,0,0,10.17163,11.49658q3.09083,2.11341,6.26758,4.10693c.64881.40821,1.29651.81812,1.95056,1.21888.04505.02771.0896.05652.13465.0841q2.22977,1.36377,4.49566,2.67273c.51532.29651,1.03888.57959,1.55713.87158q3.0879,1.73933,6.23938,3.37549c.09723.0503.193.1034.29047.15345.80115.412,1.61176.8081,2.41931,1.20935.53784.26709,1.07214.54016,1.61267.80236.23426-2.79028.6391-6.49963,1.33106-10.9309Q139.16394,391.98192,139.47845,390.19023Z"/><path class="cls-9" d="M417.66766,224.36357v-.00048q-.07287-3.22779-.25262-6.42774c-.02087-.376-.04858-.75-.07147-1.12549l-.00177-.02685c-.07373-1.20557-.15045-2.41016-.2461-3.60962-.03473-.43262-.078-.86255-.11548-1.29443q-.18869-2.18519-.42321-4.35669-.26193-2.40381-.58149-4.78956c-.18621-1.38671-.38146-2.7705-.59631-4.14794-.85657,13.13525-15.42267,47.86621-16.6355,50.739l-.03155.075-.02252.05322-.03553.08374s.02063.04493.05481.12134c.08307.18579.26673.60742.51587,1.219l.00452.011c.02991.074.05432.13159.08655.21143.5747,1.42969,1.46142,3.81445,2.39941,6.93945.57849,1.92725,1.175,4.12744,1.73291,6.58814.37817,1.66845.73322,3.4602,1.0553,5.3413.00983.05811.01935.1167.02942.175.06366.37671.12982.74756.19024,1.13208.00959.06079.02063.11817.03022.17945.4461,2.865.76288,5.97534.98785,9.04345q.0434.59034.08228,1.17725c.11218,1.69507.19775,3.365.2619,4.96143.12457,3.095.17035,5.906.18292,8.08447q.90243-2.50856,1.73492-5.04932c.2287-.69507.45844-1.3894.67939-2.08789.03448-.10889.07171-.21655.10589-.32568.01892-.05982.03955-.11914.05817-.179q2.035-6.49475,3.61572-13.17944c.10395-.43775.21289-.87354.31378-1.3125.45118-1.96192.86329-3.93823,1.25458-5.92212q.42645-2.16321.80768-4.34229a195.64782,195.64782,0,0,0,2.8858-33.4956c0-1.27661-.02386-2.54736-.04852-3.81812C417.67169,224.794,417.67242,224.57817,417.66766,224.36357Z"/><path class="cls-9" d="M415.03949,196.5418l-.03473-.10059c.0423.20825.08038.40015.11438.57959C415.0921,196.86113,415.06622,196.70146,415.03949,196.5418Z"/><path class="cls-9" d="M29.98969,230.90923c1.0592-2.68335,2.22027-5.509,3.47332-8.38989a61.09283,61.09283,0,0,1,3.8523-7.13379c.13666-.22339.26922-.44361.40991-.67017.13092-.21094.27-.42773.40448-.64111.171-.27173.33881-.541.51489-.81665,9.02558-14.10791,24.66089-33.02735,27.191-36.0669l.0091-.011.00048-.00049s-1.17962-21.59546-.18273-36.75928c1.05-15.97168,11.90148-41.708,11.90148-41.708s.5301-.835,1.64863-2.30639c-.0647.06933-.12946.13842-.19367.208-.173.1875-.34924.37183-.52148.56031q-3.4855,3.80933-6.77192,7.79809c-.46337.563-.91564,1.1355-1.3728,1.70362q-1.06833,1.32824-2.11627,2.67334c-.64777.83422-1.2948,1.66967-1.92926,2.51489q-3.64691,4.85816-6.98584,9.95093c-.41943.63745-.84607,1.26928-1.25806,1.91186q-1.11008,1.73072-2.18017,3.489c-.2301.376-.45716.75366-.68476,1.13134-.69928,1.15967-1.392,2.324-2.06756,3.49951-.33392.58081-.65424,1.17041-.9823,1.75489-.38776.69092-.78143,1.37817-1.161,2.07422q-1.01561,1.86291-1.988,3.75244-3.13037,6.05127-5.84106,12.34277-1.39911,3.24426-2.68427,6.54736a193.48863,193.48863,0,0,0-8.741,29.07471c-.18823.86743-.3797,1.7334-.55633,2.605-.02716.13428-.05084.26978-.07776.4043q-.46252,2.30823-.87158,4.63476-.85831,4.89844-1.46845,9.87818-.18612,1.51647-.34863,3.03979c-.10577.99146-.19879,1.98633-.28973,2.98194-.538,5.894-.82782,11.85839-.82782,17.88989,0,.95337.02252,1.90161.03625,2.85181.007.49365.00806.98877.01886,1.48144.02789,1.27686.07538,2.54883.12781,3.81934.00653.15869.01123.31762.01813.47607q.46023-1.25061.96331-2.58057C28.94019,233.598,29.45135,232.27275,29.98969,230.90923Z"/><path d="M1497.63379,302.179c-.36963-30.58764-.17871-61.18212-.10376-91.77417.00525-2.157-1.11633-5.04785,1.30566-6.3352,3.031-1.61084,4.61512,1.35864,6.34851,3.11182,28.60437,28.92871,57.59607,57.49267,85.55433,87.03393,7.30957,7.72363,14.71679,13.82983,23.6997,16.2356h26.93262c2.4375-1.05347,3.31836-3.646,3.24707-7.91773-.35645-21.35107-.13428-42.71191-.13428-64.06885h.051c0-21.35717-.2085-42.71752.12622-64.06933.06091-3.88672-.40857-6.57861-2.36243-7.959h-31.152c-1.72778,1.23536-2.26464,3.60474-2.223,7.28492.32654,28.85693.23328,57.71972.085,86.5791-.01623,3.16723-.0791,11.93788-.0791,11.93788s-7.061-5.61855-9.22095-7.75136q-40.04076-39.53906-79.95251-79.20849c-12.29492-12.18335-17.24231-17.00782-25.41589-18.842h-29.15723c-2.14539,1.13648-2.86292,3.35254-2.7854,7.08838.27527,13.27027.08337,26.55005.08264,39.82617-.00171,29.72681.04956,59.45411-.05322,89.18067-.0127,3.66968.11267,6.70044,2.68176,7.91968h28.90662C1496.70605,309.43071,1497.69043,306.87773,1497.63379,302.179Z"/><path d="M1399.741,254.48906c6.18945-39.28052-6.05127-71.42578-49.94751-83.9292-30.282-8.62548-61.15454-8.616-91.54639-2.04492-31.45288,6.80029-54.42334,23.35523-59.281,58.62427-4.06005,29.47949,12.91822,61.84131,40.33338,73.52783,19.72839,8.40991,40.2948,11.55274,62.00537,10.40674a139.27182,139.27182,0,0,0,47.48425-5.13672C1375.3728,298.32622,1395.22412,283.15459,1399.741,254.48906Zm-82.67762,33.6958c-17.01062,2.72754-34.0299,1.88306-50.406-3.99365-20.42249-7.32861-30.67883-24.07031-30.19776-48.4082.44141-22.33447,11.52735-37.83618,31.80726-44.53833a98.656,98.656,0,0,1,33.26928-4.69678,93.4942,93.4942,0,0,1,31.49073,4.87964c17.30993,5.82519,28.55639,20.38257,29.82531,38.66357C1365.26782,264.89556,1351.49646,282.66387,1317.06335,288.18486Z"/><path d="M614.9751,189.71611c25.40289-6.0459,50.997-4.54248,76.32178.71192,14.92718,3.09668,14.51947,3.62842,14.71423-11.91284.07452-5.94214-2.26679-8.02637-7.65753-9.02124-38.15326-7.041-76.2157-8.39722-113.67664,3.34008-22.90826,7.17774-40.50745,20.85865-46.01709,45.73145-6.74243,30.43774,1.97608,62.79736,33.79578,79.38232a103.64518,103.64518,0,0,0,29.38238,9.70435,247.97232,247.97232,0,0,0,97.8346-1.7876c3.96264-.84863,6.37958-2.60254,6.30011-7.54565q-.45942-28.57691-.025-57.1648c.07776-5.32764-2.24224-6.20874-6.74078-6.11914-10.39117.20679-20.78937.06567-31.18475.0686-10.10657.00293-20.24036.45337-30.31024-.1538-6.83722-.41236-8.13581,2.21215-8.10572,8.40112.03089,6.34961,1.15912,10.08642,8.48572,8.82861a30.87371,30.87371,0,0,1,5.19031-.03735c27.25549.03149,27.0299.02881,26.7088,27.51758-.07642,6.53662-2.7768,8.7561-8.52991,9.12036-15.00134.94971-30.064,1.84131-44.82416-1.6626-30.86254-7.32642-41.05993-23.13769-42.43615-48.80908C572.81757,212.50249,586.49384,196.49492,614.9751,189.71611Zm-72.48541,31.83863c-.23224-1.93628-.50934-3.8833,1.2937-5.325C547.463,219.00347,544.44867,220.15093,542.48969,221.55474Z"/><path d="M543.78339,216.22979c-1.803,1.44165-1.52594,3.38867-1.2937,5.325C544.44867,220.15093,547.463,219.00347,543.78339,216.22979Z"/><path d="M1134.86963,166.43608h-31.9187c-2.08643,1.36231-2.84937,4.07178-2.77136,8.5232.45031,25.67749-.20374,51.374.23352,77.052.42358,24.87939-13.21546,32.1333-28.98352,35.6438a104.282,104.282,0,0,1-42.15784.39355c-22.28613-4.231-30.93842-15.62207-30.94379-38.56152-.00592-25.397-.15265-50.7959.14447-76.18945.04138-3.53955-.58337-5.7251-2.31531-6.86158h-32.333c-1.24219.91822-1.70948,2.56177-1.69062,5.08448.21851,29.14453-.17291,58.30053.50525,87.43237.43933,18.87524,9.80121,33.52808,27.07953,40.9397,39.12879,16.78466,79.06433,16.45971,118.34851.731,19.5636-7.83276,28.4043-24.42895,28.84241-45.27734.27893-13.27.05225-26.55054.05225-39.82617h.05419c0-13.85278-.26953-27.71338.12232-41.55518C1137.24341,170.24736,1136.74683,167.731,1134.86963,166.43608Z"/><path d="M898.68134,286.232c-23.07276.16284-46.1485-.03882-69.21985.20728-10.6908.114-10.70038.44092-10.71137-10.60156-.03424-34.31983-.16382-68.64014.02228-102.9585.01752-3.23316-.47827-5.32861-2.04962-6.44312H784.5351c-1.51111,1.095-2.035,3.13208-1.997,6.32447.25775,21.6289.10431,43.2622.09607,64.894s.18054,43.26611-.12525,64.8938c-.08972,6.34473,1.801,8.47217,8.35,8.41235,32.87762-.30078,65.76025.00293,98.6394-.18774,18.75019-.10889,16.47052,3.50366,16.89069-17.07178C906.50854,287.85039,904.04388,286.19414,898.68134,286.232Z"/><path class="cls-10" d="M90.38428,247.26567c.49737-.96753,1.18127-2.25146,2.07007-3.82617l.32788,10.98316L99.718,264.064c1.12109.75318,2.30963,1.83667,2.38647,3.16285,5.05994,6.6289,11.31262,14.32543,18.19263,21.69775,15.82147,16.95435,39.05145,29.34228,43.30609,31.53491.45148.21655.69269.32666.69269.32666s14.26794-30.91675,57.26172-66.85522c27.13116-22.67871,73.83368-41.79663,113.87463-42.72608,45.61456-1.05884,63.22192,38.33081,63.22192,38.33081l.03553-.08374.02252-.05322.03155-.075c.15363-.3645.50214-1.19775,1.00391-2.43433a35.63,35.63,0,0,1,2.331-6.458q.3544-.78882.7154-1.57544l.00146-.00122c.04956-.05469.09888-.10987.1485-.16456.46423-1.23608.95288-2.5581,1.45862-3.95214q.00677-.55335.0133-1.10669c.20331-.3562.39783-.71558.59711-1.07325.15955-.28588.32105-.571.4776-.85791.84137-2.38281,1.71375-4.93115,2.58911-7.60156.697-2.12573,1.33331-4.31079,1.91333-6.48852q.2808-1.05579.54321-2.106.19218-.76722.37494-1.52808.20381-.84777.39655-1.6853c.46777-2.03857.88318-4.01709,1.24982-5.88159.61114-3.10986,1.08471-5.89331,1.42767-8.07886.05963-.37964.115-.73926.16681-1.0813.01788-.11841.0365-.24.05359-.35376.11426-.76343.20685-1.41455.27978-1.94287.07147.19922.1399.39307.20685.58374.111.31568.21344.61426.3125.905-1.39337-6.85351-7.48187-29.11719-30.50366-50.27978-30.85645-28.36451-100.31494-38.35035-163.8158-11.34082C117.48047,178.71807,92.54962,240.79375,89.66766,248.69609c.02625-.05468.05078-.106.08448-.17456C89.91064,248.19805,90.126,247.76836,90.38428,247.26567Z"/><path class="cls-9" d="M398.68964,249.452l-.03553.08374Z"/><path class="cls-11" d="M398.68964,249.452l-.03553.08374Z"/><path class="cls-12" d="M415.11914,197.0208c.08838.52051.17841,1.04077.26007,1.564C415.37921,198.58477,415.30963,198.0252,415.11914,197.0208Z"/><path class="cls-13" d="M402.944,238.69023c-.04962.05469-.09894.10987-.1485.16456l-.00146.00122q-.35972.787-.7154,1.57544a35.63,35.63,0,0,0-2.331,6.458c.63989-1.57715,1.52484-3.80175,2.566-6.533Q402.62008,239.55194,402.944,238.69023Z"/><path class="cls-14" d="M402.944,238.69023c-.04962.05469-.09894.10987-.1485.16456l-.00146.00122q-.35972.787-.7154,1.57544a35.63,35.63,0,0,0-2.331,6.458c.63989-1.57715,1.52484-3.80175,2.566-6.533Q402.62008,239.55194,402.944,238.69023Z"/><path class="cls-15" d="M405.4906,231.70024c-.15655.28687-.318.572-.4776.85791-.19928.35767-.3938.71705-.59711,1.07325q-.00676.55333-.0133,1.10669.35285-.97192.71557-1.98853C405.24146,232.40313,405.36554,232.05425,405.4906,231.70024Z"/><path class="cls-16" d="M405.4906,231.70024c-.15655.28687-.318.572-.4776.85791-.19928.35767-.3938.71705-.59711,1.07325q-.00676.55333-.0133,1.10669.35285-.97192.71557-1.98853C405.24146,232.40313,405.36554,232.05425,405.4906,231.70024Z"/><path class="cls-7" d="M91.91174,253.1585c.27246.3977.5589.81445.87049,1.26416l-.32788-10.98316c-.8888,1.57471-1.5727,2.85864-2.07007,3.82617-.25824.50269-.47364.93238-.63214,1.25586-.0337.06861-.05823.11988-.08448.17456-.12658.34693-.21435.59888-.26062.73072C89.407,249.42681,90.34607,250.84844,91.91174,253.1585Z"/><path class="cls-17" d="M91.91174,253.1585c.27246.3977.5589.81445.87049,1.26416l-.32788-10.98316c-.8888,1.57471-1.5727,2.85864-2.07007,3.82617-.25824.50269-.47364.93238-.63214,1.25586-.0337.06861-.05823.11988-.08448.17456-.12658.34693-.21435.59888-.26062.73072C89.407,249.42681,90.34607,250.84844,91.91174,253.1585Z"/><path class="cls-18" d="M99.718,264.064q1.14247,1.53259,2.38647,3.16285C102.02759,265.90068,100.83905,264.81719,99.718,264.064Z"/><path class="cls-19" d="M99.718,264.064q1.14247,1.53259,2.38647,3.16285C102.02759,265.90068,100.83905,264.81719,99.718,264.064Z"/><path class="cls-9" d="M120.29706,288.92461c-6.88-7.37232-13.13269-15.06885-18.19263-21.69775Q100.86179,265.599,99.718,264.064l-6.93573-9.64135c-.31159-.44971-.598-.86646-.87049-1.26416,4.93891,7.28662,16.17371,23.49633,24.33637,32.50048,18.51831,20.42749,42.96075,32.69214,47.355,34.80054C159.34851,318.26689,136.11853,305.879,120.29706,288.92461Z"/><path class="cls-20" d="M120.29706,288.92461c-6.88-7.37232-13.13269-15.06885-18.19263-21.69775Q100.86179,265.599,99.718,264.064l-6.93573-9.64135c-.31159-.44971-.598-.86646-.87049-1.26416,4.93891,7.28662,16.17371,23.49633,24.33637,32.50048,18.51831,20.42749,42.96075,32.69214,47.355,34.80054C159.34851,318.26689,136.11853,305.879,120.29706,288.92461Z"/><path class="cls-9" d="M414.48541,194.95244c-.07293.52832-.16552,1.17944-.27978,1.94287-.01709.11377-.03571.23535-.05359.35376-.05182.342-.10718.70166-.16681,1.0813-.343,2.18555-.81653,4.969-1.42767,8.07886-.36664,1.8645-.78205,3.843-1.24982,5.88159q-.19208.83679-.39655,1.6853-.18264.761-.37494,1.52808-.263,1.04993-.54321,2.106c-.58,2.17773-1.21631,4.36279-1.91333,6.48852-.87536,2.67041-1.74774,5.21875-2.58911,7.60156-.12506.354-.24914.70289-.37244,1.04932q-.36309,1.01771-.71557,1.98853c-.50574,1.394-.99439,2.71606-1.45862,3.95214q-.32346.86059-.63031,1.66626c-1.0412,2.73121-1.92615,4.95581-2.566,6.533-.50177,1.23658-.85028,2.06983-1.00391,2.43433,1.21283-2.8728,15.77893-37.60376,16.6355-50.739-.08166-.5232-.17169-1.04346-.26007-1.564-.034-.17944-.07208-.37134-.11438-.57959-.09906-.29077-.20154-.58935-.3125-.905C414.62531,195.34551,414.55688,195.15166,414.48541,194.95244Z"/><path class="cls-21" d="M414.48541,194.95244c-.07293.52832-.16552,1.17944-.27978,1.94287-.01709.11377-.03571.23535-.05359.35376-.05182.342-.10718.70166-.16681,1.0813-.343,2.18555-.81653,4.969-1.42767,8.07886-.36664,1.8645-.78205,3.843-1.24982,5.88159q-.19208.83679-.39655,1.6853-.18264.761-.37494,1.52808-.263,1.04993-.54321,2.106c-.58,2.17773-1.21631,4.36279-1.91333,6.48852-.87536,2.67041-1.74774,5.21875-2.58911,7.60156-.12506.354-.24914.70289-.37244,1.04932q-.36309,1.01771-.71557,1.98853c-.50574,1.394-.99439,2.71606-1.45862,3.95214q-.32346.86059-.63031,1.66626c-1.0412,2.73121-1.92615,4.95581-2.566,6.533-.50177,1.23658-.85028,2.06983-1.00391,2.43433,1.21283-2.8728,15.77893-37.60376,16.6355-50.739-.08166-.5232-.17169-1.04346-.26007-1.564-.034-.17944-.07208-.37134-.11438-.57959-.09906-.29077-.20154-.58935-.3125-.905C414.62531,195.34551,414.55688,195.15166,414.48541,194.95244Z"/><path class="cls-22" d="M80.25134,95.28984q1.08573-1.15575,2.19037-2.29345a17.5468,17.5468,0,0,1-.72388,2.62841l.00049.00049L81.717,95.6248a4.47875,4.47875,0,0,0-1.69617.33936c-.80755,2.365-1.6632,4.88965-2.53595,7.49316q-.07223.21534-.1444.43116-.44762,1.33666-.8993,2.69531c-.90973,2.73828-1.824,5.52515-2.70892,8.27148q-.22942.71265-.45667,1.42163l-.02984.09351c-.0268.084-.05335.16748-.08014.25122-.83008,2.5979-1.62622,5.14038-2.359,7.55054q-.16251.535-.32056,1.05981c-.65411,2.17261-1.25042,4.22217-1.76715,6.0918q-.23529.85181-.44763,1.65088c-.51214,1.928-.92078,3.61914-1.19153,4.98462-.15423.77783-.29211,1.60254-.41729,2.46069-.08521.58423-.16346,1.18677-.236,1.80225-.00342.02905-.00641.05908-.01.08813q-.03844.33033-.0747.66626c-.92847,8.57666-.75415,19.62818-.49182,26.71411.04028,1.08716.08227,2.085.12292,2.96143v.00024c.05524,1.19239.10718,2.16431.147,2.865.045.792.07471,1.24024.075,1.24219v.00073s-.12658.15064-.34961.41895c0,0,65.5608-75.51978,141.3501-95.09888,28.05951-7.24853,32.45935-8.60058,66.72864-10.07812,45.79742-1.97437,69.67975,4.62353,69.67975,4.62353s-18.86652-12.88721-33.94061-20.00342c0,0-7.048-5.97387-42.55622-16.17968C226.82513,28.86479,192.8205,30.12139,152.382,46.41289c-46.80365,18.856-67.55841,42.61182-73.16943,49.99268q.05145-.05493.10266-.11011Q79.78206,95.79119,80.25134,95.28984Z"/><path class="cls-23" d="M81.71832,95.62529l-.00049-.00049a17.5468,17.5468,0,0,0,.72388-2.62841q-1.10412,1.13818-2.19037,2.29345-.11453.33473-.23047.67432A4.47875,4.47875,0,0,1,81.717,95.6248Z"/><path class="cls-24" d="M81.71832,95.62529l-.00049-.00049a17.5468,17.5468,0,0,0,.72388-2.62841q-1.10412,1.13818-2.19037,2.29345-.11453.33473-.23047.67432A4.47875,4.47875,0,0,1,81.717,95.6248Z"/><path class="cls-9" d="M65.66248,140.42c-.99689,15.16382.18273,36.75928.18273,36.75928.223-.26831.34961-.41895.34961-.41895v-.00073c-.00024-.00195-.0299-.45019-.075-1.24219-.03979-.70068-.09173-1.6726-.147-2.865v-.00024c-.04065-.87647-.08264-1.87427-.12292-2.96143-.26233-7.08593-.43665-18.13745.49182-26.71411q.03616-.33544.0747-.66626c.00354-.02905.00653-.05908.01-.08813.07257-.61548.15082-1.218.236-1.80225.12518-.85815.26306-1.68286.41729-2.46069.27075-1.36548.67939-3.05664,1.19153-4.98462q.21231-.79908.44763-1.65088c.51673-1.86963,1.113-3.91919,1.76715-6.0918q.15811-.52551.32056-1.05981c.73279-2.41016,1.52893-4.95264,2.359-7.55054.02679-.08374.05334-.16724.08014-.25122l.02984-.09351q.22679-.70824.45667-1.42163c.885-2.74633,1.79919-5.5332,2.70892-8.27148q.45108-1.3579.8993-2.69531.07232-.21608.1444-.43116c.87275-2.60351,1.7284-5.12817,2.53595-7.49316q.1159-.33911.23047-.67432-.4702.50061-.93609,1.00562-.05109.05529-.10266.11011C78.09406,97.877,77.564,98.712,77.564,98.712S66.71246,124.44829,65.66248,140.42Z"/><path class="cls-25" d="M65.66248,140.42c-.99689,15.16382.18273,36.75928.18273,36.75928.223-.26831.34961-.41895.34961-.41895v-.00073c-.00024-.00195-.0299-.45019-.075-1.24219-.03979-.70068-.09173-1.6726-.147-2.865v-.00024c-.04065-.87647-.08264-1.87427-.12292-2.96143-.26233-7.08593-.43665-18.13745.49182-26.71411q.03616-.33544.0747-.66626c.00354-.02905.00653-.05908.01-.08813.07257-.61548.15082-1.218.236-1.80225.12518-.85815.26306-1.68286.41729-2.46069.27075-1.36548.67939-3.05664,1.19153-4.98462q.21231-.79908.44763-1.65088c.51673-1.86963,1.113-3.91919,1.76715-6.0918q.15811-.52551.32056-1.05981c.73279-2.41016,1.52893-4.95264,2.359-7.55054.02679-.08374.05334-.16724.08014-.25122l.02984-.09351q.22679-.70824.45667-1.42163c.885-2.74633,1.79919-5.5332,2.70892-8.27148q.45108-1.3579.8993-2.69531.07232-.21608.1444-.43116c.87275-2.60351,1.7284-5.12817,2.53595-7.49316q.1159-.33911.23047-.67432-.4702.50061-.93609,1.00562-.05109.05529-.10266.11011C78.09406,97.877,77.564,98.712,77.564,98.712S66.71246,124.44829,65.66248,140.42Z"/><path class="cls-26" d="M1129.04126,165.48906a100.86117,100.86117,0,0,1-19.02393-.009c-3.23095-.32861-5.51367-.05786-7.0664.95605h31.9187C1133.61938,165.57354,1131.76257,165.24761,1129.04126,165.48906Z"/><path class="cls-26" d="M990.62189,165.50225a224.2818,224.2818,0,0,1-22.50116.03344,6.696,6.696,0,0,0-4.29663.90039h32.333C994.92694,165.62871,993.14252,165.34648,990.62189,165.50225Z"/><path class="cls-26" d="M811.54486,165.49785a163.59915,163.59915,0,0,1-21.61664-.01318c-2.50543-.17334-4.23749.114-5.39312.95141h32.18768C815.60828,165.64556,813.957,165.34453,811.54486,165.49785Z"/><path class="cls-26" d="M1636.15942,165.46367a100.30888,100.30888,0,0,1-19.02368.02564c-2.81128-.25952-4.72.0393-5.98926.94677h31.152C1641.002,165.52007,1639.05835,165.17607,1636.15942,165.46367Z"/><path class="cls-26" d="M1470.2793,165.4666a11.28633,11.28633,0,0,0-5.09656.96948H1494.34C1488.84729,165.20342,1481.89941,165.31987,1470.2793,165.4666Z"/><path class="cls-26" d="M1469.72791,310.95317a109.66283,109.66283,0,0,1,19.02758-.0332,12.41763,12.41763,0,0,0,5.25965-.469h-28.90662A8.77028,8.77028,0,0,0,1469.72791,310.95317Z"/><path class="cls-26" d="M1619.22192,311.3665h7.56531c1.10254-.11621,2.22693-.27734,3.37915-.49609a19.86965,19.86965,0,0,1,6.04566-.00586,9.98717,9.98717,0,0,0,5.15881-.41357h-26.93262A32.17126,32.17126,0,0,0,1619.22192,311.3665Z"/><path class="cls-26" d="M1626.78723,311.3665h-7.56531A35.02732,35.02732,0,0,0,1626.78723,311.3665Z"/></svg>