<svg id="content" xmlns="http://www.w3.org/2000/svg" viewBox="0 0 1240.41855 329.68951"><defs><style>.cls-1{fill:#41b0cb;}.cls-2{fill:#302d2e;}.cls-3{fill:#312e2f;}.cls-4{fill:#4b9cd5;}.cls-5{fill:#3759a7;}.cls-6{fill:#3862ae;}.cls-7{fill:#3760ac;}.cls-8{fill:#3b6bb4;}.cls-9{fill:#3964af;}.cls-10{fill:#4184c5;}.cls-11{fill:#3d73b9;}.cls-12{fill:#417bbe;}.cls-13{fill:#448ecc;}.cls-14{fill:#3253a4;}</style></defs><title>gluon</title><path class="cls-1" d="M304.65324,214.12556c-18.93972,50.28981-54.7597,82.15293-106.6327,94.8887-33.60183,8.24991-66.74916,5.16155-98.06847-10.84021l.311-.48562a3.77767,3.77767,0,0,0,2.89892-3.23014c2.52588-21.86539,10.67876-41.86827,20.15174-61.44474,45.50913,20.02353,89.7898,17.62,132.51535-7.829,17.94334-10.68776,29.8414-27.29257,40.92605-44.47585C302.7655,191.04932,302.822,202.79718,304.65324,214.12556Z"/><path class="cls-2" d="M1197.203,193.09461c0-23.15085.16434-46.3037-.1169-69.45112-.06935-5.70822.99716-7.94155,7.44106-7.88771,20.24692.16922,20.24987-.14618,20.24681,20.20135-.004,27.25424-.17671,54.51028.11667,81.76131.0656,6.092-1.844,7.2862-7.79664,7.96265-14.8381,1.68631-25.13946-3.584-35.408-14.50138-20.92721-22.24939-43.62244-42.83588-65.694-64.20881-1.454,1.454-.20974,4.36953-.22461,6.92015-.12427,21.38116-.223,42.7652.0353,64.144.06469,5.35066-.91443,7.516-7.01035,7.53941-19.99133.07672-19.99054.36823-19.99065-19.4551-.00023-27.57951.19067-55.16138-.1472-82.73675-.07536-6.14882,1.84656-7.12963,7.68156-7.71385,14.32975-1.43474,24.94527,2.88158,34.77676,13.85459,20.23364,22.58333,41.79824,43.97421,62.81511,65.85579Z"/><path class="cls-2" d="M969.73144,115.36888c13.04147-.07485,25.94289,1.01212,38.44549,4.99725,23.715,7.55891,36.27773,24.42289,36.46261,48.8578.202,26.69549-10.8744,43.15156-35.58723,51.06491-25.40231,8.13412-51.3528,8.05178-76.78961.74844-29.62274-8.50514-40.06245-30.0142-39.32212-53.70886.85155-27.25494,17.86806-44.31152,46.3218-49.5156A178.962,178.962,0,0,1,969.73144,115.36888Zm-.4693,17.42887c-6.65727-.65087-13.40726.7092-19.99224,2.24366-17.31682,4.0353-26.81135,16.14651-27.24728,33.85639-.475,19.29006,8.132,31.62205,25.92007,36.74759a77.83387,77.83387,0,0,0,40.3799.62348c18.40433-4.469,26.9144-16.61908,26.79217-36.88525-.10941-18.14-9.15836-30.29356-26.31254-34.39264C982.53253,133.49282,976.07819,132.2245,969.26214,132.79775Z"/><path class="cls-2" d="M501.27915,167.6477q7.42725-.00181,14.85444-.00047c13.32123.01264,13.33389.01412,13.35471,12.87.01811,11.14468-.2031,22.29513.105,33.4313.1219,4.40573-1.008,6.974-5.54019,7.85033-28.59345,5.52856-57.25108,7.0095-85.29027-2.08473-34.47972-11.18316-48.01662-52.21175-27.10721-80.518,9.41378-12.74394,23.40069-18.06543,38.12847-20.80574a183.34742,183.34742,0,0,1,73.7088.97017c4.8426,1.07061,8.91235,14.44388,5.4675,18.06766-1.84724,1.9433-3.9595.19968-5.92778-.25255-19.16327-4.403-38.41853-6.01716-57.96842-2.62273-21.27178,3.69342-32.97245,15.667-33.28473,34.5457-.32831,19.8478,10.47555,33.02592,31.46819,37.32068a88.51011,88.51011,0,0,0,31.37452,1.11807c5.02624-.77,6.61244-2.31751,6.70948-7.429.34031-17.92165.54256-17.62134-17.89236-18.14251-4.23835-.11981-11.73542,4.5999-12.1873-5.84032-.30321-7.00322,1.662-9.27931,8.68735-8.6218C486.99537,168.16411,494.16143,167.64892,501.27915,167.6477Z"/><path class="cls-3" d="M717.46318,152.8676c-.011-10.53275.11594-21.06786-.078-31.59705-.07054-3.831.88923-5.19418,5.0958-5.469,23.3089-1.5227,23.2992-1.6685,23.29943,21.592.00017,14.25279-.14335,28.50745.03978,42.75788.20576,16.01047,7.73524,24.30873,23.54093,27.01377a83.336,83.336,0,0,0,28.61479-.15424c14.75439-2.56649,22.072-10.94622,22.18831-26.00389.14595-18.89933.41437-37.812-.15561-56.69527-.21859-7.24192,2.06811-8.67123,8.83666-8.54886,20.02725.36212,20.03287.05492,20.03281,20.38811-.00006,15.18232.12785,30.366-.0324,45.54663-.208,19.70033-8.62068,32.25653-27.37111,38.45213a119.66852,119.66852,0,0,1-76.54946.00857c-18.61061-6.14933-27.14452-18.90082-27.42689-38.48016C717.35968,172.07657,717.47425,162.47124,717.46318,152.8676Z"/><path class="cls-4" d="M200.4487,84.31245C231.44861,78.106,261.305,79.457,287.71543,99.20387c13.06658,9.76981,20.70952,23.34664,23.58872,39.48884-3.20995,14.16424-8.69189,27.52282-14.44989,40.78361-8.5898-13.81546-21.835-20.4671-37.055-24.07968-3.26536-5.97408-7.70514-11.06708-12.2516-16.04987-8.24685-9.03826-14.647-19.67178-23.87132-28.00346-.59211-.53481-4.46041-3.042-5.05427-7.077C217.15694,94.31064,209.42121,88.35436,200.4487,84.31245Z"/><path class="cls-5" d="M16.36778,179.12044c-4.67484-20.79767-1.46988-41.00214,5.27883-60.71951,14.58278-42.60582,41.60982-74.10015,83.54745-91.94779,1.60594,4.39939,1.338,7.44546-3.68908,10.0965-7.02659,3.70551-13.54175,19.61059-9.99782,25.63341,3.16952,5.38648,2.13657,9.904.65367,14.66806a36.71466,36.71466,0,0,0-1.21161,13.56983c-10.6788,8.627-22.07206,16.39578-31.6511,26.34382-2.53557,2.63327-5.46484,4.95251-6.82178,8.52214-2.225,2.52689-4.4267,5.08281-6.68729,7.58554C33.36605,146.626,26.02107,163.607,16.36778,179.12044Z"/><path class="cls-3" d="M584.97686,169.82691c.0004-15.78413.21507-31.57284-.12025-47.34984-.1119-5.26653,1.43293-6.626,6.67719-6.68506,21.62515-.24353,21.62656-.441,21.6475,21.33731.01964,20.4227.29889,40.85084-.11514,61.26482-.12717,6.27082,1.73608,7.74018,7.75783,7.58106,16.34667-.432,32.734.34744,49.06134-.36153,9.17777-.39854,7.77327,4.95541,8.01552,10.56461.25911,6.0005-.12978,9.60536-8.09683,9.43364-25.676-.5534-51.376-.47285-77.05622-.02866-6.88154.119-8.06648-2.26158-7.90753-8.40747C585.24811,201.40221,584.97646,185.611,584.97686,169.82691Z"/><path class="cls-1" d="M16.36778,179.12044c9.65329-15.51346,16.99827-32.49442,29.42127-46.248,2.26059-2.50273,4.46232-5.05865,6.68729-7.58554,2.30937,18.72567,4.47935,37.4845,14.22434,54.25621q-.16209,1.60815-.32168,3.21646c-6.47684,12.13346-8.58842,25.51342-8.74947,38.8205-.32781,27.08536,9.15339,50.32911,30.53516,67.93739q-.665.6976-1.33,1.39524C58.82152,274.99788,40.46487,250.72953,27.655,221.85791,21.6283,208.27453,17.12094,194.15979,16.36778,179.12044Z"/><path class="cls-6" d="M90.94922,90.42094a36.71466,36.71466,0,0,1,1.21161-13.56983c1.4829-4.76408,2.51585-9.28158-.65367-14.66806-3.54393-6.02282,2.97123-21.9279,9.99782-25.63341,5.02706-2.651,5.295-5.69711,3.68908-10.0965,20.665-10.25207,42.6806-13.43438,65.48146-12.505.64576,15.95384-7.20667,30.16291-9.35068,45.544C136.32875,66.30315,113.17536,77.30713,90.94922,90.42094Z"/><path class="cls-7" d="M66.37872,182.75943q.16042-1.60818.322-3.21632c6.624-11.54439,11.6739-24.06,20.96478-33.95692q.65426-.7069,1.30918-1.414l.21826-.28534q.78369-.94333,1.56755-1.88676l.02053-.02941c5.68931.54989,7.36708,5.04576,9.02315,9.39555,1.78823,4.69686,3.989,9.43384,8.2587,11.92321,4.90732,2.86109,7.91679,7.1548,10.16317,11.70626,5.85346,11.85991,16.51163,19.24854,25.11219,28.54372q-.57658.85125-1.15416,1.70344l-1.308,1.45424q-8.6565,12.3484-17.313,24.69683c-1.78235.04454-3.96606.78734-5.28655.02831-18.26148-10.49646-33.1571-24.81889-46.17618-41.22395C70.15487,187.74685,71.16972,183.0157,66.37872,182.75943Z"/><path class="cls-8" d="M112.51607,121.20057a54.12585,54.12585,0,0,1,18.52644-12.95717c2.85828.226,5.8405.669,6.1529-3.53484l-.00891.00391c15.55261,14.8974,26.3644,33.71457,40.89164,49.48855,4.227,4.58976,9.82616,8.45336,11.16022,15.26552q-13.92813,8.4256-27.85685,16.85132a9.68626,9.68626,0,0,0-1.921-6.97375Q136.02615,150.24189,112.51607,121.20057Z"/><path class="cls-9" d="M112.51607,121.20057q23.48169,29.06413,46.94444,58.14354a9.68635,9.68635,0,0,1,1.921,6.97378q-9.02188,8.611-18.04383,17.222c-8.60006-9.29569-19.25823-16.68432-25.11169-28.54423-2.24638-4.55146-5.25585-8.84517-10.16317-11.70626-4.26971-2.48937-6.47047-7.22635-8.2587-11.92321-1.65607-4.34979-3.33384-8.84566-9.02315-9.39555C96.90946,133.87887,103.809,126.594,112.51607,121.20057Z"/><path class="cls-10" d="M168.73044,91.50151a62.94417,62.94417,0,0,1,20.53677-5.18684c.88854,2.2612,1.29789,4.9031,2.74308,6.722,9.267,11.66333,19.21458,22.81257,28.03109,34.79826,6.54953,8.90383,14.49381,16.84234,19.4335,26.91183q-11.15258,1.959-22.3054,3.91776c-2.327-11.71017-10.89131-19.79546-17.24612-29.09406-4.78552-7.00235-9.62405-13.79608-17.14959-18.9533C176.49654,106.31542,169.74215,100.531,168.73044,91.50151Z"/><path class="cls-11" d="M189.23806,169.4666c-1.33376-6.81222-6.93292-10.67582-11.15992-15.26558-14.52724-15.774-25.339-34.59115-40.89164-49.48855a43.20672,43.20672,0,0,1,16.279-7.60508c7.02252,7.1639,14.09179,14.51638,18.8965,23.22243,4.59856,8.33251,8.85744,16.69618,15.846,23.27786,6.11164,5.75581,11.244,12.16834,14.55324,19.94044Q195.99954,166.50666,189.23806,169.4666Z"/><path class="cls-12" d="M202.76133,163.5488c-3.3094-7.77278-8.44171-14.18531-14.55335-19.94112-6.98856-6.58168-11.24744-14.94535-15.846-23.27786-4.80471-8.70605-11.874-16.05853-18.8965-23.22243,4.58719-3.23229,9.86343-4.59086,15.26537-5.60591,1.0113,9.02954,7.76569,14.81394,14.04292,19.11568,7.52554,5.15722,12.36407,11.951,17.14959,18.9533,6.35481,9.2986,14.9191,17.38389,17.24629,29.094Q209.96567,161.10664,202.76133,163.5488Z"/><path class="cls-13" d="M239.4748,154.74666c-4.93961-10.06939-12.88389-18.0079-19.43342-26.91173-8.81651-11.98569-18.76414-23.13493-28.03109-34.79826-1.44519-1.8189-1.85454-4.4608-2.74308-6.722a22.9995,22.9995,0,0,1,11.18166-2.00228c8.97234,4.042,16.70807,9.99825,18.17323,19.95389.59386,4.035,4.46216,6.54222,5.05427,7.077,9.22429,8.33168,15.62447,18.9652,23.87132,28.00346,4.54646,4.98279,8.98624,10.07579,12.25265,16.049Q249.63858,155.07041,239.4748,154.74666Z"/><path class="cls-8" d="M161.32484,59.49208c2.144-15.38107,9.99644-29.59014,9.35068-45.544,6.37115-.94333,12.43433,1.2562,18.657,1.82811a3.41169,3.41169,0,0,0,3.99293,1.21336l.08332-.15571c.86493,12.90907-5.9533,24.57737-6.015,37.33389Z"/><path class="cls-11" d="M187.39382,54.16777c.06166-12.75654,6.87989-24.42484,6.015-37.33391,8.56376.51656,16.3515,3.76965,24.18968,6.84456,3.43631,9.70835-2.529,18.62856-2.34812,28.063q-2.75593.15326-5.51242.30681c-1.96267-1.62524-3.81689-1.59187-5.5463.36092Z"/><path class="cls-7" d="M296.85426,179.47632c5.758-13.26079,11.23994-26.61937,14.44989-40.78361,5.0785,14.73032,3.273,29.91767,1.833,44.78741-1.01294,10.46-3.06805,21.15834-8.48573,30.64816-1.82945-11.3311-1.88592-23.079-7.89624-33.41863A8.87729,8.87729,0,0,0,296.85426,179.47632Z"/><path class="cls-13" d="M235.74663,32.32171c11.99031,5.233,21.88491,13.27407,32.70137,23.86466-15.9569-1.6691-29.78015-3.115-43.60391-4.559,1.64587-3.44047,8.27658-.94319,7.81962-4.59413C231.96232,41.42938,236.18546,37.4626,235.74663,32.32171Z"/><path class="cls-12" d="M235.74663,32.32171c.43883,5.14089-3.78431,9.10767-3.08292,14.71154.457,3.65094-6.17375,1.15366-7.81962,4.59413q-2.00809.025-4.0169.05532-.851.00077-1.70271-.00112-1.93692.03039-3.874.06032c-.18106-9.43492,5.78429-18.35513,2.348-28.06348A75.19142,75.19142,0,0,1,235.74663,32.32171Z"/><path class="cls-1" d="M96.27226,296.3545c-3.63421-.967-7.036-2.3372-9.43739-5.442q.66468-.69727,1.32821-1.39326,4.31711,3.07032,8.63747,6.13726Z"/><path class="cls-11" d="M137.19541,104.70856c-.3124,4.20379-3.29462,3.76079-6.1529,3.53484A8.54728,8.54728,0,0,1,137.19541,104.70856Z"/><path class="cls-13" d="M204.19162,52.40914c1.72941-1.95279,3.58363-1.98616,5.5463-.36092Q206.96531,52.22837,204.19162,52.40914Z"/><path class="cls-11" d="M193.32546,16.98957a3.41169,3.41169,0,0,1-3.99293-1.21336A4.106,4.106,0,0,1,193.32546,16.98957Z"/><path class="cls-1" d="M99.95207,298.17405c-1.51721-.01907-2.88739-.3354-3.6799-1.81969l.528-.6968q1.73077,1.01618,3.46238,2.03005Z"/><path class="cls-13" d="M219.12448,51.68158q.85152.00122,1.70271.00112l-.85149.25176Z"/><path class="cls-9" d="M90.76045,142q-.78381.94341-1.56755,1.88676Q89.97674,142.9434,90.76045,142Z"/><path class="cls-9" d="M88.97465,144.17216q-.65478.70705-1.30918,1.414Q88.3204,144.879,88.97465,144.17216Z"/><path class="cls-14" d="M123.56305,231.39389a3.104,3.104,0,0,1-.24908,1.61974c-9.47317,19.57639-17.626,39.57927-20.15193,61.44466a3.77767,3.77767,0,0,1-2.89892,3.23014q-1.73233-1.01569-3.463-2.03087-4.31892-3.06948-8.63706-6.13837c-21.38016-17.61-30.86136-40.85376-30.53355-67.93912.161-13.30708,2.27263-26.687,8.74947-38.8205,4.79072.25613,3.77587,4.98728,5.72132,7.43868,13.01908,16.40506,27.9147,30.72749,46.17618,41.224C119.597,232.18123,121.7807,231.43843,123.56305,231.39389Z"/><path class="cls-9" d="M142.184,205.24282q-.654.72732-1.308,1.45444Q141.53008,205.96985,142.184,205.24282Z"/></svg>