<?xml version="1.0" encoding="utf-8"?>
<!-- Generator: Adobe Illustrator 25.4.1, SVG Export Plug-In . SVG Version: 6.00 Build 0)  -->
<svg version="1.1" id="Layer_1" xmlns="http://www.w3.org/2000/svg" xmlns:xlink="http://www.w3.org/1999/xlink" x="0px" y="0px"
	 viewBox="0 0 1000.1 356.1" style="enable-background:new 0 0 1000.1 356.1;" xml:space="preserve">
<style type="text/css">
	.st0{fill:#6C47F2;}
	.st1{fill:#5570EF;}
	.st2{fill:url(#SVGID_1_);}
</style>
<g>
	<g>
		<polygon class="st0" points="746,232 713.8,152.9 693,152.9 741.9,272.3 749.8,272.3 799.5,152.9 778.7,152.9 		"/>
		<polygon class="st0" points="643.9,193.2 676.1,272.3 696.9,272.3 647.9,152.9 640,152.9 590.3,272.3 611.1,272.3 		"/>
		<rect x="823" y="152.9" class="st0" width="19.4" height="119.4"/>
		<rect x="980.7" y="152.9" class="st0" width="19.4" height="119.4"/>
		<path class="st0" d="M569.1,190.1c0-20.5-16.7-37.2-37.2-37.2l-25.6,0c-0.9,0-2.8,0-4.9,0v0h-18v119.4h18v-45c1.7,0,3.6,0,5.8,0
			l24.7,0c0.3,0,0.6,0,0.9,0l20.2,44.9l19.8,0l-22.6-49.9C561.9,215.6,569.1,203.3,569.1,190.1z M551.1,190.1
			c0,10.6-8.6,19.2-19.2,19.2l-24.8,0h0c-0.9,0-2.1,0-3.3,0c-0.7,0-1.5,0-2.3,0v-38.4c1.7,0,3.5,0,5,0l25.5,0
			C542.5,170.9,551.1,179.5,551.1,190.1z"/>
		<polygon class="st0" points="867.6,170.9 900.7,170.9 900.7,272.3 920.1,272.3 920.1,170.9 953.2,170.9 953.2,152.9 867.6,152.9 
					"/>
		<path class="st0" d="M410.4,228.3h33.4c-1,6.6-4.1,12.6-8.9,17.4c-5.7,5.5-13.2,8.6-21.1,8.6c-16.8,0-30.4-13.7-30.4-30.4v-22.5
			c0-5,1.2-9.7,3.4-13.9l1.3-2.1c5.4-8.6,14.5-13.9,24.6-14.4c0.3,0,0.6,0,0.9,0c0.1,0,0.2,0,0.3,0c10.6,0,20.2,5.4,25.8,14.4
			l1.4,2.2c0.1,0.2,0.3,0.5,0.4,0.7h19.2c-0.9-3.4-2.2-6.6-3.9-9.6l0,0l-0.1-0.1c-8.2-15.2-24.3-25.6-42.7-25.6c0,0,0,0-0.1,0
			c0,0,0,0-0.1,0c-18.5,0-34.6,10.4-42.7,25.6l-0.1,0.1l0,0c-3.6,6.8-5.7,14.5-5.7,22.7v22.5c0,26.7,21.7,48.4,48.4,48.4
			c12.7,0,24.7-4.9,33.8-13.8c8.1-7.9,13-18.2,14.3-29.3v-18.9h-51.4V228.3z"/>
	</g>
	<g>
		<path class="st1" d="M115.1,51.2c-2.7,4.1-3.7,8.7-3.2,13.2c0.6,5.7,3.6,11.1,8.7,14.6c0.3,0.2,0.5,0.4,0.8,0.6
			c9.7,6.1,22.6,3.3,28.9-6.2l27.4-41.8c2.7-4.1,3.7-8.7,3.2-13.2c-0.6-6-3.9-11.6-9.4-15.1c-9.7-6.1-22.6-3.3-28.9,6.2l-25.7,39.1
			L115.1,51.2z"/>
		<path class="st1" d="M243.6,162.8c-2.7,4.1-3.7,8.7-3.2,13.2c0.6,5.7,3.6,11.1,8.7,14.5c0.3,0.2,0.5,0.4,0.8,0.6
			c9.7,6.1,22.6,3.3,28.9-6.2l27.4-41.8c2.7-4.1,3.7-8.7,3.2-13.2c-0.6-6-3.9-11.6-9.4-15.1c-9.7-6.1-22.6-3.3-28.9,6.2l-25.7,39.1
			L243.6,162.8z"/>
		
			<linearGradient id="SVGID_1_" gradientUnits="userSpaceOnUse" x1="-787.9091" y1="791.6281" x2="-562.2908" y2="791.6281" gradientTransform="matrix(0.8298 0.5581 -0.5581 0.8298 1131.9247 -62.1207)">
			<stop  offset="0" style="stop-color:#5570EF"/>
			<stop  offset="6.101501e-02" style="stop-color:#586BEF"/>
			<stop  offset="0.3746" style="stop-color:#6357F1"/>
			<stop  offset="0.6882" style="stop-color:#6A4BF2"/>
			<stop  offset="1" style="stop-color:#6C47F2"/>
		</linearGradient>
		<path class="st2" d="M225.8,277.4L225.8,277.4c2.2-3.8,3.8-7.7,5-11.7c2.7-9.1,2.9-18.7,0.9-27.8c0,0,0-0.1,0-0.1
			c-3.1-12.8-10.7-24.7-22.6-32.7l-0.9-0.6c-2.3-1.5-4.6-2.8-7-3.9c-1-0.4-6-2.6-7.4-3.6l-0.4-0.3c0,0,0,0,0,0l0,0
			c-0.4-0.2-0.8-0.5-1.2-0.7c-7.4-5-9.4-15.1-4.4-22.5l28.4-42.2c3.6-5.4,4.7-11.7,3.6-17.6c-0.6-3-1.8-6-3.5-8.6
			c-1.6-2.5-3.8-4.6-6.4-6.4c-10.2-6.9-24-4.6-31.5,4.9l0,0c-0.4,0.5-0.7,0.9-1,1.4L93.8,229.2c-0.3,0.5-0.6,1-0.9,1.5l0,0
			c-6,10.6-2.9,24.1,7.3,31c3.7,2.5,7.8,3.8,12,4c0,0,0,0,0,0c7.9,0.4,15.8-3.3,20.5-10.3l9.2-13.7c5-7.4,15.1-9.4,22.5-4.4
			c1,0.7,2,1.5,2.8,2.4l0,0c0.1,0,0.1,0.1,0.2,0.1c0,0,0.1,0,0.1,0.1c2,2.2,3.3,4.9,3.8,7.7c0.8,4.1,0,8.4-2.5,12.1l-14.8,22
			c-0.1,0.1-0.1,0.1-0.2,0.2c-3.3,3.5-7,6.6-10.9,9.1c0,0,0,0-0.1,0c-0.1,0.1-0.2,0.1-0.3,0.2c-10.3,6.5-22.5,9.4-34.5,8.5
			c-9.3-0.8-18.6-3.9-26.9-9.5c-22.2-15-30.3-42.9-21.1-66.9c1.6-3.9,3.5-7.7,5.9-11.4l17.1-25.3l26.7-39.4l7.5-11.1
			c0.8-1.6,1.4-3.3,1.8-5.1c1.1-4,1.2-8.3,0.3-12.3c-1.4-7.1-5.5-13.7-12-18c-13-8.8-30.5-5.4-39.3,7.4l-5.2,7.7l-26.7,39.4
			l-15.6,23l-1.5,2.2C-15.5,231.8-2,301.9,49.5,336.8C82.5,359,123,361.5,157,347c13.3-5.7,25.6-14,36.1-24.7
			c4.2-4.3,8.2-9,11.7-14.1c0.1-0.2,0.3-0.3,0.4-0.5l16-23.5l0.1-0.2c0.8-1.1,1.6-2.2,2.4-3.3C224.4,279.7,225.1,278.5,225.8,277.4z
			"/>
	</g>
</g>
</svg>
