<svg width="1680" height="431" viewBox="0 0 1680 431" fill="none" xmlns="http://www.w3.org/2000/svg">
<path d="M399.242 197.588C402.406 199.972 406.922 199.35 409.122 196.056C420.662 178.779 427.773 158.883 429.771 138.128C431.999 114.989 427.785 91.685 417.595 70.7917C407.405 49.8984 391.635 32.2301 372.03 19.7401C352.424 7.25009 329.747 0.424951 306.504 0.0192526C283.262 -0.386446 260.36 5.64311 240.331 17.4413C220.302 29.2395 203.925 46.3467 193.012 66.8716C182.098 87.3965 177.074 110.54 178.493 133.742C179.766 154.554 186.178 174.686 197.108 192.355C199.192 195.724 203.683 196.503 206.928 194.231L257.129 159.08C260.373 156.808 261.11 152.353 259.321 148.818C256.228 142.709 254.401 136.01 253.98 129.125C253.412 119.844 255.422 110.587 259.787 102.377C264.153 94.167 270.703 87.3241 278.715 82.6048C286.727 77.8855 295.888 75.4737 305.185 75.636C314.482 75.7982 323.552 78.5283 331.395 83.5243C339.237 88.5203 345.545 95.5877 349.621 103.945C353.697 112.302 355.383 121.624 354.491 130.88C353.83 137.745 351.77 144.377 348.466 150.374C346.555 153.844 347.136 158.323 350.299 160.706L399.242 197.588Z" fill="#F06C00"/>
<path d="M31.1097 232.764C27.9461 230.38 23.4302 231.002 21.23 234.296C9.69026 251.573 2.57879 271.469 0.580357 292.223C-1.64766 315.362 2.56642 338.667 12.7568 359.56C22.9471 380.453 38.7167 398.122 58.3221 410.612C77.9275 423.102 100.605 429.927 123.847 430.332C147.09 430.738 169.992 424.709 190.021 412.91C210.05 401.112 226.427 384.005 237.34 363.48C248.253 342.955 253.278 319.812 251.859 296.61C250.586 275.798 244.173 255.666 233.244 237.996C231.16 234.628 226.668 233.849 223.423 236.121L173.223 271.272C169.978 273.544 169.242 277.999 171.031 281.533C174.123 287.643 175.951 294.342 176.372 301.227C176.94 310.508 174.93 319.765 170.564 327.975C166.199 336.185 159.648 343.028 151.637 347.747C143.625 352.466 134.464 354.878 125.167 354.716C115.87 354.553 106.799 351.823 98.9571 346.827C91.115 341.831 84.8071 334.764 80.731 326.407C76.6548 318.049 74.9692 308.728 75.8604 299.472C76.5215 292.606 78.5816 285.975 81.8856 279.977C83.7969 276.508 83.2163 272.029 80.0526 269.645L31.1097 232.764Z" fill="#F06C00"/>
<path d="M232.764 399.242C230.38 402.406 231.002 406.922 234.296 409.122C251.573 420.661 271.469 427.773 292.224 429.771C315.362 431.999 338.667 427.785 359.56 417.595C380.453 407.405 398.122 391.635 410.612 372.03C423.102 352.424 429.927 329.747 430.333 306.504C430.738 283.262 424.709 260.36 412.91 240.331C401.112 220.302 384.005 203.925 363.48 193.012C342.955 182.098 319.812 177.073 296.61 178.493C275.798 179.766 255.666 186.178 237.996 197.108C234.628 199.192 233.849 203.683 236.121 206.928L271.272 257.129C273.544 260.373 277.999 261.11 281.533 259.321C287.643 256.228 294.342 254.401 301.227 253.98C310.508 253.412 319.765 255.422 327.975 259.787C336.185 264.153 343.028 270.703 347.747 278.715C352.466 286.727 354.878 295.888 354.716 305.185C354.553 314.481 351.823 323.552 346.827 331.395C341.831 339.237 334.764 345.545 326.407 349.621C318.049 353.697 308.728 355.383 299.472 354.491C292.606 353.83 285.975 351.77 279.977 348.466C276.508 346.555 272.029 347.135 269.645 350.299L232.764 399.242Z" fill="#F06C00"/>
<path d="M197.588 31.1097C199.972 27.9461 199.35 23.4302 196.056 21.23C178.779 9.69027 158.883 2.57879 138.128 0.580357C114.989 -1.64767 91.685 2.56644 70.7917 12.7568C49.8985 22.9471 32.2301 38.7167 19.7401 58.3221C7.2501 77.9275 0.424943 100.605 0.019243 123.847C-0.386457 147.09 5.64309 169.992 17.4413 190.021C29.2395 210.05 46.3467 226.427 66.8716 237.34C87.3965 248.253 110.54 253.278 133.742 251.859C154.554 250.586 174.686 244.173 192.355 233.244C195.724 231.16 196.503 226.668 194.231 223.423L159.08 173.223C156.808 169.978 152.353 169.242 148.818 171.031C142.709 174.123 136.01 175.951 129.125 176.372C119.844 176.94 110.587 174.93 102.377 170.564C94.167 166.199 87.3241 159.648 82.6048 151.637C77.8855 143.625 75.4737 134.464 75.636 125.167C75.7983 115.87 78.5283 106.799 83.5243 98.9571C88.5203 91.115 95.5877 84.8071 103.945 80.731C112.302 76.6549 121.624 74.9692 130.88 75.8604C137.745 76.5215 144.377 78.5816 150.374 81.8855C153.844 83.7969 158.323 83.2162 160.706 80.0526L197.588 31.1097Z" fill="#F06C00"/>
<path d="M1567.73 413.51C1566.06 413.51 1564.65 412.928 1563.48 411.764C1562.32 410.599 1561.74 409.185 1561.74 407.522V242.347C1561.74 240.684 1562.32 239.27 1563.48 238.106C1564.65 236.941 1566.06 236.359 1567.73 236.359H1587.94C1589.77 236.359 1591.18 236.941 1592.18 238.106C1593.34 239.27 1593.92 240.684 1593.92 242.347V327.679L1635.84 288.007C1637.34 286.677 1638.67 285.679 1639.83 285.013C1641 284.182 1642.74 283.766 1645.07 283.766H1668.28C1669.94 283.766 1671.27 284.265 1672.27 285.263C1673.27 286.261 1673.77 287.592 1673.77 289.255C1673.77 289.92 1673.6 290.669 1673.27 291.5C1672.94 292.332 1672.27 293.081 1671.27 293.746L1619.87 341.901L1677.51 403.779C1679.17 405.443 1680 406.857 1680 408.021C1680 409.684 1679.42 411.015 1678.26 412.013C1677.26 413.011 1676.01 413.51 1674.52 413.51H1650.81C1648.32 413.51 1646.49 413.178 1645.32 412.512C1644.33 411.68 1643.08 410.599 1641.58 409.269L1593.92 359.117V407.522C1593.92 409.185 1593.34 410.599 1592.18 411.764C1591.18 412.928 1589.77 413.51 1587.94 413.51H1567.73Z" fill="#101014"/>
<path d="M1475.09 416.006C1463.11 416.006 1452.55 413.76 1443.4 409.269C1434.42 404.778 1427.35 398.291 1422.19 389.808C1417.2 381.158 1414.46 370.762 1413.96 358.619C1413.79 356.124 1413.71 352.88 1413.71 348.888C1413.71 344.73 1413.79 341.32 1413.96 338.658C1414.46 326.516 1417.2 316.203 1422.19 307.719C1427.35 299.07 1434.42 292.499 1443.4 288.008C1452.55 283.517 1463.11 281.271 1475.09 281.271C1485.73 281.271 1494.8 282.769 1502.28 285.763C1509.77 288.757 1515.92 292.499 1520.75 296.991C1525.57 301.482 1529.15 306.222 1531.47 311.212C1533.97 316.036 1535.3 320.444 1535.47 324.436C1535.63 326.266 1535.05 327.763 1533.72 328.928C1532.56 329.926 1531.14 330.425 1529.48 330.425H1507.52C1505.86 330.425 1504.53 330.009 1503.53 329.177C1502.7 328.345 1501.87 327.098 1501.03 325.434C1498.54 318.781 1495.21 314.123 1491.05 311.462C1487.06 308.634 1481.91 307.22 1475.58 307.22C1467.27 307.22 1460.61 309.882 1455.62 315.205C1450.8 320.361 1448.22 328.595 1447.89 339.906C1447.56 346.227 1447.56 352.049 1447.89 357.372C1448.22 368.849 1450.8 377.166 1455.62 382.322C1460.61 387.479 1467.27 390.057 1475.58 390.057C1482.07 390.057 1487.31 388.726 1491.3 386.065C1495.3 383.237 1498.54 378.497 1501.03 371.843C1501.87 370.18 1502.7 368.932 1503.53 368.1C1504.53 367.269 1505.86 366.853 1507.52 366.853H1529.48C1531.14 366.853 1532.56 367.435 1533.72 368.599C1535.05 369.597 1535.63 371.011 1535.47 372.841C1535.3 375.835 1534.47 379.245 1532.97 383.071C1531.64 386.73 1529.4 390.556 1526.24 394.548C1523.24 398.374 1519.42 401.95 1514.76 405.277C1510.1 408.438 1504.44 411.016 1497.79 413.012C1491.3 415.008 1483.74 416.006 1475.09 416.006Z" fill="#101014"/>
<path d="M1314.08 416.006C1305.43 416.006 1297.61 414.343 1290.63 411.016C1283.64 407.523 1278.07 402.948 1273.91 397.293C1269.92 391.471 1267.92 384.984 1267.92 377.831C1267.92 366.188 1272.58 356.956 1281.89 350.136C1291.38 343.15 1303.85 338.492 1319.32 336.163L1353.5 331.173V325.933C1353.5 318.947 1351.76 313.541 1348.26 309.715C1344.77 305.89 1338.78 303.977 1330.3 303.977C1324.31 303.977 1319.4 305.224 1315.58 307.719C1311.92 310.048 1309.17 313.209 1307.34 317.201C1306.01 319.363 1304.1 320.444 1301.61 320.444H1281.89C1280.06 320.444 1278.65 319.945 1277.65 318.947C1276.82 317.949 1276.41 316.619 1276.41 314.955C1276.57 312.294 1277.65 309.05 1279.65 305.224C1281.64 301.398 1284.81 297.739 1289.13 294.246C1293.46 290.586 1299.03 287.509 1305.85 285.014C1312.67 282.519 1320.9 281.271 1330.55 281.271C1341.03 281.271 1349.84 282.602 1357 285.264C1364.32 287.759 1370.14 291.169 1374.46 295.493C1378.79 299.818 1381.95 304.892 1383.94 310.713C1385.94 316.535 1386.94 322.69 1386.94 329.177V407.523C1386.94 409.186 1386.36 410.6 1385.19 411.764C1384.03 412.929 1382.61 413.511 1380.95 413.511H1360.74C1358.91 413.511 1357.41 412.929 1356.25 411.764C1355.25 410.6 1354.75 409.186 1354.75 407.523V397.792C1352.59 400.952 1349.68 403.947 1346.02 406.774C1342.36 409.436 1337.87 411.681 1332.54 413.511C1327.39 415.174 1321.23 416.006 1314.08 416.006ZM1322.56 392.303C1328.39 392.303 1333.63 391.055 1338.28 388.56C1343.11 386.065 1346.85 382.239 1349.51 377.083C1352.34 371.76 1353.75 365.106 1353.75 357.122V351.882L1328.8 355.875C1318.99 357.372 1311.67 359.783 1306.85 363.11C1302.02 366.437 1299.61 370.512 1299.61 375.336C1299.61 378.996 1300.69 382.156 1302.85 384.818C1305.18 387.313 1308.09 389.225 1311.59 390.556C1315.08 391.721 1318.74 392.303 1322.56 392.303Z" fill="#101014"/>
<path d="M1195.24 416.005C1185.6 416.005 1177.53 414.342 1171.04 411.015C1164.72 407.688 1159.48 403.447 1155.32 398.29V407.522C1155.32 409.185 1154.74 410.599 1153.58 411.764C1152.58 412.928 1151.16 413.51 1149.34 413.51H1129.62C1127.96 413.51 1126.55 412.928 1125.38 411.764C1124.22 410.599 1123.64 409.185 1123.64 407.522V242.347C1123.64 240.684 1124.22 239.27 1125.38 238.106C1126.55 236.941 1127.96 236.359 1129.62 236.359H1150.83C1152.66 236.359 1154.08 236.941 1155.07 238.106C1156.24 239.27 1156.82 240.684 1156.82 242.347V297.738C1160.98 292.914 1166.14 289.005 1172.29 286.011C1178.61 282.851 1186.26 281.271 1195.24 281.271C1204.06 281.271 1211.71 282.768 1218.2 285.762C1224.69 288.756 1230.09 292.998 1234.42 298.487C1238.91 303.81 1242.32 310.047 1244.65 317.2C1246.98 324.352 1248.22 332.087 1248.39 340.404C1248.56 343.398 1248.64 346.143 1248.64 348.638C1248.64 350.967 1248.56 353.628 1248.39 356.622C1248.06 365.272 1246.73 373.256 1244.4 380.575C1242.07 387.728 1238.74 393.965 1234.42 399.288C1230.09 404.611 1224.69 408.769 1218.2 411.764C1211.71 414.591 1204.06 416.005 1195.24 416.005ZM1186.01 389.308C1193.17 389.308 1198.74 387.811 1202.73 384.817C1206.72 381.656 1209.55 377.581 1211.21 372.591C1213.04 367.601 1214.12 362.111 1214.46 356.123C1214.79 351.133 1214.79 346.143 1214.46 341.153C1214.12 335.164 1213.04 329.675 1211.21 324.685C1209.55 319.695 1206.72 315.703 1202.73 312.709C1198.74 309.548 1193.17 307.968 1186.01 307.968C1179.36 307.968 1173.95 309.465 1169.79 312.459C1165.64 315.453 1162.48 319.279 1160.31 323.937C1158.15 328.428 1156.99 333.168 1156.82 338.159C1156.65 341.153 1156.57 344.396 1156.57 347.889C1156.57 351.216 1156.65 354.377 1156.82 357.371C1157.15 362.527 1158.23 367.601 1160.06 372.591C1162.06 377.415 1165.14 381.407 1169.3 384.567C1173.62 387.728 1179.19 389.308 1186.01 389.308Z" fill="#101014"/>
<path d="M1018.52 416.005C1009.87 416.005 1002.22 414.591 995.568 411.764C989.081 408.769 983.675 404.611 979.35 399.288C975.025 393.965 971.698 387.728 969.369 380.575C967.041 373.256 965.71 365.272 965.377 356.622C965.211 353.628 965.128 350.967 965.128 348.638C965.128 346.143 965.211 343.398 965.377 340.404C965.71 332.087 966.958 324.352 969.12 317.2C971.449 310.047 974.775 303.81 979.1 298.487C983.591 292.998 989.081 288.756 995.568 285.762C1002.22 282.768 1009.87 281.271 1018.52 281.271C1027.5 281.271 1035.07 282.851 1041.23 286.011C1047.55 289.005 1052.79 292.914 1056.95 297.738V242.347C1056.95 240.684 1057.45 239.27 1058.44 238.106C1059.61 236.941 1061.11 236.359 1062.94 236.359H1084.14C1085.81 236.359 1087.22 236.941 1088.39 238.106C1089.55 239.27 1090.13 240.684 1090.13 242.347V407.522C1090.13 409.185 1089.55 410.599 1088.39 411.764C1087.22 412.928 1085.81 413.51 1084.14 413.51H1064.43C1062.6 413.51 1061.11 412.928 1059.94 411.764C1058.94 410.599 1058.44 409.185 1058.44 407.522V398.29C1054.29 403.447 1048.96 407.688 1042.48 411.015C1036.15 414.342 1028.17 416.005 1018.52 416.005ZM1027.75 389.308C1034.74 389.308 1040.31 387.728 1044.47 384.567C1048.63 381.407 1051.71 377.415 1053.7 372.591C1055.7 367.601 1056.78 362.527 1056.95 357.371C1057.11 354.377 1057.2 351.216 1057.2 347.889C1057.2 344.396 1057.11 341.153 1056.95 338.159C1056.78 333.168 1055.62 328.428 1053.45 323.937C1051.29 319.279 1048.13 315.453 1043.97 312.459C1039.81 309.465 1034.41 307.968 1027.75 307.968C1020.77 307.968 1015.2 309.548 1011.04 312.709C1007.05 315.703 1004.13 319.695 1002.3 324.685C1000.47 329.675 999.394 335.164 999.061 341.153C998.895 346.143 998.895 351.133 999.061 356.123C999.394 362.111 1000.47 367.601 1002.3 372.591C1004.13 377.581 1007.05 381.656 1011.04 384.817C1015.2 387.811 1020.77 389.308 1027.75 389.308Z" fill="#101014"/>
<path d="M882.254 416.006C863.79 416.006 849.152 410.683 838.34 400.038C827.528 389.392 821.706 374.255 820.875 354.627C820.708 352.964 820.625 350.884 820.625 348.389C820.625 345.728 820.708 343.649 820.875 342.152C821.54 329.676 824.368 318.864 829.358 309.715C834.515 300.567 841.584 293.581 850.566 288.757C859.549 283.767 870.111 281.271 882.254 281.271C895.727 281.271 907.038 284.099 916.187 289.755C925.336 295.244 932.239 302.979 936.896 312.959C941.554 322.773 943.883 334.167 943.883 347.142V352.381C943.883 354.045 943.3 355.459 942.136 356.623C940.972 357.787 939.475 358.37 937.645 358.37H854.808C854.808 358.37 854.808 358.619 854.808 359.118C854.808 359.617 854.808 360.033 854.808 360.366C854.974 366.188 856.056 371.594 858.052 376.584C860.214 381.408 863.291 385.317 867.283 388.311C871.442 391.305 876.349 392.802 882.004 392.802C886.662 392.802 890.571 392.136 893.731 390.806C896.892 389.309 899.47 387.645 901.466 385.816C903.462 383.986 904.876 382.489 905.708 381.324C907.205 379.328 908.369 378.164 909.201 377.831C910.199 377.332 911.613 377.083 913.442 377.083H934.9C936.564 377.083 937.894 377.582 938.892 378.58C940.057 379.578 940.556 380.825 940.389 382.322C940.223 384.984 938.809 388.227 936.148 392.053C933.653 395.879 929.993 399.622 925.169 403.281C920.346 406.941 914.274 410.018 906.955 412.513C899.803 414.842 891.569 416.006 882.254 416.006ZM854.808 337.411H909.949V336.662C909.949 330.175 908.868 324.52 906.706 319.696C904.543 314.872 901.383 311.046 897.224 308.218C893.066 305.391 888.076 303.977 882.254 303.977C876.432 303.977 871.442 305.391 867.283 308.218C863.125 311.046 859.964 314.872 857.802 319.696C855.806 324.52 854.808 330.175 854.808 336.662V337.411Z" fill="#101014"/>
<path d="M738.25 416.006C719.787 416.006 705.149 410.683 694.337 400.038C683.525 389.392 677.703 374.255 676.871 354.627C676.705 352.964 676.622 350.884 676.622 348.389C676.622 345.728 676.705 343.649 676.871 342.152C677.537 329.676 680.364 318.864 685.355 309.715C690.511 300.567 697.581 293.581 706.563 288.757C715.545 283.767 726.108 281.271 738.25 281.271C751.724 281.271 763.035 284.099 772.184 289.755C781.332 295.244 788.235 302.979 792.893 312.959C797.55 322.773 799.879 334.167 799.879 347.142V352.381C799.879 354.045 799.297 355.459 798.132 356.623C796.968 357.787 795.471 358.37 793.641 358.37H710.804C710.804 358.37 710.804 358.619 710.804 359.118C710.804 359.617 710.804 360.033 710.804 360.366C710.971 366.188 712.052 371.594 714.048 376.584C716.21 381.408 719.288 385.317 723.28 388.311C727.438 391.305 732.345 392.802 738.001 392.802C742.658 392.802 746.567 392.136 749.728 390.806C752.888 389.309 755.466 387.645 757.463 385.816C759.459 383.986 760.872 382.489 761.704 381.324C763.201 379.328 764.366 378.164 765.197 377.831C766.195 377.332 767.609 377.083 769.439 377.083H790.897C792.56 377.083 793.891 377.582 794.889 378.58C796.053 379.578 796.552 380.825 796.386 382.322C796.22 384.984 794.806 388.227 792.144 392.053C789.649 395.879 785.99 399.622 781.166 403.281C776.342 406.941 770.271 410.018 762.952 412.513C755.799 414.842 747.565 416.006 738.25 416.006ZM710.804 337.411H765.946V336.662C765.946 330.175 764.865 324.52 762.702 319.696C760.54 314.872 757.379 311.046 753.221 308.218C749.062 305.391 744.072 303.977 738.25 303.977C732.429 303.977 727.438 305.391 723.28 308.218C719.121 311.046 715.961 314.872 713.799 319.696C711.802 324.52 710.804 330.175 710.804 336.662V337.411Z" fill="#101014"/>
<path d="M543.928 413.51C542.265 413.51 540.851 412.928 539.686 411.764C538.522 410.599 537.94 409.186 537.94 407.522V245.092C537.94 243.262 538.522 241.765 539.686 240.601C540.851 239.437 542.265 238.854 543.928 238.854H652.215C654.044 238.854 655.541 239.437 656.706 240.601C657.87 241.765 658.452 243.262 658.452 245.092V262.558C658.452 264.387 657.87 265.885 656.706 267.049C655.541 268.047 654.044 268.546 652.215 268.546H572.122V315.953H647.224C649.054 315.953 650.551 316.535 651.716 317.699C652.88 318.864 653.462 320.361 653.462 322.19V339.656C653.462 341.319 652.88 342.733 651.716 343.898C650.551 345.062 649.054 345.644 647.224 345.644H572.122V407.522C572.122 409.186 571.54 410.599 570.376 411.764C569.211 412.928 567.714 413.51 565.885 413.51H543.928Z" fill="#101014"/>
<path d="M1245.36 189.001C1243.69 189.001 1242.28 188.419 1241.12 187.254C1239.95 186.09 1239.37 184.676 1239.37 183.013V65.2448C1239.37 63.5814 1239.95 62.1675 1241.12 61.0032C1242.28 59.8388 1243.69 59.2566 1245.36 59.2566H1265.82C1267.48 59.2566 1268.89 59.8388 1270.06 61.0032C1271.22 62.1675 1271.81 63.5814 1271.81 65.2448V75.4747C1276.13 70.1518 1281.62 65.7438 1288.27 62.2507C1295.09 58.5912 1303.49 56.7615 1313.47 56.7615C1323.62 56.7615 1332.44 59.0903 1339.92 63.7478C1347.41 68.2389 1353.14 74.643 1357.14 82.9599C1361.3 91.2769 1363.37 101.257 1363.37 112.901V183.013C1363.37 184.676 1362.79 186.09 1361.63 187.254C1360.46 188.419 1359.05 189.001 1357.39 189.001H1335.43C1333.77 189.001 1332.35 188.419 1331.19 187.254C1330.02 186.09 1329.44 184.676 1329.44 183.013V114.398C1329.44 104.75 1327.03 97.1819 1322.21 91.6927C1317.55 86.2035 1310.73 83.4589 1301.75 83.4589C1293.1 83.4589 1286.19 86.2035 1281.04 91.6927C1275.88 97.1819 1273.3 104.75 1273.3 114.398V183.013C1273.3 184.676 1272.72 186.09 1271.56 187.254C1270.39 188.419 1268.98 189.001 1267.31 189.001H1245.36Z" fill="#101014"/>
<path d="M1134.5 191.496C1125.85 191.496 1118.04 189.833 1111.05 186.506C1104.06 183.013 1098.49 178.439 1094.33 172.783C1090.34 166.961 1088.34 160.474 1088.34 153.321C1088.34 141.678 1093 132.446 1102.32 125.626C1111.8 118.64 1124.27 113.982 1139.74 111.653L1173.93 106.663V101.424C1173.93 94.4373 1172.18 89.0313 1168.69 85.2055C1165.19 81.3797 1159.2 79.4668 1150.72 79.4668C1144.73 79.4668 1139.83 80.7143 1136 83.2094C1132.34 85.5382 1129.6 88.6986 1127.77 92.6907C1126.44 94.8531 1124.52 95.9344 1122.03 95.9344H1102.32C1100.49 95.9344 1099.07 95.4353 1098.07 94.4373C1097.24 93.4393 1096.83 92.1086 1096.83 90.4452C1096.99 87.7837 1098.07 84.5401 1100.07 80.7143C1102.07 76.8885 1105.23 73.2291 1109.55 69.736C1113.88 66.0765 1119.45 62.9992 1126.27 60.5041C1133.09 58.0091 1141.32 56.7615 1150.97 56.7615C1161.45 56.7615 1170.27 58.0922 1177.42 60.7537C1184.74 63.2487 1190.56 66.6587 1194.88 70.9835C1199.21 75.3083 1202.37 80.3817 1204.37 86.2035C1206.36 92.0254 1207.36 98.1799 1207.36 104.667V183.013C1207.36 184.676 1206.78 186.09 1205.61 187.254C1204.45 188.419 1203.03 189.001 1201.37 189.001H1181.16C1179.33 189.001 1177.83 188.419 1176.67 187.254C1175.67 186.09 1175.17 184.676 1175.17 183.013V173.282C1173.01 176.442 1170.1 179.437 1166.44 182.264C1162.78 184.926 1158.29 187.171 1152.97 189.001C1147.81 190.664 1141.66 191.496 1134.5 191.496ZM1142.99 167.793C1148.81 167.793 1154.05 166.545 1158.71 164.05C1163.53 161.555 1167.27 157.729 1169.93 152.573C1172.76 147.25 1174.17 140.596 1174.17 132.612V127.372L1149.22 131.365C1139.41 132.862 1132.09 135.274 1127.27 138.6C1122.44 141.927 1120.03 146.002 1120.03 150.826C1120.03 154.486 1121.11 157.646 1123.28 160.308C1125.6 162.803 1128.51 164.716 1132.01 166.046C1135.5 167.211 1139.16 167.793 1142.99 167.793Z" fill="#101014"/>
<path d="M877.673 189C876.01 189 874.596 188.418 873.431 187.254C872.267 186.089 871.685 184.676 871.685 183.012V65.2442C871.685 63.5808 872.267 62.1669 873.431 61.0025C874.596 59.8381 876.01 59.2559 877.673 59.2559H897.135C898.798 59.2559 900.212 59.8381 901.376 61.0025C902.541 62.1669 903.123 63.5808 903.123 65.2442V73.7274C906.616 69.07 911.274 65.161 917.095 62.0005C923.084 58.6738 930.153 56.9272 938.304 56.7609C957.266 56.4282 970.49 63.8303 977.976 78.9671C981.801 72.3136 987.291 66.9907 994.443 62.9986C1001.76 58.8401 1009.83 56.7609 1018.65 56.7609C1027.3 56.7609 1035.11 58.7569 1042.1 62.7491C1049.25 66.7412 1054.82 72.8126 1058.82 80.9632C1062.97 88.9475 1065.05 99.0941 1065.05 111.403V183.012C1065.05 184.676 1064.47 186.089 1063.31 187.254C1062.14 188.418 1060.73 189 1059.07 189H1038.61C1036.94 189 1035.53 188.418 1034.36 187.254C1033.2 186.089 1032.62 184.676 1032.62 183.012V113.399C1032.62 105.914 1031.54 100.009 1029.37 95.6842C1027.21 91.193 1024.3 88.0326 1020.64 86.2029C1016.98 84.3731 1012.91 83.4583 1008.42 83.4583C1004.76 83.4583 1001.1 84.3731 997.437 86.2029C993.778 88.0326 990.784 91.193 988.455 95.6842C986.126 100.009 984.962 105.914 984.962 113.399V183.012C984.962 184.676 984.38 186.089 983.215 187.254C982.051 188.418 980.637 189 978.974 189H958.514C956.684 189 955.187 188.418 954.023 187.254C953.025 186.089 952.526 184.676 952.526 183.012V113.399C952.526 105.914 951.361 100.009 949.033 95.6842C946.704 91.193 943.71 88.0326 940.05 86.2029C936.391 84.3731 932.482 83.4583 928.323 83.4583C924.498 83.4583 920.755 84.4563 917.095 86.4524C913.436 88.2821 910.442 91.3594 908.113 95.6842C905.784 100.009 904.62 105.914 904.62 113.399V183.012C904.62 184.676 904.038 186.089 902.873 187.254C901.709 188.418 900.295 189 898.632 189H877.673Z" fill="#101014"/>
<path d="M764.872 191.495C754.725 191.495 745.909 189.25 738.424 184.759C731.105 180.101 725.449 173.614 721.457 165.297C717.465 156.814 715.469 146.833 715.469 135.356V65.2442C715.469 63.5808 716.051 62.1669 717.216 61.0025C718.38 59.8381 719.794 59.256 721.457 59.256H743.414C745.244 59.256 746.658 59.8381 747.656 61.0025C748.82 62.1669 749.402 63.5808 749.402 65.2442V133.859C749.402 154.485 758.468 164.798 776.599 164.798C785.248 164.798 792.068 162.053 797.058 156.564C802.215 151.075 804.793 143.507 804.793 133.859V65.2442C804.793 63.5808 805.375 62.1669 806.54 61.0025C807.704 59.8381 809.118 59.256 810.781 59.256H832.738C834.401 59.256 835.815 59.8381 836.98 61.0025C838.144 62.1669 838.726 63.5808 838.726 65.2442V183.012C838.726 184.676 838.144 186.089 836.98 187.254C835.815 188.418 834.401 189 832.738 189H812.528C810.698 189 809.201 188.418 808.037 187.254C807.039 186.089 806.54 184.676 806.54 183.012V172.782C802.048 178.604 796.476 183.179 789.823 186.505C783.169 189.832 774.852 191.495 764.872 191.495Z" fill="#101014"/>
<path d="M543.928 189C542.265 189 540.851 188.501 539.686 187.503C538.522 186.339 537.94 184.842 537.94 183.012V20.5822C537.94 18.7525 538.522 17.2554 539.686 16.091C540.851 14.9267 542.265 14.3445 543.928 14.3445H566.633C568.463 14.3445 569.877 14.9267 570.875 16.091C572.039 17.2554 572.621 18.7525 572.621 20.5822V84.9554H646.226V20.5822C646.226 18.7525 646.809 17.2554 647.973 16.091C649.137 14.9267 650.551 14.3445 652.215 14.3445H674.67C676.5 14.3445 677.997 14.9267 679.162 16.091C680.326 17.2554 680.908 18.7525 680.908 20.5822V183.012C680.908 184.676 680.326 186.09 679.162 187.254C677.997 188.418 676.5 189 674.67 189H652.215C650.551 189 649.137 188.418 647.973 187.254C646.809 186.09 646.226 184.676 646.226 183.012V116.144H572.621V183.012C572.621 184.676 572.039 186.09 570.875 187.254C569.877 188.418 568.463 189 566.633 189H543.928Z" fill="#101014"/>
</svg>
