<svg id="Layer_1" data-name="Layer 1" xmlns="http://www.w3.org/2000/svg" viewBox="0 0 667.50823 154.05405"><defs><style>.cls-1{fill:#231f20;}</style></defs><title>hyperopt</title><path class="cls-1" d="M10.919,116.21009V11.70228H32.61426V51.54847h40.626V11.70228H94.936V116.21009H73.24023V69.55726h-40.626v46.65283Z"/><path class="cls-1" d="M117.34082,131.02845l2.55225.1416a31.83219,31.83219,0,0,0,5.67236-.21289,10.17906,10.17906,0,0,0,4.5376-1.63086q1.771-1.20556,3.29687-5.0332,1.52344-3.82909,1.3125-4.67969L106.31592,38.92835H128.7915l16.874,57.00391,15.95263-57.00391h21.48291l-26.49462,76.00538q-7.68018,21.97851-12.15186,27.26171-4.47144,5.28077-17.88672,5.28223-2.69678,0-4.3291-.03613-1.634-.03663-4.898-.24805Z"/><path class="cls-1" d="M260.03857,47.22376q9.45484,9.99684,9.45508,29.353,0,20.4192-9.24121,31.12549-9.241,10.70655-23.79834,10.70606-9.27759,0-15.41455-4.6084a29.79128,29.79128,0,0,1-6.56494-7.44532v40.27149H194.481V38.92835h19.35547v11.415a32.52,32.52,0,0,1,6.99267-7.94091,25.80668,25.80668,0,0,1,16.12695-5.17579A30.56237,30.56237,0,0,1,260.03857,47.22376Zm-15.5083,14.53467q-4.11987-6.8767-13.35839-6.87744-11.10352,0-15.25684,10.42236a39.14022,39.14022,0,0,0-2.14942,14.03858q0,13.47144,7.22852,18.93017a16.59262,16.59262,0,0,0,10.17334,3.19092q8.52466,0,13.00342-6.52295,4.47729-6.52295,4.478-17.37109A30.17878,30.17878,0,0,0,244.53027,61.75843Z"/><path class="cls-1" d="M334.104,40.49378A31.4337,31.4337,0,0,1,347.459,51.9264a37.973,37.973,0,0,1,6.15821,15.97705,98.94172,98.94172,0,0,1,.66406,15.33789H297.99561q.47021,11.62866,8.08154,16.30713a20.52,20.52,0,0,0,11.1416,2.90674q6.90454,0,11.22021-3.54492a17.0028,17.0028,0,0,0,4.1587-5.31738h20.6289q-.81446,6.87744-7.49023,13.96777-10.38427,11.272-29.07471,11.27246a42.12729,42.12729,0,0,1-27.22168-9.50781q-11.79345-9.5083-11.79248-30.94092,0-20.08008,10.646-30.79639,10.645-10.71459,27.63574-10.71582A43.99887,43.99887,0,0,1,334.104,40.49378ZM303.875,57.94984q-4.28394,4.415-5.38281,11.96191h34.812q-.55152-8.04566-5.38281-12.21142A17.70835,17.70835,0,0,0,315.937,53.53382Q308.1565,53.53382,303.875,57.94984Z"/><path class="cls-1" d="M407.43164,37.12025q.38818.03662,1.73731.10644V57.92982q-1.91455-.21313-3.40333-.28369-1.48974-.06959-2.41113-.0708-12.19482,0-16.37793,7.94092-2.33936,4.4663-2.33984,13.75439v36.93945H364.28809V38.92835h19.28515v13.4712q4.68018-7.72705,8.15332-10.56446,5.67188-4.749,14.748-4.75C406.85254,37.08509,407.1709,37.09681,407.43164,37.12025Z"/><path class="cls-1" d="M503.1123,106.922q-11.8418,12.19629-34.24511,12.19531-22.40625,0-34.24512-12.19531-15.8833-14.959-15.88184-43.10742,0-28.71534,15.88184-43.10792Q446.46094,8.51332,468.86719,8.51185q22.40331,0,34.24511,12.19482,15.80861,14.3943,15.81055,43.10792Q518.92285,91.96229,503.1123,106.922ZM489.46387,91.04017q7.62012-9.57129,7.62109-27.22558,0-17.58326-7.62109-27.19043-7.623-9.60645-20.59668-9.60743-12.97559,0-20.70313,9.57178-7.72851,9.572-7.72851,27.22608,0,17.65429,7.72851,27.22558,7.72706,9.572,20.70313,9.57227Q481.84131,100.61244,489.46387,91.04017Z"/><path class="cls-1" d="M598.94336,47.22376q9.45556,9.99684,9.45605,29.353,0,20.4192-9.24218,31.12549-9.24024,10.70655-23.79785,10.70606-9.27833,0-15.41407-4.6084a29.773,29.773,0,0,1-6.56543-7.44532v40.27149H533.38574V38.92835h19.35645v11.415a32.50866,32.50866,0,0,1,6.99219-7.94091,25.80668,25.80668,0,0,1,16.12695-5.17579A30.55987,30.55987,0,0,1,598.94336,47.22376ZM583.43555,61.75843q-4.11915-6.8767-13.3584-6.87744-11.10352,0-15.25684,10.42236a39.14024,39.14024,0,0,0-2.14941,14.03858q0,13.47144,7.22851,18.93017a16.59219,16.59219,0,0,0,10.17286,3.19092q8.52539,0,13.0039-6.52295,4.47657-6.52295,4.47852-17.37109A30.17914,30.17914,0,0,0,583.43555,61.75843Z"/><path class="cls-1" d="M614.71,54.02992V39.63734h10.77637V18.08363h19.99414V39.63734h12.5498V54.02992h-12.5498V94.86878q0,4.75122,1.20508,5.92041,1.20556,1.17042,7.374,1.16993.91992,0,1.9502-.03516,1.02685-.03516,2.0205-.10645v15.10157l-9.57226.35449q-14.32177.49512-19.56836-4.96289-3.40284-3.47315-3.40332-10.70606V54.02992Z"/></svg>