<?xml version="1.0" standalone="no"?>
<!DOCTYPE svg PUBLIC "-//W3C//DTD SVG 20010904//EN"
 "http://www.w3.org/TR/2001/REC-SVG-20010904/DTD/svg10.dtd">
<svg version="1.0" xmlns="http://www.w3.org/2000/svg"
 width="1386.000000pt" height="658.000000pt" viewBox="0 0 1386.000000 658.000000"
 preserveAspectRatio="xMidYMid meet">

<g transform="translate(0.000000,658.000000) scale(0.100000,-0.100000)"
fill="#000000" stroke="none">
<path d="M1190 4680 l0 -180 240 0 240 0 0 180 0 180 -240 0 -240 0 0 -180z"/>
<path d="M3148 4100 c-148 -18 -264 -78 -369 -192 l-57 -62 -6 80 c-4 43 -9
94 -12 112 l-5 32 -349 0 -350 0 0 -139 c0 -124 2 -140 18 -145 17 -5 229 -46
238 -46 2 0 4 -249 4 -553 l0 -553 -115 -24 -115 -23 0 -143 0 -144 455 0 455
0 0 143 0 143 -102 25 -103 25 -3 477 -2 477 34 38 c97 107 299 141 413 69 47
-30 87 -101 102 -181 7 -37 11 -218 11 -471 l0 -411 -95 -23 -95 -23 0 -144 0
-144 430 0 430 0 0 143 0 143 -94 23 -94 24 -4 466 c-4 524 -8 498 72 561 67
53 125 73 215 73 129 1 199 -43 242 -154 15 -39 18 -95 21 -494 l3 -451 -103
-24 -103 -25 -3 -143 -3 -142 461 0 460 0 0 144 0 143 -114 23 -114 22 -5 462
c-4 427 -6 468 -26 555 -51 225 -175 374 -360 432 -84 26 -257 28 -345 4 -121
-32 -228 -107 -309 -215 l-45 -60 -32 56 c-99 176 -293 261 -532 234z"/>
<path d="M5810 4100 c-196 -21 -345 -117 -454 -293 -101 -161 -144 -328 -153
-587 -10 -303 36 -501 158 -681 118 -174 269 -256 489 -266 181 -9 299 31 412
137 l58 56 0 -96 c0 -226 -77 -359 -234 -405 -106 -32 -295 -12 -479 49 -56
19 -105 32 -108 28 -4 -4 -23 -72 -43 -151 -21 -79 -40 -150 -43 -157 -6 -16
47 -41 166 -80 258 -85 546 -87 763 -7 186 69 350 233 408 409 49 145 49 162
50 1117 l0 897 -209 0 -208 0 -13 -92 c-7 -51 -15 -98 -17 -105 -3 -8 -30 14
-69 56 -35 38 -86 83 -114 101 -93 59 -224 85 -360 70z m367 -401 c38 -18 78
-47 102 -76 l41 -46 0 -397 0 -398 -42 -42 c-24 -24 -68 -55 -98 -69 -49 -23
-67 -26 -165 -26 -101 0 -114 2 -155 27 -130 77 -183 219 -182 493 1 341 95
534 277 566 70 12 156 0 222 -32z"/>
<path d="M7760 4099 c-47 -4 -123 -17 -170 -29 -90 -23 -267 -98 -337 -143
l-43 -27 0 -195 0 -195 178 0 178 0 13 91 c12 85 15 92 44 110 90 54 278 63
379 16 105 -48 142 -132 136 -312 l-3 -100 -240 -6 c-292 -7 -397 -27 -536
-100 -166 -88 -249 -227 -249 -418 0 -145 35 -248 117 -347 40 -47 69 -70 132
-103 98 -51 185 -71 312 -71 172 0 312 53 437 165 34 31 53 42 56 33 2 -7 14
-47 27 -88 l24 -75 278 -3 277 -2 0 143 0 144 -72 9 -73 9 -6 500 c-6 551 -7
555 -72 680 -58 108 -185 212 -326 266 -111 42 -305 62 -461 48z m380 -1181
l0 -141 -40 -38 c-102 -97 -261 -142 -383 -108 -110 30 -167 157 -118 264 58
127 142 161 409 164 l132 1 0 -142z"/>
<path d="M11620 4100 c-296 -32 -501 -248 -581 -613 -29 -132 -37 -417 -16
-553 52 -326 210 -548 448 -631 90 -31 262 -42 352 -24 83 18 190 75 253 136
l54 53 0 -96 c0 -208 -60 -330 -189 -390 -111 -51 -311 -39 -523 32 -57 19
-106 32 -109 28 -12 -14 -88 -317 -81 -324 16 -16 165 -68 266 -93 128 -32
253 -43 391 -33 360 25 607 215 698 535 22 77 22 84 25 1011 l3 932 -209 0
-209 0 -12 -87 c-19 -136 -14 -133 -87 -54 -35 38 -86 83 -114 101 -93 59
-224 85 -360 70z m367 -401 c38 -18 78 -47 102 -76 l41 -46 0 -397 0 -398 -42
-42 c-24 -24 -68 -55 -98 -69 -49 -23 -67 -26 -165 -26 -94 0 -116 3 -150 22
-129 69 -189 225 -189 488 0 77 6 174 13 215 28 163 101 294 188 336 87 41
204 39 300 -7z"/>
<path d="M942 3928 l3 -143 70 -12 c39 -7 94 -18 123 -24 l52 -10 0 -553 0
-553 -115 -23 -115 -24 0 -143 0 -143 470 0 470 0 0 144 0 143 -115 23 -115
24 0 718 0 718 -365 0 -366 0 3 -142z"/>
<path d="M8832 3928 l3 -142 97 -24 97 -24 3 -471 4 -472 27 -99 c60 -222 205
-369 406 -412 86 -18 230 -18 309 1 117 28 245 108 307 193 17 23 33 42 36 42
4 0 12 -49 19 -110 l14 -110 318 0 318 0 0 143 0 143 -107 24 -108 25 -3 718
-2 717 -340 0 -341 0 3 -142 3 -143 103 -23 102 -24 0 -480 0 -481 -35 -33
c-19 -18 -65 -48 -102 -66 -64 -31 -73 -33 -178 -33 -107 0 -114 1 -161 30
-65 41 -100 109 -114 225 -6 48 -10 320 -10 627 l0 543 -335 0 -336 0 3 -142z"/>
</g>
</svg>
