<svg xmlns="http://www.w3.org/2000/svg" role="img" viewBox="131.20 148.70 2017.60 790.10"><title>Index Analytics logo</title><defs><clipPath id="a" clipPathUnits="userSpaceOnUse"><path d="M0 830.282h1781.57V0H0z"/></clipPath></defs><path fill="#1d1d1b" d="M1109.50256 427.89536h12.5573v130.60101h-12.5573zm0-52.7412h12.5573v23.10528h-12.5573z"/><g clip-path="url(#a)" transform="matrix(1.33333 0 0 -1.33333 0 1107.043)"><path fill="#1d1d1b" d="M953.245 411.41h-9.418v54.627c0 12.682-1.788 21.912-5.368 27.689-3.578 5.776-9.263 8.664-17.047 8.664-4.144 0-8.26-.753-12.339-2.259-4.081-1.508-7.881-3.645-11.396-6.405-3.517-2.764-6.593-5.998-9.23-9.702-2.637-3.704-4.586-7.693-5.84-11.961V411.41h-9.417v97.951h8.853v-23.358c2.008 3.767 4.489 7.188 7.439 10.266 2.95 3.076 6.28 5.712 9.984 7.911 3.703 2.196 7.631 3.891 11.773 5.085 4.145 1.193 8.413 1.791 12.81 1.791 10.673 0 18.206-3.739 22.604-11.208 4.394-7.474 6.592-18.177 6.592-32.116z"/><path fill="#1d1d1b" d="M1025.766 418.002c3.391 0 7.031.688 10.926 2.072 3.889 1.381 7.502 3.297 10.831 5.745 3.325 2.45 6.182 5.244 8.57 8.383 2.384 3.138 3.768 6.529 4.145 10.172v32.211c-1.384 3.514-3.363 6.875-5.934 10.078-2.575 3.201-5.495 5.962-8.76 8.287-3.267 2.323-6.781 4.175-10.548 5.558-3.767 1.38-7.412 2.072-10.925 2.072-5.653 0-10.803-1.224-15.447-3.674-4.647-2.449-8.602-5.651-11.867-9.606-3.267-3.955-5.778-8.477-7.534-13.563-1.761-5.086-2.637-10.332-2.637-15.729 0-5.651 1.003-10.99 3.014-16.011 2.007-5.024 4.802-9.482 8.382-13.375 3.578-3.893 7.722-6.968 12.431-9.229 4.71-2.26 9.826-3.391 15.353-3.391m-1.695-8.477c-6.782 0-13.063 1.415-18.837 4.239-5.779 2.826-10.769 6.593-14.976 11.302-4.208 4.708-7.471 10.108-9.795 16.201-2.324 6.088-3.484 12.398-3.484 18.93 0 6.782 1.131 13.246 3.391 19.402 2.259 6.151 5.397 11.552 9.417 16.199 4.018 4.645 8.759 8.35 14.222 11.114 5.463 2.761 11.457 4.145 17.989 4.145 4.268 0 8.289-.632 12.057-1.885 3.767-1.257 7.28-2.92 10.548-4.992 3.265-2.073 6.215-4.49 8.853-7.252 2.637-2.763 4.897-5.715 6.782-8.853v60.843h9.417V424.596c0-3.141 1.318-4.709 3.957-4.709v-8.477c-.754-.124-1.383-.218-1.885-.283-.503-.062-1.006-.094-1.506-.094-2.514 0-4.647.971-6.406 2.92-1.76 1.946-2.636 3.986-2.636 6.121v10.925c-4.02-6.53-9.39-11.742-16.105-15.634-6.72-3.893-13.723-5.84-21.003-5.84"/><path fill="#1d1d1b" d="M1181.73 464.153c-.377 5.774-1.665 11.05-3.861 15.823-2.199 4.771-5.025 8.882-8.477 12.338-3.455 3.453-7.441 6.152-11.96 8.099-4.521 1.946-9.358 2.92-14.506 2.92-5.15 0-9.983-.974-14.503-2.92-4.521-1.947-8.51-4.646-11.963-8.099-3.455-3.456-6.215-7.6-8.288-12.432-2.072-4.836-3.295-10.077-3.671-15.729zm-38.427-54.627c-6.907 0-13.312 1.351-19.214 4.051-5.904 2.698-11.018 6.404-15.35 11.113-4.334 4.71-7.725 10.141-10.172 16.294-2.449 6.151-3.674 12.745-3.674 19.778 0 6.906 1.225 13.404 3.674 19.495 2.447 6.091 5.806 11.427 10.078 16.013 4.267 4.583 9.323 8.194 15.163 10.83 5.838 2.639 12.149 3.957 18.931 3.957 6.904 0 13.309-1.35 19.212-4.05 5.901-2.702 10.989-6.343 15.259-10.926 4.267-4.586 7.596-9.92 9.982-16.011 2.385-6.092 3.58-12.526 3.58-19.308v-2.353c0-.943-.064-1.54-.189-1.791h-85.895c.377-5.651 1.695-10.895 3.957-15.728 2.26-4.837 5.114-9.011 8.569-12.527 3.453-3.517 7.442-6.281 11.961-8.288 4.522-2.01 9.355-3.014 14.505-3.014 3.391 0 6.716.471 9.985 1.414 3.261.942 6.309 2.227 9.133 3.862 2.827 1.629 5.337 3.608 7.536 5.932 2.196 2.321 3.924 4.866 5.181 7.629l8.287-2.26c-1.384-3.518-3.424-6.752-6.121-9.701-2.702-2.952-5.84-5.495-9.42-7.63-3.578-2.135-7.504-3.8-11.772-4.99-4.271-1.192-8.664-1.791-13.186-1.791"/><path fill="#1d1d1b" d="M1208.854 509.362l31.646-40.5 1.506-2.637 1.508 2.637 31.458 40.5h10.548l-38.051-49.164 37.862-48.787h-10.359l-31.458 40.31-1.508 2.448-1.506-2.448-31.458-40.31h-10.36l37.861 48.787-38.048 49.164z"/><path fill="#1d1d1b" d="M858.124 243.466c7.28 0 13.968 1.381 20.06 4.144 6.09 2.761 10.766 6.406 14.034 10.925 2.008 2.639 3.013 5.149 3.013 7.535v17.33c-4.52 1.757-9.229 3.076-14.128 3.957-4.896.876-9.984 1.318-15.256 1.318-4.899 0-9.357-.536-13.375-1.602-4.02-1.068-7.474-2.543-10.361-4.425-2.889-1.885-5.118-4.177-6.685-6.877-1.573-2.701-2.356-5.683-2.356-8.947 0-3.268.628-6.342 1.883-9.23 1.255-2.891 3.016-5.369 5.275-7.441 2.26-2.073 4.927-3.705 8.005-4.897 3.076-1.195 6.372-1.79 9.891-1.79m-1.885-7.533c-4.521 0-8.728.784-12.62 2.353-3.894 1.569-7.317 3.702-10.266 6.405-2.952 2.699-5.246 5.902-6.876 9.606-1.634 3.702-2.45 7.691-2.45 11.963 0 4.267 1.005 8.16 3.016 11.677 2.008 3.514 4.803 6.561 8.383 9.136 3.578 2.574 7.877 4.582 12.901 6.027 5.022 1.443 10.549 2.168 16.578 2.168 5.273 0 10.577-.471 15.917-1.414 5.335-.942 10.139-2.231 14.409-3.861v9.607c0 9.291-2.636 16.671-7.911 22.134-5.275 5.462-12.433 8.193-21.473 8.193-4.775 0-9.827-1.007-15.164-3.014-5.34-2.01-10.77-4.898-16.294-8.666l-3.578 6.407c12.555 8.537 24.487 12.807 35.79 12.807 11.801 0 21.096-3.423 27.877-10.265 6.781-6.845 10.171-16.293 10.171-28.35V251c0-3.139 1.382-4.709 4.145-4.709v-8.475c-.63-.125-1.29-.219-1.977-.284-.692-.061-1.29-.093-1.791-.093-2.512 0-4.521.847-6.027 2.543-1.508 1.695-2.388 3.734-2.639 6.122v8.099c-4.519-5.904-10.297-10.425-17.329-13.561-7.033-3.139-14.63-4.709-22.792-4.709"/><path fill="#1d1d1b" d="M1015.406 237.816h-9.417v54.626c0 12.683-1.789 21.912-5.369 27.69-3.578 5.775-9.263 8.664-17.046 8.664-4.145 0-8.26-.751-12.34-2.259-4.081-1.508-7.881-3.643-11.395-6.405-3.517-2.764-6.592-5.998-9.231-9.7-2.637-3.706-4.584-7.694-5.84-11.963v-60.653h-9.417v97.951h8.853v-23.358c2.008 3.766 4.489 7.188 7.441 10.266 2.948 3.076 6.279 5.714 9.983 7.912 3.702 2.195 7.63 3.89 11.772 5.086 4.145 1.192 8.413 1.789 12.811 1.789 10.673 0 18.205-3.739 22.604-11.208 4.393-7.472 6.591-18.177 6.591-32.117z"/><path fill="#1d1d1b" d="M1071.916 243.466c7.28 0 13.968 1.381 20.06 4.144 6.09 2.761 10.766 6.406 14.035 10.925 2.007 2.639 3.012 5.149 3.012 7.535v17.33c-4.52 1.757-9.229 3.076-14.128 3.957-4.896.876-9.982 1.318-15.256 1.318-4.899 0-9.357-.536-13.375-1.602-4.02-1.068-7.472-2.543-10.359-4.425-2.891-1.885-5.118-4.177-6.687-6.877-1.573-2.701-2.356-5.683-2.356-8.947 0-3.268.628-6.342 1.885-9.23 1.254-2.891 3.014-5.369 5.273-7.441 2.262-2.073 4.927-3.705 8.006-4.897 3.077-1.195 6.373-1.79 9.89-1.79m-1.885-7.533c-4.519 0-8.728.784-12.62 2.353-3.893 1.569-7.316 3.702-10.266 6.405-2.952 2.699-5.244 5.902-6.875 9.606-1.633 3.702-2.449 7.691-2.449 11.963 0 4.267 1.003 8.16 3.014 11.677 2.008 3.514 4.803 6.561 8.383 9.136 3.578 2.574 7.879 4.582 12.902 6.027 5.023 1.443 10.55 2.168 16.577 2.168 5.274 0 10.577-.471 15.917-1.414 5.337-.942 10.139-2.231 14.409-3.861v9.607c0 9.291-2.635 16.671-7.911 22.134-5.273 5.462-12.431 8.193-21.473 8.193-4.775 0-9.827-1.007-15.164-3.014-5.338-2.01-10.768-4.898-16.294-8.666l-3.578 6.407c12.555 8.537 24.487 12.807 35.79 12.807 11.801 0 21.096-3.423 27.877-10.265 6.781-6.845 10.171-16.293 10.171-28.35V251c0-3.139 1.382-4.709 4.145-4.709v-8.475c-.63-.125-1.289-.219-1.977-.284-.692-.061-1.29-.093-1.791-.093-2.511 0-4.519.847-6.027 2.543-1.508 1.695-2.388 3.734-2.637 6.122v8.099c-4.52-5.904-10.299-10.425-17.331-13.561-7.033-3.139-14.629-4.709-22.792-4.709"/><path fill="#1d1d1b" d="M1149.898 375.324h9.606V257.218c0-3.643 1.036-6.531 3.108-8.665 2.072-2.136 4.928-3.203 8.57-3.203 1.382 0 3.044.156 4.992.471 1.946.313 3.735.783 5.37 1.412l1.882-7.534c-2.135-.879-4.774-1.6-7.91-2.166-3.141-.564-5.84-.848-8.101-.848-5.274 0-9.511 1.602-12.714 4.805-3.201 3.201-4.803 7.502-4.803 12.901z"/><path fill="#1d1d1b" d="M1204.524 204.663c.625-.122 1.566-.187 2.824-.187 1.255 0 2.416.065 3.486.187 1.064.127 2.101.442 3.107.941.754.377 1.443.913 2.072 1.602.628.692 1.508 2.104 2.637 4.238 1.131 2.137 2.573 5.276 4.334 9.419 1.756 4.145 4.143 9.795 7.157 16.953l-43.701 97.951h9.795l38.992-88.721 36.355 88.721h9.229l-53.684-128.842c-1.384-3.515-3.611-6.247-6.688-8.196-3.078-1.945-7.252-2.919-12.525-2.919h-1.602c-.564 0-1.163.065-1.788.19z"/><path fill="#1d1d1b" d="M1345.422 242.525c-.503-.253-1.351-.724-2.542-1.412-1.196-.693-2.702-1.352-4.521-1.979-1.822-.63-3.862-1.194-6.122-1.695-2.261-.5-4.711-.754-7.347-.754-2.637 0-5.118.377-7.441 1.131-2.325.754-4.364 1.883-6.121 3.391-1.76 1.507-3.141 3.325-4.144 5.462-1.006 2.133-1.508 4.644-1.508 7.535v73.841h-13.749v7.722h13.749v33.529h9.42v-33.529h22.792v-7.722h-22.792v-71.582c0-3.642 1.253-6.375 3.767-8.193 2.51-1.821 5.336-2.731 8.476-2.731 3.891 0 7.252.659 10.078 1.977 2.826 1.319 4.55 2.166 5.18 2.543z"/><path fill="#1d1d1b" d="M1364.068 335.767h9.418v-97.951h-9.418zm0 39.557h9.418v-17.329h-9.418z"/><path fill="#1d1d1b" d="M1398.35 287.168c0 6.905 1.192 13.436 3.578 19.591 2.385 6.151 5.714 11.489 9.985 16.011 4.266 4.521 9.354 8.099 15.256 10.738 5.904 2.637 12.369 3.954 19.404 3.954 8.915 0 16.763-2.011 23.546-6.026 6.781-4.023 11.867-9.608 15.257-16.766l-9.23-3.013c-2.891 5.398-7.003 9.636-12.339 12.714-5.339 3.075-11.207 4.615-17.611 4.615-5.402 0-10.426-1.069-15.07-3.203-4.647-2.136-8.698-5.086-12.149-8.853-3.456-3.767-6.189-8.193-8.195-13.279-2.009-5.087-3.014-10.581-3.014-16.483 0-5.903 1.037-11.461 3.109-16.67 2.073-5.214 4.831-9.733 8.287-13.563 3.454-3.83 7.535-6.875 12.244-9.135 4.711-2.261 9.703-3.391 14.975-3.391 3.391 0 6.749.5 10.078 1.506 3.326 1.005 6.405 2.323 9.231 3.957 2.825 1.631 5.274 3.546 7.345 5.744 2.072 2.197 3.486 4.49 4.24 6.877l9.228-2.638c-1.256-3.391-3.173-6.563-5.744-9.512-2.575-2.952-5.621-5.495-9.137-7.628-3.516-2.138-7.41-3.801-11.678-4.992-4.271-1.193-8.664-1.789-13.186-1.789-6.907 0-13.312 1.35-19.214 4.048-5.904 2.7-11.018 6.404-15.35 11.115-4.334 4.709-7.725 10.138-10.172 16.293-2.449 6.151-3.674 12.744-3.674 19.778"/><path fill="#1d1d1b" d="M1540.941 235.933c-7.534 0-14.757 1.255-21.663 3.766-6.907 2.511-12.934 6.279-18.083 11.301l4.711 6.407c5.273-4.776 10.736-8.289 16.388-10.549 5.65-2.261 11.867-3.392 18.647-3.392 8.538 0 15.415 1.79 20.627 5.368 5.21 3.58 7.817 8.573 7.817 14.977 0 3.014-.66 5.556-1.978 7.628-1.319 2.072-3.296 3.829-5.933 5.275-2.638 1.442-5.905 2.731-9.797 3.862-3.893 1.128-8.413 2.321-13.561 3.578-5.529 1.253-10.33 2.509-14.41 3.767-4.083 1.253-7.441 2.761-10.077 4.521-2.637 1.757-4.616 3.89-5.934 6.404-1.318 2.511-1.979 5.714-1.979 9.608 0 4.897.942 9.165 2.827 12.807 1.882 3.642 4.488 6.655 7.816 9.043 3.327 2.384 7.157 4.173 11.491 5.369 4.332 1.192 8.947 1.788 13.845 1.788 7.658 0 14.438-1.289 20.344-3.86 5.9-2.576 10.483-5.872 13.751-9.891l-5.276-5.086c-3.265 3.768-7.504 6.594-12.714 8.477-5.212 1.885-10.77 2.826-16.671 2.826-3.643 0-7.062-.377-10.265-1.131-3.203-.752-5.998-1.948-8.383-3.578-2.388-1.634-4.27-3.738-5.65-6.31-1.385-2.576-2.072-5.621-2.072-9.136 0-2.89.471-5.212 1.412-6.969.942-1.761 2.449-3.267 4.521-4.521 2.072-1.257 4.738-2.356 8.006-3.297 3.264-.942 7.158-1.979 11.679-3.108 6.15-1.506 11.613-2.952 16.386-4.333 4.772-1.383 8.759-3.079 11.962-5.086 3.203-2.008 5.651-4.396 7.346-7.158 1.695-2.763 2.543-6.281 2.543-10.548 0-8.792-3.423-15.793-10.266-21.003-6.845-5.212-15.981-7.816-27.407-7.816"/><path fill="#1d1d1b" d="M1582.587 213.422h-327.795v7.387h327.795z"/><path fill="#1d1d1b" d="M140.57 160.146h12.343c2.119 0 3.607.078 4.463.236 1.51.271 2.772.722 3.787 1.353 1.014.632 1.849 1.55 2.502 2.756.655 1.207.981 2.598.981 4.176 0 1.849-.472 3.455-1.419 4.82-.947 1.363-2.262 2.32-3.941 2.873-1.679.554-4.097.829-7.254.829H140.57zm0 22.894h10.72c2.906 0 4.993.191 6.256.573 1.668.496 2.925 1.32 3.769 2.469.846 1.149 1.268 2.591 1.268 4.328 0 1.645-.393 3.094-1.183 4.344-.788 1.252-1.915 2.109-3.382 2.571-1.464.462-3.978.694-7.54.694h-9.908zm-6.56-28.744v49.574h18.598c3.787 0 6.826-.504 9.113-1.506 2.288-1.003 4.081-2.549 5.378-4.634 1.294-2.084 1.944-4.265 1.944-6.543 0-2.118-.576-4.113-1.726-5.983-1.149-1.872-2.886-3.384-5.207-4.533 2.998-.878 5.304-2.379 6.915-4.498 1.612-2.119 2.418-4.62 2.418-7.506 0-2.322-.49-4.481-1.472-6.475-.979-1.995-2.191-3.533-3.633-4.615-1.443-1.082-3.252-1.9-5.429-2.453-2.175-.552-4.84-.828-7.996-.828z"/><path fill="#1d1d1b" d="M181.37 154.296v49.573h35.844v-5.85h-29.285v-15.184h27.423v-5.816h-27.423v-16.873h30.434v-5.85z"/><path fill="#1d1d1b" d="M242.15 154.296v20.999l-19.104 28.574h7.98l9.771-14.947c1.804-2.796 3.485-5.591 5.04-8.386 1.487 2.591 3.291 5.511 5.41 8.757l9.603 14.576h7.643l-19.782-28.574v-20.999z"/><path fill="#1d1d1b" d="M279.906 178.337c0-5.973 1.607-10.68 4.819-14.117 3.212-3.438 7.241-5.156 12.088-5.156 4.938 0 9 1.735 12.19 5.207 3.19 3.471 4.786 8.396 4.786 14.777 0 4.034-.683 7.559-2.047 10.566-1.363 3.01-3.359 5.344-5.985 7.001-2.626 1.656-5.573 2.486-8.843 2.486-4.644 0-8.638-1.596-11.987-4.785-3.348-3.19-5.021-8.516-5.021-15.979m-6.763.104c0 8.227 2.209 14.668 6.628 19.323 4.418 4.655 10.121 6.983 17.111 6.983 4.575 0 8.7-1.093 12.375-3.28 3.674-2.186 6.476-5.235 8.402-9.148 1.928-3.91 2.893-8.346 2.893-13.305 0-5.027-1.015-9.525-3.044-13.491-2.029-3.968-4.904-6.973-8.623-9.013-3.72-2.039-7.732-3.061-12.038-3.061-4.667 0-8.837 1.128-12.512 3.382-3.673 2.255-6.458 5.331-8.351 9.233-1.894 3.898-2.841 8.025-2.841 12.377"/><path fill="#1d1d1b" d="M329.7 154.296v49.573h6.729l26.038-38.923v38.923h6.289v-49.573h-6.729l-26.038 38.954v-38.954z"/><path fill="#1d1d1b" d="M387.1 160.146h10.584c3.268 0 5.833.304 7.694.913 1.859.609 3.342 1.464 4.445 2.569 1.557 1.557 2.769 3.648 3.636 6.273.868 2.626 1.302 5.811 1.302 9.554 0 5.184-.851 9.168-2.554 11.953-1.702 2.784-3.771 4.649-6.205 5.595-1.758.677-4.587 1.016-8.487 1.016H387.1zm-6.56-5.85v49.574h17.076c3.856 0 6.797-.239 8.826-.711 2.84-.655 5.264-1.838 7.269-3.551 2.616-2.209 4.572-5.033 5.869-8.471 1.295-3.437 1.944-7.365 1.944-11.784 0-3.766-.44-7.102-1.32-10.009-.878-2.909-2.005-5.315-3.381-7.219-1.375-1.907-2.879-3.405-4.515-4.498-1.633-1.094-3.606-1.922-5.916-2.485-2.311-.564-4.966-.846-7.965-.846z"/><path fill="#1d1d1b" d="M451.249 154.296v49.573h6.729l26.038-38.923v38.923h6.289v-49.573h-6.73l-26.036 38.954v-38.954z"/><path fill="#1d1d1b" d="M534.62 203.87h6.561v-28.643c0-4.981-.565-8.938-1.692-11.869-1.127-2.929-3.162-5.314-6.103-7.152-2.942-1.838-6.802-2.756-11.581-2.756-4.645 0-8.443.801-11.397 2.4-2.952 1.602-5.06 3.918-6.323 6.952-1.262 3.031-1.894 7.173-1.894 12.425v28.643h6.56v-28.608c0-4.307.4-7.48 1.201-9.519.801-2.042 2.175-3.612 4.126-4.718 1.95-1.103 4.334-1.657 7.151-1.657 4.825 0 8.261 1.095 10.314 3.28 2.051 2.188 3.077 6.392 3.077 12.614z"/><path fill="#1d1d1b" d="M552.66 154.296v49.573h9.874l11.733-35.1c1.082-3.27 1.871-5.716 2.369-7.339.562 1.804 1.44 4.453 2.636 7.946l11.868 34.493h8.827v-49.573h-6.324v41.49l-14.405-41.49h-5.917l-14.338 42.2v-42.2z"/><path fill="#1d1d1b" d="M617.602 160.146h12.343c2.117 0 3.605.078 4.464.236 1.509.271 2.771.722 3.787 1.353 1.013.632 1.846 1.55 2.502 2.756.652 1.207.98 2.598.98 4.176 0 1.849-.474 3.455-1.421 4.82-.947 1.363-2.259 2.32-3.938 2.873-1.68.554-4.098.829-7.254.829h-11.463zm0 22.894h10.72c2.907 0 4.992.191 6.255.573 1.668.496 2.924 1.32 3.77 2.469.846 1.149 1.269 2.591 1.269 4.328 0 1.645-.396 3.094-1.184 4.344-.79 1.252-1.917 2.109-3.382 2.571-1.466.462-3.979.694-7.54.694h-9.908zm-6.561-28.744v49.574h18.599c3.787 0 6.824-.504 9.113-1.506 2.286-1.003 4.079-2.549 5.376-4.634 1.297-2.084 1.945-4.265 1.945-6.543 0-2.118-.575-4.113-1.725-5.983-1.148-1.872-2.886-3.384-5.206-4.533 2.997-.878 5.302-2.379 6.914-4.498 1.61-2.119 2.419-4.62 2.419-7.506 0-2.322-.491-4.481-1.472-6.475-.981-1.995-2.193-3.533-3.635-4.615-1.444-1.082-3.252-1.9-5.427-2.453-2.177-.552-4.843-.828-7.997-.828z"/><path fill="#1d1d1b" d="M658.4 154.296v49.573h35.844v-5.85h-29.282v-15.184h27.422v-5.816h-27.422v-16.873h30.432v-5.85z"/><path fill="#1d1d1b" d="M711.88 181.99h14.102c2.997 0 5.341.311 7.033.931 1.69.62 2.975 1.61 3.854 2.975.88 1.364 1.32 2.846 1.32 4.448 0 2.342-.851 4.27-2.554 5.782-1.702 1.51-4.391 2.264-8.065 2.264h-15.69zm-6.559-27.693v49.573H727.3c4.418 0 7.778-.445 10.077-1.337 2.3-.891 4.136-2.463 5.512-4.718 1.374-2.254 2.063-4.745 2.063-7.471 0-3.517-1.139-6.482-3.416-8.895-2.277-2.411-5.795-3.944-10.55-4.599 1.735-.833 3.053-1.655 3.956-2.466 1.917-1.761 3.73-3.957 5.444-6.596l8.624-13.491h-8.251l-6.561 10.313c-1.917 2.976-3.495 5.252-4.734 6.83-1.241 1.578-2.35 2.684-3.331 3.315-.982.631-1.979 1.069-2.992 1.318-.744.157-1.962.236-3.652.236h-7.609v-22.012z"/><path fill="#1d1d1b" d="M753.76 170.222l6.187.541c.294-2.479.976-4.514 2.047-6.103 1.07-1.588 2.733-2.875 4.988-3.856 2.254-.978 4.791-1.47 7.608-1.47 2.503 0 4.712.372 6.628 1.116 1.917.744 3.342 1.763 4.277 3.06.937 1.296 1.404 2.71 1.404 4.243 0 1.557-.451 2.914-1.353 4.076-.902 1.162-2.39 2.135-4.464 2.925-1.329.518-4.272 1.323-8.826 2.417-4.554 1.095-7.742 2.124-9.569 3.095-2.365 1.238-4.13 2.777-5.291 4.614-1.161 1.838-1.742 3.896-1.742 6.172 0 2.503.71 4.841 2.129 7.018 1.421 2.174 3.496 3.826 6.222 4.954 2.73 1.127 5.761 1.689 9.097 1.689 3.676 0 6.917-.592 9.722-1.774 2.807-1.184 4.965-2.926 6.475-5.225 1.511-2.3 2.322-4.904 2.435-7.81l-6.289-.475c-.339 3.134-1.483 5.5-3.432 7.102-1.949 1.599-4.829 2.4-8.641 2.4-3.966 0-6.858-.727-8.673-2.18-1.813-1.456-2.722-3.209-2.722-5.258 0-1.783.643-3.248 1.928-4.396 1.262-1.15 4.559-2.328 9.891-3.535 5.331-1.206 8.988-2.26 10.973-3.161 2.886-1.331 5.015-3.016 6.391-5.055 1.374-2.042 2.062-4.392 2.062-7.052 0-2.636-.754-5.122-2.266-7.455-1.509-2.334-3.68-4.148-6.509-5.445-2.829-1.295-6.014-1.944-9.552-1.944-4.488 0-8.245.655-11.278 1.962-3.031 1.308-5.41 3.274-7.133 5.901-1.727 2.626-2.634 5.596-2.724 8.909"/><path fill="#1d1d1b" d="M1189.232 215.846H128.937v7.387h1060.295z"/><path fill="#1d1d1b" d="M782.922 253.279c-.289-.985-2.99-3.479-4.442-4.821-.755-.698-1.483-1.37-2.101-1.988-19.597-19.535-106.916 37.278-198.362 101.57-42.62 29.963-129.866 92.268-155.168 110.346l70.011.008v-22.746c6.016-4.288 12.208-8.699 18.466-13.156v35.904l76.178.009v-89.944c1.11-.782 2.203-1.551 3.26-2.293 5.245-3.689 10.283-7.21 15.208-10.64v102.88l136.329.016c33.168-84.351 51.242-168.245 40.621-205.145M145.6 242.568c-2.307.727-4.359 3.374-5.937 7.655-4.397 11.938-5.555 39.356 4.38 80.505 7.179 29.727 22.502 75.916 54.729 127.695h114.03v-28.226c6.063 8.244 12.212 16.644 18.468 25.218v3.008h18.188C275.283 356.563 183.386 230.699 145.6 242.568m609.48 197.53c-31.183 84.955-73.924 161.978-114.33 206.031-30.615 33.379-59.062 47.765-84.558 42.759-10.833-2.128-22.576-9.659-25.129-11.561-50.546-37.689-103.263-110.615-159.074-187.821-6.161-8.521-12.331-17.047-18.505-25.543h-53.762v39.83c-5.295 2.501-11.629 4.794-18.467 5.858v-45.688h-13.081v46.009c-5.728-.606-12.14-2.107-18.467-4.226v-41.783h-48.969v.001h-3.509c-.954 0-1.838-.493-2.345-1.3l-.002.001c-.224-.358-.441-.715-.664-1.074l-1.877-3.025.002-.001c-55.17-90.019-69.18-179.573-57.878-210.257 2.224-6.036 5.411-9.746 9.472-11.024 2.24-.705 4.591-1.052 7.06-1.052 40.242.006 110.557 92.068 203.904 220.252 7.201 9.889 14.395 19.84 21.577 29.775 55.557 76.853 108.03 149.444 157.894 186.625 2.198 1.636 13.176 8.661 22.888 10.569 23.466 4.602 50.183-9.205 79.407-41.069 39.339-42.888 76.185-110.472 103.432-178.421l-41.635-.004v22.049c-5.958 13.201-12.139 25.962-18.468 38.177v-60.229l-10.927-.001v80.5c-6.078 10.828-12.251 21.111-18.467 30.726V463.953l-13.08-.002v130.39c-6.176 8.549-12.35 16.388-18.468 23.404V463.949l-44.63-.005v189.237c-4.296 1.448-8.174 1.926-11.468 1.278-1.603-.315-4.394-1.556-6.999-2.951V463.942l-13.081-.002v177.994c-6.051-5.065-12.214-10.746-18.467-16.937V463.938l-44.631-.005v110.881c-6.12-7.553-12.28-15.373-18.466-23.395v-87.488l-37.216-.005.002.004-.781-.004-9.106-.001v-.04l-8.417-.038 6.825-4.919-.018-.025c1.116-.799 112.292-80.288 162.231-115.397 111.051-78.074 184.154-122.184 205.457-100.959.575.571 1.249 1.195 1.951 1.842 2.604 2.407 5.297 4.893 6.005 7.357 9.752 33.876-2.957 106.049-33.165 188.352"/></g></svg>