<svg id="Layer_1" data-name="Layer 1" xmlns="http://www.w3.org/2000/svg" xmlns:xlink="http://www.w3.org/1999/xlink" viewBox="0 0 784.42108 299.36783"><defs><style>.cls-1{fill:none;}.cls-2{fill:#3165a3;}.cls-3{fill:url(#linear-gradient);}.cls-4{fill:#fefefe;}.cls-5{fill:#9ac7f4;}</style><linearGradient id="linear-gradient" x1="155.4382" y1="291.87393" x2="155.4382" y2="12.99283" gradientUnits="userSpaceOnUse"><stop offset="0" stop-color="#3165a3"/><stop offset="1" stop-color="#4a658e"/></linearGradient></defs><title>infer-net-3</title><path class="cls-1" d="M487.98242,133.1105a11.175,11.175,0,0,0-8.81933,3.82276q-3.35889,3.82316-4.28711,10.64892h25.28515v-.98291q-.438-6.6621-3.5498-10.07568Q493.49853,133.11124,487.98242,133.1105Z"/><rect class="cls-2" x="341.93018" y="103.12857" width="13.76172" height="79.51416"/><path class="cls-2" d="M398.49609,122.46109a21.24813,21.24813,0,0,0-17.20263,7.91846l-.38233-6.82617H368.40527v59.08935h13.27051V140.592q3.93192-7.26324,11.96-7.26318,5.51467-.00028,7.94629,2.70312,2.42972,2.70456,2.42969,8.32813v38.28271H417.2832V143.59586Q416.95316,122.46109,398.49609,122.46109Z"/><path class="cls-2" d="M438.13379,102.965q-5.46094,5.3518-5.46094,15.18164v5.40674h-9.01172v9.83007h9.01172v49.25928l13.27051.00006V133.38351H457.957v-9.83007H445.9433v-5.24268q-.00037-9.77536,9.502-9.77539a26.16139,26.16139,0,0,1,5.0791.437l.32715-10.37646a30.67079,30.67079,0,0,0-7.42676-.98291Q443.59332,97.61319,438.13379,102.965Z"/><path class="cls-2" d="M488.03711,122.46109a25.3394,25.3394,0,0,0-13.76172,3.87744,25.97124,25.97124,0,0,0-9.584,10.84033,35.44571,35.44571,0,0,0-3.41309,15.81006v1.63819q-.00091,13.2161,7.83594,21.16211,7.83691,7.94577,20.45215,7.9458a29.674,29.674,0,0,0,13.29785-2.92194,23.89088,23.89088,0,0,0,9.47558-8.21875l-7.15429-6.82666a17.97019,17.97019,0,0,1-14.8545,7.37256,14.67507,14.67507,0,0,1-10.78613-4.25977q-4.287-4.25848-4.88769-11.57763h38.61035v-5.35157q0-14.09-6.58008-21.79Q500.106,122.46105,488.03711,122.46109Zm12.124,25.12109H474.876q.92815-6.8257,4.28711-10.64892a11.175,11.175,0,0,1,8.81933-3.82276q5.51614.00073,8.62891,3.41309,3.11178,3.41355,3.5498,10.07568Z"/><path class="cls-2" d="M551.75781,123.22574a12.43435,12.43435,0,0,0-4.69629-.76465q-8.52054.00018-13.32519,7.7002l-.32813-6.60791H520.73828v59.08935h13.27051V142.23062q3.16653-6.99022,12.28809-6.99023a32.85762,32.85762,0,0,1,5.40624.43652Z"/><path class="cls-2" d="M556.11523,168.66226a7.50367,7.50367,0,0,0-5.67871,2.10248,7.30215,7.30215,0,0,0-2.02148,5.27,6.92291,6.92291,0,0,0,2.07519,5.188,8.94607,8.94607,0,0,0,11.35938-.02735,7.048,7.048,0,0,0,2.02051-5.16064,7.30535,7.30535,0,0,0-2.02051-5.27A7.58188,7.58188,0,0,0,556.11523,168.66226Z"/><polygon class="cls-2" points="626.936 103.129 626.936 159.76 591.384 103.129 577.566 103.129 577.566 182.643 591.384 182.643 591.384 126.229 626.826 182.643 640.643 182.643 640.643 103.129 626.936 103.129"/><polygon class="cls-2" points="667.992 147.145 700.649 147.145 700.649 136.223 667.992 136.223 667.992 114.269 705.783 114.269 705.783 103.129 654.175 103.129 654.175 182.643 706.165 182.643 706.165 171.502 667.992 171.502 667.992 147.145"/><polygon class="cls-2" points="710.086 103.129 710.086 114.269 734.661 114.269 734.661 182.643 748.369 182.643 748.369 114.269 773.162 114.269 773.162 103.129 710.086 103.129"/><path class="cls-3" d="M155.43817,6.95682A142.45856,142.45856,0,1,0,297.89679,149.41537,142.45858,142.45858,0,0,0,155.43817,6.95682ZM131.65167,73.9653a104.17824,104.17824,0,0,0-15.62329,7.02649A86.7272,86.7272,0,0,0,95.58911,96.17007,69.77645,69.77645,0,0,0,77.50232,128.027a83.74055,83.74055,0,0,0-2.84021,25.40558,77.56063,77.56063,0,0,0,2.07452,14.07806,75.83911,75.83911,0,0,0,4.27576,12.93292,79.29184,79.29184,0,0,0,13.96729,21.11835c4.16656,4.6217,8.99743,8.4967,13.63922,12.59918,7.16534,6.33277,7.44421,14.68238,2.51422,20.98279-2.41718,3.08911-5.85114,3.98865-9.39221,4.17206a19.459,19.459,0,0,1-12.08838-4.477C68.64752,217.3768,55.25574,195.34415,49.89508,168.5c-1.798-9.00342-1.96069-18.09143-1.53278-27.22272a93.75316,93.75316,0,0,1,3.38715-21.264,96.5656,96.5656,0,0,1,7.7627-18.16821,135.18837,135.18837,0,0,1,9.19323-15.43091,87.4425,87.4425,0,0,1,9.4809-11.38043,109.60058,109.60058,0,0,1,24.21307-18.48785A100.17515,100.17515,0,0,1,128.327,46.353c1.5819-.37567,1.752-.23139,1.97937,1.41137q1.59475,11.51927,3.20831,23.03583C133.8266,73.01889,133.75208,73.2247,131.65167,73.9653Zm43.60864,86.76825q-.05777,32.93244-.11126,65.86481c-.00989,5.55841-.042,11.11682-.04718,16.67523A19.82707,19.82707,0,0,1,135.664,245.89a11.281,11.281,0,0,1-.11584-1.79242q-.046-12.29644-.073-24.59289-.01684-21.7131-.00311-43.42621l-.2406.00012q0-17.57518-.00519-35.15045c-.02143-10.91626-.12531-21.8324-.121-32.7486.00433-10.77386,9.17834-20.32824,19.81628-20.73876,9.71332-.37488,18.81329,7.31964,20.01862,16.93719a50.81427,50.81427,0,0,1,.41937,6.44751Q175.29923,135.77946,175.26031,160.73355Zm-18.51086-84.4021a19.87616,19.87616,0,0,1-20.0921-19.658q-.00091-.08413-.00116-.16833a19.87169,19.87169,0,1,1,20.09326,19.82629Zm105.83307,66.6023a104.95894,104.95894,0,0,1-6.35449,46.29406,110.2551,110.2551,0,0,1-53.30036,59.09827,98.34686,98.34686,0,0,1-19.16186,7.216c-2.33081.61011-2.34088.57312-2.34107-1.78064q-.00063-5.75884-.00012-11.5177c.00006-4.03924.03388-8.07891-.02307-12.11731a2.50964,2.50964,0,0,1,1.17059-2.2926,31.049,31.049,0,0,1,7.61542-4.27246,48.39963,48.39963,0,0,0,19.04627-13.19012A185.62913,185.62913,0,0,0,224.319,191.3696c5.1156-7.243,8.06525-15.42243,9.7395-24.13068a79.40091,79.40091,0,0,0,1.49176-15.7182,76.2977,76.2977,0,0,0-8.84094-35.61908,89.76348,89.76348,0,0,0-23.70886-28.45c-5.89166-4.68109-7.67975-13.44373-3.75-19.76691,1.99139-3.2044,5.24829-4.66491,8.99133-5.01721,5.69245-.53583,10.34448,1.6861,14.55554,5.28809,3.76685,3.22192,7.54084,6.42657,10.97351,10.01306a102.60778,102.60778,0,0,1,22.5683,35.867A108.64339,108.64339,0,0,1,262.58252,142.93375Z"/><path class="cls-4" d="M154.92157,87.44077c-10.63794.41052-19.81195,9.9649-19.81628,20.73876-.00434,10.9162.09954,21.83234.121,32.7486q.00513,17.57529.00519,35.15045l.2406-.00012q-.01374,21.7131.00311,43.42621.02691,12.29645.073,24.59289A11.281,11.281,0,0,0,135.664,245.89a19.82707,19.82707,0,0,0,39.43787-2.61639c.00519-5.55841.03729-11.11682.04718-16.67523q.05346-32.93235.11126-65.86481.03891-24.95408.09925-49.90808a50.81427,50.81427,0,0,0-.41937-6.44751C173.73486,94.76041,164.63489,87.06589,154.92157,87.44077Z"/><path class="cls-5" d="M222.79736,67.9556c-4.21106-3.602-8.86309-5.82392-14.55554-5.28809-3.743.3523-6.99994,1.81281-8.99133,5.01721-3.92975,6.32318-2.14166,15.08582,3.75,19.76691a89.76348,89.76348,0,0,1,23.70886,28.45,76.2977,76.2977,0,0,1,8.84094,35.61908,79.40091,79.40091,0,0,1-1.49176,15.7182c-1.67425,8.70825-4.6239,16.8877-9.7395,24.13068a185.62913,185.62913,0,0,1-15.0852,19.00165,48.39963,48.39963,0,0,1-19.04627,13.19012,31.049,31.049,0,0,0-7.61542,4.27246,2.50964,2.50964,0,0,0-1.17059,2.2926c.057,4.0384.02313,8.07807.02307,12.11731q-.00054,5.75886.00012,11.5177c.00019,2.35376.01026,2.39075,2.34107,1.78064a98.34686,98.34686,0,0,0,19.16186-7.216A110.2551,110.2551,0,0,0,256.228,189.22781a104.95894,104.95894,0,0,0,6.35449-46.29406,108.64339,108.64339,0,0,0-6.24335-29.09809,102.60778,102.60778,0,0,0-22.5683-35.867C230.3382,74.38217,226.56421,71.17752,222.79736,67.9556Z"/><path class="cls-5" d="M130.30634,47.76437c-.22742-1.64276-.39747-1.787-1.97937-1.41137a100.17515,100.17515,0,0,0-25.92762,10.19281A109.60058,109.60058,0,0,0,78.18628,75.03366a87.4425,87.4425,0,0,0-9.4809,11.38043A135.18837,135.18837,0,0,0,59.51215,101.845a96.5656,96.5656,0,0,0-7.7627,18.16821,93.75316,93.75316,0,0,0-3.38715,21.264c-.42791,9.13129-.26519,18.2193,1.53278,27.22272,5.36066,26.84418,18.75244,48.87683,39.75745,66.33893a19.459,19.459,0,0,0,12.08838,4.477c3.54107-.18341,6.975-1.08295,9.39221-4.17206,4.93-6.30041,4.65112-14.65-2.51422-20.98279-4.64179-4.10248-9.47266-7.97748-13.63922-12.59918a79.29184,79.29184,0,0,1-13.96729-21.11835,75.83911,75.83911,0,0,1-4.27576-12.93292,77.56063,77.56063,0,0,1-2.07452-14.07806A83.74055,83.74055,0,0,1,77.50232,128.027,69.77645,69.77645,0,0,1,95.58911,96.17007a86.7272,86.7272,0,0,1,20.43927-15.17828,104.17824,104.17824,0,0,1,15.62329-7.02649c2.10041-.7406,2.17493-.94641,1.863-3.1651Q131.901,59.2836,130.30634,47.76437Z"/><path class="cls-4" d="M156.4837,36.58945a19.87165,19.87165,0,0,0-19.82751,19.91571q.00027.08423.00116.16833a19.87166,19.87166,0,1,0,19.82635-20.084Z"/></svg>