<svg xmlns="http://www.w3.org/2000/svg" role="img" viewBox="-4.80 -3.55 184.34 51.97"><title>ING logo</title><style>svg {overflow:visible}</style><g fill-rule="evenodd" clip-rule="evenodd"><path d="M-.0347 12.45878c1.33196 0 2.26013.2818 2.8365.85756.64497.64427.9337 1.70848.9337 3.45012v21.7539c0 3.01028-.63168 4.35298-4.35984 4.35298h-.5111v1.33496h16.7546v-1.32833l-.50557-.00663c-3.69276-.0442-4.3156-1.37916-4.3156-4.35299v-21.755c0-1.7361.28764-2.7959.9326-3.43907.5819-.5846 1.52667-.8686 2.88628-.8686h1.00119v-1.35375h-16.7535v1.35374H-.0347zm53.586 20.6521s-.29096-1.35816-.333-2.11847v-9.93595c-.06527-5.79404.72572-8.67835-4.34546-8.65625v-1.3018h11.66572v1.3018c-5.22275-.021-4.56562 2.86331-4.59549 8.65625v23.20047l-1.66053-.01769-25.1911-26.33453s.28321 1.35596.32525 2.11737v16.2704c-.14271 5.93548.59296 6.6527 4.4207 6.58307v1.35596H21.67604v-1.35596c3.83326.00442 4.58663-.50503 4.5822-7.06711v.3923-16.035l-.03097-2.54504c.14271-3.2943-1.0753-5.20502-4.7935-5.17408v-1.30291h11.19665L53.5513 33.11089zm42.22891-22.6446h-1.2855l-.05973.43983c-.0874.65643-.34627 1.756-1.09522 1.756-.21351 0-.74563-.10056-1.34524-.37462-2.60418-1.1272-5.97833-1.8212-8.81926-1.8212-5.52808 0-10.54285 1.97812-14.12498 5.5719-3.29008 3.30205-5.09 7.79649-5.06455 12.6534.02323 4.65247 1.85412 8.47944 5.6022 11.70522 3.77573 3.2269 8.00615 4.60274 14.15374 4.60274 5.12097 0 8.05262-.73489 12.55186-3.14732l.78767-.42657V32.7451c0-3.69988.45357-4.27563 3.46708-4.3972l.49008-.01878v-1.28965H86.316v1.28965l.49008.01879c3.35645.1304 3.99035.73157 3.99035 3.79049v8.04402c-2.49023 1.64108-4.3001 2.26435-6.58236 2.26435-3.37748 0-6.38324-1.30402-8.69094-3.60704-2.70264-2.70197-4.02133-6.63723-4.02133-11.08416 0-4.7906 1.27665-8.87727 3.90738-11.50298 2.0942-2.09196 4.87538-3.25342 8.04819-3.25342 2.83429 0 6.12658 1.2145 8.3845 3.00366 1.83642 1.50184 2.78893 2.95504 3.50801 5.35642l.10952.36358h1.25674l-.93592-11.25655z" fill="#091c5a"/><path fill="#fff" d="M160.26417 44.11879c.81865-.12377 1.68708-.10499 2.33978-.70395 2.7657.42436 5.56901-.2586 7.74285-1.78032 1.145-.92275 2.17716-1.9936 3.0124-3.1639.73457-1.02995 1.31427-1.99028 1.6893-3.144.27988-.7117.50114-1.4521.66819-2.21242.78877-3.58494.37392-7.59424-.79431-11.00348-.21351-.63322-.458-1.24655-.7235-1.83115-1.45809-3.0103-3.44275-6.25818-6.4983-8.16227-1.72137-1.07194-3.30556-2.7307-4.27798-4.44802-.5288-.4752-1.03548-1.1051-1.71916-1.21893.18696.30832.39273.61002.44362.97028l-.03983.05083c-.72572.021-1.29435-.36247-1.79107-.82661l.54761-.4962c-.20687-.10498-.44362-.14476-.67262-.1978-2.08976-.2376-3.80892.72605-5.66304 1.19019l-.02877.10277c1.13837.50614 1.37622 1.75932 2.03888 2.60693.16373-.1967.44362-.05304.67262-.07072.33077.01878.64164.25748.96246.1735.00996-.27628-.14603-.4962-.19581-.74374.1958-.09282.43366-.01105.6527 0 .5996.35032 1.56096-.06188 1.93489.74374-.68368.0431-1.32533.18676-1.96697.34258.04204.2586.3009.46414.27989.72384-.54872-.22765-1.12951-.37131-1.74018-.44315l-.03097.09173c.7766.9095 1.84306 1.44878 2.93053 1.76816 1.56428.36136 2.9405-.38237 4.45057-.12377 3.70825 1.69632 6.87553 5.57633 8.25284 9.25852.06749.17682.13276.35585.1936.53819 1.15385 3.36282 1.3729 7.4959.21683 11.00348-.61509 1.45873-1.29213 2.83568-2.3774 4.02146-.41042.50503-.864.9548-1.3574 1.33496-1.55432 1.20898-3.4704 1.74274-5.44621 1.20124-.1239-.0851-.37282-.10609-.33078-.32158.06859-.28843.13275-.58018.18917-.87966.32636-1.68086.47902-3.44902.39052-5.21718l-.00664-.22654c-.10952-2.56715-.62173-4.8746-1.56538-7.09475-.60625-1.27418-1.32533-2.66329-2.23137-3.90984-1.08194-1.48636-2.42386-2.77049-4.14745-3.41144-1.0565-.2796-2.3608-.33264-3.15732.54591-.56973.4984-.80648 1.1692-.72461 1.9052-.89056.5636-1.89174.8675-2.98143.96033-.26661.0232-.53986.12156-.81754.11824-.2633.01216-.51995.00111-.77218-.02983-1.31094-.16135-2.63737-.86861-3.6452-1.67533-.02101-.53819-.05199-1.04432-.073-1.61345-.57749-.29948-1.0565-.8686-1.09633-1.54161l.05089-.05084c.33299.10277.62062.26743.92153.44315-.13497-.80673-.29095-1.6024-.69253-2.30635-.37392-.15582-.74674-.27959-1.09743-.46635-.4038-.26633-.66377-.75478-.7235-1.19793.36174.35142.99232.22765 1.27221.59897-.48787-1.43774-.49561-3.08213-1.29434-4.3961-.4038-.97138-1.4603-1.41673-2.1849-2.12952-.2799-.34258-.39274-.81777-.89941-.87082-.41486-.10277-.44583-.56692-.51774-.8686.25776.03094.4746.20665.69142.24754-.5996-1.59024-1.1284-3.36061-2.75242-4.374l-.27878.17683c-.6317.09282-1.30542.13482-1.936.15581.2799-.4133.7755-.59012 1.16934-.77799-.45578-.34037-.83081-.42214-1.40055-.51497-.33077.32932-.92927.49619-1.35408.58902l-.0531-.042c-.01107-.37242-.09515-.82661.46574-.92055-.53876-.25859-1.43153-.1536-1.98024 0-.15378.40337-.5985.76584-.56642 1.24324-.31971.33043-.5476.77578-.8806 1.01338-.00995-.79678.32967-1.53057.4746-2.20247-.46575.17571-.93923.42436-1.39613.64096-.73346-.42436-1.50786-.84761-2.29442-1.1692-.0708-.03094-.2279-.06077-.19692.07294.67372.48514.41264 1.39685.48455 2.08754l-.42481-.35032c-.20688-.52713-.80427-.9095-.90715-1.48857-.7047.13482-1.15496.32048-1.80766.60007l-.08961.05194c.48566 0 .8994.38126 1.13725.76583-.73457.03979-1.38727-.24864-2.11188-.32269-.07191-.07072-.13497-.15582-.24892-.14476-.36175.13482-.67372.3923-.99233.64095-.71466.70395-1.44038 1.47973-1.78111 2.41133.23896.03979.53876.02984.71466.1746-.39273.2376-.73457.64207-1.11735.86862-.13496.53818-.11394 1.1504-.14603 1.73832-.3009.4564-.70359.85756-.8994 1.367-.64275 2.07539-.80759 4.38394-.71466 6.74112-.20798.19781-.47791.32269-.67262.4774l.02102 2.10853h.0509c.09292-.44314.62172-.69069.94254-.99127h.104c-.052.47519-.11395.95149-.12391 1.43773l-.5996.4962c-.60182.52823-.09404 1.3239-.14493 1.98696.04204.1735.0708.4332.19581.4752.07302-.2586.2998-.44426.44584-.67301.25776-.06078.48565-.26965.7235-.29838-.13496.51719-.30865 1.02332-.51774 1.51951-.09956.0652-.21572.1525-.31529.2586-.1062.11382-.19138.2409-.2135.38236.46795 2.45 1.2003 4.87018 2.03776 7.17652-.56752.96254-.89056 2.09527-1.36404 3.08876-.0686.13813-.12944.2807-.18586.42435-.4757 1.20235-.62062 2.54726-1.21248 3.70209-.24006-.16356-.49893-.29064-.76555-.40336-1.11955-.37242-2.4139-.13482-3.23034.72494-.72572-.13482-1.47135-.01105-2.04108.37242-.40822.3039-.7235.67411-.90494 1.1051-.1239.30059-.18032.6277-.16152.98465-.46463.31937-.71355.81445-.86843 1.31286-.21683 1.11615.1759 2.27871.81755 3.13848h51.60464z"/><path fill="#fff" d="M153.41076 20.86417c-.01106.26854-.20687.57023-.03097.79678.24891-.2796.66377-.26965.99454-.39231.92043-.08289 1.80103.20554 2.6595.4144-.21572-.34257-.36175-.72273-.5996-1.03436-.47792-.12378-1.20142.20665-1.28329-.4962-.29095-.24864-.74784-.07072-1.04543-.05304-.29095.20886-.5288.46525-.69475.76473zm-31.64182-8.9292c-.00442-.00443-.01106-.00885-.01548-.00995 0 .0011 0 .00552.0022.00994h.01328zm3.76357 9.19221l.62173-.59896c.0531 0 .09292.01105.1239.05304l-.052 1.1471c.2998.27959.67262.37242 1.06535.39341.03208-.31053.26994-.52713.4049-.79677.11395-.2166.04204-.53819.26883-.694l.0708.07293c.07412.34037.0542.72384.2301 1.02332.02102.16466.0509.37242.0708.51719.4558.0221.86844-.10388 1.22134-.26854-.02102-.39231.11505-.7139.1748-1.07637.09513-.12487-.11395-.35142.14602-.34037.14492.30943.4038.6299.54872.96033.5996-.61001.84851-1.40568.99344-2.2323-.1748-.2398-.44473-.2398-.6527-.39341-1.759-.56913-4.01802-.68406-5.71616.1956-.10952.70505.0354 1.48083.48013 2.0378zm-16.4526 19.40777c-.06306.79788 0 1.54493.04978 2.33066.16705.25859.46796.55918.76555.58017l.0542-.52823c.1228-.736-.26992-1.5162.14493-2.13616.28985.09283.57748.2376.8286.37242.1217-.68296-.052-1.47863-.7047-1.89194l-1.13836 1.27308zm2.5555-1.11505c-.40378 1.20898-.7047 2.70308-.21572 3.97505.27768-.18455.56863-.36137.81533-.61996-.04978-.9736-.18475-2.01239.39384-2.81911.50667.15582.85073.64206 1.04543 1.11836.34295-.43652.4569-1.03548.32193-1.61566.02102-.45309-.49893-.3492-.74674-.53708.08408-.38236.0719-.8255.4768-1.0421l-1.24234.12377c-.31972.45309-.67152.89955-.84852 1.41673zm2.55773 3.57058c.0531.09504 0 .2586.10399.2796.15598-.86751.85958-1.43111 1.24346-2.19584.18475-.2586.17368-.62107.4746-.81778.40489 0 .69473.29065 1.08857.32159.1239.09283-.06416.1746-.07301.27738-.08187.70505-.3518 1.28855-.2998 2.01128h.0708c.54871-.57686.92153-1.20456 1.32532-1.86651l.0708-.58792c.09293-.70395-.67262-1.15814-1.16934-1.44768l.44473-.56912-.62063-.2177c-.72571.07293-1.37842.37241-1.8851.94264-.62947 1.15704-.73235 2.46437-.7744 3.87006zm2.78561-6.13772c.23785.07293.45468-.12377.69143-.0199.9536.35032 1.94815.7128 2.6617 1.50957l.84963 2.16047.42481-1.33275-.27989-.72494c-.23785-.5172-.89055-.4752-1.33639-.4962-.18474-.20665.01107-.44535.07413-.64095.21572-.73379-.6848-.694-1.04655-.99128.02213-.44535-.51773-.29064-.81864-.33263l-.10289-.12377c-.06084-.09283-.21572-.09283-.2998-.021-.02212-.02984-.06195-.05083-.03982-.10388l-.23011.05305c-.31972.27959-.53765.64095-.5476 1.0642zm.5996-2.37707c.03098.13371.11395.26854.21684.35031.46685-.12377.91046-.44314 1.44922-.24864.69475.61001 1.41825 1.25097 2.25903 1.5836l.2987-.05304c.18695.0641.39272.07294.51773.27959.11505.27959-.17369.44535-.26883.6719.46685.34148.2799.9526.57085 1.3648l.74563-.99238c-.1748-.43541.00995-1.17914-.67373-1.22003-.22678-.11493-.38277-.34258-.37281-.60118-.44362-.40336-.99234-.57796-1.43927-.99127-.36176-.29064-.57859-.736-1.04544-.83877-.31971-.1746-.6704-.26854-1.04322-.35032-.69696-.10277-.7578.72274-1.2147 1.04543zm.99344-2.0378l.12501.1967c.51664-.03205.9846-.2586 1.49238-.24865.34073.20776.78656.19782 1.13725.37242.27989.38237.5808.81667.99233 1.07637.84078.12266 1.30541 1.02332 1.59526 1.68417v-.32048c.1239-.44314-.01106-.96144-.177-1.3637-.20688-.20775-.50668-.34368-.72351-.52933-.04204-.13372-.01106-.19671.03097-.32048-.32192-.34148-.79762-.52824-1.19035-.79568-.54872-.79677-1.60522-.57907-2.44378-.79677l-.83856 1.04542zm-.01659-7.58762c.09182.32158.20466.72494.2655 1.06531.28985-.64096.8618-.92828 1.36848-1.45652-.29096-.19781-.6516-.29064-.97242-.35253v-.01878c-.2279.22654-.5797.4542-.66156.76252zm1.88068 3.4026l.46574-.4752c.46685-.47519.84962-1.02442.92153-1.63444-.33078-.1967-.76554-.06299-1.08637.05084-.11616.6741-.28984 1.33606-.3009 2.0588zm.34073 1.45873c.71576.042 1.4083.18455 1.9891-.2155l.57858-1.8632c-.18475-.01104-.37282-.09282-.54761-.03094-.38167.84872-1.15053 1.68528-2.02007 2.10964zm.2102-6.59855c.46574.68406 1.24235 1.44878 2.03997 1.66428-.09292-.8675-.83745-1.46868-1.22133-2.21241l-.02213-.24865c-.2998-.29064-.66266-.48514-.97352-.64206-.04978.4984.08518.9747.177 1.43884zm2.52452 6.68143c.54872.09504 1.13837 0 1.64504-.15692.73678-.1735 1.14058-.98133 1.38838-1.61124h-.92153l-.99454.97139c-.39163.20775-.76666.5194-1.11735.79677zm-.11173-7.62187c.15599.80672.49561 1.5405.96357 2.23451l.1239-1.54161-1.08747-.6929zm3.39407 4.02256c.06195-.51718-.15378-1.11615-.21352-1.64328-.31197-.20776-.74784-.18676-1.06756-.39231.01992.81667.66045 1.50846 1.28108 2.0356zm-.94255 5.25586c.6527-.20776 1.28328-.43541 1.88288-.76694.38278-.54592.96357-1.04543 1.04544-1.68528-.4757.13372-.89056-.0199-1.33417.19781-.26883.48514-.43588 1.03438-.95251 1.3847-.08187.35031-.46575.59012-.64164.8697zm1.01335 1.27197l.7766 1.01227c.41486.13482.9326.09283 1.29435-.14477l-.27988-.92055c-.54761.20887-1.19921.14477-1.79107.05305zm1.29545-7.3246l.2998 1.3659c.72351-.59012.87065-1.44879.85295-2.35828-.41486.47519-.65713.76583-1.15275.99237zm2.03888 2.41132c.01106.1956.06305.38237.177.53819.80648.28843.88945 1.27086 1.63619 1.64328.48566.2166 1.04322-.05304 1.46914-.24865-.32082-.36136-.68479-.61222-.99344-.99348-.21794-.09283-.43587-.22765-.42481-.4962l-1.86408-.44314zm.64164 4.88123c.3529.40336.8286.61001 1.32532.72274-.08186-.11383.0531 0 .07302-.07184l-.62284-1.36258c-.30976.00773-.63058.07072-.92042.05083.0199.22544.07301.45199.14492.66085zm1.09854-6.372c-.29096-.6719-.41265-1.48858-.49451-2.2323-.31087.3713-.63169.61-.92153.99127-.13497.76583.95914.9537 1.41604 1.24102zm1.26226-.70175c.37282.48514 1.19036.31938 1.64836.17461-.21905-.37242-.92043-.58902-1.04433-.99238-.07301-.71279-.21573-1.40569-.44583-2.0577-.36286.87856-.79984 1.92398-.1582 2.87547zm.6516 2.19252c1.03658.7559 2.04994 1.63334 3.49916 1.31286.104-.07293.2799-.06299.30091-.1967-.42592-.26965-.8795-.4763-1.31537-.72274l-.4956-.72495h-.2279c-.55978.18676-1.1616.2575-1.7612.33153zm.02213 8.38771h.0708c.62283-.49619 1.3574-.66195 2.09197-.86971.19803.07183.07302.28953.24892.37352.44583-.18676.98458-.14477 1.43927-.30058.54982.0221.99565.03204 1.43927.26964.35069.46414 1.01445.41441 1.47135.72273l-.07302-.72273c-.96246-1.1283-2.46479-1.21119-3.84985-1.18909l-.03208-.14587c-.33078 0-.70249.07294-1.01335.2188-.44473.0188-.86954.2376-1.29546.37132-.19802.39342-.3529.8675-.49782 1.27197zm.83081-12.71086c.4038.52824 1.0034.9305 1.68708.79678-.3507-.34148-.7556-.70505-.77661-1.1902.10399-.92054-.91047-.99237-1.40719-1.46978.16373.62217.14492 1.31397.49672 1.8632zm-.1051 14.54201h.12059c.54982-.34368 1.34745-.08398 1.8862-.44646.2998-.15582.31972.2586.5288.37242.50668.31053.56864 1.23992 1.2833 1.02443.85847.44425.64164 1.49078.67261 2.2555l.79763-.49618c-.07301-.40336.15377-.89182-.1051-1.24213-.1958-.44315-.73346-.48514-.99233-.84762.31086-.52823-.39273-.77467-.53876-1.15814l.04204-.05305 1.09522.14477c.37503.22765.50778.64207.62283 1.02443.85958.14477 1.06646 1.11615 1.36736 1.73722.1759-.42436.24781-.87966.42482-1.29186.00995-.34259-.44583-.34259-.67262-.4962-.06417-.52713-.30091-1.02553-.76555-1.3449-.95361-.2376-1.79106-.76584-2.8365-.76584l-.87064.26965c-.4768.11382-.98348-.03094-1.34524.29838-.54097.04088-.5819.63211-.71466 1.01558zm.5465-4.26237l.19803.09283c.4226-.19781.84852-.42436 1.29435-.59012.69253-.19671 1.23129.59012 1.81209.09393.21683-.15582.40158.07183.56862.1967.24892.45531.8286.42437 1.26338.54814-.21684-.58902-.48566-1.39685-1.24236-1.49189-.2998-.13371-.6527-.12045-.94255-.29837-.79652-.87856-1.31426.72273-2.1849.33042-.30976.34369-.69253.66306-.76665 1.11836z"/><path fill="#fff" d="M135.34521 38.80326c.33078.27738.67151.75478 1.18815.69179.64496.30059.37502 1.1471.72682 1.59245l.37171-.33153-.03097-.0199.0531-.05193.02212.03094c.10289-.31164-.04314-.85977-.21904-1.22113-.23785-.16356-.51774.01105-.74453-.14477-.03208-.33043-.23895-.4962-.4768-.70285-.16595-.12377-.38388.042-.56974.03095l-.32082.12598zm1.29435-12.60809c.34184.57023 1.0034.92166 1.5322 1.31397.43366.1978 1.0034.24754 1.47024.14476-.44472-.36136-.84962-.77467-1.22133-1.21119-.14492-.20665-.177-.46414-.37282-.6509-.48897.09393-1.03547.08399-1.4083.40336zm.57084-3.70098c.47791.58792 1.21248.35142 1.8851.37132v-.07073l-1.03548-.87082c-.29095.09393-.5996.35142-.84962.57023zm-19.059-9.75361l.59961 1.8621c-.01106-1.05538.4757-1.93393.37282-3.0092l.44583-.66305-.94366.28953c-.2478.4752-.45357.9526-.4746 1.52062zm.4038-3.2269l.81643-.4763V7.8273c-.34184.20776-.5299.55919-.79652.83878l-.01991.8476z"/><path fill="#fff" d="M135.34742 11.39678c-.19802.2586-.49672.32048-.74452.37242.43366-.79678.64164-1.9052.2987-2.80475.229-.08177.4779-.12156.69474-.24754l-.02213-.0199.57084-.4984c.7556-.51718.46575-1.4985.74563-2.2323-.37281-.58017-.48565-1.28301-1.02552-1.77036l.03208-.01879c-.42591-.53818-1.19146-.4774-1.77336-.74594-.76555-.2586-1.3552.26854-1.90391.62217-.23785.03978-.09293.35032-.3518.34037-.14492.38347-.32192.79678-.4248 1.22003-1.02553-.14587-2.13181-.02984-2.95046.54813-.43587-.31937-.96357-.38237-1.47135-.52713-.37171-.07184-.79652.06299-1.06424-.14588-.39273-.44314-.47791-1.25097-1.15164-1.36369-.23674-.08288-.28763-.34037-.28763-.56913-.44583-.07183-.84077-.27738-1.27554-.37242-.66045-.30058-1.18815.17682-1.68597.4962-.21683.09393-.46575.12377-.67151.24975-.37282.57796-.72572 1.16809-.96357 1.80794.07301.52713.2998.99349.57084 1.43774.23785.673.98237 1.20013 1.61406 1.46978-.2998 1.02332-.2998 2.24446 0 3.27883 0 0-.0177.01216-.0177.00995 0 .0022-.03319.02873-.03319.02873-.09957 0-.20466.0199-.28653-.02873h-.01327c.14492.98796.61066 1.85214 1.36293 2.59367.26994.09503.20799.4144.32304.62217.0708.09172.08076.28843.04978.37131-1.61296-.05194-3.05333.35142-4.34768 1.0852-.33078.16577-.18475.62218-.21572.94155.91046-.59896 1.89395-1.04432 2.98031-1.23992.46575-.03094.99344-.14477 1.43927-.021l.052.88961c-1.23129.64096-2.57763 1.01338-3.63413 2.06875.02102.31937-.03983.6929.0531.96254l.94255-.76694c.90936-.69069 1.86187-1.28192 2.90841-1.66428.2799.33153.57084.68295.94366.8885.63058-.40336 1.31426-.70174 2.03887-.8885.38388-.22765.99234-.021 1.24125-.4752l.177-.94154c-.03208-.021-.05088-.06078-.10399-.04973-.48565-.27959-.80647-.76473-.76554-1.33496-.16484.08178-.3507.13482-.54872.14477-.16594-.042-.31971-.08178-.39273-.24865-.01106-.20776-.11505-.51718.09182-.6719.67262-.41441 1.54327-.4354 2.39289-.37131.63058.08178 1.54326.04973 1.75898.79677-.02876.2166-.00995.4542-.22678.59897-.2279.12377-.48566-.01105-.69475-.10278-.16373.50614-.44362 1.07637-1.01446 1.23993l.07412.60117c.0708.26965.09183.7128.51774.61996.98349.2376 1.85192.74484 2.7115 1.29297.28984-.29064.51773-.62217.7235-.92055 1.5322.51608 2.85863 1.66428 4.1209 2.7296l.0531-.86861c-1.20142-1.06532-2.5378-1.8201-3.92508-2.41022.0531-.2796.11505-.54924.1239-.84762 1.64725.09173 3.20821.59897 4.56672 1.39685l-.02212-.74484c-1.42821-.76473-2.99138-1.27197-4.70059-1.29296-.06195-.09504-.08186-.22765-.0708-.32159.8286-.13482 1.41715-.99238 1.61628-1.73832.4226-.48514 1.03548-1.01338.89055-1.73611a11.83616 11.83616 0 0 1 .06085-.18455c.05531-.18234.10178-.37132.03982-.5393z"/><path fill="#fff" d="M136.7878 14.05454l.84852-.26964.09182-.4752c.24006-.6929-.26662-1.21008-.51774-1.75931l-.4226 2.50415zm2.14065 3.27884c.4038.44314.79763 1.15814 1.5134.93933-.0531-.29838-.21905-.54592-.32193-.81556-.18807-.21881-.24892-.83877-.62173-.61996-.2799-.18677-.3507-.4984-.5288-.74595-.08076.38237-.02988.85867-.04094 1.24214zm.14603 3.02797c.15599.2188.19803.4984.3507.694.27988.18455.69474.15582 1.03547.12377.31086-.07183.50778.26854.79763.07073-.36065-.22655-.57748-.64096-.92153-.93934-.4049-.32047-.83746-.04088-1.26227.05084zm.54872 4.8105c.71355.42436 1.6229.83877 2.57542.694.10288-.05304.27988-.042.2998-.16687-.58965-.20776-1.20917-.79678-1.82868-.92055-.34295-.52713-.78767.13483-1.22244.09283.00995.12488.13386.21881.1759.30059zm2.15171 9.13144l.15599.33264c.15598 1.07636.83745 2.06764.46463 3.24678.31087.2166.4049.57797.60071.8675h.052c.23785-.89844.07301-1.83004-.052-2.7307.09293-.81667-.73567-1.29297-1.22133-1.71622zm.17811-10.59017c.53876.41441 1.39834.4553 2.01786.24864-.39273-.2166-.8264-.4542-1.14943-.74483l-.86843.49619zm2.5544 3.17605c-.0531.43541.23785.79678.54872 1.01338.11394-.2586.2998-.4752.31971-.76473-.09182-.44535-.34073-.8476-.74452-1.1471-.07302.28844-.15488.56582-.1239.89845zm.03208 4.71436c-.07301.48514.46464.54924.69254.81778.18696.22654-.1239.38236-.1239.59896.39272.50614.62062 1.08631.62062 1.75932.15598-.6299.39383-1.23219.47901-1.8831-.04203-.45419-.76554-.36136-.6527-.8675.20577-.51718-.04204-1.02442-.177-1.48856-.04204-.07405-.13497-.21881-.21573-.17682-.19028.42436-.65492.72273-.62284 1.23992zm1.41826-2.46106l.53765 1.04432c.23895-.02873.39162-.25859.57858-.42215.14603-.4354-.23785-.715-.35069-1.06642-.09514-.24864 0-.57907-.177-.79677-.13386-.08178-.29096-.2166-.44583-.17682l-.14271 1.41784zm.69253-2.74949c.4248.2575.91047.62991 1.13725 1.0841.36397 1.05538.94366 2.00687 1.36736 3.0302.15599.71389.2799 1.35042.47681 2.05437.07302.18345.03098.54592.32193.51608.08186-.78572.23785-1.5405.2478-2.35828-.25776-.34037-.60181-.48514-.92153-.694v-.07073c.04204-.17681.18697-.38347.4049-.35031.09182-.1061.37171-.20776.24892-.39342-.53876-.53708-.50779-1.46426-1.36847-1.63113-.2987-.12377-.37282-.4332-.40158-.72273-.4049-.33927-1.00672-.4564-1.5134-.46415zm.49561 5.60507c.5288.48404.34405 1.18798.3009 1.84-.08186.3934.41486.16576.57085.37241.31971.4763.13386 1.1692.0188 1.68638.281-.42546.60182-.79788.81865-1.26202-.01106-.17682.21573-.2586.20798-.4752.09182-.30058-.25887-.16576-.40379-.19891-.1239-.03094-.25887-.11383-.21904-.27849.26993-.51829.02212-1.13825-.08187-1.65433-.1239-.42546.0531-.99238-.14492-1.3648-.33078.4553-1.31537.55918-1.06756 1.33496zm.96357-7.3445c.92264.9316 1.59526 1.86652 2.5887 2.76718.02212-.40115-.03098-.77578-.052-1.1692-.14603-.27738-.41486-.48514-.64275-.6918-.73346-.07293-1.11734-1.06089-1.89395-.90617zm2.4128 4.92986c.02102.09283.06305.1746.10288.26854.4038.66306.78657 1.3438 1.06756 2.0577-.08297-.76363.43588-1.71733-.24891-2.30524-.09293-.24865-.4038-.16577-.60071-.14588l-.32082.12488zm2.4847 7.55557c.29095.1315.66266-.1061.94255-.26965.25887-.06299.4768.08178.67373.2166.08186.16466 0 .31938.02876.4752.62284.1757 1.2324.40336 1.78222.76472l.17368-.1746c.04204-.44536-.30865-.76363-.64053-1.01227-.21683-.12709-.53987-.05305-.69253-.25086.10288-.16356.10288-.4122.09182-.59896-.34295 0-.55978-.10388-.83967-.26965-.17369-.05083-.33078-.1956-.4757 0-.51663.35253-.5476.86861-1.04433 1.11947zm.72572-13.01587c.25776-.07073.5288-.14587.74563-.33043.69143-.631 1.69704-.20775 2.50352-.2177-.15378-.27959-.37282-.55697-.56863-.79678-.28985-.11382-.55978-.24864-.89056-.24864-.7047-.4122-1.1793.27959-1.71916.61996-.14381.2818-.21572.694-.0708.97359zm.01991 2.12842c0-.02873 0-.06188.03098-.07072.09293.08288-.01106.27848.14492.31937.26883-.13261.51774-.31937.76555-.49398.69474 0 1.1085-.6719 1.78996-.6719 1.13836.20555 2.26898.4332 3.26131.99127-.0708-.6719-.6516-1.28191-1.24014-1.5836-.33299-.11383-.59186.0641-.8297.24864-.69475.43652-.33078-.6299-.81755-.652-.63168.19891-1.28439.4144-1.98688.35363-.41485.1536-.7058.53486-1.17044.49508-.02102.34148-.07302.75589.052 1.06421zm.47681 2.30856c.21573.22654.57748.18455.89056.22654l.8994-.35032c.01106-.16576-.26882-.20886-.20798-.3923.24891-.2796.59186-.084.90051-.19892.43698-.06078.8817-.49509 1.31426-.17461-.00995.05084.02213.12488-.0188.1746-.13718.32159.09292.5172.34073.64096.50778.09504.98348.56029 1.49127.35143-.0509-.42326-.16484-.81557-.26994-1.22003-.4237-.07294-.7235-.42436-1.11734-.57024-.177.16577-.4038.29065-.62173.26965-.79763-.18566-1.75013-.68185-2.55661-.1746-.29095.3503-.8087.24754-1.20142.40114.02212.35474.06195.69511.1571 1.0167zm.34074 6.14656c-.06306.17571-.23786.46635.08186.54813.66377.0221 1.51228-.31937 2.03113.19671.1748.13593.09182.4133.08186.59012l.86843.72495c.08408-.43541.23785-.82883.24892-1.29518-.0708-.33042-.23785-.652-.5266-.8686-.57083 0-.90272-.66638-1.51338-.58129-.31972-.07404-.5985.20997-.92153.20997-.14493.14477-.2268.32158-.3507.4752zm.2489-4.8746c.13387.27739.29096.7338.54872.76474.61067-.26854 1.50012-.43541 2.1849-.14477.2279.04089.2279.29948.17701.46635.3507.20665.7766.3702 1.14832.59896l-.10288-.61996c-.02213-.673-.87065-.736-.92264-1.39905-.69364-.22655-1.47025-.29838-2.20482-.12267-.24006.2177-.57969.18676-.87064.24975-.0188.08178.03098.13261.04204.20666zm.17701 3.35067c.4038-.11383.66045-.55918 1.09633-.59896.66266.01105 1.25341.27738 1.66605.8476.25113.16467.19803.59013.51774.59013-.09292-.50835.07302-.9736.0531-1.49078-.43698-.72274-1.51007-.16576-1.91497-1.01338l-.76554.05084c-.54872.13482-.40269.77688-.47791 1.21119-.06196.13482-.18586.2376-.1748.40336zm3.79676 4.52317c.32192.64096 1.02773 1.12831 1.09853 1.8632.16594-.19781.2799-.42436.39384-.64096-.01107-.20775-.25002-.20775-.34406-.37241-.09292-.26854.0531-.50614.09404-.74595-.13386-.38347-.45579-.74483-.81754-.97138l-.42481.8675zm1.27664-1.63333l.74453 1.01337c.31971-.50724.31971-1.25097.19581-1.8632-.0708-.11382-.20687-.29948-.39273-.2166-.281.29065-.32082.7338-.5476 1.06643zM157.03383 7.7632c.26993.13482.5288.2586.84852.27848.21904-.11272.49893-.1956.76776-.12377.38277.24865.84851-.05194 1.29213-.03094-.39162-.37131-.83856-.59896-1.29213-.81556-.5808.12266-1.04544.53486-1.61628.69179zm4.0501.97249c.5465.05083.94033.53597 1.31315.94265.46685.07072.81864.40115 1.09743.74373l-.1759-.54924c-.1239-.54923-.46575-.97359-.81644-1.40568-.49672.03094-.9857.07183-1.41825.26854z"/><path fill="#f60" d="M122.44599 4.19705l.2998.03094c.80869.40337 2.113.61002 2.1849 1.77811-.81533.32158-1.603.757-2.2546 1.41674-.49672-.50724-1.50233-.22765-1.66716-1.11615.15598-.83767.45468-1.89083 1.43706-2.10964zm.77882 5.2448c.94034-.08177 1.85191.04974 2.82654-.03094.23785.10278.48566.31054.5996.54813-.03097 1.11615-.37281 2.18258-.4248 3.32967-.42371.17792-.83857.52824-.94145.99348-.38388.11272-.72572.34258-1.09854.51609-.16594-.35032-.13496-.87856.1571-1.16699.40268-.57023 1.44922-.4354 1.36404-1.33496.26993-.43541.01106-.99349.02213-1.44879-.104-.34037-.20688.11383-.37282.10278-.33078.07072-.67262.09283-.96136-.07073-.21904-.22986-.48787-.41441-.54982-.72494-.28984-.14477-.63058-.37242-.7755-.67301l.15488-.03978zm1.13836 6.74333c.44251.06078.91047-.13483 1.29324.08177-.08297.14477-.2998.20666-.4757.24865l-.69364.32159c-.25887-.0641-.11394-.4774-.1239-.65201zm1.81209-8.63747c.44361-.14476.92153-.44314 1.39723-.29837-.34184.34147-.61067.78572-.86843 1.19793l-1.41825-.02984c.15266-.37132.5454-.68185.88945-.86972zm4.15187-.34037c.58854-.10277.55756.66196 1.09632.694.09403.12378.229.2365.1759.42215-.31087.12378-.76555.063-1.11956.14477-.46574-.2586-.16373-1.06531-.90051-1.01337-.03983-.06078-.1239-.18566-.01991-.22765.229-.08068.52659-.05084.76776-.0199zm-.37282 2.7727c.25776-.36358.6527-.39231 1.02441-.46635l2.68163.05194c.11394.10277-.10289.1956-.10289.32048-.16594.15471-.4049.1967-.54982.34258-.35069.01105-.32193.42215-.56973.59896-.38388.38237-.94145.20776-1.38728.14477-.15598-.11383-.33078-.26964-.40379-.44536l-.1239.12378c.15598.58017.11394 1.22224.22678 1.81015l.64165.42546c.01106.9515 1.1295.6929 1.61627 1.22114-.11395.34037-.34184.6299-.58854.92055-.39383-.38347-.83967-.63323-1.31537-.79678-.04093-.55918-.6516-.8885-.99454-1.1692-.09293-1.01337-.11395-2.04775-.27768-3.03018l.1228-.05194zm.97242 6.37974h1.24346l-.15599.65201-1.24346-.52824c-.02876-.10277.08297-.13371.15599-.12377zm2.2358-11.71627l.92152-.29064c.5288.24754 1.02552.55918 1.51118.9095.38388.70505.31972 1.65433.14492 2.44006-.27989.31164-.89055 0-1.11734.49619h-.04204c-.34294-.97138-1.31426-1.83889-2.21588-2.28535.14493-.49508.30091-.98022.79763-1.26976z"/><path fill="#fff" d="M154.756 44.04585h5.52366c.81754-.12377 1.68707-.10388 2.33867-.70505 2.7657.42546 5.57012-.25749 7.74396-1.777 1.14721-.92608 2.17827-1.99581 3.0113-3.1639.73457-1.02996 1.31536-1.9925 1.6904-3.14512.27877-.71279.50003-1.4521.66708-2.21351.78878-3.58384.37503-7.59204-.791-11.00459-.21682-.63322-.4591-1.24324-.72571-1.82894-1.45808-3.0103-3.44053-6.25708-6.49829-8.16227-1.72248-1.07305-3.30556-2.73291-4.27798-4.44803-.5288-.4774-1.03659-1.1073-1.71916-1.22113.18696.31053.39273.61001.44583.97138l-.04204.05194c-.7235.021-1.29435-.36137-1.79107-.82882l.54982-.49509c-.20798-.10277-.44583-.14587-.67372-.1956-2.09198-.2376-3.81003.72273-5.66194 1.18909l-.03098.10277c1.13726.50614 1.3751 1.75711 2.03888 2.60693.16594-.19781.44583-.05304.67261-.07404.33078.021.64165.2586.96136.17571.01106-.27848-.1427-.49508-.19581-.74263.19581-.09504.43587-.01105.6527 0 .5996.35032 1.56318-.0641 1.936.74263-.68369.0431-1.32533.18566-1.96697.34148.04093.25859.2998.46635.27989.72494-.54982-.22986-1.1284-.37131-1.74018-.44535l-.02876.09172c.7766.9106 1.84085 1.44879 2.92832 1.77037 1.56317.36137 2.93938-.38236 4.44946-.12377 3.70935 1.69633 6.87553 5.57633 8.25395 9.25853.06749.17681.13165.35584.1936.53597 1.15385 3.36282 1.37179 7.4992.21683 11.00459-.61509 1.46094-1.29213 2.83568-2.3774 4.02367-.41042.50282-.8651.9526-1.3585 1.33496-1.55433 1.20898-3.4704 1.74053-5.44401 1.19792-.1228-.08067-.37392-.10277-.33299-.31937.0697-.28733.13386-.58128.19028-.87855.32857-1.68307.47791-3.45123.39162-5.21718-.00442-.07625-.00553-.1525-.00885-.22765-.10841-2.56604-.62062-4.8746-1.56538-7.09364-.60403-1.27418-1.32422-2.66329-2.23026-3.91095-1.08084-1.48746-2.42386-2.7727-4.14745-3.41365-1.0565-.2796-2.3619-.33043-3.15732.54923-.57084.4962-.80758 1.1681-.72572 1.90188-.89056.56581-1.89174.87082-2.98142.96254-.26662.02321-.54098.11935-.81644.11825-.2644.01215-.52216 0-.77108-.03205-1.31426-.16134-2.63958-.8653-3.6474-1.67533-.02102-.53487-.0531-1.04432-.07302-1.61124-.57858-.30058-1.05428-.87082-1.09632-1.54161l.0531-.05194c.33078.10277.62063.26854.91932.44535-.13497-.80672-.28874-1.6035-.69253-2.30634-.37282-.15582-.74785-.27848-1.09854-.46635-.40379-.26854-.66266-.75479-.7224-1.20014.36065.35363.99234.22876 1.27222.60117-.48565-1.43773-.49672-3.08212-1.29434-4.39608-.4038-.9725-1.4603-1.41674-2.1849-2.13174-.2799-.34037-.39274-.81557-.90052-.86861-.41375-.10277-.44583-.56913-.51774-.8675.25887.02983.4757.20665.69475.24754-.60182-1.59356-1.12952-3.36061-2.75464-4.37399l-.27989.1746c-.63058.09505-1.3043.13483-1.93599.15583.27989-.41441.7766-.58902 1.17044-.77689-.45689-.34037-.83081-.42325-1.40165-.51718-.33078.33263-.92817.49619-1.35298.58901l-.0509-.03978c-.01105-.37131-.09734-.82882.46243-.92055-.53765-.2586-1.4282-.15582-1.97802 0-.15599.40336-.5974.76473-.56863 1.23992-.31861.33264-.5465.77578-.8795 1.01449-.00885-.79678.32857-1.53167.4746-2.20247-.46575.1746-.93923.42215-1.39391.64096-.73568-.42436-1.51008-.84872-2.29553-1.1681-.07302-.03204-.229-.06298-.19803.07074.67262.48624.41264 1.39574.48455 2.08974l-.42481-.35032c-.20687-.52823-.80537-.9106-.90715-1.49078-.7047.13483-1.15496.32159-1.80766.60118l-.09072.05083c.48566 0 .89941.38237 1.13837.76473-.73457.042-1.38728-.24865-2.11079-.31937-.07301-.07294-.13386-.15582-.25002-.14477-.36286.13482-.6715.39341-.99343.64206-.71356.70174-1.43928 1.47973-1.78 2.40912.23895.042.53875.03205.71465.17682-.39163.2376-.73457.64095-1.11845.8686-.13386.53819-.11395 1.1482-.14492 1.73833-.2998.4542-.7036.85755-.90052 1.3637-.64164 2.07868-.80758 4.38503-.71355 6.74331-.20798.1956-.47791.32269-.67262.4763l.02102 2.10963h.0509c.09513-.44535.62283-.6929.94254-.99238h.104c-.0509.4752-.11395.9504-.1239 1.43774l-.60072.49619c-.5985.52713-.09182 1.3217-.14492 1.98365.04314.17682.0719.43541.19913.4774.0708-.25859.2987-.44535.44251-.6719.25887-.06409.48566-.26964.7235-.30058-.13164.51608-.30864 1.02332-.51773 1.51951-.09846.0652-.21573.15472-.3153.2586-.10509.11382-.18917.24422-.20908.38457.46464 2.45111 1.197 4.87018 2.03666 7.17652-.57084.96033-.89276 2.09416-1.36736 3.08765-.06748.13924-.12833.27959-.18585.42436-.4757 1.20345-.62063 2.54615-1.21249 3.70319-.23785-.16687-.49561-.29064-.76444-.40447-1.12066-.37131-2.4139-.13372-3.23033.72384-.72572-.13482-1.47136-.01105-2.0422.37132-.4071.30721-.7235.67632-.90383 1.10841-.12169.29948-.18032.62549-.1604.98243-.46686.32048-.71577.81667-.86954 1.31286-.21794 1.11836.17479 2.27982.81643 3.13849h46.0832z"/><path fill="#f60" d="M174.94008 22.03779c-.21683-.63323-.4591-1.24324-.72572-1.82894-1.45808-3.0103-3.44053-6.25708-6.49829-8.16227-1.72248-1.07306-3.30556-2.73292-4.27798-4.44803-.5288-.4774-1.03659-1.10731-1.71916-1.22114.18696.31054.39273.61002.44583.97139l-.04204.05194c-.7235.021-1.29435-.36137-1.79107-.82883l.54982-.49508c-.20798-.10278-.44583-.14588-.67372-.1956-2.09198-.2376-3.81003.72273-5.66194 1.18908l-.03098.10278c1.13726.50613 1.3751 1.7571 2.03888 2.60693.16594-.19782.44583-.05305.67261-.07405.33078.021.64165.2586.96136.17572.01106-.27849-.1427-.49509-.19581-.74263.19581-.09504.43587-.01105.6527 0 .5996.35032 1.56318-.0641 1.936.74263-.68369.0431-1.32533.18565-1.96697.34147.04093.2586.2998.46635.27989.72495-.54982-.22986-1.1284-.37132-1.74018-.44536l-.02876.09173c.7766.9106 1.84085 1.44878 2.92832 1.77037 1.56317.36136 2.93938-.38237 4.44946-.12378 3.70935 1.69633 6.87553 5.57634 8.25395 9.25853.06749.17682.13165.35584.1936.53598 1.15385 3.36281 1.37179 7.4992.21683 11.00458-.61509 1.46094-1.29213 2.83569-2.3774 4.02367-.41042.50282-.8651.9526-1.3585 1.33496-1.55433 1.20898-3.4704 1.74053-5.44401 1.19793-.1228-.08067-.37392-.10277-.33299-.31937.0697-.28733.13386-.58129.19028-.87856.32857-1.68307.47791-3.45123.39162-5.21718-.00442-.07625-.00553-.1525-.00885-.22765-.10841-2.56604-.62062-4.8746-1.56538-7.09363-.60403-1.27418-1.32422-2.6633-2.23026-3.91095-1.08084-1.48747-2.42386-2.7727-4.14745-3.41366-1.0565-.27959-2.3619-.33042-3.15732.54924-.57084.49619-.80758 1.16809-.72572 1.90188-.89056.5658-1.89174.87081-2.98142.96254-.26662.0232-.54098.11935-.81644.11824-.2644.01216-.52216 0-.77108-.03204-1.31426-.16135-2.63958-.8653-3.6474-1.67534-.02102-.53486-.0531-1.04432-.07302-1.61123-.57858-.30059-1.05428-.87082-1.09632-1.54162l.0531-.05194c.33078.10278.62063.26854.91932.44536-.13497-.80672-.28874-1.6035-.69253-2.30634-.37282-.15582-.74785-.27849-1.09854-.46636-.40379-.26854-.66266-.75478-.7224-1.20014.36065.35364.99234.22876 1.27222.60118-.48565-1.43774-.49672-3.08212-1.29434-4.39609-.4038-.97249-1.4603-1.41674-2.1849-2.13174-.2799-.34037-.39274-.81556-.90052-.8686-.41375-.10278-.44583-.56913-.51774-.8675.25887.02983.4757.20665.69475.24753-.60182-1.59355-1.12952-3.3606-2.75464-4.37398l-.27989.1746c-.63058.09504-1.3043.13483-1.93599.15582.27989-.41441.7766-.58902 1.17044-.77688-.45689-.34037-.83081-.42326-1.40165-.51719-.33078.33264-.92817.4962-1.35298.58902l-.0509-.03978c-.01105-.37132-.09734-.82883.46243-.92055-.53765-.2586-1.4282-.15582-1.97802 0-.15599.40336-.5974.76473-.56863 1.23992-.31861.33263-.5465.77578-.8795 1.01448-.00885-.79678.32857-1.53167.4746-2.20246-.46575.1746-.93923.42215-1.39391.64095-.73568-.42435-1.51008-.84871-2.29553-1.16809-.07302-.03204-.229-.06299-.19803.07073.67262.48624.41264 1.39574.48455 2.08974l-.42481-.35031c-.20687-.52824-.80537-.9106-.90715-1.49078-.7047.13482-1.15496.32158-1.80766.60117L122.81548 1c.48566 0 .89941.38236 1.13837.76473-.73457.04199-1.38728-.24865-2.11079-.31938-.07301-.07293-.13386-.15582-.25002-.14477-.36286.13483-.6715.39342-.99343.64207-.71356.70174-1.43928 1.47973-1.78 2.40912.23895.04199.53875.03204.71465.17681-.39163.2376-.73457.64096-1.11845.86861-.13386.53818-.11395 1.1482-.14492 1.73832-.2998.4542-.7036.85756-.90052 1.3637-.64164 2.07869-.80758 4.38503-.71355 6.74332-.20798.1956-.47791.32269-.67262.4763l.02102 2.10963h.0509c.09513-.44536.62283-.6929.94254-.99238h.104c-.0509.4752-.11395.95039-.1239 1.43774l-.60072.49619c-.5985.52713-.09182 1.3217-.14492 1.98365.04314.17682.0719.4354.19913.4774.0708-.2586.2987-.44535.44251-.6719.25887-.0641.48566-.26964.7235-.30059-.13164.51609-.30864 1.02333-.51773 1.51952-.09846.0652-.21573.15471-.3153.2586-.10509.11382-.18917.24422-.20908.38457.46464 2.4511 1.197 4.87017 2.03666 7.17651-.57084.96034-.89276 2.09417-1.36736 3.08765-.06748.13925-.12833.2796-.18585.42436-.4757 1.20346-.62063 2.54615-1.21249 3.7032-.23785-.16688-.49561-.29065-.76444-.40447-1.12066-.37132-2.4139-.13372-3.23033.72384-.72572-.13483-1.47136-.01105-2.0422.37131-.4071.30722-.7235.67632-.90383 1.10842-.12169.29948-.18032.62548-.1604.98243-.46686.32048-.71577.81667-.86954 1.31286-.21794 1.11836.17479 2.27982.81643 3.13848h18.29455c-.26882-.31937-.51774-.76473-.7058-1.1471-.39163-.59122-.1228-1.42778-.16484-2.11073.37282-.75147.75116-1.50736 1.17708-2.24225.0863-.14808.17258-.29285.26108-.43651l.83967-.32048c.44473 0 .81865-.32048 1.24235-.20776.56974.57023.56974-.56802 1.11956-.61996 1.28328-.16577 2.55661-.042 3.28012 1.04432 0 .14476.2301.14476.177.27959-.16594.04973-.32192-.05305-.49672-.05305-.78656-.1956-1.7092-.694-2.4847-.24865-.02987.18566-.0697.37463-.10731.56029-.03872.19781-.07412.3912-.09071.57686.50667.14477.93148.50724 1.31426.89955.25887-.50613.80758-.73378 1.29434-.89955.42481.09283.89056.10388 1.24346.37242.6527.60117.33078 1.6245.26993 2.38923.58855.33042 1.24125.51829 1.84085.83766-.27988.25086-.65049.35253-.99233.4774l-.99344-.1978c-.11395-.08178-.31197-.08178-.3529-.22655-.33078.35031-.73457.81667-.94145 1.27086h14.18251c-.18696-.42436-.40379-.75478-.66266-1.1471-.29095-.62106-.17479-1.46977-.20687-2.13173l1.32532-2.0168c.7235-.00995 1.54326-.2796 2.32872-.14478.03983-.01768.07744-.03757.11395-.06078.32635-.22544.42592-.74925.91157-.68405.86843-.2365 1.5322.15692 2.1849.54923-.02212.05194-.04314.09725-.06637.13482-.27325.43652-.78435-.05083-1.15717.08068-.15599.16576.07301.36136.10288.54923.13497.18455-.13496.16356-.22678.1956-.21683.03095-.45469-.021-.62173-.1956-.04094-.05304-.00996-.11382-.09182-.12377-.18807.30832-.4569.58902-.5288.94044.23674.22876.55756.4553.67261.74594.23785.34148-.18696.59897-.26882.89955-.03098.06078-.12612.06078-.15599 0-.21904-.12377-.4038-.4354-.64275-.35363-.20798.92166.07191 1.8422-.052 2.76275.4038.09504.8795-.021 1.31427 0l.177-1.94497c.18475-1.26092.9326-2.3163 1.81209-3.27994.9503-.6487 1.56317.63322 2.26566 1.07747.11505.021.07412.14477.1239.2166-.00995.20776-.22678.28954-.3717.35253-.43588.1536-.7567-.32159-1.02553-.60118-.25776.2796-.37281.6509-.67262.86972l.10289.02984c.34405.34258.67262.70394.74784 1.15925-.04204.4122-.24891.81556-.62283 1.02442-.27768-.4774-.50668-1.00453-.69143-1.49078.00996.0221-.01217.03095-.03208.05305-.57084.1536-.7224.79456-.81754 1.31286.03097.50724-.3518.7139-.25002 1.22003h7.38331c.81754-.12377 1.68708-.10388 2.33868-.70506 2.7657.42547 5.57012-.25749 7.74396-1.777 1.14721-.92607 2.17826-1.9958 3.0113-3.1639.73456-1.02995 1.31536-1.9925 1.69039-3.14511.27878-.7128.50004-1.4521.66709-2.21352.78767-3.58052.37392-7.58872-.7921-11.00016z"/><path fill="#f60" d="M127.42978 41.23337c.40379-.2586 1.0565-.32158 1.14832-.92055-.16373-.12487-.30976-.2807-.49672-.32158l-.42481.12377c.03097-.24865.16594-.52713.25112-.79567l1.36515-.44425c-.18807.61996-.25887 1.39574-.32193 2.10964.1239 1.05537.2799 2.18257.81865 3.06112h-1.47135c-.16484-.97138-1.1815-1.67643-.86843-2.81248zm3.17945-1.24213h.08186l.99233.90066.14493-.03095c-.08076 1.05537-.13386 2.08975-.14493 3.1849h-1.0753c-.21904-1.02332-.5808-2.09969-.53876-3.20479.18586-.27959.30976-.63211.53987-.84982zm2.21366.99459c.19803-.25749.2799-.694.67262-.74373.27989.00773.53876.04973.74785.24754.36175.4542.00774 1.03548-.1239 1.48968-.14604.6929-.39606 1.41563-.62284 2.06764h-1.04544l.37171-3.06113zm15.70586-.32158c.2279.29064.2998.68295.64164.94154.30091-.4133.37282-1.05537.2279-1.5825l-.2998-.30059c.38387-.09172.78656-.12377 1.17044-.1956-.16594.54813-.47902 1.04432-.42481 1.68528.00995.9316.16483 1.8632.2478 2.83347h-1.13836c-.41375-.9106-.8286-1.7781-.79763-2.83347.1239-.18677.20688-.40447.37282-.54813z"/><path fill="#fff" d="M153.42625 20.79344c-.01106.26854-.20687.56692-.03208.79678.25113-.27959.66377-.26964.99565-.39342.92153-.08398 1.80103.20666 2.6595.41442-.21683-.34258-.36175-.72495-.60071-1.03438-.4768-.12487-1.20142.20666-1.28329-.4984-.28984-.24754-.74452-.07072-1.04543-.05083-.29095.20665-.5277.46525-.69364.76583zm-31.64293-8.93142c-.00442-.0022-.00885-.00663-.01548-.01105 0 .00442.0022.00663.0022.01105h.01328zm3.76468 9.19444l.62172-.59897c.0531 0 .09404.00995.1239.04973l-.05088 1.1482c.2998.2796.6704.37131 1.06424.39342.03208-.30943.26993-.52824.4049-.79678.11395-.2166.04204-.53708.26883-.69069l.07301.07073c.0708.34258.05089.72494.2279 1.02332.02101.16577.04978.37131.06969.51719.4569.021.87175-.10278 1.22244-.26965-.02102-.3923.11505-.71279.1748-1.07305.09513-.12487-.11396-.35363.14491-.34258.14603.31053.4038.6299.54982.96254.5996-.61001.85073-1.40568.99234-2.23451-.1748-.2365-.44362-.2365-.6527-.39231-1.759-.56802-4.0147-.68185-5.71284.1967-.11394.70064.03098 1.47642.47792 2.0367zm-16.45481 19.40776c-.06306.79678 0 1.54383.05089 2.33066.16594.2586.46795.55918.76775.57797l.0509-.52824c.1239-.73379-.26883-1.51288.14602-2.13395.28985.09172.5797.2376.8286.37131.1239-.68184-.0531-1.47972-.7058-1.89414l-1.13836 1.2764zm2.55772-1.11836c-.4038 1.2112-.7036 2.70197-.21683 3.97726.27988-.18787.56862-.36358.81643-.62107-.05089-.9736-.18586-2.01018.39384-2.8191.50667.15581.84962.64205 1.04432 1.11614.34406-.4332.4569-1.03437.32304-1.61123.02102-.45641-.49672-.35143-.74563-.53819.08186-.38347.0708-.8255.4757-1.04432l-1.24125.12377c-.32082.45641-.67262.89845-.84962 1.41674zm2.55772 3.5739c.052.09172 0 .25859.1051.27959.15377-.86972.85736-1.43221 1.24234-2.19915.18475-.25528.1759-.61996.4757-.81557.4027 0 .69364.28954 1.08748.32048.1239.09394-.06417.17682-.07412.2796-.08187.70505-.3507 1.28633-.2998 2.01127h.0719c.54872-.58017.92154-1.20455 1.32533-1.86651l.0708-.58791c.09514-.70395-.6704-1.15815-1.17045-1.44879l.44584-.57023-.62173-.2166c-.72462.07183-1.37732.37242-1.884.94265-.63058 1.15593-.73346 2.46437-.7744 3.87117zm2.7856-6.13773c.23675.07073.45469-.12377.69143-.0221.95362.35252 1.94706.7139 2.66171 1.50956l.84963 2.16269.4248-1.33607-.27988-.72163c-.23896-.51719-.89056-.4752-1.33639-.4962-.18585-.20775.00996-.44535.07302-.64095.21683-.73489-.68368-.694-1.04544-.99348.02102-.44315-.51774-.29065-.81864-.33043l-.10289-.12377c-.06195-.09504-.21683-.09504-.3009-.0221-.01881-.03094-.06085-.05194-.03983-.10278l-.22679.05084c-.32303.27959-.53986.64096-.54982 1.06642zm.5985-2.37928c.03209.13261.11395.26743.21684.35142.46685-.12377.91378-.44646 1.45033-.24865.69474.61002 1.41825 1.25098 2.25792 1.5814l.3009-.05083c.18475.06078.39163.07072.51553.27959.11506.27959-.17479.44314-.26661.6708.46464.34257.27989.95148.56863 1.3648l.74452-.99128c-.17368-.43541.01107-1.17914-.6704-1.22114-.2301-.11382-.38388-.34037-.37503-.59896-.44362-.40336-.99233-.57907-1.43706-.99349-.36507-.28843-.5808-.73268-1.04543-.83656-.32193-.17681-.67373-.26964-1.04544-.35031-.69585-.1061-.7578.72163-1.2147 1.04321zm.99566-2.0378l.1239.19891c.51774-.03204.98238-.25859 1.49016-.24975.34073.20665.78657.1956 1.13836.37242.2799.38347.5808.81556.99234 1.07416.83966.12377 1.3043 1.02663 1.59415 1.68638v-.31937c.1239-.44536-.01107-.96365-.1737-1.36701-.20797-.20666-.50999-.34037-.72571-.52493-.04204-.13482-.01106-.19891.03098-.32158-.32193-.34148-.79763-.52824-1.19147-.79788-.54871-.79678-1.603-.57686-2.44266-.79678l-.83635 1.04543zm-.0177-7.58652c.09182.32159.20355.72384.26661 1.06643.28874-.64096.86069-.9316 1.36736-1.45763-.29095-.1967-.6527-.29064-.97242-.35142v-.021c-.229.22544-.5808.4542-.66155.76362zm1.88067 3.40371l.46464-.4752c.46685-.4774.85184-1.02663.92153-1.63554-.33078-.1956-.76554-.06078-1.08526.05305-.11395.66969-.29095 1.33164-.3009 2.0577zm.34074 1.45873c.71465.03979 1.4094.18456 1.98909-.2188l.5808-1.861c-.18807-.01105-.37503-.09503-.54982-.03094-.38278.8465-1.14832 1.68528-2.02007 2.11074zm.2102-6.59855c.46573.68185 1.24345 1.44547 2.03887 1.66428-.09183-.86971-.83746-1.46978-1.22134-2.2124l-.02102-.24866c-.2998-.28953-.66266-.48734-.97352-.64095-.04979.49619.08518.97027.177 1.43773zm2.52342 6.68033c.54871.09283 1.13946 0 1.64614-.15582.73457-.17681 1.13947-.98243 1.38728-1.61234h-.92154l-.99233.97138c-.39273.20555-.76554.51609-1.11955.79678zm-.11174-7.62187c.15599.80782.49893 1.54161.96468 2.2345l.1228-1.5416-1.08748-.6929zm3.39407 4.02256c.06306-.51719-.15377-1.11836-.21462-1.64328-.31086-.20776-.74453-.18787-1.06645-.39231.02102.81445.66045 1.50846 1.28107 2.03559zm-.94145 5.25365c.6516-.20666 1.28329-.4343 1.8851-.76473.38278-.54924.96136-1.04432 1.04544-1.68528-.47902.13372-.89056-.0221-1.33639.1967-.26882.48515-.43587 1.03549-.9525 1.3858-.08297.34921-.46575.58792-.64165.8675zm1.01336 1.27197l.7766 1.01337c.41486.13372.9326.09394 1.29435-.14366l-.27767-.91944c-.54982.20444-1.20253.14476-1.79328.04973zm1.29434-7.3213l.2998 1.3637c.72462-.58791.87397-1.44657.85295-2.35607-.41375.4752-.65381.76473-1.15275.99238zm2.0411 2.40802c.00995.19781.06084.38347.17368.53819.80758.29064.89055 1.27086 1.6373 1.64328.48454.2188 1.04543-.05084 1.46802-.24865-.31971-.36137-.68146-.61001-.99233-.99127-.21683-.09283-.43698-.22765-.42481-.4962l-1.86187-.44535zm.64163 4.88344c.3507.40115.8264.61001 1.32311.72163-.08186-.11272.0531 0 .07302-.07073l-.62173-1.3659c-.31087.01105-.6328.07404-.92153.05304.02323.22765.07301.4542.14713.66196zm1.09743-6.3709c-.29095-.6719-.41043-1.49078-.49561-2.23341-.30865.37242-.63058.61112-.92153.99127-.13497.76473.96136.9515 1.41714 1.24214zm1.26116-.70506c.37503.48846 1.19147.3227 1.64725.17682-.21793-.37242-.91932-.59123-1.04322-.99128-.0708-.71389-.21683-1.409-.44583-2.0577-.36175.87746-.79984 1.92288-.1582 2.87216zm.6527 2.19252c1.03549.75478 2.05105 1.63444 3.49806 1.31286.104-.07073.281-.063.30091-.1956-.4248-.26854-.87949-.4774-1.31426-.72495l-.49561-.72273h-.2279c-.55977.18455-1.15938.2597-1.7612.33042zm.02103 8.38771h.07412c.62062-.49619 1.3552-.66306 2.08976-.8686.19802.07293.07301.29063.25002.37241.44472-.18455.98348-.14477 1.43816-.29948.54872.01989.99455.02984 1.43927.26743.35401.46635 1.01446.41331 1.47136.72495l-.07412-.72495c-.96136-1.1272-2.46258-1.20898-3.84986-1.18798l-.03097-.14477c-.33078 0-.7036.07073-1.01446.2166-.44362.021-.86954.2376-1.29435.37132-.19803.39341-.35401.87192-.49893 1.27307zm.83192-12.70975c.40269.52823 1.0034.9327 1.68708.79788-.3507-.34369-.7567-.70506-.77661-1.1902.10399-.92054-.91047-.99459-1.40719-1.46978.16594.62107.14382 1.31397.49672 1.8621zm-.1062 14.5398h.1239c.5476-.34037 1.34524-.08068 1.884-.44315.2998-.15582.32082.2586.52769.37242.50778.30832.57084 1.23992 1.2844 1.02332.85736.44425.64163 1.48857.67261 2.2533l.79763-.49508c-.07302-.40337.15598-.8896-.104-1.24103-.19691-.44425-.73567-.48514-.99454-.8465.31197-.52825-.39273-.778-.53876-1.16036l.04315-.05084 1.09743.14477c.37281.22655.50778.64096.62173 1.02443.85736.14477 1.06424 1.11615 1.36515 1.73611.177-.42325.24891-.87966.4248-1.29297.01107-.34147-.44472-.34147-.67261-.49619-.06085-.52823-.2998-1.02332-.76555-1.3427-.9525-.2409-1.78996-.76583-2.8354-.76583l-.86953.26744c-.47791.11493-.98459-.02984-1.34745.29948-.53986.042-.57969.63212-.71465 1.01338zm.5476-4.26016l.19803.09393c.42481-.1967.84852-.42436 1.29435-.59012.69142-.1956 1.23018.59012 1.81208.09282.21573-.1536.4038.07294.56753.19782.25223.4542.8297.42325 1.26558.54592-.21794-.58792-.48787-1.39464-1.24346-1.48857-.2998-.13372-.6527-.12267-.94144-.29949-.79763-.87855-1.31426.72495-2.18712.33264-.30865.33927-.69253.66195-.76554 1.11505z"/><path fill="#fff" d="M135.3607 38.73032c.33078.2796.67262.75589 1.19146.6929.64054.29948.37171 1.1482.7224 1.59355l.37282-.33153-.03098-.0221.052-.05083.02212.02873c.10289-.30832-.04203-.85645-.21904-1.22003-.23674-.16466-.51553.01105-.74453-.14477-.03097-.33263-.23785-.49619-.4757-.70174-.16594-.12598-.38387.03979-.57084.02873l-.31971.1271zm1.29435-12.60698c.34073.56802 1.0034.92055 1.5322 1.31286.43587.1967 1.0034.24865 1.47024.14366-.44583-.36137-.85073-.77578-1.22133-1.20898-.14603-.20776-.177-.46745-.37282-.652-.48676.09393-1.03658.08288-1.4083.40446zm.57084-3.70098c.4757.58902 1.21137.35142 1.884.37242v-.07294l-1.03549-.8686c-.28984.09172-.5996.35031-.84851.56912zm-19.059-9.75361l.5996 1.8621c-.01105-1.05538.47792-1.93614.37393-3.0103l.44362-.66306-.94255.29064c-.2478.4752-.45468.9515-.4746 1.52062zm.4038-3.2269l.81754-.47519V7.75547c-.34405.20666-.5288.56029-.79763.83656l-.01991.84983z"/><path fill="#fff" d="M135.36291 11.32384c-.19692.25749-.49672.32159-.74563.37131.43587-.79456.64275-1.90187.3009-2.80253.2268-.08178.4757-.12377.69254-.24754l-.02102-.0221.56973-.4962c.7556-.51718.46464-1.4985.74453-2.2334-.37171-.57797-.48566-1.28192-1.02442-1.76816l.03098-.021c-.42481-.53818-1.19036-.47519-1.77005-.74373-.76776-.2586-1.3574.26854-1.90722.61996-.23785.042-.09183.35142-.3507.34037-.14492.38237-.32192.79678-.42591 1.22114-1.02442-.14477-2.1318-.03094-2.94935.54813-.43698-.32159-.96246-.38237-1.47024-.52714-.37282-.07404-.79652.06079-1.06535-.14587-.39273-.44314-.47791-1.25097-1.15164-1.3637-.23785-.08398-.28763-.34257-.28763-.57022-.44583-.07404-.84077-.2796-1.27333-.37242-.66266-.30059-1.19036.17681-1.68707.49619-.21905.09172-.46685.12377-.67373.24754-.3717.58018-.7224 1.1692-.96357 1.81015.07412.52714.3009.99128.57084 1.43774.23785.6719.98348 1.20014 1.61406 1.46978-.2998 1.02332-.2998 2.24225 0 3.27662 0 0-.01659.01437-.01659.01105 0 .00332-.03319.03095-.03319.03095-.09735 0-.20577.01878-.28653-.03095h-.01327c.14824.98796.61288 1.85436 1.36515 2.59588.26993.09283.20687.41442.31971.61997.07302.09393.08408.28953.0531.37241-1.61627-.05083-3.05554.35253-4.34989 1.08632-.33078.16576-.18585.61996-.21683.94154.91158-.60117 1.89395-1.04432 2.98143-1.24213.46574-.02873.99233-.14477 1.43927-.021l.05089.89182c-1.23019.64206-2.57764 1.01338-3.63192 2.06875.01991.31937-.04204.69068.05089.96033l.94365-.76473c.91047-.694 1.86298-1.28302 2.9073-1.66539.281.33043.57085.68406.94366.8896.63058-.40446 1.31537-.70394 2.03998-.8896.38278-.22765.99455-.021 1.24236-.47519l.17479-.94154c-.02876-.021-.05089-.063-.10288-.05305-.48566-.27959-.80759-.76473-.76555-1.33275-.16594.08178-.3507.13482-.54872.14256-.16372-.03979-.32082-.08178-.39272-.24865-.00996-.20555-.11506-.51608.09403-.66969.67151-.41441 1.54215-.43541 2.39067-.37352.63058.08398 1.54215.05194 1.7612.79677-.03098.2177-.01106.4564-.229.60007-.2279.12377-.48566-.01105-.69364-.10498-.16484.50834-.44472 1.07637-1.01335 1.24213l.0708.59896c.0708.26965.09293.7139.51774.61997.98348.2398 1.85412.74594 2.7126 1.29296.29095-.28843.51774-.61996.7235-.92055 1.53441.5194 2.85753 1.6665 4.12311 2.73292l.04978-.86972c-1.20142-1.06642-2.5356-1.8201-3.92397-2.40912.0531-.27959.11505-.54923.12611-.84982 1.64504.09394 3.20822.60118 4.5634 1.39574l-.02101-.74373c-1.4282-.76583-2.99138-1.27197-4.69837-1.29186-.06417-.09283-.08408-.22765-.07302-.32048.8286-.13372 1.41715-.99127 1.61517-1.73832.42592-.48514 1.03659-1.01338.89166-1.73611.0177-.06078.03872-.12377.06085-.18677.0542-.17792.10067-.368.04093-.53597z"/><path fill="#fff" d="M136.80108 13.98271l.84851-.26964.09514-.47409c.23785-.694-.26993-1.21119-.51884-1.75932l-.42481 2.50305zm2.14286 3.27662c.4038.44536.79763 1.15815 1.51228.94155-.0531-.30059-.21904-.54924-.32082-.81778-.18585-.2166-.25002-.83766-.62173-.61996-.27988-.18565-.35069-.49619-.5288-.74483-.08076.38347-.02987.85866-.04093 1.24102zm.14492 3.03019c.15599.2166.19913.4973.3518.694.27989.18455.69474.1536 1.03769.12377.30865-.07293.50668.26744.79542.07183-.36176-.22765-.57859-.64095-.91932-.94265-.4049-.31827-.83967-.03868-1.26559.05305zm.54982 4.8105c.71466.42325 1.62181.83766 2.57542.6929.10289-.05084.2799-.0409.2998-.16466-.59075-.20776-1.21026-.79678-1.82978-.92055-.34184-.52714-.78767.13482-1.22244.09283.00996.12266.13386.21549.177.29948zm2.1495 9.13144l.156.33042c.15708 1.07637.83745 2.06765.46574 3.24679.31086.2188.40379.58018.60181.86971h.0509c.23784-.89844.073-1.83004-.0509-2.7307.09293-.81667-.73678-1.29186-1.22354-1.71622zm.17922-10.59017c.53766.4144 1.39723.4542 2.01786.24864-.39273-.2166-.8275-.4564-1.14943-.74483l-.86843.49619zm2.55551 3.17384c-.05089.43541.23785.79678.54872 1.01559.11394-.25749.2987-.4774.31971-.76583-.09293-.44425-.34184-.84872-.74563-1.1493-.0708.28953-.15488.56912-.1228.89954zm.03098 4.71768c-.07412.48513.46463.54812.69142.81666.18696.22765-.1239.38347-.1239.60007.39383.50614.62283 1.083.62283 1.75711.15378-.6299.39163-1.22997.4757-1.88088-.04203-.4564-.76554-.36137-.6527-.8686.20798-.5172-.04093-1.02333-.1759-1.49079-.03983-.07072-.13497-.2166-.21572-.1735-.18807.42215-.65271.72274-.62173 1.23993zm1.41825-2.46217l.53765 1.04432c.23785-.03094.39273-.2586.57858-.42436.14493-.4343-.23895-.7139-.35069-1.06642-.09403-.24865 0-.57797-.177-.79457-.13497-.08398-.28874-.2188-.44362-.17681l-.14492 1.41784zm.69142-2.7517c.42592.2586.91158.62991 1.14058 1.08632.36175 1.05537.94144 2.00465 1.36515 3.02908.15598.71389.27988 1.35153.4757 2.05327.07412.18676.03208.54813.32303.51719.08076-.78573.23674-1.54162.2478-2.35829-.25886-.34147-.5996-.48513-.92152-.69179v-.07293c.04203-.17461.18806-.38347.40379-.35032.09182-.10388.37281-.20665.24891-.39342-.53876-.53708-.50778-1.46204-1.36515-1.62891-.3009-.12378-.37281-.43541-.4038-.72274-.40489-.34369-1.0045-.4564-1.51449-.46746zm.50004 5.60618c.52659.48513.34184 1.18908.2998 1.8411-.08186.3934.41375.16355.56974.37241.32192.4752.13496 1.1692.02212 1.68528.2799-.42547.5996-.79678.81644-1.26313-.00885-.1746.21793-.2586.20798-.4763.09182-.29948-.25887-.16466-.4049-.1956-.1239-.03094-.25776-.11383-.21573-.2796.26662-.51718.01992-1.13714-.08407-1.65433-.1239-.42436.0531-.99348-.14603-1.3659-.33189.45751-1.31648.56029-1.06535 1.33607zm.96136-7.34229c.92264.9316 1.59525 1.86651 2.5887 2.76717.02101-.40447-.03098-.77578-.0509-1.1692-.14492-.27958-.41485-.48513-.64385-.694-.73457-.07072-1.11734-1.05979-1.89395-.90397zm2.41058 4.92764c.02213.09504.06417.17682.1062.26854.4027.66306.78657 1.34601 1.06646 2.0588-.08408-.76583.43366-1.71622-.25113-2.30634-.09182-.24975-.40047-.16577-.5996-.14587l-.32193.12487zm2.48581 7.55447c.28985.13482.66266-.10278.94255-.26854.25887-.06189.4757.08398.67373.2177.08186.16466 0 .32048.03097.4763.62063.1746 1.23019.40336 1.7789.76473l.1748-.17571c.04203-.44425-.30866-.76584-.64165-1.01448-.21572-.12378-.53876-.05084-.69253-.24755.104-.16576.104-.4144.09293-.60007-.34184 0-.55978-.10498-.83746-.26854-.177-.05194-.33299-.1978-.4779 0-.51664.35032-.54762.86861-1.04434 1.11616zm.72683-13.01366c.25776-.07404.5277-.14588.74453-.33264.69474-.631 1.69814-.20665 2.50683-.2166-.15599-.27959-.37503-.55918-.57084-.79677-.29096-.11383-.55978-.24755-.89056-.24755-.7047-.4144-1.1793.2796-1.71916.61996-.14603.2796-.21683.6929-.0708.9736zm.0177 2.12953c0-.03205 0-.0641.03098-.07184.09514.08178-.00996.2807.14602.32048.26883-.13482.51774-.32048.76555-.49619.69364 0 1.1085-.673 1.78996-.673 1.14058.20776 2.26898.43651 3.26131.99238-.0708-.6697-.6527-1.28192-1.24124-1.5814-.333-.11383-.59186.06188-.8286.24865-.69254.4354-.33078-.63102-.81644-.65201-.6328.1956-1.2855.41441-1.9891.35031-.41374.15693-.7047.53819-1.17044.4962-.0188.34368-.0697.7581.052 1.06642zm.47791 2.30523c.21683.22987.57859.18787.89056.22987l.90051-.35364c.00996-.16245-.26883-.20665-.20687-.3923.2489-.2796.58854-.08178.9005-.19561.43367-.063.8795-.49508 1.31427-.17682-.01328.05305.0188.12378-.02213.17682-.13386.32048.09293.51719.34184.64096.50779.09283.98238.55918 1.49016.35031-.05089-.42435-.16373-.81445-.26772-1.22003-.4248-.07183-.72572-.42325-1.11845-.56912-.17479.16576-.4049.28953-.62173.26854-.79762-.18676-1.75124-.68295-2.55772-.17571-.28984.35252-.80758.24864-1.20142.40336.02324.35142.06417.694.1582 1.01337zm.34184 6.14878c-.06195.17571-.23785.46414.08408.54813.66156.0199 1.51118-.32158 2.02892.1956.1759.13483.09182.41442.08076.59013l.86953.72384c.08297-.43652.24007-.82883.25113-1.29408-.07302-.33153-.23896-.6509-.5288-.8675-.57084 0-.90052-.66637-1.5134-.5846-.31971-.07072-.5996.21329-.92153.21329-.1427.14366-.22678.32048-.35069.4752zm.24781-4.8768c.13386.27958.29095.73489.54871.76472.61067-.26633 1.50233-.4332 2.1849-.14255.2268.03978.2268.29837.17701.46414.3507.20665.7755.37242 1.14832.59896l-.10399-.62106c-.02102-.6719-.86843-.73269-.92153-1.39575-.69364-.22654-1.47025-.30058-2.20482-.12377-.23785.2166-.5808.18787-.86843.24865-.02102.08288.02877.13593.03983.20665zm.1759 3.35176c.40379-.11493.66377-.55807 1.09853-.60007.66156.01105 1.25231.2807 1.66717.85093.2478.16245.19581.5868.51774.5868-.09514-.50613.0708-.97027.04978-1.48967-.43256-.72273-1.51007-.16355-1.91386-1.01337l-.76555.05194c-.54982.13592-.4038.77688-.4757 1.2123-.06306.1326-.18696.23648-.17811.40114zm3.80118 4.52428c.31971.64096 1.02552 1.1272 1.09632 1.861.16484-.19561.27989-.42326.39273-.64097-.01106-.20665-.24891-.20665-.34073-.37242-.09515-.26854.04978-.50613.09182-.74483-.13497-.38237-.4569-.74374-.81754-.9725l-.4226.86972zm1.27332-1.63444l.74453 1.01448c.31972-.50613.31972-1.25208.19581-1.8621-.0708-.11492-.20687-.30058-.39162-.2166-.27989.28844-.32193.7338-.54872 1.06422zm-3.03452-28.30824c.26882.13482.5277.2586.85073.27959.21572-.11383.49672-.19781.76554-.12377.38278.24864.84852-.05194 1.29435-.03095-.39383-.37241-.84077-.60117-1.29435-.81777-.5808.12267-1.04543.53708-1.61627.6929zm4.04788.97028c.54871.05194.94365.53818 1.31426.94154.46574.07073.81754.40336 1.09632.74373l-.17368-.54702c-.1239-.54924-.46796-.9736-.81865-1.4079-.49672.03205-.9846.07515-1.41825.26965z"/><path fill="#f60" d="M122.46258 4.12632l.3009.03205c.80538.40336 2.10968.61002 2.18491 1.7781-.81975.3216-1.60632.7548-2.25902 1.41675-.49562-.50614-1.50012-.22765-1.66717-1.11615.1571-.83988.4558-1.89525 1.44038-2.11074zm.77772 5.24481c.94255-.08399 1.85301.04973 2.82654-.03205.23674.10278.48455.30832.5996.54703-.03208 1.11725-.37281 2.18367-.4237 3.33077-.42481.1746-.83967.52824-.94366.99238-.38277.11382-.72572.34037-1.09853.51608-.16263-.35032-.13386-.87856.15709-1.1692.4038-.56802 1.45033-.4354 1.36736-1.33496.26883-.4332.01106-.99238.0188-1.44657-.10288-.34258-.20687.11382-.3717.10277-.33078.07073-.67151.09172-.96247-.07404-.21793-.22765-.48455-.41441-.54871-.72274-.29095-.14476-.63058-.37131-.77661-.6719l.15599-.03757zm1.13836 6.74c.44251.0641.91047-.13482 1.29324.084-.08076.14587-.2998.20665-.4757.24864l-.69475.31937c-.25776-.06078-.11284-.47519-.1228-.652zm1.81098-8.63414c.44362-.14477.92153-.44315 1.39723-.30059-.34073.34258-.60956.78573-.86843 1.20014l-1.41825-.03094c.15598-.37353.54871-.68185.88945-.86861zm4.15187-.34037c.58964-.10278.55756.66195 1.09632.69068.09514.12378.2301.2376.177.42436-.31197.12377-.76665.0641-1.11844.14477-.46685-.2586-.16484-1.06531-.90052-1.01338-.04093-.06299-.1228-.18676-.02102-.22765.2279-.08177.52991-.05083.76666-.01878zm-.37282 2.76938c.25887-.36247.6527-.39231 1.02552-.46414l2.68162.04973c.11395.10498-.10399.1978-.10399.32158-.16483.15582-.40379.19781-.54871.34148-.3518.00994-.32082.42435-.56863.60117-.38388.38236-.94366.20555-1.38838.14477-.15488-.11493-.33078-.26965-.4049-.44536l-.1239.12377c.15598.58018.11505 1.22114.2301 1.81016l.64165.42436c.00995.95038 1.1284.69179 1.61406 1.22003-.11395.34258-.34184.631-.58965.92054-.39273-.38236-.83966-.6299-1.31426-.79677-.04204-.55587-.6527-.8885-.99233-1.16699-.09514-1.01448-.11505-2.04885-.27989-3.03129l.12169-.05304zm.97353 6.38195h1.24346l-.15599.6509-1.24456-.52713c-.02877-.10277.08407-.13372.15709-.12377zM133.178 4.57168l.92153-.28954c.5288.24755 1.02442.55697 1.51118.9095.38277.70285.32193 1.65434.14492 2.44006-.27989.30943-.89055 0-1.11734.4962h-.04315c-.34073-.9714-1.31426-1.84221-2.21477-2.28425.14492-.4973.3009-.98354.79763-1.27197z"/></g></svg>