<svg id="Layer_1" data-name="Layer 1" xmlns="http://www.w3.org/2000/svg" viewBox="0 0 1669.66794 572"><defs><style>.cls-1{fill:#f25022;}.cls-2{fill:#80ba01;}.cls-3{fill:#777;}.cls-4{fill:#02a4ef;}.cls-5{fill:#ffb902;}</style></defs><title>Microsoft_interpretML</title><path class="cls-1" d="M13.33588,13.99225h166.5q-.015,83.25-.01,166.5h-166.49v-166.5Z"/><path class="cls-2" d="M196.83588,13.99225h166.5q0,83.25-.01,166.5-83.235-.015-166.48,0-.02994-83.25-.01-166.5Z"/><path class="cls-3" d="M1514.78583,77.43222c15.3501-9.99,35.18018-10.92,52.48023-6.16.1499,10.28.01977,20.57.06982,30.86005-8.22-3.62-17.89-5.98-26.54-2.43006-6.86,2.72-10.93994,9.76-12.01,16.8-1.28979,8.93-.44995,17.98-.66992,26.96,17.55994.04,35.12.01,52.67993.02.13-11.4-.14-22.81.15-34.21,11.94006-3.4,23.75012-7.21,35.63-10.79.1,15.02-.14,30.05.13,45.08,11.87-.17,23.75012-.04,35.63-.08v29.24c-11.92-.49-23.85-.13-35.77-.17.05005,16.81.01,33.62.02,50.44.18994,9.31-.5,18.67.59009,27.95.65991,5.47,2.6499,11.53,7.77991,14.36,8.59,4.81,19.49011,2.71,27.38-2.57v29.53c-10.29,4.47-21.79,5.83-32.92,5.04-10.55994-.78-21.50012-4.62-28.39-13.02-7.96-9.49-10.00988-22.34-10.16992-34.36-.08984-25.8.01-51.6-.04-77.41q-26.3551-.015-52.69995.01-.03,60.735-.01,121.47h-36.01q0-60.72006.02-121.43c-8.35-.16-16.71.04-25.06006-.13.03-9.61.07007-19.23-.02-28.85,8.31006-.19,16.63-.11,24.96-.05.61011-12.78-1.34-25.93,2.48011-38.38a49.11237,49.11237,0,0,1,20.30993-27.72Z"/><path class="cls-3" d="M743.80585,79.53226c7.26-1.1,15.12006,1.38,19.93006,7.06a20.52826,20.52826,0,0,1,2.5,23.39c-4.62,8.2-14.96,12.01-23.97,10.04-9.35-1.68-17.14-10.37-16.71991-20.06-.27008-10.2,8.25988-19.29,18.25988-20.43Z"/><path class="cls-3" d="M467.83588,83.99225h52.37q24.45,62.085,49.04,124.13c4.17,10.35,8.06994,20.82,12.43994,31.09,20.97009-51.72,42.24-103.31,63.05-155.1,16.79-.27,33.59-.06,50.39-.1q-.06,104.985-.01,209.97c-12.12-.03-24.23.1-36.34-.07.13006-51.65-.01-103.3.06-154.96.02-2.32-.06-4.64-.22-6.96a27.75476,27.75476,0,0,0-1.89,3.36c-20.81,52.87-42.02,105.59-62.71,158.51-8.62.31-17.24994.02-25.88.16-21.47-52.87-42.67-105.86-64.03-158.77-.56-1.1-1.16-2.17-1.81-3.2-.44,22.63-.07,45.28-.19,67.91q.015,47.01.01,94.02c-11.43.03-22.86,0-34.28.01q-.015-105,0-210Z"/><path class="cls-3" d="M842.90589,143.34224a98.57655,98.57655,0,0,1,53.49.16,43.16342,43.16342,0,0,1,10.27,4.28c-.19995,11.47,0,22.95-.11005,34.43-11.61-8.87-26.3399-14.49-41.1-12.63a42.28511,42.28511,0,0,0-29.91,16.61c-9.01,11.74-11.09,27.33-9.54,41.69,1.16,11.24,5.81,22.47,14.55,29.92,9.08008,8.07,21.81006,10.93,33.69,10.03,11.74011-1.35,22.82-6.32,32.31-13.26.1,10.87-.05,21.74.08008,32.61-14.72,8.76-32.37,11.02-49.22,10.19-17.23993-.91-34.42993-7.44-46.91-19.56-13.56-13.07-20.92-31.71-21.78992-50.38-.88007-19.41,3.06994-39.66,14.23993-55.87,9.36-13.83,24-23.62,39.95-28.22Z"/><path class="cls-3" d="M1236.25593,141.05223c16.6499-2.93,34.08-.78,49.84,5.19.02,11.04,0,22.07.01,33.1a63.45591,63.45591,0,0,0-37.82007-11.17c-6.73.26-14.13,3.11-17.19995,9.51-2.43994,6.33-.75,14.63,5.22,18.42,10.21009,6.83,22.39,9.73,32.97,15.85,8.33008,4.68,16.41,10.8,20.63,19.62,7.93005,16.52,4.57007,38.35-9.37,50.67-13.30993,12.44-32.48,15.88-50.11,15.22-12.52-.81-25.1-3.28-36.61-8.4.05005-11.61-.06994-23.21.06006-34.81a78.74939,78.74939,0,0,0,32.66992,14.1c8.23,1.34,17.18006,1.4,24.8501-2.28,7.34-3.65,8.65991-14.08,4.29993-20.46-4.08-4.92-10.07-7.63-15.72-10.29-10.61-4.77-21.76-8.76-31.08-15.91a37.25524,37.25524,0,0,1-13.45007-20.43c-2.88-11.97-1.98-25.46,4.98-35.92,7.95007-12.19,21.76-19.5,35.83008-22.01Z"/><path class="cls-3" d="M987.18586,145.79224c9.93994-5.97,22.57007-6.47,33.4201-2.82-.05017,12.01,0,24.02-.03009,36.03a38.27244,38.27244,0,0,0-24.34-5.72c-10.22,1.16-18.32,9.01-22.52,18.01-4.56,9.53-5.41992,20.31-5.13,30.73q0,35.985,0,71.97h-35.5q-.045-75.21-.03-150.43c11.85-.15,23.7-.09,35.55-.03-.05005,8.61,0,17.22-.03,25.84,3.85-9.37,9.58-18.47,18.61-23.58Z"/><path class="cls-3" d="M728.81586,143.53223c11.94-.05,23.89-.17,35.83.06-.14,50.13-.01,100.27-.06,150.4H728.83594q-.04514-75.225-.02008-150.46Z"/><path class="cls-4" d="M13.33588,197.48224q83.25.03,166.5.02.01493,83.25,0,166.49h-166.5v-166.51Z"/><path class="cls-5" d="M196.84589,197.50223q83.235-.03,166.49-.01v166.5h-166.5q.015-83.25.01-166.49Z"/><path class="cls-3" d="M1138.42585,146.83222c-16.03992-7.3-34.27-8.28-51.54993-6.08-18.15,2.29-35.82007,10.83-47.34009,25.30005-10.51989,12.92-15.63995,29.52-16.62,45.99-1.45,19.41,1.79,40.01,13.19006,56.21,9.71,13.98,25.04,23.59,41.6001,27.13a103.4153,103.4153,0,0,0,42.15991.04c16.18994-3.33,31.30994-12.29,41.34-25.51,9.80005-12.45,14.72-28.15,15.83-43.82,1.13-16.05-.49-32.67-7.15991-47.47A63.67981,63.67981,0,0,0,1138.42585,146.83222Zm-3.33,100.87a32.8949,32.8949,0,0,1-17.68994,17.38,48.55465,48.55465,0,0,1-29.3501,1.29,35.93907,35.93907,0,0,1-22.56982-18.61994c-5.80017-11.58-6.67017-24.97-5.47009-37.67,1.09-11.55,5.11-23.43,13.90991-31.4,6.38-5.96,15.0802-8.87,23.69006-9.35,10.82-.71,22.34,2.35,30.12012,10.22,8.31982,8.18,11.53979,20.05,12.42981,31.37C1140.80585,223.31226,1140.29584,236.22223,1135.09589,247.70221Z"/><path class="cls-3" d="M1427.33588,147.96222c-16.4-8.28-35.48-9.49-53.45-7.26-14.49,1.86005-28.7301,7.36005-39.79,17.07-13.5,11.63-21.41992,28.73-23.75,46.22-2.22,17.49-1.47,35.91,5.66,52.28a66.7348,66.7348,0,0,0,36.58,35.49c16.03,6.31,33.85,7.02,50.72,4.29,17.25-2.85,33.59009-11.92,44.27-25.88,11.41-14.42,16.32007-33.08,16.29-51.26.25-12.17-1.27-24.51-5.6-35.94A64.25373,64.25373,0,0,0,1427.33588,147.96222Zm-1.55005,86.03c-1.37988,7.92-4.12011,15.81995-9.30993,22.09-5.23,6.3-13.01,10.14-21.04,11.32-8.62,1.29-17.69983.67-25.75989-2.8-8.70007-3.68-15.44019-11.21-18.99-19.87-4.27014-10.32-5.12012-21.75-4.27014-32.79.82007-10.69,3.85-21.66,10.91-29.97,6.44007-7.76,16.32007-12.05,26.28-12.61,10.16992-.71,21.03,1.63995,28.85,8.51,7.21008,5.98,11.20007,14.94,13.0299,23.96A91.43729,91.43729,0,0,1,1425.78583,233.99225Z"/><path d="M442.69184,521.24421H419.88666V411.39264h22.80518Zm85.25439-76.5752q7.97682,6.59472,7.97754,21.873v54.70215H514.16205V471.83307q0-6.40869-1.70117-9.83691-3.10912-6.26074-11.83691-6.26074-10.72779,0-14.72217,9.167A31.699,31.699,0,0,0,483.83,477.2735v43.97071H462.59028v-81.084h20.56933v11.84961a35.97784,35.97784,0,0,1,7.71778-9.01758q6.52953-4.91894,16.5498-4.91894Q519.96845,438.07331,527.94623,444.669Zm19.37989,11.21582V440.75592h11.32812V418.09967h21.01612v22.65625h13.1914v15.12891h-13.1914v42.92676q0,4.99365,1.26709,6.22363,1.26635,1.229,7.751,1.22949.96753,0,2.04932-.03711,1.07958-.03661,2.124-.1123v15.874l-10.061.37305q-15.05493.52-20.56934-5.2168-3.57716-3.65039-3.57715-11.2539V455.88483Zm112.1084-14.22852a33.03945,33.03945,0,0,1,14.03808,12.01758,39.93055,39.93055,0,0,1,6.47217,16.794,103.84227,103.84227,0,0,1,.69971,16.12207H621.47993q.49439,12.22266,8.49511,17.14062A21.56881,21.56881,0,0,0,641.686,506.7862q7.25757,0,11.79346-3.72657a17.85347,17.85347,0,0,0,4.37158-5.58886h21.68457q-.85694,7.229-7.874,14.68164Q660.74628,524.00153,641.1,524.002a44.28071,44.28071,0,0,1-28.61328-9.99512q-12.39624-9.99463-12.39551-32.52246,0-21.10694,11.19043-32.37109,11.18922-11.26319,29.04883-11.26368A46.25414,46.25414,0,0,1,659.43452,441.65631ZM627.6601,460.005q-4.50366,4.64063-5.6582,12.57422h36.59228q-.58008-8.458-5.6582-12.83692a18.61541,18.61541,0,0,0-12.59717-4.3789Q632.16059,455.36335,627.6601,460.005Zm108.85108-21.89453q.40869.03809,1.82568.11132v21.76172q-2.012-.22264-3.57715-.29785-1.56519-.07325-2.53369-.07422-12.81958,0-17.21582,8.34668-2.45948,4.69484-2.45947,14.458v38.82813H691.16205v-81.2334h20.271V454.171q4.919-8.12256,8.57031-11.10449,5.96191-4.99218,15.50147-4.99316Q736.101,438.07331,736.51118,438.11042Zm82.58544,10.62011q9.9375,10.50733,9.9375,30.85352,0,21.46436-9.71289,32.7168-9.71484,11.2544-25.01562,11.2539-9.75292,0-16.20215-4.84472a31.27607,31.27607,0,0,1-6.90088-7.8252v42.331H750.18647V440.01081h20.34521v11.999a34.19109,34.19109,0,0,1,7.35059-8.34766,27.125,27.125,0,0,1,16.95068-5.44043A32.12505,32.12505,0,0,1,819.09662,448.73053Zm-16.30273,15.27735q-4.33008-7.22754-14.041-7.22852-11.6704,0-16.03662,10.95508-2.26024,5.8125-2.25879,14.75586,0,14.16064,7.59815,19.89844a17.43615,17.43615,0,0,0,10.69336,3.35449q8.96191,0,13.668-6.85645,4.70508-6.85693,4.707-18.25976A31.71448,31.71448,0,0,0,802.79389,464.00788Zm86.3457-25.89746q.40869.03809,1.82618.11132v21.76172q-2.0127-.22264-3.57715-.29785-1.56445-.07325-2.53418-.07422-12.81885,0-17.21485,8.34668-2.45946,4.69484-2.46,14.458v38.82813H843.791v-81.2334h20.27149V454.171q4.91748-8.12256,8.57031-11.10449,5.96045-4.99218,15.501-4.99316Q888.72994,438.07331,889.13959,438.11042Zm67.207,3.54589a33.03979,33.03979,0,0,1,14.03711,12.01758,39.91815,39.91815,0,0,1,6.47266,16.794,103.79254,103.79254,0,0,1,.69922,16.12207H918.39155q.4951,12.22266,8.49511,17.14062a21.56881,21.56881,0,0,0,11.71094,3.05567q7.25683,0,11.79395-3.72657a17.85961,17.85961,0,0,0,4.37109-5.58886h21.68457q-.85694,7.229-7.874,14.68164-10.91455,11.84911-30.56153,11.84961a44.2826,44.2826,0,0,1-28.61328-9.99512q-12.397-9.99463-12.39551-32.52246,0-21.10694,11.19043-32.37109,11.19-11.26319,29.04883-11.26368A46.25964,46.25964,0,0,1,956.34662,441.65631ZM924.57123,460.005q-4.50293,4.64063-5.6582,12.57422H955.5058q-.58006-8.458-5.6582-12.83692a18.61757,18.61757,0,0,0-12.59765-4.3789Q929.07173,455.36335,924.57123,460.005Zm55.37891-4.12012V440.75592h11.32715V418.09967h21.0166v22.65625h13.19141v15.12891h-13.19141v42.92676q0,4.99365,1.26758,6.22363,1.26563,1.229,7.75,1.22949.96827,0,2.0498-.03711,1.07959-.03661,2.124-.1123v15.874l-10.06153.37305q-15.05419.52-20.56836-5.2168-3.57861-3.65039-3.57812-11.2539V455.88483Zm133.76074-44.49219h33.02832V521.24421h-21.38867V446.94147q0-3.20361.07422-8.98047.07325-5.77442.0752-8.90527l-20.81739,92.18848H1082.373l-20.668-92.18848q0,3.13036.0752,8.90527.07325,5.77734.07422,8.98047v74.30274h-21.38867V411.39264h33.40136l19.9961,86.376Zm54.26856,0h22.9541v90.10254h54.85156v19.749h-77.80566Z"/></svg>