<?xml version="1.0" encoding="UTF-8"?>
<svg id="Logos" xmlns="http://www.w3.org/2000/svg" viewBox="0 0 274.2216697 65.0001209">
  <defs>
    <style>
      .cls-1 {
        fill: #0061ff;
      }

      .cls-2 {
        fill: #ff1b6b;
      }
    </style>
  </defs>
  <g>
    <g>
      <path class="cls-1" d="M100.5588518,8.3694621V28.5481731h-3.0449219V8.3694621h3.0449219Z"/>
      <path class="cls-1" d="M107.4250628,19.561845v8.9863281h-2.9462891V13.4134075h2.8276367v2.4638672h.1875c.3481445-.8017578,.8950195-1.4453125,1.640625-1.9316406,.7451172-.4853516,1.6860352-.7285156,2.8227539-.7285156,1.03125,0,1.9345703,.2148438,2.7094727,.6455078,.7749023,.4296875,1.3759766,1.0683594,1.8032227,1.9160156,.4267578,.8476562,.640625,1.8955078,.640625,3.1435547v9.6259766h-2.9462891v-9.2714844c0-1.0966797-.2856445-1.9560547-.8574219-2.5771484-.5712891-.6201172-1.3564453-.9306641-2.3544922-.9306641-.6835938,0-1.2895508,.1474609-1.8178711,.4433594-.5288086,.2958984-.9462891,.7275391-1.2514648,1.2958984-.3056641,.5683594-.4580078,1.2529297-.4580078,2.0537109Z"/>
      <path class="cls-1" d="M127.8381487,13.4134075v2.3652344h-8.2666016v-2.3652344h8.2666016Zm-6.0498047-3.625h2.9462891v14.3164062c0,.5712891,.0854492,1,.2563477,1.2851562,.1704102,.2861328,.3920898,.4794922,.6650391,.5820312,.2724609,.1015625,.5698242,.1523438,.8916016,.1523438,.2363281,0,.4433594-.0166016,.6206055-.0488281,.1772461-.0332031,.3154297-.0595703,.4140625-.0791016l.5317383,2.4335938c-.1708984,.0654297-.4135742,.1328125-.7290039,.2021484-.3154297,.0683594-.7094727,.1064453-1.1821289,.1132812-.7753906,.0126953-1.4980469-.125-2.1679688-.4140625s-1.2119141-.7353516-1.6254883-1.3398438c-.4140625-.6044922-.6210938-1.3632812-.6210938-2.2763672V9.7884075Z"/>
      <path class="cls-1" d="M137.1775042,28.8538371c-1.4912109,0-2.7739258-.3203125-3.8476562-.9609375-1.0742188-.640625-1.9018555-1.5439453-2.4833984-2.7099609-.5810547-1.1650391-.871582-2.5332031-.871582-4.1035156,0-1.5498047,.2905273-2.9160156,.871582-4.0986328,.581543-1.1826172,1.3959961-2.1054688,2.4438477-2.7685547,1.0473633-.6640625,2.2744141-.9951172,3.6801758-.9951172,.8535156,0,1.6811523,.140625,2.4829102,.4238281,.8012695,.2822266,1.5205078,.7255859,2.1577148,1.3300781s1.1396484,1.3876953,1.5073242,2.3496094c.3681641,.9619141,.5522461,2.1298828,.5522461,3.5029297v1.0439453h-12.0307617v-2.2070312h9.1435547c0-.7744141-.1577148-1.4628906-.4731445-2.0644531-.3149414-.6005859-.7568359-1.0751953-1.3251953-1.4228516-.5678711-.3486328-1.2329102-.5224609-1.9951172-.5224609-.8276367,0-1.5483398,.2021484-2.1625977,.6054688-.6142578,.4042969-1.0874023,.9296875-1.4189453,1.5771484-.331543,.6464844-.4975586,1.3476562-.4975586,2.1035156v1.7236328c0,1.0117188,.1787109,1.8720703,.5371094,2.5820312,.3579102,.7089844,.8583984,1.25,1.5024414,1.6210938,.6435547,.3710938,1.3959961,.5566406,2.2563477,.5566406,.5581055,0,1.0673828-.0810547,1.5273438-.2421875,.4594727-.1601562,.8569336-.4013672,1.1918945-.7236328,.3354492-.3222656,.5913086-.7197266,.7685547-1.1923828l2.7885742,.5029297c-.2231445,.8212891-.6225586,1.5380859-1.1972656,2.1523438s-1.2939453,1.0908203-2.1577148,1.4287109c-.8637695,.3388672-1.847168,.5078125-2.9506836,.5078125Z"/>
      <path class="cls-1" d="M146.6740862,28.5481731V13.4134075h2.8476562v2.4042969h.1577148c.2758789-.8144531,.7631836-1.4560547,1.4628906-1.9257812s1.4926758-.7050781,2.3793945-.7050781c.184082,0,.4023438,.0068359,.6552734,.0205078,.2529297,.0126953,.4516602,.0292969,.5961914,.0488281v2.8183594c-.1181641-.0332031-.3286133-.0712891-.6303711-.1132812-.3022461-.0429688-.6044922-.0644531-.9067383-.0644531-.6962891,0-1.3154297,.1464844-1.8574219,.4384766-.5415039,.2919922-.9702148,.6962891-1.2856445,1.2119141s-.4726562,1.1015625-.4726562,1.7587891v9.2421875h-2.9462891Z"/>
      <path class="cls-1" d="M168.3982073,17.10872l-2.6699219,.4726562c-.1118164-.3408203-.2875977-.6660156-.5273438-.9755859-.2397461-.3085938-.5634766-.5615234-.9707031-.7578125-.4072266-.1972656-.9160156-.2958984-1.5268555-.2958984-.8344727,0-1.5307617,.1855469-2.0888672,.5566406-.5585938,.3710938-.8378906,.8486328-.8378906,1.4335938,0,.5058594,.1875,.9130859,.5620117,1.2216797,.3740234,.3085938,.9785156,.5615234,1.8129883,.7587891l2.4038086,.5517578c1.3925781,.3222656,2.4306641,.8173828,3.1137695,1.4882812,.6831055,.6699219,1.0244141,1.5400391,1.0244141,2.6103516,0,.90625-.2607422,1.7128906-.7832031,2.4189453-.5219727,.7060547-1.2480469,1.2597656-2.1772461,1.6601562-.9296875,.4013672-2.0053711,.6015625-3.2270508,.6015625-1.6948242,0-3.0776367-.3632812-4.1479492-1.0888672-1.0708008-.7255859-1.7280273-1.7587891-1.9707031-3.0986328l2.8476562-.4335938c.1772461,.7421875,.5415039,1.3017578,1.0932617,1.6796875s1.2714844,.5664062,2.1582031,.5664062c.965332,0,1.7373047-.2021484,2.3154297-.6054688,.5776367-.4042969,.8666992-.8984375,.8666992-1.4833984,0-.4726562-.1757812-.8701172-.5268555-1.1923828-.3515625-.3212891-.8886719-.5644531-1.6108398-.7285156l-2.5620117-.5615234c-1.4121094-.3222656-2.4550781-.8339844-3.128418-1.5371094s-1.0097656-1.5927734-1.0097656-2.6708984c0-.8925781,.2495117-1.6748047,.7485352-2.3447266,.4995117-.6699219,1.1889648-1.1933594,2.0693359-1.5712891s1.8886719-.5664062,3.0249023-.5664062c1.6357422,0,2.9228516,.3525391,3.8623047,1.0585938s1.5600586,1.6503906,1.8623047,2.8330078Z"/>
      <path class="cls-1" d="M178.1711565,28.8538371c-1.4912109,0-2.7739258-.3203125-3.8476562-.9609375-1.0742188-.640625-1.9018555-1.5439453-2.4833984-2.7099609-.5810547-1.1650391-.871582-2.5332031-.871582-4.1035156,0-1.5498047,.2905273-2.9160156,.871582-4.0986328,.581543-1.1826172,1.3959961-2.1054688,2.4438477-2.7685547,1.0473633-.6640625,2.2744141-.9951172,3.6801758-.9951172,.8535156,0,1.6811523,.140625,2.4829102,.4238281,.8012695,.2822266,1.5205078,.7255859,2.1577148,1.3300781s1.1396484,1.3876953,1.5073242,2.3496094c.3681641,.9619141,.5522461,2.1298828,.5522461,3.5029297v1.0439453h-12.0307617v-2.2070312h9.1435547c0-.7744141-.1577148-1.4628906-.4731445-2.0644531-.3149414-.6005859-.7568359-1.0751953-1.3251953-1.4228516-.5678711-.3486328-1.2329102-.5224609-1.9951172-.5224609-.8276367,0-1.5483398,.2021484-2.1625977,.6054688-.6142578,.4042969-1.0874023,.9296875-1.4189453,1.5771484-.331543,.6464844-.4975586,1.3476562-.4975586,2.1035156v1.7236328c0,1.0117188,.1787109,1.8720703,.5371094,2.5820312,.3579102,.7089844,.8583984,1.25,1.5024414,1.6210938,.6435547,.3710938,1.3959961,.5566406,2.2563477,.5566406,.5581055,0,1.0673828-.0810547,1.5273438-.2421875,.4594727-.1601562,.8569336-.4013672,1.1918945-.7236328,.3354492-.3222656,.5913086-.7197266,.7685547-1.1923828l2.7885742,.5029297c-.2231445,.8212891-.6225586,1.5380859-1.1972656,2.1523438s-1.2939453,1.0908203-2.1577148,1.4287109c-.8637695,.3388672-1.847168,.5078125-2.9506836,.5078125Z"/>
      <path class="cls-1" d="M194.0422503,28.8538371c-1.4648438,0-2.7246094-.3339844-3.7788086-1-1.0541992-.6669922-1.8637695-1.5878906-2.4287109-2.7636719s-.847168-2.5224609-.847168-4.0400391c0-1.5371094,.2885742-2.8955078,.8666992-4.0742188s1.3925781-2.1005859,2.4438477-2.7636719c1.0507812-.6640625,2.2890625-.9951172,3.7143555-.9951172,1.1494141,0,2.1743164,.2119141,3.0742188,.6347656,.8999023,.4238281,1.6274414,1.0166016,2.1826172,1.7792969,.5546875,.7617188,.8847656,1.6513672,.9902344,2.6699219h-2.8671875c-.1577148-.7099609-.5175781-1.3203125-1.0791016-1.8330078-.5615234-.5117188-1.3120117-.7685547-2.2514648-.7685547-.8212891,0-1.5385742,.2158203-2.152832,.6455078-.6142578,.4306641-1.0922852,1.0410156-1.4335938,1.8330078-.3417969,.7910156-.512207,1.7255859-.512207,2.8027344,0,1.1035156,.1674805,2.0566406,.5024414,2.8574219,.3349609,.8017578,.8095703,1.4228516,1.4238281,1.8623047,.6137695,.4404297,1.3383789,.6601562,2.1723633,.6601562,.5581055,0,1.065918-.1035156,1.5224609-.3105469s.8408203-.5039062,1.152832-.8916016,.5302734-.8535156,.6552734-1.3994141h2.8671875c-.1054688,.9794922-.4238281,1.8525391-.9560547,2.6210938-.5317383,.7685547-1.2431641,1.3730469-2.1328125,1.8134766-.8901367,.4394531-1.9331055,.6601562-3.128418,.6601562Z"/>
      <path class="cls-1" d="M210.2092425,13.4134075v2.3652344h-8.2666016v-2.3652344h8.2666016Zm-6.0498047-3.625h2.9462891v14.3164062c0,.5712891,.0854492,1,.2563477,1.2851562,.1704102,.2861328,.3920898,.4794922,.6650391,.5820312,.2724609,.1015625,.5698242,.1523438,.8916016,.1523438,.2363281,0,.4433594-.0166016,.6206055-.0488281,.1772461-.0332031,.3154297-.0595703,.4140625-.0791016l.5317383,2.4335938c-.1708984,.0654297-.4135742,.1328125-.7290039,.2021484-.3154297,.0683594-.7094727,.1064453-1.1821289,.1132812-.7753906,.0126953-1.4980469-.125-2.1679688-.4140625s-1.2119141-.7353516-1.6254883-1.3398438c-.4140625-.6044922-.6210938-1.3632812-.6210938-2.2763672V9.7884075Z"/>
      <path class="cls-1" d="M214.6711565,11.0784465c-.512207,0-.9506836-.171875-1.3154297-.5166016-.3647461-.3457031-.546875-.7578125-.546875-1.2373047,0-.4853516,.1821289-.9013672,.546875-1.2460938s.8032227-.5175781,1.3154297-.5175781,.9506836,.1728516,1.3154297,.5175781,.546875,.7568359,.546875,1.2363281c0,.4863281-.1821289,.9013672-.546875,1.2470703-.3647461,.3447266-.8032227,.5166016-1.3154297,.5166016Zm-1.487793,17.4697266V13.4134075h2.9462891v15.1347656h-2.9462891Z"/>
      <path class="cls-1" d="M226.1877581,28.8538371c-1.4189453,0-2.6572266-.3251953-3.7148438-.9755859s-1.878418-1.5605469-2.4628906-2.7294922c-.5849609-1.1689453-.8769531-2.5351562-.8769531-4.0986328,0-1.5703125,.2919922-2.9423828,.8769531-4.1191406,.5844727-1.1757812,1.4052734-2.0888672,2.4628906-2.7382812,1.0576172-.6503906,2.2958984-.9755859,3.7148438-.9755859s2.6567383,.3251953,3.7143555,.9755859c1.0576172,.6494141,1.8789062,1.5625,2.4633789,2.7382812,.5844727,1.1767578,.8769531,2.5488281,.8769531,4.1191406,0,1.5634766-.2924805,2.9296875-.8769531,4.0986328s-1.4057617,2.0791016-2.4633789,2.7294922-2.2954102,.9755859-3.7143555,.9755859Zm.0097656-2.4736328c.9194336,0,1.6816406-.2421875,2.2861328-.7285156,.6040039-.4863281,1.0522461-1.1337891,1.3447266-1.9414062,.2919922-.8076172,.4384766-1.6982422,.4384766-2.6699219,0-.9658203-.1464844-1.8544922-.4384766-2.6650391-.2924805-.8115139-.7407227-1.4638672-1.3447266-1.9560547-.6044922-.4931641-1.3666992-.7392578-2.2861328-.7392578-.9262695,0-1.6933594,.2460938-2.3007812,.7392578-.6074219,.4921875-1.0576172,1.1445408-1.3496094,1.9560547-.2924805,.8105469-.4384766,1.6992188-.4384766,2.6650391,0,.9716797,.1459961,1.8623047,.4384766,2.6699219,.2919922,.8076172,.7421875,1.4550781,1.3496094,1.9414062s1.3745117,.7285156,2.3007812,.7285156Z"/>
      <path class="cls-1" d="M239.1921526,19.561845v8.9863281h-2.9462891V13.4134075h2.8276367v2.4638672h.1875c.3481445-.8017578,.8950195-1.4453125,1.640625-1.9316406,.7451172-.4853516,1.6860352-.7285156,2.8227539-.7285156,1.03125,0,1.9345703,.2148438,2.7094727,.6455078,.7749023,.4296875,1.3759766,1.0683594,1.8032227,1.9160156,.4267578,.8476562,.640625,1.8955078,.640625,3.1435547v9.6259766h-2.9462891v-9.2714844c0-1.0966797-.2856445-1.9560547-.8574219-2.5771484-.5712891-.6201172-1.3564453-.9306641-2.3544922-.9306641-.6835938,0-1.2895508,.1474609-1.8178711,.4433594-.5288086,.2958984-.9462891,.7275391-1.2514648,1.2958984-.3056641,.5683594-.4580078,1.2529297-.4580078,2.0537109Z"/>
      <path class="cls-1" d="M256.9450823,28.883134c-.9589844,0-1.8261719-.1787109-2.6010742-.5371094-.7753906-.3574219-1.3876953-.8779297-1.8378906-1.5615234-.449707-.6835938-.6748047-1.5205078-.6748047-2.5126953,0-.8535156,.1640625-1.5566406,.4926758-2.1083984s.7719727-.9882812,1.3300781-1.3105469c.5581055-.3212891,1.1826172-.5644531,1.8720703-.7294922,.6899414-.1640625,1.3925781-.2880859,2.1088867-.3740234,.90625-.1044922,1.6420898-.1923828,2.2070312-.2607422,.5644531-.0693359,.9750977-.1826172,1.2314453-.3398438,.2563477-.1582031,.3842773-.4140625,.3842773-.7685547v-.0693359c0-.8603516-.2412109-1.5273438-.7241211-2s-1.2006836-.7099609-2.152832-.7099609c-.9921875,0-1.7719727,.21875-2.340332,.6552734-.5683594,.4375-.9604492,.921875-1.1772461,1.4541016l-2.7685547-.6308594c.328125-.9199219,.809082-1.6640625,1.4433594-2.2314453,.6337891-.5683594,1.3647461-.9824219,2.1923828-1.2421875,.8276367-.2587891,1.6977539-.3886719,2.6108398-.3886719,.6044922,0,1.246582,.0703125,1.9262695,.2119141,.6796875,.140625,1.3168945,.3984375,1.9116211,.7734375,.5942383,.3740234,1.0820312,.9082031,1.4628906,1.6005859,.3808594,.6933594,.5717773,1.5917969,.5717773,2.6953125v10.0498047h-2.8774414v-2.0693359h-.1181641c-.1904297,.3808594-.4760742,.7558594-.8569336,1.1230469-.3813477,.3681641-.8706055,.6738281-1.4682617,.9169922s-1.3139648,.3642578-2.1479492,.3642578Zm.640625-2.3642578c.8144531,0,1.512207-.1611328,2.09375-.4833984,.5810547-.3212891,1.0244141-.7441406,1.3300781-1.265625,.3051758-.5224609,.4580078-1.0820312,.4580078-1.6806641v-1.9501953c-.1049805,.1044922-.3071289,.2021484-.605957,.2900391-.2988281,.0888672-.6386719,.1650391-1.0195312,.2265625-.3813477,.0625-.7524414,.1181641-1.1137695,.1679688-.3613281,.0488281-.6635742,.0898438-.90625,.1230469-.5712891,.0722656-1.0922852,.1933594-1.5615234,.3642578-.4697266,.1708984-.8442383,.4160156-1.1235352,.734375s-.418457,.7402344-.418457,1.2666016c0,.7285156,.269043,1.2792969,.8076172,1.6503906s1.2250977,.5566406,2.0595703,.5566406Z"/>
      <path class="cls-1" d="M271.0041643,8.3694621V28.5481731h-2.9462891V8.3694621h2.9462891Z"/>
      <path class="cls-1" d="M97.51393,57.2190715v-20.1787109h12.5136719v2.6201172h-9.46875v6.1484375h8.5717773v2.6113281h-8.5717773v8.7988281h-3.0449219Z"/>
      <path class="cls-1" d="M117.6032854,57.5540325c-.9589844,0-1.8261719-.1787109-2.6010742-.5371094-.7753906-.3574219-1.3876953-.8779297-1.8378906-1.5615234-.449707-.6835938-.6748047-1.5205078-.6748047-2.5126953,0-.8535156,.1640625-1.5566406,.4926758-2.1083984s.7719727-.9882812,1.3300781-1.3105469c.5581055-.3212891,1.1826172-.5644531,1.8720703-.7294922,.6899414-.1640625,1.3925781-.2880859,2.1088867-.3740234,.90625-.1044922,1.6420898-.1923828,2.2070312-.2607422,.5644531-.0693359,.9750977-.1826172,1.2314453-.3398438,.2563477-.1582031,.3842773-.4140625,.3842773-.7685547v-.0693359c0-.8603516-.2412109-1.5273438-.7241211-2s-1.2006836-.7099609-2.152832-.7099609c-.9921875,0-1.7719727,.21875-2.340332,.6552734-.5683594,.4375-.9604492,.921875-1.1772461,1.4541016l-2.7685547-.6308594c.328125-.9199219,.809082-1.6640625,1.4433594-2.2314453,.6337891-.5683594,1.3647461-.9824219,2.1923828-1.2421875,.8276367-.2587891,1.6977539-.3886719,2.6108398-.3886719,.6044922,0,1.246582,.0703125,1.9262695,.2119141,.6796875,.140625,1.3168945,.3984375,1.9116211,.7734375,.5942383,.3740234,1.0820312,.9082031,1.4628906,1.6005859,.3808594,.6933594,.5717773,1.5917969,.5717773,2.6953125v10.0498047h-2.8774414v-2.0693359h-.1181641c-.1904297,.3808594-.4760742,.7558594-.8569336,1.1230469-.3813477,.3681641-.8706055,.6738281-1.4682617,.9169922s-1.3139648,.3642578-2.1479492,.3642578Zm.640625-2.3642578c.8144531,0,1.512207-.1611328,2.09375-.4833984,.5810547-.3212891,1.0244141-.7441406,1.3300781-1.265625,.3051758-.5224609,.4580078-1.0820312,.4580078-1.6806641v-1.9501953c-.1049805,.1044922-.3071289,.2021484-.605957,.2900391-.2988281,.0888759-.6386719,.1650391-1.0195312,.2265625-.3813477,.0625-.7524414,.1181641-1.1137695,.1679688-.3613281,.0488281-.6635742,.0898438-.90625,.1230469-.5712891,.0722656-1.0922852,.1933594-1.5615234,.3642578-.4697266,.1708984-.8442383,.4160156-1.1235352,.734375s-.418457,.7402344-.418457,1.2666016c0,.7285156,.269043,1.2792969,.8076172,1.6503906s1.2250977,.5566406,2.0595703,.5566406Z"/>
      <path class="cls-1" d="M130.2033831,39.749345c-.512207,0-.9506836-.171875-1.3154297-.5166016-.3647461-.3457031-.546875-.7578125-.546875-1.2373047,0-.4853516,.1821289-.9013672,.546875-1.2460938s.8032227-.5175781,1.3154297-.5175781,.9506836,.1728516,1.3154297,.5175781,.546875,.7568359,.546875,1.2363281c0,.4863281-.1821289,.9013672-.546875,1.2470703-.3647461,.3447266-.8032227,.5166016-1.3154297,.5166016Zm-1.487793,17.4697266v-15.1347656h2.9462891v15.1347656h-2.9462891Z"/>
      <path class="cls-1" d="M135.3449847,57.2190715v-15.1347656h2.8476562v2.4042969h.1577148c.2758789-.8144531,.7631836-1.4560547,1.4628906-1.9257812s1.4926758-.7050781,2.3793945-.7050781c.184082,0,.4023438,.0068359,.6552734,.0205078,.2529297,.0126953,.4516602,.0292969,.5961914,.0488281v2.8183594c-.1181641-.0332031-.3286133-.0712891-.6303711-.1132812-.3022461-.0429688-.6044922-.0644531-.9067383-.0644531-.6962891,0-1.3154297,.1464844-1.8574219,.4384766-.5415039,.2919922-.9702148,.6962891-1.2856445,1.2119141s-.4726562,1.1015625-.4726562,1.7587891v9.2421875h-2.9462891Z"/>
      <path class="cls-1" d="M148.6750628,48.2327434v8.9863281h-2.9462891v-15.1347656h2.8276367v2.4638672h.1875c.3481445-.8017578,.8950195-1.4453125,1.640625-1.9316406,.7451172-.4853516,1.6860352-.7285156,2.8227539-.7285156,1.03125,0,1.9345703,.2148438,2.7094727,.6455078,.7749023,.4296875,1.3759766,1.0683594,1.8032227,1.9160156,.4267578,.8476562,.640625,1.8955078,.640625,3.1435547v9.6259766h-2.9462891v-9.2714844c0-1.0966797-.2856445-1.9560547-.8574219-2.5771484-.5712891-.6201172-1.3564453-.9306641-2.3544922-.9306641-.6835938,0-1.2895508,.1474609-1.8178711,.4433594-.5288086,.2958984-.9462891,.7275391-1.2514648,1.2958984-.3056641,.5683594-.4580078,1.2529297-.4580078,2.0537109Z"/>
      <path class="cls-1" d="M168.5466448,57.5247356c-1.4912109,0-2.7739258-.3203125-3.8476562-.9609289-1.0742188-.6406336-1.9018555-1.5439539-2.4833984-2.7099695-.5810547-1.1650304-.871582-2.5332031-.871582-4.1035156,0-1.5498047,.2905273-2.9160156,.871582-4.0986328,.581543-1.1826172,1.3959961-2.1054688,2.4438477-2.7685547,1.0473633-.6640625,2.2744141-.9951172,3.6801758-.9951172,.8535156,0,1.6811523,.140625,2.4829102,.4238281,.8012695,.2822266,1.5205078,.7255859,2.1577148,1.3300781s1.1396484,1.3876953,1.5073242,2.3496094c.3681641,.9619141,.5522461,2.1298828,.5522461,3.5029297v1.0439453h-12.0307617v-2.2070312h9.1435547c0-.7744141-.1577148-1.4628906-.4731445-2.0644531-.3149414-.6005859-.7568359-1.0751953-1.3251953-1.4228516-.5678711-.3486328-1.2329102-.5224609-1.9951172-.5224609-.8276367,0-1.5483398,.2021484-2.1625977,.6054688-.6142578,.4042969-1.0874023,.9296875-1.4189453,1.5771484-.331543,.6464844-.4975586,1.3476562-.4975586,2.1035156v1.7236328c0,1.0117188,.1787109,1.8720703,.5371094,2.5820312,.3579102,.7089844,.8583984,1.25,1.5024414,1.6210938,.6435547,.3710938,1.3959961,.5566406,2.2563477,.5566406,.5581055,0,1.0673828-.0810547,1.5273438-.2421875,.4594727-.1601476,.8569336-.4013672,1.1918945-.7236328,.3354492-.3222656,.5913086-.7197266,.7685547-1.1923828l2.7885742,.5029297c-.2231445,.8212891-.6225586,1.5380859-1.1972656,2.1523438s-1.2939453,1.0908203-2.1577148,1.4287109c-.8637695,.3388672-1.847168,.5078125-2.9506836,.5078125Z"/>
      <path class="cls-1" d="M189.3840472,45.7796184l-2.6699219,.4726562c-.1118164-.3408203-.2875977-.6660156-.5273438-.9755859-.2397461-.3085938-.5634766-.5615234-.9707031-.7578125-.4072266-.1972656-.9160156-.2958984-1.5268555-.2958984-.8344727,0-1.5307617,.1855469-2.0888672,.5566406-.5585938,.3710938-.8378906,.8486328-.8378906,1.4335938,0,.5058594,.1875,.9130859,.5620117,1.2216797,.3740234,.3085938,.9785156,.5615234,1.8129883,.7587891l2.4038086,.5517578c1.3925781,.3222656,2.4306641,.8173828,3.1137695,1.4882812,.6831055,.6699219,1.0244141,1.5400391,1.0244141,2.6103516,0,.90625-.2607422,1.7128906-.7832031,2.4189453-.5219727,.7060547-1.2480469,1.2597656-2.1772461,1.6601562-.9296875,.4013672-2.0053711,.6015625-3.2270508,.6015625-1.6948242,0-3.0776367-.3632812-4.1479492-1.0888672-1.0708008-.7255859-1.7280273-1.7587891-1.9707031-3.0986328l2.8476562-.4335938c.1772461,.7421875,.5415039,1.3017578,1.0932617,1.6796875s1.2714844,.5664062,2.1582031,.5664062c.965332,0,1.7373047-.2021484,2.3154297-.6054688,.5776367-.4042969,.8666992-.8984375,.8666992-1.4833984,0-.4726562-.1757812-.8701172-.5268555-1.1923828-.3515625-.3212891-.8886719-.5644531-1.6108398-.7285156l-2.5620117-.5615234c-1.4121094-.3222656-2.4550781-.8339844-3.128418-1.5371094s-1.0097656-1.5927734-1.0097656-2.6708984c0-.8925781,.2495117-1.6748047,.7485352-2.3447266,.4995117-.6699219,1.1889648-1.1933594,2.0693359-1.5712891s1.8886719-.5664062,3.0249023-.5664062c1.6357422,0,2.9228516,.3525391,3.8623047,1.0585938s1.5600586,1.6503906,1.8623047,2.8330078Z"/>
      <path class="cls-1" d="M203.9743792,45.7796184l-2.6699219,.4726562c-.1118164-.3408203-.2875977-.6660156-.5273438-.9755859-.2397461-.3085938-.5634766-.5615234-.9707031-.7578125-.4072266-.1972656-.9160156-.2958984-1.5268555-.2958984-.8344727,0-1.5307617,.1855469-2.0888672,.5566406-.5585938,.3710938-.8378906,.8486328-.8378906,1.4335938,0,.5058594,.1875,.9130859,.5620117,1.2216797,.3740234,.3085938,.9785156,.5615234,1.8129883,.7587891l2.4038086,.5517578c1.3925781,.3222656,2.4306641,.8173828,3.1137695,1.4882812,.6831055,.6699219,1.0244141,1.5400391,1.0244141,2.6103516,0,.90625-.2607422,1.7128906-.7832031,2.4189453-.5219727,.7060547-1.2480469,1.2597656-2.1772461,1.6601562-.9296875,.4013672-2.0053711,.6015625-3.2270508,.6015625-1.6948242,0-3.0776367-.3632812-4.1479492-1.0888672-1.0708008-.7255859-1.7280273-1.7587891-1.9707031-3.0986328l2.8476562-.4335938c.1772461,.7421875,.5415039,1.3017578,1.0932617,1.6796875s1.2714844,.5664062,2.1582031,.5664062c.965332,0,1.7373047-.2021484,2.3154297-.6054688,.5776367-.4042969,.8666992-.8984375,.8666992-1.4833984,0-.4726562-.1757812-.8701172-.5268555-1.1923828-.3515625-.3212891-.8886719-.5644531-1.6108398-.7285156l-2.5620117-.5615234c-1.4121094-.3222656-2.4550781-.8339844-3.128418-1.5371094s-1.0097656-1.5927734-1.0097656-2.6708984c0-.8925781,.2495117-1.6748047,.7485352-2.3447266,.4995117-.6699219,1.1889648-1.1933594,2.0693359-1.5712891s1.8886719-.5664062,3.0249023-.5664062c1.6357422,0,2.9228516,.3525391,3.8623047,1.0585938s1.5600586,1.6503906,1.8623047,2.8330078Z"/>
    </g>
    <g>
      <path d="M100.5588518,8.3694621V28.5481731h-3.0449219V8.3694621h3.0449219Z"/>
      <path d="M107.4250628,19.561845v8.9863281h-2.9462891V13.4134075h2.8276367v2.4638672h.1875c.3481445-.8017578,.8950195-1.4453125,1.640625-1.9316406,.7451172-.4853516,1.6860352-.7285156,2.8227539-.7285156,1.03125,0,1.9345703,.2148438,2.7094727,.6455078,.7749023,.4296875,1.3759766,1.0683594,1.8032227,1.9160156,.4267578,.8476562,.640625,1.8955078,.640625,3.1435547v9.6259766h-2.9462891v-9.2714844c0-1.0966797-.2856445-1.9560547-.8574219-2.5771484-.5712891-.6201172-1.3564453-.9306641-2.3544922-.9306641-.6835938,0-1.2895508,.1474609-1.8178711,.4433594-.5288086,.2958984-.9462891,.7275391-1.2514648,1.2958984-.3056641,.5683594-.4580078,1.2529297-.4580078,2.0537109Z"/>
      <path d="M127.8381487,13.4134075v2.3652344h-8.2666016v-2.3652344h8.2666016Zm-6.0498047-3.625h2.9462891v14.3164062c0,.5712891,.0854492,1,.2563477,1.2851562,.1704102,.2861328,.3920898,.4794922,.6650391,.5820312,.2724609,.1015625,.5698242,.1523438,.8916016,.1523438,.2363281,0,.4433594-.0166016,.6206055-.0488281,.1772461-.0332031,.3154297-.0595703,.4140625-.0791016l.5317383,2.4335938c-.1708984,.0654297-.4135742,.1328125-.7290039,.2021484-.3154297,.0683594-.7094727,.1064453-1.1821289,.1132812-.7753906,.0126953-1.4980469-.125-2.1679688-.4140625s-1.2119141-.7353516-1.6254883-1.3398438c-.4140625-.6044922-.6210938-1.3632812-.6210938-2.2763672V9.7884075Z"/>
      <path d="M137.1775042,28.8538371c-1.4912109,0-2.7739258-.3203125-3.8476562-.9609375-1.0742188-.640625-1.9018555-1.5439453-2.4833984-2.7099609-.5810547-1.1650391-.871582-2.5332031-.871582-4.1035156,0-1.5498047,.2905273-2.9160156,.871582-4.0986328,.581543-1.1826172,1.3959961-2.1054688,2.4438477-2.7685547,1.0473633-.6640625,2.2744141-.9951172,3.6801758-.9951172,.8535156,0,1.6811523,.140625,2.4829102,.4238281,.8012695,.2822266,1.5205078,.7255859,2.1577148,1.3300781s1.1396484,1.3876953,1.5073242,2.3496094c.3681641,.9619141,.5522461,2.1298828,.5522461,3.5029297v1.0439453h-12.0307617v-2.2070312h9.1435547c0-.7744141-.1577148-1.4628906-.4731445-2.0644531-.3149414-.6005859-.7568359-1.0751953-1.3251953-1.4228516-.5678711-.3486328-1.2329102-.5224609-1.9951172-.5224609-.8276367,0-1.5483398,.2021484-2.1625977,.6054688-.6142578,.4042969-1.0874023,.9296875-1.4189453,1.5771484-.331543,.6464844-.4975586,1.3476562-.4975586,2.1035156v1.7236328c0,1.0117188,.1787109,1.8720703,.5371094,2.5820312,.3579102,.7089844,.8583984,1.25,1.5024414,1.6210938,.6435547,.3710938,1.3959961,.5566406,2.2563477,.5566406,.5581055,0,1.0673828-.0810547,1.5273438-.2421875,.4594727-.1601562,.8569336-.4013672,1.1918945-.7236328,.3354492-.3222656,.5913086-.7197266,.7685547-1.1923828l2.7885742,.5029297c-.2231445,.8212891-.6225586,1.5380859-1.1972656,2.1523438s-1.2939453,1.0908203-2.1577148,1.4287109c-.8637695,.3388672-1.847168,.5078125-2.9506836,.5078125Z"/>
      <path d="M146.6740862,28.5481731V13.4134075h2.8476562v2.4042969h.1577148c.2758789-.8144531,.7631836-1.4560547,1.4628906-1.9257812s1.4926758-.7050781,2.3793945-.7050781c.184082,0,.4023438,.0068359,.6552734,.0205078,.2529297,.0126953,.4516602,.0292969,.5961914,.0488281v2.8183594c-.1181641-.0332031-.3286133-.0712891-.6303711-.1132812-.3022461-.0429688-.6044922-.0644531-.9067383-.0644531-.6962891,0-1.3154297,.1464844-1.8574219,.4384766-.5415039,.2919922-.9702148,.6962891-1.2856445,1.2119141s-.4726562,1.1015625-.4726562,1.7587891v9.2421875h-2.9462891Z"/>
      <path d="M168.3982073,17.10872l-2.6699219,.4726562c-.1118164-.3408203-.2875977-.6660156-.5273438-.9755859-.2397461-.3085938-.5634766-.5615234-.9707031-.7578125-.4072266-.1972656-.9160156-.2958984-1.5268555-.2958984-.8344727,0-1.5307617,.1855469-2.0888672,.5566406-.5585938,.3710938-.8378906,.8486328-.8378906,1.4335938,0,.5058594,.1875,.9130859,.5620117,1.2216797,.3740234,.3085938,.9785156,.5615234,1.8129883,.7587891l2.4038086,.5517578c1.3925781,.3222656,2.4306641,.8173828,3.1137695,1.4882812,.6831055,.6699219,1.0244141,1.5400391,1.0244141,2.6103516,0,.90625-.2607422,1.7128906-.7832031,2.4189453-.5219727,.7060547-1.2480469,1.2597656-2.1772461,1.6601562-.9296875,.4013672-2.0053711,.6015625-3.2270508,.6015625-1.6948242,0-3.0776367-.3632812-4.1479492-1.0888672-1.0708008-.7255859-1.7280273-1.7587891-1.9707031-3.0986328l2.8476562-.4335938c.1772461,.7421875,.5415039,1.3017578,1.0932617,1.6796875s1.2714844,.5664062,2.1582031,.5664062c.965332,0,1.7373047-.2021484,2.3154297-.6054688,.5776367-.4042969,.8666992-.8984375,.8666992-1.4833984,0-.4726562-.1757812-.8701172-.5268555-1.1923828-.3515625-.3212891-.8886719-.5644531-1.6108398-.7285156l-2.5620117-.5615234c-1.4121094-.3222656-2.4550781-.8339844-3.128418-1.5371094s-1.0097656-1.5927734-1.0097656-2.6708984c0-.8925781,.2495117-1.6748047,.7485352-2.3447266,.4995117-.6699219,1.1889648-1.1933594,2.0693359-1.5712891s1.8886719-.5664062,3.0249023-.5664062c1.6357422,0,2.9228516,.3525391,3.8623047,1.0585938s1.5600586,1.6503906,1.8623047,2.8330078Z"/>
      <path d="M178.1711565,28.8538371c-1.4912109,0-2.7739258-.3203125-3.8476562-.9609375-1.0742188-.640625-1.9018555-1.5439453-2.4833984-2.7099609-.5810547-1.1650391-.871582-2.5332031-.871582-4.1035156,0-1.5498047,.2905273-2.9160156,.871582-4.0986328,.581543-1.1826172,1.3959961-2.1054688,2.4438477-2.7685547,1.0473633-.6640625,2.2744141-.9951172,3.6801758-.9951172,.8535156,0,1.6811523,.140625,2.4829102,.4238281,.8012695,.2822266,1.5205078,.7255859,2.1577148,1.3300781s1.1396484,1.3876953,1.5073242,2.3496094c.3681641,.9619141,.5522461,2.1298828,.5522461,3.5029297v1.0439453h-12.0307617v-2.2070312h9.1435547c0-.7744141-.1577148-1.4628906-.4731445-2.0644531-.3149414-.6005859-.7568359-1.0751953-1.3251953-1.4228516-.5678711-.3486328-1.2329102-.5224609-1.9951172-.5224609-.8276367,0-1.5483398,.2021484-2.1625977,.6054688-.6142578,.4042969-1.0874023,.9296875-1.4189453,1.5771484-.331543,.6464844-.4975586,1.3476562-.4975586,2.1035156v1.7236328c0,1.0117188,.1787109,1.8720703,.5371094,2.5820312,.3579102,.7089844,.8583984,1.25,1.5024414,1.6210938,.6435547,.3710938,1.3959961,.5566406,2.2563477,.5566406,.5581055,0,1.0673828-.0810547,1.5273438-.2421875,.4594727-.1601562,.8569336-.4013672,1.1918945-.7236328,.3354492-.3222656,.5913086-.7197266,.7685547-1.1923828l2.7885742,.5029297c-.2231445,.8212891-.6225586,1.5380859-1.1972656,2.1523438s-1.2939453,1.0908203-2.1577148,1.4287109c-.8637695,.3388672-1.847168,.5078125-2.9506836,.5078125Z"/>
      <path d="M194.0422503,28.8538371c-1.4648438,0-2.7246094-.3339844-3.7788086-1-1.0541992-.6669922-1.8637695-1.5878906-2.4287109-2.7636719s-.847168-2.5224609-.847168-4.0400391c0-1.5371094,.2885742-2.8955078,.8666992-4.0742188s1.3925781-2.1005859,2.4438477-2.7636719c1.0507812-.6640625,2.2890625-.9951172,3.7143555-.9951172,1.1494141,0,2.1743164,.2119141,3.0742188,.6347656,.8999023,.4238281,1.6274414,1.0166016,2.1826172,1.7792969,.5546875,.7617188,.8847656,1.6513672,.9902344,2.6699219h-2.8671875c-.1577148-.7099609-.5175781-1.3203125-1.0791016-1.8330078-.5615234-.5117188-1.3120117-.7685547-2.2514648-.7685547-.8212891,0-1.5385742,.2158203-2.152832,.6455078-.6142578,.4306641-1.0922852,1.0410156-1.4335938,1.8330078-.3417969,.7910156-.512207,1.7255859-.512207,2.8027344,0,1.1035156,.1674805,2.0566406,.5024414,2.8574219,.3349609,.8017578,.8095703,1.4228516,1.4238281,1.8623047,.6137695,.4404297,1.3383789,.6601562,2.1723633,.6601562,.5581055,0,1.065918-.1035156,1.5224609-.3105469s.8408203-.5039062,1.152832-.8916016,.5302734-.8535156,.6552734-1.3994141h2.8671875c-.1054688,.9794922-.4238281,1.8525391-.9560547,2.6210938-.5317383,.7685547-1.2431641,1.3730469-2.1328125,1.8134766-.8901367,.4394531-1.9331055,.6601562-3.128418,.6601562Z"/>
      <path d="M210.2092425,13.4134075v2.3652344h-8.2666016v-2.3652344h8.2666016Zm-6.0498047-3.625h2.9462891v14.3164062c0,.5712891,.0854492,1,.2563477,1.2851562,.1704102,.2861328,.3920898,.4794922,.6650391,.5820312,.2724609,.1015625,.5698242,.1523438,.8916016,.1523438,.2363281,0,.4433594-.0166016,.6206055-.0488281,.1772461-.0332031,.3154297-.0595703,.4140625-.0791016l.5317383,2.4335938c-.1708984,.0654297-.4135742,.1328125-.7290039,.2021484-.3154297,.0683594-.7094727,.1064453-1.1821289,.1132812-.7753906,.0126953-1.4980469-.125-2.1679688-.4140625s-1.2119141-.7353516-1.6254883-1.3398438c-.4140625-.6044922-.6210938-1.3632812-.6210938-2.2763672V9.7884075Z"/>
      <path d="M214.6711565,11.0784465c-.512207,0-.9506836-.171875-1.3154297-.5166016-.3647461-.3457031-.546875-.7578125-.546875-1.2373047,0-.4853516,.1821289-.9013672,.546875-1.2460938s.8032227-.5175781,1.3154297-.5175781,.9506836,.1728516,1.3154297,.5175781,.546875,.7568359,.546875,1.2363281c0,.4863281-.1821289,.9013672-.546875,1.2470703-.3647461,.3447266-.8032227,.5166016-1.3154297,.5166016Zm-1.487793,17.4697266V13.4134075h2.9462891v15.1347656h-2.9462891Z"/>
      <path d="M226.1877581,28.8538371c-1.4189453,0-2.6572266-.3251953-3.7148438-.9755859s-1.878418-1.5605469-2.4628906-2.7294922c-.5849609-1.1689453-.8769531-2.5351562-.8769531-4.0986328,0-1.5703125,.2919922-2.9423828,.8769531-4.1191406,.5844727-1.1757812,1.4052734-2.0888672,2.4628906-2.7382812,1.0576172-.6503906,2.2958984-.9755859,3.7148438-.9755859s2.6567383,.3251953,3.7143555,.9755859c1.0576172,.6494141,1.8789062,1.5625,2.4633789,2.7382812,.5844727,1.1767578,.8769531,2.5488281,.8769531,4.1191406,0,1.5634766-.2924805,2.9296875-.8769531,4.0986328s-1.4057617,2.0791016-2.4633789,2.7294922-2.2954102,.9755859-3.7143555,.9755859Zm.0097656-2.4736328c.9194336,0,1.6816406-.2421875,2.2861328-.7285156,.6040039-.4863281,1.0522461-1.1337891,1.3447266-1.9414062,.2919922-.8076172,.4384766-1.6982422,.4384766-2.6699219,0-.9658203-.1464844-1.8544922-.4384766-2.6650391-.2924805-.8115139-.7407227-1.4638672-1.3447266-1.9560547-.6044922-.4931641-1.3666992-.7392578-2.2861328-.7392578-.9262695,0-1.6933594,.2460938-2.3007812,.7392578-.6074219,.4921875-1.0576172,1.1445408-1.3496094,1.9560547-.2924805,.8105469-.4384766,1.6992188-.4384766,2.6650391,0,.9716797,.1459961,1.8623047,.4384766,2.6699219,.2919922,.8076172,.7421875,1.4550781,1.3496094,1.9414062s1.3745117,.7285156,2.3007812,.7285156Z"/>
      <path d="M239.1921526,19.561845v8.9863281h-2.9462891V13.4134075h2.8276367v2.4638672h.1875c.3481445-.8017578,.8950195-1.4453125,1.640625-1.9316406,.7451172-.4853516,1.6860352-.7285156,2.8227539-.7285156,1.03125,0,1.9345703,.2148438,2.7094727,.6455078,.7749023,.4296875,1.3759766,1.0683594,1.8032227,1.9160156,.4267578,.8476562,.640625,1.8955078,.640625,3.1435547v9.6259766h-2.9462891v-9.2714844c0-1.0966797-.2856445-1.9560547-.8574219-2.5771484-.5712891-.6201172-1.3564453-.9306641-2.3544922-.9306641-.6835938,0-1.2895508,.1474609-1.8178711,.4433594-.5288086,.2958984-.9462891,.7275391-1.2514648,1.2958984-.3056641,.5683594-.4580078,1.2529297-.4580078,2.0537109Z"/>
      <path d="M256.9450823,28.883134c-.9589844,0-1.8261719-.1787109-2.6010742-.5371094-.7753906-.3574219-1.3876953-.8779297-1.8378906-1.5615234-.449707-.6835938-.6748047-1.5205078-.6748047-2.5126953,0-.8535156,.1640625-1.5566406,.4926758-2.1083984s.7719727-.9882812,1.3300781-1.3105469c.5581055-.3212891,1.1826172-.5644531,1.8720703-.7294922,.6899414-.1640625,1.3925781-.2880859,2.1088867-.3740234,.90625-.1044922,1.6420898-.1923828,2.2070312-.2607422,.5644531-.0693359,.9750977-.1826172,1.2314453-.3398438,.2563477-.1582031,.3842773-.4140625,.3842773-.7685547v-.0693359c0-.8603516-.2412109-1.5273438-.7241211-2s-1.2006836-.7099609-2.152832-.7099609c-.9921875,0-1.7719727,.21875-2.340332,.6552734-.5683594,.4375-.9604492,.921875-1.1772461,1.4541016l-2.7685547-.6308594c.328125-.9199219,.809082-1.6640625,1.4433594-2.2314453,.6337891-.5683594,1.3647461-.9824219,2.1923828-1.2421875,.8276367-.2587891,1.6977539-.3886719,2.6108398-.3886719,.6044922,0,1.246582,.0703125,1.9262695,.2119141,.6796875,.140625,1.3168945,.3984375,1.9116211,.7734375,.5942383,.3740234,1.0820312,.9082031,1.4628906,1.6005859,.3808594,.6933594,.5717773,1.5917969,.5717773,2.6953125v10.0498047h-2.8774414v-2.0693359h-.1181641c-.1904297,.3808594-.4760742,.7558594-.8569336,1.1230469-.3813477,.3681641-.8706055,.6738281-1.4682617,.9169922s-1.3139648,.3642578-2.1479492,.3642578Zm.640625-2.3642578c.8144531,0,1.512207-.1611328,2.09375-.4833984,.5810547-.3212891,1.0244141-.7441406,1.3300781-1.265625,.3051758-.5224609,.4580078-1.0820312,.4580078-1.6806641v-1.9501953c-.1049805,.1044922-.3071289,.2021484-.605957,.2900391-.2988281,.0888672-.6386719,.1650391-1.0195312,.2265625-.3813477,.0625-.7524414,.1181641-1.1137695,.1679688-.3613281,.0488281-.6635742,.0898438-.90625,.1230469-.5712891,.0722656-1.0922852,.1933594-1.5615234,.3642578-.4697266,.1708984-.8442383,.4160156-1.1235352,.734375s-.418457,.7402344-.418457,1.2666016c0,.7285156,.269043,1.2792969,.8076172,1.6503906s1.2250977,.5566406,2.0595703,.5566406Z"/>
      <path d="M271.0041643,8.3694621V28.5481731h-2.9462891V8.3694621h2.9462891Z"/>
      <path d="M97.51393,57.2190715v-20.1787109h12.5136719v2.6201172h-9.46875v6.1484375h8.5717773v2.6113281h-8.5717773v8.7988281h-3.0449219Z"/>
      <path d="M117.6032854,57.5540325c-.9589844,0-1.8261719-.1787109-2.6010742-.5371094-.7753906-.3574219-1.3876953-.8779297-1.8378906-1.5615234-.449707-.6835938-.6748047-1.5205078-.6748047-2.5126953,0-.8535156,.1640625-1.5566406,.4926758-2.1083984s.7719727-.9882812,1.3300781-1.3105469c.5581055-.3212891,1.1826172-.5644531,1.8720703-.7294922,.6899414-.1640625,1.3925781-.2880859,2.1088867-.3740234,.90625-.1044922,1.6420898-.1923828,2.2070312-.2607422,.5644531-.0693359,.9750977-.1826172,1.2314453-.3398438,.2563477-.1582031,.3842773-.4140625,.3842773-.7685547v-.0693359c0-.8603516-.2412109-1.5273438-.7241211-2s-1.2006836-.7099609-2.152832-.7099609c-.9921875,0-1.7719727,.21875-2.340332,.6552734-.5683594,.4375-.9604492,.921875-1.1772461,1.4541016l-2.7685547-.6308594c.328125-.9199219,.809082-1.6640625,1.4433594-2.2314453,.6337891-.5683594,1.3647461-.9824219,2.1923828-1.2421875,.8276367-.2587891,1.6977539-.3886719,2.6108398-.3886719,.6044922,0,1.246582,.0703125,1.9262695,.2119141,.6796875,.140625,1.3168945,.3984375,1.9116211,.7734375,.5942383,.3740234,1.0820312,.9082031,1.4628906,1.6005859,.3808594,.6933594,.5717773,1.5917969,.5717773,2.6953125v10.0498047h-2.8774414v-2.0693359h-.1181641c-.1904297,.3808594-.4760742,.7558594-.8569336,1.1230469-.3813477,.3681641-.8706055,.6738281-1.4682617,.9169922s-1.3139648,.3642578-2.1479492,.3642578Zm.640625-2.3642578c.8144531,0,1.512207-.1611328,2.09375-.4833984,.5810547-.3212891,1.0244141-.7441406,1.3300781-1.265625,.3051758-.5224609,.4580078-1.0820312,.4580078-1.6806641v-1.9501953c-.1049805,.1044922-.3071289,.2021484-.605957,.2900391-.2988281,.0888759-.6386719,.1650391-1.0195312,.2265625-.3813477,.0625-.7524414,.1181641-1.1137695,.1679688-.3613281,.0488281-.6635742,.0898438-.90625,.1230469-.5712891,.0722656-1.0922852,.1933594-1.5615234,.3642578-.4697266,.1708984-.8442383,.4160156-1.1235352,.734375s-.418457,.7402344-.418457,1.2666016c0,.7285156,.269043,1.2792969,.8076172,1.6503906s1.2250977,.5566406,2.0595703,.5566406Z"/>
      <path d="M130.2033831,39.749345c-.512207,0-.9506836-.171875-1.3154297-.5166016-.3647461-.3457031-.546875-.7578125-.546875-1.2373047,0-.4853516,.1821289-.9013672,.546875-1.2460938s.8032227-.5175781,1.3154297-.5175781,.9506836,.1728516,1.3154297,.5175781,.546875,.7568359,.546875,1.2363281c0,.4863281-.1821289,.9013672-.546875,1.2470703-.3647461,.3447266-.8032227,.5166016-1.3154297,.5166016Zm-1.487793,17.4697266v-15.1347656h2.9462891v15.1347656h-2.9462891Z"/>
      <path d="M135.3449847,57.2190715v-15.1347656h2.8476562v2.4042969h.1577148c.2758789-.8144531,.7631836-1.4560547,1.4628906-1.9257812s1.4926758-.7050781,2.3793945-.7050781c.184082,0,.4023438,.0068359,.6552734,.0205078,.2529297,.0126953,.4516602,.0292969,.5961914,.0488281v2.8183594c-.1181641-.0332031-.3286133-.0712891-.6303711-.1132812-.3022461-.0429688-.6044922-.0644531-.9067383-.0644531-.6962891,0-1.3154297,.1464844-1.8574219,.4384766-.5415039,.2919922-.9702148,.6962891-1.2856445,1.2119141s-.4726562,1.1015625-.4726562,1.7587891v9.2421875h-2.9462891Z"/>
      <path d="M148.6750628,48.2327434v8.9863281h-2.9462891v-15.1347656h2.8276367v2.4638672h.1875c.3481445-.8017578,.8950195-1.4453125,1.640625-1.9316406,.7451172-.4853516,1.6860352-.7285156,2.8227539-.7285156,1.03125,0,1.9345703,.2148438,2.7094727,.6455078,.7749023,.4296875,1.3759766,1.0683594,1.8032227,1.9160156,.4267578,.8476562,.640625,1.8955078,.640625,3.1435547v9.6259766h-2.9462891v-9.2714844c0-1.0966797-.2856445-1.9560547-.8574219-2.5771484-.5712891-.6201172-1.3564453-.9306641-2.3544922-.9306641-.6835938,0-1.2895508,.1474609-1.8178711,.4433594-.5288086,.2958984-.9462891,.7275391-1.2514648,1.2958984-.3056641,.5683594-.4580078,1.2529297-.4580078,2.0537109Z"/>
      <path d="M168.5466448,57.5247356c-1.4912109,0-2.7739258-.3203125-3.8476562-.9609289-1.0742188-.6406336-1.9018555-1.5439539-2.4833984-2.7099695-.5810547-1.1650304-.871582-2.5332031-.871582-4.1035156,0-1.5498047,.2905273-2.9160156,.871582-4.0986328,.581543-1.1826172,1.3959961-2.1054688,2.4438477-2.7685547,1.0473633-.6640625,2.2744141-.9951172,3.6801758-.9951172,.8535156,0,1.6811523,.140625,2.4829102,.4238281,.8012695,.2822266,1.5205078,.7255859,2.1577148,1.3300781s1.1396484,1.3876953,1.5073242,2.3496094c.3681641,.9619141,.5522461,2.1298828,.5522461,3.5029297v1.0439453h-12.0307617v-2.2070312h9.1435547c0-.7744141-.1577148-1.4628906-.4731445-2.0644531-.3149414-.6005859-.7568359-1.0751953-1.3251953-1.4228516-.5678711-.3486328-1.2329102-.5224609-1.9951172-.5224609-.8276367,0-1.5483398,.2021484-2.1625977,.6054688-.6142578,.4042969-1.0874023,.9296875-1.4189453,1.5771484-.331543,.6464844-.4975586,1.3476562-.4975586,2.1035156v1.7236328c0,1.0117188,.1787109,1.8720703,.5371094,2.5820312,.3579102,.7089844,.8583984,1.25,1.5024414,1.6210938,.6435547,.3710938,1.3959961,.5566406,2.2563477,.5566406,.5581055,0,1.0673828-.0810547,1.5273438-.2421875,.4594727-.1601476,.8569336-.4013672,1.1918945-.7236328,.3354492-.3222656,.5913086-.7197266,.7685547-1.1923828l2.7885742,.5029297c-.2231445,.8212891-.6225586,1.5380859-1.1972656,2.1523438s-1.2939453,1.0908203-2.1577148,1.4287109c-.8637695,.3388672-1.847168,.5078125-2.9506836,.5078125Z"/>
      <path d="M189.3840472,45.7796184l-2.6699219,.4726562c-.1118164-.3408203-.2875977-.6660156-.5273438-.9755859-.2397461-.3085938-.5634766-.5615234-.9707031-.7578125-.4072266-.1972656-.9160156-.2958984-1.5268555-.2958984-.8344727,0-1.5307617,.1855469-2.0888672,.5566406-.5585938,.3710938-.8378906,.8486328-.8378906,1.4335938,0,.5058594,.1875,.9130859,.5620117,1.2216797,.3740234,.3085938,.9785156,.5615234,1.8129883,.7587891l2.4038086,.5517578c1.3925781,.3222656,2.4306641,.8173828,3.1137695,1.4882812,.6831055,.6699219,1.0244141,1.5400391,1.0244141,2.6103516,0,.90625-.2607422,1.7128906-.7832031,2.4189453-.5219727,.7060547-1.2480469,1.2597656-2.1772461,1.6601562-.9296875,.4013672-2.0053711,.6015625-3.2270508,.6015625-1.6948242,0-3.0776367-.3632812-4.1479492-1.0888672-1.0708008-.7255859-1.7280273-1.7587891-1.9707031-3.0986328l2.8476562-.4335938c.1772461,.7421875,.5415039,1.3017578,1.0932617,1.6796875s1.2714844,.5664062,2.1582031,.5664062c.965332,0,1.7373047-.2021484,2.3154297-.6054688,.5776367-.4042969,.8666992-.8984375,.8666992-1.4833984,0-.4726562-.1757812-.8701172-.5268555-1.1923828-.3515625-.3212891-.8886719-.5644531-1.6108398-.7285156l-2.5620117-.5615234c-1.4121094-.3222656-2.4550781-.8339844-3.128418-1.5371094s-1.0097656-1.5927734-1.0097656-2.6708984c0-.8925781,.2495117-1.6748047,.7485352-2.3447266,.4995117-.6699219,1.1889648-1.1933594,2.0693359-1.5712891s1.8886719-.5664062,3.0249023-.5664062c1.6357422,0,2.9228516,.3525391,3.8623047,1.0585938s1.5600586,1.6503906,1.8623047,2.8330078Z"/>
      <path d="M203.9743792,45.7796184l-2.6699219,.4726562c-.1118164-.3408203-.2875977-.6660156-.5273438-.9755859-.2397461-.3085938-.5634766-.5615234-.9707031-.7578125-.4072266-.1972656-.9160156-.2958984-1.5268555-.2958984-.8344727,0-1.5307617,.1855469-2.0888672,.5566406-.5585938,.3710938-.8378906,.8486328-.8378906,1.4335938,0,.5058594,.1875,.9130859,.5620117,1.2216797,.3740234,.3085938,.9785156,.5615234,1.8129883,.7587891l2.4038086,.5517578c1.3925781,.3222656,2.4306641,.8173828,3.1137695,1.4882812,.6831055,.6699219,1.0244141,1.5400391,1.0244141,2.6103516,0,.90625-.2607422,1.7128906-.7832031,2.4189453-.5219727,.7060547-1.2480469,1.2597656-2.1772461,1.6601562-.9296875,.4013672-2.0053711,.6015625-3.2270508,.6015625-1.6948242,0-3.0776367-.3632812-4.1479492-1.0888672-1.0708008-.7255859-1.7280273-1.7587891-1.9707031-3.0986328l2.8476562-.4335938c.1772461,.7421875,.5415039,1.3017578,1.0932617,1.6796875s1.2714844,.5664062,2.1582031,.5664062c.965332,0,1.7373047-.2021484,2.3154297-.6054688,.5776367-.4042969,.8666992-.8984375,.8666992-1.4833984,0-.4726562-.1757812-.8701172-.5268555-1.1923828-.3515625-.3212891-.8886719-.5644531-1.6108398-.7285156l-2.5620117-.5615234c-1.4121094-.3222656-2.4550781-.8339844-3.128418-1.5371094s-1.0097656-1.5927734-1.0097656-2.6708984c0-.8925781,.2495117-1.6748047,.7485352-2.3447266,.4995117-.6699219,1.1889648-1.1933594,2.0693359-1.5712891s1.8886719-.5664062,3.0249023-.5664062c1.6357422,0,2.9228516,.3525391,3.8623047,1.0585938s1.5600586,1.6503906,1.8623047,2.8330078Z"/>
    </g>
  </g>
  <g>
    <path class="cls-2" d="M7.4412856,30.068543c1.2211214-11.8497664,11.2644952-21.1249153,23.4311706-21.1249153,12.1667319,0,22.2101057,9.2751488,23.4312835,21.1249153h4.579657c-.7079366-8.2303201-4.9638541-15.4639065-11.2436652-20.141899,2.1834207-.6575269,4.4511773-.9879839,6.7892139-.9879839,12.1685947,0,22.2130975,9.2777455,23.431848,21.1298828h4.5837213c-1.2378306-14.3738614-13.3264924-25.695879-28.0154565-25.695879-4.0679398,0-8.12188,.8930918-11.792357,2.5877704-3.582754-1.6560105-7.5663579-2.5877704-11.7643579-2.5877704C16.1837744,4.3726641,4.0947174,15.6946816,2.8568869,30.068543H7.4412856Z"/>
    <path class="cls-2" d="M50.6036831,52.5437368c4.90159-4.8252135,7.8007373-11.1187419,8.3076562-17.9041736h-4.5817456c-.4952903,5.5512704-2.9095341,10.6883124-6.9324834,14.6484331-.9000351,.8859791-.9105912,2.3310933-.0246121,3.2311284,.8860356,.9000916,2.3310933,.9106477,3.2311848,.0246121Z"/>
    <path class="cls-2" d="M77.8834862,34.6395632c-1.0876742,11.9865442-11.190038,21.4151235-23.4545408,21.4151235l.0001129,.0019193c-12.2662528,0-22.3695763-9.4285793-23.4548795-21.4170428h-4.5820843c.6316165,8.3460985,4.91288,15.6896491,11.2591889,20.4220027-2.1834771,.6574705-4.4511773,.9950401-6.7788271,.9950401-12.2661964,0-22.3695198-9.4285793-23.4548795-21.4170428H2.8346457c1.0980609,14.5121069,13.2494949,25.9878936,28.0376977,25.9878936,4.1171075,0,8.0866554-.8719232,11.7959698-2.5877139,3.582754,1.655954,7.5627451,2.5877139,11.7607451,2.5877139,14.7878076,0,26.9396368-11.4757867,28.0376977-25.9878936h-4.5832697Z"/>
    <path class="cls-2" d="M37.8692359,12.5290349c-.889479-.8965917-2.3344802-.9035915-3.2311284-.014056-4.7954644,4.7483289-7.6620967,10.9082407-8.2266508,17.5535641h4.5857535c.5507804-5.414041,2.9354445-10.4252,6.8579697-14.3083797,.8965353-.8895355,.903535-2.3344802,.014056-3.2311284Z"/>
  </g>
</svg>