<svg id="Layer_1" data-name="Layer 1" xmlns="http://www.w3.org/2000/svg" xmlns:xlink="http://www.w3.org/1999/xlink" viewBox="0 0 792 413"><defs><style>.cls-1{fill:url(#radial-gradient);}.cls-2{fill:url(#radial-gradient-2);}.cls-3{fill:#929497;}.cls-4{fill:#fff;}.cls-5{fill:url(#radial-gradient-3);}.cls-6{fill:url(#radial-gradient-4);}.cls-7{fill:url(#radial-gradient-5);}</style><radialGradient id="radial-gradient" cx="296.52934" cy="164.11856" r="66.32664" gradientUnits="userSpaceOnUse"><stop offset="0" stop-color="#d6df27"/><stop offset="1" stop-color="#006938"/></radialGradient><radialGradient id="radial-gradient-2" cx="221.93443" cy="200.71777" r="51.95994" gradientUnits="userSpaceOnUse"><stop offset="0" stop-color="#1e75bb"/><stop offset="1" stop-color="#282561"/></radialGradient><radialGradient id="radial-gradient-3" cx="167.80561" cy="166.26572" r="29.34611" gradientUnits="userSpaceOnUse"><stop offset="0" stop-color="#f79420"/><stop offset="1" stop-color="#be202e"/></radialGradient><radialGradient id="radial-gradient-4" cx="329.4135" cy="78.81374" r="168.05977" gradientUnits="userSpaceOnUse"><stop offset="0" stop-color="#27a8e0"/><stop offset="0.5" stop-color="#2b3c90"/><stop offset="1"/></radialGradient><radialGradient id="radial-gradient-5" cx="219.05198" cy="102.63981" r="48.55369" gradientUnits="userSpaceOnUse"><stop offset="0" stop-color="#a7a8ac"/><stop offset="1"/></radialGradient></defs><title>issip-logo-final</title><path class="cls-1" d="M336.89259,146.0337h-48.8794l-24.417,42.3193,24.417,42.3306h48.8794L361.334,188.353Zm-1.7813,80.3931V154.0146h-12.3349v72.9932h-4.1133V175.2651h-12.3233v51.7427h-4.1245v-34.604h-12.3466v34.1441l-22.0274-38.1949,22.2949-38.644h44.6343l22.3184,38.644Z"/><path class="cls-2" d="M257.07079,191.106l-3.5415-6.1011H212.957l-20.2558,35.1142,20.2558,35.126h40.57229l7.1201-12.3467,13.1597-22.7793Zm1.5884,48.4204c-2.1094-6.9258-7.47019-11.8633-13.7295-11.8633-8.13869,0-14.7246,8.3213-14.7246,18.583a22.59479,22.59479,0,0,0,.6914,5.5918h-15.9624l-18.291-31.7188,18.291-31.6933h5.3115a39.135,39.135,0,0,0-14.542,30.4687,38.6429,38.6429,0,0,0,8.187,23.9551l.4732-.3633a38.15989,38.15989,0,0,1-8.0537-23.5918,38.60078,38.60078,0,0,1,14.8955-30.4687H251.564l1.51659,2.6191a29.02187,29.02187,0,0,0-32.2642,43.9932l1.0068-.6787a27.80506,27.80506,0,0,1,32.1665-41.7495l.7657,1.3227,6.8764,11.9229a21.19544,21.19544,0,0,0-35.4907,22.8633l2.1475-1.1153a18.783,18.783,0,1,1,35.4282-8.709,18.99276,18.99276,0,0,1-2.0005,8.4659l2.1714,1.08a21.39824,21.39824,0,0,0,2.2554-9.5459,20.88447,20.88447,0,0,0-1.5166-7.8603l5.2407,9.0849Zm-5.2925-21.6817a8.42285,8.42285,0,1,1-8.4312-8.4179A8.43106,8.43106,0,0,1,253.36669,217.8447Z"/><path class="cls-3" d="M220.76809,173.6274a6.07194,6.07194,0,0,1-5.9434,0Z"/><path class="cls-4" d="M273.22749,107.7173a7.99389,7.99389,0,0,0-.8496-.4487l5.7979,10.0668c.0254-.2788.0366-.5693.0366-.8608v-.1206Z"/><path class="cls-5" d="M193.1982,153.6514H161.8315l-15.6948,27.1694,15.6948,27.1694h31.3667l15.68309-27.1694Zm-1.8676,51.1001H163.6997l-13.8271-23.9307,13.8271-23.9312h27.6309l13.81489,23.9312Zm2.1709-29.4497v11.0253H183.022v10.4678H172.0083V186.3271H161.5288V175.3018h10.4795V164.834H183.022v10.4678Z"/><path class="cls-6" d="M349.89359,156.709l-12.8892-22.3345,12.8892-22.3364h25.7817l12.897,22.3364-12.897,22.3345Zm-19.5181-23.231,17.5166-30.3261-17.5166-30.3374h-35.023l-17.5127,30.3374,17.5127,30.3261Zm-38.8252-61.0996,8.2768-14.3393-8.2768-14.3413h-16.5596l-8.2724,14.3413,8.2724,14.3393Zm91.0952,135.0054A166.40671,166.40671,0,1,1,257.811,46.0889l-2.07371,11.1469a155.273,155.273,0,1,0-48.9175,305.1226V343.3652A7.69118,7.69118,0,0,1,202.623,336.5V309.6445c-6.1499-13.6689-16.9448-38.4853-14.6162-39.4199,2.4258-.9697,13.77929,18.8252,19.09179,28.4082a7.44651,7.44651,0,0,1,3.25-.7285h3.9302a10.9356,10.9356,0,1,1,6.95021,0h3.93019a7.44037,7.44037,0,0,1,3.2383.7285c5.3247-9.583,16.666-29.3779,19.10351-28.4082,2.32909.9346-8.46631,25.751-14.61671,39.4199V336.5a7.71375,7.71375,0,0,1-4.1948,6.8652v18.7637a155.37665,155.37665,0,0,0,139.5712-185.5776l11.0372-2.5718A167.52341,167.52341,0,0,1,382.64549,207.3838ZM219.03369,344.2266h-2.5718v18.4111c.8613,0,1.7227-.0117,2.5718-.0234Z"/><path class="cls-3" d="M214.82469,173.6274a6.07194,6.07194,0,0,0,5.9434,0Z"/><path class="cls-7" d="M218.30569,131.4424a14.86425,14.86425,0,1,0,14.8584,14.8701A14.87188,14.87188,0,0,0,218.30569,131.4424Zm0,25.0586a10.19435,10.19435,0,1,1,10.1889-10.1885A10.19536,10.19536,0,0,1,218.30569,156.501Zm0-25.0586a14.86425,14.86425,0,1,0,14.8584,14.8701A14.87188,14.87188,0,0,0,218.30569,131.4424Zm0,25.0586a10.19435,10.19435,0,1,1,10.1889-10.1885A10.19536,10.19536,0,0,1,218.30569,156.501Zm0-25.0586a14.86425,14.86425,0,1,0,14.8584,14.8701A14.87188,14.87188,0,0,0,218.30569,131.4424Zm0,25.0586a10.19435,10.19435,0,1,1,10.1889-10.1885A10.19536,10.19536,0,0,1,218.30569,156.501Zm0-25.0586a14.86425,14.86425,0,1,0,14.8584,14.8701A14.87188,14.87188,0,0,0,218.30569,131.4424Zm0,25.0586a10.19435,10.19435,0,1,1,10.1889-10.1885A10.19536,10.19536,0,0,1,218.30569,156.501Zm0-25.0586a14.86425,14.86425,0,1,0,14.8584,14.8701A14.87188,14.87188,0,0,0,218.30569,131.4424Zm0,25.0586a10.19435,10.19435,0,1,1,10.1889-10.1885A10.19536,10.19536,0,0,1,218.30569,156.501Zm0-25.0586a14.86425,14.86425,0,1,0,14.8584,14.8701A14.87188,14.87188,0,0,0,218.30569,131.4424Zm0,25.0586a10.19435,10.19435,0,1,1,10.1889-10.1885A10.19536,10.19536,0,0,1,218.30569,156.501Zm0-25.0586a14.86425,14.86425,0,1,0,14.8584,14.8701A14.87188,14.87188,0,0,0,218.30569,131.4424Zm0,25.0586a10.19435,10.19435,0,1,1,10.1889-10.1885A10.19536,10.19536,0,0,1,218.30569,156.501Zm0-25.0586a14.86425,14.86425,0,1,0,14.8584,14.8701A14.87188,14.87188,0,0,0,218.30569,131.4424Zm0,25.0586a10.19435,10.19435,0,1,1,10.1889-10.1885A10.19536,10.19536,0,0,1,218.30569,156.501Zm0-25.0586a14.86425,14.86425,0,1,0,14.8584,14.8701A14.87188,14.87188,0,0,0,218.30569,131.4424Zm0,25.0586a10.19435,10.19435,0,1,1,10.1889-10.1885A10.19536,10.19536,0,0,1,218.30569,156.501Zm0-25.0586a14.86425,14.86425,0,1,0,14.8584,14.8701A14.87188,14.87188,0,0,0,218.30569,131.4424Zm0,25.0586a10.19435,10.19435,0,1,1,10.1889-10.1885A10.19536,10.19536,0,0,1,218.30569,156.501Zm0-25.0586a14.86425,14.86425,0,1,0,14.8584,14.8701A14.87188,14.87188,0,0,0,218.30569,131.4424Zm0,25.0586a10.19435,10.19435,0,1,1,10.1889-10.1885A10.19536,10.19536,0,0,1,218.30569,156.501Zm0-25.0586a14.86425,14.86425,0,1,0,14.8584,14.8701A14.87188,14.87188,0,0,0,218.30569,131.4424Zm0,25.0586a10.19435,10.19435,0,1,1,10.1889-10.1885A10.19536,10.19536,0,0,1,218.30569,156.501Zm0-25.0586a14.86425,14.86425,0,1,0,14.8584,14.8701A14.87188,14.87188,0,0,0,218.30569,131.4424Zm0,25.0586a10.19435,10.19435,0,1,1,10.1889-10.1885A10.19536,10.19536,0,0,1,218.30569,156.501Zm0-25.0586a14.86425,14.86425,0,1,0,14.8584,14.8701A14.87188,14.87188,0,0,0,218.30569,131.4424Zm0,25.0586a10.19435,10.19435,0,1,1,10.1889-10.1885A10.19536,10.19536,0,0,1,218.30569,156.501Zm0-25.0586a14.86425,14.86425,0,1,0,14.8584,14.8701A14.87188,14.87188,0,0,0,218.30569,131.4424Zm0,25.0586a10.19435,10.19435,0,1,1,10.1889-10.1885A10.19536,10.19536,0,0,1,218.30569,156.501Zm0-25.0586a14.86425,14.86425,0,1,0,14.8584,14.8701A14.87188,14.87188,0,0,0,218.30569,131.4424Zm0,25.0586a10.19435,10.19435,0,1,1,10.1889-10.1885A10.19536,10.19536,0,0,1,218.30569,156.501Zm0-25.0586a14.86425,14.86425,0,1,0,14.8584,14.8701A14.87188,14.87188,0,0,0,218.30569,131.4424Zm0,25.0586a10.19435,10.19435,0,1,1,10.1889-10.1885A10.19536,10.19536,0,0,1,218.30569,156.501Zm0-25.0586a14.86425,14.86425,0,1,0,14.8584,14.8701A14.87188,14.87188,0,0,0,218.30569,131.4424Zm0,25.0586a10.19435,10.19435,0,1,1,10.1889-10.1885A10.19536,10.19536,0,0,1,218.30569,156.501Zm0-25.0586a14.86425,14.86425,0,1,0,14.8584,14.8701A14.87188,14.87188,0,0,0,218.30569,131.4424Zm0,25.0586a10.19435,10.19435,0,1,1,10.1889-10.1885A10.19536,10.19536,0,0,1,218.30569,156.501Zm0-25.0586a14.86425,14.86425,0,1,0,14.8584,14.8701A14.87188,14.87188,0,0,0,218.30569,131.4424Zm0,25.0586a10.19435,10.19435,0,1,1,10.1889-10.1885A10.19536,10.19536,0,0,1,218.30569,156.501Zm0-25.0586a14.86425,14.86425,0,1,0,14.8584,14.8701A14.87188,14.87188,0,0,0,218.30569,131.4424Zm0,25.0586a10.19435,10.19435,0,1,1,10.1889-10.1885A10.19536,10.19536,0,0,1,218.30569,156.501Zm0-25.0586a14.86425,14.86425,0,1,0,14.8584,14.8701A14.87188,14.87188,0,0,0,218.30569,131.4424Zm0,25.0586a10.19435,10.19435,0,1,1,10.1889-10.1885A10.19536,10.19536,0,0,1,218.30569,156.501Zm0-25.0586a14.86425,14.86425,0,1,0,14.8584,14.8701A14.87188,14.87188,0,0,0,218.30569,131.4424Zm0,25.0586a10.19435,10.19435,0,1,1,10.1889-10.1885A10.19536,10.19536,0,0,1,218.30569,156.501Zm0-25.0586a14.86425,14.86425,0,1,0,14.8584,14.8701A14.87188,14.87188,0,0,0,218.30569,131.4424Zm0,25.0586a10.19435,10.19435,0,1,1,10.1889-10.1885A10.19536,10.19536,0,0,1,218.30569,156.501Zm0-25.0586a14.86425,14.86425,0,1,0,14.8584,14.8701A14.87188,14.87188,0,0,0,218.30569,131.4424Zm0,25.0586a10.19435,10.19435,0,1,1,10.1889-10.1885A10.19536,10.19536,0,0,1,218.30569,156.501Zm0-25.0586a14.86425,14.86425,0,1,0,14.8584,14.8701A14.87188,14.87188,0,0,0,218.30569,131.4424Zm0,25.0586a10.19435,10.19435,0,1,1,10.1889-10.1885A10.19536,10.19536,0,0,1,218.30569,156.501Zm0-25.0586a14.86425,14.86425,0,1,0,14.8584,14.8701A14.87188,14.87188,0,0,0,218.30569,131.4424Zm0,25.0586a10.19435,10.19435,0,1,1,10.1889-10.1885A10.19536,10.19536,0,0,1,218.30569,156.501Zm0-25.0586a14.86425,14.86425,0,1,0,14.8584,14.8701A14.87188,14.87188,0,0,0,218.30569,131.4424Zm0,25.0586a10.19435,10.19435,0,1,1,10.1889-10.1885A10.19536,10.19536,0,0,1,218.30569,156.501Zm0-25.0586a14.86425,14.86425,0,1,0,14.8584,14.8701A14.87188,14.87188,0,0,0,218.30569,131.4424Zm0,25.0586a10.19435,10.19435,0,1,1,10.1889-10.1885A10.19536,10.19536,0,0,1,218.30569,156.501Zm71.2475-25.3374-2.2436-3.9302-2.6695-4.5845-4.16009-7.229-5.24031-9.0849v-.0245l-4.1958-7.2407-.6557-1.1284-4.2573-7.3745-1.5752-2.7168-.1221-.2427h-51.938L186.5518,132.5581l4.9243,8.5151.8613,1.4551,5.4214,9.437,4.66989,8.0415c0,.024,0,.024.0117.024l2.584,4.5244,3.6504,6.3076,3.8208,6.6465h51.938l21.6387-37.5279,4.2934-7.4233Zm-18.5708-24.4282,1.08061,1.8432v.0244l4.79,8.2964,1.09229,1.8921a10.19922,10.19922,0,1,1-9.9214-12.5054A9.85,9.85,0,0,1,270.98239,106.7354Zm-3.4072-5.9073.0601.0967.4121.7402h-.0606A14.82187,14.82187,0,1,0,280.833,123.8008l.50929.8735a15.65407,15.65407,0,1,1-13.7671-23.8462ZM202.623,146.3125a15.6768,15.6768,0,1,1,15.68269,15.6592A15.69185,15.69185,0,0,1,202.623,146.3125Zm79.33789-6.9741L262.189,173.6274H220.76809a6.10547,6.10547,0,0,0,2.9956-4.0874,22.28261,22.28261,0,0,0,6.23531-2.4018.01145.01145,0,0,0,.01169-.0117,6.00836,6.00836,0,0,0,4.8282,2.4018,6.08374,6.08374,0,0,0,3.86811-10.7832,23.63728,23.63728,0,0,0,2.93559-7.3135,6.08529,6.08529,0,0,0-.4243-11.9599V139.46a23.68465,23.68465,0,0,0-2.6197-5.8101,6.08272,6.08272,0,1,0-8.4907-8.127h-.0122a23.708,23.708,0,0,0-5.61669-2.3041h-.01171a6.07679,6.07679,0,0,0-12.1294-.0606,24.01639,24.01639,0,0,0-5.6885,2.2681,6.08176,6.08176,0,1,0-8.5747,8.1264v.0122a23.28527,23.28527,0,0,0-2.80219,6.3438l-4.2334-7.3506L214.752,91.4888h47.437l.10929.2304.0616.1089a5.62,5.62,0,0,0-.3033,1.5044,24.14365,24.14365,0,0,0-5.6884,2.2798,6.08644,6.08644,0,1,0-8.564,8.1392,23.80769,23.80769,0,0,0-2.9233,6.7798,6.08653,6.08653,0,0,0,.0605,12.0932c.0132.0117.0132.0117.0132.0244a24.76858,24.76858,0,0,0,2.3638,5.7613,6.08448,6.08448,0,1,0,8.28461,8.4663.01145.01145,0,0,0,.01169.0117,23.50682,23.50682,0,0,0,5.8838,2.5718h.0113a6.09391,6.09391,0,0,0,11.9839.2544,22.35556,22.35556,0,0,0,6.2099-2.4019,5.98866,5.98866,0,0,0,2.3657,1.8442Z"/><path d="M405.58979,40.959V39.0444h27.5518V40.959h-12.6924V75.0078h-2.2168V40.959Z"/><path d="M437.17089,39.0444V54.6592h.1006a8.26178,8.26178,0,0,1,1.43551-2.5943,9.5331,9.5331,0,0,1,4.85939-3.1479,11.16208,11.16208,0,0,1,2.97361-.4028,11.73827,11.73827,0,0,1,3.85159.5542,7.54316,7.54316,0,0,1,2.5947,1.4604,7.058,7.058,0,0,1,1.586,2.04,9.495,9.495,0,0,1,.832,2.2916,13.78757,13.78757,0,0,1,.30271,2.2417q.04843,1.0839.04889,1.8886V75.0078h-1.9131V58.6382a23.95488,23.95488,0,0,0-.1514-2.4429,7.35122,7.35122,0,0,0-.8809-2.7705,6.41241,6.41241,0,0,0-2.2167-2.2915,7.54354,7.54354,0,0,0-4.1045-.957,9.16959,9.16959,0,0,0-3.9034.8061,8.44122,8.44122,0,0,0-2.9472,2.2412,9.88008,9.88008,0,0,0-1.8389,3.4248,14.34864,14.34864,0,0,0-.6289,4.3575V75.0078h-1.9141V39.0444Z"/><path d="M462.15329,62.3145a15.21324,15.21324,0,0,0,.5274,4.3823,10.94678,10.94678,0,0,0,1.789,3.7275,8.99854,8.99854,0,0,0,2.9971,2.5684,8.77926,8.77926,0,0,0,4.2061.957,9.22492,9.22492,0,0,0,6.11911-2.04,9.44625,9.44625,0,0,0,3.14749-5.6656h1.914a10.97161,10.97161,0,0,1-3.6504,6.9751,12.853,12.853,0,0,1-12.5176,1.3604,10.12606,10.12606,0,0,1-3.60049-2.8208,12.33244,12.33244,0,0,1-2.16611-4.1807,16.17925,16.17925,0,0,1-.6806-5.0615,18.48755,18.48755,0,0,1,.6299-5.188,13.46669,13.46669,0,0,1,2.1152-4.4829,10.84408,10.84408,0,0,1,3.6025-3.1479,10.446,10.446,0,0,1,5.087-1.1836,11.59651,11.59651,0,0,1,5.2382,1.1079,10.06844,10.06844,0,0,1,3.626,2.997,12.22058,12.22058,0,0,1,2.0391,4.4073,17.6813,17.6813,0,0,1,.4785,5.2881Zm18.9893-1.6617a13.16358,13.16358,0,0,0-.7061-3.9287,10.36754,10.36754,0,0,0-1.8633-3.3491,9.31172,9.31172,0,0,0-2.94719-2.3169,8.61751,8.61751,0,0,0-3.95311-.8818,8.02094,8.02094,0,0,0-3.8536.9062,9.48279,9.48279,0,0,0-2.8964,2.3931,11.862,11.862,0,0,0-1.9131,3.3745,13.91329,13.91329,0,0,0-.8565,3.8027Z"/><path d="M501.89259,39.0444h2.2158V75.0078h-2.2158Z"/><path d="M510.10159,49.1182h1.914v5.541h.1006a8.28191,8.28191,0,0,1,1.4356-2.5943,9.55164,9.55164,0,0,1,4.8603-3.1479,11.15,11.15,0,0,1,2.9727-.4028,11.74446,11.74446,0,0,1,3.8525.5542,7.54331,7.54331,0,0,1,2.59471,1.4604,7.07374,7.07374,0,0,1,1.586,2.04,9.4926,9.4926,0,0,1,.831,2.2916,13.58107,13.58107,0,0,1,.30279,2.2417q.04832,1.0839.0498,1.8886V75.0078h-1.9131V58.6382a23.67251,23.67251,0,0,0-.1514-2.4429,7.35465,7.35465,0,0,0-.8818-2.7705,6.40434,6.40434,0,0,0-2.2168-2.2915,7.54119,7.54119,0,0,0-4.10449-.957,9.16915,9.16915,0,0,0-3.90331.8061,8.44988,8.44988,0,0,0-2.9473,2.2412,9.87978,9.87978,0,0,0-1.8379,3.4248,14.34826,14.34826,0,0,0-.6299,4.3575V75.0078h-1.914Z"/><path d="M545.76169,50.7808h-5.6416V68.8633a6.99891,6.99891,0,0,0,.3535,2.4673,2.67641,2.67641,0,0,0,1.083,1.3603,4.27842,4.27842,0,0,0,1.7627.5791,15.22033,15.22033,0,0,0,2.3916.0752v1.6626a17.84971,17.84971,0,0,1-2.8447-.0254,5.70309,5.70309,0,0,1-2.4433-.7553,4.42957,4.42957,0,0,1-1.6875-1.8887,7.12686,7.12686,0,0,1-.52839-3.4751V50.7808h-4.78411V49.1182H538.207V41.0596h1.91309v8.0586h5.6416Z"/><path d="M550.04389,62.3145a15.21672,15.21672,0,0,0,.5274,4.3823,10.94529,10.94529,0,0,0,1.7891,3.7275,8.99741,8.99741,0,0,0,2.997,2.5684,8.7785,8.7785,0,0,0,4.2051.957,9.22743,9.22743,0,0,0,6.1201-2.04,9.44117,9.44117,0,0,0,3.1475-5.6656h1.914a10.97242,10.97242,0,0,1-3.6513,6.9751,12.85108,12.85108,0,0,1-12.5166,1.3604,10.12558,10.12558,0,0,1-3.6006-2.8208,12.35009,12.35009,0,0,1-2.167-4.1807,16.20841,16.20841,0,0,1-.6797-5.0615,18.52708,18.52708,0,0,1,.6289-5.188,13.48806,13.48806,0,0,1,2.11621-4.4829,10.84185,10.84185,0,0,1,3.60159-3.1479,10.44836,10.44836,0,0,1,5.0869-1.1836,11.59132,11.59132,0,0,1,5.2383,1.1079,10.05329,10.05329,0,0,1,3.626,2.997,12.22031,12.22031,0,0,1,2.04,4.4073,17.71393,17.71393,0,0,1,.4785,5.2881Zm18.9883-1.6617a13.13058,13.13058,0,0,0-.7051-3.9287,10.35075,10.35075,0,0,0-1.8632-3.3491,9.31316,9.31316,0,0,0-2.9473-2.3169,8.62164,8.62164,0,0,0-3.9541-.8818,8.01371,8.01371,0,0,0-3.85249.9062,9.47142,9.47142,0,0,0-2.89651,2.3931,11.86456,11.86456,0,0,0-1.9141,3.3745,13.95167,13.95167,0,0,0-.8555,3.8027Z"/><path d="M577.34279,54.8604h.1504a6.14049,6.14049,0,0,1,1.3105-2.3672,9.62424,9.62424,0,0,1,2.2656-1.9136,10.81805,10.81805,0,0,1,2.9463-1.2349,12.06694,12.06694,0,0,1,3.40041-.3769v1.9135a9.07086,9.07086,0,0,0-3.45121.3028,8.367,8.367,0,0,0-3.7011,2.2158,17.84247,17.84247,0,0,0-1.2344,1.4605,7.11347,7.11347,0,0,0-.8818,1.5615,9.85587,9.85587,0,0,0-.5528,1.9135,16.53,16.53,0,0,0-.2519,2.5191V75.0078h-1.9141V49.1182h1.9141Z"/><path d="M589.43069,49.1182h1.914v5.541h.0996a8.30192,8.30192,0,0,1,1.4356-2.5943,9.54878,9.54878,0,0,1,4.86129-3.1479,11.13766,11.13766,0,0,1,2.9717-.4028,11.74029,11.74029,0,0,1,3.8525.5542,7.53,7.53,0,0,1,2.5938,1.4604,7.04236,7.04236,0,0,1,1.5869,2.04,9.44967,9.44967,0,0,1,.831,2.2916,13.68866,13.68866,0,0,1,.3028,2.2417q.0498,1.0839.0498,1.8886V75.0078h-1.9131V58.6382a23.73208,23.73208,0,0,0-.1523-2.4429,7.33521,7.33521,0,0,0-.8799-2.7705,6.42124,6.42124,0,0,0-2.2168-2.2915,7.547,7.547,0,0,0-4.1055-.957,9.16493,9.16493,0,0,0-3.9023.8061,8.45436,8.45436,0,0,0-2.9483,2.2412,9.89651,9.89651,0,0,0-1.83789,3.4248,14.3797,14.3797,0,0,0-.6289,4.3575V75.0078h-1.914Z"/><path d="M634.66018,70.2227c0,.3701.00782.7387.0253,1.1079a3.67259,3.67259,0,0,0,.1768,1.0078,1.50375,1.50375,0,0,0,.5029.7304,1.60473,1.60473,0,0,0,1.00782.2764,9.13051,9.13051,0,0,0,1.41018-.1509v1.6123a6.9367,6.9367,0,0,1-.78118.1504,5.80586,5.80586,0,0,1-.78032.0508,4.60033,4.60033,0,0,1-1.8379-.3022,2.4166,2.4166,0,0,1-1.0332-.8062,2.95717,2.95717,0,0,1-.4785-1.1831,8.18094,8.18094,0,0,1-.125-1.4863V69.8701h-.1016a7.98088,7.98088,0,0,1-1.3086,2.1909,9.26872,9.26872,0,0,1-2.0908,1.8384,10.36128,10.36128,0,0,1-2.7959,1.2593,12.2551,12.2551,0,0,1-3.4248.4536,14.63978,14.63978,0,0,1-3.39938-.3779,7.70808,7.70808,0,0,1-2.77052-1.2339,5.73274,5.73274,0,0,1-1.8389-2.2417,8.05421,8.05421,0,0,1-.6553-3.4502,6.99424,6.99424,0,0,1,.8819-3.7022,6.648,6.648,0,0,1,2.2675-2.2666,9.83161,9.83161,0,0,1,3.07232-1.1835,29.86865,29.86865,0,0,1,3.29788-.5035q3.2241-.2007,5.0127-.4785a6.67151,6.67151,0,0,0,2.6445-.8564,2.39409,2.39409,0,0,0,1.0576-1.5108,12.72182,12.72182,0,0,0,.2012-2.5434,5.29741,5.29741,0,0,0-.3018-1.6621,4.13779,4.13779,0,0,0-1.084-1.6626,6.02135,6.02135,0,0,0-2.1904-1.2588,10.97536,10.97536,0,0,0-3.6269-.5039,8.5495,8.5495,0,0,0-5.6153,1.7627,6.833,6.833,0,0,0-2.3428,5.1377h-1.914a8.478,8.478,0,0,1,2.7451-6.4219q2.543-2.1402,7.127-2.1406a18.04843,18.04843,0,0,1,3.3251.3022,8.897,8.897,0,0,1,2.8965,1.0576,5.80888,5.80888,0,0,1,2.0645,2.065,6.42435,6.42435,0,0,1,.7803,3.3247Zm-1.9131-9.9224a3.33756,3.33756,0,0,1-1.5625.9819,11.892,11.892,0,0,1-2.291.4785q-1.28475.1509-2.6944.252-1.4121.10185-2.8203.3018a11.17081,11.17081,0,0,0-5.2646,1.7382,4.90376,4.90376,0,0,0-1.8389,4.2559,5.36253,5.36253,0,0,0,1.6875,4.0044,7.08739,7.08739,0,0,0,5.1133,1.6367,9.812,9.812,0,0,0,5.1884-1.1836,9.16315,9.16315,0,0,0,2.92-2.7197,8.367,8.367,0,0,0,1.2851-2.9717,12.68733,12.68733,0,0,0,.2774-1.9394Z"/><path d="M650.27338,50.7808h-5.6406V68.8633a6.99964,6.99964,0,0,0,.3526,2.4673,2.68094,2.68094,0,0,0,1.083,1.3603,4.27737,4.27737,0,0,0,1.7627.5791,15.22434,15.22434,0,0,0,2.3916.0752v1.6626a17.85087,17.85087,0,0,1-2.8448-.0254,5.69524,5.69524,0,0,1-2.4424-.7553,4.43212,4.43212,0,0,1-1.6884-1.8887,7.13767,7.13767,0,0,1-.5283-3.4751V50.7808h-4.7852V49.1182h4.7852V41.0596h1.914v8.0586h5.6406Z"/><path d="M654.25288,44.2329V39.0444H656.167v5.1885Zm0,30.7749V49.1182H656.167V75.0078Z"/><path d="M661.834,56.8501a13.06969,13.06969,0,0,1,2.291-4.3066,10.89517,10.89517,0,0,1,3.72748-2.9468,12.49582,12.49582,0,0,1,10.1748,0,10.91943,10.91943,0,0,1,3.7266,2.9468,13.089,13.089,0,0,1,2.291,4.3066,17.03,17.03,0,0,1,.7822,5.2134,17.26437,17.26437,0,0,1-.7822,5.2378,12.74656,12.74656,0,0,1-2.291,4.3061,11.03091,11.03091,0,0,1-3.7266,2.9219,12.49055,12.49055,0,0,1-10.1748,0,11.00608,11.00608,0,0,1-3.72748-2.9219,12.72832,12.72832,0,0,1-2.291-4.3061,17.23262,17.23262,0,0,1-.78132-5.2378A16.999,16.999,0,0,1,661.834,56.8501Zm1.78708,9.6709a12.08553,12.08553,0,0,0,1.9141,3.8027,9.31012,9.31012,0,0,0,3.123,2.6436,9.81994,9.81994,0,0,0,8.5625,0,9.34017,9.34017,0,0,0,3.1231-2.6436,12.08541,12.08541,0,0,0,1.913-3.8027,15.46552,15.46552,0,0,0,0-8.915,12.0955,12.0955,0,0,0-1.913-3.8038,9.34564,9.34564,0,0,0-3.1231-2.6435,9.81994,9.81994,0,0,0-8.5625,0,9.31555,9.31555,0,0,0-3.123,2.6435,12.09562,12.09562,0,0,0-1.9141,3.8038,15.51079,15.51079,0,0,0,0,8.915Z"/><path d="M689.30858,49.1182h1.9141v5.541h.0996a8.29968,8.29968,0,0,1,1.4355-2.5943,9.54887,9.54887,0,0,1,4.8613-3.1479,11.14874,11.14874,0,0,1,2.9717-.4028,11.7504,11.7504,0,0,1,3.8535.5542,7.53337,7.53337,0,0,1,2.5928,1.4604,7.04243,7.04243,0,0,1,1.58692,2.04,9.49655,9.49655,0,0,1,.83208,2.2916,13.90622,13.90622,0,0,1,.3027,2.2417q.04833,1.0839.0498,1.8886V75.0078h-1.9141V58.6382a23.95422,23.95422,0,0,0-.1513-2.4429,7.35122,7.35122,0,0,0-.8809-2.7705,6.40743,6.40743,0,0,0-2.2178-2.2915,7.53861,7.53861,0,0,0-4.10448-.957,9.1681,9.1681,0,0,0-3.90232.8061,8.45071,8.45071,0,0,0-2.9473,2.2412,9.88139,9.88139,0,0,0-1.8388,3.4248,14.37659,14.37659,0,0,0-.6289,4.3575V75.0078h-1.9141Z"/><path d="M734.53808,70.2227c0,.3701.0088.7387.0244,1.1079a3.74862,3.74862,0,0,0,.1777,1.0078,1.50991,1.50991,0,0,0,.503.7304,1.60453,1.60453,0,0,0,1.00782.2764,9.13091,9.13091,0,0,0,1.41008-.1509v1.6123a6.916,6.916,0,0,1-.7802.1504,5.81643,5.81643,0,0,1-.7803.0508,4.60565,4.60565,0,0,1-1.8389-.3022,2.4172,2.4172,0,0,1-1.0332-.8062,2.97047,2.97047,0,0,1-.47748-1.1831,8.08891,8.08891,0,0,1-.126-1.4863V69.8701h-.10162a7.98088,7.98088,0,0,1-1.3086,2.1909,9.28294,9.28294,0,0,1-2.08978,1.8384,10.38226,10.38226,0,0,1-2.79692,1.2593,12.245,12.245,0,0,1-3.4248.4536,14.64008,14.64008,0,0,1-3.3994-.3779,7.70891,7.70891,0,0,1-2.7705-1.2339,5.7336,5.7336,0,0,1-1.8389-2.2417,8.05518,8.05518,0,0,1-.6543-3.4502,6.99436,6.99436,0,0,1,.8809-3.7022,6.64844,6.64844,0,0,1,2.2676-2.2666,9.83947,9.83947,0,0,1,3.0722-1.1835,29.90865,29.90865,0,0,1,3.2979-.5035q3.2241-.2007,5.0127-.4785a6.67185,6.67185,0,0,0,2.64452-.8564,2.39044,2.39044,0,0,0,1.05758-1.5108,12.734,12.734,0,0,0,.2002-2.5434,5.29456,5.29456,0,0,0-.30078-1.6621,4.12856,4.12856,0,0,0-1.08392-1.6626,6.02536,6.02536,0,0,0-2.1895-1.2588,10.97769,10.97769,0,0,0-3.6279-.5039,8.55154,8.55154,0,0,0-5.6153,1.7627,6.833,6.833,0,0,0-2.3427,5.1377h-1.9141q.2022-4.27965,2.7461-6.4219,2.54148-2.1402,7.126-2.1406a18.03438,18.03438,0,0,1,3.3252.3022,8.89886,8.89886,0,0,1,2.8965,1.0576,5.80143,5.80143,0,0,1,2.0644,2.065,6.42435,6.42435,0,0,1,.7803,3.3247ZM732.625,60.3003a3.33733,3.33733,0,0,1-1.56252.9819,11.8904,11.8904,0,0,1-2.291.4785c-.85548.1006-1.7559.1851-2.6944.252q-1.4121.10185-2.8203.3018a11.17519,11.17519,0,0,0-5.2646,1.7382,4.90321,4.90321,0,0,0-1.8379,4.2559,5.35885,5.35885,0,0,0,1.6875,4.0044,7.0831,7.0831,0,0,0,5.1123,1.6367,9.80632,9.80632,0,0,0,5.1875-1.1836,9.15709,9.15709,0,0,0,2.9209-2.7197,8.36733,8.36733,0,0,0,1.2852-2.9717,12.697,12.697,0,0,0,.27732-1.9394Z"/><path d="M743,39.0444V75.0078h-1.915V39.0444Z"/><path d="M437.38089,115.5537a11.25316,11.25316,0,0,0-1.1455-4.7012,9.84406,9.84406,0,0,0-2.792-3.3491,12.15943,12.15943,0,0,0-4.2012-2.0278,19.92183,19.92183,0,0,0-5.3174-.6753,19.16791,19.16791,0,0,0-3.792.4116,12.01219,12.01219,0,0,0-3.75979,1.439,8.51971,8.51971,0,0,0-2.84961,2.7622,7.81687,7.81687,0,0,0-1.1171,4.3188,6.50663,6.50663,0,0,0,1.2353,4.1138,8.97971,8.97971,0,0,0,3.23141,2.5562,21.25026,21.25026,0,0,0,4.58309,1.5566q2.5854.58815,5.2304,1.1167,2.7012.5295,5.2588,1.2637a18.04312,18.04312,0,0,1,4.583,1.998,9.97105,9.97105,0,0,1,3.26171,3.2612,9.58852,9.58852,0,0,1,1.23439,5.1119,10.14467,10.14467,0,0,1-1.4101,5.5234,11.907,11.907,0,0,1-3.5557,3.6436,14.77494,14.77494,0,0,1-4.7598,2.0278,21.913,21.913,0,0,1-5.0234.6167,28.99345,28.99345,0,0,1-6.9346-.7935,15.51934,15.51934,0,0,1-5.6416-2.5854,12.4793,12.4793,0,0,1-3.79-4.6128,15.02036,15.02036,0,0,1-1.3223-6.875h2.586a11.97163,11.97163,0,0,0,.9707,5.8472,10.18328,10.18328,0,0,0,3.2597,3.9072,13.82729,13.82729,0,0,0,4.9365,2.2036,25.38971,25.38971,0,0,0,5.9356.6763,18.82249,18.82249,0,0,0,4.0244-.4703,12.40783,12.40783,0,0,0,3.9375-1.5874,9.705,9.705,0,0,0,2.9961-2.9379,8.14337,8.14337,0,0,0,1.2051-4.5835,7.09887,7.09887,0,0,0-1.2334-4.3189,9.06786,9.06786,0,0,0-3.2627-2.7036,21.04766,21.04766,0,0,0-4.583-1.645q-2.55615-.6168-5.2588-1.1455-2.64555-.52965-5.2305-1.2339a17.98787,17.98787,0,0,1-4.583-1.9102,9.81627,9.81627,0,0,1-3.2314-3.1142,8.88458,8.88458,0,0,1-1.2344-4.9068,9.95207,9.95207,0,0,1,1.26371-5.1416,10.35427,10.35427,0,0,1,3.29-3.4673,14.609,14.609,0,0,1,4.55469-1.9389,20.98137,20.98137,0,0,1,4.9951-.6167,24.56383,24.56383,0,0,1,6.1397.7344,14.64306,14.64306,0,0,1,4.996,2.2915,11.47114,11.47114,0,0,1,3.4366,4.0254,14.22945,14.22945,0,0,1,1.4697,5.935Z"/><path d="M446.10639,124.3389a15.25153,15.25153,0,0,1,2.6739-5.0244,12.71061,12.71061,0,0,1,4.3476-3.438,14.57959,14.57959,0,0,1,11.87011,0,12.71373,12.71373,0,0,1,4.34869,3.438,15.268,15.268,0,0,1,2.6738,5.0244,19.88718,19.88718,0,0,1,.9102,6.082,20.16667,20.16667,0,0,1-.9102,6.1113,14.88225,14.88225,0,0,1-2.6738,5.024,12.843,12.843,0,0,1-4.34869,3.4082,14.5701,14.5701,0,0,1-11.87011,0,12.83982,12.83982,0,0,1-4.3476-3.4082,14.86663,14.86663,0,0,1-2.6739-5.024,20.10869,20.10869,0,0,1-.9111-6.1113A19.83022,19.83022,0,0,1,446.10639,124.3389Zm2.086,11.2822a14.06666,14.06666,0,0,0,2.2334,4.4365,10.84907,10.84907,0,0,0,3.6426,3.085,11.45464,11.45464,0,0,0,9.9902,0,10.88687,10.88687,0,0,0,3.6426-3.085,14.08765,14.08765,0,0,0,2.2334-4.4365,18.09047,18.09047,0,0,0,0-10.4009,14.10632,14.10632,0,0,0-2.2334-4.437,10.88543,10.88543,0,0,0-3.6426-3.0845,11.45914,11.45914,0,0,0-9.9902,0,10.84764,10.84764,0,0,0-3.6426,3.0845,14.08527,14.08527,0,0,0-2.2334,4.437,18.06555,18.06555,0,0,0,0,10.4009Z"/><path d="M500.90229,124.6616a8.76965,8.76965,0,0,0-1.02829-3.5259,7.87087,7.87087,0,0,0-2.20311-2.5263,10.02237,10.02237,0,0,0-3.1436-1.5279,13.55649,13.55649,0,0,0-3.8505-.5288,10.547,10.547,0,0,0-4.9942,1.146,10.995,10.995,0,0,0-3.6435,3.0557,13.866,13.866,0,0,0-2.2325,4.3481,16.6997,16.6997,0,0,0-.76459,5.0245,21.357,21.357,0,0,0,.706,5.6406,12.7772,12.7772,0,0,0,2.17389,4.4956,10.11345,10.11345,0,0,0,3.6426,2.9678,11.55924,11.55924,0,0,0,5.1123,1.0581,10.45784,10.45784,0,0,0,7.082-2.6446,10.08682,10.08682,0,0,0,2.2627-2.9673,12.11636,12.11636,0,0,0,1.1748-3.7905h2.2324a13.73541,13.73541,0,0,1-1.498,4.8184,12.4572,12.4572,0,0,1-2.8203,3.5552,11.92929,11.92929,0,0,1-3.82039,2.2036,13.67392,13.67392,0,0,1-4.61321.7641,13.8621,13.8621,0,0,1-6.3164-1.3227,12.08053,12.08053,0,0,1-4.2901-3.5547,15.10769,15.10769,0,0,1-2.4678-5.1416,23.038,23.038,0,0,1-.792-6.082,19.3583,19.3583,0,0,1,.9102-5.9942,14.63944,14.63944,0,0,1,2.6729-4.9355,12.68226,12.68226,0,0,1,4.3486-3.3496,13.61943,13.61943,0,0,1,5.9346-1.2339,16.60662,16.60662,0,0,1,4.61321.6167,11.93838,11.93838,0,0,1,3.82039,1.851,9.75882,9.75882,0,0,1,2.7324,3.1143,11.07,11.07,0,0,1,1.292,4.4658Z"/><path d="M509.18849,109.6187v-6.0523h2.2324v6.0523Zm0,35.9038V115.3184h2.2324v30.2041Z"/><path d="M519.41209,130.7148a17.7786,17.7786,0,0,0,.6172,5.1123,12.80909,12.80909,0,0,0,2.0869,4.3482,10.50555,10.50555,0,0,0,3.4961,2.9966,10.24271,10.24271,0,0,0,4.9072,1.1172,10.76668,10.76668,0,0,0,7.1397-2.3804,11.032,11.032,0,0,0,3.67281-6.6108h2.23249a12.80227,12.80227,0,0,1-4.2598,8.1386,14.99265,14.99265,0,0,1-14.6026,1.5864,11.80759,11.80759,0,0,1-4.20209-3.291,14.42065,14.42065,0,0,1-2.52731-4.8769,18.87058,18.87058,0,0,1-.793-5.9053,21.50133,21.50133,0,0,1,.73531-6.0527,15.69217,15.69217,0,0,1,2.46779-5.23,12.64645,12.64645,0,0,1,4.20121-3.6729,12.19212,12.19212,0,0,1,5.93549-1.3803,13.52721,13.52721,0,0,1,6.1114,1.2925,11.75888,11.75888,0,0,1,4.2304,3.496,14.31288,14.31288,0,0,1,2.3799,5.1416,20.69858,20.69858,0,0,1,.5576,6.1709Zm22.1533-1.9394a15.24751,15.24751,0,0,0-.8213-4.584,12.0672,12.0672,0,0,0-2.1757-3.9072,10.83726,10.83726,0,0,0-3.4375-2.7031,10.055,10.055,0,0,0-4.6114-1.0284,9.35492,9.35492,0,0,0-4.4961,1.0577,11.07235,11.07235,0,0,0-3.3789,2.7915,13.86042,13.86042,0,0,0-2.2324,3.937,16.32271,16.32271,0,0,0-1,4.4365Z"/><path d="M560.13479,117.2578h-6.5801v21.0957a8.15267,8.15267,0,0,0,.4111,2.8794,3.12261,3.12261,0,0,0,1.2627,1.5864,4.98663,4.98663,0,0,0,2.0567.6753,17.73194,17.73194,0,0,0,2.7919.0889v1.939a20.83728,20.83728,0,0,1-3.3212-.0298,6.66325,6.66325,0,0,1-2.8496-.8804,5.18,5.18,0,0,1-1.9688-2.2041,8.33185,8.33185,0,0,1-.6162-4.0547V117.2578h-5.582v-1.9394h5.582V105.917h2.2334v9.4014h6.5801Z"/><path d="M560.60549,115.3184H563.249l11.22269,27.56,10.3428-27.56h2.5273l-12.9287,33.4355q-.9405,2.234-1.7334,3.8491a6.59208,6.59208,0,0,1-1.791,2.3804,5.525,5.525,0,0,1-2.8203,1.1455,35.452,35.452,0,0,1-4.2315.2061v-1.9395a14.513,14.513,0,0,0,3.7608-.3818,5.83687,5.83687,0,0,0,2.52631-1.5567,7.55013,7.55013,0,0,0,1.35159-2.3803q.70605-1.73445,1.7637-4.73Z"/><path d="M606.17478,124.3389a15.25318,15.25318,0,0,1,2.6738-5.0244,12.711,12.711,0,0,1,4.3477-3.438,14.57956,14.57956,0,0,1,11.8701,0,12.736,12.736,0,0,1,4.34962,3.438,15.32226,15.32226,0,0,1,2.67288,5.0244,19.89052,19.89052,0,0,1,.91012,6.082,20.17007,20.17007,0,0,1-.91012,6.1113,14.93375,14.93375,0,0,1-2.67288,5.024,12.86578,12.86578,0,0,1-4.34962,3.4082,14.57008,14.57008,0,0,1-11.8701,0,12.84019,12.84019,0,0,1-4.3477-3.4082,14.8682,14.8682,0,0,1-2.6738-5.024,20.10838,20.10838,0,0,1-.9111-6.1113A19.82992,19.82992,0,0,1,606.17478,124.3389Zm2.085,11.2822a14.08948,14.08948,0,0,0,2.2343,4.4365,10.85,10.85,0,0,0,3.6426,3.085,11.45272,11.45272,0,0,0,9.98932,0,10.89437,10.89437,0,0,0,3.64448-3.085,14.10491,14.10491,0,0,0,2.23152-4.4365,18.06826,18.06826,0,0,0,0-10.4009,14.12361,14.12361,0,0,0-2.23152-4.437,10.89293,10.89293,0,0,0-3.64448-3.0845,11.45722,11.45722,0,0,0-9.98932,0,10.84861,10.84861,0,0,0-3.6426,3.0845,14.10815,14.10815,0,0,0-2.2343,4.437,18.0882,18.0882,0,0,0,0,10.4009Z"/><path d="M634.93848,117.2578v-1.9394h5.4062v-6.229a6.45878,6.45878,0,0,1,.52932-2.732,4.85563,4.85563,0,0,1,1.43848-1.8506,6.30938,6.30938,0,0,1,2.1162-1.0581,9.06575,9.06575,0,0,1,2.5567-.3525,13.70269,13.70269,0,0,1,2.6435.2934v1.9395a13.628,13.628,0,0,0-2.6435-.2939,5.50587,5.50587,0,0,0-3.1456.852q-1.26267.85335-1.2627,3.3789v6.0523h6.2881v1.9394h-6.2881v28.2647h-2.2324V117.2578Z"/><path d="M419.59279,203.1685a9.87276,9.87276,0,0,0,.9824,4.6088,8.56468,8.56468,0,0,0,2.6055,3.0596,11.27947,11.27947,0,0,0,3.77831,1.7373,17.878,17.878,0,0,0,4.57029.5674,23.59635,23.59635,0,0,0,3.4014-.2646,11.80409,11.80409,0,0,0,3.3984-1.0196,7.40886,7.40886,0,0,0,2.6445-2.0781,5.21794,5.21794,0,0,0,1.0577-3.3623,4.73129,4.73129,0,0,0-1.3975-3.5503,11.59427,11.59427,0,0,0-3.6641-2.3052,31.112,31.112,0,0,0-5.13769-1.5864q-2.874-.6408-5.81741-1.4736a51.22537,51.22537,0,0,1-5.8925-1.8501,20.13026,20.13026,0,0,1-5.1377-2.834,13.44794,13.44794,0,0,1-3.6651-4.3062,13.12614,13.12614,0,0,1-1.3964-6.3462,14.13845,14.13845,0,0,1,1.7734-7.2153,16.10386,16.10386,0,0,1,4.6475-5.0996,20.26492,20.26492,0,0,1,6.497-3.022,27.69422,27.69422,0,0,1,7.2539-.9824,34.35441,34.35441,0,0,1,8.1211.9443,20.296,20.296,0,0,1,6.9131,3.0601,15.47952,15.47952,0,0,1,4.7979,5.4023,16.57783,16.57783,0,0,1,1.7753,7.9703h-11.4833a9.55381,9.55381,0,0,0-1.0206-4.0039,6.67089,6.67089,0,0,0-2.3046-2.4932,9.748,9.748,0,0,0-3.3243-1.2847,20.42474,20.42474,0,0,0-4.0029-.3779,13.97908,13.97908,0,0,0-2.8721.3022,7.71016,7.71016,0,0,0-2.6074,1.0581,6.39,6.39,0,0,0-1.9258,1.9263,5.11828,5.11828,0,0,0-.7558,2.8335,4.8332,4.8332,0,0,0,.6054,2.5684,5.18606,5.18606,0,0,0,2.3789,1.7758,36.25984,36.25984,0,0,0,4.9112,1.6622q3.1347.86865,8.19821,2.1528.97993.2271,2.56939.6426a28.12132,28.12132,0,0,1,3.3613,1.1333,21.91932,21.91932,0,0,1,3.5508,1.8506,15.50378,15.50378,0,0,1,3.249,2.7954,13.20724,13.20724,0,0,1,2.3789,3.9663,14.467,14.467,0,0,1,.9072,5.3266,16.46047,16.46047,0,0,1-1.4365,6.8745,14.90971,14.90971,0,0,1-4.2676,5.4776,21.00459,21.00459,0,0,1-7.0263,3.6269,32.38379,32.38379,0,0,1-9.709,1.3223,33.02981,33.02981,0,0,1-8.6504-1.1328,21.86614,21.86614,0,0,1-7.3653-3.4766,16.992,16.992,0,0,1-6.9531-14.5805Z"/><path d="M464.46969,204.1509q.2256,5.1393,2.6436,7.5171,2.41845,2.38035,6.9521,2.3799a9.56435,9.56435,0,0,0,5.5899-1.6241,6.7466,6.7466,0,0,0,2.872-3.4384h9.4434q-2.266,6.95205-6.9512,10.0488a20.08152,20.08152,0,0,1-11.333,3.0976,21.78863,21.78863,0,0,1-8.31049-1.5117,17.67277,17.67277,0,0,1-6.27051-4.2305,18.87541,18.87541,0,0,1-3.9668-6.497,23.76491,23.76491,0,0,1-1.3975-8.3106,22.75082,22.75082,0,0,1,1.4365-8.1601,18.88308,18.88308,0,0,1,10.3877-10.8794,20.224,20.224,0,0,1,8.1211-1.586,18.57478,18.57478,0,0,1,8.68851,1.9258,17.34961,17.34961,0,0,1,6.082,5.1758,21.28864,21.28864,0,0,1,3.43849,7.4038,27.58814,27.58814,0,0,1,.7539,8.689Zm17.4522-6.7998a12.38459,12.38459,0,0,0-2.6826-6.1953q-1.9248-2.11455-5.8545-2.1153a9.35771,9.35771,0,0,0-4.2686.8682,8.13346,8.13346,0,0,0-2.7197,2.1538,7.87892,7.87892,0,0,0-1.43649,2.7197,12.2564,12.2564,0,0,0-.49031,2.5689Z"/><path d="M495.21879,182.0137H505.418v7.2534h.15039a13.17331,13.17331,0,0,1,2.041-3.3623,13.34883,13.34883,0,0,1,2.9463-2.6441,14.28772,14.28772,0,0,1,3.5879-1.6997,12.93731,12.93731,0,0,1,3.8916-.6045,7.35944,7.35944,0,0,1,2.34181.378v9.9721c-.504-.1001-1.10941-.1884-1.81251-.2641a19.17314,19.17314,0,0,0-2.0401-.1133,11.44811,11.44811,0,0,0-4.9873.9819,8.657,8.657,0,0,0-3.28709,2.6822,10.75525,10.75525,0,0,0-1.77441,4.0039,21.7473,21.7473,0,0,0-.5283,4.873v17.604h-10.7285Z"/><path d="M545.459,221.0742H533.52249l-13.3731-39.0605h11.2569l8.2363,26.6699h.15041l8.23529-26.6699h10.6533Z"/><path d="M570.39059,175.9697h-10.7285v-8.8398h10.7285Zm-10.7285,6.044h10.7285v39.0605h-10.7285Z"/><path d="M601.66888,195.7642q-1.059-6.72375-7.93259-6.7237a7.5401,7.5401,0,0,0-4.3076,1.1709,9.31476,9.31476,0,0,0-2.832,3.022,13.057,13.057,0,0,0-1.5498,4.1177,22.29445,22.29445,0,0,0-.4531,4.3818,21.16259,21.16259,0,0,0,.4531,4.3062,13.31091,13.31091,0,0,0,1.4736,3.9677,8.45806,8.45806,0,0,0,2.7588,2.9082,7.57932,7.57932,0,0,0,4.2305,1.1329,7.886,7.886,0,0,0,5.89249-2.1534,10.06983,10.06983,0,0,0,2.6446-5.7793h10.3506q-1.06065,7.78125-6.044,11.8994-4.9878,4.11915-12.76948,4.1172a21.321,21.321,0,0,1-8.084-1.4726,17.64909,17.64909,0,0,1-6.19431-4.1563,19.10973,19.10973,0,0,1-4.0039-6.3466,21.82349,21.82349,0,0,1-1.4356-8.0455,26.01585,26.01585,0,0,1,1.3223-8.4243,18.92006,18.92006,0,0,1,3.8896-6.7236,17.809,17.809,0,0,1,6.2715-4.4204,21.29969,21.29969,0,0,1,8.46089-1.586,24.49691,24.49691,0,0,1,6.68752.9063,17.39652,17.39652,0,0,1,5.70408,2.7583,15.279,15.279,0,0,1,4.1172,4.646,14.49315,14.49315,0,0,1,1.8516,6.4971Z"/><path d="M623.502,204.1509q.22692,5.1393,2.64448,7.5171,2.417,2.38035,6.9512,2.3799a9.56739,9.56739,0,0,0,5.5908-1.6241,6.74917,6.74917,0,0,0,2.8711-3.4384h9.4433q-2.26605,6.95205-6.9511,10.0488a20.07948,20.07948,0,0,1-11.333,3.0976,21.7805,21.7805,0,0,1-8.3096-1.5117,17.66393,17.66393,0,0,1-6.2705-4.2305,18.86236,18.86236,0,0,1-3.9678-6.497,23.7649,23.7649,0,0,1-1.3965-8.3106,22.75126,22.75126,0,0,1,1.4365-8.1601,18.87588,18.87588,0,0,1,10.3877-10.8794,20.22273,20.22273,0,0,1,8.1202-1.586,18.57173,18.57173,0,0,1,8.6884,1.9258,17.3438,17.3438,0,0,1,6.083,5.1758,21.30286,21.30286,0,0,1,3.4375,7.4038,27.61748,27.61748,0,0,1,.7549,8.689Zm17.45308-6.7998a12.39341,12.39341,0,0,0-2.6826-6.1953q-1.9248-2.11455-5.85448-2.1153a9.35926,9.35926,0,0,0-4.26962.8682,8.14349,8.14349,0,0,0-2.7197,2.1538,7.87654,7.87654,0,0,0-1.4355,2.7197,12.256,12.256,0,0,0-.49118,2.5689Z"/><path d="M411.50879,242.6836h11.8613V296.626h-11.8613Z"/><path d="M428.88569,257.5664H439.085v5.4404h.22749a12.66073,12.66073,0,0,1,5.2881-4.9111,14.98384,14.98384,0,0,1,6.64841-1.5879,18.24914,18.24914,0,0,1,7.06449,1.1719,10.47373,10.47373,0,0,1,4.3437,3.249,12.5736,12.5736,0,0,1,2.2285,5.0606,31.51971,31.51971,0,0,1,.6426,6.6123V296.626h-10.7285V274.5645q0-4.83255-1.54879-7.2139-1.54981-2.38035-5.32621-2.3809-4.38285,0-6.3477,2.6074-1.96275,2.6061-1.9628,8.5743V296.626h-10.7286Z"/><path d="M469.91019,257.5664h10.1992v5.4404h.2265a12.66075,12.66075,0,0,1,5.28811-4.9111,14.98706,14.98706,0,0,1,6.64849-1.5879,18.24858,18.24858,0,0,1,7.0644,1.1719,10.47465,10.47465,0,0,1,4.3438,3.249,12.57619,12.57619,0,0,1,2.2295,5.0606,31.52932,31.52932,0,0,1,.6416,6.6123V296.626h-10.7276V274.5645q0-4.83255-1.5488-7.2139-1.5498-2.38035-5.3272-2.3809-4.3827,0-6.3466,2.6074-1.96588,2.6061-1.9629,8.5743V296.626h-10.7285Z"/><path d="M511.16019,268.6338a17.86119,17.86119,0,0,1,10.4257-10.6514,22.3,22.3,0,0,1,8.3106-1.4746,22.60163,22.60163,0,0,1,8.3486,1.4746A17.78694,17.78694,0,0,1,548.709,268.6338a24.01066,24.01066,0,0,1,1.43549,8.5,23.68278,23.68278,0,0,1-1.43549,8.4619A17.84823,17.84823,0,0,1,538.24509,296.21a22.58123,22.58123,0,0,1-8.3486,1.4736,22.28,22.28,0,0,1-8.3106-1.4736,17.92329,17.92329,0,0,1-10.4257-10.6143,23.63672,23.63672,0,0,1-1.4356-8.4619A23.96371,23.96371,0,0,1,511.16019,268.6338Zm9.7461,13.0713a12.16178,12.16178,0,0,0,1.5488,4.0039,8.24162,8.24162,0,0,0,2.9082,2.834,8.88556,8.88556,0,0,0,4.5332,1.0576,9.09733,9.09733,0,0,0,4.5713-1.0576,8.17255,8.17255,0,0,0,2.94721-2.834,12.18247,12.18247,0,0,0,1.54789-4.0039,22.90648,22.90648,0,0,0,.45311-4.5713,23.49625,23.49625,0,0,0-.45311-4.6084,11.79068,11.79068,0,0,0-1.54789-4.0039,8.60987,8.60987,0,0,0-2.94721-2.833,8.84117,8.84117,0,0,0-4.5713-1.0957,8.25039,8.25039,0,0,0-7.4414,3.9287,11.7712,11.7712,0,0,0-1.5488,4.0039,23.41267,23.41267,0,0,0-.4532,4.6084A22.82576,22.82576,0,0,0,520.90629,281.7051Z"/><path d="M573.415,296.626H561.47749l-13.372-39.0596h11.2568l8.2354,26.669h.15031l8.23639-26.669h10.6523Z"/><path d="M585.35249,269.5791a12.4669,12.4669,0,0,1,1.8877-6.2715,12.872,12.872,0,0,1,4.2315-4.0049,18.4679,18.4679,0,0,1,5.74119-2.1513,32.70578,32.70578,0,0,1,6.498-.6436,44.04763,44.04763,0,0,1,5.9688.416,18.288,18.288,0,0,1,5.5156,1.625,10.7421,10.7421,0,0,1,4.0801,3.3994,9.44368,9.44368,0,0,1,1.5859,5.667v20.3223a40.84742,40.84742,0,0,0,.3008,5.0625,9.14552,9.14552,0,0,0,1.0586,3.626h-10.8789a15.02948,15.02948,0,0,1-.4912-1.8506,15.73337,15.73337,0,0,1-.2637-1.9268,14.31352,14.31352,0,0,1-6.04588,3.7412,23.528,23.528,0,0,1-7.10062,1.0938,18.23953,18.23953,0,0,1-5.21379-.7168,12.44828,12.44828,0,0,1-4.2315-2.1533,9.84307,9.84307,0,0,1-2.832-3.627,12.26061,12.26061,0,0,1-1.0195-5.2119,11.70414,11.70414,0,0,1,1.1328-5.4785,9.34034,9.34034,0,0,1,3.0215-3.4375,14.07308,14.07308,0,0,1,4.2695-1.9277,44.67853,44.67853,0,0,1,4.873-1.0186q2.4918-.3765,4.7598-.6035a27.9118,27.9118,0,0,0,4.042-.6807,7.24018,7.24018,0,0,0,2.833-1.3222,3.085,3.085,0,0,0,1.0576-2.5313,5.70675,5.70675,0,0,0-.5654-2.7578,4.18864,4.18864,0,0,0-1.5127-1.5869,5.95681,5.95681,0,0,0-2.1914-.7549,18.0375,18.0375,0,0,0-2.6817-.1885,8.17266,8.17266,0,0,0-4.9482,1.3594,6.00162,6.00162,0,0,0-2.1533,4.5332Zm24.78029,7.9326a4.78835,4.78835,0,0,1-1.7012.9444,17.20552,17.20552,0,0,1-2.1894.5664q-1.17327.22845-2.49418.3779-1.32123.1524-2.53022.3779a17.12413,17.12413,0,0,0-2.418.6045,7.184,7.184,0,0,0-2.0019,1.0205,4.71042,4.71042,0,0,0-1.3965,1.6612,5.27043,5.27043,0,0,0-.5303,2.455,4.98848,4.98848,0,0,0,.5303,2.4561,4.10933,4.10933,0,0,0,1.43362,1.5107,6.07268,6.07268,0,0,0,2.11618.794,13.55137,13.55137,0,0,0,2.4931.2265,9.49885,9.49885,0,0,0,4.9112-1.0566,7.10757,7.10757,0,0,0,2.5693-2.5322,8.111,8.111,0,0,0,1.0195-2.9844,20.4362,20.4362,0,0,0,.1885-2.417Z"/><path d="M638.99218,257.5664h7.8574v7.1768h-7.8574V284.085q0,2.7201.9072,3.6259.90675.90825,3.626.9073a16.98954,16.98954,0,0,0,3.3242-.3018v8.3857a25.55763,25.55763,0,0,1-3.0215.3018q-1.66395.0762-3.248.0762a31.34609,31.34609,0,0,1-4.7237-.3399,10.69639,10.69639,0,0,1-3.9277-1.3603,7.26132,7.26132,0,0,1-2.6826-2.834,9.97911,9.97911,0,0,1-.9815-4.7588V264.7432h-6.498v-7.1768h6.498V245.8555h10.7276Z"/><path d="M659.23928,251.5225h-10.7276v-8.8389h10.7276Zm-10.7276,6.0439h10.7276V296.626h-10.7276Z"/><path d="M664.15038,268.6338a17.861,17.861,0,0,1,10.4258-10.6514,22.29943,22.29943,0,0,1,8.3105-1.4746,22.59337,22.59337,0,0,1,8.3477,1.4746,17.78517,17.78517,0,0,1,10.4648,10.6514,24.03082,24.03082,0,0,1,1.4356,8.5,23.70255,23.70255,0,0,1-1.4356,8.4619,17.84643,17.84643,0,0,1-10.4648,10.6143,22.573,22.573,0,0,1-8.3477,1.4736,22.27945,22.27945,0,0,1-8.3105-1.4736,17.92309,17.92309,0,0,1-10.4258-10.6143,23.617,23.617,0,0,1-1.4356-8.4619A23.94365,23.94365,0,0,1,664.15038,268.6338Zm9.7461,13.0713a12.16156,12.16156,0,0,0,1.5488,4.0039,8.24986,8.24986,0,0,0,2.9082,2.834,8.8807,8.8807,0,0,0,4.5332,1.0576,9.0907,9.0907,0,0,0,4.57032-1.0576,8.1578,8.1578,0,0,0,2.94728-2.834,12.1835,12.1835,0,0,0,1.5488-4.0039,22.89914,22.89914,0,0,0,.4532-4.5713,23.48868,23.48868,0,0,0-.4532-4.6084,11.79151,11.79151,0,0,0-1.5488-4.0039,8.59338,8.59338,0,0,0-2.94728-2.833,8.83476,8.83476,0,0,0-4.57032-1.0957,8.25039,8.25039,0,0,0-7.4414,3.9287,11.771,11.771,0,0,0-1.5488,4.0039,23.42018,23.42018,0,0,0-.4531,4.6084A22.833,22.833,0,0,0,673.89648,281.7051Z"/><path d="M706.30758,257.5664h10.1983v5.4404h.2275a12.6666,12.6666,0,0,1,5.2881-4.9111,14.987,14.987,0,0,1,6.6484-1.5879,18.24022,18.24022,0,0,1,7.0635,1.1719,10.46419,10.46419,0,0,1,4.3447,3.249,12.5601,12.5601,0,0,1,2.2285,5.0606,31.51971,31.51971,0,0,1,.6426,6.6123V296.626h-10.7285V274.5645q0-4.83255-1.5488-7.2139-1.54845-2.38035-5.3262-2.3809-4.38285,0-6.34668,2.6074-1.96578,2.6061-1.96382,8.5743V296.626h-10.7276Z"/><path d="M409.998,330.2217h17.86329a20.98258,20.98258,0,0,1,3.9082.4121,10.55082,10.55082,0,0,1,3.9961,1.6738,9.80658,9.80658,0,0,1,3.084,3.585,12.96126,12.96126,0,0,1,1.23441,6.082q0,5.52255-3.43751,8.5215-3.4365,2.99415-9.7246,2.9961H412.583v18.6865h-2.585Zm2.585,21.0361h14.749a12.057,12.057,0,0,0,4.79009-.8506,8.60825,8.60825,0,0,0,3.1435-2.2041,8.5159,8.5159,0,0,0,1.7041-2.997,10.68867,10.68867,0,0,0,.52931-3.2911,13.3574,13.3574,0,0,0-.35351-2.79,8.55652,8.55652,0,0,0-1.4092-3.1152,8.44881,8.44881,0,0,0-2.9687-2.5264,10.74875,10.74875,0,0,0-5.0821-1.0283H412.583Z"/><path d="M446.54689,348.6729h.1767a7.16668,7.16668,0,0,1,1.52741-2.7618,11.30942,11.30942,0,0,1,2.64449-2.2334,12.64626,12.64626,0,0,1,3.43851-1.4394,14.10864,14.10864,0,0,1,3.96479-.4404v2.2324a10.60887,10.60887,0,0,0-4.0234.3535,9.7574,9.7574,0,0,0-4.3203,2.585,21.29266,21.29266,0,0,0-1.4405,1.7041,8.29448,8.29448,0,0,0-1.0283,1.8232,11.61481,11.61481,0,0,0-.6455,2.2314,19.47979,19.47979,0,0,0-.2939,2.9395v16.5117h-2.2334V341.9746h2.2334Z"/><path d="M460.15139,350.9941a15.27585,15.27585,0,0,1,2.6728-5.0244,12.7301,12.7301,0,0,1,4.3477-3.4375,14.57959,14.57959,0,0,1,11.87011,0,12.72846,12.72846,0,0,1,4.34959,3.4375,15.29631,15.29631,0,0,1,2.6729,5.0244,19.90445,19.90445,0,0,1,.9101,6.083,20.16419,20.16419,0,0,1-.9101,6.1104,14.89785,14.89785,0,0,1-2.6729,5.0244,12.862,12.862,0,0,1-4.34959,3.4082,14.569,14.569,0,0,1-11.87011,0,12.86363,12.86363,0,0,1-4.3477-3.4082,14.87847,14.87847,0,0,1-2.6728-5.0244,20.07228,20.07228,0,0,1-.9121-6.1104A19.814,19.814,0,0,1,460.15139,350.9941Zm2.0849,11.2823a14.077,14.077,0,0,0,2.2334,4.4365,10.85959,10.85959,0,0,0,3.6426,3.0859,11.46364,11.46364,0,0,0,9.9902,0,10.88146,10.88146,0,0,0,3.6436-3.0859,14.096,14.096,0,0,0,2.2324-4.4365,18.0899,18.0899,0,0,0,0-10.4014,14.10032,14.10032,0,0,0-2.2324-4.4355,10.90471,10.90471,0,0,0-3.6436-3.086,11.47265,11.47265,0,0,0-9.9902,0,10.88274,10.88274,0,0,0-3.6426,3.086,14.0813,14.0813,0,0,0-2.2334,4.4355,18.06951,18.06951,0,0,0,0,10.4014Z"/><path d="M488.915,343.9141v-1.9395h5.40629v-6.2285a6.46606,6.46606,0,0,1,.5283-2.7334,4.87926,4.87926,0,0,1,1.4395-1.8516,6.30889,6.30889,0,0,1,2.1152-1.0566,9.05092,9.05092,0,0,1,2.5576-.3525,13.65845,13.65845,0,0,1,2.6426.2939v1.9385a13.7302,13.7302,0,0,0-2.6426-.294,5.493,5.493,0,0,0-3.1455.8535q-1.2642.84975-1.2627,3.378v6.0527h6.2871v1.9395h-6.2871v28.2646h-2.2324V343.9141Z"/><path d="M507.248,357.3691a17.73629,17.73629,0,0,0,.61629,5.1123,12.81564,12.81564,0,0,0,2.0869,4.3497,10.497,10.497,0,0,0,3.4961,2.996,10.23848,10.23848,0,0,0,4.9072,1.1172,10.76769,10.76769,0,0,0,7.1396-2.3798,11.03232,11.03232,0,0,0,3.67291-6.6104h2.23239a12.80793,12.80793,0,0,1-4.2598,8.1377,14.99565,14.99565,0,0,1-14.6025,1.5879,11.82981,11.82981,0,0,1-4.20209-3.291,14.42208,14.42208,0,0,1-2.52641-4.877,18.8614,18.8614,0,0,1-.794-5.9072,21.49777,21.49777,0,0,1,.73541-6.0518,15.69319,15.69319,0,0,1,2.46779-5.2304,12.64872,12.64872,0,0,1,4.2011-3.6719,12.1816,12.1816,0,0,1,5.9356-1.3809,13.52513,13.52513,0,0,1,6.1113,1.293,11.76116,11.76116,0,0,1,4.2315,3.4961,14.31345,14.31345,0,0,1,2.3789,5.1416,20.65728,20.65728,0,0,1,.5576,6.1689Zm22.15239-1.9375a15.27245,15.27245,0,0,0-.8213-4.5839,12.0661,12.0661,0,0,0-2.1758-3.9082,10.85639,10.85639,0,0,0-3.4375-2.7032,10.0621,10.0621,0,0,0-4.6113-1.0273,9.33748,9.33748,0,0,0-4.4961,1.0576,11.05907,11.05907,0,0,0-3.3789,2.791,13.85093,13.85093,0,0,0-2.2324,3.9365,16.3,16.3,0,0,0-.99909,4.4375Z"/><path d="M537.92189,362.1299a9.27192,9.27192,0,0,0,.9394,3.7305,8.892,8.892,0,0,0,5.2315,4.496,11.98146,11.98146,0,0,0,3.8193.5879,20.278,20.278,0,0,0,3.1436-.2646,10.89666,10.89666,0,0,0,3.1142-.9688,6.47774,6.47774,0,0,0,2.3809-1.9697,5.22892,5.22892,0,0,0,.9394-3.2012,5.07047,5.07047,0,0,0-.8808-3.1152,6.26748,6.26748,0,0,0-2.3506-1.8809,15.41171,15.41171,0,0,0-3.3213-1.1162q-1.8486-.4101-3.79-.8232-1.938-.40875-3.8194-.9395a12.96472,12.96472,0,0,1-3.3486-1.4394,6.917,6.917,0,0,1-2.3506-2.4102,7.37964,7.37964,0,0,1-.8818-3.79,6.57648,6.57648,0,0,1,.999-3.7315,7.43744,7.43744,0,0,1,2.5566-2.3789,11.63474,11.63474,0,0,1,3.4952-1.2636,20.01629,20.01629,0,0,1,3.8789-.3819,17.50249,17.50249,0,0,1,4.4365.5284,9.52779,9.52779,0,0,1,3.5254,1.705,8.09379,8.09379,0,0,1,2.3515,2.9971,10.34431,10.34431,0,0,1,.8516,4.4063h-2.2324a8.09976,8.09976,0,0,0-.7051-3.5264,6.54277,6.54277,0,0,0-1.8809-2.3789,7.88342,7.88342,0,0,0-2.8203-1.3526,13.63446,13.63446,0,0,0-3.5263-.4394,16.55693,16.55693,0,0,0-3.085.2939,8.90111,8.90111,0,0,0-2.791.9981,6.2888,6.2888,0,0,0-2.0283,1.8213,4.54776,4.54776,0,0,0-.792,2.7031,4.60226,4.60226,0,0,0,.8808,2.9375,6.31309,6.31309,0,0,0,2.3213,1.793,16.06479,16.06479,0,0,0,3.2315,1.0879q1.793.4116,3.6142.8232,2.234.4101,4.2022.9687a11.862,11.862,0,0,1,3.4082,1.5274,6.95471,6.95471,0,0,1,2.2627,2.4971,8.14489,8.14489,0,0,1,.8213,3.8798,6.891,6.891,0,0,1-1.1153,4.0538,8.61865,8.61865,0,0,1-2.8213,2.5566,11.99657,11.99657,0,0,1-3.79,1.3506,22.73421,22.73421,0,0,1-4.084.3828,16.236,16.236,0,0,1-4.78909-.6768,10.84789,10.84789,0,0,1-3.84861-2.0566,9.76613,9.76613,0,0,1-2.5859-3.3779,11.36472,11.36472,0,0,1-.999-4.6426Z"/><path d="M566.18649,362.1299a9.254,9.254,0,0,0,.94051,3.7305,8.88637,8.88637,0,0,0,5.23039,4.496,11.97762,11.97762,0,0,0,3.8194.5879,20.25678,20.25678,0,0,0,3.1435-.2646,10.89839,10.89839,0,0,0,3.1143-.9688,6.45925,6.45925,0,0,0,2.3799-1.9697,5.22345,5.22345,0,0,0,.9404-3.2012,5.07055,5.07055,0,0,0-.88089-3.1152,6.26673,6.26673,0,0,0-2.35061-1.8809,15.419,15.419,0,0,0-3.3203-1.1162q-1.85145-.4101-3.79-.8232-1.9395-.40875-3.8203-.9395a12.96678,12.96678,0,0,1-3.3487-1.4394,6.92034,6.92034,0,0,1-2.3515-2.4102,7.37953,7.37953,0,0,1-.8819-3.79,6.57754,6.57754,0,0,1,1-3.7315,7.42888,7.42888,0,0,1,2.5567-2.3789,11.62421,11.62421,0,0,1,3.4951-1.2636,20.01878,20.01878,0,0,1,3.8799-.3819,17.499,17.499,0,0,1,4.4355.5284,9.52628,9.52628,0,0,1,3.5254,1.705,8.09266,8.09266,0,0,1,2.3506,2.9971,10.32883,10.32883,0,0,1,.8525,4.4063H584.874a8.08546,8.08546,0,0,0-.706-3.5264,6.54268,6.54268,0,0,0-1.87991-2.3789,7.89236,7.89236,0,0,0-2.8203-1.3526,13.6391,13.6391,0,0,0-3.5254-.4394,16.56105,16.56105,0,0,0-3.086.2939,8.90282,8.90282,0,0,0-2.791.9981,6.277,6.277,0,0,0-2.0273,1.8213,4.54258,4.54258,0,0,0-.794,2.7031,4.59665,4.59665,0,0,0,.88191,2.9375,6.29574,6.29574,0,0,0,2.32129,1.793,16.0503,16.0503,0,0,0,3.2324,1.0879q1.79146.4116,3.61331.8232,2.23379.4101,4.20209.9687a11.84218,11.84218,0,0,1,3.4072,1.5274,6.93678,6.93678,0,0,1,2.26271,2.4971,8.13162,8.13162,0,0,1,.82229,3.8798,6.88477,6.88477,0,0,1-1.1162,4.0538,8.6162,8.6162,0,0,1-2.8203,2.5566,11.99627,11.99627,0,0,1-3.7901,1.3506,22.72555,22.72555,0,0,1-4.0839.3828,16.23512,16.23512,0,0,1-4.7891-.6768,10.85256,10.85256,0,0,1-3.8496-2.0566,9.78677,9.78677,0,0,1-2.585-3.3779,11.38425,11.38425,0,0,1-1-4.6426Z"/><path d="M593.92288,336.2734v-6.0517h2.2334v6.0517Zm0,35.9053V341.9746h2.2334v30.2041Z"/><path d="M602.76658,350.9941a15.2783,15.2783,0,0,1,2.6738-5.0244,12.71566,12.71566,0,0,1,4.3487-3.4375,14.57721,14.57721,0,0,1,11.8691,0,12.72822,12.72822,0,0,1,4.3496,3.4375,15.27791,15.27791,0,0,1,2.6729,5.0244,19.90445,19.90445,0,0,1,.9101,6.083,20.16419,20.16419,0,0,1-.9101,6.1104,14.88042,14.88042,0,0,1-2.6729,5.0244,12.86171,12.86171,0,0,1-4.3496,3.4082,14.56668,14.56668,0,0,1-11.8691,0,12.84885,12.84885,0,0,1-4.3487-3.4082,14.88076,14.88076,0,0,1-2.6738-5.0244,20.10253,20.10253,0,0,1-.9111-6.1104A19.84379,19.84379,0,0,1,602.76658,350.9941Zm2.0859,11.2823a14.05812,14.05812,0,0,0,2.2334,4.4365,10.84124,10.84124,0,0,0,3.6426,3.0859,11.46167,11.46167,0,0,0,9.9893,0,10.87566,10.87566,0,0,0,3.6445-3.0859,14.07526,14.07526,0,0,0,2.2315-4.4365,18.06951,18.06951,0,0,0,0-10.4014,14.07956,14.07956,0,0,0-2.2315-4.4355,10.89887,10.89887,0,0,0-3.6445-3.086,11.47069,11.47069,0,0,0-9.9893,0,10.86431,10.86431,0,0,0-3.6426,3.086,14.06242,14.06242,0,0,0-2.2334,4.4355,18.06951,18.06951,0,0,0,0,10.4014Z"/><path d="M634.82128,341.9746h2.2324v6.4629h.1182a9.64684,9.64684,0,0,1,1.6748-3.0254,11.12337,11.12337,0,0,1,5.6709-3.6738,13.01306,13.01306,0,0,1,3.4668-.4688,13.7275,13.7275,0,0,1,4.4951.6455,8.81882,8.81882,0,0,1,3.0264,1.7051,8.237,8.237,0,0,1,1.8505,2.3789,11.14414,11.14414,0,0,1,.9698,2.6739,15.7199,15.7199,0,0,1,.3525,2.6152q.05865,1.2642.0596,2.2041v18.6865h-2.2334V353.0811a27.49255,27.49255,0,0,0-.1768-2.8516,8.56243,8.56243,0,0,0-1.0283-3.2315,7.50006,7.50006,0,0,0-2.585-2.6738,8.80959,8.80959,0,0,0-4.789-1.1152,10.71136,10.71136,0,0,0-4.5547.9394,9.85926,9.85926,0,0,0-3.4375,2.6153,11.51163,11.51163,0,0,0-2.1445,3.9951,16.76433,16.76433,0,0,0-.7354,5.083v16.3369h-2.2324Z"/><path d="M687.59078,366.5957q0,.6474.0283,1.292a4.30321,4.30321,0,0,0,.2071,1.1758,1.758,1.758,0,0,0,.5869.8525,1.86489,1.86489,0,0,0,1.1748.3233,10.6463,10.6463,0,0,0,1.6455-.1768v1.8809a7.87838,7.87838,0,0,1-.9102.1757,6.73589,6.73589,0,0,1-.9111.0596,5.38306,5.38306,0,0,1-2.1445-.3525,2.80659,2.80659,0,0,1-1.2051-.9405,3.46872,3.46872,0,0,1-.5576-1.3808,9.47673,9.47673,0,0,1-.1475-1.7334v-1.5869h-.1172a9.33223,9.33223,0,0,1-1.5283,2.5566,10.829,10.829,0,0,1-2.4385,2.1445,12.04926,12.04926,0,0,1-3.2607,1.4678,14.26185,14.26185,0,0,1-3.9961.5303,17.09109,17.09109,0,0,1-3.9668-.4414,8.95579,8.95579,0,0,1-3.2314-1.4395,6.67026,6.67026,0,0,1-2.1446-2.6142,9.39959,9.39959,0,0,1-.7646-4.0264,8.15624,8.15624,0,0,1,1.0283-4.3193,7.77372,7.77372,0,0,1,2.64452-2.6436,11.43343,11.43343,0,0,1,3.584-1.3808,34.23867,34.23867,0,0,1,3.84958-.587q3.75885-.2358,5.8467-.5595a7.7636,7.7636,0,0,0,3.085-.9981,2.788,2.788,0,0,0,1.2334-1.7636,14.651,14.651,0,0,0,.23532-2.9668,6.18436,6.18436,0,0,0-.35152-1.9385,4.81594,4.81594,0,0,0-1.2647-1.9395,7.04986,7.04986,0,0,0-2.5557-1.4697,12.816,12.816,0,0,0-4.2304-.5869,9.97644,9.97644,0,0,0-6.5528,2.0566,7.9702,7.9702,0,0,0-2.7324,5.9922h-2.2334q.2358-4.99365,3.2031-7.4912,2.9664-2.4975,8.3155-2.4971a20.8894,20.8894,0,0,1,3.8769.3535,10.37279,10.37279,0,0,1,3.3799,1.2325,6.767,6.767,0,0,1,2.4092,2.4101,7.47411,7.47411,0,0,1,.9111,3.878Zm-2.2334-11.5762a3.88545,3.88545,0,0,1-1.8213,1.1455,13.83793,13.83793,0,0,1-2.6738.5586q-1.4985.1773-3.1435.294-1.64655.11715-3.2911.3515a13.03856,13.03856,0,0,0-6.1406,2.0284,5.718,5.718,0,0,0-2.1455,4.9648,6.25838,6.25838,0,0,0,1.9697,4.6729q1.9674,1.9086,5.9649,1.9091a11.443,11.443,0,0,0,6.0517-1.3808,10.70809,10.70809,0,0,0,3.4082-3.1739,9.76367,9.76367,0,0,0,1.4981-3.4667,15.01083,15.01083,0,0,0,.3232-2.2627Z"/><path d="M697.46188,330.2217v41.957h-2.2324v-41.957Z"/><path d="M705.62988,362.1299a9.27238,9.27238,0,0,0,.9404,3.7305,8.87856,8.87856,0,0,0,5.2305,4.496,11.97708,11.97708,0,0,0,3.8193.5879,20.278,20.278,0,0,0,3.1436-.2646,10.88215,10.88215,0,0,0,3.11332-.9688,6.4735,6.4735,0,0,0,2.38178-1.9697,5.22892,5.22892,0,0,0,.9394-3.2012,5.07047,5.07047,0,0,0-.8808-3.1152,6.26748,6.26748,0,0,0-2.3506-1.8809,15.41171,15.41171,0,0,0-3.3213-1.1162q-1.8486-.4101-3.7891-.8232-1.93935-.40875-3.8203-.9395a12.97982,12.97982,0,0,1-3.3486-1.4394,6.91712,6.91712,0,0,1-2.3506-2.4102,7.37964,7.37964,0,0,1-.8828-3.79,6.57675,6.57675,0,0,1,1-3.7315,7.42857,7.42857,0,0,1,2.5566-2.3789,11.62247,11.62247,0,0,1,3.4961-1.2636,20.00251,20.00251,0,0,1,3.8789-.3819,17.5059,17.5059,0,0,1,4.4356.5284,9.53843,9.53843,0,0,1,3.5264,1.705,8.09026,8.09026,0,0,1,2.3496,2.9971,10.33034,10.33034,0,0,1,.8525,4.4063h-2.2324a8.09961,8.09961,0,0,0-.7051-3.5264,6.56146,6.56146,0,0,0-1.8799-2.3789,7.89642,7.89642,0,0,0-2.8213-1.3526,13.63245,13.63245,0,0,0-3.5254-.4394,16.5592,16.5592,0,0,0-3.0859.2939,8.89288,8.89288,0,0,0-2.791.9981,6.27636,6.27636,0,0,0-2.0274,1.8213,4.542,4.542,0,0,0-.7929,2.7031,4.60226,4.60226,0,0,0,.8808,2.9375,6.30487,6.30487,0,0,0,2.3213,1.793,16.05433,16.05433,0,0,0,3.23242,1.0879q1.79157.4116,3.61328.8232,2.23245.4101,4.2022.9687a11.86193,11.86193,0,0,1,3.4082,1.5274,6.95471,6.95471,0,0,1,2.2627,2.4971,8.14489,8.14489,0,0,1,.8213,3.8798,6.891,6.891,0,0,1-1.1153,4.0538,8.62861,8.62861,0,0,1-2.8213,2.5566,11.99569,11.99569,0,0,1-3.79,1.3506,22.72579,22.72579,0,0,1-4.084.3828,16.23492,16.23492,0,0,1-4.789-.6768,10.839,10.839,0,0,1-3.8487-2.0566,9.76613,9.76613,0,0,1-2.5859-3.3779,11.381,11.381,0,0,1-.999-4.6426Z"/></svg>