<?xml version="1.0" encoding="utf-8"?>
<!-- Generator: Adobe Illustrator 19.2.1, SVG Export Plug-In . SVG Version: 6.00 Build 0)  -->
<svg version="1.1" id="layer" xmlns="http://www.w3.org/2000/svg" xmlns:xlink="http://www.w3.org/1999/xlink" x="0px" y="0px"
	 viewBox="0 0 652 652" style="enable-background:new 0 0 652 652;" xml:space="preserve">
<style type="text/css">
	.st0{fill:#108768;}
</style>
<g>
	<g>
		<path class="st0" d="M219.7,358c-2.4,0-4.4-0.4-5.9-1.2v-5.9c2,0.4,4,0.8,5.9,0.8c2.8,0,4.7-0.8,5.9-2.4c1.6-1.6,2-4,2-7.1v-59.4
			h6.7v59c0,5.1-1.2,9.1-4,11.9S224.4,358,219.7,358z"/>
		<path class="st0" d="M271.5,342.2l-1.2-6.3h-0.4c-2.4,2.8-4.4,4.7-6.7,5.5s-5.1,1.6-8.3,1.6c-4.4,0-7.9-1.2-10.3-3.6
			s-3.6-5.5-3.6-9.9c0-9.1,7.1-13.9,21.4-14.2l7.5-0.4v-2.8c0-3.6-0.8-5.9-2.4-7.9c-1.6-1.6-4-2.4-7.1-2.4c-3.6,0-7.9,1.2-12.7,3.6
			l-2-5.1c2.4-1.2,4.7-2,7.1-2.8c2.8-0.8,5.1-1.2,7.9-1.2c5.1,0,9.1,1.2,11.9,3.6c2.4,2.4,4,5.9,4,11.5v30.5h-5.1V342.2z
			 M256.5,337.4c4.4,0,7.5-1.2,9.9-3.6s3.6-5.5,3.6-9.5v-4l-6.7,0.4c-5.5,0-9.1,1.2-11.5,2.4c-2.4,1.6-3.6,4-3.6,6.7
			c0,2.4,0.8,4.4,2.4,5.5C251.7,336.6,253.7,337.4,256.5,337.4z"/>
		<path class="st0" d="M315.9,342.2v-28.9c0-3.6-0.8-6.3-2.4-8.3s-4.4-2.8-7.9-2.8c-4.7,0-7.9,1.2-10.3,4c-2,2.4-3.2,6.7-3.2,12.3
			v23.4h-6.7v-43.9h5.5l1.2,5.9h0.4c1.2-2.4,3.2-4,5.9-5.1c2.4-1.2,5.1-2,8.3-2c5.5,0,9.5,1.2,12.3,4c2.8,2.8,4,6.7,4,12.3v28.9
			h-7.1V342.2z"/>
		<path class="st0" d="M338,297.9v28.9c0,3.6,0.8,6.3,2.4,8.3c1.6,2,4.4,2.8,7.9,2.8c4.7,0,7.9-1.2,10.3-4c2-2.4,3.2-6.7,3.2-12.3
			v-23.4h6.7v44.3h-5.5l-0.8-5.9h-0.4c-1.2,2.4-3.2,4-5.9,5.1c-2.4,1.2-5.1,1.6-8.3,1.6c-5.5,0-9.5-1.2-12.3-4
			c-2.8-2.4-4-6.7-4-12.3v-29.3H338z"/>
		<path class="st0" d="M406.5,329.9c0,4-1.6,7.5-4.7,9.5c-3.2,2.4-7.5,3.6-13.1,3.6c-5.9,0-10.7-0.8-13.9-2.8v-6.3
			c2,1.2,4.4,2,6.7,2.4c2.4,0.8,4.7,0.8,7.1,0.8c3.6,0,6.3-0.4,8.3-1.6c2-1.2,2.8-2.8,2.8-5.1c0-1.6-0.8-3.2-2.4-4.4
			c-1.6-1.2-4.4-2.8-8.7-4.4c-4-1.6-7.1-2.8-8.7-4c-1.6-1.2-3.2-2.4-4-4c-0.8-1.6-1.2-3.2-1.2-5.1c0-3.6,1.6-6.3,4.4-8.7
			c2.8-2,7.1-3.2,12.3-3.2c4.7,0,9.5,0.8,13.9,2.8l-2.4,5.5c-4.4-2-8.3-2.8-12.3-2.8c-3.2,0-5.5,0.4-7.1,1.6c-1.6,1.2-2.4,2.4-2.4,4
			c0,1.2,0.4,2.4,0.8,3.2c0.8,0.8,1.6,1.6,2.8,2.4c1.2,0.8,4,2,7.9,3.2c5.1,2,8.7,4,10.7,5.9C405.3,324.8,406.5,327.1,406.5,329.9z"
			/>
	</g>
	<g>
		<path d="M439.3,311.3h20.2v28.9c-3.2,1.2-6.3,1.6-9.5,2.4c-3.2,0.4-7.1,0.8-11.5,0.8c-9.1,0-15.8-2.8-21-7.9
			c-5.1-5.1-7.5-12.7-7.5-22.6c0-6.3,1.2-11.5,3.6-16.2s5.9-8.3,10.7-10.7s10.3-3.6,16.2-3.6c6.3,0,12.3,1.2,17.8,3.6l-2.8,5.9
			c-5.5-2.4-10.7-3.6-15.4-3.6c-7.1,0-13.1,2-17,6.3c-4,4.4-5.9,10.3-5.9,17.8c0,7.9,2,14.2,5.9,18.2c4,4,9.5,6.3,17.4,6.3
			c4,0,8.3-0.4,11.9-1.6v-18.2h-13.5v-5.9H439.3z"/>
		<path d="M488,297.1c2,0,3.6,0,5.1,0.4l-0.8,6.3c-2-0.4-3.6-0.8-4.7-0.8c-3.6,0-6.7,1.6-9.1,4.4s-4,6.7-4,11.1v23.7h-6.7v-44.3h5.5
			l0.8,8.3h0.4c1.6-2.8,3.6-5.1,5.9-6.7C482.9,297.9,485.2,297.1,488,297.1z"/>
		<path d="M524,342.2l-1.2-6.3h-0.4c-2.4,2.8-4.4,4.7-6.7,5.5c-2.4,0.8-5.1,1.6-8.3,1.6c-4.4,0-7.9-1.2-10.3-3.6s-3.6-5.5-3.6-9.9
			c0-9.1,7.1-13.9,21.4-14.2l7.5-0.4v-2.8c0-3.6-0.8-5.9-2.4-7.9c-1.6-1.6-4-2.4-7.1-2.4c-3.6,0-7.9,1.2-12.7,3.6l-2-5.1
			c2.4-1.2,4.7-2,7.1-2.8c2.8-0.8,5.1-1.2,7.9-1.2c5.1,0,9.1,1.2,11.9,3.6c2.4,2.4,4,5.9,4,11.5v30.5H524V342.2z M509,337.4
			c4.4,0,7.5-1.2,9.9-3.6s3.6-5.5,3.6-9.5v-4l-6.7,0.4c-5.5,0-9.1,1.2-11.5,2.4c-2.4,1.6-3.6,4-3.6,6.7c0,2.4,0.8,4.4,2.4,5.5
			C504.2,336.6,506.2,337.4,509,337.4z"/>
		<path d="M558.5,343c-2.8,0-5.5-0.4-7.9-1.6s-4.4-2.8-5.9-4.7h-0.4c0.4,2.8,0.4,5.1,0.4,7.5v18.2h-6.7v-64.5h5.5l0.8,5.9h0.4
			c1.6-2.4,3.6-4.4,5.9-5.1c2.4-1.2,4.7-1.6,7.9-1.6c5.9,0,10.3,2,13.9,5.9c3.2,4,4.7,9.5,4.7,17c0,7.1-1.6,13.1-4.7,17
			C569.1,341,564.4,343,558.5,343z M557.7,302.6c-4.4,0-7.9,1.2-9.9,4c-2,2.4-3.2,6.3-3.2,11.9v1.6c0,6.3,1.2,10.7,3.2,13.5
			c2,2.8,5.5,4,9.9,4c4,0,6.7-1.6,9.1-4.7c2-3.2,3.2-7.5,3.2-13.1c0-5.5-1.2-9.9-3.2-12.7S561.6,302.6,557.7,302.6z"/>
		<path d="M614.3,342.2v-28.9c0-3.6-0.8-6.3-2.4-8.3c-1.6-2-4.4-2.8-7.9-2.8c-4.7,0-7.9,1.2-10.3,4c-2,2.4-3.2,6.7-3.2,12.7v23.4
			h-6.7v-63.3h6.7v19.4c0,2.4,0,4.4-0.4,5.5h0.4c1.2-2,3.2-4,5.5-5.1c2.4-1.2,5.1-2,8.3-2c5.5,0,9.5,1.2,12.3,4
			c2.8,2.8,4,6.7,4,12.3v28.9h-6.3V342.2z"/>
	</g>
	<path class="st0" d="M177.3,317.3c0-7.9-6.3-14.6-14.6-14.6c-5.9,0-11.1,3.6-13.1,8.7h-41.6c-2.4-5.1-7.5-8.7-13.1-8.7
		c-7.9,0-14.6,6.3-14.6,14.6c0,7.9,6.3,14.6,14.6,14.6c5.9,0,11.1-3.6,13.5-9.1h41.2c1.2,3.2,4,5.9,7.1,7.5
		c-5.1,24.5-24.5,43.9-49.1,48.7c-2.4-4.4-7.1-7.1-12.7-7.1c-7.9,0-14.6,6.3-14.6,14.6c0,7.9,6.3,14.6,14.6,14.6
		c6.7,0,12.3-4.4,13.9-10.3c30.1-5.5,53.8-29.3,59.4-59.8C173.8,328.7,177.3,323.2,177.3,317.3z"/>
	<path d="M69.7,386.9c-0.8,0-1.6,0-2-0.4c-28.9-11.5-47.1-38.4-47.1-69.3c0-41.2,33.6-74.4,74.4-74.4c30.1,0,57.4,18.2,68.9,45.9
		c1.2,2.8,0,6.3-3.2,7.5c-2.8,1.2-6.3,0-7.5-3.2c-9.9-23.7-32.8-38.8-58.2-38.8c-34.8,0-62.9,28.5-62.9,62.9
		c0,26.1,15.8,49.1,40,58.6c2.8,1.2,4.4,4.4,3.2,7.5C74,385.3,72.1,386.9,69.7,386.9z"/>
</g>
</svg>
