<?xml version="1.0" encoding="UTF-8"?>
<svg width="555px" height="727px" viewBox="0 0 555 727" version="1.1" xmlns="http://www.w3.org/2000/svg" xmlns:xlink="http://www.w3.org/1999/xlink">
    <!-- Generator: Sketch 64 (93537) - https://sketch.com -->
    <title>Product logo_Core_Horizontal_colorful</title>
    <desc>Created with Sketch.</desc>
    <defs>
        <path d="M56.75358,31.9620622 C61.0163418,31.9620622 64.6870533,30.4297286 67.7657145,27.3650612 C70.8443757,24.3003939 72.3837064,20.6463675 72.3837064,16.4029819 C72.3837064,12.1595964 70.8443757,8.50556998 67.7657145,5.44090265 C64.6870533,2.37623532 61.0163418,0.84390165 56.75358,0.84390165 C52.4908183,0.84390165 48.8201068,2.37623532 45.7414456,5.44090265 C42.6627843,8.50556998 41.1234537,12.1595964 41.1234537,16.4029819 C41.1234537,20.6463675 42.6627843,24.3003939 45.7414456,27.3650612 C48.8201068,30.4297286 52.4908183,31.9620622 56.75358,31.9620622 Z M12.7050422,237.05903 C23.7566467,237.05903 33.4662706,234.662303 41.833914,229.868849 C50.2015574,225.075395 56.7930501,218.513863 61.608392,210.184255 C66.423734,201.854646 68.8314049,192.267738 68.8314049,181.423531 L68.8314049,181.423531 L68.8314049,64.966172 C68.8314049,61.3514361 67.7262445,58.4439312 65.5159236,56.2436572 C63.3056027,54.0433833 60.3848215,52.9432463 56.75358,52.9432463 C53.2802186,52.9432463 50.3989075,54.0433833 48.1096466,56.2436572 C45.8203856,58.4439312 44.6757552,61.3514361 44.6757552,64.966172 L44.6757552,64.966172 L44.6757552,181.423531 C44.6757552,187.552865 43.2943046,192.974969 40.5314035,197.689842 C37.7685024,202.404715 34.0188509,206.137322 29.2824489,208.887665 C24.546047,211.638007 19.0202448,213.013178 12.7050422,213.013178 C9.23168082,213.013178 6.38983967,214.113315 4.17951878,216.313589 C1.96919789,218.513863 0.86403744,221.421368 0.86403744,225.036104 C0.86403744,228.493677 1.96919789,231.361892 4.17951878,233.640747 C6.38983967,235.919602 9.23168082,237.05903 12.7050422,237.05903 Z M153.612917,31.9620622 C157.875678,31.9620622 161.54639,30.4297286 164.625051,27.3650612 C167.703712,24.3003939 169.243043,20.6463675 169.243043,16.4029819 C169.243043,12.1595964 167.703712,8.50556998 164.625051,5.44090265 C161.54639,2.37623532 157.875678,0.84390165 153.612917,0.84390165 C149.350155,0.84390165 145.679444,2.37623532 142.600782,5.44090265 C139.522121,8.50556998 137.98279,12.1595964 137.98279,16.4029819 C137.98279,20.6463675 139.522121,24.3003939 142.600782,27.3650612 C145.679444,30.4297286 149.350155,31.9620622 153.612917,31.9620622 Z M153.612917,181.895018 C157.244158,181.895018 160.164939,180.75559 162.37526,178.476735 C164.585581,176.19788 165.690742,173.329666 165.690742,169.872092 L165.690742,169.872092 L165.690742,64.966172 C165.690742,61.3514361 164.585581,58.4439312 162.37526,56.2436572 C160.164939,54.0433833 157.244158,52.9432463 153.612917,52.9432463 C150.139555,52.9432463 147.258244,54.0433833 144.968983,56.2436572 C142.679722,58.4439312 141.535092,61.3514361 141.535092,64.966172 L141.535092,64.966172 L141.535092,169.872092 C141.535092,173.329666 142.679722,176.19788 144.968983,178.476735 C147.258244,180.75559 150.139555,181.895018 153.612917,181.895018 Z M345.437112,182.130761 C348.910473,182.130761 351.791784,180.991334 354.081045,178.712479 C356.370306,176.433623 357.514937,173.565409 357.514937,170.107836 L357.514937,170.107836 L357.514937,112.1149 C357.514937,99.0704187 355.028326,88.0690488 350.055104,79.1107904 C345.081882,70.152532 338.293039,63.3552571 329.688575,58.7189655 C321.084112,54.0826739 311.335018,51.7645281 300.441294,51.7645281 C290.021209,51.7645281 280.627346,54.0433833 272.259702,58.6010936 C268.075881,60.8799488 264.336096,63.5615328 261.04035,66.6458454 L260.180145,67.4736432 L260.181877,64.966172 C260.181877,61.6294927 259.240202,58.8954245 257.356852,56.7639672 L256.866396,56.2436572 C254.656075,54.0433833 251.735294,52.9432463 248.104052,52.9432463 C244.630691,52.9432463 241.74938,54.0433833 239.460119,56.2436572 C237.170858,58.4439312 236.026228,61.3514361 236.026228,64.966172 L236.026228,64.966172 L236.026228,170.107836 C236.026228,173.565409 237.170858,176.433623 239.460119,178.712479 C241.74938,180.991334 244.630691,182.130761 248.104052,182.130761 C251.735294,182.130761 254.656075,180.991334 256.866396,178.712479 C259.076717,176.433623 260.181877,173.565409 260.181877,170.107836 L260.181877,170.107836 L260.180145,103.629982 L260.202928,102.474033 C260.385367,97.511542 261.753661,93.0507484 264.30781,89.0916523 L264.918279,88.1869206 C268.075881,83.7077914 272.338642,80.1323462 277.706564,77.4605849 C283.074487,74.7888237 289.073929,73.452943 295.704892,73.452943 C302.967375,73.452943 309.400987,74.8281143 315.005729,77.5784567 C320.610472,80.3287992 325.070584,84.5328941 328.386065,90.1907415 C331.701546,95.8485889 333.359287,103.156642 333.359287,112.1149 L333.359287,112.1149 L333.359287,170.107836 C333.359287,173.565409 334.503917,176.433623 336.793178,178.712479 C339.082439,180.991334 341.96375,182.130761 345.437112,182.130761 Z M476.872182,182.837992 C488.397427,182.837992 498.738571,179.969778 507.895615,174.233349 C513.128211,170.95539 517.729288,167.010293 521.698843,162.398056 L522.577241,161.350289 L522.578461,170.107836 C522.578461,173.299442 523.553767,175.988872 525.50438,178.176127 L526.012352,178.712479 C528.301613,180.991334 531.182924,182.130761 534.656286,182.130761 C538.129647,182.130761 541.010958,180.991334 543.300219,178.712479 C545.58948,176.433623 546.734111,173.565409 546.734111,170.107836 L546.734111,170.107836 L546.734111,117.537004 C546.734111,105.121172 543.8528,93.9626398 538.090177,84.0614069 C532.327555,74.1601739 524.551962,66.3413432 514.763398,60.6049146 C504.974834,54.868486 493.923229,52.0002717 481.608584,52.0002717 C469.293939,52.0002717 458.202865,54.868486 448.335361,60.6049146 C438.467857,66.3413432 430.652794,74.1601739 424.890171,84.0614069 C419.127549,93.9626398 416.246238,105.121172 416.246238,117.537004 C416.246238,129.952836 418.890729,141.072077 424.179711,150.894729 C429.468693,160.717381 436.691706,168.496921 445.84875,174.233349 C455.005794,179.969778 465.346938,182.837992 476.872182,182.837992 Z M481.608584,161.621065 C473.714581,161.621065 466.570508,159.695825 460.176366,155.845345 C453.782223,151.994866 448.730061,146.729925 445.01988,140.050522 C441.309698,133.371118 439.454607,125.866612 439.454607,117.537004 C439.454607,109.050233 441.309698,101.467146 445.01988,94.7877425 C448.730061,88.1083394 453.782223,82.843398 460.176366,78.9929186 C466.570508,75.1424391 473.714581,73.2171994 481.608584,73.2171994 C489.660468,73.2171994 496.844011,75.1424391 503.159213,78.9929186 C509.474416,82.843398 514.447638,88.1083394 518.078879,94.7877425 C521.710121,101.467146 523.525741,109.050233 523.525741,117.537004 C523.525741,125.866612 521.710121,133.371118 518.078879,140.050522 C514.447638,146.729925 509.474416,151.994866 503.159213,155.845345 C496.844011,159.695825 489.660468,161.621065 481.608584,161.621065 Z" id="path-1"></path>
    </defs>
    <g id="页面-1" stroke="none" stroke-width="1" fill="none" fill-rule="evenodd">
        <g id="Product-logo_Core_Horizontal_colorful" transform="translate(4.000000, 0.000000)" fill-rule="nonzero">
            <g id="编组-14备份" transform="translate(0.000000, 485.000000)">
                <g id="编组-8">
                    <g id="编组-4">
                        <g id="jina">
                            <use fill="#009999" xlink:href="#path-1"></use>
                            <use stroke="#00939B" stroke-width="8.36298932" fill="#00939B" xlink:href="#path-1"></use>
                        </g>
                    </g>
                </g>
            </g>
            <g id="Product-logo/Core/Colorful/Product-logo_Core_Colorful备份-3" transform="translate(63.000000, 0.000000)">
                <path d="M253.860573,156.954377 L255.821828,156.978105 C295.238461,158.455783 317.422365,174.469194 335.087253,197.869031 C327.000366,278.998329 256.159752,338.259677 175.707761,334.971975 C134.774903,332.513052 99.0193106,314.104932 73.4781398,286.342584 C117.15129,226.130023 187.842433,158.254532 251.90801,156.972743 L253.860573,156.954377 Z" id="路径" fill="#FFCC66"></path>
                <path d="M39.5582172,227.48298 L39.5883593,227.441177 C54.845168,204.978093 79.2848361,182.659842 112.024423,191.64225 C174.284304,209.973694 232.726627,247.526129 268.359454,246.465565 C302.271458,245.456219 315.965826,235.372634 330.824529,221.540288 C312.717554,290.23882 248.104147,337.930482 175.707761,334.971975 C110.137203,331.033013 57.8520266,286.166813 39.5582172,227.48298 Z" id="路径" fill="#FF7673"></path>
                <path d="M147.63713,205.595668 L148.940459,204.498519 L151.627782,205.522935 C195.337957,222.284374 230.10354,240.381723 257.524472,245.053134 C291.819642,250.895635 314.396951,234.670031 330.971141,220.989456 C313.064713,289.982172 248.298666,337.938431 175.707761,334.971975 C135.518696,332.557733 100.320453,314.768655 74.8805567,287.846691 C94.0834471,259.04494 119.568001,229.382866 147.63713,205.595668 Z" id="路径" fill="#FF9F73"></path>
                <path d="M348.099471,310.923399 L409.359965,365.982405 C422.05317,377.390734 423.080432,396.886069 411.655991,409.556308 C400.373508,422.06911 381.128285,423.213448 368.437473,412.215972 L368.011372,411.839929 L303.311988,353.689535 C320.301989,341.744786 335.408493,327.31237 348.099471,310.923399 Z M0.563447611,172.591899 C6.05992071,71.7694585 94.0034902,-5.22222339 194.772164,0.277182463 C295.540837,7.60972374 374.323618,93.7670824 366.994987,194.589523 C359.666357,295.411963 273.554945,372.403645 172.786271,366.904239 C72.0175978,361.404833 -4.93302548,273.41434 0.563447611,172.591899 Z M192.536325,31.6937103 C110.076363,28.3239515 36.0306829,92.3493629 32.6649699,174.908446 C29.2992569,257.46753 91.5649428,329.917337 175.707761,334.971975 C258.167724,338.341734 330.530548,276.001201 335.579117,191.757239 C338.911172,110.023747 277.917894,38.1983551 195.054003,31.8655107 L192.536325,31.6937103 Z" id="形状" fill="#009999"></path>
            </g>
        </g>
    </g>
</svg>