<svg id="Layer_1" data-name="Layer 1" xmlns="http://www.w3.org/2000/svg" viewBox="0 0 490 118"><title>Kashgari</title><path d="M7.9834,6.07471H24.88965V39.96143L56.66553,6.07471h22.206l-33.75,33.8247L80.60205,88.31836H58.50586L33.1665,52.418,24.88965,60.811V88.31836H7.9834Z"/><path d="M113.03174,51.32568a25.14265,25.14265,0,0,0,6.35107-1.395q3.42847-1.45019,3.42871-4.51953,0-3.73755-2.63037-5.16113-2.6294-1.42309-7.71972-1.42285-5.71216,0-8.08789,2.79a11.50216,11.50216,0,0,0-2.26221,5.57959H86.76709q.50391-7.979,4.48291-13.11231,6.33252-8.03466,21.74316-8.03467A38.77413,38.77413,0,0,1,130.813,30.01123q7.78931,3.9624,7.78906,14.95361v27.898q0,2.90185.11133,7.03028a8.832,8.832,0,0,0,.94873,4.24072,5.692,5.692,0,0,0,2.34326,1.84131v2.34326H124.7085a17.64087,17.64087,0,0,1-1.00391-3.45947q-.28052-1.6172-.44678-3.68262a32.81145,32.81145,0,0,1-7.63232,6.082,23.06926,23.06926,0,0,1-11.67383,2.957q-8.3064,0-13.72168-4.71484-5.41626-4.71387-5.41553-13.36279,0-11.21559,8.71192-16.23682,4.77831-2.73341,14.05273-3.90576Zm9.72314,7.4209a17.59219,17.59219,0,0,1-3.08252,1.53418,26.0451,26.0451,0,0,1-4.2705,1.08789l-3.61963.66992a23.81441,23.81441,0,0,0-7.30909,2.17579,7.26253,7.26253,0,0,0-3.75683,6.75146q0,4.07373,2.29443,5.88623a8.71738,8.71738,0,0,0,5.58057,1.81348,16.621,16.621,0,0,0,9.603-3.0127q4.39159-3.01318,4.56054-10.99219Z"/><path d="M164.82617,68.90137q.50465,4.24073,2.18653,6.02588,2.97069,3.18017,10.98828,3.18017a16.81662,16.81662,0,0,0,7.48437-1.39453,4.673,4.673,0,0,0,.53955-8.25781q-2.23608-1.39453-16.63574-4.79883-10.3667-2.56567-14.60645-6.4165-4.24071-3.79322-4.24023-10.936a18.95137,18.95137,0,0,1,6.62549-14.479q6.62622-6.05348,18.64844-6.05371,11.40527,0,18.5913,4.54736,7.18434,4.54834,8.248,15.70654H186.75391A9.40545,9.40545,0,0,0,185.02,41.17041q-2.6316-3.23511-8.95264-3.23584-5.20386,0-7.41308,1.61816a4.654,4.654,0,0,0-2.21,3.794,4.14919,4.14919,0,0,0,2.35009,3.96143q2.34888,1.28392,16.603,4.4082,9.50171,2.23168,14.24561,6.751a15.32975,15.32975,0,0,1,4.68652,11.43847,18.465,18.465,0,0,1-6.7373,14.75781q-6.73755,5.71875-20.8252,5.71924-14.36865,0-21.21729-6.05371a19.676,19.676,0,0,1-6.84863-15.42773Z"/><path d="M259.75488,27.83691a17.85117,17.85117,0,0,1,7.52832,5.97559,15.93082,15.93082,0,0,1,3.05469,7.00928,86.569,86.569,0,0,1,.55664,11.75488v35.7417H254.6582V51.28369a16.40407,16.40407,0,0,0-1.66211-7.93164q-2.16065-4.24512-8.19677-4.24609-6.25856,0-9.49952,4.21826-3.24023,4.21728-3.23925,12.03711v32.957H216.15869V6.354h15.90186V35.36768a19.45214,19.45214,0,0,1,7.97168-7.39307,22.454,22.454,0,0,1,9.52832-2.09229A25.74723,25.74723,0,0,1,259.75488,27.83691Z"/><path d="M315.93359,27.44482a19.10109,19.10109,0,0,1,9.36231,8.81592V27.50049h15.51074V85.19385q0,11.77221-3.96094,17.74316-6.80859,10.26563-26.11328,10.2666-11.66161,0-19.02637-4.57568-7.36523-4.57544-8.14648-13.66992h17.29688a7.16014,7.16014,0,0,0,2.17675,4.01758q2.56494,2.176,8.64844,2.17578,8.59131,0,11.49316-5.74707,1.897-3.68262,1.89747-12.38672V79.11182a19.39029,19.39029,0,0,1-4.91016,5.85888q-4.74316,3.62769-12.33106,3.62647-11.71728,0-18.71972-8.23-7.002-8.22949-7.002-22.29053,0-13.55785,6.74218-22.79248,6.74268-9.23364,19.11426-9.23438A20.90125,20.90125,0,0,1,315.93359,27.44482Zm5.416,43.6045q3.835-4.21216,3.834-13.41895,0-8.64771-3.63964-13.168a11.87457,11.87457,0,0,0-9.75-4.51953q-8.33643,0-11.502,7.86768a28.00233,28.00233,0,0,0-1.667,10.32226,23.632,23.632,0,0,0,1.77734,9.4292q3.22266,7.7,11.55762,7.7002A12.20808,12.20808,0,0,0,321.34961,71.04932Z"/><path d="M379.7373,51.32568a25.1424,25.1424,0,0,0,6.35157-1.395q3.42919-1.45019,3.42871-4.51953,0-3.73755-2.62988-5.16113-2.63087-1.42309-7.71973-1.42285-5.71289,0-8.08789,2.79a11.50249,11.50249,0,0,0-2.2627,5.57959H353.47363q.50244-7.979,4.48242-13.11231,6.33252-8.03466,21.74317-8.03467a38.77762,38.77762,0,0,1,17.82031,3.96143q7.78857,3.9624,7.78809,14.95361v27.898q0,2.90185.1123,7.03028a8.82747,8.82747,0,0,0,.94824,4.24072,5.69052,5.69052,0,0,0,2.34375,1.84131v2.34326H391.415a17.61331,17.61331,0,0,1-1.00488-3.45947q-.2798-1.6172-.44629-3.68262a32.804,32.804,0,0,1-7.63282,6.082,23.06407,23.06407,0,0,1-11.67382,2.957q-8.30567,0-13.72071-4.71484-5.417-4.71387-5.416-13.36279,0-11.21559,8.71191-16.23682,4.77833-2.73341,14.05274-3.90576Zm9.72364,7.4209a17.59656,17.59656,0,0,1-3.083,1.53418,26.02962,26.02962,0,0,1-4.26953,1.08789l-3.62012.66992a23.8227,23.8227,0,0,0-7.30957,2.17579,7.26349,7.26349,0,0,0-3.75586,6.75146q0,4.07373,2.29395,5.88623a8.71779,8.71779,0,0,0,5.58105,1.81348,16.6217,16.6217,0,0,0,9.60254-3.0127q4.39159-3.01318,4.56055-10.99219Z"/><path d="M452.98535,26.07764q.30615.02856,1.36719.084V42.4541q-1.50586-.16772-2.67774-.22314-1.17187-.05493-1.89746-.05616-9.59764,0-12.88867,6.24952-1.84131,3.51489-1.84179,10.82422V88.31836h-16.0127V27.50049H434.21V38.10156q3.68262-6.08056,6.417-8.31347,4.46338-3.73755,11.60547-3.73829C452.53027,26.0498,452.78125,26.05957,452.98535,26.07764Z"/><path d="M480.01953,20.24707h-16.125V5.57275h16.125Zm-16.125,7.25342h16.125V88.31836h-16.125Z"/></svg>