<svg id="Layer_1" data-name="Layer 1" xmlns="http://www.w3.org/2000/svg" xmlns:xlink="http://www.w3.org/1999/xlink" viewBox="0 0 467 266"><defs><style>.cls-1{fill:url(#linear-gradient);}.cls-2{stroke:#faba0d;stroke-miterlimit:10;stroke-width:5px;fill:url(#linear-gradient-2);}.cls-3{fill:url(#linear-gradient-3);}</style><linearGradient id="linear-gradient" x1="100.75999" y1="68.3212" x2="100.75999" y2="252.41121" gradientTransform="translate(0 -61.89002)" gradientUnits="userSpaceOnUse"><stop offset="0.009" stop-color="#e6e6e6"/><stop offset="1" stop-color="#f2f2f2" stop-opacity="0"/></linearGradient><linearGradient id="linear-gradient-2" x1="100.76" y1="102.2812" x2="100.76" y2="280.7212" gradientTransform="translate(0 -61.89002)" gradientUnits="userSpaceOnUse"><stop offset="0.004" stop-color="#e6e6e6"/><stop offset="0.995" stop-color="#fff" stop-opacity="0"/></linearGradient><linearGradient id="linear-gradient-3" x1="100.75999" y1="136.37119" x2="100.75999" y2="320.46119" gradientTransform="translate(0 -61.89002)" gradientUnits="userSpaceOnUse"><stop offset="0.006" stop-color="#e6e6e6"/><stop offset="1" stop-color="#f2f2f2" stop-opacity="0.8"/></linearGradient></defs><path class="cls-1" d="M100.76,190.52118l-92.05-92.04,92.05-92.05,92.05,92.05-92.05,92.04Z"/><path class="cls-2" d="M11.54,129.61118l89.22-89.22,89.22,89.22-89.22,89.22Z"/><path class="cls-3" d="M100.76,258.57117l-92.05-92.05,92.05-92.04,92.05,92.04-92.05,92.05Z"/><path d="M267.16245,103.09762v31.00154l33.30913-31.00154h7.38385l-25.60255,23.816,26.80587,33.82552h-7.06341L278.15869,130.7057l-10.99624,10.25393V160.739h-5.45662V103.09748Z"/><path d="M314.17192,146.9742a15.58562,15.58562,0,0,0,2.44822,5.286,14.016,14.016,0,0,0,4.25326,3.8775,11.85152,11.85152,0,0,0,6.18048,1.533,12.25435,12.25435,0,0,0,8.66789-2.907,15.3055,15.3055,0,0,0,4.33394-7.75039h5.05554a20.33808,20.33808,0,0,1-5.89917,10.9801,17.5166,17.5166,0,0,1-12.15809,3.87519,19.21,19.21,0,0,1-8.46733-1.73589,15.59769,15.59769,0,0,1-5.81855-4.76272,20.73808,20.73808,0,0,1-3.33115-7.02422,32.04025,32.04025,0,0,1-1.08352-8.43506,30.35756,30.35756,0,0,1,1.08352-8.07312,21.73747,21.73747,0,0,1,3.33115-7.06341,16.71,16.71,0,0,1,5.81855-5.00478,17.82,17.82,0,0,1,8.46733-1.89725,16.3509,16.3509,0,0,1,14.24669,7.30546,22.03054,22.03054,0,0,1,3.16977,7.506,33.24448,33.24448,0,0,1,.80224,8.59873H313.40908a22.641,22.641,0,0,0,.76288,5.69176Zm25.04006-15.54a15.2644,15.2644,0,0,0-2.60729-4.72123,12.90112,12.90112,0,0,0-4.09419-3.31039,11.65113,11.65113,0,0,0-5.45662-1.25408,11.83135,11.83135,0,0,0-5.53731,1.25408,12.90112,12.90112,0,0,0-4.09419,3.31039,16.49066,16.49066,0,0,0-2.688,4.76273,23.36937,23.36937,0,0,0-1.32554,5.52808h26.80821A18.519,18.519,0,0,0,339.212,131.43424Zm44.44252,29.30485v-7.91176h-.16137a11.92974,11.92974,0,0,1-2.36753,3.71152,15.2941,15.2941,0,0,1-3.5709,2.86778A18.55935,18.55935,0,0,1,373.26,161.2232a16.69119,16.69119,0,0,1-4.5345.64548,18.29786,18.29786,0,0,1-8.22528-1.73589,16.47134,16.47134,0,0,1-5.8197-4.76272,20.44274,20.44274,0,0,1-3.45333-7.02422,32.2487,32.2487,0,0,1,0-16.87011,20.44274,20.44274,0,0,1,3.45333-7.02422,16.8853,16.8853,0,0,1,5.8197-4.80422,17.93784,17.93784,0,0,1,8.22528-1.77522,18.25063,18.25063,0,0,1,4.5345.5648,15.13349,15.13349,0,0,1,4.13346,1.73588,14.63478,14.63478,0,0,1,3.41182,2.86548,12.05562,12.05562,0,0,1,2.28685,3.95587h.16137V103.09762h5.0555v57.64154ZM355.923,146.32642a17.76872,17.76872,0,0,0,2.409,5.69406,13.27409,13.27409,0,0,0,4.21291,4.07575,11.61214,11.61214,0,0,0,6.18049,1.57452,12.957,12.957,0,0,0,11.27747-5.65027,16.833,16.833,0,0,0,2.48741-5.69406,27.36233,27.36233,0,0,0,0-12.83355,16.84036,16.84036,0,0,0-2.48741-5.69176,12.96554,12.96554,0,0,0-11.27747-5.65257,11.59291,11.59291,0,0,0-6.18049,1.57689,13.25,13.25,0,0,0-4.21291,4.07575,17.77647,17.77647,0,0,0-2.409,5.69176,27.36233,27.36233,0,0,0,0,12.83355Zm46.00551-27.24392v9.76982h.16137a15.96254,15.96254,0,0,1,5.97992-7.83337,15.58841,15.58841,0,0,1,9.6708-2.5011v5.08547a15.14765,15.14765,0,0,0-6.26117.929,13.87409,13.87409,0,0,0-8.02471,7.91176,16.08635,16.08635,0,0,0-1.125,6.09511v22.19994h-5.05568V119.0825Zm44.87477.5648a18.3129,18.3129,0,0,1,6.14122,4.765,20.657,20.657,0,0,1,3.77145,6.98035,28.888,28.888,0,0,1,0,17.03378,20.6691,20.6691,0,0,1-3.77145,6.98272,17.8595,17.8595,0,0,1-6.14129,4.72361,21.12724,21.12724,0,0,1-16.77329,0,17.81621,17.81621,0,0,1-6.14129-4.72361,20.59,20.59,0,0,1-3.77146-6.98272,28.88817,28.88817,0,0,1,0-17.03378,20.57921,20.57921,0,0,1,3.77146-6.98035,18.268,18.268,0,0,1,6.14129-4.765,20.69982,20.69982,0,0,1,16.77329,0Zm-14.7285,4.03663a13.99933,13.99933,0,0,0-4.5345,4.03664,18.33386,18.33386,0,0,0-2.72716,5.69176,23.30442,23.30442,0,0,0,0,12.99722,18.295,18.295,0,0,0,2.72716,5.68945,13.29338,13.29338,0,0,0,21.75041,0,18.3,18.3,0,0,0,2.72946-5.68945,23.30442,23.30442,0,0,0,0-12.99722,18.33749,18.33749,0,0,0-2.72946-5.69176,13.2971,13.2971,0,0,0-17.21591-4.03664Z"/></svg>