<svg id="Layer_1" data-name="Layer 1" xmlns="http://www.w3.org/2000/svg" viewBox="0 0 368.73323 73.28956"><defs><style>.cls-1{fill:#002169;}.cls-2{fill:#fff;}</style></defs><path class="cls-1" d="M135.6,46.03125a19.06877,19.06877,0,0,1-6.01875-14.71875,19.83752,19.83752,0,0,1,5.625-13.59375c2.98124-2.98125,7.5-5.325,15.16874-5.325a42.50771,42.50771,0,0,1,7.21875.6,40.933,40.933,0,0,0,5.0625.75c.5625,0,.65624.24376.65624.54376s-.15.99374-.24374,2.79375-.1125,4.36874-.15,5.11875-.15,1.05-.45,1.05-.39375-.35625-.39375-1.05a6.93755,6.93755,0,0,0-2.1-5.08125,16.65,16.65,0,0,0-9.95625-2.83125c-6.61875,0-9.69375,1.875-11.4375,3.6375-3.6375,3.4875-4.48125,7.9125-4.48125,12.99375a17.98125,17.98125,0,0,0,17.75484,18.20485q.10383.00129.20767.0014c3.75,0,6.675-.45,8.6625-2.49375A9.375,9.375,0,0,0,162.6,42.45c0-.54376.20625-.75.50625-.75s.3375.35625.3375.75a52.932,52.932,0,0,1-1.08751,6.375c-.3.9375-.39375,1.05-1.29375,1.44375A29.09967,29.09967,0,0,1,152.1,51.41251C144.5625,51.4125,139.5375,49.575,135.6,46.03125Z"/><path class="cls-1" d="M172.33126,27.525V16.78125c0-1.59375-.50625-2.49375-2.15626-2.83125a8.19419,8.19419,0,0,0-1.6875-.15c-.1875,0-.39375-.1125-.39375-.3s.24375-.4125.7875-.4125c2.25,0,5.38125.15,5.625.15h11.4a14.99916,14.99916,0,0,0,2.1375-.24375c.24376,0,.45-.2625.69374-.2625s.20625.20625.20625.45S188.7,14.1375,188.55,15.525c0,.4875-.15,2.68126-.2625,3.28125,0,.24376-.15.54376-.33749.54376s-.39376-.24376-.39376-.6375a5.51224,5.51224,0,0,0-.3-1.875C186.9,16.05,186.41247,15.45,183.71246,15.15c-.84374-.09375-6.26249-.15-6.80624-.15-.20625,0-.3.15-.3.50625v13.725c0,.35625,0,.50625.3.50625.63749,0,6.76874,0,7.91249-.1125s1.875-.1875,2.325-.69375.5625-.6375.75-.6375.24375,0,.24375.39375-.24375,1.14375-.39376,2.775c-.09375.99375-.18751,2.85-.18751,3.1875s0,.95625-.35625.95625-.35626-.20626-.35626-.45a5.41915,5.41915,0,0,0-.18751-1.65c-.20625-.69375-.65626-1.5375-2.58751-1.74375-1.35-.15-6.28125-.24375-7.125-.24375a.31876.31876,0,0,0-.33751.35625V44.75624c.15,3.43125.9,4.0875,5.775,4.0875a13.81866,13.81866,0,0,0,4.76249-.5625c1.29376-.54375,1.875-1.5375,2.25-3.58125,0-.54375.18751-.73125.45-.73125s.3.39375.3.73125-.4125,3.75-.65626,4.83751-.75,1.29374-2.68124,1.29374c-7.5,0-10.85625-.3-12.3-.3-.24375,0-3.375.15-4.875.15-.54375,0-.78749-.1125-.78749-.39375s0-.3.39374-.3a8.25,8.25,0,0,0,1.5-.20625c.99375-.20625,1.23751-1.29375,1.44374-2.7375.24375-2.08125.24375-6.01875.24375-10.8Z"/><path class="cls-1" d="M115.74376,49.70625a4.33129,4.33129,0,0,1-1.875-.31875,11.98112,11.98112,0,0,1-4.18126-3.09375c-2.8875-3.09376-6.28125-7.5-10.35-12.75,4.48125-4.125,6.01874-7.8,6.01874-11.49375a8.7375,8.7375,0,0,0-3.43125-6.76875A15.33747,15.33747,0,0,0,92.8125,13.125c-1.5375,0-5.325.15-5.86874.15-.24375,0-3.375-.15-5.625-.15-.54376,0-.7875.1125-.7875.4125s.1875.3.39375.3a8.19357,8.19357,0,0,1,1.6875.15c1.65.3375,2.04374,1.14375,2.1375,2.83124S84.8625,19.8,84.8625,27.5625v8.75626c0,4.78124,0,8.71875-.26249,10.8-.1875,1.44375-.45,2.53125-1.44375,2.7375a8.04364,8.04364,0,0,1-1.48125.20625c-.3,0-.39375.15-.39375.3s.24375.39375.7875.39375c1.5,0,4.63125-.15,4.66874-.15s3.39375.15,6.13125.15c.54375,0,.78749-.15.78749-.39375s0-.3-.39374-.3-1.5375-.1125-2.23126-.20625c-1.5-.20625-1.875-1.29375-1.875-2.7375-.24374-2.08125-.24374-6.01875-.24374-10.8v-1.2c0-.24376,0-.39375.3375-.39375l6.13124.1125a.7875.7875,0,0,1,.63749.28125c.99375,1.29375,3.3375,4.63126,5.43751,7.36875,2.83125,3.75,4.575,6.16876,6.7125,7.31251a9.93748,9.93748,0,0,0,5.325.95624h1.4625c1.48125,0,4.63125-.15,4.875-.15s3.375.15,6.1125.15c.56251,0,.80625-.15.80625-.39374s-.11249-.3-.39375-.3-1.55625-.11251-2.25-.20626c-1.48125-.20625-1.875-1.29374-1.875-2.73749-.2625-2.08125-.2625-6.01875-.2625-10.8V27.525c0-7.7625,0-9.15.1125-10.74375s.4875-2.5875,1.875-2.83125a5.62512,5.62512,0,0,1,1.31249-.15.31877.31877,0,0,0,.31931-.3182l-.00056-.0193c0-.28125-.2625-.375-.7875-.375-1.5,0-4.63125.15-4.875.15s-3.63749-.1125-5.26873-.1125c-.54375,0-.80625.1125-.80625.4125s.20625.3.4125.3a6.39384,6.39384,0,0,1,1.5375.1875c1.08751.2625,1.59375,1.10625,1.68751,2.79375s0,2.98125,0,10.74375v8.75626c0,4.78124,0,8.71875-.24375,10.8a6.67528,6.67528,0,0,1-.45,1.875,1.29375,1.29375,0,0,1-1.14376.7125Zm-17.68125-17.4a6.48752,6.48752,0,0,1-3.75.9375,13.74379,13.74379,0,0,1-5.25-.7875.65625.65625,0,0,1-.3375-.6v-16.275a.61875.61875,0,0,1,.39375-.6,14.9999,14.9999,0,0,1,3.3375-.3c5.325,0,8.60624,3.75,8.60624,9.95626C101.1,28.425,99.80626,31.10625,98.06251,32.30625Z"/><path class="cls-1" d="M61.81875,31.875a39.78748,39.78748,0,0,1-24.8625,36.9,8.175,8.175,0,0,1-6.16875,0A39.78749,39.78749,0,0,1,5.925,31.875v-24a2.30624,2.30624,0,0,1,1.65-2.25A92.944,92.944,0,0,1,28.7625,1.9875c1.6875,0,3.39375-.13125,5.1-.13125a93.03741,93.03741,0,0,1,26.25,3.75,2.34375,2.34375,0,0,1,1.65,2.23125Z"/><path class="cls-2" d="M33.3375,48.58125a.91875.91875,0,0,0-.91895.91855l.00019.01895a.71258.71258,0,0,0,.09375.39375h0l.73125,1.5375a.09375.09375,0,0,0,.1875,0l.73125-1.5375a.93769.93769,0,0,0,.09375-.39375.91876.91876,0,0,0-.89981-.93731Z"/><path class="cls-2" d="M29.56875,51.9375a.93749.93749,0,0,0-.45-.80625H29.025a.16875.16875,0,0,0-.2625.1125,6.37587,6.37587,0,0,0,0,.84375,7.14381,7.14381,0,0,0,1.06875,3.75,6.97613,6.97613,0,0,0,.61875.84374.11992.11992,0,0,0,.15189-.18561L30.6,56.49374a9.01873,9.01873,0,0,1-1.06875-4.25625A1.51925,1.51925,0,0,1,29.56875,51.9375Z"/><path class="cls-2" d="M33.975,61.0875l.28125-.45a.375.375,0,0,0-.15-.50625L33.9,60a.11251.11251,0,0,0-.15,0,10.78263,10.78263,0,0,1-.6375,1.21875,1.16251,1.16251,0,0,1-.99375.54375h-.3375a.46876.46876,0,0,0-.43125.3v.13125a.11248.11248,0,0,0,.1125.15H31.65a.13129.13129,0,0,0,.1125,0h0a.4125.4125,0,0,1,.525-.225h0a.09375.09375,0,0,0,0,.15h.58125a.13132.13132,0,0,0,.11251,0h0v-.375a.91867.91867,0,0,1,.4125-.46875A1.2,1.2,0,0,0,33.975,61.0875Z"/><path class="cls-2" d="M36.24375,59.86875a.1125.1125,0,0,0-.15878-.01l-.01.01a9.07469,9.07469,0,0,1-.675,1.35,1.2,1.2,0,0,1-.99375.54375h-.3375a.45.45,0,0,0-.43125.3h0v.13125a.09375.09375,0,0,0,.09375.15h.1875a.15.15,0,0,0,.13125,0h0a.39375.39375,0,0,1,.50592-.23263l.01908.00763h0a.11249.11249,0,0,0,.1125.15h1.05a.225.225,0,0,1,.2625,0l.20625.1125h.35625v-.3a.31873.31873,0,0,0-.3-.225H36s-.13125-.1125,0-.1875l.15-.1875c.15-.225.3-.45.43125-.675l.15-.28125a.375.375,0,0,0-.14163-.51107L36.5625,60Z"/><path class="cls-2" d="M36.80625,46.875h0a1.48116,1.48116,0,0,1,.35625.4875.825.825,0,0,0,.50625.39375,2.58742,2.58742,0,0,1,.99375.48749h0a2.94378,2.94378,0,0,0-.525-1.66875.3.3,0,0,0-.24375-.15H37.8a1.76249,1.76249,0,0,0-1.10625.43125S36.80625,46.7625,36.80625,46.875Z"/><path class="cls-2" d="M37.44375,48.225h0a1.875,1.875,0,0,1-.20625.7125.56248.56248,0,0,0,0,.54376,2.625,2.625,0,0,1,.16875,1.05h0A2.925,2.925,0,0,0,38.5125,49.35a.71249.71249,0,0,0-.1875-.8625,1.76241,1.76241,0,0,0-.825-.375Z"/><path class="cls-2" d="M34.6875,46.575h0a1.87492,1.87492,0,0,1,.88125-.24375H36.075A.63756.63756,0,0,0,36.48751,46.2a2.36252,2.36252,0,0,1,.9375-.4875h0a2.47506,2.47506,0,0,0-.84376-.39375,1.06906,1.06906,0,0,0-.3375,0H35.925a1.59368,1.59368,0,0,0-.80625.41251,2.19383,2.19383,0,0,0-.54376.825h0Z"/><path class="cls-2" d="M32.4375,46.0125a3.84343,3.84343,0,0,1,.3375.95625,4.19992,4.19992,0,0,1,0,1.0875h0a1.40625,1.40625,0,0,1,.7875,0h0a4.19992,4.19992,0,0,1,0-1.0875A2.775,2.775,0,0,1,33.9,46.0125a2.98123,2.98123,0,0,1,.24375-.4125h0a2.98117,2.98117,0,0,0-.84375.69375.28125.28125,0,0,1-.39746.015l-.01505-.015A2.98117,2.98117,0,0,0,32.04374,45.6h0A2.98105,2.98105,0,0,1,32.4375,46.0125Z"/><path class="cls-2" d="M30.15,46.25625a.63752.63752,0,0,0,.41251.13125h.50625a1.87492,1.87492,0,0,1,.88125.24375h.09375a2.19388,2.19388,0,0,0-.54375-.825,1.59378,1.59378,0,0,0-.80625-.4125H30.375a.89969.89969,0,0,0-.3375,0,2.32493,2.32493,0,0,0-.84375.39375h0A2.49376,2.49376,0,0,1,30.15,46.25625Z"/><path class="cls-2" d="M29.475,47.30625a1.8752,1.8752,0,0,1,.375-.4875h0a1.76249,1.76249,0,0,0-1.10625-.43125h0a.3.3,0,0,0-.24375.15,2.79375,2.79375,0,0,0-.525,1.66875h0a2.47489,2.47489,0,0,1,.99375-.4875A.75.75,0,0,0,29.475,47.30625Z"/><path class="cls-2" d="M29.34375,50.625h0a2.625,2.625,0,0,1,.16875-1.05.61873.61873,0,0,0,0-.54375,2.41876,2.41876,0,0,1-.225-.71251h0a1.7626,1.7626,0,0,0-.84376.39375.6.6,0,0,0-.225.375.61876.61876,0,0,0,0,.45,2.73752,2.73752,0,0,0,1.10625,1.2S29.325,50.625,29.34375,50.625Z"/><path class="cls-2" d="M36.8625,58.21876h0a9.375,9.375,0,0,1-1.63125-2.7375,9.11278,9.11278,0,0,1-.54375-3.24376,4.91136,4.91136,0,0,1,0-.525h0a.15.15,0,0,1-.15-.15v0a.39375.39375,0,0,1,.37455-.41206q.00958-.00045.01919-.00044h1.40625a.54375.54375,0,0,0,.45-.46875,1.875,1.875,0,0,0-.15-.88125h0a1.74377,1.74377,0,0,1-.86249.225,1.68734,1.68734,0,0,1-.75-.16875h0a2.21187,2.21187,0,0,1-.13125.375l-.84375,1.875a.50625.50625,0,0,1-.9,0l-.84375-1.875a2.21275,2.21275,0,0,1-.13125-.375h0a1.68733,1.68733,0,0,1-.75.16875,1.74378,1.74378,0,0,1-.8625-.225h0a1.875,1.875,0,0,0-.15.88125.54374.54374,0,0,0,.45.46875h1.40625a.39374.39374,0,0,1,.39419.3933q0,.0096-.00044.0192a.15.15,0,0,1-.15.15H30.375a.16875.16875,0,0,0-.16875.16875h0a3.9202,3.9202,0,0,0,0,.46875,8.625,8.625,0,0,0,1.33125,4.59376A7.91238,7.91238,0,0,0,32.925,58.6125a8.32462,8.32462,0,0,0,1.74375,1.275h0a.67482.67482,0,0,0,0-.16874,1.08739,1.08739,0,0,0,0-.6,1.0687,1.0687,0,0,0-.2625-.525,9.88167,9.88167,0,0,1-1.0875-1.425.3748.3748,0,0,1,0-.13125.1687.1687,0,0,1,0-.11249.43131.43131,0,0,1,.20625,0,.39376.39376,0,0,1,.3375.18749A9.37548,9.37548,0,0,0,35.2875,58.8c.24375.20625.4875.4125.75.6l.675.45h0l.11251-.31875a1.14388,1.14388,0,0,0,0-.5625,1.10638,1.10638,0,0,0-.2625-.50625Z"/><path class="cls-2" d="M37.81875,59.15626h0a8.00679,8.00679,0,0,1-.50625,1.25624h0a15.48325,15.48325,0,0,0,1.76249.675h0a.1125.1125,0,0,0,.11251,0L39.45,60.675v-.1875a.20623.20623,0,0,0,0-.28125A8.85016,8.85016,0,0,1,37.81875,59.15626Z"/><path class="cls-2" d="M41.0625,59.26875A7.65006,7.65006,0,0,1,38.1,57.15a6.95625,6.95625,0,0,1-1.44375-2.53125.11253.11253,0,0,1,0-.1125.18747.18747,0,0,1,.09375,0h.13125a.45.45,0,0,1,.39374.2625,7.069,7.069,0,0,0,1.16251,2.025,6.80627,6.80627,0,0,0,1.63125,1.3875,7.4992,7.4992,0,0,0,1.40625.65624h0v-.375h0a1.38753,1.38753,0,0,0-.69375-.99375,6.35614,6.35614,0,0,1-1.55625-1.275A5.96249,5.96249,0,0,1,37.95,53.7a.24354.24354,0,0,1,0-.1125.18743.18743,0,0,1,.09374,0h0a.4125.4125,0,0,1,.41251.3,4.725,4.725,0,0,0,.43125,1.06875,4.66931,4.66931,0,0,0,.65624.9375,5.62523,5.62523,0,0,0,1.44375,1.2h.09375a22.7788,22.7788,0,0,0-.80625-3.075,5.77489,5.77489,0,0,0-.8625-1.65,4.98743,4.98743,0,0,0-1.275-1.2375.30011.30011,0,0,0-.16875,0,.24382.24382,0,0,0-.18749,0A3.20638,3.20638,0,0,1,36.75,51.675a3.45013,3.45013,0,0,1-1.1625.20625H35.175a.18749.18749,0,0,0-.1875.16875v.4125A8.533,8.533,0,0,0,39.15,59.83124a7.96885,7.96885,0,0,0,2.53125,1.0125h0a1.556,1.556,0,0,1,0-.28125A1.44374,1.44374,0,0,0,41.0625,59.26875Z"/><path class="cls-2" d="M35.64375,59.79375v-.225h0l-.3375-.28125m-.11251,0V59.55m0,.09376L35.55,59.85s.075-.01874.09376-.05625Z"/><path class="cls-2" d="M35.60625,46.875a1.25625,1.25625,0,1,0,1.25625,1.25625h0A1.25625,1.25625,0,0,0,35.60625,46.875Zm0,2.11875A.88124.88124,0,0,1,34.7625,48.15a.86251.86251,0,0,1,.5625-.825s.13125,0,0,.11251a.61869.61869,0,0,0-.15.45.675.675,0,0,0,.61875.6375.6.6,0,0,0,.45-.16875m.11251,0a.84376.84376,0,0,1-.76876.61874Z"/><path class="cls-2" d="M31.06875,46.875A1.25625,1.25625,0,1,0,32.325,48.13125h0A1.25625,1.25625,0,0,0,31.06875,46.875Zm0,2.11875A.84374.84374,0,0,1,30.225,48.15h0a.825.825,0,0,1,.5625-.825m0,.11251a.56249.56249,0,0,0-.15.45.65626.65626,0,0,0,.61876.6375.63751.63751,0,0,0,.45-.16875m.1125,0A.84375.84375,0,0,1,31.05,48.975Z"/><path class="cls-2" d="M15.9375,10.875a.91876.91876,0,0,0-.825,1.33125h0l.73125,1.5375a.1125.1125,0,0,0,.20625,0l.73125-1.5375a.93739.93739,0,0,0,.09375-.39375A.95625.95625,0,0,0,15.9375,10.875Z"/><path class="cls-2" d="M12.1875,14.23125a.88127.88127,0,0,0-.45-.80625h-.09375a.16875.16875,0,0,0-.2625.13125,5.9062,5.9062,0,0,0,0,.825,7.14384,7.14384,0,0,0,1.06875,3.75,5.62563,5.62563,0,0,0,.6375.84375.11249.11249,0,0,0,.15,0,.15.15,0,0,0,0-.1875,9,9,0,0,1-1.05-4.25625Z"/><path class="cls-2" d="M16.63125,23.38125c.09375-.15.1875-.3.2625-.45a.39375.39375,0,0,0-.13125-.50625l-.20625-.1125a.1125.1125,0,0,0-.15879-.01l-.01.01a10.78348,10.78348,0,0,1-.6375,1.21875,1.16251,1.16251,0,0,1-.99375.54375H14.4375a.46875.46875,0,0,0-.375.3v.13125a.09375.09375,0,0,0,.09375.15h.1875a.13122.13122,0,0,0,.1125,0h0a.41251.41251,0,0,1,.525-.225h0a.11251.11251,0,0,0,.1125.15H15.675v-.375a1.0125,1.0125,0,0,1,.4125-.46875A1.5,1.5,0,0,0,16.63125,23.38125Z"/><path class="cls-2" d="M18.9,22.1625h-.16875a9.16882,9.16882,0,0,1-.69374,1.35,1.16251,1.16251,0,0,1-.99375.54375h-.3375a.46875.46875,0,0,0-.43125.3h0v.13125a.11251.11251,0,0,0,.1125.15h.1875a.13129.13129,0,0,0,.1125,0h0a.41249.41249,0,0,1,.525-.225h0a.09375.09375,0,0,0,.09375.15h1.05a.225.225,0,0,1,.2625,0l.20625.1125h.43125v-.3a.31874.31874,0,0,0-.3-.225h-.24375a.1125.1125,0,0,1,0-.1875l.13125-.1875c.15-.225.3-.45.43124-.675a2.04315,2.04315,0,0,0,.15-.28125.375.375,0,0,0-.13125-.4875Z"/><path class="cls-2" d="M19.44375,9.075h0A2.32537,2.32537,0,0,1,19.8,9.5625a.7875.7875,0,0,0,.48749.39375,2.36245,2.36245,0,0,1,.99375.48749h0A2.925,2.925,0,0,0,20.775,8.775a.35624.35624,0,0,0-.2625-.15h-.09375a1.70627,1.70627,0,0,0-1.0875.43125S19.44375,9.05625,19.44375,9.075Z"/><path class="cls-2" d="M20.08125,10.51875h0a1.66882,1.66882,0,0,1-.225.7125.69375.69375,0,0,0,0,.54375,2.32509,2.32509,0,0,1,.16875,1.05h0a2.86872,2.86872,0,0,0,1.0875-1.18125.675.675,0,0,0,0-.46875.6.6,0,0,0-.24375-.39375,1.66863,1.66863,0,0,0-.825-.375Z"/><path class="cls-2" d="M17.325,8.86875h0a1.87493,1.87493,0,0,1,.88126-.24375h.525a.61881.61881,0,0,0,.39375-.13125,2.64368,2.64368,0,0,1,.9375-.4875h0a2.4751,2.4751,0,0,0-.84375-.39375,1.08765,1.08765,0,0,0-.35625,0h-.31875a1.46255,1.46255,0,0,0-.78749.4125,2.15636,2.15636,0,0,0-.5625.825h0Z"/><path class="cls-2" d="M15.09375,8.30625a3.18767,3.18767,0,0,1,.31875.95625,4.2,4.2,0,0,1,.09374,1.0875h0a1.40625,1.40625,0,0,1,.7875,0h0a4.19992,4.19992,0,0,1,0-1.0875,3.84343,3.84343,0,0,1,.3375-.95625,2.98064,2.98064,0,0,1,.24375-.4125h0a2.68111,2.68111,0,0,0-.825.69375.31876.31876,0,0,1-.225,0,.30006.30006,0,0,1-.20625,0,2.98121,2.98121,0,0,0-.84376-.69375h0A3.075,3.075,0,0,1,15.09375,8.30625Z"/><path class="cls-2" d="M12.7875,8.55a.63746.63746,0,0,0,.4125.13125h.50625a1.875,1.875,0,0,1,.88125.24375h0A2.66232,2.66232,0,0,0,14.025,8.1a1.61248,1.61248,0,0,0-.7875-.41251H12.9a1.06906,1.06906,0,0,0-.3375,0,2.475,2.475,0,0,0-.84375.39375h0A2.36256,2.36256,0,0,1,12.7875,8.55Z"/><path class="cls-2" d="M12.1875,9.6a1.87486,1.87486,0,0,1,.35625-.4875h0a1.70629,1.70629,0,0,0-1.10625-.43125h0a.3.3,0,0,0-.2625.15A2.94367,2.94367,0,0,0,10.65,10.5h0a2.58735,2.58735,0,0,1,.99375-.48749A.78753.78753,0,0,0,12.1875,9.6Z"/><path class="cls-2" d="M11.98125,12.95625h0a2.625,2.625,0,0,1,.16875-1.05.61877.61877,0,0,0,.0375-.65625,1.66886,1.66886,0,0,1-.225-.7125h0a2.19377,2.19377,0,0,0-.84375.39375.69371.69371,0,0,0-.225.375.61884.61884,0,0,0,0,.45A2.85,2.85,0,0,0,12,12.95625Z"/><path class="cls-2" d="M19.51875,20.5125h0A8.84989,8.84989,0,0,1,17.8125,17.775a9.05629,9.05629,0,0,1-.6-3.24375,4.91661,4.91661,0,0,1,0-.525h0a.16873.16873,0,0,1-.15-.15.41249.41249,0,0,1,.41249-.4125H18.8625a.525.525,0,0,0,.45-.46875,1.87508,1.87508,0,0,0-.13125-.88126h0a1.68745,1.68745,0,0,1-.8625.225,1.74356,1.74356,0,0,1-.75-.16875h0a.91868.91868,0,0,1-.13125.35625l-.84375,1.875a.4875.4875,0,0,1-.45.28125.525.525,0,0,1-.45-.28125l-.84375-1.875a1.31217,1.31217,0,0,1-.1125-.35625h0a1.875,1.875,0,0,1-.76875.16875,1.74369,1.74369,0,0,1-.8625-.225h0a1.875,1.875,0,0,0-.13125.88126.525.525,0,0,0,.43125.46875h1.40625a.4125.4125,0,0,1,.4125.41249v0a.16874.16874,0,0,1-.15.15H12.9375a.16875.16875,0,0,0-.18645.149.16592.16592,0,0,0-.001.0198v.46875A8.625,8.625,0,0,0,14.0625,19.125,8.53136,8.53136,0,0,0,15.45,20.79375a8.15631,8.15631,0,0,0,1.74375,1.275h0V21.9a1.08739,1.08739,0,0,0,0-.6.93744.93744,0,0,0-.2625-.525,9.74992,9.74992,0,0,1-1.06874-1.425.11248.11248,0,0,1,0-.13125.13124.13124,0,0,1,0-.11251.37515.37515,0,0,1,.20625,0,.41251.41251,0,0,1,.3375.1875,8.71865,8.71865,0,0,0,1.425,1.6875,7.80026,7.80026,0,0,0,.73125.6l.675.45h0l.11251-.31875a1.14388,1.14388,0,0,0,0-.5625,1.275,1.275,0,0,0-.24376-.50625Z"/><path class="cls-2" d="M20.45625,21.45h0A8.00679,8.00679,0,0,1,19.95,22.70624h0a16.87426,16.87426,0,0,0,1.7625.675h0a.16885.16885,0,0,0,.13125,0l.24375-.41251.1125-.18749a.225.225,0,0,0,0-.28126A8.84943,8.84943,0,0,1,20.45625,21.45Z"/><path class="cls-2" d="M23.7,21.5625a8.26814,8.26814,0,0,1-1.21875-.61875,7.31222,7.31222,0,0,1-1.74375-1.48126A7.81884,7.81884,0,0,1,19.29375,16.875a.13122.13122,0,0,1,0-.1125H19.425a.43124.43124,0,0,1,.39375.2625A6.54367,6.54367,0,0,0,21.075,19.14375a7.10577,7.10577,0,0,0,1.6125,1.3875,7.988,7.988,0,0,0,1.40625.65625h0v-.375h0a1.48126,1.48126,0,0,0-.7125-.99375,6.35641,6.35641,0,0,1-1.55626-1.275A5.92491,5.92491,0,0,1,20.56875,16.05m0-.11251a.18743.18743,0,0,1,.09374,0h0a.4125.4125,0,0,1,.39375.3,5.30636,5.30636,0,0,0,.43125,1.06875,6.63662,6.63662,0,0,0,.65625.95625,5.62506,5.62506,0,0,0,1.4625,1.18125h0a22.87426,22.87426,0,0,0-.7875-3.075,6.2813,6.2813,0,0,0-.8625-1.65,5.62494,5.62494,0,0,0-1.275-1.2375.31872.31872,0,0,0-.1875,0,.2625.2625,0,0,0-.18749,0,3.58131,3.58131,0,0,1-1.01251.5625,4.06865,4.06865,0,0,1-1.16249.1875H17.7a.16875.16875,0,0,0-.16875.16875h0a3.03659,3.03659,0,0,0,0,.4125,8.7,8.7,0,0,0,2.08125,5.625,8.83134,8.83134,0,0,0,4.63125,2.79375h0V22.95A1.35,1.35,0,0,0,23.7,21.5625Z"/><path class="cls-2" d="M18.28125,22.0875v-.225h0l-.3375-.28125H17.85v.2625h0a2.21261,2.21261,0,0,0,.35625.20625Z"/><path class="cls-2" d="M18.24375,9.15A1.25625,1.25625,0,1,0,19.5,10.40626v0A1.25625,1.25625,0,0,0,18.24375,9.15Zm0,2.11875A.8625.8625,0,0,1,17.4,10.425a.9.9,0,0,1,.58125-.825m0,.1125a.63751.63751,0,0,0-.16875.45A.69375.69375,0,0,0,18.45,10.8a.675.675,0,0,0,.45-.16875h0a.825.825,0,0,1-.675.61874Z"/><path class="cls-2" d="M13.70625,9.15a1.25625,1.25625,0,1,0,1.25625,1.25626v0A1.25625,1.25625,0,0,0,13.70625,9.15Zm0,2.11875a.8625.8625,0,0,1-.84375-.84375.9.9,0,0,1,.58125-.825m0,.1125a.71256.71256,0,0,0-.15.45.675.675,0,0,0,.61875.6375.69373.69373,0,0,0,.46875-.16875H14.475a.825.825,0,0,1-.7875.61874Z"/><path class="cls-2" d="M48.6,10.875a.91876.91876,0,0,0-.825,1.33125h0l.73125,1.5375a.1125.1125,0,0,0,.20625,0l.73125-1.5375A.91876.91876,0,0,0,48.6,10.875Z"/><path class="cls-2" d="M44.83125,14.23125a.88127.88127,0,0,0-.45-.80625H44.2875a.16875.16875,0,0,0-.2625.13125,5.94319,5.94319,0,0,0,0,.825A6.69377,6.69377,0,0,0,45.7125,18.975a.11251.11251,0,0,0,.15,0,.13125.13125,0,0,0,.00188-.18561l-.00188-.00189a9,9,0,0,1-1.05-4.25625Z"/><path class="cls-2" d="M49.25625,23.38125c0-.15.1875-.3.2625-.45a.375.375,0,0,0-.13125-.50625l-.20625-.1125a.13123.13123,0,0,0-.16875,0,8.40026,8.40026,0,0,1-.6375,1.21875,1.16249,1.16249,0,0,1-.99375.54375H47.0625a.46876.46876,0,0,0-.45.3v.13125a.09375.09375,0,0,0,0,.15h.3a.39375.39375,0,0,1,.50625-.225h0a.11252.11252,0,0,0,.11251.15h.58125a.15.15,0,0,0,.1125,0h0v-.15l.09375-.225a.975.975,0,0,1,.39375-.46875A1.08758,1.08758,0,0,0,49.25625,23.38125Z"/><path class="cls-2" d="M51.5625,22.1625a.1125.1125,0,0,0-.15879-.01l-.01.01a9.1679,9.1679,0,0,1-.69375,1.35,1.16249,1.16249,0,0,1-.99375.54375h-.3375a.46877.46877,0,0,0-.43125.3h0v.13125a.11252.11252,0,0,0,.11251.15h.18749a.13132.13132,0,0,0,.11251,0h0a.41248.41248,0,0,1,.525-.225h0s0,.15.11251.15h1.03125a.26252.26252,0,0,1,.28126,0l.20625.1125h.43125v-.3a.3.3,0,0,0-.3-.225h-.24376a.11252.11252,0,0,1,0-.1875l.13125-.1875c.15-.225.3-.45.43125-.675l.16875-.28125a.39375.39375,0,0,0-.15-.4875Z"/><path class="cls-2" d="M52.0875,9.075h0a1.87532,1.87532,0,0,1,.35625.4875.7875.7875,0,0,0,.48749.39375,2.36245,2.36245,0,0,1,.99375.48749h0A2.9437,2.9437,0,0,0,53.4,8.775a.31872.31872,0,0,0-.2625-.15h-.09375a1.70627,1.70627,0,0,0-1.0875.43125Z"/><path class="cls-2" d="M52.725,10.51875h0a1.66882,1.66882,0,0,1-.225.7125.61873.61873,0,0,0,0,.54375,2.30622,2.30622,0,0,1,.15,1.05h0a2.86881,2.86881,0,0,0,1.08751-1.18125.80632.80632,0,0,0,0-.46875.78751.78751,0,0,0-.24376-.39375,1.74362,1.74362,0,0,0-.84375-.375Z"/><path class="cls-2" d="M49.96875,8.86875h0A1.87493,1.87493,0,0,1,50.85,8.625h.50625A.58124.58124,0,0,0,51.75,8.49375a2.56873,2.56873,0,0,1,.95625-.4875h0a2.475,2.475,0,0,0-.84375-.39375,1.069,1.069,0,0,0-.3-.1125H51.225a1.53758,1.53758,0,0,0-.7875.4125,2.66268,2.66268,0,0,0-.5625.825h0Z"/><path class="cls-2" d="M47.8125,8.30625a3.84343,3.84343,0,0,1,.3375.95625,5.21225,5.21225,0,0,1,0,1.0875h0a1.20012,1.20012,0,0,1,.375,0,1.23776,1.23776,0,0,1,.39375,0h0a5.21225,5.21225,0,0,1,0-1.0875,3.84343,3.84343,0,0,1,.3375-.95625A2.98064,2.98064,0,0,1,49.5,7.89375h0a2.98117,2.98117,0,0,0-.84375.69375.31876.31876,0,0,1-.225,0,.30006.30006,0,0,1-.20625,0,2.98117,2.98117,0,0,0-.84375-.69375h0C47.55,8.025,47.64375,8.15625,47.8125,8.30625Z"/><path class="cls-2" d="M45.43125,8.55a.58121.58121,0,0,0,.39375.13125h.46875A1.875,1.875,0,0,1,47.175,8.925h0a2.66252,2.66252,0,0,0-.5625-.825,1.53747,1.53747,0,0,0-.675-.6H45.6a1.06906,1.06906,0,0,0-.3375,0,2.475,2.475,0,0,0-.84375.39375h0A2.56887,2.56887,0,0,1,45.43125,8.55Z"/><path class="cls-2" d="M44.75625,9.6a1.87486,1.87486,0,0,1,.35625-.4875h0a1.70631,1.70631,0,0,0-1.10625-.43125h0a.3.3,0,0,0-.2625.15,2.94367,2.94367,0,0,0-.525,1.66874h0a2.54989,2.54989,0,0,1,1.0125-.48749A.78754.78754,0,0,0,44.75625,9.6Z"/><path class="cls-2" d="M44.60625,12.95625h0a2.30616,2.30616,0,0,1,.15-1.05.6188.6188,0,0,0,0-.54375,1.66877,1.66877,0,0,1-.225-.71251h0a1.87494,1.87494,0,0,0-.84375.39375.63751.63751,0,0,0-.24376.375.7313.7313,0,0,0,0,.45,2.98133,2.98133,0,0,0,1.10625,1.2Z"/><path class="cls-2" d="M52.14375,20.5125h0A8.85036,8.85036,0,0,1,50.5125,17.775a9.05628,9.05628,0,0,1-.6-3.24375,4.91136,4.91136,0,0,1,0-.525h0a.16874.16874,0,0,1-.15-.15.4125.4125,0,0,1,.4125-.4125h1.3875a.525.525,0,0,0,.45-.46875,1.875,1.875,0,0,0-.13125-.88126h0a1.74368,1.74368,0,0,1-.86249.225A1.87488,1.87488,0,0,1,50.25,12.15h0a1.31219,1.31219,0,0,1-.11251.35625l-.8625,1.875a.48748.48748,0,0,1-.45.28125.46876.46876,0,0,1-.43125-.28125l-.8625-1.875a1.31251,1.31251,0,0,1-.1125-.35625h0a1.875,1.875,0,0,1-.76875.16875,1.74369,1.74369,0,0,1-.8625-.225h0a1.87508,1.87508,0,0,0-.13125.88126.525.525,0,0,0,.45.46875h1.38749a.4125.4125,0,0,1,.41251.41249v0a.16874.16874,0,0,1-.15.15H45.5625a.18751.18751,0,0,0-.1875.16875v.46875a8.45628,8.45628,0,0,0,2.7,6.2625,7.81852,7.81852,0,0,0,1.7625,1.275h0a.6749.6749,0,0,1,0-.16875,1.29369,1.29369,0,0,0,0-.6.95618.95618,0,0,0-.28126-.525,9.75132,9.75132,0,0,1-1.06875-1.425v-.13125a.13129.13129,0,0,1,0-.1125.375.375,0,0,1,.20626,0,.41249.41249,0,0,1,.3375.18749,8.71871,8.71871,0,0,0,1.425,1.68751,7.80341,7.80341,0,0,0,.73125.6l.675.45h0L51.975,21.825a1.14388,1.14388,0,0,0,0-.5625,1.06886,1.06886,0,0,0-.24376-.50625Z"/><path class="cls-2" d="M53.08125,21.45h0a10.23656,10.23656,0,0,1-.48749,1.25624h0a16.875,16.875,0,0,0,1.76249.675h0a.16888.16888,0,0,0,.11251,0l.24375-.41251.1125-.18749a.20625.20625,0,0,0,0-.28126A10.369,10.369,0,0,1,53.08125,21.45Z"/><path class="cls-2" d="M57.1875,22.5a1.35,1.35,0,0,0-.8625-.99375,8.26864,8.26864,0,0,1-1.21875-.61875,7.31237,7.31237,0,0,1-1.74375-1.48125A7.8187,7.8187,0,0,1,51.91875,16.875a.24354.24354,0,0,1,0-.1125h.1125a.41251.41251,0,0,1,.39375.2625,6.89985,6.89985,0,0,0,1.25624,2.11875,7.106,7.106,0,0,0,1.61251,1.3875A7.98762,7.98762,0,0,0,56.7,21.1875h0v-.375h0a1.48125,1.48125,0,0,0-.71251-.99375,5.94394,5.94394,0,0,1-1.5375-1.275A5.75633,5.75633,0,0,1,53.175,16.05a.13132.13132,0,0,1,0-.11251h0a.39375.39375,0,0,1,.39375.3,5.30627,5.30627,0,0,0,1.08751,2.025,5.625,5.625,0,0,0,1.46249,1.18125h.09375a20.36219,20.36219,0,0,0-.78749-3.075,6.2816,6.2816,0,0,0-.8625-1.65,5.62535,5.62535,0,0,0-1.275-1.2375.3.3,0,0,0,.15-.35625.28123.28123,0,0,0-.20625,0,3.33765,3.33765,0,0,1-1.0125.5625,4.06906,4.06906,0,0,1-1.1625.1875H50.625a.16875.16875,0,0,0-.16875.16875h0a3.03659,3.03659,0,0,0,0,.4125,8.7,8.7,0,0,0,2.08125,5.625,8.8313,8.8313,0,0,0,4.65,2.85h0A1.55653,1.55653,0,0,0,57.1875,22.5Z"/><path class="cls-2" d="M50.90625,22.0875,51,21.8625h0l-.3375-.28125h0l-.09375.2625h0A2.21261,2.21261,0,0,0,50.925,22.05Z"/><path class="cls-2" d="M50.8875,9.15a1.25625,1.25625,0,1,0,1.25625,1.25626v0A1.25625,1.25625,0,0,0,50.8875,9.15Zm0,2.11875A.8615.8615,0,0,1,50.625,9.6m0,.1125a.63751.63751,0,0,0-.16875.45.69375.69375,0,0,0,.6375.6375.6375.6375,0,0,0,.45-.16875m.11251,0A.8625.8625,0,0,1,50.85,11.25Z"/><path class="cls-2" d="M46.33125,9.15a1.25625,1.25625,0,1,0,1.25624,1.25626v0A1.25624,1.25624,0,0,0,46.33125,9.15Zm0,2.11875a.8625.8625,0,0,1-.84375-.84375.9.9,0,0,1,.58125-.825m0,.1125a.63751.63751,0,0,0-.16875.45.69375.69375,0,0,0,.6375.6375.675.675,0,0,0,.45-.16875h0a.825.825,0,0,1-.675.61874Z"/><path class="cls-2" d="M33.8625,28.125l-21.88125,21.9c.65625,1.2,1.36875,2.3625,2.1375,3.50625L14.90624,54.6,33.8625,35.625,52.8375,54.6l.76875-1.06875a35.7579,35.7579,0,0,0,2.1375-3.50625Z"/><path class="cls-2" d="M33.8625,16.875,8.775,41.98125a38.81334,38.81334,0,0,0,1.875,5.625L33.8625,24.375,56.98125,47.5125a38.90635,38.90635,0,0,0,1.9875-5.625Z"/><path class="cls-1" d="M202.69678,21.21191c.69775-.67529,3.75879-3.894,5.13183-5.312,1.3501-1.395,1.44043-1.62011,1.44043-1.89013a.46161.46161,0,0,0-.293-.42774c-.15722-.06738-.20263-.11279-.20263-.20264s.13525-.13525.33789-.13525c.65283,0,.585.06787,1.35058.06787.69727,0,2.02539-.06787,2.38526-.06787.31543,0,.38281.06787.38281.15772s-.04492.13525-.24756.15771a4.08761,4.08761,0,0,0-1.14795.27,6.99773,6.99773,0,0,0-2.34033,1.80029c-1.981,1.91309-4.54639,4.45655-5.13184,5.10938,1.418,1.55273,5.51416,5.71631,6.57227,6.707,1.84522,1.73291,2.63281,2.228,3.71338,2.43066a3.06246,3.06246,0,0,0,.65283.06739c.17969,0,.31494.04492.31494.15771,0,.11231-.08984.15723-.3374.15723h-1.66553c-1.95849,0-2.47607-.24756-3.53369-1.08008a85.70028,85.70028,0,0,1-7.38232-7.76514v2.31836c0,2.16065,0,3.93848.11279,4.88379.06738.65283.20215,1.148.87744,1.23828.31543.04492.76514.08985.90039.08985.20264,0,.27.08984.27.15771,0,.11231-.08984.15723-.3374.15723-1.23779,0-2.65576-.06739-2.76856-.06739-.1123,0-1.44042.06739-2.11572.06739-.24756,0-.35986-.02246-.35986-.15723,0-.06787.04492-.15771.24756-.15771a3.10649,3.10649,0,0,0,.585-.06739c.45019-.09033.58545-.60791.67529-1.26074.11279-.94531.11279-2.72314.11279-4.88379V19.77148c0-3.51123,0-4.1416-.04492-4.86181-.04541-.76514-.27051-1.14746-.76562-1.26026a3.86029,3.86029,0,0,0-.81006-.08984c-.18018,0-.24756-.04492-.24756-.13525,0-.13477.1123-.18018.35986-.18018.74268,0,2.251.06787,2.36328.06787.1128,0,1.53077-.06787,2.20557-.06787.24756,0,.36035.04541.36035.15772,0,.08984-.04492.13525-.24756.15771-.24755.02246-.27.02246-.49511.04492-.60791.06739-.7876.51758-.833,1.30518-.04492.72021-.04492,1.35058-.04492,4.86181Z"/><path class="cls-1" d="M216.60889,19.77148c0-3.51123,0-4.1416-.04541-4.86181-.04493-.76514-.22461-1.125-.96778-1.28272a5.30053,5.30053,0,0,0-.65234-.06738c-.15772-.02246-.29248-.04492-.29248-.13525,0-.13477.1123-.18018.35986-.18018.51758,0,1.12549,0,2.54346.06787.15723,0,4.63623,0,5.15381-.02246a3.76737,3.76737,0,0,0,1.03515-.13525.54863.54863,0,0,1,.24756-.08985c.06787,0,.09033.08985.09033.20215a9.76354,9.76354,0,0,0-.18017,1.05811c-.02246.3374-.04492.76513-.08984,1.35058-.02247.22461-.09034.38233-.18018.38233-.13525,0-.18018-.11231-.18018-.29248a2.24764,2.24764,0,0,0-.1123-.74268c-.15772-.51758-.63037-.74267-1.62061-.833-.38281-.04492-2.83593-.06738-3.08349-.06738-.08985,0-.13477.06738-.13477.2251v6.21191c0,.15772.02246.2251.13477.2251.29248,0,3.061,0,3.57861-.04492.60791-.04541.90039-.1128,1.12549-.38281.1123-.13526.17969-.2251.27-.2251.06738,0,.1123.04492.1123.18017,0,.13477-.1123.51758-.17968,1.26026-.06788.69775-.06788,1.21533-.09034,1.53027-.02246.2251-.06738.33789-.15722.33789-.13526,0-.15772-.18017-.15772-.36035a2.03721,2.03721,0,0,0-.08984-.62988c-.09033-.33789-.36035-.65283-1.17041-.74268-.60791-.06787-2.83594-.11279-3.21875-.11279a.142.142,0,0,0-.15723.15771v1.98047c0,.76514-.02295,3.376,0,3.84863.04492.92286.17969,1.418.74268,1.64307a5.43739,5.43739,0,0,0,1.86767.20264,7.46153,7.46153,0,0,0,2.02588-.20264c.72022-.2251.96778-.69775,1.148-1.66553.04492-.24755.08985-.3374.20264-.3374.13476,0,.13476.17969.13476.3374,0,.18018-.18017,1.71045-.29248,2.18311-.15771.58545-.33789.58545-1.21533.58545-1.66553,0-2.4082-.04541-3.28613-.06787-.90039-.02246-1.93555-.06739-2.81348-.06739-.54,0-1.08008.08985-1.66553.06739-.24755,0-.35986-.04492-.35986-.17969,0-.06787.11231-.11279.24756-.13525a2.91229,2.91229,0,0,0,.51758-.06739c.47265-.11279.76513-.42773.81006-2.11572.023-.87793.04541-2.02588.04541-4.02881Z"/><path class="cls-1" d="M227.90918,23.62012c0-8.125.04492-5.19922.02246-9.56543,0-.87793.06738-1.12549.24756-1.12549.17969,0,.5625.49512.7876.72021.3374.38282,3.69091,4.00635,7.15722,7.71973,2.228,2.38574,4.68116,5.13184,5.40137,5.87451l-.24756-11.43359c-.02246-1.46289-.17969-1.958-.87744-2.13818a4.69071,4.69071,0,0,0-.96777-.11231c-.24756,0-.31543-.06787-.31543-.15771,0-.13526.18017-.15772.45019-.15772,1.0127,0,2.09326.06787,2.34082.06787s.99024-.06787,1.91309-.06787c.24756,0,.40527.02246.40527.15772,0,.08984-.09033.13525-.24756.15771-.18017.02246-.31543.04492-.58545.08984-.63037.13526-.78759.47266-.78759,2.02588L242.561,28.81885c0,1.48535-.04542,1.59814-.20264,1.59814-.18018,0-.4502-.24756-1.64307-1.44043-.24756-.2251-3.48877-3.53369-5.87451-6.09912-2.61035-2.81348-5.15381-5.64941-5.874-6.45947l.29248,10.78076c.04492,1.84522.27,2.43066.87793,2.61035a4.92436,4.92436,0,0,0,1.12549.13526c.1123,0,.17968.04492.17968.13525,0,.13477-.13476.17969-.40478.17969-1.28321,0-2.18311-.06739-2.38574-.06739s-1.148.06739-2.16065.06739c-.2251,0-.36035-.02246-.36035-.17969,0-.09033.06738-.13525.18018-.13525a3.22243,3.22243,0,0,0,.92285-.13526c.5625-.15722.67529-.81006.67529-2.85791Z"/><path class="cls-1" d="M255.70947,21.21191c.69776-.67529,3.75879-3.894,5.13184-5.312,1.3501-1.395,1.44043-1.62011,1.44043-1.89013a.46161.46161,0,0,0-.293-.42774c-.15723-.06738-.20264-.11279-.20264-.20264s.13526-.13525.33789-.13525c.65284,0,.585.06787,1.35059.06787.69727,0,2.02539-.06787,2.38574-.06787.31445,0,.38281.06787.38281.15772s-.04589.13525-.248.15771a4.07569,4.07569,0,0,0-1.14746.27,6.99242,6.99242,0,0,0-2.34082,1.80029c-1.981,1.91309-4.54639,4.45655-5.13184,5.10938,1.418,1.55273,5.51416,5.71631,6.57227,6.707,1.8457,1.73291,2.63281,2.228,3.71289,2.43066a3.067,3.067,0,0,0,.65332.06739c.17968,0,.31543.04492.31543.15771,0,.11231-.09082.15723-.33789.15723h-1.666c-1.958,0-2.47559-.24756-3.5332-1.08008a85.69882,85.69882,0,0,1-7.38233-7.76514v2.31836c0,2.16065,0,3.93848.1128,4.88379.06738.65283.20214,1.148.87744,1.23828.31543.04492.76513.08985.90039.08985.20263,0,.27.08984.27.15771,0,.11231-.08985.15723-.33741.15723-1.23779,0-2.65576-.06739-2.76855-.06739-.1123,0-1.44043.06739-2.11572.06739-.24756,0-.35987-.02246-.35987-.15723,0-.06787.04493-.15771.24756-.15771a3.10631,3.10631,0,0,0,.585-.06739c.4502-.09033.58545-.60791.6753-1.26074.11279-.94531.11279-2.72314.11279-4.88379V19.77148c0-3.51123,0-4.1416-.04492-4.86181-.04541-.76514-.27051-1.14746-.76563-1.26026a3.86023,3.86023,0,0,0-.81006-.08984c-.18017,0-.24755-.04492-.24755-.13525,0-.13477.1123-.18018.35986-.18018.74267,0,2.251.06787,2.36328.06787.11279,0,1.53076-.06787,2.20557-.06787.24756,0,.36035.04541.36035.15772,0,.08984-.04492.13525-.24756.15771-.24756.02246-.27.02246-.49512.04492-.60791.06739-.7876.51758-.833,1.30518-.04492.72021-.04492,1.35058-.04492,4.86181Z"/><path class="cls-1" d="M269.62109,19.77148c0-3.51123,0-4.1416-.04492-4.86181-.04492-.76514-.22461-1.125-.96777-1.28272a5.31108,5.31108,0,0,0-.65235-.06738c-.15722-.02246-.293-.04492-.293-.13525,0-.13477.1123-.18018.36035-.18018.51758,0,1.125,0,2.543.06787.1582,0,4.63671,0,5.15429-.02246a3.76747,3.76747,0,0,0,1.03516-.13525.548.548,0,0,1,.24805-.08985c.06738,0,.08984.08985.08984.20215a9.82021,9.82021,0,0,0-.17969,1.05811c-.02344.3374-.0459.76513-.09082,1.35058-.02246.22461-.08984.38233-.17969.38233-.13476,0-.17968-.11231-.17968-.29248a2.24512,2.24512,0,0,0-.11328-.74268c-.15723-.51758-.62989-.74267-1.62012-.833-.38281-.04492-2.83594-.06738-3.083-.06738-.09082,0-.13574.06738-.13574.2251v6.21191c0,.15772.02246.2251.13574.2251.292,0,3.06055,0,3.57813-.04492.60742-.04541.90039-.1128,1.125-.38281.11328-.13526.18066-.2251.2705-.2251.06739,0,.11231.04492.11231.18017,0,.13477-.11231.51758-.17969,1.26026-.06738.69775-.06738,1.21533-.08984,1.53027-.02246.2251-.06836.33789-.15821.33789-.13476,0-.15722-.18017-.15722-.36035a2.03693,2.03693,0,0,0-.08985-.62988c-.08984-.33789-.36035-.65283-1.17089-.74268-.60743-.06787-2.83594-.11279-3.21778-.11279a.14232.14232,0,0,0-.1582.15771v1.98047c0,.76514-.02246,3.376,0,3.84863.04492.92286.18066,1.418.74316,1.64307a5.44073,5.44073,0,0,0,1.86817.20264,7.458,7.458,0,0,0,2.02539-.20264c.71972-.2251.96777-.69775,1.14746-1.66553.04492-.24755.09082-.3374.20312-.3374.13477,0,.13477.17969.13477.3374a21.81846,21.81846,0,0,1-.293,2.18311c-.15723.58545-.33691.58545-1.21484.58545-1.666,0-2.40821-.04541-3.28614-.06787-.90039-.02246-1.93554-.06739-2.81347-.06739-.54,0-1.08008.08985-1.665.06739-.24805,0-.36035-.04492-.36035-.17969,0-.06787.1123-.11279.24707-.13525a2.92454,2.92454,0,0,0,.51855-.06739c.47266-.11279.76465-.42773.80957-2.11572.02246-.87793.04492-2.02588.04492-4.02881Z"/><path class="cls-1" d="M280.92188,23.62012c0-8.125.04492-5.19922.02246-9.56543,0-.87793.06738-1.12549.24707-1.12549.18066,0,.56347.49512.78808.72021.33789.38282,3.69141,4.00635,7.15723,7.71973,2.22851,2.38574,4.68164,5.13184,5.40137,5.87451L294.291,15.81006c-.02247-1.46289-.18067-1.958-.87793-2.13818a4.69086,4.69086,0,0,0-.96778-.11231c-.248,0-.31543-.06787-.31543-.15771,0-.13526.18067-.15772.4502-.15772,1.01269,0,2.09277.06787,2.34082.06787.24707,0,.99023-.06787,1.91308-.06787.24707,0,.40528.02246.40528.15772,0,.08984-.08985.13525-.248.15771-.17969.02246-.31445.04492-.585.08984-.62988.13526-.78809.47266-.78809,2.02588l-.04492,13.14356c0,1.48535-.04492,1.59814-.20215,1.59814-.17968,0-.45019-.24756-1.64355-1.44043-.24707-.2251-3.48828-3.53369-5.874-6.09912-2.61036-2.81348-5.1543-5.64941-5.874-6.45947l.293,10.78076c.04492,1.84522.26953,2.43066.87695,2.61035a4.92524,4.92524,0,0,0,1.126.13526c.11231,0,.17969.04492.17969.13525,0,.13477-.13477.17969-.40528.17969-1.28222,0-2.18261-.06739-2.38574-.06739-.20215,0-1.14746.06739-2.16015.06739-.22559,0-.36036-.02246-.36036-.17969,0-.09033.06739-.13525.17969-.13525a3.21578,3.21578,0,0,0,.92285-.13526c.56348-.15722.67579-.81006.67579-2.85791Z"/><path class="cls-1" d="M300.55078,23.62012c0-8.125.04492-5.19922.02246-9.56543,0-.87793.06738-1.12549.24707-1.12549.18067,0,.56348.49512.78809.72021.33789.38282,3.6914,4.00635,7.15722,7.71973,2.22852,2.38574,4.68165,5.13184,5.40137,5.87451l-.24707-11.43359c-.02246-1.46289-.18066-1.958-.87793-2.13818a4.69071,4.69071,0,0,0-.96777-.11231c-.24805,0-.31543-.06787-.31543-.15771,0-.13526.18066-.15772.45019-.15772,1.0127,0,2.09278.06787,2.34082.06787.24708,0,.99024-.06787,1.91309-.06787.24707,0,.40527.02246.40527.15772,0,.08984-.08984.13525-.248.15771-.17969.02246-.31446.04492-.585.08984-.62989.13526-.78809.47266-.78809,2.02588l-.04492,13.14356c0,1.48535-.04492,1.59814-.20215,1.59814-.17969,0-.4502-.24756-1.64355-1.44043-.24707-.2251-3.48829-3.53369-5.874-6.09912-2.61035-2.81348-5.1543-5.64941-5.874-6.45947l.293,10.78076c.04492,1.84522.26953,2.43066.877,2.61035a4.92512,4.92512,0,0,0,1.126.13526c.1123,0,.17968.04492.17968.13525,0,.13477-.13476.17969-.40527.17969-1.28223,0-2.18262-.06739-2.38574-.06739-.20215,0-1.14746.06739-2.16016.06739-.22558,0-.36035-.02246-.36035-.17969,0-.09033.06738-.13525.17969-.13525a3.21583,3.21583,0,0,0,.92285-.13526c.56348-.15722.67578-.81006.67578-2.85791Z"/><path class="cls-1" d="M320.92285,19.77148c0-3.51123,0-4.1416-.04492-4.86181-.04492-.76514-.22461-1.125-.96777-1.28272a5.31108,5.31108,0,0,0-.65235-.06738c-.15722-.02246-.293-.04492-.293-.13525,0-.13477.11328-.18018.36036-.18018.51757,0,1.125,0,2.543.06787.15821,0,4.63672,0,5.1543-.02246a3.76747,3.76747,0,0,0,1.03516-.13525.548.548,0,0,1,.248-.08985c.06739,0,.08985.08985.08985.20215a9.82021,9.82021,0,0,0-.17969,1.05811c-.02344.3374-.0459.76513-.09082,1.35058-.02246.22461-.08984.38233-.17969.38233-.13476,0-.17969-.11231-.17969-.29248a2.21981,2.21981,0,0,0-.11328-.74268c-.15722-.51758-.62988-.74267-1.62011-.833-.38282-.04492-2.83594-.06738-3.083-.06738-.09082,0-.13574.06738-.13574.2251v6.21191c0,.15772.02246.2251.13574.2251.292,0,3.06055,0,3.57812-.04492.60743-.04541.90039-.1128,1.125-.38281.11328-.13526.18067-.2251.27051-.2251.06738,0,.11231.04492.11231.18017,0,.13477-.11231.51758-.17969,1.26026-.06738.69775-.06738,1.21533-.08985,1.53027-.02246.2251-.06835.33789-.1582.33789-.13476,0-.15722-.18017-.15722-.36035a2.03723,2.03723,0,0,0-.08985-.62988c-.08984-.33789-.36035-.65283-1.1709-.74268-.60742-.06787-2.83593-.11279-3.21777-.11279a.14232.14232,0,0,0-.1582.15771v1.98047c0,.76514-.02246,3.376,0,3.84863.04492.92286.18066,1.418.74316,1.64307a5.44066,5.44066,0,0,0,1.86816.20264,7.458,7.458,0,0,0,2.0254-.20264c.71972-.2251.96777-.69775,1.14746-1.66553.04492-.24755.09082-.3374.20312-.3374.13477,0,.13477.17969.13477.3374a21.81846,21.81846,0,0,1-.293,2.18311c-.15723.58545-.33692.58545-1.21485.58545-1.666,0-2.4082-.04541-3.28613-.06787-.90039-.02246-1.93555-.06739-2.81348-.06739-.54,0-1.08007.08985-1.665.06739-.24805,0-.36036-.04492-.36036-.17969,0-.06787.11231-.11279.24707-.13525a2.92454,2.92454,0,0,0,.51856-.06739c.47266-.11279.76465-.42773.80957-2.11572.02246-.87793.04492-2.02588.04492-4.02881Z"/><path class="cls-1" d="M332.4707,19.77148c0-3.51123,0-4.1416-.04492-4.86181-.04492-.76514-.15723-1.125-.90039-1.28272a4.21155,4.21155,0,0,0-.76465-.06738c-.1582,0-.248-.04492-.248-.13525,0-.13477.1123-.18018.36035-.18018,1.01269,0,2.43066.06787,2.543.06787.2705,0,1.68847-.06787,3.03906-.06787,2.22754,0,6.34668-.20215,9.02441,2.56592a8.03916,8.03916,0,0,1,2.1836,5.7168,9.19676,9.19676,0,0,1-2.43067,6.34668,8.9395,8.9395,0,0,1-6.81933,2.58837c-.96778,0-2.16114-.06738-3.12891-.13476-.99023-.06787-1.75488-.13526-1.86816-.13526-.04493,0-.42774,0-.9004.02247-.44921,0-.96777.04492-1.30468.04492-.248,0-.36035-.04492-.36035-.17969,0-.06787.04492-.13525.22461-.13525a4.73169,4.73169,0,0,0,.63085-.08985c.4502-.09033.5625-.58545.65235-1.23828.1123-.94531.1123-2.72314.1123-4.88379Zm1.89063,2.43067c0,2.38574.02246,4.45605.04492,4.88379a4.91952,4.91952,0,0,0,.248,1.71045c.293.42773,1.16992.90039,3.82617.90039a7.55334,7.55334,0,0,0,5.35644-2.09326,7.88,7.88,0,0,0,1.80079-5.37891,8.05081,8.05081,0,0,0-2.16114-5.67188c-2.11523-2.228-4.68066-2.543-7.35937-2.543a6.0194,6.0194,0,0,0-1.46289.15722.40778.40778,0,0,0-.27051.4502c-.02246.76513-.02246,3.061-.02246,4.79394Z"/><path class="cls-1" d="M353.92383,24.43018a4.76835,4.76835,0,0,0-.51856-2.36329c-.15722-.35986-3.17285-5.31152-3.96093-6.48193a6.30052,6.30052,0,0,0-1.53028-1.66553,2.15484,2.15484,0,0,0-.96777-.35986c-.11231,0-.22461-.04492-.22461-.15771,0-.08985.08984-.15772.292-.15772.42774,0,2.11621.06787,2.22852.06787.15722,0,1.01269-.06787,1.89062-.06787.24707,0,.292.06787.292.15772s-.13476.11279-.33691.20263a.45474.45474,0,0,0-.293.40528,1.91173,1.91173,0,0,0,.293.87744c.35938.65283,3.73535,6.45947,4.14063,7.1123.42773-.94531,3.28613-5.87451,3.73632-6.61719a2.19269,2.19269,0,0,0,.38282-1.14746c0-.31543-.08985-.563-.36036-.63037-.20214-.06738-.33789-.11279-.33789-.2251,0-.08984.13575-.13525.36036-.13525.585,0,1.30566.06787,1.48535.06787.13574,0,1.75586-.06787,2.18359-.06787.15723,0,.292.04541.292.13525,0,.11231-.1123.18018-.292.18018a2.138,2.138,0,0,0-1.03516.31494,4.28184,4.28184,0,0,0-1.19335,1.14795,71.87207,71.87207,0,0,0-4.29883,7.15723,5.37881,5.37881,0,0,0-.33789,2.25049v1.93554c0,.36035,0,1.30518.06836,2.25049.04492.65283.24707,1.148.92285,1.23828a9.80644,9.80644,0,0,0,1.01269.08985c.13477,0,.17969.06738.17969.13525,0,.1123-.1123.17969-.36035.17969-1.23731,0-2.65527-.06739-2.76758-.06739-.11328,0-1.53125.06739-2.20605.06739-.24805,0-.36036-.04492-.36036-.17969,0-.06787.04493-.13525.18067-.13525a3.47747,3.47747,0,0,0,.6748-.08985c.4502-.09033.65235-.58545.69727-1.23828.06836-.94531.06836-1.89014.06836-2.25049Z"/><path class="cls-1" d="M200.89648,40.77051c0-3.51074,0-4.14112-.04492-4.86133-.04541-.76514-.27051-1.14746-.76562-1.26025a2.95819,2.95819,0,0,0-.69776-.08985c-.08984,0-.17968-.04492-.17968-.13525,0-.13477.1123-.18018.35986-.18018.74268,0,2.16064.06787,2.27344.06787.1123,0,1.53027-.06787,2.20556-.06787.24756,0,.35987.04541.35987.18018,0,.09033-.08985.13525-.17969.13525a3.35284,3.35284,0,0,0-.563.06738c-.60742.11231-.7876.49512-.83252,1.28272-.04492.72021-.04492,1.35059-.04492,4.86133v3.96191c0,2.16016,0,3.93848.1123,4.88379.06739.65234.20264,1.14746.87793,1.23731.31495.04492.7876.08984.92286.08984.20214,0,.27.06836.27.13574,0,.11231-.09033.17969-.33789.17969-1.23779,0-2.67822-.06738-2.79052-.06738-.1128,0-1.53076.06738-2.20606.06738-.24756,0-.35986-.04492-.35986-.17969,0-.06738.04492-.13574.24756-.13574a3.10721,3.10721,0,0,0,.585-.06738c.45019-.08985.58545-.60743.67529-1.25977.11279-.94531.11279-2.72363.11279-4.88379Z"/><path class="cls-1" d="M208.37012,44.61914c0-8.12451.04492-5.19922.02246-9.56494,0-.87793.06738-1.12549.24756-1.12549.17968,0,.5625.49512.78759.72022.33741.38281,3.69092,4.00634,7.15723,7.72021,2.228,2.38574,4.68115,5.13086,5.40137,5.874l-.24756-11.43359c-.02246-1.46289-.17969-1.958-.87744-2.13818a4.69086,4.69086,0,0,0-.96778-.11231c-.24755,0-.31543-.06787-.31543-.15771,0-.13477.18018-.15772.4502-.15772,1.0127,0,2.09326.06787,2.34082.06787s.99024-.06787,1.91309-.06787c.24756,0,.40527.02295.40527.15772,0,.08984-.09033.13525-.24756.15771-.18017.02246-.31543.04492-.58545.08985-.63037.13525-.7876.47265-.7876,2.02587L223.022,49.81836c0,1.48535-.04541,1.59766-.20263,1.59766-.18018,0-.4502-.24707-1.64307-1.44043-.24756-.22461-3.48877-3.53321-5.87451-6.09864-2.61035-2.81347-5.15381-5.64941-5.874-6.45947l.29248,10.78076c.04493,1.84571.27,2.43067.87793,2.61035a4.94626,4.94626,0,0,0,1.12549.13477c.11231,0,.17969.0459.17969.13574,0,.13477-.13477.17969-.40478.17969-1.28321,0-2.18311-.06738-2.38575-.06738s-1.14795.06738-2.16064.06738c-.2251,0-.36035-.02246-.36035-.17969,0-.08984.06738-.13574.18017-.13574a3.23623,3.23623,0,0,0,.92285-.13477c.5625-.15722.6753-.80957.6753-2.85839Z"/><path class="cls-1" d="M226.919,50.9668c-.31543-.15821-.3379-.248-.3379-.85547,0-1.126.09034-2.02539.1128-2.38574.02246-.248.06738-.36036.18017-.36036.13477,0,.15723.06739.15723.24805a3.96477,3.96477,0,0,0,.06738.832c.33789,1.666,1.82325,2.2959,3.33106,2.2959a3.00451,3.00451,0,0,0,3.21875-2.99316c0-1.55274-.65283-2.45313-2.58838-4.05176l-1.0127-.832c-2.38574-1.958-2.92578-3.35352-2.92578-4.88428,0-2.4082,1.8003-4.05127,4.65869-4.05127a8.71908,8.71908,0,0,1,2.09327.2251,3.69532,3.69532,0,0,0,.78759.11279c.18018,0,.2251.04492.2251.15723,0,.11279-.09033.85547-.09033,2.38574,0,.36035-.04492.51758-.15723.51758-.13525,0-.15771-.11231-.18017-.29248a3.96366,3.96366,0,0,0-.29248-1.12549c-.13526-.24756-.74268-1.19287-2.81348-1.19287a2.55874,2.55874,0,0,0-2.76807,2.61084c0,1.2832.585,2.09277,2.74561,3.78125l.63037.49512c2.65576,2.09277,3.28564,3.48828,3.28564,5.28906a4.66242,4.66242,0,0,1-1.91308,3.73633,5.92264,5.92264,0,0,1-3.39844.94531A6.84142,6.84142,0,0,1,226.919,50.9668Z"/><path class="cls-1" d="M244.0708,44.73242c0,2.16016,0,3.93848.11231,4.88379.06738.65234.20263,1.14746.87793,1.23731a9.829,9.829,0,0,0,1.01269.08984c.13525,0,.18018.06836.18018.13574,0,.11231-.1128.17969-.36036.17969-1.23779,0-2.65576-.06738-2.76806-.06738-.11279,0-1.53076.06738-2.20557.06738-.248,0-.36035-.04492-.36035-.17969,0-.06738.04492-.13574.18018-.13574a3.48246,3.48246,0,0,0,.67529-.08984c.44971-.08985.5625-.585.65234-1.23731.1128-.94531.1128-2.72363.1128-4.88379v-9.521c-1.103.023-2.228.023-3.33106.04541-1.39551.02246-1.93555.17968-2.2959.72021a3.9233,3.9233,0,0,0-.38232.69775c-.06787.17969-.13526.22461-.2251.22461-.06738,0-.11279-.06738-.11279-.20214,0-.2251.45019-2.16065.49511-2.34082.04542-.13526.13526-.42774.2251-.42774a4.20478,4.20478,0,0,0,.99024.27c.65283.06787,1.5083.11279,1.77832.11279h8.43994a8.962,8.962,0,0,0,1.59814-.11279c.33741-.04492.54-.1123.62989-.1123.11279,0,.11279.13476.11279.27,0,.67529-.06738,2.228-.06738,2.47558,0,.20264-.06787.29248-.15772.29248-.11279,0-.15771-.06738-.18017-.38232,0-.09033-.02247-.15772-.02247-.24756-.06738-.67529-.60791-1.19287-2.76855-1.23779-.94482-.02246-1.89014-.02246-2.83545-.04541Z"/><path class="cls-1" d="M253.14355,40.77051c0-3.51074,0-4.14112-.04492-4.86133-.04541-.76514-.27051-1.14746-.76562-1.26025a2.95819,2.95819,0,0,0-.69776-.08985c-.08984,0-.17968-.04492-.17968-.13525,0-.13477.1123-.18018.35986-.18018.74268,0,2.16064.06787,2.27344.06787.1123,0,1.53027-.06787,2.20556-.06787.24756,0,.35987.04541.35987.18018,0,.09033-.08985.13525-.17969.13525a3.35284,3.35284,0,0,0-.563.06738c-.60742.11231-.7876.49512-.83252,1.28272-.04492.72021-.04492,1.35059-.04492,4.86133v3.96191c0,2.16016,0,3.93848.1123,4.88379.06739.65234.20264,1.14746.87793,1.23731.315.04492.7876.08984.92286.08984.20214,0,.27.06836.27.13574,0,.11231-.09034.17969-.3379.17969-1.23779,0-2.67822-.06738-2.79052-.06738-.1128,0-1.53076.06738-2.20606.06738-.24756,0-.35986-.04492-.35986-.17969,0-.06738.04492-.13574.24756-.13574a3.10721,3.10721,0,0,0,.585-.06738c.45019-.08985.58545-.60743.67529-1.25977.11279-.94531.11279-2.72363.11279-4.88379Z"/><path class="cls-1" d="M266.15332,44.73242c0,2.16016,0,3.93848.11328,4.88379.06738.65234.20215,1.14746.877,1.23731a9.85243,9.85243,0,0,0,1.0127.08984c.13574,0,.18066.06836.18066.13574,0,.11231-.1123.17969-.36035.17969-1.2373,0-2.65527-.06738-2.76855-.06738-.11231,0-1.53028.06738-2.20508.06738-.248,0-.36035-.04492-.36035-.17969,0-.06738.04492-.13574.18017-.13574a3.48747,3.48747,0,0,0,.6753-.08984c.45019-.08985.5625-.585.65234-1.23731.11231-.94531.11231-2.72363.11231-4.88379v-9.521c-1.10254.023-2.22754.023-3.33057.04541-1.39551.02246-1.93555.17968-2.2959.72021a3.9233,3.9233,0,0,0-.38232.69775c-.06787.17969-.13526.22461-.2251.22461-.06738,0-.11279-.06738-.11279-.20214,0-.2251.45019-2.16065.49511-2.34082.04541-.13526.13526-.42774.2251-.42774a4.20462,4.20462,0,0,0,.99023.27c.65284.06787,1.50831.11279,1.77833.11279h8.43994a8.94361,8.94361,0,0,0,1.59765-.11279c.33789-.04492.54-.1123.63086-.1123.11231,0,.11231.13476.11231.27,0,.67529-.06739,2.228-.06739,2.47558,0,.20264-.06738.29248-.1582.29248-.1123,0-.15723-.06738-.17969-.38232,0-.09033-.02246-.15772-.02246-.24756-.06738-.67529-.60742-1.19287-2.76855-1.23779-.94531-.02246-1.89063-.02246-2.83594-.04541Z"/><path class="cls-1" d="M276.419,43.92188c0,3.24121.71972,4.63671,1.6875,5.55859a4.40288,4.40288,0,0,0,3.39843,1.23828,4.72929,4.72929,0,0,0,3.53418-1.62012c1.03516-1.2832,1.30469-3.19629,1.30469-5.51465V40.77051c0-3.51074,0-4.14112-.04492-4.86133-.04492-.76514-.22461-1.125-.96778-1.28272a4.21144,4.21144,0,0,0-.76464-.06738c-.09082,0-.18067-.04492-.18067-.13525,0-.13477.11328-.18018.36035-.18018,1.0127,0,2.251.06787,2.38575.06787.15722,0,1.21582-.06787,1.89062-.06787.24707,0,.36035.04541.36035.18018,0,.09033-.08984.13525-.18066.13525a3.35935,3.35935,0,0,0-.5625.06738c-.60742.13526-.78711.49512-.833,1.28272-.04492.72021-.04492,1.35059-.04492,4.86133v2.4082c0,2.43067-.26953,5.13184-2.07031,6.72949a6.5933,6.5933,0,0,1-4.63672,1.666,6.90828,6.90828,0,0,1-4.63574-1.59863c-1.10352-1.05762-1.958-2.63282-1.958-5.91895V40.77051c0-3.51074,0-4.14112-.04492-4.86133-.0459-.76514-.22559-1.125-.96778-1.28272a4.23013,4.23013,0,0,0-.76562-.06738c-.08985,0-.17969-.04492-.17969-.13525,0-.13477.1123-.18018.35937-.18018,1.0127,0,2.38575.06787,2.58887.06787.20215,0,1.55274-.06787,2.22754-.06787.248,0,.36035.04541.36035.18018,0,.09033-.08984.13525-.17968.13525a3.33718,3.33718,0,0,0-.5625.06738c-.6084.08985-.78809.49512-.833,1.28272-.04492.72021-.04492,1.35059-.04492,4.86133Z"/><path class="cls-1" d="M297.41992,44.73242c0,2.16016,0,3.93848.11328,4.88379.06739.65234.20215,1.14746.877,1.23731a9.84524,9.84524,0,0,0,1.01367.08984c.13476,0,.17969.06836.17969.13574,0,.11231-.11231.17969-.36036.17969-1.2373,0-2.65527-.06738-2.76855-.06738-.11231,0-1.53027.06738-2.20508.06738-.248,0-.36035-.04492-.36035-.17969,0-.06738.04492-.13574.17969-.13574a3.48737,3.48737,0,0,0,.67578-.08984c.45019-.08985.5625-.585.65234-1.23731.11231-.94531.11231-2.72363.11231-4.88379v-9.521c-1.10254.023-2.22754.023-3.33106.04541-1.39453.02246-1.93554.17968-2.29492.72021a3.90381,3.90381,0,0,0-.38281.69775c-.06739.17969-.13477.22461-.22559.22461-.06738,0-.1123-.06738-.1123-.20214,0-.2251.45019-2.16065.49511-2.34082.04493-.13526.13477-.42774.22559-.42774a4.18026,4.18026,0,0,0,.99023.27c.65235.06787,1.50782.11279,1.77735.11279h8.44043a8.94361,8.94361,0,0,0,1.59765-.11279c.3379-.04492.54-.1123.63086-.1123.11231,0,.11231.13476.11231.27,0,.67529-.06738,2.228-.06738,2.47558,0,.20264-.06739.29248-.15821.29248-.1123,0-.15722-.06738-.17968-.38232,0-.09033-.02247-.15772-.02247-.24756-.06738-.67529-.60742-1.19287-2.76855-1.23779-.94531-.02246-1.89063-.02246-2.83594-.04541Z"/><path class="cls-1" d="M306.49316,40.77051c0-3.51074,0-4.14112-.04492-4.86133-.04492-.76514-.22461-1.125-.96777-1.28272a5.31108,5.31108,0,0,0-.65235-.06738c-.15722-.02246-.293-.04492-.293-.13525,0-.13477.11328-.18018.36035-.18018.51758,0,1.125,0,2.543.06787.1582,0,4.63672,0,5.15429-.02246a3.7477,3.7477,0,0,0,1.03516-.13525.54818.54818,0,0,1,.24805-.08985c.06738,0,.08984.08985.08984.20264a9.77472,9.77472,0,0,0-.17969,1.05762c-.02343.3374-.0459.76514-.09082,1.35058-.02246.22461-.08984.38233-.17969.38233-.13476,0-.17968-.11231-.17968-.29248a2.21981,2.21981,0,0,0-.11328-.74268c-.15723-.51758-.62989-.74267-1.62012-.833-.38281-.04492-2.83594-.06738-3.083-.06738-.09082,0-.13574.06738-.13574.2251v6.21191c0,.15723.02246.22461.13574.22461.292,0,3.06055,0,3.57813-.04492.60742-.04492.90039-.1123,1.125-.38183.11328-.13575.18066-.22559.2705-.22559.06739,0,.11231.04492.11231.17969,0,.13574-.11231.51757-.17969,1.26074-.06738.69824-.06738,1.21582-.08984,1.53027-.02246.22559-.06836.33789-.15821.33789-.13476,0-.15722-.17968-.15722-.36035a2.03491,2.03491,0,0,0-.08985-.62988c-.08984-.33789-.36035-.65234-1.17089-.74317-.60743-.06738-2.83594-.1123-3.21778-.1123a.14218.14218,0,0,0-.1582.15723v1.98144c0,.76465-.02246,3.376,0,3.84863.04492.92188.18066,1.418.74316,1.64258a5.45592,5.45592,0,0,0,1.86817.20215,7.47749,7.47749,0,0,0,2.02539-.20215c.71972-.22461.96777-.69726,1.14746-1.665.04492-.248.09082-.33789.20312-.33789.13477,0,.13477.17969.13477.33789a21.83,21.83,0,0,1-.293,2.18262c-.15723.585-.33691.585-1.21484.585-1.666,0-2.40821-.04492-3.28614-.06738-.90039-.02246-1.93554-.06738-2.81347-.06738-.54,0-1.08008.08984-1.665.06738-.24805,0-.36035-.04492-.36035-.17969,0-.06738.1123-.1123.24707-.13574a2.92557,2.92557,0,0,0,.51855-.06738c.47266-.11231.76465-.42774.80957-2.11524.02246-.87793.04492-2.02539.04492-4.02832Z"/></svg>