<svg id="Ebene_1" data-name="Ebene 1" xmlns="http://www.w3.org/2000/svg" viewBox="0 0 630.66667 146.45823"><defs><style>.cls-1{fill:#1d1d1b;}</style></defs><path class="cls-1" d="M16.80127,17.53223H35.08154V54.17285L69.43945,17.53223H93.4502L56.958,54.10645,95.32129,106.46H71.42969L44.03125,67.6416l-8.94971,9.0752V106.46H16.80127Z"/><path class="cls-1" d="M105.72852,17.65332h63.40771v15.626H124.18945V53.73047h39.396V69.17578h-39.396V106.46H105.72852Z"/><path class="cls-1" d="M194.5957,79.00977q.86207,6.09375,3.3877,9.10937,4.61939,5.4917,15.83105,5.49024a34.04419,34.04419,0,0,0,10.90284-1.44825q7.94678-2.77295,7.94677-10.3164a7.60263,7.60263,0,0,0-3.89209-6.81739q-3.89429-2.35254-12.34717-4.16211l-9.62744-2.1123q-14.1936-3.13623-19.50195-6.81738-8.98974-6.15381-8.98926-19.24512a25.55711,25.55711,0,0,1,8.79444-19.84863q8.79492-7.90284,25.83447-7.90332,14.2295,0,24.27637,7.45117,10.04662,7.45166,10.53564,21.62793H229.88916q-.49512-8.02294-7.1748-11.40235a24.58664,24.58664,0,0,0-11.07081-2.23242q-7.36083,0-11.75195,2.89649a9.16,9.16,0,0,0-4.39111,8.084,7.62652,7.62652,0,0,0,4.32959,7.11914q2.78321,1.56885,11.81445,3.67969l15.606,3.68066q10.25976,2.4126,15.38037,6.45508,7.95117,6.2754,7.95166,18.15918a25.5169,25.5169,0,0,1-9.42188,20.24121q-9.42187,8.05371-26.61718,8.05469-17.562,0-27.624-7.93359t-10.061-21.80957Z"/><path class="cls-1" d="M305.07764,42.03125a26.75461,26.75461,0,0,1,11.36425,9.72852,32.31762,32.31762,0,0,1,5.23877,13.59472,84.12963,84.12963,0,0,1,.56739,13.05176H274.35254q.3999,9.895,6.877,13.876A17.46443,17.46443,0,0,0,290.71,94.75586a13.35573,13.35573,0,0,0,13.08594-7.541h17.55469q-.69434,5.85205-6.37452,11.88477-8.83666,9.59327-24.74072,9.59277a35.84916,35.84916,0,0,1-23.16308-8.09082q-10.03493-8.0918-10.03467-26.32812,0-17.08594,9.05908-26.20508,9.05786-9.1172,23.51562-9.11816A37.44606,37.44606,0,0,1,305.07764,42.03125ZM279.35547,56.88477a17.866,17.866,0,0,0-4.58057,10.17968h29.62256q-.46949-6.84667-4.58057-10.3916a15.06808,15.06808,0,0,0-10.19775-3.54492Q282.99879,53.12793,279.35547,56.88477Z"/><path class="cls-1" d="M367.47363,39.16113q.32959.03077,1.47754.09082V56.86816q-1.62891-.18163-2.89551-.24121-1.26708-.06006-2.05175-.06054-10.377,0-13.93653,6.75683-1.99073,3.80127-1.99023,11.7041V106.46H330.76172V40.69922h16.41016V52.16211q3.98144-6.57421,6.93847-8.98926,4.8252-4.04149,12.54785-4.042C366.98047,39.13086,367.252,39.1416,367.47363,39.16113Z"/><path class="cls-1" d="M419.53906,40.69922H438L414.25391,106.46H396.124L372.541,40.69922h19.30664L405.542,89.20508Z"/><path class="cls-1" d="M465.41992,32.85645H447.98438V16.98926h17.43554Zm-17.43554,7.84277h17.43554V106.46H447.98438Z"/><path class="cls-1" d="M535.09961,44.46973q6.45849,5.33935,6.458,17.707V106.46H523.94141v-39.999a18.3782,18.3782,0,0,0-1.377-7.96387q-2.51806-5.06836-9.583-5.06738-8.6836,0-11.918,7.41992a25.65854,25.65854,0,0,0-1.67676,10.01562V106.46H482.19238V40.82031h16.65137v9.59278a29.15044,29.15044,0,0,1,6.248-7.30079q5.28515-3.98143,13.39746-3.98144Q528.64063,39.13086,535.09961,44.46973Z"/><path class="cls-1" d="M590.07715,40.63965a20.64841,20.64841,0,0,1,10.12207,9.53223V40.69922H616.9707v62.38183q0,12.72949-4.2832,19.18555-7.36085,11.10059-28.23438,11.10059-12.61083,0-20.57324-4.94727-7.96288-4.94678-8.80761-14.78027h18.70214a7.74533,7.74533,0,0,0,2.35254,4.34375q2.77441,2.35254,9.35157,2.35254,9.29,0,12.42773-6.21387,2.05079-3.98145,2.05176-13.39355V96.50586a20.95992,20.95992,0,0,1-5.30957,6.334q-5.12842,3.92286-13.333,3.92188-12.66943,0-20.24023-8.89844-7.57324-8.89893-7.57227-24.10254,0-14.66016,7.291-24.64551,7.29053-9.9829,20.667-9.98437A22.61079,22.61079,0,0,1,590.07715,40.63965Zm5.85547,47.14844q4.1455-4.55566,4.1455-14.50977,0-9.35155-3.93554-14.23828a12.8395,12.8395,0,0,0-10.542-4.88672q-9.01319,0-12.4375,8.50684a30.29171,30.29171,0,0,0-1.80176,11.16113A25.54613,25.54613,0,0,0,573.2832,84.0166q3.48487,8.32617,12.49707,8.32617A13.20056,13.20056,0,0,0,595.93262,87.78809Z"/></svg>