<svg id="Layer_1" data-name="Layer 1" xmlns="http://www.w3.org/2000/svg" viewBox="0 0 417.7427 472.1851"><defs><style>.cls-1{fill:#fdfcfc;}.cls-2{fill:#fcfafb;}.cls-3{fill:#ab1a2f;}.cls-4{fill:#020101;}.cls-5{fill:#a8182e;}.cls-6{fill:#3bcccc;}</style></defs><path class="cls-1" d="M323.652,11.84806c18.84858,0,37.69723.02535,56.54553-.04427,1.65058-.0061,2.05565.27783,2.05472,2.0207q-.08307,153.13788.00191,306.27579c.00107,1.88-.54788,2.13089-2.22348,2.13026q-164.66448-.06059-329.32894-.00188c-1.653.00059-2.23575-.21507-2.23463-2.11876q.08971-153.13786.00552-306.2758c-.00089-1.71576.36166-2.06609,2.04382-2.03508,6.533.12044,13.0696.049,19.60485.049l-.002.87587c-1.10107.2264-2.219.39132-3.30057.68882-9.76572,2.6861-15.79624,10.78623-15.80013,21.3465q-.02605,70.59579-.00841,141.19163c0,14.13814-.06037,28.27664.02179,42.41432.06892,11.86076,9.09863,21.59287,20.10718,21.5995q93.49085.05622,186.98173-.00294c4.09416-.00179,8.27784-1.04908,10.96737-3.95125,3.33469-3.59836,7.02459-4.25624,11.417-3.92352a49.33691,49.33691,0,0,0,6.24824.00294,2.27372,2.27372,0,0,1,2.61967,1.879c1.58707,4.63159,3.57881,5.99812,8.41006,6.00217q24.8646.02087,49.72917.00838c7.28669-.00146,9.73773-2.44147,9.73791-9.686q.00166-70.59582.03421-141.19159a21.06209,21.06209,0,0,0-1.51967-8.01561Q343.40279,50.19913,331.1095,19.28433c-1.38946-3.49463-3.57725-5.97508-7.45343-6.59687ZM168.75,304.09351q-49.17027,0-98.34054.0001c-3.78213,0-3.78035.00066-3.77935-3.89686q.00454-17.79469.00559-35.58938c0-1.8031.0941-3.6145-.04255-5.40773-.386-5.0655-3.65732-8.29445-8.09594-8.11539-4.20141.16947-7.44332,3.70854-7.45792,8.45358q-.08016,26.05118-.01243,52.1027c.00862,4.0498,2.57818,6.85774,6.57263,7.74252,2.19875.48707,4.31928-.146,6.48273-.145q147.05493.07362,294.10992.04181c6.06335-.00007,12.127.02458,18.19-.02982,4.11044-.03691,5.24384-1.21423,5.25352-5.20207a35.45517,35.45517,0,0,1,.02842-4.2673c.54066-4.33828-1.36077-5.481-5.74759-5.64107-5.01464-.183-10.04847-.21056-15.05926.01783-2.85864.13037-3.71115-.67083-3.67725-3.61942.16036-13.94917.09933-27.90134.05194-41.8522-.01409-4.15049-2.5626-6.89849-6.70249-7.53487-3.28485-.505-7.23391,1.63778-7.96048,5.006-.61321,2.84275-2.12844,2.97374-4.41256,2.96749-21.31644-.05843-42.63332.00919-63.94938-.09907-2.66631-.01354-3.567.60237-3.53369,3.41366.14845,12.52571.06575,25.05416.06613,37.58162.00012,4.06844-.00047,4.0699-3.93338,4.07Q217.778,304.09121,168.75,304.09351Zm-26.14777-29.02877c-18.08679,0-36.17371.03269-54.26018-.04336-2.14122-.009-3.09006.40979-2.93793,2.791a88.7391,88.7391,0,0,1,.01181,9.67063c-.092,2.02275.37246,2.82276,2.62322,2.80267,12.30938-.10981,24.62028-.04895,36.93066-.04862,23.57911.00066,47.15832-.03055,70.73718.046,2.42684.00787,3.64272-.36445,3.38368-3.19427a57.62008,57.62008,0,0,1-.01346-9.09753c.16553-2.45251-.77277-2.98921-3.06712-2.97819C178.20775,275.09847,160.40488,275.06017,142.60218,275.06474Zm80.08671,15.16939c2.45768,0,4.4467-.02778,6.43445.01087,1.11646.02168,1.77963-.25553,1.76468-1.56672q-.06818-5.975-.00229-11.95135c.01185-1.22308-.48572-1.69774-1.68592-1.67557-2.27177.042-4.54489.00888-6.81746.00871-7.159-.00051-7.20731.00031-7.13262,7.27225.026,2.52715-1.11143,5.785.51407,7.39055C217.3862,291.32535,220.634,290.00881,222.68889,290.23413Z"/><path class="cls-2" d="M70.11935,12.72393l.002-.87587H323.652l.004.83936q-12.78871-.02914-25.57742-.05916c-4.48233-.012-8.16261,2.12819-8.92526,6.651-.25116,1.48949-1.17837,1.47545-2.25669,1.47392-3.50531-.005-7.0132-.08026-10.51485.0337a5.58489,5.58489,0,0,1-4.50713-1.83651,18.79992,18.79992,0,0,0-11.38441-5.874,104.79342,104.79342,0,0,0-11.617-.51781q-86.11686.04709-172.23378.02768C74.46613,12.5865,72.29274,12.676,70.11935,12.72393Z"/><path class="cls-3" d="M70.11935,12.72393c2.17339-.04793,4.34678-.13743,6.52017-.13772q86.11691-.01144,172.23378-.02768a104.79342,104.79342,0,0,1,11.617.51781,18.79992,18.79992,0,0,1,11.38441,5.874,5.58489,5.58489,0,0,0,4.50713,1.83651c3.50165-.114,7.00954-.0387,10.51485-.0337,1.07832.00153,2.00553.01557,2.25669-1.47392.76265-4.52279,4.44293-6.66294,8.92526-6.651q12.78873.03411,25.57742.05916c3.8762.62183,6.064,3.10228,7.45345,6.59691q12.29184,30.91532,24.65542,61.80193a21.06209,21.06209,0,0,1,1.51967,8.01561q-.0738,70.59574-.03421,141.19159c-.00018,7.24452-2.45122,9.68453-9.73791,9.686q-24.86459.005-49.72917-.00838c-4.83125-.00405-6.823-1.37058-8.41006-6.00217a2.27372,2.27372,0,0,0-2.61967-1.879,49.33691,49.33691,0,0,1-6.24824-.00294c-4.39243-.33272-8.08233.32516-11.417,3.92352-2.68953,2.90217-6.87321,3.94946-10.96737,3.95125q-93.49088.04092-186.98173.00294C60.13066,239.95807,51.101,230.226,51.032,218.3652c-.08216-14.13768-.02179-28.27618-.02179-42.41432q0-70.59582.00841-141.19163c.00389-10.56027,6.03441-18.6604,15.80013-21.3465C67.90036,13.11525,69.01828,12.95033,70.11935,12.72393Zm94.49807,211.66358q45.88662,0,91.77325-.00643c4.35006-.00172,6.04609-1.66912,6.101-5.9605.04495-3.50974.00956-7.02053.0096-10.53086q.001-86.3826-.00071-172.7652c-.0003-5.00507-1.69206-6.96185-6.0662-6.96241q-91.6312-.01187-183.26238.00015c-4.68117.0007-6.533,1.865-6.53347,6.51821q-.00846,91.64786.00123,183.29569c.00059,4.86464,1.57275,6.40339,6.48853,6.40435Q118.87286,224.3895,164.61742,224.38751Z"/><path class="cls-3" d="M168.75,304.09215q49.028-.002,98.056-.00156c3.93291-.00007,3.9335-.00153,3.93338-4.07-.00038-12.52746.08232-25.05591-.06613-37.58162-.0333-2.81129.86738-3.4272,3.53369-3.41366,21.31606.10826,42.63294.04064,63.94938.09907,2.28412.00625,3.79935-.12474,4.41256-2.96749.72657-3.36817,4.67563-5.51092,7.96048-5.006,4.13989.63638,6.6884,3.38438,6.70249,7.53487.04739,13.95086.10842,27.903-.05194,41.8522-.0339,2.94859.81861,3.74979,3.67725,3.61942,5.01079-.22839,10.04462-.20082,15.05926-.01783,4.38682.16008,6.28825,1.30279,5.74759,5.64107a35.45517,35.45517,0,0,0-.02842,4.2673c-.00968,3.98784-1.14308,5.16516-5.25352,5.20207-6.06293.0544-12.1266.02975-18.19.02982q-147.055.00162-294.10992-.04181c-2.16345-.00107-4.284.632-6.48273.145-3.99445-.88478-6.564-3.69272-6.57263-7.74252q-.05544-26.05128.01243-52.1027c.0146-4.745,3.25651-8.28411,7.45792-8.45358,4.43862-.17906,7.71,3.04989,8.09594,8.11539.13665,1.79323.04255,3.60463.04255,5.40773q-.00006,17.79469-.00559,35.58938c-.001,3.89752-.00278,3.89686,3.77935,3.89686Q119.57968,304.09335,168.75,304.09215Z"/><path class="cls-2" d="M164.61742,224.38553q-45.74456-.003-91.48911-.005c-4.91578-.001-6.48794-1.53971-6.48853-6.40435q-.01106-91.64785-.00123-183.29569c.00043-4.65323,1.8523-6.51751,6.53347-6.51821q91.63117-.01362,183.26238-.00015c4.37414.00056,6.0659,1.95734,6.0662,6.96241q.00522,86.3826.00071,172.7652c0,3.51033.03535,7.02112-.0096,10.53086-.055,4.29138-1.751,5.95878-6.101,5.9605Q210.504,224.39928,164.61742,224.38553Zm84.29-34.3486c.06745-1.03594.19288-2.07184.19373-3.10783q.0213-25.90292.01466-51.80579.00132-37.29819-.00942-74.59639c-.00049-1.03535-.13252-2.07063-.20327-3.10593.05156-3.97872-.04967-7.96739.20785-11.93268.17441-2.68576-.58437-3.53226-3.38964-3.52787q-80.85977.12636-161.71986.0657c-3.84259.00018-3.84716.007-3.84724,3.82088q-.00159,78.011-.00009,156.022c.00007,3.68434.00467,3.68773,3.685,3.68787q79.2968.003,158.59358.00429c1.51582,0,3.03381-.04928,4.54682.01613,1.377.05955,2.12836-.33194,2.09354-1.89469C248.9718,199.13511,248.95649,194.58565,248.90744,190.03693Z"/><path class="cls-4" d="M249.10638,60.52694c-.00048-1.03534-.1325-2.07062-.20324-3.106q-69.7685-.00549-139.537-.01037A13.37752,13.37752,0,0,0,95.77368,70.84432q-.081,52.80918.02448,105.61847c.01629,8.06336,5.99865,13.485,14.71307,13.53406,11.84094.06671,23.68262.01965,35.52393.0216q51.43634.00861,102.87243.01795c.06732-1.0354.19275-2.07129.19361-3.1073q.02124-25.90293.01464-51.80579Q249.11713,97.82509,249.10638,60.52694Z"/><path class="cls-5" d="M248.90314,57.421q-69.76851-.00549-139.537-.0104A13.37753,13.37753,0,0,0,95.77369,70.84434q-.081,52.80912.02445,105.61844c.01633,8.06339,5.99866,13.485,14.71308,13.53407,11.841.06672,23.68261.01962,35.524.0216q51.43626.00861,102.8724.01795c.04891,4.54925.06422,9.09871.16557,13.64627.03482,1.56275-.7165,1.95424-2.09354,1.89469-1.513-.06541-3.031-.0161-4.54682-.01613q-79.29678-.00195-158.59358-.00429c-3.68038-.00014-3.685-.00353-3.685-3.68787q-.00149-78.011.00009-156.022c.00008-3.81386.00465-3.8207,3.84724-3.82088q80.86-.00384,161.71986-.0657c2.80527-.00439,3.56405.84211,3.38964,3.52787C248.85347,49.4536,248.9547,53.44227,248.90314,57.421Z"/><path d="M43.07959,406.03432,67.02,441.87514H54.24561L35.40576,413.0646l-7.03027,7.81152v20.999H17.94482V379.15346H28.37549V408.2394H28.835l25.36475-29.08594H65.917Z"/><path d="M106.03174,395.0978a18.6658,18.6658,0,0,1,7.605,7.53613,23.75526,23.75526,0,0,1,2.73389,11.7168v6.29492a24.39324,24.39324,0,0,1-2.73389,11.97071,18.33438,18.33438,0,0,1-7.605,7.51269,23.64111,23.64111,0,0,1-11.21192,2.57324,23.707,23.707,0,0,1-11.28076-2.57324,18.54379,18.54379,0,0,1-7.60449-7.49023,24.08828,24.08828,0,0,1-2.75732-11.94629v-6.2959a23.29693,23.29693,0,0,1,2.75732-11.5791A19.39437,19.39437,0,0,1,83.585,395.1896a22.80665,22.80665,0,0,1,11.23486-2.71094A23.3063,23.3063,0,0,1,106.03174,395.0978ZM88.6626,402.5646a11.71553,11.71553,0,0,0-3.85987,5.05468,18.7671,18.7671,0,0,0-1.33252,7.28321v5.42187a19.6673,19.6673,0,0,0,1.26368,7.28321,11.022,11.022,0,0,0,3.814,5.03125,10.52184,10.52184,0,0,0,6.31836,1.83789,10.214,10.214,0,0,0,6.249-1.83789,11.2235,11.2235,0,0,0,3.74512-5.03125,19.68729,19.68729,0,0,0,1.26367-7.28321v-5.42187a19.06333,19.06333,0,0,0-1.30957-7.28321,11.63462,11.63462,0,0,0-3.814-5.05468,10.00058,10.00058,0,0,0-6.13428-1.86133A10.17559,10.17559,0,0,0,88.6626,402.5646Z"/><path d="M129.4668,393.30581h10.01709v7.90332h.50537a14.93179,14.93179,0,0,1,1.999-3.791,11.35062,11.35062,0,0,1,4.08936-3.42285,15.30432,15.30432,0,0,1,7.1455-1.4248,15.91359,15.91359,0,0,1,6.40967,1.19433,12.10321,12.10321,0,0,1,4.48047,3.2627,12.97746,12.97746,0,0,1,2.52734,4.6416h.41358a14.75115,14.75115,0,0,1,2.80273-4.38867,14.06183,14.06183,0,0,1,4.84766-3.40039,17.48756,17.48756,0,0,1,7.09961-1.30957q7.4436,0,11.62549,4.04394,4.18067,4.043,4.18115,11.21192v34.04882H187.45605v-31.0166a11.55319,11.55319,0,0,0-1.103-5.26074,7.71231,7.71231,0,0,0-3.14746-3.332,10.05509,10.05509,0,0,0-4.98584-1.14844,9.30407,9.30407,0,0,0-8.40869,5.00879,11.64957,11.64957,0,0,0-1.28663,5.60547v30.14355h-9.92529V411.13393a11.2933,11.2933,0,0,0-1.19482-5.39843,8.44123,8.44123,0,0,0-3.28516-3.42383,9.70419,9.70419,0,0,0-4.894-1.19434,9.43148,9.43148,0,0,0-4.91651,1.28613,9.05216,9.05216,0,0,0-3.40039,3.63086,11.82861,11.82861,0,0,0-1.24072,5.60547v30.23535H129.4668Z"/><path d="M231.29248,441.62221a13.54851,13.54851,0,0,1-4.73291-2.71093,12.15513,12.15513,0,0,1-3.07861-4.3418h-.50586v23.43457H212.77441V393.30581h9.9253v7.71972h.50537a11.334,11.334,0,0,1,2.11377-3.49218,13.39612,13.39612,0,0,1,3.23926-2.665,14.96341,14.96341,0,0,1,4.13574-1.6543,20.69915,20.69915,0,0,1,4.89355-.55176,18.12805,18.12805,0,0,1,9.7876,2.55078,16.56846,16.56846,0,0,1,6.29492,7.30567,26.72778,26.72778,0,0,1,2.20557,11.32715v7.48926a26.49276,26.49276,0,0,1-2.22852,11.32714,16.71487,16.71487,0,0,1-6.38672,7.32911,18.44359,18.44359,0,0,1-9.90234,2.57324A18.66047,18.66047,0,0,1,231.29248,441.62221Zm9.167-9.09765a10.55708,10.55708,0,0,0,3.76807-4.84766,20.09485,20.09485,0,0,0,1.30957-7.67383v-4.6875a20.40757,20.40757,0,0,0-1.30957-7.74218,10.38075,10.38075,0,0,0-3.83691-4.8711,10.80959,10.80959,0,0,0-6.11133-1.67676,11.094,11.094,0,0,0-6.01953,1.585,10.34923,10.34923,0,0,0-3.90577,4.57226,16.87357,16.87357,0,0,0-1.3789,7.12207v7.39844a14.20349,14.20349,0,0,0,1.44775,6.52441,10.63306,10.63306,0,0,0,4.04346,4.41114,11.39537,11.39537,0,0,0,5.99658,1.5625A10.38831,10.38831,0,0,0,240.45947,432.52456Z"/><path d="M310.09717,441.87514H300.07959v-8.08691h-.55127a11.67134,11.67134,0,0,1-2.41211,3.99707,14.35362,14.35362,0,0,1-4.71,3.42383,16.70309,16.70309,0,0,1-7.21436,1.40137,21.06036,21.06036,0,0,1-8.56982-1.63184,12.41981,12.41981,0,0,1-5.78955-5.14551,17.87385,17.87385,0,0,1-2.09082-9.21387V393.30581h10.20117v30.64844a11.42665,11.42665,0,0,0,1.35547,6.043,7.44111,7.44111,0,0,0,3.53809,3.07813,12.39428,12.39428,0,0,0,4.75586.89648,11.61642,11.61642,0,0,0,5.7666-1.4248,10.87331,10.87331,0,0,0,4.04394-3.85938,10.25627,10.25627,0,0,0,1.49317-5.46875V393.30581h10.20117Z"/><path d="M328.66064,381.49624h9.9712V393.6271h10.84423v7.99511H338.63184v25.77832q0,3.95216,1.67724,5.35352,1.67726,1.40186,5.7666,1.40137,1.05689,0,2.229-.06836,1.17114-.07032,1.769-.11524v7.81153q-.59766.09228-2.68848.25293-2.09106.15966-3.83642.16015a23.00586,23.00586,0,0,1-9.16748-1.46972,8.46018,8.46018,0,0,1-4.57178-4.57227,20.86613,20.86613,0,0,1-1.28662-7.92676V401.62221H321.125V393.6271h7.53564Z"/><path d="M369.92432,440.10561a17.90083,17.90083,0,0,1-7.44434-7.48925,24.56569,24.56569,0,0,1-2.61914-11.74024v-6.57129a23.52682,23.52682,0,0,1,2.75732-11.76269,19.025,19.025,0,0,1,7.4668-7.46778,21.67751,21.67751,0,0,1,10.6377-2.5957,21.18466,21.18466,0,0,1,10.77539,2.68848,19.1336,19.1336,0,0,1,7.32861,7.55859,23.78076,23.78076,0,0,1,2.66553,11.5791v5.69824h-31.522v2.38868a12.86582,12.86582,0,0,0,2.96387,8.66211,10.3708,10.3708,0,0,0,8.33985,3.46972,13.68945,13.68945,0,0,0,4.73291-.75879,9.01611,9.01611,0,0,0,3.33154-2.02148,5.88437,5.88437,0,0,0,1.63086-2.78028h9.97119a12.64212,12.64212,0,0,1-1.49316,4.50293,16.0159,16.0159,0,0,1-3.62989,4.48047,18.68982,18.68982,0,0,1-5.97363,3.42285,24.59332,24.59332,0,0,1-8.52393,1.333A23.7,23.7,0,0,1,369.92432,440.10561ZM391.521,413.34v-.64356a14.48142,14.48142,0,0,0-1.333-6.41015,10.13367,10.13367,0,0,0-3.74463-4.25,10.4414,10.4414,0,0,0-5.67481-1.5166,10.5543,10.5543,0,0,0-5.69775,1.5166,10.07691,10.07691,0,0,0-3.76807,4.25,14.46789,14.46789,0,0,0-1.33252,6.41015V413.34Z"/><rect class="cls-6" x="217.05701" y="73.32424" width="16.35394" height="16.35394"/><rect class="cls-6" x="148.54023" y="73.32424" width="52.92225" height="16.35394"/><rect class="cls-6" x="148.54023" y="99.65144" width="16.35394" height="16.35394"/><rect class="cls-6" x="180.48871" y="99.65144" width="52.92225" height="16.35394"/><rect class="cls-4" x="214.71061" y="274.4725" width="16.35394" height="16.35394"/><rect class="cls-4" x="85.47997" y="274.4725" width="113.64495" height="16.35394"/></svg>