<svg id="Layer_1" data-name="Layer 1" xmlns="http://www.w3.org/2000/svg" viewBox="0 0 124.64 169.24516"><defs><style>.cls-1,.cls-2{fill:#8aad00;}.cls-1{opacity:0.2;isolation:isolate;}.cls-2{stroke:#000;stroke-miterlimit:10;stroke-width:0.75px;}.cls-3{fill:none;}.cls-4{fill:#f9c2cf;}.cls-5{fill:#a3a3a3;}.cls-6{fill:#fff;}</style></defs><title>label-studio</title><rect class="cls-1" x="22.42912" y="30.79998" width="80" height="80" rx="4.67"/><path class="cls-2" d="M115.33912,125.7H9.61912a2,2,0,0,1-2-2V18.1a2,2,0,0,1,2-2h105.72a2,2,0,0,1,2,2V123.7A2,2,0,0,1,115.33912,125.7Zm-103.69-4h101.69V20.1h-101.72Z"/><rect class="cls-2" x="3.11912" y="11.59998" width="13" height="13" rx="1.69"/><rect class="cls-2" x="108.58912" y="11.59998" width="13" height="13" rx="1.69"/><rect class="cls-2" x="3.11912" y="117.18998" width="13" height="12.99999" rx="1.69"/><rect class="cls-2" x="55.97912" y="11.59998" width="13" height="13" rx="1.69"/><rect class="cls-2" x="55.97912" y="117.18998" width="13" height="12.99999" rx="1.69"/><rect class="cls-2" x="108.58912" y="117.18998" width="13" height="12.99999" rx="1.69"/><rect class="cls-2" x="3.11912" y="64.39998" width="13" height="13" rx="1.69"/><rect class="cls-2" x="108.58912" y="64.39998" width="13" height="13" rx="1.69"/><path class="cls-3" d="M76.18911,13.02a1.27,1.27,0,0,0,.67,1.21l-.61-1.33A.30006.30006,0,0,0,76.18911,13.02Z"/><path class="cls-4" d="M71.10911,8.35c-.37-.29-.68-.57-1-.81a7.4902,7.4902,0,0,0-1.82-1.13c-1.08-.34-1.68.44-2.38,1.06a7.73,7.73,0,0,0-2.66,6.78c0,.23.41.5-.13.61s-.49-.24-.61-.47a3.78,3.78,0,0,1,0-2.46,7.29,7.29,0,0,1,2.16-4.36c.75-.68,1.46-1.41,2.2-2.13a25.46852,25.46852,0,0,0-3.59-1.2,1.82,1.82,0,0,0-2.33,1,9.70969,9.70969,0,0,0-.86,2.6c-.26,1.88-.64,3.71.7,5.47.5.66.61,1.47,1.59,1.92s1.66,1.08,2.56,1.54C64.86911,12.69,67.08911,10.01,71.10911,8.35Z"/><path class="cls-4" d="M54.48912,10.76a2.93,2.93,0,0,0,2.85,2.44,9.93044,9.93044,0,0,1,1.58.27c.24.05.49.17.68,0s0-.39-.09-.58a6.55006,6.55006,0,0,1-.68-3,14.00012,14.00012,0,0,1,1.62-5.7l-3.79.36a5.36118,5.36118,0,0,0-.78.15,10.38018,10.38018,0,0,0-1.47,2.29C53.94912,8.23,54.33912,9.5,54.48912,10.76Zm16.24,4.5a14.31,14.31,0,0,1,3.7-1.31c.28-.07.6-.1.65-.47a.88025.88025,0,0,1-.15-.27c-.26-1.61-1.61-2.67-2.47-4a.57.57,0,0,0-.79494-.13364L71.65911,9.08a2.37,2.37,0,0,1-.72.3,7.45,7.45,0,0,0-4,3c-1.53,2-1.47,4.42-.55,6.74.07.17,0,.38.34.39s.33-.16.46-.36a10.35,10.35,0,0,1,3.54-3.89Z"/><path class="cls-4" d="M69.33912,22.88a10.86,10.86,0,0,1,7.76-2.86c.94,0,1-.11.72-.87-.53-1.27-1.09-2.52-1.6-3.8a.9.9,0,0,0-1.12735-.59083l-.00265.00083c-.32-.16-.64.1-1,.17a7.77009,7.77009,0,0,0-4.21,2,12.44046,12.44046,0,0,0-1.76,2.52,3.86,3.86,0,0,0-.33,3.08C68.03912,23.52,68.51912,23.6,69.33912,22.88Zm-.07,17.28a1.35994,1.35994,0,0,1,1-.5c.57-.08.8.33,1.1.62s.68.56,1-.07c.06-.14.24-.24.37-.35.78-.7,1.11-.71,2-.05.34.25.58.1.81-.17.88-1,1.25-1.1,2.24-.14.61.59,1.46-.32,2,.37a.31.31,0,0,0,.25,0,1.52007,1.52007,0,0,0,.27-.57,11.19045,11.19045,0,0,0,.2-2.58c-.19-1.51-.1-3-.32-4.53,0-.17,0-.54-.19-.44-1,.46-1.57-.28-2.28-.56a7.44,7.44,0,0,0-4.66-.28c-1.55.41-3.43.37-4,2.38a13.59013,13.59013,0,0,0-.72,2.38,17.69959,17.69959,0,0,1,3.11-1.24,9.85,9.85,0,0,1,7.69.36,1.79007,1.79007,0,0,1,.62.47c.3.37.13.61-.34.67a1.21,1.21,0,0,1-.76-.18,7.53006,7.53006,0,0,0-3.32-1.11,13.22,13.22,0,0,0-5.28,1.26,6.72007,6.72007,0,0,0-2.15,1.29.84.84,0,0,0-.27,1c.19.26.59-.09.83-.22a10.63013,10.63013,0,0,1,3.61-1.21,13.00029,13.00029,0,0,1,3.68-.13c.88.15,1.72.4,2.59.56.46.09,1,.09,1.15.59.09.24.11.52-.18.66a1.43,1.43,0,0,1-1.37-.17,7.05991,7.05991,0,0,0-4-.79,14.57987,14.57987,0,0,0-6.11,1.74c-.23.1-.74.29-.47.74a1.08,1.08,0,0,0,1.9.2Z"/><path class="cls-4" d="M75.76912,20.91a11.81008,11.81008,0,0,0-4.88,1.85,5.00012,5.00012,0,0,0-1.75,1.51c-.37.66-.15,1.48-.49,2.19-.07.15.11.4.17.61s.25.26.11.44-.22.37,0,.5.39,0,.56-.16a2.85,2.85,0,0,1,.52-.31,9.86,9.86,0,0,1,6.33-1.93c.9.07,1.88.16,2.2,1.34a5.13984,5.13984,0,0,1-1.46-.13,4.23,4.23,0,0,0-2.6-.27,16.70053,16.70053,0,0,0-2.87,1c-1.6.61-2.13,2-2.8,3.2-.06.11-.22.27,0,.43s.32,0,.48,0a14.87144,14.87144,0,0,1,2.39-.88,11.61011,11.61011,0,0,1,4.11-.44,10.22013,10.22013,0,0,1,3.55.9c.2.1.72.48.7-.1a11.23917,11.23917,0,0,0-.07-1.53c-.41-2.32-.8-4.65-1.24-7-.1-.5,0-1.25-.83-1.34A8.46033,8.46033,0,0,0,75.76912,20.91Zm-16.43-3.87a1.92,1.92,0,0,0-1.43-.37,3.52,3.52,0,0,0-3,1.19.82.82,0,0,0-.15.92c.14.33.49.11.77.06a2.78022,2.78022,0,0,1,1,0,8.32006,8.32006,0,0,1,4.28,1.92c.53.49.68.25.9-.22C62.21912,19.35,59.69912,17.32,59.33912,17.04Z"/><path class="cls-4" d="M55.97912,19.56a6.25025,6.25025,0,0,0-1.66.85c-.86.77-.22.92.29,1.26a4.65,4.65,0,0,1,1.61,1.71,2.49,2.49,0,0,1-.11,2.61c-.16.26-.32.66-.07.86s.57-.06.86-.24c.87-.54,1.65-1.16,2.45-1.75,1.14-.84.44-2.08,1.22-2.9,0,0-.13-.22-.21-.33C59.33912,20.25,57.78911,19.83,55.97912,19.56Zm-12.89-.96a4.73988,4.73988,0,0,0,2.36,1.47,8.99964,8.99964,0,0,0,2.69.07c1.21-.29,2.27-2.6.66-3a8.11994,8.11994,0,0,1-3.76-.76,2.66,2.66,0,0,1-1.19-1.17.43.43,0,0,1,.21-.64c.26-.12.54-.05.6.18.26.91,1.16,1.1,1.93,1.33a3.48,3.48,0,0,0,3.75-.67,8.78,8.78,0,0,1-4-4c-.09-.23-.19-.39,0-.58s.33-.35.61-.27a.42.42,0,0,1,.34535.48326l-.00535.02674a1.94919,1.94919,0,0,0,.25.76,6.3099,6.3099,0,0,0,2.73,2.59,1.8,1.8,0,0,0,2.5-.15c.38-.31.45-.6,0-.82a6.85963,6.85963,0,0,1-1.64-1.34,4.9,4.9,0,0,1-1.42-3.85,2,2,0,0,1,.25-.93.66.66,0,0,1,.83-.35c.39.15.09.39,0,.61a3.45,3.45,0,0,0,.9,3.89,4.21,4.21,0,0,0,2.58,1.59c.55,0,.31,0,.21-.3a15.30025,15.30025,0,0,1-.85-3.01,7.84,7.84,0,0,1,.61-4.48,1.62086,1.62086,0,0,0-.25-.07,1.48989,1.48989,0,0,0-.52.1,15.33,15.33,0,0,0-7.94,5.15,9.47,9.47,0,0,0-2.47,6.62c.01.49-.23,1.03.03,1.52Z"/><path class="cls-4" d="M54.27912,22.44a1.67,1.67,0,0,0-1.24-.39c-.47.07-.36.49-.55.73-1,1.25-1.94,2.67-4,2.7-.15,0-.33,0-.32.19a.38.38,0,0,0,.12.28,9.99989,9.99989,0,0,0,4.22,1.68,2.83,2.83,0,0,0,2.91-1.68A2.89,2.89,0,0,0,54.27912,22.44Z"/><path class="cls-4" d="M48.92911,24.55a4.35,4.35,0,0,0,2.89-2.6c.24-.47,0-.67-.52-.49-1.58.54-3.17,1-4.79,1.48-.71.19-.73.52-.16,1s1.5.45,2.16.64C48.71911,24.68,48.80912,24.57,48.92911,24.55Zm4.76-8.86a1.00005,1.00005,0,0,1,.8.6c.16.42.39.42.81.16a4.70986,4.70986,0,0,1,2.45-.64,5.27,5.27,0,0,1,3,.8,2.91,2.91,0,0,0-3.3-2.43,4.81987,4.81987,0,0,1-1.34-.11,2.29,2.29,0,0,0-2.21.51c.21.17.58-.06.65.24C54.68911,15.39,53.95912,15.3,53.68911,15.69Z"/><path class="cls-5" d="M97.77912,52.45a1.09,1.09,0,0,1,.18-.53,2.6,2.6,0,0,0,.15-1.61,35.15178,35.15178,0,0,0-1-3.54c-.09-.42-1.38-.86-1.74-.58a10.29037,10.29037,0,0,0-2.05,1.7c-.91,1.22-2.33,1.57-3.69,2a3.36,3.36,0,0,1-3.46-.43,3.32,3.32,0,0,0-1.32-.66,13.46986,13.46986,0,0,1-3.87-2,3.00006,3.00006,0,0,0-1.66-.73c-.49,0-.89-.81-.55-1.12.56-.5.47-1.2.81-1.75.46-.75,0-1.41-.24-2.09-.11-.36-.47-.35-.79-.08-.58.49-1,.4-1.35-.24-.13-.26-.07-.7-.55-.67s-.49.43-.61.77-.29.85-.8.87-.64-.34-.81-.67a.99994.99994,0,0,0-.17-.19c-.66-.71-.87-.69-1.25.19-.2.46-.35,1-.9,1.16s-.74-.6-1.1-.92-.39-.59-.82-.51a1,1,0,0,0-.84.82c-.11.48.08,1.16-.66,1.26s-.73-.64-1-1-.74-.57-1.13-.06a5.36,5.36,0,0,0-1,1.5c-.14.48-.6,1.16-.14,1.52a1.06,1.06,0,0,1,.39,1.07,34.62,34.62,0,0,0-.23,4.1.44.44,0,1,1-.87,0,17.51831,17.51831,0,0,0,0-1.88c-.06-.68.49-1.36,0-2.14-1.53,2.66-2.22,5.47-3.14,8.2-.57,1.7-1,3.43-1.49,5.15-.38,1.32-.74,2.63-1,4a38.80928,38.80928,0,0,0-.82,6.14c-.11,2-.73,3.85-.93,5.81a34.708,34.708,0,0,0-.59,4.64,45.8206,45.8206,0,0,1,.27,5.81,15.12032,15.12032,0,0,0,.09,2.79,36.44034,36.44034,0,0,1,.24,4.94,47.72177,47.72177,0,0,0,.42,4.77,58.349,58.349,0,0,0,.83,5.81c.06.39.08.81.56,1,.13.05.39.08.42,0a1.17,1.17,0,0,0,0-1.09c-.15-.33-.06-.69-.24-1s0-.63.23-.91a.43.43,0,0,1,.46-.19c.26,0,.21.25.19.39a3.69006,3.69006,0,0,0,.22,1.6c.22.84.13,1.88,1.45,2.26.52.15.72.76.87,1.27.6,1.95-.37,3.61-1.21,5.29a2.67011,2.67011,0,0,1-1,1.09c1.11,1,1.84,4.38,2.3,5.6,1.09-1,1.32-2.71,2.56-3.77a12.9,12.9,0,0,1,4.66-2.41c4.09-.86,6.67.75,6.86,4.72a8.14,8.14,0,0,1-1.46,5.2,13.62051,13.62051,0,0,0,1.87-2,19.94211,19.94211,0,0,1,1.38-1.59.59.59,0,0,1,.81-.05c.32.23.17.46-.07.69a4.00048,4.00048,0,0,0-.85.94c-.28.58-1,.94-1.14,1.7a53.92085,53.92085,0,0,1,6.51-2.12c1.2-.27,1.63-.2,2.17.83a6.99989,6.99989,0,0,1,1.2,3.66.82.82,0,0,0,.4.79,10.42953,10.42953,0,0,1,.71-.92c.29-.3,0-1.06.87-.88.7.15.2.77.62,1.24.26-1,.71-1.47,1.86-1.11.57.18,1.67-.68,1.76-1.2.32-1.75.09-3.53.55-5.28.5-1.92.14-3.91.39-5.86s.92-3.81,1.16-5.76c.16-1.3.55-2.57.6-3.91a20.78024,20.78024,0,0,1,.61-3.87,27.66959,27.66959,0,0,0,.67-4.45c.07-1,.15-2.08.16-3.12q.06-5.22.07-10.43v-5.5a11.59072,11.59072,0,0,0,0-2.32c-.19-.9.67-2-.6-2.71a.32355.32355,0,0,1,.07-.2,54.25951,54.25951,0,0,0,1.78-6.67,11.29,11.29,0,0,0-.62-6.27,14.25978,14.25978,0,0,1-.62-4.3Zm-37.72,11a2.26985,2.26985,0,0,1,.36-.64.39.39,0,0,1,.5,0c.15.09.27.19.18.4a7.32987,7.32987,0,0,0-.51,3.29c0,.22.11.53-.35.51-.29,0-.56,0-.37-.5a9.99986,9.99986,0,0,1,.19-3.04Zm-1,8.24a.81.81,0,0,1,.31-.65c.23-.22.45-.65.86-.41s0,.48-.14.71a2.59993,2.59993,0,0,0-.31,1.32c.1,1-.18,2,0,2.95,0,.21.13.52-.33.53s-.57-.15-.57-.48V74.32c-.13-.8.33-1.68.22-2.56Zm-.07,13.47a7.08016,7.08016,0,0,0-.19-2.49c-.25-.79,0-1.6-.31-2.34a.68.68,0,0,0,.16-.57c0-.31.18-.36.46-.33s.52.18.44.42c-.45,1.33.23,2.6.2,3.91,0,.49-.21.94-.21,1.43,0,.2-.06.41-.32.38s-.19-.21-.19-.39Zm.15,3.46c0-.54-.08-1,.44-1s.46.41.49.72c.11,1,.23,2.07.3,3.11a1.53,1.53,0,0,1-.21.68.38.38,0,0,1-.27.18c-.22,0-.17-.17-.2-.29a30.59847,30.59847,0,0,0-.51-3.38Zm1.93,11.53c-.2,0-.35-.18-.41-.47-.34-1.61-.76-3.21-1.13-4.82a.53.53,0,0,1,.35692-.65909L59.88912,94.2a.55.55,0,0,1,.67.6c0,.91.52,1.71.43,2.63a7.99974,7.99974,0,0,0,.23,1.77,1.36659,1.36659,0,0,1-.07.49c-.07.19.28.44-.04.48Zm26-42.74c.45,0,.37.25.38.49,0,.67.33,1.32.16,1.94a6.99954,6.99954,0,0,1,0,1.19.44664.44664,0,1,1-.87-.09,9.32,9.32,0,0,0-.13-3,.46.46,0,0,1,.51-.51Zm-.91,22.76c.24-.95-.08-1.94.29-2.88.11-.27.16-.61.62-.54s.19.43.32.7a24.91111,24.91111,0,0,0-.6,2.83c-.06.25-.2.42-.48.38s-.15-.25-.09-.46Zm-.43,2.91v1.87c0,.37-.08.9-.45.91s-.19-.63-.51-.87a5.68,5.68,0,0,0,.27-2,.481.481,0,0,1,.67-.47c.45.14.1.38.07.59Zm-.15-12.14c0,.28,0,.73-.42.66s-.49-.49-.52-.83a7.42069,7.42069,0,0,0,0-3.38c0-.18-.13-.48.28-.47a.4.4,0,0,1,.43.35,15.27,15.27,0,0,1,.28,3.7Zm-.64-11.9c.25,0,.3.13.3.31,0,1,.37,2,0,3.09a6.12,6.12,0,0,1-.7-3.19c.06-.2.27-.18.45-.18Zm-1.34,17.5c.59-1.14.36-2.33.36-3.52,0-.18-.15-.48.24-.51s.38.16.49.38a4.21986,4.21986,0,0,1,.17,1.66,2.59,2.59,0,0,1-.78,2.21c-.1.1-.2.24-.37.17a.23.23,0,0,1-.11-.39Zm-1-12.46c.59,1,.16,2.09.47,3.11,0,.13-.12.3-.14.45-.05.35-.29.46-.64.42-.6-.07,0-.36-.12-.53a.31.31,0,0,1,0-.39,7.22027,7.22027,0,0,0-.29-2.38,2.55972,2.55972,0,0,1-.07-.56c0-.31-.15-.78.3-.84s.3.47.45.72Zm-1.73-11.9c.29,0,.4.17.5.39a2.62991,2.62991,0,0,1,.28,1.19,8.49008,8.49008,0,0,0,.26,1.91c.08.43-.06.78-.39.84s-.58-.4-.57-.67c0-.68-.25-1.33-.19-2a4.45,4.45,0,0,0-.21-1.08c.09-.26-.12-.56.28-.58Zm-.22,5.89c.3,0,.61,0,.64.32a10.78035,10.78035,0,0,0,1,3.14c.12.29.06.52-.22.6s-.35-.17-.45-.4c-.38-.92-.8-1.82-1.2-2.74a4.42838,4.42838,0,0,1-.15-.53c.07-.1.07-.36.35-.39Zm.16,14.41c0-.17,0-.59.42-.46a.51.51,0,0,1,.34.57v1.52a5.68985,5.68985,0,0,1-.14,2c-.07.27-.15.49-.49.46s-.14-.4-.13-.48c.1-1.21-.33-2.41-.03-3.61Zm-1.3-5.22c.41,0,.42.36.48.64q.16.78.34,1.55a.40005.40005,0,0,1-.28.53.33.33,0,0,1-.41-.33c0-.6-.57-1.09-.36-1.64-.11-.34-.28-.71.19-.75Zm-2.7,18.76c-.07-.36,0-.7.42-.74s.5.35.44.64c-.16.67.38,1.31.1,2,.18.54-.22,1.1-.12,1.68a.32.32,0,0,1-.39.35c-.27,0-.17-.23-.18-.43A20.54968,20.54968,0,0,0,76.80912,86.02Zm.1,8.51c0,.36-.16.56-.59.55s-.31-.32-.32-.53,0-.6,0-.9a8.8392,8.8392,0,0,1,0-1.14.54.54,0,0,1,.57625-.50114l.01375.00114a.48.48,0,0,1,.38424.5596l-.00425.0204a10.06075,10.06075,0,0,0-.05,1.94Zm.69,5.84a8.74007,8.74007,0,0,0,1-1.76,4.8101,4.8101,0,0,0,.3-1.82c0-.31.06-.64.44-.69.58-.07.27.38.38.78a5.16,5.16,0,0,1-1,3.19c-.14.2-.35.34-.41.61a.53.53,0,0,1-.64824.37628l-.02176-.00628c-.37-.14-.2-.44-.03-.69Zm.3-24.2v-.49a.5.5,0,0,1,.41-.48c.33-.05.25.26.35.43.32.57,0,1.18.15,1.66a3.86988,3.86988,0,0,1-.34,2.14c-.1.15-.16.28-.39.25a.25.25,0,0,1-.19-.38c.45-1.06-.06-2.1.02-3.14Zm.78,8.42c-.41,0-.45-.29-.45-.58V82.78a11.90142,11.90142,0,0,1,0-1.47.48.48,0,0,1,.59-.47c.57.1.1.36.1.54v2.64c.04.21.21.56-.23.56Zm-.06-14.7a.35.35,0,0,1,.4.35,10.96782,10.96782,0,0,0,.07,1.4,3.37009,3.37009,0,0,1-.07,1.4.318.318,0,0,1-.29.35c-.19.01-.24-.14-.26-.3a13.66045,13.66045,0,0,1-.13-2.85A.36.36,0,0,1,78.61912,69.89Zm-.11-6.3a2.55978,2.55978,0,0,1-.07.48.5102.5102,0,0,1-.6.37c-.36-.06-.17-.35-.21-.41a5.33992,5.33992,0,0,0-.54-3.64.56368.56368,0,0,1,0-.46c1-.77.22-1.61.11-2.41,0-.31-.26-.6-.32-.91s-.15-.47.23-.52.57,0,.65.31c.25,1,.95,2.23.62,3.11-.49,1.46.46,2.73.14,4.08Zm-1.34-16.1c.24-.07.37.2.49.38a1.72,1.72,0,0,1,.37,1.32,6.90012,6.90012,0,0,1-.45,2.43c-.06.18-.15.46-.49.34s-.19-.34-.15-.49a5.88989,5.88989,0,0,0,0-3.38.45.45,0,0,1,.222-.59643Zm-1.66-4a.50585.50585,0,0,1,.59-.56c.46.04.27.35.3.56a1.66,1.66,0,0,1-.91,2c.01-.73-.02-1.35.03-1.96Zm.16,10.15c.57,0,.53.61.51,1.05v.32c0,.3,0,.65-.42.67s-.49-.36-.49-.68v-.46c0-.19-.27-.88.4-.86Zm0,9.78c.41,0,.31.28.37.45a20.12069,20.12069,0,0,1,.86,3.5c0,.22,0,.51-.26.55a.45.45,0,0,1-.47-.42c.05-1.11-.78-2-.9-3.06v-.49a.45833.45833,0,0,1,.37-.49Zm-.44,9.2a.41.41,0,0,1,.43-.35c.26,0,.22.18.31.32.31.5.15,1.06.29,1.58a11.35957,11.35957,0,0,1,.2,1.68c0,.34-.11.79-.56.79s-.33-.44-.33-.72c0-.95-.27-1.86-.35-2.8a3.80257,3.80257,0,0,1-.02-.47Zm.66,14.18c0,.9-.48,1.63-.46,2.45,0,.17-.15.62-.56.5s-.32-.38-.16-.67c.39-.71.14-1.5.3-2.23.07-.32.09-.93.53-.91.57.06.18.65.31.89Zm-1.41-21.12c0,1.21.65,2.34.58,3.57,0,.22,0,.36-.23.41s-.34-.1-.38-.32a24.81075,24.81075,0,0,1-.72-3,3.83051,3.83051,0,0,1,.07-.68.4.4,0,0,1,.42-.25.23.23,0,0,1,.26.27Zm-1.38-13.92a6.3505,6.3505,0,0,1,0-1.06,12.00121,12.00121,0,0,1,0-1.46.5.5,0,0,1,.56-.51c.46,0,.32.32.32.53V51.7c0,.35,0,.76-.54.78S73.13911,51.98,73.09912,51.76Zm0,4a.48.48,0,0,1,.65.49c-.06,1.14.66,2.21.38,3.21v1.26a.55.55,0,0,1-.63.55c-.27,0-.19-.35-.22-.6-.15-1.4.17-2.84-.37-4.22-.07-.22-.22-.58.21-.69Zm-1,5.22a14.36,14.36,0,0,0,.33,2.48.21.21,0,0,1-.2.29.41.41,0,0,1-.49-.28,6.83968,6.83968,0,0,1-.38-2,.7.7,0,0,1,0-.52c.07-.2.1-.34.38-.34s.36.15.39.36Zm-.24,23.78c-.07.25,0,.66-.37.61s-.33-.42-.22-.71v-.23h-.11v-3.6c0-.37.07-.66.58-.64s.34.39.32.61A18.14949,18.14949,0,0,1,71.85911,84.76Zm-.06,7a27.67217,27.67217,0,0,1-.39,3.21.47.47,0,0,1-.46958.47043q-.01021,0-.02042-.00043c-.28,0-.28-.35-.22-.55.4-1.19,0-2.41.24-3.61a2.921,2.921,0,0,1,.18-.58.42.42,0,0,1,.52-.22c.24.07.15.26.16.41S71.80912,91.45,71.79912,91.76Zm-2.11-19.14c-.1-1.11.26-2.2.23-3.31a2.11983,2.11983,0,0,1,.39-.88c.08-.15.22-.29.42-.21s.3.2.27.31c-.46,1.78-.27,3.57-.88,5.24-.07.19,0,.6-.45.43a.42.42,0,0,1-.18-.66A1,1,0,0,0,69.68911,72.62Zm.23-6.17c-.07-.67.41-1.25.06-1.89-.05-.1,0-.73.54-.63a.6.6,0,0,1,.45.81,4.44982,4.44982,0,0,0-.13,1.6c0,.42,0,1-.55,1s-.29-.64-.38-.9Zm.11,11.31a4.209,4.209,0,0,0,0-.57,2.32,2.32,0,0,1,.31-1.43c.14-.18.23-.41.53-.3a.40994.40994,0,0,1,.28.54,3.82,3.82,0,0,0-.13,1.76c0,.31-.11.82-.56.79S69.98912,78.14,70.02912,77.76Zm1.31-22.56c-.46.07-.5-.28-.49-.59s0-.43,0-.65a.63.63,0,0,1,0-.24c.11-.26-.28-.74.32-.77s.36.5.38.78.17.51.19.77S71.71912,55.15,71.33912,55.2Zm-.72-12.24c.39,0,.48.32.47.56,0,.62.63,1,.55,1.64,0,.21.17.53-.29.56s-.61-.08-.62-.43c0-.6-.52-1.07-.55-1.66C70.18911,43.33,70.14911,42.98,70.61911,42.96Zm-.57,5.61c.09-.17.13-.46.48-.38a.41.41,0,0,1,.36.41,5.68,5.68,0,0,0,.34,2.71.29.29,0,0,1-.19.46.56.56,0,0,1-.64-.2,1.05578,1.05578,0,0,1-.23-.51,10.8203,10.8203,0,0,0-.21-1.92A1.65966,1.65966,0,0,1,70.04912,48.57Zm-.12,7.19c.33.11.16.31.09.52-.23.78.13,1.58-.07,2.37v.48c-.15.31-.14.89-.66.76s-.21-.56-.13-.92a9.48062,9.48062,0,0,0,.11-1.46,9.75141,9.75141,0,0,1,0-1.38.46.46,0,0,1,.66-.37Zm-1.8,37.3c.07.3-.14.41-.38.43s-.49,0-.51-.3,0-.6,0-.9a6.99984,6.99984,0,0,1,.17-1.62c0-.26.11-.56.44-.48a.52.52,0,0,1,.4.67,5.33,5.33,0,0,0-.12,2.18Zm-.19-40.17c-.42-.13-.24-.51-.15-.76.3-.81.07-1.68.36-2.49a.43.43,0,0,0,0-.16c0-.44.19-.84.68-.77s.12.55.27.84c-.15.92-.26,1.85-.47,2.77C68.5791,52.59,68.4291,53.04,67.93911,52.89Zm0-8.7c.24-.13.62-.26.55.16-.14.91.67,1.46.95,2.31-1.14.15-1.35-.66-1.6-1.25-.12-.33-.5-.87.13-1.22Zm-1,16.86c0-.26-.14-.67.44-.59s.42.31.38.7a26.69627,26.69627,0,0,0-.11,3,3.23,3.23,0,0,1-.17,1.26c-.1.23-.21.41-.49.38s-.19-.33-.19-.5c-.03-1.39.22-2.81.21-4.24Zm-.3,13.47c-.2-.37,0-.9,0-1.36a.4.4,0,0,1,.37-.4c.29-.06.29.15.39.32.26.44.09.9.17,1.37-.23.32.36,1-.35,1S66.8091,74.85,66.6391,74.52Zm.14-6.47a7.65028,7.65028,0,0,0-.18,2.32,1.00005,1.00005,0,0,1-.12.46c-.13.22-.06.62-.48.56s-.3-.41-.32-.8a9.00047,9.00047,0,0,0,.22-2.51c0-.24.09-.57.49-.55a.38.38,0,0,1,.39.52Zm-1.2-12.8c0-.15.14-.31.25-.29a.68.68,0,0,1,.39.29,2.13,2.13,0,0,1-1.07,2.51c.19-.94.29-1.73.42-2.51Zm-.5,34.19c0-.17.24-.15.38-.11s.13.22.15.34c.06.45-.23.83-.27,1.28a1.62,1.62,0,0,0,.16,1.12c.2.3.1.54-.25.64s-.48-.23-.52-.42c-.08-.44-.35-.87-.2-1.36-.33-.62.4-.97.54-1.49Zm-.44-30.74-.93,3.39c-.08.27-.07.67-.51.62s-.06-.47-.26-.64c.21-1.11.4-2.19.63-3.26,0-.17.25-.3.33-.47s.41-.2.62-.15C64.8891,58.27,64.6891,58.51,64.6391,58.7Zm-2.05,8.5v-.39a4.39014,4.39014,0,0,1,.36-1.72.54.54,0,0,1,.68842-.33056l.00158.00056c.45.11.13.36.1.57a8.10987,8.10987,0,0,0-.25,1.91c0,.33.11.79-.49.76S62.60911,67.5,62.5891,67.2Zm.69,11.56a4.80868,4.80868,0,0,1,0-.85c-.15-.72.29-1.53.2-2.37a1.13073,1.13073,0,0,1,.31-.65.4.4,0,0,1,.48-.11c.18.07.19.17.16.37-.17,1.21-.27,2.42-.45,3.62,0,.24,0,.69-.42.68S63.33912,78.97,63.27912,78.76Zm-.78-23c.69-.8.48-1.83.94-2.67,0-.07.09-.14.13-.21a.45.45,0,0,1,.55-.31c.28.07.15.31.21.61-.24.72-.5,1.55-.82,2.38a1,1,0,0,1-.59.46C62.55912,56.19,62.33912,55.93,62.49912,55.76Zm-.49,18.18v-.73a15.86937,15.86937,0,0,0,.2-3c0-.1,0-.27.07-.3.26-.14.25-.68.69-.49s.1.47.09.73c0,1.19-.58,2.36-.18,3.58a.51.51,0,0,1-.49.71c-.51.13-.36-.23-.38-.47Zm1.51,17.27c-.41,0-.43-.25-.5-.54-.38-1.51-.33-3.07-.66-4.59-.05-.24.09-.37.31-.42a.42.42,0,0,1,.52913.26984q.00642.0198.01087.04016a5.58054,5.58054,0,0,1,.11.87,12.64019,12.64019,0,0,0,.58,3.8c-.23.12.02.58-.38.6Zm.15-6.42c-.47.1-.41-.39-.51-.63a9.52984,9.52984,0,0,1-.63-2.4c0-.33,0-.61.42-.63s.33.28.39.49c.21.8.45,1.58.62,2.39.06.26.16.75-.29.81Zm1.25,18.23a.67.67,0,0,1-.81-.49,3.43019,3.43019,0,0,1,0-.89v-.81a.56.56,0,0,1,.56-.54c.34,0,.33.3.35.55a3.8101,3.8101,0,0,0,.13,1.52c.07.21.19.6-.24.69Zm.62-4.26c-.44.13-.49-.23-.54-.55-.15-.95-.36-1.89-.51-2.84,0-.21-.12-.53.34-.51s.71.21.56.81a16.00056,16.00056,0,0,1,.46,2.29C65.91912,98.35,65.85912,98.67,65.53913,98.76Zm1.33-10.73c0,.22,0,.44-.33.45s-.37-.17-.39-.41c-.08-1-.18-2.06-.28-3.23.25-.45.07-1.08.13-1.7a.42.42,0,0,1,.56-.38.4.4,0,0,1,.32.51A13.9,13.9,0,0,0,66.86913,88.03Zm.05-7.4a17.00228,17.00228,0,0,1,0-2.72,1.7,1.7,0,0,1,.31-.9c.13-.14.25-.42.57-.27s0,.33.06.55a8.19985,8.19985,0,0,0-.08,3.31c0,.22,0,.77-.46.78s-.4-.44-.4-.74Zm1,22a.42.42,0,0,1-.57.37c-.31-.08-.3-.26-.22-.56a18.23981,18.23981,0,0,0,.42-2.44,1.2301,1.2301,0,0,1,.32-.64c.11-.13.16-.29.39-.25s.13.31.22.41Zm.38-5.24c-.44,0-.32-.42-.35-.7-.06-.45-.12-.9-.19-1.39a1.79987,1.79987,0,0,1,.1-.6c.12-.22.19-.57.6-.51s.2.39.23.6a9.47,9.47,0,0,0,.11,1.77.7.7,0,0,1-.45591.87872l-.00409.00128Zm.57-12.16c-.06-.26,0-.49.29-.54a.39.39,0,0,1,.48.38,11.45979,11.45979,0,0,1,.29,3.93c-1-.5-.62-1.33-.79-1.95s-.13-1.17-.27-1.77Zm4.07,11.63a.12.12,0,0,0,0,.07,4.44,4.44,0,0,1-.92,2.67c-.76,1.18-1,2.59-1.68,3.83a2.4,2.4,0,0,1-.73.76c-.25-.14-.5-.23-.28-.51,1-1.25,1.1-2.79,1.73-4.16a3.08993,3.08993,0,0,1,.73-1.17,1.37005,1.37005,0,0,0,.39-1,1.54987,1.54987,0,0,1,.08-.64c.14-.28.32-.74.69-.63s.22.54-.01.82Zm.67-3.52a2.07,2.07,0,0,1-.18.53c0,.12-.14.16-.27.16a.25623.25623,0,0,1-.25-.26V92.32c0-.84-.11-1.9-.18-3,0-.23,0-.48.3-.52s.37.28.4.45a19.80093,19.80093,0,0,1,.18,4.13Zm0-16.83a2.18,2.18,0,0,0,.07-.95,3.45012,3.45012,0,0,0-.28-1.92c-.13-.25-.21-.67.16-.79s.56.25.64.47a4.27,4.27,0,0,1,.14,3.44c-.12.25-.25.58-.63.44s-.21-.44-.1-.65Zm.28,4.92a.83.83,0,0,1,.17-.67c.08-.15.19-.33.39-.27a.48.48,0,0,1,.28.36,11.75043,11.75043,0,0,0,.4,2.54c0,.25,0,.55-.28.62s-.5-.31-.56-.52c-.19-.66-.28-1.38-.4-2.02Zm.6,17.51c.72-.8.51-1.79.75-2.68.1-.35.22-.71.6-.68s.39.52.32.8c-.2.83-.47,1.64-.74,2.45a.88.88,0,0,1-.52.47c-.32.01-.63-.07-.41-.32Zm4.18,14.68a3.1,3.1,0,0,1-2.12.39,1.45,1.45,0,0,1-1.51-1.18,7.61,7.61,0,0,1-.56-3,4.85,4.85,0,0,1,2.24-4.36,2.91,2.91,0,0,1,4.33,1.4,6.44,6.44,0,0,1-2.38,6.79Zm3.2-25c-.31,1.51.08,3.09-.56,4.57-.1.23-.22.43-.5.35s-.07-.34,0-.46c.38-1.29-.06-2.64.38-3.91-.31-.34.12-.48.19-.72s.18-.12.3-.12a.21.21,0,0,1,.19.35Zm-.13-4.39c.5-.93.38-2,.81-2.93.15-.33.06-.69.25-1s.12-.47.42-.42.12.32.15.49a1.26933,1.26933,0,0,1,0,.24,10.19983,10.19983,0,0,1-1.14,4c-.06.12-.14.27-.31.2a.39.39,0,0,1-.18-.52Zm2.11,10.86c-.46,1.12-.38,2.37-1,3.45-.11.19-.17.41-.47.44a.2987.2987,0,0,1-.3-.44c.64-1,.48-2.13.88-3.16a1.24,1.24,0,0,1,.36-.54.44.44,0,0,1,.42-.09.23.23,0,0,1,.11.4Zm.42-2.82a.58.58,0,0,1-.48-.17c-.23-.28.12-.36.22-.53a8.25007,8.25007,0,0,0,.41-2.36,3.32993,3.32993,0,0,1,.33-.91c.1-.19.21-.34.47-.25s.11.28.14.42c-.19,1.12-.37,2.23-.59,3.33-.05.24-.12.54-.5.53Zm2.68,2c-.31,1.24-.59,2.49-.94,3.73-.14.51-.58.71-1.3.55a5.32,5.32,0,0,0,1.15-3.45,1.39,1.39,0,0,1,.57-1.13.54.54,0,0,1,.42-.06.458.458,0,0,1,.1.47Zm-.2-5c-.62,0-.57-.34-.44-.55a5.68,5.68,0,0,0,.43-2.4c0-.33.13-.67.6-.63s.18.4.21.62a15.349,15.349,0,0,1-.21,2.16.7.7,0,0,1-.59.92Zm1.42,4.12a1,1,0,0,1-.93.44,3.00007,3.00007,0,0,0,.48-2.19c0-.33-.11-.83.45-.79s.28.52.28.82a2.68,2.68,0,0,1-.28,1.84Zm0-21.4c-.56,0-.34-.68-.29-1,.14-1.15-.46-2.14-.77-3.19a1.51,1.51,0,0,1-.15-.62c0-.26.08-.59.43-.62s.27.33.3.53c.18,1.31.85,2.53.91,3.92-.17.41-.09,1.11-.48,1.09Zm.94,8.26c.07-1,.15-2,.18-3a1.38,1.38,0,0,1,.94-1.33,19.08986,19.08986,0,0,0-.38,4.29.42.42,0,0,1-.51.55c-.26,0-.3-.19-.28-.4Zm.81,8.16a.41.41,0,0,1-.45.31c-.24-.05-.26-.29-.22-.48a19.71017,19.71017,0,0,0,.57-3,.33.33,0,0,1,.41-.33c.41.13.29.48.31,1-.05.85-.67,1.66-.67,2.61Z"/><path class="cls-6" d="M70.08912,113.21a12.90009,12.90009,0,0,0-4.66,2.41c-1.25,1.06-1.48,2.76-2.56,3.77-.47-1.22-1.2-4.59-2.3-5.6a3.21979,3.21979,0,0,1-.94.41.93.93,0,0,0-.7.69c-.24,1.26-.94,2.39-1.26,3.65-.41,1.64-1,3.28-1.53,4.91a46.7789,46.7789,0,0,1-1.47,4.51c-1.13,2.57-2.05,5.2-3.19,7.77-.14.32.07.33.34.33.51,0,1.14.11,1.27.5.29.86,1,.58,1.47.46,2.22-.56,4-1.91,6-2.82,1.29-.59,2.35-1.46,3.59-2.1a18.69978,18.69978,0,0,0,4.42-2.7c1.75-1.69,3.91-3,5.42-4.88a3.10047,3.10047,0,0,1,.49-.57c.35-.26.68-.54,1-.83a8.14,8.14,0,0,0,1.46-5.2c-.18-3.96-2.76-5.57-6.85-4.71Zm-10.12,6.8q-1.45.68-1.45-.82a3.22,3.22,0,0,1,1.23-2.23.51.51,0,0,1,.78,0C61.03912,117.46,60.63912,119.7,59.96911,120.01Zm10.66,1.75c-.35.26-.74.72-1.33.39s-.31-.72-.2-1.15c.24-.94.46-1.88,1.69-2.2a1.13,1.13,0,0,1,1.45,1,3.78,3.78,0,0,1-1.61,1.96Z"/><path d="M103.11911,52.39c-1.25-1.23-1.78-3-3-4.29a10.79013,10.79013,0,0,0-3.59-2.89,1.68,1.68,0,0,0-1.9.18c-1.13.86-2.08,1.89-3.22,2.74a4.47,4.47,0,0,1-4.12.84c-1.1-.4-2.11-1.11-3.28-1.51a18.48075,18.48075,0,0,1-3.08-1.75c-.8-.46-1.06-.94-.64-1.7a3.32005,3.32005,0,0,0,.31-.65,22.72043,22.72043,0,0,0,.47-2.6,16,16,0,0,0,.43-3.45c-.1-2.47-.29-4.95-.61-7.42-.34-2.63-.88-5.24-1.29-7.86a9.99934,9.99934,0,0,0-.54-2c-.48-1.25-1-2.49-1.47-3.75a29.00052,29.00052,0,0,0-2.3-4.69,24.67008,24.67008,0,0,0-5.36-5.56,39.221,39.221,0,0,0-4.59-2.33,13.63035,13.63035,0,0,0-4.9-.94,17.31051,17.31051,0,0,0-3.59.56,23.2201,23.2201,0,0,0-6.61,2,24.63046,24.63046,0,0,0-4.16,2.94,13.25,13.25,0,0,0-2.91,3.63,11.42984,11.42984,0,0,0-.83,2.77,9.46984,9.46984,0,0,0-.43,3.78,32.299,32.299,0,0,0,3,5.56c.91.57,1.28,1.52,2,2.2a12.18984,12.18984,0,0,0,4.54,2.24,6.91,6.91,0,0,0,4.22-.28,10.2401,10.2401,0,0,0,4.48-2.68,8.16009,8.16009,0,0,0,1.88-3.19c.32-1.06,1.4-2,.85-3.26-.07-.16.16-.28.29-.39a1.29,1.29,0,0,1,2.09.56,37.91243,37.91243,0,0,1,1.79,4.85,5.23008,5.23008,0,0,1,.52,1.94c-.11,1.7.19,3.38.06,5.1a26.92978,26.92978,0,0,1-1.6,7.47c-.87,2.31-2.47,4.4-2.45,7a1.4799,1.4799,0,0,1-.2.52,34.50015,34.50015,0,0,0-2.05,5.44c-.31,1.27-.72,2.53-1.1,3.78-1,2.45-2.79,12.81-3.06,14.26-.34,1.82-.54,3.67-.87,5.49-.28,1.51-.29,6.81-.33,7.93-.14,3.47.39,6.91.36,10.37,0,.57.44,6.49.89,8.85.14.73.46,3.18-.12,3.46a3,3,0,0,0-1.71,2.46,4.71,4.71,0,0,0,1.39,3.88,3.57,3.57,0,0,1,.87,3.82c-.69,2.15-1.43,4.28-2.08,6.44s-1.3,4.25-2.15,6.33c-.34.82-.78,1.61-1.05,2.44a44.00131,44.00131,0,0,1-2.03,5.01c-.22.47-.49,1-.24,1.38a2,2,0,0,0,1.29.78,7.88,7.88,0,0,0,4.65-.59c.95-.5,1.91-1,2.86-1.49.3-.16.51-.24.71.13.45.83,1.36,1.33,1.93,2.08.19.25.54.61,1,.3a.57.57,0,0,0-.11-.94c-.95-.59-1.44-1.56-2.39-2.14l3.85-2.2,2.45-1.43c.38-.21.67-.23.75.28.1.71.28,1.41.34,2.12.13,1.44.38,2.9-.81,4.15a.74.74,0,0,0,0,1c.25.28.58.14.91,0a4.6995,4.6995,0,0,1,.87-.15.353.353,0,0,1,.07.14c.12,1.27.19,1.32,1.47.73a.36.36,0,0,1,.47.09,1.25,1.25,0,0,0,2.11-.39,11.19979,11.19979,0,0,0,.9-2.24,49.00151,49.00151,0,0,0,1-5.29c.31-2.25.82-4.48,1.24-6.73.3-1.6.36-1.88,1.94-1.88a.46987.46987,0,0,0,.18,0,52.62013,52.62013,0,0,1,5.66-1.9c1.46-.42,1.74-.25,2.31,1s0,2.8.28,4.21a17.79048,17.79048,0,0,1,.06,5.38,14.42005,14.42005,0,0,1-1.66,6.14c-.2.32-.82.82-.16,1.29s.9-.27,1.22-.47c.57-.35.64-.25.77.26a1.29,1.29,0,0,0,2,.37c.33-.4.56-.36.83,0,.58.69,1.07.39,1.4-.14s.5-.46.9-.23a.59.59,0,0,0,.93-.4,16.34988,16.34988,0,0,0,.59-3.89,18.71992,18.71992,0,0,1,.33-4.29c.33-1.77.5-3.56.83-5.33s.5-3.86.73-5.79.54-3.69.59-5.53a32.16094,32.16094,0,0,1,.55-4.61c.35-2,.81-4.05,1.17-6.08.07-.37.09-.95.14-1.4.13-1.1.28-2.21.5-3.27a43.50968,43.50968,0,0,0,.9-8.94c0-5.68,0-11.35.07-17a27.00023,27.00023,0,0,1,.73-7.19,33.23,33.23,0,0,0,.7-4.42c0-.3,0-.57.45-.35,1.16.55,1.39.45,1.64-.75.09-.43.46.14.93.3a.57.57,0,0,0,.81-.38c.05-.13.16-.63.33-.46.57.57,1.1.35,1.26.16s-1-6.22-2.45-7.65Zm-24.44-30.18c.45,2.32.83,4.64,1.24,7a11.24093,11.24093,0,0,1,.07,1.53c0,.58-.5.21-.7.1a10.21989,10.21989,0,0,0-3.54-1,11.60988,11.60988,0,0,0-4.11.44,14.87144,14.87144,0,0,0-2.39.88c-.16.07-.29.2-.48,0s-.05-.31,0-.43c.67-1.25,1.2-2.59,2.8-3.2a16.70073,16.70073,0,0,1,2.87-1,4.23,4.23,0,0,1,2.6.27,5.13984,5.13984,0,0,0,1.46.13c-.32-1.18-1.3-1.27-2.2-1.34a9.86,9.86,0,0,0-6.31,1.91c-.17.11-.36.19-.52.31s-.36.27-.56.16-.13-.33,0-.5-.07-.3-.11-.44-.24-.46-.17-.61c.34-.71.12-1.53.49-2.19a5.00015,5.00015,0,0,1,1.77-1.47,11.81009,11.81009,0,0,1,4.88-1.83,8.46068,8.46068,0,0,1,2.08,0C78.70912,20.95,78.57912,21.71,78.67911,22.21Zm-22.76-17.53c.26,0,.51-.13.78-.15l3.79-.36a14.00007,14.00007,0,0,0-1.62,5.7,6.54988,6.54988,0,0,0,.68,3c.07.19.33.39.09.58s-.44,0-.68,0a9.93128,9.93128,0,0,0-1.62-.25,2.93,2.93,0,0,1-2.85-2.44c-.14-1.24-.54-2.51,0-3.76A10.37988,10.37988,0,0,1,55.91912,4.68Zm-1.35,10.16c-.06-.3-.44-.08-.65-.24a2.29,2.29,0,0,1,2.21-.51,4.81983,4.81983,0,0,0,1.34.11,2.91,2.91,0,0,1,3.3,2.43,5.27,5.27,0,0,0-3-.8,4.71,4.71,0,0,0-2.45.64c-.41.26-.64.26-.81-.16a1,1,0,0,0-.8-.6C53.95912,15.3,54.68912,15.39,54.56912,14.84Zm-9-4.41a15.3301,15.3301,0,0,1,7.94-5.15,1.49011,1.49011,0,0,1,.52-.1,1.62086,1.62086,0,0,1,.25.07,7.84,7.84,0,0,0-.65,4.51,15.29987,15.29987,0,0,0,.86,3c.09.31.33.35-.21.3a4.20994,4.20994,0,0,1-2.58-1.59,3.45,3.45,0,0,1-.9-3.89c.07-.21.37-.45,0-.61a.66.66,0,0,0-.83.35,2.00008,2.00008,0,0,0-.25.93,4.9,4.9,0,0,0,1.42,3.85,6.86,6.86,0,0,0,1.64,1.34c.46.22.4.51,0,.82a1.8,1.8,0,0,1-2.5.15,6.31,6.31,0,0,1-2.73-2.59c-.1-.25-.3-.47-.25-.76a.42.42,0,0,0-.31325-.50465L46.95911,10.55c-.29-.08-.45.11-.61.27s-.1.36,0,.58a8.78,8.78,0,0,0,4,4,3.48,3.48,0,0,1-3.78.63c-.77-.23-1.67-.43-1.93-1.33a.40056.40056,0,0,0-.6-.18.43.43,0,0,0-.21.64,2.66,2.66,0,0,0,1.19,1.17,8.12,8.12,0,0,0,3.76.76c1.32.65.55,2.42-.66,2.72a7.52,7.52,0,0,1-2.39.19c-.57-.16-2.34-.81-2.65-1.4s0-1,0-1.56a9.47,9.47,0,0,1,2.45-6.61Zm.77,13.49c-.57-.47-.55-.8.16-1,1.62-.44,3.21-.94,4.79-1.48.55-.19.76,0,.52.49a4.35,4.35,0,0,1-2.89,2.6c-.11,0-.2.13-.42,0A4.50832,4.50832,0,0,1,46.33912,23.92Zm9.06,2a2.83,2.83,0,0,1-2.91,1.68,9.99987,9.99987,0,0,1-4.22-1.68.38.38,0,0,1-.12-.28c0-.19.17-.19.32-.19,2.07,0,3-1.44,4-2.7.19-.23.08-.66.55-.73a1.67,1.67,0,0,1,1.24.39,2.89,2.89,0,0,1,1.15,3.53Zm3.94-1.06c-.8.59-1.58,1.22-2.45,1.75-.29.18-.71.36-.86.24s-.08-.6.07-.86a2.49,2.49,0,0,0,.11-2.61,4.6501,4.6501,0,0,0-1.61-1.71c-.51-.34-1.16-.49-.29-1.26a6.25,6.25,0,0,1,1.66-.85c1.81.28,3.38.69,4.38,2.07.08.11.24.3.21.33C59.78912,22.76,60.49912,24.01,59.33912,24.86Zm2.35-4.34c-.21.47-.37.7-.9.22a8.32,8.32,0,0,0-4.22-1.98,2.78022,2.78022,0,0,0-1,0c-.29.05-.63.27-.77-.06a.82.82,0,0,1,.15-.92,3.52,3.52,0,0,1,3-1.19,1.92,1.92,0,0,1,1.43.37c.32.36,2.84,2.39,2.33,3.55Zm3.2-3.69c-.9-.46-1.67-1.13-2.56-1.54s-1.09-1.26-1.59-1.92c-1.33-1.76-1-3.59-.7-5.47a9.70992,9.70992,0,0,1,.86-2.6,1.82,1.82,0,0,1,2.33-1,25.47036,25.47036,0,0,1,3.59,1.2c-.74.72-1.44,1.45-2.2,2.13a7.29,7.29,0,0,0-2.16,4.36,3.78,3.78,0,0,0,0,2.46c.11.23.19.56.61.47s.15-.38.13-.61a7.73,7.73,0,0,1,2.66-6.78c.7-.62,1.29-1.4,2.38-1.06a7.49028,7.49028,0,0,1,1.82,1.13,9.10347,9.10347,0,0,1,1,.81c-3.97,1.6-6.19,4.28-6.15,8.41Zm1.87,2.67c-.32,0-.27-.22-.34-.39-.92-2.32-1-4.69.55-6.74a7.45,7.45,0,0,1,4-3,2.37,2.37,0,0,0,.72-.3.57.57,0,0,1,.79637.125L72.48913,9.2c.86,1.31,2.21,2.37,2.47,4a.87988.87988,0,0,0,.15.27c-.05.38-.38.4-.65.47a14.31,14.31,0,0,0-3.7,1.31,10.35,10.35,0,0,0-3.5,3.87c-.16.21-.17.38-.49.37Zm1.36,0a12.44,12.44,0,0,1,1.76-2.52,7.77,7.77,0,0,1,4.21-2c.34-.07.66-.32,1-.17a.9.9,0,0,1,1.09.58c.51,1.27,1.07,2.53,1.6,3.8.32.76.22.87-.72.87a10.86,10.86,0,0,0-7.72,2.82c-.78.72-1.26.64-1.49-.32a3.86,3.86,0,0,1,.29-3.08Zm-.27,19.77a14.58,14.58,0,0,1,6.11-1.74,7.06,7.06,0,0,1,4,.79,1.43,1.43,0,0,0,1.37.17.47888.47888,0,0,0,.18-.66c-.19-.49-.69-.5-1.15-.59-.87-.17-1.71-.42-2.59-.56a12.99992,12.99992,0,0,0-3.68.13,10.62994,10.62994,0,0,0-3.59,1.17c-.24.12-.65.48-.83.22a.84.84,0,0,1,.27-1,6.72018,6.72018,0,0,1,2.15-1.29,13.21994,13.21994,0,0,1,5.25-1.27,7.53,7.53,0,0,1,3.34,1.12,1.21,1.21,0,0,0,.76.18c.47-.06.64-.31.34-.67a1.79013,1.79013,0,0,0-.62-.47,9.85,9.85,0,0,0-7.69-.36,17.7,17.7,0,0,0-3.13,1.23,13.58987,13.58987,0,0,1,.57-2.42c.61-2,2.5-2,4-2.38a7.44,7.44,0,0,1,4.66.28c.71.28,1.3,1,2.28.56.22-.1.17.28.19.44.22,1.5.13,3,.32,4.53a11.18994,11.18994,0,0,1-.2,2.58,1.52021,1.52021,0,0,1-.27.57.31.31,0,0,1-.25,0c-.53-.69-1.38.22-2-.37-1-1-1.37-.9-2.24.14-.23.27-.47.42-.81.17-.89-.65-1.22-.65-2,.05-.13.12-.31.21-.37.35-.28.63-.58.44-1,.07s-.53-.7-1.1-.62a1.36,1.36,0,0,0-1,.5,1.08,1.08,0,0,1-1.88-.17c-.11-.41.4-.6.62-.7Zm31.21,23.76a54.26,54.26,0,0,1-1.72,6.65c0,.07-.09.19-.07.2,1.27.7.41,1.81.6,2.71a11.58924,11.58924,0,0,1,0,2.32v5.5q0,5.22-.07,10.43c0,1-.09,2.08-.16,3.12a27.67071,27.67071,0,0,1-.67,4.45,20.77954,20.77954,0,0,0-.61,3.87c-.05,1.33-.44,2.6-.6,3.91-.23,1.95-.9,3.81-1.16,5.76s.11,3.94-.39,5.86c-.45,1.75-.23,3.53-.55,5.28-.09.52-1.19,1.38-1.76,1.2-1.15-.36-1.59.14-1.86,1.11-.42-.47.08-1.09-.62-1.24-.86-.19-.59.58-.87.88a10.42909,10.42909,0,0,0-.71.92.82.82,0,0,1-.4-.79,7,7,0,0,0-1.2-3.66c-.54-1-1-1.1-2.17-.83a53.92344,53.92344,0,0,0-6.57,2.08c.15-.76.85-1.13,1.14-1.7a4.00033,4.00033,0,0,1,.85-.94c.23-.23.39-.46.07-.69a.59.59,0,0,0-.81.05,19.94044,19.94044,0,0,0-1.41,1.62,13.62045,13.62045,0,0,1-1.87,2,15.26978,15.26978,0,0,1-2.67,2.89c-2.12,1.84-4.3,4.11-6.63,5.56-2,1.23-14.22,8.86-15.38,5-.25-.84,1.22-3.2,1.52-4.09.45-1.35,1-2.66,1.55-4,1.14-2.68,1.49-5.59,2.68-8.24.63-1.4.66-3.08,1.33-4.45l.43-.64c.88-1.72,1.62-1.9,2.24-1.34a2.67,2.67,0,0,0,1-1.09c.84-1.68,1.81-3.35,1.21-5.29-.15-.5-.35-1.12-.87-1.27-1.32-.37-1.22-1.41-1.45-2.26a3.69,3.69,0,0,1-.22-1.6c0-.14.07-.34-.19-.39a.43.43,0,0,0-.46.19c-.19.28-.39.61-.23.91s.09.69.24,1a1.17,1.17,0,0,1,0,1.09h-.42c-.47-.2-.5-.61-.56-1a58.34923,58.34923,0,0,1-.83-5.81,47.72177,47.72177,0,0,1-.42-4.77,36.44042,36.44042,0,0,0-.24-4.94,15.12012,15.12012,0,0,1-.09-2.8,45.82131,45.82131,0,0,0-.32-5.92,34.70983,34.70983,0,0,1,.59-4.64c.2-2,.82-3.84.93-5.81a38.81044,38.81044,0,0,1,.82-6.14c.29-1.34.66-2.65,1-4,.5-1.72.93-3.45,1.49-5.15.92-2.74,1.6-5.55,3.14-8.2.49.78-.06,1.46,0,2.14a17.51831,17.51831,0,0,1,0,1.88.44.44,0,1,0,.87,0,34.6201,34.6201,0,0,1,.23-4.1,1.06,1.06,0,0,0-.39-1.07c-.45-.36,0-1,.14-1.52a5.35979,5.35979,0,0,1,1-1.5c.39-.51.79-.47,1.13.06s.23,1.15,1,1,.54-.77.66-1.26a1,1,0,0,1,.84-.82c.42-.07.56.29.82.51s.42,1.07,1.1.92.7-.7.9-1.16c.38-.88.59-.9,1.25-.19a.9999.9999,0,0,1,.17.19c.17.33.41.69.81.67s.68-.51.8-.87.11-.75.61-.77.42.41.55.67c.32.64.77.73,1.35.24.32-.27.68-.29.79.08.2.67.69,1.34.24,2.09-.34.55-.25,1.25-.81,1.75-.34.31.06,1.11.55,1.12a3,3,0,0,1,1.66.73,13.47,13.47,0,0,0,3.87,2,3.32005,3.32005,0,0,1,1.32.66,3.36,3.36,0,0,0,3.46.43c1.36-.39,2.78-.75,3.69-2a10.29037,10.29037,0,0,1,2.05-1.7c.36-.28,1.66.16,1.74.58a35.15122,35.15122,0,0,1,1,3.54,2.6001,2.6001,0,0,1-.15,1.61,1.08993,1.08993,0,0,0-.18.53,14.25978,14.25978,0,0,0,.67,4.28,11.2899,11.2899,0,0,1,.67,6.39Z"/><path class="cls-4" d="M51.42911,20.4a1.67,1.67,0,0,0-.91-.93c-.45-.16-.55.27-.82.39-1.5.63-3,1.46-4.8.52-.13-.07-.29-.15-.38,0a.38.38,0,0,0,0,.3c.73,1.49.89,2.65,2,3.45,1.35.72,3.62.58,4.36-.13A2.89,2.89,0,0,0,51.42911,20.4Z"/><path d="M73.98912,124.53c-1.52,1.88-3.67,3.19-5.42,4.88a18.69978,18.69978,0,0,1-4.42,2.7c-1.24.64-2.3,1.52-3.59,2.1-2,.92-3.8,2.26-6,2.82-.48.12-1.18.41-1.47-.46-.13-.39-.76-.5-1.27-.5-.27,0-.48,0-.34-.33,1.14-2.56,2.06-5.2,3.19-7.77.64-1.45.95-3,1.47-4.51s1.11-3.26,1.53-4.91c.32-1.26,1-2.38,1.26-3.65a.93.93,0,0,1,.7-.69,3.21979,3.21979,0,0,0,.94-.41c-.62-.56-1.36-.38-2.24,1.34l-.43.64c-.67,1.37-.7,3-1.33,4.45-1.2,2.65-1.55,5.56-2.68,8.24-.57,1.35-1.1,2.67-1.55,4-.3.89-1.77,3.25-1.52,4.09,1.16,3.86,13.42-3.77,15.38-5,2.32-1.45,4.5-3.72,6.63-5.56a15.27011,15.27011,0,0,0,2.67-2.89c-.32.29-.65.57-1,.83a3.09962,3.09962,0,0,0-.51.59Zm-24.65,3.76a11.84989,11.84989,0,0,0-3.17-1.41c-.27.07-.53-.08-.61.2s.23.35.42.43a8.88,8.88,0,0,1,2.71,1.46c.32.32,1.06.46,1.31.15.34-.45-.37-.62-.66-.83Zm-2.36-2.99c-.3.43.09.75.44.9a15.77087,15.77087,0,0,1,2.13,1,.70988.70988,0,0,0,.31.06c.42,0,.69,0,.75-.34s-.27-.48-.54-.55a6.00025,6.00025,0,0,1-2.15-.93C47.69911,125.27,47.33911,124.76,46.97912,125.3Zm4.17.85c.27.19.59.27.76-.1,0-.1,0-.17-.05-.2a16.46065,16.46065,0,0,0-2.84-2.19.39.39,0,0,0-.47.14.33.33,0,0,0,0,.51c.17.14.39.24.57.37.69.49,1.34,1,2.03,1.47Zm12.74,10.35a3.26992,3.26992,0,0,1-1.07-.57,2.74,2.74,0,0,0-1.25-.6c-.19,0-.46-.1-.55.16a.48.48,0,0,0,.23922.63527l.01078.00473a6.99991,6.99991,0,0,1,2.14,1.25c.17.17.68.25.83-.1s.16-.68-.35-.78Zm-.38-1.9c-.4-.21-.46.17-.5.39,0,.47,1.41,1.4,1.9,1.34s.34-.27.21-.47A3.99985,3.99985,0,0,0,63.50911,134.6Zm13.21-29.13a4.85,4.85,0,0,0-2.24,4.36,7.60983,7.60983,0,0,0,.56,3,1.45,1.45,0,0,0,1.51,1.18,3.1,3.1,0,0,0,2.12-.39,6.44,6.44,0,0,0,2.39-6.8,2.91,2.91,0,0,0-4.34-1.35Z"/><path d="M70.78911,118.81c-1.23.32-1.44,1.26-1.69,2.2-.11.43-.35.85.2,1.15s1-.13,1.33-.39a3.78005,3.78005,0,0,0,1.6-1.92,1.13,1.13,0,0,0-1.44-1.04Zm7.01-62.41c-.07-.3-.35-.35-.65-.31s-.27.34-.23.52a7.136,7.136,0,0,1,.32.91c.11.8.94,1.64-.11,2.41a.40482.40482,0,0,0,0,.46,5.34,5.34,0,0,1,.54,3.64c0,.06-.19.34.21.41s.49-.15.6-.37a2.5606,2.5606,0,0,0,.07-.48c.33-1.35-.63-2.62-.1-4.08C78.73911,58.63,78.04911,57.45,77.79912,56.4Zm-4.89,39.71c-.37-.11-.55.35-.69.63a1.55,1.55,0,0,0-.08.64,1.37,1.37,0,0,1-.39,1,3.08991,3.08991,0,0,0-.73,1.17c-.63,1.37-.76,2.91-1.73,4.16-.22.28,0,.37.28.51a2.39994,2.39994,0,0,0,.73-.76c.68-1.24.92-2.65,1.68-3.83a4.44,4.44,0,0,0,.92-2.67.12.12,0,0,1,0-.07C73.1691,96.62,73.33911,96.23,72.90912,96.11Zm-13.17,20.85a3.22,3.22,0,0,0-1.23,2.23q0,1.49,1.45.82c.66-.31,1.07-2.55.55-3.06a.51.51,0,0,0-.77.01Zm1.5-17.74a8.00033,8.00033,0,0,1-.23-1.77c.09-.92-.47-1.72-.43-2.63a.55.55,0,0,0-.67-.6.53.53,0,0,0-.36091.65692l.00091.00308c.38,1.61.8,3.21,1.13,4.82.06.29.21.5.41.47s0-.3.06-.47A2.62774,2.62774,0,0,0,61.23912,99.22Zm8.43-25.02c.42.17.38-.24.45-.43.61-1.68.41-3.46.88-5.24a.39107.39107,0,0,0-.27-.31.35435.35435,0,0,0-.42.21,2.11983,2.11983,0,0,0-.39.88c0,1.11-.33,2.2-.23,3.31a1,1,0,0,1-.19.93.42.42,0,0,0,.17.65Zm-10.09,10.99c0-.48.2-.93.21-1.43,0-1.31-.65-2.58-.2-3.91.08-.23-.15-.39-.44-.42s-.48,0-.46.33a.68.68,0,0,1-.16.57c.33.74.06,1.56.31,2.34a7.08019,7.08019,0,0,1,.19,2.49c0,.18,0,.38.23.4S59.57911,85.39,59.57911,85.19Zm-.68-9.52c0,.34.2.49.57.48s.36-.32.33-.53c-.16-1,.13-2,0-2.95a2.6,2.6,0,0,1,.31-1.32c.1-.23.47-.52.14-.71s-.63.19-.86.41a.81.81,0,0,0-.31.65c.11.92-.35,1.81-.2,2.62.02.54.02.95.02,1.35Zm14.38-15.01c0,.25-.06.55.22.6a.55.55,0,0,0,.63-.55V59.45c.28-1-.44-2.06-.38-3.21a.48.48,0,0,0-.65-.49c-.43.12-.28.48-.2.69C73.44912,57.82,73.12912,59.25,73.27912,60.66Zm-10.06,25.35a.42.42,0,0,0-.49984-.32086q-.02034.00442-.04016.01087a.31961.31961,0,0,0-.31.42c.33,1.52.28,3.08.66,4.59.07.29.09.56.5.54s.15-.43.38-.56a12.64015,12.64015,0,0,1-.58-3.8A5.57943,5.57943,0,0,0,63.21911,86.01Zm3.83-20.15c.28,0,.39-.15.49-.38a3.22978,3.22978,0,0,0,.17-1.26,26.701,26.701,0,0,1,.11-3c0-.39.12-.63-.38-.7s-.44.32-.44.59c0,1.43-.24,2.86-.14,4.3C66.85911,65.53,66.65912,65.83,67.04912,65.86Zm4.65,14.29c-.51,0-.58.27-.58.64v3.6h.11c0,.08.07.17,0,.23-.11.29-.05.68.22.71s.3-.37.37-.61a18.15014,18.15014,0,0,0,.17-4C72.03912,80.54,72.22912,80.17,71.69912,80.15Zm-5.13,2.61a.42.42,0,0,0-.56.38c-.07.61.12,1.25-.13,1.7.1,1.17.2,2.2.28,3.23,0,.24,0,.42.39.41s.37-.23.33-.45a13.90024,13.90024,0,0,1,0-4.76.40007.40007,0,0,0-.31-.51Zm11.08,18.29a.53.53,0,0,0,.66372-.34824l.00628-.02176c.05-.27.26-.41.41-.61a5.16,5.16,0,0,0,1-3.19c-.1-.41.21-.85-.38-.78-.38,0-.44.38-.44.69a4.80991,4.80991,0,0,1-.3,1.82,8.73959,8.73959,0,0,1-1,1.76C77.43912,100.61,77.26912,100.91,77.64912,101.05Zm-13.75-42.71c-.08.17-.3.3-.33.47-.23,1.07-.42,2.14-.63,3.26.2.17-.2.59.26.64s.43-.35.51-.62l.93-3.39c.05-.19.25-.43-.13-.51C64.33912,58.14,64.03912,58.05,63.89911,58.34Zm18.2,5.03c-.45.06-.28.53-.3.84a2.55981,2.55981,0,0,0,.07.56,7.22029,7.22029,0,0,1,.25,2.37.31.31,0,0,0,0,.39c.1.16-.47.46.12.53.35,0,.58-.07.64-.42,0-.15.18-.32.14-.45-.31-1,.11-2.12-.47-3.11C82.40911,63.83,82.64911,63.3,82.09911,63.37Zm-10.46,27.13a.42.42,0,0,0-.52.22,2.92078,2.92078,0,0,0-.18.58c-.2,1.2.16,2.42-.24,3.61-.07.2-.06.52.22.55a.47.47,0,0,0,.48957-.44958q.00044-.0102.00042-.02042a27.669,27.669,0,0,0,.39-3.23v-.87C71.79912,90.62,71.87912,90.57,71.63912,90.5Zm1.39-1.62c-.27,0-.32.29-.3.52.06,1.06.13,2.12.18,3v1.45c0,.15,0,.27.25.26s.23,0,.27-.16a2.07,2.07,0,0,0,.18-.53,19.79981,19.79981,0,0,0-.18-4.05C73.40912,89.16,73.33912,88.84,73.02912,88.88Zm-10.14-15.07c-.39-1.22.16-2.39.18-3.58,0-.26.21-.6-.09-.73s-.43.34-.69.49c-.07,0-.07.2-.07.3a15.86931,15.86931,0,0,1-.2,3v.73c0,.16-.13.6.39.55a.51.51,0,0,0,.48-.76Zm17.87-19.94c-.05.67.23,1.32.19,2,0,.27.14.75.57.67s.46-.41.39-.84a8.48975,8.48975,0,0,1-.26-1.94,2.63,2.63,0,0,0-.31-1.2c-.1-.22-.21-.4-.5-.39s-.19.33-.28.55A4.44989,4.44989,0,0,1,80.75912,53.87Zm-20.83,38.48a.38.38,0,0,0,.27-.18,1.53015,1.53015,0,0,0,.21-.68c-.08-1-.2-2.08-.3-3.11,0-.32,0-.73-.49-.72s-.4.45-.44,1a30.60058,30.60058,0,0,1,.55,3.42C59.75911,92.18,59.70911,92.36,59.92911,92.35Zm8.71-40.03c.2-.92.32-1.85.47-2.77-.16-.29.21-.78-.27-.84s-.7.33-.68.77a.43.43,0,0,1,0,.16c-.28.81-.06,1.68-.36,2.49-.09.25-.28.63.15.76S68.57911,52.59,68.63911,52.32Zm-5.09,27.1c.39,0,.39-.44.42-.68.18-1.2.28-2.42.45-3.62,0-.2,0-.31-.16-.37a.4.4,0,0,0-.48.11,1.01994,1.01994,0,0,0-.31.65c.09.84-.35,1.64-.2,2.37a4.81071,4.81071,0,0,0,0,.85C63.3391,78.97,63.0291,79.41,63.54911,79.42Zm23.3,14.6a.54.54,0,0,0-.42.06,1.39,1.39,0,0,0-.57,1.13,5.32,5.32,0,0,1-1.15,3.45c.72.16,1.16,0,1.3-.55.35-1.23.64-2.48.94-3.73.03-.13.06-.31-.1-.36Zm.49-27.38c-.34,0-.39.36-.43.62a1.51007,1.51007,0,0,0,.15.62c.31,1.05.91,2,.77,3.19,0,.36-.26,1,.29,1,.39,0,.31-.68.42-1-.05-1.39-.72-2.61-.91-3.92C87.60911,66.97,87.8091,66.59,87.33911,66.64Zm-11.2.9a.45.45,0,0,0,.47.42c.28,0,.25-.33.26-.55a20.11866,20.11866,0,0,0-.86-3.5c-.06-.17,0-.5-.37-.45s-.43.26-.42.53,0,.33,0,.49C75.33912,65.54,76.19912,66.43,76.13911,67.54Zm-.6,8.41c0,.28-.11.72.33.72s.6-.45.56-.79a11.35955,11.35955,0,0,0-.2-1.68c-.14-.53,0-1.09-.29-1.58-.08-.13-.05-.33-.31-.32a.41.41,0,0,0-.43.35,3.797,3.797,0,0,0,0,.49C75.25911,74.08,75.54912,75,75.53911,75.95Zm6.11,12.45c-.11,0-.26,0-.3.12s-.5.38-.19.72c-.44,1.27,0,2.62-.38,3.91,0,.12-.28.37,0,.46s.4-.12.5-.35c.64-1.48.24-3.06.56-4.57a.21.21,0,0,0-.19-.29Zm3.36-21.46c-.41,0-.29.29-.28.47a8.36477,8.36477,0,0,1,0,3.38c0,.34.12.78.52.83s.4-.39.42-.66a15.27,15.27,0,0,0-.19-3.68.4.4,0,0,0-.44963-.34327Zm-17.24,13.67a8.1999,8.1999,0,0,1,.08-3.31c0-.22.24-.42-.06-.55s-.44.13-.57.27a1.7,1.7,0,0,0-.31.9,17.00228,17.00228,0,0,0,0,2.72c0,.3-.14.77.39.75S67.81912,80.83,67.76912,80.61Zm9.17-29.15c0,.15-.12.4.15.49s.43-.16.49-.34a6.89994,6.89994,0,0,0,.45-2.43,1.72,1.72,0,0,0-.37-1.32c-.11-.18-.25-.45-.49-.38a.45.45,0,0,0-.29269.56509l.01269.0349A5.88993,5.88993,0,0,1,76.93911,51.46Zm-2.6,25.3a4.27,4.27,0,0,0-.12-3.37c-.07-.22-.35-.57-.64-.47s-.29.54-.16.79a3.45,3.45,0,0,1,.28,1.92,2.18006,2.18006,0,0,1-.07.95c-.11.22-.24.51.08.62S74.19911,76.98,74.33912,76.76Zm6.56-.19c.34,0,.42-.19.49-.46a5.69009,5.69009,0,0,0,.14-2V72.59a.51.51,0,0,0-.34-.57c-.45-.12-.38.3-.42.46-.29,1.19.13,2.4,0,3.61C80.76912,76.16,80.49912,76.53,80.89911,76.57Zm1.34,8.09a10.20016,10.20016,0,0,0,1.14-4,1.26933,1.26933,0,0,0,0-.24c0-.17.12-.44-.15-.49s-.31.23-.42.42-.1.69-.25,1c-.44.94-.31,2-.81,2.93a.39.39,0,0,0,.19.57C82.09912,84.93,82.17911,84.76,82.23911,84.66Zm-16.9,11.02c.15-.6-.08-.79-.56-.81s-.38.3-.34.51c.16.95.36,1.89.51,2.84.05.33.11.68.54.55s.38-.41.31-.8A15.99781,15.99781,0,0,0,65.33912,95.68Zm18.37-18.79c.17.06.28-.08.37-.17a2.59,2.59,0,0,0,.79-2.15,4.21984,4.21984,0,0,0-.17-1.66c-.1-.23-.2-.41-.49-.38s-.24.33-.24.51c0,1.18.23,2.38-.36,3.52a.23.23,0,0,0,.07483.31654Zm-6.44,13.08a.32.32,0,0,0,.39-.35c-.1-.58.3-1.14.12-1.68.28-.71-.26-1.35-.1-2,.07-.29,0-.69-.44-.64s-.5.38-.42.74a20.55014,20.55014,0,0,1,.27,3.53C77.08912,89.76,76.98912,89.94,77.26912,89.97Zm.83-10.3c.23,0,.29-.1.39-.25a3.87006,3.87006,0,0,0,.34-2.14c-.12-.48.17-1.08-.15-1.66-.1-.17,0-.49-.35-.43a.5.5,0,0,0-.41.48v.49c-.07,1,.44,2.08,0,3.13a.25.25,0,0,0,.18.38Zm-17.88-12.69c.47,0,.37-.29.35-.51a7.33014,7.33014,0,0,1,.51-3.29c.09-.21,0-.32-.18-.4a.39.39,0,0,0-.5,0,2.27034,2.27034,0,0,0-.36.64,10.00044,10.00044,0,0,0-.21,3C59.65912,66.93,59.92911,66.97,60.21911,66.98Zm26.54-6.01a.42.42,0,0,0,.38.55c.39.06.45-.27.49-.46a7.00173,7.00173,0,0,0,0-1.19c.18-.62-.15-1.27-.16-1.94,0-.24.07-.51-.38-.49a.46.46,0,0,0-.49.55A9.31975,9.31975,0,0,1,86.75911,60.97Zm-3.05,33.84a.44.44,0,0,0-.42.09,1.24006,1.24006,0,0,0-.36.54c-.4,1-.24,2.18-.88,3.16-.1.15-.11.46.3.44s.35-.25.47-.44c.66-1.07.58-2.33,1-3.45a.23.23,0,0,0-.11-.34Zm-10.25-42.37c.52,0,.53-.43.54-.78V49.22c0-.21.14-.51-.32-.53a.5.5,0,0,0-.56.51,12.00121,12.00121,0,0,0,0,1.46,6.3505,6.3505,0,0,0,0,1.06C73.13912,51.98,72.79912,52.47,73.45912,52.44Zm.34,13.23a3.82977,3.82977,0,0,0-.07.68,24.80653,24.80653,0,0,0,.72,3c0,.22.09.38.38.32s.22-.19.23-.41c.07-1.23-.58-2.35-.58-3.57a.23.23,0,0,0-.26-.26A.4.4,0,0,0,73.79912,65.67Zm11.54,22.85c0-.14.08-.34-.14-.42s-.37.07-.47.25a3.33017,3.33017,0,0,0-.33.91,8.24971,8.24971,0,0,1-.41,2.36c-.09.17-.44.25-.22.53a.58.58,0,0,0,.48.17c.38,0,.45-.29.49-.48C84.97911,90.76,85.15911,89.64,85.33912,88.52Zm-3.72-26.76c.09.22.16.47.45.4s.35-.31.22-.6a10.78035,10.78035,0,0,1-1-3.14c0-.3-.34-.35-.64-.32s-.27.29-.34.39a4.43024,4.43024,0,0,0,.15.53C80.81912,59.91,81.23912,60.81,81.61911,61.76Zm-11.69,27.28a11.46005,11.46005,0,0,0-.29-3.93.39.39,0,0,0-.48-.38c-.34.05-.35.27-.29.54.14.6.11,1.25.27,1.82S68.9491,88.54,69.92911,89.04Zm-.67-31.54a9.47937,9.47937,0,0,1-.11,1.46c-.08.35-.28.81.13.92s.51-.45.66-.76c.07-.14,0-.33,0-.48.21-.79-.15-1.59.07-2.37.06-.21.23-.41-.09-.52a.46.46,0,0,0-.64.38A9.75054,9.75054,0,0,0,69.25911,57.5Zm-5.92,24.1c-.06-.21,0-.52-.39-.49s-.44.31-.42.63a9.52989,9.52989,0,0,0,.63,2.46c.1.24,0,.72.51.63s.35-.54.29-.83C63.78912,83.18,63.54912,82.39,63.33912,81.6Zm23-.91a.43791.43791,0,0,0,.48-.38,24.90677,24.90677,0,0,1,.6-2.83c-.13-.27.18-.63-.32-.7s-.52.27-.62.54c-.37.94-.05,1.93-.29,2.88C86.15912,80.41,85.99911,80.63,86.33912,80.69Zm-15.93-29.11a.56.56,0,0,0,.64.2.29.29,0,0,0,.19-.46,5.68009,5.68009,0,0,1-.34-2.71.41.41,0,0,0-.36-.41c-.35-.08-.39.21-.48.38a1.65989,1.65989,0,0,0-.09.57,10.8201,10.8201,0,0,1,.21,1.92C70.16912,51.23,70.33912,51.41,70.40912,51.58Zm19.37,28.76a19.09,19.09,0,0,1,.38-4.29,1.38,1.38,0,0,0-.94,1.33c0,1-.11,2-.18,3,0,.21,0,.44.27.44a.42005.42005,0,0,0,.47-.48Zm-21.52,18.81c-.23,0-.29.12-.39.25a1.23,1.23,0,0,0-.32.64,18.24141,18.24141,0,0,1-.42,2.44c-.08.3-.1.48.22.56a.42.42,0,0,0,.57-.37l.57-3.12C68.38912,99.47,68.60912,99.21,68.25911,99.15Zm6.63.19a.88.88,0,0,0,.52-.47c.27-.81.54-1.62.74-2.45.07-.28.18-.76-.32-.8s-.5.33-.6.68c-.24.89,0,1.88-.75,2.68C74.26911,99.23,74.57911,99.31,74.88911,99.34Zm-9-31.26a8.99972,8.99972,0,0,1-.22,2.51c0,.4-.07.75.32.8s.35-.34.48-.56a1.00006,1.00006,0,0,0,.12-.46,7.64965,7.64965,0,0,1,.18-2.32.38.38,0,0,0-.39-.52c-.4-.02-.47.3-.49.55Zm21.67,18.35c0-.22.32-.58-.21-.62s-.55.3-.6.63a5.67987,5.67987,0,0,1-.43,2.4c-.13.21-.18.56.44.55a.7.7,0,0,0,.59-.79A15.349,15.349,0,0,0,87.55911,86.43Zm-24.64-30.38a1,1,0,0,0,.59-.46c.31-.82.57-1.66.82-2.38-.07-.3.07-.54-.21-.61a.45.45,0,0,0-.55.31c0,.07-.09.14-.13.21-.46.85-.25,1.88-.94,2.67C62.33911,55.93,62.55911,56.19,62.91912,56.05Zm.08,11.91c.61,0,.53-.43.49-.76a8.10935,8.10935,0,0,1,.25-1.91c0-.21.35-.46-.1-.57a.54.54,0,0,0-.68375.34011l-.00625.01989a4.38978,4.38978,0,0,0-.36,1.68v.39C62.60911,67.5,62.47912,67.93,62.99912,67.96Zm12.51,18.01c-.43,0-.46.59-.53.91-.16.73.09,1.52-.3,2.23-.17.3-.18.57.16.67s.56-.33.56-.5c0-.82.5-1.55.46-2.45C75.71912,86.59,76.10912,86,75.50912,85.97Zm-.67-1.92c.31-.06.33-.37.28-.62a11.75043,11.75043,0,0,1-.4-2.54.48.48,0,0,0-.28-.36c-.2-.07-.31.12-.39.27a.83.83,0,0,0-.17.67c.12.64.21,1.36.4,2.06.06.23.16.61.56.52Zm-4.56-16.75c.53,0,.54-.53.55-1a4.44979,4.44979,0,0,1,.13-1.6.6.6,0,0,0-.45-.81c-.56-.11-.6.53-.54.63.35.64-.13,1.21-.06,1.89C69.99913,66.7,69.66913,67.29,70.27913,67.3Zm.18,11.27c.46,0,.6-.48.56-.79a3.82016,3.82016,0,0,1,.11-1.82.41.41,0,0,0-.28-.54c-.3-.11-.39.12-.53.3a2.31993,2.31993,0,0,0-.27,1.49,4.209,4.209,0,0,1,0,.57C69.98913,78.14,70.09913,78.56,70.45913,78.57Zm-2.62,11.6c-.32-.09-.41.22-.44.48a7.00041,7.00041,0,0,0-.17,1.62v.9c0,.3.28.32.51.3s.46-.14.38-.43a5.33012,5.33012,0,0,1,.11-2.19.52006.52006,0,0,0-.39-.68Zm8.78,1.84a.54.54,0,0,0-.58886.48625l-.00113.01375a8.8392,8.8392,0,0,0,0,1.14v.9c0,.3-.14.52.32.53s.57-.19.59-.55a10.06027,10.06027,0,0,1,.08-1.94.48.48,0,0,0-.36349-.5733Zm2.26-11.17a.48.48,0,0,0-.59.47,11.8975,11.8975,0,0,0,0,1.47v1.23c0,.41,0,.59.45.58s.27-.36.28-.56V81.39C78.97912,81.2,79.44912,80.94,78.87912,80.84Zm11.3,4.18a.33.33,0,0,0-.41.33,19.70918,19.70918,0,0,1-.57,3c0,.19,0,.42.22.48a.41.41,0,0,0,.45-.31c0-1,.63-1.78.63-2.54C90.46912,85.5,90.58912,85.15,90.17913,85.02Zm-25.66,5.92c-.15.5.13.92.2,1.36a.40142.40142,0,0,0,.52.42c.38-.11.44-.35.25-.64a1.62,1.62,0,0,1-.15-1.13c0-.45.32-.84.27-1.28,0-.13,0-.29-.15-.34s-.33-.05-.38.11C64.92911,89.96,64.19912,90.31,64.51912,90.94Zm4.16,3.91c0-.21.17-.53-.23-.6s-.48.28-.6.51a1.79966,1.79966,0,0,0-.1.6c.07.49.14.94.19,1.39,0,.28-.09.74.35.7a.7.7,0,0,0,.5-.82A9.46969,9.46969,0,0,1,68.67913,94.85Zm16.36-11.86a5.68,5.68,0,0,1-.27,2c.32.24,0,.88.51.87s.45-.53.45-.91V83.08c0-.21.34-.46-.08-.58S85.08913,82.76,85.03913,82.99Zm-20.04,17.88c0-.25,0-.55-.35-.55a.56.56,0,0,0-.56.54v.81a3.43019,3.43019,0,0,0,0,.89.67.67,0,0,0,.81.49c.46-.08.31-.48.22-.66A3.80987,3.80987,0,0,1,64.99913,100.87Zm6.34-55.11c.46,0,.26-.35.29-.56.07-.61-.58-1-.55-1.64,0-.24-.08-.58-.47-.56s-.42.37-.43.67c0,.59.54,1.06.55,1.66C70.74911,45.64,71.00911,45.76,71.33912,45.76Zm7,24.48a13.66032,13.66032,0,0,0,.17,2.86.29594.29594,0,0,0,.26.3c.13,0,.26-.17.29-.35a3.37008,3.37008,0,0,0,.07-1.4,8.06264,8.06264,0,0,0-.07-1.4.35.35,0,0,0-.4-.35A.36.36,0,0,0,78.33912,70.24Zm-7-9.26a.7.7,0,0,0,0,.52,6.83993,6.83993,0,0,0,.38,2,.41.41,0,0,0,.49.28.21.21,0,0,0,.2-.29,14.36,14.36,0,0,1-.33-2.48c0-.24-.12-.33-.38-.33S71.43911,60.76,71.33912,60.98Zm-4.18,14.52c.71-.08.12-.72.35-1-.09-.47.08-.93-.17-1.37-.1-.17-.09-.37-.39-.32a.4.4,0,0,0-.37.4,4.126,4.126,0,0,0,0,1.36C66.72912,74.93,66.41911,75.58,67.15912,75.5Zm2.3-28.84c-.28-.86-1.09-1.41-.95-2.31.06-.42-.31-.28-.55-.16-.66.35-.24.88-.1,1.22C68.10912,46,68.33912,46.81,69.45912,46.66Zm15.88,12.73c0-.18-.06-.32-.3-.31s-.39,0-.41.21a6.11992,6.11992,0,0,0,.7,3.19A9.70974,9.70974,0,0,0,85.33912,59.39Zm2.82,31.57c-.55,0-.43.46-.45.79a3,3,0,0,1-.48,2.19,1,1,0,0,0,.93-.44,2.68,2.68,0,0,0,.28-1.74C88.43911,91.49,88.62912,91,88.15912,90.96Zm-21.94-35.72a.68.68,0,0,0-.39-.29c-.11,0-.23.14-.25.29-.13.79-.27,1.57-.42,2.48A2.13,2.13,0,0,0,66.21911,55.24Zm10.19-11.71c0-.21.16-.52-.3-.56s-.57.29-.59.56v2A1.66,1.66,0,0,0,76.40912,43.53Zm3.19,26.13a.33.33,0,0,0,.41.33.4.4,0,0,0,.33-.53q-.18-.78-.34-1.55c-.06-.28-.07-.67-.48-.64s-.31.41-.24.76C79.02913,68.57,79.58912,69.07,79.59912,69.66Zm-4.34-14.62c0,.33,0,.71.49.68s.42-.38.42-.67v-.32c0-.44.06-1-.51-1.05s-.28.62-.41.9S75.25911,54.91,75.25911,55.04Zm-4.05-2.08c-.6,0-.21.51-.32.77a.63.63,0,0,0,0,.24v.65c0,.22,0,.66.49.59s.44-.39.42-.7-.17-.5-.19-.77S71.90911,52.93,71.20911,52.96Z"/><path class="cls-2" d="M38.75911,20.1h14.58a3.18,3.18,0,0,0,1-2.2,2.48008,2.48008,0,0,0-1-1.8h-14.17"/><path d="M2.18457,151.77355h3.085v12.10938h7.37158v2.65429H2.18457Z"/><path d="M18.80859,159.8966a4.53315,4.53315,0,0,0,1.14014-.25.85938.85938,0,0,0,.61523-.81152.95961.95961,0,0,0-.47167-.92676,2.991,2.991,0,0,0-1.38624-.25488,1.82175,1.82175,0,0,0-1.45166.5,2.068,2.068,0,0,0-.40625,1.002H14.09375a4.178,4.178,0,0,1,.80469-2.35352q1.13671-1.44287,3.90332-1.44238a6.96494,6.96494,0,0,1,3.19873.71094,2.72851,2.72851,0,0,1,1.39844,2.68457v5.00781q0,.52149.02,1.26172a1.593,1.593,0,0,0,.16992.76172,1.02378,1.02378,0,0,0,.4209.33008v.42089h-3.105a3.17112,3.17112,0,0,1-.18018-.62109q-.05053-.29-.08008-.66113a5.90749,5.90749,0,0,1-1.37012,1.0918,4.14653,4.14653,0,0,1-2.0957.53125,3.61577,3.61577,0,0,1-2.46338-.84668,3.00979,3.00979,0,0,1-.97217-2.39844,3.1082,3.1082,0,0,1,1.564-2.915,6.99161,6.99161,0,0,1,2.52246-.70117Zm1.74561,1.332a3.2112,3.2112,0,0,1-.55371.27539,4.59583,4.59583,0,0,1-.7666.19531l-.64942.12012a4.28817,4.28817,0,0,0-1.312.39063,1.30481,1.30481,0,0,0-.6748,1.21191,1.26674,1.26674,0,0,0,.41211,1.05664,1.56128,1.56128,0,0,0,1.002.32617,2.98483,2.98483,0,0,0,1.72363-.541,2.292,2.292,0,0,0,.81885-1.97364Z"/><path d="M35.21484,156.93176a6.2773,6.2773,0,0,1,1.22461,4.00683,7.01986,7.01986,0,0,1-1.208,4.2168,3.92326,3.92326,0,0,1-3.37256,1.67187,3.93209,3.93209,0,0,1-2.18457-.54,4.35659,4.35659,0,0,1-1.06739-1.12207v1.37207H25.79248V151.79406H28.647v5.24805A4.17952,4.17952,0,0,1,29.84668,155.88a3.5803,3.5803,0,0,1,1.97559-.501A4.08127,4.08127,0,0,1,35.21484,156.93176Zm-2.38623,6.65039a4.04294,4.04294,0,0,0,.61621-2.34375,5.24063,5.24063,0,0,0-.30322-1.92285,2.11024,2.11024,0,0,0-2.1206-1.44239,2.14112,2.14112,0,0,0-2.15088,1.41211,5.25775,5.25775,0,0,0-.30323,1.94336,4.0432,4.0432,0,0,0,.62647,2.32422,2.14834,2.14834,0,0,0,1.9082.9209A1.9795,1.9795,0,0,0,32.82861,163.58215Z"/><path d="M45.53662,155.84094a4.43968,4.43968,0,0,1,1.88672,1.61523A5.36113,5.36113,0,0,1,48.293,159.713a13.90212,13.90212,0,0,1,.09424,2.167H40.43555a2.621,2.621,0,0,0,1.1416,2.30371,2.90394,2.90394,0,0,0,1.57422.41016,2.21743,2.21743,0,0,0,2.17236-1.252h2.91455a3.56577,3.56577,0,0,1-1.05859,1.97364,5.304,5.304,0,0,1-4.10694,1.59179,5.9511,5.9511,0,0,1-3.8457-1.34277,5.292,5.292,0,0,1-1.666-4.3711,5.914,5.914,0,0,1,1.5039-4.35058,5.26481,5.26481,0,0,1,3.9043-1.51367A6.21875,6.21875,0,0,1,45.53662,155.84094Zm-4.27051,2.46582a2.968,2.968,0,0,0-.76025,1.69043h4.918a2.38462,2.38462,0,0,0-.76074-1.72559,2.50068,2.50068,0,0,0-1.69288-.58887A2.26327,2.26327,0,0,0,41.26611,158.30676Z"/><path d="M52.74512,166.53722h-2.8545V151.77355h2.8545Z"/><path d="M63.68262,161.97961a2.99883,2.99883,0,0,0,.5625,1.51269,3.27814,3.27814,0,0,0,2.6289.91114,5.67045,5.67045,0,0,0,1.81055-.24024,1.71775,1.71775,0,0,0,1.31836-1.71289,1.26116,1.26116,0,0,0-.64648-1.13184,7.00848,7.00848,0,0,0-2.04883-.69042l-1.59961-.35059a9.96694,9.96694,0,0,1-3.23682-1.13184,3.60039,3.60039,0,0,1-1.49267-3.19531,4.242,4.242,0,0,1,1.46-3.29492,6.22171,6.22171,0,0,1,4.28906-1.3125,6.57971,6.57971,0,0,1,4.03125,1.2373,4.39963,4.39963,0,0,1,1.748,3.59082H69.542a2.11207,2.11207,0,0,0-1.1914-1.89355,4.07748,4.07748,0,0,0-1.83789-.37012,3.50189,3.50189,0,0,0-1.95118.48047,1.5194,1.5194,0,0,0-.72851,1.3418,1.26779,1.26779,0,0,0,.71875,1.18261,9.00591,9.00591,0,0,0,1.96094.61036l2.59179.61132a6.58425,6.58425,0,0,1,2.55274,1.07129,3.612,3.612,0,0,1,1.32031,3.01465,4.2369,4.2369,0,0,1-1.56445,3.36133,6.604,6.604,0,0,1-4.418,1.33691,7.22528,7.22528,0,0,1-4.58643-1.31738,4.35768,4.35768,0,0,1-1.67041-3.62109Z"/><path d="M73.78906,157.75305v-2.03321h1.52246v-3.04492h2.8252v3.04492h1.77246v2.03321H78.13672v5.76953a1.30064,1.30064,0,0,0,.16992.83593,1.87444,1.87444,0,0,0,1.042.165c.08594,0,.17871-.001.27539-.00488.09668-.00293.19141-.00781.28516-.01465v2.13379l-1.35254.04981a3.62838,3.62838,0,0,1-2.76367-.70118,2.08394,2.08394,0,0,1-.48145-1.51269v-6.7207Z"/><path d="M84.58691,155.62023v6.58008a3.47208,3.47208,0,0,0,.21875,1.40234,1.51781,1.51781,0,0,0,1.52539.83106,1.99156,1.99156,0,0,0,1.99317-1.18164,4.30536,4.30536,0,0,0,.2793-1.69238v-5.93946h2.89453v10.917H88.72363v-1.542c-.02636.03321-.09375.13282-.20019.29981a1.9812,1.9812,0,0,1-.37891.44043,3.96868,3.96868,0,0,1-1.29394.82226,4.40437,4.40437,0,0,1-1.46289.21973,3.25979,3.25979,0,0,1-3.25586-1.74219,6.67923,6.67923,0,0,1-.46973-2.835v-6.58008Z"/><path d="M100.06055,155.795a3.45449,3.45449,0,0,1,1.25195,1.207v-5.208H104.207v14.74316h-2.77441v-1.51269a4.01336,4.01336,0,0,1-1.3916,1.41211,3.91021,3.91021,0,0,1-1.94336.44141,4.05449,4.05449,0,0,1-3.21973-1.54786,5.93886,5.93886,0,0,1-1.30762-3.97168,6.83241,6.83241,0,0,1,1.28711-4.39648,4.18777,4.18777,0,0,1,3.44043-1.60254A3.52363,3.52363,0,0,1,100.06055,155.795Zm.70117,7.77734a3.9804,3.9804,0,0,0,.63086-2.334,3.58091,3.58091,0,0,0-1.01074-2.86426,2.18306,2.18306,0,0,0-1.44239-.52051,2.00469,2.00469,0,0,0-1.83789.94629,5.10392,5.10392,0,0,0,.00977,4.76758,2.0157,2.0157,0,0,0,1.80762.90625A2.10872,2.10872,0,0,0,100.76172,163.57238Z"/><path d="M109.73633,154.3175H106.8418v-2.63379h2.89453Zm-2.89453,1.30273h2.89453v10.917H106.8418Z"/><path d="M121.60547,165.20129a6.01494,6.01494,0,0,1-8.39356,0,6.77515,6.77515,0,0,1,0-8.20117,5.9543,5.9543,0,0,1,8.39356,0,6.77133,6.77133,0,0,1,0,8.20117Zm-2.2832-1.57715a5.09773,5.09773,0,0,0,0-5.05567,2.5364,2.5364,0,0,0-3.85157,0,5.06572,5.06572,0,0,0,0,5.05567,2.52915,2.52915,0,0,0,3.85157,0Z"/></svg>