<svg id="content" xmlns="http://www.w3.org/2000/svg" viewBox="0 0 889 394.48984"><defs><style>.cls-1{fill:#77787b;}.cls-2{fill:#f26522;}.cls-3{fill:#8dc63f;}.cls-4{fill:#00aeef;}.cls-5{fill:#ffc20e;}</style></defs><title>lightgbm-01</title><path d="M180.12861,280.11118H197.249v67.20376h40.9115v14.73028H180.12861Z"/><path d="M264.67531,294.23018H248.611V279.61093h16.06438ZM248.611,301.45631h16.06438v60.58894H248.611Z"/><path d="M309.99072,301.40075a19.02769,19.02769,0,0,1,9.32554,8.7823v-8.72677H334.7698v57.47611q0,11.72786-3.94713,17.67655-6.78186,10.22653-26.01415,10.22787-11.61841,0-18.95464-4.55841-7.3381-4.55841-8.11549-13.61836H294.9698a7.13369,7.13369,0,0,0,2.16837,4.00222q2.5553,2.1677,8.61526,2.16792,8.55927,0,11.45088-5.72545,1.88893-3.669,1.88983-12.34026v-3.89116a19.326,19.326,0,0,1-4.89115,5.837q-4.725,3.61394-12.28474,3.61305-11.67345,0-18.64925-8.19929-6.97667-8.1986-6.97622-22.20674,0-13.50735,6.71738-22.707,6.71738-9.19883,19.04152-9.19922A20.83324,20.83324,0,0,1,309.99072,301.40075Zm5.3945,43.44038q3.8208-4.19636,3.81992-13.36848,0-8.615-3.62559-13.11814a11.831,11.831,0,0,0-9.71422-4.50243q-8.304,0-11.458,7.83739a27.8858,27.8858,0,0,0-1.66051,10.28343,23.54257,23.54257,0,0,0,1.7707,9.39447q3.20956,7.67058,11.51448,7.6708a12.1619,12.1619,0,0,0,9.35327-4.197Z"/><path d="M393.09994,301.79126a17.79912,17.79912,0,0,1,7.49927,5.95294,15.877,15.877,0,0,1,3.04342,6.98338,86.35746,86.35746,0,0,1,.55441,11.71018v35.60746h-16.1755V325.14981a16.34122,16.34122,0,0,0-1.656-7.90187q-2.15225-4.22927-8.16564-4.22971-6.23508,0-9.46344,4.20194-3.22837,4.20173-3.22793,11.99186v32.83319H349.66623V280.3888h15.84228v28.90487a19.37552,19.37552,0,0,1,7.94173-7.36493,22.36858,22.36858,0,0,1,9.493-2.08463A25.65566,25.65566,0,0,1,393.09994,301.79126Z"/><path d="M412.86777,313.29591V302.01206h8.44957V285.11381h15.67477V302.012h9.83871v11.28387h-9.83871v32.0177q0,3.72479.94491,4.64168.94581.91692,5.78142.91714.72144,0,1.52887-.02776.80475-.02751,1.58351-.0833V362.601l-7.50375.2781q-11.22877.38826-15.34159-3.89115-2.66814-2.72256-2.66814-8.39359V313.29585Z"/><path d="M513.36867,305.68065a16.046,16.046,0,0,0-9.50554-11.72854,23.34613,23.34613,0,0,0-9.39447-1.83429,20.41506,20.41506,0,0,0-16.25874,7.46255q-6.36538,7.46233-6.36449,22.44007,0,15.09192,6.89293,21.35991a22.65372,22.65372,0,0,0,15.67477,6.2691q8.6157,0,14.119-4.94354a21.33388,21.33388,0,0,0,6.78186-12.95513H496.35938V318.07641H530.489v43.96881H519.14919L517.426,351.81729a39.22315,39.22315,0,0,1-8.8938,8.19027q-6.78187,4.14932-16.67611,4.15-16.287,0-26.68142-11.27713-10.83915-11.33154-10.83916-30.9971,0-19.886,10.95112-31.88559,10.94932-11.99925,28.95995-11.999,15.61923,0,25.097,7.92112a29.4572,29.4572,0,0,1,10.86781,19.76076Z"/><path d="M607.93946,288.838a20.84859,20.84859,0,0,1,3.76083,12.5073q0,7.504-3.79487,12.06217a19.58028,19.58028,0,0,1-6.249,4.669,18.25421,18.25421,0,0,1,9.46434,7.22611,21.68089,21.68089,0,0,1,3.19209,12.00663,23.96308,23.96308,0,0,1-3.648,13.06306,22.56427,22.56427,0,0,1-15.06035,10.56148,56.72,56.72,0,0,1-11.57807,1.1115H547.1087v-81.934h39.59579Q601.691,280.3342,607.93946,288.838Zm-44.48873,5.50332v18.06526h19.91388a16.45842,16.45842,0,0,0,8.66452-2.02865q3.3278-2.02865,3.32824-7.19834,0-5.72454-4.40033-7.55973a30.85765,30.85765,0,0,0-9.68287-1.27851Zm0,31.62854v21.84535h19.89239a19.33774,19.33774,0,0,0,8.2973-1.44513q5.38464-2.66814,5.38465-10.22788,0-6.39157-5.21985-8.78274a20.70557,20.70557,0,0,0-8.188-1.3896Z"/><path d="M683.39529,280.11118h24.63485v81.93407H692.07772V306.62556q0-2.38938.05553-6.69812.05375-4.30652.05553-6.64259l-15.527,68.7604H660.02241l-15.41593-68.7604q0,2.335.05553,6.64259.05508,4.30852.05553,6.69812v55.41969H628.76422V280.11118h24.9134L668.592,344.53574Z"/><path class="cls-1" d="M370.98705,47.37786V158.28265H351.72722V71.35054H351.417l-34.41751,86.93211H304.23905L268.97237,71.35054h-.23189v86.93211h-17.7868V47.37784h27.61108l31.86673,82.21266h.46377l33.64345-82.21266Zm16.10483,8.42965a10.18666,10.18666,0,0,1,3.364-7.77316,11.34952,11.34952,0,0,1,8.005-3.13213,11.18756,11.18756,0,0,1,8.19776,3.21052,10.43991,10.43991,0,0,1,3.24972,7.69806,10.0438,10.0438,0,0,1-3.32482,7.65559,11.48008,11.48008,0,0,1-8.12263,3.09294,11.25072,11.25072,0,0,1-8.08017-3.13213A10.12261,10.12261,0,0,1,387.09188,55.80751Zm20.64788,22.97v79.50511H389.02535V78.77751ZM464.51,144.66981a25.85369,25.85369,0,0,0,9.20366-1.93348,38.701,38.701,0,0,0,9.28207-5.10483V155.033a37.46631,37.46631,0,0,1-10.17044,3.867,55.31171,55.31171,0,0,1-12.48934,1.31621q-17.5582,0-28.53865-11.098-10.9837-11.09636-10.98368-28.34594,0-19.17979,11.21557-31.59562,11.21394-12.4142,31.78505-12.41095a43.30159,43.30159,0,0,1,10.6342,1.35541,35.47489,35.47489,0,0,1,8.54395,3.13213V99.19684a38.29553,38.29553,0,0,0-8.85422-4.91211,25.56034,25.56034,0,0,0-9.24289-1.74079q-11.062,0-17.86523,7.19183-6.80969,7.19182-6.80642,19.41332,0,12.06639,6.53537,18.79279,6.53533,6.73127,17.7509,6.728Zm71.77117-67.20522a23.70572,23.70572,0,0,1,4.02374.31027,16.919,16.919,0,0,1,3.0178.77405V97.4952a16.26281,16.26281,0,0,0-4.29155-2.0478,21.29055,21.29055,0,0,0-6.84559-.96674,14.52813,14.52813,0,0,0-11.64014,5.80048q-4.75695,5.80049-4.75533,17.86523v40.13957H497.07245V78.7808h18.71767V91.30931h.31028a21.93007,21.93007,0,0,1,7.734-10.17043,20.93927,20.93927,0,0,1,12.44688-3.67429Zm8.05077,42.22659q0-19.72361,11.1372-31.24618,11.13552-11.52256,30.93589-11.52584,18.64088,0,29.12,11.098,10.47911,11.10126,10.48071,29.96916,0,19.33656-11.1372,30.78238-11.13552,11.44913-30.31863,11.44419-18.489,0-29.34858-10.86609Q544.33036,138.49048,544.332,119.69118Zm19.49171-.62056q0,12.45344,5.647,19.02466,5.64368,6.5745,16.16363,6.57453,10.20963,0,15.54632-6.57453,5.3351-6.57452,5.33671-19.49172,0-12.83553-5.52937-19.37413-5.531-6.53533-15.50715-6.53533-10.288,0-15.97092,6.84561-5.68777,6.84889-5.68616,19.53091Zm90.02178-19.41006a8.0208,8.0208,0,0,0,2.55079,6.30346q2.5524,2.278,11.2907,5.76128,11.21394,4.48753,15.739,10.09207a20.92492,20.92492,0,0,1,4.52344,13.57367,21.82834,21.82834,0,0,1-8.62234,18.022q-8.6223,6.80969-23.31949,6.80642a56.14526,56.14526,0,0,1-10.94449-1.19865,48.71521,48.71521,0,0,1-10.17043-3.05373V137.55969a46.11019,46.11019,0,0,0,10.9837,5.6437,32.14735,32.14735,0,0,0,10.67343,2.09026q6.3394,0,9.36045-1.78,3.0178-1.77838,3.01457-5.954a8.26378,8.26378,0,0,0-3.13213-6.53536q-3.13053-2.67-11.872-6.14993-10.36152-4.33078-14.69387-9.7426-4.33078-5.41347-4.33078-13.76633a21.75122,21.75122,0,0,1,8.54723-17.67253q8.544-6.92238,22.16007-6.92075a53.71332,53.71332,0,0,1,9.35721.92755A41.54827,41.54827,0,0,1,683.622,80.097V97.88384a40.06922,40.06922,0,0,0-8.66151-4.25565,28.91412,28.91412,0,0,0-9.821-1.78q-5.3351,0-8.31535,2.087a6.62744,6.62744,0,0,0-2.97863,5.72535Zm42.1482,20.03062q0-19.72361,11.1372-31.24618,11.13552-11.52256,30.93589-11.52584,18.64088,0,29.12,11.098,10.47912,11.10126,10.48071,29.96916,0,19.33656-11.1372,30.78238-11.13552,11.44913-30.31863,11.44419-18.489,0-29.34858-10.86609Q695.99205,138.49048,695.99365,119.69118Zm19.49171-.62056q0,12.45344,5.647,19.02466,5.64368,6.5745,16.16363,6.57453,10.20963,0,15.54632-6.57453,5.3351-6.57452,5.33671-19.49172,0-12.83553-5.52937-19.37413-5.531-6.53533-15.50715-6.53533-10.288,0-15.97092,6.84561-5.69271,6.84889-5.68616,19.53091ZM839.75807,94.092H811.88243v64.194H792.93617V94.092H779.63361V78.7808h13.30256V67.722q0-12.53177,8.15856-20.53358,8.15689-8.00506,20.919-8.005a46.43887,46.43887,0,0,1,6.03237.34947,24.121,24.121,0,0,1,4.64106,1.04187V56.73832a19.74665,19.74665,0,0,0-3.24969-1.31622,16.8529,16.8529,0,0,0-5.33671-.774q-5.87886,0-9.05018,3.67429-3.16971,3.67428-3.1713,10.86611V78.7808h27.87564V60.91231l18.79276-5.72209V78.7808h18.94955V94.092H858.54764v37.20016q0,7.34858,2.66831,10.36314,2.67,3.0178,8.39045,3.01781a12.52453,12.52453,0,0,0,3.90623-.77405,18.54343,18.54343,0,0,0,3.98456-1.85509v15.46793a22.032,22.032,0,0,1-5.91809,1.85508,40.35533,40.35533,0,0,1-8.15852.84916q-11.836,0-17.74761-6.30019-5.9181-6.3051-5.918-18.98872V94.092Z"/><path class="cls-2" d="M10.66156,10.41286H98.50814v87.8466H10.66156Z"/><path class="cls-3" d="M107.65305,10.41286h87.84658v87.8466H107.65305Z"/><path class="cls-4" d="M10.66156,107.4011H98.50814v87.84658H10.66156Z"/><path class="cls-5" d="M107.65305,107.4011h87.84658v87.84658H107.65305Z"/></svg>