<?xml version="1.0" encoding="UTF-8" standalone="no"?>
<!-- Created with Inkscape (http://www.inkscape.org/) -->

<svg
   xmlns:dc="http://purl.org/dc/elements/1.1/"
   xmlns:cc="http://creativecommons.org/ns#"
   xmlns:rdf="http://www.w3.org/1999/02/22-rdf-syntax-ns#"
   xmlns:svg="http://www.w3.org/2000/svg"
   xmlns="http://www.w3.org/2000/svg"
   xmlns:sodipodi="http://sodipodi.sourceforge.net/DTD/sodipodi-0.dtd"
   xmlns:inkscape="http://www.inkscape.org/namespaces/inkscape"
   width="314.27948mm"
   height="48.495872mm"
   viewBox="0 0 314.27948 48.495872"
   version="1.1"
   id="svg28072"
   inkscape:version="0.92.3 (2405546, 2018-03-11)"
   sodipodi:docname="lucene.svg">
  <defs
     id="defs28066" />
  <sodipodi:namedview
     id="base"
     pagecolor="#ffffff"
     bordercolor="#666666"
     borderopacity="1.0"
     inkscape:pageopacity="0.0"
     inkscape:pageshadow="2"
     inkscape:zoom="0.98994949"
     inkscape:cx="448.62371"
     inkscape:cy="-19.173197"
     inkscape:document-units="mm"
     inkscape:current-layer="layer1"
     showgrid="false"
     fit-margin-top="0"
     fit-margin-left="0"
     fit-margin-right="0"
     fit-margin-bottom="0"
     inkscape:window-width="3726"
     inkscape:window-height="2049"
     inkscape:window-x="114"
     inkscape:window-y="55"
     inkscape:window-maximized="1" />
  <metadata
     id="metadata28069">
    <rdf:RDF>
      <cc:Work
         rdf:about="">
        <dc:format>image/svg+xml</dc:format>
        <dc:type
           rdf:resource="http://purl.org/dc/dcmitype/StillImage" />
        <dc:title></dc:title>
      </cc:Work>
    </rdf:RDF>
  </metadata>
  <g
     inkscape:label="Layer 1"
     inkscape:groupmode="layer"
     id="layer1"
     transform="translate(238.51681,-95.264553)">
    <g
       id="g28660"
       transform="translate(43.698568,-62.140165)">
      <path
         style="fill:#000000;fill-opacity:1;stroke-width:0.26458332"
         d="m -240.00015,205.48709 c -2.41168,-0.58431 -4.28759,-1.60388 -5.56491,-3.02458 -2.31522,-2.57508 -2.30245,-4.58786 0.071,-11.19682 0.87882,-2.44707 1.59787,-4.5902 1.5979,-4.7625 4e-5,-0.23743 -3.44303,-0.31328 -14.22135,-0.31328 -15.43686,0 -17.12325,-0.11976 -19.43954,-1.38044 -2.62917,-1.43097 -4.79757,-4.64654 -4.65134,-6.89757 0.0648,-0.99688 0.20689,-1.30086 0.75024,-1.60455 0.62618,-0.34998 0.85799,-0.28185 3.51787,1.03377 3.38488,1.67423 4.11189,1.7707 10.00844,1.32797 7.12485,-0.53495 19.26049,-1.63218 20.4105,-1.84539 0.65359,-0.12117 -3.52151,-0.26702 -10.1332,-0.35398 -6.5203,-0.0858 -11.77928,-0.26822 -12.51693,-0.43426 -1.87372,-0.42177 -2.9728,-1.01902 -4.58244,-2.49014 -2.43465,-2.22513 -3.52984,-4.7773 -2.63565,-6.142 0.62912,-0.96017 1.36523,-0.8241 3.53309,0.65309 2.30415,1.57006 3.2364,1.8583 6.01547,1.85987 4.07444,0.002 22.69235,-1.60409 24.35763,-2.10163 0.48167,-0.14391 -3.15072,-0.24415 -9.54096,-0.26329 -11.04117,-0.0331 -13.52095,-0.20942 -15.23385,-1.08327 -3.73536,-1.90564 -6.7541,-8.07723 -4.3882,-8.97134 0.73168,-0.27652 1.2853,0.0171 3.03885,1.61187 2.17003,1.9735 3.28393,2.20657 8.7424,1.82922 4.87681,-0.33714 15.50076,-1.3905 27.85008,-2.76132 9.93838,-1.1032 10.7624,-1.0188 11.90416,1.21924 0.44609,0.8744 0.5334,1.4048 0.42324,2.57084 -0.18739,1.98332 -0.63095,3.18631 -3.36833,9.13524 -5.53457,12.02785 -7.9334,18.91472 -7.92807,22.76098 0.002,1.76222 0.1079,2.02054 1.02153,2.50211 1.71453,0.90372 4.5495,1.12216 16.17048,1.246 6.33016,0.0675 12.15672,0.0251 12.94791,-0.0942 l 1.43853,-0.21683 0.0543,-1.05749 c 0.0792,-1.54158 3.93779,-11.54436 6.09653,-15.80442 0.95773,-1.89 1.51354,-2.05331 6.98824,-2.05331 2.61241,0 4.74005,0.11572 5.03558,0.27389 0.94303,0.5047 0.62429,1.8577 -1.75846,7.46439 -1.24863,2.93807 -2.56916,6.2324 -2.9345,7.32075 -0.62409,1.85911 -0.63941,2.03094 -0.25329,2.84064 0.83779,1.75687 3.25298,2.12666 5.24021,0.80233 1.05767,-0.70486 2.01094,-2.54769 5.91049,-11.42596 1.53399,-3.4925 3.02692,-6.58812 3.31762,-6.87917 0.43647,-0.43697 0.95678,-0.54485 2.98651,-0.61919 2.73004,-0.1 4.38325,0.34741 4.43783,1.20101 0.0673,1.05215 -0.17361,1.7002 -2.5499,6.85994 -2.78073,6.03794 -4.31558,9.75365 -4.42088,10.7025 l -0.0712,0.64116 3.70417,0.21291 c 5.51951,0.31725 15.98993,0.11099 16.25645,-0.32024 0.11651,-0.18852 0.29173,-1.22433 0.38937,-2.3018 0.44398,-4.89956 2.08753,-8.71105 5.02037,-11.64261 3.77757,-3.77592 8.41714,-5.13416 17.49215,-5.12082 5.23064,0.008 8.21305,0.32763 8.90684,0.9555 1.08059,0.97792 0.34874,3.1969 -1.66109,5.03642 -1.08941,0.99709 -1.95133,1.14205 -6.79996,1.14358 -2.57352,7.9e-4 -5.13808,0.12891 -5.69902,0.28466 -2.85168,0.79183 -5.72698,5.70383 -5.72698,9.78365 0,1.07971 0.12417,1.61005 0.43789,1.87021 0.3586,0.29737 2.89616,0.36312 14.01347,0.36312 11.72767,0 13.62553,-0.054 13.9426,-0.39687 0.20186,-0.21828 0.9982,-2.18281 1.76963,-4.36563 2.50103,-7.0768 4.36439,-11.07164 5.86351,-12.57077 1.42603,-1.42603 5.329203,-2.1136 11.998389,-2.1136 7.297211,0 9.231706,1.16077 8.750987,5.25095 -0.502819,4.2782 -2.914742,9.05435 -5.158269,10.21452 -0.393898,0.2037 -2.480881,0.56374 -4.637738,0.8001 -2.156857,0.23636 -4.521168,0.63213 -5.254027,0.87948 -1.481102,0.49991 -2.096262,1.15972 -1.570982,1.685 0.514355,0.51435 11.005865,0.8253 20.646689,0.61194 8.521187,-0.18859 8.548142,-0.19099 8.944282,-0.79557 0.218535,-0.33353 1.327269,-3.08784 2.463853,-6.12069 3.125173,-8.33919 4.362103,-10.56808 6.318406,-11.38547 1.522465,-0.63613 6.286547,-1.12993 10.900473,-1.12985 8.102095,1.4e-4 11.511489,0.97563 12.917348,3.69589 0.523507,1.01296 0.598096,1.48157 0.505012,3.17287 -0.11063,2.0101 -0.578797,3.57062 -2.711344,9.03759 -0.548222,1.40541 -0.92924,2.73126 -0.846711,2.94633 0.123587,0.32206 1.238644,0.42318 6.321523,0.57329 3.394305,0.10023 7.949467,0.0841 10.12258,-0.0359 l 3.951115,-0.21817 1.893464,-5.29167 c 2.300102,-6.42814 3.235193,-8.63678 4.481433,-10.58496 1.575647,-2.46312 3.46456,-2.98608 11.6520387,-3.22594 6.0853373,-0.17827 7.7484552,0.0752 9.0529039,1.37963 0.8254471,0.82547 0.8689711,0.9669 0.8689711,2.82423 0,2.44124 -0.518848,4.50288 -1.8222913,7.24102 -1.0875169,2.28448 -2.3278835,3.89241 -3.4505106,4.47293 -0.3829579,0.19804 -2.12145563,0.49941 -3.8633136,0.6697 -1.7418579,0.17029 -3.7260477,0.41458 -4.4093341,0.54285 -2.6186606,0.49164 -3.8543711,1.4253 -2.6602796,2.01005 0.2546615,0.12471 9.60106771,0.26071 20.7697915,0.30223 l 20.306771,0.0755 v 0.73727 c 0,2.21288 -1.884124,4.99453 -4.335224,6.40038 l -1.353318,0.7762 -35.3360828,0.002 -35.3360592,0.002 -1.375283,-0.68533 c -2.500284,-1.24594 -3.963186,-3.85292 -3.681555,-6.56075 0.07739,-0.74408 0.853852,-3.13881 1.725477,-5.32163 1.832745,-4.58976 2.429592,-6.85693 1.935202,-7.35102 -0.397047,-0.39681 -5.897872,-0.3618 -6.963296,0.0443 -0.96353,0.36727 -1.217901,0.92583 -3.531304,7.75424 -2.395953,7.07207 -3.661661,9.82121 -5.134192,11.15156 l -1.072139,0.96881 -88.039346,-0.022 c -74.47753,-0.0187 -88.2747,-0.0791 -89.56727,-0.39223 z m 177.088136,-3.03512 c 0.852413,-0.91251 2.595491,-5.22706 4.897186,-12.12176 1.70279,-5.10068 2.206117,-6.04336 3.589306,-6.72236 1.295659,-0.63603 5.878539,-1.05033 8.115019,-0.7336 4.578969,0.64846 4.829482,3.05438 1.232212,11.83424 -0.832739,2.03247 -1.438719,3.916 -1.438719,4.47188 0,1.23663 0.880602,2.79445 1.943169,3.43753 0.80854,0.48935 1.914779,0.50785 34.966206,0.58459 22.680586,0.0527 34.441924,-0.0114 35.057292,-0.19095 1.078256,-0.31463 2.984738,-1.80297 2.764975,-2.15855 -0.08914,-0.14421 -7.659502,-0.24389 -18.5894399,-0.24477 -11.8675944,-10e-4 -18.7897559,-0.0989 -19.4230361,-0.27475 -3.602117,-1.0004 -3.696017,-4.81064 -0.1632479,-6.62247 1.3287375,-0.68146 2.9036963,-1.00282 7.0609619,-1.44075 2.45051792,-0.25814 3.69376854,-0.50419 4.0145758,-0.79452 1.6794692,-1.51989 3.9666334,-8.45389 3.1835196,-9.65145 -0.2109523,-0.3226 -1.1402748,-0.41263 -4.96588519,-0.48108 -5.34815521,-0.0957 -9.85059621,0.41124 -10.73348421,1.20846 -1.033648,0.93331 -2.427764,4.13971 -5.205651,11.97262 -1.03677,2.92349 -1.880155,4.87403 -2.287984,5.29167 l -0.645954,0.66146 -9.849985,0.0827 c -11.901585,0.1 -12.962041,0.0209 -14.028438,-1.04547 -0.719199,-0.71919 -0.769234,-0.89329 -0.657884,-2.28907 0.06845,-0.85795 0.545121,-2.59674 1.103212,-4.02422 1.968846,-5.03594 2.346118,-6.25028 2.476251,-7.97047 0.159747,-2.11162 -0.194281,-2.60435 -2.366574,-3.29376 -2.926254,-0.9287 -15.818551,-0.75755 -17.940099,0.23816 -0.889815,0.41762 -2.658626,4.01046 -4.455014,9.0491 -1.64478,4.6134 -3.197628,7.98722 -4.017735,8.72919 -0.562907,0.50928 -1.002269,0.52382 -15.830717,0.52382 -15.061444,0 -15.267144,-0.007 -16.485884,-0.57043 -1.42228,-0.65738 -1.89732,-1.37618 -1.89539,-2.86801 0.002,-1.56131 0.69751,-2.66402 2.23359,-3.54131 1.551746,-0.88624 3.209345,-1.25386 7.791677,-1.72805 2.486286,-0.25728 3.425417,-0.46021 3.831791,-0.82797 1.190865,-1.07772 3.163099,-6.11708 3.163099,-8.08222 0,-1.34505 -0.392108,-1.43201 -6.457072,-1.43201 -6.854772,0 -8.870915,0.3197 -9.796175,1.55338 -1.26074,1.681 -2.76895,5.19425 -5.4308,12.65062 -0.76285,2.1369 -1.6256,4.10143 -1.91722,4.36563 -0.47861,0.4336 -1.31958,0.49697 -8.63896,0.6509 -11.51343,0.24213 -21.52858,0.001 -22.5949,-0.54409 -1.33676,-0.68329 -1.83733,-1.60948 -1.98496,-3.67271 -0.31916,-4.46069 2.04511,-9.81761 5.39463,-12.22305 1.83545,-1.31812 3.29297,-1.58336 8.72039,-1.58692 4.36596,-0.003 4.82772,-0.0474 5.24275,-0.50604 0.29513,-0.32611 0.35684,-0.56364 0.17555,-0.67568 -0.49499,-0.30592 -9.87083,-0.21492 -12.05802,0.11703 -8.76079,1.32964 -12.25568,5.17549 -13.45958,14.81119 -0.34151,2.73344 -0.44983,3.09488 -1.09339,3.64844 l -0.71432,0.61443 -11.58729,-0.0766 c -10.74775,-0.071 -11.62561,-0.11126 -12.11614,-0.55542 -1.47904,-1.3392 -0.7706,-3.89131 3.87928,-13.97491 1.18295,-2.5653 2.15081,-4.74504 2.15081,-4.84386 0,-0.0988 -0.48766,-0.14306 -1.0837,-0.0983 l -1.0837,0.0814 -2.36755,5.42396 c -3.18929,7.30652 -5.02305,11.07476 -5.88334,12.08979 -0.74744,0.88188 -2.64531,1.7323 -4.58706,2.05543 -3.42581,0.57008 -7.06887,-2.63706 -6.54575,-5.76249 0.26158,-1.56284 1.42021,-4.75522 3.42283,-9.43098 0.94826,-2.21402 1.7241,-4.07818 1.7241,-4.14259 0,-0.0644 -1.45345,-0.0837 -3.22989,-0.0428 l -3.22989,0.0743 -1.53498,3.5459 c -0.84424,1.95024 -2.19898,5.27069 -3.01052,7.37877 l -1.47554,3.83288 0.55187,0.74645 c 0.70967,0.95988 0.70895,2.1312 -0.002,2.77434 -0.69762,0.63134 -4.76986,0.85244 -16.26072,0.88288 -12.03937,0.0319 -17.72634,-0.60504 -19.84746,-2.22289 -3.45699,-2.63669 -1.62164,-10.86902 6.16519,-27.65396 3.51705,-7.58118 4.13276,-9.70169 2.99398,-10.31115 -0.36973,-0.19787 -1.80631,-0.12852 -5.09323,0.24587 -18.23595,2.07714 -30.19778,3.18284 -34.55556,3.19416 -5.02617,0.0131 -2.92284,0.52585 3.46723,0.8453 4.0283,0.20138 8.68365,0.19546 16.5475,-0.021 6.01825,-0.16567 11.04926,-0.2351 11.18002,-0.15428 0.44116,0.27264 0.24191,2.11203 -0.35755,3.30079 -1.03912,2.06064 -1.50706,2.17947 -12.89844,3.27545 -13.42074,1.29123 -15.29637,1.44273 -20.50521,1.65623 -3.70874,0.15201 -4.33544,0.23218 -3.57187,0.45693 0.59055,0.17382 6.91682,0.2757 17.4625,0.28121 l 16.53645,0.009 -0.0652,1.05833 c -0.0359,0.58208 -0.33821,1.58945 -0.67182,2.23859 -1.11538,2.17027 -1.22588,2.19487 -15.40251,3.42926 -6.83948,0.59553 -14.58179,1.22064 -17.20513,1.38915 -4.63127,0.29749 -4.826,0.28929 -6.70871,-0.28257 -1.06645,-0.32392 -1.99376,-0.53419 -2.06068,-0.46726 -0.17594,0.17593 1.5067,1.41287 2.36679,1.73988 1.85323,0.7046 7.10835,0.88869 21.31067,0.74653 11.1407,-0.11151 14.39942,-0.0716 14.49503,0.17756 0.0678,0.17677 -0.28645,1.38573 -0.78729,2.68659 -2.34348,6.08682 -3.87005,10.76203 -3.87005,11.85225 0,2.64081 2.4851,4.38958 7.01145,4.93397 0.87313,0.10502 40.32435,0.20723 87.66937,0.22714 l 86.08187,0.0362 z m -35.190748,-11.95809 c -0.359404,-0.18858 -0.829744,-0.65695 -1.045199,-1.04081 -0.367824,-0.65532 -0.331309,-0.8202 0.59812,-2.70076 0.54442,-1.10157 1.371946,-2.40782 1.838946,-2.90279 0.724469,-0.76785 1.09001,-0.92787 2.4905,-1.09027 3.636039,-0.42163 4.827087,0.95575 3.424147,3.95982 -0.797314,1.70727 -1.921354,3.02776 -2.936534,3.44975 -1.306883,0.54326 -3.625447,0.71572 -4.36998,0.32506 z m 3.941549,-3.5459 c 0.682688,-0.8679 0.691938,-1.15495 0.03722,-1.15495 -0.439356,0 -1.605515,1.23079 -1.605515,1.69449 0,0.44314 1.568295,-0.53954 1.568297,-0.53954 z m 86.8875205,3.55762 c -0.8795015,-0.42521 -1.2593902,-1.5748 -0.8901113,-2.69368 0.4379648,-1.32706 2.2419469,-4.02463 3.0420469,-4.54887 0.4742127,-0.31072 1.2948444,-0.45754 2.6837746,-0.48015 1.88245751,-0.0307 2.03856167,0.0113 2.64104438,0.70978 0.81785352,0.94816 0.80631772,1.59879 -0.0591608,3.33559 -1.08585,2.17903 -2.34783318,3.3417 -4.00986628,3.69435 -1.6922221,0.35906 -2.6396156,0.35433 -3.4077275,-0.017 z m 4.212299,-3.83014 c 0.6722533,-1.15443 0.143166,-1.39483 -0.8606367,-0.39104 -0.4349486,0.43495 -0.7908131,0.92733 -0.7908131,1.09416 0,0.61144 1.1780043,0.10989 1.6514498,-0.70312 z"
         id="path28664"
         inkscape:connector-curvature="0"
         sodipodi:nodetypes="ccccsscccscccscscsccccssccscscccccscscccsccccccsccscscccscscccsscsccccscscsccccccsscsccsccscsccccscsccsccccccsccssccccccssccccccccccccccscscccccsscscsccsccccccccccsccsscssscccccccscscscscccsccccccsscccsccscsccccccsccccsscccccccscccccsc" />
      <path
         style="opacity:1;fill:#c4d797;fill-opacity:0.96705885;stroke:#c4d797;stroke-width:0.94488192;stroke-linecap:round;stroke-linejoin:round;stroke-miterlimit:4;stroke-dasharray:none;stroke-opacity:0.96862745"
         d="m -635.18139,532.70575 c -85.81536,-0.23705 -95.80737,-0.32258 -99.16275,-0.84873 -14.687,-2.30307 -23.24176,-8.22805 -24.0274,-16.64125 -0.17461,-1.86986 -0.024,-3.12448 0.75033,-6.24993 1.38625,-5.59547 6.19506,-19.85484 11.37569,-33.73187 4.71457,-12.62862 5.77133,-16.24002 4.90822,-16.77345 -1.04746,-0.64737 -11.66395,-0.76112 -61.26984,-0.65647 -53.122,0.11206 -58.31615,0.008 -67.67857,-1.35865 -5.52998,-0.8071 -9.57066,-2.6385 -13.39718,-6.07214 l -1.7814,-1.5985 1.57038,0.23416 c 0.86371,0.12878 3.75657,0.8746 6.42858,1.65737 6.17585,1.80922 9.73938,2.00476 22.00104,1.20726 25.60635,-1.66546 94.53316,-7.56637 106.8437,-9.14703 10.58499,-1.35909 15.40784,-2.90587 17.55438,-5.63001 2.5471,-3.2325 4.49707,-8.61576 4.91145,-13.55897 l 0.24699,-2.94643 -49.59968,-0.009 c -48.77851,-0.009 -77.38162,-0.37024 -79.08215,-0.99931 -0.80822,-0.29898 -0.81802,-0.33326 -0.15454,-0.54046 0.38964,-0.12168 7.45843,-0.54786 15.70843,-0.94706 19.67678,-0.95212 27.5278,-1.58506 68.92857,-5.55692 39.80365,-3.81864 46.5672,-4.83235 50.98672,-7.64178 3.46503,-2.20268 6.37122,-8.5672 6.46489,-14.15802 0.0332,-1.98283 -0.10527,-3.0744 -0.44177,-3.48214 -0.43158,-0.52294 -1.47739,-0.59311 -8.75,-0.58709 -4.54291,0.004 -14.12591,0.15887 -21.29556,0.34467 -45.93293,1.1903 -64.30848,1.19131 -82.14285,0.005 -7.28342,-0.48468 -15.35509,-1.38719 -16.05144,-1.79476 -0.70592,-0.41317 -1.83694,-0.33697 10.51572,-0.70848 22.10958,-0.66496 56.88472,-3.83923 119.82143,-10.93731 18.60615,-2.09843 27.97786,-2.71098 29.44701,-1.92471 2.62676,1.40579 2.08129,6.47095 -1.75286,16.27706 -2.08905,5.34287 -3.95933,9.60905 -10.59878,24.17629 -16.74961,36.74937 -24.87321,58.97725 -27.83523,76.16303 -1.03609,6.01148 -1.13784,13.88982 -0.2237,17.32143 2.36181,8.86607 7.86578,12.60056 22.03929,14.9538 11.17582,1.85554 23.27503,2.53492 49.63856,2.78726 31.4243,0.30076 59.08801,-0.47616 66.37918,-1.86423 3.28659,-0.62569 4.60008,-1.38214 5.53761,-3.18916 1.437,-2.76971 0.68536,-6.44007 -2.05337,-10.02688 l -1.25842,-1.6481 0.73295,-1.84563 c 0.40312,-1.0151 2.25145,-5.78313 4.1074,-10.59563 4.05939,-10.52603 9.95424,-24.89431 14.50593,-35.35714 l 3.34044,-7.67857 7.47914,-0.26851 c 4.11352,-0.14767 9.48806,-0.22803 11.94342,-0.17857 4.16787,0.084 4.45648,0.13511 4.34664,0.77028 -0.0647,0.37419 -2.29291,5.83847 -4.95157,12.14285 -8.94276,21.20573 -13.11197,32.62518 -14.02952,38.4268 -0.86008,5.4383 1.0533,10.38087 5.89119,15.21785 5.7808,5.77973 12.89188,7.98328 20.5949,6.38186 5.30197,-1.10224 10.468,-3.2392 13.92383,-5.75964 3.862,-2.81669 9.3776,-13.77507 25.85875,-51.37578 l 7.20092,-16.42857 2.81458,-0.27464 c 3.58653,-0.34998 5.18675,-0.1094 4.88364,0.7342 -0.12089,0.33653 -3.35107,7.52258 -7.17811,15.96901 -14.14557,31.21969 -17.92668,41.3207 -17.92668,47.88994 0,3.97641 1.671,6.94171 4.31265,7.65302 2.8775,0.77484 13.88764,1.05148 50.68735,1.27359 l 37.67857,0.22741 2.16122,-2.09341 c 2.67528,-2.59135 2.97803,-3.54319 4.42911,-13.92546 0.573,-4.09951 1.30417,-8.73938 1.62485,-10.3108 4.858,-23.80429 14.47682,-35.76802 33.8854,-42.14611 5.00657,-1.64527 11.85746,-3.1597 16.92785,-3.74199 4.97825,-0.57171 26.4209,-1.15258 33.82872,-0.91639 8.8275,0.28145 10.17857,0.44545 10.17857,1.23547 0,0.86 -1.78329,2.47345 -3.24118,2.93248 -0.73193,0.23047 -7.74857,0.50772 -17.47311,0.69043 -20.528,0.38568 -23.02228,0.70419 -29.10714,3.71685 -12.67518,6.27557 -23.25264,24.92424 -24.31689,42.87211 -0.55861,9.42051 1.3906,15.72688 5.75707,18.62605 2.28343,1.51613 4.98868,2.03981 13.51011,2.61534 18.44485,1.24573 83.99092,1.00491 100.08596,-0.36772 4.98064,-0.42476 6.04039,-0.7918 7.09089,-2.4559 1.47015,-2.32885 4.29568,-9.22762 8.57211,-20.92932 8.97175,-24.54981 14.21975,-36.56077 18.43604,-42.19404 2.36967,-3.16611 6.44914,-4.69061 14.61471,-5.46157 6.22396,-0.58764 30.69986,-0.87409 37.14286,-0.4347 6.92421,0.47221 8.16214,0.84349 9.0796,2.72313 0.62665,1.28382 0.64986,1.66223 0.26525,4.32242 -1.13117,7.82355 -6.30942,21.30735 -10.242,26.66951 -2.162,2.9479 -3.79575,3.42326 -16.91714,4.92235 -11.42543,1.30533 -18.39886,2.5213 -22.67453,3.95379 -6.38172,2.13806 -10.76436,5.40155 -12.79597,9.52832 -1.01382,2.05934 -1.17668,2.79042 -1.29878,5.83041 -0.17711,4.41015 0.47575,6.60559 2.58453,8.69113 1.67057,1.65215 5.30225,3.55597 7.92007,4.15192 3.1675,0.72108 20.80211,1.03057 58.72182,1.03057 37.51861,0 55.83572,-0.3267 58.285933,-1.03957 2.330786,-0.67812 4.182465,-3.41603 8.414536,-12.44167 2.302,-4.90943 5.153786,-12.02807 8.823893,-22.02616 6.66725,-18.16282 12.293143,-29.97405 15.703536,-32.96838 0.833643,-0.73196 1.9865,-1.24272 3.655607,-1.61959 6.89275,-1.55634 25.092679,-2.58037 39.937929,-2.24713 17.9865353,0.40374 24.2849281,1.29892 29.9131424,4.25148 3.5034646,1.83792 4.3694286,4.25794 3.8141076,10.65871 -0.533429,6.14804 -1.648393,9.79476 -8.523679,27.87803 -3.23128571,8.49889 -4.6255,13.71151 -4.9065,18.34408 -0.1750357,2.88617 -0.1071429,3.79597 0.3492857,4.67855 0.95560716,1.84795 3.788,4.35473 5.7458215,5.08525 4.2639285,1.59103 6.3101788,1.6583 47.6957858,1.56802 l 39.087964,-0.0853 1.384965,-1.34331 c 2.664392,-2.58427 4.556678,-6.7538 10.496823,-23.12902 12.01786,-33.12978 16.12621,-42.03532 20.41511,-44.2532 5.1501,-2.66321 25.23914,-4.24207 44.52717,-3.49951 5.69643,0.21931 10.94133,0.56923 11.65536,0.7776 1.80211,0.52591 2.26,1.7596 1.96514,5.2948 -0.82632,9.90742 -8.38421,28.86008 -12.65396,31.73184 -1.73082,1.16414 -4.98029,1.78409 -16.59807,3.16672 -15.79925,1.88026 -21.03125,3.04768 -25.97561,5.79593 -3.03782,1.68853 -6.37743,5.05779 -7.70318,7.77153 -0.90953,1.86184 -1.04618,2.54097 -1.04182,5.17857 0.004,2.5855 0.14518,3.30267 0.95018,4.83577 1.24711,2.37504 3.72968,4.61358 6.61279,5.96275 1.91128,0.8944 3.0335,1.14823 6.13557,1.38776 2.08807,0.16124 31.43932,0.44763 65.22503,0.63643 66.58432,0.37209 74.82143,0.52545 74.82143,1.39304 0,1.16626 -5.43982,5.42822 -8.85864,6.94054 -1.56839,0.69378 -2.62004,0.74908 -19.34639,1.01744 -38.68493,0.62066 -229.845612,0.0442 -239.7498978,-0.72301 -5.2909286,-0.40984 -6.8519643,-0.96543 -9.1217501,-3.24659 -2.8861071,-2.90053 -4.7581781,-7.02454 -4.7717141,-10.51157 -0.01036,-2.70384 1.4654641,-7.3797 5.8664999,-18.58541 C 3.896715,478.3651 5.8012507,469.37493 3.2154293,463.36399 0.756715,457.64856 -7.8897136,455.137 -22.273678,455.9601 c -9.0085,0.51549 -15.711036,1.66416 -18.7465,3.21273 -4.740143,2.41825 -6.737286,6.22755 -13.195179,25.16828 -10.07125,29.53872 -15.352785,42.33051 -19.280178,46.69643 l -1.847322,2.05357 -232.203573,-0.0609 c -127.71196,-0.0335 -275.1477,-0.1795 -327.63496,-0.3245 z m 784.52286,-47.10653 c 4.32117,-0.89157 7.26192,-2.35189 9.91514,-4.92364 2.67807,-2.59585 4.71353,-5.61108 6.95393,-10.30118 2.80053,-5.86262 2.74203,-8.52702 -0.26054,-11.86659 -2.31243,-2.57197 -2.69546,-2.66438 -10.24396,-2.47123 -8.70743,0.2228 -9.33807,0.45229 -13.00682,4.7331 -4.37515,5.10503 -8.63054,12.95978 -8.95404,16.52769 -0.39243,4.32751 1.63721,7.46598 5.60964,8.67434 1.67604,0.50981 6.60061,0.32614 9.98665,-0.37249 z m -343.30583,-0.21276 c 4.39172,-0.90714 6.35207,-1.80581 8.71872,-3.9969 4.67714,-4.3302 8.83093,-11.96584 9.47071,-17.40932 0.44132,-3.75506 -1.56728,-6.73408 -5.28486,-7.83808 -3.66614,-1.08873 -12.18221,-0.58215 -15.70742,0.93434 -3.13904,1.35038 -6.86193,6.26236 -10.9634,14.46511 -2.71532,5.43046 -3.16346,7.0426 -2.4395,8.77533 0.75111,1.79761 3.02957,4.20159 4.70582,4.96501 1.84808,0.84168 7.67472,0.89463 11.49993,0.10451 z"
         id="path28668"
         inkscape:connector-curvature="0"
         transform="matrix(0.26458333,0,0,0.26458333,-43.698568,62.140165)" />
    </g>
  </g>
</svg>
