<svg id="content" xmlns="http://www.w3.org/2000/svg" viewBox="0 0 889 479.06158"><defs><style>.cls-1{fill:#4095d1;}.cls-2{fill:#ef4637;}.cls-3{fill:#ffc20e;}.cls-4{fill:#30b455;}.cls-5{fill:none;}</style></defs><title>lucid</title><path class="cls-1" d="M17.41168,113.37881c0-59.52739,50.04573-107.99267,109.57413-107.99267,32.92508,0,56.36749,12.90679,74.01462,29.7642l-20.808,20.808C167.54887,44.10552,150.42824,34.8871,126.98582,34.8871c-43.46072,0-77.43876,35.032-77.43876,78.49171,0,43.4607,33.978,78.49273,77.43876,78.49273,28.18273,0,44.25043-11.32636,54.52282-21.59874,8.42971-8.4287,13.95976-20.54477,16.06768-37.13893h-70.5905v-29.5h99.29973a96.11,96.11,0,0,1,1.58145,18.43785c0,22.12521-6.05853,49.51825-25.55035,69.01007-18.96332,19.754-43.19748,30.28967-75.33081,30.28967C67.45742,221.37149,17.41168,172.90721,17.41168,113.37881Z"/><path class="cls-2" d="M308.118,82.29842c-38.45715,0-69.80078,29.23671-69.80078,69.53654,0,40.03659,31.34363,69.53653,69.80078,69.53653,38.45514,0,69.79877-29.49995,69.79877-69.53653C377.91678,111.53513,346.57312,82.29842,308.118,82.29842Zm0,111.68c-21.07327,0-39.24686-17.38388-39.24686-42.14349,0-25.02286,18.17362-42.14351,39.24686-42.14351,21.07126,0,39.24484,17.12065,39.24484,42.14351,0,24.75964-18.17361,42.14352-39.24484,42.14352Z"/><path class="cls-3" d="M460.38623,82.29842c-38.45715,0-69.80078,29.23671-69.80078,69.53654,0,40.03659,31.34363,69.53653,69.80078,69.53653,38.45514,0,69.80078-29.49995,69.80078-69.53653C530.187,111.53513,498.84137,82.29842,460.38623,82.29842Zm0,111.68c-21.07126,0-39.24686-17.38388-39.24686-42.14349,0-25.02286,18.1756-42.14351,39.24686-42.14351s39.24487,17.12065,39.24487,42.14351c0,24.75964-18.17361,42.14352-39.24487,42.14352Z"/><path class="cls-1" d="M647.28656,86.51227V97.83862h-1.053c-6.84827-8.16546-20.01831-15.5402-36.61249-15.5402-34.76776,0-66.63989,30.55391-66.63989,69.79977,0,38.98363,31.87213,69.2733,66.63989,69.2733,16.59418,0,29.76422-7.37474,36.61249-15.80344h1.053v10.00914c0,26.60332-14.223,40.82631-37.13892,40.82631-18.70007,0-30.29065-13.43327-35.031-24.75862L548.5133,242.707c7.638,18.43784,27.9195,41.09055,61.63434,41.09055,35.82276,0,66.11341-21.07227,66.11341-72.43418V86.51227Zm-35.031,107.46618c-21.07122,0-38.72039-17.64712-38.72039-41.88026,0-24.49538,17.6491-42.40674,38.72039-42.40674,20.808,0,37.13892,17.91136,37.13892,42.40674C649.39453,176.33134,633.0636,193.97845,612.25555,193.97845Z"/><rect class="cls-4" x="697.33234" y="12.76188" width="30.55389" height="204.39577"/><path class="cls-2" d="M811.64679,193.97845c-15.5412,0-26.60333-7.11149-33.71478-21.07125l92.98-38.45615-3.16089-7.90222c-5.79535-15.5402-23.44245-44.25043-59.52832-44.25043-35.82276,0-65.5849,28.18375-65.5849,69.53653,0,38.98262,29.499,69.53653,69.009,69.53653,31.87012,0,50.309-19.49081,57.947-30.81715l-23.70569-15.80344C837.98682,186.34048,827.18793,193.97845,811.64679,193.97845ZM809.27557,109.165c12.11707,0,22.38947,6.05853,25.8136,14.75048L772.9284,149.728C772.13666,122.86148,793.73639,109.165,809.27557,109.165Z"/><rect class="cls-5" x="15.92469" y="5.21533" width="856" height="279.84616"/><path d="M220.38477,344.51953h26.74316V449.49512h63.90576v23.00976H220.38477Z"/><path d="M351.66943,377.86133V434.9082q0,8.07423,1.90088,12.15625,3.36987,7.207,13.21826,7.20606,12.613,0,17.28028-10.24512,2.41771-5.55615,2.41894-14.6748V377.86133h25.09326v94.64355H387.52979V459.13281q-.34644.43653-1.73145,2.60547a17.38923,17.38923,0,0,1-3.29,3.82031,34.34589,34.34589,0,0,1-11.21289,7.12012,38.14944,38.14944,0,0,1-12.68506,1.91016q-20.95312,0-28.22607-15.1084-4.07007-8.335-4.06885-24.57227V377.86133Z"/><path d="M492.24414,411.81152a21.93764,21.93764,0,0,0-3.56738-9.55078q-4.18066-5.73047-12.96875-5.73047-12.53613,0-17.14746,12.416-2.439,6.583-2.43653,17.49512,0,10.39452,2.43653,16.71582,4.43847,11.8081,16.71191,11.80859,8.70411,0,12.35938-4.68945a23.29587,23.29587,0,0,0,4.43847-12.15528h25.26758a41.39293,41.39293,0,0,1-8.16992,21.35938q-11.64845,16.23778-34.50488,16.2373-22.86036,0-33.63623-13.54589-10.77686-13.54395-10.77735-35.124,0-24.35155,11.90625-37.89844,11.90551-13.5454,32.855-13.54492,17.81689,0,29.15918,7.98828,11.34083,7.98927,13.42871,28.21875Z"/><path d="M559.9707,366.57422H534.877V343.73828H559.9707ZM534.877,377.86133H559.9707v94.64355H534.877Z"/><path d="M634.12305,379.38086a30.07157,30.07157,0,0,1,10.85351,10.46289V344.69336h25.09375V472.50488H646.01855V459.39355q-5.29687,8.42286-12.06933,12.24317-6.772,3.8203-16.84473,3.82031-16.58642,0-27.915-13.415-11.332-13.415-11.332-34.42773,0-24.22413,11.1582-38.11719,11.15625-13.89111,29.8252-13.89258A30.534,30.534,0,0,1,634.12305,379.38086Zm6.07812,67.42285q5.46973-7.81494,5.46973-20.23144,0-17.36427-8.76953-24.833a18.88334,18.88334,0,0,0-12.50293-4.51465q-10.856,0-15.9336,8.20508-5.07861,8.20605-5.0791,20.36133,0,13.11182,5.166,20.96875,5.165,7.86034,15.67285,7.85839Q634.729,454.61816,640.20117,446.80371Z"/></svg>