<svg id="Layer_1" data-name="Layer 1" xmlns="http://www.w3.org/2000/svg" viewBox="0 0 552.93 266.04"><defs><style>.cls-1{fill:#00b26b;}</style></defs><title>spotify-luigi</title><path class="cls-1" d="M90.6461,7.22a80.27163,80.27163,0,1,0,80.27163,80.27042A80.27155,80.27155,0,0,0,90.6461,7.22Zm36.81331,115.78014a4.9996,4.9996,0,0,1-6.87909,1.66473c-18.85008-11.5211-42.57584-14.12279-70.51742-7.74022a5.00168,5.00168,0,1,1-2.22753-9.75219c30.57721-6.99031,56.80637-3.98222,77.9644,8.94706A5.00377,5.00377,0,0,1,127.45941,123.00014Zm9.82243-21.85816a6.26172,6.26172,0,0,1-8.60848,2.06095c-21.57171-13.26-54.46633-17.10129-79.98744-9.35444a6.25739,6.25739,0,1,1-3.63725-11.97455c29.1544-8.84683,65.39739-4.562,90.17416,10.66425A6.25864,6.25864,0,0,1,137.28184,101.142Zm.84731-22.75963C112.2541,63.016,69.574,61.60308,44.873,69.10017a7.50761,7.50761,0,1,1-4.35871-14.36866C68.86917,46.12424,116.005,47.787,145.79283,65.46923a7.508,7.508,0,0,1-7.66368,12.91312Z"/><path class="cls-1" d="M228.76556,81.32456C214.90644,78.01919,212.4382,75.69935,212.4382,70.826c0-4.60533,4.33584-7.70345,10.78307-7.70345,6.24992,0,12.44625,2.35338,18.944,7.19787a.907.907,0,0,0,.68517.167.89417.89417,0,0,0,.5991-.37019l6.7677-9.53953a.90925.90925,0,0,0-.17281-1.23449,40.9431,40.9431,0,0,0-26.61794-9.22139c-14.96493,0-25.41733,8.9802-25.41733,21.82979,0,13.77943,9.01657,18.65787,24.59879,22.4242,13.26237,3.05472,15.501,5.61373,15.501,10.18947,0,5.06992-4.526,8.22171-11.81007,8.22171-8.0898,0-14.68865-2.72559-22.07049-9.11761a.95266.95266,0,0,0-.66618-.217.90253.90253,0,0,0-.62278.3204l-7.58787,9.03a.901.901,0,0,0,.09,1.259,45.23647,45.23647,0,0,0,30.55038,11.71767c16.126,0,26.546-8.81135,26.546-22.4486C252.53789,91.80533,245.65177,85.43109,228.76556,81.32456Z"/><path class="cls-1" d="M289.02094,67.6557c-6.98957,0-12.72253,2.75275-17.45063,8.39372V69.70008a.90926.90926,0,0,0-.907-.90932H258.25347a.90872.90872,0,0,0-.90689.90932v70.551a.90851.90851,0,0,0,.90689.90931h12.40987a.909.909,0,0,0,.907-.90931V117.98155a22.2917,22.2917,0,0,0,17.45063,7.89889c12.98764,0,26.13475-9.99766,26.13475-29.10906C315.15569,77.65571,302.00858,67.6557,289.02094,67.6557Zm11.70579,29.11568c0,9.73174-5.995,16.52313-14.57825,16.52313-8.4861,0-14.88758-7.10007-14.88758-16.52313,0-9.42225,6.40148-16.523,14.88758-16.523C294.59361,80.24834,300.72673,87.19564,300.72673,96.77138Z"/><path class="cls-1" d="M348.85633,67.6557c-16.726,0-29.82891,12.87909-29.82891,29.32333,0,16.26577,13.01294,29.00956,29.62369,29.00956,16.78517,0,29.92832-12.83617,29.92832-29.21721C378.57943,80.44442,365.52624,67.6557,348.85633,67.6557Zm0,45.74065c-8.89663,0-15.60355-7.14824-15.60355-16.625,0-9.517,6.47486-16.42363,15.39833-16.42363,8.95337,0,15.70612,7.14784,15.70612,16.63128C364.35723,106.49439,357.83815,113.39635,348.85633,113.39635Z"/><path class="cls-1" d="M414.2968,68.79076H400.64055V54.82818a.9078.9078,0,0,0-.90616-.90891H387.326a.91067.91067,0,0,0-.91012.90891V68.79076h-5.96735a.90709.90709,0,0,0-.90382.90932V80.36554a.90714.90714,0,0,0,.90382.90931h5.96735v27.59782c0,11.15253,5.5506,16.80732,16.49864,16.80732a22.63639,22.63639,0,0,0,11.62529-2.89291.90462.90462,0,0,0,.45861-.787V111.84373a.90986.90986,0,0,0-1.315-.81458,15.64092,15.64092,0,0,1-7.28476,1.75784c-3.98142,0-5.75817-1.80755-5.75817-5.8592V81.27485H414.2968a.90746.90746,0,0,0,.90535-.90931V69.70008A.90741.90741,0,0,0,414.2968,68.79076Z"/><path class="cls-1" d="M461.8762,68.84484V67.13c0-5.045,1.93388-7.29463,6.2728-7.29463a20.94786,20.94786,0,0,1,6.99274,1.2905.90729.90729,0,0,0,1.19349-.86429V49.80368a.90763.90763,0,0,0-.64177-.871,34.06011,34.06011,0,0,0-10.315-1.48238c-11.46266,0-17.52086,6.45515-17.52086,18.65989v2.6265h-5.96177a.91231.91231,0,0,0-.91093.90891V80.36554a.9127.9127,0,0,0,.91093.90931h5.96177v42.56833a.907.907,0,0,0,.90462.90931h12.40989a.91058.91058,0,0,0,.90931-.90931V81.27485h11.58665l17.74969,42.55725c-2.01511,4.47163-3.99636,5.36114-6.70142,5.36114a14.31194,14.31194,0,0,1-6.84272-1.94091.93123.93123,0,0,0-.723-.0679.916.916,0,0,0-.53678.49014l-4.20635,9.2281a.90164.90164,0,0,0,.39072,1.17378,26.132,26.132,0,0,0,13.25372,3.39331c9.16338,0,14.22851-4.26867,18.69377-15.752l21.52983-55.63413a.90681.90681,0,0,0-.84223-1.23884h-12.919a.91149.91149,0,0,0-.8596.60936L498.42,107.25692,483.92382,69.4293a.90552.90552,0,0,0-.84772-.58446Z"/><rect class="cls-1" x="420.97373" y="68.79076" width="14.22851" height="55.96172" rx="0.90931"/><path class="cls-1" d="M428.15115,44.1379a8.90011,8.90011,0,1,0,8.89971,8.89655A8.90121,8.90121,0,0,0,428.15115,44.1379Z"/><path class="cls-1" d="M536.87075,86.19831a8.7569,8.7569,0,1,1,8.77894-8.78412A8.69915,8.69915,0,0,1,536.87075,86.19831Zm.04575-16.6451a7.886,7.886,0,1,0,7.81523,7.861A7.80963,7.80963,0,0,0,536.9165,69.55321Zm1.93631,8.75922,2.47058,3.45886h-2.0831L537.0168,78.599H535.105v3.17232h-1.74362V72.604h4.08794c2.12965,0,3.53072,1.08972,3.53072,2.92411A2.73445,2.73445,0,0,1,538.85281,78.31243Zm-1.47372-4.13611H535.105v2.89961h2.2741c1.135,0,1.8123-.55529,1.8123-1.45078C539.19139,74.68189,538.51414,74.17632,537.37909,74.17632Z"/><path d="M207.98451,241.61261H196.09416V180.11692h11.89035Z"/><path d="M231.43119,196.1371v27.41031a14.41033,14.41033,0,0,0,.91375,5.84137q1.61907,3.46343,6.351,3.46287,6.06057,0,8.30326-4.92376a17.91041,17.91041,0,0,0,1.1622-7.05051V196.1371h12.05709v45.47551H248.6616V235.1882q-.16564.20871-.83149,1.2511a8.34981,8.34981,0,0,1-1.5807,1.83523,16.49416,16.49416,0,0,1-5.3881,3.422,18.34632,18.34632,0,0,1-6.0948.91761q-10.06809,0-13.56271-7.25921-1.95531-4.005-1.95448-11.80753V196.1371Z"/><path d="M283.99862,190.71312H271.94153V179.74148h12.05709Zm-12.05709,5.424h12.05709v45.47551H271.94153Z"/><path d="M318.01,196.09514a14.28392,14.28392,0,0,1,6.99972,6.59225V196.1371h11.59883v43.139q0,8.80348-2.96265,13.26733-5.08995,7.6755-19.525,7.67661-8.72066,0-14.2269-3.42091a12.62478,12.62478,0,0,1-6.09094-10.22186h12.93385a5.35273,5.35273,0,0,0,1.62654,3.00351q1.918,1.62819,6.46637,1.62764,6.425,0,8.59422-4.29767,1.41783-2.75284,1.41894-9.26118v-2.92069a14.49526,14.49526,0,0,1-3.67157,4.38048,14.75754,14.75754,0,0,1-9.22032,2.712q-8.76207,0-13.99722-6.15387-5.23572-6.15333-5.23626-16.66725,0-10.1385,5.04191-17.0427,5.04192-6.9053,14.29206-6.90475A15.66382,15.66382,0,0,1,318.01,196.09514Zm4.04922,32.6046q2.86713-3.14871,2.86658-10.033,0-6.46638-2.72083-9.84642a8.88007,8.88007,0,0,0-7.29013-3.379,8.59286,8.59286,0,0,0-8.60085,5.88224,20.92835,20.92835,0,0,0-1.24667,7.71857,17.66891,17.66891,0,0,0,1.32949,7.05051,8.66407,8.66407,0,0,0,8.64171,5.75745A9.12821,9.12821,0,0,0,322.05924,228.69974Z"/><path d="M359.92992,190.71312H347.87283V179.74148h12.05709Zm-12.05709,5.424h12.05709v45.47551H347.87283Z"/></svg>