<svg id="Layer_1" data-name="Layer 1" xmlns="http://www.w3.org/2000/svg" viewBox="0 0 400 100.8"><defs><style>.cls-1{fill:#e6e6e6;}.cls-2{fill:#00c5db;}.cls-3{fill:#53585a;}</style></defs><title>download (10)</title><path class="cls-1" d="M65.9,50.7a4.102,4.102,0,0,1,1.1.1L47.5,12a8.14892,8.14892,0,0,1,.6,3.1,8.65225,8.65225,0,0,1-7.6,8.6L57.4,57.5A8.691,8.691,0,0,1,65.9,50.7Z"/><path class="cls-1" d="M119.1,80.1a6.90455,6.90455,0,0,1,2.5.4l-20.7-44A8.7888,8.7888,0,0,1,92.5,43a5.2829,5.2829,0,0,1-1.3-.1l20,42.5A8.39683,8.39683,0,0,1,119.1,80.1Z"/><path class="cls-1" d="M83.8,34.2a5.702,5.702,0,0,1,.1-1.3l-16.2,18a8.60846,8.60846,0,0,1,6.8,8.5,5.702,5.702,0,0,1-.1,1.3l16.2-18A8.691,8.691,0,0,1,83.8,34.2Z"/><path class="cls-1" d="M30.8,15.6,9.2,80.8a7.973,7.973,0,0,1,3.4-.7,8.82712,8.82712,0,0,1,7.5,4.3L40.2,23.7h-.8A8.63737,8.63737,0,0,1,30.8,15.6Z"/><path class="cls-2" d="M12.7,80.1a9.37076,9.37076,0,0,0-3.4.7,8.59689,8.59689,0,0,0-5.2,8,8.7,8.7,0,0,0,17.4,0,7.72455,7.72455,0,0,0-1.2-4.3A8.77964,8.77964,0,0,0,12.7,80.1Z"/><path class="cls-2" d="M48.1,15.1a8.14892,8.14892,0,0,0-.6-3.1,10.09221,10.09221,0,0,0-.7-1.5,8.73037,8.73037,0,0,0-16.1,4.6v.6a8.71223,8.71223,0,0,0,8.6,8.1h1A8.90878,8.90878,0,0,0,48.1,15.1Z"/><path class="cls-2" d="M67.7,50.9a2.2019,2.2019,0,0,0-.8-.1c-.3,0-.7-.1-1.1-.1a8.77551,8.77551,0,0,0-8.5,6.8,11.07589,11.07589,0,0,0-.2,1.9,8.69875,8.69875,0,0,0,17.3,1.3,5.28282,5.28282,0,0,0,.1-1.3A8.58953,8.58953,0,0,0,67.7,50.9Z"/><path class="cls-2" d="M100.9,36.4a7.79852,7.79852,0,0,0,.3-2.2,8.69874,8.69874,0,0,0-17.3-1.3,5.2829,5.2829,0,0,0-.1,1.3,8.691,8.691,0,0,0,6.8,8.5c.2,0,.3.1.5.1a5.70212,5.70212,0,0,0,1.3.1A8.81748,8.81748,0,0,0,100.9,36.4Z"/><path class="cls-2" d="M121.6,80.4a10.05385,10.05385,0,0,0-2.5-.4,8.7912,8.7912,0,0,0-8,5.3,7.97306,7.97306,0,0,0-.7,3.4,8.7,8.7,0,0,0,17.4,0A8.82556,8.82556,0,0,0,121.6,80.4Z"/><path class="cls-3" d="M173.2,67.1,165,47.3l-1.7,20.1H156l3.1-33.1h7.4l9.3,22.3,9.3-22.3h7.4l3.1,33.1H188l-1.7-20.1L178,67.1Z"/><path class="cls-3" d="M198,67.4l12.8-33.1h7.1l12.9,33.1h-7.7l-2.4-6.2v.1h-13v-.1l-2.3,6.2Zm11.8-12.1h8.9l-4.4-13.2Z"/><path class="cls-3" d="M253.2,55.1c.9,3.5,2.2,6.3,5.5,6.3a5.67345,5.67345,0,0,0,3.4-1.4l2.6,5.1c-2.2,1.7-4,2.8-7.4,2.8-7.8,0-10.3-8.8-10.6-12.3h-4.4V67.4H235v-33h14.7c6.8,0,10.5,5.1,10.5,10.9A9.82321,9.82321,0,0,1,253.2,55.1Zm-4.5-5.3c2.6,0,4.2-1.9,4.2-4.6,0-2.8-1.6-4.7-4.2-4.7h-6.5v9.3Z"/><path class="cls-3" d="M299.4,74.6a14.283,14.283,0,0,1-8.3,2.6c-6.4,0-10.8-4.3-11-9.5-8-1.5-14.4-8.5-14.4-16.8a17.25066,17.25066,0,0,1,34.5,0c0,7.9-6,14.6-13.2,16.6.1,2.5,2,3.7,4.6,3.7a12.44416,12.44416,0,0,0,5.5-1.7ZM283,61.2a9.95429,9.95429,0,0,0,9.9-10.3,9.95595,9.95595,0,1,0-19.9,0A9.97429,9.97429,0,0,0,283,61.2Z"/><path class="cls-3" d="M332,34.4V55c0,8.5-6.3,13-13.7,13s-13.7-4.5-13.7-13V34.4h7.3V55c0,4.6,2.9,6.9,6.3,6.9s6.4-2.3,6.4-6.9V34.4Z"/><path class="cls-3" d="M338.5,67.4v-33h22v5.8H345.9v8.1h12.7v5.8H345.9v7.5h14.6v5.8Z"/><path class="cls-3" d="M393,67.4H364.1V62.7L382,40.2H365.5V34.4h26.4v4.8L373.8,61.7H393Z"/></svg>