<svg id="Layer_1" data-name="Layer 1" xmlns="http://www.w3.org/2000/svg" viewBox="0 0 94.86712 41.30901"><title>WeWork-Marquez</title><path d="M8.663,10.79708a8.62118,8.62118,0,0,1,1.519.101,1.75664,1.75664,0,0,1,1.167,1.422,2.82171,2.82171,0,0,1-.096.82,26.21542,26.21542,0,0,1-1.674,3.249c-.537-.871-1.801-3.331-2.238-4.289a2.61077,2.61077,0,0,1-.286-.9C7.055,10.89808,7.655,10.79708,8.663,10.79708Zm-7.163,0a1.66717,1.66717,0,0,1,1.29,1.032c1.549,2.843,3.1,5.977,4.609,9.06a1.04712,1.04712,0,0,0,.733.196,1.067,1.067,0,0,0,.728-.195c.719-1.357,2.616-4.999,3.434-6.413.952,1.748,2.591,4.938,3.256,6.413a1.02569,1.02569,0,0,0,.723.195,1.02861,1.02861,0,0,0,.725-.195q2.00841-4.39386,4.233-8.684c.506-1.006.725-1.276,1.768-1.47l.442-.078c.252-.253.187-.846-.093-.96-.695.055-1.515.083-2.436.083-.788,0-1.54-.028-2.586-.083-.316.114-.316.765-.123.96l.532.103c.543.111.791.248.791.387a3.45906,3.45906,0,0,1-.292,1.058c-.499,1.263-.994,2.602-1.761,4.183-.692-1.314-1.574-3.084-2.146-4.396a2.2632,2.2632,0,0,1-.25-.845c0-.139.437-.276,1.168-.412l.47-.078c.228-.111.252-.927-.094-.96q-2.79324.08243-5.588.083H4.656c-1.326,0-2.334-.028-3.628-.083-.323.137-.323.737-.104.96Z"/><path d="M27.872,10.62208a1.46953,1.46953,0,0,1,1.673,1.498c0,.274-.063.55-.22.628a2.87281,2.87281,0,0,1-1.298.243H26.861c-1.016,0-1.452-.02-1.452-.407a2.4484,2.4484,0,0,1,2.464-1.963Zm-.033,10.426a6.19841,6.19841,0,0,0,5.527-3.112.69669.69669,0,0,0-.822-.634,3.26937,3.26937,0,0,1-2.938,1.42c-2.934,0-4.454-1.989-4.454-4.036,0-.436.066-.49.794-.49h6.055c.986,0,1.14-.382,1.14-.9,0-2.105-1.77-3.933-5.054-3.933-3.94,0-6.814,2.677-6.814,6.118C21.273,18.45608,23.578,21.04808,27.839,21.04808Zm13.367-10.251a8.63606,8.63606,0,0,1,1.522.101,1.75789,1.75789,0,0,1,1.168,1.422,2.879,2.879,0,0,1-.094.82,27.95718,27.95718,0,0,1-1.673,3.249c-.543-.871-1.8-3.331-2.242-4.289a2.69608,2.69608,0,0,1-.285-.9C39.602,10.89808,40.198,10.79708,41.206,10.79708Zm-7.162,0a1.66777,1.66777,0,0,1,1.294,1.032c1.544,2.843,3.099,5.977,4.61,9.06a1.44577,1.44577,0,0,0,1.452.001c.73-1.357,2.62-4.999,3.443-6.413.95,1.748,2.584,4.938,3.249,6.413a1.449,1.449,0,0,0,1.452,0q2.0108-4.39323,4.235-8.684c.505-1.006.723-1.276,1.764-1.47l.446-.078c.249-.253.183-.846-.097-.96-.698.055-1.514.083-2.434.083q-1.2939-.00618-2.586-.083c-.32.114-.32.765-.126.96l.536.103c.538.111.788.248.788.387a3.65377,3.65377,0,0,1-.281,1.058c-.507,1.263-1.013,2.602-1.773,4.183-.692-1.314-1.574-3.084-2.142-4.396a2.1864,2.1864,0,0,1-.255-.845c0-.139.439-.276,1.17-.412l.47-.078c.222-.111.255-.927-.094-.96-2.018.055-3.602.083-5.588.083H37.199q-1.81471.00024-3.628-.083c-.313.137-.313.737-.093.96Z"/><path d="M61.073,10.62208c1.793,0,2.678,2.288,2.713,4.94.027,2.458-.576,4.231-2.377,4.231-1.823,0-2.87-2.106-2.87-4.968,0-2.972,1.143-4.204,2.534-4.204Zm0,10.426c3.878,0,7.259-1.882,7.259-5.873,0-3.848-3.352-5.812-7.074-5.812-3.727,0-7.295,2.155-7.265,6.062C54.03,19.18908,57.309,21.04808,61.073,21.04808Z"/><path d="M73.711,11.67608c.195,0,.475.03,1.198.546a1.87989,1.87989,0,0,0,1.23.494,1.80135,1.80135,0,0,0,2.023-1.775,1.65115,1.65115,0,0,0-1.743-1.61c-1.321,0-2.233.9-3.091,1.362-.25-.05-.316-.133-.316-.326,0-.244.065-.623.123-1.174a.67151.67151,0,0,0-.56-.249,23.34452,23.34452,0,0,1-4.617,1.646.58817.58817,0,0,0,0,.817l.45.246c.597.328.597.654.597,1.748v4.12c0,1.91-.127,2.155-1.17,2.241l-.601.05a.67016.67016,0,0,0,.033.96q1.86208-.09072,3.727-.084c1.48,0,2.746.024,4.263.083a.67047.67047,0,0,0,.029-.959l-1.01-.076c-1.042-.087-1.17-.306-1.17-2.215v-4.203c0-1.036.16-1.642.606-1.642"/><path d="M86.099,19.72208l-.409.085a.63415.63415,0,0,0,.123.95c.884-.054,2.017-.08,3.888-.08,1.83,0,2.996.026,3.972.08a.63635.63635,0,0,0,.125-.95l-.469-.086a3.98765,3.98765,0,0,1-1.86-.625,43.96526,43.96526,0,0,1-4.133-5.215.9696.9696,0,0,1-.23-.465.53983.53983,0,0,1,.188-.356,18.69546,18.69546,0,0,1,2.121-1.585,5.68937,5.68937,0,0,1,2.117-.952l1.006-.192a.66174.66174,0,0,0-.128-.955,53.1656,53.1656,0,0,1-5.966.382H85.69c-.315.114-.35.71-.066.955l.792.114c.281.022.596.13.596.27,0,.164-.152.462-.756,1.086l-1.322,1.346a2.50153,2.50153,0,0,1-1.834.762c-.343,0-.445-.082-.445-.383v-8.569c0-1.722.04-2.87.102-3.987a.741.741,0,0,0-.54-.19,39.23373,39.23373,0,0,1-4.828,1.523.57938.57938,0,0,0,0,.816l.536.28c.629.329.629.628.629,1.726v12.004c0,1.91-.127,2.129-1.268,2.242l-.6.054a.66782.66782,0,0,0,.032.95q1.92577-.08581,3.854-.08c1.454,0,2.778.026,3.793.08a.66772.66772,0,0,0,.03-.95l-.502-.054c-1.11-.113-1.238-.333-1.238-2.242v-1.58c0-.523.16-.656.378-.656a.93267.93267,0,0,1,.796.402l2.238,2.955a3.09668,3.09668,0,0,1,.535.878c0,.101-.186.152-.503.211"/><path d="M29.67041,29.18359h2.59668v8.63672H30.58545V31.97852q0-.252.00586-.70606t.00586-.70019l-1.63672,7.248H27.20654l-1.625-7.248q0,.24609.00586.70019t.00586.70606v5.84179H23.91162V29.18359h2.626l1.57226,6.791Z"/><path d="M36.332,33.93555a2.65078,2.65078,0,0,0,.667-.14649.50263.50263,0,0,0,.35987-.47461.5613.5613,0,0,0-.27637-.542,1.74439,1.74439,0,0,0-.81055-.14941,1.06352,1.06352,0,0,0-.84912.293,1.205,1.205,0,0,0-.23779.58593H33.57373a2.44446,2.44446,0,0,1,.4707-1.377,2.745,2.745,0,0,1,2.28321-.84375,4.07261,4.07261,0,0,1,1.87158.416,1.59532,1.59532,0,0,1,.81787,1.57031v2.92969q0,.30468.01172.73828a.92829.92829,0,0,0,.09961.44531.59875.59875,0,0,0,.24609.19336v.24609h-1.8164a1.85922,1.85922,0,0,1-.10547-.36328q-.0293-.16992-.04688-.38672a3.447,3.447,0,0,1-.80176.63867,2.421,2.421,0,0,1-1.22558.31055,2.1146,2.1146,0,0,1-1.44092-.49512,1.76015,1.76015,0,0,1-.56885-1.40332,1.81861,1.81861,0,0,1,.915-1.70507,4.0835,4.0835,0,0,1,1.47559-.41016Zm1.021.77929a1.85114,1.85114,0,0,1-.32373.16114,2.73168,2.73168,0,0,1-.44873.11425l-.37989.07032a2.49711,2.49711,0,0,0-.76757.22851.76237.76237,0,0,0-.39454.709.73946.73946,0,0,0,.24122.61816.91386.91386,0,0,0,.58593.19043,1.7456,1.7456,0,0,0,1.0083-.31641,1.34043,1.34043,0,0,0,.479-1.15429Z"/><path d="M44.02393,31.28418q.03222.00293.14355.00879v1.71094q-.1582-.01758-.28125-.02344t-.19922-.00586a1.385,1.385,0,0,0-1.35351.65625,2.55287,2.55287,0,0,0-.19336,1.13672v3.05273H40.4585V31.43359h1.59375v1.11329a3.53059,3.53059,0,0,1,.67382-.87305,1.83436,1.83436,0,0,1,1.21875-.39258Q43.9917,31.28125,44.02393,31.28418Z"/><path d="M48.71973,31.65625a2.58727,2.58727,0,0,1,.58593.7334v-.94434H50.917v8.90625H49.26465V37.0293a1.77539,1.77539,0,0,1-.6416.68847,2.2139,2.2139,0,0,1-1.23877.30176,2.42363,2.42363,0,0,1-1.88672-.88574,3.44693,3.44693,0,0,1-.7793-2.36328,3.903,3.903,0,0,1,.78223-2.55078,2.40232,2.40232,0,0,1,1.93066-.95606A2.004,2.004,0,0,1,48.71973,31.65625Zm.35742,4.19434a2.842,2.842,0,0,0,.23437-1.23243,2.6389,2.6389,0,0,0-.19922-1.05078,1.26913,1.26913,0,0,0-1.25634-.833,1.23143,1.23143,0,0,0-1.01856.4873,2.3597,2.3597,0,0,0-.38476,1.47852,2.84614,2.84614,0,0,0,.17627,1.08593,1.21225,1.21225,0,0,0,1.22119.80371A1.26508,1.26508,0,0,0,49.07715,35.85059Z"/><path d="M54.13965,31.43359V35.2832a2.01529,2.01529,0,0,0,.1289.82032.88594.88594,0,0,0,.89161.48632,1.16547,1.16547,0,0,0,1.166-.6914,2.52219,2.52219,0,0,0,.16309-.99024V31.43359h1.69336v6.38672h-1.623V36.918c-.01562.01953-.05469.07812-.11621.17578a1.17617,1.17617,0,0,1-.22266.25781,2.30894,2.30894,0,0,1-.75683.48047,2.56787,2.56787,0,0,1-.85547.12891,1.908,1.908,0,0,1-1.90528-1.01953,3.91873,3.91873,0,0,1-.27441-1.65821V31.43359Z"/><path d="M63.96777,31.5625a2.60066,2.60066,0,0,1,1.10352.94531,3.1266,3.1266,0,0,1,.50879,1.32031,8.10276,8.10276,0,0,1,.05469,1.26758H60.9834a1.53428,1.53428,0,0,0,.668,1.34766,1.69753,1.69753,0,0,0,.9209.24023,1.41044,1.41044,0,0,0,.92675-.293,1.38943,1.38943,0,0,0,.34375-.43945h1.70508a2.08293,2.08293,0,0,1-.61914,1.1543,3.10352,3.10352,0,0,1-2.40234.93164,3.47977,3.47977,0,0,1-2.25-.78613,3.0958,3.0958,0,0,1-.97461-2.55664,3.45931,3.45931,0,0,1,.87988-2.54493,3.07788,3.07788,0,0,1,2.28418-.88574A3.64026,3.64026,0,0,1,63.96777,31.5625Zm-2.498,1.44238a1.73726,1.73726,0,0,0-.44532.98926h2.877a1.396,1.396,0,0,0-.44434-1.00976,1.46423,1.46423,0,0,0-.99023-.34376A1.324,1.324,0,0,0,61.46973,33.00488Z"/><path d="M66.11621,32.793V31.43359H71.167v1.38868L68.0332,36.44922h3.24512v1.37109H65.89355V36.51953l3.166-3.72656Z"/></svg>