<svg id="Layer_1" data-name="Layer 1" xmlns="http://www.w3.org/2000/svg" viewBox="0 0 1860.27532 375.06901"><defs><style>.cls-1{fill:#00bacd;}.cls-2{fill:#1275e3;}.cls-3{fill:#1372e4;}.cls-4{fill:#06a3d4;}.cls-5{fill:#04acd2;}.cls-6{fill:#05a9d3;}.cls-7{fill:#089ed6;}.cls-8{fill:#05a6d3;}.cls-9{fill:#107ce1;}.cls-10{fill:#117be1;}.cls-11{fill:#02b5cf;}.cls-12{fill:#1178e2;}.cls-13{fill:#0f81df;}.cls-14{fill:#0b8fdb;}.cls-15{fill:#0d8add;}.cls-16{fill:#03b0d0;}.cls-17{fill:#079fd6;}.cls-18{fill:#0e86de;}.cls-19{fill:#05a8d3;}.cls-20{fill:#03aed1;}.cls-21{fill:#099bd7;}.cls-22{fill:#05a7d3;}.cls-23{fill:#01b6ce;}.cls-24{fill:#03b0d1;}.cls-25{fill:#0a94d9;}.cls-26{fill:#1274e3;}.cls-27{fill:#099ad7;}.cls-28{fill:#02b3cf;}.cls-29{fill:#0a96d9;}.cls-30{fill:#0a97d8;}.cls-31{fill:#1371e4;}.cls-32{fill:#089cd7;}.cls-33{fill:#07a1d5;}.cls-34{fill:#0e87dd;}.cls-35{fill:#0d8cdc;}.cls-36{fill:#02b4cf;}.cls-37{fill:#01bace;}.cls-38{fill:#117de1;}.cls-39{fill:#1183df;}.cls-40{fill:#1189de;}.cls-41{fill:#1283df;}.cls-42{fill:#0b91da;}.cls-43{fill:#fff;}</style></defs><title>metaflow</title><path class="cls-1" d="M343.36953,148.698c-26.95089-5.18842-52.884.42875-78.27555,8.44672-46.86294,14.798-86.7711,41.48995-123.0832,74.03171-2.8351,2.5407-2.05368,3.48646.67451,5.2414,17.38641,11.184,35.35055,21.37,53.44261,31.34351,1.372,4.59805.41257,9.2952.51559,13.93987.15553,7.01262.24476,14.03828-.08366,21.04766-.10909,2.32877.09087,5.45375-3.96722,4.65765-13.255-5.44518-25.65762-12.56781-38.08818-19.59813a726.90366,726.90366,0,0,1-67.733-43.96968c-3.38305-2.44485-5.0202-4.39132-1.517-8.35539,43.55919-49.29068,95.12276-87.23907,156.94933-110.461a244.3498,244.3498,0,0,1,89.38293-15.89765c45.10052.50661,77.79706,34.09218,76.199,78.97032a71.71,71.71,0,0,1-1.86531,16.00473c-1.80636-.16545-1.87821-1.74593-2.21277-2.93654-2.37933-8.46774-5.86544-16.3762-11.45152-23.25638-1.31942-3.61612-4.32353-5.82587-6.98481-8.32005-1.94185-2.615-4.99023-3.907-7.30463-6.07822-3.48426-3.42565-8.58987-3.9779-12.33333-6.94462C358.43365,153.30263,351.14222,150.32073,343.36953,148.698Z"/><path class="cls-1" d="M228.383,88.87325c-28.15742,12.26592-54.96582,27.02387-81.02015,43.26061-33.1203,20.64017-62.9562,45.60421-93.25337,69.97743-.26228.211-.50709.44362-.76824.65609-6.72346,5.46938-6.70314,5.446-13.22291-.32122-5.80071-5.13111-11.60663-10.25844-17.50263-15.279-3.10456-2.64356-3.56718-4.9312-.1271-7.75171,39.06218-32.02713,77.85962-64.40816,121.8723-89.70721,2.31847-1.33268,4.72068-2.51969,7.08388-3.77452,3.5842-1.40113,7.29066-.515,10.936-.52243,19.57843-.0401,39.15747-.09978,58.73506.05422C223.86535,85.48717,227.47708,84.54234,228.383,88.87325Z"/><path class="cls-2" d="M469.85842,261.8c-2.91382,7.61352-7.637,14.08611-12.79345,20.28548-3.354,2.4595-4.14049,2.24339-4.71593-1.38321a28.96105,28.96105,0,0,1-.11939-4.53438c-.00561-17.82692.13592-35.65522-.04372-53.48034-.16744-16.61707-1.832-33.23192-.86806-49.84164.829-14.28394.67873-28.55918.84339-42.841a10.2131,10.2131,0,0,1,.92572-4.89976c1.80994-2.0037,3.48161-.71579,4.6479.58554a74.43424,74.43424,0,0,1,11.39134,16.86039,4.69342,4.69342,0,0,1-.06062,4.33682c-.96414,2.25923-.57316,4.6492-.577,6.96553q-.08345,50.17452.03238,100.349C468.52883,256.73059,467.45572,259.6247,469.85842,261.8Z"/><path class="cls-1" d="M468.91167,145.59908a64.55785,64.55785,0,0,0-14.17571-21.203c-5.089-4.77768-10.00587-9.735-15.13209-14.477-5.56493-6.85021-13.052-11.31226-20.175-16.23462-2.20771-1.52247-5.0059-2.50218-5.29556-5.78324.75872-2.6267,3.08822-3.05563,5.17321-3.16732,10.52827-.564,21.06863-.41131,31.60474-.10753a8.56055,8.56055,0,0,1,3.26379,1.23038c12.38218,14.13361,20.83473,30.48323,26.504,48.24789a162.30763,162.30763,0,0,1,6.60708,71.09357c-1.48611-.96251-1.36727-2.55462-1.58046-4.01883-2.56508-17.61737-6.29874-34.86671-15.66146-50.37871C469.10852,149.25053,468.19618,147.56838,468.91167,145.59908Z"/><path class="cls-3" d="M468.91167,145.59908c9.98219,16.17084,14.96052,34.05626,17.94582,52.60768a68.60309,68.60309,0,0,1,.42762,6.99452c-1.38405,17.60921-6.31021,34.25874-13.625,50.26665-1.03383,2.26241-3.28692,3.7722-3.80168,6.33214-1.21458.58709-2.36206.70222-2.77167-.89633a12.25223,12.25223,0,0,1-.212-3.00468q-.014-53.53929-.00567-107.07864C466.86924,148.81967,466.52605,146.67229,468.91167,145.59908Z"/><path class="cls-4" d="M224.28815,50.45742a124.94577,124.94577,0,0,1,22.31458-7.89356c2.44565,1.044,4.99211.34243,7.4773.34592q66.28389.093,132.5679-.01227c3.14835-.00539,6.34838.92983,9.47212-.24363,5.47292.9192,9.0178,5.66039,14.1973,7.16121,2.23527,1.89225.51562,2.915-.972,3.67893-1.83436.942-3.93026.79358-5.94543.79433q-85.23246.03161-170.46478-.07011C229.74066,54.21138,225.54041,55.41077,224.28815,50.45742Z"/><path class="cls-5" d="M282.92931,70.99375l-1.97635.76166a4.90238,4.90238,0,0,0-3.34387-.82442c-27.37995,1.13534-54.772.28337-82.158.43015-3.74571.02007-7.86526.305-10.43812-3.52822a67.21553,67.21553,0,0,1,15.12975-6.994c3.67.63693,7.37129.25363,11.052.25579q102.62019.06011,205.24044.01928a72.605,72.605,0,0,0,11.05931-.4587A31.01637,31.01637,0,0,1,435.3929,66.839c-2.07987,1.93576-4.6994,1.52274-7.16359,1.53377-13.23587.05923-26.47267.10445-39.70792-.00177a225.94992,225.94992,0,0,0-24.57171,1.00442,4.37144,4.37144,0,0,1-1.77371.01283c-7.12224-1.3166-14.17284-3.21547-21.52166-2.92117-13.784-1.56829-27.447.29532-41.135,1.44972-1.70732.91167-3.7533-.24328-5.42451.88874l-.42043.17575-.4431-.10647c-1.57581,1.10981-3.66335-.33937-5.18585,1.037l.05776-.02912C286.54444,71.0255,284.40861,69.48119,282.92931,70.99375Z"/><path class="cls-6" d="M427.49446,60.65532c-1.03463,2.39735-3.16365,2.10639-5.17444,2.10639q-108.44065-.00008-216.88132-.00447c-1.98514-.00014-4.13864.397-5.296-1.9183a39.52926,39.52926,0,0,1,11.76474-5.31032c64.70586,1.236,129.4182.19159,194.12622.58741,4.71025.02882,9.38615-.68854,14.09412-.36872Z"/><path class="cls-7" d="M396.12005,42.65388c-1.02346,2.07537-2.92523,1.92687-4.79554,1.92662q-70.40232-.00929-140.8046-.01864c-1.59526-.00057-3.55034.50063-3.91718-1.998a132.20314,132.20314,0,0,1,26.03833-7.16072c4.31147-1.06316,8.7048-.46888,13.04491-.48794,28.452-.125,56.90458-.02724,85.357-.04361,1.636-.00094,3.38048-.24446,4.95175.58865C383.22941,36.386,389.10108,41.1246,396.12005,42.65388Z"/><path class="cls-8" d="M420.12779,55.74731c-2.462,1.72064-5.21286,2.00028-8.15609,1.99813q-95.464-.06969-190.928.01536a16.76247,16.76247,0,0,1-9.13587-2.232,49.52585,49.52585,0,0,1,12.38033-5.07134c1.60529,2.21073,3.95955,2.20882,6.35162,2.20843q87.81105-.01441,175.622-.05229c1.76714-.00163,4.81812,1.16462,4.05551-2.79851A25.43641,25.43641,0,0,1,420.12779,55.74731Z"/><path class="cls-9" d="M420.38,267.8303a162.43262,162.43262,0,0,0,18.027-25.62543c3.07922,2.64847,2.69465,6.32132,2.73912,9.777.20233,15.72782-.21178,31.45925.24007,47.18649-3.82813,4.94437-8.881,8.53708-13.97288,11.9424-1.60649,1.07437-3.16475,2.28-4.81694,3.31433-3.09211.09842-3.54414-2.2736-3.614-4.3919-.41738-12.662-.29972-25.33-.08128-37.99563A9.11839,9.11839,0,0,1,420.38,267.8303Z"/><path class="cls-10" d="M366.773,155.72171c3.50452,3.24216,8.9931,3.1051,12.06548,7.08331-.633,18.2798-.11841,36.56555-.284,54.84777-.08807,9.72988.18957,19.462-.17428,29.19025a28.61026,28.61026,0,0,1-10.17534,6.02631c-3.48383.19474-3.768-2.53087-3.78213-4.7578-.08433-13.2604-.85156-26.53336.43628-39.779,7.22437-15.1186,7.081-30.2149-.13718-45.28976-.45981-1.81224-2.87272-2.9526-1.93861-5.20533C363.491,156.13031,364.48608,154.61439,366.773,155.72171Z"/><path class="cls-11" d="M228.383,88.87325c-1.354-2.49311-3.744-1.84325-5.851-1.84658q-28.03626-.04422-56.07272-.01537c-5.03133.00117-10.07966.2606-15.01435-1.0775a117.68965,117.68965,0,0,1,18.13964-10.15307c25.93325-1.09057,51.877-.34149,77.81568-.36586,2.61417-.00247,5.945-.19539,6.42386,3.839Q241.10361,84.06356,228.383,88.87325Z"/><path class="cls-12" d="M440.57992,109.24519q5.21742,4.95261,10.43681,9.90306A13.91741,13.91741,0,0,1,454.736,124.396c-1.539,1.32149-.95187,3.11739-.98054,4.73137-.0716,4.03421-.1593,8.076.00148,12.105.50926,12.7611-2.329,25.50954-1.71281,38.06115,1.65545,33.71854,1.6718,67.42411,1.61777,101.1459-.00616,3.85634,1.58269,2.53294,3.40286,1.64609a20.07709,20.07709,0,0,1-5.2062,6.3295c-1.99556-1.17192-2.51969-3.18774-2.52357-5.2021-.0444-22.84111-.87448-45.68839.4373-68.52081.02189-.38081.13289-.65976.038-.60885-.71438.75753.41694,3.50306-2.29651,3.24018,3.0004-16.07026,4.3242-32.17866,2.31562-48.532-1.77965-14.48909-6.2457-28.07475-12.33784-41.22265a68.22182,68.22182,0,0,1-.30452-13.333C437.31945,112.04916,437.1662,109.3441,440.57992,109.24519Z"/><path class="cls-13" d="M420.38,267.8303q.00444,20.51146.0132,41.02291c.00179,2.13575-.42318,4.46341,2.20314,5.57181a74.55565,74.55565,0,0,1-17.14048,10.0946c-4.75718.62707-4.52259-3.10165-4.70174-5.864-.43347-6.68552-.13074-13.398-.1657-20.09938-.01573-3.01565.02392-6.032.0082-9.0473-.01363-2.62124.55287-4.97948,2.52222-6.84659Q411.74941,275.24631,420.38,267.8303Z"/><path class="cls-12" d="M447.51385,217.32344c1.98027-2.23975,1.6425-5.24052,2.5755-7.9249,1.22,1.24058.5697,2.7187.57285,4.00729q.08039,33.04573.0061,66.09163a27.14926,27.14926,0,0,0,1.19022,8.91737c-2.377,4.66909-7.45275,6.71018-10.47228,10.75352-2.71333-.70545-1.751-2.94526-1.76041-4.59814-.072-12.623-.04107-25.24656-.03873-37.87.00092-4.86389.27986-9.74967-1.17986-14.49488A223.8444,223.8444,0,0,0,447.51385,217.32344Z"/><path class="cls-14" d="M370.19908,337.72277a40.04832,40.04832,0,0,1-14.27072,2.94683c-1.41932.74085-2.95927.24149-4.42854.43478-3.4427.453-5.08253-1.3621-5.23229-4.4882-.44729-9.33657-.335-18.68166-.06324-28.02329A4.32362,4.32362,0,0,1,349.654,304.266l18.14732-4.39117c2.0193,2.6374,1.436,5.75909,1.55878,8.723C369.76215,318.30214,368.589,328.05187,370.19908,337.72277Z"/><path class="cls-15" d="M370.19908,337.72277c-1.90744-.24836-2.36142-1.48907-2.35972-3.211q.017-17.318-.03824-34.63647,9.6259-3.85242,19.25155-7.704c1.19164,9.87812.26894,19.793.47053,29.68878a23.386,23.386,0,0,0,1.86538,9.7913A69.81594,69.81594,0,0,1,370.19908,337.72277Z"/><path class="cls-16" d="M253.82413,79.2539c-1.803-2.70463-4.60113-2.34448-7.27105-2.345q-35.05872-.00683-70.11741.00012c-2.34869.00047-4.72685.21876-6.851-1.1282a87.35739,87.35739,0,0,1,15.42822-7.9479,28.834,28.834,0,0,0,10.76281,2.03268q40.08955-.089,80.17934.01717c1.76751.00466,4.24718-1.14808,4.99788,1.87264C271.65462,73.331,262.9756,77.147,253.82413,79.2539Z"/><path class="cls-4" d="M290.07869,339.72036a102.60132,102.60132,0,0,1-21.247-4.363,5.62049,5.62049,0,0,1-1.51494-4.11669c-.15257-9.32788-.37538-18.66353.13346-27.979.14409-2.63767.381-6.095,4.79958-5.222q9.05445,2.01591,18.10893,4.03184a15.12212,15.12212,0,0,0-1.8433,8.22157c.07147,6.5518.192,13.11112-.04706,19.655C288.34294,333.38189,289.48537,336.47636,290.07869,339.72036Z"/><path class="cls-17" d="M290.07869,339.72036c-2.57526-1.19761-3.17354-3.22677-3.1239-5.98142.165-9.15167.11754-18.30871.02692-27.46242-.0247-2.49575.34566-4.32533,3.37625-4.20462q10.10913,1.50975,20.21676,3.02022c-3.24335,2.20407-3.97025,5.32268-3.85366,9.09065.21686,7.01129.121,14.03517.02793,21.05251-.03031,2.28418.34982,4.74873-1.69036,6.54575A60.34029,60.34029,0,0,1,290.07869,339.72036Z"/><path class="cls-18" d="M389.38858,331.65135c-2.12821-.24771-3.34729-1.31872-3.34156-3.582.02831-11.195.0235-22.39022.10145-33.58486a7.16093,7.16093,0,0,1,.9042-2.31326q8.03306-4.75417,16.06619-9.50862c-1.69295,4.543-.78438,9.26581-.87762,13.905-.1477,7.34981-.06346,14.70492-.02535,22.05754.013,2.50947-.11778,5.1839,3.23975,5.89441A62.03565,62.03565,0,0,1,389.38858,331.65135Z"/><path class="cls-5" d="M236.49211,286.067l19.33258,6.9998a18.73745,18.73745,0,0,0-1.63221,8.73311c.04437,6.99452.11239,13.991-.03962,20.98412-.061,2.8072-.0354,5.73-2.51944,7.79343a66.32535,66.32535,0,0,1-15.21-4.92241,8.33522,8.33522,0,0,1-1.52453-5.22253c-.07915-9.74042-.09368-19.48109.01335-29.22117C234.93249,289.37024,235.00144,287.48433,236.49211,286.067Z"/><path class="cls-19" d="M251.63342,330.57741c2.06284-10.99688.6153-22.10273,1.00521-33.15184.08045-2.27922-.17218-4.576,3.186-4.35879a108.073,108.073,0,0,1,16.42406,4.97313c-3.65571.71458-3.39657,3.60773-3.40493,6.265-.0325,10.35075-.01249,20.70169-.012,31.05251A77.832,77.832,0,0,1,251.63342,330.57741Z"/><path class="cls-20" d="M362.78305,68.86855c3.69819-1.67223,7.70927-1.97212,11.61967-1.99771,20.32928-.13311,40.66-.04374,60.99024-.03184a34.33875,34.33875,0,0,1,7.41409,6.65314c-1.06281,4.60474-5.01811,3.74262-8.01154,3.80218-12.0303.23934-24.0675.19777-36.10187.0404-2.15972-.02823-4.36361-.35031-6.33129.92334-3.55531.99365-6.50866-1.10221-9.56636-2.14938a187.78918,187.78918,0,0,0-19.05787-5.85A1.07635,1.07635,0,0,1,362.78305,68.86855Z"/><path class="cls-21" d="M375.99471,35.46024a1023.2418,1023.2418,0,0,1-103.35313-.057c10.14411-3.13041,20.61722-4.5366,31.10951-5.72344,23.60655-2.67027,46.99833-1.81472,69.97955,4.79385A18.28842,18.28842,0,0,1,375.99471,35.46024Z"/><path class="cls-22" d="M283.96478,255.88069a55.32571,55.32571,0,0,1-14.13079-4.15628c-2.19707-1.27139-2.5282-3.42323-2.55873-5.645-.12874-9.36525-.22013-18.73376.05378-28.09491.08054-2.7513.08837-6.25244,4.741-4.75866q7.61527,2.50379,15.23057,5.0076a15.55835,15.55835,0,0,0-1.8157,8.22888c.06111,7.21864.08646,14.439-.01591,21.65723C285.4314,250.77158,285.6823,253.53167,283.96478,255.88069Z"/><path class="cls-23" d="M192.59261,307.40651c3.02513-.34976,2.46021-2.673,2.4657-4.60178q.04147-14.5992.00222-29.19857c-.005-2.02648-.04382-4.03375,1.06737-5.84483a94.799,94.799,0,0,1,14.1895,6.98015c1.29123,5.811.2867,11.6889.4689,17.53274.17761,5.69841.2139,11.414-.06916,17.11024-.09661,1.94336.55382,4.6386-2.69419,5.04932A75.04847,75.04847,0,0,1,192.59261,307.40651Z"/><path class="cls-12" d="M378.38015,246.843c-2.03127-1.22224-1.41328-3.24835-1.41562-5.00446q-.0495-37.26809.01289-74.53612c.00339-1.6513-.90883-3.90194,1.86235-4.49783,2.17755,2.24359,5.65614,2.961,7.10907,6.05632-.75335,13.36448-.25543,26.74026-.31889,40.11028-.04983,10.5318-.25081,21.06755.16059,31.59824C384.38793,243.92148,380.51373,244.35434,378.38015,246.843Z"/><path class="cls-20" d="M272.07006,213.2258c-1.50658.12256-3.21363.09407-3.18859,2.24484.13546,11.62744-.54161,23.2637.37208,34.8811a4.78332,4.78332,0,0,0,.58044,1.37267,56.68772,56.68772,0,0,1-14.15259-5.0224,5.8729,5.8729,0,0,1-2.52688-5.22q-.23916-14.62681.00219-29.25444a7.74271,7.74271,0,0,1,1.43493-4.2394c1.28248-1.31024,2.74891-.96685,4.17178-.37653C263.21,209.45647,267.63606,211.35071,272.07006,213.2258Z"/><path class="cls-24" d="M236.49214,286.067q-.03432,19.794-.06867,39.588a64.44839,64.44839,0,0,1-14.07328-5.25445,7.40691,7.40691,0,0,1-1.58188-5.13959q-.13044-15.00412.0102-30.00833c.01955-1.82339.0646-3.7036,1.5702-5.09948Q229.42043,283.11,236.49214,286.067Z"/><path class="cls-25" d="M349.654,304.266c-1.7697,1.33681-2.08477,3.13858-2.05455,5.27.10635,7.50187.0411,15.00618.04128,22.50956.00019,8.44114.00034,8.44114,8.287,8.62385-5.53424,1.7767-11.2424,2.1179-16.99968,2.0525-7.36145.93053-7.943.5048-8.03568-6.57569-.09612-7.33975-.06858-14.68145-.0005-22.02179.02467-2.65936-.04872-5.38389,1.88573-7.58355,3.06112-1.97943,6.73425.33956,9.83789-1.38612A18.42021,18.42021,0,0,1,349.654,304.266Z"/><path class="cls-26" d="M385.79054,240.56947c-2.44273-.57185-1.74907-2.56654-1.75166-4.11268q-.05365-31.80881-.00555-63.61776c.002-1.57117-.58278-3.55472,1.91638-3.97834,2.82674,2.29685,5.83837,4.432,7.1037,8.09888,1.18245,17.36677.58815,34.74723.376,52.124a4.32738,4.32738,0,0,0,.46894,2.39774C392.32319,235.51643,388.77855,237.79472,385.79054,240.56947Z"/><path class="cls-27" d="M342.6155,305.15483c-2.80418,2.2124-6.11416.535-9.12138,1.18589-1.84284,1.52668-4.07469,1.3596-6.25517,1.4599-5.26574.24219-6.14992.954-6.24551,6.2792-.145,8.07644-.34945,16.16068.18676,24.23568.196,2.95189.20126,5.77055-4.17829,4.40331q-1.35149-.04866-2.703-.09728c-2.966-1.3625-6.22859.24364-9.21444-.92033l-.02565.0794c.04832-10.32214.33271-20.65156.0337-30.964-.12624-4.35321,1.115-6.23413,5.48137-5.724C321.25436,305.4351,331.93407,305.73412,342.6155,305.15483Z"/><path class="cls-11" d="M392.10037,77.902c-.47769-3.64379,2.78592-2.39306,3.899-2.32189,13.00529.83165,26.01385.03,39.01409.3097,2.85023.06133,5.66316-.07962,7.79341-2.39741a65.15307,65.15307,0,0,1,11.3676,12.36439c-11.03113.04767-22.06349.04252-33.09394.186-2.30829.03-5.3283-.72961-5.77207,3.05825-2.5789,1.5046-4.29325-.822-6.37595-1.46608a57.58739,57.58739,0,0,1-13.75889-6.72061C393.978,80.08734,392.53952,79.50064,392.10037,77.902Z"/><path class="cls-28" d="M222.34871,280.15312l.00148,40.2474a62.48782,62.48782,0,0,1-14.32717-5.9668c1.82757-1.38032,1.15485-3.37945,1.16592-5.13778.0592-9.40317.03894-18.80693.01967-28.21041-.00447-2.18885-.11248-4.37754,1.10879-6.344A70.53043,70.53043,0,0,1,222.34871,280.15312Z"/><path class="cls-29" d="M307.29751,223.14206c9.70487,1.15734,19.418,2.1331,29.21228,1.33422-.73958,2.95054-3.23259,2.06444-5.177,2.37758-9.00322.44618-9.57835-1.829-9.47068,9.83689.05128,5.55445-.01285,11.10989.0149,16.66471.0333,6.66933.19262,6.821,6.72339,6.91457,1.01021.01449,2.01875.06037,3.03463.07529,1.88033-.01566,3.76076-.044,5.14126,1.56208a61.87877,61.87877,0,0,1-20.45413-.1044,1.49379,1.49379,0,0,0-.44254-.2289c-10.25054-1.31908-10.25471-1.31831-10.259-11.82138-.00269-6.67722-.05332-13.355.03006-20.03142C305.67937,227.42784,305.35462,224.98336,307.29751,223.14206Z"/><path class="cls-13" d="M364.859,208.33256c1.13343,1.81722.97414,3.84437.97266,5.854q-.01236,16.59069-.00676,33.18141c-.00123,2.18512-.2797,4.47364,2.37958,5.50124-3.514,2.98889-8.10167,3.38318-12.16939,5.03433-3.4542.121-3.69252-2.56883-3.77294-4.82591-.35318-9.91641-.219-19.84041-.0942-29.76228a8.28118,8.28118,0,0,1,2.44264-5.36865A54.46382,54.46382,0,0,0,364.859,208.33256Z"/><path class="cls-30" d="M317.00191,342.71881c1.973-.11877,3.40684-.15543,2.957-3.156-1.39641-9.31345-.46113-18.72784-.51488-28.09855-.01884-3.28263,1.30758-5.77725,5.50379-5.27255a78.947,78.947,0,0,0,8.54643.14816c-2.11338,11.34362-.84074,22.79076-.78154,34.1786.019,3.66222,4.10293,1.41091,6.21283,2.20358A87.03292,87.03292,0,0,1,317.00191,342.71881Z"/><path class="cls-31" d="M393.89835,231.48135c-1.8002-.31736-1.80161-1.67773-1.801-3.065.00728-16.41209-.00419-32.82422.05069-49.23614a6.66016,6.66016,0,0,1,.90587-2.22105c6.79486,7.85917,10.08006,17.38181,12.86641,27.14074C404.00943,214.14727,400.61767,223.5447,393.89835,231.48135Z"/><path class="cls-32" d="M307.29751,223.14206c-.02417,10.27114.174,20.54969-.16854,30.8102-.16574,4.96465,1.33086,7.373,6.49062,6.85182a2.72262,2.72262,0,0,1,2.70251.99892,81.63617,81.63617,0,0,1-20.19731-2.98713,5.05781,5.05781,0,0,1-2.48842-4.63262c-.22238-9.52323-.3489-19.05057.07459-28.56838.1168-2.62537.96778-5.0639,4.54754-4.34355l-.09572-.05778c1.445,1.57518,3.59993-.043,5.13192,1.14081C304.6707,222.405,306.11327,222.11724,307.29751,223.14206Z"/><path class="cls-33" d="M298.2585,221.27132c-1.88854.25464-3.126,1.19945-3.12507,3.22423q.00726,16.001.10724,32.00173a7.30313,7.30313,0,0,0,.88406,2.31853,42.04591,42.04591,0,0,1-12.16-2.93518c.00894-11.47313.06441-22.9466-.01-34.41923-.01612-2.48228,1.19272-3.22738,3.34539-3.22781A48.31091,48.31091,0,0,1,298.2585,221.27132Z"/><path class="cls-34" d="M354.61055,217.94669c-1.78342,5.55713-.69027,11.2721-.86553,16.91106-.18674,6.00744-.02125,12.02531-.053,18.03836-.01091,2.06912-.02417,4.07778,2.34255,5.0072a15.01849,15.01849,0,0,1-7.2544,1.917c-6.93458,1.0095-7.69666.465-7.80279-6.29548-.12608-8.03294-.05809-16.06843-.02007-24.10279.01036-2.19183.1152-4.36877,1.567-6.20055Q348.56745,220.58406,354.61055,217.94669Z"/><path class="cls-35" d="M342.52438,223.22145c.02143,10.068.32549,20.14665-.05532,30.19937-.18957,5.00421,1.09411,7.31972,6.31088,6.39939a30.50947,30.50947,0,0,1-12.0042,2.087q-2.649-.12119-5.299-.24275c-1.43184-1.41855-1.55268-3.26592-1.57377-5.0985q-.14929-12.96347-.00043-25.92765c.021-1.83525.15837-3.67729,1.57646-5.1009,1.66723-.39971,3.61731.54118,5.03081-1.06114Q339.5171,223.84889,342.52438,223.22145Z"/><path class="cls-36" d="M254.59164,207.98822q.04644,16.16209.08812,32.32423c.00417,2.18607-.1739,4.39126,1.00164,6.38956a55.90894,55.90894,0,0,1-13.12095-5.24283,8.232,8.232,0,0,1-1.53082-5.1449c.21492-7.0909-.6714-14.20209.391-21.2769A62.17605,62.17605,0,0,1,254.59164,207.98822Z"/><path class="cls-37" d="M241.42067,215.03738c2.28106,5.15322.76193,10.58021,1.09716,15.87175.22195,3.50355.0424,7.03254.04262,10.55008-6.41338-2.77741-12.89234-5.41514-19.21636-8.38291-3.98755-1.8713-4.12655-4.59176-.36169-7.04016C228.98074,222.13522,234.85876,218.00416,241.42067,215.03738Z"/><path class="cls-38" d="M440.57992,109.24519c-2.3226,1.06655-1.87593,3.17719-2.02763,5.13431-.34073,4.39711,1.02445,8.93509-1.0606,13.18923a159.13938,159.13938,0,0,0-19.2656-25.97782c-.74065-3.20766-1.86063-6.51139,2.1564-8.51422C427.67422,97.76769,435.0782,102.31842,440.57992,109.24519Z"/><path class="cls-39" d="M420.38249,93.07669c-1.47625,2.6458-1.57745,5.63987-2.1564,8.51357a165.2806,165.2806,0,0,0-24.22346-18.30958c-.82545-1.52153-.4307-2.632,1.1288-3.35q10.08879,4.58446,20.17726,9.16965C416.2666,91.36191,419.09742,91.233,420.38249,93.07669Z"/><path class="cls-40" d="M395.13143,79.93066q-.56438,1.67491-1.1288,3.34991a171.71237,171.71237,0,0,0-33.21249-13.56474c-.138-.82713-.05606-1.40548.999-.88292q.49716.014.994.03515,14.6585,4.51764,29.31723,9.0341Q393.61587,78.91624,395.13143,79.93066Z"/><path class="cls-41" d="M366.773,155.72171c-5.65472,1.04761-2.20339,4.64628-2.05119,7.32089-5.54233-7.1244-13.06329-11.30442-21.35123-14.34465C351.78991,148.9762,359.39076,151.98481,366.773,155.72171Z"/><path class="cls-6" d="M361.78912,68.83291q-.49943.44148-.999.88294-10.068-1.62436-20.13589-3.24872C347.90766,65.39423,354.86487,66.96622,361.78912,68.83291Z"/><path class="cls-17" d="M305.08447,341.7012c3.07531.26843,6.31067-1.06551,9.21444.92033C311.20545,342.5348,308.05922,342.97623,305.08447,341.7012Z"/><path class="cls-33" d="M303.2947,222.35435c-1.74213-.23726-3.775.8343-5.13167-1.14017C299.943,221.28084,301.75256,221.21613,303.2947,222.35435Z"/><path class="cls-5" d="M282.92931,70.99375c1.39777-1.89106,3.40977-.9232,5.17361-1.11119C286.551,71.05605,284.73,70.97764,282.92931,70.99375Z"/><path class="cls-5" d="M288.04538,69.9118c1.432-1.827,3.427-.83932,5.18539-1.03709C291.662,70.01728,289.84157,69.90394,288.04538,69.9118Z"/><path class="cls-5" d="M294.09476,68.80554c1.57735-1.69412,3.58417-.76961,5.42216-.88874A9.83473,9.83473,0,0,1,294.09476,68.80554Z"/><path class="cls-42" d="M331.479,225.53739q-.00117,18.06452-.00226,36.12807c-11.11669.46141-11.11672.46141-11.11669-10.78485,0-6.68583.29975-13.38975-.10289-20.05125-.27912-4.61821,1.441-6.01379,5.71407-5.43833A48.90221,48.90221,0,0,0,331.479,225.53739Z"/><path d="M1408.18922,281.984c-31.354,0-56.222-.12859-81.08736.07-8.68124.06947-12.59255-2.84685-11.0682-12.19693,8.81623-54.07828,17.311-108.20881,26.07522-162.29564,2.62713-16.21257,2.86387-16.28266,19.58345-16.17266,24.52492.16139,24.54757-3.24887,20.10346,23.84115-6.44568,39.29138-12.152,78.704-18.59077,117.9966-1.4528,8.86605.33929,12.84771,10.0608,11.81391a112.1731,112.1731,0,0,1,19.39668-.06959c7.21665.49252,9.13575-2.13,8.85079-9.3981-1.32024-33.69778,4.09347-66.53736,15.10914-98.3361,10.45737-30.18687,32.50157-45.75726,64.368-48.05833,17.44745-1.25985,34.67444-1.21957,51.77479,2.35526,20.096,4.20111,32.72465,17.40925,34.61443,37.7491a228.78685,228.78685,0,0,1-18.64754,114.56594c-10.12961,23.08068-29.85348,33.43687-54.13281,36.30616C1463.68955,283.80767,1432.65956,280.99426,1408.18922,281.984ZM1526.299,159.45943c-.272-12.31808,1.21781-23.8177-10.21345-30.63592-21.58383-12.87383-52.715-2.11555-61.21,21.31752-7.7273,21.31553-10.52872,43.64957-11.345,66.10683-.33673,9.26789.373,19.393,10.45612,24.979,24.29729,13.46095,54.805,1.36206,62.96-24.994C1522.82,197.25162,1525.2012,177.72233,1526.299,159.45943Z"/><path d="M918.23383,91.31226q56.6897,0,113.3792.02744c12.18726.02413,13.95072,1.89841,11.84005,13.7841-3.79529,21.3732,1.54531,21.89041-24.76547,21.65083-7.8303-.07134-15.68455.39847-23.48671-.0676-7.34329-.43864-10.07328,2.65658-11.15878,9.72629-6.34962,41.355-13.30688,82.617-19.61676,123.97777-3.26722,21.41654-2.85538,21.47928-24.51338,21.50621-20.05231.02495-20.09467.01821-16.92463-20.062,6.52309-41.31888,12.99479-82.64655,19.73834-123.92969,1.27819-7.82507-.56324-11.36623-9.16389-11.29233-32.00314.27507-64.01083.2235-96.01494.01528-6.59381-.04291-10.07244,1.96726-10.78321,8.95035a192.43327,192.43327,0,0,1-3.95274,24.15856c-1.77088,7.59572,1.16519,9.7402,8.25621,9.67859,19.74617-.17161,39.49611-.0772,59.24318.07926,13.08187.10364,14.89019,2.00405,12.42543,14.24556-4.16726,20.69673.82038,20.95266-24.68792,21.0346-17.68927.05687-35.37511,1.0187-53.065,1.11636-6.75677.03741-10.01186,2.7003-10.78705,9.286a158.68362,158.68362,0,0,1-3.04683,19.13568c-1.96922,8.05574.32342,11.04352,8.90195,10.86879,21.44147-.43714,42.89814-.18808,64.34838-.11711,14.428.04776,16.08048,2.06373,13.73744,16.177-.44578,2.68533-1.173,5.3416-1.39953,8.0424-.81464,9.71613-5.93665,12.99076-15.62335,12.86729-34.72378-.44238-69.45676-.1221-104.186-.20217-12.83939-.02956-14.24784-1.89387-12.25251-14.43015q12.91239-81.126,25.745-162.26458c1.989-12.59965,3.28718-13.88151,16.4752-13.8956q55.66916-.05931,111.33837-.01378Z"/><path d="M1697.35033,172.7903c-9.84153,24.91929-20.69576,49.49572-29.28131,74.84018-12.118,35.77148-25.97074,38.85043-66.11328,33.80878-10.22044-1.28362-13.72777-9.17735-14.48982-18.3714q-1.22186-14.74-1.76863-29.53453-2.26407-63.747-4.26988-127.50307c-.43069-14.21177.17092-14.56952,13.9219-14.66568,24.9609-.17455,26.36286-.2631,27.89008,23.88218,2.33893,36.97964,2.43911,74.09853,3.72841,111.15.152,4.36954-2.44784,11.346,3.35163,12.43376,5.65961,1.06149,6.10851-6.25991,7.77222-10.3366,15.9483-39.079,31.94038-78.14536,47.25925-117.47253,3.77108-9.68078,8.837-13.799,19.519-13.54134,24.28382.58593,24.8057.04447,27.05018,23.83467,3.41775,36.22621,5.99573,72.53106,9.095,108.78845.28695,3.35582-1.16878,8.77749,4.12341,9.00074,4.51479.19045,4.90929-5.002,6.09428-8.37066,14.91115-42.38591,29.94618-84.73079,44.40032-127.27278,2.97459-8.75492,7.10461-13.2836,16.74341-12.20971,5.71975.63732,11.57112.28561,17.35512.10863,8.77781-.26858,10.73521,3.76247,7.99542,11.54252q-27.80981,78.97331-55.52466,157.98c-5.23991,14.8386-15.301,22.79781-31.813,21.47155-7.78819-.62559-15.67994.08468-23.47935-.46009-12.32357-.86081-17.57546-5.04914-19.04242-17.20241-2.56587-21.2579-4.10793-42.64-6.04026-63.97357-.8263-9.1234-1.55579-18.25566-2.32932-27.38386Q1698.42417,173.06189,1697.35033,172.7903Z"/><path d="M652.72907,212.59259c9.14027-16.70571,18.08533-32.95283,26.93341-49.25258,10.55577-19.44567,21.22794-38.83247,31.45056-58.45256,4.91032-9.42429,11.54346-14.68576,22.65386-13.776,6.76716.554,13.61489.19693,20.42525.13014,6.30617-.0618,9.55911,2.62821,9.12858,9.24532-3.666,56.33994-7.44693,112.6732-10.78895,169.0326-.58573,9.87764-5.02535,13.14791-14.21637,12.46382a138.93725,138.93725,0,0,0-16.33981-.046c-9.28811.40609-11.4549-4.11549-10.74725-12.74793,2.66516-32.50983,4.76554-65.06586,5.35264-98.44093-6.62749,11.78042-13.29541,23.53839-19.87352,35.34632-11.26414,20.21949-22.84786,40.2736-33.57241,60.7762-7.22563,13.81366-19.43357,8.09054-29.87834,8.72836-8.96373.54714-9.39931-7.39935-10.857-13.53155-6.29671-26.48863-12.41944-53.01854-18.63646-79.52619-.913-3.8928-1.99257-7.74644-3.11048-12.06391-3.67212,2.29827-3.33105,5.62241-4.01162,8.31311C588.96186,209.15146,581.211,239.497,573.9424,269.957c-2.0893,8.75542-6.32646,13.13681-15.55017,12.08805a72.82939,72.82939,0,0,0-8.16821-.04178c-20.63406-.00462-20.73264-.08419-15.71886-19.63531q19.65679-76.65165,39.38541-153.28467c4.55732-17.71893,4.57752-17.71376,23.32864-17.7203,26.12708-.00917,26.25736-.0386,31.98606,25.31,6.376,28.21306,12.42291,56.50045,18.7849,84.71675C648.77294,204.86162,648.60114,208.87109,652.72907,212.59259Z"/><path d="M1137.025,281.97991c-2.72233-.00087-5.45519-.15515-8.165.02869-7.46412.50661-11.23707-2.4546-11.85227-10.33736-.92493-11.85107-2.88564-23.61771-4.02716-35.45682-.59967-6.22037-3.311-9.14367-9.70885-9.06846-15.31119.18022-30.62806.2533-45.93764.02993-6.07251-.08842-9.33275,2.7538-11.56756,8.00261-5.32881,12.51608-11.23508,24.79744-16.22072,37.44435-2.83542,7.19244-7.33755,9.94412-14.79923,9.4521-6.0994-.40259-12.24559-.15266-18.37026-.10115-8.11513.06835-10.31725-3.19169-6.95009-10.82476,13.04026-29.56109,25.82189-59.23579,38.75574-88.844,10.07421-23.06185,20.42684-46.0044,30.28528-69.15753,6.99-16.41649,19.214-24.02243,36.78767-23.5798,7.4741.18826,15.01981-.10651,22.40264.83693,13.84555,1.7692,18.39047,5.62465,20.7231,19.7405,3.15525,19.09409,5.25357,38.37226,7.46287,57.61071q5.7,49.63568,10.95279,99.32231c1.54188,14.37191,1.01751,14.80057-13.646,14.90072C1141.10856,281.99276,1139.06669,281.98079,1137.025,281.97991Zm-50.48855-88.64672c3.74013,0,7.52026-.34946,11.212.07315,7.54521.8638,10.44569-1.59148,9.32757-9.63051-2.338-16.80942-3.8833-33.72784-5.91382-50.58234-.34241-2.8426.215-6.78142-3.7183-7.56778-4.41067-.8817-5.68026,3.04583-7.00237,6.05961-5.87021,13.381-11.525,26.85637-17.34757,40.25858C1063.81111,193.31074,1063.781,193.29765,1086.5364,193.33319Z"/><path d="M1266.20616,91.37362c19.07554.005,38.15338.182,57.22543-.0762,8.4198-.114,11.69513,2.68508,10.18176,11.593-4.432,26.08684-1.27844,23.79-27.325,23.83161-21.11927.03373-42.24429.29265-63.355-.13183-7.71071-.155-11.24287,2.66257-12.05233,10.17229a221.299,221.299,0,0,1-3.5407,23.20209c-1.66646,7.68021,1.63021,9.64373,8.55136,9.6148,18.04893-.07565,36.11907-.27083,54.14267.48646,13.83269.5812,14.49275,2.08525,12.12924,15.48933-3.86864,21.93949-2.47523,18.761-23.00338,19.19467-16.33518.34522-32.66918,1.19157-49,1.10676-7.90815-.041-10.84607,3.56722-11.90948,10.681-2.66624,17.83573-5.87358,35.59251-8.38661,53.44807-1.22224,8.68445-5.313,12.71688-14.20293,12.07258-5.08265-.36842-10.21526.00586-15.32343-.07546-11.49507-.18284-13.36577-2.016-11.61584-13.32713,3.90258-25.22522,8.24819-50.3816,12.2852-75.58649,4.7902-29.9075,9.66094-59.8052,14.0252-89.77574,1.26952-8.71851,4.90679-12.31429,13.95134-12.07695C1228.046,91.7166,1247.13062,91.36857,1266.20616,91.37362Z"/><rect class="cls-43" x="1367.91807" y="237.82778" width="107.07696" height="7.06622"/></svg>