<svg id="Layer_2" data-name="Layer 2" xmlns="http://www.w3.org/2000/svg" viewBox="0 0 477.88 476.86"><defs><style>.cls-1,.cls-3{fill:#757575;}.cls-2,.cls-3{stroke:#000;stroke-miterlimit:10;}.cls-2{stroke-width:0.5px;}.cls-3{stroke-width:0.25px;}.cls-4{fill:#8e2316;}.cls-5{fill:#d0331f;}</style></defs><title>mlpack-icon-white_outline</title><line class="cls-1" x1="245.14" y1="9.03" x2="325.98" y2="101.28"/><rect class="cls-2" x="301.71" y="5.4" width="1.76" height="122.66" transform="translate(14.01 204.39) rotate(-41.23)"/><line class="cls-3" x1="306.46" y1="93.62" x2="373.9" y2="170.59"/><rect class="cls-2" x="356.33" y="92.51" width="1.76" height="102.33" transform="translate(-23.16 259.46) rotate(-41.23)"/><line class="cls-1" x1="361.95" y1="170.34" x2="427.29" y2="244.91"/><rect class="cls-2" x="410.77" y="169.63" width="1.76" height="99.14" transform="translate(-59.44 314.06) rotate(-41.23)"/><line class="cls-1" x1="258.05" y1="9.76" x2="156.64" y2="98.61"/><rect class="cls-2" x="156.95" y="64.88" width="134.83" height="1.76" transform="translate(-4.72 152.64) rotate(-41.24)"/><line class="cls-1" x1="177.03" y1="98.54" x2="95.99" y2="169.55"/><rect class="cls-2" x="99.66" y="144.74" width="107.75" height="1.76" transform="translate(-74.93 125.75) rotate(-41.24)"/><line class="cls-1" x1="104.44" y1="169.71" x2="168.04" y2="242.29"/><rect class="cls-2" x="152.39" y="169.32" width="1.76" height="96.5" transform="translate(-122.42 143.37) rotate(-41.23)"/><line class="cls-1" x1="153.31" y1="239.31" x2="218.27" y2="313.44"/><rect class="cls-2" x="201.94" y="238.66" width="1.76" height="98.56" transform="translate(-156.52 193.47) rotate(-41.23)"/><line x1="311.72" y1="107.09" x2="239.9" y2="170.02"/><rect class="cls-2" x="245.09" y="149.25" width="95.49" height="1.76" transform="translate(-43.36 218.7) rotate(-41.24)"/><line class="cls-1" x1="249.26" y1="168.96" x2="315.17" y2="244.17"/><rect class="cls-2" x="298.36" y="168.13" width="1.76" height="100" transform="translate(-86.6 239.71) rotate(-41.23)"/><line class="cls-1" x1="115.67" y1="170.67" x2="34.67" y2="241.65"/><rect class="cls-2" x="38.35" y="216.86" width="107.7" height="1.76" transform="translate(-137.69 103.21) rotate(-41.24)"/><rect class="cls-4" x="232.3" width="31.64" height="31.64"/><rect class="cls-4" x="153.07" y="87.92" width="31.64" height="31.64"/><rect class="cls-5" x="298.22" y="87.92" width="31.64" height="31.64"/><rect class="cls-4" x="236.91" y="159.42" width="31.64" height="31.64"/><rect class="cls-5" x="348.16" y="159.42" width="31.64" height="31.64"/><rect class="cls-5" x="290.07" y="233.19" width="31.64" height="31.64"/><rect class="cls-4" x="401.82" y="233.19" width="31.64" height="31.64"/><rect class="cls-5" x="144.14" y="233.19" width="31.64" height="31.64"/><rect class="cls-4" x="196.08" y="305.88" width="31.64" height="31.64"/><rect class="cls-5" x="91.27" y="159.42" width="31.64" height="31.64"/><rect class="cls-5" x="27.43" y="233.19" width="31.64" height="31.64"/><path d="M17,459.49V389.73a70,70,0,0,1,31.57-7.59q12.36,0,20.32,5.73a75,75,0,0,1,27.88-5.73q14.41,0,22.47,7.51t8.06,21v48.87H113.42V409.66q0-6.54-3.21-10.56t-12.52-4a53.6,53.6,0,0,0-20.41,4.24,31.35,31.35,0,0,1,1.78,10.86v49.31H65.15V409.81q0-6.69-3.54-10.56t-14.05-3.87a63.35,63.35,0,0,0-16.62,2.31v61.81Z" transform="translate(-17.03 -11.57)"/><path d="M153.73,459.49V354.55h13.91V459.49Z" transform="translate(-17.03 -11.57)"/><path d="M190.92,488.43V406.76a26.8,26.8,0,0,1,.44-4.87,25.27,25.27,0,0,1,2.27-6.14,21.55,21.55,0,0,1,4.94-6.55,26,26,0,0,1,9.36-4.87,46.56,46.56,0,0,1,14.49-2,45.83,45.83,0,0,1,8.28.74,30.32,30.32,0,0,1,8.84,3.35,28.45,28.45,0,0,1,8.28,6.77,33.75,33.75,0,0,1,5.83,11.71A59,59,0,0,1,256,422.31q0,11.31-3.08,19.3t-8.51,11.86a37.49,37.49,0,0,1-11,5.54A43.17,43.17,0,0,1,221,460.69a58.17,58.17,0,0,1-16.17-2.23v30Zm13.91-43.29a44.55,44.55,0,0,0,16.17,3,31.15,31.15,0,0,0,8-.89,18.2,18.2,0,0,0,6.52-3.42q3.2-2.53,4.88-7.92a46.77,46.77,0,0,0,1.68-13.65,54.2,54.2,0,0,0-1.68-14.69q-1.68-5.84-4.81-8.52a18.06,18.06,0,0,0-6.19-3.64,23.26,23.26,0,0,0-7-1q-17.59,0-17.59,11.38Z" transform="translate(-17.03 -11.57)"/><path d="M271,435.47q0-11.27,9.53-17.61t26.28-6.34a104.23,104.23,0,0,1,13.8.89q-.45-9.59-5.23-13.76t-15.7-4.17a65.52,65.52,0,0,0-21.05,3.79v-11.9a64.26,64.26,0,0,1,23-4.09q15.9,0,24.55,8.22t8.66,23.62v21.94a24.7,24.7,0,0,1-.49,4.87,27.77,27.77,0,0,1-2.31,6.21,21.26,21.26,0,0,1-5,6.62q-3.13,2.83-9.41,4.87a52.23,52.23,0,0,1-29.22-.08,27.76,27.76,0,0,1-9.53-5,21.48,21.48,0,0,1-5.1-6.71,25.47,25.47,0,0,1-2.35-6.42A28.78,28.78,0,0,1,271,435.47Zm13.91-.15q0,12.87,18.26,12.87h.22q17.22,0,17.22-12.35V423.56a90.16,90.16,0,0,0-13.21-1,39.07,39.07,0,0,0-6.38.55,55.86,55.86,0,0,0-7.2,1.74,14.13,14.13,0,0,0-6.38,3.92A9.27,9.27,0,0,0,284.93,435.32Z" transform="translate(-17.03 -11.57)"/><path d="M359.2,450.63q-9-10.05-9-29.15t9-29.15q9-10.05,26.37-10.05A60.67,60.67,0,0,1,408,386.53v13.25a47.61,47.61,0,0,0-20.9-5h-.3q-10.49,0-16.44,5.41t-6,21.29a47.37,47.37,0,0,0,1.75,14,16.22,16.22,0,0,0,5.21,8.24,19.13,19.13,0,0,0,7,3.58,34.69,34.69,0,0,0,8.44.89,49.08,49.08,0,0,0,21.2-4.85V456.5a61.3,61.3,0,0,1-22.39,4.19Q368.23,460.69,359.2,450.63Z" transform="translate(-17.03 -11.57)"/><path d="M424.84,459.49V354.55h13.91v60.77l32.88-31.83h18.89l-33,31.68,37.41,44.33H476.38l-28.19-35.33-9.45,9.15v26.18Z" transform="translate(-17.03 -11.57)"/></svg>