<svg id="Layer_1" data-name="Layer 1" xmlns="http://www.w3.org/2000/svg" viewBox="0 0 414.68729 311.5263"><defs><style>.cls-1{fill:#737273;}.cls-2{fill:#346dd0;}</style></defs><path class="cls-1" d="M31.04352,285.6347c0-3.5498.05566-8.27441.123-11.03222h-.14942c-.6709,4.76464-1.623,12.4873-2.65137,18.3496H24.12457c-.7998-6.09765-1.749-13.78515-2.37695-18.40527h-.1709c.11231,2.68457.21289,7.30176.21289,11.25977v7.1455H17.17243V270.10736H24.5611c.752,4.76855,1.501,10.50195,1.8457,13.70508h.10449c.43848-3.40137,1.29785-8.36329,2.15625-13.70508H35.983v22.84472H31.04352Z"/><path class="cls-1" d="M52.21344,288.5683c0,1.21582.08008,3.49023.13574,4.38378H47.68024a8.15194,8.15194,0,0,1-.20508-1.54394,4.518,4.518,0,0,1-3.97168,1.84863c-3.15723,0-4.72656-2.43359-4.72656-5.48144,0-3.88868,2.62109-5.8418,6.94531-5.8418.51758,0,1.05273,0,1.41309.02148v-1.73144c0-.959-.1377-1.76856-1.40528-1.76856-1.17871,0-1.38183.74512-1.44824,2.01465H39.43219c.06738-3.13965,1.59473-5.60351,6.50293-5.60351,4.1416,0,6.27832,1.666,6.27832,5.334Zm-5.01269-3.34864a6.912,6.912,0,0,0-.98047-.04394c-1.78614,0-2.35254.94531-2.35254,2.1582,0,1.03027.42773,1.90723,1.54,1.90723,1.52246,0,1.793-1.17969,1.793-3.17969Z"/><path class="cls-1" d="M68.85211,286.62494c-.06836,2.5205-.95508,6.63183-6.6709,6.63183-5.43945,0-6.69043-3.99023-6.69043-9.3291,0-5.4082,1.96192-9.083,6.97657-9.083,5.84863,0,6.374,4.57715,6.39648,6.46582H63.80231c-.02149-1.33008-.10352-2.6084-1.39258-2.6084-1.24316,0-1.67969,1.30372-1.67969,5.21192,0,3.99805.35449,5.44922,1.64551,5.44922,1.34375,0,1.49219-1.29492,1.57031-2.73828Z"/><path class="cls-1" d="M77.02008,269.02826v7.68554a4.25663,4.25663,0,0,1,3.89063-1.86914c3.084,0,4.376,2.03321,4.376,5.45508v12.65234h-5.1709V281.16693c0-1.35059-.2246-2.19922-1.49218-2.19922-1.30078,0-1.60352.96875-1.60352,2.75391v11.23046H71.85016V269.02826Z"/><path class="cls-1" d="M89.20075,275.15912h5.16992v17.793H89.20075Zm.02148-6.13086h5.16992v4.18847H89.22223Z"/><path class="cls-1" d="M98.2984,280.746c0-3.667,0-4.66309-.03418-5.58691H103.23a13.3866,13.3866,0,0,1,.14649,1.62988,4.32015,4.32015,0,0,1,3.87109-1.94434c3.01367,0,4.48731,1.918,4.48731,5.30762v12.7998H106.564v-11.833c0-1.37207-.2461-2.15137-1.46973-2.15137-1.10352,0-1.626.60352-1.626,2.57422v11.41015H98.2984Z"/><path class="cls-1" d="M120.16266,285.2929c0,2.31836.22656,4.09278,1.83594,4.09278,1.44433,0,1.65722-1.18945,1.71289-2.001h4.94336c-.127,1.19336-.65332,5.89356-6.75977,5.89356-5.91406,0-6.87988-4.51856-6.87988-9.35157,0-5.998,2.40234-9.06054,6.9834-9.06054,5.25683,0,6.76758,3.56152,6.76758,8.48144,0,.60547-.02149,1.58008-.043,1.94531Zm3.51367-3.27636c0-1.72949-.07812-3.33789-1.69043-3.33789-1.63183,0-1.7793,1.69531-1.7793,3.33789Z"/><path class="cls-1" d="M138.816,270.10736h5.249v18.581h7.24805l-.48926,4.26367H138.816Z"/><path class="cls-1" d="M158.5152,285.2929c0,2.31836.22656,4.09278,1.83594,4.09278,1.44433,0,1.65722-1.18945,1.71289-2.001h4.94336c-.127,1.19336-.65332,5.89356-6.75977,5.89356-5.91406,0-6.87988-4.51856-6.87988-9.35157,0-5.998,2.40234-9.06054,6.9834-9.06054,5.25683,0,6.76757,3.56152,6.76757,8.48144,0,.60547-.02148,1.58008-.043,1.94531Zm3.51367-3.27636c0-1.72949-.07812-3.33789-1.69043-3.33789-1.63184,0-1.7793,1.69531-1.7793,3.33789Z"/><path class="cls-1" d="M183.09918,288.5683c0,1.21582.08008,3.49023.13575,4.38378H178.566a8.15194,8.15194,0,0,1-.20508-1.54394,4.51914,4.51914,0,0,1-3.97168,1.84863c-3.15722,0-4.72656-2.43359-4.72656-5.48144,0-3.88868,2.62109-5.8418,6.94531-5.8418.51758,0,1.05274,0,1.41309.02148v-1.73144c0-.959-.1377-1.76856-1.40528-1.76856-1.17871,0-1.38183.74512-1.44824,2.01465h-4.84961c.06739-3.13965,1.59473-5.60351,6.50293-5.60351,4.1416,0,6.27832,1.666,6.27832,5.334Zm-5.01269-3.34864a6.91188,6.91188,0,0,0-.98047-.04394c-1.78613,0-2.35254.94531-2.35254,2.1582,0,1.03027.42773,1.90723,1.54,1.90723,1.52246,0,1.793-1.17969,1.793-3.17969Z"/><path class="cls-1" d="M187.00934,281.20794c0-3.01562-.01172-4.84472-.0459-6.04882h4.94336a27.36282,27.36282,0,0,1,.11328,2.88964,4.38908,4.38908,0,0,1,4.51758-3.18261v5.59277c-3.03125-.06543-4.3584.71-4.3584,3.86816v8.625h-5.16992Z"/><path class="cls-1" d="M199.2193,280.746c0-3.667,0-4.66309-.03418-5.58691h4.96582a13.3886,13.3886,0,0,1,.14649,1.62988,4.32015,4.32015,0,0,1,3.87109-1.94434c3.01367,0,4.4873,1.918,4.4873,5.30762v12.7998h-5.17089v-11.833c0-1.37207-.2461-2.15137-1.46973-2.15137-1.10352,0-1.626.60352-1.626,2.57422v11.41015H199.2193Z"/><path class="cls-1" d="M216.53571,275.15912h5.16992v17.793h-5.16992Zm.02148-6.13086h5.16992v4.18847h-5.16992Z"/><path class="cls-1" d="M225.63336,280.746c0-3.667,0-4.66309-.03418-5.58691H230.565a13.3866,13.3866,0,0,1,.14649,1.62988,4.32016,4.32016,0,0,1,3.87109-1.94434c3.01367,0,4.48731,1.918,4.48731,5.30762v12.7998H233.899v-11.833c0-1.37207-.2461-2.15137-1.46973-2.15137-1.10351,0-1.626.60352-1.626,2.57422v11.41015h-5.16992Z"/><path class="cls-1" d="M256.30621,291.35638c0,5.11035-1.51074,8.002-7.24511,8.002-5.09668,0-6.42871-2.7998-6.50684-5.28418H247.608c.06738.57032.22852,1.47071,1.70508,1.47071,1.56641,0,1.86719-1.21094,1.86719-3.65332v-1.19141a3.82649,3.82649,0,0,1-3.66406,1.915c-3.7295,0-5.166-3.21875-5.166-8.55273,0-6.20313,2.02441-9.19629,5.55078-9.19629,2.13379,0,2.97266.97558,3.31543,1.73535.0332-.4375.125-1.04981.19238-1.44238h4.96485c-.03321,1.08105-.06739,3.042-.06739,5.583Zm-8.68457-7.417c0,3.50781.59766,4.64355,1.835,4.64355,1.49024,0,1.76758-1.43652,1.76758-5.06445,0-3.09766-.05566-4.55078-1.68945-4.55078C248.28668,278.96771,247.62164,280.164,247.62164,283.93939Z"/><path class="cls-1" d="M271.34137,285.2929c0,2.31836.22656,4.09278,1.83594,4.09278,1.44433,0,1.65722-1.18945,1.71289-2.001h4.94336c-.127,1.19336-.65332,5.89356-6.75977,5.89356-5.91406,0-6.87988-4.51856-6.87988-9.35157,0-5.998,2.40234-9.06054,6.9834-9.06054,5.25683,0,6.76758,3.56152,6.76758,8.48144,0,.60547-.02149,1.58008-.043,1.94531Zm3.51367-3.27636c0-1.72949-.07812-3.33789-1.69043-3.33789-1.63183,0-1.77929,1.69531-1.77929,3.33789Z"/><path class="cls-1" d="M291.80719,292.95208l-2.36035-8.01171h-.082l-2.47461,8.01171h-5.42774l4.66114-11.623-4.52735-11.22168h5.82325l2.19043,7.1748.09375-.02246,2.21777-7.15234h5.3916L292.78082,280.829l4.84864,12.123Z"/><path class="cls-1" d="M312.22614,286.62494c-.06836,2.5205-.95508,6.63183-6.6709,6.63183-5.43946,0-6.69043-3.99023-6.69043-9.3291,0-5.4082,1.96191-9.083,6.97656-9.083,5.84863,0,6.374,4.57715,6.39648,6.46582h-5.06152c-.02148-1.33008-.10351-2.6084-1.39258-2.6084-1.24316,0-1.67968,1.30372-1.67968,5.21192,0,3.99805.35449,5.44922,1.6455,5.44922,1.34375,0,1.49219-1.29492,1.57032-2.73828Z"/><path class="cls-1" d="M320.3941,269.02826v7.68554a4.25664,4.25664,0,0,1,3.89063-1.86914c3.084,0,4.376,2.03321,4.376,5.45508v12.65234h-5.1709V281.16693c0-1.35059-.22461-2.19922-1.49219-2.19922-1.30078,0-1.60352.96875-1.60352,2.75391v11.23046h-5.16992V269.02826Z"/><path class="cls-1" d="M345.13434,288.5683c0,1.21582.08008,3.49023.13574,4.38378h-4.66894a8.15194,8.15194,0,0,1-.20508-1.54394,4.51914,4.51914,0,0,1-3.97168,1.84863c-3.15723,0-4.72656-2.43359-4.72656-5.48144,0-3.88868,2.62109-5.8418,6.94531-5.8418.51758,0,1.05273,0,1.41308.02148v-1.73144c0-.959-.13769-1.76856-1.40527-1.76856-1.17871,0-1.38184.74512-1.44824,2.01465h-4.84961c.06738-3.13965,1.59473-5.60351,6.50293-5.60351,4.1416,0,6.27832,1.666,6.27832,5.334Zm-5.0127-3.34864a6.91173,6.91173,0,0,0-.98046-.04394c-1.78614,0-2.35254.94531-2.35254,2.1582,0,1.03027.42773,1.90723,1.54,1.90723,1.52246,0,1.793-1.17969,1.793-3.17969Z"/><path class="cls-1" d="M349.04547,280.746c0-3.667,0-4.66309-.03418-5.58691h4.96582a13.3866,13.3866,0,0,1,.14649,1.62988,4.32015,4.32015,0,0,1,3.87109-1.94434c3.01367,0,4.48731,1.918,4.48731,5.30762v12.7998h-5.1709v-11.833c0-1.37207-.2461-2.15137-1.46973-2.15137-1.10352,0-1.626.60352-1.626,2.57422v11.41015h-5.16992Z"/><path class="cls-1" d="M379.71832,291.35638c0,5.11035-1.51074,8.002-7.24511,8.002-5.09668,0-6.42871-2.7998-6.50684-5.28418h5.05371c.06738.57032.22852,1.47071,1.70508,1.47071,1.56641,0,1.86719-1.21094,1.86719-3.65332v-1.19141a3.8265,3.8265,0,0,1-3.66407,1.915c-3.72949,0-5.166-3.21875-5.166-8.55273,0-6.20313,2.02441-9.19629,5.55078-9.19629,2.13379,0,2.97266.97558,3.31543,1.73535.0332-.4375.125-1.04981.19238-1.44238h4.96485c-.03321,1.08105-.06739,3.042-.06739,5.583Zm-8.68457-7.417c0,3.50781.59766,4.64355,1.835,4.64355,1.49024,0,1.76758-1.43652,1.76758-5.06445,0-3.09766-.05566-4.55078-1.68945-4.55078C371.69879,278.96771,371.03375,280.164,371.03375,283.93939Z"/><path class="cls-1" d="M388.15778,285.2929c0,2.31836.22656,4.09278,1.83593,4.09278,1.44434,0,1.65723-1.18945,1.71289-2.001H396.65c-.127,1.19336-.65332,5.89356-6.75976,5.89356-5.91406,0-6.87988-4.51856-6.87988-9.35157,0-5.998,2.40234-9.06054,6.98339-9.06054,5.25684,0,6.76758,3.56152,6.76758,8.48144,0,.60547-.02148,1.58008-.043,1.94531Zm3.51367-3.27636c0-1.72949-.07813-3.33789-1.69043-3.33789-1.63184,0-1.7793,1.69531-1.7793,3.33789Z"/><path class="cls-2" d="M15.40146,178.6883c.55706-1.35507,1.00841-2.76584,1.68955-4.05551,2.8909-5.47357,7.50727-8.37447,13.67309-8.305,6.46632.07286,11.077,3.34758,13.725,9.20439.69249,1.53164,1.05458,2.63451,3.22043,2.62663,28.30763-.10315,56.61571-.07677,84.92368-.08764.31267-.00011.62532-.06277,1.76305-.18455-6.57838-3.96515-12.15987-8.18383-16.55009-13.68386.39414-.98085,1.13421-.58345,1.69378-.58416,16.28222-.02037,32.56459.013,48.84648-.0619,1.96833-.009,2.88164.48114,3.65873,2.45853a15.15534,15.15534,0,0,0,15.201,9.4438,15.44812,15.44812,0,0,0,13.694-11.967,15.01858,15.01858,0,0,0-7.01848-16.13333c-8.11128-5.09869-18.11785-1.90095-21.85961,7.19709-.80305,1.95262-1.70044,2.43035-3.665,2.42185q-26.49837-.115-52.99727.0076c-2.0912.01107-3.45218-.45611-4.169-2.46151a15.15815,15.15815,0,0,1-.96077-2.00315c-.95953-5.12837-4.40368-6.02562-8.85076-5.32206a6.2819,6.2819,0,0,1-1.59012.07569c-5.15158-.51778-8.89051.32177-11.72394,5.87629-3.05523,5.9893-11.21345,7.5068-17.51561,4.90575a15.07413,15.07413,0,0,1-9.15834-15.935c.7489-6.57775,6.04409-11.80728,13.0797-12.91749a14.58921,14.58921,0,0,1,15.48439,8.77879c1.04908,2.71708,2.4765,3.145,4.942,3.041,3.07308-.12965,6.16143.043,9.24095.14957,1.52376.05274,2.17423-.39261,1.73115-2.03718a32.73472,32.73472,0,0,1-.6084-3.77316c-.64615-4.40616-.416-4.50721,4.15982-4.45156,8.69684.10578,17.396.04717,26.094.02051,3.00346-.00921,5.335.00165,6.89815,3.75312,2.72929,6.55021,12.3466,10.055,18.44248,7.56774,7.68433-3.13535,12.05434-11.48276,9.87458-18.862-1.72564-5.84184-7.60542-10.44551-13.985-10.94974a15.18606,15.18606,0,0,0-14.72652,9.2241c-.77983,1.92928-1.66485,2.51108-3.67282,2.49272q-15.45525-.14128-30.91225.02337c-2.383.0285-2.91789-.82118-2.62427-2.97692.279-2.0488,1.7629-4.9246.48143-5.94432-1.39564-1.11056-4.25124-.45428-6.4705-.457-15.85674-.01943-31.71365.02148-47.57008-.05027-2.01937-.00914-3.14554.36117-3.97669,2.49107a14.83227,14.83227,0,0,1-17.12515,8.99409A15.07987,15.07987,0,0,1,18.43962,111.7934a14.89728,14.89728,0,0,1,12.15145-15.037,14.7068,14.7068,0,0,1,16.62977,8.79839c.93737,2.34443,2.1261,2.83344,4.427,2.82153q26.65779-.138,53.31656-.00667c2.09116.00915,3.15866-.51488,3.98927-2.58419,2.99485-7.461,3.09632-7.4205,11.136-7.42054,14.0476-.00007,28.0955.0454,42.14246-.049,2.09032-.014,3.07192.4869,3.90426,2.56687a14.96135,14.96135,0,0,0,17.15622,8.95271,15.1408,15.1408,0,0,0-.57909-29.74636c-6.80136-1.40126-13.912,2.53516-16.76268,9.2623-.46263,1.09175-.476,2.413-2.36286,2.40337-14.04713-.07151-28.09481-.0316-42.14233-.02675-1.13959.00039-2.27918,0-4.04313,0a56.95445,56.95445,0,0,1,16.50244-13.97632c-.7801-1.0447-1.811-.57481-2.65792-.57734-11.49335-.03427-22.9874.04011-34.47983-.06691-2.04633-.01906-2.85011.63716-3.60734,2.5145a14.92382,14.92382,0,0,1-17.16392,8.97369,15.03524,15.03524,0,0,1,.38973-29.47108A14.64634,14.64634,0,0,1,93.005,67.91787c1.02226,2.65724,2.46187,2.85881,4.73426,2.85686q66.24715-.05685,132.49436-.02915c1.03845,0,2.07692,0,3.933,0-17.56924,15.46171-26.53127,34.442-26.60067,56.98467-.06938,22.53665,9.18738,41.27786,26.59654,56.79615-1.77717,0-2.886,0-3.99488,0q-90.51111-.00259-181.02217-.05493c-2.49854-.0027-3.88879.41179-4.92242,3.05684-2.211,5.65793-8.33748,9.199-14.24807,8.8954A15.41233,15.41233,0,0,1,16.268,186.12961c-.27032-.78407-.12749-1.72681-.86657-2.33738Z"/><path class="cls-2" d="M218.66948,190.77325c8.12033,0,15.42026.00444,22.72017-.00456a5.74555,5.74555,0,0,1,2.8777,1.245A74.95423,74.95423,0,0,0,355.6401,141.38788c7.8768-40.54541-20.29033-80.71127-61.07247-87.24317a74.57075,74.57075,0,0,0-50.65859,9.384,6.22513,6.22513,0,0,1-3.2723,1.0203c-7.02064-.04616-14.04176-.02229-21.92809-.02229a54.98523,54.98523,0,0,1,4.71506-4.33831c1.74581-1.25747,2.0439-2.40178,1.195-4.47442-2.57287-6.2823-4.86292-12.68072-7.23525-19.04428-1.48909-3.99432-1.06178-5.19524,2.534-7.28446,2.9403-1.70837,5.9109-3.36487,8.84468-5.08417,2.50322-1.467,4.56015-1.14419,6.424,1.17562,4.5279,5.63556,9.19938,11.15675,13.67988,16.829,1.12277,1.42139,2.0782,1.71868,3.72688,1.07073a65.52873,65.52873,0,0,1,13.21916-3.513,2.59324,2.59324,0,0,0,2.52578-2.59931c1.00251-6.72051,2.16167-13.41764,3.25406-20.12486.77035-4.72979,1.68046-5.52012,6.43224-5.52408,3.08618-.00257,6.17574.091,9.25763-.02351,3.183-.1183,4.9215,1.09363,5.40853,4.41159,1.04838,7.1421,2.37761,14.2427,3.48,21.37754.22367,1.44783.57952,2.19641,2.194,2.475a71.25642,71.25642,0,0,1,14.12628,3.826c1.77258.701,2.29473-.39151,3.06794-1.32515,4.40814-5.32279,8.78723-10.66959,13.19221-15.995,2.75695-3.333,4.10976-3.55368,7.89329-1.34747,2.75442,1.60611,5.45639,3.30961,8.26826,4.80753,2.85649,1.52169,3.60523,3.52867,2.38566,6.57381-2.6042,6.50246-4.954,13.10706-7.58454,19.59839-.77857,1.92127-.45832,3.01232,1.11588,4.29786a65.24145,65.24145,0,0,1,9.225,9.2467c1.1489,1.40527,2.11984,1.59362,3.78245.94571,6.42946-2.50552,12.91889-4.858,19.39438-7.24479,4.18473-1.54247,5.29571-1.12918,7.51,2.6982,1.54272,2.66655,3.09133,5.32976,4.61663,8.00626,1.99344,3.4981,1.75569,4.85166-1.31978,7.36163-5.43731,4.43752-10.84578,8.91236-16.36436,13.24707-1.3911,1.09269-1.74855,1.98047-1.09948,3.67326a56.00477,56.00477,0,0,1,3.34206,12.59432c.29556,2.209,1.359,2.90251,3.43572,3.211,6.93576,1.03034,13.83153,2.32721,20.7619,3.39724,3.0729.47443,4.45086,2.06356,4.37322,5.15225-.08543,3.40009.00051,6.80414-.02046,10.20628-.02323,3.77733-.94892,4.90764-4.67907,5.52349-6.91993,1.14252-13.837,2.31762-20.78364,3.27408a2.99434,2.99434,0,0,0-3.01248,2.90919,62.614,62.614,0,0,1-3.49875,12.88387c-.685,1.7618-.17422,2.6397,1.16352,3.709,5.4821,4.38186,10.8869,8.86062,16.29857,13.32982,2.94789,2.4345,3.19824,3.87987,1.32613,7.11108-1.75717,3.03277-3.5785,6.02962-5.27958,9.09325-1.44294,2.59879-3.38045,3.19282-6.13666,2.116-6.72723-2.62825-13.51987-5.08956-20.24675-7.71864-1.6188-.63266-2.61792-.496-3.78783.93584a64.84272,64.84272,0,0,1-9.7091,9.66156c-1.38417,1.10587-1.317,2.07616-.77015,3.50064,2.51136,6.5418,4.95923,13.10811,7.40047,19.67654,1.40646,3.78431.95118,5.05782-2.476,7.0553q-4.26925,2.48826-8.57742,4.90969c-3.28886,1.8498-4.649,1.59558-7.1078-1.39206-4.39148-5.336-8.83768-10.6312-13.0715-16.09018-1.36725-1.76291-2.5229-1.97326-4.50443-1.19668a57.10685,57.10685,0,0,1-12.3019,3.2528,2.98364,2.98364,0,0,0-2.96249,2.92978c-1.01549,6.719-2.19086,13.41367-3.27042,20.12322-.71812,4.46313-1.67764,5.30044-6.27646,5.29545-3.299-.00358-6.59818-.02383-9.89709-.0041-2.90978.0174-4.44738-1.28691-4.88249-4.27023-.99586-6.828-2.28159-13.61394-3.26354-20.44364-.331-2.30183-1.19094-3.4638-3.59457-3.79782a54.821,54.821,0,0,1-12.278-3.32488,2.74081,2.74081,0,0,0-3.72791,1.02028c-4.37021,5.48908-8.883,10.86525-13.36595,16.26423-2.55552,3.07769-3.87171,3.286-7.36287,1.29081-2.7683-1.58205-5.54737-3.14548-8.30636-4.74357-3.53638-2.04838-3.9818-3.25841-2.55665-7.01529,2.37063-6.24919,4.677-12.52522,7.19847-18.71351.92522-2.2707,1.05916-3.90058-1.28787-5.34254C221.5464,193.78157,220.51174,192.48117,218.66948,190.77325Z"/><path class="cls-1" d="M345.16954,127.79062c-.27958,35.14554-28.66125,63.39052-63.66739,62.798-36.4208-.61648-59.96263-28.63689-62.3754-57.80364-3.1252-37.77848,27.12821-68.31152,63.296-68.11916C317.23994,64.851,345.4437,93.32821,345.16954,127.79062ZM282.1423,92.55624c-17.224-.02424-35.19393,12.67129-35.35512,35.17324-.14427,20.13846,15.7856,34.78459,35.136,34.98536a35.08005,35.08005,0,1,0,.21907-70.1586Z"/></svg>