<svg id="Layer_1" data-name="Layer 1" xmlns="http://www.w3.org/2000/svg" viewBox="0 0 312.78 270.1344"><defs><style>.cls-1{fill:#252f3e;}.cls-2{fill:#f90;fill-rule:evenodd;}</style></defs><title>amazon-web-services-mms</title><path class="cls-1" d="M90.58654,70.9311a29.43246,29.43246,0,0,0,1.3,8.9,53.52555,53.52555,0,0,0,3.2,7.2,4.34974,4.34974,0,0,1,.7,2.3,3.95915,3.95915,0,0,1-1.9,3l-6.3,4.2a4.79472,4.79472,0,0,1-2.6.9,4.60134,4.60134,0,0,1-3-1.4,30.93667,30.93667,0,0,1-3.6-4.7c-1-1.7-2-3.6-3.1-5.9q-11.7,13.8-29.4,13.8c-8.4,0-15.1-2.4-20-7.2s-7.4-11.2-7.4-19.2c0-8.5,3-15.4,9.1-20.6s14.2-7.8,24.5-7.8a79.17554,79.17554,0,0,1,10.6.8c3.7.5,7.5,1.3,11.5,2.2v-7.3c0-7.6-1.6-12.9-4.7-16-3.2-3.1-8.6-4.6-16.3-4.6a45.49849,45.49849,0,0,0-10.8,1.3,79.68071,79.68071,0,0,0-10.8,3.4,28.69334,28.69334,0,0,1-3.5,1.3,6.13374,6.13374,0,0,1-1.6.3c-1.4,0-2.1-1-2.1-3.1v-4.9a6.3276,6.3276,0,0,1,.7-3.5,7.48785,7.48785,0,0,1,2.8-2.1,57.57126,57.57126,0,0,1,12.6-4.5,60.62763,60.62763,0,0,1,15.6-1.9c11.9,0,20.6,2.7,26.2,8.1,5.5,5.4,8.3,13.6,8.3,24.6v32.4Zm-40.4,15.2a32.40857,32.40857,0,0,0,10.3-1.8,22.28367,22.28367,0,0,0,9.5-6.4,15.87265,15.87265,0,0,0,3.4-6.4,35.90022,35.90022,0,0,0,1-8.7v-4.2a83.51147,83.51147,0,0,0-9.2-1.7,75.34942,75.34942,0,0,0-9.4-.6c-6.7,0-11.6,1.3-14.9,4s-4.9,6.5-4.9,11.5c0,4.7,1.2,8.2,3.7,10.6,2.4,2.5,5.9,3.7,10.5,3.7Zm80.3,10.8a5.58275,5.58275,0,0,1-3.8-1,8.1504,8.1504,0,0,1-2.1-3.9l-23.5-77.3a17.5169,17.5169,0,0,1-.9-4,2.19368,2.19368,0,0,1,2.4-2.5h9.8c1.9,0,3.2.3,3.9,1,.8.6,1.4,2,2,3.9l16.8,66.2,15.6-66.2c.5-2,1.1-3.3,1.9-3.9a6.87877,6.87877,0,0,1,4-1h8c1.9,0,3.2.3,4,1a6.7383,6.7383,0,0,1,1.9,3.9l15.8,67,17.3-67a8.57515,8.57515,0,0,1,2-3.9,6.52432,6.52432,0,0,1,3.9-1h9.3a2.2229,2.2229,0,0,1,2.5,2.5,9.97234,9.97234,0,0,1-.2,1.6,14.22907,14.22907,0,0,1-.7,2.5l-24.1,77.3q-.9,3-2.1,3.9a6.39766,6.39766,0,0,1-3.8,1h-8.6c-1.9,0-3.2-.3-4-1a7.0893,7.0893,0,0,1-1.9-4l-15.5-64.5-15.4,64.4a7.80532,7.80532,0,0,1-1.9,4,6.19829,6.19829,0,0,1-4,1Zm128.5,2.7a66.17444,66.17444,0,0,1-15.4-1.8c-5-1.2-8.9-2.5-11.5-4a7.20532,7.20532,0,0,1-3.1-2.8,7.05851,7.05851,0,0,1-.6-2.8v-5.1c0-2.1.8-3.1,2.3-3.1a5.66259,5.66259,0,0,1,1.8.3c.6.2,1.5.6,2.5,1a54.39339,54.39339,0,0,0,11,3.5,60.05408,60.05408,0,0,0,11.9,1.2c6.3,0,11.2-1.1,14.6-3.3a10.76863,10.76863,0,0,0,5.2-9.5,9.73861,9.73861,0,0,0-2.7-7c-1.8-1.9-5.2-3.6-10.1-5.2l-14.5-4.5c-7.3-2.3-12.7-5.7-16-10.2a23.82512,23.82512,0,0,1-5-14.5,22.25541,22.25541,0,0,1,2.7-11.1,25.71209,25.71209,0,0,1,7.2-8.2,31.73854,31.73854,0,0,1,10.4-5.2,43.58429,43.58429,0,0,1,12.6-1.7,50.20259,50.20259,0,0,1,6.7.4c2.3.3,4.4.7,6.5,1.1,2,.5,3.9,1,5.7,1.6a21.826,21.826,0,0,1,4.2,1.8,8.6474,8.6474,0,0,1,3,2.5,5.389,5.389,0,0,1,.9,3.3v4.7c0,2.1-.8,3.2-2.3,3.2a10.4019,10.4019,0,0,1-3.8-1.2,45.74835,45.74835,0,0,0-19.2-3.9c-5.7,0-10.2.9-13.3,2.8s-4.7,4.8-4.7,8.9a9.44284,9.44284,0,0,0,3,7.1c2,1.9,5.7,3.8,11,5.5l14.2,4.5c7.2,2.3,12.4,5.5,15.5,9.6a22.62847,22.62847,0,0,1,4.6,14,25.70765,25.70765,0,0,1-2.6,11.6,26.8941,26.8941,0,0,1-7.3,8.8,32.23454,32.23454,0,0,1-11.1,5.6,47.552,47.552,0,0,1-14.3,2.1Z"/><path class="cls-2" d="M277.88653,148.23109c-32.9,24.3-80.7,37.2-121.8,37.2-57.6,0-109.5-21.3-148.7-56.7-3.1-2.8-.3-6.6,3.4-4.4,42.4,24.6,94.7,39.5,148.8,39.5a296.93561,296.93561,0,0,0,113.5-23.2C278.58654,138.13109,283.28656,144.23109,277.88653,148.23109Z"/><path class="cls-2" d="M291.58654,132.6311c-4.2-5.4-27.8-2.6-38.5-1.3-3.2.4-3.7-2.4-.8-4.5,18.8-13.2,49.7-9.4,53.3-5,3.6,4.5-1,35.4-18.6,50.2-2.7,2.3-5.3,1.1-4.1-1.9C286.88653,160.23111,295.78652,137.9311,291.58654,132.6311Z"/><path class="cls-1" d="M111.76915,216.69569h15.21533v50.60546h-9.853V233.07264q0-1.47657.03418-4.1377.03371-2.66015.03418-4.10254L107.61,267.30115H97.33311l-9.521-42.46875q0,1.44141.03418,4.10254.03369,2.66163.03418,4.1377v34.22851h-9.853V216.69569H93.41466l9.21142,39.791Z"/><path class="cls-1" d="M170.33946,216.69569h15.21485v50.60546h-9.85254V233.07264q0-1.47657.03418-4.1377.03369-2.66015.03418-4.10254l-9.58985,42.46875H155.90294l-9.521-42.46875q0,1.44141.03418,4.10254.03369,2.66163.03418,4.1377v34.22851h-9.853V216.69569H151.985l9.21094,39.791Z"/><path class="cls-1" d="M202.96153,251.68006a10.2602,10.2602,0,0,0,1.92774,5.18359q2.62793,3.12451,9.00879,3.125a19.39489,19.39489,0,0,0,6.2041-.82421q4.522-1.57911,4.52246-5.8711a4.32654,4.32654,0,0,0-2.21485-3.8789,24.03423,24.03423,0,0,0-7.02636-2.36914l-5.47852-1.20215q-8.07714-1.78419-11.09765-3.87891-5.11671-3.50244-5.11524-10.95215a14.54385,14.54385,0,0,1,5.00391-11.29492q5.00536-4.49707,14.70117-4.49707a22.54745,22.54745,0,0,1,13.81543,4.23926q5.71728,4.24072,5.99512,12.30859H223.04552a7.247,7.247,0,0,0-4.083-6.48926,13.98487,13.98487,0,0,0-6.29981-1.2705,11.99035,11.99035,0,0,0-6.6875,1.64843,5.21207,5.21207,0,0,0-2.499,4.60059,4.34,4.34,0,0,0,2.46387,4.05078,30.60847,30.60847,0,0,0,6.72265,2.09473l8.88086,2.09375q5.83887,1.374,8.75293,3.67383,4.52344,3.57128,4.52442,10.334a14.51824,14.51824,0,0,1-5.36133,11.51758q-5.36133,4.58349-15.14648,4.584-9.99463,0-15.71973-4.51465-5.72607-4.51464-5.72559-12.41113Z"/></svg>