<svg id="Layer_1" data-name="Layer 1" xmlns="http://www.w3.org/2000/svg" viewBox="0 0 337 260"><defs><style>.cls-1{fill:#a31f34;}.cls-2{fill:#8a8b8c;}</style></defs><title>MIT</title><path d="M26.01961,1.755v166m57-166v113m57-113v166m57-166v33m58,20v113"/><path class="cls-1" d="M272.51961,167.75521h-35V54.75472h35Zm-115,0h-35V1.75472h35Zm-114,0h-35V1.75472h35Zm57-53h-35V1.75472h35Zm114-80.00049h-35v-33h35Z"/><rect class="cls-2" x="179.51961" y="54.75472" width="35" height="113.00049"/><rect class="cls-1" x="237.51961" y="1.75472" width="92" height="33"/><path d="M46.97994,201.38422H63.41658v54.66684H52.77247V219.0748q0-1.59314.03709-4.46888.03708-2.87326.03708-4.43228L42.48733,256.05106h-11.102L21.10022,210.17364q0,1.559.03708,4.43228.03635,2.87477.03709,4.46888v36.97626H10.53027V201.38422H27.15234l9.95088,42.98388Z"/><path d="M106.846,251.10553q-5.11834,6.31764-15.53971,6.31814-10.42209,0-15.5397-6.31814a25.08,25.08,0,0,1,0-30.3664q5.11835-6.41109,15.5397-6.41109t15.53971,6.41109a25.08,25.08,0,0,1,0,30.3664Zm-8.45616-5.84148q2.48463-3.296,2.48513-9.3699,0-6.07288-2.48513-9.35112a9.39472,9.39472,0,0,0-14.26,0q-2.50317,3.27824-2.50342,9.35112,0,6.07437,2.50342,9.3699a9.36172,9.36172,0,0,0,14.26,0Z"/><path d="M140.96626,216.2752a12.83427,12.83427,0,0,1,4.63551,4.46888V201.45839h10.71828v54.59267H146.04727v-5.60019a14.9146,14.9146,0,0,1-5.15518,5.22935,14.47661,14.47661,0,0,1-7.19529,1.6317,15.02077,15.02077,0,0,1-11.92327-5.72973q-4.8402-5.73024-4.84021-14.70507,0-10.34793,4.76605-16.28138a15.50525,15.50525,0,0,1,12.7396-5.93444A13.03569,13.03569,0,0,1,140.96626,216.2752Zm2.59589,28.798a14.74693,14.74693,0,0,0,2.33679-8.64108q0-7.41681-3.746-10.607a8.06392,8.06392,0,0,0-5.3406-1.92838,7.42316,7.42316,0,0,0-6.80566,3.50469,18.8942,18.8942,0,0,0,.03708,17.653,7.46463,7.46463,0,0,0,6.69442,3.35636A7.804,7.804,0,0,0,143.56215,245.07319Z"/><path d="M192.26884,216.4443a16.456,16.456,0,0,1,6.98564,5.98092,19.87519,19.87519,0,0,1,3.22088,8.35726,51.59572,51.59572,0,0,1,.34809,8.023H173.38069q.24624,6.08327,4.22758,8.53032a10.73765,10.73765,0,0,0,5.82764,1.52,8.20911,8.20911,0,0,0,8.04477-4.636h10.791q-.4272,3.59865-3.918,7.30705-5.43207,5.89637-15.20941,5.89686a22.03551,22.03551,0,0,1-14.23879-4.97421q-6.16931-4.97371-6.16881-16.18447,0-10.50369,5.569-16.10932,5.56854-5.60413,14.45585-5.60513A23.03211,23.03211,0,0,1,192.26884,216.4443Zm-15.81264,9.13158a10.98055,10.98055,0,0,0-2.81543,6.25682h18.20976a8.821,8.821,0,0,0-2.81641-6.38736,9.263,9.263,0,0,0-6.26869-2.17955A8.38282,8.38282,0,0,0,176.4562,225.57588Z"/><path d="M218.96045,256.05106H208.391V201.38422h10.56945Z"/><path d="M262.156,202.57091a18.06627,18.06627,0,0,1,9.3165,6.93521,24.34215,24.34215,0,0,1,3.8963,8.827,42.32892,42.32892,0,0,1,1.04033,9.0495q0,10.90419-4.37987,18.46983-5.93939,10.19959-18.33634,10.19861H230.12424V201.38422h23.56864A28.82053,28.82053,0,0,1,262.156,202.57091Zm-20.9431,8.30782v35.67782h10.54968q8.09768,0,11.29135-7.97356a28.08084,28.08084,0,0,0,1.74641-10.42112q0-8.34538-2.61863-12.81427-2.61961-4.46788-10.41913-4.46887Z"/><path d="M325.74868,207.20691a13.90813,13.90813,0,0,1,2.50886,8.34441,12.17542,12.17542,0,0,1-2.5316,8.04872,13.07024,13.07024,0,0,1-4.17023,3.11506,12.17757,12.17757,0,0,1,6.31517,4.82093A14.46512,14.46512,0,0,1,330,239.54717a15.98263,15.98263,0,0,1-2.4337,8.71525,15.0492,15.0492,0,0,1-10.0483,7.047,37.85958,37.85958,0,0,1-7.72436.74168H285.16192V201.38422H311.5806Q321.57846,201.53256,325.74868,207.20691Zm-29.68306,3.67182v12.0538h13.287a10.97968,10.97968,0,0,0,5.78017-1.35382q2.22058-1.35431,2.22108-4.80312,0-3.81966-2.93606-5.04343a20.58569,20.58569,0,0,0-6.46054-.85343Zm0,21.10231v14.57551h13.27213a12.88417,12.88417,0,0,0,5.53591-.96418q3.59271-1.78,3.5927-6.82446,0-4.26318-3.48293-5.85928a13.829,13.829,0,0,0-5.46273-.92759Z"/></svg>