<svg id="Layer_1" data-name="Layer 1" xmlns="http://www.w3.org/2000/svg" xmlns:xlink="http://www.w3.org/1999/xlink" viewBox="0 0 581.68304 534.31471"><defs><style>.cls-1{fill:none;}.cls-2{clip-path:url(#clip-path);}.cls-3{fill:#0f7dc2;}</style><clipPath id="clip-path"><rect class="cls-1" x="-14.85332" y="-216.14176" width="612" height="792"/></clipPath></defs><title>intel-nauta</title><g class="cls-2"><path class="cls-3" d="M276.24337,342.09455c-112.5498,10.3828-229.85989-5.9707-246.292-93.9297-8.0381-43.3603,11.7432-89.3398,37.9463-117.9199V114.98424c-47.2041,41.39991-72.7852,93.78321-58.0513,155.66111,18.8232,79.3672,119.47709,124.31249,273.1563,109.38769,60.82859-5.8945,140.38229-25.45409,195.72308-55.85249v-43.1524c-50.2275,29.9268-133.28708,54.6475-202.48239,61.0664M572.74046,113.953c-26.6973-130.3408-279.77059-138.604-442.90678-39.2998v10.9678c162.94869-83.7739,394.08448-83.2651,415.12838,36.8032,7.06062,39.7178-15.3125,81.0972-55.2822,104.9224v31.1543c48.082-17.6358,97.3994-74.6778,83.0606-144.5479"/><path class="cls-3" d="M469.62616,94.97255h-29.5098v131.4316c0,15.4033,7.44632,28.7978,29.5098,30.9385Z"/><path class="cls-3" d="M118.24677,142.96075h-29.564L88.66668,228.83c0,15.457,7.47019,28.8369,29.58009,30.9385Z"/><rect class="cls-3" x="88.68277" y="98.97005" width="29.4717" height="27.97319"/><path class="cls-3" d="M294.97677,258.40805c-23.8848,0-33.9942-16.6006-33.9942-32.9551V111.43935h29.253v31.5214h22.0312v23.62849h-22.0312v57.05611c0,6.668,3.166,10.3828,10.11911,10.3828h11.91209v24.3799h-17.29"/><path class="cls-3" d="M348.80587,209.83385c0,14.9707,9.3623,25.9717,25.92481,25.9717,12.97849,0,19.376-3.6006,26.86809-11.001l18.0772,17.21869c-11.5889,11.44931-23.7324,18.40921-45.1611,18.40921-27.99519,0-54.8184-15.2793-54.8184-59.82321,0-38.08059,23.4395-59.60649,54.169-59.60649,31.24021,0,49.1933,25.1988,49.1933,58.2784v10.5527h-74.2529m23.7783-44.6362c-10.0127,0-17.7061,5.1572-20.9668,12.1132a30.21181,30.21181,0,0,0-2.8115,12.5767h45.084c-.5713-12.5767-6.2735-24.6899-21.3057-24.6899"/><path class="cls-3" d="M197.69887,166.58875c8.5782,0,12.1441,4.2412,12.1441,11.124V258.579h29.2588v-81.0361c0-16.42-8.749-34.5513-34.4429-34.5513l-60.4409-.0308V258.579h29.271v-91.9902Z"/><path class="cls-3" d="M501.37716,118.45735a11.74274,11.74274,0,0,1,0-23.4853,11.74274,11.74274,0,1,1,0,23.4853m0-21.5273a9.76108,9.76108,0,1,0,9.81052,9.78419,9.86767,9.86767,0,0,0-9.81052-9.78419m5.206,16.82219h-2.1943a.4957.4957,0,0,1-.4473-.29289l-2.9668-5.0449a.86941.86941,0,0,0-.417-.232h-1.3593v5.02879a.51651.51651,0,0,1-.4942.541h-1.9785a.53755.53755,0,0,1-.49408-.541V100.52715c0-.7421.247-1.0468.89548-1.1401.7109-.0767,2.5654-.1699,3.6006-.1699,3.6611,0,5.8095,1.07809,5.8095,4.47309v.24811a3.558,3.558,0,0,1-2.64158,3.75l3.08988,5.2597a.94857.94857,0,0,1,.07712.3721.41764.41764,0,0,1-.47952.43209m-2.8427-10.062c0-1.417-.8809-1.86519-2.7657-1.86519h-1.87008v4.0244c.294,0,1.62308.0615,1.87008.0615,1.8848,0,2.7657-.6289,2.7657-1.9726Z"/></g><path d="M131.02924,439.38949h18.855l34.167,60.0166v-60.0166h16.75927v86.07324H182.82856l-35.04-61.07226v61.07226H131.02924Z"/><path d="M241.55366,486.74691a26.31878,26.31878,0,0,0,6.64648-1.459q3.58887-1.519,3.58887-4.73047,0-3.91113-2.75293-5.40137-2.75244-1.48974-8.07959-1.48926-5.978,0-8.46435,2.91993a12.03792,12.03792,0,0,0-2.36768,5.83984H214.06635q.52662-8.35107,4.69141-13.72266,6.627-8.40966,22.75537-8.40918a40.56815,40.56815,0,0,1,18.6499,4.14649q8.15114,4.14551,8.15137,15.64941v29.19727q0,3.03661.1167,7.35742a9.24058,9.24058,0,0,0,.99268,4.4375,5.95768,5.95768,0,0,0,2.45263,1.92773v2.45215H253.77436a18.5059,18.5059,0,0,1-1.05127-3.62012q-.293-1.69335-.46728-3.85449a34.34807,34.34807,0,0,1-7.9878,6.36524,24.14726,24.14726,0,0,1-12.21728,3.09472q-8.69385,0-14.36035-4.93457-5.66895-4.93359-5.668-13.98535,0-11.73633,9.11767-16.99219,5.001-2.86083,14.707-4.08789Zm10.17578,7.7666a18.38234,18.38234,0,0,1-3.22607,1.60645,27.36962,27.36962,0,0,1-4.46924,1.13867l-3.78809.7002a24.93389,24.93389,0,0,0-7.6499,2.27734,7.602,7.602,0,0,0-3.93164,7.06641q0,4.26268,2.40185,6.16015a9.12281,9.12281,0,0,0,5.84034,1.89746,17.38913,17.38913,0,0,0,10.0498-3.15332q4.596-3.15234,4.773-11.50293Z"/><path d="M299.43891,461.81332v38.36426q0,5.43164,1.27735,8.17578,2.26757,4.84716,8.89062,4.84668,8.48145,0,11.62109-6.89063a25.06494,25.06494,0,0,0,1.627-9.86816V461.81332h16.875v63.64941H323.55415v-8.99316q-.23145.293-1.16407,1.752a11.67836,11.67836,0,0,1-2.21093,2.56934,23.099,23.099,0,0,1-7.543,4.78906,25.65289,25.65289,0,0,1-8.5293,1.28418q-14.09179,0-18.98437-10.16016-2.73559-5.606-2.73536-16.52636V461.81332Z"/><path d="M349.36567,474.25082V462.3973h8.876V444.64535h16.46679V462.3973h10.33594v11.85352H374.70844v33.63476q0,3.91407.99317,4.876.99169.96387,6.07226.96387c.50586,0,1.041-.00879,1.60645-.0293q.84522-.02783,1.66406-.08789v12.43848l-7.88379.292q-11.79492.40722-16.11621-4.08789-2.80371-2.85937-2.80273-8.81738V474.25082Z"/><path d="M420.94087,486.74691a26.31355,26.31355,0,0,0,6.64648-1.459q3.58887-1.519,3.58887-4.73047,0-3.91113-2.75293-5.40137-2.75244-1.48974-8.0791-1.48926-5.978,0-8.46485,2.91993a12.02848,12.02848,0,0,0-2.36719,5.83984H393.45356q.52734-8.35107,4.69141-13.72266,6.627-8.40966,22.75586-8.40918a40.56757,40.56757,0,0,1,18.64941,4.14649q8.15186,4.14551,8.15137,15.64941v29.19727q0,3.03661.11719,7.35742a9.2301,9.2301,0,0,0,.99218,4.4375,5.9562,5.9562,0,0,0,2.45313,1.92773v2.45215H433.16157a18.46795,18.46795,0,0,1-1.05078-3.62012q-.293-1.69335-.46778-3.85449a34.34046,34.34046,0,0,1-7.98828,6.36524,24.14285,24.14285,0,0,1-12.21679,3.09472q-8.69385,0-14.36036-4.93457-5.66894-4.93359-5.668-13.98535,0-11.73633,9.11718-16.99219,5.001-2.86083,14.708-4.08789Zm10.17578,7.7666a18.3861,18.3861,0,0,1-3.22657,1.60645,27.33462,27.33462,0,0,1-4.46875,1.13867l-3.78808.7002a24.93012,24.93012,0,0,0-7.64942,2.27734,7.60022,7.60022,0,0,0-3.93164,7.06641q0,4.26268,2.40137,6.16015a9.12237,9.12237,0,0,0,5.83984,1.89746,17.39436,17.39436,0,0,0,10.05079-3.15332q4.5952-3.15234,4.77246-11.50293Z"/></svg>