<svg version="1.1" id="Layer_1" xmlns="http://www.w3.org/2000/svg" xmlns:xlink="http://www.w3.org/1999/xlink" x="0px" y="0px"
	 width="100%" viewBox="0 0 641 241" enable-background="new 0 0 641 241" xml:space="preserve">
<path fill="#FAFAFA" opacity="1.000000" stroke="none" 
	d="
M401.000000,242.000000 
	C267.371063,242.000000 134.242096,242.000000 1.056577,242.000000 
	C1.056577,161.727173 1.056577,81.454292 1.056577,1.090708 
	C214.545639,1.090708 428.091339,1.090708 641.818481,1.090708 
	C641.818481,81.333008 641.818481,161.666458 641.818481,242.000000 
	C561.787598,242.000000 481.643799,242.000000 401.000000,242.000000 
M68.748657,186.690948 
	C70.095490,186.549026 71.784111,185.812744 72.734917,186.359512 
	C80.147095,190.621826 90.708977,189.258255 96.697906,182.801605 
	C103.314850,173.172852 102.714317,163.749405 94.760468,156.257660 
	C91.083466,152.779205 86.929688,151.153778 81.288902,152.999512 
	C80.470581,152.999832 79.652267,153.000168 78.887268,152.477432 
	C78.554131,152.637375 78.220993,152.797318 77.386604,153.122147 
	C76.960136,153.398453 76.533661,153.674744 75.776535,153.330994 
	C74.168587,153.851151 72.560646,154.371307 70.535263,154.964264 
	C70.535263,154.964264 70.111580,154.957993 69.919510,154.458527 
	C69.575714,154.625031 69.231926,154.791534 68.258667,154.690582 
	C64.248268,151.473557 60.524399,147.770889 56.141640,145.184967 
	C52.263020,142.896500 50.453465,140.470779 50.929417,135.884933 
	C51.827839,127.228539 43.305141,119.202950 37.408447,118.102165 
	C26.297169,116.027924 17.213612,120.739494 13.986879,129.688400 
	C11.191601,137.440735 13.385240,145.680710 20.008640,151.483047 
	C25.020145,155.873306 33.222767,157.063400 40.624138,153.807877 
	C41.933697,153.231873 43.986595,152.521408 44.877224,153.110748 
	C51.094402,157.224716 57.095970,161.664505 63.026001,166.892487 
	C64.607391,173.767181 61.145061,177.872589 55.485241,180.892441 
	C53.490559,181.956741 51.710506,183.416168 49.788235,184.624863 
	C46.255276,186.846344 42.975384,190.256653 38.359558,186.294998 
	C37.501652,185.558685 35.483028,186.174744 33.308315,185.825775 
	C26.481115,185.087372 20.888573,187.191986 16.254795,193.306305 
	C13.102246,198.245316 11.437841,203.968491 13.343529,209.284042 
	C17.245398,220.167542 23.434290,224.252563 36.274059,222.919144 
	C43.628666,222.155365 51.923779,213.282959 51.078663,204.286041 
	C50.889942,202.276962 51.694626,200.174576 52.754505,198.003937 
	C57.874519,194.350128 62.994534,190.696320 68.748657,186.690948 
M625.808533,26.308649 
	C618.159851,20.333557 609.420105,18.181530 599.599243,25.209755 
	C593.034058,30.916615 591.159180,39.354034 594.080566,46.436958 
	C598.903870,58.130730 613.033875,61.494114 623.377258,54.836567 
	C632.396362,49.031361 633.900330,32.458988 625.808533,26.308649 
M271.500000,131.000000 
	C287.261047,131.000000 303.022095,131.000000 318.718292,131.000000 
	C322.876007,89.818649 296.315704,66.043915 267.154907,63.199787 
	C222.358414,58.830669 198.398499,86.521721 196.206284,117.859566 
	C193.519669,156.264938 219.691971,180.354858 253.005341,182.915802 
	C286.536011,185.493454 310.714722,163.883270 313.611267,147.000000 
	C307.419769,147.000000 301.258942,147.160141 295.112274,146.934326 
	C291.903381,146.816452 289.419189,147.487183 287.355164,150.103104 
	C280.807281,158.401703 271.434784,161.304108 261.588074,161.862396 
	C242.427505,162.948715 224.670258,154.019989 220.219742,131.000000 
	C237.106720,131.000000 253.803360,131.000000 271.500000,131.000000 
M518.500000,164.000000 
	C525.993103,164.000000 533.494141,164.204468 540.976196,163.917297 
	C544.963928,163.764221 546.240723,165.046082 546.082031,169.028152 
	C545.793152,176.275803 546.000000,183.543213 546.000000,190.708878 
	C553.656677,190.708878 560.725708,190.708878 568.000122,190.708878 
	C568.000122,182.947113 568.101196,175.473099 567.951233,168.004105 
	C567.889771,164.941498 569.027771,163.835892 572.045837,163.956955 
	C576.298950,164.127548 580.564087,164.000122 584.699341,164.000122 
	C584.699341,156.988953 584.699341,150.584976 584.699341,144.000000 
	C580.588379,144.000000 576.755615,143.750244 572.970459,144.067780 
	C568.900879,144.409180 567.890930,142.809525 567.920349,138.918747 
	C568.085571,117.106812 567.877319,95.292000 568.050110,73.480171 
	C568.140869,62.016251 562.286743,54.146629 552.740662,49.511822 
	C543.755188,45.149231 533.820801,45.114956 525.504761,51.322392 
	C520.140503,55.326462 515.674988,60.763237 511.513580,66.108269 
	C497.475189,84.139465 483.805542,102.457184 469.884369,120.580460 
	C464.038452,128.191010 460.528931,136.239044 463.476288,146.010406 
	C466.946198,157.514069 477.674347,163.370529 489.030640,163.908096 
	C498.500641,164.356369 508.008759,164.000000 518.500000,164.000000 
M421.219940,176.971634 
	C429.200287,172.443130 436.561737,167.265076 442.077301,159.664032 
	C452.452057,145.366562 455.847992,129.697769 453.079498,112.277039 
	C449.363861,88.896515 435.813171,74.033531 414.155396,66.041046 
	C401.837189,61.495205 388.869934,61.588947 376.378815,64.248207 
	C362.110779,67.285767 349.939178,74.709663 341.398956,87.097816 
	C332.199921,100.441628 328.580719,115.032150 330.947205,131.196350 
	C333.434845,148.187927 340.558014,162.431427 355.166351,171.944504 
	C375.880432,185.433670 397.813690,186.445984 421.219940,176.971634 
M185.000000,173.422668 
	C184.666702,151.352402 185.240067,129.218903 183.706131,107.232391 
	C182.531494,90.395576 173.759750,76.979813 158.215698,69.064430 
	C144.273026,61.964527 129.373871,61.555061 114.314720,64.035065 
	C88.219086,68.332603 75.082672,86.282509 72.274338,109.340096 
	C70.743019,121.912865 72.000977,134.825363 72.000977,146.315826 
	C79.500847,146.315826 86.671562,146.315826 95.000031,146.315826 
	C95.000031,135.786942 94.374939,124.004242 95.202484,112.324471 
	C95.837585,103.360779 99.682076,95.444344 107.490791,89.804619 
	C114.385078,84.825317 121.988800,84.041229 130.098083,83.924042 
	C148.353958,83.660225 161.677490,97.879105 161.936615,116.069458 
	C162.216599,135.723923 161.937851,155.386002 162.112503,175.042892 
	C162.127228,176.698776 163.645493,179.709274 164.608719,179.768799 
	C171.338882,180.184723 178.106842,179.988846 185.000000,179.988846 
	C185.000000,177.704636 185.000000,176.052078 185.000000,173.422668 
M600.000000,89.500076 
	C600.000000,121.626884 600.008484,153.753693 599.993286,185.880493 
	C599.989990,192.854141 596.500671,198.353348 589.946838,200.368362 
	C586.623047,201.390305 582.872742,201.024948 579.230225,201.293045 
	C579.230225,207.865280 579.230225,214.266663 579.230225,220.999924 
	C583.244934,220.999924 587.075195,221.339264 590.823730,220.930191 
	C598.949402,220.043457 606.570312,217.748749 612.692505,211.832291 
	C619.911072,204.856354 622.677185,195.850006 622.852356,186.401642 
	C623.296692,162.439590 623.000061,138.463791 623.000000,114.493492 
	C623.000000,99.844978 622.912964,85.195564 623.063904,70.548607 
	C623.099609,67.084465 622.044312,65.759468 618.500977,65.939217 
	C613.686035,66.183464 608.844971,66.124825 604.023621,65.954788 
	C600.982666,65.847542 599.874817,66.986023 599.952881,70.024277 
	C600.111084,76.179245 600.000061,82.341133 600.000000,89.500076 
z"/>
<path fill="#000000" opacity="1.000000" stroke="none" 
	d="
M271.000000,131.000000 
	C253.803360,131.000000 237.106720,131.000000 220.219742,131.000000 
	C224.670258,154.019989 242.427505,162.948715 261.588074,161.862396 
	C271.434784,161.304108 280.807281,158.401703 287.355164,150.103104 
	C289.419189,147.487183 291.903381,146.816452 295.112274,146.934326 
	C301.258942,147.160141 307.419769,147.000000 313.611267,147.000000 
	C310.714722,163.883270 286.536011,185.493454 253.005341,182.915802 
	C219.691971,180.354858 193.519669,156.264938 196.206284,117.859566 
	C198.398499,86.521721 222.358414,58.830669 267.154907,63.199787 
	C296.315704,66.043915 322.876007,89.818649 318.718292,131.000000 
	C303.022095,131.000000 287.261047,131.000000 271.000000,131.000000 
M245.500000,111.000000 
	C261.940216,111.000000 278.380432,111.000000 294.888367,111.000000 
	C292.467407,96.520828 279.254639,85.530975 263.544342,84.059700 
	C240.016846,81.856346 225.550430,93.366280 221.096146,111.000000 
	C228.968765,111.000000 236.734406,111.000000 245.500000,111.000000 
z"/>
<path fill="#000000" opacity="1.000000" stroke="none" 
	d="
M518.000000,164.000000 
	C508.008759,164.000000 498.500641,164.356369 489.030640,163.908096 
	C477.674347,163.370529 466.946198,157.514069 463.476288,146.010406 
	C460.528931,136.239044 464.038452,128.191010 469.884369,120.580460 
	C483.805542,102.457184 497.475189,84.139465 511.513580,66.108269 
	C515.674988,60.763237 520.140503,55.326462 525.504761,51.322392 
	C533.820801,45.114956 543.755188,45.149231 552.740662,49.511822 
	C562.286743,54.146629 568.140869,62.016251 568.050110,73.480171 
	C567.877319,95.292000 568.085571,117.106812 567.920349,138.918747 
	C567.890930,142.809525 568.900879,144.409180 572.970459,144.067780 
	C576.755615,143.750244 580.588379,144.000000 584.699341,144.000000 
	C584.699341,150.584976 584.699341,156.988953 584.699341,164.000122 
	C580.564087,164.000122 576.298950,164.127548 572.045837,163.956955 
	C569.027771,163.835892 567.889771,164.941498 567.951233,168.004105 
	C568.101196,175.473099 568.000122,182.947113 568.000122,190.708878 
	C560.725708,190.708878 553.656677,190.708878 546.000000,190.708878 
	C546.000000,183.543213 545.793152,176.275803 546.082031,169.028152 
	C546.240723,165.046082 544.963928,163.764221 540.976196,163.917297 
	C533.494141,164.204468 525.993103,164.000000 518.000000,164.000000 
M498.012329,121.479294 
	C494.882965,125.607521 491.573792,129.616196 488.710999,133.921661 
	C487.532959,135.693268 486.158691,138.832520 486.928802,140.054962 
	C488.123962,141.951996 491.057343,143.788971 493.289093,143.832214 
	C509.420258,144.144897 525.560791,143.935089 541.697083,144.054657 
	C544.922180,144.078568 546.072754,143.055176 546.055664,139.762115 
	C545.946350,118.634567 546.127441,97.504364 545.828552,76.380486 
	C545.793640,73.912613 543.997620,70.418579 541.965210,69.280296 
	C539.032288,67.637741 536.835083,70.427727 534.943359,72.979477 
	C528.959839,81.050713 522.689331,88.908409 516.606689,96.907158 
	C510.534943,104.891563 504.555817,112.946434 498.012329,121.479294 
z"/>
<path fill="#000000" opacity="1.000000" stroke="none" 
	d="
M420.826050,176.986389 
	C397.813690,186.445984 375.880432,185.433670 355.166351,171.944504 
	C340.558014,162.431427 333.434845,148.187927 330.947205,131.196350 
	C328.580719,115.032150 332.199921,100.441628 341.398956,87.097816 
	C349.939178,74.709663 362.110779,67.285767 376.378815,64.248207 
	C388.869934,61.588947 401.837189,61.495205 414.155396,66.041046 
	C435.813171,74.033531 449.363861,88.896515 453.079498,112.277039 
	C455.847992,129.697769 452.452057,145.366562 442.077301,159.664032 
	C436.561737,167.265076 429.200287,172.443130 420.826050,176.986389 
M379.936829,86.021904 
	C374.344391,89.464363 367.590363,91.864525 363.384888,96.551445 
	C352.297180,108.908539 351.205627,123.830254 357.097595,138.813538 
	C365.163239,159.324463 388.845886,165.261841 407.369995,158.126495 
	C433.257660,148.154785 437.091583,113.070404 419.419373,95.070343 
	C408.686249,84.138153 394.989136,83.424759 379.936829,86.021904 
z"/>
<path fill="#000000" opacity="1.000000" stroke="none" 
	d="
M185.000000,173.911102 
	C185.000000,176.052078 185.000000,177.704636 185.000000,179.988846 
	C178.106842,179.988846 171.338882,180.184723 164.608719,179.768799 
	C163.645493,179.709274 162.127228,176.698776 162.112503,175.042892 
	C161.937851,155.386002 162.216599,135.723923 161.936615,116.069458 
	C161.677490,97.879105 148.353958,83.660225 130.098083,83.924042 
	C121.988800,84.041229 114.385078,84.825317 107.490791,89.804619 
	C99.682076,95.444344 95.837585,103.360779 95.202484,112.324471 
	C94.374939,124.004242 95.000031,135.786942 95.000031,146.315826 
	C86.671562,146.315826 79.500847,146.315826 72.000977,146.315826 
	C72.000977,134.825363 70.743019,121.912865 72.274338,109.340096 
	C75.082672,86.282509 88.219086,68.332603 114.314720,64.035065 
	C129.373871,61.555061 144.273026,61.964527 158.215698,69.064430 
	C173.759750,76.979813 182.531494,90.395576 183.706131,107.232391 
	C185.240067,129.218903 184.666702,151.352402 185.000000,173.911102 
z"/>
<path fill="#000000" opacity="1.000000" stroke="none" 
	d="
M600.000000,89.000122 
	C600.000061,82.341133 600.111084,76.179245 599.952881,70.024277 
	C599.874817,66.986023 600.982666,65.847542 604.023621,65.954788 
	C608.844971,66.124825 613.686035,66.183464 618.500977,65.939217 
	C622.044312,65.759468 623.099609,67.084465 623.063904,70.548607 
	C622.912964,85.195564 623.000000,99.844978 623.000000,114.493492 
	C623.000061,138.463791 623.296692,162.439590 622.852356,186.401642 
	C622.677185,195.850006 619.911072,204.856354 612.692505,211.832291 
	C606.570312,217.748749 598.949402,220.043457 590.823730,220.930191 
	C587.075195,221.339264 583.244934,220.999924 579.230225,220.999924 
	C579.230225,214.266663 579.230225,207.865280 579.230225,201.293045 
	C582.872742,201.024948 586.623047,201.390305 589.946838,200.368362 
	C596.500671,198.353348 599.989990,192.854141 599.993286,185.880493 
	C600.008484,153.753693 600.000000,121.626884 600.000000,89.000122 
z"/>
<path fill="#018BFF" opacity="1.000000" stroke="none" 
	d="
M63.166592,165.999954 
	C57.095970,161.664505 51.094402,157.224716 44.877224,153.110748 
	C43.986595,152.521408 41.933697,153.231873 40.624138,153.807877 
	C33.222767,157.063400 25.020145,155.873306 20.008640,151.483047 
	C13.385240,145.680710 11.191601,137.440735 13.986879,129.688400 
	C17.213612,120.739494 26.297169,116.027924 37.408447,118.102165 
	C43.305141,119.202950 51.827839,127.228539 50.929417,135.884933 
	C50.453465,140.470779 52.263020,142.896500 56.141640,145.184967 
	C60.524399,147.770889 64.248268,151.473557 68.879387,154.835709 
	C69.703926,154.973236 69.907753,154.965622 70.111580,154.957993 
	C70.111580,154.957993 70.535263,154.964264 70.928329,155.184769 
	C72.916656,154.920532 74.511917,154.435776 76.107185,153.951035 
	C76.533661,153.674744 76.960136,153.398453 77.873619,153.055115 
	C78.360634,152.988098 78.833946,153.000488 78.833946,153.000488 
	C79.652267,153.000168 80.470581,152.999832 81.890213,153.184265 
	C86.126266,156.504761 90.152687,158.244186 95.046669,156.890717 
	C102.714317,163.749405 103.314850,173.172852 96.142509,182.667328 
	C94.340721,182.554535 92.870789,182.149841 91.884476,182.667160 
	C85.804863,185.856003 79.799149,185.806885 73.429543,183.411270 
	C69.932541,182.096039 66.631012,183.035736 64.675095,187.142014 
	C59.232212,189.740707 53.480503,191.477234 52.041946,198.115143 
	C51.694626,200.174576 50.889942,202.276962 51.078663,204.286041 
	C51.923779,213.282959 43.628666,222.155365 36.274059,222.919144 
	C23.434290,224.252563 17.245398,220.167542 13.343529,209.284042 
	C11.437841,203.968491 13.102246,198.245316 16.975033,193.143295 
	C23.130180,191.653534 28.565090,190.326767 34.342045,189.149521 
	C40.000881,191.805389 44.941200,192.501678 49.990570,188.133530 
	C53.442337,185.147461 57.764065,183.184921 61.604038,180.625534 
	C67.522583,176.680786 68.329002,168.695282 63.166592,165.999954 
z"/>
<path fill="#018BFF" opacity="1.000000" stroke="none" 
	d="
M626.114441,26.957445 
	C633.900330,32.458988 632.396362,49.031361 623.377258,54.836567 
	C613.033875,61.494114 598.903870,58.130730 594.080566,46.436958 
	C591.159180,39.354034 593.034058,30.916615 600.373047,25.505211 
	C608.771851,23.653490 616.312500,22.911827 623.660156,26.900669 
	C624.299988,27.248011 625.288086,26.953709 626.114441,26.957445 
z"/>
<path fill="#018CFF" opacity="1.000000" stroke="none" 
	d="
M63.096298,166.446228 
	C68.329002,168.695282 67.522583,176.680786 61.604038,180.625534 
	C57.764065,183.184921 53.442337,185.147461 49.990570,188.133530 
	C44.941200,192.501678 40.000881,191.805389 34.342045,188.795349 
	C34.000034,187.583328 34.000069,186.874985 34.000099,186.166656 
	C35.483028,186.174744 37.501652,185.558685 38.359558,186.294998 
	C42.975384,190.256653 46.255276,186.846344 49.788235,184.624863 
	C51.710506,183.416168 53.490559,181.956741 55.485241,180.892441 
	C61.145061,177.872589 64.607391,173.767181 63.096298,166.446228 
z"/>
<path fill="#018BFF" opacity="1.000000" stroke="none" 
	d="
M65.000000,187.000000 
	C66.631012,183.035736 69.932541,182.096039 73.429543,183.411270 
	C79.799149,185.806885 85.804863,185.856003 91.884476,182.667160 
	C92.870789,182.149841 94.340721,182.554535 95.818298,182.820236 
	C90.708977,189.258255 80.147095,190.621826 72.734917,186.359512 
	C71.784111,185.812744 70.095490,186.549026 68.042404,186.854614 
	C66.557434,187.012192 65.778717,187.006088 65.000000,187.000000 
z"/>
<path fill="#018BFF" opacity="1.000000" stroke="none" 
	d="
M625.961487,26.633047 
	C625.288086,26.953709 624.299988,27.248011 623.660156,26.900669 
	C616.312500,22.911827 608.771851,23.653490 600.719238,25.627359 
	C609.420105,18.181530 618.159851,20.333557 625.961487,26.633047 
z"/>
<path fill="#018BFF" opacity="1.000000" stroke="none" 
	d="
M33.654205,185.996216 
	C34.000069,186.874985 34.000034,187.583328 34.000000,188.645828 
	C28.565090,190.326767 23.130180,191.653534 17.290611,192.968964 
	C20.888573,187.191986 26.481115,185.087372 33.654205,185.996216 
z"/>
<path fill="#018CFF" opacity="1.000000" stroke="none" 
	d="
M64.675095,187.142014 
	C65.778717,187.006088 66.557434,187.012192 67.725349,187.030396 
	C62.994534,190.696320 57.874519,194.350128 52.398224,198.059540 
	C53.480503,191.477234 59.232212,189.740707 64.675095,187.142014 
z"/>
<path fill="#018CFF" opacity="1.000000" stroke="none" 
	d="
M94.903564,156.574188 
	C90.152687,158.244186 86.126266,156.504761 82.193817,153.158386 
	C86.929688,151.153778 91.083466,152.779205 94.903564,156.574188 
z"/>
<path fill="#018CFF" opacity="1.000000" stroke="none" 
	d="
M75.941864,153.641022 
	C74.511917,154.435776 72.916656,154.920532 71.137039,155.148376 
	C72.560646,154.371307 74.168587,153.851151 75.941864,153.641022 
z"/>
<path fill="#018CFF" opacity="1.000000" stroke="none" 
	d="
M70.015549,154.708252 
	C69.907753,154.965622 69.703926,154.973236 69.194122,154.969437 
	C69.231926,154.791534 69.575714,154.625031 70.015549,154.708252 
z"/>
<path fill="#018CFF" opacity="1.000000" stroke="none" 
	d="
M78.860611,152.738953 
	C78.833946,153.000488 78.360634,152.988098 78.124245,152.972687 
	C78.220993,152.797318 78.554131,152.637375 78.860611,152.738953 
z"/>
<path fill="#FAFAFA" opacity="1.000000" stroke="none" 
	d="
M245.000015,111.000000 
	C236.734406,111.000000 228.968765,111.000000 221.096146,111.000000 
	C225.550430,93.366280 240.016846,81.856346 263.544342,84.059700 
	C279.254639,85.530975 292.467407,96.520828 294.888367,111.000000 
	C278.380432,111.000000 261.940216,111.000000 245.000015,111.000000 
z"/>
<path fill="#FAFAFA" opacity="1.000000" stroke="none" 
	d="
M498.274231,121.224854 
	C504.555817,112.946434 510.534943,104.891563 516.606689,96.907158 
	C522.689331,88.908409 528.959839,81.050713 534.943359,72.979477 
	C536.835083,70.427727 539.032288,67.637741 541.965210,69.280296 
	C543.997620,70.418579 545.793640,73.912613 545.828552,76.380486 
	C546.127441,97.504364 545.946350,118.634567 546.055664,139.762115 
	C546.072754,143.055176 544.922180,144.078568 541.697083,144.054657 
	C525.560791,143.935089 509.420258,144.144897 493.289093,143.832214 
	C491.057343,143.788971 488.123962,141.951996 486.928802,140.054962 
	C486.158691,138.832520 487.532959,135.693268 488.710999,133.921661 
	C491.573792,129.616196 494.882965,125.607521 498.274231,121.224854 
z"/>
<path fill="#FAFAFA" opacity="1.000000" stroke="none" 
	d="
M380.364685,86.011452 
	C394.989136,83.424759 408.686249,84.138153 419.419373,95.070343 
	C437.091583,113.070404 433.257660,148.154785 407.369995,158.126495 
	C388.845886,165.261841 365.163239,159.324463 357.097595,138.813538 
	C351.205627,123.830254 352.297180,108.908539 363.384888,96.551445 
	C367.590363,91.864525 374.344391,89.464363 380.364685,86.011452 
z"/>
</svg>