<svg version="1.1" id="Layer_1" xmlns="http://www.w3.org/2000/svg" xmlns:xlink="http://www.w3.org/1999/xlink" x="0px" y="0px"
	 width="100%" viewBox="0 0 7121 2371" enable-background="new 0 0 7121 2371" xml:space="preserve">
<path fill="#FFFFFF" opacity="1.000000" stroke="none" 
	d="
M4444.000000,2376.000000 
	C2962.666748,2376.000000 1483.333374,2376.000000 4.000000,2376.000000 
	C4.000000,1585.333374 4.000000,794.666687 4.000000,4.000000 
	C2378.666748,4.000000 4753.333496,4.000000 7128.000000,4.000000 
	C7128.000000,794.666687 7128.000000,1585.333374 7128.000000,2376.000000 
	C6234.000000,2376.000000 5340.000000,2376.000000 4444.000000,2376.000000 
M2765.999023,1289.445312 
	C3030.610596,1289.346436 3295.222168,1289.247681 3559.833740,1289.139404 
	C3560.495850,1289.139038 3561.241699,1289.159058 3561.796631,1288.874146 
	C3562.342285,1288.593994 3562.694336,1287.937134 3564.520752,1285.882935 
	C3564.574463,1282.957764 3564.725098,1278.440186 3564.729004,1273.922607 
	C3564.751465,1247.260986 3564.575928,1220.598145 3564.773926,1193.937988 
	C3565.216797,1134.328247 3558.036865,1075.616821 3543.902832,1017.770447 
	C3487.581787,787.263123 3324.110840,618.160950 3104.466309,551.676270 
	C3006.900635,522.143860 2907.335205,514.072693 2806.040771,522.959534 
	C2741.997314,528.578064 2679.634521,541.695557 2619.387207,564.047302 
	C2469.251465,619.747559 2353.550293,716.253418 2275.543701,856.679260 
	C2224.856445,947.925293 2198.793457,1046.448730 2192.531006,1150.205811 
	C2187.603027,1231.856445 2194.151367,1312.674561 2216.059082,1391.797729 
	C2260.779785,1553.313965 2352.164307,1681.054932 2494.075195,1771.031006 
	C2614.006836,1847.071167 2746.833008,1878.162964 2887.610352,1878.033447 
	C2927.536377,1877.996704 2967.412354,1874.947388 3007.054199,1868.794678 
	C3076.611572,1857.999023 3143.493164,1838.716309 3206.871094,1808.048462 
	C3343.507080,1741.932007 3443.553467,1639.934204 3505.868164,1501.318359 
	C3508.187500,1496.159058 3512.672607,1491.237549 3510.423340,1484.409668 
	C3420.495605,1484.409668 3330.644531,1484.409668 3240.862549,1484.409668 
	C3238.051514,1487.956787 3235.450928,1490.976562 3233.134033,1494.200439 
	C3184.106201,1562.420654 3118.051270,1605.747314 3037.562988,1627.914673 
	C3000.167969,1638.213623 2961.987305,1643.158691 2923.303223,1645.634277 
	C2861.563965,1649.585205 2800.763672,1644.643311 2741.295898,1627.540405 
	C2658.914307,1603.847290 2589.735352,1559.752930 2536.937500,1491.507812 
	C2493.645752,1435.550293 2468.295654,1371.748291 2455.837646,1302.508667 
	C2455.169434,1298.795044 2455.751221,1294.856689 2455.751221,1291.244141 
	C2457.594482,1290.542847 2458.826172,1289.664917 2460.058838,1289.663452 
	C2560.705566,1289.546875 2661.352051,1289.498657 2765.999023,1289.445312 
M6366.807129,726.000610 
	C6366.807129,702.671143 6366.796387,679.341675 6366.809082,656.012207 
	C6366.824707,627.226990 6363.416016,598.873901 6356.078125,571.020996 
	C6311.491699,401.782135 6143.909180,318.422791 5994.711914,349.974823 
	C5919.357910,365.910645 5858.583496,405.687531 5811.703613,466.635101 
	C5782.048340,505.188019 5752.778809,544.037354 5723.315430,582.738098 
	C5565.908203,789.494995 5408.519043,996.265625 5251.041016,1202.968994 
	C5236.450684,1222.119507 5223.421387,1242.218018 5213.291016,1264.021851 
	C5181.610352,1332.205688 5174.989746,1402.273804 5200.782715,1473.670166 
	C5225.207031,1541.279297 5271.422363,1590.346924 5334.357910,1623.996094 
	C5384.119629,1650.601318 5437.667480,1662.739990 5493.835938,1662.892944 
	C5609.143555,1663.207153 5724.453125,1662.987427 5839.761719,1662.987427 
	C5927.076660,1662.987549 6014.391113,1662.966431 6101.706055,1663.035522 
	C6107.444336,1663.040039 6113.181641,1663.733032 6119.989746,1664.175415 
	C6119.989746,1680.109131 6119.989746,1694.669678 6119.989746,1709.230347 
	C6119.989746,1723.227417 6119.989746,1737.224365 6119.989746,1751.221436 
	C6119.989746,1765.885010 6119.989746,1780.548462 6119.989746,1795.212036 
	C6119.989746,1809.209106 6119.989746,1823.206055 6119.989746,1837.203125 
	C6119.989746,1851.866699 6119.989746,1866.530151 6119.989746,1881.193726 
	C6119.989746,1895.190796 6119.927246,1909.188110 6120.006836,1923.184692 
	C6120.089355,1937.677368 6119.649414,1952.196899 6120.296875,1966.378662 
	C6138.294434,1969.088013 6347.708984,1969.229736 6366.802246,1966.468506 
	C6366.811523,1916.989868 6366.806152,1867.180176 6366.807129,1817.370605 
	C6366.808105,1767.457886 6366.807129,1717.545166 6366.807129,1667.245728 
	C6383.291992,1663.739502 6398.587402,1665.922729 6413.742676,1665.535889 
	C6429.062500,1665.144897 6444.400391,1665.449707 6459.730469,1665.449707 
	C6475.060547,1665.449707 6490.391113,1665.506592 6505.720703,1665.433594 
	C6520.892090,1665.361206 6536.084473,1665.770630 6551.979004,1665.127563 
	C6552.493164,1661.468750 6553.146484,1658.977173 6553.148438,1656.485229 
	C6553.208008,1589.166260 6553.221191,1521.847290 6553.140137,1454.528442 
	C6553.136230,1451.468262 6552.182617,1448.409180 6551.518555,1444.434692 
	C6543.757812,1444.434692 6537.180176,1444.434814 6530.603027,1444.434692 
	C6480.613770,1444.434326 6430.624512,1444.470947 6380.635254,1444.369629 
	C6376.213867,1444.360596 6371.794922,1443.453003 6366.807129,1442.899902 
	C6366.807129,1204.505371 6366.807129,967.253052 6366.807129,726.000610 
M4842.296387,1724.312744 
	C4883.241699,1690.782349 4919.294922,1652.600586 4950.425781,1609.831543 
	C5023.997559,1508.754395 5063.700684,1394.997314 5075.433594,1271.196045 
	C5083.669922,1184.286011 5077.763184,1098.184082 5055.933594,1013.480103 
	C5022.075195,882.100037 4955.626953,770.441650 4852.416504,681.714478 
	C4745.531250,589.827332 4620.105469,540.762329 4481.159180,524.510681 
	C4424.782227,517.916565 4368.218750,517.822998 4311.601074,523.155334 
	C4257.020508,528.295837 4203.571289,538.636658 4151.557617,555.840942 
	C3991.080322,608.921631 3867.407471,707.516907 3784.512451,855.449890 
	C3733.181396,947.054565 3707.057129,1046.291626 3700.801514,1150.714600 
	C3695.625488,1237.118408 3703.422119,1322.423950 3728.092285,1405.708130 
	C3774.200439,1561.363525 3864.153076,1684.620117 4001.721924,1771.699585 
	C4121.137695,1847.288208 4253.256836,1878.166138 4393.286621,1878.046509 
	C4441.229492,1878.005371 4488.984375,1873.634521 4536.290039,1864.602295 
	C4648.888672,1843.103271 4750.797363,1798.514160 4842.296387,1724.312744 
M809.871765,987.732910 
	C798.838562,1042.058105 792.214661,1096.893555 792.037415,1152.361572 
	C791.709473,1255.001709 791.750610,1357.642944 791.694275,1460.283813 
	C791.692200,1464.055908 792.282959,1467.828247 792.624268,1471.922607 
	C813.453857,1466.349731 833.032288,1459.788086 853.137939,1456.103516 
	C873.357239,1452.397949 894.070618,1450.307251 914.623718,1449.803467 
	C935.887451,1449.282471 957.309326,1451.328613 978.071472,1456.499268 
	C997.888245,1461.434448 1017.409851,1467.554810 1038.285889,1473.503174 
	C1038.480103,1465.814209 1038.786621,1459.280518 1038.788818,1452.746826 
	C1038.820190,1360.101685 1038.812012,1267.456665 1038.808960,1174.811523 
	C1038.808105,1146.145020 1039.777832,1117.573486 1043.398926,1089.056396 
	C1048.540649,1048.565308 1057.408447,1009.041138 1072.431396,971.090149 
	C1112.420776,870.069153 1183.395752,801.156311 1287.867432,770.010742 
	C1381.521118,742.090149 1476.115112,742.802856 1569.317871,772.745667 
	C1653.686279,799.850281 1716.727417,853.729309 1758.262329,932.242371 
	C1778.980713,971.406372 1791.967163,1013.222717 1800.069458,1056.671387 
	C1807.302124,1095.455566 1809.937134,1134.612671 1809.945190,1173.991943 
	C1809.968140,1287.298950 1809.953369,1400.605835 1809.953369,1513.912842 
	C1809.953369,1616.555664 1809.904785,1719.198608 1810.059082,1821.841187 
	C1810.069702,1828.929199 1808.003784,1836.453247 1812.938965,1844.134277 
	C1817.167847,1844.134277 1821.787720,1844.139038 1826.407593,1844.133301 
	C1901.719849,1844.039795 1977.032227,1843.946899 2052.344482,1843.817749 
	C2052.919678,1843.816772 2053.535645,1843.383667 2054.057129,1843.038452 
	C2054.607666,1842.674194 2055.067627,1842.173218 2056.746338,1840.689575 
	C2056.746338,1835.849731 2056.746582,1829.937622 2056.746582,1824.025635 
	C2056.746094,1604.743286 2056.755615,1385.460938 2056.735596,1166.178589 
	C2056.731689,1124.161255 2054.361572,1082.325928 2048.785645,1040.617432 
	C2041.788940,988.279907 2030.240723,937.108948 2012.022461,887.542480 
	C1962.442749,752.651428 1874.786621,651.526123 1744.940552,588.395569 
	C1664.789551,549.426453 1579.326904,530.391663 1490.882324,524.402344 
	C1435.651611,520.662170 1380.385864,521.216248 1325.216675,527.447266 
	C1269.396484,533.751648 1214.847412,545.413757 1162.123657,564.751587 
	C1070.857544,598.225647 992.494568,650.526184 930.500977,726.101807 
	C868.331665,801.891602 830.958557,889.222107 809.871765,987.732910 
M303.704376,2342.566895 
	C306.983276,2341.970215 310.248566,2341.282959 313.543060,2340.790771 
	C352.805237,2334.923340 387.364227,2318.665039 417.422638,2292.989502 
	C454.726318,2261.125732 477.792999,2220.716309 487.695679,2172.788086 
	C496.250092,2131.385254 509.642120,2091.825439 531.996887,2055.701904 
	C560.280884,2009.997070 598.661377,1976.532837 650.035034,1958.800659 
	C691.400391,1944.522827 733.747498,1943.998657 776.424622,1949.700562 
	C799.546082,1952.789673 822.133057,1958.665283 844.221252,1966.314209 
	C878.322144,1978.123169 913.539856,1981.158081 948.765381,1974.943359 
	C1087.608276,1950.447510 1162.125610,1806.512695 1107.292480,1682.291260 
	C1072.218506,1602.832764 1008.739563,1560.573364 921.496765,1555.431396 
	C895.257263,1553.884888 869.864502,1558.217285 844.826599,1566.313477 
	C796.912842,1581.806274 748.184021,1591.080933 697.364685,1584.621338 
	C660.263611,1579.905518 626.226318,1567.747192 595.696289,1546.156982 
	C559.950928,1520.878296 534.704956,1486.985107 516.156921,1447.781616 
	C502.990112,1419.952026 493.866638,1390.763428 487.853699,1360.604736 
	C464.233917,1242.136597 353.579254,1176.283569 250.581497,1190.990601 
	C156.752090,1204.388550 71.414368,1283.074463 68.660141,1395.460205 
	C66.974892,1464.226562 93.804604,1521.693604 147.401016,1565.049194 
	C196.013229,1604.373169 252.160309,1619.277466 314.083649,1608.783569 
	C332.363220,1605.685913 350.178101,1599.720459 368.111145,1594.728760 
	C412.831940,1582.280640 457.931396,1576.006592 504.386414,1583.414673 
	C559.396729,1592.186890 605.001343,1617.409790 640.318604,1660.363892 
	C691.747803,1722.913818 691.674194,1809.444458 640.547607,1872.168091 
	C619.157410,1898.410400 592.973145,1918.553101 561.982239,1932.452515 
	C518.714966,1951.857788 473.409424,1955.532837 426.970886,1950.165649 
	C399.088745,1946.943237 372.091187,1939.718140 345.407684,1931.144409 
	C313.859436,1921.007446 281.853210,1918.372070 248.774124,1922.999268 
	C160.665359,1935.324463 73.410469,2009.298096 68.979271,2122.966309 
	C65.794067,2204.672607 100.743065,2268.716553 170.101776,2312.670654 
	C209.670364,2337.745850 253.558228,2346.738525 303.704376,2342.566895 
M6980.749023,1326.000244 
	C6980.621094,1073.369751 6980.493652,820.739319 6980.340332,568.108887 
	C6980.339844,567.507690 6980.074707,566.832214 6979.733398,566.326294 
	C6979.372070,565.790100 6978.771973,565.415100 6976.923340,563.755188 
	C6975.060059,563.755188 6971.838867,563.750122 6968.617676,563.755859 
	C6891.976074,563.893005 6815.333984,564.029907 6738.692383,564.193115 
	C6738.053223,564.194458 6737.351074,564.444641 6736.795898,564.776001 
	C6736.279785,565.084167 6735.921387,565.656799 6734.365723,567.316040 
	C6734.242676,573.970520 6733.967285,581.882751 6733.966797,589.795044 
	C6733.946289,1010.413879 6733.959961,1431.032715 6733.925781,1851.651489 
	C6733.923340,1880.332397 6732.520996,1908.941528 6727.825195,1937.295044 
	C6723.895508,1961.025391 6717.962891,1984.202515 6707.721191,2006.076416 
	C6691.209473,2041.342773 6665.377930,2067.049072 6629.180176,2081.970215 
	C6612.480957,2088.854004 6595.076660,2093.053223 6577.298828,2096.132812 
	C6552.168945,2100.486328 6526.855469,2100.046875 6501.530762,2100.169189 
	C6497.164551,2100.190186 6492.803223,2101.279541 6488.827148,2101.822754 
	C6488.425293,2104.530029 6488.060547,2105.844482 6488.060059,2107.158936 
	C6488.022949,2173.151367 6487.995117,2239.143555 6488.090820,2305.135986 
	C6488.094238,2307.551758 6489.323730,2309.966309 6489.843262,2311.872314 
	C6524.784180,2311.872314 6558.804688,2313.030029 6592.714355,2311.589600 
	C6638.758789,2309.634277 6684.057617,2301.909424 6728.104492,2287.875488 
	C6828.118164,2256.009521 6898.584961,2191.925781 6938.455566,2094.602783 
	C6955.209961,2053.705078 6965.449219,2011.067749 6971.901367,1967.456787 
	C6978.744141,1921.203857 6980.836426,1874.658936 6980.799805,1827.943848 
	C6980.669434,1661.962891 6980.749023,1495.981567 6980.749023,1326.000244 
M6913.765625,47.688004 
	C6883.110352,39.322010 6852.274414,37.999832 6820.822754,43.302761 
	C6716.605469,60.874325 6627.905762,160.518967 6649.341797,287.532990 
	C6669.816895,408.847656 6784.629883,482.393005 6898.651367,458.958954 
	C7056.508789,426.515656 7117.725098,246.580460 7026.682617,124.415749 
	C6998.697266,86.863770 6961.585938,62.085068 6913.765625,47.688004 
z"/>
<path fill="#010101" opacity="1.000000" stroke="none" 
	d="
M2763.999023,1289.445312 
	C2661.352051,1289.498657 2560.705566,1289.546875 2460.058838,1289.663452 
	C2458.826172,1289.664917 2457.594482,1290.542847 2455.751221,1291.244141 
	C2455.751221,1294.856689 2455.169434,1298.795044 2455.837646,1302.508667 
	C2468.295654,1371.748291 2493.645752,1435.550293 2536.937500,1491.507812 
	C2589.735352,1559.752930 2658.914307,1603.847290 2741.295898,1627.540405 
	C2800.763672,1644.643311 2861.563965,1649.585205 2923.303223,1645.634277 
	C2961.987305,1643.158691 3000.167969,1638.213623 3037.562988,1627.914673 
	C3118.051270,1605.747314 3184.106201,1562.420654 3233.134033,1494.200439 
	C3235.450928,1490.976562 3238.051514,1487.956787 3240.862549,1484.409668 
	C3330.644531,1484.409668 3420.495605,1484.409668 3510.423340,1484.409668 
	C3512.672607,1491.237549 3508.187500,1496.159058 3505.868164,1501.318359 
	C3443.553467,1639.934204 3343.507080,1741.932007 3206.871094,1808.048462 
	C3143.493164,1838.716309 3076.611572,1857.999023 3007.054199,1868.794678 
	C2967.412354,1874.947388 2927.536377,1877.996704 2887.610352,1878.033447 
	C2746.833008,1878.162964 2614.006836,1847.071167 2494.075195,1771.031006 
	C2352.164307,1681.054932 2260.779785,1553.313965 2216.059082,1391.797729 
	C2194.151367,1312.674561 2187.603027,1231.856445 2192.531006,1150.205811 
	C2198.793457,1046.448730 2224.856445,947.925293 2275.543701,856.679260 
	C2353.550293,716.253418 2469.251465,619.747559 2619.387207,564.047302 
	C2679.634521,541.695557 2741.997314,528.578064 2806.040771,522.959534 
	C2907.335205,514.072693 3006.900635,522.143860 3104.466309,551.676270 
	C3324.110840,618.160950 3487.581787,787.263123 3543.902832,1017.770447 
	C3558.036865,1075.616821 3565.216797,1134.328247 3564.773926,1193.937988 
	C3564.575928,1220.598145 3564.751465,1247.260986 3564.729004,1273.922607 
	C3564.725098,1278.440186 3564.574463,1282.957764 3564.520752,1285.882935 
	C3562.694336,1287.937134 3562.342285,1288.593994 3561.796631,1288.874146 
	C3561.241699,1289.159058 3560.495850,1289.139038 3559.833740,1289.139404 
	C3295.222168,1289.247681 3030.610596,1289.346436 2763.999023,1289.445312 
M2810.000000,1068.444580 
	C2902.651367,1068.444580 2995.302979,1068.444580 3087.954346,1068.444580 
	C3155.276367,1068.444580 3222.598633,1068.478271 3289.920654,1068.383057 
	C3295.506592,1068.375122 3301.480225,1069.641479 3306.225586,1066.828613 
	C3306.475098,1064.798096 3306.765869,1064.081909 3306.607910,1063.483765 
	C3267.684814,915.932190 3177.023438,817.149536 3030.434570,771.670044 
	C2960.623535,750.011169 2889.176270,746.486450 2816.869629,754.946594 
	C2763.411133,761.201416 2712.458496,775.962158 2664.860840,801.058289 
	C2560.414307,856.128113 2496.095703,943.093323 2464.599121,1055.674927 
	C2463.585693,1059.297363 2463.760254,1063.252075 2463.241943,1068.444580 
	C2578.186035,1068.444580 2692.093018,1068.444580 2810.000000,1068.444580 
z"/>
<path fill="#020202" opacity="1.000000" stroke="none" 
	d="
M6366.807129,728.000610 
	C6366.807129,967.253052 6366.807129,1204.505371 6366.807129,1442.899902 
	C6371.794922,1443.453003 6376.213867,1444.360596 6380.635254,1444.369629 
	C6430.624512,1444.470947 6480.613770,1444.434326 6530.603027,1444.434692 
	C6537.180176,1444.434814 6543.757812,1444.434692 6551.518555,1444.434692 
	C6552.182617,1448.409180 6553.136230,1451.468262 6553.140137,1454.528442 
	C6553.221191,1521.847290 6553.208008,1589.166260 6553.148438,1656.485229 
	C6553.146484,1658.977173 6552.493164,1661.468750 6551.979004,1665.127563 
	C6536.084473,1665.770630 6520.892090,1665.361206 6505.720703,1665.433594 
	C6490.391113,1665.506592 6475.060547,1665.449707 6459.730469,1665.449707 
	C6444.400391,1665.449707 6429.062500,1665.144897 6413.742676,1665.535889 
	C6398.587402,1665.922729 6383.291992,1663.739502 6366.807129,1667.245728 
	C6366.807129,1717.545166 6366.808105,1767.457886 6366.807129,1817.370605 
	C6366.806152,1867.180176 6366.811523,1916.989868 6366.802246,1966.468506 
	C6347.708984,1969.229736 6138.294434,1969.088013 6120.296875,1966.378662 
	C6119.649414,1952.196899 6120.089355,1937.677368 6120.006836,1923.184692 
	C6119.927246,1909.188110 6119.989746,1895.190796 6119.989746,1881.193726 
	C6119.989746,1866.530151 6119.989746,1851.866699 6119.989746,1837.203125 
	C6119.989746,1823.206055 6119.989746,1809.209106 6119.989746,1795.212036 
	C6119.989746,1780.548462 6119.989746,1765.885010 6119.989746,1751.221436 
	C6119.989746,1737.224365 6119.989746,1723.227417 6119.989746,1709.230347 
	C6119.989746,1694.669678 6119.989746,1680.109131 6119.989746,1664.175415 
	C6113.181641,1663.733032 6107.444336,1663.040039 6101.706055,1663.035522 
	C6014.391113,1662.966431 5927.076660,1662.987549 5839.761719,1662.987427 
	C5724.453125,1662.987427 5609.143555,1663.207153 5493.835938,1662.892944 
	C5437.667480,1662.739990 5384.119629,1650.601318 5334.357910,1623.996094 
	C5271.422363,1590.346924 5225.207031,1541.279297 5200.782715,1473.670166 
	C5174.989746,1402.273804 5181.610352,1332.205688 5213.291016,1264.021851 
	C5223.421387,1242.218018 5236.450684,1222.119507 5251.041016,1202.968994 
	C5408.519043,996.265625 5565.908203,789.494995 5723.315430,582.738098 
	C5752.778809,544.037354 5782.048340,505.188019 5811.703613,466.635101 
	C5858.583496,405.687531 5919.357910,365.910645 5994.711914,349.974823 
	C6143.909180,318.422791 6311.491699,401.782135 6356.078125,571.020996 
	C6363.416016,598.873901 6366.824707,627.226990 6366.809082,656.012207 
	C6366.796387,679.341675 6366.807129,702.671143 6366.807129,728.000610 
M5631.556641,1105.526855 
	C5609.909668,1134.255737 5588.253906,1162.977539 5566.618164,1191.715210 
	C5529.358398,1241.205933 5492.541016,1291.037842 5454.721680,1340.097534 
	C5424.820801,1378.884766 5448.613770,1437.422729 5499.507324,1441.726440 
	C5506.128906,1442.286255 5512.811523,1442.278931 5519.465820,1442.280518 
	C5650.072754,1442.310669 5780.679688,1442.303101 5911.286621,1442.303223 
	C5973.924316,1442.303223 6036.562500,1442.354614 6099.200195,1442.226440 
	C6105.702637,1442.213135 6112.533691,1443.898682 6120.000488,1439.278320 
	C6120.000488,1433.431885 6120.000488,1426.857910 6120.000488,1420.283936 
	C6120.000488,1165.733887 6120.002441,911.183777 6119.986328,656.633667 
	C6119.985840,650.640076 6120.243164,644.593994 6119.577637,638.662476 
	C6117.356934,618.879211 6107.901367,603.250427 6090.595215,593.315247 
	C6065.561523,578.943848 6028.791504,580.177429 6007.081543,606.763000 
	C6004.134277,610.372009 6001.353027,614.118530 5998.549316,617.842712 
	C5876.758789,779.626343 5754.974121,941.414429 5631.556641,1105.526855 
z"/>
<path fill="#010101" opacity="1.000000" stroke="none" 
	d="
M4841.216797,1725.233276 
	C4750.797363,1798.514160 4648.888672,1843.103271 4536.290039,1864.602295 
	C4488.984375,1873.634521 4441.229492,1878.005371 4393.286621,1878.046509 
	C4253.256836,1878.166138 4121.137695,1847.288208 4001.721924,1771.699585 
	C3864.153076,1684.620117 3774.200439,1561.363525 3728.092285,1405.708130 
	C3703.422119,1322.423950 3695.625488,1237.118408 3700.801514,1150.714600 
	C3707.057129,1046.291626 3733.181396,947.054565 3784.512451,855.449890 
	C3867.407471,707.516907 3991.080322,608.921631 4151.557617,555.840942 
	C4203.571289,538.636658 4257.020508,528.295837 4311.601074,523.155334 
	C4368.218750,517.822998 4424.782227,517.916565 4481.159180,524.510681 
	C4620.105469,540.762329 4745.531250,589.827332 4852.416504,681.714478 
	C4955.626953,770.441650 5022.075195,882.100037 5055.933594,1013.480103 
	C5077.763184,1098.184082 5083.669922,1184.286011 5075.433594,1271.196045 
	C5063.700684,1394.997314 5023.997559,1508.754395 4950.425781,1609.831543 
	C4919.294922,1652.600586 4883.241699,1690.782349 4841.216797,1725.233276 
M4767.569336,950.616638 
	C4714.525879,863.171326 4638.933105,803.806519 4541.726074,773.207275 
	C4446.553223,743.248352 4349.981445,742.169128 4254.128906,769.475952 
	C4144.546875,800.693970 4061.249023,866.457703 4006.579346,967.060730 
	C3977.603027,1020.383484 3961.296387,1077.662598 3954.832764,1137.949219 
	C3947.214111,1209.008179 3951.353516,1279.187012 3972.502441,1347.560181 
	C4014.264648,1482.573364 4100.831055,1575.980347 4235.216797,1622.027466 
	C4319.551270,1650.924561 4406.391113,1655.151978 4493.455078,1636.267700 
	C4651.901367,1601.900146 4757.454102,1507.249512 4808.542480,1353.221436 
	C4831.086426,1285.252319 4836.215332,1215.201172 4829.114746,1143.994629 
	C4822.344238,1076.103271 4803.490234,1012.231812 4767.569336,950.616638 
z"/>
<path fill="#020202" opacity="1.000000" stroke="none" 
	d="
M810.335999,986.116760 
	C830.958557,889.222107 868.331665,801.891602 930.500977,726.101807 
	C992.494568,650.526184 1070.857544,598.225647 1162.123657,564.751587 
	C1214.847412,545.413757 1269.396484,533.751648 1325.216675,527.447266 
	C1380.385864,521.216248 1435.651611,520.662170 1490.882324,524.402344 
	C1579.326904,530.391663 1664.789551,549.426453 1744.940552,588.395569 
	C1874.786621,651.526123 1962.442749,752.651428 2012.022461,887.542480 
	C2030.240723,937.108948 2041.788940,988.279907 2048.785645,1040.617432 
	C2054.361572,1082.325928 2056.731689,1124.161255 2056.735596,1166.178589 
	C2056.755615,1385.460938 2056.746094,1604.743286 2056.746582,1824.025635 
	C2056.746582,1829.937622 2056.746338,1835.849731 2056.746338,1840.689575 
	C2055.067627,1842.173218 2054.607666,1842.674194 2054.057129,1843.038452 
	C2053.535645,1843.383667 2052.919678,1843.816772 2052.344482,1843.817749 
	C1977.032227,1843.946899 1901.719849,1844.039795 1826.407593,1844.133301 
	C1821.787720,1844.139038 1817.167847,1844.134277 1812.938965,1844.134277 
	C1808.003784,1836.453247 1810.069702,1828.929199 1810.059082,1821.841187 
	C1809.904785,1719.198608 1809.953369,1616.555664 1809.953369,1513.912842 
	C1809.953369,1400.605835 1809.968140,1287.298950 1809.945190,1173.991943 
	C1809.937134,1134.612671 1807.302124,1095.455566 1800.069458,1056.671387 
	C1791.967163,1013.222717 1778.980713,971.406372 1758.262329,932.242371 
	C1716.727417,853.729309 1653.686279,799.850281 1569.317871,772.745667 
	C1476.115112,742.802856 1381.521118,742.090149 1287.867432,770.010742 
	C1183.395752,801.156311 1112.420776,870.069153 1072.431396,971.090149 
	C1057.408447,1009.041138 1048.540649,1048.565308 1043.398926,1089.056396 
	C1039.777832,1117.573486 1038.808105,1146.145020 1038.808960,1174.811523 
	C1038.812012,1267.456665 1038.820190,1360.101685 1038.788818,1452.746826 
	C1038.786621,1459.280518 1038.480103,1465.814209 1038.285889,1473.503174 
	C1017.409851,1467.554810 997.888245,1461.434448 978.071472,1456.499268 
	C957.309326,1451.328613 935.887451,1449.282471 914.623718,1449.803467 
	C894.070618,1450.307251 873.357239,1452.397949 853.137939,1456.103516 
	C833.032288,1459.788086 813.453857,1466.349731 792.624268,1471.922607 
	C792.282959,1467.828247 791.692200,1464.055908 791.694275,1460.283813 
	C791.750610,1357.642944 791.709473,1255.001709 792.037415,1152.361572 
	C792.214661,1096.893555 798.838562,1042.058105 810.335999,986.116760 
z"/>
<path fill="#034164" opacity="1.000000" stroke="none" 
	d="
M301.918427,2342.794922 
	C253.558228,2346.738525 209.670364,2337.745850 170.101776,2312.670654 
	C100.743065,2268.716553 65.794067,2204.672607 68.979271,2122.966309 
	C73.410469,2009.298096 160.665359,1935.324463 248.774124,1922.999268 
	C281.853210,1918.372070 313.859436,1921.007446 345.407684,1931.144409 
	C372.091187,1939.718140 399.088745,1946.943237 426.970886,1950.165649 
	C473.409424,1955.532837 518.714966,1951.857788 561.982239,1932.452515 
	C592.973145,1918.553101 619.157410,1898.410400 640.547607,1872.168091 
	C691.674194,1809.444458 691.747803,1722.913818 640.318604,1660.363892 
	C605.001343,1617.409790 559.396729,1592.186890 504.386414,1583.414673 
	C457.931396,1576.006592 412.831940,1582.280640 368.111145,1594.728760 
	C350.178101,1599.720459 332.363220,1605.685913 314.083649,1608.783569 
	C252.160309,1619.277466 196.013229,1604.373169 147.401016,1565.049194 
	C93.804604,1521.693604 66.974892,1464.226562 68.660141,1395.460205 
	C71.414368,1283.074463 156.752090,1204.388550 250.581497,1190.990601 
	C353.579254,1176.283569 464.233917,1242.136597 487.853699,1360.604736 
	C493.866638,1390.763428 502.990112,1419.952026 516.156921,1447.781616 
	C534.704956,1486.985107 559.950928,1520.878296 595.696289,1546.156982 
	C626.226318,1567.747192 660.263611,1579.905518 697.364685,1584.621338 
	C748.184021,1591.080933 796.912842,1581.806274 844.826599,1566.313477 
	C869.864502,1558.217285 895.257263,1553.884888 921.496765,1555.431396 
	C1008.739563,1560.573364 1072.218506,1602.832764 1107.292480,1682.291260 
	C1162.125610,1806.512695 1087.608276,1950.447510 948.765381,1974.943359 
	C913.539856,1981.158081 878.322144,1978.123169 844.221252,1966.314209 
	C822.133057,1958.665283 799.546082,1952.789673 776.424622,1949.700562 
	C733.747498,1943.998657 691.400391,1944.522827 650.035034,1958.800659 
	C598.661377,1976.532837 560.280884,2009.997070 531.996887,2055.701904 
	C509.642120,2091.825439 496.250092,2131.385254 487.695679,2172.788086 
	C477.792999,2220.716309 454.726318,2261.125732 417.422638,2292.989502 
	C387.364227,2318.665039 352.805237,2334.923340 313.543060,2340.790771 
	C310.248566,2341.282959 306.983276,2341.970215 301.918427,2342.794922 
z"/>
<path fill="#020202" opacity="1.000000" stroke="none" 
	d="
M6980.749023,1328.000366 
	C6980.749023,1495.981567 6980.669434,1661.962891 6980.799805,1827.943848 
	C6980.836426,1874.658936 6978.744141,1921.203857 6971.901367,1967.456787 
	C6965.449219,2011.067749 6955.209961,2053.705078 6938.455566,2094.602783 
	C6898.584961,2191.925781 6828.118164,2256.009521 6728.104492,2287.875488 
	C6684.057617,2301.909424 6638.758789,2309.634277 6592.714355,2311.589600 
	C6558.804688,2313.030029 6524.784180,2311.872314 6489.843262,2311.872314 
	C6489.323730,2309.966309 6488.094238,2307.551758 6488.090820,2305.135986 
	C6487.995117,2239.143555 6488.022949,2173.151367 6488.060059,2107.158936 
	C6488.060547,2105.844482 6488.425293,2104.530029 6488.827148,2101.822754 
	C6492.803223,2101.279541 6497.164551,2100.190186 6501.530762,2100.169189 
	C6526.855469,2100.046875 6552.168945,2100.486328 6577.298828,2096.132812 
	C6595.076660,2093.053223 6612.480957,2088.854004 6629.180176,2081.970215 
	C6665.377930,2067.049072 6691.209473,2041.342773 6707.721191,2006.076416 
	C6717.962891,1984.202515 6723.895508,1961.025391 6727.825195,1937.295044 
	C6732.520996,1908.941528 6733.923340,1880.332397 6733.925781,1851.651489 
	C6733.959961,1431.032715 6733.946289,1010.413879 6733.966797,589.795044 
	C6733.967285,581.882751 6734.242676,573.970520 6734.365723,567.316040 
	C6735.921387,565.656799 6736.279785,565.084167 6736.795898,564.776001 
	C6737.351074,564.444641 6738.053223,564.194458 6738.692383,564.193115 
	C6815.333984,564.029907 6891.976074,563.893005 6968.617676,563.755859 
	C6971.838867,563.750122 6975.060059,563.755188 6976.923340,563.755188 
	C6978.771973,565.415100 6979.372070,565.790100 6979.733398,566.326294 
	C6980.074707,566.832214 6980.339844,567.507690 6980.340332,568.108887 
	C6980.493652,820.739319 6980.621094,1073.369751 6980.749023,1328.000366 
z"/>
<path fill="#034164" opacity="1.000000" stroke="none" 
	d="
M6915.357910,48.022751 
	C6961.585938,62.085068 6998.697266,86.863770 7026.682617,124.415749 
	C7117.725098,246.580460 7056.508789,426.515656 6898.651367,458.958954 
	C6784.629883,482.393005 6669.816895,408.847656 6649.341797,287.532990 
	C6627.905762,160.518967 6716.605469,60.874325 6820.822754,43.302761 
	C6852.274414,37.999832 6883.110352,39.322010 6915.357910,48.022751 
z"/>
<path fill="#FEFEFE" opacity="1.000000" stroke="none" 
	d="
M2808.000000,1068.444580 
	C2692.093018,1068.444580 2578.186035,1068.444580 2463.241943,1068.444580 
	C2463.760254,1063.252075 2463.585693,1059.297363 2464.599121,1055.674927 
	C2496.095703,943.093323 2560.414307,856.128113 2664.860840,801.058289 
	C2712.458496,775.962158 2763.411133,761.201416 2816.869629,754.946594 
	C2889.176270,746.486450 2960.623535,750.011169 3030.434570,771.670044 
	C3177.023438,817.149536 3267.684814,915.932190 3306.607910,1063.483765 
	C3306.765869,1064.081909 3306.475098,1064.798096 3306.225586,1066.828613 
	C3301.480225,1069.641479 3295.506592,1068.375122 3289.920654,1068.383057 
	C3222.598633,1068.478271 3155.276367,1068.444580 3087.954346,1068.444580 
	C2995.302979,1068.444580 2902.651367,1068.444580 2808.000000,1068.444580 
z"/>
<path fill="#FDFDFD" opacity="1.000000" stroke="none" 
	d="
M5632.373047,1104.364502 
	C5754.974121,941.414429 5876.758789,779.626343 5998.549316,617.842712 
	C6001.353027,614.118530 6004.134277,610.372009 6007.081543,606.763000 
	C6028.791504,580.177429 6065.561523,578.943848 6090.595215,593.315247 
	C6107.901367,603.250427 6117.356934,618.879211 6119.577637,638.662476 
	C6120.243164,644.593994 6119.985840,650.640076 6119.986328,656.633667 
	C6120.002441,911.183777 6120.000488,1165.733887 6120.000488,1420.283936 
	C6120.000488,1426.857910 6120.000488,1433.431885 6120.000488,1439.278320 
	C6112.533691,1443.898682 6105.702637,1442.213135 6099.200195,1442.226440 
	C6036.562500,1442.354614 5973.924316,1442.303223 5911.286621,1442.303223 
	C5780.679688,1442.303101 5650.072754,1442.310669 5519.465820,1442.280518 
	C5512.811523,1442.278931 5506.128906,1442.286255 5499.507324,1441.726440 
	C5448.613770,1437.422729 5424.820801,1378.884766 5454.721680,1340.097534 
	C5492.541016,1291.037842 5529.358398,1241.205933 5566.618164,1191.715210 
	C5588.253906,1162.977539 5609.909668,1134.255737 5632.373047,1104.364502 
z"/>
<path fill="#FEFEFE" opacity="1.000000" stroke="none" 
	d="
M4768.244141,951.915771 
	C4803.490234,1012.231812 4822.344238,1076.103271 4829.114746,1143.994629 
	C4836.215332,1215.201172 4831.086426,1285.252319 4808.542480,1353.221436 
	C4757.454102,1507.249512 4651.901367,1601.900146 4493.455078,1636.267700 
	C4406.391113,1655.151978 4319.551270,1650.924561 4235.216797,1622.027466 
	C4100.831055,1575.980347 4014.264648,1482.573364 3972.502441,1347.560181 
	C3951.353516,1279.187012 3947.214111,1209.008179 3954.832764,1137.949219 
	C3961.296387,1077.662598 3977.603027,1020.383484 4006.579346,967.060730 
	C4061.249023,866.457703 4144.546875,800.693970 4254.128906,769.475952 
	C4349.981445,742.169128 4446.553223,743.248352 4541.726074,773.207275 
	C4638.933105,803.806519 4714.525879,863.171326 4768.244141,951.915771 
z"/>
</svg>