<svg id="Layer_1" data-name="Layer 1" xmlns="http://www.w3.org/2000/svg" xmlns:xlink="http://www.w3.org/1999/xlink" viewBox="0 0 222.31534 204.17796"><defs><style>.cls-1{fill:none;}.cls-2{clip-path:url(#clip-path);}.cls-3{fill:#0f7dc2;}</style><clipPath id="clip-path"><rect class="cls-1" x="-7.04277" y="-84.74057" width="235.69237" height="305.01365"/></clipPath></defs><title>neon</title><g class="cls-2"><path class="cls-3" d="M105.06387,130.24642c-43.345,3.9986-88.52323-2.29943-94.85154-36.174C7.11671,77.37354,14.73485,59.666,24.82615,48.65927V42.7821C6.647,58.726-3.20476,78.89972,2.46953,102.73c7.24916,30.56575,46.01281,47.875,105.19748,42.1272,23.4262-2.27008,54.06378-9.80284,75.37653-21.50982V106.72863C163.7,118.254,131.71225,127.77438,105.06387,130.24642M219.25031,42.38493C208.9687-7.81169,111.50555-10.994,48.67883,27.24986v4.2239C111.43334-.7891,200.448-.59315,208.55234,45.64734c2.71918,15.29605-5.89712,31.232-21.29018,40.40753V98.053c18.51726-6.79187,37.51029-28.75978,31.98815-55.668"/><path class="cls-3" d="M179.53912,35.07523H168.17435V85.69194c0,5.93209,2.86771,11.09055,11.36477,11.915Z"/><path class="cls-3" d="M44.2165,53.55636H32.83087l-.0062,33.0698c0,5.95277,2.87691,11.10561,11.39183,11.915Z"/><rect class="cls-3" x="32.83087" y="36.61474" width="11.35009" height="10.77299"/><path class="cls-3" d="M112.27845,98.01722c-9.19847,0-13.09179-6.39319-13.09179-12.69161V41.4169h11.26586V53.55636h8.48462v9.09976h-8.48462V84.62947c0,2.568,1.21929,3.99861,3.89706,3.99861h4.58756v9.38914h-6.65869"/><path class="cls-3" d="M133.009,79.31041c0,5.76549,3.60559,10.00218,9.98411,10.00218,4.99826,0,7.46205-1.38666,10.34739-4.23669l6.96186,6.63123c-4.46309,4.40934-9.13978,7.08972-17.39236,7.08972-10.78146,0-21.11157-5.88433-21.11157-23.039,0-14.66553,9.027-22.95555,20.86147-22.95555,12.03118,0,18.94524,9.70452,18.94524,22.44407v4.064H133.009m9.15745-17.19021a8.64931,8.64931,0,0,0-8.07469,4.665,11.635,11.635,0,0,0-1.08276,4.84352h17.36267c-.22-4.84352-2.416-9.50853-8.20522-9.50853"/><path class="cls-3" d="M74.815,62.65593c3.30363,0,4.67692,1.63337,4.67692,4.28406V98.083H90.76V66.87456c0-6.32364-3.3694-13.30634-13.26459-13.30634l-23.2769-.01186V98.083h11.2728V62.65593Z"/><path class="cls-3" d="M191.767,44.11965a4.52234,4.52234,0,0,1,0-9.04461,4.52234,4.52234,0,1,1,0,9.04461m0-8.29055a3.75917,3.75917,0,1,0,3.77821,3.76807A3.80022,3.80022,0,0,0,191.767,35.8291m2.00493,6.47853h-.84506a.19089.19089,0,0,1-.17227-.1128L191.612,40.252a.33476.33476,0,0,0-.16059-.08935H190.928v1.93668a.19892.19892,0,0,1-.19033.20835h-.76195a.207.207,0,0,1-.19029-.20835V37.21441c0-.2858.09513-.40314.34487-.43908.27378-.02953.988-.06543,1.38666-.06543,1.41,0,2.23734.41519,2.23734,1.72267v.09555a1.37027,1.37027,0,0,1-1.01732,1.4442l1.19,2.0256a.36526.36526,0,0,1,.0297.14331.16084.16084,0,0,1-.18467.1664m-1.09478-3.87506c0-.54571-.33925-.71832-1.06512-.71832h-.7202v1.54987c.11322,0,.62508.02369.7202.02369.72587,0,1.06512-.2422,1.06512-.75969Z"/></g><path d="M56.19648,166.97137H63.487l13.21143,23.20605V166.97137h6.48v33.28125H76.22577L62.67694,176.63836v23.61426H56.19648Z"/><path d="M105.22187,176.14031a10.01123,10.01123,0,0,1,4.25293,3.64063,12.09142,12.09142,0,0,1,1.96044,5.08789,31.43166,31.43166,0,0,1,.21241,4.88476H93.72284q.14941,3.70313,2.57324,5.19336a6.53776,6.53776,0,0,0,3.54834.92578,4.99559,4.99559,0,0,0,4.89747-2.82324h6.56982a8.03544,8.03544,0,0,1-2.38574,4.44824q-3.30689,3.59034-9.25928,3.58985a13.41473,13.41473,0,0,1-8.66846-3.02735q-3.75585-3.02782-3.75586-9.85351,0-6.394,3.39063-9.80762a11.86583,11.86583,0,0,1,8.80078-3.41211A14.01738,14.01738,0,0,1,105.22187,176.14031Zm-9.627,5.5586a6.68731,6.68731,0,0,0-1.71435,3.80957H104.967a5.37,5.37,0,0,0-1.71435-3.88868,5.63743,5.63743,0,0,0-3.81641-1.32714A5.103,5.103,0,0,0,95.59491,181.69891Z"/><path d="M135.426,197.24188q-3.11573,3.84667-9.46094,3.8457-6.34423,0-9.46-3.8457a15.26786,15.26786,0,0,1,0-18.48731q3.11573-3.90381,9.46-3.90332,6.34424,0,9.46094,3.90332a15.27168,15.27168,0,0,1,0,18.48731Zm-5.14844-3.55665a11.48879,11.48879,0,0,0,0-11.39648,5.71795,5.71795,0,0,0-8.68164,0,11.41849,11.41849,0,0,0,0,11.39648,5.698,5.698,0,0,0,8.68164,0Z"/><path d="M162.99335,177.05242q2.417,1.99952,2.417,6.627v16.57324h-6.59277V185.28289a6.87267,6.87267,0,0,0-.51563-2.98047,3.62056,3.62056,0,0,0-3.58593-1.89648,4.44634,4.44634,0,0,0-4.46094,2.77734,9.61,9.61,0,0,0-.62695,3.74805v13.32129h-6.43555V175.68719H149.425V179.277a10.91949,10.91949,0,0,1,2.33789-2.73242,8.10235,8.10235,0,0,1,5.01367-1.49023A9.43434,9.43434,0,0,1,162.99335,177.05242Z"/></svg>