<svg id="content" xmlns="http://www.w3.org/2000/svg" viewBox="0 0 1240.41858 229.69814"><defs><style>.cls-1{fill:#020202;}.cls-2{fill:#020201;}.cls-3{fill:#efefef;}.cls-4{fill:#d0d1d0;}.cls-5{fill:#fff;}.cls-6{fill:#e2e2e1;}.cls-7{fill:#e7e7e7;}.cls-8{fill:#dadad9;}.cls-9{fill:#a7d6e2;}.cls-10{fill:#b2e2ee;}.cls-11{fill:#56848e;}.cls-12{fill:#addfeb;}.cls-13{fill:#afe0ed;}.cls-14{fill:#abdce8;}.cls-15{fill:#b0e0ed;}.cls-16{fill:#aadbe7;}.cls-17{fill:#addeea;}.cls-18{fill:#acdde9;}.cls-19{fill:#a7d7e3;}.cls-20{fill:#aadae7;}.cls-21{fill:#a7d7e4;}</style></defs><title>netron</title><path class="cls-1" d="M153.64622,160.02762V40.07347c0-8.394,0-8.39378,8.63451-8.35191a18.28038,18.28038,0,0,0,2.17011-.01112c2.40869-.27778,3.2879.88466,3.10319,3.1474-.044.53925-.00452,1.08526-.00448,1.62814q.00141,78.99129.00265,157.98257v4.14382L53.89035,64.02513c-1.42452,2.19767-.78546,4.20857-.78776,6.04747-.04924,39.26938-.11086,78.53914.06677,117.80779.01958,4.32754-.70759,5.92538-5.45251,5.68729-8.69707-.43642-8.71336-.11208-8.71336-8.918q0-76.27683.03157-152.55358c.00147-1.89-.55778-3.88756.82823-6.45518C77.64507,70.26421,115.1589,114.57105,153.64622,160.02762Z"/><path class="cls-1" d="M1208.12817,36.4131c.00891-3.85351-1.13928-5.26172-4.88549-4.71942a13.08928,13.08928,0,0,1-3.79187-.00079c-4.14759-.63147-5.43921.80133-5.41785,5.19683.189,38.90662.10937,77.81452.10925,116.72205,0,1.68207.00012,3.36414.00012,6.41211-38.49914-45.46838-76.01062-89.77026-113.52209-134.07214l-1.12073.47461v158.296c0,8.73535.00684,8.52606,8.78955,8.80914,4.06409.131,5.411-.74768,5.38855-5.18091-.19983-39.4494-.12756-78.90033-.08-118.35065.00219-1.81128-.61084-3.80511.81762-5.941C1132.136,108.72408,1169.6,153.08522,1208.047,198.61031v-3.67188Q1207.94556,115.67546,1208.12817,36.4131Z"/><path class="cls-2" d="M699.04089,108.94435c13.207-9.533,16.06964-23.21033,15.14411-38.39429-1.17987-19.35577-13.86475-33.3042-32.92316-36.79058-14.0163-2.56385-28.10992-1.94013-42.19922-2.01325-7.95672-.04132-7.02246-1.06579-7.027,6.77051q-.0141,72.2244-.0141,144.44879c0,10.54492.00422,10.35156,10.29688,10.57373,3.78723.08173,4.78149-.86365,4.746-4.70868-.204-22.08172-.09985-44.16638-.09888-66.25.00025-6.52405.67334-7.00226,6.95179-6.20807,2.449.30982,3.18811,2.11768,4.31665,3.647q25.71825,34.93167,51.49,69.82391c1.11273,1.50641,1.74573,3.63733,4.28143,3.608,5.17462-.05969,10.35046-.01788,16.45361-.01788-19.517-25.93152-38.46447-51.10632-57.97656-77.03131C682.75226,116.3838,691.45837,114.41743,699.04089,108.94435Zm-48.59308-4.49213c-2.94238.06556-3.59057-.91619-3.54144-3.66033.15839-8.84845.059-17.70142.05915-26.55262q.00018-13.00579.00042-26.01165c.00006-1.78138-.41949-3.56824,2.546-3.5478,9.93341.06867,19.89795-.20239,29.6355,2.14856,11.2666,2.72016,17.81757,10.40149,18.77887,22.16364a59.012,59.012,0,0,1-.18713,14.04938c-1.99329,12.37762-9.2359,18.5473-22.42255,20.2973C667.043,104.43672,658.74829,104.26741,650.44781,104.45222Z"/><path class="cls-1" d="M347.35681,179.34767c-18.45837.1759-36.92.00812-55.379.144-3.26739.024-4.66119-.42755-4.61938-4.27221q.29928-30.40559.0119-60.80768c-.03491-3.69458,1.14258-4.449,4.57544-4.41638,17.19177.16308,34.3858.07464,51.579.07464,9.322-.00006,9.14057-.00335,9.31159-9.30664.06817-3.7077-.84473-4.90741-4.7392-4.86371-18.63867.20923-37.28217-.01208-55.92114.18384-3.69464.03882-4.88855-.75293-4.81415-4.65814q.37628-20.36352.004-40.7171c-.07123-3.89887.68194-5.17078,4.91473-5.09906,17.00738.28808,34.02246.11914,51.03467.11914,9.58154,0,9.40521-.0022,9.523-9.60315.04364-3.55414-.92835-4.51392-4.49555-4.48956q-35.56356.26394-71.12433-.00611c-3.88311-.02948-4.8056,1.145-4.78247,4.88318.1568,25.33637.08191,50.6742.08191,76.0116-.00006,25.33722.10938,50.67541-.109,76.01074-.03595,4.17249,1.12873,5.03888,5.11731,5.00171,22.07782-.20557,44.15851-.09839,66.23822-.09839,9.0318,0,8.7157-.014,9.11243-8.96118C353.08264,179.83449,351.27167,179.31038,347.35681,179.34767Z"/><path class="cls-1" d="M536.40137,31.60555c-29.31342.22436-58.62952.11346-87.94477.11346-10.29693,0-10.07483.002-10.16668,10.13989-.03369,3.72815,1.45312,3.96088,4.418,3.92584,11.57965-.137,23.17041.20008,34.73913-.18127,4.662-.15369,5.53119,1.27386,5.5138,5.67157-.17487,44.15308-.10627,88.30713-.10627,132.46088,0,9.75921.00574,9.54321,9.87061,9.80774,4.0224.10791,5.15094-.87061,5.1106-5.0188-.22358-22.97956-.10712-45.96234-.10676-68.944.00043-23.16266.08057-46.32587-.08428-69.48737-.02533-3.55841.93249-4.51544,4.46649-4.44952,11.939.22271,23.88812-.07221,35.82611.17865,3.67615.07721,4.885-1.07477,4.40521-4.55213a12.4271,12.4271,0,0,1,.00482-3.79065C543.21472,32.55135,541.0686,31.56984,536.40137,31.60555Z"/><path class="cls-3" d="M951.87854,123.58217c.07764.115.15692.24243.2356.36542.04791-.025.09918-.04267.14679-.0683h-.00007C952.13171,123.77266,952.00531,123.67836,951.87854,123.58217Z"/><path class="cls-3" d="M991.01489,104.09779c.2627-.1438.4325-.057.46656.26508.12689,1.19733.20105,2.39545.25518,3.59387-.02124-1.26391-.04351-2.52783-.07861-3.7915C991.34143,103.46065,990.37964,104.44551,991.01489,104.09779Z"/><path class="cls-3" d="M849.229,127.32863c-.11456-.01392-.22808-.03674-.34192-.05664.02491.0722.03846.13836.05549.20648C849.04071,127.42921,849.12921,127.37746,849.229,127.32863Z"/><path class="cls-3" d="M991.83362,123.53621a2.4912,2.4912,0,0,1-.00293-.302c-.00775-2.68982-.01044-5.38-.02185-8.07-.03754,2.79126-.09967,5.583-.033,8.37329A.50831.50831,0,0,1,991.83362,123.53621Z"/><path class="cls-3" d="M901.94141,14.12325C841.413,11.492,799.62012,60.44,797.83405,108.48134c-2.17774,58.57757,45.26477,103.06647,97.82519,103.5133,55.73419.47388,100.2135-45.21624,99.94952-98.58911C996.65375,59.44313,951.466,16.27614,901.94141,14.12325ZM801.08582,104.39583q-.00981,8.6684-.02033,17.33642A32.94385,32.94385,0,0,1,801.08582,104.39583ZM972.80731,54.42445q1.62387,2.70942,3.24774,5.419l-.00006.00006h.00006c11.06031,10.57642,14.12311,24.47253,16.39881,38.80713a83.5551,83.5551,0,0,1,.99511,22.367c-.154,1.40387.27,2.93457-1.072,4.011l-.0003-.00049v.00025q-1.10075,6.50793-2.20215,13.01544l-.00006.00012.00006-.00006a18.43935,18.43935,0,0,1-4.33911,11.95032c-4.39752,8.3833-7.85962,17.35485-15.072,23.96753l.0003.00146q-1.15026,2.15817-2.30066,4.31647c-3.76269,2.31109-6.10766,6.22278-9.76684,8.65075q-.55829.52414-1.1164,1.04834c-2.81451,2.29132-5.727,4.45166-8.70953,6.5185a6.32058,6.32058,0,0,0-4.30957,2.20263c-5.55829,5.07306-12.37122,7.31153-19.576,8.6648a27.40093,27.40093,0,0,1-8.68176,2.30957l-.005.00043c-10.27258,2.52173-20.55011,4.86224-30.99676,1.498a2.74762,2.74762,0,0,1-1.56293-.53271c-5.27832-.0755-10.19006-1.846-15.17431-3.2815l-.00312-.001.00287.00128c-8.03656-1.50043-15.45117-4.38635-21.745-9.767l-.00019-.00012a91.26474,91.26474,0,0,1-33.68652-34.7323l-.00067-.00135c-5.54889-8.20208-8.72846-17.37573-10.74781-26.96075-.6914-3.2818-1.745-6.59662-1.15631-10.05695-.024-7.194.00037-14.388-.01324-21.582.33813-13.44586,5.09912-25.52124,11.37128-37.16723,5.53357-10.27448,12.48736-19.27918,22.241-25.90607A2.62032,2.62032,0,0,1,836.118,40.3199c.2879-.02283.57605-.04047.86456-.0412.03052.017.06067.02857.09119.04486.22955-4.19635,4.69971-4.5282,6.94714-6.87237,1.26661-1.32111,3.41016-1.74219,4.96741-2.90869l.01245-.009a59.534,59.534,0,0,1,16.40119-7.61426c1.123-.02984,2.327.20643,3.1087-.94537,15.8916-5.31341,32.03241-5.53369,48.31439-2.25281,1.94007.391,3.88715.68836,5.82373,1.0243,3.94464.19732,7.18116,2.80792,11.052,3.28173q-.01317.51151-.02465,1.023c4.262,1.24775,7.83,4.00824,11.98132,5.497l-.0094.00592c3.76984,2.31128,7.7724,4.28858,10.8623,7.57483l3.12806,2.15918a32.8021,32.8021,0,0,0,7.11047,7.0271C968.92957,49.54665,971.33838,51.58553,972.80731,54.42445Z"/><path class="cls-4" d="M885.30127,209.17262c-.52069-.16766-1.04138-.33593-1.56293-.53271A2.74762,2.74762,0,0,0,885.30127,209.17262Z"/><path class="cls-4" d="M958.64758,174.96846c-10.68695,9.31964-22.22674,17.31207-36.02368,21.22528-29.32434,8.31726-56.11365,3.43482-80.46753-15.33758-8.16119-6.29065-13.70013-14.63068-20.28448-22.175a8.73372,8.73372,0,0,1-6.65027.86212c-1.38324-.34442-1.99091-.08-2.08948,1.31586l-.00079-.00129.00067.00135a91.26474,91.26474,0,0,0,33.68652,34.7323l.00019.00012-.00013-.00012q10.871,4.88305,21.74231,9.76587l.00312.001c4.98425,1.43549,9.896,3.206,15.17431,3.2815l3.44745-.09778a87.96168,87.96168,0,0,1,19.163-.00464c3.34735.04541,6.551-1.56445,9.95465-.8642l-.00544.00135.005-.00043a27.40093,27.40093,0,0,0,8.68176-2.30957q9.788-4.33247,19.576-8.6648a6.32058,6.32058,0,0,1,4.30957-2.20263c2.98254-2.06684,5.895-4.22718,8.70953-6.5185q.55821-.52413,1.1164-1.04834c3.65918-2.428,6.00415-6.33966,9.76684-8.65075q1.15036-2.15828,2.30066-4.31647l-.0003-.00146-.001.001C966.67578,173.70418,962.94812,177.78853,958.64758,174.96846Z"/><path class="cls-5" d="M959.63837,40.287l-3.12806-2.15918c-3.0899-3.28625-7.09246-5.26355-10.8623-7.57483l.0094-.00592c-4.15131-1.48877-7.7193-4.24926-11.98132-5.497q.01153-.5115.02465-1.023c-3.87084-.47381-7.10736-3.08441-11.052-3.28173-1.93658-.33594-3.88366-.63331-5.82373-1.0243-16.282-3.28088-32.42279-3.0606-48.31439,2.25281-.78174,1.1518-1.98572.91553-3.1087.94537a59.534,59.534,0,0,0-16.40119,7.61426l-.01245.009c-1.55725,1.1665-3.7008,1.58758-4.96741,2.90869-2.24743,2.34417-6.71759,2.676-6.94714,6.87237,2.83722,1.51447,5.44916.00983,7.97382-.8891,2.03143-.72326,3.9516-1.53167,6.14752-1.285l-.00018.00018.0003-.00018c10.25409-5.26892,20.76111-9.88489,32.33423-11.30371,15.38635-1.88629,30.518-.93964,45.0675,4.913,14.8368,5.9682,27.36847,15.03113,37.03229,27.895a7.91821,7.91821,0,0,0,1.70538,1.302l.00037.00068c3.28424,2.58862,5.85108-.44654,8.72-1.11292l.00006-.00006q-1.62387-2.70951-3.24774-5.419c-1.46893-2.83892-3.87774-4.8778-6.05847-7.11035A32.8021,32.8021,0,0,1,959.63837,40.287Z"/><path class="cls-6" d="M814.92206,158.28535c2.22748-.0307,4.43689-.33129,6.66205-.33056-2.90454-7.3219-7.45807-14.01062-8.46338-22.06207l-.00012-.00141c-4.48371-11.20965-3.48713-22.8764-2.74622-34.49078a75.717,75.717,0,0,1,1.624-8.96826c-1.92889,1.32464-4.02368,3.30188-6.33343,1.76568-2.53394-1.68536-.75574-4.21655-.15064-6.36755A94.642,94.642,0,0,1,835.9657,40.32716c.05072-.0047.10156-.00323.15228-.00726a2.62032,2.62032,0,0,0-1.29169-1.13507c-9.75366,6.62689-16.70745,15.63159-22.241,25.90607-6.27216,11.646-11.03315,23.72137-11.37128,37.16723.01361,7.194-.01074,14.38806.01324,21.582-.58868,3.46033.46491,6.77515,1.15631,10.057,2.01935,9.585,5.19892,18.75867,10.74781,26.96075C811.96088,158.77675,813.36841,158.30684,814.92206,158.28535Z"/><path class="cls-6" d="M815.22162,159.54329a8.73372,8.73372,0,0,0,6.65027-.86212l-.00019-.00019c-.09222-.24346-.19159-.48419-.28759-.72619-2.22516-.00073-4.43457.29986-6.66205.33056-1.55365.02149-2.96118.4914-1.79071,2.57251l.00079.00129C813.23071,159.46327,813.83838,159.19887,815.22162,159.54329Z"/><path class="cls-7" d="M968.15924,62.62093c3.33,6.63385,7.61316,12.72558,10.31659,19.788,5.30872,13.86859,5.50769,28.14691,5.178,42.58728l-.00006.00006c.41357,2.17578.85071,4.3158,3.76538,4.33753,3.93433.02935,2.15527-3.96949,3.89056-5.48566a.53272.53272,0,0,1,.46607-.31067c-.06665-2.79034-.00452-5.582.033-8.37329q-.01529-3.604-.07221-7.20746c-.05413-1.19842-.12829-2.39654-.25518-3.59387-.03406-.32208-.20386-.40888-.46656-.26508-.63525.34772.32654-.63714.64313.06745.0351,1.26367.05737,2.52759.07861,3.7915.10846,2.40112.10456,4.804.07221,7.20746.01141,2.69006.0141,5.38019.02185,8.07a2.4912,2.4912,0,0,0,.00293.302.52954.52954,0,0,1,.18616.0423.53675.53675,0,0,1,.24224.21667q.05714.61643.11463,1.23291l.0003.00049c1.342-1.07642.918-2.60712,1.072-4.011a83.5551,83.5551,0,0,0-.99511-22.367c-2.2757-14.3346-5.3385-28.23071-16.39881-38.80713H976.055C973.92456,62.95161,971.24792,63.67513,968.15924,62.62093Z"/><path class="cls-7" d="M991.73663,107.95674q.06052,3.60333.07221,7.20746C991.84119,112.7607,991.84509,110.35786,991.73663,107.95674Z"/><path class="cls-7" d="M967.335,60.95638c.26276.5617.54663,1.11138.82428,1.66455,3.08868,1.0542,5.76532.33068,7.89575-2.77747C973.186,60.50984,970.6192,63.545,967.335,60.95638Z"/><path class="cls-8" d="M991.77582,123.53749l.00055.04492a5.37289,5.37289,0,0,1-.2873,1.593c-.84753,2.00134-.27453,5.03137-3.62866,5.24579-2.94226.18811-4.37433-1.40467-5.14941-3.71808-.49378,1.95135.24951,4.262-1.27185,5.915l-.00073-.00092.00018.00086c-3.235,16.15429-11.67871,29.50537-22.24524,41.71429a23.60685,23.60685,0,0,0,8.45489-1.20239c.97181-.34186,2.72974-1.77875,3.11518.83179,7.21234-6.61268,10.67444-15.58423,15.072-23.96753a40.37626,40.37626,0,0,1,4.33905-11.95026l.00006-.00012q1.10138-6.50748,2.20215-13.01544v-.00025a2.50927,2.50927,0,0,1-.543-1.49188A.50831.50831,0,0,0,991.77582,123.53749Z"/><path class="cls-8" d="M967.64825,173.1299a23.60685,23.60685,0,0,1-8.45489,1.20239c-.183.21143-.36139.42529-.54565.63605l-.00013.00012c4.30054,2.82007,8.0282-1.26428,12.11481-1.00574l.001-.001C970.378,171.35115,968.62006,172.788,967.64825,173.1299Z"/><path class="cls-8" d="M987.86041,130.42116c3.35413-.21442,2.78113-3.24445,3.62866-5.24579a5.37289,5.37289,0,0,0,.2873-1.593l-.00055-.04492a.53272.53272,0,0,0-.46607.31067c-1.73529,1.51617.04377,5.515-3.89056,5.48566-2.91467-.02173-3.35181-2.16175-3.76538-4.33753a3.5654,3.5654,0,0,0-.94281,1.70679C983.48608,129.01649,984.91815,130.60927,987.86041,130.42116Z"/><path class="cls-8" d="M992.01978,123.57851a.52954.52954,0,0,0-.18616-.0423,2.50927,2.50927,0,0,0,.543,1.49188q-.05741-.61652-.11463-1.23291A.53675.53675,0,0,0,992.01978,123.57851Z"/><path class="cls-4" d="M887.27191,208.93428a8.51479,8.51479,0,0,1-1.97064.23834c10.44665,3.36426,20.72418,1.02375,30.99676-1.498-3.30151.1286-6.431,1.51629-9.77557,1.33624C900.1073,208.48854,893.68683,209.35475,887.27191,208.93428Z"/><path class="cls-4" d="M906.34882,208.53749a87.96168,87.96168,0,0,0-19.163.00464l-3.44745.09778c.52155.19678,1.04224.36505,1.56293.53271a8.51479,8.51479,0,0,0,1.97064-.23834c6.41492.42047,12.83539-.44574,19.25055.0766,3.34454.18005,6.47406-1.20764,9.77557-1.33624l.00544-.00135C912.89978,206.973,909.69617,208.5829,906.34882,208.53749Z"/><path class="cls-7" d="M868.56378,205.35866l-.00287-.00128a106.54035,106.54035,0,0,1-21.74218-9.76575C853.11261,200.97231,860.52722,203.85823,868.56378,205.35866Z"/><path class="cls-7" d="M846.81873,195.59163a106.54035,106.54035,0,0,0,21.74218,9.76575q-10.87134-4.88278-21.74231-9.76587Z"/><path class="cls-7" d="M944.56073,196.69984c-6.08508,3.88288-12.83624,6.26093-19.576,8.6648C932.18951,204.01137,939.00244,201.7729,944.56073,196.69984Z"/><path class="cls-7" d="M944.56073,196.69984q-9.788,4.33238-19.576,8.6648C931.72449,202.96077,938.47565,200.58272,944.56073,196.69984Z"/><path class="cls-6" d="M801.08582,104.39583a32.94385,32.94385,0,0,0-.02033,17.33642Q801.076,113.06432,801.08582,104.39583Z"/><path class="cls-7" d="M990.1745,138.04384l-.00006.00006a76.076,76.076,0,0,1-4.33905,11.95026A18.43935,18.43935,0,0,0,990.1745,138.04384Z"/><path class="cls-7" d="M990.17444,138.0439a40.37626,40.37626,0,0,0-4.33905,11.95026A76.076,76.076,0,0,0,990.17444,138.0439Z"/><path class="cls-9" d="M972.95605,129.31459c-6.992.48053-14.07653-.82611-21.00524,1.08148a4.60168,4.60168,0,0,1-1.62037.02387c-2.01342-.19623-4.66339-.56739-4.9-2.55274-.27911-2.34173,2.30139-2.7,4.32837-2.99792a11.44292,11.44292,0,0,0,2.35535-.92169c-.07868-.123-.158-.25043-.2356-.36542-2.82037-2.14-5.07855-1.7143-7.87848,1.0357-9.54285,9.37256-19.42383,18.40113-29.18957,27.54615-1.8946,1.77423-3.11713,3.22088-2.14216,6.44464,2.14423,7.08948-1.881,13.09424-8.64166,14.11371-6.30365.9505-11.36267-3.62653-11.6972-10.98084-.10694-2.35119-.84613-3.54577-2.94776-4.48193-8.74115-3.89337-17.4309-7.90393-26.098-11.96021a3.91759,3.91759,0,0,0-4.41669.40863c-7.56219,4.98816-13.63928,4.11682-17.07965-2.1961-3.47955-6.38477-.98578-11.94849,7.15522-16.03345-.017-.06812-.03058-.13428-.05549-.20648-1.43542-.25055-2.82073-.89862-4.36022-.18152-6.95228,3.23846-14.39917,2.486-21.66047,2.14026-4.59674-.21887-7.63464.96094-9.13287,4.6607.08557.37256.16455.74646.2547,1.118,1.48462,6.17706,4.0744,11.9259,6.73718,17.66455.7732,1.6662,2.29535,3.33355,1.46051,5.385,2.121.5866,3.16584,2.407,4.34235,4.05963,14.75122,20.72271,34.91791,32.94824,59.96161,35.9707,23.13324,2.792,44.431-3.04578,63.03918-17.56909,2.82556-2.20545,5.29077-4.94409,8.77381-6.23474.0697.00543.1394.00616.2091.011-.13043-1.51422,1.02765-2.51812,1.90869-3.55554,9.69519-11.4165,16.74262-24.17248,19.8595-38.94073a2.71268,2.71268,0,0,0,.18512-.30042C978.46075,129.54152,975.90509,129.11189,972.95605,129.31459Z"/><path class="cls-9" d="M958.512,174.29646c-.0697-.00482-.1394-.00555-.2091-.011-3.483,1.29065-5.94825,4.02929-8.77381,6.23474-18.60815,14.52331-39.90594,20.36108-63.03918,17.56909-25.0437-3.02246-45.21039-15.248-59.96161-35.9707-1.17651-1.65265-2.22138-3.473-4.34235-4.05963a3.96325,3.96325,0,0,1-.31378.62207l-.00024.00012c6.58435,7.54431,12.12329,15.88434,20.28448,22.175,24.35388,18.7724,51.14319,23.65484,80.46753,15.33758,13.79694-3.91321,25.33673-11.90564,36.02368-21.22528l-.00018-.00012A3.125,3.125,0,0,1,958.512,174.29646Z"/><path class="cls-9" d="M822.18591,158.059c.83484-2.0514-.68731-3.71875-1.46051-5.385-2.66278-5.73865-5.25256-11.48749-6.73718-17.66455-.09015-.37159-.16913-.74549-.2547-1.118a12.33731,12.33731,0,0,0-.61243,2.00116l-.00048-.00128.00012.00141c1.00531,8.05145,5.55884,14.74017,8.46338,22.06207.07238,0,.14453-.00556.217-.00488C821.93835,157.976,822.057,158.02333,822.18591,158.059Z"/><path class="cls-9" d="M822.18591,158.059c-.1289-.03565-.24756-.083-.38482-.10907-.07245-.00068-.1446.00488-.217.00488.096.242.19537.48273.28759.72619l.00019.00019.00024-.00012A3.96325,3.96325,0,0,0,822.18591,158.059Z"/><path class="cls-9" d="M980.46527,131.49977a2.71268,2.71268,0,0,1-.18512.30042c-3.11688,14.76825-10.16431,27.52423-19.8595,38.94073-.881,1.03742-2.03912,2.04132-1.90869,3.55554.227.01563.45423.0268.6814.03583,10.56653-12.20892,19.01025-25.56,22.24524-41.71429l-.00018-.00086A8.57346,8.57346,0,0,0,980.46527,131.49977Z"/><path class="cls-9" d="M958.6474,174.96834l.00018.00012.00013-.00012c.18426-.21076.36267-.42462.54565-.63605-.22717-.009-.45435-.0202-.6814-.03583A3.125,3.125,0,0,0,958.6474,174.96834Z"/><path class="cls-10" d="M832.71289,53.8116c-9.82214,11.332-17.26239,23.89026-20.71271,38.6153a1.67286,1.67286,0,0,1,.77289,1.1408l.00391.024c-.31623,6.85071-1.573,13.60229-1.43659,20.51544a94.2546,94.2546,0,0,0,2.02436,18.14179c.69885-2.4397,2.59777-3.963,5.811-4.18451,8.92572-.6153,17.988.42486,26.71973-2.44757a3.28714,3.28714,0,0,1,2.52356.73834,4.1543,4.1543,0,0,1,.46807.91681c.11384.0199.22736.04272.34192.05664,2.59894-.69061,5.637,2.48309,7.67908-.02985a110.862,110.862,0,0,0,9.40149-13.84631c.96692-1.64728-1.20874-3.215-2.13867-4.70178-1.43591-2.29578-3.12866-4.43305-4.52771-6.74915-1.82575-3.02246-3.9104-4.6134-7.88342-4.05994-5.26185.733-8.98591-1.93225-10.77533-7.0639-1.73279-4.96942-.10785-9.06982,3.8814-11.91467,4.23224-3.01813,9.0857-3.02063,12.99988.49933,2.42877,2.18426,4.24219,1.83813,6.68927.68078,8.15711-3.85779,16.312-7.72912,24.57941-11.3396,2.373-1.03625,3.09943-2.25415,3.17377-4.8092.20855-7.17175,5.29809-11.51117,11.99133-10.64984,6.25958.80548,10.46588,7.09222,8.47546,13.7702-.9046,3.03485-.23553,4.61127,1.806,6.509,10.06025,9.35187,20.02674,18.80451,30.05579,28.19019,1.35413,1.26733,2.37555,3.18249,4.97028,1.71435,4.754-2.68994,9.24182-1.49328,12.78045,2.26362a9.83676,9.83676,0,0,1,2.07294,11.06439c-2.05127,4.96667-5.92175,7.02685-11.11591,6.99182-.36126-.00244-.72271.02038-1.08361.03119-.04761.02563-.09888.04333-.14679.0683.06463.101.12811.19384.19354.30023-.76349,1.52441-2.66724,1.76367-3.69684,3.05108,1.012,2.16254,2.81714,1.56885,4.25537,1.31788,7.202-1.25684,14.44965-.51935,21.67481-.66156,2.71289-.05341,5.03222.54113,6.23523,2.77227.48388-1.74621-.01319-3.98156,1.61456-5.15777-.80731-8.39289.45672-16.85443-.93976-25.25428a86.78481,86.78481,0,0,0-12.06372-32.61718c-1.07654-1.70368-2.93335-3.31958-2.46906-5.58692-.07867-.03723-.15619-.06945-.23529-.10876a14.54205,14.54205,0,0,1-3.88061-3.708C936.25421,26.13942,891.59448,18.75026,855.91876,37.454a15.29589,15.29589,0,0,1-4.45312,1.90265,11.35308,11.35308,0,0,0-1.99127.24164C843.82825,44.25789,837.58392,48.19185,832.71289,53.8116Z"/><path class="cls-10" d="M851.46564,39.35664a15.29589,15.29589,0,0,0,4.45312-1.90265c35.67572-18.70373,80.33545-11.31457,106.88361,20.84058a14.54205,14.54205,0,0,0,3.88061,3.708c.0791.03931.15662.07153.23529.10876a4.38848,4.38848,0,0,1,.416-1.15539l.00067.00043-.00037-.00068a7.91821,7.91821,0,0,1-1.70538-1.302c-9.66382-12.86389-22.19549-21.92682-37.03229-27.895-14.5495-5.8526-29.68115-6.79925-45.0675-4.913-11.57312,1.41882-22.08014,6.03479-32.33423,11.30371l-.0003.00018c-.56342.49518-1.14228.9715-1.72052,1.44867A11.35308,11.35308,0,0,1,851.46564,39.35664Z"/><path class="cls-10" d="M813.36475,132.24892a94.2546,94.2546,0,0,1-2.02436-18.14179c-.13641-6.91315,1.12036-13.66473,1.43659-20.51544l-.00391-.024a1.67286,1.67286,0,0,0-.77289-1.1408l-.00128.00506-.00049.00031a75.717,75.717,0,0,0-1.624,8.96826c-.74091,11.61438-1.73749,23.28113,2.74622,34.49078A9.69656,9.69656,0,0,1,813.36475,132.24892Z"/><path class="cls-10" d="M969.38733,67.69826a86.78481,86.78481,0,0,1,12.06372,32.61718c1.39648,8.39985.13245,16.86139.93976,25.25428a3.70693,3.70693,0,0,1,1.26294-.57373l.00006.0003.00006-.00006c.32965-14.44037.13068-28.71869-5.178-42.58728-2.70343-7.06244-6.98657-13.15417-10.31659-19.788a11.891,11.891,0,0,1-1.241-.50959C966.454,64.37868,968.31079,65.99458,969.38733,67.69826Z"/><path class="cls-10" d="M966.91827,62.11134a11.891,11.891,0,0,0,1.241.50959c-.27765-.55317-.56152-1.10285-.82428-1.66455l-.00067-.00043A4.38848,4.38848,0,0,0,966.91827,62.11134Z"/><path class="cls-10" d="M982.39081,125.56972c-1.62775,1.17621-1.13068,3.41156-1.61456,5.15777a6.84061,6.84061,0,0,1,.66217,1.88965l.00073.00092c1.52136-1.653.77807-3.96363,1.27185-5.915-.12024-.35883-.2276-.73181-.31922-1.12158Z"/><path class="cls-10" d="M982.39081,125.56972l.001.01178c.09162.38977.199.76275.31922,1.12158a3.5654,3.5654,0,0,1,.94281-1.70679l-.00006-.0003A3.70693,3.70693,0,0,0,982.39081,125.56972Z"/><path class="cls-10" d="M974.541,127.95522c-7.22516.14221-14.47278-.59528-21.67481.66156-1.43823.251-3.24335.84466-4.25537-1.31788,1.0296-1.28741,2.93335-1.52667,3.69684-3.05108-.06543-.10639-.12891-.19922-.19354-.30023a11.44292,11.44292,0,0,1-2.35535.92169c-2.027.298-4.60748.65619-4.32837,2.99792.23663,1.98535,2.8866,2.35651,4.9,2.55274a4.60168,4.60168,0,0,0,1.62037-.02387c6.92871-1.90759,14.01324-.601,21.00524-1.08148,2.949-.2027,5.5047.22693,7.50922,2.18518a3.469,3.469,0,0,0,.311-.77228C979.57324,128.49635,977.25391,127.90181,974.541,127.95522Z"/><path class="cls-10" d="M822.86639,129.23073c7.2613.34576,14.70819,1.0982,21.66047-2.14026,1.53949-.7171,2.9248-.069,4.36022.18152a4.1543,4.1543,0,0,0-.46807-.91681,3.28714,3.28714,0,0,0-2.52356-.73834c-8.73175,2.87243-17.794,1.83227-26.71973,2.44757-3.2132.22149-5.11212,1.74481-5.811,4.18451.11578.54895.2431,1.09552.36877,1.64251C815.23175,130.19167,818.26965,129.01186,822.86639,129.23073Z"/><path class="cls-10" d="M813.73352,133.89143c-.12567-.547-.253-1.09356-.36877-1.64251a9.69656,9.69656,0,0,0-.24414,3.64239l.00048.00128A12.33731,12.33731,0,0,1,813.73352,133.89143Z"/><path class="cls-10" d="M980.46527,131.49977a8.57346,8.57346,0,0,1,.97315,1.11737,6.84061,6.84061,0,0,0-.66217-1.88965A3.469,3.469,0,0,1,980.46527,131.49977Z"/><path class="cls-3" d="M817.07385,64.31544A100.87235,100.87235,0,0,0,806.9082,87.63826c-1.40558,4.6994-1.35009,4.78168,3.92231,4.55218a1.67027,1.67027,0,0,1,1.15985.23084c-1.29651-1.435-.843-3.04132-.31934-4.56494,6.46924-18.82471,16.81653-34.87287,33.33081-46.51215a14.13063,14.13063,0,0,1,1.41211-.86517c-.74609.25207-1.49133.51-2.247.73315-2.33942.691-4.842,1.94507-7.1095-.30706-.00756-.20569.00592-.39222.0163-.58155-.03052-.01629-.06067-.02789-.09119-.04486-.28851.00073-.57666.01837-.86456.0412a1.676,1.676,0,0,1,.1452.58868C829.50824,48.41164,822.34869,55.55763,817.07385,64.31544Z"/><path class="cls-3" d="M844.16693,41.21217c.75568-.2232,1.50092-.48108,2.247-.73315,1.563-.84754,3.23248-1.462,4.78095-2.32941l.00018-.00018c-2.19592-.24664-4.11609.56177-6.14752,1.285-2.52466.89893-5.1366,2.40357-7.97382.8891-.01038.18933-.02386.37586-.0163.58155C839.325,43.15724,841.82751,41.90321,844.16693,41.21217Z"/><path class="cls-3" d="M805.51434,87.8304c-.6051,2.151-2.3833,4.68219.15064,6.36755,2.30975,1.5362,4.40454-.441,6.33343-1.76568l.00006-.00019-.00811-.0108a1.67027,1.67027,0,0,0-1.15985-.23084c-5.2724.2295-5.32789.14722-3.92231-4.55218a100.87235,100.87235,0,0,1,10.16565-23.32282c5.27484-8.75781,12.43439-15.9038,19.18933-23.40686a1.676,1.676,0,0,0-.1452-.58868c-.05072.004-.10156.00256-.15228.00726A94.642,94.642,0,0,0,805.51434,87.8304Z"/><path class="cls-3" d="M832.71289,53.8116c4.871-5.61975,11.11536-9.55371,16.76148-14.21332a25.73075,25.73075,0,0,0-3.06043.88074,14.13063,14.13063,0,0,0-1.41211.86517C828.48755,52.98347,818.14026,69.03163,811.671,87.85634c-.52362,1.52362-.97717,3.12994.31934,4.56494l.00982.00562C815.4505,77.70186,822.89075,65.14363,832.71289,53.8116Z"/><path class="cls-3" d="M849.47437,39.59828c.57824-.47717,1.1571-.95349,1.72052-1.44867-1.54847.86743-3.2179,1.48187-4.78095,2.32941A25.73075,25.73075,0,0,1,849.47437,39.59828Z"/><polygon class="cls-3" points="812 92.427 811.99 92.421 811.998 92.432 811.998 92.432 811.999 92.432 812 92.427"/><path class="cls-11" d="M846.07581,130.62013c-2.85669,2.55963-4.935,5.31684-3.98359,9.42346,1.46509,6.32331,7.1001,9.50226,12.89765,6.17054,5.42462-3.11737,9.665-2.01068,14.6629.49878a185.48812,185.48812,0,0,0,17.27808,7.84307c3.997,1.51783,6.63434,3.73072,7.06585,8.52759.5033,5.59595,4.65455,8.67481,9.57184,8.03668,5.15052-.66839,8.72711-4.433,7.87647-9.79772-.88147-5.5589.75494-9.49134,4.96167-12.74872,9.895-7.66187,17.57971-17.71918,27.50073-25.35718,3.85474-2.96765,5.71521-2.9765,7.97113.36554.12677.09619.25317.19049.38232.29712h.00007l.00036-.00019c1.33508-1.44934,3.30542-1.335,4.95764-2.00317,4.89087-1.9779,7.36487-6.59241,6.00385-11.28137-1.39057-4.79047-6.012-7.95215-10.9397-6.39142-4.66846,1.4787-7.27783-.50543-10.523-3.24176-9.6958-8.17566-17.8797-17.938-27.70349-25.95386-2.26825-1.85077-3.49823-4.09186-2.80664-7.12909a15.13934,15.13934,0,0,0,.3551-4.31622c-.30035-4.773-3.61059-8.31616-8.10675-8.68848-4.53491-.37548-8.87347,2.45783-9.30438,7.205-.46936,5.16888-3.20264,7.437-7.5412,9.37811-6.432,2.87787-12.98126,5.53321-19.20251,8.88275-3.713,1.99909-7.17292,2.52723-11.119-.19427a9.08534,9.08534,0,0,0-11.92182,1.26831,8.75671,8.75671,0,0,0-1.2055,10.57928c1.71551,3.215,4.61041,4.27008,8.10461,4.51,6.19324.42524,15.56391,10.019,15.99219,16.13636a7.99323,7.99323,0,0,1-1.71051,5.034c-1.59662,2.415-3.38739,4.69086-5.06384,7.0492-3.7096,5.21808-5.28431,5.54962-11.29731,2.6062-.09979.04883-.18829.10058-.28643.14984C849.4,129.30763,847.09186,129.70973,846.07581,130.62013Zm15.00531,3.19245c-.556-1.502.47741-2.39618,1.45221-3.1847,2.6679-2.158,5.5429-4.084,8.04724-6.41235,2.16278-2.01092,3.24554-1.63879,4.89508.67578,5.30017,7.437,5.40063,7.364-3.58826,8.73322-2.67065.4068-5.34015.82251-7.80408,1.20239C862.84515,134.72981,861.59747,135.20753,861.08112,133.81258Zm28.45336-16.82892c-1.51129-1.23249-5.07165-1.73529-3.82574-4.87305,1.29266-3.25537,9.49371-7.36285,11.74908-6.13977,5.30835,2.87878,9.8155,1.57825,13.55475-2.63867,1.434-1.61713,2.46527-1.96143,4.51593-1.29022,8.3758,2.74151,16.82648,5.25464,25.253,7.84076,1.44574.44366,2.6958,1.00024,2.79639,2.8128a2.54783,2.54783,0,0,1-1.81885,2.92273c-9.24383,2.99567-18.49133,5.98016-29.11474,9.41333-.348.12463-.73285-1.44128-1.54877-2.27692-3.94263-4.03845-8.418-5.61761-13.59039-2.5216C893.309,122.74458,891.7124,118.75984,889.53448,116.98366Zm3.56482,7.64306c.06086,3.9195-3.68316,6.9646-8.34088,6.78363-1.5542-.06036-8.96875-8.50921-8.52978-10.27423.78381-3.15149,3.31494-5.0213,6.3526-5.73742C884.18732,115.02016,893.07721,123.20448,893.0993,124.62672Zm-7.98645-15.33612c-1.78534,1.57788-3.18451,1.65082-5.16558.26435-3.46473-2.42469-5.11322-4.82917-1.57514-8.52722,2.73029-2.85383,3.538-7.73993,9.84088-5.82886,3.82672,1.16028,3.99756,3.36621,4.86914,6.8855C891.30573,104.8343,887.94458,106.78792,885.11285,109.2906Zm-5.61419,3.66822c-1.19562,2.19519-2.84723,4.20471-5.16669,4.34283-2.221.13233-3.226-2.34106-3.41577-4.217-.2085-2.05914,1.19543-4.222,3.24695-4.2915C876.59845,108.71071,878.0567,110.97591,879.49866,112.95882Zm14.98852,42.10327c-1.097,1.27746-2.1933.84521-3.383.29773q-13.52655-6.22449-27.06336-12.42652c-1.463-.66735-2.35162-1.50317-2.08716-3.28686a2.68649,2.68649,0,0,1,2.48291-2.44025c4.97388-.83539,9.95673-1.61676,14.93616-2.41839a3.86654,3.86654,0,0,1,4.177,1.77478c3.4256,5.0968,6.94867,10.12805,10.416,15.19708C894.64679,152.7552,895.67975,153.67329,894.48718,155.06209Zm49.01935-33.53748c-10.43555,9.96723-20.92371,19.87964-31.31934,29.88812-1.6574,1.59571-3.08221,2.19343-5.19366.90735-1.03595-.631-2.62091-1.37292-3.54633-1.01165-6.80188,2.6549-8.58569-2.88392-11.354-6.74207-2.30621-3.21417-4.44958-6.54517-6.92773-10.21332,4.16137-2.23108,7.04577-2.0401,9.7196,2.151,2.30029,3.60553,6.48016,4.597,10.634,3.34131,4.27491-1.2923,7.21643-4.18921,7.59113-8.86249.17309-2.16.44189-3.80151,2.82544-4.52825,8.60107-2.62262,17.16662-5.36158,25.76733-7.98554,1.08313-.33044,2.48462-1.46149,3.392.08856C946.00641,120.1147,944.34155,120.72694,943.50653,121.52461ZM896.30609,75.234c1.014-1.49066,2.36316-1.342,3.84491-1.07061,1.21967.22345,2.82587.87469,3.642.35833,6.05975-3.8338,9.07031.80707,12.653,4.19672,8.78125,8.308,17.64734,16.52637,26.41443,24.84912,1.0661,1.01209,3.29193,1.91052,2.2085,3.79657-1.11029,1.93268-3,.325-4.368-.07928-7.936-2.34516-15.79657-4.94477-23.729-7.30249-2.57873-.76648-3.743-1.95246-3.90118-4.85352-.25348-4.65357-3.29639-7.4596-7.64624-8.75165-4.25629-1.26428-8.43683-.16321-10.59564,3.37726-2.74793,4.50647-5.75464,3.70319-9.83252,1.9704C888.8028,86.18166,892.57379,80.721,896.30609,75.234ZM863.87488,83.021c9.14764-4.18518,18.31512-8.32684,27.469-12.49841,1.01563-.46289,1.95032-.93329,2.89643.14722.78949.90161,1.0946,1.727.31127,2.842-3.92779,5.591-7.80535,11.21716-11.71,16.82452-.86664,1.24487-2.19146,1.00848-3.43774.99817-4.94745-.86109-9.90149-1.68592-14.83753-2.60706-1.48461-.277-2.61218-1.00207-2.6856-2.8388A2.838,2.838,0,0,1,863.87488,83.021Zm1.21661,8.25232c2.20258.38049,4.52667.70508,6.81445,1.19824,2.41083.51972,6.25763.566,6.85468,1.95032,1.05878,2.45477-2.2312,4.48529-3.46686,6.82105a4.319,4.319,0,0,1-1.42553,1.59991c-1.75,1.09589-2.67927-.56464-3.64515-1.41455-3.18213-2.80017-7.82983-4.44818-9.06939-8.7558C860.55,90.57436,863.5379,91.53847,865.09149,91.27333Zm1.4419,16.5672c-2.28168-3.33112-4.52759-6.68671-6.788-10.03241q.44037-.37536.8805-.75079c3.08837,2.41406,6.14788,4.86621,9.27575,7.228,1.88874,1.42615,1.7948,2.7309.26691,4.4065C868.29974,110.74129,867.458,109.1902,866.53339,107.84053Zm.26043,9.98377c.69757-.98145,1.37482-3.05817,3.07032-.91395,1.08007,1.36591,2.71972,2.68848.39312,4.46924-3.58227,2.74182-7.0838,5.5893-10.61956,8.39191q-.35771-.25506-.71546-.51025C861.53723,125.44264,864.113,121.59608,866.79382,117.8243Z"/><path class="cls-11" d="M943.90741,123.21663c-9.921,7.638-17.60571,17.69531-27.50073,25.35718-4.20673,3.25738-5.84314,7.18982-4.96167,12.74872.85064,5.36474-2.726,9.12933-7.87647,9.79772-4.91729.63813-9.06854-2.44073-9.57184-8.03668-.43151-4.79687-3.06884-7.00976-7.06585-8.52759a185.48812,185.48812,0,0,1-17.27808-7.84307c-4.99792-2.50946-9.23828-3.61615-14.6629-.49878-5.79755,3.33172-11.43256.15277-12.89765-6.17054-.95141-4.10662,1.1269-6.86383,3.98359-9.42346,1.016-.9104,3.32421-1.3125,2.86676-3.14166-8.141,4.085-10.63477,9.64868-7.15522,16.03345,3.44037,6.31292,9.51746,7.18426,17.07965,2.1961a3.91759,3.91759,0,0,1,4.41669-.40863c8.66712,4.05628,17.35687,8.06684,26.098,11.96021,2.10163.93616,2.84082,2.13074,2.94776,4.48193.33453,7.35431,5.39355,11.93134,11.6972,10.98084,6.76068-1.01947,10.78589-7.02423,8.64166-14.11371-.975-3.22376.24756-4.67041,2.14216-6.44464,9.76574-9.145,19.64672-18.17359,29.18957-27.54615,2.79993-2.75,5.05811-3.17566,7.87848-1.0357C949.62262,120.24013,947.76215,120.249,943.90741,123.21663Z"/><path class="cls-11" d="M860.52631,124.72243c1.67645-2.35834,3.46722-4.63416,5.06384-7.0492a7.99323,7.99323,0,0,0,1.71051-5.034c-.42828-6.11737-9.79895-15.71112-15.99219-16.13636-3.4942-.23993-6.3891-1.295-8.10461-4.51a8.75671,8.75671,0,0,1,1.2055-10.57928,9.08534,9.08534,0,0,1,11.92182-1.26831c3.9461,2.7215,7.406,2.19336,11.119.19427,6.22125-3.34954,12.7705-6.00488,19.20251-8.88275,4.33856-1.9411,7.07184-4.20923,7.5412-9.37811.43091-4.74713,4.76947-7.58044,9.30438-7.205,4.49616.37232,7.8064,3.91547,8.10675,8.68848a15.13934,15.13934,0,0,1-.3551,4.31622c-.69159,3.03723.53839,5.27832,2.80664,7.12909,9.82379,8.01587,18.00769,17.7782,27.70349,25.95386,3.24518,2.73633,5.85455,4.72046,10.523,3.24176,4.92767-1.56073,9.54913,1.60095,10.9397,6.39142,1.361,4.689-1.113,9.30347-6.00385,11.28137-1.65222.66821-3.62256.55383-4.95764,2.00317l-.00036.00019c.3609-.01081.72235-.03363,1.08361-.03119,5.19416.035,9.06464-2.02515,11.11591-6.99182a9.83676,9.83676,0,0,0-2.07294-11.06439c-3.53863-3.7569-8.02643-4.95356-12.78045-2.26362-2.59473,1.46814-3.61615-.447-4.97028-1.71435C934.60773,92.42824,924.64124,82.9756,914.581,73.62373c-2.04156-1.89776-2.71063-3.47418-1.806-6.509,1.99042-6.678-2.21588-12.96472-8.47546-13.7702-6.69324-.86133-11.78278,3.47809-11.99133,10.64984-.07434,2.55505-.80078,3.773-3.17377,4.8092-8.26746,3.61048-16.4223,7.48181-24.57941,11.3396-2.44708,1.15735-4.2605,1.50348-6.68927-.68078-3.91418-3.52-8.76764-3.51746-12.99988-.49933-3.98925,2.84485-5.61419,6.94525-3.8814,11.91467,1.78942,5.13165,5.51348,7.79694,10.77533,7.0639,3.973-.55346,6.05767,1.03748,7.88342,4.05994,1.399,2.3161,3.0918,4.45337,4.52771,6.74915.92993,1.48681,3.10559,3.0545,2.13867,4.70178a110.862,110.862,0,0,1-9.40149,13.84631c-2.04205,2.51294-5.08014-.66076-7.67908.02985C855.242,130.27205,856.81671,129.94051,860.52631,124.72243Z"/><path class="cls-12" d="M897.50513,120.23305c5.17236-3.096,9.64776-1.51685,13.59039,2.5216.81592.83564,1.20074,2.40155,1.54877,2.27692,10.62341-3.43317,19.87091-6.41766,29.11474-9.41333a2.54783,2.54783,0,0,0,1.81885-2.92273c-.10059-1.81256-1.35065-2.36914-2.79639-2.8128-8.42651-2.58612-16.87719-5.09925-25.253-7.84076-2.05066-.67121-3.082-.32691-4.51593,1.29022-3.73925,4.21692-8.2464,5.51745-13.55475,2.63867-2.25537-1.22308-10.45642,2.8844-11.74908,6.13977-1.24591,3.13776,2.31445,3.64056,3.82574,4.87305C891.7124,118.75984,893.309,122.74458,897.50513,120.23305Z"/><path class="cls-13" d="M894.82892,89.75441c2.15881-3.54047,6.33935-4.64154,10.59564-3.37726,4.34985,1.29205,7.39276,4.09808,7.64624,8.75165.15814,2.90106,1.32245,4.087,3.90118,4.85352,7.93244,2.35772,15.793,4.95733,23.729,7.30249,1.368.40423,3.25769,2.012,4.368.07928,1.08343-1.88605-1.1424-2.78448-2.2085-3.79657-8.76709-8.32275-17.63318-16.54114-26.41443-24.84912-3.5827-3.38965-6.59326-8.03052-12.653-4.19672-.81616.51636-2.42236-.13488-3.642-.35833-1.48175-.27143-2.83093-.42-3.84491,1.07061-3.7323,5.487-7.50329,10.9477-11.30969,16.49085C889.07428,93.4576,892.081,94.26088,894.82892,89.75441Z"/><path class="cls-14" d="M941.70294,118.46907c-8.60071,2.624-17.16626,5.36292-25.76733,7.98554-2.38355.72674-2.65235,2.36822-2.82544,4.52825-.3747,4.67328-3.31622,7.57019-7.59113,8.86249-4.15381,1.25574-8.33368.26422-10.634-3.34131-2.67383-4.1911-5.55823-4.38208-9.7196-2.151,2.47815,3.66815,4.62152,6.99915,6.92773,10.21332,2.76831,3.85815,4.55212,9.397,11.354,6.74207.92542-.36127,2.51038.38067,3.54633,1.01165,2.11145,1.28608,3.53626.68836,5.19366-.90735,10.39563-10.00848,20.88379-19.92089,31.31934-29.88812.835-.79767,2.49988-1.40991,1.58844-2.967C944.18756,117.00758,942.78607,118.13863,941.70294,118.46907Z"/><path class="cls-15" d="M864.56628,88.72743c4.936.92114,9.89008,1.746,14.83753,2.60706,1.24628.01031,2.5711.2467,3.43774-.99817,3.90467-5.60736,7.78223-11.23352,11.71-16.82452.78333-1.115.47822-1.94037-.31127-2.842-.94611-1.08051-1.8808-.61011-2.89643-.14722-9.15387,4.17157-18.32135,8.31323-27.469,12.49841a2.838,2.838,0,0,0-1.9942,2.86762C861.9541,87.72536,863.08167,88.45039,864.56628,88.72743Z"/><path class="cls-16" d="M883.54974,136.56258a3.86654,3.86654,0,0,0-4.177-1.77478c-4.97943.80163-9.96228,1.583-14.93616,2.41839a2.68649,2.68649,0,0,0-2.48291,2.44025c-.26446,1.78369.62415,2.61951,2.08716,3.28686q13.53681,6.202,27.06336,12.42652c1.18969.54748,2.286.97973,3.383-.29773,1.19257-1.3888.15961-2.30689-.52142-3.30243C890.49841,146.69063,886.97534,141.65938,883.54974,136.56258Z"/><path class="cls-17" d="M888.213,95.19887c-6.30285-1.91107-7.11059,2.975-9.84088,5.82886-3.53808,3.698-1.88959,6.10253,1.57514,8.52722,1.98107,1.38647,3.38024,1.31353,5.16558-.26435,2.83173-2.50268,6.19288-4.4563,7.9693-7.20623C892.21057,98.56508,892.03973,96.35915,888.213,95.19887Z"/><path class="cls-14" d="M882.58124,115.3987c-3.03766.71612-5.56879,2.58593-6.3526,5.73742-.439,1.765,6.97558,10.21387,8.52978,10.27423,4.65772.181,8.40174-2.86413,8.34088-6.78363C893.07721,123.20448,884.18732,115.02016,882.58124,115.3987Z"/><path class="cls-16" d="M864.08331,134.82692c2.46393-.37988,5.13343-.79559,7.80408-1.20239,8.98889-1.3692,8.88843-1.29621,3.58826-8.73322-1.64954-2.31457-2.7323-2.6867-4.89508-.67578-2.50434,2.32831-5.37934,4.25439-8.04724,6.41235-.9748.78852-2.00824,1.68268-1.45221,3.1847C861.59747,135.20753,862.84515,134.72981,864.08331,134.82692Z"/><path class="cls-18" d="M870.22308,101.4283c.96588.84991,1.89515,2.51044,3.64515,1.41455a4.319,4.319,0,0,0,1.42553-1.59991c1.23566-2.33576,4.52564-4.36628,3.46686-6.821-.597-1.38428-4.44385-1.4306-6.85468-1.95032-2.28778-.49316-4.61187-.81775-6.81445-1.19824-1.55359.26514-4.5415-.699-3.9378,1.39917C862.39325,96.98012,867.041,98.62813,870.22308,101.4283Z"/><path class="cls-19" d="M870.25726,121.37959c2.3266-1.78076.687-3.10333-.39312-4.46924-1.6955-2.14422-2.37275-.0675-3.07032.91395-2.68084,3.77178-5.25659,7.61834-7.87158,11.43695q.35789.25515.71546.51025C863.17346,126.96889,866.675,124.12141,870.25726,121.37959Z"/><path class="cls-20" d="M870.9162,113.08467c.18982,1.87592,1.19476,4.34931,3.41577,4.217,2.31946-.13812,3.97107-2.14764,5.16669-4.34283-1.442-1.98291-2.90021-4.24811-5.33551-4.16565C872.11163,108.86269,870.7077,111.02553,870.9162,113.08467Z"/><path class="cls-21" d="M870.16858,108.69179c1.52789-1.6756,1.62183-2.98035-.26691-4.4065-3.12787-2.36175-6.18738-4.8139-9.27575-7.228q-.44019.37545-.8805.75079c2.26038,3.3457,4.50629,6.70129,6.788,10.03241C867.458,109.1902,868.29974,110.74129,870.16858,108.69179Z"/></svg>