<?xml version="1.0" encoding="UTF-8"?>
<svg id="Layer_1" data-name="Layer 1" xmlns="http://www.w3.org/2000/svg" viewBox="0 0 1920 350">
  <path d="M362.65,12.5H109.87c-19.96,0-36.11,16.18-36.11,36.11v252.78c0,19.96,16.15,36.11,36.11,36.11h252.78c19.92,0,36.11-16.15,36.11-36.11V48.61c0-19.92-16.19-36.11-36.11-36.11ZM239.8,253.23h-33.64v-72.96c0-12.67-1.17-20.83-3.48-24.51-3.12-4.81-7.9-7.22-14.4-7.22-4.71,0-9.13,1.43-13.29,4.32-2.21,1.53-4.09,3.44-5.65,5.75v94.61h-33.64V125.21h33.64v7.74c.39-.29.75-.62,1.14-.91l.75-.52c.46-.33.88-.65,1.3-.94.26-.16.49-.33.75-.49.49-.33.94-.62,1.43-.88.23-.16.42-.29.65-.42.68-.39,1.4-.78,2.08-1.17,6.47-3.35,13.36-5,20.67-5.04h.16c9.36,0,17.32,1.92,23.79,5.72,6.14,3.61,10.92,8.71,14.01,15.57,3.8,10.6,3.35,16.77,3.74,27.1v82.26ZM336.81,171.56h-24.28l-14.1-20.05-14.14,20.05h-24.28l1.01-1.43,25.32-35.91-26.33-37.47h24.15l10.95,15.57.36.52,2.96,4.19,14.27-20.28h24.12l-.33.46-25.97,37.02,26.29,37.34Z"/>
  <g>
    <path d="M547.01,68.87v105.53l-65.81-105.53h-28.27v168.17h32.42v-104.08l65.57,104.08h28.52V68.87h-32.42Z"/>
    <path d="M700.08,170.01c0-37.05-15.83-57.02-50.2-57.02-31.69,0-50.21,17.78-50.21,54.58v16.58c0,31.44,17.55,55.09,54.11,55.09,21.94,0,36.06-5.85,44.59-20.72l-23.14-16.09c-4.63,6.58-8.78,10.48-21.69,10.48-17.31,0-22.67-12.19-22.91-29.01h69.45v-13.89ZM630.63,161.72c1.22-13.89,7.07-22.42,19.5-22.42,11.7,0,18.04,6.58,18.77,22.42h-38.27Z"/>
    <path d="M779.92,141.49v-26.33h-23.89v-26.8h-30.96v26.8h-15.6v26.33h15.6v55.82c0,31.44,12.19,39.73,41.68,39.73h13.16v-27.3h-9.99c-11.46,0-13.89-5.12-13.89-17.31v-50.94h23.89Z"/>
    <path d="M928.87,115.17l-17.29,69.96-26.33-69.96h-22.91l-24.62,69.71-17.31-69.71h-32.16l33.62,121.88h25.35l27.54-76.29,27.54,76.29h25.09l33.88-121.88h-32.42Z"/>
    <path d="M1017.59,112.99c-33.39,0-52.63,19-52.63,55.56v14.62c0,34.12,17.29,56.06,52.63,56.06s52.65-22.67,52.65-56.06v-14.62c0-36.56-18.77-55.56-52.65-55.56ZM1039.28,182.2c0,17.55-4.63,30.71-21.69,30.71s-21.69-13.16-21.69-30.71v-12.67c0-19.5,6.34-30.23,21.69-30.23s21.69,10.73,21.69,30.23v12.67Z"/>
    <path d="M1143.62,112.99c-14.38,0-22.43,6.32-26.57,12.42v-10.24h-30.47v121.88h31.2v-71.66c0-17.06,7.8-25.59,19.5-25.59,7.8,0,12.19,4.63,15.36,9.26l23.89-17.06c-7.31-12.67-18.28-19-32.91-19Z"/>
    <path d="M1246.16,166.11l42.15-50.94h-37.05l-34.11,44.36v-90.66h-31.2v168.17h31.2v-35.59l8.29-10.24,33.39,45.83h36.55l-49.22-70.93Z"/>
    <path d="M1401.38,66.68c-37.78,0-64.35,22.43-64.35,74.33v23.89c0,51.43,26.57,74.34,64.35,74.34s64.58-22.91,64.58-74.34v-23.89c0-51.9-26.57-74.33-64.58-74.33ZM1431.83,164.89c0,32.17-10.72,45.58-30.45,45.58s-30.22-13.41-30.22-45.58v-23.89c0-32.16,10.48-45.56,30.22-45.56s30.45,13.41,30.45,45.56v23.89Z"/>
    <path d="M1544.32,112.99c-12.43,0-21.21,3.66-27.06,10.22v-8.04h-31.18v168.17h31.18v-51.17c5.61,4.63,14.14,7.07,26.81,7.07,31.44,0,47.53-23.4,47.53-55.09v-16.58c0-34.86-19.01-54.58-47.29-54.58ZM1560.4,182.2c0,17.55-4.63,30.71-21.45,30.71s-21.69-13.16-21.69-30.71v-15.36c0-17.79,6.83-27.54,21.69-27.54s21.45,10.73,21.45,30.23v12.67Z"/>
    <path d="M1670.55,141.49v-26.33h-23.89v-26.8h-30.96v26.8h-15.6v26.33h15.6v55.82c0,31.44,12.19,39.73,41.68,39.73h13.16v-27.3h-9.99c-11.46,0-13.89-5.12-13.89-17.31v-50.94h23.89Z"/>
    <path d="M1684.77,68.87v30.22h33.62v-30.22h-33.62ZM1685.99,115.17v121.88h31.18v-121.88h-31.18Z"/>
    <path d="M1806.04,174.64l36.79-59.47h-34.35l-20.47,34.86-20.48-34.86h-34.37l36.81,59.47-39.97,62.4h34.37l23.64-37.05,23.64,37.05h34.6l-40.2-62.4Z"/>
  </g>
</svg>