<svg width="901" height="176" viewBox="0 0 901 176" fill="none" xmlns="http://www.w3.org/2000/svg">
<path fill-rule="evenodd" clip-rule="evenodd" d="M137.596 22.9553L150.751 33.2246L96.6765 67.0155L83.5298 56.7421L137.596 22.9553ZM31.7332 24.5033L17.5084 33.3948L110.715 106.217L110.699 86.2006L96.2592 74.9221L94.3423 73.4267L90.8205 70.6749L75.5543 58.7399L31.7332 24.5033ZM153.158 140.729V39.3684L102.115 71.2626L114.148 80.6647L138.046 65.7146V150.171L153.158 140.729ZM37.0462 83.7568V151.383L54.1847 140.676V97.1467L37.0462 83.7568ZM131.562 77.4187V149.373L60.669 93.9858V93.9818L30.562 70.4643V150.492L15.1052 138.147V39.7454L117.211 119.521L117.187 86.4115L131.562 77.4187Z" fill="#0D131C"/>
<path d="M153.158 140.729V39.3683L102.115 71.2625L114.147 80.6646L138.046 65.7144V150.171L153.158 140.729Z" fill="#0D131C"/>
<path d="M37.0461 83.7569V151.383L54.1847 140.676V97.1468L37.0461 83.7569Z" fill="#0D131C"/>
<path d="M131.562 149.373V77.4188L117.187 86.4116L117.211 119.522L15.1052 39.7455V138.147L30.562 150.492V70.4644L60.669 93.9819V93.9859L131.562 149.373Z" fill="url(#paint0_linear_857_5877)"/>
<path d="M31.7333 24.5034L17.5085 33.3949L110.715 106.217L110.699 86.2007L96.2593 74.9222L94.3424 73.4268L90.8207 70.675L75.5544 58.74L31.7333 24.5034Z" fill="#0D131C"/>
<path d="M150.751 33.2246L137.596 22.9552L83.5298 56.742L96.6765 67.0154L150.751 33.2246Z" fill="url(#paint1_linear_857_5877)"/>
<path d="M220.639 46.877H234.179L277.737 116.133L275.029 116.882V46.877H286.553V129.5H273.013L229.512 60.5322L232.22 59.7256V129.5H220.639V46.877ZM326.488 130.422C320.343 130.422 315.099 129.116 310.759 126.504C306.418 123.892 303.134 120.243 300.906 115.557C298.678 110.832 297.565 105.358 297.565 99.1357C297.565 92.6826 298.755 87.0553 301.137 82.2539C303.518 77.4525 306.899 73.7458 311.277 71.1338C315.695 68.5218 320.842 67.2158 326.719 67.2158C332.173 67.2158 336.917 68.3298 340.95 70.5576C345.022 72.7471 348.152 75.9352 350.342 80.1221C352.57 84.2705 353.684 89.1872 353.684 94.8721V102.766H302.865V93.374H347.403L342.391 98.3867V92.625C342.391 89.3984 341.719 86.6328 340.374 84.3281C339.068 81.985 337.205 80.2181 334.785 79.0274C332.365 77.8366 329.561 77.2412 326.373 77.2412C322.647 77.2412 319.44 78.0671 316.751 79.7188C314.062 81.3705 312.026 83.6943 310.644 86.6904C309.261 89.6865 308.569 93.1436 308.569 97.0615V100.922C308.569 104.725 309.28 108.105 310.701 111.063C312.161 113.982 314.274 116.267 317.039 117.919C319.843 119.571 323.185 120.396 327.065 120.396C329.907 120.396 332.404 119.974 334.555 119.129C336.706 118.284 338.53 117.151 340.028 115.729C341.526 114.308 342.813 112.657 343.889 110.774L352.877 115.557C351.11 118.553 349.017 121.165 346.597 123.393C344.177 125.582 341.296 127.311 337.954 128.578C334.612 129.807 330.79 130.422 326.488 130.422ZM384.516 130.422C379.983 130.422 376.104 129.538 372.877 127.771C369.651 126.005 367.192 123.508 365.502 120.281C363.812 117.055 362.967 113.252 362.967 108.873V68.3682H374.145V104.725C374.145 107.951 374.625 110.717 375.585 113.021C376.584 115.288 378.063 117.035 380.022 118.265C381.981 119.455 384.381 120.051 387.224 120.051C390.604 120.051 393.542 119.263 396.039 117.688C398.574 116.114 400.495 113.963 401.801 111.235C403.145 108.508 403.818 105.474 403.818 102.132V68.3682H414.995V129.5H403.818V119.475C402.627 121.587 401.186 123.45 399.496 125.063C397.845 126.677 395.77 127.983 393.274 128.981C390.777 129.942 387.858 130.422 384.516 130.422ZM428.946 68.3682H440.123V79.8916C441.276 76.9723 442.812 74.61 444.733 72.8047C446.653 70.9994 448.823 69.7126 451.243 68.9443C453.663 68.1761 456.294 67.792 459.137 67.792C461.134 67.792 463.055 67.9841 464.899 68.3682L464.322 79.085C462.133 78.7777 460.155 78.624 458.388 78.624C454.355 78.624 450.975 79.3923 448.247 80.9287C445.558 82.4268 443.523 84.693 442.14 87.7275C440.795 90.7621 440.123 94.5264 440.123 99.0205V129.5H428.946V68.3682ZM486.8 130.422C482.46 130.422 478.734 129.692 475.622 128.232C472.511 126.773 470.149 124.679 468.535 121.952C466.922 119.187 466.116 115.922 466.116 112.157C466.116 107.471 467.306 103.899 469.688 101.44C472.108 98.9437 475.008 97.2536 478.388 96.3701C481.768 95.4482 486.089 94.68 491.352 94.0654C495.423 93.6045 498.554 93.1436 500.743 92.6826C502.933 92.2217 504.681 91.4343 505.987 90.3203C507.331 89.2064 508.003 87.6123 508.003 85.5381C508.003 83.9248 507.523 82.5036 506.563 81.2744C505.603 80.0068 504.143 79.0274 502.184 78.3359C500.225 77.6061 497.843 77.2412 495.039 77.2412C491.89 77.2412 489.124 77.6637 486.742 78.5088C484.361 79.3538 482.402 80.6214 480.866 82.3115C479.367 83.9632 478.311 86.0182 477.697 88.4766L466.98 86.3447C467.863 82.5804 469.534 79.2578 471.992 76.377C474.451 73.4961 477.639 71.249 481.557 69.6357C485.513 68.0225 490.027 67.2158 495.097 67.2158C500.206 67.2158 504.565 68.0033 508.176 69.5781C511.787 71.153 514.514 73.4193 516.358 76.377C518.24 79.3346 519.181 82.8301 519.181 86.8633V129.5H508.118V119.993C506.467 122.413 504.546 124.391 502.357 125.928C500.167 127.464 497.767 128.597 495.155 129.327C492.581 130.057 489.796 130.422 486.8 130.422ZM488.759 120.396C492.331 120.396 495.577 119.801 498.496 118.61C501.454 117.42 503.778 115.691 505.468 113.425C507.158 111.12 508.003 108.374 508.003 105.186V94.5264L512.555 97.5801C510.634 98.5788 508.599 99.4046 506.448 100.058C504.297 100.711 502.165 101.229 500.052 101.613C497.978 101.959 495.5 102.305 492.619 102.65C488.817 103.15 485.897 103.668 483.862 104.206C481.826 104.744 480.213 105.627 479.022 106.856C477.831 108.047 477.236 109.795 477.236 112.1C477.236 115.019 478.234 117.132 480.232 118.438C482.268 119.743 485.11 120.396 488.759 120.396ZM532.555 44.9756H543.733V129.5H532.555V44.9756ZM581.774 46.877H598.713L625.678 116.19H622.048L649.013 46.877H665.953V129.5H654.372V57.8818L656.215 58.2275L630.345 123.738H617.381L591.511 58.2275L593.355 57.8818V129.5H581.774V46.877ZM697.707 130.422C693.366 130.422 689.64 129.692 686.529 128.232C683.418 126.773 681.055 124.679 679.442 121.952C677.829 119.187 677.022 115.922 677.022 112.157C677.022 107.471 678.213 103.899 680.594 101.44C683.014 98.9437 685.914 97.2536 689.295 96.3701C692.675 95.4482 696.996 94.68 702.258 94.0654C706.33 93.6045 709.461 93.1436 711.65 92.6826C713.839 92.2217 715.587 91.4343 716.893 90.3203C718.238 89.2064 718.91 87.6123 718.91 85.5381C718.91 83.9248 718.43 82.5036 717.469 81.2744C716.509 80.0068 715.049 79.0274 713.09 78.3359C711.131 77.6061 708.75 77.2412 705.946 77.2412C702.796 77.2412 700.031 77.6637 697.649 78.5088C695.268 79.3538 693.309 80.6214 691.772 82.3115C690.274 83.9632 689.218 86.0182 688.603 88.4766L677.886 86.3447C678.77 82.5804 680.441 79.2578 682.899 76.377C685.357 73.4961 688.546 71.249 692.464 69.6357C696.42 68.0225 700.933 67.2158 706.004 67.2158C711.112 67.2158 715.472 68.0033 719.083 69.5781C722.693 71.153 725.421 73.4193 727.264 76.377C729.146 79.3346 730.088 82.8301 730.088 86.8633V129.5H719.025V119.993C717.373 122.413 715.453 124.391 713.263 125.928C711.074 127.464 708.673 128.597 706.061 129.327C703.488 130.057 700.703 130.422 697.707 130.422ZM699.666 120.396C703.238 120.396 706.484 119.801 709.403 118.61C712.361 117.42 714.685 115.691 716.375 113.425C718.065 111.12 718.91 108.374 718.91 105.186V94.5264L723.462 97.5801C721.541 98.5788 719.505 99.4046 717.354 100.058C715.203 100.711 713.071 101.229 710.959 101.613C708.884 101.959 706.407 102.305 703.526 102.65C699.723 103.15 696.804 103.668 694.768 104.206C692.732 104.744 691.119 105.627 689.928 106.856C688.738 108.047 688.142 109.795 688.142 112.1C688.142 115.019 689.141 117.132 691.138 118.438C693.174 119.743 696.017 120.396 699.666 120.396ZM768.756 151.798C763.801 151.798 759.345 150.991 755.388 149.378C751.47 147.765 748.205 145.537 745.594 142.694C743.02 139.852 741.215 136.587 740.177 132.899L750.837 129.73C751.605 132.266 752.796 134.417 754.409 136.184C756.022 137.989 758.058 139.372 760.516 140.332C762.975 141.292 765.779 141.772 768.928 141.772C772.578 141.772 775.727 141.158 778.378 139.929C781.028 138.7 783.064 136.952 784.485 134.686C785.906 132.458 786.617 129.827 786.617 126.792V114.577C784.773 118.303 782.18 121.088 778.839 122.932C775.535 124.737 771.464 125.64 766.624 125.64C760.67 125.64 755.638 124.314 751.528 121.664C747.456 119.014 744.422 115.48 742.425 111.063C740.427 106.645 739.428 101.729 739.428 96.3125C739.428 90.9349 740.427 86.0566 742.425 81.6777C744.422 77.2604 747.456 73.7458 751.528 71.1338C755.638 68.5218 760.708 67.2158 766.739 67.2158C769.927 67.2158 772.77 67.5999 775.266 68.3682C777.802 69.1364 780.01 70.3272 781.892 71.9404C783.774 73.5153 785.349 75.5319 786.617 77.9902V68.3682H797.795V126.504C797.795 131.382 796.585 135.742 794.165 139.583C791.783 143.424 788.403 146.42 784.024 148.571C779.645 150.722 774.556 151.798 768.756 151.798ZM768.698 115.614C772.309 115.614 775.478 114.808 778.205 113.194C780.932 111.581 783.006 109.334 784.427 106.453C785.887 103.534 786.617 100.173 786.617 96.3701C786.617 92.5674 785.887 89.2256 784.427 86.3447C783.006 83.4255 780.932 81.1784 778.205 79.6035C775.516 78.0287 772.347 77.2412 768.698 77.2412C765.049 77.2412 761.861 78.0479 759.134 79.6611C756.406 81.236 754.294 83.4831 752.796 86.4024C751.336 89.2832 750.606 92.6058 750.606 96.3701C750.606 100.173 751.336 103.534 752.796 106.453C754.294 109.334 756.406 111.581 759.134 113.194C761.861 114.808 765.049 115.614 768.698 115.614ZM811.054 68.3682H822.231V129.5H811.054V68.3682ZM810.189 44.9756H823.096V58.1123H810.189V44.9756ZM860.899 130.422C854.869 130.422 849.683 129.135 845.343 126.562C841.041 123.988 837.756 120.339 835.49 115.614C833.224 110.851 832.091 105.224 832.091 98.7324C832.091 92.2793 833.243 86.6904 835.548 81.9658C837.891 77.2028 841.233 73.5537 845.573 71.0186C849.914 68.4834 855.061 67.2158 861.015 67.2158C865.778 67.2158 869.964 68.0417 873.575 69.6934C877.186 71.3451 880.143 73.6497 882.448 76.6074C884.753 79.5651 886.385 83.0413 887.346 87.0361L876.629 89.3984C875.937 86.7865 874.881 84.5778 873.46 82.7725C872.077 80.9287 870.329 79.5459 868.217 78.624C866.142 77.7022 863.742 77.2412 861.015 77.2412C857.289 77.2412 854.081 78.0863 851.392 79.7764C848.742 81.4665 846.725 83.9248 845.343 87.1514C843.96 90.3395 843.268 94.2191 843.268 98.79C843.268 103.361 843.941 107.26 845.285 110.486C846.629 113.713 848.608 116.171 851.22 117.861C853.832 119.551 857.058 120.396 860.899 120.396C863.627 120.396 866.046 119.936 868.159 119.014C870.272 118.053 872.039 116.671 873.46 114.865C874.881 113.021 875.937 110.813 876.629 108.239L887.346 110.602C886.385 114.558 884.734 118.034 882.391 121.03C880.047 123.988 877.051 126.293 873.402 127.944C869.753 129.596 865.585 130.422 860.899 130.422Z" fill="#0D131C"/>
<defs>
<linearGradient id="paint0_linear_857_5877" x1="73.3334" y1="39.7455" x2="73.3334" y2="150.492" gradientUnits="userSpaceOnUse">
<stop offset="0.102661" stop-color="#183151"/>
<stop offset="1" stop-color="#1B477F"/>
</linearGradient>
<linearGradient id="paint1_linear_857_5877" x1="117.14" y1="22.9552" x2="117.14" y2="67.0154" gradientUnits="userSpaceOnUse">
<stop offset="0.11" stop-color="#183151"/>
<stop offset="1" stop-color="#1B477F"/>
</linearGradient>
</defs>
</svg>
