<svg xmlns="http://www.w3.org/2000/svg" role="img" viewBox="7.32 8.32 1907.36 1180.36"><title>Neuropod logo</title><path d="M292.21168 597.70527c86.69661 0 153.73138-67.04945 153.73138-166.26749V45.28386h93.837v625.7169h-92.94255v-58.10564c-42.00676 43.79548-100.09773 68.82358-165.35845 68.82358-134.08431 0-236.8798-97.42922-236.8798-244.85595V45.38646h93.837v386.05141c0 101.00677 66.14041 166.26749 153.74606 166.26749M609.52747 45.29854h90.27415v227.936a225.39931 225.39931 0 0 1 161.78082-67.94391c134.08422 0 239.54831 106.373 239.54831 238.66862 0 131.40114-105.46409 237.75958-239.54831 237.75958a227.45233 227.45233 0 0 1-162.74857-67.92922v57.18189h-89.4384zM855.3364 602.17717c85.81692 0 156.42915-70.627 156.42915-158.218 0-88.5-70.61241-158.218-156.42924-158.218-86.71129 0-157.3236 69.718-157.3236 158.21805 0 87.591 69.71795 158.21805 157.3236 158.21805m515.76646-395.99222c131.38646 0 227.93591 101.00676 227.93591 236.8798v29.5h-370.90541c12.52143 74.18986 74.18985 129.61241 151.01894 129.61241 52.78332 0 97.44382-21.46523 131.40114-67.04945l65.26072 48.26739c-45.59889 60.78882-113.5282 97.42923-196.66186 97.42923-136.75281 0-242.23139-101.90113-242.23139-237.75958 0-128.718 101.00677-236.8798 234.19663-236.8798m-141.23931 194.873h277.99212c-15.18985-69.73263-71.50677-116.21129-138.54154-116.21129s-123.35172 46.4787-139.45058 116.21133m611.39211-105.47867c-59 0-101.90113 45.5843-101.90113 116.19661v259.22473h-90.28891V215.12885h89.4384v56.36086c22.34492-36.65508 59-59.89437 109.05621-59.89437h31.274v84.02811zM150.466 824.17078h55.775l101.06968 177.53565V824.17078h49.57572v254.61391h-53.19221L200.04131 898.1261v180.65859H150.466zm375.06 70.14475q19.69979 8.8254 32.53631 27.85328 11.56687 16.78157 15.00151 38.92546 1.98731 12.97607 1.622 37.36814H437.55434q1.1458 28.3311 19.68916 39.72953 11.27922 7.08416 27.14394 7.08139 16.82176 0 27.33572-8.63686a41.39866 41.39866 0 0 0 10.13224-12.95481h50.2606q-1.98731 16.75661-18.25061 34.02892-25.2992 27.466-70.83561 27.46511-37.58627 0-66.31986-23.16563-28.73244-23.16561-28.73082-75.38046 0-48.92231 25.93736-75.03019 25.9348-26.10465 67.32954-26.10741 24.57831 0 44.28 8.82353zm-73.648 42.52808q-10.437 10.75656-13.11424 29.14441h84.81354q-1.34406-19.60413-13.11471-29.75163-11.77282-10.14939-29.19759-10.15073-18.95537 0-29.38707 10.75795zm196.76032-46.34234v113.488q0 16.06482 3.78146 24.18319 6.70431 14.34022 26.29642 14.33746 25.09263 0 34.37736-20.3828 4.80989-11.05323 4.81243-29.19247V890.50127h49.92092v188.28342h-47.84835v-26.60188q-.68832.86646-3.44366 5.18212a34.60321 34.60321 0 0 1-6.54534 7.6008q-11.54192 10.36422-22.307 14.16462-10.769 3.79718-25.23588 3.8004-41.68356 0-56.15295-30.05662-8.09688-16.58331-8.09434-48.88487v-113.488zm271.62884-4.40392q.94687.08873 4.232.25878v50.43942q-4.66432-.51849-8.29166-.69132-3.62734-.17052-5.873-.17283-29.7119 0-39.9019 19.34674-5.7006 10.88271-5.7006 33.51044v89.99611h-49.57522V890.50127H862.141v32.82005q11.40051-18.825 19.86477-25.73774 13.81758-11.57034 35.92913-11.57311 1.38077 0 2.33226.08688zm190.09675 169.65388q-23.83661 29.42493-72.37767 29.42446-48.54106 0-72.37582-29.42446-23.83731-29.42492-23.83754-70.849 0-40.7277 23.83754-70.58746 23.8366-29.85745 72.37582-29.85884 48.53829 0 72.37767 29.85884 23.8366 29.85884 23.83753 70.58746 0 41.42501-23.83753 70.849zm-39.38479-27.20909q11.57032-15.35087 11.57495-43.63991 0-28.28674-11.57495-43.55119-11.57312-15.26354-33.16479-15.26538-21.59352 0-33.25165 15.26538-11.65906 15.26352-11.66 43.55119 0 28.29089 11.66 43.63991 11.659 15.35224 33.25165 15.34948 21.59076 0 33.16479-15.34948zM1327.777 910.71215q23.03669 24.35511 23.03623 71.5126 0 49.74856-22.515 75.83149-22.51405 26.08524-57.98014 26.0834-22.60278 0-37.55392-11.22838-8.16966-6.2177-15.99458-18.13693v98.11448h-48.71205V890.50127h47.15751V918.312q7.99636-12.26211 17.03618-19.34581 16.514-12.60732 39.2896-12.61009 33.20129.00003 56.23617 24.35605zm-37.78312 35.41065q-10.03568-16.75245-32.54463-16.75522-27.05152 0-37.17036 25.39207-5.239 13.47377-5.23664 34.20176 0 32.82142 17.611 46.12052 10.46958 7.77318 24.78486 7.77363 20.76865 0 31.6814-15.892 10.90629-15.89014 10.90952-42.32013.00002-21.76543-10.03518-38.52063zm252.55656 109.62843q-23.8366 29.42493-72.37675 29.42446-48.54105 0-72.37582-29.42446-23.838-29.42492-23.83846-70.849 0-40.7277 23.83846-70.58746 23.8366-29.85745 72.37582-29.85884 48.53829 0 72.37675 29.85884 23.838 29.85884 23.83846 70.58746 0 41.42501-23.83846 70.849zm-39.38387-27.20909q11.57034-15.35087 11.574-43.63991 0-28.28674-11.574-43.55119-11.5745-15.26354-33.16478-15.26538-21.59491 0-33.25258 15.26538-11.65906 15.26352-11.65906 43.55119 0 28.29089 11.65906 43.63991 11.66045 15.35224 33.25258 15.34948 21.59075 0 33.16478-15.34948zm198.30292-135.01774a59.80872 59.80872 0 0 1 21.59167 20.81533v-89.82329h49.92093v254.26825h-47.8479v-26.08339q-10.53891 16.75661-24.01036 24.356-13.47378 7.59849-33.51137 7.6008-32.99472 0-55.53465-26.68783-22.54181-26.68827-22.54181-68.49037 0-48.1931 22.19611-75.83149 22.1938-27.63516 59.335-27.63794 17.10189 0 30.40238 7.51393zm12.09159 134.13049q10.88133-15.54634 10.88179-40.248 0-34.546-17.44654-49.40244a37.56333 37.56333 0 0 0-24.87358-8.98251q-21.59492 0-31.69712 16.3236-10.105 16.32408-10.10544 40.50681 0 26.08524 10.27827 41.71568 10.27411 15.63505 31.17863 15.63321 20.89896-.00002 31.78399-15.54635z"/></svg>