<?xml version="1.0" encoding="utf-8"?>
<!-- Generator: Adobe Illustrator 26.4.0, SVG Export Plug-In . SVG Version: 6.00 Build 0)  -->
<svg version="1.1" id="레이어_1" xmlns="http://www.w3.org/2000/svg" xmlns:xlink="http://www.w3.org/1999/xlink" x="0px"
	 y="0px" viewBox="0 0 400 400" style="enable-background:new 0 0 400 400;" xml:space="preserve">
<style type="text/css">
	.st0{fill:#004186;}
	.st1{fill:#D7000F;}
	.st2{fill:url(#SVGID_1_);}
	.st3{fill:#717071;}
</style>
<g>
	<g>
		<path class="st0" d="M124.23,153.61h0.2c5.16-6.18,10.58-8.27,17.66-8.27c13.75,0,17.86,8.67,15.87,21.23l-5,31.59h-18.14
			l3.95-24.91c0.77-4.88,2.93-13.45-6.04-13.45c-7.37,0-10.34,5.48-11.35,11.86l-4.2,26.51H99.03l8.1-51.12h18.14L124.23,153.61z"/>
		<path class="st1" d="M195.35,127.4c-0.88,5.58-6.19,10.16-11.77,10.16c-5.58,0-9.44-4.58-8.56-10.16
			c0.89-5.59,6.2-10.17,11.78-10.17C192.38,117.23,196.23,121.82,195.35,127.4z"/>
		<path class="st0" d="M183.16,198.16h-18.14l8.1-51.12h18.13L183.16,198.16z"/>
		<path class="st0" d="M208.5,223.67h-18.13l12.09-76.64h18.14L208.5,223.67z"/>
		<path class="st0" d="M297.72,198.16h-18.14l8.1-51.12h18.14L297.72,198.16z"/>
		<linearGradient id="SVGID_1_" gradientUnits="userSpaceOnUse" x1="205.5351" y1="168.4987" x2="296.2244" y2="176.6837">
			<stop  offset="0.1517" style="stop-color:#004186"/>
			<stop  offset="0.5169" style="stop-color:#0075C1"/>
			<stop  offset="0.8652" style="stop-color:#004186"/>
		</linearGradient>
		<path class="st2" d="M273.86,145.23c-7.52,0-14.85,3.1-20.6,8.08c0,0-8.66,6.8-10.92,18.63c-0.04,0.2-0.08,0.4-0.11,0.59
			c-0.03,0.21-0.05,0.4-0.08,0.6c-1.26,5.97-7,10.78-13.04,10.78c-6.24,0-10.56-5.13-9.57-11.37c0.99-6.24,6.93-11.37,13.17-11.37
			c3.28,0,6.01,1.42,7.73,3.66c2.79-7.75,8.2-12.6,10.18-14.18c-4.01-3.4-9.32-5.42-15.39-5.42c-14.99,0-29.26,12.32-31.63,27.3
			c-2.38,14.99,7.99,27.31,22.98,27.31c7.52,0,14.85-3.09,20.6-8.08c8.97-7.03,10.94-18.76,10.94-18.76
			c0.03-0.16,0.06-0.31,0.09-0.47c0.02-0.15,0.04-0.3,0.06-0.45c1.2-6.03,6.99-10.91,13.07-10.91c6.24,0,10.56,5.13,9.57,11.37
			c-0.99,6.24-6.93,11.37-13.17,11.37c-3.27,0-6-1.42-7.73-3.65c-0.99,2.86-3.82,9.33-10.17,14.18c4.01,3.39,9.31,5.4,15.37,5.4
			c14.99,0,29.25-12.31,31.63-27.31C299.21,157.54,288.84,145.23,273.86,145.23z"/>
	</g>
	<g>
		<g>
			<path class="st3" d="M63.74,269.62h2.61l3.8,6.13h0.02l0.97-6.13h2.6l-1.59,10.02h-2.61l-3.8-6.14h-0.03l-0.97,6.14h-2.61
				L63.74,269.62z"/>
			<path class="st3" d="M81.26,279.64h-2.42l0.12-0.76h-0.03c-0.53,0.68-1.42,0.98-2.22,0.98c-2.02,0-3.18-1.69-2.86-3.64
				c0.31-1.95,1.97-3.63,3.99-3.63c0.79,0,1.56,0.29,1.97,0.89l0.11-0.67h2.42L81.26,279.64z M76.35,276.24
				c-0.14,0.86,0.33,1.53,1.31,1.53c0.98,0,1.66-0.67,1.8-1.53c0.13-0.84-0.33-1.54-1.31-1.54
				C77.17,274.69,76.49,275.4,76.35,276.24z"/>
			<path class="st3" d="M85.52,279.64H83.1l0.76-4.82h-0.78l0.31-2h0.78l0.33-2.04h2.42l-0.32,2.04h1.37l-0.31,2h-1.37L85.52,279.64
				z"/>
			<path class="st3" d="M90.07,279.64h-2.42l1.08-6.82h2.42L90.07,279.64z M91.72,270.2c-0.12,0.74-0.82,1.35-1.57,1.35
				c-0.74,0-1.26-0.61-1.14-1.35c0.12-0.75,0.82-1.36,1.57-1.36C91.32,268.84,91.83,269.46,91.72,270.2z"/>
			<path class="st3" d="M99.92,276.24c-0.37,2.31-2.49,3.63-4.68,3.63c-2.18,0-3.9-1.3-3.53-3.63c0.37-2.33,2.49-3.64,4.68-3.64
				C98.58,272.59,100.28,273.91,99.92,276.24z M94.25,276.24c-0.14,0.86,0.33,1.53,1.31,1.53c0.98,0,1.66-0.67,1.8-1.53
				c0.13-0.84-0.33-1.54-1.31-1.54C95.07,274.69,94.39,275.4,94.25,276.24z"/>
			<path class="st3" d="M103.83,273.7h0.03c0.69-0.83,1.41-1.1,2.36-1.1c1.83,0,2.38,1.15,2.12,2.83l-0.67,4.21h-2.42l0.53-3.32
				c0.1-0.65,0.39-1.79-0.81-1.79c-0.98,0-1.38,0.73-1.51,1.58l-0.56,3.54h-2.42l1.08-6.82h2.42L103.83,273.7z"/>
			<path class="st3" d="M116.71,279.64h-2.42l0.12-0.76h-0.03c-0.53,0.68-1.42,0.98-2.21,0.98c-2.02,0-3.18-1.69-2.87-3.64
				c0.31-1.95,1.97-3.63,3.99-3.63c0.78,0,1.56,0.29,1.97,0.89l0.11-0.67h2.42L116.71,279.64z M111.8,276.24
				c-0.13,0.86,0.33,1.53,1.31,1.53c0.98,0,1.66-0.67,1.79-1.53c0.13-0.84-0.33-1.54-1.31-1.54
				C112.62,274.69,111.93,275.4,111.8,276.24z"/>
			<path class="st3" d="M120.74,279.64h-2.42l1.75-11.03h2.42L120.74,279.64z"/>
			<path class="st3" d="M129.55,279.64h-2.6l1.58-10.02h2.61L129.55,279.64z"/>
			<path class="st3" d="M135.24,279.64h-2.61l1.24-7.82h-2.15l0.35-2.21h6.91l-0.35,2.21h-2.15L135.24,279.64z"/>
			<path class="st3" d="M145.49,279.64h-2.6l1.59-10.02h2.6L145.49,279.64z"/>
			<path class="st3" d="M150.5,273.7h0.02c0.69-0.83,1.41-1.1,2.36-1.1c1.83,0,2.38,1.15,2.12,2.83l-0.67,4.21h-2.42l0.53-3.32
				c0.1-0.65,0.39-1.79-0.81-1.79c-0.98,0-1.38,0.73-1.51,1.58l-0.56,3.54h-2.42l1.08-6.82h2.42L150.5,273.7z"/>
			<path class="st3" d="M161.18,278.88h-0.03c-0.53,0.68-1.42,0.98-2.22,0.98c-2.02,0-3.18-1.69-2.86-3.64
				c0.31-1.95,1.97-3.63,3.99-3.63c0.78,0,1.56,0.29,1.97,0.89l0.77-4.88h2.42l-1.75,11.03h-2.42L161.18,278.88z M158.57,276.24
				c-0.14,0.86,0.33,1.53,1.31,1.53c0.98,0,1.66-0.67,1.8-1.53c0.13-0.84-0.33-1.54-1.31-1.54
				C159.38,274.69,158.7,275.4,158.57,276.24z"/>
			<path class="st3" d="M168.45,272.82l-0.58,3.64c-0.14,0.87-0.02,1.48,0.97,1.48c1,0,1.31-0.61,1.45-1.48l0.57-3.64h2.42
				l-0.65,4.11c-0.36,2.24-2.05,2.93-4.09,2.93c-2.05,0-3.52-0.69-3.16-2.93l0.65-4.11H168.45z"/>
			<path class="st3" d="M179.06,274.57c-0.34-0.2-0.84-0.33-1.25-0.33c-0.27,0-0.77,0.12-0.83,0.46c-0.07,0.47,0.67,0.53,0.99,0.6
				c1.09,0.23,1.86,0.76,1.66,2.03c-0.29,1.79-2.04,2.54-3.62,2.54c-0.97,0-1.88-0.28-2.63-0.79l1.15-1.69
				c0.43,0.35,1.2,0.69,1.8,0.69c0.31,0,0.78-0.14,0.84-0.52c0.09-0.53-0.67-0.56-1.39-0.76c-0.73-0.2-1.42-0.57-1.23-1.79
				c0.27-1.67,1.9-2.42,3.39-2.42c0.77,0,1.53,0.12,2.18,0.44L179.06,274.57z"/>
			<path class="st3" d="M183.21,279.64h-2.42l0.76-4.82h-0.78l0.31-2h0.78l0.33-2.04h2.42l-0.33,2.04h1.37l-0.31,2h-1.37
				L183.21,279.64z"/>
			<path class="st3" d="M188.67,273.93h0.03c0.6-0.84,1.45-1.21,2.4-1.21h0.47l-0.37,2.33c-0.3-0.19-0.61-0.22-0.99-0.22
				c-1.34,0-1.82,0.89-2,2.06l-0.43,2.75h-2.42l1.08-6.82h2.42L188.67,273.93z"/>
			<path class="st3" d="M191.99,272.82h2.79l1.27,3.5l2.33-3.5h2.75l-7.08,10.22h-2.71l3.01-4.33L191.99,272.82z"/>
			<path class="st3" d="M206.79,269.62h3.99c2.15,0,3.48,1,3.12,3.3c-0.38,2.36-1.82,3.4-4.09,3.4h-1.48l-0.53,3.32h-2.6
				L206.79,269.62z M208.67,274.21h0.44c0.94,0,1.87,0,2.07-1.22c0.2-1.26-0.67-1.28-1.68-1.28h-0.44L208.67,274.21z"/>
			<path class="st3" d="M217.26,273.93h0.03c0.6-0.84,1.45-1.21,2.4-1.21h0.46l-0.37,2.33c-0.3-0.19-0.62-0.22-0.99-0.22
				c-1.34,0-1.82,0.89-2,2.06l-0.43,2.75h-2.42l1.08-6.82h2.42L217.26,273.93z"/>
			<path class="st3" d="M227.97,276.24c-0.37,2.31-2.49,3.63-4.68,3.63c-2.18,0-3.9-1.3-3.53-3.63c0.37-2.33,2.49-3.64,4.69-3.64
				C226.63,272.59,228.34,273.91,227.97,276.24z M222.31,276.24c-0.14,0.86,0.33,1.53,1.31,1.53c0.98,0,1.66-0.67,1.8-1.53
				c0.13-0.84-0.33-1.54-1.31-1.54C223.12,274.69,222.44,275.4,222.31,276.24z"/>
			<path class="st3" d="M231.89,273.67h0.02c0.69-0.76,1.44-1.08,2.32-1.08c0.98,0,1.77,0.4,2.12,1.3c0.6-0.85,1.59-1.3,2.52-1.3
				c1.73,0,2.15,1.13,1.9,2.7l-0.69,4.35h-2.42l0.52-3.26c0.11-0.7,0.32-1.86-0.7-1.86c-1.12,0-1.32,1.05-1.46,1.86l-0.51,3.26
				h-2.42l0.51-3.26c0.12-0.76,0.3-1.92-0.77-1.92c-1.07,0-1.26,1.16-1.38,1.92l-0.52,3.26h-2.42l1.08-6.82h2.42L231.89,273.67z"/>
			<path class="st3" d="M249.91,276.24c-0.37,2.31-2.49,3.63-4.68,3.63c-2.18,0-3.9-1.3-3.53-3.63c0.37-2.33,2.49-3.64,4.68-3.64
				C248.57,272.59,250.28,273.91,249.91,276.24z M244.25,276.24c-0.14,0.86,0.33,1.53,1.31,1.53s1.66-0.67,1.8-1.53
				c0.13-0.84-0.32-1.54-1.31-1.54C245.06,274.69,244.38,275.4,244.25,276.24z"/>
			<path class="st3" d="M253.11,279.64h-2.42l0.76-4.82h-0.78l0.31-2h0.79l0.32-2.04h2.42l-0.33,2.04h1.37l-0.32,2h-1.37
				L253.11,279.64z"/>
			<path class="st3" d="M257.67,279.64h-2.42l1.08-6.82h2.42L257.67,279.64z M259.31,270.2c-0.12,0.74-0.83,1.35-1.57,1.35
				c-0.75,0-1.26-0.61-1.14-1.35c0.12-0.75,0.83-1.36,1.57-1.36C258.91,268.84,259.42,269.46,259.31,270.2z"/>
			<path class="st3" d="M267.51,276.24c-0.36,2.31-2.49,3.63-4.68,3.63c-2.18,0-3.9-1.3-3.54-3.63c0.37-2.33,2.5-3.64,4.69-3.64
				C266.17,272.59,267.88,273.91,267.51,276.24z M261.85,276.24c-0.14,0.86,0.33,1.53,1.31,1.53c0.98,0,1.66-0.67,1.79-1.53
				c0.13-0.84-0.32-1.54-1.31-1.54C262.66,274.69,261.98,275.4,261.85,276.24z"/>
			<path class="st3" d="M271.42,273.7h0.03c0.69-0.83,1.41-1.1,2.35-1.1c1.84,0,2.38,1.15,2.12,2.83l-0.67,4.21h-2.42l0.52-3.32
				c0.11-0.65,0.39-1.79-0.8-1.79c-0.99,0-1.38,0.73-1.52,1.58l-0.56,3.54h-2.42l1.08-6.82h2.42L271.42,273.7z"/>
			<path class="st3" d="M284.28,277.9l-0.97,1.74h-2.77l5.44-10.02h2.85l2.19,10.02h-2.78l-0.38-1.74H284.28z M286.92,272.71h-0.03
				l-1.58,3.19h2.17L286.92,272.71z"/>
			<path class="st3" d="M299.37,278.97c-0.46,2.9-2.08,4.07-4.59,4.07c-1.56,0-3.54-0.81-3.47-2.6h2.71
				c0.03,0.24,0.17,0.41,0.37,0.52c0.2,0.11,0.44,0.16,0.67,0.16c1.3,0,1.69-0.85,1.86-1.95l0.05-0.32
				c-0.72,0.62-1.41,0.93-2.31,0.93c-1.99,0-3.12-1.52-2.81-3.48c0.32-1.99,1.99-3.69,4.08-3.69c0.8,0,1.49,0.27,1.86,0.94h0.03
				l0.11-0.72h2.42L299.37,278.97z M294.36,276.18c-0.14,0.87,0.33,1.53,1.31,1.53c0.98,0,1.66-0.67,1.8-1.53
				c0.13-0.84-0.33-1.54-1.31-1.54C295.18,274.64,294.49,275.34,294.36,276.18z"/>
			<path class="st3" d="M308.26,276.63h-5.09c-0.16,0.99,0.28,1.51,1.27,1.51c0.52,0,0.92-0.17,1.25-0.62h2.33
				c-0.64,1.61-2.28,2.34-3.84,2.34c-2.26,0-3.75-1.27-3.37-3.63c0.36-2.27,2.13-3.64,4.35-3.64c2.36,0,3.5,1.46,3.13,3.79
				L308.26,276.63z M306.23,275.24c-0.02-0.65-0.55-1.08-1.2-1.08c-0.7,0-1.35,0.38-1.6,1.08H306.23z"/>
			<path class="st3" d="M312.25,273.7h0.03c0.69-0.83,1.41-1.1,2.35-1.1c1.83,0,2.38,1.15,2.11,2.83l-0.66,4.21h-2.42l0.53-3.32
				c0.1-0.65,0.39-1.79-0.81-1.79c-0.98,0-1.38,0.73-1.51,1.58l-0.56,3.54h-2.42l1.08-6.82h2.42L312.25,273.7z"/>
			<path class="st3" d="M323.32,275.04c-0.32-0.27-0.71-0.48-1.18-0.48c-0.93,0-1.77,0.72-1.93,1.66c-0.15,0.98,0.44,1.68,1.44,1.68
				c0.43,0,0.92-0.18,1.28-0.47l-0.32,2.05c-0.58,0.27-1.18,0.39-1.76,0.39c-2.02,0-3.47-1.5-3.14-3.56
				c0.35-2.19,2.26-3.71,4.4-3.71c0.56,0,1.09,0.13,1.53,0.4L323.32,275.04z"/>
			<path class="st3" d="M324.17,272.82h2.79l1.26,3.5l2.33-3.5h2.75l-7.08,10.22h-2.71l3.01-4.33L324.17,272.82z"/>
		</g>
		<g>
			<path class="st3" d="M74.28,244.93c-0.73-0.59-1.3-1.29-1.7-2.09c-1.08,1.25-2.55,2.25-4.4,3.01c-1.53,0.61-3.02,0.95-4.47,1.01
				l0.54-3.42c2.26-0.25,3.99-0.95,5.18-2.09c0.97-0.93,1.63-2.22,1.97-3.86h-6.02l0.51-3.24h16.04l-0.51,3.24h-6.06
				c-0.17,1.6,0.09,2.88,0.78,3.83c0.85,1.14,2.35,1.84,4.5,2.09l-0.43,2.69c2.03,0.34,3.63,1.23,4.79,2.66
				c1.29,1.54,1.77,3.39,1.43,5.54c-0.39,2.43-1.63,4.43-3.73,6.01c-1.98,1.47-4.16,2.21-6.52,2.21c-2.36,0-4.28-0.74-5.75-2.21
				c-1.58-1.59-2.18-3.59-1.8-6.01c0.32-2.03,1.26-3.79,2.83-5.29c1.47-1.39,3.2-2.32,5.19-2.79
				C75.75,245.89,74.95,245.46,74.28,244.93z M74.64,250.82c-1.2,0.95-1.91,2.11-2.12,3.45c-0.21,1.33,0.13,2.47,1.03,3.42
				c0.86,0.93,1.94,1.39,3.24,1.39c1.32,0,2.56-0.46,3.72-1.39c1.2-0.95,1.91-2.09,2.12-3.42c0.21-1.35-0.13-2.5-1.03-3.45
				c-0.87-0.88-1.96-1.33-3.28-1.33C77.01,249.49,75.78,249.94,74.64,250.82z M86.35,238.66l0.7-4.41h3.68l-2.01,12.69h-3.68
				l0.8-5.04h-4.37l0.51-3.24H86.35z"/>
			<path class="st3" d="M118.93,246.14c-0.14,0.87-0.42,1.49-0.86,1.87c-0.39,0.34-0.97,0.51-1.73,0.51h-7.7l-1.23,7.78H119
				l-0.52,3.31h-26.8l0.52-3.31h11.59l1.23-7.78h-7.77c-0.74,0-1.25-0.17-1.53-0.51c-0.3-0.38-0.38-1-0.24-1.87l1.88-11.9h3.68
				l-0.6,3.77h16.09l0.6-3.77h3.68L118.93,246.14z M99.3,245.27h16.09l0.65-4.08H99.95L99.3,245.27z"/>
			<path class="st3" d="M139.94,245.46l-0.18,1.14h11.59l-0.5,3.14h-6.78c0.61,0.65,1.06,1.38,1.33,2.18
				c0.3,0.87,0.38,1.79,0.22,2.79c-0.37,2.32-1.59,4.24-3.66,5.76c-1.96,1.46-4.13,2.19-6.51,2.19c-2.36,0-4.29-0.73-5.78-2.19
				c-1.59-1.52-2.2-3.44-1.83-5.76c0.15-0.97,0.51-1.9,1.07-2.79c0.5-0.78,1.16-1.51,1.98-2.18h-6.8l0.5-3.14h11.55l0.18-1.14h-0.51
				h-7.94c-0.74,0-1.25-0.18-1.53-0.54c-0.31-0.4-0.4-1.04-0.26-1.93l1.38-8.71h24.87l-0.5,3.11h-21.12l-0.16,0.98h21.13l-0.48,3.01
				h-21.12l-0.16,1.01h21.15l-0.49,3.07h-9.97H139.94z M133.65,251.21c-1.21,0.97-1.93,2.13-2.14,3.48
				c-0.21,1.33,0.14,2.48,1.04,3.45c0.89,0.93,2.02,1.39,3.4,1.39c1.33,0,2.59-0.47,3.78-1.39c1.23-0.97,1.95-2.12,2.16-3.45
				c0.21-1.35-0.14-2.51-1.07-3.48c-0.89-0.91-2.01-1.36-3.34-1.36C136.11,249.85,134.83,250.3,133.65,251.21z"/>
			<path class="st3" d="M168.12,234.25c-0.48,3.04-0.4,5.4,0.25,7.06c0.79,1.94,2.4,3.07,4.82,3.39l-0.56,3.51
				c-1.76-0.1-3.29-0.56-4.6-1.36c-1.48-0.93-2.53-2.25-3.16-3.96c-1.22,1.71-2.77,3.04-4.68,3.99c-1.61,0.8-3.22,1.25-4.84,1.33
				l0.55-3.48c2.57-0.36,4.52-1.5,5.86-3.42c1.12-1.6,1.92-3.96,2.42-7.06H168.12z M156.76,251.64h3.68l-0.94,5.95h20.21l-0.52,3.24
				h-21.68c-0.73,0-1.25-0.18-1.55-0.53c-0.31-0.38-0.41-0.99-0.27-1.83L156.76,251.64z M179.48,234.25h3.68l-2.86,18.08h-3.68
				L179.48,234.25z"/>
			<path class="st3" d="M198.93,234.25c-0.48,3.04-0.4,5.4,0.25,7.06c0.79,1.94,2.4,3.07,4.81,3.39l-0.56,3.51
				c-1.76-0.1-3.29-0.56-4.6-1.36c-1.48-0.93-2.53-2.25-3.16-3.96c-1.21,1.71-2.78,3.04-4.68,3.99c-1.61,0.8-3.22,1.25-4.83,1.33
				l0.55-3.48c2.57-0.36,4.52-1.5,5.86-3.42c1.12-1.6,1.92-3.96,2.42-7.06H198.93z M187.58,251.64h3.68l-0.94,5.95h20.21l-0.51,3.24
				h-21.69c-0.73,0-1.25-0.18-1.55-0.53c-0.32-0.38-0.41-0.99-0.28-1.83L187.58,251.64z M212.54,243.26l-1.44,9.09h-3.68l2.87-18.1
				h3.68l-0.9,5.7h3.74l-0.53,3.31H212.54z"/>
			<path class="st3" d="M218.75,249.33h3.61l-0.41,2.56h16.41l0.41-2.56h3.68l-1.46,9.2c-0.14,0.87-0.44,1.48-0.89,1.84
				c-0.39,0.36-0.96,0.54-1.7,0.54h-19.27c-0.74,0-1.26-0.18-1.56-0.54c-0.32-0.38-0.41-1-0.28-1.84L218.75,249.33z M229.28,245.78
				c-1.57,0.96-3.21,1.45-4.94,1.45c-2.05,0-3.73-0.64-5.04-1.93c-1.39-1.35-1.92-3.07-1.59-5.16c0.34-2.11,1.41-3.84,3.22-5.18
				c1.72-1.25,3.59-1.87,5.64-1.87c1.77,0,3.28,0.49,4.54,1.46c1.31,1.04,2.02,2.41,2.14,4.12h7.14l0.7-4.41h3.74l-2,12.62h-3.74
				l0.79-4.97h-7.18C232.06,243.5,230.92,244.79,229.28,245.78z M237.89,254.94h-16.41l-0.44,2.72h16.41L237.89,254.94z
				 M223.15,237.46c-0.96,0.72-1.52,1.6-1.69,2.66c-0.17,1.05,0.11,1.95,0.84,2.68c0.69,0.69,1.56,1.04,2.59,1.04
				c1.05,0,2.04-0.35,2.95-1.04c0.98-0.74,1.56-1.63,1.73-2.68c0.17-1.05-0.13-1.94-0.88-2.66c-0.69-0.67-1.57-1.01-2.63-1.01
				C225.03,236.46,224.06,236.79,223.15,237.46z"/>
			<path class="st3" d="M249.2,251.64h3.68l-0.94,5.95h20.21l-0.51,3.24h-21.69c-0.73,0-1.25-0.18-1.55-0.53
				c-0.32-0.38-0.41-0.99-0.27-1.83L249.2,251.64z M266.34,237.49h-6.14c-0.33,2.19-0.16,3.88,0.49,5.07
				c0.78,1.37,2.29,2.19,4.55,2.47l-0.57,3.58c-1.22,0-2.55-0.34-3.96-1.02c-1.76-0.86-2.94-2-3.52-3.39
				c-1.09,1.39-2.65,2.52-4.68,3.36c-1.61,0.67-3.02,1.02-4.25,1.04l0.56-3.58c2.37-0.28,4.14-1.1,5.33-2.47
				c0.98-1.14,1.67-2.84,2.07-5.07h-6.02l0.51-3.24h16.12L266.34,237.49z M271.91,234.25h3.68l-2.87,18.08h-3.68L271.91,234.25z"/>
			<path class="st3" d="M278.33,248.39l0.51-3.24h7.06c-0.4-0.53-0.67-1.1-0.8-1.72c-0.15-0.63-0.17-1.31-0.06-2
				c0.11-0.68,0.33-1.33,0.66-1.94c0.33-0.58,0.74-1.13,1.25-1.66h-5.96l0.47-2.98h10.4l0.4-2.54h4.01l-0.4,2.54h10.5l-0.47,2.98
				h-6.27c0.39,0.49,0.66,1.02,0.83,1.59c0.17,0.64,0.2,1.31,0.09,2.01c-0.11,0.72-0.38,1.4-0.8,2.04
				c-0.37,0.61-0.86,1.18-1.47,1.69h7.37l-0.51,3.24h-6.68c0.73,0.71,1.24,1.53,1.55,2.46c0.34,1.01,0.41,2.09,0.23,3.24
				c-0.39,2.5-1.71,4.57-3.93,6.2c-2.08,1.53-4.35,2.3-6.83,2.3c-2.58,0-4.67-0.77-6.29-2.3c-1.73-1.64-2.39-3.7-2-6.2
				c0.18-1.13,0.59-2.19,1.25-3.18c0.62-0.92,1.42-1.76,2.41-2.52H278.33z M287.41,250.1c-1.36,1.08-2.15,2.36-2.38,3.83
				c-0.23,1.48,0.16,2.74,1.17,3.8c0.98,1.04,2.21,1.55,3.71,1.55c1.5,0,2.89-0.52,4.17-1.55c1.35-1.06,2.14-2.32,2.37-3.8
				c0.23-1.48-0.16-2.76-1.17-3.83c-0.96-1.01-2.18-1.52-3.68-1.52S288.71,249.09,287.41,250.1z M290.33,238.91
				c-0.87,0.68-1.38,1.52-1.54,2.53c-0.16,0.99,0.09,1.84,0.74,2.54c0.67,0.72,1.58,1.08,2.72,1.08c1.1,0,2.1-0.36,3-1.08
				c0.87-0.72,1.39-1.56,1.54-2.54c0.16-1.01-0.09-1.86-0.75-2.53c-0.66-0.65-1.55-0.98-2.67-0.98
				C292.21,237.92,291.2,238.25,290.33,238.91z"/>
			<path class="st3" d="M318.04,247.54h-8.72l0.51-3.24h3.71c-0.62-0.57-1.09-1.23-1.37-1.96c-0.27-0.8-0.34-1.67-0.19-2.6
				c0.32-2.03,1.39-3.68,3.19-4.98c1.68-1.2,3.57-1.8,5.66-1.8c1.98,0,3.6,0.6,4.87,1.8c1.37,1.31,1.9,2.97,1.58,4.98
				c-0.15,0.93-0.5,1.8-1.04,2.6c-0.52,0.74-1.17,1.4-1.94,1.96h4.29l-0.51,3.24h-6.36l-0.99,6.24h-3.68L318.04,247.54z
				 M310.97,250.69h3.61l-1.09,6.9h20.27l-0.51,3.24h-21.68c-0.74,0-1.25-0.18-1.55-0.53c-0.32-0.38-0.41-1-0.27-1.86L310.97,250.69
				z M317.13,237.01c-0.9,0.76-1.43,1.66-1.59,2.69c-0.16,1,0.09,1.88,0.74,2.66c0.7,0.78,1.6,1.17,2.72,1.17
				c1.07,0,2.07-0.39,2.99-1.17c0.92-0.78,1.46-1.66,1.62-2.66c0.16-1.04-0.09-1.94-0.77-2.69c-0.68-0.76-1.56-1.14-2.63-1.14
				C319.1,235.87,318.07,236.25,317.13,237.01z M331.08,249.75l2.45-15.49h3.68l-3.32,20.95h-3.68l0.36-2.28h-6.3l0.5-3.18H331.08z"
				/>
		</g>
	</g>
</g>
</svg>
