<svg id="Layer_1" data-name="Layer 1" xmlns="http://www.w3.org/2000/svg" viewBox="0 0 360 360"><defs><style>.cls-1{fill:#3864ee;}.cls-2{fill:none;}</style></defs><title>nnstreamer-stacked-color</title><path class="cls-1" d="M21.07465,313.50139h8.63983l15.65689,27.50269V313.50139h7.67981V352.944H44.8111L28.75445,324.95842V352.944h-7.6798Z"/><path class="cls-1" d="M61.1989,313.50139h8.63983l15.6569,27.50269V313.50139h7.6798V352.944H84.93535L68.8787,324.95842V352.944H61.1989Z"/><path class="cls-1" d="M107.3969,340.76924a7.999,7.999,0,0,0,1.50271,4.03978q2.04891,2.43547,7.02146,2.43547a15.10238,15.10238,0,0,0,4.83577-.64207q3.52458-1.23093,3.5248-4.5763a3.3704,3.3704,0,0,0-1.72656-3.023A18.744,18.744,0,0,0,117.079,337.156l-4.27022-.93584q-6.29517-1.39189-8.65-3.0239-3.987-2.72969-3.987-8.536a11.33482,11.33482,0,0,1,3.90081-8.80343q3.9006-3.50544,11.45836-3.50589a17.57469,17.57469,0,0,1,10.76747,3.30448q4.456,3.30622,4.67261,9.59326h-7.92036a5.64721,5.64721,0,0,0-3.18222-5.05742,10.90547,10.90547,0,0,0-4.91009-.98949,9.34374,9.34374,0,0,0-5.21266,1.28414,4.06259,4.06259,0,0,0-1.94733,3.58593,3.38157,3.38157,0,0,0,1.92006,3.15671,23.78345,23.78345,0,0,0,5.24037,1.63245l6.92163,1.63245a17.6328,17.6328,0,0,1,6.8218,2.86294q3.52656,2.78377,3.52656,8.05493a11.31875,11.31875,0,0,1-4.17875,8.97758q-4.179,3.57142-11.80578,3.57186-7.7893,0-12.25215-3.51909a11.64012,11.64012,0,0,1-4.4624-9.67242Z"/><path class="cls-1" d="M134.94445,329.47668v-5.43211h4.067v-8.135h7.54611v8.135H151.294v5.43211H146.5576v15.41326a3.46987,3.46987,0,0,0,.45473,2.23406q.45516.442,2.7829.44153.34764,0,.73618-.01319.38723-.0132.76258-.04046v5.69949l-3.61232.13369q-5.40594.18735-7.38559-1.87256a5.57729,5.57729,0,0,1-1.28459-4.04066V329.47668Z"/><path class="cls-1" d="M172.94106,323.09465c.09763.00968.31664.02287.65571.04046v7.81306q-.723-.08049-1.28459-.10643c-.37468-.01759-.67813-.02727-.90989-.02727q-4.60248,0-6.181,2.99752a11.6538,11.6538,0,0,0-.88307,5.19111V352.944h-7.6798V323.77718h7.27829V328.861a16.14263,16.14263,0,0,1,3.07711-3.987,8.3813,8.3813,0,0,1,5.5658-1.79252C172.7225,323.08146,172.84255,323.08586,172.94106,323.09465Z"/><path class="cls-1" d="M197.61908,324.36824a11.86551,11.86551,0,0,1,5.04071,4.3142,14.3416,14.3416,0,0,1,2.32377,6.03021,37.30142,37.30142,0,0,1,.25067,5.78832H183.99131q.17811,4.3894,3.05028,6.1551a7.75194,7.75194,0,0,0,4.20514,1.09681,5.92369,5.92369,0,0,0,5.80416-3.34494h7.78579a9.52035,9.52035,0,0,1-2.82776,5.27115q-3.91841,4.25484-10.97241,4.25527a15.89949,15.89949,0,0,1-10.274-3.58857q-4.45074-3.58857-4.45053-11.6778,0-7.57821,4.0178-11.62239a14.06092,14.06092,0,0,1,10.42972-4.04418A16.60451,16.60451,0,0,1,197.61908,324.36824Zm-11.40866,6.58784a7.92863,7.92863,0,0,0-2.03177,4.51474h13.13874a6.36157,6.36157,0,0,0-2.03176-4.60885,6.68064,6.68064,0,0,0-4.52266-1.57264A6.04839,6.04839,0,0,0,186.21042,330.95608Z"/><path class="cls-1" d="M221.19105,335.20344a12.0813,12.0813,0,0,0,3.04589-.66934,2.29423,2.29423,0,0,0,1.64476-2.16722,2.562,2.562,0,0,0-1.26128-2.475,7.96115,7.96115,0,0,0-3.702-.68254q-2.74025,0-3.87882,1.3378a5.51365,5.51365,0,0,0-1.08537,2.6756h-7.35832a11.16,11.16,0,0,1,2.14962-6.28792q3.0371-3.85376,10.428-3.85331a18.593,18.593,0,0,1,8.54572,1.89983q3.735,1.89983,3.73546,7.171V345.532q0,1.39188.05365,3.37132a4.22727,4.22727,0,0,0,.45473,2.03352,2.72715,2.72715,0,0,0,1.12407.88307V352.944h-8.29593a8.50209,8.50209,0,0,1-.48112-1.65884q-.13456-.77575-.21461-1.76614a15.75268,15.75268,0,0,1-3.65981,2.9166,11.06179,11.06179,0,0,1-5.59835,1.41783,9.66139,9.66139,0,0,1-6.5808-2.26044,8.0416,8.0416,0,0,1-2.59731-6.40929q0-5.37759,4.17786-7.78667a18.67557,18.67557,0,0,1,6.74-1.87257Zm4.66338,3.55866a8.4426,8.4426,0,0,1-1.47852.73531,12.51063,12.51063,0,0,1-2.0476.52245l-1.73623.321a11.41407,11.41407,0,0,0-3.505,1.04314,3.48282,3.48282,0,0,0-1.80132,3.23763,3.38075,3.38075,0,0,0,1.10031,2.82336,4.18067,4.18067,0,0,0,2.6756.86988,7.97551,7.97551,0,0,0,4.60621-1.4451q2.10564-1.44466,2.18656-5.27116Z"/><path class="cls-1" d="M277.05752,323.88449a8.48484,8.48484,0,0,1,3.3977,2.62194,8.38461,8.38461,0,0,1,1.65972,3.746,25.98551,25.98551,0,0,1,.26738,4.308l-.05365,18.38351h-7.81394V334.37314a6.10574,6.10574,0,0,0-.53476-2.72925,3.80362,3.80362,0,0,0-3.746-2.03352,4.38227,4.38227,0,0,0-4.3617,2.62282,8.22331,8.22331,0,0,0-.61568,3.34406V352.944h-7.67937V335.57725a9.74529,9.74529,0,0,0-.53564-3.7724,3.736,3.736,0,0,0-3.7724-2.11444q-3.26534,0-4.389,2.11444a8.13625,8.13625,0,0,0-.61569,3.58505V352.944h-7.733V323.83084h7.412v4.25439A12.25759,12.25759,0,0,1,250.62,324.8476a10.58786,10.58786,0,0,1,11.158-.241,8.57285,8.57285,0,0,1,2.51552,3.505,9.68418,9.68418,0,0,1,3.71962-3.77239,11.34352,11.34352,0,0,1,5.24477-1.20411A10.15237,10.15237,0,0,1,277.05752,323.88449Z"/><path class="cls-1" d="M308.94741,324.36824a11.86545,11.86545,0,0,1,5.04071,4.3142,14.34147,14.34147,0,0,1,2.32377,6.03021,37.30117,37.30117,0,0,1,.25068,5.78832H295.31964q.17811,4.3894,3.05029,6.1551a7.7519,7.7519,0,0,0,4.20513,1.09681,5.92369,5.92369,0,0,0,5.80416-3.34494H316.165a9.52028,9.52028,0,0,1-2.82776,5.27115q-3.9184,4.25484-10.9724,4.25527a15.89949,15.89949,0,0,1-10.274-3.58857q-4.45141-3.58857-4.45053-11.6778,0-7.57821,4.01779-11.62239a14.06092,14.06092,0,0,1,10.42972-4.04418A16.60445,16.60445,0,0,1,308.94741,324.36824Zm-11.40866,6.58784a7.92862,7.92862,0,0,0-2.03176,4.51474h13.13874A6.36158,6.36158,0,0,0,306.614,330.862a6.68063,6.68063,0,0,0-4.52265-1.57264A6.04842,6.04842,0,0,0,297.53875,330.95608Z"/><path class="cls-1" d="M337.1687,323.09465c.09851.00968.31663.02287.65614.04046v7.81306q-.723-.08049-1.285-.10643c-.37381-.01759-.67814-.02727-.90946-.02727q-4.60313,0-6.18149,2.99752a11.66,11.66,0,0,0-.88307,5.19111V352.944h-7.67936V323.77718h7.27829V328.861a16.15281,16.15281,0,0,1,3.07755-3.987,8.37891,8.37891,0,0,1,5.5658-1.79252C336.95057,323.08146,337.07107,323.08586,337.1687,323.09465Z"/><circle class="cls-2" cx="72.88106" cy="146.00186" r="7.72047" transform="translate(-89.89745 157.4626) rotate(-67.49997)"/><path class="cls-2" d="M232.73324,61.33191a7.72051,7.72051,0,1,0-7.721-7.72047A7.72915,7.72915,0,0,0,232.73324,61.33191Z"/><path class="cls-2" d="M232.73324,107.546a7.72048,7.72048,0,1,0,7.72005,7.72047A7.72939,7.72939,0,0,0,232.73324,107.546Z"/><circle class="cls-2" cx="126.12672" cy="115.26651" r="7.72053" transform="translate(-16.835 21.6916) rotate(-9.21745)"/><circle class="cls-2" cx="126.34665" cy="53.47163" r="7.7205"/><path class="cls-2" d="M179.52358,215.34418a7.72047,7.72047,0,1,0-7.72-7.72047A7.72933,7.72933,0,0,0,179.52358,215.34418Z"/><path class="cls-2" d="M179.46075,76.80885a7.72051,7.72051,0,1,0,7.72,7.72054A7.72926,7.72926,0,0,0,179.46075,76.80885Z"/><path class="cls-2" d="M232.81979,168.978a7.72051,7.72051,0,1,0,7.72089,7.72054A7.7292,7.7292,0,0,0,232.81979,168.978Z"/><path class="cls-2" d="M286.01851,153.72233a7.72047,7.72047,0,1,0-7.72089-7.72047A7.72914,7.72914,0,0,0,286.01851,153.72233Z"/><circle class="cls-2" cx="126.12672" cy="176.6985" r="7.72053" transform="translate(-88.00305 140.93885) rotate(-45)"/><path class="cls-2" d="M232.81979,230.72052a7.72051,7.72051,0,1,0,7.72089,7.72054A7.72915,7.72915,0,0,0,232.81979,230.72052Z"/><circle class="cls-2" cx="126.12672" cy="238.44104" r="7.72048" transform="translate(-131.66162 159.02282) rotate(-45)"/><circle class="cls-1" cx="179.8308" cy="22.86159" r="16.73313" transform="translate(36.50564 133.85558) rotate(-45)"/><circle class="cls-1" cx="286.01839" cy="84.58115" r="16.73315" transform="translate(98.42116 316.45993) rotate(-67.50002)"/><circle class="cls-1" cx="72.92769" cy="84.58115" r="16.73314"/><circle class="cls-1" cx="72.88106" cy="207.62359" r="16.73309" transform="translate(-45.75256 22.29883) rotate(-13.28255)"/><circle class="cls-1" cx="286.01839" cy="207.62359" r="16.73309" transform="translate(-40.0509 71.26784) rotate(-13.28255)"/><circle class="cls-1" cx="179.46073" cy="269.53318" r="16.73313" transform="translate(-138.02591 205.84234) rotate(-45)"/><circle class="cls-1" cx="179.52386" cy="146.19739" r="16.73314"/><path class="cls-1" d="M286.01851,158.38515a12.4337,12.4337,0,1,0-11.643-8.206l-31.98715,18.66864A12.35685,12.35685,0,0,0,223.383,168.7l-21.63826-12.4873-2.33137,4.039,21.67632,12.5093a12.37968,12.37968,0,1,0,23.52853.184l32.135-18.755A12.34469,12.34469,0,0,0,286.01851,158.38515ZM232.81979,184.419a7.72051,7.72051,0,1,1,7.72089-7.72047A7.72914,7.72914,0,0,1,232.81979,184.419Zm53.19872-46.1376a7.72047,7.72047,0,1,1-7.72089,7.72047A7.72914,7.72914,0,0,1,286.01851,138.28139Z"/><path class="cls-1" d="M138.51006,238.44106a12.37138,12.37138,0,0,0-21.8039-8.01688L94.27125,217.447l-2.33506,4.03627L114.40482,234.48a12.37176,12.37176,0,0,0,21.23153,11.88l21.66921,13.24312,2.43162-3.9789-21.842-13.34876A12.32014,12.32014,0,0,0,138.51006,238.44106Zm-12.38336,7.72047a7.72051,7.72051,0,1,1,7.72054-7.72047A7.72923,7.72923,0,0,1,126.1267,246.16153Z"/><path class="cls-1" d="M126.1267,127.6498a12.362,12.362,0,0,0,9.587-4.55774l21.32276,13.26271,2.4625-3.95974-21.561-13.41088a12.38575,12.38575,0,1,0-23.58334.10671L82.24742,137.92542a12.4466,12.4466,0,1,0,2.328,4.04024l32.03231-18.79061A12.361,12.361,0,0,0,126.1267,127.6498ZM72.88105,153.72233a7.72047,7.72047,0,1,1,7.72054-7.72047A7.72924,7.72924,0,0,1,72.88105,153.72233ZM126.1267,107.546a7.72048,7.72048,0,1,1-7.72047,7.72047A7.72925,7.72925,0,0,1,126.1267,107.546Z"/><path class="cls-1" d="M220.34953,53.61144a12.36886,12.36886,0,0,0,22.14944,7.586l19.864,12.46769,2.479-3.94972-20.21579-12.6885a12.36637,12.36637,0,0,0-21.26056-11.491l-21.61633-13.7905L199.24119,35.676l21.7953,13.90459A12.3052,12.3052,0,0,0,220.34953,53.61144Zm12.38371-7.72054a7.72051,7.72051,0,1,1-7.721,7.72054A7.72916,7.72916,0,0,1,232.73324,45.8909Z"/><path class="cls-1" d="M232.73324,102.88323a12.35881,12.35881,0,0,0-9.48607,4.438l-31.848-19.17363-.23358.388a12.406,12.406,0,1,0-2.02474,3.69428l31.83664,19.16675a12.38874,12.38874,0,1,0,23.75516.86771l22.63377-12.482-2.25129-4.0827-22.35582,12.32883A12.36326,12.36326,0,0,0,232.73324,102.88323ZM179.46075,92.24986a7.72051,7.72051,0,1,1,7.72-7.72047A7.72924,7.72924,0,0,1,179.46075,92.24986ZM232.73324,122.987a7.72048,7.72048,0,1,1,7.72005-7.72048A7.72939,7.72939,0,0,1,232.73324,122.987Z"/><path class="cls-1" d="M95.08174,74.66328l22.02952-12.97106a12.3636,12.3636,0,0,0,20.981-12.11691l21.32887-12.45215L157.07064,33.096,135.81384,45.5061A12.36334,12.36334,0,0,0,114.719,57.68967L92.71572,70.64525Zm31.26491-28.91217a7.72051,7.72051,0,1,1-7.72047,7.72054A7.72924,7.72924,0,0,1,126.34665,45.75111Z"/><path class="cls-1" d="M262.84752,218.13646l-20.81535,12.05826a12.35911,12.35911,0,0,0-20.89536,12.31236l-22.473,13.092,2.34777,4.029,22.46387-13.08671a12.36,12.36,0,0,0,20.96039-12.351l20.74847-12.0195Zm-30.02773,28.02507a7.72051,7.72051,0,1,1,7.72089-7.72047A7.72914,7.72914,0,0,1,232.81979,246.16153Z"/><path class="cls-1" d="M94.3054,198.05,116.624,184.625a12.34726,12.34726,0,0,0,19.38115-.49044l31.76,19.62843a12.402,12.402,0,1,0,2.26825-4.07943L138.068,179.9282a12.37942,12.37942,0,1,0-23.70545.61618L91.902,194.05472Zm85.21818,1.85328a7.72047,7.72047,0,1,1-7.72,7.72047A7.72933,7.72933,0,0,1,179.52358,199.90324ZM126.1267,168.978a7.72051,7.72051,0,1,1-7.72047,7.72054A7.7293,7.7293,0,0,1,126.1267,168.978Z"/></svg>