<?xml version="1.0" encoding="UTF-8"?>
<svg version="1.1" xmlns="http://www.w3.org/2000/svg" width="32" height="32">
<path d="M0 0 C3.63013639 1.21004546 3.87693578 2.03622012 5.625 5.3125 C6.26308594 6.48232422 6.26308594 6.48232422 6.9140625 7.67578125 C9.5752402 13.37146733 9.78025905 18.69823579 7.75 24.6875 C6.11756931 27.77745809 4.62648441 29.7357893 2 32 C-0.92724431 31.12973818 -2.68669486 30.34687355 -4.75 28.0625 C-7.4370302 21.479276 -7.82463329 15.23089886 -5.25 8.5625 C-3.84120123 5.37167592 -2.1658081 2.73215447 0 0 Z " fill="#99C0D5" transform="translate(15,0)"/>
<path d="M0 0 C1.32 0 2.64 0 4 0 C4 0.66 4 1.32 4 2 C5.32 2 6.64 2 8 2 C8.33 2 8.66 2 9 2 C9.37076301 5.89301165 9.10260771 7.80577827 7.25 11.3125 C5 14 5 14 3.0625 15.1875 C-0.38414248 14.87416887 -1.83393929 12.5173138 -4 10 C-5.35439668 7.29120665 -5.06501451 4.99066732 -5 2 C-3.33333333 2 -1.66666667 2 0 2 C0 1.34 0 0.68 0 0 Z " fill="#91BCD0" transform="translate(14,17)"/>
<path d="M0 0 C3.65392651 1.2179755 3.95831699 2.14396506 5.75 5.4375 C6.19859375 6.24058594 6.6471875 7.04367188 7.109375 7.87109375 C7.40328125 8.57363281 7.6971875 9.27617187 8 10 C7.67 10.66 7.34 11.32 7 12 C5.68 11.34 4.36 10.68 3 10 C3.66 9.01 4.32 8.02 5 7 C2.36 7 -0.28 7 -3 7 C-3 7.66 -3 8.32 -3 9 C-3.66 8.67 -4.32 8.34 -5 8 C-3.35 5.36 -1.7 2.72 0 0 Z " fill="#BAD4E4" transform="translate(15,0)"/>
<path d="M0 0 C0.33 0.99 0.66 1.98 1 3 C2.32 3 3.64 3 5 3 C5 2.01 5 1.02 5 0 C5.66 0 6.32 0 7 0 C6.67 1.65 6.34 3.3 6 5 C9.27773504 4.24849977 9.27773504 4.24849977 11 1 C11 3.31 11 5.62 11 8 C10.01 8 9.02 8 8 8 C7.67 7.34 7.34 6.68 7 6 C6.34 6 5.68 6 5 6 C5 5.34 5 4.68 5 4 C3.68 4 2.36 4 1 4 C1 4.66 1 5.32 1 6 C0.34 6 -0.32 6 -1 6 C-1.33 6.66 -1.66 7.32 -2 8 C-2.99 7.67 -3.98 7.34 -5 7 C-5 5.02 -5 3.04 -5 1 C-4.67 1.99 -4.34 2.98 -4 4 C-1.98491642 4.73323796 -1.98491642 4.73323796 0 5 C-0.2784375 4.0409375 -0.2784375 4.0409375 -0.5625 3.0625 C-0.706875 2.381875 -0.85125 1.70125 -1 1 C-0.67 0.67 -0.34 0.34 0 0 Z " fill="#A5C8DA" transform="translate(13,13)"/>
<path d="M0 0 C0.2295711 3.36704285 0.33943529 5.41370268 -1.375 8.375 C-1.91125 8.91125 -2.4475 9.4475 -3 10 C-3.66 10 -4.32 10 -5 10 C-5.33 7.03 -5.66 4.06 -6 1 C-1.125 0 -1.125 0 0 0 Z " fill="#84B4CA" transform="translate(23,19)"/>
<path d="M0 0 C0.33 0.99 0.66 1.98 1 3 C1.66 3.33 2.32 3.66 3 4 C1.35 4.66 -0.3 5.32 -2 6 C-2.66 5.34 -3.32 4.68 -4 4 C-3.34 4 -2.68 4 -2 4 C-1.34 2.68 -0.68 1.36 0 0 Z " fill="#A2C7D6" transform="translate(17,26)"/>
<path d="M0 0 C1.32 0 2.64 0 4 0 C4.33 0.99 4.66 1.98 5 3 C4.67 3.66 4.34 4.32 4 5 C3.01 5 2.02 5 1 5 C0.67 3.35 0.34 1.7 0 0 Z " fill="#7CAFC5" transform="translate(11,25)"/>
<path d="M0 0 C1.32 0 2.64 0 4 0 C3.6875 1.9375 3.6875 1.9375 3 4 C2.01 4.33 1.02 4.66 0 5 C-0.5625 3.0625 -0.5625 3.0625 -1 1 C-0.67 0.67 -0.34 0.34 0 0 Z " fill="#78ADC4" transform="translate(18,24)"/>
<path d="M0 0 C0.33 0.99 0.66 1.98 1 3 C2.65 3 4.3 3 6 3 C6 3.66 6 4.32 6 5 C5.34 5 4.68 5 4 5 C3.67 5.66 3.34 6.32 3 7 C2.01 6.67 1.02 6.34 0 6 C0 4.02 0 2.04 0 0 Z " fill="#B1CFDE" transform="translate(8,14)"/>
<path d="M0 0 C0.66 0 1.32 0 2 0 C2.33 1.98 2.66 3.96 3 6 C1.68 5.67 0.36 5.34 -1 5 C-0.67 3.35 -0.34 1.7 0 0 Z " fill="#80B1C9" transform="translate(10,12)"/>
</svg>
