<?xml version="1.0" encoding="utf-8"?>
<!-- Generator: Adobe Illustrator 28.7.1, SVG Export Plug-In . SVG Version: 9.03 Build 54978)  -->
<svg version="1.1" id="Layer_1" xmlns="http://www.w3.org/2000/svg" xmlns:xlink="http://www.w3.org/1999/xlink" x="0px" y="0px"
	 width="381.8px" height="210.6px" viewBox="0 0 381.8 210.6" style="enable-background:new 0 0 381.8 210.6;" xml:space="preserve"
	>
<style type="text/css">
	.st0{fill:#231F20;}
	.st1{fill:url(#SVGID_1_);}
	.st2{fill:url(#SVGID_00000116198344297170638510000003371435569189561258_);}
	.st3{fill:url(#SVGID_00000155837210915380339020000006519699178454066320_);}
	.st4{fill:url(#SVGID_00000067925163705484373870000004734772462335540135_);}
	.st5{opacity:0.6;fill:url(#SVGID_00000158028978171327802590000000205384920997349548_);enable-background:new    ;}
	.st6{fill:url(#SVGID_00000104674328539355613260000006587962344969503617_);}
	.st7{fill:url(#SVGID_00000019657474868600084500000004636927691980092565_);}
	.st8{opacity:0.8;fill:#FFFFFF;enable-background:new    ;}
</style>
<g>
	<path class="st0" d="M138.7,136.5c-4.6-4.4-7-11.5-7-21.2s2.6-16.5,7.7-20.9s11.9-6.6,20.3-6.6c17.7,0,26.6,8.8,26.6,26.5
		c0,8.9-2.2,15.9-6.5,21c-4.3,5.1-11.1,7.7-20.2,7.7C150.6,143.1,143.4,140.9,138.7,136.5z M163.7,131.1c1.2-0.6,2.1-1.6,2.8-3.1
		c1.3-2.6,2-6.7,2-12.5c0-5.8-0.7-9.8-2-12.4c-1.3-2.6-3.7-4-7.2-4.1c-1.3,0-2.7,0.1-4.1,0.4c-1.4,0.3-2.3,0.7-2.7,1.2
		c-0.8,0.9-1.3,2.7-1.7,5.6c-0.4,2.8-0.6,5.9-0.6,9.3c0,5.2,0.5,9.1,1.5,11.5c0.7,1.8,1.6,3.1,2.9,3.9s2.8,1.2,4.7,1.2
		C161,132,162.5,131.7,163.7,131.1C163.7,131.1,163.7,131.1,163.7,131.1z M238.7,141.8h-17.4l-8.9-17.5c-0.9-1.8-2-3-3.5-3.5v21h-16
		V85.7l16-0.7V117c1.5-0.6,2.8-1.9,3.8-3.8l8-14.3l17.5-0.1l-9.1,14.6c-1.4,2.3-3,4.1-4.7,5.5c1.4,1.6,3.1,3.9,4.9,7.1L238.7,141.8
		L238.7,141.8L238.7,141.8z M267.7,141.8l-1.5-5.9c-2.9,4.7-6.9,7-12,7c-4.2,0-7.6-1.2-10.2-3.5s-4-5.6-4-9.9c0-2.6,0.8-4.9,2.3-6.9
		c1.5-2,3.6-3.4,6.3-4.2c3.5-1,8.9-1.6,16.2-1.7c0-4.1-0.2-6.3-0.6-6.5c-0.3-0.2-1.3-0.4-3-0.4c-1.1,0-2.5,0.1-4.4,0.2
		c-3,0.1-7.1,0.5-12.2,1c-0.5-3.4-0.9-7-1.1-10.9c3.3-0.7,6.8-1.3,10.4-1.7s6.9-0.7,9.7-0.7c5,0,8.7,0.8,11.2,2.5
		c2.5,1.6,4.1,3.8,4.9,6.5c0.8,2.7,1.1,6.1,1,10.2l-0.1,13.8l0.3,11L267.7,141.8L267.7,141.8z M264.8,131.6v-6.9h-0.8
		c-4.6,0-7.2,0.2-7.7,0.8c-0.3,0.3-0.5,0.8-0.7,1.4c-0.2,0.6-0.2,1.2-0.2,1.8c0,1.5,0.3,2.5,1,3.1s1.8,0.8,3.2,0.8
		C261.3,132.5,263,132.2,264.8,131.6L264.8,131.6L264.8,131.6z M330.9,106.7c0.3,2.8,0.4,6.9,0.4,12.5v22.6h-16v-26.1
		c0-2.2-0.2-3.6-0.5-4.1c-0.2-0.2-0.6-0.4-1.4-0.6s-1.5-0.2-2.5-0.2l-1.6,0.1c-1.8,0.1-3.6,0.5-5.4,1.2v29.7h-16V85.7l16-0.7V96
		c0,4.5-0.2,7.5-0.5,9l0.1,0.1c4.2-4.8,9.3-7.2,15.2-7.2c2.2,0,4.4,0.3,6.3,0.9c2,0.6,3.4,1.5,4.4,2.7
		C330.2,102.2,330.6,103.9,330.9,106.7L330.9,106.7L330.9,106.7z M381.8,98.8v43h-13l-1.8-7.2c-4.5,5.4-9.9,8.1-16.1,8.1
		c-2.2,0-4.4-0.3-6.3-0.9s-3.5-1.5-4.4-2.7c-0.6-0.7-1-2.4-1.3-5.1s-0.4-6.9-0.4-12.5V98.8h16v22.5c0,1.2,0,2.7,0.1,4.4
		c0.1,1.7,0.2,2.8,0.6,3.2c0.4,0.6,1.7,0.9,3.7,0.9l1.5-0.1c1.8-0.1,3.6-0.5,5.4-1.2V98.8L381.8,98.8L381.8,98.8z"/>
	<g>
		
			<linearGradient id="SVGID_1_" gradientUnits="userSpaceOnUse" x1="48.815" y1="-8.07" x2="48.815" y2="202.5101" gradientTransform="matrix(1 0 0 -1 0 212.7399)">
			<stop  offset="0" style="stop-color:#257C9D"/>
			<stop  offset="1" style="stop-color:#B8D2E5"/>
		</linearGradient>
		<path class="st1" d="M48.8,0L48.8,0C48.8,0,0,50.4,0,108.9c0,33.6,5.1,52.8,14.7,69.5c14.2,24.5,32.5,32.2,34.1,32.2
			s20-7.6,34.1-32.2c9.6-16.7,14.7-36,14.7-69.5C97.6,50.4,48.8,0,48.8,0L48.8,0z"/>
		
			<linearGradient id="SVGID_00000110451032776711554090000013477807373828825227_" gradientUnits="userSpaceOnUse" x1="48.82" y1="2.15" x2="48.82" y2="100.33" gradientTransform="matrix(1 0 0 -1 0 212.7399)">
			<stop  offset="0" style="stop-color:#257C9D"/>
			<stop  offset="1" style="stop-color:#B8D2E5"/>
		</linearGradient>
		<path style="fill:url(#SVGID_00000110451032776711554090000013477807373828825227_);" d="M97.6,112.4l-48.8,18.4L0,112.4
			l48.8,98.2L97.6,112.4C97.6,112.4,97.6,112.4,97.6,112.4z"/>
		
			<linearGradient id="SVGID_00000057855212782674626400000015276058425829323685_" gradientUnits="userSpaceOnUse" x1="48.825" y1="2.15" x2="48.825" y2="161.9199" gradientTransform="matrix(1 0 0 -1 0 212.7399)">
			<stop  offset="0" style="stop-color:#257C9D"/>
			<stop  offset="1" style="stop-color:#B8D2E5"/>
		</linearGradient>
		<path style="fill:url(#SVGID_00000057855212782674626400000015276058425829323685_);" d="M83.2,50.8L48.8,81.1L14.4,50.8
			l34.4,159.8L83.2,50.8C83.2,50.8,83.2,50.8,83.2,50.8z"/>
		
			<linearGradient id="SVGID_00000088829769178257264920000017068149946881875338_" gradientUnits="userSpaceOnUse" x1="48.815" y1="2.15" x2="48.815" y2="131.6099" gradientTransform="matrix(1 0 0 -1 0 212.7399)">
			<stop  offset="0" style="stop-color:#257C9D"/>
			<stop  offset="1" style="stop-color:#B8D2E5"/>
		</linearGradient>
		<path style="fill:url(#SVGID_00000088829769178257264920000017068149946881875338_);" d="M48.8,81.1L48.8,81.1
			c0,0-29.8,31.7-29.8,67.4c0,20.5,3.1,32.2,9,42.4c8.6,15,19.8,19.6,20.8,19.6S61,205.9,69.6,191c5.9-10.2,9-22,9-42.4
			C78.6,112.8,48.8,81.1,48.8,81.1L48.8,81.1z"/>
		
			<linearGradient id="SVGID_00000135668455151722530690000007751400244483714466_" gradientUnits="userSpaceOnUse" x1="48.84" y1="2.14" x2="48.84" y2="62.71" gradientTransform="matrix(1 0 0 -1 0 212.7399)">
			<stop  offset="0" style="stop-color:#257C9D"/>
			<stop  offset="1" style="stop-color:#B8D2E5"/>
		</linearGradient>
		<path style="opacity:0.6;fill:url(#SVGID_00000135668455151722530690000007751400244483714466_);enable-background:new    ;" d="
			M93.9,150l-45.3,11.3L3.7,150l45.1,60.6L93.9,150L93.9,150L93.9,150z"/>
		
			<linearGradient id="SVGID_00000082337827772715259210000006752029762558355879_" gradientUnits="userSpaceOnUse" x1="48.9194" y1="5.65" x2="48.7194" y2="75.48" gradientTransform="matrix(1 0 0 -1 0 212.7399)">
			<stop  offset="0" style="stop-color:#257C9D"/>
			<stop  offset="1" style="stop-color:#B8D2E5"/>
		</linearGradient>
		<path style="fill:url(#SVGID_00000082337827772715259210000006752029762558355879_);" d="M48.8,130.8c0,0-18.4,19.5-18.4,41.5
			c0,12.6,1.9,19.9,5.5,26.2c5.3,9.2,12.2,12.1,12.8,12.1s7.5-2.9,12.9-12.1c3.6-6.3,5.5-13.5,5.5-26.2
			C67.2,150.3,48.8,130.8,48.8,130.8z"/>
		
			<linearGradient id="SVGID_00000035504900660704023900000016932280619223170462_" gradientUnits="userSpaceOnUse" x1="49.2739" y1="6.3799" x2="48.2939" y2="47.0899" gradientTransform="matrix(1 0 0 -1 0 212.7399)">
			<stop  offset="0" style="stop-color:#257C9D"/>
			<stop  offset="1" style="stop-color:#B8D2E5"/>
		</linearGradient>
		<path style="fill:url(#SVGID_00000035504900660704023900000016932280619223170462_);" d="M48.8,161.3c0,0-11.3,12.1-11.3,25.7
			c0,7.8,1.2,12.2,3.4,16.1c3.3,5.7,7.5,7.5,7.9,7.5c0.4,0,4.6-1.8,7.9-7.5c2.2-3.9,3.4-8.3,3.4-16.1
			C60.1,173.4,48.8,161.3,48.8,161.3L48.8,161.3L48.8,161.3z"/>
		<path class="st8" d="M48.8,1.3C54.5,7.5,96.7,55,96.7,108.9c0,31.1-4.2,51.1-14.6,69.1c-13.8,23.9-31.8,31.6-33.3,31.7
			c-1.6-0.1-19.6-7.8-33.3-31.7C5.1,160,0.9,140,0.9,108.9C0.9,55,43.1,7.5,48.8,1.3 M48.8,0L48.8,0C48.8,0,0,50.3,0,108.9
			c0,33.5,5.1,52.8,14.7,69.5c14.2,24.5,32.5,32.2,34.1,32.2s20-7.6,34.1-32.2c9.6-16.7,14.7-36,14.7-69.5C97.6,50.3,48.8,0,48.8,0
			C48.8,0,48.8,0,48.8,0z"/>
		<path class="st8" d="M1.8,114.1l46.7,17.6l0.3,0.1l0.3-0.1l46.7-17.6l-47,94.5L1.8,114.1L1.8,114.1z M97.6,112.4l-48.8,18.4
			L0,112.4l48.8,98.2L97.6,112.4L97.6,112.4L97.6,112.4z"/>
		<path class="st8" d="M15.9,53.3l32.3,28.5l0.6,0.5l0.6-0.5l32.3-28.5l-33,153L15.9,53.3 M83.2,50.8L48.8,81.1L14.4,50.8
			l34.4,159.8L83.2,50.8C83.2,50.8,83.2,50.8,83.2,50.8z"/>
		<path class="st8" d="M48.8,82.5c4.3,4.9,28.9,34,28.9,66.1c0,18.9-2.6,31.1-8.9,42c-8.1,14.1-18.6,18.9-20.1,19.2
			c-1.4-0.3-11.9-5.1-20-19.2c-6.3-10.9-8.8-23.1-8.8-42C19.9,116.5,44.5,87.4,48.8,82.5 M48.8,81.1L48.8,81.1
			c0,0-29.8,31.7-29.8,67.4c0,20.5,3.1,32.2,9,42.4c8.6,15,19.8,19.6,20.8,19.6S61,205.9,69.6,191c5.9-10.2,9-22,9-42.4
			C78.6,112.8,48.8,81.1,48.8,81.1z"/>
		<path class="st8" d="M91.7,151.5l-42.9,57.6L6,151.5l42.4,10.7l0.2,0.1l0.2-0.1L91.7,151.5L91.7,151.5z M93.9,150l-45.3,11.3
			L3.7,150l45.1,60.6L93.9,150L93.9,150L93.9,150z"/>
		<path class="st8" d="M48.8,132.1c3.2,3.7,17.5,21.1,17.5,40.2c0,11.6-1.6,19.1-5.4,25.7c-4.8,8.3-10.9,11.3-12.1,11.6
			c-1.2-0.3-7.2-3.3-12.1-11.6c-3.8-6.7-5.4-14.1-5.4-25.7C31.3,153.2,45.6,135.8,48.8,132.1 M48.8,130.8c0,0-18.4,19.5-18.4,41.5
			c0,12.6,1.9,19.9,5.5,26.2c5.3,9.2,12.2,12.1,12.8,12.1s7.5-2.9,12.9-12.1c3.6-6.3,5.5-13.5,5.5-26.2
			C67.2,150.3,48.8,130.8,48.8,130.8z"/>
		<path class="st8" d="M48.8,162.7c2.4,2.8,10.4,13.2,10.4,24.4c0,7.1-0.9,11.6-3.3,15.7c-2.8,4.8-6.3,6.7-7.1,7
			c-0.9-0.3-4.4-2.2-7.1-7c-2.3-4.1-3.3-8.6-3.3-15.7C38.4,175.8,46.4,165.5,48.8,162.7z M48.8,161.3c0,0-11.3,12.1-11.3,25.7
			c0,7.8,1.2,12.2,3.4,16.1c3.3,5.7,7.5,7.5,7.9,7.5c0.4,0,4.6-1.8,7.9-7.5c2.2-3.9,3.4-8.3,3.4-16.1
			C60.1,173.4,48.8,161.3,48.8,161.3L48.8,161.3L48.8,161.3z"/>
		<path class="st8" d="M49.3,81.1h-0.9v129.5h0.9V81.1z"/>
	</g>
</g>
</svg>
