<svg id="Layer_1" data-name="Layer 1" xmlns="http://www.w3.org/2000/svg" viewBox="0 0 1200 436.993"><defs><style>.cls-1{fill:#3b3a3a;}.cls-2{fill:#363636;}.cls-3{fill:#b1b1b1;}.cls-4{fill:#cfd0d0;}.cls-5{fill:#fbfcfc;}</style></defs><title>ONNX_Runtime_logo_dark</title><path class="cls-1" d="M230.58354,245.812a6.559,6.559,0,0,0,1.63715,2.92442q24.92792,34.33475,49.8797,68.65221,33.7584,46.44267,67.51806,92.88438a22.75834,22.75834,0,0,1,1.80358,2.69507,2.47761,2.47761,0,0,1-2.05324,3.68953,16.04134,16.04134,0,0,1-3.22151-.29231c-5.11273-.78919-10.22122-1.606-15.33038-2.41793q-14.971-2.37921-29.94121-4.764-12.65334-2.01528-25.3061-4.03423-12.29823-1.95192-24.59938-3.88554Q236.17411,398.93,221.37742,396.6c-4.04026-.63689-8.077-1.29661-12.12112-1.90818-4.38874-.66369-4.84289-1.28946-4.38685-5.59251.88788-8.37723,1.69324-16.76314,2.55059-25.14368.8573-8.38027,1.74436-16.75759,2.60321-25.13768.57668-5.627,1.1183-11.25751,1.69108-16.88485q1.29783-12.75058,2.616-25.49914,1.19333-11.67309,2.3753-23.34733,1.00751-9.87687,2.01786-19.75358c.14386-1.42938.22213-2.86537.33432-4.34744-1.35318.03338-1.66079,1.08684-2.17786,1.79586q-12.76632,17.50557-25.48,35.04959-46.0688,63.38649-92.1436,126.76873a23.49021,23.49021,0,0,1-1.96462,2.58391,2.614,2.614,0,0,1-4.53415-1.17508,49.80132,49.80132,0,0,1-.87063-4.97287q-4.48149-28.52244-8.95569-57.046-4.32435-27.451-8.68473-54.89639c-1.2626-7.96043-2.5576-15.91579-3.8217-23.876-.44649-2.81144.08963-3.67516,2.92933-4.31125,7.51068-1.68244,15.03536-3.3028,22.55837-4.92969q27.68223-5.98626,55.36808-11.95568,27.68522-5.973,55.37233-11.93739c1.41094-.30409,2.83-.57281,4.23381-.90648.54028-.12846,1.1481-.226,1.4382-.85975a9.62465,9.62465,0,0,0-2.97438-1.20682Q115.0283,206.475,20.71205,175.82094c-1.37188-.44583-2.7717-.83745-4.08824-1.41451a2.59745,2.59745,0,0,1-.48468-4.62376,25.08583,25.08583,0,0,1,2.85593-1.5342q61.40645-31.27184,122.81572-62.53811c4.52109-2.302,4.80191-2.2286,7.31582,2.08963q34.13988,58.6431,68.273,117.2902c.77473,1.33091,1.56612,2.65221,2.30335,3.89956.91833-.0866.78232-.65.79029-1.07511.0271-1.44428.01995-2.88932.01995-4.334q.00087-98.24517.00175-196.4903c0-1.20372-.03664-2.4112.04488-3.61007a2.70957,2.70957,0,0,1,4.71248-1.80069c.6312.55638,1.20467,1.17847,1.80076,1.77439q48.79712,48.78131,97.59286,97.564c.596.59583,1.22125,1.16828,1.765,1.8092,1.28476,1.51453,1.278,2.54286,0,4.17779-.44405.568-.95161,1.08666-1.43328,1.62508q-45.51795,50.88245-91.03393,101.76662c-.78951.88263-1.53976,1.80036-2.45205,2.87035a2.39044,2.39044,0,0,0,2.44663.0564q12.34881-4.00782,24.69256-8.0312,83.18166-27.00661,166.3658-54.00547a16.04422,16.04422,0,0,1,2.77063-.78147,2.55473,2.55473,0,0,1,2.8086,3.46762,16.096,16.096,0,0,1-1.08583,2.27545q-31.545,61.8849-63.097,123.76637c-2.113,4.14368-2.43345,4.2597-6.62977,2.41039q-62.71765-27.63942-125.43464-55.28038C233.19027,246.63442,232.09882,245.84193,230.58354,245.812ZM226.41761,30.50428a10.185,10.185,0,0,0-.40841,4.03813q.00024,41.86353.02484,83.72709c.00178,4.39364-.25392,4.02129,4.16085,4.02211q41.51508.00777,83.03007-.0234c1.26271-.00154,2.61584.454,3.80913-.38743-.03666-1.661-1.48061-2.33068-2.43165-3.28305Q272.00906,75.94526,229.36136,33.347C228.51718,32.5032,227.6447,31.68771,226.41761,30.50428ZM25.46879,171.06139a2.035,2.035,0,0,0,1.41305,1.11853q15.26589,4.93347,30.529,9.87564,25.7137,8.36332,51.42321,16.73953c3.71782,1.20239,3.35383,1.68507,4.65807-2.33214q6.40134-19.71695,12.80864-39.43192,6.52437-20.05818,13.05733-40.11352c.33257-1.02354.59662-2.07114.84957-3.11791a.673.673,0,0,0-.91747-.71514c-1.09349.49715-2.1791,1.01417-3.24892,1.56031q-22.80959,11.64383-45.61556,23.29474Q59.56805,153.65386,28.69046,169.329C27.63054,169.868,26.59473,170.45448,25.46879,171.06139ZM342.10658,409.94562c.01862-1.45509-1.05019-2.21888-1.72193-3.14591Q317.2,374.80336,293.95806,342.84855c-1.414-1.94614-2.82484-3.89533-4.27872-5.81157-.72361-.95372-1.15588-.9938-2.11948-.34717-.49883.33482-.96361.72-1.4504,1.07326q-31.10354,22.577-62.20812,45.15248c-2.531,1.83714-5.0673,3.66718-7.57938,5.52984-.4427.32821-1.09018.63768-.829,1.39772.19949.58053.77456.4777,1.2158.5475,3.79965.601,7.60472,1.16772,11.404,1.77113q14.95669,2.3757,29.91016,4.772,12.8202,2.04182,25.64234,4.07141,12.10868,1.92361,24.21687,3.85026c8.66537,1.37779,17.32208,2.81365,26.00112,4.099C336.58937,409.35509,339.26556,410.212,342.10658,409.94562Zm79.83134-231.93285c-1.49027.43755-2.64028.74419-3.77053,1.11153q-39.79128,12.93276-79.57794,25.87992c-4.10492,1.33589-3.59043,1.056-2.4316,4.64479q8.25716,25.57173,16.58727,51.12c3.12019,9.60527,6.22746,19.2149,9.3922,28.80552.35688,1.08159.35913,2.40316,1.54033,3.19455a4.27243,4.27243,0,0,0,.74015-.80026q28.77153-56.4144,57.50865-112.84633C422.01891,178.94095,421.93792,178.67117,421.93792,178.01277ZM77.1282,278.60116c-.38247.40643-.22582.86292-.15158,1.32668q1.5386,9.6111,3.05929,19.225c1.57655,10.09072,3.10758,20.18863,4.70162,30.27657C86.538,340.82334,88.40235,352.20723,90.21005,363.6c1.789,11.27452,3.53464,22.55593,5.31634,33.83165.39361,2.491.84987,4.97225,1.29912,7.454a.61012.61012,0,0,0,1.087.21836c.68486-.835,1.35285-1.686,1.98791-2.55934q21.6411-29.76147,43.271-59.53112,3.90891-5.37993,7.78845-10.78282a5.00734,5.00734,0,0,0-.75267-.97862Q114.02,304.94952,77.80737,278.68181C77.64533,278.56425,77.35468,278.62387,77.1282,278.60116Zm182.95217-86.60743a10.45556,10.45556,0,0,0,3.03621-2.86551q26.62008-29.44032,53.20859-58.90923.7221-.8,1.3844-1.65335a.6539.6539,0,0,0-.55343-.99776c-1.08151-.03237-2.164-.04469-3.24608-.04478q-40.78228-.00332-81.56452.00176c-4.62235.00119-5.08439-.54335-2.70834,4.21322q14.42257,28.87267,28.79283,57.77151A5.30436,5.30436,0,0,0,260.08037,191.99373ZM146.19974,114.39027a4.33176,4.33176,0,0,0-1.07483,2.26176q-4.84741,14.91212-9.70942,29.81953-7.97961,24.50719-15.94959,49.01748c-.36935,1.137-.65875,2.301-.95355,3.46058a.60421.60421,0,0,0,.57106.74453,19.61014,19.61014,0,0,0,2.872-.21012c3.92264-.58834,7.83549-1.2423,11.75955-1.82061q23.18847-3.41724,46.38094-6.80729c2.854-.42,5.70121-.88735,8.54739-1.35805a.70444.70444,0,0,0,.58595-1.0487c-.51012-1.084-1.08209-2.142-1.67974-3.1813q-9.2593-16.10142-18.53656-32.19255-10.444-18.12468-20.90805-36.23784C147.59052,115.94911,147.35183,114.79286,146.19974,114.39027ZM153.117,325.96635c.26543-1.42382.54678-2.81934.7838-4.22235q2.76415-16.36187,5.51447-32.726,2.6095-15.47381,5.2214-30.94719a15.27,15.27,0,0,0,.16847-1.79418.86933.86933,0,0,0-1.13082-.96289q-6.01085,1.20714-12.01146,2.465-23.11478,4.882-46.22517,9.78438-11.82,2.50323-23.63725,5.01956c-.52788.11289-1.33988-.08127-1.41387.74086-.06171.68583.65407.92775,1.10275,1.28418.65918.52373,1.35015,1.00773,2.03193,1.50271q17.38271,12.61894,34.76657,25.2365,15.77583,11.45283,31.561,22.89261C150.78226,324.914,151.553,325.97023,153.117,325.96635Zm57.62658,59.71858c1.67105-1.15272,2.65473-1.80275,3.60861-2.49391q9.64868-6.99034,19.28655-13.99553,23.95428-17.39914,47.89736-34.81381c.825-.60068,1.9828-.93639,2.18305-2.25694-.52446-.29853-1.0363-.61214-1.56737-.88893q-29.60129-15.43089-59.202-30.863c-3.31718-1.73183-3.17373-1.299-3.41887,2.02367-.11495,1.558-.38421,3.10393-.54715,4.65912-.82736,7.89636-1.626,15.79576-2.46716,23.69058s-1.72729,15.78473-2.58179,23.678q-1.37885,12.73683-2.72965,25.4766C211.02913,381.5666,210.93587,383.241,210.74353,385.68493Zm68.32409-125.60128c.41.881,1.31873,1.025,2.0621,1.35737q36.89325,16.49574,73.80348,32.95361a20.50481,20.50481,0,0,0,2.01631.75951.65563.65563,0,0,0,.88219-.74421c-.321-1.27976-.64823-2.56129-1.0543-3.81578q-6.111-18.879-12.25055-37.74877-6.52089-20.0719-13.05083-40.14086a19.436,19.436,0,0,0-.90106-2.34759.57256.57256,0,0,0-.90481-.1853q-.82764.69254-1.6005,1.4502-23.71893,23.26913-47.42729,46.54892A4.85009,4.85009,0,0,0,279.06762,260.08365Zm-64.05982-15.836a1.64216,1.64216,0,0,0-1.55366-.21952q-9.69522,2.09229-19.39146,4.17958c-7.049,1.5304-14.08807,3.10759-21.14566,4.59725a2.616,2.616,0,0,0-2.46468,2.49642c-3.24606,19.697-6.60411,39.37566-9.92254,59.0608-.27081,1.60629-.46672,3.22524-.7346,5.0981a5.3519,5.3519,0,0,0,1.09788-.78677Q187.96222,281.47085,215.0078,244.24763ZM127.05606,204.0991l.06524.52531c.65526.26273,1.29773.5647,1.96757.78245q41.80293,13.58658,83.61207,27.15407a11.41436,11.41436,0,0,0,2.09262.51945.50085.50085,0,0,0,.50591-.70818,12.98809,12.98809,0,0,0-.78269-1.605q-2.9778-5.15132-5.97924-10.28889c-4.71786-8.102-9.46751-16.1857-14.12549-24.32192a2.68659,2.68659,0,0,0-3.16675-1.60671c-4.032.66148-8.08745,1.17831-12.12921,1.782-8.91518,1.33166-17.82638,2.68993-26.74165,4.02093Q139.71767,202.24226,127.05606,204.0991Zm97.94388,43.80177a18.16533,18.16533,0,0,0-.94477,5.2049c-.32729,3.46993-.64816,6.94057-1.00564,10.40746-.85049,8.248-1.72549,16.49345-2.57787,24.74126-.12353,1.19532-.18257,2.39751-.26077,3.59719a1.517,1.517,0,0,0,.82625,1.4752c.41319.24429.83624.47284,1.262.69478q27.95978,14.57406,55.9307,29.12667c.34352.17864.76255.67106,1.43835-.02345C261.563,298.212,243.43505,273.26772,224.99994,247.90087Zm95.18473-36.92721c-10.1926,3.17537-19.96563,6.45269-29.77281,9.62109q-14.57387,4.70843-29.1356,9.4541c-9.7452,3.1965-19.54016,6.24694-29.29544,9.58781.61478,1.22354,1.67511,1.33162,2.51619,1.70458q17.79312,7.8903,35.62259,15.6984c3.03268,1.32474,2.22637,1.73721,4.857-.84228q21.77776-21.35492,43.54852-42.71683A4.18728,4.18728,0,0,0,320.18467,210.97366ZM226.68923,137.953l-.73591.07913c-.01055,1.29427-.03026,2.58856-.03033,3.88283q-.00264,42.22922-.00119,84.45844c0,.84215-.03072,1.68611.01491,2.52584.02924.53819-.20515,1.2294.75184,1.52339.51833-.55434,1.08991-1.14258,1.63636-1.75336q12.75629-14.25741,25.50044-28.52568c2.9419-3.30248,2.73966-2.28167.84112-6.11115q-13.13429-26.49253-26.34522-52.947C227.79644,140.03175,227.23413,138.99672,226.68923,137.953Z"/><path class="cls-2" d="M1000.30041,178.33533q0-1.95889.00009-3.91775-.00014-66.82212.00026-133.64421c.00009-1.08356-.01067-2.16758.01721-3.25054a4.50375,4.50375,0,0,1,2.84186-4.24836,12.44577,12.44577,0,0,1,10.494-.036,4.18381,4.18381,0,0,1,2.69066,3.93791c.02276.84221.03017,1.68509.03026,2.52766q.002,80.72828.00035,161.45656c0,.72234-.00812,1.44463-.01491,2.167a4.45649,4.45649,0,0,1-2.7899,4.2776c-3.37929,1.53156-6.73484,1.676-9.964-.46517a17.00939,17.00939,0,0,1-3.95968-3.66854c-1.34012-1.69973-2.64257-3.43629-3.8546-5.229q-44.79279-66.253-89.59008-132.503c-.8042-1.18793-1.14049-2.91922-2.94552-3.24273-.67469,1.36412-.32323,2.821-.32394,4.22826q-.03269,66.46088-.01914,132.92172c0,1.20383-.01394,2.4077-.02708,3.61148a4.48526,4.48526,0,0,1-2.7368,4.31645,11.73553,11.73553,0,0,1-10.77417-.21,4.51177,4.51177,0,0,1-2.52463-4.0976c-.02179-.84228-.01138-1.68544-.01138-2.52821q-.00054-80.36709.00017-160.73417,0-1.26418.00821-2.52835a4.59229,4.59229,0,0,1,3.38952-4.59992,11.08151,11.08151,0,0,1,10.049.98921,17.8446,17.8446,0,0,1,4.31546,3.81115c1.51109,1.87023,2.99986,3.77133,4.338,5.76658q43.84017,65.36916,87.64108,130.7646c.98434,1.46884,1.986,2.92609,2.97948,4.38879Z"/><path class="cls-2" d="M820.35222,178.85538c0-1.80212.00009-3.10861.00009-4.41511q-.00014-66.80946.00009-133.6189c0-1.08338.00467-2.16676.008-3.25014a4.42592,4.42592,0,0,1,2.78461-4.2711,12.41052,12.41052,0,0,1,10.48976-.08292,4.20993,4.20993,0,0,1,2.744,3.90541c.03573.96178.04693,1.925.047,2.88753q.00318,80.35179-.00009,160.70359c0,.96266-.00406,1.92648-.04861,2.88782a4.35667,4.35667,0,0,1-2.69771,3.96205c-3.36376,1.54151-6.72028,1.74806-9.96786-.37032a16.52907,16.52907,0,0,1-3.97511-3.64853c-1.33748-1.70158-2.64893-3.43069-3.8607-5.22291Q771.08986,132.08236,726.32732,65.827c-.74-1.09486-1.53517-2.15229-2.29385-3.23474-.16364-.23356-.36381-.33121-.61126-.1612-.16823.11554-.38931.30707-.399.47543-.06908,1.1977-.12121,2.39815-.12139,3.59774q-.00793,66.80946-.005,133.61891c0,1.08331-.01623,2.16671-.01261,3.25a4.2517,4.2517,0,0,1-2.49376,4.08375,11.59246,11.59246,0,0,1-11.08232-.15835,4.54768,4.54768,0,0,1-2.4462-4.14712c-.01385-.84246-.00927-1.68522-.00927-2.52786q-.00053-80.35188.00018-160.70379c0-.84259-.00423-1.68551.01588-2.52772a4.50669,4.50669,0,0,1,3.13686-4.407,11.042,11.042,0,0,1,10.06535.73273,18.37531,18.37531,0,0,1,4.84035,4.29448c1.56976,1.9762,3.089,4.00225,4.49472,6.09748q33.48543,49.91156,66.93238,99.849,10.75146,16.04292,21.51219,32.0796A7.20053,7.20053,0,0,0,820.35222,178.85538Z"/><path class="cls-2" d="M658.72942,121.26c-.00009,12.03475.01932,24.06952-.00865,36.1042a66.38048,66.38048,0,0,1-1.774,16.81871A41.785,41.785,0,0,1,638.28865,199.777a63.90715,63.90715,0,0,1-22.83255,8.53192,121.11049,121.11049,0,0,1-39.1736.63873,70.36078,70.36078,0,0,1-20.04723-5.71677q-22.8135-10.60561-25.92314-35.58507a78.13214,78.13214,0,0,1-.55445-9.72115q.00357-36.8263-.00662-73.65264a63.92667,63.92667,0,0,1,2.06007-17.13915,41.154,41.154,0,0,1,17.93264-24.43768,61.78248,61.78248,0,0,1,22.08371-8.47671,117.80221,117.80221,0,0,1,32.34225-1.64516A90.84838,90.84838,0,0,1,626.74485,37.061a54.69,54.69,0,0,1,12.88295,6.3988c9.85247,6.724,15.68872,16.05307,17.99333,27.68533a74.35466,74.35466,0,0,1,1.10044,14.37167Q658.75782,103.38829,658.72942,121.26Zm-16.11852.14521q0-18.59992-.0023-37.19986a55.16272,55.16272,0,0,0-.83322-10.77875c-2.07233-10.4397-7.64313-18.28574-17.07542-23.32226a49.93313,49.93313,0,0,0-15.35478-5.03989,90.913,90.913,0,0,0-30.55067.00932,48.62051,48.62051,0,0,0-15.33461,5.09473A31.57076,31.57076,0,0,0,547.58962,69.8337a51.4,51.4,0,0,0-1.79652,14.27448q-.01813,37.01928-.01945,74.03855a60.7526,60.7526,0,0,0,.63415,8.99821c1.75047,11.77035,7.76867,20.54021,18.56327,25.82869a50.59771,50.59771,0,0,0,14.79115,4.48012,95.32688,95.32688,0,0,0,28.78163-.02062,50.18879,50.18879,0,0,0,15.75886-4.96616,31.99178,31.99178,0,0,0,16.88214-20.989,49.64231,49.64231,0,0,0,1.42578-12.873Q642.60733,140.00512,642.6109,121.40516Z"/><path class="cls-2" d="M1058.66716,31.99621a7.57807,7.57807,0,0,1,5.8501,2.22419,28.03146,28.03146,0,0,1,4.55576,5.57577q14.99229,22.10787,29.988,44.21341,7.29441,10.75461,14.58952,21.50894c.47268.69665.9397,1.39884,1.44713,2.06992.43863.58.98761.55173,1.45014-.08034.63914-.8737,1.24308-1.77344,1.8539-2.66765q21.27664-31.1492,42.556-62.29649c1.22182-1.78761,2.50275-3.53519,3.77486-5.28795.42336-.58337.90088-1.12783,1.36023-1.68472,3.40672-4.13155,7.40583-4.48346,12.39492-2.55077,3.12328,1.20991,3.93348,3.76593,2.40863,6.75861a24.53064,24.53064,0,0,1-1.7402,2.73487q-25.42761,36.83871-50.86546,73.67017c-.41.594-.81823,1.18921-1.22985,1.78206-1.85409,2.67-1.65551,2.32786-.02806,4.66591q14.53933,20.888,29.08087,41.77436,11.65314,16.73969,23.30072,33.48332a35.14613,35.14613,0,0,1,1.93462,3.04277,4.04336,4.04336,0,0,1-.63517,4.98526,9.19523,9.19523,0,0,1-13.208.45291,27.96329,27.96329,0,0,1-2.86806-3.70012q-23.66991-34.32314-47.316-68.66262a10.05073,10.05073,0,0,0-1.106-1.41293.60921.60921,0,0,0-.93652.05107c-.44894.56253-.88042,1.14114-1.28693,1.73514q-23.439,34.26159-46.88224,68.52019a24.4527,24.4527,0,0,1-2.91208,3.66413c-3.65656,3.59631-10.38134,2.94783-13.4007-1.19792a3.65593,3.65593,0,0,1-.415-4.07119,35.294,35.294,0,0,1,2.284-3.6707q24.53693-35.47974,49.09405-70.94544c1.23241-1.78058,2.457-3.5667,3.69308-5.34479a1.61106,1.61106,0,0,0,.0007-1.99908c-.47638-.69461-.94446-1.395-1.42119-2.08935q-25.74216-37.49768-51.47806-74.9998a18.68409,18.68409,0,0,1-1.833-3.08976c-1.07308-2.48919-.373-4.43138,1.99515-5.78792A11.21374,11.21374,0,0,1,1058.66716,31.99621Z"/><path class="cls-1" d="M1027.73336,345.75264a7.835,7.835,0,0,0,1.95324-3.07919q16.34613-31.9572,32.65264-63.93475a30.85338,30.85338,0,0,1,4.45423-6.9748,3.41978,3.41978,0,0,1,2.81548-1.35115,2.80942,2.80942,0,0,1,2.93608,2.59793,22.2556,22.2556,0,0,1,.05381,2.52522q.00291,61.931-.0015,123.86212a19.179,19.179,0,0,1-.08495,2.52182,2.6306,2.6306,0,0,1-2.32111,2.4c-2.84566.61285-4.40615-.53017-4.62211-3.44978-.07966-1.0778-.031-2.16561-.03105-3.24883q-.00159-52.0004-.00106-104.00082c0-1.31447.00009-2.62889.00009-3.8773-1.34577-.38161-1.323.68852-1.58749,1.1932q-7.70143,14.70138-15.31741,29.44739-8.312,16.00951-16.62931,32.01616a13.39441,13.39441,0,0,1-2.35,3.61471,2.463,2.463,0,0,1-3.80891.004,13.09676,13.09676,0,0,1-2.29226-3.64993q-15.3243-29.645-30.63448-59.2971c-.49684-.96179-.9741-1.93508-1.5125-2.87318a1.25453,1.25453,0,0,0-.74977-.61854c-.46517-.05309-.47135.4149-.476.75656-.01482,1.08318-.01112,2.16662-.01112,3.24993q-.00066,52.36155-.00432,104.72308a31.78214,31.78214,0,0,1-.10868,3.60456,2.5861,2.5861,0,0,1-2.31935,2.40055c-2.81733.6241-4.42238-.53413-4.67971-3.42522-.07446-.83646-.03052-1.684-.03052-2.52649q-.00159-61.02831.00785-122.05656a17.14849,17.14849,0,0,1,.22884-3.58525,2.99433,2.99433,0,0,1,4.82615-1.6962,12.89247,12.89247,0,0,1,2.17837,2.38181,38.6528,38.6528,0,0,1,3.43451,5.92217q15.92018,31.36183,31.86839,62.70936A14.26207,14.26207,0,0,0,1027.73336,345.75264Z"/><path class="cls-2" d="M746.53,289.62482a9.51189,9.51189,0,0,0-.17493,3.00794q-.01813,17.88042-.00856,35.76078-.00027,34.85769-.00935,69.71541a21.403,21.403,0,0,1-.2381,3.94631c-.32244,1.70419-1.57761,2.462-3.51506,2.4036-1.88672-.05689-3.07034-.98441-3.29106-2.68665a19.71023,19.71023,0,0,1-.07075-2.52478q-.004-61.94922-.00062-123.89841c0-.722.0097-1.44477.04525-2.16575a2.64962,2.64962,0,0,1,1.75722-2.50484,3.01516,3.01516,0,0,1,3.37355.50111,11.66071,11.66071,0,0,1,1.89431,2.16116c1.20842,1.93613,2.39751,3.89564,3.42772,5.93011q21.11,41.69178,42.16936,83.40932,4.96213,9.82086,9.914,19.647a22.92651,22.92651,0,0,0,1.26831,2.17867c.08425.1288.42151.11249.64329.11888.06475.00185.17141-.13987.19443-.23194a4.95153,4.95153,0,0,0,.20635-1.04632c.02893-1.08292.01835-2.167.01835-3.25064q.00066-51.835.00458-103.6701a31.69942,31.69942,0,0,1,.11707-3.60447,2.5717,2.5717,0,0,1,2.37933-2.328,7.4728,7.4728,0,0,1,2.15535.021,2.44042,2.44042,0,0,1,2.18022,2.10511,25.279,25.279,0,0,1,.23555,3.59111q.02248,21.6732.01,43.34639,0,39.19233-.00715,78.38469a24.22177,24.22177,0,0,1-.19011,3.95729,2.996,2.996,0,0,1-4.97207,1.77562,9.85293,9.85293,0,0,1-1.826-2.21769c-.88942-1.42677-1.71364-2.90012-2.47505-4.39966q-26.224-51.6432-52.42967-103.29572c-.70724-1.39322-1.46724-2.75972-2.2178-4.1304C747.07183,289.58333,746.883,289.62482,746.53,289.62482Z"/><path class="cls-1" d="M573.04705,340.62914a9.44,9.44,0,0,0,1.5593,3.814q13.41885,26.16771,26.87069,52.31865a20.47342,20.47342,0,0,1,1.44736,3.2887,3.36919,3.36919,0,0,1-5.84353,3.13516,10.74326,10.74326,0,0,1-1.42279-2.07844Q581.02117,372.53154,566.417,343.939a9.716,9.716,0,0,1-.50659-.9564,3.01926,3.01926,0,0,0-3.304-2.124c-4.21242.10261-8.429.03042-12.644.03355-3.37183.00252-6.74389-.006-10.11545.02871-1.26042.013-1.51475.27507-1.562,1.43436-.0393.96161-.02033,1.92582-.02038,2.88888q-.00126,26.54631-.00692,53.09263a20.89255,20.89255,0,0,1-.16819,3.5949c-.32,1.8158-1.70693,2.65658-3.78919,2.51058a2.96433,2.96433,0,0,1-3.12535-2.85907,21.69572,21.69572,0,0,1-.0678-2.52482q-.0039-61.58014-.00132-123.16024c0-.72221-.02942-1.44768.02655-2.166a3.16575,3.16575,0,0,1,3.15067-3.27732,18.3924,18.3924,0,0,1,2.165-.05561q14.99309-.00377,29.98621-.00163a46.29569,46.29569,0,0,1,16.61347,2.92036,44.18588,44.18588,0,0,1,4.59489,2.07711,26.11383,26.11383,0,0,1,13.83129,17.17179,48.92416,48.92416,0,0,1-.08826,26.0327c-2.52944,9.07223-8.30972,15.30157-16.96441,18.89312a39.50407,39.50407,0,0,1-8.299,2.40665C575.0863,340.08191,574.07131,340.38243,573.04705,340.62914ZM538.2639,305.6666q0,11.54642,0,23.09285c0,.72168.00546,1.44336-.00036,2.165-.02386,2.95767.09,2.85682,2.69855,2.86855.60156.00274,1.20308.00159,1.80464.00159,6.978,0,13.95621-.0336,20.93387.01605a62.92624,62.92624,0,0,0,8.63718-.53934,32.45689,32.45689,0,0,0,11.276-3.57166,21.70361,21.70361,0,0,0,11.10341-13.985,39.38677,39.38677,0,0,0,.3706-18.9269c-1.75682-8.023-6.56824-13.46563-14.11244-16.56229-.998-.40961-2.02845-.74646-3.05857-1.07017a41.30731,41.30731,0,0,0-12.46655-1.64391q-12.09122-.00819-24.18238-.00167-.9018.00014-1.80357.03073c-.68489.0232-1.12951.34082-1.15337,1.06616-.03162.961-.04464,1.92308-.045,2.88469Q538.26087,293.579,538.2639,305.6666Z"/><path class="cls-1" d="M702.74607,324.406q0,21.30338-.006,42.60672a60.63868,60.63868,0,0,1-1.55838,14.6713c-2.80357,11.27665-9.855,18.49463-20.82126,21.91557a45.33884,45.33884,0,0,1-27.02952.11351c-12.58212-3.78121-19.54078-12.5206-21.72973-25.30115a59.2836,59.2836,0,0,1-.79979-10.06095q.01534-46.3981.00785-92.79619,0-1.2629.04861-2.52566a2.49425,2.49425,0,0,1,.692-1.62014c1.13767-1.24779,2.60068-1.11709,4.03228-.87a2.64413,2.64413,0,0,1,2.20413,2.53134,30.769,30.769,0,0,1,.12395,3.60126q.00873,44.9537.0045,89.90739a48.49978,48.49978,0,0,0,.92108,11.126c.27357,1.17.52808,2.35033.90054,3.49027,2.75849,8.442,8.4273,13.89181,17.03511,16.07392a38.89894,38.89894,0,0,0,20.68822-.265c8.25379-2.39323,13.65759-7.74577,16.31975-15.90476a47.23722,47.23722,0,0,0,1.91919-12.80481c.06069-1.44185.01985-2.88817.01994-4.33245q.00091-43.68995.00282-87.37989c.00018-1.203-.04508-2.41392.07269-3.60716a2.64463,2.64463,0,0,1,2.60129-2.51838,7.693,7.693,0,0,1,1.79895.01936,2.5613,2.5613,0,0,1,2.39547,2.30755,28.07714,28.07714,0,0,1,.15059,3.59945Q702.75344,300.39452,702.74607,324.406Z"/><path class="cls-2" d="M1109.875,337.28929q-.00014-30.51331.00238-61.0266a29.89911,29.89911,0,0,1,.07675-3.24614,2.71,2.71,0,0,1,2.59415-2.5429,22.02226,22.02226,0,0,1,2.525-.065q30.88334-.00423,61.76676.00093a18.74856,18.74856,0,0,1,2.52287.084,2.51088,2.51088,0,0,1,2.299,2.39575,9.01705,9.01705,0,0,1-.051,2.15079,2.43169,2.43169,0,0,1-2.08159,2.201,20.91786,20.91786,0,0,1-3.58228.24473q-27.27133.02091-54.54258.01844c-5.09239.00621-4.47645-.61149-4.48422,4.32456q-.03758,24.01338-.0097,48.02685c-.00027,4.323-.16515,3.94357,3.87172,3.94935,7.58535.01085,15.17079-.002,22.75615.00922a24.123,24.123,0,0,1,3.24061.14719,2.498,2.498,0,0,1,2.31528,2.37926,8.64058,8.64058,0,0,1,.00935,2.1526,2.30841,2.30841,0,0,1-2.06854,2.1735,22.707,22.707,0,0,1-3.235.19994c-7.58535.01609-15.17079.007-22.75615.01133-.96237.00053-1.92562.011-2.88667.05662a1.10093,1.10093,0,0,0-1.16942,1.09328c-.05258.83941-.07375,1.68205-.07393,2.52332q-.00609,24.555-.00212,49.11012c.00009.72212-.0172,1.44627.02885,2.16592.07825,1.22234.35367,1.52908,1.48065,1.58076,1.08165.04961,2.16664.03025,3.25023.03034q27.0907.00192,54.18132.00383a30.9477,30.9477,0,0,1,3.24625.08533,2.61474,2.61474,0,0,1,2.55657,2.55247,7.95556,7.95556,0,0,1,.0269,1.79652,2.42668,2.42668,0,0,1-2.23492,2.42944,16.24423,16.24423,0,0,1-2.87062.21387q-30.7027.017-61.40551.00278a16.24447,16.24447,0,0,1-2.51766-.14363c-1.9183-.30276-2.61893-1.12154-2.75249-3.17515-.06246-.95918-.02585-1.92515-.02585-2.888Q1109.87417,367.8026,1109.875,337.28929Z"/><path class="cls-1" d="M871.5493,340.00712q-.00014-29.60661.00009-59.21327c.00009-3.50447.22337-3.284-3.35547-3.28509q-13.36294-.004-26.726-.00639a15.62381,15.62381,0,0,1-2.87706-.14089,3.51946,3.51946,0,0,1-2.84821-3.65712,3.46824,3.46824,0,0,1,3.24466-3.2726c.83684-.0732,1.68409-.034,2.52666-.03409q33.5881-.00185,67.17613.00141a27.1657,27.1657,0,0,1,2.8858.06632,2.78758,2.78758,0,0,1,2.67371,2.85453c.18764,2.56759-.86948,3.90163-3.37284,4.1458-.9547.09313-1.9244.04048-2.8873.04074q-12.6407.0033-25.2813.00313c-.96255.00035-1.92545.01182-2.88756.04189a1.03156,1.03156,0,0,0-1.09779,1.12177q-.036,1.26256-.03546,2.526-.00464,7.76271-.00159,15.52545,0,50.72844-.00132,101.45691a32.37263,32.37263,0,0,1-.04738,3.24689c-.21005,2.07619-1.55131,3.12585-3.72889,3.03987a3.094,3.094,0,0,1-3.31807-3.08357c-.08777-.95534-.03934-1.924-.03943-2.88654Q871.54833,369.25273,871.5493,340.00712Z"/><path class="cls-1" d="M938.82309,337.14069q0-30.33183.00061-60.66365c.00009-.96284-.049-1.93035.02673-2.88764.17441-2.2064,1.28711-3.18013,3.538-3.17921a3.737,3.737,0,0,1,2.09218.426,2.87963,2.87963,0,0,1,1.42949,2.37533c.04349.96108.04755,1.92449.04763,2.88689q.00318,61.20531-.00061,122.41061a25.71882,25.71882,0,0,1-.07605,3.24522,3.082,3.082,0,0,1-3.29415,2.71276c-1.97891.07518-3.42781-.92378-3.67808-2.69658a23.36689,23.36689,0,0,1-.08311-3.24389Q938.82032,367.83364,938.82309,337.14069Z"/><path class="cls-3" d="M226.41761,30.50428c1.22709,1.18343,2.09957,1.99892,2.94375,2.84273q42.63278,42.61311,85.24108,85.25072c.951.95237,2.395,1.622,2.43165,3.28305-1.19329.84145-2.54642.38589-3.80913.38743q-41.515.0511-83.03007.0234c-4.41477-.00082-4.15907.37153-4.16085-4.02211q-.017-41.86353-.02484-83.72709A10.185,10.185,0,0,1,226.41761,30.50428Z"/><path class="cls-3" d="M25.46879,171.06139c1.12594-.60691,2.16175-1.19335,3.22167-1.73241q30.86607-15.69777,61.7352-31.38947,22.82094-11.6216,45.61556-23.29474c1.06982-.54614,2.15543-1.06316,3.24892-1.56031a.673.673,0,0,1,.91747.71514c-.25295,1.04677-.517,2.09437-.84957,3.11791q-6.5181,20.06019-13.05733,40.11352-6.41222,19.71341-12.80864,39.43192c-1.30424,4.01721-.94025,3.53453-4.65807,2.33214q-25.72744-8.32072-51.42321-16.73953-15.25655-4.96223-30.52895-9.87564A2.035,2.035,0,0,1,25.46879,171.06139Z"/><path class="cls-3" d="M342.10658,409.94562c-2.841.26643-5.51721-.59053-8.22335-.99128-8.679-1.28532-17.33575-2.72118-26.00112-4.099q-12.10841-1.92519-24.21687-3.85026-12.821-2.03672-25.64234-4.07141-14.95569-2.38192-29.91016-4.772c-3.79927-.60341-7.60434-1.17018-11.404-1.77113-.44124-.0698-1.01631.033-1.2158-.5475-.26117-.76.38631-1.06951.829-1.39772,2.51208-1.86266,5.0484-3.6927,7.57938-5.52984q31.10379-22.57666,62.20812-45.15248c.48679-.3533.95157-.73844,1.4504-1.07326.9636-.64663,1.39587-.60655,2.11948.34717,1.45388,1.91624,2.86476,3.86543,4.27872,5.81157q23.22549,31.96679,46.42659,63.95116C341.05639,407.72674,342.1252,408.49053,342.10658,409.94562Z"/><path class="cls-3" d="M421.93792,178.01277c0,.6584.081.92818-.01147,1.1097q-28.73692,56.432-57.50865,112.84633a4.27243,4.27243,0,0,1-.74015.80026c-1.1812-.79139-1.18345-2.113-1.54033-3.19455-3.16474-9.59062-6.272-19.20025-9.3922-28.80552q-8.30221-25.55725-16.58727-51.12c-1.15883-3.58882-1.67332-3.3089,2.4316-4.64479q39.78639-12.948,79.57794-25.87992C419.29764,178.757,420.44765,178.45032,421.93792,178.01277Z"/><path class="cls-3" d="M77.1282,278.60116c.22648.02271.51713-.03691.67917.08065q36.21279,26.26752,72.39984,52.57036a5.00734,5.00734,0,0,1,.75267.97862q-3.89423,5.39295-7.78845,10.78282-21.62982,29.76972-43.271,59.53112c-.63506.87337-1.30305,1.72438-1.98791,2.55934a.61012.61012,0,0,1-1.087-.21836c-.44925-2.48178-.90551-4.96308-1.29912-7.454C93.74469,386.156,91.999,374.87455,90.21005,363.6c-1.8077-11.3928-3.6721-22.77669-5.47252-34.17063-1.594-10.08794-3.12507-20.18585-4.70162-30.27657q-1.50243-9.61673-3.05929-19.225C76.90238,279.46408,76.74573,279.00759,77.1282,278.60116Z"/><path class="cls-4" d="M260.08037,191.99373a5.30436,5.30436,0,0,1-1.65034-2.48414q-14.40144-28.88324-28.79283-57.77151c-2.37605-4.75657-1.914-4.212,2.70834-4.21322q40.78228-.01068,81.56452-.00176c1.08208.00009,2.16457.01241,3.24608.04478a.6539.6539,0,0,1,.55343.99776q-.66018.85169-1.3844,1.65335-26.59661,29.46162-53.20859,58.90923A10.45556,10.45556,0,0,1,260.08037,191.99373Z"/><path class="cls-4" d="M146.19974,114.39027c1.15209.40259,1.39078,1.55884,1.90516,2.44742q10.4798,18.104,20.90805,36.23784,9.27342,16.09332,18.53656,32.19255c.59765,1.0393,1.16962,2.09731,1.67974,3.1813a.70444.70444,0,0,1-.58595,1.0487c-2.84618.4707-5.6934.938-8.54739,1.35805q-23.1891,3.41292-46.38094,6.80729c-3.92406.57831-7.83691,1.23227-11.75955,1.82061a19.61014,19.61014,0,0,1-2.872.21012.60421.60421,0,0,1-.57106-.74453c.2948-1.15955.5842-2.32358.95355-3.46058q7.96332-24.51247,15.94959-49.01748,4.85461-14.90976,9.70942-29.81953A4.33176,4.33176,0,0,1,146.19974,114.39027Z"/><path class="cls-4" d="M153.117,325.96635c-1.56393.00388-2.33469-1.05236-3.26817-1.72681q-15.80148-11.41731-31.561-22.89261-17.38261-12.61915-34.76657-25.2365c-.68178-.495-1.37275-.979-2.03193-1.50271-.44868-.35643-1.16446-.59835-1.10275-1.28418.074-.82213.886-.628,1.41387-.74086q11.81517-2.526,23.63725-5.01956,23.11206-4.89468,46.22517-9.78438,5.99848-1.26687,12.01146-2.465a.86933.86933,0,0,1,1.13082.96289,15.27,15.27,0,0,1-.16847,1.79418q-2.60215,15.475-5.2214,30.94719-2.75939,16.36266-5.51447,32.726C153.66373,323.147,153.38238,324.54253,153.117,325.96635Z"/><path class="cls-4" d="M210.74353,385.68493c.19234-2.44391.2856-4.11833.46162-5.78407q1.34626-12.74027,2.72965-25.4766c.8545-7.89332,1.74061-15.78328,2.58179-23.678s1.6398-15.79422,2.46716-23.69058c.16294-1.55519.4322-3.10111.54715-4.65912.24514-3.3227.10169-3.7555,3.41887-2.02367q29.59157,15.44955,59.202,30.863c.53107.27679,1.04291.5904,1.56737.88893-.20025,1.32055-1.35807,1.65626-2.18305,2.25694q-23.93416,17.42679-47.89736,34.81381-9.64014,7.002-19.28655,13.99553C213.39826,383.88218,212.41458,384.53221,210.74353,385.68493Z"/><path class="cls-4" d="M279.06762,260.08365a4.85009,4.85009,0,0,1,1.57474-1.9129q23.70683-23.28143,47.42729-46.54892.77047-.75583,1.6005-1.4502a.57256.57256,0,0,1,.90481.1853,19.436,19.436,0,0,1,.90106,2.34759q6.533,20.068,13.05083,40.14086,6.13119,18.87245,12.25055,37.74877c.40607,1.25449.73331,2.536,1.0543,3.81578a.65563.65563,0,0,1-.88219.74421,20.50481,20.50481,0,0,1-2.01631-.75951q-36.90727-16.46439-73.80348-32.95361C280.38635,261.10866,279.47766,260.96469,279.06762,260.08365Z"/><path class="cls-5" d="M215.0078,244.24763q-27.05329,37.21923-54.11472,74.42586a5.3519,5.3519,0,0,1-1.09788.78677c.26788-1.87286.46379-3.49181.7346-5.0981,3.31843-19.68514,6.67648-39.36375,9.92254-59.0608a2.616,2.616,0,0,1,2.46468-2.49642c7.05759-1.48966,14.09663-3.06685,21.14566-4.59725q9.69258-2.10438,19.39146-4.17958A1.64216,1.64216,0,0,1,215.0078,244.24763Z"/><path class="cls-5" d="M127.05606,204.0991q12.65939-1.872,25.31838-3.74647c8.91527-1.331,17.82647-2.68927,26.74165-4.02093,4.04176-.60373,8.09724-1.12056,12.12921-1.782a2.68659,2.68659,0,0,1,3.16675,1.60671c4.658,8.13622,9.40763,16.21994,14.12549,24.32192q2.99411,5.14187,5.97924,10.28889a12.98809,12.98809,0,0,1,.78269,1.605.50085.50085,0,0,1-.50591.70818,11.41436,11.41436,0,0,1-2.09262-.51945q-41.809-13.56786-83.61207-27.15407c-.66984-.21775-1.31231-.51972-1.96757-.78245Z"/><path class="cls-5" d="M224.99994,247.90087c18.43511,25.36685,36.56307,50.31108,54.66827,75.224-.6758.69451-1.09483.20209-1.43835.02345q-27.97717-14.54064-55.9307-29.12667c-.42578-.22194-.84883-.45049-1.262-.69478a1.517,1.517,0,0,1-.82625-1.4752c.0782-1.19968.13724-2.40187.26077-3.59719.85238-8.24781,1.72738-16.49323,2.57787-24.74126.35748-3.46689.67835-6.93753,1.00564-10.40746A18.16533,18.16533,0,0,1,224.99994,247.90087Z"/><path class="cls-5" d="M320.18467,210.97366a4.18728,4.18728,0,0,1-1.65956,2.50687q-21.766,21.36681-43.54852,42.71683c-2.63062,2.57949-1.82431,2.167-4.857.84228q-17.83659-7.79148-35.62259-15.6984c-.84108-.373-1.90141-.481-2.51619-1.70458,9.75528-3.34087,19.55024-6.39131,29.29544-9.58781q14.55263-4.77336,29.1356-9.4541C300.219,217.42635,309.99207,214.149,320.18467,210.97366Z"/><path class="cls-5" d="M226.68923,137.953c.5449,1.04369,1.10721,2.07872,1.632,3.13242q13.1832,26.46827,26.34522,52.947c1.89854,3.82948,2.10078,2.80867-.84112,6.11115q-12.72546,14.28486-25.50044,28.52568c-.54645.61078-1.118,1.199-1.63636,1.75336-.957-.294-.7226-.9852-.75184-1.52339-.04563-.83973-.01491-1.68369-.01491-2.52584q-.00027-42.2292.00119-84.45844c.00007-1.29427.01978-2.58856.03033-3.88283Z"/></svg>