<?xml version="1.0" encoding="UTF-8" standalone="no"?>
<!-- Created with Inkscape (http://www.inkscape.org/) -->

<svg
   xmlns:dc="http://purl.org/dc/elements/1.1/"
   xmlns:cc="http://creativecommons.org/ns#"
   xmlns:rdf="http://www.w3.org/1999/02/22-rdf-syntax-ns#"
   xmlns:svg="http://www.w3.org/2000/svg"
   xmlns="http://www.w3.org/2000/svg"
   xmlns:xlink="http://www.w3.org/1999/xlink"
   xmlns:sodipodi="http://sodipodi.sourceforge.net/DTD/sodipodi-0.dtd"
   xmlns:inkscape="http://www.inkscape.org/namespaces/inkscape"
   width="585.83881mm"
   height="140.97304mm"
   viewBox="0 0 585.83881 140.97304"
   version="1.1"
   id="svg14533"
   inkscape:version="0.92.3 (2405546, 2018-03-11)"
   sodipodi:docname="oozie.svg">
  <defs
     id="defs14527">
    <linearGradient
       inkscape:collect="always"
       id="linearGradient15185">
      <stop
         style="stop-color:#96c1f6;stop-opacity:1;"
         offset="0"
         id="stop15181" />
      <stop
         style="stop-color:#4e93d6;stop-opacity:1"
         offset="1"
         id="stop15183" />
    </linearGradient>
    <linearGradient
       inkscape:collect="always"
       xlink:href="#linearGradient15185"
       id="linearGradient15187"
       x1="246.95705"
       y1="233.38985"
       x2="246.95705"
       y2="369.69733"
       gradientUnits="userSpaceOnUse"
       gradientTransform="translate(-2.6726953,51.850288)" />
  </defs>
  <sodipodi:namedview
     id="base"
     pagecolor="#ffffff"
     bordercolor="#666666"
     borderopacity="1.0"
     inkscape:pageopacity="0.0"
     inkscape:pageshadow="2"
     inkscape:zoom="0.49497475"
     inkscape:cx="60.199285"
     inkscape:cy="633.00637"
     inkscape:document-units="mm"
     inkscape:current-layer="layer1"
     showgrid="false"
     fit-margin-top="0"
     fit-margin-left="0"
     fit-margin-right="0"
     fit-margin-bottom="0"
     inkscape:window-width="3726"
     inkscape:window-height="2049"
     inkscape:window-x="114"
     inkscape:window-y="55"
     inkscape:window-maximized="1">
    <inkscape:grid
       type="xygrid"
       id="grid15236"
       originx="135.74618"
       originy="125.14961" />
  </sodipodi:namedview>
  <metadata
     id="metadata14530">
    <rdf:RDF>
      <cc:Work
         rdf:about="">
        <dc:format>image/svg+xml</dc:format>
        <dc:type
           rdf:resource="http://purl.org/dc/dcmitype/StillImage" />
        <dc:title></dc:title>
      </cc:Work>
    </rdf:RDF>
  </metadata>
  <g
     inkscape:label="Layer 1"
     inkscape:groupmode="layer"
     id="layer1"
     transform="translate(135.74618,-281.17657)">
    <path
       style="opacity:1;fill:url(#linearGradient15187);fill-opacity:1;stroke:#136cc3;stroke-width:3;stroke-linecap:round;stroke-linejoin:bevel;stroke-miterlimit:4;stroke-dasharray:none;stroke-opacity:0.78823529"
       d="m 154.5274,282.67657 c -1.9607,0 -3.92156,0.75121 -5.42395,2.25361 l -61.315119,61.31511 c -0.366625,0.36663 -0.687639,0.76109 -0.964798,1.17564 h -6.379456 v -39.10769 c 0,-4.24942 -3.420909,-7.67085 -7.670331,-7.67085 h -86.712537 c -4.249423,0 -7.670849,3.42143 -7.670849,7.67085 v 39.10769 h -10.583333 v -39.10769 c 0,-4.24942 -3.420909,-7.67085 -7.670334,-7.67085 h -86.712543 c -4.24942,0 -7.67033,3.42143 -7.67033,7.67085 v 86.71254 c 0,4.24943 3.42091,7.67033 7.67033,7.67033 h 86.712543 c 4.249425,0 7.670334,-3.4209 7.670334,-7.67033 v -38.01112 h 10.583333 v 38.01112 c 0,4.24943 3.421426,7.67033 7.670849,7.67033 h 86.712537 c 4.249422,0 7.670331,-3.4209 7.670331,-7.67033 v -38.01112 h 7.269324 c 0.02531,0.026 0.04918,0.0528 0.07493,0.0786 l 61.315119,61.31512 c 3.0048,3.00479 7.84312,3.0048 10.84791,0 l 29.48141,-29.4814 h 44.46963 v 6.09885 c 0,4.24942 3.42091,7.67033 7.67034,7.67033 h 86.71305 c 4.24942,0 7.67032,-3.42091 7.67032,-7.67033 v -38.17131 h 10.58333 v 38.17131 c 0,4.24943 3.42093,7.67033 7.67035,7.67033 h 86.71253 c 4.24942,0 7.67033,-3.4209 7.67033,-7.67033 v -86.71254 c 0,-4.24942 -3.42091,-7.67085 -7.67033,-7.67085 h -86.71253 c -4.24942,0 -7.67035,3.42143 -7.67035,7.67085 v 38.94749 h -10.58333 v -38.94749 c 0,-4.24942 -3.4209,-7.67085 -7.67032,-7.67085 h -86.71305 c -4.24943,0 -7.67034,3.42143 -7.67034,7.67085 v 6.3407 h -44.22727 l -29.72377,-29.72376 c -1.5024,-1.50241 -3.46325,-2.25361 -5.42396,-2.25361 z m 44.74146,41.5711 h 34.63354 v 23.01306 h -11.78274 c -0.2512,-0.3558 -0.53429,-0.69655 -0.85318,-1.01544 z m 22.225,32.6068 h 12.40854 v 22.47873 h -34.8759 l 22.23998,-22.23999 c 0.0782,-0.0782 0.15324,-0.15812 0.22738,-0.23874 z"
       id="rect15089-7"
       inkscape:connector-curvature="0" />
    <g
       id="g15226"
       transform="translate(0.26726953,-1.6036081)"
       style="stroke-width:3;stroke-miterlimit:4;stroke-dasharray:none">
      <circle
         r="29.399649"
         cy="352.69391"
         cx="-83.157745"
         id="path15193"
         style="opacity:1;fill:#fff001;fill-opacity:1;stroke:#136cc3;stroke-width:3;stroke-linecap:round;stroke-linejoin:bevel;stroke-miterlimit:4;stroke-dasharray:none;stroke-opacity:0.78823529" />
      <circle
         r="3.2127976"
         cy="352.69391"
         cx="-83.157745"
         id="path15204"
         style="opacity:1;fill:#5397d8;fill-opacity:1;stroke:#136cc3;stroke-width:3;stroke-linecap:round;stroke-linejoin:bevel;stroke-miterlimit:4;stroke-dasharray:none;stroke-opacity:1" />
    </g>
    <g
       id="g15230"
       transform="translate(0.26726953,-2.0362881)"
       style="stroke-width:3;stroke-miterlimit:4;stroke-dasharray:none">
      <circle
         r="29.399649"
         cy="353.12659"
         cx="28.597841"
         id="path15193-2"
         style="opacity:1;fill:#fff001;fill-opacity:1;stroke:#136cc3;stroke-width:3;stroke-linecap:round;stroke-linejoin:bevel;stroke-miterlimit:4;stroke-dasharray:none;stroke-opacity:0.78823529" />
      <circle
         r="3.2127976"
         cy="353.12659"
         cx="28.597841"
         id="path15204-1"
         style="opacity:1;fill:#5397d8;fill-opacity:1;stroke:#136cc3;stroke-width:3;stroke-linecap:round;stroke-linejoin:bevel;stroke-miterlimit:4;stroke-dasharray:none;stroke-opacity:1" />
      <circle
         r="12.203521"
         cy="327.01694"
         cx="283.33823"
         id="path15193-2-6"
         style="opacity:1;fill:#fff001;fill-opacity:1;stroke:#136cc3;stroke-width:2.5;stroke-linecap:round;stroke-linejoin:bevel;stroke-miterlimit:4;stroke-dasharray:none;stroke-opacity:0.78823529" />
      <rect
         style="opacity:1;fill:#fff001;fill-opacity:1;stroke:#2a7bcc;stroke-width:2.69670534;stroke-linecap:round;stroke-linejoin:bevel;stroke-miterlimit:4;stroke-dasharray:none;stroke-opacity:1"
         id="rect15255"
         width="26.501551"
         height="39.752323"
         x="270.08749"
         y="343.66534" />
    </g>
    <path
       style="fill:#fff001;fill-opacity:1;fill-rule:evenodd;stroke:#2a7bcc;stroke-width:3;stroke-linecap:butt;stroke-linejoin:miter;stroke-miterlimit:4;stroke-dasharray:none;stroke-opacity:1"
       d="m 183.57181,381.22974 h -60.20212 l 20.06738,-40.13473 h -20.06738 v -20.06736 h 60.20212 l -25.08421,45.15156 h 25.08421 z"
       id="path15238"
       inkscape:connector-curvature="0" />
    <path
       style="fill:#fff001;fill-opacity:1;fill-rule:evenodd;stroke:#2a7bcc;stroke-width:2.5;stroke-linecap:butt;stroke-linejoin:miter;stroke-miterlimit:4;stroke-dasharray:none;stroke-opacity:1"
       d="m 375.44609,382.05421 h 50.27083 v -15.875 h -23.8125 v -7.9375 h 15.875 v -15.875 h -15.875 v -7.9375 h 23.8125 v -13.22917 h -50.27083 z"
       id="path15259"
       inkscape:connector-curvature="0" />
  </g>
</svg>
