<?xml version="1.0" encoding="UTF-8"?><svg id="Layer_1" xmlns="http://www.w3.org/2000/svg" viewBox="0 0 400 114.63506"><path d="m45.20723,87.17724c-10.52295,0-18.56494-2.86328-24.12549-8.5918-7.45947-7.02539-11.18848-17.14844-11.18848-30.36816,0-13.48633,3.729-23.60889,11.18848-30.36914,5.56055-5.72705,13.60254-8.59131,24.12549-8.59131,10.52197,0,18.56348,2.86426,24.125,8.59131,7.42529,6.76025,11.13867,16.88281,11.13867,30.36914,0,13.21973-3.71338,23.34277-11.13867,30.36816-5.56152,5.72852-13.60303,8.5918-24.125,8.5918Zm14.53516-19.78027c3.5625-4.49512,5.34424-10.88818,5.34424-19.17969,0-8.2583-1.79004-14.64307-5.36914-19.15576-3.58008-4.51172-8.4165-6.76807-14.51025-6.76807s-10.95605,2.24805-14.58545,6.74316c-3.62988,4.49561-5.44434,10.88916-5.44434,19.18066s1.81445,14.68457,5.44434,19.17969c3.62939,4.49609,8.4917,6.74316,14.58545,6.74316s10.93848-2.24707,14.53516-6.74316Z"/><path d="m136.66377,36.52929c4.39551,4.69482,6.59326,11.58789,6.59326,20.67871,0,9.59033-2.15625,16.8999-6.46826,21.92725-4.31299,5.02832-9.86523,7.54199-16.6582,7.54199-4.3291,0-7.92529-1.08203-10.78906-3.24609-1.56543-1.19922-3.09668-2.94727-4.59521-5.24512v28.37109h-14.08545V30.68505h13.63623v8.04199c1.53125-2.36426,3.16309-4.22852,4.89502-5.59473,3.16309-2.43018,6.92529-3.646,11.28809-3.646,6.35986,0,11.75439,2.34766,16.18359,7.04297Zm-8.0918,21.37793c0-4.1958-.95752-7.9082-2.87207-11.13867-1.91504-3.22949-5.02002-4.84521-9.31543-4.84521-5.16211,0-8.70801,2.44775-10.63916,7.34277-.99902,2.59717-1.49854,5.89404-1.49854,9.88965,0,6.32715,1.68115,10.77246,5.04492,13.33594,1.99805,1.49902,4.36182,2.24805,7.09277,2.24805,3.9624,0,6.98438-1.53125,9.06592-4.5957,2.08057-3.0625,3.12158-7.14258,3.12158-12.23682Z"/><path d="m200.14863,69.14501c-.36621,3.23047-2.04834,6.51074-5.04443,9.84082-4.66309,5.29395-11.18945,7.94141-19.58057,7.94141-6.92627,0-13.03662-2.23047-18.33105-6.69336-5.29443-4.46191-7.94189-11.7207-7.94189-21.77734,0-9.42285,2.38867-16.64941,7.16748-21.67773,4.77783-5.02783,10.98047-7.54248,18.60596-7.54248,4.52832,0,8.60742.84912,12.2373,2.54736,3.62988,1.69873,6.62598,4.37939,8.99121,8.04199,2.13135,3.23047,3.51318,6.97656,4.146,11.23877.36621,2.49707.51562,6.09375.4502,10.78857h-37.2627c.19971,5.46191,1.91406,9.29004,5.14453,11.48828,1.96436,1.36523,4.32861,2.04785,7.09229,2.04785,2.93066,0,5.31152-.83203,7.14355-2.49707.99902-.89941,1.88086-2.14844,2.64648-3.74707h14.53564Zm-14.08545-16.68213c-.2334-3.7627-1.37402-6.61816-3.42188-8.56641-2.04785-1.94775-4.58691-2.92188-7.61719-2.92188-3.29639,0-5.85254,1.03223-7.66699,3.09668-1.81543,2.06494-2.95557,4.8623-3.42139,8.3916h22.12744Z"/><path d="m236.06172,41.22411c-4.82812,0-8.1416,2.04785-9.93945,6.14404-.93262,2.16504-1.39844,4.92822-1.39844,8.2915v29.46973h-14.18555V30.78515h13.73633v7.94189c1.83008-2.79736,3.5625-4.81152,5.19434-6.04395,2.92969-2.19775,6.64355-3.29688,11.13867-3.29688,5.62695,0,10.23047,1.47363,13.81055,4.42041,3.5791,2.94727,5.37012,7.83447,5.37012,14.66016v36.6626h-14.58594v-33.11621c0-2.86328-.38281-5.06104-1.14844-6.59326-1.39844-2.79688-4.0625-4.1958-7.99219-4.1958Z"/><path d="m326.26973,24.54149h-36.91211v16.93262h32.31738v12.78662h-32.31738v30.86865h-15.28418V11.60448h52.19629v12.93701Z"/><path d="m336.55977,11.50487h15.38477v60.38818h36.46191v13.23633h-51.84668V11.50487Z"/></svg>