<svg id="Layer_1" data-name="Layer 1" xmlns="http://www.w3.org/2000/svg" xmlns:xlink="http://www.w3.org/1999/xlink" viewBox="0 0 185 52"><defs><style>.cls-1{fill:none;}.cls-2{fill:#04396c;}.cls-3{fill:url(#linear-gradient);}</style><linearGradient id="linear-gradient" x1="6.00001" y1="25.99996" x2="52.99998" y2="25.99996" gradientUnits="userSpaceOnUse"><stop offset="0" stop-color="#86f8ff"/><stop offset="0.97917" stop-color="#1665ff"/></linearGradient></defs><path class="cls-1" d="M103.6311,22.268a2.20329,2.20329,0,0,0-1.824.744,3.61186,3.61186,0,0,0-.696,1.944H105.575a2.97148,2.97148,0,0,0-.408-1.992A1.73274,1.73274,0,0,0,103.6311,22.268Z"/><path class="cls-1" d="M90.88611,22.412a2.12961,2.12961,0,0,0-1.44.456,3.0359,3.0359,0,0,0-.792,1.368v4.992a3.30893,3.30893,0,0,0,.72.43194,3.23164,3.23164,0,0,0,1.056.14405,2.31921,2.31921,0,0,0,2.016-.936,5.62809,5.62809,0,0,0,.672-3.144,4.7148,4.7148,0,0,0-.528-2.448A1.84527,1.84527,0,0,0,90.88611,22.412Z"/><path class="cls-1" d="M78.96,19.58a3.21453,3.21453,0,0,0-1.128-1.224,3.04275,3.04275,0,0,0-1.704-.456,3.08834,3.08834,0,0,0-2.712,1.416,7.873,7.873,0,0,0-.96,4.392,12.00382,12.00382,0,0,0,.216,2.352,6.26516,6.26516,0,0,0,.648,1.824,3.45785,3.45785,0,0,0,1.152,1.2,3.07672,3.07672,0,0,0,1.656.432,3.12,3.12,0,0,0,2.712-1.368,7.91154,7.91154,0,0,0,.96-4.44,11.373,11.373,0,0,0-.216-2.28A6.127,6.127,0,0,0,78.96,19.58Z"/><path class="cls-1" d="M162.389,22.268a2.20345,2.20345,0,0,0-1.824.744,3.61232,3.61232,0,0,0-.696,1.944h4.464a2.9712,2.9712,0,0,0-.408-1.992A1.733,1.733,0,0,0,162.389,22.268Z"/><path class="cls-1" d="M131.129,25.268a3.19757,3.19757,0,0,0-1.12805-.336,10.869,10.869,0,0,0-1.248-.072h-1.752v4.632a1.48519,1.48519,0,0,0,.384.072q.26394.024.552.048.312,0,.624.024h.57605a4.54508,4.54508,0,0,0,1.152-.144,3.2,3.2,0,0,0,1.008-.432,2.45514,2.45514,0,0,0,.696-.768,2.11827,2.11827,0,0,0,.264-1.08,2.18231,2.18231,0,0,0-.312-1.248A2.0262,2.0262,0,0,0,131.129,25.268Z"/><path class="cls-1" d="M128.825,22.34a6.91224,6.91224,0,0,0,.744-.072,4.231,4.231,0,0,0,1.56-.864,1.895,1.895,0,0,0,.672-1.512,2.01034,2.01034,0,0,0-.24006-1.032,1.79726,1.79726,0,0,0-.648-.648,2.565,2.565,0,0,0-.888-.336,5.638,5.638,0,0,0-1.056-.09595q-.624,0-1.152.024a7.30878,7.30878,0,0,0-.816.072v4.488h1.056Q128.393,22.364,128.825,22.34Z"/><path class="cls-2" d="M81.504,17.372a5.923,5.923,0,0,0-2.232-1.776,7.39905,7.39905,0,0,0-3.144-.624,6.40542,6.40542,0,0,0-5.28,2.28A9.9487,9.9487,0,0,0,69,23.708a13.77554,13.77554,0,0,0,.432,3.576,8.00987,8.00987,0,0,0,1.296,2.76A5.92279,5.92279,0,0,0,72.96,31.82a7.46064,7.46064,0,0,0,3.168.624,6.40823,6.40823,0,0,0,5.256-2.256,9.96009,9.96009,0,0,0,1.87195-6.48,13.77522,13.77522,0,0,0-.432-3.576A7.76208,7.76208,0,0,0,81.504,17.372ZM78.84,28.148a3.12,3.12,0,0,1-2.712,1.368,3.07672,3.07672,0,0,1-1.656-.432,3.45785,3.45785,0,0,1-1.152-1.2,6.26516,6.26516,0,0,1-.648-1.824,12.00382,12.00382,0,0,1-.216-2.352,7.873,7.873,0,0,1,.96-4.392A3.08834,3.08834,0,0,1,76.128,17.9a3.04275,3.04275,0,0,1,1.704.456A3.21453,3.21453,0,0,1,78.96,19.58a6.127,6.127,0,0,1,.624,1.848,11.373,11.373,0,0,1,.216,2.28A7.91154,7.91154,0,0,1,78.84,28.148Z"/><path class="cls-2" d="M91.82208,19.772a4.62834,4.62834,0,0,0-2.088.432,4.00876,4.00876,0,0,0-1.46405,1.344h-.09595l-.36-1.44h-2.28V36.908h3.12v-4.92a3.81847,3.81847,0,0,0,.96.336,5.17254,5.17254,0,0,0,1.224.12,5.59648,5.59648,0,0,0,2.328-.456,4.54069,4.54069,0,0,0,1.728-1.32,5.75,5.75,0,0,0,1.08-2.08795,10.03313,10.03313,0,0,0,.36-2.784,7.3888,7.3888,0,0,0-1.128-4.584A4.03461,4.03461,0,0,0,91.82208,19.772Zm.624,9.096a2.31921,2.31921,0,0,1-2.016.936,3.23164,3.23164,0,0,1-1.056-.144,3.30893,3.30893,0,0,1-.72-.43194V24.236a3.0359,3.0359,0,0,1,.792-1.368,2.12961,2.12961,0,0,1,1.44-.456,1.84527,1.84527,0,0,1,1.704.864,4.7148,4.7148,0,0,1,.528,2.448A5.62809,5.62809,0,0,1,92.44611,28.868Z"/><path class="cls-2" d="M106.991,20.804a4.13233,4.13233,0,0,0-1.536-.792,6.60261,6.60261,0,0,0-1.77594-.24005,5.59349,5.59349,0,0,0-4.248,1.58405,6.64556,6.64556,0,0,0-1.512,4.752,7.32685,7.32685,0,0,0,1.344,4.656,5.11554,5.11554,0,0,0,4.248,1.68,8.69217,8.69217,0,0,0,2.6159-.384,6.26262,6.26262,0,0,0,1.968-.984l-1.032-2.04a5.1008,5.1008,0,0,1-1.2.624,4.96573,4.96573,0,0,1-1.7519.288,3.03072,3.03072,0,0,1-2.304-.768,3.55853,3.55853,0,0,1-.768-2.28H108.239a11.34783,11.34783,0,0,0,.168-1.2,8.727,8.727,0,0,0,.072-1.08,5.83466,5.83466,0,0,0-.408-2.328A3.89576,3.89576,0,0,0,106.991,20.804Zm-1.416,4.152h-4.46393a3.61186,3.61186,0,0,1,.696-1.944,2.20329,2.20329,0,0,1,1.824-.744,1.73274,1.73274,0,0,1,1.53589.696A2.97148,2.97148,0,0,1,105.575,24.956Z"/><path class="cls-2" d="M120.187,20.804a2.696,2.696,0,0,0-1.176-.792,4.845,4.845,0,0,0-1.584-.24005,4.34013,4.34013,0,0,0-2.352.57605,5.17148,5.17148,0,0,0-1.464,1.344h-.096l-.36-1.584h-2.472v12h3.12V24.332a2.827,2.827,0,0,1,.864-1.272,2.26248,2.26248,0,0,1,1.512-.528,1.54044,1.54044,0,0,1,1.416.648,3.92949,3.92949,0,0,1,.432,2.112v6.816H121.147V24.644a9.54607,9.54607,0,0,0-.24-2.328A3.603,3.603,0,0,0,120.187,20.804Z"/><path class="cls-2" d="M134.633,24.452a3.50976,3.50976,0,0,0-1.128-.79206,5.63472,5.63472,0,0,0-1.368-.408v-.144a4.23751,4.23751,0,0,0,1.392-.576,3.91249,3.91249,0,0,0,.936-.912,3.3745,3.3745,0,0,0,.504-1.152,4.78285,4.78285,0,0,0,.168-1.248,3.73,3.73,0,0,0-.528-2.064,3.62652,3.62652,0,0,0-1.416-1.272,6.19464,6.19464,0,0,0-1.992-.624,13.28594,13.28594,0,0,0-2.28-.192q-.696,0-1.416.024-.696.024-1.368.072-.672.048-1.272.12-.576.072-1.032.144v16.56a10.66641,10.66641,0,0,0,1.368.216q.768.072,1.488.096.744.048,1.368.048h1.056a10.15286,10.15286,0,0,0,2.424-.288,6.63709,6.63709,0,0,0,2.088-.888,4.55133,4.55133,0,0,0,1.488-1.536,4.44784,4.44784,0,0,0,.55194-2.256,4.57663,4.57663,0,0,0-.288-1.704A3.49144,3.49144,0,0,0,134.633,24.452ZM127.001,17.876a7.30878,7.30878,0,0,1,.816-.072q.528-.024,1.152-.024a5.638,5.638,0,0,1,1.056.09595,2.565,2.565,0,0,1,.888.336,1.79726,1.79726,0,0,1,.648.648,2.01034,2.01034,0,0,1,.24006,1.032,1.895,1.895,0,0,1-.672,1.512,4.231,4.231,0,0,1-1.56.864,6.91224,6.91224,0,0,1-.744.072q-.432.024-.768.024h-1.056Zm4.992,10.416a2.45514,2.45514,0,0,1-.696.768,3.2,3.2,0,0,1-1.008.432,4.54508,4.54508,0,0,1-1.152.144H128.561q-.31191-.024-.624-.024-.288-.024-.552-.048a1.48519,1.48519,0,0,1-.384-.072V24.86h1.752a10.869,10.869,0,0,1,1.248.072,3.19757,3.19757,0,0,1,1.12805.336,2.0262,2.0262,0,0,1,.816.696,2.18231,2.18231,0,0,1,.312,1.248A2.11827,2.11827,0,0,1,131.993,28.292Z"/><path class="cls-2" d="M154.547,29.588a3.005,3.005,0,0,1-.816.096.97626.97626,0,0,1-.96-.528,4.87852,4.87852,0,0,1-.24-1.8V22.748h2.928v-2.64h-2.928V16.964l-3.12.888v2.256H145.02l-1.824,6.72-.31195,1.896h-.144l-.432-1.872L140.1,20.108h-3.744l5.016,12a3.04569,3.04569,0,0,1-.792,1.68005,1.52388,1.52388,0,0,1-1.056.48,1.92685,1.92685,0,0,1-.72-.144l-.576,2.496a4.14938,4.14938,0,0,0,1.992.408,2.311,2.311,0,0,0,1.44-.456,4.11265,4.11265,0,0,0,1.128-1.248,10.50211,10.50211,0,0,0,.912-1.944q.432-1.104.888-2.448l3.167-9.39679V22.748h1.656v6.048a4.1786,4.1786,0,0,0,.768,2.808,3.21839,3.21839,0,0,0,2.448.84,7.19839,7.19839,0,0,0,1.752-.21594,7.92425,7.92425,0,0,0,1.512-.528l-.552-2.4A5.40341,5.40341,0,0,1,154.547,29.588Z"/><path class="cls-2" d="M165.749,20.804a4.13226,4.13226,0,0,0-1.536-.792,6.6037,6.6037,0,0,0-1.776-.24005,5.59347,5.59347,0,0,0-4.248,1.58405,6.64553,6.64553,0,0,0-1.512,4.752,7.32679,7.32679,0,0,0,1.344,4.656,5.11552,5.11552,0,0,0,4.248,1.68,8.69246,8.69246,0,0,0,2.616-.384,6.26262,6.26262,0,0,0,1.968-.984l-1.032-2.04a5.10121,5.10121,0,0,1-1.2.624,4.9666,4.9666,0,0,1-1.752.288,3.0308,3.0308,0,0,1-2.304-.768,3.55915,3.55915,0,0,1-.768-2.28h7.2a11.34783,11.34783,0,0,0,.168-1.2,8.729,8.729,0,0,0,.072-1.08,5.83484,5.83484,0,0,0-.408-2.328A3.89578,3.89578,0,0,0,165.749,20.804Zm-1.416,4.152h-4.464a3.61232,3.61232,0,0,1,.696-1.944,2.20345,2.20345,0,0,1,1.824-.744,1.733,1.733,0,0,1,1.536.696A2.9712,2.9712,0,0,1,164.333,24.956Z"/><path class="cls-2" d="M177.12,26.804a3.44273,3.44273,0,0,0-1.008-1.08,5.46367,5.46367,0,0,0-1.32-.696q-.72-.264-1.32-.48005a5.9033,5.9033,0,0,1-1.008-.504.79858.79858,0,0,1-.408-.696q0-1.08,1.392-1.08a6.17429,6.17429,0,0,1,1.704.24q.84009.24,1.392.456l.696-2.256a7.1524,7.1524,0,0,0-1.728-.648,9.79939,9.79939,0,0,0-2.472-.288,4.454,4.454,0,0,0-3.048.936,3.433,3.433,0,0,0-1.056,2.712,3.47381,3.47381,0,0,0,.40795,1.776,4.02146,4.02146,0,0,0,1.008,1.128,5.46856,5.46856,0,0,0,1.32.696q.72.24,1.32.48a4.9111,4.9111,0,0,1,1.008.528.89565.89565,0,0,1,.408.768.95777.95777,0,0,1-.432.888,2.01313,2.01313,0,0,1-1.104.264A6.17975,6.17975,0,0,1,171,29.66a8.88661,8.88661,0,0,1-1.464-.624l-.864,2.328a7.09266,7.09266,0,0,0,1.8.744,8.36622,8.36622,0,0,0,2.4.336,5.08058,5.08058,0,0,0,3.48-1.032,3.67523,3.67523,0,0,0,1.176-2.88A3.2886,3.2886,0,0,0,177.12,26.804Z"/><path class="cls-3" d="M50.78949,14.21269,30.34277.26006a1.49563,1.49563,0,0,0-1.68554,0L8.21051,14.21269a5.05128,5.05128,0,0,0-2.03229,5.5196V32.26757a5.05121,5.05121,0,0,0,2.03229,5.51959l20.44672,13.9527a1.49563,1.49563,0,0,0,1.68554,0l20.44672-13.9527a5.05848,5.05848,0,0,0,0-8.36115L45.76892,26l5.02057-3.42609A5.05853,5.05853,0,0,0,50.78949,14.21269ZM9.89606,16.67186,28.00708,4.313V15.917L15.87579,24.1953,9.89606,20.11479a2.0682,2.0682,0,0,1-.732-.87451V17.97069h-.1355A2.064,2.064,0,0,1,9.89606,16.67186ZM13.23114,26,9.16406,28.77526V23.2246ZM28.00708,47.68688,9.89606,35.328a2.07755,2.07755,0,0,1-.8675-2.144h.1355v-.42444a2.068,2.068,0,0,1,.732-.87439l5.97973-4.08057L28.00708,36.083ZM29.5,33.49236,18.52039,26,29.5,18.50762,40.47961,26Zm19.604-1.60718a2.08286,2.08286,0,0,1,0,3.44281L30.99292,47.68688V36.083l12.13129-8.27839Zm0-11.77039L43.12421,24.1953,30.99292,15.917V4.313L49.104,16.67186A2.083,2.083,0,0,1,49.104,20.11479Z"/></svg>