<svg id="svg7955" xmlns="http://www.w3.org/2000/svg" viewBox="0 0 650 177"><defs><style>.cls-1{fill:none;}.cls-2{fill:#be2043;}.cls-3{fill:#f59523;}.cls-4{fill:#e56b28;}.cls-5{fill:#832778;}.cls-6{fill:#282662;}.cls-7{fill:#292663;}.cls-8{fill:#2a2663;}.cls-9{fill:#2b2664;}.cls-10{fill:#2c2765;}.cls-11{fill:#2d2766;}.cls-12{fill:#2e2766;}.cls-13{fill:#2f2767;}.cls-14{fill:#302768;}.cls-15{fill:#312768;}.cls-16{fill:#322769;}.cls-17{fill:#33276a;}.cls-18{fill:#34286a;}.cls-19{fill:#35286b;}.cls-20{fill:#36286c;}.cls-21{fill:#37286d;}.cls-22{fill:#38286d;}.cls-23{fill:#39286e;}.cls-24{fill:#3a286f;}.cls-25{fill:#3b286f;}.cls-26{fill:#3c2970;}.cls-27{fill:#3d2971;}.cls-28{fill:#3e2972;}.cls-29{fill:#3f2972;}.cls-30{fill:#402973;}.cls-31{fill:#412974;}.cls-32{fill:#422974;}.cls-33{fill:#432a75;}.cls-34{fill:#442a76;}.cls-35{fill:#452a76;}.cls-36{fill:#462a77;}.cls-37{fill:#482a78;}.cls-38{fill:#492a79;}.cls-39{fill:#4a2a79;}.cls-40{fill:#4b2a7a;}.cls-41{fill:#4c2b7b;}.cls-42{fill:#4d2b7b;}.cls-43{fill:#4e2b7c;}.cls-44{fill:#4f2b7d;}.cls-45{fill:#502b7d;}.cls-46{fill:#512b7e;}.cls-47{fill:#522b7f;}.cls-48{fill:#532c80;}.cls-49{fill:#542c80;}.cls-50{fill:#552c81;}.cls-51{fill:#562c82;}.cls-52{fill:#572c82;}.cls-53{fill:#582c83;}.cls-54{fill:#592c84;}.cls-55{fill:#5a2c85;}.cls-56{fill:#5b2d85;}.cls-57{fill:#5c2d86;}.cls-58{fill:#5d2d87;}.cls-59{fill:#5e2d87;}.cls-60{fill:#5f2d88;}.cls-61{fill:#602d89;}.cls-62{fill:#612d89;}.cls-63{fill:#622d8a;}.cls-64{fill:#632e8b;}.cls-65{fill:#642e8c;}.cls-66{fill:#652e8c;}.cls-67{fill:#662e8d;}.cls-68{fill:#672e8c;}.cls-69{fill:#682e8c;}.cls-70{fill:#692d8b;}.cls-71{fill:#6a2d8a;}.cls-72{fill:#6b2d89;}.cls-73{fill:#6c2d89;}.cls-74{fill:#6d2c88;}.cls-75{fill:#6e2c87;}.cls-76{fill:#6f2c86;}.cls-77{fill:#702c86;}.cls-78{fill:#712b85;}.cls-79{fill:#722b84;}.cls-80{fill:#732b83;}.cls-81{fill:#742b83;}.cls-82{fill:#752a82;}.cls-83{fill:#762a81;}.cls-84{fill:#772a81;}.cls-85{fill:#782a80;}.cls-86{fill:#79297f;}.cls-87{fill:#7a297e;}.cls-88{fill:#7b297e;}.cls-89{fill:#7c297d;}.cls-90{fill:#7d287c;}.cls-91{fill:#7e287b;}.cls-92{fill:#7f287b;}.cls-93{fill:#80287a;}.cls-94{fill:#812779;}.cls-95{fill:#832779;}.cls-96{fill:#842778;}.cls-97{fill:#852777;}.cls-98{fill:#862676;}.cls-99{fill:#872676;}.cls-100{fill:#882675;}.cls-101{fill:#892674;}.cls-102{fill:#8a2573;}.cls-103{fill:#8b2573;}.cls-104{fill:#8c2572;}.cls-105{fill:#8d2571;}.cls-106{fill:#8e2470;}.cls-107{fill:#8f2470;}.cls-108{fill:#90246f;}.cls-109{fill:#91246e;}.cls-110{fill:#92236e;}.cls-111{fill:#f69923;}.cls-112{fill:#f79a23;}.cls-113{fill:#f79923;}.cls-114{fill:#f69823;}.cls-115{fill:#f69723;}.cls-116{fill:#f59623;}.cls-117{fill:#f49424;}.cls-118{fill:#f49324;}.cls-119{fill:#f49224;}.cls-120{fill:#f39124;}.cls-121{fill:#f39024;}.cls-122{fill:#f28f24;}.cls-123{fill:#f28e24;}.cls-124{fill:#f18d24;}.cls-125{fill:#f18c24;}.cls-126{fill:#f18b24;}.cls-127{fill:#f08a24;}.cls-128{fill:#be202e;}.cls-129{fill:#d12e33;}.cls-130{fill:#d12f33;}.cls-131{fill:#d13033;}.cls-132{fill:#d23133;}.cls-133{fill:#d23232;}.cls-134{fill:#d23332;}.cls-135{fill:#d33432;}.cls-136{fill:#d33532;}.cls-137{fill:#d33632;}.cls-138{fill:#d43731;}.cls-139{fill:#d43831;}.cls-140{fill:#d43931;}.cls-141{fill:#d53a31;}.cls-142{fill:#d53b31;}.cls-143{fill:#d53c31;}.cls-144{fill:#d63d30;}.cls-145{fill:#d63e30;}.cls-146{fill:#d63f30;}.cls-147{fill:#d74030;}.cls-148{fill:#d74130;}.cls-149{fill:#d7422f;}.cls-150{fill:#d8432f;}.cls-151{fill:#d8442f;}.cls-152{fill:#d8452f;}.cls-153{fill:#d9462f;}.cls-154{fill:#d9472f;}.cls-155{fill:#d9482e;}.cls-156{fill:#da492e;}.cls-157{fill:#da4a2e;}.cls-158{fill:#da4b2e;}.cls-159{fill:#db4c2e;}.cls-160{fill:#db4e2e;}.cls-161{fill:#db4f2d;}.cls-162{fill:#dc502d;}.cls-163{fill:#dc512d;}.cls-164{fill:#dc522d;}.cls-165{fill:#dd532d;}.cls-166{fill:#dd542c;}.cls-167{fill:#dd552c;}.cls-168{fill:#de562c;}.cls-169{fill:#de572c;}.cls-170{fill:#de582c;}.cls-171{fill:#df592c;}.cls-172{fill:#df5a2b;}.cls-173{fill:#df5b2b;}.cls-174{fill:#e05c2b;}.cls-175{fill:#e05d2b;}.cls-176{fill:#e05e2b;}.cls-177{fill:#e15f2a;}.cls-178{fill:#e1602a;}.cls-179{fill:#e1612a;}.cls-180{fill:#e2622a;}.cls-181{fill:#e2632a;}.cls-182{fill:#e2642a;}.cls-183{fill:#e36529;}.cls-184{fill:#e36629;}.cls-185{fill:#e36729;}.cls-186{fill:#e46829;}.cls-187{fill:#e46929;}.cls-188{fill:#e46a29;}.cls-189{fill:#e56c28;}.cls-190{fill:#e56d28;}.cls-191{fill:#e66e28;}.cls-192{fill:#e66f28;}.cls-193{fill:#e67027;}.cls-194{fill:#e77127;}.cls-195{fill:#e77227;}.cls-196{fill:#e77327;}.cls-197{fill:#e87427;}.cls-198{fill:#e87527;}.cls-199{fill:#e87626;}.cls-200{fill:#e97726;}.cls-201{fill:#e97826;}.cls-202{fill:#a12061;}.cls-203{fill:#a22060;}.cls-204{fill:#a3205f;}.cls-205{fill:#a4205e;}.cls-206{fill:#a5205d;}.cls-207{fill:#a6205c;}.cls-208{fill:#a7205b;}.cls-209{fill:#a8205a;}.cls-210{fill:#a92059;}.cls-211{fill:#aa2058;}.cls-212{fill:#ab2057;}.cls-213{fill:#ac2056;}.cls-214{fill:#ad2055;}.cls-215{fill:#ae2054;}.cls-216{fill:#af2053;}.cls-217{fill:#b02052;}.cls-218{fill:#b12051;}.cls-219{fill:#b22050;}.cls-220{fill:#b3204f;}.cls-221{fill:#b4204e;}.cls-222{fill:#b4204c;}.cls-223{fill:#b5204b;}.cls-224{fill:#b6204a;}.cls-225{fill:#b72049;}.cls-226{fill:#b82048;}.cls-227{fill:#b92047;}.cls-228{fill:#ba2046;}.cls-229{fill:#bb2045;}.cls-230{fill:#bc2044;}.cls-231{fill:#bd2043;}.cls-232{fill:#be2042;}.cls-233{fill:#bf2041;}.cls-234{fill:#c02040;}.cls-235{fill:#c1203f;}.cls-236{fill:#c2203e;}.cls-237{fill:#c3203d;}.cls-238{fill:#c4203c;}.cls-239{fill:#c5203b;}.cls-240{fill:#c6203a;}.cls-241{fill:#c72039;}.cls-242{fill:#c82038;}.cls-243{fill:#c92037;}.cls-244{fill:#ca2136;}.cls-245{fill:#cc2236;}.cls-246{fill:#cd2335;}.cls-247{fill:#cd2435;}.cls-248{fill:#ce2535;}.cls-249{fill:#ce2634;}.cls-250{fill:#ce2734;}.cls-251{fill:#cf2834;}.cls-252{fill:#cf2934;}.cls-253{fill:#cf2a34;}.cls-254{fill:#d02b34;}.cls-255{fill:#d02c33;}.cls-256{fill:#d02d33;}</style></defs><title>opennlp</title><path class="cls-1" d="M200.27911,137.42581a16.19224,16.19224,0,0,0-5.51329-2.86652,26.3312,26.3312,0,0,0-14.43081,0,16.19835,16.19835,0,0,0-5.51452,2.86652,12.66091,12.66091,0,0,0-3.49752,4.5054,14.06906,14.06906,0,0,0-1.22886,5.98716,14.27587,14.27587,0,0,0,1.22886,6.01908,12.56633,12.56633,0,0,0,3.49752,4.5361,16.11286,16.11286,0,0,0,5.51452,2.86651,26.30034,26.30034,0,0,0,14.43081,0,16.10679,16.10679,0,0,0,5.51329-2.86651,12.55283,12.55283,0,0,0,3.49752-4.5361,14.27587,14.27587,0,0,0,1.22886-6.01908,14.06906,14.06906,0,0,0-1.22886-5.98716A12.64711,12.64711,0,0,0,200.27911,137.42581Z"/><path class="cls-1" d="M567.0827,41.0015a22.0466,22.0466,0,0,0-8.64782-5.15728,37.79563,37.79563,0,0,0-12.354-1.7938h-19.7664v51.797h19.76633q14.8248,0,21.33869-7.06325t6.514-19.73218a29.46516,29.46516,0,0,0-1.68462-10.20246A19.98022,19.98022,0,0,0,567.0827,41.0015Z"/><path class="cls-1" d="M53.05841,37.98091l.17524.00652c.04243.00154.0844.00277.12691.00468l-.00476-.00161C53.25567,37.98789,53.15723,37.98429,53.05841,37.98091Z"/><path class="cls-1" d="M187.99052,111.87389v-4.60117a35.49786,35.49786,0,0,0-.4088-5.67043,12.80167,12.80167,0,0,0-1.38723-4.25374,6.8505,6.8505,0,0,0-2.67746-2.67869,8.89421,8.89421,0,0,0-4.34827-.94528,8.02856,8.02856,0,0,0-4.15921.9772,7.37213,7.37213,0,0,0-2.61486,2.64677,11.47518,11.47518,0,0,0-1.3553,3.87563,27.63224,27.63224,0,0,0-.37811,4.66378q0,3.90754.18905,5.98593Z"/><path class="cls-2" d="M85.66775,59.89359c5.78867,3.20251,11.55554,7.056,14.81575,12.59052a20.27455,20.27455,0,0,1,2.74444,12.60462l-.03107.04819c.01-.00752.02072-.01258.03008-.01888l-.00384.03039.03107-.04819a31.56445,31.56445,0,0,1,14.13833-5.0418c8.2605-.88451,16.13967,1.60919,23.15359,4.21446-6.67747-5.70227-15.52862-11.39818-32.56968-6.47607l-2.7749,4.26311,2.73938-4.27907c-2.79187-9.098-7.97393-13.68563-13.761-16.2121l-.00054-.00007a39.85681,39.85681,0,0,0-8.85659-2.53076q.12441.30557.24644.61136C85.60161,59.73078,85.6356,59.81211,85.66775,59.89359Z"/><path class="cls-3" d="M86.51881,127.57238c17.15722,4.25428,31.53769,17.32525,38.981,42.062L152.26553,108.423l.1658-6.13777-26.50909,52.02218C112.68209,132.39083,100.71391,129.499,86.51881,127.57238Z"/><path class="cls-4" d="M125.69,147.61944l25.5856-50.23659-.61013-6.17253-23.01885,41.49647c-13.447-13.74771-35.97835-10.7275-46.43892-8.10129C92.17427,124.01623,113.52194,125.487,125.69,147.61944Z"/><path class="cls-5" d="M21.27918,107.63587,59.77562,61.14839,53.65519,64.5368,6,116.10331c28.9899-7.91523,49.87621-4.70321,63.3236,5.17293C59.80946,112.25606,50.5057,105.32647,21.27918,107.63587Z"/><path class="cls-2" d="M42.21091,94.90334l22.91926-29.63c-.09161-.09905-.18031-.20977-.27138-.3109-.16128-.17931-.32118-.36491-.48085-.55082-.15875-.18483-.31934-.362-.47655-.55351-.15054-.18345-.298-.38225-.44732-.57184s-.29924-.376-.44732-.57185c-.06629-.0877-.13427-.16711-.20033-.25611l-.01289-.018L28.16834,104.23587c28.87358-3.18309,41.73854,11.14237,46.98713,19.21826C72.23708,114.65071,63.28427,97.09405,42.21091,94.90334Z"/><path class="cls-6" d="M99.38446,103.43607a2.34433,2.34433,0,0,0,1.77239,1.34042q-1.60724-3.627-3.19729-7.11781l-.91566.574C98.31527,101.00774,99.127,102.84819,99.38446,103.43607Z"/><path class="cls-6" d="M97.0439,98.23268l.91566-.574-.0359-.07864-.91589.57414Z"/><path class="cls-7" d="M97.00777,98.15418l.91589-.57414-.03591-.07865-.916.5743Z"/><path class="cls-8" d="M96.9717,98.07569l.916-.5743-.03591-.07864-.9162.57437Z"/><path class="cls-9" d="M96.93564,97.99712l.9162-.57437-.03591-.07857-.91643.57445Z"/><path class="cls-10" d="M96.8995,97.91863l.91643-.57445L97.78,97.26546l-.91658.57468Z"/><path class="cls-11" d="M96.86344,97.84014l.91658-.57468-.03591-.07857-.91681.57476Z"/><path class="cls-12" d="M96.8273,97.76165l.91681-.57476-.0359-.07865-.917.57492Z"/><path class="cls-13" d="M96.79124,97.68316l.917-.57492-.03591-.07864-.91712.575Z"/><path class="cls-14" d="M96.75518,97.60459l.91712-.575-.03591-.07865L96.719,97.526Z"/><path class="cls-15" d="M96.719,97.526l.91735-.57507-.03591-.07864-.9175.57522Z"/><path class="cls-16" d="M96.683,97.44753l.9175-.57522-.03591-.07865-.91773.57538Z"/><path class="cls-17" d="M96.64684,97.369l.91773-.57538-.0359-.07864-.91789.57545Z"/><path class="cls-18" d="M96.61078,97.29047l.91789-.57545-.03584-.07857-.91811.57553Z"/><path class="cls-19" d="M96.57472,97.212l.91811-.57553-.0359-.07865-.91827.57569Z"/><path class="cls-20" d="M96.53866,97.13349l.91827-.57569-.03591-.07864-.9185.57583Z"/><path class="cls-21" d="M96.50252,97.055l.9185-.57583-.03591-.07865-.91865.57592Z"/><path class="cls-22" d="M96.46646,96.97643l.91865-.57592-.03591-.07864-.919.57614Z"/><path class="cls-23" d="M96.43017,96.898l.919-.57614-.03591-.07865-.91942.57645Z"/><path class="cls-24" d="M96.39387,96.81967l.91942-.57645-.03591-.07857-.91987.57668Z"/><path class="cls-25" d="M96.35751,96.74133l.91987-.57668-.0359-.07864-.92027.57691Z"/><path class="cls-26" d="M96.32121,96.66292l.92027-.57691-.03591-.07865-.92073.57714Z"/><path class="cls-27" d="M96.28484,96.5845l.92073-.57714-.03591-.07864-.92111.57745Z"/><path class="cls-28" d="M96.24855,96.50617l.92111-.57745-.03591-.07865-.92157.57776Z"/><path class="cls-29" d="M96.21218,96.42783l.92157-.57776-.03591-.07864-.922.57806Z"/><path class="cls-30" d="M96.17589,96.34949l.922-.57806-.0359-.07865-.92242.57829Z"/><path class="cls-31" d="M96.13952,96.27107l.92242-.57829-.03591-.07856-.9228.57852Z"/><path class="cls-32" d="M96.10323,96.19274l.9228-.57852-.03583-.07865-.92326.57883Z"/><path class="cls-33" d="M96.06694,96.1144l.92326-.57883-.036-.07872-.92364.57913Z"/><path class="cls-34" d="M96.03057,96.036l.92364-.57913-.03614-.07842-.92387.57922Z"/><path class="cls-35" d="M95.9942,95.95765l.92387-.57922-.03629-.07833-.92387.57913Z"/><path class="cls-36" d="M95.95791,95.87923l.92387-.57913-.03629-.07842-.924.57921Z"/><path class="cls-37" d="M95.92154,95.80089l.924-.57921-.03629-.07841-.924.57921Z"/><path class="cls-38" d="M95.88525,95.72248l.924-.57921-.03629-.07842-.924.57929Z"/><path class="cls-39" d="M95.84888,95.64414l.924-.57929-.0363-.07834-.924.57929Z"/><path class="cls-40" d="M95.81259,95.5658l.924-.57929-.03629-.07841-.9241.57929Z"/><path class="cls-41" d="M95.77622,95.48739l.9241-.57929-.03629-.07842-.9241.57937Z"/><path class="cls-42" d="M95.73993,95.409l.9241-.57937-.03622-.07841-.9244.57952Z"/><path class="cls-43" d="M95.70341,95.33079l.9244-.57952-.03636-.07842-.92456.57967Z"/><path class="cls-44" d="M95.66689,95.25252l.92456-.57967-.03622-.07834-.92494.57983Z"/><path class="cls-45" d="M95.63029,95.17434l.92494-.57983-.03629-.07841-.92525.58005Z"/><path class="cls-46" d="M95.59369,95.09615l.92525-.58-.03629-.07834-.92548.58021Z"/><path class="cls-47" d="M95.55717,95.018l.92548-.58021-.03629-.07841-.92579.58036Z"/><path class="cls-48" d="M95.52057,94.93971l.92579-.58036-.0363-.07842-.92609.58059Z"/><path class="cls-49" d="M95.484,94.86152l.92609-.58059-.03629-.07841-.9264.58082Z"/><path class="cls-50" d="M95.44737,94.78334l.9264-.58082-.03629-.07842-.92663.581Z"/><path class="cls-51" d="M95.41085,94.70508l.92663-.581-.03629-.07834-.92694.58113Z"/><path class="cls-52" d="M95.37425,94.62689l.92694-.58113-.03629-.07841-.92725.58136Z"/><path class="cls-53" d="M95.33765,94.54871l.92725-.58136-.0363-.07842-.92755.58152Z"/><path class="cls-54" d="M95.30105,94.47045l.92755-.58152-.03629-.07834-.92778.58167Z"/><path class="cls-55" d="M95.26453,94.39226l.92778-.58167-.03629-.07841-.92809.5819Z"/><path class="cls-56" d="M95.22793,94.31408l.92809-.5819-.03629-.07834-.9284.582Z"/><path class="cls-57" d="M95.19133,94.23582l.9284-.582-.03629-.07849-.92871.5822Z"/><path class="cls-58" d="M95.15473,94.15755l.92871-.5822-.0363-.07834-.92893.58236Z"/><path class="cls-59" d="M95.11821,94.07937l.92893-.58236-.03621-.07841-.92932.58258Z"/><path class="cls-60" d="M95.08161,94.00118l.92932-.58258-.03629-.07834L95.045,93.923Z"/><path class="cls-61" d="M95.045,93.923l.92963-.58274-.03637-.07842-.92978.5829Z"/><path class="cls-62" d="M95.00849,93.84474l.92978-.5829-.03622-.07841-.93016.58312Z"/><path class="cls-63" d="M94.97189,93.76655l.93016-.58312-.03629-.07842-.93047.58328Z"/><path class="cls-64" d="M94.93529,93.68829l.93047-.58328-.03629-.07833-.93093.58358Z"/><path class="cls-65" d="M94.89854,93.61026l.93093-.58358-.03629-.07842-.93147.584Z"/><path class="cls-66" d="M94.86171,93.53223l.93147-.584-.03629-.07841-.932.58435Z"/><path class="cls-67" d="M94.82488,93.4542l.932-.58435-.0363-.07842-.93261.58466Z"/><path class="cls-67" d="M94.788,93.37609l.93261-.58466q-.14385-.30925-.28772-.61773l-.93553.5865C94.59424,92.9656,94.69368,93.17545,94.788,93.37609Z"/><path class="cls-68" d="M94.49734,92.7602l.93553-.5865c-.09675-.20724-.193-.41018-.28965-.61658l-.93652.58712C94.30613,92.35424,94.40043,92.55488,94.49734,92.7602Z"/><path class="cls-69" d="M94.2067,92.14424l.93652-.58712c-.09667-.20639-.193-.411-.28964-.6165l-.9386.58842Q94.06264,91.84013,94.2067,92.14424Z"/><path class="cls-70" d="M93.915,91.529l.9386-.58842c-.09652-.20547-.1932-.412-.28957-.61658l-.94174.59034C93.71971,91.11894,93.81968,91.32832,93.915,91.529Z"/><path class="cls-71" d="M93.62227,90.91438,94.564,90.324c-.09644-.20455-.19327-.41286-.28964-.61657l-.94489.59233C93.429,90.50819,93.52482,90.70975,93.62227,90.91438Z"/><path class="cls-72" d="M93.32948,90.2998l.94489-.59233c-.09744-.206-.19466-.41-.29195-.61512l-.94642.59333C93.13566,89.89376,93.2318,90.09524,93.32948,90.2998Z"/><path class="cls-73" d="M93.036,89.68568l.94642-.59333c-.098-.2064-.19534-.4088-.29317-.61428l-.94819.5944C92.83873,89.2758,92.94016,89.48565,93.036,89.68568Z"/><path class="cls-74" d="M92.74106,89.07247l.94819-.5944q-.14674-.30832-.29325-.61435l-.95.59555C92.54556,88.66574,92.64338,88.86915,92.74106,89.07247Z"/><path class="cls-75" d="M92.446,88.45927l.95-.59555c-.09768-.20448-.19566-.4108-.29318-.61428l-.95179.59663C92.25231,88.05561,92.34653,88.25288,92.446,88.45927Z"/><path class="cls-76" d="M92.151,87.84607l.95179-.59663c-.09759-.20348-.1958-.41187-.29325-.61435l-.95571.59916C91.95192,87.4365,92.05458,87.64658,92.151,87.84607Z"/><path class="cls-77" d="M91.85386,87.23425l.95571-.59916c-.09928-.20632-.1978-.40673-.29693-.612l-.95609.5994C91.65591,86.82691,91.756,87.03253,91.85386,87.23425Z"/><path class="cls-78" d="M91.55655,86.62251l.95609-.5994c-.09921-.20539-.19788-.40757-.297-.61189l-.95632.59954C91.36028,86.21777,91.45711,86.41811,91.55655,86.62251Z"/><path class="cls-79" d="M91.25931,86.01076l.95632-.59954q-.14858-.3066-.29709-.6119l-.95755.60023C91.06158,85.60534,91.16017,85.80744,91.25931,86.01076Z"/><path class="cls-80" d="M97.16475,81.46822c-.21223-.12215-.42361-.24039-.63492-.35793l-.22726.14248C96.58561,81.32021,96.86943,81.3885,97.16475,81.46822Z"/><path class="cls-80" d="M90.961,85.39955l.95755-.60023c-.0989-.20325-.19834-.40972-.29708-.6119l-.96016.602C90.76058,84.99183,90.86309,85.19945,90.961,85.39955Z"/><path class="cls-81" d="M96.30257,81.25277l.22726-.14248c-.22895-.12737-.457-.24944-.6844-.36914l-.48829.30614C95.66466,81.10814,95.9787,81.17558,96.30257,81.25277Z"/><path class="cls-81" d="M90.6613,84.78942l.96016-.602c-.09959-.20371-.19919-.40842-.29862-.611l-.96132.60269Q90.51253,84.48619,90.6613,84.78942Z"/><path class="cls-82" d="M90.36152,84.17914l.96132-.60269c-.10067-.20533-.20072-.405-.30131-.60922l-.9597.6017C90.16387,83.77571,90.26086,83.97451,90.36152,84.17914Z"/><path class="cls-82" d="M95.35714,81.04729l.48829-.30614c-.23632-.12437-.47133-.24222-.7055-.35578l-.78055.48937Q94.84277,80.94563,95.35714,81.04729Z"/><path class="cls-83" d="M90.06183,83.56893l.9597-.6017c-.10059-.20409-.20087-.40627-.30131-.60921l-.95985.60177C89.86088,83.16289,89.96262,83.36782,90.06183,83.56893Z"/><path class="cls-83" d="M94.35938,80.87474l.78055-.48937q-.37071-.17965-.73681-.33622l-1.12014.70221C93.62695,80.77768,93.9871,80.82018,94.35938,80.87474Z"/><path class="cls-84" d="M89.76037,82.95979l.95985-.60177c-.10043-.20294-.201-.4075-.3013-.60929l-.96086.60239C89.55858,82.5536,89.66116,82.75923,89.76037,82.95979Z"/><path class="cls-84" d="M93.283,80.75136l1.12014-.70221q-.39512-.16941-.784-.30667l-1.561.97865A11.22256,11.22256,0,0,1,93.283,80.75136Z"/><path class="cls-85" d="M89.45806,82.35112l.96086-.60239c-.10029-.20179-.20126-.40865-.30131-.60921l-.96185.603C89.2575,81.94684,89.35763,82.14871,89.45806,82.35112Z"/><path class="cls-85" d="M92.05811,80.72113l1.561-.97865q-.43377-.15364-.85857-.25988l-2.36527,1.4829A6.85089,6.85089,0,0,1,92.05811,80.72113Z"/><path class="cls-86" d="M89.15576,81.74252l.96185-.603-.041-.083c.10036-.03621.21261-.06061.31872-.091l2.36527-1.4829a6.85754,6.85754,0,0,0-.98579-.18015l-2.9213,1.83139C88.95635,81.34,89.0541,81.53819,89.15576,81.74252Z"/><path class="cls-87" d="M88.85346,81.13384l2.9213-1.83139a5.162,5.162,0,0,0-.82183-.02317,8.91319,8.91319,0,0,0,3.06057-2.17844L88.549,80.52663C88.65,80.72842,88.75356,80.93374,88.85346,81.13384Z"/><path class="cls-88" d="M88.549,80.52663l5.4645-3.42579c.26816-.27092.54307-.56217.83049-.90054a18.06481,18.06481,0,0,1-2.21258.96891l-4.38732,2.75043C88.34552,80.12166,88.44872,80.32621,88.549,80.52663Z"/><path class="cls-89" d="M88.24409,79.91964l4.38732-2.75043a7.58884,7.58884,0,0,1-2.00249.45721l-2.68974,1.68623C88.04176,79.51629,88.14266,79.71754,88.24409,79.91964Z"/><path class="cls-90" d="M87.93918,79.31265l2.68974-1.68623a4.4009,4.4009,0,0,1-.61443.02839c-.00645-.14678.0056-.29662.00491-.44432l-2.38514,1.49525C87.73785,78.91091,87.83667,79.1091,87.93918,79.31265Z"/><path class="cls-91" d="M87.576,78.58988l.05823.11586,2.38514-1.49525c-.00115-.26724-.00806-.53349.00874-.80372l-2.70071,1.69314C87.4103,78.2631,87.494,78.42753,87.576,78.58988Z"/><path class="cls-92" d="M87.32743,78.09991l2.70071-1.69314c.01773-.28358.05839-.57092.09492-.85765l-3.10292,1.94533Z"/><path class="cls-93" d="M86.84006,77.1432c.053.10365.10865.20946.162.31557l.01811.03568,3.10292-1.94533q.056-.44046.13949-.88551l-3.55239,2.22708C86.75229,76.9734,86.79809,77.06064,86.84006,77.1432Z"/><path class="cls-94" d="M86.71016,76.89069l3.55239-2.22708c.05754-.30476.11417-.60944.19-.91727l-4.053,2.54081C86.50124,76.486,86.6095,76.693,86.71016,76.89069Z"/><path class="cls-95" d="M86.39965,76.28715l4.053-2.54081c.079-.32079.17348-.6442.27107-.96806L86.08921,75.6837C86.1918,75.88365,86.29806,76.08828,86.39965,76.28715Z"/><path class="cls-96" d="M86.08921,75.6837l4.63446-2.90542c.10044-.33369.21315-.66945.3317-1.00612l-5.27667,3.308C85.8822,75.28119,85.98671,75.48375,86.08921,75.6837Z"/><path class="cls-97" d="M85.7787,75.08016l5.27667-3.308c.12184-.34612.25036-.69339.38961-1.04242l-5.97672,3.747C85.57253,74.67888,85.67527,74.87906,85.7787,75.08016Z"/><path class="cls-98" d="M85.46826,74.4767l5.97672-3.747c.14318-.35893.29-.71839.4497-1.08l-2.66434,1.67035c-.02578.05079-.06346.102-.08693.15261-.00537-.02939-.01167-.05816-.01773-.087l-3.96786,2.48749C85.263,74.07642,85.36391,74.27453,85.46826,74.4767Z"/><path class="cls-99" d="M84.84731,73.26971c.106.2044.20532.40013.31051.60346l3.96786-2.48749c-.01174-.05547-.02363-.11079-.034-.16711-.03514-.17755-.08708-.35448-.12407-.53195Z"/><path class="cls-99" d="M92.40983,68.5286l-2.27258,1.42474a7.844,7.844,0,0,0-.90691,1.36674l2.66434-1.67035C92.05918,69.27723,92.22983,68.90372,92.40983,68.5286Z"/><path class="cls-100" d="M92.99027,67.36665l-.84193.5278a17.91229,17.91229,0,0,0-2.01109,2.05889l2.27258-1.42474C92.59505,68.14266,92.79085,67.755,92.99027,67.36665Z"/><path class="cls-100" d="M84.53549,72.667c.04259.08149.08525.16358.12783.245.06315.12154.12107.23655.184.3577l4.12031-2.58309c-.04849-.2324-.11079-.464-.16243-.69629Z"/><path class="cls-101" d="M84.22176,72.06564q.15685.30165.31373.60138l4.2697-2.67669c-.05156-.23218-.10772-.46428-.16243-.6963Z"/><path class="cls-101" d="M93.13229,67.08383c.00192-.00675-.41348.308-.98395.81062l.84193-.5278C93.03876,67.2722,93.083,67.17844,93.13229,67.08383Z"/><path class="cls-102" d="M84.42608,71.13939c-.05072.13235-.09652.2667-.14778.39875-.0478.12322-.08969.249-.138.37189a.121.121,0,0,1,.0099.01857l.07151.137,4.421-2.77161c-.0547-.2321-.10465-.46443-.16243-.69638Z"/><path class="cls-103" d="M84.81163,70.09959c-.04066.10941-.08071.21882-.12169.32816-.08885.23693-.1734.47547-.26386.71164l4.05425-2.54174c-.05777-.23194-.10158-.46442-.16235-.69622Z"/><path class="cls-104" d="M85.19719,69.05963c-.03123.08616-.06415.17164-.09553.2578-.09529.26133-.193.52136-.29.78216L88.318,67.90143c-.05962-.22757-.12215-.45506-.18461-.68256Z"/><path class="cls-105" d="M85.58274,68.01982c-.02225.06269-.04711.12461-.06944.18729-.10174.28543-.21276.5674-.31611.85252l2.93618-1.84076c-.06153-.22419-.13711-.4477-.20133-.67182Z"/><path class="cls-106" d="M85.94366,66.99544l-.03982.11456c-.10673.30437-.21292.60545-.3211.90982l2.3493-1.47277c-.0643-.22412-.1345-.44793-.20141-.6719Z"/><path class="cls-107" d="M86.29883,65.97467l-.01573.04527c-.11309.3257-.22519.64941-.33944.9755l1.787-1.12029c-.0669-.224-.13181-.448-.20133-.6719Z"/><path class="cls-108" d="M86.654,64.95389c-.11747.33975-.23693.68-.35517,1.02078l1.23047-.77142c-.06944-.22381-.12944-.44823-.20141-.67189Z"/><path class="cls-109" d="M87.00917,63.93312c-.1144.33031-.23218.66507-.34681.99683l-.00836.02394.67389-.42253c-.05777-.17947-.1022-.35947-.16151-.53886l.00054.00054-.04243-.13228Z"/><path class="cls-110" d="M87.00917,63.93312l.11532-.07236c-.0145-.04557-.02916-.0923-.04327-.13473l-.03967.11386Z"/><path class="cls-111" d="M49.21554,19.40861c.18514-.01035.37059-.01273.55573-.02455-.15575-.18215-.31481-.36223-.47118-.54415Z"/><path class="cls-111" d="M50.14325,19.22324l.02861-.07527.18261-.47992,2.069-5.4381.00162.00153.00069-.00192c-.65963-.62762-1.34081-1.232-2.01831-1.84037l-1.04,6.99734C49.62542,18.666,49.88844,18.941,50.14325,19.22324Z"/><path class="cls-111" d="M45.59326,19.52693c1.20814-.015,2.41567-.05064,3.62228-.11832l.08455-.5687c-1.00842-1.17315-2.02912-2.33894-3.08941-3.467Z"/><path class="cls-111" d="M49.36746,18.38653l1.04-6.99734c-.32187-.289-.63215-.59088-.95893-.87438-.73643-.62126-1.47937-1.24574-2.24189-1.84306l-.96491,6.4921C47.31471,16.20741,48.35221,17.28681,49.36746,18.38653Z"/><path class="cls-112" d="M45.59326,19.52693l.61742-4.154q-1.50722-1.60344-3.14841-3.07023l-1.072,7.2118c.55465.01074,1.10939.023,1.66413.02639.11133.00069.22373.00215.33453.00261C44.52384,19.54519,45.05847,19.5336,45.59326,19.52693Z"/><path class="cls-112" d="M46.24176,15.16385l.96491-6.4921A18.45,18.45,0,0,0,43.919,6.53889l-.85313,5.73956Q44.70177,13.66807,46.24176,15.16385Z"/><path class="cls-112" d="M43.06587,12.27845,43.919,6.53889c-.01412-.00682-.02678-.01611-.041-.02294h-.00046c-.09576-.04327-.19857-.06514-.29763-.09936l-.83049,5.58764C42.85649,12.09377,42.95945,12.18807,43.06587,12.27845Z"/><path class="cls-112" d="M43.06227,12.3027c-.106-.09468-.20724-.19443-.31435-.288L41.63407,19.5089c.11878.0026.23747.0033.35625.0056Z"/><path class="cls-113" d="M42.74792,12.01474c-.08195-.07158-.15791-.14946-.24054-.22036.08233.06806.16013.14126.24207.20985l.83049-5.58764a3.41345,3.41345,0,0,0-.3402-.11355l-1.962,13.20018c.1187.00291.23755.00307.35632.00568Z"/><path class="cls-114" d="M43.23974,6.303a3.38889,3.38889,0,0,0-.35018-.04688l-1.96805,13.241c.1187.00314.23747.00322.35624.00606Z"/><path class="cls-115" d="M42.88956,6.25616a3.34979,3.34979,0,0,0-.351-.04128L40.56619,19.485c.11854.00345.23678.009.35532.0122Z"/><path class="cls-116" d="M42.53861,6.21488a3.28735,3.28735,0,0,0-.36162.02969L40.21086,19.47276c.11847.0036.23686.00882.35533.0122Z"/><path class="cls-3" d="M42.177,6.24457a3.21822,3.21822,0,0,0-.36261.0366L39.85554,19.46048c.11847.00384.23686.00859.35532.01228Z"/><path class="cls-117" d="M41.81438,6.28117a3.15131,3.15131,0,0,0-.375.12092L39.50022,19.44828q.17771.00622.35532.0122Z"/><path class="cls-118" d="M41.43934,6.40209c-.0923.03161-.18844.049-.278.08962-.03507.01657-.06622.03874-.10082.056L39.1449,19.436q.17769.00643.35532.01227Z"/><path class="cls-119" d="M41.06054,6.54772q-.20015.10013-.38931.21629l-1.88166,12.6598c.11839.00452.23694.00782.35533.0122Z"/><path class="cls-120" d="M40.67123,6.764c-.13765.08417-.26847.177-.3976.27254L38.43425,19.41161c.11839.00468.23693.00767.35532.0122Z"/><path class="cls-121" d="M40.27363,7.03655c-.13965.10335-.27561.21092-.40566.32616l-1.789,12.03662c.11831.00483.23693.0076.35532.01228Z"/><path class="cls-122" d="M39.868,7.36271c-.14394.12752-.284.25911-.41647.39937L37.8189,18.74623c.05977.21737.1167.43627.18184.65041l.07819.00269Z"/><path class="cls-123" d="M39.02014,8.26126l-1.4259,9.5934q.10381.44967.22466.89157L39.4515,7.76208Q39.22535,8.00157,39.02014,8.26126Z"/><path class="cls-124" d="M38.56829,8.89856l-1.18059,7.943q.0901.51007.20654,1.0131l1.4259-9.5934C38.85924,8.46574,38.71008,8.67942,38.56829,8.89856Z"/><path class="cls-125" d="M38.08768,9.7292l-.87193,5.86631q.06342.62563.172,1.24605l1.18059-7.943C38.3942,9.16787,38.23445,9.44554,38.08768,9.7292Z"/><path class="cls-126" d="M37.7012,10.54274c-.07811.22626-.13274.45691-.19366.68632L37.14639,13.659a13.99673,13.99673,0,0,0,.06936,1.93651l.87193-5.86631C37.94865,9.99775,37.81706,10.269,37.7012,10.54274Z"/><path class="cls-127" d="M37.14639,13.659l.36115-2.42994A11.06064,11.06064,0,0,0,37.14639,13.659Z"/><path class="cls-1" d="M53.05841,37.98091c.09882.00338.19726.007.29739.00959l-.00307-.00107-.02547-.00875-.0488-.01511-.4322.00621c.0221.00223.044.00123.06606.00368C52.96051,37.97754,53.00984,37.97922,53.05841,37.98091Z"/><path class="cls-1" d="M83.68912,71.05522c-.11126-.21192-.226-.42752-.338-.64036l-.01872-.03553c-.43074-.81729-.85619-1.62907-1.29937-2.45948q-.29934-.56406-.60361-1.1275Q80.089,64.291,78.67724,61.7408q-1.35164-2.43993-2.75389-4.90355-1.40721-2.46292-2.85723-4.92817-1.47649-2.50691-2.998-4.99339-1.50435-2.45856-3.0456-4.87232-.55532-.8703-1.11477-1.7328-.96687-1.49169-1.9451-2.95222c-.03676-.0531-.07305-.10366-.10727-.15706l-.22.60852-.37.00629c.02186.03484.04611.06936.068.1042.13949.2156.2812.42852.42107.64658q.63623.97688,1.2851,1.99474.7008,1.10408,1.42575,2.2603.3654.582.73243,1.17653,1.10465,1.78275,2.24964,3.6885,1.40731,2.34277,2.87825,4.87554,1.40112,2.41494,2.85425,5.00628,1.38039,2.45878,2.80621,5.08232,1.27187,2.34081,2.57733,4.81269c.04013.08026.08264.16021.12507.24l-.00015-.00023q1.29776,2.458,2.63,5.05423c.01971.0376.03966.07765.05969.11778l.415-.0063.346-.96161c-.03644-.06967-.07542-.14226-.11194-.21208C83.91669,71.48466,83.80029,71.26714,83.68912,71.05522Z"/><path class="cls-128" d="M59.77317,52.50909c.19266.01726.38471.03023.58128.04005.19428.01.39047.01365.58873.01856l-.00483-.00153C60.53975,52.5476,60.15082,52.53011,59.77317,52.50909Z"/><path class="cls-128" d="M59.75828,52.50832l.01489.00077-.015-.00108Z"/><path class="cls-128" d="M58.13666,47.71457c-.252-.01036-.49888-.02171-.74463-.03192.19074.01358.38156.02632.575.03062-.19343-.0043-.38425-.017-.575-.03062-.06177-.00253-.12576-.00583-.18714-.00805.24821.02171.50287.03552.76159.04058.05992,0,.12054.00392.18269.00361Z"/><path class="cls-129" d="M64.00083,36.79372l-.29655.18591c.05.07427.101.14493.15092.21936v-.00008h0Z"/><path class="cls-130" d="M64.00083,36.79372l.16956-.4718-.64182.40236c.05831.08632.11747.16887.17571.25535Z"/><path class="cls-131" d="M64.17039,36.32192l.16965-.47179-.98717.61888c.05831.08616.11747.169.1757.25527Z"/><path class="cls-132" d="M64.34,35.85013l.16956-.4718-1.33236.83525c.05839.08594.11731.16926.17563.25543Z"/><path class="cls-133" d="M64.5096,35.37833l.16957-.47179-1.67764,1.05177c.05839.08578.1174.16926.17571.25527Z"/><path class="cls-134" d="M64.67917,34.90654l.16956-.47179-2.0229,1.26814c.05846.08563.11731.16957.1757.25542Z"/><path class="cls-135" d="M64.84873,34.43475l.16965-.47188-2.36826,1.48475c.05847.08547.11732.16964.17571.25527Z"/><path class="cls-136" d="M65.01838,33.96287l.16956-.47171-2.71352,1.701c.05847.08532.11724.17.1757.25543Z"/><path class="cls-137" d="M65.18794,33.49116l.03438-.09568.13519-.37619-3.0588,1.91763q.08793.12763.17571.25527Z"/><path class="cls-138" d="M65.35751,33.01929l.03438-.09561.13519-.37619L62.123,34.68158l.1757.25534Z"/><path class="cls-139" d="M65.52708,32.54749l.03437-.0956.13519-.37619L61.9473,34.42615c.05862.08479.11709.17049.17571.25543Z"/><path class="cls-140" d="M65.69664,32.0757l.03445-.09568.1352-.37619-4.09469,2.567c.05862.08456.117.17057.1757.25535Z"/><path class="cls-141" d="M65.86629,31.60383l.03437-.0956.13519-.37612L61.596,33.91553c.05877.0844.11693.17064.17563.25527Z"/><path class="cls-142" d="M66.03585,31.13211l.03438-.09576.13519-.37611-4.78515,2.99995c.05877.08424.117.17094.1757.25534Z"/><path class="cls-143" d="M66.20542,30.66024l.03437-.0956.1352-.37619-5.13043,3.21639c.05885.08409.11693.1711.17571.25535Z"/><path class="cls-144" d="M66.375,30.18845l.03437-.09561.13527-.37619-5.47577,3.43284c.05885.08394.11693.17133.1757.25535Z"/><path class="cls-145" d="M66.54463,29.71665l.03437-.0956.1352-.37619-5.82105,3.64928c.05893.08371.11686.17149.17571.25535Z"/><path class="cls-146" d="M60.71676,32.63926l.01979.02716v.00008c.05256.0745.10412.153.1566.22764l5.82105-3.64928.03437-.09568.02931-.08164.00338-.01074c-.03852-.0478-.07681-.0933-.11532-.1411l-.00338-.00407Z"/><path class="cls-147" d="M60.53384,32.38844c.06062.08555.1223.165.18292.25082l5.9458-3.72763c-.06629-.08263-.13228-.15852-.19857-.24084Z"/><path class="cls-148" d="M60.35085,32.13762c.06069.08532.1223.16527.183.25082L66.464,28.67079c-.06629-.08241-.13235-.15891-.19872-.241Z"/><path class="cls-149" d="M60.168,31.8868c.06076.08509.12215.1655.18284.25082l5.91442-3.70783c-.06637-.0821-.13236-.15914-.19872-.24093Z"/><path class="cls-150" d="M59.98509,31.636c.06077.08493.12215.16573.18292.25082l5.89854-3.69794c-.06637-.08179-.13228-.15943-.19865-.24092Z"/><path class="cls-151" d="M59.98509,31.636l5.88281-3.688c-.06637-.08148-.13235-.15974-.19872-.24092l-5.867,3.67814C59.863,31.46979,59.92432,31.55112,59.98509,31.636Z"/><path class="cls-152" d="M59.80217,31.38516l5.867-3.67814c-.06637-.08118-.13228-.16-.19865-.24092l-5.85135,3.66824C59.68,31.21873,59.74133,31.30053,59.80217,31.38516Z"/><path class="cls-153" d="M59.61918,31.13434l5.85135-3.66824c-.06629-.08087-.13235-.16036-.19872-.24093l-5.83547,3.65834C59.49726,30.96761,59.55833,31.04994,59.61918,31.13434Z"/><path class="cls-154" d="M59.43634,30.88351l5.83547-3.65834q-.09943-.12072-.19865-.24092l-5.81982,3.64844C59.31427,30.71663,59.37542,30.79935,59.43634,30.88351Z"/><path class="cls-155" d="M59.25334,30.63269l5.81982-3.64844c-.06629-.08026-.13251-.161-.19872-.241l-5.804,3.63862C59.13143,30.46558,59.19242,30.54883,59.25334,30.63269Z"/><path class="cls-156" d="M59.07043,30.38187l5.804-3.63862c-.06629-.07987-.13251-.16128-.19865-.24084l-5.78828,3.62872Q58.979,30.25623,59.07043,30.38187Z"/><path class="cls-157" d="M58.88751,30.13113l5.78828-3.62872c-.06621-.07965-.13258-.16167-.19872-.241l-5.77248,3.61882C58.76567,29.96341,58.82651,30.04773,58.88751,30.13113Z"/><path class="cls-158" d="M58.70459,29.88023l5.77248-3.61882c-.06622-.07934-.13258-.1619-.19872-.24093l-5.75667,3.60893C58.58275,29.71235,58.64352,29.79706,58.70459,29.88023Z"/><path class="cls-159" d="M58.52168,29.62941l5.75667-3.60893c-.06614-.07895-.13259-.1622-.19865-.24092l-5.74094,3.59911C58.39983,29.46138,58.4606,29.54655,58.52168,29.62941Z"/><path class="cls-160" d="M58.33876,29.37867l5.74094-3.59911c-.06606-.07864-.13274-.16258-.19872-.24092l-5.72514,3.58921C58.217,29.21025,58.27761,29.296,58.33876,29.37867Z"/><path class="cls-161" d="M58.15584,29.12785,63.881,25.53864c-.066-.07842-.13274-.16289-.19865-.24092L57.97293,28.877C58.03408,28.9592,58.09469,29.04544,58.15584,29.12785Z"/><path class="cls-162" d="M57.97293,28.877l5.7094-3.57931c-.03284-.03883-.06614-.08118-.0989-.11993-.0343-.04051-.06821-.07887-.10251-.11931L57.79,28.62613C57.85124,28.708,57.9117,28.79493,57.97293,28.877Z"/><path class="cls-163" d="M57.79,28.62613l5.69091-3.56765c-.06828-.08056-.136-.15729-.20417-.23747l-5.66966,3.55438C57.66832,28.457,57.72878,28.54426,57.79,28.62613Z"/><path class="cls-164" d="M57.60709,28.37539,63.27675,24.821c-.06821-.08026-.136-.15767-.20417-.23755l-5.64841,3.54111C57.4854,28.2059,57.54586,28.29375,57.60709,28.37539Z"/><path class="cls-165" d="M57.36947,28.04953c.01834.02432.03637.05071.0547.075l5.64841-3.54111c-.06813-.07987-.136-.158-.20409-.23754l-5.63184,3.53074C57.28085,27.93513,57.32527,27.99091,57.36947,28.04953Z"/><path class="cls-166" d="M57.23665,27.87666l5.63184-3.53074c-.06813-.07949-.136-.15829-.20409-.23747l-5.61726,3.52146C57.11021,27.71308,57.17358,27.79318,57.23665,27.87666Z"/><path class="cls-167" d="M57.04714,27.62991l5.61726-3.52146c-.06806-.07911-.13612-.15875-.20418-.23755L56.8577,27.38323C56.92084,27.4661,56.98407,27.54681,57.04714,27.62991Z"/><path class="cls-168" d="M56.8577,27.38323l5.60252-3.51233c-.068-.0788-.13619-.15913-.20409-.23755l-5.58795,3.5032C56.73133,27.21911,56.79463,27.30037,56.8577,27.38323Z"/><path class="cls-169" d="M56.66818,27.13655l5.58795-3.5032c-.0679-.07841-.13634-.15936-.20417-.23747l-5.57329,3.494Q56.57338,27.01314,56.66818,27.13655Z"/><path class="cls-170" d="M56.28915,26.64312c.06322.08187.12629.16451.18952.24676l5.57329-3.494c-.06775-.078-.13642-.15989-.20409-.23754Z"/><path class="cls-171" d="M56.09964,26.39645c.06322.08156.12629.16473.18951.24667l5.55872-3.48478c-.06936-.07949-.13788-.1566-.20709-.23571Z"/><path class="cls-172" d="M55.9102,26.14977c.06322.08125.12621.165.18944.24668l5.54114-3.47382c-.06982-.07979-.13849-.15552-.20816-.23494Z"/><path class="cls-173" d="M55.72068,25.90309c.0633.081.12622.16542.18952.24668l5.52242-3.46208c-.06974-.07941-.13857-.156-.20816-.235Z"/><path class="cls-174" d="M55.529,25.65779c.064.08149.12775.16359.19166.2453l5.50378-3.45041c-.06959-.079-.1388-.15637-.20824-.23494Z"/><path class="cls-175" d="M55.33421,25.41434c.06483.08225.13.1609.19481.24345l5.4872-3.44q-.10426-.11785-.20816-.235Z"/><path class="cls-176" d="M55.13948,25.171c.06483.08187.12989.16113.19473.24338l5.47385-3.43161c-.06936-.07819-.139-.15714-.20823-.23494Z"/><path class="cls-177" d="M54.94474,24.92758c.06491.08149.12982.16151.19474.24338l5.46035-3.42317c-.06921-.07765-.13911-.15767-.20816-.235Z"/><path class="cls-178" d="M54.74993,24.68421c.06491.08117.1299.16181.19481.24337l5.44693-3.41481c-.06914-.07726-.13926-.158-.20816-.23493Z"/><path class="cls-179" d="M54.5552,24.44083q.09749.1213.19473.24338l5.43358-3.40637c-.05532-.06162-.11187-.12714-.167-.18852l-.042-.04588Z"/><path class="cls-180" d="M54.36039,24.19737c.065.08049.1299.16259.19481.24346l5.41922-3.39739c-.07158-.07942-.141-.1533-.21253-.23226Z"/><path class="cls-181" d="M54.16566,23.954c.065.0801.12982.16289.19473.24337l5.4015-3.38619c-.07143-.07895-.14133-.15376-.21261-.23225Z"/><path class="cls-182" d="M53.97085,23.71062c.06506.07979.12982.1632.19481.24338l5.38362-3.37507c-.07128-.07849-.14148-.1543-.21253-.23225Z"/><path class="cls-183" d="M53.77581,23.46747l.06851.085c.04228.05164.08433.10635.12653.15814l5.3659-3.36394c-.07113-.078-.14164-.15476-.21254-.23225Z"/><path class="cls-184" d="M53.57862,23.22555c.01949.02371.0389.046.05839.06967.0458.058.09238.11509.1388.17225l5.3484-3.353q-.10633-.11637-.21261-.23218Z"/><path class="cls-185" d="M53.37767,22.98609c.06691.0811.134.158.20095.23946l5.333-3.3433c-.07074-.077-.142-.15568-.21253-.23225Z"/><path class="cls-186" d="M53.17672,22.74654c.067.08072.134.15844.20095.23955L58.69907,19.65c-.07051-.07658-.14225-.15614-.21253-.23226Z"/><path class="cls-187" d="M52.97577,22.507c.067.08034.134.1589.201.23954l5.30982-3.3288c-.07036-.07611-.14256-.1566-.21262-.23217Z"/><path class="cls-188" d="M52.7749,22.26746c.067.0798.13389.15929.20087.23954l5.29815-3.32143c-.07127-.07688-.143-.155-.21406-.23133Z"/><path class="cls-4" d="M52.574,22.02792c.06706.07941.134.15959.20094.23954l5.285-3.31322c-.07335-.07872-.14387-.15116-.217-.22942Z"/><path class="cls-189" d="M52.373,21.78845c.067.079.134.16.20095.23947l5.26891-3.3031c-.073-.07818-.14417-.15184-.21706-.22949Z"/><path class="cls-190" d="M52.17214,21.54891c.067.07865.13381.16052.20087.23954l5.2528-3.29312c-.07281-.07757-.1444-.15238-.217-.22941Z"/><path class="cls-191" d="M51.97119,21.30937c.067.07826.134.1609.20095.23954l5.23669-3.283c-.07259-.077-.14463-.153-.217-.22941Z"/><path class="cls-192" d="M51.76648,21.07221c.06821.07926.1365.15752.20471.23716l5.22065-3.27286c-.07235-.07642-.145-.15369-.21706-.22949Z"/><path class="cls-193" d="M51.55932,20.83658c.069.07972.13811.15553.20716.23563l5.2083-3.26519c-.07212-.07589-.14516-.15415-.217-.22942Z"/><path class="cls-194" d="M51.35216,20.601c.06905.07926.1381.15591.20716.23563l5.19848-3.259c-.07174-.07519-.14555-.15476-.217-.22941Z"/><path class="cls-195" d="M51.145,20.36532c.06906.0788.13811.1563.20717.23563l5.18866-3.25276c-.07151-.07458-.14586-.15553-.21706-.22949Z"/><path class="cls-196" d="M50.93783,20.12977q.10358.11763.20716.23555l5.17877-3.24662-.023-.02425c-.06713-.06967-.13135-.13343-.19826-.20256Z"/><path class="cls-197" d="M50.73059,19.89414c.06913.078.13811.15729.20724.23563l5.16472-3.23788c-.07473-.07734-.14724-.14984-.22166-.22649Z"/><path class="cls-198" d="M50.5235,19.65859c.069.07742.138.15767.20709.23555l5.1503-3.22874c-.0745-.07666-.14755-.15062-.22174-.22658Z"/><path class="cls-199" d="M50.31626,19.42289c.06906.077.13811.15821.20724.2357l5.13565-3.21977q-.11118-.11394-.22167-.2265Z"/><path class="cls-200" d="M50.1747,19.14621l-.02992.07864-.00153-.00161-.00077.002c.05793.06429.11586.133.17378.19765l5.12122-3.21057c-.07373-.07527-.14816-.15192-.22166-.2265Z"/><path class="cls-200" d="M50.1747,19.14621l-.00284.00176-.02861.07527.00153.00161Z"/><path class="cls-201" d="M50.35731,18.66628l-.18261.47993,5.04112-3.16039c-.07343-.07457-.14854-.15261-.22167-.22649Z"/><path class="cls-201" d="M50.35731,18.66628l-.00284.00177-.18261.47992.00284-.00176Z"/><path class="cls-201" d="M54.99415,15.75933c-.60829-.615-1.20783-1.21306-1.78827-1.77738-.26417-.25466-.52274-.50487-.78077-.75047q-1.034,2.7174-2.0678,5.4348Z"/><path class="cls-201" d="M50.35447,18.66805l.00284-.00177q1.03386-2.71752,2.0678-5.4348L52.42349,13.23Z"/><path class="cls-202" d="M84.2724,71.54182l-.24484.15346c.03652.06974.07535.14186.11179.21153l-.00031.00085.00131.00245V71.91l-.00016-.0003Z"/><path class="cls-202" d="M84.2724,71.54182l-.13221.36791.00016.0003c.04826-.12291.09015-.24867.138-.37189Z"/><path class="cls-202" d="M84.02756,71.69528l-.00046.0003c.03652.06982.0755.14241.11194.21208l.00031-.00085C84.10291,71.83714,84.06408,71.765,84.02756,71.69528Z"/><path class="cls-203" d="M84.66769,70.44171l-.97834.61336c.11133.21192.22772.42921.33821.64021l.24484-.15346.14194-.39507Z"/><path class="cls-203" d="M84.2724,71.54182l.0059-.00368c.05126-.132.09706-.2664.14778-.39875l-.01174.00736Z"/><path class="cls-203" d="M84.41434,71.14675l.01174-.00736c.09046-.23617.175-.47471.26386-.71164l-.02225.014Z"/><path class="cls-203" d="M83.68912,71.05522c.11117.21192.22757.42944.338.64036l.00046-.0003c-.11049-.211-.22688-.42829-.33821-.64021Z"/><path class="cls-204" d="M83.68935,71.05507l.97834-.61336.11686-.32517.27844-.77486-1.71186,1.0731C83.46323,70.62754,83.57809,70.84322,83.68935,71.05507Z"/><path class="cls-204" d="M84.66769,70.44171l.02225-.014c.041-.10934.081-.21875.12169-.32816l-.02708.01695Z"/><path class="cls-204" d="M84.78455,70.11654l.02708-.01695c.097-.2608.19474-.52083.29-.78216l-.03867.02425Z"/><path class="cls-204" d="M83.35113,70.41478v.00008c.112.21284.22673.42844.338.64036l.00023-.00015C83.57809,70.84322,83.46323,70.62754,83.35113,70.41478Z"/><path class="cls-205" d="M85.063,69.34168l.09177-.25543.30353-.84468-2.44521,1.53285q.15985.30291.31933.60491l.01872.03545Z"/><path class="cls-205" d="M85.063,69.34168l.03867-.02425c.03138-.08616.0643-.17164.09553-.2578l-.04243.02662Z"/><path class="cls-205" d="M85.15476,69.08625l.04243-.02662c.10335-.28512.21437-.56709.31611-.85252l-.055.03446Z"/><path class="cls-205" d="M83.35113,70.41478l-.01872-.03545.01872.03553Z"/><path class="cls-206" d="M85.45829,68.24157l.06667-.18545.32862-.91467-3.17849,1.9926c.11364.21461.22512.4266.338.64037Z"/><path class="cls-206" d="M85.45829,68.24157l.055-.03446c.02233-.06268.04719-.1246.06944-.18729l-.05778.0363Z"/><path class="cls-206" d="M85.525,68.05612l.05778-.0363c.10818-.30437.21437-.60545.3211-.90982l-.05026.03145Z"/><path class="cls-207" d="M85.85358,67.14145l.04159-.11555.35371-.98448-3.91177,2.45235c.11448.21537.22435.42575.338.64028Z"/><path class="cls-207" d="M85.85358,67.14145l.05026-.03145.03982-.11456-.04849.03046Z"/><path class="cls-207" d="M85.89517,67.0259l.04849-.03046c.11425-.32609.22635-.6498.33944-.9755l-.03422.02148Z"/><path class="cls-208" d="M86.24888,66.04142l.01642-.04573.37021-1.03021.00867-.02417-4.64543,2.91225.0346.0646c.10358.19412.20087.3821.30376.57561Z"/><path class="cls-208" d="M86.24888,66.04142l.03422-.02148.01573-.04527-.03353.021Z"/><path class="cls-208" d="M86.2653,65.99569l.03353-.021c.11824-.34082.2377-.681.35517-1.02078l-.01849.01159Z"/><path class="cls-208" d="M86.63551,64.96548l.01849-.01159.00836-.02394-.01818.01136Z"/><path class="cls-209" d="M86.64418,64.94131l.36154-1.00605.03383-.09406-5.38239,3.3743c.11417.21307.22864.42637.34159.63806Z"/><path class="cls-209" d="M86.64418,64.94131l.01818-.01136c.11463-.33176.23241-.66652.34681-.99683l-.00345.00214Z"/><path class="cls-209" d="M87.00917,63.93312l.03238-.09323-.002.00131-.03383.09406Z"/><path class="cls-210" d="M81.314,66.57835c.03767.0699.0778.1418.11532.21169l.00046.00062c.07611.14156.15138.283.22742.42484l5.38239-3.3743.04151-.11563.00016.00046V63.726c-.06983-.20793-.15162-.41532-.22343-.62317Z"/><path class="cls-210" d="M87.03955,63.8412l.002-.00131.03967-.11386-.00016-.00046Z"/><path class="cls-211" d="M80.96784,65.94306c.11363.21038.23325.42545.34612.63529l5.54383-3.47557c-.08011-.2321-.16688-.46382-.24952-.69584Z"/><path class="cls-212" d="M80.62173,65.30783c.11432.21093.23248.42484.34611.63523l5.64043-3.53612c-.08263-.23195-.16435-.464-.24944-.69584Z"/><path class="cls-213" d="M80.62173,65.30783l5.7371-3.59673c-.08509-.23187-.162-.46412-.24951-.69583l-5.83371,3.65726C80.39062,64.884,80.5074,65.09691,80.62173,65.30783Z"/><path class="cls-214" d="M80.27561,64.67253l5.83371-3.65726c-.08632-.22873-.17717-.45707-.26579-.68564l-5.914,3.7076Q80.10293,64.35523,80.27561,64.67253Z"/><path class="cls-215" d="M79.58338,63.40194c.11632.21245.23049.42337.34612.63529l5.914-3.7076c-.05647-.14547-.11839-.29064-.17578-.436-.08678-.048-.17348-.09521-.26026-.14294Z"/><path class="cls-215" d="M85.40749,59.75065c.08678.04773.17348.09491.26026.14294-.03215-.08148-.06614-.16281-.09852-.24429Z"/><path class="cls-216" d="M84.68235,59.353l-5.44508,3.41366c.11693.213.22987.42284.34611.6353l5.82411-3.65129C85.16573,59.61776,84.92388,59.48372,84.68235,59.353Z"/><path class="cls-216" d="M85.32279,59.03794l-.02778-.069-.07987.05C85.25112,59.02543,85.2868,59.03141,85.32279,59.03794Z"/><path class="cls-216" d="M84.68235,59.353c.24153.13074.48338.26478.72514.39767l.16174-.10135q-.12176-.3058-.24644-.61136c-.036-.00653-.07167-.01251-.10765-.019Z"/><path class="cls-217" d="M85.21514,59.019l.07987-.05c-.09253-.22665-.17954-.45376-.2743-.68034l-.86709.54361C84.506,58.89085,84.86028,58.95492,85.21514,59.019Z"/><path class="cls-217" d="M83.94945,58.96021l-5.0583,3.17113c.11755.21345.22918.4223.34612.6353L84.68235,59.353C84.43751,59.22039,84.19367,59.09072,83.94945,58.96021Z"/><path class="cls-217" d="M85.21514,59.019c-.35486-.06406-.70911-.12813-1.06152-.18675l-.20417.128c.24422.13051.48806.26018.7329.39277Z"/><path class="cls-218" d="M78.67708,61.73849c.07289.13221.14141.26088.21407.39285l5.0583-3.17113c-.15161-.081-.30384-.16366-.45514-.244.21767.03468.44049.07957.65931.116l.86709-.54361c-.06291-.15046-.11816-.30131-.18207-.45169-.03161-.07481-.06691-.14977-.09875-.22458L78.542,61.498C78.58616,61.57783,78.633,61.6587,78.67708,61.73849Z"/><path class="cls-218" d="M83.49431,58.71622c.1513.08033.30353.163.45514.244l.20417-.128C83.9348,58.79579,83.712,58.7509,83.49431,58.71622Z"/><path class="cls-219" d="M78.542,61.498l6.19792-3.88561c-.09483-.22266-.19688-.44525-.29378-.66814L78.188,60.86757C78.30442,61.077,78.42618,61.28872,78.542,61.498Z"/><path class="cls-220" d="M78.188,60.86757l6.25816-3.92336q-.14537-.33421-.29372-.66806L77.834,60.23726C77.95109,60.447,78.07148,60.6581,78.188,60.86757Z"/><path class="cls-221" d="M77.834,60.23726l6.31838-3.96111c-.0989-.22282-.193-.44563-.29378-.66814L77.48,59.60694C77.59769,59.81687,77.71684,60.02756,77.834,60.23726Z"/><path class="cls-222" d="M77.48,59.60694,83.85861,55.608c-.04-.08831-.07635-.177-.11663-.26524-.05938-.1263-.132-.26556-.19266-.39315l-6.42335,4.027Q77.30356,59.292,77.48,59.60694Z"/><path class="cls-223" d="M77.126,58.97663l6.42335-4.027c-.10044-.21162-.2156-.43681-.31949-.65188L76.772,58.34624C76.89088,58.5567,77.00766,58.76648,77.126,58.97663Z"/><path class="cls-224" d="M76.772,58.34624l6.45788-4.0485c-.10389-.215-.21215-.43358-.31957-.65194l-6.49233,4.07013C76.5374,57.9267,76.653,58.1357,76.772,58.34624Z"/><path class="cls-225" d="M76.41793,57.71593l6.49233-4.07013c-.10742-.21837-.20847-.43037-.31949-.65195L76.064,57.08562C76.18407,57.29669,76.29839,57.50516,76.41793,57.71593Z"/><path class="cls-226" d="M75.9232,56.835c.0478.08394.09307.16681.14079.25067l6.52678-4.09177c-.1111-.22159-.20463-.42745-.31957-.652l-6.56629,4.11656C75.77657,56.5839,75.85169,56.7095,75.9232,56.835Z"/><path class="cls-227" d="M75.70491,56.45838l6.56629-4.11656-.00943-.01926c-.10313-.202-.222-.41663-.32832-.62126l-6.591,4.13206C75.462,56.04167,75.58591,56.25006,75.70491,56.45838Z"/><path class="cls-228" d="M75.34245,55.83336l6.591-4.13206c-.10957-.21092-.22535-.4266-.33829-.64021l-6.61509,4.14717C75.10015,55.41658,75.22291,55.625,75.34245,55.83336Z"/><path class="cls-229" d="M74.98007,55.20826l6.61509-4.14717c-.113-.2136-.22182-.42384-.33829-.64013l-6.63918,4.16221C74.7383,54.79156,74.85992,54.99987,74.98007,55.20826Z"/><path class="cls-230" d="M74.61769,54.58317,81.25687,50.421c-.11524-.21407-.22251-.42177-.3412-.63844l-6.66036,4.17555Q74.437,54.27066,74.61769,54.58317Z"/><path class="cls-231" d="M74.25531,53.95807l6.66036-4.17555c-.11264-.20563-.23954-.42154-.35533-.62947L73.89285,53.333C74.01454,53.54137,74.13408,53.74976,74.25531,53.95807Z"/><path class="cls-232" d="M73.89285,53.333l6.66749-4.17993c-.11578-.208-.23647-.41939-.35532-.62955l-6.67455,4.18438C73.65269,52.91628,73.77124,53.12459,73.89285,53.333Z"/><path class="cls-233" d="M73.53047,52.70788,80.205,48.5235c-.11892-.21023-.23332-.41708-.35532-.62954l-6.68161,4.18883C73.29077,52.29126,73.40832,52.49949,73.53047,52.70788Z"/><path class="cls-234" d="M73.066,51.9067c.03461.0587.06752.11739.10213.17609L79.8497,47.894c-.10688-.186-.20187-.36369-.3112-.55136-.01466-.02517-.03131-.05164-.046-.07688L72.799,51.462C72.88688,51.61077,72.97826,51.75785,73.066,51.9067Z"/><path class="cls-235" d="M72.799,51.462l6.69351-4.19627c-.11862-.20317-.24959-.41463-.371-.61973l-6.69428,4.19674C72.55005,51.04966,72.6765,51.25483,72.799,51.462Z"/><path class="cls-236" d="M72.42713,50.84273,79.12141,46.646c-.12146-.20516-.24676-.41263-.371-.61964l-6.695,4.19719C72.17885,50.43032,72.30422,50.63572,72.42713,50.84273Z"/><path class="cls-237" d="M72.05539,50.22354l6.695-4.19719c-.12438-.207-.24377-.4108-.371-.61965l-6.69573,4.19766C71.80749,49.81091,71.932,50.01676,72.05539,50.22354Z"/><path class="cls-238" d="M71.68365,49.60436l6.69573-4.19766c-.12514-.20547-.24829-.40918-.37634-.61635l-6.69113,4.19482Q71.49824,49.29465,71.68365,49.60436Z"/><path class="cls-239" d="M71.31191,48.98517,78.003,44.79035c-.12415-.20079-.259-.40788-.38594-.61028l-6.677,4.18591C71.06477,48.57207,71.18761,48.77893,71.31191,48.98517Z"/><path class="cls-240" d="M70.94009,48.366l6.677-4.18591c-.12691-.20249-.25635-.40627-.386-.61029l-6.66274,4.177C70.69341,47.9525,70.81541,48.16,70.94009,48.366Z"/><path class="cls-241" d="M70.56835,47.7468l6.66274-4.177c-.12967-.20409-.25336-.40473-.38594-.61036l-6.64862,4.16811C70.3219,47.33293,70.44328,47.54109,70.56835,47.7468Z"/><path class="cls-242" d="M70.06793,46.91331c.04343.071.08517.14317.1286.21422l6.64862-4.16811c-.07957-.12346-.15108-.24231-.23172-.3663-.0524-.08056-.1055-.16135-.158-.24169l-6.63788,4.16144C69.90013,46.64722,69.98553,46.77881,70.06793,46.91331Z"/><path class="cls-243" d="M69.81757,46.51287l6.63788-4.16144c-.118-.18077-.2357-.36092-.35555-.54376-.01335-.02018-.02755-.03975-.0409-.05992l-6.62414,4.15277C69.56154,46.10568,69.69128,46.3074,69.81757,46.51287Z"/><path class="cls-243" d="M69.43486,45.90052,76.059,41.74775c-.59187-.89364-1.20192-1.77194-1.81021-2.65169l-6.51451,4.084Q68.59,44.53424,69.43486,45.90052Z"/><path class="cls-244" d="M67.02226,42.04107c.24.376.47317.76106.712,1.139l6.51451-4.084c-.26-.376-.51093-.75975-.77364-1.13318-.35548-.50563-.72323-.98985-1.08247-1.48965L66.0133,40.47262Q66.51842,41.254,67.02226,42.04107Z"/><path class="cls-245" d="M64.24957,37.79178c.55489.83249,1.1084,1.66866,1.658,2.51649.03529.05455.07043.1098.10573.16435l6.37938-3.99939c-.62732-.87285-1.25264-1.74884-1.89024-2.60143Z"/><path class="cls-246" d="M65.33142,33.327l-.03782.09783c-.06184.16105-.12453.32171-.18683.48261s-.1243.32187-.18683.48261-.12438.32187-.18683.48261c-.06207.16-.12246.32088-.18422.481-.06131.15868-.11908.31911-.17978.47817s-.11992.31872-.17977.47816-.12084.31826-.17969.47816c-.05049.13742-.10489.27284-.15445.41072.03667.0531.073.10366.10726.15706.09622.14371.191.29164.28711.43581l6.25287-3.92c-.08187-.10957-.16082-.225-.24284-.33422-.56939-.7586-1.14661-1.48175-1.72114-2.2211Z"/><path class="cls-246" d="M64.00083,36.79372l-.14563.40519h0c.04956-.13788.104-.2733.15445-.41072Z"/><path class="cls-246" d="M64.00083,36.79372l.00882-.00553c.05885-.1599.11977-.3188.17969-.47816l-.019.01189Z"/><path class="cls-246" d="M64.17039,36.32192l.019-.01189c.05985-.15944.11908-.31919.17977-.47816l-.02907.01826Z"/><path class="cls-246" d="M64.34,35.85013l.02907-.01826c.0607-.15906.11847-.31949.17978-.47817l-.03929.02463Z"/><path class="cls-246" d="M64.5096,35.37833l.03929-.02463c.06176-.16012.12215-.321.18422-.481l-.05394.03384Z"/><path class="cls-246" d="M64.67917,34.90654l.05394-.03384q.09368-.24111.18683-.48261l-.07121.04466Z"/><path class="cls-246" d="M64.84873,34.43475l.07121-.04466q.0938-.24111.18683-.48261l-.08839.05539Z"/><path class="cls-246" d="M65.01838,33.96287l.08839-.05539c.0623-.1609.125-.32156.18683-.48261l-.10566.06629Z"/><path class="cls-246" d="M65.18794,33.49116l.10566-.06629.03782-.09783-.1091.06844Z"/><path class="cls-246" d="M65.509,32.85026c-.012.03184-.02294.06429-.035.09606-.048.12668-.09414.25427-.14256.38072l3.207-2.01056c-.06369-.08186-.12691-.16434-.19059-.246Z"/><path class="cls-246" d="M65.22232,33.39548l.1091-.06844c.04842-.12645.09453-.254.14256-.38072l-.11647.073Z"/><path class="cls-246" d="M65.35751,33.01929l.11647-.073c.01205-.03177.023-.06422.035-.09606l-.11708.07342Z"/><path class="cls-247" d="M65.68191,32.37639l-.03506.09606c-.04673.12553-.09054.25251-.13788.37781l2.8389-1.77976c-.06361-.08164-.127-.16458-.19067-.246Z"/><path class="cls-247" d="M65.39189,32.92368l.11708-.07342c.04734-.1253.09115-.25228.13788-.37781l-.11977.075Z"/><path class="cls-247" d="M65.52708,32.54749l.11977-.075.03506-.09606-.12046.0755Z"/><path class="cls-248" d="M65.85478,31.90245l-.03507.09606c-.0458.126-.0913.2522-.1378.37788l2.47529-1.55188c-.06376-.08141-.1269-.16481-.19059-.246Z"/><path class="cls-248" d="M65.56145,32.45189l.12046-.0755c.0465-.12568.092-.25189.1378-.37788l-.12307.07719Z"/><path class="cls-248" d="M65.69664,32.0757l.12307-.07719.03507-.09606-.12369.07757Z"/><path class="cls-249" d="M66.02764,31.42858c-.01135.03223-.02363.06392-.035.09607-.04466.12659-.09231.25166-.13788.3778l2.11183-1.32392c-.06376-.08118-.12683-.16512-.19059-.246Z"/><path class="cls-249" d="M65.73109,31.98l.12369-.07757c.04557-.12614.09322-.25121.13788-.3778l-.12637.07918Z"/><path class="cls-249" d="M65.86629,31.60383l.12637-.07918c.01135-.03215.02363-.06384.035-.09607l-.127.07965Z"/><path class="cls-250" d="M66.18862,30.96216c-.01028.03038-.01842.06184-.0287.09215-.04281.12545-.08854.24936-.13228.37427l1.74838-1.096c-.06376-.081-.1269-.16527-.19066-.246Z"/><path class="cls-250" d="M65.90066,31.50823l.127-.07965c.04374-.12491.08947-.24882.13228-.37427l-.12407.0778Z"/><path class="cls-250" d="M66.03585,31.13211l.12407-.0778c.01028-.03031.01842-.06177.0287-.09215l-.11839.07419Z"/><path class="cls-251" d="M66.3298,30.50824c-.0099.03046-.01857.06154-.02862.092-.03929.11977-.0722.24269-.11256.36192l1.39674-.87561c-.06376-.08064-.12691-.16557-.19059-.246Z"/><path class="cls-251" d="M66.07023,31.03635l.11839-.07419c.04036-.11923.07327-.24215.11256-.36192l-.09576.06Z"/><path class="cls-251" d="M66.20542,30.66024l.09576-.06c.01-.03046.01872-.06154.02862-.092l-.09.0564Z"/><path class="cls-252" d="M66.47105,30.05417l-.0287.09208c-.0379.12053-.07358.24207-.11255.362l1.065-.66767c-.06376-.08049-.127-.16581-.19067-.246Z"/><path class="cls-252" d="M66.23979,30.56464l.09-.0564c.039-.11992.07465-.24146.11255-.362l-.06736.0422Z"/><path class="cls-252" d="M66.375,30.18845l.06736-.0422.0287-.09208-.06169.03867Z"/><path class="cls-253" d="M66.61223,29.60018c-.00906.03084-.01941.06115-.02862.092-.03622.1213-.075.2413-.11256.362l.733-.45959c-.06376-.08018-.12683-.166-.19059-.246Z"/><path class="cls-253" d="M66.40936,30.09284l.06169-.03867c.0376-.12069.07634-.24069.11256-.362l-.039.02447Z"/><path class="cls-253" d="M66.54463,29.71665l.039-.02447c.00921-.03085.01956-.06116.02862-.092l-.03323.02087Z"/><path class="cls-254" d="M66.75348,29.14611c-.00859.03107-.01987.061-.02862.09207-.03445.12215-.07672.24046-.11263.362l.40128-.25159-.00322-.00414c-.0643-.07987-.12706-.15982-.19082-.2397Z"/><path class="cls-254" d="M66.61223,29.60018c.03591-.12154.07818-.23985.11263-.362l-.01066.00668-.1352.37619Z"/><path class="cls-254" d="M66.75348,29.14611l-.00491.00307-.03437.09568.01066-.00668C66.73361,29.20711,66.74489,29.17718,66.75348,29.14611Z"/><path class="cls-255" d="M66.81947,29.10475l-.03783-.04757-.00376.01036c-.00729.02655-.017.05195-.0244.07857Z"/><path class="cls-255" d="M66.75348,29.14611c.00744-.02662.01711-.052.0244-.07857l-.02931.08164Z"/><path class="cls-202" d="M82.15228,72.871l.92126.002.30107.00061c-.01933-.03683-.039-.07611-.05854-.11547-.08156-.15913-.16044-.30668-.24184-.465Z"/><path class="cls-203" d="M80.79735,72.86812l.8374.00177.51753.00107.92195-.5779c-.11256-.21891-.222-.4253-.33423-.64275Z"/><path class="cls-204" d="M79.53029,72.81027c.2855.02172.57951.05686.85074.05686l-.00053.00015.41685.00084L82.74,71.65031c-.11217-.21744-.22235-.42675-.33422-.64274Z"/><path class="cls-205" d="M78.38452,72.67623c.3933.06353.77241.10573,1.14577.134l2.87549-1.8027c-.11179-.216-.22274-.42813-.33422-.64274Z"/><path class="cls-206" d="M77.32953,72.48533c.36008.08233.70665.13458,1.055.1909l3.687-2.3114c-.11149-.21453-.22312-.42967-.33422-.64274Z"/><path class="cls-207" d="M76.38333,72.2263c.31665.08931.63576.18806.9462.259l4.40781-2.76324c-.11118-.21315-.22343-.43113-.33423-.64274Z"/><path class="cls-208" d="M75.4577,71.95431c.312.10342.61734.185.92563.272l5.01978-3.14695c-.11079-.21169-.22381-.43259-.3343-.64275Z"/><path class="cls-209" d="M74.59981,71.6398c.28635.10757.573.22.85789.31451l5.61111-3.51771c-.11041-.21015-.22412-.43412-.33422-.64274Z"/><path class="cls-210" d="M73.75681,71.31609c.28159.11778.56126.21791.843.32371l6.13478-3.84594c-.015-.02854-.03061-.05938-.04565-.08785-.04013-.08018-.08256-.16005-.12507-.24-.05593-.10588-.11071-.20762-.16649-.31305Z"/><path class="cls-211" d="M72.9676,70.95854c.263.12069.52481.24691.78921.35755L80.39738,67.153c-.11394-.21537-.22642-.42545-.3399-.63913Z"/><path class="cls-212" d="M72.9676,70.95854l7.08988-4.44471q-.17022-.32064-.3399-.63921l-7.53467,4.72354C72.44225,70.72783,72.70565,70.83831,72.9676,70.95854Z"/><path class="cls-213" d="M72.18291,70.59816l7.53467-4.72354c-.1131-.21208-.22727-.42868-.3399-.63922l-7.92314,4.96715C71.69777,70.33406,71.93616,70.4747,72.18291,70.59816Z"/><path class="cls-214" d="M71.45454,70.20255l7.92314-4.96715c-.11448-.21407-.22827-.42514-.34236-.6376l-8.30915,5.20907C70.96472,69.94613,71.21124,70.071,71.45454,70.20255Z"/><path class="cls-215" d="M70.72617,69.80687l8.30915-5.20907c-.11494-.21414-.229-.4243-.34358-.63691l-8.64667,5.42068C70.27218,69.52413,70.49354,69.67114,70.72617,69.80687Z"/><path class="cls-216" d="M70.04507,69.38157l8.64667-5.42068c-.11463-.21261-.22934-.42591-.34351-.637l-8.97376,5.62585C69.594,69.09791,69.81918,69.23978,70.04507,69.38157Z"/><path class="cls-217" d="M69.37447,68.94975l8.97376-5.62585c-.11417-.211-.22972-.42744-.34351-.63691l-9.2723,5.81307C68.94342,68.65336,69.15619,68.80236,69.37447,68.94975Z"/><path class="cls-218" d="M68.73242,68.50006l9.2723-5.81307-.01818-.03368c-.11064-.2034-.219-.39883-.32924-.60077l-9.53716,5.979C68.32186,68.18947,68.52258,68.3476,68.73242,68.50006Z"/><path class="cls-219" d="M67.58965,67.62568c.168.14064.35579.26908.53049.40588l9.53716-5.979c-.11631-.21315-.23164-.42277-.34749-.6343l-9.79489,6.14053C67.54016,67.5801,67.56433,67.6045,67.58965,67.62568Z"/><path class="cls-220" d="M67.51492,67.55877l9.79489-6.14053c-.11594-.21162-.23226-.42438-.34765-.63438l-10.007,6.2735C67.14164,67.22463,67.32594,67.39926,67.51492,67.55877Z"/><path class="cls-221" d="M66.9552,67.05736l10.007-6.2735c-.11548-.21-.23256-.42607-.34758-.63438L66.39547,66.556C66.57954,66.731,66.76867,66.89,66.9552,67.05736Z"/><path class="cls-222" d="M66.39547,66.556l10.21911-6.40647c-.11777-.21361-.23378-.42031-.3511-.63215l-10.38983,6.5135C66.04767,66.20554,66.21939,66.38846,66.39547,66.556Z"/><path class="cls-223" d="M65.87365,66.03083l10.38983-6.5135c-.11777-.21254-.2344-.42108-.35164-.63185l-10.5564,6.61793C65.52669,65.68464,65.70048,65.85689,65.87365,66.03083Z"/><path class="cls-224" d="M65.85263,64.33946l-.72246.93392c.07412.08026.15077.15123.22527.23l10.5564-6.61793c-.11724-.21085-.23486-.42284-.35164-.63185Z"/><path class="cls-224" d="M64.85879,64.96248c.09107.10113.17977.21185.27138.3109l.72246-.93392Z"/><path class="cls-225" d="M67.13251,62.68477l-1.27988,1.65469,9.70757-6.08583c-.11678-.20908-.23532-.4246-.35164-.63184Z"/><path class="cls-225" d="M67.13251,62.68477l-2.75457,1.72689c.15967.18591.31957.37151.48085.55082l.99384-.623Z"/><path class="cls-226" d="M68.41247,61.03007l-1.28,1.6547,8.07605-5.063-.02823-.0508c-.11-.19626-.2176-.38394-.32717-.57867Z"/><path class="cls-226" d="M68.41247,61.03007l-4.51108,2.82808c.15721.19151.3178.36868.47655.55351l2.75457-1.72689Z"/><path class="cls-227" d="M69.69235,59.37546l-1.27988,1.65461,6.44069-4.03775c-.11915-.21177-.23708-.41931-.3557-.62924Z"/><path class="cls-227" d="M69.69235,59.37546l-6.23828,3.91085c.14931.18959.29678.38839.44732.57184l4.51108-2.82808Z"/><path class="cls-228" d="M70.97231,57.72076l-1.28,1.6547,4.80511-3.01238c-.11862-.21-.23763-.42123-.35571-.62931Z"/><path class="cls-228" d="M70.97231,57.72076l-7.96556,4.9937c.14808.19589.298.38226.44732.57185l6.23828-3.91085Z"/><path class="cls-229" d="M70.76623,56.99769l1.15358-.50187-.9475,1.22494,3.16944-1.987c-.11816-.20816-.23824-.423-.35578-.62924Z"/><path class="cls-229" d="M62.574,62.13349c.07343.101.14578.20746.21952.30683l.766-.92472Z"/><path class="cls-229" d="M63.00675,62.71446l7.96556-4.9937.9475-1.22494-1.15358.50187L63.55957,61.5156l-.766.92472.01289.018C62.87248,62.54735,62.94046,62.62676,63.00675,62.71446Z"/><path class="cls-230" d="M65.02858,59.74237,62.153,61.54514c.13972.19934.28021.39484.421.58835l.98556-.61789Z"/><path class="cls-230" d="M66.32458,58.9299l4.44165-1.93221L73.786,55.10453c-.12077-.212-.23947-.41678-.3597-.62678Z"/><polygon class="cls-230" points="65.029 59.742 63.56 61.516 70.766 56.998 66.325 58.93 65.029 59.742"/><path class="cls-231" d="M65.35068,59.35359l.9739-.42369,7.10169-4.45215c-.12077-.21093-.24008-.4174-.36023-.6264l-11.3226,7.09831q.20406.30154.40957.59548l2.87557-1.80277Z"/><polygon class="cls-231" points="65.351 59.354 65.029 59.742 66.325 58.93 65.351 59.354"/><path class="cls-232" d="M73.066,53.85135c-.12016-.20893-.24077-.41939-.36031-.6264L61.343,60.34843q.19957.30487.40044.60123Z"/><path class="cls-233" d="M72.70573,53.225c-.11962-.20709-.24123-.42123-.36023-.6264l-11.3938,7.1429q.195.30774.3913.607Z"/><path class="cls-234" d="M72.3455,52.59855l-.01949-.03384c-.11617-.20049-.22949-.39123-.34512-.58987L60.57036,59.12832c.12683.20647.25382.41187.38134.61313Z"/><path class="cls-235" d="M71.98089,51.97484c-.1223-.20993-.2433-.41556-.36491-.62349L60.19455,58.51159c.12484.20923.25044.41264.37581.61673Z"/><path class="cls-236" d="M71.616,51.35135c-.12169-.20793-.24377-.41762-.36484-.62356l-11.42058,7.1597c.12115.209.24231.42.364.6241Z"/><path class="cls-237" d="M71.25114,50.72779c-.121-.20593-.24438-.41962-.36484-.62356l-11.41781,7.158c.01051.01857.02079.03959.0313.05816.1098.19412.22059.37712.33077.56709Z"/><path class="cls-238" d="M70.8863,50.10423c-.12445-.21069-.24575-.412-.36951-.62064L59.12529,56.6251c.1147.208.22818.43359.3432.63714Z"/><path class="cls-239" d="M70.51679,49.48359c-.12392-.20885-.24645-.41371-.36967-.62049L58.78209,55.988c.11432.21254.22849.42914.3432.63714Z"/><path class="cls-240" d="M70.14712,48.8631c-.12323-.20678-.24714-.41594-.36968-.62057L58.43889,55.35082c.11409.21714.2288.42469.3432.63714Z"/><path class="cls-241" d="M69.77744,48.24253c-.10918-.18246-.221-.37251-.32961-.55336l-.04067-.06675L58.09569,54.71368c.11386.22174.2291.42008.3432.63714Z"/><path class="cls-242" d="M69.40716,47.62242c-.12767-.21207-.24921-.40673-.376-.6165L60.41722,52.406c.17493.05187.34074.11494.52113.16013l.01971.001.00752.00123-.0224-.0007.00176.00054.02034.00062-.02034-.00062.014.0043.0076.00123c-.2057-.00208-.40949-.00921-.61121-.01926-.05332-.00269-.10465-.0076-.15759-.0109L57.776,54.06189c.1068.21245.21276.44348.31972.65179Z"/><path class="cls-242" d="M60.96558,52.5684l-.00752-.00123-.01971-.001.00483.00153Z"/><path class="cls-243" d="M69.03112,47.00592c-.12683-.20985-.25005-.40911-.376-.61658l-9.1345,5.72652c.28827.11.59257.2.89664.29018Z"/><path class="cls-243" d="M59.75905,52.51338c-.24629-.02133-.471-.07028-.70842-.10289l-1.59415.99945c.10649.21644.21284.43964.31949.65195l2.42181-1.51828C60.05031,52.53441,59.90245,52.525,59.75905,52.51338Z"/><path class="cls-243" d="M56.69665,51.85936c.25251.53878.50655,1.03574.75983,1.55058l1.59415-.99945A10.8967,10.8967,0,0,1,56.69665,51.85936Z"/><path class="cls-243" d="M68.65508,46.38934c-.48813-.8041-.98-1.61886-1.45689-2.38866-.07327-.11778-.14448-.23179-.21691-.34849l-10.634,6.66672a12.19011,12.19011,0,0,0,3.17335,1.79695Z"/><path class="cls-244" d="M66.98128,43.65219c-.17209-.2773-.344-.55489-.51552-.828-.40244-.64474-.7975-1.269-1.19127-1.88841L55.8294,46.857a15.50487,15.50487,0,0,0,2.30726.85758l.01274.00054.00046.00007.00253.00254.00069.00015-.0023-.0023.0023.0023.0043.00107-.00821-.00015h0l.00007.00008.01121.00023-.00507-.00123.00507.00123-.01121-.00023.00246.00245.005.00123c-.06261,0-.12553-.00123-.1909-.00376-.25619-.00575-.51062-.01673-.76159-.04059a11.38571,11.38571,0,0,1-2.0457-.40059l-1.156.72469a15.12339,15.12339,0,0,0,2.34469,2.31661Z"/><path class="cls-244" d="M58.15308,47.71787l.00023.00023-.00023-.00023-.00069-.00015-.00253-.00254-.00046-.00007-.01274-.00054.01251.00422.00821.00015Z"/><path class="cls-245" d="M65.27449,40.93574c-.07757-.122-.15729-.25082-.23455-.37181q-.6528-1.01994-1.285-1.99475c-.073-.11172-.14417-.22121-.21607-.33185L52.86314,44.93007c.15322.14133.30844.27821.46834.4088.279.22834.56617.44318.86671.64382.197.13335.40036.25849.60806.37788.31926.18422.67527.33691,1.02315.49642Z"/><path class="cls-245" d="M52.76884,46.35812c.3874.57767.80218,1.12136,1.2337,1.64418l1.156-.72469A13.28316,13.28316,0,0,1,52.76884,46.35812Z"/><path class="cls-246" d="M63.33384,37.9226h.001c-.0244-.03453-.04589-.06683-.06752-.09929l-.03031.00047-.30023.00514-.59947.01028-.59939.01028-.59939.01028-.59947.01028-.59939.01028-.59939.01028-.59939.01029-.5994.01028-.12567.00215-7.21855,4.52543c.04074.06222.0725.11655.11432.17962.1355.20363.27384.40941.4177.61949.11056.14409.22059.28328.33269.41962a12.27249,12.27249,0,0,0,1.14691,1.22525c.01765.01658.03653.031.05425.04734l10.67571-6.69274C63.47064,38.13245,63.40159,38.02633,63.33384,37.9226Z"/><path class="cls-246" d="M58.01582,37.91332l-.47372.00813-.12568.00215L50.631,42.17749c.05716.08862.10688.17072.16627.26126Z"/><path class="cls-247" d="M57.41642,37.9236l-.47378.00813L56.817,37.934l-6.35223,3.9822c.05494.08678.10918.17264.16627.26133Z"/><path class="cls-248" d="M56.817,37.934l-.47372.00813-.12567.00215-5.919,3.71074c.05287.08486.11118.17448.16619.26118Z"/><path class="cls-249" d="M56.21757,37.94424l-.47372.00813-.12568.00215-5.4859,3.43913c.0508.08294.11333.1764.16627.26133Z"/><path class="cls-250" d="M55.61817,37.95452l-.47378.00813-.12568.00215-5.04587,3.16338c.05347.089.1035.17417.15943.26547Z"/><path class="cls-251" d="M55.01871,37.9648l-.47372.00813-.12567.00215-4.60255,2.88539c.05325.09054.10013.17471.15607.26771Z"/><path class="cls-252" d="M54.41932,37.97508l-.47372.00813-.1256.00215-4.15929,2.60749q.07608.132.15606.26762Z"/><path class="cls-253" d="M53.82,37.98536l-.45629.00783-.00315-.00108c-.04251-.00191-.08448-.00314-.12691-.00468l-3.729,2.3378c.04826.08547.10534.17962.15606.26762Z"/><path class="cls-254" d="M52.84419,37.9717c-.04642-.00268-.099-.01074-.14609-.014l-.02632.01642Z"/><path class="cls-254" d="M53.23365,37.98743l-.17524-.00652-.14693-.00476.00007-.00053c-.02294-.00253-.04542-.00123-.06813-.00376l.00284-.00008-.00207-.00008-.17241.00246-3.32,2.08137c.01626.02947.02754.0534.04412.08325.03245.05831.07511.12691.10872.18645Z"/><path class="cls-254" d="M52.91155,37.97562l-.00007.00053.14693.00476c-.04857-.00169-.0979-.00337-.14609-.00545-.022-.00245-.044-.00145-.06606-.00368l-.00284.00008C52.86613,37.97439,52.88861,37.97309,52.91155,37.97562Z"/><path class="cls-255" d="M52.67178,37.97416l-.59678.00867-2.86851,1.79825c.05025.09338.09168.17732.14532.27445Z"/><path class="cls-255" d="M52.67178,37.97416l.02632-.01642c-.1632-.01112-.33583-.03161-.50571-.04849l-.11739.07358Z"/><path class="cls-256" d="M52.075,37.98283l-.59678.00859-2.417,1.51528c.047.08977.095.181.14525.27438Z"/><path class="cls-256" d="M52.075,37.98283l.11739-.07358c-.17-.017-.33192-.026-.50578-.04849l-.20839.13066Z"/><path class="cls-129" d="M50.88159,38l.59663-.0086.20839-.13066c-.1543-.02-.30791-.051-.4632-.075Z"/><path class="cls-129" d="M51.47822,37.99142,50.88159,38l-1.96567,1.23231c.04366.08639.09837.1846.14532.27437Z"/><path class="cls-130" d="M50.28481,38.00861,50.88159,38l.34182-.2143c-.15453-.024-.30806-.04819-.46167-.07611Z"/><path class="cls-130" d="M50.28481,38.00861l-1.50984.94658c.02709.05478.05264.10765.0808.16351.01749.03521.04212.07787.06015.11363L50.88159,38Z"/><path class="cls-131" d="M49.92588,38.01383l.35893-.00522.47693-.299c-.15184-.02763-.299-.05333-.44793-.08463l-1.674,1.04947c.01366.02877.02125.0491.03522.07841.03169.06537.06644.13458.1.20233l1.50984-.94658Z"/><path class="cls-132" d="M50.31381,37.625c-.14547-.03054-.27975-.06783-.42069-.10174l-1.3814.86594c.04458.09767.07857.18061.12806.28527Z"/><path class="cls-133" d="M49.89312,37.52324c-.141-.03392-.286-.06469-.4207-.10174l-1.08868.68248c.03967.09085.08341.18752.128.2852Z"/><path class="cls-134" d="M49.47242,37.4215c-.13826-.038-.26156-.079-.39146-.12016l-.82527.51745c.03468.08409.08839.19435.12805.28519Z"/><path class="cls-135" d="M49.081,37.30134c-.132-.04189-.25113-.087-.37243-.132l-.56694.35548c.03576.09307.06468.17547.10734.2789l.00676.015Z"/><path class="cls-136" d="M48.70853,37.16937c-.12131-.045-.26387-.08417-.37251-.132L48.0288,37.23c.03085.08746.07451.19527.11279.29486Z"/><path class="cls-137" d="M48.336,37.0374l-.00207-.00077c-.11816-.052-.21729-.10834-.31781-.16419l-.08578.05378c.029.09422.05755.18791.09844.30377Z"/><path class="cls-138" d="M47.89223,36.80845c.00959.03322.02693.08125.03813.11777l.08578-.05378C47.97694,36.85065,47.92875,36.83062,47.89223,36.80845Z"/><path class="cls-130" d="M63.237,37.82378l.02923-.00054c-.03184-.04872-.06222-.09346-.094-.142l-.23394.14663Z"/><polygon class="cls-130" points="62.937 37.829 63.237 37.824 62.938 37.828 62.937 37.829"/><path class="cls-131" d="M62.93831,37.82792l.23394-.14663c-.05777-.08831-.1134-.17064-.17095-.25834l-.65939.41333Z"/><polygon class="cls-131" points="62.342 37.836 62.337 37.839 62.937 37.829 62.938 37.828 62.342 37.836"/><path class="cls-132" d="M61.74559,37.84464l.59632-.00836.65939-.41333c-.05762-.08777-.11363-.1711-.171-.25834Z"/><polygon class="cls-132" points="61.746 37.845 61.738 37.849 62.337 37.839 62.342 37.836 61.746 37.845"/><path class="cls-133" d="M61.14927,37.853l.59632-.00837,1.08469-.68c-.05739-.08716-.11371-.17163-.171-.25834Z"/><polygon class="cls-133" points="61.149 37.853 61.139 37.86 61.738 37.849 61.746 37.845 61.149 37.853"/><path class="cls-134" d="M60.55287,37.86137l.5964-.00836,1.51006-.94674c-.05724-.0867-.114-.17217-.171-.25834Z"/><polygon class="cls-134" points="60.553 37.861 60.539 37.87 61.139 37.86 61.149 37.853 60.553 37.861"/><path class="cls-135" d="M59.95662,37.86973l.59625-.00836,1.93544-1.21344c-.05709-.08616-.11417-.17255-.17095-.25818Z"/><polygon class="cls-135" points="59.957 37.87 59.94 37.88 60.539 37.87 60.553 37.861 59.957 37.87"/><path class="cls-136" d="M59.3603,37.8781l.59632-.00837,2.36074-1.48c-.05686-.08563-.11432-.17325-.17095-.25834Z"/><polygon class="cls-136" points="59.36 37.878 59.34 37.891 59.94 37.88 59.957 37.87 59.36 37.878"/><path class="cls-137" d="M58.7639,37.88646l.5964-.00836,2.78611-1.74669c-.05662-.08509-.11448-.17379-.171-.25834Z"/><polygon class="cls-137" points="58.764 37.886 58.741 37.901 59.34 37.891 59.36 37.878 58.764 37.886"/><path class="cls-138" d="M58.16758,37.89482l.59632-.00836,3.21156-2.01339c-.05639-.08455-.11478-.17432-.171-.25834Z"/><polygon class="cls-138" points="58.168 37.895 58.141 37.911 58.741 37.901 58.764 37.886 58.168 37.895"/><path class="cls-139" d="M57.57126,37.90319l.47133-.0066.125-.00177,3.63686-2.28009c-.05693-.08517-.115-.1731-.17172-.25773Z"/><polygon class="cls-139" points="58.043 37.897 58.016 37.913 58.141 37.911 58.168 37.895 58.043 37.897"/><polygon class="cls-139" points="57.571 37.903 57.542 37.921 58.016 37.913 58.043 37.897 57.571 37.903"/><path class="cls-140" d="M56.97486,37.91155l.47133-.0066.12507-.00176L61.63272,35.357c-.05908-.08793-.11509-.1691-.17394-.25649Z"/><polygon class="cls-140" points="57.446 37.905 57.416 37.924 57.542 37.921 57.571 37.903 57.446 37.905"/><polygon class="cls-140" points="56.975 37.912 56.943 37.932 57.416 37.924 57.446 37.905 56.975 37.912"/><path class="cls-141" d="M56.37862,37.91991l.47125-.00659.125-.00177,4.48392-2.811c-.05877-.0874-.11547-.16957-.174-.25635Z"/><polygon class="cls-141" points="56.85 37.913 56.817 37.934 56.943 37.932 56.975 37.912 56.85 37.913"/><polygon class="cls-141" points="56.379 37.92 56.343 37.942 56.817 37.934 56.85 37.913 56.379 37.92"/><path class="cls-142" d="M55.78229,37.92828l.47126-.0066.12507-.00177,4.90615-3.07575c-.05855-.08685-.11571-.17026-.174-.2565Z"/><polygon class="cls-142" points="56.254 37.922 56.218 37.944 56.343 37.942 56.379 37.92 56.254 37.922"/><polygon class="cls-142" points="55.782 37.928 55.744 37.952 56.218 37.944 56.254 37.922 55.782 37.928"/><path class="cls-143" d="M55.18589,37.93664l.47134-.0066.12506-.00176,5.32846-3.34062c-.05831-.08616-.11593-.17087-.17394-.25642Z"/><polygon class="cls-143" points="55.657 37.93 55.618 37.955 55.744 37.952 55.782 37.928 55.657 37.93"/><polygon class="cls-143" points="55.186 37.937 55.144 37.963 55.618 37.955 55.657 37.93 55.186 37.937"/><path class="cls-144" d="M54.58957,37.945l.47126-.00659.12506-.00177,5.75092-3.6054c-.05808-.08555-.11616-.17141-.17394-.25634Z"/><polygon class="cls-144" points="55.061 37.938 55.019 37.965 55.144 37.963 55.186 37.937 55.061 37.938"/><polygon class="cls-144" points="54.59 37.945 54.545 37.973 55.019 37.965 55.061 37.938 54.59 37.945"/><path class="cls-145" d="M53.99317,37.95337l.47134-.0066.12506-.00177,6.1733-3.8701c-.05777-.085-.11647-.1721-.174-.2565Z"/><polygon class="cls-145" points="54.465 37.947 54.419 37.975 54.545 37.973 54.59 37.945 54.465 37.947"/><polygon class="cls-145" points="53.993 37.953 53.946 37.983 54.419 37.975 54.465 37.947 53.993 37.953"/><polygon class="cls-146" points="53.354 37.989 53.354 37.989 53.355 37.989 53.354 37.989"/><polygon class="cls-146" points="53.358 37.991 53.356 37.991 53.361 37.992 53.363 37.992 53.358 37.991"/><path class="cls-146" d="M53.39685,37.96173l.47141-.0066.12491-.00176,6.59568-4.135c-.05754-.0844-.11662-.17256-.17394-.25635Z"/><polygon class="cls-146" points="53.355 37.989 53.354 37.989 53.353 37.989 53.356 37.991 53.358 37.991 53.355 37.989"/><polygon class="cls-146" points="53.868 37.955 53.82 37.985 53.946 37.983 53.993 37.953 53.868 37.955"/><polygon class="cls-146" points="53.397 37.962 53.354 37.989 53.355 37.989 53.359 37.991 53.358 37.991 53.363 37.992 53.361 37.992 53.364 37.993 53.82 37.985 53.868 37.955 53.397 37.962"/><polygon class="cls-146" points="53.359 37.991 53.355 37.989 53.358 37.991 53.359 37.991"/><path class="cls-147" d="M53.35373,37.98874a.54245.54245,0,0,0-.06759-.02548l.11071-.00153,7.01806-4.39968c-.05723-.08378-.117-.17332-.174-.2565l-7.26505,4.55459c.11908.04.22734.081.35141.12054l.02632.00813Z"/><path class="cls-147" d="M53.35358,37.98881l-.02632-.00813.02547.00875Z"/><path class="cls-147" d="M53.28614,37.96326a.54245.54245,0,0,1,.06759.02548l.04312-.027Z"/><path class="cls-148" d="M60.2409,33.30555c-.03269-.04764-.06714-.09943-.09967-.14685-.02578-.0376-.04987-.07128-.07558-.10872l-7.46668,4.681c.12222.04335.24921.08631.37688.1292Z"/><path class="cls-149" d="M60.06565,33.05c-.06023-.0877-.117-.16742-.177-.25451L52.22638,37.599c.11839.0445.24883.088.37259.1319Z"/><path class="cls-150" d="M59.88864,32.79547c-.05992-.087-.11739-.16818-.17708-.25458l-7.84,4.91513c.119.0475.23018.09622.35478.143Z"/><path class="cls-151" d="M59.71156,32.54089c-.05962-.08631-.11755-.1688-.17693-.2545l-8.0179,5.02654c.11364.04834.23594.09552.35487.14309Z"/><path class="cls-152" d="M59.53463,32.28639c-.05939-.0857-.118-.16941-.17709-.2545l-8.18278,5.13c.11141.05072.22527.10136.342.15108Z"/><path class="cls-153" d="M59.35754,32.03189c-.05908-.085-.11808-.17011-.17693-.25451L50.844,37.00372c.1088.05294.21676.10626.33077.15813Z"/><path class="cls-154" d="M59.18061,31.77738c-.05878-.0844-.11855-.17079-.17709-.25458L50.5133,36.84551c.104.05424.22189.10519.33069.15821Z"/><path class="cls-155" d="M59.00352,31.5228c-.05854-.08371-.1187-.17133-.17693-.25442l-8.6192,5.40342c.10289.05754.19819.11754.30591.17371Z"/><path class="cls-156" d="M58.82659,31.26838c-.05831-.0831-.11908-.1721-.17709-.25458l-8.74794,5.48429c.09828.059.203.11608.30583.17371Z"/><path class="cls-157" d="M58.6495,31.0138c-.058-.08248-.11923-.17272-.17693-.25451l-8.86288,5.55626c.09529.06138.19235.12277.29187.18254Z"/><path class="cls-158" d="M58.47257,30.75929c-.06123-.08677-.11939-.16649-.18023-.2525l-8.96386,5.61955c.09223.06376.18514.12729.28121.18921Z"/><path class="cls-159" d="M58.29234,30.50679c-.06131-.08663-.11954-.16643-.18062-.25228l-9.0603,5.68c.08885.06568.18476.128.27706.19181Z"/><path class="cls-160" d="M58.11172,30.25451c-.06092-.08594-.12-.16711-.18061-.25228l-9.13772,5.72866c.086.06783.1691.13788.258.20364Z"/><path class="cls-161" d="M57.93111,30.00223c-.06069-.08517-.12023-.1678-.18062-.25228l-9.21521,5.77723c.08332.07.17217.13589.25811.20371Z"/><path class="cls-162" d="M57.75049,29.75q-.09045-.12672-.18053-.2522l-9.27668,5.81567c.08018.07144.15967.14463.242.21376Z"/><path class="cls-163" d="M57.57,29.49775c-.06008-.08386-.12085-.16926-.18062-.25236l-9.334,5.85166c.07826.07351.158.14525.23793.21637Z"/><path class="cls-164" d="M57.38934,29.24539c-.05977-.08309-.12115-.16987-.18062-.2522l-9.385,5.88358c.076.075.15438.1477.23164.22028Z"/><path class="cls-165" d="M57.20872,28.99319c-.05946-.0824-.12145-.17056-.18061-.25228L47.60236,34.65c.07358.07581.14693.1533.22135.22673Z"/><path class="cls-166" d="M57.02811,28.74091c-.05916-.08163-.12177-.17125-.18062-.25227l-9.46657,5.93475c.07312.07834.14778.15077.22144.22665Z"/><path class="cls-167" d="M56.84749,28.48864l-.0089-.01243c-.06007-.08295-.11539-.15545-.17516-.23763l-9.48921,5.94887c.05977.06745.12061.14218.18008.20863l.02662.02731Z"/><path class="cls-168" d="M56.66343,28.23858c-.06284-.08647-.12185-.16435-.18438-.25l-9.50954,5.96168c.06814.07788.13681.16059.20471.23716Z"/><path class="cls-169" d="M56.47905,27.98861c-.06245-.08563-.12207-.1652-.18422-.25l-9.52995,5.9745c.06829.0791.1365.15921.20463.23716Z"/><path class="cls-170" d="M56.29483,27.73863c-.06215-.08486-.12253-.166-.1843-.25L46.56017,33.476c.06844.08025.13642.15805.20471.23716Z"/><path class="cls-171" d="M56.11053,27.48865c-.06176-.084-.12292-.16672-.1843-.2499l-9.57076,6c.06851.08141.13626.15683.2047.23717Z"/><path class="cls-172" d="M55.92623,27.23875c-.06138-.08317-.1233-.16757-.18429-.25l-9.5898,6.012.02271.02877c.06046.07266.12023.13742.18062.20923Z"/><path class="cls-173" d="M55.74194,26.98878c-.061-.08241-.12369-.16842-.1843-.25l-9.59832,6.01731c.06476.07895.12806.16673.19282.24469Z"/><path class="cls-174" d="M55.55764,26.7388c-.06069-.08164-.12407-.16911-.1843-.25l-9.60675,6.02276c.0646.07972.12805.16566.19273.24453Z"/><path class="cls-175" d="M55.37334,26.48882c-.06031-.08079-.12445-.16987-.1843-.2499l-9.61535,6.028c.06461.08057.12822.16489.1929.24468Z"/><path class="cls-176" d="M55.189,26.23892c-.06161-.08232-.12445-.16749-.18568-.24905L45.381,32.0223c.06452.08125.12813.164.19273.2446Z"/><path class="cls-177" d="M55.00336,25.98987c-.06476-.08617-.12422-.16212-.18852-.24737l-9.62677,6.03519c.06429.0821.12844.16328.19289.24461Z"/><path class="cls-178" d="M54.81484,25.7425c-.06429-.08524-.1246-.163-.18844-.24729l-9.63107,6.03788c.06414.08263.12844.16266.19274.2446Z"/><path class="cls-179" d="M54.6264,25.49521c-.06383-.08432-.12522-.164-.18859-.24737l-9.6353,6.04064c.06392.08333.12875.16189.19282.24461Z"/><path class="cls-180" d="M54.43781,25.24784c-.06338-.0834-.1256-.16473-.18844-.24721L44.6097,31.0438c.06368.08386.1289.16143.19281.24468Z"/><path class="cls-181" d="M54.24937,25.00063c-.06292-.08256-.12607-.16573-.18852-.24737l-9.644,6.04593c.06338.0844.12921.16074.19282.24461Z"/><path class="cls-182" d="M54.06085,24.75326c-.06238-.08156-.1266-.16657-.18852-.24729l-9.63852,6.04248c.06207.0834.12069.1678.18307.25074Z"/><path class="cls-183" d="M53.87233,24.506c-.062-.08064-.12706-.16757-.18852-.24737l-9.63038,6.03749c.06138.08341.11869.16942.18038.25236Z"/><path class="cls-184" d="M53.68381,24.2586c-.06146-.07979-.12752-.16841-.18852-.24729L43.873,30.04366c.06108.08371.11893.169.18039.25243Z"/><path class="cls-185" d="M53.49529,24.01131c-.031-.04005-.06483-.0857-.09568-.12552-.0313-.04029-.0626-.08034-.094-.121l-9.613,6.02652c.06069.08409.11946.16857.18046.25235Z"/><path class="cls-186" d="M53.30562,23.76479c-.03437-.04458-.06874-.0897-.10289-.13259-.03015-.03882-.05862-.07435-.08862-.11294L43.51219,29.539c.06024.08432.11978.16834.18039.25236Z"/><path class="cls-187" d="M53.11411,23.51926c-.06514-.08363-.12759-.16228-.1922-.24491l-9.5901,6.01225c.05977.08447.12015.168.18038.25235Z"/><path class="cls-188" d="M52.92191,23.27435c-.06452-.08264-.12821-.16343-.19228-.245l-9.57828,6.0048c.05938.08471.12061.16788.18046.25244Z"/><path class="cls-4" d="M52.72963,23.02936c-.06406-.08156-.12874-.16443-.1922-.24491l-9.56654,5.99728c.05877.08479.12115.16773.18046.25243Z"/><path class="cls-189" d="M52.53743,22.78445c-.06353-.08057-.12936-.1655-.19227-.245L42.7905,28.52938c.05824.08486.12154.16757.18039.25235Z"/><path class="cls-190" d="M52.34516,22.53946c-.06553-.08264-.12944-.1622-.19428-.24376l-9.53846,5.97979c.01488.02194.02869.04389.04366.06583.04312.0633.091.12484.13442.18806Z"/><path class="cls-191" d="M52.15088,22.2957c-.066-.08287-.12967-.16159-.195-.24323l-9.51483,5.96506c.05785.08617.11286.17172.17133.258Z"/><path class="cls-192" d="M51.95592,22.05247q-.09806-.12257-.195-.24322l-9.49112,5.95017c.05708.08609.11347.172.17133.25811Z"/><path class="cls-193" d="M51.76088,21.80925c-.06468-.08049-.1309-.16381-.195-.24323l-9.4675,5.93537c.0564.08593.11417.17195.17134.258Z"/><path class="cls-194" d="M51.56592,21.566c-.06491-.08033-.13136-.16373-.19558-.24291L41.927,27.24328c.0557.0857.11493.17218.1714.25811Z"/><path class="cls-195" d="M51.17261,21.08157l-9.41255,5.90084c.05593.08716.11018.1734.167.26087l9.44332-5.92017C51.30313,21.24016,51.23914,21.16328,51.17261,21.08157Z"/><path class="cls-196" d="M50.97489,20.84l-9.38,5.88051c.05556.08747.1088.17409.1652.26187l9.41255-5.90084C51.106,20.99993,51.04072,20.92044,50.97489,20.84Z"/><path class="cls-197" d="M50.77724,20.5985l-9.34772,5.86017q.08195.13074.16534.26187l9.38-5.88051C50.909,20.75962,50.84238,20.6776,50.77724,20.5985Z"/><path class="cls-198" d="M50.57952,20.357l-9.3152,5.83984c.05371.08678.11049.17471.1652.26187l9.34772-5.86017C50.7121,20.51931,50.644,20.43484,50.57952,20.357Z"/><path class="cls-199" d="M50.37918,20.117l-9.27813,5.8166c.0534.08731.10888.17532.16327.26317l9.3152-5.83984C50.51123,20.2744,50.44662,20.19821,50.37918,20.117Z"/><path class="cls-200" d="M50.17877,19.87719l-9.23639,5.79043c.05378.08915.10381.17624.15867.266l9.27813-5.8166C50.31151,20.03563,50.2456,19.95721,50.17877,19.87719Z"/><path class="cls-201" d="M49.97836,19.63734,40.78371,25.4016c.05271.08862.10481.17678.15867.266l9.23639-5.79043C50.11194,19.79716,50.04434,19.716,49.97836,19.63734Z"/><path class="cls-201" d="M49.76974,19.38767c-1.58994.11877-3.63563.16358-5.78076.15583-.11156-.00038-.223-.00192-.33453-.00261-1.90168-.01174-3.86482-.06245-5.65233-.14317.18553.60576.40681,1.23707.67183,1.89807a25.54185,25.54185,0,0,0,1.19249,2.49969c.27882.51752.591,1.05791.91727,1.60612l9.19465-5.76426C49.90961,19.55547,49.83757,19.468,49.76974,19.38767Z"/><polygon class="cls-201" points="49.769 19.387 49.77 19.388 49.77 19.388 49.769 19.387"/><path class="cls-201" d="M43.989,19.5435c-.1108-.00046-.2232-.00192-.33453-.00261C43.766,19.54158,43.87742,19.54312,43.989,19.5435Z"/><path class="cls-81" d="M85.50532,85.961c.02471-.06084.05033-.11938.07519-.17977l-.07189.04512C85.51077,85.87158,85.50225,85.91585,85.50532,85.961Z"/><path class="cls-82" d="M85.50862,85.82639l.07189-.04512c.18108-.439.36875-.86157.56617-1.25993l-.61558.38593A6.55414,6.55414,0,0,0,85.50862,85.82639Z"/><path class="cls-83" d="M85.72392,83.88136a6.28288,6.28288,0,0,0-.19282,1.02591l.61558-.38593a8.55538,8.55538,0,0,1,.8928-1.46464Z"/><path class="cls-84" d="M86.17162,82.69577a6.19443,6.19443,0,0,0-.4477,1.18559l1.31556-.82466a3.76372,3.76372,0,0,1,.96561-.9086l-.22466-.461Z"/><path class="cls-85" d="M86.99666,81.41167a6.43086,6.43086,0,0,0-.825,1.2841l1.60881-1.00865c-.12092-.24821-.23425-.48092-.33775-.6933l-.725.45453C86.81167,81.43331,86.90237,81.42771,86.99666,81.41167Z"/><path class="cls-86" d="M84.89626,81.68528c.59771-.05333,1.20738-.13857,1.82142-.23693l.725-.45453q-.18335-.37635-.33791-.69316Z"/><path class="cls-87" d="M83.3387,81.75671c.51315-.00951,1.02876-.02424,1.55756-.07143l2.20851-1.38462c-.1233-.25273-.23455-.48008-.33867-.69261Z"/><path class="cls-88" d="M81.94872,81.723c.45722.025.91735.04251,1.39.03368l3.4274-2.14866c-.12039-.2456-.2321-.473-.34013-.69185Z"/><path class="cls-89" d="M80.67774,81.61484c.41463.05486.84092.08471,1.271.10819L86.426,78.9162c-.08387-.16979-.16681-.33729-.2509-.50632-.03084-.06123-.06123-.12245-.09177-.18376Z"/><path class="cls-90" d="M79.54563,81.41965q.55507.11867,1.13211.19519l5.40556-3.38872c-.06821-.13688-.13611-.27384-.20509-.41064-.0102-.02125-.0201-.04013-.03015-.06138-.03683-.07381-.07274-.14318-.10957-.21683Z"/><path class="cls-91" d="M78.53445,81.14857c.33215.09967.665.197,1.01118.27108l6.19286-3.88238c-.1167-.23341-.23087-.45561-.34726-.68732Z"/><path class="cls-92" d="M77.57567,80.84466c.308.12169.63652.20724.95878.30391L85.39123,76.85c-.11632-.23172-.23133-.4573-.34735-.68732Z"/><path class="cls-93" d="M76.76159,80.45c.27016.13365.531.28281.81408.39468l7.46821-4.682q-.1739-.34516-.34726-.68725Z"/><path class="cls-94" d="M75.95865,80.04839c.25488.155.53455.26877.80294.40159l7.935-4.9746c-.11571-.22849-.23195-.46028-.34727-.68724Z"/><path class="cls-95" d="M78.0391,77.913l.01818.00506L78.0391,77.913c-.0541.00982-.10059.01343-.15376.02248L75.29342,79.5604c.22236.16182.4309.3455.66523.488l8.3907-5.26025c-.11532-.227-.23225-.46174-.34726-.68732L77.962,77.88745C77.98907,77.89581,78.01186,77.90464,78.0391,77.913Z"/><path class="cls-96" d="M76.18092,78.099l-1.55264.97344c.20969.18161.44286.32624.66514.488l2.59192-1.62492A10.25307,10.25307,0,0,1,76.18092,78.099Z"/><path class="cls-96" d="M77.962,77.88745l6.0401-3.78663c-.0785-.154-.15883-.31589-.23717-.46926l.00115.00023c-.03713-.07312-.07488-.14509-.112-.21783l-6.63619,4.16037C77.32508,77.6796,77.63037,77.785,77.962,77.88745Z"/><path class="cls-97" d="M83.06149,72.88048l-6.95706,4.36146c.29263.11249.59709.22405.91343.33239L83.65405,73.414c-.09222-.18046-.18407-.361-.27783-.54039h-.00161l.00115.0023Z"/><path class="cls-97" d="M74.93856,77.97285l-.86.53916c.18353.18644.35478.39153.54975.56041l1.55264-.97344A5.77643,5.77643,0,0,1,74.93856,77.97285Z"/><polygon class="cls-97" points="83.061 72.88 83.376 72.876 83.375 72.874 83.074 72.873 83.061 72.88"/><path class="cls-98" d="M83.06149,72.88048l-.94658.014-.53172.00775-6.361,3.98788c.278.12108.58144.23632.88221.35187Z"/><path class="cls-98" d="M74.002,77.655l-.46205.28972c.17049.20279.35632.38225.53855.56732l.86-.53916A4.41567,4.41567,0,0,1,74.002,77.655Z"/><polygon class="cls-98" points="83.061 72.88 83.074 72.873 82.152 72.871 82.115 72.894 83.061 72.88"/><polygon class="cls-98" points="82.115 72.894 82.152 72.871 81.635 72.87 81.583 72.902 82.115 72.894"/><path class="cls-99" d="M81.58319,72.90219l-.86034.01266-.52527.00775c.05992-.02.12292-.03522.18292-.05532h-.00008l-.18238.05294c-.04926.01542-.09844.0231-.1477.038L74.4007,76.50007c.26609.13259.53356.26463.82152.39Z"/><path class="cls-99" d="M73.25916,77.2157l-.19427.12185c.09514.13151.18069.27667.28059.40228.06.07557.133.13166.1945.20486L74.002,77.655A4.53469,4.53469,0,0,1,73.25916,77.2157Z"/><polygon class="cls-99" points="81.583 72.902 81.635 72.87 80.797 72.868 80.723 72.915 81.583 72.902"/><path class="cls-99" d="M80.72285,72.91485l.0745-.04673-.41685-.00084c-.06.0201-.123.03537-.18292.05532Z"/><path class="cls-100" d="M72.63974,76.699l-.01411.0089c.13764.22328.29033.42384.43926.62963l.19427-.12185A5.69059,5.69059,0,0,1,72.63974,76.699Z"/><path class="cls-100" d="M77.85418,73.43l-4.22972,2.65168c.24959.1431.50686.28412.77624.41839l5.64964-3.54187A14.3724,14.3724,0,0,1,77.85418,73.43Z"/><path class="cls-101" d="M76.21752,73.55107,72.891,75.63651c.23394.1543.4823.30123.73351.44517L77.85418,73.43A12.64106,12.64106,0,0,1,76.21752,73.55107Z"/><path class="cls-101" d="M72.5865,76.65176c.0122.0201.02685.03622.03913.05616l.01411-.0089C72.62225,76.68214,72.60391,76.669,72.5865,76.65176Z"/><path class="cls-102" d="M74.88009,73.48455l-2.67132,1.67464c.21913.16581.44847.32318.68218.47732l3.32657-2.08544A11.85792,11.85792,0,0,1,74.88009,73.48455Z"/><path class="cls-103" d="M73.71829,73.30785l-2.13347,1.3375c.20387.17555.40865.351.624.51384l2.67132-1.67464A11.58921,11.58921,0,0,1,73.71829,73.30785Z"/><path class="cls-104" d="M72.68026,73.05365l-1.68393,1.05569c.1912.18545.38877.36407.58849.536l2.13347-1.3375C73.37157,73.23526,73.02507,73.15946,72.68026,73.05365Z"/><path class="cls-105" d="M71.77687,72.715l-1.33727.83832c.1813.1955.36952.37458.55673.556l1.68393-1.05569C72.37787,72.96081,72.07764,72.83406,71.77687,72.715Z"/><path class="cls-106" d="M71.77687,72.715c-.28811-.11417-.57637-.22527-.86272-.36415l-.9821.61573c.16834.19873.33591.40167.50755.58674Z"/><path class="cls-107" d="M70.91415,72.35083c-.25834-.12537-.51491-.2753-.77164-.42123l-.70113.43957c.0676.086.13527.18069.203.26425.09491.11731.19212.22051.28765.33314Z"/><path class="cls-108" d="M69.40079,71.48965l-.42867.2687c.15675.21238.313.4121.46926.61082l.70113-.43957C69.89476,71.78881,69.64693,71.65008,69.40079,71.48965Z"/><path class="cls-109" d="M68.72513,71.00819l-.19864.12452c.14877.21177.29862.42661.44563.62564l.42867-.2687C69.17445,71.34218,68.95,71.17253,68.72513,71.00819Z"/><path class="cls-110" d="M68.15152,70.59938c.12691.18714.25013.35556.375.53333l.19864-.12452C68.53416,70.86862,68.34135,70.7513,68.15152,70.59938Z"/><path class="cls-5" d="M204.59546,133.2359a20.69127,20.69127,0,0,0-7.15218-4.50541,30.127,30.127,0,0,0-19.787,0,20.71441,20.71441,0,0,0-7.15218,4.50541,18.60009,18.60009,0,0,0-4.31635,6.585,21.92218,21.92218,0,0,0-1.44984,7.971,22.58865,22.58865,0,0,0,1.44984,8.09746,18.75883,18.75883,0,0,0,4.31635,6.68077,20.45642,20.45642,0,0,0,7.15218,4.53733,30.14783,30.14783,0,0,0,19.787,0,20.43387,20.43387,0,0,0,7.15218-4.53733,18.72558,18.72558,0,0,0,4.31635-6.68077,22.58865,22.58865,0,0,0,1.44984-8.09746,21.92218,21.92218,0,0,0-1.44984-7.971A18.56687,18.56687,0,0,0,204.59546,133.2359Zm-.81883,20.70155a12.55283,12.55283,0,0,1-3.49752,4.5361,16.10679,16.10679,0,0,1-5.51329,2.86651,26.30034,26.30034,0,0,1-14.43081,0,16.11286,16.11286,0,0,1-5.51452-2.86651,12.56633,12.56633,0,0,1-3.49752-4.5361,14.27587,14.27587,0,0,1-1.22886-6.01908,14.06906,14.06906,0,0,1,1.22886-5.98716,12.66091,12.66091,0,0,1,3.49752-4.5054,16.19835,16.19835,0,0,1,5.51452-2.86652,26.3312,26.3312,0,0,1,14.43081,0,16.19224,16.19224,0,0,1,5.51329,2.86652,12.64711,12.64711,0,0,1,3.49752,4.5054,14.06906,14.06906,0,0,1,1.22886,5.98716A14.27587,14.27587,0,0,1,203.77663,153.93745Z"/><path class="cls-5" d="M166.37684,117.98626h43.03953v-6.11237H193.22146v-4.8516a40.91119,40.91119,0,0,0-.75622-8.25582,17.85167,17.85167,0,0,0-2.4258-6.20691,11.10981,11.10981,0,0,0-4.34827-3.90694,14.17552,14.17552,0,0,0-6.4598-1.35469q-6.9312,0-10.42873,4.94613-3.4969,4.948-3.49752,14.14722,0,2.648.221,5.8288A34.53081,34.53081,0,0,0,166.37684,117.98626Zm4.66255-16.76208a11.47518,11.47518,0,0,1,1.3553-3.87563,7.37213,7.37213,0,0,1,2.61486-2.64677,8.02856,8.02856,0,0,1,4.15921-.9772,8.89421,8.89421,0,0,1,4.34827.94528,6.8505,6.8505,0,0,1,2.67746,2.67869,12.80167,12.80167,0,0,1,1.38723,4.25374,35.49786,35.49786,0,0,1,.4088,5.67043v4.60117H170.85033q-.18783-2.08084-.18905-5.98593A27.63224,27.63224,0,0,1,171.03939,101.22418Z"/><polygon class="cls-5" points="209.416 51.443 204.187 51.443 204.187 73.561 189.062 73.561 189.062 55.287 183.958 55.287 183.958 73.561 170.977 73.561 170.977 53.018 165.747 53.018 165.747 79.674 209.416 79.674 209.416 51.443"/><path class="cls-5" d="M209.41637,37.7047H175.32505q2.01637-1.76319,4.66254-3.84372,2.648-2.07991,5.63974-4.285,2.99419-2.20512,6.20813-4.44279,3.21333-2.23644,6.33212-4.31636,3.11942-2.07991,6.01908-3.87563,2.89844-1.79632,5.22971-3.18263V8.65464h-43.6693v5.98654h32.326q-3.33855,2.0173-7.62482,4.94675-4.28321,2.92974-8.72723,6.2382-4.44342,3.30816-8.63271,6.67955-4.19114,3.3726-7.34123,6.33335v4.85221h43.6693Z"/><path class="cls-2" d="M334.67559,92.1259q0,3.924.22466,8.40859.22465,4.37251.67381,9.08132L257.85617,11.51548a29.49982,29.49982,0,0,0-2.80774-3.02711,9.00132,9.00132,0,0,0-2.58317-1.6817,9.57134,9.57134,0,0,0-3.03233-.89694,32.26228,32.26228,0,0,0-4.15545-.22427V5.68538h-19.991V169.03647h33.46807V81.475q0-3.58771-.22458-7.62382-.22465-4.14821-.56157-8.40858l77.15648,97.31564a19.01146,19.01146,0,0,0,5.84007,4.933,18.24153,18.24153,0,0,0,7.41237,1.3454h19.7664V5.68554H334.67559Z"/><polygon class="cls-4" points="416.906 138.765 416.906 5.685 378.945 5.685 378.945 169.036 477.553 169.036 477.553 138.766 416.906 138.766 416.906 138.765"/><path class="cls-3" d="M596.17074,21.04512q-7.974-7.17531-20.44029-11.21149-12.354-4.1482-29.6496-4.14825H488.35394V169.03647h37.96051V114.43664h19.76632q16.9588.00012,29.31269-4.03614a57.2382,57.2382,0,0,0,20.55262-11.4357,44.9935,44.9935,0,0,0,12.01706-17.48991A61.877,61.877,0,0,0,611.894,59.052a57.31019,57.31019,0,0,0-3.81855-21.07751A43.6732,43.6732,0,0,0,596.17074,21.04512Zm-28.7512,57.739q-6.5139,7.06332-21.33869,7.06325H526.31452v-51.797h19.7664a37.79563,37.79563,0,0,1,12.354,1.7938,22.0466,22.0466,0,0,1,8.64782,5.15728,19.98022,19.98022,0,0,1,5.16618,7.848A29.46516,29.46516,0,0,1,573.9335,59.052Q573.9335,71.7209,567.41954,78.78416Z"/><polygon class="cls-5" points="615.469 7.27 619.579 7.27 619.579 18.753 621.408 18.753 621.408 7.27 625.52 7.27 625.52 5.686 615.469 5.686 615.469 7.27"/><path class="cls-5" d="M640.03876,5.68623h-1.60328q-.50825.82864-1.09382,1.96052-.58374,1.13066-1.16871,2.36688-.58557,1.23377-1.13187,2.47-.54691,1.23561-.99929,2.25271-.453-1.01832-.9993-2.25271-.5469-1.23561-1.13065-2.47-.58557-1.23561-1.16993-2.36688-.58374-1.13064-1.09382-1.96052H628.046q-.16941,1.41423-.31181,2.99787-.1418,1.58365-.264,3.252-.12153,1.67019-.21606,3.3944-.09576,1.72543-.17064,3.42264h1.79234q.09392-2.64064.22589-5.23217.13074-2.59275.33882-4.81845c.12645.21361.29218.52174.49965.9244s.4309.85812.67029,1.36636q.35724.76419.76358,1.6217.40512.85812.76359,1.66958.35724.81024.66906,1.50753.31121.6979.49964,1.15029h1.47071q.18781-.45115.49964-1.15029.3112-.69608.67029-1.50753.35724-.81024.76359-1.66958.40511-.85812.76358-1.6217.35724-.76236.66906-1.36636.31121-.604.49965-.9244.20808,2.2263.34,4.81845.13074,2.59276.22589,5.23217H641Q640.67959,12.00239,640.03876,5.68623Z"/></svg>