<?xml version="1.0" encoding="UTF-8"?><svg id="a" xmlns="http://www.w3.org/2000/svg" xmlns:xlink="http://www.w3.org/1999/xlink" viewBox="0 0 1000 594.95963"><defs><style>.c{fill:url(#b);}.d{fill:#425066;}</style><linearGradient id="b" x1="332.14783" y1="169.43343" x2="667.85217" y2="169.43343" gradientTransform="matrix(1, 0, 0, 1, 0, 0)" gradientUnits="userSpaceOnUse"><stop offset=".01381" stop-color="#e23627"/><stop offset=".49351" stop-color="#f26722"/><stop offset="1" stop-color="#f0bf08"/></linearGradient></defs><path class="c" d="M592.02276,29.15739l4.70469,75.65129,71.12472,26.20086-43.84747,32.64415-71.12429-26.2007-4.70425-75.65113,43.8466-32.64447h0ZM513.13208,0l-52.77308,54.40795-71.06904-26.35286,12.07811,53.31382,71.06857,26.35269,52.77352-54.40778L513.13208,0h0Zm-180.00064,100.16315l40.91054,63.80845-41.89416,63.1678,54.66293,.42364,41.89412-63.16781-40.91082-63.80905-54.66261-.42302h0Zm48.17377,194.68312l73.90546-16.82529,45.20034,60.84588,18.9507-51.2746-45.20001-60.84676-73.90579,16.82617-18.9507,51.2746h0Zm282.3121-72.53808l-41.79882-35.22838-72.57544,21.8654-9.25629,75.2305,41.79903,35.22796,9.25669-75.23036,72.57484-21.86512h0Z"/><g><path class="d" d="M0,493.33054c0-13.69697,2.55692-26.52606,7.67075-38.4895,5.11161-11.95898,12.2327-22.55161,21.36772-31.77564,9.13057-9.21959,19.67646-16.43637,31.6399-21.64144,11.95898-5.20507,24.7903-7.80872,38.48727-7.80872s26.5728,2.60365,38.62524,7.80872c12.05467,5.20507,22.64284,12.42185,31.77787,21.64144,9.13057,9.22404,16.2984,19.81666,21.50347,31.77564,5.20507,11.96343,7.80872,24.79252,7.80872,38.4895s-2.60365,26.52829-7.80872,38.48727c-5.20507,11.96343-12.3729,22.50932-21.50347,31.6399-9.13502,9.13502-19.7232,16.25612-31.77787,21.36772-12.05245,5.11383-24.92827,7.67075-38.62524,7.67075s-26.52829-2.46568-38.48727-7.39703c-11.96343-4.93136-22.50932-11.86997-31.6399-20.82029-9.13502-8.94587-16.25612-19.44948-21.36772-31.50193-5.11383-12.05245-7.67075-25.20199-7.67075-39.44639Zm13.69697,.27372c0,11.87219,2.19196,23.01003,6.57588,33.42017,4.3817,10.41015,10.49916,19.54294,18.35239,27.39395,7.851,7.85323,16.93707,14.01742,27.2582,18.49036,10.31446,4.47739,21.31877,6.71163,33.00848,6.71163,12.05467,0,23.28597-2.23424,33.69611-6.71163,10.40792-4.47294,19.53849-10.63713,27.39172-18.49036,7.851-7.851,14.0152-16.9838,18.49258-27.39395,4.47294-10.41015,6.71163-21.64144,6.71163-33.69389,0-11.86997-2.23869-23.05453-6.71163-33.55814-4.47739-10.49916-10.64158-19.7232-18.49258-27.66766-7.85323-7.94447-16.9838-14.19768-27.39172-18.76408-10.41015-4.56417-21.55243-6.8496-33.4224-6.8496-12.05245,0-23.28374,2.32993-33.69389,6.98535-10.41015,4.65764-19.49621,11.00431-27.25598,19.04002-7.76421,8.03793-13.79044,17.30425-18.0809,27.80341-4.29268,10.50361-6.43791,21.59916-6.43791,33.28443Z"/><path class="d" d="M272.84238,395.80719c12.05467,0,22.60056,2.05622,31.6399,6.16419,9.03934,4.1102,16.06919,10.22989,21.09401,18.35461,5.02037,8.12695,7.53278,18.31011,7.53278,30.54281,0,7.30802-1.1416,14.38238-3.4248,21.22975-2.28543,6.8496-5.93498,13.01379-10.95758,18.49258-5.02482,5.47879-11.41377,9.86049-19.17576,13.14731-7.76421,3.28905-17.11955,4.93136-28.07713,4.93136h-30.13334v81.63441h-13.42326v-194.49703h44.92518Zm-1.36858,99.98902c9.4933,0,17.39549-1.50878,23.69543-4.52189,6.29994-3.01311,11.2313-6.84737,14.79184-11.50501,3.56055-4.65541,6.11746-9.54004,7.67075-14.6561,1.54884-5.10938,2.32771-9.86049,2.32771-14.24441,0-6.20648-1.00585-11.86774-3.01311-16.9838-2.01171-5.10938-4.97809-9.54004-8.90359-13.28529-3.92773-3.7408-8.72111-6.6649-14.38015-8.76562-5.66349-2.0985-12.14814-3.15108-19.44948-3.15108h-32.87274v87.1132h30.13334Z"/><path class="d" d="M359.12998,395.80719h119.98371v12.87582h-106.56045v77.25049h95.87882v12.87582h-95.87882v78.61907h110.39694v12.87582h-123.8202v-194.49703Z"/><path class="d" d="M676.34789,594.95963l-153.40611-172.85336,3.56277-2.73939,.27372,170.93734h-13.14954v-198.60501h.82115l153.40611,174.22417-3.56055,1.09487-.27594-171.21106h12.87582v199.15244h-.54743Z"/><path class="d" d="M713.32638,388.6861h126.01216v38.35153h-86.28982v45.74633h74.78481v38.35153h-74.78481v79.16873h-39.72234v-201.61812Zm152.16956,0h39.72234v163.26659h94.78172v38.35153h-134.50406v-201.61812Z"/></g></svg>