<svg xmlns="http://www.w3.org/2000/svg" role="img" viewBox="28.27 28.02 271.96 96.21"><title>Penn State University logo</title><style>svg {enable-background:new 0 0 330.83 151.67}</style><style>.st1{fill:#1e407c}</style><g id="XMLID_336_"><g id="XMLID_350_"><path id="XMLID_351_" fill="#fff" d="M72.63 119.21C55.4 108.97 33.68 94.08 33.68 67.78V40.02c7.95-3.01 20.23-6.77 38.95-6.77 18.94 0 31.94 4.1 38.95 6.77v27.76c0 26.52-22.57 41.8-38.95 51.43z"/></g><g id="XMLID_337_"><path id="XMLID_343_" d="M84.35 83.26c0-.59.48-1.5.48-2.32 0-.97-1.19-1.28-2.12-1.41-1.95-.27-2.6-.18-2.6-.61 0-.3.26-.61.62-1.12.52-.75 1.77-1.04 2.44-1.13.87-.12 1.84-.24 3-.24 1.3 0 2.4.19 2.91.28 1.19.21 1.38.71 1.38 1.27v.56c0 .56-.46.85-1.3 1.04-.21.05-.5.1-.64.13-.6.13-1.35.25-1.62 1.01-.57 1.64-1.56 2.92-2.29 2.89-.12-.01-.26-.11-.26-.35zm1.72-26.38c-.07-.04-.32-.13-.32-.38 0-.29.21-.59.63-1.15.98-1.31 2.32-2.91 2.81-2.91.24 0 .39.16.69.73.18.33.33.89.33 1.42 0 1.74-.6 2.96-1.53 4.34-.48-.46-1.34-1.32-2.61-2.05zm-28.62 3.25c.44 0 .77-.29 1.43-1.02 1.48-1.64 2.91-1.86 2.91-2.55 0-.31-.2-.62-.41-.94-1.58-2.47-2.25-3.8-3.19-5.59-.34-.65-.78-1.09-1.12-1.09-.55 0-1.12.64-1.46 1.18-.47.77-.94 1.64-.94 2.43 0 1.19.29 3.37.79 4.76.54 1.49 1.31 2.82 1.99 2.82zm17.78 5.69c0-1.02-1.15-2.51-3.14-2.51-1.78 0-3.13 1.34-3.49 2.39.43.82.84 1.69 2.54 2.21.23.07.45.07.45.27 0 .27-.29.41-.89.41-1.93 0-3.08-.79-3.59-1.45-.5.07-1.08.26-1.8.29-.59.02-.86-.37-.86-.9 0-.34.1-.71.3-1.13.11-.23.23-.47.32-.64.3-.59.76-1.89 2.52-2.9.2-.12.74-.44 1.01-.6 1-.59 1.75-.72 2.94-.72h.87c1.42 0 2.15.4 2.78.93 1.27 1.07 1.97 1.65 1.97 2.45 0 .88-.05 1.56-.75 2.49-.61.8-1.49 1.32-2.07 1.32-.16 0-.21-.09-.21-.18 0-.12.13-.18.27-.29.47-.39.68-1.06.83-1.44zm8.56 27.31c-.33.08-.99.24-3.91.24-4.42 0-5.17-1.09-5.17-1.95 0-1.44 6.34-2.45 8.84-2.45 2.39 0 3.45.77 3.45 1.35 0 .68-1.08 2.29-3.21 2.81zm-25.5 12.94c4.6 3.59 9.52 6.76 14.34 9.64.04-4.33-.1-6.89 2.84-9.95 1.19-1.24 2.41-2.51 3.51-3.65.83-.86 1.51-1.51 1.9-1.51.28 0 .41.15.41.52 0 .39.17 1.81 1.05 3.51 1.1 2.11 2.71 2.39 3.23 2.51 12.55-9.45 23.05-21.82 23.05-39.42V42.07c-3.1-1.05-15.81-5.93-36-5.93s-32.9 4.88-36 5.93v25.65c0 7.73 2.03 14.46 5.37 20.37.33-3.56 2.74-5.25 2.74-8.75 0-2.44-.69-3.98-.69-6.03 0-3.7 4.99-11.3 7.58-14.4.08-.09.24-.31.45-.31.19 0 .33.13.44.3.26.4.38.62.66.62s.39-.16.39-.41c0-.64-.74-1.72-.74-5.92 0-2.94.68-3.56 2.51-5.35.33-.33 1.36-1.31 2.33-1.31 1.08 0 1.62.64 2.29 1.32 1.13 1.15 2.7 3.18 2.96 3.5.07.09.14.17.29.17.52 0 .96-.16 3.23-.16 4.12 0 10.33.65 13.52 1.69 1.64.54 1.99.91 2.42.91.21 0 .23-.14.23-.25 0-.21-.43-.54-.43-.82 0-.19.15-.33.3-.41 2.38-1.28 4.41-2.24 6.27-2.24 1.08 0 1.62.94 2.07 1.86.36.72.74 1.69.74 2.69 0 2.52-.96 4.06-1.73 5.13.37.38.89.95 1.21 1.33.56.67 1.24 1.56 1.24 2.47 0 .4-.19 1.02-.3 1.51-.05.22-.24.66-.63.66-.35-.01-.44-.39-.45-.72v-.25c0-.73-.2-1.71-.87-2.4-.77-.79-1.48-1.37-2.38-1.37h-.31c-1.47 0-2.14.64-2.55 1.04-.43.44-.78 1.01-.78 1.79 0 .44.3.97.71 1.78.24.48.85 1.61 1.18 2.19.29.51.66.69 1.08.69 1.03 0 1.92-.14 1.92-.45 0-.08-.05-.16-.19-.16-.06 0-.2.02-.33.02-1.34 0-2.06-1.71-2.73-3.25.51-.5 1.09-1.01 2.14-1.01 1.33 0 2.21.9 2.21 2.06 0 .58-.18 1.06-.28 1.28-.05.11-.08.18-.08.24 0 .18.23.22.6.3.13.03.38.09.53.13.39.11.81.45.99.93.12.31.38 1.04.44 1.21.22.66.58 1.62.58 2.77 0 1.17-.08 1.53-.4 2.72-.41 1.52-.59 2.1-.66 2.94.14.26.15.34.22.49.23.48.53 1.37.53 2.33v.79c0 1.53-.61 2.71-1.27 3.6-.51.69-1.25 1.67-1.67 2.21-.27.33-.64.56-1.05.56-.2 0-.43-.07-.66-.12-.26-.06-.8-.2-1.04-.26-.9-.23-1.23-.81-1.52-1.6-.04-.12-.18-.45-.22-.56-.21-.55-.34-.9-.68-.9-.25 0-.5.17-.75.55-.9 1.35-1.38 1.84-2.96 2.23-.55.14-1.67.37-2.3.51-.95.21-2.63.65-3.58.65-.2 0-.41-.01-.63-.04-1.3-.18-2.21-.27-3.83-2.19-2.22-2.65-1.99-3.02-2.12-6.6-.01-.4-.15-.9-.56-.9-.37 0-.53.76-.67 1.83-.16 1.26-.45 2.57-1.07 2.57-.43 0-.73-.07-1.39-.28-.81-.26-2.82-.94-3.87-1.29-1.44-.48-2.82-.85-3.37-2.13-.26-.6-.74-1.72-.99-2.3-.17-.41-.3-.62-.57-.62-.38 0-.47.45-.51.81-.05.41-.15 1.34-.2 1.93-.22 2.49-.71 3.55-1.77 4.94-.48.64-.94 1.29-1.48 1.99-1.1 1.46-1.77 2.96-1.74 5.8 0 .18-.01 1.24 0 1.73.11 4.23 1.18 6.3 8.3 11.97z" class="st1"/><path id="XMLID_338_" fill="#96bee6" d="M91.75 68.73c.12.31.38 1.04.44 1.21.22.66.58 1.62.58 2.77 0 1.17-.08 1.53-.4 2.72-.41 1.52-.59 2.1-.66 2.94-.11-.24-2.28-3.97-2.45-4.28-.17-.3-.3-.6-.3-.95 0-.38.16-.61.63-.9.28-.17.64-.38.88-.5 1.12-.57 1.38-1.28 1.38-2.03 0-.33-.05-.65-.1-.98zm-9.44 5.98c.12.29.22.63.22.88 0 .56-.14.73-.45 1.07-.19.17-.39.34-.58.51-.31.16-.58.37-.77.63-.35.51-.62.82-.62 1.12 0 .09.03.16.1.21-.43-.32-.6-.81-.6-1.25 0-.39.13-.6.13-.97 0-.31-.09-.62-.14-.8-.6-2.01-1.61-4.4-2.24-6.03-.64-1.66-1.13-2.56-1.85-2.56-.4 0-.75.2-1.17.2.57 0 1.46-.53 2.07-1.32.71-.93.75-1.61.75-2.49 0-.37-.16-.7-.45-1.06.91.93 1.49 2.11 2.11 3.41 1.34 2.87 2.51 6 3.49 8.45zM50 94.1c-.01-.49 0-1.54 0-1.73-.04-2.84.63-4.34 1.74-5.8.53-.71.99-1.36 1.48-1.99 1.05-1.39 1.55-2.45 1.77-4.94.05-.58.15-1.52.2-1.93.04-.36.13-.81.51-.81.27 0 .39.21.57.62.24.58.73 1.7.99 2.3.55 1.27 1.93 1.65 3.37 2.13 1.06.35 3.07 1.03 3.87 1.29.67.22.96.28 1.39.28.62 0 .91-1.31 1.07-2.57.14-1.07.3-1.83.67-1.83.41 0 .55.5.56.9.13 3.58-.1 3.95 2.12 6.6 1.61 1.93 2.53 2.01 3.83 2.19-.48-.14-1.1-.7-1.1-1.87v-1.29c0-.64.08-1.3.4-2.04.15-.35.33-.98.49-1.36.28-.66.15-.82.15-1.28 0-.49-.16-.97-.55-2.14-.2-.6-.47-1.48-.72-2.19-.8-2.24-1.13-2.77-3.81-3.13-.86-.11-4.62-.65-5.41-.76-3.01-.43-5.37-.57-6.59-2.59-1.47-2.41-1.32-5.35-2.73-5.35-.67 0-1.02.75-1.02 1.84 0 1.15.43 3 .43 6.23 0 2.79-.26 3.57-1.89 5.62-.42.53-.99 1.32-1.35 1.77-1.21 1.52-1.75 2.37-1.67 4.14.17 4.58.9 7.95 1.23 9.69zm30.69 10.77c.1-1.12.6-2.98.6-3.74 0-.38-.13-.52-.41-.52-.39 0-1.07.64-1.9 1.51-1.11 1.15-2.33 2.41-3.51 3.65-2.93 3.07-2.79 5.62-2.84 9.95 3.26-1.96 6.24-3.85 8.45-5.36-.33-1.81-.6-3.1-.39-5.49z"/></g></g><path d="M127.25 45.56h-2.35v-3.48h10.95c5.76 0 8.77 3.02 8.77 7.33 0 5.11-4.03 7.33-8.77 7.33h-3.63v5.73h2.35v3.48h-9.68v-3.48h2.35V45.56zm8.09 7.7c2.49 0 4.11-1.43 4.11-3.85 0-2.2-1.42-3.85-4.18-3.85h-3.04v7.7h3.11zm15.36 4.84c.14 2.83 2.32 4.57 5.66 4.57 2.94 0 4.74-.81 5.52-1.13v3.68c-.73.29-2.71 1.12-6.58 1.12-6.88 0-9.78-4.29-9.78-9.24 0-5.56 3.37-9.41 8.96-9.41 6.13 0 8.62 4.64 8.62 10.39h-12.4zm7.23-3.27c0-2.45-1.4-3.85-3.61-3.85-2.18 0-3.44 1.43-3.65 3.85h7.26zM282.8 58.1c.14 2.83 2.32 4.57 5.66 4.57 2.94 0 4.74-.81 5.52-1.13v3.68c-.73.29-2.71 1.12-6.58 1.12-6.88 0-9.78-4.29-9.78-9.24 0-5.56 3.37-9.41 8.96-9.41 6.13 0 8.62 4.64 8.62 10.39h-12.4zm7.22-3.27c0-2.45-1.4-3.85-3.61-3.85-2.18 0-3.44 1.43-3.65 3.85h7.26zm-122.49-3.24h-2.32v-3.48h6.55l.13 2.33h.07c.32-.49 1.87-2.74 5.48-2.74 4.52 0 6.9 3.19 6.9 7.11v7.65h2.04v3.48h-8.76v-3.48h1.94v-6.83c0-2.49-1.38-3.84-3.64-3.84-2.04 0-3.62 1.15-3.62 3.84v6.83h2.04v3.48h-8.76v-3.48h1.94V51.59zm23.24 0h-2.32v-3.48H195l.13 2.33h.07c.32-.49 1.87-2.74 5.48-2.74 4.52 0 6.9 3.19 6.9 7.11v7.65h2.04v3.48h-8.76v-3.48h1.94v-6.83c0-2.49-1.38-3.84-3.64-3.84-2.04 0-3.62 1.15-3.62 3.84v6.83h2.04v3.48h-8.76v-3.48h1.94V51.59zm76.06-7.29h4.77v3.82h4.77v3.48h-4.77v7.94c0 2.39.84 3.14 2.81 3.14.74 0 1.75-.2 2.12-.27v3.39c-.39.12-2.12.57-3.93.57-3.51 0-5.78-1.89-5.78-5.02v-9.73h-2.42v-3.48h2.42V44.3zm-32.15 0h4.77v3.82h4.77v3.48h-4.77v7.94c0 2.39.84 3.14 2.81 3.14.74 0 1.75-.2 2.12-.27v3.39c-.39.12-2.12.57-3.93.57-3.51 0-5.78-1.89-5.78-5.02v-9.73h-2.42v-3.48h2.42V44.3zm22.65 10.29c0-2.46-1.2-3.41-3.6-3.41-1.54 0-2.64.4-2.96.51v2.39h-3.87v-4.53c.64-.36 3.5-1.84 6.76-1.84 4.96 0 8.16 2.02 8.16 7.01v7.74h1.84v3.48h-5.77l-.14-2.43h-.07c-.35.5-1.66 2.84-5.68 2.84s-5.96-2.39-5.96-5.18c0-3.39 2.6-5.72 9.14-5.72h2.14v-.86zm-1.39 3.78c-3.88 0-5.11.82-5.11 2.35 0 1.06.75 2.15 2.62 2.15 1.91 0 3.82-1.5 3.82-4.5h-1.33zm-30.87-12.64c-.36-.13-1.76-.58-3.04-.58-2.78 0-3.88 1.51-3.88 2.84 0 1.74 1.29 2.54 2.78 2.92l2.37.62c3.33.89 7.03 2.3 7.03 7.24 0 4.53-2.91 7.58-9.36 7.58-2.49 0-5.08-.27-8.13-1.33v-6.3h4.28v3.08c.68.19 2.62.67 4.26.67 2.53 0 3.76-1.06 3.76-2.86 0-1.49-.84-2.58-3.89-3.39l-2.04-.56c-4.66-1.26-6.25-3.5-6.25-7.18 0-3.78 2.53-6.79 8.94-6.79 2.75 0 5.5.48 7.45 1.26v5.69h-4.28v-2.91zM140.1 96.68c-1.1.4-3.28 1.04-5.84 1.04-2.88 0-5.25-.73-7.12-2.51-1.64-1.58-2.65-4.12-2.65-7.09.03-5.67 3.92-9.83 10.31-9.83 2.2 0 3.92.48 4.74.87l-.59 2.01c-1.02-.45-2.29-.82-4.21-.82-4.63 0-7.65 2.88-7.65 7.65 0 4.83 2.91 7.68 7.34 7.68 1.61 0 2.71-.23 3.28-.51V89.5h-3.87v-1.98h6.27v9.16zm3.67-8.55c0-1.61-.03-2.99-.11-4.26h2.17l.08 2.68h.11c.62-1.84 2.12-2.99 3.78-2.99.28 0 .48.03.71.08v2.34c-.25-.06-.51-.08-.85-.08-1.75 0-2.99 1.33-3.33 3.19-.06.34-.11.73-.11 1.16v7.28h-2.46v-9.4zm10.33 3.02c.06 3.36 2.2 4.74 4.69 4.74 1.78 0 2.85-.31 3.78-.71l.42 1.78c-.88.4-2.37.85-4.55.85-4.21 0-6.72-2.77-6.72-6.89 0-4.12 2.43-7.37 6.41-7.37 4.46 0 5.65 3.92 5.65 6.44 0 .51-.06.9-.09 1.16h-9.59zm7.29-1.78c.03-1.58-.65-4.04-3.44-4.04-2.51 0-3.61 2.31-3.81 4.04h7.25zm13.04 8.16l-.2-1.72h-.08c-.76 1.07-2.23 2.03-4.18 2.03-2.77 0-4.18-1.95-4.18-3.92 0-3.3 2.94-5.11 8.22-5.08v-.28c0-1.13-.31-3.16-3.11-3.16-1.27 0-2.6.4-3.56 1.02l-.56-1.64c1.13-.73 2.77-1.21 4.49-1.21 4.18 0 5.2 2.85 5.2 5.59v5.11c0 1.19.06 2.34.23 3.28h-2.27zm-.37-6.97c-2.71-.06-5.79.42-5.79 3.08 0 1.61 1.07 2.37 2.34 2.37 1.78 0 2.91-1.13 3.3-2.29.09-.25.14-.54.14-.79v-2.37zm9.29-10.62v3.92h3.56v1.89h-3.56v7.37c0 1.69.48 2.65 1.86 2.65.65 0 1.13-.08 1.44-.17l.11 1.86c-.48.2-1.24.34-2.2.34-1.16 0-2.09-.37-2.68-1.04-.71-.73-.96-1.95-.96-3.56v-7.45h-2.12v-1.89h2.12v-3.28l2.43-.64zm15.58 17.59l-6.21-19.03h2.65l2.96 9.37c.82 2.57 1.52 4.88 2.03 7.11h.06c.54-2.2 1.33-4.6 2.17-7.09l3.22-9.4h2.63l-6.8 19.03h-2.71zm18.13 0l-.2-1.72h-.08c-.76 1.07-2.23 2.03-4.18 2.03-2.77 0-4.18-1.95-4.18-3.92 0-3.3 2.94-5.11 8.22-5.08v-.28c0-1.13-.31-3.16-3.11-3.16-1.27 0-2.6.4-3.56 1.02l-.56-1.64c1.13-.73 2.77-1.21 4.49-1.21 4.18 0 5.2 2.85 5.2 5.59v5.11c0 1.19.06 2.34.23 3.28h-2.27zm-.37-6.97c-2.71-.06-5.79.42-5.79 3.08 0 1.61 1.07 2.37 2.34 2.37 1.78 0 2.91-1.13 3.3-2.29.09-.25.14-.54.14-.79v-2.37zm6.41-13.07h2.48v20.05h-2.48V77.49zm6.66 0h2.48v20.05h-2.48V77.49zm8.05 13.66c.06 3.36 2.2 4.74 4.69 4.74 1.78 0 2.85-.31 3.78-.71l.42 1.78c-.88.4-2.37.85-4.55.85-4.21 0-6.72-2.77-6.72-6.89 0-4.12 2.43-7.37 6.41-7.37 4.46 0 5.65 3.92 5.65 6.44 0 .51-.06.9-.09 1.16h-9.59zm7.28-1.78c.03-1.58-.65-4.04-3.44-4.04-2.51 0-3.61 2.31-3.81 4.04h7.25zm6.38-5.5l2.99 8.08c.31.9.65 1.98.88 2.8h.06c.25-.82.54-1.86.88-2.85l2.71-8.02h2.63l-3.73 9.74c-1.78 4.69-2.99 7.09-4.69 8.56-1.21 1.07-2.43 1.5-3.05 1.61l-.62-2.09c.62-.2 1.44-.59 2.17-1.21.68-.54 1.52-1.5 2.09-2.77.11-.25.2-.45.2-.59 0-.14-.06-.34-.17-.65l-5.05-12.59h2.7z" class="st1"/></svg>