<?xml version="1.0" encoding="utf-8"?>
<!-- Generator: Adobe Illustrator 23.0.3, SVG Export Plug-In . SVG Version: 6.00 Build 0)  -->
<svg version="1.1" id="Layer_1" xmlns="http://www.w3.org/2000/svg" xmlns:xlink="http://www.w3.org/1999/xlink" x="0px" y="0px"
	 viewBox="0 0 330.83 151.67" style="enable-background:new 0 0 330.83 151.67;" xml:space="preserve">
<style type="text/css">
	.st0{fill:#FFFFFF;}
	.st1{fill:#1E407C;}
	.st2{fill:#96BEE6;}
</style>
<g>
	<g id="XMLID_336_">
		<g id="XMLID_350_">
			<path id="XMLID_351_" class="st0" d="M72.63,119.21C55.4,108.97,33.68,94.08,33.68,67.78V40.02c7.95-3.01,20.23-6.77,38.95-6.77
				c18.94,0,31.94,4.1,38.95,6.77v27.76C111.58,94.3,89.01,109.58,72.63,119.21z"/>
		</g>
		<g id="XMLID_337_">
			<path id="XMLID_343_" class="st1" d="M84.35,83.26c0-0.59,0.48-1.5,0.48-2.32c0-0.97-1.19-1.28-2.12-1.41
				c-1.95-0.27-2.6-0.18-2.6-0.61c0-0.3,0.26-0.61,0.62-1.12c0.52-0.75,1.77-1.04,2.44-1.13c0.87-0.12,1.84-0.24,3-0.24
				c1.3,0,2.4,0.19,2.91,0.28c1.19,0.21,1.38,0.71,1.38,1.27c0,0.12,0,0.42,0,0.56c0,0.56-0.46,0.85-1.3,1.04
				c-0.21,0.05-0.5,0.1-0.64,0.13c-0.6,0.13-1.35,0.25-1.62,1.01c-0.57,1.64-1.56,2.92-2.29,2.89C84.49,83.6,84.35,83.5,84.35,83.26
				z M86.07,56.88c-0.07-0.04-0.32-0.13-0.32-0.38c0-0.29,0.21-0.59,0.63-1.15c0.98-1.31,2.32-2.91,2.81-2.91
				c0.24,0,0.39,0.16,0.69,0.73c0.18,0.33,0.33,0.89,0.33,1.42c0,1.74-0.6,2.96-1.53,4.34C88.2,58.47,87.34,57.61,86.07,56.88z
				 M57.45,60.13c0.44,0,0.77-0.29,1.43-1.02c1.48-1.64,2.91-1.86,2.91-2.55c0-0.31-0.2-0.62-0.41-0.94
				c-1.58-2.47-2.25-3.8-3.19-5.59c-0.34-0.65-0.78-1.09-1.12-1.09c-0.55,0-1.12,0.64-1.46,1.18c-0.47,0.77-0.94,1.64-0.94,2.43
				c0,1.19,0.29,3.37,0.79,4.76C56,58.8,56.77,60.13,57.45,60.13z M75.23,65.82c0-1.02-1.15-2.51-3.14-2.51
				c-1.78,0-3.13,1.34-3.49,2.39c0.43,0.82,0.84,1.69,2.54,2.21c0.23,0.07,0.45,0.07,0.45,0.27c0,0.27-0.29,0.41-0.89,0.41
				c-1.93,0-3.08-0.79-3.59-1.45c-0.5,0.07-1.08,0.26-1.8,0.29c-0.59,0.02-0.86-0.37-0.86-0.9c0-0.34,0.1-0.71,0.3-1.13
				c0.11-0.23,0.23-0.47,0.32-0.64c0.3-0.59,0.76-1.89,2.52-2.9c0.2-0.12,0.74-0.44,1.01-0.6c1-0.59,1.75-0.72,2.94-0.72
				c0.09,0,0.75,0,0.87,0c1.42,0,2.15,0.4,2.78,0.93c1.27,1.07,1.97,1.65,1.97,2.45c0,0.88-0.05,1.56-0.75,2.49
				c-0.61,0.8-1.49,1.32-2.07,1.32c-0.16,0-0.21-0.09-0.21-0.18c0-0.12,0.13-0.18,0.27-0.29C74.87,66.87,75.08,66.2,75.23,65.82z
				 M83.79,93.13c-0.33,0.08-0.99,0.24-3.91,0.24c-4.42,0-5.17-1.09-5.17-1.95c0-1.44,6.34-2.45,8.84-2.45
				c2.39,0,3.45,0.77,3.45,1.35C87,91,85.92,92.61,83.79,93.13z M58.29,106.07c4.6,3.59,9.52,6.76,14.34,9.64l0,0l0,0
				c0.04-4.33-0.1-6.89,2.84-9.95c1.19-1.24,2.41-2.51,3.51-3.65c0.83-0.86,1.51-1.51,1.9-1.51c0.28,0,0.41,0.15,0.41,0.52
				c0,0.39,0.17,1.81,1.05,3.51c1.1,2.11,2.71,2.39,3.23,2.51c12.55-9.45,23.05-21.82,23.05-39.42c0-9.66,0-25.65,0-25.65
				c-3.1-1.05-15.81-5.93-36-5.93s-32.9,4.88-36,5.93c0,0,0,15.99,0,25.65c0,7.73,2.03,14.46,5.37,20.37
				c0.33-3.56,2.74-5.25,2.74-8.75c0-2.44-0.69-3.98-0.69-6.03c0-3.7,4.99-11.3,7.58-14.4c0.08-0.09,0.24-0.31,0.45-0.31
				c0.19,0,0.33,0.13,0.44,0.3c0.26,0.4,0.38,0.62,0.66,0.62c0.28,0,0.39-0.16,0.39-0.41c0-0.64-0.74-1.72-0.74-5.92
				c0-2.94,0.68-3.56,2.51-5.35c0.33-0.33,1.36-1.31,2.33-1.31c1.08,0,1.62,0.64,2.29,1.32c1.13,1.15,2.7,3.18,2.96,3.5
				c0.07,0.09,0.14,0.17,0.29,0.17c0.52,0,0.96-0.16,3.23-0.16c4.12,0,10.33,0.65,13.52,1.69c1.64,0.54,1.99,0.91,2.42,0.91
				c0.21,0,0.23-0.14,0.23-0.25c0-0.21-0.43-0.54-0.43-0.82c0-0.19,0.15-0.33,0.3-0.41c2.38-1.28,4.41-2.24,6.27-2.24
				c1.08,0,1.62,0.94,2.07,1.86c0.36,0.72,0.74,1.69,0.74,2.69c0,2.52-0.96,4.06-1.73,5.13c0.37,0.38,0.89,0.95,1.21,1.33
				c0.56,0.67,1.24,1.56,1.24,2.47c0,0.4-0.19,1.02-0.3,1.51c-0.05,0.22-0.24,0.66-0.63,0.66c-0.35-0.01-0.44-0.39-0.45-0.72
				c0-0.07,0-0.22,0-0.25c0-0.73-0.2-1.71-0.87-2.4c-0.77-0.79-1.48-1.37-2.38-1.37c-0.05,0-0.24,0-0.31,0
				c-1.47,0-2.14,0.64-2.55,1.04C84.35,62.63,84,63.2,84,63.98c0,0.44,0.3,0.97,0.71,1.78c0.24,0.48,0.85,1.61,1.18,2.19
				c0.29,0.51,0.66,0.69,1.08,0.69c1.03,0,1.92-0.14,1.92-0.45c0-0.08-0.05-0.16-0.19-0.16c-0.06,0-0.2,0.02-0.33,0.02
				c-1.34,0-2.06-1.71-2.73-3.25c0.51-0.5,1.09-1.01,2.14-1.01c1.33,0,2.21,0.9,2.21,2.06c0,0.58-0.18,1.06-0.28,1.28
				c-0.05,0.11-0.08,0.18-0.08,0.24c0,0.18,0.23,0.22,0.6,0.3c0.13,0.03,0.38,0.09,0.53,0.13c0.39,0.11,0.81,0.45,0.99,0.93
				c0.12,0.31,0.38,1.04,0.44,1.21c0.22,0.66,0.58,1.62,0.58,2.77c0,1.17-0.08,1.53-0.4,2.72c-0.41,1.52-0.59,2.1-0.66,2.94
				c0.14,0.26,0.15,0.34,0.22,0.49c0.23,0.48,0.53,1.37,0.53,2.33c0,0.26,0,0.76,0,0.79c0,1.53-0.61,2.71-1.27,3.6
				c-0.51,0.69-1.25,1.67-1.67,2.21c-0.27,0.33-0.64,0.56-1.05,0.56c-0.2,0-0.43-0.07-0.66-0.12c-0.26-0.06-0.8-0.2-1.04-0.26
				c-0.9-0.23-1.23-0.81-1.52-1.6c-0.04-0.12-0.18-0.45-0.22-0.56c-0.21-0.55-0.34-0.9-0.68-0.9c-0.25,0-0.5,0.17-0.75,0.55
				c-0.9,1.35-1.38,1.84-2.96,2.23c-0.55,0.14-1.67,0.37-2.3,0.51c-0.95,0.21-2.63,0.65-3.58,0.65c-0.2,0-0.41-0.01-0.63-0.04
				c-1.3-0.18-2.21-0.27-3.83-2.19c-2.22-2.65-1.99-3.02-2.12-6.6c-0.01-0.4-0.15-0.9-0.56-0.9c-0.37,0-0.53,0.76-0.67,1.83
				c-0.16,1.26-0.45,2.57-1.07,2.57c-0.43,0-0.73-0.07-1.39-0.28c-0.81-0.26-2.82-0.94-3.87-1.29c-1.44-0.48-2.82-0.85-3.37-2.13
				c-0.26-0.6-0.74-1.72-0.99-2.3c-0.17-0.41-0.3-0.62-0.57-0.62c-0.38,0-0.47,0.45-0.51,0.81c-0.05,0.41-0.15,1.34-0.2,1.93
				c-0.22,2.49-0.71,3.55-1.77,4.94c-0.48,0.64-0.94,1.29-1.48,1.99c-1.1,1.46-1.77,2.96-1.74,5.8c0,0.18-0.01,1.24,0,1.73
				C50.1,98.33,51.17,100.4,58.29,106.07z"/>
			<path id="XMLID_338_" class="st2" d="M91.75,68.73L91.75,68.73c0.12,0.31,0.38,1.04,0.44,1.21c0.22,0.66,0.58,1.62,0.58,2.77
				c0,1.17-0.08,1.53-0.4,2.72c-0.41,1.52-0.59,2.1-0.66,2.94c-0.11-0.24-2.28-3.97-2.45-4.28c-0.17-0.3-0.3-0.6-0.3-0.95
				c0-0.38,0.16-0.61,0.63-0.9c0.28-0.17,0.64-0.38,0.88-0.5c1.12-0.57,1.38-1.28,1.38-2.03C91.85,69.38,91.8,69.06,91.75,68.73z
				 M82.31,74.71c0.12,0.29,0.22,0.63,0.22,0.88c0,0.56-0.14,0.73-0.45,1.07c-0.19,0.17-0.39,0.34-0.58,0.51
				c-0.31,0.16-0.58,0.37-0.77,0.63c-0.35,0.51-0.62,0.82-0.62,1.12c0,0.09,0.03,0.16,0.1,0.21c-0.43-0.32-0.6-0.81-0.6-1.25
				c0-0.39,0.13-0.6,0.13-0.97c0-0.31-0.09-0.62-0.14-0.8c-0.6-2.01-1.61-4.4-2.24-6.03c-0.64-1.66-1.13-2.56-1.85-2.56
				c-0.4,0-0.75,0.2-1.17,0.2c0.57,0,1.46-0.53,2.07-1.32c0.71-0.93,0.75-1.61,0.75-2.49c0-0.37-0.16-0.7-0.45-1.06
				c0.91,0.93,1.49,2.11,2.11,3.41C80.16,69.13,81.33,72.26,82.31,74.71z M50,94.1c-0.01-0.49,0-1.54,0-1.73
				c-0.04-2.84,0.63-4.34,1.74-5.8c0.53-0.71,0.99-1.36,1.48-1.99c1.05-1.39,1.55-2.45,1.77-4.94c0.05-0.58,0.15-1.52,0.2-1.93
				c0.04-0.36,0.13-0.81,0.51-0.81c0.27,0,0.39,0.21,0.57,0.62c0.24,0.58,0.73,1.7,0.99,2.3c0.55,1.27,1.93,1.65,3.37,2.13
				c1.06,0.35,3.07,1.03,3.87,1.29c0.67,0.22,0.96,0.28,1.39,0.28c0.62,0,0.91-1.31,1.07-2.57c0.14-1.07,0.3-1.83,0.67-1.83
				c0.41,0,0.55,0.5,0.56,0.9c0.13,3.58-0.1,3.95,2.12,6.6c1.61,1.93,2.53,2.01,3.83,2.19c-0.48-0.14-1.1-0.7-1.1-1.87
				c0-0.21,0-1.14,0-1.29c0-0.64,0.08-1.3,0.4-2.04c0.15-0.35,0.33-0.98,0.49-1.36c0.28-0.66,0.15-0.82,0.15-1.28
				c0-0.49-0.16-0.97-0.55-2.14c-0.2-0.6-0.47-1.48-0.72-2.19c-0.8-2.24-1.13-2.77-3.81-3.13c-0.86-0.11-4.62-0.65-5.41-0.76
				c-3.01-0.43-5.37-0.57-6.59-2.59c-1.47-2.41-1.32-5.35-2.73-5.35c-0.67,0-1.02,0.75-1.02,1.84c0,1.15,0.43,3,0.43,6.23
				c0,2.79-0.26,3.57-1.89,5.62c-0.42,0.53-0.99,1.32-1.35,1.77c-1.21,1.52-1.75,2.37-1.67,4.14C48.94,88.99,49.67,92.36,50,94.1z
				 M80.69,104.87c0.1-1.12,0.6-2.98,0.6-3.74v0c0-0.38-0.13-0.52-0.41-0.52c-0.39,0-1.07,0.64-1.9,1.51
				c-1.11,1.15-2.33,2.41-3.51,3.65c-2.93,3.07-2.79,5.62-2.84,9.95l0,0c3.26-1.96,6.24-3.85,8.45-5.36
				C80.75,108.55,80.48,107.26,80.69,104.87z"/>
		</g>
	</g>
	<path class="st1" d="M127.25,45.56h-2.35v-3.48h10.95c5.76,0,8.77,3.02,8.77,7.33c0,5.11-4.03,7.33-8.77,7.33h-3.63v5.73h2.35v3.48
		h-9.68v-3.48h2.35V45.56z M135.34,53.26c2.49,0,4.11-1.43,4.11-3.85c0-2.2-1.42-3.85-4.18-3.85h-3.04v7.7H135.34z M150.7,58.1
		c0.14,2.83,2.32,4.57,5.66,4.57c2.94,0,4.74-0.81,5.52-1.13v3.68c-0.73,0.29-2.71,1.12-6.58,1.12c-6.88,0-9.78-4.29-9.78-9.24
		c0-5.56,3.37-9.41,8.96-9.41c6.13,0,8.62,4.64,8.62,10.39H150.7z M157.93,54.83c0-2.45-1.4-3.85-3.61-3.85
		c-2.18,0-3.44,1.43-3.65,3.85H157.93z M282.8,58.1c0.14,2.83,2.32,4.57,5.66,4.57c2.94,0,4.74-0.81,5.52-1.13v3.68
		c-0.73,0.29-2.71,1.12-6.58,1.12c-6.88,0-9.78-4.29-9.78-9.24c0-5.56,3.37-9.41,8.96-9.41c6.13,0,8.62,4.64,8.62,10.39H282.8z
		 M290.02,54.83c0-2.45-1.4-3.85-3.61-3.85c-2.18,0-3.44,1.43-3.65,3.85H290.02z M167.53,51.59h-2.32v-3.48h6.55l0.13,2.33h0.07
		c0.32-0.49,1.87-2.74,5.48-2.74c4.52,0,6.9,3.19,6.9,7.11v7.65h2.04v3.48h-8.76v-3.48h1.94v-6.83c0-2.49-1.38-3.84-3.64-3.84
		c-2.04,0-3.62,1.15-3.62,3.84v6.83h2.04v3.48h-8.76v-3.48h1.94V51.59z M190.77,51.59h-2.32v-3.48h6.55l0.13,2.33h0.07
		c0.32-0.49,1.87-2.74,5.48-2.74c4.52,0,6.9,3.19,6.9,7.11v7.65h2.04v3.48h-8.76v-3.48h1.94v-6.83c0-2.49-1.38-3.84-3.64-3.84
		c-2.04,0-3.62,1.15-3.62,3.84v6.83h2.04v3.48h-8.76v-3.48h1.94V51.59z M266.83,44.3h4.77v3.82h4.77v3.48h-4.77v7.94
		c0,2.39,0.84,3.14,2.81,3.14c0.74,0,1.75-0.2,2.12-0.27v3.39c-0.39,0.12-2.12,0.57-3.93,0.57c-3.51,0-5.78-1.89-5.78-5.02v-9.73
		h-2.42v-3.48h2.42V44.3z M234.68,44.3h4.77v3.82h4.77v3.48h-4.77v7.94c0,2.39,0.84,3.14,2.81,3.14c0.74,0,1.75-0.2,2.12-0.27v3.39
		c-0.39,0.12-2.12,0.57-3.93,0.57c-3.51,0-5.78-1.89-5.78-5.02v-9.73h-2.42v-3.48h2.42V44.3z M257.33,54.59
		c0-2.46-1.2-3.41-3.6-3.41c-1.54,0-2.64,0.4-2.96,0.51v2.39h-3.87v-4.53c0.64-0.36,3.5-1.84,6.76-1.84c4.96,0,8.16,2.02,8.16,7.01
		c0,2.93,0,7.74,0,7.74h1.84v3.48h-5.77l-0.14-2.43h-0.07c-0.35,0.5-1.66,2.84-5.68,2.84c-4.02,0-5.96-2.39-5.96-5.18
		c0-3.39,2.6-5.72,9.14-5.72c0.28,0,1.84,0,2.14,0V54.59z M255.94,58.37c-3.88,0-5.11,0.82-5.11,2.35c0,1.06,0.75,2.15,2.62,2.15
		c1.91,0,3.82-1.5,3.82-4.5H255.94z M225.07,45.73c-0.36-0.13-1.76-0.58-3.04-0.58c-2.78,0-3.88,1.51-3.88,2.84
		c0,1.74,1.29,2.54,2.78,2.92l2.37,0.62c3.33,0.89,7.03,2.3,7.03,7.24c0,4.53-2.91,7.58-9.36,7.58c-2.49,0-5.08-0.27-8.13-1.33v-6.3
		h4.28v3.08c0.68,0.19,2.62,0.67,4.26,0.67c2.53,0,3.76-1.06,3.76-2.86c0-1.49-0.84-2.58-3.89-3.39l-2.04-0.56
		c-4.66-1.26-6.25-3.5-6.25-7.18c0-3.78,2.53-6.79,8.94-6.79c2.75,0,5.5,0.48,7.45,1.26v5.69h-4.28V45.73z M140.1,96.68
		c-1.1,0.4-3.28,1.04-5.84,1.04c-2.88,0-5.25-0.73-7.12-2.51c-1.64-1.58-2.65-4.12-2.65-7.09c0.03-5.67,3.92-9.83,10.31-9.83
		c2.2,0,3.92,0.48,4.74,0.87l-0.59,2.01c-1.02-0.45-2.29-0.82-4.21-0.82c-4.63,0-7.65,2.88-7.65,7.65c0,4.83,2.91,7.68,7.34,7.68
		c1.61,0,2.71-0.23,3.28-0.51v-5.67h-3.87v-1.98h6.27V96.68z M143.77,88.13c0-1.61-0.03-2.99-0.11-4.26h2.17l0.08,2.68h0.11
		c0.62-1.84,2.12-2.99,3.78-2.99c0.28,0,0.48,0.03,0.71,0.08v2.34c-0.25-0.06-0.51-0.08-0.85-0.08c-1.75,0-2.99,1.33-3.33,3.19
		c-0.06,0.34-0.11,0.73-0.11,1.16v7.28h-2.46V88.13z M154.1,91.15c0.06,3.36,2.2,4.74,4.69,4.74c1.78,0,2.85-0.31,3.78-0.71
		l0.42,1.78c-0.88,0.4-2.37,0.85-4.55,0.85c-4.21,0-6.72-2.77-6.72-6.89c0-4.12,2.43-7.37,6.41-7.37c4.46,0,5.65,3.92,5.65,6.44
		c0,0.51-0.06,0.9-0.09,1.16H154.1z M161.39,89.37c0.03-1.58-0.65-4.04-3.44-4.04c-2.51,0-3.61,2.31-3.81,4.04H161.39z
		 M174.43,97.53l-0.2-1.72h-0.08c-0.76,1.07-2.23,2.03-4.18,2.03c-2.77,0-4.18-1.95-4.18-3.92c0-3.3,2.94-5.11,8.22-5.08v-0.28
		c0-1.13-0.31-3.16-3.11-3.16c-1.27,0-2.6,0.4-3.56,1.02l-0.56-1.64c1.13-0.73,2.77-1.21,4.49-1.21c4.18,0,5.2,2.85,5.2,5.59v5.11
		c0,1.19,0.06,2.34,0.23,3.28H174.43z M174.06,90.56c-2.71-0.06-5.79,0.42-5.79,3.08c0,1.61,1.07,2.37,2.34,2.37
		c1.78,0,2.91-1.13,3.3-2.29c0.09-0.25,0.14-0.54,0.14-0.79V90.56z M183.35,79.94v3.92h3.56v1.89h-3.56v7.37
		c0,1.69,0.48,2.65,1.86,2.65c0.65,0,1.13-0.08,1.44-0.17l0.11,1.86c-0.48,0.2-1.24,0.34-2.2,0.34c-1.16,0-2.09-0.37-2.68-1.04
		c-0.71-0.73-0.96-1.95-0.96-3.56v-7.45h-2.12v-1.89h2.12v-3.28L183.35,79.94z M198.93,97.53l-6.21-19.03h2.65l2.96,9.37
		c0.82,2.57,1.52,4.88,2.03,7.11h0.06c0.54-2.2,1.33-4.6,2.17-7.09l3.22-9.4h2.63l-6.8,19.03H198.93z M217.06,97.53l-0.2-1.72h-0.08
		c-0.76,1.07-2.23,2.03-4.18,2.03c-2.77,0-4.18-1.95-4.18-3.92c0-3.3,2.94-5.11,8.22-5.08v-0.28c0-1.13-0.31-3.16-3.11-3.16
		c-1.27,0-2.6,0.4-3.56,1.02l-0.56-1.64c1.13-0.73,2.77-1.21,4.49-1.21c4.18,0,5.2,2.85,5.2,5.59v5.11c0,1.19,0.06,2.34,0.23,3.28
		H217.06z M216.69,90.56c-2.71-0.06-5.79,0.42-5.79,3.08c0,1.61,1.07,2.37,2.34,2.37c1.78,0,2.91-1.13,3.3-2.29
		c0.09-0.25,0.14-0.54,0.14-0.79V90.56z M223.1,77.49h2.48v20.05h-2.48V77.49z M229.76,77.49h2.48v20.05h-2.48V77.49z M237.81,91.15
		c0.06,3.36,2.2,4.74,4.69,4.74c1.78,0,2.85-0.31,3.78-0.71l0.42,1.78c-0.88,0.4-2.37,0.85-4.55,0.85c-4.21,0-6.72-2.77-6.72-6.89
		c0-4.12,2.43-7.37,6.41-7.37c4.46,0,5.65,3.92,5.65,6.44c0,0.51-0.06,0.9-0.09,1.16H237.81z M245.09,89.37
		c0.03-1.58-0.65-4.04-3.44-4.04c-2.51,0-3.61,2.31-3.81,4.04H245.09z M251.47,83.87l2.99,8.08c0.31,0.9,0.65,1.98,0.88,2.8h0.06
		c0.25-0.82,0.54-1.86,0.88-2.85l2.71-8.02h2.63l-3.73,9.74c-1.78,4.69-2.99,7.09-4.69,8.56c-1.21,1.07-2.43,1.5-3.05,1.61
		l-0.62-2.09c0.62-0.2,1.44-0.59,2.17-1.21c0.68-0.54,1.52-1.5,2.09-2.77c0.11-0.25,0.2-0.45,0.2-0.59c0-0.14-0.06-0.34-0.17-0.65
		l-5.05-12.59H251.47z"/>
</g>
</svg>
