<svg id="master_logo" data-name="master logo" xmlns="http://www.w3.org/2000/svg" xmlns:xlink="http://www.w3.org/1999/xlink" viewBox="0 0 504 180.23953"><defs><style>.cls-1{fill:none;}.cls-2{fill:#231f20;}.cls-3{fill:#bd2026;}.cls-4{clip-path:url(#clip-path);}.cls-5{fill:#fff;}</style><clipPath id="clip-path"><rect class="cls-1" x="5.42951" y="1.93532" width="491.56964" height="120.12943"/></clipPath></defs><title>Pinball</title><path class="cls-2" d="M199.6738,151.386q-3.00366,2.50635-8.58008,2.50684h-7.124v12.30175h-7.10254V131.9807h14.69043a11.85126,11.85126,0,0,1,8.10009,2.64648q3.02052,2.6455,3.02051,8.19336Q202.67819,148.87913,199.6738,151.386Zm-5.45654-12.32617a5.75957,5.75957,0,0,0-3.80469-1.13672H183.9697v10.07324h6.44287a5.46353,5.46353,0,0,0,3.80469-1.22949,5.0226,5.0226,0,0,0,1.35839-3.90039A4.71737,4.71737,0,0,0,194.21726,139.0598Z"/><path class="cls-2" d="M214.67868,137.87621h-6.708v-6.1045h6.708Zm-6.708,3.01757h6.708v25.30078h-6.708Z"/><path class="cls-2" d="M241.48727,142.345q2.48438,2.05371,2.48438,6.8125v17.0371h-6.77734V150.80492a7.06413,7.06413,0,0,0-.53028-3.06348,3.72258,3.72258,0,0,0-3.68652-1.9502,4.57134,4.57134,0,0,0-4.58594,2.85547,9.87815,9.87815,0,0,0-.64453,3.85254v13.69531h-6.61523v-25.2539h6.40625v3.69043a11.19846,11.19846,0,0,1,2.40429-2.8086,8.32723,8.32723,0,0,1,5.1543-1.53222A9.69465,9.69465,0,0,1,241.48727,142.345Z"/><path class="cls-2" d="M271.72556,143.9348a14.539,14.539,0,0,1,2.83984,9.28418,16.26062,16.26062,0,0,1-2.80078,9.77246,10.1653,10.1653,0,0,1-12.87891,2.623,10.085,10.085,0,0,1-2.47265-2.59961v3.17968h-6.52149v-34.168h6.61524v12.16308a9.65775,9.65775,0,0,1,2.77929-2.69238,8.298,8.298,0,0,1,4.57813-1.16016A9.455,9.455,0,0,1,271.72556,143.9348Zm-5.5293,15.41211a9.37742,9.37742,0,0,0,1.42773-5.43164,12.17766,12.17766,0,0,0-.70117-4.45606,4.89066,4.89066,0,0,0-4.916-3.34277,4.962,4.962,0,0,0-4.98438,3.27246,12.1815,12.1815,0,0,0-.70312,4.50391,9.37889,9.37889,0,0,0,1.45117,5.38476,4.98583,4.98583,0,0,0,4.42383,2.13574A4.58677,4.58677,0,0,0,266.19626,159.34691Z"/><path class="cls-2" d="M289.18259,150.80492a10.42177,10.42177,0,0,0,2.64062-.58008A1.99171,1.99171,0,0,0,293.251,148.345a2.22224,2.22224,0,0,0-1.09571-2.14747,6.90911,6.90911,0,0,0-3.21093-.59179,4.21817,4.21817,0,0,0-3.36524,1.16113,4.77727,4.77727,0,0,0-.93945,2.32031h-6.38477a9.68757,9.68757,0,0,1,1.86524-5.4541q2.63379-3.34276,9.04492-3.34277a16.12772,16.12772,0,0,1,7.41406,1.64844q3.24024,1.64795,3.24024,6.2207v11.60547q0,1.207.04687,2.9248a3.651,3.651,0,0,0,.39453,1.76367,2.36227,2.36227,0,0,0,.97461.76661v.9746H294.04a7.28221,7.28221,0,0,1-.418-1.43945c-.07812-.44824-.13867-.959-.18555-1.53125a13.63644,13.63644,0,0,1-3.17578,2.5293,9.59167,9.59167,0,0,1-4.85547,1.23047,8.37867,8.37867,0,0,1-5.709-1.96094,6.97724,6.97724,0,0,1-2.25391-5.55957,7.20467,7.20467,0,0,1,3.625-6.75488,16.18338,16.18338,0,0,1,5.84571-1.624Zm4.04492,3.08789a7.331,7.331,0,0,1-1.2832.63769,10.80682,10.80682,0,0,1-1.77735.45313l-1.50586.27832a9.922,9.922,0,0,0-3.03906.90527,3.021,3.021,0,0,0-1.56445,2.80859,2.93439,2.93439,0,0,0,.95508,2.44922,3.62909,3.62909,0,0,0,2.32226.75391,6.90786,6.90786,0,0,0,3.99414-1.25391q1.82813-1.25244,1.89844-4.57226Z"/><path class="cls-2" d="M312.35251,166.19456h-6.61524V131.9807h6.61524Z"/><path class="cls-2" d="M325.56149,166.19456h-6.61523V131.9807h6.61523Z"/><g id="g10"><path id="path12" class="cls-3" d="M199.07623,45.23622h15.5265V94.0054h-15.5265Z"/><g id="g14"><g class="cls-4"><g id="g16"><g id="g22"><path id="path24" class="cls-3" d="M217.84472,45.23617H232.7994v6.66766h.28542c3.61974-5.23908,8.287-8.09624,15.0503-8.09624,10.668,0,16.95459,7.62,16.95459,18.47879v31.719h-15.526V65.42993c0-5.14395-2.57173-8.66854-7.62005-8.66854-5.14347,0-8.57292,4.2867-8.57292,10.2874V94.00535h-15.526Z"/></g><g id="g26"><path id="path28" class="cls-3" d="M216.15257,32.18848a9.3134,9.3134,0,1,0-9.31339,9.31291,9.31333,9.31333,0,0,0,9.31339-9.31291"/></g><g id="g30"><path id="path32" class="cls-3" d="M374.28752,44.53178c-.443-.03989-.95095-.05767-1.54535-.05767-5.90556,0-9.90587,2.57174-13.33533,8.38216h-.28542v-7.62H344.26188v48.7687h15.526V72.09715c0-10.15093,5.62158-14.85472,14.49963-14.034Z"/></g><g id="g34"><path id="path36" class="cls-3" d="M450.48,63.23843c-6.19147-1.14267-11.716-1.61887-11.716-5.04784,0-3.04841,2.95326-4.477,6.7628-4.477,4.28622,0,7.23948,1.33344,7.81082,5.71528h14.28819c-.7621-9.62044-8.19186-15.62163-22.0029-15.62163-11.52618,0-21.05149,5.33423-21.05149,15.62163,0,11.4296,9.04911,13.7159,17.52689,15.145,6.47689,1.14315,12.38246,1.61935,12.38246,6.00071,0,3.14354-2.95278,4.858-7.62,4.858-4.68265,0-7.77959-1.98117-8.72909-6.0007H423.337c1.08885,10.02552,9.88906,16.09734,23.61889,16.09734,12.764,0,22.19367-5.52452,22.19367-16.19249,0-12.47856-10.09663-14.66924-18.66955-16.0983"/></g><g id="g38"><path id="path40" class="cls-3" d="M398.3725,54.85638c5.04832,0,8.66758,3.71488,9.23939,9.52578H388.371c1.04753-5.8109,4.09594-9.52578,10.0015-9.52578m.85724,29.43267c-6.38223,0-10.00149-4.09546-10.95436-10.668h35.05329c.09514-9.90587-2.762-18.38364-8.57292-23.71739a23.98126,23.98126,0,0,0-16.66964-6.09633c-14.85905,0-25.05083,11.14417-25.05083,25.71827,0,14.76343,9.90635,25.90855,26.0037,25.90855a25.787,25.787,0,0,0,15.24058-4.477A19.84416,19.84416,0,0,0,422.47094,79.432H407.326c-1.33391,3.04793-4.0003,4.85708-8.09624,4.85708"/></g><g id="g42"><path id="path44" class="cls-3" d="M496.49431,82.50512c-.71933.02835-1.68517.07016-2.57269.07016-3.33431,0-5.42937-.95287-5.42937-4.7629V54.95175h8.00206V45.23617h-8.00206V29.8053H473.34682V45.23617h-4.7653v9.71558h4.7653V81.14622c0,10.47817,6.47737,13.43047,15.52648,13.43047a42.57554,42.57554,0,0,0,7.621-.56269Z"/></g><g id="g46"><path id="path48" class="cls-3" d="M292.81674,82.52718c-.61939.024-1.3344.04805-2.00232.04805-3.33335,0-5.42937-.95287-5.42937-4.76289V54.95171h7.43169V45.23612h-7.43169V29.80525h-15.145V45.23612h-5.05024v9.71559h5.05024V81.14617c0,10.47817,6.4769,13.43047,15.526,13.43047a46.01938,46.01938,0,0,0,7.05064-.46178Z"/></g><g id="g50"><path id="path52" class="cls-3" d="M326.63552,64.382c-.57134-5.81042-4.19156-9.52578-9.23988-9.52578-5.90556,0-8.95348,3.71536-10.00149,9.52578ZM292.0589,69.52547c0-14.57362,10.19179-25.71779,25.05132-25.71779a23.98146,23.98146,0,0,1,16.66915,6.09585c5.81043,5.33423,8.66758,13.81152,8.57244,23.71788H307.29949c.9519,6.572,4.57164,10.668,10.95388,10.668,4.09545,0,6.76281-1.80963,8.09576-4.85755h15.14544a19.84742,19.84742,0,0,1-8.19187,11.52569A25.78653,25.78653,0,0,1,318.0626,95.434c-16.09782,0-26.0037-11.14465-26.0037-25.90856"/></g><g id="g54"><path id="path56" class="cls-3" d="M172.1127,57.90487c6.09633,0,9.5253-3.61974,9.5253-9.04959,0-5.42889-3.52459-8.76272-9.5253-8.76272H160.20547V57.90487ZM144.48678,25.9h26.96185c8.28652,0,14.38285,2.28582,18.57393,6.28661A22.36593,22.36593,0,0,1,196.881,48.9509c0,13.04942-9.04911,22.2893-23.0514,22.2893H160.20547v22.765h-15.7187Z"/></g><g id="g58"><path id="path60" class="cls-5" d="M123.17288,62.00008A58.61932,58.61932,0,1,1,64.55356,3.38077a58.61951,58.61951,0,0,1,58.61932,58.61931"/></g><g id="g62"><path id="path64" class="cls-3" d="M64.55346,3.38067a58.62934,58.62934,0,0,0-21.36237,113.2244c-.51223-4.638-.97545-11.77077.20326-16.834,1.06531-4.575,6.87381-29.13764,6.87381-29.13764a21.1661,21.1661,0,0,1-1.75341-8.70313c0-8.151,4.72445-14.2363,10.60695-14.2363,5.00122,0,7.41679,3.75476,7.41679,8.25721,0,5.02958-3.20217,12.54921-4.85467,19.51767-1.381,5.83445,2.92587,10.59254,8.68055,10.59254,10.41858,0,18.42737-10.9856,18.42737-26.84316,0-14.03544-10.0851-23.84858-24.48574-23.84858-16.67925,0-26.46932,12.51028-26.46932,25.43909,0,5.03823,1.94081,10.44069,4.36262,13.37762a1.75154,1.75154,0,0,1,.40652,1.68132c-.445,1.85144-1.43386,5.833-1.628,6.648-.25564,1.073-.84956,1.30076-1.96052.78372-7.32116-3.40783-11.89858-14.11184-11.89858-22.70926,0-18.49128,13.43528-35.47326,38.73214-35.47326,20.335,0,36.13781,14.49049,36.13781,33.85584,0,20.2024-12.738,36.4612-30.41821,36.4612-5.94016,0-11.52426-3.08588-13.43576-6.73109,0,0-2.93932,11.19222-3.65193,13.935-1.32335,5.09157-4.896,11.47381-7.28561,15.36744A58.62549,58.62549,0,1,0,64.55346,3.38067"/></g></g></g></g></g></svg>