<svg xmlns="http://www.w3.org/2000/svg" role="img" viewBox="66.48 290.48 1795.04 511.04"><title>Precisely Holdings, LLC logo</title><style>svg {enable-background:new 0 0 1910.7 1074.8}</style><path fill="#8017e1" d="M1525.6 325h54.9v330.3h-54.9V325zM761.3 549.8c0 5.8-.4 12-1.3 17.4H598.4c6.2 25.9 27.2 44.2 58.9 44.2 19.2 0 39.7-7.1 52.2-23.6l37.5 29.9c-19.1 27.2-53.1 43.3-89.2 43.3-63.8 0-112.9-47.8-112.9-109.8 0-60.6 42.4-112.4 109.8-112.4 62.4 0 106.6 50.9 106.6 111zM706 526.7c-3.2-21.4-25.5-37.9-51.8-37.9-25.4 0-46 15.1-54 37.9H706zm450.6-24.5c0-5.4 3.6-13.4 21.9-13.4 11.6 0 29 3.1 47.7 16.1l29-39.3c-24.1-22.3-58.5-26.8-77.2-26.8-47.3 0-75 29-75 67.8 0 76.8 107.5 57.1 107.5 88.8 0 7.6-6.2 15.6-25.9 15.6-15.2 0-38.8-4.9-58.5-21.9l-29 41.9c19.2 14.7 44.6 29.9 83.9 29.9 53.5 0 81.7-28.6 81.7-67.4.1-75.7-106.1-61.4-106.1-91.3zm342.9 47.7c0 5.8-.5 12.1-1.4 17.3h-162c6.2 25.9 27.2 44.2 58.9 44.2 19.2 0 40.2-7.1 52.7-23.6l37.5 29.9c-19.2 27.2-53.1 43.3-89.7 43.3-63.8 0-112.9-47.8-112.9-109.8 0-60.6 42.4-112.4 109.8-112.4 62.9 0 107.1 50.9 107.1 111.1zm-55.4-23.2c-3.1-21.4-25.4-37.9-52.2-37.9-25.4 0-46 15.1-54 37.9h106.2zm-400.2-188.3c-19.6 0-34.8 14.7-34.8 34.4 0 19.6 15.2 34.8 34.8 34.8s34.4-15.2 34.4-34.8c-.1-19.6-14.8-34.4-34.4-34.4zm-150.3 270c-32.1 0-58.5-26.8-58.5-58.5s26.3-58.5 58.5-58.5c20.1 0 37.5 9.8 48.2 25l47.3-27.2c-20.1-30.3-55.3-50.4-95.5-50.4-62.5 0-112.4 49.1-112.4 111.1 0 61.1 50 111.1 112.4 111.1 40.6 0 76.8-21 96.4-52.2l-46.9-27.7c-10.2 16.6-28.5 27.3-49.5 27.3zm122.6 46.8h54.9V442.8h-54.9v212.4zM459 465.1v-22.3h-55v212.4h54.9V550.3c0-37.9 27.2-58.9 56.7-58.9 13.4 0 19.2.9 25 2.2v-54.4c-5.8-.4-11.1-.4-16.5-.4-24.5 0-47.3 5.8-65.1 26.3zm1314.5-22.3l-53.1 146.9-53.1-146.9h-60.7l87.9 218.3-38.4 107h53.6l117.8-325.3h-54zM378 549.9c0 61.4-49.7 111.1-111.1 111.1-57.8 0-105.3-44.1-110.6-100.6v207.7h-55.2V442.8h55.2v96.6c5.3-56.4 52.8-100.6 110.6-100.6 61.4 0 111.1 49.7 111.1 111.1zm-55.2-.1c0-30.8-25.1-55.8-55.9-55.8-30.8 0-55.8 25-55.8 55.8 0 30.9 25 55.9 55.8 55.9 30.8 0 55.8-25 55.9-55.9z"/></svg>