<svg id="Layer_1" data-name="Layer 1" xmlns="http://www.w3.org/2000/svg" viewBox="0 0 1600 620.43477"><defs><style>.cls-1{fill:#3a3a3a;}.cls-2{fill:#fcc176;}.cls-3{fill:#8c7099;}.cls-4{fill:#60afb4;}.cls-5{fill:#b9d099;}.cls-6{fill:#c65c75;}.cls-7{fill:#a4648d;}.cls-8{fill:#df806d;}.cls-9{fill:#f0c07f;}.cls-10{fill:#6ba6b0;}.cls-11{fill:#accd9b;}.cls-12{fill:#7c9ba9;}.cls-13{fill:#dcbe89;}.cls-14{fill:#98c5a4;}.cls-15{fill:#ee9b6f;}</style></defs><path class="cls-1" d="M1086.342,241.16827c25.48338-.091,46.98321,8.7186,63.261,28.7704a40.96675,40.96675,0,0,1,9.25433,20.69583c.69373,5.36222-1.5951,8.12291-7.206,8.54-9.703.72117-16.91947-.53353-22.93774-10.61333-13.30115-22.27765-46.92643-28.9846-69.15293-15.39647-8.68926,5.31212-14.04474,12.662-13.9247,23.4349.11975,10.74826,6.33666,17.05912,15.0098,21.637,13.92029,7.34754,29.34838,10.25783,44.26766,14.63517A229.70834,229.70834,0,0,1,1137.23,344.52606c38.1671,17.70832,33.30841,66.37916,5.96641,86.03621-31.14031,22.38771-84.29968,20.75233-113.601-4.09637-8.71669-7.39218-15.48205-16.23776-18.11879-27.61655-2.00189-8.63937.5083-11.17939,9.24432-11.86472,9.27856-.72787,16.03881.93113,20.16874,10.74441,3.58046,8.50769,11.39248,13.88618,19.87659,17.52033,19.76736,8.467,39.39416,7.37312,58.70978-1.61785a33.88632,33.88632,0,0,0,12.51792-10.37159c8.28247-10.791,6.60217-23.59115-4.30473-31.67833-9.15782-6.79033-19.89331-10.0855-30.65023-13.32817-17.48254-5.26993-35.62287-8.28682-52.16268-16.75752-33.73571-17.27739-32.44347-58.27662-14.66418-78.464,12.69413-14.41349,29.31955-20.37191,47.93454-21.83406C1080.86246,240.98454,1083.60944,241.16827,1086.342,241.16827Z"/><path class="cls-1" d="M690.81,342.53909q-.0003-43.44214.01061-86.88429c.01137-10.50723,1.47271-11.9937,11.70265-12.00491,24.04822-.02643,48.1091-.49139,72.14124.13038,25.52207.6603,47.438,9.04056,59.19206,33.80834,20.12283,42.40286-9.57827,86.94745-58.729,88.22242-16.65865.43218-33.34164.27587-50.0054-.03889-5.40584-.1021-6.981,1.59438-6.90518,6.93768.27923,19.66786.15734,39.34233.08805,59.014-.03749,10.65006-1.70233,11.855-15.41692,11.80951-10.4843-.03473-12.04922-1.4693-12.06328-11.651Q690.763,387.21078,690.81,342.53909Zm27.42829-38.51776c0,4.09241-.19863,8.19653.0426,12.27468.46276,7.82236-.53758,18.72518,1.706,22.85877,4.22195,2.10074,14.592,1.36676,22.17443,1.29659,14.69176-.13583,29.52089,1.506,44.00941-2.22861,15.9402-4.10888,24.62735-14.89993,25.34045-31.0492,1.028-23.28055-10.72723-36.3309-35.29637-37.62328-17.41951-.91636-34.91437-.334-52.37153-.64854-4.28806-.07728-5.76572,1.40174-5.6705,5.65576C718.39261,284.37439,718.24258,294.19954,718.23832,304.02133Z"/><path class="cls-1" d="M897.53254,497.7746c-15.47084.00855-17.39794-2.96645-11.68523-15.39107,6.84826-14.89463,13.36033-29.95232,20.58333-44.662,2.92429-5.95531,2.9286-10.81223.13386-16.88285C889.539,383.85848,872.90028,346.7,856.20808,309.56693c-5.02894-11.18715-2.88724-13.68287,9.21549-14.56965,9.59033-.70275,14.12663,3.27029,17.78019,11.67873,12.0846,27.812,24.87215,55.31933,37.48088,82.9021.95253,2.08366,1.03233,5.61627,3.934,5.57082,2.76941-.04344,2.96734-3.51623,3.92819-5.59239,12.96715-28.0199,25.80546-56.09936,38.72-84.14363,4.329-9.40058,14.98967-13.779,24.17632-9.70783,5.26157,2.33176,4.82895,6.69779,2.86621,11.11728-5.76317,12.97627-11.468,25.98007-17.39433,38.88192Q944.41137,416.467,911.825,487.1918C908.62046,494.18483,905.23792,500.24209,897.53254,497.7746Z"/><path class="cls-1" d="M1225.47714,497.7742c-15.6023.0002-17.48724-2.822-11.76713-15.28542,7.17145-15.6256,14.14487-31.34745,21.64671-46.813,2.27621-4.69256,2.08248-8.38852-.02944-13.02242q-25.46614-55.8732-50.474-111.95507c-2.2631-5.04725-6.55331-10.743,1.01651-14.83446,6.62119-3.57865,19.82783-.2488,22.4846,5.42253,6.7135,14.33161,13.14036,28.79746,19.68226,43.20941,6.8807,15.15824,13.70534,30.3425,20.70939,45.44359.93431,2.01459.98717,5.53984,4.05383,5.31362,2.23256-.16472,2.56906-3.22485,3.444-5.11638q19.41891-41.98119,38.70824-84.0223c4.64854-10.12325,14.27522-14.492,24.47918-10.54021,5.88061,2.27751,5.18188,6.94169,3.04683,11.61152q-10.21261,22.337-20.49042,44.64414c-20.89451,45.3594-41.88733,90.6739-62.61454,136.10953C1236.178,494.94349,1232.499,499.87743,1225.47714,497.7742Z"/><path class="cls-1" d="M1396.85282,380.48609c-.00241,17.48169.06487,34.96368-.02944,52.44488-.05116,9.50007-1.65087,10.62359-13.89116,10.60211-10.35544-.01816-12.21406-1.50794-12.231-10.64776-.06457-34.69011-.21725-69.38223.13056-104.06894.06918-6.90876-2.01831-9.351-8.70968-8.42421-2.6807.37127-5.46552-.08969-8.18616.08729-15.44411,1.00454-15.67278-2.53026-14.73717-18.64715.25671-4.42044,3.42118-6.61051,7.90633-6.61542,6.01046-.0066,12.02984-.21831,18.02849.04365,4.33947.18939,5.71551-1.54789,5.60458-5.72869a151.626,151.626,0,0,1,.34641-18.826c2.32517-23.62534,15.75118-36.78835,39.1779-38.30375,8.163-.528,16.38653-.23328,24.5804-.14029,8.62328.09785,9.02035,6.19925,8.9729,12.6054-.04686,6.31051-.18973,12.51052-8.87128,12.73259-5.18758.13273-10.38518-.00886-15.56675.22587-15.12583.68528-21.09245,6.5055-22.3158,21.54512-1.28744,15.827-1.28744,15.82656,14.13865,15.82806q10.24521.001,20.49042.00385c9.241-.0041,9.27075,6.39164,9.29248,13.05725.02153,6.59485-.73568,12.26492-9.32522,12.21007-9.01534-.05761-18.04951.33153-27.04093-.13634-6.02328-.31346-8.06341,1.42006-7.91,7.711C1397.13345,345.51594,1396.85532,363.00439,1396.85282,380.48609Z"/><path class="cls-1" d="M1487.05944,363.38367c0-11.46557-.54355-22.966.191-34.38441.49048-7.62426-2.28623-9.64457-9.19807-8.7206a62.84465,62.84465,0,0,1-9.8195.05941c-8.40892-.20961-9.82942-2.14823-9.76864-13.13053.05436-9.8296,1.71344-11.78975,10.16021-12.00446,18.43467-.46861,18.43447-.46866,18.43467-18.78819.0001-8.46264.03694-16.92554-.00991-25.38793-.03705-6.7001,2.947-10.25643,9.92293-9.92775a45.70053,45.70053,0,0,0,5.73153-.01016c7.66824-.60555,11.00161,2.81459,10.83291,10.54736-.26191,12.00586.29285,24.03685-.21455,36.02694-.26923,6.36231,1.98036,7.96871,7.94046,7.65349,8.713-.4609,17.46992-.215,26.20554-.08873,8.40792.12157,10.17713,2.48191,10.14509,12.91526-.03024,9.84812-1.77832,12.08474-9.97319,12.18278-9.28216.11111-18.56953.16227-27.84889-.03058-4.22073-.08763-6.47773.67452-6.42386,5.75091.24389,22.9285-.18642,45.8666.23638,68.79.30657,16.624,7.03569,22.83651,23.81869,23.47915,4.3627.16711,8.73652.02923,13.10182.15185,7.92354.22262,10.00372,2.8291,10.01594,12.34695.01291,10.04161-1.70543,12.41707-9.60415,12.56806-7.64231.14605-15.29553.204-22.93384-.03033-21.85465-.67041-35.66931-12.7-39.49658-34.20218a49.62439,49.62439,0,0,1-1.13555-8.09938c-.12094-12.55456-.05346-25.11091-.05346-37.66662Z"/><path class="cls-2" d="M162.35837,143.1362q17.72962-12.95915,35.46313-25.91291Q256.08438,74.89591,314.355,32.57924c11.37559-8.289,11.24055-8.39653,22.573-.14389,15.65581,11.401,31.30256,22.81623,47.07684,34.0518,4.83263,3.44217,4.66511,5.14448-1.08087,7.00037q-79.41662,25.65066-158.76024,51.52717-30.29459,9.84456-60.58738,19.69467Z"/><path class="cls-3" d="M120.15049,507.33948c76.45587,24.85621,150.84153,49.03935,226.11105,73.50983-2.92527,2.62456-5.41256,1.83943-7.59661,1.84123-62.24374.05135-124.48777-.03764-186.73083.17442-5.60593.01907-8.185-1.57556-9.853-6.99649C135.2143,553.55033,127.88857,531.37328,120.15049,507.33948Z"/><path class="cls-4" d="M566.7054,394.80234c-5.96266,25.75905-14.53367,49.82153-22.32676,74.10837-11.34583,35.35878-23.109,70.58412-34.36466,105.97113-1.87814,5.905-4.51113,8.14508-10.89885,8.0172-21.03792-.42116-42.08962-.14013-63.13585-.18793-1.85186-.00421-4.58186.22792-5.37271-.81281-1.69234-2.22731,1.04477-3.827,2.23176-5.46372q62.055-85.55772,124.24455-171.01761C559.73089,401.78176,561.01216,396.84181,566.7054,394.80234Z"/><path class="cls-5" d="M459.639,123.51758c21.75383,12.22788,40.74542,27.78211,60.6166,42.014,31.247,22.37927,62.05652,45.36856,93.25251,67.82013,4.52139,3.254,5.753,5.95886,3.88853,11.36968-6.7539,19.60039-12.95394,39.39133-19.40378,59.097-.73652,2.25018-.74829,5.60846-3.41857,6.0007-3.03847.44634-4.3202-2.897-5.84872-5.00351q-34.83274-48.00405-69.55356-96.08933-29.05484-40.03628-58.27316-79.95394C460.01182,127.554,458.25448,126.6133,459.639,123.51758Z"/><path class="cls-6" d="M94.76787,429.55412q-8.70723-26.8082-17.41562-53.616C63.09107,332.08847,48.89914,288.21585,34.45345,244.427c-1.60214-4.85647-1.22777-7.64173,3.25418-10.79306C54.89567,221.54881,71.72034,208.948,88.75,196.6356c1.90045-1.374,3.5954-3.371,7.13932-3.47162V429.12429Z"/><path class="cls-7" d="M118.13639,423.10272q75.7077,54.98769,150.90983,109.60818-.38235.73071-.76468,1.46145c-6.8779-2.15759-13.7746-4.25737-20.6307-6.48218q-62.72707-20.35509-125.448-40.72915c-3.383-1.09559-5.84006-2.43146-5.80441-6.66086.152-18.032.09114-36.06563.17382-54.09842C116.57546,425.5009,117.25292,424.80315,118.13639,423.10272Z"/><path class="cls-8" d="M116.3628,340.241V298.68128c0-36.025.21548-72.05243-.17755-108.07321-.08094-7.41779,2.48886-10.57767,9.38336-12.54715,14.15215-4.04264,28.049-8.97411,42.08763-13.42384,1.976-.62633,4.29813-2.47323,6.14359-.8516,2.2264,1.95637.5009,4.60447-.2188,6.83005Q159.487,214.2,145.28719,257.75033,132.37771,297.4226,119.432,337.083c-.4064,1.24538-.94824,2.44658-1.427,3.66834Z"/><path class="cls-9" d="M442.71325,137.75173H255.19719c-.36551-2.37749,1.73139-2.18562,3.12019-2.63764Q329.10805,112.07346,399.899,89.03377c3.27208-1.06773,5.88494-2.03,8.50759,1.64568C419.31164,105.96274,430.49749,121.04578,442.71325,137.75173Z"/><path class="cls-10" d="M494.67509,455.02323C482.6053,474.2423,469.42775,491.24357,456.804,508.633c-15.86977,21.86069-31.84851,43.64375-47.52074,65.64507-2.72733,3.82875-5.11958,4.604-9.48634,3.09162-15.21361-5.26913-30.5793-10.09782-45.84344-15.2242-1.8841-.63273-4.91979-.37593-5.06436-3.2228-.12287-2.41975,2.335-3.49066,4.07576-4.75512q64.90267-47.1392,129.89217-94.15816C485.89618,457.81861,488.94867,454.71037,494.67509,455.02323Z"/><path class="cls-11" d="M491.30593,204.8793q18.69105,25.69525,37.3817,51.39091c16.97864,23.34736,33.87318,46.75668,50.997,69.99714,3.596,4.88059,3.91056,8.46329-.08855,13.64789-10.60585,13.74964-20.42986,28.10208-31.95389,44.1488-19.789-60.77945-38.92946-119.56717-58.07-178.35487Z"/><path class="cls-12" d="M425.06031,477.01385q-22.64888,16.56443-45.30125,33.12406c-15.43287,11.25211-31.02773,22.28841-46.27,33.79223-5.2789,3.98415-9.12165,5.06227-14.82315.22942-8.51044-7.21365-17.9995-13.27482-27.08721-19.8054-3.70294-2.66089-4.335-4.71267.81387-6.37777q65.78178-21.27341,131.52906-42.65357Z"/><path class="cls-13" d="M328.83366,160.30916c3.62375-2.963,6.43958-2.00687,8.99465-2.01237,35.48422-.07656,70.97027.12239,106.45156-.20906,6.56878-.06136,9.83387,1.67186,11.54812,8.24355,2.74717,10.53115,6.4206,20.82549,9.83772,31.17533,1.72456,5.22353.74619,7.46335-5.15229,5.54888q-39.65656-12.87129-79.33819-25.66519C364.10576,171.85581,347.05663,166.25856,328.83366,160.30916Z"/><path class="cls-14" d="M493.3787,282.7252q13.53143,41.51919,27.05565,83.04068c3.11366,9.57756,6.09,19.2,9.24291,28.76434,1.11919,3.39487,1.32358,6.08223-2.14215,8.52866-11.54121,8.14678-22.89559,16.55813-35.32446,25.59735V282.91554Q492.79471,282.82035,493.3787,282.7252Z"/><path class="cls-15" d="M164.10284,273.10926c-2.3522-3.39021-1.1157-5.80681-.438-7.87891,10.7618-32.9042,21.86539-65.69838,32.37224-98.68285,2.18486-6.859,5.70566-8.709,12.39635-8.33985,9.53016.52582,19.11276.03113,28.66907.19664,2.87568.04978,6.84939-1.59243,8.40727,1.07845,1.66832,2.86021-1.92439,5.26922-3.586,7.56255q-26.17523,36.12681-52.5615,72.10058C181.12512,250.38667,172.73375,261.51456,164.10284,273.10926Z"/><path class="cls-6" d="M210.78853,465.185q-43.06888-31.07332-86.139-62.145c-2.057-1.48382-4.03688-3.02129-3.0646-6.01041,4.52624-13.915,9.07347-27.8231,14.1416-43.35291,11.28887,15.49672,21.75683,29.42179,31.74465,43.683,14.54686,20.7708,30.98562,40.19652,44.08044,62.001.817,1.36035,2.25326,2.34893,3.39718,3.50838Q212.86443,464.02491,210.78853,465.185Z"/><path class="cls-3" d="M356.83484,474.72683c-1.28623,2.44287-3.92871,2.46-6.11329,3.175-24.63636,8.0639-49.33858,15.93131-73.89706,24.22463-4.7453,1.60239-7.43448.98158-10.1722-3.21839-4.46554-6.8506-9.43709-13.37662-14.31125-19.95365-2.56131-3.45617-2.50905-5.35431,2.432-5.336q50.78885.188,101.57785.34494C356.49153,473.96392,356.63057,474.39265,356.83484,474.72683Z"/><path class="cls-9" d="M214.7659,238.18942c17.4545-23.90677,34.95979-47.77687,52.30289-71.76422,2.31556-3.20263,4.73957-4.01508,8.34179-2.81609,7.48876,2.49267,15.06051,4.738,22.53043,7.28365,1.97709.67374,4.83607,1.71507,5.30786,3.21208.8812,2.79628-2.37659,3.79492-4.27042,5.14708q-32.82831,23.43957-65.69578,46.82423C227.368,230.3054,222.62451,236.11726,214.7659,238.18942Z"/><path class="cls-13" d="M380.9233,199.5649c6.65111-.33681,10.2766,1.7925,14.10089,3.024,23.04782,7.42188,46.0007,15.1469,69.13388,22.28963,5.80867,1.79353,7.75058,4.593,7.36518,10.46248-.481,7.32482-.17857,14.70569-.09712,22.06109.05191,4.69-.86578,7.22487-5.89628,3.56649C437.87193,240.85466,410.17877,220.78916,380.9233,199.5649Z"/><path class="cls-14" d="M471.41947,346.82654c0,29.16854-.046,58.33723.058,87.50542.013,3.64191-1.4259,5.34205-4.81744,6.36711-7.55751,2.28422-14.98842,4.98465-22.5251,7.34239-1.95053.6101-4.14649,2.51-6.10007.70565-1.969-1.81871-.357-4.08861.28469-6.08389Q449.21167,408.797,460.163,374.9499c3.07337-9.504,6.19153-18.9934,9.28938-28.48942Z"/><path class="cls-6" d="M168.00991,303.45362c10.92038,34.33821,22.6699,66.41769,30.89643,99.76472-3.16242-.35195-4.55861-2.87786-6.07936-4.98485-14.32765-19.85054-28.4425-39.85639-42.94557-59.57715-2.985-4.05883-3.0201-6.87687.00587-10.72624C155.73044,320.497,161.17029,312.747,168.00991,303.45362Z"/><path class="cls-13" d="M210.78853,465.185q2.078-1.15906,4.1603-2.31594c3.5923,1.91254,4.9109,5.47588,7.36459,9.49757C216.322,472.06474,213.58924,468.56982,210.78853,465.185Z"/></svg>