<svg id="content" xmlns="http://www.w3.org/2000/svg" viewBox="0 0 1080 527.69307"><defs><style>.cls-1{fill:#231f20;}</style></defs><title>openmined-pysoft</title><path class="cls-1" d="M353.04882,406.91768q-11.65722,9.728-33.29589,9.728H292.10937V464.384h-27.5625V331.6169h57.00586q19.71387,0,31.43457,10.26856,11.72022,10.26781,11.7207,31.79541Q364.708,397.19015,353.04882,406.91768ZM331.875,359.08907q-5.269-4.41212-14.76465-4.41357h-25.001v39.09179h25.001q9.49512,0,14.76465-4.77392,5.269-4.7732,5.2705-15.13233Q337.1455,363.50387,331.875,359.08907Z"/><path class="cls-1" d="M388.75683,483.20919,392,483.38936a40.53475,40.53475,0,0,0,7.20507-.27051,12.94563,12.94563,0,0,0,5.76465-2.07128q2.25147-1.533,4.18848-6.39551,1.93653-4.86329,1.668-5.94483L374.751,366.20479h28.55274l21.4375,72.41846,20.2666-72.41846h27.292L438.64062,462.7629q-9.75732,27.92065-15.4375,34.63281-5.68212,6.709-22.72363,6.71045-3.42627,0-5.5-.04541-2.07568-.04614-6.22266-.31494Z"/><path class="cls-1" d="M509.54492,423.40108q1.2876,9.09888,5.05762,13.60108,6.89648,8.19726,23.63574,8.19628,10.02393,0,16.27734-2.16162,11.86524-4.14184,11.86426-15.40234a11.34994,11.34994,0,0,0-5.81055-10.17822q-5.814-3.5127-18.43359-6.21485l-14.374-3.15283q-21.19044-4.68237-29.11622-10.17822-13.42236-9.1875-13.42089-28.73291a38.16042,38.16042,0,0,1,13.12988-29.63428q13.13087-11.79858,38.57031-11.79932,21.24464,0,36.24512,11.124,14.99853,11.12549,15.72851,32.291H562.2373q-.73974-11.978-10.71191-17.02392-6.6504-3.33107-16.52832-3.33252-10.99072,0-17.5459,4.32373a13.67933,13.67933,0,0,0-6.55567,12.06933,11.386,11.386,0,0,0,6.46387,10.62891q4.15576,2.343,17.63867,5.49414l23.29981,5.49463q15.31786,3.60351,22.96289,9.6377,11.86962,9.36913,11.87109,27.11181,0,18.19555-14.0664,30.21924-14.0669,12.0249-39.73926,12.0249-26.21924,0-41.24219-11.84472-15.022-11.84326-15.02051-32.561Z"/><path class="cls-1" d="M614.38867,483.20919l3.24316.18017a40.53486,40.53486,0,0,0,7.20508-.27051,12.94563,12.94563,0,0,0,5.76465-2.07128q2.25147-1.533,4.18848-6.39551,1.93651-4.86329,1.668-5.94483L600.38281,366.20479h28.55273l21.4375,72.41846,20.26661-72.41846h27.292L664.27246,462.7629q-9.75734,27.92065-15.4375,34.63281-5.68214,6.709-22.72364,6.71045-3.42626,0-5.5-.04541-2.07567-.04614-6.22265-.31494Z"/><path class="cls-1" d="M753.73144,330.40108q1.98046.13476,5.4043.40527v20.897q-2.16211-.27027-7.251-.40528-5.09033-.13549-7.02539,2.25147a8.167,8.167,0,0,0-1.93652,5.26953v8.28662H759.7666v18.10449H742.92285V464.384H717.43164V385.21016H703.0205V367.10567h14.05079V360.8005q0-15.761,5.31445-21.70752,5.584-8.82642,26.93164-8.82715Q751.75049,330.26583,753.73144,330.40108Z"/><path class="cls-1" d="M764.45019,385.39034V367.10567H778.1416V339.72335H803.542v27.38232h15.94238v18.28467H803.542v51.88183q0,6.0359,1.53125,7.521,1.52929,1.48608,9.36719,1.48633,1.16894,0,2.47656-.04492,1.30518-.04469,2.56738-.13526v19.18555l-12.16015.4502q-18.19483.62914-24.85938-6.30518-4.32421-4.41212-4.32324-13.60107V385.39034Z"/><path class="cls-1" d="M328.18853,149.97774c0-16.54893,2.942-29.05257,8.8261-37.87867s14.71017-13.23915,26.84606-13.23915c6.61959,0,12.1359,1.10326,16.91668,3.67754,4.413,2.57428,8.45836,5.88407,11.03263,10.29712,2.942,4.413,4.78081,9.92936,6.25181,16.18117a120.17664,120.17664,0,0,1,1.83877,20.962c0,16.54894-2.942,29.05258-8.82611,37.87867s-14.71016,13.23914-27.21381,13.23914c-6.61958,0-12.13589-1.10326-16.54893-3.67754a32.771,32.771,0,0,1-11.03262-10.29711c-2.942-4.413-4.78082-9.92936-6.25181-16.18119A116.95585,116.95585,0,0,1,328.18853,149.97774Zm12.13589,0a101.7192,101.7192,0,0,0,1.10328,15.44568,43.97236,43.97236,0,0,0,3.67754,12.87139,24.06744,24.06744,0,0,0,6.98733,8.8261c2.942,2.20654,6.61959,3.3098,11.40037,3.3098,8.09058,0,13.97467-3.3098,18.02-9.92937q5.51631-9.92936,5.51631-30.89135a101.72039,101.72039,0,0,0-1.10327-15.44567,43.97273,43.97273,0,0,0-3.67754-12.8714,21.62248,21.62248,0,0,0-7.35509-8.82609,19.00252,19.00252,0,0,0-11.40037-3.30979q-12.13587,0-17.6522,9.92936C342.16319,125.706,340.32442,136.37084,340.32442,149.97774Z"/><path class="cls-1" d="M420.12705,153.65528v-3.30979a17.90484,17.90484,0,0,0-.36775-4.413c0-1.471-.36774-2.942-.36774-4.41305s-.36775-2.57429-.36775-3.67755h-9.5616V128.648h18.75545l1.471,9.92937h.7355a35.17252,35.17252,0,0,1,9.5616-8.45835,29.51252,29.51252,0,0,1,14.34242-3.30978c10.29712,0,17.6522,2.942,22.80077,8.45834s7.72285,14.71017,7.72285,27.2138a45.29791,45.29791,0,0,1-2.57426,16.18119,39.61684,39.61684,0,0,1-7.35508,12.13588,32.78934,32.78934,0,0,1-11.76812,7.72283,39.34879,39.34879,0,0,1-15.07792,2.57428,22.61565,22.61565,0,0,1-5.14856-.36775,18.4579,18.4579,0,0,1-4.413-.73551c-1.10327-.36775-2.57427-.36775-3.67754-1.10326a27.933,27.933,0,0,1-4.04529-1.471v26.11054H419.75939V153.65527Zm32.36237-16.18118a19.79021,19.79021,0,0,0-8.09057,1.471,28.84936,28.84936,0,0,0-6.61959,4.04529,31.98337,31.98337,0,0,0-4.78081,5.51631,21.23761,21.23761,0,0,0-2.20652,6.25182V187.1209a24.39034,24.39034,0,0,0,6.98733,3.30979,38.11578,38.11578,0,0,0,10.29713,1.10326c7.72283,0,13.60689-2.57428,18.01995-7.35508s6.98734-12.13588,6.98734-21.6975c0-8.09059-1.471-14.34241-4.78082-18.75545C465.36082,139.68061,459.84451,137.4741,452.48942,137.4741Z"/><path class="cls-1" d="M563.9189,190.79844c-1.83877,1.471-3.67754,2.942-5.88409,4.413a24.519,24.519,0,0,1-7.72286,3.30979,31.80311,31.80311,0,0,1-8.45835,2.20652,71.41528,71.41528,0,0,1-8.82608.73551,39.3491,39.3491,0,0,1-15.07794-2.57428A34.08447,34.08447,0,0,1,506.917,191.534a30.682,30.682,0,0,1-6.61959-11.76813,48.89725,48.89725,0,0,1-2.20654-15.44568c0-5.88407.73549-11.40037,2.57426-15.81342a31.32731,31.32731,0,0,1,6.98731-11.76814,29.81911,29.81911,0,0,1,11.4004-6.98732A47.445,47.445,0,0,1,533.763,127.177a43.02854,43.02854,0,0,1,11.76812,1.471,22.27071,22.27071,0,0,1,10.29713,5.88407c2.942,2.942,5.14853,6.98733,6.9873,11.76813a61.52534,61.52534,0,0,1,1.83877,19.491H509.85906c0,8.45834,2.20655,14.71016,6.9873,19.12322,4.413,4.04529,10.66485,6.25182,18.38771,6.25182a27.99576,27.99576,0,0,0,7.72286-1.10326c2.57427-.73551,4.78081-1.471,6.9873-2.20652a21.98378,21.98378,0,0,0,5.88409-2.942,19.208,19.208,0,0,0,4.04532-2.942Zm-29.788-54.4276a36.26861,36.26861,0,0,0-8.82607,1.10326,22.45258,22.45258,0,0,0-7.35509,3.30979,14.36694,14.36694,0,0,0-5.14853,6.25182,22.51954,22.51954,0,0,0-2.57427,9.19385h44.13049a23.3,23.3,0,0,0-5.88408-14.71016A22.10286,22.10286,0,0,0,534.13085,136.37084Z"/><path class="cls-1" d="M585.61643,153.65528v-3.30979a17.90342,17.90342,0,0,0-.36778-4.413c0-1.471-.36778-2.942-.36778-4.41305s-.36777-2.57429-.36777-3.67755h-9.56163V128.648h19.1232l1.10327,11.40037h.7355a41.628,41.628,0,0,1,3.67754-4.7808,36.15538,36.15538,0,0,1,5.51631-4.413,39.855,39.855,0,0,1,6.98731-2.942,28.67949,28.67949,0,0,1,8.09058-1.10326,35.74839,35.74839,0,0,1,11.4004,1.471,18.1986,18.1986,0,0,1,8.45835,5.14855,23.05431,23.05431,0,0,1,5.14854,9.92937,60.11158,60.11158,0,0,1,1.83877,15.81342v40.82071H635.99861V161.37811c0-7.72283-1.10327-13.6069-3.67754-17.65219s-6.9873-5.88406-13.97466-5.88406a14.92382,14.92382,0,0,0-6.98731,1.471,22.766,22.766,0,0,0-6.25181,4.04529,17.31333,17.31333,0,0,0-4.78081,5.51631,17.50282,17.50282,0,0,0-2.942,6.61957v44.49824H586.35181v-46.337Z"/><path class="cls-1" d="M832.74717,153.65528v-3.30979a17.90342,17.90342,0,0,0-.36778-4.413c0-1.471-.36777-2.942-.36777-4.41305s-.36778-2.57429-.36778-3.67755h-9.56163V128.648h19.1232l1.10328,11.40037h.73549a41.62916,41.62916,0,0,1,3.67754-4.7808,36.1555,36.1555,0,0,1,5.51632-4.413,39.8546,39.8546,0,0,1,6.9873-2.942,28.67918,28.67918,0,0,1,8.09058-1.10326,35.74835,35.74835,0,0,1,11.4004,1.471,18.19833,18.19833,0,0,1,8.45836,5.14855,23.05441,23.05441,0,0,1,5.14853,9.92937,60.11158,60.11158,0,0,1,1.83877,15.81342v40.82071H883.12936V161.37811c0-7.72283-1.10328-13.6069-3.67754-17.65219s-6.98731-5.88406-13.97467-5.88406a14.92385,14.92385,0,0,0-6.98731,1.471,22.76711,22.76711,0,0,0-6.2518,4.04529,17.31348,17.31348,0,0,0-4.78082,5.51631,17.50279,17.50279,0,0,0-2.942,6.61957v44.49824H833.48255v-46.337Z"/><path class="cls-1" d="M977.27454,190.79844c-1.83877,1.471-3.67754,2.942-5.88409,4.413a24.51843,24.51843,0,0,1-7.72285,3.30979,31.804,31.804,0,0,1-8.4583,2.20652,71.41431,71.41431,0,0,1-8.82608.73551,39.34907,39.34907,0,0,1-15.07794-2.57428,34.08393,34.08393,0,0,1-11.03262-7.35508,30.682,30.682,0,0,1-6.61959-11.76813,48.89725,48.89725,0,0,1-2.20654-15.44568c0-5.88407.73549-11.40037,2.57426-15.81342a31.32731,31.32731,0,0,1,6.98731-11.76814,29.81911,29.81911,0,0,1,11.4004-6.98732,47.44529,47.44529,0,0,1,14.71016-2.57428,43.02926,43.02926,0,0,1,11.76818,1.471,22.27022,22.27022,0,0,1,10.29707,5.88407c2.942,2.942,5.14853,6.98733,6.9873,11.76813a61.52534,61.52534,0,0,1,1.83877,19.491H923.21465c0,8.45834,2.20654,14.71016,6.9873,19.12322,4.413,4.04529,10.66485,6.25182,18.38771,6.25182a27.99537,27.99537,0,0,0,7.72285-1.10326c2.57433-.73551,4.78076-1.471,6.98731-2.20652a21.98273,21.98273,0,0,0,5.88409-2.942,19.20961,19.20961,0,0,0,4.04532-2.942Zm-29.7881-54.4276a36.26869,36.26869,0,0,0-8.82608,1.10326,22.45262,22.45262,0,0,0-7.35508,3.30979,14.36681,14.36681,0,0,0-5.14853,6.25182,22.51954,22.51954,0,0,0-2.57427,9.19385h44.13043a23.30036,23.30036,0,0,0-5.88408-14.71016A22.10258,22.10258,0,0,0,947.48644,136.37084Z"/><path class="cls-1" d="M1059.28366,190.43069c-.36777-1.10326-.36777-2.20652-.73555-3.67754a16.49078,16.49078,0,0,1-.36778-4.04529c0-1.471-.36777-2.942-.36777-4.04529V100.33093h-11.03263V130.119c-1.471-.36775-2.57432-.73551-4.04531-1.10326a13.06643,13.06643,0,0,0-3.67755-.73551,17.90468,17.90468,0,0,0-4.41309-.36775h-5.14853a37.46387,37.46387,0,0,0-14.71017,2.57428,32.89385,32.89385,0,0,0-11.4004,6.98733c-3.30976,2.942-5.51631,6.98733-7.35508,11.40037s-2.57432,9.92936-2.57432,15.81342c0,12.50365,2.57432,22.06525,7.72285,27.94931s12.8714,8.8261,23.53624,8.8261c5.51632,0,10.29707-1.10326,14.34239-3.67754s7.35508-5.51631,9.19385-8.8261h.73556l1.471,11.03262h19.12326v-9.19384l-10.297-.36775Zm-12.87139-16.18118q-1.65483,8.82609-6.61953,13.23914c-3.30976,2.942-7.72286,4.413-13.607,4.413a19.85017,19.85017,0,0,1-9.9294-2.20652,20.1513,20.1513,0,0,1-6.61953-5.88406,31.83639,31.83639,0,0,1-3.67754-8.8261,50.95,50.95,0,0,1-1.10322-11.03263q0-14.3424,6.61953-20.962t17.65215-6.61957a38.11443,38.11443,0,0,1,10.29707,1.10326,39.85418,39.85418,0,0,1,6.98731,2.942l.00011,33.83338Z"/><path class="cls-1" d="M756.9898,199.62454v-9.5616h24.63952V138.20961H756.9898V128.648h36.03992v61.41494h24.27179v9.5616Zm39.34968-89.732-9.19385-9.19385-9.19385,9.19385,9.19385,9.19385Z"/><path class="cls-1" d="M727.56947,100.33093l-23.53624,37.87868L680.497,100.33094H669.46437v99.2936h11.4004v-76.1251L699.62025,152.552c2.20655,3.30979,6.98731,3.30979,8.82608,0l18.75548-29.05257v76.12509h11.4004v-99.2936Z"/><path class="cls-1" d="M124.82051,29.35439,85.47083,97.3889l52.95659-30.15584h0l83.11242,83.11243h0L151.66656,29.35438C145.7825,19.05728,131.07234,19.05728,124.82051,29.35439Z"/><path class="cls-1" d="M191.01625,97.3889l30.52359,52.95659h0l-83.11242,83.11242h0l120.9911-69.87328a15.52665,15.52665,0,0,0,0-26.846Z"/><path class="cls-1" d="M55.315,150.34549l83.11243-83.11243h0L17.43631,137.10635a15.52666,15.52666,0,0,0,0,26.846l68.03451,39.3497L55.315,150.34549Z"/><path class="cls-1" d="M138.42742,233.45791h0L55.315,150.34549h0l69.87329,120.9911a15.52665,15.52665,0,0,0,26.846,0l39.34969-68.0345Z"/><polygon class="cls-1" points="138.427 150.345 188.442 150.345 138.427 100.331 138.427 150.345"/><polygon class="cls-1" points="138.427 150.345 88.413 150.345 138.427 200.36 138.427 150.345"/><polygon class="cls-1" points="138.427 150.345 138.427 200.36 188.442 150.345 138.427 150.345"/><polygon class="cls-1" points="138.427 150.345 138.427 100.331 88.413 150.345 138.427 150.345"/></svg>