<svg id="Layer_1" data-name="Layer 1" xmlns="http://www.w3.org/2000/svg" viewBox="0 0 432 190.80581"><defs><style>.cls-1{fill:#4767ab;}.cls-2{fill:none;}</style></defs><title>pytext</title><path class="cls-1" d="M37.132,16.15662c-4.99365,0-6.43618,2.21914-6.43618,7.10211v8.10051H44.0123l-1.332,13.0947H30.69581V84.18175H14.71592V44.45394H3.95159V31.35924H14.71592V23.48052c0-13.20538,5.32667-20.19681,20.19638-20.19681a75.18185,75.18185,0,0,1,9.3218.55525V16.15662Z"/><path class="cls-1" d="M45.11921,56.10611c0-14.759,6.991-25.85639,21.63945-25.85639,7.98984,0,12.87237,4.10582,15.20263,9.21069V31.35924H97.27568V84.18175H81.96129v-7.9894c-2.21914,5.10422-7.21279,9.09892-15.20263,9.09892-14.64846,0-21.63945-11.09681-21.63945-25.85584ZM61.099,59.65722c0,7.87872,2.88518,13.0947,10.32031,13.0947,6.5473,0,9.87661-4.77185,9.87661-12.31809V55.10716c0-7.5457-3.32931-12.31755-9.87661-12.31755-7.43513,0-10.32031,5.21544-10.32031,13.09471Z"/><path class="cls-1" d="M130.562,30.24972c6.21439,0,12.09576,1.33186,15.31385,3.551L142.3247,45.12a25.14933,25.14933,0,0,0-10.65322-2.44148c-8.65587,0-12.42867,4.99353-12.42867,13.53829V59.3242c0,8.54476,3.7728,13.5384,12.42867,13.5384A25.141,25.141,0,0,0,142.3247,70.421l3.55111,11.31926c-3.21809,2.21914-9.09946,3.551-15.31385,3.551-18.75427,0-27.299-10.09786-27.299-26.3V56.54981C103.26293,40.34813,111.80769,30.24972,130.562,30.24972Z"/><path class="cls-1" d="M147.98166,59.7679V55.10716c0-14.98082,8.54475-24.85744,25.96706-24.85744,16.424,0,23.63681,9.98719,23.63681,24.63565V63.3189h-33.624c.33291,7.21388,3.551,10.432,12.42867,10.432A45.38846,45.38846,0,0,0,193.369,70.53278l2.88507,10.98515c-4.217,2.22023-12.87291,3.884-20.52983,3.884C155.52747,85.402,147.98166,75.30409,147.98166,59.7679ZM163.96154,52.888h19.30909V51.55616c0-5.77025-2.33037-10.32031-9.32191-10.32031C166.73593,41.23585,163.96154,45.78591,163.96154,52.888Z"/><path class="cls-1" d="M256.84041,59.43543c0,14.759-7.10211,25.85584-21.75,25.85584-7.99049,0-13.53829-3.9947-15.75744-9.09892v7.9894H204.24035V4.83736l15.97977-1.44254v35.289c2.32983-4.66074,7.43513-8.43408,14.87026-8.43408,14.64792,0,21.75,11.09736,21.75,25.85639ZM240.86063,55.7732c0-7.43513-2.88518-12.98359-10.54265-12.98359-6.54675,0-10.09786,4.66063-10.09786,12.207v5.54835c0,7.54581,3.55111,12.207,10.09786,12.207,7.65747,0,10.54265-5.549,10.54265-12.984Z"/><path class="cls-1" d="M262.16382,59.10241V56.43913c0-15.20328,8.65542-26.18941,26.30007-26.18941,17.64367,0,26.30008,10.98613,26.30008,26.18941v2.66328c0,15.20273-8.65641,26.18886-26.30008,26.18886C270.81924,85.29127,262.16382,74.30514,262.16382,59.10241ZM298.7842,55.3295c0-6.99143-2.88627-12.53989-10.32031-12.53989-7.43513,0-10.32128,5.54846-10.32128,12.53989V60.212c0,6.99089,2.88615,12.53989,10.32128,12.53989,7.434,0,10.32031-5.549,10.32031-12.53989Z"/><path class="cls-1" d="M320.08531,59.10241V56.43913c0-15.20328,8.6564-26.18941,26.30105-26.18941,17.64367,0,26.30009,10.98613,26.30009,26.18941v2.66328c0,15.20273-8.65642,26.18886-26.30009,26.18886C328.74171,85.29127,320.08531,74.30514,320.08531,59.10241Zm36.62125-3.77291c0-6.99143-2.88507-12.53989-10.3202-12.53989s-10.3202,5.54846-10.3202,12.53989V60.212c0,6.99089,2.88508,12.53989,10.3202,12.53989s10.3202-5.549,10.3202-12.53989Z"/><path class="cls-1" d="M394.65348,56.54981l15.75865-25.19057h16.9787L410.8557,57.43753l17.2,26.74422H411.078l-16.42456-25.8565v25.8565H378.6737V4.83736l15.97978-1.44254Z"/><rect class="cls-2" x="-52.24504" y="-49.42768" width="529.74877" height="186.43194"/><path d="M142.5207,155.631q-4.13672,3.45264-11.81543,3.45215H120.8957v16.94043h-9.78076V128.9103h20.229q6.99535,0,11.15478,3.64356,4.15869,3.64454,4.15918,11.2832Q146.65791,152.17936,142.5207,155.631Zm-7.51416-16.97168a7.928,7.928,0,0,0-5.23925-1.56641H120.8957V150.965h8.87159a7.52156,7.52156,0,0,0,5.23925-1.69433q1.86988-1.69336,1.87061-5.37012Q136.87715,140.22524,135.00654,138.65933Z"/><path d="M155.19209,182.70425l1.15088.06348a14.33148,14.33148,0,0,0,2.55664-.09571,4.60324,4.60324,0,0,0,2.0459-.73535,4.91877,4.91877,0,0,0,1.48633-2.26953,5.48134,5.48134,0,0,0,.59179-2.10937l-12.80175-36.374H160.3542l7.60693,25.69824,7.1919-25.69824h9.68457l-11.94385,34.26465q-3.46289,9.9082-5.47852,12.29-2.01562,2.38037-8.06347,2.38086-1.21582,0-1.95166-.01563c-.49121-.01172-1.22705-.04785-2.208-.1123Z"/><path d="M225.19063,128.9103v8.3418H211.09492v38.77149h-9.9082V137.2521H187.02705v-8.3418Z"/><path d="M248.08516,141.8898a14.17378,14.17378,0,0,1,6.0205,5.15429,17.1255,17.1255,0,0,1,2.77539,7.20215,44.54973,44.54973,0,0,1,.29981,6.915h-25.374q.2124,5.24121,3.64355,7.35059a9.24931,9.24931,0,0,0,5.02246,1.31054,7.07388,7.07388,0,0,0,6.93262-3.99511h9.30078a11.37886,11.37886,0,0,1-3.37793,6.29687q-4.68018,5.08155-13.10644,5.082a18.9951,18.9951,0,0,1-12.27247-4.28613q-5.31591-4.2876-5.3164-13.94922,0-9.05127,4.7998-13.88281a16.795,16.795,0,0,1,12.459-4.83106A19.82975,19.82975,0,0,1,248.08516,141.8898Zm-13.62793,7.86914a9.46327,9.46327,0,0,0-2.42676,5.39258h15.69336a7.59719,7.59719,0,0,0-2.42578-5.50489,7.98658,7.98658,0,0,0-5.40332-1.87793A7.22376,7.22376,0,0,0,234.45723,149.75894Z"/><path d="M258.32051,176.02359,270.21016,158.38l-11.37793-17.13184h11.15429l5.82032,10.09083,5.68652-10.09083H292.3293l-11.44336,16.97168,11.89062,17.80372H281.42988L275.43379,165.549l-6.05469,10.47461Z"/><path d="M294.61445,147.99234v-6.48829h4.8584v-9.71679h9.01367v9.71679h5.65723v6.48829h-5.65723v18.41015q0,2.14161.54395,2.66895.542.52734,3.32422.52734.41454,0,.8789-.01562.4629-.01613.91016-.04786v6.80762l-4.31445.16016q-6.457.22266-8.82227-2.23731a6.66324,6.66324,0,0,1-1.53418-4.82617V147.99234Z"/></svg>