<svg id="Layer_1" data-name="Layer 1" xmlns="http://www.w3.org/2000/svg" viewBox="0 0 406.38 179.13"><defs><style>.cls-1{fill:#3665a3;}</style></defs><title>Pythia</title><path class="cls-1" d="M163.58148,32.78714c-18.05,0-23.248,9.577-23.248,21.273v10.947c0,13.37,7.005,22.617,24.621,22.617a86.32881,86.32881,0,0,0,20.503-2.106v-13.333a95.697,95.697,0,0,1-19.14,1.786c-7.355,0-9.578-1.62-9.578-7.86v-1.104h30.087v-10.947c0-11.806-5.192-21.273-23.245-21.273Zm6.836,21.273h-13.678v-2.121c0-3.79,1.274-6.842,6.842-6.842s6.836,3.051,6.836,6.842Zm98.447-21.238c-19.287,0-23.978,10.808-23.978,21.96v10.763c0,11.139,4.69,21.948,23.978,21.948,19.272,0,23.881-10.809,23.881-21.948v-10.763C292.74548,43.63014,288.13549,32.82215,268.86447,32.82214Zm7.464,34.306c0,3.792-1.955,6.843-7.524,6.843-5.57,0-7.51-3.051-7.51-6.843v-13.826c0-3.784,1.94-6.83,7.51-6.83,5.569,0,7.524,3.046,7.524,6.83Zm45.08-34.306c-19.287,0-23.98,10.808-23.98,21.96v10.763c0,11.139,4.693,21.948,23.98,21.948,19.271,0,23.877-10.809,23.877-21.948v-10.763C345.28549,43.63014,340.6795,32.82215,321.40847,32.82214Zm7.476,34.306c0,3.792-1.96,6.843-7.534,6.843-5.569,0-7.507-3.051-7.507-6.843v-13.826c0-3.784,1.938-6.83,7.507-6.83,5.575,0,7.534,3.046,7.534,6.83Zm-234.44-11.697v9.577c0,13.37,7.008,22.617,24.62,22.617a72.51694,72.51694,0,0,0,16.413-2.106v-13.334c-8.506,1.464-10.953,1.786-15.047,1.786-7.354,0-9.577-1.62-9.577-7.86v-11.799c0-6.241,2.223-7.861,9.577-7.861,4.094,0,6.54.32,15.047,1.775v-13.324a72.5042,72.5042,0,0,0-16.413-2.115c-17.612,0-24.62,9.27-24.62,22.643Zm-49.148-21.874h-12.392l.01-6.843c0-3.56.344-5.474,5.463-5.474h6.842V7.57114h-10.944c-13.153,0-17.782,6.632-17.782,17.783v8.204h-8.2v13.668h8.2v39.665h16.41v-39.666h10.947Zm20.72,0h-15.334l-1.368,13.668h14.026c8.58,0,9.224,1.636,9.224,7.204v2.37h-11.342c-11.142,0-17.371,3.894-17.371,14.806,0,9.256,5.336,15.945,15.37,15.945a31.37911,31.37911,0,0,0,15.49-4.011l.592,3.452h13.676v-32.447c0-15.046-4.125-20.987-22.96-20.987Zm6.547,40.17c-2.447,1.122-4.432,2.215-7.774,2.215-3.12,0-4.538-1.551-4.538-4.555,0-3.006,1.529-3.647,4.985-3.647h7.327Zm148.466-40.94a37.25232,37.25232,0,0,0-12.304,1.982V8.94114l-16.41,2.731v73.845c8.927,1.372,13.67,2.083,21.76,2.083,22.397,0,26.09-9.421,26.09-22.342v-13.32c0-11.807-2.73-19.152-19.136-19.152Zm2.73,32.58c0,5.134-1.099,8.806-9.134,8.806a52.30045,52.30045,0,0,1-5.9-.227v-25.26a18.48219,18.48219,0,0,1,8.2-2.215c5.58,0,6.833,3.047,6.833,6.831Zm175.45-31.81h-17.776l-15.04,23.81V8.94114l-16.413,2.731v75.219h16.412v-25.073l15.04,25.073h17.778l-16.42-27.357Z"/><path d="M138.554,139.69853q-4.2583,3.55371-12.16309,3.55371H116.29226v17.43945H106.22341v-48.501h20.8252q7.20117,0,11.48291,3.751,4.28173,3.75147,4.28174,11.61524Q142.81326,136.1453,138.554,139.69853Zm-7.73486-17.47168a8.1599,8.1599,0,0,0-5.39356-1.61231h-9.1333v14.28028h9.1333a7.74457,7.74457,0,0,0,5.39356-1.74414q1.9248-1.74316,1.92529-5.52833Q132.74441,123.84013,130.81912,122.22685Z"/><path d="M151.59841,167.56864l1.18457.06543a14.71045,14.71045,0,0,0,2.63233-.09863,4.71684,4.71684,0,0,0,2.106-.75684,5.064,5.064,0,0,0,1.53028-2.33593,5.64483,5.64483,0,0,0,.60888-2.17188l-13.17871-37.44531h10.43116l7.83105,26.45508,7.40332-26.45508h9.97022l-12.2959,35.27441q-3.56471,10.19971-5.63965,12.65137-2.07495,2.45069-8.30127,2.45117-1.25171,0-2.00928-.0166-.75805-.01611-2.273-.11523Z"/><path d="M183.97634,131.83427v-6.67969h5.00147V115.15165h9.27929v10.00293h5.82422v6.67969H198.2571v18.95312q0,2.2046.55909,2.74805.55956.542,3.42236.542.427,0,.9043-.01562.47754-.01611.93847-.04981v7.00879l-4.44238.16406q-6.64673.23-9.08154-2.30273a6.8563,6.8563,0,0,1-1.57959-4.96875v-22.0791Z"/><path d="M235.87917,125.0247a10.53262,10.53262,0,0,1,4.43946,3.52344,9.402,9.402,0,0,1,1.80175,4.13379,51.23,51.23,0,0,1,.32813,6.93164v21.07812h-9.5752V138.85185a9.67247,9.67247,0,0,0-.98046-4.67774q-1.27442-2.50341-4.834-2.5039a6.63033,6.63033,0,0,0-5.60156,2.4873q-1.91163,2.4873-1.91016,7.09863v19.43555h-9.37793V112.35478h9.37793v17.11035a11.46452,11.46452,0,0,1,4.70117-4.35938,13.22464,13.22464,0,0,1,5.61817-1.23437A15.17756,15.17756,0,0,1,235.87917,125.0247Z"/><path d="M260.90749,120.54814h-9.50976v-8.65332h9.50976Zm-9.50976,4.27734h9.50976v35.86621h-9.50976Z"/><path d="M284.1946,138.87626a14.80987,14.80987,0,0,0,3.74512-.82324,2.821,2.821,0,0,0,2.02246-2.665,3.15028,3.15028,0,0,0-1.55176-3.043,9.79714,9.79714,0,0,0-4.55273-.83984q-3.36768,0-4.76953,1.64551a6.7902,6.7902,0,0,0-1.334,3.29h-9.04882a13.72338,13.72338,0,0,1,2.64355-7.73242q3.73534-4.7373,12.82324-4.73828a22.86427,22.86427,0,0,1,10.50879,2.33692q4.5923,2.33642,4.59278,8.81835v16.45215q0,1.71095.06542,4.14551a5.21372,5.21372,0,0,0,.55958,2.501,3.35856,3.35856,0,0,0,1.38183,1.08593v1.38184H291.08035a10.40442,10.40442,0,0,1-.5918-2.04q-.16552-.95361-.26367-2.17187a19.36971,19.36971,0,0,1-4.501,3.58691,13.60859,13.60859,0,0,1-6.88379,1.74414,11.879,11.879,0,0,1-8.09277-2.78125q-3.19337-2.77881-3.19336-7.87988,0-6.61377,5.13769-9.5752a22.94155,22.94155,0,0,1,8.28711-2.30371Zm5.7334,4.376a10.39875,10.39875,0,0,1-1.81738.90527,15.36423,15.36423,0,0,1-2.51856.6416l-2.13476.39453a14.074,14.074,0,0,0-4.31055,1.28321,4.28408,4.28408,0,0,0-2.21484,3.98144,4.15942,4.15942,0,0,0,1.35254,3.47168,5.14392,5.14392,0,0,0,3.291,1.06934,9.79813,9.79813,0,0,0,5.66309-1.77735q2.58984-1.77686,2.68945-6.48144Z"/></svg>