<svg id="Layer_1" data-name="Layer 1" xmlns="http://www.w3.org/2000/svg" viewBox="0 0 2203.53044 912.9223"><defs><style>.cls-1{fill:#0f0f0f;}.cls-2{fill:#0da3e4;}</style></defs><path class="cls-1" d="M1098.28935,34.59109c30.09314,0,60.18889.21471,90.27795-.13848,8.39134-.0985,13.67478,2.62637,17.91033,10.092q45.14454,79.57137,90.97291,158.75406c3.78095,6.5503,4.20818,12.26343.24235,18.84155-7.65143,12.69113-15.11759,25.5131-22.08829,38.58581-2.86061,5.36448-5.21373,6.47694-10.58658,3.11032-4.69176-2.9398-6.94878-4.7241-3.19867-10.53178,7.12636-11.036,13.07071-22.82751,19.851-34.09793,2.48079-4.12375,3.12449-7.33952.50178-11.8739q-43.55283-75.298-86.58728-150.89469c-2.87435-5.05213-6.00875-6.96619-11.8819-6.94281q-85.71361.34116-171.42885-.00251c-5.49452-.02176-8.55858,1.726-11.20036,6.37268Q958.089,131.4716,914.65484,206.82061c-2.87311,4.96185-2.27982,8.17267.28408,12.62315q43.15447,74.9097,85.87541,150.06769c2.97471,5.25062,6.33685,6.79458,12.0017,6.62708,12.49971-.36951,25.03137.23132,37.523-.25691,6.43412-.2515,7.09169,2.71449,6.98048,7.88529-.10414,4.841-.01709,8.32512-6.74006,8.12125-15.20167-.461-30.42706-.17737-45.64255-.12915-6.40465.0203-10.73493-3.031-13.84159-8.4657Q944.67034,302.07859,898.083,220.957c-3.49135-6.06278-2.90091-10.9781.49943-16.87523q46.21551-80.14989,91.925-160.59065c3.85184-6.77806,8.95938-9.07132,16.48889-9.00731C1037.42537,34.74248,1067.858,34.59109,1098.28935,34.59109Z"/><path class="cls-2" d="M1156.98775,391.74288c-11.13182-.00037-22.28048-.3675-33.38927.13906-6.53146.29786-7.78121-2.27513-7.88461-8.19535-.11318-6.47007,2.33975-7.87353,8.28225-7.7804,19.89739.31189,39.80828-.14035,59.70221.269,6.27685.12915,9.60171-2.0305,12.56089-7.45917,9.66523-17.73046,20.03435-35.076,29.8534-52.72488,2.89515-5.20379,5.4365-6.25018,10.98062-3.02226,5.67748,3.30567,5.4812,6.00425,2.50011,11.04917q-17.22285,29.14825-33.72474,58.72025c-3.5204,6.27506-8.35011,9.173-15.48626,9.05411C1179.25363,391.60692,1168.11958,391.74325,1156.98775,391.74288Z"/><path d="M151.20485,678.42308q-20.11552,15.75177-48.9467,15.7488-19.38725,0-34.7704-7.02721a74.57906,74.57906,0,0,1-25.92794-19.2624,85.13622,85.13622,0,0,1-16.11343-28.83414,115.85318,115.85318,0,0,1,0-70.99739A85.21178,85.21178,0,0,1,41.55981,539.2166a74.68223,74.68223,0,0,1,25.92794-19.26438q15.38464-7.02423,34.7704-7.02721,19.38279,0,34.65052,7.02721a74.99485,74.99485,0,0,1,25.80606,19.26438,85.24527,85.24527,0,0,1,16.11343,28.83414,110.86134,110.86134,0,0,1,5.57262,35.4987q0,21.32536-6.66257,38.76854a82.30916,82.30916,0,0,1-19.26438,29.80519l26.897,19.38328-5.57361,7.51273ZM149.993,666.065a77.24462,77.24462,0,0,0,17.6889-27.62331,97.78968,97.78968,0,0,0,6.05814-34.89228,100.52927,100.52927,0,0,0-4.84631-31.49957,77.49259,77.49259,0,0,0-14.05442-25.80606,68.42188,68.42188,0,0,0-22.41334-17.568q-13.2102-6.54267-30.16785-6.54169-16.96309,0-30.28774,6.54169a68.006,68.006,0,0,0-22.53522,17.568,77.34989,77.34989,0,0,0-14.05342,25.80606,104.79182,104.79182,0,0,0,0,62.99913,77.29185,77.29185,0,0,0,14.05342,25.80606,67.98042,67.98042,0,0,0,22.53522,17.568q13.32317,6.54268,30.28774,6.54169,23.98882,0,40.4659-12.8416l-26.16971-18.658,5.57361-7.51273Z"/><path d="M233.98262,517.045V620.75282q0,5.08907.48454,11.87253a73.97223,73.97223,0,0,0,7.87538,27.98794,42.38585,42.38585,0,0,0,9.57076,12.35806,45.59858,45.59858,0,0,0,14.90259,8.72158q8.842,3.27283,21.44428,3.27184,15.99255,0,26.77513-4.48267a42.86492,42.86492,0,0,0,17.44614-12.8416,51.71133,51.71133,0,0,0,9.57076-20.23344,112.21005,112.21005,0,0,0,2.90818-26.65424V517.045h10.6617V620.75282a120.721,120.721,0,0,1-3.27184,28.83414,60.86281,60.86281,0,0,1-11.02435,23.26152,52.36916,52.36916,0,0,1-20.718,15.62989q-12.965,5.68954-32.34775,5.69351-15.26574,0-26.16971-3.87626a55.88978,55.88978,0,0,1-18.05156-10.05529,47.2251,47.2251,0,0,1-11.2681-14.1753,81.27843,81.27843,0,0,1-8.96534-31.86421q-.4875-7.6336-.48453-13.448V517.045Z"/><path d="M456.817,517.045H468.4478l68.331,173.00881h-11.388l-21.80793-55.48838H420.71292l-22.04969,55.48838h-11.389Zm43.37309,108.31134L463.117,527.465h-.48453l-38.52678,97.89142Z"/><path d="M573.36444,517.045h13.32712L695.973,675.75766h.48453V517.045h10.6617V690.05384H694.51936L584.51067,530.13038h-.48453V690.05384h-10.6617Z"/><path d="M749.30919,526.25214V517.045H881.85211v9.20711h-61.061v163.8017h-10.6617V526.25214Z"/><path d="M936.73408,517.045V620.75282q0,5.08907.48454,11.87253a73.97223,73.97223,0,0,0,7.87538,27.98794,42.386,42.386,0,0,0,9.57076,12.35806,45.59858,45.59858,0,0,0,14.90259,8.72158q8.842,3.27283,21.44428,3.27184,15.99255,0,26.77513-4.48267a42.86485,42.86485,0,0,0,17.44614-12.8416,51.71133,51.71133,0,0,0,9.57076-20.23344,112.21005,112.21005,0,0,0,2.90818-26.65424V517.045h10.6617V620.75282a120.72151,120.72151,0,0,1-3.27183,28.83414,60.863,60.863,0,0,1-11.02436,23.26152,52.36916,52.36916,0,0,1-20.718,15.62989q-12.965,5.68954-32.34775,5.69351-15.26574,0-26.16971-3.87626a55.88989,55.88989,0,0,1-18.05156-10.05529,47.22525,47.22525,0,0,1-11.2681-14.1753,81.27843,81.27843,0,0,1-8.96534-31.86421q-.4875-7.6336-.48453-13.448V517.045Z"/><path d="M1119.2225,517.045h15.26525l67.60467,161.1343h.48354l66.87737-161.1343h15.26525V690.05384h-10.66169V530.13038h-.48355L1207.665,690.05384h-10.6617l-66.6356-159.92346h-.48355V690.05384H1119.2225Z"/><path d="M1353.35177,518.03589h69.301q15.505,0,25.92694,3.87626a45.94161,45.94161,0,0,1,16.71984,10.17816,37.37282,37.37282,0,0,1,9.08623,14.41707,50.1725,50.1725,0,0,1,2.7863,16.3552,36.83929,36.83929,0,0,1-2.42365,13.32712,34.46325,34.46325,0,0,1-6.90434,11.14722,39.768,39.768,0,0,1-24.35345,12.35607l.48552.48553q1.6914-.23781,7.99627,1.45458a44.00013,44.00013,0,0,1,13.20624,6.4208,45.92511,45.92511,0,0,1,12.35607,13.08337q5.4547,8.3619,5.45372,21.44428a47.10161,47.10161,0,0,1-4.36179,20.83985,42.86333,42.86333,0,0,1-12.23717,15.14437,54.35986,54.35986,0,0,1-19.02062,9.328,90.67194,90.67194,0,0,1-24.71611,3.15095h-69.301Zm69.301,78.50814q22.04771,0,32.95415-9.81352,10.90347-9.81252,10.90347-25.80606,0-9.44986-3.63449-15.87166a30.03158,30.03158,0,0,0-9.69263-10.41794,40.5467,40.5467,0,0,0-13.93155-5.69549,78.88915,78.88915,0,0,0-16.59895-1.69636h-58.63934v69.301Zm0,85.29357q23.26053,0,36.46775-9.81352,13.20426-9.81549,13.20624-29.44253,0-11.14128-4.60554-18.29333a34.13768,34.13768,0,0,0-11.75164-11.26811,49.02847,49.02847,0,0,0-15.99255-5.6935,98.8924,98.8924,0,0,0-17.32426-1.57547h-58.63934V681.8376Z"/><path d="M1531.02359,518.03589h10.6617V681.8376h98.13517v9.20711H1531.02359Z"/><path d="M1738.71067,518.03589h11.63076l68.332,173.00882h-11.389l-21.80694-55.48839h-82.86991l-22.05069,55.48839h-11.389Zm43.37408,108.31134-37.07417-97.89141h-.48354l-38.52678,97.89141Z"/><path d="M1843.116,604.5403a110.7519,110.7519,0,0,1,5.57262-35.49869,85.17854,85.17854,0,0,1,16.11343-28.83415,74.68757,74.68757,0,0,1,25.927-19.26437q15.38613-7.02424,34.7714-7.02721,15.26722,0,26.41247,3.99913a67.53688,67.53688,0,0,1,18.77885,9.9344,59.00106,59.00106,0,0,1,12.47895,12.96248,71.95368,71.95368,0,0,1,7.38986,13.20624,65.08974,65.08974,0,0,1,3.5136,10.66169q.96609,4.48565.96907,4.9682h-10.6617a51.74089,51.74089,0,0,0-7.02721-19.50615,53.81828,53.81828,0,0,0-13.32712-14.66083,59.30535,59.30535,0,0,0-17.8078-9.20711,67.49342,67.49342,0,0,0-20.719-3.149q-16.96161,0-30.28873,6.54168a68.00216,68.00216,0,0,0-22.53423,17.568,77.36909,77.36909,0,0,0-14.05441,25.80606,104.81228,104.81228,0,0,0,0,62.99914,77.31121,77.31121,0,0,0,14.05441,25.80606,67.97656,67.97656,0,0,0,22.53423,17.568q13.32315,6.54267,30.28873,6.54168a54.57768,54.57768,0,0,0,23.62616-5.21A64.63837,64.63837,0,0,0,1968.389,666.935a68.31512,68.31512,0,0,0,13.20623-19.87079,67.61169,67.61169,0,0,0,5.69549-23.38241h10.65971a84.943,84.943,0,0,1-7.63163,28.59237,80.0608,80.0608,0,0,1-15.75078,22.6571,69.116,69.116,0,0,1-22.17157,14.90259,68.35971,68.35971,0,0,1-26.896,5.33085q-19.38725,0-34.7714-7.02721a74.614,74.614,0,0,1-25.927-19.26437,85.10314,85.10314,0,0,1-16.11343-28.83415A110.7431,110.7431,0,0,1,1843.116,604.5403Z"/><path d="M2043.23092,518.03589h10.66169v99.58778l108.79687-99.58778h13.81264l-78.99366,71.96645,83.839,101.04237h-13.32712L2089.754,597.27132l-35.86135,32.7104v61.063h-10.66169Z"/><path d="M413.58564,787.84221l31.10817,79.32659h-8.11022l-9.66588-24.66458H390.80964l-9.5549,24.66458h-7.99925l31.887-79.32659Zm10.77664,48.21743-15.33164-40.66308-15.88752,40.66308Z"/><path d="M520.35322,787.84221,546.68444,857.391l27.332-69.54875H585.126V867.1688h-7.55435v-68.55h-.22295l-27.109,68.55h-7.11044l-26.10828-68.55H516.798v68.55h-7.55435V787.84221Z"/><path d="M668.73015,803.67424a22.3932,22.3932,0,0,0-5.55479-6.05616,24.85184,24.85184,0,0,0-7.22142-3.72169,26.73932,26.73932,0,0,0-8.27767-1.27623,28.60888,28.60888,0,0,0-13.554,2.99835,26.85994,26.85994,0,0,0-9.27746,7.94475,34.194,34.194,0,0,0-5.33283,11.16506,48.05512,48.05512,0,0,0,0,25.49889,34.11627,34.11627,0,0,0,5.33283,11.22054,26.85973,26.85973,0,0,0,9.27746,7.94475,28.60888,28.60888,0,0,0,13.554,2.99836,24.10682,24.10682,0,0,0,9.9998-1.99957,23.68736,23.68736,0,0,0,7.66532-5.4438,27.90209,27.90209,0,0,0,5.22185-8.05573,33.57146,33.57146,0,0,0,2.55544-9.94233H680.674a42.8052,42.8052,0,0,1-3.44424,13.22011,32.4326,32.4326,0,0,1-6.88849,9.9998,29.298,29.298,0,0,1-9.94332,6.3336,34.90517,34.90517,0,0,1-12.7217,2.22152,37.43487,37.43487,0,0,1-16.38691-3.38876,34.016,34.016,0,0,1-11.72192-9.05451,38.49365,38.49365,0,0,1-6.99947-13.11111,53.76642,53.76642,0,0,1,0-31.32914,39.12818,39.12818,0,0,1,6.99947-13.1666,33.731,33.731,0,0,1,11.72192-9.11,39.70739,39.70739,0,0,1,27.442-1.72212,32.07035,32.07035,0,0,1,9.77685,4.94441,28.86011,28.86011,0,0,1,7.3324,8.05375,27.13734,27.13734,0,0,1,3.72267,11.00057h-7.55534A25.37153,25.37153,0,0,0,668.73015,803.67424Z"/><path d="M713.11491,787.84221v42.66264l46.10688-42.66264h10.22175L734.00133,820.618l37.10885,46.55079h-9.77686l-32.99775-41.33092-15.22066,14.11189v27.219h-7.55534V787.84221Z"/><path d="M798.99606,787.84221V867.1688h-7.55435V787.84221Z"/><path d="M837.21369,787.84221l46.21786,67.10528h.22195V787.84221h7.55534V867.1688H882.7647l-46.21787-67.10527h-.22195V867.1688h-7.55534V787.84221Z"/><path d="M925.87223,851.28129a16.75971,16.75971,0,0,0,5.50029,6.55555,22.91571,22.91571,0,0,0,8.27669,3.49974,47.31054,47.31054,0,0,0,10.22175,1.05428,28.90567,28.90567,0,0,0,6.77652-.88782,23.543,23.543,0,0,0,6.833-2.83387,17.39417,17.39417,0,0,0,5.27734-4.9999,12.67931,12.67931,0,0,0,2.11054-7.38788,10.82584,10.82584,0,0,0-1.49918-5.77674,13.73428,13.73428,0,0,0-3.88914-4.11208,23.0684,23.0684,0,0,0-5.27734-2.72092,51.70111,51.70111,0,0,0-5.66576-1.72212l-17.66513-4.33206a52.65694,52.65694,0,0,1-6.722-2.22349,19.06348,19.06348,0,0,1-5.72125-3.55522,16.84088,16.84088,0,0,1-3.94463-5.44381,18.616,18.616,0,0,1-1.50016-7.88728,25.16266,25.16266,0,0,1,1.11175-6.77751,18.81777,18.81777,0,0,1,4.16559-7.33239,24.30315,24.30315,0,0,1,8.38865-5.83421q5.33283-2.387,13.666-2.388a39.8946,39.8946,0,0,1,11.22054,1.55566,27.70437,27.70437,0,0,1,9.33295,4.665,22.46914,22.46914,0,0,1,8.77707,18.44395H968.091a18.40294,18.40294,0,0,0-2.05506-7.94475,17.79073,17.79073,0,0,0-4.77695-5.66576,20.98938,20.98938,0,0,0-6.77751-3.44425,27.54435,27.54435,0,0,0-8.05473-1.16525,33.26907,33.26907,0,0,0-7.49985.83232,18.74761,18.74761,0,0,0-6.33262,2.66741,13.77218,13.77218,0,0,0-4.38853,4.83145,15.1659,15.1659,0,0,0-1.66664,7.44535,11.46545,11.46545,0,0,0,.9443,4.83146,10.17251,10.17251,0,0,0,2.61092,3.49973,13.79739,13.79739,0,0,0,3.83267,2.33447,28.96758,28.96758,0,0,0,4.61148,1.4427l19.33175,4.778a55.729,55.729,0,0,1,7.94376,2.72289,26.34206,26.34206,0,0,1,6.55457,3.99913,16.90217,16.90217,0,0,1,4.444,5.83223,19.57746,19.57746,0,0,1,1.61115,8.33316,30.51222,30.51222,0,0,1-.27745,3.55522,17.97215,17.97215,0,0,1-1.3337,4.72246,23.61853,23.61853,0,0,1-2.99934,5.05539,18.892,18.892,0,0,1-5.33283,4.6095,30.87081,30.87081,0,0,1-8.38866,3.33326,49.0902,49.0902,0,0,1-11.99837,1.27822,50.06887,50.06887,0,0,1-12.99915-1.61115,27.9589,27.9589,0,0,1-10.22175-4.94441,21.7315,21.7315,0,0,1-6.49908-8.55512,28.016,28.016,0,0,1-1.94407-12.55424h7.55435A22.3262,22.3262,0,0,0,925.87223,851.28129Z"/><path d="M1058.52613,787.84221v6.44458h-47.21764V822.9505h44.2183v6.44458h-44.2183v31.32914H1059.082v6.44458h-55.32886V787.84221Z"/><path d="M1073.96875,787.84221h8.88805l26.10827,40.21917,25.99829-40.21917h8.999L1112.63127,834.504V867.1688h-7.55435V834.504Z"/><path d="M1263.11973,803.67424a22.44087,22.44087,0,0,0-5.55478-6.05616,24.83794,24.83794,0,0,0-7.2234-3.72169,26.736,26.736,0,0,0-8.2757-1.27623,28.6075,28.6075,0,0,0-13.555,2.99835,26.84753,26.84753,0,0,0-9.27647,7.94475,34.194,34.194,0,0,0-5.33283,11.16506,48.05512,48.05512,0,0,0,0,25.49889,34.11627,34.11627,0,0,0,5.33283,11.22054,26.84732,26.84732,0,0,0,9.27647,7.94475,28.6075,28.6075,0,0,0,13.555,2.99836,24.09742,24.09742,0,0,0,9.99782-1.99957,23.70627,23.70627,0,0,0,7.6673-5.4438,27.96371,27.96371,0,0,0,5.22186-8.05573,33.60137,33.60137,0,0,0,2.55445-9.94233h7.55434a42.69482,42.69482,0,0,1-3.44424,13.22011,32.42756,32.42756,0,0,1-6.88651,9.9998,29.31171,29.31171,0,0,1-9.94431,6.3336,34.90351,34.90351,0,0,1-12.72071,2.22152,37.44079,37.44079,0,0,1-16.38889-3.38876,33.98989,33.98989,0,0,1-11.71994-9.05451,38.47641,38.47641,0,0,1-6.99946-13.11111,53.72257,53.72257,0,0,1,0-31.32914,39.11045,39.11045,0,0,1,6.99946-13.1666,33.70541,33.70541,0,0,1,11.71994-9.11,39.71,39.71,0,0,1,27.443-1.72212,32.087,32.087,0,0,1,9.77785,4.94441,28.87493,28.87493,0,0,1,7.33239,8.05375,27.13643,27.13643,0,0,1,3.72168,11.00057h-7.55434A25.43884,25.43884,0,0,0,1263.11973,803.67424Z"/><path d="M1298.05958,811.84094a39.14553,39.14553,0,0,1,6.99946-13.1666,33.731,33.731,0,0,1,11.72192-9.11,41.18593,41.18593,0,0,1,32.72031,0,33.866,33.866,0,0,1,11.66445,9.11,39.11064,39.11064,0,0,1,6.99947,13.1666,53.72279,53.72279,0,0,1,0,31.32914,38.4766,38.4766,0,0,1-6.99947,13.11111,34.15367,34.15367,0,0,1-11.66445,9.05451,41.18582,41.18582,0,0,1-32.72031,0,34.016,34.016,0,0,1-11.72192-9.05451,38.51052,38.51052,0,0,1-6.99946-13.11111,53.7662,53.7662,0,0,1,0-31.32914Zm6.944,28.38627a34.11627,34.11627,0,0,0,5.33283,11.22054,26.87215,26.87215,0,0,0,9.27845,7.94475,28.60476,28.60476,0,0,0,13.553,2.99836,28.28348,28.28348,0,0,0,13.49953-2.99836,27.021,27.021,0,0,0,9.221-7.94475,34.19527,34.19527,0,0,0,5.33283-11.22054,48.05512,48.05512,0,0,0,0-25.49889,34.27392,34.27392,0,0,0-5.33283-11.16506,27.02117,27.02117,0,0,0-9.221-7.94475,28.28348,28.28348,0,0,0-13.49953-2.99835,28.60476,28.60476,0,0,0-13.553,2.99835,26.87236,26.87236,0,0,0-9.27845,7.94475,34.194,34.194,0,0,0-5.33283,11.16506,48.05512,48.05512,0,0,0,0,25.49889Z"/><path d="M1406.49577,787.84221,1432.827,857.391l27.33-69.54875h11.11155V867.1688h-7.55633v-68.55h-.222l-27.10805,68.55h-7.11044l-26.10927-68.55h-.22195v68.55h-7.55633V787.84221Z"/><path d="M1535.37348,787.84221a29.38707,29.38707,0,0,1,9.66489,1.50017,20.33855,20.33855,0,0,1,7.44337,4.443,19.68365,19.68365,0,0,1,4.778,7.16593,28.22278,28.22278,0,0,1,0,19.10981,19.65023,19.65023,0,0,1-4.778,7.16592,20.34251,20.34251,0,0,1-7.44337,4.445,29.43907,29.43907,0,0,1-9.66489,1.50017h-27.66492V867.1688h-7.55435V787.84221Zm-1.66663,38.88547q7.88629,0,12.7762-3.99913,4.88694-4.0011,4.88892-12.22132,0-8.22217-4.88892-12.22131-4.88991-4.00112-12.7762-3.99913h-25.99829v32.44089Z"/><path d="M1606.92377,787.84221,1638.031,867.1688h-8.10923l-9.66687-24.66458h-36.10709l-9.55589,24.66458h-7.99825l31.886-79.32659Zm10.77664,48.21743-15.33263-40.66308-15.88751,40.66308Z"/><path d="M1666.91662,787.84221l46.21985,67.10528h.222V787.84221h7.55435V867.1688h-8.44415l-46.21786-67.10527h-.22195V867.1688h-7.55633V787.84221Z"/><path d="M1741.13234,787.84221h8.888l26.10926,40.21917,25.99829-40.21917h8.999L1779.79585,834.504V867.1688h-7.55435V834.504Z"/></svg>