<svg id="Layer_1" data-name="Layer 1" xmlns="http://www.w3.org/2000/svg" viewBox="0 0 2288 1292"><defs><style>.cls-1{fill:#252222;}.cls-2{fill:#fff;}.cls-3{fill:#3270a7;}</style></defs><g id="qXnvpx.tif"><path class="cls-1" d="M1121.62311,860.14843c-11.50214,0-23.05376.66318-34.49256-.18831a283.97708,283.97708,0,0,1-33.46413-4.99766,360.50163,360.50163,0,0,1-54.43311-14.81938c-35.129-12.84379-68.30642-29.46509-98.15988-52.34935-12.745-9.76957-24.989-20.0226-36.87716-30.83976a343.24157,343.24157,0,0,1-29.56714-30.938,398.5364,398.5364,0,0,1-50.57388-74.62529,430.43564,430.43564,0,0,1-27.16084-64.6979,403.80685,403.80685,0,0,1-13.46152-52.815c-1.95341-10.50419-3.1607-21.2574-4.37807-31.95282-2.56362-22.52308-1.78825-45.03609-1.69391-67.57555.05435-12.9844,1.97476-25.74527,3.71687-38.577a381.252,381.252,0,0,1,8.11451-41.638,423.5764,423.5764,0,0,1,16.30405-51A371.83542,371.83542,0,0,1,785.205,259.75537c14.22363-26.0031,30.45047-50.67347,50.26014-72.89024,8.26235-9.26642,16.48714-18.547,25.42906-27.163a403.10289,403.10289,0,0,1,67.01-51.83848,345.98469,345.98469,0,0,1,79.84248-36.78821c23.283-7.54155,47.14709-12.12827,71.34261-15.3938a303.27316,303.27316,0,0,1,53.07927-2.70136,391.09855,391.09855,0,0,1,130.93617,27.05782,372.33853,372.33853,0,0,1,61.26338,31.78975,382.03231,382.03231,0,0,1,74.468,61.69235,410.1288,410.1288,0,0,1,58.74437,80.53358c20.49076,36.57591,34.53646,75.53464,43.81954,116.25649a344.10076,344.10076,0,0,1,7.41889,51.768c.89349,12.37484,1.91135,24.75478,1.6699,37.15529-.82407,42.3409-6.9558,83.86652-19.74438,124.3256a414.17749,414.17749,0,0,1-50.03686,104.669c-12.02274,18.11611-25.86164,34.8531-40.37,51.07742-23.59893,26.39-51.30469,47.80809-80.99888,66.61229-16.59437,10.50854-34.41706,18.97369-52.654,26.565a374.11639,374.11639,0,0,1-67.99438,21.26482,356.84192,356.84192,0,0,1-47.38363,6.53379c-9.90532.69472-19.79094.68391-29.68106,1.09838Zm320.24894-402.572c-.28316-5.63153-.62759-11.26072-.83866-16.89492-.96546-25.74917-4.69466-51.13542-12.16608-75.752-19.33745-63.71312-51.13679-119.88646-101.97863-164.07436-51.86821-45.08-112.42813-70.01878-180.64111-76.19226-33.566-3.03783-66.84546.48345-99.39944,9.082C979.74808,151.468,924.88221,188.42875,881.20444,241.87318c-44.27236,54.17192-68.19536,116.778-74.16205,186.29565A342.23744,342.23744,0,0,0,818.8618,551.07839c21.70369,77.06925,65.59154,138.62452,131.00176,184.588,37.16385,26.11482,78.52784,42.5012,123.40815,50.09765a294.66306,294.66306,0,0,0,80.15548,2.80241c33.438-3.48535,65.61945-11.71563,96.24507-25.62633,65.19951-29.61445,114.04477-76.64438,148.56919-139.12741C1426.85711,572.0237,1441.012,516.59091,1441.87205,457.5764Z"/><path class="cls-2" d="M1441.87205,457.5764c-.86005,59.01451-15.01494,114.4473-43.6306,166.23634-34.52442,62.483-83.36968,109.513-148.56919,139.12741-30.62562,13.9107-62.80708,22.141-96.24507,25.62633a294.66306,294.66306,0,0,1-80.15548-2.80241c-44.88031-7.59645-86.2443-23.98283-123.40815-50.09765-65.41022-45.96351-109.29807-107.51878-131.00176-184.588a342.23744,342.23744,0,0,1-11.81941-122.90956c5.96669-69.51762,29.88969-132.12373,74.16205-186.29565,43.67777-53.44443,98.54364-90.40518,165.64369-108.12836,32.554-8.5985,65.83343-12.11978,99.39944-9.082,68.213,6.17348,128.7729,31.11228,180.64111,76.19226,50.84184,44.1879,82.64118,100.36124,101.97863,164.07436,7.47142,24.61657,11.20062,50.00282,12.16608,75.752C1441.24446,446.31568,1441.58889,451.94487,1441.87205,457.5764ZM1330.52111,693.26925c1.2344-1.13545,1.72132-1.51832,2.132-1.97041,22.517-24.78669,42.10283-51.67055,57.74985-81.316a325.88508,325.88508,0,0,0,3.85359-298.52386c-25.45509-51.51257-61.4798-94.13732-109.72749-125.483-60.58266-39.35941-127.11688-54.73522-199.056-45.73925a280.92971,280.92971,0,0,0-79.96472,22.37453c-41.55518,18.53356-76.88488,45.4437-107.02065,79.466a307.04461,307.04461,0,0,0-60.34387,102.75348,332.95051,332.95051,0,0,0-15.51852,159.706c6.59021,45.94674,21.77718,88.61729,46.41853,127.92663,7.45252,11.88863,16.0404,22.96472,24.642,34.27468,1.18546-1.55588.73592-2.90638.73769-4.14142q.10395-72.67356.1372-145.34732c.00656-23.56115-.08493-47.12227-.08681-70.68342-.00018-1.86764-.74814-4.13869,1.8153-5.14675,4.87284-1.91612,9.75158-3.81739,15.08485-5.90357v6.53629q.00009,119.21649.03215,238.433c.00092,1.91057-.74108,4.05119.90243,5.69834,4.73941,4.75016,9.5128,9.46654,14.81348,14.73333.08407-1.79894.16686-2.743.16686-3.68708-.00291-87.77127.77623-175.54393-.459-263.313-.026-1.84573-.24158-3.60672,1.95129-4.60454,4.64561-2.11394,9.22113-4.38187,14.486-6.90294,0,2.41136-.00079,4.17679.00012,5.94222.046,91.09233.29015,182.18558-.14237,273.27569-.0476,10.02966,2.24022,16.75668,11.301,20.88741,1.462.66647,2.67183,2.83814,4.19509,2.12719,1.92248-.89725.87471-3.26531.875-4.94734q.01678-95.07444-.0893-190.1489-.05763-54.25713-.19319-108.51417c-.00194-1.86353-.85805-4.22327,1.59178-5.27949,4.51777-1.94778,9.10618-3.73193,14.27756-5.833,0,2.82334-.00006,4.94434-.00006,7.0653q.00009,151.57173.01434,303.14344c.001,5.29091-1.57858,11.69266.82571,15.55943,2.39128,3.8458,8.86429,5.18056,13.58018,7.55112,6.468,3.25146,6.48237,3.22515,6.47994-3.9039q-.05635-165.50933-.08329-331.01864c-.00006-1.83555-.58479-3.84857.83915-5.87948,14.3722,10.01969,28.44873,19.95649,42.68945,29.65209a7.28858,7.28858,0,0,1,3.59024,6.90172c-.02578,25.88307.21215,51.76634.198,77.64947q-.06474,118.468-.25374,236.936c-.01313,11.35256-.01677,11.35256,11.02689,14.41146,7.5772,2.0987,7.58522,2.0987,7.57647-5.54679q-.25058-217.02726-.576-434.05438c-.00668-3.834.75963-6.36834,4.36045-8.442,11.0636-6.37116,21.86764-13.191,32.81453-19.76648,9.90361-5.94885,19.86243-11.80578,30.38646-18.05316V768.63089a34.6506,34.6506,0,0,1-.02541,3.97918c-.34237,2.94327.60194,4.36164,3.81747,3.97906a51.86914,51.86914,0,0,1,9.42253-.57866c4.80129.31385,5.51132-1.952,5.50487-6.17735q-.2307-149.8258-.19221-299.65207c.03185-57.90714.34176-115.81415.52558-173.7212.00487-1.552.00061-3.104.00061-5.19587,7.98789,6.30681,11.49108,13.39584,11.48719,23.14454q-.09246,227.97891.33386,455.95794c.00231,1.89172-1.0423,4.69.69434,5.49538,1.84217.85417,3.81212-1.342,5.61964-2.43193.27963-.16862.48437-.45713.75379-.64739,5.49636-3.88031,4.79047-9.57179,4.8047-15.28045.141-56.57894.58942-113.15764.60388-169.73646q.03485-137.13465-.342-274.26941c-.00194-1.32731-.00523-2.65481.01714-3.98182.01459-.871.137-1.55932,1.34783-1.52812,3.93091.10142,10.38471,7.05549,10.38824,11.28743.1223,149.16356-.48693,298.32852.8654,447.48972.01592,1.75646.00194,3.51317.00194,6.29158,3.71474-2.94575,6.64845-5.26053,9.56745-7.59335a4.15928,4.15928,0,0,0,1.36327-3.06309,205.68515,205.68515,0,0,0,1.27415-23.31757q-.10029-205.57917-.25495-411.15828c-.00121-1.78129-.00024-3.56261-.00024-5.48034,10.042,3.735,11.07418,5.14735,11.07418,14.7765q-.00018,210.30889-.00012,420.61778c0,1.9819.00012,3.96387.00012,6.51769,6.28092-2.12817,12.08-4.58416,18.123-5.99773,5.64336-1.32,6.758-4.20833,6.74718-9.6836q-.288-144.10449-.21581-288.20985c-.00377-3.69319.97361-5.99615,4.09893-8.18878,9.76988-6.85451,19.23885-14.13693,28.84569-21.22475,7.014-5.17488,14.062-10.30415,22.06156-16.16161V726.74968c3.71109-2.673,6.49465-5.08286,9.64149-6.844,4.12227-2.30712,5.23423-5.39962,5.22658-10.08064q-.22851-140.62039-.11332-281.24125c.00012-1.86156,0-3.72312,0-5.85469,10.60076,4.50219,10.60076,4.50219,10.60076,14.5113q0,131.90975.00024,263.81945c0,1.89088-.00012,3.78181-.00012,7.05479,4.21564-3.93221,7.22546-6.93156,10.451-9.67783,1.99208-1.69606,2.3798-3.45624,2.18175-6.0512-1.17239-15.36717-2.42685-30.72079-2.3725-46.17242q.24948-70.93164-.00535-141.86465c-.08219-22.07211.60206-44.12052,1.16692-66.17546.04255-1.66131-.34274-3.48073.81664-5.36094a28.19126,28.19126,0,0,1,7.05356,12.231c2.29845,8.32826,1.0085,16.80544,1.01239,25.22388q.037,79.89163.03538,159.78331C1332.58091,650.78531,1331.54493,671.48368,1330.52111,693.26925Z"/><path class="cls-3" d="M1330.52111,693.26925c1.02382-21.78557,2.0598-42.48394,2.03974-63.21888q-.07733-79.89161-.03538-159.78331c-.00389-8.41844,1.28606-16.89562-1.01239-25.22388a28.19126,28.19126,0,0,0-7.05356-12.231c-1.15938,1.88021-.77409,3.69963-.81664,5.36094-.56486,22.05494-1.24911,44.10335-1.16692,66.17546q.26444,70.93159.00535,141.86465c-.05435,15.45163,1.20011,30.80525,2.3725,46.17242.198,2.595-.18967,4.35514-2.18175,6.0512-3.2255,2.74627-6.23532,5.74562-10.451,9.67783,0-3.273.00012-5.16391.00012-7.05479q-.00018-131.90975-.00024-263.81945c0-10.00911,0-10.00911-10.60076-14.5113,0,2.13157.00012,3.99313,0,5.85469q-.00018,140.62071.11332,281.24125c.00765,4.681-1.10431,7.77352-5.22658,10.08064-3.14684,1.76114-5.9304,4.171-9.64149,6.844V414.888c-7.99956,5.85746-15.04752,10.98673-22.06156,16.16161-9.60684,7.08782-19.07581,14.37024-28.84569,21.22475-3.12532,2.19263-4.1027,4.49559-4.09893,8.18878q.14591,144.105.21581,288.20985c.01082,5.47527-1.10382,8.36361-6.74718,9.6836-6.043,1.41357-11.84207,3.86956-18.123,5.99773,0-2.55382-.00012-4.53579-.00012-6.51769q-.00018-210.30889.00012-420.61778c0-9.62915-1.03221-11.04153-11.07418-14.7765,0,1.91773-.001,3.69905.00024,5.48034q.13605,205.57913.25495,411.15828a205.68515,205.68515,0,0,1-1.27415,23.31757,4.15928,4.15928,0,0,1-1.36327,3.06309c-2.919,2.33282-5.85271,4.6476-9.56745,7.59335,0-2.77841.014-4.53512-.00194-6.29158-1.35233-149.1612-.7431-298.32616-.8654-447.48972-.00353-4.23194-6.45733-11.186-10.38824-11.28743-1.21081-.0312-1.33324.65715-1.34783,1.52812-.02237,1.327-.01908,2.65451-.01714,3.98182q.19039,137.13471.342,274.26941c-.01446,56.57882-.46285,113.15752-.60388,169.73646-.01423,5.70866.69166,11.40014-4.8047,15.28045-.26942.19026-.47416.47877-.75379.64739-1.80752,1.08994-3.77747,3.2861-5.61964,2.43193-1.73664-.80538-.692-3.60366-.69434-5.49538q-.28286-227.979-.33386-455.95794c.00389-9.7487-3.4993-16.83773-11.48719-23.14454,0,2.09183.00426,3.64385-.00061,5.19587-.18382,57.907-.49373,115.81406-.52558,173.7212q-.08244,149.82594.19221,299.65207c.00645,4.22534-.70358,6.4912-5.50487,6.17735a51.86914,51.86914,0,0,0-9.42253.57866c-3.21553.38258-4.15984-1.03579-3.81747-3.97906a34.6506,34.6506,0,0,0,.02541-3.97918V282.12371c-10.524,6.24738-20.48285,12.10431-30.38646,18.05316-10.94689,6.57544-21.75093,13.39532-32.81453,19.76648-3.60082,2.07362-4.36713,4.608-4.36045,8.442q.37969,217.027.576,434.05438c.00875,7.64549.00073,7.64549-7.57647,5.54679-11.04366-3.0589-11.04-3.0589-11.02689-14.41146q.13679-118.468.25374-236.936c.0141-25.88313-.22383-51.7664-.198-77.64947a7.28858,7.28858,0,0,0-3.59024-6.90172c-14.24072-9.6956-28.31725-19.6324-42.68945-29.65209-1.42394,2.03091-.83921,4.04393-.83915,5.87948q.00648,165.50933.08329,331.01864c.00243,7.12905-.012,7.15536-6.47994,3.9039-4.71589-2.37056-11.1889-3.70532-13.58018-7.55112-2.40429-3.86677-.82467-10.26852-.82571-15.55943q-.029-151.57173-.01434-303.14344c0-2.121.00006-4.242.00006-7.0653-5.17138,2.10112-9.75979,3.88527-14.27756,5.833-2.44983,1.05622-1.59372,3.416-1.59178,5.27949q.0558,54.25713.19319,108.51417.101,95.07448.0893,190.1489c-.0003,1.682,1.04747,4.05009-.875,4.94734-1.52326.711-2.733-1.46072-4.19509-2.12719-9.06077-4.13073-11.34859-10.85775-11.301-20.88741.43252-91.09011.18838-182.18336.14237-273.27569-.00091-1.76543-.00012-3.53086-.00012-5.94222-5.26488,2.52107-9.8404,4.789-14.486,6.90294-2.19287.99782-1.97725,2.75881-1.95129,4.60454,1.23525,87.769.45611,175.54168.459,263.313,0,.9441-.08279,1.88814-.16686,3.68708-5.30068-5.26679-10.07407-9.98317-14.81348-14.73333-1.64351-1.64715-.90151-3.78777-.90243-5.69834q-.05625-119.21649-.03215-238.433v-6.53629c-5.33327,2.08618-10.212,3.98745-15.08485,5.90357-2.56344,1.00806-1.81548,3.27911-1.8153,5.14675.00188,23.56115.09337,47.12227.08681,70.68342q-.02007,72.67368-.1372,145.34732c-.00177,1.235.44777,2.58554-.73769,4.14142-8.60162-11.31-17.1895-22.386-24.642-34.27468-24.64135-39.30934-39.82832-81.97989-46.41853-127.92663a332.95051,332.95051,0,0,1,15.51852-159.706,307.04461,307.04461,0,0,1,60.34387-102.75348c30.13577-34.02226,65.46547-60.9324,107.02065-79.466a280.92971,280.92971,0,0,1,79.96472-22.37453c71.93915-8.996,138.47337,6.37984,199.056,45.73925,48.24769,31.34571,84.2724,73.97046,109.72749,125.483A327.19026,327.19026,0,0,1,1390.403,609.9828c-15.647,29.64549-35.23286,56.52935-57.74985,81.316C1332.24243,691.75093,1331.75551,692.1338,1330.52111,693.26925Zm13.3369-22.28341a64.12545,64.12545,0,0,0,9.39347-34.25153q-.112-81.60424-.06906-163.2088a136.56708,136.56708,0,0,0-.8372-13.8801c-.65093-6.29034-3.73844-11.36405-8.8342-16.43171C1341.93815,519.72646,1341.97024,595.29273,1343.858,670.98584Z"/><path class="cls-2" d="M1343.858,670.98584c-1.88777-75.69311-1.91986-151.25938-.347-227.77214,5.09576,5.06766,8.18327,10.14137,8.8342,16.43171a136.56708,136.56708,0,0,1,.8372,13.8801q.08479,81.60434.06906,163.2088A64.12545,64.12545,0,0,1,1343.858,670.98584Z"/></g><path class="cls-3" d="M119.22461,1222.36426V1215.376q17.62866-13.76074,27.94971-17.415-27.19776,0-43.96729-8.92188-16.77026-8.92236-26.875-28.05761-10.106-19.13379-10.105-42.67774,0-34.61279,22.89746-56.9209,22.89771-22.30664,60.2002-22.30664,18.59619,0,33.3247,5.26758a68.798,68.798,0,0,1,24.45655,14.459,66.49631,66.49631,0,0,1,14.88867,20.26368q6.98657,14.94286,6.9873,34.292,0,23.00684-9.62109,41.54883a75.65963,75.65963,0,0,1-28.11133,29.93945,91.06719,91.06719,0,0,1-41.71,13.11426,91.34157,91.34157,0,0,1,10.42725,2.31152q4.62084,1.34327,13.33008,4.8916,19.56444,7.8457,28.5415,10.15821a63.34484,63.34484,0,0,0,15.42627,2.31152,39.84338,39.84338,0,0,0,11.395-2.25781v5.48242a40.67555,40.67555,0,0,1-5.16016,3.22558q-5.699,3.22413-7.90137,4.78321a38.94309,38.94309,0,0,0-4.35351,3.60156q-1.5066,0-6.98731-.75293a89.66413,89.66413,0,0,1-11.23388-2.31055q-5.75244-1.56006-20.26367-6.61132-27.41309-9.353-33.648-9.35254a14.86429,14.86429,0,0,0-4.51465.752,32.39752,32.39752,0,0,0-5.375,2.36523Zm-30.6377-109.543a101.024,101.024,0,0,0,2.84864,22.79,88.82553,88.82553,0,0,0,7.74023,21.5,64.331,64.331,0,0,0,12.09375,16.23242,53.37687,53.37687,0,0,0,16.6626,10.96484q9.45775,3.97852,22.145,3.97754,17.3064,0,30.20752-7.95508,12.90015-7.9541,19.45752-23.64941,6.5559-15.69433,6.55761-35.79785a101.01147,101.01147,0,0,0-4.46142-30.6377q-4.46192-14.08154-12.09375-23.05859a51.60085,51.60085,0,0,0-19.24268-13.97559,64.5921,64.5921,0,0,0-25.7998-4.998q-25.90869,0-41.01123,16.23242Q88.58618,1080.67968,88.58691,1112.82129Z"/><path class="cls-3" d="M361.31494,1188.71582v6.12793q-14.08447-.75147-21.28515-.75293-7.957,0-16.125.75293.64452-8.707.96728-19.56543a194.84908,194.84908,0,0,0-15.37256,14.083,15.69015,15.69015,0,0,1-3.97754,3.00976,37.023,37.023,0,0,1-9.24463,3.709,47.26535,47.26535,0,0,1-11.07275,1.1289,39.12922,39.12922,0,0,1-14.56641-2.36523,26.009,26.009,0,0,1-10.05127-7.20215,23.99339,23.99339,0,0,1-4.78369-9.1914,48.42766,48.42766,0,0,1-1.666-13.59864q0-3.76172.26855-7.0957.26733-3.32959.269-6.55762v-18.38183q0-2.79493-.32275-14.083-.2168-7.09424-.96728-9.24512a3.66568,3.66568,0,0,0-1.39747-1.71973q-1.61278-1.07373-5.69775-1.07519-5.91357,0-9.35254-.10742v-6.127q23.11158-2.58105,33.54-8.27832a6.105,6.105,0,0,1,2.6875-.96679,1.59315,1.59315,0,0,1,1.23633.53711,2.34744,2.34744,0,0,1,.48389,1.6123c0,.5752-.03711,1.29-.10743,2.15039q-.43138,3.44093-.75293,13.22266-.64452,17.95458-.645,24.08008v20.96191q0,13.11768,1.77393,18.43652a15.6276,15.6276,0,0,0,6.87988,8.49219,23.50469,23.50469,0,0,0,12.63135,3.17188,31.13042,31.13042,0,0,0,10.2666-1.77344,29.99841,29.99841,0,0,0,9.19092-5.10645,37.77128,37.77128,0,0,0,6.12744-6.665,28.322,28.322,0,0,0,3.11768-4.78418,14.82855,14.82855,0,0,0,.96728-4.89062q.53687-9.45849.5376-18.81348v-9.02929q0-2.79493-.32227-14.083-.2168-7.09424-.96777-9.24512a3.66275,3.66275,0,0,0-1.39746-1.71973q-1.61206-1.07373-5.69727-1.07519-5.91357,0-9.35253-.10742v-6.127q23.11157-2.58105,33.54-8.27832a6.105,6.105,0,0,1,2.6875-.96679,1.59385,1.59385,0,0,1,1.23633.53711,2.34982,2.34982,0,0,1,.4834,1.6123c0,.5752-.03662,1.29-.10742,2.15039q-.32226,3.44093-.75244,13.65235-.64527,17.52391-.645,23.65039V1147.544l.21484,14.94238q.323,13.00781.43018,15.26465.1062,5.37744,1.18262,7.84765a5.63812,5.63812,0,0,0,1.39746,1.666,6.62772,6.62772,0,0,0,2.58007,1.1289Q350.02685,1188.502,361.31494,1188.71582Z"/><path class="cls-3" d="M390.23242,1121.20605l-5.69775-1.50488q.1062-2.47119.10742-6.77246,0-4.51464-.10742-7.20215,13.65087-8.92236,22.36035-12.04a46.36914,46.36914,0,0,1,14.94238-2.25781q12.25488,0,20.64014,4.62207a28.94654,28.94654,0,0,1,12.46973,13.22266q2.79419,6.022,2.79492,16.44726l-.42969,19.67285v32.03516a22.78155,22.78155,0,0,0,.85986,7.418,4.44738,4.44738,0,0,0,2.04248,2.36426,11.56975,11.56975,0,0,0,4.51514.86035l6.98731.64453v6.12793q-8.81544-.75147-15.48-.75293-6.4497,0-17.1997.75293l.53711-18.91992q-21.92944,16.55567-26.01465,18.65137a22.51661,22.51661,0,0,1-10.32031,2.0957q-13.00856,0-20.26368-6.9336-7.2561-6.9331-7.25634-18.43652a35.20457,35.20457,0,0,1,2.52636-13.54492,29.96574,29.96574,0,0,1,6.07373-9.72852,25.54964,25.54964,0,0,1,7.20264-5.32129q6.2329-2.90185,20.26367-6.23535a242.55757,242.55757,0,0,1,27.78858-4.94433q.1062-10.21143-2.47217-15.91016a20.953,20.953,0,0,0-8.70752-9.35254,28.696,28.696,0,0,0-14.94287-3.65527,32.83394,32.83394,0,0,0-11.126,1.7207q-4.78491,1.71974-5.85888,2.90235l-1.93506,3.87011Q391.62964,1117.55128,390.23242,1121.20605Zm49.34229,16.87793a211.29314,211.29314,0,0,0-23.86475,5.26758q-9.8921,2.90185-13.9751,6.01953a14.97088,14.97088,0,0,0-4.2998,5.48243,25.46385,25.46385,0,0,0-2.79541,11.93261q0,7.957,4.40771,12.416,4.40625,4.46191,12.25489,4.46191a27.83824,27.83824,0,0,0,14.24365-4.13867,56.0848,56.0848,0,0,0,14.02881-12.417Z"/><path class="cls-3" d="M479.99463,1194.84375v-6.01953l10.21289-.1084a7.9366,7.9366,0,0,0,3.49365-.80566,5.008,5.008,0,0,0,1.88135-1.77735q1.1814-2.15186,1.50488-7.64258,0-1.39891.645-30.89257v-12.80957q0-8.61181-.32275-18.51368-.32227-6.34863-1.021-7.53515a4.28117,4.28117,0,0,0-2.41894-1.77539q-1.72047-.5918-13.9751-.48535v-6.127q21.68847-3.00879,31.62353-7.84765a8.494,8.494,0,0,1,2.88428-1.0752,1.43679,1.43679,0,0,1,1.18262.53711,2.563,2.563,0,0,1,.42969,1.61328,15.98241,15.98241,0,0,1-.10743,1.71973q-.32226,3.87012-.645,16.33984l20.0254-17.09277a48.70984,48.70984,0,0,1,16.6875-3.22461,39.427,39.427,0,0,1,16.52685,3.55273q7.80542,3.55225,11.73584,8.93262a30.78383,30.78383,0,0,1,5.22217,13.55762q.75074,4.84276.75244,27.01367v19.04687q0,13.99366.75244,19.04981a8.9635,8.9635,0,0,0,1.66651,4.46582,5.56838,5.56838,0,0,0,3.49365,1.56055l11.50244.32324v6.01953q-10.53663-.75147-17.52246-.75293-6.022,0-19.99512.75293,1.5044-26.5503,1.50488-33.54v-18.05957q0-16.87647-1.29-22.14551a19.55353,19.55353,0,0,0-8.29394-11.61035,27.07075,27.07075,0,0,0-15.62109-4.40723,29.21252,29.21252,0,0,0-14.75977,3.82129q-6.679,3.82179-9.53369,8.82715-2.855,5.00391-2.854,16.84571v13.02246q.64527,27.9873.645,30.248a23.46776,23.46776,0,0,0,1.29,7.85742,4.46031,4.46031,0,0,0,1.29,1.668,6.76322,6.76322,0,0,0,2.6875,1.12989q.64527.10839,11.8252.32324v6.01953q-13.11695-.75147-23.72071-.75293Q500.39991,1194.09082,479.99463,1194.84375Z"/><path class="cls-3" d="M610.06982,1110.56348v-4.51465a180.89416,180.89416,0,0,0,17.09278-7.31055q0-25.58349-.645-32.67969a89.02518,89.02518,0,0,0,18.16748-8.27734l2.58008,2.14941q-1.18432,8.9253-2.58008,39.34571,8.59936.10839,10.31982.10742.96753,0,11.07276-.21484,5.58837-.10694,8.38476-.43067l.75244.75293-2.25732,9.99707q-6.77271-.10547-12.46973-.10742-5.6997,0-15.80273.10742l-.645,43.75293q-.32226,16.01954.21484,19.13477a14.233,14.233,0,0,0,2.04248,5.42871,11.42379,11.42379,0,0,0,3.92383,3.709q2.41918,1.39893,8.22412,2.15039a54.42589,54.42589,0,0,0,7.14844-.377,35.78239,35.78239,0,0,0,6.93359-1.88086l1.29,4.19238q-5.05371,3.97852-9.78222,8.27735a36.52791,36.52791,0,0,1-7.63282,1.98925,61.1598,61.1598,0,0,1-8.16992.4834,26.115,26.115,0,0,1-9.08349-1.29,21.77157,21.77157,0,0,1-6.18116-3.60156,18.396,18.396,0,0,1-4.62256-5.8584q-1.82958-3.54784-2.36523-11.17968.1062-7.30957.43018-16.01758.10546-1.71826.10742-3.7627v-44.6123h-4.40772Q616.73316,1110.02637,610.06982,1110.56348Z"/><path class="cls-3" d="M680.16016,1048.96582v-6.87988q17.521.86133,32.57226.86035,15.26367,0,30.31543-.86035v6.87988q-12.68628.2168-15.48047,1.12891a6.52566,6.52566,0,0,0-3.7622,2.52636q-1.39819,2.15185-1.72022,10.42774-.10839,2.15186-.42969,30.53027v39.77442q0,23.11377,2.95606,30.47656a28.071,28.071,0,0,0,9.40625,12.20117,39.06635,39.06635,0,0,0,13.33008,5.8584,73.57732,73.57732,0,0,0,18.70507,2.2041,70.94506,70.94506,0,0,0,21.39258-2.95605q9.35231-2.95607,14.02881-7.20313a28.04826,28.04826,0,0,0,6.98731-9.51367q2.31078-5.26466,3.33252-14.458a217.72926,217.72926,0,0,0,1.02148-23.27441V1093.5791q0-14.61913-.43018-28.5957-.2168-10.21143-1.45117-12.09375a7.332,7.332,0,0,0-4.03125-2.79492q-2.79711-.9126-15.48-1.12891v-6.87988q17.73706.86133,25.90723.86035,7.418,0,26.76758-.86035v6.87988q-12.794.2168-15.5337,1.12891a7.076,7.076,0,0,0-3.8164,2.52636q-1.28979,2.15185-1.61231,10.42774-.10839,2.15186-.43017,30.53027v36.01172q0,26.55323-3.7085,37.08789-3.709,10.53661-13.59863,18.59766-7.418,6.022-19.08154,9.35254a93.99387,93.99387,0,0,1-25.85352,3.332q-16.5564,0-28.70264-3.92383-12.14942-3.92284-18.49023-10.31934a35.87908,35.87908,0,0,1-8.70752-13.06152q-3.011-8.814-3.00977-29.5625V1093.5791q0-14.61913-.32275-28.5957-.32226-10.21143-1.55859-12.09375a7.315,7.315,0,0,0-3.97754-2.79492Q692.95239,1049.18213,680.16016,1048.96582Z"/><path class="cls-3" d="M851.19238,1194.84375v-6.01953l10.21289-.1084a7.93662,7.93662,0,0,0,3.49366-.80566,5.00794,5.00794,0,0,0,1.88134-1.77735q1.1814-2.15186,1.50489-7.64258,0-1.39891.645-30.89257v-12.80957q0-8.61181-.32276-18.51368-.32226-6.34863-1.021-7.53515a4.28119,4.28119,0,0,0-2.41895-1.77539q-1.72046-.5918-13.9751-.48535v-6.127q21.68849-3.00879,31.62354-7.84765a8.49387,8.49387,0,0,1,2.88428-1.0752,1.43678,1.43678,0,0,1,1.18261.53711,2.563,2.563,0,0,1,.42969,1.61328,15.98218,15.98218,0,0,1-.10742,1.71973q-.32227,3.87012-.645,16.33984l20.02539-17.09277a48.70984,48.70984,0,0,1,16.6875-3.22461,39.427,39.427,0,0,1,16.52685,3.55273q7.80543,3.55225,11.73584,8.93262a30.78371,30.78371,0,0,1,5.22217,13.55762q.75073,4.84276.75244,27.01367v19.04687q0,13.99366.75245,19.04981a8.96351,8.96351,0,0,0,1.6665,4.46582,5.56838,5.56838,0,0,0,3.49365,1.56055l11.50244.32324v6.01953q-10.53661-.75147-17.52246-.75293-6.022,0-19.99512.75293,1.50439-26.5503,1.50489-33.54v-18.05957q0-16.87647-1.29-22.14551a19.5535,19.5535,0,0,0-8.29395-11.61035,27.07075,27.07075,0,0,0-15.62109-4.40723,29.21254,29.21254,0,0,0-14.75977,3.82129q-6.67894,3.82179-9.53369,8.82715-2.855,5.00391-2.854,16.84571v13.02246q.64525,27.9873.645,30.248a23.46725,23.46725,0,0,0,1.29,7.85742,4.4602,4.4602,0,0,0,1.29,1.668,6.76315,6.76315,0,0,0,2.6875,1.12989q.64526.10839,11.82519.32324v6.01953q-13.11695-.75147-23.7207-.75293Q871.59766,1194.09082,851.19238,1194.84375Z"/><path class="cls-3" d="M981.16064,1106.47852v-6.127q20.85426-2.36425,35.04493-9.03027l2.36523,1.71973q-.86133,22.897-.85986,35.04492v19.56543q.53613,27.95214.645,30.207a22.14166,22.14166,0,0,0,1.18213,7.84765,5.63962,5.63962,0,0,0,1.398,1.666,6.62862,6.62862,0,0,0,2.57958,1.12891q.64527.10839,11.93262.32324v6.01953q-16.3418-.75147-26.12256-.75293-8.60156,0-28.165.75293v-6.01953l10.21241-.1084a7.9372,7.9372,0,0,0,3.49414-.80566,5.00508,5.00508,0,0,0,1.88086-1.77344q1.18212-2.1504,1.50537-7.63281,0-1.396.645-30.85254v-18.91992q0-16.01661-1.0752-19.02735a4.48272,4.48272,0,0,0-2.311-2.41894Q993.84375,1106.478,981.16064,1106.47852Zm26.23-62.99512a11.53566,11.53566,0,0,1,8.54639,3.54785,11.80844,11.80844,0,0,1,3.49365,8.59961,12.11134,12.11134,0,0,1-12.04,12.04,11.71113,11.71113,0,0,1-8.5996-3.54688,11.58615,11.58615,0,0,1-3.54786-8.49316,12.1133,12.1133,0,0,1,12.14746-12.14746Z"/><path class="cls-3" d="M1095.21826,1195.919q-4.19238-10.96582-5.80517-14.72754l-8.81495-20.53223-22.03759-51.27832a25.74872,25.74872,0,0,0-3.65479-6.4502,6.64082,6.64082,0,0,0-3.33252-2.042,47.364,47.364,0,0,0-7.95508-.64551V1093.794q17.84326.75293,26.01514.752,9.03,0,24.72461-.752v6.44921q-11.60962.32373-13.65234,1.50586a3.60079,3.60079,0,0,0-2.04248,3.22461q0,3.22559,4.2998,13.86719l13.11523,32.68066,3.11768,7.30957q5.26537,12.79395,7.20215,17.09278l10.75-24.40235q.96753-2.14891,9.78271-24.1875a167.89644,167.89644,0,0,0,6.87989-19.56543,14.34891,14.34891,0,0,0,.43017-3.2246,2.68829,2.68829,0,0,0-1.39746-2.58008q-2.58032-1.396-13.76025-1.72071V1093.794q16.01659.75293,20.53271.752,3.76173,0,20.53272-.752v6.44921q-6.668.32373-8.86914,1.55957-2.20312,1.23633-4.35352,5.10547-1.50585,2.58106-11.60986,23.22071l-10.32031,22.03711q-2.688,5.91357-18.59766,43.75293Z"/><path class="cls-3" d="M1259.69336,1178.18164l-3.44043,7.73926a97.94488,97.94488,0,0,1-10.85742,6.12793,66.13824,66.13824,0,0,1-11.55664,3.8164,58.70419,58.70419,0,0,1-13.70606,1.5586,55.25651,55.25651,0,0,1-25.67187-5.91211,41.59818,41.59818,0,0,1-17.84571-17.68457q-6.36327-11.77149-6.3623-27.57324a68.931,68.931,0,0,1,3.38672-22.30664q3.38524-9.94189,7.68555-14.67383a55.50936,55.50936,0,0,1,9.67578-7.90137,68.376,68.376,0,0,1,13.00683-7.041,47.20113,47.20113,0,0,1,18.38281-3.54785,43.565,43.565,0,0,1,21.76856,5.4834,33.49883,33.49883,0,0,1,14.24414,14.94238,49.06278,49.06278,0,0,1,4.51465,21.39258q0,3.01026-.42969,7.30957a115.85824,115.85824,0,0,1-13.88769,1.93457q-11.63086.8628-23.25586.86035h-34.55957q.21533,15.375,5.32129,24.88672a32.25994,32.25994,0,0,0,14.083,14.02832,41.01027,41.01027,0,0,0,18.65137,4.51563,42.36492,42.36492,0,0,0,13.06055-2.09668,85.66328,85.66328,0,0,0,16.07129-7.68652Zm-68.9082-44.07519q3.01611.32226,11.41894.64453,16.04883.53905,22.083.53808,14.32617,0,18.85059-.53808.10692-2.57228.10742-3.96582,0-16.93653-6.89453-24.86719-6.89357-7.93214-18.41993-7.93164-12.17431,0-19.60546,8.68164Q1190.89258,1115.35156,1190.78516,1134.10645Z"/><path class="cls-3" d="M1275.28125,1194.84375v-6.12793q12.14649-.21387,13.11523-.42969a6.34185,6.34185,0,0,0,2.74122-1.02148,4.72769,4.72769,0,0,0,1.45117-1.98828,23.12858,23.12858,0,0,0,1.29-7.74024q.64452-28.70214.64453-29.99218v-12.793q0-8.59865-.32227-18.49024-.2168-6.34131-.91406-7.52441a4.30175,4.30175,0,0,0-2.47266-1.77442q-1.77391-.58885-14.02832-.48339v-6.127q21.71339-3.00879,31.71289-7.84765a8.56836,8.56836,0,0,1,2.90235-1.0752,1.438,1.438,0,0,1,1.18261.53711,2.563,2.563,0,0,1,.42969,1.61328,16.10968,16.10968,0,0,1-.10742,1.71973q-.53905,6.55811-.64551,20.31738,4.83839-5.58839,8.92285-11.07226a54.1362,54.1362,0,0,1,5.91211-7.09571,25.79638,25.79638,0,0,1,7.418-4.46094,23.375,23.375,0,0,1,8.707-1.666,22.01205,22.01205,0,0,1,8.92285,1.93457l.64551,1.50488q-1.61279,14.29834-1.82812,25.15528H1346.124a19.341,19.341,0,0,0-5.752-7.52442,13.703,13.703,0,0,0-8.22363-2.36523q-8.2793,0-14.082,6.82617-5.80518,6.82764-5.80567,20.47851v11.07227q0,7.09571.53809,25.9082a52.96324,52.96324,0,0,0,.53711,8.49219,6.24421,6.24421,0,0,0,1.1289,2.63379,5.16846,5.16846,0,0,0,2.31153,1.34375q3.22411.9668,17.415,1.93457v6.12793q-18.92286-.75147-32.25-.75293Q1288.1792,1194.09082,1275.28125,1194.84375Z"/><path class="cls-3" d="M1367.19336,1162.37891h6.45019a80.65468,80.65468,0,0,0,.64551,9.88964,35.38532,35.38532,0,0,0,1.82715,7.14942,14.64635,14.64635,0,0,0,3.97754,5.91211,20.91868,20.91868,0,0,0,5.8584,3.76269,24.61047,24.61047,0,0,0,6.45019,1.77344,83.54248,83.54248,0,0,0,9.94434.42969q10.96435,0,18.00586-5.80469,7.04-5.80518,7.041-15.91016a14.43929,14.43929,0,0,0-2.20312-7.95507,14.70628,14.70628,0,0,0-6.34277-5.375q-4.13965-1.93506-17.791-5.05274-13.65381-3.11572-17.62988-4.51465a29.46674,29.46674,0,0,1-9.56836-5.48242,22.96358,22.96358,0,0,1-5.64356-8.16992,27.25607,27.25607,0,0,1-2.0957-10.75,28.98042,28.98042,0,0,1,4.46094-15.6416q4.459-7.147,14.02832-11.60938a48.74128,48.74128,0,0,1,20.85547-4.46191,77.38919,77.38919,0,0,1,15.69531,1.88184,61.22135,61.22135,0,0,1,14.51172,4.67578q-.75293,11.9326-1.07422,24.29492h-6.12793a63.40727,63.40727,0,0,0-1.23633-10.31934,17.65456,17.65456,0,0,0-1.88086-4.4082,16.27135,16.27135,0,0,0-4.085-4.13867,29.67034,29.67034,0,0,0-7.47168-3.92383,32.09447,32.09447,0,0,0-11.2334-1.71973q-9.46141,0-15.21191,5.58985a17.71907,17.71907,0,0,0-5.751,13.11523,14.64529,14.64529,0,0,0,1.666,7.20215,13.91044,13.91044,0,0,0,4.46191,4.8916,29.14,29.14,0,0,0,7.84766,3.38574l17.84473,4.40821q13.54541,3.44091,18.65136,5.91211a19.28294,19.28294,0,0,1,8.22364,7.68652,23.97345,23.97345,0,0,1,3.11718,12.52344q0,14.5122-11.98633,25.3164-11.98681,10.80323-32.08886,10.80371-9.24609,0-24.61719-2.79492-8.49316-1.61279-9.1377-2.25781a1.25415,1.25415,0,0,1-.42968-1.07422,9.48885,9.48885,0,0,1,.21484-1.82812,68.2846,68.2846,0,0,0,1.29-9.0293Q1366.97851,1176.354,1367.19336,1162.37891Z"/><path class="cls-3" d="M1455.34375,1106.47852v-6.127q20.85351-2.36425,35.04492-9.03027l2.36426,1.71973q-.86133,22.897-.85938,35.04492v19.56543q.53615,27.95214.64454,30.207a22.16244,22.16244,0,0,0,1.18261,7.84765,5.65291,5.65291,0,0,0,1.39746,1.666,6.63137,6.63137,0,0,0,2.58008,1.12891q.646.10839,11.93262.32324v6.01953q-16.3418-.75147-26.12207-.75293-8.60157,0-28.165.75293v-6.01953l10.21191-.1084a7.94066,7.94066,0,0,0,3.49414-.80566,5.00131,5.00131,0,0,0,1.88086-1.77344q1.18214-2.1504,1.50489-7.63281,0-1.396.6455-30.85254v-18.91992q0-16.01661-1.07519-19.02735a4.48024,4.48024,0,0,0-2.31152-2.41894Q1468.02735,1106.478,1455.34375,1106.47852Zm26.22949-62.99512a11.53751,11.53751,0,0,1,8.54688,3.54785,11.81189,11.81189,0,0,1,3.49316,8.59961,12.11219,12.11219,0,0,1-12.04,12.04,11.712,11.712,0,0,1-8.59961-3.54688,11.58618,11.58618,0,0,1-3.54785-8.49316,12.11328,12.11328,0,0,1,12.14746-12.14746Z"/><path class="cls-3" d="M1519.52148,1110.56348v-4.51465a180.91517,180.91517,0,0,0,17.0918-7.31055q0-25.58349-.64453-32.67969a88.99476,88.99476,0,0,0,18.167-8.27734l2.58008,2.14941q-1.18359,8.9253-2.58008,39.34571,8.6001.10839,10.32031.10742.96827,0,11.07227-.21484,5.58839-.10694,8.38574-.43067l.752.75293-2.25684,9.99707q-6.77345-.10547-12.4707-.10742-5.69824,0-15.80274.10742l-.64453,43.75293q-.32226,16.01954.21484,19.13477a14.23347,14.23347,0,0,0,2.043,5.42871,11.41513,11.41513,0,0,0,3.92383,3.709q2.41846,1.39893,8.22363,2.15039a54.42072,54.42072,0,0,0,7.14844-.377,35.79184,35.79184,0,0,0,6.9336-1.88086l1.29,4.19238q-5.05371,3.97852-9.78222,8.27735a36.528,36.528,0,0,1-7.63281,1.98925,61.16007,61.16007,0,0,1-8.16993.4834,26.118,26.118,0,0,1-9.084-1.29,21.78226,21.78226,0,0,1-6.18066-3.60156,18.40373,18.40373,0,0,1-4.623-5.8584q-1.82812-3.54784-2.36426-11.17968.10547-7.30957.42969-16.01758.10547-1.71826.10742-3.7627v-44.6123h-4.40723Q1526.18408,1110.02637,1519.52148,1110.56348Z"/><path class="cls-3" d="M1591.22461,1252.35645l5.48242-16.55469h2.58008q2.04052,1.71826,3.49316,2.74121a11.60166,11.60166,0,0,0,3.11817,1.55859,16.90716,16.90716,0,0,0,4.89062.53711,15.50258,15.50258,0,0,0,6.50391-1.44922,17.89028,17.89028,0,0,0,5.91211-4.56543q2.74218-3.11718,6.5039-10.74218,5.69679-11.49316,10.2129-23.418-3.4424-9.665-8.27735-21.69825l-17.09277-42.32324q-7.63478-18.90381-12.46973-29.001-1.93506-3.97559-4.13867-5.31836-2.20459-1.34034-9.83691-2.20215v-6.127q13.32861.75293,26.33789.752,12.6826,0,24.40234-.752v6.127q-11.07276.75439-12.68457,1.39746a3.8884,3.8884,0,0,0-2.79492,3.87012q0,1.72119,1.82715,7.09472,4.19238,13.22314,7.95507,22.5752l6.77247,16.77051q6.12744,15.05127,10.32031,24.40234l5.69726-12.68457q3.33106-7.52345,11.71778-28.5957,8.38476-21.0674,9.78222-26.01465a12.70411,12.70411,0,0,0,.42969-3.00977,3.61728,3.61728,0,0,0-1.666-3.17187q-1.66845-1.12794-12.9541-2.20313V1093.794q12.47022.75293,22.03809.752,9.67529,0,19.13477-.752l-1.0752,6.55761q-5.48291.21534-8.49219,2.36328-3.01171,2.14893-9.084,14.44825-6.07471,12.30029-22.52149,48.3955l-24.832,58.00977q-6.022,14.07422-10.42773,20.09082a29.72737,29.72737,0,0,1-10.53516,9.13086,29.25128,29.25128,0,0,1-13.4375,3.11426,23.49366,23.49366,0,0,1-6.39648-.80664A31.61647,31.61647,0,0,1,1591.22461,1252.35645Z"/><path class="cls-3" d="M1682.9209,1224.94336a234.43349,234.43349,0,0,0,11.61035-21.01563,91.28524,91.28524,0,0,0,5.375-14.78125q.9668-3.65331,2.5791-15.91015l11.61035-2.90235q2.3628-.75146,10.32032-3.54785l2.79492,3.00977q-13.33155,31.06934-32.46485,53.64258l-9.13769,4.19238Z"/><path class="cls-3" d="M1808.1582,1194.84375v-5.58984q6.665-3.11719,8.49317-4.94532a5.15421,5.15421,0,0,0,1.50488-2.47265q.9668-3.00733,1.29-12.89942.42774-14.72754.42969-17.52246v-57.835q0-14.61913-.32227-28.5957-.32226-10.21143-1.55859-12.09375a7.31864,7.31864,0,0,0-3.97754-2.79492q-2.74219-.9126-15.53418-1.12891v-6.87988q26.228.86133,32.46484.86035,6.87891,0,30.85254-.86035v6.87988q-12.79395.2168-15.5332,1.12891a7.07033,7.07033,0,0,0-3.81641,2.52636q-1.29053,2.15185-1.6123,10.42774-.10841,2.15186-.43067,30.53027v72.23926q0,11.28808.43067,18.38281,12.25488.75292,24.29492.75293,30.31494,0,42.46191-3.87012a50.04945,50.04945,0,0,0,2.47266-7.418l4.2998-17.84473h7.20313q-2.36573,16.01953-4.62305,37.625a67.88156,67.88156,0,0,1-6.9873,1.07519q-5.59131.32227-17.2002.32227l-63.63965-.86035Q1818.80127,1193.9834,1808.1582,1194.84375Z"/><path class="cls-3" d="M1942.6416,1194.84375v-5.58984q6.665-3.11719,8.49317-4.94532a5.15421,5.15421,0,0,0,1.50488-2.47265q.9668-3.00733,1.29-12.89942.42773-14.72754.42969-17.52246v-57.835q0-14.61913-.32227-28.5957-.32226-10.21143-1.55859-12.09375a7.31867,7.31867,0,0,0-3.97754-2.79492q-2.7422-.9126-15.53418-1.12891v-6.87988q26.228.86133,32.46484.86035,6.87891,0,30.85254-.86035v6.87988q-12.794.2168-15.5332,1.12891a7.07029,7.07029,0,0,0-3.81641,2.52636q-1.29052,2.15185-1.6123,10.42774-.1084,2.15186-.43067,30.53027v72.23926q0,11.28808.43067,18.38281,12.25488.75292,24.29492.75293,30.31494,0,42.46191-3.87012a50.04945,50.04945,0,0,0,2.47266-7.418l4.2998-17.84473h7.20313q-2.36573,16.01953-4.62305,37.625a67.88156,67.88156,0,0,1-6.9873,1.07519q-5.59131.32227-17.2002.32227l-63.63965-.86035Q1953.28467,1193.9834,1942.6416,1194.84375Z"/><path class="cls-3" d="M2213.43457,1175.81641l-4.19238,9.99707a112.07441,112.07441,0,0,1-24.61817,9.1914,113.87667,113.87667,0,0,1-26.22949,2.84864,109.59747,109.59747,0,0,1-30.96-4.19239,80.44362,80.44362,0,0,1-24.99414-11.98633,74.75314,74.75314,0,0,1-17.46875-17.46875,75.97535,75.97535,0,0,1-10.32031-21.0166,83.04574,83.04574,0,0,1-3.54688-24.88574q0-34.29052,23.91895-56.81348,23.9165-22.52051,65.30566-22.52148a135.25578,135.25578,0,0,1,18.11426,1.12891,172.43006,172.43006,0,0,1,20.31738,4.2998q11.98536,3.17139,14.67383,3.709a69.02478,69.02478,0,0,0-3.54785,11.60937,162.79524,162.79524,0,0,0-2.36524,21.17773H2200.749l-.10742-12.68457q-1.0752-10.53515-11.66308-15.69531-10.59083-5.16065-31.01465-5.16015-15.26514.2168-25.90723,3.92382a49.70113,49.70113,0,0,0-18.75879,11.71778,61.52326,61.52326,0,0,0-13.27637,20.31738q-5.15917,12.31055-5.26757,30.90625,0,32.57226,19.88769,52.40625,19.88672,19.834,52.56738,19.834a87.90011,87.90011,0,0,0,27.30567-4.085,63.69057,63.69057,0,0,0,17.0918-8.81543Z"/></svg>