<?xml version="1.0" encoding="utf-8"?>
<!-- Generator: Adobe Illustrator 26.0.3, SVG Export Plug-In . SVG Version: 6.00 Build 0)  -->
<svg version="1.1" xmlns="http://www.w3.org/2000/svg" xmlns:xlink="http://www.w3.org/1999/xlink" x="0px" y="0px"
	 viewBox="0 0 572.72 125.26" style="enable-background:new 0 0 572.72 125.26;" xml:space="preserve">
<style type="text/css">
	.st0{fill:#00A9F4;}
</style>
<g id="Layer_1">
	<g>
		<polygon points="98.28,14.76 97,14.01 47.87,14.01 46.59,14.76 22.02,57.77 22.02,59.23 46.59,102.24 47.87,102.99 61.93,102.99 
			61.93,100.03 48.73,100.03 25.01,58.5 48.73,16.97 96.14,16.97 119.86,58.5 113.05,70.43 115.61,71.91 122.85,59.23 122.85,57.77 
					"/>
		<polygon class="st0" points="105.86,83.01 96.14,100.03 76.9,100.03 76.9,102.99 97,102.99 98.28,102.24 108.42,84.49 		"/>
	</g>
	<g>
		<path d="M142.78,36.19c0-13.08,9.03-23.28,22.18-23.28s22.3,10.08,22.3,23.22c0,11-6.76,19.47-16.4,21.99v0.18l7,0.12
			c0,0,5.28,5.34,10.2,9.4v1.9h-8.54l-8.11-8.97c-1.11-1.23-2.4-1.78-4.3-1.66l-2.09,0.12C152.24,59.22,142.78,49.27,142.78,36.19z
			 M150.09,43.68c0.86,7.56,6.7,12.29,15.48,12.29c8.85,0,13.33-5.16,14.38-12.29c0.61-3.99,0.55-11.67,0-15.6
			c-1.04-7.56-6.7-12.29-15.48-12.29c-8.85,0-13.52,5.16-14.38,12.29C149.6,32.13,149.6,39.69,150.09,43.68z"/>
		<path d="M222.3,56.21h1.78v2.21h-9.15l-1.11-6.2c-3.26,3.75-6.27,6.88-11.37,6.88c-4.48,0-8.05-3.5-8.05-8.48V34.59
			c0-0.98-2.33-3.07-3.19-3.07h-1.47v-2.21h10.01v21.13c0,2.89,1.47,4.98,4.61,4.98c4.67,0,9.4-4.73,9.4-6.7V34.59
			c0-0.98-2.33-3.07-3.19-3.07h-1.66v-2.21h10.2v23.84C219.1,54.06,221.43,56.21,222.3,56.21z"/>
		<path d="M242.72,52.59c-2.33,3.01-5.41,6.39-9.71,6.39c-3.99,0-7.37-3.19-7.37-7.92c0-5.77,5.28-7.8,9.4-8.66l7.49-1.54l0.06-3.62
			c0.06-4.12-1.6-6.45-6.82-6.45c-4.98,0-6.57,3.19-4.42,8.17h-2.09l-3.87-5.84c2.4-2.46,5.77-4.49,11.67-4.49
			c6.27,0,10.87,2.95,10.87,8.66v15.85c0,0.98,2.4,3.07,3.19,3.07h1.72v2.21h-9.4L242.72,52.59z M235.66,44.54
			c-3.62,0.92-4.85,2.89-4.85,5.77c0,2.52,1.78,4.67,4.67,4.67c2.83,0,5.9-2.95,7.13-5.1v-7.13L235.66,44.54z"/>
		<path d="M284.19,56.21h1.47v2.21H270.8v-2.21h1.66c0.86,0,3.19-2.09,3.19-3.07V37.29c0-2.83-1.47-4.98-4.61-4.98
			c-4.12,0-9.46,4.05-9.46,6.02v14.8c0,0.98,2.33,3.07,3.19,3.07h1.66v2.21h-15.17v-2.21h1.78c0.86,0,3.19-2.09,3.19-3.07V34.59
			c0-0.92-2.33-3.07-3.19-3.07h-1.78v-2.21h9.15l1.11,5.96c3.5-3.56,6.21-6.57,11.43-6.57c4.48,0,8.05,3.32,8.05,8.29v16.16
			C281,54.12,283.33,56.21,284.19,56.21z"/>
		<path d="M295.32,59.1c-3.26,0-6.2-2.4-6.2-6.76V32.01h-5.16v-1.84c3.62-2.95,5.77-4.98,8.6-8.48h1.78v7.62h8.54v2.7h-8.36v19.41
			c0,2.15,1.23,3.56,3.75,3.56c1.47,0,3.56-1.17,4.48-1.84l1.04,1.54C302.51,56.09,298.45,59.1,295.32,59.1z"/>
		<path d="M338.44,56.21h1.78v2.21h-9.15l-1.11-6.2c-3.26,3.75-6.27,6.88-11.37,6.88c-4.48,0-8.05-3.5-8.05-8.48V34.59
			c0-0.98-2.33-3.07-3.19-3.07h-1.47v-2.21h10.01v21.13c0,2.89,1.47,4.98,4.61,4.98c4.67,0,9.4-4.73,9.4-6.7V34.59
			c0-0.98-2.33-3.07-3.19-3.07h-1.66v-2.21h10.2v23.84C335.24,54.06,337.58,56.21,338.44,56.21z"/>
		<path d="M390.24,56.21h1.35v2.21h-14.5v-2.21h1.66c0.86,0,3.07-2.09,3.07-3.07V36.99c0-2.83-1.41-4.79-4.55-4.79
			c-3.81,0-8.54,3.69-8.54,5.65v15.3c0,0.98,2.21,3.07,3.07,3.07h1.66v2.21h-14.8v-2.21h1.66c0.86,0,3.07-2.09,3.07-3.07V36.99
			c0-2.83-1.47-4.79-4.61-4.79c-3.81,0-8.54,3.87-8.54,5.84v15.11c0,0.98,2.21,3.07,3.07,3.07h1.66v2.21h-14.8v-2.21h1.66
			c0.86,0,3.07-2.09,3.07-3.07V34.59c0-0.92-2.21-3.07-3.07-3.07h-1.66v-2.21h8.91l1.17,5.59c3.32-3.5,5.47-6.21,10.57-6.21
			c3.87,0,7.13,2.09,7.68,6.14c3.56-3.5,5.84-6.08,10.75-6.08c4.36,0,7.92,2.95,7.92,8.23v16.16
			C387.16,54.12,389.38,56.21,390.24,56.21z"/>
		<path d="M396,56.21c0.86,0,3.44-2.46,3.44-3.38V19.29c0-0.92-2.58-3.38-3.44-3.38h-2.33V13.7h18.18c8.6,0,15.42,3.26,15.42,10.94
			c0,4.3-1.72,6.27-4.12,7.74l-6.2,1.78c6.33,1.11,12.9,3.99,12.9,11.55c0,8.11-6.63,12.72-17.39,12.72h-18.8v-2.21H396z
			 M405.52,18.13v15.6h7.19c3.81-0.49,7.92-2.52,8.29-7.07c0.06-0.8,0.06-2.15,0-3.07c-0.25-4.61-5.04-7.43-9.21-7.43h-4.36
			C406.69,16.16,405.52,17.39,405.52,18.13z M423.34,47.55c0.06-1.11,0.06-2.4,0-3.5c-0.25-4.98-5.53-7.99-10.08-7.99h-7.74v17.88
			c0,0.61,1.17,1.84,1.78,1.84h5.22C418.55,55.78,423.09,52.77,423.34,47.55z"/>
		<path d="M441.22,53.14c0,0.98,2.4,3.07,3.19,3.07h1.78v2.21h-15.36v-2.21h1.78c0.86,0,3.19-2.09,3.19-3.07V18.99
			c0-0.92-2.33-3.07-3.19-3.07h-1.78V13.7l10.38-2.64V53.14z"/>
		<path d="M465.61,52.59c-2.33,3.01-5.41,6.39-9.71,6.39c-3.99,0-7.37-3.19-7.37-7.92c0-5.77,5.28-7.8,9.4-8.66l7.49-1.54l0.06-3.62
			c0.06-4.12-1.6-6.45-6.82-6.45c-4.98,0-6.57,3.19-4.42,8.17h-2.09l-3.87-5.84c2.4-2.46,5.77-4.49,11.67-4.49
			c6.27,0,10.87,2.95,10.87,8.66v15.85c0,0.98,2.4,3.07,3.19,3.07h1.72v2.21h-9.4L465.61,52.59z M458.55,44.54
			c-3.62,0.92-4.85,2.89-4.85,5.77c0,2.52,1.78,4.67,4.67,4.67c2.83,0,5.9-2.95,7.13-5.1v-7.13L458.55,44.54z"/>
		<path d="M488.92,30.78c-5.77,0-8.6,4.61-8.6,11.43c0,6.45,4.12,11.79,10.75,11.79c5.04,0,7.19-1.78,9.21-5.16h1.78
			c-1.9,6.33-5.77,10.32-13.02,10.32c-8.05,0-13.27-6.88-13.27-15.11c0-9.34,6.21-15.48,13.82-15.48c4.55,0,7.62,1.41,10.26,4.05
			l-4.24,6.57l-1.78,0.12C494.63,34.83,493.89,30.78,488.92,30.78z"/>
		<path d="M512.98,45.34l9.83-9.64c0.92-0.86-0.37-4.18-1.54-4.18h-1.66v-2.21h14.38v2.21h-1.35c-1.47,0.31-5.84,3.56-6.76,4.48
			l-5.1,4.79l9.71,11.73c0.8,0.98,3.13,3.69,4.05,3.69h1.35v2.21h-8.42c0,0-4.91-6.2-10.63-13.82l-3.87,3.62v4.91
			c0,0.98,2.4,3.07,3.19,3.07h1.78v2.21H502.6v-2.21h1.78c0.86,0,3.19-2.09,3.19-3.07V19.05c0-0.92-2.33-3.19-3.19-3.19h-1.78V13.7
			l10.38-2.64V45.34z"/>
	</g>
	<g>
		<path d="M208.57,70.49l10.58,28.38c0.53,0.71,2.48,2.66,3.1,2.66h0.84v1.64h-12.89v-1.64h1.77c0.66-0.04,2.17-1.9,2.17-2.66
			l-2.13-5.8h-11.47l-2.17,5.8c0.13,0.75,1.55,2.66,2.21,2.66h1.68v1.64h-10.27v-1.64h0.75c0.62-0.04,3.05-1.86,3.54-2.66
			l10.45-27.32L208.57,70.49z M211.28,90.86l-4.87-13.28l-5.05,13.28H211.28z"/>
		<path d="M227.12,72.52h-1.68v-1.59h12.75v1.59h-1.68c-0.62,0-2.48,1.77-2.48,2.44v24.18c0,0.66,1.86,2.44,2.48,2.44h1.68v1.59
			h-12.75v-1.59h1.68c0.62,0,2.48-1.77,2.48-2.44V74.96C229.6,74.3,227.74,72.52,227.12,72.52z"/>
		<path d="M267.19,81.65c5.09,0,8.15,4.29,8.15,10.72c0,6.38-3.81,11.25-8.94,11.25c-3.76,0-5.54-1.5-7-4.07l-3.54,3.9h-0.18V74.69
			c0-0.66-1.68-2.21-2.3-2.21h-1.28v-1.55l7.48-1.9v17.45C261.39,83.11,263.74,81.65,267.19,81.65z M259.58,89.84v4.87
			c0,3.68,2.35,6.78,5.89,6.78c3.67,0,5.4-2.35,5.84-5.67c0.27-1.99,0.31-4.29,0.04-6.24c-0.44-3.32-2.26-5.45-5.27-5.45
			C262.55,84.13,260.64,86.56,259.58,89.84z"/>
		<path d="M275.22,83.77h-0.93v-1.59h11.11v1.59h-1.28c-0.58,0-1.86,1.46-1.86,2.26l4.87,11.2l4.78-11.16
			c0.04-0.84-1.24-2.3-1.82-2.3h-1.28v-1.59h8.37v1.59h-0.97c-0.49,0-1.99,1.59-2.44,2.3l-7.13,16.07l-5.27,11.6l-1.9-0.89
			l5.58-11.42l-7.13-15.28C277.61,85.45,275.75,83.77,275.22,83.77z"/>
		<path d="M309.98,72.52h-1.59v-1.59h9.39l9.65,24.31h0.22l10.18-24.31h8.41v1.59h-1.59c-0.62,0-2.48,1.77-2.48,2.44v24.18
			c0,0.66,1.86,2.44,2.48,2.44h1.59v1.59h-12.49v-1.59h1.59c0.62,0,2.48-1.77,2.48-2.44V75.67l-11.73,28.07l-11.73-28.56v23.96
			c0,0.66,1.86,2.44,2.48,2.44h1.59v1.59h-10.05v-1.59h1.59c0.62,0,2.48-1.77,2.48-2.44V74.96C312.46,74.3,310.6,72.52,309.98,72.52
			z"/>
		<path d="M355.96,83.24c-4.16,0-6.2,3.32-6.2,8.24c0,4.65,2.97,8.5,7.75,8.5c3.63,0,5.18-1.28,6.64-3.72h1.28
			c-1.37,4.56-4.16,7.44-9.39,7.44c-5.8,0-9.57-4.96-9.57-10.89c0-6.73,4.47-11.16,9.96-11.16c3.28,0,5.49,1.02,7.39,2.92
			l-3.06,4.74l-1.28,0.09C360.08,86.16,359.55,83.24,355.96,83.24z"/>
		<path d="M383.33,72.52h-1.55v-1.59h11.69v1.59h-1.55c-0.62,0-3.67,2.44-4.12,2.92l-7.84,8.41l11.29,15.01
			c0.53,0.71,3.14,2.7,3.81,2.7h1.06v1.59h-7.93l-11.16-16.12l-3.28,3.54v8.55c0,0.66,1.86,2.44,2.48,2.44h1.59v1.59h-12.58v-1.59
			h1.59c0.62,0,2.48-1.77,2.48-2.44V74.96c0-0.66-1.86-2.44-2.48-2.44h-1.59v-1.59h12.58v1.59h-1.59c-0.62,0-2.48,1.77-2.48,2.44
			v13.2l11.51-12.84C385.77,74.74,383.95,72.52,383.33,72.52z"/>
		<path d="M403.17,99.36c0,0.71,1.73,2.21,2.3,2.21h1.28v1.59h-11.07v-1.59h1.28c0.62,0,2.3-1.51,2.3-2.21V85.99
			c0-0.67-1.68-2.21-2.3-2.21h-1.28v-1.59h7.48V99.36z M400.82,71.95c1.55,0,2.7,1.02,2.7,2.66c0,1.64-1.15,2.7-2.7,2.7
			s-2.75-1.06-2.75-2.7C398.07,72.97,399.27,71.95,400.82,71.95z"/>
		<path d="M430.18,101.57h1.06v1.59h-10.72v-1.59h1.2c0.62,0,2.3-1.51,2.3-2.21V87.93c0-2.04-1.06-3.59-3.32-3.59
			c-2.97,0-6.82,2.92-6.82,4.34v10.67c0,0.71,1.68,2.21,2.3,2.21h1.2v1.59h-10.94v-1.59h1.28c0.62,0,2.3-1.51,2.3-2.21V85.99
			c0-0.67-1.68-2.21-2.3-2.21h-1.28v-1.59h6.6l0.8,4.29c2.52-2.57,4.47-4.74,8.24-4.74c3.23,0,5.8,2.39,5.8,5.98v11.65
			C427.87,100.07,429.56,101.57,430.18,101.57z"/>
		<path d="M441.37,101.97c2.61,0,4.07-0.93,4.07-2.88c0-2.35-2.08-3.14-3.94-3.94c-1.46-0.62-2.66-1.11-4.34-1.86
			c-2.52-1.15-4.43-2.83-4.43-5.71c0-3.76,2.26-5.93,6.29-5.93c2.3,0,3.59,1.11,5.18,1.11c0.62,0,0.97-0.13,1.15-0.58h1.15v6.46
			h-1.28c0-1.73-2.44-5.4-6.33-5.4c-2.44,0-3.59,1.06-3.59,2.79c0,1.82,1.24,2.48,3.41,3.41c1.59,0.67,2.79,1.2,4.52,1.86
			c2.26,0.89,4.83,2.7,4.83,6.07c0,3.99-2.75,6.33-6.69,6.33c-2.66,0-4.21-1.24-6.02-1.24c-0.84,0-1.06,0.22-1.59,0.71h-1.02v-7.35
			h1.28C434.02,97.76,436.85,101.97,441.37,101.97z"/>
		<path d="M449.15,92.67c0-6.2,4.21-11.03,9.61-10.98c4.74,0.04,7.39,3.28,7.62,7.35l0.09,1.51l-13.95,1.11
			c0,4.21,2.92,8.37,7.66,8.37c3.59,0,5.22-1.37,6.51-3.76h1.28c-1.37,4.56-3.99,7.4-9.12,7.4C453,103.65,449.15,98.56,449.15,92.67
			z M458.67,83.28c-4.34,0-6.07,3.59-6.2,6.86l10.41-0.89C463.23,86.3,462.74,83.28,458.67,83.28z"/>
		<path d="M466.95,83.77h-0.93v-1.59h11.11v1.59h-1.28c-0.58,0-1.86,1.46-1.86,2.26l4.87,11.2l4.78-11.16
			c0.04-0.84-1.24-2.3-1.82-2.3h-1.28v-1.59h8.37v1.59h-0.97c-0.49,0-1.99,1.59-2.44,2.3l-7.13,16.07l-5.27,11.6l-1.9-0.89
			l5.58-11.42l-7.13-15.28C469.35,85.45,467.49,83.77,466.95,83.77z"/>
	</g>
</g>
<g id="Layer_2">
</g>
</svg>
