<svg version="1.1" id="Layer_1" xmlns="http://www.w3.org/2000/svg" xmlns:xlink="http://www.w3.org/1999/xlink" x="0px" y="0px"
	 width="100%" viewBox="0 0 838 157" enable-background="new 0 0 838 157" xml:space="preserve">
<path fill="#FFFFFF" opacity="1.000000" stroke="none" 
	d="
M839.000000,69.000000 
	C839.000000,98.651436 839.000000,128.302872 839.000000,158.000000 
	C589.643372,158.000000 340.286682,158.000000 90.616035,157.613235 
	C93.965500,156.579559 97.712227,156.230637 101.277954,155.234085 
	C116.598885,150.952255 129.397888,142.797714 139.921143,130.709259 
	C151.903107,116.945129 157.850235,100.852173 158.867020,83.015297 
	C159.731842,67.843719 156.235046,53.356277 148.554672,40.102146 
	C139.744385,24.898146 127.495094,13.432258 110.969803,7.036630 
	C104.792969,4.646067 98.331619,2.990626 92.000000,1.000000 
	C341.000000,1.000000 590.000000,1.000000 839.000000,1.000000 
	C839.000000,21.424921 839.000000,41.747448 838.648193,62.416847 
	C837.818481,53.696484 823.456360,51.032951 816.863525,57.729858 
	C812.697937,61.961239 808.988892,66.642197 804.966187,71.246094 
	C804.966187,65.978226 804.966187,60.577419 804.966187,55.753036 
	C794.815247,56.340698 785.015381,56.908031 775.003357,57.487652 
	C775.068237,58.950260 775.130371,60.350109 775.203613,62.000000 
	C778.223816,62.000000 780.867004,61.999031 783.510254,62.000187 
	C789.980530,62.003021 789.994446,62.003410 789.997314,68.728325 
	C790.005066,87.053467 790.000000,105.378601 790.000000,123.703743 
	C790.000000,134.693924 789.999939,134.691116 779.227600,135.011612 
	C778.596008,135.030396 777.967468,135.152664 777.239380,135.238327 
	C777.239380,137.183105 777.239380,138.914108 777.239380,140.747467 
	C791.222046,140.747467 804.965759,140.747467 818.726196,140.747467 
	C818.726196,138.759033 818.726196,137.027252 818.726196,134.851288 
	C814.054138,134.851288 809.639282,134.851288 805.000000,134.851288 
	C805.000000,120.098358 804.851135,105.791885 805.092957,91.492020 
	C805.163269,87.335442 805.641052,82.909813 807.181030,79.114273 
	C809.966187,72.249832 813.293762,65.403793 821.687012,62.972576 
	C821.811218,63.785995 822.017700,64.402168 821.979126,65.002594 
	C821.691406,69.477844 822.817322,73.507950 827.425232,74.879181 
	C833.247498,76.611763 836.061279,74.882637 839.000000,69.000000 
M300.512512,142.008759 
	C307.110962,144.268616 313.313690,142.514069 319.430511,140.096664 
	C330.916473,135.557373 334.412292,125.100121 337.815857,114.731178 
	C338.150513,113.711655 336.286560,111.970444 335.574188,110.782745 
	C332.162659,117.226570 329.466217,123.262833 325.929382,128.758194 
	C321.639771,135.423248 314.745300,138.541473 307.102173,137.788391 
	C297.763428,136.868256 290.535919,131.614487 289.211029,121.954185 
	C287.786926,111.570618 288.032532,100.958054 287.528015,89.976257 
	C304.827118,89.976257 321.226349,89.976257 337.665405,89.976257 
	C339.747559,75.279808 334.215515,64.306763 322.668518,56.396149 
	C316.822449,52.391113 309.811249,50.382275 302.768829,51.239662 
	C293.396881,52.380665 285.850922,57.097961 280.310730,65.099136 
	C271.418152,77.941887 267.882294,92.105591 270.922882,107.246086 
	C272.562775,115.411774 276.584167,123.099190 279.790100,131.697067 
	C277.388550,133.948334 274.026123,136.625916 268.499878,135.264755 
	C263.205444,133.960648 262.625366,129.746552 262.158600,126.004723 
	C261.283234,118.987694 261.549225,111.835686 260.911194,104.778625 
	C260.581787,101.135376 259.931732,97.288818 258.379181,94.033646 
	C254.332092,85.548195 247.397964,80.090515 237.353104,77.227554 
	C239.251953,76.589752 240.115021,76.231529 241.011749,76.009010 
	C252.527695,73.151382 262.054901,67.760368 264.369690,55.027683 
	C266.276031,44.541626 266.066681,34.206570 256.326111,26.867495 
	C249.856964,21.993252 242.166153,20.325592 234.427307,20.128782 
	C217.945312,19.709629 201.445175,19.999454 184.952515,20.023178 
	C184.332855,20.024071 183.713562,20.280109 182.910660,20.457859 
	C183.053757,22.033077 183.181229,23.436352 183.347031,25.261492 
	C187.411697,25.261492 191.146439,25.261492 194.636902,25.261492 
	C194.636902,62.110661 194.636902,98.500954 194.636902,135.147583 
	C190.648102,135.147583 187.020142,135.147583 183.207626,135.147583 
	C183.207626,136.804398 183.207626,138.200775 183.207626,139.775543 
	C197.157745,139.775543 210.904526,139.775543 224.764816,139.775543 
	C224.764816,138.151886 224.764816,136.754852 224.764816,134.916763 
	C220.801010,134.916763 217.048386,134.916763 213.001495,134.916763 
	C213.001495,116.848152 212.951767,99.221016 213.115280,81.595840 
	C213.125992,80.442009 214.551666,78.634300 215.688293,78.264091 
	C224.305298,75.457413 238.850342,82.610077 240.772141,91.536858 
	C242.514755,99.631302 242.950470,108.145737 242.873184,116.464882 
	C242.705399,134.528397 263.067017,147.138000 276.144928,140.028473 
	C279.220734,138.356384 282.332764,136.750946 283.995758,135.871948 
	C289.862061,138.169403 294.753448,140.085037 300.512512,142.008759 
M369.381256,135.000061 
	C367.301422,135.000061 365.221588,135.000061 363.000305,135.000061 
	C363.000305,118.140152 362.328339,101.951546 363.259216,85.855652 
	C363.794281,76.604324 368.837646,68.570580 377.088806,63.520332 
	C384.136322,59.206802 390.830780,60.093182 394.302948,66.094612 
	C396.144592,69.277756 396.822174,73.506340 396.885193,77.282005 
	C397.154755,93.437149 397.000031,109.599358 397.000000,125.758995 
	C397.000000,134.670364 396.999786,134.666138 388.034851,135.084717 
	C387.756836,135.097702 387.492432,135.401871 386.982300,135.719208 
	C387.057739,137.323227 387.139099,139.053467 387.230652,141.000000 
	C396.102264,141.000000 404.594055,140.696182 413.052887,141.094238 
	C420.064117,141.424194 426.353363,140.831955 429.326385,135.330948 
	C436.459076,138.037949 442.802399,141.757767 449.528625,142.677673 
	C458.665619,143.927292 467.352386,141.365250 472.819031,132.683136 
	C477.642181,125.023041 479.926361,117.015739 478.123352,107.758675 
	C476.323151,98.516083 472.047577,91.630058 462.794037,89.045319 
	C455.195282,86.922791 447.349915,85.692772 439.632843,83.981491 
	C431.000977,82.067337 428.260803,78.502884 430.071747,70.584557 
	C432.842010,58.471577 445.666809,53.526207 455.187592,59.060966 
	C461.753357,62.877857 464.580597,69.407166 467.142151,76.151459 
	C467.809052,77.907326 467.737030,81.761597 471.799927,79.495399 
	C471.799927,71.449028 471.799927,63.348370 471.799927,55.247711 
	C471.435791,54.965515 471.071686,54.683323 470.707550,54.401127 
	C468.847870,56.402973 466.988220,58.404819 465.162170,60.370449 
	C455.424896,48.933945 437.088593,51.855141 429.538971,58.981762 
	C421.863464,66.227257 419.525391,75.036903 421.714691,85.268066 
	C424.319855,97.442619 434.175476,100.857422 444.201996,103.959198 
	C451.247131,106.138657 458.541199,107.584824 465.437531,110.133835 
	C467.742981,110.985985 470.420654,114.061081 470.752045,116.425079 
	C471.792877,123.850227 469.678986,130.697968 463.239594,135.240036 
	C456.371277,140.084686 449.225616,139.772919 441.983459,135.579575 
	C434.440094,131.211838 429.863068,124.707802 426.821747,116.713699 
	C426.017609,114.599968 425.623260,110.679840 420.970825,112.438393 
	C420.970825,119.717567 420.970825,127.159805 420.970825,134.543503 
	C412.000122,135.618759 412.000031,135.618759 412.000000,127.164711 
	C411.999939,110.172104 412.348022,93.167870 411.780457,76.194244 
	C411.617615,71.324364 409.946381,65.642509 406.984863,61.902218 
	C400.121643,53.234146 384.386536,51.898293 374.909668,58.847519 
	C370.394165,62.158646 366.992981,66.989365 362.999298,71.224792 
	C362.999298,67.209534 363.216309,62.942341 362.869263,58.721527 
	C362.762817,57.426903 361.020966,55.139275 360.181366,55.207008 
	C351.890869,55.875816 343.632660,56.944939 334.357910,58.017086 
	C337.383850,63.607590 343.200043,59.343552 346.716858,61.564701 
	C346.716858,85.943199 346.716858,110.338905 346.716858,135.160583 
	C343.354309,135.160583 340.271759,135.160583 336.951294,135.160583 
	C337.057312,137.334824 337.141785,139.067444 337.220398,140.679504 
	C349.392975,140.679504 361.138641,140.679504 372.865662,140.679504 
	C373.030396,135.908173 373.030396,135.908173 369.381256,135.000061 
M664.722412,54.002823 
	C663.481934,54.344788 662.187073,54.556885 661.009521,55.049324 
	C651.775513,58.910847 644.741028,65.196022 645.955933,75.441109 
	C646.539124,80.358932 648.806152,82.055367 654.887634,82.051933 
	C659.691345,82.049225 659.633789,79.101257 660.146729,75.500130 
	C660.906067,70.168930 656.302124,68.871239 653.732544,65.956703 
	C661.265442,57.021095 671.045227,55.897747 681.266846,57.298412 
	C684.595032,57.754475 688.044800,59.854748 688.013794,64.448677 
	C687.959839,72.431900 687.998840,80.415756 687.998840,88.742561 
	C685.318726,89.178925 682.807373,89.671005 680.274109,89.986023 
	C668.614441,91.435905 657.930420,94.784195 649.084900,103.235718 
	C642.761780,109.277138 641.302551,120.496361 644.420837,127.819588 
	C648.114319,136.493713 655.528748,140.551483 664.511963,140.866714 
	C674.495972,141.217072 682.888489,137.045258 689.572693,128.726303 
	C691.658081,135.620316 695.109253,141.144424 702.443909,140.843597 
	C712.043945,140.449860 715.672852,132.549683 719.440063,125.255775 
	C730.362915,143.872192 750.050781,146.682281 763.828552,139.022354 
	C770.372925,135.383896 782.495911,116.295250 780.661621,112.295586 
	C779.466309,112.003662 778.181458,111.689888 777.519531,111.528214 
	C774.169983,117.765808 771.520142,123.869934 767.832336,129.264450 
	C763.478271,135.633575 756.535034,138.531738 749.073608,137.787567 
	C739.722168,136.854919 732.526245,131.575424 731.208862,121.914619 
	C729.792664,111.529999 730.034180,100.919342 729.533142,89.988228 
	C747.235840,89.988228 764.003967,89.988228 780.887939,89.988228 
	C780.540894,88.184166 779.988281,86.769478 780.045471,85.379860 
	C780.545227,73.223068 775.529663,63.788265 765.577454,57.178608 
	C751.803955,48.031147 737.077637,48.655357 725.963440,60.928543 
	C712.976807,75.269402 709.013184,92.673401 713.861084,111.820251 
	C715.041260,116.481537 718.356812,121.087364 714.436340,126.327850 
	C712.286011,129.202286 710.260010,131.649994 706.600159,130.759354 
	C703.099182,129.907410 702.957092,126.766701 702.968384,123.657372 
	C703.033386,105.824585 703.058716,87.991127 702.964111,70.158607 
	C702.935852,64.830574 701.607483,60.152527 696.606262,56.862839 
	C686.673279,50.329025 676.226746,51.581642 664.722412,54.002823 
M604.961914,64.709473 
	C603.360474,63.023731 601.917542,61.144104 600.131653,59.683945 
	C589.203674,50.749126 575.323120,47.945702 564.254272,55.354725 
	C538.806580,72.388306 534.893799,114.489700 559.704956,135.964508 
	C572.660583,147.177948 595.108398,145.570587 604.554199,129.757019 
	C607.728455,124.442833 609.892395,118.525108 612.672058,112.552452 
	C610.603882,112.030800 609.312012,111.704948 608.410522,111.477570 
	C605.506042,117.201195 603.153137,122.893929 599.891846,128.007339 
	C595.433777,134.997238 588.310974,138.457443 580.273193,137.782608 
	C571.177795,137.018951 563.928772,131.822876 562.488403,122.546257 
	C560.838074,111.917580 561.061279,100.998016 560.444580,89.730858 
	C578.428040,89.730858 595.166870,89.730858 612.042786,89.730858 
	C611.957092,80.676521 610.751343,72.416977 604.961914,64.709473 
M641.375488,141.000000 
	C643.158447,141.000000 644.941345,141.000000 646.722168,141.000000 
	C646.722168,138.751007 646.722168,137.018845 646.722168,134.844696 
	C642.714844,134.844696 638.967651,134.844696 634.898926,134.844696 
	C634.898926,96.316734 634.898926,58.235744 634.898926,20.604155 
	C625.653503,21.421545 616.731934,22.373064 607.785706,22.922289 
	C604.133423,23.146509 604.778809,24.729359 605.539307,27.000002 
	C608.291199,27.000002 610.819519,27.265543 613.270569,26.943445 
	C618.032715,26.317646 619.124939,28.303030 619.098999,32.848679 
	C618.913696,65.322678 619.000000,97.798225 619.000000,130.273285 
	C619.000000,131.722565 619.000000,133.171844 619.000000,135.050201 
	C614.467529,135.050201 610.379150,135.050201 606.261108,135.050201 
	C606.261108,137.220627 606.261108,138.951172 606.261108,141.000000 
	C617.814270,141.000000 629.110474,141.000000 641.375488,141.000000 
M489.425720,122.927826 
	C486.374939,119.660233 487.776886,113.008385 481.176025,111.641922 
	C481.176025,121.424774 481.176025,130.545059 481.176025,141.511963 
	C484.963135,138.713699 487.788849,136.625809 489.476135,135.379105 
	C496.416107,138.024750 502.742340,141.751038 509.454163,142.674210 
	C518.575989,143.928848 527.191711,141.340744 532.778809,132.760300 
	C538.179749,124.465843 540.150696,115.411476 537.825378,105.906532 
	C535.770691,97.507622 531.016785,90.752411 521.976624,88.513962 
	C513.842041,86.499756 505.534393,85.160355 497.446594,82.988808 
	C489.845581,80.947968 487.965332,77.308647 490.045715,70.097824 
	C493.722321,57.354187 507.910919,53.236671 516.772827,60.171478 
	C522.285217,64.485153 524.974609,70.303322 527.236816,76.577858 
	C527.909363,78.443222 528.375916,81.296257 531.830444,79.518356 
	C531.830444,71.487350 531.830444,63.377605 531.830444,55.267860 
	C531.473450,54.979187 531.116394,54.690514 530.759399,54.401844 
	C528.886230,56.395836 527.013062,58.389824 525.398010,60.109028 
	C522.413635,58.201069 519.403137,55.188454 515.827148,54.178604 
	C500.336060,49.803967 485.339844,55.912624 481.111023,73.904198 
	C478.858337,83.488312 482.915039,93.219070 491.163879,98.597816 
	C498.528839,103.400154 506.918915,105.089020 515.479736,105.973701 
	C525.606445,107.020195 531.421997,112.603806 530.999817,121.164055 
	C530.447388,132.366928 519.729065,140.194794 508.888580,138.164093 
	C499.778564,136.457565 494.605835,130.488861 489.425720,122.927826 
z"/>
<path fill="#231F20" opacity="1.000000" stroke="none" 
	d="
M91.531364,1.000000 
	C98.331619,2.990626 104.792969,4.646067 110.969803,7.036630 
	C127.495094,13.432258 139.744385,24.898146 148.554672,40.102146 
	C156.235046,53.356277 159.731842,67.843719 158.867020,83.015297 
	C157.850235,100.852173 151.903107,116.945129 139.921143,130.709259 
	C129.397888,142.797714 116.598885,150.952255 101.277954,155.234085 
	C97.712227,156.230637 93.965500,156.579559 90.151024,157.613235 
	C83.645599,158.000000 77.291206,158.000000 70.318970,157.614441 
	C66.806770,156.808899 63.817642,156.718597 61.032597,155.918213 
	C31.520475,147.436737 11.898869,128.967377 3.987853,98.878067 
	C2.785834,94.306221 1.985908,89.628662 1.000000,85.000000 
	C1.000000,81.638710 1.000000,78.277428 1.395737,74.294609 
	C1.895216,71.026901 1.563026,68.274635 2.176804,65.752579 
	C5.116203,53.674435 9.258383,42.185436 16.896500,32.016521 
	C25.415167,20.675299 36.047867,12.316422 49.060795,7.053898 
	C55.187885,4.576057 61.675663,2.990102 68.000000,1.000000 
	C75.687576,1.000000 83.375153,1.000000 91.531364,1.000000 
M68.129738,65.639549 
	C68.666336,65.673294 69.202942,65.707031 69.739540,65.740776 
	C69.417717,65.299973 69.095886,64.859177 68.285706,63.823086 
	C69.305405,62.871738 70.325104,61.920387 71.016220,61.275593 
	C68.206139,61.275593 64.895584,61.275593 61.585033,61.275593 
	C61.579292,61.428116 61.573547,61.580639 61.567806,61.733162 
	C62.708370,61.952290 63.848930,62.171413 65.358276,62.461391 
	C64.485947,63.850449 63.906143,64.773705 62.961510,66.277901 
	C65.174187,65.745308 66.550980,65.413910 68.129738,65.639549 
M91.723709,123.798767 
	C87.096817,123.770309 81.680801,125.884331 79.449501,118.827148 
	C77.378075,126.530312 70.965370,123.002701 65.639709,124.537804 
	C75.428703,126.692787 84.293388,128.159515 93.849068,124.006760 
	C95.449554,123.546913 97.050041,123.087074 98.650520,122.627235 
	C96.595322,123.316490 93.846031,118.855072 91.723709,123.798767 
M19.460629,123.974625 
	C23.729469,128.680710 27.998308,133.386795 32.105450,137.914612 
	C36.077293,132.697754 31.565559,130.348495 29.180233,127.426628 
	C30.968054,126.974205 32.938721,127.071793 33.862968,126.135941 
	C37.410389,122.543983 40.622185,118.620567 44.006233,114.767250 
	C23.657574,94.010483 25.979185,62.121441 43.331982,44.213650 
	C62.295361,24.643763 91.858055,24.401503 110.722015,39.352280 
	C122.034546,48.318115 128.863892,60.369286 129.863541,74.848160 
	C130.952103,90.614540 125.916862,104.515999 114.609200,115.030640 
	C119.356392,119.444107 123.845299,123.617439 128.440552,127.889648 
	C127.069031,129.394272 125.438225,131.183334 123.962090,132.802719 
	C124.776619,134.602081 125.424973,136.034378 126.322571,138.017258 
	C122.923225,137.637115 120.080368,137.127365 117.224594,137.039978 
	C111.348534,136.860138 111.240021,136.781708 113.992081,131.103561 
	C113.323700,130.553329 112.605560,129.834106 111.770645,129.296066 
	C107.153152,126.320480 103.264709,122.833809 96.576385,125.840538 
	C84.768974,131.148560 72.495834,130.127777 60.563549,125.215790 
	C57.773632,124.067314 55.140907,123.654366 52.472534,125.883278 
	C50.037590,127.917206 47.252121,129.531494 44.340839,131.522400 
	C47.073418,134.550171 48.611076,136.832336 43.268997,137.077347 
	C40.311684,137.212967 37.384094,137.996628 34.131027,138.540359 
	C34.723621,139.172028 35.087269,139.724396 35.591614,140.073456 
	C54.700241,153.298904 75.400093,158.170547 98.293144,152.346863 
	C115.712646,147.915558 129.620636,138.377563 140.348984,124.124603 
	C153.156097,107.109993 157.609146,87.986092 154.019775,67.050758 
	C149.321991,39.650654 133.663742,20.855980 108.401337,9.843831 
	C94.391548,3.736817 79.799042,2.317366 64.897858,5.598523 
	C46.040928,9.750711 30.838203,19.738493 19.288088,35.223640 
	C11.086461,46.219490 6.242211,58.603844 5.060391,72.227257 
	C3.438685,90.921448 8.329530,107.992149 19.460629,123.974625 
M105.836716,90.648048 
	C100.440353,96.730637 95.043999,102.813232 90.302803,108.157349 
	C97.076279,109.836876 104.234802,111.611885 111.794098,113.486267 
	C131.665817,97.200043 133.364670,63.214485 111.007149,43.416859 
	C92.781052,27.277630 60.670586,25.314854 41.427570,51.283249 
	C26.558008,71.349686 29.597364,96.988533 47.403481,113.299812 
	C55.059685,111.474594 62.199768,109.772415 69.321159,108.074699 
	C69.414780,108.225807 69.249840,107.781349 68.938911,107.495949 
	C68.345375,106.951149 67.625198,106.544098 67.033066,105.998024 
	C60.229439,99.723480 51.188892,95.044487 51.938538,83.559326 
	C52.295933,78.083786 52.037537,72.565277 51.990582,67.066811 
	C51.930763,60.062466 54.001560,52.315464 44.001549,48.353020 
	C67.921516,48.353020 90.246208,48.353020 114.241226,48.353020 
	C105.967606,52.273911 105.888847,58.452663 105.972122,64.803955 
	C106.081345,73.134064 105.991112,81.466782 105.836716,90.648048 
M99.651634,112.946449 
	C97.928223,112.561493 96.212746,111.923615 94.478958,111.869171 
	C93.011772,111.823105 91.523384,112.452393 90.044388,112.782814 
	C91.008545,114.530022 91.624908,117.424706 92.992950,117.839355 
	C102.302086,120.660866 111.137543,124.204659 117.898369,131.138245 
	C122.712303,128.240479 123.248329,125.011520 118.717056,122.358566 
	C112.831825,118.912865 106.583374,116.087540 99.651634,112.946449 
M47.662350,117.037369 
	C45.151657,118.816956 42.413357,120.351433 40.177872,122.427368 
	C35.586800,126.690765 35.757477,127.244225 41.236000,130.900070 
	C42.930824,129.577881 44.439125,127.935684 46.304935,127.029999 
	C52.767262,123.893143 59.444935,121.188499 65.820267,117.893021 
	C67.175217,117.192642 67.795441,114.748108 68.284775,112.977417 
	C68.378891,112.636879 66.036964,110.901772 65.229698,111.149399 
	C59.568813,112.885849 54.015736,114.973747 47.662350,117.037369 
M78.562576,106.992111 
	C78.041832,106.015633 77.118332,105.057907 77.071815,104.059341 
	C76.894386,100.250206 77.152245,96.418037 76.906357,92.616531 
	C76.832458,91.473999 75.649925,90.403175 74.975266,89.299500 
	C74.718903,89.473572 74.462540,89.647636 74.206177,89.821709 
	C74.206177,95.747849 74.206177,101.673988 74.206177,107.796753 
	C77.803070,107.796753 81.193886,107.796753 84.792404,107.796753 
	C84.792404,101.255287 84.792404,94.912704 84.792404,88.570122 
	C83.234444,90.223854 82.255798,92.102478 82.080956,94.053146 
	C81.785805,97.346161 82.199875,100.703972 81.884911,103.993279 
	C81.782623,105.061378 80.333244,106.000488 78.562576,106.992111 
M85.919922,110.682976 
	C81.723007,110.373238 77.526093,110.063507 73.401207,109.759087 
	C72.257446,117.042915 71.695778,117.860855 85.992592,116.483109 
	C85.992592,114.883034 85.992592,113.251747 85.919922,110.682976 
M74.000076,75.376251 
	C74.000076,77.091904 74.000076,78.807549 74.000076,80.523201 
	C74.473694,80.620621 74.947311,80.718048 75.420929,80.815468 
	C76.166595,78.388252 76.912254,75.961037 77.718704,73.335938 
	C78.845345,73.335938 80.369331,73.335938 81.633453,73.335938 
	C82.853958,75.933250 80.079857,79.804512 84.711395,80.532936 
	C84.711395,77.703636 84.711395,74.965942 84.711395,72.001190 
	C81.792015,72.001190 79.132004,71.788185 76.539909,72.114571 
	C75.609337,72.231743 74.842445,73.648903 74.000076,75.376251 
M84.302879,69.989586 
	C89.682350,69.989586 95.061821,69.989586 101.512047,69.989586 
	C94.742119,66.887512 89.075554,65.843224 84.302879,69.989586 
M72.567230,66.005135 
	C71.602020,67.052330 70.636818,68.099525 69.145500,69.717529 
	C72.773911,69.717529 75.338806,69.717529 77.912498,69.717529 
	C77.912498,67.776184 77.912498,66.118240 77.912498,64.529526 
	C76.367287,65.032890 74.882477,65.516579 72.567230,66.005135 
M57.193954,65.712029 
	C56.581093,65.218628 55.968231,64.725220 55.154289,64.069931 
	C55.154289,66.131836 55.154289,67.870323 55.154289,69.738861 
	C57.816471,69.738861 60.320412,69.738861 62.824356,69.738861 
	C63.003376,69.204727 63.182400,68.670593 63.361423,68.136452 
	C61.563515,67.415565 59.765606,66.694672 57.193954,65.712029 
M85.383377,59.000000 
	C87.092880,59.000000 88.802383,59.000000 90.511879,59.000000 
	C90.597786,58.435787 90.683685,57.871578 90.769592,57.307365 
	C87.640419,56.876705 84.518738,56.336891 81.374825,56.121304 
	C80.842018,56.084763 80.213623,57.442245 78.937958,59.000000 
	C81.585144,59.000000 83.041931,59.000000 85.383377,59.000000 
z"/>
<path fill="#D6001C" opacity="1.000000" stroke="none" 
	d="
M839.000000,68.571533 
	C836.061279,74.882637 833.247498,76.611763 827.425232,74.879181 
	C822.817322,73.507950 821.691406,69.477844 821.979126,65.002594 
	C822.017700,64.402168 821.811218,63.785995 821.687012,62.972576 
	C813.293762,65.403793 809.966187,72.249832 807.181030,79.114273 
	C805.641052,82.909813 805.163269,87.335442 805.092957,91.492020 
	C804.851135,105.791885 805.000000,120.098358 805.000000,134.851288 
	C809.639282,134.851288 814.054138,134.851288 818.726196,134.851288 
	C818.726196,137.027252 818.726196,138.759033 818.726196,140.747467 
	C804.965759,140.747467 791.222046,140.747467 777.239380,140.747467 
	C777.239380,138.914108 777.239380,137.183105 777.239380,135.238327 
	C777.967468,135.152664 778.596008,135.030396 779.227600,135.011612 
	C789.999939,134.691116 790.000000,134.693924 790.000000,123.703743 
	C790.000000,105.378601 790.005066,87.053467 789.997314,68.728325 
	C789.994446,62.003410 789.980530,62.003021 783.510254,62.000187 
	C780.867004,61.999031 778.223816,62.000000 775.203613,62.000000 
	C775.130371,60.350109 775.068237,58.950260 775.003357,57.487652 
	C785.015381,56.908031 794.815247,56.340698 804.966187,55.753036 
	C804.966187,60.577419 804.966187,65.978226 804.966187,71.246094 
	C808.988892,66.642197 812.697937,61.961239 816.863525,57.729858 
	C823.456360,51.032951 837.818481,53.696484 838.648193,62.881859 
	C839.000000,64.714355 839.000000,66.428719 839.000000,68.571533 
z"/>
<path fill="#FFFFFF" opacity="1.000000" stroke="none" 
	d="
M1.000000,85.468658 
	C1.985908,89.628662 2.785834,94.306221 3.987853,98.878067 
	C11.898869,128.967377 31.520475,147.436737 61.032597,155.918213 
	C63.817642,156.718597 66.806770,156.808899 69.850571,157.614441 
	C47.071083,158.000000 24.142166,158.000000 1.000000,158.000000 
	C1.000000,133.979523 1.000000,109.958420 1.000000,85.468658 
z"/>
<path fill="#FFFFFF" opacity="1.000000" stroke="none" 
	d="
M67.531342,1.000000 
	C61.675663,2.990102 55.187885,4.576057 49.060795,7.053898 
	C36.047867,12.316422 25.415167,20.675299 16.896500,32.016521 
	C9.258383,42.185436 5.116203,53.674435 2.176804,65.752579 
	C1.563026,68.274635 1.895216,71.026901 1.395737,73.836540 
	C1.000000,49.742943 1.000000,25.485888 1.000000,1.000000 
	C23.020367,1.000000 45.041523,1.000000 67.531342,1.000000 
z"/>
<path fill="#D6001C" opacity="1.000000" stroke="none" 
	d="
M300.078674,142.004715 
	C294.753448,140.085037 289.862061,138.169403 283.995758,135.871948 
	C282.332764,136.750946 279.220734,138.356384 276.144928,140.028473 
	C263.067017,147.138000 242.705399,134.528397 242.873184,116.464882 
	C242.950470,108.145737 242.514755,99.631302 240.772141,91.536858 
	C238.850342,82.610077 224.305298,75.457413 215.688293,78.264091 
	C214.551666,78.634300 213.125992,80.442009 213.115280,81.595840 
	C212.951767,99.221016 213.001495,116.848152 213.001495,134.916763 
	C217.048386,134.916763 220.801010,134.916763 224.764816,134.916763 
	C224.764816,136.754852 224.764816,138.151886 224.764816,139.775543 
	C210.904526,139.775543 197.157745,139.775543 183.207626,139.775543 
	C183.207626,138.200775 183.207626,136.804398 183.207626,135.147583 
	C187.020142,135.147583 190.648102,135.147583 194.636902,135.147583 
	C194.636902,98.500954 194.636902,62.110661 194.636902,25.261492 
	C191.146439,25.261492 187.411697,25.261492 183.347031,25.261492 
	C183.181229,23.436352 183.053757,22.033077 182.910660,20.457859 
	C183.713562,20.280109 184.332855,20.024071 184.952515,20.023178 
	C201.445175,19.999454 217.945312,19.709629 234.427307,20.128782 
	C242.166153,20.325592 249.856964,21.993252 256.326111,26.867495 
	C266.066681,34.206570 266.276031,44.541626 264.369690,55.027683 
	C262.054901,67.760368 252.527695,73.151382 241.011749,76.009010 
	C240.115021,76.231529 239.251953,76.589752 237.353104,77.227554 
	C247.397964,80.090515 254.332092,85.548195 258.379181,94.033646 
	C259.931732,97.288818 260.581787,101.135376 260.911194,104.778625 
	C261.549225,111.835686 261.283234,118.987694 262.158600,126.004723 
	C262.625366,129.746552 263.205444,133.960648 268.499878,135.264755 
	C274.026123,136.625916 277.388550,133.948334 279.790100,131.697067 
	C276.584167,123.099190 272.562775,115.411774 270.922882,107.246086 
	C267.882294,92.105591 271.418152,77.941887 280.310730,65.099136 
	C285.850922,57.097961 293.396881,52.380665 302.768829,51.239662 
	C309.811249,50.382275 316.822449,52.391113 322.668518,56.396149 
	C334.215515,64.306763 339.747559,75.279808 337.665405,89.976257 
	C321.226349,89.976257 304.827118,89.976257 287.528015,89.976257 
	C288.032532,100.958054 287.786926,111.570618 289.211029,121.954185 
	C290.535919,131.614487 297.763428,136.868256 307.102173,137.788391 
	C314.745300,138.541473 321.639771,135.423248 325.929382,128.758194 
	C329.466217,123.262833 332.162659,117.226570 335.574188,110.782745 
	C336.286560,111.970444 338.150513,113.711655 337.815857,114.731178 
	C334.412292,125.100121 330.916473,135.557373 319.430511,140.096664 
	C313.313690,142.514069 307.110962,144.268616 300.078674,142.004715 
M213.004486,27.884428 
	C213.003006,41.362839 213.078796,54.842014 212.945007,68.319107 
	C212.912155,71.629684 213.708405,73.268181 217.389008,73.059982 
	C221.867477,72.806656 226.403183,73.338112 230.856171,72.917068 
	C236.872772,72.348183 241.979935,70.171310 245.061081,64.203552 
	C248.743027,57.072109 248.692459,49.455936 247.732056,42.101631 
	C246.880569,35.581348 244.473938,28.110186 237.219696,26.418730 
	C229.993622,24.733835 222.199661,25.452385 214.651093,25.252970 
	C214.131012,25.239229 213.581009,26.358135 213.004486,27.884428 
M318.591888,63.057281 
	C314.104614,54.519920 301.582397,52.603180 293.910583,59.618896 
	C286.493347,66.401817 287.820038,75.198486 288.260437,83.631683 
	C299.765106,83.631683 310.834808,83.631683 323.307892,83.631683 
	C321.817200,76.544830 320.460693,70.095924 318.591888,63.057281 
z"/>
<path fill="#D6001C" opacity="1.000000" stroke="none" 
	d="
M369.852417,135.000427 
	C373.030396,135.908173 373.030396,135.908173 372.865662,140.679504 
	C361.138641,140.679504 349.392975,140.679504 337.220398,140.679504 
	C337.141785,139.067444 337.057312,137.334824 336.951294,135.160583 
	C340.271759,135.160583 343.354309,135.160583 346.716858,135.160583 
	C346.716858,110.338905 346.716858,85.943199 346.716858,61.564701 
	C343.200043,59.343552 337.383850,63.607590 334.357910,58.017086 
	C343.632660,56.944939 351.890869,55.875816 360.181366,55.207008 
	C361.020966,55.139275 362.762817,57.426903 362.869263,58.721527 
	C363.216309,62.942341 362.999298,67.209534 362.999298,71.224792 
	C366.992981,66.989365 370.394165,62.158646 374.909668,58.847519 
	C384.386536,51.898293 400.121643,53.234146 406.984863,61.902218 
	C409.946381,65.642509 411.617615,71.324364 411.780457,76.194244 
	C412.348022,93.167870 411.999939,110.172104 412.000000,127.164711 
	C412.000031,135.618759 412.000122,135.618759 420.970825,134.543503 
	C420.970825,127.159805 420.970825,119.717567 420.970825,112.438393 
	C425.623260,110.679840 426.017609,114.599968 426.821747,116.713699 
	C429.863068,124.707802 434.440094,131.211838 441.983459,135.579575 
	C449.225616,139.772919 456.371277,140.084686 463.239594,135.240036 
	C469.678986,130.697968 471.792877,123.850227 470.752045,116.425079 
	C470.420654,114.061081 467.742981,110.985985 465.437531,110.133835 
	C458.541199,107.584824 451.247131,106.138657 444.201996,103.959198 
	C434.175476,100.857422 424.319855,97.442619 421.714691,85.268066 
	C419.525391,75.036903 421.863464,66.227257 429.538971,58.981762 
	C437.088593,51.855141 455.424896,48.933945 465.162170,60.370449 
	C466.988220,58.404819 468.847870,56.402973 470.707550,54.401127 
	C471.071686,54.683323 471.435791,54.965515 471.799927,55.247711 
	C471.799927,63.348370 471.799927,71.449028 471.799927,79.495399 
	C467.737030,81.761597 467.809052,77.907326 467.142151,76.151459 
	C464.580597,69.407166 461.753357,62.877857 455.187592,59.060966 
	C445.666809,53.526207 432.842010,58.471577 430.071747,70.584557 
	C428.260803,78.502884 431.000977,82.067337 439.632843,83.981491 
	C447.349915,85.692772 455.195282,86.922791 462.794037,89.045319 
	C472.047577,91.630058 476.323151,98.516083 478.123352,107.758675 
	C479.926361,117.015739 477.642181,125.023041 472.819031,132.683136 
	C467.352386,141.365250 458.665619,143.927292 449.528625,142.677673 
	C442.802399,141.757767 436.459076,138.037949 429.326385,135.330948 
	C426.353363,140.831955 420.064117,141.424194 413.052887,141.094238 
	C404.594055,140.696182 396.102264,141.000000 387.230652,141.000000 
	C387.139099,139.053467 387.057739,137.323227 386.982300,135.719208 
	C387.492432,135.401871 387.756836,135.097702 388.034851,135.084717 
	C396.999786,134.666138 397.000000,134.670364 397.000000,125.758995 
	C397.000031,109.599358 397.154755,93.437149 396.885193,77.282005 
	C396.822174,73.506340 396.144592,69.277756 394.302948,66.094612 
	C390.830780,60.093182 384.136322,59.206802 377.088806,63.520332 
	C368.837646,68.570580 363.794281,76.604324 363.259216,85.855652 
	C362.328339,101.951546 363.000305,118.140152 363.000305,135.000061 
	C365.221588,135.000061 367.301422,135.000061 369.852417,135.000427 
z"/>
<path fill="#D6001C" opacity="1.000000" stroke="none" 
	d="
M665.149780,53.996994 
	C676.226746,51.581642 686.673279,50.329025 696.606262,56.862839 
	C701.607483,60.152527 702.935852,64.830574 702.964111,70.158607 
	C703.058716,87.991127 703.033386,105.824585 702.968384,123.657372 
	C702.957092,126.766701 703.099182,129.907410 706.600159,130.759354 
	C710.260010,131.649994 712.286011,129.202286 714.436340,126.327850 
	C718.356812,121.087364 715.041260,116.481537 713.861084,111.820251 
	C709.013184,92.673401 712.976807,75.269402 725.963440,60.928543 
	C737.077637,48.655357 751.803955,48.031147 765.577454,57.178608 
	C775.529663,63.788265 780.545227,73.223068 780.045471,85.379860 
	C779.988281,86.769478 780.540894,88.184166 780.887939,89.988228 
	C764.003967,89.988228 747.235840,89.988228 729.533142,89.988228 
	C730.034180,100.919342 729.792664,111.529999 731.208862,121.914619 
	C732.526245,131.575424 739.722168,136.854919 749.073608,137.787567 
	C756.535034,138.531738 763.478271,135.633575 767.832336,129.264450 
	C771.520142,123.869934 774.169983,117.765808 777.519531,111.528214 
	C778.181458,111.689888 779.466309,112.003662 780.661621,112.295586 
	C782.495911,116.295250 770.372925,135.383896 763.828552,139.022354 
	C750.050781,146.682281 730.362915,143.872192 719.440063,125.255791 
	C715.672852,132.549683 712.043945,140.449860 702.443909,140.843597 
	C695.109253,141.144424 691.658081,135.620316 689.572693,128.726303 
	C682.888489,137.045258 674.495972,141.217072 664.511963,140.866714 
	C655.528748,140.551483 648.114319,136.493713 644.420837,127.819588 
	C641.302551,120.496361 642.761780,109.277138 649.084900,103.235718 
	C657.930420,94.784195 668.614441,91.435905 680.274109,89.986023 
	C682.807373,89.671005 685.318726,89.178925 687.998840,88.742561 
	C687.998840,80.415756 687.959839,72.431900 688.013794,64.448677 
	C688.044800,59.854748 684.595032,57.754475 681.266846,57.298412 
	C671.045227,55.897747 661.265442,57.021095 653.732544,65.956703 
	C656.302124,68.871239 660.906067,70.168930 660.146729,75.500130 
	C659.633789,79.101257 659.691345,82.049225 654.887634,82.051933 
	C648.806152,82.055367 646.539124,80.358932 645.955933,75.441109 
	C644.741028,65.196022 651.775513,58.910847 661.009521,55.049324 
	C662.187073,54.556885 663.481934,54.344788 665.149780,53.996994 
M673.360107,132.994873 
	C680.459473,131.938202 686.153137,128.065826 687.044861,121.129990 
	C688.182739,112.278893 687.320740,103.170685 687.320740,93.628685 
	C682.917419,94.096870 678.391846,93.988510 674.209473,95.133606 
	C661.814880,98.527191 656.327271,105.063309 656.221497,115.064056 
	C656.131287,123.597511 660.791443,131.132111 673.360107,132.994873 
M739.535522,84.000000 
	C747.617371,84.000000 755.699219,84.000000 764.949707,84.000000 
	C763.884155,77.336578 763.433289,71.310432 761.873840,65.586311 
	C759.972229,58.606113 753.925598,55.515926 747.464905,55.273094 
	C742.291748,55.078663 737.244324,57.082111 733.841064,62.238701 
	C729.318237,69.091560 729.853699,76.325150 730.235352,84.000000 
	C733.261780,84.000000 735.904358,84.000000 739.535522,84.000000 
z"/>
<path fill="#D6001C" opacity="1.000000" stroke="none" 
	d="
M605.010986,65.075958 
	C610.751343,72.416977 611.957092,80.676521 612.042786,89.730858 
	C595.166870,89.730858 578.428040,89.730858 560.444580,89.730858 
	C561.061279,100.998016 560.838074,111.917580 562.488403,122.546257 
	C563.928772,131.822876 571.177795,137.018951 580.273193,137.782608 
	C588.310974,138.457443 595.433777,134.997238 599.891846,128.007339 
	C603.153137,122.893929 605.506042,117.201195 608.410522,111.477570 
	C609.312012,111.704948 610.603882,112.030800 612.672058,112.552452 
	C609.892395,118.525108 607.728455,124.442833 604.554199,129.757019 
	C595.108398,145.570587 572.660583,147.177948 559.704956,135.964508 
	C534.893799,114.489700 538.806580,72.388306 564.254272,55.354725 
	C575.323120,47.945702 589.203674,50.749126 600.131653,59.683945 
	C601.917542,61.144104 603.360474,63.023731 605.010986,65.075958 
M593.115051,65.587982 
	C588.529175,53.512627 572.419983,52.099083 565.650696,61.067272 
	C560.637451,67.709030 560.078064,75.752655 561.445618,83.999962 
	C571.550049,83.999962 581.377319,83.836929 591.194519,84.080666 
	C595.090149,84.177383 596.314270,82.298874 595.934387,79.087860 
	C595.421387,74.752388 594.448792,70.471313 593.115051,65.587982 
z"/>
<path fill="#D6001C" opacity="1.000000" stroke="none" 
	d="
M640.891052,141.000000 
	C629.110474,141.000000 617.814270,141.000000 606.261108,141.000000 
	C606.261108,138.951172 606.261108,137.220627 606.261108,135.050201 
	C610.379150,135.050201 614.467529,135.050201 619.000000,135.050201 
	C619.000000,133.171844 619.000000,131.722565 619.000000,130.273285 
	C619.000000,97.798225 618.913696,65.322678 619.098999,32.848679 
	C619.124939,28.303030 618.032715,26.317646 613.270569,26.943445 
	C610.819519,27.265543 608.291199,27.000002 605.539307,27.000002 
	C604.778809,24.729359 604.133423,23.146509 607.785706,22.922289 
	C616.731934,22.373064 625.653503,21.421545 634.898926,20.604155 
	C634.898926,58.235744 634.898926,96.316734 634.898926,134.844696 
	C638.967651,134.844696 642.714844,134.844696 646.722168,134.844696 
	C646.722168,137.018845 646.722168,138.751007 646.722168,141.000000 
	C644.941345,141.000000 643.158447,141.000000 640.891052,141.000000 
z"/>
<path fill="#D6001C" opacity="1.000000" stroke="none" 
	d="
M489.696045,123.188904 
	C494.605835,130.488861 499.778564,136.457565 508.888580,138.164093 
	C519.729065,140.194794 530.447388,132.366928 530.999817,121.164055 
	C531.421997,112.603806 525.606445,107.020195 515.479736,105.973701 
	C506.918915,105.089020 498.528839,103.400154 491.163879,98.597816 
	C482.915039,93.219070 478.858337,83.488312 481.111023,73.904198 
	C485.339844,55.912624 500.336060,49.803967 515.827148,54.178604 
	C519.403137,55.188454 522.413635,58.201069 525.398010,60.109028 
	C527.013062,58.389824 528.886230,56.395836 530.759399,54.401844 
	C531.116394,54.690514 531.473450,54.979187 531.830444,55.267860 
	C531.830444,63.377605 531.830444,71.487350 531.830444,79.518356 
	C528.375916,81.296257 527.909363,78.443222 527.236816,76.577858 
	C524.974609,70.303322 522.285217,64.485153 516.772827,60.171478 
	C507.910919,53.236671 493.722321,57.354187 490.045715,70.097824 
	C487.965332,77.308647 489.845581,80.947968 497.446594,82.988808 
	C505.534393,85.160355 513.842041,86.499756 521.976624,88.513962 
	C531.016785,90.752411 535.770691,97.507622 537.825378,105.906532 
	C540.150696,115.411476 538.179749,124.465843 532.778809,132.760300 
	C527.191711,141.340744 518.575989,143.928848 509.454163,142.674210 
	C502.742340,141.751038 496.416107,138.024750 489.476135,135.379105 
	C487.788849,136.625809 484.963135,138.713699 481.176025,141.511963 
	C481.176025,130.545059 481.176025,121.424774 481.176025,111.641922 
	C487.776886,113.008385 486.374939,119.660233 489.696045,123.188904 
z"/>
<path fill="#FFFFFF" opacity="1.000000" stroke="none" 
	d="
M19.209055,123.704498 
	C8.329530,107.992149 3.438685,90.921448 5.060391,72.227257 
	C6.242211,58.603844 11.086461,46.219490 19.288088,35.223640 
	C30.838203,19.738493 46.040928,9.750711 64.897858,5.598523 
	C79.799042,2.317366 94.391548,3.736817 108.401337,9.843831 
	C133.663742,20.855980 149.321991,39.650654 154.019775,67.050758 
	C157.609146,87.986092 153.156097,107.109993 140.348984,124.124603 
	C129.620636,138.377563 115.712646,147.915558 98.293144,152.346863 
	C75.400093,158.170547 54.700241,153.298904 35.591614,140.073456 
	C35.087269,139.724396 34.723621,139.172028 34.131027,138.540359 
	C37.384094,137.996628 40.311684,137.212967 43.268997,137.077347 
	C48.611076,136.832336 47.073418,134.550171 44.340839,131.522400 
	C47.252121,129.531494 50.037590,127.917206 52.472534,125.883278 
	C55.140907,123.654366 57.773632,124.067314 60.563549,125.215790 
	C72.495834,130.127777 84.768974,131.148560 96.576385,125.840538 
	C103.264709,122.833809 107.153152,126.320480 111.770645,129.296066 
	C112.605560,129.834106 113.323700,130.553329 113.992081,131.103561 
	C111.240021,136.781708 111.348534,136.860138 117.224594,137.039978 
	C120.080368,137.127365 122.923225,137.637115 126.322571,138.017258 
	C125.424973,136.034378 124.776619,134.602081 123.962090,132.802719 
	C125.438225,131.183334 127.069031,129.394272 128.440552,127.889648 
	C123.845299,123.617439 119.356392,119.444107 114.609200,115.030640 
	C125.916862,104.515999 130.952103,90.614540 129.863541,74.848160 
	C128.863892,60.369286 122.034546,48.318115 110.722015,39.352280 
	C91.858055,24.401503 62.295361,24.643763 43.331982,44.213650 
	C25.979185,62.121441 23.657574,94.010483 44.006233,114.767250 
	C40.622185,118.620567 37.410389,122.543983 33.862968,126.135941 
	C32.938721,127.071793 30.968054,126.974205 29.180233,127.426628 
	C31.565559,130.348495 36.077293,132.697754 32.105450,137.914612 
	C27.998308,133.386795 23.729469,128.680710 19.209055,123.704498 
M27.009058,97.304672 
	C26.950483,96.869659 26.891909,96.434654 26.763819,95.254326 
	C26.283224,94.157890 25.802628,93.061447 25.329992,91.983170 
	C24.008308,92.840286 22.871376,93.577583 21.734444,94.314880 
	C23.725479,89.679718 27.211180,85.803368 23.387585,80.090561 
	C23.536127,79.574860 23.684669,79.059166 23.984320,78.049553 
	C23.933989,76.999481 23.883656,75.949417 23.981394,74.174988 
	C25.486446,59.000282 31.941370,46.257168 43.438599,35.919338 
	C40.998024,34.976048 38.539909,34.766567 37.337452,33.428600 
	C32.938515,28.533930 32.320763,28.442156 28.064957,34.110161 
	C29.649298,36.622017 35.020210,36.956638 32.367283,42.432522 
	C30.390100,39.935696 28.697704,37.798504 26.806427,35.410164 
	C24.801882,38.201584 23.322092,40.262257 22.024509,42.069199 
	C24.936123,44.166580 27.570257,46.064075 30.204391,47.961571 
	C30.074810,48.247810 29.945229,48.534046 29.815649,48.820282 
	C26.280926,48.520172 22.746202,48.220062 19.132366,47.913239 
	C21.534983,52.280048 23.639690,56.105408 25.744398,59.930763 
	C25.349899,60.247620 24.955400,60.564476 24.560900,60.881332 
	C21.484991,59.771610 18.409081,58.661884 15.169718,57.493191 
	C14.790910,58.623890 14.310206,60.058727 13.836604,61.472374 
	C16.801373,62.125710 19.280766,62.672085 21.760157,63.218464 
	C21.857199,63.617832 21.954241,64.017197 22.051283,64.416565 
	C20.259581,65.079514 18.467878,65.742455 16.676176,66.405396 
	C16.442379,66.025345 16.208580,65.645294 15.974781,65.265244 
	C16.520752,64.978432 17.066725,64.691628 17.679909,64.369507 
	C16.196238,63.915066 14.774318,63.479538 13.312220,63.031704 
	C12.896918,66.196228 12.526035,69.022293 12.217475,71.373466 
	C15.523819,71.630707 18.521179,71.863907 21.518539,72.097107 
	C21.518333,72.422028 21.518126,72.746941 21.517920,73.071854 
	C18.367945,73.247841 15.217970,73.423828 12.112324,73.597343 
	C11.917593,80.338547 12.928950,81.135529 19.011463,79.569359 
	C19.011463,79.569359 19.166666,79.999748 18.949877,80.543510 
	C18.629236,80.751228 18.308598,80.958946 17.459715,81.077011 
	C17.362032,81.379219 17.264349,81.681419 17.011517,82.422089 
	C17.011517,82.422089 16.958719,82.884186 16.199886,82.668541 
	C14.999929,81.981735 13.799972,81.294930 12.259367,80.413155 
	C11.851126,84.663635 11.193493,87.930664 16.863443,87.970314 
	C17.611734,87.978676 18.360023,87.987038 18.738697,88.745766 
	C16.972780,88.892456 15.206863,89.039146 12.017599,89.304077 
	C13.291616,90.891106 14.107086,91.906921 15.323044,93.282967 
	C15.466200,93.391335 15.609357,93.499710 15.294752,94.135735 
	C15.015756,95.066208 14.736758,95.996681 14.457762,96.927155 
	C15.260453,96.968704 16.079165,97.131577 16.862707,97.028114 
	C18.878031,96.762001 20.877769,96.377861 22.830170,96.681580 
	C23.515373,97.135284 24.200577,97.588989 24.899294,98.588310 
	C24.599672,98.781097 24.300051,98.973885 23.247581,99.020592 
	C22.353294,99.323013 21.276468,100.108261 20.594057,99.850273 
	C15.815974,98.043854 15.211139,99.774719 16.945253,103.835709 
	C17.537794,105.223335 17.990911,106.670486 18.319309,107.572754 
	C21.582603,106.119202 24.434891,104.848709 27.287180,103.578224 
	C27.536285,104.081703 27.785393,104.585182 28.034500,105.088661 
	C26.856474,105.727234 25.744507,106.683113 24.487999,106.944717 
	C20.763794,107.720062 20.204920,109.892929 21.497519,112.986923 
	C22.088783,114.402191 22.913361,115.719986 23.409689,116.660492 
	C26.979481,114.532738 30.279522,112.565765 33.912624,110.400276 
	C32.211647,107.337540 30.161564,103.646210 28.007570,99.345886 
	C27.709965,98.883186 27.412359,98.420479 27.009058,97.304672 
M57.246223,19.732010 
	C55.232765,18.605421 52.442966,16.066401 51.372219,16.654934 
	C49.328598,17.778198 48.264866,20.684233 46.956356,22.611641 
	C44.389011,19.723026 42.658077,20.008785 38.446331,24.726250 
	C40.742786,27.776690 42.971691,30.737396 45.568779,34.187176 
	C46.466915,33.539185 47.719296,32.635616 49.226147,31.548450 
	C45.073444,30.161884 45.539711,28.249310 48.222511,25.889797 
	C48.817390,26.431267 49.344769,27.316978 50.017353,27.446062 
	C51.899979,27.807367 54.141994,28.513664 55.666691,27.819593 
	C56.882992,27.265913 57.442924,24.910536 57.931301,23.248291 
	C58.239956,22.197763 57.881554,20.951256 58.559967,20.089048 
	C58.921238,21.963684 59.282505,23.838322 59.648006,25.734930 
	C67.010170,24.708788 68.857170,23.036724 65.609459,18.772163 
	C65.152847,20.350555 64.762939,21.698359 64.373024,23.046160 
	C64.002052,23.067980 63.631077,23.089800 63.260101,23.111620 
	C62.273693,19.826551 61.287285,16.541483 60.243271,13.064564 
	C58.984058,13.530569 57.457539,14.095498 56.640789,14.397759 
	C57.165562,16.618673 57.556080,18.271400 57.246223,19.732010 
M142.638123,101.813225 
	C141.102417,102.043953 139.421921,102.780807 138.063431,102.392143 
	C135.767212,101.735161 133.674744,100.366058 131.396729,99.247330 
	C130.971802,100.553757 130.490936,102.032188 130.099091,103.236916 
	C132.763214,104.276886 135.243790,105.245216 137.724365,106.213539 
	C137.319427,106.480721 136.914490,106.747894 136.509552,107.015076 
	C136.915787,108.164742 137.322021,109.314400 138.095779,111.504150 
	C134.802856,109.085922 132.240051,107.203873 129.327271,105.064819 
	C128.383499,106.336838 127.091362,107.781883 126.168869,109.433411 
	C125.619415,110.417091 125.102478,112.105148 125.572060,112.782860 
	C126.062149,113.490189 127.799377,113.240028 128.906235,113.642601 
	C129.808472,113.970741 130.941269,114.451164 131.348236,115.202042 
	C132.413055,117.166710 134.324265,119.549118 135.745758,117.241051 
	C138.822006,112.246178 140.767090,106.554626 143.799591,100.744331 
	C145.326416,94.733131 146.853226,88.721931 148.444855,82.455597 
	C146.306717,81.933472 144.749863,81.553299 142.102295,80.906776 
	C143.421524,82.443100 143.983459,83.097504 145.147781,84.453415 
	C141.590958,83.838425 138.741699,83.345772 135.478271,82.781509 
	C135.478271,84.379539 135.478271,86.146919 135.478271,88.012962 
	C141.439850,85.959030 142.279770,86.351738 144.336456,92.171898 
	C142.967957,91.749176 141.751907,91.408401 140.559692,90.998306 
	C137.733902,90.026276 134.590881,88.598534 133.579315,93.019958 
	C132.674088,96.976707 135.681854,98.069115 138.722351,99.040703 
	C140.320068,99.551254 141.776825,100.502838 142.638123,101.813225 
M143.949570,66.528427 
	C144.416931,68.931580 143.466690,70.178246 140.982147,69.981812 
	C139.120300,69.834602 137.270905,69.529869 134.785843,69.215584 
	C135.273026,71.169441 135.705536,72.904053 135.809906,73.322609 
	C139.116867,73.155678 141.764648,73.022034 144.753693,72.871155 
	C144.180496,73.716805 143.813812,74.257767 143.468857,74.766693 
	C144.911484,74.766693 146.331406,74.766693 147.866104,74.766693 
	C147.552704,72.168549 147.476547,69.754936 146.861038,67.487747 
	C146.668777,66.779556 145.020630,66.466606 144.268951,65.249657 
	C145.159683,65.028755 146.050415,64.807854 146.929306,64.589890 
	C146.066238,60.268250 144.651306,57.116989 139.272400,59.332596 
	C139.155899,59.195862 139.039413,59.059128 139.224777,58.272518 
	C140.797546,57.915565 142.370316,57.558617 143.943085,57.201668 
	C143.141663,55.954884 142.280075,54.740273 141.583633,53.437370 
	C141.421387,53.133816 142.060150,52.439751 141.923920,52.078701 
	C140.761581,48.997971 139.505463,45.952621 138.497055,43.443226 
	C134.270218,45.572960 130.928864,47.256538 127.506958,48.980701 
	C128.490738,50.919880 129.720139,53.343212 130.946655,55.760887 
	C132.435074,55.072094 133.680466,54.495762 135.325775,54.280102 
	C135.469528,54.387630 135.613266,54.495159 135.294266,55.135834 
	C131.471512,58.286118 132.112946,62.197376 134.365433,65.547897 
	C136.337143,68.480782 139.082367,67.279472 141.496033,65.275406 
	C141.929245,64.915726 143.254425,65.630356 143.949570,66.528427 
M124.206261,34.737679 
	C125.592041,33.548954 126.977821,32.360233 128.028107,31.459297 
	C126.051453,29.512598 123.849686,27.344196 121.622650,25.150913 
	C120.938477,26.219913 120.172142,27.417292 119.409531,28.608852 
	C118.968185,26.152039 119.343208,22.967821 118.020103,21.912376 
	C114.713295,19.274532 110.635757,17.602892 106.909103,15.566287 
	C105.326714,19.000458 103.991264,21.898718 103.012611,24.022638 
	C100.951897,23.791477 98.658104,24.161331 98.137230,23.367661 
	C95.827377,19.848047 98.257408,17.525631 100.782143,14.676578 
	C101.610397,16.620892 102.134201,17.850512 102.970299,19.813242 
	C103.908852,17.938787 104.494179,16.769791 104.928741,15.901903 
	C98.816170,9.836802 95.925232,14.882375 92.493286,19.291594 
	C92.603485,16.725121 94.234283,13.358387 93.789558,13.057290 
	C91.735916,11.666913 89.104668,11.129673 87.261063,10.488559 
	C86.396957,14.994704 85.708420,18.585260 84.955475,22.511730 
	C87.247162,22.896059 89.865776,23.335213 92.643555,23.801062 
	C92.868927,23.014984 93.100021,22.208948 93.008873,22.526865 
	C99.550735,25.863483 106.128288,29.218307 112.452690,32.444008 
	C113.304245,30.707909 114.184097,28.914114 115.063957,27.120319 
	C114.745972,32.469353 114.639244,37.218750 119.563759,39.023495 
	C121.487793,37.812859 123.067337,36.818977 123.935600,36.604790 
	C123.511353,38.776428 122.507790,41.064087 122.909592,43.070278 
	C123.107628,44.059067 125.903168,44.527626 127.523331,45.231590 
	C127.726097,44.753849 127.928864,44.276112 128.131622,43.798374 
	C126.807472,43.164364 125.483315,42.530357 123.647789,41.651505 
	C125.676865,39.921120 127.170731,37.865704 129.161621,37.096195 
	C135.080246,34.808571 129.623825,40.216774 131.919098,40.963676 
	C132.810471,40.497643 133.968353,39.892277 135.169907,39.264084 
	C130.791656,33.078487 129.423920,32.628330 124.206261,34.737679 
M84.586075,136.006332 
	C82.288277,136.189835 80.182549,137.839859 77.580116,136.178101 
	C76.755257,135.651398 73.274681,137.202362 73.269768,137.820465 
	C73.243584,141.120819 73.085548,144.923294 74.639046,147.576782 
	C75.924782,149.772919 79.872108,147.623901 79.968506,144.677902 
	C80.008522,143.455063 79.707565,142.221039 79.527626,140.705368 
	C80.822563,140.153915 82.192177,139.570663 84.794060,138.462631 
	C83.127853,142.245880 81.972923,144.868225 80.274872,148.723785 
	C83.624359,147.899933 87.010788,148.020096 87.728401,146.694977 
	C89.292526,143.806732 90.295700,144.666489 92.008316,146.057236 
	C94.009911,147.682617 95.636307,147.719574 95.277374,144.572556 
	C94.874596,141.041199 94.044754,137.558563 93.400726,134.054749 
	C92.930641,134.025925 92.460564,133.997101 91.990479,133.968277 
	C90.450264,137.002808 88.910057,140.037338 87.542809,142.731079 
	C86.772217,140.312851 86.095329,138.188705 84.586075,136.006332 
M73.000687,18.511354 
	C73.669456,15.813303 74.338219,13.115252 75.031860,10.316834 
	C71.609688,10.900731 68.766068,11.385915 66.113708,11.838464 
	C67.834305,15.908176 69.227814,19.204254 70.832291,22.999308 
	C71.518311,22.963600 73.229027,22.874554 75.248596,22.769432 
	C74.276360,21.288536 73.640305,20.319712 73.000687,18.511354 
M78.821884,21.941366 
	C80.096489,21.941366 81.371101,21.941366 82.320702,21.941366 
	C82.320702,18.542139 82.320702,15.523308 82.320702,12.504476 
	C82.559021,12.208552 82.797340,11.912629 83.035660,11.616706 
	C83.445190,12.772244 83.854721,13.927783 84.264252,15.083322 
	C84.425507,14.872977 84.586761,14.662632 84.748016,14.452287 
	C84.748016,13.044214 84.748016,11.636141 84.748016,10.220450 
	C81.740005,10.220450 78.985550,10.220450 75.922531,10.220450 
	C76.068611,11.955923 76.193764,13.442735 76.440964,16.379541 
	C77.657005,14.246230 78.136292,13.405424 78.615570,12.564618 
	C78.847252,12.632899 79.078934,12.701180 79.310616,12.769462 
	C78.942139,15.637149 78.573654,18.504837 78.821884,21.941366 
M69.037560,135.457993 
	C68.031334,135.824066 67.025108,136.190140 66.018875,136.556213 
	C66.487610,136.694443 66.956352,136.832657 67.425087,136.970886 
	C66.904243,140.243378 66.383408,143.515884 65.851730,146.856461 
	C67.191475,146.989166 69.019043,147.170181 70.191528,147.286316 
	C70.617271,143.818298 71.129829,140.426392 71.364159,137.015381 
	C71.406563,136.398102 70.307541,135.702438 69.037560,135.457993 
M140.683441,80.000008 
	C143.026428,80.194473 145.369415,80.388939 147.771957,80.588348 
	C147.771957,79.103584 147.771957,77.677505 147.771957,76.536835 
	C143.799164,76.536835 140.054794,76.536835 136.030136,76.536835 
	C136.098175,77.954727 136.165253,79.352264 136.219620,80.485046 
	C137.635376,80.293983 138.724060,80.147057 140.683441,80.000008 
M61.029648,139.752762 
	C60.694183,138.512756 60.358719,137.272736 60.023254,136.032730 
	C58.825592,136.393127 57.462421,136.524475 56.504505,137.216660 
	C56.067280,137.532593 56.185879,139.657806 56.470287,139.756363 
	C57.869499,140.241196 59.408951,140.321304 61.029648,139.752762 
z"/>
<path fill="#FFFFFF" opacity="1.000000" stroke="none" 
	d="
M105.911697,90.223213 
	C105.991112,81.466782 106.081345,73.134064 105.972122,64.803955 
	C105.888847,58.452663 105.967606,52.273911 114.241226,48.353020 
	C90.246208,48.353020 67.921516,48.353020 44.001549,48.353020 
	C54.001560,52.315464 51.930763,60.062466 51.990582,67.066811 
	C52.037537,72.565277 52.295933,78.083786 51.938538,83.559326 
	C51.188892,95.044487 60.229439,99.723480 67.033066,105.998024 
	C67.625198,106.544098 68.345375,106.951149 68.938911,107.495949 
	C69.249840,107.781349 69.414780,108.225807 69.321159,108.074699 
	C62.199768,109.772415 55.059685,111.474594 47.403481,113.299812 
	C29.597364,96.988533 26.558008,71.349686 41.427570,51.283249 
	C60.670586,25.314854 92.781052,27.277630 111.007149,43.416859 
	C133.364670,63.214485 131.665817,97.200043 111.794098,113.486267 
	C104.234802,111.611885 97.076279,109.836876 90.302803,108.157349 
	C95.043999,102.813232 100.440353,96.730637 105.911697,90.223213 
z"/>
<path fill="#FFFFFF" opacity="1.000000" stroke="none" 
	d="
M100.071449,112.970825 
	C106.583374,116.087540 112.831825,118.912865 118.717056,122.358566 
	C123.248329,125.011520 122.712303,128.240479 117.898369,131.138245 
	C111.137543,124.204659 102.302086,120.660866 92.992950,117.839355 
	C91.624908,117.424706 91.008545,114.530022 90.044388,112.782806 
	C91.523384,112.452393 93.011772,111.823105 94.478958,111.869171 
	C96.212746,111.923615 97.928223,112.561493 100.071449,112.970825 
z"/>
<path fill="#FFFFFF" opacity="1.000000" stroke="none" 
	d="
M48.045265,116.993301 
	C54.015736,114.973747 59.568813,112.885849 65.229698,111.149399 
	C66.036964,110.901772 68.378891,112.636879 68.284775,112.977417 
	C67.795441,114.748108 67.175217,117.192642 65.820267,117.893021 
	C59.444935,121.188499 52.767262,123.893143 46.304935,127.029999 
	C44.439125,127.935684 42.930824,129.577881 41.236000,130.900070 
	C35.757477,127.244225 35.586800,126.690765 40.177872,122.427368 
	C42.413357,120.351433 45.151657,118.816956 48.045265,116.993301 
z"/>
<path fill="#FFFFFF" opacity="1.000000" stroke="none" 
	d="
M79.031296,106.995346 
	C80.333244,106.000488 81.782623,105.061378 81.884911,103.993279 
	C82.199875,100.703972 81.785805,97.346161 82.080956,94.053146 
	C82.255798,92.102478 83.234444,90.223854 84.792404,88.570122 
	C84.792404,94.912704 84.792404,101.255287 84.792404,107.796753 
	C81.193886,107.796753 77.803070,107.796753 74.206177,107.796753 
	C74.206177,101.673988 74.206177,95.747849 74.206177,89.821709 
	C74.462540,89.647636 74.718903,89.473572 74.975266,89.299500 
	C75.649925,90.403175 76.832458,91.473999 76.906357,92.616531 
	C77.152245,96.418037 76.894386,100.250206 77.071815,104.059341 
	C77.118332,105.057907 78.041832,106.015633 79.031296,106.995346 
z"/>
<path fill="#FFFFFF" opacity="1.000000" stroke="none" 
	d="
M85.956253,111.151718 
	C85.992592,113.251747 85.992592,114.883034 85.992592,116.483109 
	C71.695778,117.860855 72.257446,117.042915 73.401207,109.759087 
	C77.526093,110.063507 81.723007,110.373238 85.956253,111.151718 
z"/>
<path fill="#FFFFFF" opacity="1.000000" stroke="none" 
	d="
M93.076958,124.077736 
	C84.293388,128.159515 75.428703,126.692787 65.639709,124.537804 
	C70.965370,123.002701 77.378075,126.530312 79.449501,118.827148 
	C81.680801,125.884331 87.096817,123.770309 92.218811,123.739395 
	C92.834930,123.812599 92.955948,123.945168 93.076958,124.077736 
z"/>
<path fill="#FFFFFF" opacity="1.000000" stroke="none" 
	d="
M74.000465,74.924507 
	C74.842445,73.648903 75.609337,72.231743 76.539909,72.114571 
	C79.132004,71.788185 81.792015,72.001190 84.711395,72.001190 
	C84.711395,74.965942 84.711395,77.703636 84.711395,80.532936 
	C80.079857,79.804512 82.853958,75.933250 81.633453,73.335938 
	C80.369331,73.335938 78.845345,73.335938 77.718704,73.335938 
	C76.912254,75.961037 76.166595,78.388252 75.420929,80.815468 
	C74.947311,80.718048 74.473694,80.620621 74.000076,80.523201 
	C74.000076,78.807549 74.000076,77.091904 74.000465,74.924507 
z"/>
<path fill="#FFFFFF" opacity="1.000000" stroke="none" 
	d="
M83.892128,69.926559 
	C89.075554,65.843224 94.742119,66.887512 101.512047,69.989586 
	C95.061821,69.989586 89.682350,69.989586 83.892128,69.926559 
z"/>
<path fill="#FFFFFF" opacity="1.000000" stroke="none" 
	d="
M72.982452,66.002701 
	C74.882477,65.516579 76.367287,65.032890 77.912498,64.529526 
	C77.912498,66.118240 77.912498,67.776184 77.912498,69.717529 
	C75.338806,69.717529 72.773911,69.717529 69.145500,69.717529 
	C70.636818,68.099525 71.602020,67.052330 72.982452,66.002701 
z"/>
<path fill="#FFFFFF" opacity="1.000000" stroke="none" 
	d="
M57.580826,65.842911 
	C59.765606,66.694672 61.563515,67.415565 63.361423,68.136452 
	C63.182400,68.670593 63.003376,69.204727 62.824356,69.738861 
	C60.320412,69.738861 57.816471,69.738861 55.154289,69.738861 
	C55.154289,67.870323 55.154289,66.131836 55.154289,64.069931 
	C55.968231,64.725220 56.581093,65.218628 57.580826,65.842911 
z"/>
<path fill="#FFFFFF" opacity="1.000000" stroke="none" 
	d="
M84.941048,59.000000 
	C83.041931,59.000000 81.585144,59.000000 78.937958,59.000000 
	C80.213623,57.442245 80.842018,56.084763 81.374825,56.121304 
	C84.518738,56.336891 87.640419,56.876705 90.769592,57.307365 
	C90.683685,57.871578 90.597786,58.435787 90.511879,59.000000 
	C88.802383,59.000000 87.092880,59.000000 84.941048,59.000000 
z"/>
<path fill="#FFFFFF" opacity="1.000000" stroke="none" 
	d="
M67.927773,65.082512 
	C66.550980,65.413910 65.174187,65.745308 62.961510,66.277901 
	C63.906143,64.773705 64.485947,63.850449 65.358276,62.461391 
	C63.848930,62.171413 62.708370,61.952290 61.567806,61.733162 
	C61.573547,61.580639 61.579292,61.428116 61.585033,61.275593 
	C64.895584,61.275593 68.206139,61.275593 71.016220,61.275593 
	C70.325104,61.920387 69.305405,62.871738 68.310089,64.276291 
	C68.198914,64.847160 68.063339,64.964836 67.927773,65.082512 
z"/>
<path fill="#FFFFFF" opacity="1.000000" stroke="none" 
	d="
M92.547150,123.468643 
	C93.846031,118.855072 96.595322,123.316490 98.650520,122.627235 
	C97.050041,123.087074 95.449554,123.546913 93.463013,124.042252 
	C92.955948,123.945168 92.834930,123.812599 92.547150,123.468643 
z"/>
<path fill="#FFFFFF" opacity="1.000000" stroke="none" 
	d="
M68.554276,64.573929 
	C69.095886,64.859177 69.417717,65.299973 69.739540,65.740776 
	C69.202942,65.707031 68.666336,65.673294 68.028755,65.361031 
	C68.063339,64.964836 68.198914,64.847160 68.554276,64.573929 
z"/>
<path fill="#FFFFFF" opacity="1.000000" stroke="none" 
	d="
M213.024704,27.417366 
	C213.581009,26.358135 214.131012,25.239229 214.651093,25.252970 
	C222.199661,25.452385 229.993622,24.733835 237.219696,26.418730 
	C244.473938,28.110186 246.880569,35.581348 247.732056,42.101631 
	C248.692459,49.455936 248.743027,57.072109 245.061081,64.203552 
	C241.979935,70.171310 236.872772,72.348183 230.856171,72.917068 
	C226.403183,73.338112 221.867477,72.806656 217.389008,73.059982 
	C213.708405,73.268181 212.912155,71.629684 212.945007,68.319107 
	C213.078796,54.842014 213.003006,41.362839 213.024704,27.417366 
z"/>
<path fill="#FFFFFF" opacity="1.000000" stroke="none" 
	d="
M318.848022,63.352142 
	C320.460693,70.095924 321.817200,76.544830 323.307892,83.631683 
	C310.834808,83.631683 299.765106,83.631683 288.260437,83.631683 
	C287.820038,75.198486 286.493347,66.401817 293.910583,59.618896 
	C301.582397,52.603180 314.104614,54.519920 318.848022,63.352142 
z"/>
<path fill="#FFFFFF" opacity="1.000000" stroke="none" 
	d="
M672.944336,132.996933 
	C660.791443,131.132111 656.131287,123.597511 656.221497,115.064056 
	C656.327271,105.063309 661.814880,98.527191 674.209473,95.133606 
	C678.391846,93.988510 682.917419,94.096870 687.320740,93.628685 
	C687.320740,103.170685 688.182739,112.278893 687.044861,121.129990 
	C686.153137,128.065826 680.459473,131.938202 672.944336,132.996933 
z"/>
<path fill="#FFFFFF" opacity="1.000000" stroke="none" 
	d="
M739.041199,84.000000 
	C735.904358,84.000000 733.261780,84.000000 730.235352,84.000000 
	C729.853699,76.325150 729.318237,69.091560 733.841064,62.238701 
	C737.244324,57.082111 742.291748,55.078663 747.464905,55.273094 
	C753.925598,55.515926 759.972229,58.606113 761.873840,65.586311 
	C763.433289,71.310432 763.884155,77.336578 764.949707,84.000000 
	C755.699219,84.000000 747.617371,84.000000 739.041199,84.000000 
z"/>
<path fill="#FFFFFF" opacity="1.000000" stroke="none" 
	d="
M593.394226,65.877441 
	C594.448792,70.471313 595.421387,74.752388 595.934387,79.087860 
	C596.314270,82.298874 595.090149,84.177383 591.194519,84.080666 
	C581.377319,83.836929 571.550049,83.999962 561.445618,83.999962 
	C560.078064,75.752655 560.637451,67.709030 565.650696,61.067272 
	C572.419983,52.099083 588.529175,53.512627 593.394226,65.877441 
z"/>
<path fill="#231F20" opacity="1.000000" stroke="none" 
	d="
M18.957987,79.114983 
	C12.928950,81.135529 11.917593,80.338547 12.112324,73.597343 
	C15.217970,73.423828 18.367945,73.247841 21.517920,73.071854 
	C21.518126,72.746941 21.518333,72.422028 21.518539,72.097107 
	C18.521179,71.863907 15.523819,71.630707 12.217475,71.373466 
	C12.526035,69.022293 12.896918,66.196228 13.312220,63.031704 
	C14.774318,63.479538 16.196238,63.915066 17.679909,64.369507 
	C17.066725,64.691628 16.520752,64.978432 15.974781,65.265244 
	C16.208580,65.645294 16.442379,66.025345 16.676176,66.405396 
	C18.467878,65.742455 20.259581,65.079514 22.051283,64.416565 
	C21.954241,64.017197 21.857199,63.617832 21.760157,63.218464 
	C19.280766,62.672085 16.801373,62.125710 13.836604,61.472374 
	C14.310206,60.058727 14.790910,58.623890 15.169718,57.493191 
	C18.409081,58.661884 21.484991,59.771610 24.560900,60.881332 
	C24.955400,60.564476 25.349899,60.247620 25.744398,59.930763 
	C23.639690,56.105408 21.534983,52.280048 19.132366,47.913239 
	C22.746202,48.220062 26.280926,48.520172 29.815649,48.820282 
	C29.945229,48.534046 30.074810,48.247810 30.204391,47.961571 
	C27.570257,46.064075 24.936123,44.166580 22.024509,42.069199 
	C23.322092,40.262257 24.801882,38.201584 26.806427,35.410164 
	C28.697704,37.798504 30.390100,39.935696 32.367283,42.432522 
	C35.020210,36.956638 29.649298,36.622017 28.064934,34.110176 
	C32.320763,28.442156 32.938515,28.533930 37.337452,33.428600 
	C38.539909,34.766567 40.998024,34.976048 43.438599,35.919338 
	C31.941370,46.257168 25.486446,59.000282 23.470028,74.556412 
	C20.074259,74.844887 18.821070,76.314247 18.957987,79.114983 
z"/>
<path fill="#231F20" opacity="1.000000" stroke="none" 
	d="
M124.646889,35.825096 
	C123.067337,36.818977 121.487793,37.812859 119.563759,39.023495 
	C114.639244,37.218750 114.745972,32.469353 115.063957,27.120319 
	C114.184097,28.914114 113.304245,30.707909 112.452690,32.444008 
	C106.128288,29.218307 99.550735,25.863483 93.008873,22.526865 
	C93.100021,22.208948 92.868927,23.014984 92.643555,23.801062 
	C89.865776,23.335213 87.247162,22.896059 84.955475,22.511730 
	C85.708420,18.585260 86.396957,14.994704 87.261063,10.488559 
	C89.104668,11.129673 91.735916,11.666913 93.789558,13.057290 
	C94.234283,13.358387 92.603485,16.725121 92.493286,19.291594 
	C95.925232,14.882375 98.816170,9.836802 104.928741,15.901903 
	C104.494179,16.769791 103.908852,17.938787 102.970299,19.813242 
	C102.134201,17.850512 101.610397,16.620892 100.782143,14.676578 
	C98.257408,17.525631 95.827377,19.848047 98.137230,23.367661 
	C98.658104,24.161331 100.951897,23.791477 103.012611,24.022638 
	C103.991264,21.898718 105.326714,19.000458 106.909103,15.566287 
	C110.635757,17.602892 114.713295,19.274532 118.020103,21.912376 
	C119.343208,22.967821 118.968185,26.152039 119.409531,28.608852 
	C120.172142,27.417292 120.938477,26.219913 121.622650,25.150913 
	C123.849686,27.344196 126.051453,29.512598 128.028107,31.459297 
	C126.977821,32.360233 125.592041,33.548954 124.556877,35.131138 
	C124.748146,35.760082 124.661278,35.860249 124.646889,35.825096 
z"/>
<path fill="#231F20" opacity="1.000000" stroke="none" 
	d="
M139.582718,59.773193 
	C144.651306,57.116989 146.066238,60.268250 146.929306,64.589890 
	C146.050415,64.807854 145.159683,65.028755 144.185303,65.579361 
	C144.101639,65.909073 144.167770,65.848953 144.167770,65.848953 
	C143.254425,65.630356 141.929245,64.915726 141.496033,65.275406 
	C139.082367,67.279472 136.337143,68.480782 134.365433,65.547897 
	C132.112946,62.197376 131.471512,58.286118 135.746399,54.677780 
	C136.338028,53.883045 136.477493,53.546364 136.616974,53.209686 
	C136.053268,53.446266 135.489563,53.682846 134.925858,53.919430 
	C133.680466,54.495762 132.435074,55.072094 130.946655,55.760887 
	C129.720139,53.343212 128.490738,50.919880 127.506958,48.980701 
	C130.928864,47.256538 134.270218,45.572960 138.497055,43.443226 
	C139.505463,45.952621 140.761581,48.997971 141.923920,52.078701 
	C142.060150,52.439751 141.421387,53.133816 141.583633,53.437370 
	C142.280075,54.740273 143.141663,55.954884 143.943085,57.201668 
	C142.370316,57.558617 140.797546,57.915565 138.769165,58.633804 
	C138.033325,59.319477 137.753098,59.643864 137.472855,59.968254 
	C138.176147,59.903229 138.879425,59.838211 139.582718,59.773193 
M140.065445,55.258663 
	C140.470108,55.106480 140.874756,54.954292 141.279419,54.802101 
	C140.882950,54.692787 140.486465,54.583469 140.065445,55.258663 
z"/>
<path fill="#231F20" opacity="1.000000" stroke="none" 
	d="
M85.002258,136.035431 
	C86.095329,138.188705 86.772217,140.312851 87.542809,142.731079 
	C88.910057,140.037338 90.450264,137.002808 91.990479,133.968277 
	C92.460564,133.997101 92.930641,134.025925 93.400726,134.054749 
	C94.044754,137.558563 94.874596,141.041199 95.277374,144.572556 
	C95.636307,147.719574 94.009911,147.682617 92.008316,146.057236 
	C90.295700,144.666489 89.292526,143.806732 87.728401,146.694977 
	C87.010788,148.020096 83.624359,147.899933 80.274872,148.723785 
	C81.972923,144.868225 83.127853,142.245880 84.794060,138.462631 
	C82.192177,139.570663 80.822563,140.153915 79.527626,140.705368 
	C79.707565,142.221039 80.008522,143.455063 79.968506,144.677902 
	C79.872108,147.623901 75.924782,149.772919 74.639046,147.576782 
	C73.085548,144.923294 73.243584,141.120819 73.269768,137.820465 
	C73.274681,137.202362 76.755257,135.651398 77.580116,136.178101 
	C80.182549,137.839859 82.288277,136.189835 85.002258,136.035431 
M86.165939,144.186050 
	C85.916428,143.866837 85.666916,143.547638 85.417397,143.228439 
	C85.495071,143.745712 85.572746,144.263000 86.165939,144.186050 
z"/>
<path fill="#231F20" opacity="1.000000" stroke="none" 
	d="
M28.111481,99.954880 
	C30.161564,103.646210 32.211647,107.337540 33.912624,110.400276 
	C30.279522,112.565765 26.979481,114.532738 23.409689,116.660492 
	C22.913361,115.719986 22.088783,114.402191 21.497519,112.986923 
	C20.204920,109.892929 20.763794,107.720062 24.487999,106.944717 
	C25.744507,106.683113 26.856474,105.727234 28.034500,105.088661 
	C27.785393,104.585182 27.536285,104.081703 27.287180,103.578224 
	C24.434891,104.848709 21.582603,106.119202 18.319309,107.572754 
	C17.990911,106.670486 17.537794,105.223335 16.945253,103.835709 
	C15.211139,99.774719 15.815974,98.043854 20.594057,99.850273 
	C21.276468,100.108261 22.353294,99.323013 23.629890,99.425575 
	C25.253233,104.006737 26.748854,99.788193 28.111481,99.954880 
z"/>
<path fill="#231F20" opacity="1.000000" stroke="none" 
	d="
M143.174820,101.148026 
	C140.767090,106.554626 138.822006,112.246178 135.745758,117.241051 
	C134.324265,119.549118 132.413055,117.166710 131.348236,115.202042 
	C130.941269,114.451164 129.808472,113.970741 128.906235,113.642601 
	C127.799377,113.240028 126.062149,113.490189 125.572060,112.782860 
	C125.102478,112.105148 125.619415,110.417091 126.168869,109.433411 
	C127.091362,107.781883 128.383499,106.336838 129.327271,105.064819 
	C132.240051,107.203873 134.802856,109.085922 138.095779,111.504150 
	C137.322021,109.314400 136.915787,108.164742 136.509552,107.015076 
	C136.914490,106.747894 137.319427,106.480721 137.724365,106.213539 
	C135.243790,105.245216 132.763214,104.276886 130.099091,103.236916 
	C130.490936,102.032188 130.971802,100.553757 131.396729,99.247330 
	C133.674744,100.366058 135.767212,101.735161 138.063431,102.392143 
	C139.421921,102.780807 141.102417,102.043953 142.937286,101.507202 
	C143.236435,101.201180 143.174820,101.148026 143.174820,101.148026 
z"/>
<path fill="#231F20" opacity="1.000000" stroke="none" 
	d="
M57.822350,19.792650 
	C57.881554,20.951256 58.239956,22.197763 57.931301,23.248291 
	C57.442924,24.910536 56.882992,27.265913 55.666691,27.819593 
	C54.141994,28.513664 51.899979,27.807367 50.017353,27.446062 
	C49.344769,27.316978 48.817390,26.431267 48.222511,25.889797 
	C45.539711,28.249310 45.073444,30.161884 49.226147,31.548450 
	C47.719296,32.635616 46.466915,33.539185 45.568779,34.187176 
	C42.971691,30.737396 40.742786,27.776690 38.446331,24.726250 
	C42.658077,20.008785 44.389011,19.723026 46.956356,22.611641 
	C48.264866,20.684233 49.328598,17.778198 51.372219,16.654934 
	C52.442966,16.066401 55.232765,18.605421 57.563789,19.796677 
	C57.881351,19.861341 57.822350,19.792650 57.822350,19.792650 
M51.039238,22.372093 
	C52.153538,23.897091 53.267841,25.422087 54.382141,26.947084 
	C54.904861,26.639002 55.427578,26.330921 55.950298,26.022839 
	C54.660011,23.343903 53.369724,20.664967 52.079437,17.986032 
	C51.479134,18.207390 50.878826,18.428745 50.278522,18.650103 
	C50.506008,19.648361 50.733494,20.646620 51.039238,22.372093 
z"/>
<path fill="#231F20" opacity="1.000000" stroke="none" 
	d="
M143.266846,101.228226 
	C141.776825,100.502838 140.320068,99.551254 138.722351,99.040703 
	C135.681854,98.069115 132.674088,96.976707 133.579315,93.019958 
	C134.590881,88.598534 137.733902,90.026276 140.559692,90.998306 
	C141.751907,91.408401 142.967957,91.749176 144.336456,92.171898 
	C142.279770,86.351738 141.439850,85.959030 135.478271,88.012962 
	C135.478271,86.146919 135.478271,84.379539 135.478271,82.781509 
	C138.741699,83.345772 141.590958,83.838425 145.147781,84.453415 
	C143.983459,83.097504 143.421524,82.443100 142.102295,80.906776 
	C144.749863,81.553299 146.306717,81.933472 148.444855,82.455597 
	C146.853226,88.721931 145.326416,94.733131 143.487213,100.946182 
	C143.174820,101.148026 143.236435,101.201180 143.266846,101.228226 
M143.947449,96.276955 
	C141.237091,93.982178 138.357224,93.028511 135.200714,94.263512 
	C135.115616,94.938667 135.030518,95.613823 134.945404,96.288979 
	C137.810211,96.511162 140.675018,96.733353 143.947449,96.276955 
z"/>
<path fill="#231F20" opacity="1.000000" stroke="none" 
	d="
M14.922558,92.922745 
	C14.107086,91.906921 13.291616,90.891106 12.017599,89.304077 
	C15.206863,89.039146 16.972780,88.892456 18.886715,88.382385 
	C19.034735,88.019005 18.981737,88.075462 19.286282,87.987595 
	C19.407555,87.305191 19.224283,86.710655 19.058023,85.766647 
	C20.399075,83.908386 21.723116,82.399590 23.047157,80.890793 
	C27.211180,85.803368 23.725479,89.679718 21.734444,94.314880 
	C22.871376,93.577583 24.008308,92.840286 25.329992,91.983170 
	C25.802628,93.061447 26.283224,94.157890 26.403824,95.627136 
	C24.990465,96.013596 23.937101,96.027245 22.883738,96.040894 
	C20.877769,96.377861 18.878031,96.762001 16.862707,97.028114 
	C16.079165,97.131577 15.260453,96.968704 14.457762,96.927155 
	C14.736758,95.996681 15.015756,95.066208 15.767266,93.659790 
	C16.961035,92.833580 17.682291,92.483315 18.403545,92.133041 
	C17.945646,91.669754 17.487747,91.206467 17.029848,90.743179 
	C16.327419,91.469704 15.624989,92.196228 14.922558,92.922745 
z"/>
<path fill="#231F20" opacity="1.000000" stroke="none" 
	d="
M73.002472,18.931122 
	C73.640305,20.319712 74.276360,21.288536 75.248596,22.769432 
	C73.229027,22.874554 71.518311,22.963600 70.832291,22.999308 
	C69.227814,19.204254 67.834305,15.908176 66.113708,11.838464 
	C68.766068,11.385915 71.609688,10.900731 75.031860,10.316834 
	C74.338219,13.115252 73.669456,15.813303 73.002472,18.931122 
z"/>
<path fill="#231F20" opacity="1.000000" stroke="none" 
	d="
M124.291245,36.214943 
	C124.661278,35.860249 124.748146,35.760082 124.872635,35.570023 
	C129.423920,32.628330 130.791656,33.078487 135.169907,39.264084 
	C133.968353,39.892277 132.810471,40.497643 131.919098,40.963676 
	C129.623825,40.216774 135.080246,34.808571 129.161621,37.096195 
	C127.170731,37.865704 125.676865,39.921120 123.647789,41.651505 
	C125.483315,42.530357 126.807472,43.164364 128.131622,43.798374 
	C127.928864,44.276112 127.726097,44.753849 127.523331,45.231590 
	C125.903168,44.527626 123.107628,44.059067 122.909592,43.070278 
	C122.507790,41.064087 123.511353,38.776428 124.291245,36.214943 
z"/>
<path fill="#231F20" opacity="1.000000" stroke="none" 
	d="
M144.070282,65.940903 
	C145.020630,66.466606 146.668777,66.779556 146.861038,67.487747 
	C147.476547,69.754936 147.552704,72.168549 147.866104,74.766693 
	C146.331406,74.766693 144.911484,74.766693 143.468857,74.766693 
	C143.813812,74.257767 144.180496,73.716805 144.753693,72.871155 
	C141.764648,73.022034 139.116867,73.155678 135.809906,73.322609 
	C135.705536,72.904053 135.273026,71.169441 134.785843,69.215584 
	C137.270905,69.529869 139.120300,69.834602 140.982147,69.981812 
	C143.466690,70.178246 144.416931,68.931580 144.058670,66.188690 
	C144.167770,65.848953 144.101639,65.909073 144.070282,65.940903 
z"/>
<path fill="#231F20" opacity="1.000000" stroke="none" 
	d="
M57.913975,19.892735 
	C57.556080,18.271400 57.165562,16.618673 56.640789,14.397759 
	C57.457539,14.095498 58.984058,13.530569 60.243271,13.064564 
	C61.287285,16.541483 62.273693,19.826551 63.260101,23.111620 
	C63.631077,23.089800 64.002052,23.067980 64.373024,23.046160 
	C64.762939,21.698359 65.152847,20.350555 65.609459,18.772163 
	C68.857170,23.036724 67.010170,24.708788 59.648006,25.734930 
	C59.282505,23.838322 58.921238,21.963684 58.191158,19.940849 
	C57.822350,19.792650 57.881351,19.861341 57.913975,19.892735 
z"/>
<path fill="#231F20" opacity="1.000000" stroke="none" 
	d="
M78.513527,21.656944 
	C78.573654,18.504837 78.942139,15.637149 79.310616,12.769462 
	C79.078934,12.701180 78.847252,12.632899 78.615570,12.564618 
	C78.136292,13.405424 77.657005,14.246230 76.440964,16.379541 
	C76.193764,13.442735 76.068611,11.955923 75.922531,10.220450 
	C78.985550,10.220450 81.740005,10.220450 84.748016,10.220450 
	C84.748016,11.636141 84.748016,13.044214 84.748016,14.452287 
	C84.586761,14.662632 84.425507,14.872977 84.264252,15.083322 
	C83.854721,13.927783 83.445190,12.772244 83.035660,11.616706 
	C82.797340,11.912629 82.559021,12.208552 82.320702,12.504476 
	C82.320702,15.523308 82.320702,18.542139 82.320702,21.941366 
	C81.371101,21.941366 80.096489,21.941366 78.513527,21.656944 
z"/>
<path fill="#231F20" opacity="1.000000" stroke="none" 
	d="
M69.386520,135.250473 
	C70.307541,135.702438 71.406563,136.398102 71.364159,137.015381 
	C71.129829,140.426392 70.617271,143.818298 70.191528,147.286316 
	C69.019043,147.170181 67.191475,146.989166 65.851730,146.856461 
	C66.383408,143.515884 66.904243,140.243378 67.425087,136.970886 
	C66.956352,136.832657 66.487610,136.694443 66.018875,136.556213 
	C67.025108,136.190140 68.031334,135.824066 69.386520,135.250473 
z"/>
<path fill="#231F20" opacity="1.000000" stroke="none" 
	d="
M140.248093,80.000069 
	C138.724060,80.147057 137.635376,80.293983 136.219620,80.485046 
	C136.165253,79.352264 136.098175,77.954727 136.030136,76.536835 
	C140.054794,76.536835 143.799164,76.536835 147.771957,76.536835 
	C147.771957,77.677505 147.771957,79.103584 147.771957,80.588348 
	C145.369415,80.388939 143.026428,80.194473 140.248093,80.000069 
z"/>
<path fill="#231F20" opacity="1.000000" stroke="none" 
	d="
M23.217371,80.490677 
	C21.723116,82.399590 20.399075,83.908386 18.909924,86.129089 
	C18.823786,87.252480 18.902761,87.663971 18.981737,88.075462 
	C18.981737,88.075462 19.034735,88.019005 19.071526,88.007202 
	C18.360023,87.987038 17.611734,87.978676 16.438148,87.537308 
	C16.328140,85.697601 16.643429,84.290894 16.958719,82.884186 
	C16.958719,82.884186 17.011517,82.422089 17.265667,82.110855 
	C17.739519,81.635719 17.895565,81.424728 17.987957,81.166664 
	C18.308598,80.958946 18.629236,80.751228 19.459167,80.211082 
	C21.256708,79.433594 22.544962,78.988525 23.833214,78.543465 
	C23.684669,79.059166 23.536127,79.574860 23.217371,80.490677 
z"/>
<path fill="#231F20" opacity="1.000000" stroke="none" 
	d="
M16.579304,82.776367 
	C16.643429,84.290894 16.328140,85.697601 16.006622,87.468826 
	C11.193493,87.930664 11.851126,84.663635 12.259367,80.413155 
	C13.799972,81.294930 14.999929,81.981735 16.579304,82.776367 
z"/>
<path fill="#231F20" opacity="1.000000" stroke="none" 
	d="
M60.964272,140.148529 
	C59.408951,140.321304 57.869499,140.241196 56.470287,139.756363 
	C56.185879,139.657806 56.067280,137.532593 56.504505,137.216660 
	C57.462421,136.524475 58.825592,136.393127 60.023254,136.032730 
	C60.358719,137.272736 60.694183,138.512756 60.964272,140.148529 
z"/>
<path fill="#231F20" opacity="1.000000" stroke="none" 
	d="
M23.908768,78.296509 
	C22.544962,78.988525 21.256708,79.433594 19.567562,79.939201 
	C19.166666,79.999748 19.011463,79.569359 18.984726,79.342171 
	C18.821070,76.314247 20.074259,74.844887 23.395994,74.918594 
	C23.883656,75.949417 23.933989,76.999481 23.908768,78.296509 
z"/>
<path fill="#231F20" opacity="1.000000" stroke="none" 
	d="
M28.059526,99.650383 
	C26.748854,99.788193 25.253233,104.006737 24.006317,99.498611 
	C24.300051,98.973885 24.599672,98.781097 25.263992,98.300171 
	C26.124044,97.993950 26.619398,97.975861 27.114754,97.957779 
	C27.412359,98.420479 27.709965,98.883186 28.059526,99.650383 
z"/>
<path fill="#231F20" opacity="1.000000" stroke="none" 
	d="
M27.061905,97.631226 
	C26.619398,97.975861 26.124044,97.993950 25.257235,98.027367 
	C24.200577,97.588989 23.515373,97.135284 22.856953,96.361237 
	C23.937101,96.027245 24.990465,96.013596 26.438581,95.999794 
	C26.891909,96.434654 26.950483,96.869659 27.061905,97.631226 
z"/>
<path fill="#231F20" opacity="1.000000" stroke="none" 
	d="
M17.723835,81.121841 
	C17.895565,81.424728 17.739519,81.635719 17.343243,81.891632 
	C17.264349,81.681419 17.362032,81.379219 17.723835,81.121841 
z"/>
<path fill="#FFFFFF" opacity="1.000000" stroke="none" 
	d="
M139.427551,59.552895 
	C138.879425,59.838211 138.176147,59.903229 137.472855,59.968254 
	C137.753098,59.643864 138.033325,59.319477 138.618225,58.958740 
	C139.039413,59.059128 139.155899,59.195862 139.427551,59.552895 
z"/>
<path fill="#FFFFFF" opacity="1.000000" stroke="none" 
	d="
M140.077728,54.866409 
	C140.486465,54.583469 140.882950,54.692787 141.279419,54.802101 
	C140.874756,54.954292 140.470108,55.106480 140.077728,54.866409 
z"/>
<path fill="#FFFFFF" opacity="1.000000" stroke="none" 
	d="
M135.125824,54.099762 
	C135.489563,53.682846 136.053268,53.446266 136.616974,53.209686 
	C136.477493,53.546364 136.338028,53.883045 135.977783,54.411201 
	C135.613266,54.495159 135.469528,54.387630 135.125824,54.099762 
z"/>
<path fill="#FFFFFF" opacity="1.000000" stroke="none" 
	d="
M85.908180,144.483154 
	C85.572746,144.263000 85.495071,143.745712 85.417397,143.228439 
	C85.666916,143.547638 85.916428,143.866837 85.908180,144.483154 
z"/>
<path fill="#FFFFFF" opacity="1.000000" stroke="none" 
	d="
M51.000111,22.008486 
	C50.733494,20.646620 50.506008,19.648361 50.278522,18.650103 
	C50.878826,18.428745 51.479134,18.207390 52.079437,17.986032 
	C53.369724,20.664967 54.660011,23.343903 55.950298,26.022839 
	C55.427578,26.330921 54.904861,26.639002 54.382141,26.947084 
	C53.267841,25.422087 52.153538,23.897091 51.000111,22.008486 
z"/>
<path fill="#FFFFFF" opacity="1.000000" stroke="none" 
	d="
M143.743637,96.616249 
	C140.675018,96.733353 137.810211,96.511162 134.945404,96.288979 
	C135.030518,95.613823 135.115616,94.938667 135.200714,94.263512 
	C138.357224,93.028511 141.237091,93.982178 143.743637,96.616249 
z"/>
<path fill="#FFFFFF" opacity="1.000000" stroke="none" 
	d="
M15.122801,93.102859 
	C15.624989,92.196228 16.327419,91.469704 17.029848,90.743179 
	C17.487747,91.206467 17.945646,91.669754 18.403545,92.133041 
	C17.682291,92.483315 16.961035,92.833580 15.996147,93.395973 
	C15.609357,93.499710 15.466200,93.391335 15.122801,93.102859 
z"/>
<path fill="#FFFFFF" opacity="1.000000" stroke="none" 
	d="
M19.286282,87.987595 
	C18.902761,87.663971 18.823786,87.252480 18.892914,86.478554 
	C19.224283,86.710655 19.407555,87.305191 19.286282,87.987595 
z"/>
</svg>