<svg id="Layer_1" data-name="Layer 1" xmlns="http://www.w3.org/2000/svg" viewBox="0 0 2745 3125.5751"><defs><style>.cls-1{fill:#fdfdfd;}.cls-2{fill:#a41e22;}.cls-3{fill:#faecec;}.cls-4{fill:#db282d;}.cls-5{fill:#dc3338;}.cls-6{fill:#d92025;}</style></defs><title>rmarkdown</title><path class="cls-1" d="M2681.26533,1556.15843q0,731.30718.256,1462.61437c.00617,10.2404-2.307,12.54894-12.54665,12.54561q-1295.97561-.41359-2591.9513,0c-10.23983.003-12.54769-2.30554-12.54482-12.54561q.40932-1462.61438,0-2925.22868c-.00287-10.24,2.305-12.54861,12.54481-12.54534q1295.97563.41337,2591.95131,0c10.23966-.00327,12.55282,2.30479,12.54665,12.54542Q2681.081,824.8511,2681.26533,1556.15843Zm-52.41727-1.5372q0-360.53214.25939-721.06387c.01467-10.5078-3.17367-15.94573-12.25459-21.18413Q2002.95539,458.24352,1389.74058,102.93445c-24.73432-14.361-41.61331-14.3219-66.3458.03879Q710.5393,458.8225,96.35413,812.38065c-9.09247,5.245-12.23927,10.70176-12.23288,21.19413q.43887,720.38114-.03367,1440.76243c-.00745,10.75868,3.64825,15.9574,12.54292,21.04526q134.86179,77.1408,269.28134,155.05529,489.8357,282.70994,979.5532,565.62441c8.16406,4.71944,14.15775,4.71144,22.258.00967,80.14664-46.52289,160.56958-92.56934,240.82673-138.90252q503.40158-290.62028,1006.93134-581.01767c10.802-6.22146,13.62672-12.88685,13.61088-24.56359Q2628.6051,1913.10515,2628.84806,1554.62123Z"/><path class="cls-2" d="M2628.84806,1554.62123q0,358.48367.24389,716.96683c.01584,11.67674-2.80893,18.34213-13.61088,24.56359q-503.69788,290.1054-1006.93134,581.01767c-80.25715,46.33318-160.68009,92.37963-240.82673,138.90252-8.10021,4.70177-14.0939,4.70977-22.258-.00967q-489.64592-283.03826-979.5532-565.62441-134.5629-77.66317-269.28134-155.05529c-8.89467-5.08786-12.55037-10.28658-12.54292-21.04526q.49872-720.38114.03367-1440.76243c-.00639-10.49237,3.14041-15.94915,12.23288-21.19413Q710.21836,458.27094,1323.39478,102.97324c24.73249-14.36069,41.61148-14.39983,66.3458-.03879q612.89675,355.85568,1227.11228,709.43878c9.08092,5.2384,12.26926,10.67633,12.25459,21.18413Q2628.6026,1194.08889,2628.84806,1554.62123ZM367.81805,777.616c-2.21811.14066-4.24721.64853-5.43194,2.79653-57.68719,30.63959-113.44335,64.65622-170.12161,97.06014-7.70723,4.40636-7.28773,10.52471-7.28744,17.36706q.02784,662.32692-.24829,1324.65367c-.00726,10.40193,4.18207,15.45145,12.33146,20.11871q128.19964,73.42619,256.16751,147.25664,174.52338,100.73658,348.89044,201.74372,157.95381,91.32013,315.93013,182.60108,101.34647,58.63973,202.56022,117.50817c37.26639,21.64007,36.78845,20.89956,74.71456-1.51735,71.49414-42.25723,143.49255-83.66475,215.42994-125.1678,80.5954-46.49822,161.439-92.56634,242.01941-139.09023,71.92239-41.52555,143.54672-83.56756,215.46178-125.10578,74.678-43.13477,149.609-85.83143,224.31482-128.91835,74.30456-42.8557,148.39375-86.08515,222.783-128.79265,9.25363-5.31274,13.19246-11.1151,13.18379-22.38874q-.5056-660.27831-.00033-1320.55645c.00884-11.65123-3.818-18.258-13.508-23.7569-41.44427-23.51942-82.40061-47.907-124.03409-71.08089-12.89606-7.17818-24.38566-17.84918-40.1435-19.23675-.22788-3.015-1.93857-4.74611-4.53829-6.22258q-59.10876-33.56961-118.11684-67.31689-69.49746-39.82538-138.87606-79.85861-37.681-21.69925-75.29494-43.51514-81.75432-47.27826-163.49428-94.58118c-53.734-31.18414-107.30455-62.65025-161.09227-93.74109-54.518-31.51311-109.2823-62.60043-163.813-94.09165q-81.28146-46.93974-162.26719-94.39092c-5.01156-2.93068-8.86863-2.67445-13.78383.22231-23.459,13.82534-47.13323,27.28526-70.72339,40.88817q-102.541,59.12882-205.08584,118.25085c-40.87765,23.52564-81.94034,46.73069-122.76023,70.3557-58.065,33.60583-115.90354,67.60312-173.98725,101.17635-54.20977,31.334-108.63892,62.288-162.92495,93.49026C552.37694,669.23593,490.53889,704.4541,429.17794,740.4839,408.57783,752.5799,386.78334,762.794,367.81805,777.616Z"/><path class="cls-1" d="M1368.562,1075.779c11.66514-17.23829,22.52144-35.09714,35.1667-51.58375,25.01954-32.61972,48.62971-66.31644,77.52358-95.95379,42.92942-44.03431,89.11636-83.93465,140.60793-117.616,29.60127-14.59809,58.45187-30.70769,89.53879-42.25081a468.36556,468.36556,0,0,1,201.11291-28.39373c9.60853.7338,10.91631,5.42523,8.80136,13.00709-1.54783,5.5498-4.89087,10.61231-4.43177,16.69778-7.60511,25.56565-15.54913,51.03861-22.652,76.74405-2.92429,10.58348-8.13306,15.32984-19.58265,16.38875-32.79011,3.03238-65.45052,7.466-101.15041,11.70349,5.52017,1.04016,8.12072,1.705,10.76278,2.00114,29.252,3.27935,58.48138,6.81934,87.78808,9.51214,7.186.66032,8.17206,3.2831,6.52188,9.06529a42.62955,42.62955,0,0,0-5.86724,17.10525c-9.00524,22.1852-17.72592,44.49083-27.0654,66.53441-39.16212,92.43155-90.19793,176.89207-164.76321,245.65642-9.90243,9.13206-18.61511,12.48209-32.62291,7.671-64.90907-22.29313-132.341-29.38813-200.89278-29.42655,39.49428,11.16361,78.35417,24.0833,116.7208,38.47009q1.50106.38,3.0023.75984l.74066.59064.94036-.115c18.04482,8.30036,36.08981,16.60072,54.55138,25.09288-4.75184,6.6268-13.34582,7.32405-18.3017,12.99654-23.07506,11.42034-45.68318,23.74247-69.76811,33.14176-66.7873,26.0641-136.29152,36.69884-207.58028,37.70282-6.39477.09011-13.29314-.6649-17.2409,5.61307-7.58944,12.069-14.64243,24.47531-22.46642,37.66656H1323.863c13.13011.15054,26.25989.37167,39.39042.43552,20.50459.09961,24.22471,3.728,24.89277,24.446.08685,2.692.4936,5.37375.75232,8.06322-.51936,5.85478-1.24818,11.69748-1.50656,17.56086-.34208,7.76-3.93525,15.14629-11.46618,14.21057-22.31414-2.77281-19.13355,11.8216-18.89709,25.04437.08936,4.994.60805,10.07686-.09835,14.9705-1.99167,13.7959,4.452,16.83344,16.35255,13.65436,15.84735.26423,31.69429.55747,47.54214.78669,31.58361.4566,43.07729,9.419,50.92862,39.784,4.8767,41.472,9.2898,83.00593,14.782,124.39645,4.14755,31.25665-7.35489,45.27577-39.16229,45.27993q-201.21547.02526-402.43094.029c-9.09785.00217-18.12584-.34358-26.94146-2.856-13.42559-7.6888-18.2907-19.75-16.57342-34.4679,5.35455-45.89308,10.46-91.82867,16.85465-137.581,2.90628-20.793,15.56738-31.8838,36.76962-33.62371,17.55838-1.44117,35.29447-.82769,52.953-.912,23.38261-.1117,23.383-.02268,21.775-23.16359.19113-5.74735-.13869-11.57.68181-17.22587,1.7092-11.782-3.4974-14.95833-14.08481-12.36314-11.99629-.09628-17.036-6.30815-16.57059-18.08015.37608-9.51256-.0671-19.05446.10285-28.57886.26306-14.73628,4.67224-19.23208,19.8858-19.29785,39.923-.17254,79.85248-.40926,119.76777.17287,10.71618.15629,17.42544-2.73664,23.12047-12.28229,14.36063-24.07055,29.92151-47.42493,45.00253-71.06872,2.48469-3.19691,5.14042-6.27305,7.42666-9.60291,87.28689-127.13359,188.33145-242.29614,301.39038-347.06441,32.63358-30.2405,67.554-57.76894,101.21743-86.78357q.69015-1.29279,1.38029-2.58543-1.64934.05013-3.29886.1001c-29.84882,18.32354-57.376,39.84616-84.55207,61.8058-82.59648,66.742-155.81115,142.98889-224.70182,223.48582-31.83765,37.20154-63.39217,74.70824-90.71428,115.49512q-14.11037,17.82091-28.22064,35.64184c-.72291-16.99906,3.41088-32.53745,7.4024-48.05108a662.76119,662.76119,0,0,1,69.42086-168.82594C1366.19318,1082.48771,1367.20381,1079.03224,1368.562,1075.779Zm-52.48861,349.41137c-.145,4.8984-.05734,9.81755-.49185,14.69011-.59605,6.68381.32565,10.56872,8.89455,10.50446,8.17548-.06144,11.461-2.15242,10.32143-10.51347-.65755-4.82546-.34332-9.78329-.46651-14.6816.16053-4.00735.03192-8.05205.54336-12.01414.98888-7.6613-2.1142-9.844-9.702-9.86931-7.64737-.02559-10.63325,2.25261-9.64321,9.86989C1316.04406,1417.13763,1315.91278,1421.183,1316.0734,1425.19035Zm-39.05177,130.67084c-11.02016,19.40638-28.36492,30.92474-48.53619,38.91778-27.34462,5.96556-27.34462,5.96556-8.48229,26.94714,26.356,31.00742,64.85723,38.08008,78.44135,14.40987-38.36154-.58614-42.80006-1.99563-72.53394-23.03072-1.58241-4.12814-7.3388-5.19055-7.76914-10.93956,3.43456-.89371,6.84361-1.78059,10.25275-2.66746,26.60555-4.89,50.92628-13.37613,63.50253-40.34761a31.53792,31.53792,0,0,0,4.04227-16.68041c-.659-23.75573-15.15912-35.77137-36.6846-30.91173-6.32392,1.42783-12.66118,3.10339-17.588,6.91145-37.21121,28.76256-61.81042,64.68314-62.53216,113.58242-.11669,7.90935,1.69495,15.18672,10.13707,20.26858,1.03-4.66226,2.23639-8.45915,2.6694-12.34223,3.92708-35.21974,16.09915-67.73352,32.29433-98.926,7.95669-15.32492,23.30794-15.91972,37.45752-17.36189,10.68284-1.08876,16.1665,6.58187,18.75455,16.2618Q1278.73437,1547.907,1277.02163,1555.86119Z"/><path class="cls-3" d="M494.10735,2030.59949c57.56527-55.29111,101.28919-53.64389,137.27656,4.80262,6.9819-7.78332,12.33069-16.61089,19.97631-23.673,42.06691-38.85793,105.535-22.60046,123.04018,31.82828,4.92662,15.31825,6.49787,31.13779,6.53963,47.11586.10577,40.50415-.18729,81.01147.24764,121.51145.09077,8.45064-2.35292,10.61982-10.71077,10.65449-29.31646.1212-29.06495.47061-29.38205-28.81891-.42822-39.55509,2.02413-79.1672-1.70512-118.65678-2.8073-29.72695-17.60551-47.48828-41.11357-50.28043-30.06833-3.57134-56.73906,20.62683-57.35319,53.75575-.80954,43.67539-.60683,87.37895-.1056,131.062.1146,9.99484-2.15609,13.20643-12.66635,12.99788-28.25869-.5608-28.26932-.01717-28.26949-28.35264q-.00024-51.19974.00134-102.3993c.00212-11.42251-1.06548-22.681-4.54642-33.64738-10.83134-34.12349-46.15627-44.74331-73.71786-21.97-14.87365,12.28955-22.50743,28.35814-22.61645,47.60815-.2371,41.86813-.427,83.7416.03609,125.6054.10639,9.61809-1.50311,13.416-12.38012,13.17909-28.577-.62265-28.48837-.02368-28.61056-28.05907-.27773-63.70808-.56087-127.41666-1.183-191.12174-.05739-5.87621,1.00371-7.61728,7.09425-8.03372,28.67611-1.96062,28.657-2.17917,29.67691,26.41719C493.72739,2024.6946,493.91873,2027.2607,494.10735,2030.59949Z"/><path class="cls-3" d="M1541.995,2025.12054c0-42.50345.30306-82.55883-.21971-122.6032-.12586-9.63242,2.74891-12.2222,12.21842-12.15885,28.88961.194,28.92912-.20755,28.98747,27.93221q.30581,147.45351.72131,294.90636c.02818,6.75375-.99654,9.40337-8.59165,9.63376-26.15337.794-26.12086,1.14076-28.46719-24.94768-.3074-3.4178-.97454-6.80342-1.8794-12.95136-13.25847,21.48219-30.49229,34.09115-52.22072,39.95652-38.80372,10.47495-79.78447-4.59491-100.77233-39.21485-28.77143-47.45927-28.97831-97.10956-2.70266-145.34335C1420.53777,1982.56291,1502.13671,1973.18655,1541.995,2025.12054Zm-.07768,83.31417c0-8.18459.40608-16.393-.07235-24.54958-1.77421-30.24775-20.88192-53.27631-49.04239-59.55578-25.81313-5.75618-54.68924,7.30271-67.5037,32.61547-16.99885,33.57853-16.93225,68.69391-2.15838,102.76089,10.35761,23.88409,30.50346,35.05054,57.01774,33.91344,27.365-1.17361,46.09326-14.48439,56.762-39.49608C1543.1964,2139.40962,1542.03132,2123.85632,1541.9173,2108.43471Z"/><path class="cls-3" d="M1937.54222,2178.23038c16.62385-55.92393,35.82275-110.63723,53.27261-165.8955,1.785-5.65249,1.23659-14.65677,8.10621-15.87222,9.67872-1.7124,19.9839-.98873,29.86766.09352,4.07119.44594,4.14038,6.38483,5.24678,10.13788,16.54967,56.13547,36.16482,111.3674,49.69235,168.39692.38658,1.62954,1.5715,3.06955,3.43489,6.57487,11.96787-59.14868,30.20823-114.48814,44.84066-170.794,3.05382-11.75109,7.46492-15.91689,19.94189-15.34193,25.15549,1.15977,25.21567.34358,17.48387,24.29686-20.34748,63.03742-40.95167,125.99416-60.83571,189.17761-3.17534,10.0907-6.83412,14.54424-18.38323,13.96377-22.93069-1.1516-23.06905-.28306-29.93133-22.02582-15.97172-50.60535-34.02087-100.58871-45.77153-152.46419-.36474-1.61038-1.38863-3.07138-3.48624-7.5516-11.47126,52.23906-28.9778,99.563-45.10421,147.32582-2.467,7.30738-5.78756,14.42571-7.34739,21.916-2.0656,9.92133-7.31488,12.49743-17.07228,12.2287-23.93107-.65865-24.10444-.11153-31.26962-23.71422-19.24341-63.391-38.15024-126.885-57.681-190.187-3.1385-10.17255-2.0051-13.12957,9.43049-12.89568,28.75992.5888,28.71891.03717,35.73157,27.43575Q1917.57257,2100.6468,1937.54222,2178.23038Z"/><path class="cls-3" d="M1223.459,2100.05441c27.19268-31.91164,52.89312-61.17949,77.43131-91.39139,7.74623-9.5374,15.75884-13.56918,27.68778-12.48993,9.43425.85337,19.00736.17171,29.43765.17171-1.0028,6.99247-6.305,10.27491-10.04763,14.276-22.05983,23.58219-44.11767,47.178-66.73846,70.2171-6.3656,6.48335-6.61732,10.59182-1.01871,17.91536,29.81347,38.99947,58.99148,78.48454,88.38062,117.80825,1.0028,1.34181,1.91241,2.75347,4.18214,6.03791-16.30971,0-30.64141-.20271-44.9626.09869-5.81574.12236-7.61162-4.07062-10.19675-7.66579-21.75485-30.25575-43.922-60.22894-64.992-90.95463-6.64033-9.68327-9.6398-7.763-16.52625-.52379-9.43458,9.91766-13.42835,20.34276-12.61134,34.089,1.10348,18.564.02867,37.24789.39483,55.87041.13262,6.74725-1.45939,9.42071-8.90805,9.77429-31.96468,1.517-31.9516,1.79025-31.9516-30.42879,0-95.53069.21238-191.06222-.265-286.59059-.06068-12.14951,2.57913-16.54937,15.56313-16.00574,25.10806,1.05091,25.141.26439,25.141,25.13705Z"/><path class="cls-3" d="M1840.50984,2122.52984c-.66247,33.469-16.76088,73.46686-62.36637,93.66509-80.11963,35.48364-164.70453-13.93659-157.6252-116.28589,5.3538-77.40512,72.389-124.769,144.58111-104.08186C1811.206,2009.03961,1840.89259,2053.318,1840.50984,2122.52984Zm-178.84769-13.91226c-.058,22.86585,4.78484,44.32588,18.79714,62.85555,24.90494,32.93371,72.33148,33.89993,97.37845,1.07125,27.3873-35.89607,26.47044-75.22061,8.685-114.59132-10.32235-22.85035-29.00914-35.508-54.95513-35.799-26.781-.30024-45.99557,11.91912-58.47188,35.21524C1664.52725,2073.36883,1661.2869,2090.63271,1661.66215,2108.61758Z"/><path class="cls-3" d="M953.9244,2194.09442c-20.31488,25.56549-45.5924,35.445-75.63443,33.48451-28.67423-1.87111-50.92711-18.22893-59.23954-42.91788-9.08275-26.97682-1.10923-57.71718,20.01607-75.95511,21.62008-18.66521,48.04109-24.84149,75.42214-28.09175,9.9206-1.17777,19.924-1.77308,29.90791-2.254,4.67874-.22539,7.38-.90255,7.5376-6.73591.72248-26.72893-15.92946-46.22649-42.88783-48.968a100.25619,100.25619,0,0,0-57.98878,11.25847c-7.41249,3.92525-10.46955,3.73571-13.32715-4.9965-5.9456-18.16792-6.56548-18.16625,10.74994-25.60583a141.10811,141.10811,0,0,1,82.79-9.29617c33.43132,6.17861,55.06749,31.20747,59.44458,67.59115,4.19972,34.90984,1.81222,69.98588,1.982,104.98674.07285,15.00318-.622,30.08688,2.16329,44.81349,1.83089,9.6801-1.2926,11.43735-10.16115,11.39834C960.43345,2222.69879,960.43186,2223.05987,953.9244,2194.09442Zm-1.56591-62.76319c0-5.45577-.16162-10.91789.04859-16.36566.18412-4.77279-.83151-7.54277-6.58589-7.60195-22.9096-.236-45.54423.98907-66.281,12.09933-19.95439,10.69151-28.0566,32.22038-20.58669,53.45568,6.56781,18.67037,25.1239,27.56112,47.96074,22.97888C937.06241,2189.84843,952.36557,2168.11051,952.35849,2131.33123Z"/><path class="cls-3" d="M2241.40788,2032.61546c21.03095-30.93024,48.3739-43.7179,82.19206-41.43987,36.66843,2.46975,65.54855,31.321,70.30239,71.831,5.95309,50.728,1.58633,101.81417,2.7089,152.72875.1217,5.521-2.45452,6.538-7.39573,7.002-34.14473,3.20558-33.89784,3.31977-34.19757-30.64668-.32907-37.29373,1.52465-74.61963-1.12424-111.87835-2.43018-34.184-19.26374-53.26714-47.44438-54.40291-31.13175-1.25462-56.25857,19.13748-60.23408,51.05562-3.77263,30.28843-.87452,60.88792-1.4093,91.34489-.25555,14.55557-.44709,29.135.11469,43.67339.30807,7.97269-1.44664,11.87561-10.35886,10.88138a90.14364,90.14364,0,0,0-20.43966.00566c-9.56386,1.1336-11.00033-3.22759-10.955-11.59788.3024-55.9636.19705-111.93.06068-167.895-.03217-13.18542-.35707-26.39084-1.20892-39.54425-.38891-6.00608,1.2371-8.59735,7.30922-7.85718a8.22468,8.22468,0,0,0,1.36395.00167c26.28056-1.20145,26.25923-1.19978,28.76492,24.64177C2239.75836,2023.628,2240.44,2026.69941,2241.40788,2032.61546Z"/><path class="cls-2" d="M1018.00088,1720.3657c8.81562,2.51242,17.84361,2.85817,26.94146,2.856q201.21546-.048,402.43094-.029c31.8074-.00416,43.30984-14.02328,39.16229-45.27993-5.49216-41.39052-9.90526-82.92441-14.782-124.39645,9.81608,7.67813,14.58042,17.84884,16.10657,30.15522,5.16143,41.62008,10.64226,83.201,16.08374,124.786,4.15922,31.78677-9.11343,47.00533-41.42593,47.01467q-196.29093.057-392.58161-.112c-9.88493-.0145-20.06192-.68682-29.58452-3.09989C1024.42049,1748.22322,1018.99451,1735.54392,1018.00088,1720.3657Z"/><path class="cls-2" d="M1872.702,912.20585c2.47852,7.77824,9.14243,4.78737,13.86177,4.58382,9.20478-.39709,10.91864,2.558,7.92534,10.99108-13.03459,36.72234-26.90286,73.11511-43.19931,108.51332-14.801,32.14944-31.71088,63.22913-49.459,93.84738-17.41,23.04039-32.4172,47.788-51.135,69.94021-19.00536,22.49234-39.05077,43.8175-61.3795,63.01766-5.24944,4.514-10.62091,4.0392-16.48765,1.9583-27.30378-9.6841-55.43691-16.10727-83.82275-21.67083-6.82144-1.33706-13.46735-1.26054-20.24245-1.03949l-.942.11436-.743-.591c-.71116-1.39992-1.656-1.86794-3-.75943-38.36663-14.38679-77.22652-27.30648-116.7208-38.47009,68.55177.03842,135.98371,7.13342,200.89278,29.42655,14.0078,4.81113,22.72048,1.4611,32.62291-7.671,74.56528-68.76435,125.60109-153.22487,164.76321-245.65642C1854.97607,956.69668,1863.69675,934.39105,1872.702,912.20585Z"/><path class="cls-3" d="M1078.192,2037.28472c8.84479-10.35259,14.071-21.91046,24.16445-29.89783,6.08437-4.81513,12.09614-9.64476,19.60373-12.113,10.41412-3.4238,23.779-9.43471,30.85553-1.05524,6.58856,7.80182,1.84973,21.82744,1.77138,33.10675-.03384,4.8718-4.24373,3.51515-7.21853,3.5855-36.94682.87571-57.78057,19.57775-61.46368,56.83-3.8549,38.98963-1.5179,78.1673-1.31619,117.24361.07059,13.684-2.49337,18.87259-17.38885,18.01105-24.17587-1.39832-24.169-.37175-24.24805-24.46606-.21046-64.16385-.26431-128.33-.982-192.48856-.10052-8.99127,2.81443-10.34759,10.7371-10.34608,25.0128.00466,25.03205-.31158,25.47048,24.6351C1078.27664,2025.97974,1078.192,2031.63289,1078.192,2037.28472Z"/><path class="cls-3" d="M353.62363,2037.34557c12.58277-22.552,27.89393-39.42023,53.19662-44.9692,20.32617-4.45771,23.58336-1.78025,23.584,18.89809a41.57127,41.57127,0,0,0,.03376,5.45178c1.37541,10.30758-.46735,14.89432-13.38938,14.11814-31.83572-1.91195-56.22692,26.05109-57.09177,64.838-.85122,38.17493-.69992,76.38888-.05741,114.57.17591,10.45412-2.85467,12.80767-12.87658,12.61929-28.32423-.53262-28.11333-.06018-28.37774-28.18876-.59814-63.63807,1.742-127.3028-1.61373-190.91036-.31176-5.90938,1.32255-7.62429,7.31219-8.058,28.452-2.06065,28.46188-2.27087,29.25811,25.597C353.7543,2026.65206,353.62363,2032.00065,353.62363,2037.34557Z"/><path class="cls-2" d="M1323.863,1394.56026h-35.90719c7.824-13.19125,14.877-25.59757,22.46642-37.66656,3.94776-6.278,10.84613-5.523,17.2409-5.61307,71.28876-1.004,140.793-11.63872,207.58028-37.70282,24.08493-9.39929,46.69305-21.72142,69.76811-33.14176,9.73406,9.19449,23.52648,10.78936,35.632,19.2856-10.50356,6.105-20.33464,12.02706-30.35526,17.60879-54.04244,30.10279-112.14741,48.6548-173.00112,57.91364-29.8895,4.54764-60.20067,7.81824-90.65586,6.15094C1336.01387,1380.81363,1327.89815,1384.021,1323.863,1394.56026Z"/><path class="cls-2" d="M1315.83327,1266.74393c27.32211-40.78688,58.87663-78.29358,90.71428-115.49512,68.89067-80.49693,142.10534-156.74378,224.70182-223.48582,27.17609-21.95964,54.70325-43.48226,84.55207-61.8058q.95946,1.2428,1.91874,2.48542c-33.66363,29.01454-68.584,56.543-101.2176,86.78348-113.05893,104.76827-214.10349,219.93082-301.39038,347.06441-2.28624,3.32986-4.942,6.406-7.42657,9.60291C1307.18527,1296.26484,1316.0509,1282.32407,1315.83327,1266.74393Z"/><path class="cls-2" d="M1373.28285,1512.94564c-11.90052,3.17908-18.34422.14154-16.35255-13.65436.7064-4.89364.18771-9.9765.09835-14.9705-.23646-13.22277-3.41705-27.81718,18.89709-25.04437,7.53093.93572,11.1241-6.45059,11.46618-14.21057.25838-5.86338.9872-11.70608,1.50656-17.56086a7.80627,7.80627,0,0,1,1.35688.10769c15.16621,3.804,19.00444,15.05936,15.37333,46.10929-1.36295,11.6549-7.37131,17.7745-19.99531,17.03966C1367.00185,1489.67686,1374.73065,1504.03089,1373.28285,1512.94564Z"/><path class="cls-2" d="M1116.37671,1461.02841c10.58741-2.59519,15.794.58113,14.08481,12.36314-.8205,5.65583-.49068,11.47852-.68181,17.22587-10.628.93405-10.11989-6.74425-11.58278-13.875C1117.11745,1471.48085,1116.178,1466.36666,1116.37671,1461.02841Z"/><path class="cls-2" d="M1930.0528,818.68888c-5.73588,16.98539-11.68648,33.902-17.1573,50.97235-7.96869,24.86348-7.82132,24.91074-34.32644,25.43995,1.65035-5.78277.66431-8.40555-6.52171-9.06587-29.3067-2.6928-58.53606-6.23279-87.78808-9.51214-2.64206-.29616-5.24261-.961-10.76278-2.00114,35.69989-4.23749,68.3603-8.67111,101.15041-11.70349,11.44959-1.05891,16.65836-5.80527,19.58265-16.38875,7.10283-25.70544,15.04685-51.1784,22.652-76.74405,24.43217.46961,24.11594.39993,19.12921,23.02247C1934.09765,801.38691,1929.20145,809.39645,1930.0528,818.68888Z"/><path class="cls-2" d="M1280.44744,1539.958c-2.58838-9.68527-8.072-17.3559-18.75488-16.26714-14.14958,1.44217-29.50083,2.037-37.45752,17.36189-16.19518,31.19247-28.36725,63.70625-32.29433,98.926-.433,3.88308-1.63943,7.68-2.6694,12.34223-8.44212-5.08186-10.25376-12.35923-10.13707-20.26858.72174-48.89928,25.32095-84.81986,62.53216-113.58242,4.92679-3.80806,11.264-5.48362,17.588-6.91145,21.52548-4.85964,36.02563,7.156,36.68469,30.9114Q1288.19329,1541.21334,1280.44744,1539.958Z"/><path class="cls-2" d="M1225.90806,1613.10276c29.73638,21.03759,34.1749,22.44708,72.53644,23.03322-13.58412,23.67021-52.08536,16.59755-78.44119-14.40954C1221.73868,1618.69256,1222.42883,1614.94285,1225.90806,1613.10276Z"/><path class="cls-2" d="M1228.48544,1594.779c20.17127-7.993,37.516-19.5114,48.53544-38.91661,5.22911-.12953,10.27443.57463,14.87582,3.28827-12.57625,26.97148-36.897,35.45763-63.50361,40.34761Q1228.43811,1597.13868,1228.48544,1594.779Z"/><path class="cls-2" d="M1334.331,1425.18985c.12319,4.89831-.191,9.85614.46651,14.6816,1.13958,8.361-2.146,10.452-10.32143,10.51347-8.5689.06426-9.4906-3.82065-8.89455-10.50446.43451-4.87256.34682-9.79171.49193-14.69119Q1325.2023,1425.18852,1334.331,1425.18985Z"/><path class="cls-4" d="M1334.331,1425.18985q-9.12882-.00075-18.25754-.00058c-.1607-4.00627-.02942-8.05164-.54428-12.013-.99-7.61728,1.99584-9.89548,9.64321-9.86989,7.58777.02533,10.69085,2.208,9.702,9.86931C1334.36294,1417.1378,1334.49155,1421.1825,1334.331,1425.18985Z"/><path class="cls-5" d="M1228.48544,1594.779q-.04675,2.35955-.09235,4.71927c-3.40806.88687-6.81711,1.77375-10.25167,2.66746.43034,5.749,6.18673,6.81142,7.76789,10.93839-3.48048,1.83876-4.17063,5.58847-5.906,8.62235C1201.14082,1600.74453,1201.14082,1600.74453,1228.48544,1594.779Z"/><path class="cls-4" d="M1291.8967,1559.15063c-4.60139-2.71364-9.64671-3.4178-14.87582-3.28827q1.714-7.95612,3.4264-15.90706,7.74614,1.25955,15.49178,2.51459A31.53925,31.53925,0,0,1,1291.8967,1559.15063Z"/><path class="cls-2" d="M1715.80144,865.95719q1.6496-.04989,3.29886-.1001-.69014,1.29267-1.38029,2.58543Q1716.76081,867.2,1715.80144,865.95719Z"/><path class="cls-6" d="M2528.51562,897.1844c.00879-11.65137-3.81811-18.25781-13.5083-23.75684-41.44409-23.51953-82.40039-47.907-124.03393-71.081-12.896-7.17822-24.38574-17.84912-40.14356-19.23682-.228-3.01513-1.93872-4.74609-4.53833-6.22241q-59.10864-33.56982-118.1167-67.31689-69.49767-39.82545-138.876-79.85865-37.68128-21.69946-75.29517-43.51513-81.75422-47.2782-163.49414-94.5813c-53.73413-31.18408-107.30469-62.65015-161.09228-93.741-54.51807-31.51318-109.28235-62.60058-163.813-94.0918q-81.28163-46.93944-162.26734-94.39062c-5.01147-2.93066-8.86853-2.67481-13.78369.22217-23.4591,13.82519-47.1333,27.28515-70.72339,40.88818Q1176.28877,309.63106,1073.7439,368.753c-40.87769,23.52564-81.94031,46.73072-122.7602,70.35572-58.06494,33.606-115.90356,67.603-173.98724,101.17627-54.20978,31.33422-108.63892,62.28808-162.925,93.49047C552.377,669.23591,490.53888,704.45418,429.17792,740.484c-20.6001,12.096-42.39459,22.31006-61.35987,37.13208-2.21814.14063-4.24719.64844-5.43133,2.79688-57.68781,30.63916-113.444,64.65576-170.12219,97.05981-7.70728,4.40625-7.28778,10.52466-7.28748,17.36694q.02784,662.32691-.24829,1324.65381c-.00726,10.40186,4.18207,15.45142,12.33148,20.11865q128.19965,73.426,256.16748,147.2566,174.52341,100.73657,348.89044,201.74365,157.95384,91.32019,315.93018,182.60107,101.34632,58.63989,202.56018,117.5083c37.26648,21.64014,36.78845,20.89942,74.7146-1.51733,71.494-42.25733,143.49255-83.6648,215.42993-125.168,80.59534-46.49805,161.439-92.56616,242.01941-139.09009,71.92236-41.52563,143.54663-83.56762,215.46167-125.10571,74.678-43.13477,149.60913-85.83154,224.31494-128.91846,74.30445-42.85571,148.3938-86.0852,222.783-128.79248,9.25366-5.313,13.19238-11.11523,13.18384-22.38891Q2528.01013,1557.46247,2528.51562,897.1844ZM417.04865,2030.84456c-31.8357-1.91211-56.22693,26.051-57.09174,64.83789-.85126,38.1748-.7,76.38891-.05743,114.56982.1759,10.45435-2.85468,12.80786-12.87659,12.61939-28.32422-.53248-28.11334-.06006-28.37775-28.18873-.59814-63.63818,1.74207-127.30273-1.61371-190.9104-.31176-5.90942,1.32257-7.62426,7.3122-8.05786,28.452-2.06079,28.46185-2.271,29.25812,25.59693.15258,5.34057.02191,10.68921.02191,16.03393,12.58276-22.55176,27.89392-39.42016,53.19659-44.96924,20.32617-4.45752,23.58338-1.78027,23.584,18.8982a41.55932,41.55932,0,0,0,.03375,5.4519C431.81348,2027.034,429.9707,2031.62068,417.04865,2030.84456Zm183.15606-995.1272c6.34131,4.17456,12.47516,8.76538,18.6355,13.32153-6.16034-4.55591-12.29419-9.14673-18.6355-13.32129q-8.19625-5.39576-16.14026-11.10034Q592.01287,1030.31587,600.20471,1035.71736ZM481.22186,934.72981q6.96148,6.86425,13.97943,13.66992-7.02237-6.7998-13.97943-13.66968-5.89617-5.814-11.642-11.74926Q475.32621,928.9156,481.22186,934.72981ZM770.47693,2222.83918c-29.31647.1211-29.065.47071-29.38208-28.81884-.42822-39.55518,2.02411-79.16724-1.70514-118.65674-2.80725-29.72705-17.60547-47.48828-41.11353-50.28052-30.06836-3.57129-56.73907,20.62671-57.35321,53.75562-.80957,43.67553-.60681,87.37915-.10559,131.062.11457,9.99512-2.15613,13.20654-12.66638,12.99805-28.25867-.5608-28.26929-.01709-28.26947-28.35254q-.00027-51.2.00134-102.39942c.00214-11.42261-1.06549-22.68115-4.54644-33.64746-10.8313-34.12353-46.15625-44.74316-73.71784-21.97-14.87366,12.28955-22.50744,28.35815-22.61645,47.60815-.23713,41.86817-.42694,83.7417.03607,125.60547.10644,9.61817-1.50311,13.416-12.38013,13.1792-28.577-.6228-28.48834-.02392-28.61053-28.05908-.27771-63.70825-.56086-127.41675-1.183-191.12183-.05737-5.87622,1.00373-7.61743,7.0943-8.03369,28.67609-1.96069,28.657-2.1792,29.67688,26.41724.09168,2.56982.283,5.136.47162,8.47461,57.56525-55.291,101.28919-53.6438,137.27655,4.80273,6.98187-7.7832,12.33069-16.61084,19.97632-23.67309,42.06689-38.85791,105.535-22.60034,123.04016,31.82837,4.92664,15.31811,6.49786,31.13769,6.53961,47.11572.10578,40.50415-.18725,81.01147.24768,121.51147C781.27844,2220.63533,778.83478,2222.80452,770.47693,2222.83918ZM2326.30151,816.78206c1.79078-.293,3.5813-.57422,5.3711-.801,1.98755-2.53735,4.19067-4.949,6.37378-7.37231-2.18311,2.42334-4.38623,4.8352-6.37378,7.37255a78.75256,78.75256,0,0,1-4.88013,10.62574,78.75558,78.75558,0,0,0,4.88013-10.626c-1.7898.22681-3.58032.50806-5.3711.801-1.79077.29272-3.58154.59716-5.37182.87011C2322.72,817.37922,2324.51074,817.07478,2326.30151,816.78206Zm-1.854,13.88086c-.37866.61792-.7666,1.22949-1.15747,1.83911C2323.68091,831.89241,2324.06885,831.28059,2324.44751,830.66292Zm-2.77515,4.29736q-2.54553,3.75806-5.32446,7.34912c-4.81421,6.249-10.01538,12.19287-14.98144,18.16577q-4.3938,5.28442-8.78028,10.58032,4.38978-5.29248,8.78028-10.58032c4.96606-5.9729,10.16723-11.91675,14.98144-18.16577Q2319.11719,838.71431,2321.67236,834.96028Zm-125.98144-15.76123c38.16162-.71729,76.32715-1.18091,114.50659-.63281a56.66465,56.66465,0,0,0,8.04687-.5337,56.66465,56.66465,0,0,1-8.04687.5337c-38.17944-.54786-76.345-.08448-114.50659.63281q-14.3108.26916-28.62085.574Q2181.38013,819.47383,2195.69092,819.19905Zm42.376,113.84546q-4.82812,4.91931-9.80322,9.70947-11.73669,11.28479-23.72046,22.29272,11.99232-10.99182,23.72046-22.29272Q2233.24194,937.96687,2238.06689,933.04451Zm-128.238-112.12207q-14.3108.252-28.62232.43335c-13.81421.16943-27.62988.21679-41.446.21338,13.81616.00341,27.63183-.04395,41.446-.21338Q2095.51807,821.18037,2109.82886,820.92244Zm-122.89234,287.41284q-23.44116,11.39576-47.1477,22.21a26.21062,26.21062,0,0,1-10.49732,2.16113q-44.52191.16809-89.04455.10181,44.52246.01354,89.04455-.102a26.21057,26.21057,0,0,0,10.49732-2.16089Q1963.47717,1119.73177,1986.93652,1108.33528Zm52.80786-286.76611q-6.91075-.00185-13.82177-.01783Q2032.83374,821.566,2039.74438,821.56917Zm-81.85571-.08741c-5.09375-.03906-10.178-.19873-15.23913-.7C1947.71069,821.283,1952.79492,821.4427,1957.88867,821.48176Zm-813.10913,253.98145q55.94568.01941,111.89124.12622-55.94568-.09265-111.89124-.126-54.75366-.019-109.50757-.01367Q1090.02563,1075.44942,1144.77954,1075.46321ZM984.6991,2222.806c-24.26563-.10718-24.26722.25391-30.77472-28.71142C933.6095,2219.66,908.332,2229.53938,878.29,2227.57893c-28.67426-1.87109-50.92713-18.229-59.23956-42.918-9.08277-26.97656-1.1092-57.717,20.01611-75.95508,21.62005-18.665,48.04107-24.8413,75.42212-28.09179,9.92059-1.17774,19.92395-1.773,29.9079-2.25391,4.67877-.22534,7.38-.90259,7.53759-6.73584.72248-26.729-15.92944-46.22656-42.88781-48.968a100.257,100.257,0,0,0-57.98877,11.25855c-7.41248,3.92529-10.46955,3.73559-13.32715-4.99658-5.94562-18.168-6.56549-18.16626,10.74994-25.606a141.10887,141.10887,0,0,1,82.79-9.2959c33.43134,6.17847,55.06751,31.20728,59.44465,67.59107,4.1997,34.90991,1.81219,69.98584,1.982,104.98657.07282,15.00342-.622,30.08691,2.16327,44.81347C996.6911,2221.08772,993.56763,2222.845,984.6991,2222.806ZM1154.587,2027.32551c-.03382,4.87158-4.24378,3.51514-7.21851,3.58545-36.9469.87573-57.78064,19.57764-61.46374,56.83008-3.85486,38.9895-1.51783,78.16724-1.31617,117.24341.07056,13.68408-2.49341,18.8728-17.38891,18.011-24.17578-1.39819-24.16895-.37158-24.24805-24.46582-.21045-64.16406-.26416-128.33007-.98193-192.48877-.10059-8.99121,2.81445-10.34741,10.73706-10.34594,25.01281.00464,25.0321-.31153,25.47046,24.635.09936,5.6499.01464,11.303.01464,16.95483,8.84485-10.35254,14.07105-21.9104,24.16456-29.8977,6.08435-4.81519,12.09619-9.64478,19.60376-12.113,10.41406-3.42383,23.77905-9.43482,30.85546-1.05542C1159.4043,2002.02058,1154.66541,2016.04622,1154.587,2027.32551Zm215.00964,833.095a5.59438,5.59438,0,0,0,.96655,1.21631A5.59048,5.59048,0,0,1,1369.59668,2860.42048Zm2.11523,2.332c.27918-.73779.55835-1.47534.84766-2.22583-.54126-.62182-1.09277-1.23046-1.64429-1.83911l1.65454,1.82593C1372.27026,2861.27717,1371.99109,2862.01472,1371.71191,2862.75251Zm-43.90075-640.05444c-5.8158.12256-7.6117-4.07056-10.19678-7.66577-21.75476-30.25562-43.922-60.22876-64.99207-90.95459-6.64025-9.68335-9.63964-7.76294-16.52612-.52368-9.43457,9.91748-13.42847,20.34277-12.61133,34.08887,1.1034,18.564.02857,37.248.39478,55.87036.13257,6.74731-1.45947,9.42065-8.90808,9.77441-31.96472,1.51685-31.95154,1.79028-31.95154-30.42895,0-95.53052.2124-191.062-.26514-286.59034-.06054-12.14965,2.5791-16.54956,15.56324-16.00586,25.108,1.05079,25.14086.26441,25.14086,25.137v184.655c27.19275-31.91162,52.89319-61.17969,77.4314-91.3916,7.74622-9.53711,15.75879-13.5691,27.68774-12.48975,9.43433.85327,19.00733.17163,29.43775.17163-1.00293,6.99243-6.30518,10.2749-10.04773,14.27612-22.05981,23.582-44.11768,47.178-66.7384,70.217-6.36573,6.4834-6.61744,10.5918-1.0188,17.91529,29.81347,38.99951,58.99145,78.48462,88.38061,117.80835,1.00293,1.34179,1.91248,2.75341,4.18213,6.03784C1356.46411,2222.59944,1342.13232,2222.3968,1327.81116,2222.69807Zm50.7561,621.344c-.12073-.14478-.2511-.34327-.37439-.50733.12512.166.25671.36621.37683.5061Zm72.21668-32.63868h.00012c.06579.38477.17322.82007.29162,1.26819C1450.95728,2812.22346,1450.84973,2811.78816,1450.78394,2811.40339Zm124.3269-588.57251c-26.15332.794-26.12085,1.14063-28.46729-24.94775-.30737-3.41772-.97448-6.80322-1.87939-12.95117-13.25842,21.48193-30.49219,34.09106-52.2207,39.9563-38.80371,10.47509-79.78443-4.595-100.77222-39.21485-28.77148-47.45923-28.97839-97.10962-2.70264-145.34326,31.46924-57.76733,113.06812-67.14355,152.9264-15.20972,0-42.50341.3031-82.55859-.21973-122.603-.12586-9.63233,2.7489-12.22217,12.21838-12.15894,28.88965.19409,28.9292-.20752,28.98755,27.93237q.30579,147.45338.72119,294.90625C1583.73071,2219.951,1582.70593,2222.60042,1575.11084,2222.83088Zm35.17749-905.50048c-54.04248,30.103-112.14746,48.65478-173.00122,57.91357-29.8894,4.54785-60.20068,7.81836-90.65576,6.15112-10.61743-.5813-18.73316,2.626-22.76831,13.16529,13.13012.15039,26.25976.37158,39.39038.43554,20.50464.09961,24.22461,3.728,24.89282,24.4458.08679,2.69214.49353,5.37378.7522,8.06031a8.11886,8.11886,0,0,1,1.35693.11059c15.16626,3.8042,19.0044,15.05957,15.37329,46.10938-1.36291,11.65478-7.37134,17.77441-19.99536,17.03955-18.63147-1.08472-10.90259,13.26953-12.35046,22.18408,15.84729.26416,31.69421.55762,47.54211.78662,31.58362.45679,43.07739,9.41919,50.92871,39.78418,9.816,7.678,14.58032,17.84863,16.10645,30.15527,5.1615,41.61988,10.64233,83.20093,16.08374,124.78589,4.1593,31.78687-9.11328,47.00537-41.42578,47.01465q-196.29108.05714-392.58167-.11206c-9.88489-.0144-20.06189-.68677-29.58459-3.09985-15.9314-4.03711-21.3573-16.71631-22.351-31.89453-13.42553-7.68872-18.29064-19.75-16.57342-34.468,5.35455-45.89307,10.46-91.82861,16.85467-137.58106,2.90632-20.793,15.56739-31.88379,36.76966-33.62353,17.55835-1.44141,35.29443-.82764,52.95288-.91211,23.38269-.11182,23.38306-.02271,21.77515-23.16357-10.62806.93408-10.12-6.74415-11.58289-13.875-1.07947-5.26172-2.01892-10.37574-1.82019-15.71412-11.99634-.09619-17.036-6.3081-16.57056-18.08007.376-9.51246-.06714-19.05445.10279-28.57886.26318-14.73633,4.67236-19.23218,19.88574-19.29785,39.92309-.17261,79.85254-.40918,119.76782.17285,10.71631.15625,17.42554-2.73657,23.12061-12.28223,14.36059-24.07055,29.92138-47.42505,45.00122-71.0664-.499-15.63086,8.36657-29.57178,8.14892-45.15186q-14.11047,17.82093-28.2207,35.64185c-.7229-16.999,3.41089-32.53736,7.40246-48.051a662.76338,662.76338,0,0,1,69.4209-168.82593c1.75721-3.02124,2.768-6.47656,4.1261-9.72973,11.66516-17.23853,22.52149-35.09717,35.16675-51.584,25.01953-32.61963,48.62964-66.3164,77.52344-95.95361,42.92944-44.03443,89.11645-83.93482,140.608-117.61621,29.6012-14.59815,58.45178-30.70752,89.5387-42.25073a468.36729,468.36729,0,0,1,201.113-28.3938c9.6084.73388,10.91626,5.42529,8.80127,13.00708-1.54785,5.5498-4.89087,10.61255-4.43164,16.699,24.43213.46851,24.11585.39893,19.12915,23.02149-1.91308,8.67871-6.80932,16.688-5.958,25.98046a87.23573,87.23573,0,0,0,10.06824,1.81275,87.24036,87.24036,0,0,1-10.06824-1.81275c-5.73584,16.98536-11.6864,33.9021-17.15722,50.97242-7.96875,24.86352-7.82129,24.91088-34.32642,25.43994a42.62744,42.62744,0,0,0-5.86719,17.10473c2.47864,7.77832,9.14258,4.78736,13.86182,4.58374,9.20483-.397,10.9187,2.55811,7.92529,10.99122-13.03442,36.72216-26.90283,73.115-43.19922,108.51318-14.801,32.14941-31.71093,63.22925-49.459,93.84741a6.63465,6.63465,0,0,0,4.50757,2.50366,6.63384,6.63384,0,0,1-4.50733-2.50293c-17.41027,23.0398-32.41748,47.78736-51.13525,69.93946-19.00537,22.49243-39.05078,43.81762-61.37939,63.01782-5.24952,4.51391-10.621,4.03906-16.4878,1.95825-27.30371-9.68408-55.43676-16.10718-83.82275-21.6709-6.82129-1.33716-13.46729-1.2605-20.24243-1.0393,18.04321,8.29956,36.08813,16.59985,54.5498,25.092-4.752,6.62671-13.34594,7.324-18.30395,12.99731,9.73633,9.19385,23.52868,10.78858,35.63427,19.28491C1630.13989,1305.82673,1620.30884,1311.74885,1610.28833,1317.3304Zm63.35449,1376.03515c-10.64258-1.2417-14.40381-9.03979-15.29321-18.009-.72449-7.304,4.30493-13.14844,11.39722-12.269,9.89013,1.22583,13.56457,9.853,14.72546,18.83154C1685.44788,2689.46516,1680.19165,2692.1866,1673.64282,2693.36555Zm59.84961-35.42724c-10.3031-.96656-14.62646-8.71094-15.5105-17.624-.79028-7.96826,4.82325-13.42773,12.46265-12.53149,9.85522,1.15625,13.36731,9.34033,14.58972,16.85034C1744.62585,2653.58894,1741.48071,2658.68757,1733.49243,2657.93831Zm88.76257-50.49341c-8.10107.31079-16.213-9.59131-15.94824-18.94507.22254-7.86865,4.67847-12.30762,12.07093-11.31323,10.1687,1.36816,13.527,9.36181,14.53027,17.61255C1832.50342,2602.59578,1829.4624,2607.16853,1822.255,2607.4449Zm-44.11145-391.25c-80.11962,35.48364-164.70459-13.93653-157.62524-116.28589,5.35376-77.405,72.38892-124.769,144.58106-104.08179,46.10668,13.2124,75.79321,57.49072,75.4104,126.70264C1839.84741,2155.99885,1823.749,2195.9969,1778.14355,2216.1949ZM2169.4292,2019.827c-20.34766,63.03735-40.95166,125.99414-60.83569,189.17749-3.17554,10.09057-6.83423,14.54419-18.3833,13.96362-22.93067-1.15137-23.0691-.283-29.9314-22.02563-15.97168-50.60547-34.02075-100.58863-45.77149-152.46412-.36474-1.61059-1.38867-3.07153-3.4862-7.55175-11.47132,52.239-28.97791,99.563-45.10425,147.32592-2.46692,7.30738-5.78748,14.42554-7.34729,21.91578-2.06567,9.92138-7.31494,12.49755-17.07239,12.22876-23.931-.6587-24.10437-.11158-31.26965-23.71412-19.24341-63.39111-38.15015-126.885-57.68091-190.187-3.13855-10.1726-2.00513-13.12964,9.43042-12.89575,28.76.58887,28.719.03711,35.73157,27.43579q19.86382,77.61108,39.83362,155.19434c16.62378-55.92383,35.82275-110.63721,53.27258-165.89551,1.785-5.65234,1.23657-14.65674,8.1062-15.87207,9.67871-1.7124,19.984-.98877,29.86768.09351,4.07116.446,4.14038,6.38476,5.2467,10.13794,16.54981,56.13549,36.1648,111.36718,49.69238,168.397.38672,1.62939,1.57154,3.06933,3.43482,6.5747,11.968-59.14868,30.20849-114.488,44.84082-170.79394,3.05371-11.751,7.46484-15.917,19.94189-15.3418C2177.10083,1996.68977,2177.16089,1995.87361,2169.4292,2019.827Zm5.89673-1028.94727q-4.94715,4.2052-9.95069,8.335-12.51012,10.32239-25.40283,20.1167-7.741,5.86671-15.636,11.51367-5.26465,3.76245-10.6023,7.41846,5.33826-3.65478,10.6023-7.41846,7.897-5.6433,15.636-11.51367,12.90125-9.7782,25.40283-20.1167,5.00391-4.12866,9.95069-8.335,12.368-10.51245,24.40893-21.45019Q2187.68506,980.351,2175.32593,990.87971Zm221.2854,1224.85572c.12158,5.52075-2.45459,6.53784-7.39575,7.00195-34.14478,3.20556-33.898,3.31982-34.19751-30.64673-.32911-37.2937,1.52441-74.61963-1.12452-111.87842-2.43017-34.18384-19.26367-53.26709-47.44433-54.40283-31.13159-1.25464-56.25855,19.13745-60.23389,51.05566-3.7727,30.28833-.87451,60.88794-1.40942,91.34473-.25562,14.55566-.447,29.13525.11474,43.67358.30811,7.97266-1.44653,11.87549-10.35888,10.88135a90.133,90.133,0,0,0-20.4397.00562c-9.564,1.13354-11.00024-3.22754-10.95508-11.5979.30249-55.96363.19727-111.92993.06079-167.895-.03222-13.18531-.35717-26.39087-1.209-39.54419-.38892-6.00611,1.23706-8.59741,7.30932-7.85718a8.2312,8.2312,0,0,0,1.36377.00171c26.28077-1.20142,26.25928-1.19971,28.76514,24.6416.30127,3.10864.98291,6.18018,1.95093,12.09619,21.031-30.93017,48.37378-43.718,82.19189-41.43994,36.66846,2.46973,65.54859,31.32105,70.30249,71.83106C2399.85547,2113.73469,2395.48877,2164.82063,2396.61133,2215.73543Z"/><path class="cls-6" d="M1564.07849,1241.11116q1.50109.38013,2.99988.75952C1566.36731,1240.47078,1565.42236,1240.00276,1564.07849,1241.11116Z"/><path class="cls-6" d="M1541.845,2083.88508c-1.77417-30.24756-20.882-53.27636-49.04248-59.55566-25.813-5.75635-54.68921,7.30273-67.50366,32.61548-16.99878,33.57837-16.93225,68.69385-2.15833,102.761,10.35755,23.884,30.50342,35.0503,57.0177,33.91333,27.365-1.17358,46.09326-14.48437,56.762-39.49609,6.27624-14.71338,5.11108-30.26685,5.00488-45.69165C1541.91724,2100.25032,1542.32336,2092.04182,1541.845,2083.88508Z"/><path class="cls-6" d="M1731.56763,2022.15413c-26.781-.3003-45.99561,11.91894-58.47193,35.21508-8.56848,15.99976-11.80883,33.26343-11.43359,51.2483-.058,22.866,4.78491,44.32592,18.79712,62.85571,24.905,32.93359,72.33154,33.8999,97.37854,1.07129,27.38733-35.89624,26.47034-75.22071,8.68494-114.59156C1776.20044,2035.10286,1757.51367,2022.44514,1731.56763,2022.15413Z"/><path class="cls-6" d="M945.82117,2107.3636c-22.90961-.23584-45.54419.98926-66.281,12.09936-19.95441,10.69165-28.05664,32.22046-20.58667,53.45581,6.56775,18.67041,25.1239,27.561,47.96069,22.97876,30.14826-6.04907,45.45142-27.78686,45.4488-64.56616-.00452-5.45581-.16614-10.918.04412-16.36572C952.59119,2110.1927,951.57556,2107.42293,945.82117,2107.3636Z"/><path class="cls-4" d="M1673.64285,2693.36546c-10.64259-1.24162-14.40388-9.03978-15.29324-18.00905-.72449-7.30387,4.30491-13.14841,11.39725-12.269,9.89009,1.226,13.56454,9.85314,14.72545,18.83174C1685.44785,2689.465,1680.19157,2692.18669,1673.64285,2693.36546Z"/><path class="cls-4" d="M1832.9079,2594.79922c-.40442,7.7965-3.44556,12.3694-10.65292,12.64563-8.101.31074-16.21294-9.59124-15.94821-18.94493.22254-7.86868,4.67849-12.30772,12.07089-11.31332C1828.54631,2578.55475,1831.90469,2586.54829,1832.9079,2594.79922Z"/><path class="cls-4" d="M1745.0343,2644.63306c-.40842,8.95576-3.55359,14.05445-11.54178,13.30511-10.30318-.96639-14.6266-8.71087-15.51062-17.62379-.79033-7.96837,4.82319-13.42781,12.46264-12.5316C1740.29979,2628.93905,1743.81187,2637.12313,1745.0343,2644.63306Z"/><path class="cls-3" d="M1358.39111,2798.98665l15.22022,15.418c3.33594,3.38672,6.42969,6.52149,9.22656,9.82618l.22266-.127c-1.2793-4.084-2.31836-8.60547-3.35743-13.125l-4.71289-21.59472,5.46094-3.15723,15.86133,14.6543c3.80273,3.51172,7.01172,6.67773,9.91406,9.82226l.22266-.1289a124.08185,124.08185,0,0,1-3.9707-13.16211l-5.2793-20.873,6.41992-3.71289,9.14453,42.36719-5.90234,3.41406L1391.543,2804.723a138.06388,138.06388,0,0,1-9.959-9.89648l-.14648.084a121.6985,121.6985,0,0,1,3.58008,13.6836l4.0625,20.29883-5.9043,3.41406-31.42529-29.48047Z"/><path class="cls-3" d="M1413.58008,2767.06477l15.2207,15.419c3.33789,3.38671,6.42969,6.5205,9.22852,9.82519l.2207-.127c-1.2793-4.084-2.31836-8.60547-3.35742-13.125l-4.71094-21.59375,5.459-3.1582,15.86133,14.65429c3.80274,3.51172,7.01367,6.67774,9.916,9.82227l.2207-.12793a124.17271,124.17271,0,0,1-3.9707-13.16309l-5.27735-20.873,6.418-3.7129,9.14453,42.36817-5.90234,3.41406-15.31836-13.88574a137.446,137.446,0,0,1-9.957-9.89649l-.14844.08594a122.05155,122.05155,0,0,1,3.582,13.68164l4.06055,20.29883-5.90234,3.41406-31.42774-29.48047Z"/><path class="cls-3" d="M1468.77148,2735.1429l15.21875,15.41992c3.33789,3.38672,6.42969,6.51953,9.22852,9.82617l.2207-.12891c-1.27929-4.084-2.31836-8.60351-3.35547-13.124l-4.71289-21.59473,5.46094-3.1582,15.85938,14.6543c3.80468,3.51172,7.01367,6.67773,9.916,9.82226l.22266-.12695a123.80512,123.80512,0,0,1-3.9707-13.16406l-5.2793-20.873L1514,2708.98274l9.14453,42.36914-5.90234,3.41406-15.31836-13.88672a137.66236,137.66236,0,0,1-9.959-9.89648l-.14648.08594a121.66829,121.66829,0,0,1,3.58008,13.68164l4.06054,20.2998-5.90234,3.41406-31.42578-29.47949Z"/><path class="cls-3" d="M1534.502,2739.66047a5.03989,5.03989,0,0,1,1.74024-7.209c2.582-1.49316,5.46093-.59766,7.041,2.13086,1.53711,2.65625.99219,5.63086-1.73828,7.209C1538.96289,2743.28547,1536.03906,2742.31672,1534.502,2739.66047Z"/><path class="cls-3" d="M1539.332,2709.19758c-2.43164-4.20507-4.5957-7.77734-6.73828-10.96875l5.68164-3.28711,4.27539,6.88282.29492-.17188c-1.15039-5.73437,1.00977-11.02148,5.36328-13.53906a8.06229,8.06229,0,0,1,1.97266-.8457l3.543,6.123a11.20632,11.20632,0,0,0-2.3418,1.05957c-4.57422,2.64551-5.8164,7.99121-3.88476,13.37207a21.09443,21.09443,0,0,0,1.45507,3.19727l11.00977,19.03516-6.418,3.71289Z"/><path class="cls-3" d="M1572.94531,2713.68391a19.64928,19.64928,0,0,0,10.05274-2.36719c4.72265-2.73046,5.57031-6.37207,3.86328-9.32421-1.793-3.09864-4.61914-3.72852-10.43945-2.72657-7.74219,1.42578-12.81446-.36523-15.291-4.64453-3.32813-5.75586-1.41211-13.166,6.26172-17.60351a20.59749,20.59749,0,0,1,10.06054-2.86524l1.10743,5.66016a16.06075,16.06075,0,0,0-8.498,2.1582c-3.83789,2.2207-4.69531,5.67188-3.16016,8.32813,1.707,2.95117,4.61524,3.041,10.28711,2.123,7.56446-1.22265,12.5293.041,15.60157,5.35352,3.627,6.27148,1.31836,13.51562-7.168,18.42285a23.53992,23.53992,0,0,1-11.44141,3.37012Z"/><path class="cls-3" d="M1588.125,2652.42219l5.93164,10.25586,9.29688-5.37695,2.85937,4.94336-9.29687,5.377,11.13671,19.25781c2.56055,4.42774,5.26758,6.21094,8.88282,4.11914a16.60748,16.60748,0,0,0,3.50586-2.61914l3.11132,4.69922a18.36011,18.36011,0,0,1-5.24218,4.21485c-3.02539,1.75-6.01563,2.19726-8.58985,1.32422-2.95312-.85352-5.45312-3.64063-7.88476-7.84668l-11.26563-19.47852-5.53515,3.2002-2.85743-4.94336,5.53321-3.2002-4.95117-8.55957Z"/><path class="cls-3" d="M1655.56055,2661.765c2.13476,3.68945,4.08593,6.89355,5.92968,9.56933l-5.75585,3.32813-3.74024-5.61524-.14844.084a15.51557,15.51557,0,0,1-7.96289,13.46875c-5.60742,3.24414-14.11523,4.02734-21.36914-8.51563l-12.07812-20.8789,6.49414-3.75586,11.43554,19.77343c3.92774,6.78711,8.63868,10.168,14.541,6.75391a10.84224,10.84224,0,0,0,5.14453-10.85352,10.961,10.961,0,0,0-1.33008-3.6621l-12.67382-21.91211,6.49218-3.75586Z"/><path class="cls-3" d="M1672.50977,2595.04817l24.96484,43.16406c1.83594,3.17285,4,6.74512,5.62891,9.05176l-5.82813,3.37109-3.88086-6.02734-.14648.08594c.3125,5.13672-2.291,10.67968-8.1211,14.05078-8.63086,4.99219-19.498,1.5293-25.76953-9.31641-6.94531-11.83594-3.791-23.4082,4.91406-28.44433,5.46094-3.15723,10.64258-2.71,13.93164-.77051l.14649-.08594-12.332-21.32422Zm11.55859,34.96582a13.2185,13.2185,0,0,0-1.875-2.55859,11.0291,11.0291,0,0,0-13.72266-2.10645c-6.71484,3.88379-7.28515,12.09082-2.71875,19.98535,4.18164,7.23047,11.17969,11.15918,18.18946,7.10547a11.27471,11.27471,0,0,0,5.03711-13.25195,12.98369,12.98369,0,0,0-1.32422-2.97461Z"/><path class="cls-3" d="M1694.35352,2591.27571a4.64512,4.64512,0,0,1-8.041,4.65234,4.5701,4.5701,0,0,1,1.71094-6.40625A4.45108,4.45108,0,0,1,1694.35352,2591.27571Zm19.22851,49.92773-20.6543-35.71093,6.49219-3.75586,20.65625,35.71093Z"/><path class="cls-3" d="M1752.666,2594.37532c7.63867,13.207,1.81836,24.2539-6.81446,29.24707-9.666,5.59082-21.21484,2.81738-27.74414-8.47168-6.91406-11.95117-3.14648-23.48535,6.74024-29.20313C1735.10352,2580.015,1746.34961,2583.4554,1752.666,2594.37532Zm-28.11914,16.75586c4.52343,7.82129,12.4375,11.12109,18.7832,7.45117,6.19726-3.584,7.47461-12.10352,2.82422-20.14453-3.5-6.05078-10.96289-11.97461-18.63672-7.53711C1719.84375,2595.34016,1720.61914,2604.34309,1724.54688,2611.13118Z"/><path class="cls-3" d="M1765.81641,2605.87141a5.04069,5.04069,0,0,1,1.73828-7.209c2.582-1.49414,5.46289-.59961,7.041,2.13086,1.53711,2.65625.99219,5.62988-1.73828,7.209C1770.27539,2609.49641,1767.35352,2608.52766,1765.81641,2605.87141Z"/><path class="cls-3" d="M1809.54492,2583.92805a27.657,27.657,0,0,1-9.06054,7.99805c-10.77344,6.23047-22.00782,2.98047-28.32422-7.94141-6.35743-10.99218-3.44141-23.31445,8.21679-30.05664a25.05372,25.05372,0,0,1,10.06836-3.36133l1.42578,5.8711a17.36945,17.36945,0,0,0-8.50586,2.65429c-8.1914,4.73829-9.11914,13.34961-4.80859,20.80079,4.7793,8.26367,13.03711,10.28125,20.11914,6.18554a21.31629,21.31629,0,0,0,6.94531-6.38086Z"/><path class="cls-3" d="M1839.28906,2544.27376c7.63867,13.207,1.81836,24.2539-6.81445,29.24609-9.666,5.59082-21.21484,2.81836-27.74414-8.4707-6.91211-11.95313-3.14649-23.48633,6.74023-29.20508C1821.72852,2529.91243,1832.97266,2533.35383,1839.28906,2544.27376Zm-28.11914,16.75585c4.52344,7.82032,12.43946,11.1211,18.7832,7.45118,6.19922-3.58594,7.47461-12.10352,2.82422-20.14453-3.5-6.05079-10.96289-11.97461-18.63672-7.53711S1807.24414,2554.24055,1811.16992,2561.02961Z"/><path class="cls-3" d="M1842.91406,2531.64094c-2.13476-3.68945-3.957-6.67187-5.88476-9.49414l5.67968-3.28711,3.625,5.584.22071-.127c.02929-4.54687,1.51367-9.63964,7.418-13.05371a12.19433,12.19433,0,0,1,14.24609,1.30957l.14844-.085a16.99749,16.99749,0,0,1,1.29492-6.95215,14.08149,14.08149,0,0,1,6.44336-7.07421c4.72265-2.73243,13.52539-3.6875,20.69531,8.708l12.16211,21.02832-6.3457,3.66993-11.69336-20.2168c-3.96875-6.86133-8.86719-9.542-14.10547-6.51172-3.68945,2.13281-4.98828,6.52734-4.25977,10.33984a12.30841,12.30841,0,0,0,1.36133,3.54493l12.75977,22.0625-6.34571,3.66992-12.375-21.39844c-3.2871-5.67969-8.18554-8.36133-13.1289-5.50195-4.05664,2.34765-5.13086,7.30078-4.28711,11.14453a10.39648,10.39648,0,0,0,1.31836,3.4707l12.46289,21.54492-6.3457,3.66992Z"/></svg>