<svg height="60" viewBox="-4.26 -5.6 120 60" width="120" xmlns="http://www.w3.org/2000/svg"><g fill="#d77310"><g><path d="m14.583 43.052-1.496-2.052c-.597-1-.96-2.113-1.193-3.256-.1-.556.04-.728.627-.728h4.793c.586 0 .688.13.576.738-.313 1.78-1.02 3.367-2.235 4.722-.162.182-.293.384-.445.576zm9.82-15.774c-.03 3.63-.526 6.522-1.82 9.242-.354.748-.445.78-1.163.374-.06-.03-.13-.06-.182-.1-1-.8-2.154-.87-3.377-.84h-7.08c-.586-.01-1.092.1-1.557.455-.243.172-.506.293-.758.445-.83.495-.85.495-1.264-.394-.647-1.385-1.082-2.83-1.395-4.338-.546-2.62-.506-5.238-.152-7.857.222-1.68.667-3.317 1.203-4.924.93-2.8 2.235-5.4 3.782-7.908 1.173-1.9 2.447-3.7 3.863-5.4.354-.425.556-.313.84.04 1.82 2.235 3.448 4.6 4.854 7.12 1.547 2.78 2.8 5.693 3.5 8.807.435 1.952.8 3.913.718 5.3zm-9.475 6.3h5.572c.344 0 .556-.07.677-.465.506-1.598.728-3.246.8-4.914.142-3.387-.475-6.654-1.7-9.8-1.234-3.195-2.922-6.128-5.005-8.838-.283-.364-.506-.293-.738.01-.526.708-1.092 1.395-1.567 2.144-1.87 2.932-3.418 6.027-4.318 9.414-.536 2.012-.9 4.075-.9 6.148-.01 1.94.313 3.853.85 5.723.12.435.324.576.758.576l5.582.01zm-11.326 3.55h-1.872c-.303 0-.516-.1-.465-.455l.354-2.154c.12-.84.8-1.264 1.304-1.82.303-.334.657-.607 1-.9.1-.1.212-.202.364-.142.162.06.172.202.182.344.1 1.648.586 3.195 1.385 4.64.212.374.05.506-.324.506l-1.93-.01zm22.538 0h-1.82c-.475-.01-.556-.162-.334-.576.637-1.193 1.112-2.447 1.234-3.812a2.19 2.19 0 0 1 .131-.506c.08-.202-.06-.526.192-.607.253-.07.404.212.576.364l1.284 1.213c.506.404.718.94.78 1.517.07.637.263 1.244.313 1.88.03.374-.08.516-.445.516l-1.9.01zm-10-6.554c-.01-.243.06-.506.1-.8.07-.475-.313-.88-.738-.738-1.072.364-2.012.01-2.943-.435-.495-.243-.495-.253-.576.324-.08.627-.374 1.143-1 1.355s-1.234.1-1.7-.445a1.44 1.44 0 0 1 -.182-1.598c.273-.536.96-.95 1.476-.9.637.08.718-.08.566-.718-.202-.87-.233-1.75.192-2.6.293-.576.182-.92-.404-1.224-.142-.07-.283-.12-.425-.182-.556-.233-.9-.86-.78-1.385.13-.556.748-1.042 1.294-1.02.607.02 1.122.495 1.193 1.092.01.12 0 .243.02.364.08.526.506.738 1 .556.9-.334 1.8-.445 2.73-.06.506.212.77.01.738-.526-.06-1.092.657-1.992 1.7-2.134.92-.12 1.86.576 2.103 1.567.273 1.112-1.102 2.397-2.265 2.113-.182-.04-.354-.172-.516.04s-.04.394.06.576c.627 1.122.657 2.275.04 3.377-.384.677-.1 1.092.647 1.082 1.355-.03 2.376 1 2.397 2.295.02 1.355-1.052 2.467-2.366 2.457-1.294-.01-2.346-1.092-2.346-2.467zm1.153-5.066c0-1.416-1.203-2.67-2.58-2.65-1.577.02-2.67 1.153-2.7 2.63-.03 1.395 1.254 2.66 2.65 2.66 1.456-.01 2.63-1.183 2.64-2.64zm-3.55.192c-.02.222-.243.415-.607.384a.5.5 0 0 1 -.516-.586c.03-.374.283-.556.627-.546.364.02.526.243.495.748z"/><path d="m14.583 26.105c-.313-.04-.566-.212-.586-.536-.02-.354.233-.566.576-.597s.576.172.586.516-.222.546-.576.617zm1.397 0c-.374-.02-.576-.273-.607-.566-.03-.374.253-.556.597-.576.324-.01.536.182.546.506.02.364-.222.556-.536.637z"/></g><path d="m38.512743 17.404458c.49397 0 .921047.06517 1.317253.229833.396204.164657.723802.343034.987938.658625.275009.269679.488554.595553.626038.955351.144743.367414.222584.757763.229833 1.152596 0 .626038-.132068 1.20062-.39449 1.646565-.26242.445945-.691213.823283-1.317251 1.053116v.0343c.263217.06072.51015.177741.723802.343035.197245.145789.343035.343034.463097.591734.132068.229833.197245.463097.264136.754676.06552.269543.09892.54589.09948.823282 0 .164657.0343.343034.0343.591734s.0343.463097.06518.723803l.132068.691214c.04705.203127.137129.393797.264136.559147h-2.353215c-.132069-.329314-.197245-.754676-.229833-1.200621l-.132069-1.34984c-.06518-.559147-.264136-.98794-.526557-1.252076-.262422-.264136-.691215-.39449-1.282949-.39449h-2.370367v4.212463h-2.435545v-10.814157zm-.857586 4.905392c.559146 0 .955351-.132069 1.200621-.343035.245269-.210966.394489-.626038.394489-1.20062 0-.526558-.132068-.921048-.394489-1.152596-.262422-.231548-.691215-.343034-1.200621-.343034h-2.579619v3.061581zm5.762978.295009c.197245-.49397.463096-.955351.823283-1.317252.360186-.361901.788979-.626038 1.282949-.823283.493969-.197245 1.053115-.296724 1.680868-.296724.574068-.0089 1.144568.09174 1.680869.296724.479868.182974.916678.463281 1.282949.823283.367406.373633.64843.823272.823281 1.317252.197245.493969.296725 1.085704.296725 1.711741.006.583875-.09458 1.163945-.296725 1.711743-.183853.479424-.464051.916064-.823281 1.282948-.343035.343034-.78898.626038-1.282949.823282-.49397.197245-1.053116.296725-1.680869.296725-.574068.0089-1.144569-.09174-1.680868-.296725-.47987-.182974-.91668-.463279-1.282949-.823282-.343035-.343035-.626038-.78898-.823283-1.282948-.197245-.49397-.296725-1.085705-.296725-1.711743 0-.626037.09948-1.20062.296725-1.711741zm1.972448 2.632789c.05855.276995.158584.543563.296725.790695.132068.229832.329313.428793.591734.559145.229833.132068.559146.197245.921047.197245.361902 0 .658627-.06517.921047-.197245.262422-.132068.463097-.329313.591735-.559145.128638-.229834.264137-.49397.296725-.78898.06728-.302365.10065-.611289.09948-.921047.0011-.309759-.03219-.618681-.09948-.921047-.05856-.276996-.158584-.543565-.296725-.790695-.132068-.229833-.329313-.428793-.591735-.559146-.284216-.149168-.600068-.227986-.921047-.229832-.343035 0-.658626.06517-.921047.229832-.229833.132068-.428794.329313-.591734.559146-.132069.229834-.264137.49397-.296725.788979-.130491.607677-.130491 1.236134 0 1.84381zm11.011404-3.456071c-.329312 0-.626037.06517-.857586.229832-.227588.153783-.418495.355812-.559146.591735-.132068.264137-.264136.526557-.296724.823282-.06558.291618-.09895.589558-.09948.88846.000979.288682.03436.576344.09948.857585.05855.276995.158584.543564.296724.790695.132069.229833.329314.428793.559146.591734.229833.162942.526558.229833.857586.229833.526558 0 .921048-.132068 1.20062-.428793.291388-.319909.475492-.722897.526559-1.152596h2.058206c-.132068 1.053116-.559146 1.843811-1.200621 2.370368-.658626.559147-1.514496.823283-2.567612.823283-.551539.0062-1.099044-.09462-1.612262-.296725-.49397-.197245-.921047-.463097-1.252076-.823283-.331028-.360186-.626038-.788979-.788979-1.252076-.202091-.513216-.302856-1.060721-.296724-1.612261-.000532-.570104.08861-1.136745.264136-1.679153.157762-.504098.428151-.965695.790694-1.34984.343035-.39449.754676-.658626 1.252076-.88846.543868-.219596 1.125219-.33144 1.711742-.329313.457234-.0015.912153.06497 1.349841.197245.428793.132068.823281.296725 1.152595.559146.329313.262421.626037.559146.823282.921047.217431.406476.340537.856697.360186 1.317253h-2.106231c-.197245-.921048-.723802-1.382429-1.646565-1.382429zm7.306633-4.377119v5.79385l2.69968-2.830033h2.535024l-2.960385 2.843755 3.293129 4.970568h-2.6002l-2.13882-3.48866-.823283.78898v2.69968h-2.138819v-10.829595h2.138819zm8.627315 8.918894c.329313.329313.78898.463097 1.382429.463097.428793 0 .823282-.09948 1.118292-.329313.329313-.229834.49397-.463097.559145-.691215h1.907272c-.296724.955351-.754676 1.612262-1.382428 2.006752-.627754.394488-1.382429.591733-2.270888.591733-.626038 0-1.200621-.09948-1.680869-.296724-.477271-.186688-.905541-.480024-1.252075-.857586-.331028-.363616-.591734-.788979-.788979-1.317253-.197245-.493968-.296725-1.053115-.296725-1.680867-.0034-.562454.09716-1.120694.296725-1.646566.197245-.49397.463096-.955351.823283-1.317252.358931-.361769.783214-.65219 1.25036-.855871.51099-.213247 1.058574-.325093 1.612261-.329313.658627 0 1.252076.132068 1.74433.39449.492254.262421.888459.591734 1.20062 1.053115.334073.438647.569816.944064.691215 1.481909.132068.560861.197245 1.152595.164656 1.74433h-5.660068c.06517.788979.264138 1.282949.559147 1.577958zm2.435544-4.116413c-.264136-.296725-.658626-.428793-1.200621-.428793-.329312 0-.626036.06517-.857585.164656-.205409.116238-.393604.260564-.559146.428793-.134144.165429-.23491.355327-.296725.559147-.0686.216111-.09948.343034-.09948.526558h3.486944c-.01424-.462073-.18885-.904779-.49397-1.252076zm8.261984-1.807791v1.447605h-1.577959v3.850561c0 .343035.06517.591735.197245.723803.132068.132068.343035.197244.723803.197244h.343034c.09948 0 .229833-.0343.329313-.0343v1.680869c-.197245.0343-.394489.06517-.591734.06517h-.658626c-.319406-.0041-.638339-.02592-.955351-.06517-.27893-.03271-.548109-.122637-.790694-.264139-.229833-.132068-.394489-.329313-.526557-.559146-.132069-.229833-.197245-.559147-.197245-.955352v-4.608666h-1.317253v-1.447606h1.317253v-2.33778h2.138818v2.33778h1.547086zm4.606951-2.99469 2.535025 7.4387h.0343l2.40124-7.4387h3.356592v10.829596h-2.2383v-7.67025h-.0343l-2.665378 7.67025h-1.840379l-2.665377-7.603359h-.0343v7.603359h-2.240016v-10.829596zm17.872086 10.43339c-.7238.428794-1.57795.626038-2.63278.626038-.82328 0-1.57796-.132068-2.2383-.428793-.6335-.278528-1.204531-.681574-1.679151-1.185183-.4631-.49397-.788983-1.085705-1.053119-1.776918-.239215-.710757-.360873-1.455778-.360186-2.205711-.0017-.760719.119204-1.516738.360186-2.2383.224875-.668775.58314-1.284954 1.053119-1.811221.46071-.523907 1.03586-.934721 1.680861-1.200621.66035-.279573 1.41502-.428793 2.23831-.428793.82328 0 1.57795.132068 2.2383.428793.66033.296725 1.20062.691215 1.68086 1.200621.45782.534993.81465 1.148694 1.05311 1.811221.23917.721995.36077 1.477725.36019 2.2383-.00023.749857-.12178 1.494734-.36019 2.205711-.22811.691213-.59172 1.282948-1.05311 1.776918l1.34983 1.20062-1.11828 1.152596zm-.34303-2.50415c.19725-.264136.34303-.626038.49397-1.020528.15093-.394489.19725-.888459.19725-1.481908 0-.463097-.0652-.921048-.16466-1.38243-.0995-.428792-.26414-.857585-.49396-1.200619-.22336-.355698-.54262-.64108-.92106-.823283-.34303-.197245-.82328-.296725-1.34983-.296725-.52656 0-.98794.09948-1.34985.296725-.36524.201351-.68014.482821-.92104.823283-.22984.343034-.39449.754676-.49397 1.200619-.0995.445945-.16466.88846-.16466 1.38243 0 .463096.0652.888458.16466 1.317251.0995.428793.26413.823283.49397 1.152596.23289.347525.54968.630687.92104.823283.34304.197244.82329.296725 1.34985.296725.26414 0 .46309 0 .55914-.0343.096-.0343.26413-.06517.39449-.09948l-1.02053-.921047 1.11829-1.200621z" stroke-width="1.715172"/></g></svg>