<svg id="Layer_1" data-name="Layer 1" xmlns="http://www.w3.org/2000/svg" viewBox="0 0 300 372.37017"><defs><style>.cls-1{fill:#015e42;}.cls-2{fill:#dbd6d0;}.cls-3{fill:#015d41;}.cls-4{fill:#005a3f;}.cls-5{fill:#001c13;}.cls-6{fill:#020202;}.cls-7{fill:#fefefe;}</style></defs><path class="cls-1" d="M121.42831,3.479c-.215-.05465-.40818-.18391-.2298-.39412.16213-.19106.36043-.01953.50976.12224C121.61861,3.30018,121.525,3.39123,121.42831,3.479Z"/><path class="cls-2" d="M249.40776,125.59481c.01575.65114.04532,1.30225.04532,1.95339q.0032,79.61795-.00048,159.23589c-.00009,1.96967.21308,1.76487-1.76469,1.76461q-17.99185-.00243-35.98372-.01714c.00913-.28525.02625-.57053.02626-.85578q.002-35.38557-.001-70.77113c-.00006-.53-.036-1.06-.05511-1.58994a2.7408,2.7408,0,0,0-.34375-2.07427c-9.74471-13.72405-19.7521-27.25952-29.35956-41.083-5.676-8.16681-11.60089-16.16076-17.42156-24.2269q-7.5138-10.41246-15.0446-20.81266a36.25669,36.25669,0,0,1,1.01264-5.76692c2.88614-12.51252,8.32792-23.6747,18.36875-31.96268,14.93658-12.32905,31.622-15.03834,49.5016-7.31815,12.78356,5.51978,20.99726,15.6533,26.41116,28.24122A85.84271,85.84271,0,0,1,249.40776,125.59481Zm-56.874,15.23688a11.81329,11.81329,0,1,0-11.81346-11.875A11.90706,11.90706,0,0,0,192.53379,140.83169Z"/><path class="cls-2" d="M87.11094,288.53165q-18.35941.00964-36.71879.03361c-.80016.00176-1.13453-.2445-1.03674-1.04719a7.12676,7.12676,0,0,0,.00515-.85614q-.00063-80.10909.00069-160.2182c0-.284.02937-.56806.045-.85207.15118-.62883.31433-1.25505.45177-1.88687,2.4314-11.1763,6.90124-21.33628,14.57214-29.9925a46.54133,46.54133,0,0,1,61.66372-7.36669c10.44521,7.30539,16.91837,17.46106,20.71887,29.4553a55.65442,55.65442,0,0,1,2.48225,11.30818,1.72866,1.72866,0,0,0-.2625.24389c-11.04,15.56408-22.407,30.89234-33.33068,46.54215-9.167,13.13316-18.63867,26.05382-28.00659,39.04612a2.81016,2.81016,0,0,0-.55361,2.37377c-.01923.734-.05517,1.46807-.05528,2.20209q-.00444,32.63057-.00118,65.26114C87.08536,284.696,87.102,286.61386,87.11094,288.53165Zm20.6946-171.16226a11.77064,11.77064,0,1,0,10.26132,11.80449,10.33055,10.33055,0,0,0-3.59073-8.44524c-.35883-.47883-.50712-1.06518-.9198-1.53648A5.65773,5.65773,0,0,0,107.80554,117.36939Z"/><path class="cls-3" d="M149.29537,127.10877a55.67892,55.67892,0,0,0-2.48258-11.30787c-3.8005-11.99424-10.27366-22.14991-20.71887-29.4553A46.54133,46.54133,0,0,0,64.4302,93.71229c-7.6709,8.65622-12.14074,18.8162-14.57214,29.9925-.13744.63182-.30059,1.258-.45177,1.88687a93.5109,93.5109,0,0,1,4.12962-27.57987C60.66559,74.68446,74.15892,55.99336,94.42829,42.3A98.73556,98.73556,0,0,1,130.095,27.51741c.312-.06464.6336-.08283,1.08754-.13988-3.18653-5.93929-6.32829-11.79515-9.47007-17.651a.74743.74743,0,0,0,.14505-.14191c4.346,2.30271,8.48434,4.96044,12.72266,7.44715,3.15078,1.84863,6.27553,3.74164,9.51574,5.67693,1.75712-5.359,3.48294-10.62267,5.31176-16.20045.99344,3.41593,1.89857,6.5315,2.80576,9.64646.63417,2.17749,1.3293,4.33962,1.87914,6.53814.22934.917.485.884,1.19187.47145,3.89259-2.272,7.81023-4.501,11.958-6.88179-.4981,2.27383-.94072,4.3137-1.393,6.35143-.25588,1.15279-.50742,2.30724-.80049,3.4508-.15.5855-.10586.80331.61658.9218A96.56622,96.56622,0,0,1,212.998,48.73667c18.45251,15.52408,29.83819,35.29564,34.64766,58.87291a85.23835,85.23835,0,0,1,1.76212,17.98525,85.84242,85.84242,0,0,0-4.60874-15.2835c-5.4139-12.58792-13.6276-22.72144-26.41116-28.24122-17.87964-7.72019-34.565-5.0109-49.5016,7.31815-10.04083,8.288-15.48261,19.45016-18.36875,31.96268a36.22749,36.22749,0,0,0-1.01241,5.76729A.38082.38082,0,0,1,149.29537,127.10877Z"/><path class="cls-4" d="M153.69174,288.49461l-3.18963-.00493q.00514-44.81988.012-89.63982c.00031-1.71359.02412-3.42717.037-5.14076q1.66893,4.18614,3.33783,8.37235c-.30108.30187-.20378.68778-.20379,1.04383Q153.68442,245.80994,153.69174,288.49461Z"/><path class="cls-4" d="M148.30718,288.49407q-1.58907.00284-3.17834.00568.00231-42.626,0-85.252c-.00006-.394.12319-.823-.20121-1.16643q1.66467-4.18779,3.32949-8.3761c.01493.529.04289,1.058.04295,1.587Q148.30586,241.89319,148.30718,288.49407Z"/><path class="cls-4" d="M158.35112,288.49153q-1.59279.0023-3.18571.00455.00216-41.71946.00448-83.43915,1.70691,3.40931,3.414,6.81915c-.37381.32043-.23634.7569-.23639,1.14681Q158.34287,250.75722,158.35112,288.49153Z"/><path class="cls-4" d="M143.64375,288.50047q-1.588-.00242-3.17608-.00481.00268-37.83349.00209-75.667a1.92176,1.92176,0,0,0-.16228-1.18967q1.64054-3.22077,3.28135-6.442c.01662.56992.04769,1.13982.04776,1.70974Q143.64271,247.70355,143.64375,288.50047Z"/><path class="cls-3" d="M163.01291,288.48585q-1.48593-.00278-2.97172-.00562.003-31.63819.0069-63.2763c.00069-3.54892.01558-7.09785.02395-10.64671l3.161,4.91943c-.35375.3306-.22015.76377-.22022,1.155Q163.00648,254.55875,163.01291,288.48585Z"/><path class="cls-3" d="M138.77016,288.48316q-1.48167.00269-2.96335.00544.00051-33.80565-.00711-67.61132c-.00019-.46821.17786-.98466-.21675-1.39987q1.58085-2.46039,3.16188-4.921c.008.44838.0229.89677.02293,1.34515Q138.77015,252.19237,138.77016,288.48316Z"/><path class="cls-4" d="M210.2681,288.513q-1.5887.00054-3.17752.00107.00349-28.44381.00157-56.88762c-.00009-.38862.1421-.828-.24934-1.13891a32.45625,32.45625,0,0,0,3.38816-7.37584c.01009.40671.02891.81342.029,1.22013Q210.26552,256.42242,210.2681,288.513Z"/><path class="cls-4" d="M91.72426,288.51419q-1.58874-.00057-3.17756-.00113.00342-31.66156.00834-63.32316c.00013-.69192.0198-1.38385.03032-2.07588a32.35872,32.35872,0,0,0,3.389,7.37384c-.39332.30994-.251.74966-.251,1.13811Q91.71688,260.07009,91.72426,288.51419Z"/><path class="cls-3" d="M167.67752,288.48l-2.97544.00664q.00439-32.6314.01027-65.26278c.00012-.53007.02319-1.06013.03555-1.59018l3.13789,3.73513c-.34031.33789-.20927.76963-.20934,1.16253Q167.67062,257.50567,167.67752,288.48Z"/><path class="cls-3" d="M134.10725,288.48953q-1.48383-.00529-2.96754-.01056.0025-30.9741-.00049-61.94816c-.00009-.393.131-.82456-.20861-1.1628l3.13686-3.73375c.01251.53007.0359,1.06013.036,1.5902Q134.1073,255.857,134.10725,288.48953Z"/><path class="cls-4" d="M172.5477,288.5141l-3.17594-.00071q.00268-29.84454.00768-59.689c.00015-.6108.03159-1.22159.04842-1.83239q1.568,1.36759,3.13606,2.73523Q172.55579,259.12067,172.5477,288.5141Z"/><path class="cls-4" d="M129.44407,288.51366q-1.58829.00027-3.1767.00053.00316-6.41656.006-12.83316-.00837-22.97741-.0205-45.95479l3.13516-2.7341c.01671.6108.04793,1.22162.04806,1.83242Q129.44284,258.6691,129.44407,288.51366Z"/><path class="cls-4" d="M177.21209,288.51055q-1.58972.00277-3.1796.00562-.00208-28.87555-.00389-57.75121l3.44168,2.15624c-.41272.35339-.2555.83432-.25565,1.26274Q177.20535,261.34725,177.21209,288.51055Z"/><path class="cls-4" d="M124.78252,288.51617l-3.18006-.00565q.00255-27.1636-.00139-54.32722c-.00014-.42816.15863-.90942-.256-1.2621q1.72065-1.07831,3.44178-2.15681Z"/><path class="cls-4" d="M205.6079,288.51545q-1.59-.00211-3.18008-.00428-.00538-26.81167-.01061-53.62343,1.57381-1.36443,3.14739-2.72877c.012.61083.03449,1.22165.03464,1.83248Q205.60558,261.25344,205.6079,288.51545Z"/><path class="cls-4" d="M96.38739,288.51108l-3.18.00431q.00345-26.28447.00882-52.569c.00034-1.26285.023-2.5257.03527-3.78864q1.57314,1.36562,3.14642,2.73141Q96.39264,261.70015,96.38739,288.51108Z"/><path class="cls-4" d="M115.24311,288.512l-3.17746.00332q.00354-15.5256.00718-31.05117.00159-9.65769-.01165-19.3153c-.00125-.46766.28986-1.11538-.5033-1.30571l3.672-.98622Z"/><path class="cls-4" d="M186.75015,288.51518q-1.58955-.00176-3.17915-.00344.00767-26.32684.01542-52.65368,1.60138.42609,3.2027.852c-.01534.32525-.04406.6505-.04406.97576Q186.74532,263.10051,186.75015,288.51518Z"/><path class="cls-4" d="M191.41146,288.5124l-3.17905.002q.00336-2.6918.00676-5.38355.00983-23.0636.01886-46.12694,1.58448.15982,3.16867.31927Z"/><path class="cls-4" d="M110.58283,288.51428l-3.17926-.00179q-.00675-25.59469-.01328-51.18943,1.58354-.15924,3.16685-.3185c.00634.61167.01813,1.22334.01825,1.835Q110.58021,263.67692,110.58283,288.51428Z"/><path class="cls-3" d="M181.87665,288.50741l-2.9697.00107q.0011-27.38154.00208-54.76313,1.48453.71844,2.96907,1.43684Q181.8774,261.84478,181.87665,288.50741Z"/><path class="cls-3" d="M119.90826,288.50845q-1.4849-.00054-2.96965-.00113-.00124-26.66222-.00252-53.32443,1.48535-.7191,2.97032-1.43821Q119.90733,261.12658,119.90826,288.50845Z"/><path class="cls-3" d="M200.73905,288.50627q-1.48749.00086-2.97492.00165.00307-25.17243.00589-50.34486c0-.20366-.01886-.409.00078-.61063.05562-.57062-.31271-.67744-.75447-.71418q1.843-.51161,3.6864-1.0233c.0106.57017.03036,1.14034.03048,1.71052Q200.73792,263.01586,200.73905,288.50627Z"/><path class="cls-3" d="M101.05092,288.508q-1.48728-.00095-2.97442-.00186.00245-17.35953.00587-34.7191.00456-8.98485.02988-17.96954,1.84164.51094,3.68289,1.02145c-1.0027.01746-.74326.77153-.74346,1.32763Q101.043,263.33725,101.05092,288.508Z"/><path class="cls-3" d="M105.70984,288.50636q-1.48488.00162-2.96972.00317-.00738-25.77829-.01464-51.55651,1.99849.18006,3.99661.36009c-.994-.05224-1.02971.56449-1.02892,1.33754Q105.71855,263.57849,105.70984,288.50636Z"/><path class="cls-3" d="M196.07481,288.5095q-1.48469-.00149-2.96925-.003.00267-24.92856.01683-49.85705c.00081-.77494-.0378-1.3885-1.03026-1.33647l3.99943-.36066Q196.08316,262.73092,196.07481,288.5095Z"/><path class="cls-5" d="M138.77016,288.48316q-.00071-36.29079-.0024-72.58158c0-.44838-.01495-.89677-.023-1.34508a22.15378,22.15378,0,0,1,1.5628-2.91783,1.92365,1.92365,0,0,1,.16216,1.18994q.003,37.83354-.00209,75.667Q139.619,288.48942,138.77016,288.48316Z"/><path class="cls-5" d="M160.072,214.55716c-.00834,3.54892-.02323,7.09785-.02392,10.64677q-.00613,31.63815-.0069,63.2763-.8451.0057-1.69.0113-.00466-37.73433-.00368-75.46864c.00005-.38991-.13742-.82638.23648-1.1466Q159.32808,213.21693,160.072,214.55716Z"/><path class="cls-5" d="M155.17,205.0572q-.00234,41.71946-.00456,83.43888-.73659-.00077-1.47355-.00144-.00525-42.68471-.00674-85.36936c0-.35605-.09729-.742.20388-1.04357Q154.52959,203.56973,155.17,205.0572Z"/><path class="cls-5" d="M143.64375,288.50047q-.00254-40.79691-.00716-81.59383c-.00007-.56992-.03114-1.13982-.04775-1.70977q.66946-1.55793,1.33891-3.1158c.32431.34376.20106.7727.20112,1.16672q.00556,42.626,0,85.252Q144.38649,288.50006,143.64375,288.50047Z"/><path class="cls-5" d="M134.10725,288.48953q-.00112-32.63252-.00382-65.26507c-.00006-.53007-.02345-1.06013-.036-1.59018a11.80947,11.80947,0,0,1,1.51557-2.157c.39454.41533.21649.93178.21668,1.4q.0135,33.80569.00711,67.61135Z"/><path class="cls-5" d="M164.7479,221.63368c-.01236.53007-.03543,1.06013-.03555,1.5902q-.00706,32.63137-.01027,65.26278l-1.68919-.00081q-.0027-33.92709,0-67.85416c.00007-.39127-.13353-.82444.22031-1.15489A11.89206,11.89206,0,0,1,164.7479,221.63368Z"/><path class="cls-5" d="M129.44407,288.51366q-.003-29.84454-.008-59.6891c-.00013-.6108-.03135-1.22162-.04806-1.83241l1.5426-1.62414c.33962.33824.20852.76984.20861,1.1628q.00663,30.97407.00049,61.94816Q130.29176,288.49633,129.44407,288.51366Z"/><path class="cls-5" d="M169.42785,226.992c-.01682.61079-.04826,1.22158-.04841,1.83238q-.00666,29.84454-.00768,59.689l-1.69439-.0334q-.003-30.97429-.00092-61.94863c.00007-.3929-.131-.82464.20932-1.16254Q168.65679,226.1804,169.42785,226.992Z"/><path class="cls-5" d="M88.5854,223.11414c-.01056.69191-.03023,1.38384-.03036,2.07576q-.006,31.66158-.00834,63.32319l-1.43576.01856c-.009-1.91779-.02558-3.83562-.02574-5.75341q-.0028-32.63055.00118-65.26114c.00011-.734.036-1.46806.05528-2.20207l.11567-.0003A53.13524,53.13524,0,0,0,88.5854,223.11414Z"/><path class="cls-5" d="M210.2681,288.513q-.00345-32.09061-.00815-64.18117c-.00007-.40671-.01889-.81342-.029-1.22023a52.9759,52.9759,0,0,0,1.327-7.7974l.11639.00051c.01916.53.055,1.06.05511,1.58994q.004,35.38556.001,70.77113c0,.28525-.01713.57053-.02626.85581Q210.98614,288.52232,210.2681,288.513Z"/><path class="cls-5" d="M119.90826,288.50845q-.00091-27.3819-.00185-54.76374l1.4389-.82361c.41439.35278.25562.834.25576,1.2622q.0088,27.16359.00139,54.32722Z"/><path class="cls-5" d="M178.909,233.74535q-.001,27.38157-.00208,54.76313l-1.69485.00207q-.002-27.16329.00253-54.32661c.00015-.42842-.15707-.90935.25587-1.26262Q178.19,233.33346,178.909,233.74535Z"/><path class="cls-5" d="M148.30718,288.49407q-.00259-46.60089-.00708-93.20177c-.00006-.529-.028-1.058-.04292-1.5871a10.72056,10.72056,0,0,1,.82313-2.6545c.38729.466.20568,1.02014.20588,1.53082q.018,47.95542.0161,95.91085Z"/><path class="cls-5" d="M150.5511,193.70911c-.01289,1.71358-.0367,3.42716-.037,5.14075q-.00857,44.81991-.012,89.63982-.49186-.00023-.98352-.00042.00144-47.93951.01036-95.87907c.00015-.51388-.16992-1.06484.18879-1.54095Q150.13447,192.38935,150.5511,193.70911Z"/><path class="cls-5" d="M200.73905,288.50627q-.00223-25.49038-.00584-50.9808c-.00012-.57018-.01988-1.14035-.03068-1.71028q.8571-.46347,1.71456-.92739.00535,26.81169.01073,53.62337Q201.58346,288.50871,200.73905,288.50627Z"/><path class="cls-5" d="M98.11206,235.81725q-.01547,8.98485-.02969,17.96974-.0088,17.35953-.00587,34.7191-.84468.00252-1.68909.005.0052-26.811.01035-53.62195Z"/><path class="cls-5" d="M181.87665,288.50741q.00072-26.66262.00129-53.32524a5.0627,5.0627,0,0,1,1.70845.67588q-.00771,26.32683-.01539,52.65369Z"/><path class="cls-5" d="M116.93592,235.18292q.00138,26.66222.00269,53.3244-.84781.00237-1.69544.00469-.00668-26.32752-.01329-52.655A5.04879,5.04879,0,0,1,116.93592,235.18292Z"/><path class="cls-5" d="M102.72529,236.953q.00744,25.77825.01483,51.55654-.84473-.00081-1.68929-.00155-.00258-25.17078.00085-50.34145c.0002-.5561-.25924-1.31017.74371-1.32757Z"/><path class="cls-5" d="M196.07481,288.5095q.00837-25.77861.01654-51.55717l.92518-.11414c.44156.0368.80989.14362.75427.71424-.01964.20166-.00076.407-.00078.61063q-.00277,25.17243-.00589,50.34486Z"/><path class="cls-5" d="M192.09223,237.31293c.99236-.052,1.031.56156,1.03016,1.3365q-.02577,24.9285-.01683,49.85705l-1.694.00592q.00751-25.59465.01505-51.18925Z"/><path class="cls-5" d="M105.70984,288.50636q-.00253-24.92784-.01667-49.85571c-.00079-.77305.03493-1.38978,1.029-1.33751l.668.00992q.00666,25.5947.01338,51.1894Q106.55676,288.50942,105.70984,288.50636Z"/><path class="cls-5" d="M174.02872,230.765q.00177,28.87557.00377,57.75114l-1.48467-.00207q.0079-29.39346.01607-58.78694Z"/><path class="cls-5" d="M124.78252,288.51617q.00217-28.87591.00447-57.75185l1.46583-1.038q.01054,22.97735.02053,45.95476.00233,6.41656-.006,12.83313Q125.52505,288.51515,124.78252,288.51617Z"/><path class="cls-5" d="M205.6079,288.51545q-.00357-27.262-.00866-54.524c-.00015-.61083-.02259-1.22165-.03456-1.83256l1.27826-1.67153c.39131.31114.24912.75047.24921,1.13909q.006,28.44381-.00157,56.88762Q206.34937,288.5147,205.6079,288.51545Z"/><path class="cls-5" d="M93.25152,232.15786c-.01231,1.26285-.035,2.5257-.03534,3.78855q-.00719,26.28452-.00882,52.569l-1.483-.0012q-.00353-28.44412-.00109-56.88822c.00009-.38845-.14228-.82817.25116-1.13795Q92.61311,231.32311,93.25152,232.15786Z"/><path class="cls-5" d="M110.58283,288.51428q-.00332-24.83733-.00744-49.67471c-.00012-.61167-.01191-1.22334-.01839-1.8348l.05756-.03838.06931.00322a.26567.26567,0,0,0,.37605-.0522l.49829-.07432c.79283.19039.50172.83811.503,1.30577q.026,9.65758.01165,19.3153-.00257,15.5256-.00718,31.05117Z"/><path class="cls-5" d="M188.25788,237.00364q-.00924,23.06358-.01871,46.12718-.00114,2.69175-.00676,5.38352l-1.4821.00087q-.00375-25.41468-.00525-50.82934c0-.32526.02872-.65051.044-.97576l.96887.20841a.26348.26348,0,0,0,.37358.05077l.06887-.00365Z"/><path class="cls-4" d="M149.7177,191.06906c-.35867.47629-.1886,1.02725-.18875,1.54113q-.01442,47.93954-.01036,95.87907l-.10813.033-.10849-.02984q-.00329-47.95551-.01578-95.91091c-.0002-.51068.18141-1.0648-.20594-1.53046-.08165-.31972.16463-.516.28679-.75914A1.008,1.008,0,0,1,149.7177,191.06906Z"/><path class="cls-3" d="M121.71242,9.72652c-.07841-.10168-.13732-.207.0023-.29934a1.27067,1.27067,0,0,1,.14275.15743A.74743.74743,0,0,1,121.71242,9.72652Z"/><path class="cls-6" d="M211.67434,215.31471l-.11639-.00049c-.25475-.36866-.50372-.7415-.765-1.10547q-14.37341-20.01944-28.72854-40.0519a2.25753,2.25753,0,0,0-2.10389-1.06088q-30.66606.06657-61.33227.07619a.77192.77192,0,0,1-.12228-.00085,1.50122,1.50122,0,0,0-1.606.79158c-1.52852,2.21406-3.126,4.38051-4.69438,6.56711q-12.4749,17.39183-24.94827,34.78473l-.11567.0003a2.81019,2.81019,0,0,1,.55361-2.37379c9.36792-12.9923,18.83958-25.913,28.00659-39.04612,10.92364-15.64981,22.29071-30.97807,33.33068-46.54215a1.72866,1.72866,0,0,1,.2625-.24389.385.385,0,0,0,.21006.00915q7.52257,10.40533,15.04437,20.81229c5.82067,8.06614,11.74553,16.06009,17.42156,24.2269,9.60746,13.8235,19.61485,27.359,29.35956,41.083A2.7408,2.7408,0,0,1,211.67434,215.31471Zm-73.174-51.13026a2.81121,2.81121,0,0,0-5.62082-.08032,2.81134,2.81134,0,1,0,5.62082.08032Zm27.43659.03709a2.81252,2.81252,0,0,0-5.62184-.15445,2.81258,2.81258,0,1,0,5.62184.15445Z"/><path class="cls-6" d="M192.53379,140.83169a11.81329,11.81329,0,1,1,11.80876-11.88216A11.89963,11.89963,0,0,1,192.53379,140.83169Zm10.89031-13.93548a5.42556,5.42556,0,1,0-5.48214,5.39555A5.401,5.401,0,0,0,203.4241,126.89621Z"/><path class="cls-6" d="M114.47613,120.72864a10.33055,10.33055,0,0,1,3.59073,8.44524,11.777,11.777,0,1,1-10.26132-11.80449c-.15257.30464-.49234.241-.7373.35953a5.45533,5.45533,0,1,0,7.58132,6.32359A7.612,7.612,0,0,0,114.47613,120.72864Z"/><path class="cls-7" d="M114.47613,120.72864a7.612,7.612,0,0,1,.17343,3.32387,5.459,5.459,0,1,1-7.58132-6.32359c.245-.11852.58473-.05489.7373-.35953a5.65773,5.65773,0,0,1,5.75079,1.82277C113.969,119.66346,114.1173,120.24981,114.47613,120.72864Z"/><path class="cls-2" d="M87.25733,215.31473q12.474-17.39247,24.94827-34.78473c1.5684-2.1866,3.16586-4.353,4.69438-6.56711a1.50122,1.50122,0,0,1,1.606-.79158.77192.77192,0,0,0,.12228.00085q30.66616-.02842,61.33227-.07619a2.25753,2.25753,0,0,1,2.10389,1.06088q14.33207,20.049,28.72854,40.0519c.26131.364.51028.73681.765,1.10547a52.97608,52.97608,0,0,1-1.327,7.79738,32.45678,32.45678,0,0,1-3.38818,7.37594l-1.27814,1.67135q-1.57376,1.36446-3.14747,2.72885-.85755.46392-1.71468.92745-1.843.51129-3.6862,1.02306l-.925.11408q-1.99947.18028-3.99922.36063l-.66555.01019q-1.58407-.15956-3.16855-.31927l-.05768-.03824-.069.00383q-.18687-.02531-.3734-.051l-.96887-.20841q-1.60119-.426-3.20261-.852a5.06291,5.06291,0,0,0-1.70848-.67589q-1.4843-.71838-2.96891-1.43682-.71914-.412-1.43853-.824l-3.4419-2.15636q-.73224-.51885-1.46471-1.0378-1.568-1.36758-3.136-2.73519-.771-.81158-1.54208-1.62315l-3.13787-3.73512a11.89236,11.89236,0,0,0-1.51475-2.15692q-1.58063-2.45986-3.16111-4.91956-.744-1.34043-1.48806-2.68093-1.70718-3.41-3.41409-6.81936-.64031-1.4872-1.28089-2.97522-1.669-4.18659-3.33792-8.37261-.41661-1.31985-.83334-2.63986a1.00832,1.00832,0,0,0-.3507-.77732c-.12216.24314-.36844.43942-.28679.75914a10.71561,10.71561,0,0,0-.82307,2.65414q-1.66484,4.18827-3.32952,8.37616-.66933,1.55745-1.33882,3.11551-1.64074,3.22119-3.28136,6.44207a22.14818,22.14818,0,0,0-1.56269,2.91756q-1.58094,2.46043-3.16184,4.92091a11.80754,11.80754,0,0,0-1.5155,2.15687l-3.13684,3.73373-1.5426,1.62414q-1.56758,1.367-3.13516,2.73409l-1.46586,1.03808q-1.72119,1.07856-3.4419,2.1569l-1.43868.82347q-1.48507.71909-2.97032,1.4382a5.04895,5.04895,0,0,0-1.70621.67407q-1.83612.49313-3.672.98619l-.49769.07423-.37632.05223-.06931-.00322-.05756.03838q-1.58318.15894-3.16671.31829l-.66808-.00992q-1.99839-.1801-3.99671-.36012l-.93011-.11406q-1.84173-.5107-3.68314-1.0215-.8575-.4644-1.71449-.92833-1.57308-1.36567-3.14631-2.73136-.63836-.83469-1.277-1.66975a32.35829,32.35829,0,0,1-3.38911-7.374A53.13616,53.13616,0,0,1,87.25733,215.31473Zm102.90034-5.05464a2.455,2.455,0,0,0,2.43911-2.509,2.54281,2.54281,0,0,0-2.57622-2.40576,2.46084,2.46084,0,0,0-2.34889,2.47977A2.39634,2.39634,0,0,0,190.15767,210.26009Zm-79.0154-2.39892a2.45425,2.45425,0,0,0-2.432-2.5171,2.554,2.554,0,0,0-2.49526,2.49261,2.459,2.459,0,0,0,2.40721,2.42345A2.39467,2.39467,0,0,0,111.14227,207.86117Zm11.75658-23.02728a2.45422,2.45422,0,0,0-2.43711-2.51272,2.5573,2.5573,0,0,0-2.49088,2.49722,2.46353,2.46353,0,0,0,2.412,2.42A2.39607,2.39607,0,0,0,122.89885,184.83389Zm42.73559,14.64966a2.4601,2.4601,0,0,0,2.47177-2.47785,2.54543,2.54543,0,0,0-2.54635-2.43949,2.46321,2.46321,0,0,0-2.38012,2.45086A2.39906,2.39906,0,0,0,165.63444,199.48355Zm-30.00026-2.46973a2.447,2.447,0,0,0-2.50248-2.44172,2.53433,2.53433,0,0,0-2.42251,2.43645,2.4628,2.4628,0,0,0,2.47545,2.4757A2.394,2.394,0,0,0,135.63418,197.01382Zm40.28212-12.25934a2.39843,2.39843,0,0,0,2.43656,2.48483,2.46282,2.46282,0,0,0,2.48976-2.46216,2.53567,2.53567,0,0,0-2.40842-2.45041A2.45138,2.45138,0,0,0,175.9163,184.75448Z"/><path class="cls-4" d="M110.68387,236.96961l.37632-.05223A.266.266,0,0,1,110.68387,236.96961Z"/><path class="cls-4" d="M187.7579,236.91852q.1866.02556.3734.051A.26348.26348,0,0,1,187.7579,236.91852Z"/><path class="cls-2" d="M138.5003,164.18445a2.81134,2.81134,0,1,1-5.62082-.08032,2.81121,2.81121,0,0,1,5.62082.08032Z"/><path class="cls-2" d="M165.93689,164.22154a2.81258,2.81258,0,1,1-5.62184-.15445,2.81252,2.81252,0,0,1,5.62184.15445Z"/><path class="cls-7" d="M203.4241,126.89621a5.42556,5.42556,0,1,1-10.85053-.10437,5.42552,5.42552,0,1,1,10.85053.10437Z"/><path class="cls-6" d="M190.15767,210.26009a2.39634,2.39634,0,0,1-2.486-2.435,2.46084,2.46084,0,0,1,2.34889-2.47977,2.54281,2.54281,0,0,1,2.57622,2.40576A2.455,2.455,0,0,1,190.15767,210.26009Z"/><path class="cls-6" d="M111.14227,207.86117a2.39467,2.39467,0,0,1-2.52009,2.399,2.459,2.459,0,0,1-2.40721-2.42345,2.554,2.554,0,0,1,2.49526-2.49261A2.45425,2.45425,0,0,1,111.14227,207.86117Z"/><path class="cls-6" d="M122.89885,184.83389a2.39607,2.39607,0,0,1-2.516,2.40446,2.46353,2.46353,0,0,1-2.412-2.42,2.5573,2.5573,0,0,1,2.49088-2.49722A2.45422,2.45422,0,0,1,122.89885,184.83389Z"/><path class="cls-6" d="M165.63444,199.48355a2.39906,2.39906,0,0,1-2.4547-2.46648,2.46321,2.46321,0,0,1,2.38012-2.45086,2.54543,2.54543,0,0,1,2.54635,2.43949A2.4601,2.4601,0,0,1,165.63444,199.48355Z"/><path class="cls-6" d="M135.63418,197.01382a2.394,2.394,0,0,1-2.44954,2.47043,2.4628,2.4628,0,0,1-2.47545-2.4757,2.53433,2.53433,0,0,1,2.42251-2.43645A2.447,2.447,0,0,1,135.63418,197.01382Z"/><path class="cls-6" d="M175.9163,184.75448a2.45138,2.45138,0,0,1,2.5179-2.42774,2.53567,2.53567,0,0,1,2.40842,2.45041,2.46282,2.46282,0,0,1-2.48976,2.46216A2.39843,2.39843,0,0,1,175.9163,184.75448Z"/><path d="M34.10976,319.90918a10.12332,10.12332,0,0,1,3.83643,2.86426,12.74706,12.74706,0,0,1,2.06,3.44726,11.48269,11.48269,0,0,1,.75928,4.3086,12.28066,12.28066,0,0,1-1.47314,5.74121,8.235,8.235,0,0,1-4.86524,3.98926,7.65592,7.65592,0,0,1,4.01709,3.23925,13.48342,13.48342,0,0,1,1.18164,6.40821v2.75195a20.69673,20.69673,0,0,0,.22608,3.80859,3.41966,3.41966,0,0,0,1.581,2.33594V359.832H31.98037q-.38965-1.3623-.55567-2.19629a20.1611,20.1611,0,0,1-.36182-3.53027l-.05517-3.80957q-.05274-3.91992-1.35449-5.22656-1.30226-1.30665-4.87842-1.30664H16.412V359.832H8.04384V318.85352H27.64443A17.83781,17.83781,0,0,1,34.10976,319.90918ZM16.412,325.96973v11.00976h9.21533a9.81493,9.81493,0,0,0,4.11865-.667q2.42945-1.16748,2.4292-4.61523,0-3.7251-2.3501-5.00391a8.48184,8.48184,0,0,0-3.96045-.72363Z"/><path d="M73.599,356.125q-3.83643,4.73585-11.64844,4.73535-7.81275,0-11.64893-4.73535a18.80189,18.80189,0,0,1,0-22.76367q3.83643-4.80469,11.64893-4.80567,7.812,0,11.64844,4.80567a18.8,18.8,0,0,1,0,22.76367Zm-6.33838-4.37891q1.86182-2.47119,1.8623-7.02441,0-4.55274-1.8623-7.00879a6.29865,6.29865,0,0,0-5.33789-2.457,6.33584,6.33584,0,0,0-5.352,2.457q-1.87647,2.45655-1.87647,7.00879,0,4.5542,1.87647,7.02441a6.32226,6.32226,0,0,0,5.352,2.46973A6.28525,6.28525,0,0,0,67.26064,351.74609Z"/><path d="M89.25136,350.15723a5.27741,5.27741,0,0,0,1.08936,3.00293q1.48021,1.58349,5.47509,1.584a8.386,8.386,0,0,0,3.729-.69434,2.32889,2.32889,0,0,0,.269-4.11523q-1.114-.69434-8.28906-2.39062-5.165-1.27881-7.27783-3.19727a6.92968,6.92968,0,0,1-2.1128-5.44922,9.44141,9.44141,0,0,1,3.30127-7.21387q3.30177-3.01611,9.29151-3.0166a17.07329,17.07329,0,0,1,9.26367,2.26563q3.58008,2.26611,4.10986,7.82617h-7.92334a4.68676,4.68676,0,0,0-.86426-2.41895q-1.311-1.61133-4.46044-1.6123a6.41845,6.41845,0,0,0-3.69385.80664,2.318,2.318,0,0,0-1.10108,1.88965,2.06851,2.06851,0,0,0,1.1709,1.97461q1.17042.64014,8.273,2.19629A15.17354,15.17354,0,0,1,106.599,344.958a7.63826,7.63826,0,0,1,2.33545,5.69922,9.20069,9.20069,0,0,1-3.35694,7.35351q-3.35742,2.85059-10.37646,2.84961-7.15942,0-10.57178-3.01562a9.80634,9.80634,0,0,1-3.4126-7.6875Z"/><path d="M126.7748,341.39941a12.53484,12.53484,0,0,0,3.16455-.69433,2.38427,2.38427,0,0,0,1.7085-2.252,2.66326,2.66326,0,0,0-1.31055-2.57226,8.28126,8.28126,0,0,0-3.84668-.709q-2.84546,0-4.02979,1.39062a5.73134,5.73134,0,0,0-1.127,2.78027h-7.64551a11.59019,11.59019,0,0,1,2.23389-6.5332q3.15455-4.00342,10.8335-4.00391a19.322,19.322,0,0,1,8.8789,1.97364q3.8811,1.9746,3.88086,7.45117v13.90039q0,1.44581.05567,3.50293a4.40446,4.40446,0,0,0,.47265,2.11328,2.82682,2.82682,0,0,0,1.168.917v1.168h-8.61865a8.79636,8.79636,0,0,1-.50049-1.72363q-.13916-.80567-.22217-1.835a16.36076,16.36076,0,0,1-3.80322,3.03027,11.49109,11.49109,0,0,1-5.81641,1.47363,10.03422,10.03422,0,0,1-6.83691-2.34961,8.35211,8.35211,0,0,1-2.69873-6.6582q0-5.58837,4.34082-8.08984a19.39472,19.39472,0,0,1,7.00244-1.94629Zm4.84473,3.69825a8.81994,8.81994,0,0,1-1.53565.76464,13.049,13.049,0,0,1-2.12793.542l-1.80371.333a11.84586,11.84586,0,0,0-3.6416,1.085,3.61766,3.61766,0,0,0-1.87207,3.36328,3.51437,3.51437,0,0,0,1.14355,2.93359,4.34317,4.34317,0,0,0,2.78028.90332,8.28131,8.28131,0,0,0,4.78515-1.501q2.18775-1.50145,2.272-5.47753Z"/><path d="M166.185,330.14258a12.33135,12.33135,0,0,1,5.23632,4.48242,14.89082,14.89082,0,0,1,2.41455,6.26562,38.70245,38.70245,0,0,1,.26123,6.01368h-22.0708q.18458,4.56006,3.16895,6.39453a8.04931,8.04931,0,0,0,4.36865,1.13965,6.15344,6.15344,0,0,0,6.03027-3.47461h8.08936a9.89479,9.89479,0,0,1-2.9375,5.47656q-4.07154,4.42091-11.40088,4.41992a16.515,16.515,0,0,1-10.67383-3.72851q-4.6245-3.728-4.624-12.13184,0-7.87353,4.17432-12.0752a14.607,14.607,0,0,1,10.83642-4.20214A17.25911,17.25911,0,0,1,166.185,330.14258Zm-11.85352,6.84472a8.23517,8.23517,0,0,0-2.11084,4.69043H165.871a6.60881,6.60881,0,0,0-2.11035-4.78808,6.94433,6.94433,0,0,0-4.69922-1.63379A6.2838,6.2838,0,0,0,154.33144,336.9873Z"/><path d="M178.6039,318.85352h8.977l16.2666,28.57324V318.85352h7.979V359.832h-8.561L186.5829,330.75586V359.832h-7.979Z"/><path d="M219.86122,318.85352h8.563v33.61132h20.46143V359.832H219.86122Z"/><path d="M282.19179,331.6416a8.02581,8.02581,0,0,0-4.75439-5.86621,11.68053,11.68053,0,0,0-4.69825-.917,10.21108,10.21108,0,0,0-8.13183,3.73242q-3.18384,3.73242-3.18311,11.22266,0,7.54833,3.44727,10.68359a11.33311,11.33311,0,0,0,7.83984,3.13574,10.16624,10.16624,0,0,0,7.06153-2.47265,10.66872,10.66872,0,0,0,3.3916-6.4795h-9.48v-6.83984h17.06982V359.832H285.0829l-.86181-5.11523a19.59416,19.59416,0,0,1-4.44824,4.0957,15.70075,15.70075,0,0,1-8.34034,2.07617,17.33253,17.33253,0,0,1-13.34472-5.64062q-5.42065-5.66748-5.4209-15.50293,0-9.94629,5.47656-15.94727,5.47706-6.00146,14.48438-6.001,7.812,0,12.55224,3.96093a14.731,14.731,0,0,1,5.43506,9.88379Z"/></svg>