<?xml version="1.0" encoding="UTF-8"?>
<!DOCTYPE svg PUBLIC "-//W3C//DTD SVG 1.1//EN" "http://www.w3.org/Graphics/SVG/1.1/DTD/svg11.dtd">
<svg xmlns="http://www.w3.org/2000/svg" version="1.1" width="836px" height="286px" style="shape-rendering:geometricPrecision; text-rendering:geometricPrecision; image-rendering:optimizeQuality; fill-rule:evenodd; clip-rule:evenodd" xmlns:xlink="http://www.w3.org/1999/xlink">
<g><path style="opacity:0.288" fill="#fefffe" d="M -0.5,-0.5 C 0.166667,-0.5 0.833333,-0.5 1.5,-0.5C 1.16667,0.5 0.5,1.16667 -0.5,1.5C -0.5,0.833333 -0.5,0.166667 -0.5,-0.5 Z"/></g>
<g><path style="opacity:0.288" fill="#fefffe" d="M 833.5,-0.5 C 834.167,-0.5 834.833,-0.5 835.5,-0.5C 835.5,0.166667 835.5,0.833333 835.5,1.5C 834.5,1.16667 833.833,0.5 833.5,-0.5 Z"/></g>
<g><path style="opacity:0.989" fill="#292694" d="M 167.5,218.5 C 167.167,217.5 166.5,216.833 165.5,216.5C 167.395,216.087 169.395,215.753 171.5,215.5C 172.681,213.865 172.681,212.198 171.5,210.5C 168.822,207.323 165.988,204.323 163,201.5C 161.395,198.352 160.395,195.019 160,191.5C 155.712,189.73 152.045,187.063 149,183.5C 147.479,190.383 146.646,197.383 146.5,204.5C 145.167,204.5 143.833,204.5 142.5,204.5C 139.611,201.744 137.444,198.411 136,194.5C 135.983,190.107 135.15,185.94 133.5,182C 130.798,181.393 128.132,181.56 125.5,182.5C 121.741,181.191 117.907,180.191 114,179.5C 102.304,182.513 90.4702,184.679 78.5,186C 71.3086,189.064 63.9753,191.73 56.5,194C 49.8333,194.667 43.1667,194.667 36.5,194C 35.572,193.612 34.9054,192.945 34.5,192C 35.4394,190.056 36.7727,188.389 38.5,187C 50.3912,181.899 61.0578,175.066 70.5,166.5C 68.5787,165.359 66.5787,165.192 64.5,166C 55.7143,168.373 46.8809,170.54 38,172.5C 35.5925,171.464 33.2591,171.464 31,172.5C 30.1667,171.667 29.3333,170.833 28.5,170C 30.9547,165.548 34.6214,162.548 39.5,161C 52.1895,156.996 64.8561,152.996 77.5,149C 79.0905,147.954 80.5905,146.787 82,145.5C 83.554,135.616 89.054,129.116 98.5,126C 108.772,121.692 119.105,117.692 129.5,114C 141,104.5 152.5,95 164,85.5C 168.717,76.7874 174.217,68.6208 180.5,61C 184.859,57.9903 189.692,56.157 195,55.5C 205.591,59.4746 216.424,62.6412 227.5,65C 230.179,66.346 232.179,68.346 233.5,71C 233.241,72.2613 232.574,73.2613 231.5,74C 226.453,74.3379 221.453,75.0046 216.5,76C 212.494,77.8282 210.327,80.9948 210,85.5C 208.706,92.6657 208.539,99.8324 209.5,107C 206.816,114.242 205.316,121.742 205,129.5C 202.816,134.688 199.482,139.022 195,142.5C 180.618,160.612 172.951,181.278 172,204.5C 176.378,208.935 181.212,212.768 186.5,216C 189.826,216.172 193.159,216.005 196.5,215.5C 196.703,217.39 196.037,218.89 194.5,220C 186.162,221.918 177.828,221.918 169.5,220C 168.584,219.722 167.918,219.222 167.5,218.5 Z"/></g>
<g><path style="opacity:0.957" fill="#0c0c0c" d="M 303.5,150.5 C 301.448,151.053 301.115,152.053 302.5,153.5C 308.771,163.978 314.937,174.645 321,185.5C 322.1,189.735 320.433,191.401 316,190.5C 312.37,191.019 309.704,189.685 308,186.5C 301.96,175.585 295.793,164.752 289.5,154C 284.964,152.621 280.297,152.121 275.5,152.5C 274.167,152.5 273.5,153.167 273.5,154.5C 273.667,165.838 273.5,177.172 273,188.5C 269.333,191.167 265.667,191.167 262,188.5C 261.333,159.833 261.333,131.167 262,102.5C 262.5,102 263,101.5 263.5,101C 276.205,100.152 288.871,100.485 301.5,102C 318.152,106.8 324.319,117.633 320,134.5C 317.28,142.72 311.78,148.053 303.5,150.5 Z M 275.5,110.5 C 284.331,109.92 292.998,110.753 301.5,113C 306.193,116.047 308.86,120.38 309.5,126C 309.195,134.61 304.862,139.943 296.5,142C 289.533,142.997 282.533,143.497 275.5,143.5C 275.167,142.5 274.5,141.833 273.5,141.5C 273.5,131.833 273.5,122.167 273.5,112.5C 274.5,112.167 275.167,111.5 275.5,110.5 Z"/></g>
<g><path style="opacity:0.961" fill="#0e0e0e" d="M 387.5,166.5 C 387.629,168.216 387.962,169.883 388.5,171.5C 388.263,172.791 388.596,173.791 389.5,174.5C 390.451,173.081 390.784,171.415 390.5,169.5C 392.189,147.795 394.356,126.128 397,104.5C 397.465,103.069 398.299,101.903 399.5,101C 408.086,98.0934 411.253,100.927 409,109.5C 405.279,135.882 401.279,162.215 397,188.5C 395.004,190.059 392.671,190.726 390,190.5C 387.207,190.695 384.707,190.029 382.5,188.5C 378.517,173.903 374.851,159.236 371.5,144.5C 371.5,143.833 371.5,143.167 371.5,142.5C 371.5,142.167 371.5,141.833 371.5,141.5C 371.649,140.448 371.483,139.448 371,138.5C 369.476,141.61 368.642,144.944 368.5,148.5C 366.145,162.756 362.479,176.589 357.5,190C 353.442,190.767 349.442,190.6 345.5,189.5C 344.808,188.975 344.308,188.308 344,187.5C 339.74,160.014 335.573,132.514 331.5,105C 331.559,103.564 331.892,102.231 332.5,101C 335.833,100.333 339.167,100.333 342.5,101C 343,101.5 343.5,102 344,102.5C 347.192,126.703 350.192,150.703 353,174.5C 355.98,157.423 360.48,140.59 366.5,124C 370.317,122.977 373.817,123.477 377,125.5C 380.815,139.106 384.315,152.773 387.5,166.5 Z"/></g>
<g><path style="opacity:0.957" fill="#090909" d="M 435.5,102.5 C 435.168,117.246 435.501,131.246 436.5,144.5C 437.5,144.167 438.167,143.5 438.5,142.5C 439.833,142.167 439.833,141.833 438.5,141.5C 449.446,129.65 459.946,117.317 470,104.5C 473.743,100.741 478.243,99.5739 483.5,101C 484.517,102.049 484.684,103.216 484,104.5C 476.333,114.331 468.499,123.997 460.5,133.5C 458.219,134.634 458.219,135.968 460.5,137.5C 469.402,153.636 478.569,169.636 488,185.5C 488.667,186.833 488.667,188.167 488,189.5C 483.271,191.235 478.937,190.568 475,187.5C 467.488,173.806 459.988,160.14 452.5,146.5C 451.5,143.833 450.5,143.833 449.5,146.5C 445.155,150.847 441.155,155.514 437.5,160.5C 436.883,160.611 436.383,160.944 436,161.5C 435.5,170.494 435.334,179.494 435.5,188.5C 435.389,189.117 435.056,189.617 434.5,190C 431.007,191.004 427.841,190.504 425,188.5C 424.333,159.833 424.333,131.167 425,102.5C 427.841,100.496 431.007,99.9963 434.5,101C 435.056,101.383 435.389,101.883 435.5,102.5 Z M 438.5,142.5 C 438.167,143.5 437.5,144.167 436.5,144.5C 436.5,143.167 437.167,142.5 438.5,142.5 Z"/></g>
<g><path style="opacity:0.966" fill="#101010" d="M 493.5,100.5 C 496.518,100.335 499.518,100.502 502.5,101C 503.333,101.833 504.167,102.667 505,103.5C 512.333,128.167 519.667,152.833 527,177.5C 534.309,152.9 541.642,128.233 549,103.5C 549.5,102.333 550.333,101.5 551.5,101C 554.429,100.223 557.263,100.39 560,101.5C 560.07,106.979 559.07,112.313 557,117.5C 549.465,140.438 542.132,163.438 535,186.5C 534.535,187.931 533.701,189.097 532.5,190C 528.833,190.667 525.167,190.667 521.5,190C 520.333,189.5 519.5,188.667 519,187.5C 510.132,160.562 501.465,133.562 493,106.5C 492.322,104.402 492.489,102.402 493.5,100.5 Z"/></g>
<g><path style="opacity:0.884" fill="#1a1a1a" d="M 667.5,125.5 C 667.5,124.5 667.5,123.5 667.5,122.5C 666.5,122.5 665.5,122.5 664.5,122.5C 663.209,121.458 663.209,120.292 664.5,119C 667.347,118.056 669.847,118.556 672,120.5C 672.784,125.887 672.618,131.22 671.5,136.5C 664.827,140.896 658.66,140.229 653,134.5C 647.726,123.754 648.559,113.587 655.5,104C 659.67,101.212 664.003,100.879 668.5,103C 670.037,104.11 670.703,105.61 670.5,107.5C 663.567,104.762 658.734,106.762 656,113.5C 655.149,119.253 655.483,124.92 657,130.5C 664.402,136.943 667.902,135.277 667.5,125.5 Z"/></g>
<g><path style="opacity:0.845" fill="#141414" d="M 741.5,134.5 C 742.496,134.586 743.329,134.252 744,133.5C 744.667,130.167 744.667,126.833 744,123.5C 742.989,122.663 741.822,122.33 740.5,122.5C 739.209,121.458 739.209,120.292 740.5,119C 743.347,118.056 745.847,118.556 748,120.5C 748.903,126.281 748.57,131.947 747,137.5C 737.618,141.486 730.952,138.819 727,129.5C 726.123,122.751 726.456,116.084 728,109.5C 731.955,102.015 737.789,100.015 745.5,103.5C 746.429,104.689 746.762,106.022 746.5,107.5C 739.045,104.645 734.212,106.978 732,114.5C 731.174,119.589 731.508,124.589 733,129.5C 734.674,133.089 737.507,134.755 741.5,134.5 Z"/></g>
<g><path style="opacity:0.436" fill="#858585" d="M 435.5,102.5 C 436.331,114.993 436.831,127.66 437,140.5C 437.383,141.056 437.883,141.389 438.5,141.5C 438.5,141.833 438.5,142.167 438.5,142.5C 437.167,142.5 436.5,143.167 436.5,144.5C 435.501,131.246 435.168,117.246 435.5,102.5 Z"/></g>
<g><path style="opacity:0.838" fill="#1a1a1a" d="M 606.5,102.5 C 608.722,102.178 610.556,102.845 612,104.5C 615.294,115.341 617.794,126.341 619.5,137.5C 617.856,137.714 616.356,137.38 615,136.5C 614.333,134.5 613.667,132.5 613,130.5C 609.981,130.354 606.815,130.688 603.5,131.5C 602.99,134.23 601.656,136.397 599.5,138C 594.167,138.667 588.833,138.667 583.5,138C 583,137.5 582.5,137 582,136.5C 581.333,125.833 581.333,115.167 582,104.5C 583.333,103.167 584.667,103.167 586,104.5C 586.333,113.833 586.667,123.167 587,132.5C 589.497,134.478 592.331,134.978 595.5,134C 596.701,133.097 597.535,131.931 598,130.5C 599.923,120.786 602.757,111.453 606.5,102.5 Z M 607.5,109.5 C 608.167,110.5 608.833,111.5 609.5,112.5C 610.585,116.76 611.252,121.094 611.5,125.5C 608.828,126.509 606.495,126.509 604.5,125.5C 605.521,120.142 606.521,114.808 607.5,109.5 Z"/></g>
<g><path style="opacity:0.764" fill="#141414" d="M 638.5,125.5 C 639.11,126.391 639.443,127.391 639.5,128.5C 639.833,129.833 640.167,129.833 640.5,128.5C 640.5,127.5 640.5,126.5 640.5,125.5C 640.334,118.492 640.5,111.492 641,104.5C 642.049,103.483 643.216,103.316 644.5,104C 645.653,114.757 645.82,125.59 645,136.5C 642.88,139.08 640.713,139.08 638.5,136.5C 635.486,129.807 632.486,123.141 629.5,116.5C 629.737,115.209 629.404,114.209 628.5,113.5C 627.794,112.443 627.461,112.776 627.5,114.5C 627.5,115.833 627.5,117.167 627.5,118.5C 627.666,124.176 627.499,129.843 627,135.5C 626.577,136.956 625.744,137.456 624.5,137C 623.347,126.243 623.18,115.41 624,104.5C 626,101.833 628,101.833 630,104.5C 633.136,111.416 635.97,118.416 638.5,125.5 Z"/></g>
<g><path style="opacity:0.883" fill="#1b1b1b" d="M 711.5,102.5 C 713.993,102.329 715.826,103.329 717,105.5C 719.735,115.274 722.235,125.108 724.5,135C 723.941,137.188 722.607,137.854 720.5,137C 719.034,135.448 718.034,133.614 717.5,131.5C 711.424,128.917 707.424,130.751 705.5,137C 704.207,137.49 702.873,137.657 701.5,137.5C 703.363,126.713 705.863,116.046 709,105.5C 709.698,104.309 710.531,103.309 711.5,102.5 Z M 712.5,113.5 C 713.167,113.833 713.833,114.167 714.5,114.5C 715.497,118.137 715.997,121.804 716,125.5C 714.301,126.406 712.467,126.739 710.5,126.5C 710.167,125.167 709.833,125.167 709.5,126.5C 709.336,122.135 710.336,117.802 712.5,113.5 Z"/></g>
<g><path style="opacity:0.75" fill="#161616" d="M 766.5,121.5 C 763.833,121.5 761.167,121.5 758.5,121.5C 758.5,122.5 758.5,123.5 758.5,124.5C 758.5,127.167 758.5,129.833 758.5,132.5C 758.5,133.833 759.167,134.5 760.5,134.5C 763.807,134.063 766.807,134.73 769.5,136.5C 767.121,138.042 764.454,138.709 761.5,138.5C 759.5,138.333 757.5,138.167 755.5,138C 755,137.5 754.5,137 754,136.5C 753.333,125.833 753.333,115.167 754,104.5C 755.996,102.941 758.329,102.274 761,102.5C 770.9,103.979 770.733,105.479 760.5,107C 756.321,114.34 758.488,118.173 767,118.5C 767.74,119.749 767.573,120.749 766.5,121.5 Z"/></g>
<g><path style="opacity:0.809" fill="#1b1b1b" d="M 678.5,103.5 C 679.822,103.33 680.989,103.663 682,104.5C 682.333,112.833 682.667,121.167 683,129.5C 688.465,136.717 692.131,135.717 694,126.5C 694.333,119.167 694.667,111.833 695,104.5C 696.333,103.167 697.667,103.167 699,104.5C 699.667,112.833 699.667,121.167 699,129.5C 697.291,137.279 692.458,140.445 684.5,139C 681,138.167 678.833,136 678,132.5C 677.194,122.756 677.361,113.089 678.5,103.5 Z"/></g>
<g><path style="opacity:0.78" fill="#919191" d="M 609.5,112.5 C 608.833,111.5 608.167,110.5 607.5,109.5C 607.393,107.621 607.893,107.288 609,108.5C 609.49,109.793 609.657,111.127 609.5,112.5 Z"/></g>
<g><path style="opacity:0.023" fill="#e4e4e4" d="M 714.5,114.5 C 713.833,114.167 713.167,113.833 712.5,113.5C 712.5,112.833 712.167,112.5 711.5,112.5C 713.257,107.725 714.257,108.392 714.5,114.5 Z"/></g>
<g><path style="opacity:0.12" fill="#fefffe" d="M 275.5,110.5 C 275.167,111.5 274.5,112.167 273.5,112.5C 273.5,111.167 274.167,110.5 275.5,110.5 Z"/></g>
<g><path style="opacity:0.331" fill="#c8c8c8" d="M 628.5,113.5 C 629.404,114.209 629.737,115.209 629.5,116.5C 628.833,117.167 628.167,117.833 627.5,118.5C 627.5,117.167 627.5,115.833 627.5,114.5C 628.167,114.5 628.5,114.167 628.5,113.5 Z"/></g>
<g><path style="opacity:0.385" fill="#8c8c8c" d="M 766.5,121.5 C 763.728,122.082 761.061,123.082 758.5,124.5C 758.5,123.5 758.5,122.5 758.5,121.5C 761.167,121.5 763.833,121.5 766.5,121.5 Z"/></g>
<g><path style="opacity:0.042" fill="#d2d2d2" d="M 664.5,122.5 C 665.5,122.5 666.5,122.5 667.5,122.5C 667.5,123.5 667.5,124.5 667.5,125.5C 666.167,124.833 665.167,123.833 664.5,122.5 Z"/></g>
<g><path style="opacity:0.013" fill="#f5f5f5" d="M 638.5,125.5 C 639.167,125.5 639.833,125.5 640.5,125.5C 640.5,126.5 640.5,127.5 640.5,128.5C 640.167,128.5 639.833,128.5 639.5,128.5C 639.443,127.391 639.11,126.391 638.5,125.5 Z"/></g>
<g><path style="opacity:0.388" fill="#717171" d="M 740.5,122.5 C 741.822,122.33 742.989,122.663 744,123.5C 744.667,126.833 744.667,130.167 744,133.5C 743.329,134.252 742.496,134.586 741.5,134.5C 744.421,130.198 744.087,126.198 740.5,122.5 Z"/></g>
<g><path style="opacity:0.51" fill="#cccccc" d="M 758.5,132.5 C 759.5,132.833 760.167,133.5 760.5,134.5C 759.167,134.5 758.5,133.833 758.5,132.5 Z"/></g>
<g><path style="opacity:0.102" fill="#d2d2d2" d="M 460.5,133.5 C 460.5,134.833 460.5,136.167 460.5,137.5C 458.219,135.968 458.219,134.634 460.5,133.5 Z"/></g>
<g><path style="opacity:0.178" fill="#cdcdcd" d="M 273.5,141.5 C 274.5,141.833 275.167,142.5 275.5,143.5C 274.167,143.5 273.5,142.833 273.5,141.5 Z"/></g>
<g><path style="opacity:0.038" fill="#b8b8b8" d="M 371.5,141.5 C 370.167,141.833 370.167,142.167 371.5,142.5C 371.5,143.167 371.5,143.833 371.5,144.5C 370.5,145.833 369.5,147.167 368.5,148.5C 368.642,144.944 369.476,141.61 371,138.5C 371.483,139.448 371.649,140.448 371.5,141.5 Z"/></g>
<g><path style="opacity:0.086" fill="#f7f7f7" d="M 452.5,146.5 C 451.5,146.5 450.5,146.5 449.5,146.5C 450.5,143.833 451.5,143.833 452.5,146.5 Z"/></g>
<g><path style="opacity:0.024" fill="#cbcbcb" d="M 303.5,150.5 C 303.443,151.609 303.11,152.609 302.5,153.5C 301.115,152.053 301.448,151.053 303.5,150.5 Z"/></g>
<g><path style="opacity:0.357" fill="#cdcdcd" d="M 275.5,152.5 C 275.167,153.5 274.5,154.167 273.5,154.5C 273.5,153.167 274.167,152.5 275.5,152.5 Z"/></g>
<g><path style="opacity:0.837" fill="#171717" d="M 607.5,188.5 C 607.666,179.161 607.5,169.827 607,160.5C 605.961,161.244 605.461,162.244 605.5,163.5C 605.5,164.167 605.5,164.833 605.5,165.5C 604.388,167.599 603.721,169.933 603.5,172.5C 602.315,177.903 600.815,183.237 599,188.5C 597.612,189.554 596.112,189.72 594.5,189C 591.957,182.328 589.957,175.495 588.5,168.5C 588.162,166.146 587.662,163.813 587,161.5C 586.506,163.134 586.34,164.801 586.5,166.5C 586.328,167.492 586.662,168.158 587.5,168.5C 587.03,175.399 586.364,182.232 585.5,189C 584.216,189.684 583.049,189.517 582,188.5C 581.333,177.5 581.333,166.5 582,155.5C 584.459,152.9 586.959,152.9 589.5,155.5C 591.7,163.645 594.2,171.645 597,179.5C 599,172.167 601,164.833 603,157.5C 604.845,153.205 607.512,152.538 611,155.5C 611.667,166.5 611.667,177.5 611,188.5C 609.708,189.791 608.542,189.791 607.5,188.5 Z"/></g>
<g><path style="opacity:0.906" fill="#1b1b1b" d="M 626.5,152.5 C 634.897,152.725 639.73,157.058 641,165.5C 642.5,173.421 641.167,180.755 637,187.5C 627.025,193.064 620.358,190.398 617,179.5C 616.13,173.083 616.464,166.749 618,160.5C 620.098,156.897 622.932,154.23 626.5,152.5 Z M 627.5,157.5 C 630.522,157.428 632.688,158.762 634,161.5C 637.045,168.88 636.712,176.214 633,183.5C 629.626,186.405 626.626,186.072 624,182.5C 619.789,173.205 620.955,164.872 627.5,157.5 Z"/></g>
<g><path style="opacity:0.87" fill="#131313" d="M 648.5,153.5 C 656.676,151.827 662.843,154.494 667,161.5C 669.49,169.8 668.823,177.8 665,185.5C 659.561,190.51 653.561,191.51 647,188.5C 646.333,177.5 646.333,166.5 647,155.5C 647.717,154.956 648.217,154.289 648.5,153.5 Z M 656.5,158.5 C 659.112,159.277 660.945,160.944 662,163.5C 664.826,171.109 663.659,177.943 658.5,184C 656.544,185.612 654.544,185.778 652.5,184.5C 651.366,176.245 651.199,167.912 652,159.5C 653.356,158.62 654.856,158.286 656.5,158.5 Z"/></g>
<g><path style="opacity:0.763" fill="#080808" d="M 680.5,157.5 C 679.5,157.5 678.5,157.5 677.5,157.5C 677.5,161.5 677.5,165.5 677.5,169.5C 680.167,169.5 682.833,169.5 685.5,169.5C 688.167,170.5 688.167,171.5 685.5,172.5C 682.833,172.5 680.167,172.5 677.5,172.5C 677.5,176.833 677.5,181.167 677.5,185.5C 678.5,185.5 679.5,185.5 680.5,185.5C 682.857,185.337 685.19,185.503 687.5,186C 688.833,187.333 688.833,188.667 687.5,190C 683.5,190.667 679.5,190.667 675.5,190C 675,189.5 674.5,189 674,188.5C 673.333,177.5 673.333,166.5 674,155.5C 674.5,155 675,154.5 675.5,154C 678.833,153.333 682.167,153.333 685.5,154C 687.271,154.535 687.604,155.369 686.5,156.5C 684.591,157.348 682.591,157.682 680.5,157.5 Z"/></g>
<g><path style="opacity:0.8" fill="#131313" d="M 698.5,183.5 C 698.5,184.833 699.167,185.5 700.5,185.5C 702.527,185.338 704.527,185.505 706.5,186C 707.833,187.333 707.833,188.667 706.5,190C 702.833,190.667 699.167,190.667 695.5,190C 695,189.5 694.5,189 694,188.5C 693.333,177.5 693.333,166.5 694,155.5C 695.049,154.483 696.216,154.316 697.5,155C 698.485,164.417 698.818,173.917 698.5,183.5 Z"/></g>
<g><path style="opacity:0.466" fill="#898989" d="M 656.5,158.5 C 654.856,158.286 653.356,158.62 652,159.5C 651.199,167.912 651.366,176.245 652.5,184.5C 651.833,184.5 651.5,184.833 651.5,185.5C 650.506,176.348 650.173,167.015 650.5,157.5C 652.735,157.205 654.735,157.539 656.5,158.5 Z"/></g>
<g><path style="opacity:0.491" fill="#838383" d="M 680.5,157.5 C 678.676,160.846 678.01,164.513 678.5,168.5C 681.059,168.198 683.393,168.532 685.5,169.5C 682.833,169.5 680.167,169.5 677.5,169.5C 677.5,165.5 677.5,161.5 677.5,157.5C 678.5,157.5 679.5,157.5 680.5,157.5 Z"/></g>
<g><path style="opacity:0.392" fill="#838383" d="M 437.5,160.5 C 436.884,169.963 436.217,179.297 435.5,188.5C 435.334,179.494 435.5,170.494 436,161.5C 436.383,160.944 436.883,160.611 437.5,160.5 Z"/></g>
<g><path style="opacity:0.025" fill="#c4c4c4" d="M 588.5,168.5 C 588.167,168.5 587.833,168.5 587.5,168.5C 587.672,167.508 587.338,166.842 586.5,166.5C 586.34,164.801 586.506,163.134 587,161.5C 587.662,163.813 588.162,166.146 588.5,168.5 Z"/></g>
<g><path style="opacity:0.033" fill="#cbcbcb" d="M 605.5,165.5 C 605.829,168.228 605.163,170.562 603.5,172.5C 603.721,169.933 604.388,167.599 605.5,165.5 Z"/></g>
<g><path style="opacity:0.592" fill="#494949" d="M 607.5,188.5 C 606.382,180.035 605.716,171.702 605.5,163.5C 605.461,162.244 605.961,161.244 607,160.5C 607.5,169.827 607.666,179.161 607.5,188.5 Z"/></g>
<g><path style="opacity:0.082" fill="#b3b3b3" d="M 387.5,166.5 C 388.272,167.694 389.272,168.694 390.5,169.5C 390.784,171.415 390.451,173.081 389.5,174.5C 389.737,173.209 389.404,172.209 388.5,171.5C 387.962,169.883 387.629,168.216 387.5,166.5 Z"/></g>
<g><path style="opacity:0.497" fill="#8f8f8f" d="M 685.5,172.5 C 683.657,173.283 681.657,173.95 679.5,174.5C 678.012,178.43 678.346,182.096 680.5,185.5C 679.5,185.5 678.5,185.5 677.5,185.5C 677.5,181.167 677.5,176.833 677.5,172.5C 680.167,172.5 682.833,172.5 685.5,172.5 Z"/></g>
<g><path style="opacity:0.027" fill="#dcdcdc" d="M 698.5,183.5 C 699.5,183.833 700.167,184.5 700.5,185.5C 699.167,185.5 698.5,184.833 698.5,183.5 Z"/></g>
<g><path style="opacity:0.93" fill="#413bc1" d="M 142.5,204.5 C 143.833,204.5 145.167,204.5 146.5,204.5C 147.273,214.71 152.106,222.377 161,227.5C 161.725,229.157 161.225,230.157 159.5,230.5C 155.824,229.183 155.491,229.85 158.5,232.5C 159.867,234.093 159.534,235.426 157.5,236.5C 154.739,234.955 152.406,232.955 150.5,230.5C 149.947,228.448 148.947,228.115 147.5,229.5C 144.729,229.579 142.063,229.079 139.5,228C 141.548,226.319 143.715,224.819 146,223.5C 146.667,220.167 146.667,216.833 146,213.5C 144.729,210.516 143.562,207.516 142.5,204.5 Z"/></g>
<g><path style="opacity:0.298" fill="#b2b1e1" d="M 165.5,216.5 C 166.5,216.833 167.167,217.5 167.5,218.5C 166.761,218.631 166.094,218.464 165.5,218C 164.262,217.31 164.262,216.81 165.5,216.5 Z"/></g>
<g><path style="opacity:0.522" fill="#d3d1f1" d="M 147.5,229.5 C 148.947,228.115 149.947,228.448 150.5,230.5C 149.609,229.89 148.609,229.557 147.5,229.5 Z"/></g>
<g><path style="opacity:0.239" fill="#cac8ec" d="M 159.5,230.5 C 159.167,231.167 158.833,231.833 158.5,232.5C 155.491,229.85 155.824,229.183 159.5,230.5 Z"/></g>
<g><path style="opacity:0.288" fill="#fefffe" d="M -0.5,283.5 C 0.5,283.833 1.16667,284.5 1.5,285.5C 0.833333,285.5 0.166667,285.5 -0.5,285.5C -0.5,284.833 -0.5,284.167 -0.5,283.5 Z"/></g>
<g><path style="opacity:0.288" fill="#fefffe" d="M 835.5,283.5 C 835.5,284.167 835.5,284.833 835.5,285.5C 834.833,285.5 834.167,285.5 833.5,285.5C 833.833,284.5 834.5,283.833 835.5,283.5 Z"/></g>
</svg>
