<svg xmlns="http://www.w3.org/2000/svg" role="img" viewBox="-1.87 -1.49 123.11 53.23"><title>SAS logo</title><path fill="#2d7bc8" d="M21.12027 15.13118l7.44515 8.9899c10.02215 12.15957.85838 22.70101-7.34248 24.75148C11.7674 51.2371 3.21399 46.31794.66457 38.79626c3.28897 5.35923 12.83776 6.52067 18.03763 3.25616 5.90132-3.70668 7.8482-10.21593 3.49511-15.497 0 0-3.48938-4.19989-6.08625-7.32115l.02494.0296c-.23426-.28426-.37026-.44732-.3724-.45038-1.12797-1.36717-.72704-3.23486.64479-4.36403 1.36143-1.1229 3.20672-1.13024 4.34056.21773l.81611.9853"/><path fill="#2d7bc8" d="M10.9065 33.47605l1.6937 2.04422c1.13332 1.34743 2.97914 1.3385 4.34151.21613 1.3693-1.12904 1.77182-2.9962.64332-4.3671-.00374-.00413-.66665-.80358-1.6297-1.95928l.96305 1.12344c-2.52754-3.04006-5.61449-6.75143-5.61449-6.75143-4.35198-5.28107-2.40567-11.7913 3.49574-15.49748 5.19987-3.26712 14.74856-2.10568 18.03648 3.25712C30.28671 4.01639 21.73386-.8991 12.27833 1.46432 4.07802 3.51333-5.0858 14.05254 4.9353 26.21423l7.10034 8.57686"/><path fill="#231f20" d="M42.7052 29.36002c.17186 4.71348 3.9791 6.20038 8.01753 6.20038 3.0582 0 7.21075-.74318 7.21075-4.77588 0-4.09323-4.8436-4.77601-9.74868-5.95359-4.84522-1.17903-9.74883-2.91659-9.74883-9.05857 0-6.45144 5.94212-9.11964 11.1336-9.11964 6.57743 0 11.8273 2.23435 12.23048 10.05135h-4.90307c-.3468-4.09416-3.69204-5.39826-6.92423-5.39826-2.9422 0-6.34624.8697-6.34624 4.0963 0 3.78323 5.1936 4.40402 9.75029 5.58212 4.90348 1.17864 9.75082 2.915 9.75082 9.1195 0 7.63262-6.6337 10.11125-12.69288 10.11125-6.69263 0-12.34503-2.91502-12.63262-10.85496h4.90308m49.38156 5.89305c-.63331.24893-1.09583.30733-1.49836.30733-1.55836 0-1.55836-1.11304-1.55836-3.59631V15.4625c0-7.50554-5.82425-8.80978-11.19025-8.80978-6.63637 0-12.34876 2.79327-12.63569 10.73307h4.90348c.23133-4.71442 3.28845-6.07998 7.44208-6.07998 3.11712 0 6.6337.74531 6.6337 5.33573 0 3.97083-4.61295 3.59844-10.03828 4.71562-5.0744 1.05464-10.09361 2.60406-10.09361 9.86375 0 6.3905 4.44108 8.99407 9.86602 8.99407 4.15082 0 7.7862-1.55154 10.49707-4.9619 0 3.47287 1.61716 4.9619 4.15616 4.9619 1.55516 0 2.65153-.31094 3.51604-.86822zm-7.95966-6.94769c0 2.91553-2.6546 7.25502-9.11644 7.25502-2.99846 0-5.76812-1.23797-5.76812-4.71348 0-3.90817 2.76966-5.14827 5.99878-5.76852 3.28898-.62039 6.98316-.68172 8.88578-2.17075v5.39773m12.51422 1.05464c.17186 4.71348 3.97803 6.20038 8.017 6.20038 3.05725 0 7.21075-.74318 7.21075-4.77588 0-4.09323-4.84361-4.77601-9.74976-5.95359-4.8452-1.17903-9.74975-2.91659-9.74975-9.05857 0-6.45144 5.94358-9.11964 11.13519-9.11964 6.5789 0 11.82877 2.23435 12.22982 10.05135h-4.90094c-.34893-4.09416-3.69618-5.39826-6.9253-5.39826-2.94259 0-6.34517.8697-6.34517 4.0963 0 3.78323 5.19414 4.40402 9.74976 5.58212 4.90254 1.17864 9.74975 2.915 9.74975 9.1195 0 7.63262-6.63623 10.11125-12.69235 10.11125-6.69103 0-12.34809-2.91502-12.63515-10.85496h4.90615m-61.49687 9.35394v-.67442h.45053c.22652 0 .47132.04946.47132.31923 0 .33177-.2448.3552-.52759.3552zm0 .27605h.3776l.57651.94424h.3688l-.61986-.95987c.32293-.03646.56772-.20573.56772-.59634 0-.4297-.2552-.61823-.77238-.61823h-.82651v2.17444h.32812zm.40106 1.73849c1.02598 0 1.90715-.79425 1.90715-1.88433 0-1.08436-.88117-1.88114-1.90715-1.88114-1.03544 0-1.91662.79678-1.91662 1.88114 0 1.09008.88118 1.88433 1.91662 1.88433zm-1.5365-1.88433c0-.89583.67039-1.56608 1.5365-1.56608.84891 0 1.52596.67025 1.52596 1.56608 0 .90467-.67705 1.57548-1.52596 1.57548-.86611 0-1.5365-.6708-1.5365-1.57548m82.6074-.13125v-.67338h.4452c.23186 0 .47505.04786.47505.31923 0 .33177-.24746.35415-.52705.35415zm0 .27709h.3776l.57278.94424h.36986l-.61718-.9609c.31772-.03543.56252-.2047.56252-.59531 0-.4297-.25426-.61823-.76825-.61823h-.82705v2.17444h.32973zm.39946 1.73849c1.02491 0 1.90516-.79425 1.90516-1.88537 0-1.08332-.88025-1.8801-1.90516-1.8801-1.03757 0-1.91768.79678-1.91768 1.8801 0 1.09112.88011 1.88537 1.91768 1.88537zm-1.53649-1.88537c0-.89479.67078-1.56504 1.5365-1.56504.8505 0 1.52329.67025 1.52329 1.56504 0 .90571-.67278 1.57548-1.5233 1.57548-.8657 0-1.53649-.66977-1.53649-1.57548"/></svg>