<svg id="Layer_1" data-name="Layer 1" xmlns="http://www.w3.org/2000/svg" viewBox="0 0 400.32001 159.07644"><defs><style>.cls-1{fill:#77787b;}.cls-2{fill:#f26522;}.cls-3{fill:#8dc63f;}.cls-4{fill:#00aeef;}.cls-5{fill:#ffc20e;}</style></defs><title>SEAL</title><path class="cls-1" d="M166.684,22.45771V72.341h-8.66277V33.24025h-.13956L142.40125,72.341h-5.73943L120.79941,33.24025h-.1043V72.341h-8.00023V22.4577h12.419l14.33316,36.978h.2086L154.788,22.4577Zm7.2437,3.79153a4.58181,4.58181,0,0,1,1.51309-3.49625,5.10478,5.10478,0,0,1,3.60054-1.40878,5.032,5.032,0,0,1,3.68723,1.444,4.69574,4.69574,0,0,1,1.46167,3.46247,4.51758,4.51758,0,0,1-1.49545,3.44337,5.16358,5.16358,0,0,1-3.65344,1.39115,5.0604,5.0604,0,0,1-3.63433-1.40878A4.553,4.553,0,0,1,173.92774,26.24924Zm9.2871,10.33156V72.341h-8.41745V36.58079Zm25.53439,29.63733a11.62852,11.62852,0,0,0,4.13967-.86965,17.40717,17.40717,0,0,0,4.17493-2.29607v7.82691a16.852,16.852,0,0,1-4.57451,1.73932,24.8785,24.8785,0,0,1-5.61751.592q-7.89741,0-12.83625-4.9917a17.36108,17.36108,0,0,1-4.94028-12.74957q0-8.62677,5.04458-14.21122,5.04387-5.5837,14.29643-5.58225a19.47618,19.47618,0,0,1,4.7831.60964,15.956,15.956,0,0,1,3.84293,1.40878v8.07076a17.22454,17.22454,0,0,0-3.98249-2.20939,11.49656,11.49656,0,0,0-4.15731-.783,10.551,10.551,0,0,0-8.0355,3.23477,12.17823,12.17823,0,0,0-3.06142,8.73181q0,5.42728,2.9395,8.45271a10.61228,10.61228,0,0,0,7.98408,3.02617ZM241.0308,35.99026a10.66163,10.66163,0,0,1,1.80981.13956,7.60919,7.60919,0,0,1,1.35737.34815v8.52175a7.315,7.315,0,0,0-1.93028-.92107,9.57633,9.57633,0,0,0-3.079-.43482,6.53456,6.53456,0,0,0-5.23556,2.609q-2.1396,2.609-2.13887,8.03551V72.34246h-8.41892V36.58227h8.41892V42.2174h.13956a9.86383,9.86383,0,0,1,3.47861-4.5745,9.41819,9.41819,0,0,1,5.59842-1.65264Zm3.62111,18.99287q0-8.87137,5.00934-14.05405,5.00859-5.18268,13.91449-5.18415,8.38437,0,13.09772,4.99171,4.71335,4.99318,4.71406,13.47967,0,8.69729-5.00934,13.84544-5.00859,5.14963-13.63685,5.14742-8.31609,0-13.20054-4.8874Q244.6512,63.43876,244.65191,54.98313ZM253.419,54.704q0,5.60136,2.53993,8.557a9.05793,9.05793,0,0,0,7.27015,2.95712,8.47507,8.47507,0,0,0,6.9925-2.95712q2.39964-2.95712,2.40037-8.76707,0-5.77323-2.487-8.71419A8.63739,8.63739,0,0,0,263.16,42.84026a8.81475,8.81475,0,0,0-7.18347,3.07905q-2.55828,3.08052-2.55755,8.7847Zm40.49041-8.73034a3.60758,3.60758,0,0,0,1.14731,2.83519,19.703,19.703,0,0,0,5.07838,2.59134q5.04386,2.01843,7.07917,4.53926a9.41168,9.41168,0,0,1,2.03457,6.10522,9.818,9.818,0,0,1-3.87819,8.106q-3.87817,3.06289-10.48875,3.06143a25.253,25.253,0,0,1-4.92266-.53914,21.91127,21.91127,0,0,1-4.5745-1.37352V63.02011a20.74,20.74,0,0,0,4.9403,2.53845,14.45945,14.45945,0,0,0,4.80074.94017,8.55931,8.55931,0,0,0,4.21019-.80061,2.85825,2.85825,0,0,0,1.3559-2.678,3.71693,3.71693,0,0,0-1.40878-2.93951,20.83573,20.83573,0,0,0-5.33986-2.76614,16.50617,16.50617,0,0,1-6.60907-4.38207,9.60068,9.60068,0,0,1-1.94792-6.19188,9.78339,9.78339,0,0,1,3.84441-7.94884,15.33506,15.33506,0,0,1,9.96726-3.11284,24.15926,24.15926,0,0,1,4.20873.4172,18.68734,18.68734,0,0,1,3.89581,1.07825v8.00025a18.02231,18.02231,0,0,0-3.89581-1.91413,13.00512,13.00512,0,0,0-4.41733-.80061,6.44359,6.44359,0,0,0-3.74011.9387,2.98093,2.98093,0,0,0-1.33975,2.57518ZM312.867,54.98313q0-8.87137,5.00934-14.05405,5.00859-5.18268,13.91449-5.18415,8.38437,0,13.09772,4.99171,4.71335,4.99318,4.71406,13.47967,0,8.69729-5.00934,13.84544-5.00859,5.14963-13.63685,5.14742-8.31609,0-13.20054-4.8874Q312.86629,63.43876,312.867,54.98313Zm8.76707-.27912q0,5.60136,2.53993,8.557a9.05793,9.05793,0,0,0,7.27015,2.95712,8.47507,8.47507,0,0,0,6.9925-2.95712q2.39964-2.95712,2.40037-8.76707,0-5.77323-2.487-8.71419a8.63739,8.63739,0,0,0-6.97488-2.93949,8.81475,8.81475,0,0,0-7.18347,3.07905q-2.56049,3.08052-2.55755,8.7847ZM377.53,43.469H364.992V72.34246h-8.52174V43.469H350.487V36.58227h5.98329V31.60819a12.37336,12.37336,0,0,1,3.6696-9.23569,12.86924,12.86924,0,0,1,9.409-3.60054,20.8886,20.8886,0,0,1,2.71327.15718,10.84919,10.84919,0,0,1,2.08747.46862V26.6679a8.88207,8.88207,0,0,0-1.46166-.592,7.58009,7.58009,0,0,0-2.40037-.34816,5.08458,5.08458,0,0,0-4.07063,1.65264,7.29876,7.29876,0,0,0-1.4264,4.88741v4.31449h12.538v-8.037l8.4527-2.57371V36.58227h8.52322V43.469h-8.52322V60.20106q0,3.30528,1.20016,4.66119a4.78965,4.78965,0,0,0,3.7739,1.35736,5.63338,5.63338,0,0,0,1.757-.34815,8.34085,8.34085,0,0,0,1.7922-.83439V71.9943a9.90959,9.90959,0,0,1-2.66187.83439,18.15147,18.15147,0,0,1-3.66958.38193q-5.32367,0-7.9826-2.83372-2.66187-2.83595-2.66184-8.54084V43.469Z"/><path class="cls-2" d="M4.61519,5.83143h39.512v39.512H4.61519Z"/><path class="cls-3" d="M48.24047,5.83143h39.512v39.512h-39.512Z"/><path class="cls-4" d="M4.61519,49.45524h39.512v39.512H4.61519Z"/><path class="cls-5" d="M48.24047,49.45524h39.512v39.512h-39.512Z"/><path d="M133.48642,139.13644a8.48763,8.48763,0,0,0,1.59451,4.2874q2.17418,2.58394,7.45045,2.58395a16.00741,16.00741,0,0,0,5.13065-.68183q3.74046-1.30552,3.7399-4.85521a3.57871,3.57871,0,0,0-1.83157-3.20821,19.87837,19.87837,0,0,0-5.81078-1.95857l-4.53067-.99452q-6.68-1.47484-9.1776-3.20821-4.23067-2.89551-4.23039-9.05681a12.02838,12.02838,0,0,1,4.13839-9.34129q4.13924-3.71844,12.15834-3.71845a18.64034,18.64034,0,0,1,11.42459,3.50623q4.72765,3.50679,4.95794,10.17777h-8.40433a5.991,5.991,0,0,0-3.37641-5.36546,11.57069,11.57069,0,0,0-5.20968-1.051,9.91584,9.91584,0,0,0-5.53083,1.36366,4.3104,4.3104,0,0,0-2.06637,3.80424,3.58876,3.58876,0,0,0,2.03759,3.35045,25.33627,25.33627,0,0,0,5.56018,1.73166l7.34377,1.73167a18.69256,18.69256,0,0,1,7.23823,3.03775q3.74215,2.95309,3.74216,8.54657a12.00726,12.00726,0,0,1-4.43415,9.52529q-4.43386,3.79127-12.52635,3.7907-8.26408,0-12.99991-3.73426a12.35114,12.35114,0,0,1-4.735-10.26356Z"/><path d="M196.914,117.61593H174.76869v8.88635h20.329V133.771h-20.329v10.76025h23.16808v7.52383H166.22268V110.205H196.914Z"/><path d="M216.71868,110.205h9.89443l14.80607,41.85008h-9.48239l-2.76231-8.603H213.76333l-2.83681,8.603H201.7794Zm-.57684,26.03593h10.71848l-5.28756-16.46775Z"/><path d="M246.74287,110.205H255.487v34.32625h20.89739v7.52383H246.74287Z"/></svg>