<svg xmlns="http://www.w3.org/2000/svg" role="img" viewBox="14.56 -3.44 1894.88 601.88"><title>Shanghai Open Source Information Technology Association logo</title><defs><style>.cls-1{fill:#86c128}.cls-2{fill:#035faf}</style></defs><path d="M335.92317 86.0418a206.59446 206.59446 0 0 0-79.50584 29.17732c3.86982-.8164 7.77182-1.55769 11.738-2.14159 104.08555-15.32357 200.88583 56.632 216.20939 160.71756 15.32352 104.08524-56.63236 200.88557-160.71791 216.20913-3.96618.58391-7.91626.99861-11.85717 1.33212a206.59457 206.59457 0 0 0 84.54131 5.02615c113.30723-16.68119 191.63791-122.05736 174.95676-235.36428S449.2304 69.36061 335.92317 86.0418z" class="cls-1"/><path d="M153.72941 322.96114C135.43453 198.69287 221.343 83.12253 345.61125 64.82764a227.00674 227.00674 0 0 1 74.26542 1.3333 257.31092 257.31092 0 0 0-147.94192-21.949C130.659 65.01066 32.9928 196.398 53.79159 337.67407 74.59033 478.94982 205.978 576.616 347.25374 555.81724a257.31331 257.31331 0 0 0 135.33937-63.65394 227.00822 227.00822 0 0 1-70.7302 22.67968c-124.26827 18.29489-239.83861-67.61357-258.1335-191.88184zm586.47513-176.56439h108.22568v-37.37387c-1.42006-.12149-2.809-.3617-4.258-.3617H728.51969c-28.90679 0-52.568 24.60037-52.902 54.7935v1.03466a57.33906 57.33906 0 0 0 2.64751 16.864c6.13243 19.4344 22.29283 34.14749 41.99287 37.4243h63.86371a14.99589 14.99589 0 0 1 4.4506.74953 16.59069 16.59069 0 0 1 11.476 15.92929c0 9.173-7.16683 16.67835-15.92664 16.67835H675.61766v39.79023c1.03484.06418 2.03291.27093 3.08263.27093h115.65254c29.113 0 52.93311-24.94511 52.93311-55.433a57.262 57.262 0 0 0-2.67859-17.25917c-6.97291-22.0978-26.89401-38.1738-50.25452-38.1738h-54.66747c-8.52648-.30989-16.1674-7.30222-15.40746-18.25441v-.00046c0-9.17307 7.16727-16.67838 15.92664-16.67838z" class="cls-2"/><path d="M1392.1131 106.84778h-84.51768a78.398 78.398 0 0 0-12.95042 1.17822v259.12083h48.61174V289.664h48.85635c49.481 0 82.57117-42.39649 82.57117-94.21431.00001-51.81831-33.0902-88.60191-82.57116-88.60191zm-14.64734 145.14315h-33.80463V148.27207h33.80463c31.51829 0 49.912 18.98638 49.912 49.053-.00003 30.06613-18.39371 54.66586-49.912 54.66586zm206.3109-103.65655h62.083v-.38251h.40983v-37.61771h-.40983v-.97081h-66.44386c-44.67809 0-81.23321 37.441-81.23321 83.20179v14.71391c0 45.76126 36.55512 83.2018 81.23321 83.2018h66.8253v-39.81373h-71.69a33.95626 33.95626 0 0 1-23.98923-31.62566h95.67926v-37.61771h-95.67482c.54861-18.28275 15.23285-33.08937 33.21035-33.08937zm226.28852-38.24028a52.62266 52.62266 0 0 0-13.94307-1.9434h-65.83355c-.35 0-.68837.0483-1.03655.05527h-40.09323v145.07238l-.31678 38.86465h47.60633l.31674-70.22628c.04524-.27219.12463-.5323.16766-.80542v-73.32371h47.07763c11.25124 0 20.45688 9.6404 20.45688 21.423l-.21474 122.93242h47.15436l.21475-125.87168c.00004-26.9188-17.73574-49.64888-41.55643-56.17723z" class="cls-1"/><path fill="#444" d="M736.15291 430.00986q12.22906 0 19.66079-.0624 7.43-.052 11.86856-.18024 4.42992-.11439 6.65181-.29811c1.47664-.11785 2.81809-.2565 4.014-.41942v7.91354q-1.67941-.23917-3.83371-.42289-2.15776-.17678-6.59288-.23571-4.43511-.06238-11.9275-.12132-7.49238-.0572-19.841-.05892v49.866q11.62593 0 19.18244-.05892 7.54958-.0572 12.94658-.12132 5.39181-.0572 9.70907-.23918 4.31553-.182 9.4699-.53727v8.02792q-3.598-.11958-6.7142-.2981c-2.07977-.11785-4.17687-.22184-6.29131-.2981q-3.18205-.12479-6.77313-.18025-3.598-.06239-8.1527-.12132-4.5547-.06238-10.43006-.05893h-13.66418q-8.27229 0-15.28286.05893-7.014.0572-13.24816.18025-6.2341.11958-11.92749.30157-5.69339.17677-11.44915.41595v-8.02792q5.397.23917 10.31221.416 4.91346.182 10.12849.30157t11.08865.18025q5.87016.05718 13.18576.05892v-77.43691q0-6.11453-.18024-9.28965c-.12132-2.1179-.29811-3.97583-.54075-5.57379a34.874 34.874 0 0 0 10.06957 1.19587c1.19934-.07972 1.83713.12132 1.92032.59967q.11439.71752-1.19933 1.55983-2.15776 1.32066-2.1595 5.87189zm86.54974 12.58614a75.46238 75.46238 0 0 0-10.54791-7.79222 83.65252 83.65252 0 0 0-11.38676-5.99321l3.71586-6.11453q2.51653 1.32066 5.45247 2.99834 2.93769 1.67942 5.99321 3.53561 3.05727 1.86139 6.05561 3.77479 2.99487 1.92378 5.39354 3.598zm6.35371 15.22393q-4.196 7.55478-8.74891 17.14079-4.55991 9.59816-9.95172 22.777a20.54708 20.54708 0 0 0-4.07635-3.234 31.22606 31.22606 0 0 0-4.07289-2.03818q2.99487-4.44031 6.05214-9.53229 3.05727-5.09545 5.754-10.30874 2.6985-5.215 4.91519-10.19089 2.215-4.97066 3.77479-9.28965a15.512 15.512 0 0 0 2.99834 2.93941 18.55993 18.55993 0 0 0 3.35541 1.7365zm.12132-43.755a83.35867 83.35867 0 0 0-9.77147-7.54957q-5.09544-3.35884-12.16667-7.196l3.83718-5.87189q6.22891 3.47842 12.10774 7.43172 5.87016 3.95678 10.54792 7.43172zm49.50552-9.22726q7.55476 0 14.38509-.24264 6.83725-.23917 11.2689-.5962v7.54958q-4.43511-.35877-11.2689-.59967-6.83205-.234-14.38509-.23918h-29.60557q-3.00006 5.397-6.11453 10.06957-3.11966 4.67429-6.95337 9.4699a20.47067 20.47067 0 0 0-3.11619-2.7557 18.66724 18.66724 0 0 0-3.71586-2.03818 73.1101 73.1101 0 0 0 13.60518-16.66591 61.12348 61.12348 0 0 0 7.13362-19.1755 21.06217 21.06217 0 0 0 4.43338 2.27388 18.8147 18.8147 0 0 0 4.31553 1.08148c.88043.15945 1.23746.47835 1.078.9567a3.5259 3.5259 0 0 1-1.55636 1.55983c-.40209.23917-.70019.41942-.90124.54074a3.8842 3.8842 0 0 0-.77645.71752 8.69965 8.69965 0 0 0-1.08148 1.68115c-.39862.75565-.95669 1.85793-1.67768 3.293a13.63082 13.63082 0 0 1-.77991 1.55983 13.624 13.624 0 0 0-.77645 1.55983zm-34.16373 16.42327q4.43511.23917 11.08865.416 6.65528.182 14.56534.18025 8.2723 0 14.68666-.18025 6.41091-.17677 10.846-.416l-.71752 27.80657q5.15264 0 8.50973-.11786c2.23576-.07626 4.39525-.201 6.475-.36049v6.7142q-3.11967-.23917-6.475-.3605-3.35883-.11958-8.631-.12132l-.47835 21.81682c2.55465 0 4.75228-.03466 6.59288-.11786q2.7557-.11438 5.39354-.36049v6.59288q-2.63611-.23917-5.45247-.36049-2.8181-.11439-6.65527-.11786a54.115 54.115 0 0 1-.83884 9.4699 9.41075 9.41075 0 0 1-2.8181 5.33462 12.00845 12.00845 0 0 1-6.11106 2.51652 102.59766 102.59766 0 0 1-10.61031 1.01909 9.2376 9.2376 0 0 0-.47835-4.31553 17.92739 17.92739 0 0 0-2.75916-4.31553 65.41927 65.41927 0 0 0 8.69345 1.078 9.25888 9.25888 0 0 0 5.092-.9567 5.3579 5.3579 0 0 0 2.39867-3.47668 31.29781 31.29781 0 0 0 .721-6.35371h-26.732q-5.75577 0-11.21.23918a81.40638 81.40638 0 0 0-9.16833.8423l1.91685-28.53448q-3.95676 0-6.475.12132-2.51652.1196-5.27222.3605v-6.7142c1.91685.15945 3.71586.28423 5.39354.36049q2.51652.1196 6.7142.11786zm4.43684 33.5606l-1.31719 21.81682h40.03563l.36049-21.81682zm39.07893-5.754l.3605-21.57418H850.634l-1.31719 21.57418zm-15.8236 26.01446a33.3515 33.3515 0 0 0-2.33628-2.877q-1.50264-1.67941-3.23751-3.4143-1.74181-1.73661-3.53562-3.35883-1.799-1.617-3.23751-2.69677l4.5547-4.43338q1.19588.95668 2.936 2.3952 1.73661 1.44024 3.53908 3.11619 1.79381 1.68462 3.47669 3.41776 1.67421 1.73661 2.99487 3.17512zm.36049-27.44954a29.86575 29.86575 0 0 0-5.45593-6.35717 70.15443 70.15443 0 0 0-6.891-5.62925l3.83371-4.55817a33.95164 33.95164 0 0 1 3.35883 2.39867q1.799 1.44024 3.65347 3.0538 1.86139 1.62222 3.598 3.35883 1.73661 1.74181 3.17512 3.17859zm83.67272-40.63876q-12.7074 0-23.4945.721v-7.79221q9.10421.35876 19.35922.5962 10.24807.24437 23.43557.24264h14.14246q5.99494 0 10.79055-.12132 4.79388-.1196 8.99155-.30157 4.19074-.17678 8.74891-.416v7.79221q-5.033-.47835-9.52882-.60313-4.49751-.11439-10.01064-.11786v34.88472q4.43511 0 8.27056-.06239 3.83718-.0572 7.37279-.11785 3.53562-.0624 7.0123-.24264 3.47842-.17679 7.0747-.416v8.02793q-3.598-.23918-7.0123-.416-3.42123-.182-6.95338-.24264-3.54081-.05719-7.43172-.11785-3.89957-.0624-8.33295-.0624v31.408q0 4.31553.23917 9.59122.23917 5.27222.83884 10.66923h-9.46989q.59793-5.397.83884-10.66923.23918-5.27223.24264-9.59122v-31.52573h-28.41316a105.26442 105.26442 0 0 1-2.69678 16.60352 55.91577 55.91577 0 0 1-5.21329 13.30361 53.99355 53.99355 0 0 1-8.45081 11.32783 103.06128 103.06128 0 0 1-12.288 10.66923 14.35572 14.35572 0 0 0-2.936-3.35536 12.68223 12.68223 0 0 0-4.735-2.156 83.49612 83.49612 0 0 0 12.52717-8.8737 44.95125 44.95125 0 0 0 8.631-10.01064 45.81288 45.81288 0 0 0 5.27223-12.10428 89.32659 89.32659 0 0 0 2.69677-15.28633q-9.46817 0-17.74046.18025-8.2723.182-15.82361.6586v-8.02793q7.66917.47835 16.00386.71752 8.32948.24438 18.042.23918.47835-13.66412.41942-22.17731-.06221-8.5063-.41924-12.8253zm7.43172-.11785c.07973 1.435.11786 3.397.11786 5.87189q0 3.7176-.05893 8.39188-.06239 4.6743-.18025 10.00718-.11958 5.33462-.23917 10.84948h28.05267v-35.12043zm96.73716 36.20191a114.75356 114.75356 0 0 0-9.65014-7.73329 75.21246 75.21246 0 0 0-10.72816-6.4161l3.71586-5.87189q5.397 3.11966 10.9708 6.77313a106.08625 106.08625 0 0 1 10.12849 7.49411zm7.19255 13.18576q-5.03305 11.26716-9.768 22.17731-4.73668 10.90841-8.69 20.978a21.63833 21.63833 0 0 0-4.6171-2.64131 40.245 40.245 0 0 0-4.49577-1.55636 85.489 85.489 0 0 0 5.397-7.85114 100.79752 100.79752 0 0 0 4.97412-9.352q2.45414-5.20983 5.03305-11.74725 2.57892-6.53049 5.45594-15.04369a20.39633 20.39633 0 0 0 3.234 3.05727 18.4409 18.4409 0 0 0 3.47676 1.97917zm-.23917-43.39792q-2.39694-2.15257-4.31553-3.77479-1.91859-1.617-4.07636-3.11619-2.15776-1.49745-4.79387-3.1162-2.63612-1.617-6.59288-4.01742l3.955-5.99322q5.75577 3.35885 11.44915 7.31387a108.56535 108.56535 0 0 1 9.65015 7.43172zm80.67438-7.3104q-1.67942-.1196-3.47322-.30157-1.799-.17679-5.21677-.2981-3.416-.11439-9.28965-.18025-5.87535-.0572-15.8236-.05893h-29.13068q.47835 15.94667.721 27.39061.23918 11.44914-.05892 19.7821a119.91314 119.91314 0 0 1-1.25826 14.3227 65.04943 65.04943 0 0 1-2.75917 11.14759 62.03745 62.03745 0 0 1-4.61363 10.12849q-2.8181 4.97586-6.77312 11.32783a14.07584 14.07584 0 0 0-4.31553-3.17512 11.25617 11.25617 0 0 0-5.03652-.54074q4.07635-4.43513 7.13362-8.45081a42.23711 42.23711 0 0 0 5.15437-8.87023 55.228 55.228 0 0 0 3.35537-11.32783 110.93655 110.93655 0 0 0 1.68115-15.76121q.41595-9.29139.05892-22.05946-.35875-12.76459-1.32065-30.38548c1.03988.15945 2.17683.2981 3.41776.416q1.85619.182 5.45593.30157 3.59282.11958 9.88932.12132h33.623q6.23411 0 9.83039-.12132c2.39867-.07973 4.17341-.18025 5.33461-.30157q1.73661-.17679 3.4143-.416zm-41.71331 62.33425c1.27559.3189 1.87526.95669 1.79554 1.92032q-.1196 1.435-2.03818 2.03818a9.13657 9.13657 0 0 0-2.69677 2.09364 31.04629 31.04629 0 0 0-3.77479 4.85627q-2.03817 3.11965-4.19421 5.93428-2.15776 2.81809-5.03651 6.29131a14.37355 14.37355 0 0 0-3.53562-2.45413 40.5303 40.5303 0 0 0-4.2566-1.74008 43.8959 43.8959 0 0 0 10.30874-9.768 45.19387 45.19387 0 0 0 6.35371-12.288 17.88981 17.88981 0 0 0 3.41776 1.91685 34.94087 34.94087 0 0 0 3.65693 1.19936zm1.31719-49.02718a33.67263 33.67263 0 0 0 3.23751-6.95337 50.68848 50.68848 0 0 0 1.67769-6.83552 11.41664 11.41664 0 0 0 3.71586 2.64131 38.2823 38.2823 0 0 0 3.955 1.31719q1.32066.23917 1.19934 1.43851a2.20083 2.20083 0 0 1-1.55983 1.799 8.94214 8.94214 0 0 0-2.69677 1.79554 22.77913 22.77913 0 0 0-3.29644 4.79734h10.66927q3.71759 0 6.475-.06239 2.75571-.05719 4.85281-.11785 2.09536-.0624 3.598-.18025c.9983-.07626 1.97579-.201 2.936-.36049q-.60314 3.83718-.77991 7.01576-.17679 3.17166-.18025 7.969v11.151q0 4.55469.30157 8.86676.29635 4.31553.65859 6.7142a53.15341 53.15341 0 0 0-7.73329-.77992q-4.6119-.17678-12.16667-.2981v31.64721a16.98227 16.98227 0 0 1-.65859 5.1509 5.52271 5.52271 0 0 1-2.69677 3.17859 16.07819 16.07819 0 0 1-5.99322 1.55636 86.8396 86.8396 0 0 1-10.43006.30157 11.87754 11.87754 0 0 0-.47834-4.07289 10.71384 10.71384 0 0 0-2.63785-4.19767 60.37471 60.37471 0 0 0 7.79222 1.14041 18.41824 18.41824 0 0 0 4.676-.18025 3.215 3.215 0 0 0 2.215-1.26173 3.97308 3.97308 0 0 0 .54074-2.09364V458.78q-4.6743 0-7.97246.05893-3.29644.0624-5.754.18025-2.45934.11958-4.31553.30156a30.98524 30.98524 0 0 0-3.53561.53728q.35876-2.39694.59966-6.29131.23917-3.89958.23918-9.28965v-11.151q0-4.91346-.18025-8.39188a65.48424 65.48424 0 0 0-.65859-6.59288 114.06179 114.06179 0 0 0 14.38499.72097zm26.49284 5.39355h-32.9644v11.98642h32.9644zm0 17.14426h-32.9644v11.98642h32.9644zm9.94824 49.145q-2.7557-3.71238-4.735-6.41263-1.97578-2.69329-3.77478-4.8528c-1.19934-1.442-2.4784-2.83542-3.83718-4.19767q-2.03818-2.033-4.676-4.55471l5.03652-4.31553q3.11446 3.23406 5.45247 5.63619 2.33974 2.39694 4.37792 4.61363 2.033 2.22015 3.955 4.43338 1.91338 2.22015 4.31552 4.97759zm33.44275-63.41224q-2.39694 4.31553-4.5547 8.03139-2.15776 3.71759-4.55471 7.553a7.34612 7.34612 0 0 0-3.29644-2.877 19.3949 19.3949 0 0 0-6.0556-1.08148q4.55471-3.47322 9.70907-11.74379a192.07112 192.07112 0 0 0 10.55138-19.7821 75.93767 75.93767 0 0 0 3.71586-9.10941 37.43817 37.43817 0 0 0 1.67768-8.50973q2.75571 1.07628 4.49578 1.73661 1.73661.66033 4.2566 1.49743 2.87529.96191 2.99487 1.97925.11959 1.0191-2.156 2.33628a12.93975 12.93975 0 0 0-4.19767 4.2566 42.9428 42.9428 0 0 0-3.23751 6.17346c-.39863.88044-.77645 1.73661-1.137 2.57545s-.74178 1.69849-1.14041 2.57892v87.74561h-8.3884q.59793-5.15263.95669-11.80618.35877-6.65526.3605-13.12336zm93.38179-10.90841q-2.87529-.1196-5.754-.23918-2.87528-.11958-7.19254-.24264-4.31553-.11437-11.02973-.11785h-17.38q-7.19082 0-12.88766.06239-5.69337.0572-10.24981.11786-4.55471.06239-8.09032.18024-3.53561.11959-6.534.23918V408.914q2.63611.35357 5.03652.53727 2.39694.182 6.23238.23918 3.83718.06239 10.06957.11785 6.23412.0624 16.42327.06239h16.54113q6.59288 0 11.151-.11785c3.033-.08319 5.59113-.13865 7.6709-.18025q3.11446-.06239 5.99321-.30156zm-61.73458 83.19437h-7.6709q.35876-3.00007.53727-5.397.182-2.39694.18025-5.39354v-19.06113q0-2.27735-.12132-3.71586a15.30085 15.30085 0 0 0-.47835-2.7557q2.87529 0 5.51487.05893 2.63611.06239 5.87536.11785 3.234.0624 7.49064.0624h22.17731q4.6119 0 7.72982-.0624 3.11967-.052 5.27569-.11785 2.15776-.0624 4.43685-.05893a18.77231 18.77231 0 0 0-.30156 2.57545c-.0416.83885-.05893 2.14217-.05893 3.89611v17.9831q0 3.11446.11785 5.5114a50.45777 50.45777 0 0 0 .59967 5.39354h-8.27056v-7.18908h-43.034zm49.74816-65.93226q-3.7176-.23917-11.08866-.41942-7.37278-.182-18.2812-.18025-8.75064 0-15.34526.18025-6.59288.17678-10.42659.41942v-6.7142c1.2756.08319 2.676.15945 4.19421.24264 1.51823.07626 3.27564.13865 5.27569.17678q2.99487.0624 6.94991.12132 3.95676.0624 9.352.05893 3.35364 0 7.6709-.05893 4.31551-.06239 8.5132-.12132 4.19074-.05719 7.79221-.17678c2.39521-.08319 4.19421-.15945 5.39355-.24264zm0 17.86178q-1.799-.11958-4.19768-.24264-2.39694-.11439-5.813-.18024-3.416-.052-8.15271-.11786-4.73669-.06239-11.20651-.06239-3.35883 0-7.07123.06239-3.71759.0624-7.25494.11786-3.53561.06239-6.53048.18024-3.00007.12478-4.9152.24264v-6.83552q1.9134.12478 4.9152.24264 2.99487.1196 6.53048.18025c2.35708.0416 4.77655.07626 7.25494.11785q3.71239.0624 7.07123.0624 6.83205 0 11.567-.0624c3.15779-.04159 5.85456-.07625 8.09379-.11785q3.35362-.0624 5.63271-.18025 2.27736-.11958 4.07636-.24264zm-6.7142 17.62261h-43.034v16.54112h43.034zm-18.81848-60.18169q-3.598-3.47322-8.09378-7.07123a107.82532 107.82532 0 0 0-9.16833-6.59287l3.83371-5.39355q2.99487 1.91859 5.33462 3.47669 2.33975 1.55982 4.43685 3.17858 2.09536 1.61183 4.2566 3.47322 2.15256 1.86141 4.67256 4.13875zm67.12811 57.6617q-2.75569 6.83205-6.23239 13.54625a132.27842 132.27842 0 0 1-7.67089 12.94659l-6.95337-4.31553a43.776 43.776 0 0 0 8.21163-11.08866 62.35646 62.35646 0 0 0 5.57379-14.3227zm18.34013-63.1731a59.38239 59.38239 0 0 0 3.83718-7.612 30.0189 30.0189 0 0 0 1.91686-6.534c1.27906.48182 2.55812.91857 3.83718 1.32066a22.99566 22.99566 0 0 0 3.59454.83884q1.799.23917 2.10057 1.19934c.19758.63779-.26 1.27559-1.37958 1.91685a15.02042 15.02042 0 0 0-2.7557 2.63785 39.09019 39.09019 0 0 0-4.19768 6.23238h19.5395q9.71253 0 16.60351-.18024 6.88926-.17679 9.65015-.54074-.60314 3.83718-.77991 6.95337-.182 3.11965-.18025 7.91007V441.4q0 4.55469.30157 8.86676.29636 4.31553.65859 6.7142a34.72423 34.72423 0 0 0-4.01743-.53727q-2.22015-.182-6.11106-.30157-3.89958-.1196-10.19089-.18025-6.29132-.0572-16.243-.05893-10.31047 0-16.302.05893-5.99494.0624-9.4699.18025-3.47843.11958-5.27569.30157-1.799.17678-3.59454.53727a54.51066 54.51066 0 0 0 .65859-6.47156q.17677-3.71758.18025-9.1094v-23.9797q0-4.90827-.18025-8.32949-.182-3.416-.65859-6.534 2.39173.24437 6.71073.42288 4.31555.17684 11.74727.29815zm44.59379 5.5114h-55.263v10.43353h55.263zm0 15.46658h-55.263v10.42659h55.263zm0 15.46311h-55.263V450.149h55.263zm7.553 42.79479a36.8233 36.8233 0 0 1-1.97925 6.77312 10.95 10.95 0 0 1-3.11619 4.31553 12.79678 12.79678 0 0 1-5.03305 2.39867 40.68635 40.68635 0 0 1-7.73329 1.01909q-3.11965.23917-7.79221.2981-4.6743.0624-9.65015 0t-9.58775-.11785q-4.61709-.0624-7.73329-.30157-5.03306-.24438-6.95337-2.3952-1.91859-2.163-1.91686-7.553V468.0073a27.77918 27.77918 0 0 0-.18025-3.59454 20.47621 20.47621 0 0 0-.54074-2.63784 44.73281 44.73281 0 0 0 4.79735.77991 18.70656 18.70656 0 0 0 3.955-.05893q1.55463-.23917 1.55636.59967a1.991 1.991 0 0 1-.95669 1.55637 3.70753 3.70753 0 0 0-1.67769 3.35536v18.46145a6.23428 6.23428 0 0 0 .23918 1.85793 2.43468 2.43468 0 0 0 1.078 1.32066 7.23157 7.23157 0 0 0 2.57892.83884 28.51275 28.51275 0 0 0 4.61363.30156h12.52716q3.53562 0 7.0123-.06239 3.47322-.06239 6.35371-.18025a43.16107 43.16107 0 0 0 6.05214-.54074 6.68609 6.68609 0 0 0 3.65693-1.73661 7.41446 7.41446 0 0 0 1.85793-3.71586 51.99234 51.99234 0 0 0 .90124-6.59288 8.8638 8.8638 0 0 0 7.67101 4.55471zm-25.654-4.19421a82.10205 82.10205 0 0 0-8.32949-8.32949 94.31487 94.31487 0 0 0-8.69345-6.65527l4.19767-5.27569q1.799 1.32064 4.07636 3.11965 2.27214 1.799 4.735 3.77479 2.45412 1.97578 4.79387 4.07289 2.33454 2.10057 4.2566 3.89611zm38.83975 11.74725q-2.63611-4.19595-4.9152-7.3728-2.27735-3.17685-4.5547-5.87535-2.27734-2.69331-4.676-5.03305-2.39694-2.33974-5.27222-4.85281l5.27222-4.67949a114.54873 114.54873 0 0 1 10.01064 10.073q4.85626 5.51139 10.12849 12.58609zm35.48446-69.64466q-5.397.11439-10.19089.357-4.79386.24438-7.91007.71752v-7.67089q1.55463.24437 3.77479.41942 2.215.182 4.676.36049c1.63609.11786 3.29644.20105 4.97413.23918q2.51652.06239 4.676.05892-.12478-9.34857-.54074-15.22393a63.37983 63.37983 0 0 0-1.01909-8.50974 31.3431 31.3431 0 0 0 4.97412.71752 30.29669 30.29669 0 0 0 3.89611 0q3.11446-.23918 3.41776.60314.29637.8371-1.61876 2.3952a5.66686 5.66686 0 0 0-1.91685 4.676v15.34179q4.19073-.11439 7.25147-.36049 3.05727-.234 5.813-.71752v7.67089q-2.75569-.47835-5.813-.71752t-7.25147-.357v22.53434q3.11445-1.67941 5.99321-3.53908 2.87527-1.851 5.51486-3.89611a22.12984 22.12984 0 0 0 .5962 7.55651q-2.7557 1.32066-5.813 2.99487-3.05727 1.67942-6.29131 3.47669v36.8016a14.08116 14.08116 0 0 1-.90124 5.39354 7.5045 7.5045 0 0 1-3.17512 3.53561 19.40831 19.40831 0 0 1-5.99321 2.1595 80.29446 80.29446 0 0 1-9.352 1.25826 13.69823 13.69823 0 0 0-.77992-4.97759 18.3511 18.3511 0 0 0-2.936-4.61362q8.87024 2.27734 12.40585 1.1404 3.53561-1.14387 3.53908-6.65527v-29.96952q-4.67949 2.76609-8.99155 5.397-4.31553 2.63612-7.553 4.676a22.32065 22.32065 0 0 0-5.15437-8.8737 132.25354 132.25354 0 0 0 21.699-8.14924zm30.56572 22.17385c-1.11961.07972-2.21842.14211-3.29644.18024-1.078.0416-2.21842.14212-3.41429.30157v-7.196q5.75058.364 12.04535.54074 6.29652.17678 14.92584.18024V416.8241q-8.51667 0-15.46311.23917-6.95685.24438-11.86857.71752v-7.43172q5.033.47835 11.86857.721 6.83205.23917 15.46311.23917 0-7.19081-.23918-11.74725-.24437-4.55469-.721-7.67436 2.27736.364 4.19768.48182 1.91338.11958 4.91173 0 1.44024-.11959 1.61876.89776a1.93506 1.93506 0 0 1-.77992 1.85794 6.59771 6.59771 0 0 0-1.25826 2.93941 20.66436 20.66436 0 0 0-.53728 4.8528v8.39188q9.10941 0 16.7803-.18024 7.67436-.182 12.70741-.77992v7.43172q-5.033-.59272-12.76633-.77645-7.73155-.182-16.72138-.18024v19.77863q7.90835-.11438 13.78543-.2981 5.87016-.182 11.2689-.42288-1.799 6.47848-3.89611 12.04881a81.3593 81.3593 0 0 1-4.79734 10.489 85.27541 85.27541 0 0 1-5.93428 9.352 90.86066 90.86066 0 0 1-7.3104 8.74891 71.7865 71.7865 0 0 0 30.687 13.4284 17.96554 17.96554 0 0 0-3.41776 3.35537 25.89817 25.89817 0 0 0-2.69677 4.5547 108.12641 108.12641 0 0 1-16.72137-7.91007 120.97777 120.97777 0 0 1-12.645-8.631 77.99332 77.99332 0 0 1-14.62773 9.768 94.02908 94.02908 0 0 1-20.13567 7.72982 12.47494 12.47494 0 0 0-3.29644-4.31206 26.58372 26.58372 0 0 0-4.6171-3.23752 84.6055 84.6055 0 0 0 21.27955-5.69511 76.72839 76.72839 0 0 0 15.64335-9.16833 65.70305 65.70305 0 0 1-5.754-6.65527 78.86513 78.86513 0 0 1-5.45593-8.21164q-2.57892-4.43511-4.79388-9.23072-2.22016-4.79391-4.01744-9.70905zm6.59288-.357a62.2188 62.2188 0 0 0 3.53908 8.80784 88.10565 88.10565 0 0 0 4.55471 8.1527 68.39909 68.39909 0 0 0 10.36766 12.76634 55.91768 55.91768 0 0 0 11.14758-13.4284 75.83786 75.83786 0 0 0 6.95338-16.29848zm120.8348-21.22065q9.46816 0 16.96054-.05892 7.49238-.0572 13.30708-.23918 5.813-.182 10.12849-.42288 4.31553-.234 7.67436-.47835V428.45q-3.35883-.23918-6.41263-.416c-2.03818-.12479-4.49577-.201-7.37279-.24264q-4.31553-.05719-10.66924-.11785-6.3537-.0624-16.42327-.0624a121.14045 121.14045 0 0 0 20.43723 31.467 84.23075 84.23075 0 0 0 26.19474 19.71972 21.38111 21.38111 0 0 0-4.07635 3.955 32.2967 32.2967 0 0 0-2.27735 3.9585 182.30425 182.30425 0 0 1-15.76468-13.00551 118.019 118.019 0 0 1-12.58609-13.66757 111.70293 111.70293 0 0 1-9.94825-15.10262 120.52426 120.52426 0 0 1-7.73329-17.32451h-1.4385v63.17656c0 1.51477.05892 3.17512.18024 4.97066q.17679 2.70371.53728 5.21676H1569.4c.3189-1.84059.55807-3.61533.71752-5.33461s.23918-3.338.23918-4.85281v-63.1765h-1.43851A112.77415 112.77415 0 0 1 1553.455 459.501q-10.66923 15.5775-28.17052 29.96606a22.13309 22.13309 0 0 0-3.11619-3.71586 27.74957 27.74957 0 0 0-4.31553-3.11619 74.63612 74.63612 0 0 0 13.60518-9.4699 108.97212 108.97212 0 0 0 12.52716-12.82527 106.11883 106.11883 0 0 0 10.61031-15.40418 111.50844 111.50844 0 0 0 7.97246-17.32451q-9.59295 0-15.76468.0624-6.17693.06238-10.37113.11785c-2.79729.0416-5.2133.11785-7.25147.24264q-3.05727.17678-6.41264.416V419.819q6.71247.60314 18.2812.90123 11.56875.30158 29.30747.2981v-15.34181q0-4.91867-.23918-8.99156-.23917-4.07634-.47834-5.99667 2.7557.24437 4.97412.36049 2.215.12479 4.2566.12132c1.27559 0 2.03818.36049 2.27735 1.078q.35877 1.08147-1.32065 2.03817a5.22093 5.22093 0 0 0-1.55637 1.14041 2.31152 2.31152 0 0 0-.59966 1.61876zm30.32655-5.15437q-3.83718-4.19593-8.69-8.57212-4.85626-4.37273-10.00717-8.45081l4.91173-4.07636q5.27742 3.83718 10.24981 7.97246 4.97586 4.13876 9.05048 8.21164zm52.14683 6.7142q4.91346 0 8.5132-.24264 3.59281-.23917 6.47156-.71752v7.79222a44.68987 44.68987 0 0 0-6.41263-.83884q-3.66041-.23917-8.57213-.23918v51.90419q0 6.11454.18025 10.55138a85.38283 85.38283 0 0 0 .77991 8.63106h-8.99155q.47835-3.72279.721-8.39535.23918-4.66908.23917-10.78709v-51.90419q-4.79907 0-8.39188.2981-3.598.30158-6.475.77992V421.618q2.88049.48355 6.475.71752 3.598.24438 8.39188.24264v-12.58958q0-4.07117-.06239-6.82859c-.03813-1.83713-.10052-3.41776-.17678-4.73495-.08319-1.32065-.18025-2.47839-.30157-3.48015q-.17678-1.49743-.53727-3.17512 2.87528.60313 4.5547.83884a32.7348 32.7348 0 0 0 4.43338.23917c1.03989 0 1.63609.18025 1.799.54074.15945.357-.201.981-1.078 1.85794a5.49273 5.49273 0 0 0-1.14041 2.69677 18.13343 18.13343 0 0 0-.41942 3.77478zm28.64887 17.1408q4.31553.35875.84231 2.52a5.78543 5.78543 0 0 0-1.50091 1.67768 40.62749 40.62749 0 0 0-2.3952 4.31206q-1.50264 3.00007-3.71586 8.09379-2.22016 5.09544-5.45594 12.88419a18.77314 18.77314 0 0 0-7.31387-3.234 97.27 97.27 0 0 0 7.73329-14.92583 70.05306 70.05306 0 0 0 4.01743-13.723 17.72414 17.72414 0 0 0 4.07289 1.73661 29.42557 29.42557 0 0 0 3.71586.6585zm19.06111-19.29683q-.23916 10.42486-.89776 18.87741a135.24326 135.24326 0 0 1-2.03818 15.46657 90.58824 90.58824 0 0 1-3.41776 12.76287 62.56325 62.56325 0 0 1-5.03305 10.84948 70.43884 70.43884 0 0 1-7.0123 9.8304 127.88609 127.88609 0 0 1-9.1718 9.65014 11.07074 11.07074 0 0 0-3.35536-2.99834 20.06521 20.06521 0 0 0-4.43685-1.91685 102.32153 102.32153 0 0 0 13.54625-12.40931 48.14065 48.14065 0 0 0 8.63106-13.96221 73.30057 73.30057 0 0 0 4.5547-18.9398 269.10517 269.10517 0 0 0 1.55983-27.21036h-7.91354q-3.234 0-5.57379.11786c-1.55636.07972-2.91861.15945-4.07635.23917s-2.215.16292-3.17512.23917v-6.95337a23.18366 23.18366 0 0 0 3.05726.30157c1.078.03813 2.37441.10052 3.89611.17678q2.27215.12478 5.57379.12479h8.21164q0-6.83726-.23918-12.52717-.24437-5.69857-.721-10.01064a38.926 38.926 0 0 0 4.61709.5962 46.807 46.807 0 0 0 4.8528 0c.79725 0 1.25827.24264 1.37959.721.11785.47835-.14212 1.03989-.77992 1.67769a5.90269 5.90269 0 0 0-1.37958 3.05726 22.8499 22.8499 0 0 0-.41942 4.49578v6.11106c0 2.00352-.0416 3.9585-.11786 5.87883q5.75058 0 9.82693-.0624c2.71757-.04159 5.03652-.07626 6.95337-.11785q2.8805-.0624 4.9152-.18025 2.03817-.11958 3.598-.36049a70.22453 70.22453 0 0 0-.77992 7.13362q-.30156 4.37792-.65859 12.16667l-2.39867 46.38933a25.2225 25.2225 0 0 1-1.37959 7.553 10.40133 10.40133 0 0 1-3.8961 4.91519 20.76234 20.76234 0 0 1-7.36933 2.93595 73.19272 73.19272 0 0 1-11.68832 1.37958 12.83982 12.83982 0 0 0-1.37959-4.91519 25.794 25.794 0 0 0-3.17512-4.55471 85.23989 85.23989 0 0 0 10.846 1.01563 15.31085 15.31085 0 0 0 6.65527-1.07455 6.46021 6.46021 0 0 0 3.35537-3.598 22.83477 22.83477 0 0 0 1.19933-6.77313l2.51653-56.0984zm35.96274 50.58354q-.84231-4.07115-2.03818-8.39188-1.20106-4.31553-2.51652-8.50974-1.32066-4.19593-2.81809-7.969-1.49743-3.78-3.05727-6.89445l6.35371-2.877q1.19586 2.51652 2.69677 6.23239 1.49743 3.71758 2.99834 7.91353 1.49743 4.19595 2.877 8.74891 1.37784 4.55471 2.45759 8.74891zm70.60482-67.48864a132.70255 132.70255 0 0 1-9.70908 11.151 127.32248 127.32248 0 0 1-10.78708 9.82692q-5.75577 4.67428-12.52717 9.23073-6.77485 4.55469-15.04369 9.23072a18.34271 18.34271 0 0 0-2.81809-4.2566 14.77123 14.77123 0 0 0-4.01743-2.93595 89.33382 89.33382 0 0 0 20.62095-9.83039 117.59915 117.59915 0 0 0 20.61748-16.90162 65.864 65.864 0 0 0 8.39188-10.19088 35.52069 35.52069 0 0 0 4.31553-9.22726 23.90662 23.90662 0 0 0 3.65693 2.51652 15.49123 15.49123 0 0 0 4.13529 1.67769c1.35531.31889 1.99658.76258 1.91685 1.31719q-.11958.8423-2.15949 1.31718a3.40854 3.40854 0 0 0-1.19587.721q-.72273.60313-1.55983 1.43851 5.51139 6.4733 11.02972 11.86857a94.741 94.741 0 0 0 11.62593 9.70907 84.33506 84.33506 0 0 0 13.06791 7.553 96.89666 96.89666 0 0 0 15.22393 5.51487 12.50471 12.50471 0 0 0-2.99833 3.05726 20.60882 20.60882 0 0 0-1.91686 4.25314 103.24712 103.24712 0 0 1-13.96568-6.35371 110.53952 110.53952 0 0 1-12.58609-8.09031 113.78449 113.78449 0 0 1-11.80964-10.1285q-5.75052-5.63607-11.50807-12.46815zm29.73035 87.98825q-12.94659.47834-22.35756.83884-9.411.35875-16.18063.65859-6.77485.29637-11.39022.66206-4.61711.35357-7.79222.77645a43.71293 43.71293 0 0 0-5.45247 1.01909q-2.27734.59793-4.43685 1.31719a20.30977 20.30977 0 0 0-1.25826-4.49231 23.58416 23.58416 0 0 0-1.97578-3.89611 31.56923 31.56923 0 0 0 7.67089-3.9585 55.31647 55.31647 0 0 0 7.6709-6.95337q3.598-3.71239 6.17345-6.53049 2.57892-2.81808 4.43685-5.03305a52.71175 52.71175 0 0 0 3.23405-4.2566q1.37786-2.03817 2.70024-4.19421-24.09937.23917-37.76174 1.07455v-8.14924q16.18063 1.07628 47.11032 1.078 30.56745 0 46.74982-1.078v8.14924q-4.43511-.35355-9.40751-.53727-4.97585-.182-11.21-.30157-6.23412-.11439-14.0246-.18025-7.794-.052-17.62261-.05546 1.08149.9567 2.21843 1.79554c.75911.56154 1.45584 1.03989 2.0971 1.43851q2.03818 1.32066 1.799 2.27735c-.16291.64127-.83884.96016-2.03817.96016a6.24227 6.24227 0 0 0-2.63785 1.37612 60.29779 60.29779 0 0 0-5.754 5.09544q-2.39692 2.27736-4.1942 4.07636-1.799 1.799-3.598 3.65693-1.799 1.85621-3.83372 4.01743-2.04338 2.15256-4.79734 5.033l50.587-1.799q-3.234-3.5928-6.53049-6.59287-3.30164-2.99489-7.612-6.47156l5.39355-5.15784q4.31552 3.962 7.72982 7.13362 3.416 3.18206 6.475 6.29478 3.05727 3.11965 6.11453 6.475 3.05208 3.34843 6.65181 7.43173l-6.475 5.1509q-1.79381-2.39694-3.4143-4.37446-1.61704-1.9757-3.05724-3.7747zm-2.51653-52.02552q-2.51652-.35876-5.27569-.54074-2.7609-.17677-5.99321-.36049-3.23925-.17679-7.13362-.23571-3.89437-.06238-8.8113-.06239-4.91348 0-8.80784.06239-3.89958.0624-7.13362.23571-3.23925.182-5.93429.36049-2.6985.182-5.33461.54074v-8.5132q2.6361.364 5.45593.54074 2.81291.182 5.99322.3605 3.17165.17677 7.0123.23917 3.832.06239 8.74891.05893 4.91865 0 8.75237-.05893 3.83718-.0572 7.07123-.23917 3.23925-.17679 5.99321-.3605c1.8406-.11785 3.63614-.2981 5.397-.54074zM676.08908 556.4843l2.20109-1.37612q2.31375 4.5079 5.38661 4.50617a4.74836 4.74836 0 0 0 3.397-1.338 4.38184 4.38184 0 0 0 1.40732-3.32071 5.31038 5.31038 0 0 0-1.19241-3.16818 22.41282 22.41282 0 0 0-3.955-3.79559 32.21119 32.21119 0 0 1-3.72279-3.28257 7.33713 7.33713 0 0 1-1.41078-2.32935 7.23876 7.23876 0 0 1-.45062-2.49919 6.26456 6.26456 0 0 1 1.7886-4.52351 5.99615 5.99615 0 0 1 4.49924-1.851 6.26828 6.26828 0 0 1 3.7228 1.12654 12.62773 12.62773 0 0 1 3.07113 3.338l-2.09711 1.71928a13.424 13.424 0 0 0-2.09363-2.4056 3.87442 3.87442 0 0 0-2.65865-.95323 3.47176 3.47176 0 0 0-2.56505.99136 3.41129 3.41129 0 0 0-.99136 2.52 4.1766 4.1766 0 0 0 .88391 2.65518 27.11711 27.11711 0 0 0 4.01049 3.56681 22.16211 22.16211 0 0 1 4.5547 4.5027 7.53217 7.53217 0 0 1 1.42811 4.35366 7.09831 7.09831 0 0 1-2.18722 5.1717 6.958 6.958 0 0 1-5.07812 2.19416q-5.09551.00005-7.94826-5.80251zm20.63481-22.2917h2.63784v11.49074H712.551V534.1926h2.59971v27.40794H712.551v-13.24469h-13.18927v13.24469h-2.63784zm35.3388-1.10575l12.10431 28.51369h-2.78l-4.08329-9.35205h-11.203l-4.04863 9.35205h-2.89088l12.2498-28.51369zm-.32583 6.06947l-4.44378 10.30528h8.8529zm16.47527 22.44422V534.1926h.57887l17.23785 20.99531V534.1926h2.565v27.40794h-.57885l-17.1269-20.72494v20.72494zm51.78634-22.82554l-1.98619 2.02085a15.9955 15.9955 0 0 0-4.75228-3.397 12.70583 12.70583 0 0 0-5.33115-1.182 10.99124 10.99124 0 0 0-5.49406 1.56676 11.36961 11.36961 0 0 0-5.81644 9.96212 11.7178 11.7178 0 0 0 3.4143 8.37455 11.33565 11.33565 0 0 0 8.54786 3.57027 10.2096 10.2096 0 0 0 6.7038-2.30854 9.46416 9.46416 0 0 0 3.34151-6.28092h-8.274v-2.63438h11.19957q-.10919 6.53049-3.68466 10.177a12.54125 12.54125 0 0 1-9.359 3.64307 13.8013 13.8013 0 0 1-10.6415-4.31553 14.428 14.428 0 0 1-3.99317-10.13195 14.27235 14.27235 0 0 1 3.97237-10.0765 13.63437 13.63437 0 0 1 10.44393-4.2566q6.46808.00008 11.70911 5.2688zm6.39876-4.5824h2.63785v11.49074h13.18922V534.1926h2.5997v27.40794h-2.5997v-13.24469h-13.18922v13.24469h-2.63785zm35.33877-1.10575l12.10427 28.51369h-2.78l-4.08329-9.35205H835.774l-4.04862 9.35205h-2.89089l12.24986-28.51369zm-.32583 6.06947l-4.44379 10.30528h8.8529zm16.08361-4.96372h2.59972v27.40794h-2.59972zm16.4406 13.81662a15.206 15.206 0 0 1 1.80594-7.32773 13.577 13.577 0 0 1 4.94986-5.26876 12.98779 12.98779 0 0 1 6.84938-1.90645 13.54008 13.54008 0 0 1 11.924 7.11975 15.37049 15.37049 0 0 1 .01733 14.50295 13.48421 13.48421 0 0 1-4.96719 5.248 13.02309 13.02309 0 0 1-6.86671 1.90992 13.22716 13.22716 0 0 1-6.88405-1.88912 13.52345 13.52345 0 0 1-5.00532-5.20983 14.66841 14.66841 0 0 1-1.82324-7.17873zm24.64531-.11092a11.60987 11.60987 0 0 0-3.23405-8.32255 10.37224 10.37224 0 0 0-7.78875-3.397 10.14211 10.14211 0 0 0-7.78874 3.4143 11.89234 11.89234 0 0 0-3.12313 8.32255 11.61871 11.61871 0 0 0 3.21672 8.30176 10.64217 10.64217 0 0 0 15.51857.07626 11.61151 11.61151 0 0 0 3.19938-8.39532zm7.87541-13.7057h5.16823a29.056 29.056 0 0 1 5.99668.38129 6.96263 6.96263 0 0 1 2.58585 1.338 6.45456 6.45456 0 0 1 1.82327 2.38481 7.6349 7.6349 0 0 1 .65166 3.189 7.12724 7.12724 0 0 1-1.44544 4.6171 6.24948 6.24948 0 0 1-3.63267 2.27041 34.17025 34.17025 0 0 1-6.7038.47835h-1.8406v12.749h-2.60318zm2.60318 2.67251v9.352h4.371q3.94116.078 5.241-1.35532a4.86173 4.86173 0 0 0 1.29986-3.37616q0-4.61709-6.32251-4.62056zm18.82541-2.67251h14.89117v2.71064h-12.288v8.54786h12.17707v2.676h-12.17706v10.7628h12.17707v2.71064h-14.78025zm19.36961 27.40794V534.1926h.57887L965.07 555.18791V534.1926h2.56505v27.40794h-.57887l-17.1269-20.72494v20.72494zm24.03178-5.11624l2.20109-1.37612q2.31375 4.5079 5.38661 4.50617a4.74836 4.74836 0 0 0 3.397-1.338 4.38183 4.38183 0 0 0 1.40731-3.32071 5.31036 5.31036 0 0 0-1.1924-3.16818 22.41282 22.41282 0 0 0-3.955-3.79559 32.21242 32.21242 0 0 1-3.7228-3.28257 7.33749 7.33749 0 0 1-1.41089-2.3293 7.239 7.239 0 0 1-.45061-2.49919 6.26456 6.26456 0 0 1 1.7886-4.52351 5.99614 5.99614 0 0 1 4.49924-1.851 6.26828 6.26828 0 0 1 3.7228 1.12654 12.62773 12.62773 0 0 1 3.07113 3.338l-2.09711 1.71928a13.424 13.424 0 0 0-2.09363-2.4056 3.87442 3.87442 0 0 0-2.65865-.95323 3.47175 3.47175 0 0 0-2.56505.99136 3.41129 3.41129 0 0 0-.99136 2.52 4.17665 4.17665 0 0 0 .8839 2.65518 27.11791 27.11791 0 0 0 4.0105 3.56681 22.16211 22.16211 0 0 1 4.5547 4.5027 7.53224 7.53224 0 0 1 1.42811 4.35366 7.09828 7.09828 0 0 1-2.18723 5.1717 6.958 6.958 0 0 1-5.07811 2.19416q-5.0954 0-7.94815-5.80256zm19.54986-8.47508a15.20607 15.20607 0 0 1 1.80593-7.32773 13.57709 13.57709 0 0 1 4.94986-5.26876 12.98782 12.98782 0 0 1 6.84939-1.90645 13.54008 13.54008 0 0 1 11.924 7.11975 15.37056 15.37056 0 0 1 .01733 14.50295 13.48429 13.48429 0 0 1-4.96719 5.248 13.0231 13.0231 0 0 1-6.86672 1.90992 13.22713 13.22713 0 0 1-6.884-1.88912 13.52331 13.52331 0 0 1-5.00532-5.20983 14.66841 14.66841 0 0 1-1.82328-7.17873zm24.6453-.11092a11.60986 11.60986 0 0 0-3.234-8.32255 10.37224 10.37224 0 0 0-7.78875-3.397 10.14214 10.14214 0 0 0-7.78875 3.4143 11.89233 11.89233 0 0 0-3.12312 8.32255 11.61874 11.61874 0 0 0 3.21671 8.30176 10.64217 10.64217 0 0 0 15.51857.07626 11.61147 11.61147 0 0 0 3.19934-8.39532zm7.98287-13.7057h2.60318v16.52726q0 2.55811.12478 3.85451a5.82579 5.82579 0 0 0 .87 2.50266 5.26551 5.26551 0 0 0 2.07631 1.90646 6.04829 6.04829 0 0 0 2.87355.70712 5.81385 5.81385 0 0 0 2.68984-.58927 5.55407 5.55407 0 0 0 1.95152-1.66381 6.34654 6.34654 0 0 0 1.10228-2.34668 21.24692 21.24692 0 0 0 .3085-4.371V534.1926h2.565v16.52726a19.7876 19.7876 0 0 1-.79378 6.378 7.87413 7.87413 0 0 1-2.80076 3.702 7.7016 7.7016 0 0 1-4.71762 1.487 9.73129 9.73129 0 0 1-3.89957-.74525 7.822 7.822 0 0 1-2.89088-2.07977 7.50819 7.50819 0 0 1-1.60836-2.97754 24.80773 24.80773 0 0 1-.45408-5.76444zm23.7094 0h5.16477a28.39191 28.39191 0 0 1 5.92735.40209 7.02586 7.02586 0 0 1 2.728 1.31719 6.27663 6.27663 0 0 1 1.78861 2.364 7.77843 7.77843 0 0 1 .65166 3.20978 6.84994 6.84994 0 0 1-2.35014 5.5114q-2.345 2.007-6.64834 1.85446l9.359 12.749h-3.21671l-9.32085-12.749h-1.48357v12.749h-2.59972zm2.59972 2.67251v9.31389h4.48191a8.32648 8.32648 0 0 0 4.89786-1.08841 4.83854 4.83854 0 0 0 .01734-7.11976 8.38 8.38 0 0 0-4.80775-1.10574zm43.36326 2.4056l-2.02085 1.63956a11.1924 11.1924 0 0 0-9.28965-4.73149 10.7246 10.7246 0 0 0-7.96553 3.43509 11.60534 11.60534 0 0 0-3.345 8.41615 11.4147 11.4147 0 0 0 3.27217 8.31909 10.97606 10.97606 0 0 0 8.18391 3.3415 11.30827 11.30827 0 0 0 9.14406-4.5027l2.02085 1.63955a12.45648 12.45648 0 0 1-4.8424 4.066 14.85559 14.85559 0 0 1-6.4681 1.39344 13.39057 13.39057 0 0 1-10.11809-4.12141 15.49716 15.49716 0 0 1-2.11444-17.61568 13.27071 13.27071 0 0 1 5.06078-5.1717 13.65648 13.65648 0 0 1 6.95684-1.87179 14.645 14.645 0 0 1 6.683 1.4905 12.52683 12.52683 0 0 1 4.84245 4.27389zm5.23756-5.07811h14.89117v2.71064h-12.288v8.54786h12.17707v2.676h-12.17707v10.7628h12.17707v2.71064h-14.78025zm28.00761 0h2.59971v27.40794h-2.59971zm8.56173 27.40794V534.1926h.57887l17.23785 20.99531V534.1926h2.565v27.40794h-.57887l-17.12693-20.72494v20.72494zm26.70774-27.40794h13.009v2.71064h-10.40579v8.54786h10.40579v2.71064h-10.40579v13.4388h-2.60319zm16.40594 13.81662a15.206 15.206 0 0 1 1.80594-7.32773 13.577 13.577 0 0 1 4.94986-5.26876 12.98779 12.98779 0 0 1 6.84938-1.90645 13.54008 13.54008 0 0 1 11.924 7.11975 15.37049 15.37049 0 0 1 .01733 14.50295 13.48421 13.48421 0 0 1-4.96719 5.248 13.02309 13.02309 0 0 1-6.86671 1.90992 13.22716 13.22716 0 0 1-6.88405-1.88912 13.52345 13.52345 0 0 1-5.00532-5.20983 14.66841 14.66841 0 0 1-1.82324-7.17873zm24.64531-.11092a11.60987 11.60987 0 0 0-3.23405-8.32255 10.37224 10.37224 0 0 0-7.78875-3.397 10.14211 10.14211 0 0 0-7.78874 3.4143 11.89234 11.89234 0 0 0-3.12313 8.32255 11.61871 11.61871 0 0 0 3.21672 8.30176 10.64217 10.64217 0 0 0 15.51857.07626 11.61151 11.61151 0 0 0 3.19938-8.39532zm8.02099-13.7057h5.16477a28.39191 28.39191 0 0 1 5.92735.40209 7.026 7.026 0 0 1 2.728 1.31719 6.27651 6.27651 0 0 1 1.7886 2.364 7.77827 7.77827 0 0 1 .65167 3.20978 6.84994 6.84994 0 0 1-2.35015 5.5114q-2.34494 2.007-6.64834 1.85446l9.359 12.749h-3.21672l-9.32084-12.749h-1.48357v12.749h-2.59972zm2.59972 2.67251v9.31389h4.48191a8.32652 8.32652 0 0 0 4.89786-1.08841 4.83853 4.83853 0 0 0 .01733-7.11976 8.38 8.38 0 0 0-4.80774-1.10574zm18.03162 24.73543l3.68813-27.40794h.39516l10.55485 22.48234 10.47859-22.48234h.39862l3.71933 27.40794h-2.56506l-2.53039-19.62266-9.17873 19.62266h-.64819l-9.28965-19.77517-2.52693 19.77517zm44.99242-28.51369l12.10428 28.51369h-2.78l-4.08328-9.35205h-11.20305l-4.04862 9.35205h-2.89088l12.24986-28.51369zm-.32583 6.06947l-4.44378 10.30528h8.8529zm13.87555-2.29121v-2.67251h14.236v2.67251h-5.78177v24.73543h-2.63784v-24.73543zm17.59834-2.67251h2.59972v27.40794h-2.59972zm7.41092 13.81662a15.206 15.206 0 0 1 1.80594-7.32773 13.577 13.577 0 0 1 4.94986-5.26876 12.98779 12.98779 0 0 1 6.84938-1.90645 13.54008 13.54008 0 0 1 11.924 7.11975 15.37052 15.37052 0 0 1 .01734 14.50295 13.48436 13.48436 0 0 1-4.96719 5.248 13.02312 13.02312 0 0 1-6.86672 1.90992 13.22716 13.22716 0 0 1-6.884-1.88912 13.52345 13.52345 0 0 1-5.00532-5.20983 14.66841 14.66841 0 0 1-1.82329-7.17873zm24.64531-.11092a11.60983 11.60983 0 0 0-3.23405-8.32255 10.37223 10.37223 0 0 0-7.78874-3.397 10.14211 10.14211 0 0 0-7.78875 3.4143 11.89234 11.89234 0 0 0-3.12313 8.32255 11.61871 11.61871 0 0 0 3.21672 8.30176 10.64217 10.64217 0 0 0 15.51857.07626 11.61151 11.61151 0 0 0 3.19938-8.39532zm7.91007 13.70224V534.1926h.57887l17.23785 20.99531V534.1926h2.565v27.40794h-.57887l-17.12693-20.72494v20.72494zm33.17584-24.73543v-2.67251h14.236v2.67251h-5.78176v24.73543h-2.63785v-24.73543zm17.9935-2.67251h14.89117v2.71064h-12.288v8.54786h12.17707v2.676H1401.233v10.7628h12.17707v2.71064h-14.78025zm43.50884 5.07811l-2.02084 1.63956a11.1924 11.1924 0 0 0-9.28965-4.73149 10.72459 10.72459 0 0 0-7.96553 3.43509 11.6053 11.6053 0 0 0-3.345 8.41615 11.41466 11.41466 0 0 0 3.27218 8.31909 10.976 10.976 0 0 0 8.1839 3.3415 11.30831 11.30831 0 0 0 9.14407-4.5027l2.02084 1.63955a12.45648 12.45648 0 0 1-4.8424 4.066 14.85554 14.85554 0 0 1-6.46809 1.39344 13.39061 13.39061 0 0 1-10.1181-4.12141 15.49713 15.49713 0 0 1-2.11443-17.61568 13.27064 13.27064 0 0 1 5.06078-5.1717 13.65646 13.65646 0 0 1 6.95684-1.87179 14.6449 14.6449 0 0 1 6.683 1.4905 12.52683 12.52683 0 0 1 4.84243 4.27389zm5.16824-5.07811h2.63784v11.49074h13.18925V534.1926h2.59971v27.40794h-2.59971v-13.24469h-13.18923v13.24469h-2.63784zm24.75276 27.40794V534.1926h.57887l17.23785 20.99531V534.1926h2.56505v27.40794h-.57887l-17.12693-20.72494v20.72494zm25.58467-13.59132a15.206 15.206 0 0 1 1.80594-7.32773 13.577 13.577 0 0 1 4.94985-5.26876 12.98785 12.98785 0 0 1 6.84939-1.90645 13.54008 13.54008 0 0 1 11.924 7.11975 15.37056 15.37056 0 0 1 .01733 14.50295 13.48429 13.48429 0 0 1-4.96719 5.248 13.0231 13.0231 0 0 1-6.86672 1.90992 13.22713 13.22713 0 0 1-6.884-1.88912 13.52331 13.52331 0 0 1-5.00532-5.20983 14.66841 14.66841 0 0 1-1.82328-7.17873zm24.64531-.11092a11.60987 11.60987 0 0 0-3.23405-8.32255 10.37224 10.37224 0 0 0-7.78875-3.397 10.14214 10.14214 0 0 0-7.78875 3.4143 11.89233 11.89233 0 0 0-3.12312 8.32255 11.61874 11.61874 0 0 0 3.21671 8.30176 10.64217 10.64217 0 0 0 15.51857.07626 11.61148 11.61148 0 0 0 3.19939-8.39532zm7.8754-13.7057h2.63785v24.77356h9.97251v2.63438h-12.61036zm15.5775 13.81662a15.20607 15.20607 0 0 1 1.80593-7.32773 13.57709 13.57709 0 0 1 4.94986-5.26876 12.98782 12.98782 0 0 1 6.84939-1.90645 13.54008 13.54008 0 0 1 11.924 7.11975 15.37056 15.37056 0 0 1 .01733 14.50295 13.48429 13.48429 0 0 1-4.96719 5.248 13.0231 13.0231 0 0 1-6.86672 1.90992 13.22713 13.22713 0 0 1-6.884-1.88912 13.52331 13.52331 0 0 1-5.00532-5.20983 14.66841 14.66841 0 0 1-1.82328-7.17873zm24.6453-.11092a11.60986 11.60986 0 0 0-3.234-8.32255 10.37224 10.37224 0 0 0-7.78875-3.397 10.14214 10.14214 0 0 0-7.78875 3.4143 11.89233 11.89233 0 0 0-3.12312 8.32255 11.61874 11.61874 0 0 0 3.21671 8.30176 10.64217 10.64217 0 0 0 15.51857.07626 11.61147 11.61147 0 0 0 3.19934-8.39532zm32.954-9.1233l-1.98618 2.02085a15.99562 15.99562 0 0 0-4.75228-3.397 12.70587 12.70587 0 0 0-5.33115-1.182 10.9913 10.9913 0 0 0-5.49407 1.56676 11.36962 11.36962 0 0 0-5.81643 9.96212 11.71779 11.71779 0 0 0 3.41429 8.37455 11.33567 11.33567 0 0 0 8.54787 3.57027 10.20962 10.20962 0 0 0 6.7038-2.30854 9.46415 9.46415 0 0 0 3.3415-6.28092h-8.274v-2.63438h11.19958q-.10918 6.53049-3.68466 10.177a12.54125 12.54125 0 0 1-9.359 3.64307 13.80132 13.80132 0 0 1-10.64151-4.31553 14.428 14.428 0 0 1-3.99316-10.13195 14.27231 14.27231 0 0 1 3.97237-10.0765 13.63436 13.63436 0 0 1 10.44392-4.2566q6.46808.00008 11.70911 5.2688zm4.40915-4.5824h2.99834l6.61368 11.3001 6.54088-11.3001h3.00181l-8.23937 14.31577v13.09217h-2.53039v-13.09217zm43.07553-1.10575l12.10428 28.51369h-2.78l-4.08328-9.35205h-11.203l-4.04862 9.35205h-2.89091l12.24986-28.51369zm-.32583 6.06947l-4.44378 10.30528h8.8529zm13.76809 17.32798l2.2011-1.37612q2.31373 4.5079 5.38661 4.50617a4.74837 4.74837 0 0 0 3.397-1.338 4.38187 4.38187 0 0 0 1.40731-3.32071 5.31043 5.31043 0 0 0-1.1924-3.16818 22.413 22.413 0 0 0-3.955-3.79559 32.213 32.213 0 0 1-3.72279-3.28257 7.33731 7.33731 0 0 1-1.41078-2.32935 7.23876 7.23876 0 0 1-.45062-2.49919 6.26457 6.26457 0 0 1 1.78861-4.52351 5.99612 5.99612 0 0 1 4.49924-1.851 6.26822 6.26822 0 0 1 3.72279 1.12654 12.62757 12.62757 0 0 1 3.07113 3.338l-2.0971 1.71928a13.42368 13.42368 0 0 0-2.09364-2.4056 3.87439 3.87439 0 0 0-2.65864-.95323 3.47175 3.47175 0 0 0-2.56505.99136 3.41129 3.41129 0 0 0-.99136 2.52 4.17659 4.17659 0 0 0 .8839 2.65518 27.11791 27.11791 0 0 0 4.0105 3.56681 22.16211 22.16211 0 0 1 4.5547 4.5027 7.53224 7.53224 0 0 1 1.42811 4.35366 7.09832 7.09832 0 0 1-2.18723 5.1717 6.958 6.958 0 0 1-5.07811 2.19416q-5.09552.00005-7.94828-5.80251zm17.99697 0l2.20109-1.37612q2.31375 4.5079 5.38661 4.50617a4.74836 4.74836 0 0 0 3.397-1.338 4.38184 4.38184 0 0 0 1.40732-3.32071 5.31038 5.31038 0 0 0-1.19241-3.16818 22.41282 22.41282 0 0 0-3.955-3.79559 32.21119 32.21119 0 0 1-3.72279-3.28257 7.33713 7.33713 0 0 1-1.41078-2.32935 7.23876 7.23876 0 0 1-.45062-2.49919 6.26456 6.26456 0 0 1 1.7886-4.52351 5.99616 5.99616 0 0 1 4.49925-1.851 6.26825 6.26825 0 0 1 3.72279 1.12654 12.62773 12.62773 0 0 1 3.07113 3.338l-2.0971 1.71928a13.42368 13.42368 0 0 0-2.09364-2.4056 3.87441 3.87441 0 0 0-2.65864-.95323 3.47177 3.47177 0 0 0-2.56506.99136 3.41129 3.41129 0 0 0-.99136 2.52 4.1766 4.1766 0 0 0 .88391 2.65518 27.11766 27.11766 0 0 0 4.01049 3.56681 22.16185 22.16185 0 0 1 4.5547 4.5027 7.53218 7.53218 0 0 1 1.42812 4.35366 7.09832 7.09832 0 0 1-2.18723 5.1717 6.958 6.958 0 0 1-5.07811 2.19416q-5.09552.00005-7.94827-5.80251zm19.5464-8.47508a15.206 15.206 0 0 1 1.80593-7.32773 13.577 13.577 0 0 1 4.94986-5.26876 12.98779 12.98779 0 0 1 6.84938-1.90645 13.54008 13.54008 0 0 1 11.924 7.11975 15.37052 15.37052 0 0 1 .01734 14.50295 13.48436 13.48436 0 0 1-4.96719 5.248 13.02312 13.02312 0 0 1-6.86672 1.90992 13.22716 13.22716 0 0 1-6.884-1.88912 13.52345 13.52345 0 0 1-5.00532-5.20983 14.66851 14.66851 0 0 1-1.82328-7.17873zm24.6453-.11092a11.60983 11.60983 0 0 0-3.23405-8.32255 10.37223 10.37223 0 0 0-7.78874-3.397 10.14211 10.14211 0 0 0-7.78875 3.4143 11.89234 11.89234 0 0 0-3.12313 8.32255 11.61875 11.61875 0 0 0 3.21672 8.30176 10.64217 10.64217 0 0 0 15.51857.07626 11.61151 11.61151 0 0 0 3.19938-8.39532zm32.05276-8.62759l-2.02084 1.63956a11.1924 11.1924 0 0 0-9.28965-4.73149 10.72459 10.72459 0 0 0-7.96553 3.43509 11.6053 11.6053 0 0 0-3.345 8.41615 11.41466 11.41466 0 0 0 3.27218 8.31909 10.976 10.976 0 0 0 8.1839 3.3415 11.30831 11.30831 0 0 0 9.14407-4.5027l2.02084 1.63955a12.45648 12.45648 0 0 1-4.8424 4.066 14.85554 14.85554 0 0 1-6.46809 1.39344 13.39061 13.39061 0 0 1-10.1181-4.12141 15.49713 15.49713 0 0 1-2.11443-17.61568 13.27064 13.27064 0 0 1 5.06078-5.1717 13.65648 13.65648 0 0 1 6.95684-1.87179 14.6449 14.6449 0 0 1 6.683 1.4905 12.52683 12.52683 0 0 1 4.84243 4.27389zm4.84241-5.07811h2.59971v27.40794h-2.59971zm19.15124-1.10575l12.10427 28.51369h-2.78l-4.08328-9.35205h-11.203l-4.04862 9.35205h-2.89088l12.24986-28.51369zm-.32583 6.06947l-4.44378 10.30528h8.8529zm13.87901-2.29121v-2.67251h14.23605v2.67251h-5.78177v24.73543h-2.63785v-24.73543zm17.59835-2.67251h2.59971v27.40794h-2.59971zm7.40745 13.81662a15.206 15.206 0 0 1 1.80594-7.32773 13.577 13.577 0 0 1 4.94986-5.26876 12.98779 12.98779 0 0 1 6.84938-1.90645 13.54008 13.54008 0 0 1 11.924 7.11975 15.37049 15.37049 0 0 1 .01733 14.50295 13.48421 13.48421 0 0 1-4.96719 5.248 13.02309 13.02309 0 0 1-6.86671 1.90992 13.22716 13.22716 0 0 1-6.884-1.88912 13.52345 13.52345 0 0 1-5.00532-5.20983 14.66841 14.66841 0 0 1-1.82329-7.17873zm24.64531-.11092a11.60987 11.60987 0 0 0-3.234-8.32255 10.37224 10.37224 0 0 0-7.78875-3.397 10.14211 10.14211 0 0 0-7.78874 3.4143 11.89234 11.89234 0 0 0-3.12313 8.32255 11.61871 11.61871 0 0 0 3.21672 8.30176 10.64217 10.64217 0 0 0 15.51857.07626 11.61151 11.61151 0 0 0 3.19933-8.39532zm7.91007 13.70224V534.1926h.57887l17.23785 20.99531V534.1926H1874v27.40794h-.57887l-17.12693-20.72494v20.72494z"/><path d="M1253.47367 140.68409c-10.32279-16.47464-33.04438-33.135-78.03452-33.26267-70.81349-.20039-92.06894 41.40986-92.06894 92.49177s30.9391 92.49176 92.06894 92.49176c40.8425 0 64.9079-13.22683 78.12975-33.93794 10.18169-15.94851 13.9392-36.33068 13.9392-58.55382 0-22.29864-3.85974-42.99008-14.03443-59.2291zm-78.64482 113.6c-17.33848 0-29.37031-9.54715-36.04829-24.09708l-.00175-.00457c-3.71907-8.72639-5.6129-19.10665-5.6129-30.277 0-30.81 9.76622-54.85676 42.27324-55.7864 19.297-.5522 29.79669 6.60587 35.74817 19.8995 4.28569 9.57277 5.91477 21.58082 5.91477 34.47916 0 30.80998-9.07989 55.78637-42.27324 55.78637z" class="cls-1"/><path d="M1009.85886 110.613a53.07077 53.07077 0 0 0-14.06173-1.95994h-59.69256V33.39418h-48.181v257.99243h48.181v-142.7594h47.47779c11.347 0 20.631 9.72243 20.631 21.60531v121.15409h47.55562V167.26824c-.00003-27.14788-17.88673-50.07138-41.91012-56.65524z" class="cls-2"/></svg>