<svg id="Layer_1" data-name="Layer 1" xmlns="http://www.w3.org/2000/svg" viewBox="0 0 219 253.00095"><defs><style>.cls-1{fill:#ae13a6;}.cls-2{fill:#cd0095;}.cls-3{fill:#e60080;}.cls-4{fill:#f70069;}.cls-5{fill:#ff0051;}.cls-6{fill:#008bfb;}.cls-7{fill:#007bf4;}.cls-8{fill:#3769e8;}.cls-9{fill:#6f52d4;}.cls-10{fill:#8f37bb;}</style></defs><rect class="cls-1" x="41.52154" y="31.53054" width="19.05081" height="64.63355" rx="8"/><rect class="cls-2" x="68.99014" y="9.00942" width="19.05081" height="83.242" rx="8"/><rect class="cls-3" x="96.50179" y="4.87228" width="19.05081" height="70.42595" rx="8"/><rect class="cls-4" x="124.37039" y="11.77346" width="19.05081" height="38.85697" rx="8"/><rect class="cls-5" x="151.39595" y="31.20194" width="19.05081" height="38.85697" rx="8"/><rect class="cls-6" x="41.52154" y="101.989" width="19.05081" height="38.85697" rx="8"/><rect class="cls-7" x="68.99014" y="97.16409" width="19.05081" height="61.36612" rx="8"/><rect class="cls-8" x="96.50179" y="80.79902" width="19.05081" height="88.89683" rx="8"/><rect class="cls-9" x="124.37039" y="56.54058" width="19.05081" height="94.78906" rx="8"/><rect class="cls-10" x="151.49595" y="76.99823" width="19.05081" height="63.54774" rx="8"/><path d="M60.73641,210.58839a.82918.82918,0,0,1-.76318.499,1.69017,1.69017,0,0,1-.9834-.54395,12.62154,12.62154,0,0,0-4.19775-2.42187,12.88176,12.88176,0,0,0-7.7793.08886,8.30519,8.30519,0,0,0-2.87646,1.76075,7.49446,7.49446,0,0,0-1.76172,2.584,8.04276,8.04276,0,0,0-.60156,3.082,6.29693,6.29693,0,0,0,.8955,3.49317,8.073,8.073,0,0,0,2.3628,2.34863,15.30265,15.30265,0,0,0,3.332,1.62891q1.864.66064,3.831,1.30664,1.96583.646,3.83057,1.42382a13.8099,13.8099,0,0,1,3.332,1.95215,8.95482,8.95482,0,0,1,2.36279,2.8916,9.165,9.165,0,0,1,.89551,4.27051,13.44858,13.44858,0,0,1-.89551,4.917,11.47021,11.47021,0,0,1-2.59765,4.00684A12.18935,12.18935,0,0,1,54.9537,246.563a15.13087,15.13087,0,0,1-5.63623.9834,15.92592,15.92592,0,0,1-7.07471-1.45312,16.65019,16.65019,0,0,1-5.1958-3.97754l.82178-1.292a1.03442,1.03442,0,0,1,.82178-.44043,1.18,1.18,0,0,1,.67529.35254q.41088.353.998.86621.58666.51415,1.40918,1.11523a11.58525,11.58525,0,0,0,1.9082,1.11523,13.42844,13.42844,0,0,0,2.49512.86622,13.20649,13.20649,0,0,0,3.1997.35253,12.14754,12.14754,0,0,0,4.40332-.749,9.63285,9.63285,0,0,0,3.27295-2.04,8.63483,8.63483,0,0,0,2.04053-3.06738,10.21249,10.21249,0,0,0,.70459-3.80176,6.70377,6.70377,0,0,0-.89551-3.625,7.71457,7.71457,0,0,0-2.36328-2.37793,15.26872,15.26872,0,0,0-3.33154-1.59961q-1.86476-.646-3.83106-1.26269-1.96728-.61671-3.83105-1.37989a13.18138,13.18138,0,0,1-3.33154-1.95214,8.91427,8.91427,0,0,1-2.36329-2.96485,9.8279,9.8279,0,0,1-.8955-4.44726,10.52506,10.52506,0,0,1,.793-4.02149,9.99827,9.99827,0,0,1,2.31884-3.41992,11.40188,11.40188,0,0,1,3.77246-2.37793,13.74681,13.74681,0,0,1,5.12207-.89551,15.507,15.507,0,0,1,5.79786,1.02735,13.89943,13.89943,0,0,1,4.68212,3.1416Z"/><path d="M104.3287,205.53859v41.53809h-3.02344V227.17336H75.296v19.90332H72.27255V205.53859H75.296v19.375h26.00928v-19.375Z"/><path d="M148.4786,247.07668h-2.31885a1.02024,1.02024,0,0,1-.67529-.21973,1.46158,1.46158,0,0,1-.41113-.57324l-4.87305-12.06446H119.79843l-4.873,12.06446a1.26546,1.26546,0,0,1-.41113.55859,1.09468,1.09468,0,0,1-.70459.23438h-2.28955l16.99707-41.53809H131.482Zm-9.188-15.08887L130.836,210.99855a20.82579,20.82579,0,0,1-.85107-2.46582q-.17652.7046-.38184,1.33594a12.07254,12.07254,0,0,1-.44043,1.15918l-8.4541,20.96Z"/><path d="M166.41415,205.53859q7.30957,0,11.02295,3.20019,3.71337,3.19923,3.71338,9.12891a12.129,12.129,0,0,1-1.02735,5.02051,11.31474,11.31474,0,0,1-2.93554,3.94824,13.65674,13.65674,0,0,1-4.63819,2.583,19.06315,19.06315,0,0,1-6.13525.9248h-7.7207v16.73243H155.67V205.53859Zm0,22.39844a14.70924,14.70924,0,0,0,4.90234-.76367,10.85761,10.85761,0,0,0,3.68408-2.11329,9.18176,9.18176,0,0,0,2.31885-3.18457,9.84273,9.84273,0,0,0,.80762-4.00781,9.29664,9.29664,0,0,0-2.93555-7.36816q-2.93628-2.58252-8.77734-2.583h-7.7207V227.937Z"/></svg>