<svg id="content" xmlns="http://www.w3.org/2000/svg" viewBox="0 0 716.51847 1127.09913"><defs><style>.cls-1{fill:#231f20;}</style></defs><title>shogun</title><path class="cls-1" d="M35.985,1034.82087q1.347,9.51857,5.2909,14.22843,7.21458,8.57535,24.72593,8.57434,10.48627,0,17.02814-2.26133,12.41252-4.33289,12.41149-16.11277a11.87347,11.87347,0,0,0-6.07856-10.64769q-6.08212-3.67473-19.28384-6.50151l-15.037-3.29825q-22.16782-4.89836-30.45919-10.64769-14.04147-9.61128-14.03993-30.05821A39.92057,39.92057,0,0,1,24.27843,947.095q13.73652-12.3428,40.34936-12.34356,22.22454,0,37.91692,11.63712,15.69033,11.63865,16.454,33.78043H91.10783q-.77388-12.53052-11.206-17.80915-6.95715-3.48469-17.29069-3.48623-11.49766,0-18.3552,4.52316a14.3103,14.3103,0,0,0-6.858,12.626q0,7.44521,6.762,11.11916,4.34745,2.45109,18.45225,5.74756l24.37451,5.74807q16.02439,3.76973,24.022,10.08223,12.41712,9.80128,12.41865,28.36234,0,19.03482-14.71522,31.61309-14.71572,12.57955-41.57222,12.57955-27.42859,0-43.14447-12.39106-15.71486-12.38953-15.71333-34.06291Z"/><path class="cls-1" d="M215.42709,975.55494A30.15117,30.15117,0,0,1,228.14,985.64586a26.90825,26.90825,0,0,1,5.15912,11.83735q.93936,6.08214.93885,19.85083v60.36007H206.818v-62.54324q0-8.30183-2.80635-13.39479-3.64713-7.16862-13.84174-7.17014-10.57056,0-16.04229,7.12263-5.47223,7.12264-5.47172,20.32844v55.6571H141.802V939.27464h26.85394v48.99777q5.817-8.9508,13.46273-12.48505A37.91268,37.91268,0,0,1,198.21,972.25413,43.48609,43.48609,0,0,1,215.42709,975.55494Z"/><path class="cls-1" d="M345.14349,1065.12938q-13.00249,16.05121-39.481,16.051-26.48,0-39.481-16.051-13.004-16.05047-13.004-38.64788,0-22.21686,13.004-38.50485,13.00249-16.28721,39.481-16.288,26.477,0,39.481,16.288,13.004,16.28723,13.003,38.50485Q358.1465,1049.07842,345.14349,1065.12938Zm-21.48336-14.8419q6.312-8.37462,6.31251-23.806,0-15.42983-6.31251-23.75694-6.315-8.32558-18.09162-8.32711-11.77964,0-18.13862,8.32711-6.361,8.32635-6.36052,23.75694,0,15.4329,6.36052,23.806,6.35951,8.37386,18.13862,8.37258Q317.34507,1058.66006,323.66013,1050.28748Z"/><path class="cls-1" d="M428.17862,974.89243q9.78444,4.05246,15.80936,14.88787V974.98642h26.195v97.4311q0,19.87994-6.69049,29.96422-11.49613,17.33614-44.09764,17.33768-19.69605,0-32.13156-7.72641-12.43856-7.72794-13.75694-23.08575h29.20976q1.13092,4.71063,3.67472,6.78449,4.33365,3.67472,14.6059,3.67472,14.50885,0,19.41052-9.70526,3.20274-6.21928,3.20376-20.91892v-6.59549a32.75053,32.75053,0,0,1-8.29238,9.89374q-8.00991,6.1258-20.82442,6.12453-19.78647,0-31.61258-13.89844-11.82714-13.89743-11.82612-37.64363,0-22.89726,11.38683-38.49157,11.38732-15.59457,32.27867-15.59482A35.31064,35.31064,0,0,1,428.17862,974.89243Zm9.14542,73.6384q6.476-7.11345,6.47494-22.66178,0-14.60463-6.146-22.2373-6.14649-7.63293-16.46625-7.63242-14.07671,0-19.42482,13.286-2.815,7.06669-2.81452,17.43166a39.91211,39.91211,0,0,0,3.00147,15.9248q5.4416,13.00326,19.51881,13.003A20.61712,20.61712,0,0,0,437.324,1048.53083Z"/><path class="cls-1" d="M522.00805,974.98642v61.90729q0,8.76309,2.06262,13.192,3.65633,7.82218,14.34437,7.82091,13.68749,0,18.75261-11.11916,2.62349-6.0285,2.62552-15.92429V974.98642h27.23092v102.70769h-26.101v-14.51089q-.37544.47274-1.87771,2.82678a18.90164,18.90164,0,0,1-3.57052,4.14619,37.27924,37.27924,0,0,1-12.16835,7.72641,41.397,41.397,0,0,1-13.76614,2.07284q-22.73943,0-30.63184-16.39525-4.4164-9.04581-4.41538-26.66648V974.98642Z"/><path class="cls-1" d="M695.94672,980.87547q10.08631,8.33937,10.08632,27.6559v69.16274h-27.5139v-62.47275q0-8.10261-2.1515-12.43806-3.93063-7.91489-14.96551-7.91489-13.56489,0-18.61469,11.59012-2.61888,6.12581-2.6194,15.64181v55.59377H613.3141V975.17491h26.006v14.98236q5.15963-7.91565,9.75838-11.40163,8.2551-6.21928,20.92454-6.219Q685.8604,972.53661,695.94672,980.87547Z"/><path d="M308.9056,574.61646c-10.22888-9.91455-20.95566-13.97818-30.41084-19.96079-3.24607-2.05382-8.31675-3.90156-7.11772-8.44753,1.52091-5.76638,7.53769-4.37274,11.45516-3.54318,10.95819,2.32042,21.67462,1.27525,32.461-.54656,5.10059-.86148,12.23939.62362,12.5253-7.20392.31119-8.52,3.63747-18.28916-5.4878-24.66966-11.80346-8.25313-38.44623-7.59477-51.18865.81253-8.26868,5.45558-13.86205,11.84775-13.69638,22.89488.15656,10.43927-3.531,20.53506-7.882,30.003-5.54072,12.0566-19.14385,15.52181-29.952,8.25427-16.08715-10.81722-22.07285-32.46269-11.50726-48.39142a74.40983,74.40983,0,0,0,12.83123-46.29419c-.18112-3.82835-1.24183-8.74061,3.89387-9.96705,3.70463-.88468,6.89556,2.27142,8.14664,5.39674,8.12765,20.30387,20.9907,21.68466,39.19437,12.39218,7.93656-4.05141,18.30719-4.04428,27.64218-4.52481,42.544-2.18991,85.16053-4.60792,127.71291-1.84856,29.66358,1.92353,48.65575,22.79171,67.0635,43.08105,6.68949,7.37326-.31967,19.98286-12.55253,25.02267-20.31011,8.36752-41.94012,11.57952-63.13,16.53242-13.01564,3.04235-25.98825,6.26924-38.97569,9.43152-5.2531,1.27912-9.482,3.74625-8.83583,9.99252.77045,7.448,6.7834,5.97349,11.45945,5.89066,23.97361-.42463,46.14985,6.223,66.77793,17.77153,19.91772,11.1508,23.14323,22.58909,13.45676,43.11915-8.47671,17.966-17.42341,35.46757-32.57847,49.2355-10.63425,9.6608-21.19883,15.88573-35.96045,10.23088-4.53764-1.73821-9.655-2.0955-14.55294-2.7287-6.79432-.87833-11.51776.79736-12.01822,9.05884-.48405,7.9902,3.13746,10.1337,10.47266,10.5785,26.64269,1.61538,53.28469,3.42107,79.86257,5.85715,14.76392,1.35322,29.46473,3.7438,44.05978,6.4032,5.21153.94962,10.30218,3.59658,14.95938,6.308,6.74106,3.92471,11.601,9.47,10.31993,18.141-1.30481,8.83193-7.701,12.17921-15.45171,13.79255-21.71093,4.519-42.33022-2.12384-62.99651-6.81317-22.20933-5.03945-43.96642-11.9755-67.01036-12.91849-12.50414-.51168-16.62675,2.65745-16.35563,16.896.48675,25.56142-2.79709,51.21993-5.05861,76.789-.51514,5.82431-2.84863,12.0101-9.9433,13.40428-7.5361,1.48074-13.64235-1.53486-18.21852-7.493-7.95208-10.35317-9.00962-22.934-10.339-35.15951-1.65673-15.23668-2.7811-30.57916-3.092-45.8973-.20865-10.27993-5.239-13.26606-14.09845-11.93091-41.56907,6.26462-83.736,9.40137-124.33175,20.84593-14.96464,4.21889-24.8585-2.40084-35.23589-10.04183-5.55483-4.09015-5.054-9.11034-.17309-13.82724,8.92318-8.62345,19.42887-14.61324,31.937-13.51468,45.36827,3.98466,87.91778-13.01788,132.18085-16.99859,7.32625-.65886,12.80425-3.81709,11.94721-11.9671-.868-8.25381-8.01317-5.592-12.96467-5.85828a174.41229,174.41229,0,0,0-20.81946-.00023c-11.94176.7891-22.67679-3.63876-28.84463-12.64584-16.68393-24.36413-34.23149-48.3406-38.65691-79.21193-2.0111-14.02922,3.83462-17.288,15.17047-19.50224C260.36393,595.89093,282.58651,582.47171,308.9056,574.61646Zm73.92089,36.95912c-4.08942.72942-11.22207-2.41106-13.92033,5.30773-2.10587,6.0243,1.12879,9.99,6.0226,13.59233,8.71157,6.41256,6.82328,13.12378-.56783,19.40856-7.54875,6.419-10.015,15.24767-2.60516,21.53712,7.54909,6.40761,17.74991,6.48263,24.52836-3.34687,7.00778-10.162,12.64995-20.9492,15.9466-33.092,2.94317-10.84088-.67314-16.97044-10.66914-20.63446A44.028,44.028,0,0,0,382.82649,611.57558Zm17.37137-74.19315c9.77718-1.73935,20.43288-6.60614,22.19121-16.14243,1.87442-10.166-9.21422-13.15584-17.96236-15.58148-10.68612-2.96292-21.53778-2.36864-32.3814-2.15131-9.79933.19636-13.30159.85331-8.18331,13.55346C371.24238,535.37385,384.21216,537.09807,400.19786,537.38243Zm-135.4985,99.85325c4.64561-.124,5.87529-3.54909,7.35539-6.62227a48.49188,48.49188,0,0,1,17.3039-19.72407c8.65425-5.75511,17.24535-11.40869,27.63226-13.61639,3.44075-.73129,7.98442-2.52368,7.33921-5.98771-1.03168-5.53877-6.05174-3.1437-9.75-2.48321-19.89424,3.55326-39.63931,7.72928-58.26387,15.86475-6.52141,2.84863-15.83328,4.84005-12.001,15.03183C247.74922,628.83092,255.723,634.17367,264.69936,637.23568Zm35.17019,44.96467c4.28722-.37845,7.25591-.93527,10.2061-.85022,13.29878.38326,15.59915-5.31082,12.4851-17.75554-4.11215-16.43337-15.32344-5.20787-22.81144-6.83846-6.76587-1.47324-17.36692-3.10706-16.69508,9.98725C283.63016,677.9682,288.68615,684.6218,299.86955,682.20035Zm-1.03378-44.08994c5.476-1.24723,12.1711-2.63161,18.78972-4.31637,7.70311-1.96073,7.99048-8.22234,6.687-14.07277-1.74541-7.83395-7.57013-3.84938-11.838-2.79055a31.8433,31.8433,0,0,0-18.77626,13.24834C290.59883,634.65106,289.90216,638.58772,298.83577,638.11041Z"/><path d="M456.10776,159.19745c9.96032,10.17969,19.19958,16.80333,25.75773,26.44892,5.35575,7.8771,14.391,4.53193,22.03347,3.21294,21.74528-3.75294,42.53-1.63412,61.63368,10.03192,6.67453,4.076,14.7269,8.523,12.60824,18.11675-2.05672,9.31321-11.59132,8.83579-18.37965,9.58576-15.98173,1.76564-31.17745-4.5135-46.8005-6.80316-27.60122-4.04507-28.56785-3.91654-29.39343,23.47-.89719,29.76175,2.81112,59.29548,5.42212,88.85888,1.40828,15.94567,2.31769,31.5075-4.89332,46.584-11.618,24.29064-30.83339,32.29338-53.41862,17.80184-39.84221-25.56426-70.36743-60.49443-92.80163-102.30018-.88709-1.65311-1.92837-3.59581.44927-6.357,10.42151,3.03352,17.14786,11.9317,24.49918,19.16594,17.67,17.38848,38.8035,27.22386,62.722,31.65617,18.00877,3.3372,22.80318-1.15326,23.34949-20.20771.82454-28.75805-.67114-57.45221-2.232-86.14106-.84213-15.47851-4.87785-17.82919-21.15038-15.88-33.94883,4.06649-67.2756,11.46517-100.756,18.03-11.55429,2.26556-18.5461-3.52163-22.26087-12.73941-3.73386-9.26512,2.55816-15.93284,9.579-21.274,3.3375-2.539,6.92062-4.10833,10.39308.11886,6.78685,8.26191,15.61208,5.39566,23.30742,2.95884,27.13027-8.59111,54.73534-13.41834,83.2155-13.495,4.81071-.01294,12.69184,1.9636,10.41123-7.50288-1.6531-6.86165-2.55771-15.87019-13.413-14.16076-6.34161.99862-12.49472,3.1431-18.8061,4.40432-3.66377.73216-8.66437,2.86364-10.42372-2.00589-1.82808-5.05972,3.88887-6.14411,6.88858-8.18632,20.47881-13.94215,41.15627-27.65184,58.698-45.32617,3.7856-3.81422,12.5505-7.8402,8.11755-13.52913-4.14014-5.31315-10.47282,1.68094-15.32423,4.37824-8.65718,4.81324-17.52587,9.492-25.37065,15.45715-9.40144,7.14886-17.11977,5.546-25.12371-1.70225-10.86079-9.83538-18.30784-22.09022-24.718-34.988-3.89751-7.842.75211-10.04943,7.56469-8.93317,4.34288.71159,8.96069,1.93983,12.62055,4.25557,18.46291,11.68232,37.17368,9.96382,56.96414,3.528,14.51311-4.71962,29.67507-8.22364,45.18026-2.58376,10.3288,3.757,19.38453,9.45935,21.68579,20.46934,2.21865,10.61493-6.09682,17.25525-13.46193,23.17116C494.2605,139.81509,474.99664,148.0715,456.10776,159.19745Z"/><path d="M253.30232,130.8728c-3.30041-26.07436,7.52942-52.01526.56941-78.29-2.2319-8.42564,2.761-14.05392,12.31086-14.50378,24.68657-1.1629,42.01734,19.44313,37.55329,43.70412-8.32324,45.23458-12.97043,90.89589-17.18189,136.72461-4.83576,52.62235,1.96224,104.81781,1.06514,157.20553-.12239,7.14755,2.15332,15.88908-6.44035,19.77-8.15369,3.68222-15.529-.72461-22.11818-5.257-14.97686-10.30176-22.7661-31.21379-18.63406-48.95194,7.24838-31.11588,8.34026-62.72177,7.4262-94.47538-.09424-3.27373,1.29737-7.83253-2.88068-9.08007-3.75282-1.12059-5.80218,3.05141-8.2169,5.34565-19.06486,18.1136-35.81539,38.3187-52.66278,58.43725-11.58542,13.83489-17.87085,13.86817-29.33516.00352-6.70825-8.11281-11.98284-17.07216-13.73026-27.64339-1.7605-10.65033-.42483-19.57188,8.22813-28.23424,20.94148-20.96425,35.85816-45.82586,43.3215-74.99159,2.83543-11.08045,1.77651-19.3125-8.90327-25.17537-3.39677-1.86472-6.14845-4.96018-9.06086-7.63866-4.47234-4.11308-13.82694-6.0039-11.17058-13.7286,2.47195-7.18845,11.2397-7.18182,18.1083-7.53609,11.8886-.61318,23.67177-.4119,35.14274,4.01929,17.10407,6.60724,22.02712,15.33225,14.66371,32.30731-6.87437,15.84769-16.11092,30.65346-23.66345,46.23024-5.17084,10.66461-9.31625,21.833-13.741,32.84812-1.08769,2.70772-2.29037,6.2252.47251,8.29048,3.031,2.26572,5.5796-.68361,7.58014-2.62247,14.57267-14.12315,30.00761-27.52882,43.16667-42.8787,9.01177-10.51211,6.5119-25.48972,7.95956-38.62961C254.04789,147.80031,253.30232,139.29548,253.30232,130.8728Z"/><path d="M432.31706,15.56941c12.86785-.34066,28.95754-1.36137,40.06166,13.79439,6.50029,8.87208,6.48662,16.08179-3.698,22.18058-32.493,19.45744-68.704,20.18081-104.89,21.07272-2.40236.05922-5.32312-.11151-5.90374-3.22441-.708-3.7958,2.41749-5.07266,5.11131-6.1788,11.96212-4.91187,23.51385-10.56654,33.87113-18.4,4.47121-3.38169,8.40723-6.65473,5.00405-13.51945-5.59338-11.2827.04033-15.5964,10.99925-15.71474C418.3249,15.52078,423.77835,15.56941,432.31706,15.56941Z"/><path d="M365.90825,248.251c16.77781,1.17635,32.17367,4.08331,44.73358,14.98517,12.02615,10.43854,10.05711,21.05741-4.78418,26.47594-21.68788,7.91823-48.344-1.63849-65.52558-19.44727-4.84007-5.01679-3.46212-9.469,1.71376-13.69394C349.31408,250.638,357.87979,249.03984,365.90825,248.251Z"/><path d="M373.26269,135.21053c-1.65033,8.64582-7.05918,13.97593-16.39006,10.41437-20.24738-7.72835-33.55362-23.57416-44.057-41.766-3.13829-5.43551.29736-8.72349,6.18562-7.47606,12.97711,2.74921,26.28184,4.84344,38.62852,9.42605C369.95137,110.38216,370.11019,123.53669,373.26269,135.21053Z"/></svg>