<svg id="Layer_1" data-name="Layer 1" xmlns="http://www.w3.org/2000/svg" viewBox="0 0 253.42001 433.26558"><defs><style>.cls-1{fill:#1d2d48;}.cls-2{fill:#1d2e48;}.cls-3{fill:#1b2c47;}.cls-4{fill:#1e2f49;}.cls-5{fill:#6eb1e0;}.cls-6{fill:#6cb0e0;}.cls-7{fill:#fefefe;}.cls-8{fill:#b1d1ec;}.cls-9{fill:#a4b3bc;}.cls-10{fill:#a1b1ba;}.cls-11{fill:#4884a8;}.cls-12{fill:#79b5e3;}.cls-13{fill:#8bbde6;}.cls-14{fill:#9fc7e9;}.cls-15{fill:#95c2e7;}</style></defs><path class="cls-1" d="M206.60505,155.85779l0-1.20806c0-20.07307.05985-40.14645-.04053-60.219-.02632-5.2643,2.74971-7.52488,7.08346-8.04941a24.65008,24.65008,0,0,1,7.51822.17012c3.82921.71681,5.97471,3.19381,5.97591,7.06606q.01718,55.24295-.01739,110.48584c-.0268,13.85076-9.39837,26.36948-22.75824,30.81135a3.28856,3.28856,0,0,0-1.77557,1.25258,72.06151,72.06151,0,0,1-25.00223,21.96743c-.8726.46449-.9981.906-.70818,1.84276,2.83485,9.15959,10.09088,12.64969,18.8424,11.88208,5.80125-.50888,10.7857-3.14453,15.61924-6.14416,1.35222-.83919,2.70054-1.68715,4.08355-2.47315a12.53,12.53,0,0,1,2.28586-1.02719c3.55977-1.16078,6.237.7466,6.34318,4.47456.182,6.392-2.14883,11.91016-6.07969,16.76989-6.7928,8.398-15.77111,13.23282-26.20043,15.45523a38.52638,38.52638,0,0,1-24.924-2.46873,33.74469,33.74469,0,0,1-14.0702-12.38649c-.198-.30063-.38987-.60533-.78358-1.21752a25.22505,25.22505,0,0,0,1.63566,7.39428c2.84047,7.45112,8.00529,12.98241,14.42532,17.48084,3.16143,2.21519,6.55381,4.05585,9.81335,6.1114a13.79019,13.79019,0,0,1,3.41107,2.75457c2.06168,2.49216,1.72814,5.33464-.92717,7.16156a18.838,18.838,0,0,1-9.93322,3.14462c-7.15432.3643-13.85074-1.48408-20.23862-4.51819-13.7619-6.53669-24.8254-16.10814-32.47583-29.40186a44.49683,44.49683,0,0,1-6.03191-19.12126,1.55069,1.55069,0,0,0-.29476-1.11409c-.94712.8188-1.86975,1.66221-2.83949,2.44738a49.708,49.708,0,0,1-22.97683,10.092,72.73779,72.73779,0,0,1-40.4629-3.97907c-6.0203-2.39553-11.44929-5.75207-15.47886-11.002a17.24259,17.24259,0,0,1-3.28448-6.71746c-.80936-3.58666,1.0689-6.05127,4.76589-6.15421,2.92155-.08136,5.719.7641,8.54133,1.36082,5.92858,1.25348,11.88068,2.14933,17.95883,1.39316a29.06565,29.06565,0,0,0,16.75344-7.37892c-.68519.15023-1.36765.31477-2.05633.44679-.73957.14177-1.48373.26114-2.228.37624a33.20478,33.20478,0,0,1-27.01658-7.4358c-10.33856-8.41263-15.968-19.47952-17.0725-32.72332-.62028-7.43789.913-14.44058,5.76426-20.41127a12.59746,12.59746,0,0,1,1.66472-1.70721c2.49884-2.0951,5.32737-1.61831,7.02989,1.17339a20.954,20.954,0,0,1,2.03852,5.64394,50.99477,50.99477,0,0,0,4.35175,11.873c2.74391,4.90748,6.49132,8.74294,11.91562,10.63167,4.98055,1.73421,9.55391.49208,13.92612-2.071.68468-.40137.35439-.84865.207-1.27112a72.19539,72.19539,0,0,1-3.4939-15.0155,70.00744,70.00744,0,0,1,2.92857-31.52681c8.96185-26.24506,26.9535-43.19128,53.90857-49.46179,25.26624-5.87765,47.76278.72242,67.01063,18.13928a68.26344,68.26344,0,0,1,12.7193,15.83528c.12482.20924.26931.40669.40463.60964Zm-122.50667,86.873c.00795.141.07438.204.21818.16375,1.72113,1.349,1.98562,2.2458,1.29943,4.40585a27.02983,27.02983,0,0,1-2.48343,5.05583c-4.02977,6.302-9.96187,10.00831-16.88384,12.33085-8.63909,2.89864-17.37143,2.42892-26.12742.61662-2.04289-.42287-4.07906-.87813-6.12027-1.30919-.56482-.11925-.57247-.10058-.55778.42035a8.09929,8.09929,0,0,0,2.30884,3.25434,6.53889,6.53889,0,0,0,1.745,1.89754c.575.55242,1.09368.50029,1.48684-.23269a7.28794,7.28794,0,0,1,4.26213-.76113,2.37345,2.37345,0,0,1-.33972.29169c-3.07634,1.60933-3.56383,4.07209-1.2967,6.72512a10.43082,10.43082,0,0,0,8.09467,3.68336c4.09564.06244,5.79257-2.23773,4.69606-6.11047-.00836-.02956.03052-.07253.06652-.15106a7.00091,7.00091,0,0,1,2.116,2.26271c.54129,1.00624-.24879,2.50887.61218,3.11808.86039.6088,2.21113.52329,3.34635.745.0805.01572.15456.06275.23477.082.36893.08852.555-.07121.566-.43973a4.07082,4.07082,0,0,1,1.567-2.72615,5.483,5.483,0,0,1,2.66977-1.005c-2.5368,3.19027-2.04347,5.75626,1.48721,7.478a10.387,10.387,0,0,0,8.87858.29968c3.26952-1.37175,3.96239-3.84079,1.98109-6.70787-.05109-.07391-.20761-.1903.05357-.32377l1.00913.31405a5.79,5.79,0,0,1,2.50577,3.02635c.09908.3832.3486.43395.66457.37314,1.18532-.22817,2.36622-.48073,3.555-.68857.39931-.06982.64942-.2071.54925-.63836-.34782-1.49749.42312-2.66362,1.11369-3.85635.3902-.20095.54643-.74569,1.08442-.75405-.78807,3.29792.28254,5.36438,3.13193,5.7138a10.12619,10.12619,0,0,0,9.86583-4.2145c1.77212-2.36353,1.46892-5.47149-1.8482-6.53842-.094-.0302-.16293-.13826-.32388-.2815l2.33993-.11735a4.95324,4.95324,0,0,1,2.55176,1.26776c.54555.61871.93019.4763,1.43314.02116a31.72888,31.72888,0,0,0,8.04434-10.95061c.73236-1.695,1.73877-2.70824,3.63351-2.67013a4.42272,4.42272,0,0,1,1.782.80157,4.108,4.108,0,0,1,.482,4.22173,30.42767,30.42767,0,0,0-1.53031,13.67965c.06876.596.27275.8346.84972.766a5.29094,5.29094,0,0,1,3.09053.853c.39778.53367,1.08109.84682,1.33025,1.6133-3.35076-.983-5.34439-.00547-5.96921,2.89188a8.256,8.256,0,0,0-.07594,3.244c.56639,3.10706,1.89258,5.74155,4.71861,7.36687,2.27871,1.31057,4.23426.67882,5.45978-1.6423.0946-.17917.20147-.35188.32624-.56857.18291.47633.00518.98145.33282,1.36021a25.63075,25.63075,0,0,1-.81972,2.44544c-.3427.59725-1.35128.87217-1.16833,1.59291a6.20812,6.20812,0,0,0,1.27017,1.821c.29724.40023.60665.79145.90231,1.19285.27132.36834.53759.58433,1.03266.292a5.34744,5.34744,0,0,1,3.87216-.35253l1.14752.49319a5.11932,5.11932,0,0,1-.59353.14914c-3.17379.32423-4.37121,3.04875-3.14817,5.95358a10.3344,10.3344,0,0,0,7.007,6.15107c3.70287,1.06022,5.86163-.5762,5.89308-4.3834a1.08757,1.08757,0,0,1,.09025-.26293,8.58641,8.58641,0,0,1,1.462,3.273c.04538,1.12233-1.21373,2.235-.71311,3.05481.544.89077,1.89069,1.29073,2.88718,1.90507.07129.044.14313.08767.21061.13709.25772.1888.48308.1546.60048-.14309.332-.84174,1.174-1.16292,1.7503-1.75361a8.30363,8.30363,0,0,1,3.575-.26585c-3.73683,2.058-4.076,4.65389-1.09556,7.63183a10.45213,10.45213,0,0,0,6.57646,3.04189c4.59315.43222,6.79518-1.90465,5.68981-5.91036q.06619-.06343.1278-.13134a5.71262,5.71262,0,0,1,2.34266,3.432c.08555.32543.05232.80459.60332.808,2.33.01446,4.67307.12307,6.85463-.94306.982-.337.02974-.47264-.09178-.54763-2.27793-1.40515-4.58821-2.75823-6.85686-4.178-6.31212-3.95022-11.93512-8.65216-15.974-15.01673-3.46-5.4523-5.74716-11.28686-5.83132-17.86939a28.28642,28.28642,0,0,1,2.02481-10.50768,3.491,3.491,0,0,1,3.8153-2.28848,4.58935,4.58935,0,0,1,2.55131,3.15326,26.41879,26.41879,0,0,0,2.66748,5.91171c.35967-.982,1.28258-1.17,1.83432-1.78874a6.269,6.269,0,0,1,4.63019,1.00888c-3.4057.15986-4.74274,1.65329-4.40835,4.77711.36942,3.4512,4.25917,7.44359,7.68213,7.88486,2.85222.36772,4.47513-.95955,4.68972-3.8303.007-.09335-.05507-.25265.15364-.25271.51584.58192.49775,1.39278.85153,2.04628-.06213.704.148,1.47735-.24845,2.09729-.885,1.38371.045,1.65451,1.07612,1.91116.32344.08053.642.1828.96778.25121.38085.08.6755-.00507.68377-.47292a4.14542,4.14542,0,0,1,1.56321-2.75958,5.12572,5.12572,0,0,1,2.42152-.99418c-2.46486,3.0624-1.87323,5.59729,1.70144,7.17306a10.00714,10.00714,0,0,0,8.40523-.03039c3.36943-1.5061,3.98341-3.98384,1.78917-6.90328l.09983-.09575c.83253-.00471,1.42547.63025,2.18534.81951.41431.708,1.14427,1.20109,1.33928,2.06714.10261.45572.458.5284.8854.3643.50322-.19316,1.019-.35344,1.52853-.53031.41229-.14309.60473-.36913.43281-.84589a4.80047,4.80047,0,0,1,.06611-2.82138,5.85711,5.85711,0,0,1,1.48867-2.16329c-.62011,3.5936.97168,5.47807,4.51041,5.20665a9.783,9.783,0,0,0,8.20156-5.46515,4.48261,4.48261,0,0,0,.56165-2.90972c-.32937-1.979-1.76438-2.71606-3.73421-3.12967a7.17455,7.17455,0,0,1,3.31283-.4508,10.72151,10.72151,0,0,1,1.37176.59358c.382.22833.57751.15066.81068-.18547a18.13358,18.13358,0,0,0,3.32161-6.63648l.39986-1.45184a1.64142,1.64142,0,0,0,.10371-1.38925c-2.677,1.61542-5.22368,3.297-7.93707,4.69181-6.602,3.39377-13.48,5.0656-20.95517,3.77253-10.89435-1.88452-17.08519-10.21815-18.64413-20.31975-.28311-1.83457.31513-2.70305,1.98017-3.504a68.09551,68.09551,0,0,0,20.90422-15.64142,5.06822,5.06822,0,0,0,1.27726-1.72587c-1.07367,0-2.0368-.00534-2.99981.00287-.33405.00285-.66779.03934-1.00166.06049-3.26981-.018-6.54-.01377-9.80915-.06884a3.44949,3.44949,0,0,0-2.30462.73938,17.05208,17.05208,0,0,1-7.86851,3.40965,56.60212,56.60212,0,0,1-10.29432.23,18.18263,18.18263,0,0,1-17.7703-18.30384c-.00741-.99927-.228-1.24625-1.19886-.94252a12.12821,12.12821,0,0,1-2.23092.33093c-3.97156.4566-7.95838.17683-11.938.21988a56.16092,56.16092,0,0,1-9.40424-.42679,31.24269,31.24269,0,0,1-24.885-22.81529,32.44676,32.44676,0,0,1,.09852-16.03992q.82929-2.26469,1.6586-4.52937a31.45833,31.45833,0,0,1,5.91719-8.68454,30.57171,30.57171,0,0,1,22.63584-9.50337q37.73358.04172,75.46716.08653l3.9057.80686a60.95368,60.95368,0,0,0-10.18616-14.20081c-17.50192-17.76974-38.56857-24.66169-63.0851-19.853-16.00454,3.13918-29.08557,11.466-39.19311,24.2845a65.99386,65.99386,0,0,0-14.11978,35.40874,66.84142,66.84142,0,0,0,.71229,18.02588,72.54249,72.54249,0,0,0,3.689,13.13388,3.03221,3.03221,0,0,1-1.16677,4.0605c-.90438.67738-1.838,1.32316-2.80148,1.91285a22.7995,22.7995,0,0,1-15.58762,3.55105c-5.978-.88946-10.72516-4.07419-14.73786-8.45324-4.29893-4.69142-6.64044-10.39032-8.35074-16.40579-.42375-1.49039-.84141-2.98251-1.28224-4.54612a1.95435,1.95435,0,0,0-.73411,1.05586,1.69532,1.69532,0,0,0-.53319.97181,15.59522,15.59522,0,0,0-1.99062,5.7276c-.41789,2.29785-.39862,2.30135,1.69441,3.18576.62048.67482,1.4701,1.17445,1.75173,2.20631-3.42172-1.13169-5.28187-.44774-6.11069,2.40735a9.78706,9.78706,0,0,0,2.35245,9.91013c2.39443,2.55628,5.32571,1.848,6.47273-.56558.04543-.09559.17347-.15187.31354-.26855a10.953,10.953,0,0,1-.46844,2.86362c-.40687.46377-.72575,1.11833-1.23753,1.35462-1.39436.64379-.9875,1.41642-.33545,2.27664.2851.37613.30367,1.21035,1.10407.80259a7.09984,7.09984,0,0,1,2.80034-.447c.67418.2981,1.50184.283,2.10385.97509-3.69288-.05883-4.90831,2.70043-3.88531,5.54783a9.8595,9.8595,0,0,0,8.14153,6.77577,3.58838,3.58838,0,0,0,4.19587-2.8845c.07921-.51562.062-1.046.10031-1.78665a6.669,6.669,0,0,1,1.1835,2.7456c-.05093.74675.16,1.61376-.32754,2.1993-1.11921,1.34407-.18288,1.69481.85294,2.07449a4.61733,4.61733,0,0,1,.69355.287c.47372.26835.72273.20159.873-.3775a5.89653,5.89653,0,0,1,1.41371-2.33673c.79324-.24627,1.39542-.97258,2.38563-1.00429-2.90393,3.16048-.99166,5.82729,1.58835,6.86477a9.93387,9.93387,0,0,0,9.59139-.87012c2.709-1.7626,2.77693-4.71259.60654-6.41114-.09091-.07114-.29148-.16648-.1358-.35683a4.22875,4.22875,0,0,1,4.21388,4.96965,28.63875,28.63875,0,0,0,5.354-2.25768,6.46026,6.46026,0,0,1,4.11863-1.054Zm129.87655-27.49083a31.89326,31.89326,0,0,1-19.3143,7.11116c-2.804.11064-5.61469.08633-8.42169.05844-.75618-.0075-1.0221.18945-1.03385.96009a17.95811,17.95811,0,0,1-.57164,3.9672c-.26209.7017-.52059,1.40477-.78745,2.10466-.18783.49258-.13963.816.49822.79812,4.52295-.12669,9.0792.42784,13.56645-.32032,10.52039-1.75406,17.60828-7.778,21.4198-17.70054a11.18029,11.18029,0,0,0,.94147-4.18079A36.19114,36.19114,0,0,1,213.97493,215.23993ZM113.88784,168.29371c-.27912.08756-.56539.15716-.83633.26526a24.60635,24.60635,0,0,0-.09311,45.43275c.3176.12764.63944.44116,1.06052.196a4.284,4.284,0,0,0-1.06211-1.22213c-7.93008-8.45374-10.5694-18.32707-7.82881-29.58609a31.001,31.001,0,0,1,8.92247-14.90251l.13019-.2256Zm104.60149,3.5696c.70207,1.05326,1.40413,2.10653,2.2886,3.43346v-1.57542q0-39.5307-.0001-79.06143c0-1.94132-.2252-2.13652-2.30046-1.99617A24.06016,24.06016,0,0,0,214.59,92.68c-1.24271.04908-1.65227.54436-1.64918,1.86111q.072,30.71475.0336,61.42975,0,4.84643-.00006,9.69282c0,.49391-.05472.94977.46267,1.32468A34.87249,34.87249,0,0,1,218.48933,171.86331Zm.36705,19.80867a12.98373,12.98373,0,0,0-.34741-4.96347,24.25068,24.25068,0,0,0-23.42934-19.99188c-20.25274-.16034-40.50768-.0499-60.76168-.03089a19.312,19.312,0,0,0-3.4927.32229,24.14766,24.14766,0,0,0-15.68636,9.75573,21.85278,21.85278,0,0,0-4.58366,13.88172,14.81363,14.81363,0,0,0,.21638,4.63464c2.03366,10.17943,7.94319,17.08859,17.99664,19.694,10.18859,2.64036,18.87775-.431,25.58416-8.61179,3.70676-4.52168,5.14647-9.87987,5.24589-15.6629a4.89712,4.89712,0,0,1,2.55968-4.34818c3.48241-2.01865,7.495.44258,7.66716,4.70909a30.34437,30.34437,0,0,0,.40695,4.75678,24.5208,24.5208,0,0,0,48.62429-4.14509ZM166.97068,213.933a12.58558,12.58558,0,0,0-5.19009,1.3739c-6.35567,3.0564-7.63061,10.447-2.57022,14.82985a13.7545,13.7545,0,0,0,17.26919.10374,8.36618,8.36618,0,0,0,.51506-12.81367C174.49876,214.97021,171.41273,213.99485,166.97068,213.933Zm-52.556.493-.07579-.04614-.011.06464Z"/><path class="cls-1" d="M84.54166,403.56255c.05292-3.09821-.306-6.21714.31912-9.29111,1.28813-6.33381,5.17359-10.1992,11.39367-11.66a28.83948,28.83948,0,0,1,15.87779.48934,13.41486,13.41486,0,0,1,9.67656,11.28336,63.77642,63.77642,0,0,1,.11746,17.68726c-.87965,7.0424-5.19342,11.23009-12.25248,12.66071a30.18607,30.18607,0,0,1-13.69772-.249c-6.97374-1.80467-11.04675-6.81223-11.41588-13.99744C84.44192,408.18374,84.54166,405.87056,84.54166,403.56255Zm12.33877.02282c0,1.84768-.0203,3.69564.0045,5.543.04324,3.22077,1.75648,5.20484,4.91145,5.68009a10.59485,10.59485,0,0,0,3.13738-.00086c2.7907-.415,4.61121-2.07517,4.77719-4.69477a106.24791,106.24791,0,0,0,.00188-13.08594,4.80477,4.80477,0,0,0-3.93446-4.50148,9.864,9.864,0,0,0-3.86888-.17348c-3.34854.54892-4.99839,2.41471-5.02649,5.81645C96.86809,399.97393,96.88036,401.77968,96.88043,403.58537Z"/><path class="cls-1" d="M43.19686,403.61226c0-6.59253.01727-13.18511-.02019-19.77742-.00513-.90326.16039-1.24705,1.155-1.20848,2.179.08446,4.36665.09594,6.54445-.00246a1.77253,1.77253,0,0,1,2.099,1.37827c.61253,1.79945.69261,1.7662,2.40876,1.05711A40.7696,40.7696,0,0,1,69.261,381.83654c5.93847-.25644,9.26221,2.47663,10.24626,8.36444a28.70076,28.70076,0,0,1,.382,4.75988c-.00482,9.40588-.02,18.81184.02264,28.2175.00468,1.03177-.22623,1.35357-1.29339,1.33118-3.35583-.07053-6.71454-.05663-10.07107-.00539-.88478.01351-1.11513-.24053-1.11186-1.11888.03248-8.73391.02078-17.468.019-26.202-.00052-2.53376-.93037-3.47574-3.44771-3.24376a23.08744,23.08744,0,0,0-8.03986,2.71938c-.6484.32032-.37238.877-.37335,1.3238-.01828,8.39806-.04208,16.7964.01954,25.194.00857,1.16741-.34674,1.35264-1.39322,1.33154-3.314-.06687-6.63077-.05881-9.94515-.00224-.89717.01529-1.10346-.2442-1.09848-1.11633C43.21393,416.79736,43.19687,410.20478,43.19686,403.61226Z"/><path class="cls-2" d="M215.59817,407.94247c-3.39818.00013-6.79667.02556-10.19429-.01833-.8179-.01058-1.1431.211-1.04156,1.0442.07081.58091.01019,1.17778.07965,1.759a4.21618,4.21618,0,0,0,3.85736,4.134,33.4299,33.4299,0,0,0,11.13054-.36936,43.96868,43.96868,0,0,0,4.41563-.944c.62944-.16782.79871-.015.90635.55658.496,2.6339,1.01346,5.26377,1.53558,7.89266.09656.48614.00123.77374-.52719.93307-7.56223,2.28011-15.22885,3.46559-23.01373,1.42684-6.3883-1.673-9.93735-6.13708-10.54941-12.60356a73.51411,73.51411,0,0,1,.12163-17.20441c1.018-7.20585,5.70529-11.5373,12.95817-12.4381a32.50046,32.50046,0,0,1,9.39763.06032c6.99441,1.16631,11.08569,5.61353,11.89807,12.79994.45921,4.06231.13933,8.13529.26693,12.201.02394.76294-.35746.77925-.921.777C222.47845,407.93537,219.03829,407.94232,215.59817,407.94247Zm-5.906-9.3274h2.88728c2.73147,0,2.70975.002,2.45606-2.79976-.15365-1.69684-.7305-3.10885-2.39479-3.81088-4.6433-1.9586-8.6016.86152-8.28618,5.85336.0393.62181.246.77718.81862.76647C206.67905,398.596,208.18579,398.6147,209.69219,398.61507Z"/><path class="cls-1" d="M25.72446,381.81276a66.19062,66.19062,0,0,1,11.37605,1.0473c.932.17022,1.43254.36,1.21011,1.579a63.8097,63.8097,0,0,0-.826,7.11717c-.0769,1.13051-.4817,1.28366-1.469,1.10713a52.71337,52.71337,0,0,0-11.37372-.97219c-2.57011.10156-3.523,1.22617-3.27589,3.65211a2.61662,2.61662,0,0,0,2.28178,2.33151c2.38421.63951,4.797,1.17462,7.17269,1.84276a27.76531,27.76531,0,0,1,3.64138,1.355,7.6452,7.6452,0,0,1,4.80316,6.80824,31.90325,31.90325,0,0,1,.01655,7.154c-.829,6.0166-3.83517,9.13418-9.78258,10.08426-6.84811,1.094-13.509-.01609-20.10684-1.805-.68457-.1856-.66852-.53129-.536-1.1091.57085-2.4893,1.14812-4.97987,1.60088-7.492.15916-.88311.48629-.84116,1.155-.65285a42.37813,42.37813,0,0,0,11.91347,1.62935c.25158-.00225.504.00443.75458-.01381A3.58459,3.58459,0,0,0,27.2857,410.05a3.17655,3.17655,0,0,0-2.14794-1.41472c-2.20451-.65513-4.44438-1.191-6.64981-1.84318a28.77646,28.77646,0,0,1-3.65011-1.32617,7.7906,7.7906,0,0,1-4.89279-6.75985,33.15139,33.15139,0,0,1,.017-7.77923c.639-4.59686,2.99505-7.19367,7.5252-8.3131A33.07223,33.07223,0,0,1,25.72446,381.81276Z"/><path class="cls-3" d="M244.20066,394.33852c0,9.61144-.02464,19.22305.03219,28.83415.00684,1.15813-.33356,1.35683-1.388,1.33527-3.35438-.06863-6.71135-.05057-10.06657-.00674-.778.01015-.9774-.20107-.97649-.97813q.03339-28.45656.0038-56.91319c-.0007-.75365.13689-1.06921.99032-1.17216,3.36761-.40632,6.72607-.897,10.078-1.4204.97944-.15294,1.36181-.05715,1.35571,1.10928C244.17868,374.86368,244.20066,384.60116,244.20066,394.33852Z"/><path class="cls-3" d="M166.13312,394.33991c0,9.61174-.025,19.22366.03253,28.83506.007,1.16327-.34143,1.35357-1.39067,1.33254-3.35452-.06734-6.7116-.05073-10.06688-.00594-.78313.01043-.97438-.20925-.97349-.98124q.03271-28.45743.003-56.915c-.0007-.759.146-1.066.99454-1.16853,3.36742-.407,6.72594-.89631,10.07757-1.42038.983-.1537,1.35927-.05853,1.353,1.11058C166.11053,374.86442,166.13312,384.60224,166.13312,394.33991Z"/><path class="cls-4" d="M138.444,386.60836a46.55744,46.55744,0,0,1,10.17968-4.5869c.95533-.28861,1.1005-.03125,1.16448.85838.23151,3.21906.52539,6.43443.85709,9.64484a1.11385,1.11385,0,0,1-.81725,1.39137,61.26625,61.26625,0,0,0-9.25488,4.47765,1.72519,1.72519,0,0,0-.94166,1.7044c.035,7.724.00082,15.44827.04515,23.17213.00576,1.00554-.27457,1.255-1.25223,1.23752-3.35531-.06019-6.71264-.04691-10.06853-.00609-.82311.01-1.16179-.13346-1.15954-1.07449q.04755-19.83492.00335-39.67c-.00172-.87111.2207-1.14582,1.11429-1.12681,2.72583.058,5.45513.07157,8.17994-.00671.93538-.02688,1.24173.309,1.36008,1.1509C137.9817,384.68341,138.22362,385.57619,138.444,386.60836Z"/><path class="cls-1" d="M191.61173,382.65324c-1.339,2.55535-2.5886,4.95671-3.85338,7.35008-2.19042,4.145-4.37185,8.2949-6.60287,12.41793a1.87155,1.87155,0,0,0,.02078,2.05966c3.44614,6.22554,6.84124,12.47941,10.25155,18.72482.19706.36087.39188.72293.69255,1.27781H187.9031c-2.72658,0-5.45351-.02414-8.17948.01674a1.28508,1.28508,0,0,1-1.33619-.83123q-5.085-9.666-10.24515-19.29232a1.73792,1.73792,0,0,1-.02372-1.83912c3.29538-6.3511,6.55048-12.72311,9.81438-19.09055.20709-.404.32895-.81092.95053-.8071C183.06149,382.66548,187.23972,382.65324,191.61173,382.65324Z"/><path class="cls-5" d="M176.73,21.43978a15.18023,15.18023,0,1,1-30.36043.01806A15.18024,15.18024,0,1,1,176.73,21.43978Zm-15.1144-9.76184a9.73569,9.73569,0,0,0-9.86176,9.75684,9.81466,9.81466,0,1,0,19.6289-.03015A9.72848,9.72848,0,0,0,161.6156,11.67794Z"/><path class="cls-5" d="M156.02446,71.47051a12.87609,12.87609,0,0,1-.2929-25.74988,12.87664,12.87664,0,1,1,.2929,25.74988Zm-7.54461-12.82444a7.46671,7.46671,0,0,0,7.65669,7.48454,7.59313,7.59313,0,0,0,7.448-7.62057,7.73746,7.73746,0,0,0-7.64956-7.4681A7.55589,7.55589,0,0,0,148.47985,58.64607Z"/><path class="cls-5" d="M190.20921,82.035a11.3343,11.3343,0,1,1,.2188-22.66753A11.40592,11.40592,0,0,1,201.67586,70.9621C201.53082,77.19112,196.10726,82.33819,190.20921,82.035Zm.09791-5.32162a6.04137,6.04137,0,0,0,6.01623-5.98085,6.01436,6.01436,0,1,0-6.01623,5.98085Z"/><path class="cls-6" d="M34.65281,200.15961a1.69538,1.69538,0,0,1,.53319-.97184c.07918.95658.19728,1.91184.23078,2.87a29.93634,29.93634,0,0,0,2.92545,11.72225A30.58757,30.58757,0,0,0,52.225,227.97765a24.66987,24.66987,0,0,0,11.28092,2.9974,27.86087,27.86087,0,0,0,12.3662-2.80217A39.80279,39.80279,0,0,0,84.282,222.7251c.50509-.4111.84045-.77037.44742-1.57083a63.74944,63.74944,0,0,1-6.0482-20.59789,62.94377,62.94377,0,0,1,.12963-16.63952,64.48523,64.48523,0,0,1,117.401-26.98013c.72764,1.07739,1.74539,2.058,1.91213,3.46987q-37.73358-.04347-75.46716-.08653a30.57171,30.57171,0,0,0-22.63584,9.50337A31.45808,31.45808,0,0,0,94.1038,178.508c-.25685-.21074-.5131-.42224-.77071-.63209a3.22632,3.22632,0,0,0-3.42627-.277,2.87436,2.87436,0,0,0-1.353,3.32544c.40523,1.54765,1.538,2.16277,3.89135,2.113a32.44676,32.44676,0,0,0-.09852,16.03992,31.24269,31.24269,0,0,0,24.885,22.81529,56.16092,56.16092,0,0,0,9.40424.42679c3.97959-.043,7.96641.23672,11.938-.21988a12.12821,12.12821,0,0,0,2.23092-.33093c.97082-.30373,1.19145-.05675,1.19886.94252A18.18263,18.18263,0,0,0,159.774,241.0149a56.60212,56.60212,0,0,0,10.29432-.23,17.05208,17.05208,0,0,0,7.86851-3.40965,3.44949,3.44949,0,0,1,2.30462-.73938c3.26918.05507,6.53934.05081,9.80919.06885-.24081.28637-.46571.58813-.72489.85682a63.52984,63.52984,0,0,1-22.74894,15.26975,1.62016,1.62016,0,0,0-1.178,2.08618,38.68094,38.68094,0,0,0,4.37036,13.27022,23.82762,23.82762,0,0,0,10.5395,10.08924,31.0077,31.0077,0,0,0,33.19547-4.11109c1.33389-1.07973,2.34919-2.49657,3.8189-3.40853q-.19992.72593-.39972,1.4519-2.75195,3.11428-5.50419,6.22831a7.17455,7.17455,0,0,0-3.31283.4508c1.96983.41361,3.40484,1.15065,3.73421,3.12967a4.48261,4.48261,0,0,1-.56165,2.90972,9.783,9.783,0,0,1-8.20156,5.46515c-3.53873.27142-5.13052-1.613-4.51041-5.20665a5.85652,5.85652,0,0,0-1.48864,2.16332c-1.14837.37892-2.30207.74285-3.44178,1.14638-.3178.11255-.80994.06521-.81038.61973-.75987-.18926-1.35281-.82422-2.18623-.81862-.08288-.12282-.17488-.1744-.29281-.0398l.19387.13466c2.19424,2.91944,1.58026,5.39718-1.78917,6.90328a10.00714,10.00714,0,0,1-8.40523.03039c-3.57467-1.57577-4.1663-4.11066-1.70144-7.17306a5.126,5.126,0,0,0-2.42152.99415,20.24869,20.24869,0,0,1-4.04243-1.02713c-.35378-.6535-.33569-1.46436-.85153-2.04628-.20871.00006-.14666.15936-.15364.25271-.21459,2.87075-1.8375,4.198-4.68972,3.8303-3.423-.44127-7.31271-4.43366-7.68213-7.88486-.33439-3.12382,1.00265-4.61725,4.40835-4.77711a6.26824,6.26824,0,0,0-4.63024-1.00873,11.43788,11.43788,0,0,0-5.233-6.84668,1.99073,1.99073,0,0,0-1.82-.4297,3.49094,3.49094,0,0,0-3.81529,2.28854c-2.36787-.04186-3.29309.612-4.06261,2.88895a12.65577,12.65577,0,0,0-.42334,1.44047,34.13563,34.13563,0,0,0-.29479,12.558,29.54053,29.54053,0,0,0,8.20047,16.56334,58.93109,58.93109,0,0,0,14.76292,10.49128c2.80749,1.47141,5.69509,2.78976,8.54651,4.17726-2.18156,1.06613-4.5246.95752-6.85463.94306-.551-.00341-.51777-.48257-.60332-.808a5.71239,5.71239,0,0,0-2.34269-3.43194c-.05212-.05257-.13978-.15751-.15088-.14995-.14525.09892-.07052.19317.02311.28126,1.10537,4.00571-1.09666,6.34258-5.68981,5.91036a10.45213,10.45213,0,0,1-6.57646-3.04189c-2.98042-2.97794-2.64127-5.57382,1.09556-7.63183a8.31284,8.31284,0,0,0-3.57492.26523,16.80553,16.80553,0,0,0-4.73554-3.19965,8.58641,8.58641,0,0,0-1.462-3.273,1.08757,1.08757,0,0,0-.09025.26293c-.03145,3.8072-2.19021,5.44362-5.89308,4.3834a10.3344,10.3344,0,0,1-7.007-6.15107c-1.223-2.90483-.02562-5.62935,3.14817-5.95358a5.11932,5.11932,0,0,0,.59353-.14914c-.47177-.20277-.80964-.348-1.14755-.4931-.14222-.6539-.73063-.98966-1.08439-1.494-1.30174-1.85589-2.66483-3.66869-4.00483-5.49773-.32764-.37876-.14991-.88388-.33282-1.36021-.12477.21669-.23164.3894-.32624.56857-1.22552,2.32112-3.18107,2.95287-5.45978,1.6423-2.826-1.62532-4.15222-4.25981-4.71861-7.36687a8.256,8.256,0,0,1,.07594-3.244c.62482-2.89735,2.61845-3.8749,5.96921-2.89188-.24916-.76648-.93247-1.07963-1.32995-1.61357-.613-3.69385-1.301-7.38158-.661-11.15137a21.45807,21.45807,0,0,0,.24378-4.49136c-.08947-2.15662-.93852-3.47507-2.47509-3.87742a4.421,4.421,0,0,0-1.78193-.80145,2.12571,2.12571,0,0,0-1.39433-.44757c-2.14944-.08447-3.46777,1.27436-4.633,2.76718-2.72352,3.48924-5.45654,6.95547-9.22322,9.41587a.84.84,0,0,0-.41223.59622l-2.33993.11735c.16095.14324.22991.2513.32388.2815,3.31712,1.06693,3.62032,4.17489,1.8482,6.53842a10.12619,10.12619,0,0,1-9.86583,4.2145c-2.84939-.34942-3.92-2.41588-3.13193-5.7138-.538.00836-.69422.5531-1.08459.75389-1.7316.368-3.46782.71536-5.19272,1.11193-1.06152.2441-2.20645.08976-3.19537.672l-1.00913-.31405c-.26118.13347-.10466.24986-.05357.32377,1.9813,2.86708,1.28843,5.33612-1.98109,6.70787a10.387,10.387,0,0,1-8.87858-.29968c-3.53068-1.72169-4.024-4.28768-1.48721-7.478a5.48337,5.48337,0,0,0-2.66979,1.00492,58.85962,58.85962,0,0,1-6.32626-.77921,7.00091,7.00091,0,0,0-2.116-2.26271c-.036.07853-.07488.1215-.06652.15106,1.09651,3.87274-.60042,6.17291-4.69606,6.11047a10.43082,10.43082,0,0,1-8.09467-3.68336c-2.26713-2.653-1.77964-5.11579,1.2967-6.72512a2.37345,2.37345,0,0,0,.33972-.29169,7.29,7.29,0,0,0-4.26218.76088,8.25023,8.25023,0,0,0-3.23179-1.6646,8.09912,8.09912,0,0,1-2.30879-3.25422,4.69322,4.69322,0,0,1,2.03351.57083A86.25838,86.25838,0,0,0,55.09936,269.286a33.55863,33.55863,0,0,0,12.97747-1.25622A32.51888,32.51888,0,0,0,83.03875,257.6941a19.97466,19.97466,0,0,0,4.07327-6.71928,2.934,2.934,0,0,0-1.496-3.67446c.68619-2.16005.4217-3.05682-1.29947-4.40556q-.10909-.08174-.21813-.164l-.03114-.01747a3.2215,3.2215,0,0,0-2.552-.95235,15.15539,15.15539,0,0,0-7.34142,1.55376,5.83824,5.83824,0,0,0-3.793-2.25952c-.15568.19035.04489.28569.1358.35683,2.17039,1.69855,2.10245,4.64854-.60654,6.41114a9.93387,9.93387,0,0,1-9.59139.87012c-2.58-1.03748-4.49228-3.70429-1.58835-6.86477-.99021.03171-1.59239.758-2.38566,1.00411a36.82254,36.82254,0,0,0-3.50559-1.84638,6.669,6.669,0,0,0-1.1835-2.7456c-.03827.74061-.0211,1.271-.10031,1.78665a3.58838,3.58838,0,0,1-4.19587,2.8845,9.8595,9.8595,0,0,1-8.14153-6.77577c-1.023-2.8474.19243-5.60666,3.88531-5.54783-.602-.69212-1.42967-.677-2.10388-.975a21.88471,21.88471,0,0,0-2.3314-3.98692,10.953,10.953,0,0,0,.46844-2.86362c-.14007.11668-.26811.173-.31354.26855-1.147,2.41357-4.0783,3.12186-6.47273.56558a9.78706,9.78706,0,0,1-2.35245-9.91013c.82882-2.85509,2.689-3.539,6.11069-2.40735-.28163-1.03186-1.13125-1.53149-1.75162-2.2064.21142-1.20773-.30626-2.37479-.156-3.59568C34.41784,203.71286,34.5083,201.93289,34.65281,200.15961Zm134.76675-56.43078c-.947-.98169-1.70724-2.16624-3.00387-2.76808a.83919.83919,0,0,0-.14277-.20481c-7.07232-5.45537-15.26529-7.32535-23.97732-7.27826a37.62487,37.62487,0,0,0-7.21618.674,35.26269,35.26269,0,0,0-15.27216,6.57579,14.3459,14.3459,0,0,0-4.05066,4.01912,16.53449,16.53449,0,0,0-2.55118,3.78537,9.89189,9.89189,0,0,0-.88473-.69915,2.96668,2.96668,0,0,0-3.58879.31239,2.90784,2.90784,0,0,0-.66856,3.557c.7775,1.41984,1.90874,1.7881,4.14237,1.34845a2.64091,2.64091,0,0,0,1.87156.52627q29.03661-.01895,58.07323-.01083a3.97861,3.97861,0,0,0,.87707-.0253c.68745-.15814,1.22637-.34413.9671-1.33663a13.75657,13.75657,0,0,0-1.05654-3.17294,6.40784,6.40784,0,0,0-1.51247-2.77614A6.43568,6.43568,0,0,0,169.41956,143.72883ZM49.83909,277.25808c.84863-.04187,1.66672-.04808,2.10888-.77992a1.3512,1.3512,0,0,0-.43532-1.701,10.07941,10.07941,0,0,0-7.26391-2.905c-.64025-.00277-1.42169.10667-1.6735.8813-.24233.74541.2589,1.28781.74837,1.75122A10.909,10.909,0,0,0,49.83909,277.25808Zm74.76838,10.23045a10.109,10.109,0,0,0-3.03361-6.8353c-1.17833-1.09166-2.15831-.74547-2.31649.82732a9.60116,9.60116,0,0,0,2.516,7.14513c.468.57467,1.09135,1.196,1.92831.903C124.62787,289.20438,124.58313,288.30733,124.60747,287.48853Zm34.91769,32.86412c1.17974.00265,2.02922.03559,2.482-.79293a1.25991,1.25991,0,0,0-.3719-1.49327,9.66546,9.66546,0,0,0-7.54174-3.05364c-.60189.015-1.2263.14561-1.461.784-.25107.68282.16727,1.21648.61776,1.6714A10.40178,10.40178,0,0,0,159.52516,320.35265Zm-25.79239-19.12526c-1.301-.08084-1.77876.52745-1.38762,1.76678.70778,2.24259,4.26475,5.14043,6.55566,5.34079,1.33338.11661,1.82868-.44461,1.49765-1.697C139.83975,304.52426,135.94766,301.365,133.73277,301.22739ZM98.0574,271.6749a10.31466,10.31466,0,0,0-6.4389,3.199c-.45656.48664-.90494,1.06727-.56589,1.79767.36661.78976,1.1824.8076,1.85585.74122a10.30426,10.30426,0,0,0,6.48211-2.98286c.53228-.53388,1.12335-1.12266.81249-1.95829C99.86823,271.57155,98.99616,271.73254,98.0574,271.6749Zm-25.94175,9.85218a9.46361,9.46361,0,0,0,3.411-.71185c1.24432-.66469,1.35366-1.69686.12251-2.38165a9.492,9.492,0,0,0-8.23915-.54492c-1.3453.50488-1.35359,1.66753-.1254,2.45206A10.48551,10.48551,0,0,0,72.11565,281.52708Zm89.90266-.962c-1.14251.004-1.59411.63791-1.24179,1.73978a9.48244,9.48244,0,0,0,5.2493,5.73411,1.42854,1.42854,0,0,0,1.756-.06841,1.51065,1.51065,0,0,0,.14741-1.75955,9.62585,9.62585,0,0,0-5.22832-5.44292A4.62422,4.62422,0,0,0,162.01831,280.5651Zm40.67743,7.98593c2.13448-.0139,5.92493-2.46636,6.83709-4.42366.56928-1.22153.06772-2.17468-1.1968-1.99886a9.05081,9.05081,0,0,0-6.8717,4.52655C200.84339,287.71959,201.46481,288.55906,202.69574,288.551Zm-18.15988,5.57927a8.74546,8.74546,0,0,0,4.03845-.92547c1.08017-.66233,1.121-1.69912.01737-2.24951a9.00508,9.00508,0,0,0-8.10434-.09148c-1.34978.62493-1.27157,1.67586.07066,2.40721A9.49965,9.49965,0,0,0,184.53586,294.1303ZM42.31129,233.68646c-1.17969-.075-1.57762.40715-1.33562,1.61814.42408,2.12211,4.12768,5.46022,6.27777,5.65826.99409.09155,1.53794-.4576,1.39393-1.40752C48.30669,237.30821,44.55019,233.8287,42.31129,233.68646ZM31.60857,215.91281a10.315,10.315,0,0,0,1.71114,5.85822c.41409.62675.94024,1.30114,1.82825,1.02986.79972-.24433.92767-1.047.99921-1.7457a10.02884,10.02884,0,0,0-1.16676-5.82458c-.49728-.93354-1.00442-2.23415-2.33177-1.85629C31.41362,213.72589,31.71428,215.07623,31.60857,215.91281Zm32.47909,31.43867a8.698,8.698,0,0,0,4.59438-1.01865,1.49768,1.49768,0,0,0,.9398-1.247,1.38547,1.38547,0,0,0-1.09846-1.23789,9.58891,9.58891,0,0,0-7.77488.498,1.38054,1.38054,0,0,0-.9202,1.37362c.06091.65436.578.88193,1.06847,1.1145A7.16047,7.16047,0,0,0,64.08766,247.35148ZM89.17488,175.2223a3.25446,3.25446,0,0,0,3.14051-3.00268,3.21008,3.21008,0,0,0-2.98252-3.01914,3.01263,3.01263,0,0,0-.158,6.02182Z"/><path class="cls-7" d="M218.85638,191.672a24.5208,24.5208,0,0,1-48.62429,4.14509,30.34437,30.34437,0,0,1-.40695-4.75678c-.17214-4.26651-4.18475-6.72774-7.66716-4.70909a4.89712,4.89712,0,0,0-2.55968,4.34818c-.09942,5.783-1.53913,11.14122-5.24589,15.6629-6.70641,8.1808-15.39557,11.25215-25.58416,8.61179-10.05345-2.60536-15.963-9.51452-17.99664-19.69395a14.814,14.814,0,0,1-.21639-4.63466c.51067-.14339.35666-.59173.431-.93678a24.13018,24.13018,0,0,1,8.43793-14.042,24.77078,24.77078,0,0,1,16.4851-5.556c19.16176.124,38.32485.05507,57.48737.02791a32.64546,32.64546,0,0,1,4.97442.26978,24.53528,24.53528,0,0,1,19.66919,17.91779A13.77105,13.77105,0,0,0,218.85638,191.672Zm-71.28695-4.1365c0,.92179-.04332,1.84629.01415,2.76447.04342.6936-.23406.837-.865.82258-1.67416-.03815-3.34973-.01387-5.02475-.0125-1.36032.00109-1.45591.12606-1.17274,1.51774a7.30736,7.30736,0,1,0,7.92458-8.76155c-.65121-.06519-.92206.07853-.88751.77878C147.60564,185.60635,147.57006,186.57179,147.56943,187.53548Zm51.89968,3.57487q-1.13125,0-2.26249,0c-1.54254.00069-1.56528.0291-1.22619,1.52485a7.26482,7.26482,0,0,0,7.97345,5.756,7.30062,7.30062,0,0,0,.13744-14.48806c-.74481-.12256-1.0565-.00868-1.02981.84173.05781,1.84275-.00923,3.6892.03171,5.53285.01488.67012-.20837.87768-.85944.84434C201.31444,191.075,200.39087,191.11021,199.46911,191.11035Z"/><path class="cls-8" d="M198.124,160.4066c-.16674-1.41188-1.18449-2.39248-1.91213-3.46987a64.5349,64.5349,0,0,0-117.401,26.98013,62.94377,62.94377,0,0,0-.12963,16.63952,63.74944,63.74944,0,0,0,6.0482,20.59789c.393.80046.05767,1.15973-.44742,1.57083a39.80279,39.80279,0,0,1-8.40988,5.44778,27.86087,27.86087,0,0,1-12.3662,2.80217,24.66987,24.66987,0,0,1-11.28092-2.9974,30.58757,30.58757,0,0,1-13.88273-14.19758,29.93634,29.93634,0,0,1-2.92545-11.72225c-.0335-.95821-.1516-1.91347-.23078-2.87a1.95432,1.95432,0,0,1,.7341-1.05583c.44083,1.56361.85849,3.05573,1.28224,4.54612,1.7103,6.01547,4.05181,11.71437,8.35074,16.40579,4.0127,4.379,8.75983,7.56378,14.73786,8.45324A22.7995,22.7995,0,0,0,75.87856,223.986c.96347-.58969,1.8971-1.23547,2.80148-1.91285a3.03221,3.03221,0,0,0,1.16677-4.0605,72.54249,72.54249,0,0,1-3.689-13.13388,66.84142,66.84142,0,0,1-.71229-18.02588,65.99386,65.99386,0,0,1,14.11978-35.40874c10.10754-12.81848,23.18857-21.14532,39.19311-24.2845,24.51653-4.80873,45.58318,2.08322,63.0851,19.853a60.95368,60.95368,0,0,1,10.18616,14.20081Z"/><path class="cls-7" d="M218.48933,171.86331a34.87249,34.87249,0,0,0-5.05232-4.875c-.51739-.37491-.46269-.83077-.46267-1.32468q.00012-4.84641.00006-9.69282,0-30.7149-.0336-61.42975c-.00309-1.31675.40647-1.812,1.64918-1.86111a24.06,24.06,0,0,1,3.88738-.01625c.01787.50285.05132,1.0057.05137,1.50855q.00383,38.09076.0005,76.18149C218.52919,170.857,218.50321,171.36014,218.48933,171.86331Z"/><path class="cls-9" d="M218.85638,191.672a13.77105,13.77105,0,0,1-.81618-3.34582A24.53528,24.53528,0,0,0,198.371,170.40837a32.64546,32.64546,0,0,0-4.97442-.26978c-19.16252.02716-38.32561.09612-57.48737-.02791a24.77078,24.77078,0,0,0-16.4851,5.556,24.13018,24.13018,0,0,0-8.43793,14.042c-.07431.34505.0797.79339-.431.93678a21.85283,21.85283,0,0,1,4.58367-13.8817,24.14766,24.14766,0,0,1,15.68636-9.75573,19.312,19.312,0,0,1,3.4927-.32229c20.254-.019,40.50894-.12945,60.76168.03089A24.25068,24.25068,0,0,1,218.509,186.70851,12.98373,12.98373,0,0,1,218.85638,191.672Z"/><path class="cls-7" d="M166.97068,213.933c4.44205.06181,7.52808,1.03717,10.02394,3.49382a8.36618,8.36618,0,0,1-.51506,12.81367,13.7545,13.7545,0,0,1-17.26919-.10374c-5.06039-4.38283-3.78545-11.77345,2.57022-14.82985A12.58558,12.58558,0,0,1,166.97068,213.933Z"/><path class="cls-8" d="M217.32306,270.75731c-1.46971.912-2.485,2.3288-3.8189,3.40853a31.0077,31.0077,0,0,1-33.19547,4.11109,23.82762,23.82762,0,0,1-10.5395-10.08924,38.68094,38.68094,0,0,1-4.37036-13.27022,1.62016,1.62016,0,0,1,1.178-2.08618,63.52984,63.52984,0,0,0,22.74894-15.26975c.25918-.26869.48408-.57045.72489-.85685.33383-.02113.66757-.05762,1.00162-.06047.963-.00821,1.92614-.00287,2.99981-.00287a5.06822,5.06822,0,0,1-1.27726,1.72587,68.09551,68.09551,0,0,1-20.90422,15.64142c-1.665.801-2.26328,1.66944-1.98017,3.504,1.55894,10.1016,7.74978,18.43523,18.64413,20.31975,7.47518,1.29307,14.35316-.37876,20.95517-3.77253,2.71339-1.39481,5.26006-3.07639,7.93707-4.69181A1.64142,1.64142,0,0,1,217.32306,270.75731Z"/><path class="cls-10" d="M114.05056,168.47706a30.9998,30.9998,0,0,0-8.92256,14.90242c-2.74059,11.259-.10127,21.13235,7.82881,29.58609a4.284,4.284,0,0,1,1.06211,1.22213c-.42108.24518-.74292-.06834-1.06052-.196a24.60635,24.60635,0,0,1,.09311-45.43275c.27094-.1081.55721-.1777.83633-.26526A1.23587,1.23587,0,0,0,114.05056,168.47706Z"/><path class="cls-9" d="M218.48933,171.86331c.01388-.50317.03986-1.00635.0399-1.50952q.003-38.09073-.0005-76.18149c0-.50285-.0335-1.0057-.05137-1.50855,2.07527-.14035,2.30047.05485,2.30047,1.99617q.00012,39.53071.0001,79.06143v1.57542C219.89346,173.96984,219.1914,172.91657,218.48933,171.86331Z"/><path class="cls-8" d="M174.44305,319.617c-2.85142-1.3875-5.739-2.70585-8.54651-4.17726a58.93109,58.93109,0,0,1-14.76292-10.49128,29.54053,29.54053,0,0,1-8.20047-16.56334,34.13563,34.13563,0,0,1,.29479-12.558,12.65577,12.65577,0,0,1,.42334-1.44047c.76952-2.27694,1.69474-2.93081,4.06261-2.88895a28.28569,28.28569,0,0,0-2.02482,10.50762c.08416,6.58253,2.37134,12.41709,5.83132,17.86939,4.0389,6.36457,9.6619,11.06651,15.974,15.01673,2.26865,1.41973,4.57893,2.77281,6.85686,4.178C174.47279,319.14439,175.42505,319.28007,174.44305,319.617Z"/><path class="cls-8" d="M85.616,247.30036a2.934,2.934,0,0,1,1.496,3.67446,19.97466,19.97466,0,0,1-4.07327,6.71928,32.51888,32.51888,0,0,1-14.96192,10.33567A33.55863,33.55863,0,0,1,55.09936,269.286a86.25838,86.25838,0,0,1-19.62255-4.30022,4.69322,4.69322,0,0,0-2.03351-.57083c-.01474-.52105-.00709-.53972.55773-.42047,2.04121.43106,4.07738.88632,6.12027,1.30919,8.756,1.8123,17.48833,2.282,26.12742-.61662,6.922-2.32254,12.85407-6.02884,16.88384-12.33085A27.02983,27.02983,0,0,0,85.616,247.30036Z"/><path class="cls-10" d="M213.97493,215.23993a36.19114,36.19114,0,0,0,6.297-7.202,11.18029,11.18029,0,0,1-.94147,4.18079c-3.81152,9.92253-10.89941,15.94648-21.4198,17.70054-4.48725.74816-9.0435.19363-13.56645.32032-.63785.01787-.686-.30554-.49822-.79812.26686-.69989.52536-1.403.78754-2.1047.3678.39769.854.28078,1.30285.28329q2.7042.01508,5.40851.00263a26.81794,26.81794,0,0,0,20.30187-8.92615C212.57723,217.69157,213.74994,216.75946,213.97493,215.23993Z"/><path class="cls-7" d="M213.97493,215.23993c-.225,1.51953-1.3977,2.45164-2.32816,3.45662a26.81794,26.81794,0,0,1-20.30187,8.92615q-2.7042.01591-5.40851-.00263c-.44885-.00251-.935.1144-1.30285-.28329a17.96261,17.96261,0,0,0,.57155-3.96716c.01175-.77064.27767-.96759,1.03385-.96009,2.807.02789,5.61773.0522,8.42169-.05844A31.89326,31.89326,0,0,0,213.97493,215.23993Z"/><path class="cls-11" d="M101.62678,268.13275a.84.84,0,0,1,.41223-.59622c3.76668-2.4604,6.4997-5.92663,9.22322-9.41587,1.16524-1.49282,2.48357-2.85165,4.633-2.76718a2.12571,2.12571,0,0,1,1.39433.44757c-1.89478-.03823-2.90119.975-3.63355,2.67a31.72888,31.72888,0,0,1-8.04434,10.95061c-.503.45514-.88759.59755-1.43314-.02116A4.95324,4.95324,0,0,0,101.62678,268.13275Z"/><path class="cls-11" d="M119.0715,256.6025c1.53657.40235,2.38562,1.7208,2.47509,3.87742a21.45807,21.45807,0,0,1-.24378,4.49136c-.64,3.76979.048,7.45752.661,11.15137a5.29423,5.29423,0,0,0-3.09083-.85273c-.577.06856-.781-.17-.84972-.766a30.42767,30.42767,0,0,1,1.53031-13.67965A4.108,4.108,0,0,0,119.0715,256.6025Z"/><path class="cls-11" d="M78.98849,276.10856c.98892-.58226,2.13385-.42792,3.19537-.672,1.7249-.39657,3.46112-.74393,5.19272-1.11193-.6904,1.19289-1.46134,2.359-1.11352,3.85651.10017.43126-.14994.56854-.54925.63836-1.18876.20784-2.36966.4604-3.555.68857-.316.06081-.56549.01006-.66457-.37314A5.79,5.79,0,0,0,78.98849,276.10856Z"/><path class="cls-11" d="M92.44519,183.03735c-2.35333.04977-3.48612-.56535-3.89135-2.113a2.87436,2.87436,0,0,1,1.353-3.32544,3.22632,3.22632,0,0,1,3.42627.277c.25761.20985.51386.42135.77071.63209Q93.27448,180.77268,92.44519,183.03735Z"/><path class="cls-11" d="M128.086,290.38831c1.34,1.829,2.70309,3.64184,4.00483,5.49773.35376.50438.94217.84014,1.08438,1.494a5.34687,5.34687,0,0,0-3.87212.35244c-.49507.2923-.76134.07631-1.03266-.292-.29566-.4014-.60507-.79262-.90231-1.19285a6.20812,6.20812,0,0,1-1.27017-1.821c-.183-.72074.82563-.99566,1.16833-1.59291A25.63075,25.63075,0,0,0,128.086,290.38831Z"/><path class="cls-11" d="M74.17383,243.3147a15.15539,15.15539,0,0,1,7.34142-1.55376,3.2215,3.2215,0,0,1,2.552.95235,6.459,6.459,0,0,0-4.11856,1.05386,28.63875,28.63875,0,0,1-5.354,2.25768A5.7958,5.7958,0,0,0,74.17383,243.3147Z"/><path class="cls-11" d="M151.52918,269.20916a1.99073,1.99073,0,0,1,1.82.4297,11.43788,11.43788,0,0,1,5.233,6.84668c-.55169.61862-1.4746.80656-1.83427,1.78859a26.41879,26.41879,0,0,1-2.66748-5.91171A4.58935,4.58935,0,0,0,151.52918,269.20916Z"/><path class="cls-11" d="M56.58286,275.27423a58.85962,58.85962,0,0,0,6.32626.77921,4.071,4.071,0,0,0-1.567,2.72618c-.011.36852-.19706.52825-.566.43973-.08021-.01926-.15427-.06629-.23477-.082-1.13522-.22174-2.486-.13623-3.34635-.745C56.33407,277.7831,57.12415,276.28047,56.58286,275.27423Z"/><path class="cls-11" d="M145.03347,308.75368a16.80553,16.80553,0,0,1,4.73554,3.19965c-.5764.59131-1.41835.91249-1.75038,1.75423-.1174.29769-.34276.33189-.60048.14309-.06748-.04942-.13932-.09313-.21061-.13709-.99649-.61434-2.34319-1.0143-2.88718-1.90507C143.81974,310.98871,145.07885,309.876,145.03347,308.75368Z"/><path class="cls-11" d="M172.18115,288.11951a20.24869,20.24869,0,0,0,4.04243,1.02713,4.14556,4.14556,0,0,0-1.56321,2.75961c-.00827.46785-.30292.55292-.68377.47292-.3258-.06841-.64434-.17068-.96778-.25121-1.03116-.25665-1.96109-.52745-1.07612-1.91116C172.32917,289.59686,172.119,288.82355,172.18115,288.11951Z"/><path class="cls-11" d="M52.83909,240.98623a36.82254,36.82254,0,0,1,3.50559,1.84638,5.89871,5.89871,0,0,0-1.41368,2.33691c-.15023.57909-.39924.64585-.873.3775a4.61733,4.61733,0,0,0-.69355-.287c-1.03582-.37968-1.97215-.73042-.85294-2.07449C52.99914,242.6,52.78816,241.733,52.83909,240.98623Z"/><path class="cls-11" d="M38.66791,225.62625a21.88471,21.88471,0,0,1,2.3314,3.98692,7.09827,7.09827,0,0,0-2.80031.44693c-.8004.40776-.819-.42646-1.10407-.80259-.652-.86022-1.05891-1.63285.33545-2.27664C37.94216,226.74458,38.261,226.09,38.66791,225.62625Z"/><path class="cls-11" d="M192.82611,289.11564c.00044-.55452.49258-.50718.81038-.61973,1.13971-.40353,2.29341-.76746,3.44178-1.14638a4.80012,4.80012,0,0,0-.06614,2.82135c.17192.47676-.02052.7028-.43281.84589-.50952.17687-1.02531.33715-1.52853.53031-.42742.1641-.78279.09142-.8854-.3643C193.97038,290.31673,193.24042,289.82364,192.82611,289.11564Z"/><path class="cls-11" d="M211.41915,278.43752q2.75217-3.11409,5.50419-6.22831a18.13626,18.13626,0,0,1-3.32175,6.63642c-.23317.33613-.42868.4138-.81068.18547A10.72151,10.72151,0,0,0,211.41915,278.43752Z"/><path class="cls-11" d="M34.65281,200.15961c-.14451,1.77328-.235,3.55325-.45211,5.31759-.15026,1.22089.36742,2.38795.156,3.59568-2.09314-.88432-2.11241-.88782-1.69452-3.18567A15.59506,15.59506,0,0,1,34.65281,200.15961Z"/><path class="cls-11" d="M35.75209,267.66916a8.25023,8.25023,0,0,1,3.23179,1.6646c-.39311.73323-.91176.78536-1.48679.23294A6.53889,6.53889,0,0,1,35.75209,267.66916Z"/><path class="cls-10" d="M113.88784,168.29371l.29282-.04234-.13014.22565A1.23555,1.23555,0,0,1,113.88784,168.29371Z"/><path class="cls-11" d="M84.09839,242.73076q.10905.08215.21813.164C84.17276,242.93474,84.10633,242.87176,84.09839,242.73076Z"/><polygon class="cls-10" points="114.415 214.426 114.328 214.445 114.339 214.38 114.415 214.426"/><path class="cls-7" d="M161.6156,11.67794a9.80937,9.80937,0,1,1-.1632,19.6179,9.84194,9.84194,0,0,1-9.69856-9.86106A9.73569,9.73569,0,0,1,161.6156,11.67794Z"/><path class="cls-7" d="M148.47985,58.64607a7.55589,7.55589,0,0,1,7.45511-7.60413,7.73746,7.73746,0,0,1,7.64956,7.4681,7.59313,7.59313,0,0,1-7.448,7.62057A7.46671,7.46671,0,0,1,148.47985,58.64607Z"/><path class="cls-7" d="M190.30712,76.71337a6.08627,6.08627,0,0,1-6.01236-5.99618,6.01432,6.01432,0,1,1,12.02859.01533A6.04137,6.04137,0,0,1,190.30712,76.71337Z"/><path class="cls-12" d="M172.93813,149.03124a13.75657,13.75657,0,0,1,1.05654,3.17294c.25927.9925-.27965,1.17849-.9671,1.33663a3.97861,3.97861,0,0,1-.87707.0253q-29.03662.00115-58.07323.01083a2.64,2.64,0,0,1-1.87122-.52616c1.07513-1.03394,1.868-2.16566,1.304-3.76744q28.72633.00056,57.45266.00931A6.93564,6.93564,0,0,0,172.93813,149.03124Z"/><path class="cls-8" d="M119.80753,140.72766a35.25823,35.25823,0,0,1,15.27189-6.576,37.62487,37.62487,0,0,1,7.21618-.674c8.712-.04709,16.905,1.82289,23.97732,7.27826a.82871.82871,0,0,1,.14245.20488,8.793,8.793,0,0,1-1.47093.24747q-21.978.02014-43.956.01183C120.524,141.22017,120.04758,141.26091,119.80753,140.72766Z"/><path class="cls-13" d="M172.93813,149.03124a6.93564,6.93564,0,0,1-1.9754.26141q-28.72632-.01588-57.45274-.00931-.15237-.37571-.30457-.75139a16.5314,16.5314,0,0,1,2.55129-3.78537q.53553.01055,1.07032.02079c.16053,2.80029,1.85811,4.14071,4.10366,3.23987a4.29977,4.29977,0,0,0,1.63788-1.49459,8.18505,8.18505,0,0,0,1.599.26147q22.82586-.02006,45.65175-.00849a1.83264,1.83264,0,0,0,1.6064-.51063A6.40959,6.40959,0,0,1,172.93813,149.03124Z"/><path class="cls-14" d="M116.82755,144.7676q-.53535-.01048-1.07084-.021a14.34128,14.34128,0,0,1,4.05069-4.019c.24018.53336.7166.49262,1.18107.49257q21.978-.00155,43.956-.01183a8.793,8.793,0,0,0,1.47093-.24747c1.297.60177,2.05721,1.78632,3.004,2.76811a2.54637,2.54637,0,0,1-1.75613.515c-15.04619-.148-30.09548.29972-45.13967-.23419a3.01963,3.01963,0,0,0-3.11082-1.63412A2.9702,2.9702,0,0,0,116.82755,144.7676Z"/><path class="cls-15" d="M122.5236,144.00971c15.04419.53391,30.09348.08623,45.13967.23419a2.54637,2.54637,0,0,0,1.75613-.515,6.43429,6.43429,0,0,1,2.0063,2.52612,1.83258,1.83258,0,0,1-1.60634.51058q-22.82589-.00415-45.65175.00849a8.18476,8.18476,0,0,1-1.59906-.26148A3.254,3.254,0,0,0,122.5236,144.00971Z"/><path class="cls-4" d="M49.83909,277.25808a10.909,10.909,0,0,1-6.51548-2.75337c-.48947-.46341-.9907-1.00581-.74837-1.75122.25181-.77463,1.03325-.88407,1.6735-.8813a10.07941,10.07941,0,0,1,7.26391,2.905,1.3512,1.3512,0,0,1,.43532,1.701C51.50581,277.21,50.68772,277.21621,49.83909,277.25808Z"/><path class="cls-4" d="M124.60747,287.48853c-.02434.8188.0204,1.71585-.90575,2.04013-.837.293-1.46027-.32831-1.92831-.903a9.60116,9.60116,0,0,1-2.516-7.14513c.15818-1.57279,1.13816-1.919,2.31649-.82732A10.109,10.109,0,0,1,124.60747,287.48853Z"/><path class="cls-4" d="M159.52516,320.35265a10.40178,10.40178,0,0,1-6.27488-2.88446c-.45049-.45492-.86883-.98858-.61776-1.6714.2347-.63837.85911-.76894,1.461-.784a9.66546,9.66546,0,0,1,7.54174,3.05364,1.25991,1.25991,0,0,1,.3719,1.49327C161.55438,320.38824,160.7049,320.3553,159.52516,320.35265Z"/><path class="cls-4" d="M133.73277,301.22739c2.21489.13761,6.107,3.29687,6.66569,5.41058.331,1.25238-.16427,1.8136-1.49765,1.697-2.29091-.20036-5.84788-3.0982-6.55566-5.34079C131.954,301.75484,132.43176,301.14655,133.73277,301.22739Z"/><path class="cls-4" d="M98.0574,271.6749c.93876.05764,1.81083-.10335,2.14566.79671.31086.83563-.28021,1.42441-.81249,1.95829a10.30426,10.30426,0,0,1-6.48211,2.98286c-.67345.06638-1.48924.04854-1.85585-.74122-.33905-.7304.10933-1.311.56589-1.79767A10.31466,10.31466,0,0,1,98.0574,271.6749Z"/><path class="cls-4" d="M72.11565,281.52708a10.48551,10.48551,0,0,1-4.831-1.18636c-1.22819-.78453-1.2199-1.94718.1254-2.45206a9.492,9.492,0,0,1,8.23915.54492c1.23115.68479,1.12181,1.717-.12251,2.38165A9.46361,9.46361,0,0,1,72.11565,281.52708Z"/><path class="cls-4" d="M162.01831,280.5651a4.62422,4.62422,0,0,1,.68262.203,9.62585,9.62585,0,0,1,5.22832,5.44292,1.51065,1.51065,0,0,1-.14741,1.75955,1.42854,1.42854,0,0,1-1.756.06841,9.48244,9.48244,0,0,1-5.2493-5.73411C160.4242,281.203,160.8758,280.5691,162.01831,280.5651Z"/><path class="cls-4" d="M202.69574,288.551c-1.23093.008-1.85235-.83144-1.23141-1.896a9.05081,9.05081,0,0,1,6.8717-4.52655c1.26452-.17582,1.76608.77733,1.1968,1.99886C208.62067,286.08467,204.83022,288.53713,202.69574,288.551Z"/><path class="cls-4" d="M184.53586,294.1303a9.49965,9.49965,0,0,1-3.97786-.85925c-1.34223-.73135-1.42044-1.78228-.07066-2.40721a9.00508,9.00508,0,0,1,8.10434.09148c1.10367.55039,1.0628,1.58718-.01737,2.24951A8.74546,8.74546,0,0,1,184.53586,294.1303Z"/><path class="cls-4" d="M42.31129,233.68646c2.2389.14224,5.9954,3.62175,6.33608,5.86888.144.94992-.39984,1.49907-1.39393,1.40752-2.15009-.198-5.85369-3.53615-6.27777-5.65826C40.73367,234.09361,41.1316,233.6115,42.31129,233.68646Z"/><path class="cls-4" d="M31.60857,215.91281c.10571-.83658-.19495-2.18692,1.04007-2.53849,1.32735-.37786,1.83449.92275,2.33177,1.85629a10.02884,10.02884,0,0,1,1.16676,5.82458c-.07154.69867-.19949,1.50137-.99921,1.7457-.888.27128-1.41416-.40311-1.82825-1.02986A10.315,10.315,0,0,1,31.60857,215.91281Z"/><path class="cls-4" d="M64.08792,247.3523a7.173,7.173,0,0,1-3.19115-.51824c-.49051-.23257-1.00756-.46014-1.06847-1.1145a1.38054,1.38054,0,0,1,.9202-1.37362,9.58891,9.58891,0,0,1,7.77488-.498,1.38547,1.38547,0,0,1,1.09846,1.23789,1.49768,1.49768,0,0,1-.9398,1.247A8.706,8.706,0,0,1,64.08792,247.3523Z"/><path class="cls-11" d="M113.20542,148.532q.15223.37568.30457.75139c.56406,1.60178-.22881,2.7335-1.30394,3.76744-2.234.43954-3.36521.07128-4.14271-1.34856a2.90784,2.90784,0,0,1,.66856-3.557,2.96668,2.96668,0,0,1,3.58879-.31239A9.89189,9.89189,0,0,1,113.20542,148.532Z"/><path class="cls-11" d="M89.17488,175.2223a3.01263,3.01263,0,0,1,.158-6.02182,3.21008,3.21008,0,0,1,2.98252,3.01914A3.25446,3.25446,0,0,1,89.17488,175.2223Z"/><path class="cls-1" d="M164.51464,316.45146c-.09363-.08809-.16836-.18234-.02311-.28126.0111-.00756.09876.09738.15088.14995Q164.58085,316.388,164.51464,316.45146Z"/><path class="cls-1" d="M190.54094,288.39188l-.19387-.13466c.11793-.1346.20993-.083.29281.0398Z"/><path class="cls-4" d="M147.56975,187.53548c.00031-.96369.03589-1.92913-.01158-2.89048-.03455-.70025.2363-.844.88751-.77878a7.314,7.314,0,1,1-7.92458,8.76155c-.28317-1.39168-.18758-1.51665,1.17274-1.51774,1.675-.00137,3.35059-.02565,5.02475.0125.63093.01437.90841-.129.865-.82258C147.52611,189.38177,147.56943,188.45727,147.56975,187.53548Z"/><path class="cls-2" d="M199.46911,191.11029c.92176-.00008,1.84533-.03526,2.76467.01184.65107.03334.87432-.17422.85944-.84434-.04094-1.84365.0261-3.6901-.03171-5.53285-.02669-.85041.285-.96429,1.02981-.84173a7.30062,7.30062,0,0,1-.13744,14.48806,7.26482,7.26482,0,0,1-7.97345-5.756c-.33909-1.49575-.31635-1.52416,1.22619-1.52485Q198.33788,191.10991,199.46911,191.11029Z"/><path class="cls-11" d="M122.5236,144.00971a3.254,3.254,0,0,1,.045,2.50293,4.29951,4.29951,0,0,1-1.63786,1.4946c-2.24555.90084-3.94313-.43958-4.10366-3.23987a2.97134,2.97134,0,0,1,2.58575-2.39178A3.01963,3.01963,0,0,1,122.5236,144.00971Z"/></svg>