<?xml version="1.0" encoding="UTF-8" standalone="no"?>
<svg
   xmlns:dc="http://purl.org/dc/elements/1.1/"
   xmlns:cc="http://creativecommons.org/ns#"
   xmlns:rdf="http://www.w3.org/1999/02/22-rdf-syntax-ns#"
   xmlns:svg="http://www.w3.org/2000/svg"
   xmlns="http://www.w3.org/2000/svg"
   viewBox="0 0 1025.6801 220"
   height="220"
   width="1025.6801"
   xml:space="preserve"
   id="svg2"
   version="1.1"><metadata
     id="metadata8"><rdf:RDF><cc:Work
         rdf:about=""><dc:format>image/svg+xml</dc:format><dc:type
           rdf:resource="http://purl.org/dc/dcmitype/StillImage" /></cc:Work></rdf:RDF></metadata><defs
     id="defs6" /><g
     transform="matrix(1.3333333,0,0,-1.3333333,0,220)"
     id="g10"><g
       transform="scale(0.1)"
       id="g12"><path
         id="path14"
         style="fill:#da8c27;fill-opacity:1;fill-rule:nonzero;stroke:none"
         d="M 0,825.004 C 0,1280.64 369.371,1650 825,1650 c 455.63,0 825,-369.36 825,-824.996 C 1650,369.371 1280.63,0 825,0 369.371,0 0,369.371 0,825.004" /><path
         id="path16"
         style="fill:#f1efe0;fill-opacity:1;fill-rule:nonzero;stroke:none"
         d="m 1274.01,654.773 -3.36,0.051 c -0.22,0 -0.43,0 -0.68,0.012 v -0.012 h -0.26 v 0.012 c -83.25,2.051 -148.59,63.973 -148.59,141.016 0,49.66 27.5,94.738 73.52,120.593 l 1.5,0.825 c 14.68,8.05 30.61,13.714 47.4,16.851 5.47,1.024 11.12,1.774 16.76,2.219 l 0.15,0.012 c 4.36,0.367 8.91,0.55 13.5,0.55 84.23,0 152.77,-63.273 152.77,-141.05 0,-77.778 -68.49,-141.047 -152.71,-141.079 z M 861.848,457.059 600.863,456.988 v 251.567 c 0,138.718 112.946,251.55 251.66,251.55 h 22.274 v 22.266 c 0,115.869 94.133,210.369 209.793,210.649 91.68,0 175.16,-56.5 209.49,-141.15 -4.56,-28.64 -20.15,-54.347 -43.53,-71.792 -5.13,-0.562 -10.21,-1.308 -15.19,-2.246 -21.91,-4.094 -42.74,-11.586 -61.93,-22.301 l -3.07,-1.551 -0.46,-0.472 c -27.35,-15.988 -50.3,-38.203 -66.52,-64.391 -17.47,-28.203 -26.69,-60.461 -26.69,-93.265 0,-48.997 20.1,-95.207 56.6,-130.122 1.21,-1.152 2.44,-2.292 3.69,-3.425 -41.06,10.136 -78.02,31.894 -105.78,63.047 -5.34,8.164 -11.33,15.964 -17.84,23.308 -19.149,29.543 -29.262,63.535 -29.262,98 h -44.473 c 0,-16.094 1.781,-31.972 5.199,-47.551 -25.808,11.606 -54.179,17.868 -82.855,17.868 v -44.489 c 44.023,0 86.324,-18.593 116.152,-51.062 5.293,-7.91 11.149,-15.598 17.465,-22.891 15.744,-25.039 24.014,-53.976 24.014,-83.754 0,-86.98 -70.787,-157.722 -157.752,-157.722 z M 223.27,623.582 c 0,91.867 74.812,166.613 166.668,166.613 91.859,0 166.66,-74.757 166.66,-166.636 V 457.012 H 389.879 c -91.867,0 -166.609,74.726 -166.609,166.57 z m 1087.16,354.617 c 15.59,21.543 25.54,46.931 28.55,73.951 l 0.58,5.31 -1.87,5 c -19.2,50.9 -52.95,94.42 -97.6,125.86 -45.68,32.17 -99.46,49.18 -155.57,49.18 C 951.563,1237.17 842.109,1134.2 831.188,1003.85 691.449,993.848 578.258,886.445 559.285,749.355 c -38.504,51.731 -100.109,85.301 -169.406,85.301 -116.387,0 -211.078,-94.695 -211.078,-211.097 0,-116.379 94.691,-211.059 211.078,-211.059 h 712.061 v 44.512 H 988.188 c 46.232,36.988 75.892,94.039 75.892,157.777 0,10.012 -0.72,19.949 -2.17,29.75 38.3,-21.469 82.41,-33.109 128.24,-33.148 l 78.83,-1.02 h 0.42 c 1.5,-0.043 3.02,-0.07 4.55,-0.07 108.76,0 197.26,83.234 197.26,185.551 0,90.578 -69.38,166.203 -160.78,182.347" /><path
         id="path18"
         style="fill:#f1efe0;fill-opacity:1;fill-rule:nonzero;stroke:none"
         d="m 1273.95,758.828 c -22.76,0 -41.27,16.61 -41.27,37.024 0,20.402 18.51,37.007 41.27,37.007 22.75,0 41.26,-16.605 41.26,-37.007 0,-20.414 -18.51,-37.024 -41.26,-37.024 z m 0,118.508 c -47.28,0 -85.74,-36.555 -85.74,-81.484 0,-44.946 38.46,-81.497 85.74,-81.497 47.28,0 85.74,36.551 85.74,81.497 0,44.929 -38.46,81.484 -85.74,81.484" /><path
         id="path20"
         style="fill:#3f5f7d;fill-opacity:1;fill-rule:nonzero;stroke:none"
         d="m 2986.29,1273.86 -52.9,-116.67 c -98,65.32 -213.15,91.79 -300.27,91.79 -140.03,0 -231.84,-52.91 -231.84,-144.71 0,-280.032 613.01,-133.801 611.47,-528.989 0,-182.031 -160.27,-298.722 -393.64,-298.722 -158.69,0 -314.28,68.461 -416.97,166.472 l 56,112.02 c 101.16,-98.012 239.62,-154.031 362.52,-154.031 157.15,0 255.17,63.789 255.17,168.058 1.54,286.258 -611.45,133.781 -611.45,524.302 0,171.14 150.91,281.62 376.51,281.62 126.03,0 255.16,-40.45 345.4,-101.14" /><path
         id="path22"
         style="fill:#3f5f7d;fill-opacity:1;fill-rule:nonzero;stroke:none"
         d="m 3446.79,825.781 c 0,-239.601 202.27,-430.992 444.98,-430.992 242.72,0 441.85,191.391 441.85,430.992 0,239.609 -199.13,429.409 -441.85,429.409 -242.71,0 -444.98,-189.8 -444.98,-429.409 z m 1014.41,0 C 4461.2,519.281 4209.15,275 3891.77,275 c -318.95,0 -571.01,244.281 -571.01,550.781 0,308.059 252.06,547.669 571.01,547.669 317.38,0 569.43,-241.17 569.43,-547.669" /><path
         id="path24"
         style="fill:#3f5f7d;fill-opacity:1;fill-rule:nonzero;stroke:none"
         d="M 5207.97,1228.74 4965.26,676.418 h 488.56 z M 4912.35,556.621 4791.01,281.211 h -132.27 l 488.55,1089.119 h 129.15 L 5763.41,281.211 h -135.34 l -121.36,275.41 h -594.36" /><path
         id="path26"
         style="fill:#3f5f7d;fill-opacity:1;fill-rule:nonzero;stroke:none"
         d="M 6538.19,607.949 C 6538.19,396.371 6421.5,275 6227.01,275 c -121.34,0 -225.59,57.578 -301.81,155.59 l 62.22,99.582 c 68.47,-82.461 154.04,-126.031 238.05,-126.031 119.79,0 186.69,71.578 186.69,206.929 v 639.47 h -388.94 v 119.79 h 514.97 V 607.949" /><path
         id="path28"
         style="fill:#3f5f7d;fill-opacity:1;fill-rule:nonzero;stroke:none"
         d="m 7666.15,1273.86 -52.91,-116.67 c -98.02,65.32 -213.14,91.79 -300.28,91.79 -140.02,0 -231.83,-52.91 -231.83,-144.71 0,-280.032 613.03,-133.801 611.46,-528.989 0,-182.031 -160.23,-298.722 -393.62,-298.722 -158.7,0 -314.27,68.461 -416.99,166.472 l 56.02,112.02 c 101.15,-98.012 239.61,-154.031 362.53,-154.031 157.15,0 255.17,63.789 255.17,168.058 1.54,286.258 -611.45,133.781 -611.45,524.302 0,171.14 150.91,281.62 376.5,281.62 126.03,0 255.16,-40.45 345.4,-101.14" /></g></g></svg>