<svg width="1120" height="538" viewBox="0 0 1120 538" fill="none" xmlns="http://www.w3.org/2000/svg">
<rect width="1120" height="538" fill="white"/>
<path d="M487.149 335.314C470.023 335.314 456.477 331.772 446.51 324.687C436.543 317.46 431.069 307.4 430.086 294.505H449.879C450.862 302.724 454.441 308.817 460.618 312.784C466.794 316.752 475.849 318.735 487.781 318.735C509.258 318.735 519.997 311.792 519.997 297.906C519.997 292.238 518.313 287.916 514.944 284.94C511.715 281.823 506.17 279.556 498.309 278.139L470.725 273.038C447.844 268.787 436.403 257.734 436.403 239.881C436.403 228.403 440.684 219.334 449.247 212.675C457.81 206.015 469.532 202.685 484.412 202.685C499.713 202.685 511.925 206.086 521.05 212.887C530.315 219.689 535.649 229.182 537.053 241.368H517.681C516.137 233.858 512.627 228.332 507.153 224.79C501.678 221.106 494.027 219.263 484.201 219.263C474.796 219.263 467.566 220.964 462.513 224.365C457.459 227.624 454.933 232.441 454.933 238.818C454.933 243.636 456.547 247.461 459.776 250.295C463.145 252.988 468.549 255.042 475.989 256.459L503.362 261.56C515.435 263.827 524.279 267.795 529.894 273.463C535.509 279.131 538.316 286.783 538.316 296.418C538.316 308.746 533.894 318.31 525.051 325.112C516.207 331.913 503.573 335.314 487.149 335.314Z" fill="#101010"/>
<path d="M554.875 383.775V226.49H544.347V205.235H566.246V224.365H575.089C579.301 217.28 584.986 211.895 592.145 208.211C599.304 204.527 607.938 202.685 618.045 202.685C630.538 202.685 641.207 205.377 650.05 210.762C658.894 216.004 665.632 223.585 670.265 233.504C675.038 243.423 677.424 255.255 677.424 268.999C677.424 282.744 675.108 294.576 670.475 304.495C665.843 314.414 659.175 322.065 650.472 327.45C641.909 332.693 631.661 335.314 619.729 335.314C609.482 335.314 600.498 333.259 592.777 329.15C585.197 324.899 579.441 318.877 575.511 311.084H574.668V383.775H554.875ZM615.307 318.31C628.643 318.31 639.031 313.989 646.471 305.345C653.911 296.701 657.631 284.586 657.631 268.999C657.631 253.413 653.911 241.298 646.471 232.654C639.031 224.01 628.643 219.689 615.307 219.689C603.095 219.689 593.268 223.231 585.828 230.316C578.388 237.401 574.668 246.824 574.668 258.585V279.414C574.668 291.175 578.388 300.598 585.828 307.683C593.268 314.768 603.095 318.31 615.307 318.31Z" fill="#101010"/>
<path d="M695.946 332.764V205.235H715.739V332.764H695.946ZM705.842 191.441C702.333 191.441 699.315 190.237 696.788 187.828C694.402 185.277 693.208 182.231 693.208 178.688C693.208 175.146 694.402 172.17 696.788 169.761C699.315 167.211 702.333 165.936 705.842 165.936C709.352 165.936 712.3 167.211 714.686 169.761C717.213 172.17 718.476 175.146 718.476 178.688C718.476 182.231 717.213 185.277 714.686 187.828C712.3 190.237 709.352 191.441 705.842 191.441Z" fill="#101010"/>
<path d="M746.537 332.764V226.49H736.009V205.235H757.908V228.616H766.751C770.401 221.106 775.876 215.225 783.175 210.974C790.615 206.582 799.193 204.385 809.3 204.385V221.389H808.443C795.248 221.389 784.93 225.356 777.49 233.292C770.05 241.227 766.33 251.996 766.33 265.599V332.764H746.537Z" fill="#101010"/>
<path d="M854.778 335.102C840.74 335.102 829.65 331.559 821.509 324.474C813.367 317.248 809.296 307.966 809.296 296.631C809.296 284.445 813.226 275.022 821.087 268.362C829.089 261.702 840.6 258.372 855.62 258.372H901.102V252.421C901.102 230.599 889.521 219.689 866.359 219.689C847.548 219.689 836.248 226.915 832.458 241.368H812.244C814.209 229.182 820.035 219.689 829.721 212.887C839.547 206.086 851.97 202.685 866.991 202.685C884.116 202.685 897.242 206.865 906.366 215.225C915.491 223.444 920.053 235.346 920.053 250.933V311.509H929.739V332.764H907.84V313.634H898.996C894.645 320.152 888.608 325.395 880.888 329.363C873.167 333.189 864.464 335.102 854.778 335.102ZM857.304 318.523C865.306 318.523 872.606 316.823 879.203 313.422C885.941 310.021 891.276 305.487 895.206 299.819C899.137 294.009 901.102 287.633 901.102 280.69V273.675H857.094C837.582 273.675 827.825 281.044 827.825 295.78C827.825 302.724 830.422 308.25 835.616 312.359C840.951 316.468 848.18 318.523 857.304 318.523Z" fill="#101010"/>
<path d="M946.248 332.764V154.224H966.041V332.764H946.248Z" fill="#101010"/>
<path d="M331.718 276.449C315.638 264.753 290.026 258.336 253.418 258.336C221.522 258.336 199.083 254.504 186.725 245.495C177.8 238.99 173.82 229.937 173.82 216.142C173.82 211.123 175.561 206.145 178.999 201.349C182.648 196.256 188.236 191.403 195.16 187.316C202.558 182.949 211.243 180.237 220.975 177.807C231.227 175.247 242.141 173.95 253.418 173.95C264.695 173.95 275.609 175.247 285.86 177.807C295.592 180.237 304.278 182.949 311.675 187.316C318.602 191.406 324.19 196.258 327.839 201.349C331.274 206.145 333.018 211.123 333.018 216.142H352.879C352.879 206.888 349.888 198.021 343.986 189.783C338.667 182.358 331.193 175.774 321.775 170.213C303.356 159.338 279.081 153.351 253.418 153.351C227.755 153.351 203.48 159.338 185.063 170.213C175.645 175.774 168.171 182.358 162.852 189.783C156.95 198.019 153.959 206.888 153.959 216.142C153.959 236.359 160.849 251.211 175.024 261.543C191.075 273.244 216.718 279.666 253.418 279.666C285.233 279.666 307.644 283.501 320.034 292.512C329.011 299.042 333.015 308.093 333.015 321.858C333.015 326.877 331.274 331.855 327.837 336.651C324.188 341.744 318.6 346.597 311.673 350.684C304.275 355.051 295.59 357.763 285.858 360.193C275.606 362.753 264.692 364.05 253.415 364.05C242.138 364.05 231.225 362.753 220.973 360.193C211.241 357.763 202.556 355.051 195.158 350.684C188.231 346.594 182.643 341.742 178.997 336.651C175.561 331.855 173.818 326.877 173.818 321.858H153.959C153.959 331.112 156.95 339.979 162.852 348.217C168.171 355.642 175.645 362.226 185.063 367.787C203.48 378.659 227.755 384.649 253.418 384.649C279.081 384.649 303.356 378.662 321.773 367.787C331.191 362.226 338.665 355.642 343.983 348.217C349.885 339.981 352.877 331.112 352.877 321.858C352.877 301.658 345.957 286.807 331.718 276.449Z" fill="#101010"/>
<path d="M185.065 314.933C203.482 325.805 227.757 331.795 253.42 331.795C279.083 331.795 303.358 325.808 321.775 314.933C322.067 314.761 322.351 314.585 322.641 314.411C321.324 306.692 317.903 303.095 314.267 300.451C313.237 299.703 312.092 298.99 310.837 298.316C303.623 302.455 295.23 305.738 285.86 308.077C275.609 310.637 264.695 311.934 253.418 311.934C242.141 311.934 231.227 310.637 220.975 308.077C211.243 305.647 202.558 302.2 195.16 297.833C188.233 293.743 182.645 288.89 178.999 283.8C176.417 280.195 174.791 276.488 174.144 272.739C172.44 271.697 170.804 270.61 169.247 269.475C164.002 265.652 159.547 261.231 155.926 256.268C154.619 260.412 153.959 264.669 153.959 269.007C153.959 278.261 156.95 287.127 162.852 295.366C168.171 302.791 175.647 309.372 185.065 314.933Z" fill="#101010"/>
<path d="M321.775 223.071C303.36 212.199 279.082 206.209 253.42 206.209C227.757 206.209 203.482 212.197 185.065 223.071C184.77 223.245 184.484 223.422 184.192 223.599C185.496 231.347 188.895 234.937 192.504 237.568C193.539 238.32 194.691 239.039 195.957 239.718C203.18 235.567 211.591 232.274 220.977 229.93C231.229 227.37 242.143 226.073 253.42 226.073C264.696 226.073 275.61 227.37 285.862 229.93C295.594 232.36 304.279 235.807 311.677 240.174C318.604 244.264 324.192 249.117 327.841 254.207C330.438 257.831 332.063 261.558 332.706 265.329C334.371 266.349 335.967 267.411 337.492 268.522C342.774 272.364 347.256 276.802 350.9 281.787C352.216 277.626 352.881 273.357 352.881 269C352.881 259.746 349.889 250.88 343.987 242.641C338.669 235.216 331.193 228.632 321.775 223.071Z" fill="#101010"/>
</svg>
