 <svg  width="378px" height="99px" viewBox="0 0 378 99" version="1.1" xmlns="http://www.w3.org/2000/svg" xmlns:xlink="http://www.w3.org/1999/xlink">
    <defs>
        <linearGradient x1="87.9571239%" y1="25.3506616%" x2="6.19147563%" y2="91.4151778%" id="linearGradient-1">
            <stop stop-color="#1BA6FF" offset="0%"></stop>
            <stop stop-color="#2574FF" offset="100%"></stop>
        </linearGradient>
        <linearGradient x1="0%" y1="37.5308716%" x2="65.08427%" y2="99.9621833%" id="linearGradient-2">
            <stop stop-color="#C2E2FF" offset="0%"></stop>
            <stop stop-color="#8CBCFA" offset="100%"></stop>
        </linearGradient>
        <linearGradient x1="100%" y1="61.0597034%" x2="32.8687891%" y2="0.0157611864%" id="linearGradient-3">
            <stop stop-color="#359EFF" offset="0%"></stop>
            <stop stop-color="#76B2FF" offset="100%"></stop>
        </linearGradient>
    </defs>
    <g id="Page-2" stroke="none" stroke-width="1" fill="none" fill-rule="evenodd">
        <g id="Artboard" transform="translate(-769.000000, -491.000000)">
            <g id="Group-9" transform="translate(768.000000, 490.000000)">
                <g id="Group-7">
                    <g id="Group-4">
                        <g id="Group-2">
                            <g id="Group-6">
                                <polygon id="Fill-1" fill="url(#linearGradient-1)" points="25.0148235 1.176 25.0148235 1.18541176 62.3395294 38.496 62.3395294 62.3112941 38.5242353 62.3112941 1.20541176 25.0265882 1.20541176 99.6312941 99.6595294 99.6312941 99.6595294 1.176"></polygon>
                                <polygon id="Fill-2" fill="#FFFFFF" points="25.0052941 1.176 25.0147059 1.18541176 25.0147059 1.176"></polygon>
                                <polygon id="Fill-3" fill-opacity="0.9" fill="url(#linearGradient-2)" points="25.0148235 24.9984706 38.5242353 38.4961176 62.3395294 38.4961176 25.0148235 1.18552941"></polygon>
                                <polygon id="Fill-4" fill="#FFFFFF" points="1.17647059 24.9984706 1.20470588 25.0267059 1.20470588 24.9984706"></polygon>
                                <polygon id="Fill-5" fill-opacity="0.95" fill="url(#linearGradient-3)" points="1.20505882 24.9984706 1.20505882 25.0267059 38.5238824 62.3114118 38.5238824 38.4961176 25.0144706 24.9984706"></polygon>
                            </g>
                        </g>
                    </g>
                </g>
                <g id="Group-18" transform="translate(140.000000, 28.000000)" fill="#111111">
                    <polygon id="Fill-7" points="79.4139818 0.753018182 86.0282242 0.753018182 86.0282242 38.1342909 110.065315 38.1342909 107.277436 44.3902909 79.4139818 44.3902909"></polygon>
                    <polygon id="Fill-9" points="115.035685 0.753018182 145.687018 0.753018182 142.899139 7.00901818 121.649927 7.00901818 121.649927 19.8778667 142.574352 19.8778667 139.786473 25.7435636 121.649927 25.7435636 121.649927 44.3902909 115.035685 44.3902909"></polygon>
                    <path d="M148.921376,0.753018182 L155.175982,0.753018182 L155.175982,36.3695636 C155.175982,37.7858061 155.955194,38.4939273 157.51083,38.4939273 L162.453739,38.4939273 L159.665861,44.3902909 L156.882164,44.3902909 C154.607255,44.3902909 152.732406,43.8215636 151.256224,42.6841091 C149.699194,41.5271394 148.921376,39.5812 148.921376,36.8476848 L148.921376,0.753018182 Z" id="Fill-11"></path>
                    <path d="M184.09423,28.8864788 C184.09423,26.6715091 183.993867,25.0559333 183.794533,24.0383576 C183.5952,23.0612061 183.185382,22.2025394 182.567867,21.4637515 C182.107867,20.7653879 181.430412,20.2175697 180.532715,19.8175091 C179.674048,19.3993273 178.677382,19.1888424 177.539927,19.1888424 C176.481927,19.1888424 175.504776,19.3993273 174.607079,19.8175091 C173.748412,20.2175697 173.050048,20.7653879 172.511988,21.4637515 C171.972533,22.2025394 171.583624,23.0612061 171.343867,24.0383576 C171.105503,25.0559333 170.985624,26.6519939 170.985624,28.8265394 C170.985624,30.9815697 171.105503,32.5581152 171.343867,33.5547818 C171.583624,34.5723576 171.972533,35.4714485 172.511988,36.2492667 C173.050048,36.8472667 173.748412,37.3769636 174.607079,37.8355697 C175.504776,38.2746606 176.481927,38.4935091 177.539927,38.4935091 C178.677382,38.4935091 179.674048,38.2746606 180.532715,37.8355697 C181.430412,37.3769636 182.107867,36.8472667 182.567867,36.2492667 C183.185382,35.4714485 183.5952,34.5723576 183.794533,33.5547818 C183.993867,32.5581152 184.09423,31.0010848 184.09423,28.8864788 M164.729624,28.8265394 C164.729624,25.5549636 165.000048,23.040297 165.538109,21.2839333 C166.097079,19.5693879 166.954352,18.1224788 168.111321,16.9446 C168.969988,15.9075091 170.167382,14.9791455 171.703503,14.160903 C173.220109,13.3830848 175.164655,12.9746606 177.539927,12.9342364 C179.993261,12.9746606 181.97823,13.3830848 183.49623,14.160903 C184.991927,14.9791455 186.148897,15.9075091 186.967139,16.9446 C188.203564,18.1224788 189.081745,19.5693879 189.601685,21.2839333 C190.099321,23.040297 190.348836,25.5549636 190.348836,28.8265394 C190.348836,32.0995091 190.099321,34.5932667 189.601685,36.3092061 C189.081745,38.0251455 188.203564,39.5110848 186.967139,40.7684182 C186.568473,41.2270242 186.0792,41.6758727 185.500715,42.1149636 C184.98217,42.6139939 184.313079,43.0433273 183.49623,43.4015697 C181.97823,44.2602364 179.993261,44.7090848 177.539927,44.7495091 C175.164655,44.7090848 173.220109,44.2602364 171.703503,43.4015697 C170.167382,42.6237515 168.969988,41.7455697 168.111321,40.7684182 C166.954352,39.5110848 166.097079,38.0251455 165.538109,36.3092061 C165.000048,34.5932667 164.729624,32.0995091 164.729624,28.8265394" id="Fill-13"></path>
                    <polygon id="Fill-16" points="216.573018 22.6313152 216.453139 22.6313152 209.958776 44.3893152 204.451321 44.3893152 194.515321 13.3239818 201.129564 13.3239818 207.085867 35.0819818 207.205745 35.0819818 214.268836 13.3239818 218.787988 13.3239818 225.851079 35.0819818 225.970958 35.0819818 231.896594 13.3239818 238.510836 13.3239818 228.604109 44.3893152 223.067382 44.3893152"></polygon>
                    <path d="M16.7303394,38.1347091 C22.396703,38.0552545 25.2696121,36.0298606 25.3504606,32.0585273 C25.3894909,28.8064667 23.4937333,26.8507697 19.6631879,26.1928303 C17.9068242,25.9530727 15.9817939,25.6840424 13.886703,25.3843455 C10.1356121,24.7668303 7.28221818,23.3798606 5.32791515,21.2248303 C3.31227879,19.0098606 2.30446061,16.3167697 2.30446061,13.1441636 C2.30446061,9.33313333 3.57155152,6.25949697 6.10573333,3.92604242 C8.55906667,1.61070909 12.0411273,0.434224242 16.5505212,0.3938 C21.9771273,0.513678788 26.6970061,2.02052727 30.7073697,4.91295152 L24.8500364,9.33870909 C21.5770667,7.18367879 20.1524606,7.08889091 16.2215515,7.00804242 C14.1864,7.00804242 12.4899758,7.5168303 11.1336727,8.53440606 C9.71603636,9.59240606 8.9884,11.1689515 8.94797576,13.2640424 C8.94797576,14.5199818 9.43724848,15.6574364 10.4144,16.6750121 C11.3929455,17.713497 12.9597333,18.4313758 15.1147636,18.8300424 C16.3107636,19.0307697 17.9472485,19.2593758 20.0228242,19.5186485 C24.1126424,20.0776182 27.134703,21.5440424 29.0904,23.9179212 C31.0265818,26.2527697 31.9939758,28.9667697 31.9939758,32.0585273 C31.7737333,40.3998606 26.6663394,44.6290727 16.6704,44.7489515 C10.2053091,44.7489515 4.64906667,42.7542242 0.000278787879,38.7633758 L6.01791515,34.6735576 C9.48882424,37.5269515 11.9421576,38.0956788 16.7303394,38.1347091" id="Fill-1"></path>
                    <path d="M53.9082364,32.1786848 L59.8882364,29.3378364 L62.9172667,31.6991697 C63.3354485,30.2229879 63.5459333,27.1800182 63.5459333,22.5716545 C63.5459333,18.2811091 63.3953879,15.3580182 63.0970848,13.8023818 C62.7764788,12.3262 62.1882364,11.1190485 61.3309636,10.1809273 C60.6716303,9.2832303 59.7934485,8.53468485 58.6964182,7.93668485 C57.5394485,7.35680606 56.1719939,7.04874545 54.5968424,7.00832121 C53.0398121,7.04874545 51.7030242,7.35680606 50.5864788,7.93668485 C49.4490242,8.53468485 48.5304182,9.2832303 47.8320545,10.1809273 C46.9747818,11.1190485 46.4060545,12.3262 46.1258727,13.8023818 C45.8066606,15.3580182 45.6477515,18.2811091 45.6477515,22.5716545 C45.6477515,26.8622 45.8066606,29.7643818 46.1258727,31.2809879 C46.4060545,32.7975939 46.9747818,34.0242606 47.8320545,34.9623818 C48.5304182,35.8600788 49.4490242,36.5891091 50.5864788,37.1466848 C51.7030242,37.8046242 53.0398121,38.1349879 54.5968424,38.1349879 C56.6319939,38.1349879 58.2573273,37.6262 59.4756303,36.6086242 L53.9082364,32.1786848 Z M64.8924788,40.9479576 C62.3178727,43.4026848 58.8859939,44.6683818 54.5968424,44.7492303 C51.1649636,44.6683818 48.3018121,43.8306242 46.0073879,42.2345636 C43.6725394,40.6984424 41.9761152,38.9225636 40.9195091,36.9069273 C40.598903,36.2489879 40.3103576,35.6203212 40.0510848,35.0223212 C39.8113273,34.4034121 39.6119939,33.6255939 39.4516909,32.6874727 C39.1533879,30.932503 39.0028424,27.5591697 39.0028424,22.5716545 C39.0028424,17.5032909 39.1533879,14.1118364 39.4516909,12.395897 C39.770903,10.6799576 40.2601758,9.29298788 40.9195091,8.23498788 C41.9761152,6.22074545 43.6725394,4.42395758 46.0073879,2.84741212 C48.3018121,1.25135152 51.1649636,0.43450303 54.5968424,0.394078788 C58.0677515,0.43450303 60.9615697,1.25135152 63.2755091,2.84741212 C65.5699333,4.42395758 67.2259333,6.22074545 68.2435091,8.23498788 C68.982297,9.29298788 69.4910848,10.6799576 69.7712667,12.395897 C70.0291455,14.1118364 70.1601758,17.5032909 70.1601758,22.5716545 C70.1601758,27.1005636 70.0598121,30.2634121 69.8604788,32.0588061 C69.6012061,33.8542 69.1718727,35.2509273 68.5738727,36.2489879 L75.0738121,41.5278364 L69.0938121,44.3993515 L64.8924788,40.9479576 Z" id="Fill-4"></path>
                </g>
            </g>
        </g>
    </g>
</svg>