<?xml version="1.0" encoding="utf-8"?>
<!-- Generator: Adobe Illustrator 21.1.0, SVG Export Plug-In . SVG Version: 6.00 Build 0)  -->
<svg version="1.1" id="Layer_1" xmlns="http://www.w3.org/2000/svg" xmlns:xlink="http://www.w3.org/1999/xlink" x="0px" y="0px"
	 viewBox="0 0 461 114.9" style="enable-background:new 0 0 461 114.9;" xml:space="preserve">
<style type="text/css">
	.st0{fill:#66FF66;}
	.st1{fill:#2568EF;}
	.st2{fill:#FFFFFF;}
	.st3{fill:#F1F1F2;}
	.st4{fill:none;stroke:#FF6699;stroke-width:0.5416;stroke-miterlimit:10;}
	.st5{clip-path:url(#SVGID_4_);}
	.st6{clip-path:url(#SVGID_8_);}
	.st7{fill:#A6A8AB;}
	.st8{fill:#00FF36;}
	.st9{fill:#FF6699;}
	.st10{fill:none;stroke:#FF6699;stroke-width:0.4927;stroke-miterlimit:10;}
	.st11{fill:#FF6699;fill-opacity:0.3;stroke:#FF6699;stroke-width:0.5;stroke-miterlimit:10;}
	.st12{fill:#FF6699;fill-opacity:0.5;}
	.st13{fill:#0F6860;}
	.st14{fill:#333333;}
	.st15{fill:none;stroke:#66FF66;stroke-width:3;stroke-miterlimit:10;}
</style>
<path class="st0" d="M346,0v115h115V0H346z M403.5,88.3c-17,0-30.8-13.8-30.8-30.8s13.8-30.8,30.8-30.8c17,0,30.8,13.8,30.8,30.8
	S420.5,88.3,403.5,88.3z"/>
<g>
	<path class="st1" d="M44.5,71.5c0,10.2-10.4,16.9-21.6,16.9C11.5,88.4,3.8,82.7,0,76.5l9.5-6.1c2.9,4.9,7.6,7.6,13.2,7.8
		c4.8,0.2,8.4-1.5,9.5-4.8c1-3-0.6-6.1-4.3-7.7c-3.2-1.4-12.1-5.5-13.9-6.4C7.3,56.1,2.6,52,2.6,44.1C2.5,33.9,11.7,27.1,23,27.1
		c9.5,0,16.5,4.5,20.6,10.8l-9.4,5.5c-2-3.3-5.8-6.5-10.7-6.5c-5.8,0-8.9,2.7-9.5,5.8c-0.6,3.5,1.9,5.9,5.7,7.5
		c2.5,1.1,11,5.1,13.9,6.5C39.4,59.4,44.5,63.8,44.5,71.5z"/>
	<path class="st1" d="M81.8,84.6c-3,1.9-7.3,3.3-11.2,3.3c-8.2,0-12.6-6.1-12.6-13.8V53.6h-9.4v-8.3h9.5V32.5h10.7v12.8h12.4v8.3
		H68.9v20c0,3.6,1.7,4.9,5,4.9c1.6,0.1,3.5-0.6,4.5-1.1L81.8,84.6z"/>
	<path class="st1" d="M121.5,70.1H95.4c1.5,4.8,6.1,8.2,10.8,8.2c4.5,0,7.8-2,9.5-3.8c0.4-0.5,0.9-1.1,0.9-1.1l7.7,6.5
		c-3.2,4.1-9.7,8.1-18.1,8.1c-11.8,0-21.7-9.8-21.7-21.9s9.9-21.9,21.7-21.9c6.8,0,13.6,3.3,17.5,8.8c2.6,3.6,3.9,7.5,3.9,11.8
		C127.5,67.5,125.5,70.1,121.5,70.1z M95.3,62.3h21.2c-1-3.7-4.3-8.1-10.3-8.1C101.1,54.2,96.7,57.7,95.3,62.3z"/>
	<path class="st1" d="M177.2,63.7v23.2h-10.6V63.9c0-5.3-4.4-9.5-9.8-9.5c-5.4,0-9.8,4.1-9.8,10.1v22.3h-10.6V45.3h9.7V50
		c3.3-4,8.1-5.7,12.9-5.7C170.2,44.3,177.2,52.8,177.2,63.7z"/>
	<path class="st1" d="M226.2,79.8c-4.1,5.2-10.8,8.4-17.9,8.4c-12.3,0-22.7-9.9-22.7-22.1c0-12.2,10.4-22.1,22.7-22.1
		c7,0,13.6,3.3,17.7,8.3l-8.7,5.9c-2.1-2.4-5.6-3.9-9.1-3.9c-6.5,0-11.7,5.2-11.7,11.8c0,6.5,5.2,11.9,11.7,11.9
		c3.6,0,7.2-1.6,9.3-4.2L226.2,79.8z"/>
	<path class="st1" d="M231.7,34.4c0-3.5,3.1-6.4,6.9-6.4c3.7,0,6.8,2.9,6.8,6.4s-3.1,6.3-6.8,6.3C234.7,40.7,231.7,37.9,231.7,34.4z
		 M233.1,45.3h10.6v41.5h-10.6V45.3z"/>
	<path class="st1" d="M270.4,78.4l2.9,7.1c-2.8,1.7-6.2,2.4-8.1,2.4c-6.7,0-10.6-4.8-10.6-11.7V28.1h10.7v47.5
		c0,1.2,0.6,1.9,1.2,2.4C267.3,78.5,268.4,78.8,270.4,78.4z"/>
	<path class="st1" d="M319.3,45.3v41.6h-9.7v-4.4c-3,3.4-7.9,5.8-13.1,5.8c-12.3,0-21.6-9.9-21.6-22c0-12.2,9.3-22,21.6-22
		c5.2,0,10.1,2.3,13.1,5.6v-4.6H319.3z M308.6,70.8v-9.3c-1.9-4.2-6.1-7.2-11-7.2c-2.5,0-4.9,0.8-6.9,2.1c-3.1,2.1-5.2,5.7-5.2,9.7
		c0,4,2.1,7.7,5.2,9.7c2,1.4,4.3,2.1,6.9,2.1C302.5,78,306.7,75.1,308.6,70.8z"/>
</g>
<circle class="st1" cx="430.2" cy="57.5" r="30.8"/>
<path class="st13" d="M430.2,26.7c-4.8,0-9.3,1.1-13.3,3c10.4,5,17.5,15.6,17.5,27.8c0,12.3-7.1,22.8-17.5,27.8c4,1.9,8.6,3,13.3,3
	c17,0,30.8-13.8,30.8-30.8C461,40.5,447.2,26.7,430.2,26.7z"/>
</svg>
