<?xml version="1.0" encoding="UTF-8"?><svg id="Layer_1" xmlns="http://www.w3.org/2000/svg" viewBox="0 0 1122.63303 262.023"><defs><style>.cls-1{fill:#1439c1;}.cls-2{fill:#262947;}</style></defs><path class="cls-2" d="M473.26186,192.96388c7.53003,.53,16.42999-6.89,16.21002-16.12-.28998-12.17999-.13-64.95999,0-79.16,.02002-2.41,.44-5.03,1.47998-7.16,2.57001-5.23,8.39001-8.03999,13.12-6.85001,6.15997,1.55,10.34003,6.87,10.35999,13.52l.13,105.43001c.16998,8.25-6.29999,15.37-14.91998,15.07999-17.25-.60001-34.54999-.17001-51.82001-.17999-7,0-12.34-4.92001-12.95001-11.89001-.75-8.60999-6.31-14.23999-14.92001-15.13-7.29999-.75-12.54001-6.41-12.54999-13.78999-.04001-26.62-.04001-53.25,0-79.87001,.01001-7.10001,5.94-13.44,12.39001-13.52,6.64001-.08,12.42999,6.27,12.42999,13.72,.01999,26.39,.42001,52.78,0,79.16-.13,8.31999,7.26001,17.37999,16.56,16.74001h24.48001v.02002Z"/><path class="cls-2" d="M626.06185,151.36389c0-8.8,.09003-17.60001-.02002-26.39999-.12-9.06999-6.90002-15.72-15.84998-15.75-8.33002-.02-16.65997-.03-24.98999,0-8.97998,.03-15.87,6.78-15.90002,15.72-.06,17.60001-.06,35.2,0,52.8,.03003,8.78999,6.81,15.42001,15.67999,15.45999,8.33002,.04001,16.69-.42999,24.97998,.14001,7.90002,.54001,16.53003-7.27,16.17999-16.28-.34003-8.55-.07001-17.13-.07001-25.69m-81.45001-106.96c0-6.5,3.65002-11.68,9.31-13.4,7.12-2.17,15.16998,3.83,15.29999,11.62,.15002,8.57,.03003,17.13999,.04999,25.71,.03003,9.53,6.65002,16.2,16.08002,16.22,8.21997,.00999,16.42999-.03,24.65002,.00999,7.63,.03999,12.96997,5.11,13.53003,12.74001,.53998,7.42,6.75,13.67,14.39001,14.50999,8.23999,.89999,12.89001,5.96001,12.90997,14.16,.03003,16.89999,.03003,33.81,0,50.71001-.02002,7.96001-5.28998,13.67001-13.01001,14.23999-7.52002,.56-13.77002,6.84-14.29999,14.37-.53003,7.53-5.75,12.42001-13.31,12.42001h-52.12c-8.04999,0-13.47998-5.48999-13.48999-13.78,0-.26001,.40997-158.60001,.40997-158.60001"/><path class="cls-2" d="M1001.18185,97.83389c.06995,8.44-5.43994,13.06999-14.06995,13.16-7.59003,.09-15.17999-.05-22.77002,.09-7.59998,.13-13.20001,4.23-13.28998,11.62-.15002,12.25999-.39001,36.31-.39001,36.31,0,14.96001,.40997,29.92,.39001,44.87001,0,7.69-6.06,13.82999-13.06,13.82001-7.07001,0-12.54999-6.03-12.56-13.88-.02002-18.19,.04999-69.04001-.03003-76.26001-.09998-9.31,3.32001-14.52,12.90997-17.00999,4.57001-1.19,10.45001-6.32001,11.41998-10.64999,2.23999-9.98,7.03003-14.66,15.59003-15.18001,.34003-.02,22.88,.17999,22.88,.17999,7.88,.46001,12.92004,4.89999,12.98999,12.92"/><path class="cls-2" d="M337.10186,124.11389c9.12,.03,15.56,6.07001,16.32999,15.22,.79999,9.62,8.25,17.03,17.79999,17.72,7.73001,.55,14.84,7.57001,14.85999,14.64999,.01999,7.17999-7.29001,14.37-15.16,14.91-9.42001,.66-16.72,7.87999-17.51001,17.33-.75,9.09-6.94,14.76999-16.10001,14.78h-62.51999c-8.56,0-16.07001-6.82999-16.03-14.54001,.04001-7.60001,7.60001-14.73999,16.07999-14.79999,16.75-.12,58.42999,.01999,62.51999,0,8.5-.04999,16.14001-5.67999,18.37-13.44,2.04999-7.14999-1.07999-15.05-8.32999-19.50999-2.5-1.53999-5.72-2.55-8.64001-2.64-10.13-.32001-20.26999-.10001-30.41-.13-9.75-.02-16.10001-5.89999-16.85001-15.53-.69-8.88-8.51999-16.42-17.89999-17.27-8.06-.72-14.81-7.33-14.82999-14.53-.03-7.24001,6.56-13.75,14.78-14.61,10.41-1.09,17.29001-8.33,17.98001-18.89999,.45999-7.00999,7.22-13.64,14.70999-13.7,21.67999-.16,43.37-.2,65.04999,0,7.78,.07,15.10999,7.98,14.79001,15.13-.34,7.39999-7.70001,14.3-15.63,14.33-21.26001,.08-42.51999-.03-63.79001,.05-11.59,.03999-20.67001,11.52-17.63,22.06999,2.14001,7.42,9.81,13.31,17.64999,13.37l30.41,.03,.00009,.00999Z"/><path class="cls-2" d="M1083.2618,179.97389c0,8.89999-7.21997,16.12-16.10999,16.12h-31.13c-8.90002,0-16.12-7.22-16.12-16.12v-3.49001c0-8.89999,7.20996-16.12,16.12-16.12h31.13c8.90002,0,16.10999,7.22,16.10999,16.12v3.49001Zm-69.94006-40.98c-8.39001,.05-15.16003,6.92999-15.05005,15.35001v24.06999c-.02002,5.89,4.71997,13.26001,11.12,13.84,8.53003,.78,14.25,6.45001,14.93994,14.79001,.58997,7.12,7.26001,10.48001,14.45996,10.48001,17.09998,0,34.20996-.39001,51.29004,.17999,8.04004,.26999,14.78003-6.54001,14.55005-14.76999l-.09998-76.59c-.01001-8.48-4.55005-13.5-12.94995-14.44-7.59998-.85001-13.87-7.21001-14.31006-14.50999-.43994-7.33-5.85999-12.60001-13.18994-12.66-8.19995-.07001-16.40002-.03999-24.58997,0-7.79004,.03-13.76001,5.49001-13.69995,12.47,.06006,6.77,6.05005,12.09,13.68994,12.11,8.31995,.02,16.64001-.14,24.93994,.09,2.45996,.07001,5.15002,.75,7.29004,1.94,6.19995,3.47,9.10999,10.13,7.58997,16.28-1.55005,6.25999-8.22998,11.49001-15.07996,11.58h-.05005l-50.87-.2,.02002-.01003Z"/><path class="cls-2" d="M717.33187,137.33389c-6.33002-.52-12.33002-5.36-14.06-11.37-2.59998-9.00999,5.15997-18.81999,15.06-18.85001,18.15997-.06,36.32001,.02,54.47998-.03999,6.77002-.02,13.06-5.91,13.34998-12.24001,.28003-6.11-5.98999-12.86-12.63-12.93001-18.52002-.17-37.03998-.14999-55.56,0-6.39001,.05-12.16998,5.72-12.56,11.71001-.59003,9.03-6.46997,15.21001-15.35999,16.14-7.02002,.74001-12.65002,6.3-12.62,12.48v23.44c0,9.35001,7.58002,16.94,16.92999,16.95,0,0,42.73999-.13,51.40002,.14,2.5,.08,5.25,.94,7.38,2.25,6.19,3.81,8.87,10.56,7.10999,16.66-1.90002,6.64-8.42999,11.40999-15.69,11.45-3.48999,.01999-39.09003-.06-53.40002,.04001-7.23999,.04999-13.70001,6.14999-13.73999,12.64001-.03003,6.59,6.38,12.41,13.69,12.42001h53.40002c7.83002,0,13.10999-4.85999,13.75-12.62,.66998-8.07001,6.90002-14.23999,14.95001-14.79999,6.72998-.47,12.96997-6.61,12.95001-12.74001v-23.67c0-9.35001-7.58002-16.94-16.92999-16.95l-51.90002-.10001v-.01004Z"/><path class="cls-2" d="M892.17184,189.83387c-7.92999-.09-15.85999,.14001-23.78003,0-7.94-.14001-13.66998-4.49001-13.88-12.17-.53998-19.16-.32001-50.45-.23999-70.50999h40.01001c6.87,0,12.44-5.94,12.44-12.81s-5.57001-12.44-12.44-12.44h-40.32001c-.02002-9.96001-.04999-27.08,.03998-35.52,.09998-9.11-3.13-16.27-13.01001-16.35-9.81-.07-13.37,6.78-13.22998,16.05,.13,8.5,.09003,25.83,.06,35.81h-13.65997c-6.87,0-12.44,5.57001-12.44,12.44s5.57001,12.81,12.44,12.81h13.64001c.03003,18.33,.12,47.92-.07001,65.45-.10999,9.68001,3.46997,15.09999,13.47998,17.68999,4.77002,1.23999,10.91998,6.57999,11.92999,11.07001,2.67999,11.89001,8,15.85999,20.45001,15.73999l18.23999-.10999h.12c9.01001-.03,14.84998-4.69,14.92999-13.47s-5.67999-13.59-14.69-13.69"/><path class="cls-1" d="M176.53185,164.74389c-.14999-8.05-3.38-11.25-11.50999-11.43001-3.48-.08-15.24001-.03-17.64999-.05-7.78999-.07001-8.98-9.16-9-14.56999-.00999-2.3,.02-15.56-.00999-18.74001-.09-9.52-2.64-12.14-11.89-12.2-6.23-.03999-48.61-.02-55.6-.00999h0c-1.96,0-4.1-1.03-5.86-2.84-2.09-2.14-3.37-5.06-3.33-7.62,.09-6.94,.07-13.99001,.04-20.58-.01-2.12,1.08-4.5,2.92-6.38,1.68-1.71001,3.75-2.73,5.55-2.73,13.35-.03999,95.47,.16,95.47,.16,3.53,.05,6.25999-.86,8.11-2.71001,1.84-1.83,2.77-4.50999,2.77-7.99,0-5.48-.03-20.08,0-21.74,.05-3.57-.85001-6.32-2.67999-8.19-1.81-1.85-4.47-2.8-7.91-2.8H70.20186c-6.68,0-10.37,3.73-10.37,10.49,0,3.98,.07,18.37,.07,21.01,0,2.69-1.24,5.55-3.34,7.64999-1.78,1.78-3.94,2.75999-6.08,2.75999h-.08c-6.36-.07001-12.68-.03999-19.69,.00999-3.5,.02-6.21,.99001-8.04,2.87-1.82,1.86-2.73,4.56-2.7,8.02,.03,2.95-.01,15.73,.03,19.18001,.11,8.8,3.04,11.81,11.6,11.92999,3.29,.03999,15.04,0,17.64,.03,6.38,.05,10.45,4.64999,10.61,11.99001,.07,3.33-.03,16.11-.03,18,0,11.2,2.25,13.47,13.4,13.47,5.98,0,41.22-.03,52.87,.03999,2.03999,0,8.69,1.07001,8.77,14.19,.03,5.21001,.02,10.78999-.03999,17.08-.06,6.73-5.10001,12.02-11.47,12.05H28.86185c-2.89,.16-5.02,1.04001-6.64,2.64999-1.83,1.82999-2.77,4.51001-2.77,7.98999,0,3.64999-.07,17.38-.13,20.51999-.06,3.5,.82,6.23001,2.64,8.10999,1.74,1.79999,4.22,2.73001,7.39,2.73001H124.88186c3.31-.01001,5.89999-.92999,7.67-2.73999s2.66-4.42999,2.63-7.79001c0,0-.11-13.23001-.02-19.13,.09-6.53,5.33-11.91,11.67999-12,4.49001-.06,17.13-.01001,18.95-.01001h.02c3.50999,0,6.22-.95001,8.05-2.81,1.82001-1.85001,2.73-4.54001,2.7-8.00999-.02-2.75,.03999-16-.03-19.88"/></svg>