<svg id="Layer_1" data-name="Layer 1" xmlns="http://www.w3.org/2000/svg" viewBox="0 0 800 300"><defs><style>.cls-1{fill:#e4545c;}.cls-2{fill:#f4c763;}.cls-3{fill:#e98365;}.cls-4{fill:#6b6b6b;}.cls-5,.cls-8{fill:none;}.cls-6{fill:#717171;}.cls-7{fill:#fefdfd;}.cls-8{stroke:#fefdfd;stroke-linecap:round;stroke-linejoin:round;stroke-width:0;}</style></defs><title>talos</title><path class="cls-1" d="M164.98085,272.96992c51.13237-42.66574,52.9783-117.11245.44326-160.95515,26.24788-16.53437,75.34628-14.022,106.27614,21.15938,27.71409,31.52369,29.80163,79.87425,4.09288,113.3737C249.3641,280.98587,203.36566,292.22351,164.98085,272.96992Z"/><path class="cls-2" d="M158.38182,16.50617c35.69339.287,71.84762,28.7113,81.86207,69.24238,2.74834,11.12316,1.84359,12.0128-9.14536,8.99294-57.23481-15.7287-114.69644,19.37864-126.338,77.72358-2.12747,10.66243-5.85826,7.03336-10.8918,2.9655C46.781,137.37616,53.97569,58.24331,107.1155,28.54414,121.16688,20.691,135.947,16.16479,158.38182,16.50617Z"/><path class="cls-3" d="M51.28259,119.19231c4.484,22.85717,12.67115,42.86916,29.10447,58.68136,29.17707,28.07431,63.39256,36.617,102.122,25.32392,9.40856-2.74343,10.32347-1.18924,8.44058,7.80521-7.86071,37.54972-41.81243,68.27328-79.613,71.26122-41.44948,3.27637-80.18657-21.4922-93.74476-59.9406C4.22573,184.41964,17.42184,142.573,51.28259,119.19231Z"/><path class="cls-4" d="M152.24169,196.77539c-11.13035.29081-21.69082-2.28337-32.14854-5.88537-5.06686-1.74523-6.8642-4.37486-6.02269-9.71737,3.80249-24.14117,14.82127-44.01193,33.76981-59.636,4.38064-3.612,7.14286-3.05033,11.16671.29111,18.55865,15.41114,29.42049,35.03082,33.40379,58.69649.8832,5.24727-.886,7.92161-5.92587,9.73124C175.37227,194.2456,164.13425,197.09651,152.24169,196.77539Z"/><path class="cls-5" d="M485.72705,137.788a10.9128,10.9128,0,0,0-1.85821-.25415c-.63074-.036-1.27118-.031-1.91559-.0083-1.28894.04535-2.5943.16126-3.87268.16144-2.55671.00012-5.11609-.05212-7.67377-.07226s-5.11377-.00812-7.66394.12072c-8.03253.40589-12.60413,4.05054-12.97937,12.85938-.77631,18.22479,4.60516,23.18078,22.645,19.79492,7.269-1.36432,13.58649-4.891,19.99609-8.42975,8.9195-4.92456,7.05744-13.22491,5.99561-20.2995C497.27905,134.19055,490.11005,138.80908,485.72705,137.788Z"/><path class="cls-4" d="M517.83466,175.52588q.38195-30.77041.077-61.54852c-.17554-20.08106-9.07837-29.68445-29.12555-30.99775-15.0437-.98553-29.96387,1.08228-44.84723,3.16187-5.08447.71045-10.27563.06891-8.78473,8.47571,1.35675,7.65014,5.34961,6.53033,10.94715,6.1488,13.49652-.91986,27.02923-2.511,40.59582-.99164,10.61334,1.1886,12.0461,8.48511,12.17694,17.406.13253,9.0358-6.35593,7.77812-12.6914,7.38625-10.95831-.67781-21.98255-.76668-32.97681-.58749-8.21191.13392-14.9126,3.42286-19.37946,10.50318-5.76916,9.14459-5.18994,33.77954,1.41791,42.23187,8.7425,11.1828,21.02429,12.31793,33.86823,10.40808,11.46112-1.70416,21.14313-7.61432,31.16577-15.3501.87054,2.9831,1.10038,4.35871,1.61816,6.00344,2.26286,7.18792,3.98944,8.38847,10.39008,8.13261C520.7041,185.57159,517.78516,179.51514,517.83466,175.52588ZM492.4046,161.96c-6.4096,3.53876-12.72705,7.06543-19.99609,8.42975-18.03986,3.38586-23.42133-1.57013-22.645-19.79492.37524-8.80884,4.94684-12.45349,12.97937-12.85938,2.55017-.12884,5.1062-.14087,7.66394-.12072s5.11706.07238,7.67377.07226c1.27838-.00018,2.58374-.11609,3.87268-.16144.64441-.0227,1.28485-.02771,1.91559.0083s2.19732.02035,2.81972.01378c4.97719-.05256,10.96915-.24938,11.71165,4.11287C499.60059,148.71286,501.3241,157.0354,492.4046,161.96Z"/><path class="cls-4" d="M656.43964,84.2688c-45.05579-6.53638-62.42286,10.57544-61.07874,52.19128-.075,9.86644.45007,20.74127,4.7475,31.07331,6.3996,15.38592,20.83031,21.61843,35.83879,22.09048,18.36279.57751,36.24153.14218,47.21608-19.36362,2.44812-4.35125,3.68054-9.5476,4.69073-14.51373a106.758,106.758,0,0,0,.05719-40.33777C684.48041,96.16382,675.90521,87.09271,656.43964,84.2688Zm13.63916,59.85345c-1.17218,23.74817-18.97953,34.83793-42.064,25.87354-5.7-2.2135-9.35608-6.71015-10.88959-12.85565a84.85131,84.85131,0,0,1-.37744-41.08466c3.08722-12.66492,10.046-16.82324,25.53784-16.80029,15.61005.02307,22.10627,4.33825,25.863,16.63251a62.68011,62.68011,0,0,1,2.43046,19.4823C670.57908,138.28772,670.22247,141.21161,670.0788,144.12225Z"/><path class="cls-4" d="M780.41034,100.044c5.04346.22607,6.15185-2.34943,6.397-6.62977.25251-4.40814-4.36514-7.32152-10.39233-8.44244-18.29273-3.402-29.45416-4.13306-46.69775-1.36127-18.11811,2.9123-23.66932,8.78-24.1236,25.24836-.50128,18.17413,5.89825,26.67309,23.08252,30.59,9.96765,2.272,19.99231,4.31317,29.90423,6.80408,6.8678,1.72589,13.666,3.86194,13.37116,13.16772-.29834,9.41736-6.94666,10.86408-14.24,11.84485-13.88928,1.8678-27.79138,1.37616-41.66681.15467-4.92853-.43384-7.17815.98188-7.90119,6.06659-.46075,3.24021-2.32415,7.58074,3.8042,8.31115,20.42365,2.43421,40.86573,4.15753,61.18915-.37585,7.49719-1.6723,13.85108-5.96417,15.46033-13.95539,4.284-21.27331,1.21655-36.068-23.40827-40.90277-10.73333-2.10742-21.376-4.74847-31.95471-7.54467-7.01422-1.854-9.88745-6.83875-9.13177-14.11219.72333-6.9624,5.13716-8.252,11.29083-9.25073,10.87915-1.76574,16.09357-1.21111,24.14044-1.21111"/><path class="cls-4" d="M403.51428,170.53357c-12.11371-.76379-14.85376-3.0069-14.94684-14.97571-.08252-10.60443-.01544-21.21-.01525-31.81506.00036-22.83124-.00348-23.04077,22.96887-23.42865,5.93426-.10016,8.27533-1.34088,8.2998-7.83252.02661-7.025-3.397-7.79694-8.83227-7.39331-2.91114.21612-5.6764.29417-8.76874.46384-10.6202.5827-13.0938.67135-14.08811-11.19007a47.84294,47.84294,0,0,1,.47159-8.96615c1.2685-7.98646-2.50287-9.25757-9.7937-9.675-9.74774-.558-9.52588,4.61981-9.34485,11.35663.26313,9.78973,3.21131,21.66534-13.85925,19.60589-5.245-.63275-4.01282,3.929-4.1872,6.98248-.19879,3.483-.00073,7.29621,4.856,6.38471,14.30866-2.68549,12.89531,6.14222,13.33209,15.94623.27619,6.19914-.07055,12.42926-.06976,18.646.00086,9.14228-.29956,18.29663.06806,27.4242q.93383,23.18711,21.83984,25.50854c6.1499.67957,12.38354-.48187,18.54333-.72723,11.3357-.45136,9.00531-7.54651,6.91773-13.36579C414.54907,166.91351,408.02051,170.81769,403.51428,170.53357Z"/><path class="cls-6" d="M578.55408,170.07831c-14.81488-.4137-16.48621-2.65112-16.51807-17.93653-.0708-34.07818-.25476-68.15948.1557-102.23291.09528-7.9057-3.94354-7.83648-9.5321-7.83258-5.54993.00385-9.80628-.1983-9.57508,7.77344.54175,18.67249.17322,37.37128.17279,56.05939q-.00083,26.38331.00446,52.76648c.03326,22.99884,14.30695,33.91113,36.72443,28.25274,4.20575-1.06158,7.7575-1.96557,6.52539-7.69915C585.51062,174.57147,585.744,170.27905,578.55408,170.07831Z"/><path class="cls-7" d="M483.86884,137.53381c-.63074-.03595-1.27118-.03094-1.91559-.0083-1.28894.04535-2.5943.16144-3.87268.16175-2.55671,0-5.11609-.05237-7.67377-.07257s-5.11377-.00812-7.66394.12072c-8.03253.40589-12.60413,4.05054-12.97937,12.85938-.77631,18.22479,4.60516,23.18078,22.645,19.79492,7.269-1.36432,13.58649-4.891,19.99609-8.42975,8.9195-4.92456,7.20316-13.24832,5.99561-20.2995"/><path class="cls-8" d="M462.74286,137.73541c2.55017-.12884,5.1062-.14087,7.66394-.12072"/><path class="cls-7" d="M481.95325,137.52551c-1.28894.04535-2.5943.16126-3.87268.16144-2.55671.00012-5.11609-.05212-7.67377-.07226,2.55768.0202,5.11706.07257,7.67377.07257C479.359,137.687,480.66431,137.57086,481.95325,137.52551Z"/><path class="cls-7" d="M483.86884,137.53381c-.63074-.036-1.27118-.031-1.91559-.0083C482.59766,137.50287,483.2381,137.49786,483.86884,137.53381Z"/><path class="cls-4" d="M420.13379,254.82617H403.54785l-3.76367,10.2627h-3.23682l13.82569-36.53321h2.93554l13.8252,36.53321h-3.21094ZM404.502,252.2168h14.65332l-7.32715-19.89746Z"/><path class="cls-4" d="M470.09082,228.55566v24.94141a12.62957,12.62957,0,0,1-1.63086,6.42285,10.68792,10.68792,0,0,1-4.52832,4.20313,14.7637,14.7637,0,0,1-6.71191,1.46777,13.2451,13.2451,0,0,1-9.24707-3.14941,11.54532,11.54532,0,0,1-3.60059-8.71875v-25.167h3.06152v24.71485a9.49918,9.49918,0,0,0,2.63477,7.16406,11.27265,11.27265,0,0,0,14.28906-.01269,9.49857,9.49857,0,0,0,2.62207-7.126V228.55566Z"/><path class="cls-4" d="M516.334,231.165h-12.5205v33.92383h-3.08594V231.165H488.23145v-2.60938H516.334Z"/><path class="cls-4" d="M561.374,248.80469a21.10123,21.10123,0,0,1-1.74414,8.85742,13.29587,13.29587,0,0,1-4.98047,5.87109,13.63457,13.63457,0,0,1-7.47753,2.05762,12.97557,12.97557,0,0,1-10.33692-4.5791q-3.94043-4.57911-3.93945-12.35742v-3.76368a20.98527,20.98527,0,0,1,1.76855-8.84472,13.14429,13.14429,0,0,1,12.458-7.99219,13.65587,13.65587,0,0,1,7.43945,2.03223A13.3555,13.3555,0,0,1,559.542,235.832a20.67467,20.67467,0,0,1,1.832,8.60645Zm-3.08593-3.96485q0-6.59912-2.98633-10.33789a10.73785,10.73785,0,0,0-16.29688.0127q-3.02343,3.75146-3.02343,10.47558v3.81446q0,6.498,3.01074,10.2998a10.74712,10.74712,0,0,0,16.36035.04981q2.93555-3.75,2.93555-10.4502Z"/><path class="cls-4" d="M609.19824,265.08887h-3.08691l-21.001-31.26367v31.26367H581.999V228.55566h3.11133l21.02637,31.28907V228.55566h3.06152Z"/><path class="cls-4" d="M658.32715,248.80469a21.10139,21.10139,0,0,1-1.74414,8.85742,13.29593,13.29593,0,0,1-4.98047,5.87109,13.63458,13.63458,0,0,1-7.47754,2.05762,12.97555,12.97555,0,0,1-10.33691-4.5791q-3.94044-4.57911-3.93946-12.35742v-3.76368a20.98527,20.98527,0,0,1,1.76856-8.84472,13.14429,13.14429,0,0,1,12.458-7.99219,13.65592,13.65592,0,0,1,7.43945,2.03223,13.35556,13.35556,0,0,1,4.98047,5.74609,20.67482,20.67482,0,0,1,1.832,8.60645Zm-3.08594-3.96485q0-6.59912-2.98633-10.33789a10.73784,10.73784,0,0,0-16.29687.0127q-3.02344,3.75146-3.02344,10.47558v3.81446q0,6.498,3.01074,10.2998a10.74712,10.74712,0,0,0,16.36035.04981q2.93556-3.75,2.93555-10.4502Z"/><path class="cls-4" d="M683.042,228.55566l13.47363,32.24219L710.04,228.55566h4.11523v36.53321h-3.08593V249.18066l.25-16.30957L697.7207,265.08887h-2.38379l-13.5498-32.0918.251,16.083v16.00879h-3.08594V228.55566Z"/><path class="cls-4" d="M746.27246,248.47852l11.166-19.92286h3.5625l-13.19825,22.78321v13.75H744.7168v-13.75L731.544,228.55566H735.207Z"/></svg>