<svg xmlns="http://www.w3.org/2000/svg" role="img" viewBox="-8.13 -7.88 409.76 124.51"><style>svg {enable-background:new 0 0 393.9 108.9}</style><style>.st0,.st1{fill-rule:evenodd;clip-rule:evenodd;fill:#ec1c24}.st1{fill:#3e4142}</style><path d="M12.8 72c18.1-.1 16-1.1 16 7v29.8h12.8V78.3c0-4.2-.8-6.2 3.7-6.2 9.8 0 12.3-1.1 12.3 5.5v31.2c3.4.1 9.8.3 12.8-.1-.1-9.8 0-19.8 0-29.6 0-3.9.6-10.5-1.1-13.6-1.9-3.6-4.7-4.6-10-4.6H.2c-.4 4.4-.2 40-.1 46.9v1.1h12.8L12.8 72zm280.4 1.9v26c-5.6.1-11.2 0-16.8 0-4 0-4-.6-3.9-4.5.1-14.9-1.2-12.5 12.6-12.7 5.1-.1 5.2-5.9 8.1-8.8zm0-.3c-3.7-.2-26.3-.3-28.4.4-3.8 1.3-5.2 4.2-5.2 9v14.5c0 5.1-.5 8.7 3.6 10.6 2.3 1.1 24.2.6 28.4.6 4.1 0 10.5.4 14.4 0V60.8h-12.7l-.1 12.8zm-168.6 35.1V86.1c0-7.7.2-12.5-10-12.5H92.3c-4.4 0-6.8-.7-8.8 2.4-.8 1.3-4.2 5.7-4.4 6.7 8.4-.1 16.9 0 25.4 0 5.1 0 7.6-.5 7.6 5.2 0 4 .2 8.3 0 12.4H89.9c-.5-6.4.1-5.4 5.8-5.4 3.4 0 7.9.3 11.1-.1-.1-7.1 1.4-7-5.8-7-25.7 0-22.4-2.3-22.5 15.9 0 5.6 3.1 5.1 8 5.1l38.1-.1zm269.2 0c.1-7.6 0-15.1 0-22.6 0-7.6.1-12.5-10-12.5h-22.4c-4.5 0-6.6-.7-8.8 2.4-.8 1.1-4.2 5.9-4.4 6.7h25.4c5.1 0 7.6-.5 7.5 5.1 0 4 .1 8.3-.1 12.4h-22.3l.2-4.7c.7-1.5 13-.4 16.9-.8-.1-7.1 1.4-7-5.8-7-25.7 0-22.4-2.3-22.5 15.9 0 5.4 2.8 5.1 7.7 5.1 12.8 0 26.3-.2 38.6 0z" class="st0"/><path d="M61.1 48h27.7c3.6 0 4.2-1.4 5.6-3.6.7-1.1 3.3-4.6 3.6-5.6-8.3.2-16.9 0-25.3 0-4.8 0-7.6.5-7.6-4.9 0-4.2-.1-8.5 0-12.7h22.2c0 4.9.5 5.5-2.7 5.5H70.5l-.1 3.9c0 4.2 1.9 3.2 5.8 3.2h9.4c6 0 12.9 1.5 12.9-5.5 0-15.2 1.4-15.6-8.1-15.6h-38v21.7c.2 5.7-.9 13.6 8.7 13.6z" class="st1"/><path d="M145.5 82.6c3.5.3 7.7 0 11.3 0 3.7 0 7.8-.6 8.2 3.4.3 2.8 0 18.2 0 22.6l12.8-.1c-.1-6.4 0-12.9 0-19.2 0-6.5 1.1-12.2-4-14.9-3-1.6-14-.9-18.2-.9-4.8 0-4.2.6-6.2 3.5-1.3 1.7-2.9 3.8-3.9 5.6-.3-1.8-.1-18.7-.1-21.9h-12.8v47.9h12.8l.1-26zm74.8.1h11.2c3.8 0 6.9-.3 7 3.9.3 7.2.1 14.9 0 22.1h12.8V88.8c0-7 1-12.6-5-14.8-2-.7-34.7-.7-38.9-.4v35.1h12.9v-26z" class="st0"/><path d="M.1 11h17.2v36.8c1.6.4 10.5.2 12.8.1V11h17.2l.1-11H.2L.1 11zm146 36.9v-8.8c-1.5-.3-17.1-.1-20-.1-8.5 0-7.3-.5-7.3-12.9 0-3.8 1.1-4.9 5-4.9H134c8 0 8.8 1.6 11.9-8.3-9.4-.3-19.2 0-28.7 0-12.9 0-11.1 5.4-11.1 17.6 0 12.3-1.8 17.5 11.1 17.5 4.4 0 26.6.2 28.9-.1z" class="st1"/><path d="M327.4 108.6V94.4c0-5-1-10.7 2.5-11.6 3.6-1 10.2 1 12.9-1.1.8-.6 5.5-7.2 5.9-8.2h-25.9c-8 0-8.2 1.9-8.2 9.2v25.9h12.8z" class="st0"/><path d="M153.9 47.9l12.7.1V0H154zm12.8-26c3.5.3 7.9.1 11.5.1 9.9 0 8.2 0 8.2 14.6V48l12.7.1c.1-6.3 0-12.7 0-19.1s1.2-12.4-3.9-15.2c-3.1-1.7-13.9-.9-18.2-.9-5.1 0-4.5.5-9.2 7.4l-1.1 1.6z" class="st1"/><path d="M199 74c-1.3.6-2.5 1.5-3.9 2.3-4.5 2.7-8.7 4.4-8.9 8.7-.4 7.6 0 16 0 23.7H199V74zm-12.8 3.9c.5-.2 11.6-7.3 12.7-8.4l.1-8.8h-12.7l-.1 17.2z" class="st0"/></svg>