<svg id="Layer_1" data-name="Layer 1" xmlns="http://www.w3.org/2000/svg" viewBox="0 0 887.64001 413"><defs><style>.cls-1{fill:#4095d1;}.cls-2{fill:#ef4637;}.cls-3{fill:#ffc20e;}.cls-4{fill:#30b455;}.cls-5{fill:none;}</style></defs><title>google-tensorflow-privacy</title><path class="cls-1" d="M15.83135,125.449c0-59.528,50.045-107.993,109.574-107.993,32.925,0,56.367,12.907,74.014,29.764l-20.808,20.808c-12.643-11.852-29.764-21.07-53.206-21.07-43.46,0-77.439,35.031-77.439,78.49,0,43.462,33.978,78.494,77.439,78.494,28.183,0,44.25-11.327,54.523-21.6,8.43-8.428,13.96-20.544,16.067-37.138h-70.59v-29.5h99.3a96.10908,96.10908,0,0,1,1.581,18.438c0,22.125-6.059,49.518-25.55,69.01-18.964,19.754-43.198,30.29-75.331,30.29-59.529,0-109.574-48.465-109.574-107.993Z"/><path class="cls-2" d="M306.53736,94.368c-38.457,0-69.8,29.237-69.8,69.537,0,40.037,31.343,69.536,69.8,69.536,38.455,0,69.799-29.5,69.799-69.536C376.33637,123.605,344.99238,94.368,306.53736,94.368Zm0,111.68c-21.073,0-39.247-17.383-39.247-42.143,0-25.023,18.174-42.144,39.247-42.144,21.071,0,39.245,17.121,39.245,42.144C345.78236,188.665,327.60835,206.048,306.53736,206.048Z"/><path class="cls-3" d="M458.80534,94.368c-38.457,0-69.8,29.237-69.8,69.537,0,40.037,31.343,69.536,69.8,69.536,38.455,0,69.801-29.5,69.801-69.536,0-40.3-31.346-69.537-69.8-69.537Zm0,111.68c-21.071,0-39.247-17.383-39.247-42.143,0-25.023,18.176-42.144,39.247-42.144s39.245,17.121,39.245,42.144C498.05033,188.665,479.87632,206.048,458.80534,206.048Z"/><path class="cls-1" d="M645.70634,98.582V109.91h-1.053c-6.849-8.166-20.019-15.54-36.613-15.54-34.768,0-66.64,30.553-66.64,69.8,0,38.983,31.872,69.272,66.64,69.272,16.594,0,29.764-7.374,36.613-15.803h1.053v10.01c0,26.603-14.223,40.825-37.14,40.825-18.7,0-30.29-13.433-35.03-24.758l-26.604,11.062c7.638,18.438,27.92,41.09,61.635,41.09,35.822,0,66.113-21.072,66.113-72.434V98.583Zm-35.031,107.466c-21.072,0-38.72-17.647-38.72-41.88,0-24.495,17.648-42.407,38.72-42.407,20.808,0,37.138,17.912,37.138,42.407C647.81333,188.401,631.48332,206.048,610.67533,206.048Z"/><path class="cls-4" d="M695.75132,24.832h30.554V229.228h-30.554Z"/><path class="cls-2" d="M810.06632,206.048c-15.541,0-26.604-7.111-33.715-21.07l92.98-38.457-3.16-7.902c-5.796-15.54-23.443-44.25-59.53-44.25-35.822,0-65.584,28.183-65.584,69.536,0,38.983,29.499,69.536,69.009,69.536,31.87,0,50.309-19.49,57.947-30.817l-23.706-15.803c-7.901,11.59-18.7,19.227-34.241,19.227Zm-2.371-84.813c12.117,0,22.389,6.059,25.813,14.75l-62.16,25.813C770.55637,134.931,792.15537,121.235,807.69535,121.235Z"/><path class="cls-5" d="M15.28816,17.285h856V297.131h-856Z"/><path d="M68.33454,315.60368v12.10156H47.88581v56.24609H33.5113V327.70524H12.96979V315.60368Z"/><path d="M101.5484,334.43278a20.55378,20.55378,0,0,1,8.73389,7.47754,24.83475,24.83475,0,0,1,4.02686,10.44824,64.59924,64.59924,0,0,1,.43554,10.03125H77.93317q.30762,7.604,5.28516,10.665a13.42476,13.42476,0,0,0,7.28662,1.90039,10.265,10.265,0,0,0,10.0581-5.7959h13.4917q-.5332,4.49854-4.89892,9.13477-6.79176,7.37256-19.01514,7.373A27.55093,27.55093,0,0,1,72.338,379.4484q-7.71313-6.21825-7.7129-20.23535,0-13.13232,6.9629-20.14062,6.96166-7.00782,18.07373-7.00781A28.77385,28.77385,0,0,1,101.5484,334.43278Zm-19.77,11.416a13.7256,13.7256,0,0,0-3.52051,7.82325H101.025q-.36036-5.26173-3.52051-7.98633a11.58054,11.58054,0,0,0-7.83789-2.72461Q84.57844,342.9611,81.77839,345.84879Z"/><path d="M162.18366,336.3068q4.96362,4.10449,4.96387,13.60938v34.03515h-13.54V353.20915a14.12561,14.12561,0,0,0-1.05811-6.1211q-1.93506-3.89647-7.36474-3.89551-6.6753,0-9.16016,5.70411a19.71447,19.71447,0,0,0-1.28906,7.69726v27.35742H121.52008V333.50212h12.79786v7.37207a22.38761,22.38761,0,0,1,4.80224-5.61036,16.63363,16.63363,0,0,1,10.29688-3.06054Q157.22029,332.20329,162.18366,336.3068Z"/><path d="M189.68268,367.81462q.41968,3.5244,1.81738,5.00781,2.469,2.64258,9.13184,2.64355a13.96717,13.96717,0,0,0,6.21973-1.15918,3.88413,3.88413,0,0,0,.44873-6.86328q-1.85889-1.15722-13.8252-3.9873-8.61548-2.13135-12.13867-5.333-3.52441-3.15234-3.52441-9.08789a15.75067,15.75067,0,0,1,5.50683-12.0332q5.50635-5.03028,15.49707-5.03125,9.479,0,15.45069,3.77929,5.9707,3.7793,6.85449,13.05274H207.90583a7.80939,7.80939,0,0,0-1.44092-4.03321q-2.18628-2.68946-7.43994-2.68945-4.32423,0-6.16065,1.34375a3.87064,3.87064,0,0,0-1.83691,3.1543,3.44783,3.44783,0,0,0,1.95361,3.291q1.9519,1.06788,13.79737,3.66407,7.897,1.85448,11.83886,5.61035a12.74,12.74,0,0,1,3.895,9.50586,15.34488,15.34488,0,0,1-5.59912,12.26464q-5.59937,4.752-17.30664,4.75293-11.94141,0-17.63232-5.03125a16.35141,16.35141,0,0,1-5.6919-12.82128Z"/><path d="M274.39948,377.76774q-6.39916,7.89844-19.42871,7.89941-13.03051,0-19.42871-7.89941a31.358,31.358,0,0,1,0-37.9668q6.39843-8.01416,19.42871-8.01562,13.029,0,19.42871,8.01562a31.358,31.358,0,0,1,0,37.9668ZM263.82721,370.465q3.1062-4.12208,3.10694-11.71485,0-7.59375-3.10694-11.6914a11.74572,11.74572,0,0,0-17.8291,0q-3.12963,4.09716-3.12988,11.6914,0,7.59375,3.12988,11.71485a11.70589,11.70589,0,0,0,17.8291,0Z"/><path d="M318.33454,332.22672q.25414.02344,1.13623.06934v13.54q-1.25244-.14062-2.22608-.18555-.97338-.04687-1.57617-.04687-7.97607,0-10.71142,5.19336-1.53,2.92089-1.53028,8.99609v24.1582h-13.3081v-50.543h12.61279v8.81054a27.921,27.921,0,0,1,5.33252-6.9082,14.51357,14.51357,0,0,1,9.64453-3.10742Q318.07917,332.20329,318.33454,332.22672Z"/><path d="M348.12653,314.97672q1.01954.07032,2.78223.209v10.75781q-1.11255-.13915-3.73291-.209-2.61989-.07032-3.6167,1.15918a4.20482,4.20482,0,0,0-.99707,2.71289v4.2666h8.67138v9.31933h-8.67138v40.75879H329.44V343.19254h-7.41944v-9.31933h7.23389v-3.24609q0-8.11524,2.73584-11.17579,2.874-4.54394,13.86426-4.54394Q347.10627,314.90739,348.12653,314.97672Z"/><path d="M372.33161,383.95133H359.11628V315.60368h13.21533Z"/><path d="M427.37165,377.76774q-6.39918,7.89844-19.42871,7.89941-13.03053,0-19.42872-7.89941a31.358,31.358,0,0,1,0-37.9668q6.39844-8.01416,19.42872-8.01562,13.029,0,19.42871,8.01562a31.358,31.358,0,0,1,0,37.9668ZM416.79938,370.465q3.1062-4.12208,3.10693-11.71485,0-7.59375-3.10693-11.6914a11.74572,11.74572,0,0,0-17.8291,0q-3.12964,4.09716-3.12988,11.6914,0,7.59375,3.12988,11.71485a11.70589,11.70589,0,0,0,17.8291,0Z"/><path d="M467.06452,333.40837h13.40039l7.69726,36.40039,7.88282-36.40039h13.77148l-14.65234,50.543H481.57819L473.6485,347.134,465.627,383.95133H451.90143l-14.18945-50.543h14.18945l7.88184,36.26171Z"/><path d="M590.43171,354.36735q-6,5.0083-17.14063,5.00781H559.06061v24.57617H544.87116V315.60368h29.34668q10.14843,0,16.18262,5.28515,6.03222,5.28663,6.0332,16.36914Q596.43366,349.36051,590.43171,354.36735Zm-10.9004-24.62109q-2.71289-2.272-7.60058-2.27247H559.06061v20.124h12.87012q4.88819,0,7.60058-2.457,2.7129-2.458,2.7129-7.791Q582.24421,332.01774,579.53131,329.74626Z"/><path d="M634.89753,332.22672q.25341.02344,1.13574.06934v13.54q-1.25244-.14062-2.22559-.18555-.97411-.04687-1.57715-.04687-7.97607,0-10.71093,5.19336-1.53076,2.92089-1.53028,8.99609v24.1582H606.68171v-50.543H619.294v8.81054a27.93359,27.93359,0,0,1,5.332-6.9082,14.51539,14.51539,0,0,1,9.64551-3.10742C634.51862,332.20329,634.72663,332.2111,634.89753,332.22672Z"/><path d="M657.36237,327.381H643.962V315.18571h13.40039ZM643.962,333.40837h13.40039v50.543H643.962Z"/><path d="M701.29792,333.40837h14.18945l-18.252,50.543h-13.9336l-18.125-50.543h14.83789l10.52637,37.28125Z"/><path d="M742.99421,353.20915a20.87828,20.87828,0,0,0,5.27832-1.16016q2.84911-1.20409,2.84961-3.75586,0-3.10546-2.18653-4.28906a13.81591,13.81591,0,0,0-6.415-1.18164q-4.74756,0-6.72168,2.31836a9.55309,9.55309,0,0,0-1.87988,4.63672H721.16706a19.34109,19.34109,0,0,1,3.72558-10.89649q5.26319-6.67822,18.06934-6.67773a32.227,32.227,0,0,1,14.80957,3.292q6.47315,3.293,6.47266,12.42676v23.18554q0,2.41115.09277,5.8418a7.34622,7.34622,0,0,0,.78808,3.52441,4.73978,4.73978,0,0,0,1.94825,1.53028v1.94726h-14.375a14.726,14.726,0,0,1-.835-2.875q-.23145-1.34472-.37012-3.06054a27.29678,27.29678,0,0,1-6.34375,5.05468,19.16414,19.16414,0,0,1-9.70117,2.457,16.7408,16.7408,0,0,1-11.40332-3.918q-4.50147-3.917-4.501-11.10547,0-9.31934,7.24023-13.49317,3.97121-2.272,11.67872-3.24609Zm8.08105,6.166a14.59454,14.59454,0,0,1-2.5625,1.27539,21.72776,21.72776,0,0,1-3.54883.9043l-3.00781.55664a19.75837,19.75837,0,0,0-6.07422,1.80859,6.034,6.034,0,0,0-3.12207,5.61036q0,3.38524,1.90723,4.8916a7.23891,7.23891,0,0,0,4.63769,1.50781,13.81573,13.81573,0,0,0,7.98047-2.50391q3.64893-2.50488,3.79-9.13476Z"/><path d="M806.02253,351.53922a11.7053,11.7053,0,0,0-1.90528-5.10058q-2.23242-3.06006-6.92578-3.06055-6.69434,0-9.15723,6.63086a27.5429,27.5429,0,0,0-1.30078,9.34277,25.32092,25.32092,0,0,0,1.30078,8.92676q2.37012,6.30615,8.92481,6.30567,4.64794,0,6.60059-2.50391a12.441,12.441,0,0,0,2.37011-6.49121h13.49414a22.11293,22.11293,0,0,1-4.36328,11.40723q-6.22119,8.67188-18.42676,8.67089-12.208,0-17.96289-7.23339-5.75536-7.23341-5.75586-18.75782,0-13.00488,6.3584-20.23925,6.35889-7.23341,17.5459-7.2334,9.51415,0,15.57227,4.26562,6.05566,4.2671,7.17089,15.07031Z"/><path d="M830.5987,393.64274l1.66894.0918a20.79716,20.79716,0,0,0,3.71-.13867,6.66256,6.66256,0,0,0,2.96778-1.06641,7.14432,7.14432,0,0,0,2.15625-3.292,7.966,7.966,0,0,0,.8584-3.06055l-18.57227-52.76855H838.087l11.03613,37.28125,10.43262-37.28125h14.05078l-17.32812,49.709q-5.023,14.373-7.94727,17.82812-2.92383,3.45411-11.69824,3.45508-1.76367,0-2.83106-.02343-1.06786-.02344-3.20312-.16211Z"/></svg>