<?xml version="1.0" encoding="utf-8"?>
<!-- Generator: Adobe Illustrator 26.4.0, SVG Export Plug-In . SVG Version: 6.00 Build 0)  -->
<svg version="1.1" id="Layer_1" xmlns="http://www.w3.org/2000/svg" xmlns:xlink="http://www.w3.org/1999/xlink" x="0px" y="0px"
	 viewBox="0 0 736.7 52" style="enable-background:new 0 0 736.7 52;" xml:space="preserve">
<style type="text/css">
	.st0{fill:#00B3FE;}
	.st1{fill:#3DCCFF;}
	.st2{fill:#0097FF;}
</style>
<path d="M20.8,0.2c4.4-1.3,9.3,3.4,13,5.3c3,1.9,6.4,3.5,9.2,5.8c2.8,2.6,2.9,6.9,0.6,9.9c-5,7-10,14-15.1,20.9
	c-2.8,3.9-8.7,4.1-11.6,0.3C12,36,7.5,29.3,2.6,22.7c-1.8-2.4-3.2-4.7-2.4-7.9C1.1,11,5,9.5,7.9,7.6C12.2,5.3,16.3,2.1,20.8,0.2z"/>
<path d="M401.1,0.8c3.5-1.7,8.2,0.3,7.5,4.7c-0.4,4.1-5.8,5.1-8.5,2.7C398,6.1,398.4,2.2,401.1,0.8z"/>
<path d="M565.4,1.8c-0.5,2.1-1,4.2-1.5,6.3c-1.5,0-3.1-0.3-4.5-0.1c-2.2,0.8-1.8,3.9-2.2,5.8c1.8,0,3.7,0,5.5,0v6.8
	c-1.8,0-3.5,0-5.3,0v22.7h-8.8V20.7c-1.3,0-2.6,0-3.9,0v-6.5c1.3-0.1,2.5-0.2,3.8-0.3c0.4-3.9,0.3-7.6,3.4-10.5
	C555.6,0,560.8,0.7,565.4,1.8z"/>
<path d="M208.9,3.8c4.6,0,8,2.2,11.5,4.9c-1.5,1.9-3,3.8-4.6,5.7c-2.6-1.7-4.8-3.3-8-3c-4.6,0.1-8.1,3.6-9.2,8
	c-0.9,4.1-0.8,9.2,1.5,12.9c2.5,4.2,8.5,5.3,12.9,3.4c0.3-2.3,0.2-4.7,0.2-7c-2.1,0-4.3,0-6.5,0v-7.2H221c0,6,0,12.1,0,18.1
	c-7.7,6.1-19.3,6.2-26.5-0.7c-5.5-5.3-6.3-14.3-4.5-21.4C192.1,9,200.1,3.3,208.9,3.8z"/>
<path d="M65.6,4.5h30.1c0,2.5,0,5,0,7.4H85.1c0,10.5,0,21,0,31.5h-8.8c0-10.5,0-21,0-31.5c-3.6,0-7.1,0-10.7,0
	C65.6,9.4,65.6,6.9,65.6,4.5z"/>
<path d="M495.7,4.5c2.9,0,5.8,0,8.8,0c0,13,0,25.9,0,38.9h-8.8V4.5z"/>
<path class="st0" d="M22.8,4.9c5.1,2.4,9.8,5.8,14.6,8.7c-9.9,0.1-19.8,0.1-29.7,0C12.7,10.8,17.5,7.1,22.8,4.9z"/>
<path d="M158.3,6c2.4-0.2,4.8-0.1,7.2-0.1v7.9c2.4,0,4.7,0,7.1,0v6.9h-7.1c0.1,4.6-0.3,9.3,0.2,13.9c0.8,3.4,3.8,2.4,6.5,2.4
	c0.4,2.1,0.9,4.1,1.3,6.2c-4.8,1.1-11.4,2.1-14.7-2.6c-3.4-5.3-1.6-13.8-2.1-19.9h-4c0-2.2,0-4.3,0-6.5c1.5-0.1,3-0.3,4.5-0.4
	C157.5,11.2,157.7,8.6,158.3,6z"/>
<path d="M379.3,6c2.4-0.2,4.8-0.1,7.2-0.1c0,2.6,0,5.3,0,7.9h7.1c0,2.3,0,4.6,0,6.9c-2.4,0-4.7,0-7.1,0c0.2,4.8-0.6,10,0.5,14.7
	c1.1,2.6,4,1.6,6.2,1.6c0.4,2.1,0.8,4.1,1.3,6.2c-4.1,0.8-8.2,1.7-12.1-0.2c-3-1.6-4.3-5.2-4.5-8.4c-0.3-4.6-0.1-9.3-0.1-13.9h-4
	c0-2.2,0-4.3,0-6.5c1.5-0.1,3-0.3,4.5-0.4C378.6,11.2,378.8,8.6,379.3,6z"/>
<path d="M118.2,17.1c-4-4.9-11.6-5.2-16.6-1.9c-9.4,5.7-9,22.5,1.1,27.2c6,2.9,12.1,1.5,17.7-1.6c-0.9-1.8-1.9-3.5-2.8-5.3
	c-3.6,1.4-6.9,2.7-10.7,0.9c-2.2-1.1-2.8-3.2-3.9-5.3c6.1-0.2,12.2,0,18.3-0.1C121.5,26,121.5,21.3,118.2,17.1z M103,25.3
	c1.4-3.1,2.8-5.8,6.9-5.4c3.3,0.3,3.5,2.9,4.5,5.5C110.5,25.4,106.7,25.4,103,25.3z"/>
<path d="M124.1,13.9c3.1-0.1,6.2-0.1,9.4-0.1c1.8,3.3,3.5,6.6,5.2,9.9c1.5-3.3,2.8-6.6,4.2-9.9c3,0,6.1,0,9.1,0
	c-2.8,5.1-5.8,10.2-8.6,15.3c3.1,4.7,6.1,9.5,9.1,14.2H143c-2-3.4-3.9-6.8-5.8-10.1c-1.5,3.4-3.1,6.8-4.7,10.1c-3,0-6,0-9.1,0
	c3-5.1,6.1-10.3,9.1-15.4C129.7,23.3,126.8,18.6,124.1,13.9z"/>
<path d="M252.9,31.1c0.3-5,0.3-9.6-2.9-13.8c-3.9-5-11.4-5.5-16.6-2.2c-9.5,5.5-9.4,22.2,0.6,27.2c6,3.2,12.2,1.7,18-1.3
	c-0.9-1.8-1.8-3.6-2.7-5.4c-3.6,1.4-6.8,2.7-10.6,0.9c-2.4-1.1-2.8-3.2-4-5.3C240.8,31.1,246.8,31.2,252.9,31.1z M234.6,25.3
	c1.5-2.9,2.5-5.5,6.2-5.5c3.7,0,4.1,2.7,5.2,5.5C242.2,25.4,238.4,25.4,234.6,25.3z"/>
<path d="M259.2,13.9c2.3-0.2,4.7-0.1,7.1-0.1c0.2,1.3,0.4,2.5,0.6,3.8c2.4-1.8,4.9-3.9,8-4.4c2.8-0.4,6.1,0,8.1,2.2
	c2.5,2.8,2.8,6.4,2.9,10.1c0,5.9,0,11.9,0,17.9H277c0-6,0.1-11.9,0-17.9c-0.2-1.9-0.1-4-2.3-4.8c-2.7-0.8-7.5,1.4-6.8,4.8
	c0,6,0,11.9,0,17.9h-8.8C259.2,33.6,259,23.7,259.2,13.9z"/>
<path d="M317.9,31.1c0.3-5,0.3-9.6-2.9-13.8c-3.9-5-11.4-5.5-16.6-2.2c-9.5,5.5-9.4,22.2,0.5,27.2c6,3.1,12.4,1.8,18-1.5
	c-1-1.7-1.9-3.5-2.8-5.2c-3.5,1.4-6.7,2.6-10.4,0.9c-2.4-1.1-2.9-3.2-4.1-5.4C305.7,31.1,311.8,31.2,317.9,31.1z M299.6,25.3
	c1.5-3.2,3-6,7.2-5.4c3.1,0.4,3.3,3.1,4.3,5.4C307.2,25.4,303.4,25.4,299.6,25.3z"/>
<path d="M324.2,13.9c2.3-0.2,4.7-0.1,7.1,0l0.5,5.1c1.6-1.9,3-4,5.4-5.1c2.2-1.1,4.5-0.6,6.9-0.6c-0.5,2.5-0.9,5.1-1.3,7.6
	c-1.7,0-3.7-0.3-5.3,0.2c-2.4,1-4.6,3.6-4.5,6.3c-0.1,5.3,0,10.6,0,15.9c-2.9,0-5.9,0-8.8,0C324.2,33.6,324,23.7,324.2,13.9z"/>
<path d="M370.1,24.5c-0.2-4.3-1.8-8.5-6.1-10.3c-6.3-2.5-12.6-0.3-18.3,2.7c1,1.9,2.1,3.8,3.1,5.8c3.2-1.4,6.4-3.3,10-2.3
	c1.4,0.6,2.2,2.5,3.1,3.6c-4.8,1.2-11,1.5-14.7,5.1c-4.6,4.3-2.7,13.1,3.5,14.7c4.6,1.3,8-0.8,11.7-3.4c0.2,1,0.5,2,0.7,3
	c2.3,0,4.7-0.1,7-0.1C370.1,37.1,370.3,30.8,370.1,24.5z M361.2,35c-1.9,2.3-6.1,3.6-8,0.7c-0.8-4.8,4.9-5.4,8.2-6.2
	C361.4,31.3,361.5,33.2,361.2,35z"/>
<path d="M408.1,13.8c0,9.9,0,19.7,0,29.6h-8.8c0-9.8,0-19.7,0-29.5C402.3,13.8,405.2,13.8,408.1,13.8z"/>
<path d="M437.3,16.1c-3.9-3.1-9.4-3.8-14-2c-10.3,3.7-12.1,18.5-4.9,25.9c4,4.1,10.4,5.2,15.7,3.1C444.6,39,446,22.7,437.3,16.1z
	 M432.8,34.4c-1.2,2.5-4.4,3.3-6.8,1.9c-2.2-1.4-2.8-4.5-2.9-6.8c-0.1-2.8,0.2-7.1,3-8.8c2.7-1.4,5.8-0.3,7,2.5
	C434.4,26.6,434.4,31.2,432.8,34.4z"/>
<path d="M449,13.9c2.4-0.2,4.8-0.1,7.1,0c0.2,1.2,0.3,2.5,0.5,3.8c2.5-1.8,5-4,8.1-4.4c2.8-0.3,6,0.1,8,2.3c2.4,2.9,2.8,6.4,2.8,10
	c0,5.9,0,11.9,0,17.9c-2.9,0-5.9,0-8.8,0c-0.2-6.8,0.4-13.7-0.3-20.4c-1.5-4.5-6.4-1.8-8.8,0.3c0.1,6.7,0,13.4,0,20.2h-8.8
	C449,33.6,448.8,23.7,449,13.9z"/>
<path d="M513.1,13.9c2.4-0.2,4.7-0.1,7.1,0c0.2,1.2,0.3,2.5,0.5,3.8c2.5-1.8,4.9-4,8.2-4.4c2.8-0.3,6,0.1,8,2.4
	c2.4,2.9,2.7,6.4,2.8,10c0,5.9,0,11.9,0,17.9h-8.8c-0.1-6.3,0.2-12.6-0.1-18.9c-0.1-1.9-0.7-3.7-2.9-3.9c-2.6-0.4-4.2,1.4-6.2,2.6
	c0.1,6.7,0,13.4,0,20.2H513C513,33.6,512.8,23.7,513.1,13.9z"/>
<path d="M591.4,31.1c0.3-5.1,0.3-9.9-3.1-14.1c-4-4.8-11.6-5.1-16.6-1.7c-9.3,5.7-8.9,22.4,1.2,27.2c6,2.9,12.1,1.5,17.7-1.6
	c-1-1.8-1.9-3.5-2.9-5.3c-3.6,1.5-7,2.8-10.8,0.8c-2.2-1.1-2.7-3.2-3.7-5.2C579.3,31.1,585.4,31.2,591.4,31.1z M573.1,25.2
	c1.5-3,2.8-5.7,6.7-5.4c3.4,0.2,3.7,2.9,4.7,5.5C580.7,25.4,576.9,25.4,573.1,25.2z"/>
<path d="M597.7,13.8h7.2c0.2,1.7,0.4,3.4,0.5,5.1c1.7-2,3.2-4.2,5.7-5.2c2-0.9,4.4-0.5,6.5-0.5c-0.4,2.6-0.9,5.1-1.4,7.7
	c-1.6,0-3.3-0.2-4.9,0.1c-2.6,0.8-4.9,3.5-4.9,6.4c-0.1,5.3,0,10.6,0,15.9h-8.8C597.7,33.5,597.6,23.7,597.7,13.8z"/>
<path d="M645.5,31.1c0.3-5.2,0.3-9.9-3.2-14.1c-4-4.8-11.6-5-16.6-1.7c-9.3,5.8-8.9,22.4,1.2,27.2c6,2.9,12.1,1.5,17.7-1.6
	c-1-1.8-1.9-3.5-2.9-5.3c-3.4,1.4-6.5,2.6-10.1,1.1c-2.6-1-3.2-3.2-4.4-5.5C633.3,31.1,639.4,31.2,645.5,31.1z M627.1,25.2
	c1.5-3,2.8-5.7,6.7-5.4c3.4,0.2,3.7,2.8,4.7,5.5C634.7,25.4,630.9,25.4,627.1,25.2z"/>
<path d="M651.7,13.8c2.4,0,4.8,0,7.2,0c0.2,1.2,0.4,2.5,0.5,3.8c2.3-1.6,4.6-3.7,7.4-4.3c3-0.6,6.8-0.2,8.9,2.4
	c2.3,2.8,2.6,6.3,2.7,9.8c0,6,0,11.9,0,17.9c-2.9,0-5.8,0-8.8,0c0-6,0.1-11.9,0-17.9c-0.1-2-0.3-4.5-2.8-4.8
	c-2.7-0.5-4.3,1.2-6.3,2.6c0.1,6.7,0,13.5,0,20.2h-8.8C651.7,33.5,651.7,23.7,651.7,13.8z"/>
<path d="M708.2,16.1c-1.3,1.8-2.7,3.7-4,5.5c-3-1.2-5.5-2.3-8.4-0.1c-3.9,3-3.7,11.8,0.5,14.5c3.2,2.1,5.8,0.5,8.9-0.9
	c1.1,1.9,2.3,3.8,3.4,5.7c-5.5,4-13,4.6-18.7,0.7c-6.2-4.4-7.4-14.4-3.9-20.8C690.4,12.8,701,10.7,708.2,16.1z"/>
<path d="M736.6,31.1c0.3-4.9,0.4-9.5-2.8-13.6c-3.8-5.1-11.3-5.6-16.5-2.5c-9.7,5.4-9.6,22.6,0.6,27.4c6,3,12.2,1.6,17.8-1.5
	c-1-1.8-1.9-3.5-2.9-5.3c-3.4,1.4-6.5,2.6-10.2,1.1c-2.5-1-3.1-3.3-4.3-5.5C724.4,31.1,730.5,31.2,736.6,31.1z M718.3,25.3
	c1.4-3,2.7-5.7,6.5-5.5c3.5,0.2,3.8,2.8,4.8,5.5C725.9,25.4,722.1,25.4,718.3,25.3z"/>
<path class="st1" d="M5.9,18.7c4.8,0,9.5,0,14.3,0c0,6.6,0,13.2,0,19.8C15.3,31.9,10.6,25.3,5.9,18.7z"/>
<path class="st2" d="M25.2,18.8c4.7-0.3,9.4-0.1,14.1-0.1c-4.7,6.6-9.4,13.2-14.2,19.7C25.2,31.9,24.9,25.3,25.2,18.8z"/>
</svg>
