<svg id="Layer_1" data-name="Layer 1" xmlns="http://www.w3.org/2000/svg" viewBox="0 0 349.17999 345.65751"><defs><style>.cls-1{fill:#a5aaaa;fill-opacity:0.392;fill-rule:evenodd;}.cls-2{fill:#f6bd3a;}.cls-3{fill:#eb8c23;}.cls-4{fill:#e35a2b;}.cls-5{fill:#ef6639;}.cls-6{fill:#a6a7a9;}</style></defs><path class="cls-1" d="M238.34856,9.089l76.938,43.523.843,30.326-51.105-24.99-.562,21.62,27.518,12.917,1.123,32.292-26.675-10.109,1.965,51.386-29.764-16.005Z"/><path class="cls-1" d="M36.47672,63.69117,135.68,7.08055l2.15725,28.84359L106.83643,53.98668l1.61743,111.60281-26.68842,14.018L77.1831,72.04714,39.17276,93.88331,36.74664,64.76877Z"/><path class="cls-2" d="M166.14156,137.26l21.036-12.167,20.736,12.167-20.736,11.974-21.036-11.688Z"/><path class="cls-2" d="M103.01356,101.194l84.164-47.803,62.625,35.6-20.818,36.1-41.807-23.897-63.113,35.825Z"/><path class="cls-3" d="M166.14156,185.065v-23.83l20.749-12,21.023-11.975v23.974l-20.736,11.91v23.845l-21.036,12.217Zm0-47.804-21.028-11.914-21.049,11.67V113.14l63.113-35.852v47.803Zm62.556-24.12V101.194l21.105-12.203.211,23.899-21.029,12.202Z"/><path class="cls-4" d="M145.11356,196.549V125.347l20.741-11.667.287,23.58,21.036,11.759v24.126l-21.036-11.197v47.259Zm-31.726-65.746-10.374-6.211V101.195l21.051,11.947V137.02Zm73.79-29.61V77.29l41.52,23.905.287,23.898Z"/><path class="cls-5" d="M29.62056,234.373v45.572h-8.018V234.373H6.01356v-7.87h39.197v7.87Z"/><path class="cls-5" d="M71.75056,250.96a21.01137,21.01137,0,0,1,.649,6.017l-25.888,7.72a4.09133,4.09133,0,0,0,.762,2.487,10.41321,10.41321,0,0,0,2.297,3.449,10.63532,10.63532,0,0,0,3.061,1.995,9.62984,9.62984,0,0,0,3.502.646,11.31508,11.31508,0,0,0,4.609-.87,16.90477,16.90477,0,0,0,4.088-2.31l4.684,4.959a19.35593,19.35593,0,0,1-5.983,3.913,18.98508,18.98508,0,0,1-7.869,1.368,15.63268,15.63268,0,0,1-6.669-1.368,16.32791,16.32791,0,0,1-5.524-3.995,19.5496,19.5496,0,0,1-3.742-6.575,25.70579,25.70579,0,0,1-1.393-8.866,28.1355,28.1355,0,0,1,1.294-9.081,19.83679,19.83679,0,0,1,3.584-6.513,15.13166,15.13166,0,0,1,5.54-3.983,17.88246,17.88246,0,0,1,7.167-1.402,16.44162,16.44162,0,0,1,7.433,1.613,14.67628,14.67628,0,0,1,5.259,4.369,17.854,17.854,0,0,1,3.139,6.428Zm-7.517,1.76a8.796,8.796,0,0,0-1.848-4.048,6.35807,6.35807,0,0,0-2.83-2.191,10.76438,10.76438,0,0,0-4.19-.588c-2.629.103-5.541.98-7.017,3.033-1.476,2.054-1.895,5.427-1.838,9.09Zm36.608,26.835V256.837c0-4.12-.741-6.943-2.197-8.57a7.699,7.699,0,0,0-6.077-2.442,7.48931,7.48931,0,0,0-6.08,2.632c-1.456,1.842-2.136,4.32-2.136,7.573v23.525h-7.875V239.4h7.875v3.84a9.76823,9.76823,0,0,1,4.242-3.436,14.067,14.067,0,0,1,5.821-1.254q7.053,0,10.658,4.54c2.415,2.983,3.638,7.467,3.638,13.448v23.015Zm40.196-10.565a11.79011,11.79011,0,0,1-1.239,5.632,11.25284,11.25284,0,0,1-3.341,3.639,15.76281,15.76281,0,0,1-4.784,1.993,29.61179,29.61179,0,0,1-5.672.594,24.52664,24.52664,0,0,1-8.219-1.51,27.4218,27.4218,0,0,1-7.181-3.65l3.609-5.906a22.25938,22.25938,0,0,0,5.863,2.947,18.847,18.847,0,0,0,5.821.99c4.891,0,7.348-1.477,7.348-4.433a4.18688,4.18688,0,0,0-2.458-3.692,58.462,58.462,0,0,0-6.884-3.031,38.64713,38.64713,0,0,1-5.423-2.492,14.33008,14.33008,0,0,1-3.685-2.75,8.69155,8.69155,0,0,1-2.048-3.232,13.59285,13.59285,0,0,1-.593-4.124,10.44228,10.44228,0,0,1,.997-4.73,8.65712,8.65712,0,0,1,2.843-3.435,11.94666,11.94666,0,0,1,4.326-2.102,21.78,21.78,0,0,1,5.538-.682,22.81983,22.81983,0,0,1,7.37,1.233,23.51081,23.51081,0,0,1,6.226,3.198l-3.436,6.006a21.32591,21.32591,0,0,0-4.985-2.581,18.22355,18.22355,0,0,0-5.431-.796,6.57346,6.57346,0,0,0-4.176,1.035,3.16844,3.16844,0,0,0-1.304,2.65,2.64255,2.64255,0,0,0,.307,1.334,2.9085,2.9085,0,0,0,1.145,1.348,11.15592,11.15592,0,0,0,2.236,1.455q1.81485.89676,3.698,1.644c2.267.818,4.225,1.717,5.906,2.429a21.21649,21.21649,0,0,1,4.248,2.69,9.53488,9.53488,0,0,1,2.533,3.536,11.8583,11.8583,0,0,1,.845,4.793Zm36.612-9.272a25.92171,25.92171,0,0,1-1.401,8.92,19.44233,19.44233,0,0,1-3.792,6.684,16.98157,16.98157,0,0,1-5.746,4.068,18.28535,18.28535,0,0,1-7.197,1.457,16.6072,16.6072,0,0,1-7.02-1.557,15.37426,15.37426,0,0,1-5.579-4.237,18.73633,18.73633,0,0,1-3.679-6.576,24.627,24.627,0,0,1-1.347-8.54,26.12513,26.12513,0,0,1,1.364-8.788,19.77738,19.77738,0,0,1,3.77-6.562,16.11433,16.11433,0,0,1,5.673-4.137,17.52659,17.52659,0,0,1,7.073-1.436,17.243,17.243,0,0,1,7.109,1.48,17.828,17.828,0,0,1,5.692,4.187,19.38923,19.38923,0,0,1,3.732,6.52,25.54275,25.54275,0,0,1,1.348,8.517Zm-7.977.219c0-4.1-.871-7.368-2.681-9.84a9.08957,9.08957,0,0,0-7.519-3.595,8.30143,8.30143,0,0,0-7.074,3.596c-1.733,2.47-2.583,5.633-2.583,9.62,0,4.479.939,7.779,2.784,10.106a8.79562,8.79562,0,0,0,7.22,3.556,7.89777,7.89777,0,0,0,4.087-1.103,11.65088,11.65088,0,0,0,3.132-2.832,15.97567,15.97567,0,0,0,1.969-4.26A18.654,18.654,0,0,0,169.67255,259.937Zm33.369-11.778a28.2174,28.2174,0,0,0-2.695-1.021,11.86493,11.86493,0,0,0-3.375-.39,6.90748,6.90748,0,0,0-5.813,2.623c-1.356,1.704-2.056,4.32-2.056,7.653v22.923h-7.87V239.844h7.87v3.84a11.112,11.112,0,0,1,9.161-4.669,16.59647,16.59647,0,0,1,4.043.438,8.26393,8.26393,0,0,1,2.73,1.239Z"/><path class="cls-6" d="M216.18456,234.373v13.999h15.409v7.869h-15.409v23.704h-7.949V226.503h34.468v7.87Zm27.818,45.573V228.39l7.87-4.137v55.69h-7.87Zm47.994-20.23a25.80453,25.80453,0,0,1-1.341,8.92,20.791,20.791,0,0,1-3.832,6.685,16.80744,16.80744,0,0,1-5.675,4.068,18.6579,18.6579,0,0,1-7.219,1.457,16.20218,16.20218,0,0,1-7.021-1.557,14.90431,14.90431,0,0,1-5.579-4.237,19.87141,19.87141,0,0,1-3.747-6.576,26.31326,26.31326,0,0,1-1.346-8.54,26.87465,26.87465,0,0,1,1.4-8.788,18.53117,18.53117,0,0,1,3.824-6.562,16.20885,16.20885,0,0,1,5.581-4.137,18.14811,18.14811,0,0,1,7.142-1.436,16.84544,16.84544,0,0,1,7.059,1.48,17.1997,17.1997,0,0,1,5.74,4.187,18.72647,18.72647,0,0,1,3.673,6.52,23.8143,23.8143,0,0,1,1.341,8.517Zm-7.903.22a16.71873,16.71873,0,0,0-2.688-9.84,9.17356,9.17356,0,0,0-7.517-3.595,8.48562,8.48562,0,0,0-7.142,3.596,16.64718,16.64718,0,0,0-2.535,9.62c0,4.479.891,7.779,2.804,10.106a8.76068,8.76068,0,0,0,7.234,3.556,7.51167,7.51167,0,0,0,4.005-1.103,12.16962,12.16962,0,0,0,3.205-2.832,16.74681,16.74681,0,0,0,1.978-4.26A22.28351,22.28351,0,0,0,284.09357,259.936Zm46.763,20.01h-6.731l-5.423-20.23c-.452-1.526-.803-3.063-1.14-4.708-.396-1.623-.674-2.9-.961-3.86q-.38814,1.9462-.835,3.88c-.389,1.627-.812,3.252-1.148,4.798l-5.373,20.12h-6.776l-10.957-40.103h7.763l4.795,19.47q.56013,2.43681,1.078,4.883c.368,1.646.629,2.959.917,3.938l.996-3.938q.51526-2.45934,1.187-4.882l5.378-19.471h6.264l5.497,19.578c.389,1.566.73,3.142,1.132,4.774q.60451,2.469.943,3.938c.282-.98.602-2.308.938-3.97.319-1.603.656-3.25,1.057-4.85l4.797-19.471h7.759Z"/><path d="M68.65638,298.46H91.55872v5.64356H75.32435v7.38769H89.55384v5.57813H75.32435v13.46679h-6.668Z"/><path d="M111.33948,307.26465a9.67037,9.67037,0,0,1,4.1045,3.51465,11.67962,11.67962,0,0,1,1.89258,4.91015,30.41885,30.41885,0,0,1,.20459,4.71387H100.24183q.14429,3.57421,2.48389,5.01172a6.30727,6.30727,0,0,0,3.42382.89355,4.82382,4.82382,0,0,0,4.72657-2.72363h6.34082a7.75963,7.75963,0,0,1-2.30225,4.293q-3.1919,3.46436-8.936,3.46484a12.94879,12.94879,0,0,1-8.3667-2.92285q-3.624-2.92236-3.624-9.50879,0-6.17284,3.272-9.46582a11.45042,11.45042,0,0,1,8.49365-3.293A13.535,13.535,0,0,1,111.33948,307.26465Zm-9.291,5.36523a6.45722,6.45722,0,0,0-1.6543,3.67676h10.69922a5.17982,5.17982,0,0,0-1.6543-3.75293,5.4432,5.4432,0,0,0-3.6831-1.28125A4.92752,4.92752,0,0,0,102.04847,312.62988Z"/><path d="M133.72279,307.165a7.54675,7.54675,0,0,1,2.72412,2.626V298.46h6.29736v32.07617h-6.03613v-3.29a8.76138,8.76138,0,0,1-3.02881,3.07227,8.51033,8.51033,0,0,1-4.22754.959,8.82533,8.82533,0,0,1-7.00586-3.36718,12.9279,12.9279,0,0,1-2.84326-8.63965q0-6.08057,2.7998-9.56641a9.11018,9.11018,0,0,1,7.48535-3.48633A7.66131,7.66131,0,0,1,133.72279,307.165Zm1.52539,16.9209a8.66271,8.66271,0,0,0,1.373-5.07715q0-4.3579-2.20117-6.23242a4.7395,4.7395,0,0,0-3.13769-1.13282,4.36259,4.36259,0,0,0-3.99854,2.0586,11.10365,11.10365,0,0,0,.02149,10.373,4.38706,4.38706,0,0,0,3.93359,1.97168A4.58459,4.58459,0,0,0,135.24818,324.08594Z"/><path d="M164.31263,307.26465a9.67035,9.67035,0,0,1,4.10449,3.51465,11.67936,11.67936,0,0,1,1.89258,4.91015,30.41885,30.41885,0,0,1,.20459,4.71387H153.215q.14429,3.57421,2.48389,5.01172a6.30728,6.30728,0,0,0,3.42383.89355,4.82379,4.82379,0,0,0,4.72656-2.72363h6.34082a7.75963,7.75963,0,0,1-2.30225,4.293q-3.19188,3.46436-8.936,3.46484a12.94881,12.94881,0,0,1-8.3667-2.92285q-3.624-2.92236-3.624-9.50879,0-6.17284,3.272-9.46582a11.45043,11.45043,0,0,1,8.49365-3.293A13.535,13.535,0,0,1,164.31263,307.26465Zm-9.291,5.36523a6.45715,6.45715,0,0,0-1.65429,3.67676h10.69922a5.17989,5.17989,0,0,0-1.6543-3.75293,5.44323,5.44323,0,0,0-3.68311-1.28125A4.92755,4.92755,0,0,0,155.02161,312.62988Z"/><path d="M187.29554,306.22852c.0791.00683.25781.01855.53418.03222V312.624c-.39258-.04394-.74121-.07226-1.04688-.08691q-.457-.022-.74023-.02246-3.74853,0-5.03418,2.4414a9.49113,9.49113,0,0,0-.71875,4.22657v11.35351h-6.25391v-23.752h5.92676v4.13965a13.13472,13.13472,0,0,1,2.50586-3.2461,6.82058,6.82058,0,0,1,4.5332-1.46C187.11683,306.21777,187.21546,306.22168,187.29554,306.22852Z"/><path d="M201.32191,316.08887a9.84441,9.84441,0,0,0,2.48047-.54492,1.8685,1.8685,0,0,0,1.33886-1.76465,2.08486,2.08486,0,0,0-1.02734-2.01563,6.48133,6.48133,0,0,0-3.01465-.55566,3.95952,3.95952,0,0,0-3.1582,1.08887,4.48347,4.48347,0,0,0-.88379,2.17968h-5.99219a9.0859,9.0859,0,0,1,1.75-5.12109q2.47266-3.1377,8.49219-3.1377a15.14236,15.14236,0,0,1,6.959,1.54688q3.04248,1.54688,3.042,5.83984V324.5q0,1.13379.04395,2.74609a3.44333,3.44333,0,0,0,.37012,1.65528,2.22168,2.22168,0,0,0,.915.71972v.915h-6.75489a6.92607,6.92607,0,0,1-.39257-1.35058q-.10841-.63282-.17383-1.43848a12.82132,12.82132,0,0,1-2.98145,2.375,9.01063,9.01063,0,0,1-4.55859,1.15527,7.86732,7.86732,0,0,1-5.35938-1.84179,6.54708,6.54708,0,0,1-2.11425-5.21875,6.76072,6.76072,0,0,1,3.40234-6.34082,15.18326,15.18326,0,0,1,5.48828-1.52539Zm3.79785,2.89843a6.90754,6.90754,0,0,1-1.2041.59864,10.2198,10.2198,0,0,1-1.668.4248l-1.41406.26172a9.30028,9.30028,0,0,0-2.8545.84961,2.83879,2.83879,0,0,0-1.46679,2.63672,2.7536,2.7536,0,0,0,.89648,2.29883,3.40041,3.40041,0,0,0,2.17871.709,6.49448,6.49448,0,0,0,3.751-1.17676q1.71532-1.17773,1.78125-4.293Z"/><path d="M214.74085,311.42578V307.002h3.31153v-6.624h6.1455v6.624h3.85645v4.42383h-3.85645v12.55176a2.82844,2.82844,0,0,0,.37012,1.81934,4.08619,4.08619,0,0,0,2.2666.35937c.18848,0,.38867-.00391.59863-.01074q.31641-.01172.6211-.03321v4.64161l-2.94141.10937q-4.40186.15234-6.01465-1.52539a4.54241,4.54241,0,0,1-1.04589-3.291v-14.6211Z"/><path d="M247.96644,307.26465a9.67035,9.67035,0,0,1,4.10449,3.51465,11.67936,11.67936,0,0,1,1.89258,4.91015,30.30719,30.30719,0,0,1,.2041,4.71387H236.86878q.145,3.57421,2.4834,5.01172a6.31072,6.31072,0,0,0,3.4248.89355,4.82539,4.82539,0,0,0,4.72657-2.72363h6.33984a7.75854,7.75854,0,0,1-2.30176,4.293q-3.19189,3.46436-8.93652,3.46484a12.94844,12.94844,0,0,1-8.36621-2.92285q-3.624-2.92236-3.624-9.50879,0-6.17284,3.27148-9.46582a11.45233,11.45233,0,0,1,8.49414-3.293A13.535,13.535,0,0,1,247.96644,307.26465Zm-9.291,5.36523a6.454,6.454,0,0,0-1.65429,3.67676h10.69921a5.18172,5.18172,0,0,0-1.65429-3.75293,5.44366,5.44366,0,0,0-3.6836-1.28125A4.92785,4.92785,0,0,0,238.67542,312.62988Z"/><path d="M270.34925,307.165a7.54147,7.54147,0,0,1,2.72363,2.626V298.46h6.29785v32.07617H273.3346v-3.29a8.76035,8.76035,0,0,1-3.02832,3.07227,8.5129,8.5129,0,0,1-4.22754.959,8.824,8.824,0,0,1-7.00586-3.36718,12.92312,12.92312,0,0,1-2.84375-8.63965q0-6.08057,2.79981-9.56641a9.10889,9.10889,0,0,1,7.48535-3.48633A7.65865,7.65865,0,0,1,270.34925,307.165Zm1.52539,16.9209a8.66621,8.66621,0,0,0,1.373-5.07715q0-4.3579-2.20117-6.23242a4.73767,4.73767,0,0,0-3.1377-1.13282,4.36389,4.36389,0,0,0-3.999,2.0586,11.10366,11.10366,0,0,0,.02246,10.373,4.3854,4.3854,0,0,0,3.93262,1.97168A4.58486,4.58486,0,0,0,271.87464,324.08594Z"/></svg>