<svg id="Layer_1" data-name="Layer 1" xmlns="http://www.w3.org/2000/svg" viewBox="0 0 887.64001 413"><defs><style>.cls-1{fill:#4095d1;}.cls-2{fill:#ef4637;}.cls-3{fill:#ffc20e;}.cls-4{fill:#30b455;}.cls-5{fill:none;}</style></defs><title>TensorFlow Privacy</title><path class="cls-1" d="M16.80372,125.449c0-59.528,50.045-107.993,109.574-107.993,32.925,0,56.367,12.907,74.014,29.764l-20.808,20.808c-12.643-11.852-29.764-21.07-53.206-21.07-43.46,0-77.439,35.031-77.439,78.49,0,43.462,33.978,78.494,77.439,78.494,28.183,0,44.25-11.327,54.523-21.6,8.43-8.428,13.96-20.544,16.067-37.138h-70.59v-29.5h99.3a96.10989,96.10989,0,0,1,1.581,18.438c0,22.125-6.059,49.518-25.55,69.01-18.964,19.754-43.198,30.29-75.331,30.29-59.529,0-109.574-48.465-109.574-107.993Z"/><path class="cls-2" d="M307.50973,94.368c-38.457,0-69.8,29.237-69.8,69.537,0,40.037,31.343,69.536,69.8,69.536,38.455,0,69.799-29.5,69.799-69.536C377.30874,123.605,345.96475,94.368,307.50973,94.368Zm0,111.68c-21.073,0-39.247-17.383-39.247-42.143,0-25.023,18.174-42.144,39.247-42.144,21.071,0,39.245,17.121,39.245,42.144C346.75473,188.665,328.58072,206.048,307.50973,206.048Z"/><path class="cls-3" d="M459.77771,94.368c-38.457,0-69.8,29.237-69.8,69.537,0,40.037,31.343,69.536,69.8,69.536,38.455,0,69.801-29.5,69.801-69.536,0-40.3-31.346-69.537-69.8-69.537Zm0,111.68c-21.071,0-39.247-17.383-39.247-42.143,0-25.023,18.176-42.144,39.247-42.144s39.245,17.121,39.245,42.144C499.0227,188.665,480.84869,206.048,459.77771,206.048Z"/><path class="cls-1" d="M646.67871,98.582V109.91h-1.053c-6.849-8.166-20.019-15.54-36.613-15.54-34.768,0-66.64,30.553-66.64,69.8,0,38.983,31.872,69.272,66.64,69.272,16.594,0,29.764-7.374,36.613-15.803h1.053v10.01c0,26.603-14.223,40.825-37.14,40.825-18.7,0-30.29-13.433-35.03-24.758l-26.604,11.062c7.638,18.438,27.92,41.09,61.635,41.09,35.822,0,66.113-21.072,66.113-72.434V98.583Zm-35.031,107.466c-21.072,0-38.72-17.647-38.72-41.88,0-24.495,17.648-42.407,38.72-42.407,20.808,0,37.138,17.912,37.138,42.407C648.7857,188.401,632.45569,206.048,611.6477,206.048Z"/><path class="cls-4" d="M696.72369,24.832h30.554V229.228h-30.554Z"/><path class="cls-2" d="M811.03869,206.048c-15.541,0-26.604-7.111-33.715-21.07l92.98-38.457-3.16-7.902c-5.796-15.54-23.443-44.25-59.53-44.25-35.822,0-65.584,28.183-65.584,69.536,0,38.983,29.499,69.536,69.009,69.536,31.87,0,50.309-19.49,57.947-30.817l-23.706-15.803c-7.901,11.59-18.7,19.227-34.241,19.227Zm-2.371-84.813c12.117,0,22.389,6.059,25.813,14.75l-62.16,25.813C771.52875,134.931,793.12774,121.235,808.66772,121.235Z"/><path class="cls-5" d="M15.31672,17.285h856V297.131h-856Z"/><path d="M120.907,335.45508v10.05273H103.92169v46.71973H91.98126V345.50781H74.91876V335.45508Z"/><path d="M148.49542,351.0957a17.07774,17.07774,0,0,1,7.25488,6.21,20.64041,20.64041,0,0,1,3.34473,8.67969,53.58992,53.58992,0,0,1,.36182,8.332H128.8797q.25561,6.31788,4.39062,8.8584a11.14283,11.14283,0,0,0,6.05225,1.58008,8.52794,8.52794,0,0,0,8.35449-4.81543h11.207q-.44311,3.73682-4.06982,7.58789-5.64111,6.12451-15.79444,6.124a22.88486,22.88486,0,0,1-14.78759-5.165q-6.40723-5.165-6.40674-16.80859,0-10.90722,5.78369-16.72949,5.78247-5.82129,15.01269-5.82129A23.90031,23.90031,0,0,1,148.49542,351.0957Zm-16.42187,9.48242a11.40478,11.40478,0,0,0-2.92432,6.498h18.91162a9.15669,9.15669,0,0,0-2.92432-6.63379,9.61841,9.61841,0,0,0-6.51025-2.26269A8.70761,8.70761,0,0,0,132.07355,360.57812Z"/><path d="M198.86212,352.65234q4.12279,3.40869,4.12305,11.30469v28.27051H191.73858V366.69141a11.72376,11.72376,0,0,0-.87939-5.084q-1.60694-3.23583-6.11768-3.23535-5.54444,0-7.60839,4.73731a16.37746,16.37746,0,0,0-1.07081,6.39355v22.72461h-10.977V350.32227h10.63037v6.124a18.60137,18.60137,0,0,1,3.98877-4.66113,13.82257,13.82257,0,0,1,8.55323-2.542A16.09308,16.09308,0,0,1,198.86212,352.65234Z"/><path d="M221.70392,378.82422a7.30944,7.30944,0,0,0,1.50927,4.15918q2.05078,2.19581,7.58545,2.19531a11.601,11.601,0,0,0,5.16651-.96289,3.22569,3.22569,0,0,0,.37256-5.7002q-1.54395-.9624-11.48389-3.3125-7.15577-1.771-10.083-4.42871-2.92749-2.61913-2.92725-7.5498a13.08277,13.08277,0,0,1,4.57422-9.99512q4.574-4.17772,12.87256-4.17871,7.87355,0,12.834,3.13867,4.95923,3.14063,5.69336,10.84278H236.84063a6.48428,6.48428,0,0,0-1.19677-3.35059q-1.81641-2.23389-6.18018-2.23437-3.59179,0-5.11719,1.11718a3.21271,3.21271,0,0,0-1.52539,2.61914,2.86391,2.86391,0,0,0,1.62207,2.73438q1.62159.88623,11.46094,3.043,6.55957,1.541,9.834,4.66015a10.58325,10.58325,0,0,1,3.23535,7.89649,12.74773,12.74773,0,0,1-4.65088,10.1875q-4.65089,3.94774-14.37549,3.94726-9.91918,0-14.64648-4.17871a13.58228,13.58228,0,0,1-4.728-10.64941Z"/><path d="M292.07306,387.0918q-5.31519,6.561-16.13819,6.56054-10.82373,0-16.13818-6.56054a26.04685,26.04685,0,0,1,0-31.53711q5.31519-6.65772,16.13818-6.65821,10.823,0,16.13819,6.65821a26.04685,26.04685,0,0,1,0,31.53711Zm-8.78174-6.06739q2.58031-3.42333,2.58056-9.73046,0-6.30762-2.58056-9.71094a9.75714,9.75714,0,0,0-14.80957,0q-2.59936,3.40283-2.59961,9.71094,0,6.3076,2.59961,9.73046a9.72093,9.72093,0,0,0,14.80957,0Z"/><path d="M328.5672,349.2627c.14062.01367.45556.03222.94336.05761v11.24707q-1.04-.11573-1.84864-.15429-.80859-.03809-1.30957-.03809-6.62475,0-8.897,4.31348-1.27149,2.42577-1.27148,7.47168v20.06738H305.13019V350.24512h10.47607v7.31738a23.21438,23.21438,0,0,1,4.42969-5.73828,12.05981,12.05981,0,0,1,8.01123-2.58106C328.25226,349.24316,328.4256,349.25,328.5672,349.2627Z"/><path d="M336.82892,335.53125h40.481v9.97656H348.61505v13.05664h25.15137v9.86035H348.61505v23.80274H336.82892Z"/><path d="M395.33526,392.22754H384.35772V335.45508h10.97754Z"/><path d="M441.054,387.0918q-5.31518,6.561-16.13818,6.56054-10.82373,0-16.13818-6.56054a26.04685,26.04685,0,0,1,0-31.53711q5.31518-6.65772,16.13818-6.65821,10.823,0,16.13818,6.65821a26.04872,26.04872,0,0,1,0,31.53711Zm-8.78173-6.06739q2.58031-3.42333,2.58056-9.73046,0-6.30762-2.58056-9.71094a9.75714,9.75714,0,0,0-14.80957,0q-2.59937,3.40283-2.59961,9.71094,0,6.3076,2.59961,9.73046a9.72093,9.72093,0,0,0,14.80957,0Z"/><path d="M474.02325,350.24512h11.13086l6.39453,30.23535,6.54688-30.23535H509.535l-12.1709,41.98242H486.07892l-6.58594-30.582-6.66406,30.582H461.42853l-11.78614-41.98242h11.78614l6.54785,30.11914Z"/><path d="M576.49884,367.6543q-4.98486,4.16015-14.23828,4.15918H550.44024v20.41406H538.65411V335.45508h24.376q8.43018,0,13.44238,4.39062,5.01123,4.39014,5.01172,13.59571Q581.48419,363.49462,576.49884,367.6543Zm-9.05469-20.45215a9.55552,9.55552,0,0,0-6.31348-1.8877H550.44024v16.7168h10.69043a9.06577,9.06577,0,0,0,6.31348-2.042q2.25293-2.04052,2.25391-6.47071Q569.69806,349.09034,567.44415,347.20215Z"/><path d="M613.43341,349.2627c.14062.01367.45508.03222.94336.05761v11.24707q-1.04-.11573-1.84864-.15429c-.53906-.02539-.97656-.03809-1.30957-.03809q-6.62549,0-8.89746,4.31348-1.27,2.42577-1.2705,7.47168v20.06738H589.99591V350.24512h10.47656v7.31738a23.2262,23.2262,0,0,1,4.42969-5.73828,12.05845,12.05845,0,0,1,8.01074-2.58106C613.119,349.24316,613.29181,349.25,613.43341,349.2627Z"/><path d="M632.09454,345.2373H620.96271V335.1084h11.13183Zm-11.13183,5.00782h11.13183v41.98242H620.96271Z"/><path d="M668.58868,350.24512h11.78613l-15.16015,41.98242H653.64044l-15.05566-41.98242H650.91l8.74316,30.96679Z"/><path d="M703.22345,366.69141a17.39207,17.39207,0,0,0,4.38379-.96289,3.3029,3.3029,0,0,0,2.36718-3.12012,3.6888,3.6888,0,0,0-1.81543-3.5625,11.47055,11.47055,0,0,0-5.3291-.98242q-3.94335,0-5.583,1.92578a7.93911,7.93911,0,0,0-1.56152,3.85156H685.09259a16.06517,16.06517,0,0,1,3.09472-9.05078q4.3711-5.54736,15.00977-5.54688a26.76189,26.76189,0,0,1,12.30078,2.73536q5.37744,2.73486,5.377,10.32226v19.25781q0,2.00244.07715,4.85254a6.107,6.107,0,0,0,.6543,2.92774,3.92306,3.92306,0,0,0,1.61816,1.27051v1.61816H711.284a12.17775,12.17775,0,0,1-.69336-2.3877q-.19335-1.11766-.30761-2.542a22.70234,22.70234,0,0,1-5.26953,4.19824,15.92605,15.92605,0,0,1-8.05762,2.041,13.90345,13.90345,0,0,1-9.47266-3.25488q-3.73827-3.25343-3.73828-9.22461,0-7.74171,6.01367-11.208,3.29883-1.88671,9.70118-2.69629Zm6.71191,5.12207a12.09705,12.09705,0,0,1-2.12793,1.05957,17.92826,17.92826,0,0,1-2.94824.751l-2.49805.46192a16.42429,16.42429,0,0,0-5.0459,1.50293,5.01273,5.01273,0,0,0-2.59277,4.66015,4.86631,4.86631,0,0,0,1.584,4.06348,6.0147,6.0147,0,0,0,3.85156,1.252,11.46925,11.46925,0,0,0,6.6289-2.08007q3.03223-2.08008,3.14844-7.5879Z"/><path d="M755.577,365.30469a9.72731,9.72731,0,0,0-1.583-4.23633,6.64391,6.64391,0,0,0-5.75293-2.543q-5.56056,0-7.60645,5.50781a22.87433,22.87433,0,0,0-1.08008,7.76075,21.02355,21.02355,0,0,0,1.08008,7.415,7.34155,7.34155,0,0,0,7.41309,5.23829q3.86131,0,5.48339-2.08008a10.34284,10.34284,0,0,0,1.96875-5.3916h11.208a18.35825,18.35825,0,0,1-3.624,9.47461q-5.16651,7.20263-15.30567,7.20214-10.14111,0-14.92089-6.00781-4.78125-6.00879-4.78125-15.581,0-10.80322,5.28222-16.81153,5.28077-6.00879,14.57422-6.00879,7.90284,0,12.93457,3.54395,5.03028,3.54345,5.957,12.51758Z"/><path d="M775.991,400.27734l1.38574.07715a17.40664,17.40664,0,0,0,3.082-.11523,5.54285,5.54285,0,0,0,2.46484-.88574,5.93838,5.93838,0,0,0,1.791-2.73536,6.61328,6.61328,0,0,0,.71289-2.542l-15.42578-43.83105h12.209l9.167,30.96679,8.666-30.96679h11.6709L797.3211,391.53418q-4.17187,11.93994-6.60156,14.80957-2.42871,2.86816-9.7168,2.86914-1.46484,0-2.35156-.01855-.8877-.02052-2.66015-.13477Z"/></svg>