<svg xmlns="http://www.w3.org/2000/svg" viewBox="0 0 1300 1300"><defs><style>.cls-1{fill:#3dbabf;}.cls-2{fill:#e5004f;}.cls-3{fill:#0a0000;}</style></defs><g id="LOGOS"><path class="cls-1" d="M593,411.19V386.77A184.88,184.88,0,0,0,568,385C465.92,385,382.87,468,382.87,570.11a185,185,0,0,0,79,151.59c-30.81-33.08-49.11-77.4-49.11-126.06A184.28,184.28,0,0,1,593,411.19Z"/><path class="cls-1" d="M597.33,680.8c45.55,0,83.35-36.84,85-82l.14-402.51,73-.62a140.38,140.38,0,0,1-2.37-25.53H652.57l-.16,403.13A84.36,84.36,0,0,1,528.79,645C544.16,666.25,569.12,680.8,597.33,680.8Z"/><path class="cls-1" d="M893.1,333.19V310.11a139.18,139.18,0,0,1-76.21-22.66C836.43,309.89,863,326.74,893.1,333.19Z"/><path class="cls-2" d="M816.89,287.45a139.37,139.37,0,0,1-34.41-91.76h-27A140.25,140.25,0,0,0,816.89,287.45Z"/><path class="cls-2" d="M568,485.55A84.52,84.52,0,0,0,528.79,645a84.41,84.41,0,0,1,68.54-133.87A83,83,0,0,1,622.28,515V412.3a184.88,184.88,0,0,0-24.95-1.81c-1.46,0-2.91.08-4.37.11v78.86A83.28,83.28,0,0,0,568,485.55Z"/><path class="cls-2" d="M893.1,332.52V410.7a239.21,239.21,0,0,1-139.94-45V570.11c0,102.09-83.06,185.15-185.15,185.15a184.07,184.07,0,0,1-106.1-33.56,184.62,184.62,0,0,0,135.42,59.08c102.09,0,185.15-83,185.15-185.14V391.22a239.28,239.28,0,0,0,139.94,45V335.63A140.3,140.3,0,0,1,893.1,332.52Z"/><path class="cls-3" d="M753.16,570.11V365.69a239.21,239.21,0,0,0,139.94,45V332.52a140,140,0,0,1-76.21-45.07,140.25,140.25,0,0,1-61.36-91.76H681.89l-.16,403.13A84.39,84.39,0,0,1,528.79,645,84.52,84.52,0,0,1,568,485.55a83.28,83.28,0,0,1,25,3.91V410.6c-100.07,2.34-180.77,84.41-180.77,185A184.45,184.45,0,0,0,461.91,721.7,184.07,184.07,0,0,0,568,755.26C670.1,755.26,753.16,672.2,753.16,570.11Z"/><path class="cls-3" d="M165.77,890.89H328L313.09,937.3l-42.09,0v171.59H218.57V937.28l-52.77.1Z"/><path class="cls-3" d="M593.71,890.89h166l-14.9,46.41-45.75,0v171.59H646.51V937.28l-52.76.1Z"/><polygon class="cls-3" points="337.87 960.23 389.88 960.23 389.83 1108.87 338.18 1108.87 337.87 960.23"/><path class="cls-3" d="M410.51,890.28h51.95V991.79l51.48-50.52h62l-65.13,63.19,72.95,104.4H526.54l-48.68-72.4-15.4,15v57.43H410.51Z"/><path class="cls-3" d="M961,890.28h52V991.79l51.48-50.52h62l-65.13,63.19,72.94,104.4H1077l-48.69-72.4-15.39,15v57.43H961Z"/><circle class="cls-3" cx="363.86" cy="917.06" r="26.18"/><path class="cls-1" d="M753.41,1019.89a89,89,0,0,1,82-88.68c-2.3-.18-5.83-.3-8.17-.3a89,89,0,0,0,0,178c2.34,0,5.87-.12,8.17-.3A89,89,0,0,1,753.41,1019.89Z"/><path class="cls-2" d="M855.25,930.91c-2.37,0-5.92.12-8.24.3a89,89,0,0,1,0,177.36c2.32.18,5.87.3,8.24.3a89,89,0,1,0,0-178Z"/><path class="cls-3" d="M841.19,930.91a89,89,0,1,0,89,89A89,89,0,0,0,841.19,930.91Zm0,132.23a43.26,43.26,0,1,1,43.25-43.25A43.25,43.25,0,0,1,841.19,1063.14Z"/></g></svg>