<svg id="Layer_1" data-name="Layer 1" xmlns="http://www.w3.org/2000/svg" viewBox="0 0 841.67272 1080"><defs><style>.cls-1{fill:#030404;}.cls-2{fill:#66cbde;}.cls-3{fill:#3d5aa9;}.cls-4{fill:#425eab;}.cls-5{fill:#e8eeae;}.cls-6{fill:#64c8db;}.cls-7{fill:#0a0a0a;}.cls-8{fill:#070707;}.cls-9{fill:#101010;}.cls-10{fill:#f8f8f8;}.cls-11{fill:#65cadd;}.cls-12{fill:#fbfbfb;}.cls-13{fill:#feffff;}.cls-14{fill:#fdfefe;}</style></defs><g id="背景"><path class="cls-1" d="M319.28469,377.874c-.30405,1.36674.84215,2.03858,1.4771,2.89965A99.23367,99.23367,0,0,1,337.129,415.39918a125.21352,125.21352,0,0,1,2.673,15.35091c.25389,1.99844.362,2.066,2.07417,1.824,4.68822-.66262,9.36966-1.37283,14.02378-2.05978.37762-.94741-.30918-1.39429-.75106-1.911-11.12884-13.01389-16.53635-28.27682-17.56654-45.193-1.3797-22.65474-1.74087-45.34089-1.79528-68.03234-.04646-19.366-.07175-38.73073.28177-58.09662a95.92632,95.92632,0,0,0-7.20575-38.916,63.91534,63.91534,0,0,0-5.87934-11.07243,42.76743,42.76743,0,0,0-8.712-9.57584c-12.05773-9.74715-25.38547-17.06006-40.46662-20.88162a85.69878,85.69878,0,0,0-56.74169,4.73925,107.54366,107.54366,0,0,0-32.37913,22.08057q-.64953.51-1.30166,1.02337c-1.48141,1.17042-1.87648,1.15111-3.22452-.15977-1.50272-1.46128-1.5161-1.66442-.31411-3.60489.29436-.47519.54986-.97448.82324-1.46269,1.46036-.74979,2.31477-2.13849,3.39429-3.27784a102.06664,102.06664,0,0,1,29.30014-21.9847,92.442,92.442,0,0,1,50.88732-9.0386c18.76094,1.90889,35.88824,8.34525,51.74829,18.31959,14.39653,9.05393,23.13722,22.26,27.57054,38.49726a108.85281,108.85281,0,0,1,3.53773,22.20272q1.55165,25.74231,3.18681,51.47954c.63487,9.94807,1.23585,19.90085,2.07549,29.83264,1.21644,14.3891,2.35045,28.80021,5.09243,43.00533a79.10169,79.10169,0,0,0,21.02043,40.55857,45.07618,45.07618,0,0,0,7.93262,6.75505c1.46422-.57859,1.95385-2.03056,2.7751-3.14546,9.98734-13.55853,22.5469-23.90584,38.11482-30.43706,30.03941-12.60241,64.2319-6.938,89.1644,14.69332a95.0227,95.0227,0,0,1,17.53763,20.23728c.47037.72606.8991,1.482,1.41,2.178a.96145.96145,0,0,0,1.46276.30324,7.18574,7.18574,0,0,0,.6845-.529q3.48408-3.21278,6.95943-6.43509c-1.18551-3.17359-3.58918-5.50587-5.6919-8.00843-15.69353-18.67875-35.1771-31.45273-58.90372-37.51488a109.36983,109.36983,0,0,0-45.11034-1.81309c-.50609.08234-1.02691.39582-1.52991-.02131-.02849-.84887.59792-1.29237,1.11573-1.76532,11.52725-10.52806,25.02973-16.58968,40.68172-16.86288,26.45009-.4617,46.62948,11.14124,61.049,33.04916a71.57727,71.57727,0,0,1,10.45005,26.40189c.23285,1.23837.56212,2.45862.86328,3.75853,1.57012-.30568,2.39452-1.37373,3.368-2.16774a232.09364,232.09364,0,0,1,20.515-15.22934A90.80506,90.80506,0,0,1,586.562,384.3039,36.9644,36.9644,0,0,1,600.8469,381.203a19.04365,19.04365,0,0,1,15.094,7.22038,33.7988,33.7988,0,0,1,5.06856,8.5335,80.19826,80.19826,0,0,1,5.17259,19.62275,205.90536,205.90536,0,0,1,1.9751,22.86892c.35661,9.09565,1.06069,18.17015,3.24564,27.05662a53.38632,53.38632,0,0,0,3.68056,10.6132,26.39958,26.39958,0,0,0,4.00718,6.15191c4.33295,4.84852,9.70723,6.53139,16.03364,5.24871a38.0336,38.0336,0,0,0,11.20873-4.47522,86.38547,86.38547,0,0,0,12.04238-8.45174,188.45789,188.45789,0,0,0,17.8789-17.024,469.164,469.164,0,0,0,34.3364-41.86645c6.01741-8.125,11.88371-16.36253,17.77641-24.57934,9.69671-13.52125,20.022-26.51613,31.83331-38.27446a109.60836,109.60836,0,0,1,12.4016-10.81295,43.06479,43.06479,0,0,1,8.92384-5.27852,17.40309,17.40309,0,0,1,6.69546-1.53561,8.30111,8.30111,0,0,1,7.30419,3.88978,12.02771,12.02771,0,0,1,2.33283,6.86129,3.10261,3.10261,0,0,0,.78646,3.1764v17.34592c-.5317,1.86168-1.17012,3.70956-.73858,5.69626-.49773,8.392-2.27944,16.58456-3.987,24.77568-4.62708,22.19624-10.99729,43.9363-17.337,65.68455-9.77041,33.51729-19.62547,67.01135-28.6445,100.74224-4.2494,15.89289-8.29928,31.83755-11.28249,48.02814A173.46175,173.46175,0,0,0,753.39,642.96233a78.90072,78.90072,0,0,0,6.96821,33.213c1.775,3.9455,3.76972,7.79148,5.5918,11.71649,8.51981,18.35344,9.383,37.105,2.02658,55.92745-6.43636,16.46835-18.744,27.07144-35.2571,32.90086a83.97075,83.97075,0,0,1-23.30614,4.4848c-17.03476.97-33.69248-1.46351-50.15867-5.59036-2.51759-.63089-5.00729-1.37251-7.5161-2.03939a2.18279,2.18279,0,0,0-2.16293.17315c.39085.616.73678,1.23181,1.14848,1.79986,18.35927,25.32923,33.6602,52.45879,47.3279,80.54517,4.41988,9.08262,8.64314,18.2582,12.51567,27.59116.33153.79917.70826,1.58,1.02371,2.38517.87472,2.23266.629,2.59093-1.60546,2.3974-16.39756-1.41994-32.77422-3.06179-49.10506-5.10336-31.51331-3.93957-62.88217-8.80074-93.93648-15.51535-24.69293-5.33918-49.13432-11.61215-72.78073-20.65036-4.848-1.853-9.62115-3.90638-14.39707-5.94186-3.54537-1.51109-3.52627-1.5726-7.19985.19846q-9.75127,4.70115-19.91611,8.42125a217.69391,217.69391,0,0,1-90.65939,12.61559,213.50216,213.50216,0,0,1-70.69433-17.38514,12.5615,12.5615,0,0,0-4.04226-1.45112q-.41342-.47753-.827-.95458a1230.04252,1230.04252,0,0,1-3.46643-1.73613,2.05642,2.05642,0,0,0-1.7333-.86825,2.13793,2.13793,0,0,0-1.70232-.88085c-.67066-.90271-1.6698-.805-2.61923-.85967q-.42666-.426-.852-.8539a2.07594,2.07594,0,0,0-1.75039-.89033,3.83764,3.83764,0,0,0-.5986-.5573.40508.40508,0,0,0-.65266.27309c-.01846.068.15675.23917.27281.2831a7.18521,7.18521,0,0,0,.80173.21159,2.1519,2.1519,0,0,0,1.77493.83389q.43446.41838.86761.8385c.64926.94135,1.65864.83267,2.60952.895a2.10882,2.10882,0,0,0,1.6943.88921,686.70443,686.70443,0,0,0,3.4745,1.72665,2.1872,2.1872,0,0,0,1.73478.86613q.0388.701.07767,1.40195c-6.658,2.7716-13.53809,4.91744-20.37378,7.18017-35.04853,11.60188-70.62214,21.31661-106.59643,29.58255q-6.742,1.54916-13.49085,3.06793c-.67784.15208-1.379.2002-1.86473.26791-.89031-.56408-.62183-1.17141-.48114-1.68034,10.94166-39.582,24.96643-77.9788,44.02067-114.43661,1.40208-2.68267,2.924-5.30271,4.38957-7.95081q.84792.01724,1.69685.03255c-.10938,1.32906.17585,2.39269,1.74187,2.59538-.06036.75084-.06467,1.47389.85523,1.74243a1.7912,1.7912,0,0,0,.8449,1.75026.99063.99063,0,0,0,.881.87169c.07443.50839.26433.89826.87648.8548-.08339,1.306.24317,2.34086,1.72536,2.61152l.32381,2.69442c-7.47771,14.9663-14.13809,30.29511-20.27495,45.85408-4.75951,12.067-9.22294,24.2422-13.19027,36.59571a20.50322,20.50322,0,0,0-.64,2.061,1.97707,1.97707,0,0,0,.12136,1.20984c.243.481.759.24372,1.11037.10084,1.06628-.43359,2.115-.91361,3.15512-1.408q27.13218-12.89731,54.26034-25.803,11.508-5.47248,23.018-10.94061c.10731-.07427.30308-.1461.30525-.22339a3.5922,3.5922,0,0,0-.10292-.69324.44834.44834,0,0,1-.42352-.49135,1.14479,1.14479,0,0,0-.50976-.39808,20.54793,20.54793,0,0,1-1.82211-1.13372,223.89067,223.89067,0,0,1-19.27044-16.73631A233.9516,233.9516,0,0,1,202.276,773.36314a3.787,3.787,0,0,0-1.7392-2.54991,4.77032,4.77032,0,0,0-1.72414-2.60967,1.0569,1.0569,0,0,0-.87891-.85724c-.08485-.5-.27214-.89646-.87795-.87041.03835-.74168-.01341-1.43964-.85179-1.75556a2.11472,2.11472,0,0,0-.85214-1.74867,4.472,4.472,0,0,0-1.74511-2.59151c-.255-1.04844-.49248-2.10758-1.59787-2.64106a196.39108,196.39108,0,0,1-13.06251-25.40143,90.56046,90.56046,0,0,1-3.23539-8.93351,22.72815,22.72815,0,0,1-.14929-12.83523c.56651-2.07549,1.44094-4.0494,1.61906-6.25454a6.64893,6.64893,0,0,1,1.32947-2.67875,31.58727,31.58727,0,0,1,5.77162-6.42881,61.17726,61.17726,0,0,1,9.37859-6.96446,6.33421,6.33421,0,0,0,3.47536-5.46734,37.07744,37.07744,0,0,1,3.30961-12.93522,9.48706,9.48706,0,0,1,.74884-1.53778,2.60389,2.60389,0,0,1,4.11483-.07919,37.00921,37.00921,0,0,1,1.73888,3.46627c1.13533,2.13055,1.48794,4.66,3.28373,6.45263,2.27838-.51845,4.15929-1.89149,6.17435-2.95068q8.81264-4.632,17.52434-9.4554a60.54857,60.54857,0,0,0,9.70324-6.49757,14.442,14.442,0,0,0,3.91059-4.57527,3.97376,3.97376,0,0,0-.45681-4.46617,12.2158,12.2158,0,0,0-4.46591-3.34786c-3.89138-1.96676-8.09283-3.03214-12.25509-4.21467a3.12658,3.12658,0,0,0-2.42636.50982c-3.17718,1.62052-4.47215,1.48394-6.82907-1.09672a5.88032,5.88032,0,0,0-3.58391-2.13277q-10.26321-1.61092-20.50927-3.3298a1.93546,1.93546,0,0,0-2.40423,1.25224c-.62868,1.45721-1.29271,2.89912-1.91567,4.35866-.64117,1.50236-1.30185,2.99642-3.31193,2.85868-1.76214-.1208-2.34464-1.47542-2.79625-2.893a35.61354,35.61354,0,0,1-1.58883-5.3792c-.24768-1.65021-1.04725-2.06432-2.51148-2.30529-4.41144-.726-8.8006-1.59018-13.19168-2.43567-1.27272-.245-2.53278-.57255-3.781-.92489-2.5802-.72823-2.53444-.74168-2.26717-3.60522a222.91693,222.91693,0,0,1,10.03612-49.13265A214.056,214.056,0,0,1,199.39816,525.255c.80715-1.19618,1.60313-2.39988,2.37887-3.56192.01579-1.11038-.86341-1.45727-1.51741-1.946-21.28462-15.90474-34.03315-37.08261-38.04971-63.247-4.8414-31.53743,3.132-59.61581,24.57513-83.42852a83.18908,83.18908,0,0,1,45.70035-26.46927c25.46032-5.296,48.68135.03338,69.61758,15.41935a88.83268,88.83268,0,0,1,10.10909,8.8261,3.61843,3.61843,0,0,0,1.69681,1.26707c.59834.13837.70437-.3566,1.01948-.58624l.05408-.214c-.386.27315-.95657.36277-.80636,1.08854a1.44371,1.44371,0,0,0,1.684,1.21808l-.04945-.07382c-.2036,1.16744.46183,2.08881,1.49972,2.04855.112-.00431.21781-.16847.32649-.25846l-.07778-.10365c-.62808.88035-.42561,1.29894.90617,1.87339l-.08241-.11148c-.02222.68634.07122,1.25333.99417.96451ZM254.22308,824.65317l.86572.84a2.045,2.045,0,0,0,1.73558.89339q.432.42116.864.84242a2.26478,2.26478,0,0,0,1.68539.942,2.21766,2.21766,0,0,0,1.78644.81558q.42747.42528.85493.85068a2.02072,2.02072,0,0,0,1.74655.88333l.86154.84506a2.23073,2.23073,0,0,0,1.69388.931,2.43516,2.43516,0,0,0,1.7343.8674,2.19457,2.19457,0,0,0,1.77457.83538l.47874.305-.31244-.47425a2.13018,2.13018,0,0,0-1.754-.89069,2.09681,2.09681,0,0,0-1.7275-.87513,2.03038,2.03038,0,0,0-1.73292-.85444l-.8525-.85374a2.02415,2.02415,0,0,0-1.74578-.88381q-.42914-.424-.85826-.84792a2.08874,2.08874,0,0,0-1.74137-.90208,2.01194,2.01194,0,0,0-1.73322-.85268l-.84881-.857a1.99415,1.99415,0,0,0-1.75253-.87735q-.4226-.42957-.8452-.85909-.43214-.43426-.86429-.86852a2.08333,2.08333,0,0,0-1.74872-.8854q-.43112-.44076-.86279-.88047l-.51275-.29522.30259.50574.89041.85306a2.07532,2.07532,0,0,0,1.74036.89392Q253.7834,824.22711,254.22308,824.65317ZM207.485,735.239c-.18026-.36891-.30006-.4148-.30927-.1361-.001.0306.22077.06845.33921.103a1.2345,1.2345,0,0,0,.33355,1.664c.3215.64587.63259,1.29713.966,1.93681A204.36943,204.36943,0,0,0,251.32739,794.176c13.91235,12.94967,29.041,24.18772,45.97715,32.9025,27.2779,14.03639,56.45759,19.87682,86.91207,19.76634a220.427,220.427,0,0,0,63.48541-9.88169c30.23623-9.18055,58.00527-23.3181,83.78033-41.50082,1.41059-.99508,2.86764-1.92431,4.303-2.88424l.31159,1.85258c-.64239.76995-1.24139,1.5815-1.93367,2.30365a215.488,215.488,0,0,1-40.16989,32.80219c-1.09663.6969-2.21129,1.36584-3.2958,2.081a.79614.79614,0,0,0,.02212,1.38987c2.09986.9556,4.19146,1.93543,6.32757,2.80432,18.59673,7.5639,38.05749,11.52856,57.90836,13.84311a357.07845,357.07845,0,0,0,40.19874,2.15866,471.96149,471.96149,0,0,0,62.61978-4.02109c3.80279-.49547,7.679-.75036,11.3826-1.94051-.10244-1.93744-1.05536-3.429-1.74462-4.989q-9.63224-21.80287-21.32634-42.57515c-9.8766-17.51176-20.70924-34.38809-33.517-49.93218A164.52823,164.52823,0,0,0,585.846,721.884a83.96129,83.96129,0,0,0-22.53984-12.711,8.55052,8.55052,0,0,1-1.95081-.90228,1.19221,1.19221,0,0,1-.24132-1.55514,1.0201,1.0201,0,0,1,.93471-.734,6.89093,6.89093,0,0,1,1.27975.16823,79.83836,79.83836,0,0,1,16.89862,5.28583,119.9592,119.9592,0,0,1,27.81539,17.40012c1.00827.82034,2.01875,1.63824,3.01411,2.4741a1.40046,1.40046,0,0,0,1.94213.07151c.57128-.44074,1.12366-.90615,1.68234-1.36314a364.212,364.212,0,0,0,30.10224-27.4052c13.26711-13.5876,25.25759-28.16027,34.48487-44.85884a3.42525,3.42525,0,0,1,.583-.62067q.9112.01882,1.82235.03758a48.2501,48.2501,0,0,1-3.92983,8.64125c-14.16812,27.47227-30.76917,53.26061-52.40884,75.54864-1.64139,1.69066-1.61848,1.72649-.01313,3.50783,3.1912,3.54085,6.41181,7.05556,9.56782,10.62744a7.079,7.079,0,0,0,3.18532,2.11848c21.17157,6.985,42.64844,8.65819,64.44054,3.42715a85.89793,85.89793,0,0,0,33.07089-15.53912,57.60589,57.60589,0,0,0,16.48724-19.27081c4.19629-8.22025,5.87905-16.84932,4.16089-26.024a46.51175,46.51175,0,0,0-3.29791-10.27977,84.70924,84.70924,0,0,1-7.16113-34.517A188.6273,188.6273,0,0,1,748.8,623.53c2.52325-14.9545,5.99493-29.70789,9.7-44.40936,7.65562-30.37706,16.38025-60.45656,25.08885-90.541,5.50323-19.01121,10.51634-38.13642,12.91869-57.83625.99779-8.18211,1.658-16.38836.50514-24.62878a29.30843,29.30843,0,0,0-3.61146-11.48164,11.00928,11.00928,0,0,0-10.45682-5.69168,20.77534,20.77534,0,0,0-7.52626,1.80163,45.92853,45.92853,0,0,0-10.94026,6.93164,93.11034,93.11034,0,0,0-20.85786,24.715,342.24175,342.24175,0,0,1-28.51212,40.81407c-11.75339,14.51259-24.42028,28.15408-38.77459,40.15546a131.3518,131.3518,0,0,1-22.7663,15.74006c-6.28953,3.32076-12.81139,5.98744-20.01627,6.56978-8.956.72379-16.09533-2.47754-21.3467-9.79784a35.55784,35.55784,0,0,1-3.59988-6.40954,61.90535,61.90535,0,0,1-4.1075-13.65276,146.75826,146.75826,0,0,1-1.99647-33.23684,143.16555,143.16555,0,0,0-.6163-21.64089c-.60514-5.471-1.634-10.85711-4.172-15.82606-3.70617-7.25617-9.59437-10.13112-17.51995-8.61425a45.25681,45.25681,0,0,0-12.52689,4.66873,136.04588,136.04588,0,0,0-20.48235,13.73036c-3.77591,2.95926-3.25538,2.1107-1.97172,6.37a102.19686,102.19686,0,0,1-.61931,62.2456c-1.93,3.191-.865,5.691,1.22657,8.54236a329.60687,329.60687,0,0,1,30.23785,49.97242,12.16431,12.16431,0,0,1,1.65811,3.965,1.61743,1.61743,0,0,1-1.55616.96284,11.21057,11.21057,0,0,1-.76191-1.049c-9.49353-16.71651-21.695-31.30634-35.20027-44.87165-.60345-.60617-1.26271-1.15664-1.85288-1.69383-.26354.12826-.43534.15489-.50122.25277-.63953.95035-1.296,1.892-1.88287,2.87471A93.1917,93.1917,0,0,1,512.97112,548.722c-18.0461,13.9726-38.49465,20.14536-61.2066,18.02979-18.38131-1.7122-34.51173-9.03181-48.39871-21.17353-26.12564-22.84242-37.0833-57.75-31.57727-90.9259.40164-2.42006.94847-4.81573,1.37321-7.23235.20011-1.13874-.25281-1.688-1.36274-1.60108-5.18034.40591-10.3679.65568-15.53726,1.28228a162.89053,162.89053,0,0,0-57.93487,18.09344c-29.121,15.6225-53.173,37.14815-72.76553,63.67758A189.85387,189.85387,0,0,0,199.66371,577.684c-.37,1.02833-1.21841,2.02764-.59215,3.27327,1.28007.19284,2.14192-.706,3.11472-1.20762a63.75833,63.75833,0,0,1,10.79272-4.44219c9.197-2.77843,18.44244-3.315,27.72647-.51824,3.86522,1.16442,7.72314,2.38776,11.49632,3.817,14.61019,5.53463,28.46924,12.67584,42.21066,20.04521,22.78267,12.218,44.95841,25.49158,67.12716,38.77591,13.25107,7.94054,26.3704,16.10706,39.88722,23.59453,8.21076,4.54817,8.26505,4.51318,18.58218,2.73121.28323-.049.55474-.16209.836-.22646a148.50727,148.50727,0,0,0,28.98045-10.07236q19.088-8.78757,37.23278-19.4112a91.53308,91.53308,0,0,1,10.3911-5.337c.92869-.39649,1.85367-.8043,2.7631-1.24287a4.69751,4.69751,0,0,0,2.93939-5.24432c-.5535-3.98949-1.22371-7.9424-4.82221-10.628,7.6907-1.93267,12.47345,1.46722,13.23769,9.25255a13.47639,13.47639,0,0,0,.44148,2.55091c2.99537,9.97718,2.599,19.99545.15059,29.96686a118.89046,118.89046,0,0,1-19.34648,41.32719c-5.3346,7.415-11.6317,13.97149-17.97466,20.51305a55.71092,55.71092,0,0,1-14.21918,10.494,186.96015,186.96015,0,0,1-21.76825,9.6141,553.29348,553.29348,0,0,1-92.92224,25.66939,107.10578,107.10578,0,0,1-17.61177,2.12441c-9.24128.17077-18.48155.40543-27.7233.54-13.87606.2021-27.72738-.1153-41.46081-2.39962-11.50937-1.91442-22.36322-5.54712-32.25154-11.92522-6.08038-3.92194-11.84912-8.24629-17.55384-12.67371A2.28929,2.28929,0,0,0,207.485,735.239Zm-2.1757-132.42056a38.60656,38.60656,0,0,0-8.2982,4.554c-1.68537,1.12494-3.33159,2.21186-5.45511,2.36675a2.17192,2.17192,0,0,0-2.08826,2.30354,85.37062,85.37062,0,0,0,.31369,18.97649c.09952.69743.00194,1.5923.93,2.19323,1.87891-3.96006,3.63978-7.72854,5.44972-11.4732,3.00839-6.22426,6.1233-12.39,10.33721-17.91947.44189-.36345.78727-.77842.22846-1.28162C206.17295,602.03957,205.7587,602.59587,205.30932,602.81846Zm4.78227-.97772c2.41756.43629,3.67105,1.98159,4.324,4.27253,1.10555,3.87885,2.31977,7.72716,3.51493,11.58,1.66462,5.36628,3.31674,10.737,5.05658,16.079.479,1.47082.831,3.08551,2.47818,4.2133,6.03907-12.67044,10.94226-25.75933,16.74094-38.46735-9.93742-3.73508-24.266-2.28136-32.22112,1.35187a3.65647,3.65647,0,0,0-2.36866.83569.72184.72184,0,0,0-.16672.69679.7703.7703,0,0,0,.6938.26314C208.81062,602.4441,209.44485,602.12357,210.09159,601.84074ZM528.24581,475.43625c0-2.45451.01555-4.90919-.00842-7.36344a22.04273,22.04273,0,0,0-.181-2.59289c-1.96986-15.295-6.99567-29.47008-15.93242-42.09031-13.9714-19.73008-32.59787-31.99434-56.95593-34.6296A67.08741,67.08741,0,0,0,418.5,394.93777c-17.67649,8.42083-29.6848,22.1784-36.7408,40.2508-7.75856,19.872-7.77319,40.08951-1.32,60.26769,6.4321,20.112,18.40586,36.16571,36.462,47.3531,16.25954,10.07432,33.95989,13.61164,52.749,10.06241,20.08839-3.79468,35.41525-14.92665,46.264-32.14684C524.60874,506.92442,528.4539,491.69164,528.24581,475.43625ZM166.31688,435.39359a93.74546,93.74546,0,0,0,2.22568,20.19943c5.29833,22.46576,17.25515,40.44484,36.35054,53.50642,5.13874,3.515,3.82505,3.45589,7.67486-1.1243,28.965-34.46034,64.89-58.22371,108.26484-70.54488.97109-.27585,1.95883-.49548,2.923-.79253,1.37023-.42218,1.64973-.83219,1.5634-2.15818-.02815-.43222-.06957-.865-.13354-1.29326-2.25963-15.12543-7.5314-29.09761-16.84262-41.26407-18.84824-24.62791-43.58829-36.826-74.86321-34.00687-18.93773,1.70706-34.80073,10.04594-47.40694,24.25913C172.53494,397.43818,166.49149,415.58011,166.31688,435.39359ZM300.66616,692.61581a9.81326,9.81326,0,0,0-1.40965,3.68442c-1.10522,5.07477-2.20517,10.15149-3.39352,15.20716a149.29588,149.29588,0,0,1-5.04385,18.35211,20.02253,20.02253,0,0,1-2.25145,4.66388c-2.64,3.72481-6.52856,3.87361-9.33409.25558a21.07383,21.07383,0,0,1-2.56105-4.49418q-4.32175-9.91945-8.487-19.907c-4.18044-9.98014-8.30661-19.98311-12.479-29.96664a42.03651,42.03651,0,0,0-1.8851-3.89336c-1.08829-1.99678-1.79827-2.03187-2.9137-.19787a37.01867,37.01867,0,0,0-3.499,7.90126c-2.39632,7.411-4.66989,14.86155-7.03806,22.28173-1.57853,4.946-3.31305,9.84326-4.83372,14.8065-1.25948,4.1107-5.14123,4.724-8.105,1.83485a24.419,24.419,0,0,1-4.01325-5.09034c-2.19647-3.72867-4.37405-7.47619-6.36452-11.317-4.38371-8.45889-8.23114-17.17319-12.041-25.90242-.36849-.84437-.41466-1.96343-1.60436-2.15664a51.25061,51.25061,0,0,0-1.6116,9.857,105.52624,105.52624,0,0,0-.6149,18.172,4.63773,4.63773,0,0,0,1.54164,3.39476c9.25369,8.52855,18.86111,16.59724,29.54465,23.31656a71.85283,71.85283,0,0,0,24.87154,9.62824A160.01948,160.01948,0,0,0,288.15,745.82951c13.4311-.03626,26.86321-.11952,40.29185-.35588a118.14435,118.14435,0,0,0,12.50475-1.11128c11.3169-1.41237,22.53468-3.44419,33.712-5.69268,20.37243-4.098,40.57818-8.89016,60.478-14.89972a180.07258,180.07258,0,0,0,23.17792-8.37164,11.78263,11.78263,0,0,0,4.11607-2.35855c-3.93739-2.6824-7.74193-5.27613-11.54839-7.8669a152.60067,152.60067,0,0,0-13.5915-8.4708,44.83517,44.83517,0,0,0-7.49179-3.3585,11.811,11.811,0,0,0-3.37842-.67111,1.64362,1.64362,0,0,0-1.87634,1.38537c-.16013.84824-.21077,1.71713-.30971,2.5769-.57786,5.02062-1.17168,10.03949-1.72258,15.06307a10.803,10.803,0,0,1-1.02022,3.74133,3.25832,3.25832,0,0,1-4.04144,1.63216,6.08661,6.08661,0,0,1-2.20545-1.2929c-1.764-1.70145-3.51471-3.43292-5.10666-5.29307-2.441-2.85212-4.72322-5.83953-7.11414-8.73537a46.67934,46.67934,0,0,0-6.28694-6.56173c-.75156-.61522-1.45969-1.4263-2.63311-1.15024a17.439,17.439,0,0,0-1.14269,5.92571c-.28124,5.33739-.59262,10.67334-.83583,16.01247a21.04345,21.04345,0,0,1-.87543,5.97865,10.88622,10.88622,0,0,1-5.42827,6.45728,6.98948,6.98948,0,0,1-8.70344-1.35335c-1.80177-1.87-3.41043-3.92469-5.1436-5.86266q-6.49914-7.267-13.04052-14.49624a27.679,27.679,0,0,0-2.47436-2.42571,2.56074,2.56074,0,0,0-3.86876-.02134,9.27672,9.27672,0,0,0-2.977,6.06128,89.69976,89.69976,0,0,1-5.1574,18.74347,58.053,58.053,0,0,1-2.79164,5.85027,8.59233,8.59233,0,0,1-2.52262,2.93607,4.3704,4.3704,0,0,1-5.90257-.33815,20.51675,20.51675,0,0,1-2.20732-2.66605c-2.79278-3.861-5.58577-7.7226-8.31846-11.62617-6.29382-8.99052-12.53856-18.01545-18.84153-26.99951A11.06609,11.06609,0,0,0,300.66616,692.61581ZM298.4827,634.844c-1.04782.73819-2.086,1.47177-3.12643,2.202a19.39783,19.39783,0,0,1-4.86156,2.78515c-3.71416,1.2496-6.88675.28056-9.08331-2.95486a20.60319,20.60319,0,0,1-1.934-3.854c-2.33081-5.75293-4.23041-11.65741-6.05516-17.58646-.3395-1.10317-.62045-2.23038-1.04451-3.30037-1.138-2.87148-1.48649-4.52572-5.72571-2.877-2.14973.83606-4.2956,1.68557-6.46919,2.45546a28.2,28.2,0,0,1-4.54885,1.35431c-2.91045.502-5.4442-.17945-7.13194-2.87652-.61178-.97772-1.28213-1.92151-1.96986-2.848-.71684-.9657-1.39631-.92748-1.85447.14192q-4.77147,11.13783-9.49641,22.2955a1.66571,1.66571,0,0,0-.24537.818c.07267.3877.21511.92721.5003,1.07951a20.57933,20.57933,0,0,0,2.779,1.16209c5.2983,1.89557,10.54232,3.92883,15.63062,6.336a52.40167,52.40167,0,0,1,10.04477,5.93064,15.52407,15.52407,0,0,1,4.30375,4.79865,6.487,6.487,0,0,1,.1928,6.22014,24.35077,24.35077,0,0,1-3.3791,5.0104,82.59362,82.59362,0,0,1-7.90941,8.00195c-.69625.63681-1.12655,1.27363-.30707,2.17549a21.04556,21.04556,0,0,1,3.4195,5.99024q3.19412,7.34067,6.27046,14.73254c4.71819,11.31751,9.392,22.65365,14.12256,33.966a48.69065,48.69065,0,0,0,2.34577,4.62307.92921.92921,0,0,0,1.69665-.11826,45.04929,45.04929,0,0,0,3.39657-9.79138c1.9697-7.68359,3.90027-15.37846,5.38357-23.17846.37582-1.9764,1.00556-3.9077,1.57826-5.84207a8.69515,8.69515,0,0,1,1.8892-3.375,4.67212,4.67212,0,0,1,6.24241-.95067,10.79218,10.79218,0,0,1,3.09979,2.98128c1.467,1.967,2.91273,3.94989,4.38134,5.91565.32659.43714.60318,1.03394,1.3461.72548C314.5565,678.63167,307.59286,650.53614,298.4827,634.844Zm-21.37742-26.54484a202.84494,202.84494,0,0,0,7.55081,23.20043c.229.52893.45667,1.06215.73657,1.56467,1.0653,1.913,2.32761,2.31074,4.3098,1.24573a21.92718,21.92718,0,0,0,2.87293-1.92929c2.41021-1.83909,4.7765-3.73566,7.184-5.57829a33.19849,33.19849,0,0,1,3.52755-2.499c4.0644-2.34012,7.36-1.25135,9.01479,3.10355a63.87115,63.87115,0,0,1,1.80751,6.6748c1.05127,4.04708,1.94509,8.14218,3.17389,12.13426,1.48715,4.83153,2.13563,5.04692,6.77,3.03389,3.43816-1.49342,6.83612-3.07947,10.27314-4.57559a19.92686,19.92686,0,0,1,6.25987-1.60019,10.4516,10.4516,0,0,1,9.24493,3.73492,34.0578,34.0578,0,0,1,4.02,6.14751c1.53824,2.77615,3.05931,5.56358,4.67853,8.29225a13.53905,13.53905,0,0,0,2.17026,2.67049,1.86162,1.86162,0,0,0,2.3886.28627,10.00118,10.00118,0,0,0,2.12925-1.45117,84.068,84.068,0,0,0,8.30478-10.42645C343.5529,633.01532,311.03821,619.8782,277.10528,608.29919ZM230.565,717.96446c1.53893-2.74285,11.07664-33.12721,11.30667-36.01972-2.87145,1.70866-21.15533,14.98452-22.64948,16.44575C221.89324,705.657,227.39466,715.15057,230.565,717.96446Zm-16.4448-93.7799c-1.42149-4.9527-2.55712-9.8117-4.417-14.57288a28.629,28.629,0,0,0-6.68074,11.76492c2.85545.9134,5.722,1.85195,8.60511,2.73613A3.04315,3.04315,0,0,0,214.1202,624.18456Zm35.09088-23.51391a8.13894,8.13894,0,0,0,.5009,1.48029c.90924,1.46155,1.81912,2.92633,2.81246,4.33071,1.02091,1.44339,1.58531,1.66059,3.3,1.06422,2.38645-.83019,4.72163-1.808,7.75666-2.98567A69.61873,69.61873,0,0,0,249.21108,600.67065Z"/><path class="cls-2" d="M308.91552,1059.59609a2.13359,2.13359,0,0,0-1.44316-.82622c-8.92-2.1946-15.121-9.26044-15.81274-19.815-.04717-.71992-.026-1.44461-.02656-2.16708q-.02651-36.6319-.04352-73.26393a24.70877,24.70877,0,0,1,.49387-5.58608,17.16871,17.16871,0,0,1,16.37033-13.00139c6.34985.18083,12.70919.0235,19.06436.02287q28.81515-.003,57.63032.00053a21.6567,21.6567,0,0,1,7.68277.98513,16.05163,16.05163,0,0,1,10.704,14.41159c.0313.57689.03251,1.15537.05042,1.73311.62228,20.07146.53974,40.14991.58247,60.227.01013,4.76864-.01958,9.53771.0341,14.30582a26.96569,26.96569,0,0,1-1.22467,8.10126,19.76621,19.76621,0,0,1-12.55681,13.365c-1.17035.4437-2.63576.30216-3.4854,1.5075Zm51.023-57.30928h.04793q0-12.7806-.00034-25.5613c-.00056-4.47686.02757-8.954-.01974-13.43048-.024-2.27475-.28585-2.55425-2.47915-2.57267-5.48478-.04616-10.97018-.02266-16.45533-.02191-5.55545.00084-5.11323-.36145-5.118,5.1773q-.0308,35.95921-.04947,71.91832c-.00077,1.15537-.02717,2.3117.01309,3.4658.07892,2.262.3109,2.55858,2.48839,2.57436,5.91791.04266,11.83632.03578,17.75445.01408,3.77035-.01387,3.80619-.0414,3.81154-3.87139Q359.95828,1021.13286,359.93851,1002.28681Z"/><path class="cls-2" d="M425.07829,1059.59609c.02683-1.44271.07661-2.88531.07712-4.328q.01845-52.41777.02963-104.83543c.00211-5.86844-.46077-5.47333,5.274-5.47364q43.51652-.00239,87.033.00127c1.2989.0001,2.5978.02848,3.8967.03218A16.18975,16.18975,0,0,1,537.06457,960.434c.00449.2886.0346.57678.03947.86539.16185,9.52077.4272,19.04123.46132,28.56253.07821,21.80425.04059,43.609.061,65.4136.00132,1.44016.09593,2.88043.14714,4.3206h-44.2112c-.025-1.87551-.07206-3.751-.07175-5.62652q.0073-43.94132.02233-87.88262c.00021-1.29734-.01444-2.59648-.08487-3.89139a1.38281,1.38281,0,0,0-1.35287-1.39941c-1.0035-.082-2.01483-.09083-3.02283-.09263q-7.13982-.01287-14.2796-.0018c-5.765.01238-5.33333-.49463-5.33561,5.388q-.01691,43.9413-.02978,87.88261c-.001,1.87456-.07683,3.74921-.11784,5.62377Z"/><path class="cls-3" d="M588.05292,1059.59609c.05-2.4506.1399-4.901.14323-7.35169.01545-11.26712-.02989-22.53434.03339-33.80114a19.62673,19.62673,0,0,0-1.4407-7.562q-17.80613-44.63529-35.46843-89.328c-.62011-1.56678-1.71266-3.04749-1.3717-4.86784a4.64594,4.64594,0,0,1,2.98029-.48849q20.35773-.0181,40.71551-.00879c.43312,0,.86741.024,1.29922.00085a2.63128,2.63128,0,0,1,2.87357,2.01409c3.93194,10.08358,7.96071,20.12937,11.95328,30.18935q7.26683,18.30991,14.53051,36.6209c.42434,1.068.87488,2.13034,1.39853,3.15168a.59089.59089,0,0,0,1.02885.0848,28.31331,28.31331,0,0,0,1.40377-3.14988q12.45868-31.85247,24.91647-63.70526c2.402-6.11374,1.02694-5.118,7.62113-5.19658,3.89744-.04647,7.79632-.018,11.69392.03219,1.4071.0181,1.77255.61575,1.30821,1.96677-.328.95474-.73567,1.88207-1.104,2.82294q-17.67429,45.15332-35.37853,90.29468a18.72507,18.72507,0,0,0-1.38234,7.13454c.07159,11.84443.04085,23.6895.0208,35.53435-.0027,1.58055-.15228,3.16079-.23382,4.74123q-16.15086-.00016-32.30188-.00032-5.38371,0-10.76735.00169c-1.00271.00075-2.034-.07675-2.73817.87Z"/><path class="cls-3" d="M193.61964,1059.59609c.06439-3.60449.18783-7.209.18408-10.81336q-.05687-54.8313-.152-109.66262c-.009-5.68453.4976-5.1069-5.09575-5.11982-8.37611-.01927-16.75229-.00423-25.12844-.00593-1.15525-.00031-2.31174.01811-3.46546-.02763-1.522-.06034-1.90258-.34683-1.91816-1.70272q-.08221-7.15074-.04937-14.30287c.00545-1.34159.41618-1.6736,1.89454-1.73776,1.15341-.05019,2.31-.0342,3.46523-.0342q54.15618-.00207,108.31237.00678c5.99934.00275,5.369-.63121,5.40912,5.245.02466,3.61158.02588,7.22327.02183,10.835a1.4544,1.4544,0,0,1-1.52621,1.66789q-1.73136.04875-3.46408.04933-12.9975.00588-25.995.007c-1.15229.00127-2.30648.03875-3.456.11635a1.12893,1.12893,0,0,0-1.09046,1.12965c-.07936,1.2948-.11158,2.59447-.11016,3.89214q.06484,58.08207.13426,116.16416c.00149,1.43424.25252,2.89346-.29167,4.29371Z"/><path class="cls-4" d="M589.7867,1059.59609c.70413-.9467,1.73546-.8692,2.73817-.87q5.3837-.00412,10.76735-.00169,16.15094,0,32.30188.00032.06882.4356.13757.87132Z"/><path class="cls-5" d="M402.62726,16.96358a3.4667,3.4667,0,0,1-.088-.72427H412.075q-.06948.39422-.10053.79333Q407.30232,16.99824,402.62726,16.96358Z"/><path class="cls-6" d="M817.90611,373.19035c-.43154-1.9867.20688-3.83458.73858-5.69626v6.07107Q818.27365,373.38122,817.90611,373.19035Z"/><path class="cls-4" d="M818.64469,350.14817a3.10258,3.10258,0,0,1-.78646-3.17637c.26238-.09489.52445-.19382.78646-.29279Z"/><path class="cls-4" d="M180.66719,199.45127c-.27338.48821-.52888.9875-.82324,1.46269-1.202,1.94047-1.18861,2.14361.31411,3.60489,1.348,1.31088,1.74311,1.33019,3.22452.15977q.65042-.51386,1.30166-1.02337c1.1883,2.24324,3.25993,3.60961,5.18122,5.08572,6.01712,4.62287,12.88652,7.48455,20.13695,9.514a100.81712,100.81712,0,0,0,21.68528,3.30144,136.65,136.65,0,0,0,21.10382-.31336q-.0481.6373-.09236,1.27336a187.49415,187.49415,0,0,0-32.01679,10.56577,108.97522,108.97522,0,0,0-28.23952,17.49574c-9.99927,8.77165-17.33151,19.29781-20.75444,32.30576a67.48857,67.48857,0,0,0-1.84987,24.47024,109.67864,109.67864,0,0,0,6.95968,28.06973c.57071,1.48074,1.08158,2.98458,1.62011,4.47774l-.32011-.09714-.06414.32846c-1.41185-1.09653-2.08719-2.73433-3.0236-4.17206a173.44709,173.44709,0,0,0-25.13759-30.82393,114.94769,114.94769,0,0,0-32.2642-22.306,84.81569,84.81569,0,0,0-43.94225-7.1009,100.42484,100.42484,0,0,0-29.97292,8.09754c-1.58543.684-3.20309,1.29317-4.80633,1.93485q-.44454-.57547-.88811-1.14679c3.66727-3.4739,7.43783-6.846,10.98047-10.44273A95.26167,95.26167,0,0,0,67.5349,248.20342a61.9787,61.9787,0,0,0,6.1952-25.05276,59.89337,59.89337,0,0,0-4.871-24.89924c-4.05-9.71389-9.9634-18.20883-16.85175-26.08878-1.40732-1.60992-3.21019-2.91171-4.064-4.97791l.20274-.18815c1.43744-.115,2.385.90745,3.48842,1.53721A109.65409,109.65409,0,0,0,79.104,180.05067c24.42312,6.1679,46.30418.90239,65.81452-14.79413,10.92592-8.79017,19.59485-19.565,27.13466-31.29614,2.26306-3.52107,4.332-7.16706,6.48932-10.75616a11.29868,11.29868,0,0,1,2.11229-3.22962c.03665.35675.07372.70988.11079,1.063C179.176,126.13208,177.49453,131.2,176.017,136.3268a113.54158,113.54158,0,0,0-4.50592,27.71451,70.59383,70.59383,0,0,0,1.4399,17.65758A48.53322,48.53322,0,0,0,180.66719,199.45127ZM61.04926,271.29958c1.52666.20084,2.80432-.61979,4.1406-1.09446a108.02981,108.02981,0,0,1,17.11037-4.64727,65.22215,65.22215,0,0,1,19.39863-.86795,57.7209,57.7209,0,0,1,27.7214,11.384,126.13948,126.13948,0,0,1,18.70122,17.377c4.63663,5.15486,9.11355,10.45326,13.70166,15.65232.57867.65574.92284,1.82667,2.21376,1.52648a6.69264,6.69264,0,0,0-.28886-3.02366c-1.64024-8.54218-2.55554-17.09439-1.53274-25.832a52.00208,52.00208,0,0,1,19.03859-35.2783c6.96653-5.78639,14.88017-9.92428,23.18931-13.34366,4.66875-1.92127,9.44686-3.57543,14.157-5.39838.6825-.26414,1.76782-.22536,1.687-1.54839a90.45361,90.45361,0,0,1-12.95842-.93614c-8.21117-1.12693-16.14966-3.179-23.48065-7.1509-11.78733-6.38634-18.92949-16.23013-21.464-29.38364a67.36311,67.36311,0,0,1,.48966-26.25716c.19036-.94652.696-1.88222.15291-2.87761-1.06966.04172-1.36658.97291-1.86755,1.628-2.01785,2.63869-3.9188,5.37134-6.01878,7.94184a80.8804,80.8804,0,0,1-20.53054,18.44836,52.514,52.514,0,0,1-30.12431,7.92518,62.28448,62.28448,0,0,1-22.60709-5.44887c-3.68846-1.63838-7.288-3.47717-10.92963-5.22025-.31932-.25695-.72253-.6079-1.05233-.21985-.35424.41677.06312.69828.43656.89069.846,1.15258,1.65339,2.33605,2.54491,3.45224a63.93847,63.93847,0,0,1,8.60506,13.91337,47.02049,47.02049,0,0,1,4.28657,22.66922,54.10844,54.10844,0,0,1-6.46864,21.76264,84.70726,84.70726,0,0,1-14.1203,18.98747c-1.4806,1.53352-3.36931,2.69918-4.359,4.6934a8.05,8.05,0,0,0-.78078.28826c-.114.05463-.18643.19581-.27771.29776.10567.09322.20215.25176.31861.26812C60.54249,271.94228,60.93222,271.83521,61.04926,271.29958Z"/><path class="cls-7" d="M402.62726,16.96358q4.67433.0346,9.3472.06906c1.68362.39377,3.38348.73351,5.05143,1.18993a37.99833,37.99833,0,0,1-1.437,73.634c-23.97628,5.33719-43.55718-11.8101-46.301-31.77955-2.49224-18.13871,9.02842-37.61328,29.11326-42.19105C399.80694,17.56552,401.21844,17.27044,402.62726,16.96358Zm32.21,38.08772A30.60443,30.60443,0,1,0,404.18778,85.554,30.51016,30.51016,0,0,0,434.8373,55.0513Z"/><path class="cls-8" d="M314.98243,371.31465l-.05408.214c-.09248-1.09677-.91106-1.75473-1.5502-2.51462-13.46142-16.00487-30.30874-26.4354-50.8475-30.63562a84.0182,84.0182,0,0,0-29.68793-.67731,3.99518,3.99518,0,0,1-2.45569.06985c-.27221-.71354.23895-1.0833.642-1.44977a48.85983,48.85983,0,0,1,30.35272-13.11547c23.0441-1.53383,44.62308,11.85544,54.37254,34.58088a57.76138,57.76138,0,0,1,4.54078,17.50975c.09945,1.07255.014,1.98707-1.01088,2.57735l.0927.08663c.01447-.67824.20555-1.53865-.99409-.96454l.08268.11154c.58135-.85565.35757-1.3181-.90644-1.87345l.07783.10384c.20995-1.01819-.47585-1.56422-1.15422-2.07372-.098-.07353-.44191.18082-.672.28346l.04968.07385c.13442-.2863.80689-.34927.37662-.867C315.83019,372.26493,315.40148,371.79383,314.98243,371.31465Z"/><path class="cls-7" d="M347.74366,213.72742c-.27072-17.38628,14.6431-32.16669,32.37929-32.04352,15.94354.11073,31.80075,12.994,31.9126,32.15348a32.17538,32.17538,0,0,1-32.23948,32.24809C361.23561,246.05548,347.29744,230.51763,347.74366,213.72742Zm55.77977-.99657A25.94217,25.94217,0,1,0,351.64,212.5584c.06489,16.27429,13.5529,25.9463,25.87352,25.96266C391.66356,238.53985,403.65513,226.752,403.52343,212.73085Z"/><path class="cls-9" d="M441.46868,220.679c13.80545-.14075,24.74068,11.67751,24.68348,24.88a24.80705,24.80705,0,1,1-49.61353-.23538A24.69053,24.69053,0,0,1,441.46868,220.679Zm-.08788,2.62478c-10.91386-.29907-19.86979,9.148-19.98987,19.66048-.10807,9.4589,7.19448,20.15653,19.95375,20.19941a19.93,19.93,0,1,0,.03612-39.85989Z"/><path class="cls-9" d="M434.23972,131.31365a23.42659,23.42659,0,1,1,46.85248-.02013,23.42643,23.42643,0,0,1-46.85248.02013Zm40.97856,1.31324c-.06-9.84631-7.62388-19.03889-19.03637-18.95913a18.65841,18.65841,0,0,0-18.75073,18.78178,18.89376,18.89376,0,0,0,37.7871.17735Z"/><path class="cls-9" d="M391.02739,306.641c-.26241-9.709,8.0159-17.41036,17.201-17.44181a17.302,17.302,0,0,1,.2713,34.60192A17.09562,17.09562,0,0,1,391.02739,306.641Zm16.36285,12.37349a13.6216,13.6216,0,0,0,13.82823-13.67907,13.76959,13.76959,0,0,0-13.88656-14.10488,13.892,13.892,0,0,0,.05833,27.784Z"/><path class="cls-9" d="M347.67868,116.60612a17.26519,17.26519,0,1,1,17.16387,17.49538A17.20312,17.20312,0,0,1,347.67868,116.60612Zm18.1225,15.84718a13.87524,13.87524,0,1,0,.02423-27.75007,13.87505,13.87505,0,0,0-.02423,27.75007Z"/><path class="cls-6" d="M40.98774,161.1404c-.55527-.09311-1.2319-.01366-1.6471-.30593a113.03039,113.03039,0,0,1-12.4185-10.11182,1.716,1.716,0,0,1-.48482-.69825.58849.58849,0,0,1,.87317-.7464c4.76065,3.72307,9.82,7.1008,13.74711,11.79568Z"/><path class="cls-10" d="M258.61164,220.85536c.35064-.23534.68633-.64751,1.05419-.6786a74.9773,74.9773,0,0,0,10.51838-1.73829,13.12864,13.12864,0,0,1,2.9977-.12478,4.55124,4.55124,0,0,1,1.92155.41849,26.90886,26.90886,0,0,1-6.16831,1.41556c-3.5307.263-7.02742.98247-10.53729,1.51016Q258.52365,221.26214,258.61164,220.85536Z"/><path class="cls-2" d="M180.76561,121.03763c-.03707-.35313-.07414-.70626-.11079-1.063-.18454-1.77625,1.14348-2.83259,1.98016-4.13771A8.2925,8.2925,0,0,1,180.76561,121.03763Z"/><path class="cls-6" d="M258.61164,220.85535q-.08858.40638-.21378.80256-2.853.42894-5.70117.859c.03262-.42474.06275-.849.09482-1.27385C254.691,220.48351,256.683,221.14518,258.61164,220.85535Z"/><path class="cls-2" d="M178.41832,339.90139c1.1983,1.06546,1.47172,2.55326,2.2081,4.45651-1.82436-1.3-2.55472-2.56431-2.59233-4.22963,0,.00444.06412-.324.06412-.324Z"/><path class="cls-6" d="M37.60222,286.45505a7.61207,7.61207,0,0,1-1.27482.97492,1.2768,1.2768,0,0,1-1.10811.029c-.62144-.54883.02489-1.00426.36338-1.30774a11.12065,11.12065,0,0,1,1.69756-1.06964Q37.44346,285.767,37.60222,286.45505Z"/><path class="cls-2" d="M22.89919,295.56886a2.896,2.896,0,0,1-1.59348,1.37106c-.18521.0885-.48945-.07229-.73911-.11877.05069-.24236.025-.54984.16585-.71537a2.45661,2.45661,0,0,1,1.94583-.74628Z"/><path class="cls-2" d="M22.67828,295.3595a2.40844,2.40844,0,0,1,2.74916-1.60345l.03056.0301a3.20183,3.20183,0,0,1-2.55891,1.78258Z"/><path class="cls-3" d="M193.661,760.33634q-.84889-.01557-1.69717-.03224.023-1.28388.04487-2.56526c1.10556.53375,1.343,1.59289,1.598,2.64133Z"/><path class="cls-6" d="M33.96394,288.20709a.89561.89561,0,0,1-.833.73742c-.08545.01167-.29418-.20674-.27887-.23856a1.94741,1.94741,0,0,1,.41852-.655C33.52454,287.83516,33.78912,287.92693,33.96394,288.20709Z"/><path class="cls-2" d="M18.68155,297.56815c.14215.14833.43518.34234.406.44313a.85874.85874,0,0,1-.90968.64735c-.10966-.00432-.31467-.18472-.30277-.25476A.991.991,0,0,1,18.68155,297.56815Z"/><path class="cls-9" d="M286.36052,844.2733q-.03885-.701-.07767-1.40195l.14508-.1713q.41334.47761.8267.95517C287.20915,844.22693,286.86193,844.36175,286.36052,844.2733Z"/><path class="cls-2" d="M28.02418,292.02991a1.76729,1.76729,0,0,1-1.72222.86727l.01694.01656c.37515-.70377,1.054-.78442,1.7406-.849Z"/><path class="cls-6" d="M41.92682,161.92979c-.51617-.02209-.88775-.21569-.93826-.79024l.069-.06587a1.02919,1.02919,0,0,1,.84552.87891Z"/><path class="cls-4" d="M37.60222,286.45505q-.15989-.68735-.322-1.37343a1.90013,1.90013,0,0,1,.71953-.46568q.44277.57154.88741,1.14624Q38.24518,286.11068,37.60222,286.45505Z"/><path class="cls-2" d="M26.302,292.89718c.01055.57379-.33347.81054-.84405.88892l-.03047-.03c.02547-.56866.38221-.78627.8914-.84236Z"/><path class="cls-4" d="M47.94335,167.18471l-.6194-.3616.40311-.38712c.13749.1888.275.37759.41576.56349Z"/><path class="cls-2" d="M28.0595,292.06474l.174-.342q-.10468.15345-.20936.30705Z"/><path class="cls-6" d="M24.61244,148.03184l.71886.30278c-.51044.66611-.58556.04915-.76516-.25985Z"/><path class="cls-6" d="M24.56614,148.07477l-.55917-.40853c.53131-.42262.56456-.02248.60506.366Z"/><path class="cls-6" d="M41.90312,161.95259l.37559.38984c-.08381-.02484-.2039-.02421-.24321-.08027a1.14787,1.14787,0,0,1-.1087-.33233Z"/><path class="cls-11" d="M577.71426,565.98518a12.16431,12.16431,0,0,0-1.65811-3.965,329.60687,329.60687,0,0,0-30.23785-49.97242c-2.09156-2.85132-3.15654-5.35135-1.22657-8.54236a102.19686,102.19686,0,0,0,.61931-62.2456c-1.28366-4.25932-1.80419-3.41076,1.97172-6.37a136.04588,136.04588,0,0,1,20.48235-13.73036,45.25681,45.25681,0,0,1,12.52689-4.66873c7.92558-1.51687,13.81378,1.35808,17.51995,8.61425,2.53791,4.969,3.56681,10.35506,4.172,15.82606a143.16555,143.16555,0,0,1,.6163,21.64089,146.75826,146.75826,0,0,0,1.99647,33.23684,61.90535,61.90535,0,0,0,4.1075,13.65276,35.55784,35.55784,0,0,0,3.59988,6.40954c5.25137,7.3203,12.39069,10.52163,21.3467,9.79784,7.20488-.58234,13.72674-3.249,20.01627-6.56978a131.3518,131.3518,0,0,0,22.7663-15.74006c14.35431-12.00138,27.0212-25.64287,38.77459-40.15546A342.24175,342.24175,0,0,0,743.62,422.38947a93.11034,93.11034,0,0,1,20.85786-24.715,45.92853,45.92853,0,0,1,10.94026-6.93164,20.77534,20.77534,0,0,1,7.52626-1.80163,11.00928,11.00928,0,0,1,10.45682,5.69168,29.30843,29.30843,0,0,1,3.61146,11.48164c1.15287,8.24042.49265,16.44667-.50514,24.62878-2.40235,19.69983-7.41546,38.825-12.91869,57.83625-8.7086,30.08448-17.43323,60.164-25.08885,90.541-3.70506,14.70147-7.17674,29.45486-9.7,44.40936a188.6273,188.6273,0,0,0-3.02463,31.88122,84.70924,84.70924,0,0,0,7.16113,34.517,46.51175,46.51175,0,0,1,3.29791,10.27977c1.71816,9.17468.0354,17.80375-4.16089,26.024a57.60589,57.60589,0,0,1-16.48724,19.27081,85.89793,85.89793,0,0,1-33.07089,15.53912c-21.7921,5.231-43.269,3.55785-64.44054-3.42715a7.079,7.079,0,0,1-3.18532-2.11848c-3.156-3.57188-6.37662-7.08659-9.56782-10.62744-1.60535-1.78134-1.62826-1.81717.01313-3.50783,21.63967-22.288,38.24072-48.07637,52.40884-75.54864a48.2501,48.2501,0,0,0,3.92983-8.64125,74.317,74.317,0,0,0,7.14281-18.90719,7.81517,7.81517,0,0,0,.27477-3.9816c-1.35515,3.75721-2.53965,7.45105-4.01681,11.02377-1.539,3.72216-3.364,7.32575-5.05,10.98757a3.72942,3.72942,0,0,0-.17307.83982,3.42715,3.42715,0,0,0-.583.62072c-9.22728,16.69857-21.21776,31.27124-34.48487,44.85884a364.212,364.212,0,0,1-30.10224,27.4052c-.55868.457-1.11106.9224-1.68234,1.36314a1.40046,1.40046,0,0,1-1.94213-.07151c-.99536-.83586-2.00584-1.65376-3.01411-2.4741a119.9592,119.9592,0,0,0-27.81539-17.40012,79.83836,79.83836,0,0,0-16.89862-5.28583,6.89093,6.89093,0,0,0-1.27975-.16823,1.0201,1.0201,0,0,0-.93471.734,1.19221,1.19221,0,0,0,.24132,1.55514,8.55052,8.55052,0,0,0,1.95081.90228A83.96129,83.96129,0,0,1,585.846,721.884a164.52823,164.52823,0,0,1,26.72289,26.47147c12.80774,15.54409,23.64038,32.42042,33.517,49.93218q11.70869,20.76008,21.32634,42.57515c.68926,1.56,1.64218,3.05157,1.74462,4.989-3.70358,1.19015-7.57981,1.445-11.3826,1.94051a471.96149,471.96149,0,0,1-62.61978,4.02109,357.07845,357.07845,0,0,1-40.19874-2.15866c-19.85087-2.31455-39.31163-6.27921-57.90836-13.84311-2.13611-.86889-4.22771-1.84872-6.32757-2.80432a.79614.79614,0,0,1-.02212-1.38987c1.08451-.71511,2.19917-1.38405,3.2958-2.081a215.488,215.488,0,0,0,40.16989-32.80219c.69228-.72215,1.29128-1.5337,1.93357-2.30391a13.6095,13.6095,0,0,0,3.50368-3.5938c.32238-.40352.16455-.73718-.14365-1.05161.18756.30575.43079.38605.60053.14885.08286-.11577-.00492-.35372-.01545-.53634q-.26254.24432-.52519.48859a8.12414,8.12414,0,0,0-3.73141,2.692c-1.43541.95993-2.89246,1.88916-4.303,2.88424-25.77506,18.18272-53.5441,32.32027-83.78033,41.50082a220.427,220.427,0,0,1-63.48541,9.88169c-30.45448.11048-59.63417-5.72995-86.91207-19.76634-16.93614-8.71478-32.0648-19.95283-45.97715-32.9025a204.36943,204.36943,0,0,1-42.51289-55.36924c-.3334-.63968-.64449-1.29094-.96513-1.9357q.73985-.112,1.478-.22624c5.70472,4.42742,11.47346,8.75177,17.55384,12.67371,9.88832,6.3781,20.74217,10.0108,32.25154,11.92522,13.73343,2.28432,27.58475,2.60172,41.46081,2.39962,9.24175-.13457,18.482-.36923,27.7233-.54a107.10578,107.10578,0,0,0,17.61177-2.12441,553.29348,553.29348,0,0,0,92.92224-25.66939,186.96015,186.96015,0,0,0,21.76825-9.6141,55.71092,55.71092,0,0,0,14.21918-10.494c6.343-6.54156,12.64006-13.098,17.97466-20.51305a118.89046,118.89046,0,0,0,19.34648-41.32719c2.44838-9.97141,2.84478-19.98968-.15059-29.96686a13.47639,13.47639,0,0,1-.44148-2.55091c-.76424-7.78533-5.547-11.18522-13.23769-9.25255,3.5985,2.68558,4.26871,6.63849,4.82221,10.628a4.69751,4.69751,0,0,1-2.93939,5.24432c-.90943.43857-1.83441.84638-2.7631,1.24287a91.53308,91.53308,0,0,0-10.3911,5.337q-18.1247,10.64442-37.23278,19.4112a148.50727,148.50727,0,0,1-28.98045,10.07236c-.2813.06437-.55281.17744-.836.22646-10.31713,1.782-10.37142,1.817-18.58218-2.73121-13.51682-7.48747-26.63615-15.654-39.88722-23.59453-22.16875-13.28433-44.34449-26.55786-67.12716-38.77591-13.74142-7.36937-27.60047-14.51058-42.21066-20.04521-3.77318-1.42926-7.6311-2.6526-11.49632-3.817-9.284-2.79679-18.5295-2.26019-27.72647.51824a63.75833,63.75833,0,0,0-10.79272,4.44219c-.9728.50167-1.83465,1.40046-3.11472,1.20762-.62626-1.24563.22216-2.24494.59215-3.27327a189.85387,189.85387,0,0,1,25.89764-48.81175c19.59255-26.52943,43.64457-48.05508,72.76553-63.67758a162.89053,162.89053,0,0,1,57.93487-18.09344c5.16936-.6266,10.35692-.87637,15.53726-1.28228,1.10993-.087,1.56285.46234,1.36274,1.60108-.42474,2.41662-.97157,4.81229-1.37321,7.23235-5.506,33.17589,5.45163,68.08348,31.57727,90.9259,13.887,12.14172,30.0174,19.46133,48.39871,21.17353,22.712,2.11557,43.1605-4.05719,61.2066-18.02979A93.1917,93.1917,0,0,0,535.959,522.46105c.58688-.98275,1.24334-1.92436,1.88287-2.87471.06588-.09788.23768-.12451.50122-.25277.59017.53719,1.24943,1.08766,1.85288,1.69383,13.50531,13.56531,25.70674,28.15514,35.20027,44.87165a11.21057,11.21057,0,0,0,.76191,1.049c.59482,1.27622,1.15372,2.57066,1.79081,3.82539a97.1835,97.1835,0,0,1,5.827,13.63947,16.537,16.537,0,0,0,2.56674,7.05234c.14059-2.94708.2899-5.01813-.97614-6.9318-.26784-.8141-.52239-1.6328-.80573-2.44144C582.62769,576.57472,580.74005,571.03766,577.71426,565.98518ZM542.1099,788.13358l-.091.108s.121-.108.116-.107l.08423-.11767ZM681.69427,556.27786l.72117.26378c.83715-1.30312,1.70922-2.58522,2.50626-3.91247q22.51895-37.49844,46.11705-74.32651c11.65423-18.08273,23.47222-36.05683,36.31319-53.33006,5.34185-7.18571,10.74581-14.329,17.31561-20.48034.1054-.0987.21043-.19821.309-.30356.95794-1.02411.695-2.116-.635-2.65972a5.71818,5.71818,0,0,0-5.02286.24062,30.88059,30.88059,0,0,0-4.34686,2.80995,56.18306,56.18306,0,0,0-7.40621,7.275c-6.71916,7.5679-12.75424,15.67858-18.80266,23.77605-11.40534,15.26914-22.672,30.64369-34.81662,45.34478a308.46423,308.46423,0,0,1-30.78637,32.83666c-10.33216,9.33-21.38363,17.62229-34.29889,23.14574-.46048.197-1.302.28961-1.313,1.21148.78789-.04531,1.51356-.04012,2.22568-.13551a53.39856,53.39856,0,0,1,15.53126.28585,24.72787,24.72787,0,0,1,9.7231,3.42371,14.02228,14.02228,0,0,1,6.65112,11.08094C681.78051,553.9669,681.69427,555.12625,681.69427,556.27786ZM668.73335,747.9986c2.0551.33556,3.98316-.21084,5.92847-.44508a101.95493,101.95493,0,0,0,46.009-17.69127,46.45155,46.45155,0,0,0,6.98324-5.81121,24.778,24.778,0,0,0,7.02943-14.53482,129.10389,129.10389,0,0,0,.58112-22.49475c-.02323-.5356.41354-1.40194-.62139-1.70722a10.60562,10.60562,0,0,0-.71143,1.63063c-2.20129,8.90036-6.81165,16.48656-12.69885,23.379a87.79021,87.79021,0,0,1-13.26679,12.41391,321.96412,321.96412,0,0,1-30.62034,20.40569c-2.09409,1.26315-4.35824,2.24579-6.554,3.33753C670.05151,746.84911,669.19061,747.02723,668.73335,747.9986ZM643.42619,538.94809a28.55717,28.55717,0,0,0-13.53013,2.85852C635.03246,542.14989,639.22371,540.60291,643.42619,538.94809Z"/><path class="cls-5" d="M528.24581,475.43625c.20809,16.25539-3.63707,31.48817-12.33155,45.28868-10.84877,17.22019-26.17563,28.35216-46.264,32.14684-18.78912,3.54923-36.48947.01191-52.749-10.06241-18.05617-11.18739-30.02993-27.2411-36.462-47.3531-6.45321-20.17818-6.43858-40.39572,1.32-60.26769,7.056-18.0724,19.06431-31.83,36.7408-40.2508A67.08741,67.08741,0,0,1,455.16809,388.76c24.35806,2.63526,42.98453,14.89952,56.95593,34.6296,8.93675,12.62023,13.96256,26.79528,15.93242,42.09031a22.04273,22.04273,0,0,1,.181,2.59289C528.26136,470.52706,528.24581,472.98174,528.24581,475.43625Zm-97.56723-28.83957c2.57262-.93934,5.15769-1.846,7.71483-2.8257,3.75165-1.43733,3.52377-1.11056,2.07944-4.88992a14.6837,14.6837,0,0,0-4.188-5.973,9.07564,9.07564,0,0,0-12.23141.0374,15.34878,15.34878,0,0,0-4.181,5.977,24.63872,24.63872,0,0,0-1.00554,15.70231,17.89151,17.89151,0,0,0,4.12123,7.99105c4.3107,4.65112,10.03983,4.63741,14.38026.00158a11.118,11.118,0,0,0,.8361-.993,21.78743,21.78743,0,0,0,4.10115-13.84249c-.02228-1.02014-.57929-1.40035-1.80015-1.22143-3.28215.481-6.558,1.00456-9.83636,1.51123Z"/><path class="cls-5" d="M166.31688,435.39359c.17461-19.81348,6.21806-37.95541,19.75605-53.21911,12.60621-14.21319,28.46921-22.55207,47.40694-24.25913,31.27492-2.81914,56.015,9.379,74.86321,34.00687,9.31122,12.16646,14.583,26.13864,16.84262,41.26407.064.42824.10539.861.13354,1.29326.08633,1.326-.19317,1.736-1.5634,2.15818-.96421.29705-1.95195.51668-2.923.79253C277.45793,449.75143,241.533,473.5148,212.568,507.97514c-3.84981,4.58019-2.53612,4.63927-7.67486,1.1243-19.09539-13.06158-31.05221-31.04066-36.35054-53.50642A93.74546,93.74546,0,0,1,166.31688,435.39359Zm62.46852-29.22814-.03457-1.15272c2.03291-.73636,4.10256-1.38639,6.08858-2.2328,2.08415-.88831,4.46494-1.17292,6.33191-2.89547-.60085-1.53513-1.09766-3.04165-1.77131-4.46431a13.80076,13.80076,0,0,0-3.36329-4.47c-3.925-3.46151-8.6302-3.51688-12.50615-.03547a12.87316,12.87316,0,0,0-2.75879,3.30183c-4.313,7.96878-4.507,16.10389.08033,23.93517,4.6368,7.9158,13.20166,7.68023,17.97477-.22709a23.81378,23.81378,0,0,0,3.1-12.0134c.02757-1.1107-.50146-1.60856-1.59033-1.45533C236.48233,404.99835,232.63521,405.59152,228.7854,406.16545Z"/><path class="cls-12" d="M300.66616,692.61581a11.06609,11.06609,0,0,1,3.20632,3.59818c6.303,8.98406,12.54771,18.009,18.84153,26.99951,2.73269,3.90357,5.52568,7.76516,8.31846,11.62617a20.51675,20.51675,0,0,0,2.20732,2.66605,4.3704,4.3704,0,0,0,5.90257.33815,8.59233,8.59233,0,0,0,2.52262-2.93607,58.053,58.053,0,0,0,2.79164-5.85027,89.69976,89.69976,0,0,0,5.1574-18.74347,9.27672,9.27672,0,0,1,2.977-6.06128,2.56074,2.56074,0,0,1,3.86876.02134,27.679,27.679,0,0,1,2.47436,2.42571q6.54094,7.22944,13.04052,14.49624c1.73317,1.938,3.34183,3.99261,5.1436,5.86266a6.98948,6.98948,0,0,0,8.70344,1.35335A10.88622,10.88622,0,0,0,391.25,721.9548a21.04345,21.04345,0,0,0,.87543-5.97865c.24321-5.33913.55459-10.67508.83583-16.01247A17.439,17.439,0,0,1,394.104,694.038c1.17342-.27606,1.88155.535,2.63311,1.15024a46.67934,46.67934,0,0,1,6.28694,6.56173c2.39092,2.89584,4.67317,5.88325,7.11414,8.73537,1.59195,1.86015,3.34263,3.59162,5.10666,5.29307a6.08661,6.08661,0,0,0,2.20545,1.2929,3.25832,3.25832,0,0,0,4.04144-1.63216,10.803,10.803,0,0,0,1.02022-3.74133c.5509-5.02358,1.14472-10.04245,1.72258-15.06307.09894-.85977.14958-1.72866.30971-2.5769a1.64362,1.64362,0,0,1,1.87634-1.38537,11.811,11.811,0,0,1,3.37842.67111,44.83517,44.83517,0,0,1,7.49179,3.3585,152.60067,152.60067,0,0,1,13.5915,8.4708c3.80646,2.59077,7.611,5.1845,11.54839,7.8669a11.78263,11.78263,0,0,1-4.11607,2.35855A180.07258,180.07258,0,0,1,435.13666,723.77c-19.89986,6.00956-40.10561,10.80171-60.478,14.89972-11.1773,2.24849-22.39508,4.28031-33.712,5.69268a118.14435,118.14435,0,0,1-12.50475,1.11128c-13.42864.23636-26.86075.31962-40.29185.35588a160.01948,160.01948,0,0,1-31.00992-2.78313,71.85283,71.85283,0,0,1-24.87154-9.62824c-10.68354-6.71932-20.291-14.788-29.54465-23.31656a4.63773,4.63773,0,0,1-1.54164-3.39476,105.52624,105.52624,0,0,1,.6149-18.172,51.25061,51.25061,0,0,1,1.6116-9.857c1.1897.19321,1.23587,1.31227,1.60436,2.15664,3.80989,8.72923,7.65732,17.44353,12.041,25.90242,1.99047,3.84084,4.168,7.58836,6.36452,11.317a24.419,24.419,0,0,0,4.01325,5.09034c2.96375,2.88916,6.8455,2.27585,8.105-1.83485,1.52067-4.96324,3.25519-9.86047,4.83372-14.8065,2.36817-7.42018,4.64174-14.87075,7.03806-22.28173a37.01867,37.01867,0,0,1,3.499-7.90126c1.11543-1.834,1.82541-1.79891,2.9137.19787a42.03651,42.03651,0,0,1,1.8851,3.89336c4.17237,9.98353,8.29854,19.9865,12.479,29.96664q4.18039,9.98013,8.487,19.907a21.07383,21.07383,0,0,0,2.56105,4.49418c2.80553,3.618,6.69409,3.46923,9.33409-.25558a20.02253,20.02253,0,0,0,2.25145-4.66388,149.29588,149.29588,0,0,0,5.04385-18.35211c1.18835-5.05567,2.2883-10.13239,3.39352-15.20716A9.81326,9.81326,0,0,1,300.66616,692.61581Z"/><path class="cls-6" d="M298.4827,634.844c9.11016,15.69211,16.0738,43.78764,13.48113,62.14822-.74292.30846-1.01951-.28834-1.3461-.72548-1.46861-1.96576-2.91431-3.94867-4.38134-5.91565a10.79218,10.79218,0,0,0-3.09979-2.98128,4.67212,4.67212,0,0,0-6.24241.95067,8.69515,8.69515,0,0,0-1.8892,3.375c-.5727,1.93437-1.20244,3.86567-1.57826,5.84207-1.4833,7.8-3.41387,15.49487-5.38357,23.17846a45.04929,45.04929,0,0,1-3.39657,9.79138.92921.92921,0,0,1-1.69665.11826,48.69065,48.69065,0,0,1-2.34577-4.62307c-4.7306-11.31233-9.40437-22.64847-14.12256-33.966q-3.08055-7.38927-6.27046-14.73254a21.04556,21.04556,0,0,0-3.4195-5.99024c-.81948-.90186-.38918-1.53868.30707-2.17549a82.59362,82.59362,0,0,0,7.90941-8.00195,24.35077,24.35077,0,0,0,3.3791-5.0104,6.487,6.487,0,0,0-.1928-6.22014,15.52407,15.52407,0,0,0-4.30375-4.79865,52.40167,52.40167,0,0,0-10.04477-5.93064c-5.0883-2.40713-10.33232-4.44039-15.63062-6.336a20.57933,20.57933,0,0,1-2.779-1.16209c-.28519-.1523-.42763-.69181-.5003-1.07951a1.66571,1.66571,0,0,1,.24537-.818q4.73949-11.15148,9.49641-22.2955c.45816-1.0694,1.13763-1.10762,1.85447-.14192.68773.92653,1.35808,1.87032,1.96986,2.848,1.68774,2.69707,4.22149,3.37856,7.13194,2.87652a28.2,28.2,0,0,0,4.54885-1.35431c2.17359-.76989,4.31946-1.6194,6.46919-2.45546,4.23922-1.64868,4.58774.00556,5.72571,2.877.42406,1.07.705,2.1972,1.04451,3.30037,1.82475,5.92905,3.72435,11.83353,6.05516,17.58646a20.60319,20.60319,0,0,0,1.934,3.854c2.19656,3.23542,5.36915,4.20446,9.08331,2.95486a19.39783,19.39783,0,0,0,4.86156-2.78515C296.39673,636.3158,297.43488,635.58222,298.4827,634.844Z"/><path class="cls-6" d="M202.276,773.36314a233.9516,233.9516,0,0,0,24.36979,28.08769,223.89067,223.89067,0,0,0,19.27044,16.73631,20.56506,20.56506,0,0,0,1.82158,1.13351q.03555.48651.51029.39829a.44757.44757,0,0,0,.42292.49087q-.10152.45809-.20175.91711-11.509,5.47017-23.01793,10.94061-27.13,12.90177-54.26034,25.803c-1.04014.49442-2.08884.97444-3.15512,1.408-.35142.14288-.86737.38019-1.11037-.10084a1.97707,1.97707,0,0,1-.12136-1.20984,20.50322,20.50322,0,0,1,.64-2.061c3.96733-12.35351,8.43076-24.52868,13.19027-36.59571,6.13686-15.559,12.79724-30.88778,20.27429-45.85307Q201.5916,773.41171,202.276,773.36314Z"/><path class="cls-10" d="M277.10528,608.29919c33.93293,11.579,66.44762,24.71613,96.41729,44.02881a84.068,84.068,0,0,1-8.30478,10.42645,10.00118,10.00118,0,0,1-2.12925,1.45117,1.86162,1.86162,0,0,1-2.3886-.28627,13.53905,13.53905,0,0,1-2.17026-2.67049c-1.61922-2.72867-3.14029-5.5161-4.67853-8.29225a34.0578,34.0578,0,0,0-4.02-6.14751,10.4516,10.4516,0,0,0-9.24493-3.73492,19.92686,19.92686,0,0,0-6.25987,1.60019c-3.437,1.49612-6.835,3.08217-10.27314,4.57559-4.6344,2.013-5.28288,1.79764-6.77-3.03389-1.2288-3.99208-2.12262-8.08718-3.17389-12.13426a63.87115,63.87115,0,0,0-1.80751-6.6748c-1.6548-4.3549-4.95039-5.44367-9.01479-3.10355a33.19849,33.19849,0,0,0-3.52755,2.499c-2.40751,1.84263-4.7738,3.7392-7.184,5.57829a21.92718,21.92718,0,0,1-2.87293,1.92929c-1.98219,1.065-3.2445.6673-4.3098-1.24573-.2799-.50252-.50757-1.03574-.73657-1.56467A202.84494,202.84494,0,0,1,277.10528,608.29919Z"/><path class="cls-10" d="M209.98513,600.87c7.95509-3.63323,22.2837-5.087,32.22112-1.35187-5.79868,12.708-10.70187,25.79691-16.74094,38.46735-1.64722-1.12779-1.99918-2.74248-2.47818-4.2133-1.73984-5.34193-3.392-10.71267-5.05658-16.079-1.19516-3.85281-2.40938-7.70112-3.51493-11.58-.653-2.29094-1.90647-3.83624-4.32295-4.27264Q210.04,601.35525,209.98513,600.87Z"/><path class="cls-6" d="M230.565,717.96446c-3.17034-2.81389-8.67176-12.30751-11.34281-19.574,1.49415-1.46123,19.778-14.73709,22.64948-16.44575C241.64164,684.83725,232.10393,715.22161,230.565,717.96446Z"/><path class="cls-10" d="M206.49853,603.81989c-4.21409,5.52938-7.329,11.69516-10.33739,17.91942-1.80994,3.74466-3.57081,7.51314-5.44972,11.4732-.928-.60093-.83046-1.4958-.93-2.19323a85.37062,85.37062,0,0,1-.31369-18.97649,2.17192,2.17192,0,0,1,2.08826-2.30354c2.12352-.15489,3.76974-1.24181,5.45511-2.36675a38.60656,38.60656,0,0,1,8.2982-4.554Z"/><path class="cls-6" d="M214.1202,624.18456a3.04315,3.04315,0,0,1-2.49258-.07183c-2.88315-.88418-5.74966-1.82273-8.60511-2.73613a28.629,28.629,0,0,1,6.68074-11.76492C211.56308,614.37286,212.69871,619.23186,214.1202,624.18456Z"/><path class="cls-10" d="M249.21108,600.67065a69.61873,69.61873,0,0,1,14.37,3.88955c-3.035,1.17765-5.37021,2.15548-7.75666,2.98567-1.71467.59637-2.27907.37917-3.3-1.06422-.99334-1.40438-1.90322-2.86916-2.81246-4.33071A8.13894,8.13894,0,0,1,249.21108,600.67065Z"/><path class="cls-9" d="M679.85118,657.13349a3.72929,3.72929,0,0,1,.17307-.83987c1.6861-3.66182,3.511-7.26541,5.05-10.98757,1.47716-3.57272,2.66166-7.26656,4.01681-11.02377a7.81517,7.81517,0,0,1-.27477,3.9816,74.317,74.317,0,0,1-7.14281,18.90719Q680.76232,657.15234,679.85118,657.13349Z"/><path class="cls-9" d="M577.71426,565.98518c3.02579,5.05248,4.91343,10.58954,6.84651,16.1068.28334.80864.53789,1.62734.80546,2.44054q-.7954-.06075-1.59033-.11964a97.1835,97.1835,0,0,0-5.827-13.63947c-.63709-1.25473-1.196-2.54917-1.79081-3.82539A1.61743,1.61743,0,0,0,577.71426,565.98518Z"/><path class="cls-9" d="M535.7854,792.57805a8.1246,8.1246,0,0,1,3.73141-2.692l-.05995-.10174c.30826.31512.46609.64878.14371,1.0523a13.6095,13.6095,0,0,1-3.50368,3.5938Q535.94125,793.50453,535.7854,792.57805Z"/><path class="cls-5" d="M209.98513,600.87q.05432.48531.10754.97062c-.64782.28294-1.282.60347-1.94912.825a.7703.7703,0,0,1-.6938-.26314.72184.72184,0,0,1,.16672-.69679A3.65647,3.65647,0,0,1,209.98513,600.87Z"/><path class="cls-3" d="M202.276,773.36314q-.684.048-1.36733.095-.16092-1.34876-.32328-2.69543l-.04843.05045A3.78755,3.78755,0,0,1,202.276,773.36314Z"/><path class="cls-3" d="M198.81294,768.2033a4.7731,4.7731,0,0,1,1.72381,2.60993l.04859-.0505c-1.48206-.27066-1.80862-1.30555-1.72555-2.61126Z"/><path class="cls-3" d="M193.60671,760.38017a4.472,4.472,0,0,1,1.74511,2.59151l.05131-.04023c-1.5666-.20211-1.85183-1.26574-1.74245-2.5948Z"/><path class="cls-13" d="M315.81061,373.54747c.23013-.10264.57408-.357.672-.28346.67837.5095,1.36417,1.05553,1.15419,2.07369-.1087.08983-.2145.254-.32651.2583C316.27244,375.63626,315.607,374.71489,315.81061,373.54747Z"/><path class="cls-3" d="M209.32735,736.64478q-.73855.1137-1.478.22624a1.23546,1.23546,0,0,1-.33441-1.66514l-.0296.03287A2.29009,2.29009,0,0,1,209.32735,736.64478Z"/><path class="cls-9" d="M279.3789,839.39005c-.95051-.063-1.95989.04568-2.60839-.89625l.13646-.139c.94879.05558,1.94793-.04214,2.61785.86137Z"/><path class="cls-13" d="M314.98243,371.31465c.419.47918.84776.95028,1.25448,1.43972.43027.51768-.2422.58065-.37662.867a1.44389,1.44389,0,0,1-1.68422-1.21813C314.02586,371.67742,314.59647,371.5878,314.98243,371.31465Z"/><path class="cls-9" d="M286.28285,842.87135a2.182,2.182,0,0,1-1.73383-.86719l.14477-.17093a2.04665,2.04665,0,0,1,1.73382.86741Z"/><path class="cls-9" d="M282.9615,840.964a2.04946,2.04946,0,0,1,1.732.86984l-.14445.17034a2.19355,2.19355,0,0,1-1.73887-.86115Z"/><path class="cls-9" d="M281.2282,840.09573a2.058,2.058,0,0,1,1.733.86878l-.151.1785a2.212,2.212,0,0,1-1.73658-.86444Z"/><path class="cls-3" d="M195.35182,762.97168a2.114,2.114,0,0,1,.8519,1.749l.05425-.04648c-.92009-.26827-.91578-.99132-.85542-1.74216Z"/><path class="cls-3" d="M197.1025,766.42482a1.79162,1.79162,0,0,1-.84472-1.75036l-.05406.04621c.83862.3156.89038,1.01356.85219,1.75518Z"/><path class="cls-9" d="M281.07357,840.27857a2.10882,2.10882,0,0,1-1.6943-.88921l.14555-.17315a2.13523,2.13523,0,0,1,1.70306.88Z"/><path class="cls-9" d="M275.90154,837.65678a2.15483,2.15483,0,0,1-1.77433-.83479l.17706-.21111a2.0779,2.0779,0,0,1,1.75005.891Z"/><path class="cls-13" d="M317.559,375.23389c1.264.55535,1.48779,1.0178.90644,1.87345C317.13343,376.53283,316.931,376.11424,317.559,375.23389Z"/><path class="cls-9" d="M274.12721,836.822a7.18521,7.18521,0,0,1-.80173-.21159c-.11606-.04393-.29127-.21507-.27281-.2831a.40508.40508,0,0,1,.65266-.27309,3.83764,3.83764,0,0,1,.5986.5573Z"/><path class="cls-9" d="M268.23885,833.1382a2.13406,2.13406,0,0,1,1.7534.89186l-.16728.17077a2.19963,2.19963,0,0,1-1.77359-.83686Z"/><path class="cls-9" d="M268.05138,833.364a2.42863,2.42863,0,0,1-1.7334-.86851l.19331-.23233a2.10245,2.10245,0,0,1,1.72727.87565Z"/><path class="cls-9" d="M264.77932,831.40779a2.03793,2.03793,0,0,1,1.73171.85592l-.19305.23175a2.22186,2.22186,0,0,1-1.69382-.9305Z"/><path class="cls-9" d="M263.76023,830.72254a2.02254,2.02254,0,0,1-1.74414-.886l.1649-.16622a2.02973,2.02973,0,0,1,1.74435.88577Z"/><path class="cls-9" d="M259.58038,827.92125a2.092,2.092,0,0,1,1.74092.90308l-.1626.16426a2.21959,2.21959,0,0,1-1.78409-.81876Z"/><path class="cls-9" d="M257.8483,827.0674a2.0196,2.0196,0,0,1,1.73184.85432l-.20553.24811a2.25554,2.25554,0,0,1-1.68533-.94156Z"/><path class="cls-9" d="M256.823,826.38855a2.051,2.051,0,0,1-1.73415-.8954l.1581-.16a1.99975,1.99975,0,0,1,1.751.87942Z"/><path class="cls-9" d="M251.78851,822.72033a2.08551,2.08551,0,0,1,1.74655.88784l-.19119.19268a2.07659,2.07659,0,0,1-1.73835-.8962Z"/><path class="cls-9" d="M250.92493,821.8406q.43112.44084.86292.88063l-.18233.18342q-.44655-.42559-.89131-.85242Z"/><path class="cls-9" d="M254.22179,824.655q-.43842-.42791-.87737-.855l.19064-.19189q.43333.43338.86413.86862Z"/><path class="cls-9" d="M255.0888,825.49315q-.43285-.42-.86638-.839l.1768-.17733q.424.42846.84691.85734Z"/><path class="cls-9" d="M250.71421,822.05223l-.30259-.50574q.25635.1476.513.29464Z"/><path class="cls-9" d="M256.9979,826.21254q.42439.42854.84961.856l-.15823.15976q-.43338-.42021-.86562-.84072Z"/><path class="cls-9" d="M248.46924,821.12692q.10053-.45879.2017-.91711a3.55569,3.55569,0,0,1,.10355.69372C248.77232,820.98082,248.57655,821.05265,248.46924,821.12692Z"/><path class="cls-9" d="M248.24805,819.71894q-.47448.08829-.51029-.39829A1.14526,1.14526,0,0,1,248.24805,819.71894Z"/><path class="cls-9" d="M261.3213,828.82433q.42912.42393.859.84691l-.16418.16527q-.42892-.42433-.85665-.849Z"/><path class="cls-9" d="M263.92534,830.55606q.42624.42687.85324.85274l-.15442.15616q-.4322-.42156-.86321-.84342Z"/><path class="cls-9" d="M269.99225,834.03006l.31244.47425q-.23934-.15246-.47922-.30422Z"/><path class="cls-13" d="M318.3828,376.9958c1.19964-.57411,1.00856.2863.99409.96454C318.454,378.24913,318.36058,377.68214,318.3828,376.9958Z"/><path class="cls-9" d="M276.05432,837.50184q.42567.42742.852.8539l-.13582.13806q-.43464-.41886-.86837-.83792Z"/><path class="cls-3" d="M197.93378,767.34632a1.0569,1.0569,0,0,1,.87883.85724l.04718-.05209c-.61183.0432-.80173-.34667-.87616-.85506Z"/><path class="cls-3" d="M197.98363,767.29641a.99063.99063,0,0,1-.881-.87169l-.04677.05113c.60565-.026.79294.37045.87779.87047Z"/><path class="cls-3" d="M207.515,735.20588c-.11846-.03451-.34023-.07236-.33923-.103.00921-.2787.129-.23281.30944.136Z"/><path class="cls-10" d="M205.30932,602.81846c.44938-.22259.86363-.77889,1.41749-.28024.55881.5032.21343.91817-.22838,1.28167Q205.904,603.31918,205.30932,602.81846Z"/><path class="cls-14" d="M61.04926,271.29958c-.117.53563-.50677.6427-.96764.57785-.11646-.01636-.21294-.1749-.31861-.26812.09128-.10195.16376-.24313.27771-.29776.24909-.1194.51924-.19486.77861-.2912Z"/><path class="cls-14" d="M70.33294,185.545c-.37344-.19241-.7908-.47392-.43656-.89069.3298-.388.733-.0371,1.0533.21727C70.74474,185.09428,70.53885,185.31962,70.33294,185.545Z"/><path class="cls-1" d="M681.69427,556.27786c0-1.15161.08624-2.311-.015-3.45357a14.02228,14.02228,0,0,0-6.65112-11.08094,24.72787,24.72787,0,0,0-9.7231-3.42371,53.39856,53.39856,0,0,0-15.53126-.28585c-.71212.09539-1.43779.0902-2.22568.13551.01095-.92187.85249-1.01451,1.313-1.21148,12.91526-5.52345,23.96673-13.81575,34.29889-23.14574a308.46423,308.46423,0,0,0,30.78637-32.83666c12.14461-14.70109,23.41128-30.07564,34.81662-45.34478,6.04842-8.09747,12.0835-16.20815,18.80266-23.77605a56.18306,56.18306,0,0,1,7.40621-7.275,30.88059,30.88059,0,0,1,4.34686-2.80995,5.71818,5.71818,0,0,1,5.02286-.24062c1.33.54371,1.593,1.63561.635,2.65972-.09857.10535-.2036.20486-.309.30356-6.5698,6.1513-11.97376,13.29463-17.31561,20.48034-12.841,17.27323-24.659,35.24733-36.31319,53.33006q-23.69618,36.76666-46.11705,74.32651c-.797,1.32725-1.66911,2.60935-2.50626,3.91247Z"/><path class="cls-8" d="M668.73335,747.9986c.45726-.97137,1.31816-1.14949,2.05844-1.51756,2.19578-1.09174,4.45993-2.07438,6.554-3.33753a321.96412,321.96412,0,0,0,30.62034-20.40569,87.79021,87.79021,0,0,0,13.26679-12.41391c5.8872-6.89247,10.49756-14.47867,12.69885-23.379a10.60562,10.60562,0,0,1,.71143-1.63063c1.03493.30528.59816,1.17162.62139,1.70722a129.10389,129.10389,0,0,1-.58112,22.49475,24.778,24.778,0,0,1-7.02943,14.53482,46.45155,46.45155,0,0,1-6.98324,5.81121,101.95493,101.95493,0,0,1-46.009,17.69127C672.71651,747.78776,670.78845,748.33416,668.73335,747.9986Z"/><path class="cls-3" d="M643.42619,538.94809c-4.20248,1.65482-8.39373,3.2018-13.53013,2.85852A28.55717,28.55717,0,0,1,643.42619,538.94809Z"/><path class="cls-3" d="M583.7759,584.41288q.795.05931,1.59033.11964c1.26631,1.91457,1.117,3.98562.97641,6.9327A16.537,16.537,0,0,1,583.7759,584.41288Z"/><path class="cls-9" d="M539.51681,789.88606q.26271-.24432.52519-.48859c.01053.18262.09831.42057.01545.53634-.16974.2372-.413.1569-.60053-.14885Z"/><polygon class="cls-9" points="542.14 788.134 542.019 788.242 542.11 788.134 542.14 788.134"/><polygon class="cls-9" points="542.11 788.134 542.219 788.017 542.137 788.134 542.11 788.134"/><path class="cls-8" d="M430.66906,448.0717c3.27836-.50664,6.55421-1.03023,9.83636-1.5112,1.22086-.17892,1.77787.20129,1.80015,1.22143a21.78743,21.78743,0,0,1-4.10115,13.84249,11.118,11.118,0,0,1-.8361.993c-4.34043,4.63583-10.06956,4.64954-14.38026-.00158a17.89151,17.89151,0,0,1-4.12123-7.99105,24.63872,24.63872,0,0,1,1.00554-15.70231,15.34878,15.34878,0,0,1,4.181-5.977,9.07564,9.07564,0,0,1,12.23141-.0374,14.6837,14.6837,0,0,1,4.188,5.973c1.44433,3.77936,1.67221,3.45259-2.07944,4.88992-2.55714.97968-5.14221,1.88636-7.70877,2.82377-1.51256.34477-3.0877.57983-4.57869,2.39483Z"/><path class="cls-4" d="M430.66906,448.0717l-4.56311.91788c1.491-1.815,3.06613-2.05006,4.57869-2.39483C430.67541,447.08835,430.67223,447.58,430.66906,448.0717Z"/><path class="cls-8" d="M228.7854,406.16545c3.84981-.57393,7.69693-1.1671,11.55115-1.70963,1.08887-.15323,1.6179.34463,1.59033,1.45533a23.81378,23.81378,0,0,1-3.1,12.0134c-4.77311,7.90732-13.338,8.14289-17.97477.22709-4.58728-7.83128-4.39331-15.96639-.08033-23.93517a12.87316,12.87316,0,0,1,2.75879-3.30183c3.87595-3.48141,8.58116-3.426,12.50615.03547a13.80076,13.80076,0,0,1,3.36329,4.47c.67365,1.42266,1.17046,2.92918,1.77131,4.46431-1.867,1.72255-4.24776,2.00716-6.33191,2.89547-1.986.84641-4.05567,1.49644-6.08289,2.231a4.69489,4.69489,0,0,0-2.75189,1.20714C227.07489,406.51271,227.91431,406.77532,228.7854,406.16545Z"/><path class="cls-4" d="M228.7854,406.16545c-.87109.60987-1.71051.34726-2.78077.05259a4.69489,4.69489,0,0,1,2.75189-1.20714C228.76236,405.397,228.77388,405.78122,228.7854,406.16545Z"/></g></svg>