<svg id="Layer_1" data-name="Layer 1" xmlns="http://www.w3.org/2000/svg" viewBox="0 0 1600 337.61163"><defs><style>.cls-1{fill:#ee5132;}.cls-2{fill:#2f2f2f;}</style></defs><path class="cls-1" d="M143.27673,33.44354c2.75562,24.23075,3.09889,43.67831-17.2312,59.01513-15.17459,11.44753-27.64386,26.54291-40.9935,40.32764-31.07083,32.08347-31.64014,81.1148-1.5428,113.59255,28.76851,31.0438,78.35145,34.62528,111.29356,8.03894,34.48245-27.82951,40.89033-76.42445,15.14869-112.80325-2.59231-3.66346-9.70943-6.71593-5.54678-12.39126a68.641,68.641,0,0,1,16.2189-15.65789c3.03548-2.08851,5.97722,2.78211,8.04494,5.43424,27.02524,34.6635,34.04461,72.89413,17.0699,113.66605-16.97455,40.77151-48.81015,64.01161-92.7333,67.71214-48.62972,4.097-91.305-21.73668-110.44835-64.11183-19.349-42.83045-10.55258-90.7805,23.58411-125.61624C91.06329,85.217,116.46033,60.249,143.27673,33.44354Z"/><path class="cls-2" d="M1261.29535,299.57c-16.75638,4.89028-27.325,1.38381-35.44121-14.21092-11.14471-21.41367-25.02632-41.41136-37.87032-61.93129-4.63619-7.407-38.99164-10.41542-43.94264-3.56933-1.76938,2.44669-1.43363,6.66735-1.45447,10.082-.12018,19.70917-.39926,39.42809.09945,59.12535.21287,8.40772-.7452,12.91224-11.1174,12.608-9.11088-.26735-11.87139-2.36734-11.799-11.88731q.70335-92.47967.05694-184.967c-.05361-9.32349,1.53308-13.79481,12.23575-13.14161,22.66055,1.38307,45.45831-1.42037,68.096,2.48139,30.7215,5.29511,48.26566,22.06441,52.11721,50.57819,3.57515,26.46812-9.50784,50.069-36.19382,61.90193-9.59829,4.256-10.62322,7.49695-4.78859,15.701,8.761,12.3189,16.543,25.33315,24.74215,38.05119C1244.233,273.10715,1252.43141,285.8221,1261.29535,299.57ZM1170.747,112.7642c-8.22365,0-14.29337.27015-20.32754-.07794-5.74055-.33113-8.04522,1.60825-7.97892,7.64773.25491,23.19177.05611,46.38819.15287,69.58236.01361,3.24127-1.07548,7.77081,4.57128,7.59517,22.47452-.699,45.67618,2.58046,65.79437-11.5252,13.22428-9.27205,18.3639-22.0391,16.62554-37.95444-1.7316-15.85577-11.01175-25.40417-25.253-30.87966C1192.8063,112.721,1180.75222,112.14221,1170.747,112.7642Z"/><path class="cls-1" d="M970.49177,165.801c16.40776-12.43031,31.01364-21.20348,48.81476-22.31381,29.03314-1.81095,50.0081,14.77431,51.21053,43.46892,1.47826,35.27529.24278,70.6573.71343,105.986.13454,10.09529-6.30834,7.81309-12.04417,8.35936-7.1978.68536-9.64441-2.007-9.5558-9.34187.34742-28.76961.197-57.54607.11964-86.31966-.06436-23.96365-5.71824-34.887-20.31338-39.76838-16.26479-5.43984-46.73824,4.19014-56.7034,17.672-3.06486,4.14648-2.17716,8.66172-2.19086,13.076-.09565,30.79271-.30936,61.58946.11352,92.37664.11907,8.66989-1.5341,12.59724-11.457,12.57887-9.81006-.01823-10.16775-4.70631-10.14923-12.13064.16871-67.64331.43019-135.29025-.20186-202.928-.11555-12.374,7.06845-12.88888,15.15941-13.52683,11.797-.93016,6.07269,8.53494,6.17723,12.83943C970.80613,111.45718,970.49177,137.108,970.49177,165.801Z"/><path class="cls-1" d="M671.39085,224.84848c-.17741,59.2214-51.80887,96.79989-103.77729,75.51486-38.96927-15.96091-56.95-67.25128-38.94381-111.08825A74.57634,74.57634,0,0,1,628.414,149.58153C660.6604,163.85408,671.3414,191.63142,671.39085,224.84848Zm-21.03274,1.79312c1.06224-33.45441-16.97166-58.71579-44.74071-62.67168-29.02157-4.13432-52.65236,12.24676-59.48867,41.23807-8.31068,35.24345,5.49028,67.67091,32.98182,77.49594C616.07359,295.914,648.98077,270.02035,650.35811,226.6416Z"/><path class="cls-2" d="M1354.624,225.50061c-13.62244,0-27.27432.5503-40.85833-.17247-11.05184-.588-12.38936,3.85954-10.53276,13.51182,7.72892,40.18264,42.19576,56.76969,83.82938,40.4902,3.86071-1.50957,9.868-11.76552,13.88994-.63483,2.6043,7.20751,4.06655,14.53953-6.99816,19.26384-38.00014,16.22471-80.46609,6.81051-100.43372-23.62928-22.09174-33.67786-16.3847-86.83564,12.13066-112.98851,34.18609-31.35395,88.70964-20.599,100.52732,19.86071a54.0916,54.0916,0,0,1,1.74077,8.85738c3.84191,32.88014,2.0592,34.8942-30.57826,34.89418h-22.715Zm-9.71191-17.38526q11.37435,0,22.7486-.00023c20.41847-.0034,24.75826-7.18544,15.71738-26.07414-4.66341-9.74277-12.243-15.72723-22.90916-17.884-22.91675-4.63389-43.6831,7.33145-53.1163,30.04851-3.96358,9.54505-4.494,15.22642,8.75856,14.07123C1325.64368,207.44582,1335.30716,208.115,1344.91213,208.11535Z"/><path class="cls-1" d="M463.00247,206.68684c-.00084,27.78039-.43908,55.5714.23375,83.33551.23973,9.89194-3.50334,11.62935-12.30413,11.71042-8.98565.08282-10.76429-3.28614-10.71632-11.49614.319-54.54873-.188-109.10438.45084-163.64752.134-11.44235-2.924-14.79649-14.26338-14.11431-16.61744.99979-33.34974-.08337-50.01361.39733-7.94712.22927-9.22737-3.51438-8.9257-10.11795.26556-5.81282-.29209-10.98413,8.26884-10.94832q76.56481.3201,153.13158.034c8.92588-.02859,7.53748,5.86592,7.77948,11.34039.2481,5.61259-.28779,9.79179-7.76471,9.64153-16.67091-.33495-33.4028.69158-50.01482-.35013-12.213-.76585-16.746,2.24442-16.18877,15.43369C463.78331,154.12369,463.00325,180.42174,463.00247,206.68684Z"/><path class="cls-2" d="M1459.03791,224.40164c.12389,49.39762,39.20747,73.96976,85.52543,54.07576,3.33968-1.43434,8.2505-9.53543,11.53944-.94859,2.55337,6.66628,6.97807,14.32113-4.72508,19.86151-32.40847,15.34256-75.47341,8.69747-96.06318-16.23118-24.74354-29.95765-25.0441-80.79116-.65668-111.05885,21.8-27.05639,62.92081-34.47628,96.61282-18.80976,10.3835,4.82821,8.09661,10.415,5.574,17.94633-4.02821,12.02728-9.96053,2.30395-13.76448.70355C1497.47519,150.754,1458.91532,175.55818,1459.03791,224.40164Z"/><path class="cls-1" d="M821.82026,223.5567c-.13333,50.22031,37.92356,74.90317,84.38865,54.997,3.78367-1.621,9.37478-9.93608,12.67492.19577,2.16828,6.657,5.38268,13.6108-5.155,18.665-32.93524,15.79671-76.32111,8.57666-97.2819-17.39955-23.49538-29.11734-23.1875-80.825.65593-110.16477,21.904-26.95317,63.094-34.2376,96.8731-18.47655,10.64258,4.96575,7.48873,11.13729,5.14851,18.20134-3.4407,10.38578-8.94514,2.32356-12.77492.74578C859.53567,151.03423,821.95036,174.58664,821.82026,223.5567Z"/><path class="cls-1" d="M722.16489,172.96768c16.92407-24.48855,35.62168-34.74061,61.78672-26.989,9.516,2.81919,9.531,7.77058,7.56928,15.7239-2.15049,8.71849-6.12176,7.341-12.82159,5.1407-26.39254-8.66753-55.96033,14.58892-56.44783,44.3322-.41325,25.20951-.04991,50.43124-.10991,75.64737-.017,7.13824,2.44281,14.69134-10.28,14.85732-12.19047.159-11.0986-6.29344-11.07573-14.1554.12352-42.363.77316-84.74553-.3588-127.07862-.35954-13.44544,6.68066-15.81905,16.01377-15.56942,10.68369.28579,3.96812,9.5577,5.56861,14.583C722.88083,162.19551,722.16489,165.43623,722.16489,172.96768Z"/><path class="cls-1" d="M197.41767,91.28759c-.63843,9.5683-4.7219,15.17388-13.6694,15.81824-9.76622.70329-15.4511-4.88411-16.01037-13.98794-.5267-8.573,4.85015-14.29976,13.514-15.02186C190.92144,77.29007,195.56167,83.34526,197.41767,91.28759Z"/></svg>