<svg id="Layer_1" data-name="Layer 1" xmlns="http://www.w3.org/2000/svg" viewBox="0 0 611.45655 543.97827"><defs><style>.cls-1{fill:none;}.cls-2{fill:#0c2c74;}.cls-3{fill:#a32034;}.cls-4{fill:#fdfdfd;}.cls-5{fill:#a62537;}</style></defs><title>tpot</title><path class="cls-1" d="M69.045,17.96282l.25879-6.00244a14.91442,14.91442,0,0,0-4.90234.40186,2.212,2.212,0,0,0-1.48535,2.21,2.37241,2.37241,0,0,0,1.49707,2.459A14.159,14.159,0,0,0,69.045,17.96282Z"/><path class="cls-1" d="M32.1861,99.059l7.55175,7.13672a4.74534,4.74534,0,0,0,1.583.91162,2.40233,2.40233,0,0,0,2.57227-.7539,2.93561,2.93561,0,0,0,.41015-3.5542,17.283,17.283,0,0,0-3.831-4.77539,17.08233,17.08233,0,0,0-4.39942-3.13428,2.874,2.874,0,0,0-3.62109.57031A2.48889,2.48889,0,0,0,31.734,97.582,2.81215,2.81215,0,0,0,32.1861,99.059Z"/><path class="cls-1" d="M19.60455,163.74505a2.87907,2.87907,0,0,0,1.96192-.59473,1.73019,1.73019,0,0,0,.66308-1.32226,3.06906,3.06906,0,0,0-.585-1.793,7.74532,7.74532,0,0,0-1.08594-1.09668l-5.78271.0166a8.24494,8.24494,0,0,0,1.22607,2.77441A4.23685,4.23685,0,0,0,19.60455,163.74505Z"/><path class="cls-1" d="M244.18555,317.20763c2.49963-.00231,4.99963-.018,7.4992-.01782,2.49964,0,4.9997.0188,7.49939.02259-2.49969-.00379-4.99975-.02271-7.49939-.02277S246.68518,317.20525,244.18555,317.20763Z"/><path class="cls-1" d="M353.74011,258.68475a35.93816,35.93816,0,0,1,1.33679,4.55352A35.93118,35.93118,0,0,0,353.74011,258.68475Z"/><path class="cls-1" d="M482.97919,231.85754c-3.75275,1.91223-4.906,3.29321-2.62421,7.63214A194.15852,194.15852,0,0,1,502.4906,348.50652c-.27289,3.17981.72669,4.25739,3.73145,4.13337,5.93225-.24488,11.74292.422,17.81829-.83075,29.72467-6.12909,51.56061-32.25464,51.62946-62.71088C575.77716,241.58788,525.14691,210.37,482.97919,231.85754Z"/><path class="cls-2" d="M602.31036,269.45147q-7.61847-34.95465-36.57019-55.9231c-19.11444-13.83441-40.70471-18.58129-63.87536-16.44458A82.91421,82.91421,0,0,0,466.572,208.68511c-3.00494,1.8028-4.54956,1.92163-7.07989-1.18048-32.95014-40.3949-75.06586-65.038-126.77033-72.83392-3.63281-.54779-3.55957-1.65778-2.29864-4.643a28.98481,28.98481,0,0,0-6.5987-32.64178c-9.2572-8.70722-20.115-10.6106-31.88794-6.0249-11.36163,4.42553-17.85186,14.81445-18.01721,27.422-.069,5.25885,1.47852,10.03077,3.593,14.8111-5.55445,2.47693-11.33954,1.904-16.70972,3.23785Q147.31927,165.02023,111.19647,276.29748c-3.95538,12.22851-3.95093,12.44385-14.77838,4.63739-11.198-8.07355-19.233-18.828-25.61212-30.85974-1.76453-3.32813-3.63654-4.79071-7.59918-4.69562-12.9914.31177-25.994.157-38.99231.17566q-8.38275.012-16.76557.00134c7.34088,3.36719,12.83155,8.50549,17.58594,14.57605,11.52527,14.71588,18.80353,31.7049,26.06256,48.7,9.79621,22.93531,17.82068,46.6026,28.79651,69.05646,7.92908,16.221,19.70892,28.30274,36.553,35.07013a11.73333,11.73333,0,0,1,6.525,6.22809q46.87162,92.48932,148.95453,110.99829c4.09131.734,11.28321,1.41353,15.89979,1.97043a122.29972,122.29972,0,0,0,32.372-.38748c5.23136-.7,9.9184-.72791,14.86585-1.69074,82.71832-16.09894,136.295-64.61261,161.15014-144.92651,1.41083-4.55884,2.88569-5.62934,7.57886-5.27863,48.71338,3.6402,88.51221-26.23822,98.77777-73.78589.252-1.16674.194-1.54993.62738-3.31823a71.12995,71.12995,0,0,0,.63355-27.59262C603.42338,272.88573,602.70758,271.2741,602.31036,269.45147ZM314.80829,100.83721c3.26745.08313,5.06433,1.76251,5.1795,4.85358.13123,3.523-3.05792,5.37512-5.32562,5.50433-1.962.11176-4.45709-2.44293-4.34552-5.532C310.42206,102.74419,312.01685,101.17138,314.80829,100.83721ZM461.31323,407.51989A175.42955,175.42955,0,0,1,414.887,467.451a13.65164,13.65164,0,0,1-9.46191,3.44055q-102.18237-.157-204.365-.00445a12.90787,12.90787,0,0,1-9.04468-3.16968C157.34766,438.239,136.32855,401.222,130.107,356.00506c-.41265-2.99915-.81286-6.0014-1.11993-9.01062a83.55987,83.55987,0,0,1-.39874-14.32074q.12871-46.685,22.22937-85.56769a187.7625,187.7625,0,0,1,17.07171-25.09167,202.49791,202.49791,0,0,1,18.55805-19.5727,9.49953,9.49953,0,0,1,7.08923-2.85492q109.74674.10621,219.49353-.00012a9.71057,9.71057,0,0,1,7.082,2.87122q48.07,44.15259,56.67316,108.82031a109.42008,109.42008,0,0,1,1.11835,21.43628C478.31116,358.96636,472.47882,383.855,461.31323,407.51989Zm62.72711-55.71075c-6.07537,1.25274-11.886.58587-17.81829.83075-3.00476.124-4.00434-.95356-3.73145-4.13337A194.15852,194.15852,0,0,0,480.355,239.48968c-2.28174-4.33893-1.12854-5.71991,2.62421-7.63214,42.16772-21.48755,92.798,9.73034,92.69061,57.24072C575.601,319.5545,553.765,345.68005,524.04034,351.80914Z"/><path class="cls-3" d="M128.589,332.6737h-.00073a83.55987,83.55987,0,0,0,.39874,14.32074c.30707,3.00922.70728,6.01147,1.11993,9.01062,6.22156,45.217,27.24067,82.23395,61.90833,111.71234a12.90787,12.90787,0,0,0,9.04468,3.16968q102.18246-.14274,204.36505.00445A13.65164,13.65164,0,0,0,414.887,467.451a175.42955,175.42955,0,0,0,46.42627-59.93109c11.16559-23.66486,16.99793-48.55353,16.59046-74.80548q-120.43662-.029-240.87336-.05621Q182.80934,332.64922,128.589,332.6737Zm37.46521,21.43268q-2.554,5.89453-6.47168,8.0957a7.68167,7.68167,0,0,1-3.86127,1.08978,6.0734,6.0734,0,0,1-2.35943-.50775,5.77534,5.77534,0,0,1-2.98438-2.72851,11.33107,11.33107,0,0,1-1.12939-4.19336,12.94642,12.94642,0,0,1,.36572-4.24414,33.97514,33.97514,0,0,1,1.20166-3.668q2.59571-5.99121,6.69336-8.11524a6.73378,6.73378,0,0,1,5.99512-.50586q3.16405,1.37111,3.9414,5.52832c.00562.0307.00739.06232.01276.09308A15.98869,15.98869,0,0,1,166.05426,354.10638ZM160.56061,386.914l11.69531-7.05371.4502.74707q-2.376,1.43262-2.65528,2.4834a1.9838,1.9838,0,0,0-.03259.696,5.41,5.41,0,0,0,.84607,2.16729l1.17975,1.95624,4.39435,7.28681,1.672,2.77258a4.28828,4.28828,0,0,0,1.25782,1.48242,1.189,1.189,0,0,0,1.27636-.10449,4.9676,4.9676,0,0,0,1.01563-.96582c.16406-.18158.36816-.42713.59265-.70477.15106-.18683.30578-.37952.4845-.60968l.47851.793-5.82617,8.14258-.54688.332-9.01867-14.95422-1.6991-2.81726a7.59028,7.59028,0,0,0-.92712-1.26154,2.46706,2.46706,0,0,0-1.01721-.72284q-.91407-.27831-3.16993,1.082ZM193.403,344.89007l.2143-.49463a6.38074,6.38074,0,0,0,.42346-1.28265,2.252,2.252,0,0,0,.05408-.60309,1.19166,1.19166,0,0,0-.82617-.97852,4.94319,4.94319,0,0,0-1.377-.2666q-.60937-.07031-1.69433-.11426l.36718-.84863,10.0127.0166.58691.25391-1.26141,2.91186-6.98761,16.13013a4.16552,4.16552,0,0,0-.48779,2.73535q.30468.90673,2.72021,1.95313l-.29217.674-.05451.12579-12.53125-5.42871.34668-.7998q2.54591,1.103,3.564.71972a3.98944,3.98944,0,0,0,1.85937-2.32422Zm-2.88922,94.07373a6.73951,6.73951,0,0,1-2.459,5.74414,5.78255,5.78255,0,0,1-3.82227,1.31934,11.33385,11.33385,0,0,1-4.22363-1.01075,12.94147,12.94147,0,0,1-3.55469-2.34765A29.71978,29.71978,0,0,1,174.343,440.471c-.17566-.19794-.349-.39227-.53729-.60974q-4.0254-5.14307-3.9336-9.75684a6.73027,6.73027,0,0,1,2.417-5.50781q2.71875-2.127,6.74024-.82422a15.93861,15.93861,0,0,1,7.46191,5.63868,23.594,23.594,0,0,1,2.44287,3.75958A13.10538,13.10538,0,0,1,190.51373,438.9638Zm9.856-47.40039a33.72773,33.72773,0,0,1,.98633-3.73242q2.24268-6.13331,6.21-8.49024a6.73147,6.73147,0,0,1,5.95605-.85351q3.23877,1.18506,4.25586,5.29a13.72868,13.72868,0,0,1,.21772,5.05023,19.89988,19.89988,0,0,1-1.0683,4.26422q-2.20752,6.03222-5.99121,8.457a6.73766,6.73766,0,0,1-6.17579.94336,5.77907,5.77907,0,0,1-3.13867-2.55078,10.58155,10.58155,0,0,1-1.04358-2.57526,13.10817,13.10817,0,0,1-.32751-1.54486A12.91207,12.91207,0,0,1,200.36969,391.56341Zm48.174-14.12842.06281-.145a5.9003,5.9003,0,0,0,.45147-1.43109,2.01634,2.01634,0,0,0,.02607-.45465,1.19167,1.19167,0,0,0-.82618-.97852,4.943,4.943,0,0,0-1.37695-.2666q-.60937-.07031-1.69434-.11426l.36719-.84863,10.0127.0166.58691.25391-1.03625,2.39215-7.21277,16.64984a4.1656,4.1656,0,0,0-.4878,2.73535c.19037.56647,1.007,1.17462,2.43311,1.8227.0957.04345.18585.0866.28711.13043l-.34668.7998-12.53125-5.42871.34668-.7998a8.1662,8.1662,0,0,0,2.89655.81176,1.86278,1.86278,0,0,0,.66741-.092,1.98333,1.98333,0,0,0,.59284-.38458,5.44191,5.44191,0,0,0,1.26654-1.93964Zm-13.80243,46.61572q1.97315-2.83008,6.20117-2.76464a15.92682,15.92682,0,0,1,8.78809,3.19921,25.40925,25.40925,0,0,1,2.4903,1.9682,13.95639,13.95639,0,0,1,4.15911,5.983,6.736,6.736,0,0,1-.665,6.21289,5.77857,5.77857,0,0,1-3.26562,2.38281,11.31976,11.31976,0,0,1-4.335.27344,12.92819,12.92819,0,0,1-4.08692-1.2002,33.98458,33.98458,0,0,1-3.35644-1.90723,23.80762,23.80762,0,0,1-2.76166-2.2387,13.28558,13.28558,0,0,1-3.86236-5.93122A6.735,6.735,0,0,1,234.74127,424.05071Zm7.56738-72.86816a7.63176,7.63176,0,0,1,.583,4.05731,6.09107,6.09107,0,0,1-.79388,2.18683,5.78391,5.78391,0,0,1-3.085,2.61426,10.79361,10.79361,0,0,1-3.21845.58935c-.35412.01337-.7146.01508-1.08429-.00048a12.99583,12.99583,0,0,1-4.16308-.90137,33.7839,33.7839,0,0,1-3.48633-1.65723,24.81092,24.81092,0,0,1-2.428-1.63763,13.65663,13.65663,0,0,1-4.77222-6.03229,6.72785,6.72785,0,0,1,.25782-6.00977q1.7622-2.96631,5.98437-3.209a15.94027,15.94027,0,0,1,8.99805,2.55273c.40234.23908.78283.48316,1.15466.72925A15.201,15.201,0,0,1,242.30865,351.18255Zm-26.28027,86.91406a4.154,4.154,0,0,0,.90625,2.626,3.69384,3.69384,0,0,0,2.47858.44232c.26556-.01215.54333-.03.84759-.06049l.08692.86719-.15363.01538L209.371,443.07128l-2.61218.26166-.08691-.86719q2.76123-.27686,3.46386-1.10547a3.99681,3.99681,0,0,0,.49219-2.93652l-1.30182-12.99622-.09662-.96472c-.02758-.27472-.06512-.51532-.10742-.73944a3.13277,3.13277,0,0,0-.39453-1.14044,1.189,1.189,0,0,0-1.19824-.45117,4.93944,4.93944,0,0,0-1.332.4375q-.56689.23438-1.53516.72461l-.0918-.91992,8.752-4.86133.63672-.06446.76647,7.6482ZM280.315,360.15716a4.171,4.171,0,0,0,1.05567,2.56933,2.15139,2.15139,0,0,0,1.23053.34839,10.47665,10.47665,0,0,0,2.11322-.15991l.13672.86133-13.48829,2.14355-.13671-.86035a11.38738,11.38738,0,0,0,2.188-.53381,2.66551,2.66551,0,0,0,1.20649-.77087,3.99579,3.99579,0,0,0,.32129-2.959l-.05988-.37665-1.95673-12.30768-.18652-1.17309a4.288,4.288,0,0,0-.6084-1.84766,1.00175,1.00175,0,0,0-.28851-.24707,1.3609,1.3609,0,0,0-.93317-.13476,4.95,4.95,0,0,0-1.30469.51367q-.55224.26806-1.49218.81348l-.14453-.91407,8.457-5.35937.63281-.09961.2782,1.75024Zm50.01612,32.502a4.17612,4.17612,0,0,0,1.21875,2.4961,1.94632,1.94632,0,0,0,.98754.24908,8.92823,8.92823,0,0,0,2.36011-.27447l.19336.8496-1.72851.38947-9.28888,2.09277-2.30683.51972-.1914-.85059q2.707-.60937,3.30273-1.51855a3.98752,3.98752,0,0,0,.13281-2.97364l-2.24939-9.98968-.83264-3.69782c-.03637-.16046-.07574-.30145-.115-.44342a3.59459,3.59459,0,0,0-.61157-1.36224,1.18908,1.18908,0,0,0-1.24414-.30273,4.974,4.974,0,0,0-1.26953.5957q-.5332.30176-1.43555.90625l-.20312-.90234,8.0957-5.88868.625-.14062.965,4.28393Zm17.56054-53.59179.28321.82421q-2.62354.90089-3.11719,1.87012a3.99025,3.99025,0,0,0,.19433,2.9707l4.5625,13.26758a4.3,4.3,0,0,0,.91895,1.71485,1.01991,1.01991,0,0,0,.1507.1015,1.24147,1.24147,0,0,0,1.11883.06354,4.93672,4.93672,0,0,0,1.19629-.73047q.498-.36036,1.32812-1.0586l.30079.874-7.40332,6.74023-.60547.208-6.749-19.625a4.15519,4.15519,0,0,0-1.48437-2.34766q-.83643-.46436-3.32617.3916l-.28321-.82422,4.08991-1.40618Zm60.3584,1.03613.4082-.8291,9.999.5039.57519.28321-9.16894,18.61718a5.94968,5.94968,0,0,0-.65558,2.01056,1.978,1.978,0,0,0,.03351.69647,1.34463,1.34463,0,0,0,.232.43189,6.92212,6.92212,0,0,0,2.39105,1.6521l-.38574.78223-12.25195-6.03516.27728-.56226.10846-.22q2.48877,1.22754,3.52442.89453a3.99229,3.99229,0,0,0,1.9707-2.23046l6.20019-12.58692a4.28647,4.28647,0,0,0,.56836-1.86035,1.18985,1.18985,0,0,0-.77734-1.01758,4.97511,4.97511,0,0,0-1.36133-.334l-.03308-.005C409.50262,340.23,408.9538,340.16631,408.25006,340.10345Zm-.851,108.40429-6.668,5.07056-1.79639,1.366-.52734-.69336a7.92468,7.92468,0,0,0,2.17291-2.19837,1.75429,1.75429,0,0,0,.20209-.55651,3.89721,3.89721,0,0,0-1.04614-2.65863c-.02588-.03492-.0423-.0658-.0691-.10114l-5.889-7.74347-2.36316-3.10736-.24195-.31811a4.28777,4.28777,0,0,0-1.41015-1.33985,1.18867,1.18867,0,0,0-1.25782.24219,4.97526,4.97526,0,0,0-.90625,1.06836q-.36034.498-.92968,1.42187l-.56055-.73632,4.918-8.72071.50976-.38769,3.05884,4.02209,6.16443,8.10565,3.33923,4.39081a4.1574,4.1574,0,0,0,2.14454,1.76563q.94043.17871,3.03515-1.416l.52735.69434Zm-18.5484-74.47167a2.90888,2.90888,0,0,0,.41845,1.79174,8.06353,8.06353,0,0,0,.60889,1.0022l8.13281,11.43262a4.29472,4.29472,0,0,0,1.36719,1.38476.99778.99778,0,0,0,.53143.09156,1.48373,1.48373,0,0,0,.73322-.29273,4.99938,4.99938,0,0,0,.94043-1.041q.375-.48488.97461-1.39063l.53613.75391-2.1015,3.46423-2.43536,4.01477-.65552,1.08057-.52344.37207-11.605-16.31366-.42432-.5965a9.33585,9.33585,0,0,0-.60192-.76257,3.07168,3.07168,0,0,0-1.486-1.06946q-.93456-.208-3.07812,1.31738l-.50586-.71,11.12793-7.917.50586.71Q389.05035,372.96674,388.85065,374.03607Zm-4.09375-24.78516q3.57421,5.33789,3.30078,9.82422a8.84474,8.84474,0,0,1-.46472,2.39264,6.116,6.116,0,0,1-2.41321,3.15228,5.78354,5.78354,0,0,1-3.91016,1.03223,11.32285,11.32285,0,0,1-4.13574-1.32129,12.93691,12.93691,0,0,1-3.37109-2.60547,33.78471,33.78471,0,0,1-2.43262-2.99707q-3.63282-5.42726-3.19922-10.02149a6.72887,6.72887,0,0,1,2.82227-5.31347q2.86669-1.91895,6.78125-.32032a12.91628,12.91628,0,0,1,2.36462,1.301A17.80044,17.80044,0,0,1,384.7569,349.25091Zm-21.90332,79.082a6.73073,6.73073,0,0,1,5.8125-1.55566q3.35742.791,4.85449,4.74707a12.99506,12.99506,0,0,1,.70837,2.95941,18.111,18.111,0,0,1-.44665,6.38922q-1.47363,6.25341-4.94336,9.10937a6.733,6.733,0,0,1-6.02051,1.6709,5.78262,5.78262,0,0,1-3.41894-2.15918,11.33926,11.33926,0,0,1-1.85157-3.92773c-.0459-.16742-.07745-.34271-.11578-.51428a13.28006,13.28006,0,0,1-.27191-3.72791,33.987,33.987,0,0,1,.53613-3.82324Q359.19488,431.14495,362.85358,428.33294Zm7.668-38.00586a12.65035,12.65035,0,0,1,.37591,1.60016,17.00577,17.00577,0,0,1-.61713,7.74945q-1.8076,6.16407-5.4248,8.83105a6.47658,6.47658,0,0,1-7.2406.88807,5.55821,5.55821,0,0,1-2.15881-1.88318,11.32561,11.32561,0,0,1-1.6377-4.02246,12.968,12.968,0,0,1-.16016-4.25684,34.056,34.056,0,0,1,.74024-3.78809q1.83837-6.26659,5.64355-8.8789a6.7296,6.7296,0,0,1,5.88672-1.24024Q369.23932,386.29731,370.52155,390.32708ZM345.36536,448.774l-7.68915,5.847-.42517.32331-.52735-.69336a13.57948,13.57948,0,0,0,1.27509-1.08545,3.36677,3.36677,0,0,0,1.09894-1.66943,3.99569,3.99569,0,0,0-1.11524-2.75977l-1.19635-1.5733-6.223-8.18354-1.07379-1.4121c-.07605-.1-.14728-.18232-.22046-.27179a3.77437,3.77437,0,0,0-1.1897-1.06806,1.18865,1.18865,0,0,0-1.25781.24219,4.94691,4.94691,0,0,0-.90625,1.06836q-.36034.498-.92969,1.42187l-.56054-.73632,4.918-8.72071.50977-.38769,3.41992,4.49725,2.8504,3.74835,6.2912,8.27295a4.16233,4.16233,0,0,0,2.14551,1.76563q.94042.17871,3.03516-1.416l.52734.69434ZM321.212,354.1054q-2.55469,5.89454-6.47168,8.0957a8.45288,8.45288,0,0,1-2.72309.99451,6.07187,6.07187,0,0,1-3.49762-.41247,5.77348,5.77348,0,0,1-2.98437-2.72852,11.3219,11.3219,0,0,1-1.12989-4.19336,12.93435,12.93435,0,0,1,.36622-4.24414,33.951,33.951,0,0,1,1.20117-3.668q2.59571-5.99121,6.69336-8.11523a6.73369,6.73369,0,0,1,5.99511-.50586q3.16407,1.37109,3.94141,5.52832c.03485.19122.05377.38641.07971.57989A16.28005,16.28005,0,0,1,321.212,354.1054Zm-11.47364,76.16309q3.13477,1.4414,3.82031,5.61328a12.61794,12.61794,0,0,1,.137,1.52276,16.92091,16.92091,0,0,1-1.72974,7.694q-2.68067,5.8374-6.64648,7.95214a7.64792,7.64792,0,0,1-3.96418,1.0058,6.08226,6.08226,0,0,1-2.26776-.55951,5.77669,5.77669,0,0,1-2.9248-2.793,11.32787,11.32787,0,0,1-1.03711-4.21679,12.95339,12.95339,0,0,1,.45752-4.23438,34.27367,34.27367,0,0,1,1.28125-3.6416q2.72607-5.93408,6.87012-7.96777A6.73174,6.73174,0,0,1,309.73834,430.26849Zm-15.36719-42.72461c1.9657,3.58038,2.77942,6.796,2.46857,9.65619-.01514.1394-.01929.28228-.03985.42a6.73947,6.73947,0,0,1-3.35352,5.27246,5.77893,5.77893,0,0,1-3.98535.68457,11.33277,11.33277,0,0,1-4.00586-1.67773,12.96516,12.96516,0,0,1-3.12891-2.89063,34.0818,34.0818,0,0,1-2.16113-3.19922q-3.14355-5.7246-2.30762-10.26269a6.72861,6.72861,0,0,1,3.27539-5.0459q3.02344-1.66113,6.78418.27441a14.8892,14.8892,0,0,1,5.44117,5.11286C293.708,386.41216,294.04883,386.95684,294.37115,387.54388Zm-8.2246,39.1084a2.84652,2.84652,0,0,0-1.42475,1.04712,7.84572,7.84572,0,0,0-.72174,1.01538l-7.20117,12.042a4.28234,4.28234,0,0,0-.71826,1.80859,1.18667,1.18667,0,0,0,.69238,1.07617,2.59542,2.59542,0,0,0,.446.19593h.00007a7.9122,7.9122,0,0,0,.88354.24743q.59619.14942,1.665.334l-.47461.793-.566-.075h-.00018l-7.15119-.94781-2.20745-.2926-.54981-.3291,10.65186-17.81055c.08862-.14813.15167-.28.22674-.4195.03034-.05633.06354-.11456.09162-.16949a3.43111,3.43111,0,0,0,.52-2.05847q-.18456-.939-2.44335-2.29l.44726-.74805,11.7207,7.00977-.44726.748Q287.20562,426.40522,286.14655,426.65228Zm123.69238,4.126a6.72758,6.72758,0,0,1-.58594-5.9873q1.32861-3.18311,5.47461-4.01465a15.92933,15.92933,0,0,1,9.2666,1.2666q5.92822,2.47413,8.18067,6.36328a6.73442,6.73442,0,0,1,.666,6.21192c-.03656.08758-.08575.16052-.12488.24511a5.71571,5.71571,0,0,1-2.56262,2.77637,11.33353,11.33353,0,0,1-4.17871,1.18555,12.97463,12.97463,0,0,1-4.248-.3086,34.34914,34.34914,0,0,1-3.68457-1.15332,22.2881,22.2881,0,0,1-4.17169-2.24731A12.59793,12.59793,0,0,1,409.83893,430.77825Zm28.18738-37.9834a20.58347,20.58347,0,0,1-.747,3.72364q-1.80762,6.16406-5.42481,8.83105a6.73436,6.73436,0,0,1-6.10156,1.34473,5.77614,5.77614,0,0,1-3.29785-2.33985,11.32582,11.32582,0,0,1-1.6377-4.02246,11.78719,11.78719,0,0,1-.25244-2.21331,14.625,14.625,0,0,1,.09229-2.04352,34.14336,34.14336,0,0,1,.74023-3.78809q1.83839-6.26659,5.64356-8.87793a6.73024,6.73024,0,0,1,5.88672-1.24121q3.31055.97119,4.59277,5.001A13.97257,13.97257,0,0,1,438.02631,392.79485Zm18.75012-32.26269a6.1131,6.1131,0,0,1-1.33222,2.16547,5.5427,5.5427,0,0,1-1.20684.981,11.32072,11.32072,0,0,1-4.11622,1.38477,12.94336,12.94336,0,0,1-4.25781-.10352,33.7864,33.7864,0,0,1-3.73633-.97265c-.1701-.06153-.32489-.13013-.49066-.19367-3.82361-1.46606-6.50665-3.458-8.02105-5.988a6.72885,6.72885,0,0,1-.874-5.95215q1.17335-3.24464,5.27539-4.27442a15.93443,15.93443,0,0,1,9.31641.81739q6.041,2.18555,8.47851,5.96191A6.73861,6.73861,0,0,1,456.77643,360.53216Z"/><path class="cls-4" d="M476.78534,311.27813q-8.5448-64.66048-56.67316-108.82031a9.71057,9.71057,0,0,0-7.082-2.87122q-109.74673.10557-219.49353.00012a9.49953,9.49953,0,0,0-7.08923,2.85492,202.49791,202.49791,0,0,0-18.55805,19.5727A187.7625,187.7625,0,0,0,150.81769,247.106q-22.01349,38.91376-22.22937,85.56769h.00073q54.21992-.00979,108.44128-.0155,120.43671.01977,240.87336.05621A109.42008,109.42008,0,0,0,476.78534,311.27813ZM230.38586,243.60986c-.69171,6.11425-1.18579,12.25055-1.81713,18.372-.20807,2.01751-.5517,4.03656-3.20258,4.28936-2.62634.25049-3.38055-1.79852-4.12109-3.57837a92.10166,92.10166,0,0,1-3.98713-10.74926c-.90551-3.28119-2.487-4.35028-5.95123-4.222-7.7121.28559-7.72168.06311-7.722,7.54254-.00092,16.15906.10852,32.31934-.083,48.47608-.04346,3.67206.40991,6.11462,4.69214,6.32086,1.27936.06158,2.50592.86444,3.79449,1.16632,2.36725.55463,2.54914,2.22925,2.40882,4.20239-.17579,2.47193-2.04639,1.72913-3.36536,1.73493q-15.99207.07077-31.98462.00451c-1.36737-.00433-3.13251.56507-3.27545-1.856-.11841-2.00617.25915-3.22779,2.46472-4.14881,2.65137-1.10724,6.66705-.34,7.79114-3.3338.98981-2.63623.28973-5.91656.2915-8.91241.00928-15.65924-.08282-31.31934.0763-46.977.03271-3.21741-.853-3.95142-4.09516-4.282-5.86792-.59845-9.40137.96265-10.58581,7.0987-.52838,2.73706-2.01007,5.277-2.863,7.96856-.7074,2.23236-1.45612,3.76606-4.37671,3.64551-3.57745-.14764-2.81341-2.79993-3.04956-4.63086-.7868-6.10052-1.3988-12.21747-1.66351-18.38354-.13629-3.17511.61181-3.96949,3.68768-3.92139q3.93466.06153,7.87.079c7.87066.04065,15.74285-.01654,23.61407-.01752,10.495-.00134,20.99347.14978,31.48309-.088C229.82776,239.33239,230.74213,240.46105,230.38586,243.60986ZM274.21735,287.917a78.25771,78.25771,0,0,1-11.4679.16192c-2.46228-.1156-3.28632.70844-3.17657,3.08362.13061,2.82678.02783,5.66431.027,8.49719-.00231,8.3075-.01727,8.34925,7.91456,11.22113,2.05828.74524,3.42889,1.55823,3.2229,4.16449-.252,3.18714-2.50727,2.06262-4.056,2.09973-2.49817.05994-4.9975.07111-7.4972.06733s-4.99975-.02259-7.49939-.02259c-2.49957-.00018-4.99957.01551-7.4992.01782s-4.999-.00866-7.4975-.06213c-1.26251-.027-3.28748.90881-3.43842-1.57275-.09826-1.61475-.46453-3.85736,1.7533-4.09717,9.00452-.97357,7.134-7.58258,7.13544-13.26477.004-15.33093-.08161-30.66266.0711-45.99207.031-3.113-.47674-5.053-3.96173-5.47442a13.0174,13.0174,0,0,1-4.10644-1.74817c-1.783-.928-.87909-2.65-.97315-4.02747-.09491-1.38873,1.056-1.51379,2.06977-1.45447,13.66711.79963,27.3637-2.14605,40.96875-.1701,15.84912,2.30194,23.53021,10.74786,23.14648,24.28076C298.979,276.8214,289.15417,286.41369,274.21735,287.917ZM351.4967,316.6347c-22.85571,6.35425-48.6568-2.66278-50.38452-36.07483a54.177,54.177,0,0,1,1.1908-13.90711c3.29693-15.76367,12.95105-23.98065,29.083-27.41333a38.20041,38.20041,0,0,1,23.42938,1.86139c16.22613,6.80609,20.67523,20.90168,21.47174,35.82453C376.43243,297.3352,367.18469,312.27313,351.4967,316.6347Zm93.7934-54.811c-.45343,1.7027.62061,4.32318-2.6485,4.43091-2.594.08545-3.88537-1.27057-4.69165-3.55945-1.38068-3.91968-3.05926-7.74011-4.30762-11.69842-.78552-2.49073-2.08129-3.23786-4.662-3.24573-8.45777-.02576-8.4574-.14264-8.45777,8.27606-.00073,16.32349.07257,32.64758-.06872,48.96985-.02619,3.0224.60522,4.70343,3.90088,4.90485,1.44769.0885,2.837.91363,4.28411,1.28094,2.19263.55652,2.74457,1.938,2.61506,4.07428-.17591,2.90137-2.2898,1.87811-3.66895,1.88867q-15.73965.12095-31.48028-.00152c-1.38648-.01148-3.495,1.03625-3.82691-1.76282-.28912-2.43774.78894-3.44623,3.01166-4.279,7.808-2.92566,7.77069-3.02423,7.77045-11.44361-.00049-15.82379-.10444-31.6488.08129-47.47039.04023-3.42914-.829-4.2049-4.3172-4.548-6.02124-.59222-9.22839,1.36548-10.46441,7.30811-.63635,3.05945-2.22473,5.90881-3.16,8.9223-.70587,2.27435-2.22027,2.41809-4.21521,2.44922-2.53985.03961-2.5736-1.74671-2.73254-3.32929-.68152-6.78521-1.20007-13.58685-1.89355-20.37072-.234-2.289.3164-3.18726,2.8515-3.17707,22.46447.0907,44.9295.05274,67.35833.05274C445.79224,247.28191,447.19116,254.68487,445.2901,261.82366Z"/><path class="cls-4" d="M314.66217,111.19512c2.2677-.12921,5.45685-1.98132,5.32562-5.50433-.11517-3.09107-1.91205-4.77045-5.1795-4.85358-2.79144.33417-4.38623,1.907-4.49164,4.82593C310.20508,108.75219,312.7002,111.30688,314.66217,111.19512Z"/><path class="cls-2" d="M354.81537,241.10082a38.20041,38.20041,0,0,0-23.42938-1.86139c-16.132,3.43268-25.78608,11.64966-29.083,27.41333a54.177,54.177,0,0,0-1.1908,13.90711C302.8399,313.97192,328.641,322.989,351.4967,316.6347c15.688-4.36157,24.93573-19.2995,24.79041-39.70935C375.4906,262.0025,371.0415,247.90691,354.81537,241.10082Zm-.28717,55.06763a30.14175,30.14175,0,0,1-1.38318,3.82538c-1.93677,4.38251-4.546,8.135-9.412,9.67627-7.07025,2.2395-14.30694-1.03528-18.3435-8.37183a36.6126,36.6126,0,0,1-4.141-15.28479c-.66973-9.32763-.86151-18.64093,2.03705-27.68817,2.50159-7.80823,7.32691-11.95929,13.98383-12.33118,6.82294-.38116,12.7984,3.88453,15.95666,11.39032q.27255.64783.5141,1.3003a35.93118,35.93118,0,0,1,1.33679,4.55352q.29443,1.29795.50831,2.60822c.05371.32684.10662.65393.15386.98181a107.36365,107.36365,0,0,1,.81281,12.11469C356.233,284.74407,356.14307,290.58056,354.5282,296.16845Z"/><path class="cls-2" d="M276.20667,239.34411c-13.605-1.976-27.30164.96973-40.96875.1701-1.01374-.05932-2.16468.06574-2.06977,1.45447.09406,1.37744-.80987,3.09943.97315,4.02747a13.0174,13.0174,0,0,0,4.10644,1.74817c3.485.42138,3.99274,2.36145,3.96173,5.47442-.15271,15.32941-.06714,30.66114-.0711,45.99207-.00147,5.68219,1.86908,12.2912-7.13544,13.26477-2.21783.23981-1.85156,2.48242-1.7533,4.09717.15094,2.48156,2.17591,1.54571,3.43842,1.57275,2.49847.05347,4.9978.06452,7.4975.06213s4.99963-.01812,7.4992-.018,4.9997.019,7.49939.02277,4.999-.00739,7.4972-.06733c1.54876-.03711,3.80407,1.08741,4.056-2.09973.206-2.60626-1.16462-3.41925-3.2229-4.16449-7.93183-2.87188-7.91687-2.91363-7.91456-11.22113.0008-2.83288.10358-5.67041-.027-8.49719-.10975-2.37518.71429-3.19922,3.17657-3.08362a78.25771,78.25771,0,0,0,11.4679-.16192c14.93682-1.5033,24.76165-11.09559,25.1358-24.29212C299.73688,250.092,292.05579,241.64605,276.20667,239.34411Zm-8.40619,40.58643c-8.00293,1.76922-8.19782,1.60913-8.19983-6.74537q-.0012-4.7319-.00251-9.4638c-.00177-3.1131.10688-6.23291.053-9.34265-.018-1.03656-.05395-2.07209-.11816-3.10578-.197-3.1734.76135-4.38672,4.07477-4.50848,9.02972-.33179,15.14917,4.1969,16.32165,12.50683C281.49689,270.38146,277.09741,277.87518,267.80048,279.93054Z"/><path class="cls-2" d="M226.4165,239.40966c-10.48962.23773-20.98809.08661-31.48309.088-7.87122.001-15.74341.05817-23.61407.01752q-3.93531-.02033-7.87-.079c-3.07587-.0481-3.824.74628-3.68768,3.92139.26471,6.16607.87671,12.283,1.66351,18.38354.23615,1.83093-.52789,4.48322,3.04956,4.63086,2.92059.12055,3.66931-1.41315,4.37671-3.64551.85291-2.69159,2.3346-5.2315,2.863-7.96856,1.18444-6.136,4.71789-7.69715,10.58581-7.0987,3.24219.33063,4.12787,1.06464,4.09516,4.282-.15912,15.65765-.067,31.31775-.0763,46.977-.00177,2.99585.69831,6.27618-.2915,8.91241-1.12409,2.99378-5.13977,2.22656-7.79114,3.3338-2.20557.921-2.58313,2.14264-2.46472,4.14881.14294,2.42108,1.90808,1.85168,3.27545,1.856q15.99225.05091,31.98462-.00451c1.319-.0058,3.18957.737,3.36536-1.73493.14032-1.97314-.04157-3.64776-2.40882-4.20239-1.28857-.30188-2.51513-1.10474-3.79449-1.16632-4.28223-.20624-4.7356-2.6488-4.69214-6.32086.19147-16.15674.082-32.317.083-48.47608.00036-7.47943.00994-7.25695,7.722-7.54254,3.46424-.12829,5.04572.9408,5.95123,4.222a92.10166,92.10166,0,0,0,3.98713,10.74926c.74054,1.77985,1.49475,3.82886,4.12109,3.57837,2.65088-.2528,2.99451-2.27185,3.20258-4.28936.63134-6.12146,1.12542-12.25776,1.81713-18.372C230.74213,240.46105,229.82776,239.33239,226.4165,239.40966Z"/><path class="cls-2" d="M379.20972,239.4428c-2.5351-.01019-3.08551.88806-2.8515,3.17707.69348,6.78387,1.212,13.58551,1.89355,20.37072.15894,1.58258.19269,3.3689,2.73254,3.32929,1.99494-.03113,3.50934-.17487,4.21521-2.44922.93531-3.01349,2.52369-5.86285,3.16-8.9223,1.236-5.94263,4.44317-7.90033,10.46441-7.30811,3.48822.34308,4.35743,1.11884,4.3172,4.548-.18573,15.82159-.08178,31.6466-.08129,47.47039.00024,8.41938.03753,8.518-7.77045,11.44361-2.22272.83282-3.30078,1.84131-3.01166,4.279.33191,2.79907,2.44043,1.75134,3.82691,1.76282q15.73938.12963,31.48028.00152c1.37915-.01056,3.493,1.0127,3.66895-1.88867.12951-2.13629-.42243-3.51776-2.61506-4.07428-1.44714-.36731-2.83642-1.19244-4.28411-1.28094-3.29566-.20142-3.92707-1.88245-3.90088-4.90485.14129-16.32227.068-32.64636.06872-48.96985.00037-8.4187,0-8.30182,8.45777-8.27606,2.58069.00787,3.87646.755,4.662,3.24573,1.24836,3.95831,2.92694,7.77874,4.30762,11.69842.80628,2.28888,2.09766,3.6449,4.69165,3.55945,3.26911-.10773,2.19507-2.72821,2.6485-4.43091,1.90106-7.13879.50214-14.54175,1.278-22.32812C424.13922,239.49554,401.67419,239.5335,379.20972,239.4428Z"/><path class="cls-4" d="M355.58521,265.84649q-.21516-1.31012-.50831-2.60822a35.93816,35.93816,0,0,0-1.33679-4.55352q-.24187-.6525-.5141-1.3003c-3.15826-7.50579-9.13372-11.77148-15.95666-11.39032-6.65692.37189-11.48224,4.52295-13.98383,12.33118-2.89856,9.04724-2.70678,18.36054-2.03705,27.68817a36.6126,36.6126,0,0,0,4.141,15.28479c4.03656,7.33655,11.27325,10.61133,18.3435,8.37183,4.866-1.54132,7.47528-5.29376,9.412-9.67627a30.14175,30.14175,0,0,0,1.38318-3.82538c1.61487-5.58789,1.70477-11.42438,2.02368-17.22546a107.36365,107.36365,0,0,0-.81281-12.11469C355.69183,266.50042,355.63892,266.17333,355.58521,265.84649Z"/><path class="cls-4" d="M263.60773,246.76446c-3.31342.12176-4.27179,1.33508-4.07477,4.50848.06421,1.03369.10016,2.06922.11816,3.10578.0539,3.10974-.05475,6.22955-.053,9.34265q.00357,4.7319.00251,9.4638c.002,8.3545.1969,8.51459,8.19983,6.74537,9.29693-2.05536,13.69641-9.54908,12.1289-20.65925C278.7569,250.96136,272.63745,246.43267,263.60773,246.76446Z"/><path class="cls-3" d="M236.31622,427.67138a14.55724,14.55724,0,0,0,1.747,1.62134q.97449.78853,2.32361,1.72967l6.85352,4.77539c.51538.353.99371.66742,1.44885.95746a14.51871,14.51871,0,0,0,3.85876,1.94,2.04283,2.04283,0,0,0,2.35547-.65527,1.81431,1.81431,0,0,0-.08411-2.03717,6.68949,6.68949,0,0,0-1.06237-1.36322,26.87912,26.87912,0,0,0-3.66895-2.92578l-3.84955-2.68341-3.004-2.09393a31.04671,31.04671,0,0,0-3.78241-2.33173l-.00068-.00031a7.10446,7.10446,0,0,0-1.49328-.57617,2.03586,2.03586,0,0,0-2.33106.61914,2.06039,2.06039,0,0,0,.22461,2.43262A5.34159,5.34159,0,0,0,236.31622,427.67138Z"/><path class="cls-3" d="M363.41022,387.34173a7.65336,7.65336,0,0,0-.88782,1.56171,31.52312,31.52312,0,0,0-1.40906,3.992l-2.35058,8.01563a19.38815,19.38815,0,0,0-1.06055,5.95312,2.04534,2.04534,0,0,0,1.37012,2.02539,1.82731,1.82731,0,0,0,1.92022-.74591,6.72049,6.72049,0,0,0,.94013-1.423,26.99141,26.99141,0,0,0,1.6084-4.40821l2.35058-8.01562c.322-1.098.57147-2.06354.7522-2.90363a14.15455,14.15455,0,0,0,.33807-2.33691,5.12786,5.12786,0,0,0-.00921-.6872q-.167-1.67284-1.32715-2.01367A2.06237,2.06237,0,0,0,363.41022,387.34173Z"/><path class="cls-3" d="M371.04321,347.17315a22.72527,22.72527,0,0,0,2.63263,4.76721l4.64551,6.94141a19.41959,19.41959,0,0,0,3.89063,4.62988,2.04525,2.04525,0,0,0,2.43359.24707c.73944-.49573.88769-1.428.45984-2.78729-.07953-.25275-.172-.515-.29187-.79767a26.87684,26.87684,0,0,0-2.35352-4.06152l-4.64551-6.94141q-.62887-.93951-1.18719-1.69922a13.043,13.043,0,0,0-2.67023-2.92969c-.0122-.00824-.02313-.01141-.03528-.01947a2.01869,2.01869,0,0,0-2.3612-.252,2.05988,2.05988,0,0,0-.67481,2.34766A4.88484,4.88484,0,0,0,371.04321,347.17315Z"/><path class="cls-3" d="M433.97174,385.21087q-.167-1.67284-1.32715-2.01367a2.06237,2.06237,0,0,0-2.23535.98633,8.15693,8.15693,0,0,0-.96942,1.74792,32.83261,32.83261,0,0,0-1.32745,3.80579l-1.23835,4.22284-1.11224,3.79278c-.23364.82086-.4248,1.56128-.58258,2.23822a12.984,12.984,0,0,0-.478,3.71491,2.04355,2.04355,0,0,0,1.37012,2.02539c.82379.24151,1.60815-.20368,2.35333-1.31146a8.29882,8.29882,0,0,0,.507-.85651,27.04332,27.04332,0,0,0,1.6084-4.40918l2.35059-8.01563c.11755-.40081.2232-.77984.3219-1.1463a24.87057,24.87057,0,0,0,.70837-3.37066A6.73433,6.73433,0,0,0,433.97174,385.21087Z"/><path class="cls-3" d="M362.34772,442.72454a19.37544,19.37544,0,0,0-.73828,6.001q.24756,1.65966,1.47656,1.94922a1.88324,1.88324,0,0,0,1.9527-.94763,6.98165,6.98165,0,0,0,.78656-1.37073,26.912,26.912,0,0,0,1.36816-4.48926l1.917-8.12988q.24765-1.05149.41883-1.94355a18.18451,18.18451,0,0,0,.3894-3.23156,5.3807,5.3807,0,0,0-.04651-.80243q-.25781-1.6626-1.43457-1.93946a2.06093,2.06093,0,0,0-2.17871,1.10547,6.89813,6.89813,0,0,0-.67841,1.30072,29.24835,29.24835,0,0,0-1.31573,4.36823Z"/><path class="cls-3" d="M414.06158,429.43072c.64478.31164,1.36579.63653,2.18457.97839l7.709,3.2168a19.40123,19.40123,0,0,0,5.80078,1.709c.07532.00116.13409-.0141.20581-.01654a1.96553,1.96553,0,0,0,1.95728-1.12311q.61083-1.46045-1.84082-3.08007a26.84283,26.84283,0,0,0-4.20508-2.083l-7.708-3.21875a27.095,27.095,0,0,0-4.70386-1.59308,5.92293,5.92293,0,0,0-1.06958-.13251,2.03672,2.03672,0,0,0-2.14746,1.09766,2.063,2.063,0,0,0,.73535,2.33105,4.96421,4.96421,0,0,0,.4524.38556A15.47644,15.47644,0,0,0,414.06158,429.43072Z"/><path class="cls-3" d="M293.28455,397.92626a30.67982,30.67982,0,0,0-1.803-3.74664l-4.01953-7.32227c-.19806-.36077-.38941-.69885-.57673-1.02307a15.46937,15.46937,0,0,0-2.8598-3.92712,3.83007,3.83007,0,0,0-.39215-.26373,1.84481,1.84481,0,0,0-1.97113-.21576,1.942,1.942,0,0,0-.88525,1.98541c.00488.1004-.00519.18787.00732.29486a12.15369,12.15369,0,0,0,1.21613,3.41943c.30969.64527.67065,1.34827,1.09735,2.12549l4.01953,7.32227c.02649.04736.05121.08893.07751.13568a19.00009,19.00009,0,0,0,3.39124,4.81744,2.33684,2.33684,0,0,0,1.8017.6568,1.74092,1.74092,0,0,0,.60064-.19879,1.55232,1.55232,0,0,0,.33356-.24872q.92806-.89712.14886-3.30694C293.42114,398.27721,293.34912,398.09728,293.28455,397.92626Z"/><path class="cls-3" d="M311.5788,360.70849c.159-.194.319-.40308.48083-.64117a26.85671,26.85671,0,0,0,2.13965-4.17676l3.32031-7.665c.56458-1.30261.99268-2.41675,1.29212-3.35211a9.24871,9.24871,0,0,0,.51159-2.39692,3.827,3.827,0,0,0-.03228-.4743,1.84523,1.84523,0,0,0-1.038-1.6878,2.03678,2.03678,0,0,0-2.29584.66888c-.01446.01385-.02856.021-.043.03522a18.3809,18.3809,0,0,0-2.96386,5.22754l-3.32032,7.665a19.40659,19.40659,0,0,0-1.78613,5.77734,3.3556,3.3556,0,0,0,.09241.89081,1.74734,1.74734,0,0,0,1.01794,1.2879,1.49877,1.49877,0,0,0,.66187.12085A2.886,2.886,0,0,0,311.5788,360.70849Z"/><path class="cls-3" d="M300.39069,444.6513a19.38974,19.38974,0,0,0-1.91065,5.73633,2.0447,2.0447,0,0,0,1.06152,2.20312c.79328.364,1.64686.02167,2.56073-1.004a8.48084,8.48084,0,0,0,.58332-.72741,26.7823,26.7823,0,0,0,2.23047-4.12989l3.4873-7.58984c.53723-1.16919.9552-2.18085,1.26819-3.05328a10.77975,10.77975,0,0,0,.64185-2.47577c.00543-.059.01605-.12476.01867-.17993a2.03736,2.03736,0,0,0-1.02246-2.18457,2.06367,2.06367,0,0,0-2.35547.65234,5.71587,5.71587,0,0,0-.65.75061,26.01308,26.01308,0,0,0-2.42615,4.4115Z"/><path class="cls-3" d="M455.835,360.15325q.53907-1.48974-1.9873-2.98828c-.35315-.20984-.80481-.43451-1.30707-.66687-.81165-.37543-1.79388-.77673-2.99371-1.21106l-7.8545-2.8418c-.72723-.26312-1.39447-.48828-2.00811-.67968a16.01468,16.01468,0,0,0-3.349-.75385,4.57153,4.57153,0,0,0-.4925-.01275q-1.68017.063-2.09277,1.20117a2.063,2.063,0,0,0,.84668,2.292,4.87305,4.87305,0,0,0,.43823.34131,19.388,19.388,0,0,0,3.98969,1.93066q.46536.17871.97345.3628l7.85449,2.84179a24.71616,24.71616,0,0,0,5.2273,1.39569,5.20152,5.20152,0,0,0,.64868.03107A2.04478,2.04478,0,0,0,455.835,360.15325Z"/><path class="cls-3" d="M186.92566,439.53466a34.0548,34.0548,0,0,0-2.21466-3.10895l-5.14844-6.57812c-.09009-.11511-.17444-.21814-.26245-.32892q-1.12362-1.41412-2.02246-2.36035a9.39342,9.39342,0,0,0-1.90552-1.63983,2.03421,2.03421,0,0,0-2.41015-.09278,2.06074,2.06074,0,0,0-.499,2.39161,10.02278,10.02278,0,0,0,1.26508,2.45843c.50116.76953,1.13287,1.64526,1.91266,2.64117l.94421,1.20643,4.20422,5.3717a19.39861,19.39861,0,0,0,4.22364,4.32715,2.0422,2.0422,0,0,0,2.44433.06543,1.49018,1.49018,0,0,0,.47229-.62543,3.7626,3.7626,0,0,0-.56994-2.96149C187.23889,440.06585,187.09344,439.80975,186.92566,439.53466Z"/><path class="cls-3" d="M205.35309,393.57024a19.36149,19.36149,0,0,0-1.44629,5.8711,2.04354,2.04354,0,0,0,1.2334,2.11035,1.52215,1.52215,0,0,0,1.20929-.07086,4.62132,4.62132,0,0,0,1.78582-1.9057,26.77669,26.77669,0,0,0,1.89454-4.29395l2.86914-7.84472q.38993-1.06576.675-1.96723a20.77838,20.77838,0,0,0,.665-2.5697,6.52558,6.52558,0,0,0,.12574-1.3078q-.05714-1.68163-1.19239-2.09668a2.06447,2.06447,0,0,0-2.29589.83887,7.67466,7.67466,0,0,0-.98383,1.49487,31.54035,31.54035,0,0,0-1.67047,3.89673Z"/><path class="cls-3" d="M162.36237,348.22649a32.419,32.419,0,0,0,1.47638-3.9682,7.69962,7.69962,0,0,0,.32684-1.78082,3.83565,3.83565,0,0,0-.04682-.68866,1.76224,1.76224,0,0,0-1.023-1.47345,1.99727,1.99727,0,0,0-2.2193.606c-.04022.03687-.07965.05841-.12005.09808A18.38341,18.38341,0,0,0,157.793,346.247l-3.32031,7.665a19.40642,19.40642,0,0,0-1.78614,5.77735,2.044,2.044,0,0,0,1.11036,2.17871q1.45313.62988,3.105-1.79981c.02386-.035.05053-.08331.0747-.11987a27.70917,27.70917,0,0,0,2.06543-4.05689Z"/><path class="cls-3" d="M239.8526,353.57122a26.86972,26.86972,0,0,0-3.87109-2.65332l-5.4159-3.21686-1.76574-1.04876a25.83768,25.83768,0,0,0-4.59272-2.29114,5.56232,5.56232,0,0,0-.88189-.22742,2.03865,2.03865,0,0,0-2.28028.78711,2.06245,2.06245,0,0,0,.40137,2.41016,4.50968,4.50968,0,0,0,.29822.3507,13.43572,13.43572,0,0,0,2.11316,1.7259q1.01605.70348,2.39917,1.52594l7.18164,4.26562c.59558.34735,1.14776.6554,1.66467.93158a14.0131,14.0131,0,0,0,3.83826,1.57233,2.04491,2.04491,0,0,0,2.30273-.82422c.39856-.67078.24524-1.449-.45276-2.33331A7.63552,7.63552,0,0,0,239.8526,353.57122Z"/><path class="cls-4" d="M163.504,339.329a6.73378,6.73378,0,0,0-5.99512.50586q-4.09717,2.12256-6.69336,8.11524a33.97514,33.97514,0,0,0-1.20166,3.668,12.94642,12.94642,0,0,0-.36572,4.24414,11.33107,11.33107,0,0,0,1.12939,4.19336,5.77534,5.77534,0,0,0,2.98438,2.72851,6.0734,6.0734,0,0,0,2.35943.50775,7.68167,7.68167,0,0,0,3.86127-1.08978q3.91918-2.2002,6.47168-8.0957a15.98869,15.98869,0,0,0,1.40387-9.156c-.00537-.03076-.00714-.06238-.01276-.09308Q166.66974,340.70013,163.504,339.329Zm-6.60205,20.73926q-1.65235,2.43018-3.105,1.79981a2.044,2.044,0,0,1-1.11036-2.17871,19.40642,19.40642,0,0,1,1.78614-5.77735l3.32031-7.665a18.38341,18.38341,0,0,1,2.96338-5.22754c.0404-.03967.07983-.06121.12005-.09808a1.99727,1.99727,0,0,1,2.2193-.606,1.76224,1.76224,0,0,1,1.023,1.47345,3.83565,3.83565,0,0,1,.04682.68866,7.69962,7.69962,0,0,1-.32684,1.78082,32.419,32.419,0,0,1-1.47638,3.9682l-3.32032,7.665a27.70917,27.70917,0,0,1-2.06543,4.05689C156.95245,359.985,156.92578,360.03332,156.90192,360.06829Z"/><path class="cls-5" d="M49.07037,220.4306l-.81152.32226a1.7098,1.7098,0,0,0-.873,1.19531,2.43841,2.43841,0,0,0,.28125,1.72266,3.16888,3.16888,0,0,0,1.49024,1.45117,2.342,2.342,0,0,0,2.14453-.19726,2.85312,2.85312,0,0,0,1.37891-1.86817,4.09933,4.09933,0,0,0-.53125-3.03613,4.65311,4.65311,0,0,0-3.20118-2.69922,25.72185,25.72185,0,0,0-6.62011.1582l-16.6875,2.17383a3.95493,3.95493,0,0,1-1.99952-.08593,2.414,2.414,0,0,1-.959-.9209l-.835.44238,2.80371,5.2832.835-.44238a4.81592,4.81592,0,0,1-.55029-1.55273q-.06227-.59034.67138-.9795a2.7459,2.7459,0,0,1,.73291-.24609q.4424-.09375,1.04395-.19434l7.35059-.958.09179.17382-5.38965,6.42383q-.4204.48341-.59277.65235a1.42624,1.42624,0,0,1-.293.23242.79691.79691,0,0,1-1.00976-.13184,5.319,5.319,0,0,1-.898-1.23926l-.835.44336,4.6289,8.72266.835-.44238a2.03587,2.03587,0,0,1-.2163-1.15137,5.1248,5.1248,0,0,1,.76171-1.36621q.66138-.939,1.395-1.86524.73463-.92284,1.59131-1.94628l8.021-9.5586a31.24785,31.24785,0,0,1,4.18847-.40332q1.83546.03077,2.31836.94043a.68186.68186,0,0,1,.05323.55274A.66269.66269,0,0,1,49.07037,220.4306Z"/><path class="cls-5" d="M10.77838,168.78411a2.39724,2.39724,0,0,0,1.94092-.80469,2.91157,2.91157,0,0,0,.668-1.9414,2.64395,2.64395,0,0,0-.61231-1.72363,2.10133,2.10133,0,0,0-1.72851-.73829,2.14826,2.14826,0,0,0-.83887.166,2.86638,2.86638,0,0,0-.72217.43555l-.269.23242a1.5406,1.5406,0,0,1-.32764.23242.86391.86391,0,0,1-.38525.07813,1.14853,1.14853,0,0,1-.99512-.68165,3.45266,3.45266,0,0,1-.40039-1.74414,3.40109,3.40109,0,0,1,.83154-2.63671,3.84036,3.84036,0,0,1,2.59229-.749l2.874-.00781a34.99435,34.99435,0,0,0,3.17188,8.03516,4.76983,4.76983,0,0,0,4.23877,2.55371,3.72705,3.72705,0,0,0,3.21289-1.418,5.02323,5.02323,0,0,0,1.02539-3.03125,7.66827,7.66827,0,0,0-.43262-2.46778,9.25535,9.25535,0,0,0-2.3291-3.69726,3.88535,3.88535,0,0,0,1.71777-.67969,3.07665,3.07665,0,0,0,1.01758-2.56933,5.10144,5.10144,0,0,0-.35254-1.87012,6.42,6.42,0,0,0-1.89746-2.55957l-.82764.60058a2.59063,2.59063,0,0,1,.47413.56739.95141.95141,0,0,1,.08789.415.61758.61758,0,0,1-.29737.49218,1.18178,1.18178,0,0,1-.72314.22461l-9.56738.02637q-3.51123.01026-4.81641,2.251a11.16051,11.16051,0,0,0-1.27686,5.61621,9.81679,9.81679,0,0,0,1.34278,5.26367A4.06091,4.06091,0,0,0,10.77838,168.78411Zm9.78027-9.8457a7.74532,7.74532,0,0,1,1.08594,1.09668,3.06906,3.06906,0,0,1,.585,1.793,1.73019,1.73019,0,0,1-.66308,1.32226,2.87907,2.87907,0,0,1-1.96192.59473,4.23685,4.23685,0,0,1-3.60254-2.01563,8.24494,8.24494,0,0,1-1.22607-2.77441Z"/><polygon class="cls-5" points="10.787 135.452 14.288 136.399 16.212 129.282 23.33 131.207 24.263 127.756 17.146 125.831 19.07 118.714 15.57 117.768 13.646 124.885 6.578 122.974 5.645 126.425 12.712 128.336 10.787 135.452"/><path class="cls-5" d="M20.15192,95.91351a2.38151,2.38151,0,0,1,1.52832.83349l17.4541,16.4961.38476-.40723.50586-3.79395a9.704,9.704,0,0,0,2.74121-.542,6.08107,6.08107,0,0,0,2.37012-1.6084,8.65846,8.65846,0,0,0,2.50488-6.51171q-.145-3.70606-3.707-7.07227a10.07434,10.07434,0,0,0-6.05175-2.919,6.48161,6.48161,0,0,0-5.583,2.11524,6.21744,6.21744,0,0,0-1.54883,2.83594A9.17306,9.17306,0,0,0,30.55719,97.52L23.1275,90.498l-5.24707,5.55127.68653.64892A3.02328,3.02328,0,0,1,20.15192,95.91351Zm12.2998-.45362a2.874,2.874,0,0,1,3.62109-.57031,17.08233,17.08233,0,0,1,4.39942,3.13428,17.283,17.283,0,0,1,3.831,4.77539,2.93561,2.93561,0,0,1-.41015,3.5542,2.40233,2.40233,0,0,1-2.57227.7539,4.74534,4.74534,0,0,1-1.583-.91162L32.1861,99.059A2.81215,2.81215,0,0,1,31.734,97.582,2.48889,2.48889,0,0,1,32.45172,95.45989Z"/><path class="cls-5" d="M37.03033,79.71429a7.72485,7.72485,0,0,1,2.31543.09131l13.58887,2.36718,1.72656,10.85938a5.27692,5.27692,0,0,1-.16113,2.5293,10.45374,10.45374,0,0,1-1.07617,1.9541l.72851.68847,6.78321-7.17773-.72852-.68848a6.42822,6.42822,0,0,1-1.42676,1.17237q-1.22167.73022-1.97851.01513a5.67894,5.67894,0,0,1-.998-2.48242q-.23877-1.14551-.69433-4.1748l-.34668-2.37793,7.16894,1.249a6.69539,6.69539,0,0,1,1.34766.38477,2.55562,2.55562,0,0,1,.707.417,1.01081,1.01081,0,0,1,.13281,1.31982,12.75386,12.75386,0,0,1-1.4082,1.82764l.72851.68848,9.23536-9.77149-.7295-.68848a3.2855,3.2855,0,0,1-1.68164.73438,13.65351,13.65351,0,0,1-3.45019-.5293l-13.1084-2.28222Q52.41022,67.693,52.26959,65.5097a6.178,6.178,0,0,1,1.42774-4.23047l-.7295-.689L46.18365,67.769l.72852.689a8.5557,8.5557,0,0,1,1.49414-1.24316,1.17592,1.17592,0,0,1,1.50293.09375,3.49859,3.49859,0,0,1,.81152,1.66894q.30762,1.19238,1.15625,6.543l-6.73535-1.17285a6.45809,6.45809,0,0,1-.86621-.208,1.55878,1.55878,0,0,1-.5957-.35156.93636.93636,0,0,1-.29883-1.14453,11.40232,11.40232,0,0,1,1.51758-2.05567L44.17,69.89935l-9.39453,9.93994.72852.689A2.962,2.962,0,0,1,37.03033,79.71429Z"/><polygon class="cls-5" points="67.764 57.017 71.39 57.033 71.422 49.66 78.795 49.692 78.811 46.118 71.438 46.085 71.47 38.713 67.844 38.697 67.812 46.069 60.49 46.038 60.475 49.612 67.796 49.644 67.764 57.017"/><path class="cls-5" d="M70.85944,24.25042q5.02881.21606,7.44726-2.55908a9.71013,9.71013,0,0,0,2.5586-6.06348,10.25126,10.25126,0,0,0-.57813-4.08252,11.37812,11.37812,0,0,0-3.97559-4.97021l-.60253.998a13.12072,13.12072,0,0,1,1.6621,2.18946,5.52625,5.52625,0,0,1,.74024,3.001,4.652,4.652,0,0,1-3.45606,4.4585,12.8682,12.8682,0,0,1-4.1416.69482L71.003,6.5429a11.46077,11.46077,0,0,0-1.56738.08545,9.91,9.91,0,0,0-3.59278.936,7.2804,7.2804,0,0,0-2.96093,2.86132A8.736,8.736,0,0,0,61.68268,14.519a9.38953,9.38953,0,0,0,2.23144,6.69482A9.12493,9.12493,0,0,0,70.85944,24.25042ZM62.91608,14.5722a2.212,2.212,0,0,1,1.48535-2.21,14.91442,14.91442,0,0,1,4.90234-.40186L69.045,17.96282a14.159,14.159,0,0,1-4.63183-.93164A2.37241,2.37241,0,0,1,62.91608,14.5722Z"/><path class="cls-4" d="M186.18024,359.59368q-1.01953.38379-3.564-.71972l-.34668.7998,12.53125,5.42871.05451-.12579.29217-.674q-2.41552-1.04591-2.72021-1.95313a4.16552,4.16552,0,0,1,.48779-2.73535l6.98761-16.13013,1.26141-2.91186-.58691-.25391-10.0127-.0166-.36718.84863q1.08545.04395,1.69433.11426a4.94319,4.94319,0,0,1,1.377.2666,1.19166,1.19166,0,0,1,.82617.97852,2.252,2.252,0,0,1-.05408.60309,6.38074,6.38074,0,0,1-.42346,1.28265l-.2143.49463-5.36334,12.37939A3.98944,3.98944,0,0,1,186.18024,359.59368Z"/><path class="cls-4" d="M226.1026,341.18255q-4.22168.2417-5.98437,3.209a6.72785,6.72785,0,0,0-.25782,6.00977,13.65663,13.65663,0,0,0,4.77222,6.03229,24.81092,24.81092,0,0,0,2.428,1.63763,33.7839,33.7839,0,0,0,3.48633,1.65723,12.99583,12.99583,0,0,0,4.16308.90137c.36969.01556.73017.01385,1.08429.00048a10.79361,10.79361,0,0,0,3.21845-.58935,5.78391,5.78391,0,0,0,3.085-2.61426,6.09107,6.09107,0,0,0,.79388-2.18683,7.63176,7.63176,0,0,0-.583-4.05731,15.201,15.201,0,0,0-6.05334-6.718c-.37183-.24609-.75232-.49017-1.15466-.72925A15.94027,15.94027,0,0,0,226.1026,341.18255Zm15.1416,15.69629a2.04491,2.04491,0,0,1-2.30273.82422,14.0131,14.0131,0,0,1-3.83826-1.57233c-.51691-.27618-1.06909-.58423-1.66467-.93158l-7.18164-4.26562q-1.38584-.82334-2.39917-1.52594a13.43572,13.43572,0,0,1-2.11316-1.7259,4.50968,4.50968,0,0,1-.29822-.3507,2.06245,2.06245,0,0,1-.40137-2.41016,2.03865,2.03865,0,0,1,2.28028-.78711,5.56232,5.56232,0,0,1,.88189.22742,25.83768,25.83768,0,0,1,4.59272,2.29114l1.76574,1.04876,5.4159,3.21686a26.86972,26.86972,0,0,1,3.87109,2.65332,7.63552,7.63552,0,0,1,.93884.97431C241.48944,355.4298,241.64276,356.20806,241.2442,356.87884Z"/><path class="cls-4" d="M276.42438,339.76263l-8.457,5.35937.14453.91407q.94043-.54639,1.49218-.81348a4.95,4.95,0,0,1,1.30469-.51367,1.3609,1.3609,0,0,1,.93317.13476,1.00175,1.00175,0,0,1,.28851.24707,4.288,4.288,0,0,1,.6084,1.84766l.18652,1.17309,1.95673,12.30768.05988.37665a3.99579,3.99579,0,0,1-.32129,2.959,2.66551,2.66551,0,0,1-1.20649.77087,11.38738,11.38738,0,0,1-2.188.53381l.13671.86035,13.48829-2.14355-.13672-.86133a10.47665,10.47665,0,0,1-2.11322.15991,2.15139,2.15139,0,0,1-1.23053-.34839,4.171,4.171,0,0,1-1.05567-2.56933l-2.97961-18.7439-.2782-1.75024Z"/><path class="cls-4" d="M335.25983,344.332q2.49022-.85546,3.32617-.3916a4.15519,4.15519,0,0,1,1.48437,2.34766l6.749,19.625.60547-.208,7.40332-6.74023-.30079-.874q-.83057.7002-1.32812,1.0586a4.93672,4.93672,0,0,1-1.19629.73047,1.24147,1.24147,0,0,1-1.11883-.06354,1.01991,1.01991,0,0,1-.1507-.1015,4.3,4.3,0,0,1-.91895-1.71485l-4.5625-13.26758a3.99025,3.99025,0,0,1-.19433-2.9707q.49512-.96972,3.11719-1.87012l-.28321-.82421-8.82513,3.03424-4.08991,1.40618Z"/><path class="cls-4" d="M318.66119,339.32806a6.73369,6.73369,0,0,0-5.99511.50586q-4.09717,2.12256-6.69336,8.11523a33.951,33.951,0,0,0-1.20117,3.668,12.93435,12.93435,0,0,0-.36622,4.24414,11.3219,11.3219,0,0,0,1.12989,4.19336,5.77348,5.77348,0,0,0,2.98437,2.72852,6.07187,6.07187,0,0,0,3.49762.41247,8.45288,8.45288,0,0,0,2.72309-.99451q3.91845-2.20019,6.47168-8.0957a16.28005,16.28005,0,0,0,1.47033-8.66913c-.02594-.19348-.04486-.38867-.07971-.57989Q321.8277,340.69914,318.66119,339.32806Zm-9.707,22.53906a1.74734,1.74734,0,0,1-1.01794-1.2879,3.3556,3.3556,0,0,1-.09241-.89081,19.40659,19.40659,0,0,1,1.78613-5.77734l3.32032-7.665a18.3809,18.3809,0,0,1,2.96386-5.22754c.01447-.01422.02857-.02137.043-.03522a2.03678,2.03678,0,0,1,2.29584-.66888,1.84523,1.84523,0,0,1,1.038,1.6878,3.827,3.827,0,0,1,.03228.4743,9.24871,9.24871,0,0,1-.51159,2.39692c-.29944.93536-.72754,2.0495-1.29212,3.35211l-3.32031,7.665a26.85671,26.85671,0,0,1-2.13965,4.17676c-.16186.23809-.32184.44714-.48083.64117A2.886,2.886,0,0,1,309.616,361.988,1.49877,1.49877,0,0,1,308.95416,361.86712Z"/><path class="cls-4" d="M370.95319,343.39349a6.72887,6.72887,0,0,0-2.82227,5.31347q-.43359,4.59375,3.19922,10.02149a33.78471,33.78471,0,0,0,2.43262,2.99707,12.93691,12.93691,0,0,0,3.37109,2.60547,11.32285,11.32285,0,0,0,4.13574,1.32129,5.78354,5.78354,0,0,0,3.91016-1.03223,6.116,6.116,0,0,0,2.41321-3.15228,8.84474,8.84474,0,0,0,.46472-2.39264q.27246-4.48536-3.30078-9.82422a17.80044,17.80044,0,0,0-4.65784-4.87677,12.91628,12.91628,0,0,0-2.36462-1.301Q373.8189,341.47357,370.95319,343.39349Zm.60742.877a2.01869,2.01869,0,0,1,2.3612.252c.01215.00806.02308.01123.03528.01947a13.043,13.043,0,0,1,2.67023,2.92969q.55893.76135,1.18719,1.69922l4.64551,6.94141a26.87684,26.87684,0,0,1,2.35352,4.06152c.11987.28265.21234.54492.29187.79767.42785,1.35925.2796,2.29156-.45984,2.78729a2.04525,2.04525,0,0,1-2.43359-.24707,19.41959,19.41959,0,0,1-3.89063-4.62988l-4.64551-6.94141a22.72527,22.72527,0,0,1-2.63263-4.76721,4.88484,4.88484,0,0,1-.15741-.555A2.05988,2.05988,0,0,1,371.56061,344.27044Z"/><path class="cls-4" d="M411.29889,340.63372a1.18985,1.18985,0,0,1,.77734,1.01758,4.28647,4.28647,0,0,1-.56836,1.86035l-6.20019,12.58692a3.99229,3.99229,0,0,1-1.9707,2.23046q-1.03711.33106-3.52442-.89453l-.10846.22-.27728.56226,12.25195,6.03516.38574-.78223a6.92212,6.92212,0,0,1-2.39105-1.6521,1.34463,1.34463,0,0,1-.232-.43189,1.978,1.978,0,0,1-.03351-.69647,5.94968,5.94968,0,0,1,.65558-2.01056l9.16894-18.61718-.57519-.28321-9.999-.5039-.4082.8291c.70374.06286,1.25256.12658,1.65442.19134l.03308.005A4.97511,4.97511,0,0,1,411.29889,340.63372Z"/><path class="cls-4" d="M447.33307,348.39642a15.93443,15.93443,0,0,0-9.31641-.81739q-4.10156,1.0298-5.27539,4.27442a6.72885,6.72885,0,0,0,.874,5.95215c1.5144,2.53,4.19744,4.52191,8.02105,5.988.16577.06354.32056.13214.49066.19367a33.7864,33.7864,0,0,0,3.73633.97265,12.94336,12.94336,0,0,0,4.25781.10352,11.32072,11.32072,0,0,0,4.11622-1.38477,5.5427,5.5427,0,0,0,1.20684-.981,6.1131,6.1131,0,0,0,1.33222-2.16547,6.73861,6.73861,0,0,0-.96485-6.17383Q453.37555,350.582,447.33307,348.39642Zm6.39551,12.999a5.20152,5.20152,0,0,1-.64868-.03107,24.71616,24.71616,0,0,1-5.2273-1.39569l-7.85449-2.84179q-.50886-.18412-.97345-.3628a19.388,19.388,0,0,1-3.98969-1.93066,4.87305,4.87305,0,0,1-.43823-.34131,2.063,2.063,0,0,1-.84668-2.292q.41163-1.13672,2.09277-1.20117a4.57153,4.57153,0,0,1,.4925.01275,16.01468,16.01468,0,0,1,3.349.75385c.61364.1914,1.28088.41656,2.00811.67968l7.8545,2.8418c1.19983.43433,2.18206.83563,2.99371,1.21106.50226.23236.95392.457,1.30707.66687q2.52686,1.5,1.9873,2.98828A2.04478,2.04478,0,0,1,453.72858,361.39544Z"/><path class="cls-4" d="M164.18073,386.579a2.46706,2.46706,0,0,1,1.01721.72284,7.59028,7.59028,0,0,1,.92712,1.26154l1.6991,2.81726,9.01867,14.95422.54688-.332,5.82617-8.14258-.47851-.793c-.17872.23016-.33344.42285-.4845.60968-.22449.27764-.42859.52319-.59265.70477a4.9676,4.9676,0,0,1-1.01563.96582,1.189,1.189,0,0,1-1.27636.10449,4.28828,4.28828,0,0,1-1.25782-1.48242l-1.672-2.77258-4.39435-7.28681-1.17975-1.95624a5.41,5.41,0,0,1-.84607-2.16729,1.9838,1.9838,0,0,1,.03259-.696q.2798-1.05176,2.65528-2.4834l-.4502-.74707L160.56061,386.914l.45019.74708Q163.2652,386.30023,164.18073,386.579Z"/><path class="cls-4" d="M200.57806,397.36608a10.58155,10.58155,0,0,0,1.04358,2.57526,5.77907,5.77907,0,0,0,3.13867,2.55078,6.73766,6.73766,0,0,0,6.17579-.94336q3.78369-2.42432,5.99121-8.457a19.89988,19.89988,0,0,0,1.0683-4.26422,13.72868,13.72868,0,0,0-.21772-5.05023q-1.01513-4.1045-4.25586-5.29a6.73147,6.73147,0,0,0-5.95605.85351q-3.9668,2.35693-6.21,8.49024a33.72773,33.72773,0,0,0-.98633,3.73242,12.91207,12.91207,0,0,0-.11914,4.25781A13.10817,13.10817,0,0,0,200.57806,397.36608Zm10.29847-17.03216a2.06447,2.06447,0,0,1,2.29589-.83887q1.13379.416,1.19239,2.09668a6.52558,6.52558,0,0,1-.12574,1.3078,20.77838,20.77838,0,0,1-.665,2.5697q-.28629.90317-.675,1.96723l-2.86914,7.84472a26.77669,26.77669,0,0,1-1.89454,4.29395,4.62132,4.62132,0,0,1-1.78582,1.9057,1.52215,1.52215,0,0,1-1.20929.07086,2.04354,2.04354,0,0,1-1.2334-2.11035,19.36149,19.36149,0,0,1,1.44629-5.8711l2.86914-7.84472a31.54035,31.54035,0,0,1,1.67047-3.89673A7.67466,7.67466,0,0,1,210.87653,380.33392Z"/><path class="cls-4" d="M241.76233,392.10363a1.98333,1.98333,0,0,1-.59284.38458,1.86278,1.86278,0,0,1-.66741.092,8.1662,8.1662,0,0,1-2.89655-.81176l-.34668.7998L249.7901,397.997l.34668-.7998c-.10126-.04383-.19141-.087-.28711-.13043-1.42615-.64808-2.24274-1.25623-2.43311-1.8227a4.1656,4.1656,0,0,1,.4878-2.73535l7.21277-16.64984,1.03625-2.39215-.58691-.25391-10.0127-.0166-.36719.84863q1.08546.04395,1.69434.11426a4.943,4.943,0,0,1,1.37695.2666,1.19167,1.19167,0,0,1,.82618.97852,2.01634,2.01634,0,0,1-.02607.45465,5.9003,5.9003,0,0,1-.45147,1.43109l-.06281.145-5.51483,12.729A5.44191,5.44191,0,0,1,241.76233,392.10363Z"/><path class="cls-4" d="M287.91705,380.77532q-3.76025-1.93506-6.78418-.27441a6.72861,6.72861,0,0,0-3.27539,5.0459q-.83641,4.53954,2.30762,10.26269a34.0818,34.0818,0,0,0,2.16113,3.19922,12.96516,12.96516,0,0,0,3.12891,2.89063,11.33277,11.33277,0,0,0,4.00586,1.67773,5.77893,5.77893,0,0,0,3.98535-.68457,6.73947,6.73947,0,0,0,3.35352-5.27246c.02056-.1377.02471-.28058.03985-.42.31085-2.86023-.50287-6.07581-2.46857-9.65619-.32232-.587-.66314-1.13172-1.01293-1.6557A14.8892,14.8892,0,0,0,287.91705,380.77532Zm5.40485,20.96222a1.55232,1.55232,0,0,1-.33356.24872,1.74092,1.74092,0,0,1-.60064.19879,2.33684,2.33684,0,0,1-1.8017-.6568,19.00009,19.00009,0,0,1-3.39124-4.81744c-.0263-.04675-.051-.08832-.07751-.13568l-4.01953-7.32227c-.4267-.77722-.78766-1.48022-1.09735-2.12549a12.15369,12.15369,0,0,1-1.21613-3.41943c-.01251-.107-.00244-.19446-.00732-.29486a1.942,1.942,0,0,1,.88525-1.98541,1.84481,1.84481,0,0,1,1.97113.21576,3.83007,3.83007,0,0,1,.39215.26373,15.46937,15.46937,0,0,1,2.8598,3.92712c.18732.32422.37867.6623.57673,1.02307l4.01953,7.32227a30.67982,30.67982,0,0,1,1.803,3.74664c.06457.171.13659.351.18621.50434Q294.25235,400.84365,293.3219,401.73754Z"/><path class="cls-4" d="M325.14557,372.55364l-8.0957,5.88868.20312.90234q.90234-.60351,1.43555-.90625a4.974,4.974,0,0,1,1.26953-.5957,1.18908,1.18908,0,0,1,1.24414.30273,3.59459,3.59459,0,0,1,.61157,1.36224c.03925.142.07862.283.115.44342l.83264,3.69782,2.24939,9.98968a3.98752,3.98752,0,0,1-.13281,2.97364q-.59766.90966-3.30273,1.51855l.1914.85059,2.30683-.51972,9.28888-2.09277,1.72851-.38947-.19336-.8496a8.92823,8.92823,0,0,1-2.36011.27447,1.94632,1.94632,0,0,1-.98754-.24908,4.17612,4.17612,0,0,1-1.21875-2.4961L326.73553,376.697l-.965-4.28393Z"/><path class="cls-4" d="M360.04205,386.56634q-3.80567,2.61181-5.64355,8.8789a34.056,34.056,0,0,0-.74024,3.78809,12.968,12.968,0,0,0,.16016,4.25684,11.32561,11.32561,0,0,0,1.6377,4.02246,5.55821,5.55821,0,0,0,2.15881,1.88318,6.47658,6.47658,0,0,0,7.2406-.88807q3.61816-2.666,5.4248-8.83105a17.00577,17.00577,0,0,0,.61713-7.74945,12.65035,12.65035,0,0,0-.37591-1.60016q-1.28175-4.02978-4.59278-5.001A6.7296,6.7296,0,0,0,360.04205,386.56634Zm6.93067,1.80273a5.12786,5.12786,0,0,1,.00921.6872,14.15455,14.15455,0,0,1-.33807,2.33691c-.18073.84009-.43018,1.80567-.7522,2.90363l-2.35058,8.01562a26.99141,26.99141,0,0,1-1.6084,4.40821,6.72049,6.72049,0,0,1-.94013,1.423,1.82731,1.82731,0,0,1-1.92022.74591,2.04534,2.04534,0,0,1-1.37012-2.02539,19.38815,19.38815,0,0,1,1.06055-5.95312l2.35058-8.01563a31.52312,31.52312,0,0,1,1.40906-3.992,7.65336,7.65336,0,0,1,.88782-1.56171,2.06237,2.06237,0,0,1,2.23535-.98633Q366.80426,386.69524,366.97272,388.36907Z"/><path class="cls-4" d="M379.67682,378.56536l.50586.71q2.14454-1.5249,3.07812-1.31738a3.07168,3.07168,0,0,1,1.486,1.06946,9.33585,9.33585,0,0,1,.60192.76257l.42432.5965,11.605,16.31366.52344-.37207.65552-1.08057,2.43536-4.01477,2.1015-3.46423-.53613-.75391q-.59913.90528-.97461,1.39063a4.99938,4.99938,0,0,1-.94043,1.041,1.48373,1.48373,0,0,1-.73322.29273.99778.99778,0,0,1-.53143-.09156,4.29472,4.29472,0,0,1-1.36719-1.38476L389.878,376.83a8.06353,8.06353,0,0,1-.60889-1.0022,2.90888,2.90888,0,0,1-.41845-1.79174q.20069-1.0708,2.46-2.67774l-.50586-.71Z"/><path class="cls-4" d="M437.52057,387.16888q-1.28174-4.02979-4.59277-5.001a6.73024,6.73024,0,0,0-5.88672,1.24121q-3.80567,2.61036-5.64356,8.87793a34.14336,34.14336,0,0,0-.74023,3.78809,14.625,14.625,0,0,0-.09229,2.04352,11.78719,11.78719,0,0,0,.25244,2.21331,11.32582,11.32582,0,0,0,1.6377,4.02246,5.77614,5.77614,0,0,0,3.29785,2.33985,6.73436,6.73436,0,0,0,6.10156-1.34473q3.61816-2.666,5.42481-8.83105a20.58347,20.58347,0,0,0,.747-3.72364A13.97257,13.97257,0,0,0,437.52057,387.16888Zm-4.308,2.82342c-.0987.36646-.20435.74549-.3219,1.1463l-2.35059,8.01563a27.04332,27.04332,0,0,1-1.6084,4.40918,8.29882,8.29882,0,0,1-.507.85651c-.74518,1.10778-1.52954,1.553-2.35333,1.31146a2.04355,2.04355,0,0,1-1.37012-2.02539,12.984,12.984,0,0,1,.478-3.71491c.15778-.67694.34894-1.41736.58258-2.23822l1.11224-3.79278,1.23835-4.22284a32.83261,32.83261,0,0,1,1.32745-3.80579,8.15693,8.15693,0,0,1,.96942-1.74792,2.06237,2.06237,0,0,1,2.23535-.98633q1.15869.33984,1.32715,2.01367a6.73433,6.73433,0,0,1-.05078,1.41077A24.87057,24.87057,0,0,1,433.21259,389.9923Z"/><path class="cls-4" d="M179.02936,423.77239q-4.02246-1.30224-6.74024.82422a6.73027,6.73027,0,0,0-2.417,5.50781q-.09228,4.61427,3.9336,9.75684c.18829.21747.36163.4118.53729.60974a29.71978,29.71978,0,0,0,2.11114,2.19788,12.94147,12.94147,0,0,0,3.55469,2.34765,11.33385,11.33385,0,0,0,4.22363,1.01075,5.78255,5.78255,0,0,0,3.82227-1.31934,6.73951,6.73951,0,0,0,2.459-5.74414,13.10538,13.10538,0,0,0-1.57959-5.79315,23.594,23.594,0,0,0-2.44287-3.75958A15.93861,15.93861,0,0,0,179.02936,423.77239Zm8.9,19.48981a1.49018,1.49018,0,0,1-.47229.62543,2.0422,2.0422,0,0,1-2.44433-.06543,19.39861,19.39861,0,0,1-4.22364-4.32715l-4.20422-5.3717-.94421-1.20643c-.77979-.99591-1.4115-1.87164-1.91266-2.64117a10.02278,10.02278,0,0,1-1.26508-2.45843,2.06074,2.06074,0,0,1,.499-2.39161,2.03421,2.03421,0,0,1,2.41015.09278,9.39342,9.39342,0,0,1,1.90552,1.63983q.89768.94381,2.02246,2.36035c.088.11078.17236.21381.26245.32892l5.14844,6.57812a34.0548,34.0548,0,0,1,2.21466,3.10895c.16778.27509.31323.53119.43378.76605A3.7626,3.7626,0,0,1,187.92938,443.2622Z"/><path class="cls-4" d="M213.32233,417.51263l-8.752,4.86133.0918.91992q.96972-.48926,1.53516-.72461a4.93944,4.93944,0,0,1,1.332-.4375,1.189,1.189,0,0,1,1.19824.45117,3.13277,3.13277,0,0,1,.39453,1.14044c.0423.22412.07984.46472.10742.73944l.09662.96472,1.30182,12.99622a3.99681,3.99681,0,0,1-.49219,2.93652q-.70312.82911-3.46386,1.10547l.08691.86719,2.61218-.26166,10.82306-1.08429.15363-.01538-.08692-.86719c-.30426.03046-.582.04834-.84759.06049a3.69384,3.69384,0,0,1-2.47858-.44232,4.154,4.154,0,0,1-.90625-2.626l-1.30286-13.00024-.76647-7.6482Z"/><path class="cls-4" d="M237.9093,435.95947a23.80762,23.80762,0,0,0,2.76166,2.2387,33.98458,33.98458,0,0,0,3.35644,1.90723,12.92819,12.92819,0,0,0,4.08692,1.2002,11.31976,11.31976,0,0,0,4.335-.27344,5.77857,5.77857,0,0,0,3.26562-2.38281,6.736,6.736,0,0,0,.665-6.21289,13.95639,13.95639,0,0,0-4.15911-5.983,25.40925,25.40925,0,0,0-2.4903-1.9682,15.92682,15.92682,0,0,0-8.78809-3.19921q-4.229-.06445-6.20117,2.76464a6.735,6.735,0,0,0-.69433,5.97754A13.28558,13.28558,0,0,0,237.9093,435.95947ZM235.627,424.64739a2.03586,2.03586,0,0,1,2.33106-.61914,7.10446,7.10446,0,0,1,1.49328.57617l.00068.00031a31.04671,31.04671,0,0,1,3.78241,2.33173l3.004,2.09393,3.84955,2.68341a26.87912,26.87912,0,0,1,3.66895,2.92578,6.68949,6.68949,0,0,1,1.06237,1.36322,1.81431,1.81431,0,0,1,.08411,2.03717,2.04283,2.04283,0,0,1-2.35547.65527,14.51871,14.51871,0,0,1-3.85876-1.94c-.45514-.29-.93347-.60443-1.44885-.95746l-6.85352-4.77539q-1.34949-.94125-2.32361-1.72967a14.55724,14.55724,0,0,1-1.747-1.62134,5.34159,5.34159,0,0,1-.4646-.59137A2.06039,2.06039,0,0,1,235.627,424.64739Z"/><path class="cls-4" d="M290.03326,427.081l-11.7207-7.00977-.44726.74805q2.25878,1.35058,2.44335,2.29a3.43111,3.43111,0,0,1-.52,2.05847c-.02808.05493-.06128.11316-.09162.16949-.07507.13953-.13812.27137-.22674.4195l-10.65186,17.81055.54981.3291,2.20745.2926,7.15119.94781h.00018l.566.075.47461-.793q-1.06933-.186-1.665-.334a7.9122,7.9122,0,0,1-.88354-.24743H277.219a2.59542,2.59542,0,0,1-.446-.19593,1.18667,1.18667,0,0,1-.69238-1.07617,4.28234,4.28234,0,0,1,.71826-1.80859l7.20117-12.042a7.84572,7.84572,0,0,1,.72174-1.01538,2.84652,2.84652,0,0,1,1.42475-1.04712q1.06055-.24756,3.43945,1.17675Z"/><path class="cls-4" d="M296.86432,438.61126a34.27367,34.27367,0,0,0-1.28125,3.6416,12.95339,12.95339,0,0,0-.45752,4.23438,11.32787,11.32787,0,0,0,1.03711,4.21679,5.77669,5.77669,0,0,0,2.9248,2.793,6.08226,6.08226,0,0,0,2.26776.55951,7.64792,7.64792,0,0,0,3.96418-1.0058q3.96533-2.11377,6.64648-7.95214a16.92091,16.92091,0,0,0,1.72974-7.694,12.61794,12.61794,0,0,0-.137-1.52276q-.68554-4.17335-3.82031-5.61328a6.73174,6.73174,0,0,0-6.0039.375Q299.59113,432.6767,296.86432,438.61126Zm10.08984-6.71289a2.06367,2.06367,0,0,1,2.35547-.65234,2.03736,2.03736,0,0,1,1.02246,2.18457c-.00262.05517-.01324.121-.01867.17993a10.77975,10.77975,0,0,1-.64185,2.47577c-.313.87243-.731,1.88409-1.26819,3.05328l-3.4873,7.58984a26.7823,26.7823,0,0,1-2.23047,4.12989,8.48084,8.48084,0,0,1-.58332.72741c-.91387,1.0257-1.76745,1.368-2.56073,1.004a2.0447,2.0447,0,0,1-1.06152-2.20312,19.38974,19.38974,0,0,1,1.91065-5.73633l3.4873-7.59082a26.01308,26.01308,0,0,1,2.42615-4.4115A5.71587,5.71587,0,0,1,306.95416,431.89837Z"/><path class="cls-4" d="M347.59479,445.98333q-2.09473,1.59375-3.03516,1.416a4.16233,4.16233,0,0,1-2.14551-1.76563l-6.2912-8.27295-2.8504-3.74835-3.41992-4.49725-.50977.38769-4.918,8.72071.56054.73632q.56984-.92577.92969-1.42187a4.94691,4.94691,0,0,1,.90625-1.06836,1.18865,1.18865,0,0,1,1.25781-.24219,3.77437,3.77437,0,0,1,1.1897,1.06806c.07318.08947.14441.17175.22046.27179l1.07379,1.4121,6.223,8.18354,1.19635,1.5733a3.99569,3.99569,0,0,1,1.11524,2.75977,3.36677,3.36677,0,0,1-1.09894,1.66943,13.57948,13.57948,0,0,1-1.27509,1.08545l.52735.69336.42517-.32331,7.68915-5.847,2.75677-2.09631Z"/><path class="cls-4" d="M357.43213,445.05206c.03833.17157.06988.34686.11578.51428a11.33926,11.33926,0,0,0,1.85157,3.92773,5.78262,5.78262,0,0,0,3.41894,2.15918,6.733,6.733,0,0,0,6.02051-1.6709q3.4702-2.855,4.94336-9.10937a18.111,18.111,0,0,0,.44665-6.38922,12.99506,12.99506,0,0,0-.70837-2.95941q-1.49708-3.95508-4.85449-4.74707a6.73073,6.73073,0,0,0-5.8125,1.55566q-3.66065,2.811-5.15723,9.168a33.987,33.987,0,0,0-.53613,3.82324A13.28006,13.28006,0,0,0,357.43213,445.05206Zm8.82672-16.12635a2.06093,2.06093,0,0,1,2.17871-1.10547q1.17627.27687,1.43457,1.93946a5.3807,5.3807,0,0,1,.04651.80243,18.18451,18.18451,0,0,1-.3894,3.23156q-.17212.894-.41883,1.94355l-1.917,8.12988a26.912,26.912,0,0,1-1.36816,4.48926,6.98165,6.98165,0,0,1-.78656,1.37073,1.88324,1.88324,0,0,1-1.9527.94763q-1.229-.29-1.47656-1.94922a19.37544,19.37544,0,0,1,.73828-6.001l1.917-8.12988a29.24835,29.24835,0,0,1,1.31573-4.36823A6.89813,6.89813,0,0,1,366.25885,428.92571Z"/><path class="cls-4" d="M406.24323,447.39935a4.1574,4.1574,0,0,1-2.14454-1.76563l-3.33923-4.39081-6.16443-8.10565-3.05884-4.02209-.50976.38769-4.918,8.72071.56055.73632q.57129-.92577.92968-1.42187a4.97526,4.97526,0,0,1,.90625-1.06836,1.18867,1.18867,0,0,1,1.25782-.24219,4.28777,4.28777,0,0,1,1.41015,1.33985l.24195.31811,2.36316,3.10736,5.889,7.74347c.0268.03534.04322.06622.0691.10114a3.89721,3.89721,0,0,1,1.04614,2.65863,1.75429,1.75429,0,0,1-.20209.55651,7.92468,7.92468,0,0,1-2.17291,2.19837l.52734.69336,1.79639-1.366,6.668-5.07056,2.40668-1.83007-.52735-.69434Q407.18366,447.57708,406.24323,447.39935Z"/><path class="cls-4" d="M413.87036,435.1159a22.2881,22.2881,0,0,0,4.17169,2.24731,34.34914,34.34914,0,0,0,3.68457,1.15332,12.97463,12.97463,0,0,0,4.248.3086,11.33353,11.33353,0,0,0,4.17871-1.18555,5.71571,5.71571,0,0,0,2.56262-2.77637c.03913-.08459.08832-.15753.12488-.24511a6.73442,6.73442,0,0,0-.666-6.21192q-2.25147-3.88916-8.18067-6.36328a15.92933,15.92933,0,0,0-9.2666-1.2666q-4.14551.83057-5.47461,4.01465a6.72758,6.72758,0,0,0,.58594,5.9873A12.59793,12.59793,0,0,0,413.87036,435.1159Zm-3.62616-9.93042a2.03672,2.03672,0,0,1,2.14746-1.09766,5.92293,5.92293,0,0,1,1.06958.13251,27.095,27.095,0,0,1,4.70386,1.59308l7.708,3.21875a26.84283,26.84283,0,0,1,4.20508,2.083q2.45068,1.62011,1.84082,3.08007a1.96553,1.96553,0,0,1-1.95728,1.12311c-.07172.00244-.13049.0177-.20581.01654a19.40123,19.40123,0,0,1-5.80078-1.709l-7.709-3.2168c-.81878-.34186-1.53979-.66675-2.18457-.97839a15.47644,15.47644,0,0,1-2.62963-1.52863,4.96421,4.96421,0,0,1-.4524-.38556A2.063,2.063,0,0,1,410.2442,425.18548Z"/><rect class="cls-5" x="19.00508" y="184.42012" width="3.7308" height="18.86239" transform="translate(-50.59163 12.44824) rotate(-15.35659)"/><rect class="cls-5" x="26.49039" y="182.37179" width="3.6762" height="18.86286" transform="translate(-49.78053 14.34911) rotate(-15.3558)"/></svg>