<svg id="Layer_1" data-name="Layer 1" xmlns="http://www.w3.org/2000/svg" viewBox="0 0 298 354"><title>TRAINS</title><path d="M194.833,28.9665c2.91784-10.04512,7.26588-18.31519,17.34635-21.63411,15.57127-5.12673,30.69847,4.92208,31.7989,21.88017.80346,12.38194.31264,24.85065.32282,37.28075.02785,34.00462-.05848,68.0095.04674,102.01382.06363,20.56612,5.752,27.0089,26.28837,30.46355,14.39775,2.422,23.70926,13.48553,22.28646,26.47987-1.51022,13.79316-13.06365,23.06519-27.82276,22.05616-21.10644-1.443-38.96668-9.91367-52.14863-26.50629-4.82275-6.07056-7.34007-5.97929-13.28784-1.37419-39.79639,30.81229-83.517,36.54613-128.48732,14.25679C26.19692,211.58929,3.78743,173.23059,4.43768,122.98064,5.60774,32.56145,106.61422-23.01219,185.04475,23.09387,188.09824,24.88889,191.12043,26.73721,194.833,28.9665Zm.619,97.94726c.1352-39.47168-31.14336-71.37361-70.29171-71.69261-39.6373-.323-72.19873,31.60009-72.44662,71.02635-.2464,39.19169,32.44835,71.90707,71.77723,71.82253A71.2841,71.2841,0,0,0,195.45207,126.91376Z"/><path d="M51.58667,294.24948v9.86231H34.92114v45.83984H23.2063V304.11179H6.46509v-9.86231Z"/><path d="M94.08521,295.685a13.75693,13.75693,0,0,1,5.21435,3.89258,17.32507,17.32507,0,0,1,2.80029,4.68554,15.6194,15.6194,0,0,1,1.03223,5.85743,16.69012,16.69012,0,0,1-2.00293,7.80371,11.19031,11.19031,0,0,1-6.61328,5.42285,10.40748,10.40748,0,0,1,5.46094,4.40234q1.60547,2.855,1.60595,8.71094v3.74121a28.15153,28.15153,0,0,0,.30713,5.17774,4.64731,4.64731,0,0,0,2.14942,3.17382v1.39844H91.19067q-.53026-1.85156-.75586-2.98535a27.35277,27.35277,0,0,1-.49121-4.79981l-.07568-5.17675q-.07178-5.32911-1.84131-7.1045t-6.63086-1.77636H70.02808v21.84277h-11.375V294.24948H85.29663A24.26008,24.26008,0,0,1,94.08521,295.685Zm-24.05713,8.23828v14.96484H82.55444a13.33128,13.33128,0,0,0,5.59864-.90722q3.30175-1.58643,3.30175-6.27246,0-5.064-3.19433-6.80274a11.55052,11.55052,0,0,0-5.3833-.98242Z"/><path d="M130.20874,294.24948h13.16992l19.70752,55.70215H150.46411l-3.67529-11.45019H126.27563l-3.77587,11.45019h-12.1753Zm-.76709,34.65332h14.26611l-7.03662-21.91894Z"/><path d="M180.79126,349.95163H169.22681V294.24948h11.56445Z"/><path d="M191.4856,294.24948h12.20214l22.11133,38.83985V294.24948h10.84571v55.70215H225.00806L202.3313,310.42819v39.52344H191.4856Z"/><path d="M255.95532,332.7573a11.2972,11.2972,0,0,0,2.12305,5.70605q2.89306,3.43946,9.916,3.43945a21.33731,21.33731,0,0,0,6.82911-.90722q4.97754-1.73877,4.97754-6.46192a4.76168,4.76168,0,0,0-2.4375-4.27051,26.46023,26.46023,0,0,0-7.73438-2.60742l-6.03027-1.32324q-8.89014-1.96436-12.21582-4.26953-5.63086-3.85546-5.63086-12.05566a16.00878,16.00878,0,0,1,5.50879-12.43262q5.50928-4.94971,16.18261-4.9502a24.81223,24.81223,0,0,1,15.20606,4.667q6.293,4.667,6.59961,13.54786H278.06274a7.9724,7.9724,0,0,0-4.49414-7.14258,15.39794,15.39794,0,0,0-6.93457-1.39844,13.2042,13.2042,0,0,0-7.36132,1.81348,5.73989,5.73989,0,0,0-2.75,5.06445,4.77731,4.77731,0,0,0,2.71191,4.459,33.69733,33.69733,0,0,0,7.40039,2.30567l9.77539,2.30469q6.42627,1.51171,9.63379,4.04394,4.98047,3.93018,4.98047,11.375a15.98075,15.98075,0,0,1-5.90137,12.67774q-5.90186,5.04492-16.67285,5.04492-10.99952,0-17.30273-4.96875T244.846,332.7573Z"/></svg>