<svg id="Layer_1" data-name="Layer 1" xmlns="http://www.w3.org/2000/svg" viewBox="0 0 800 549"><defs><style>.cls-1{fill:#35d086;}.cls-2{fill:#34d086;}</style></defs><title>Bolt</title><path class="cls-1" d="M398.38991,414.47522c-.82321-.9433-2.037-.67648-3.05688-.89362a35.78032,35.78032,0,0,1-28.4186-36.70911c.90494-18.61339,14.76629-32.84427,32.74838-34.36591a35.99818,35.99818,0,0,1,10.6512,71.08871c-.94473.19242-2.06.01048-2.81157.87993Z"/><path class="cls-2" d="M50.6028,160.42769q0-74.87717-.057-149.75423c-.00364-2.40635.55134-3.03084,3.00157-3.02492,36.20127.08748,72.40293.00207,108.60427.075,45.669.092,83.27869,31.38225,92.62824,74.14853,5.21742,23.86523,1.67168,46.6296-10.61309,67.87015-.91572,1.58332-.93313,2.41159.37316,3.7718,14.2652,14.85409,23.05629,32.48921,25.64153,52.91382,6.361,50.25516-25.8288,92.59686-69.77294,104.01779a91.52951,91.52951,0,0,1-23.20492,2.97961q-61.73427-.05315-123.46861-.02426c-3.59388-.00108-3.124.47032-3.12484-3.21906Q50.59371,235.30478,50.6028,160.42769Zm100.67378,81.00923c8.54677,0,17.09357.01584,25.64028-.00433A22.47417,22.47417,0,0,0,197.47464,227.155c5.75832-15.14283-5.16962-30.47214-21.91057-30.56549-16.85337-.094-33.70783.01144-50.56139-.06418-1.96954-.00883-2.36031.66591-2.35115,2.47408q.10184,20.11671-.00622,40.234c-.01075,1.81384.4911,2.26472,2.27254,2.24581C133.70325,241.38607,142.49019,241.4369,151.27658,241.43692ZM122.68832,102.18578c0,6.62343.07508,13.24824-.04624,19.86944-.0359,1.95935.45106,2.55961,2.48606,2.54385,12.4553-.09651,24.91171-.03957,37.36774-.05072a22.3413,22.3413,0,0,0,.49025-44.67971c-12.77367-.1499-25.55058-.00711-38.32569-.07122-1.60825-.00807-2.01912.501-2.00288,2.0396C122.72914,88.61929,122.68847,95.40275,122.68832,102.18578Z"/><path class="cls-2" d="M513.97513,205.644a111.07357,111.07357,0,0,1-222.14706-.1212C291.828,145.42032,340.1506,94.4951,402.97465,94.57325A110.73874,110.73874,0,0,1,513.97513,205.644Zm-75.2278-.02509a35.90933,35.90933,0,1,0-35.94378,35.8181A35.93361,35.93361,0,0,0,438.74733,205.61889Z"/><path class="cls-2" d="M707.80843,201.29773c0,8.86707-.05878,17.73467.02113,26.601a46.297,46.297,0,0,0,2.77232,16.66619c3.44307,8.79807,10.37559,12.967,19.79718,12.03094a68.38386,68.38386,0,0,0,11.35518-1.60168c1.56592-.42737,2.07158-.04932,2.05747,1.63539-.07177,8.547-.0329,17.0948-.03284,25.64235.00006,7.74868-.044,15.49787.03659,23.2457a2.94462,2.94462,0,0,1-1.89372,3.12861,77.252,77.252,0,0,1-44.00269,7.36142c-11.81189-1.37061-23.01029-4.54916-33.07407-11.04636-15.46286-9.98288-24.05363-24.50576-27.58845-42.27761a89.78583,89.78583,0,0,1-1.54994-17.61679q.04023-91.5465-.04683-183.09294c-.00316-2.41224.7601-3.18413,3.00058-3.65076q33.383-6.95256,66.71592-14.14341c2.0337-.4388,2.40441-.01157,2.39686,1.93938-.0644,16.69541-.00158,33.39134-.08372,50.0866-.00972,1.97777.478,2.53027,2.48661,2.51,10.38982-.105,20.78158-.00355,31.17175-.09077,1.85309-.01555,2.41044.4297,2.40441,2.35775q-.10635,33.79038-.003,67.58119c.00521,1.80407-.46714,2.28208-2.26075,2.26757-10.39017-.084-20.78174.008-31.1718-.08433-1.96444-.01747-2.57964.48107-2.55611,2.512C707.86908,182.60428,707.80843,191.95136,707.80843,201.29773Z"/><path class="cls-1" d="M607.90872,160.91391q0,74.75789.05422,149.51567c.00333,2.36105-.482,3.05684-2.97178,3.04447q-33.324-.16567-66.64906-.01387c-2.11362.00778-2.65007-.52509-2.64885-2.64015q.08261-142.567-.00477-285.13395c-.00137-2.12768.70088-2.83752,2.67033-3.24842Q571.8499,15.4502,605.3011,8.273c2.21443-.47665,2.65616-.04217,2.65352,2.16687Q607.86522,85.67682,607.90872,160.91391Z"/><path d="M109.38477,446.17676v12.5166H88.2373v58.168H73.37158v-58.168H52.12793v-12.5166Z"/><path d="M140.5791,463.36914q.26293.02344,1.17481.07129v14.00293q-1.29493-.14355-2.30176-.19238-1.00708-.04687-1.63037-.04786-8.24854,0-11.07764,5.3711-1.582,3.02051-1.58252,9.30273v24.98438H111.39893V464.5918h13.04345v9.11132a28.92565,28.92565,0,0,1,5.51465-7.1455,15.01391,15.01391,0,0,1,9.97461-3.21289Q140.31469,463.34473,140.5791,463.36914Z"/><path d="M183.82275,465.65039a21.259,21.259,0,0,1,9.03272,7.73242A25.69261,25.69261,0,0,1,197.02,484.18848a66.8424,66.8424,0,0,1,.45019,10.374H159.40088q.31786,7.86621,5.46582,11.0293a13.87925,13.87925,0,0,0,7.53564,1.96679,10.61655,10.61655,0,0,0,10.40137-5.99414h13.95313q-.55152,4.65088-5.06641,9.44629-7.02319,7.62452-19.665,7.625a28.48867,28.48867,0,0,1-18.41113-6.43164q-7.97681-6.43067-7.97608-20.92578,0-13.582,7.20069-20.83008,7.1997-7.24658,18.6914-7.24707A29.75762,29.75762,0,0,1,183.82275,465.65039ZM163.37744,477.457a14.19524,14.19524,0,0,0-3.64062,8.09082h23.54492q-.37281-5.44335-3.64063-8.25976a11.97461,11.97461,0,0,0-8.10547-2.81836Q166.27319,474.46973,163.37744,477.457Z"/><path d="M238.44238,465.65039a21.259,21.259,0,0,1,9.03272,7.73242,25.69274,25.69274,0,0,1,4.16455,10.80567,66.84367,66.84367,0,0,1,.45019,10.374H214.02051q.31786,7.86621,5.46582,11.0293a13.87925,13.87925,0,0,0,7.53564,1.96679,10.61655,10.61655,0,0,0,10.40137-5.99414h13.95312q-.55151,4.65088-5.0664,9.44629-7.0232,7.62452-19.665,7.625a28.48866,28.48866,0,0,1-18.41113-6.43164q-7.9768-6.43067-7.97608-20.92578,0-13.582,7.20069-20.83008,7.1997-7.24658,18.6914-7.24707A29.75762,29.75762,0,0,1,238.44238,465.65039ZM217.99707,477.457a14.19524,14.19524,0,0,0-3.64062,8.09082h23.54492q-.37281-5.44335-3.64063-8.25976a11.97461,11.97461,0,0,0-8.10547-2.81836Q220.89282,474.46973,217.99707,477.457Z"/><path d="M273.57959,516.86133H258.90527V446.17676h14.67432Z"/><path d="M328.43652,467.58887q5.13282,4.24365,5.1333,14.07422v35.19824H319.56689V485.06738a14.598,14.598,0,0,0-1.09472-6.3291Q316.47192,474.71,310.856,474.71q-6.90307,0-9.47315,5.89844a20.39111,20.39111,0,0,0-1.333,7.96v28.293h-13.667V464.6875h13.23535v7.625a23.15578,23.15578,0,0,1,4.96631-5.80273,17.20435,17.20435,0,0,1,10.64893-3.165Q323.30322,463.34473,328.43652,467.58887Z"/><path d="M340.90625,474.80566v-9.73437h7.28906V450.49316h13.52295v14.57813h8.48828v9.73437h-8.48828v27.6211q0,3.21387.81543,4.00488.81519.791,4.98731.791.62256,0,1.31884-.02442.69434-.02343,1.3667-.07129v10.21387l-6.47412.24023q-9.687.334-13.23535-3.35742-2.30127-2.34814-2.30176-7.24121V474.80566Z"/><path d="M413.043,465.65039a21.26881,21.26881,0,0,1,9.0332,7.73242,25.71124,25.71124,0,0,1,4.16406,10.80567,66.80582,66.80582,0,0,1,.44922,10.374H388.62061q.31786,7.86621,5.46582,11.0293a13.88037,13.88037,0,0,0,7.53662,1.96679,10.61637,10.61637,0,0,0,10.40039-5.99414h13.95312q-.55077,4.65088-5.0664,9.44629-7.02246,7.62452-19.66407,7.625A28.48943,28.48943,0,0,1,382.834,512.2041q-7.9768-6.43067-7.97607-20.92578,0-13.582,7.20068-20.83008,7.19972-7.24658,18.69141-7.24707A29.7616,29.7616,0,0,1,413.043,465.65039ZM392.59717,477.457a14.19532,14.19532,0,0,0-3.64063,8.09082H412.502q-.375-5.44335-3.64062-8.25976a11.97637,11.97637,0,0,0-8.10547-2.81836Q395.49268,474.46973,392.59717,477.457Z"/><path d="M462.6377,463.36914c.1748.01563.56738.04,1.1748.07129v14.00293q-1.29492-.14355-2.30176-.19238-1.00781-.04687-1.63086-.04786-8.24853,0-11.07715,5.3711-1.582,3.02051-1.582,9.30273v24.98438H433.458V464.5918h13.043v9.11132a28.92591,28.92591,0,0,1,5.51464-7.1455,15.01391,15.01391,0,0,1,9.97461-3.21289Q462.374,463.34473,462.6377,463.36914Z"/><path d="M515.77734,470.20215q6.39552,6.76172,6.39551,19.85254,0,13.812-6.25,21.05176a20.28836,20.28836,0,0,1-16.09668,7.24121,16.87767,16.87767,0,0,1-10.42578-3.11719,20.122,20.122,0,0,1-4.43945-5.03516v27.23828H471.4375V464.5918h13.0918v7.7207a21.97982,21.97982,0,0,1,4.72949-5.37109,17.45316,17.45316,0,0,1,10.90723-3.501A20.66792,20.66792,0,0,1,515.77734,470.20215Zm-10.48828,9.83008q-2.7876-4.64942-9.03515-4.65137-7.51026,0-10.31934,7.0498a26.46608,26.46608,0,0,0-1.45312,9.49414q0,9.1128,4.88867,12.80372a11.21669,11.21669,0,0,0,6.88086,2.1582,10.00315,10.00315,0,0,0,8.79492-4.41113q3.02783-4.41212,3.02832-11.749A20.41687,20.41687,0,0,0,505.28906,480.03223Z"/><path d="M560.84766,463.36914c.1748.01563.56738.04,1.1748.07129v14.00293q-1.29492-.14355-2.30176-.19238-1.00781-.04687-1.63086-.04786-8.24853,0-11.07714,5.3711-1.582,3.02051-1.582,9.30273v24.98438H531.668V464.5918h13.043v9.11132a28.92565,28.92565,0,0,1,5.51465-7.1455,15.01387,15.01387,0,0,1,9.97461-3.21289Q560.584,463.34473,560.84766,463.36914Z"/><path d="M604.09082,465.65039a21.26308,21.26308,0,0,1,9.0332,7.73242,25.69854,25.69854,0,0,1,4.16407,10.80567,66.783,66.783,0,0,1,.45019,10.374H579.669q.31786,7.86621,5.46582,11.0293a13.881,13.881,0,0,0,7.53613,1.96679,10.61974,10.61974,0,0,0,10.40137-5.99414h13.95312q-.55224,4.65088-5.06738,9.44629-7.02246,7.62452-19.66406,7.625a28.49129,28.49129,0,0,1-18.41211-6.43164q-7.97609-6.43067-7.97559-20.92578,0-13.582,7.2002-20.83008,7.1997-7.24658,18.6914-7.24707A29.75511,29.75511,0,0,1,604.09082,465.65039ZM583.64551,477.457a14.19848,14.19848,0,0,0-3.64063,8.09082H603.5498q-.37353-5.44335-3.64062-8.25976a11.97461,11.97461,0,0,0-8.10547-2.81836Q586.542,474.46973,583.64551,477.457Z"/><path d="M619.2793,474.80566v-9.73437h7.28906V450.49316H640.0918v14.57813h8.4873v9.73437h-8.4873v27.6211q0,3.21387.81445,4.00488.81592.791,4.9873.791.62256,0,1.31934-.02442.69434-.02343,1.36621-.07129v10.21387l-6.47363.24023q-9.687.334-13.23535-3.35742-2.30127-2.34814-2.30176-7.24121V474.80566Z"/><path d="M691.415,465.65039a21.26308,21.26308,0,0,1,9.0332,7.73242,25.6984,25.6984,0,0,1,4.16406,10.80567,66.78152,66.78152,0,0,1,.4502,10.374H666.99316q.31788,7.86621,5.46582,11.0293a13.881,13.881,0,0,0,7.53614,1.96679,10.61971,10.61971,0,0,0,10.40136-5.99414h13.95313q-.55224,4.65088-5.06738,9.44629-7.02246,7.62452-19.66407,7.625a28.49131,28.49131,0,0,1-18.41211-6.43164q-7.97607-6.43067-7.97558-20.92578,0-13.582,7.20019-20.83008,7.19971-7.24658,18.69141-7.24707A29.75511,29.75511,0,0,1,691.415,465.65039ZM670.96973,477.457a14.19848,14.19848,0,0,0-3.64063,8.09082H690.874q-.37353-5.44335-3.64062-8.25976a11.97461,11.97461,0,0,0-8.10547-2.81836Q673.86622,474.46973,670.96973,477.457Z"/><path d="M741.01074,463.36914c.17481.01563.56738.04,1.17481.07129v14.00293q-1.29492-.14355-2.30176-.19238-1.00782-.04687-1.63086-.04786-8.24853,0-11.07715,5.3711-1.582,3.02051-1.582,9.30273v24.98438h-13.7627V464.5918h13.043v9.11132a28.92613,28.92613,0,0,1,5.51465-7.1455,15.01391,15.01391,0,0,1,9.97461-3.21289Q740.74707,463.34473,741.01074,463.36914Z"/></svg>