<svg id="content" xmlns="http://www.w3.org/2000/svg" viewBox="0 0 889 479.06158"><defs><style>.cls-1{fill:#4095d1;}.cls-2{fill:#ef4637;}.cls-3{fill:#ffc20e;}.cls-4{fill:#30b455;}.cls-5{fill:none;}.cls-6{fill:#231f20;}</style></defs><title>google-trfl</title><path class="cls-1" d="M18.25092,113.37881c0-59.52739,50.04573-107.99267,109.57412-107.99267,32.92508,0,56.3675,12.90679,74.01462,29.7642l-20.808,20.808C168.38811,44.10552,151.26747,34.8871,127.82505,34.8871c-43.46072,0-77.43876,35.032-77.43876,78.49171,0,43.46071,33.978,78.49273,77.43876,78.49273,28.18273,0,44.25044-11.32636,54.52282-21.59874,8.42972-8.4287,13.95976-20.54477,16.06769-37.13893h-70.5905v-29.5h99.29973a96.11076,96.11076,0,0,1,1.58145,18.43785c0,22.12521-6.05853,49.51825-25.55036,69.01007-18.96331,19.754-43.19748,30.28967-75.33081,30.28967C68.29665,221.37149,18.25092,172.90721,18.25092,113.37881Z"/><path class="cls-2" d="M308.95724,82.29842c-38.45715,0-69.80078,29.23671-69.80078,69.53654,0,40.03659,31.34363,69.53653,69.80078,69.53653,38.45514,0,69.79877-29.49995,69.79877-69.53653C378.756,111.53513,347.41235,82.29842,308.95724,82.29842Zm0,111.68c-21.07327,0-39.24685-17.38388-39.24685-42.1435,0-25.02286,18.17361-42.14351,39.24685-42.14351,21.07126,0,39.24485,17.12065,39.24485,42.14351,0,24.75965-18.17362,42.14353-39.24485,42.14353Z"/><path class="cls-3" d="M461.22546,82.29842c-38.45715,0-69.80078,29.23671-69.80078,69.53654,0,40.03659,31.34363,69.53653,69.80078,69.53653,38.45514,0,69.80079-29.49995,69.80079-69.53653C531.02625,111.53513,499.6806,82.29842,461.22546,82.29842Zm0,111.68c-21.07125,0-39.24685-17.38388-39.24685-42.1435,0-25.02286,18.1756-42.14351,39.24685-42.14351s39.24488,17.12065,39.24488,42.14351c0,24.75965-18.17362,42.14353-39.24488,42.14353Z"/><path class="cls-1" d="M648.12579,86.51227V97.83862h-1.053c-6.84826-8.16546-20.01831-15.5402-36.61248-15.5402-34.76776,0-66.6399,30.55391-66.6399,69.79977,0,38.98363,31.87214,69.2733,66.6399,69.2733,16.59417,0,29.76422-7.37474,36.61248-15.80344h1.053v10.00914c0,26.60332-14.223,40.82631-37.13891,40.82631-18.70008,0-30.29065-13.43327-35.031-24.75862L549.35254,242.707c7.638,18.43784,27.91949,41.09055,61.63434,41.09055,35.82275,0,66.1134-21.07227,66.1134-72.43418V86.51227Zm-35.031,107.46618c-21.07123,0-38.7204-17.64712-38.7204-41.88026,0-24.49538,17.64911-42.40674,38.7204-42.40674,20.808,0,37.13891,17.91136,37.13891,42.40674C650.23376,176.33134,633.90283,193.97845,613.09479,193.97845Z"/><rect class="cls-4" x="698.17157" y="12.76188" width="30.55389" height="204.39577"/><path class="cls-2" d="M812.486,193.97845c-15.5412,0-26.60333-7.11149-33.71478-21.07125l92.98-38.45615-3.16089-7.90222C862.795,111.00863,845.14789,82.2984,809.062,82.2984c-35.82275,0-65.5849,28.18375-65.5849,69.53653,0,38.98262,29.499,69.53653,69.009,69.53653,31.87012,0,50.309-19.49081,57.947-30.81715l-23.70569-15.80344C838.82605,186.34048,828.02716,193.97845,812.486,193.97845ZM810.11481,109.165c12.11706,0,22.38946,6.05853,25.8136,14.75048L773.76764,149.728C772.97589,122.86148,794.57562,109.165,810.11481,109.165Z"/><rect class="cls-5" x="16.76392" y="5.21533" width="856" height="279.84616"/><path class="cls-6" d="M321.27441,342.91217v23.50928H281.55273V475.67926H253.63086V366.42145H213.72852V342.91217Z"/><path class="cls-6" d="M422.56934,346.335a32.79011,32.79011,0,0,1,12.42871,9.27735,41.339,41.339,0,0,1,6.67578,11.16894,37.22862,37.22862,0,0,1,2.46,13.96143,39.78547,39.78547,0,0,1-4.77344,18.60009q-4.77539,9.14283-15.76269,12.9253,9.186,3.69434,13.01465,10.49365,3.82762,6.802,3.82812,20.76172v8.917q0,9.09888.73242,12.33984a11.07637,11.07637,0,0,0,5.123,7.56641v3.33252h-30.625q-1.2627-4.41212-1.80176-7.11572a65.30942,65.30942,0,0,1-1.1709-11.43946l-.17968-12.33984q-.17139-12.7002-4.38868-16.93359-4.21728-4.23267-15.80468-4.2334H365.23047v52.062H338.11816V342.91217h63.50391Q415.23487,343.18244,422.56934,346.335Zm-57.33887,19.63574v35.66895h29.85644q8.896,0,13.34473-2.16162,7.86913-3.78369,7.87012-14.95215,0-12.06885-7.61426-16.21338-4.27734-2.34082-12.83105-2.3418Z"/><path class="cls-6" d="M470.70605,343.09235h94.666v23.3291H498.26758v30.53418H557.085v23.05859H498.26758v55.665H470.70605Z"/><path class="cls-6" d="M583.38672,342.91217h27.74219v108.898h66.293v23.86914H583.38672Z"/></svg>