<?xml version="1.0" encoding="UTF-8"?>
<svg id="AW" xmlns="http://www.w3.org/2000/svg" viewBox="0 0 487.3201726 164.0012171">
  <defs>
    <style>
      .cls-1 {
        fill: none;
      }

      .cls-2 {
        fill: #003778;
      }

      .cls-3 {
        fill: #0094ff;
      }
    </style>
  </defs>
  <g>
    <path class="cls-3" d="M133.5241687,104.5685021c-2.2009178-3.8120438-5.3662144-6.9773404-9.1782582-9.1782067-3.8120438-2.2009178-8.1360679-3.3596452-12.5379035-3.3596452l.000309,.0002575c-6.6503878,0-13.0284096,2.6418841-17.730883,7.344615-4.7027309,4.7027309-7.344615,11.0807526-7.344615,17.7308315,0,6.6501304,2.6418841,13.0284611,7.344615,17.730883,4.7027309,4.7027309,11.0807526,7.344615,17.730883,7.344615,6.6500789,0,13.0284096-2.6418841,17.730883-7.344615,4.7027309-4.7027309,7.3445635-11.0807526,7.3445635-17.730883,0-4.4017841-1.1587274-8.7258082-3.3595937-12.537852Zm-6.1688936,5.1665617l-12.5379035,20.060594c-.8196216,1.2955542-2.1863442,2.1455073-3.7112132,2.3069495h-.5516327c-1.3331983,.0078275-2.6141789-.5156365-3.5607399-1.4544215l-10.0303228-10.0302713c-1.2720717-1.2720717-1.7689119-3.1261076-1.3034332-4.864173,.4654787-1.7374989,1.8232409-3.0953126,3.5607914-3.5607399,1.7380139-.4654787,3.5920499,.0313615,4.8641215,1.3034332l5.5668456,5.5667941,9.1776918-14.695049c.9497538-1.5228606,2.6397212-2.4234351,4.4331456-2.3628234,1.7939393,.0611266,3.4191239,1.0740668,4.262846,2.6580026,.844237,1.5839872,.7794542,3.4980169-.1702996,5.0208775l.000103,.0508273Z"/>
    <g>
      <path class="cls-1" d="M38.2213885,51.9097089h44.3161011c1.7919312,0,3.4474487-.9559326,4.3433838-2.5075684s.8959351-3.463501,0-5.0151367c-.8959961-1.5515137-2.5515137-2.5075684-4.3433838-2.5075684H38.2213885c-1.7919312,0-3.4474487,.9560547-4.3433838,2.5075684-.8959351,1.5516357-.8959351,3.463501,0,5.0151367,.8960571,1.5515137,2.5515747,2.5075684,4.3433838,2.5075684Z"/>
      <path class="cls-1" d="M63.2970721,117.1067304h-25.0756836c-1.7919312,0-3.4474487,.9558105-4.3433838,2.5075684-.8959351,1.5515137-.8959351,3.4633789,0,5.0150146,.8960571,1.5516357,2.5515747,2.5076904,4.3433838,2.5076904h25.0756836c1.7919922,0,3.4474487-.9560547,4.3433838-2.5076904s.8959351-3.463501,0-5.0150146c-.8959961-1.5516357-2.5515137-2.5075684-4.3433838-2.5075684Z"/>
      <path class="cls-1" d="M63.2970721,92.0308027h-25.0756836c-1.7919312,0-3.4474487,.9560547-4.3433838,2.5076904s-.8959351,3.463501,0,5.0151367c.8960571,1.5516357,2.5515747,2.5075684,4.3433838,2.5075684h25.0756836c1.7919922,0,3.4474487-.9559326,4.3433838-2.5075684s.8959351-3.463501,0-5.0151367c-.8959961-1.5516357-2.5515137-2.5076904-4.3433838-2.5076904Z"/>
      <path class="cls-1" d="M103.9185931,67.0676892l-65.6972046-.1125701c-1.7919312,0-3.4474487,.9560547-4.3433838,2.5075684-.8959351,1.5517578-.8959351,3.463623,0,5.0151367,.8960571,1.5516357,2.5515747,2.5075684,4.3433838,2.5075684l65.6972046,.1125701c1.7919312,0,3.4474487-.9559326,4.3433838-2.5076904,.8959351-1.5515137,.8959351-3.4633789,0-5.0150146-.8960571-1.5516357-2.5515747-2.5075684-4.3433838-2.5075684Z"/>
      <path class="cls-3" d="M91.6913592,31.9412031v-10.1220703h7.59375v10.1220703c0,4.6884766,3.8139648,8.5019531,8.5019531,8.5019531l13.4381104,.0039062-21.9400635-18.6281738H24.6759173v120.3635254h60.9527588c-6.5733643-6.3572998-10.6665649-15.2629395-10.6665649-25.1298828,0-19.3106689,15.6544189-34.9650879,34.9651489-34.9650879,3.9552002,0,7.7525635,.6662598,11.2979126,1.876709V48.0369062h-13.4381104c-8.875,0-16.0957031-7.2207031-16.0957031-16.0957031Zm-57.8133545,12.4458008c.8959351-1.5515137,2.5514526-2.5075684,4.3433838-2.5075684h44.3161011c1.7918701,0,3.4473877,.9560547,4.3433838,2.5075684,.8959351,1.5516357,.8959351,3.463501,0,5.0151367s-2.5514526,2.5075684-4.3433838,2.5075684H38.2213885c-1.7918091,0-3.4473267-.9560547-4.3433838-2.5075684-.8959351-1.5516357-.8959351-3.463501,0-5.0151367Zm33.7624512,80.2423096c-.8959351,1.5516357-2.5513916,2.5076904-4.3433838,2.5076904h-25.0756836c-1.7918091,0-3.4473267-.9560547-4.3433838-2.5076904-.8959351-1.5516357-.8959351-3.463501,0-5.0150146,.8959351-1.5517578,2.5514526-2.5075684,4.3433838-2.5075684h25.0756836c1.7918701,0,3.4473877,.9559326,4.3433838,2.5075684,.8959351,1.5515137,.8959351,3.4633789,0,5.0150146Zm0-25.0756836c-.8959351,1.5516357-2.5513916,2.5075684-4.3433838,2.5075684h-25.0756836c-1.7918091,0-3.4473267-.9559326-4.3433838-2.5075684-.8959351-1.5516357-.8959351-3.463501,0-5.0151367s2.5514526-2.5076904,4.3433838-2.5076904h25.0756836c1.7918701,0,3.4473877,.9560547,4.3433838,2.5076904,.8959351,1.5516357,.8959351,3.463501,0,5.0151367Zm40.621521-24.9633576c-.8959351,1.5517578-2.5514526,2.5076904-4.3433838,2.5076904l-65.6972046-.1125701c-1.7918091,0-3.4473267-.9559326-4.3433838-2.5075684-.8959351-1.5515137-.8959351-3.4633789,0-5.0151367,.8959351-1.5515137,2.5514526-2.5075684,4.3433838-2.5075684l65.6972046,.1125701c1.7918091,0,3.4473267,.9559326,4.3433838,2.5075684,.8959351,1.5516357,.8959351,3.463501,0,5.0150146Z"/>
    </g>
  </g>
  <g>
    <path class="cls-2" d="M149.3961868,59.7106464c-1.5791016-.8486328-2.8056641-2.0356445-3.6816406-3.5615234-.875-1.5253906-1.3134766-3.2832031-1.3134766-5.2729492v-8.5161133c0-1.9633789,.4384766-3.7011719,1.3134766-5.2133789,.8759766-1.512207,2.1025391-2.6860352,3.6816406-3.5219727,1.578125-.8354492,3.4023438-1.253418,5.4716797-1.253418,2.0957031,0,3.9326172,.4179688,5.5117188,1.253418,1.578125,.8359375,2.8056641,2.0097656,3.6806641,3.5219727,.8759766,1.512207,1.3134766,3.25,1.3134766,5.2133789v8.5161133c0,1.9897461-.4375,3.7543945-1.3134766,5.2929688-.875,1.5390625-2.1025391,2.7260742-3.6806641,3.5615234-1.5791016,.8359375-3.4160156,1.2539062-5.5117188,1.2539062-2.0693359,0-3.8935547-.4248047-5.4716797-1.2739258Zm9.0136719-4.9345703c.9013672-.9282227,1.3525391-2.1621094,1.3525391-3.7006836v-8.7553711c0-1.5380859-.4443359-2.7788086-1.3330078-3.7207031-.8896484-.9414062-2.0761719-1.4130859-3.5615234-1.4130859-1.4599609,0-2.6337891,.4716797-3.5224609,1.4130859-.8886719,.9418945-1.3330078,2.1826172-1.3330078,3.7207031v8.7553711c0,1.5385742,.4443359,2.7724609,1.3330078,3.7006836,.8886719,.9291992,2.0625,1.3930664,3.5224609,1.3930664,1.4589844,0,2.6396484-.4638672,3.5419922-1.3930664Z"/>
    <path class="cls-2" d="M185.7887649,33.7243182c1.3261719,.7163086,2.3544922,1.730957,3.0839844,3.0444336,.7294922,1.3129883,1.0947266,2.8193359,1.0947266,4.5166016,0,1.6713867-.3779297,3.144043-1.1347656,4.4174805-.7558594,1.2734375-1.8173828,2.262207-3.1835938,2.9648438-1.3662109,.703125-2.9384766,1.0546875-4.7158203,1.0546875h-5.6503906c-.1337891,0-.1992188,.0664062-.1992188,.1987305v10.1479492c0,.1333008-.046875,.2456055-.1396484,.3383789-.0927734,.0932617-.2050781,.1391602-.3378906,.1391602h-4.65625c-.1328125,0-.2451172-.0458984-.3378906-.1391602-.09375-.0927734-.1396484-.2050781-.1396484-.3383789v-26.9418945c0-.1323242,.0458984-.2446289,.1396484-.3378906,.0927734-.0927734,.2050781-.1396484,.3378906-.1396484h11.2226562c1.7509766,0,3.2890625,.3583984,4.6162109,1.074707Zm-2.5068359,10.4462891c.7421875-.7026367,1.1142578-1.625,1.1142578-2.765625,0-1.1674805-.3720703-2.109375-1.1142578-2.8256836-.7431641-.7163086-1.7255859-1.074707-2.9453125-1.074707h-5.0537109c-.1337891,0-.1992188,.0668945-.1992188,.1992188v7.3222656c0,.1333008,.0654297,.1992188,.1992188,.1992188h5.0537109c1.2197266,0,2.2021484-.3515625,2.9453125-1.0546875Z"/>
    <path class="cls-2" d="M212.6295852,37.3654315c-.0927734,.0932617-.2060547,.1391602-.3378906,.1391602h-13.0537109c-.1328125,0-.1982422,.0668945-.1982422,.1992188v6.168457c0,.1328125,.0654297,.1987305,.1982422,.1987305h8.5566406c.1318359,0,.2451172,.046875,.3378906,.1396484,.0927734,.0932617,.1396484,.2055664,.1396484,.3378906v3.8603516c0,.1328125-.046875,.2456055-.1396484,.3383789-.0927734,.0932617-.2060547,.1391602-.3378906,.1391602h-8.5566406c-.1328125,0-.1982422,.0664062-.1982422,.1987305v6.4472656c0,.1328125,.0654297,.1987305,.1982422,.1987305h13.0537109c.1318359,0,.2451172,.046875,.3378906,.1396484,.0927734,.0932617,.1396484,.2055664,.1396484,.3378906v3.8603516c0,.1333008-.046875,.2456055-.1396484,.3383789-.0927734,.0932617-.2060547,.1391602-.3378906,.1391602h-18.3857422c-.1328125,0-.2460938-.0458984-.3388672-.1391602-.0927734-.0927734-.1386719-.2050781-.1386719-.3383789v-26.9018555c0-.1323242,.0458984-.2451172,.1386719-.3383789,.0927734-.0927734,.2060547-.1391602,.3388672-.1391602h18.3857422c.1318359,0,.2451172,.0463867,.3378906,.1391602,.0927734,.0932617,.1396484,.2060547,.1396484,.3383789v3.8598633c0,.1333008-.046875,.2456055-.1396484,.3383789Z"/>
    <path class="cls-2" d="M232.806343,32.8288104c.0927734-.0927734,.2050584-.1391602,.3388672-.1391602h4.65625c.1318359,0,.2441406,.0463867,.3378906,.1391602,.0927734,.0932617,.1396484,.2060547,.1396484,.3383789v26.9018555c0,.1333008-.046875,.2456055-.1396484,.3383789-.09375,.0932617-.2060547,.1391602-.3378906,.1391602h-4.4970703c-.265625,0-.4521484-.1054688-.5576172-.3183594l-10.3066406-17.0327148c-.0537304-.0795898-.1064453-.1123047-.1591797-.0996094-.0537109,.0141602-.0800781,.0737305-.0800781,.1791992l.0800781,16.7939453c0,.1333008-.046875,.2456055-.1396484,.3383789-.0927734,.0932617-.2060547,.1391602-.3378906,.1391602h-4.65625c-.1328125,0-.2460938-.0458984-.3388672-.1391602-.0927734-.0927734-.1386719-.2050781-.1386719-.3383789v-26.9018555c0-.1323242,.0458984-.2451172,.1386719-.3383789,.0927734-.0927734,.2060547-.1391602,.3388672-.1391602h4.4970703c.2646484,0,.4501953,.1064453,.5566406,.3183594l10.2675781,16.953125c.0527344,.0795898,.1054688,.112793,.1591797,.0991211,.0527344-.0126953,.0791016-.0727539,.0791016-.1787109l-.0390625-16.7143555c0-.1323242,.0458984-.2451172,.1386719-.3383789Z"/>
    <path class="cls-2" d="M257.9772415,60.1486346l-8.1982422-26.9018555-.0400391-.1591797c0-.2651367,.1455078-.3979492,.4384766-.3979492h5.0136719c.2919922,0,.4775391,.1328125,.5576172,.3979492l5.2929688,19.4204102c.0253906,.0795898,.0654297,.1191406,.1191406,.1191406,.0527344,0,.0927734-.0395508,.1191406-.1191406l5.2128906-19.4204102c.0800781-.2651367,.265625-.3979492,.5576172-.3979492h4.8945312c.1591797,0,.2792969,.0532227,.3583984,.1591797,.0800781,.1064453,.0927734,.2387695,.0400391,.3979492l-8.3173828,26.9018555c-.0800781,.265625-.2529297,.3979492-.5175781,.3979492h-5.0146484c-.2646484,0-.4375-.1323242-.5166016-.3979492Z"/>
    <path class="cls-2" d="M278.969429,59.7106464c-1.5791016-.8486328-2.8056641-2.0356445-3.6816406-3.5615234-.875-1.5253906-1.3134766-3.2832031-1.3134766-5.2729492v-8.5161133c0-1.9633789,.4384766-3.7011719,1.3134766-5.2133789,.8759766-1.512207,2.1025391-2.6860352,3.6816406-3.5219727,1.578125-.8354492,3.4023438-1.253418,5.4716797-1.253418,2.0957031,0,3.9326172,.4179688,5.5117188,1.253418,1.578125,.8359375,2.8056641,2.0097656,3.6806641,3.5219727,.8759766,1.512207,1.3134766,3.25,1.3134766,5.2133789v8.5161133c0,1.9897461-.4375,3.7543945-1.3134766,5.2929688-.875,1.5390625-2.1025391,2.7260742-3.6806641,3.5615234-1.5791016,.8359375-3.4160156,1.2539062-5.5117188,1.2539062-2.0693359,0-3.8935547-.4248047-5.4716797-1.2739258Zm9.0136719-4.9345703c.9013672-.9282227,1.3525391-2.1621094,1.3525391-3.7006836v-8.7553711c0-1.5380859-.4443359-2.7788086-1.3330078-3.7207031-.8896484-.9414062-2.0761719-1.4130859-3.5615234-1.4130859-1.4599609,0-2.6337891,.4716797-3.5224609,1.4130859-.8886719,.9418945-1.3330078,2.1826172-1.3330078,3.7207031v8.7553711c0,1.5385742,.4443359,2.7724609,1.3330078,3.7006836,.8886719,.9291992,2.0625,1.3930664,3.5224609,1.3930664,1.4589844,0,2.6396484-.4638672,3.5419922-1.3930664Z"/>
    <path class="cls-2" d="M299.3834915,60.4074237c-.0927734-.0927734-.1386719-.2050781-.1386719-.3383789v-26.9018555c0-.1323242,.0458984-.2451172,.1386719-.3383789,.0927734-.0927734,.2060547-.1391602,.3388672-.1391602h4.65625c.1318359,0,.2451172,.0463867,.3378906,.1391602,.0927734,.0932617,.1396484,.2060547,.1396484,.3383789v26.9018555c0,.1333008-.046875,.2456055-.1396484,.3383789-.0927734,.0932617-.2060547,.1391602-.3378906,.1391602h-4.65625c-.1328125,0-.2460938-.0458984-.3388672-.1391602Z"/>
    <path class="cls-2" d="M313.0534133,59.651076c-1.5664062-.809082-2.7734375-1.9428711-3.6220703-3.4023438-.8486328-1.4589844-1.2734375-3.144043-1.2734375-5.0541992v-9.1928711c0-1.9101562,.4248047-3.5947266,1.2734375-5.0541992,.8486328-1.4584961,2.0556641-2.5864258,3.6220703-3.3823242,1.5644531-.7958984,3.3818359-1.1938477,5.4521484-1.1938477,2.0419922,0,3.8398438,.3779297,5.3916016,1.1342773,1.5527344,.7558594,2.7587891,1.8305664,3.6220703,3.2231445,.8613281,1.3930664,1.2929688,3.0048828,1.2929688,4.8354492,0,.2387695-.1591797,.3847656-.4775391,.4375l-4.65625,.2788086h-.0791016c-.265625,0-.3984375-.1455078-.3984375-.4379883,0-1.4057617-.4316406-2.5332031-1.2929688-3.3823242-.8623047-.8491211-1.9970703-1.2739258-3.4023438-1.2739258-1.4335938,0-2.5810547,.4248047-3.4423828,1.2739258-.8632812,.8491211-1.2939453,1.9765625-1.2939453,3.3823242v9.5908203c0,1.3798828,.4306641,2.4941406,1.2939453,3.3427734,.8613281,.8496094,2.0087891,1.2734375,3.4423828,1.2734375,1.4052734,0,2.5400391-.4238281,3.4023438-1.2734375,.8613281-.8486328,1.2929688-1.9628906,1.2929688-3.3427734,0-.2915039,.1591797-.4375,.4775391-.4375l4.65625,.1987305c.1328125,0,.2451172,.0400391,.3378906,.1196289s.1396484,.1728516,.1396484,.2783203c0,1.8305664-.4316406,3.4492188-1.2929688,4.8549805-.8632812,1.4067383-2.0693359,2.4941406-3.6220703,3.2631836-1.5517578,.7700195-3.3496094,1.1542969-5.3916016,1.1542969-2.0703125,0-3.8876953-.4042969-5.4521484-1.2138672Z"/>
    <path class="cls-2" d="M352.1120071,37.3654315c-.0927734,.0932617-.2060547,.1391602-.3378906,.1391602h-13.0537109c-.1328125,0-.1982422,.0668945-.1982422,.1992188v6.168457c0,.1328125,.0654297,.1987305,.1982422,.1987305h8.5566406c.1318359,0,.2451172,.046875,.3378906,.1396484,.0927734,.0932617,.1396484,.2055664,.1396484,.3378906v3.8603516c0,.1328125-.046875,.2456055-.1396484,.3383789-.0927734,.0932617-.2060547,.1391602-.3378906,.1391602h-8.5566406c-.1328125,0-.1982422,.0664062-.1982422,.1987305v6.4472656c0,.1328125,.0654297,.1987305,.1982422,.1987305h13.0537109c.1318359,0,.2451172,.046875,.3378906,.1396484,.0927734,.0932617,.1396484,.2055664,.1396484,.3378906v3.8603516c0,.1333008-.046875,.2456055-.1396484,.3383789-.0927734,.0932617-.2060547,.1391602-.3378906,.1391602h-18.3857422c-.1328125,0-.2460938-.0458984-.3388672-.1391602-.0927734-.0927734-.1386719-.2050781-.1386719-.3383789v-26.9018555c0-.1323242,.0458984-.2451172,.1386719-.3383789,.0927734-.0927734,.2060547-.1391602,.3388672-.1391602h18.3857422c.1318359,0,.2451172,.0463867,.3378906,.1391602,.0927734,.0932617,.1396484,.2060547,.1396484,.3383789v3.8598633c0,.1333008-.046875,.2456055-.1396484,.3383789Z"/>
    <path class="cls-3" d="M176.4957961,70.2677753c.1787109,.1806641,.2695312,.3989258,.2695312,.6552734v7.4790039c0,.2578125-.0908203,.4760742-.2695312,.6557617-.1806641,.1806641-.3994141,.2695312-.65625,.2695312h-9.6376953c-.2578125,0-.3857422,.1289062-.3857422,.3857422v43.3325195c0,.2578125-.0898438,.4760742-.2695312,.6552734-.1806641,.1806641-.3984375,.2700195-.6552734,.2700195h-9.0214844c-.2578125,0-.4755859-.0893555-.6552734-.2700195-.1806641-.1791992-.2695312-.3974609-.2695312-.6552734v-43.3325195c0-.2568359-.1289062-.3857422-.3857422-.3857422h-9.2529297c-.2578125,0-.4755859-.0888672-.6552734-.2695312-.1806641-.1796875-.2695312-.3979492-.2695312-.6557617v-7.4790039c0-.2563477,.0888672-.4746094,.2695312-.6552734,.1796875-.1796875,.3974609-.2700195,.6552734-.2700195h30.5332031c.2568359,0,.4755859,.090332,.65625,.2700195Z"/>
    <path class="cls-3" d="M202.2086868,123.1999042l-5.9365234-21.2807617c-.1035156-.2050781-.2314453-.3085938-.385761-.3085938h-2.6220515c-.2578125,0-.3847656,.1289062-.3847656,.3857422v21.0493164c0,.2578125-.0908203,.4760742-.2705078,.6552734-.1806641,.1806641-.3984375,.2700195-.6552734,.2700195h-9.0214844c-.2578125,0-.4755859-.0893555-.6552734-.2700195-.1806641-.1791992-.2695312-.3974609-.2695312-.6552734v-52.1225586c0-.2563477,.0888672-.4746094,.2695312-.6552734,.1796875-.1796875,.3974609-.2700195,.6552734-.2700195h15.5751953c2.8271484,0,5.3457031,.6821289,7.5566406,2.043457,2.2089844,1.3623047,3.9189453,3.2768555,5.1269531,5.7441406s1.8125,5.2949219,1.8125,8.4814453c0,3.0336914-.578125,5.7060547-1.7353516,8.019043-1.15625,2.3129883-2.7636719,4.112793-4.8183594,5.3969727-.1035156,.0522461-.1806641,.1157227-.2314453,.1928711-.0517578,.0771484-.0517578,.1674805,0,.2700195l7.09375,22.7456055,.0771484,.3085938c0,.5141602-.2832031,.7709961-.8486328,.7709961h-9.2519531c-.5664062,0-.9257812-.2568359-1.0800781-.7709961Zm-9.3291016-43.4868164v13.1845703c0,.2578125,.1269531,.3857422,.3847656,.3857422h3.4697266c1.5927734,0,2.8916016-.6289062,3.8945312-1.8891602,1.0019531-1.2587891,1.5029297-2.9418945,1.5029297-5.050293,0-2.1586914-.5009766-3.8671875-1.5029297-5.1274414-1.0029297-1.2587891-2.3017578-1.8891602-3.8945312-1.8891602h-3.4697266c-.2578125,0-.3847656,.1289062-.3847656,.3857422Z"/>
    <path class="cls-3" d="M222.2936477,120.2311542c-2.8017578-2.9033203-4.2021484-6.7719727-4.2021484-11.6040039v-37.7041016c0-.2563477,.0888672-.4746094,.2695312-.6552734,.1796875-.1796875,.3984375-.2700195,.65625-.2700195h9.0205078c.2568359,0,.4746094,.090332,.6552734,.2700195,.1796875,.1806641,.2705078,.3989258,.2705078,.6552734v38.7836914c0,1.6455078,.4101562,2.9814453,1.2333984,4.0092773,.8212891,1.0288086,1.9013672,1.5419922,3.2382812,1.5419922,1.3359375,0,2.4023438-.5131836,3.2001953-1.5419922,.7958984-1.027832,1.1953125-2.3637695,1.1953125-4.0092773v-38.7836914c0-.2563477,.0888672-.4746094,.2695312-.6552734,.1796875-.1796875,.3974609-.2700195,.6552734-.2700195h9.0214844c.2568359,0,.4746094,.090332,.6552734,.2700195,.1796875,.1806641,.2695312,.3989258,.2695312,.6552734v37.7041016c0,4.8320312-1.4013672,8.7006836-4.2021484,11.6040039-2.8017578,2.9047852-6.4902344,4.3564453-11.0644531,4.3564453-4.6259766,0-8.3408203-1.4516602-11.1416016-4.3564453Z"/>
    <path class="cls-3" d="M261.2682571,122.814162c-2.2617188-1.1816406-4.0087891-2.8393555-5.2421875-4.9731445-1.234375-2.1323242-1.8505859-4.5874023-1.8505859-7.3632812v-2.2363281c0-.2563477,.0888672-.4746094,.2695312-.6552734,.1796875-.1791992,.3974609-.2695312,.6552734-.2695312h8.8671875c.2568359,0,.4746094,.090332,.6552734,.2695312,.1796875,.1806641,.2695312,.3989258,.2695312,.6552734v1.6962891c0,1.5942383,.4111328,2.8793945,1.234375,3.8554688,.8212891,.9770508,1.8505859,1.4648438,3.0839844,1.4648438s2.2607422-.4624023,3.0839844-1.3876953c.8212891-.925293,1.2333984-2.1323242,1.2333984-3.6240234,0-1.5419922-.5136719-2.8647461-1.5419922-3.9707031-1.0283203-1.1049805-3.0332031-2.7373047-6.0136719-4.8964844-2.5712891-1.8500977-4.6533203-3.4946289-6.2460938-4.9345703-1.59375-1.4384766-2.9560547-3.2119141-4.0859375-5.3203125-1.1318359-2.1069336-1.6962891-4.5488281-1.6962891-7.324707,0-4.3681641,1.3613281-7.8647461,4.0859375-10.4863281s6.3232422-3.9321289,10.7949219-3.9321289c4.5224609,0,8.1601562,1.362793,10.9101562,4.0864258,2.7490234,2.7250977,4.125,6.2973633,4.125,10.7177734v1.8500977c0,.2578125-.0898438,.4760742-.2695312,.6557617-.1806641,.1806641-.3984375,.2695312-.6552734,.2695312h-8.8671875c-.2578125,0-.4755859-.0888672-.6552734-.2695312-.1806641-.1796875-.2695312-.3979492-.2695312-.6557617v-2.081543c0-1.5927734-.3994141-2.8647461-1.1953125-3.8168945-.7978516-.9501953-1.8388672-1.4262695-3.1230469-1.4262695-1.2333984,0-2.2363281,.4506836-3.0068359,1.3491211-.7714844,.9003906-1.1572266,2.1469727-1.1572266,3.7397461,0,1.5419922,.4882812,2.9047852,1.4658203,4.0864258,.9755859,1.1831055,2.9033203,2.8276367,5.7822266,4.9350586,3.1865234,2.3647461,5.5898438,4.2788086,7.2099609,5.7441406,1.6191406,1.4648438,2.8779297,3.0839844,3.7773438,4.8574219s1.3496094,3.894043,1.3496094,6.3613281c0,4.5234375-1.3876953,8.1220703-4.1640625,10.7944336-2.7753906,2.6733398-6.4257812,4.0092773-10.9482422,4.0092773-2.9814453,0-5.6035156-.5913086-7.8652344-1.7734375Z"/>
    <path class="cls-3" d="M319.5983352,70.2677753c.1787109,.1806641,.2695312,.3989258,.2695312,.6552734v7.4790039c0,.2578125-.0908203,.4760742-.2695312,.6557617-.1806641,.1806641-.3994141,.2695312-.65625,.2695312h-9.6376953c-.2578125,0-.3857422,.1289062-.3857422,.3857422v43.3325195c0,.2578125-.0898438,.4760742-.2695312,.6552734-.1806641,.1806641-.3984375,.2700195-.6552734,.2700195h-9.0214844c-.2578125,0-.4755859-.0893555-.6552734-.2700195-.1806855-.1791992-.2695312-.3974609-.2695312-.6552734v-43.3325195c0-.2568359-.1289062-.3857422-.3857422-.3857422h-9.2529297c-.2578125,0-.4755859-.0888672-.6552734-.2695312-.1806641-.1796875-.2695312-.3979492-.2695312-.6557617v-7.4790039c0-.2563477,.0888672-.4746094,.2695312-.6552734,.1796875-.1796875,.3974609-.2700195,.6552734-.2700195h30.5332031c.2568359,0,.4755859,.090332,.65625,.2700195Z"/>
    <path class="cls-3" d="M350.9401321,69.9977557h8.9443359c.2558594,0,.4746094,.090332,.6552734,.2700195,.1796875,.1806641,.2695312,.3989258,.2695312,.6552734v52.1225586c0,.2578125-.0898438,.4760742-.2695312,.6552734-.1806641,.1806641-.3994141,.2700195-.6552734,.2700195h-9.0214844c-.2578125,0-.4755859-.0893555-.6552734-.2700195-.1806641-.1791992-.2705078-.3974609-.2705078-.6552734v-34.6196289c0-.2050781-.0517578-.3085938-.1533203-.3085938-.1044922,0-.2060547,.0771484-.3085938,.2314453l-6.0146484,10.6401367c-.2578125,.4121094-.4619141,.6171875-.6162109,.6171875s-.3603516-.2050781-.6171875-.6171875l-6.0136719-10.6401367c-.1044922-.1542969-.2060547-.2314453-.3085938-.2314453-.1035156,0-.1542969,.1035156-.1542969,.3085938v34.6196289c0,.2578125-.0908203,.4760742-.2705078,.6552734-.1806641,.1806641-.3984375,.2700195-.6552734,.2700195h-9.0205078c-.2578125,0-.4765625-.0893555-.65625-.2700195-.1806641-.1791992-.2695312-.3974609-.2695312-.6552734v-52.1225586c0-.2563477,.0888672-.4746094,.2695312-.6552734,.1796875-.1796875,.3984375-.2700195,.65625-.2700195h8.8662109c.5136719,0,.8994141,.2060547,1.1572266,.6171875l6.8623047,12.2592773c.1542969,.2060547,.3085938,.2060547,.4619141,0l6.6318359-12.2592773c.2041016-.4111328,.5898438-.6171875,1.15625-.6171875Z"/>
    <path class="cls-3" d="M389.0280227,123.1227557l-1.2333984-7.4018555c0-.2568359-.1542969-.3857422-.4628906-.3857422h-9.7919922c-.3085938,0-.4628906,.1289062-.4628906,.3857422l-1.2333984,7.4018555c-.0517578,.5664062-.3857422,.8481445-1.0019531,.8481445h-9.0214844c-.6689453,0-.9257812-.3334961-.7714844-1.0024414l11.3349609-52.1225586c.1025391-.5649414,.4355469-.8481445,1.0019531-.8481445h10.4091797c.5654297,0,.8984375,.2832031,1.0019531,.8481445l11.2578125,52.1225586,.0771484,.3085938c0,.4624023-.2832031,.6938477-.8486328,.6938477h-9.2519531c-.6171875,0-.9521484-.2817383-1.0029297-.8481445Zm-10.1005859-16.1918945h6.9394531c.2568359,0,.359375-.1279297,.3085938-.3857422l-3.6240234-21.0493164c-.0517578-.1542969-.1289062-.2314453-.2314453-.2314453-.1035156,0-.1806641,.0771484-.2314453,.2314453l-3.4697266,21.0493164c0,.2578125,.1025391,.3857422,.3085938,.3857422Z"/>
    <path class="cls-3" d="M424.7272415,123.1999042l-5.9365234-21.2807617c-.1035156-.2050781-.2314453-.3085938-.3857422-.3085938h-2.6220703c-.2578125,0-.3847656,.1289062-.3847656,.3857422v21.0493164c0,.2578125-.0908203,.4760742-.2705078,.6552734-.1806641,.1806641-.3984375,.2700195-.6552734,.2700195h-9.0214844c-.2578125,0-.4755859-.0893555-.6552734-.2700195-.1806641-.1791992-.2695312-.3974609-.2695312-.6552734v-52.1225586c0-.2563477,.0888672-.4746094,.2695312-.6552734,.1796875-.1796875,.3974609-.2700195,.6552734-.2700195h15.5751953c2.8271484,0,5.3457031,.6821289,7.5566406,2.043457,2.2089844,1.3623047,3.9189453,3.2768555,5.1269531,5.7441406s1.8125,5.2949219,1.8125,8.4814453c0,3.0336914-.578125,5.7060547-1.7353516,8.019043-1.15625,2.3129883-2.7636719,4.112793-4.8183594,5.3969727-.1035156,.0522461-.1806641,.1157227-.2314453,.1928711-.0517578,.0771484-.0517578,.1674805,0,.2700195l7.09375,22.7456055,.0771484,.3085938c0,.5141602-.2832031,.7709961-.8486328,.7709961h-9.2519531c-.5664062,0-.9257812-.2568359-1.0800781-.7709961Zm-9.3291016-43.4868164v13.1845703c0,.2578125,.1269531,.3857422,.3847656,.3857422h3.4697266c1.5927734,0,2.8916016-.6289062,3.8945312-1.8891602,1.0019531-1.2587891,1.5029297-2.9418945,1.5029297-5.050293,0-2.1586914-.5009766-3.8671875-1.5029297-5.1274414-1.0029297-1.2587891-2.3017578-1.8891602-3.8945312-1.8891602h-3.4697266c-.2578125,0-.3847656,.1289062-.3847656,.3857422Z"/>
    <path class="cls-3" d="M441.1110305,123.7008807c-.1806641-.1791992-.2695312-.3974609-.2695312-.6552734v-52.1225586c0-.2563477,.0888672-.4746094,.2695312-.6552734,.1796875-.1796875,.3974609-.2700195,.6552734-.2700195h9.0214844c.2568359,0,.4746094,.090332,.6552734,.2700195,.1796875,.1806641,.2705078,.3989258,.2705078,.6552734v19.4301758c0,.2060547,.0634766,.3217773,.1923828,.347168,.1279297,.0263672,.2177734-.0639648,.2695312-.2700195l9.9472656-19.7387695c.2558594-.4624023,.6162109-.6938477,1.0791016-.6938477h9.5605469c.359375,0,.6035156,.090332,.7324219,.2700195,.1279297,.1806641,.1162109,.4506836-.0380859,.8095703l-11.4111328,22.2060547c-.0517578,.2060547-.0771484,.3603516-.0771484,.4624023l12.1054688,29.1455078c.0498047,.1035156,.0761719,.2578125,.0761719,.4628906,0,.4121094-.2578125,.6166992-.7705078,.6166992h-9.6376953c-.5664062,0-.9257812-.2314453-1.0800781-.6938477l-8.0185547-20.2016602c-.0517578-.1538086-.1289062-.2177734-.2314453-.1923828-.1035156,.0263672-.2060547,.090332-.3085938,.1923828l-2.2353516,4.0097656c-.1044922,.2060547-.1542969,.3603516-.1542969,.4624023v15.4980469c0,.2578125-.0908203,.4760742-.2705078,.6552734-.1806641,.1806641-.3984375,.2700195-.6552734,.2700195h-9.0214844c-.2578125,0-.4755859-.0893555-.6552734-.2700195Z"/>
  </g>
</svg>