<svg id="Layer_1" data-name="Layer 1" xmlns="http://www.w3.org/2000/svg" viewBox="0 0 288 258"><defs><style>.cls-1{fill:#af017f;}.cls-2{fill:#030303;}</style></defs><title>turi</title><path class="cls-1" d="M284.2051,104.42839a48.39458,48.39458,0,0,0-7.45259,8.3642c-2.51174,3.38985-4.73967,6.98347-7.36679,10.29081-6.49887,8.18169-15.01847,13.20894-24.97567,15.99059q-3.01693.84279-6.08867,1.45493c-.44118.087-.95728.19412-1.0701.75308-.09741.48259.22485.80332.565,1.07153,6.41584,5.05874,9.50525,12.02488,11.32464,19.72267,1.02452,4.33468,1.26366,8.80258,2.27666,13.14259,2.01014,8.612,5.37755,16.53216,11.48338,23.1028a12.9738,12.9738,0,0,0,3.0356,2.49792c.7716.44224,1.4985.964,2.27768,1.3913a5.48047,5.48047,0,0,1,3.01366,5.05367,65.805,65.805,0,0,0,4.02193,20.39728,25.70429,25.70429,0,0,1,1.39805,6.094c.19441,1.71614-.26842,2.55772-1.87509,3.12568a7.593,7.593,0,0,1-2.03015.45191,36.63192,36.63192,0,0,1-8.10056-.41179c-1.47574-.23833-1.70151-.67623-1.453-2.16709a24.63594,24.63594,0,0,1,.87089-3.24376,2.06972,2.06972,0,0,1,1.07021-1.311c1.832-.89516,2.08866-2.43476,1.76584-4.21912a57.70867,57.70867,0,0,0-2.81994-9.91374c-.63629-1.70362-1.38837-3.35455-2.1915-4.98745a13.79454,13.79454,0,0,0-6.03022-6.23489c-2.012-1.075-4.01657-2.164-6.03193-3.23258a33.35744,33.35744,0,0,1-6.86008-4.72935,42.77333,42.77333,0,0,0-11.22492-6.91077,17.98744,17.98744,0,0,1-4.911-3.20961c-2.89417-2.698-3.35337-2.601-5.45413.74017a100.58091,100.58091,0,0,0-5.52479,10.19119,9.54284,9.54284,0,0,0-.8054,5.75328,22.59019,22.59019,0,0,1,.12634,4.523,5.69014,5.69014,0,0,1-1.38511,3.48919c-5.7128,6.78217-11.3902,13.59424-17.12033,20.36167a7.87823,7.87823,0,0,1-7.05395,3.04006,26.36431,26.36431,0,0,1-6.16164-1.03261c-1.38865-.47373-1.49307-.831-.79867-2.08845.39251-.71077.76107-1.43489,1.1602-2.14185a3.918,3.918,0,0,1,4.57846-2.11962,5.26374,5.26374,0,0,0,4.29371-1.11295c7.1146-4.733,9.56292-11.89483,10.43809-19.83034a12.2126,12.2126,0,0,0-1.53712-6.70811c-.50092-1.00169-1.09157-1.9584-1.63792-2.93752-1.45081-2.6-3.72222-3.43225-6.56584-3.08629a33.83643,33.83643,0,0,0-11.9299,4.3,85.30264,85.30264,0,0,0-20.6842,15.21467,17.46582,17.46582,0,0,0-2.2539,2.80067,4.191,4.191,0,0,0-.77794,2.38744,3.43909,3.43909,0,0,1-1.49156,2.99449c-3.61938,2.59667-7.11969,5.34283-10.558,8.1759-1.77028,1.45862-3.96577,2.23286-5.99546,3.2691a20.77646,20.77646,0,0,0-3.13,1.75589,42.2489,42.2489,0,0,1-9.01939,4.97566,52.88351,52.88351,0,0,0-7.46787,4.21136c-1.04395.66191-2.10764,1.2996-3.20118,1.87446a5.02061,5.02061,0,0,0-2.60574,2.30546,3.215,3.215,0,0,1-2.66179,1.663,88.50665,88.50665,0,0,1-10.65341.71136c-.85-.0174-1.13049-.322-1.28443-1.08426a3.78638,3.78638,0,0,1,.96265-3.53316,6.58486,6.58486,0,0,1,5.18005-2.44631,7.78069,7.78069,0,0,0,3.87321-1.00324c2.58688-1.31516,4.622-3.36856,6.84892-5.16125,5.60981-4.516,11.35243-8.87351,16.70208-13.70245a33.52542,33.52542,0,0,0,5.28022-6.00531c.21758-.31965.42728-.64621.61786-.9825,1.84986-3.26415.78886-5.219-2.95027-5.38916-6.82309-.31054-12.26049,2.40484-16.42837,7.71184a10.63522,10.63522,0,0,1-3.21486,2.77369,109.5,109.5,0,0,1-15.05021,6.64528,28.83928,28.83928,0,0,0-8.07373,4.46156c-1.02262.82631-2.15143,1.52077-3.17882,2.3417-5.35265,4.277-11.78645,6.24728-18.126,8.32736-3.35055,1.09938-6.91123.63413-10.37268.14915-1.36611-.1914-1.61655-.87048-1.1508-2.16424.67631-1.87866,1.8128-3.11011,3.93921-3.16537.57829-.015,1.15385-.14844,1.73187-.15859a17.27641,17.27641,0,0,0,10.43423-3.88641c8.992-6.85082,18.17905-13.446,27.15564-20.31643A30.55531,30.55531,0,0,0,115.03,195.63528c1.189-5.35013-.36491-10.18667-3.9891-14.31489a8.52467,8.52467,0,0,1-.94645-1.31126,99.42072,99.42072,0,0,0-6.52231-10.28608,28.5573,28.5573,0,0,0-8.60826-7.32957,6.32945,6.32945,0,0,0-2.30474-.73732,9.52471,9.52471,0,0,1-4.975-2.32338,24.77944,24.77944,0,0,0-8.90394-5.27446c-4.69349-1.44956-9.83186-8.19318-7.3899-15.51052.46409-1.39065,1.00285-2.75455,1.37448-4.18221a2.4753,2.4753,0,0,1,3.25156-1.65293c3.18655.79774,6.35914,1.65252,9.52981,2.51206a12.27661,12.27661,0,0,0,7.63572-.128,6.81756,6.81756,0,0,0,2.71594-1.4981,5.20492,5.20492,0,0,1,4.01358-1.495c9.40844.04445,17.80141,2.842,24.83169,9.26877a30.25678,30.25678,0,0,0,5.31186,3.92123,38.678,38.678,0,0,1,5.69768,4.19677A28.182,28.182,0,0,0,153.5728,156.387c4.32212.15069,8.31251-1.15963,12.28558-2.56276,5.3464-1.88816,10.21473-4.75156,15.18143-7.43961a104.30338,104.30338,0,0,1,30.60859-11.11388c5.69975-1.06116,11.48132-1.67635,17.1472-2.95174a109.37192,109.37192,0,0,0,24.68757-8.5848c5.01592-2.48591,9.17266-6.16092,13.38849-9.74823,3.74432-3.18608,7.40847-6.4741,11.66287-8.99782a26.405,26.405,0,0,1,4.06858-1.95919,1.42728,1.42728,0,0,1,1.602.23709Z"/><path class="cls-1" d="M214.00086,7.02582a11.92274,11.92274,0,0,1,2.75851,1.78638,5.88447,5.88447,0,0,1,.71465,6.98405,5.80326,5.80326,0,0,1-6.29046,2.63443A5.71691,5.71691,0,0,1,206.7625,13.382a5.79078,5.79078,0,0,1,3.73034-6.04353c.24212-.094.55533-.03582.71845-.31262Z"/><path class="cls-2" d="M158.95555,57.22414A41.13483,41.13483,0,0,1,162.44169,49.86c3.54083-5.65738,8.25087-9.77757,14.92145-11.31574a25.96638,25.96638,0,0,1,8.65428-.31345c.69741.074.86419.38306.84278,1.05065-.05207,1.62546-.06519,3.25573.00274,4.88.03567.85283-.13966,1.14986-1.05877.99482a18.20261,18.20261,0,0,0-7.70835.36628c-5.78419,1.515-9.76876,5.3117-12.791,10.24913a47.02956,47.02956,0,0,0-6.17441,18.79187,74.80446,74.80446,0,0,0-.41879,9.85245c.01118,7.24457.02308,14.48929-.01978,21.73363-.00579.97759.27563,1.21817,1.22238,1.20235,3.36954-.05629,6.74093.00391,10.11081-.0408.80875-.01072,1.07536.20319,1.02887,1.0253a29.39811,29.39811,0,0,0,.00275,3.71664c.069.97968-.16124,1.28527-1.228,1.27937-9.2976-.0515-18.59558-.02532-27.89346-.03149-5.07432-.00337-10.14929.02089-15.22277-.05122-4.6828-.06657-7.5231-2.51258-8.17714-6.90524a10.4669,10.4669,0,0,1-.07528-1.5061c-.00718-2.45809-.00325-4.91623-.00325-7.39015-.35206.08545-.379.43011-.52793.67366-6.8527,11.20853-16.88752,16.7519-29.98476,16.7503A28.85466,28.85466,0,0,1,77.0405,112.9377c-6.69351-2.70334-10.145-8.02444-11.82657-14.75957A51.2322,51.2322,0,0,1,63.88,85.86391q-.06-19.52537.01009-39.051c.00289-1.00355-.20942-1.26549-1.24514-1.26171q-17.66574.06452-35.33174.00049c-1.0093-.00359-1.166.29373-1.16378,1.21666.03166,13.13317.00322,26.26648.033,39.39967a29.18323,29.18323,0,0,0,2.082,11.10219c3.13644,7.65606,9.63584,10.51806,17.13385,9.82094,1.89493-.17618,1.88923-.23751,1.88923,1.63359,0,1.23972-.05247,2.4825.01993,3.718.04253.72585-.26247.95711-.893,1.0163-11.36921,1.06705-22.54442-2.97234-26.00379-17.2974A45.20624,45.20624,0,0,1,19.315,85.56316q-.02748-19.40928.01738-38.81855c.0028-.98139-.25168-1.20429-1.2071-1.19043-3.9895.05786-7.98045.00868-11.97055.03949-.6809.00526-.95474-.11585-.92738-.87522.06133-1.7024.06359-3.41021-.00072-5.11239-.02933-.77621.27648-.8707.93823-.86628,3.99016.02663,7.98113-.02239,11.97055.03828.99574.01515,1.20121-.29,1.19437-1.232-.04335-5.96582.00068-11.93229-.0454-17.89807-.00727-.94155.26917-1.18052,1.16728-1.1391,1.54636.0713,3.10048.0679,4.64719.00056.84443-.03676,1.10478.15869,1.09739,1.06725-.04881,6.00448.00048,12.00977-.05106,18.0142-.00839.97722.24084,1.18821,1.19839,1.18586,14.063-.0345,28.12605-.01089,42.189-.04991,1.04282-.00289,1.26058.27215,1.25825,1.28089q-.0526,22.77968-.01826,45.55952a40.26364,40.26364,0,0,0,1.43437,11.70482c1.93838,6.41647,6.59919,10.02032,13.2616,10.67253,14.44372,1.41395,26.09116-7.313,30.87809-20.86853a37.16206,37.16206,0,0,0,2.10605-12.4048c.01307-9.33658-.01276-18.67326.02944-28.00966.00434-.95908-.30286-1.111-1.15832-1.10178-3.95115.04245-7.90325-.00463-11.85441.03706-.86287.0091-1.23424-.1394-1.18038-1.11886.0913-1.66085.04574-3.33076.01369-4.996-.01076-.5591.17045-.73863.72514-.73746q9.76272.02048,19.52548-.00234c.59269-.00161.74024.23913.69132.75906-.0253.2688-.0044.54195-.0044.81314q0,31.32222.00009,62.64444c0,3.18378,1.17083,4.37106,4.30907,4.37111,7.05089.00012,14.10188-.01853,21.15254.02185.95722.00548,1.21369-.24484,1.21223-1.21067q-.044-29.05579-.02246-58.11169c-.00009-2.09007-.33915-2.443-2.40978-2.44833-3.56416-.00923-7.12873-.02969-10.69228.01755-.83315.011-1.048-.2395-1.01889-1.04217.06028-1.66369.03944-3.3315.00672-4.99673-.01143-.5821.12854-.82765.76385-.81735,4.608.07472,9.22175-.166,13.824.11881,4.0514.2507,6.1228,2.47826,6.30486,6.58653.16109,3.63536-.10623,7.27952.20085,10.91286C158.88557,56.53364,158.90463,56.70627,158.95555,57.22414Z"/><path class="cls-2" d="M215.90128,73.0235c0,11.03944.01283,22.07891-.02242,33.11824-.00308.96651.25541,1.2254,1.2132,1.21072,3.64023-.05576,7.28245.01421,10.92248-.04738.95-.01609,1.16417.28587,1.11638,1.16359-.07147,1.31309-.06043,2.63484-.00169,3.9492.03154.706-.14891.91625-.88378.90415-2.86563-.04722-5.73246-.01927-8.59885-.01927-7.592,0-15.18412-.01291-22.776.01914-.79635.00336-1.06986-.166-1.02349-1.00023a36.53246,36.53246,0,0,0-.00043-4.06488c-.0455-.81132.25921-.94775.98161-.94143,3.64079.03191,7.28258-.0207,10.92273.03739,1.01885.01625,1.35747-.19578,1.35531-1.30682q-.05776-29.632-.00644-59.26419c.00133-.93331-.1737-1.24553-1.17764-1.22932-3.94993.06381-7.90174.00258-11.85223.04521-.831.009-1.16344-.143-1.11806-1.06325.08191-1.66156.04746-3.3306.01047-4.99538-.01352-.60817.17737-.79824.78556-.79661,6.46868.01744,12.9375.02755,19.406-.00626,1.03742-.00542.73889.66372.73938,1.16907Q215.90894,56.46432,215.90128,73.0235Z"/></svg>