<?xml version="1.0" encoding="UTF-8" standalone="no"?>
<!-- Created with Inkscape (http://www.inkscape.org/) -->

<svg
   xmlns:dc="http://purl.org/dc/elements/1.1/"
   xmlns:cc="http://creativecommons.org/ns#"
   xmlns:rdf="http://www.w3.org/1999/02/22-rdf-syntax-ns#"
   xmlns:svg="http://www.w3.org/2000/svg"
   xmlns="http://www.w3.org/2000/svg"
   xmlns:sodipodi="http://sodipodi.sourceforge.net/DTD/sodipodi-0.dtd"
   xmlns:inkscape="http://www.inkscape.org/namespaces/inkscape"
   width="497.19601mm"
   height="213.96391mm"
   viewBox="0 0 497.19601 213.96391"
   version="1.1"
   id="svg883"
   inkscape:version="0.92.3 (2405546, 2018-03-11)"
   sodipodi:docname="uima.svg">
  <defs
     id="defs877" />
  <sodipodi:namedview
     id="base"
     pagecolor="#ffffff"
     bordercolor="#666666"
     borderopacity="1.0"
     inkscape:pageopacity="0.0"
     inkscape:pageshadow="2"
     inkscape:zoom="0.49497475"
     inkscape:cx="1556.6367"
     inkscape:cy="325.71433"
     inkscape:document-units="mm"
     inkscape:current-layer="layer1"
     showgrid="false"
     fit-margin-top="0"
     fit-margin-left="0"
     fit-margin-right="0"
     fit-margin-bottom="0"
     inkscape:window-width="3726"
     inkscape:window-height="2049"
     inkscape:window-x="114"
     inkscape:window-y="55"
     inkscape:window-maximized="1">
    <inkscape:grid
       type="xygrid"
       id="grid1538"
       originx="531.67859"
       originy="-61.988083" />
  </sodipodi:namedview>
  <metadata
     id="metadata880">
    <rdf:RDF>
      <cc:Work
         rdf:about="">
        <dc:format>image/svg+xml</dc:format>
        <dc:type
           rdf:resource="http://purl.org/dc/dcmitype/StillImage" />
        <dc:title></dc:title>
      </cc:Work>
    </rdf:RDF>
  </metadata>
  <g
     inkscape:label="Layer 1"
     inkscape:groupmode="layer"
     id="layer1"
     transform="translate(531.67859,-21.048012)">
    <rect
       style="opacity:1;fill:#49830d;fill-opacity:1;stroke:#3a3a3a;stroke-width:2;stroke-linecap:round;stroke-linejoin:bevel;stroke-miterlimit:4;stroke-dasharray:none;stroke-opacity:0.85411766"
       id="rect1439"
       width="83.154762"
       height="83.154762"
       x="-530.67859"
       y="43" />
    <rect
       style="opacity:1;fill:#253d93;fill-opacity:1;stroke:#3a3a3a;stroke-width:2;stroke-linecap:round;stroke-linejoin:bevel;stroke-miterlimit:4;stroke-dasharray:none;stroke-opacity:0.85411766"
       id="rect1439-8"
       width="83.154762"
       height="83.154762"
       x="-530.67859"
       y="130.38806" />
    <rect
       style="opacity:1;fill:#e89800;fill-opacity:1;stroke:#3a3a3a;stroke-width:2;stroke-linecap:round;stroke-linejoin:bevel;stroke-miterlimit:4;stroke-dasharray:none;stroke-opacity:0.85411766"
       id="rect1439-9"
       width="83.154762"
       height="83.154762"
       x="-439.7901"
       y="-72.769646"
       transform="rotate(-15)" />
    <rect
       style="opacity:1;fill:#d80028;fill-opacity:1;stroke:#3a3a3a;stroke-width:2;stroke-linecap:round;stroke-linejoin:bevel;stroke-miterlimit:4;stroke-dasharray:none;stroke-opacity:0.85411766"
       id="rect1439-8-0"
       width="83.154762"
       height="83.154762"
       x="-443.29044"
       y="130.38806" />
    <g
       aria-label="i"
       transform="rotate(-15)"
       style="font-style:normal;font-variant:normal;font-weight:normal;font-stretch:normal;font-size:96.91466522px;line-height:125%;font-family:Montserrat;-inkscape-font-specification:Montserrat;letter-spacing:0px;word-spacing:0px;fill:#253d93;fill-opacity:1;stroke:none;stroke-width:3.52416945px;stroke-linecap:butt;stroke-linejoin:miter;stroke-opacity:1"
       id="text1476">
      <path
         d="m -389.48316,-64.946482 q 2.93394,0 4.92145,2.034829 2.03483,2.03483 2.03483,4.921448 0,2.886619 -2.03483,4.921448 -2.03483,2.03483 -4.92145,2.03483 -2.83929,0 -4.87412,-2.03483 -2.03483,-2.034829 -2.03483,-4.921448 0,-2.886618 1.98751,-4.921448 2.03483,-2.034829 4.92144,-2.034829 z m 2.93394,21.767942 -9.70093,33.6456679 q -0.80446,2.8866184 -0.80446,3.7857291 0,0.5205378 0.42589,0.9937539 0.42589,0.4258945 0.89911,0.4258945 0.80447,0 1.60894,-0.7098242 2.12947,-1.7508997 5.11073,-6.3410962 l 1.60893,0.946432 q -7.14556,12.4455847 -15.19023,12.4455847 -3.07591,0 -4.92145,-1.70357812 -1.79822,-1.75089968 -1.79822,-4.40091008 0,-1.7508997 0.80446,-4.4482317 l 6.57771,-22.6197318 q 0.94643,-3.265191 0.94643,-4.921447 0,-1.041076 -0.89911,-1.845543 -0.89911,-0.804468 -2.46072,-0.804468 -0.70983,0 -1.70358,0.04732 l 0.61518,-1.892865 16.04203,-2.602689 z"
         style="font-style:italic;font-variant:normal;font-weight:bold;font-stretch:normal;font-family:'Times New Roman';-inkscape-font-specification:'Times New Roman, Bold Italic';fill:#253d93;fill-opacity:1;stroke-width:3.52416945px"
         id="path1618" />
    </g>
    <g
       aria-label="M"
       transform="scale(0.90235622,1.1082098)"
       style="font-style:normal;font-variant:normal;font-weight:normal;font-stretch:normal;font-size:87.45155334px;line-height:125%;font-family:Montserrat;-inkscape-font-specification:Montserrat;letter-spacing:0px;word-spacing:0px;fill:#e89800;fill-opacity:1;stroke:none;stroke-width:3.1800561px;stroke-linecap:butt;stroke-linejoin:miter;stroke-opacity:1"
       id="text1476-8">
      <path
         d="m -551.14309,126.55977 4.2701,39.79729 27.54211,-39.79729 h 20.28295 l -0.51241,1.57994 q -4.18469,0 -6.36244,1.79344 -2.17775,1.79344 -3.71498,7.08836 l -10.67524,37.06442 q -1.02482,3.50148 -1.02482,5.20952 0,1.57993 1.28103,2.56206 1.28102,0.93942 5.03871,1.02482 l -0.38431,1.57994 h -28.90855 l 0.51242,-1.57994 q 4.6544,0 6.87485,-1.75074 2.22045,-1.79344 3.75768,-7.04566 l 10.88875,-37.53414 -33.13594,47.91048 h -1.75074 l -5.20952,-48.8499 -11.05955,38.47356 q -0.68321,2.34856 -0.68321,3.92849 0,2.13505 1.45183,3.45878 1.49453,1.28103 5.03871,1.40913 l -0.42701,1.57994 h -19.13002 l 0.3843,-1.57994 q 3.45878,-0.1281 5.29492,-1.45183 3.24528,-2.39126 4.69711,-7.34457 l 12.51138,-42.78635 q -1.79344,-1.96425 -3.24528,-2.56206 -1.40913,-0.59781 -4.7825,-0.59781 l 0.51241,-1.57994 z"
         style="font-style:italic;font-variant:normal;font-weight:bold;font-stretch:normal;font-family:'Times New Roman';-inkscape-font-specification:'Times New Roman, Bold Italic';fill:#e89800;fill-opacity:1;stroke-width:3.1800561px"
         id="path1612" />
    </g>
    <g
       aria-label="A"
       transform="scale(0.97922717,1.0212135)"
       style="font-style:normal;font-variant:normal;font-weight:normal;font-stretch:normal;font-size:94.90148163px;line-height:125%;font-family:Montserrat;-inkscape-font-specification:Montserrat;letter-spacing:0px;word-spacing:0px;fill:#49830d;fill-opacity:1;stroke:none;stroke-width:3.45096254px;stroke-linecap:butt;stroke-linejoin:miter;stroke-opacity:1"
       id="text1476-8-8">
      <path
         d="m -391.63012,204.17833 -6.16859,-14.33012 h -27.80614 l -6.16859,14.33012 h -15.75365 l 28.66025,-66.33614 h 14.33012 l 28.66025,66.33614 z m -20.02421,-46.59663 -8.35133,19.265 h 16.60776 z"
         style="font-style:normal;font-variant:normal;font-weight:bold;font-stretch:normal;font-family:Montserrat;-inkscape-font-specification:'Montserrat Bold';fill:#49830d;fill-opacity:1;stroke-width:3.45096254px"
         id="path1609" />
    </g>
    <g
       aria-label="U"
       transform="scale(0.97922717,1.0212135)"
       style="font-style:normal;font-variant:normal;font-weight:normal;font-stretch:normal;font-size:94.90148163px;line-height:125%;font-family:Montserrat;-inkscape-font-specification:Montserrat;letter-spacing:0px;word-spacing:0px;fill:#d80028;fill-opacity:1;stroke:none;stroke-width:3.45096254px;stroke-linecap:butt;stroke-linejoin:miter;stroke-opacity:1"
       id="text1476-8-8-4">
      <path
         d="m -532.52605,52.265067 h 32.43703 v 1.714528 h -1.62185 q -3.66075,0 -5.05091,0.787757 -1.34382,0.741418 -1.94622,2.085237 -0.55607,1.34382 -0.55607,6.7191 v 30.768839 q 0,8.433632 1.25115,11.167602 1.29748,2.73398 4.21681,4.54119 2.91933,1.8072 7.36784,1.8072 5.09725,0 8.66532,-2.27059 3.61441,-2.31693 5.37528,-6.34839 1.8072,-4.031457 1.8072,-14.040598 V 63.571689 q 0,-4.216814 -0.88043,-6.02402 -0.88043,-1.807206 -2.22425,-2.502285 -2.08524,-1.065789 -5.88501,-1.065789 v -1.714528 h 21.73281 v 1.714528 h -1.29748 q -2.6413,0 -4.40217,1.065789 -1.76086,1.065788 -2.54862,3.197364 -0.6024,1.482836 -0.6024,5.328941 v 23.864386 q 0,11.074929 -1.48284,15.986825 -1.43649,4.91189 -7.08981,9.03603 -5.65331,4.12413 -15.43075,4.12413 -8.1556,0 -12.60411,-2.17791 -6.07036,-2.96567 -8.57264,-7.59953 -2.50229,-4.63387 -2.50229,-12.465092 V 63.571689 q 0,-5.421618 -0.6024,-6.7191 -0.6024,-1.343819 -2.08524,-2.131576 -1.48283,-0.787756 -5.46795,-0.741418 z"
         style="font-style:normal;font-variant:normal;font-weight:bold;font-stretch:normal;font-family:'Times New Roman';-inkscape-font-specification:'Times New Roman,  Bold';fill:#d80028;fill-opacity:1;stroke-width:3.45096254px"
         id="path1615" />
    </g>
    <g
       aria-label="TM"
       style="font-style:normal;font-variant:normal;font-weight:normal;font-stretch:normal;font-size:17.00933456px;line-height:125%;font-family:Montserrat;-inkscape-font-specification:Montserrat;letter-spacing:0px;word-spacing:0px;fill:#000000;fill-opacity:1;stroke:none;stroke-width:0.61852121px;stroke-linecap:butt;stroke-linejoin:miter;stroke-opacity:1"
       id="text1534">
      <path
         d="m -371.38157,224.9594 v 10.05252 h -2.0071 V 224.9594 h -3.60598 v -1.83701 h 9.21906 v 1.83701 z"
         style="stroke-width:0.61852121px"
         id="path1604" />
      <path
         d="m -363.59954,235.01192 h -2.0071 v -11.88953 h 3.12972 l 3.58897,7.4671 3.58897,-7.4671 h 3.11271 v 11.88953 h -2.0071 v -9.2871 l -4.15028,8.24953 h -1.12262 l -4.13327,-8.24953 z"
         style="stroke-width:0.61852121px"
         id="path1606" />
    </g>
    <rect
       style="opacity:1;fill:#000000;fill-opacity:1;stroke:none;stroke-width:1.80829394;stroke-linecap:round;stroke-linejoin:bevel;stroke-miterlimit:4;stroke-dasharray:none;stroke-opacity:0.85411766"
       id="rect1536"
       width="6.17732"
       height="190.5"
       x="-325.94519"
       y="21.833334" />
    <g
       aria-label="Unstructured
Information
Management
Architecture"
       style="font-style:normal;font-variant:normal;font-weight:normal;font-stretch:normal;font-size:26.64597893px;line-height:125%;font-family:Montserrat;-inkscape-font-specification:Montserrat;letter-spacing:0px;word-spacing:0px;fill:#33418f;fill-opacity:1;stroke:none;stroke-width:0.96894467px;stroke-linecap:butt;stroke-linejoin:miter;stroke-opacity:1"
       id="text1542">
      <path
         d="m -303.27364,48.426948 q 1.9844,2.315132 5.37442,2.315132 3.39001,0 5.37441,-2.315132 1.9844,-2.315132 1.9844,-6.283929 V 26.143804 h 4.87831 v 16.205923 q 0,6.242588 -3.43135,9.632602 -3.43136,3.348673 -8.80577,3.348673 -5.37442,0 -8.80577,-3.348673 -3.43136,-3.390014 -3.43136,-9.632602 V 26.143804 h 4.87831 v 15.999215 q 0,3.968797 1.9844,6.283929 z"
         style="font-size:41.34164047px;fill:#33418f;fill-opacity:1;stroke-width:0.96894467px"
         id="path1621" />
      <path
         d="m -274.30477,43.135218 v 11.906393 h -4.63027 V 33.047858 h 4.63027 v 4.010139 q 1.11622,-2.02574 3.05928,-3.183306 1.9844,-1.157566 4.25819,-1.157566 3.72074,0 5.99453,2.27379 2.31514,2.27379 2.31514,6.573321 v 13.477375 h -4.63027 V 42.969852 q 0,-6.077221 -5.04368,-6.077221 -2.39781,0 -4.1755,1.612324 -1.77769,1.570982 -1.77769,4.630263 z"
         style="font-size:41.34164047px;fill:#33418f;fill-opacity:1;stroke-width:0.96894467px"
         id="path1623" />
      <path
         d="m -236.53983,48.46829 q 0,3.141965 -2.27379,5.04368 -2.27379,1.860374 -5.82917,1.860374 -2.39782,0 -5.00234,-0.868175 -2.56318,-0.868174 -4.54758,-2.439156 l 2.23245,-3.596723 q 3.84477,2.893915 7.44149,2.893915 1.57099,0 2.4805,-0.702808 0.90952,-0.74415 0.90952,-1.860374 0,-1.653666 -4.38222,-2.976598 -0.33073,-0.124025 -0.49609,-0.165367 -6.86272,-1.860373 -6.86272,-6.201246 0,-3.059281 2.35648,-4.878313 2.39781,-1.860374 6.20124,-1.860374 3.80343,0 7.19345,2.232448 l -1.73635,3.431357 q -2.68721,-1.777691 -5.82917,-1.777691 -1.65367,0 -2.68721,0.620125 -1.03354,0.578783 -1.03354,1.77769 0,1.074883 1.07488,1.570983 0.74415,0.372074 2.06708,0.702807 1.36428,0.330734 2.39782,0.661467 1.03354,0.330733 1.9844,0.744149 0.9922,0.413417 2.10842,1.157566 2.23245,1.488299 2.23245,4.630264 z"
         style="font-size:41.34164047px;fill:#33418f;fill-opacity:1;stroke-width:0.96894467px"
         id="path1625" />
      <path
         d="m -225.59011,36.768606 v 11.162243 q 0,1.570982 0.82683,2.52184 0.82684,0.909516 2.31514,0.909516 1.48829,0 2.85257,-1.446958 l 1.90171,3.26599 q -2.43915,2.191107 -5.41575,2.191107 -2.93526,0 -5.04368,-2.025741 -2.06708,-2.067082 -2.06708,-5.539779 V 36.768606 h -2.76989 v -3.720748 h 2.76989 v -6.904054 h 4.63026 v 6.904054 h 5.78783 v 3.720748 z"
         style="font-size:41.34164047px;fill:#33418f;fill-opacity:1;stroke-width:0.96894467px"
         id="path1627" />
      <path
         d="m -202.48142,37.38873 q -3.43136,0 -5.1677,2.232449 -1.73635,2.232448 -1.73635,5.994538 v 9.425894 h -4.63027 V 33.047858 h 4.63027 v 4.423556 q 1.11622,-2.067083 3.01794,-3.390015 1.94305,-1.322932 4.09282,-1.364274 l 0.0413,4.671605 q -0.12402,0 -0.24805,0 z"
         style="font-size:41.34164047px;fill:#33418f;fill-opacity:1;stroke-width:0.96894467px"
         id="path1629" />
      <path
         d="M -182.24534,44.95425 V 33.047858 h 4.63027 v 21.993753 h -4.63027 v -4.010139 q -1.11622,2.02574 -3.10062,3.183306 -1.94306,1.157566 -4.21685,1.157566 -3.72074,0 -6.03588,-2.27379 -2.27379,-2.273791 -2.27379,-6.573321 V 33.047858 h 4.63027 v 12.071759 q 0,6.077221 5.04368,6.077221 2.39781,0 4.1755,-1.570982 1.77769,-1.612324 1.77769,-4.671606 z"
         style="font-size:41.34164047px;fill:#33418f;fill-opacity:1;stroke-width:0.96894467px"
         id="path1631" />
      <path
         d="m -161.14107,55.372344 q -4.58892,0 -7.89625,-3.100623 -3.30733,-3.141965 -3.30733,-8.185645 0,-5.04368 3.43135,-8.185645 3.4727,-3.183306 8.4337,-3.183306 4.96099,0 8.39235,3.431356 l -2.72855,3.348673 q -2.85257,-2.480499 -5.74649,-2.480499 -2.89391,0 -5.04368,1.943058 -2.10842,1.901715 -2.10842,4.960996 0,3.01794 2.10842,5.126364 2.10843,2.108424 5.16771,2.108424 3.10062,0 5.82917,-2.811232 l 2.72855,2.976598 q -4.01014,4.051481 -9.26053,4.051481 z"
         style="font-size:41.34164047px;fill:#33418f;fill-opacity:1;stroke-width:0.96894467px"
         id="path1633" />
      <path
         d="m -141.37266,36.768606 v 11.162243 q 0,1.570982 0.82683,2.52184 0.82683,0.909516 2.31513,0.909516 1.4883,0 2.85257,-1.446958 l 1.90172,3.26599 q -2.43916,2.191107 -5.41576,2.191107 -2.93525,0 -5.04368,-2.025741 -2.06708,-2.067082 -2.06708,-5.539779 V 36.768606 h -2.76989 v -3.720748 h 2.76989 v -6.904054 h 4.63027 v 6.904054 h 5.78783 v 3.720748 z"
         style="font-size:41.34164047px;fill:#33418f;fill-opacity:1;stroke-width:0.96894467px"
         id="path1635" />
      <path
         d="M -114.41921,44.95425 V 33.047858 h 4.63026 v 21.993753 h -4.63026 v -4.010139 q -1.11622,2.02574 -3.10062,3.183306 -1.94306,1.157566 -4.21685,1.157566 -3.72075,0 -6.03588,-2.27379 -2.27379,-2.273791 -2.27379,-6.573321 V 33.047858 h 4.63026 v 12.071759 q 0,6.077221 5.04368,6.077221 2.39782,0 4.17551,-1.570982 1.77769,-1.612324 1.77769,-4.671606 z"
         style="font-size:41.34164047px;fill:#33418f;fill-opacity:1;stroke-width:0.96894467px"
         id="path1637" />
      <path
         d="m -91.537252,37.38873 q -3.431356,0 -5.167705,2.232449 -1.736349,2.232448 -1.736349,5.994538 v 9.425894 h -4.630264 V 33.047858 h 4.630264 v 4.423556 q 1.116225,-2.067083 3.01794,-3.390015 1.943057,-1.322932 4.092822,-1.364274 l 0.04134,4.671605 q -0.124025,0 -0.24805,0 z"
         style="font-size:41.34164047px;fill:#33418f;fill-opacity:1;stroke-width:0.96894467px"
         id="path1639" />
      <path
         d="M -66.216146,46.070475 H -83.45561 q 0.165367,2.397815 2.191107,3.886114 2.02574,1.446957 4.630264,1.446957 4.134164,0 6.283929,-2.604523 l 2.645865,2.893915 q -3.555381,3.679406 -9.260527,3.679406 -4.630264,0 -7.896254,-3.059282 -3.224648,-3.100623 -3.224648,-8.268328 0,-5.209046 3.307332,-8.268328 3.307331,-3.059281 7.772228,-3.059281 4.506239,0 7.648204,2.728548 3.141964,2.687207 3.141964,7.441495 z M -83.45561,42.43241 h 12.609201 q 0,-2.76989 -1.736349,-4.258189 -1.736349,-1.488299 -4.299531,-1.488299 -2.52184,0 -4.54758,1.570983 -2.025741,1.52964 -2.025741,4.175505 z"
         style="font-size:41.34164047px;fill:#33418f;fill-opacity:1;stroke-width:0.96894467px"
         id="path1641" />
      <path
         d="m -52.193588,55.372344 q -4.175506,0 -7.276129,-3.141965 -3.100623,-3.141965 -3.100623,-8.268328 0,-5.126363 3.183306,-8.185645 3.183307,-3.059281 7.56552,-3.059281 4.423556,0 7.110763,3.720748 v -12.07176 h 4.630263 v 30.675498 h -4.630263 v -3.307332 q -2.563182,3.638065 -7.482837,3.638065 z m -5.746488,-11.203585 q 0,3.141965 2.02574,5.126364 2.02574,1.984398 4.754289,1.984398 2.728548,0 4.630263,-1.984398 1.901716,-2.025741 1.901716,-5.167705 0,-3.141965 -1.901716,-5.250389 -1.901715,-2.108423 -4.671605,-2.108423 -2.76989,0 -4.754289,2.108423 -1.984398,2.108424 -1.984398,5.29173 z"
         style="font-size:41.34164047px;fill:#33418f;fill-opacity:1;stroke-width:0.96894467px"
         id="path1643" />
      <path
         d="m -309.76427,63.773175 h 4.87831 v 28.897807 h -4.87831 z"
         style="font-size:41.34164047px;fill:#33418f;fill-opacity:1;stroke-width:0.96894467px"
         id="path1645" />
      <path
         d="m -293.11845,80.76459 v 11.906392 h -4.63026 V 70.677229 h 4.63026 v 4.01014 q 1.11622,-2.025741 3.05928,-3.183307 1.9844,-1.157566 4.25819,-1.157566 3.72075,0 5.99454,2.273791 2.31513,2.27379 2.31513,6.57332 v 13.477375 h -4.63026 V 80.599223 q 0,-6.077221 -5.04368,-6.077221 -2.39782,0 -4.17551,1.612324 -1.77769,1.570982 -1.77769,4.630264 z"
         style="font-size:41.34164047px;fill:#33418f;fill-opacity:1;stroke-width:0.96894467px"
         id="path1647" />
      <path
         d="m -265.55908,68.858197 v 1.819032 h 5.78783 v 3.720748 h -5.78783 v 18.273005 h -4.63026 V 74.397977 h -2.76989 v -3.720748 h 2.76989 v -1.695007 q 0,-3.472698 2.06708,-5.498438 2.10842,-2.067082 5.04368,-2.067082 2.9766,0 5.41575,2.191107 l -1.90171,3.265989 q -1.36428,-1.446957 -2.85258,-1.446957 -1.48829,0 -2.31513,0.950858 -0.82683,0.909516 -0.82683,2.480498 z"
         style="font-size:41.34164047px;fill:#33418f;fill-opacity:1;stroke-width:0.96894467px"
         id="path1649" />
      <path
         d="m -250.71549,86.883152 q 1.9844,1.984399 5.00234,1.984399 3.01794,0 4.96099,-1.984399 1.9844,-2.02574 1.9844,-5.209046 0,-3.183307 -1.9844,-5.167705 -1.94305,-2.025741 -4.96099,-2.025741 -3.01794,0 -5.00234,2.025741 -1.94306,1.984398 -1.94306,5.167705 0,3.183306 1.94306,5.209046 z m 13.27066,2.852574 q -3.30733,3.265989 -8.26832,3.265989 -4.961,0 -8.26833,-3.265989 -3.30733,-3.307332 -3.30733,-8.06162 0,-4.754289 3.30733,-8.020278 3.30733,-3.307332 8.26833,-3.307332 4.96099,0 8.26832,3.307332 3.30734,3.265989 3.30734,8.020278 0,4.754288 -3.30734,8.06162 z"
         style="font-size:41.34164047px;fill:#33418f;fill-opacity:1;stroke-width:0.96894467px"
         id="path1651" />
      <path
         d="m -217.33857,75.018102 q -3.43136,0 -5.16771,2.232448 -1.73635,2.232449 -1.73635,5.994538 v 9.425894 h -4.63026 V 70.677229 h 4.63026 v 4.423556 q 1.11623,-2.067082 3.01794,-3.390015 1.94306,-1.322932 4.09282,-1.364274 l 0.0413,4.671606 q -0.12403,0 -0.24805,0 z"
         style="font-size:41.34164047px;fill:#33418f;fill-opacity:1;stroke-width:0.96894467px"
         id="path1653" />
      <path
         d="m -207.85132,80.76459 v 11.906392 h -4.63026 V 70.677229 h 4.63026 v 4.01014 q 0.9922,-2.025741 2.9766,-3.183307 2.02574,-1.157566 4.34087,-1.157566 5.20905,0 7.06942,4.299531 3.26599,-4.299531 8.14431,-4.299531 3.72074,0 5.99453,2.273791 2.31514,2.27379 2.31514,6.57332 v 13.477375 h -4.63027 V 80.599223 q 0,-6.077221 -5.04368,-6.077221 -2.35647,0 -4.13416,1.529641 -1.73635,1.488299 -1.81903,4.382214 v 12.237125 h -4.63027 V 80.599223 q 0,-3.141965 -1.11622,-4.588922 -1.11623,-1.488299 -3.51404,-1.488299 -2.39782,0 -4.17551,1.612324 -1.77769,1.570982 -1.77769,4.630264 z"
         style="font-size:41.34164047px;fill:#33418f;fill-opacity:1;stroke-width:0.96894467px"
         id="path1655" />
      <path
         d="m -152.75648,92.670982 h -4.21685 v -2.935256 q -2.72855,3.265989 -7.31747,3.265989 -3.43135,0 -5.70515,-1.943057 -2.23244,-1.943057 -2.23244,-5.167705 0,-3.265989 2.39781,-4.878313 2.39782,-1.612324 6.49064,-1.612324 h 5.99454 v -0.826833 q 0,-4.382214 -4.87832,-4.382214 -3.05928,0 -6.36661,2.232448 l -2.06708,-2.893914 q 4.01014,-3.183307 9.09516,-3.183307 3.88611,0 6.32527,1.984399 2.4805,1.943057 2.4805,6.159904 z m -4.63026,-8.185645 v -1.860373 h -5.20905 q -5.00234,0 -5.00234,3.141964 0,1.612324 1.24025,2.480499 1.24025,0.826832 3.43136,0.826832 2.23244,0 3.88611,-1.240249 1.65367,-1.240249 1.65367,-3.348673 z"
         style="font-size:41.34164047px;fill:#33418f;fill-opacity:1;stroke-width:0.96894467px"
         id="path1657" />
      <path
         d="M -140.80745,74.397977 V 85.56022 q 0,1.570982 0.82683,2.52184 0.82684,0.909516 2.31514,0.909516 1.4883,0 2.85257,-1.446957 l 1.90172,3.265989 q -2.43916,2.191107 -5.41576,2.191107 -2.93526,0 -5.04368,-2.02574 -2.06708,-2.067082 -2.06708,-5.53978 V 74.397977 h -2.76989 v -3.720748 h 2.76989 v -6.904054 h 4.63026 v 6.904054 h 5.78783 v 3.720748 z"
         style="font-size:41.34164047px;fill:#33418f;fill-opacity:1;stroke-width:0.96894467px"
         id="path1659" />
      <path
         d="m -124.60282,92.670982 h -4.63026 V 70.677229 h 4.63026 z m -4.34087,-26.375966 q -0.86818,-0.868175 -0.86818,-2.067083 0,-1.198907 0.86818,-2.067082 0.86817,-0.868174 2.06708,-0.868174 1.19891,0 2.06708,0.868174 0.86818,0.868175 0.86818,2.067082 0,1.198908 -0.86818,2.067083 -0.86817,0.868174 -2.06708,0.868174 -1.19891,0 -2.06708,-0.868174 z"
         style="font-size:41.34164047px;fill:#33418f;fill-opacity:1;stroke-width:0.96894467px"
         id="path1661" />
      <path
         d="m -112.80237,86.883152 q 1.9844,1.984399 5.00234,1.984399 3.01794,0 4.961,-1.984399 1.9844,-2.02574 1.9844,-5.209046 0,-3.183307 -1.9844,-5.167705 -1.94306,-2.025741 -4.961,-2.025741 -3.01794,0 -5.00234,2.025741 -1.94306,1.984398 -1.94306,5.167705 0,3.183306 1.94306,5.209046 z m 13.270668,2.852574 q -3.307328,3.265989 -8.268328,3.265989 -4.961,0 -8.26833,-3.265989 -3.30733,-3.307332 -3.30733,-8.06162 0,-4.754289 3.30733,-8.020278 3.30733,-3.307332 8.26833,-3.307332 4.961,0 8.268328,3.307332 3.307331,3.265989 3.307331,8.020278 0,4.754288 -3.307331,8.06162 z"
         style="font-size:41.34164047px;fill:#33418f;fill-opacity:1;stroke-width:0.96894467px"
         id="path1663" />
      <path
         d="m -86.329505,80.76459 v 11.906392 h -4.630263 V 70.677229 h 4.630263 v 4.01014 q 1.116225,-2.025741 3.059282,-3.183307 1.984399,-1.157566 4.258189,-1.157566 3.720747,0 5.994538,2.273791 2.315132,2.27379 2.315132,6.57332 v 13.477375 h -4.630264 V 80.599223 q 0,-6.077221 -5.04368,-6.077221 -2.397815,0 -4.175506,1.612324 -1.777691,1.570982 -1.777691,4.630264 z"
         style="font-size:41.34164047px;fill:#33418f;fill-opacity:1;stroke-width:0.96894467px"
         id="path1665" />
      <path
         d="m -304.88596,130.30035 h -4.87831 v -28.8978 h 7.60686 l 8.72308,18.14898 8.72309,-18.14898 h 7.56552 v 28.8978 h -4.87831 v -22.57253 l -10.08736,20.05069 h -2.72855 l -10.04602,-20.05069 z"
         style="font-size:41.34164047px;fill:#33418f;fill-opacity:1;stroke-width:0.96894467px"
         id="path1667" />
      <path
         d="m -251.99256,130.30035 h -4.21685 v -2.93525 q -2.72855,3.26599 -7.31747,3.26599 -3.43135,0 -5.70515,-1.94306 -2.23244,-1.94306 -2.23244,-5.16771 0,-3.26599 2.39781,-4.87831 2.39782,-1.61232 6.49064,-1.61232 h 5.99454 v -0.82684 q 0,-4.38221 -4.87832,-4.38221 -3.05928,0 -6.36661,2.23245 l -2.06708,-2.89392 q 4.01014,-3.1833 9.09516,-3.1833 3.88611,0 6.32527,1.9844 2.4805,1.94305 2.4805,6.1599 z m -4.63026,-8.18564 v -1.86038 h -5.20905 q -5.00234,0 -5.00234,3.14197 0,1.61232 1.24025,2.4805 1.24025,0.82683 3.43136,0.82683 2.23244,0 3.88611,-1.24025 1.65367,-1.24025 1.65367,-3.34867 z"
         style="font-size:41.34164047px;fill:#33418f;fill-opacity:1;stroke-width:0.96894467px"
         id="path1669" />
      <path
         d="m -240.87618,118.39396 v 11.90639 h -4.63026 V 108.3066 h 4.63026 v 4.01014 q 1.11622,-2.02574 3.05928,-3.18331 1.9844,-1.15756 4.25819,-1.15756 3.72075,0 5.99454,2.27379 2.31513,2.27379 2.31513,6.57332 v 13.47737 h -4.63026 v -12.07176 q 0,-6.07722 -5.04368,-6.07722 -2.39782,0 -4.17551,1.61233 -1.77769,1.57098 -1.77769,4.63026 z"
         style="font-size:41.34164047px;fill:#33418f;fill-opacity:1;stroke-width:0.96894467px"
         id="path1671" />
      <path
         d="m -200.96148,130.30035 h -4.21684 v -2.93525 q -2.72855,3.26599 -7.31747,3.26599 -3.43136,0 -5.70515,-1.94306 -2.23245,-1.94306 -2.23245,-5.16771 0,-3.26599 2.39782,-4.87831 2.39781,-1.61232 6.49063,-1.61232 h 5.99454 v -0.82684 q 0,-4.38221 -4.87831,-4.38221 -3.05928,0 -6.36661,2.23245 l -2.06709,-2.89392 q 4.01014,-3.1833 9.09517,-3.1833 3.88611,0 6.32527,1.9844 2.48049,1.94305 2.48049,6.1599 z m -4.63026,-8.18564 v -1.86038 h -5.20905 q -5.00233,0 -5.00233,3.14197 0,1.61232 1.24025,2.4805 1.24024,0.82683 3.43135,0.82683 2.23245,0 3.88612,-1.24025 1.65366,-1.24025 1.65366,-3.34867 z"
         style="font-size:41.34164047px;fill:#33418f;fill-opacity:1;stroke-width:0.96894467px"
         id="path1673" />
      <path
         d="m -174.13527,108.3066 v 19.18252 q 0,5.82917 -3.1833,8.72309 -3.14197,2.93525 -8.10297,2.93525 -4.96099,0 -8.97113,-3.10062 l 2.19111,-3.51404 q 3.22464,2.43916 6.49063,2.43916 3.30733,0 5.20905,-1.69501 1.94306,-1.69501 1.94306,-5.41575 v -2.81123 q -1.03354,1.94305 -2.9766,3.10062 -1.90172,1.15756 -4.29953,1.15756 -4.38222,0 -7.19345,-3.05928 -2.81123,-3.05928 -2.81123,-7.60686 0,-4.54758 2.81123,-7.60686 2.81123,-3.05928 7.15211,-3.05928 4.38221,0 7.11076,3.59672 v -3.26599 z m -17.15678,10.17004 q 0,2.68721 1.65367,4.67161 1.695,1.94306 4.50624,1.94306 2.85257,0 4.58892,-1.90172 1.77769,-1.90171 1.77769,-4.71295 0,-2.85257 -1.77769,-4.79563 -1.77769,-1.98439 -4.58892,-1.98439 -2.81124,0 -4.50624,2.02574 -1.65367,2.02574 -1.65367,4.75428 z"
         style="font-size:41.34164047px;fill:#33418f;fill-opacity:1;stroke-width:0.96894467px"
         id="path1675" />
      <path
         d="M -146.96154,121.32922 H -164.201 q 0.16536,2.39781 2.19111,3.88611 2.02574,1.44696 4.63026,1.44696 4.13416,0 6.28393,-2.60452 l 2.64586,2.89391 q -3.55538,3.67941 -9.26052,3.67941 -4.63027,0 -7.89626,-3.05928 -3.22465,-3.10063 -3.22465,-8.26833 0,-5.20905 3.30734,-8.26833 3.30733,-3.05928 7.77222,-3.05928 4.50624,0 7.64821,2.72855 3.14196,2.6872 3.14196,7.44149 z m -17.23946,-3.63807 h 12.6092 q 0,-2.76989 -1.73635,-4.25819 -1.73635,-1.48829 -4.29953,-1.48829 -2.52184,0 -4.54758,1.57098 -2.02574,1.52964 -2.02574,4.1755 z"
         style="font-size:41.34164047px;fill:#33418f;fill-opacity:1;stroke-width:0.96894467px"
         id="path1677" />
      <path
         d="m -137.27985,118.39396 v 11.90639 h -4.63027 V 108.3066 h 4.63027 v 4.01014 q 0.9922,-2.02574 2.9766,-3.18331 2.02574,-1.15756 4.34087,-1.15756 5.20904,0 7.06942,4.29953 3.26599,-4.29953 8.1443,-4.29953 3.72075,0 5.99454,2.27379 2.31513,2.27379 2.31513,6.57332 v 13.47737 h -4.63026 v -12.07176 q 0,-6.07722 -5.04368,-6.07722 -2.35648,0 -4.13417,1.52964 -1.73635,1.4883 -1.81903,4.38222 v 12.23712 h -4.63026 v -12.07176 q 0,-3.14196 -1.11623,-4.58892 -1.11622,-1.4883 -3.51404,-1.4883 -2.39781,0 -4.1755,1.61233 -1.77769,1.57098 -1.77769,4.63026 z"
         style="font-size:41.34164047px;fill:#33418f;fill-opacity:1;stroke-width:0.96894467px"
         id="path1679" />
      <path
         d="m -79.539144,121.32922 h -17.239464 q 0.165367,2.39781 2.191107,3.88611 2.02574,1.44696 4.630264,1.44696 4.134164,0 6.283929,-2.60452 l 2.645865,2.89391 q -3.555381,3.67941 -9.260527,3.67941 -4.630264,0 -7.896254,-3.05928 -3.224646,-3.10063 -3.224646,-8.26833 0,-5.20905 3.30733,-8.26833 3.307331,-3.05928 7.772228,-3.05928 4.506239,0 7.648204,2.72855 3.141964,2.6872 3.141964,7.44149 z m -17.239464,-3.63807 h 12.6092 q 0,-2.76989 -1.736348,-4.25819 -1.736349,-1.48829 -4.299531,-1.48829 -2.52184,0 -4.54758,1.57098 -2.025741,1.52964 -2.025741,4.1755 z"
         style="font-size:41.34164047px;fill:#33418f;fill-opacity:1;stroke-width:0.96894467px"
         id="path1681" />
      <path
         d="m -69.857443,118.39396 v 11.90639 h -4.630264 V 108.3066 h 4.630264 v 4.01014 q 1.116224,-2.02574 3.059281,-3.18331 1.984399,-1.15756 4.258189,-1.15756 3.720748,0 5.994538,2.27379 2.315132,2.27379 2.315132,6.57332 v 13.47737 h -4.630264 v -12.07176 q 0,-6.07722 -5.04368,-6.07722 -2.397815,0 -4.175506,1.61233 -1.77769,1.57098 -1.77769,4.63026 z"
         style="font-size:41.34164047px;fill:#33418f;fill-opacity:1;stroke-width:0.96894467px"
         id="path1683" />
      <path
         d="m -42.378828,112.02735 v 11.16224 q 0,1.57098 0.826832,2.52184 0.826833,0.90952 2.315132,0.90952 1.488299,0 2.852573,-1.44696 l 1.901716,3.26599 q -2.439157,2.19111 -5.415755,2.19111 -2.935256,0 -5.04368,-2.02574 -2.067082,-2.06709 -2.067082,-5.53978 v -11.03822 h -2.76989 v -3.72075 h 2.76989 v -6.90405 h 4.630264 v 6.90405 h 5.787829 v 3.72075 z"
         style="font-size:41.34164047px;fill:#33418f;fill-opacity:1;stroke-width:0.96894467px"
         id="path1685" />
      <path
         d="m -305.67145,161.3564 -2.89392,6.57332 h -5.20904 l 12.73322,-28.8978 h 5.20905 l 12.73322,28.8978 h -5.20904 l -2.89392,-6.57332 z m 12.48517,-4.50623 -5.25039,-11.9064 -5.25038,11.9064 z"
         style="font-size:41.34164047px;fill:#33418f;fill-opacity:1;stroke-width:0.96894467px"
         id="path1687" />
      <path
         d="m -268.20817,150.27684 q -3.43136,0 -5.16771,2.23245 -1.73635,2.23245 -1.73635,5.99454 v 9.42589 h -4.63026 v -21.99375 h 4.63026 v 4.42356 q 1.11623,-2.06708 3.01794,-3.39002 1.94306,-1.32293 4.09282,-1.36427 l 0.0413,4.6716 q -0.12402,0 -0.24804,0 z"
         style="font-size:41.34164047px;fill:#33418f;fill-opacity:1;stroke-width:0.96894467px"
         id="path1689" />
      <path
         d="m -253.59455,168.26046 q -4.58892,0 -7.89626,-3.10062 -3.30733,-3.14197 -3.30733,-8.18565 0,-5.04368 3.43136,-8.18564 3.4727,-3.18331 8.43369,-3.18331 4.961,0 8.39236,3.43136 l -2.72855,3.34867 q -2.85257,-2.4805 -5.74649,-2.4805 -2.89391,0 -5.04368,1.94306 -2.10842,1.90171 -2.10842,4.96099 0,3.01794 2.10842,5.12637 2.10842,2.10842 5.16771,2.10842 3.10062,0 5.82917,-2.81123 l 2.72855,2.9766 q -4.01014,4.05148 -9.26053,4.05148 z"
         style="font-size:41.34164047px;fill:#33418f;fill-opacity:1;stroke-width:0.96894467px"
         id="path1691" />
      <path
         d="m -234.90102,156.02333 v 11.90639 h -4.63027 v -30.63415 h 4.63027 v 12.65054 q 0.9922,-2.02574 2.9766,-3.1833 2.02574,-1.15757 4.34087,-1.15757 3.72075,0 5.99454,2.27379 2.31513,2.27379 2.31513,6.57332 v 13.47737 h -4.63027 v -12.07175 q 0,-6.07723 -5.04368,-6.07723 -2.39781,0 -4.1755,1.61233 -1.77769,1.57098 -1.77769,4.63026 z"
         style="font-size:41.34164047px;fill:#33418f;fill-opacity:1;stroke-width:0.96894467px"
         id="path1693" />
      <path
         d="m -208.1743,167.92972 h -4.63026 v -21.99375 h 4.63026 z m -4.34087,-26.37596 q -0.86818,-0.86818 -0.86818,-2.06708 0,-1.19891 0.86818,-2.06709 0.86817,-0.86817 2.06708,-0.86817 1.19891,0 2.06708,0.86817 0.86818,0.86818 0.86818,2.06709 0,1.1989 -0.86818,2.06708 -0.86817,0.86817 -2.06708,0.86817 -1.19891,0 -2.06708,-0.86817 z"
         style="font-size:41.34164047px;fill:#33418f;fill-opacity:1;stroke-width:0.96894467px"
         id="path1695" />
      <path
         d="m -195.79507,149.65672 v 11.16224 q 0,1.57099 0.82684,2.52184 0.82683,0.90952 2.31513,0.90952 1.4883,0 2.85257,-1.44696 l 1.90172,3.26599 q -2.43916,2.19111 -5.41576,2.19111 -2.93525,0 -5.04368,-2.02574 -2.06708,-2.06708 -2.06708,-5.53978 v -11.03822 h -2.76989 v -3.72075 h 2.76989 v -6.90405 h 4.63026 v 6.90405 h 5.78783 v 3.72075 z"
         style="font-size:41.34164047px;fill:#33418f;fill-opacity:1;stroke-width:0.96894467px"
         id="path1697" />
      <path
         d="m -163.75658,158.95859 h -17.23947 q 0.16537,2.39781 2.19111,3.88611 2.02574,1.44696 4.63027,1.44696 4.13416,0 6.28392,-2.60452 l 2.64587,2.89391 q -3.55538,3.67941 -9.26053,3.67941 -4.63026,0 -7.89625,-3.05928 -3.22465,-3.10063 -3.22465,-8.26833 0,-5.20905 3.30733,-8.26833 3.30733,-3.05928 7.77223,-3.05928 4.50624,0 7.6482,2.72855 3.14197,2.6872 3.14197,7.44149 z m -17.23947,-3.63807 h 12.6092 q 0,-2.76989 -1.73634,-4.25818 -1.73635,-1.4883 -4.29953,-1.4883 -2.52184,0 -4.54759,1.57098 -2.02574,1.52964 -2.02574,4.1755 z"
         style="font-size:41.34164047px;fill:#33418f;fill-opacity:1;stroke-width:0.96894467px"
         id="path1699" />
      <path
         d="m -148.94852,168.26046 q -4.58892,0 -7.89625,-3.10062 -3.30733,-3.14197 -3.30733,-8.18565 0,-5.04368 3.43135,-8.18564 3.4727,-3.18331 8.4337,-3.18331 4.961,0 8.39235,3.43136 l -2.72855,3.34867 q -2.85257,-2.4805 -5.74648,-2.4805 -2.89392,0 -5.04368,1.94306 -2.10843,1.90171 -2.10843,4.96099 0,3.01794 2.10843,5.12637 2.10842,2.10842 5.1677,2.10842 3.10062,0 5.82917,-2.81123 l 2.72855,2.9766 q -4.01014,4.05148 -9.26053,4.05148 z"
         style="font-size:41.34164047px;fill:#33418f;fill-opacity:1;stroke-width:0.96894467px"
         id="path1701" />
      <path
         d="m -129.18011,149.65672 v 11.16224 q 0,1.57099 0.82683,2.52184 0.82683,0.90952 2.31513,0.90952 1.4883,0 2.85257,-1.44696 l 1.90172,3.26599 q -2.43916,2.19111 -5.41575,2.19111 -2.93526,0 -5.04368,-2.02574 -2.06709,-2.06708 -2.06709,-5.53978 v -11.03822 h -2.76989 v -3.72075 h 2.76989 v -6.90405 h 4.63027 v 6.90405 h 5.78783 v 3.72075 z"
         style="font-size:41.34164047px;fill:#33418f;fill-opacity:1;stroke-width:0.96894467px"
         id="path1703" />
      <path
         d="m -102.22666,157.84236 v -11.90639 h 4.630265 v 21.99375 h -4.630265 v -4.01013 q -1.11622,2.02574 -3.10062,3.1833 -1.94306,1.15757 -4.21685,1.15757 -3.72075,0 -6.03588,-2.27379 -2.27379,-2.27379 -2.27379,-6.57332 v -13.47738 h 4.63026 v 12.07176 q 0,6.07722 5.04368,6.07722 2.39782,0 4.17551,-1.57098 1.77769,-1.61232 1.77769,-4.67161 z"
         style="font-size:41.34164047px;fill:#33418f;fill-opacity:1;stroke-width:0.96894467px"
         id="path1705" />
      <path
         d="m -79.344701,150.27684 q -3.431356,0 -5.167705,2.23245 -1.736349,2.23245 -1.736349,5.99454 v 9.42589 h -4.630264 v -21.99375 h 4.630264 v 4.42356 q 1.116224,-2.06708 3.01794,-3.39002 1.943057,-1.32293 4.092822,-1.36427 l 0.04134,4.6716 q -0.124025,0 -0.24805,0 z"
         style="font-size:41.34164047px;fill:#33418f;fill-opacity:1;stroke-width:0.96894467px"
         id="path1707" />
      <path
         d="m -54.023595,158.95859 h -17.239464 q 0.165366,2.39781 2.191107,3.88611 2.02574,1.44696 4.630264,1.44696 4.134164,0 6.283929,-2.60452 l 2.645865,2.89391 q -3.555381,3.67941 -9.260528,3.67941 -4.630263,0 -7.896253,-3.05928 -3.224648,-3.10063 -3.224648,-8.26833 0,-5.20905 3.307331,-8.26833 3.307332,-3.05928 7.772229,-3.05928 4.506239,0 7.648203,2.72855 3.141965,2.6872 3.141965,7.44149 z m -17.239464,-3.63807 h 12.6092 q 0,-2.76989 -1.736349,-4.25818 -1.736349,-1.4883 -4.29953,-1.4883 -2.52184,0 -4.547581,1.57098 -2.02574,1.52964 -2.02574,4.1755 z"
         style="font-size:41.34164047px;fill:#33418f;fill-opacity:1;stroke-width:0.96894467px"
         id="path1709" />
    </g>
    <g
       aria-label="An Apache Project"
       style="font-style:normal;font-variant:normal;font-weight:normal;font-stretch:normal;font-size:26.55378914px;line-height:125%;font-family:Montserrat;-inkscape-font-specification:Montserrat;letter-spacing:0px;word-spacing:0px;fill:#000000;fill-opacity:1;stroke:none;stroke-width:0.96559232px;stroke-linecap:butt;stroke-linejoin:miter;stroke-opacity:1"
       id="text1552">
      <path
         d="m -298.79901,188.71992 -1.33547,14.62533 q -0.10373,1.02429 -0.10373,1.34843 0,0.51863 0.19449,0.79091 0.24635,0.37601 0.66125,0.55753 0.42787,0.18152 1.42623,0.18152 l -0.14262,0.47973 h -6.9237 l 0.14263,-0.47973 h 0.29821 q 0.84277,0 1.37436,-0.36304 0.37601,-0.24635 0.58346,-0.81684 0.14262,-0.40194 0.27228,-1.893 l 0.20745,-2.2301 h -5.0307 l -1.78926,2.42459 q -0.60939,0.81684 -0.76498,1.17988 -0.15559,0.35007 -0.15559,0.66125 0,0.4149 0.33711,0.71311 0.33711,0.29822 1.11505,0.32415 l -0.14262,0.47973 h -5.19926 l 0.14263,-0.47973 q 0.95946,-0.0389 1.68554,-0.63532 0.73905,-0.60939 2.19121,-2.58018 l 10.50223,-14.28822 z m -2.56721,4.31758 -5.09553,6.93666 h 4.42131 z"
         style="font-style:italic;font-variant:normal;font-weight:normal;font-stretch:normal;font-family:'Times New Roman';-inkscape-font-specification:'Times New Roman,  Italic';stroke-width:0.96559232px"
         id="path1573" />
      <path
         d="m -290.38426,194.96939 -1.72444,5.89941 q 2.42459,-3.61744 3.70819,-4.75842 1.29657,-1.14099 2.48942,-1.14099 0.64829,0 1.06319,0.42787 0.42787,0.42787 0.42787,1.11506 0,0.77794 -0.37601,2.07451 l -1.58182,5.45857 q -0.27228,0.94649 -0.27228,1.15395 0,0.18152 0.10373,0.31117 0.10373,0.11669 0.22042,0.11669 0.15559,0 0.376,-0.16855 0.68719,-0.54456 1.50403,-1.65961 l 0.40193,0.24635 q -1.20581,1.72444 -2.28196,2.46348 -0.75201,0.50567 -1.34844,0.50567 -0.47973,0 -0.76497,-0.29822 -0.28525,-0.28524 -0.28525,-0.77794 0,-0.62235 0.44083,-2.13934 l 1.50403,-5.21222 q 0.28524,-0.97243 0.28524,-1.51699 0,-0.25931 -0.16855,-0.4149 -0.16856,-0.16856 -0.4149,-0.16856 -0.36304,0 -0.86871,0.31118 -0.95946,0.58346 -1.99672,1.93189 -1.03725,1.33547 -2.1912,3.42295 -0.60939,1.10209 -1.01133,2.41163 l -0.64829,2.13934 h -1.94485 l 2.35976,-8.11654 q 0.4149,-1.46513 0.4149,-1.76334 0,-0.28524 -0.23338,-0.49269 -0.22042,-0.22042 -0.55753,-0.22042 -0.15559,0 -0.54456,0.0519 l -0.4927,0.0778 -0.0778,-0.46677 z"
         style="font-style:italic;font-variant:normal;font-weight:normal;font-stretch:normal;font-family:'Times New Roman';-inkscape-font-specification:'Times New Roman,  Italic';stroke-width:0.96559232px"
         id="path1575" />
      <path
         d="m -263.09143,188.71992 -1.33547,14.62533 q -0.10372,1.02429 -0.10372,1.34843 0,0.51863 0.19448,0.79091 0.24635,0.37601 0.66125,0.55753 0.42787,0.18152 1.42623,0.18152 l -0.14262,0.47973 h -6.92369 l 0.14262,-0.47973 h 0.29821 q 0.84277,0 1.37437,-0.36304 0.376,-0.24635 0.58346,-0.81684 0.14262,-0.40194 0.27228,-1.893 l 0.20745,-2.2301 h -5.0307 l -1.78927,2.42459 q -0.60939,0.81684 -0.76498,1.17988 -0.15559,0.35007 -0.15559,0.66125 0,0.4149 0.33711,0.71311 0.33711,0.29822 1.11505,0.32415 l -0.14262,0.47973 h -5.19925 l 0.14262,-0.47973 q 0.95946,-0.0389 1.68554,-0.63532 0.73905,-0.60939 2.19121,-2.58018 l 10.50223,-14.28822 z m -2.56721,4.31758 -5.09553,6.93666 h 4.42131 z"
         style="font-style:italic;font-variant:normal;font-weight:normal;font-stretch:normal;font-family:'Times New Roman';-inkscape-font-specification:'Times New Roman,  Italic';stroke-width:0.96559232px"
         id="path1577" />
      <path
         d="m -254.63778,194.96939 -0.89463,2.98212 q 1.41326,-1.65961 2.51535,-2.32086 1.11505,-0.66126 2.269,-0.66126 1.15394,0 1.97078,0.92057 0.81684,0.9076 0.81684,2.37273 0,2.85245 -2.32086,5.80864 -2.32086,2.94322 -5.4067,2.94322 -0.64829,0 -1.15395,-0.14263 -0.4927,-0.14262 -1.11505,-0.50566 l -0.9465,3.34516 q -0.28525,0.98539 -0.28525,1.2836 0,0.28525 0.14263,0.47973 0.15559,0.20745 0.49269,0.31118 0.33711,0.11669 1.33547,0.11669 l -0.11669,0.47973 h -6.10685 l 0.12966,-0.47973 q 1.20581,-0.0519 1.63368,-0.4149 0.4149,-0.36304 0.88166,-2.00969 l 3.28033,-11.35797 q 0.29821,-1.07615 0.29821,-1.33546 0,-0.35008 -0.20745,-0.54456 -0.19448,-0.19449 -0.60939,-0.19449 -0.376,0 -1.05022,0.0908 v -0.50566 z m -3.02101,10.37258 q 0.80387,0.95946 2.16527,0.95946 0.67422,0 1.37437,-0.376 0.70015,-0.37601 1.3614,-1.11506 0.67422,-0.73904 1.20581,-1.6985 0.5316,-0.97243 0.9465,-2.28197 0.42787,-1.30954 0.42787,-2.59314 0,-1.03726 -0.47973,-1.58182 -0.46677,-0.55753 -1.10209,-0.55753 -1.4003,0 -2.77466,1.60775 -1.3614,1.60775 -1.99672,3.76006 z"
         style="font-style:italic;font-variant:normal;font-weight:normal;font-stretch:normal;font-family:'Times New Roman';-inkscape-font-specification:'Times New Roman,  Italic';stroke-width:0.96559232px"
         id="path1579" />
      <path
         d="m -234.7743,194.96939 -2.52831,8.79076 -0.28525,1.17988 q -0.0389,0.16856 -0.0389,0.28525 0,0.20745 0.12966,0.36304 0.10373,0.11669 0.25932,0.11669 0.16855,0 0.44083,-0.20745 0.50566,-0.37601 1.34843,-1.55589 l 0.44084,0.31118 q -0.89464,1.34843 -1.84113,2.06155 -0.9465,0.70015 -1.75037,0.70015 -0.55753,0 -0.84278,-0.28525 -0.27228,-0.27228 -0.27228,-0.80387 0,-0.63532 0.28525,-1.67258 l 0.27228,-0.97243 q -1.69851,2.21714 -3.12474,3.09881 -1.02429,0.63532 -2.00968,0.63532 -0.9465,0 -1.63368,-0.77795 -0.68719,-0.79091 -0.68719,-2.16527 0,-2.06155 1.23175,-4.34352 1.2447,-2.29493 3.15066,-3.66929 1.49106,-1.08913 2.81357,-1.08913 0.7909,0 1.30953,0.41491 0.5316,0.4149 0.80388,1.37436 l 0.46676,-1.47809 z m -4.61579,0.67422 q -0.82981,0 -1.76334,0.77795 -1.3225,1.10208 -2.35976,3.26736 -1.02429,2.16527 -1.02429,3.91564 0,0.88167 0.44083,1.4003 0.44084,0.50566 1.01133,0.50566 1.41326,0 3.07287,-2.08748 2.21714,-2.77466 2.21714,-5.69195 0,-1.10208 -0.42787,-1.59478 -0.42787,-0.4927 -1.16691,-0.4927 z"
         style="font-style:italic;font-variant:normal;font-weight:normal;font-stretch:normal;font-family:'Times New Roman';-inkscape-font-specification:'Times New Roman,  Italic';stroke-width:0.96559232px"
         id="path1581" />
      <path
         d="m -223.70158,203.87684 q -1.34843,1.62072 -2.7228,2.38569 -1.37436,0.75202 -2.90432,0.75202 -1.84113,0 -2.87839,-1.03726 -1.02429,-1.03726 -1.02429,-2.78763 0,-1.98376 1.10209,-3.90268 1.11505,-1.91893 2.98211,-3.11177 1.88003,-1.20582 3.68227,-1.20582 1.41326,0 2.11341,0.59643 0.70015,0.58346 0.70015,1.43919 0,0.80388 -0.4927,1.37437 -0.36304,0.44083 -0.89463,0.44083 -0.40194,0 -0.67422,-0.25931 -0.25932,-0.25932 -0.25932,-0.64829 0,-0.24635 0.0908,-0.4538 0.10373,-0.20745 0.40194,-0.49269 0.31118,-0.29822 0.37601,-0.42787 0.0648,-0.12966 0.0648,-0.27228 0,-0.27228 -0.24635,-0.4538 -0.37601,-0.25932 -1.06319,-0.25932 -1.27064,0 -2.51535,0.89464 -1.24471,0.89463 -2.12638,2.54128 -1.06319,1.99672 -1.06319,3.99344 0,1.3225 0.75201,2.10044 0.75202,0.76498 2.04859,0.76498 0.99836,0 1.97079,-0.4927 0.98539,-0.50566 2.20417,-1.8152 z"
         style="font-style:italic;font-variant:normal;font-weight:normal;font-stretch:normal;font-family:'Times New Roman';-inkscape-font-specification:'Times New Roman,  Italic';stroke-width:0.96559232px"
         id="path1583" />
      <path
         d="m -214.39219,188.26612 -3.64337,12.58971 q 2.35976,-3.55261 3.68227,-4.71952 1.3225,-1.16692 2.52831,-1.16692 0.62236,0 1.03726,0.42787 0.4149,0.42787 0.4149,1.14099 0,0.85573 -0.36304,2.07451 l -1.58181,5.43264 q -0.29822,0.98539 -0.29822,1.08912 0,0.18152 0.10373,0.29821 0.11669,0.11669 0.25931,0.11669 0.16856,0 0.38898,-0.16855 0.73904,-0.5705 1.46512,-1.58182 l 0.40194,0.24635 q -0.44084,0.68718 -1.23174,1.51699 -0.77795,0.81684 -1.34844,1.14098 -0.55752,0.31118 -0.99836,0.31118 -0.47973,0 -0.79091,-0.31118 -0.29821,-0.29821 -0.29821,-0.77794 0,-0.5705 0.4538,-2.12638 l 1.49106,-5.18629 q 0.28524,-0.97243 0.28524,-1.52995 0,-0.25932 -0.16855,-0.41491 -0.15559,-0.15558 -0.4149,-0.15558 -0.37601,0 -0.85574,0.28524 -0.88167,0.54456 -2.03562,2.02265 -0.31118,0.40194 -2.07451,3.24143 -0.54456,0.9076 -0.89464,1.98376 l -0.8298,2.65797 h -1.94486 l 4.26572,-14.83278 0.4538,-1.60775 q 0,-0.33711 -0.28525,-0.59642 -0.27228,-0.25932 -0.67421,-0.25932 -0.23339,0 -0.71312,0.0778 l -0.27228,0.0389 v -0.50566 z"
         style="font-style:italic;font-variant:normal;font-weight:normal;font-stretch:normal;font-family:'Times New Roman';-inkscape-font-specification:'Times New Roman,  Italic';stroke-width:0.96559232px"
         id="path1585" />
      <path
         d="m -205.74406,201.81529 q -0.0908,0.64829 -0.0908,1.07616 0,1.15395 0.81684,1.97079 0.81684,0.80387 1.98376,0.80387 0.93353,0 1.78927,-0.376 0.8687,-0.38898 2.56721,-1.69851 l 0.27228,0.376 q -3.07288,3.04695 -5.86051,3.04695 -1.89299,0 -2.85245,-1.19285 -0.95947,-1.19285 -0.95947,-2.63204 0,-1.93189 1.19285,-3.95454 1.19285,-2.02266 2.99508,-3.13771 1.80224,-1.12802 3.7082,-1.12802 1.37436,0 2.03561,0.55753 0.66126,0.55753 0.66126,1.3225 0,1.07616 -0.85574,2.06155 -1.12802,1.28361 -3.31923,2.07452 -1.45216,0.53159 -4.0842,0.8298 z m 0.0908,-0.63532 q 1.91893,-0.22041 3.12474,-0.75201 1.59478,-0.71311 2.38569,-1.69851 0.80388,-0.99836 0.80388,-1.89299 0,-0.54456 -0.35008,-0.88167 -0.33711,-0.33711 -0.97243,-0.33711 -1.3225,0 -2.81356,1.41326 -1.47809,1.4003 -2.17824,4.14903 z"
         style="font-style:italic;font-variant:normal;font-weight:normal;font-stretch:normal;font-family:'Times New Roman';-inkscape-font-specification:'Times New Roman,  Italic';stroke-width:0.96559232px"
         id="path1587" />
      <path
         d="m -186.34735,189.12186 h 6.9237 q 2.7228,0 4.07123,1.17988 1.34844,1.16691 1.34844,2.85245 0,1.33547 -0.85574,2.59315 -0.85574,1.25767 -2.54128,2.04858 -1.68554,0.77794 -3.64337,0.77794 -1.21878,0 -3.0988,-0.44083 l -1.4003,4.79732 q -0.4927,1.71147 -0.4927,2.25603 0,0.4149 0.35008,0.68718 0.35007,0.27228 1.67257,0.35008 l -0.12965,0.47973 h -6.98853 l 0.14263,-0.47973 q 1.37436,0 1.90596,-0.46677 0.54456,-0.47973 1.16691,-2.61907 l 2.90432,-10.00954 q 0.51863,-1.80223 0.51863,-2.41162 0,-0.4538 -0.376,-0.75201 -0.36304,-0.29821 -1.62072,-0.36304 z m 2.42459,8.19433 q 1.46513,0.37601 2.35976,0.37601 1.41327,0 2.56722,-0.58346 1.16691,-0.58346 1.8152,-1.75037 0.66125,-1.16692 0.66125,-2.42459 0,-1.30954 -0.80388,-2.07452 -0.80387,-0.76497 -2.43755,-0.76497 -0.88167,0 -2.13935,0.22041 z"
         style="font-style:italic;font-variant:normal;font-weight:normal;font-stretch:normal;font-family:'Times New Roman';-inkscape-font-specification:'Times New Roman,  Italic';stroke-width:0.96559232px"
         id="path1589" />
      <path
         d="m -172.87596,195.69548 4.47317,-0.72609 -1.86706,6.30134 q 2.269,-3.87675 4.1231,-5.41967 1.05022,-0.88167 1.71147,-0.88167 0.42787,0 0.67422,0.25932 0.24635,0.24635 0.24635,0.72608 0,0.85574 -0.44084,1.63368 -0.31117,0.58346 -0.89463,0.58346 -0.29821,0 -0.51863,-0.19449 -0.20745,-0.19448 -0.25931,-0.59642 -0.0259,-0.24635 -0.11669,-0.32414 -0.10373,-0.10373 -0.24635,-0.10373 -0.22042,0 -0.41491,0.10373 -0.3371,0.18152 -1.02429,1.01132 -1.07615,1.27064 -2.33383,3.29329 -0.54456,0.85574 -0.93353,1.9319 -0.54456,1.47809 -0.62235,1.7763 l -0.41491,1.63368 h -1.98375 l 2.39866,-8.05171 q 0.4149,-1.4003 0.4149,-1.99672 0,-0.23338 -0.19449,-0.38897 -0.25931,-0.20745 -0.68718,-0.20745 -0.27228,0 -0.99836,0.11669 z"
         style="font-style:italic;font-variant:normal;font-weight:normal;font-stretch:normal;font-family:'Times New Roman';-inkscape-font-specification:'Times New Roman,  Italic';stroke-width:0.96559232px"
         id="path1591" />
      <path
         d="m -152.62352,199.02766 q 0,1.94486 -1.03726,3.85082 -1.02429,1.90596 -2.86542,3.02101 -1.84113,1.11506 -3.57854,1.11506 -1.7763,0 -2.90432,-1.12802 -1.11505,-1.14098 -1.11505,-2.94322 0,-1.90596 1.08912,-3.82489 1.10209,-1.91892 2.93025,-3.03397 1.84113,-1.11506 3.55261,-1.11506 1.71147,0 2.81356,1.12802 1.11505,1.12802 1.11505,2.93025 z m -2.15231,-0.89463 q 0,-1.20581 -0.59642,-1.84113 -0.58346,-0.64829 -1.51699,-0.64829 -1.90596,0 -3.51371,2.73577 -1.59478,2.7228 -1.59478,5.41967 0,1.23174 0.62235,1.90596 0.62236,0.66125 1.56885,0.66125 1.82817,0 3.42295,-2.70983 1.60775,-2.72281 1.60775,-5.5234 z"
         style="font-style:italic;font-variant:normal;font-weight:normal;font-stretch:normal;font-family:'Times New Roman';-inkscape-font-specification:'Times New Roman,  Italic';stroke-width:0.96559232px"
         id="path1593" />
      <path
         d="m -145.51831,189.83497 q 0.54456,0 0.92057,0.38897 0.38897,0.37601 0.38897,0.92057 0,0.54456 -0.38897,0.93353 -0.37601,0.37601 -0.92057,0.37601 -0.54456,0 -0.93353,-0.37601 -0.376,-0.38897 -0.376,-0.93353 0,-0.54456 0.376,-0.92057 0.38897,-0.38897 0.93353,-0.38897 z m 0.20746,5.13442 -3.35813,11.60432 q -0.89463,3.11177 -2.46348,4.48614 -1.55589,1.37437 -3.37109,1.37437 -0.81684,0 -1.23174,-0.37601 -0.42787,-0.37601 -0.42787,-0.89463 0,-0.40194 0.32414,-0.71312 0.31118,-0.29821 0.72608,-0.29821 0.37601,0 0.66125,0.24635 0.23339,0.19448 0.23339,0.44083 0,0.33711 -0.32415,0.58346 -0.18152,0.14262 -0.18152,0.23338 l 0.0259,0.0648 q 0.0389,0.0519 0.11669,0.0778 0.0778,0.0259 0.23338,0.0259 1.05022,0 1.80223,-0.67422 0.73905,-0.66125 1.32251,-2.65797 l 2.90432,-9.95767 q 0.42787,-1.46513 0.42787,-1.62072 0,-0.31117 -0.28525,-0.55752 -0.27228,-0.24635 -0.70015,-0.24635 -0.16855,0 -0.38897,0.0389 -0.16855,0.0259 -0.4927,0.0778 v -0.4538 z"
         style="font-style:italic;font-variant:normal;font-weight:normal;font-stretch:normal;font-family:'Times New Roman';-inkscape-font-specification:'Times New Roman,  Italic';stroke-width:0.96559232px"
         id="path1595" />
      <path
         d="m -141.07106,201.81529 q -0.0908,0.64829 -0.0908,1.07616 0,1.15395 0.81684,1.97079 0.81684,0.80387 1.98375,0.80387 0.93354,0 1.78927,-0.376 0.86871,-0.38898 2.56722,-1.69851 l 0.27228,0.376 q -3.07288,3.04695 -5.86051,3.04695 -1.89299,0 -2.85246,-1.19285 -0.95946,-1.19285 -0.95946,-2.63204 0,-1.93189 1.19285,-3.95454 1.19284,-2.02266 2.99508,-3.13771 1.80223,-1.12802 3.70819,-1.12802 1.37437,0 2.03562,0.55753 0.66125,0.55753 0.66125,1.3225 0,1.07616 -0.85574,2.06155 -1.12801,1.28361 -3.31922,2.07452 -1.45216,0.53159 -4.0842,0.8298 z m 0.0908,-0.63532 q 1.91893,-0.22041 3.12474,-0.75201 1.59478,-0.71311 2.38569,-1.69851 0.80387,-0.99836 0.80387,-1.89299 0,-0.54456 -0.35007,-0.88167 -0.33711,-0.33711 -0.97243,-0.33711 -1.3225,0 -2.81356,1.41326 -1.47809,1.4003 -2.17824,4.14903 z"
         style="font-style:italic;font-variant:normal;font-weight:normal;font-stretch:normal;font-family:'Times New Roman';-inkscape-font-specification:'Times New Roman,  Italic';stroke-width:0.96559232px"
         id="path1597" />
      <path
         d="m -122.20594,203.87684 q -1.34843,1.62072 -2.7228,2.38569 -1.37437,0.75202 -2.90432,0.75202 -1.84113,0 -2.87839,-1.03726 -1.02429,-1.03726 -1.02429,-2.78763 0,-1.98376 1.10208,-3.90268 1.11506,-1.91893 2.98212,-3.11177 1.88003,-1.20582 3.68226,-1.20582 1.41327,0 2.11341,0.59643 0.70015,0.58346 0.70015,1.43919 0,0.80388 -0.49269,1.37437 -0.36304,0.44083 -0.89464,0.44083 -0.40194,0 -0.67422,-0.25931 -0.25931,-0.25932 -0.25931,-0.64829 0,-0.24635 0.0908,-0.4538 0.10373,-0.20745 0.40194,-0.49269 0.31117,-0.29822 0.376,-0.42787 0.0648,-0.12966 0.0648,-0.27228 0,-0.27228 -0.24635,-0.4538 -0.376,-0.25932 -1.06319,-0.25932 -1.27064,0 -2.51535,0.89464 -1.2447,0.89463 -2.12637,2.54128 -1.06319,1.99672 -1.06319,3.99344 0,1.3225 0.75201,2.10044 0.75201,0.76498 2.04858,0.76498 0.99836,0 1.97079,-0.4927 0.9854,-0.50566 2.20417,-1.8152 z"
         style="font-style:italic;font-variant:normal;font-weight:normal;font-stretch:normal;font-family:'Times New Roman';-inkscape-font-specification:'Times New Roman,  Italic';stroke-width:0.96559232px"
         id="path1599" />
      <path
         d="m -113.79119,191.7539 -1.01132,3.52667 h 2.03561 l -0.22041,0.81684 h -2.02266 l -2.2301,7.64978 q -0.36304,1.23174 -0.36304,1.59478 0,0.22042 0.10373,0.33711 0.10372,0.11669 0.24635,0.11669 0.32414,0 0.85573,-0.4538 0.31118,-0.25932 1.38733,-1.59478 l 0.42787,0.32414 q -1.19284,1.7374 -2.25603,2.45052 -0.72608,0.4927 -1.46513,0.4927 -0.57049,0 -0.93353,-0.35008 -0.36304,-0.36304 -0.36304,-0.92056 0,-0.70015 0.4149,-2.13935 l 2.16528,-7.50715 h -1.95782 l 0.12965,-0.50566 q 1.42623,-0.38897 2.37273,-1.15395 0.9465,-0.77794 2.11341,-2.6839 z"
         style="font-style:italic;font-variant:normal;font-weight:normal;font-stretch:normal;font-family:'Times New Roman';-inkscape-font-specification:'Times New Roman,  Italic';stroke-width:0.96559232px"
         id="path1601" />
    </g>
  </g>
</svg>
