<svg id="Layer_1" data-name="Layer 1" xmlns="http://www.w3.org/2000/svg" viewBox="0 0 95 21"><path d="M2.11523,1.35156V13.5332a4.9902,4.9902,0,0,0,1.33985,3.6504,4.8499,4.8499,0,0,0,3.60937,1.3535,4.8498,4.8498,0,0,0,3.60935-1.3535,4.98994,4.98994,0,0,0,1.3399-3.6504V1.35156h2.0097V13.793a6.39486,6.39486,0,0,1-1.873,4.7851,6.96144,6.96144,0,0,1-5.08595,1.8184,7.00958,7.00958,0,0,1-5.09961-1.8184A6.42,6.42,0,0,1,.10547,13.793V1.35156ZM18.3027,20V5.68555h2.0098V7.64062h.0547a4.329,4.329,0,0,1,1.5586-1.53124,5.00407,5.00407,0,0,1,2.666-.65626,5.08485,5.08485,0,0,1,3.7187,1.40821,5.264,5.264,0,0,1,1.4356,3.93747V20H27.7363V11.0996a3.79169,3.79169,0,0,0-.9843-2.80272,3.61135,3.61135,0,0,0-2.6934-.99805,3.43561,3.43561,0,0,0-2.8027,1.13476,4.23735,4.23735,0,0,0-.9434,2.80271V20Zm15.6817,0V5.68555h2.0097V20ZM33.6289,2.19922a1.30418,1.30418,0,0,1,.3965-.957A1.28251,1.28251,0,0,1,34.9824.832a1.298,1.298,0,0,1,.9707.41016,1.28243,1.28243,0,0,1,.4102.957,1.34229,1.34229,0,0,1-.4102.98437,1.32011,1.32011,0,0,1-.9707.39649,1.304,1.304,0,0,1-.957-.39649A1.36609,1.36609,0,0,1,33.6289,2.19922ZM41.4902,7.3125a5.5901,5.5901,0,0,1,4.4571-1.85938A5.54853,5.54853,0,0,1,50.3906,7.3125a7.08535,7.08535,0,0,1,1.5996,4.8125v1.4082a7.15878,7.15878,0,0,1-1.5996,4.8398,5.52348,5.52348,0,0,1-4.4433,1.8594,5.56472,5.56472,0,0,1-4.4571-1.8594,7.15878,7.15878,0,0,1-1.5996-4.8398V12.125A7.08535,7.08535,0,0,1,41.4902,7.3125Zm4.4571-.0957a3.59421,3.59421,0,0,0-2.9805,1.33984,5.69515,5.69515,0,0,0-1.0664,3.66406v1.2031a5.7539,5.7539,0,0,0,1.0664,3.6778,3.98333,3.98333,0,0,0,5.9473.0136,5.77731,5.77731,0,0,0,1.0664-3.6914V12.2207a5.69515,5.69515,0,0,0-1.0664-3.66406A3.57961,3.57961,0,0,0,45.9473,7.2168ZM55.7637,20V5.68555h2.0097V7.64062h.0547a4.32985,4.32985,0,0,1,1.5586-1.53124,5.00431,5.00431,0,0,1,2.666-.65626,5.08492,5.08492,0,0,1,3.7188,1.40821A5.26433,5.26433,0,0,1,67.207,10.7988V20H65.1973V11.0996a3.79174,3.79174,0,0,0-.9844-2.80272,3.6112,3.6112,0,0,0-2.6934-.99805,3.43561,3.43561,0,0,0-2.8027,1.13476,4.23735,4.23735,0,0,0-.9434,2.80271V20Zm15.1621-1.1758a1.35233,1.35233,0,0,1,.4238-1.0117,1.41947,1.41947,0,0,1,2.0234,0,1.35205,1.35205,0,0,1,.4239,1.0117,1.43557,1.43557,0,0,1-2.8711,0Zm14.834-.6836a4.12068,4.12068,0,0,1-1.6133,1.5176,5.36654,5.36654,0,0,1-2.5977.5742,4.82431,4.82431,0,0,1-3.3906-1.1894,4.08164,4.08164,0,0,1-1.2852-3.1446,3.66832,3.66832,0,0,1,1.2852-2.9668,5.6506,5.6506,0,0,1,3.7051-1.1074h3.8965V10.2793a2.99293,2.99293,0,0,0-.8477-2.29688,3.29812,3.29812,0,0,0-2.3652-.793,3.49021,3.49021,0,0,0-2.2696.66993,2.56735,2.56735,0,0,0-.9433,1.81835H77.4336a4.21209,4.21209,0,0,1,1.4492-3.07617,6.48143,6.48143,0,0,1,7.4649.06836,4.20679,4.20679,0,0,1,1.4218,3.377V20h-1.955V18.1406Zm-3.7325.3555a3.91488,3.91488,0,0,0,2.6661-.916,2.95965,2.95965,0,0,0,1.0664-2.3516V13.4648H81.9316a3.34157,3.34157,0,0,0-2.2421.6426,2.20016,2.20016,0,0,0-.7383,1.75,2.32006,2.32006,0,0,0,.8886,1.9551A3.48143,3.48143,0,0,0,82.0273,18.4961ZM92.1172,20V5.68555H94.127V20ZM91.7617,2.19922a1.30418,1.30418,0,0,1,.3965-.957A1.28251,1.28251,0,0,1,93.1152.832a1.298,1.298,0,0,1,.9707.41016,1.28243,1.28243,0,0,1,.4102.957,1.34229,1.34229,0,0,1-.4102.98437,1.32011,1.32011,0,0,1-.9707.39649,1.304,1.304,0,0,1-.957-.39649A1.36609,1.36609,0,0,1,91.7617,2.19922Z"/></svg>