<svg id="Layer_1" data-name="Layer 1" xmlns="http://www.w3.org/2000/svg" viewBox="0 0 347.45444 483.80864"><defs><style>.cls-1{fill:#52a542;}.cls-2{fill:#4ca73c;}.cls-3{fill:#f9fbf8;}.cls-4{fill:#46ad33;}.cls-5{fill:#fafbf9;}.cls-6{fill:#8ccb71;}.cls-7{fill:#c4e5af;}.cls-8{fill:#c1e6ac;}.cls-9{fill:#eff8ec;}.cls-10{fill:#eaf5e6;}.cls-11{fill:#eef8eb;}.cls-12{fill:#47ab32;}.cls-13{fill:#6baf5d;}.cls-14{fill:#fbfcfa;}.cls-15{fill:#fafcf9;}.cls-16{fill:#507f47;}.cls-17{fill:#448034;}</style></defs><path class="cls-1" d="M322.13621,288.33074c-1.80418,17.72094-11.243,31.89944-21.5884,45.49653-19.93371,26.199-46.15666,45.3909-72.57919,64.33314q-25.29613,18.13479-50.37219,36.5756c-2.9713,2.17906-5.16594,3.7748-8.9579.84751C138.10412,412.012,105.58986,391.067,75.96968,366.29459,57.73859,351.04724,41.001,334.33293,29.864,312.86036a69.31968,69.31968,0,0,1-7.86759-32.263C21.92233,215.36984,22.008,150.142,21.79216,84.915c-.021-6.34472,1.9836-8.04933,8.19983-7.972,25.287.31466,50.58056.10446,75.87171.07663a88.54118,88.54118,0,0,0,30.51183-5.32738c12.87551-4.7047,23.67824-11.97692,30.23542-24.55237,1.69794-3.25638,3.9325-6.23292,7.37019-11.6021,6.65379,23.257,22.29,34.46728,42.9621,39.72023-1.17559,1.35705.86778,4.41715-2.47109,4.65122-15.97887-2.49462-29.358-9.287-37.94015-23.53954-2.686-4.46071-4.56531-5.16834-7.89855-.56122C156.556,72.50166,139.13512,79.48243,119.49379,82.337A208.9564,208.9564,0,0,1,87.648,84.11274c-15.9734-.129-31.94866-.05661-47.923-.02539-11.09308.02167-11.25514.17027-11.25776,11.0561q-.02187,91.05847-.00413,182.117a65.80651,65.80651,0,0,0,.41658,9.5672,75.80256,75.80256,0,0,0,11.49567,31.213C55.5311,341.0828,75.76789,359.1073,97.62731,375.33649c22.01282,16.34307,44.11259,32.58236,66.46041,48.4737,8.36258,5.94654,9.243,6.03425,17.46762-.15531,26.58345-20.00578,54.81529-37.83427,80.12144-59.49686,16.79629-14.378,32.45954-30.0195,43.91393-49.28033a74.95418,74.95418,0,0,0,10.98189-39.44055c-.21718-59.90608-.08541-119.81345-.09685-179.72034-.00219-11.47444-.13838-11.613-11.54259-11.62994-20.50051-.03048-41.00106.01118-61.50154-.025-3.1831-.00562-6.47063.30356-9.41423-1.20738-2.21888-1.139-2.5413-2.6063.055-3.87313,26.86823-.73171,53.72795-.07336,80.58226-.371,6.41624-.07111,7.31866,3.44034,7.29732,8.64677q-.14042,34.31073-.03088,68.62265C322.03667,200.03,321.61455,244.18118,322.13621,288.33074Z"/><path class="cls-2" d="M322.13621,288.33074c-3.04589-2.82605-1.73791-6.521-1.742-9.82282q-.11611-94.66446.08631-189.32858c.02566-6.75693-1.35683-9.2857-8.71975-9.13572-26.61415.54212-53.24186,1.26764-79.86508,1.364-5.9115.04634-11.0698-.17422-15.47156-2.92033-.692-1.21453-4.12658-2.8681.51792-3.22891a101.491,101.491,0,0,0,13.90721,1.924c11.65125,1.49392,23.35281.5034,35.02862.63714q25.16011.28821,50.32529-.03242c4.52785-.0552,6.61567.7214,6.60164,6.02385q-.26574,100.65768-.11487,201.31645a6.96564,6.96564,0,0,1-.63321,3.09217Z"/><path class="cls-1" d="M322.05677,288.21965q-.07305-99.4416-.146-198.88315c-.0078-10.67816-.007-10.682-10.82627-10.68313-23.96129-.00257-47.92271.03376-71.88373-.04752-2.80927-.00953-5.91232,1.024-8.3516-1.42342,28.76177-.03642,57.52487.06538,86.28388-.23,5.52359-.05673,6.55553,1.9703,6.54265,6.95577q-.25089,97.08791-.21367,194.1766C323.45784,281.48863,323.85184,285.02857,322.05677,288.21965Z"/><path class="cls-3" d="M216.42417,78.48734a64.46642,64.46642,0,0,0,15.47156,2.92033c11.74567.93681,23.32989-.27474,34.99462-.07739,15.44544.26132,30.89975.20475,46.347.01794,4.42942-.05357,5.96458,1.29489,5.95171,5.88986-.18021,64.46476.16977,128.93336-.43347,193.39333-.21908,23.412-13.55459,41.54849-28.1599,58.51114-19.281,22.393-42.91973,39.67445-66.84588,56.63022-15.42139,10.92868-30.60145,22.19844-45.85819,33.35846-2.85521,2.08852-5.16167,4.0824-9.03556,1.093-35.37813-27.30037-73.885-50.54412-106.19028-81.823C51.72855,337.81151,41.948,326.24358,34.7304,312.70983a67.10781,67.10781,0,0,1-8.27909-32.13127q.09051-95.89879-.14939-191.79715c-.02427-6.17885,1.8946-7.47432,7.68455-7.51,27.15642-.16756,54.38244,1.644,81.454-.86357,22.73975-2.10631,43.34213-9.1772,54.73156-31.59279,2.29534-4.51748,4.01339-.56817,4.95037.8285,2.79775,4.17045,4.3543,9.09755,8.14566,12.70593C192.62806,71.25771,204.21522,74.46785,216.42417,78.48734Z"/><path class="cls-4" d="M172.84769,182.92916c43.40112.00022,86.80308.12933,130.2025-.14324,6.287-.03946,8.07763,1.61961,7.99959,7.96208-.34389,27.95484-.48207,55.92172-.0329,83.87361.32915,20.48147-8.65134,36.966-20.55607,52.3924-19.62623,25.432-45.30721,44.005-71.1556,62.38081-13.88193,9.86883-27.64351,19.90773-41.409,29.939-2.9015,2.11442-5.29194,3.94821-9.06007,1.03394-30.29347-23.42916-63.19927-43.41245-91.69567-69.20327-13.84025-12.52615-26.83234-25.83622-35.56294-42.70855a59.65119,59.65119,0,0,1-6.90845-27.59967c-.09965-30.35508.03992-60.71195-.2685-91.06452-.0598-5.885,2.12871-6.98806,7.44535-6.96581C85.51257,183.00852,129.18029,182.929,172.84769,182.92916Z"/><path class="cls-4" d="M172.42693,175.88822c-43.132-.00153-86.26481-.12322-129.39535.13125-6.3811.03764-8.7947-1.33176-8.66925-8.2673q.64272-35.53409.01963-71.08588c-.10487-6.50663,2.038-7.99734,8.18412-7.96005,24.21651.14694,48.46539.42955,72.64584-.628,20.50092-.89661,38.969-8.09129,53.76317-23.0604,1.70021-1.72032,2.89417-3.50677,5.568-.60763,17.82713,19.329,41.11115,24.27777,66.0619,24.41729,20.76664.11613,41.538.23675,62.29952-.10738,6.06575-.10054,8.25782,1.28184,8.14939,7.8219-.39722,23.95675-.35276,47.92684-.01668,71.88549.08429,6.00927-1.64238,7.629-7.61749,7.59523C259.75664,175.77588,216.09146,175.88974,172.42693,175.88822Z"/><path class="cls-5" d="M237.32509,337.63644c6.04521-6.098,14.33416-1.68838,21.22732-4.98479-5.91317,13.30846-15.25893,23.10307-26.34463,31.42466-29.6055,22.22366-78.03433,23.64914-105.81494,2.99149-15.82245-11.76554-22.63793-28.48542-24.82343-47.34717-1.13272-9.77573-.39192-19.59824.72157-29.444,2.91443-25.77041-4.428-47.68978-27.123-62.043-11.30071-7.147-11.61135-18.61171-15.838-30.59049,29.55346,21.649,50.84353,46.22025,50.126,83.79613-.322,16.86214.5403,33.53321,6.74724,49.47387,16.9322,43.4852,69.161,56.41595,105.1585,26.06038.87823-3.04749,4.16749-4.30733,5.29035-7.17485a16.74237,16.74237,0,0,1,4.5351-5.57088C233.83411,342.59338,234.6775,339.2705,237.32509,337.63644Z"/><path class="cls-6" d="M142.84358,303.952c7.03593,7.53414,15.803,9.12825,25.48792,7.28763a63.49167,63.49167,0,0,0,24.49528-10.63c-9.48239,17.40465-28.26272,22.89217-52.28688,15.83718-1.799,3.188-.21468,6.75377-1.04953,10.03224-4.36316-1.12758-2.76056-4.93231-3.40773-7.69453-.91983-3.926-1.58514-8.01172-7.28444-6.66117a28.5373,28.5373,0,0,0-3.49162-13.528c-13.23456-25.82482.19269-55.42216,28.315-63.27122,3.23822-.90377,6.78266-1.054,10.03548-4.51675-19.52275-9.6237-27.15146,5.95525-37.00084,16.49388-3.411-13.44556,8.523-28.19635,23.58486-29.55743a31.79837,31.79837,0,0,1,21.88967,5.55868c6.51317,4.55324,12.37165,10.03015,19.52781,13.70412,1.65773.851,4.58009,1.75089,3.46708,4.51-1.17862,2.92183-4.18775,2.00472-6.33522,1.52563a58.93,58.93,0,0,0-28.3764.54326c-16.207,4.30828-28.26761,17.24038-28.92056,32.13531-.2546,5.80764-2.03427,12.83708,4.84613,16.938C137.64859,296.918,141.21481,299.87707,142.84358,303.952Z"/><path class="cls-7" d="M142.84358,303.952c-3.83748-2.8022-8.00378-5.415-6.50329-11.2925a56.51892,56.51892,0,0,1,14.13017-12.77993c5.37983-3.28609,11.34636-5.28366,17.86625-7.611-10.61918-7.04587-15.68474-5.22789-30.66076,9.94541-1.67418-5.62718-.07763-10.64153,4.97764-15.63342,11.04338-10.905,27.83808-11.1145,39.65205-.33509,3.92287,3.57934,7.32149,7.71267,12.27915,10.07219,2.03047.96638,4.786,1.93972,3.057,5.27455-1.41483,2.7289-3.60415,2.59429-6.13213,1.82576a40.61909,40.61909,0,0,0-22.80748-.56373C156.86641,286.02427,148.78965,293.64368,142.84358,303.952Z"/><path class="cls-8" d="M128.7982,312.12339c1.833-.49424.58063-4.80308,3.06361-3.37114,2.79666,1.61281,5.79783,3.83594,6.24712,7.74711.3832,3.336-1.08428,6.93368,1.38224,9.97968,4.10461,22.30231,28.4312,39.1264,65.66651,30.75357-6.134,8.99368-32.10522,12.14373-48.12321,5.57769C138.98383,355.411,127.96987,336.08455,128.7982,312.12339Z"/><path class="cls-9" d="M221.333,340.48925c-.35156-4.01558-.61989-8.16623,4.44669-9.42122,4.13063-1.02314,7.06438.74319,8.37011,4.9123,1.81407,3.5029-.697,5.42389-2.73756,7.52745C226.81412,346.65379,223.48547,345.52818,221.333,340.48925Z"/><path class="cls-10" d="M217.66949,354.93148c-4.76618-.76739-8.58478-2.93322-6.88045-8.34557,1.72839-5.48879,6.18274-4.66265,10.43241-2.7954,1.60379-.2638,2.32319.76546,2.91748,1.98855C225.46656,351.29087,223.00448,354.12778,217.66949,354.93148Z"/><path class="cls-11" d="M179.06319,256.35575c-3.54267-.08554-6.02127-1.6827-6.20526-5.53623-.1745-3.6548,1.34937-5.9771,5.48261-5.98622,3.97988-.00878,6.94324,1.44789,6.91746,5.66527C185.23649,254.01352,183.0397,256.29945,179.06319,256.35575Z"/><path class="cls-12" d="M222.97587,345.568l-1.75435-1.7775q.05565-1.65057.11146-3.30119c2.75895,2.47213,5.47766,5.15291,9.3584,1.80345,2.71871-.17929,2.81558,1.05743,1.61681,2.9939l-4.19162,5.3245C220.12539,355.32972,225.53,346.39223,222.97587,345.568Z"/><path class="cls-13" d="M222.97587,345.568c2.50562.87346-.16058,7.01841,5.14028,5.04316-1.32312,3.10615-3.87064,4.91264-6.75439,6.36227-.75735-1.53538-2.311-1.63058-3.69141-2.04135C221.62026,353.047,223.537,350.00971,222.97587,345.568Z"/><path class="cls-13" d="M232.30819,345.28667a3.25827,3.25827,0,0,0-1.61671-2.99385c1.5943-1.8623,3.3155-3.6551,3.45827-6.31259q1.58761.82833,3.17525,1.65633A9.12951,9.12951,0,0,1,232.30819,345.28667Z"/><path class="cls-14" d="M100.12668,165.912c-10.6482-.01134-21.29849.11892-31.944-.05028-9.45608-.15028-12.71951-3.283-12.81287-12.39731-.1445-14.10788.33866-28.23054-.13579-42.32366-.30391-9.02735,5.8455-6.09218,10.26986-6.42887,4.615-.35119,8.94548-.78363,8.62228,6.51164-.5179,11.68986.08466,23.425-.17092,35.13258-.14195,6.50165,2.47126,9.18143,8.9692,9.04953q17.56248-.35655,35.13626-.01328c6.96668.1479,9.46287-2.978,9.31728-9.67927-.25438-11.70783.07928-23.42787-.12571-35.13767-.07867-4.49307,1.5325-5.90368,6.01821-6.0123,12.85986-.31136,12.85056-.51086,12.83578,12.51977-.01326,11.71356.03078,23.4274-.03609,35.14063-.05968,10.45367-3.34919,13.65058-13.999,13.691C121.42317,165.95482,110.77487,165.92329,100.12668,165.912Z"/><path class="cls-14" d="M259.13324,104.66865c10.63269-.0005,21.26565-.04223,31.898.02082,4.03874.02394,8.614-1.35454,8.54474,5.81539-.06661,6.8948-4.50274,5.10134-8.14261,5.208-4.5151.13226-9.03732-.00313-13.55549.05357-9.93237.12464-10.51556.6884-10.535,10.30015-.02254,11.16476-.36018,22.3461.13736,33.48907.371,8.31017-5.21923,6.16232-9.58519,6.32885-4.53171.17287-9.00191.89337-8.642-6.53975.57792-11.93424.00849-23.91958.2159-35.87825.094-5.41925-2.06823-7.88289-7.49053-7.74028a117.02669,117.02669,0,0,1-14.343-.10581c-3.95515-.38424-10.19635,3.06843-10.08646-5.63616.10385-8.22562,6.01317-5.05574,9.69073-5.184C237.85946,104.42961,248.50054,104.66916,259.13324,104.66865Z"/><path class="cls-15" d="M194.97989,165.91383c-9.30482.00229-18.61561-.19624-27.912.083-4.91464.14764-6.35364-1.63578-6.27013-6.48806.27447-15.94713.327-31.90706-.02646-47.85119-.1276-5.75592,1.93482-7.709,7.3548-7.00367a19.03983,19.03983,0,0,0,4.77737-.01424c5.17543-.64942,6.99619,1.39422,6.84356,6.69934-.33627,11.688.1429,23.39876-.15967,35.08861-.16773,6.48033,2.18981,9.1553,8.8125,8.98123,11.6891-.30722,23.39459.06173,35.08908-.1198,4.1938-.06509,6.28135.84188,6.26176,5.66138-.01929,4.75162-2.50428,5.02738-6.05906,4.99283C214.12183,165.85032,204.55057,165.91152,194.97989,165.91383Z"/><path class="cls-16" d="M8.14487,448.543h4.30371v12.44678a7.0404,7.0404,0,0,0,.49316,3.04931q.76611,1.70361,3.34278,1.70362,2.562,0,3.3291-1.70362a7.05528,7.05528,0,0,0,.49316-3.04931V448.543h4.30274v12.45654a10.44777,10.44777,0,0,1-1.002,5.03174q-1.86621,3.29956-7.123,3.2998-5.25734,0-7.1377-3.2998a10.44778,10.44778,0,0,1-1.002-5.03174Z"/><path class="cls-16" d="M40.24741,454.68213a4.96086,4.96086,0,0,1,1.47168,4.03516v10.0913H37.70444v-9.11523a4.19309,4.19309,0,0,0-.31348-1.81494,2.20528,2.20528,0,0,0-2.18359-1.15479,2.70672,2.70672,0,0,0-2.7168,1.69092,5.8478,5.8478,0,0,0-.38184,2.28223v8.11181h-3.918V453.8501h3.79394v2.186a6.644,6.644,0,0,1,1.42383-1.66357,4.9358,4.9358,0,0,1,3.05371-.90723A5.743,5.743,0,0,1,40.24741,454.68213Z"/><path class="cls-16" d="M49.39,452.03516H45.41733v-3.61573H49.39Zm-3.97265,1.78759H49.39v14.98584H45.41733Z"/><path class="cls-16" d="M62.41733,453.82275h4.207l-5.41113,14.98584H57.08139l-5.374-14.98584h4.39941l3.12109,11.05371Z"/><path class="cls-16" d="M78.61069,454.126a6.09127,6.09127,0,0,1,2.58984,2.21728,7.37587,7.37587,0,0,1,1.19434,3.09815,19.13025,19.13025,0,0,1,.1289,2.97412h-10.915a3.59375,3.59375,0,0,0,1.56739,3.16211,3.9788,3.9788,0,0,0,2.16015.564,3.04393,3.04393,0,0,0,2.98243-1.71875h4a4.88992,4.88992,0,0,1-1.45215,2.7085,7.28381,7.28381,0,0,1-5.6377,2.186,8.172,8.172,0,0,1-5.2793-1.84375q-2.28661-1.84423-2.28613-6a8.11157,8.11157,0,0,1,2.06445-5.97168,7.22311,7.22311,0,0,1,5.3584-2.07812A8.53478,8.53478,0,0,1,78.61069,454.126Zm-5.86133,3.38525a4.06755,4.06755,0,0,0-1.04395,2.31934h6.75a3.2676,3.2676,0,0,0-1.04394-2.36768,3.43052,3.43052,0,0,0-2.32324-.8081A3.10734,3.10734,0,0,0,72.74936,457.51123Z"/><path class="cls-16" d="M92.82944,453.47217c.0498.00439.16308.01123.33691.02051v4.01464c-.24707-.02734-.46777-.04589-.66015-.05517-.19239-.00879-.34864-.01367-.4668-.01367a3.25123,3.25123,0,0,0-3.17676,1.54,5.99962,5.99962,0,0,0-.45312,2.667v7.16308H84.46323V453.82275h3.74023v2.61231a8.27625,8.27625,0,0,1,1.58106-2.04883,4.30226,4.30226,0,0,1,2.85937-.9209C92.71713,453.46533,92.77866,453.46729,92.82944,453.47217Z"/><path class="cls-16" d="M98.50131,464.02393a2.608,2.608,0,0,0,.53906,1.48486,3.65008,3.65008,0,0,0,2.707.78369,4.14277,4.14277,0,0,0,1.84472-.34375,1.15143,1.15143,0,0,0,.13282-2.03467,22.51566,22.51566,0,0,0-4.09961-1.18213,8.50831,8.50831,0,0,1-3.59864-1.58154,3.42422,3.42422,0,0,1-1.04492-2.69434,4.66845,4.66845,0,0,1,1.63281-3.56787,6.56462,6.56462,0,0,1,4.59473-1.4917,8.44577,8.44577,0,0,1,4.581,1.12061,4.79946,4.79946,0,0,1,2.03223,3.87012h-3.918a2.323,2.323,0,0,0-.42773-1.19629,2.69347,2.69347,0,0,0-2.20606-.79737,3.1708,3.1708,0,0,0-1.82617.39893,1.146,1.146,0,0,0-.54492.93457,1.02383,1.02383,0,0,0,.5791.97656,25.09014,25.09014,0,0,0,4.09082,1.08594,7.50281,7.50281,0,0,1,3.51074,1.66357,3.77741,3.77741,0,0,1,1.1543,2.81836,4.54854,4.54854,0,0,1-1.66016,3.63672,7.80753,7.80753,0,0,1-5.13085,1.40918q-3.54054,0-5.22852-1.4917a4.84939,4.84939,0,0,1-1.6875-3.80175Z"/><path class="cls-16" d="M115.14975,452.03516h-3.97266v-3.61573h3.97266Zm-3.97266,1.78759h3.97266v14.98584h-3.97266Z"/><path class="cls-16" d="M117.40561,456.751V453.96h2.08984v-4.1792h3.877V453.96H125.806v2.791h-2.43359v7.91943a1.78108,1.78108,0,0,0,.23339,1.14795,2.57489,2.57489,0,0,0,1.42969.22656c.11914,0,.24512-.00195.37793-.00683q.19921-.0066.39258-.02051v2.92871l-1.85645.06836q-2.77734.09594-3.79492-.9624a2.86652,2.86652,0,0,1-.65918-2.07569V456.751Z"/><path class="cls-16" d="M138.08627,454.126a6.09135,6.09135,0,0,1,2.58985,2.21728,7.37573,7.37573,0,0,1,1.19433,3.09815,19.13,19.13,0,0,1,.12891,2.97412h-10.915a3.59377,3.59377,0,0,0,1.56738,3.16211,3.97884,3.97884,0,0,0,2.16016.564,3.0439,3.0439,0,0,0,2.98242-1.71875h4a4.88992,4.88992,0,0,1-1.45215,2.7085,7.28379,7.28379,0,0,1-5.63769,2.186,8.172,8.172,0,0,1-5.2793-1.84375q-2.28662-1.84423-2.28613-6a8.11157,8.11157,0,0,1,2.06445-5.97168,7.22311,7.22311,0,0,1,5.3584-2.07812A8.53473,8.53473,0,0,1,138.08627,454.126Zm-5.86132,3.38525a4.06742,4.06742,0,0,0-1.04395,2.31934h6.75a3.26761,3.26761,0,0,0-1.044-2.36768,3.4305,3.4305,0,0,0-2.32324-.8081A3.10732,3.10732,0,0,0,132.225,457.51123Zm6.97167-9.82031-4.17968,4.11084h-2.832l2.63964-4.11084Z"/><path class="cls-16" d="M152.12045,448.543h4.23438V465.165H166.474v3.64355H152.12045Z"/><path class="cls-16" d="M173.03159,452.03516h-3.97266v-3.61573h3.97266Zm-3.97266,1.78759h3.97266v14.98584h-3.97266Z"/><path class="cls-16" d="M189.62241,455.62354a8.61222,8.61222,0,0,1,1.68164,5.49951,9.63319,9.63319,0,0,1-1.65821,5.78808,6.01854,6.01854,0,0,1-7.62793,1.55371,5.942,5.942,0,0,1-1.46484-1.54v1.88379h-3.86328V448.5708h3.918v7.2041a5.74009,5.74009,0,0,1,1.64648-1.59472,4.91229,4.91229,0,0,1,2.71192-.6875A5.60029,5.60029,0,0,1,189.62241,455.62354Zm-3.27442,9.12939a5.55489,5.55489,0,0,0,.84571-3.21729,7.19553,7.19553,0,0,0-.416-2.63964,2.89663,2.89663,0,0,0-2.91113-1.98,2.94,2.94,0,0,0-2.95313,1.93847,7.22054,7.22054,0,0,0-.416,2.66748,5.55017,5.55017,0,0,0,.86035,3.18946,2.94877,2.94877,0,0,0,2.61914,1.26513A2.71981,2.71981,0,0,0,186.348,464.75293Z"/><path class="cls-16" d="M202.35092,453.47217c.04981.00439.16309.01123.33692.02051v4.01464c-.24707-.02734-.46778-.04589-.66016-.05517-.19238-.00879-.34863-.01367-.4668-.01367a3.25123,3.25123,0,0,0-3.17676,1.54,5.99976,5.99976,0,0,0-.45312,2.667v7.16308h-3.94629V453.82275H197.725v2.61231a8.27627,8.27627,0,0,1,1.58105-2.04883,4.30228,4.30228,0,0,1,2.85937-.9209C202.23862,453.46533,202.30014,453.46729,202.35092,453.47217Z"/><path class="cls-16" d="M214.74838,454.126a6.09135,6.09135,0,0,1,2.58985,2.21728,7.37573,7.37573,0,0,1,1.19433,3.09815,19.13,19.13,0,0,1,.12891,2.97412h-10.915a3.59377,3.59377,0,0,0,1.56738,3.16211,3.97884,3.97884,0,0,0,2.16016.564,3.0439,3.0439,0,0,0,2.98242-1.71875h4a4.88992,4.88992,0,0,1-1.45215,2.7085,7.28379,7.28379,0,0,1-5.63769,2.186,8.172,8.172,0,0,1-5.2793-1.84375q-2.28662-1.84423-2.28613-6a8.11157,8.11157,0,0,1,2.06445-5.97168,7.22311,7.22311,0,0,1,5.3584-2.07812A8.53473,8.53473,0,0,1,214.74838,454.126Zm-5.86133,3.38525a4.06747,4.06747,0,0,0-1.04394,2.31934h6.75a3.26761,3.26761,0,0,0-1.04395-2.36768,3.4305,3.4305,0,0,0-2.32324-.8081A3.10736,3.10736,0,0,0,208.887,457.51123Z"/><path class="cls-16" d="M236.41342,454.063a4.77246,4.77246,0,0,1,1.71875,1.65674V448.5708h3.97266v20.23779h-3.80762v-2.07617a5.52674,5.52674,0,0,1-1.91113,1.93848,5.36694,5.36694,0,0,1-2.668.605,5.56981,5.56981,0,0,1-4.41992-2.124,8.15517,8.15517,0,0,1-1.79395-5.45118,9.38221,9.38221,0,0,1,1.7666-6.03564,5.74814,5.74814,0,0,1,4.72266-2.19971A4.83791,4.83791,0,0,1,236.41342,454.063Zm.96192,10.67578a5.46063,5.46063,0,0,0,.86621-3.20313,4.91359,4.91359,0,0,0-1.38868-3.93212,2.98731,2.98731,0,0,0-1.97949-.71485,2.75155,2.75155,0,0,0-2.52246,1.29932,6.01978,6.01978,0,0,0-.80469,3.22363,5.9595,5.9595,0,0,0,.81836,3.32031,2.76541,2.76541,0,0,0,2.48145,1.24463A2.89229,2.89229,0,0,0,237.37534,464.73877Z"/><path class="cls-16" d="M255.431,454.126a6.09127,6.09127,0,0,1,2.58984,2.21728,7.37587,7.37587,0,0,1,1.19434,3.09815,19.13,19.13,0,0,1,.12891,2.97412h-10.915a3.59373,3.59373,0,0,0,1.56738,3.16211,3.97881,3.97881,0,0,0,2.16016.564,3.0439,3.0439,0,0,0,2.98242-1.71875h4a4.88992,4.88992,0,0,1-1.45215,2.7085,7.2838,7.2838,0,0,1-5.6377,2.186,8.172,8.172,0,0,1-5.27929-1.84375q-2.28663-1.84423-2.28614-6a8.11153,8.11153,0,0,1,2.06446-5.97168,7.22309,7.22309,0,0,1,5.3584-2.07812A8.53476,8.53476,0,0,1,255.431,454.126Zm-5.86133,3.38525a4.06747,4.06747,0,0,0-1.04394,2.31934h6.75a3.26761,3.26761,0,0,0-1.044-2.36768,3.43052,3.43052,0,0,0-2.32324-.8081A3.10734,3.10734,0,0,0,249.56967,457.51123Z"/><path class="cls-16" d="M284.18881,448.543v3.58838h-6.0625v16.67724h-4.26269V452.13135h-6.08985V448.543Z"/><path class="cls-16" d="M288.17612,453.82275v9.03272a4.74,4.74,0,0,0,.30078,1.9248,2.08027,2.08027,0,0,0,2.09277,1.14112,2.73372,2.73372,0,0,0,2.73633-1.62256,5.90619,5.90619,0,0,0,.38281-2.32324v-8.15284h3.97364v14.98584h-3.8086v-2.11718c-.03613.04589-.12793.18359-.27344.41259a2.7574,2.7574,0,0,1-.52148.6045,5.424,5.424,0,0,1-1.77539,1.12744,6.03717,6.03717,0,0,1-2.00879.30273q-3.31786,0-4.46875-2.39258a9.17362,9.17362,0,0,1-.64453-3.89062v-9.03272Z"/><path class="cls-16" d="M313.556,454.68213a4.96083,4.96083,0,0,1,1.47168,4.03516v10.0913H311.013v-9.11523a4.19309,4.19309,0,0,0-.31348-1.81494,2.20528,2.20528,0,0,0-2.18359-1.15479,2.70673,2.70673,0,0,0-2.7168,1.69092,5.84781,5.84781,0,0,0-.38183,2.28223v8.11181h-3.918V453.8501h3.79394v2.186a6.6444,6.6444,0,0,1,1.42383-1.66357,4.9358,4.9358,0,0,1,3.05371-.90723A5.743,5.743,0,0,1,313.556,454.68213Z"/><path class="cls-16" d="M322.69858,452.03516h-3.97266v-3.61573h3.97266Zm-3.97266,1.78759h3.97266v14.98584h-3.97266Z"/><path class="cls-16" d="M329.53256,464.02393a2.608,2.608,0,0,0,.53906,1.48486,3.65008,3.65008,0,0,0,2.707.78369,4.14277,4.14277,0,0,0,1.84472-.34375,1.15143,1.15143,0,0,0,.13282-2.03467,22.51566,22.51566,0,0,0-4.09961-1.18213,8.50831,8.50831,0,0,1-3.59864-1.58154,3.42422,3.42422,0,0,1-1.04492-2.69434,4.66845,4.66845,0,0,1,1.63281-3.56787,6.56462,6.56462,0,0,1,4.59473-1.4917,8.44577,8.44577,0,0,1,4.58105,1.12061,4.79946,4.79946,0,0,1,2.03223,3.87012h-3.918a2.323,2.323,0,0,0-.42773-1.19629,2.69347,2.69347,0,0,0-2.20606-.79737,3.1708,3.1708,0,0,0-1.82617.39893,1.146,1.146,0,0,0-.54492.93457,1.02383,1.02383,0,0,0,.5791.97656,25.09014,25.09014,0,0,0,4.09082,1.08594,7.50281,7.50281,0,0,1,3.51074,1.66357,3.77741,3.77741,0,0,1,1.1543,2.81836,4.54854,4.54854,0,0,1-1.66016,3.63672,7.80753,7.80753,0,0,1-5.13085,1.40918q-3.54054,0-5.22852-1.4917a4.84939,4.84939,0,0,1-1.6875-3.80175Z"/><g id="r5GuNi"><path class="cls-17" d="M213.41374,21.87735c15.50427.09986,13.83914-1.83,13.91849,13.75225.06453,12.67456.81693,11.95579-11.85071,11.87646-3.65541-.0229-7.31177-.0499-10.96642.00687-2.23747.03476-3.96032-.69312-4.60527-2.94811-.30524-1.06733-.72815-2.68153.39472-3.1953a5.51881,5.51881,0,0,1,5.482.58278c4.2093,2.51949,8.99765,1.18845,13.5393.79378,1.65082-.14346,1.4962-1.96151,1.43546-3.27464-.09756-2.1089-1.47085-2.80713-3.36366-2.813-4.154-.013-8.31614-.17882-12.45963.02677-3.81961.18953-5.65287-1.22189-5.33988-5.15934a28.53568,28.53568,0,0,0,.00009-4.48333c-.30945-3.93092,1.54642-5.42158,5.34314-5.19744C207.75636,22.01123,210.589,21.87775,213.41374,21.87735Zm-.72921,10.89734c1.49669,0,2.994-.028,4.48991.00633,2.45884.05641,3.68763-1.0207,3.65069-3.57586-.0375-2.59474-1.42982-3.50337-3.80875-3.47362-2.66035.03327-5.32152-.00256-7.98211.01828-2.19109.01715-3.401,1.07425-3.45631,3.33634-.06066,2.482,1.1459,3.69561,3.61434,3.68827C210.35639,32.771,211.52044,32.77383,212.68453,32.77469Z"/><path class="cls-17" d="M277.77,47.4875c-2.99082,0-5.98243.04241-8.97214-.01488-1.99792-.03829-3.65462-.84473-4.03537-2.964-.25115-1.398-.848-3.384.6952-4.10007,1.73356-.80438,3.47035-.45884,5.392.98126,3.8672,2.8981,8.5823,1.22207,12.93782,1.03636,1.4819-.06319,1.85932-1.731,1.72612-3.15828a2.73509,2.73509,0,0,0-2.95741-2.71875c-2.65769-.05022-5.31657-.03691-7.975-.04583-1.40116-.0047-2.7436-.06481-2.711-2.01221.02917-1.74453,1.13-2.26176,2.62255-2.28507,2.49175-.0389,4.98415-.03727,7.47621-.05727,2.06607-.01659,2.99841-1.06328,2.92235-3.12355-.07264-1.9686-1.28306-2.65957-2.96744-2.47243-4.1527.46139-8.51357-1.32592-12.50744,1.58367-1.11658.81346-3.87172,1.43253-4.61949-.99887-.6959-2.26277.28837-4.85105,2.79544-4.9842,6.788-.36053,13.69081-.80178,20.38207.06715,4.28489.55645,3.61712,5.14034,2.66477,8.25817-.75579,2.47437-1.16924,4.09641.27213,6.76,3.20279,5.91854.09266,10.24594-6.6612,10.26328-2.16007.00554-4.32011.00087-6.48017.00087Z"/><path class="cls-17" d="M36.11929,22.79133c13.39292-.00148,13.33409-.00115,13.40987,13.41431.07214,12.7678.16383,11.27164-11.36242,11.29575-3.99086.00834-7.98626-.11513-11.971.04053-2.55706.0999-3.55364-.73759-3.48612-3.39516q.228-8.97362.00078-17.9564c-.06511-2.60878.82557-3.56922,3.43375-3.438C29.46147,22.91934,32.79357,22.79282,36.11929,22.79133ZM28.51841,34.57576c.15528,9.62473-1.2813,8.36327,7.41455,8.39993,8.94081.03769,7.74683.94429,7.80461-8.11581.05241-8.21678.01087-8.217-7.35478-8.21919C28.51857,26.6384,28.51857,26.6384,28.51841,34.57576Z"/><path class="cls-17" d="M148.83967,26.0543c2.33116,0,4.66378-.04984,6.993.0168a3.24057,3.24057,0,0,1,3.28665,2.55728c.17744.71946.131,1.91873-.31741,2.28714a3.26221,3.26221,0,0,1-4.15835-.03874c-2.87116-2.23352-6.10689-.90077-9.16376-1.18693a2.41321,2.41321,0,0,0-2.90408,2.61714c-.02352,1.90755,1.18627,2.634,2.89758,2.65884,3.16374.04592,6.33736.18456,9.49042.00164,4.06569-.23587,4.82063,2.07063,4.50828,5.35464-.28714,3.01915,1.43811,7.22172-4.17134,7.183-4.33-.0299-8.66083-.04528-12.99033.01042-2.03507.02619-3.66954-.54432-4.2932-2.6141-.21462-.71244-.21179-2.03277.19523-2.29556,1.69542-1.09471,3.31015-.6109,5.02659.48376,2.86435,1.82669,6.14711.80545,9.24851.73763,1.59466-.03487,2.19873-1.33649,2.09561-2.8487a2.41779,2.41779,0,0,0-2.654-2.4004c-3.32919-.07067-6.6649-.17507-9.98921-.04407-3.82306.15065-4.44625-2.09634-4.21692-5.143.23275-3.09182-1.26684-7.185,4.12222-7.35639,2.32927-.07409,4.66287-.01242,6.99449-.01242Z"/><path class="cls-17" d="M113.9031,47.49939c-13.0972-.06624-11.84068,1.5008-11.87292-12.13986-.0051-2.16052.03258-4.32162-.00614-6.48144-.03057-1.70582.33667-2.84186,2.43349-2.89437,2.315-.058,2.80078,1.1062,2.75687,3.08318-.0738,3.32223.11072,6.65363-.05192,9.96948-.16222,3.30779.94088,4.75157,4.514,4.81832,9.34959.17467,9.3459.32157,9.34792-8.94654.00045-2.16048.05323-4.322.00238-6.48115-.04873-2.06986,1.138-2.45806,2.87973-2.425,1.62726.03089,2.45884.64654,2.44444,2.354-.04348,5.15094.08237,10.30685-.10889,15.45149-.0939,2.526-1.72736,3.78618-4.36211,3.70618C119.2233,47.433,116.56223,47.49593,113.9031,47.49939Z"/><path class="cls-17" d="M237.15,46.52034q6.33129-7.62271,12.65452-15.252c.91254-1.10671,2.427-2.1494,1.45532-3.84332-.79234-1.38129-2.37057-.87064-3.63445-.8951-3.15169-.061-6.30591.01277-9.45805-.03464-1.74427-.02624-3.93463.50987-4.09062-2.291-.17185-3.08449,2.20848-2.28342,3.8521-2.30091q9.20868-.098,18.41906-.01052c3.75831.03519,5.3472,2.16835,3.15681,5.29447-4.74488,6.77194-10.01584,13.19464-15.36362,19.513C242.52882,48.6052,239.78452,47.10811,237.15,46.52034Z"/><path class="cls-17" d="M53.66235,36.52364c-.0034-10.51647-.0034-10.5178,10.77292-10.5154,2.32776.00052,4.6555.01626,6.98326.02151,1.416.0032,2.17369.64172,2.06865,2.12325-.09572,1.35046-1.08452,1.52862-2.11856,1.54075-2.99252.03511-5.98569.01344-8.97833.0424-1.89347.01833-3.86858.04841-3.775,2.74037.0826,2.37727,1.88053,2.37542,3.5931,2.38729,2.16147.015,4.33208-.11112,6.48145.05166,1.4149.10715,3.81435-.94857,3.6656,1.86316-.14044,2.65513-2.46117,1.57948-3.90076,1.68338-2.31618.16717-4.65254.04649-6.98022.065-1.66186.01326-2.94566.4444-2.92174,2.49882.02216,1.90365,1.05677,2.69179,2.81153,2.71414,3.15859.04023,6.31782.02849,9.47664.055,1.37469.01155,2.7862.02079,2.64145,2.02592-.11868,1.64385-1.33632,1.66357-2.52642,1.66644-4.82187.01162-9.64482-.05125-14.46522.03485-2.20506.03938-2.91192-.96743-2.8458-3.01825C53.73052,41.84642,53.66577,39.184,53.66235,36.52364Z"/><path class="cls-17" d="M76.73983,36.7426c-.0009-10.73542-.0009-10.73542,10.55836-10.73541,1.99874,0,4.00815.13283,5.994-.02689,4.42546-.35595,6.40873,1.34654,6.27561,6.01249-.18711,6.5576-.12685,6.71684-6.6926,6.73043a40.16451,40.16451,0,0,1-4.99279-.03212c-4.50846-.55928-7.11038.70312-6.3283,5.85712.24445,1.611-.129,2.91656-2.30547,2.96545-2.5235.05668-2.53895-1.49908-2.51608-3.276C76.76474,41.73971,76.74072,39.241,76.73983,36.7426ZM88.2219,29.74288c-1.32179,0-2.64359.00493-3.96534-.0013-1.49876-.00706-2.58015.4387-2.63122,2.19884-.04528,1.561-.0067,3.338,1.88892,3.4782a57.99763,57.99763,0,0,0,9.35676-.10315c1.56858-.13885,1.77929-1.71432,1.75172-3.1204A2.17875,2.17875,0,0,0,92.187,29.7558C90.86528,29.75251,89.5436,29.75513,88.2219,29.74288Z"/><path class="cls-17" d="M193.46908,35.23635c-.00006,2.83234-.05608,5.66614.018,8.49654.05711,2.18159-.00769,3.80319-3.03353,3.85577-3.12041.05423-3.567-1.38669-3.48481-3.95272.13329-4.16093.077-8.32993.01028-12.49407-.021-1.30561.12759-3.29664-.59769-3.78061-2.20049-1.46831-1.16964-2.80758-.27683-4.12108,1.5315-2.25315,3.95622-1.44482,5.97046-1.18695,2.18331.27951,1.30464,2.35781,1.3554,3.68793C193.5509,28.90212,193.46914,32.07079,193.46908,35.23635Z"/><path class="cls-17" d="M129.64829,36.42759c.00311-2.65074.02987-5.30185-.00683-7.95208-.0223-1.60978.58741-2.45588,2.3116-2.45829,1.662-.00231,2.40636.6946,2.39834,2.36765-.02615,5.46706-.03164,10.93459.01479,16.40144.01544,1.81475-.56849,2.77934-2.572,2.7069-1.8364-.06639-2.16016-1.13367-2.153-2.61627C129.65488,42.06055,129.64518,39.24405,129.64829,36.42759Z"/></g><path class="cls-17" d="M309.6937,36.05957A13.10279,13.10279,0,1,1,322.79721,22.957,13.11758,13.11758,0,0,1,309.6937,36.05957Zm0-24.20557a11.10279,11.10279,0,1,0,11.10351,11.103A11.11539,11.11539,0,0,0,309.6937,11.854Z"/><path class="cls-17" d="M312.80405,17.01221a3.37349,3.37349,0,0,1,1.44629,1.33056,3.93544,3.93544,0,0,1,.499,2.01612,3.68915,3.68915,0,0,1-.31836,1.56933,3.49686,3.49686,0,0,1-.82227,1.14063,3.562,3.562,0,0,1-1.05175.67627l2.42285,4.86279h-2.6709l-2.11328-4.50049H308.057v4.50049h-2.36133V16.53955H310.514A5.08134,5.08134,0,0,1,312.80405,17.01221ZM310.13412,22.313a2.3919,2.3919,0,0,0,1.56934-.47754,1.75023,1.75023,0,0,0,.5791-1.43262,1.86293,1.86293,0,0,0-.583-1.47656,2.2378,2.2378,0,0,0-1.53027-.5127H308.057V22.313Z"/></svg>