<svg id="content" xmlns="http://www.w3.org/2000/svg" viewBox="0 0 889 535.24054"><defs><style>.cls-1{fill:#010101;}</style></defs><title>ureplicator</title><path d="M103.00684,428.99263v42.99072q0,6.0857,1.43261,9.16114,2.54,5.43163,9.96192,5.43115,9.50536,0,13.02247-7.72168a28.0823,28.0823,0,0,0,1.82323-11.0586V428.99263h18.91016v71.32422h-18.125V490.2397q-.26077.32813-1.30469,1.96338a13.10961,13.10961,0,0,1-2.47949,2.87891,25.8747,25.8747,0,0,1-8.45021,5.36572,28.747,28.747,0,0,1-9.55957,1.43945q-15.791,0-21.27147-11.38574-3.06738-6.28125-3.06641-18.51807V428.99263Z"/><path d="M229.59766,406.352a23.82752,23.82752,0,0,1,9.02929,6.73975,30.02643,30.02643,0,0,1,4.84961,8.11377,27.059,27.059,0,0,1,1.78711,10.14258,28.88817,28.88817,0,0,1-3.46875,13.5122q-3.46875,6.6423-11.45117,9.39014,6.6753,2.68355,9.45605,7.623,2.78028,4.94164,2.78028,15.083v6.478a48.78064,48.78064,0,0,0,.53222,8.96485,8.047,8.047,0,0,0,3.7217,5.49673v2.4209H224.586q-.917-3.20508-1.3086-5.16943a47.4253,47.4253,0,0,1-.85058-8.31006l-.13086-8.96485q-.12453-9.22632-3.18848-12.30175-3.06446-3.07471-11.48144-3.07569h-19.6836v37.82178H168.24609V403.86519h46.13379Q224.26905,404.06148,229.59766,406.352Zm-41.65528,14.26465v25.9126h21.68946q6.46288,0,9.69433-1.5708,5.7173-2.748,5.71778-10.86231,0-8.76786-5.53125-11.77832-3.10694-1.70073-9.32129-1.70117Z"/><path d="M309.54,430.437a29.018,29.018,0,0,1,12.32519,10.55175,35.05992,35.05992,0,0,1,5.68262,14.74512,91.19409,91.19409,0,0,1,.61426,14.15576H276.21484q.43365,10.73218,7.459,15.04981a18.93485,18.93485,0,0,0,10.28223,2.6831q6.37206,0,10.35449-3.272a15.67376,15.67376,0,0,0,3.83886-4.90772h19.03907q-.75294,6.34791-6.91309,12.89112-9.58448,10.404-26.834,10.40381a38.87922,38.87922,0,0,1-25.12305-8.77539q-10.88379-8.77515-10.88379-28.55518,0-18.53247,9.82617-28.42236,9.82324-9.88917,25.50488-9.89014A40.61914,40.61914,0,0,1,309.54,430.437Zm-27.89942,16.11035a19.37734,19.37734,0,0,0-4.96777,11.04053h32.12891q-.50977-7.426-4.96778-11.27051a16.346,16.346,0,0,0-11.06152-3.84522q-7.17915,0-11.13181,4.07517Z"/><path d="M397.57324,436.64839q8.72607,9.22632,8.72656,27.09033,0,18.84522-8.52929,28.72608a27.68422,27.68422,0,0,1-21.96387,9.88037q-8.562,0-14.22559-4.25293a27.484,27.484,0,0,1-6.05957-6.87109v37.16751H337.06934v-99.396h17.86328v10.53467a30.015,30.015,0,0,1,6.4541-7.32862,23.81512,23.81512,0,0,1,14.88281-4.77685A28.20507,28.20507,0,0,1,397.57324,436.64839Zm-14.31347,13.41406q-3.80127-6.34569-12.32813-6.34716-10.248,0-14.08105,9.61914a36.13864,36.13864,0,0,0-1.9834,12.95605q0,12.43359,6.67187,17.47119a15.31182,15.31182,0,0,0,9.38867,2.94483q7.86768,0,12.001-6.02,4.13232-6.01979,4.13281-16.03174A27.84925,27.84925,0,0,0,383.25977,450.06245Z"/><path d="M438.49316,500.31685H419.84473V403.86519h18.64843Z"/><path d="M475.85645,420.48579H456.94629V403.27632h18.91016Zm-18.91016,8.50684h18.91016v71.32422H456.94629Z"/><path d="M536.58105,454.57759a16.53474,16.53474,0,0,0-2.68847-7.19775q-3.14941-4.3191-9.77344-4.31885-9.44678,0-12.92285,9.35742-1.83691,4.96143-1.83594,13.18408,0,7.834,1.83594,12.59717,3.3457,8.89967,12.59473,8.89941,6.55956,0,9.31445-3.53369a17.56578,17.56578,0,0,0,3.34473-9.16113h19.042a31.18732,31.18732,0,0,1-6.15723,16.09717q-8.77881,12.2373-26.00293,12.23633-17.228,0-25.34961-10.20752-8.12109-10.20851-8.12207-26.47071,0-18.35156,8.97363-28.56054,8.97217-10.20777,24.75977-10.208,13.42676,0,21.97461,6.02,8.54736,6.02119,10.12012,21.2666Z"/><path d="M596.69727,456.93306a29.4934,29.4934,0,0,0,7.44921-1.63574q4.021-1.70069,4.02051-5.3003,0-4.38281-3.084-6.05273-3.08505-1.66845-9.05371-1.66846-6.69873,0-9.48535,3.27149a13.489,13.489,0,0,0-2.65333,6.54394H565.89648q.59034-9.35668,5.25684-15.37744,7.4253-9.42261,25.499-9.42285a45.47378,45.47378,0,0,1,20.89844,4.646q9.13476,4.64721,9.13477,17.53662v32.71777q0,3.40283.13086,8.24463.19629,3.66577,1.1123,4.97314a6.6751,6.6751,0,0,0,2.748,2.15967v2.748H610.3916a20.70872,20.70872,0,0,1-1.17773-4.05713q-.32812-1.897-.52344-4.31836a38.52222,38.52222,0,0,1-8.95117,7.13232,27.053,27.053,0,0,1-13.69043,3.46778q-9.74121,0-16.0918-5.5293-6.35155-5.52832-6.35156-15.67139,0-13.15283,10.21777-19.042,5.603-3.20508,16.48047-4.58008Zm11.40332,8.70312a20.6346,20.6346,0,0,1-3.61524,1.79932,30.57334,30.57334,0,0,1-5.00781,1.27588l-4.24512.78564q-5.96924,1.04737-8.57226,2.55176a8.51685,8.51685,0,0,0-4.40528,7.91748q0,4.77759,2.69141,6.90381a10.2228,10.2228,0,0,0,6.54394,2.12647,19.492,19.492,0,0,0,11.2627-3.5337q5.14893-3.53319,5.34766-12.89062Z"/><path d="M635.65039,442.93013V429.647h9.94629V409.75435H664.0498V429.647h11.582v13.2832h-11.582v37.69092q0,4.38428,1.11231,5.46387,1.11181,1.07958,6.80469,1.07959.8496,0,1.7998-.03272.94776-.03222,1.86524-.09814v13.9375l-8.834.32714q-13.21875.457-18.06055-4.58056-3.14062-3.20508-3.14062-9.88037V442.93013Z"/><path d="M747.08691,491.59126q-9.03075,11.14673-27.417,11.14649-18.38964,0-27.418-11.14649-9.02929-11.146-9.03027-26.83838a41.5655,41.5655,0,0,1,9.03027-26.73974q9.03077-11.31006,27.418-11.311,18.38671,0,27.417,11.311a41.56545,41.56545,0,0,1,9.03028,26.73974Q756.11719,480.44507,747.08691,491.59126ZM732.168,481.28462q4.3828-5.81616,4.38379-16.53174,0-10.71533-4.38379-16.498-4.38575-5.78174-12.56348-5.78272-8.18115,0-12.59668,5.78272-4.4165,5.78174-4.417,16.498,0,10.71679,4.417,16.53174,4.41651,5.81542,12.59668,5.81445Q727.78269,487.09907,732.168,481.28462Z"/><path d="M809.08691,427.32368q.35889.0337,1.60254.09815v19.10742q-1.76659-.19629-3.14062-.26172-1.374-.06446-2.22461-.06543-11.25587,0-15.11524,7.32862-2.16065,4.12206-2.16015,12.69433v34.0918h-18.7793V428.99263h17.79785v12.43262q4.31984-7.1316,7.52539-9.75,5.23389-4.38282,13.61035-4.38428Q808.72608,427.291,809.08691,427.32368Z"/><path class="cls-1" d="M128.73334,270.88591c40.86557,0,72.46328-31.60463,72.46328-78.37235V10.495H245.4279V305.43471H201.61823V278.04585c-19.80044,20.64359-47.18236,32.44089-77.94385,32.44089-63.20237,0-111.65636-45.92453-111.65636-115.416V10.5433H56.2493V192.51364c0,47.61084,31.17614,78.37233,72.4702,78.37233"/><path class="cls-1" d="M278.30423,10.50186h42.55188V117.94242a106.24487,106.24487,0,0,1,76.25748-32.02624c63.20233,0,112.91418,50.14031,112.91418,112.49955,0,61.93762-49.71185,112.07107-112.91418,112.07107A107.21279,107.21279,0,0,1,320.4,278.46745v26.95343H278.242Zm115.86523,262.492c40.45093,0,73.7349-33.291,73.7349-74.57809,0-41.71563-33.28406-74.57812-73.73493-74.57812a74.57932,74.57932,0,0,0,0,149.15624"/><path class="cls-1" d="M637.28259,86.33779c61.93073,0,107.44055,47.61085,107.44055,111.65637v13.90521h-174.831c5.90216,34.97035,34.97034,61.09448,71.18475,61.09448,24.88013,0,45.9314-10.11792,61.93763-31.60463l30.76147,22.75145c-21.49359,28.6536-53.513,45.92453-92.6991,45.92453-64.4602,0-114.17889-48.03241-114.17889-112.07106,0-60.67287,47.61084-111.65636,110.3916-111.65636m-66.575,91.85593H701.74976c-7.15992-32.86937-33.70563-54.77769-65.30335-54.77769S578.303,145.32434,570.7146,178.19371"/><path class="cls-1" d="M858.9021,128.475c-27.81043,0-48.03241,21.48676-48.03241,54.77077v122.189H768.31085V90.55357h42.158V117.12c10.53259-17.27785,27.81043-28.232,51.40509-28.232h14.7414v39.60773Z"/></svg>