<svg id="Layer_1" data-name="Layer 1" xmlns="http://www.w3.org/2000/svg" viewBox="0 0 45.19028 31.38012"><defs><style>.cls-1{fill:none;}.cls-2{fill:#37236a;}</style></defs><path class="cls-1" d="M37.33243,23.16083c.96106,0,1.2922-1.13877,1.2922-2.12358,0-.98554-.33114-2.12431-1.2922-2.12431-.95249,0-1.2839,1.13877-1.2839,2.12431C36.04853,22.02206,36.37994,23.16083,37.33243,23.16083Z"/><path class="cls-1" d="M22.88244,13.45415a.69655.69655,0,0,0-.67914-.70883H21.771V14.109h.43232A.66574.66574,0,0,0,22.88244,13.45415Z"/><polygon class="cls-1" points="7.729 21.683 9.062 21.683 8.407 19.712 7.729 21.683"/><path class="cls-1" d="M37.95833,15.88459a.49471.49471,0,0,0,.15441-.03489,1.56832,1.56832,0,0,0,.53776-1.30457c0-.3836-.14441-.57271-.39335-.57271a.47464.47464,0,0,0-.16462.03969,1.346,1.346,0,0,0-.52775,1.20005C37.56478,15.586,37.67971,15.88459,37.95833,15.88459Z"/><path class="cls-2" d="M22.30545,14.3734l.85942,1.65231h.58884l-.27652-.28218-.79288-1.45425a.93022.93022,0,0,0,.667-.82894,1.061,1.061,0,0,0-1.148-.97942H21.104l.27632.28224v2.98037l-.27632.28218h.94921l-.28218-.28218V14.3734ZM21.771,12.74532h.43232a.69655.69655,0,0,1,.67914.70883.66574.66574,0,0,1-.67914.65485H21.771Z"/><polygon class="cls-2" points="8.313 16.026 9.238 16.026 8.931 15.719 8.931 13.064 10.842 16.032 10.956 16.032 10.956 12.787 11.262 12.481 10.337 12.481 10.644 12.787 10.644 15.04 9.046 12.481 8.313 12.481 8.613 12.787 8.613 15.719 8.313 16.026"/><polygon class="cls-2" points="12.38 16.026 13.335 16.026 13.053 15.744 13.053 12.763 13.335 12.481 12.38 12.481 12.662 12.763 12.662 15.744 12.38 16.026"/><polygon class="cls-2" points="15.565 16.026 15.745 16.026 16.772 12.763 17.061 12.481 16.207 12.481 16.484 12.757 15.733 15.209 15.006 12.757 15.282 12.481 14.279 12.481 14.567 12.763 15.565 16.026"/><polygon class="cls-2" points="20.028 15.377 19.65 15.761 18.574 15.761 18.574 14.271 19.374 14.271 19.656 14.554 19.656 13.725 19.374 14.007 18.574 14.007 18.574 12.745 19.65 12.745 20.028 13.124 20.028 12.481 17.908 12.481 18.184 12.763 18.184 15.744 17.908 16.026 20.028 16.026 20.028 15.377"/><path class="cls-2" d="M26.14472,14.36156l-.72094-.52282a.83412.83412,0,0,1-.39051-.60693.49932.49932,0,0,1,.5107-.50452,1.99408,1.99408,0,0,1,.22807.04206l.31258.33654.33069-.49287-.7029-.1321a.56345.56345,0,0,0-.16844-.018.89253.89253,0,0,0-.90115.87127,1.0252,1.0252,0,0,0,.45653.811l.72686.52281a.60215.60215,0,0,1,.25249.51663.58517.58517,0,0,1-.58883.625.6023.6023,0,0,1-.24637-.04825l-.33654-.39644-.30647.55277.67934.132a1.203,1.203,0,0,0,.21.02422,1.01781,1.01781,0,0,0,.98553-1.03346A.78343.78343,0,0,0,26.14472,14.36156Z"/><path class="cls-2" d="M4.79168,15.0765a1.05585,1.05585,0,0,0,1.09961,1.02734A1.10607,1.10607,0,0,0,7.039,15.0765V12.78712l.30027-.3062H6.4141l.30614.3062V15.0765a.72832.72832,0,0,1-.73305.73305.76234.76234,0,0,1-.78077-.73305V12.78712l.3062-.3062H4.48529l.30639.3062Z"/><polygon class="cls-2" points="30.627 12.745 30.627 15.744 30.35 16.026 31.3 16.026 31.017 15.744 31.017 12.745 31.69 12.745 32.069 13.124 32.069 12.481 29.576 12.481 29.576 13.124 29.96 12.745 30.627 12.745"/><polygon class="cls-2" points="33.931 14.38 33.931 15.744 33.649 16.026 34.604 16.026 34.322 15.744 34.322 14.38 35.235 12.769 35.53 12.481 34.652 12.481 34.929 12.757 34.184 14.085 33.475 12.757 33.751 12.481 32.748 12.481 33.036 12.763 33.931 14.38"/><polygon class="cls-2" points="27.653 16.026 28.608 16.026 28.326 15.744 28.326 12.763 28.608 12.481 27.653 12.481 27.935 12.763 27.935 15.744 27.653 16.026"/><path class="cls-2" d="M38.96572,17.06489c0,.09958.12973.14941.21424.14941a.83821.83821,0,0,0,.54776-.34345,4.18542,4.18542,0,0,0,.59266-1.81784c.035-.20932.07483-.4183.15941-.96606l.50781-.04989.10953-.12947h-.58765c.14941-.92116.27388-1.20005.48813-1.20005a.53929.53929,0,0,1,.3834.16442.10109.10109,0,0,0,.13941-.00526.29185.29185,0,0,0,.09979-.1841c.00474-.09953-.12947-.20925-.29883-.20925a1.10637,1.10637,0,0,0-.802.41856,2.24637,2.24637,0,0,0-.39308,1.01568h-.32351l-.13494.12947.01521.04989h.41329c-.06484.44818-.12467.83659-.21925,1.46392-.13421.93137-.24913,1.26015-.34346,1.33966a.18187.18187,0,0,1-.12446.04469.67571.67571,0,0,1-.21925-.07457.11767.11767,0,0,0-.13941.03468A.30778.30778,0,0,0,38.96572,17.06489Z"/><path class="cls-2" d="M37.789,16.069a1.278,1.278,0,0,0,.74206-.33351,1.78415,1.78415,0,0,0,.52282-1.25514.61219.61219,0,0,0-.63728-.69218,1.18362,1.18362,0,0,0-.53782.17937,1.56079,1.56079,0,0,0-.71712,1.36433C37.16163,15.68034,37.32605,16.069,37.789,16.069Zm.30356-2.05684a.47464.47464,0,0,1,.16462-.03969c.24894,0,.39335.18911.39335.57271a1.56832,1.56832,0,0,1-.53776,1.30457.49471.49471,0,0,1-.15441.03489c-.27862,0-.39355-.29857-.39355-.67243A1.346,1.346,0,0,1,38.09253,14.01211Z"/><path class="cls-2" d="M27.06378,21.03725a2.34412,2.34412,0,0,0,2.21309,2.44663,2.07856,2.07856,0,0,0,1.30787-.34734V21.25505l.37149-.37959H29.68042l.37939.37959v1.53448a1.02589,1.02589,0,0,1-.78294.33918c-1.058,0-1.591-1.066-1.591-2.09146,0-1.03379.67012-2.09173,1.591-2.09173a.72679.72679,0,0,1,.581.2261l.52519.51663V18.8647a2.12709,2.12709,0,0,0-1.10619-.27454A2.32939,2.32939,0,0,0,27.06378,21.03725Z"/><polygon class="cls-2" points="25.791 23.417 25.979 23.419 25.979 19.067 26.391 18.655 25.147 18.655 25.559 19.067 25.559 22.095 23.411 18.655 22.425 18.655 22.829 19.067 22.829 23.007 22.425 23.419 23.669 23.419 23.257 23.007 23.257 19.438 25.791 23.417"/><polygon class="cls-2" points="18.551 18.655 17.267 18.655 17.646 19.034 17.646 20.674 15.644 20.674 15.644 19.034 16.023 18.655 14.747 18.655 15.119 19.034 15.119 23.04 14.747 23.419 16.023 23.419 15.644 23.04 15.644 21.029 17.646 21.029 17.646 23.04 17.267 23.419 18.551 23.419 18.171 23.04 18.171 19.034 18.551 18.655"/><polygon class="cls-2" points="34.439 19.01 34.947 19.519 34.947 18.655 31.596 18.655 31.596 19.519 32.113 19.01 33.009 19.01 33.009 23.04 32.638 23.419 33.914 23.419 33.534 23.04 33.534 19.01 34.439 19.01"/><polygon class="cls-2" points="2.282 23.419 2.524 23.419 3.614 19.971 4.672 23.419 4.915 23.419 6.296 19.034 6.683 18.655 5.536 18.655 5.908 19.026 4.898 22.321 3.921 19.026 4.293 18.655 2.944 18.655 3.324 19.034 3.421 19.349 2.508 22.321 1.531 19.026 1.903 18.655 0.554 18.655 0.941 19.034 2.282 23.419"/><path class="cls-2" d="M37.33243,23.52423c1.22737,0,1.91408-1.276,1.91408-2.487,0-1.2117-.68671-2.48751-1.91408-2.48751-1.21926,0-1.90577,1.27581-1.90577,2.48751C35.42666,22.24822,36.11317,23.52423,37.33243,23.52423Zm0-4.61129c.96106,0,1.2922,1.13877,1.2922,2.12431,0,.98481-.33114,2.12358-1.2922,2.12358-.95249,0-1.2839-1.13877-1.2839-2.12358C36.04853,20.05171,36.37994,18.91294,37.33243,18.91294Z"/><polygon class="cls-2" points="43.261 22.095 41.114 18.655 40.128 18.655 40.532 19.067 40.532 23.007 40.128 23.419 41.372 23.419 40.96 23.007 40.96 19.438 43.481 23.422 43.681 23.422 43.681 19.067 44.093 18.655 42.849 18.655 43.261 19.067 43.261 22.095"/><path class="cls-2" d="M11.76765,20.89165l.97718.70257a.80915.80915,0,0,1,.33924.69461.78665.78665,0,0,1-.7915.83988.80571.80571,0,0,1-.33108-.06484l-.45232-.53275-.41164.74272.9126.17772a1.627,1.627,0,0,0,.28244.03232A1.36784,1.36784,0,0,0,13.61709,22.095a1.05543,1.05543,0,0,0-.44416-.91287l-.96915-.70238a1.1223,1.1223,0,0,1-.525-.81545.67155.67155,0,0,1,.68651-.67868,2.70027,2.70027,0,0,1,.30686.0568l.41974.45226.44416-.66223-.94486-.17771a.75705.75705,0,0,0-.2259-.02423,1.19969,1.19969,0,0,0-1.21123,1.17083A1.37754,1.37754,0,0,0,11.76765,20.89165Z"/><path class="cls-2" d="M10.49112,23.41924l-.37979-.38768L8.62575,18.65473H8.3832l-1.51,4.37683-.38761.38768H7.63238l-.37149-.37149.34727-1.0093H9.1828l.33107,1.0093-.37169.37149ZM7.72927,21.68288l.67815-1.97041.65446,1.97041Z"/><polygon class="cls-2" points="21.12 18.655 19.836 18.655 20.216 19.034 20.216 23.04 19.836 23.419 21.12 23.419 20.741 23.04 20.741 19.034 21.12 18.655"/><polygon class="cls-2" points="18.728 8.686 21.165 8.686 22.323 4.317 23.434 8.686 25.872 8.686 27.706 1.705 28.647 1.705 28.647 0.142 25.292 0.142 25.292 1.705 26.402 1.705 25.196 6.248 23.699 0.142 22.154 0.142 20.513 6.297 19.331 1.705 20.538 1.705 20.538 0.142 16 0.142 16 1.705 16.99 1.705 18.728 8.686"/><rect class="cls-2" x="0.90147" y="25.10603" width="43.87617" height="0.27875"/><path class="cls-2" d="M29.09523,28.23681a6.32593,6.32593,0,0,1,.112-.78413.60547.60547,0,0,0-.75944.399c-.24531.52064-.56705,1.00528-.87746,1.54278-.07207-.11684-.1267-.20023-.17633-.28652-.27836-.48346-.55125-.97014-.837-1.44912a.42033.42033,0,0,0-.23426-.20082,2.82992,2.82992,0,0,0-.50215-.00941,5.64071,5.64071,0,0,1,.12111.76655q.02361,1.11616-.00006,2.233a5.07154,5.07154,0,0,1-.11933.72831h.59627a5.89534,5.89534,0,0,1-.11848-.64985c-.01968-.27776-.00487-.558-.00487-.83711V28.18981l.065-.01514c.36854.62991.73713,1.25981,1.126,1.92447.39776-.68473.76083-1.31,1.124-1.93513a19.92382,19.92382,0,0,1,.064,2.25509,5.27328,5.27328,0,0,1-.12184.74937h.669a4.46627,4.46627,0,0,1-.12552-.69862Q29.07232,29.35369,29.09523,28.23681Z"/><path class="cls-2" d="M20.66363,27.90388a2.63132,2.63132,0,0,1,.25084.34589l.10025-.08017c.016-.2245.16679-.50024-.18265-.65669a1.46084,1.46084,0,0,0-1.92026.64182,2.46118,2.46118,0,0,0-.11144,2.10034,1.38841,1.38841,0,0,0,1.53527.98745c.6126-.02962.71929-.154.66144-.771l-.08649-.07089a3.25717,3.25717,0,0,1-.26342.34174.69723.69723,0,0,1-1.08466-.02968,2.46342,2.46342,0,0,1-.01356-2.78337A.726.726,0,0,1,20.66363,27.90388Z"/><path class="cls-2" d="M12.10421,28.14518a.90988.90988,0,0,1,1.09631-.39446c0,.88608.008,1.76328-.005,2.64021a6.33016,6.33016,0,0,1-.10288.7732h.66512a3.71153,3.71153,0,0,1-.12578-.641c-.01415-.8169-.00632-1.63413-.00514-2.45123.00014-.10927.00915-.21846.01363-.31891a.89277.89277,0,0,1,1.08835.38848v-.67118H12.10421Z"/><path class="cls-2" d="M33.22723,31.18115l-.29547-.30162L31.776,27.47438h-.1887l-1.17477,3.40515-.30157.30162h.89221l-.289-.289.27017-.78523h1.22506l.25758.78523-.28917.289Zm-2.1487-1.35088.5276-1.533.50916,1.533Z"/><path class="cls-2" d="M23.3095,31.30169c.97406,0,1.51905-1.01266,1.51905-1.97372,0-.96163-.545-1.97414-1.519-1.97414-.96764,0-1.51247,1.01251-1.51247,1.97414C21.797,30.289,22.34186,31.30169,23.3095,31.30169Zm0-3.65962c.76271,0,1.02551.90376,1.02551,1.6859,0,.78157-.2628,1.68532-1.02551,1.68532-.75592,0-1.01894-.90375-1.01894-1.68532C22.29056,28.54583,22.55358,27.64207,23.3095,27.64207Z"/><path class="cls-2" d="M18.17677,31.16413l-.29548-.30162-1.15577-3.40515h-.1887l-1.17477,3.40515-.30157.30162h.8922l-.289-.289.27018-.78523H17.1589l.25758.78523-.28918.289Zm-2.14871-1.35088.5276-1.533.50917,1.533Z"/></svg>