<?xml version="1.0" encoding="UTF-8"?>
<svg id="Layer_1" data-name="Layer 1" xmlns="http://www.w3.org/2000/svg" xmlns:xlink="http://www.w3.org/1999/xlink" viewBox="0 0 651.54 187.13">
  <defs>
    <style>
      .cls-1 {
        fill: url(#linear-gradient-2);
      }

      .cls-1, .cls-2 {
        fill-rule: evenodd;
      }

      .cls-3 {
        fill: url(#linear-gradient-8);
      }

      .cls-4 {
        fill: url(#linear-gradient-7);
      }

      .cls-5 {
        fill: url(#linear-gradient-5);
      }

      .cls-6 {
        fill: url(#linear-gradient-6);
      }

      .cls-7 {
        fill: url(#linear-gradient-9);
      }

      .cls-8 {
        fill: url(#linear-gradient-4);
      }

      .cls-9 {
        fill: url(#linear-gradient-3);
      }

      .cls-10 {
        fill: url(#linear-gradient-10);
      }

      .cls-11 {
        fill: url(#linear-gradient-11);
      }

      .cls-12 {
        fill: url(#linear-gradient-12);
      }

      .cls-13 {
        fill: url(#linear-gradient-13);
      }

      .cls-2 {
        fill: url(#linear-gradient);
      }
    </style>
    <linearGradient id="linear-gradient" x1="334.83" y1="-495.88" x2="334.83" y2="-683.01" gradientTransform="translate(0 -495.88) scale(1 -1)" gradientUnits="userSpaceOnUse">
      <stop offset="0" stop-color="#101010"/>
      <stop offset="1" stop-color="#464646"/>
    </linearGradient>
    <linearGradient id="linear-gradient-2" x1="530.92" x2="530.92" xlink:href="#linear-gradient"/>
    <linearGradient id="linear-gradient-3" x1="253.27" x2="253.27" xlink:href="#linear-gradient"/>
    <linearGradient id="linear-gradient-4" x1="437.13" x2="437.13" xlink:href="#linear-gradient"/>
    <linearGradient id="linear-gradient-5" x1="608.67" x2="608.67" xlink:href="#linear-gradient"/>
    <linearGradient id="linear-gradient-6" x1="83.01" x2="83.01" xlink:href="#linear-gradient"/>
    <linearGradient id="linear-gradient-7" x1="52" x2="52" xlink:href="#linear-gradient"/>
    <linearGradient id="linear-gradient-8" x1="139.05" x2="139.05" xlink:href="#linear-gradient"/>
    <linearGradient id="linear-gradient-9" x1="153.61" x2="153.61" xlink:href="#linear-gradient"/>
    <linearGradient id="linear-gradient-10" x1="33.23" x2="33.23" xlink:href="#linear-gradient"/>
    <linearGradient id="linear-gradient-11" x1="47.79" x2="47.79" xlink:href="#linear-gradient"/>
    <linearGradient id="linear-gradient-12" x1="134.84" x2="134.84" xlink:href="#linear-gradient"/>
    <linearGradient id="linear-gradient-13" x1="103.83" x2="103.83" xlink:href="#linear-gradient"/>
  </defs>
  <path class="cls-2" d="M334.83,48.63c9.04,0,16.79,1.83,23.23,5.49,6.54,3.66,11.59,8.85,15.15,15.59,3.56,6.73,5.34,14.72,5.34,23.96s-1.78,17.12-5.34,23.96c-3.56,6.73-8.61,11.93-15.15,15.59-6.54,3.65-14.29,5.48-23.23,5.48s-16.55-1.83-23.09-5.48c-6.54-3.75-11.64-9-15.3-15.73-3.56-6.74-5.34-14.67-5.34-23.81s1.78-17.08,5.34-23.81,8.61-11.93,15.15-15.59c6.64-3.75,14.38-5.63,23.24-5.63ZM334.83,60.47c-9.43,0-16.84,2.93-22.23,8.8-5.29,5.77-7.94,13.9-7.94,24.39s2.65,18.66,7.94,24.53c5.39,5.77,12.8,8.66,22.23,8.66s16.93-2.89,22.22-8.66c5.29-5.87,7.94-14.05,7.94-24.53s-2.65-18.76-7.94-24.54c-5.29-5.77-12.7-8.66-22.22-8.66Z"/>
  <path class="cls-1" d="M532.36,48.63c8.18,0,15.25,1.68,21.21,5.05,5.97,3.27,10.58,7.94,13.85,14,3.37,6.06,5.05,13.23,5.05,21.5v6.06h-70.14c.39,9.91,3.27,17.65,8.66,23.24,5.48,5.58,12.75,8.37,21.79,8.37,6.25,0,11.55-1.35,15.88-4.04,4.43-2.69,7.46-6.59,9.09-11.69h13.86c-2.21,8.75-6.74,15.54-13.57,20.35-6.73,4.81-15.1,7.22-25.11,7.22-8.85,0-16.55-1.83-23.09-5.48-6.54-3.75-11.59-9.04-15.15-15.88-3.56-6.83-5.34-14.82-5.34-23.96s1.78-17.03,5.34-23.67c3.56-6.74,8.56-11.93,15.01-15.59,6.45-3.66,14-5.49,22.66-5.49ZM532.22,60.18c-7.79,0-14.29,2.16-19.48,6.49-5.1,4.33-8.32,10.39-9.67,18.18h56.28c-.67-7.79-3.42-13.85-8.23-18.18-4.81-4.33-11.11-6.49-18.91-6.49Z"/>
  <path class="cls-9" d="M253.42,123.68h.58l30.31-73.31h13.57l-36.8,86.59h-15.59l-36.8-86.59h14l30.74,73.31Z"/>
  <path class="cls-8" d="M464.73,50.37h23.67v10.39h-23.52v65.52h25.83v10.68h-26.55c-4.04,0-7.22-1.01-9.52-3.03-2.21-2.12-3.32-5.24-3.32-9.38v-63.79h-18.1c-9.04,0-16.12,3.27-21.22,8.66-5.1,5.39-7.65,12.7-7.65,21.93v45.6h-13.57v-72.16h-7.22v-14.43h15.01v15.87h6.06c2.5-5.1,6.26-9.09,11.26-11.98,5.1-2.98,11.11-3.9,18.04-3.9h17.52v-25.98h13.28v25.98Z"/>
  <path class="cls-5" d="M608.82,83.85l26.27-33.48h14.72l-32.76,42.14,34.49,44.45h-15.59l-27.57-35.5-27.56,35.5h-15.01l34.49-44.45-32.76-42.14h15.01l26.27,33.48Z"/>
  <path class="cls-6" d="M103.36,120.84h0s9.18,5.3,9.18,5.3l-7.46,60.99-9.34-5.39h0s-.22-.13-.22-.13l-.57-.33.08-.66.03-.26h0s5.87-46.14,5.87-46.14l-37,28.43-.53.41-.58-.33-.22-.13h0s-9.11-5.26-9.11-5.26l49.09-36.96.79.46Z"/>
  <path class="cls-4" d="M80.93,119l.17.64.06.24,2.51,9.35.07.25.17.64-47.21,36.92-1.19.93-3.03-11.31,37.5-29.04-46.01-6.02-.92-.12-.24-.9-2.72-10.16,60.84,8.58Z"/>
  <path class="cls-3" d="M166.53,149.83l.36.46.93,1.19-11.31,3.03-29.04-37.51-6.06,46.27-.09.66-.65.17-.25.07h0s-10.16,2.72-10.16,2.72l8.49-60.19.09-.66.64-.17,9.84-2.64.64-.17,36.56,46.75Z"/>
  <path class="cls-7" d="M186.98,81.9l-5.52,9.57-.33.57-47.05-5.99,28.84,37.53-.34.58-.13.22h0s-5.26,9.11-5.26,9.11l-36.96-49.09.33-.57.13-.22,5.3-9.18,60.99,7.46Z"/>
  <path class="cls-10" d="M66.05,101.98l.55.73-5.3,9.18h0s-.46.79-.46.79L-.15,105.23l5.4-9.34.13-.22.33-.58.66.08,46.39,5.9-28.27-36.8-.57-.73,5.72-9.91,36.4,48.36Z"/>
  <path class="cls-11" d="M67.98,81.07l-.64.17-.25.07h0s-9.35,2.51-9.35,2.51h0s-.89.24-.89.24L19.01,35.65l11.31-3.03.41.53,28.63,36.98,6.14-46.93.65-.17,10.41-2.79-8.58,60.84Z"/>
  <path class="cls-12" d="M154.36,30.47l-37.51,29.04,46.01,6.03h0l.92.12,2.96,11.05-60.84-8.58-2.74-10.23h0s-.07-.25-.07-.25l-.17-.64,48.4-37.85,3.03,11.31Z"/>
  <path class="cls-13" d="M91.1,5.39l.22.13.58.33-5.99,47.05,37.53-28.84.8.47,9.11,5.26-48.56,36.56-.53.4-9.18-5.3h0s-.79-.46-.79-.46L81.76,0l9.34,5.39Z"/>
</svg>