<svg id="Layer_1" data-name="Layer 1" xmlns="http://www.w3.org/2000/svg" viewBox="0 0 1000 465.64734"><defs><style>.cls-1{fill:#fe81f8;}.cls-2{fill:#515e67;}.cls-3{fill:#f079ea;}.cls-4{fill:#d96ed3;}.cls-5{fill:#e473de;}.cls-6{fill:#fefefe;}</style></defs><title>vowpal-wabbits</title><path class="cls-1" d="M518.90759,303.87048c4.68322,2.46862,9.64114,4.42908,13.50965,8.29888a27.17281,27.17281,0,0,1,7.05986,11.93249c1.12323,3.90182.8404,4.2345-3.40472,3.703a1.28523,1.28523,0,0,0-1.17879-.93751,519.39351,519.39351,0,0,0-53.091-5.79968c-13.16982-.64242-26.36718-.90669-39.55048-1.4124-8.49762-.326-16.96383-.67055-24.97415-3.97684-.92131-1.86749-2.91224-2.56449-4.32744-3.90374-12.38462-11.71992-18.77128-26.77378-23.88731-42.54852-1.016-3.13261-1.89382-6.31-2.89-9.65a3.36518,3.36518,0,0,0-1.06356,2.36361,75.50941,75.50941,0,0,0,.95206,15.60975,73.92,73.92,0,0,0,11.509,28.91168c-5.99258-.14609-11.99518.49232-17.98066-.544a30.10578,30.10578,0,0,1-8.9746-2.87829c2.97577-13.19586-.11322-25.43585-5.87735-37.2538-4.4775-9.78085-10.75031-18.35166-17.79562-26.40174,2.41023-1.79783,5.34748-1.89085,8.10611-2.14613,6.40971-.59309,12.913-1.12591,19.16332.88756,2.42149.78,3.16847.01973,4.01612-1.97756a265.12433,265.12433,0,0,1,19.79023-38.79088c15.63131-24.623,35.43385-44.86742,62.07837-57.6416,12.68645-6.08223,25.97286-10.16414,40.09475-11.23637,5.86076-.445,11.70777-1.07059,17.561-1.61569-.33285,2.24558,1.00067,3.15247,2.90018,3.60421,4.44207,1.05653,8.8441,2.34943,13.33627,3.11035a69.66569,69.66569,0,0,0,18.07861.64781,33.16887,33.16887,0,0,0-4.12361-2.61374c-3.89577-1.6563-6.90652-5.02954-11.26275-5.76482-.02436-1.44709-1.35524-1.56759-2.2146-2.12092-12.80371-8.24449-25.04957-17.19844-35.60939-28.25829-14.94236-15.65-22.23039-34.27669-21.06019-55.94025A54.68386,54.68386,0,0,1,483.00054,19.351c.98028-2.10459,1.78741-2.44521,3.79922-.98577,9.72767,7.05666,19.3959,14.1872,28.79713,21.67572,1.00564.80109,1.86676,1.903,3.37831,1.718,3.583,4.702,8.32028,8.05472,13.16883,11.27755l24.3438,23.61911c5.498,6.26968,11.18523,12.387,16.40814,18.87806,2.34771,2.91779,5.23214,4.32582,8.52741,5.41092,1.2013.51824,2.25793,1.44228,3.68936,1.31478a136.71576,136.71576,0,0,0,17.58737,7.90441c16.99269,6.624,27.83641,19.13564,34.72763,35.48732a295.46489,295.46489,0,0,1,11.77242,35.0316,3.96593,3.96593,0,0,1,.29954,2.54132c-3.55157,9.68314-8.68632,18.19331-18.177,23.137-8.37755,4.36388-17.13256,3.23362-25.86457,1.15959-2.11717-.50286-4.2228-1.05444-6.33348-1.58321a7.52,7.52,0,0,0-1.342-.89174c-11.78605-4.62956-22.67666-10.5834-30.78168-20.6873-1.112-4.09243-3.91829-7.44746-4.70507-11.75543-1.23048-6.73795-2.64171-13.43094-2.83341-20.32814-1.79839,9.97647-1.7919,20.05663-2.30237,30.09825.21726,4.54842.29361,9.10932.69608,13.64129.32559,3.66625.74641,7.27851,5.284,8.70319,8.07408,2.535,16.04845,5.38948,24.04814,8.15782,1.47592.51076,3.36393.23177,4.23659,2.02593-2.24839,5.9006-5.11647,11.52931-7.454,17.403-7.66905,19.27038-9.657,39.3136-8.26822,59.75412a182.99132,182.99132,0,0,0,4.93612,32.22593,10.82843,10.82843,0,0,1,.13522,1.952,6.96893,6.96893,0,0,1-1.71687-.84069,53.20264,53.20264,0,0,1-15.34139-24.66434c-3.06943-10.12524-3.58612-20.52432-3.29779-31.00789a19.07288,19.07288,0,0,0,.68141-4.17374c-.06517-6.0118.14211-12.03155-.09928-18.03432a29.58706,29.58706,0,0,0-1.23717-8.6549c-.56062-7.29193-3.14222-13.98812-6.41673-20.38958a42.19041,42.19041,0,0,0-9.18064-12.59276c-1.6725-1.492-5.91434-1.70493-6.90668-.21885-1.40338,2.10165.36756,3.29383,1.544,4.72365,7.32553,8.90381,12.40517,18.84229,13.74911,30.45614a62.79669,62.79669,0,0,1-3.27411,31.52035c-3.25972,6.93921-6.59615,13.82829-12.46341,19.06269-2.73381-.0294-5.54354.343-8.18694-.15957a37.18571,37.18571,0,0,0-26.64925,4.71454c-7.60878,2.03485-15.10076,4.543-22.97092,5.64514C492.337,302.27176,505.75115,300.77059,518.90759,303.87048ZM563.05132,107.5549c3.71962-1.76818,4.17747-2.77971,2.20594-5.27026A406.635,406.635,0,0,0,537.995,71.00171c-5.48262-5.63588-11.38158-10.82027-17.27272-16.02091a381.935,381.935,0,0,0-31.11445-24.864c-3.58235-2.552-3.87112-2.40538-5.37674,1.89758-1.85694,2.02814-2.14013,4.68668-2.95036,7.15187a3.28408,3.28408,0,0,0,1.071,3.77574c9.91114,9.65447,19.74914,19.38465,29.712,28.98537,6.74725,6.502,13.70692,12.78322,20.48707,19.2518,7.2639,6.9301,14.41831,13.97493,21.6507,20.93827a24.85373,24.85373,0,0,0,2.86163,2.1607,1.55161,1.55161,0,0,0,2.49491-.52535C560.76113,111.7096,561.89117,109.62338,563.05132,107.5549Z"/><path class="cls-2" d="M741.164,419.12176c6.40058,3.40958,8.88695,8.65947,8.47839,15.55448-.41392,6.98484-3.29443,12.37332-9.64707,15.62322a32.07174,32.07174,0,0,1-14.592,3.229c-13.34349.09551-26.68825-.00024-40.03182.0925-3.03913.02113-4.034-1.331-4.02714-4.17691q.0701-28.87581.00248-57.75173c-.00569-2.62592.823-4.24252,3.70748-4.2,14.54142.2145,29.093-.50065,43.62515.43281a27.30759,27.30759,0,0,1,10.09186,2.60773A17.71487,17.71487,0,0,1,747.641,411.629,13.45377,13.45377,0,0,1,741.164,419.12176Zm-27.1873,18.176v-.01026c1.85426,0,3.70876-.01354,5.56285.003,3.01389.027,4.34553-1.67407,4.48748-4.46732a4.11854,4.11854,0,0,0-4.2745-4.70707c-3.92117-.14981-7.85293-.002-11.77827-.076-1.44771-.02733-1.78.57116-1.88392,1.92075-.56454,7.33977-.60277,7.3368,6.5774,7.3368Zm-.89792-24.99972c1.743,0,3.48673-.03346,5.22877.00746,2.93276.06885,4.16132-1.66617,4.24957-4.26364.09427-2.7761-1.50774-4.21323-4.24476-4.282-2.61286-.06565-5.229-.05383-7.84283-.01748-4.99615.06946-4.28693-.7386-4.338,4.281-.0436,4.27983-.00922,4.28023,4.33278,4.28112C711.33576,412.30466,712.2073,412.3045,713.07876,412.298Z"/><path class="cls-2" d="M821.80635,419.15351c6.58053,3.51642,9.02979,9.09371,8.39864,16.15377-.65648,7.34193-4.14161,12.76988-11.11778,15.67275a34.35451,34.35451,0,0,1-13.1035,2.55318c-13.338.07783-26.67695-.00433-40.01483.08777-3.00482.02072-4.02441-1.214-4.01391-4.1291q.1046-29.02723.001-58.055c-.00994-2.83745,1.17413-3.99423,3.898-3.952,14.3165.222,28.64207-.45809,42.95168.40459a27.93,27.93,0,0,1,10.718,2.74319c7.58785,3.724,11.487,13.6547,8.49009,21.50678A14.60921,14.60921,0,0,1,821.80635,419.15351Zm-27.31058,18.13724c1.86,0,3.72046-.02742,5.57985.00617,3.04811.055,4.343-1.73859,4.56483-4.46431a4.23378,4.23378,0,0,0-4.33767-4.71833c-3.93368-.1438-7.87673-.00618-11.8145-.072-1.40194-.02337-1.83382.50021-1.95959,1.89017-.6665,7.36862-.70738,7.36493,6.65419,7.36529C793.62054,437.29776,794.05811,437.29776,794.49577,437.29075Zm-.70747-24.98946c1.63832,0,3.27784.04052,4.91472-.009,2.86719-.08665,4.63537-1.78011,4.46575-4.43361-.1749-2.73686-1.77354-4.10918-4.51777-4.11836-2.51211-.00846-5.02453-.03286-7.53615.001-5.14709.06958-4.30553-.77351-4.6171,4.46227-.18885,3.1736.52831,4.76807,4.01937,4.13074A18.795,18.795,0,0,1,793.7883,412.30129Z"/><path class="cls-2" d="M204.26508,431.18964c-2.87958,6.538-5.58384,12.37964-8.01841,18.33162-1.21353,2.96675-3.08945,4.23046-6.26164,4.09944-3.713-.1533-7.43722-.05563-11.15634-.03118-3.154.02072-4.79582-1.49327-5.22339-4.63741-2.56206-18.84021-5.20476-37.66945-7.76364-56.51006-.61933-4.56-.20688-4.93913,4.315-4.94987,3.938-.00937,7.87631-.02384,11.81418.00449,4.8769.03511,6.12724,1.17033,6.64182,6.09927.74916,7.17584,1.44206,14.35762,2.17873,21.53479a8.65274,8.65274,0,0,0,1.10123,3.67365q2.11117-5.7457,4.22435-11.49075c1.61122-4.35181,2.30668-4.73668,8.41222-4.73071,5.46573.00541,6.26615.47617,7.80784,4.63381a79.79569,79.79569,0,0,0,4.932,11.43832q.844-7.76061,1.68813-15.52121c.40223-3.6947.84631-7.38542,1.19582-11.08508.273-2.89024,1.9068-4.42147,4.67821-4.48957,5.138-.12624,10.28141-.08817,15.42184-.03935,2.29494.0218,2.90188,1.31533,2.59573,3.50973-2.20483,15.80116-4.33086,31.61327-6.49053,47.42076-.50294,3.68119-1.0434,7.35728-1.55848,11.03682a4.311,4.311,0,0,1-4.6783,4.07857c-4.26546.0549-8.53223-.00048-12.79838.01354-2.56729.00842-3.9376-1.47945-4.88026-3.66531C209.85429,443.91171,207.21422,437.93176,204.26508,431.18964Z"/><path class="cls-2" d="M565.94488,418.6993q.84868-7.7353,1.69684-15.4706.62347-5.70261,1.23769-11.40622c.27109-2.55339,1.73238-4.12153,4.22052-4.20189,5.35225-.17277,10.71363-.156,16.06937-.082,2.10611.02906,2.67514,1.35974,2.39283,3.38325-1.99229,14.28135-3.91348,28.57261-5.87018,42.859-.71147,5.1947-1.4764,10.3821-2.17961,15.57792-.39037,2.88435-2.09121,4.19936-4.89484,4.21728-3.93668.02513-7.87625-.07928-11.80969.03727-2.93333.08693-4.64066-1.22511-5.75483-3.86943-2.53387-6.01394-5.21947-11.964-8.11064-18.54845-2.78375,6.36611-5.425,12.07389-7.771,17.90054-1.33413,3.31371-3.39146,4.76935-6.99354,4.53918-3.59417-.22957-7.21432-.05539-10.82308-.0531-3.00419.00192-4.63413-1.49773-5.04068-4.46608-2.59418-18.93989-5.23081-37.87393-7.7971-56.81758-.592-4.36973-.14849-4.79,4.14613-4.805,4.04618-.01415,8.09264-.03086,12.13854.00537,4.772.04272,6.01378,1.25677,6.52321,6.23072.85659,8.36352,1.71611,16.72673,3.20814,25.23674q2.07255-5.61928,4.14413-11.23882c1.71323-4.66238,2.4257-5.1367,7.779-5.14448,6.47155-.00938,6.90491.248,8.7308,5.1535q2.04543,5.495,4.09808,10.98741Z"/><path class="cls-2" d="M88.44908,420.16075c0-3.49382-.37488-7.03661.07426-10.47172,1.09692-8.38925,5.56795-14.71933,13.225-18.30769,14.14819-6.63031,28.54491-6.68353,42.73575-.19462,9.35214,4.27634,13.75595,12.09472,14.033,22.24734.13408,4.91387.13851,9.84-.03822,14.75192-.428,11.89333-7.47539,20.86572-19.05155,24.157a58.24116,58.24116,0,0,1-32.96919-.19009c-10.94226-3.23476-17.76921-12.367-18.18646-23.79773-.09957-2.728-.01479-5.46267-.01479-8.19424Zm25.36373.144-.0163.00012c0,2.83822-.049,5.67748.013,8.5143a6.598,6.598,0,0,0,4.70358,6.42078,13.51047,13.51047,0,0,0,9.60078.00593,6.84433,6.84433,0,0,0,4.81009-6.72357q.12474-8.02242-.00856-16.048a6.6703,6.6703,0,0,0-4.04982-6.24307,12.50466,12.50466,0,0,0-11.35948.12729,6.25746,6.25746,0,0,0-3.681,5.76C113.76978,414.84626,113.81281,417.576,113.81281,420.30479Z"/><path class="cls-2" d="M365.175,387.49671c4.154-.00212,8.30814.02269,12.46185-.01086a5.05235,5.05235,0,0,1,5.34158,3.86591q9.883,29.12535,19.8659,58.21679c1.06516,3.12607.451,3.97432-2.84551,4.00486-4.80943.04457-9.63016-.18436-14.42612.074-3.79541.20443-5.85812-1.29341-7.03489-4.842-1.68914-5.09374-1.82561-5.04853-7.13317-5.04849-5.02849,0-10.05907.083-15.08444-.04224-1.90953-.04758-3.09885.38467-3.48973,2.40225-.18408.95037-.74089,1.82324-.98328,2.76848-.90112,3.51406-3.06194,4.92165-6.72337,4.755-4.909-.22355-9.83624-.01751-14.75488-.07-3.02518-.03227-3.77685-1.01426-2.80022-3.87862q10.032-29.42184,20.1369-58.81881c.84241-2.46721,2.6004-3.36232,5.0075-3.37026C356.867,387.4889,361.021,387.4988,365.175,387.49671Zm.04645,18.3295c-2.19653,6.40755-4.11751,12.03469-6.05926,17.65462-.35654,1.032-.66005,1.9046,1.0054,1.88885,3.83256-.03635,7.66572-.01154,11.80917-.01154C369.68688,418.73745,367.57468,412.63037,365.2214,405.82621Z"/><path class="cls-2" d="M633.57654,387.49238c3.9356-.00068,7.87192.046,11.80656-.01579,2.99649-.04709,4.79649,1.12584,5.80822,4.12842,6.47785,19.22549,13.10278,38.4014,19.65741,57.60116,1.21654,3.56351.65865,4.35013-3.01645,4.37165-4.91928.02878-9.843-.11286-14.757.04966-3.22445.10664-5.03992-1.199-6.11818-4.21716-2.03237-5.68878-2.13128-5.65343-8.34982-5.65343-4.59152,0-9.1921.17117-13.771-.06877-2.47147-.12946-3.60784.78224-4.06009,3.03227a13.24137,13.24137,0,0,1-.64061,1.85334c-1.61948,4.462-2.39483,5.00657-7.16615,5.01042-4.81018.00385-9.62086.039-14.43048-.013-3.13172-.03387-3.78523-.89355-2.80123-3.78643q9.958-29.27631,19.95727-58.53847c.91507-2.69746,2.698-3.7841,5.4189-3.762C625.26776,387.518,629.42227,387.49307,633.57654,387.49238Zm6.49227,37.70865c-2.17432-6.288-4.26056-12.321-6.34679-18.354l-.73752.11214c-2.06563,6.0422-4.13126,12.08439-6.23625,18.24189Z"/><path class="cls-2" d="M874.67243,453.58475q-14.11111.00042-28.22229-.00529c-3.79461-.00689-4.30665-.54462-4.32541-4.42063-.018-3.71914.07038-7.44036-.02717-11.157-.07-2.66621,1.13526-3.79922,3.72824-3.778,4.48459.03671,8.97368-.10316,13.45314.053,2.21376.07723,2.759-.73488,2.72957-2.81514q-.15535-10.99143.0024-21.986c.02894-1.97545-.4718-2.67237-2.54465-2.6-4.47946.15626-8.96942-.01463-13.45273.07034-2.78488.05278-3.99067-1.1341-3.91733-3.93212.10027-3.826.11671-7.65947-.00473-11.48422-.08793-2.77253,1.05125-4.05058,3.83-4.0477q28.87869.03,57.75729.0067c2.39195-.001,3.6549.98336,3.60208,3.542-.08112,3.93632-.121,7.879.01386,11.81242.10092,2.94106-1.059,4.19651-4.03988,4.112-4.37206-.124-8.75277.05668-13.12458-.07121-1.96279-.05744-2.65334.47789-2.61983,2.54468.119,7.32714.14323,14.65934-.00794,21.98528-.0505,2.44561.91947,2.91938,3.0716,2.85473,4.26232-.12809,8.53209.01932,12.797-.05519,2.72572-.04761,4.02578.99663,3.9239,3.87725-.13915,3.93308-.09859,7.87617-.012,11.8123.05843,2.65277-1.07578,3.72888-3.732,3.70936C893.92521,453.54175,884.29866,453.58451,874.67243,453.58475Z"/><path class="cls-2" d="M256.05291,420.71307q.00042-14.11316.00493-28.22634c.00721-4.43413.5443-5.03983,4.84029-4.9818,12.904.17426,25.81936-.52,38.71148.40808a28.3188,28.3188,0,0,1,13.81577,4.69608c7.98643,5.30648,11.28178,13.81385,9.2608,23.77072-1.66008,8.179-7.763,13.71894-17.06656,15.5215-6.92936,1.34254-13.94181,1.13061-20.93454,1.03061-2.36943-.03391-3.3091.538-3.18013,3.08486.21,4.1467.06533,8.31191.054,12.46922-.01311,4.80622-.2973,5.0941-4.955,5.09811q-7.38481.00643-14.76963.00092c-5.6651-.00064-5.78041-.11827-5.78129-5.95847Q256.05095,434.16984,256.05291,420.71307Zm32.452-5.23049c1.6325,0,3.267.05274,4.897-.01094,3.41347-.1333,5.11691-1.81791,5.13563-4.98862.01976-3.35078-1.75791-5.28167-5.16031-5.40311-2.71747-.09707-5.45718.16028-8.15737-.07691-2.77485-.24379-3.77509.47625-3.67485,3.50032C281.7764,415.48286,281.6,415.48871,288.50486,415.48258Z"/><path class="cls-2" d="M43.097,425.713c2.80552-9.2804,5.56632-18.57466,8.428-27.8377,3.48938-11.29473,1.42208-10.368,13.88177-10.38443,3.61025-.00481,7.22105-.03932,10.83061.01066,3.66008.05066,4.32278.9705,3.08149,4.42223-6.2425,17.359-12.46274,34.72635-18.80993,52.04712-3.99414,10.89955-2.084,9.5486-13.73092,9.61-4.70415.02484-9.41-.06661-14.11224.03066-2.646.0547-4.38337-.96862-5.288-3.467q-10.64646-29.405-21.3365-58.79421c-.96618-2.646-.04192-3.81,2.53975-3.83516,6.12589-.05976,12.25277-.02617,18.37922-.01291,3.15006.00682,4.62726,1.89927,5.45852,4.70286,3.31925,11.19477,6.70443,22.37,10.06521,33.55238Z"/><path class="cls-2" d="M967.56631,430.24351c-.0004,6.45115-.08464,12.90387.03695,19.3527.05667,3.0055-1.19449,4.08982-4.11731,4.02409-5.46427-.123-10.937-.15654-16.399.01034-3.22983.09872-4.19868-1.35172-4.18169-4.33526.07142-12.57386-.06348-25.14953.098-37.72171.03848-3.00222-.77038-3.977-3.82065-3.828-5.12681.25049-10.27566.00685-15.41337.09-2.643.04273-3.8-1.07269-3.75589-3.71433q.10653-6.39468-.00024-12.79229c-.04313-2.5832,1.02055-3.84959,3.67573-3.84695q31.49031.03164,62.98062-.0012c2.7339-.00272,3.96822,1.15963,3.885,3.98229-.12544,4.26064-.08721,8.52861-.01234,12.79161.04432,2.5194-1.11794,3.5757-3.56224,3.56232-5.57616-.03058-11.15553.09871-16.72777-.05327-2.22065-.06048-2.764.70618-2.7274,2.799C967.63909,417.12126,967.56671,423.683,967.56631,430.24351Z"/><path class="cls-2" d="M418.532,420.3706q.00006-14.10636.003-28.21271c.00409-4.1289.52959-4.64831,4.76061-4.66306,5.46755-.019,10.93531-.03078,16.4027.00453,3.68719.0238,4.4173.75507,4.42239,4.42151.01791,12.90351.08605,25.80785-.05531,38.7098-.03022,2.76131.49413,3.76362,3.53142,3.68235,8.74186-.23382,17.49406-.09206,26.24218-.07848,4.71572.00734,5.123.4173,5.13037,4.98337.00581,3.6086-.03078,7.21757.0105,10.82569.02826,2.4705-1.10648,3.56067-3.58752,3.55642q-26.57235-.04539-53.14478.013c-2.91657.00946-3.76783-1.35324-3.74627-4.04574C418.57915,439.83556,418.5319,430.10288,418.532,420.3706Z"/><path class="cls-3" d="M532.144,53.0365c-4.84855-3.22283-9.58579-6.57558-13.16883-11.27755.31826-13.34726,6.09061-24.526,13.8643-34.91376,1.29589-1.73169,2.16631-.575,3.08206.39863a191.44665,191.44665,0,0,1,18.5325,23.22675c3.91917,5.734,8.14437,11.31942,10.6283,17.91846-.87972.6252-.72986,1.47167-.53184,2.35012a29.753,29.753,0,0,0,2.59787,7.99351c.70554,1.28585,1.15847,3.10707-1.37785,2.48911-6.19064-1.50828-12.30814-3.314-18.48331-4.88926C542.28133,55.0555,537.4081,53.13652,532.144,53.0365Z"/><path class="cls-4" d="M560.41806,269.72338c-.28833,10.48357.22836,20.88265,3.29779,31.00789a53.20264,53.20264,0,0,0,15.34139,24.66434,6.96893,6.96893,0,0,0,1.71687.84069c-1.61034,2.06134-3.78679,1.22142-5.72077.95189-14.46447-2.01569-24.62025-10.1957-31.91032-22.45835a116.7463,116.7463,0,0,1-6.32327-12.16248q-.00252-.57185-.00481-1.145c5.86686-5.23474,9.20329-12.12382,12.46281-19.06315C553.01144,271.5669,556.48919,269.69172,560.41806,269.72338Z"/><path class="cls-5" d="M417.27793,315.67845c8.01032,3.30629,16.47653,3.65084,24.97415,3.97684,13.1833.50571,26.38066.77,39.55048,1.4124a519.39351,519.39351,0,0,1,53.091,5.79968,1.28524,1.28524,0,0,1,1.17879.93747c-1.30243.07322-2.60433.21369-3.90635.21442q-52.24161.02777-104.48323.03146c-9.501.0034-17.64664-2.59611-22.50164-11.59419C409.13115,314.8976,413.253,316.04079,417.27793,315.67845Z"/><path class="cls-5" d="M532.144,53.0365c5.26407.1,10.1373,2.019,15.1432,3.296,6.17517,1.57529,12.29267,3.381,18.48331,4.88926,2.53632.618,2.08339-1.20326,1.37785-2.48911a29.753,29.753,0,0,1-2.59787-7.99351c-.198-.87845-.34788-1.72492.53184-2.35012a5.09219,5.09219,0,0,1,2.01181,2.48563c8.87156,16.12385,15.19305,33.14148,18.02,51.38462-1.43287.12759-2.4895-.79645-3.69072-1.31446a100.55637,100.55637,0,0,0-4.12706-18.01059,3.98212,3.98212,0,0,0-2.91244-2.8303c-5.44118-1.46194-10.90188-2.85163-16.336-4.33872-.97574-.267-1.45777-.14382-1.56008.8904Z"/><path class="cls-3" d="M567.001,184.35836c8.105,10.1039,18.99563,16.05774,30.78168,20.6873a7.521,7.521,0,0,1,1.342.89172c-3.33956,2.32313-4.96136,6.12249-7.70031,8.96259-.872-1.79286-2.76-1.51387-4.236-2.02463-7.99969-2.76834-15.97406-5.62278-24.04814-8.15782-4.53762-1.42468-4.95844-5.03694-5.284-8.70319-.40247-4.532-.47882-9.09287-.69636-13.64113C560.46094,182.93137,563.5115,184.73295,567.001,184.35836Z"/><path class="cls-5" d="M364.73806,265.78514c5.76413,11.81795,8.85312,24.05794,5.87735,37.2538-10.84244-5.54-16.25064-15.15006-19.53176-26.28191-.73432-2.49112-1.59275-5.00927-1.50875-7.684a16.07161,16.07161,0,0,0,6.0642-.98863C358.624,267.1591,361.44543,265.50778,364.73806,265.78514Z"/><path class="cls-3" d="M417.27793,315.67845c-4.025.36234-8.14678-.78085-12.09677.77808-3.09135-2.91008-4.927-6.77519-7.61049-9.99511a73.92162,73.92162,0,0,1-11.509-28.91184,75.50941,75.50941,0,0,1-.95206-15.60975,3.36518,3.36518,0,0,1,1.06356-2.36361c.99614,3.33992,1.874,6.51736,2.89,9.65,5.116,15.77474,11.50269,30.8286,23.88731,42.54852C414.36569,313.114,416.35662,313.811,417.27793,315.67845Z"/><path class="cls-3" d="M364.73806,265.78514c-3.29263-.27736-6.1141,1.374-9.099,2.29923a16.07161,16.07161,0,0,1-6.0642.98863c-1.70108-4.94838-1.77951-10.16751-2.4501-15.27791-.49132-3.74453-.54446-7.54943-.71748-11.33089-.04741-1.03563-.38924-2.18635.53564-3.07988C353.98775,247.43348,360.26056,256.00429,364.73806,265.78514Z"/><path class="cls-5" d="M518.90759,303.87048c-13.15644-3.09989-26.57062-1.59872-39.90016-2.24831,7.87016-1.10211,15.36214-3.61029,22.97092-5.645.62534.8303,1.5475.55965,2.38317.6754,6.87558.95262,13.79.597,20.69191.63784,1.33168.00782,2.643-.0416,3.28337,1.46679C525.60326,301.21682,522.11136,302.278,518.90759,303.87048Z"/><path class="cls-3" d="M536.68108,125.84654c4.35623.73528,7.367,4.10852,11.26275,5.76482a33.16887,33.16887,0,0,1,4.12361,2.61374,69.66569,69.66569,0,0,1-18.07861-.64781c-4.49217-.76092-8.8942-2.05382-13.33627-3.11035-1.89951-.45174-3.233-1.35863-2.90018-3.60419C524.05624,126.419,530.34468,125.68645,536.68108,125.84654Z"/><path class="cls-3" d="M528.3368,298.75718c-.64037-1.50839-1.95169-1.459-3.28337-1.46679-6.902-.04088-13.81633.31478-20.69191-.63784-.83567-.11575-1.75783.1549-2.38317-.6754a37.18516,37.18516,0,0,1,26.64925-4.71466c2.6434.50256,5.45313.13017,8.18694.15957q.003.57331.00521,1.1453C533.54095,294.01191,531.69435,297.41981,528.3368,298.75718Z"/><path class="cls-3" d="M563.05132,107.5549c-1.16015,2.06848-2.29019,4.1547-3.49334,6.19787a1.55161,1.55161,0,0,1-2.49491.52535,24.85373,24.85373,0,0,1-2.86163-2.1607c-7.23239-6.96334-14.3868-14.00817-21.6507-20.93827-6.78015-6.46858-13.73982-12.74975-20.48707-19.2518-9.96281-9.60072-19.80081-19.3309-29.71195-28.98537a3.28408,3.28408,0,0,1-1.071-3.77574c.81023-2.46519,1.09342-5.12373,2.95056-7.15181,5.69765,4.60381,10.48571,10.16332,15.89976,15.08621,11.46518,10.42517,22.43611,21.3934,33.6296,32.11822,2.74484,2.62991,5.61865,5.12611,8.342,7.77743C549.11279,93.82115,556.07181,100.69852,563.05132,107.5549Z"/><path class="cls-5" d="M563.05132,107.5549c-6.97951-6.85638-13.93853-13.73375-20.94873-20.55861-2.72332-2.65132-5.59713-5.14752-8.342-7.77743C522.56713,68.494,511.5962,57.52581,500.131,47.10064c-5.414-4.92289-10.20211-10.4824-15.89976-15.08621,1.50542-4.303,1.79419-4.44959,5.37654-1.89764a381.935,381.935,0,0,1,31.11445,24.864c5.89114,5.20064,11.7901,10.385,17.27272,16.02091a406.635,406.635,0,0,1,27.26229,31.28293C567.22879,104.77519,566.77094,105.78672,563.05132,107.5549Z"/><path class="cls-3" d="M552.55206,240.839c-1.34394-11.61385-6.42358-21.55233-13.74911-30.45614-1.17642-1.42982-2.94736-2.622-1.544-4.72365.99234-1.48608,5.23418-1.27316,6.90668.21885a42.19041,42.19041,0,0,1,9.18064,12.59276c3.27451,6.40146,5.85611,13.09765,6.41673,20.38958C557.05774,238.42074,554.89684,239.9649,552.55206,240.839Z"/><path class="cls-5" d="M552.55206,240.839c2.34478-.87412,4.50568-2.41828,7.211-1.9786a29.58706,29.58706,0,0,1,1.23717,8.6549c.24139,6.00277.03411,12.02252.09928,18.03432a19.07288,19.07288,0,0,1-.68141,4.17374c-3.92887-.03166-7.40662,1.84352-11.14031,2.63587A62.79394,62.79394,0,0,0,552.55206,240.839Z"/><path class="cls-4" d="M556.48783,76.65562c.10231-1.03423.58434-1.15744,1.56008-.89041,5.43417,1.48709,10.89487,2.87678,16.33605,4.33872a3.98212,3.98212,0,0,1,2.91244,2.8303,100.55637,100.55637,0,0,1,4.12706,18.01059c-3.29535-1.08533-6.17978-2.49336-8.52749-5.41115C567.67306,89.04264,561.9858,82.92529,556.48783,76.65562Z"/><path class="cls-5" d="M567.001,184.35836c-3.48949.37459-6.54-1.427-9.84113-1.98516.51075-10.04178.50426-20.12194,2.30265-30.09841.1917,6.8972,1.60293,13.59019,2.83341,20.32814C563.0827,176.9109,565.889,180.26593,567.001,184.35836Z"/><path class="cls-6" d="M713.97668,437.29772l-1.309,0c-7.18017,0-7.14194.003-6.5774-7.3368.10388-1.34959.43621-1.94808,1.88392-1.92075,3.92534.074,7.8571-.07382,11.77827.076a4.11854,4.11854,0,0,1,4.2745,4.70707c-.142,2.79325-1.47359,4.49433-4.48748,4.46732-1.85409-.01659-3.70859-.003-5.56285-.003Z"/><path class="cls-6" d="M713.07876,412.30125q-1.30719.00488-2.61446.00325c-4.342-.00089-4.37638-.00129-4.33278-4.28112.05106-5.0196-.65816-4.21154,4.338-4.281,2.61382-.03635,5.23-.04817,7.84283.01748,2.737.06873,4.339,1.50586,4.24476,4.282-.08825,2.59747-1.31681,4.33249-4.24957,4.26364C716.56549,412.26454,714.82177,412.298,713.07876,412.30125Z"/><path class="cls-6" d="M794.49577,437.29423c-.43766.00353-.87523.00353-1.31289.00353-7.36157-.00036-7.32069.00333-6.65419-7.36529.12577-1.39.55765-1.91354,1.95959-1.89017,3.93777.0658,7.88082-.07182,11.8145.072a4.23378,4.23378,0,0,1,4.33767,4.71833c-.2218,2.72572-1.51672,4.5193-4.56483,4.46431C798.21623,437.26333,796.35572,437.29075,794.49577,437.29423Z"/><path class="cls-6" d="M793.7883,412.30289a18.64014,18.64014,0,0,0-3.27118.0315c-3.49106.63733-4.20822-.95714-4.01937-4.13074.31157-5.23578-.53-4.39269,4.6171-4.46227,2.51162-.0339,5.024-.0095,7.53615-.001,2.74423.00918,4.34287,1.3815,4.51777,4.11836.16962,2.6535-1.59856,4.347-4.46575,4.43361C797.06614,412.34181,795.42662,412.30129,793.7883,412.30289Z"/><path class="cls-6" d="M113.81281,420.30479c0-2.7288-.043-5.45853.0123-8.18622a6.25746,6.25746,0,0,1,3.681-5.76,12.50466,12.50466,0,0,1,11.35948-.12729,6.6703,6.6703,0,0,1,4.04982,6.24307q.12526,8.02254.00856,16.048a6.84433,6.84433,0,0,1-4.81009,6.72357,13.51047,13.51047,0,0,1-9.60078-.00593,6.598,6.598,0,0,1-4.70358-6.42078c-.062-2.83682-.013-5.67608-.013-8.5143Z"/><path class="cls-6" d="M365.2214,405.82621c2.35328,6.80416,4.46548,12.91124,6.75531,19.53193-4.14345,0-7.97661-.02481-11.80917.01154-1.66545.01575-1.36194-.85683-1.0054-1.88885C361.10389,417.8609,363.02487,412.23376,365.2214,405.82621Z"/><path class="cls-6" d="M640.06881,425.201H626.74825c2.105-6.1575,4.17062-12.19969,6.23625-18.24189l.73752-.11214C635.80825,412.88,637.89449,418.913,640.06881,425.201Z"/><path class="cls-6" d="M288.50486,415.48567c-6.90488.003-6.72846-.00281-6.95987-6.98235-.10024-3.02407.9-3.74411,3.67485-3.50032,2.70019.23719,5.4399-.02016,8.15737.07691,3.4024.12144,5.18007,2.05233,5.16031,5.40311-.01872,3.17071-1.72216,4.85532-5.13563,4.98862C291.77187,415.53532,290.13736,415.48258,288.50486,415.48567Z"/></svg>