<svg xmlns="http://www.w3.org/2000/svg" role="img" viewBox="-5.36 -2.86 512.72 189.22"><path d="M158.39547 176.0161c-6.45237-1.99636-11.22344-9.77683-9.99162-16.29393.74991-3.96751 3.90505-9.24414 6.29264-10.52376 1.6413-.87964 1.77263-.52991 1.46022 3.88835-.2917 4.1254.0396 5.23778 2.20455 7.40276 6.3938 6.3938 19.38954.78055 30.53532-13.18915 4.41284-5.53087 14.87005-22.88534 16.76412-27.82121.6426-1.67458.44279-1.65169-2.2367.25627-4.02887 2.86882-10.30789 4.42674-13.94105 3.45901C185.1668 122.04478 182 116.85425 182 110.92955v-4.81203l-6.75 5.12054c-17.72932 13.44944-36.26945 15.83105-41.07829 5.2768-3.77187-8.27835 1.50935-22.40129 11.88957-31.79485 16.53462-14.96297 39.60143-18.07836 39.2392-5.29962-.29994 10.58146-14.01066 22.21683-30.29477 25.70916-4.48601.96207-4.88568 1.26356-3.96231 2.9889 1.77888 3.32386 9.36047 2.58181 18.07224-1.76883 5.89424-2.94357 10.03573-6.27209 20.52331-16.49456 14.5625-14.19439 20.35106-17.79103 28.66071-17.80795 2.63981-.005 6.20719.7181 7.92751 1.60771 2.89277 1.49591 3.21907 1.49274 4.34145-.0422.99058-1.3547 2.68851-1.60598 9.24032-1.36747l8.02673.2922-9.48896 17.5c-5.21893 9.625-13.12841 24.25-17.57663 32.5-11.6615 21.62831-17.96676 30.93609-27.15266 40.08262-9.78507 9.74312-16.68976 13.48132-25.86205 14.00175-3.44045.1952-7.65241-.0773-9.3599-.60562zm51.32566-69.58548c3.98175-3.02978 7.0238-7.06235 11.399-15.11063 3.98379-7.32828 3.42867-9.5912-2.47599-10.09328-3.25714-.27696-4.22722.26524-8.94593 5C204.04417 91.89998 199 100.76741 199 105.0337c0 5.56449 4.47741 6.14788 10.72113 1.39693zm-52.54702-11.93693C162.61156 92.64096 169 87.07356 169 84.18766c0-6.26267-10.17899-3.0912-15.12867 4.71363-2.85905 4.50826-3.61375 7.13606-2.04947 7.13606.45202 0 2.86054-.69465 5.35225-1.54366zM32.357 124.09875c-6.19821-2.65453-7.00938-11.33436-2.357-25.2208 1.65-4.92492 3-9.34252 3-9.81689 0-.47438-1.68328-.39772-3.74062.17034-4.93678 1.36311-15.53995.21777-21.21213-2.2913-3.52314-1.55846-4.18809-2.20232-3.03039-2.93434.81573-.51578 3.0761-.94468 5.02304-.9531 4.9113-.0213 14.07559-2.5334 19.772-5.42 7.96099-4.03413 14.51394-10.85013 22.69485-23.60583l7.68948-11.98948h8.90189c4.89603 0 8.90188.26506 8.90188.58903 0 .32397-3.12237 6.06147-6.9386 12.75-17.17123 30.09523-25.2772 50.48972-20.757 52.22428 2.53998.97469 8.30474-2.40637 15.23544-8.93568 5.91877-5.57597 7.71235-8.37835 19.92232-31.12763l13.41797-25 9.18194-.28914c7.17522-.22595 9.07187-.007 8.67827 1-.27702.70902-6.85589 13.21414-14.61972 27.78914-11.46082 21.51532-14.11649 27.2618-14.11834 30.55-.0013 2.2275.53772 4.59 1.19772 5.25 6.00648 6.00648 26.52076-12.43395 37.04498-33.3 3.82652-7.5867 7.56865-20.41133 8.83329-30.27243 2.15999-16.84276-3.43068-28.70047-13.90366-29.48938-3.11292-.23448-2.70946-1.0693 1.71984-3.55872 7.86209-4.41874 16.80721-3.82572 23.18012 1.53672 10.79697 9.08505 11.87528 31.75317 2.53571 53.30497-13.22145 30.5095-46.22599 59.00091-68.77421 59.36981-5.80456.095-7.00612-.21177-9.3174-2.3786-1.4594-1.36819-3.15125-4.34882-3.75967-6.62361l-1.1062-4.13599-4.70908 3.38313c-10.0155 7.19543-23.45058 11.62518-28.58672 9.4255zm300.8982-1.263c-4.74356-1.24683-6.43897-4.51559-6.37923-12.29915l.0505-6.58537-7.63096 6.53718c-11.69863 10.02182-21.09627 13.90383-24.30349 10.03937-2.21969-2.67456-.40291-9.00616 6.48044-22.58482 7.65596-15.10276 7.56389-16.82723-.64197-12.02504-7.96867 4.66338-7.84443 4.50848-16.33602 20.36943l-7.8968 14.75h-8.29886c-4.74692 0-8.29881-.41899-8.29881-.97895 0-.53843 3.825-8.12049 8.5-16.84903 7.6551-14.29259 9.92184-20.1898 7.75-20.16264-1.07728.0135-10.36754 5.58317-12.84423 7.70037-1.15183.98463-5.57957 8.20275-9.83944 16.04025l-7.74521 14.25h-7.91056c-4.35081 0-7.91056-.25282-7.91056-.56181 0-.309 2.12496-4.4715 4.72213-9.25 2.59717-4.77851 8.36916-15.43819 12.82665-23.68819l8.10453-15 8.17334-.29045c4.49534-.15974 8.17167.0653 8.16961.5-.002.43475-.90205 2.26382-2 4.06462-1.09794 1.8008-1.99626 3.4693-1.99626 3.7078 0 .2385 3.56576-1.42003 7.92391-3.68559 10.01291-5.20518 18.17965-6.33992 20.07951-2.78999.65874 1.23087.93871 3.53297.62215 5.11577-.31657 1.58281-.36858 2.87784-.11559 2.87784.25298 0 2.60423-1.31549 5.225-2.9233 10.4397-6.40467 21.47695-8.93612 24.27296-5.56714 2.08255 2.50932.48982 9.0648-4.89157 20.13318-2.7696 5.6965-4.80224 10.35726-4.51697 10.35726.9207 0 15.66776-11.82685 23.9006-19.16782 12.18458-10.8646 23.43307-15.09795 30.98007-11.6593 1.96907.89716 2.84989.89716 3.74706 0 .69579-.6958 4.33176-1.17288 8.93887-1.17288h7.76601l-7.51806 14.43811c-7.14252 13.71689-10.02404 20.56189-8.6559 20.56189.34013 0 4.70565-3.1127 9.70115-6.91712 9.47567-7.21638 13.00859-11.38073 18.5224-21.83288l3.29705-6.25h7.86068c8.69273 0 9.04633.3455 5.77342 5.64117l-2.08725 3.37725 9.26467-4.5092c10.90958-5.30982 16.88243-6.00764 19.33721-2.25922 2.14899 3.28147.61962 8.7354-6.18275 22.04837-3.14796 6.16089-5.89287 11.58283-6.0998 12.04874-.93178 2.09793 4.36439-1.94412 9.60195-7.32823 7.39372-7.60059 14.20021-10.5114 19.67066-8.41219 1.30992.50266 1.14769.94753-.94612 2.59452C460.54497 97.54044 457 104.00915 457 107.04717c0 5.69216 7.09898 11.96199 11.6941 10.32825 5.70327-2.02773 6.59561-6.23794 3.3059-15.59775-2.63969-7.51039-2.64039-16.56473-.002-21.73702 3.83514-7.51749 14.75517-11.25062 21.98048-7.51427 7.22044 3.73367 4.02057 12.51097-4.56072 12.51097-2.15006 0-2.34748-.26282-1.45294-1.93426 2.36798-4.42462.0829-8.85044-3.91451-7.5817-3.99433 1.26774-3.65218 5.08646 1.31476 14.67411C489.24582 97.68648 490 100.04478 490 104.6887c0 9.24982-3.97037 14.43405-13.71759 17.91146-5.67527 2.02471-17.93423 1.7785-22.86101-.45913-4.38838-1.9931-8.10786-6.00624-9.05154-9.76615-.32267-1.28564-.77613-2.33752-1.00769-2.33752-.23155 0-2.77027 1.86583-5.64159 4.14629-9.29863 7.38517-17.62507 9.80637-21.25175 6.17968-2.60462-2.60462-1.27503-7.3552 6.06956-21.6864 3.62496-7.07324 6.35714-13.46943 6.07151-14.21377-.71393-1.86049-4.78553-.33006-10.76102 4.04484-3.89722 2.85331-5.92336 5.76547-12.5 17.96611L397.5 121.03493l-7.75.001c-5.08811.00079-7.75-.38632-7.75-1.12706 0-.62055 1.38303-3.54555 3.07339-6.5 1.69037-2.95445 2.76532-5.37173 2.38878-5.37173-.37653 0-2.84596 1.80959-5.48762 4.02131-6.93887 5.80976-15.92857 10.9789-19.09314 10.9789-3.005 0-6.88141-3.9907-6.88141-7.08431 0-1.50853-.96984-1.15319-5.75 2.10674-6.48705 4.42397-12.21253 6.03298-16.9948 4.77597zm19.38062-15.64955c5.29489-3.8356 8.88969-8.26592 12.48319-15.3846 3.91528-7.75614 3.60263-10.16318-1.37359-10.57489-3.38134-.27976-4.27607.21728-9.00058 5-8.17248 8.27317-13.59523 21.49381-9.49484 23.14836 2.39259.96543 3.47376.64502 7.38582-2.18887z"/></svg>