<?xml version="1.0" encoding="utf-8"?>
<!-- Generator: Adobe Illustrator 24.3.0, SVG Export Plug-In . SVG Version: 6.00 Build 0)  -->
<svg version="1.1" id="Layer_1" xmlns="http://www.w3.org/2000/svg" xmlns:xlink="http://www.w3.org/1999/xlink" x="0px" y="0px"
	 viewBox="0 0 900 346.63" style="enable-background:new 0 0 900 346.63;" xml:space="preserve">
<style type="text/css">
	.st0{fill:#4D4D4D;}
	.st1{fill:#1AD3AF;}
</style>
<g>
	<g>
		<path class="st0" d="M79.75,251.07L28.03,55.23H6.7V16.54h94.37v38.69H76.99l51.33,195.84H79.75z M118.05,162.62l29.61-107
			l21.72,67.91L137,236.06L118.05,162.62z M221.5,251.07L148.45,16.54h49.75l72.26,234.53H221.5z M254.26,159.07L282.3,55.23h-24.09
			V16.54h91.2v38.69H328.1l-49.35,178.86L254.26,159.07z"/>
		<path class="st0" d="M829.81,251.07H723.6v-38.69h22.51V55.23H723.6V16.54h71.07v195.83h35.14V251.07z M807.71,55.23V16.54h89.23
			v69.49h-42.64v-30.8H807.71z M807.71,152.75v-38.69h48.96v38.69H807.71z"/>
	</g>
	<g>
		<g>
			<g>
				<path class="st1" d="M561.49,251.07v-38.69h9.87c50.14,0,83.31-26.06,83.31-81.73c0-48.17-30.01-75.41-84.49-75.41h-8.69V16.54
					h7.5c88.84,0,135.43,41.46,135.43,114.11c0,77.78-50.15,120.42-135.04,120.42H561.49z"/>
				<g>
					<path class="st1" d="M371.57,16.54h71.07v234.53h-71.07v-38.69h22.51V55.23h-22.51V16.54z M506.21,55.23h-50.54V16.54h92.78
						v69.49h-42.24V55.23z M455.67,251.07v-38.69h52.9v-30.8h40.04v69.49H455.67z"/>
					<rect x="455.67" y="114.06" class="st1" width="92.78" height="38.69"/>
				</g>
			</g>
		</g>
	</g>
</g>
<g>
	<path class="st1" d="M37.29,293.87l8.79,35.7l8.72-35.7h7.39l-11.23,43.9h-9.61l-8.2-33.93l-8.28,33.93h-9.54l-11.16-43.9h7.61
		l8.72,35.7l8.72-35.7H37.29z"/>
	<path class="st1" d="M81.12,304.29c9.83,0,16.93,6.95,16.93,17.15c0,10.13-7.1,17.07-16.93,17.07c-9.76,0-16.85-6.95-16.85-17.07
		C64.27,311.24,71.36,304.29,81.12,304.29z M81.12,310.58c-5.47,0-9.46,4.21-9.46,10.87c0,6.58,3.99,10.79,9.46,10.79
		c5.62,0,9.53-4.21,9.53-10.79C90.66,314.79,86.74,310.58,81.12,310.58z"/>
	<path class="st1" d="M112.98,337.78h-7.32v-30.01c3.55-2,8.13-3.25,12.79-3.25c2.29,0,4.07,0.22,6.28,0.81v7.1
		c-2.07-0.81-4.36-1.03-6.28-1.03c-2.22,0-3.99,0.44-5.47,1.03V337.78z"/>
	<path class="st1" d="M138.33,337.78h-7.32v-50.26h7.32V337.78z"/>
	<path class="st1" d="M177.21,337.11c-3.77,0.96-8.28,1.4-12.34,1.4c-11.38,0-18.92-6.06-18.92-17.07
		c0-10.57,7.47-17.15,17.52-17.15c2.37,0,4.95,0.44,6.5,1.26v-18.03h7.24V337.11z M169.97,311.98c-1.48-0.81-3.55-1.26-6.06-1.26
		c-6.13,0-10.57,3.84-10.57,10.57c0,7.02,4.58,10.94,11.68,10.94c1.48,0,3.33-0.07,4.95-0.29V311.98z"/>
	<path class="st1" d="M229.03,331.12v6.65h-27.27v-43.9h26.83v6.65h-19.37v11.83h17.96v6.5h-17.96v12.27H229.03z"/>
	<path class="st1" d="M233.1,305.03h4.95v-7.98h7.24v7.98h9.31v6.14h-9.31v15.6c0,3.92,1.7,5.25,4.51,5.25
		c2.14,0,3.99-0.67,5.99-1.85v6.58c-2.14,1.11-4.8,1.77-7.91,1.77c-5.32,0-9.83-2.66-9.83-10.13v-17.22h-4.95V305.03z"/>
	<path class="st1" d="M262.88,287.52h7.32v18.33c1.85-0.74,5.1-1.55,8.57-1.55c7.39,0,12.79,3.25,12.79,12.42v21.07h-7.24v-20.4
		c0-4.73-2.96-6.43-7.02-6.43c-2.59,0-5.17,0.44-7.1,1.11v25.72h-7.32V287.52z"/>
	<path class="st1" d="M300.29,294.98c0-2.51,2.14-4.51,4.58-4.51s4.58,2,4.58,4.51c0,2.59-2.14,4.66-4.58,4.66
		S300.29,297.57,300.29,294.98z M308.57,337.78h-7.32v-32.74h7.32V337.78z"/>
	<path class="st1" d="M342.72,313.83c-2.74-2.14-5.62-3.03-8.65-3.03c-5.91,0-10.5,3.77-10.5,10.64c0,6.5,4.43,10.64,10.79,10.64
		c3.25,0,6.06-1.04,8.72-2.96v6.95c-3.03,1.7-6.21,2.44-9.68,2.44c-9.98,0-17.22-6.58-17.22-17.07c0-10.57,7.61-17.15,17.22-17.15
		c3.62,0,6.43,0.81,9.31,2.44V313.83z"/>
	<path class="st1" d="M367.55,315.82c0-3.55-2.66-5.17-6.28-5.17c-3.77,0-6.73,1.11-9.46,2.66v-6.36c2.88-1.63,6.58-2.66,10.64-2.66
		c7.17,0,12.27,2.96,12.27,11.16v21.66c-3.1,0.81-7.54,1.33-11.23,1.33c-8.5,0-14.71-2.59-14.71-9.98c0-6.65,5.69-9.9,15.15-9.9
		h3.62V315.82z M367.55,323.44h-3.1c-5.1,0-8.43,1.48-8.43,4.8c0,3.4,3.1,4.73,7.54,4.73c1.11,0,2.66-0.15,3.99-0.37V323.44z"/>
	<path class="st1" d="M391.58,337.78h-7.32v-50.26h7.32V337.78z"/>
	<path class="st1" d="M416.12,293.95c3.25-0.44,7.69-0.81,11.68-0.81c17.52,0,25.8,9.09,25.8,21.95c0,14.04-8.65,23.36-25.65,23.36
		c-4.44,0-8.57-0.3-11.83-0.81V293.95z M423.66,331.57c1.63,0.22,3.33,0.3,4.95,0.3c10.13,0,17.15-5.32,17.15-16.78
		c0-9.46-6.06-15-17.67-15c-1.4,0-2.96,0.07-4.43,0.22V331.57z"/>
	<path class="st1" d="M477.62,315.82c0-3.55-2.66-5.17-6.28-5.17c-3.77,0-6.73,1.11-9.46,2.66v-6.36c2.88-1.63,6.58-2.66,10.64-2.66
		c7.17,0,12.27,2.96,12.27,11.16v21.66c-3.1,0.81-7.54,1.33-11.24,1.33c-8.5,0-14.71-2.59-14.71-9.98c0-6.65,5.69-9.9,15.15-9.9
		h3.62V315.82z M477.62,323.44h-3.1c-5.1,0-8.43,1.48-8.43,4.8c0,3.4,3.1,4.73,7.54,4.73c1.11,0,2.66-0.15,3.99-0.37V323.44z"/>
	<path class="st1" d="M489.89,305.03h4.95v-7.98h7.24v7.98h9.31v6.14h-9.31v15.6c0,3.92,1.7,5.25,4.51,5.25
		c2.14,0,3.99-0.67,5.99-1.85v6.58c-2.14,1.11-4.8,1.77-7.91,1.77c-5.32,0-9.83-2.66-9.83-10.13v-17.22h-4.95V305.03z"/>
	<path class="st1" d="M536.16,315.82c0-3.55-2.66-5.17-6.28-5.17c-3.77,0-6.73,1.11-9.46,2.66v-6.36c2.88-1.63,6.58-2.66,10.64-2.66
		c7.17,0,12.27,2.96,12.27,11.16v21.66c-3.1,0.81-7.54,1.33-11.24,1.33c-8.5,0-14.71-2.59-14.71-9.98c0-6.65,5.69-9.9,15.15-9.9
		h3.62V315.82z M536.16,323.44h-3.1c-5.1,0-8.43,1.48-8.43,4.8c0,3.4,3.1,4.73,7.54,4.73c1.11,0,2.66-0.15,3.99-0.37V323.44z"/>
	<path class="st1" d="M567.35,337.78v-43.9h24.39v6.65h-16.85v12.79h15.23v6.65h-15.23v17.81H567.35z"/>
	<path class="st1" d="M613.26,304.29c9.83,0,16.93,6.95,16.93,17.15c0,10.13-7.1,17.07-16.93,17.07c-9.76,0-16.85-6.95-16.85-17.07
		C596.4,311.24,603.5,304.29,613.26,304.29z M613.26,310.58c-5.47,0-9.46,4.21-9.46,10.87c0,6.58,3.99,10.79,9.46,10.79
		c5.62,0,9.54-4.21,9.54-10.79C622.79,314.79,618.87,310.58,613.26,310.58z"/>
	<path class="st1" d="M665,337.04c-3.84,0.96-8.87,1.48-12.71,1.48c-9.39,0-15.15-3.03-15.15-12.2v-21.29h7.24v20.77
		c0,4.88,2.96,6.65,7.76,6.65c1.63,0,3.7-0.15,5.62-0.44v-26.98H665V337.04z"/>
	<path class="st1" d="M675.13,307.1c4.58-1.77,10.2-2.81,15-2.81c8.35,0,13.67,3.18,13.67,12.42v21.07h-7.24v-20.4
		c0-4.73-2.96-6.43-7.02-6.43c-2.59,0-5.17,0.37-7.1,0.96v25.87h-7.32V307.1z"/>
	<path class="st1" d="M742.32,337.11c-3.77,0.96-8.28,1.4-12.34,1.4c-11.38,0-18.92-6.06-18.92-17.07
		c0-10.57,7.47-17.15,17.52-17.15c2.37,0,4.95,0.44,6.5,1.26v-18.03h7.24V337.11z M735.08,311.98c-1.48-0.81-3.55-1.26-6.06-1.26
		c-6.13,0-10.57,3.84-10.57,10.57c0,7.02,4.58,10.94,11.68,10.94c1.48,0,3.33-0.07,4.95-0.29V311.98z"/>
	<path class="st1" d="M768.86,315.82c0-3.55-2.66-5.17-6.28-5.17c-3.77,0-6.73,1.11-9.46,2.66v-6.36c2.88-1.63,6.58-2.66,10.64-2.66
		c7.17,0,12.27,2.96,12.27,11.16v21.66c-3.1,0.81-7.54,1.33-11.24,1.33c-8.5,0-14.71-2.59-14.71-9.98c0-6.65,5.69-9.9,15.15-9.9
		h3.62V315.82z M768.86,323.44h-3.1c-5.1,0-8.43,1.48-8.43,4.8c0,3.4,3.1,4.73,7.54,4.73c1.11,0,2.66-0.15,3.99-0.37V323.44z"/>
	<path class="st1" d="M781.13,305.03h4.95v-7.98h7.24v7.98h9.31v6.14h-9.31v15.6c0,3.92,1.7,5.25,4.51,5.25
		c2.14,0,3.99-0.67,5.99-1.85v6.58c-2.14,1.11-4.8,1.77-7.91,1.77c-5.32,0-9.83-2.66-9.83-10.13v-17.22h-4.95V305.03z"/>
	<path class="st1" d="M809.96,294.98c0-2.51,2.14-4.51,4.58-4.51c2.44,0,4.58,2,4.58,4.51c0,2.59-2.14,4.66-4.58,4.66
		C812.1,299.64,809.96,297.57,809.96,294.98z M818.23,337.78h-7.32v-32.74h7.32V337.78z"/>
	<path class="st1" d="M842.7,304.29c9.83,0,16.93,6.95,16.93,17.15c0,10.13-7.1,17.07-16.93,17.07c-9.76,0-16.85-6.95-16.85-17.07
		C825.85,311.24,832.94,304.29,842.7,304.29z M842.7,310.58c-5.47,0-9.46,4.21-9.46,10.87c0,6.58,3.99,10.79,9.46,10.79
		c5.62,0,9.53-4.21,9.53-10.79C852.23,314.79,848.32,310.58,842.7,310.58z"/>
	<path class="st1" d="M867.24,307.1c4.58-1.77,10.2-2.81,15-2.81c8.35,0,13.67,3.18,13.67,12.42v21.07h-7.24v-20.4
		c0-4.73-2.96-6.43-7.02-6.43c-2.59,0-5.17,0.37-7.1,0.96v25.87h-7.32V307.1z"/>
</g>
</svg>
