<svg id="Layer_1" data-name="Layer 1" xmlns="http://www.w3.org/2000/svg" viewBox="0 0 683.16141 389.43496"><defs><style>.cls-1,.cls-3{fill:#231f20;}.cls-1,.cls-2{fill-rule:evenodd;}.cls-2{fill:#f47937;}</style></defs><title>Alibaba_com</title><path class="cls-1" d="M422.06922,144.81124a10.60639,10.60639,0,0,1-4.21888-2.10779c-12.12346-11.86251,3.429-25.57,21.08918-33.47553V86.82282c4.21455,2.37181,6.32462,2.6347,6.58967,3.1639L459.23558,76.2792l-4.4828-11.59643c39.80129-13.97259,55.88178-19.24429,88.30119-24.778L537.25535,34.369l9.75245-5.53378c21.61518,7.37754,42.17528,9.22575,38.48228,27.67383,1.055-12.38749-14.23228-17.13112-37.95308-23.98483L543.054,35.424l8.69769,7.11568c-38.74734,6.85371-62.73229,14.49848-91.20015,24.514l3.95383,10.01659-14.23342,14.2333A60.37829,60.37829,0,0,0,503.25165,82.078a.56788.56788,0,0,0,.52909-.527c-.79312-1.31684-2.37285-2.636-4.48292-4.48075a12.44515,12.44515,0,0,1,11.33674,14.2333h-3.42805a8.61869,8.61869,0,0,0-1.055-6.32576,67.45412,67.45412,0,0,1-62.99746,10.01556v17.39733c-9.4875,3.42588-26.88472,13.96825-26.61954,24.25a9.50911,9.50911,0,0,0,5.53469,8.17055Z"/><path class="cls-2" d="M503.25165,140.33152c-21.611,11.06963-42.17106,19.76823-73.804,21.08621-41.117-.78992-47.70678-28.46786-28.20052-57.46059,18.448-29.25984,47.70586-55.35475,94.36178-71.96,13.44144-4.74478,33.47678-10.28062,52.454-10.54362,27.67463-.263,54.29771,8.4356,52.71776,35.05548-1.055,20.29824-30.31391,49.02682-45.6,69.84992-6.592,8.96389-7.64363,14.76262,3.42474,14.23456,40.85638-2.63585,77.75768-16.86939,112.02633-31.62961-23.19914,15.81646-143.13016,75.91381-143.65479,34.79237.26072-5.00778,2.63482-10.54248,6.32347-16.34109a172.35287,172.35287,0,0,1,14.76251-18.18725c8.17157-9.49069,28.46787-31.89375,35.05743-45.60116,11.59757-25.56582-14.23639-26.886-36.11252-34.79157L537.25535,34.369l5.79862,5.53584c-32.41941,5.53367-48.4999,10.80537-88.30119,24.778l4.4828,11.59643L445.52919,89.98672c-.26505-.5292-2.37512-.79209-6.58967-3.1639v22.4051c-17.66022,7.90549-33.21264,21.613-21.08918,33.47553a10.60639,10.60639,0,0,0,4.21888,2.10779h0c21.876,12.38852,81.18243-4.47972,81.18243-4.47972Z"/><path class="cls-2" d="M140.29707,201.48089V188.03944h19.76715v13.44145Zm.52487,55.61672V208.86254H159.2731v48.23507Zm217.98477-25.30293c0-4.48086-1.05384-7.90777-3.4236-10.54454a12.72005,12.72005,0,0,0-9.75382-3.9528h-.26391c-4.21569.26392-7.37972,1.318-9.75359,3.9528-2.36976,2.63677-3.42474,6.32771-3.42474,11.07157,0,4.74478,1.055,8.43458,3.42474,11.07054,2.37387,2.63482,5.5379,3.6898,9.75359,3.6898,4.219,0,7.6426-1.318,10.01773-3.95509,2.36976-2.63482,3.4236-6.58739,3.4236-11.33228Zm-13.44133-23.195a35.72461,35.72461,0,0,1,7.6426-.79106c7.64477,0,13.70752,2.108,18.18713,6.5899,4.219,4.48189,6.59185,10.54248,6.59185,18.18714,0,8.17066-2.10882,14.49642-6.59185,18.97716-4.21569,4.48178-10.27845,6.85371-17.92208,6.85371a40.70632,40.70632,0,0,1-7.90765-1.05395q-1.98006-.79192-3.955-1.5819a28.09489,28.09489,0,0,1-9.22336-7.64362v5.27169a15.44761,15.44761,0,0,1-.5292,3.68889H313.20657c.26517-1.845.26517-3.68889.5292-5.53482,0-1.84489.26506-3.68877.26506-5.27078V188.03944h18.18622v27.67578a30.54263,30.54263,0,0,1,9.48853-6.06276,19.42719,19.42719,0,0,1,3.6898-1.05281Zm209.81525,6.06173a17.88688,17.88688,0,0,1,17.65816,17.92425A17.65973,17.65973,0,0,1,555.18063,250.246a17.8897,17.8897,0,0,1-17.92528-17.66033,18.11634,18.11634,0,0,1,17.92528-17.92425Zm0,43.75512a25.96323,25.96323,0,0,0,0-51.92578,25.96323,25.96323,0,1,0,0,51.92578Zm-94.891-8.6986h8.17054v7.37971h-8.17054V249.7179Zm62.20411,1.318c-2.6347,2.10893-7.90446,7.38062-18.1861,7.38062a25.96323,25.96323,0,0,1,0-51.92578c9.75255,0,15.5514,5.27067,18.1861,7.37971a35.44434,35.44434,0,0,0-3.42565,8.43344c-5.0079-6.58865-11.07157-7.64249-14.76045-7.64249a17.79287,17.79287,0,1,0,14.76045,27.93878,35.496,35.496,0,0,0,3.42565,8.43572Zm70.11406,6.06173V208.86254h7.37982v6.85268a21.26214,21.26214,0,0,1,6.06368-5.79862,19.26578,19.26578,0,0,1,8.69666-2.108,17.68675,17.68675,0,0,1,8.69872,2.108,13.1679,13.1679,0,0,1,5.00869,6.32668c3.68992-5.53584,8.69873-8.43469,14.76251-8.43469q7.11563,0,11.06848,3.9528c2.638,2.6371,3.95383,6.85393,3.95383,12.38852v32.9477h-8.16963V226.78576a22.866,22.866,0,0,0-.78992-7.1166,7.2907,7.2907,0,0,0-2.90307-3.42588,10.061,10.061,0,0,0-5.0047-1.31684,11.13528,11.13528,0,0,0-8.43663,3.4236c-2.10676,2.11007-3.42589,5.79987-3.42589,10.80868v27.93889h-8.17271V225.73192c0-3.6898-.52589-6.3269-1.8449-8.17066-1.31593-1.846-3.68889-2.63482-6.58865-2.63482a10.4994,10.4994,0,0,0-6.32462,1.84376,8.54757,8.54757,0,0,0-4.21889,5.27192c-1.05406,2.37193-1.319,5.79861-1.319,10.01556v25.03993Zm62.47157-58.77846v-9.22576h-3.42783v-1.05395H660.085v1.05395h-3.42577v9.22576Zm6.32473,0V188.03944h2.10893l2.37079,7.38074c.26506.527.26506,1.055.52806,1.31684a10.74076,10.74076,0,0,1,.52589-1.58178l2.37388-7.1158h1.845v10.27971h-1.319v-8.69884l-2.89988,8.69884h-1.31592l-2.89874-8.69884v8.69884ZM425.75788,249.98181c-1.84387,2.89885-4.74363,4.746-8.69872,6.32576-.78981.26517-1.84376.527-2.63459.79a45.45869,45.45869,0,0,1-11.0718,1.31889q-9.09071,0-14.23227-3.95371c-3.16391-2.37205-5.0087-6.064-5.0087-10.80663a16.09336,16.09336,0,0,1,2.10893-7.90663,18.48451,18.48451,0,0,1,5.5347-5.53686c1.84479-1.318,4.74478-2.11,8.17169-2.63482a95.66679,95.66679,0,0,1,14.49745-.79209h11.06837v-1.318c0-2.63482-.7889-4.7426-2.36976-6.06275a9.86528,9.86528,0,0,0-6.58865-2.10768c-.79,0-1.5843.26392-2.11.26392a10.68475,10.68475,0,0,0-5.53379,1.31912,5.52222,5.52222,0,0,0-2.9,4.47972H387.27571c.52589-5.27181,3.42566-9.22575,8.16838-11.86046,4.22-2.37307,10.5467-3.42805,18.98048-3.691h2.3717c8.96161,0,15.81532,1.581,20.03432,4.481,4.2158,2.89874,6.32348,7.64363,6.32348,13.96939v24.515c0,1.31684.26528,2.63482.26528,3.68889.2638.7898.52589,1.84478.791,2.63482H427.07792a9.39837,9.39837,0,0,1-1.055-2.9c0-.7889-.26506-2.10688-.26506-3.16174v-1.05407ZM414.42457,247.874a13.38962,13.38962,0,0,0,7.64465-2.89885,10.697,10.697,0,0,0,3.42372-8.17385v-1.05179H423.914c-3.69083,0-6.85485,0-9.48944.262-2.89908.26506-5.0079.52806-6.58876,1.317-2.899.792-4.483,2.63676-4.483,5.2717a4.64117,4.64117,0,0,0,2.37411,3.95383,15.75327,15.75327,0,0,0,6.85382,1.32ZM283.9521,249.98181c-2.11,2.89885-5.00881,4.746-8.96264,6.32576-.791.26517-1.58418.527-2.63916.79a45.41456,45.41456,0,0,1-11.06848,1.31889c-6.06367,0-10.80754-1.31889-13.97145-3.95371-3.42474-2.37205-5.00447-6.064-5.00447-10.80663a15.89783,15.89783,0,0,1,1.84388-7.90663,18.39922,18.39922,0,0,1,5.53469-5.53686,21.246,21.246,0,0,1,8.16964-2.63482,95.62879,95.62879,0,0,1,14.49619-.79209H283.423v-1.318c0-2.63482-.79106-4.7426-2.36965-6.06275a9.88555,9.88555,0,0,0-6.593-2.10768c-.79,0-1.31592.26392-2.11007.26392a10.70588,10.70588,0,0,0-5.5347,1.31912c-1.5787.78878-2.36976,2.36976-2.89873,4.47972H245.20156a15.44817,15.44817,0,0,1,8.17283-11.86046c4.47972-2.37307,10.80639-3.42805,18.97591-3.691h2.3741c8.96378,0,15.81646,1.581,20.03215,4.481,4.21786,2.89874,6.59082,7.64363,6.59082,13.96939v28.20384c.26174.7898.52692,1.84478.79083,2.63482H285.00388a5.31444,5.31444,0,0,1-.79106-2.9,11.92319,11.92319,0,0,1-.26072-3.16174v-1.05407ZM272.3503,247.874a12.68932,12.68932,0,0,0,7.64694-2.89885c2.37079-1.84821,3.42577-4.74694,3.42577-8.17385v-1.05179h-1.58087c-3.693,0-6.85268,0-9.49184.262a19.02434,19.02434,0,0,0-6.32348,1.317c-3.16493.792-4.48074,2.63676-4.48074,5.2717a5.00828,5.00828,0,0,0,2.10561,3.95383,16.229,16.229,0,0,0,7.11888,1.32Zm-55.61455-16.07934c0-4.48086-1.05395-7.90777-3.42783-10.54454-2.37079-2.63482-5.53367-3.9528-9.74947-3.9528-4.4828.26392-7.64682,1.318-10.01647,3.9528-2.37525,2.63677-3.42908,6.32771-3.42908,11.07157,0,4.74478,1.05383,8.43458,3.42908,11.07054,2.36965,2.63482,5.79872,3.6898,9.75255,3.6898h.26392c4.2158,0,7.37868-1.318,9.74947-3.95509,2.37388-2.63482,3.42783-6.58739,3.42783-11.33228Zm-13.1773-23.195a33.27345,33.27345,0,0,1,7.37868-.79106c7.64363,0,13.70742,2.108,18.18714,6.5899,4.47869,4.48189,6.58876,10.54248,6.58876,18.18714q0,12.256-6.32359,18.97716c-4.48292,4.48178-10.28279,6.85371-17.92641,6.85371a35.8412,35.8412,0,0,1-7.90458-1.05395,30.60719,30.60719,0,0,1-3.95486-1.5819,23.63565,23.63565,0,0,1-9.22666-7.64362v1.58087a17.379,17.379,0,0,1-.264,3.69082c0,1.31912-.26186,2.63585-.26186,3.68889H171.13573a39.07677,39.07677,0,0,0,.52589-5.53482,36.8941,36.8941,0,0,0,.26511-5.27078V188.03944h18.4502v27.67578a26.73741,26.73741,0,0,1,9.22666-6.06276,21.92174,21.92174,0,0,1,3.95486-1.05281Zm-143.655-20.56021H73.3459l33.73853,69.05817h-22.141L78.88065,243.127H41.18823l-6.58865,13.97065H13.77432L49.887,188.03944Zm0,41.64631H72.556L60.69346,203.06381l-.79,1.317-12.39165,25.305Zm50.34486,27.41186V188.03944h18.45122v69.05817Z"/><path class="cls-2" d="M62.53836,87.34973H57.79461V105.8009H67.5482V87.34973ZM326.12429,127.6792h8.96264c2.89873,0,5.00778-.79209,5.79873-2.37422,1.05383-1.31672,1.84387-4.74477,2.6347-10.01533a12.628,12.628,0,0,0,7.90778,4.48064c-1.84376,6.85382-3.6898,10.80867-5.273,11.86262-1.58087,1.317-4.4796,1.84388-8.95932,1.84388H296.33959c-7.64374,0-11.33571-3.16277-11.33571-9.48853v-45.864c0-3.42691-.262-7.38085-.52692-11.86263h57.72451c-.262,4.74683-.262,11.07259-.262,18.97922,0,7.90778,0,14.23342.262,19.24326h-6.85063V99.21019H291.5947v21.35c0,4.74477,2.63482,7.119,7.64465,7.119h26.88494Zm0-34.53062h9.22655V72.32537H316.63565V93.14858Zm-25.04107,0h9.2245V72.32537h-18.713V93.14858ZM240.45781,127.6792h8.96149c2.9,0,5.00881-.79209,5.79885-2.37422,1.056-1.31672,1.84478-4.74477,2.636-10.01533a13.3638,13.3638,0,0,0,7.90754,4.48064c-1.84478,6.85382-3.68866,10.80867-5.26953,11.86262-1.583,1.317-4.483,1.84388-8.96286,1.84388H210.673c-7.64351,0-11.33229-3.16277-11.33229-9.48853v-45.864c0-3.42691-.26505-7.38085-.26505-11.86263h57.46253c-.264,4.74683-.264,11.07259-.264,18.97922,0,7.90778,0,14.23342.264,19.24326h-6.85371V99.21019H205.92935v21.35c0,4.74477,2.63471,7.119,7.64363,7.119h26.88483Zm0-34.53062h9.22666V72.32537H230.968V93.14858Zm-25.041,0h9.2277V72.32537h-18.7152V93.14858Zm-60.62233,34.79351h13.70639c3.68883-.26289,7.64363-.26289,12.1234-.26289v6.32656a103.12489,103.12489,0,0,0-12.1234-.792h-50.083a133.96861,133.96861,0,0,0-13.70324.792V127.6792c5.26975,0,9.74947,0,13.70324.26289h20.29618V116.87155H123.69081c-3.165,0-7.11774,0-11.5986.26186v-6.0607c4.48086.262,8.43361.527,11.5986.79095h15.02328V102.3741h-25.041c.26511-4.48075.52909-10.01761.52909-16.34132,0-6.06367,0-13.1805-.52909-20.56h57.46265c-.26506,4.48063-.26506,10.8064-.26506,18.45,0,7.64477,0,13.97053.26506,18.45128H145.04082v9.48956h16.07729q4.74586-.39588,11.86252-.79095v6.0607c-4.74484-.26186-8.69861-.26186-11.86252-.26186H145.04082v11.07054Zm0-30.57577h9.75256V86.82282H145.04082v10.5435Zm0-15.28828h9.75256V70.48035H145.04082V82.078Zm-25.041,15.28828h8.96052V86.82282H120.79093v10.5435Zm0-15.28828h8.96052V70.48035H120.79093V82.078Zm-67.21521,29.5217H57.79461v8.17055H51.46668c.264-3.42566.264-9.75256.264-18.97809,0-9.22461,0-15.5514-.264-18.97831H73.87179c-.26186,4.21889-.26186,10.01773-.26186,17.3963,0,7.38188,0,13.1805.26186,17.39619H67.5482v-5.00664Zm0-40.85638H80.46044v52.19186c0,2.63494-.52481,4.21581-1.84382,4.744a39.12724,39.12724,0,0,1-7.64471.5268,20.77807,20.77807,0,0,1,2.89988,7.64363c4.74483-.5268,7.90874-1.31672,10.01761-2.37284,2.109-1.05395,2.899-3.69083,2.899-8.17181V70.74336c2.1099,0,5.27278,0,9.22341.26505V64.68277c-4.21466.262-7.11351.262-8.43355.262H58.58448c-2.63477,0-5.79879,0-10.01653-.262v6.32564c5.00766-.26505,8.43674-.26505,10.01653-.26505ZM33.01546,91.03965c4.483,6.59081,7.11882,11.33445,7.90772,14.49619q1.18488,5.14208-.7889,6.32782a22.80365,22.80365,0,0,1-7.64471,2.1079,26.93422,26.93422,0,0,1,2.89993,7.11671,25.08491,25.08491,0,0,0,8.96264-3.95486c2.63482-2.10676,3.95383-5.00675,3.68877-9.22461-.52908-3.95166-3.16391-9.75142-8.69758-17.39733,2.63482-8.69758,5.00881-17.13215,7.3796-25.56673H23.00213c.26391,4.48189.26391,15.81418.26391,33.47565,0,17.92424,0,30.31379-.26391,37.42924h6.85268V70.74336h8.96366c-2.11,7.90777-3.95491,14.76147-5.803,20.29629Z"/><path class="cls-3" d="M128.8783,359.90078H118.82215l13.31446-21.09472-12.66846-20.3086h10.33691l7.38428,13.4834,7.5874-13.4834h10l-12.66846,19.9707,13.45459,21.43262H145.0575l-7.86718-14.11719Z"/><path class="cls-3" d="M158.14686,340.06973h15.67383v7.584H158.14686Z"/><path class="cls-3" d="M205.20106,319.3959a13.68037,13.68037,0,0,1,7.05566,5.25293,18.41028,18.41028,0,0,1,2.95166,6.68555,32.05729,32.05729,0,0,1,.7876,6.85351,27.50361,27.50361,0,0,1-3.31738,13.98828q-4.49781,7.72558-13.88721,7.72461H180.94032V318.49746h17.85107A21.79409,21.79409,0,0,1,205.20106,319.3959Zm-15.86182,6.292v27.02246H197.329q6.1333,0,8.55273-6.04a21.267,21.267,0,0,0,1.32227-7.89257q0-6.3208-1.9834-9.70508-1.9834-3.38379-7.8916-3.38477Z"/><path class="cls-3" d="M242.36512,329.90371a12.45768,12.45768,0,0,1,5.291,4.5293,15.04705,15.04705,0,0,1,2.43945,6.33008,39.13608,39.13608,0,0,1,.26367,6.07617H228.06q.186,4.60693,3.20166,6.46094a8.13423,8.13423,0,0,0,4.41406,1.15136,6.21539,6.21539,0,0,0,6.09277-3.51172h8.17334a9.99673,9.99673,0,0,1-2.96826,5.53418q-4.114,4.46631-11.51856,4.46582a16.69279,16.69279,0,0,1-10.78466-3.7666q-4.67212-3.76758-4.67188-12.25781,0-7.95557,4.21778-12.20117a14.76009,14.76009,0,0,1,10.94873-4.24512A17.43427,17.43427,0,0,1,242.36512,329.90371Zm-11.97607,6.916a8.31579,8.31579,0,0,0-2.13233,4.73828h13.79151a6.67869,6.67869,0,0,0-2.13233-4.83789,7.019,7.019,0,0,0-4.748-1.65039A6.347,6.347,0,0,0,230.38905,336.81973Z"/><path class="cls-3" d="M274.934,329.90371a12.45759,12.45759,0,0,1,5.291,4.5293,15.04693,15.04693,0,0,1,2.43946,6.33008,39.13608,39.13608,0,0,1,.26367,6.07617H260.62879q.186,4.60693,3.20166,6.46094a8.13429,8.13429,0,0,0,4.41407,1.15136,6.21539,6.21539,0,0,0,6.09277-3.51172h8.17334a9.99673,9.99673,0,0,1-2.96826,5.53418q-4.114,4.46631-11.51856,4.46582a16.69283,16.69283,0,0,1-10.78467-3.7666q-4.67211-3.76758-4.67187-12.25781,0-7.95557,4.21777-12.20117a14.76012,14.76012,0,0,1,10.94873-4.24512A17.43435,17.43435,0,0,1,274.934,329.90371Zm-11.97608,6.916a8.31585,8.31585,0,0,0-2.13232,4.73828h13.7915a6.67864,6.67864,0,0,0-2.13232-4.83789,7.019,7.019,0,0,0-4.74805-1.65039A6.347,6.347,0,0,0,262.95789,336.81973Z"/><path class="cls-3" d="M313.30018,332.56973q3.74561,3.96093,3.7456,11.6289,0,8.09034-3.66113,12.33106a11.88272,11.88272,0,0,1-9.42822,4.24219,9.88775,9.88775,0,0,1-6.10693-1.82618,11.79323,11.79323,0,0,1-2.60108-2.94921v15.95507h-7.9209v-42.668H294.996v4.52247a12.881,12.881,0,0,1,2.77-3.14649,10.22781,10.22781,0,0,1,6.38916-2.05078A12.10767,12.10767,0,0,1,313.30018,332.56973Zm-6.144,5.75879a5.69648,5.69648,0,0,0-5.29248-2.72461,6.01882,6.01882,0,0,0-6.04444,4.1289,15.50853,15.50853,0,0,0-.85156,5.56153q0,5.33789,2.86377,7.5a6.57277,6.57277,0,0,0,4.03027,1.26367,5.85955,5.85955,0,0,0,5.15186-2.584,13.53582,13.53582,0,0,0,.14258-13.1455Z"/><path class="cls-3" d="M323.913,318.49746h8.65088v33.96h20.67383v7.44336H323.913Z"/><path class="cls-3" d="M378.934,329.90371a12.46046,12.46046,0,0,1,5.291,4.5293,15.0599,15.0599,0,0,1,2.43946,6.33008,39.2603,39.2603,0,0,1,.26367,6.07617H364.6283q.186,4.60693,3.20215,6.46094a8.13312,8.13312,0,0,0,4.41407,1.15136,6.21522,6.21522,0,0,0,6.09179-3.51172h8.17383a9.99875,9.99875,0,0,1-2.96777,5.53418q-4.11476,4.46631-11.51953,4.46582a16.69337,16.69337,0,0,1-10.78418-3.7666q-4.67286-3.76758-4.67188-12.25781,0-7.95557,4.21777-12.20117a14.759,14.759,0,0,1,10.94825-4.24512A17.43893,17.43893,0,0,1,378.934,329.90371Zm-11.97656,6.916a8.31618,8.31618,0,0,0-2.13282,4.73828h13.792a6.679,6.679,0,0,0-2.13282-4.83789,7.01731,7.01731,0,0,0-4.74707-1.65039A6.34593,6.34593,0,0,0,366.95741,336.81973Z"/><path class="cls-3" d="M403.67713,341.27774a12.70554,12.70554,0,0,0,3.19727-.70215,2.40868,2.40868,0,0,0,1.72656-2.27539,2.69022,2.69022,0,0,0-1.32422-2.59864,8.368,8.368,0,0,0-3.88672-.71582q-2.87548,0-4.07129,1.4043a5.79333,5.79333,0,0,0-1.13867,2.80859h-7.72461a11.70746,11.70746,0,0,1,2.25684-6.60058q3.1875-4.04443,10.94629-4.04492a19.52185,19.52185,0,0,1,8.9707,1.99414q3.92139,1.9951,3.9209,7.52832v14.04492q0,1.46044.05664,3.53906a4.4386,4.4386,0,0,0,.47754,2.13477,2.85985,2.85985,0,0,0,1.17969.92675v1.17969h-8.708a8.88134,8.88134,0,0,1-.50586-1.74121q-.14062-.81445-.22461-1.85449a16.48934,16.48934,0,0,1-3.84277,3.06152,11.60247,11.60247,0,0,1-5.877,1.48926,10.13624,10.13624,0,0,1-6.90722-2.374,8.43716,8.43716,0,0,1-2.72657-6.72657q0-5.647,4.38575-8.1748a19.60426,19.60426,0,0,1,7.07519-1.96582Zm4.89551,3.73535a8.798,8.798,0,0,1-1.55176.77246,13.01961,13.01961,0,0,1-2.15039.54785l-1.82226.33691a11.98959,11.98959,0,0,0-3.67969,1.09571,3.65633,3.65633,0,0,0-1.89063,3.39941,3.5486,3.5486,0,0,0,1.15528,2.96289,4.38923,4.38923,0,0,0,2.80859.91309,8.36986,8.36986,0,0,0,4.835-1.5166q2.21044-1.51758,2.2959-5.53418Z"/><path class="cls-3" d="M441.1283,328.5668c.10254.00976.332.02441.68848.042v8.20215q-.75879-.08351-1.34863-.11231-.59034-.02783-.95508-.02734-4.83105,0-6.48828,3.14551a12.23322,12.23322,0,0,0-.92774,5.44922v14.63476h-8.06152V329.28359h7.64063v5.33692a16.93022,16.93022,0,0,1,3.23046-4.18555,8.79728,8.79728,0,0,1,5.84278-1.88183C440.89881,328.55313,441.02479,328.558,441.1283,328.5668Z"/><path class="cls-3" d="M471.77186,331.03945q3.00732,2.48585,3.00684,8.24414v20.61719h-8.20215v-18.623a8.55248,8.55248,0,0,0-.64063-3.708q-1.17187-2.35986-4.46191-2.35938a5.52976,5.52976,0,0,0-5.54883,3.45508,11.94829,11.94829,0,0,0-.78027,4.66309v16.57226h-8.00586V329.33926H454.892v4.4668a13.57091,13.57091,0,0,1,2.90918-3.39942,10.08126,10.08126,0,0,1,6.2373-1.85351A11.73024,11.73024,0,0,1,471.77186,331.03945Z"/><path class="cls-3" d="M491.02772,325.63223h-8.11719v-7.3877h8.11719Zm-8.11719,3.65136h8.11719v30.61719h-8.11719Z"/><path class="cls-3" d="M524.04432,331.03945q3.00732,2.48585,3.00684,8.24414v20.61719H518.849v-18.623a8.55248,8.55248,0,0,0-.64063-3.708q-1.17187-2.35986-4.46191-2.35938a5.52976,5.52976,0,0,0-5.54883,3.45508,11.94829,11.94829,0,0,0-.78027,4.66309v16.57226h-8.00586V329.33926h7.75293v4.4668a13.57091,13.57091,0,0,1,2.90918-3.39942,10.08126,10.08126,0,0,1,6.2373-1.85351A11.73024,11.73024,0,0,1,524.04432,331.03945Z"/><path class="cls-3" d="M550.2162,329.25527a9.61466,9.61466,0,0,1,4.71289,4.43848v-4.41016h7.80957v29.04395q0,5.92675-1.99512,8.93262-3.42627,5.168-13.14551,5.16894a17.914,17.914,0,0,1-9.57812-2.30371,8.50185,8.50185,0,0,1-4.10157-6.88183h8.708a3.60629,3.60629,0,0,0,1.0957,2.02246q1.29054,1.0957,4.35352,1.0957,4.32569,0,5.78613-2.89356.95508-1.85448.95508-6.23632V355.266a9.76381,9.76381,0,0,1-2.47168,2.94922,9.93709,9.93709,0,0,1-6.208,1.82617,11.7448,11.7448,0,0,1-9.42382-4.14356q-3.52441-4.14258-3.5254-11.22168a18.93714,18.93714,0,0,1,3.39454-11.47461,11.21244,11.21244,0,0,1,9.623-4.64843A10.524,10.524,0,0,1,550.2162,329.25527Zm2.72656,21.95215q1.93066-2.12109,1.93066-6.75586,0-4.35351-1.833-6.6289a5.97758,5.97758,0,0,0-4.9082-2.27539,5.78473,5.78473,0,0,0-5.79,3.96093,14.09424,14.09424,0,0,0-.83984,5.19629,11.90116,11.90116,0,0,0,.89551,4.74707,5.83329,5.83329,0,0,0,5.81836,3.876A6.14607,6.14607,0,0,0,552.94276,351.20742Z"/></svg>