<svg id="f6dd1f2c-1f77-4f14-9338-41cee414431e" data-name="Layer 1" xmlns="http://www.w3.org/2000/svg" xmlns:xlink="http://www.w3.org/1999/xlink" viewBox="0 0 450 300"><defs><style>.a751175e-6945-4b7f-85fc-7c7c4c19abe1{fill:none;}.fa1418b8-9571-4e45-b0d1-0c4f9bb050f4{clip-path:url(#e1f112a3-2d8e-4834-81de-bc3e9885c402);}.aa7a18f1-f458-4ea2-8dba-dd85462ab72d{opacity:0.8;}.a0b5d693-b3b3-422d-9b8e-3dc86d76fc99{clip-path:url(#ebb98592-eb90-44e2-9423-039c57c0a738);}.ad605e1b-e7a2-45ec-9613-e6112fe2779c{fill:#50b748;}.b04947d0-6a1a-4f55-a23a-ff0ebcc9c260{fill:#2db24a;}.b3665079-3c8f-468d-97f4-1e93204d1e3a{opacity:0.55;}.aeba16ef-fabc-4973-a5eb-6c7d338b1fb3{clip-path:url(#fe1d4fe0-fbe2-4fc3-bd95-6a49003555bc);}.a90e32b9-106c-43d3-aec2-f02ba6430438{fill:#7dc257;}.b286a299-ca99-42dd-9229-29126adfafcb{clip-path:url(#b38e57d7-39f0-4d0d-8fc2-22bbf72fefeb);}.a271cae7-4670-4ce6-b700-d29c098a27e8{fill:#ffcb04;}.a01a3f29-f7b6-4cff-bab7-c1e417655c6d{fill:#fdbc11;}.aa8ef979-c560-4abd-8e4a-10f6449dbbc9{clip-path:url(#a65d5005-6605-4a89-98c1-ecc7e0a13699);}.bfb74f2f-465a-4adc-9147-f3b7850f1d26{fill:#ffd451;}.e0cae9b2-b446-4667-a848-c3301464c2bd{clip-path:url(#b06a362e-9a00-442b-be52-7c25ab09094b);}.a6b9d4b3-5119-4dca-b36e-9bfa275f2f6d{fill:#4c9aff;}.b5990222-113b-40f2-9a31-f9b57d44156c{clip-path:url(#b81a6eba-88e0-4b9b-b3d8-28e6ac9141c0);}.bd0e2b76-2e26-4cc9-9d02-b0978a655087{clip-path:url(#b6d298c3-0b67-460e-b339-0a1e2c2bbc4d);}.b5fddad3-a36c-498c-9c7d-8101fe4721c9{fill:#ee4526;}.fe2899f5-5c19-4609-b75e-e2ebcb045fee{clip-path:url(#acf6cbf5-a208-4a43-9172-ce2580634f8e);}.bd0317c0-ddb0-444f-b4c8-78f131d64d0e{fill:#3f5d77;}</style><clipPath id="e1f112a3-2d8e-4834-81de-bc3e9885c402"><rect class="a751175e-6945-4b7f-85fc-7c7c4c19abe1" x="141.055" y="24.301" width="164.906" height="179.346"/></clipPath><clipPath id="ebb98592-eb90-44e2-9423-039c57c0a738"><rect class="a751175e-6945-4b7f-85fc-7c7c4c19abe1" x="141.055" y="125.859" width="164.906" height="61.251"/></clipPath><clipPath id="fe1d4fe0-fbe2-4fc3-bd95-6a49003555bc"><rect class="a751175e-6945-4b7f-85fc-7c7c4c19abe1" x="141.055" y="157.427" width="164.906" height="46.22"/></clipPath><clipPath id="b38e57d7-39f0-4d0d-8fc2-22bbf72fefeb"><rect class="a751175e-6945-4b7f-85fc-7c7c4c19abe1" x="141.055" y="92.007" width="164.906" height="61.251"/></clipPath><clipPath id="a65d5005-6605-4a89-98c1-ecc7e0a13699"><rect class="a751175e-6945-4b7f-85fc-7c7c4c19abe1" x="141.055" y="123.574" width="164.906" height="46.22"/></clipPath><clipPath id="b06a362e-9a00-442b-be52-7c25ab09094b"><rect class="a751175e-6945-4b7f-85fc-7c7c4c19abe1" x="141.055" y="58.154" width="164.906" height="61.251"/></clipPath><clipPath id="b81a6eba-88e0-4b9b-b3d8-28e6ac9141c0"><rect class="a751175e-6945-4b7f-85fc-7c7c4c19abe1" x="141.055" y="89.722" width="164.906" height="46.22"/></clipPath><clipPath id="b6d298c3-0b67-460e-b339-0a1e2c2bbc4d"><rect class="a751175e-6945-4b7f-85fc-7c7c4c19abe1" x="141.055" y="24.301" width="164.906" height="61.251"/></clipPath><clipPath id="acf6cbf5-a208-4a43-9172-ce2580634f8e"><rect class="a751175e-6945-4b7f-85fc-7c7c4c19abe1" x="141.055" y="55.869" width="164.906" height="46.22"/></clipPath></defs><title>XenonStack Logo Enhanced</title><g id="e1732641-1026-48ce-9052-d7a1faf71d72" data-name="Vector Smart Object"><g class="fa1418b8-9571-4e45-b0d1-0c4f9bb050f4"><g class="fa1418b8-9571-4e45-b0d1-0c4f9bb050f4"><g class="fa1418b8-9571-4e45-b0d1-0c4f9bb050f4"><g class="aa7a18f1-f458-4ea2-8dba-dd85462ab72d"><g class="a0b5d693-b3b3-422d-9b8e-3dc86d76fc99"><polygon class="ad605e1b-e7a2-45ec-9613-e6112fe2779c" points="141.055 157.427 223.901 125.859 305.961 157.427 223.901 187.11 141.055 157.427"/></g></g></g><polygon class="b04947d0-6a1a-4f55-a23a-ff0ebcc9c260" points="141.055 157.427 162.557 165.124 223.901 140.936 288.999 163.552 305.961 157.427 223.901 125.859 141.055 157.427"/><g class="fa1418b8-9571-4e45-b0d1-0c4f9bb050f4"><g class="b3665079-3c8f-468d-97f4-1e93204d1e3a"><g class="aeba16ef-fabc-4973-a5eb-6c7d338b1fb3"><polygon class="a90e32b9-106c-43d3-aec2-f02ba6430438" points="141.055 157.427 141.055 174.491 223.901 203.647 305.961 173.169 305.961 157.427 223.901 187.11 141.055 157.427"/></g></g><g class="aa7a18f1-f458-4ea2-8dba-dd85462ab72d"><g class="b286a299-ca99-42dd-9229-29126adfafcb"><polygon class="a271cae7-4670-4ce6-b700-d29c098a27e8" points="141.055 123.574 223.901 92.007 305.961 123.574 223.901 153.257 141.055 123.574"/></g></g></g><polygon class="a01a3f29-f7b6-4cff-bab7-c1e417655c6d" points="141.055 123.574 162.557 131.271 223.901 107.084 288.999 129.7 305.961 123.574 223.901 92.007 141.055 123.574"/><g class="fa1418b8-9571-4e45-b0d1-0c4f9bb050f4"><g class="b3665079-3c8f-468d-97f4-1e93204d1e3a"><g class="aa8ef979-c560-4abd-8e4a-10f6449dbbc9"><polygon class="bfb74f2f-465a-4adc-9147-f3b7850f1d26" points="141.055 123.574 141.055 140.638 223.901 169.795 305.961 139.317 305.961 123.574 223.901 153.257 141.055 123.574"/></g></g><g class="aa7a18f1-f458-4ea2-8dba-dd85462ab72d"><g class="e0cae9b2-b446-4667-a848-c3301464c2bd"><polygon class="a6b9d4b3-5119-4dca-b36e-9bfa275f2f6d" points="141.055 89.722 223.901 58.154 305.961 89.722 223.901 119.405 141.055 89.722"/></g></g></g><polygon class="a6b9d4b3-5119-4dca-b36e-9bfa275f2f6d" points="141.055 89.722 162.557 97.418 223.901 73.231 288.999 95.847 305.961 89.722 223.901 58.154 141.055 89.722"/><g class="fa1418b8-9571-4e45-b0d1-0c4f9bb050f4"><g class="b3665079-3c8f-468d-97f4-1e93204d1e3a"><g class="b5990222-113b-40f2-9a31-f9b57d44156c"><polygon class="a6b9d4b3-5119-4dca-b36e-9bfa275f2f6d" points="141.055 89.722 141.055 106.786 223.901 135.942 305.961 105.464 305.961 89.722 223.901 119.405 141.055 89.722"/></g></g><g class="aa7a18f1-f458-4ea2-8dba-dd85462ab72d"><g class="bd0e2b76-2e26-4cc9-9d02-b0978a655087"><polygon class="b5fddad3-a36c-498c-9c7d-8101fe4721c9" points="141.055 55.869 223.901 24.301 305.961 55.869 223.901 85.552 141.055 55.869"/></g></g></g><polygon class="b5fddad3-a36c-498c-9c7d-8101fe4721c9" points="223.901 24.301 141.055 55.869 162.557 63.565 223.901 39.378 288.999 61.994 305.961 55.869 223.901 24.301"/><g class="fa1418b8-9571-4e45-b0d1-0c4f9bb050f4"><g class="b3665079-3c8f-468d-97f4-1e93204d1e3a"><g class="fe2899f5-5c19-4609-b75e-e2ebcb045fee"><polygon class="b5fddad3-a36c-498c-9c7d-8101fe4721c9" points="141.055 55.869 141.055 72.933 223.901 102.089 305.961 71.611 305.961 55.869 223.901 85.552 141.055 55.869"/></g></g></g></g></g></g><path class="bd0317c0-ddb0-444f-b4c8-78f131d64d0e" d="M36.208,241.6l9.775-16.8h9.328L41.255,247.859,55.63,271.307H46.207l-10-17.059-10.03,17.059H16.786l14.407-23.448L17.106,224.8h9.328Z"/><path class="bd0317c0-ddb0-444f-b4c8-78f131d64d0e" d="M88.789,250.543h-19.1v14.311H92.015v6.453H61.6V224.8H91.792v6.517H69.686v12.841h19.1Z"/><path class="bd0317c0-ddb0-444f-b4c8-78f131d64d0e" d="M135.491,271.307h-8.082l-20.732-33v33H98.6V224.8h8.082l20.8,33.126V224.8h8.018Z"/><path class="bd0317c0-ddb0-444f-b4c8-78f131d64d0e" d="M182.162,249.265a28.535,28.535,0,0,1-2.364,12,17.878,17.878,0,0,1-6.756,7.923,19.828,19.828,0,0,1-20.189,0,18.143,18.143,0,0,1-6.836-7.875,27.633,27.633,0,0,1-2.444-11.787V246.9a28.28,28.28,0,0,1,2.412-12.01,18.132,18.132,0,0,1,6.8-7.971,19.862,19.862,0,0,1,20.157-.032,17.9,17.9,0,0,1,6.788,7.858,28.218,28.218,0,0,1,2.428,11.932Zm-8.082-2.428q0-7.729-2.923-11.851a10.313,10.313,0,0,0-16.483-.016q-2.955,4.105-3.019,11.612v2.683q0,7.667,2.987,11.851a9.617,9.617,0,0,0,8.29,4.185,9.506,9.506,0,0,0,8.257-4.089q2.891-4.089,2.891-11.947Z"/><path class="bd0317c0-ddb0-444f-b4c8-78f131d64d0e" d="M227.107,271.307h-8.082l-20.732-33v33h-8.082V224.8h8.082l20.8,33.126V224.8h8.018Z"/><path class="bd0317c0-ddb0-444f-b4c8-78f131d64d0e" d="M260.968,259.327a5.616,5.616,0,0,0-2.156-4.727q-2.157-1.66-7.779-3.354a37.628,37.628,0,0,1-8.944-3.769q-6.357-3.995-6.357-10.414a11.333,11.333,0,0,1,4.584-9.264q4.584-3.642,11.9-3.642a20.107,20.107,0,0,1,8.657,1.788,14.23,14.23,0,0,1,5.974,5.1,13.066,13.066,0,0,1,2.172,7.331h-8.05a7.291,7.291,0,0,0-2.284-5.7,9.432,9.432,0,0,0-6.533-2.061A9.845,9.845,0,0,0,246,232.3a5.638,5.638,0,0,0-2.189,4.727,5.1,5.1,0,0,0,2.365,4.265,27.2,27.2,0,0,0,7.8,3.322,35.826,35.826,0,0,1,8.72,3.674,13.873,13.873,0,0,1,4.824,4.728,12.314,12.314,0,0,1,1.533,6.245,11.07,11.07,0,0,1-4.456,9.248q-4.457,3.433-12.091,3.433a22.735,22.735,0,0,1-9.28-1.868,15.589,15.589,0,0,1-6.58-5.159,12.851,12.851,0,0,1-2.348-7.667h8.081a7.522,7.522,0,0,0,2.62,6.134q2.619,2.172,7.507,2.172,4.215,0,6.341-1.709A5.514,5.514,0,0,0,260.968,259.327Z"/><path class="bd0317c0-ddb0-444f-b4c8-78f131d64d0e" d="M309.747,231.313h-14.5v39.994h-8.017V231.313H272.852V224.8h36.9Z"/><path class="bd0317c0-ddb0-444f-b4c8-78f131d64d0e" d="M338.051,260.478H320.034l-3.769,10.829h-8.4l17.57-46.511h7.251l17.6,46.511h-8.433ZM322.3,253.961h13.48l-6.74-19.294Z"/><path class="bd0317c0-ddb0-444f-b4c8-78f131d64d0e" d="M390.375,256.165q-.7,7.443-5.494,11.611t-12.746,4.169a18.146,18.146,0,0,1-9.791-2.634,17.29,17.29,0,0,1-6.532-7.492,27.008,27.008,0,0,1-2.4-11.276V246.2a27.22,27.22,0,0,1,2.331-11.595,17.59,17.59,0,0,1,6.692-7.731,18.684,18.684,0,0,1,10.08-2.715q7.7,0,12.394,4.168t5.462,11.8h-8.05q-.576-5.014-2.923-7.235t-6.883-2.22a9.439,9.439,0,0,0-8.1,3.852q-2.827,3.853-2.891,11.3v4.125q0,7.545,2.7,11.51a8.956,8.956,0,0,0,7.906,3.965q4.76,0,7.155-2.14t3.035-7.124Z"/><path class="bd0317c0-ddb0-444f-b4c8-78f131d64d0e" d="M410.946,251.214l-5.27,5.59v14.5h-8.082V224.8h8.082v21.817l4.472-5.526L423.756,224.8h9.775l-17.282,20.6,18.272,25.908h-9.583Z"/></svg>