<svg id="content" xmlns="http://www.w3.org/2000/svg" viewBox="0 0 738.8741 156.94705"><defs><style>.cls-1{fill:#174bd1;}</style></defs><title>xLearn</title><path class="cls-1" d="M487.23292,50.14765c-1.22024-7.60313,3.28623-7.11293,7.78519-7.0111,6.62746.15,13.26431.16334,19.89021-.01782,2.95017-.08065,3.92217.70576,3.27046,3.736q-10.79025,50.17752-21.39619,100.39448c-.58381,2.771-1.8795,3.38987-4.47921,3.31778q-9.49694-.26334-19.00554-.00374c-2.73675.07273-4.15988-.484-3.73887-3.58693a50.84782,50.84782,0,0,0,.046-6.26095c-7.21407,4.56707-14.21829,8.46921-22.15548,10.25981a66.2624,66.2624,0,0,1-32.76518-.5523c-16.51713-4.60539-24.94364-17.19243-23.59918-35.113,1.37207-18.28883,7.284-34.99025,18.38878-49.73144,14.67017-19.4741,41.14652-29.06007,63.56151-22.90532a35.577,35.577,0,0,1,6.91634,2.78331C482.14793,46.59826,484.142,48.12891,487.23292,50.14765Zm-42.80864,80.13569c10.15729-.08164,17.25364-2.5134,24.91884-8.11972a6.62271,6.62271,0,0,0,2.85215-4.21925c2.895-13.94131,5.87865-27.86425,8.74883-41.81057.3041-1.47768.93573-3.07513-.52832-4.55483-2.39087-2.41643-4.7656-4.76646-7.99257-6.09305-11.78682-4.84556-27.26345-1.23442-35.34594,8.67288-10.06723,12.34-14.313,26.79592-14.261,42.54614.02,6.04575,3.16246,9.90859,8.85972,11.77992A37.3029,37.3029,0,0,0,444.42428,130.28334Z"/><path class="cls-1" d="M659.76191,52.93228c9.09692-4.97717,17.95894-8.7642,27.52237-10.66937a59.85779,59.85779,0,0,1,25.40538.11292c14.87043,3.42166,22.5487,14.14719,20.98468,29.42075-1.59132,15.54083-5.9296,30.55136-8.936,45.81874-1.95707,9.93873-4.29488,19.80217-6.294,29.73318-.44929,2.23213-1.11655,3.262-3.61483,3.21689q-12.37239-.22329-24.75114-.00993c-2.78625.04361-3.03723-.82125-2.48247-3.37556,4.76782-21.95476,9.34937-43.94987,14.05792-65.91766a28.59825,28.59825,0,0,0,.49669-7.46389c-.26059-5.309-2.85372-8.63814-8.03229-9.6504-13.89292-2.71563-26.10243,1.50252-37.30474,9.51605-1.21679.8704-1.277,2.189-1.5557,3.49733-4.95491,23.26468-9.99676,46.511-14.87124,69.79243-.553,2.64135-1.389,3.70459-4.25586,3.62782-7.80333-.209-15.62123-.24088-23.4224.00457-3.52432.1109-3.83581-1.27016-3.21455-4.14955q9.94014-46.07247,19.78663-92.16512c.769-3.57768.60653-8.32651,2.84729-10.35817,2.50347-2.26994,7.30945-.61953,11.11007-.71467,4.12286-.10319,8.26342.17894,12.37176-.08588,3.43143-.22115,4.90865.73927,4.20259,4.37A31.99192,31.99192,0,0,0,659.76191,52.93228Z"/><path class="cls-1" d="M335.70153,107.40054c-11.93717.00031-23.87572.09827-35.81057-.06808-3.01087-.042-3.72859.93514-3.55136,3.77937.61789,9.91617,5.71639,15.6366,16.14167,17.3587,16.07633,2.65561,31.96712,1.356,47.665-2.72881,4.52714-1.178,4.4981-1.30255,3.505,3.45708-.83992,4.02557-2.09867,8.01691-2.41888,12.08272-.317,4.02454-2.48965,5.45662-5.89093,6.39458-20.92731,5.771-41.98677,8.18116-62.83322.34786-15.287-5.7443-23.37676-17.402-23.71581-33.84648-.41794-20.26836,5.44049-38.65812,18.34284-54.37517,8.82415-10.7492,21.089-15.70317,34.53158-17.71839,11.73269-1.75887,23.514-1.97741,34.99276,1.65953,17.08147,5.41208,26.07212,19.85782,23.32551,37.57958-1.19149,7.688-3.01775,15.27578-4.40437,22.93647-.44878,2.47929-1.49519,3.24559-4.06864,3.21122C359.57709,107.31133,347.6387,107.40024,335.70153,107.40054Zm-9.73268-18.68338,17.67837,0c9.153,0,9.153,0,10.05122-9.135.83426-8.48443-2.898-13.60987-11.27961-15.7593-4.95665-1.27112-9.97292-.964-14.94261-.6288-13.94422.94051-22.36234,8.22-26.00222,21.663-.83215,3.07335-.61679,4.04719,2.84125,3.93243C311.526,88.55021,318.75019,88.71708,325.96885,88.71716Z"/><path class="cls-1" d="M142.32357,43.17524c-4.2646,4.49511-7.76536,8.23555-11.32066,11.92341-12.06369,12.51345-24.07809,25.07592-36.28036,37.453-2.42591,2.46065-3.00086,4.11587-1.13427,7.40954,8.69023,15.33421,17.00194,30.883,25.438,46.36106.6202,1.13789,1.15312,2.32336,2.07216,4.18764-9.41062,0-18.30663-.33453-27.1603.13278-4.857.25636-7.26914-1.40382-9.37483-5.67419-4.47127-9.0678-9.58948-17.81657-14.42343-26.66133-2.89746,2.6585-5.76322,5.0678-8.37518,7.72645-7.32913,7.46019-14.5549,15.02194-21.81784,22.54709a4.92936,4.92936,0,0,1-3.745,1.95886c-10.12116-.06519-20.243-.0322-31.3381-.0322,1.558-1.75737,2.52138-2.9417,3.58442-4.0286,15.55275-15.90184,31.07155-31.83754,46.737-47.62769,2.133-2.15,2.45235-3.60184.92892-6.32673C47.8716,77.78132,39.87653,62.89991,31.804,48.062c-.7589-1.3949-1.46357-2.81932-2.5157-4.853,10.91574,0,21.3018.00417,31.68786-.00345,2.13352-.00157,2.49613,1.83445,3.22216,3.17731,4.94718,9.15035,9.83335,18.33368,13.86887,25.87909A244.75926,244.75926,0,0,0,96.08651,55.15778c3.452-4.03685,12.52629-12.27751,12.52629-12.27751"/><path class="cls-1" d="M194.6061,150.50987c-15.90441-.00005-31.809-.03379-47.71306.03347-2.6212.01108-4.00921-.05917-3.25515-3.552Q158.64209,77.49036,173.318,7.91876c.52631-2.48644,1.49317-3.33708,4.07308-3.27936,7.801.17454,15.61628.26814,23.40987-.02935,3.54375-.13526,4.11952.87977,3.41719,4.11274-5.42091,24.95407-10.70382,49.93807-16.05788,74.90671-2.8,13.05771-5.59109,26.1181-8.53608,39.14339-.71244,3.151-.29876,4.2086,3.33929,4.17631,21.35146-.18953,42.70587-.02464,64.05813-.16071,3.54653-.0226,4.606.57687,3.47312,4.34842a115.351,115.351,0,0,0-3.32873,15.48123c-.48366,3.116-1.70271,4.00651-4.84763,3.972C226.41592,150.41577,210.5105,150.50993,194.6061,150.50987Z"/><path class="cls-1" d="M572.95954,54.14482c12.70339-6.803,25.66177-10.32251,39.04169-12.63157,2.90764-.5018,2.97457.47356,2.543,2.56782-1.186,5.755-2.51286,11.48426-3.54758,17.266-.586,3.27522-3.14163,3.05333-5.31881,3.43479a180.10372,180.10372,0,0,0-32.25,8.7572,7.30353,7.30353,0,0,0-5.23866,6.12634c-4.64718,22.43664-9.61083,44.80767-14.27631,67.24063-.56005,2.69308-1.33272,3.72916-4.17289,3.66555q-11.93242-.26726-23.87424-.00437c-2.8725.06009-3.53538-.74016-2.93009-3.54592Q533.66721,97.272,544.16511,47.47272c.7019-3.34648,1.89855-4.55726,5.43464-4.39215,6.91218.32276,13.85238.20025,20.77611.044,2.81988-.06366,3.6618.76519,3.06207,3.58179C572.98529,48.832,573.12908,51.08471,572.95954,54.14482Z"/></svg>