<svg id="Layer_1" data-name="Layer 1" xmlns="http://www.w3.org/2000/svg" viewBox="0 0 1920 524.5617"><defs><style>.cls-1{fill:#161616;}.cls-2{fill:#181818;}.cls-3{fill:#171717;}.cls-4{fill:#fcfcfc;}.cls-5{fill:#727272;}.cls-6{fill:#f9f9f9;}</style></defs><path class="cls-1" d="M491.90745,23.45134c.11473,1.728.32973,3.456.32991,5.184q.023,231.83576.01373,463.67152c0,6.566-.00343,6.56349-6.76768,6.56346q-231.92494-.00078-463.84988-.0007c-6.093,0-6.09828-.00087-6.09832-6.09952q-.00148-231.598-.016-463.196c-.00022-2.04095-.22984-4.08188-.35239-6.12282Zm-237.47258,182.934c-1.20619-1.01042-2.497-1.93646-3.60628-3.04354q-50.66643-50.56723-101.24246-101.22428c-2.75095-2.76236-4.35222-2.95265-7.1775-.08588-15.45152,15.67846-30.98683,31.2796-46.7692,46.625-3.57014,3.47128-3.085,5.27781.17744,8.51635,33.18905,32.94574,66.16235,66.10785,99.37962,99.02506,3.40313,3.3724,3.62653,5.02951.11208,8.52118-33.50872,33.29138-66.78141,66.81909-100.22929,100.17173-2.65579,2.64823-3.103,4.13326-.16667,6.989q23.84787,23.19288,47.25663,46.83219c2.94378,2.97591,4.56316,3.05089,7.52093.06931Q186.35,381.82594,223.296,345.1532c10.20773-10.15344,20.02632-20.70322,30.78777-30.29734,1.17182,1.06254,2.39015,2.07863,3.50865,3.19438q49.8703,49.7483,99.72213,99.515c4.36915,4.36074,4.35733,4.35133,8.83408-.10685,15.06444-15.0021,30.03844-30.097,45.28568-44.91207,3.2505-3.15833,2.88756-4.80521-.12373-7.79262q-49.673-49.27863-99.10127-98.80279c-4.90876-4.90059-4.92136-5.52646-.1326-10.30031q49.88973-49.73437,99.83833-99.40971c2.62914-2.60782,2.77483-4.10012.04993-6.77649q-23.43072-23.0137-46.47451-46.41686c-3.1016-3.15938-4.85854-2.61151-7.62537.23028-9.628,9.88884-19.47232,19.56832-29.25519,29.30663Q291.53147,169.494,254.43487,206.38533Z"/><path class="cls-2" d="M1559.47039,260.095q.00018-78.45083.00116-156.90167c.00012-6.532.0064-6.53433,6.4459-6.53438q115.342-.0009,230.68393-.10309c4.39065-.00812,5.66444,1.12052,5.603,5.49262q-.35127,24.95672-.00442,49.92074c.05727,4.29151-1.034,5.63872-5.55712,5.62577q-85.31436-.24439-170.62963-.10708c-6.19716.00017-6.2024.00856-6.20322,6.298-.00256,20.28627.12361,40.57391-.10056,60.85772-.0476,4.30916,1.3413,5.27305,5.43561,5.26221,49.25036-.13048,98.50131-.013,147.75132-.19874,4.82327-.01817,6.26339,1.18093,6.17563,6.05164q-.44136,24.47824.00477,48.96821c.08531,4.64979-1.581,5.46852-5.75534,5.45819-49.25048-.12188-98.50154-.01843-147.75178-.17834-4.63705-.015-5.908,1.33794-5.85881,5.89064q.33678,31.139.01036,62.28333c-.03934,4.20867,1.274,5.36009,5.42432,5.35126,57.03522-.12148,114.071-.03457,171.10625-.17518,4.45164-.011,6.05144.96692,5.96938,5.71709-.28725,16.63615-.19926,33.28106-.04283,49.9207.03422,3.64885-.90832,4.9099-4.80721,4.90418q-116.2951-.17085-232.59032.012c-4.7915.00856-5.38416-1.95164-5.3766-5.96341Q1559.55361,339.02143,1559.47039,260.095Z"/><path class="cls-3" d="M848.11449,260.29212q0-78.93937-.09533-157.87846c-.01251-4.45266.96663-5.88633,5.71466-5.86584,44.80885.19341,89.61892.09358,134.42865.12144,40.1796.025,77.23105,27.3889,89.08951,65.73186,15.27549,49.39179-9.569,100.092-57.87638,117.86862-3.31519,1.22-3.66984,2.41828-2.05025,5.43251q35.44444,65.96649,70.70882,132.02926c2.87825,5.37986,2.792,5.52743-3.34929,5.53007-17.95564.00778-35.91257-.10975-53.86588.09657-3.71837.0427-5.70238-1.18506-7.40461-4.39946-22.85527-43.15706-45.864-86.23323-68.69075-129.40522-1.74518-3.30061-3.75468-4.37249-7.40124-4.29371-11.1178.24011-22.25015.29793-33.36416-.0171-4.43587-.12571-5.62178,1.207-5.60572,5.58145.15486,42.16381.00174,84.32891.21591,126.49223.0249,4.898-1.27263,6.15049-6.08566,6.062q-24.30348-.44664-48.6194-.00729c-4.49139.07527-5.87814-.9583-5.862-5.67575C848.18083,365.22808,848.11449,312.76,848.11449,260.29212Zm102.25813-34.66163q17.86032,0,35.72058-.005a35.78161,35.78161,0,0,0,11.26026-1.58224c16.30171-5.39551,26.4044-21.36851,23.87416-37.59545a34.82078,34.82078,0,0,0-34.445-29.48709c-24.60679-.12868-49.21515.03181-73.82188-.1073-3.575-.02023-4.62552,1.06756-4.59963,4.59953q.21816,29.69312-.00558,59.3883c-.03044,3.7464,1.10275,4.9279,4.86907,4.866C925.60428,225.50384,937.98953,225.63072,950.37262,225.63049Z"/><path class="cls-2" d="M1384.26948,96.658c38.6068.00052,77.21418.08327,115.81993-.11058,4.51693-.02268,5.64465,1.32281,5.59216,5.60376-.20555,16.79733-.15318,33.59917-.02689,50.398a12.426,12.426,0,0,1-3.1335,8.59083q-81.79693,98.66669-163.42614,197.47151c-.94533,1.14373-2.84031,2.25573-2.1082,3.93979.77377,1.77962,2.82866.86144,4.2888.86263q79.12015.06565,158.24-.06969c4.796-.01527,6.28306,1.21156,6.19308,6.08593-.29551,16.002-.10894,32.01276-.11231,48.02015-.00128,6.36073-.00675,6.36227-6.18006,6.36236q-115.34394.00122-230.68766.09126c-4.43033.00717-6.09241-.93435-6.01163-5.71207.284-16.795.15329-33.598.06972-50.39743a10.51524,10.51524,0,0,1,2.53478-7.31515q55.10039-66.124,110.06168-132.36314,26.89436-32.38039,53.73447-64.80558a21.67531,21.67531,0,0,0,1.762-2.24021c.54053-.86289,1.87985-1.52076,1.12074-2.81655-.56287-.96076-1.6736-.71657-2.59612-.75314-1.11049-.044-2.2239-.01316-3.336-.01315-52.429.00058-104.85839-.06951-157.28671.11763-4.94455.01765-6.14909-1.40568-6.06459-6.161.28749-16.16079.10708-32.32981.1115-48.49569.00175-6.29222.00931-6.29122,6.09707-6.29117Q1326.59747,96.65778,1384.26948,96.658Z"/><path class="cls-2" d="M570.41066,260.30408q0-78.68575.00117-157.37149c.00023-6.28271.00751-6.27583,6.155-6.27554q66.96275.00315,133.92548.00482c42.07621.01509,79.51443,29.15614,90.45689,69.57691a94.54722,94.54722,0,0,1-61.666,114.76874,84.25125,84.25125,0,0,1-26.6412,4.37888c-25.25951-.10432-50.52083.08543-75.77872-.14531-4.75-.04336-6.224,1.10364-6.201,6.03282.19746,42.155.05167,84.31152.20688,126.46686.01577,4.29082-.99573,5.70815-5.49776,5.63521q-24.77687-.40167-49.56328.00072c-4.55831.07443-5.49817-1.446-5.48706-5.70129Q570.52723,338.99016,570.41066,260.30408Zm102.37616-34.67671q17.63283,0,35.2656-.008a37.11318,37.11318,0,0,0,12.20158-1.689c16.78975-5.82764,26.0859-21.71373,23.12181-39.3873-2.56819-15.31285-17.48519-27.49993-34.19771-27.58594-24.62168-.1267-49.24489.02942-73.86652-.09934-3.5294-.01847-4.69524,1.02233-4.6701,4.58916q.20933,29.71113-.01554,59.424c-.03515,3.89259,1.3612,4.86992,4.99,4.82224C648.00434,225.53021,660.39622,225.63069,672.78682,225.62737Z"/><path class="cls-3" d="M1205.55679,260.37561q0,78.66069.08485,157.32122c.01048,4.21546-.8876,5.75726-5.47239,5.68016-16.82978-.28289-33.66865-.21909-50.501-.02786-3.76353.04275-4.87833-1.00623-4.87495-4.80515q.14211-158.50953-.00547-317.01915c-.004-4.07846,1.34572-4.99418,5.19526-4.94811,16.51448.19763,33.037.28874,49.54727-.04064,4.87321-.09721,6.14561,1.22677,6.13048,6.04315C1205.49475,155.17761,1205.55691,207.7767,1205.55679,260.37561Z"/><path class="cls-2" d="M1844.44165,126.80607c-.98676-15.72191,11.20434-29.74626,29.72786-30.09508,17.211-.32413,30.153,12.9378,30.12824,30.42829-.02456,17.368-12.56833,29.518-29.99951,29.929C1858.55241,157.43949,1843.06858,144.45743,1844.44165,126.80607Zm30.00161-24.04775c-13.86831-.02669-24.18225,10.427-24.11777,24.44431.06437,13.94994,10.15053,24.36422,23.67211,24.442,13.72445.07894,24.56692-10.44954,24.26465-24.43843C1897.93647,112.1293,1886.97714,102.74336,1874.44326,102.75832Z"/><path class="cls-4" d="M254.08375,314.85586c-10.76147,9.59412-20.58006,20.1439-30.78779,30.29734q-36.90689,36.7105-73.60579,73.62828c-2.95777,2.98158-4.57715,2.9066-7.52093-.06931Q118.77605,395.06329,94.91261,371.88c-2.93638-2.85577-2.48912-4.3408.16667-6.989,33.44788-33.35264,66.72057-66.88035,100.22929-100.17173,3.51445-3.49167,3.291-5.14878-.11208-8.52118-33.21727-32.91721-66.19057-66.07932-99.37962-99.02506-3.26246-3.23854-3.74758-5.04507-.17744-8.51635,15.78237-15.3454,31.31768-30.94654,46.7692-46.625,2.82528-2.86677,4.42655-2.67648,7.1775.08588q50.51133,50.72111,101.24246,101.22428c1.10926,1.10708,2.40009,2.03312,3.60628,3.04354-.15522.98969.69233,1.28839,1.22954,1.82541,16.26124,16.25666,32.45916,32.577,48.81837,48.73491,2.89949,2.86378,2.58337,4.74715-.18125,7.36829-5.86871,5.56413-11.52191,11.3562-17.21362,17.104Q270.55853,298.11,254.08375,314.85586Z"/><path class="cls-5" d="M254.08375,314.85586q16.49914-16.72187,33.00416-33.43795c5.69171-5.74777,11.34491-11.53984,17.21362-17.104,2.76462-2.62114,3.08074-4.50451.18125-7.36829-16.35921-16.15787-32.55713-32.47825-48.81837-48.73491-.53721-.537-1.38476-.83572-1.22954-1.82541q37.08866-36.89928,74.175-73.80084c9.78287-9.73831,19.62723-19.41779,29.25519-29.30663,2.76683-2.84179,4.52377-3.38966,7.62537-.23028q23.00639,23.43507,46.47451,46.41686c2.7249,2.67637,2.57921,4.16867-.04993,6.77649q-50.01479,49.60892-99.83833,99.40971c-4.78876,4.77385-4.77616,5.39972.1326,10.30031q49.51729,49.43484,99.10127,98.80279c3.01129,2.98741,3.37423,4.63429.12373,7.79262-15.24724,14.815-30.22124,29.91-45.28568,44.91207-4.47675,4.45818-4.46493,4.46759-8.83408.10685q-49.85725-49.76133-99.72213-99.515C256.47388,316.93449,255.25555,315.9184,254.08375,314.85586Z"/><path class="cls-6" d="M1874.44326,102.75832c12.53388-.015,23.49321,9.371,23.819,24.44786.30227,13.98889-10.5402,24.51737-24.26465,24.43843-13.52158-.07776-23.60774-10.492-23.67211-24.442C1850.261,113.18535,1860.575,102.73163,1874.44326,102.75832Zm14.61438,39.31681a59.92126,59.92126,0,0,0-3.64259-5.94027c-2.20318-2.79932-2.7515-4.89.27457-7.87451,3.20345-3.15949,2.75615-7.74352,1.15739-11.61a9.40308,9.40308,0,0,0-8.83134-6.14208c-3.956-.08132-7.915-.03679-11.87079-.12712-2.148-.04906-3.16772.71471-3.14712,3.02273.07752,8.68668.09463,17.37517-.00349,26.06143-.03375,2.981,1.63367,3.20608,3.9636,3.24341,2.32307.03719,3.66646-.55436,3.4928-3.14769-.09462-1.41483-.02048-2.84209.00338-4.26331.01932-1.14653.15154-2.2638,1.57769-2.52657a2.79062,2.79062,0,0,1,3.021.83748,20.7697,20.7697,0,0,1,2.64279,3.90082C1879.8379,142.46384,1883.528,143.64369,1889.05764,142.07513Z"/><path class="cls-2" d="M1889.05764,142.07513c-5.52965,1.56856-9.21974.38871-11.36216-4.56568a20.7697,20.7697,0,0,0-2.64279-3.90082,2.79062,2.79062,0,0,0-3.021-.83748c-1.42615.26277-1.55837,1.38-1.57769,2.52657-.02386,1.42122-.098,2.84848-.00338,4.26331.17366,2.59333-1.16973,3.18488-3.4928,3.14769-2.32993-.03733-3.99735-.26239-3.9636-3.24341.09812-8.68626.081-17.37475.00349-26.06143-.0206-2.308.99911-3.07179,3.14712-3.02273,3.9558.09033,7.91475.0458,11.87079.12712a9.40308,9.40308,0,0,1,8.83134,6.14208c1.59876,3.86648,2.04606,8.45051-1.15739,11.61-3.02607,2.98449-2.47775,5.07519-.27457,7.87451A59.92126,59.92126,0,0,1,1889.05764,142.07513Zm-14.64674-24.761c-2.34063-.32092-4.17206.38011-4.04775,4.005.09451,2.76118.49,4.6632,3.8237,4.43192,2.89792-.20106,6.18378-.25685,6.37012-4.03217C1880.72341,118.34455,1878.04745,117.37962,1874.4109,117.31412Z"/><path class="cls-6" d="M1874.4109,117.31412c3.63655.0655,6.31251,1.03043,6.14607,4.40477-.18634,3.77532-3.4722,3.83111-6.37012,4.03217-3.33369.23128-3.72919-1.67074-3.8237-4.43192C1870.23884,117.69423,1872.07027,116.9932,1874.4109,117.31412Z"/></svg>