<svg xmlns="http://www.w3.org/2000/svg" role="img" viewBox="-24.74 -24.74 1286.48 373.48"><g data-name="Layer 2"><path fill="#06aff2" d="M227 54.07L258.35 0H20.26A18.06 18.06 0 0 0 2.2 18.06v54.19h193.2A36.51 36.51 0 0 0 227 54.07zm-64.11 111.11L121.35 93 2.44 298a18.07 18.07 0 0 0 15.65 27.09h237.18l-41.67-72.23H112.1zM1006.29 271l-31.38 54.07h244.29a18.06 18.06 0 0 0 18.06-18.07v-54.14h-199.39a36.51 36.51 0 0 0-31.58 18.14zm64.08-111.08l41.54 72.14 118.91-205A18.06 18.06 0 0 0 1215.18 0H978l41.67 72.25h101.51zM311.15 0h54.57v307.22a18.47 18.47 0 0 1-18.27 17.89h-54.36v-307A18.07 18.07 0 0 1 311.15 0zM608.3 271l31.08 54.12h-201v-307A18.07 18.07 0 0 1 456.41 0h54.18v252.86H577A36.11 36.11 0 0 1 608.3 271zm217.88 0l31.09 54.12h-201v-307A18.06 18.06 0 0 1 674.3 0h54.18v252.86h66.38A36.11 36.11 0 0 1 826.18 271zM892.57 0h54.18v307a18.07 18.07 0 0 1-18.06 18.07H874.5v-307A18.07 18.07 0 0 1 892.57 0z" data-name="Layer 1"/></g></svg>