<svg id="Layer_1" data-name="Layer 1" xmlns="http://www.w3.org/2000/svg" viewBox="0 0 595.276 229.16667"><defs><style>.cls-1{fill:#4fc4f9;}</style></defs><title>ZILLIZ</title><path class="cls-1" d="M42.6485,193.80393a10.45785,10.45785,0,0,0,1.96383-6.32813q0-5.71464-3.53895-8.70465-3.53712-2.99-10.10475-2.98995h-12.87v38.87518h5.15463V198.9291h9.13022L40.821,214.65638h5.501v-.32057l-9.132-16.501a11.71091,11.71091,0,0,0,5.45859-4.03088m-11.51958.934H23.25327V179.97231h7.848a9.10582,9.10582,0,0,1,6.20841,1.95464,7.04748,7.04748,0,0,1,2.14807,5.536,6.69819,6.69819,0,0,1-2.25492,5.29647,8.889,8.889,0,0,1-6.07389,1.97853"/><path class="cls-1" d="M63.597,185.234a11.52266,11.52266,0,0,0-6.39448,1.90853,12.78148,12.78148,0,0,0-4.59272,5.28546,17.345,17.345,0,0,0-1.64143,7.67665v.90639q0,6.46352,3.68265,10.32213A12.63142,12.63142,0,0,0,64.2104,215.189q7.26217,0,10.89325-5.58016L72.086,207.25994a11.11841,11.11841,0,0,1-3.176,2.82972,8.5989,8.5989,0,0,1-4.43246,1.06848,7.84151,7.84151,0,0,1-6.0739-2.63076,10.25557,10.25557,0,0,1-2.49625-6.90107H75.47764v-2.05595q0-6.91393-3.12449-10.62792Q69.23057,185.234,63.597,185.234m6.94161,12.33383H56.06765a10.57572,10.57572,0,0,1,2.50915-6.1015,6.58732,6.58732,0,0,1,5.02015-2.17385,6.19832,6.19832,0,0,1,4.91144,2.06883,9.40345,9.40345,0,0,1,2.03017,5.83259Z"/><path class="cls-1" d="M85.33145,175.24671a2.75677,2.75677,0,0,0-2.17573.82718,2.95007,2.95007,0,0,0-.735,2.0302,2.84876,2.84876,0,0,0,.735,2.00248,2.80141,2.80141,0,0,0,2.17573.79958,2.67094,2.67094,0,0,0,2.93653-2.80206,2.92557,2.92557,0,0,0-.748-2.0302,2.80152,2.80152,0,0,0-2.18857-.82718"/><rect class="cls-1" x="82.8214" y="185.76668" width="4.93908" height="28.88835"/><path class="cls-1" d="M110.35125,185.23337A10.5233,10.5233,0,0,0,101.7,189.39873l-.16026-3.63109H96.86781V214.656h4.93908V194.0707a8.69706,8.69706,0,0,1,2.82969-3.364,7.12681,7.12681,0,0,1,4.21874-1.284,5.72812,5.72812,0,0,1,4.36616,1.49773,6.65575,6.65575,0,0,1,1.42773,4.61856v19.117h4.93908V195.56472q-.08016-10.33222-9.237-10.33135"/><polygon class="cls-1" points="137.772 207.954 130.43 185.768 125.384 185.768 135.85 214.656 139.614 214.656 149.975 185.768 144.927 185.768 137.772 207.954"/><path class="cls-1" d="M166.95648,185.234a11.53151,11.53151,0,0,0-6.39448,1.90853,12.78148,12.78148,0,0,0-4.59272,5.28546,17.345,17.345,0,0,0-1.64143,7.67665v.90639q0,6.46352,3.6845,10.32213a12.6245,12.6245,0,0,0,9.55758,3.85581q7.26218,0,10.89508-5.58016l-3.01944-2.34886a11.11841,11.11841,0,0,1-3.176,2.82972,8.5942,8.5942,0,0,1-4.43246,1.06848,7.84694,7.84694,0,0,1-6.0739-2.63076,10.26475,10.26475,0,0,1-2.49625-6.90107h19.57025v-2.05595q0-6.91393-3.12449-10.62792-3.12258-3.70848-8.7562-3.70845m6.94161,12.33383H159.42718a10.58777,10.58777,0,0,1,2.50915-6.1015,6.59012,6.59012,0,0,1,5.02015-2.17385,6.19575,6.19575,0,0,1,4.91144,2.06883,9.39245,9.39245,0,0,1,2.03017,5.83259Z"/><path class="cls-1" d="M199.23808,185.23337a10.52333,10.52333,0,0,0-8.65125,4.16536l-.16025-3.63109h-4.672V214.656h4.93908V194.0707a8.69723,8.69723,0,0,1,2.82969-3.364,7.12686,7.12686,0,0,1,4.21875-1.284,5.72811,5.72811,0,0,1,4.36615,1.49773A6.6558,6.6558,0,0,1,203.536,195.539v19.117h4.93907V195.56472q-.08016-10.33222-9.237-10.33135"/><path class="cls-1" d="M224.55006,210.129a4.00734,4.00734,0,0,1-.72036-2.60675V189.58612H229.222v-3.81905H223.8297v-6.995h-4.93905v6.995H213.631v3.81905h5.25962v17.91405a8.59872,8.59872,0,0,0,1.682,5.687,6.14729,6.14729,0,0,0,4.99251,2.00253,14.41115,14.41115,0,0,0,3.79133-.53055V210.678a12.08681,12.08681,0,0,1-2.35072.32057,3.03769,3.03769,0,0,1-2.45568-.86957"/><path class="cls-1" d="M271.65106,178.025a17.66123,17.66123,0,0,0-8.97176-2.24389H251.70686v38.87523h10.75875a18.79221,18.79221,0,0,0,9.17257-2.2715,14.93724,14.93724,0,0,0,6.061-6.35394,20.8396,20.8396,0,0,0,2.12229-9.63865v-2.48154a20.78259,20.78259,0,0,0-2.14995-9.506,15.16992,15.16992,0,0,0-6.02049-6.37969m3.09688,18.2493q0,6.8145-3.29765,10.50086-3.29669,3.68908-9.22419,3.68821H256.832V179.97226h5.98q5.71466.05532,8.8262,3.72875,3.10881,3.67526,3.10976,10.30189Z"/><path class="cls-1" d="M309.99332,194.60514a9.01332,9.01332,0,0,0-2.9366-6.87713q-2.83243-2.49537-7.824-2.49442a13.97725,13.97725,0,0,0-5.77919,1.17536,10.454,10.454,0,0,0-4.16531,3.18892,6.8144,6.8144,0,0,0-1.53646,4.18009h4.96674a3.929,3.929,0,0,1,1.78884-3.23131,7.19373,7.19373,0,0,1,4.43247-1.33564,6.22775,6.22775,0,0,1,4.56509,1.53461,5.54783,5.54783,0,0,1,1.54934,4.12477v2.2697h-4.80645q-6.22038,0-9.65158,2.49621a8.16742,8.16742,0,0,0-3.43027,7.00982,7.81715,7.81715,0,0,0,2.73577,6.1273,10.20645,10.20645,0,0,0,7.00975,2.41706,11.0177,11.0177,0,0,0,8.222-3.57954,10.447,10.447,0,0,0,.6945,3.04527h5.17857v-.42739a16.26213,16.26213,0,0,1-1.01321-6.32813Zm-4.93908,11.9617a7.2666,7.2666,0,0,1-3.01761,3.12078,8.66351,8.66351,0,0,1-4.40486,1.203,5.95006,5.95006,0,0,1-3.97742-1.308,4.494,4.494,0,0,1-1.54934-3.63109q0-5.314,9.07678-5.31306h3.87245Z"/><path class="cls-1" d="M326.36062,210.129a4.00734,4.00734,0,0,1-.72036-2.60675V189.58612h5.39227v-3.81905h-5.39227v-6.995h-4.93908v6.995h-5.25959v3.81905h5.25959v17.91405a8.59888,8.59888,0,0,0,1.682,5.687,6.14739,6.14739,0,0,0,4.99254,2.00253,14.411,14.411,0,0,0,3.79132-.53055V210.678a12.08926,12.08926,0,0,1-2.34886.32057,3.042,3.042,0,0,1-2.45753-.86957"/><path class="cls-1" d="M360.00561,194.60514a9.01444,9.01444,0,0,0-2.9384-6.87713q-2.83243-2.49537-7.8222-2.49442a13.97974,13.97974,0,0,0-5.781,1.17536,10.454,10.454,0,0,0-4.1653,3.18892,6.81435,6.81435,0,0,0-1.53647,4.18009h4.96859a3.93164,3.93164,0,0,1,1.787-3.23131,7.19916,7.19916,0,0,1,4.43427-1.33564,6.226,6.226,0,0,1,4.56329,1.53461,5.54783,5.54783,0,0,1,1.54934,4.12477v2.2697h-4.80459q-6.22317,0-9.65344,2.49621a8.16742,8.16742,0,0,0-3.43027,7.00982,7.81715,7.81715,0,0,0,2.73577,6.1273,10.20645,10.20645,0,0,0,7.00975,2.41706,11.01769,11.01769,0,0,0,8.222-3.57954,10.44729,10.44729,0,0,0,.6945,3.04527h5.18043v-.42739a16.22734,16.22734,0,0,1-1.01327-6.32813Zm-4.94088,11.9617a7.256,7.256,0,0,1-3.01761,3.12078,8.65854,8.65854,0,0,1-4.40486,1.203,5.95342,5.95342,0,0,1-3.97742-1.308,4.494,4.494,0,0,1-1.54934-3.63109q0-5.314,9.07678-5.31306h3.87245Z"/><path class="cls-1" d="M404.955,195.792a31.87369,31.87369,0,0,0-7.58091-3.00653,19.71209,19.71209,0,0,1-6.8624-3.01025,5.01013,5.01013,0,0,1-2.01726-4.02346,5.58009,5.58009,0,0,1,2.12414-4.64245,9.34338,9.34338,0,0,1,5.91361-1.671,9.10713,9.10713,0,0,1,6.32633,2.02463,7.0996,7.0996,0,0,1,2.24384,5.55808h5.15278a10.93019,10.93019,0,0,0-1.72251-5.95415,11.75476,11.75476,0,0,0-4.858-4.27219,15.94274,15.94274,0,0,0-7.14244-1.54748,14.58646,14.58646,0,0,0-9.5447,3.00468,9.39526,9.39526,0,0,0-3.67158,7.59563,8.909,8.909,0,0,0,3.00283,6.82187q3.00659,2.76337,9.6,4.659,5.25874,1.51982,7.26033,3.08209a5.27242,5.27242,0,0,1,2.00254,4.41954,5.37593,5.37593,0,0,1-2.16283,4.51168,10.07133,10.07133,0,0,1-6.2194,1.65622,10.97629,10.97629,0,0,1-6.95634-2.04122,6.70363,6.70363,0,0,1-2.60129-5.56914H382.087a10.261,10.261,0,0,0,1.88279,6.061,12.57674,12.57674,0,0,0,5.35359,4.20584,18.28437,18.28437,0,0,0,7.47588,1.53461q6.16785,0,9.85235-2.84445a9.08011,9.08011,0,0,0,3.68451-7.568,9.76676,9.76676,0,0,0-1.32277-5.15277A11.51114,11.51114,0,0,0,404.955,195.792"/><path class="cls-1" d="M423.05894,192.00143a6.91889,6.91889,0,0,1,5.83439-2.70991,6.59509,6.59509,0,0,1,4.71245,1.80171,6.8001,6.8001,0,0,1,2.12229,4.60563H440.4a10.39858,10.39858,0,0,0-3.43027-7.5569,11.592,11.592,0,0,0-8.07644-2.90893,12.61962,12.61962,0,0,0-6.84952,1.81645,11.80419,11.80419,0,0,0-4.44534,5.0975,17.44071,17.44071,0,0,0-1.54749,7.50349v.82718q0,6.83382,3.48368,10.77348a11.90587,11.90587,0,0,0,9.38628,3.93873,12.10875,12.10875,0,0,0,5.56543-1.33559,11.27394,11.27394,0,0,0,4.2059-3.57768A8.95028,8.95028,0,0,0,440.4,205.54936h-4.672a5.63536,5.63536,0,0,1-2.19043,4.00693,7.11345,7.11345,0,0,1-4.6167,1.60089A6.95089,6.95089,0,0,1,423.046,208.462q-2.05593-2.69709-2.05595-7.68958v-.93586q0-5.12608,2.06888-7.83513"/><path class="cls-1" d="M450.09379,175.24671a2.762,2.762,0,0,0-2.17575.82718,2.94862,2.94862,0,0,0-.73318,2.0302,2.84738,2.84738,0,0,0,.73318,2.00248,2.80676,2.80676,0,0,0,2.17575.79958,2.84738,2.84738,0,0,0,2.18857-.79958,2.819,2.819,0,0,0,.74977-2.00248,2.91859,2.91859,0,0,0-.74977-2.0302,2.80149,2.80149,0,0,0-2.18857-.82718"/><rect class="cls-1" x="447.58358" y="185.76668" width="4.94093" height="28.88835"/><path class="cls-1" d="M473.00236,185.234a11.521,11.521,0,0,0-6.39262,1.90853A12.78176,12.78176,0,0,0,462.017,192.428a17.345,17.345,0,0,0-1.64143,7.67665v.90639q0,6.46352,3.6845,10.32213a12.62458,12.62458,0,0,0,9.55758,3.85581q7.26222,0,10.89508-5.58016l-3.01761-2.34886a11.174,11.174,0,0,1-3.17784,2.82972,8.59437,8.59437,0,0,1-4.43247,1.06848,7.84417,7.84417,0,0,1-6.0739-2.63076,10.26466,10.26466,0,0,1-2.49627-6.90107H484.8849v-2.05595q0-6.91393-3.12448-10.62792a10.82233,10.82233,0,0,0-8.75806-3.70845m6.94347,12.33383H465.47492a10.56337,10.56337,0,0,1,2.50914-6.1015,6.58621,6.58621,0,0,1,5.0183-2.17385,6.19951,6.19951,0,0,1,4.91327,2.06883,9.39252,9.39252,0,0,1,2.0302,5.83259Z"/><path class="cls-1" d="M505.28567,185.23337a10.52326,10.52326,0,0,0-8.65124,4.16536l-.16029-3.63109h-4.67191V214.656h4.93908V194.0707a8.69707,8.69707,0,0,1,2.82966-3.364,7.131,7.131,0,0,1,4.21877-1.284,5.72525,5.72525,0,0,1,4.36613,1.49773,6.65561,6.65561,0,0,1,1.42773,4.61856v19.117h4.94094V195.56472q-.0829-10.33222-9.23887-10.33135"/><path class="cls-1" d="M528.90223,192.00143a6.91889,6.91889,0,0,1,5.8344-2.70991,6.59513,6.59513,0,0,1,4.71245,1.80171,6.80827,6.80827,0,0,1,2.12228,4.60563h4.672a10.40531,10.40531,0,0,0-3.43027-7.5569,11.59512,11.59512,0,0,0-8.07643-2.90893,12.61077,12.61077,0,0,0-6.84953,1.81645,11.79262,11.79262,0,0,0-4.44534,5.0975,17.41392,17.41392,0,0,0-1.54934,7.50349v.82718q0,6.83382,3.48554,10.77348a11.90323,11.90323,0,0,0,9.38627,3.93873,12.11437,12.11437,0,0,0,5.56544-1.33559,11.268,11.268,0,0,0,4.204-3.57768,8.95308,8.95308,0,0,0,1.70962-4.72723h-4.672a5.63539,5.63539,0,0,1-2.19042,4.00693,7.1135,7.1135,0,0,1-4.61671,1.60089,6.94856,6.94856,0,0,1-5.87493-2.69518q-2.05593-2.69709-2.056-7.68958v-.93586q0-5.12608,2.06888-7.83513"/><path class="cls-1" d="M564.37367,185.234a11.53141,11.53141,0,0,0-6.39447,1.90853,12.76462,12.76462,0,0,0-4.5909,5.28546,17.32009,17.32009,0,0,0-1.64328,7.67665v.90639q0,6.46352,3.6845,10.32213a12.63012,12.63012,0,0,0,9.55758,3.85581q7.26222,0,10.89508-5.58016l-3.01761-2.34886a11.14918,11.14918,0,0,1-3.17784,2.82972,8.59437,8.59437,0,0,1-4.43247,1.06848,7.84688,7.84688,0,0,1-6.0739-2.63076,10.2635,10.2635,0,0,1-2.49441-6.90107h19.57021v-2.05595q0-6.91393-3.12628-10.62792-3.12264-3.70848-8.75621-3.70845m6.94162,12.33383H556.84623a10.563,10.563,0,0,1,2.50915-6.1015,6.58339,6.58339,0,0,1,5.01829-2.17385,6.1957,6.1957,0,0,1,4.91142,2.06883,9.39252,9.39252,0,0,1,2.0302,5.83259Z"/><rect class="cls-1" x="16.76559" y="11.45833" width="3.79321" height="3.80425"/><rect class="cls-1" x="21.50755" y="11.45833" width="3.79321" height="3.80425"/><rect class="cls-1" x="26.24766" y="11.45833" width="3.79321" height="3.80425"/><rect class="cls-1" x="30.98777" y="11.45833" width="3.79321" height="3.80425"/><rect class="cls-1" x="16.76559" y="16.21323" width="3.79321" height="3.8024"/><rect class="cls-1" x="21.50755" y="16.21323" width="3.79321" height="3.8024"/><rect class="cls-1" x="26.24766" y="16.21323" width="3.79321" height="3.8024"/><rect class="cls-1" x="30.98777" y="16.21323" width="3.79321" height="3.8024"/><rect class="cls-1" x="16.76559" y="20.96621" width="3.79321" height="3.80425"/><rect class="cls-1" x="21.50755" y="20.96621" width="3.79321" height="3.80425"/><rect class="cls-1" x="26.24766" y="20.96621" width="3.79321" height="3.80425"/><rect class="cls-1" x="30.98777" y="20.96621" width="3.79321" height="3.80425"/><rect class="cls-1" x="16.76559" y="25.72291" width="3.79321" height="3.80425"/><rect class="cls-1" x="21.50755" y="25.72291" width="3.79321" height="3.80425"/><rect class="cls-1" x="26.24766" y="25.72291" width="3.79321" height="3.80425"/><rect class="cls-1" x="30.98777" y="25.72291" width="3.79321" height="3.80425"/><rect class="cls-1" x="37.62543" y="11.45833" width="3.79321" height="3.80425"/><rect class="cls-1" x="42.36554" y="11.45833" width="3.79321" height="3.80425"/><rect class="cls-1" x="47.1075" y="11.45833" width="3.79321" height="3.80425"/><rect class="cls-1" x="51.84761" y="11.45833" width="3.79321" height="3.80425"/><rect class="cls-1" x="37.62543" y="16.21323" width="3.79321" height="3.8024"/><rect class="cls-1" x="42.36554" y="16.21323" width="3.79321" height="3.8024"/><rect class="cls-1" x="47.1075" y="16.21323" width="3.79321" height="3.8024"/><rect class="cls-1" x="51.84761" y="16.21323" width="3.79321" height="3.8024"/><rect class="cls-1" x="37.62543" y="20.96621" width="3.79321" height="3.80425"/><rect class="cls-1" x="42.36554" y="20.96621" width="3.79321" height="3.80425"/><rect class="cls-1" x="47.1075" y="20.96621" width="3.79321" height="3.80425"/><rect class="cls-1" x="51.84761" y="20.96621" width="3.79321" height="3.80425"/><rect class="cls-1" x="37.62543" y="25.72291" width="3.79321" height="3.80425"/><rect class="cls-1" x="42.36554" y="25.72291" width="3.79321" height="3.80425"/><rect class="cls-1" x="47.1075" y="25.72105" width="3.79321" height="3.80425"/><rect class="cls-1" x="51.84761" y="25.72291" width="3.79321" height="3.80425"/><rect class="cls-1" x="58.48339" y="11.45833" width="3.79321" height="3.80425"/><rect class="cls-1" x="63.22535" y="11.45833" width="3.79321" height="3.80425"/><rect class="cls-1" x="67.96546" y="11.45833" width="3.79321" height="3.80425"/><rect class="cls-1" x="72.70743" y="11.45833" width="3.79321" height="3.80425"/><rect class="cls-1" x="58.48339" y="16.21323" width="3.79321" height="3.8024"/><rect class="cls-1" x="63.22535" y="16.21323" width="3.79321" height="3.8024"/><rect class="cls-1" x="67.96546" y="16.21323" width="3.79321" height="3.8024"/><rect class="cls-1" x="72.70743" y="16.21323" width="3.79321" height="3.8024"/><rect class="cls-1" x="58.48339" y="20.96621" width="3.79321" height="3.80425"/><rect class="cls-1" x="63.22535" y="20.96621" width="3.79321" height="3.80425"/><rect class="cls-1" x="67.96546" y="20.96621" width="3.79321" height="3.80425"/><rect class="cls-1" x="72.70743" y="20.96621" width="3.79321" height="3.80425"/><rect class="cls-1" x="58.48339" y="25.72291" width="3.79321" height="3.80425"/><rect class="cls-1" x="63.22535" y="25.72291" width="3.79321" height="3.80425"/><rect class="cls-1" x="67.96546" y="25.72291" width="3.79321" height="3.80425"/><rect class="cls-1" x="72.70743" y="25.72105" width="3.79321" height="3.80425"/><rect class="cls-1" x="79.3432" y="11.45833" width="3.79321" height="3.80425"/><rect class="cls-1" x="84.08517" y="11.45833" width="3.79321" height="3.80425"/><rect class="cls-1" x="88.8253" y="11.45833" width="3.79321" height="3.80425"/><rect class="cls-1" x="93.56539" y="11.45833" width="3.79321" height="3.80425"/><rect class="cls-1" x="79.3432" y="16.21323" width="3.79321" height="3.8024"/><rect class="cls-1" x="84.08517" y="16.21323" width="3.79321" height="3.8024"/><rect class="cls-1" x="88.8253" y="16.21323" width="3.79321" height="3.8024"/><rect class="cls-1" x="93.56539" y="16.21323" width="3.79321" height="3.8024"/><rect class="cls-1" x="79.3432" y="20.96621" width="3.79321" height="3.80425"/><rect class="cls-1" x="84.08517" y="20.96621" width="3.79321" height="3.80425"/><rect class="cls-1" x="88.8253" y="20.96621" width="3.79321" height="3.80425"/><rect class="cls-1" x="93.56539" y="20.96621" width="3.79321" height="3.80425"/><rect class="cls-1" x="79.3432" y="25.72291" width="3.79321" height="3.80425"/><rect class="cls-1" x="84.08517" y="25.72291" width="3.79321" height="3.80425"/><rect class="cls-1" x="88.8253" y="25.72105" width="3.79321" height="3.80425"/><rect class="cls-1" x="93.56539" y="25.72291" width="3.79321" height="3.80425"/><rect class="cls-1" x="79.3432" y="32.37898" width="3.79321" height="3.80425"/><rect class="cls-1" x="84.08517" y="32.37898" width="3.79321" height="3.80425"/><rect class="cls-1" x="88.8253" y="32.37898" width="3.79321" height="3.80425"/><rect class="cls-1" x="93.56539" y="32.37898" width="3.79321" height="3.80425"/><rect class="cls-1" x="79.3432" y="37.13382" width="3.79321" height="3.8024"/><rect class="cls-1" x="84.08517" y="37.13382" width="3.79321" height="3.8024"/><rect class="cls-1" x="88.8253" y="37.13382" width="3.79321" height="3.8024"/><rect class="cls-1" x="93.56539" y="37.13382" width="3.79321" height="3.8024"/><rect class="cls-1" x="79.3432" y="41.88866" width="3.79321" height="3.8024"/><rect class="cls-1" x="84.08517" y="41.88866" width="3.79321" height="3.8024"/><rect class="cls-1" x="88.8253" y="41.88866" width="3.79321" height="3.8024"/><rect class="cls-1" x="93.56539" y="41.88866" width="3.79321" height="3.8024"/><rect class="cls-1" x="79.3432" y="46.6417" width="3.79321" height="3.80425"/><rect class="cls-1" x="84.08517" y="46.6417" width="3.79321" height="3.80425"/><rect class="cls-1" x="88.8253" y="46.6417" width="3.79321" height="3.80425"/><rect class="cls-1" x="93.56539" y="46.6417" width="3.79321" height="3.80425"/><rect class="cls-1" x="58.48339" y="53.29957" width="3.79321" height="3.80425"/><rect class="cls-1" x="63.22535" y="53.29957" width="3.79321" height="3.80425"/><rect class="cls-1" x="67.96546" y="53.29957" width="3.79321" height="3.80425"/><rect class="cls-1" x="72.70743" y="53.29957" width="3.79321" height="3.80425"/><rect class="cls-1" x="58.48339" y="58.05441" width="3.79321" height="3.80425"/><rect class="cls-1" x="63.22535" y="58.05441" width="3.79321" height="3.80425"/><rect class="cls-1" x="67.96546" y="58.05441" width="3.79321" height="3.80425"/><rect class="cls-1" x="72.70743" y="58.05441" width="3.79321" height="3.80425"/><rect class="cls-1" x="58.48339" y="62.8093" width="3.79321" height="3.8024"/><rect class="cls-1" x="63.22535" y="62.8093" width="3.79321" height="3.8024"/><rect class="cls-1" x="67.96546" y="62.8093" width="3.79321" height="3.8024"/><rect class="cls-1" x="72.70743" y="62.8093" width="3.79321" height="3.8024"/><rect class="cls-1" x="58.48339" y="67.56229" width="3.79321" height="3.80425"/><rect class="cls-1" x="63.22535" y="67.56229" width="3.79321" height="3.80425"/><rect class="cls-1" x="67.96546" y="67.56229" width="3.79321" height="3.80425"/><rect class="cls-1" x="72.70743" y="67.56229" width="3.79321" height="3.80425"/><rect class="cls-1" x="37.62543" y="74.22021" width="3.79321" height="3.80425"/><rect class="cls-1" x="42.36554" y="74.22021" width="3.79321" height="3.80425"/><rect class="cls-1" x="47.1075" y="74.22021" width="3.79321" height="3.80425"/><rect class="cls-1" x="51.84761" y="74.22021" width="3.79321" height="3.80425"/><rect class="cls-1" x="37.62543" y="78.97505" width="3.79321" height="3.80425"/><rect class="cls-1" x="42.36554" y="78.97505" width="3.79321" height="3.80425"/><rect class="cls-1" x="47.1075" y="78.97505" width="3.79321" height="3.80425"/><rect class="cls-1" x="51.84761" y="78.97505" width="3.79321" height="3.80425"/><rect class="cls-1" x="37.62543" y="83.72989" width="3.79321" height="3.8024"/><rect class="cls-1" x="42.36554" y="83.72989" width="3.79321" height="3.8024"/><rect class="cls-1" x="47.1075" y="83.72989" width="3.79321" height="3.8024"/><rect class="cls-1" x="51.84761" y="83.72989" width="3.79321" height="3.8024"/><rect class="cls-1" x="37.62543" y="88.48293" width="3.79321" height="3.80425"/><rect class="cls-1" x="42.36554" y="88.48293" width="3.79321" height="3.80425"/><rect class="cls-1" x="47.1075" y="88.48288" width="3.79321" height="3.80425"/><rect class="cls-1" x="51.84761" y="88.48293" width="3.79321" height="3.80425"/><rect class="cls-1" x="16.76559" y="95.1408" width="3.79321" height="3.80425"/><rect class="cls-1" x="21.50755" y="95.1408" width="3.79321" height="3.80425"/><rect class="cls-1" x="26.24766" y="95.1408" width="3.79321" height="3.80425"/><rect class="cls-1" x="30.98777" y="95.1408" width="3.79321" height="3.80425"/><rect class="cls-1" x="16.76559" y="99.89564" width="3.79321" height="3.80425"/><rect class="cls-1" x="21.50755" y="99.89564" width="3.79321" height="3.80425"/><rect class="cls-1" x="26.24766" y="99.89564" width="3.79321" height="3.80425"/><rect class="cls-1" x="30.98777" y="99.89564" width="3.79321" height="3.80425"/><rect class="cls-1" x="16.76559" y="104.65048" width="3.79321" height="3.8024"/><rect class="cls-1" x="21.50755" y="104.65048" width="3.79321" height="3.8024"/><rect class="cls-1" x="26.24766" y="104.65048" width="3.79321" height="3.8024"/><rect class="cls-1" x="30.98777" y="104.65048" width="3.79321" height="3.8024"/><rect class="cls-1" x="16.76559" y="109.40538" width="3.79321" height="3.8024"/><rect class="cls-1" x="21.50755" y="109.40538" width="3.79321" height="3.8024"/><rect class="cls-1" x="26.24766" y="109.40538" width="3.79321" height="3.8024"/><rect class="cls-1" x="30.98777" y="109.40538" width="3.79321" height="3.8024"/><rect class="cls-1" x="37.62543" y="116.06139" width="3.79321" height="3.80425"/><rect class="cls-1" x="42.36554" y="116.06139" width="3.79321" height="3.80425"/><rect class="cls-1" x="47.1075" y="116.06139" width="3.79321" height="3.80425"/><rect class="cls-1" x="51.84761" y="116.06139" width="3.79321" height="3.80425"/><rect class="cls-1" x="37.62543" y="120.81629" width="3.79321" height="3.8024"/><rect class="cls-1" x="42.36554" y="120.81629" width="3.79321" height="3.8024"/><rect class="cls-1" x="47.1075" y="120.81629" width="3.79321" height="3.8024"/><rect class="cls-1" x="51.84761" y="120.81629" width="3.79321" height="3.8024"/><rect class="cls-1" x="37.62543" y="125.57113" width="3.79321" height="3.8024"/><rect class="cls-1" x="42.36554" y="125.57113" width="3.79321" height="3.8024"/><rect class="cls-1" x="47.1075" y="125.57113" width="3.79321" height="3.8024"/><rect class="cls-1" x="51.84761" y="125.57113" width="3.79321" height="3.8024"/><rect class="cls-1" x="37.62543" y="130.32597" width="3.79321" height="3.8024"/><rect class="cls-1" x="42.36554" y="130.32597" width="3.79321" height="3.8024"/><rect class="cls-1" x="47.1075" y="130.32597" width="3.79321" height="3.8024"/><rect class="cls-1" x="51.84761" y="130.32597" width="3.79321" height="3.8024"/><rect class="cls-1" x="58.48339" y="116.06139" width="3.79321" height="3.80425"/><rect class="cls-1" x="63.22535" y="116.06139" width="3.79321" height="3.80425"/><rect class="cls-1" x="67.96546" y="116.06139" width="3.79321" height="3.80425"/><rect class="cls-1" x="72.70743" y="116.06139" width="3.79321" height="3.80425"/><rect class="cls-1" x="58.48339" y="120.81629" width="3.79321" height="3.8024"/><rect class="cls-1" x="63.22535" y="120.81629" width="3.79321" height="3.8024"/><rect class="cls-1" x="67.96546" y="120.81629" width="3.79321" height="3.8024"/><rect class="cls-1" x="72.70743" y="120.81629" width="3.79321" height="3.8024"/><rect class="cls-1" x="58.48339" y="125.57113" width="3.79321" height="3.8024"/><rect class="cls-1" x="63.22535" y="125.57113" width="3.79321" height="3.8024"/><rect class="cls-1" x="67.96546" y="125.57113" width="3.79321" height="3.8024"/><rect class="cls-1" x="72.70743" y="125.57113" width="3.79321" height="3.8024"/><rect class="cls-1" x="58.48339" y="130.32597" width="3.79321" height="3.8024"/><rect class="cls-1" x="63.22535" y="130.32597" width="3.79321" height="3.8024"/><rect class="cls-1" x="67.96546" y="130.32597" width="3.79321" height="3.8024"/><rect class="cls-1" x="72.70743" y="130.32597" width="3.79321" height="3.8024"/><rect class="cls-1" x="79.3432" y="116.06139" width="3.79321" height="3.80425"/><rect class="cls-1" x="84.08517" y="116.06139" width="3.79321" height="3.80425"/><rect class="cls-1" x="88.8253" y="116.06139" width="3.79321" height="3.80425"/><rect class="cls-1" x="93.56539" y="116.06139" width="3.79321" height="3.80425"/><rect class="cls-1" x="79.3432" y="120.81629" width="3.79321" height="3.8024"/><rect class="cls-1" x="84.08517" y="120.81629" width="3.79321" height="3.8024"/><rect class="cls-1" x="88.8253" y="120.81629" width="3.79321" height="3.8024"/><rect class="cls-1" x="93.56539" y="120.81629" width="3.79321" height="3.8024"/><rect class="cls-1" x="79.3432" y="125.57113" width="3.79321" height="3.8024"/><rect class="cls-1" x="84.08517" y="125.57113" width="3.79321" height="3.8024"/><rect class="cls-1" x="88.8253" y="125.57113" width="3.79321" height="3.8024"/><rect class="cls-1" x="93.56539" y="125.57113" width="3.79321" height="3.8024"/><rect class="cls-1" x="79.3432" y="130.32597" width="3.79321" height="3.8024"/><rect class="cls-1" x="84.08517" y="130.32597" width="3.79321" height="3.8024"/><rect class="cls-1" x="88.8253" y="130.32597" width="3.79321" height="3.8024"/><rect class="cls-1" x="93.56539" y="130.32597" width="3.79321" height="3.8024"/><rect class="cls-1" x="121.33918" y="11.45833" width="3.79321" height="3.80425"/><rect class="cls-1" x="126.07929" y="11.45833" width="3.79321" height="3.80425"/><rect class="cls-1" x="130.8194" y="11.45833" width="3.79321" height="3.80425"/><rect class="cls-1" x="135.56137" y="11.45833" width="3.79321" height="3.80425"/><rect class="cls-1" x="121.33918" y="16.21323" width="3.79321" height="3.8024"/><rect class="cls-1" x="126.07929" y="16.21323" width="3.79321" height="3.8024"/><rect class="cls-1" x="130.8194" y="16.21323" width="3.79321" height="3.8024"/><rect class="cls-1" x="135.56137" y="16.21323" width="3.79321" height="3.8024"/><rect class="cls-1" x="121.33918" y="20.96621" width="3.79321" height="3.80425"/><rect class="cls-1" x="126.07929" y="20.96621" width="3.79321" height="3.80425"/><rect class="cls-1" x="130.8194" y="20.96621" width="3.79321" height="3.80425"/><rect class="cls-1" x="135.56137" y="20.96621" width="3.79321" height="3.80425"/><rect class="cls-1" x="121.33918" y="25.72105" width="3.79321" height="3.80425"/><rect class="cls-1" x="126.07929" y="25.72291" width="3.79321" height="3.80425"/><rect class="cls-1" x="130.8194" y="25.72291" width="3.79321" height="3.80425"/><rect class="cls-1" x="135.56137" y="25.72291" width="3.79321" height="3.80425"/><rect class="cls-1" x="142.19717" y="11.45833" width="3.79321" height="3.80425"/><rect class="cls-1" x="146.93913" y="11.45833" width="3.79321" height="3.80425"/><rect class="cls-1" x="151.67922" y="11.45833" width="3.79321" height="3.80425"/><rect class="cls-1" x="156.41935" y="11.45833" width="3.79321" height="3.80425"/><rect class="cls-1" x="142.19717" y="16.21323" width="3.79321" height="3.8024"/><rect class="cls-1" x="146.93913" y="16.21323" width="3.79321" height="3.8024"/><rect class="cls-1" x="151.67922" y="16.21323" width="3.79321" height="3.8024"/><rect class="cls-1" x="156.41935" y="16.21323" width="3.79321" height="3.8024"/><rect class="cls-1" x="142.19717" y="20.96621" width="3.79321" height="3.80425"/><rect class="cls-1" x="146.93913" y="20.96621" width="3.79321" height="3.80425"/><rect class="cls-1" x="151.67922" y="20.96621" width="3.79321" height="3.80425"/><rect class="cls-1" x="156.41935" y="20.96621" width="3.79321" height="3.80425"/><rect class="cls-1" x="142.19717" y="25.72291" width="3.79321" height="3.80425"/><rect class="cls-1" x="146.93913" y="25.72105" width="3.79321" height="3.80425"/><rect class="cls-1" x="151.67922" y="25.72291" width="3.79321" height="3.80425"/><rect class="cls-1" x="156.41935" y="25.72291" width="3.79321" height="3.80425"/><rect class="cls-1" x="163.05698" y="11.45833" width="3.79321" height="3.80425"/><rect class="cls-1" x="167.79709" y="11.45833" width="3.79321" height="3.80425"/><rect class="cls-1" x="172.53906" y="11.45833" width="3.79321" height="3.80425"/><rect class="cls-1" x="177.28102" y="11.45833" width="3.79321" height="3.80425"/><rect class="cls-1" x="163.05698" y="16.21323" width="3.79321" height="3.8024"/><rect class="cls-1" x="167.79709" y="16.21323" width="3.79321" height="3.8024"/><rect class="cls-1" x="172.53906" y="16.21323" width="3.79321" height="3.8024"/><rect class="cls-1" x="177.28102" y="16.21323" width="3.79321" height="3.8024"/><rect class="cls-1" x="163.05698" y="20.96621" width="3.79321" height="3.80425"/><rect class="cls-1" x="167.79709" y="20.96621" width="3.79321" height="3.80425"/><rect class="cls-1" x="172.53906" y="20.96621" width="3.79321" height="3.80425"/><rect class="cls-1" x="177.28102" y="20.96621" width="3.79321" height="3.80425"/><rect class="cls-1" x="163.05698" y="25.72291" width="3.79321" height="3.80425"/><rect class="cls-1" x="167.79709" y="25.72291" width="3.79321" height="3.80425"/><rect class="cls-1" x="172.53906" y="25.72291" width="3.79321" height="3.80425"/><rect class="cls-1" x="177.28102" y="25.72105" width="3.79321" height="3.80425"/><rect class="cls-1" x="142.19717" y="32.37898" width="3.79321" height="3.80425"/><rect class="cls-1" x="146.93913" y="32.37898" width="3.79321" height="3.80425"/><rect class="cls-1" x="151.67922" y="32.37898" width="3.79321" height="3.80425"/><rect class="cls-1" x="156.41935" y="32.37898" width="3.79321" height="3.80425"/><rect class="cls-1" x="142.19717" y="37.13382" width="3.79321" height="3.8024"/><rect class="cls-1" x="146.93913" y="37.13382" width="3.79321" height="3.8024"/><rect class="cls-1" x="151.67922" y="37.13382" width="3.79321" height="3.8024"/><rect class="cls-1" x="156.41935" y="37.13382" width="3.79321" height="3.8024"/><rect class="cls-1" x="142.19717" y="41.88866" width="3.79321" height="3.8024"/><rect class="cls-1" x="146.93913" y="41.88866" width="3.79321" height="3.8024"/><rect class="cls-1" x="151.67922" y="41.88866" width="3.79321" height="3.8024"/><rect class="cls-1" x="156.41935" y="41.88866" width="3.79321" height="3.8024"/><rect class="cls-1" x="142.19717" y="46.6417" width="3.79321" height="3.80425"/><rect class="cls-1" x="146.93913" y="46.6417" width="3.79321" height="3.80425"/><rect class="cls-1" x="151.67922" y="46.6417" width="3.79321" height="3.80425"/><rect class="cls-1" x="156.41935" y="46.6417" width="3.79321" height="3.80425"/><rect class="cls-1" x="142.19717" y="53.29957" width="3.79321" height="3.80425"/><rect class="cls-1" x="146.93913" y="53.29957" width="3.79321" height="3.80425"/><rect class="cls-1" x="151.67922" y="53.29957" width="3.79321" height="3.80425"/><rect class="cls-1" x="156.41935" y="53.29957" width="3.79321" height="3.80425"/><rect class="cls-1" x="142.19717" y="58.05441" width="3.79321" height="3.80425"/><rect class="cls-1" x="146.93913" y="58.05441" width="3.79321" height="3.80425"/><rect class="cls-1" x="151.67922" y="58.05441" width="3.79321" height="3.80425"/><rect class="cls-1" x="156.41935" y="58.05441" width="3.79321" height="3.80425"/><rect class="cls-1" x="142.19717" y="62.8093" width="3.79321" height="3.8024"/><rect class="cls-1" x="146.93913" y="62.8093" width="3.79321" height="3.8024"/><rect class="cls-1" x="151.67922" y="62.8093" width="3.79321" height="3.8024"/><rect class="cls-1" x="156.41935" y="62.8093" width="3.79321" height="3.8024"/><rect class="cls-1" x="142.19717" y="67.56229" width="3.79321" height="3.80425"/><rect class="cls-1" x="146.93913" y="67.56229" width="3.79321" height="3.80425"/><rect class="cls-1" x="151.67922" y="67.56229" width="3.79321" height="3.80425"/><rect class="cls-1" x="156.41935" y="67.56229" width="3.79321" height="3.80425"/><rect class="cls-1" x="142.19717" y="74.22021" width="3.79321" height="3.80425"/><rect class="cls-1" x="146.93913" y="74.22021" width="3.79321" height="3.80425"/><rect class="cls-1" x="151.67922" y="74.22021" width="3.79321" height="3.80425"/><rect class="cls-1" x="156.41935" y="74.22021" width="3.79321" height="3.80425"/><rect class="cls-1" x="142.19717" y="78.97505" width="3.79321" height="3.80425"/><rect class="cls-1" x="146.93913" y="78.97505" width="3.79321" height="3.80425"/><rect class="cls-1" x="151.67922" y="78.97505" width="3.79321" height="3.80425"/><rect class="cls-1" x="156.41935" y="78.97505" width="3.79321" height="3.80425"/><rect class="cls-1" x="142.19717" y="83.72989" width="3.79321" height="3.8024"/><rect class="cls-1" x="146.93913" y="83.72989" width="3.79321" height="3.8024"/><rect class="cls-1" x="151.67922" y="83.72989" width="3.79321" height="3.8024"/><rect class="cls-1" x="156.41935" y="83.72989" width="3.79321" height="3.8024"/><rect class="cls-1" x="142.19717" y="88.48293" width="3.79321" height="3.80425"/><rect class="cls-1" x="146.93913" y="88.48288" width="3.79321" height="3.80425"/><rect class="cls-1" x="151.67922" y="88.48293" width="3.79321" height="3.80425"/><rect class="cls-1" x="156.41935" y="88.48293" width="3.79321" height="3.80425"/><rect class="cls-1" x="142.19717" y="95.1408" width="3.79321" height="3.80425"/><rect class="cls-1" x="146.93913" y="95.1408" width="3.79321" height="3.80425"/><rect class="cls-1" x="151.67922" y="95.1408" width="3.79321" height="3.80425"/><rect class="cls-1" x="156.41935" y="95.1408" width="3.79321" height="3.80425"/><rect class="cls-1" x="142.19717" y="99.89564" width="3.79321" height="3.80425"/><rect class="cls-1" x="146.93913" y="99.89564" width="3.79321" height="3.80425"/><rect class="cls-1" x="151.67922" y="99.89564" width="3.79321" height="3.80425"/><rect class="cls-1" x="156.41935" y="99.89564" width="3.79321" height="3.80425"/><rect class="cls-1" x="142.19717" y="104.65048" width="3.79321" height="3.8024"/><rect class="cls-1" x="146.93913" y="104.65054" width="3.79321" height="3.8024"/><rect class="cls-1" x="151.67922" y="104.65048" width="3.79321" height="3.8024"/><rect class="cls-1" x="156.41935" y="104.65048" width="3.79321" height="3.8024"/><rect class="cls-1" x="142.19717" y="109.40538" width="3.79321" height="3.8024"/><rect class="cls-1" x="146.93913" y="109.40538" width="3.79321" height="3.8024"/><rect class="cls-1" x="151.67922" y="109.40538" width="3.79321" height="3.8024"/><rect class="cls-1" x="156.41935" y="109.40538" width="3.79321" height="3.8024"/><rect class="cls-1" x="121.33918" y="116.06139" width="3.79321" height="3.80425"/><rect class="cls-1" x="126.07929" y="116.06139" width="3.79321" height="3.80425"/><rect class="cls-1" x="130.8194" y="116.06139" width="3.79321" height="3.80425"/><rect class="cls-1" x="135.56137" y="116.06139" width="3.79321" height="3.80425"/><rect class="cls-1" x="121.33918" y="120.81629" width="3.79321" height="3.8024"/><rect class="cls-1" x="126.07929" y="120.81629" width="3.79321" height="3.8024"/><rect class="cls-1" x="130.8194" y="120.81629" width="3.79321" height="3.8024"/><rect class="cls-1" x="135.56137" y="120.81629" width="3.79321" height="3.8024"/><rect class="cls-1" x="121.33918" y="125.57113" width="3.79321" height="3.8024"/><rect class="cls-1" x="126.07929" y="125.57113" width="3.79321" height="3.8024"/><rect class="cls-1" x="130.8194" y="125.57113" width="3.79321" height="3.8024"/><rect class="cls-1" x="135.56137" y="125.57113" width="3.79321" height="3.8024"/><rect class="cls-1" x="121.33918" y="130.32597" width="3.79321" height="3.8024"/><rect class="cls-1" x="126.07929" y="130.32597" width="3.79321" height="3.8024"/><rect class="cls-1" x="130.8194" y="130.32597" width="3.79321" height="3.8024"/><rect class="cls-1" x="135.56137" y="130.32597" width="3.79321" height="3.8024"/><rect class="cls-1" x="142.19717" y="116.06139" width="3.79321" height="3.80425"/><rect class="cls-1" x="146.93913" y="116.06139" width="3.79321" height="3.80425"/><rect class="cls-1" x="151.67922" y="116.06139" width="3.79321" height="3.80425"/><rect class="cls-1" x="156.41935" y="116.06139" width="3.79321" height="3.80425"/><rect class="cls-1" x="142.19717" y="120.81629" width="3.79321" height="3.8024"/><rect class="cls-1" x="146.93913" y="120.81629" width="3.79321" height="3.8024"/><rect class="cls-1" x="151.67922" y="120.81629" width="3.79321" height="3.8024"/><rect class="cls-1" x="156.41935" y="120.81629" width="3.79321" height="3.8024"/><rect class="cls-1" x="142.19717" y="125.57113" width="3.79321" height="3.8024"/><rect class="cls-1" x="146.93913" y="125.57113" width="3.79321" height="3.8024"/><rect class="cls-1" x="151.67922" y="125.57113" width="3.79321" height="3.8024"/><rect class="cls-1" x="156.41935" y="125.57113" width="3.79321" height="3.8024"/><rect class="cls-1" x="142.19717" y="130.32597" width="3.79321" height="3.8024"/><rect class="cls-1" x="146.93913" y="130.32597" width="3.79321" height="3.8024"/><rect class="cls-1" x="151.67922" y="130.32597" width="3.79321" height="3.8024"/><rect class="cls-1" x="156.41935" y="130.32597" width="3.79321" height="3.8024"/><rect class="cls-1" x="163.05698" y="116.06139" width="3.79321" height="3.80425"/><rect class="cls-1" x="167.79709" y="116.06139" width="3.79321" height="3.80425"/><rect class="cls-1" x="172.53906" y="116.06139" width="3.79321" height="3.80425"/><rect class="cls-1" x="177.28102" y="116.06139" width="3.79321" height="3.80425"/><rect class="cls-1" x="163.05698" y="120.81629" width="3.79321" height="3.8024"/><rect class="cls-1" x="167.79709" y="120.81629" width="3.79321" height="3.8024"/><rect class="cls-1" x="172.53906" y="120.81629" width="3.79321" height="3.8024"/><rect class="cls-1" x="177.28102" y="120.81629" width="3.79321" height="3.8024"/><rect class="cls-1" x="163.05698" y="125.57113" width="3.79321" height="3.8024"/><rect class="cls-1" x="167.79709" y="125.57113" width="3.79321" height="3.8024"/><rect class="cls-1" x="172.53906" y="125.57113" width="3.79321" height="3.8024"/><rect class="cls-1" x="177.28102" y="125.57113" width="3.79321" height="3.8024"/><rect class="cls-1" x="163.05698" y="130.32597" width="3.79321" height="3.8024"/><rect class="cls-1" x="167.79709" y="130.32597" width="3.79321" height="3.8024"/><rect class="cls-1" x="172.53906" y="130.32597" width="3.79321" height="3.8024"/><rect class="cls-1" x="177.28102" y="130.32597" width="3.79321" height="3.8024"/><rect class="cls-1" x="205.05296" y="11.45833" width="3.79321" height="3.80425"/><rect class="cls-1" x="209.79307" y="11.45833" width="3.79321" height="3.80425"/><rect class="cls-1" x="214.53318" y="11.45833" width="3.79321" height="3.80425"/><rect class="cls-1" x="219.2733" y="11.45833" width="3.79321" height="3.80425"/><rect class="cls-1" x="205.05296" y="16.21323" width="3.79321" height="3.8024"/><rect class="cls-1" x="209.79307" y="16.21323" width="3.79321" height="3.8024"/><rect class="cls-1" x="214.53318" y="16.21323" width="3.79321" height="3.8024"/><rect class="cls-1" x="219.2733" y="16.21323" width="3.79321" height="3.8024"/><rect class="cls-1" x="205.05296" y="20.96621" width="3.79321" height="3.80425"/><rect class="cls-1" x="209.79307" y="20.96621" width="3.79321" height="3.80425"/><rect class="cls-1" x="214.53318" y="20.96621" width="3.79321" height="3.80425"/><rect class="cls-1" x="219.2733" y="20.96621" width="3.79321" height="3.80425"/><rect class="cls-1" x="205.05296" y="25.72105" width="3.79321" height="3.80425"/><rect class="cls-1" x="209.79307" y="25.72105" width="3.79321" height="3.80425"/><rect class="cls-1" x="214.53318" y="25.72291" width="3.79321" height="3.80425"/><rect class="cls-1" x="219.2733" y="25.72291" width="3.79321" height="3.80425"/><rect class="cls-1" x="205.05296" y="32.37898" width="3.79321" height="3.80425"/><rect class="cls-1" x="209.79307" y="32.37898" width="3.79321" height="3.80425"/><rect class="cls-1" x="214.53318" y="32.37898" width="3.79321" height="3.80425"/><rect class="cls-1" x="219.2733" y="32.37898" width="3.79321" height="3.80425"/><rect class="cls-1" x="205.05296" y="37.13382" width="3.79321" height="3.8024"/><rect class="cls-1" x="209.79307" y="37.13382" width="3.79321" height="3.8024"/><rect class="cls-1" x="214.53318" y="37.13382" width="3.79321" height="3.8024"/><rect class="cls-1" x="219.2733" y="37.13382" width="3.79321" height="3.8024"/><rect class="cls-1" x="205.05296" y="41.88866" width="3.79321" height="3.8024"/><rect class="cls-1" x="209.79307" y="41.88866" width="3.79321" height="3.8024"/><rect class="cls-1" x="214.53318" y="41.88866" width="3.79321" height="3.8024"/><rect class="cls-1" x="219.2733" y="41.88866" width="3.79321" height="3.8024"/><rect class="cls-1" x="205.05296" y="46.6417" width="3.79321" height="3.80425"/><rect class="cls-1" x="209.79307" y="46.6417" width="3.79321" height="3.80425"/><rect class="cls-1" x="214.53318" y="46.6417" width="3.79321" height="3.80425"/><rect class="cls-1" x="219.2733" y="46.6417" width="3.79321" height="3.80425"/><rect class="cls-1" x="205.05296" y="53.29957" width="3.79321" height="3.80425"/><rect class="cls-1" x="209.79307" y="53.29957" width="3.79321" height="3.80425"/><rect class="cls-1" x="214.53318" y="53.29957" width="3.79321" height="3.80425"/><rect class="cls-1" x="219.2733" y="53.29957" width="3.79321" height="3.80425"/><rect class="cls-1" x="205.05296" y="58.05441" width="3.79321" height="3.80425"/><rect class="cls-1" x="209.79307" y="58.05441" width="3.79321" height="3.80425"/><rect class="cls-1" x="214.53318" y="58.05441" width="3.79321" height="3.80425"/><rect class="cls-1" x="219.2733" y="58.05441" width="3.79321" height="3.80425"/><rect class="cls-1" x="205.05296" y="62.8093" width="3.79321" height="3.8024"/><rect class="cls-1" x="209.79307" y="62.8093" width="3.79321" height="3.8024"/><rect class="cls-1" x="214.53318" y="62.8093" width="3.79321" height="3.8024"/><rect class="cls-1" x="219.2733" y="62.8093" width="3.79321" height="3.8024"/><rect class="cls-1" x="205.05296" y="67.56229" width="3.79321" height="3.80425"/><rect class="cls-1" x="209.79307" y="67.56229" width="3.79321" height="3.80425"/><rect class="cls-1" x="214.53318" y="67.56229" width="3.79321" height="3.80425"/><rect class="cls-1" x="219.2733" y="67.56229" width="3.79321" height="3.80425"/><rect class="cls-1" x="205.05296" y="74.22021" width="3.79321" height="3.80425"/><rect class="cls-1" x="209.79307" y="74.22021" width="3.79321" height="3.80425"/><rect class="cls-1" x="214.53318" y="74.22021" width="3.79321" height="3.80425"/><rect class="cls-1" x="219.2733" y="74.22021" width="3.79321" height="3.80425"/><rect class="cls-1" x="205.05296" y="78.97505" width="3.79321" height="3.80425"/><rect class="cls-1" x="209.79307" y="78.97505" width="3.79321" height="3.80425"/><rect class="cls-1" x="214.53318" y="78.97505" width="3.79321" height="3.80425"/><rect class="cls-1" x="219.2733" y="78.97505" width="3.79321" height="3.80425"/><rect class="cls-1" x="205.05296" y="83.72989" width="3.79321" height="3.8024"/><rect class="cls-1" x="209.79307" y="83.72989" width="3.79321" height="3.8024"/><rect class="cls-1" x="214.53318" y="83.72989" width="3.79321" height="3.8024"/><rect class="cls-1" x="219.2733" y="83.72989" width="3.79321" height="3.8024"/><rect class="cls-1" x="205.05296" y="88.48288" width="3.79321" height="3.80425"/><rect class="cls-1" x="209.79307" y="88.48288" width="3.79321" height="3.80425"/><rect class="cls-1" x="214.53318" y="88.48293" width="3.79321" height="3.80425"/><rect class="cls-1" x="219.2733" y="88.48293" width="3.79321" height="3.80425"/><rect class="cls-1" x="205.05296" y="95.1408" width="3.79321" height="3.80425"/><rect class="cls-1" x="209.79307" y="95.1408" width="3.79321" height="3.80425"/><rect class="cls-1" x="214.53318" y="95.1408" width="3.79321" height="3.80425"/><rect class="cls-1" x="219.2733" y="95.1408" width="3.79321" height="3.80425"/><rect class="cls-1" x="205.05296" y="99.89564" width="3.79321" height="3.80425"/><rect class="cls-1" x="209.79307" y="99.89564" width="3.79321" height="3.80425"/><rect class="cls-1" x="214.53318" y="99.89564" width="3.79321" height="3.80425"/><rect class="cls-1" x="219.2733" y="99.89564" width="3.79321" height="3.80425"/><rect class="cls-1" x="205.05296" y="104.65054" width="3.79321" height="3.8024"/><rect class="cls-1" x="209.79307" y="104.65054" width="3.79321" height="3.8024"/><rect class="cls-1" x="214.53318" y="104.65048" width="3.79321" height="3.8024"/><rect class="cls-1" x="219.2733" y="104.65048" width="3.79321" height="3.8024"/><rect class="cls-1" x="205.05296" y="109.40538" width="3.79321" height="3.8024"/><rect class="cls-1" x="209.79307" y="109.40538" width="3.79321" height="3.8024"/><rect class="cls-1" x="214.53318" y="109.40538" width="3.79321" height="3.8024"/><rect class="cls-1" x="219.2733" y="109.40538" width="3.79321" height="3.8024"/><rect class="cls-1" x="267.63058" y="95.1408" width="3.79318" height="3.80425"/><rect class="cls-1" x="272.37069" y="95.1408" width="3.79318" height="3.80425"/><rect class="cls-1" x="277.11265" y="95.1408" width="3.79318" height="3.80425"/><rect class="cls-1" x="281.85276" y="95.1408" width="3.79318" height="3.80425"/><rect class="cls-1" x="267.63058" y="99.89564" width="3.79318" height="3.80425"/><rect class="cls-1" x="272.37069" y="99.89564" width="3.79318" height="3.80425"/><rect class="cls-1" x="277.11265" y="99.89564" width="3.79318" height="3.80425"/><rect class="cls-1" x="281.85276" y="99.89564" width="3.79318" height="3.80425"/><rect class="cls-1" x="267.63058" y="104.65048" width="3.79318" height="3.8024"/><rect class="cls-1" x="272.37069" y="104.65048" width="3.79318" height="3.8024"/><rect class="cls-1" x="277.11265" y="104.65054" width="3.79318" height="3.8024"/><rect class="cls-1" x="281.85276" y="104.65054" width="3.79318" height="3.8024"/><rect class="cls-1" x="267.63058" y="109.40538" width="3.79318" height="3.8024"/><rect class="cls-1" x="272.37069" y="109.40538" width="3.79318" height="3.8024"/><rect class="cls-1" x="277.11265" y="109.40538" width="3.79318" height="3.8024"/><rect class="cls-1" x="281.85276" y="109.40538" width="3.79318" height="3.8024"/><rect class="cls-1" x="205.05296" y="116.06139" width="3.79321" height="3.80425"/><rect class="cls-1" x="209.79307" y="116.06139" width="3.79321" height="3.80425"/><rect class="cls-1" x="214.53318" y="116.06139" width="3.79321" height="3.80425"/><rect class="cls-1" x="219.2733" y="116.06139" width="3.79321" height="3.80425"/><rect class="cls-1" x="205.05296" y="120.81629" width="3.79321" height="3.8024"/><rect class="cls-1" x="209.79307" y="120.81629" width="3.79321" height="3.8024"/><rect class="cls-1" x="214.53318" y="120.81629" width="3.79321" height="3.8024"/><rect class="cls-1" x="219.2733" y="120.81629" width="3.79321" height="3.8024"/><rect class="cls-1" x="205.05296" y="125.57113" width="3.79321" height="3.8024"/><rect class="cls-1" x="209.79307" y="125.57113" width="3.79321" height="3.8024"/><rect class="cls-1" x="214.53318" y="125.57113" width="3.79321" height="3.8024"/><rect class="cls-1" x="219.2733" y="125.57113" width="3.79321" height="3.8024"/><rect class="cls-1" x="205.05296" y="130.32597" width="3.79321" height="3.8024"/><rect class="cls-1" x="209.79307" y="130.32597" width="3.79321" height="3.8024"/><rect class="cls-1" x="214.53318" y="130.32597" width="3.79321" height="3.8024"/><rect class="cls-1" x="219.2733" y="130.32597" width="3.79321" height="3.8024"/><rect class="cls-1" x="225.91275" y="116.06139" width="3.79318" height="3.80425"/><rect class="cls-1" x="230.65292" y="116.06139" width="3.79318" height="3.80425"/><rect class="cls-1" x="235.39303" y="116.06139" width="3.79318" height="3.80425"/><rect class="cls-1" x="240.13314" y="116.06139" width="3.79318" height="3.80425"/><rect class="cls-1" x="225.91275" y="120.81629" width="3.79318" height="3.8024"/><rect class="cls-1" x="230.65292" y="120.81629" width="3.79318" height="3.8024"/><rect class="cls-1" x="235.39303" y="120.81629" width="3.79318" height="3.8024"/><rect class="cls-1" x="240.13314" y="120.81629" width="3.79318" height="3.8024"/><rect class="cls-1" x="225.91275" y="125.57113" width="3.79318" height="3.8024"/><rect class="cls-1" x="230.65292" y="125.57113" width="3.79318" height="3.8024"/><rect class="cls-1" x="235.39303" y="125.57113" width="3.79318" height="3.8024"/><rect class="cls-1" x="240.13314" y="125.57113" width="3.79318" height="3.8024"/><rect class="cls-1" x="225.91275" y="130.32597" width="3.79318" height="3.8024"/><rect class="cls-1" x="230.65292" y="130.32597" width="3.79318" height="3.8024"/><rect class="cls-1" x="235.39303" y="130.32597" width="3.79318" height="3.8024"/><rect class="cls-1" x="240.13314" y="130.32597" width="3.79318" height="3.8024"/><rect class="cls-1" x="246.77076" y="116.06139" width="3.79318" height="3.80425"/><rect class="cls-1" x="251.51087" y="116.06139" width="3.79318" height="3.80425"/><rect class="cls-1" x="256.25098" y="116.06139" width="3.79318" height="3.80425"/><rect class="cls-1" x="260.99295" y="116.06139" width="3.79318" height="3.80425"/><rect class="cls-1" x="246.77076" y="120.81629" width="3.79318" height="3.8024"/><rect class="cls-1" x="251.51087" y="120.81629" width="3.79318" height="3.8024"/><rect class="cls-1" x="256.25098" y="120.81629" width="3.79318" height="3.8024"/><rect class="cls-1" x="260.99295" y="120.81629" width="3.79318" height="3.8024"/><rect class="cls-1" x="246.77076" y="125.57113" width="3.79318" height="3.8024"/><rect class="cls-1" x="251.51087" y="125.57113" width="3.79318" height="3.8024"/><rect class="cls-1" x="256.25098" y="125.57113" width="3.79318" height="3.8024"/><rect class="cls-1" x="260.99295" y="125.57113" width="3.79318" height="3.8024"/><rect class="cls-1" x="246.77076" y="130.32597" width="3.79318" height="3.8024"/><rect class="cls-1" x="251.51087" y="130.32597" width="3.79318" height="3.8024"/><rect class="cls-1" x="256.25098" y="130.32597" width="3.79318" height="3.8024"/><rect class="cls-1" x="260.99295" y="130.32597" width="3.79318" height="3.8024"/><rect class="cls-1" x="267.63058" y="116.06139" width="3.79318" height="3.80425"/><rect class="cls-1" x="272.37069" y="116.06139" width="3.79318" height="3.80425"/><rect class="cls-1" x="277.11265" y="116.06139" width="3.79318" height="3.80425"/><rect class="cls-1" x="281.85276" y="116.06139" width="3.79318" height="3.80425"/><rect class="cls-1" x="267.63058" y="120.81629" width="3.79318" height="3.8024"/><rect class="cls-1" x="272.37069" y="120.81629" width="3.79318" height="3.8024"/><rect class="cls-1" x="277.11265" y="120.81629" width="3.79318" height="3.8024"/><rect class="cls-1" x="281.85276" y="120.81629" width="3.79318" height="3.8024"/><rect class="cls-1" x="267.63058" y="125.57113" width="3.79318" height="3.8024"/><rect class="cls-1" x="272.37069" y="125.57113" width="3.79318" height="3.8024"/><rect class="cls-1" x="277.11265" y="125.57113" width="3.79318" height="3.8024"/><rect class="cls-1" x="281.85276" y="125.57113" width="3.79318" height="3.8024"/><rect class="cls-1" x="267.63058" y="130.32597" width="3.79318" height="3.8024"/><rect class="cls-1" x="272.37069" y="130.32597" width="3.79318" height="3.8024"/><rect class="cls-1" x="277.11265" y="130.32597" width="3.79318" height="3.8024"/><rect class="cls-1" x="281.85276" y="130.32597" width="3.79318" height="3.8024"/><rect class="cls-1" x="309.65599" y="11.45833" width="3.79318" height="3.80425"/><rect class="cls-1" x="314.39616" y="11.45833" width="3.79318" height="3.80425"/><rect class="cls-1" x="319.13627" y="11.45833" width="3.79318" height="3.80425"/><rect class="cls-1" x="323.87638" y="11.45833" width="3.79318" height="3.80425"/><rect class="cls-1" x="309.65599" y="16.21323" width="3.79318" height="3.8024"/><rect class="cls-1" x="314.39616" y="16.21323" width="3.79318" height="3.8024"/><rect class="cls-1" x="319.13627" y="16.21323" width="3.79318" height="3.8024"/><rect class="cls-1" x="323.87638" y="16.21323" width="3.79318" height="3.8024"/><rect class="cls-1" x="309.65599" y="20.96621" width="3.79318" height="3.80425"/><rect class="cls-1" x="314.39616" y="20.96621" width="3.79318" height="3.80425"/><rect class="cls-1" x="319.13627" y="20.96621" width="3.79318" height="3.80425"/><rect class="cls-1" x="323.87638" y="20.96621" width="3.79318" height="3.80425"/><rect class="cls-1" x="309.65599" y="25.72105" width="3.79318" height="3.80425"/><rect class="cls-1" x="314.39616" y="25.72291" width="3.79318" height="3.80425"/><rect class="cls-1" x="319.13627" y="25.72291" width="3.79318" height="3.80425"/><rect class="cls-1" x="323.87638" y="25.72291" width="3.79318" height="3.80425"/><rect class="cls-1" x="309.65599" y="32.37898" width="3.79318" height="3.80425"/><rect class="cls-1" x="314.39616" y="32.37898" width="3.79318" height="3.80425"/><rect class="cls-1" x="319.13627" y="32.37898" width="3.79318" height="3.80425"/><rect class="cls-1" x="323.87638" y="32.37898" width="3.79318" height="3.80425"/><rect class="cls-1" x="309.65599" y="37.13382" width="3.79318" height="3.8024"/><rect class="cls-1" x="314.39616" y="37.13382" width="3.79318" height="3.8024"/><rect class="cls-1" x="319.13627" y="37.13382" width="3.79318" height="3.8024"/><rect class="cls-1" x="323.87638" y="37.13382" width="3.79318" height="3.8024"/><rect class="cls-1" x="309.65599" y="41.88866" width="3.79318" height="3.8024"/><rect class="cls-1" x="314.39616" y="41.88866" width="3.79318" height="3.8024"/><rect class="cls-1" x="319.13627" y="41.88866" width="3.79318" height="3.8024"/><rect class="cls-1" x="323.87638" y="41.88866" width="3.79318" height="3.8024"/><rect class="cls-1" x="309.65599" y="46.6417" width="3.79318" height="3.80425"/><rect class="cls-1" x="314.39616" y="46.6417" width="3.79318" height="3.80425"/><rect class="cls-1" x="319.13627" y="46.6417" width="3.79318" height="3.80425"/><rect class="cls-1" x="323.87638" y="46.6417" width="3.79318" height="3.80425"/><rect class="cls-1" x="309.65599" y="53.29957" width="3.79318" height="3.80425"/><rect class="cls-1" x="314.39616" y="53.29957" width="3.79318" height="3.80425"/><rect class="cls-1" x="319.13627" y="53.29957" width="3.79318" height="3.80425"/><rect class="cls-1" x="323.87638" y="53.29957" width="3.79318" height="3.80425"/><rect class="cls-1" x="309.65599" y="58.05441" width="3.79318" height="3.80425"/><rect class="cls-1" x="314.39616" y="58.05441" width="3.79318" height="3.80425"/><rect class="cls-1" x="319.13627" y="58.05441" width="3.79318" height="3.80425"/><rect class="cls-1" x="323.87638" y="58.05441" width="3.79318" height="3.80425"/><rect class="cls-1" x="309.65599" y="62.8093" width="3.79318" height="3.8024"/><rect class="cls-1" x="314.39616" y="62.8093" width="3.79318" height="3.8024"/><rect class="cls-1" x="319.13627" y="62.8093" width="3.79318" height="3.8024"/><rect class="cls-1" x="323.87638" y="62.8093" width="3.79318" height="3.8024"/><rect class="cls-1" x="309.65599" y="67.56229" width="3.79318" height="3.80425"/><rect class="cls-1" x="314.39616" y="67.56229" width="3.79318" height="3.80425"/><rect class="cls-1" x="319.13627" y="67.56229" width="3.79318" height="3.80425"/><rect class="cls-1" x="323.87638" y="67.56229" width="3.79318" height="3.80425"/><rect class="cls-1" x="309.65599" y="74.22021" width="3.79318" height="3.80425"/><rect class="cls-1" x="314.39616" y="74.22021" width="3.79318" height="3.80425"/><rect class="cls-1" x="319.13627" y="74.22021" width="3.79318" height="3.80425"/><rect class="cls-1" x="323.87638" y="74.22021" width="3.79318" height="3.80425"/><rect class="cls-1" x="309.65599" y="78.97505" width="3.79318" height="3.80425"/><rect class="cls-1" x="314.39616" y="78.97505" width="3.79318" height="3.80425"/><rect class="cls-1" x="319.13627" y="78.97505" width="3.79318" height="3.80425"/><rect class="cls-1" x="323.87638" y="78.97505" width="3.79318" height="3.80425"/><rect class="cls-1" x="309.65599" y="83.72989" width="3.79318" height="3.8024"/><rect class="cls-1" x="314.39616" y="83.72989" width="3.79318" height="3.8024"/><rect class="cls-1" x="319.13627" y="83.72989" width="3.79318" height="3.8024"/><rect class="cls-1" x="323.87638" y="83.72989" width="3.79318" height="3.8024"/><rect class="cls-1" x="309.65599" y="88.48288" width="3.79318" height="3.80425"/><rect class="cls-1" x="314.39616" y="88.48293" width="3.79318" height="3.80425"/><rect class="cls-1" x="319.13627" y="88.48293" width="3.79318" height="3.80425"/><rect class="cls-1" x="323.87638" y="88.48293" width="3.79318" height="3.80425"/><rect class="cls-1" x="309.65599" y="95.1408" width="3.79318" height="3.80425"/><rect class="cls-1" x="314.39616" y="95.1408" width="3.79318" height="3.80425"/><rect class="cls-1" x="319.13627" y="95.1408" width="3.79318" height="3.80425"/><rect class="cls-1" x="323.87638" y="95.1408" width="3.79318" height="3.80425"/><rect class="cls-1" x="309.65599" y="99.89564" width="3.79318" height="3.80425"/><rect class="cls-1" x="314.39616" y="99.89564" width="3.79318" height="3.80425"/><rect class="cls-1" x="319.13627" y="99.89564" width="3.79318" height="3.80425"/><rect class="cls-1" x="323.87638" y="99.89564" width="3.79318" height="3.80425"/><rect class="cls-1" x="309.65599" y="104.65054" width="3.79318" height="3.8024"/><rect class="cls-1" x="314.39616" y="104.65048" width="3.79318" height="3.8024"/><rect class="cls-1" x="319.13627" y="104.65048" width="3.79318" height="3.8024"/><rect class="cls-1" x="323.87638" y="104.65048" width="3.79318" height="3.8024"/><rect class="cls-1" x="309.65599" y="109.40538" width="3.79318" height="3.8024"/><rect class="cls-1" x="314.39616" y="109.40538" width="3.79318" height="3.8024"/><rect class="cls-1" x="319.13627" y="109.40538" width="3.79318" height="3.8024"/><rect class="cls-1" x="323.87638" y="109.40538" width="3.79318" height="3.8024"/><rect class="cls-1" x="372.23363" y="95.1408" width="3.79318" height="3.80425"/><rect class="cls-1" x="376.97374" y="95.1408" width="3.79318" height="3.80425"/><rect class="cls-1" x="381.71385" y="95.1408" width="3.79318" height="3.80425"/><rect class="cls-1" x="386.45396" y="95.1408" width="3.79503" height="3.80425"/><rect class="cls-1" x="372.23363" y="99.89564" width="3.79318" height="3.80425"/><rect class="cls-1" x="376.97374" y="99.89564" width="3.79318" height="3.80425"/><rect class="cls-1" x="381.71385" y="99.89564" width="3.79318" height="3.80425"/><rect class="cls-1" x="386.45396" y="99.89564" width="3.79503" height="3.80425"/><rect class="cls-1" x="372.23363" y="104.65054" width="3.79318" height="3.8024"/><rect class="cls-1" x="376.97374" y="104.65054" width="3.79318" height="3.8024"/><rect class="cls-1" x="381.71385" y="104.65048" width="3.79318" height="3.8024"/><rect class="cls-1" x="386.45396" y="104.65048" width="3.79503" height="3.8024"/><rect class="cls-1" x="372.23363" y="109.40538" width="3.79318" height="3.8024"/><rect class="cls-1" x="376.97374" y="109.40538" width="3.79318" height="3.8024"/><rect class="cls-1" x="381.71385" y="109.40538" width="3.79318" height="3.8024"/><rect class="cls-1" x="386.45396" y="109.40538" width="3.79503" height="3.8024"/><rect class="cls-1" x="309.65599" y="116.06139" width="3.79318" height="3.80425"/><rect class="cls-1" x="314.39616" y="116.06139" width="3.79318" height="3.80425"/><rect class="cls-1" x="319.13627" y="116.06139" width="3.79318" height="3.80425"/><rect class="cls-1" x="323.87638" y="116.06139" width="3.79318" height="3.80425"/><rect class="cls-1" x="309.65599" y="120.81629" width="3.79318" height="3.8024"/><rect class="cls-1" x="314.39616" y="120.81629" width="3.79318" height="3.8024"/><rect class="cls-1" x="319.13627" y="120.81629" width="3.79318" height="3.8024"/><rect class="cls-1" x="323.87638" y="120.81629" width="3.79318" height="3.8024"/><rect class="cls-1" x="309.65599" y="125.57113" width="3.79318" height="3.8024"/><rect class="cls-1" x="314.39616" y="125.57113" width="3.79318" height="3.8024"/><rect class="cls-1" x="319.13627" y="125.57113" width="3.79318" height="3.8024"/><rect class="cls-1" x="323.87638" y="125.57113" width="3.79318" height="3.8024"/><rect class="cls-1" x="309.65599" y="130.32597" width="3.79318" height="3.8024"/><rect class="cls-1" x="314.39616" y="130.32597" width="3.79318" height="3.8024"/><rect class="cls-1" x="319.13627" y="130.32597" width="3.79318" height="3.8024"/><rect class="cls-1" x="323.87638" y="130.32597" width="3.79318" height="3.8024"/><rect class="cls-1" x="330.51401" y="116.06139" width="3.79318" height="3.80425"/><rect class="cls-1" x="335.25412" y="116.06139" width="3.79318" height="3.80425"/><rect class="cls-1" x="339.99423" y="116.06139" width="3.79318" height="3.80425"/><rect class="cls-1" x="344.73619" y="116.06139" width="3.79503" height="3.80425"/><rect class="cls-1" x="330.51401" y="120.81629" width="3.79318" height="3.8024"/><rect class="cls-1" x="335.25412" y="120.81629" width="3.79318" height="3.8024"/><rect class="cls-1" x="339.99423" y="120.81629" width="3.79318" height="3.8024"/><rect class="cls-1" x="344.73619" y="120.81629" width="3.79503" height="3.8024"/><rect class="cls-1" x="330.51401" y="125.57113" width="3.79318" height="3.8024"/><rect class="cls-1" x="335.25412" y="125.57113" width="3.79318" height="3.8024"/><rect class="cls-1" x="339.99423" y="125.57113" width="3.79318" height="3.8024"/><rect class="cls-1" x="344.73619" y="125.57113" width="3.79503" height="3.8024"/><rect class="cls-1" x="330.51401" y="130.32597" width="3.79318" height="3.8024"/><rect class="cls-1" x="335.25412" y="130.32597" width="3.79318" height="3.8024"/><rect class="cls-1" x="339.99423" y="130.32597" width="3.79318" height="3.8024"/><rect class="cls-1" x="344.73619" y="130.32597" width="3.79503" height="3.8024"/><rect class="cls-1" x="351.37382" y="116.06139" width="3.79318" height="3.80425"/><rect class="cls-1" x="356.11393" y="116.06139" width="3.79318" height="3.80425"/><rect class="cls-1" x="360.8559" y="116.06139" width="3.79318" height="3.80425"/><rect class="cls-1" x="365.59601" y="116.06139" width="3.79318" height="3.80425"/><rect class="cls-1" x="351.37382" y="120.81629" width="3.79318" height="3.8024"/><rect class="cls-1" x="356.11393" y="120.81629" width="3.79318" height="3.8024"/><rect class="cls-1" x="360.8559" y="120.81629" width="3.79318" height="3.8024"/><rect class="cls-1" x="365.59601" y="120.81629" width="3.79318" height="3.8024"/><rect class="cls-1" x="351.37382" y="125.57113" width="3.79318" height="3.8024"/><rect class="cls-1" x="356.11393" y="125.57113" width="3.79318" height="3.8024"/><rect class="cls-1" x="360.8559" y="125.57113" width="3.79318" height="3.8024"/><rect class="cls-1" x="365.59601" y="125.57113" width="3.79318" height="3.8024"/><rect class="cls-1" x="351.37382" y="130.32597" width="3.79318" height="3.8024"/><rect class="cls-1" x="356.11393" y="130.32597" width="3.79318" height="3.8024"/><rect class="cls-1" x="360.8559" y="130.32597" width="3.79318" height="3.8024"/><rect class="cls-1" x="365.59601" y="130.32597" width="3.79318" height="3.8024"/><rect class="cls-1" x="372.23363" y="116.06139" width="3.79318" height="3.80425"/><rect class="cls-1" x="376.97374" y="116.06139" width="3.79318" height="3.80425"/><rect class="cls-1" x="381.71385" y="116.06139" width="3.79318" height="3.80425"/><rect class="cls-1" x="386.45396" y="116.06139" width="3.79503" height="3.80425"/><rect class="cls-1" x="372.23363" y="120.81629" width="3.79318" height="3.8024"/><rect class="cls-1" x="376.97374" y="120.81629" width="3.79318" height="3.8024"/><rect class="cls-1" x="381.71385" y="120.81629" width="3.79318" height="3.8024"/><rect class="cls-1" x="386.45396" y="120.81629" width="3.79503" height="3.8024"/><rect class="cls-1" x="372.23363" y="125.57113" width="3.79318" height="3.8024"/><rect class="cls-1" x="376.97374" y="125.57113" width="3.79318" height="3.8024"/><rect class="cls-1" x="381.71385" y="125.57113" width="3.79318" height="3.8024"/><rect class="cls-1" x="386.45396" y="125.57113" width="3.79503" height="3.8024"/><rect class="cls-1" x="372.23363" y="130.32597" width="3.79318" height="3.8024"/><rect class="cls-1" x="376.97374" y="130.32597" width="3.79318" height="3.8024"/><rect class="cls-1" x="381.71385" y="130.32597" width="3.79318" height="3.8024"/><rect class="cls-1" x="386.45396" y="130.32597" width="3.79503" height="3.8024"/><rect class="cls-1" x="414.22593" y="11.45833" width="3.79503" height="3.80425"/><rect class="cls-1" x="418.96975" y="11.45833" width="3.79318" height="3.80425"/><rect class="cls-1" x="423.70986" y="11.45833" width="3.79318" height="3.80425"/><rect class="cls-1" x="428.44997" y="11.45833" width="3.79318" height="3.80425"/><rect class="cls-1" x="414.22593" y="16.21323" width="3.79503" height="3.8024"/><rect class="cls-1" x="418.96975" y="16.21323" width="3.79318" height="3.8024"/><rect class="cls-1" x="423.70986" y="16.21323" width="3.79318" height="3.8024"/><rect class="cls-1" x="428.44997" y="16.21323" width="3.79318" height="3.8024"/><rect class="cls-1" x="414.22593" y="20.96621" width="3.79503" height="3.80425"/><rect class="cls-1" x="418.96975" y="20.96621" width="3.79318" height="3.80425"/><rect class="cls-1" x="423.70986" y="20.96621" width="3.79318" height="3.80425"/><rect class="cls-1" x="428.44997" y="20.96621" width="3.79318" height="3.80425"/><rect class="cls-1" x="414.22593" y="25.72291" width="3.79503" height="3.80425"/><rect class="cls-1" x="418.96975" y="25.72291" width="3.79318" height="3.80425"/><rect class="cls-1" x="423.70986" y="25.72291" width="3.79318" height="3.80425"/><rect class="cls-1" x="428.44997" y="25.72291" width="3.79318" height="3.80425"/><rect class="cls-1" x="435.0876" y="11.45833" width="3.79318" height="3.80425"/><rect class="cls-1" x="439.82771" y="11.45833" width="3.79318" height="3.80425"/><rect class="cls-1" x="444.56782" y="11.45833" width="3.79318" height="3.80425"/><rect class="cls-1" x="449.30973" y="11.45833" width="3.79318" height="3.80425"/><rect class="cls-1" x="435.0876" y="16.21323" width="3.79318" height="3.8024"/><rect class="cls-1" x="439.82771" y="16.21323" width="3.79318" height="3.8024"/><rect class="cls-1" x="444.56782" y="16.21323" width="3.79318" height="3.8024"/><rect class="cls-1" x="449.30973" y="16.21323" width="3.79318" height="3.8024"/><rect class="cls-1" x="435.0876" y="20.96621" width="3.79318" height="3.80425"/><rect class="cls-1" x="439.82771" y="20.96621" width="3.79318" height="3.80425"/><rect class="cls-1" x="444.56782" y="20.96621" width="3.79318" height="3.80425"/><rect class="cls-1" x="449.30973" y="20.96621" width="3.79318" height="3.80425"/><rect class="cls-1" x="435.0876" y="25.72291" width="3.79318" height="3.80425"/><rect class="cls-1" x="439.82771" y="25.72105" width="3.79318" height="3.80425"/><rect class="cls-1" x="444.56782" y="25.72291" width="3.79318" height="3.80425"/><rect class="cls-1" x="449.30973" y="25.72105" width="3.79318" height="3.80425"/><rect class="cls-1" x="455.94556" y="11.45833" width="3.79503" height="3.80425"/><rect class="cls-1" x="460.68753" y="11.45833" width="3.79318" height="3.80425"/><rect class="cls-1" x="465.42764" y="11.45833" width="3.79318" height="3.80425"/><rect class="cls-1" x="470.1696" y="11.45833" width="3.79318" height="3.80425"/><rect class="cls-1" x="455.94556" y="16.21323" width="3.79503" height="3.8024"/><rect class="cls-1" x="460.68753" y="16.21323" width="3.79318" height="3.8024"/><rect class="cls-1" x="465.42764" y="16.21323" width="3.79318" height="3.8024"/><rect class="cls-1" x="470.1696" y="16.21323" width="3.79318" height="3.8024"/><rect class="cls-1" x="455.94556" y="20.96621" width="3.79503" height="3.80425"/><rect class="cls-1" x="460.68753" y="20.96621" width="3.79318" height="3.80425"/><rect class="cls-1" x="465.42764" y="20.96621" width="3.79318" height="3.80425"/><rect class="cls-1" x="470.1696" y="20.96621" width="3.79318" height="3.80425"/><rect class="cls-1" x="455.94556" y="25.72105" width="3.79503" height="3.80425"/><rect class="cls-1" x="460.68753" y="25.72291" width="3.79318" height="3.80425"/><rect class="cls-1" x="465.42764" y="25.72291" width="3.79318" height="3.80425"/><rect class="cls-1" x="470.1696" y="25.72291" width="3.79318" height="3.80425"/><rect class="cls-1" x="435.0876" y="32.37898" width="3.79318" height="3.80425"/><rect class="cls-1" x="439.82771" y="32.37898" width="3.79318" height="3.80425"/><rect class="cls-1" x="444.56782" y="32.37898" width="3.79318" height="3.80425"/><rect class="cls-1" x="449.30973" y="32.37898" width="3.79318" height="3.80425"/><rect class="cls-1" x="435.0876" y="37.13382" width="3.79318" height="3.8024"/><rect class="cls-1" x="439.82771" y="37.13382" width="3.79318" height="3.8024"/><rect class="cls-1" x="444.56782" y="37.13382" width="3.79318" height="3.8024"/><rect class="cls-1" x="449.30973" y="37.13382" width="3.79318" height="3.8024"/><rect class="cls-1" x="435.0876" y="41.88866" width="3.79318" height="3.8024"/><rect class="cls-1" x="439.82771" y="41.88866" width="3.79318" height="3.8024"/><rect class="cls-1" x="444.56782" y="41.88866" width="3.79318" height="3.8024"/><rect class="cls-1" x="449.30973" y="41.88866" width="3.79318" height="3.8024"/><rect class="cls-1" x="435.0876" y="46.6417" width="3.79318" height="3.80425"/><rect class="cls-1" x="439.82771" y="46.6417" width="3.79318" height="3.80425"/><rect class="cls-1" x="444.56782" y="46.6417" width="3.79318" height="3.80425"/><rect class="cls-1" x="449.30973" y="46.6417" width="3.79318" height="3.80425"/><rect class="cls-1" x="435.0876" y="53.29957" width="3.79318" height="3.80425"/><rect class="cls-1" x="439.82771" y="53.29957" width="3.79318" height="3.80425"/><rect class="cls-1" x="444.56782" y="53.29957" width="3.79318" height="3.80425"/><rect class="cls-1" x="449.30973" y="53.29957" width="3.79318" height="3.80425"/><rect class="cls-1" x="435.0876" y="58.05441" width="3.79318" height="3.80425"/><rect class="cls-1" x="439.82771" y="58.05441" width="3.79318" height="3.80425"/><rect class="cls-1" x="444.56782" y="58.05441" width="3.79318" height="3.80425"/><rect class="cls-1" x="449.30973" y="58.05441" width="3.79318" height="3.80425"/><rect class="cls-1" x="435.0876" y="62.8093" width="3.79318" height="3.8024"/><rect class="cls-1" x="439.82771" y="62.8093" width="3.79318" height="3.8024"/><rect class="cls-1" x="444.56782" y="62.8093" width="3.79318" height="3.8024"/><rect class="cls-1" x="449.30973" y="62.8093" width="3.79318" height="3.8024"/><rect class="cls-1" x="435.0876" y="67.56229" width="3.79318" height="3.80425"/><rect class="cls-1" x="439.82771" y="67.56229" width="3.79318" height="3.80425"/><rect class="cls-1" x="444.56782" y="67.56229" width="3.79318" height="3.80425"/><rect class="cls-1" x="449.30973" y="67.56229" width="3.79318" height="3.80425"/><rect class="cls-1" x="435.0876" y="74.22021" width="3.79318" height="3.80425"/><rect class="cls-1" x="439.82771" y="74.22021" width="3.79318" height="3.80425"/><rect class="cls-1" x="444.56782" y="74.22021" width="3.79318" height="3.80425"/><rect class="cls-1" x="449.30973" y="74.22021" width="3.79318" height="3.80425"/><rect class="cls-1" x="435.0876" y="78.97505" width="3.79318" height="3.80425"/><rect class="cls-1" x="439.82771" y="78.97505" width="3.79318" height="3.80425"/><rect class="cls-1" x="444.56782" y="78.97505" width="3.79318" height="3.80425"/><rect class="cls-1" x="449.30973" y="78.97505" width="3.79318" height="3.80425"/><rect class="cls-1" x="435.0876" y="83.72989" width="3.79318" height="3.8024"/><rect class="cls-1" x="439.82771" y="83.72989" width="3.79318" height="3.8024"/><rect class="cls-1" x="444.56782" y="83.72989" width="3.79318" height="3.8024"/><rect class="cls-1" x="449.30973" y="83.72989" width="3.79318" height="3.8024"/><rect class="cls-1" x="435.0876" y="88.48293" width="3.79318" height="3.80425"/><rect class="cls-1" x="439.82771" y="88.48288" width="3.79318" height="3.80425"/><rect class="cls-1" x="444.56782" y="88.48293" width="3.79318" height="3.80425"/><rect class="cls-1" x="449.30973" y="88.48288" width="3.79318" height="3.80425"/><rect class="cls-1" x="435.0876" y="95.1408" width="3.79318" height="3.80425"/><rect class="cls-1" x="439.82771" y="95.1408" width="3.79318" height="3.80425"/><rect class="cls-1" x="444.56782" y="95.1408" width="3.79318" height="3.80425"/><rect class="cls-1" x="449.30973" y="95.1408" width="3.79318" height="3.80425"/><rect class="cls-1" x="435.0876" y="99.89564" width="3.79318" height="3.80425"/><rect class="cls-1" x="439.82771" y="99.89564" width="3.79318" height="3.80425"/><rect class="cls-1" x="444.56782" y="99.89564" width="3.79318" height="3.80425"/><rect class="cls-1" x="449.30973" y="99.89564" width="3.79318" height="3.80425"/><rect class="cls-1" x="435.0876" y="104.65048" width="3.79318" height="3.8024"/><rect class="cls-1" x="439.82771" y="104.65054" width="3.79318" height="3.8024"/><rect class="cls-1" x="444.56782" y="104.65048" width="3.79318" height="3.8024"/><rect class="cls-1" x="449.30973" y="104.65054" width="3.79318" height="3.8024"/><rect class="cls-1" x="435.0876" y="109.40538" width="3.79318" height="3.8024"/><rect class="cls-1" x="439.82771" y="109.40538" width="3.79318" height="3.8024"/><rect class="cls-1" x="444.56782" y="109.40538" width="3.79318" height="3.8024"/><rect class="cls-1" x="449.30973" y="109.40538" width="3.79318" height="3.8024"/><rect class="cls-1" x="414.22593" y="116.06139" width="3.79503" height="3.80425"/><rect class="cls-1" x="418.96975" y="116.06139" width="3.79318" height="3.80425"/><rect class="cls-1" x="423.70986" y="116.06139" width="3.79318" height="3.80425"/><rect class="cls-1" x="428.44997" y="116.06139" width="3.79318" height="3.80425"/><rect class="cls-1" x="414.22593" y="120.81629" width="3.79503" height="3.8024"/><rect class="cls-1" x="418.96975" y="120.81629" width="3.79318" height="3.8024"/><rect class="cls-1" x="423.70986" y="120.81629" width="3.79318" height="3.8024"/><rect class="cls-1" x="428.44997" y="120.81629" width="3.79318" height="3.8024"/><rect class="cls-1" x="414.22593" y="125.57113" width="3.79503" height="3.8024"/><rect class="cls-1" x="418.96975" y="125.57113" width="3.79318" height="3.8024"/><rect class="cls-1" x="423.70986" y="125.57113" width="3.79318" height="3.8024"/><rect class="cls-1" x="428.44997" y="125.57113" width="3.79318" height="3.8024"/><rect class="cls-1" x="414.22593" y="130.32597" width="3.79503" height="3.8024"/><rect class="cls-1" x="418.96975" y="130.32597" width="3.79318" height="3.8024"/><rect class="cls-1" x="423.70986" y="130.32597" width="3.79318" height="3.8024"/><rect class="cls-1" x="428.44997" y="130.32597" width="3.79318" height="3.8024"/><rect class="cls-1" x="435.0876" y="116.06139" width="3.79318" height="3.80425"/><rect class="cls-1" x="439.82771" y="116.06139" width="3.79318" height="3.80425"/><rect class="cls-1" x="444.56782" y="116.06139" width="3.79318" height="3.80425"/><rect class="cls-1" x="449.30973" y="116.06139" width="3.79318" height="3.80425"/><rect class="cls-1" x="435.0876" y="120.81629" width="3.79318" height="3.8024"/><rect class="cls-1" x="439.82771" y="120.81629" width="3.79318" height="3.8024"/><rect class="cls-1" x="444.56782" y="120.81629" width="3.79318" height="3.8024"/><rect class="cls-1" x="449.30973" y="120.81629" width="3.79318" height="3.8024"/><rect class="cls-1" x="435.0876" y="125.57113" width="3.79318" height="3.8024"/><rect class="cls-1" x="439.82771" y="125.57113" width="3.79318" height="3.8024"/><rect class="cls-1" x="444.56782" y="125.57113" width="3.79318" height="3.8024"/><rect class="cls-1" x="449.30973" y="125.57113" width="3.79318" height="3.8024"/><rect class="cls-1" x="435.0876" y="130.32597" width="3.79318" height="3.8024"/><rect class="cls-1" x="439.82771" y="130.32597" width="3.79318" height="3.8024"/><rect class="cls-1" x="444.56782" y="130.32597" width="3.79318" height="3.8024"/><rect class="cls-1" x="449.30973" y="130.32597" width="3.79318" height="3.8024"/><rect class="cls-1" x="455.94556" y="116.06139" width="3.79503" height="3.80425"/><rect class="cls-1" x="460.68753" y="116.06139" width="3.79318" height="3.80425"/><rect class="cls-1" x="465.42764" y="116.06139" width="3.79318" height="3.80425"/><rect class="cls-1" x="470.1696" y="116.06139" width="3.79318" height="3.80425"/><rect class="cls-1" x="455.94556" y="120.81629" width="3.79503" height="3.8024"/><rect class="cls-1" x="460.68753" y="120.81629" width="3.79318" height="3.8024"/><rect class="cls-1" x="465.42764" y="120.81629" width="3.79318" height="3.8024"/><rect class="cls-1" x="470.1696" y="120.81629" width="3.79318" height="3.8024"/><rect class="cls-1" x="455.94556" y="125.57113" width="3.79503" height="3.8024"/><rect class="cls-1" x="460.68753" y="125.57113" width="3.79318" height="3.8024"/><rect class="cls-1" x="465.42764" y="125.57113" width="3.79318" height="3.8024"/><rect class="cls-1" x="470.1696" y="125.57113" width="3.79318" height="3.8024"/><rect class="cls-1" x="455.94556" y="130.32597" width="3.79503" height="3.8024"/><rect class="cls-1" x="460.68753" y="130.32597" width="3.79318" height="3.8024"/><rect class="cls-1" x="465.42764" y="130.32597" width="3.79318" height="3.8024"/><rect class="cls-1" x="470.1696" y="130.32597" width="3.79318" height="3.8024"/><rect class="cls-1" x="497.94151" y="11.45833" width="3.79318" height="3.80425"/><rect class="cls-1" x="502.68162" y="11.45833" width="3.79318" height="3.80425"/><rect class="cls-1" x="507.42179" y="11.45833" width="3.79318" height="3.80425"/><rect class="cls-1" x="512.1637" y="11.45833" width="3.79318" height="3.80425"/><rect class="cls-1" x="497.94151" y="16.21323" width="3.79318" height="3.8024"/><rect class="cls-1" x="502.68162" y="16.21323" width="3.79318" height="3.8024"/><rect class="cls-1" x="507.42179" y="16.21323" width="3.79318" height="3.8024"/><rect class="cls-1" x="512.1637" y="16.21323" width="3.79318" height="3.8024"/><rect class="cls-1" x="497.94151" y="20.96621" width="3.79318" height="3.80425"/><rect class="cls-1" x="502.68162" y="20.96621" width="3.79318" height="3.80425"/><rect class="cls-1" x="507.42179" y="20.96621" width="3.79318" height="3.80425"/><rect class="cls-1" x="512.1637" y="20.96621" width="3.79318" height="3.80425"/><rect class="cls-1" x="497.94151" y="25.72291" width="3.79318" height="3.80425"/><rect class="cls-1" x="502.68162" y="25.72291" width="3.79318" height="3.80425"/><rect class="cls-1" x="507.42179" y="25.72291" width="3.79318" height="3.80425"/><rect class="cls-1" x="512.1637" y="25.72105" width="3.79318" height="3.80425"/><rect class="cls-1" x="518.79953" y="11.45833" width="3.79318" height="3.80425"/><rect class="cls-1" x="523.53964" y="11.45833" width="3.79318" height="3.80425"/><rect class="cls-1" x="528.28155" y="11.45833" width="3.79503" height="3.80425"/><rect class="cls-1" x="533.02351" y="11.45833" width="3.79318" height="3.80425"/><rect class="cls-1" x="518.79953" y="16.21323" width="3.79318" height="3.8024"/><rect class="cls-1" x="523.53964" y="16.21323" width="3.79318" height="3.8024"/><rect class="cls-1" x="528.28155" y="16.21323" width="3.79503" height="3.8024"/><rect class="cls-1" x="533.02351" y="16.21323" width="3.79318" height="3.8024"/><rect class="cls-1" x="518.79953" y="20.96621" width="3.79318" height="3.80425"/><rect class="cls-1" x="523.53964" y="20.96621" width="3.79318" height="3.80425"/><rect class="cls-1" x="528.28155" y="20.96621" width="3.79503" height="3.80425"/><rect class="cls-1" x="533.02351" y="20.96621" width="3.79318" height="3.80425"/><rect class="cls-1" x="518.79953" y="25.72291" width="3.79318" height="3.80425"/><rect class="cls-1" x="523.53964" y="25.72291" width="3.79318" height="3.80425"/><rect class="cls-1" x="528.28155" y="25.72291" width="3.79503" height="3.80425"/><rect class="cls-1" x="533.02351" y="25.72291" width="3.79318" height="3.80425"/><rect class="cls-1" x="539.65934" y="11.45833" width="3.79318" height="3.80425"/><rect class="cls-1" x="544.40125" y="11.45833" width="3.79318" height="3.80425"/><rect class="cls-1" x="549.14142" y="11.45833" width="3.79318" height="3.80425"/><rect class="cls-1" x="553.88153" y="11.45833" width="3.79318" height="3.80425"/><rect class="cls-1" x="539.65934" y="16.21323" width="3.79318" height="3.8024"/><rect class="cls-1" x="544.40125" y="16.21323" width="3.79318" height="3.8024"/><rect class="cls-1" x="549.14142" y="16.21323" width="3.79318" height="3.8024"/><rect class="cls-1" x="553.88153" y="16.21323" width="3.79318" height="3.8024"/><rect class="cls-1" x="539.65934" y="20.96621" width="3.79318" height="3.80425"/><rect class="cls-1" x="544.40125" y="20.96621" width="3.79318" height="3.80425"/><rect class="cls-1" x="549.14142" y="20.96621" width="3.79318" height="3.80425"/><rect class="cls-1" x="553.88153" y="20.96621" width="3.79318" height="3.80425"/><rect class="cls-1" x="539.65934" y="25.72291" width="3.79318" height="3.80425"/><rect class="cls-1" x="544.40125" y="25.72105" width="3.79318" height="3.80425"/><rect class="cls-1" x="549.14142" y="25.72291" width="3.79318" height="3.80425"/><rect class="cls-1" x="553.88153" y="25.72291" width="3.79318" height="3.80425"/><rect class="cls-1" x="560.51916" y="11.45833" width="3.79318" height="3.80425"/><rect class="cls-1" x="565.25927" y="11.45833" width="3.79318" height="3.80425"/><rect class="cls-1" x="569.99938" y="11.45833" width="3.79503" height="3.80425"/><rect class="cls-1" x="574.74314" y="11.45833" width="3.79318" height="3.80425"/><rect class="cls-1" x="560.51916" y="16.21323" width="3.79318" height="3.8024"/><rect class="cls-1" x="565.25927" y="16.21323" width="3.79318" height="3.8024"/><rect class="cls-1" x="569.99938" y="16.21323" width="3.79503" height="3.8024"/><rect class="cls-1" x="574.74314" y="16.21323" width="3.79318" height="3.8024"/><rect class="cls-1" x="560.51916" y="20.96621" width="3.79318" height="3.80425"/><rect class="cls-1" x="565.25927" y="20.96621" width="3.79318" height="3.80425"/><rect class="cls-1" x="569.99938" y="20.96621" width="3.79503" height="3.80425"/><rect class="cls-1" x="574.74314" y="20.96621" width="3.79318" height="3.80425"/><rect class="cls-1" x="560.51916" y="25.72291" width="3.79318" height="3.80425"/><rect class="cls-1" x="565.25927" y="25.72291" width="3.79318" height="3.80425"/><rect class="cls-1" x="569.99938" y="25.72291" width="3.79503" height="3.80425"/><rect class="cls-1" x="574.74314" y="25.72105" width="3.79318" height="3.80425"/><rect class="cls-1" x="560.51916" y="32.37898" width="3.79318" height="3.80425"/><rect class="cls-1" x="565.25927" y="32.37898" width="3.79318" height="3.80425"/><rect class="cls-1" x="569.99938" y="32.37898" width="3.79503" height="3.80425"/><rect class="cls-1" x="574.74314" y="32.37898" width="3.79318" height="3.80425"/><rect class="cls-1" x="560.51916" y="37.13382" width="3.79318" height="3.8024"/><rect class="cls-1" x="565.25927" y="37.13382" width="3.79318" height="3.8024"/><rect class="cls-1" x="569.99938" y="37.13382" width="3.79503" height="3.8024"/><rect class="cls-1" x="574.74314" y="37.13382" width="3.79318" height="3.8024"/><rect class="cls-1" x="560.51916" y="41.88866" width="3.79318" height="3.8024"/><rect class="cls-1" x="565.25927" y="41.88866" width="3.79318" height="3.8024"/><rect class="cls-1" x="569.99938" y="41.88866" width="3.79503" height="3.8024"/><rect class="cls-1" x="574.74314" y="41.88866" width="3.79318" height="3.8024"/><rect class="cls-1" x="560.51916" y="46.6417" width="3.79318" height="3.80425"/><rect class="cls-1" x="565.25927" y="46.6417" width="3.79318" height="3.80425"/><rect class="cls-1" x="569.99938" y="46.6417" width="3.79503" height="3.80425"/><rect class="cls-1" x="574.74314" y="46.6417" width="3.79318" height="3.80425"/><rect class="cls-1" x="539.65934" y="53.29957" width="3.79318" height="3.80425"/><rect class="cls-1" x="544.40125" y="53.29957" width="3.79318" height="3.80425"/><rect class="cls-1" x="549.14142" y="53.29957" width="3.79318" height="3.80425"/><rect class="cls-1" x="553.88153" y="53.29957" width="3.79318" height="3.80425"/><rect class="cls-1" x="539.65934" y="58.05441" width="3.79318" height="3.80425"/><rect class="cls-1" x="544.40125" y="58.05441" width="3.79318" height="3.80425"/><rect class="cls-1" x="549.14142" y="58.05441" width="3.79318" height="3.80425"/><rect class="cls-1" x="553.88153" y="58.05441" width="3.79318" height="3.80425"/><rect class="cls-1" x="539.65934" y="62.8093" width="3.79318" height="3.8024"/><rect class="cls-1" x="544.40125" y="62.8093" width="3.79318" height="3.8024"/><rect class="cls-1" x="549.14142" y="62.8093" width="3.79318" height="3.8024"/><rect class="cls-1" x="553.88153" y="62.8093" width="3.79318" height="3.8024"/><rect class="cls-1" x="539.65934" y="67.56229" width="3.79318" height="3.80425"/><rect class="cls-1" x="544.40125" y="67.56229" width="3.79318" height="3.80425"/><rect class="cls-1" x="549.14142" y="67.56229" width="3.79318" height="3.80425"/><rect class="cls-1" x="553.88153" y="67.56229" width="3.79318" height="3.80425"/><rect class="cls-1" x="518.79953" y="74.22021" width="3.79318" height="3.80425"/><rect class="cls-1" x="523.53964" y="74.22021" width="3.79318" height="3.80425"/><rect class="cls-1" x="528.28155" y="74.22021" width="3.79503" height="3.80425"/><rect class="cls-1" x="533.02351" y="74.22021" width="3.79318" height="3.80425"/><rect class="cls-1" x="518.79953" y="78.97505" width="3.79318" height="3.80425"/><rect class="cls-1" x="523.53964" y="78.97505" width="3.79318" height="3.80425"/><rect class="cls-1" x="528.28155" y="78.97505" width="3.79503" height="3.80425"/><rect class="cls-1" x="533.02351" y="78.97505" width="3.79318" height="3.80425"/><rect class="cls-1" x="518.79953" y="83.72989" width="3.79318" height="3.8024"/><rect class="cls-1" x="523.53964" y="83.72989" width="3.79318" height="3.8024"/><rect class="cls-1" x="528.28155" y="83.72989" width="3.79503" height="3.8024"/><rect class="cls-1" x="533.02351" y="83.72989" width="3.79318" height="3.8024"/><rect class="cls-1" x="518.79953" y="88.48293" width="3.79318" height="3.80425"/><rect class="cls-1" x="523.53964" y="88.48293" width="3.79318" height="3.80425"/><rect class="cls-1" x="528.28155" y="88.48293" width="3.79503" height="3.80425"/><rect class="cls-1" x="533.02351" y="88.48293" width="3.79318" height="3.80425"/><rect class="cls-1" x="497.94151" y="95.1408" width="3.79318" height="3.80425"/><rect class="cls-1" x="502.68162" y="95.1408" width="3.79318" height="3.80425"/><rect class="cls-1" x="507.42179" y="95.1408" width="3.79318" height="3.80425"/><rect class="cls-1" x="512.1637" y="95.1408" width="3.79318" height="3.80425"/><rect class="cls-1" x="497.94151" y="99.89564" width="3.79318" height="3.80425"/><rect class="cls-1" x="502.68162" y="99.89564" width="3.79318" height="3.80425"/><rect class="cls-1" x="507.42179" y="99.89564" width="3.79318" height="3.80425"/><rect class="cls-1" x="512.1637" y="99.89564" width="3.79318" height="3.80425"/><rect class="cls-1" x="497.94151" y="104.65048" width="3.79318" height="3.8024"/><rect class="cls-1" x="502.68162" y="104.65048" width="3.79318" height="3.8024"/><rect class="cls-1" x="507.42179" y="104.65048" width="3.79318" height="3.8024"/><rect class="cls-1" x="512.1637" y="104.65054" width="3.79318" height="3.8024"/><rect class="cls-1" x="497.94151" y="109.40538" width="3.79318" height="3.8024"/><rect class="cls-1" x="502.68162" y="109.40538" width="3.79318" height="3.8024"/><rect class="cls-1" x="507.42179" y="109.40538" width="3.79318" height="3.8024"/><rect class="cls-1" x="512.1637" y="109.40538" width="3.79318" height="3.8024"/><rect class="cls-1" x="497.94151" y="116.06139" width="3.79318" height="3.80425"/><rect class="cls-1" x="502.68162" y="116.06139" width="3.79318" height="3.80425"/><rect class="cls-1" x="507.42179" y="116.06139" width="3.79318" height="3.80425"/><rect class="cls-1" x="512.1637" y="116.06139" width="3.79318" height="3.80425"/><rect class="cls-1" x="497.94151" y="120.81629" width="3.79318" height="3.8024"/><rect class="cls-1" x="502.68162" y="120.81629" width="3.79318" height="3.8024"/><rect class="cls-1" x="507.42179" y="120.81629" width="3.79318" height="3.8024"/><rect class="cls-1" x="512.1637" y="120.81629" width="3.79318" height="3.8024"/><rect class="cls-1" x="497.94151" y="125.57113" width="3.79318" height="3.8024"/><rect class="cls-1" x="502.68162" y="125.57113" width="3.79318" height="3.8024"/><rect class="cls-1" x="507.42179" y="125.57113" width="3.79318" height="3.8024"/><rect class="cls-1" x="512.1637" y="125.57113" width="3.79318" height="3.8024"/><rect class="cls-1" x="497.94151" y="130.32597" width="3.79318" height="3.8024"/><rect class="cls-1" x="502.68162" y="130.32597" width="3.79318" height="3.8024"/><rect class="cls-1" x="507.42179" y="130.32597" width="3.79318" height="3.8024"/><rect class="cls-1" x="512.1637" y="130.32597" width="3.79318" height="3.8024"/><rect class="cls-1" x="518.79953" y="116.06139" width="3.79318" height="3.80425"/><rect class="cls-1" x="523.53964" y="116.06139" width="3.79318" height="3.80425"/><rect class="cls-1" x="528.28155" y="116.06139" width="3.79503" height="3.80425"/><rect class="cls-1" x="533.02351" y="116.06139" width="3.79318" height="3.80425"/><rect class="cls-1" x="518.79953" y="120.81629" width="3.79318" height="3.8024"/><rect class="cls-1" x="523.53964" y="120.81629" width="3.79318" height="3.8024"/><rect class="cls-1" x="528.28155" y="120.81629" width="3.79503" height="3.8024"/><rect class="cls-1" x="533.02351" y="120.81629" width="3.79318" height="3.8024"/><rect class="cls-1" x="518.79953" y="125.57113" width="3.79318" height="3.8024"/><rect class="cls-1" x="523.53964" y="125.57113" width="3.79318" height="3.8024"/><rect class="cls-1" x="528.28155" y="125.57113" width="3.79503" height="3.8024"/><rect class="cls-1" x="533.02351" y="125.57113" width="3.79318" height="3.8024"/><rect class="cls-1" x="518.79953" y="130.32597" width="3.79318" height="3.8024"/><rect class="cls-1" x="523.53964" y="130.32597" width="3.79318" height="3.8024"/><rect class="cls-1" x="528.28155" y="130.32597" width="3.79503" height="3.8024"/><rect class="cls-1" x="533.02351" y="130.32597" width="3.79318" height="3.8024"/><rect class="cls-1" x="539.65934" y="116.06139" width="3.79318" height="3.80425"/><rect class="cls-1" x="544.40125" y="116.06139" width="3.79318" height="3.80425"/><rect class="cls-1" x="549.14142" y="116.06139" width="3.79318" height="3.80425"/><rect class="cls-1" x="553.88153" y="116.06139" width="3.79318" height="3.80425"/><rect class="cls-1" x="539.65934" y="120.81629" width="3.79318" height="3.8024"/><rect class="cls-1" x="544.40125" y="120.81629" width="3.79318" height="3.8024"/><rect class="cls-1" x="549.14142" y="120.81629" width="3.79318" height="3.8024"/><rect class="cls-1" x="553.88153" y="120.81629" width="3.79318" height="3.8024"/><rect class="cls-1" x="539.65934" y="125.57113" width="3.79318" height="3.8024"/><rect class="cls-1" x="544.40125" y="125.57113" width="3.79318" height="3.8024"/><rect class="cls-1" x="549.14142" y="125.57113" width="3.79318" height="3.8024"/><rect class="cls-1" x="553.88153" y="125.57113" width="3.79318" height="3.8024"/><rect class="cls-1" x="539.65934" y="130.32597" width="3.79318" height="3.8024"/><rect class="cls-1" x="544.40125" y="130.32597" width="3.79318" height="3.8024"/><rect class="cls-1" x="549.14142" y="130.32597" width="3.79318" height="3.8024"/><rect class="cls-1" x="553.88153" y="130.32597" width="3.79318" height="3.8024"/><rect class="cls-1" x="560.51916" y="116.06139" width="3.79318" height="3.80425"/><rect class="cls-1" x="565.25927" y="116.06139" width="3.79318" height="3.80425"/><rect class="cls-1" x="569.99938" y="116.06139" width="3.79503" height="3.80425"/><rect class="cls-1" x="574.74314" y="116.06139" width="3.79318" height="3.80425"/><rect class="cls-1" x="560.51916" y="120.81629" width="3.79318" height="3.8024"/><rect class="cls-1" x="565.25927" y="120.81629" width="3.79318" height="3.8024"/><rect class="cls-1" x="569.99938" y="120.81629" width="3.79503" height="3.8024"/><rect class="cls-1" x="574.74314" y="120.81629" width="3.79318" height="3.8024"/><rect class="cls-1" x="560.51916" y="125.57113" width="3.79318" height="3.8024"/><rect class="cls-1" x="565.25927" y="125.57113" width="3.79318" height="3.8024"/><rect class="cls-1" x="569.99938" y="125.57113" width="3.79503" height="3.8024"/><rect class="cls-1" x="574.74314" y="125.57113" width="3.79318" height="3.8024"/><rect class="cls-1" x="560.51916" y="130.32597" width="3.79318" height="3.8024"/><rect class="cls-1" x="565.25927" y="130.32597" width="3.79318" height="3.8024"/><rect class="cls-1" x="569.99938" y="130.32597" width="3.79503" height="3.8024"/><rect class="cls-1" x="574.74314" y="130.32597" width="3.79318" height="3.8024"/><rect class="cls-1" x="16.74166" y="116.06139" width="3.8024" height="3.80425"/><rect class="cls-1" x="21.49653" y="116.06139" width="3.8024" height="3.80425"/><rect class="cls-1" x="26.24952" y="116.06139" width="3.80425" height="3.80425"/><rect class="cls-1" x="31.00436" y="116.06139" width="3.80425" height="3.80425"/><rect class="cls-1" x="16.74166" y="120.81629" width="3.8024" height="3.8024"/><rect class="cls-1" x="21.49653" y="120.81629" width="3.8024" height="3.8024"/><rect class="cls-1" x="26.24952" y="120.81629" width="3.80425" height="3.8024"/><rect class="cls-1" x="31.00436" y="120.81629" width="3.80425" height="3.8024"/><rect class="cls-1" x="16.74166" y="125.57113" width="3.8024" height="3.8024"/><rect class="cls-1" x="21.49653" y="125.57113" width="3.8024" height="3.8024"/><rect class="cls-1" x="26.24952" y="125.57113" width="3.80425" height="3.8024"/><rect class="cls-1" x="31.00436" y="125.57113" width="3.80425" height="3.8024"/><rect class="cls-1" x="16.74166" y="130.32597" width="3.8024" height="3.8024"/><rect class="cls-1" x="21.49653" y="130.32597" width="3.8024" height="3.8024"/><rect class="cls-1" x="26.24952" y="130.32597" width="3.80425" height="3.8024"/><rect class="cls-1" x="31.00439" y="130.32597" width="3.80425" height="3.8024"/></svg>