<svg xmlns="http://www.w3.org/2000/svg" role="img" viewBox="-5.22 -3.22 687.44 552.44"><title>Accord.NET logo</title><path d="M459.5 10.4c-.5.2-3.5 1.2-6.5 2.1-16 4.9-29.9 18.4-40 38.5-9.7 19.3-14.5 37.7-20 76.5-.6 4.4-1.5 10.7-2 14-.5 3.3-1.4 10-2 15-.6 4.9-1.7 13.3-2.3 18.5l-1.3 9.4-3.9.9c-31.1 6.9-53.3 23.4-66.2 49.2-6.9 13.7-9.8 27.3-9 41.8 1.8 33.3 19.6 61 48 74.8 4.5 2.2 9.3 4.6 10.7 5.3 2.3 1.1 2.5 1.6 2.2 7.7-.6 13.8-3.3 48.3-5.8 73.9-4.1 40.9-11.3 64.7-23.4 77-8.3 8.5-13.2 10.4-26 10.5-6.2 0-12.1-.6-14.5-1.4-8.3-2.8-13.5-5.4-13.5-6.7 0-.8 1.7-2.1 3.7-2.9 5-2.1 7.2-4.2 9.4-9 4.1-8.9 1.3-20.2-6.2-25.2-3.7-2.4-5.2-2.8-11.3-2.7-9 0-13.5 2.6-17.1 9.8-7.3 14.5 2.1 33.6 20.9 42.5 10.7 5.1 16.9 6.5 29.6 6.5 22.9 0 41.3-10.6 56.7-32.6 7.8-11.1 17.4-33.5 20.3-47.3.4-2.2 1.8-8.4 2.9-13.9 2.3-10.4 2.5-11.7 6.5-42.6 1.4-10.7 3-23.3 3.6-28 .6-4.6 1.6-9 2.1-9.6.5-.6 2.7-1.4 4.9-1.8 18-2.9 40.4-15.8 52.3-30.1 21.8-26.3 27.1-59.1 14.6-90.7-8-20.2-27.4-39.5-48.4-48l-6-2.5.2-8.9c.2-4.9.7-14.5 1.2-21.4.6-6.9 1.5-19.3 2.1-27.5 2.7-37.1 7.1-66.7 12-80.9 4.3-12.5 12.2-23.6 19.4-27 9.6-4.5 23.2-4.1 34.8 1 8.1 3.7 8.9 4.9 4.1 6.9-10.9 4.6-15.6 17.7-10.3 29.4 1.1 2.4 2 4.5 2 4.7 0 .2-8.2.5-18.2.6l-18.3.3-.3 14.4c-.1 8.2.2 14.9.7 15.4.6.6 2.2.1 4.2-1.4 2.4-1.7 5-2.4 9.4-2.7 5.2-.3 6.5 0 10.2 2.4 10.6 7 11.3 21.6 1.2 29.6-6.1 4.9-15.2 5-20.9.2-1.6-1.4-3.4-2.3-4-1.9-1.5.9-1.3 42.8.2 44.3.9.9 6.8 1.2 20.5 1.2 10.6 0 19.3-.2 19.3-.5s-1.2-2.4-2.7-4.7c-2.3-3.4-2.8-5.3-2.8-10.3 0-5.2.4-6.7 2.9-9.9 4.2-5.5 8.1-7.6 14.6-7.6 13.8 0 22.1 14.2 15.5 26.4-1.5 2.8-2.2 5.3-1.7 5.8.5.5 8.2.7 17.3.6l16.4-.3.3-18.3c.3-19.4.3-19.5 5.2-16.7 3.4 1.9 12.4 1.9 16.6-.1 4.6-2.2 8.9-7.6 10.5-13.1 4.2-15.2-12-29-26.8-22.8-1.9.8-3.9 1.5-4.4 1.5-.5 0-1-7.1-1.1-15.8l-.3-15.7-15.7-.3c-8.7-.1-15.8-.6-15.8-1.1 0-.4.8-2.3 1.8-4.2 2.3-4.6 2.2-13.8-.3-21.4-3.8-11.6-14.2-21.1-29-26.1-6.7-2.3-10-2.8-20-3.1-6.6-.1-12.4-.1-13 .1zm-78 200.7c0 3-.6 10.8-1.3 17.4-.8 6.6-1.7 16-2.2 21-1 10.3-5.2 50.9-7.6 72.5-.8 8-1.8 14.7-2 15-.9.8-11.3-5.3-17.4-10.3-21.1-17.3-30.1-44.6-23.4-71.2 4.6-17.8 19.2-35.4 36.4-43.7 10-4.9 14.8-6.7 16.5-6.3.6.1 1 2.6 1 5.6zm50.3 3.5c14.5 9.1 26.5 25.4 30.7 41.9.9 3.2 1.5 10.1 1.5 16.3 0 12.6-2.2 21.9-7.8 32.7-4.9 9.6-19 23.7-28.7 28.7-8.7 4.4-18.2 7.5-19.4 6.2-.6-.5.1-10.3 1.5-23.9 1.3-12.7 2.8-27.7 3.3-33.5.6-5.8 2-19.5 3.1-30.5s2.5-24.7 3-30.5c.6-5.8 1.2-11.1 1.5-11.7.6-1.7 3.8-.4 11.3 4.3zm206.2 5.9c0 26.5-.4 30.9-2.6 27.4-.4-.7-4-2.7-8-4.5-6-2.8-8.4-3.4-14.2-3.4-18 0-34 11.7-39.7 29-3.8 11.6-1.7 29.4 4.5 38.4 9.4 13.7 22.5 20.5 37.1 19.3 7.2-.6 16.3-4.2 19.3-7.6 2.7-3 3.6-2.6 3.6 1.4v3.5h29V192h-29v28.5zm-10.3 46.6c6.4 3.1 9.6 7.8 10.1 15 .5 7.3-.9 11-6.1 15.4-8.1 7-20.5 5.2-26.5-3.8-3.9-5.8-3.8-14.6 0-20.5 5.2-7.8 14.1-10.2 22.5-6.1zM53.1 206.2c-.5 1.3-2.6 6.6-4.6 11.8-6.6 16.9-13.1 33.9-25 65-11.9 31.2-13.1 34.2-14.6 37.2-1.8 3.6-1.1 3.8 15.5 3.8h16.4l3.7-9.3c2-5 4.1-9.8 4.7-10.5.8-.9 6.3-1.2 21.4-1.2 23.4 0 21.3-.9 25.4 11 3.8 11 1.8 10 21 10 9.4 0 17-.2 17-.5s-.6-1.6-1.4-2.8c-.8-1.2-3.7-8.5-6.6-16.2-2.8-7.7-7-18.7-9.2-24.5-2.2-5.8-5.3-14-6.9-18.3-1.6-4.2-4.2-11.2-5.8-15.5-1.6-4.2-5.5-14.5-8.6-22.7-3-8.3-6-16-6.5-17.3-.9-2.2-1.3-2.2-18-2.2-16.8 0-17.1 0-17.9 2.2zm24.3 55c3.1 9.2 5.6 16.9 5.6 17.2 0 .8-23.5.8-24.2.1-.3-.3 1.5-6.3 3.9-13.3 2.4-7 5.1-14.9 6-17.5.9-2.6 2-4.4 2.4-4 .4.4 3.3 8.3 6.3 17.5zm92.8-18.6c-8.6 3.2-12 5.4-18.1 11.9-23.3 24.6-10.1 64.4 23.9 71.6 6.3 1.3 18.6.6 24.5-1.5l4-1.4.3-12.6c.1-6.9 0-12.6-.4-12.6-.3 0-2 1-3.7 2.2-2.5 1.8-4.5 2.2-10.2 2.2-6 0-7.6-.4-11.2-2.8-6-4-8.7-10-8-17.6.6-6.6 2.8-10.4 8.3-14.6 4.8-3.7 15.1-3.9 20.8-.6 2.1 1.2 4.1 2 4.4 1.8.4-.2.6-5.8.4-12.4l-.3-12-6.5-2.1c-8.9-2.9-19.7-2.7-28.2.5zm77.8 0c-16.1 6-26.5 18.4-29.2 34.8-2.8 16.9 7.1 36.3 22.5 44.2 11.1 5.7 27.1 6.9 37.5 2.8l4.2-1.7v-12.4c0-6.7-.3-12.3-.6-12.3s-2 1-3.7 2.2c-2.5 1.8-4.5 2.2-10.2 2.2-6 0-7.6-.4-11.2-2.8-5.9-3.9-8.7-9.9-8.1-17.5.4-6.4 2.7-10.4 8.4-14.7 4.7-3.7 15.1-3.9 20.8-.6 2 1.2 3.9 2.2 4.2 2.2.2 0 .4-5.6.4-12.4v-12.3l-6.5-2.2c-9-2.9-19.8-2.7-28.5.5z"/><path d="M501 283v41h29v-21c0-16.8.3-21.8 1.5-24.8 1.9-4.4 5-7.9 8.8-9.9 3.4-1.7 16.2-1.9 18.3-.2 3.3 2.7 3.9.5 3.6-13l-.3-13.1H555c-8.6 0-16.1 3-20.7 8.3-1.8 2.1-3.5 3.7-3.7 3.7-.3 0-.6-2.6-.8-5.8l-.3-5.7-14.2-.3-14.3-.3V283zm5.4 118.3c-.2.7-.3 11.4-.2 23.7l.3 22.5h13l.3-11.8c.2-8.2.6-11.7 1.4-11.5.6.2 4.7 5.7 9.1 12.1l8 11.7H552v-22.4c0-12.3.3-23.2.6-24.1.6-1.4-.3-1.6-6.7-1.3l-7.4.3-.3 11.2c-.1 6.2-.6 11.3-1.1 11.3-.4 0-4.3-5.2-8.6-11.5l-7.9-11.5h-6.8c-4.6 0-7 .4-7.4 1.3zm63.6-1.1c0 .2-.1 10.9-.1 23.8v23.5h40.5v-10l-12.7-.3-12.8-.3.3-4.7.3-4.7 11.3-.3 11.3-.3-.3-4.6-.3-4.7-10 .2c-5.5.2-10.6-.1-11.3-.6-.8-.5-1.2-2.2-1-3.8l.3-2.9 12-.5 12-.5.3-4.8.3-4.7h-20c-11.1 0-20.1.1-20.1.2zm54.2 5.5l.3 5.8 5.8-.3c3.5-.2 6.4.2 7.3.9 1.1.9 1.4 4.7 1.4 18.6v17.4l7.6-.3 7.7-.3-.2-17.1c-.2-19.9-.3-19.8 8.6-19.2l5.8.3.3-5.8.3-5.7h-45.2l.3 5.7zM13 429.5V445h24v-5.9l-7.2-.3c-7-.3-7.3-.4-7.3-2.8s.4-2.5 6.5-3 6.5-.6 6.5-3-.4-2.5-6.5-3-6.5-.6-6.5-3 .3-2.5 7-3l7-.5v-6l-11.7-.3-11.8-.3v15.6zm201.6-14.6c-.3.5-.2 2.1.4 3.5 1.6 4.4 8.5 3.1 7.8-1.5-.2-2-1-2.5-4-2.7-2-.2-3.9.1-4.2.7zM89.7 417c-1.6 1-3.5 3-4.3 4.5-1.6 3.2-1.9 7.5-.4 7.5.6 0 1 2.3 1 5 0 2.8.7 6.4 1.5 8 1.4 2.7 2 3 6.5 3 2.7 0 5.1-.3 5.3-.8.8-1.3-1.2-5.2-2.8-5.2-1.1 0-1.5-1.2-1.5-5 0-4.2.3-5 1.9-5 1.2 0 2-.9 2.4-2.6.3-2-.1-2.8-1.9-3.6-1.8-.9-2.4-1.9-2.4-4.5 0-3.8-1.1-4-5.3-1.3zm-41.2 6c-.4.6 0 1.7.7 2.3 1.9 1.5 5.8 7.2 5.8 8.4 0 .4-1.8 3.1-4 6-2.1 2.9-3.6 5.4-3.2 5.6.4.2 2.6.2 4.8 0 3.1-.4 4.5-1.1 5.5-2.9 1.6-3.1 3.6-3.1 5 0 .9 1.8 2.1 2.5 5.3 2.9 2.2.2 4.4.1 4.8-.2.4-.4-.8-2.9-2.7-5.6-1.9-2.6-3.5-5.4-3.5-6.1 0-.7 1.5-3.3 3.4-5.7 1.9-2.5 3.2-4.7 3-5-.3-.3-2.4-.3-4.7 0-2.8.4-4.9 1.4-6.2 3l-2.1 2.5-1.2-2.6c-.9-1.9-1.9-2.6-4.1-2.6-1.6 0-3.6-.3-4.4-.6-.8-.3-1.8 0-2.2.6zm65.5 2.8c-3.1 2.6-3.4 3.4-3.4 8.2 0 4.7.4 5.6 3.2 8.1 2.7 2.4 4.1 2.9 8.6 2.9 4.4 0 5.8-.4 8-2.6 3.6-3.7 3.4-5.4-.7-5.4-1.8 0-3.8.5-4.4 1.1-1.6 1.6-5.7.7-6.1-1.4-.3-1.5.5-1.7 7.1-1.7 4 0 7.6-.3 7.9-.6 1-1-1.1-6.6-3.4-9.1-1.7-1.9-3.2-2.3-7.8-2.3-4.7 0-6.1.5-9 2.8zm11 4.2c0 .5-1.1 1-2.4 1-1.4 0-2.8-.5-3.1-1-.4-.6.7-1 2.4-1s3.1.4 3.1 1zm21 4v11h8v-6.9c0-7.2 1.4-9.9 4.5-8.7 1.1.4 1.5 2.3 1.5 8v7.4l3.8.5c2 .2 3.9.2 4.3-.2.3-.3.3-4.7 0-9.8-.5-7.7-.9-9.5-2.6-10.7-2.4-1.8-5.9-2-8.8-.5-1.6.9-2.2.9-2.5 0-.2-.6-2.1-1.1-4.3-1.1H146v11zm37.2-9.2c-1.8 1.4-2.3 2.6-2 5.3.3 3.6 3 5.6 9.3 6.9 3.8.8 4.8 4 1.1 4-1.4 0-2.8-.5-3.1-1-.8-1.4-7.2-1.3-8.1.1-1.4 2.4 3.8 4.9 10.2 4.9 5.1 0 6.5-.4 8.8-2.5 5.3-4.9 1.9-11.5-6-11.5-3.7 0-5.4-1.1-5.4-3.6 0-.9 4.9-.3 5.5.6.7 1.1 5.8 1.4 6.8.3.4-.3-.3-1.7-1.5-3-1.8-1.9-3.2-2.3-7.7-2.3-3.8 0-6.3.6-7.9 1.8zm31.8 9.1V445h8.1l-.3-10.8-.3-10.7-3.7-.3-3.8-.3v11zm24.1-7.8c-2.6 2.6-3.1 3.8-3.1 7.9 0 4.1.5 5.3 3.1 7.9 2.6 2.7 3.8 3.1 8.1 3.1 3.9 0 5.9-.6 8.5-2.6 3-2.3 3.3-2.9 3.3-8 0-5-.4-5.9-3.1-8.5-2.6-2.4-3.9-2.9-8.4-2.9-4.6 0-5.8.4-8.4 3.1zm11.5 5.3c1.4 5.7-1.6 9.5-5.1 6.6-1.8-1.5-2-6.1-.3-7.8 2-2 4.7-1.4 5.4 1.2zm21.1-7.7c-.4.3-.7 5.1-.7 10.5 0 10.5 0 10.5 5.4 11 3 .3 3 .3 3.3-5.7.5-8.6 1.1-10.7 3.1-10.3 1.4.3 1.8 1.7 2 8.1l.3 7.7h9.1l-.4-9c-.3-6.8-.8-9.4-2.3-11-2-2.2-6.4-2.6-9.8-.9-1.6.9-2.2.9-2.5 0-.4-1.2-6.4-1.6-7.5-.4zm36.5 1.3c-3.4 3.2-2.3 10 1.6 10 1 0 2.2.4 2.7.9.6.5 2.4 1.1 4 1.3 1.9.2 3 .9 3 1.8 0 1.8-4.3 2.6-5.8 1.1-1.4-1.4-7.4-1.4-8.3 0-.4.7.4 2 1.7 3 3.5 2.7 13.7 2.6 17.3-.2 5.4-4.3 1.9-11.9-5.5-11.9-4.2 0-7.3-2.5-4.4-3.6 1-.4 2.6-.2 3.6.4 2.4 1.5 7.9 1.6 7.9.1 0-4.7-13.5-6.8-17.8-2.9zm166 16.2l.3 6.3h14l.3-6.3.3-6.2h-15.2l.3 6.2z"/></svg>