<svg xmlns="http://www.w3.org/2000/svg" role="img" xmlns:xlink="http://www.w3.org/1999/xlink" viewBox="-6.52 -6.02 417.04 131.29"><title>Acumos logo</title><defs><style>.cls-3{fill:#5c0f8b}</style><linearGradient id="linear-gradient" x1="-3.591" x2="136.999" y1="61.842" y2="9.819" gradientUnits="userSpaceOnUse"><stop offset="0" stop-color="#65318f"/><stop offset=".211" stop-color="#633592"/><stop offset=".436" stop-color="#5c4299"/><stop offset=".666" stop-color="#5257a6"/><stop offset=".814" stop-color="#4969b1"/></linearGradient><linearGradient id="linear-gradient-2" x1="2.186" x2="142.776" y1="77.455" y2="25.432" xlink:href="#linear-gradient"/><linearGradient id="linear-gradient-3" x1="4.166" x2="144.755" y1="82.805" y2="30.782" xlink:href="#linear-gradient"/><linearGradient id="linear-gradient-4" x1="6.905" x2="147.495" y1="90.207" y2="38.185" xlink:href="#linear-gradient"/><linearGradient id="linear-gradient-5" x1="3.995" x2="144.585" y1="82.344" y2="30.321" xlink:href="#linear-gradient"/><linearGradient id="linear-gradient-6" x1="11.85" x2="152.44" y1="103.571" y2="51.549" xlink:href="#linear-gradient"/><linearGradient id="linear-gradient-7" x1="-11.858" x2="128.732" y1="39.502" y2="-12.52" xlink:href="#linear-gradient"/><linearGradient id="linear-gradient-8" x1="16.044" x2="156.634" y1="114.905" y2="62.882" xlink:href="#linear-gradient"/><linearGradient id="linear-gradient-9" x1="-3.016" x2="137.574" y1="63.398" y2="11.375" xlink:href="#linear-gradient"/><linearGradient id="linear-gradient-10" x1="-13.382" x2="127.208" y1="35.382" y2="-16.64" xlink:href="#linear-gradient"/><linearGradient id="linear-gradient-11" x1="-2.384" x2="138.206" y1="65.105" y2="13.083" xlink:href="#linear-gradient"/><linearGradient id="linear-gradient-12" x1="-13.823" x2="126.766" y1="34.19" y2="-17.833" xlink:href="#linear-gradient"/><linearGradient id="linear-gradient-13" x1="10.132" x2="150.722" y1="98.928" y2="46.906" xlink:href="#linear-gradient"/><linearGradient id="linear-gradient-14" x1="-7.389" x2="133.201" y1="51.58" y2="-.443" xlink:href="#linear-gradient"/><linearGradient id="linear-gradient-15" x1="-9.188" x2="131.402" y1="46.716" y2="-5.306" xlink:href="#linear-gradient"/><linearGradient id="linear-gradient-16" x1="18.868" x2="159.458" y1="122.538" y2="70.515" xlink:href="#linear-gradient"/><linearGradient id="linear-gradient-17" x1="5.115" x2="145.705" y1="85.371" y2="33.349" xlink:href="#linear-gradient"/><linearGradient id="linear-gradient-18" x1="21.266" x2="161.856" y1="129.018" y2="76.995" xlink:href="#linear-gradient"/><linearGradient id="linear-gradient-19" x1="22.42" x2="163.009" y1="132.136" y2="80.113" xlink:href="#linear-gradient"/><linearGradient id="linear-gradient-20" x1="-2.251" x2="138.339" y1="65.463" y2="13.441" xlink:href="#linear-gradient"/><linearGradient id="linear-gradient-21" x1="24.272" x2="164.862" y1="137.142" y2="85.12" xlink:href="#linear-gradient"/><linearGradient id="linear-gradient-22" x1="19.331" x2="159.921" y1="123.789" y2="71.766" xlink:href="#linear-gradient"/><linearGradient id="linear-gradient-23" x1="18.732" x2="159.322" y1="122.171" y2="70.148" xlink:href="#linear-gradient"/><linearGradient id="linear-gradient-24" x1="4.806" x2="145.396" y1="84.536" y2="32.514" xlink:href="#linear-gradient"/><linearGradient id="linear-gradient-25" x1="11.507" x2="152.097" y1="102.644" y2="50.621" xlink:href="#linear-gradient"/><linearGradient id="linear-gradient-26" x1="25.539" x2="166.129" y1="140.567" y2="88.544" xlink:href="#linear-gradient"/><linearGradient id="linear-gradient-27" x1="5.683" x2="146.273" y1="86.905" y2="34.883" xlink:href="#linear-gradient"/><linearGradient id="linear-gradient-28" x1="14.808" x2="155.398" y1="111.567" y2="59.544" xlink:href="#linear-gradient"/><linearGradient id="linear-gradient-29" x1="11.792" x2="152.382" y1="103.414" y2="51.392" xlink:href="#linear-gradient"/><linearGradient id="linear-gradient-30" x1="17.971" x2="158.561" y1="120.113" y2="68.091" xlink:href="#linear-gradient"/><linearGradient id="linear-gradient-31" x1="18.41" x2="159" y1="121.3" y2="69.277" xlink:href="#linear-gradient"/><linearGradient id="linear-gradient-32" x1="17.316" x2="157.906" y1="118.344" y2="66.321" xlink:href="#linear-gradient"/><linearGradient id="linear-gradient-33" x1="3.558" x2="144.148" y1="81.162" y2="29.14" xlink:href="#linear-gradient"/><linearGradient id="linear-gradient-34" x1="-2.476" x2="138.114" y1="64.857" y2="12.835" xlink:href="#linear-gradient"/><linearGradient id="linear-gradient-35" x1="13.796" x2="154.386" y1="108.832" y2="56.809" xlink:href="#linear-gradient"/><linearGradient id="linear-gradient-36" x1="-5.146" x2="135.444" y1="57.64" y2="5.618" xlink:href="#linear-gradient"/><linearGradient id="linear-gradient-37" x1="-3.464" x2="137.126" y1="62.186" y2="10.163" xlink:href="#linear-gradient"/><linearGradient id="linear-gradient-38" x1="12.282" x2="152.852" y1="104.74" y2="52.724" xlink:href="#linear-gradient"/><linearGradient id="linear-gradient-39" x1="13.66" x2="154.25" y1="108.462" y2="56.44" xlink:href="#linear-gradient"/><linearGradient id="linear-gradient-40" x1="1.579" x2="142.168" y1="75.813" y2="23.791" xlink:href="#linear-gradient"/><linearGradient id="linear-gradient-41" x1="25.832" x2="166.422" y1="141.357" y2="89.335" xlink:href="#linear-gradient"/><linearGradient id="linear-gradient-42" x1="17.401" x2="157.991" y1="118.574" y2="66.551" xlink:href="#linear-gradient"/><linearGradient id="linear-gradient-43" x1="25.791" x2="166.381" y1="141.247" y2="89.225" xlink:href="#linear-gradient"/><linearGradient id="linear-gradient-44" x1="14.732" x2="155.322" y1="111.359" y2="59.337" xlink:href="#linear-gradient"/><linearGradient id="linear-gradient-45" x1="-.008" x2="140.582" y1="71.526" y2="19.504" xlink:href="#linear-gradient"/><linearGradient id="linear-gradient-46" x1="7.133" x2="147.723" y1="90.823" y2="38.801" xlink:href="#linear-gradient"/><linearGradient id="linear-gradient-47" x1="-1.566" x2="139.024" y1="67.315" y2="15.292" xlink:href="#linear-gradient"/><linearGradient id="linear-gradient-48" x1="23.949" x2="164.539" y1="136.27" y2="84.247" xlink:href="#linear-gradient"/><linearGradient id="linear-gradient-49" x1="18.96" x2="159.55" y1="122.785" y2="70.763" xlink:href="#linear-gradient"/><linearGradient id="linear-gradient-50" x1="-6.153" x2="134.437" y1="54.92" y2="2.897" xlink:href="#linear-gradient"/><linearGradient id="linear-gradient-51" x1="21.724" x2="162.314" y1="130.256" y2="78.233" xlink:href="#linear-gradient"/><linearGradient id="linear-gradient-52" x1="-8.225" x2="132.365" y1="49.32" y2="-2.703" xlink:href="#linear-gradient"/><linearGradient id="linear-gradient-53" x1="-4.876" x2="135.714" y1="58.37" y2="6.347" xlink:href="#linear-gradient"/><linearGradient id="linear-gradient-54" x1="-8.751" x2="131.839" y1="47.898" y2="-4.124" xlink:href="#linear-gradient"/><linearGradient id="linear-gradient-55" x1="-10.316" x2="130.273" y1="43.667" y2="-8.355" xlink:href="#linear-gradient"/><linearGradient id="linear-gradient-56" x1="14.386" x2="154.976" y1="110.425" y2="58.402" xlink:href="#linear-gradient"/><linearGradient id="linear-gradient-57" x1="11.182" x2="151.772" y1="101.767" y2="49.744" xlink:href="#linear-gradient"/><linearGradient id="linear-gradient-58" x1="-11.963" x2="128.627" y1="39.218" y2="-12.805" xlink:href="#linear-gradient"/><linearGradient id="linear-gradient-59" x1="13.961" x2="154.55" y1="109.275" y2="57.253" xlink:href="#linear-gradient"/><linearGradient id="linear-gradient-60" x1="3.832" x2="144.422" y1="81.904" y2="29.881" xlink:href="#linear-gradient"/><linearGradient id="linear-gradient-61" x1="5.167" x2="145.756" y1="85.51" y2="33.487" xlink:href="#linear-gradient"/><linearGradient id="linear-gradient-62" x1="-6.156" x2="134.434" y1="54.91" y2="2.887" xlink:href="#linear-gradient"/><linearGradient id="linear-gradient-63" x1="19.918" x2="160.508" y1="125.375" y2="73.352" xlink:href="#linear-gradient"/><linearGradient id="linear-gradient-64" x1=".947" x2="141.537" y1="74.107" y2="22.084" xlink:href="#linear-gradient"/><linearGradient id="linear-gradient-65" x1="28.431" x2="169.021" y1="148.381" y2="96.358" xlink:href="#linear-gradient"/><linearGradient id="linear-gradient-66" x1="-8.037" x2="132.553" y1="49.828" y2="-2.195" xlink:href="#linear-gradient"/><linearGradient id="linear-gradient-67" x1="7.035" x2="147.625" y1="90.56" y2="38.537" xlink:href="#linear-gradient"/><linearGradient id="linear-gradient-68" x1="-8.354" x2="132.236" y1="48.971" y2="-3.051" xlink:href="#linear-gradient"/><linearGradient id="linear-gradient-69" x1="17.243" x2="157.833" y1="118.145" y2="66.123" xlink:href="#linear-gradient"/><linearGradient id="linear-gradient-70" x1="-3.377" x2="137.213" y1="62.421" y2="10.398" xlink:href="#linear-gradient"/><linearGradient id="linear-gradient-71" x1="14.58" x2="155.17" y1="110.949" y2="58.927" xlink:href="#linear-gradient"/><linearGradient id="linear-gradient-72" x1="-14.368" x2="126.222" y1="32.718" y2="-19.305" xlink:href="#linear-gradient"/><linearGradient id="linear-gradient-73" x1="-13.952" x2="126.638" y1="33.842" y2="-18.18" xlink:href="#linear-gradient"/><linearGradient id="linear-gradient-74" x1="3.819" x2="144.408" y1="81.867" y2="29.844" xlink:href="#linear-gradient"/><linearGradient id="linear-gradient-75" x1="11.053" x2="151.643" y1="101.418" y2="49.396" xlink:href="#linear-gradient"/><linearGradient id="linear-gradient-76" x1="2.93" x2="143.52" y1="79.465" y2="27.442" xlink:href="#linear-gradient"/><linearGradient id="linear-gradient-77" x1="-4.772" x2="135.818" y1="58.652" y2="6.63" xlink:href="#linear-gradient"/><linearGradient id="linear-gradient-78" x1="-6.193" x2="134.397" y1="54.81" y2="2.787" xlink:href="#linear-gradient"/><linearGradient id="linear-gradient-79" x1="4.159" x2="144.749" y1="82.786" y2="30.763" xlink:href="#linear-gradient"/><linearGradient id="linear-gradient-80" x1="2.835" x2="143.425" y1="79.21" y2="27.187" xlink:href="#linear-gradient"/><linearGradient id="linear-gradient-81" x1="-9.669" x2="130.921" y1="45.418" y2="-6.604" xlink:href="#linear-gradient"/><linearGradient id="linear-gradient-82" x1="3.193" x2="143.783" y1="80.177" y2="28.155" xlink:href="#linear-gradient"/><linearGradient id="linear-gradient-83" x1="-1.989" x2="138.601" y1="66.173" y2="14.15" xlink:href="#linear-gradient"/><linearGradient id="linear-gradient-84" x1="5.058" x2="145.648" y1="85.216" y2="33.194" xlink:href="#linear-gradient"/><linearGradient id="linear-gradient-85" x1="15.322" x2="155.912" y1="112.954" y2="60.932" xlink:href="#linear-gradient"/><linearGradient id="linear-gradient-86" x1="9.82" x2="150.41" y1="98.085" y2="46.063" xlink:href="#linear-gradient"/><linearGradient id="linear-gradient-87" x1="13.742" x2="154.332" y1="108.686" y2="56.663" xlink:href="#linear-gradient"/><linearGradient id="linear-gradient-88" x1="14.232" x2="154.822" y1="110.01" y2="57.987" xlink:href="#linear-gradient"/><linearGradient id="linear-gradient-89" x1="7.774" x2="148.364" y1="92.557" y2="40.534" xlink:href="#linear-gradient"/><linearGradient id="linear-gradient-90" x1="25.889" x2="166.479" y1="141.512" y2="89.489" xlink:href="#linear-gradient"/><linearGradient id="linear-gradient-91" x1="26.178" x2="166.768" y1="142.293" y2="90.271" xlink:href="#linear-gradient"/><linearGradient id="linear-gradient-92" x1="24.934" x2="165.524" y1="138.931" y2="86.908" xlink:href="#linear-gradient"/><linearGradient id="linear-gradient-93" x1="30.156" x2="170.745" y1="153.042" y2="101.019" xlink:href="#linear-gradient"/><linearGradient id="linear-gradient-94" x1="26.24" x2="166.83" y1="142.46" y2="90.437" xlink:href="#linear-gradient"/></defs><path fill="none" d="M357.112 38.92a9.003 9.003 0 0 0-6.98 0 8.85 8.85 0 0 0-4.751 4.75 8.75 8.75 0 0 0-.703 3.49v23.81a8.732 8.732 0 0 0 .704 3.492 8.87 8.87 0 0 0 4.75 4.75 8.702 8.702 0 0 0 3.49.704 8.605 8.605 0 0 0 3.49-.704 8.861 8.861 0 0 0 4.75-4.75 8.719 8.719 0 0 0 .704-3.491V47.159a8.74 8.74 0 0 0-.705-3.49 8.839 8.839 0 0 0-4.749-4.75zM182.874 67.2h15.022l-7.512-33.716-7.51 33.716z"/><path fill="#53575a" d="M190.809 23.792h-4.296l-15.772 71.079h6.088l4.762-21.482h17.588l4.762 21.482h6.088l-15.772-71.079zm-7.935 43.673l7.51-33.715 7.512 33.715zM236.59 36.62a14.955 14.955 0 0 0-4.712-3.16 15.19 15.19 0 0 0-11.654 0 14.693 14.693 0 0 0-7.873 7.872 14.72 14.72 0 0 0-1.168 5.827v23.812a14.715 14.715 0 0 0 1.168 5.83 14.697 14.697 0 0 0 7.872 7.87 15.105 15.105 0 0 0 11.656 0 14.692 14.692 0 0 0 7.872-7.87 14.702 14.702 0 0 0 1.168-5.83v-1.29h-5.924v1.29a8.735 8.735 0 0 1-.704 3.49 8.94 8.94 0 0 1-16.48 0 8.738 8.738 0 0 1-.704-3.49V47.159a8.745 8.745 0 0 1 .703-3.489 8.858 8.858 0 0 1 4.75-4.75 8.98 8.98 0 0 1 9.823 1.907 9.14 9.14 0 0 1 1.907 2.841 8.754 8.754 0 0 1 .705 3.491v1.29h5.924v-1.29a14.701 14.701 0 0 0-1.168-5.827 14.978 14.978 0 0 0-3.161-4.712zm32.654 34.098a8.735 8.735 0 0 1-.704 3.49 8.865 8.865 0 0 1-4.749 4.75 8.617 8.617 0 0 1-3.49.705 8.716 8.716 0 0 1-3.49-.704 8.867 8.867 0 0 1-4.751-4.75 8.738 8.738 0 0 1-.704-3.491V32.545h-5.923v38.173a14.697 14.697 0 0 0 1.168 5.83 14.692 14.692 0 0 0 7.872 7.87 14.696 14.696 0 0 0 5.827 1.17 14.303 14.303 0 0 0 6.234-1.395 16.271 16.271 0 0 0 2.71-1.644v2.53h5.924V32.546h-5.924zm60.668-33.843a14.934 14.934 0 0 0-4.711-3.162 14.731 14.731 0 0 0-5.827-1.168 14.445 14.445 0 0 0-7.666 2.116 14.939 14.939 0 0 0-4.192 3.79 14.893 14.893 0 0 0-4.246-3.795 14.839 14.839 0 0 0-16.652.862v-2.466h-5.924v52.535h5.924V47.413a8.737 8.737 0 0 1 .703-3.49 8.939 8.939 0 0 1 16.48-.002 8.765 8.765 0 0 1 .705 3.492v38.174h5.924V47.413a8.745 8.745 0 0 1 2.647-6.318 9.89 9.89 0 0 1 2.87-1.927 8.923 8.923 0 0 1 6.917.005 8.844 8.844 0 0 1 4.749 4.749 8.74 8.74 0 0 1 .705 3.49v38.175h5.924V47.413a14.686 14.686 0 0 0-1.169-5.828 14.894 14.894 0 0 0-3.161-4.71zm34.249-.255a14.966 14.966 0 0 0-4.712-3.16 15.19 15.19 0 0 0-11.654 0 14.674 14.674 0 0 0-7.872 7.872 14.686 14.686 0 0 0-1.169 5.827v23.812a14.687 14.687 0 0 0 1.169 5.83 14.688 14.688 0 0 0 7.871 7.87 15.106 15.106 0 0 0 11.656 0 14.69 14.69 0 0 0 7.871-7.87 14.692 14.692 0 0 0 1.17-5.83V47.159a14.686 14.686 0 0 0-1.17-5.827 14.965 14.965 0 0 0-3.16-4.712zm-1.595 10.54v23.81a8.719 8.719 0 0 1-.705 3.491 8.861 8.861 0 0 1-4.749 4.75 8.605 8.605 0 0 1-3.49.705 8.702 8.702 0 0 1-3.49-.704 8.87 8.87 0 0 1-4.75-4.75 8.732 8.732 0 0 1-.704-3.491V47.159a8.75 8.75 0 0 1 .703-3.489 8.85 8.85 0 0 1 4.75-4.75 9.003 9.003 0 0 1 6.981 0 8.839 8.839 0 0 1 4.75 4.748 8.74 8.74 0 0 1 .704 3.491zm35.842-10.541a14.982 14.982 0 0 0-4.71-3.161 15.205 15.205 0 0 0-11.653 0 14.674 14.674 0 0 0-7.873 7.873 14.686 14.686 0 0 0-1.169 5.827 10.219 10.219 0 0 0 1.344 5.267 15.509 15.509 0 0 0 3.259 3.869 25.925 25.925 0 0 0 4.319 2.986 83.2 83.2 0 0 0 4.637 2.395q2.12 1.114 4.092 2.174a22.022 22.022 0 0 1 3.301 2.15 9.437 9.437 0 0 1 2.143 2.359 4.824 4.824 0 0 1 .718 2.612 8.72 8.72 0 0 1-.706 3.49 8.835 8.835 0 0 1-4.748 4.75 8.987 8.987 0 0 1-9.824-1.904 9.13 9.13 0 0 1-1.907-2.845 8.732 8.732 0 0 1-.704-3.49v-1.29h-5.924v1.29a14.676 14.676 0 0 0 1.17 5.827 14.684 14.684 0 0 0 7.87 7.872 15.106 15.106 0 0 0 11.657 0 14.691 14.691 0 0 0 7.87-7.87 14.7 14.7 0 0 0 1.17-5.83 10.214 10.214 0 0 0-1.346-5.263 16.37 16.37 0 0 0-3.243-3.907 24.304 24.304 0 0 0-4.335-3.053 123.242 123.242 0 0 0-4.556-2.406l-.024-.01a93.096 93.096 0 0 1-4.047-2.05 24.49 24.49 0 0 1-3.369-2.164 8.988 8.988 0 0 1-2.175-2.347 4.79 4.79 0 0 1-.718-2.612 8.742 8.742 0 0 1 .704-3.49 8.94 8.94 0 0 1 16.48-.001 8.745 8.745 0 0 1 .705 3.491v1.29h5.924v-1.29a14.695 14.695 0 0 0-1.17-5.826 14.947 14.947 0 0 0-3.162-4.713z"/><path d="M109.187 92.408l-.522-1.043-.94-1.877-1.16-2.317-5.419-10.812-.59-1.18-.435-.866-.417-.836-.608-1.209-12.497-24.947-4.313 7.884-.585 1.071.04.081.365.73.377.75 4.036 8.057.501 1.001.416.83.086.171.157.315 6.329 12.632.297.592.204.409.213.423.289.578 2.651 5.291.568 1.133.46.919.255.51 1.193 2.38 1.497 2.989 2.154 4.3h9.385l-1.55-3.096-2.437-4.863zm-24.37-48.644l-1.025-2.046-5.648-11.274-.539 1.079-.581 1.161-.13.26-.319.639-2.178 4.355-1.137 2.275 7.04 13.588.16-.198.24.33 4.809-8.789-.692-1.38z" class="cls-3"/><path d="M80.3 53.801l-.002.003.236.472.166-.343-.24-.33-.16.198z" class="cls-3"/><path fill="url(#linear-gradient)" d="M11.163 59.899a2.581 2.581 0 0 1-.01-.404 2.742 2.742 0 0 1 .18-.754l-7.122-3.302a23.504 23.504 0 0 0-2.21 6.131l6.885-1.255z"/><path fill="url(#linear-gradient-2)" d="M10.198 81.194l-7.984-9.992-.284-.357a23.404 23.404 0 0 0 2.208 6.377l.978.641z"/><path fill="url(#linear-gradient-3)" d="M4.802 78.411a23.74 23.74 0 0 0 5.455 6.297l.303-.61.716-1.441z"/><path fill="url(#linear-gradient-4)" d="M83.972 65.895L80.418 58.8l-3.568 7.095h7.122z"/><path fill="url(#linear-gradient-5)" d="M80.7 53.933l-.037.068.037-.068z"/><path fill="url(#linear-gradient-6)" d="M131.08 68.827l-3.04-16.27a2.722 2.722 0 0 1-2.032-.602l-1.832 2.212 4.087 8.871 2.68 5.817.137-.028z"/><path fill="url(#linear-gradient-7)" d="M73.862 10.671l6.34-7.436a13.32 13.32 0 0 0-.9-.352L75.998 7.61z"/><path fill="url(#linear-gradient-8)" d="M63.691 99.831l.801-1.127 2.154-3.028a2.844 2.844 0 0 1-.797-1.19l-3.847.855-1.745 3.374z"/><path fill="url(#linear-gradient-9)" d="M117.595 17.812l2.222-.07 3.633-.117a9.39 9.39 0 0 0-.48-1.728l-5.389 1.852c.003.023.012.042.014.063z"/><path fill="url(#linear-gradient-10)" d="M31.373 17.914a23.487 23.487 0 0 0-8.718 5.068l13.528-6.11z"/><path fill="url(#linear-gradient-11)" d="M123.845 19.448l1.792.328a2.524 2.524 0 0 1 2.472-1.42 2.664 2.664 0 0 1 .353.066l.082-.156a8.55 8.55 0 0 0-.506-.156l-9.788.314z"/><path fill="url(#linear-gradient-12)" d="M63.512 7.164l7.35-4.428a13.73 13.73 0 0 0-4.25 2.142.315.315 0 0 1-.243.059 22.85 22.85 0 0 0-4.571-.32l-.142 1.324a2.825 2.825 0 0 1 1.856 1.223z"/><path fill="url(#linear-gradient-13)" d="M41.491 86.413c.116.567.253 1.127.405 1.673l6.332-2.712.343-.687z"/><path fill="url(#linear-gradient-14)" d="M73.524 23.399l1.026-1.146a2.827 2.827 0 0 1-.719-2.12 2.864 2.864 0 0 1 .303-1.063l-1.676-1.111-.763-.504a2.053 2.053 0 0 1-1.778.775c-.035-.002-.068-.014-.101-.017l-1.41 9.26a2.823 2.823 0 0 1 .965.564z"/><path fill="url(#linear-gradient-15)" d="M62.937 10.927a2.81 2.81 0 0 1-.865.484l2.028 6.551 2.91 9.403a2.754 2.754 0 0 1 .714-.043c.021.002.042.01.064.012l1.415-9.3a2.05 2.05 0 0 1-1.167-2.014 2.02 2.02 0 0 1 .317-.922z"/><path fill="url(#linear-gradient-16)" d="M131.766 83.725l-.043-4.243-.052-5.056c-.083 0-.163.012-.248.005a2.664 2.664 0 0 1-.435-.08l-5.736 10.922-3 5.709 7.233-3.527a2.832 2.832 0 0 1 2.28-3.73z"/><path fill="url(#linear-gradient-17)" d="M113.185 33.26c-.02.013-.036.027-.054.04l6.788 12.814 3.943 7.44 1.7-2.053a2.814 2.814 0 0 1 .292-3.85z"/><path fill="url(#linear-gradient-18)" d="M97.012 92.851l-1.709 14.268a15.464 15.464 0 0 0 1.52.463.312.312 0 0 1 .225.206c.125.375.274.76.447 1.16l1.772-6.838.948-3.654-2.852-5.667a2.79 2.79 0 0 1-.35.062z"/><path fill="url(#linear-gradient-19)" d="M150.567 86.233l.498-.787.447-.707a16.254 16.254 0 0 0-.59-1.669z"/><path fill="url(#linear-gradient-20)" d="M106.503 20.074a2.826 2.826 0 0 1-1.225-.404l-4.474 5.862-1.82 2.385a2.84 2.84 0 0 1 .87 1.895l8.388.503.622.036a2.84 2.84 0 0 1 1.418-1.957l-.792-2.269-2.132-6.127a2.78 2.78 0 0 1-.855.076z"/><path fill="url(#linear-gradient-21)" d="M114.35 89.833a2.85 2.85 0 0 1-1.33 1.409l.751 2.044 7.99 21.76-.547-23.121z"/><path fill="url(#linear-gradient-22)" d="M96.377 92.835a2.847 2.847 0 0 1-2.331-1.934l-11.471 1.343-11.209 1.312c0 .08.01.158.005.24a2.835 2.835 0 0 1-1.061 1.984l5.545 8.757a25.293 25.293 0 0 0 9.483-6.914.305.305 0 0 1 .265-.108.123.123 0 0 1 .03.002.316.316 0 0 1 .242.203 15.648 15.648 0 0 0 8.816 9.162l.927-7.717z"/><path fill="url(#linear-gradient-23)" d="M116.29 89.764l5.076 1.548 1.978-3.767 7.042-13.407a2.933 2.933 0 0 1-.402-.253l-2.955 2.468-12.918 10.797a2.816 2.816 0 0 1 .475 1.79c-.009.099-.035.19-.054.288z"/><path fill="url(#linear-gradient-24)" d="M43.751 60.024a2.53 2.53 0 0 1-.276.227L52.4 77.026l3.495-6.989z"/><path fill="url(#linear-gradient-25)" d="M42.075 88.7a25.089 25.089 0 0 0 2.073 4.834l3.642-7.284z"/><path fill="url(#linear-gradient-26)" d="M145.024 102.268a15.577 15.577 0 0 0 6.481-8.682l-1.444-5.01z"/><path fill="url(#linear-gradient-27)" d="M51.556 76.783l-8.632-16.218a2.777 2.777 0 0 1-1.347.235 2.517 2.517 0 0 1-.407-.074L27.798 89.098 36.407 87a23.525 23.525 0 0 0 4.2-2.964.317.317 0 0 1 .523.201c.056.477.135.988.238 1.553l2.927-.712 4.647-1.133 3.113-6.226z"/><path fill="url(#linear-gradient-28)" d="M148.009 62.598l4.638-2.562-1.286-1.272-2.489 1.724-11.603 8.039 10.74-5.929z"/><path fill="url(#linear-gradient-29)" d="M129.14 70.27a2.847 2.847 0 0 1 1.212-1.19l-6.727-14.596-18.822 4.234a2.8 2.8 0 0 1-.312 1.03l11.75 5.016z"/><path fill="url(#linear-gradient-30)" d="M68.305 96.402a2.847 2.847 0 0 1-1.146-.355l-1.258 1.77-1.678 2.362 5.569 6.032a25.382 25.382 0 0 0 5.465-1.432l-5.484-8.666a2.798 2.798 0 0 1-1.468.289z"/><path fill="url(#linear-gradient-31)" d="M62.306 103.391l-1.484 2.522a25.233 25.233 0 0 0 8.207.402l-5.158-5.583z"/><path fill="url(#linear-gradient-32)" d="M57.46 102.739l1.622 2.73c.362.106.726.205 1.094.295l3.168-5.382-3.075-1-.305-.099-1.787 3.456z"/><path fill="url(#linear-gradient-33)" d="M39.061 58.662L16.82 59.854c-.002.033.005.066.002.1a2.828 2.828 0 0 1-1.3 2.148l10.08 22.965 1.64 3.733 13.326-28.282a2.837 2.837 0 0 1-1.506-1.856z"/><path fill="url(#linear-gradient-34)" d="M112.89 18.252l-3.4-.383a2.83 2.83 0 0 1-1.536 1.924l2.584 7.422.33.945a2.787 2.787 0 0 1 1.005-.108c.033.002.061.014.092.016l2.362-7.788a2.362 2.362 0 0 1-1.438-2.028z"/><path fill="url(#linear-gradient-35)" d="M66.542 91.56a2.836 2.836 0 0 1 .856-.583l-1.18-3.79-1.502 2.906z"/><path fill="url(#linear-gradient-36)" d="M79.727 28.482l-1.553-3.704-.712-1.694a2.76 2.76 0 0 1-2.44-.412l-4.81 5.375-.415.465a2.819 2.819 0 0 1 .53 1.873 2.776 2.776 0 0 1-.287 1.018l1.109.606 2.954 1.61 4.098-8.195z"/><path fill="url(#linear-gradient-37)" d="M92.337 33.349l2.305-1.865a2.722 2.722 0 0 1-.298-2.439l-9.755-4.597-5.517-2.599a2.824 2.824 0 0 1-1.026.995l5.974 14.239 1.064 2.133z"/><path fill="url(#linear-gradient-38)" d="M134.002 70.02l9.176-6.356 7.542-5.228-20.282-7.738a2.847 2.847 0 0 1-1.776 1.736l3.05 16.331c.058.003.113-.007.172-.002a2.826 2.826 0 0 1 2.118 1.257z"/><path fill="url(#linear-gradient-39)" d="M110.573 86.138l-8.188-24.915c-.007 0-.014.004-.023.004l.296 13.2 6.536 13.097a2.861 2.861 0 0 1 1.379-1.386z"/><path fill="url(#linear-gradient-40)" d="M61.633 46.828l-.199-6.15c-.09 0-.177.011-.267.004a2.794 2.794 0 0 1-1.137-.347L44.186 56.434a2.768 2.768 0 0 1-.028 3.108l4.384 3.614 7.644 6.3 5.804-11.608z"/><path fill="url(#linear-gradient-41)" d="M149.654 87.854l-14.695-.846a2.834 2.834 0 0 1-1.957 2.236l2.172 10.365 2.967 14.159a15.62 15.62 0 0 0 4.517-10.048.314.314 0 0 1 .184-.268l.1-.042c.141-.066.285-.132.427-.2.267-.131.532-.27.79-.42l1.047-2.848z"/><path fill="url(#linear-gradient-42)" d="M154.004 66.914a.315.315 0 0 1 .004-.283 7.94 7.94 0 0 0 .324-6.623l-.669.252-.2.078-1.844 16.469a8.063 8.063 0 0 0 3.136-7.335 7.895 7.895 0 0 0-.751-2.558z"/><path fill="url(#linear-gradient-43)" d="M131.943 89.363a2.839 2.839 0 0 1-2.181-1.34l-2.905 1.415-4.874 2.378 2.862 4.422 12.069 18.643c.236-.194.466-.392.688-.598l-5.224-24.928a2.986 2.986 0 0 1-.435.008z"/><path fill="url(#linear-gradient-44)" d="M66.632 86.387l1.37 4.4a2.774 2.774 0 0 1 3.29 2.14l19.735-2.31 2.898-.34a2.679 2.679 0 0 1-.009-.48 2.881 2.881 0 0 1 .095-.52l-13.614-5.926H68.202z"/><path fill="url(#linear-gradient-45)" d="M68.137 42.581l-4.623-2.853a2.844 2.844 0 0 1-1.451.871l.368 11.366.153 4.694 6.688-13.377z"/><path fill="url(#linear-gradient-46)" d="M99.475 59.738a2.816 2.816 0 0 1-.326-1.553c0-.007.005-.013.005-.02l-5.849-2.477 2.738 5.485z"/><path fill="url(#linear-gradient-47)" d="M117.46 18.922a2.367 2.367 0 0 1-2.408 1.548c-.04-.004-.075-.015-.116-.021l-2.352 7.766a2.822 2.822 0 0 1 1.168.777l6.808-4.33 4.916-3.127a2.492 2.492 0 0 1-.09-.863 2.42 2.42 0 0 1 .052-.29z"/><path fill="url(#linear-gradient-48)" d="M150.441 87.613l1.371 4.756a15.548 15.548 0 0 0-.08-6.796z"/><path fill="url(#linear-gradient-49)" d="M152.789 60.684l-18.407 10.159a2.836 2.836 0 0 1 .104.985 2.806 2.806 0 0 1-.482 1.345l10.741 9.325 5.106 4.435.212-1.9.343-3.057a15.675 15.675 0 0 0-2.172-3.191.316.316 0 0 1 .175-.518 7.937 7.937 0 0 0 2.522-.993l.917-8.202z"/><path fill="url(#linear-gradient-50)" d="M109.559 17.24l3.378.38a2.364 2.364 0 0 1 1.751-1.804l-.726-6.206a9.206 9.206 0 0 0-5.5-3.374.332.332 0 0 1-.109-.044 8.81 8.81 0 0 0-.427-.252l-.662 8.523a2.826 2.826 0 0 1 2.295 2.777z"/><path fill="url(#linear-gradient-51)" d="M112.424 91.457a2.489 2.489 0 0 1-1.253.028l4.78 9.577z"/><path fill="url(#linear-gradient-52)" d="M105.035 14.976a2.82 2.82 0 0 1 1.598-.563l.316-4.06.367-4.719a9.14 9.14 0 0 0-4.95-.801l-.154.026a.302.302 0 0 1-.21-.047 9.279 9.279 0 0 0-6.044-1.393 9.137 9.137 0 0 0-1.496.31l3.64 3.872z"/><path fill="url(#linear-gradient-53)" d="M115.437 15.746a2.363 2.363 0 0 1 1.96 1.397l2.255-.774 3.068-1.054a9.165 9.165 0 0 0-8.077-5.33l.674 5.764c.04 0 .08-.007.12-.003z"/><path fill="url(#linear-gradient-54)" d="M78.037 17.88a2.847 2.847 0 0 1 1.392 1.878l6.377-.662 18.097-1.88c0-.068-.01-.136-.005-.205a2.825 2.825 0 0 1 .673-1.608L93.706 3.847a13.704 13.704 0 0 0-8.212-1.605 15 15 0 0 0-1.03.161l-5.886 14.173z"/><path fill="url(#linear-gradient-55)" d="M72.13 16.351a2.095 2.095 0 0 1-.13.549l2.486 1.645a2.832 2.832 0 0 1 2.407-1.014 2.906 2.906 0 0 1 .562.104l4.907-11.819 1.347-3.243a13.674 13.674 0 0 0-2.595.945.325.325 0 0 1-.276 0 .318.318 0 0 0-.031-.015L71.36 14.58a2.06 2.06 0 0 1 .769 1.772z"/><path fill="url(#linear-gradient-56)" d="M153.472 59.582l.539-.3a7.56 7.56 0 0 0-.575-.934l.005.173z"/><path fill="url(#linear-gradient-57)" d="M130.603 49.633a2.508 2.508 0 0 1 .007.329c-.002.04-.017.078-.021.117l.366.14 20.19 7.701.032-.194.231-1.447a.32.32 0 0 1-.063-.219 7.988 7.988 0 0 0-1.577-6.57l-18.881.141z"/><path fill="url(#linear-gradient-58)" d="M63.984 8.953a2.833 2.833 0 0 1-.598 1.522l5.375 4.141a2.047 2.047 0 0 1 1.487-.477 2.022 2.022 0 0 1 .374.068L78.67 2.684a13.698 13.698 0 0 0-5.422-.45c-.114.013-.223.032-.331.049l-.095.014-9.02 5.429a2.804 2.804 0 0 1 .182 1.227z"/><path fill="url(#linear-gradient-59)" d="M152.807 58.37l-.02-.83a8.564 8.564 0 0 0-.818-.774l-.237 1.477 1.1 1.089z"/><path fill="url(#linear-gradient-60)" d="M147.158 42.155a11.897 11.897 0 0 0-5.38-6.3.324.324 0 0 1-.163-.27c-.007-.354-.03-.712-.073-1.07a11.78 11.78 0 0 0-6.767-9.366.316.316 0 0 1-.175-.215 9.25 9.25 0 0 0-.475-1.477l-.057-.024-3.846-1.584a2.485 2.485 0 0 1-.345.605l6.857 7.82z"/><path fill="url(#linear-gradient-61)" d="M128.067 41.428l.007 5.485a2.836 2.836 0 0 1 2.44 2.09l18.7-.141a7.84 7.84 0 0 0-1.273-1.07.322.322 0 0 1-.14-.298 11.956 11.956 0 0 0-.007-2.664 12.74 12.74 0 0 0-.215-1.236l-1.376-1.57-16.787-19.137a2.51 2.51 0 0 1-1.373.5z"/><path fill="url(#linear-gradient-62)" d="M43.782 55.943l15.73-15.982a2.805 2.805 0 0 1-.387-3.806L40.737 18.046a2.834 2.834 0 0 1-1.191.603l1.447 20.51L42.12 55.15a2.808 2.808 0 0 1 1.662.793z"/><path fill="url(#linear-gradient-63)" d="M132.402 83.701a2.834 2.834 0 0 1 2.595 2.676l14.194.818-11.067-9.609-4.529-3.93a2.805 2.805 0 0 1-1.292.695l.094 9.35z"/><path fill="url(#linear-gradient-64)" d="M12.482 72.044l1.014-9.533a2.833 2.833 0 0 1-2.23-1.988l-9.395 1.714a23.523 23.523 0 0 0-.213 6.887c.012.111.031.223.045.331l.02.119 9.728 12.175z"/><path fill="url(#linear-gradient-65)" d="M112.75 117.287c-.169-.012-.339-.014-.508-.027a4.265 4.265 0 0 0 .508.027z"/><path fill="url(#linear-gradient-66)" d="M11.619 58.177a2.788 2.788 0 0 1 3.572-1.019L37.34 18.27a2.852 2.852 0 0 1-.844-.846l-7.049 3.184-8.079 3.648a23.668 23.668 0 0 0-5.56 10.013.317.317 0 0 1-.12.177A23.684 23.684 0 0 0 5.783 52.77a.265.265 0 0 1-.057.168c-.42.607-.827 1.26-1.21 1.945l6.77 3.14z"/><path fill="url(#linear-gradient-67)" d="M11.83 82.96l-.154.311-.91 1.835a23.485 23.485 0 0 0 11.336 4.637l.458-.045 3.459-.336-4.9-2.21z"/><path fill="url(#linear-gradient-68)" d="M61.626 35.015a2.82 2.82 0 0 1 1.595.663l2.524-3.284a2.836 2.836 0 0 1-1.085-2.468 2.88 2.88 0 0 1 .107-.576L41.269 17.417c-.035.055-.068.11-.106.16l18.39 18.112a2.827 2.827 0 0 1 2.073-.674z"/><path fill="url(#linear-gradient-69)" d="M58.177 105.185l-1.454-2.446H52.97a25.343 25.343 0 0 0 5.207 2.446z"/><path fill="url(#linear-gradient-70)" d="M69.702 31.94a2.802 2.802 0 0 1-3.413.781l-2.63 3.426a2.816 2.816 0 0 1 .571 1.932l7.387.513 2.203-4.407z"/><path fill="url(#linear-gradient-71)" d="M65.712 93.87a2.674 2.674 0 0 1-.01-.534 2.814 2.814 0 0 1 .443-1.284l-1.725-1.386-2.04 3.945z"/><path fill="url(#linear-gradient-72)" d="M39.111 13.063a2.822 2.822 0 0 1 1.49.577l3.11-3.592a22.622 22.622 0 0 0-5.895 2.586l.257.544a2.785 2.785 0 0 1 1.038-.115z"/><path fill="url(#linear-gradient-73)" d="M41.5 14.824l8.31-2.604 8.62-2.705a2.773 2.773 0 0 1-.111-1.02 2.834 2.834 0 0 1 2.706-2.597l.132-1.252c-.427.026-.867.064-1.304.116a22.798 22.798 0 0 0-11.055 4.421.296.296 0 0 1-.17.063c-.483.026-.96.061-1.442.118a23.533 23.533 0 0 0-2.407.416l-3.72 4.295a2.805 2.805 0 0 1 .442.75z"/><path fill="url(#linear-gradient-74)" d="M14.959 62.388a2.811 2.811 0 0 1-.832.163l-.371 3.491-1.733 16.31 5.03 2.271 9.557 4.312-9.113-20.76z"/><path fill="url(#linear-gradient-75)" d="M101.759 62.52l-1.224 7.655 1.461 2.926-.237-10.581z"/><path fill="url(#linear-gradient-76)" d="M101.73 55.59a2.759 2.759 0 0 1 .482-.01 2.795 2.795 0 0 1 .57.107l6.737-20.07.754-2.247a2.838 2.838 0 0 1-1.459-2.387l-9-.54a2.834 2.834 0 0 1-2 2.24l.744 4.357z"/><path fill="url(#linear-gradient-77)" d="M94.618 28.475a2.83 2.83 0 0 1 2.638-1.348 2.763 2.763 0 0 1 1.224.404l6.295-8.249a2.827 2.827 0 0 1-.806-1.437l-24.476 2.541a2.035 2.035 0 0 1 .004.207 2.737 2.737 0 0 1-.15.684z"/><path fill="url(#linear-gradient-78)" d="M41.484 55.145l-2.567-36.42c-.087.002-.175.013-.264.006a2.784 2.784 0 0 1-.747-.177l-22.174 38.93a2.848 2.848 0 0 1 1.042 1.739l16.896-.905 5.309-.285c-.002-.098-.014-.195-.007-.296a2.844 2.844 0 0 1 2.512-2.592z"/><path fill="url(#linear-gradient-79)" d="M99.286 57.535a2.843 2.843 0 0 1 .34-.685l-.31-.348L86.634 42.32l6.238 12.498z"/><path fill="url(#linear-gradient-80)" d="M99.74 56.03l.295.33a2.826 2.826 0 0 1 1.074-.65l-3.922-22.924a2.647 2.647 0 0 1-.39.007 2.81 2.81 0 0 1-1.756-.82l-9.667 7.824.187.375z"/><path fill="url(#linear-gradient-81)" d="M58.668 10.104l-16.99 5.328a2.852 2.852 0 0 1 .038.697 2.897 2.897 0 0 1-.166.72l23.47 11.919a2.849 2.849 0 0 1 1.385-1.225l-1.877-6.063-3.075-9.932a2.748 2.748 0 0 1-.532.01 2.839 2.839 0 0 1-2.253-1.454z"/><path fill="url(#linear-gradient-82)" d="M125.715 22.132l-11.59 7.372a2.81 2.81 0 0 1-.453 3.353l8.188 9.299 4.503 5.115a2.835 2.835 0 0 1 1.08-.36l-.03-23.57a2.52 2.52 0 0 1-1.698-1.21z"/><path fill="url(#linear-gradient-83)" d="M64.103 38.704a2.891 2.891 0 0 1-.218.508l5.672 3.5 1.753-3.507z"/><path fill="url(#linear-gradient-84)" d="M111.412 33.72a2.888 2.888 0 0 1-.555-.102l-2.801 8.35-4.69 13.97a2.848 2.848 0 0 1 1.44 2.132l18.526-4.169-4.633-8.743-6.138-11.584a2.818 2.818 0 0 1-1.149.146z"/><path fill="url(#linear-gradient-85)" d="M81.979 83.351l12.095 5.265.17.073a2.851 2.851 0 0 1 .651-.802l-2.283-4.536z"/><path fill="url(#linear-gradient-86)" d="M101.333 61.17a2.827 2.827 0 0 1-1.496-.898l-3.511 1.468 3.724 7.461z"/><path fill="url(#linear-gradient-87)" d="M111.173 85.942a2.78 2.78 0 0 1 .809-.064 2.81 2.81 0 0 1 1.723.787l9.585-8.01 6.219-5.198a2.836 2.836 0 0 1-.688-2.09 2.73 2.73 0 0 1 .092-.505L104.12 60.275a2.833 2.833 0 0 1-1.123.782l5.676 17.274z"/><path fill="url(#linear-gradient-88)" d="M45.874 96.231a25.31 25.31 0 0 0 2.73 3.13l4.02-2.281-2.422-.305z"/><path fill="url(#linear-gradient-89)" d="M58.468 97.593l.245-.488.553-1.098.313-.623 3.134-6.232.25-.495 2.424-4.82.351-.698.082-.163.503-1 .503-1h24.987l-5.878-11.737-.158-.314-.449-.897h-11.99l.504-1 .503-1.001 3.774-7.501 1.158-2.304-.48-.926-6.599-12.737-2.027 4.055-.146.289-1.28 2.56-.11.222-6.788 13.576-1.383 2.766-.501 1.001-.5 1-2.131 4.262-.189.378-.324.648-2.521 5.042-.222.446-.715 1.428-.372.744-.5 1-.499 1-1.019 2.037-.337.67-.317.636-.019.038-.8 1.602-2.282 4.563-3.989 7.977h13.778l.451-.894.288-.574.724-1.438z"/><path fill="url(#linear-gradient-90)" d="M118.976 114.11a2.84 2.84 0 0 1 .783.122l-8.335-11.493h-1.872l6.781 13.12a2.87 2.87 0 0 1 2.643-1.749z"/><path fill="url(#linear-gradient-91)" d="M119.588 110.967l-3.021-8.228h-4.36l8.83 12.175-1.449-3.947z"/><path fill="url(#linear-gradient-92)" d="M108.84 102.739h-6.469l-1.725-3.427-2.73 10.534a15.76 15.76 0 0 0 3.479 4.58c3.453.658 6.74 1.949 10.215 2.69.215.046 1.16.154 1.14.171.291.02.582.047.875.046.238 0 .477-.009.715-.024l.08-.015c.44-.135.886-.268 1.328-.4.12-.037.239-.067.357-.096z"/><path fill="url(#linear-gradient-93)" d="M122.429 116.656l9.888.825-1.979-.165-7.909-.66z"/><path fill="url(#linear-gradient-94)" d="M125.192 97.94l-3.325-5.138.562 23.854 7.91.66 1.978.165a15.5 15.5 0 0 0 4.096-2.208z"/></svg>