<svg xmlns="http://www.w3.org/2000/svg" role="img" viewBox="-20.46 -4.46 1739.92 650.92"><title>Advertorch logo</title><defs><style>.cls-2{fill:#32373b}.cls-3{fill:#eb8446}.cls-4{fill:#535456}</style></defs><path fill="#4d555a" d="M242.323 601.937c-39.712-11.474-73.915-32.784-104.484-59.962-61.846-54.985-94.271-126.25-111.427-205.492a573.838 573.838 0 0 1-11.874-155.835c.386-6.56-.458-12.472 9.999-12.11 80.443 2.794 150.977-24.018 213.93-72.88.943-.733 2.525-.642 3.809-.935l.047 507.214z"/><path d="M242.323 601.937l-.047-507.214 51.176 33.644c-7.53 13.806-21.14 23.163-28.67 37.885 10.106 1.28 17.499 4.446 16.707 15.579-3.266 45.931 33.66 99.084 90.88 110.594 9.143 1.839 10.7 5.913 10.666 14.065-.27 62.116-.14 124.233-.163 186.35-.001 4.162.637 8.455-1.85 12.257-36.953 45.571-82.69 78.56-138.699 96.84z" class="cls-2"/><path d="M381.023 505.097c2.486-3.802 1.848-8.095 1.85-12.257.022-62.117-.107-124.234.162-186.35.035-8.152-1.523-12.226-10.665-14.065-57.22-11.51-94.147-64.663-90.88-110.594.79-11.133-6.601-14.298-16.707-15.58 7.53-14.72 21.14-24.078 28.669-37.884 6.327-5.906 12.651-11.813 19.952-18.633.529 9.923 1.048 19.682 1.57 29.443-.227 13.058-.081 26.135-.76 39.17-1.73 33.144 15.606 55.747 41.015 73.29 16.15 11.15 27.169 5.244 27.488-14.304.412-25.195-.178-50.407-.336-75.612.176-12.125.333-24.251.534-36.376.14-8.536-2.44-14.986-12.371-14.879-9.524.103-8.496-3.969-4.85-10.202 11.757-20.099 23.27-40.339 36.28-62.963 13.385 23.178 25.834 44.68 38.219 66.22 2.933 5.1.156 6.991-4.537 6.769-12.476-.591-14.681 6.82-14.312 17.104.484 13.513.426 27.045.6 40.569-.141 23.73-.762 47.472-.26 71.19.36 17.009 10.294 22.286 25.106 13.953 9.376-5.274 17.557-12.17 23.596-21.29 13.284-13.71 19.835-30.095 19.777-49.199-.073-24.07-.018-48.14-.018-76.602l51.205 60.272c-18.77-.121-18.678 11.161-19.143 23.605-1.308 35.013-18.648 61.705-45.61 82.834-3.297 2.584-6.828 4.868-10.25 7.289-11.837 5.484-23.769 10.952-36.695 13.08-6.535 1.076-8.335 3.909-8.29 10.09.333 45.227.415 90.457.576 135.686q-.26 67.811-.518 135.623c-.012 3.263.12 6.531-.032 9.787-.607 13.016-8.092 21.178-19.296 21.161-11.687-.017-18.946-7.625-19.105-20.965-.255-21.439-.024-42.883-.106-64.325-.02-5.067.896-10.303-1.858-15.055z" class="cls-3"/><path d="M994.134 153.651c0-37.839.037-72.725-.037-107.612-.012-5.736-.152-11.444 5.443-14.94 8.826-5.512 17.53.714 17.554 13.087q.184 90.361-.038 180.724a90.312 90.312 0 0 1-7.148 34.042c-19.921 48.93-72.002 73.682-125.85 59.885-49.062-12.57-80.73-60.764-74.602-113.534 6.133-52.821 48.418-90.75 101.64-91.167 34.35-.269 57.52 10.331 83.038 39.515zm-80.672-17.402c-46.575-.013-81.24 34.58-81.478 81.31-.239 46.984 35.303 83.066 81.741 82.981 45.807-.083 80.41-35.604 80.408-82.541-.001-47.191-34.09-81.737-80.671-81.75zm-171.396 146.71c-30.63 36.105-66.41 45.643-107.359 36.102-38.176-8.895-62.791-33.318-73.724-70.926-16.683-57.39 16.02-116.64 71.816-130.796 59.974-15.217 117.505 18.66 130.047 77.043 4.14 19.266 2.938 39.013 2.893 58.598-.041 18.206.028 36.415-.317 54.615-.14 7.421-3.698 12.734-11.994 12.32-7.971-.398-11.408-5.345-11.37-13.058.035-6.807.008-13.614.008-23.898zm-.021-63.442c.578-46.496-33.363-82.786-77.876-83.268-48.122-.52-82.868 32.79-83.644 80.191-.788 48.042 33.036 83.656 79.87 84.1 46.378.438 81.065-33.983 81.65-81.023zm622.501 6.517c-23.349.004-46.707.392-70.042-.187-9.347-.232-10.562 2.683-9.137 11.337 9.057 54.976 74.926 81.878 122.52 49.696 1.926-1.303 3.677-2.862 5.544-4.256 6.086-4.546 12.544-5.177 17.244 1.157 4.987 6.722 1.167 12.309-4.728 16.533-21.599 15.479-45.63 23.459-72.246 21.43-40.26-3.067-70.486-22.259-84.9-60.456-16.107-42.68-12.356-84.378 19.617-118.864 27.453-29.61 62.956-34.707 100.55-22.468 37.324 12.151 63.717 53.249 61.452 92.84-.606 10.601-6.82 13.252-15.827 13.242q-35.024-.036-70.047-.004zm-9.387-20.888c20.087 0 40.196-.574 60.251.228 10.938.438 12.455-3.784 10.46-13.087-7.225-33.705-35.59-56.41-70.571-56.032a71.405 71.405 0 0 0-69.202 58.281c-1.434 7.772.162 10.981 8.806 10.764 20.074-.502 40.17-.16 60.256-.154z" class="cls-4"/><path fill="#ee8749" d="M973.038 405.544c60.894.02 103.033 42.81 102.966 104.556-.066 59.51-43.954 103.206-103.624 103.167-59.926-.04-104.11-44.405-104.1-104.526.012-60.295 43.584-103.218 104.758-103.197zm80.308 104.378c.29-47.096-35.183-83.723-81.155-83.795-44.383-.07-80.6 36.848-81.312 82.887-.7 45.198 35.74 82.243 81.138 82.487 46.093.247 81.04-34.808 81.329-81.579zm468.777-74.778c18.725-17.059 37.187-27.275 59.955-30.178 57.33-7.309 103.955 31.843 104.707 89.546.426 32.697.038 65.404.105 98.106.018 8.768.287 18.018-11.897 18.009-11.904-.01-10.5-9.34-10.69-17.288-.842-35.46 2.055-70.991-1.735-106.39-4.224-39.455-32.745-61-77.493-58.794-38.28 1.887-62.932 27.73-62.949 66.018q-.02 49.754-.014 99.509c-.006 8.064.729 17.148-11.12 16.967-10.952-.167-11.852-8.215-11.844-16.835q.11-117.728-.014-235.456c-.011-8.767 1.258-16.678 12.048-16.66 11.64.02 10.95 9.099 10.946 17.209-.013 24.253-.005 48.507-.005 76.237zm-161.711-29.621c34.59-.236 59.29 10.966 78.834 33.45 4.495 5.17 8.371 11.063 1.478 16.972-6.494 5.567-12.75 4.3-18.184-2.312-26.052-31.704-70.723-30.779-93.146-18.175-28.684 16.123-44.373 54.76-36.584 91.508 12.693 59.88 77.003 84.527 126.191 48.193 6.833-5.047 13.335-8.211 19.196-.005 5.557 7.781-.027 13.064-5.992 17.399-32.646 23.723-68.266 27.776-104.765 11.966-35.465-15.362-55.077-44.195-58.418-82.66-4.37-50.308 16.027-89.774 54.023-107.713 13.745-6.49 24.486-8.683 37.367-8.623zM742.623 494.32c-.003-14.944-.748-29.936.236-44.814.767-11.599-3.87-14.924-14.444-13.704a65.852 65.852 0 0 1-13.983-.176c-6.35-.635-10.705-4.267-10.615-10.834.089-6.495 4.138-10.108 10.813-10.362.933-.036 1.869-.007 2.8-.057 25.191-1.332 25.19-1.333 25.192-26.079.001-10.74-.028-21.48.032-32.22.042-7.512 3.218-13.017 11.21-13.342 8.744-.355 12.52 5.287 12.62 13.39.191 15.408.71 30.855-.14 46.218-.567 10.213 3.17 12.869 12.722 12.21 11.154-.768 22.402-.137 33.61-.173 7.061-.023 12.085 3.019 12.529 10.28.472 7.723-5.245 10.752-11.798 11.006-12.59.488-25.216.441-37.816.165-6.5-.142-9.158 2.084-9.104 8.842.268 33.619-.562 67.265.522 100.852.77 23.85 18.332 39.443 44.356 42.19a75.622 75.622 0 0 0 9.797.195c8.043-.2 12.537 3.82 12.49 11.67-.044 7.138-4.45 10.48-11.616 11.322-43.056 5.057-78.213-25.254-79.344-68.95-.41-15.866-.066-31.752-.07-47.63z"/><path d="M1142.58 289.846c4.614-9.743 7.818-16.274 10.824-22.895q30.63-67.459 61.146-134.969c3.454-7.66 7.197-15.551 17.287-11.148 9.914 4.326 7.393 12.275 3.752 20.166q-39.532 85.687-78.815 171.489c-2.803 6.103-5.912 11.884-13.801 12.114-8.272.241-10.848-6.179-13.614-12.095q-39.665-84.83-79.217-169.714a91.283 91.283 0 0 1-2.715-6.442c-2.498-6.641-1.081-12.08 5.56-15.208 7.192-3.387 11.701.596 14.562 6.62 8.398 17.676 16.535 35.478 24.747 53.242 16.221 35.087 32.425 70.182 50.283 108.84zm377.906-141.825c19.65-23.501 40.79-35.434 68.027-33.877 2.794.16 5.698-.062 8.356.634 7.508 1.965 16.96 2.687 15.403 14-1.517 11.014-10.501 8.838-17.644 8.057-19.883-2.172-38.292 1.061-53.785 14.37-11.777 10.116-19.218 23.076-19.461 38.88-.588 38.27-.703 76.548-.813 114.823-.022 7.753-1.25 14.57-10.505 15.036-9.795.492-12.5-5.994-12.492-14.611q.088-87.547.012-175.094c-.006-8.155 2.67-13.767 11.91-13.665 8.633.095 10.983 5.62 10.99 13.047.006 4.634.002 9.268.002 18.4z" class="cls-4"/><path d="M1154.133 439.572c20.427-26.063 43.595-36.654 72.4-33.92a51.88 51.88 0 0 1 12.246 2.363c5.264 1.852 8.869 5.625 7.432 11.754-1.317 5.62-5.124 8.807-11.126 8.603-5.596-.19-11.182-.83-16.777-.891-38.278-.417-63.638 23.923-64.085 62.184-.404 34.556-.126 69.12-.062 103.682.015 8.228.44 17.073-10.991 17.236-11.243.16-11.576-8.258-11.562-16.757q.139-85.468-.045-170.936c-.026-8.477 1.449-15.393 11.487-15.444 10.346-.053 11.617 7.243 11.124 15.533-.24 4.063-.041 8.152-.041 16.593z" class="cls-3"/><path d="M382.38 161.721c.16 25.205.75 50.417.337 75.612-.32 19.548-11.338 25.454-27.488 14.303-25.409-17.542-42.744-40.145-41.016-73.29.68-13.033.533-26.11.761-39.17 21.967 9.013 44.013 17.795 67.407 22.545zm39.558 277.149c-.16-45.228-.243-90.458-.575-135.685-.046-6.181 1.754-9.014 8.29-10.09 12.925-2.128 24.857-7.596 36.693-13.08-6.333 55.32-18.223 109.086-44.408 158.856zm48.448-207.053c-6.04 9.119-14.22 16.015-23.596 21.29-14.812 8.332-24.745 3.055-25.106-13.954-.502-23.718.119-47.46.26-71.19 11.083.293 22.265 1.64 33.22.598 12.174-1.157 14.84 3.867 14.532 14.754-.458 16.148.395 32.333.69 48.502z" class="cls-2"/></svg>