<svg xmlns="http://www.w3.org/2000/svg" role="img" viewBox="-7.04 -13.04 1094.08 613.08"><title>Adversarial Robustness Toolkit logo</title><path fill="#4c81c2" d="M1066.147 38.848H891.172l10.779-30.169h164.196v30.169zM599.697 8.674l162.455-.019 10.637 30.242c.078-.043-173.037.038-173.037 0 0-.043-.105-30.223-.055-30.223zm-129.022-.006c26.775 2.583 50.048 12.122 69.878 30.223 0 0-294.475.03-294.475 0V8.66zm-455.68 0h204.571v30.17H14.995zm1051.152 86.783H871.121s10.637-30.01 10.572-30.022h184.454zm-273.259.037H599.689V65.423h182.615l10.584 30.065zM563.484 65.416c3.88 9.913 8.474 18.387 8.474 30.023H246.134V65.416zm-548.489 0h204.571v30.023H14.995zm836.176 86.778l10.703-30.161 146.44.042v30.052l-157.143.067zm-48.884-30.169l10.668 30.169H657.291v-30.169h144.996zm-227.745-.005c0 10.343-1.298 21.122-4.31 30.174H481.02V122.02zm-502.53.146h87.929v30.022H72.012zm233.308-.147h87.777v30.168H305.32zm438.438 62.75s.025 22.834.006 22.877h-86.473v-30.022H822.07l10.235 27.992c.048.018 9.868-28.06 9.887-27.999h166.069v30.03h-86.047c-.008-.044-.049-22.872-.049-22.872l-7.958 22.871-162.502-.043zm-438.438-7.152H557.3v-.012a113.395 113.395 0 0 1-24.996 30.041s-226.99.042-226.99 0l.006-30.029zm-233.308-.006h87.929v30.03H72.012zm850.201 56.615h86.047v30.023h-86.047zm-178.455 0H657.29v30.023c-.043-.015 86.492.01 86.492 0 0-.015.097-30.023-.025-30.023zm161.075 0c-.391-.043-10.08 30.008-10.486 30.023l-122.564.053c-.097-.047-10.777-30.12-10.785-30.076zm-599.525-.006h226.564a148.203 148.203 0 0 1 27.013 30.03c.413-.016-253.571.01-253.571 0l-.006-30.03zm-145.38 30.022v-30.023h-87.77s.018 30.015 0 30.015zm762.285 26.587h86.041v30.028h-86.041zm-264.927 0h86.472v30.023h-86.472zm216.938 30.169c.024-.136 10.613-30.195 10.777-30.17h-104.19c-.182-.012 10.681 30.034 10.681 30.034s82.713.261 82.732.136zm-568.91-.146c0 .12-.006-30.023 0-30.028h89.08s.08 30.038 0 30.038c-.085 0-89.08-.036-89.08-.01zm266.072-30.028c4.307 9.05 4.74 19.822 5.598 30.166h-94.387v-30.166zm-499.228 0h87.771v30.021H72.158zm850.055 55.45h143.93v30.036h-143.93zm-322.529 0h144.074v30.036H599.684zm255.179 30.036h-43.945l-10.544-30.036h64.652l-10.163 30.036zm-839.88-30.036v30.023h204.43c.085.047-.092-30.005 0-30.005l-204.43-.018zm558.261 0c-2.152 9.906-4.124 21.98-11.362 30.036l-2.7-.013h-313.06v-30.023zm261.702 86.704h-4.045l-10.271-30.096h24.856l-10.54 30.096zm87.259-30.096h143.937v30.169H922.205zm-676.127 30.096V402.93l296.199.037c-19.83 18.957-47.038 29.658-76.342 30.083l-219.813-.06m353.562-30.108h144.074v30.169H599.684zm-380.271.133s-.092 29.963 0 29.963c.085 0-204.37.122-204.43.06-.056-.06.055-30.107 0-30.107-.056 0 204.338.183 204.43.084z"/><path d="M118.513 524.958l16.189 43.29h-9.883l-3.274-9.64h-16.189l-3.395 9.64h-9.58l16.37-43.29zm.546 26.556l-5.457-15.885h-.121l-5.64 15.885zm28.921-26.556v43.29h-9.52v-43.29zm55.658 0v8.003h-20.917v10.004h18.128v7.397h-18.128v17.886h-9.52v-43.29zm4.243 21.584a10 10 0 0 1 1.516-5.032 10.32 10.32 0 0 1 3.396-3.213 14.785 14.785 0 0 1 4.638-1.728 26.389 26.389 0 0 1 5.184-.516 35.2 35.2 0 0 1 4.79.334 14.676 14.676 0 0 1 4.425 1.303 8.72 8.72 0 0 1 3.274 2.698 7.538 7.538 0 0 1 1.274 4.578v16.31a32.632 32.632 0 0 0 .242 4.062 7.319 7.319 0 0 0 .85 2.91h-8.732a12.125 12.125 0 0 1-.394-1.486 12.609 12.609 0 0 1-.212-1.546 11.214 11.214 0 0 1-4.85 2.972 19.481 19.481 0 0 1-5.7.848 15.38 15.38 0 0 1-4.183-.546 9.57 9.57 0 0 1-3.395-1.697 7.897 7.897 0 0 1-2.274-2.91 9.838 9.838 0 0 1-.819-4.184 9.132 9.132 0 0 1 .94-4.396 7.855 7.855 0 0 1 2.425-2.758 10.871 10.871 0 0 1 3.396-1.546 36.654 36.654 0 0 1 3.85-.82q1.94-.301 3.82-.484a22.917 22.917 0 0 0 3.334-.546 5.813 5.813 0 0 0 2.304-1.06 2.33 2.33 0 0 0 .788-2.032 4.57 4.57 0 0 0-.455-2.213 3.35 3.35 0 0 0-1.212-1.273 4.787 4.787 0 0 0-1.758-.606 14.466 14.466 0 0 0-2.153-.152 6.533 6.533 0 0 0-4.001 1.091 4.87 4.87 0 0 0-1.698 3.638zm19.887 6.366a3.849 3.849 0 0 1-1.364.758 13.994 13.994 0 0 1-1.758.455q-.941.182-1.97.303-1.033.123-2.062.303a15.56 15.56 0 0 0-1.91.485 5.652 5.652 0 0 0-1.637.82 3.886 3.886 0 0 0-1.122 1.302 4.193 4.193 0 0 0-.424 2.001 4.043 4.043 0 0 0 .424 1.94 3.243 3.243 0 0 0 1.152 1.243 4.86 4.86 0 0 0 1.698.637 10.815 10.815 0 0 0 2 .182 7.608 7.608 0 0 0 3.942-.849 5.685 5.685 0 0 0 2.061-2.03 6.507 6.507 0 0 0 .819-2.396 16.562 16.562 0 0 0 .151-1.94zm15.522-20.856v-7.094h8.609v7.094zm8.609 4.85v31.346h-8.61v-31.346zm14.975 0v5.82h.122a10.547 10.547 0 0 1 1.637-2.697 10.736 10.736 0 0 1 2.364-2.122 11.583 11.583 0 0 1 2.85-1.365 10.28 10.28 0 0 1 3.152-.485 6.73 6.73 0 0 1 1.88.303v8.004q-.607-.121-1.455-.213a15.44 15.44 0 0 0-1.637-.09 9.179 9.179 0 0 0-4.002.788 6.93 6.93 0 0 0-2.637 2.152 8.618 8.618 0 0 0-1.425 3.183 17.317 17.317 0 0 0-.424 3.941v14.127h-8.61v-31.346zm24.676 0v4.366h.181a9.881 9.881 0 0 1 4.245-3.972 12.282 12.282 0 0 1 5.335-1.243 14.634 14.634 0 0 1 5.67.94 8.416 8.416 0 0 1 3.485 2.607 10.1 10.1 0 0 1 1.789 4.062 25.29 25.29 0 0 1 .515 5.306v19.28h-8.61v-17.704a10.992 10.992 0 0 0-1.212-5.79q-1.213-1.91-4.304-1.91-3.518 0-5.094 2.092-1.577 2.091-1.576 6.88v16.432h-8.61v-31.346zm36.983 23.828a8.828 8.828 0 0 0 10.065.576 5.41 5.41 0 0 0 2.304-2.759h7.579q-1.819 5.639-5.578 8.064a16.42 16.42 0 0 1-9.095 2.425 17.897 17.897 0 0 1-6.67-1.182 13.86 13.86 0 0 1-5.031-3.365 15.129 15.129 0 0 1-3.184-5.214 19.074 19.074 0 0 1-1.121-6.67 18.282 18.282 0 0 1 1.152-6.548 15.155 15.155 0 0 1 8.336-8.73 16.234 16.234 0 0 1 6.518-1.274 14.906 14.906 0 0 1 6.973 1.546 13.925 13.925 0 0 1 4.88 4.154 17.08 17.08 0 0 1 2.76 5.941 22.16 22.16 0 0 1 .606 6.973H326.41q.182 4.183 2.122 6.063zm9.731-16.492a6.05 6.05 0 0 0-4.698-1.697 7.496 7.496 0 0 0-3.426.697 6.535 6.535 0 0 0-2.183 1.728 6.335 6.335 0 0 0-1.152 2.183 9.861 9.861 0 0 0-.394 2.061h14.006a9.952 9.952 0 0 0-2.153-4.972zm23.1 16.219a5.034 5.034 0 0 0 1.485 1.637 6.37 6.37 0 0 0 2.092.94 9.82 9.82 0 0 0 2.456.303 9.156 9.156 0 0 0 1.91-.212 6.48 6.48 0 0 0 1.819-.667 4.127 4.127 0 0 0 1.364-1.213 3.183 3.183 0 0 0 .546-1.91q0-1.94-2.577-2.91a51.637 51.637 0 0 0-7.185-1.94q-1.88-.424-3.668-1a12.486 12.486 0 0 1-3.183-1.516 7.357 7.357 0 0 1-2.244-2.365 6.693 6.693 0 0 1-.849-3.486 9.434 9.434 0 0 1 1.183-4.972 8.718 8.718 0 0 1 3.123-3.062 13.692 13.692 0 0 1 4.365-1.576 26.911 26.911 0 0 1 4.972-.455 24.845 24.845 0 0 1 4.94.485 13.103 13.103 0 0 1 4.275 1.637 9.825 9.825 0 0 1 3.123 3.062 10.295 10.295 0 0 1 1.485 4.82h-8.185a3.769 3.769 0 0 0-1.88-3.365 8.602 8.602 0 0 0-4.001-.88 14.89 14.89 0 0 0-1.576.092 5.265 5.265 0 0 0-1.546.394 3.185 3.185 0 0 0-1.183.88 2.32 2.32 0 0 0-.485 1.545 2.36 2.36 0 0 0 .849 1.88 6.543 6.543 0 0 0 2.213 1.182 27.673 27.673 0 0 0 3.123.819q1.757.363 3.577.788a36.666 36.666 0 0 1 3.668 1.03 12.104 12.104 0 0 1 3.183 1.607 7.785 7.785 0 0 1 2.243 2.486 7.302 7.302 0 0 1 .849 3.668 9.521 9.521 0 0 1-4.487 8.55 13.283 13.283 0 0 1-4.577 1.788 26.738 26.738 0 0 1-5.245.515 25.95 25.95 0 0 1-5.335-.546 14.069 14.069 0 0 1-4.639-1.819 10.392 10.392 0 0 1-3.334-3.365 10.529 10.529 0 0 1-1.425-5.244h8.185a4.715 4.715 0 0 0 .576 2.395zm32.558 0a5.034 5.034 0 0 0 1.485 1.637 6.37 6.37 0 0 0 2.092.94 9.82 9.82 0 0 0 2.456.303 9.156 9.156 0 0 0 1.91-.212 6.48 6.48 0 0 0 1.819-.667 4.127 4.127 0 0 0 1.364-1.213 3.183 3.183 0 0 0 .546-1.91q0-1.94-2.577-2.91a51.637 51.637 0 0 0-7.185-1.94q-1.88-.424-3.668-1a12.486 12.486 0 0 1-3.183-1.516 7.357 7.357 0 0 1-2.244-2.365 6.693 6.693 0 0 1-.848-3.486 9.434 9.434 0 0 1 1.182-4.972 8.718 8.718 0 0 1 3.123-3.062 13.693 13.693 0 0 1 4.365-1.576 26.911 26.911 0 0 1 4.972-.455 24.845 24.845 0 0 1 4.94.485 13.103 13.103 0 0 1 4.275 1.637 9.826 9.826 0 0 1 3.123 3.062 10.295 10.295 0 0 1 1.485 4.82h-8.185a3.769 3.769 0 0 0-1.88-3.365 8.602 8.602 0 0 0-4.001-.88 14.891 14.891 0 0 0-1.576.092 5.265 5.265 0 0 0-1.546.394 3.185 3.185 0 0 0-1.183.88 2.32 2.32 0 0 0-.485 1.545 2.36 2.36 0 0 0 .849 1.88 6.543 6.543 0 0 0 2.213 1.182 27.672 27.672 0 0 0 3.123.819q1.757.363 3.577.788a36.667 36.667 0 0 1 3.668 1.03 12.103 12.103 0 0 1 3.183 1.607 7.785 7.785 0 0 1 2.243 2.486 7.302 7.302 0 0 1 .849 3.668 9.521 9.521 0 0 1-4.487 8.55 13.283 13.283 0 0 1-4.577 1.788 26.738 26.738 0 0 1-5.245.515 25.95 25.95 0 0 1-5.335-.546 14.069 14.069 0 0 1-4.639-1.819 10.392 10.392 0 0 1-3.334-3.365 10.529 10.529 0 0 1-1.425-5.244h8.185a4.715 4.715 0 0 0 .576 2.395zm55.688-17.492a9.326 9.326 0 0 0 2.94-.697 5.644 5.644 0 0 0 2.244-1.667 4.507 4.507 0 0 0 .88-2.91 5.045 5.045 0 0 0-1.82-4.184 6.508 6.508 0 0 0-4.183-1.455 5.867 5.867 0 0 0-4.942 2.152 8.33 8.33 0 0 0-1.606 5.426h-8.185a18.02 18.02 0 0 1 1.182-5.972 13.638 13.638 0 0 1 2.971-4.638 13.164 13.164 0 0 1 4.577-3.001 15.967 15.967 0 0 1 5.942-1.061 17.796 17.796 0 0 1 5.093.758 14.525 14.525 0 0 1 4.578 2.274 12.311 12.311 0 0 1 3.304 3.698 9.805 9.805 0 0 1 1.274 5.032 10.04 10.04 0 0 1-1.486 5.457 7.451 7.451 0 0 1-4.456 3.213v.122a9.248 9.248 0 0 1 5.517 3.395 9.957 9.957 0 0 1 2.001 6.245 12.856 12.856 0 0 1-4.79 10.307 15.38 15.38 0 0 1-5.032 2.668 20.503 20.503 0 0 1-12.46-.121 13.655 13.655 0 0 1-5.002-3.001 13.288 13.288 0 0 1-3.183-4.82 16.985 16.985 0 0 1-1.06-6.549h8.184a12.183 12.183 0 0 0 .546 3.244 7.968 7.968 0 0 0 1.395 2.668 6.616 6.616 0 0 0 2.273 1.788 7.31 7.31 0 0 0 3.244.667 7.1 7.1 0 0 0 4.91-1.789 7.257 7.257 0 0 0 1.062-8.579 5.394 5.394 0 0 0-2.395-1.849 10.04 10.04 0 0 0-3.183-.667q-1.728-.09-3.304-.09v-6.064a18.007 18.007 0 0 0 2.97 0zm38.501-9.944a5.008 5.008 0 0 0-3.76-1.576 5.606 5.606 0 0 0-3.85 1.365 9.947 9.947 0 0 0-2.455 3.334 18 18 0 0 0-1.334 4.214 26.688 26.688 0 0 0-.485 4.002l.122.121a10.296 10.296 0 0 1 4.122-3.638 13.373 13.373 0 0 1 10.793.09 13.357 13.357 0 0 1 4.426 3.184 12.308 12.308 0 0 1 2.486 4.426 16.587 16.587 0 0 1 .788 5.032 17.168 17.168 0 0 1-1.061 6.094 14.555 14.555 0 0 1-3.032 4.91 14.054 14.054 0 0 1-4.698 3.275 16.874 16.874 0 0 1-14.006-.727 14.712 14.712 0 0 1-5.033-5.002 20.606 20.606 0 0 1-2.607-7.004 43.493 43.493 0 0 1-.727-7.972 34.972 34.972 0 0 1 .91-7.882 22.993 22.993 0 0 1 2.91-7.124 16.391 16.391 0 0 1 5.153-5.185 14.083 14.083 0 0 1 7.7-2 16.03 16.03 0 0 1 5.093.788 13.11 13.11 0 0 1 4.184 2.273 11.77 11.77 0 0 1 2.97 3.669 14.69 14.69 0 0 1 1.516 5.032h-8.185a7.315 7.315 0 0 0-1.94-3.699zm-7.245 13.855a6.024 6.024 0 0 0-2.153 1.728 7.553 7.553 0 0 0-1.273 2.516 10.453 10.453 0 0 0-.424 3.001 9.43 9.43 0 0 0 .454 2.88 8.049 8.049 0 0 0 1.334 2.546 6.564 6.564 0 0 0 2.152 1.79 6.174 6.174 0 0 0 2.91.666 5.516 5.516 0 0 0 2.76-.667 6.768 6.768 0 0 0 2.03-1.758 7.628 7.628 0 0 0 1.274-2.486 9.755 9.755 0 0 0 .424-2.85 10.999 10.999 0 0 0-.394-2.94 8.227 8.227 0 0 0-1.182-2.547 6.09 6.09 0 0 0-2.031-1.819 5.794 5.794 0 0 0-2.88-.697 6.754 6.754 0 0 0-3.001.637zm21.887-10.429a18.705 18.705 0 0 1 3.365-6.76 12.063 12.063 0 0 1 4.942-3.638 16.39 16.39 0 0 1 5.972-1.091 16.56 16.56 0 0 1 6.032 1.091 12.292 12.292 0 0 1 4.972 3.638 18.446 18.446 0 0 1 3.395 6.76 37.274 37.274 0 0 1 1.243 10.398 38.732 38.732 0 0 1-1.243 10.641 18.434 18.434 0 0 1-3.395 6.821 12.292 12.292 0 0 1-4.972 3.638 16.56 16.56 0 0 1-6.032 1.091 16.39 16.39 0 0 1-5.972-1.091 12.063 12.063 0 0 1-4.942-3.638 18.692 18.692 0 0 1-3.365-6.82 38.7 38.7 0 0 1-1.243-10.642 37.243 37.243 0 0 1 1.243-10.398zm7.488 14.794a23.602 23.602 0 0 0 .758 4.972 10.657 10.657 0 0 0 2.031 4.092 4.881 4.881 0 0 0 4.002 1.698 5.042 5.042 0 0 0 4.092-1.698 10.439 10.439 0 0 0 2.062-4.092 23.629 23.629 0 0 0 .758-4.972q.12-2.576.12-4.396 0-1.09-.03-2.637a29.514 29.514 0 0 0-.242-3.183 29.852 29.852 0 0 0-.606-3.244 9.959 9.959 0 0 0-1.183-2.88 6.515 6.515 0 0 0-2-2.061 5.345 5.345 0 0 0-2.971-.788 5.193 5.193 0 0 0-2.941.788 6.33 6.33 0 0 0-1.94 2.061 11.144 11.144 0 0 0-1.182 2.88 22.343 22.343 0 0 0-.607 3.244q-.182 1.637-.212 3.183-.031 1.546-.03 2.637 0 1.82.121 4.396zm41.35-18.28v-8.003h35.469v8.003h-12.975v35.287h-9.519v-35.287zm32.983 12.823a14.334 14.334 0 0 1 8.368-8.548 17.895 17.895 0 0 1 6.669-1.183 18.145 18.145 0 0 1 6.7 1.183 14.275 14.275 0 0 1 8.397 8.548 19.257 19.257 0 0 1 1.152 6.821 19.004 19.004 0 0 1-1.152 6.791 14.736 14.736 0 0 1-3.274 5.184 14.27 14.27 0 0 1-5.124 3.304 18.584 18.584 0 0 1-6.7 1.152 18.328 18.328 0 0 1-6.668-1.152 14.309 14.309 0 0 1-5.094-3.304 14.7 14.7 0 0 1-3.274-5.184 18.986 18.986 0 0 1-1.152-6.79 19.239 19.239 0 0 1 1.152-6.822zm7.822 10.49a9.743 9.743 0 0 0 1.243 3.213 6.603 6.603 0 0 0 2.334 2.273 7.117 7.117 0 0 0 3.638.85 7.288 7.288 0 0 0 3.668-.85 6.548 6.548 0 0 0 2.364-2.273 9.762 9.762 0 0 0 1.243-3.214 18.335 18.335 0 0 0 .364-3.668 18.796 18.796 0 0 0-.364-3.698 9.44 9.44 0 0 0-1.243-3.214 6.91 6.91 0 0 0-2.364-2.273 7.1 7.1 0 0 0-3.668-.88 6.621 6.621 0 0 0-5.972 3.153 9.423 9.423 0 0 0-1.243 3.214 18.797 18.797 0 0 0-.365 3.698 18.336 18.336 0 0 0 .365 3.668zm29.223-10.49a14.334 14.334 0 0 1 8.367-8.548 17.895 17.895 0 0 1 6.67-1.183 18.145 18.145 0 0 1 6.699 1.183 14.275 14.275 0 0 1 8.397 8.548 19.257 19.257 0 0 1 1.152 6.821 19.004 19.004 0 0 1-1.152 6.791 14.736 14.736 0 0 1-3.274 5.184 14.27 14.27 0 0 1-5.123 3.304 18.584 18.584 0 0 1-6.7 1.152 18.328 18.328 0 0 1-6.669-1.152 14.309 14.309 0 0 1-5.093-3.304 14.7 14.7 0 0 1-3.274-5.184 18.986 18.986 0 0 1-1.152-6.79 19.239 19.239 0 0 1 1.152-6.822zm7.822 10.49a9.744 9.744 0 0 0 1.242 3.213 6.603 6.603 0 0 0 2.334 2.273 7.117 7.117 0 0 0 3.638.85 7.288 7.288 0 0 0 3.669-.85 6.548 6.548 0 0 0 2.364-2.273 9.762 9.762 0 0 0 1.243-3.214 18.335 18.335 0 0 0 .363-3.668 18.796 18.796 0 0 0-.363-3.698 9.44 9.44 0 0 0-1.243-3.214 6.91 6.91 0 0 0-2.364-2.273 7.1 7.1 0 0 0-3.669-.88 6.621 6.621 0 0 0-5.972 3.153 9.423 9.423 0 0 0-1.242 3.214 18.796 18.796 0 0 0-.365 3.698 18.335 18.335 0 0 0 .365 3.668zm37.892-31.316v43.29h-8.609v-43.29zm16.189 0v23.221l10.853-11.277h10.186l-11.824 11.52 13.157 19.826h-10.428l-8.61-14.006-3.334 3.214v10.792h-8.61v-43.29zm25.647 7.094v-7.094h8.609v7.094zm8.609 4.85v31.346h-8.61v-31.346zm24.009 0v5.76h-6.306v15.521a2.916 2.916 0 0 0 3.639 3.638q.727 0 1.393-.06a11.657 11.657 0 0 0 1.274-.182v6.67a20.498 20.498 0 0 1-2.426.241q-1.333.06-2.606.061a25.14 25.14 0 0 1-3.79-.272 8.937 8.937 0 0 1-3.153-1.061 5.61 5.61 0 0 1-2.152-2.244 8.01 8.01 0 0 1-.788-3.82v-18.492h-5.215v-5.76h5.215v-9.398h8.609v9.398zm31.043.394a63.415 63.415 0 0 0-1.577 14.097 65.648 65.648 0 0 0 1.545 14.248 54.865 54.865 0 0 0 5.003 13.581h-7.155a56.482 56.482 0 0 1-5.911-13.156 48.33 48.33 0 0 1-2.092-14.067 52.08 52.08 0 0 1 .515-7.124 59.704 59.704 0 0 1 1.517-7.427 53.26 53.26 0 0 1 2.485-7.155 36.962 36.962 0 0 1 3.486-6.366h7.216a52.793 52.793 0 0 0-5.033 13.37z"/><path d="M803.204 524.958l16.188 43.29h-9.882l-3.274-9.64h-16.188l-3.396 9.64h-9.58l16.37-43.29zm.546 26.556l-5.457-15.885h-.121l-5.638 15.885zm28.921-26.556v43.29h-9.52v-43.29zm38.803 0v8.003h-20.917v10.004h18.128v7.397h-18.128v17.886h-9.52v-43.29zm18.128 18.007a9.329 9.329 0 0 0 2.94-.697 5.646 5.646 0 0 0 2.243-1.667 4.507 4.507 0 0 0 .88-2.91 5.044 5.044 0 0 0-1.82-4.184 6.509 6.509 0 0 0-4.182-1.455 5.866 5.866 0 0 0-4.942 2.152 8.325 8.325 0 0 0-1.606 5.426h-8.186a18.042 18.042 0 0 1 1.182-5.972 13.658 13.658 0 0 1 2.971-4.638 13.158 13.158 0 0 1 4.578-3.001 15.962 15.962 0 0 1 5.942-1.061 17.793 17.793 0 0 1 5.092.758 14.519 14.519 0 0 1 4.578 2.274 12.318 12.318 0 0 1 3.305 3.698 9.809 9.809 0 0 1 1.273 5.032 10.04 10.04 0 0 1-1.486 5.457 7.452 7.452 0 0 1-4.456 3.213v.122a9.247 9.247 0 0 1 5.517 3.395 9.957 9.957 0 0 1 2.001 6.245 12.857 12.857 0 0 1-4.79 10.307 15.389 15.389 0 0 1-5.032 2.668 20.504 20.504 0 0 1-12.46-.121 13.66 13.66 0 0 1-5.002-3.001 13.288 13.288 0 0 1-3.183-4.82 17.009 17.009 0 0 1-1.06-6.549h8.185a12.217 12.217 0 0 0 .545 3.244 7.96 7.96 0 0 0 1.395 2.668 6.618 6.618 0 0 0 2.274 1.788 7.307 7.307 0 0 0 3.243.667 7.102 7.102 0 0 0 4.911-1.789 7.26 7.26 0 0 0 1.061-8.579 5.397 5.397 0 0 0-2.394-1.849 10.04 10.04 0 0 0-3.184-.667q-1.728-.09-3.304-.09v-6.064a18.012 18.012 0 0 0 2.97 0zm38.5-9.944a5.007 5.007 0 0 0-3.759-1.576 5.606 5.606 0 0 0-3.85 1.365 9.941 9.941 0 0 0-2.456 3.334 18 18 0 0 0-1.334 4.214 26.626 26.626 0 0 0-.484 4.002l.12.121a10.294 10.294 0 0 1 4.124-3.638 13.373 13.373 0 0 1 10.792.09 13.36 13.36 0 0 1 4.426 3.184 12.307 12.307 0 0 1 2.486 4.426 16.588 16.588 0 0 1 .788 5.032 17.177 17.177 0 0 1-1.06 6.094 14.557 14.557 0 0 1-3.033 4.91 14.046 14.046 0 0 1-4.699 3.275 16.873 16.873 0 0 1-14.005-.727 14.716 14.716 0 0 1-5.033-5.002 20.606 20.606 0 0 1-2.606-7.004 43.456 43.456 0 0 1-.728-7.972 34.95 34.95 0 0 1 .91-7.882 22.972 22.972 0 0 1 2.91-7.124 16.394 16.394 0 0 1 5.153-5.185 14.084 14.084 0 0 1 7.7-2 16.026 16.026 0 0 1 5.093.788 13.112 13.112 0 0 1 4.184 2.273 11.776 11.776 0 0 1 2.97 3.669 14.7 14.7 0 0 1 1.517 5.032h-8.186a7.315 7.315 0 0 0-1.94-3.699zm-7.245 13.855a6.028 6.028 0 0 0-2.153 1.728 7.57 7.57 0 0 0-1.273 2.516 10.467 10.467 0 0 0-.424 3.001 9.405 9.405 0 0 0 .455 2.88 8.04 8.04 0 0 0 1.333 2.546 6.573 6.573 0 0 0 2.153 1.79 6.176 6.176 0 0 0 2.91.666 5.516 5.516 0 0 0 2.758-.667 6.768 6.768 0 0 0 2.032-1.758 7.637 7.637 0 0 0 1.273-2.486 9.768 9.768 0 0 0 .424-2.85 10.982 10.982 0 0 0-.394-2.94 8.235 8.235 0 0 0-1.182-2.547 6.102 6.102 0 0 0-2.03-1.819 5.798 5.798 0 0 0-2.881-.697 6.755 6.755 0 0 0-3.001.637zm21.888-10.429a18.725 18.725 0 0 1 3.365-6.76 12.068 12.068 0 0 1 4.941-3.638 17.05 17.05 0 0 1 12.005 0 12.288 12.288 0 0 1 4.972 3.638 18.446 18.446 0 0 1 3.396 6.76 37.306 37.306 0 0 1 1.242 10.398 38.764 38.764 0 0 1-1.242 10.641 18.434 18.434 0 0 1-3.396 6.821 12.288 12.288 0 0 1-4.972 3.638 17.05 17.05 0 0 1-12.005 0 12.068 12.068 0 0 1-4.941-3.638 18.712 18.712 0 0 1-3.365-6.82 38.732 38.732 0 0 1-1.243-10.642 37.274 37.274 0 0 1 1.243-10.398zm7.488 14.794a23.602 23.602 0 0 0 .758 4.972 10.633 10.633 0 0 0 2.031 4.092 4.88 4.88 0 0 0 4.002 1.698 5.042 5.042 0 0 0 4.092-1.698 10.427 10.427 0 0 0 2.061-4.092 23.656 23.656 0 0 0 .758-4.972q.122-2.576.121-4.396 0-1.09-.03-2.637a29.306 29.306 0 0 0-.242-3.183 29.651 29.651 0 0 0-.607-3.244 9.947 9.947 0 0 0-1.182-2.88 6.512 6.512 0 0 0-2.001-2.061 5.342 5.342 0 0 0-2.97-.788 5.192 5.192 0 0 0-2.94.788 6.325 6.325 0 0 0-1.941 2.061 11.145 11.145 0 0 0-1.183 2.88 22.455 22.455 0 0 0-.606 3.244q-.182 1.637-.212 3.183-.031 1.546-.03 2.637 0 1.82.12 4.396zm28.284 14.673a61.573 61.573 0 0 0 1.607-14.036 65.223 65.223 0 0 0-1.577-14.31 58.77 58.77 0 0 0-4.91-13.64h7.093a56.173 56.173 0 0 1 5.912 13.217 48.942 48.942 0 0 1 2.09 14.126 56.398 56.398 0 0 1-1.97 14.521 51.54 51.54 0 0 1-2.515 7.125 36.38 36.38 0 0 1-3.517 6.305h-7.154a56.976 56.976 0 0 0 4.941-13.308z"/></svg>