<svg xmlns="http://www.w3.org/2000/svg" role="img" viewBox="1.66 -1.34 186.68 61.18"><title>AIDAUG logo</title><linearGradient id="linearGradient1" x1="33.487" x2="32.665" y1="25.879" y2="3.796" gradientUnits="userSpaceOnUse"><stop offset="0" stop-color="#fff"/><stop offset=".16" stop-color="#dfdfdf"/><stop offset=".52" stop-color="#8f8f8f"/><stop offset="1" stop-color="#1b1b1b"/></linearGradient><path id="Path" fill="#333" stroke="url(#linearGradient1)" stroke-width=".4" d="M 33.470001 3.790001 L 32.68 25.900002"/><linearGradient id="linearGradient2" x1="32.336" x2="24.731" y1="25.756" y2="5.008" gradientUnits="userSpaceOnUse"><stop offset="0" stop-color="#fff"/><stop offset=".16" stop-color="#dfdfdf"/><stop offset=".52" stop-color="#8f8f8f"/><stop offset="1" stop-color="#1b1b1b"/></linearGradient><path id="path1" fill="#333" stroke="url(#linearGradient2)" stroke-width=".4" d="M 25.51 4.759998 L 31.6 26.029999"/><linearGradient id="linearGradient3" x1="31.208" x2="17.563" y1="25.994" y2="8.612" gradientUnits="userSpaceOnUse"><stop offset="0" stop-color="#fff"/><stop offset=".16" stop-color="#dfdfdf"/><stop offset=".52" stop-color="#8f8f8f"/><stop offset="1" stop-color="#1b1b1b"/></linearGradient><path id="path2" fill="#333" stroke="url(#linearGradient3)" stroke-width=".4" d="M 18.25 8.139999 L 30.620001 26.490002"/><linearGradient id="linearGradient4" x1="30.196" x2="11.854" y1="26.573" y2="14.251" gradientUnits="userSpaceOnUse"><stop offset="0" stop-color="#fff"/><stop offset=".16" stop-color="#dfdfdf"/><stop offset=".52" stop-color="#8f8f8f"/><stop offset="1" stop-color="#1b1b1b"/></linearGradient><path id="path3" fill="#333" stroke="url(#linearGradient4)" stroke-width=".4" d="M 12.39 13.610001 L 29.82 27.240002"/><linearGradient id="linearGradient5" x1="29.42" x2="8.168" y1="27.436" y2="21.384" gradientUnits="userSpaceOnUse"><stop offset="0" stop-color="#fff"/><stop offset=".16" stop-color="#dfdfdf"/><stop offset=".52" stop-color="#8f8f8f"/><stop offset="1" stop-color="#1b1b1b"/></linearGradient><path id="path4" fill="#333" stroke="url(#linearGradient5)" stroke-width=".4" d="M 8.5 20.610001 L 29.290001 28.189999"/><linearGradient id="linearGradient6" x1="28.951" x2="6.869" y1="28.483" y2="29.295" gradientUnits="userSpaceOnUse"><stop offset="0" stop-color="#fff"/><stop offset=".16" stop-color="#dfdfdf"/><stop offset=".52" stop-color="#8f8f8f"/><stop offset="1" stop-color="#1b1b1b"/></linearGradient><path id="path5" fill="#333" stroke="url(#linearGradient6)" stroke-width=".4" d="M 6.97 28.48 L 29.08 29.26"/><linearGradient id="linearGradient7" x1="28.83" x2="8.08" y1="29.631" y2="37.227" gradientUnits="userSpaceOnUse"><stop offset="0" stop-color="#fff"/><stop offset=".16" stop-color="#dfdfdf"/><stop offset=".52" stop-color="#8f8f8f"/><stop offset="1" stop-color="#1b1b1b"/></linearGradient><path id="path6" fill="#333" stroke="url(#linearGradient7)" stroke-width=".4" d="M 7.94 36.43 L 29.219999 30.34"/><linearGradient id="linearGradient8" x1="29.063" x2="11.675" y1="30.77" y2="44.406" gradientUnits="userSpaceOnUse"><stop offset="0" stop-color="#fff"/><stop offset=".16" stop-color="#dfdfdf"/><stop offset=".52" stop-color="#8f8f8f"/><stop offset="1" stop-color="#1b1b1b"/></linearGradient><path id="path7" fill="#333" stroke="url(#linearGradient8)" stroke-width=".4" d="M 11.32 43.690002 L 29.68 31.33"/><linearGradient id="linearGradient9" x1="29.635" x2="17.313" y1="31.771" y2="50.113" gradientUnits="userSpaceOnUse"><stop offset="0" stop-color="#fff"/><stop offset=".16" stop-color="#dfdfdf"/><stop offset=".52" stop-color="#8f8f8f"/><stop offset="1" stop-color="#1b1b1b"/></linearGradient><path id="path8" fill="#333" stroke="url(#linearGradient9)" stroke-width=".4" d="M 16.790001 49.560001 L 30.42 32.120003"/><linearGradient id="linearGradient10" x1="23.438" x2="17.445" y1="43.932" y2="65.203" gradientUnits="userSpaceOnUse"><stop offset="0" stop-color="#fff"/><stop offset=".16" stop-color="#dfdfdf"/><stop offset=".52" stop-color="#8f8f8f"/><stop offset="1" stop-color="#1b1b1b"/></linearGradient><path id="path9" fill="#333" stroke="url(#linearGradient10)" stroke-width=".4" d="M 23.790001 53.440002 L 31.370001 32.650002"/><linearGradient id="linearGradient11" x1="31.545" x2="32.367" y1="33.018" y2="55.111" gradientUnits="userSpaceOnUse"><stop offset="0" stop-color="#fff"/><stop offset=".16" stop-color="#dfdfdf"/><stop offset=".52" stop-color="#8f8f8f"/><stop offset="1" stop-color="#1b1b1b"/></linearGradient><path id="path10" fill="#333" stroke="url(#linearGradient11)" stroke-width=".4" d="M 31.66 54.970001 L 32.439999 32.860001"/><linearGradient id="linearGradient12" x1="32.694" x2="40.302" y1="33.14" y2="53.898" gradientUnits="userSpaceOnUse"><stop offset="0" stop-color="#fff"/><stop offset=".16" stop-color="#dfdfdf"/><stop offset=".52" stop-color="#8f8f8f"/><stop offset="1" stop-color="#1b1b1b"/></linearGradient><path id="path11" fill="#333" stroke="url(#linearGradient12)" stroke-width=".4" d="M 39.610001 54 L 33.52 32.729996"/><linearGradient id="linearGradient13" x1="33.828" x2="47.473" y1="32.914" y2="50.296" gradientUnits="userSpaceOnUse"><stop offset="0" stop-color="#fff"/><stop offset=".16" stop-color="#dfdfdf"/><stop offset=".52" stop-color="#8f8f8f"/><stop offset="1" stop-color="#1b1b1b"/></linearGradient><path id="path12" fill="#333" stroke="url(#linearGradient13)" stroke-width=".4" d="M 46.880001 50.620003 L 34.509998 32.269997"/><linearGradient id="linearGradient14" x1="34.835" x2="53.185" y1="32.326" y2="44.655" gradientUnits="userSpaceOnUse"><stop offset="0" stop-color="#fff"/><stop offset=".16" stop-color="#dfdfdf"/><stop offset=".52" stop-color="#8f8f8f"/><stop offset="1" stop-color="#1b1b1b"/></linearGradient><path id="path13" fill="#333" stroke="url(#linearGradient14)" stroke-width=".4" d="M 52.740002 45.150002 L 35.299999 31.519999"/><linearGradient id="linearGradient15" x1="35.61" x2="56.863" y1="31.472" y2="37.524" gradientUnits="userSpaceOnUse"><stop offset="0" stop-color="#fff"/><stop offset=".16" stop-color="#dfdfdf"/><stop offset=".52" stop-color="#8f8f8f"/><stop offset="1" stop-color="#1b1b1b"/></linearGradient><path id="path14" fill="#333" stroke="url(#linearGradient15)" stroke-width=".4" d="M 56.619999 38.150002 L 35.830002 30.57"/><linearGradient id="linearGradient16" x1="36.081" x2="58.163" y1="30.424" y2="29.612" gradientUnits="userSpaceOnUse"><stop offset="0" stop-color="#fff"/><stop offset=".16" stop-color="#dfdfdf"/><stop offset=".52" stop-color="#8f8f8f"/><stop offset="1" stop-color="#1b1b1b"/></linearGradient><path id="path15" fill="#333" stroke="url(#linearGradient16)" stroke-width=".4" d="M 58.16 30.279999 L 36.040001 29.5"/><linearGradient id="linearGradient17" x1="36.203" x2="56.953" y1="29.274" y2="21.678" gradientUnits="userSpaceOnUse"><stop offset="0" stop-color="#fff"/><stop offset=".16" stop-color="#dfdfdf"/><stop offset=".52" stop-color="#8f8f8f"/><stop offset="1" stop-color="#1b1b1b"/></linearGradient><path id="path16" fill="#333" stroke="url(#linearGradient17)" stroke-width=".4" d="M 57.18 22.330002 L 35.91 28.420002"/><linearGradient id="linearGradient18" x1="35.973" x2="53.355" y1="28.149" y2="14.504" gradientUnits="userSpaceOnUse"><stop offset="0" stop-color="#fff"/><stop offset=".16" stop-color="#dfdfdf"/><stop offset=".52" stop-color="#8f8f8f"/><stop offset="1" stop-color="#1b1b1b"/></linearGradient><path id="path17" fill="#333" stroke="url(#linearGradient18)" stroke-width=".4" d="M 53.799999 15.07 L 35.450001 27.43"/><linearGradient id="linearGradient19" x1="35.398" x2="47.727" y1="27.142" y2="8.792" gradientUnits="userSpaceOnUse"><stop offset="0" stop-color="#fff"/><stop offset=".16" stop-color="#dfdfdf"/><stop offset=".52" stop-color="#8f8f8f"/><stop offset="1" stop-color="#1b1b1b"/></linearGradient><path id="path18" fill="#333" stroke="url(#linearGradient19)" stroke-width=".4" d="M 48.34 9.200001 L 34.709999 26.639999"/><linearGradient id="linearGradient20" x1="36.621" x2="42.611" y1="27.525" y2="6.264" gradientUnits="userSpaceOnUse"><stop offset="0" stop-color="#fff"/><stop offset=".16" stop-color="#dfdfdf"/><stop offset=".52" stop-color="#8f8f8f"/><stop offset="1" stop-color="#1b1b1b"/></linearGradient><path id="path19" fill="#333" stroke="url(#linearGradient20)" stroke-width=".4" d="M 41.330002 5.32 L 33.75 26.110001"/><path id="path20" fill="#333" stroke="none" d="M 33.487469 2.247536 C 34.458885 2.281799 35.218601 3.097061 35.184338 4.068478 C 35.150074 5.039898 34.334812 5.79961 33.363396 5.765347 C 32.391979 5.731087 31.632263 4.915821 31.666525 3.944405 C 31.700787 2.972988 32.516052 2.213276 33.487469 2.247536 Z"/><path id="path21" fill="#333" stroke="none" d="M 27.233276 4.485546 C 27.500875 5.420006 26.960279 6.394466 26.02582 6.662067 C 25.091358 6.929668 24.116898 6.389069 23.849298 5.454609 C 23.581699 4.520149 24.122295 3.545689 25.056757 3.278088 C 25.991217 3.010487 26.965677 3.551086 27.233276 4.485546 Z"/><path id="path22" fill="#333" stroke="none" d="M 19.798887 7.345718 C 20.342154 8.151752 20.129139 9.245571 19.323107 9.788837 C 18.517076 10.332104 17.423254 10.119091 16.879988 9.313061 C 16.336721 8.507027 16.549736 7.413204 17.355768 6.869938 C 18.161798 6.326675 19.255621 6.539688 19.798887 7.345718 Z"/><path id="path23" fill="#333" stroke="none" d="M 13.609626 12.350361 C 14.375381 12.949066 14.510802 14.055176 13.912099 14.82093 C 13.313396 15.586685 12.207284 15.722107 11.44153 15.123402 C 10.675776 14.5247 10.540354 13.418587 11.139057 12.652836 C 11.737761 11.887081 12.843872 11.751659 13.609626 12.350361 Z"/><path id="path24" fill="#333" stroke="none" d="M 9.278765 19.029655 C 10.19205 19.362423 10.662651 20.372551 10.329881 21.285835 C 9.997111 22.19912 8.986984 22.669724 8.073699 22.336952 C 7.160414 22.004181 6.689815 20.994057 7.022585 20.080772 C 7.355354 19.167488 8.365479 18.696884 9.278765 19.029655 Z"/><path id="path25" fill="#333" stroke="none" d="M 7.205936 26.723732 C 8.177353 26.757992 8.937068 27.573257 8.902805 28.544674 C 8.868544 29.516092 8.053279 30.275806 7.081862 30.241545 C 6.110445 30.207281 5.35073 29.392017 5.384993 28.420601 C 5.419255 27.449184 6.234519 26.689468 7.205936 26.723732 Z"/><path id="path26" fill="#333" stroke="none" d="M 9.801287 35.890694 C 10.068886 36.825153 9.528288 37.799614 8.593827 38.067215 C 7.659368 38.334812 6.684906 37.794216 6.417307 36.859756 C 6.149707 35.925293 6.690305 34.950832 7.624765 34.683235 C 8.559225 34.415634 9.533688 34.95623 9.801287 35.890694 Z"/><path id="path27" fill="#333" stroke="none" d="M 12.927815 42.587547 C 13.471083 43.393578 13.25807 44.4874 12.452038 45.030666 C 11.646007 45.573933 10.552184 45.36092 10.008917 44.554886 C 9.465652 43.748856 9.678666 42.655033 10.484697 42.111767 C 11.29073 41.568501 12.384551 41.781517 12.927815 42.587547 Z"/><path id="path28" fill="#333" stroke="none" d="M 17.965992 47.995426 C 18.731747 48.594131 18.867168 49.700245 18.268465 50.465996 C 17.669764 51.23175 16.56365 51.367172 15.797895 50.768467 C 15.032143 50.169765 14.896721 49.063652 15.495424 48.297901 C 16.094128 47.532146 17.200239 47.396725 17.965992 47.995426 Z"/><path id="path29" fill="#333" stroke="none" d="M 24.431871 51.579159 C 25.345154 51.911926 25.815754 52.922054 25.482985 53.835339 C 25.150215 54.748623 24.140089 55.219223 23.226805 54.886456 C 22.313519 54.553684 21.842916 53.543556 22.175688 52.630272 C 22.508457 51.716988 23.518583 51.246387 24.431871 51.579159 Z"/><path id="path30" fill="#333" stroke="none" d="M 31.682133 53.005264 C 32.653549 53.039524 33.413261 53.85479 33.379002 54.826206 C 33.344738 55.797623 32.529472 56.557339 31.55806 56.523075 C 30.586639 56.488815 29.826925 55.67355 29.861187 54.702133 C 29.895451 53.730713 30.710714 52.971001 31.682133 53.005264 Z"/><path id="path31" fill="#333" stroke="none" d="M 41.406403 53.0448 C 41.678566 53.97794 41.142742 54.955032 40.209599 55.2272 C 39.276459 55.499367 38.299366 54.963539 38.027199 54.030403 C 37.755035 53.09726 38.290859 52.120167 39.223999 51.848 C 40.157139 51.575832 41.134235 52.11166 41.406403 53.0448 Z"/><path id="path32" fill="#333" stroke="none" d="M 48.169647 49.458618 C 48.71291 50.264648 48.499897 51.358471 47.693863 51.901737 C 46.887833 52.445 45.79401 52.231987 45.250748 51.425957 C 44.707481 50.619926 44.920494 49.5261 45.726524 48.982838 C 46.532558 48.439571 47.626381 48.652584 48.169647 49.458618 Z"/><path id="path33" fill="#333" stroke="none" d="M 53.601059 43.649063 C 54.36681 44.247765 54.502232 45.353878 53.90353 46.119629 C 53.304825 46.885384 52.198715 47.020805 51.432961 46.422104 C 50.667206 45.823399 50.531784 44.717289 51.130489 43.95153 C 51.729191 43.18578 52.8353 43.050358 53.601059 43.649063 Z"/><path id="path34" fill="#333" stroke="none" d="M 56.981373 36.426056 C 57.894657 36.758823 58.365257 37.768951 58.03249 38.682236 C 57.699718 39.59552 56.68959 40.06612 55.776306 39.733353 C 54.863022 39.400581 54.392418 38.390453 54.725189 37.477165 C 55.057961 36.563885 56.068085 36.093285 56.981373 36.426056 Z"/><path id="path35" fill="#333" stroke="none" d="M 58.266399 28.639198 C 59.238422 28.678082 59.994881 29.49758 59.956001 30.469599 C 59.917122 31.441622 59.097622 32.198082 58.125599 32.159203 C 57.15358 32.120319 56.397118 31.300821 56.436001 30.328798 C 56.47488 29.356779 57.29438 28.600319 58.266399 28.639198 Z"/><path id="path36" fill="#333" stroke="none" d="M 58.628426 21.917538 C 58.896023 22.851997 58.355427 23.826458 57.420963 24.094059 C 56.486507 24.361656 55.512043 23.82106 55.244446 22.8866 C 54.976845 21.952141 55.517445 20.977676 56.4519 20.710079 C 57.386364 20.442478 58.360825 20.983078 58.628426 21.917538 Z"/><path id="path37" fill="#333" stroke="none" d="M 55.049007 14.211201 C 55.59227 15.017231 55.379257 16.111053 54.573227 16.65432 C 53.767193 17.197586 52.673374 16.98457 52.130108 16.178539 C 51.586845 15.372509 51.799854 14.278687 52.605888 13.73542 C 53.411919 13.192158 54.505741 13.40517 55.049007 14.211201 Z"/><path id="path38" fill="#333" stroke="none" d="M 49.254692 8.003994 C 50.020447 8.602699 50.155869 9.708809 49.557163 10.474567 C 48.958462 11.240318 47.852348 11.37574 47.086594 10.777039 C 46.320839 10.178333 46.185417 9.072224 46.784122 8.306469 C 47.382824 7.540714 48.488937 7.405293 49.254692 8.003994 Z"/><path id="path39" fill="#333" stroke="none" d="M 41.831692 3.867153 C 42.744976 4.199924 43.215576 5.210049 42.882809 6.123337 C 42.550037 7.036621 41.539913 7.507221 40.626625 7.17445 C 39.713341 6.841682 39.242741 5.831554 39.575508 4.91827 C 39.908279 4.004986 40.918407 3.534382 41.831692 3.867153 Z"/><linearGradient id="linearGradient21" x1="31.163" x2="32.795" y1="11.8" y2="24.61" gradientUnits="userSpaceOnUse"><stop offset="0" stop-color="#1a1a1a"/><stop offset=".1" stop-color="#202020"/><stop offset=".23" stop-color="#323232"/><stop offset=".39" stop-color="#4e4e4e"/><stop offset=".56" stop-color="#767676"/><stop offset=".74" stop-color="#a9a9a9"/><stop offset=".93" stop-color="#e6e6e6"/><stop offset="1" stop-color="#fff"/></linearGradient><path id="path40" fill="#1a1a1a" stroke="url(#linearGradient21)" stroke-width=".4" d="M 32.200001 24.889999 L 31.49 11.98"/><linearGradient id="linearGradient22" x1="22.618" x2="30.445" y1="14.873" y2="25.146" gradientUnits="userSpaceOnUse"><stop offset="0" stop-color="#1a1a1a"/><stop offset=".1" stop-color="#202020"/><stop offset=".23" stop-color="#323232"/><stop offset=".39" stop-color="#4e4e4e"/><stop offset=".56" stop-color="#767676"/><stop offset=".74" stop-color="#a9a9a9"/><stop offset=".93" stop-color="#e6e6e6"/><stop offset="1" stop-color="#fff"/></linearGradient><path id="path41" fill="#1a1a1a" stroke="url(#linearGradient22)" stroke-width=".4" d="M 30 25.670002 L 22.940001 14.849998"/><linearGradient id="linearGradient23" x1="16.766" x2="28.676" y1="21.799" y2="26.79" gradientUnits="userSpaceOnUse"><stop offset="0" stop-color="#1a1a1a"/><stop offset=".1" stop-color="#202020"/><stop offset=".23" stop-color="#323232"/><stop offset=".39" stop-color="#4e4e4e"/><stop offset=".56" stop-color="#767676"/><stop offset=".74" stop-color="#a9a9a9"/><stop offset=".93" stop-color="#e6e6e6"/><stop offset="1" stop-color="#fff"/></linearGradient><path id="path42" fill="#1a1a1a" stroke="url(#linearGradient23)" stroke-width=".4" d="M 28.49 27.450001 L 16.959999 21.610001"/><linearGradient id="linearGradient24" x1="15.171" x2="27.981" y1="30.731" y2="29.099" gradientUnits="userSpaceOnUse"><stop offset="0" stop-color="#1a1a1a"/><stop offset=".1" stop-color="#202020"/><stop offset=".23" stop-color="#323232"/><stop offset=".39" stop-color="#4e4e4e"/><stop offset=".56" stop-color="#767676"/><stop offset=".74" stop-color="#a9a9a9"/><stop offset=".93" stop-color="#e6e6e6"/><stop offset="1" stop-color="#fff"/></linearGradient><path id="path43" fill="#1a1a1a" stroke="url(#linearGradient24)" stroke-width=".4" d="M 28.07 29.74 L 15.17 30.449999"/><linearGradient id="linearGradient25" x1="18.241" x2="28.519" y1="39.266" y2="31.448" gradientUnits="userSpaceOnUse"><stop offset="0" stop-color="#1a1a1a"/><stop offset=".1" stop-color="#202020"/><stop offset=".23" stop-color="#323232"/><stop offset=".39" stop-color="#4e4e4e"/><stop offset=".56" stop-color="#767676"/><stop offset=".74" stop-color="#a9a9a9"/><stop offset=".93" stop-color="#e6e6e6"/><stop offset="1" stop-color="#fff"/></linearGradient><path id="path44" fill="#1a1a1a" stroke="url(#linearGradient25)" stroke-width=".4" d="M 28.860001 31.940001 L 18.030001 39"/><linearGradient id="linearGradient26" x1="25.172" x2="30.159" y1="45.129" y2="33.206" gradientUnits="userSpaceOnUse"><stop offset="0" stop-color="#1a1a1a"/><stop offset=".1" stop-color="#202020"/><stop offset=".23" stop-color="#323232"/><stop offset=".39" stop-color="#4e4e4e"/><stop offset=".56" stop-color="#767676"/><stop offset=".74" stop-color="#a9a9a9"/><stop offset=".93" stop-color="#e6e6e6"/><stop offset="1" stop-color="#fff"/></linearGradient><path id="path45" fill="#1a1a1a" stroke="url(#linearGradient26)" stroke-width=".4" d="M 30.629999 33.449997 L 24.790001 44.970001"/><linearGradient id="linearGradient27" x1="34.102" x2="32.47" y1="46.733" y2="33.923" gradientUnits="userSpaceOnUse"><stop offset="0" stop-color="#1a1a1a"/><stop offset=".1" stop-color="#202020"/><stop offset=".23" stop-color="#323232"/><stop offset=".39" stop-color="#4e4e4e"/><stop offset=".56" stop-color="#767676"/><stop offset=".74" stop-color="#a9a9a9"/><stop offset=".93" stop-color="#e6e6e6"/><stop offset="1" stop-color="#fff"/></linearGradient><path id="path46" fill="#1a1a1a" stroke="url(#linearGradient27)" stroke-width=".4" d="M 32.93 33.870003 L 33.630001 46.77"/><linearGradient id="linearGradient28" x1="42.64" x2="34.822" y1="43.651" y2="33.374" gradientUnits="userSpaceOnUse"><stop offset="0" stop-color="#1a1a1a"/><stop offset=".1" stop-color="#202020"/><stop offset=".23" stop-color="#323232"/><stop offset=".39" stop-color="#4e4e4e"/><stop offset=".56" stop-color="#767676"/><stop offset=".74" stop-color="#a9a9a9"/><stop offset=".93" stop-color="#e6e6e6"/><stop offset="1" stop-color="#fff"/></linearGradient><path id="path47" fill="#1a1a1a" stroke="url(#linearGradient28)" stroke-width=".4" d="M 35.119999 33.080002 L 42.189999 43.900002"/><linearGradient id="linearGradient29" x1="48.493" x2="36.583" y1="36.719" y2="31.728" gradientUnits="userSpaceOnUse"><stop offset="0" stop-color="#1a1a1a"/><stop offset=".1" stop-color="#202020"/><stop offset=".23" stop-color="#323232"/><stop offset=".39" stop-color="#4e4e4e"/><stop offset=".56" stop-color="#767676"/><stop offset=".74" stop-color="#a9a9a9"/><stop offset=".93" stop-color="#e6e6e6"/><stop offset="1" stop-color="#fff"/></linearGradient><path id="path48" fill="#1a1a1a" stroke="url(#linearGradient29)" stroke-width=".4" d="M 36.630001 31.309999 L 48.16 37.139999"/><linearGradient id="linearGradient30" x1="50.093" x2="37.284" y1="27.792" y2="29.434" gradientUnits="userSpaceOnUse"><stop offset="0" stop-color="#1a1a1a"/><stop offset=".1" stop-color="#202020"/><stop offset=".23" stop-color="#323232"/><stop offset=".39" stop-color="#4e4e4e"/><stop offset=".56" stop-color="#767676"/><stop offset=".74" stop-color="#a9a9a9"/><stop offset=".93" stop-color="#e6e6e6"/><stop offset="1" stop-color="#fff"/></linearGradient><path id="path49" fill="#1a1a1a" stroke="url(#linearGradient30)" stroke-width=".4" d="M 37.049999 29.01 L 49.950001 28.310001"/><linearGradient id="linearGradient31" x1="47.02" x2="36.747" y1="19.254" y2="27.081" gradientUnits="userSpaceOnUse"><stop offset="0" stop-color="#1a1a1a"/><stop offset=".1" stop-color="#202020"/><stop offset=".23" stop-color="#323232"/><stop offset=".39" stop-color="#4e4e4e"/><stop offset=".56" stop-color="#767676"/><stop offset=".74" stop-color="#a9a9a9"/><stop offset=".93" stop-color="#e6e6e6"/><stop offset="1" stop-color="#fff"/></linearGradient><path id="path50" fill="#1a1a1a" stroke="url(#linearGradient31)" stroke-width=".4" d="M 36.27 26.810001 L 47.09 19.75"/><linearGradient id="linearGradient32" x1="40.097" x2="35.101" y1="13.394" y2="25.312" gradientUnits="userSpaceOnUse"><stop offset="0" stop-color="#1a1a1a"/><stop offset=".1" stop-color="#202020"/><stop offset=".23" stop-color="#323232"/><stop offset=".39" stop-color="#4e4e4e"/><stop offset=".56" stop-color="#767676"/><stop offset=".74" stop-color="#a9a9a9"/><stop offset=".93" stop-color="#e6e6e6"/><stop offset="1" stop-color="#fff"/></linearGradient><path id="path51" fill="#1a1a1a" stroke="url(#linearGradient32)" stroke-width=".4" d="M 34.490002 25.299999 L 40.330002 13.779999"/><path id="path52" fill="#1a1a1a" stroke="none" d="M 33.313896 11.777866 C 33.37764 12.747795 32.643028 13.585751 31.6731 13.649494 C 30.703171 13.713234 29.865215 12.978626 29.801472 12.008698 C 29.73773 11.038769 30.47234 10.200813 31.442268 10.13707 C 32.412197 10.073326 33.250153 10.807938 33.313896 11.777866 Z"/><path id="path53" fill="#1a1a1a" stroke="none" d="M 24.412348 13.748039 C 24.952515 14.556152 24.735304 15.649147 23.927193 16.189316 C 23.119081 16.729481 22.026085 16.512268 21.485918 15.704159 C 20.945749 14.896046 21.162962 13.803051 21.971073 13.262882 C 22.779186 12.722717 23.872181 12.93993 24.412348 13.748039 Z"/><path id="path54" fill="#1a1a1a" stroke="none" d="M 17.675566 19.894985 C 18.547421 20.324745 18.905807 21.379913 18.476046 22.25177 C 18.046284 23.123623 16.991116 23.48201 16.119261 23.052246 C 15.247406 22.622486 14.889019 21.567318 15.318781 20.695465 C 15.748543 19.823608 16.803711 19.465221 17.675566 19.894985 Z"/><path id="path55" fill="#1a1a1a" stroke="none" d="M 16.799356 30.231489 C 16.863098 31.201416 16.12849 32.039371 15.158562 32.103115 C 14.188632 32.166855 13.350676 31.432247 13.286934 30.46232 C 13.223191 29.49239 13.957801 28.654434 14.92773 28.590694 C 15.897659 28.526951 16.735613 29.261559 16.799356 30.231489 Z"/><path id="path56" fill="#1a1a1a" stroke="none" d="M 19.333958 37.975235 C 19.874125 38.783344 19.656914 39.876343 18.848803 40.416508 C 18.040689 40.956673 16.947695 40.739464 16.407528 39.931351 C 15.86736 39.123238 16.084572 38.030243 16.892683 37.490074 C 17.700796 36.949905 18.793791 37.167122 19.333958 37.975235 Z"/><path id="path57" fill="#1a1a1a" stroke="none" d="M 25.394058 43.423901 C 26.265911 43.853661 26.624298 44.908829 26.194536 45.780685 C 25.764774 46.652538 24.709606 47.010925 23.837753 46.581161 C 22.965897 46.151402 22.60751 45.096233 23.037271 44.22438 C 23.467033 43.352524 24.522202 42.994141 25.394058 43.423901 Z"/><path id="path58" fill="#1a1a1a" stroke="none" d="M 35.252979 46.756027 C 35.316723 47.725956 34.582111 48.563911 33.612186 48.627655 C 32.642254 48.691399 31.804298 47.956787 31.740557 46.986862 C 31.676813 46.01693 32.411423 45.178974 33.381355 45.115231 C 34.35128 45.051491 35.189236 45.786098 35.252979 46.756027 Z"/><path id="path59" fill="#1a1a1a" stroke="none" d="M 43.566711 43.071938 C 44.106876 43.880051 43.889664 44.973045 43.081551 45.513214 C 42.273441 46.053379 41.180443 45.836166 40.640278 45.028057 C 40.100109 44.21994 40.317322 43.126945 41.125431 42.586781 C 41.933544 42.046612 43.026543 42.263824 43.566711 43.071938 Z"/><path id="path60" fill="#1a1a1a" stroke="none" d="M 48.922974 35.705406 C 49.79483 36.13517 50.153217 37.190338 49.723454 38.062195 C 49.293694 38.934048 48.238525 39.292435 47.366669 38.862671 C 46.494816 38.432911 46.136429 37.377743 46.566193 36.505886 C 46.995953 35.634033 48.051121 35.27565 48.922974 35.705406 Z"/><path id="path61" fill="#1a1a1a" stroke="none" d="M 51.767521 28.302406 C 51.831261 29.272333 51.096653 30.110291 50.126724 30.174032 C 49.156796 30.237776 48.31884 29.503166 48.255096 28.533237 C 48.191353 27.563309 48.925964 26.725353 49.895889 26.66161 C 50.865822 26.597866 51.703777 27.332478 51.767521 28.302406 Z"/><path id="path62" fill="#1a1a1a" stroke="none" d="M 48.657856 18.820873 C 49.198021 19.628983 48.980812 20.721981 48.172699 21.26215 C 47.364586 21.802315 46.271591 21.585102 45.731422 20.776989 C 45.191257 19.96888 45.40847 18.875881 46.216579 18.335716 C 47.024693 17.795547 48.117687 18.01276 48.657856 18.820873 Z"/><path id="path63" fill="#1a1a1a" stroke="none" d="M 41.204479 12.176495 C 42.076336 12.606255 42.434723 13.661423 42.004959 14.533276 C 41.575199 15.405132 40.520031 15.763519 39.648174 15.333759 C 38.776321 14.903996 38.417934 13.848827 38.847698 12.976971 C 39.277458 12.105118 40.332626 11.746731 41.204479 12.176495 Z"/><linearGradient id="linearGradient33" x1="32.56" x2="32.56" y1="27.5" y2="27.5" gradientUnits="userSpaceOnUse"><stop offset="0" stop-color="#fff"/><stop offset=".12" stop-color="#ececec"/><stop offset=".36" stop-color="#b9b9b9"/><stop offset=".69" stop-color="#696969"/><stop offset="1" stop-color="#1a1a1a"/></linearGradient><path id="path64" fill="#1a1a1a" stroke="url(#linearGradient33)" stroke-width=".4" d="M 32.560001 21.279999 L 32.560001 27.5"/><linearGradient id="linearGradient34" x1="25.755" x2="20.128" y1="18.25" y2="15.536" gradientUnits="userSpaceOnUse"><stop offset="0" stop-color="#fff"/><stop offset=".12" stop-color="#ececec"/><stop offset=".36" stop-color="#b9b9b9"/><stop offset=".69" stop-color="#696969"/><stop offset="1" stop-color="#1a1a1a"/></linearGradient><path id="path65" fill="#1a1a1a" stroke="url(#linearGradient34)" stroke-width=".4" d="M 25.549999 25.330002 L 30.93 28.439999"/><linearGradient id="linearGradient35" x1="30.812" x2="25.659" y1="30.129" y2="33.623" gradientUnits="userSpaceOnUse"><stop offset="0" stop-color="#fff"/><stop offset=".12" stop-color="#ececec"/><stop offset=".36" stop-color="#b9b9b9"/><stop offset=".69" stop-color="#696969"/><stop offset="1" stop-color="#1a1a1a"/></linearGradient><path id="path66" fill="#1a1a1a" stroke="url(#linearGradient35)" stroke-width=".4" d="M 25.549999 33.43 L 30.93 30.32"/><linearGradient id="linearGradient36" x1="32.56" x2="32.56" y1="37.47" y2="37.47" gradientUnits="userSpaceOnUse"><stop offset="0" stop-color="#fff"/><stop offset=".12" stop-color="#ececec"/><stop offset=".36" stop-color="#b9b9b9"/><stop offset=".69" stop-color="#696969"/><stop offset="1" stop-color="#1a1a1a"/></linearGradient><path id="path67" fill="#1a1a1a" stroke="url(#linearGradient36)" stroke-width=".4" d="M 32.560001 37.470001 L 32.560001 31.26"/><linearGradient id="linearGradient37" x1="16.878" x2="22.506" y1="39.994" y2="42.707" gradientUnits="userSpaceOnUse"><stop offset="0" stop-color="#fff"/><stop offset=".12" stop-color="#ececec"/><stop offset=".36" stop-color="#b9b9b9"/><stop offset=".69" stop-color="#696969"/><stop offset="1" stop-color="#1a1a1a"/></linearGradient><path id="path68" fill="#1a1a1a" stroke="url(#linearGradient37)" stroke-width=".4" d="M 39.57 33.43 L 34.189999 30.32"/><linearGradient id="linearGradient38" x1="34.306" x2="39.459" y1="28.635" y2="25.141" gradientUnits="userSpaceOnUse"><stop offset="0" stop-color="#fff"/><stop offset=".12" stop-color="#ececec"/><stop offset=".36" stop-color="#b9b9b9"/><stop offset=".69" stop-color="#696969"/><stop offset="1" stop-color="#1a1a1a"/></linearGradient><path id="path69" fill="#1a1a1a" stroke="url(#linearGradient38)" stroke-width=".4" d="M 39.57 25.330002 L 34.189999 28.439999"/><path id="path70" fill="#1a1a1a" stroke="none" d="M 34.470001 20.630001 C 34.470001 21.60202 33.682022 22.389999 32.709999 22.389999 C 31.737978 22.389999 30.950001 21.60202 30.950001 20.630001 C 30.950001 19.657978 31.737978 18.869999 32.709999 18.869999 C 33.682022 18.869999 34.470001 19.657978 34.470001 20.630001 Z"/><path id="path71" fill="#1a1a1a" stroke="none" d="M 25.91329 23.329178 C 26.755085 23.815189 27.043503 24.891586 26.557493 25.733383 C 26.071482 26.575176 24.995085 26.863598 24.15329 26.37759 C 23.311493 25.891579 23.023075 24.815178 23.509085 23.973385 C 23.995096 23.131588 25.071493 22.843166 25.91329 23.329178 Z"/><path id="path72" fill="#1a1a1a" stroke="none" d="M 26.374937 32.729668 C 26.860949 33.571465 26.572527 34.647865 25.730732 35.133877 C 24.888937 35.619888 23.812538 35.331467 23.326527 34.48967 C 22.840517 33.647877 23.128937 32.57148 23.970732 32.085464 C 24.812527 31.599457 25.888927 31.887877 26.374937 32.729668 Z"/><path id="path73" fill="#1a1a1a" stroke="none" d="M 34.369999 38.139999 C 34.369999 39.112022 33.58202 39.900002 32.610001 39.900002 C 31.63798 39.900002 30.85 39.112022 30.85 38.139999 C 30.85 37.167976 31.63798 36.379997 32.610001 36.379997 C 33.58202 36.379997 34.369999 37.167976 34.369999 38.139999 Z"/><path id="path74" fill="#1a1a1a" stroke="none" d="M 41.040699 32.226402 C 41.886356 32.71241 42.17791 33.791943 41.691898 34.6376 C 41.205887 35.483261 40.126358 35.774811 39.280701 35.288803 C 38.43504 34.802788 38.143486 33.723259 38.629498 32.877602 C 39.115509 32.031944 40.195042 31.740391 41.040699 32.226402 Z"/><path id="path75" fill="#1a1a1a" stroke="none" d="M 41.723427 24.276756 C 42.209435 25.118553 41.921017 26.19495 41.079224 26.680962 C 40.237427 27.166973 39.161026 26.878551 38.675014 26.036758 C 38.189007 25.194962 38.477425 24.118565 39.319221 23.632553 C 40.161015 23.146542 41.237415 23.434963 41.723427 24.276756 Z"/><path id="path76" fill="#1a1a1a" stroke="none" d="M 34.299999 29.34 C 34.299999 30.312021 33.51202 31.1 32.540001 31.1 C 31.567978 31.1 30.780001 30.312021 30.780001 29.34 C 30.780001 28.367981 31.567978 27.580002 32.540001 27.580002 C 33.51202 27.580002 34.299999 28.367981 34.299999 29.34 Z"/><path id="path77" fill="#1a1a1a" stroke="#1a1a1a" stroke-width=".25" d="M 171.940002 6.799999 L 172.059998 6.799999 L 183.649994 35.260002 L 184.809998 35.260002 L 172.639999 5.720001 L 171.320007 5.720001 L 159.149994 35.260002 L 160.309998 35.260002 L 171.940002 6.799999 Z"/><path id="path78" fill="#1a1a1a" stroke="#1a1a1a" stroke-width=".25" d="M 159.979996 34.199997 L 183.899994 34.199997 L 183.899994 35.269997 L 159.979996 35.269997 Z"/><path id="path79" fill="#1a1a1a" stroke="#1a1a1a" stroke-width=".25" d="M 118.75 5.720001 L 118.75 35.309998 L 117.75 35.309998 L 117.75 5.720001 Z"/><path id="path80" fill="#1a1a1a" stroke="#1a1a1a" stroke-width=".25" d="M 140 5.720001 C 144.466665 5.720001 147.819997 7.126667 150.059998 9.939999 C 152.059998 12.419999 153.059998 15.936667 153.059998 20.490002 C 153.059998 24.880001 151.860001 28.43 149.5 31.08 C 147.139999 33.729996 143.5 35.260002 139.110001 35.260002 L 129.720001 35.260002 L 129.720001 5.720001 Z M 130.710007 34.309998 L 139.110001 34.309998 C 143.25 34.309998 146.429993 33.029999 148.75 30.459999 C 151.070007 27.889999 152.059998 24.670002 152.059998 20.529999 C 152.059998 16.139999 151.149994 12.830002 149.369995 10.529999 C 147.369995 7.959999 144.240005 6.720001 140.020004 6.720001 L 130.710007 6.720001 Z"/><path id="path81" fill="#1a1a1a" stroke="#1a1a1a" stroke-width=".25" d="M 97.019997 6.799999 L 97.139999 6.799999 L 108.730003 35.260002 L 109.889999 35.260002 L 97.720001 5.720001 L 96.400002 5.720001 L 84.230003 35.260002 L 85.389999 35.260002 L 97.019997 6.799999 Z"/><path id="path82" fill="#1a1a1a" stroke="#1a1a1a" stroke-width=".25" d="M 85.059998 34.199997 L 108.980003 34.199997 L 108.980003 35.269997 L 85.059998 35.269997 Z"/><path id="path83" fill="#1a1a1a" stroke="#1a1a1a" stroke-width=".25" d="M 90.239998 54.260002 C 90.136108 54.644184 89.952072 55.002026 89.699997 55.310001 C 89.42971 55.627247 89.086594 55.874294 88.699997 56.030003 C 87.732269 56.389259 86.667732 56.389259 85.699997 56.030003 C 85.313408 55.874294 84.970284 55.627247 84.699997 55.310001 C 84.445145 54.996319 84.260956 54.631351 84.160004 54.240002 C 84.049294 53.808868 83.995499 53.365097 84 52.920002 L 84 47.77 L 84.260002 47.77 L 84.260002 52.890003 C 84.262131 53.242275 84.295593 53.593658 84.360001 53.940002 C 84.429176 54.297173 84.568535 54.63707 84.769997 54.940002 C 84.994423 55.27124 85.296562 55.542473 85.650002 55.73 C 86.121727 55.962692 86.644493 56.072746 87.169998 56.050003 C 87.68782 56.070835 88.202858 55.964394 88.669998 55.740002 C 89.027122 55.558365 89.333092 55.290215 89.559998 54.960003 C 89.764297 54.657478 89.907013 54.317677 89.980003 53.960003 C 90.049843 53.607529 90.08667 53.249313 90.089996 52.890003 L 90.089996 47.77 L 90.349998 47.77 L 90.349998 52.940002 C 90.370644 53.382908 90.333664 53.826622 90.239998 54.260002 Z"/><path id="path84" fill="#1a1a1a" stroke="#1a1a1a" stroke-width=".25" d="M 100.529999 54.09 C 100.534958 54.418705 100.463051 54.744019 100.32 55.040001 C 100.187508 55.309151 100.00016 55.547596 99.769997 55.740002 C 99.534569 55.935085 99.262596 56.081268 98.970001 56.170002 C 98.655846 56.26651 98.328629 56.31374 98 56.310001 C 97.512436 56.31546 97.028999 56.220135 96.580002 56.030003 C 96.182518 55.867889 95.824455 55.62236 95.529999 55.310001 L 95.730003 55.130001 C 96.007484 55.439335 96.348625 55.684956 96.730003 55.850002 C 97.120399 56.009533 97.538261 56.091068 97.959999 56.09 C 98.255623 56.090229 98.54937 56.042961 98.830002 55.950001 C 99.094826 55.865009 99.342133 55.732887 99.559998 55.560001 C 99.770638 55.393024 99.941437 55.181229 100.059998 54.940002 C 100.184845 54.674374 100.24646 54.383434 100.239998 54.09 C 100.249138 53.806744 100.179932 53.526455 100.040001 53.280003 C 99.904274 53.061646 99.727715 52.87151 99.519997 52.720001 C 99.298172 52.558937 99.056091 52.427807 98.800003 52.330002 C 98.526667 52.223335 98.253334 52.126668 97.980003 52.040001 C 97.706668 51.953334 97.389999 51.836667 97.029999 51.690002 C 96.761848 51.578575 96.512299 51.426823 96.290001 51.240002 C 96.085449 51.068012 95.921532 50.852863 95.809998 50.610001 C 95.689346 50.325695 95.631363 50.01873 95.639999 49.710003 C 95.63047 49.087444 95.911423 48.49596 96.400002 48.110001 C 96.64592 47.921936 96.923683 47.779671 97.220001 47.690002 C 97.543388 47.587811 97.880859 47.537189 98.220001 47.540001 C 98.63208 47.538383 99.040237 47.620018 99.419998 47.780003 C 99.782288 47.929562 100.101822 48.166641 100.349998 48.470001 L 100.150002 48.650002 C 99.925278 48.37249 99.637199 48.153004 99.309998 48.010002 C 98.960632 47.855064 98.582169 47.776646 98.199997 47.780003 C 97.919083 47.780945 97.639687 47.821339 97.370003 47.900002 C 97.10743 47.976242 96.860329 48.098099 96.639999 48.260002 C 96.421219 48.418434 96.240219 48.623337 96.110001 48.860001 C 95.86647 49.390034 95.86647 49.999969 96.110001 50.530003 C 96.225327 50.750618 96.385399 50.944752 96.580002 51.100002 C 96.780251 51.260845 97.00251 51.392178 97.239998 51.490002 C 97.486666 51.590003 97.74 51.683336 98 51.77 C 98.26 51.856668 98.593333 51.976668 99 52.130001 C 99.284637 52.241314 99.553566 52.389225 99.800003 52.57 C 100.02562 52.736145 100.21032 52.951626 100.339996 53.200001 C 100.474113 53.477028 100.539299 53.78236 100.529999 54.09 Z"/><path id="path85" fill="#1a1a1a" stroke="#1a1a1a" stroke-width=".25" d="M 105.769997 56.080002 L 105.769997 47.77 L 110.620003 47.77 L 110.620003 48 L 106 48 L 106 51.650002 L 110.32 51.650002 L 110.32 51.880001 L 106 51.880001 L 106 55.880001 L 110.779999 55.880001 L 110.779999 56.110001 Z"/><path id="path86" fill="#1a1a1a" stroke="#1a1a1a" stroke-width=".25" d="M 120.57 56.080002 L 118.059998 51.890003 L 116.099998 51.890003 L 116.099998 56.080002 L 115.839996 56.080002 L 115.839996 47.77 L 118.139999 47.77 C 118.451729 47.769726 118.762894 47.796494 119.07 47.850002 C 119.367279 47.898544 119.652458 48.003788 119.910004 48.16 C 120.158768 48.317463 120.364853 48.533855 120.510002 48.790001 C 120.675797 49.096718 120.75853 49.441448 120.75 49.790001 C 120.768036 50.137062 120.692032 50.482555 120.529999 50.790001 C 120.387413 51.041611 120.188988 51.257141 119.949997 51.420002 C 119.71315 51.5826 119.448921 51.701164 119.169998 51.77 C 118.895485 51.840546 118.613419 51.877483 118.330002 51.880001 L 120.849998 56.080002 Z M 120.5 49.82 C 120.512405 49.506557 120.43985 49.195587 120.290001 48.920002 C 120.154251 48.688549 119.961456 48.495747 119.730003 48.360001 C 119.482643 48.216648 119.211754 48.11845 118.93 48.07 C 118.62635 48.015839 118.318443 47.989063 118.010002 47.990002 L 116.110001 47.990002 L 116.110001 51.670002 L 118.110001 51.670002 C 118.734039 51.713318 119.354362 51.54414 119.870003 51.190002 C 120.286194 50.860573 120.517212 50.350094 120.489998 49.82 Z"/><path id="path87" fill="#1a1a1a" stroke="#1a1a1a" stroke-width=".25" d="M 137.779999 56.09 C 137.200607 56.249924 136.600891 56.324043 136 56.310001 C 135.383301 56.318218 134.77121 56.202602 134.199997 55.970001 C 133.678223 55.75779 133.205246 55.441334 132.809998 55.040001 C 132.421036 54.638855 132.118164 54.162437 131.919998 53.640003 C 131.709412 53.084312 131.604279 52.494228 131.610001 51.900002 C 131.605804 51.304996 131.714386 50.714581 131.929993 50.16 C 132.129379 49.641129 132.432175 49.168213 132.820007 48.77 C 133.209808 48.376381 133.676025 48.066692 134.190002 47.860001 C 134.749313 47.635521 135.347351 47.523388 135.949997 47.530003 C 136.477966 47.524445 137.002747 47.612473 137.5 47.790001 C 137.953522 47.950386 138.376282 48.18713 138.75 48.490002 L 138.559998 48.68 C 138.389969 48.533169 138.201752 48.408817 138 48.310001 C 137.788849 48.194328 137.568008 48.097294 137.339996 48.02 C 136.882065 47.867687 136.402603 47.790028 135.919998 47.790001 C 135.34729 47.781124 134.77887 47.890041 134.25 48.110001 C 133.763245 48.314579 133.324051 48.617588 132.960007 49 C 132.624329 49.383411 132.366241 49.828297 132.199997 50.310001 C 132.004898 50.824196 131.90657 51.370045 131.910004 51.920002 C 131.906158 52.472363 132.000977 53.020973 132.190002 53.540001 C 132.370819 54.034111 132.64975 54.486519 133.009995 54.870003 C 133.375824 55.257381 133.818649 55.563946 134.309998 55.77 C 134.861633 55.996796 135.453629 56.10907 136.050003 56.100002 C 136.555695 56.105427 137.059937 56.044918 137.550003 55.920002 C 137.966949 55.80954 138.372192 55.658829 138.759995 55.470001 L 138.759995 52.200001 L 136.600006 52.200001 L 136.600006 51.98 L 139 51.98 L 139 55.610001 C 138.610748 55.81115 138.201965 55.971985 137.779999 56.09 Z"/><path id="path88" fill="#1a1a1a" stroke="#1a1a1a" stroke-width=".25" d="M 149.259995 56.080002 L 146.75 51.890003 L 144.800003 51.890003 L 144.800003 56.080002 L 144.539993 56.080002 L 144.539993 47.77 L 146.839996 47.77 C 147.151733 47.769726 147.462891 47.796494 147.770004 47.850002 C 148.067276 47.898544 148.352463 48.003788 148.610001 48.16 C 148.858765 48.317463 149.06485 48.533855 149.210007 48.790001 C 149.375793 49.096718 149.458527 49.441448 149.449997 49.790001 C 149.468033 50.137062 149.392029 50.482555 149.229996 50.790001 C 149.087418 51.041611 148.888992 51.257141 148.649994 51.420002 C 148.413147 51.5826 148.148926 51.701164 147.869995 51.77 C 147.59549 51.840546 147.313416 51.877483 147.029999 51.880001 L 149.550003 56.080002 Z M 149.190002 49.82 C 149.202408 49.506557 149.129852 49.195587 148.979996 48.920002 C 148.844254 48.688549 148.651459 48.495747 148.419998 48.360001 C 148.172638 48.216648 147.901764 48.11845 147.619995 48.07 C 147.316345 48.015839 147.008438 47.989063 146.699997 47.990002 L 144.800003 47.990002 L 144.800003 51.670002 L 146.800003 51.670002 C 147.424042 51.713318 148.044357 51.54414 148.559998 51.190002 C 148.979935 50.862679 149.214844 50.35186 149.190002 49.82 Z"/><path id="path89" fill="#1a1a1a" stroke="#1a1a1a" stroke-width=".25" d="M 162.809998 51.93 C 162.818024 52.53508 162.709381 53.136036 162.490005 53.700001 C 162.288422 54.217762 161.985886 54.690258 161.600006 55.09 C 161.212769 55.482063 160.750137 55.791622 160.240005 56 C 159.145706 56.438923 157.924301 56.438923 156.830002 56 C 156.31987 55.791622 155.857224 55.482063 155.470001 55.09 C 155.083893 54.690426 154.781326 54.217884 154.580002 53.700001 C 154.150818 52.562469 154.150818 51.307533 154.580002 50.170002 C 154.781326 49.652119 155.083893 49.179577 155.470001 48.780003 C 155.854645 48.389473 156.31369 48.08004 156.820007 47.870003 C 157.917831 47.431496 159.142166 47.431496 160.240005 47.870003 C 160.746307 48.08004 161.205353 48.389473 161.589996 48.780003 C 161.975891 49.179745 162.278427 49.652241 162.479996 50.170002 C 162.701538 50.730167 162.813553 51.327629 162.809998 51.93 Z M 162.550003 51.93 C 162.555679 51.373352 162.457321 50.820538 162.259995 50.300003 C 162.072601 49.809814 161.790573 49.361294 161.429993 48.98 C 161.07106 48.600685 160.639053 48.297939 160.160004 48.09 C 159.122803 47.659992 157.957199 47.659992 156.919998 48.09 C 156.440811 48.297699 156.008759 48.600475 155.649994 48.98 C 155.289429 49.361294 155.007401 49.809814 154.820007 50.300003 C 154.622452 50.820473 154.524094 51.373329 154.529999 51.93 C 154.52594 52.486515 154.624237 53.039036 154.820007 53.560001 C 155.00441 54.049374 155.283005 54.497837 155.639999 54.880001 C 155.99765 55.260815 156.429993 55.563789 156.910004 55.77 C 157.964371 56.20071 159.14563 56.20071 160.199997 55.77 C 160.679871 55.563538 161.112152 55.260597 161.470001 54.880001 C 161.826996 54.497837 162.105591 54.049374 162.289993 53.560001 C 162.475311 53.037064 162.563431 52.484642 162.550003 51.93 Z"/><path id="path90" fill="#1a1a1a" stroke="#1a1a1a" stroke-width=".25" d="M 174.110001 54.260002 C 174.008743 54.651241 173.824585 55.016148 173.570007 55.330002 C 173.299713 55.647247 172.956589 55.894295 172.570007 56.050003 C 171.602264 56.40926 170.537735 56.40926 169.570007 56.050003 C 169.183411 55.894295 168.840286 55.647247 168.570007 55.330002 C 168.31514 55.016319 168.130951 54.651352 168.029999 54.260002 C 167.919296 53.828869 167.865494 53.385098 167.869995 52.940002 L 167.869995 47.77 L 168.130005 47.77 L 168.130005 52.890003 C 168.132126 53.242275 168.165604 53.593658 168.229996 53.940002 C 168.299179 54.297173 168.438538 54.63707 168.639999 54.940002 C 168.864426 55.27124 169.166565 55.542473 169.520004 55.73 C 169.99173 55.962692 170.514496 56.072746 171.039993 56.050003 C 171.557816 56.070835 172.072861 55.964394 172.539993 55.740002 C 172.897125 55.558365 173.203094 55.290215 173.429993 54.960003 C 173.634293 54.657478 173.777008 54.317677 173.850006 53.960003 C 173.919846 53.607529 173.956665 53.249313 173.960007 52.890003 L 173.960007 47.77 L 174.220001 47.77 L 174.220001 52.940002 C 174.240646 53.382908 174.203674 53.826622 174.110001 54.260002 Z"/><path id="path91" fill="#1a1a1a" stroke="#1a1a1a" stroke-width=".25" d="M 184.619995 49.84 C 184.62709 50.160316 184.562149 50.478134 184.429993 50.77 C 184.309464 51.032558 184.131805 51.264881 183.910004 51.450001 C 183.681839 51.634537 183.420471 51.773708 183.139999 51.860001 C 182.839294 51.955273 182.525436 52.002518 182.210007 52 L 180.059998 52 L 180.059998 56.09 L 179.800003 56.09 L 179.800003 47.77 L 182 47.77 C 182.302704 47.771187 182.604416 47.80471 182.899994 47.870003 C 183.193985 47.930111 183.474991 48.04184 183.729996 48.200001 C 183.977234 48.359322 184.182922 48.575291 184.330002 48.830002 C 184.517746 49.133579 184.618088 49.483067 184.619995 49.84 Z M 184.360001 49.84 C 184.370941 49.534271 184.302017 49.230968 184.160004 48.960003 C 184.033493 48.734764 183.855255 48.542824 183.639999 48.400002 C 183.42363 48.255295 183.183212 48.150318 182.929993 48.09 C 182.674393 48.029713 182.412613 47.999508 182.149994 48 L 180.050003 48 L 180.050003 51.780003 L 182.210007 51.780003 C 182.47377 51.778732 182.73616 51.74173 182.990005 51.670002 C 183.239838 51.602383 183.474167 51.486916 183.679993 51.330002 C 183.886108 51.169117 184.053543 50.964096 184.169998 50.73 C 184.303009 50.452595 184.368134 50.147537 184.360001 49.84 Z"/></svg>