<svg xmlns="http://www.w3.org/2000/svg" role="img" viewBox="446.80 400.80 1882.40 710.40"><title>Aivancity Achool for Technology, Business &amp; Society Paris-Cachan logo</title><path d="M1153.5 438.7c-18.8 5.6-17.8 29.6 1.3 33.3 13.9 2.6 25.2-4.9 25.2-16.7 0-8.7-4.2-14.4-12.4-16.8-6-1.8-7.7-1.8-14.1.2zm625-.2c-7.8 3-12.5 9.4-12.5 17 0 7.8 4.3 13.5 12.3 16.1 13.2 4.4 27.3-3.2 28.4-15.3.6-6.7-2.7-13-8.5-16.1-5.4-3-14.2-3.7-19.7-1.7zM852 757c0 317.8 0 319 2 319s2-1.2 2-319c0-318.6 0-319-2-319s-2 .4-2 319zm1018-295.3c-8.5 3-16.9 5.9-18.7 6.5l-3.2 1.1-.3 11.1-.3 11.1-6.2.3c-5.4.3-6.3.6-6.3 2.2s.9 1.9 6.3 2.2l6.2.3.5 47c.5 41.2.8 47.5 2.2 51.3 3.9 9.6 11.2 16.9 20.1 20 12.7 4.4 28.2 3.8 38-1.6 9.8-5.3 17.7-17.1 17.7-26.2 0-2.8-.4-3.6-1.9-3.6-1.4 0-2.1 1-2.5 3.8-1.5 9.2-8.2 14.8-17.8 14.8-6.7 0-11-2.5-14-8.2-2.3-4.3-2.3-4.5-2.6-51.1l-.3-46.7h25.4c19.2 0 25.7.3 26.5 1.2 1 1.3 10.7 22.4 22 47.8 3.3 7.4 7.3 16.4 8.9 20 1.7 3.6 4.5 9.9 6.3 14 1.8 4.1 5.4 12.2 8.1 17.9 2.7 5.7 4.9 10.5 4.9 10.7 0 .1 1.4 3.3 3.2 7.1l3.1 6.8-2.2 6.5c-3.8 11.1-11.7 26.4-15.8 30.4-7.2 7.2-17.3 9.6-24.8 6-3.2-1.5-6.5-6.7-5.1-8.1.3-.3 3.2-1 6.3-1.4 7-1 11.6-5.1 13.4-11.9 2-7.8-2-16.5-8.9-19.1-3.5-1.3-10.8-1.1-14.6.5-17.6 7.4-14.1 37.3 5.1 44.2 5 1.7 17.5 1.8 21.7 0 4.7-1.9 11-7.9 15.2-14.3 5.3-7.9 7.8-14.2 41.9-104.4 6.8-18 13.5-35 15-37.8 5.1-10.2 12.5-16.1 19.9-16.1 2.9 0 3.6-.4 3.6-2 0-1.9-.7-2-24-2s-24 .1-24 2c0 1.7.7 2 4.7 2 9 0 14.2 6.3 12.9 15.8-.6 4.6-21.6 62.1-22.7 62.2-.3 0-1.3-1.7-2.2-3.8-3.7-8.4-24.7-59.3-24.7-59.7 0-.2-1.1-2.9-2.5-5.9-3.8-8.4-3.7-8.6 5-8.6 6.8 0 7.5-.2 7.5-2 0-2-.7-2-54.5-2H1887v-18c0-9.9-.3-18-.7-17.9-.5.1-7.8 2.6-16.3 5.6zm-835.5 28.7c-13.8 2.8-21.8 6.8-28.8 14.6-14.6 16.2-7.1 39 12.8 39 11.3 0 20.5-8.3 20.5-18.5 0-8.9-6.7-16.5-14.7-16.5-4.5 0-5.9-1.4-4.8-4.7 2-5.5 10.5-9.3 21-9.3 8.3 0 13 1.5 17.6 5.7 10 9 8.7 31.4-2.5 40.9-5.7 4.9-13.8 8.5-29.9 13.3-15.5 4.6-20 6.6-25.3 11.3-7.8 6.8-10.7 20.7-6.8 32 5.9 17.4 32.2 25.5 52.1 16.1 5.8-2.7 15-10.6 17.2-14.7.8-1.4 1.7-2.6 2-2.6.3 0 1.7 2.5 3 5.6 4.7 10.9 14.8 16.1 29.1 15.1 9.2-.6 14.3-3 19.3-8.8 5.8-6.7 8.9-18.9 4.9-18.9-1.3 0-2.1 1.3-3 4.5-1 3.6-1.9 4.9-4.6 6.2-1.9.9-4.4 1.3-5.7 1-5.2-1.3-5.4-2.3-5.9-43.2l-.5-38-3.1-6.5c-1.7-3.6-4.7-8.3-6.7-10.6-3.9-4.5-13.4-9.7-21.7-11.9-8.1-2.2-27-2.8-35.5-1.1zm28.5 76.8c-.5 23-.7 25.6-2.5 28.7-3 5.1-6.7 7.4-12.7 7.9-6.4.5-11-2.1-14.6-8.3-2-3.5-2.2-5-1.9-13 .6-14.9 4.9-21.8 20.2-32.2 3.3-2.2 6.9-5 8-6.1 1.1-1.2 2.5-2.1 3-2.1.7-.1.8 8.6.5 25.1zm316-77c-25.8 2.6-42.2 17-40.7 35.6.6 7.6 3.8 12.4 10.8 16 5.4 2.9 13.3 2.6 19.6-.7 16-8.1 11.6-31.8-5.8-32.1-4.2 0-5.4-1.8-3.7-5.5 3.6-8 23.2-11.5 34.2-6.1 11.5 5.7 15.1 21.8 8.1 36.2-4.3 8.9-12.1 14.1-28 18.9-33.1 10-40.2 15.5-41.3 32-.9 14.2 4.2 23.3 16.4 29.6 6.6 3.3 7.2 3.4 18.3 3.4 11 0 11.9-.2 18.1-3.2 6.5-3.2 14.2-9.6 17.5-14.6 2.2-3.4 3.1-3.4 3.9-.1 2.1 8.2 10.5 15.4 20.4 17.5 5.9 1.2 14.9.7 19.5-1 7.8-3 13.6-10.4 15.6-19.9 1.4-6.6 1.4-6.2-.7-6.2-1.3 0-2.1 1.3-3 4.5-1.4 5.3-4.6 7.8-9.4 7.3-2.6-.2-3.6-1-5-3.8-1.6-3.1-1.8-7.5-1.8-37.1-.1-36.1-.6-40.3-5.3-49.6-8.2-16-29.7-23.9-57.7-21.1zm24.8 77l-.4 24.3-2.7 4.3c-3.6 5.5-8 8.2-13.7 8.2-6.9 0-11-2.6-14.3-9-2.6-5-2.8-6.2-2.4-13.2.5-8.1 3.3-15.7 7.9-21.1 3.5-4.3 24.2-19.5 25.2-18.6.5.4.7 11.7.4 25.1zm150.7-76.8c-8.1 1.9-14.8 5.8-21.7 12.7-3.2 3.2-6 5.4-6.2 5-.3-.4-.5-3.6-.4-7.2 0-3.5 0-7-.1-7.7-.1-.9-6.2-1.2-27.1-1.2-26.1 0-27 .1-27 2 0 1.7.8 1.9 7.8 2.2 4.2.2 7.6.6 7.5 1-.2.5-.3 26.2-.3 57.3V611h-7.5c-6.8 0-7.5.2-7.5 2 0 2 .7 2 33.5 2 32.6 0 33.5-.1 33.5-2 0-1.6-.8-1.9-6.2-2.2l-6.3-.3V567c0-47.6.3-50.7 5.6-58 4.2-5.8 8.3-8 14.7-8 6.6 0 10.7 2.2 13.3 7.2 1.8 3.5 1.9 6.5 1.9 53.3V611h-6c-5.3 0-6 .2-6 2 0 2 .7 2 33.5 2s33.5 0 33.5-2c0-1.8-.7-2-7.4-2h-7.5l-.4-44.8c-.3-30.1-.8-46.1-1.6-49.1-3.4-12.6-11.8-22.7-21.4-25.7-7.2-2.2-17.1-2.6-24.2-1zm125.5.2c-28.5 5.6-48 31.2-48 63 0 26 9.8 46 27.8 56.7 15.8 9.3 42.3 10 58.4 1.5 10.5-5.5 19-16.9 21.6-28.6.9-4 .9-4.2-1.3-4.2-1.8 0-2.5.7-3 3.2-2 9.1-8.7 17.2-17.4 21.1-7 3.2-18.1 2.9-25.4-.7-15-7.3-21.5-25-20.4-55.6.8-21.6 3.4-31.5 10.8-41.7 7-9.5 20.6-13.2 31.8-8.7 5.2 2.1 9.3 6.8 8.9 10.3-.3 2.3-1 2.7-6.8 3.8-7.7 1.6-12.5 5.1-15.7 11.4-2.6 4.9-2.8 8-1.2 14.4 4.4 17.5 29.6 19 38.6 2.2 1.3-2.3 1.8-5.5 1.8-11.7 0-7.1-.4-9.4-2.7-14.2-8.8-18.7-31.2-27.3-57.8-22.2zm-538.8 52c.3 52.8.3 52.9 2.6 57.9 4.8 10.5 13.5 16.6 24.6 17.3 9.8.6 16.9-1.5 23-6.9 5.4-4.8 8.1-9.6 9.1-16.2.7-4.3.6-4.7-1.3-4.7-1.5 0-2.2.9-2.7 3-.4 1.7-1.8 4.4-3.2 6-3.4 4.1-9.4 4.3-12 .3-1.6-2.4-1.9-6.6-2.3-40.8-.5-36.7-.6-38.2-2.9-43.8-4.3-10.9-18.7-22-31.4-24.3l-3.8-.6.3 52.8zm627 1.1c.3 59.7 0 57.1 7.2 64.6 6.8 7.3 13.1 9.7 23.4 9.2 10-.4 13.8-2 19.8-7.9 5.1-5.1 8.4-12.2 8.4-17.9 0-3.3-3.1-1.4-4.6 2.8-1.7 5.2-4.7 7.5-9.5 7.5-3.1 0-4.2-.5-5.6-2.7-1.6-2.4-1.9-6.6-2.3-40.8-.5-35.7-.7-38.3-2.6-43.2-4.9-12-16.6-21.1-31.7-24.7l-2.8-.7.3 53.8zM1190 494c0 1.8.7 2 6.9 2 4.3 0 7.2.5 7.8 1.2.6.7 2.4 5.3 4.1 10.3 1.7 4.9 6.3 18.2 10.2 29.5 4 11.3 11.2 32.2 16.1 46.5 5 14.3 9.5 27.2 10.1 28.8l1.1 2.8 14.5-.3 14.5-.3 2.3-6.5c1.2-3.6 4.3-12.4 6.7-19.5 2.5-7.2 9.3-26.7 15-43.5 5.8-16.8 11.3-32.1 12.3-34 4.7-9.3 11.8-15 18.9-15 2.8 0 3.5-.4 3.5-2 0-1.9-.7-2-23.4-2-19.1 0-23.5.3-23.9 1.4-.8 2 .2 2.6 4.5 2.6 5.1 0 9.4 2.3 11.3 6 2.9 5.6 1.9 12.5-4.6 31.6-3.3 9.9-7.8 23.3-9.9 29.9-2.1 6.6-4.9 15.3-6.2 19.4-1.3 4.1-2.8 7.6-3.4 7.8-.7.2-30.3-86.3-31.6-92.6-.2-1.1 1.3-1.3 7.5-1.2 7.7.2 7.7.2 7.7-2.3V492h-36c-35.3 0-36 0-36 2zM639.3 606.5c-9.4 2.9-17.4 9.9-21 18.3-2.5 5.7-2.2 17.6.6 23.3 5.8 12.2 17.9 18.4 34.6 17.7 7.8-.3 10-.7 15.7-3.6 11.7-5.7 17.9-15.4 17.8-27.7-.1-13.6-8-24.1-21-27.9-6.5-1.9-20.8-2-26.7-.1zM561.9 678c-38.1 6-63.3 26.1-67.2 53.5-3.1 21.7 10.1 39.2 31.1 41.1 14.9 1.4 28.4-4.8 36-16.5 3.7-5.5 3.7-5.7 3.7-16.1 0-9.8-.2-10.8-2.8-15-5-7.9-15.4-14-23.8-14-5.5 0-7.9-1.5-7.9-4.9 0-5.1 4.6-9.9 13.6-14.1 11.8-5.6 27.7-6.4 36.8-2.1 16.9 8.2 24.4 31.4 17.9 56-2.2 8.5-7 16.6-13.7 22.9-9.1 8.5-20.3 13.8-45.6 21.7-41.3 12.8-54.3 25-56.6 53.5-1.7 21.7 9.4 41.2 29.2 51 10.1 5 20 7.2 32.9 7.1 22.2 0 39.5-7 54.2-21.7 12.4-12.2 11.3-1.5 11.3-108.5 0-87.3-.1-92.7-1.7-93.4-2.7-1.1-40.9-1.5-47.4-.5zm34.5 179.2c-4.5 13.8-21.4 20.7-34.9 14.2-6.3-2.9-9.8-6.8-13.3-14.3-6.4-13.9-2.3-37.5 8.3-48.4 4.3-4.4 11.6-9.4 24.1-16.5 5-2.9 10.8-6.6 13-8.3l3.9-3.1.3 35.8c.2 30.5 0 36.5-1.4 40.6zm26.8-79l.3 95.3 2.9 5.3c9 16.2 29.4 25.5 49.3 22.4 22.5-3.5 38.4-19.8 40.9-42.2l.7-6h-3.4c-3.3 0-3.5.2-4.7 5.2-2.2 9.4-8.9 15.8-16.5 15.8-3.5 0-8.2-3.5-10.3-7.6-1.8-3.7-1.9-7.5-2.5-66.4-.7-66.8-.6-66.5-5.9-79-7.4-17.3-20.7-28.7-41.6-35.5-4.2-1.4-8.1-2.5-8.6-2.5s-.7 39.5-.6 95.2zm380.3-69.1c-8 2.3-11.8 11.5-8 18.9 1.5 3 7.5 6.6 14.7 8.9 8.7 2.8 11.5 10.5 5.9 16.2-4.9 4.9-14.6 3.8-17.6-2.1-1.1-2.1-2.3-3-4-3-2.2 0-2.3.2-1.4 3 1.3 3.5 6.9 8.7 10.5 9.6 8 2 17.4-2.6 19.5-9.5 2.6-8.8-1.7-15.2-13.3-19.7-8.5-3.2-10.8-5.3-10.8-9.7.1-8 9.5-11.6 15-5.7 2.9 3.1 7 4 7 1.6 0-2.6-4.8-7.2-8.8-8.4-4.4-1.4-4.6-1.4-8.7-.1zm351.3.3c-9.7 2.6-16.5 9.4-18.9 19.1-4.8 19.1 13 36.7 32 31.5 6-1.6 14.5-9.6 16.5-15.8 6.9-20.1-10-40-29.6-34.8zm14 5.6c15.1 6.8 16.9 27.9 3.3 37.5-3.8 2.7-5.1 3-11.4 3-6.3 0-7.7-.4-11.4-2.9-5.5-3.7-9.3-11.1-9.3-18 .1-15.5 15.2-25.8 28.8-19.6zm-323.3-4.8c-9.4 3.3-16.7 14-16.7 24.3 0 18.2 16.2 30.5 33.4 25.3 3.8-1.1 12.8-8.1 12.8-9.9 0-1.7-5.1-.9-7.3 1.2-7.4 7.1-21.3 6.5-28.3-1.3-8.4-9.1-8.2-21.3.5-29.9 8-8 18-8.9 26.6-2.3 4.3 3.2 8.5 4.5 8.5 2.5 0-1.7-6.4-7.4-10.5-9.2-4.5-2.1-14.1-2.4-19-.7zm39.7 24.5c.3 22.2.5 25.8 1.8 25.8 1.2 0 1.6-2.3 2-12.5l.5-12.5 14.8-.3 14.7-.3v12.6c0 11.8.1 12.5 2 12.5s2-.7 2-25.5-.1-25.5-2-25.5-2 .7-2 10.4v10.4l-2.7.5c-1.6.3-8.2.5-14.8.4l-12-.2-.3-10.8c-.2-9.9-.4-10.7-2.3-10.7s-1.9.7-1.7 25.7zm61.2-23.3c-16.3 7.6-19.3 30.4-5.6 42.8 10.3 9.3 24.7 8.9 34.5-.9 4.9-4.8 6.9-9.6 7.5-17.5.4-5.8.1-7.5-2.1-12.1-3-6-6.4-9.6-12.2-12.6-5.7-3-15.3-2.9-22.1.3zm18.4 3.2c4.7 1.9 10 6.9 11.8 11.3.8 1.8 1.4 5.9 1.4 9.1 0 11.7-7.8 20.1-19.3 20.8-7.7.4-13.4-2.3-18-8.6-4.2-5.7-5-15.7-1.9-21.8 5.3-10.3 16.3-14.9 26-10.8zm40.7-4.5c-4.8 1.3-11.5 7.8-14.1 13.3-7.6 16.4 3.1 35.7 20.9 37.4 13.3 1.3 25.7-9.1 27.3-22.8 1.8-15.7-9.8-29.1-25-28.9-3.3 0-7.5.5-9.1 1zm16.3 4.5c20 8.3 16.2 38.9-5.3 41.1-11.8 1.2-21.1-6.2-23.1-18.4-2.4-15.1 14.4-28.6 28.4-22.7zm26.2 19.9c.1 19 .4 25.5 1.3 25.5.7 0 6.8.1 13.7.2 12 0 12.5 0 12.8-2.1.3-2 0-2.1-11.2-2.1H1253v-47h-5v25.5zm57.2.2c.3 22.2.5 25.8 1.8 25.8 1.2 0 1.6-2.4 2-13.5l.5-13.5 10.3-.3c9.3-.2 10.2-.4 10.2-2.2 0-1.8-.9-2-10.2-2.2l-10.3-.3v-14.9l10.8.3 10.7.3V709h-26l.2 25.7zm89.8-.2c0 14 .2 25.5.4 25.5s1.1.3 2 .6c1.3.5 1.6-.9 1.8-9.3l.3-9.8 5-.2 5-.3 7.3 9.9c6 8.2 7.7 9.9 9.7 9.7 1.4 0 2.5-.5 2.5-.9 0-.5-2.9-4.7-6.5-9.3-6.3-8.2-7.5-10.4-5.5-10.4.5 0 2.5-1.4 4.4-3 8.6-7.6 5.5-24-5.2-27-2-.5-7.6-1-12.4-1h-8.8v25.5zm23.4-17.7c3.5 3.7 4.3 8.9 2.2 13.4-2.2 4.6-5.1 5.8-14.1 5.8h-7.5v-10.3c0-5.7.3-10.7.7-11 .3-.4 4.1-.7 8.3-.7 7.1 0 7.8.2 10.4 2.8zM991 890.5V976h1303V805H991v85.5zm1296.1-79.1c.2.2.3 36 .1 79.5l-.2 79.1-644.8-.2-644.7-.3-.3-78c-.1-42.9 0-78.6.3-79.3.3-.9 130.2-1.2 644.8-1.2 354.4 0 644.6.2 644.8.4z"/><path d="M1159.5 866.6c-17.1 6.1-22.1 28.8-9.2 42.2 5.1 5.3 10.2 7.5 17.7 7.5 7.8 0 13.1-2.4 18-8l3.4-3.8-2.7-.3c-2-.2-3.8.6-6.2 2.7-9 7.8-22.3 5.9-29.1-4.1-5.7-8.3-5.2-18.2 1.2-25.6 4.3-5 8.9-7.2 15.4-7.2 5.2 0 9.9 1.8 13.6 5.2 1.4 1.2 3.2 1.8 4.9 1.6l2.7-.3-4.2-4.2c-6.9-6.8-16.5-8.9-25.5-5.7zm154-.4c-10.4 3.9-16.9 13.2-16.8 24.3.1 14.8 10.7 25.8 24.8 25.7 10-.1 17.6-4.7 22-13.3 6.4-12.4 2.6-26.7-8.8-34.1-3.9-2.5-6.1-3.1-11.5-3.4-3.7-.2-8 .1-9.7.8zm17.7 5.9c6.3 3.2 10.8 11.1 10.8 18.8 0 2-1.1 5.9-2.4 8.7-9.4 20.1-38 13.2-38.1-9.1 0-16 15.4-25.6 29.7-18.4zm69-5.9c-4.8 1.6-11.7 8.1-14.2 13.4-2.9 5.9-3 15.5-.2 21.6 9.4 20.8 39.3 19.5 46.7-2.1 4.1-12.1-1.5-25.9-12.9-31.8-3.8-2-15-2.6-19.4-1.1zm17.6 5.5c1.8.9 4.4 2.9 5.9 4.7 10.1 12 5.2 30-9.5 34.2-13.4 3.9-25.5-5.6-25.6-20-.2-15.7 14.9-25.4 29.2-18.9zm37.8-5.3c-17.3 6.4-22.2 29-9.3 42.4 8.8 9.2 24 10.3 33 2.4.9-.8 1.7-1.1 1.8-.6.1.5.2 1.8.3 2.9 0 1.3.9 2.1 2.4 2.3 2.2.3 2.2.2 2.2-12.2V891h-2.5c-2.4 0-2.5.3-2.5 5.9 0 4.7-.4 6.3-2.4 8.4-8.6 9.3-24.1 8-31.3-2.7-2.5-3.7-2.8-5-2.8-12.3 0-7.6.2-8.4 3.1-12 4.5-5.5 9.8-8.3 16.2-8.3 6.2 0 10.8 1.7 14.1 5.4 2.4 2.5 7.1 3.6 7.1 1.6 0-1.4-7.1-8-10.5-9.7-4.1-2.2-14.1-2.7-18.9-.9zm206.1.5c-7.3 4.8-8.4 13.5-2.5 19.8 1.2 1.2 5.3 3.5 9.2 4.9 8.5 3.3 11.6 6.1 11.6 10.6s-2.3 7.5-6.9 8.9c-5.4 1.6-10.4-.2-13.1-4.7-1.3-1.9-3-3.4-4.1-3.4-2.3 0-2.4 1.2-.4 5.3 5.7 11.7 24.5 10.4 28.5-1.8 2.8-8.4-2-15.4-13.3-19.4-6.5-2.3-10.7-5.7-10.7-8.8 0-3.2 3.1-7.2 6.4-8.3 2.9-.9 4-.8 6.6.5 1.7.9 3.4 2.3 3.7 3.1.5 1.3 5.3 2.1 5.3.9 0-2-3.5-6.7-6-8-4-2.1-10.9-1.9-14.3.4zm142.6 0c-5.8 3.7-7.9 11.1-4.8 17.1 1 2 3.6 3.8 8.2 6 3.8 1.8 8.2 3.9 9.9 4.7 5.9 2.8 6.9 8.6 2.5 13.5-2.5 2.8-3.5 3.2-7.9 3.2-5.5 0-8.7-1.9-10.3-6.2-1-2.7-4.9-3.1-4.9-.5 0 3 3.7 8.1 7.1 9.9 1.8.9 5.3 1.6 7.9 1.6 8.9 0 15.2-5.6 15.2-13.7s-2.5-10.4-17.4-16.9c-4.3-1.8-5.9-3.1-6.4-5-1-4.1.4-7.5 3.9-9.7 3.8-2.3 7.1-1.8 10.8 1.7 3.1 3 6.9 3.3 6.2.5-.3-1-1.8-3.1-3.4-4.7-3.9-3.7-11.9-4.5-16.6-1.5zm36.7-.6c-5.6 2.8-8.4 10.8-6 17.1 1.1 2.9 6.3 6.4 13.5 9 8.8 3.3 11.5 7.2 9 13.2-1.7 4.2-7.1 6.9-12.1 5.9-3.1-.5-8.4-5.4-8.4-7.6 0-.5-1.2-.9-2.6-.9-2.2 0-2.4.3-1.9 2.2 2 6.9 9.9 12.1 16.9 11.2 9.1-1.3 14.3-7.5 13.3-16-.4-4.1-1.1-5.4-4.2-8.1-2.1-1.8-6.6-4.2-10.1-5.3-7-2.4-9.4-4.8-9.4-9.5 0-7.1 9.9-10.6 14.6-5.2 1.4 1.6 3.3 2.7 4.9 2.7 2.5 0 2.5 0 1-3-3.1-6.1-12.3-8.9-18.5-5.7zm56.1-.1c-6 3.2-8.3 12.6-4.8 19.4 1.4 2.7 1.4 3.1-1.5 7.1-5.7 7.8-4.5 17.2 2.7 21.9 3.4 2.2 10.1 2.2 14.4-.1 3.2-1.6 3.5-1.6 4.7 0 .8 1 2.2 1.5 3.9 1.3l2.7-.3-2.2-2.8-2.2-2.8 2.6-4.9c3.2-5.8 3.2-6 .3-6-1.6 0-2.6.9-3.4 3-.6 1.6-1.6 3-2.2 3-1.5 0-13-15.6-15.4-20.9-2.1-4.7-1.8-10.4.5-12.7 4.1-4 11-1.4 12.3 4.6.5 2.1 1.3 3 2.6 3 3.1 0 2.6-6.2-.9-10.1-3.2-3.6-10-4.9-14.1-2.7zm5.2 34.9c3.2 4.4 5.5 8.4 5.2 8.9-.8 1.3-7.1 2.3-10 1.6-3.7-.9-6.7-6.3-6-10.5.6-3.2 3.3-8.1 4.5-8 .3 0 3.1 3.6 6.3 8zm50.9-34.1c-3.4 2.1-6.2 7.1-6.2 11.1 0 1.1.8 3.7 1.7 5.6 1.3 2.9 3 4.2 8.2 6.5 11.6 5.2 13.3 6.2 14.2 8.7 1.3 3.4.3 7.4-2.6 10.1-4.8 4.6-15.2 2.4-17.5-3.6-1.1-2.8-5-3.4-5-.7 0 5.1 6.6 11 12.7 11.5 7 .5 9.2-.2 13.3-4 3.8-3.7 4-4.2 4-9.8 0-5.5-.3-6.3-3.2-9.1-1.8-1.8-6.7-4.6-10.8-6.2-8.2-3.3-10-5-10-9.2 0-7.4 9.3-10.9 14.8-5.6 2.8 2.7 7.2 3.7 7.2 1.6 0-.6-1.7-2.9-3.9-5-3.4-3.5-4.4-3.9-8.7-3.9-3.1 0-6.1.7-8.2 2zm43.7.8c-16 8.3-18.8 30.3-5.4 42.1 5.3 4.6 9.9 6.3 17.1 6.3 13.5.1 24.4-11.4 24.4-25.8 0-18.9-19.6-31.2-36.1-22.6zm16.7 2.7c17.6 5.2 19.5 30.6 2.9 39.3-4.8 2.5-13.4 2-18.7-1.1-8.5-4.9-12.5-18.2-8.3-27.1 2.3-4.9 7.7-9.6 12.6-11.1 5.7-1.8 5.7-1.8 11.5 0zm40.6-3.7c-8.6 3.4-14.9 12.1-15.9 21.7-1.7 16.2 13.6 30.8 28.8 27.6 2.8-.6 6-1.6 7.2-2.2 2.6-1.4 9.7-8 9.7-9.1 0-1.8-4.3-.6-7.8 2.1-8.7 6.8-18.3 6.6-26.2-.5-13.9-12.6-5.6-36.3 12.8-36.4 6 0 10.8 1.7 13.6 4.9 1.9 2.1 7.6 3 7.6 1.1 0-1.7-10-8.9-13.8-10-5.3-1.4-11-1.2-16 .8zm-990.8.8c.3.9.6 1.8.6 2 0 .2 3.6.4 8 .4h8v46.1l2.3-.3 2.2-.3.2-22.5.2-22.5 8-.3c7.3-.3 8.1-.5 8.1-2.2 0-1.9-.8-2-19.1-2-17 0-19 .2-18.5 1.6zM1108 891v25h27v-5h-23v-22h11c10.3 0 11-.1 11-2s-.7-2-11-2h-11v-15h11.5c10.8 0 11.5-.1 11.5-2s-.7-2-13.5-2H1108v25zm90 0v25h5v-25h27.9l.3 12.2c.3 11.5.4 12.3 2.3 12.3s2-.8 2.3-24.8l.2-24.7h-5v10c0 8.8-.2 10-1.7 10.1-1 0-7.3.1-14 .2l-12.3.2V866h-5v25zm49 0v25.1l2.3-.3c2.2-.3 2.2-.3 2.4-21.1 0-11.5.3-21 .5-21.2.2-.2 7.1 9.2 15.3 21 13.4 19.1 15.3 21.5 17.8 21.5h2.7v-25c0-24.3-.1-25-2-25s-2 .7-2 21c0 11.5-.4 21-.8 21-.8 0-3.9-4.2-20-27.5-8.8-12.6-10-14-13-14.3l-3.2-.3V891zm108 0v25h27v-5h-22v-45h-5v25zm137-24.5c0 .3 3.6 8.3 8 17.8l8 17.1-3.4 7.3-3.5 7.3h2.5c2.1 0 3-1.1 6.3-8.3 2.1-4.5 5.7-12.3 8.1-17.2 5.8-12.3 11-23.7 11-24.1 0-.2-1.1-.4-2.3-.4-2.1 0-3.2 1.8-8.8 14.1-3.6 7.7-6.9 14.1-7.4 14.1-.6-.1-3.9-6.4-7.5-14.1-5.5-11.9-6.8-14-8.7-14.1-1.3 0-2.3.2-2.3.5zm78 24.5v25h10.5c11.4 0 14.1-.8 18.4-5.4 1.9-2 2.6-4 2.9-8.5.4-6.1-.9-10.1-4.6-13.4-1.9-1.8-1.9-1.8 0-5.5 2.7-5.2 1.9-10.8-2.2-14.5-2.9-2.6-3.4-2.7-14-2.7h-11v25zm22-19c3 3 2.7 8.3-.6 10.9-2.1 1.7-4.1 2.1-9.5 2.1h-6.9v-15h7.5c6.2 0 7.9.4 9.5 2zm.1 18.6c6.1 3.1 7.4 12.4 2.4 17.8-2.2 2.4-3 2.6-11.2 2.6h-8.8l.3-11 .3-11h7c4.4 0 8.1.6 10 1.6zm17.9-5.9c0 21.4 1 25.3 7.8 29.5 5.5 3.4 16.4 3.3 21.5-.2 6.8-4.6 7.7-8 7.7-29.3V866h-4.9l-.1 18.6c-.1 20.5-.7 23.1-6 25.9-3.8 2-10.3 1.9-14.6-.1-5.8-2.8-6.4-5-6.4-25.9V866h-5v18.7zm83 6.3c0 24.3.1 25 2 25s2-.7 2-25-.1-25-2-25-2 .7-2 25zm16 0c0 24.3.1 25 2 25s2-.7 2-20.8c0-11.5.3-21.2.6-21.5.4-.4 4.9 5.5 10.2 13.1 19.7 28.5 20.3 29.2 23.4 29.2h2.8v-50h-5l-.2 21.4-.3 21.4-14.8-21.4c-13.6-19.6-15.1-21.4-17.8-21.4h-2.9v25zm52 0v25h28v-5h-23v-22h11c10.3 0 11-.1 11-2s-.7-2-11-2h-11v-15h11.5c10.8 0 11.5-.1 11.5-2s-.7-2-14-2h-14v25zm333 0c0 24.3.1 25 2 25s2-.7 2-25-.1-25-2-25-2 .7-2 25zm15.2-.3l.3 24.8 13.8.3 13.7.3V911h-23v-22h11c10.3 0 11-.1 11-2s-.7-2-11-2h-11v-15h11.5c10.8 0 11.5-.1 11.5-2s-.7-2-14-2h-14l.2 24.7zM2143 868c0 1.7.8 1.9 8.3 2.2l8.2.3.2 22.5c.1 22 .2 22.5 2.2 22.8 2.1.3 2.1.1 2.1-22.7v-23l8.2-.3c7-.3 8.3-.6 8.6-2.1.3-1.6-1.1-1.7-18.7-1.7-18.3 0-19.1.1-19.1 2zm41-1.3c.1.5 3.6 8.4 7.9 17.7l7.9 17-3.4 7.4-3.3 7.3 2.6-.3c2.4-.3 3.7-2.6 14-24.7 6.2-13.4 11.3-24.5 11.3-24.7 0-.2-1.1-.4-2.4-.4-1.9 0-2.9 1.2-5.6 7.2-1.8 4-4.8 10.6-6.7 14.5-1.8 4-3.5 7.3-3.8 7.3-.5 0-5.3-9.8-12.3-25.2-1.2-2.7-2.3-3.8-3.9-3.8-1.3 0-2.3.3-2.3.7zm-651 43.8c-1.1 1.3-1.1 2.1-.2 3.6.7 1 1.2 3 1.2 4.4 0 3.7 1.4 3 3.5-1.6 1.4-3 1.6-4.5.8-5.7-1.4-2.3-3.7-2.6-5.3-.7zm-389.7 114.1c-5 2.5-7.7 7.5-7 13.1.6 6 3.9 9.1 13.4 12.7 10.5 4 13.4 8.6 9.9 15.5-2.7 5.1-10.5 6.7-16.3 3.2-1.7-1.1-3.4-2.9-3.8-4-.4-1.4-1.5-2.1-3-2.1-2.2 0-2.3.2-1.4 3 3.9 11 21.8 12.8 27.9 2.7 2.9-4.7 2.7-11.7-.5-15.5-2.6-3.2-11.6-8.2-14.6-8.2-2.4 0-7.9-5.4-7.9-7.9 0-3.6 2.2-7 5.7-8.6 4.1-2 7.1-1.4 10.4 1.8 2.7 2.7 5.6 4 6.3 2.8 1-1.5-3.6-7.3-6.9-8.7-4.4-1.8-8.2-1.8-12.2.2zm83.6-.9c-1.5.2-5.1 1.9-8 3.6-9.9 5.9-14.7 17.9-11.5 28.9 4.1 14.3 17.8 22.4 31 18.3 6.6-2.1 14.7-8.7 12.9-10.6-.9-.9-1.8-.8-3.9.7-7.3 5.2-10 6.4-15.2 6.4-11.9 0-21.2-9.5-21.2-21.8 0-9.9 6-18 15.4-20.7 6.7-2 12.2-.8 17.8 3.6 2 1.6 4.9 2.9 6.4 2.9h2.8l-3.5-3.6c-1.8-2-5-4.4-6.9-5.4-3.7-1.9-11.8-3-16.1-2.3zm102.6.2c-16.2 4.2-24.3 22.1-16.9 37.6 3.4 7.2 14.6 14.5 22.4 14.5 4.6 0 12.5-3.4 16.6-7.2 2.4-2.2 4.4-4.4 4.4-4.9 0-1.5-4.6-.4-6.5 1.5-3 3-9.6 5.6-14.3 5.6-11.7 0-21.1-9.5-21.2-21.6 0-6.6 1.9-10.9 6.8-15.8 7.5-7.2 18-7.8 26.9-1.6 2.3 1.7 5.1 3 6.3 3h2.2l-2.4-3c-4.6-5.9-16.9-10-24.3-8.1zM993 1049.5c0 24.7.1 25.5 2 25.5 1.8 0 2-.8 2.2-9.8l.3-9.7 8.5-.5c9.3-.5 11.5-1.4 15.5-6.2 2.5-2.9 2.7-3.8 2.3-9.9-.3-5.5-.8-7.3-2.8-9.4-4.3-4.6-7.1-5.5-18-5.5h-10v25.5zm23.1-18.7c2.6 2.3 3.3 3.8 3.7 8 .4 4.9.2 5.4-3.1 8.7-3.6 3.6-3.6 3.6-11.4 3.3l-7.8-.3-.3-9.9c-.1-5.5 0-10.6.2-11.3.4-.9 2.7-1.3 8.1-1.3 6.8 0 7.8.3 10.6 2.8zm28.3-4.6c-.4 1.3-2 5.2-3.6 8.8-1.7 3.6-3.8 8.5-4.8 11s-4.1 9.7-6.9 16c-2.8 6.2-5.1 11.8-5.1 12.2 0 .4.8.8 1.9.8 2 0 2.8-1.5 8-13.7l2.9-6.8h22.4l4.2 10c3.4 8 4.7 10.1 6.5 10.3 1.6.3 2.2-.1 1.9-1-.1-.8-5-12.3-10.8-25.6-9.9-22.9-10.6-24.2-13.2-24.2-1.9 0-2.9.6-3.4 2.2zm6 7.5c.8 2.1 2.6 6.4 3.9 9.5 1.4 3.2 2.2 6 1.9 6.3-.8.8-16 .6-16.5-.3-.5-1 7.3-19.2 8.3-19.2.4 0 1.5 1.7 2.4 3.7zm28.6 15.8c0 24.7.1 25.5 2 25.5 1.8 0 2-.8 2.2-9.8l.3-9.7 5-.2 5-.2 7.4 9.9c5.7 7.8 7.8 10 9.7 10 1.3 0 2.4-.2 2.4-.5s-3.1-4.6-7-9.7c-6.6-8.7-7.5-10.8-4.6-10.8 2.3 0 7.5-6.5 8.4-10.5 1.5-7.2-1.1-13.9-7.1-17.5-2.6-1.6-5.1-2-13.4-2H1079v25.5zm23.6-18.1c2.9 2.9 3.4 4.1 3.4 8.1s-.5 5.2-3.4 8.1c-3.3 3.3-3.6 3.4-11.5 3.4h-8.1v-23h8.1c7.9 0 8.2.1 11.5 3.4zm18.6 17.8c.3 23.3.4 25.3 2 25.3s1.8-2 2-25.3l.3-25.2h-4.5l.2 25.2zm157-22.5c-.6 1.6-5.1 12.1-10 23.5-11.1 25.4-10.9 24.8-8.4 24.8 1.6 0 3-2.3 6.5-10.3l4.5-10.2h22.4l4.2 10c3.3 8 4.6 10.1 6.4 10.3 1.2.2 2.2.1 2.2-.1 0-.6-11.3-27.4-14.9-35.2-1.5-3.3-3.6-8.1-4.7-10.7-1.6-4-2.3-4.8-4.6-4.8-1.9 0-2.9.7-3.6 2.7zm8.4 12.8c2.3 5.1 3.9 9.6 3.6 9.9-.7.8-17.2.8-17.2 0 0-1.3 8.3-19.4 8.9-19.4.3 0 2.5 4.3 4.7 9.5zm79.4 10c0 24.7.1 25.5 2 25.5 1.8 0 2-.8 2.2-12.8l.3-12.7h29l.3 12.7c.2 12 .4 12.8 2.2 12.8 1.9 0 2-.8 2-25.5 0-24.8-.1-25.5-2-25.5s-2 .7-2 10.5v10.5h-30v-10.5c0-9.8-.1-10.5-2-10.5s-2 .7-2 25.5zm56-.9c-5.8 13.6-10.6 25-10.8 25.5-.2.5.6.9 1.8.9 1.6 0 2.6-1.2 4.2-4.8 1.1-2.6 3.2-7.3 4.5-10.5l2.6-5.7h21.8l2.1 4.7c6.5 15.2 7.1 16.3 8.9 16.3 1.1 0 1.9-.2 1.9-.5 0-.5-6.1-15.5-9.5-23-1.2-2.7-4.4-10.1-7-16.3-4.4-10.1-5.1-11.2-7.4-11.2-2.4 0-3.3 1.6-13.1 24.6zm17.4-10.1c2 4.6 3.9 9.1 4.2 10 .5 1.3-.7 1.5-7.8 1.5-4.7 0-8.7-.2-9-.5-.6-.7 7.4-19.4 8.3-19.5.4 0 2.3 3.8 4.3 8.5zm26.6 8.5c0 24 .3 28 2.6 28 1.2 0 1.4-3.9 1.4-22 0-12.1.4-22 .9-22 .6 0 17.5 23.4 29.6 41.1 1.5 2.1 2.7 2.9 4.5 2.7l2.5-.3.3-25.3c.2-24.7.2-25.2-1.8-25.2-1.9 0-2 .6-2 21.5 0 16.5-.3 21.5-1.2 21.5-.7 0-4.7-5-8.8-11-20.8-30.5-22-32-25-32h-2.9l-.1 23zm-293 7.5c0 1.3 2.1 1.5 13 1.5s13-.2 13-1.5-2.1-1.5-13-1.5-13 .2-13 1.5z"/></svg>