<svg xmlns="http://www.w3.org/2000/svg" role="img" viewBox="-7.93 -8.43 646.36 321.36"><title>ALBERT logo</title><defs><style>.cls-1{fill:#4094d0}.cls-2{fill:#ee4636}</style></defs><path d="M4.75454 82.77884c0-43.35566 36.44987-78.65444 79.80626-78.65444 23.98037 0 41.05422 9.40042 53.90717 21.6782l-15.15513 15.15512a54.795 54.795 0 0 0-38.752-15.34685c-31.6538 0-56.40107 25.51491-56.40107 57.168 0 31.6538 24.74727 57.16871 56.40107 57.16871 20.52638 0 32.229-8.24934 39.71067-15.731 6.13962-6.13888 10.16733-14.9634 11.7026-27.04944H84.5608V75.68133h72.3231a70.00124 70.00124 0 0 1 1.15182 13.42886c0 16.11449-4.41263 36.06569-18.60912 50.26218-13.81158 14.38749-31.46207 22.06092-54.8658 22.06092-43.35639 0-79.80626-35.29805-79.80626-78.65445z" class="cls-1"/><path d="M216.485 60.142c-28.00954 0-50.83809 21.294-50.83809 50.64563 0 29.1599 22.82855 50.64564 50.83809 50.64564 28.00808 0 50.83663-21.48574 50.83663-50.64564C267.32166 81.436 244.49311 60.142 216.485 60.142zm0 81.34007c-15.34831 0-28.58472-12.66123-28.58472-30.69444 0-18.22493 13.23641-30.69443 28.58472-30.69443 15.34685 0 28.58326 12.4695 28.58326 30.69443.00003 18.03323-13.23638 30.69446-28.58326 30.69446z" class="cls-2"/><path fill="#ffc10e" d="M327.38674 60.142c-28.00954 0-50.83809 21.294-50.83809 50.64563 0 29.1599 22.82855 50.64564 50.83809 50.64564 28.00808 0 50.83809-21.48574 50.83809-50.64564 0-29.35163-22.83001-50.64563-50.83809-50.64563zm0 81.34007c-15.34685 0-28.58471-12.66123-28.58471-30.69444 0-18.22493 13.23786-30.69443 28.58471-30.69443S355.97 92.56272 355.97 110.78765c0 18.03321-13.23641 30.69444-28.58326 30.69444z"/><path d="M463.51211 63.2111v8.24933h-.7669c-4.9878-5.94716-14.57995-11.31841-26.666-11.31841-25.32246 0-48.53592 22.25337-48.53592 50.83736 0 28.393 23.21346 50.45391 48.53592 50.45391 12.086 0 21.67819-5.37125 26.666-11.51014h.7669v7.29c0 19.376-10.35905 29.73508-27.04944 29.73508-13.61986 0-22.06165-9.78388-25.51418-18.03248l-19.376 8.05688c5.563 13.42886 20.33465 29.92753 44.8902 29.92753 26.09082 0 48.15246-15.34759 48.15246-52.75608V63.2111zm-25.51417 78.271c-15.34685 0-28.20127-12.85295-28.20127-30.50271 0-17.84075 12.85442-30.88616 28.20127-30.88616 15.15512 0 27.04945 13.04541 27.04945 30.88616 0 17.64975-11.89433 30.5027-27.04945 30.5027z" class="cls-1"/><path fill="#2fb355" d="M499.962 9.496h22.253v148.868h-22.253z"/><path d="M583.22078 141.48209c-11.31915 0-19.376-5.17953-24.55555-15.34685l67.72021-28.00881-2.30217-5.75543c-4.2209-11.31841-17.07385-32.229-43.35639-32.229-26.09082 0-47.76756 20.52711-47.76756 50.64563 0 28.39226 21.485 50.64564 50.26146 50.64564a50.37791 50.37791 0 0 0 42.20457-22.4451l-17.26558-11.51014c-5.7547 8.44108-13.61985 14.00406-24.93899 14.00406zm-1.727-61.77232c8.82524 0 16.30694 4.41262 18.80084 10.74323L555.021 109.25311c-.57667-19.56774 15.1551-29.54334 26.47278-29.54334z" class="cls-2"/><path fill="none" d="M3.672 4h623.452v203.821H3.672z"/><path d="M149.4502 232.332h16.1768l24.20752 68.42188h-15.5039l-4.51514-14.06446h-25.19683l-4.63818 14.06446h-14.95459zm-.94239 42.56641h17.52295l-8.64306-26.92285zM198.5376 232.332h14.2974v56.12109h34.164v12.30079h-48.4614zm109.10058 7.28812a17.40541 17.40541 0 0 1 3.14063 10.44433q0 6.26661-3.16895 10.07227a16.34711 16.34711 0 0 1-5.21826 3.90039 15.23559 15.23559 0 0 1 7.90332 6.0332 18.10875 18.10875 0 0 1 2.66553 10.02735 20.00915 20.00915 0 0 1-3.0459 10.9082 18.842 18.842 0 0 1-12.57666 8.82031 47.377 47.377 0 0 1-9.66846.92774h-30.8291V232.332h33.06543q12.51417.18753 17.73242 7.28812zm-37.15088 4.5957v15.08594h16.6294a13.73849 13.73849 0 0 0 7.23584-1.69434q2.77808-1.69335 2.7793-6.01172 0-4.77978-3.6753-6.3125a25.78548 25.78548 0 0 0-8.08545-1.06738zm0 26.41211v18.24316h16.61133a16.14137 16.14137 0 0 0 6.92871-1.207q4.49634-2.22949 4.49707-8.541 0-5.3379-4.35937-7.334a17.28291 17.28291 0 0 0-6.83692-1.16113zm105.37012-26.18066h-36.20605v14.52929h33.23535v11.88379h-33.23535v17.59277h37.877v12.30079h-51.84966V232.332h50.17871zm56.65918-10.35157a16.91941 16.91941 0 0 1 6.40528 4.78125 21.31778 21.31778 0 0 1 3.43945 5.75586 19.19777 19.19777 0 0 1 1.26758 7.19531 20.503 20.503 0 0 1-2.46 9.58594 13.75209 13.75209 0 0 1-8.123 6.66114 12.77615 12.77615 0 0 1 6.707 5.40722q1.97314 3.50684 1.97363 10.69922v4.5957a34.55951 34.55951 0 0 0 .377 6.35938 5.71086 5.71086 0 0 0 2.63964 3.90039v1.7168h-15.78224q-.6504-2.27345-.92871-3.667a33.74977 33.74977 0 0 1-.60352-5.8955l-.09277-6.35938q-.0879-6.54492-2.26074-8.72656-2.17383-2.18115-8.14551-2.18164H402.9668v26.83008h-13.97266V232.332h32.72656q7.01514.14066 10.7959 1.7637zm-29.5498 10.12012v18.38184h15.38574a16.37087 16.37087 0 0 0 6.87793-1.11426q4.05468-1.94972 4.05566-7.70606 0-6.21972-3.92383-8.35546a14.19142 14.19142 0 0 0-6.61328-1.20606zM507.03809 232.332v12.11524h-20.47071v56.30664h-14.39062v-56.30661h-20.56348V232.332z"/></svg>