<svg xmlns="http://www.w3.org/2000/svg" role="img" viewBox="-16.64 -16.64 1957.28 828.28"><title>ALIBI logo</title><path fill="none" d="M541.395 257.856l12.944 25.623 4.175-8.505-17.119-17.118zm46.235-42.19h-28.62a56.899 56.899 0 0 1-9.402 22.18l18.199 18.199zm11.804 202.862h-42.5a54.65 54.65 0 0 1-8.84 21.496l68.596 68.595a90.401 90.401 0 0 0 20.15-14.68 78.833 78.833 0 0 0 8.515-6.495l-8.849 4.47zm34.532-297.247a110.867 110.867 0 0 0-18.592-13.272l-63.881 66.973a56.826 56.826 0 0 1 7.766 20.728h38.168zM568.867 358.02l-20.349 20.348a54.662 54.662 0 0 1 8.172 19.518h32.316zm83.469 60.508H622.56l30.655 60.684c8.655-7.129 15.718-15.708 22.127-24.882.147-.148.283-.303.429-.453a55.077 55.077 0 0 1-23.436-35.349zm-98.121-89.513l-14.883 30.317 20.063-20.063-5.18-10.254zm161.668 44.136a36.33 36.33 0 0 0-29.443 65.465 192.608 192.608 0 0 0 28.984-64.478c.17-.324.305-.658.46-.987zM502.814 166.4a38.594 38.594 0 1 0 38.56 39.878v-2.568a38.633 38.633 0 0 0-38.56-37.31zm79.904 104.556l22.495 22.495 55.522-55.522a54.64 54.64 0 0 1-8.74-22.263h-42.134zm1.514 71.698l27.9 55.232h40.204a54.657 54.657 0 0 1 8.534-20.556l-55.657-55.656zm68.346-146.944a55.072 55.072 0 0 1 21.977-33.282c-.33-.34-.63-.7-.969-1.033a114.285 114.285 0 0 0-23.466-25.663c-.196-.282-.415-.538-.62-.81l-29.842 60.788zm32.738-18.105a36.337 36.337 0 0 0 30.064 64.837l-.978-2.77a193.945 193.945 0 0 0-29.086-62.067zm34.279 82.966a54.797 54.797 0 0 1-44.88-8.399l-55.39 55.39 55.58 55.58a54.82 54.82 0 0 1 45.466-8.065c2.431-10.217 3.437-20.648 4.13-31.076 1.421-21.373.336-42.584-4.906-63.43zm-128.493 46.991l-17.677-17.676-7.812 15.912 9.147 18.106 16.342-16.342zM539.181 408.89a36.345 36.345 0 1 0-36.345 36.344 36.386 36.386 0 0 0 36.345-36.345z"/><path fill="#545bfe" d="M706.31 353.246a54.637 54.637 0 0 0-31.405 9.897l-55.58-55.58 55.39-55.39a54.797 54.797 0 0 0 44.88 8.398c-.17-.68-.333-1.361-.513-2.04-.11-5.642-1.859-10.877-3.702-16.089a36.331 36.331 0 0 1-30.064-64.837c-.22-.309-.431-.621-.653-.928a55.837 55.837 0 0 0-10.108-14.25 55.072 55.072 0 0 0-21.977 33.283h-32.92l29.843-60.788c-3.848-5.115-9.123-8.64-14.144-12.448-.454-.412-.932-.789-1.391-1.193l-36.54 74.429H559.26a56.826 56.826 0 0 0-7.766-20.728l63.88-66.973c-.503-.286-.986-.6-1.495-.877-4.828-4.07-10.47-6.787-15.995-9.7l-59.73 62.622a57.194 57.194 0 1 0-18.909 99.734l23.697 46.908-24.327 49.552a54.966 54.966 0 1 0 15.372 97.89l64.861 64.86c.08-.052.157-.107.237-.159a53.07 53.07 0 0 0 16.772-9.774c.282-.143.554-.3.834-.446l-68.595-68.595a54.65 54.65 0 0 0 8.84-21.496h42.499l37.072 73.386 8.85-4.47a35.887 35.887 0 0 0 5.82-6.566c.698-.54 1.363-1.108 2.04-1.665l-30.655-60.685h29.775a55.077 55.077 0 0 0 23.436 35.349 65.942 65.942 0 0 0 10.527-15.05c.048-.07.093-.141.14-.211a36.33 36.33 0 0 1 29.444-65.465c2.611-5.559 3.077-11.677 4.376-17.577.04-.165.073-.332.112-.497a54.836 54.836 0 0 0-14.06-1.83zm-54.314-137.58a54.64 54.64 0 0 0 8.74 22.263l-55.523 55.522-22.495-22.495 27.143-55.29zm-86.383 90.132l7.812-15.912 17.677 17.676-16.342 16.342zm2.194-49.753l-18.199-18.199a56.899 56.899 0 0 0 9.402-22.18h28.62zm-103.588-51.05a38.588 38.588 0 0 1 77.156-1.285v2.568a38.588 38.588 0 0 1-77.156-1.284zm77.176 52.86l17.119 17.12-4.175 8.504zm12.82 71.16l5.18 10.254-20.063 20.063zm-87.723 79.874a36.345 36.345 0 1 1 36.344 36.345 36.385 36.385 0 0 1-36.344-36.345zm90.198-11.003a54.662 54.662 0 0 0-8.172-19.518l20.35-20.349 20.138 39.867zm55.443 0l-27.9-55.232 20.98-20.98 55.657 55.656a54.657 54.657 0 0 0-8.534 20.556z"/><path fill="#02ddd0" d="M766.457 249.933a288.315 288.315 0 0 0-7.211-27.944 280.673 280.673 0 0 0-29.38-64.391q-4.026-6.501-8.362-12.746C638.897 26.401 471.798-18.408 338.902 62.988c-82.24 50.372-128.721 124.775-138.445 220.894-4.882 48.258 3.474 94.984 22.927 139.58 2.766 6.343 6.99 11.128 13.454 13.742a23.231 23.231 0 0 0 25.891-5.532c7.87-8.373 8.472-17.825 4.074-28.161-18.665-43.873-23.338-89.258-15.489-136.274C277.712 109.107 454.685 21.782 596.89 96.909c.33.176.663.35.994.524 5.524 2.912 11.167 5.628 15.995 9.699.509.277.992.591 1.496.877a110.867 110.867 0 0 1 18.592 13.272c.459.404.937.781 1.391 1.193 5.021 3.808 10.296 7.333 14.144 12.448.204.272.423.528.619.81a114.285 114.285 0 0 1 23.466 25.663c.34.333.64.693.97 1.033a55.837 55.837 0 0 1 10.107 14.249c.222.307.433.62.653.928a193.945 193.945 0 0 1 29.086 62.067q.486 1.386.978 2.77c1.843 5.212 3.592 10.447 3.702 16.088.18.68.342 1.36.513 2.041 5.242 20.846 6.327 42.057 4.906 63.43-.693 10.428-1.699 20.859-4.13 31.076-.04.165-.072.332-.112.497-1.3 5.9-1.765 12.018-4.376 17.577-.154.329-.288.663-.459.988a192.608 192.608 0 0 1-28.984 64.477l-.141.21a65.942 65.942 0 0 1-10.527 15.05c-.146.15-.282.306-.43.454-6.408 9.174-13.471 17.753-22.126 24.883-.677.557-1.342 1.125-2.04 1.665a35.887 35.887 0 0 1-5.82 6.566 78.833 78.833 0 0 1-8.516 6.495 90.401 90.401 0 0 1-20.15 14.68c-.28.146-.552.303-.834.446a53.07 53.07 0 0 1-16.772 9.774c-.08.052-.158.107-.237.16a45.495 45.495 0 0 1-4.845 3.071c-48.04 23.442-98.484 29.919-151.042 21.247-33.74-5.567-65.263-18.303-97.036-30.187-34.424-12.876-68.767-26.04-105.836-29.25-36.191-3.134-68.526 5.941-94.828 31.867q-48.789 48.092-96.844 96.927c-36.198 36.853-35.643 96.513.75 133.14 36.553 36.788 96.04 38.073 133.02 1.817 45.476-44.584 90.208-89.928 135.15-135.055 10.267-10.309 10.403-25.218.855-34.712-9.558-9.503-24.089-9.108-34.713 1.076-5.127 4.915-10.057 10.037-15.077 15.065q-58.357 58.444-116.694 116.909c-10.826 10.873-23.691 16.672-39.019 15.105-19.648-2.009-33.752-12.426-40.44-31.082-6.905-19.258-2.216-36.508 12.136-50.945q46.154-46.426 92.521-92.64c12.55-12.545 27.644-19.327 45.458-20.129 17.736-.798 34.753 2.89 51.639 7.69 35.135 9.987 68.652 24.542 103.102 36.471 56.114 19.433 113.25 25.134 171.44 12.16 65.2-14.538 119.838-49.255 158.83-96.204a282.442 282.442 0 0 0 52.28-96.347c14.069-45.163 17.114-94.713 6.803-145.06z"/><path fill="#030303" d="M1569.898 306.38c-.005-27.127-.058-54.254.016-81.382.04-14.528 5.8-20.433 20.287-20.237 21.783.295 43.628-1.492 65.338.981 21.46 2.445 38.277 12.506 45.478 33.713 7.27 21.407 5.793 42.063-11.09 59.23-3.022 3.074-2.118 3.89.874 5.771 22.312 14.038 30.34 35.295 23.778 62.387-5.608 23.153-25.207 39.862-50.322 41.556-26.063 1.757-52.208.753-78.312.494-10.585-.105-15.942-6.588-15.998-18.088-.136-28.14-.044-56.283-.05-84.424zm34.342 42.866c0 7.858.03 15.717-.016 23.574-.016 2.736.067 5.04 3.875 4.907 17.208-.6 34.493 1.321 51.63-1.209 12.941-1.91 20.4-9.585 21.82-21.635 2.395-20.324-7.304-32.167-27.892-32.997-14.68-.592-29.403-.024-44.099-.343-4.508-.097-5.562 1.505-5.4 5.652.287 7.34.08 14.7.082 22.05zm0-86.221c0 7.34.033 14.682-.019 22.022-.019 2.688-.129 4.986 3.773 4.909 13.156-.262 26.383.48 39.459-.622 14.841-1.251 22.63-10.622 23-25.238.378-14.972-6.47-23.995-21.323-26.63-13.774-2.443-27.777-.542-41.668-1.048-3.62-.132-3.223 2.303-3.223 4.584q.002 11.012 0 22.023zm-464.916 128.582c-.03 8.74-4.545 15.039-11.85 16.882-8.773 2.214-16.33-.983-19.937-9.645-5.438-13.059-10.371-26.343-15.023-39.704-1.511-4.34-3.468-5.748-8.029-5.676q-26.628.419-53.266.004c-4.219-.062-6.208 1.136-7.61 5.183-4.139 11.936-8.693 23.73-13.191 35.54-4.973 13.055-13.201 17.819-23.61 13.825-9.187-3.524-12.623-13.89-8.075-25.911q20.26-53.541 40.824-106.967 10.973-28.679 22.017-57.33c1.736-4.527 3.61-8.981 7.667-11.972a14.493 14.493 0 0 1 20.328 2.9 44.996 44.996 0 0 1 5.56 10.715q30.58 79.628 60.96 159.332c1.617 4.239 3.532 8.447 3.235 12.824zm-60.792-70l-20.555-54.983-20.418 54.983zm343.818-14.305c0-21.55-.146-43.102.112-64.65.058-4.848-1.05-6.568-6.175-6.332-9.36.43-18.758.26-28.135.068-10.399-.212-15.907-5.526-16.131-15.127-.24-10.225 5.014-16.343 15.603-16.423q52.097-.393 104.198.028c9.99.083 15.678 6.578 15.54 15.976-.14 9.471-5.912 15.276-15.968 15.525q-14.442.356-28.899 0c-3.961-.094-5.708.571-5.688 5.213q.278 65.029-.006 130.06c-.025 5.252 1.845 6.289 6.573 6.132 9.37-.311 18.763-.248 28.136.029 10.252.302 15.783 5.922 15.832 15.498.05 9.56-5.487 15.594-15.669 15.659q-52.097.333-104.197-.003c-10.373-.069-15.487-5.755-15.455-15.648.032-9.812 5.268-15.224 15.607-15.516 9.627-.27 19.275-.346 28.896-.01 4.614.161 6.012-1.022 5.949-5.83-.283-21.547-.123-43.1-.123-64.65zm396.225-.832c0-21.299-.158-42.599.12-63.893.063-4.93-1.182-6.477-6.212-6.254-9.362.415-18.76.266-28.137.056-10.184-.228-15.91-5.824-16.137-15.301-.234-9.774 5.548-16.183 16.001-16.257q51.72-.364 103.445 0c10.615.073 16.113 6.177 15.951 16.179-.16 9.883-5.848 15.243-16.712 15.41-9.633.148-19.272.175-28.902-.04-3.52-.08-4.77.763-4.759 4.556q.198 66.176.005 132.351c-.012 3.906 1.53 4.51 4.89 4.458 9.884-.154 19.78-.204 29.66.06 10.352.275 15.738 5.717 15.818 15.387.08 9.768-5.193 15.697-15.414 15.768q-52.1.362-104.205.017c-10.235-.063-15.757-5.988-15.781-15.533-.024-9.61 5.488-15.323 15.675-15.626 9.626-.286 19.276-.373 28.897-.022 4.706.171 5.959-1.23 5.906-5.903-.246-21.802-.109-43.609-.109-65.414zm-624.054-.022c0-27.387-.1-54.775.04-82.161.076-14.763 10.32-22.73 23.295-18.487 7.63 2.496 11.233 8.036 11.239 17.72.03 48.435.184 96.871-.17 145.303-.053 7.175 1.427 9.207 8.892 9.059 26.362-.523 52.742-.31 79.113-.107 10.872.083 16.23 5.633 16.171 15.75-.054 9.338-4.834 15.217-14.184 15.3q-54.006.476-108.018.072c-10.287-.078-15.733-6.25-16.257-17.249-.398-8.35-.116-16.732-.119-25.1q-.01-30.05-.002-60.1z"/></svg>