<svg xmlns="http://www.w3.org/2000/svg" role="img" viewBox="-2.61 -0.86 213.72 186.97"><title>Amundsen logo</title><path fill="#ea0b8c" fill-rule="evenodd" d="M5.437 5.857h30.06V86.53c0 12.767 5.84 20.372 10.458 23.632-4.89 4.346-19.83 8.149-30.966-1.087-6.566-5.444-9.552-14.396-9.552-22.817zM193.3 72.87v-8.478h9.168V34.65H192.4a39.67 39.67 0 0 0-78.434 8.42v69.459a25.274 25.274 0 0 0 19.999-5.354c6.565-5.445 9.55-14.396 9.55-22.817v-2.56h15.014V52.057h-15.013V43.07h.036a10.08 10.08 0 0 1 20.16 0v29.8a39.674 39.674 0 0 0 39.677 39.659V82.942a10.086 10.086 0 0 1-10.09-10.071zM79.452 34.65V78.3a4.594 4.594 0 0 1-9.186 0V34.65H40.522v51.338c0 9.235 3.132 20.915 17.385 24.718 14.268 3.807 22.545-4.074 22.545-4.074-.754 5.192-5.644 8.995-13.521 9.81-5.96.616-13.582-1.358-17.384-2.988v27.199a63.29 63.29 0 0 0 29.963 1.834c18.199-3.531 29.685-18.742 29.685-38.98V34.65z" data-name="logo standard"/><path d="M11.99 152.352h6.893l10.314 29.15H22.59l-1.924-5.991H9.932l-1.976 5.992H1.584zm-.4 18.135h7.465l-3.683-11.47zm47.757-10.462a6.264 6.264 0 0 1 2.512 1.938 6.197 6.197 0 0 1 1.226 2.768 19.15 19.15 0 0 1 .198 3.185l-.04 13.587h-5.775v-13.726a4.502 4.502 0 0 0-.395-2.016 2.81 2.81 0 0 0-2.769-1.504 3.24 3.24 0 0 0-3.224 1.938 6.088 6.088 0 0 0-.455 2.473v12.835H44.95v-12.835a7.21 7.21 0 0 0-.396-2.79 2.762 2.762 0 0 0-2.788-1.562 3.328 3.328 0 0 0-3.243 1.563 6.014 6.014 0 0 0-.455 2.65v12.974H32.35v-21.518h5.478v3.145a9.077 9.077 0 0 1 1.978-2.393 6.768 6.768 0 0 1 4.252-1.266 6.728 6.728 0 0 1 3.995 1.088 6.336 6.336 0 0 1 1.86 2.59 7.16 7.16 0 0 1 2.748-2.788 8.382 8.382 0 0 1 3.876-.89 7.505 7.505 0 0 1 2.809.554zm14.733-.079v12.993a6.828 6.828 0 0 0 .434 2.769 2.993 2.993 0 0 0 3.01 1.642 3.934 3.934 0 0 0 3.937-2.334 8.493 8.493 0 0 0 .55-3.342v-11.728h5.716v21.557H82.25v-3.046c-.053.066-.184.264-.395.594a3.96 3.96 0 0 1-.749.87 7.831 7.831 0 0 1-2.554 1.622 8.708 8.708 0 0 1-2.89.435q-4.772 0-6.428-3.442a13.195 13.195 0 0 1-.927-5.597v-12.993zm36.509 1.236q2.116 1.75 2.117 5.804v14.517h-5.776V168.39a6.025 6.025 0 0 0-.45-2.61 3.172 3.172 0 0 0-3.142-1.662 3.893 3.893 0 0 0-3.907 2.433 8.412 8.412 0 0 0-.55 3.282v11.669h-5.636v-21.518h5.458v3.145a9.532 9.532 0 0 1 2.049-2.393 7.09 7.09 0 0 1 4.391-1.305 8.264 8.264 0 0 1 5.446 1.75zm18.789-.89a6.853 6.853 0 0 1 2.472 2.383V152.39h5.715v29.112h-5.477v-2.986a7.941 7.941 0 0 1-2.75 2.788 7.721 7.721 0 0 1-3.836.87 8.01 8.01 0 0 1-6.359-3.055 11.734 11.734 0 0 1-2.58-7.842q0-5.518 2.54-8.682a8.27 8.27 0 0 1 6.794-3.164 6.957 6.957 0 0 1 3.48.86zm1.384 15.356a7.865 7.865 0 0 0 1.247-4.607q0-3.955-1.998-5.656a4.298 4.298 0 0 0-2.848-1.029 3.958 3.958 0 0 0-3.629 1.869 8.659 8.659 0 0 0-1.157 4.638 8.572 8.572 0 0 0 1.177 4.776 3.98 3.98 0 0 0 3.569 1.79 4.16 4.16 0 0 0 3.64-1.78zm16.296-1.028a3.752 3.752 0 0 0 .776 2.137q1.053 1.126 3.894 1.127a5.971 5.971 0 0 0 2.654-.494 1.585 1.585 0 0 0 .983-1.484 1.602 1.602 0 0 0-.792-1.444 32.39 32.39 0 0 0-5.897-1.7 12.256 12.256 0 0 1-5.177-2.275 4.931 4.931 0 0 1-1.503-3.877 6.715 6.715 0 0 1 2.348-5.131 9.444 9.444 0 0 1 6.61-2.146 12.148 12.148 0 0 1 6.59 1.611q2.547 1.613 2.924 5.568h-5.637a3.332 3.332 0 0 0-.614-1.721 3.876 3.876 0 0 0-3.174-1.146 4.562 4.562 0 0 0-2.627.573 1.65 1.65 0 0 0-.784 1.345 1.471 1.471 0 0 0 .834 1.404 36.016 36.016 0 0 0 5.884 1.562 10.796 10.796 0 0 1 5.05 2.393 5.433 5.433 0 0 1 1.66 4.055 6.547 6.547 0 0 1-2.387 5.231q-2.388 2.026-7.382 2.026-5.094 0-7.52-2.145a6.976 6.976 0 0 1-2.428-5.469zm32.204-14.237a8.763 8.763 0 0 1 3.725 3.188 10.595 10.595 0 0 1 1.717 4.457 27.505 27.505 0 0 1 .186 4.279h-15.7q.131 3.243 2.254 4.548a5.72 5.72 0 0 0 3.108.811 4.377 4.377 0 0 0 4.29-2.472h5.753a7.036 7.036 0 0 1-2.088 3.896q-2.898 3.145-8.11 3.144a11.75 11.75 0 0 1-7.595-2.652q-3.288-2.651-3.289-8.63 0-5.601 2.97-8.59a10.393 10.393 0 0 1 7.71-2.99 12.265 12.265 0 0 1 5.069 1.01zm-8.433 4.869a5.854 5.854 0 0 0-1.501 3.337h9.71a4.71 4.71 0 0 0-1.501-3.407 4.94 4.94 0 0 0-3.343-1.162 4.471 4.471 0 0 0-3.365 1.232zm34.295-4.07q2.117 1.75 2.117 5.804v14.517h-5.775V168.39a6.025 6.025 0 0 0-.452-2.61 3.172 3.172 0 0 0-3.141-1.662 3.892 3.892 0 0 0-3.906 2.433 8.393 8.393 0 0 0-.55 3.282v11.669h-5.637v-21.518h5.46v3.145a9.532 9.532 0 0 1 2.047-2.393 7.09 7.09 0 0 1 4.392-1.305 8.264 8.264 0 0 1 5.445 1.75z"/></svg>