<svg xmlns="http://www.w3.org/2000/svg" role="img" viewBox="35.64 43.64 694.72 143.22"><title>Amundsen logo</title><path fill="#ff5d52" d="M98.93 57.31c-30.59 23.84-49.46 69.27-49.46 116.38 34.69 0 49.46-22.95 49.46-22.95s14.77 22.95 49.47 22.95c0-47.11-18.87-92.54-49.47-116.38zm0 83S87.08 151.05 71 151.05c3.74-25.8 13.71-49.46 27.93-66.22 14.22 16.76 24.19 40.42 27.93 66.22-16.07 0-27.93-10.7-27.93-10.7z"/><path d="M236.24 139.48H205.1L199.82 154h-15.29L213 77h15.2l28.61 77h-15.29zm-5-13.64l-10.63-29.37-10.67 29.37zm118.84-5.94V154h-13.53v-32.89c0-6.82-4.73-11.55-11.22-11.55a14.68 14.68 0 0 0-11.55 5.44v39h-13.53v-32.89c0-6.82-4.84-11.55-11.33-11.55a14.32 14.32 0 0 0-11.44 5.44v39H264V97.9h12.87v5.17c3-4.07 9-6.27 15.29-6.27 7 0 13.64 3.19 16.83 7.48a28.76 28.76 0 0 1 19.31-7.48c13.97 0 21.78 9.79 21.78 23.1zm62.81-22V154h-12.76v-5.17a23.13 23.13 0 0 1-16.28 6.17c-12 0-22.77-7.81-22.77-23.1v-34h13.53v32.89c0 7.26 6.16 11.55 12.65 11.55a15.48 15.48 0 0 0 12.1-5.72V97.9zm63.91 22V154h-13.53v-32.89c0-7.37-5.5-11.55-12.76-11.55-4.62 0-9.24 1.76-12 5.61V154H425V97.9h12.87v5.17c4-4.18 9.68-6.27 16.17-6.27 12.64 0 22.76 7.81 22.76 23.1zm64.35-44.11V154h-12.76v-6c-4 5.06-10.56 7-16.72 7-15.18 0-27.17-11.66-27.17-29.26 0-16.94 11.66-28.93 27.5-28.93 6.16 0 11.77 1.76 15.62 5.94V75.79zm-13.53 39.49a19.85 19.85 0 0 0-13.86-5.72c-9.24 0-15.95 6.16-15.95 16 0 10.12 6.71 16.83 16.17 16.83a18.83 18.83 0 0 0 13.64-5.83zM552.37 136c5.83 4.51 14.85 7.37 22.22 7.37 6.6 0 9.13-2.31 9.13-5.17 0-4.62-6.16-5.06-13.2-6.49-9-1.76-18.37-4.84-18.37-16.94 0-11.33 8.25-17.93 22.11-17.93a34.56 34.56 0 0 1 17.6 4.51v12.32a37.61 37.61 0 0 0-17.71-5.06c-6.16 0-9.46 2.53-9.46 5.94 0 4.4 4.73 4.84 12.65 6.38 8.47 1.65 19 4 19 16 0 10.78-8.91 18.15-22.44 18.15a41 41 0 0 1-21.56-6.16zm102.52-5H616.5c.44 7.37 7.92 12.32 17 12.32 7 0 13.86-2.86 19.8-6.82v12.1c-6.27 4.51-14.19 6.38-21.45 6.38-17.44.02-28.85-11.65-28.85-29.25 0-17.38 11.33-28.93 27.28-28.93 15.4 0 24.64 10.56 24.64 27.61zm-38.28-10.12h25.08c0-7.48-4.73-12-11.55-12s-12.87 4.2-13.53 12.01zm100.54-.98V154h-13.53v-32.89c0-7.37-5.5-11.55-12.76-11.55-4.62 0-9.24 1.76-12 5.61V154h-13.52V97.9h12.87v5.17c4-4.18 9.68-6.27 16.17-6.27 12.62 0 22.77 7.81 22.77 23.1z"/></svg>