<svg xmlns="http://www.w3.org/2000/svg" role="img" viewBox="-7.40 -2.40 488.80 411.80"><title>Analytics Zoo logo</title><defs><style>.cls-2{clip-path:url(#clip-path)}.cls-3{fill:#2d82c4}</style><clipPath id="clip-path"><path fill="none" d="M-2.852-20.031H478.21v344.19H-2.852z"/></clipPath></defs><path d="M33.749 335.06l19.395 51.867h-11.84l-3.923-11.55H17.985l-4.068 11.55H2.44l19.614-51.867zm.653 31.818l-6.538-19.033h-.145l-6.755 19.033zm31.963-17.508v5.23h.218a11.838 11.838 0 0 1 5.085-4.757 14.712 14.712 0 0 1 6.392-1.49 17.54 17.54 0 0 1 6.792 1.126 10.093 10.093 0 0 1 4.177 3.124 12.106 12.106 0 0 1 2.143 4.867 30.316 30.316 0 0 1 .618 6.357v23.1H81.474v-21.212q0-4.647-1.452-6.937-1.454-2.288-5.158-2.288-4.214 0-6.102 2.506-1.89 2.506-1.888 8.245v19.686H56.558v-37.556zm32.833 11.55a11.982 11.982 0 0 1 1.816-6.028 12.367 12.367 0 0 1 4.069-3.85 17.74 17.74 0 0 1 5.557-2.07 31.622 31.622 0 0 1 6.21-.619 42.357 42.357 0 0 1 5.74.4 17.6 17.6 0 0 1 5.303 1.562 10.456 10.456 0 0 1 3.922 3.232 9.036 9.036 0 0 1 1.526 5.485v19.541a39.174 39.174 0 0 0 .29 4.867 8.777 8.777 0 0 0 1.017 3.487h-10.46a14.556 14.556 0 0 1-.473-1.78 15.282 15.282 0 0 1-.254-1.852 13.445 13.445 0 0 1-5.811 3.56 23.334 23.334 0 0 1-6.829 1.017 18.46 18.46 0 0 1-5.012-.654 11.48 11.48 0 0 1-4.068-2.035 9.452 9.452 0 0 1-2.724-3.486 11.784 11.784 0 0 1-.98-5.013 10.949 10.949 0 0 1 1.125-5.267 9.41 9.41 0 0 1 2.906-3.305 13.045 13.045 0 0 1 4.068-1.852 43.59 43.59 0 0 1 4.612-.98q2.325-.364 4.577-.582a27.403 27.403 0 0 0 3.996-.654 6.947 6.947 0 0 0 2.76-1.271 2.79 2.79 0 0 0 .944-2.433 5.469 5.469 0 0 0-.545-2.652 4.005 4.005 0 0 0-1.452-1.525 5.713 5.713 0 0 0-2.107-.726 17.36 17.36 0 0 0-2.579-.182 7.829 7.829 0 0 0-4.794 1.307 5.834 5.834 0 0 0-2.034 4.359zm23.827 7.629a4.621 4.621 0 0 1-1.634.908 16.69 16.69 0 0 1-2.107.545q-1.127.216-2.36.362-1.237.147-2.47.364a18.734 18.734 0 0 0-2.289.58 6.787 6.787 0 0 0-1.961.981 4.662 4.662 0 0 0-1.344 1.563 5.019 5.019 0 0 0-.508 2.397 4.846 4.846 0 0 0 .508 2.324 3.889 3.889 0 0 0 1.38 1.489 5.815 5.815 0 0 0 2.034.763 12.95 12.95 0 0 0 2.397.218 9.111 9.111 0 0 0 4.722-1.017 6.807 6.807 0 0 0 2.47-2.434 7.79 7.79 0 0 0 .981-2.869 19.888 19.888 0 0 0 .181-2.324zm28.912-33.489v51.867H141.62V335.06zm22.01 63.054q-2.98 1.961-8.281 1.961-1.599 0-3.16-.108-1.563-.11-3.16-.254v-8.5q1.452.144 2.978.29a21.52 21.52 0 0 0 3.05.073 4.014 4.014 0 0 0 3.016-1.598 5.152 5.152 0 0 0 .98-3.05 6.193 6.193 0 0 0-.436-2.325l-13.148-35.232h10.97l8.498 25.715h.146l8.208-25.715h10.679l-15.691 42.205a12.71 12.71 0 0 1-4.65 6.538zm44.457-48.744v6.902h-7.555v18.596q0 2.615.872 3.487.872.872 3.487.872.872 0 1.67-.073a13.96 13.96 0 0 0 1.526-.218v7.991a24.74 24.74 0 0 1-2.906.29q-1.599.072-3.123.074a30.072 30.072 0 0 1-4.54-.328 10.692 10.692 0 0 1-3.778-1.27 6.723 6.723 0 0 1-2.579-2.689 9.593 9.593 0 0 1-.944-4.576v-22.156h-6.247v-6.901h6.247v-11.26h10.315v11.26zm5.229-5.81v-8.5h10.316v8.5zm10.316 5.81v37.557h-10.316v-37.556zm26.077 6.756a7.244 7.244 0 0 0-4.14 1.127 8.954 8.954 0 0 0-2.724 2.905 12.57 12.57 0 0 0-1.49 3.923 21.252 21.252 0 0 0-.436 4.25 20.381 20.381 0 0 0 .437 4.14 12.816 12.816 0 0 0 1.416 3.814 8.155 8.155 0 0 0 2.651 2.797 7.295 7.295 0 0 0 4.07 1.09 7.56 7.56 0 0 0 5.702-2.07 9.805 9.805 0 0 0 2.505-5.559h9.952q-1.018 7.483-5.81 11.406-4.795 3.922-12.278 3.923a20.537 20.537 0 0 1-7.735-1.417 17.12 17.12 0 0 1-5.993-3.959 17.978 17.978 0 0 1-3.85-6.066 21.01 21.01 0 0 1-1.381-7.737 25.023 25.023 0 0 1 1.27-8.1 18.221 18.221 0 0 1 3.742-6.464 17.12 17.12 0 0 1 6.03-4.25 20.496 20.496 0 0 1 8.136-1.526 23.551 23.551 0 0 1 6.428.872 17.203 17.203 0 0 1 5.522 2.652 13.716 13.716 0 0 1 5.702 10.715h-10.097q-1.019-6.465-7.628-6.466zm32.434 21.466a6.026 6.026 0 0 0 1.781 1.962 7.62 7.62 0 0 0 2.506 1.126 11.787 11.787 0 0 0 2.942.363 10.952 10.952 0 0 0 2.288-.255 7.743 7.743 0 0 0 2.179-.799 4.94 4.94 0 0 0 1.635-1.452 3.817 3.817 0 0 0 .654-2.288q0-2.325-3.088-3.487a61.99 61.99 0 0 0-8.608-2.325q-2.253-.508-4.395-1.199a14.97 14.97 0 0 1-3.814-1.816 8.808 8.808 0 0 1-2.687-2.833 8.018 8.018 0 0 1-1.017-4.176 11.296 11.296 0 0 1 1.416-5.957 10.438 10.438 0 0 1 3.742-3.668 16.395 16.395 0 0 1 5.23-1.89 32.296 32.296 0 0 1 5.956-.545 29.79 29.79 0 0 1 5.92.582 15.692 15.692 0 0 1 5.122 1.961 11.774 11.774 0 0 1 3.741 3.669 12.333 12.333 0 0 1 1.78 5.775h-9.807q-.218-2.978-2.252-4.032a10.293 10.293 0 0 0-4.794-1.053 17.772 17.772 0 0 0-1.889.109 6.311 6.311 0 0 0-1.852.472 3.814 3.814 0 0 0-1.417 1.053 2.782 2.782 0 0 0-.581 1.853 2.826 2.826 0 0 0 1.017 2.251 7.838 7.838 0 0 0 2.652 1.417 33.094 33.094 0 0 0 3.74.98q2.106.437 4.286.945a44.184 44.184 0 0 1 4.395 1.235 14.495 14.495 0 0 1 3.814 1.925 9.313 9.313 0 0 1 2.688 2.979 8.742 8.742 0 0 1 1.017 4.394 11.409 11.409 0 0 1-5.375 10.243 15.922 15.922 0 0 1-5.485 2.143 31.999 31.999 0 0 1-6.284.618 31.137 31.137 0 0 1-6.392-.654 16.878 16.878 0 0 1-5.558-2.18 12.446 12.446 0 0 1-3.995-4.031 12.614 12.614 0 0 1-1.707-6.284h9.807a5.647 5.647 0 0 0 .69 2.869zm76.094-32.943H342.91v-9.59h40.825v9.009l-27.822 33.27h28.549v9.589h-43.731v-9.007zm21.72 15.364a17.176 17.176 0 0 1 10.024-10.243 21.441 21.441 0 0 1 7.991-1.417 21.734 21.734 0 0 1 8.027 1.417 17.106 17.106 0 0 1 10.06 10.243 23.074 23.074 0 0 1 1.381 8.172 22.774 22.774 0 0 1-1.38 8.137 17.64 17.64 0 0 1-3.923 6.21 17.082 17.082 0 0 1-6.138 3.96 22.266 22.266 0 0 1-8.027 1.38 21.964 21.964 0 0 1-7.99-1.38 17.14 17.14 0 0 1-6.103-3.96 17.612 17.612 0 0 1-3.922-6.21 22.731 22.731 0 0 1-1.381-8.137 23.03 23.03 0 0 1 1.38-8.172zm9.37 12.567a11.693 11.693 0 0 0 1.49 3.85 7.93 7.93 0 0 0 2.796 2.724 8.531 8.531 0 0 0 4.36 1.018 8.732 8.732 0 0 0 4.393-1.018 7.841 7.841 0 0 0 2.834-2.724 11.714 11.714 0 0 0 1.488-3.85 21.97 21.97 0 0 0 .437-4.395 22.516 22.516 0 0 0-.437-4.43 11.319 11.319 0 0 0-1.488-3.85 8.26 8.26 0 0 0-2.834-2.725 8.499 8.499 0 0 0-4.394-1.054 7.937 7.937 0 0 0-7.156 3.778 11.298 11.298 0 0 0-1.488 3.85 22.516 22.516 0 0 0-.437 4.431 21.97 21.97 0 0 0 .437 4.395zm35.013-12.567a17.176 17.176 0 0 1 10.025-10.243 21.441 21.441 0 0 1 7.99-1.417 21.734 21.734 0 0 1 8.028 1.417 17.106 17.106 0 0 1 10.06 10.243 23.074 23.074 0 0 1 1.381 8.172 22.774 22.774 0 0 1-1.381 8.137 17.64 17.64 0 0 1-3.923 6.21 17.082 17.082 0 0 1-6.137 3.96 22.266 22.266 0 0 1-8.027 1.38 21.964 21.964 0 0 1-7.991-1.38 17.14 17.14 0 0 1-6.102-3.96 17.612 17.612 0 0 1-3.923-6.21 22.731 22.731 0 0 1-1.38-8.137 23.03 23.03 0 0 1 1.38-8.172zm9.371 12.567a11.693 11.693 0 0 0 1.489 3.85 7.93 7.93 0 0 0 2.797 2.724 8.531 8.531 0 0 0 4.359 1.018 8.732 8.732 0 0 0 4.394-1.018 7.841 7.841 0 0 0 2.833-2.724 11.714 11.714 0 0 0 1.489-3.85 21.97 21.97 0 0 0 .436-4.395 22.516 22.516 0 0 0-.436-4.43 11.319 11.319 0 0 0-1.489-3.85 8.26 8.26 0 0 0-2.833-2.725 8.499 8.499 0 0 0-4.394-1.054 7.937 7.937 0 0 0-7.156 3.778 11.298 11.298 0 0 0-1.489 3.85 22.516 22.516 0 0 0-.436 4.431 21.97 21.97 0 0 0 .436 4.395z"/><g class="cls-2"><g class="cls-2"><path d="M227.132 262.582c-85.915 7.924-175.463-4.56-188.007-71.7-6.135-33.1 8.965-68.199 28.967-90.013v-11.65c-36.034 31.6-55.56 71.589-44.312 118.822 14.367 60.585 91.2 94.894 208.51 83.501 46.434-4.5 107.159-19.432 149.406-42.635v-32.94c-38.342 22.845-101.746 41.716-154.564 46.615M453.46 88.432C433.08-11.065 239.897-17.37 115.37 58.43v8.374C239.757 2.854 416.192 3.245 432.256 94.897c5.39 30.319-11.688 61.906-42.198 80.091v23.784c36.701-13.464 74.347-57.005 63.403-110.34" class="cls-3"/><path d="M374.748 73.943h-22.525v100.326c0 11.76 5.684 21.984 22.525 23.619zm-268.223 36.631H83.957l-.012 65.547c0 11.8 5.702 22.013 22.58 23.617zm-22.569-33.58h22.497v21.352H83.956zM241.431 198.7c-18.234 0-25.949-12.672-25.949-25.156V86.513h22.332v24.06h16.815v18.038h-16.815v43.553c0 5.09 2.414 7.926 7.721 7.926h9.094v18.61h-13.198m41.089-37.079c0 11.427 7.147 19.825 19.79 19.825 9.907 0 14.79-2.748 20.51-8.398l13.798 13.146c-8.844 8.74-18.115 14.051-34.473 14.051-21.37 0-41.844-11.664-41.844-45.664 0-29.07 17.891-45.502 41.349-45.502 23.848 0 37.553 19.236 37.553 44.487v8.055H282.52m18.152-34.072c-7.643 0-13.516 3.937-16.004 9.246a23.046 23.046 0 0 0-2.148 9.6h34.415c-.437-9.6-4.788-18.847-16.263-18.847m-133.498 1.062c6.548 0 9.27 3.237 9.27 8.492v61.729h22.336v-61.86c0-12.533-6.679-26.374-26.292-26.374l-46.137-.022v88.256h22.342v-70.22zm231.812-36.74a8.963 8.963 0 1 1 8.997-8.964 8.918 8.918 0 0 1-8.997 8.963m0-16.43a7.45 7.45 0 1 0 7.487 7.467 7.53 7.53 0 0 0-7.487-7.467m3.973 12.84h-1.675a.379.379 0 0 1-.342-.224l-2.264-3.85a.673.673 0 0 0-.318-.178h-1.039v3.839a.393.393 0 0 1-.376.412h-1.51a.412.412 0 0 1-.378-.412v-9.684c0-.566.189-.8.684-.87a35.986 35.986 0 0 1 2.75-.128c2.793 0 4.434.82 4.434 3.413v.19a2.716 2.716 0 0 1-2.017 2.862l2.357 4.015a.708.708 0 0 1 .06.284.32.32 0 0 1-.366.33m-2.17-7.68c0-1.084-.672-1.424-2.111-1.424h-1.427v3.072c.225 0 1.24.046 1.427.046 1.439 0 2.111-.479 2.111-1.505z" class="cls-3"/></g></g></svg>