<svg xmlns="http://www.w3.org/2000/svg" role="img" xmlns:xlink="http://www.w3.org/1999/xlink" viewBox="-0.34 2.16 316.68 141.18"><title>Ant Group logo</title><style>svg {enable-background:new 0 0 317.17 145.85}</style><style/><switch><g><defs><path id="SVGID_1_" d="M77.31 8.38c-.48 0-1 .06-1.55.2-2.99.75-5.56 2.86-7.35 5.32-2.47 3.42-3.82 7.46-4.78 11.52-1.18 5.02-2 10.1-2.91 15.17-.18.98-.27 2.01.04 2.97.36 1.07 1.13 1.69 1.96 1.86 1.23.26 2.6-.46 2.95-2.06 1.4-6.32 2.92-14.22 7.77-18.91 2.66-2.56 6.27-4.37 7.77-7.93 1.58-3.78.06-8.14-3.9-8.14z"/></defs><clipPath id="SVGID_00000137822536032725703760000012804467337228317839_"><use overflow="visible" xlink:href="#SVGID_1_"/></clipPath><linearGradient id="SVGID_00000034812453945673829750000010387965350616146314_" x1="-670.253" x2="-666.556" y1="2301.384" y2="2301.384" gradientTransform="rotate(-62 -24401.22 6419.04) scale(10.8745)" gradientUnits="userSpaceOnUse"><stop offset="0" stop-color="#06f"/><stop offset=".2" stop-color="#1677ff"/><stop offset="1" stop-color="#048fff"/></linearGradient><path fill="url(#SVGID_00000034812453945673829750000010387965350616146314_)" d="M77.86 54.92l20.38-38.33L65.37-.88 44.99 37.45z" clip-path="url(#SVGID_00000137822536032725703760000012804467337228317839_)"/><defs><path id="SVGID_00000129185445729731197260000005162514097174066088_" d="M42.66 35.9c-2.1.73-2.92 3.66-4.55 5.08-2.3 2.01-5.09 3.1-7.67 4.64-2.24 1.33-4.4 2.79-6.42 4.44C20 53.33 16.5 57.24 13.69 61.6 8.24 70.06 5.51 80.1 5.9 90.15c1.1 27.96 25.33 49.57 53.59 47.17 25.23-2.14 44.94-23.41 45.12-48.68.06-8.55-2.1-17.05-6.3-24.51-4.06-7.21-9.94-13.35-16.97-17.72-7.19-4.48-15.5-7.04-23.96-7.4-.7-.03-1.41-.03-2.11-.03-.65 0-1.31 0-1.96-.03-1.78-.07-3.52-.32-5.15-1.25-1.29-.74-2.92-1.96-4.54-1.96-.31 0-.64.05-.96.16"/></defs><clipPath id="SVGID_00000114796093632307833480000009075340563702515629_"><use overflow="visible" xlink:href="#SVGID_00000129185445729731197260000005162514097174066088_"/></clipPath><linearGradient id="SVGID_00000034786376613159955090000016076646085210290873_" x1="-810.877" x2="-807.18" y1="2292.156" y2="2292.156" gradientTransform="rotate(-20 -184145.225 -30778.063) scale(26.7113)" gradientUnits="userSpaceOnUse"><stop offset="0" stop-color="#06f"/><stop offset=".2" stop-color="#1677ff"/><stop offset="1" stop-color="#048fff"/></linearGradient><path fill="url(#SVGID_00000034786376613159955090000016076646085210290873_)" d="M17.11 171.59l120.98-44.03L93.07 3.87-27.91 47.91z" clip-path="url(#SVGID_00000114796093632307833480000009075340563702515629_)"/><g><defs><path id="SVGID_00000156548543682819296150000016889913151647532947_" d="M21.6 17.07c-1.06.87-1.77 2.1-2.23 3.45-.57 1.68-.74 3.56-.68 5.17.02.67.07 1.33.14 2 .07.73.17 1.46.28 2.19.67 4.04 2.01 7.93 3.6 11.69 1.55 3.65 3.18 7.39 5.1 10.86.83 1.5 2.11 3.62 4.13 2.62 1.19-.59 1.85-1.85 1.66-3.39-.11-.92-.72-1.73-1.09-2.53-1.88-4.13-3.45-8.96-3.32-13.64.16-5.55 3.21-12.94-.82-17.76-.96-1.15-2.34-1.74-3.73-1.74-1.06 0-2.14.35-3.04 1.08"/></defs><clipPath id="SVGID_00000099643096072798166660000013315837473945031610_"><use overflow="visible" xlink:href="#SVGID_00000156548543682819296150000016889913151647532947_"/></clipPath><linearGradient id="SVGID_00000085252332855869060990000017579829555017326979_" x1="-679.289" x2="-675.593" y1="2435.694" y2="2435.694" gradientTransform="rotate(-105 -13693.537 10330.977) scale(10.7763)" gradientUnits="userSpaceOnUse"><stop offset="0" stop-color="#06f"/><stop offset=".2" stop-color="#1677ff"/><stop offset="1" stop-color="#048fff"/></linearGradient><path fill="url(#SVGID_00000085252332855869060990000017579829555017326979_)" d="M43.82 53.36L32.79 12.2 8.63 18.67l11.03 41.16z" clip-path="url(#SVGID_00000099643096072798166660000013315837473945031610_)"/></g><path fill="#fff" d="M101.02 81.89C99.43 63.47 84.71 48.56 68.2 48.58c-16.46.03-28.5 14.89-26.92 33.22 1.57 18.33 16.18 33.25 32.66 33.33 16.53.08 28.67-14.81 27.08-33.24m-8.61 20.9c-4.25 4.76-10.06 7.47-16.34 7.67-7.07.21-14.02-2.66-19.6-8.08-5.59-5.44-9.11-12.78-9.91-20.7-.85-8.39 1.55-16.43 6.62-22.09 4.26-4.75 10.05-7.46 16.38-7.65.25-.01.49-.01.74-.01 6.95 0 13.78 3.02 19.21 8.5 5.44 5.48 8.84 12.78 9.56 20.53.78 8.27-1.66 16.23-6.66 21.83"/><path d="M220.45 93.19c-10.22 0-18.51 8.29-18.51 18.51 0 10.22 8.29 18.51 18.51 18.51 10.22 0 18.51-8.29 18.51-18.51 0-10.22-8.29-18.51-18.51-18.51m0 30.84c-6.81 0-12.32-5.52-12.32-12.33 0-6.81 5.52-12.32 12.32-12.32s12.33 5.52 12.33 12.32c0 6.81-5.52 12.33-12.33 12.33m-29.62-6.98c-1.87-1.48-3.52-1.76-3.47-2.13.04-.31.92-.17 2.48-.64 4.84-1.4 7.71-5.03 7.71-9.79 0-8.38-5.8-10.66-14.18-10.66h-15.39v35.66s1.28.31 3.11.31c1.8 0 3.1-.31 3.11-.31v-13.54h4c2.85 0 4.99.36 6.53 1.53 1.65 1.25 2.96 2.97 4.69 5.67 1.01 1.58 3.53 6.33 3.54 6.34 0 0 1.49.31 3.64.31 2.12 0 3.55-.48 3.55-.48-4.06-6.47-6.24-9.83-9.32-12.27m-8.47-6.41h-8.17V99.07h9.27c5.37 0 7.87 1.05 7.87 5.42.01 4.64-3.6 6.15-8.97 6.15m86.12-16.77v21.16c0 5.73-3.39 9.36-8.99 9.36-5.61 0-9-3.63-9-9.36V93.87s-1.29-.31-3.13-.31c-1.81 0-3.11.31-3.11.31v21.37c0 10.42 6.68 14.98 15.23 14.98s15.23-4.56 15.23-14.98V93.87s-1.29-.31-3.11-.31c-1.84 0-3.12.31-3.12.31m29.34 0h-15.88v35.59s1.29.31 3.13.31c1.81 0 3.12-.31 3.13-.31v-11.51h9.84c7.39 0 12.37-4.77 12.37-12.17 0-7.41-4.92-11.91-12.59-11.91m-1.04 18.52h-8.59V99.43h8.59c5.37 0 7.68 1.77 7.68 6.51s-2.88 6.45-7.68 6.45m-152.27-13.5c5.02 0 8.79 1.84 11.91 6.14l4.59-3.38c-4.12-5.69-8.62-8.47-17-8.47-10.24 0-18.14 7.9-18.14 18.59 0 10.75 7.59 18.43 16.99 18.43 2.65 0 5.05-.58 7.06-1.43 1.84-.75 2.88-1.32 4.07-2.12.5-.34 1.08-.74 1.45-.6.32.11.34.46.34.85 0 1.13.01 2.48.01 2.48s.98.31 2.37.31c1.36 0 2.37-.4 2.37-.4l-.01-19.01h-15.97v5.08h10.49c-.03 3.81-3.47 9.13-11.34 9.13-7.43 0-11.77-5.9-11.77-12.73.01-7.7 6.1-12.87 12.58-12.87m-5.27-52.22c-5.23 11.05-9.71 23.05-13.46 35.76 0 0 1.28.31 3.21.31 1.84 0 3.12-.31 3.13-.31 1.17-4.15 3.06-9.76 3.06-9.76s4.94-.58 8.24-.3c3.89.33 5.89.88 7.73 1.7.81.36 1.23.62 1.45 1.28.44 1.34 1.21 3.89 2.12 7.08 0 0 1.33.32 3.19.32 1.93 0 3.15-.3 3.14-.3-3.66-12.71-8.11-24.72-13.43-35.76h-8.38zm4.87 21.16c-2.65 0-5.75.45-7.61 1.07 2.2-6.77 5.79-15.13 6.41-16.51.18-.4.35-.52.54-.52.17 0 .35.1.51.44.66 1.46 4.25 9.82 6.35 16.09-1.45-.23-3.45-.57-6.2-.57m45.81-21.07v25.86c-6.12-9.85-12.25-18.77-18.22-25.86 0 0-1.26-.31-3.06-.31-1.78 0-3.06.31-3.07.31v35.66c.01 0 1.26.31 3.05.31 1.77 0 3.04-.31 3.05-.31V54.79c6.52 8.97 12.64 18.23 18.15 27.63 0 0 1.29.31 3.11.31 1.79 0 3.1-.31 3.1-.31V46.76s-1.26-.31-3.05-.31c-1.77 0-3.06.31-3.06.31m11.4 5.77h12.93v29.89s1.36.31 3.31.31c1.92 0 3.31-.31 3.32-.31V52.53h12.93v-5.75h-32.5v5.75z"/></g></switch></svg>