<svg id="图层_1" data-name="图层 1" xmlns="http://www.w3.org/2000/svg" xmlns:xlink="http://www.w3.org/1999/xlink" viewBox="0 0 1190.55 595.47023"><defs><style>.cls-1{fill:#3f3b3a;}.cls-2{fill:url(#linear-gradient);}.cls-3{fill:url(#linear-gradient-2);}.cls-4{fill:url(#linear-gradient-3);}.cls-5{fill:url(#linear-gradient-4);}.cls-6{fill:#008cd6;}.cls-7{fill:#fff;}.cls-8{fill:url(#linear-gradient-5);}.cls-9{opacity:0.2;}.cls-10{fill:url(#radial-gradient);}</style><linearGradient id="linear-gradient" x1="202.62392" y1="332.57001" x2="202.62392" y2="536.9391" gradientUnits="userSpaceOnUse"><stop offset="0" stop-color="#0097e0"/><stop offset="0.25185" stop-color="#00aaeb"/><stop offset="1" stop-color="#00b9ef"/></linearGradient><linearGradient id="linear-gradient-2" x1="203.32895" y1="332.57022" x2="203.32895" y2="536.9384" xlink:href="#linear-gradient"/><linearGradient id="linear-gradient-3" x1="198.07136" y1="359.33913" x2="198.07136" y2="153.95028" gradientTransform="translate(5.1268 -41.2142) rotate(1.07152)" gradientUnits="userSpaceOnUse"><stop offset="0" stop-color="#00a1e9"/><stop offset="1" stop-color="#00b9ef"/></linearGradient><linearGradient id="linear-gradient-4" x1="191.72135" y1="326.09135" x2="191.72135" y2="249.64056" gradientUnits="userSpaceOnUse"><stop offset="0" stop-color="#00a1e9"/><stop offset="0.23629" stop-color="#0fa7ea"/><stop offset="0.68951" stop-color="#36b7ee"/><stop offset="1" stop-color="#55c3f1"/></linearGradient><linearGradient id="linear-gradient-5" x1="130.46068" y1="313.81736" x2="257.76414" y2="313.81736" gradientTransform="translate(5.1268 -41.2142) rotate(1.07152)" gradientUnits="userSpaceOnUse"><stop offset="0" stop-color="#fff" stop-opacity="0.95"/><stop offset="0.13921" stop-color="#fff" stop-opacity="0.74394"/><stop offset="0.30875" stop-color="#fff" stop-opacity="0.52019"/><stop offset="0.47326" stop-color="#fff" stop-opacity="0.3339"/><stop offset="0.62852" stop-color="#fff" stop-opacity="0.18891"/><stop offset="0.77235" stop-color="#fff" stop-opacity="0.08499"/><stop offset="0.90048" stop-color="#fff" stop-opacity="0.02204"/><stop offset="1" stop-color="#fff" stop-opacity="0"/></linearGradient><radialGradient id="radial-gradient" cx="198.1441" cy="228.33481" r="24.677" gradientTransform="translate(5.1268 -41.2142) rotate(1.07152)" gradientUnits="userSpaceOnUse"><stop offset="0" stop-color="#bae3f9"/><stop offset="1" stop-color="#1c95d4" stop-opacity="0"/></radialGradient></defs><title>ant-financial</title><path class="cls-1" d="M246.754,473.20705s62.37681,51.81559,98.80561,81.47171c0,0,3.8051,2.96679,6.3555,0,0,0,32.19468-30.92343,38.97289-29.65612,0,0,1.97944-.28-.85014,5.51641,0,0-6.62994,13.83006-30.93368,40.66212,0,0-7.75925,8.47137-16.50585.84382,0,0-100.9057-84.86514-105.14454-88.25464,0,0-5.63155-5.08345-1.12379-10.726C236.33,473.06431,240.57357,468.54551,246.754,473.20705Z"/><path class="cls-1" d="M160.80292,473.20705S98.43084,525.02264,61.9918,554.67876c0,0-3.80037,2.96679-6.34446,0,0,0-32.19548-30.92343-38.97289-29.65612,0,0-1.985-.28.83909,5.51641,0,0,6.63467,13.83006,30.92816,40.66212,0,0,7.76477,8.47137,16.52793.84382,0,0,100.88915-84.86514,105.1272-88.25464,0,0,5.64338-5.08345,1.13009-10.726C171.22692,473.06431,166.98808,468.54551,160.80292,473.20705Z"/><path class="cls-1" d="M233.59821,375.18534s7.04161-7.1394,62.59053-33.81294a3.4253,3.4253,0,0,1,4.53458,1.14113s17.29052,19.62091,37.54863,18.61226a6.12765,6.12765,0,0,0,4.95649-4.03143c2.69236-6.74982-15.815-14.67941-15.815-14.67941a11.96788,11.96788,0,0,1-7.5684-12.13057,9.65593,9.65593,0,0,0-3.1253-8.2687c-6.55818-5.22067-28.42745,8.719-28.42745,8.719-33.02273,17.6249-60.05668,33.38472-60.05668,33.38472s-7.45326,3.49359-4.40919,9.37671C223.8264,373.49611,226.1623,378.82719,233.59821,375.18534Z"/><path class="cls-1" d="M175.23076,377.5165s-7.48481-6.68514-64.6094-29.78229a3.40559,3.40559,0,0,0-4.44152,1.4203S90.15663,369.83375,69.878,370.1074a6.16026,6.16026,0,0,1-5.21515-3.712c-3.104-6.559,14.8663-15.6565,14.8663-15.6565A11.93413,11.93413,0,0,0,86.29632,338.154a9.69226,9.69226,0,0,1,2.60482-8.44535c6.20645-5.626,28.92585,6.90439,28.92585,6.90439,34.08659,15.49168,62.04875,29.50785,62.04875,29.50785s7.66067,3.022,5.00143,9.092C184.87717,375.21294,182.88591,380.68045,175.23076,377.5165Z"/><path class="cls-2" d="M258.122,463.90132c0,42.18652-24.8471,76.393-55.50082,76.393-30.6482,0-55.4953-34.20646-55.4953-76.393,0-42.18574,24.8471-76.39377,55.4953-76.39377C233.27488,387.50755,258.122,421.71558,258.122,463.90132Z"/><path class="cls-3" d="M236.36864,360.24805c0,20.986-14.78429,37.99106-33.04009,37.99106-18.244,0-33.0393-17.005-33.0393-37.99106,0-20.97575,14.79533-37.969,33.0393-37.969C221.58435,322.27908,236.36864,339.2723,236.36864,360.24805Z"/><path class="cls-1" d="M126.66113,184.14334S107.89588,113.89214,160.698,42.88623l4.294,6.73641S128.59089,95.231,138.21523,172.70517Z"/><path class="cls-1" d="M197.40048,17.73551c6.37286,7.45484,3.24676,20.5988-6.97456,29.343-10.22764,8.74108-23.68468,9.78285-30.07251,2.3146-6.37837-7.45878-3.26332-20.60037,6.97457-29.34067C177.5493,11.30825,191.01265,10.26885,197.40048,17.73551Z"/><path class="cls-1" d="M237.24559,164.16125s26.96928-67.51547,111.74689-92.84442l-.59226,7.96192s-56.444,14.789-95.05492,82.63966Z"/><path class="cls-1" d="M394.80823,72.413c.653,9.79941-9.7,18.45848-23.12948,19.35751-13.42391.88877-24.8471-6.33342-25.49456-16.13283-.64114-9.79389,9.70715-18.45533,23.14132-19.35514C382.73917,55.39456,394.16156,62.62149,394.80823,72.413Z"/><path class="cls-4" d="M77.545,224.56729c3.68444-84.87461,76.184-66.34515,107.83375-114.787,25.97877,43.82449,123.62353,3.75305,133.05465,113.832,5.182,60.48018-39.31357,101.468-117.92731,105.7368C131.17678,333.114,74.11054,303.70073,77.545,224.56729Z"/><path class="cls-5" d="M271.88421,255.91658c-3.70179,2.47548-81.564,67.659-193.66652-9.771.41244,3.671.99208,7.19775,1.70736,10.60381.16167.74446.3123,1.48813.48658,2.23338,12.41764,53.314,61.93045,73.52476,120.09445,70.36633,48.09408-2.61191,83.33364-19.01761,102.326-45.17066C311.94856,266.93125,293.58866,241.40515,271.88421,255.91658Z"/><path class="cls-6" d="M195.63555,254.20842C106.448,260.04186,109.35168,206.75,109.35168,206.75c1.48418-49.79356,80.19965-51.18627,80.19965-51.18627s91.81448-6.17727,92.51951,47.0397C282.07084,202.60339,285.2892,249.63442,195.63555,254.20842Z"/><path class="cls-7" d="M195.56615,257.62867c-91.06292,4.29247-86.11826-47.37249-86.11826-47.37249,1.49286-49.68553,80.02143-49.91344,80.02143-49.91344s91.65912-7.32156,92.35626,45.789C281.82558,206.13169,285.96742,253.46869,195.56615,257.62867Z"/><path class="cls-8" d="M255.6047,272.26312c-46.5271,32.48727-110.71537,15.12892-119.60787,9.7726-8.89328-5.35632-4.22307-13.74725,3.4518-11.46971,0,0,57.39745,18.438,115.48732-8.67247"/><path class="cls-1" d="M195.80589,191.52089a25.4608,25.4608,0,0,0-23.2943,27.42826s.06782,2.34142,3.421,2.07881c3.3477-.27839,21.54987-4.72227,44.90805-3.66867a2.38845,2.38845,0,0,0,2.369-2.53463A25.43,25.43,0,0,0,195.80589,191.52089Z"/><g class="cls-9"><path class="cls-10" d="M196.06456,192.88757a20.2012,20.2012,0,0,0-18.48135,21.762s.05363,1.858,2.71365,1.649c2.65608-.22081,17.0981-3.74674,35.63071-2.91a1.89527,1.89527,0,0,0,1.88008-2.011A20.17759,20.17759,0,0,0,196.06456,192.88757Z"/></g><path class="cls-1" d="M455.94849,415.45314,428.04627,477.192h12.27805l8.40513-18.38356h23.1831L480.059,477.192h12.226l-27.41958-61.73882Zm-2.634,33.3997.21529-.43059c2.46208-5.42335,4.548-9.97054,6.59525-14.60054l.29652-.638,7.04,15.66912Z"/><path class="cls-1" d="M672.01581,434.31224a8.34057,8.34057,0,0,1,2.39662-6.432,8.87338,8.87338,0,0,1,6.03217-1.95894h23.54587V416.032H680.4446c-5.91387,0-10.89875,1.65374-14.431,4.82242-3.62687,3.2641-5.51167,7.92249-5.42256,13.45783V477.192h11.42476V451.48605h32.59058V441.596H672.01581Z"/><path class="cls-1" d="M1079.89719,415.45314,1051.98788,477.192H1064.258l8.398-18.38356H1095.84l8.17564,18.38356h12.18183l-27.38961-61.73882Zm-2.66238,33.3997.19952-.43059c2.2176-4.87447,4.43757-9.73395,6.61732-14.60054l.30441-.638,7.03293,15.66912Z"/><path class="cls-1" d="M1139.51067,462.8217V415.72758h-11.491V462.8217c0,15.12733,14.13289,15.12733,18.78418,15.12733h23.56085v-9.91218h-23.56085C1140.66048,468.03685,1139.51067,466.21277,1139.51067,462.8217Z"/><path class="cls-1" d="M547.78978,417.998c0,6.91385-.015,14.39944-.082,23.47963q0,7.902-.03,15.83158v.92821L514.6795,415.52727h-9.45163V477.192h11.5888l-.08991-33.85237c0-2.16556-.02918-4.30193-.02918-6.46828v-.92742l.57885.7421,31.35086,40.506h10.61248V415.77963h-11.45Z"/><polygon class="cls-1" points="574.86 426.96 595.463 426.96 595.463 477.267 606.902 477.267 606.902 426.96 627.956 426.96 627.956 417.078 574.86 417.078 574.86 426.96"/><path class="cls-1" d="M844.403,415.45314,816.47866,477.192h12.30723l8.39882-18.38356h23.161l8.15277,18.38356h12.211l-27.39671-61.73882Zm-2.67106,33.3997.2153-.45346c2.26255-4.96989,4.51091-9.87433,6.6394-14.57767l.28233-.638,7.0558,15.66912Z"/><rect class="cls-1" x="720.49396" y="416.53671" width="11.46892" height="60.65525"/><path class="cls-1" d="M1007.78643,467.65831c-3.56852.22318-7.57471.49052-11.67.49052-9.73316,0-15.30478-1.51415-17.03343-4.645-2.026-3.828-3.1608-9.44295-3.1608-15.80871a40.66439,40.66439,0,0,1,2.701-15.23064c1.97313-4.16235,7.52976-6.15835,17.09968-6.15835,3.6876,0,7.88622.2011,12.50123.57885l3.33824.34147-.03628-10.02259-2.27833-.19321c-5.11894-.37775-9.42245-.54888-13.52486-.54888-9.5991,0-22.91655,1.24681-27.77525,12.293-2.3217,4.99276-3.59769,11.6992-3.59769,18.94032,0,6.93672,1.73575,14.80007,4.39972,19.99314,3.76093,7.07788,12.4547,10.34908,27.36674,10.34908,3.92418,0,8.10151-.23659,11.83248-.47475l3.64343-.18533-.04337-10.00839Z"/><path class="cls-1" d="M936.15356,417.998c0,7.84127-.01419,15.74956-.03627,23.62789l-.03,3.50937q-.01065,6.25416-.0071,12.47126v.9495l-33.02116-43.02877H893.6303V477.192h11.558V475.0406c0-7.61178-.03-15.26772-.045-22.94652-.0142-5.08188-.03707-10.1259-.03707-15.22277v-.92742l31.89422,41.226h10.63772V415.77963h-11.4847Z"/><path class="cls-1" d="M792.11105,417.998c0,3.21916-.03707,6.46118-.03707,9.6961l-.07413,30.86192-32.99041-43.02877h-9.45162V477.192h11.57223V475.0406q0-9.99342-.04416-20.05307l-.02209-6.66937c0-3.828-.02287-7.63386-.02287-11.44685v-.92742l31.89423,41.226h10.63061V415.77963H792.11105Z"/><rect class="cls-1" x="1027.85132" y="416.53671" width="11.49179" height="60.61819"/><polygon class="cls-1" points="764.001 260.073 757.9 216.215 742.433 216.215 748.558 260.073 764.001 260.073"/><path class="cls-1" d="M580.32909,234.66165l-2.0378,56.66877H535.1876c-2.87689,0-4.6229-1.05045-4.32716-3.56536l4.38552-43.8726H520.40962l-4.43126,45.21089c-.53232,5.66624,1.41242,9.67481,4.42338,12.41921,3.18761,2.92184,6.79,4.05273,12.92235,4.05273H585.1247c2.87768,0,4.35634,1.21369,4.35634,3.59532V332.5769H513.29547l2.895,14.28982h73.33628v27.57416c0,2.78068-1.25864,4.171-3.7286,4.171H524.51125l3.033,14.28982h59.65923c5.99036,0,10.08883-1.32331,12.92156-4.23726,3.033-3.04014,4.20808-6.53847,4.20808-12.41133V307.79447c0-5.74748-1.39112-9.69689-4.4076-12.41133a13.82681,13.82681,0,0,0-6.78294-3.43129l2.0378-58.64427c0-5.753-1.38324-9.7032-4.37842-12.44681-3.1955-2.90765-6.8271-4.03932-12.94365-4.03932H510.33577v14.29061h65.66615C578.87093,231.11206,580.32909,232.28,580.32909,234.66165Z"/><path class="cls-1" d="M1135.70163,365.92692c6.32475,8.648,13.49489,17.7566,21.61848,26.97638l19.61854-.00158s-15.30478-17.2787-31.97939-40.614c9.659-14.55244,23.02223-35.74743,26.26268-46.2424,2.33747-7.56683-1.75153-17.10126-12.53672-17.10126h-62.75141v-54.0537q0-3.60558,4.34925-3.60952h46.64539c2.89976,0,4.4013,1.2058,4.4013,3.60952v22.15238c0,2.76727-1.24287,4.17969-3.74911,4.17969h-29.11276V275.513h30.53228c5.98406,0,10.06754-1.332,12.93655-4.22385,3.01805-3.06222,4.18679-6.55345,4.18679-12.43341V233.52919c0-5.74748-1.39113-9.719-4.38632-12.43341-3.18051-2.90686-6.81921-4.06771-12.95153-4.06771h-50.38109c-6.10945,0-9.74973,1.16085-12.94364,4.06771-2.92894,2.67737-4.30509,6.53846-4.35635,12.07853a.274.274,0,0,0-.03785.11119V392.90172h14.86709V302.22838h55.66643c1.96761,0,3.27278,1.86272,2.47075,4.18679-2.63951,7.64647-11.19685,21.66659-18.26526,32.59609a331.40357,331.40357,0,0,1-17.14621-28.59384l-16.58708-.00079c.40614,1.10329,8.56838,18.76841,24.49222,42.4862-.67506.98578-1.06069,1.541-1.06069,1.541-11.52413,16.54607-22.43234,32.71123-27.37385,38.45792h18.49949c7.0487-8.42406,12.49176-17.91039,17.92773-25.336C1134.55734,367.56567,1134.97847,366.9679,1135.70163,365.92692Z"/><polygon class="cls-1" points="820.067 392.902 982.404 392.902 982.404 378.628 951.424 378.628 955.752 344.588 939.686 344.588 935.356 378.628 908.61 378.628 908.61 326.348 971.865 326.348 971.865 312.081 908.61 312.081 908.61 280.469 952.967 280.469 952.967 266.163 848.878 266.163 848.878 280.469 893.248 280.469 893.248 312.081 829.971 312.081 829.971 326.348 893.248 326.348 893.248 378.628 866.226 378.628 861.896 344.588 845.829 344.588 850.159 378.628 820.067 378.628 820.067 392.902"/><path class="cls-1" d="M865.20049,236.23022c2.49993-3.81614,4.80034-4.81612,12.02648-4.81612H924.6318c7.20406,0,9.51866,1,12.02648,4.81612,7.0558,10.74654,22.0404,34.48957,28.71213,44.23851h20.43713c-7.12993-10.54781-25.88019-40.17869-33.05507-50.62241-5.902-8.57941-13.099-12.67709-23.26986-12.67709h-4.52274l-3.57719-7.98952c9.82228-3.37136,16.1005-11.15821,14.252-18.03814-1.98654-7.39254-12.50044-10.95-23.478-7.98716-8.11886,2.19394-14.21648,7.33576-16.07132,12.83876a8.93361,8.93361,0,0,0-7.70405-4.83031,13.32837,13.32837,0,0,0,.63642-4.175A13.816,13.816,0,0,0,877.78374,173.672l-.24763-10.9989a2.96491,2.96491,0,0,0-3.01174-2.89976h-.1459a2.97521,2.97521,0,0,0-2.90686,3.03855l.25,11.10932a13.71027,13.71027,0,0,0-4.69308,2.24836l-7.081-8.00767a2.94166,2.94166,0,0,0-2.27675-1.03151,3.07747,3.07747,0,0,0-1.93133.7342l-.09069.09621a3.02725,3.02725,0,0,0-1.00313,2.04963,3.094,3.094,0,0,0,.73342,2.16635l7.66934,8.67247a13.71009,13.71009,0,0,0,12.44445,20.19738,13.01174,13.01174,0,0,0,3.55117-.582,9.11148,9.11148,0,0,0,2.82326,6.33342l-5.34212,10.37116h-4.1655c-10.16928,0-17.37412,4.09768-23.26118,12.67709-7.197,10.44372-25.93225,40.0746-33.07006,50.62241h20.45921C843.14354,270.71979,858.12183,246.97676,865.20049,236.23022Zm50.16028-25.63257,2.93209,6.57158h-7.46351l-.81859-6.37758A26.92294,26.92294,0,0,0,915.36077,210.59765Zm-11.62744-1.093.97079,7.66461h-7.08024l1.09066-10.66216A14.13524,14.13524,0,0,0,903.73333,209.50462Zm-16.27951-.32491a4.81237,4.81237,0,0,0,.83672.09621,9.42717,9.42717,0,0,0,4.17418-1.15691l-.94477,9.05022h-8.163Z"/><path class="cls-1" d="M517.57847,392.90172l-7.51-39.33408H495.046l3.30432,17.30551-23.80612,1.34618V333.66362H486.659c6.13232,0,9.756-1.13956,12.95232-4.04563,2.97941-2.76648,4.37054-6.708,4.37054-12.4334V251.06734c0-5.72539-1.39113-9.67481-4.37054-12.4405-3.19628-2.90765-6.82-4.04642-12.95232-4.04642H474.54418V216.215H459.67709v18.36542H447.55361c-6.10945,0-9.74815,1.13877-12.93576,4.04642-2.996,2.74361-4.37921,6.69382-4.37921,12.4405v66.11725c0,5.73958,1.38324,9.6961,4.37921,12.4334,3.18761,2.90607,6.82631,4.04563,12.93576,4.04563h12.12348v39.37982l.026.015-32.9486,1.86194v14.3048l74.2984-4.20019,1.5039,7.87675ZM474.54418,248.83318h10.24341c2.89976,0,4.34136,1.2129,4.34136,3.58744v63.39571c0,2.37375-1.4416,3.60952-4.34136,3.60952H474.54418Zm-14.86709,70.59267H449.44c-2.899,0-4.34924-1.23577-4.34924-3.60952V252.42062c0-2.37454,1.45027-3.58744,4.34924-3.58744h10.2371Z"/><path class="cls-1" d="M1056.259,374.44088c0,2.78068-1.25,4.171-3.7286,4.171H1034.0696v14.28982h19.87485c5.96828,0,10.08094-1.32331,12.92945-4.23726,3.01647-3.04014,4.1931-6.53847,4.1931-12.41133v-143.537c0-5.74669-1.41242-9.719-4.4013-12.43262-3.16553-2.90765-6.81211-4.0685-12.92078-4.0685h-29.72078c-6.12285,0-9.74736,1.16085-12.94207,4.0685-2.98887,2.74361-4.38,6.68593-4.38,12.43262V354.581c0,28.04733-5.03535,37.29312-5.60631,38.3207h14.26853c.59935,0,6.19778-3.28382,6.19778-38.3207V335.11311h34.697Zm-34.697-140.3636c0-2.40372,1.45737-3.60952,4.34215-3.60952h25.96931c2.884,0,4.38552,1.2058,4.38552,3.60952v31.47941h-34.697Zm0,86.97549V279.62491h34.697v41.42786Z"/><path class="cls-1" d="M723.92131,392.90172s11.70551-17.37018,29.802-44.07291c18.0965,26.70273,29.802,44.07291,29.802,44.07291h17.22192s-18.66273-28.59148-37.82544-57.93293a245.66842,245.66842,0,0,0,18.51368-34.56449c14.94516-34.67569,16.44906-76.31018,16.44906-78.08064l-15.18727-.00394c0,.39747-1.53071,40.03437-15.09737,71.51378A221.51347,221.51347,0,0,1,753.72331,320.582a221.39808,221.39808,0,0,1-13.87579-26.74847c-13.56745-31.47941-15.09816-71.11631-15.09816-71.51378l-15.18649.00394c0,1.77046,1.5039,43.405,16.44828,78.08064a245.87816,245.87816,0,0,0,18.51447,34.56449c-19.16271,29.34145-37.82623,57.93293-37.82623,57.93293Z"/><path class="cls-1" d="M683.55729,353.56764l3.42577,17.94193-13.12187.735v-38.581h12.13767c6.10866,0,9.74027-1.13956,12.93576-4.04563,2.9802-2.76648,4.3871-6.708,4.3871-12.4334V251.06734c0-5.72539-1.4069-9.67481-4.3871-12.4405-3.19549-2.90765-6.8271-4.04642-12.93576-4.04642H673.86119V216.215h-14.86v18.36542H646.87061c-6.11733,0-9.74105,1.13877-12.94285,4.04642-2.9668,2.74361-4.38711,6.69382-4.38711,12.4405v66.11725c0,5.73958,1.42031,9.6961,4.38711,12.4334,3.2018,2.90607,6.82552,4.04563,12.94285,4.04563h12.13058v39.41294l-32.9147,1.8438v14.3048l63.59918-3.563,1.38245,7.23955H706.089l-7.51-39.33408Zm-9.6961-104.73446h10.26627c2.88478,0,4.33427,1.2129,4.33427,3.58744v63.39571c0,2.37375-1.44949,3.60952-4.33427,3.60952H673.86119Zm-25.12,70.59267c-2.884,0-4.34846-1.23577-4.34846-3.60952V252.42062c0-2.37454,1.46447-3.58744,4.34846-3.58744h10.26v70.59267Z"/></svg>