<svg xmlns="http://www.w3.org/2000/svg" role="img" viewBox="-0.40 -7.90 618.80 181.30"><title>Apache SystemML logo</title><defs><style>.cls-1{isolation:isolate}</style></defs><g id="Logos"><path d="M11.92 4.18v142.6h152.8V4.18zm129.4 103.8v10.6H35.42v-26.3h10.6v15.7h84.7v-15.7h10.6z"/><path d="M221.422 4.708h12.542l18.769 53.05h-12.02l-3.501-10.906h-19.536l-3.596 10.905h-11.595zm-.73 33.003h13.586l-6.702-20.874zm70.951-14.971q4.8 5.074 4.8 14.9 0 10.364-4.692 15.799a15.226 15.226 0 0 1-12.08 5.434 12.665 12.665 0 0 1-7.824-2.34 15.093 15.093 0 0 1-3.332-3.779v20.443h-10.15V18.529h9.825v5.794a16.496 16.496 0 0 1 3.55-4.03 13.099 13.099 0 0 1 8.186-2.628 15.514 15.514 0 0 1 11.717 5.075zm-7.872 7.378q-2.092-3.491-6.781-3.492a7.712 7.712 0 0 0-7.744 5.29 19.864 19.864 0 0 0-1.091 7.126q0 6.84 3.669 9.61a8.42 8.42 0 0 0 5.164 1.62 7.507 7.507 0 0 0 6.6-3.312 15.32 15.32 0 0 0 2.273-8.817 15.316 15.316 0 0 0-2.09-8.025zm35.443 3.778a16.23 16.23 0 0 0 4.097-.9 3.087 3.087 0 0 0 2.211-2.914 3.447 3.447 0 0 0-1.697-3.33 10.713 10.713 0 0 0-4.98-.918q-3.683 0-5.216 1.8a7.423 7.423 0 0 0-1.46 3.599h-9.897a15.008 15.008 0 0 1 2.892-8.457q4.085-5.183 14.025-5.183a25.016 25.016 0 0 1 11.495 2.555q5.023 2.556 5.023 9.646v17.995q0 1.87.072 4.534a5.705 5.705 0 0 0 .612 2.735 3.67 3.67 0 0 0 1.511 1.188v1.511h-11.156a11.393 11.393 0 0 1-.648-2.231q-.18-1.043-.287-2.375a21.196 21.196 0 0 1-4.924 3.923 14.877 14.877 0 0 1-7.53 1.907 12.992 12.992 0 0 1-8.85-3.041q-3.494-3.041-3.494-8.62 0-7.234 5.62-10.473a25.098 25.098 0 0 1 9.064-2.518zm6.271 4.787a11.318 11.318 0 0 1-1.988.99 16.797 16.797 0 0 1-2.754.702l-2.335.431a15.351 15.351 0 0 0-4.715 1.403 4.686 4.686 0 0 0-2.423 4.356 4.551 4.551 0 0 0 1.48 3.797 5.627 5.627 0 0 0 3.6 1.169 10.718 10.718 0 0 0 6.194-1.944q2.833-1.942 2.941-7.09zm42.649-6.082a9.097 9.097 0 0 0-1.479-3.959 6.21 6.21 0 0 0-5.376-2.376q-5.196 0-7.107 5.147a21.36 21.36 0 0 0-1.01 7.252 19.638 19.638 0 0 0 1.01 6.928 6.86 6.86 0 0 0 6.927 4.895q3.608 0 5.123-1.944a9.66 9.66 0 0 0 1.84-5.039h10.473a17.158 17.158 0 0 1-3.387 8.854q-4.828 6.73-14.301 6.73-9.475 0-13.943-5.615-4.466-5.613-4.467-14.559 0-10.092 4.935-15.708 4.937-5.614 13.618-5.614 7.386 0 12.087 3.31 4.7 3.313 5.565 11.698zm45.72-13.855a11.513 11.513 0 0 1 4.855 3.854 10.278 10.278 0 0 1 1.97 4.522 55.83 55.83 0 0 1 .36 7.582v23.053h-10.474V33.87a10.587 10.587 0 0 0-1.07-5.117q-1.395-2.737-5.288-2.739a7.255 7.255 0 0 0-6.128 2.72q-2.089 2.721-2.089 7.766v21.257h-10.258V4.89h10.258v18.714a12.54 12.54 0 0 1 5.142-4.769 14.485 14.485 0 0 1 6.145-1.35 16.612 16.612 0 0 1 6.577 1.262zm42.392.578a15.956 15.956 0 0 1 6.78 5.802 19.295 19.295 0 0 1 3.125 8.11 50.32 50.32 0 0 1 .338 7.786h-28.571q.239 5.903 4.102 8.277a10.419 10.419 0 0 0 5.656 1.476 7.962 7.962 0 0 0 7.805-4.498h10.472q-.413 3.49-3.802 7.09-5.272 5.721-14.758 5.722a21.382 21.382 0 0 1-13.818-4.827q-5.987-4.826-5.986-15.705 0-10.194 5.404-15.633 5.403-5.439 14.028-5.44a22.33 22.33 0 0 1 9.225 1.84zm-15.344 8.86a10.651 10.651 0 0 0-2.732 6.072h17.67a8.562 8.562 0 0 0-2.732-6.199 8.993 8.993 0 0 0-6.084-2.114 8.133 8.133 0 0 0-6.122 2.241z" class=""/><path d="M214.242 129.793a10.763 10.763 0 0 0 2.021 5.435q2.756 3.275 9.444 3.274a20.338 20.338 0 0 0 6.504-.863q4.74-1.656 4.74-6.155a4.537 4.537 0 0 0-2.321-4.067 25.206 25.206 0 0 0-7.366-2.482l-5.743-1.26q-8.467-1.872-11.633-4.068-5.364-3.67-5.363-11.48a15.248 15.248 0 0 1 5.246-11.84q5.247-4.715 15.412-4.715a23.633 23.633 0 0 1 14.482 4.445q5.992 4.445 6.284 12.902h-10.653a7.594 7.594 0 0 0-4.28-6.802 14.66 14.66 0 0 0-6.604-1.332 12.574 12.574 0 0 0-7.01 1.728 5.465 5.465 0 0 0-2.62 4.822 4.55 4.55 0 0 0 2.583 4.247 32.098 32.098 0 0 0 7.048 2.195l9.31 2.196q6.12 1.44 9.174 3.85 4.743 3.744 4.744 10.833a15.224 15.224 0 0 1-5.621 12.075q-5.62 4.804-15.878 4.804-10.476 0-16.479-4.732-6.002-4.732-6.002-13.01zm41.892 23.897l1.296.072a16.16 16.16 0 0 0 2.879-.109 5.178 5.178 0 0 0 2.303-.827 5.544 5.544 0 0 0 1.674-2.555 6.177 6.177 0 0 0 .666-2.375l-14.414-40.957h11.408l8.566 28.936 8.097-28.936h10.905l-13.449 38.582q-3.898 11.156-6.168 13.837-2.27 2.681-9.08 2.681-1.369 0-2.197-.018-.829-.019-2.486-.126zm47.398-20.046a6.829 6.829 0 0 0 1.41 3.886q1.917 2.053 7.088 2.052a10.853 10.853 0 0 0 4.828-.9 3.014 3.014 0 0 0 .348-5.327q-1.441-.899-10.73-3.094-6.687-1.656-9.422-4.139-2.735-2.448-2.735-7.055a12.223 12.223 0 0 1 4.274-9.338q4.273-3.904 12.028-3.906 7.358 0 11.992 2.934 4.635 2.934 5.32 10.13h-10.256a6.06 6.06 0 0 0-1.12-3.13q-1.696-2.088-5.774-2.088-3.356 0-4.782 1.044a3.003 3.003 0 0 0-1.425 2.447 2.677 2.677 0 0 0 1.516 2.556q1.515.827 10.71 2.843 6.129 1.44 9.188 4.354a9.886 9.886 0 0 1 3.023 7.378 11.91 11.91 0 0 1-4.346 9.52q-4.345 3.688-13.433 3.689-9.268 0-13.685-3.905a12.692 12.692 0 0 1-4.418-9.951zm29.008-19.039V107.3h5.47V96.36h10.15v10.94h6.37v7.306h-6.37v20.73q0 2.411.611 3.005.611.595 3.744.594c.311 0 .641-.005.989-.018q.521-.018 1.026-.054v7.666l-4.86.18q-7.27.25-9.932-2.52-1.727-1.762-1.727-5.434v-24.149zm54.139-6.871a15.962 15.962 0 0 1 6.779 5.803 19.28 19.28 0 0 1 3.125 8.11 50.073 50.073 0 0 1 .338 7.786H368.35q.238 5.903 4.102 8.277a10.413 10.413 0 0 0 5.655 1.476 7.966 7.966 0 0 0 7.807-4.499h10.472q-.415 3.491-3.803 7.09-5.27 5.722-14.759 5.723a21.384 21.384 0 0 1-13.817-4.827q-5.987-4.827-5.986-15.705 0-10.194 5.404-15.633 5.404-5.439 14.028-5.44a22.33 22.33 0 0 1 9.226 1.84zm-15.345 8.86a10.658 10.658 0 0 0-2.732 6.073h17.67a8.558 8.558 0 0 0-2.732-6.2 8.99 8.99 0 0 0-6.083-2.113 8.135 8.135 0 0 0-6.123 2.24zm79.72-9.511a11.415 11.415 0 0 1 4.571 3.527 11.277 11.277 0 0 1 2.23 5.038 34.799 34.799 0 0 1 .36 5.795l-.071 24.725h-10.51v-24.977a8.204 8.204 0 0 0-.719-3.67q-1.368-2.735-5.038-2.736a5.894 5.894 0 0 0-5.866 3.528 11.057 11.057 0 0 0-.828 4.498v23.357h-10.33v-23.357a13.124 13.124 0 0 0-.72-5.075q-1.296-2.843-5.073-2.843-4.392 0-5.903 2.843a10.94 10.94 0 0 0-.828 4.823v23.609h-10.401v-39.156h9.97v5.721a16.511 16.511 0 0 1 3.598-4.354 14.24 14.24 0 0 1 15.008-.324 11.518 11.518 0 0 1 3.383 4.715 13.038 13.038 0 0 1 5.003-5.075 15.258 15.258 0 0 1 7.053-1.62 13.672 13.672 0 0 1 5.11 1.008zm52.609-13.963h15.95v53.048h-10.328v-35.882q0-1.547.035-4.337.037-2.787.036-4.3l-10.052 44.519H488.53l-9.98-44.52q0 1.512.036 4.301.035 2.79.035 4.337v35.882h-10.328V93.119h16.13l9.656 41.712zm26.208 0h11.085v43.51h26.488v9.538h-37.573z" class=""/><path d="M573.41 94.576V90.86h13.671v3.716h-4.612v11.774h-4.509V94.576zm21.479-3.716l2.817 8.913 2.776-8.913h6.43v15.49H602.8V95.138l-3.362 11.212h-3.506l-3.36-11.184v11.184h-4.113V90.86z" class=""/></g></svg>