<svg xmlns="http://www.w3.org/2000/svg" role="img" xmlns:xlink="http://www.w3.org/1999/xlink" viewBox="-12.22 -11.72 609.44 163.94"><title>Apache Oozie logo</title><defs><linearGradient id="a"><stop offset="0" stop-color="#96c1f6"/><stop offset="1" stop-color="#4e93d6"/></linearGradient><linearGradient id="b" x1="246.957" x2="246.957" y1="233.39" y2="369.697" gradientTransform="translate(-2.673 51.85)" gradientUnits="userSpaceOnUse" xlink:href="#a"/></defs><g><path fill="url(#b)" stroke="#136cc3" stroke-linecap="round" stroke-linejoin="bevel" stroke-opacity=".788" stroke-width="3" d="m 154.5274,282.67657 c -1.9607,0 -3.92156,0.75121 -5.42395,2.25361 l -61.315119,61.31511 c -0.366625,0.36663 -0.687639,0.76109 -0.964798,1.17564 h -6.379456 v -39.10769 c 0,-4.24942 -3.420909,-7.67085 -7.670331,-7.67085 h -86.712537 c -4.249423,0 -7.670849,3.42143 -7.670849,7.67085 v 39.10769 h -10.583333 v -39.10769 c 0,-4.24942 -3.420909,-7.67085 -7.670334,-7.67085 h -86.712543 c -4.24942,0 -7.67033,3.42143 -7.67033,7.67085 v 86.71254 c 0,4.24943 3.42091,7.67033 7.67033,7.67033 h 86.712543 c 4.249425,0 7.670334,-3.4209 7.670334,-7.67033 v -38.01112 h 10.583333 v 38.01112 c 0,4.24943 3.421426,7.67033 7.670849,7.67033 h 86.712537 c 4.249422,0 7.670331,-3.4209 7.670331,-7.67033 v -38.01112 h 7.269324 c 0.02531,0.026 0.04918,0.0528 0.07493,0.0786 l 61.315119,61.31512 c 3.0048,3.00479 7.84312,3.0048 10.84791,0 l 29.48141,-29.4814 h 44.46963 v 6.09885 c 0,4.24942 3.42091,7.67033 7.67034,7.67033 h 86.71305 c 4.24942,0 7.67032,-3.42091 7.67032,-7.67033 v -38.17131 h 10.58333 v 38.17131 c 0,4.24943 3.42093,7.67033 7.67035,7.67033 h 86.71253 c 4.24942,0 7.67033,-3.4209 7.67033,-7.67033 v -86.71254 c 0,-4.24942 -3.42091,-7.67085 -7.67033,-7.67085 h -86.71253 c -4.24942,0 -7.67035,3.42143 -7.67035,7.67085 v 38.94749 h -10.58333 v -38.94749 c 0,-4.24942 -3.4209,-7.67085 -7.67032,-7.67085 h -86.71305 c -4.24943,0 -7.67034,3.42143 -7.67034,7.67085 v 6.3407 h -44.22727 l -29.72377,-29.72376 c -1.5024,-1.50241 -3.46325,-2.25361 -5.42396,-2.25361 z m 44.74146,41.5711 h 34.63354 v 23.01306 h -11.78274 c -0.2512,-0.3558 -0.53429,-0.69655 -0.85318,-1.01544 z m 22.225,32.6068 h 12.40854 v 22.47873 h -34.8759 l 22.23998,-22.23999 c 0.0782,-0.0782 0.15324,-0.15812 0.22738,-0.23874 z" transform="translate(135.746 -281.177)"/><g stroke="#136cc3" stroke-linecap="round" stroke-linejoin="bevel" stroke-width="3" transform="translate(136.013 -282.78)"><circle cx="-83.158" cy="352.694" r="29.4" fill="#fff001" stroke-opacity=".788"/><circle cx="-83.158" cy="352.694" r="3.213" fill="#5397d8"/></g><g stroke-linecap="round" stroke-linejoin="bevel" stroke-width="3" transform="translate(136.013 -283.213)"><circle cx="28.598" cy="353.127" r="29.4" fill="#fff001" stroke="#136cc3" stroke-opacity=".788"/><circle cx="28.598" cy="353.127" r="3.213" fill="#5397d8" stroke="#136cc3"/><circle cx="283.338" cy="327.017" r="12.204" fill="#fff001" stroke="#136cc3" stroke-opacity=".788" stroke-width="2.5"/><path fill="#fff001" stroke="#2a7bcc" stroke-width="2.697" d="M270.087 343.665H296.589V383.41700000000003H270.087z"/></g><path fill="#fff001" fill-rule="evenodd" stroke="#2a7bcc" stroke-width="3" d="m 183.57181,381.22974 h -60.20212 l 20.06738,-40.13473 h -20.06738 v -20.06736 h 60.20212 l -25.08421,45.15156 h 25.08421 z" transform="translate(135.746 -281.177)"/><path fill="#fff001" fill-rule="evenodd" stroke="#2a7bcc" stroke-width="2.5" d="m 375.44609,382.05421 h 50.27083 v -15.875 h -23.8125 v -7.9375 h 15.875 v -15.875 h -15.875 v -7.9375 h 23.8125 v -13.22917 h -50.27083 z" transform="translate(135.746 -281.177)"/></g></svg>