<svg xmlns="http://www.w3.org/2000/svg" role="img" xmlns:xlink="http://www.w3.org/1999/xlink" viewBox="-3.48 -3.48 181.09 30.59"><title>Apache Ranger logo</title><defs><linearGradient id="a"><stop offset="0" stop-color="#5890c5"/><stop offset=".159" stop-color="#004f9f"/><stop offset="1" stop-color="#accffc"/></linearGradient><linearGradient id="b" x1="-180.674" x2="-181.209" y1="85.991" y2="104.833" gradientUnits="userSpaceOnUse" xlink:href="#a"/></defs><path d="M-267.98 98.187h-6.151l-.732 1.695q-.36.848-.36 1.4 0 .732.591 1.079.347.205 1.708.308v.475h-5.792v-.475q.938-.141 1.541-.77.604-.643 1.49-2.633l6.229-13.896h.244l6.28 14.281q.9 2.03 1.477 2.556.437.398 1.233.462v.475h-8.425v-.475h.347q1.014 0 1.425-.282.283-.206.283-.591 0-.231-.077-.475-.026-.116-.386-.964zm-.436-.95l-2.594-5.998-2.671 5.998zm14.038 4.687v4.47q0 .924.14 1.258.155.334.463.488.309.154 1.208.154v.476h-6.846v-.476q.796-.025 1.182-.45.257-.294.257-1.527V93.64q0-1.271-.296-1.618-.295-.36-1.143-.41v-.476h5.035v1.58q.629-.925 1.284-1.336.938-.604 2.042-.604 1.323 0 2.402.835 1.091.835 1.656 2.312.566 1.464.566 3.16 0 1.823-.591 3.339-.578 1.502-1.696 2.299-1.104.783-2.465.783-.99 0-1.85-.437-.642-.334-1.348-1.143zm0-1.297q1.104 1.567 2.363 1.567.693 0 1.143-.732.668-1.079.668-4.11 0-3.108-.732-4.25-.488-.759-1.31-.759-1.298 0-2.132 1.875zm16.618.745q-2.196 1.94-3.942 1.94-1.028 0-1.708-.669-.681-.68-.681-1.695 0-1.374 1.182-2.466 1.181-1.104 5.15-2.928v-1.207q0-1.362-.155-1.708-.14-.36-.552-.617-.41-.27-.924-.27-.835 0-1.375.373-.334.231-.334.54 0 .27.36.667.488.553.488 1.066 0 .63-.475 1.079-.462.437-1.22.437-.81 0-1.362-.488-.539-.488-.539-1.143 0-.925.732-1.76.732-.848 2.042-1.297 1.31-.45 2.723-.45 1.708 0 2.697.733 1.002.719 1.297 1.566.18.54.18 2.48v4.661q0 .822.064 1.04.064.206.193.309.128.102.295.102.334 0 .68-.475l.386.308q-.642.95-1.336 1.388-.68.423-1.554.423-1.027 0-1.605-.475-.578-.488-.706-1.464zm0-.938v-4.02q-1.553.912-2.311 1.953-.501.693-.501 1.4 0 .59.424 1.04.32.347.899.347.642 0 1.49-.72zm16.324-.384l.398.307q-.847 1.593-2.119 2.376-1.258.771-2.684.771-2.402 0-3.84-1.81-1.439-1.812-1.439-4.355 0-2.453 1.31-4.315 1.58-2.248 4.354-2.248 1.863 0 2.954.938 1.105.938 1.105 2.093 0 .732-.45 1.17-.436.436-1.156.436-.757 0-1.258-.501-.488-.5-.604-1.785-.077-.81-.372-1.13-.296-.322-.694-.322-.616 0-1.053.655-.668.99-.668 3.031 0 1.696.54 3.25.539 1.54 1.476 2.299.707.552 1.67.552.63 0 1.194-.295.566-.296 1.336-1.118zm6.768-14.32v6.947q.99-1.04 1.811-1.464.822-.437 1.708-.437 1.13 0 1.927.643.81.642 1.066 1.515.27.86.27 2.915v4.688q0 1.374.256 1.721.257.334 1.04.424v.462h-6.087v-.462q.642-.09.963-.514.232-.334.232-1.63v-5.356q0-1.49-.116-1.863-.116-.385-.398-.59-.27-.219-.617-.219-.513 0-1.001.36-.488.347-1.054 1.233v6.434q0 1.285.193 1.606.244.436 1.002.539v.462h-6.088v-.462q.758-.077 1.08-.488.217-.283.217-1.657v-12.2q0-1.362-.256-1.696-.244-.334-1.04-.437v-.475zm19.908 10.98h-6.59q.116 2.389 1.272 3.776.886 1.066 2.132 1.066.77 0 1.4-.424.63-.437 1.349-1.554l.436.283q-.976 1.99-2.157 2.825-1.182.822-2.736.822-2.671 0-4.046-2.055-1.104-1.657-1.104-4.11 0-3.005 1.618-4.777 1.631-1.786 3.815-1.786 1.823 0 3.159 1.503 1.348 1.49 1.451 4.431zm-3.16-.86q0-2.068-.231-2.839-.219-.77-.694-1.169-.27-.23-.72-.23-.667 0-1.09.654-.758 1.143-.758 3.134v.45zm17.325-.643v4.88q0 1.413.167 1.786.18.36.617.578.436.218 1.63.218v.475h-8.912v-.475q1.207 0 1.63-.218.437-.231.604-.59.18-.36.18-1.773V88.786q0-1.413-.18-1.773-.167-.372-.603-.59-.437-.219-1.631-.219v-.475h8.09q3.16 0 4.624.437 1.464.436 2.389 1.618.925 1.169.925 2.748 0 1.927-1.387 3.186-.887.796-2.479 1.194l4.187 5.895q.822 1.143 1.169 1.425.526.399 1.22.437v.475h-5.484l-5.613-7.937zm0-8.54v7.628h.732q1.785 0 2.672-.32.886-.335 1.387-1.182.513-.86.513-2.235 0-1.99-.937-2.94-.925-.951-2.993-.951zm19.535 14.705q-2.197 1.94-3.943 1.94-1.028 0-1.708-.669-.681-.68-.681-1.695 0-1.374 1.181-2.466 1.182-1.104 5.15-2.928v-1.207q0-1.362-.154-1.708-.14-.36-.552-.617-.41-.27-.925-.27-.834 0-1.374.373-.334.231-.334.54 0 .27.36.667.488.553.488 1.066 0 .63-.475 1.079-.463.437-1.22.437-.81 0-1.362-.488-.54-.488-.54-1.143 0-.925.733-1.76.732-.848 2.042-1.297 1.31-.45 2.723-.45 1.708 0 2.697.733 1.002.719 1.297 1.566.18.54.18 2.48v4.661q0 .822.064 1.04.064.206.193.309.128.102.295.102.334 0 .68-.475l.386.308q-.642.95-1.336 1.388-.68.423-1.554.423-1.027 0-1.605-.475-.578-.488-.707-1.464zm0-.938v-4.02q-1.555.912-2.312 1.953-.501.693-.501 1.4 0 .59.424 1.04.32.347.899.347.642 0 1.49-.72zm11.43-9.298v1.554q.925-1.002 1.772-1.451.848-.463 1.824-.463 1.169 0 1.94.655.77.643 1.027 1.606.205.732.205 2.812v4.675q0 1.387.244 1.734.257.334 1.053.424v.462h-6.074v-.462q.68-.09.976-.565.205-.321.205-1.593v-5.342q0-1.477-.116-1.863-.115-.385-.398-.59-.27-.219-.603-.219-1.105 0-2.055 1.58v6.434q0 1.349.244 1.709.257.36.937.449v.462h-6.074v-.462q.757-.077 1.078-.488.219-.283.219-1.67v-6.78q0-1.362-.257-1.696-.244-.334-1.04-.437v-.475zm17.44.141h4.046v1.413h-2.299q.63.63.874 1.143.308.694.308 1.451 0 1.285-.72 2.235-.706.938-1.939 1.477-1.22.527-2.17.527-.077 0-1.541-.065-.578 0-.976.386-.386.372-.386.899 0 .462.347.757.36.296 1.156.296l2.222-.026q2.697 0 3.712.59 1.45.823 1.45 2.531 0 1.092-.667 1.978-.668.899-1.76 1.323-1.656.629-3.814.629-1.618 0-2.954-.321-1.335-.308-1.913-.873-.578-.553-.578-1.17 0-.59.436-1.065.45-.462 1.657-.784-1.67-.821-1.67-2.286 0-.886.681-1.72.68-.835 2.158-1.452-1.721-.63-2.492-1.657-.77-1.027-.77-2.376 0-1.76 1.438-3.043 1.438-1.298 3.699-1.298 1.194 0 2.466.501zm-2.221.296q-.745 0-1.259.757-.513.745-.513 3.109 0 1.913.5 2.632.514.707 1.208.707.77 0 1.284-.707.514-.706.514-2.748 0-2.299-.578-3.134-.411-.616-1.156-.616zm-.758 13.344q-1.31 0-1.734.218-.732.398-.732 1.079 0 .655.758 1.181.758.54 2.851.54 1.785 0 2.8-.475 1.027-.476 1.027-1.336 0-.321-.192-.54-.347-.385-1.053-.526-.694-.141-3.725-.141zm18.597-8.207h-6.589q.116 2.389 1.272 3.776.886 1.066 2.132 1.066.77 0 1.4-.424.63-.437 1.348-1.554l.437.283q-.976 1.99-2.158 2.825-1.181.822-2.735.822-2.672 0-4.046-2.055-1.104-1.657-1.104-4.11 0-3.005 1.618-4.777 1.63-1.786 3.814-1.786 1.824 0 3.16 1.503 1.348 1.49 1.45 4.431zm-3.16-.86q0-2.068-.23-2.839-.219-.77-.694-1.169-.27-.23-.72-.23-.667 0-1.091.654-.758 1.143-.758 3.134v.45zm9.632-4.714v2.723q1.195-1.862 2.094-2.466.9-.617 1.734-.617.72 0 1.143.45.437.437.437 1.246 0 .86-.424 1.335-.411.476-1.002.476-.68 0-1.181-.437t-.591-.488q-.129-.077-.296-.077-.372 0-.706.282-.526.437-.796 1.246-.411 1.246-.411 2.749v2.76l.013.72q0 .732.09.938.154.346.45.513.307.154 1.027.193v.462h-6.486v-.462q.783-.064 1.053-.424.283-.372.283-1.94V93.68q0-1.027-.103-1.31-.129-.36-.373-.527-.244-.167-.86-.23v-.476z" fill="url(#b)" stroke="#000" stroke-width=".2" transform="translate(278.816 -85.27)"/></svg>