<svg xmlns="http://www.w3.org/2000/svg" role="img" viewBox="-8.01 -8.01 468.52 190.02"><title>Apache Airflow logo</title><g clip-path="url(#clip0)"><path fill="#017CEE" d="M4.186 172.44l82.21-84.272c.515-.527.614-1.344.184-1.943-5-6.98-14.224-8.19-17.642-12.88C58.81 59.451 56.24 51.588 51.888 52.076c-.303.034-.574.198-.788.416L21.401 82.937C4.316 100.45 1.866 139.01 1.417 171.298c-.02 1.459 1.75 2.186 2.769 1.142z"/><path fill="#00AD46" d="M172.44 170.357l-84.272-82.21c-.527-.515-1.344-.614-1.943-.185-6.98 5.001-8.19 14.224-12.88 17.643-13.893 10.127-21.756 12.697-21.268 17.049.034.304.198.575.416.788l30.444 29.699c17.513 17.085 56.073 19.535 88.361 19.984 1.459.021 2.186-1.749 1.142-2.768z"/><path fill="#04D659" fill-rule="evenodd" d="M82.936 153.141c-9.566-9.332-14.005-27.795 4.335-65.868-29.806 13.32-40.252 30.83-35.113 35.843l30.778 30.025z" clip-rule="evenodd"/><path fill="#00C7D4" d="M170.355 2.105l-82.21 84.271c-.515.528-.614 1.344-.184 1.944 5 6.98 14.224 8.19 17.642 12.88 10.128 13.892 12.698 21.755 17.049 21.268.304-.034.575-.198.789-.417l29.698-30.443c17.086-17.514 19.536-56.073 19.985-88.362.02-1.459-1.75-2.186-2.769-1.141z"/><path fill="#11E1EE" fill-rule="evenodd" d="M153.14 91.608c-9.333 9.566-27.796 14.005-65.87-4.336 13.321 29.807 30.831 40.253 35.844 35.114l30.026-30.778z" clip-rule="evenodd"/><path fill="#E43921" d="M2.103 4.187l84.272 82.21c.527.515 1.344.614 1.943.185 6.98-5.001 8.19-14.224 12.88-17.643 13.893-10.127 21.756-12.697 21.268-17.049-.034-.304-.198-.575-.416-.788L91.606 21.403C74.093 4.318 35.533 1.868 3.245 1.419c-1.46-.02-2.186 1.75-1.142 2.768z"/><path fill="#FF7557" fill-rule="evenodd" d="M91.606 21.402c9.566 9.333 14.005 27.796-4.335 65.87 29.806-13.32 40.252-30.831 35.113-35.844L91.606 21.403z" clip-rule="evenodd"/><path fill="#0CB6FF" fill-rule="evenodd" d="M21.402 82.937c9.333-9.567 27.796-14.005 65.87 4.335C73.95 57.465 56.44 47.02 51.427 52.158L21.403 82.937z" clip-rule="evenodd"/><circle cx="87.284" cy="87.261" r="3.676" fill="#4A4848" transform="rotate(-.71 87.284 87.26)"/><path fill="#51504F" d="M196.029 57.428a.624.624 0 0 1-.455-.195.624.624 0 0 1-.195-.456c0-.173.011-.292.032-.357l8.066-21.042c.173-.477.52-.716 1.041-.716h2.211c.52 0 .867.239 1.041.716l8.033 21.042.065.357a.624.624 0 0 1-.195.456.624.624 0 0 1-.456.195h-1.658c-.239 0-.423-.054-.553-.163a1.02 1.02 0 0 1-.26-.39l-1.789-4.618H200.29l-1.789 4.618c-.043.13-.141.26-.293.39-.13.108-.303.163-.52.163h-1.659zm13.985-7.968l-4.391-11.545-4.39 11.545h8.781zm9.689 14.147a.753.753 0 0 1-.553-.228.704.704 0 0 1-.195-.52V41.264c0-.217.065-.39.195-.52a.753.753 0 0 1 .553-.228h1.496a.65.65 0 0 1 .52.228.65.65 0 0 1 .228.52v1.431c1.214-1.67 2.992-2.504 5.333-2.504 2.277 0 3.979.716 5.106 2.147 1.149 1.43 1.767 3.273 1.854 5.528.022.239.033.607.033 1.106 0 .499-.011.867-.033 1.106-.087 2.233-.705 4.076-1.854 5.528-1.149 1.431-2.851 2.147-5.106 2.147-2.254 0-4.011-.813-5.268-2.44v7.546c0 .217-.065.39-.195.52a.652.652 0 0 1-.521.228h-1.593zm6.894-8.488c1.54 0 2.656-.477 3.35-1.431.716-.954 1.106-2.212 1.171-3.773.022-.217.033-.531.033-.943 0-4.098-1.518-6.147-4.554-6.147-1.496 0-2.623.5-3.382 1.496-.737.976-1.138 2.147-1.203 3.513l-.033 1.236.033 1.268c.043 1.28.455 2.396 1.236 3.35.78.954 1.897 1.43 3.349 1.43zm16.414 2.634a6.795 6.795 0 0 1-2.959-.65c-.911-.434-1.637-1.02-2.179-1.757a4.336 4.336 0 0 1-.781-2.504c0-1.43.586-2.602 1.757-3.512 1.192-.932 2.796-1.54 4.813-1.822l4.846-.682v-.944c0-2.211-1.269-3.317-3.805-3.317-.954 0-1.735.206-2.342.618-.607.39-1.062.856-1.366 1.399-.065.195-.152.336-.26.422-.087.087-.217.13-.39.13h-1.399a.777.777 0 0 1-.52-.195.777.777 0 0 1-.195-.52c.021-.52.26-1.106.715-1.756.477-.672 1.203-1.247 2.179-1.724.976-.499 2.179-.748 3.61-.748 2.428 0 4.174.575 5.236 1.724 1.062 1.127 1.594 2.537 1.594 4.228V56.68a.752.752 0 0 1-.228.553.704.704 0 0 1-.52.195h-1.496a.82.82 0 0 1-.553-.195.821.821 0 0 1-.195-.553v-1.4c-.477.694-1.171 1.28-2.082 1.757-.91.477-2.07.715-3.48.715zm.683-2.44c1.41 0 2.559-.455 3.448-1.365.91-.932 1.366-2.266 1.366-4v-.91l-3.773.552c-1.539.217-2.699.585-3.48 1.106-.78.498-1.171 1.138-1.171 1.919 0 .867.358 1.539 1.074 2.016.715.455 1.561.683 2.536.683zm19.376 2.44c-2.32 0-4.142-.65-5.464-1.951-1.301-1.323-1.995-3.166-2.082-5.53l-.032-1.3.032-1.3c.087-2.364.781-4.196 2.082-5.497 1.322-1.323 3.144-1.984 5.464-1.984 1.561 0 2.883.282 3.967.846 1.084.563 1.887 1.257 2.407 2.081.542.824.835 1.648.878 2.472a.568.568 0 0 1-.195.52.82.82 0 0 1-.553.195h-1.561c-.217 0-.38-.043-.488-.13-.108-.087-.217-.26-.325-.52-.369-1.04-.889-1.778-1.561-2.212-.672-.455-1.518-.683-2.537-.683-1.344 0-2.417.423-3.22 1.269-.78.824-1.203 2.092-1.268 3.805l-.032 1.17.032 1.106c.065 1.735.488 3.014 1.268 3.838.781.824 1.854 1.236 3.22 1.236 1.019 0 1.865-.217 2.537-.65.672-.456 1.192-1.204 1.561-2.245.108-.26.217-.433.325-.52.108-.108.271-.163.488-.163h1.561c.217 0 .401.076.553.228.152.13.217.303.195.52-.043.803-.336 1.626-.878 2.472-.52.824-1.323 1.518-2.407 2.081-1.062.564-2.385.846-3.967.846zm11.895-.325a.82.82 0 0 1-.553-.195.821.821 0 0 1-.195-.553V35.085c0-.217.065-.39.195-.52a.753.753 0 0 1 .553-.228h1.626a.65.65 0 0 1 .52.228.65.65 0 0 1 .228.52v7.578c.629-.802 1.366-1.41 2.211-1.821.846-.434 1.897-.65 3.155-.65 2.081 0 3.697.671 4.846 2.016 1.171 1.322 1.756 3.089 1.756 5.3v9.172a.752.752 0 0 1-.228.553.702.702 0 0 1-.52.195h-1.626a.82.82 0 0 1-.553-.195.821.821 0 0 1-.195-.553v-9.01c0-1.54-.38-2.732-1.138-3.577-.738-.846-1.811-1.269-3.22-1.269-1.366 0-2.461.434-3.285 1.301-.802.846-1.203 2.028-1.203 3.545v9.009a.752.752 0 0 1-.228.553.702.702 0 0 1-.52.195h-1.626zm25.802.325c-2.233 0-4.022-.683-5.366-2.049-1.323-1.388-2.049-3.274-2.179-5.659l-.033-1.105.033-1.074c.151-2.341.889-4.206 2.211-5.593 1.344-1.388 3.111-2.082 5.301-2.082 2.407 0 4.272.77 5.594 2.31 1.323 1.517 1.984 3.577 1.984 6.178v.553a.752.752 0 0 1-.228.553.702.702 0 0 1-.52.195h-11.253v.293c.065 1.41.488 2.612 1.269 3.61.802.975 1.853 1.463 3.154 1.463.998 0 1.811-.195 2.439-.585.651-.412 1.128-.835 1.431-1.268.196-.26.336-.412.423-.456.109-.065.293-.097.553-.097h1.594c.195 0 .357.054.487.162.131.109.196.26.196.456 0 .477-.304 1.051-.911 1.723-.585.672-1.42 1.258-2.504 1.757-1.063.477-2.288.715-3.675.715zm4.455-10.017v-.097c0-1.496-.412-2.71-1.236-3.643-.802-.954-1.886-1.43-3.252-1.43-1.366 0-2.45.476-3.252 1.43-.78.932-1.171 2.147-1.171 3.643v.097h8.911z"/><path fill="#51504F" d="M195.574 57.233l-.177.176.177-.176zm-.163-.813l-.233-.09-.004.01.237.08zm8.066-21.042l.233.09.002-.005-.235-.085zm4.293 0l-.235.085.001.004.234-.09zm8.033 21.042l.246-.045a.233.233 0 0 0-.013-.045l-.233.09zm.065.357h.25a.333.333 0 0 0-.004-.044l-.246.044zm-.195.456l.176.176-.176-.176zm-2.667.032l-.177.177a.18.18 0 0 0 .017.015l.16-.192zm-.26-.39l.237-.08-.004-.01-.233.09zm-1.789-4.618l.233-.09a.25.25 0 0 0-.233-.16v.25zm-10.667 0v-.25a.25.25 0 0 0-.233.16l.233.09zm-1.789 4.618l-.233-.09-.004.01.237.08zm-.293.39l.16.192.003-.002-.163-.19zm11.806-7.805v.25a.251.251 0 0 0 .234-.339l-.234.089zm-4.391-11.545l.234-.09a.25.25 0 0 0-.467 0l.233.09zm-4.39 11.545l-.234-.089a.25.25 0 0 0 .234.339v-.25zm-5.204 7.718a.374.374 0 0 1-.278-.122l-.354.353a.874.874 0 0 0 .632.269v-.5zm-.278-.122a.376.376 0 0 1-.122-.279h-.5c0 .244.094.459.268.632l.354-.353zm-.122-.279c0-.175.012-.256.02-.278l-.475-.159a1.512 1.512 0 0 0-.045.437h.5zm.016-.268l8.065-21.042-.467-.179-8.065 21.042.467.179zm8.067-21.046a.82.82 0 0 1 .297-.416.878.878 0 0 1 .509-.135v-.5a1.37 1.37 0 0 0-.792.223 1.32 1.32 0 0 0-.484.657l.47.171zm.806-.55h2.211v-.5h-2.211v.5zm2.211 0c.222 0 .386.05.509.134a.826.826 0 0 1 .297.416l.47-.17a1.318 1.318 0 0 0-.484-.658 1.37 1.37 0 0 0-.792-.223v.5zm.807.554l8.033 21.042.467-.179-8.033-21.041-.467.178zm8.021 20.997l.065.358.492-.09-.065-.357-.492.09zm.061.313a.376.376 0 0 1-.122.279l.353.353a.874.874 0 0 0 .269-.632h-.5zm-.122.279a.375.375 0 0 1-.279.122v.5a.872.872 0 0 0 .632-.269l-.353-.353zm-.279.122h-1.658v.5h1.658v-.5zm-1.658 0c-.204 0-.323-.047-.393-.105l-.32.384c.19.159.439.22.713.22v-.5zm-.376-.09a.768.768 0 0 1-.2-.292l-.474.158c.059.177.171.34.32.488l.354-.354zm-.204-.303l-1.789-4.618-.466.18 1.789 4.618.466-.18zm-2.022-4.778H200.29v.5h10.667v-.5zm-10.9.16l-1.789 4.618.466.18 1.789-4.618-.466-.18zm-1.793 4.629c-.024.072-.086.166-.218.28l.325.379a1.17 1.17 0 0 0 .367-.501l-.474-.158zm-.216.277c-.073.062-.185.105-.36.105v.5c.259 0 .494-.066.68-.22l-.32-.385zm-.36.105h-1.659v.5h1.659v-.5zm12.56-7.807l-4.391-11.545-.467.177 4.39 11.546.468-.178zm-4.858-11.545l-4.391 11.545.468.178 4.39-11.546-.467-.177zm-4.157 11.884h8.781v-.5h-8.781v.5zm17.917 13.67l-.177.176.177-.177zm0-22.636l.177.177-.177-.177zm2.569 0l-.19.163.027.027.163-.19zm.228 1.951h-.25a.25.25 0 0 0 .452.147l-.202-.147zm10.439-.357l-.196.154.001.002.195-.156zm1.854 5.528l-.25.01.001.013.249-.023zm0 2.212l-.249-.023-.001.013.25.01zm-1.854 5.528l.195.157.001-.001-.196-.156zm-10.374-.292l.198-.153a.25.25 0 1 0-.448.153h.25zm-.195 8.065l-.177-.176a.122.122 0 0 0-.013.014l.19.162zm8.13-9.691l-.2-.15-.002.003.202.147zm1.171-3.773l-.249-.025-.001.015.25.01zm-7.903-5.594l-.199-.151.199.151zm-1.203 3.513l-.25-.012v.005l.25.007zm-.033 1.236l-.25-.007v.013l.25-.006zm.033 1.268l-.25.006v.002l.25-.008zm1.236 3.35l.193-.159-.193.159zm-3.545 9.669a.503.503 0 0 1-.376-.154l-.354.353c.199.2.447.3.73.3v-.5zm-.376-.154c-.075-.075-.122-.18-.122-.344h-.5c0 .27.083.512.268.697l.354-.353zm-.122-.344V41.264h-.5V62.86h.5zm0-21.595c0-.163.047-.268.122-.343l-.354-.354a.953.953 0 0 0-.268.697h.5zm.122-.343a.503.503 0 0 1 .376-.155v-.5c-.283 0-.531.102-.73.301l.354.354zm.376-.155h1.496v-.5h-1.496v.5zm1.496 0a.4.4 0 0 1 .33.14l.38-.325a.9.9 0 0 0-.71-.315v.5zm.357.168a.4.4 0 0 1 .141.33h.5a.901.901 0 0 0-.315-.71l-.326.38zm.141.33v1.431h.5v-1.43h-.5zm.452 1.578c1.16-1.595 2.857-2.4 5.131-2.4v-.5c-2.409 0-4.267.863-5.535 2.606l.404.294zm5.131-2.4c2.221 0 3.842.694 4.91 2.05l.393-.31c-1.187-1.505-2.97-2.24-5.303-2.24v.5zm4.911 2.052c1.109 1.38 1.714 3.168 1.799 5.382l.5-.02c-.088-2.295-.719-4.193-1.909-5.675l-.39.313zm1.8 5.395c.021.226.032.586.032 1.083h.5c0-.5-.011-.878-.034-1.128l-.498.045zm.032 1.083c0 .497-.011.856-.032 1.083l.498.045c.023-.25.034-.628.034-1.128h-.5zm-.033 1.096c-.085 2.192-.69 3.98-1.8 5.383l.392.31c1.189-1.502 1.82-3.399 1.908-5.674l-.5-.019zm-1.799 5.382c-1.09 1.358-2.712 2.053-4.911 2.053v.5c2.312 0 4.094-.736 5.301-2.24l-.39-.313zm-4.911 2.053c-2.186 0-3.865-.784-5.07-2.342l-.396.306c1.31 1.694 3.143 2.536 5.466 2.536v-.5zm-5.518-2.19v7.546h.5v-7.545h-.5zm0 7.546c0 .163-.047.269-.122.343l.354.354a.953.953 0 0 0 .268-.697h-.5zm-.135.358a.403.403 0 0 1-.331.14v.5a.902.902 0 0 0 .711-.315l-.38-.325zm-.331.14h-1.593v.5h1.593v-.5zm5.301-7.988c1.593 0 2.798-.497 3.552-1.534l-.404-.294c-.633.87-1.661 1.328-3.148 1.328v.5zm3.55-1.531c.754-1.005 1.154-2.316 1.221-3.912l-.5-.021c-.063 1.526-.444 2.73-1.121 3.633l.4.3zm1.22-3.898c.023-.23.034-.554.034-.968h-.5c0 .41-.011.714-.032.918l.498.05zm.034-.968c0-2.072-.383-3.672-1.188-4.759-.815-1.1-2.036-1.638-3.616-1.638v.5c1.456 0 2.512.488 3.214 1.436.713.962 1.09 2.436 1.09 4.461h.5zm-4.804-6.397c-1.557 0-2.765.523-3.581 1.595l.398.303c.702-.923 1.749-1.398 3.183-1.398v-.5zm-3.581 1.596c-.771 1.02-1.187 2.24-1.254 3.65l.5.025c.063-1.322.449-2.443 1.153-3.374l-.399-.301zm-1.254 3.656l-.033 1.236.5.013.033-1.236-.5-.013zm-.033 1.249l.033 1.268.5-.013-.033-1.268-.5.013zm.033 1.27c.045 1.332.476 2.502 1.292 3.5l.387-.317c-.744-.91-1.138-1.973-1.179-3.2l-.5.017zm1.292 3.5c.837 1.023 2.031 1.523 3.543 1.523v-.5c-1.392 0-2.431-.454-3.156-1.34l-.387.317zm16.998 3.257l.107-.226-.107.225zm-2.179-1.757l-.206.142.005.006.201-.148zm.976-6.016l.153.197h.001l-.154-.197zm4.813-1.822l.034.248h.001l-.035-.248zm4.846-.682l.035.247a.25.25 0 0 0 .215-.247h-.25zm-6.147-3.643l.135.21.005-.003-.14-.207zm-1.366 1.399l-.218-.123a.23.23 0 0 0-.019.043l.237.08zm-.26.422l-.156-.195-.021.019.177.176zm-2.309-.065l-.19.163c.008.01.017.019.027.027l.163-.19zm-.195-.52l-.25-.01v.01h.25zm.715-1.756l-.204-.145-.001.001.205.144zm2.179-1.724l.11.225.004-.002-.114-.223zm8.846.976l-.183.17.001.001.182-.171zm1.366 15.318l.177.176-.177-.176zm-2.569 0l-.19.162c.008.01.017.02.027.027l.163-.19zm-.195-1.952h.25a.25.25 0 1 0-.456-.142l.206.142zm-2.082 1.757l-.116-.222.116.221zm.651-3.09l-.179-.175.179.175zm1.366-4.91h.25a.25.25 0 0 0-.287-.248l.037.247zm-3.773.552l.035.247h.001l-.036-.247zm-3.48 1.106l.135.21.004-.002-.139-.208zm-.097 3.935l-.139.208.004.003.135-.211zm1.853 2.872a6.548 6.548 0 0 1-2.852-.626l-.215.451c.946.45 1.97.675 3.067.675v-.5zm-2.852-.626c-.877-.418-1.569-.978-2.085-1.679l-.402.296c.568.774 1.328 1.385 2.272 1.834l.215-.451zm-2.08-1.672a4.085 4.085 0 0 1-.737-2.363h-.5c0 .962.276 1.846.825 2.646l.412-.283zm-.737-2.363c0-1.35.548-2.45 1.66-3.315l-.307-.395c-1.229.956-1.853 2.199-1.853 3.71h.5zm1.661-3.315c1.147-.898 2.706-1.493 4.693-1.77l-.069-.496c-2.045.286-3.695.905-4.932 1.872l.308.394zm4.694-1.77l4.846-.684-.07-.495-4.846.683.07.495zm5.061-.931v-.944h-.5v.944h.5zm0-.944c0-1.153-.333-2.062-1.037-2.676-.698-.608-1.719-.89-3.018-.89v.5c1.237 0 2.119.27 2.689.767.564.492.866 1.242.866 2.3h.5zm-4.055-3.567c-.99 0-1.823.214-2.482.661l.28.414c.555-.377 1.283-.575 2.202-.575v-.5zm-2.477.658c-.636.409-1.123.903-1.449 1.486l.436.245c.281-.501.705-.939 1.283-1.31l-.27-.421zm-1.468 1.53c-.057.17-.123.26-.179.306l.312.39c.16-.127.268-.318.341-.538l-.474-.159zm-.2.325c-.023.023-.078.056-.213.056v.5c.212 0 .417-.053.567-.203l-.354-.353zm-.213.056h-1.399v.5h1.399v-.5zm-1.399 0a.524.524 0 0 1-.357-.135l-.326.38c.196.168.427.255.683.255v-.5zm-.33-.107a.524.524 0 0 1-.135-.358h-.5c0 .256.087.487.255.683l.38-.325zm-.136-.348c.019-.453.23-.992.671-1.623l-.41-.287c-.469.67-.736 1.303-.76 1.89l.499.02zm.67-1.622c.446-.629 1.135-1.179 2.085-1.643l-.22-.45c-1.001.49-1.765 1.089-2.273 1.804l.408.29zm2.089-1.645c.931-.476 2.093-.72 3.496-.72v-.5c-1.459 0-2.704.253-3.724.775l.228.445zm3.496-.72c2.397 0 4.058.567 5.053 1.642l.367-.339c-1.131-1.223-2.96-1.804-5.42-1.804v.5zm5.054 1.644c1.015 1.077 1.526 2.423 1.526 4.057h.5c0-1.749-.552-3.221-1.662-4.4l-.364.343zm1.526 4.057V56.68h.5V46.143h-.5zm0 10.537c0 .151-.05.272-.155.376l.354.353c.199-.199.301-.447.301-.73h-.5zm-.155.376c-.075.075-.18.122-.343.122v.5a.95.95 0 0 0 .697-.269l-.354-.353zm-.343.122h-1.496v.5h1.496v-.5zm-1.496 0a.574.574 0 0 1-.391-.135l-.325.38c.201.172.445.255.716.255v-.5zm-.363-.108a.57.57 0 0 1-.135-.39h-.5c0 .27.083.514.255.715l.38-.325zm-.135-.39v-1.4h-.5v1.399h.5zm-.456-1.54c-.45.653-1.109 1.214-1.992 1.676l.232.443c.939-.492 1.667-1.102 2.172-1.836l-.412-.283zm-1.992 1.676c-.864.453-1.98.687-3.364.687v.5c1.436 0 2.639-.243 3.596-.744l-.232-.443zm-2.681-1.252c1.469 0 2.685-.477 3.627-1.441l-.358-.35c-.837.857-1.919 1.29-3.269 1.29v.5zm3.627-1.441c.969-.993 1.437-2.398 1.437-4.175h-.5c0 1.691-.444 2.953-1.295 3.825l.358.35zm1.437-4.175v-.91h-.5v.91h.5zm-.287-1.158l-3.772.553.072.494 3.773-.553-.073-.494zm-3.771.552c-1.555.22-2.758.595-3.583 1.146l.277.416c.735-.49 1.852-.852 3.376-1.067l-.07-.495zm-3.579 1.143c-.837.535-1.287 1.247-1.287 2.13h.5c0-.679.332-1.246 1.056-1.709l-.269-.421zm-1.287 2.13c0 .95.399 1.7 1.185 2.224l.277-.416c-.645-.43-.962-1.024-.962-1.809h-.5zm1.189 2.227c.762.484 1.655.722 2.671.722v-.5c-.935 0-1.733-.218-2.402-.644l-.269.422zm16.583.96l-.178.175.003.003.175-.178zm-2.082-5.53l-.249.007v.003l.249-.01zm-.032-1.3l-.25-.006v.012l.25-.006zm.032-1.3l-.249-.01v.003l.249.006zm2.082-5.497l.177.177-.177-.177zm9.431-1.138l-.115.221.115-.221zm2.407 2.081l-.212.134.003.003.209-.137zm.878 2.472l-.25.013.001.012.249-.025zm-.195.52l.163.19-.163-.19zm-2.602.065l.156-.195-.156.195zm-.325-.52l-.236.083.005.013.231-.096zm-1.561-2.212l-.14.207.004.003.136-.21zm-5.757.586l-.181-.172.181.172zm-1.268 3.805l-.25-.01v.003l.25.007zm-.032 1.17l-.25-.006v.014l.25-.007zm.032 1.106l-.25.008v.002l.25-.01zm1.268 3.838l-.181.172.181-.172zm5.757.585l.135.21.005-.003-.14-.207zm1.561-2.244l-.231-.096-.005.013.236.083zm.325-.52l.156.195a.432.432 0 0 0 .021-.018l-.177-.177zm2.602.065l-.177.177.014.013.163-.19zm.195.52l-.249-.025-.001.012.25.013zm-.878 2.472l-.211-.135-.001.002.212.133zm-2.407 2.081l-.115-.221h-.002l.117.221zm-3.967.596c-2.272 0-4.024-.636-5.289-1.88l-.35.357c1.38 1.358 3.27 2.023 5.639 2.023v-.5zm-5.286-1.877c-1.246-1.267-1.925-3.044-2.01-5.362l-.499.018c.088 2.408.797 4.317 2.153 5.695l.356-.35zm-2.01-5.36l-.032-1.3-.5.012.033 1.301.499-.012zm-.032-1.288l.032-1.3-.499-.013-.033 1.3.5.013zm.032-1.298c.085-2.319.764-4.084 2.009-5.328l-.354-.354c-1.357 1.357-2.066 3.256-2.154 5.664l.499.018zm2.009-5.328c1.265-1.265 3.016-1.91 5.287-1.91v-.5c-2.37 0-4.261.676-5.641 2.056l.354.354zm5.287-1.91c1.531 0 2.812.276 3.852.816l.231-.443c-1.129-.587-2.493-.874-4.083-.874v.5zm3.852.816c1.055.549 1.819 1.215 2.31 1.994l.423-.267c-.549-.87-1.389-1.591-2.502-2.17l-.231.444zm2.313 1.997c.522.795.797 1.576.837 2.348l.5-.026c-.046-.877-.358-1.743-.919-2.596l-.418.274zm.838 2.36c.015.144-.025.234-.109.305l.326.38a.819.819 0 0 0 .281-.735l-.498.05zm-.109.305a.57.57 0 0 1-.39.135v.5c.271 0 .514-.083.716-.255l-.326-.38zm-.39.135h-1.561v.5h1.561v-.5zm-1.561 0c-.19 0-.287-.039-.332-.075l-.312.39c.171.138.4.185.644.185v-.5zm-.332-.075c-.056-.045-.145-.168-.25-.421l-.462.192c.111.267.239.49.4.62l.312-.391zm-.245-.409c-.381-1.073-.928-1.865-1.662-2.338l-.271.42c.611.395 1.104 1.077 1.461 2.085l.472-.167zm-1.657-2.335c-.723-.49-1.621-.726-2.677-.726v.5c.982 0 1.775.22 2.397.64l.28-.414zm-2.677-.726c-1.401 0-2.544.444-3.401 1.347l.363.344c.747-.788 1.751-1.19 3.038-1.19v-.5zm-3.401 1.347c-.839.885-1.271 2.224-1.337 3.967l.5.02c.064-1.683.478-2.881 1.2-3.643l-.363-.344zm-1.337 3.97l-.032 1.17.499.014.033-1.17-.5-.014zm-.032 1.185l.032 1.106.5-.015-.033-1.106-.499.015zm.032 1.108c.066 1.764.497 3.114 1.337 4l.363-.344c-.722-.762-1.136-1.97-1.2-3.675l-.5.019zm1.337 4c.837.884 1.982 1.314 3.401 1.314v-.5c-1.312 0-2.314-.394-3.038-1.158l-.363.344zm3.401 1.314c1.054 0 1.95-.225 2.672-.69l-.271-.42c-.622.4-1.417.61-2.401.61v.5zm2.677-.694c.73-.494 1.276-1.294 1.657-2.367l-.472-.167c-.357 1.008-.851 1.704-1.465 2.12l.28.414zm1.652-2.355c.105-.253.194-.376.25-.42l-.312-.391c-.161.128-.289.352-.4.62l.462.191zm.271-.44c.045-.044.133-.089.311-.089v-.5c-.255 0-.493.064-.665.236l.354.354zm.311-.089h1.561v-.5h-1.561v.5zm1.561 0c.151 0 .272.05.376.155l.354-.354c-.2-.199-.448-.3-.73-.3v.5zm.39.168c.084.071.124.161.109.305l.498.05a.819.819 0 0 0-.281-.735l-.326.38zm.108.317c-.04.75-.314 1.532-.839 2.35l.421.27c.56-.873.871-1.738.918-2.593l-.5-.027zm-.84 2.352c-.491.778-1.255 1.444-2.31 1.993l.231.443c1.113-.579 1.953-1.3 2.502-2.17l-.423-.267zm-2.312 1.994c-1.017.539-2.296.816-3.85.816v.5c1.611 0 2.976-.287 4.084-.875l-.234-.441zm7.492.546l-.19.162c.008.01.017.02.027.027l.163-.19zm0-22.668l.177.177-.177-.177zm2.699 0l-.19.163.027.027.163-.19zm.228 8.098h-.25a.25.25 0 0 0 .447.154l-.197-.154zm2.211-1.821l.11.224.004-.002-.114-.222zm8.001 1.366l-.19.162.003.003.187-.165zm1.528 15.025l-.177-.177.177.177zm-2.699 0l-.19.162c.008.01.018.02.027.027l.163-.19zm-1.333-13.14l-.189.165.002.003.187-.167zm-6.505.033l-.181-.172.181.172zm-1.431 13.107l-.177-.177.177.177zm-2.146-.055a.57.57 0 0 1-.39-.135l-.326.38c.201.172.445.255.716.255v-.5zm-.363-.108a.57.57 0 0 1-.135-.39h-.5c0 .27.083.514.255.715l.38-.325zm-.135-.39V35.085h-.5V56.68h.5zm0-21.595c0-.163.047-.269.122-.343l-.354-.354a.953.953 0 0 0-.268.697h.5zm.122-.343a.501.501 0 0 1 .376-.155v-.5c-.283 0-.531.102-.73.301l.354.354zm.376-.155h1.626v-.5h-1.626v.5zm1.626 0a.4.4 0 0 1 .33.14l.38-.325a.9.9 0 0 0-.71-.315v.5zm.357.168a.4.4 0 0 1 .141.33h.5a.901.901 0 0 0-.315-.71l-.326.38zm.141.33v7.578h.5v-7.578h-.5zm.447 7.732c.607-.775 1.315-1.357 2.124-1.75l-.219-.45c-.883.43-1.649 1.062-2.299 1.892l.394.308zm2.128-1.753c.801-.41 1.811-.623 3.041-.623v-.5c-1.285 0-2.378.221-3.269.678l.228.445zm3.041-.623c2.023 0 3.563.65 4.656 1.929l.38-.325c-1.205-1.41-2.896-2.104-5.036-2.104v.5zm4.659 1.932c1.12 1.266 1.693 2.97 1.693 5.136h.5c0-2.257-.598-4.088-1.819-5.467l-.374.331zm1.693 5.136v9.17h.5v-9.17h-.5zm0 9.17c0 .152-.05.273-.155.377l.354.353c.199-.199.301-.447.301-.73h-.5zm-.155.377c-.074.075-.18.122-.343.122v.5a.95.95 0 0 0 .697-.269l-.354-.353zm-.343.122h-1.626v.5h1.626v-.5zm-1.626 0a.57.57 0 0 1-.39-.135l-.326.38c.201.172.445.255.716.255v-.5zm-.363-.108a.57.57 0 0 1-.135-.39h-.5c0 .27.083.514.255.715l.38-.325zm-.135-.39v-9.01h-.5v9.009h.5zm0-9.009c0-1.579-.39-2.839-1.202-3.744l-.373.334c.705.785 1.075 1.91 1.075 3.41h.5zm-1.2-3.742c-.796-.913-1.947-1.354-3.408-1.354v.5c1.357 0 2.353.405 3.031 1.183l.377-.329zm-3.408-1.354c-1.424 0-2.588.455-3.466 1.38l.362.343c.77-.81 1.796-1.223 3.104-1.223v-.5zm-3.466 1.38c-.859.904-1.272 2.154-1.272 3.716h.5c0-1.474.388-2.586 1.135-3.373l-.363-.344zm-1.272 3.716v9.009h.5v-9.01h-.5zm0 9.009c0 .151-.05.272-.155.376l.354.353c.199-.199.301-.447.301-.73h-.5zm-.155.376c-.075.075-.18.122-.343.122v.5a.95.95 0 0 0 .697-.269l-.354-.353zm-.343.122h-1.626v.5h1.626v-.5zm18.81-1.474l-.181.173.003.002.178-.175zm-2.179-5.659l-.25.008v.006l.25-.014zm-.033-1.105l-.25-.008v.015l.25-.008zm.033-1.074l-.25-.016v.009l.25.007zm2.211-5.593l-.179-.174-.002.001.181.172zm10.895.227l-.19.163.002.001.188-.164zm1.756 7.285l.177.177-.177-.177zm-11.773.195v-.25a.25.25 0 0 0-.25.25h.25zm0 .293h-.25l.001.011.249-.011zm1.269 3.61l-.197.154.004.005.193-.16zm5.593.878l.132.212h.002l-.134-.212zm1.431-1.268l-.2-.15-.004.006.204.144zm.423-.456l.112.224.017-.01-.129-.214zm2.634.065l-.16.192.16-.192zm-.715 2.18l-.186-.168-.003.003.189.164zm-2.504 1.756l.102.228.002-.001-.104-.227zm.78-9.302v.25a.25.25 0 0 0 .25-.25h-.25zm-1.236-3.74l-.191.161.004.005.187-.166zm-6.504 0l-.191-.16h-.001l.192.16zm-1.171 3.74h-.25c0 .138.112.25.25.25v-.25zm4.456 9.767c-2.178 0-3.899-.664-5.188-1.974l-.356.35c1.399 1.422 3.256 2.124 5.544 2.124v-.5zm-5.185-1.971c-1.272-1.335-1.983-3.16-2.111-5.5l-.499.027c.133 2.43.875 4.377 2.248 5.818l.362-.345zm-2.11-5.494l-.033-1.106-.5.015.033 1.106.5-.015zm-.033-1.09l.033-1.074-.5-.015-.033 1.073.5.015zm.032-1.066c.149-2.296.87-4.1 2.143-5.437l-.362-.345c-1.371 1.439-2.125 3.364-2.28 5.75l.499.032zm2.142-5.435c1.29-1.333 2.989-2.006 5.121-2.006v-.5c-2.247 0-4.083.715-5.48 2.158l.359.348zm5.121-2.006c2.349 0 4.138.748 5.404 2.222l.38-.326c-1.379-1.605-3.319-2.396-5.784-2.396v.5zm5.406 2.223c1.272 1.46 1.922 3.456 1.922 6.015h.5c0-2.644-.673-4.768-2.045-6.343l-.377.328zm1.922 6.015v.553h.5v-.553h-.5zm0 .553c0 .151-.05.272-.155.376l.354.354c.199-.2.301-.447.301-.73h-.5zm-.155.376c-.074.075-.18.122-.343.122v.5c.27 0 .512-.083.697-.268l-.354-.354zm-.343.122h-11.253v.5h11.253v-.5zm-11.503.25v.293h.5v-.293h-.5zm.001.304c.067 1.455.505 2.71 1.321 3.753l.394-.308c-.745-.952-1.153-2.104-1.216-3.468l-.499.023zm1.325 3.758c.851 1.035 1.974 1.554 3.347 1.554v-.5c-1.228 0-2.208-.456-2.961-1.372l-.386.318zm3.347 1.554c1.029 0 1.891-.2 2.571-.623l-.263-.425c-.578.36-1.341.548-2.308.548v.5zm2.573-.624c.667-.422 1.173-.866 1.502-1.336l-.409-.287c-.278.397-.726.8-1.36 1.2l.267.423zm1.497-1.33c.095-.126.173-.221.236-.288a.977.977 0 0 1 .075-.074c.02-.017.028-.021.024-.02l-.224-.446a.929.929 0 0 0-.242.2 4.315 4.315 0 0 0-.269.329l.4.3zm.352-.39c.046-.028.171-.062.424-.062v-.5c-.267 0-.511.03-.681.133l.257.429zm.424-.062h1.594v-.5h-1.594v.5zm1.594 0c.146 0 .249.039.327.104l.321-.384a.986.986 0 0 0-.648-.22v.5zm.327.104c.064.054.106.13.106.264h.5a.81.81 0 0 0-.285-.648l-.321.384zm.106.264c0 .379-.248.893-.847 1.556l.372.335c.615-.682.975-1.317.975-1.891h-.5zm-.85 1.56c-.555.637-1.357 1.204-2.42 1.692l.209.455c1.106-.51 1.973-1.113 2.589-1.82l-.378-.328zm-2.418 1.691c-1.024.46-2.213.694-3.572.694v.5c1.416 0 2.677-.243 3.777-.737l-.205-.457zm1.133-9.073v-.097h-.5v.097h.5zm0-.097c0-1.544-.426-2.822-1.298-3.808l-.375.33c.776.878 1.173 2.03 1.173 3.478h.5zm-1.294-3.804c-.855-1.016-2.012-1.52-3.444-1.52v.5c1.3 0 2.311.45 3.061 1.342l.383-.322zm-3.444-1.52c-1.431 0-2.589.504-3.443 1.52l.382.322c.75-.892 1.761-1.342 3.061-1.342v-.5zm-3.444 1.52c-.826.988-1.229 2.263-1.229 3.804h.5c0-1.452.378-2.605 1.113-3.482l-.384-.321zm-1.229 3.804v.097h.5v-.097h-.5zm.25.347h8.911v-.5h-8.911v.5zm-107.044 85.822c-.441 0-.826-.166-1.157-.496-.33-.331-.496-.716-.496-1.157 0-.441.028-.743.083-.909l20.491-53.457c.44-1.212 1.322-1.818 2.644-1.818h5.618c1.322 0 2.203.606 2.644 1.818l20.408 53.457.165.909c0 .441-.165.826-.496 1.157-.33.33-.716.496-1.156.496h-4.214c-.606 0-1.074-.138-1.405-.413-.33-.331-.551-.661-.661-.992l-4.544-11.732h-27.1l-4.545 11.732c-.11.331-.358.661-.743.992-.331.275-.772.413-1.322.413h-4.214zm35.528-20.243l-11.154-29.331-11.154 29.331h22.308zm23.872-30.736c-.551 0-1.019-.165-1.405-.496-.331-.385-.496-.853-.496-1.404v-4.462c0-.55.165-1.019.496-1.405a1.914 1.914 0 0 1 1.405-.578h5.205a1.91 1.91 0 0 1 1.404.578c.386.386.579.854.579 1.405v4.462a1.91 1.91 0 0 1-.579 1.404c-.385.33-.853.496-1.404.496h-5.205zm.661 50.979c-.551 0-1.019-.166-1.405-.496-.331-.386-.496-.854-.496-1.405V92.744c0-.551.165-.992.496-1.322a1.914 1.914 0 0 1 1.405-.578h3.965c.551 0 .992.192 1.322.578.386.33.579.771.579 1.322v39.163c0 .551-.193 1.019-.579 1.405-.33.33-.771.496-1.322.496h-3.965zm20.01 0c-.551 0-1.019-.166-1.405-.496-.33-.386-.495-.854-.495-1.405v-39.08c0-.551.165-1.02.495-1.405a1.914 1.914 0 0 1 1.405-.578h3.801c.55 0 1.019.192 1.404.578.386.385.579.854.579 1.404v3.636c2.258-3.746 6.114-5.618 11.567-5.618h3.222c.551 0 .992.192 1.322.578.386.33.578.771.578 1.322v3.387c0 .551-.192.992-.578 1.322-.33.33-.771.496-1.322.496h-4.957c-2.975 0-5.316.881-7.023 2.644-1.708 1.708-2.562 4.049-2.562 7.023v24.291c0 .551-.192 1.019-.578 1.405-.386.33-.854.496-1.405.496h-4.048zm35.683 0c-.55 0-1.019-.166-1.404-.496-.331-.386-.496-.854-.496-1.405V97.453h-7.023c-.551 0-1.019-.165-1.404-.495-.331-.386-.496-.854-.496-1.405v-2.81c0-.55.165-.99.496-1.321a1.91 1.91 0 0 1 1.404-.578h7.023v-4.132c0-9.364 4.737-14.046 14.211-14.046h4.627c.551 0 .992.193 1.322.579.386.33.579.77.579 1.322v2.809a1.91 1.91 0 0 1-.579 1.404c-.33.331-.771.496-1.322.496h-4.461c-2.479 0-4.214.661-5.206 1.983-.991 1.267-1.487 3.222-1.487 5.866v3.719h17.681V74.567c0-.551.166-.992.496-1.322a1.914 1.914 0 0 1 1.405-.579h3.8c.551 0 .992.193 1.322.579.386.33.579.77.579 1.322v57.34c0 .551-.193 1.019-.579 1.405-.33.33-.771.496-1.322.496h-3.8c-.551 0-1.019-.166-1.405-.496-.33-.386-.496-.854-.496-1.405V97.453h-17.681v34.454c0 .551-.193 1.019-.578 1.405-.331.33-.771.496-1.322.496h-3.884zm60.944.826c-6.059 0-10.768-1.708-14.128-5.123-3.305-3.415-5.068-7.959-5.288-13.633l-.083-3.552.083-3.553c.22-5.619 2.01-10.135 5.37-13.55 3.36-3.47 8.042-5.206 14.046-5.206s10.686 1.735 14.046 5.206c3.36 3.415 5.15 7.931 5.371 13.55.055.606.082 1.79.082 3.553 0 1.762-.027 2.946-.082 3.552-.221 5.674-2.011 10.218-5.371 13.633-3.305 3.415-7.987 5.123-14.046 5.123zm0-6.362c3.47 0 6.197-1.102 8.18-3.305 2.038-2.203 3.14-5.371 3.305-9.502.055-.551.082-1.597.082-3.139 0-1.543-.027-2.589-.082-3.14-.165-4.131-1.267-7.299-3.305-9.502-1.983-2.203-4.71-3.305-8.18-3.305-3.47 0-6.224 1.102-8.262 3.305-2.038 2.203-3.112 5.371-3.222 9.502l-.083 3.14.083 3.139c.11 4.131 1.184 7.299 3.222 9.502 2.038 2.203 4.792 3.305 8.262 3.305zm40.118 5.536c-.716 0-1.267-.166-1.653-.496-.385-.331-.716-.854-.991-1.57l-11.733-38.337-.165-.826c0-.496.165-.91.496-1.24.385-.33.798-.495 1.239-.495h3.635c.551 0 .992.165 1.322.495.386.276.634.579.744.91l9.171 31.148 9.832-30.818c.111-.441.358-.827.744-1.157.386-.386.909-.578 1.57-.578h2.809c.661 0 1.184.192 1.57.578.386.33.633.716.744 1.157l9.832 30.818 9.171-31.149c.055-.275.248-.578.578-.909.386-.33.854-.495 1.405-.495h3.718c.441 0 .826.165 1.157.495.33.33.495.744.495 1.24l-.165.826-11.65 38.337c-.275.716-.606 1.239-.991 1.57-.386.33-.964.496-1.735.496h-3.223c-1.487 0-2.396-.689-2.726-2.066l-9.585-29.579-9.584 29.579c-.44 1.377-1.377 2.066-2.809 2.066h-3.222z"/></g><defs><clipPath id="clip0"><path fill="#fff" d="M0 0h453v175H0z"/></clipPath></defs></svg>