<svg xmlns="http://www.w3.org/2000/svg" role="img" viewBox="-0.38 79.62 955.76 398.76"><title>Apache Airflow logo</title><defs><style>.cls-1{isolation:isolate}.cls-2{fill:#a8afb8}.cls-3{fill:#009e01}.cls-12,.cls-3,.cls-5,.cls-7,.cls-9{fill-rule:evenodd}.cls-5{fill:#01f0fc}.cls-7{fill:#8dc3fd}.cls-9{fill:#0072a0}.cls-12{fill:#da2b00}</style></defs><g class="cls-1"><path d="M457.386 217.79l15.272-39.767h5.669l16.276 39.768h-5.995l-4.638-12.045h-16.63l-4.367 12.045zm11.474-16.33h13.482l-4.15-11.013q-1.9-5.019-2.822-8.247a50.711 50.711 0 0 1-2.142 7.596zm29.324 27.37v-39.848h4.449v3.743a10.968 10.968 0 0 1 3.553-3.295 9.767 9.767 0 0 1 4.802-1.1 11.383 11.383 0 0 1 6.51 1.9 11.655 11.655 0 0 1 4.259 5.357 19.554 19.554 0 0 1 1.438 7.582 19.262 19.262 0 0 1-1.587 7.962 12.061 12.061 0 0 1-10.973 7.31 9.196 9.196 0 0 1-4.381-1.03 9.96 9.96 0 0 1-3.187-2.604v14.024zm4.422-25.28q0 5.56 2.251 8.218a6.902 6.902 0 0 0 5.453 2.659 7.058 7.058 0 0 0 5.574-2.753q2.319-2.753 2.32-8.532 0-5.506-2.265-8.247a6.82 6.82 0 0 0-5.412-2.739 7.033 7.033 0 0 0-5.52 2.916q-2.4 2.916-2.401 8.477zm45.274 10.687a18.205 18.205 0 0 1-5.222 3.255 15.105 15.105 0 0 1-5.385.949q-4.746 0-7.297-2.32a7.653 7.653 0 0 1-2.55-5.926 8.03 8.03 0 0 1 3.486-6.673 11.884 11.884 0 0 1 3.513-1.6 35.021 35.021 0 0 1 4.34-.734 44.673 44.673 0 0 0 8.708-1.68q.027-1.005.027-1.276 0-2.983-1.383-4.204a8.172 8.172 0 0 0-5.562-1.655 8.625 8.625 0 0 0-5.086 1.207 7.374 7.374 0 0 0-2.427 4.273l-4.775-.652a11.84 11.84 0 0 1 2.143-4.95 9.394 9.394 0 0 1 4.314-2.903 19.25 19.25 0 0 1 6.537-1.018 17.326 17.326 0 0 1 5.995.869 7.897 7.897 0 0 1 3.39 2.184 7.674 7.674 0 0 1 1.52 3.322 27.55 27.55 0 0 1 .244 4.504v6.51a69.179 69.179 0 0 0 .312 8.613 10.852 10.852 0 0 0 1.234 3.459h-5.1a10.344 10.344 0 0 1-.976-3.554zm-.407-10.905a35.847 35.847 0 0 1-7.975 1.845 18.496 18.496 0 0 0-4.259.976 4.25 4.25 0 0 0-1.926 1.587 4.315 4.315 0 0 0 .8 5.574 6.362 6.362 0 0 0 4.327 1.302 10.062 10.062 0 0 0 5.019-1.234 7.6 7.6 0 0 0 3.228-3.377 11.793 11.793 0 0 0 .786-4.883zm31.305 3.906l4.8.624a12.452 12.452 0 0 1-4.028 7.772 11.736 11.736 0 0 1-7.961 2.807 12.367 12.367 0 0 1-9.508-3.865q-3.594-3.866-3.594-11.081a20.056 20.056 0 0 1 1.546-8.165 10.774 10.774 0 0 1 4.706-5.25 13.963 13.963 0 0 1 6.877-1.75 11.957 11.957 0 0 1 7.677 2.374 10.891 10.891 0 0 1 3.825 6.741l-4.748.732a7.885 7.885 0 0 0-2.4-4.367 6.214 6.214 0 0 0-4.164-1.464 7.577 7.577 0 0 0-5.995 2.645q-2.305 2.644-2.307 8.368 0 5.806 2.225 8.437a7.242 7.242 0 0 0 5.805 2.63 6.847 6.847 0 0 0 4.802-1.762 8.757 8.757 0 0 0 2.442-5.426zm8.978 10.552v-39.767h4.883v14.268a10.91 10.91 0 0 1 8.626-3.96 11.632 11.632 0 0 1 5.561 1.26 7.408 7.408 0 0 1 3.377 3.487 16.064 16.064 0 0 1 1.018 6.457v18.256h-4.883v-18.256q0-3.664-1.587-5.33a5.9 5.9 0 0 0-4.49-1.67 7.924 7.924 0 0 0-4.082 1.126 6.362 6.362 0 0 0-2.726 3.052 14.015 14.015 0 0 0-.814 5.316v15.762zm50.619-9.277l5.046.624a12.315 12.315 0 0 1-4.423 6.863 13.293 13.293 0 0 1-8.247 2.441q-6.32 0-10.021-3.892-3.703-3.892-3.704-10.918 0-7.27 3.744-11.285a12.67 12.67 0 0 1 9.71-4.016 12.32 12.32 0 0 1 9.442 3.934q3.66 3.934 3.66 11.068 0 .434-.026 1.302H622.07q.272 4.747 2.686 7.27a7.991 7.991 0 0 0 6.022 2.523 7.468 7.468 0 0 0 4.585-1.411 9.362 9.362 0 0 0 3.01-4.503zm-16.032-7.893h16.086a9.773 9.773 0 0 0-1.845-5.454 7.485 7.485 0 0 0-6.049-2.82 7.758 7.758 0 0 0-5.657 2.252 8.918 8.918 0 0 0-2.535 6.022z" class="cls-2"/></g><path d="M267.1 435.352c-14.062-.191-27.738-2.762-41.217-6.628-6.483-1.864-11.684-5.634-16.232-10.456.18-2.395-1.366-4.007-2.536-5.84a93.753 93.753 0 0 1-9.455-19.335c-9.333-26.687-7.64-53.953-4.487-81.312.948-8.212 4.464-15.903 4.816-24.227q1.043.436 2.086.866c-.332 20.367 5.646 38.354 20.078 53.144 10.257 10.512 21.659 19.196 35.862 23.881 3.732 1.227 5.761.68 8.224-2.314 6.062-7.375 11.56-15.245 18.516-21.863q16.083 14.811 32.167 29.613 29.543 27.194 59.07 54.396c3.036 2.798 5.936 5.746 8.901 8.62-1.927 2.718-4.8 1.532-7.228 1.536q-54.281.057-108.565-.081z" class="cls-3"/><path fill="#911600" fill-rule="evenodd" d="M117.981 218.44Q81.146 184.19 44.3 149.957c-8.773-8.126-17.893-15.878-26.213-24.486 1.32-2.863 3.943-2.29 6.281-2.307q14.115-.098 28.233-.096c21.665-.02 43.337.18 64.998-.208 4.057-.07 7.97 3.033 12.031.408.659-.065 1.319-.127 1.976-.19a5.454 5.454 0 0 0 3.5 1.461c13.013 1.562 25.998 3.29 38.747 6.443 10.354 3.212 18.499 9.967 26.671 16.68q30.042 24.666 60.098 49.33a8.849 8.849 0 0 0 1.735.866c3.013 5.262 8.405 7.964 12.828 11.663 12.333 10.31 12.431 10.194 4.881 24.553-.094.175-.321.287-.487.43-1.404.44-1.714 1.525-1.654 2.823l.104-.141c-2.122.71-3.054 2.09-2.43 4.338l.096-.017c-4.292-1.227-3.225-4.845-2.975-7.621 1.08-11.949-4.361-20.81-13.41-27.496-17.703-13.082-34.805-26.821-50.192-42.611-1.954-2-3.986-3.797-7.448-2.833a146.222 146.222 0 0 1 9.002 58.52 272.176 272.176 0 0 1-7.594 51.572l-1.92-.106a70.283 70.283 0 0 0-3.299-25.168c-8.49-26.047-27.607-41.536-51.704-52.237-4.35-1.933-6.5-.718-9.27 2.577-6.279 7.461-11.803 15.57-18.903 22.336zm56.888-18.581a11.577 11.577 0 0 0-.426-2.29A277.73 277.73 0 0 0 137.64 137.4c-.963-1.215-2.334-2.815-3.73-2.28-4.662 1.78-9.049-.242-13.533-.502-13.123-.77-26.119 1.425-39.211 1.48a21.116 21.116 0 0 0-8.215 1.947c-5.75 2.558-8.545 6.187-4.875 12.303 2.037 3.389 3.938 6.736 6.868 9.47 7.816 7.298 15.23 14.983 23.198 22.16 10.294 9.265 21.384 12.533 34.859 9.62 11.988-2.594 23.598-1.62 34.073 5.834 1.987 1.416 4.254 3.156 7.795 2.427z"/><path d="M279.576 234.5c.166-.14.393-.252.487-.43 7.55-14.359 7.452-14.243-4.881-24.553-4.423-3.697-9.813-6.398-12.828-11.663 8.513-7.799 15.959-16.614 23.833-25.02q33.854-36.162 67.52-72.501c.798-.855 1.192-2.436 2.912-2.007-.121 4.362-.337 8.721-.345 13.083-.04 29.48-.137 58.963.052 88.44a12.173 12.173 0 0 1-4.084 9.68 251.883 251.883 0 0 1-29.806 24.25c-1.91 1.354-4.352 2.142-5.37 4.56l.165.045a2.054 2.054 0 0 0-2.67 1.338l.047-.025a2.636 2.636 0 0 0-2.7 1.348l.078-.05c-.76.162-1.364.48-1.373 1.382l.052-.053a2.221 2.221 0 0 0-2.68 1.34l.061-.033a2.676 2.676 0 0 0-2.7 1.358l.07-.05c-.769.148-1.404.437-1.373 1.378l.054-.054c-1.235-.233-2.242-.007-2.679 1.342l.056-.029c-1.184-.12-2.21.064-2.688 1.346l.06-.04a2.366 2.366 0 0 0-2.694 1.361l.075-.044a2.562 2.562 0 0 0-2.711 1.362l.088-.052a3.528 3.528 0 0 0-3.025 1.357 1.344 1.344 0 0 0-.99.218c-.57.371-1.13.747-1.694 1.12-6.22 1.2-11.342 5.167-17.325 6.961-5.06 1.52-9.541 5.02-15.21 4.472 7.962-7.046 15.486-14.46 20.332-24.132l-.096.017a6.416 6.416 0 0 0 2.43-4.338l-.104.14c1.215-.554 1.346-1.74 1.654-2.824z" class="cls-5"/><path fill="#35abfd" fill-rule="evenodd" d="M138.918 361.178c-7.051 5.827-12.483 13.196-18.805 19.728-12.13 12.531-24.207 25.152-35.962 38.001-11.752 12.848-23.674 25.557-35.294 38.539-.994 1.107-1.783 2.509-3.395 2.915-.048-32.525.08-65.046-.283-97.567-.075-6.8 1.04-12.405 6.656-16.576 25.803-22.444 54.119-40.645 86.81-51.488 2.663-.884 5.06-2.653 8.068-2.357-.776.75-1.506 1.552-2.332 2.234-13.416 11.08-22.314 25.23-28.516 41.32-1.232 3.201-.73 5.083 1.883 7.222 5.15 4.22 10.071 8.713 15.713 12.3l.458.376.588-.087.011-.296c-.125 1.06.493 1.382 1.404 1.4l-.09-.089c-.004.942.583 1.3 1.405 1.421l-.098-.113a1.7 1.7 0 0 0 1.4 1.427l-.137-.002.516 1.692z"/><path d="M117.981 218.44c7.1-6.764 12.624-14.873 18.902-22.338 2.769-3.295 4.92-4.51 9.27-2.577 24.096 10.7 43.213 26.19 51.703 52.238a70.24 70.24 0 0 1 3.299 25.167 9.013 9.013 0 0 0-9.048 6.123c-13.526-2.116-26.86-5.249-40.592-6.283-30.763-2.314-60.72-.934-87.764 16.395a12.503 12.503 0 0 0-.915-.892q25.84-31.561 51.67-63.138c1.232-1.504 2.32-3.127 3.475-4.695z" class="cls-7"/><path d="M282.755 341.268c-6.957 6.62-12.454 14.488-18.516 21.863-2.465 2.994-4.494 3.54-8.224 2.314-14.203-4.687-25.605-13.369-35.862-23.88-14.433-14.791-20.41-32.776-20.078-53.145 3.204-1.08 6.502-2.01 8.16-5.419 3.501-1.573 6.832.114 10.098.796a273.124 273.124 0 0 0 38.652 5.617c4.364.123 8.721.273 13.08.365 24.548.528 47.68-4.159 68.224-18.439.507 2.89-1.893 4.273-3.33 6.03q-23.646 28.889-47.436 57.678c-1.66 2.018-3.181 4.148-4.768 6.22z" class="cls-5"/><path fill="#00e64b" fill-rule="evenodd" d="M133.461 355.45c-5.642-3.586-10.564-8.078-15.713-12.301-2.613-2.14-3.115-4.02-1.883-7.223 6.202-16.088 15.1-30.24 28.516-41.32.826-.68 1.556-1.484 2.332-2.233 13.63-9.268 28.443-14.434 45.147-13.1.537 3.873 2.363 6.796 6.13 8.28-.355 8.325-3.871 16.015-4.817 24.228-3.154 27.359-4.846 54.623 4.487 81.312a93.753 93.753 0 0 0 9.455 19.334c1.17 1.834 2.717 3.445 2.536 5.84-6.886-4.081-12.403-9.899-18.669-14.763a2.29 2.29 0 0 0-.843-2.31c-6.064-5.176-9.984-11.818-14.157-18.557-8.494-13.69-20.009-23.644-37.584-23.15l.137.002c-.466-.473-.934-.95-1.4-1.427l.098.114c-.47-.47-.94-.947-1.405-1.421l.09.089-1.404-1.4-.011.296c-.216-.577-.46-1.047-1.042-.29z"/><path d="M338.287 271.34c-20.544 14.28-43.678 18.97-68.223 18.44-4.36-.095-8.717-.243-13.08-.366.562-.969 1.297-1.968 2.412-2.028 5.777-.302 11.386-1.756 17.016-2.567 12.83-1.84 25.243-4.795 36.808-10.373 9.759-4.704 17.627-11.875 21.586-22.497 2.825-7.571-1.127-13.396-9.237-13.48-2.837-.028-5.671-.087-8.504-.13 1.019-2.418 3.46-3.208 5.37-4.56a251.724 251.724 0 0 0 29.807-24.25 12.173 12.173 0 0 0 4.084-9.68c-.189-29.477-.094-58.96-.052-88.44.008-4.362.224-8.721.345-13.083.936.84.776 1.945.768 3.031-.07 34.127.145 68.25-.33 102.37-.253 18.368-2.187 36.644-8.404 54.155-1.984 5.575-4.21 11.057-10.366 13.458z" class="cls-9"/><path d="M138.4 359.488c17.575-.495 29.09 9.46 37.584 23.149 4.172 6.74 8.093 13.38 14.157 18.557a2.294 2.294 0 0 1 .843 2.31Q167.493 384.374 144 365.25c-1.685-1.367-3.385-2.713-5.08-4.069-.175-.566-.347-1.13-.52-1.692z" class="cls-3"/><path fill="#2e4f7c" fill-rule="evenodd" d="M51.835 346.218c-5.616 4.171-6.731 9.777-6.656 16.576.362 32.521.235 65.042.283 97.567-2.561-1.44-1.404-3.895-1.406-5.867-.08-32.74-.289-65.485.04-98.218a208.926 208.926 0 0 1 5.629-45.964c1.956-8.284 4.548-16.298 11.446-22.04q1.221-.009 2.441-.021c1.822 2.018-.456 2.759-1.353 3.506-4.758 3.99-7.067 9.333-8.875 15.031-3.651 11.533-3.68 23.606-5.325 35.445-.387 2.786 1.038 4.057 3.776 3.985z"/><path fill="#265734" fill-rule="evenodd" d="M267.1 435.352q54.285.069 108.56.079c2.429-.004 5.302 1.182 7.23-1.537.935.784 1.617 1.954.17 2.459a16.126 16.126 0 0 1-5.156.445q-50.379.072-100.756.034c-3.358-.005-7.001 1.015-10.048-1.48z"/><path d="M63.612 288.25q-1.221.015-2.441.022c-.087-1.2.972-1.45 1.667-1.999a12.48 12.48 0 0 1 .915.892 7.946 7.946 0 0 1-.14 1.086z" class="cls-7"/><path d="M208.984 280.08a9.92 9.92 0 0 0-5.91-9.044 272.175 272.175 0 0 0 7.595-51.571 146.221 146.221 0 0 0-9.002-58.52c3.46-.965 5.494.831 7.448 2.832 15.388 15.792 32.489 29.529 50.193 42.611 9.05 6.686 14.49 15.547 13.41 27.496-.251 2.774-1.318 6.393 2.974 7.621-4.846 9.672-12.37 17.088-20.332 24.132a75.028 75.028 0 0 1-46.376 14.443zm-34.115-80.221c-3.541.727-5.808-1.011-7.795-2.429-10.475-7.454-22.085-8.428-34.073-5.834-13.475 2.915-24.565-.354-34.86-9.62-7.967-7.177-15.38-14.862-23.197-22.16-2.928-2.734-4.83-6.08-6.868-9.47-3.67-6.114-.874-9.745 4.875-12.303a21.116 21.116 0 0 1 8.215-1.946c13.092-.054 26.088-2.251 39.21-1.481 4.485.26 8.872 2.284 13.534.503 1.396-.536 2.767 1.064 3.73 2.28a277.731 277.731 0 0 1 36.803 60.168 11.635 11.635 0 0 1 .426 2.292z" class="cls-12"/><path d="M278.024 237.182a6.404 6.404 0 0 1-2.43 4.339c-.624-2.25.308-3.628 2.43-4.339z" class="cls-12"/><path d="M279.576 234.5c-.308 1.084-.439 2.27-1.654 2.823-.06-1.298.25-2.382 1.654-2.823z" class="cls-12"/><path fill="#008abf" fill-rule="evenodd" d="M208.984 280.08a75.023 75.023 0 0 0 46.374-14.443c5.67.55 10.15-2.952 15.21-4.472 5.983-1.794 11.105-5.761 17.325-6.96.564-.374 1.124-.75 1.694-1.121a1.337 1.337 0 0 1 .99-.218c1.215.01 2.392-.075 3.025-1.357l-.088.052a2.605 2.605 0 0 0 2.71-1.362l-.074.044a2.55 2.55 0 0 0 2.694-1.361l-.06.04a2.528 2.528 0 0 0 2.688-1.346l-.056.03a2.506 2.506 0 0 0 2.679-1.343l-.054.054c.458-.456.912-.916 1.373-1.378l-.07.05c1.135.019 2.17-.174 2.7-1.358l-.062.033a2.455 2.455 0 0 0 2.68-1.34l-.051.054c.458-.46.92-.923 1.373-1.383l-.077.05c1.144.03 2.178-.148 2.7-1.348l-.049.025a2.397 2.397 0 0 0 2.671-1.338l-.165-.044c2.832.042 5.667.102 8.503.129 8.11.084 12.064 5.91 9.237 13.48-3.96 10.622-11.829 17.793-21.586 22.497-11.565 5.579-23.98 8.532-36.807 10.373-5.63.81-11.238 2.265-17.017 2.567-1.115.058-1.85 1.06-2.413 2.028a273.121 273.121 0 0 1-38.652-5.617c-3.266-.682-6.595-2.369-10.098-.795-.312-1.116.264-2.005.753-2.922z"/><path d="M301.476 247.578a2.53 2.53 0 0 1-2.688 1.346c.48-1.282 1.504-1.467 2.688-1.346z" class="cls-9"/><path d="M298.847 248.884a2.553 2.553 0 0 1-2.693 1.361 2.368 2.368 0 0 1 2.693-1.361z" class="cls-9"/><path d="M296.229 250.2a2.606 2.606 0 0 1-2.712 1.36 2.562 2.562 0 0 1 2.712-1.36z" class="cls-9"/><path d="M293.606 251.508c-.634 1.285-1.81 1.368-3.025 1.358a3.529 3.529 0 0 1 3.025-1.358zm14.442-7.875c-.528 1.184-1.566 1.377-2.7 1.357a2.675 2.675 0 0 1 2.7-1.357z" class="cls-9"/><path d="M310.665 242.323a2.455 2.455 0 0 1-2.68 1.34 2.226 2.226 0 0 1 2.68-1.34zm3.945-2.626c-.522 1.2-1.556 1.379-2.7 1.348a2.636 2.636 0 0 1 2.7-1.348z" class="cls-9"/><path d="M317.233 238.384a2.399 2.399 0 0 1-2.67 1.338 2.053 2.053 0 0 1 2.67-1.338zm-13.134 7.881a2.503 2.503 0 0 1-2.679 1.342c.44-1.35 1.444-1.575 2.678-1.342zm-14.508 6.819c-.57.371-1.13.747-1.694 1.12.564-.373 1.124-.747 1.694-1.12z" class="cls-9"/><path d="M305.418 244.94c-.46.462-.915.923-1.373 1.38-.031-.943.604-1.231 1.373-1.38zm6.568-3.945c-.453.462-.915.922-1.373 1.382.011-.903.612-1.22 1.373-1.382z" class="cls-9"/><path fill="#3468d5" fill-rule="evenodd" d="M192.107 277.053c-.081.742-.166 1.483-.247 2.22-16.706-1.332-31.52 3.834-45.147 13.1-3.008-.296-5.405 1.473-8.068 2.357-32.691 10.843-61.005 29.044-86.81 51.488-2.74.072-4.163-1.2-3.776-3.984 1.645-11.838 1.674-23.911 5.325-35.444 1.806-5.698 4.117-11.04 8.875-15.03.897-.75 3.175-1.49 1.353-3.507a7.687 7.687 0 0 0 .139-1.086c27.045-17.329 57.001-18.71 87.764-16.395 13.732 1.032 27.066 4.165 40.592 6.281z"/><path d="M133.461 355.45c.582-.757.828-.285 1.044.288l-.588.087z" class="cls-3"/><path d="M134.516 355.442l1.404 1.4c-.91-.018-1.529-.34-1.404-1.4z" class="cls-3"/><path d="M135.83 356.753c.467.474.937.951 1.405 1.421-.822-.123-1.411-.48-1.406-1.42z" class="cls-3"/><path d="M137.137 358.06l1.4 1.428a1.696 1.696 0 0 1-1.4-1.427z" class="cls-3"/><g class="cls-1"><path d="M382.62 381.486l50.908-132.558h18.898l54.254 132.558h-19.984l-15.462-40.147h-55.429l-14.557 40.147zm38.249-54.434h44.94l-13.835-36.712q-6.33-16.727-9.404-27.487a168.977 168.977 0 0 1-7.143 25.317zm97.837-59.407v-18.717h16.275v18.717zm0 113.841v-96.028h16.275v96.028zm40.871 0v-96.028h14.648v14.558q5.605-10.218 10.353-13.473a18.075 18.075 0 0 1 10.444-3.255q8.227 0 16.728 5.244l-5.607 15.101a23.28 23.28 0 0 0-11.935-3.527 15.499 15.499 0 0 0-9.585 3.21 17.381 17.381 0 0 0-6.058 8.907 63.413 63.413 0 0 0-2.713 18.989v50.274z" class="cls-2"/><path d="M625.313 381.486v-83.369h-14.378v-12.66h14.378V275.24q0-9.675 1.718-14.377a20.815 20.815 0 0 1 8.274-10.263q5.92-3.933 16.592-3.933a79.679 79.679 0 0 1 15.19 1.628l-2.44 14.196a54.698 54.698 0 0 0-9.585-.905q-7.415 0-10.489 3.165-3.075 3.166-3.074 11.845v8.862h18.716v12.66H641.5v83.368zm47.201 0V248.928h16.275v132.558zm35.446-48.015q0-26.673 14.828-39.513 12.388-10.669 30.202-10.67 19.802 0 32.37 12.975 12.568 12.976 12.569 35.852 0 18.538-5.56 29.162a39.359 39.359 0 0 1-16.186 16.501 47.125 47.125 0 0 1-23.193 5.878q-20.165 0-32.598-12.93T707.96 333.47zm16.727 0q0 18.446 8.048 27.624a26.794 26.794 0 0 0 40.418-.045q8.047-9.222 8.048-28.121 0-17.812-8.093-26.99a26.833 26.833 0 0 0-40.373-.046q-8.048 9.134-8.048 27.578zm110.043 48.015l-29.387-96.028h16.82l15.28 55.428 5.697 20.617q.36-1.537 4.973-19.803l15.281-56.242h16.729l14.376 55.7 4.792 18.355 5.516-18.536 16.457-55.52h15.824l-30.02 96.03h-16.909l-15.28-57.51-3.709-16.366-19.44 73.875z" class="cls-2"/></g></svg>