<svg xmlns="http://www.w3.org/2000/svg" role="img" viewBox="-7.45 -7.20 374.40 153.15"><title>Apache ORC logo</title><defs><style>.cls-1{fill:#62d05d}</style></defs><g id="layer1"><path id="path8099" d="M197.534 50.777a36.157 36.157 0 0 0-36.294 36.02 36.157 36.157 0 0 0 36.294 36.018 36.157 36.157 0 0 0 36.295-36.019 36.157 36.157 0 0 0-36.295-36.019zm-.026 6.574a29.486 29.486 0 0 1 29.599 29.373 29.486 29.486 0 0 1-29.599 29.374 29.486 29.486 0 0 1-29.599-29.373 29.486 29.486 0 0 1 29.599-29.374z" class="cls-1"/><g id="g8046"><path id="path8048" fill="#050704" d="M57.715 138.104c-27.862-4.92-49.106-24.9-56.219-52.875-1.995-7.846-1.995-23.654 0-31.5C7.493 30.145 23.337 12.25 45.33 4.225a69.808 69.808 0 0 1 87.119 36.158c8.224 17.575 8.224 40.616 0 58.191a70.699 70.699 0 0 1-46.587 38.4c-8.373 2.026-20.346 2.507-28.146 1.13zm19.543-34.305c7.905-12.453 7.818-12.113 4.746-18.54-2.014-4.213-10.47-12.78-12.614-12.78-4.033 0-14.95 13.751-14.95 18.832 0 1.064 1.4 4.097 3.112 6.739s4.91 7.588 7.108 10.991 4.3 6.188 4.67 6.188 3.938-5.143 7.928-11.43zM46.092 86.135a46.725 46.725 0 0 1 4.567-9.766c3.29-5.09 11.342-13.416 15.876-16.417l2.855-1.889 3.676 2.699c8.964 6.58 17.67 18.163 19.667 26.167.49 1.966 1.196 3.763 1.568 3.993.623.385 20.42-9.51 21.932-10.962.783-.751-3.597-10.314-7.116-15.54-1.322-1.961-4.461-6.085-6.977-9.163-4.54-5.555-4.577-5.64-4.949-11.25l-.375-5.653-6.186-.218-6.185-.218-7.146-4.844c-3.93-2.665-7.59-4.845-8.132-4.845s-3.994 2.11-7.67 4.687l-6.681 4.688-6.75.375-6.75.375-.375 6.035c-.372 5.983-.409 6.075-4.217 10.5-7.435 8.642-15.242 22.161-14.266 24.705.347.904 20.025 11.47 21.597 11.596.27.022 1.186-2.253 2.037-5.055z"/><path id="path8056" fill="#62d05d" stroke="#62d05d" stroke-linecap="round" stroke-linejoin="round" stroke-width=".2" d="M67.311 112.49c-2.73-3.714-10.126-15.274-11.45-17.899a10.507 10.507 0 0 1-1.137-3.543c0-1.602 2.403-6.442 4.728-9.525 2.472-3.277 6.812-7.582 8.406-8.339 1.238-.587 1.486-.595 2.547-.083 3.181 1.532 9.58 8.661 11.833 13.183 1.763 3.538 1.839 5.375.342 8.308-1.911 3.746-12.738 20.456-13.254 20.456a25.669 25.669 0 0 1-2.015-2.557z"/><g id="text8060"><path id="path8158" d="M192.252 37.956l-2.088-4.73h-10.07l-2.06 4.73h-2.247l8.299-18.5h2.193l8.272 18.5zm-11.285-6.686h8.351l-4.202-9.514z" class="cls-1"/><path id="path8160" d="M204.746 23.976a6.627 6.627 0 0 1 3.462.898 6.167 6.167 0 0 1 2.378 2.51 7.632 7.632 0 0 1 .846 3.648 7.731 7.731 0 0 1-.846 3.647 6.083 6.083 0 0 1-2.326 2.484 6.784 6.784 0 0 1-3.462.872 6.486 6.486 0 0 1-3.25-.793 5.85 5.85 0 0 1-2.167-2.272v8.113h-2.062V24.055h2.062v2.986a5.662 5.662 0 0 1 2.167-2.246 6.215 6.215 0 0 1 3.198-.82zm-.37 12.236a5.006 5.006 0 0 0 2.563-.661 4.777 4.777 0 0 0 1.77-1.876 5.638 5.638 0 0 0 .635-2.696 5.582 5.582 0 0 0-.634-2.67 4.553 4.553 0 0 0-1.771-1.876 4.856 4.856 0 0 0-2.563-.687 4.906 4.906 0 0 0-2.59.687 4.593 4.593 0 0 0-1.771 1.85 6.045 6.045 0 0 0 0 5.392 4.777 4.777 0 0 0 1.77 1.876 5.057 5.057 0 0 0 2.59.66z" class="cls-1"/><path id="path8162" d="M223.689 37.956v-2.167a5.934 5.934 0 0 1-5.101 2.246 5.374 5.374 0 0 1-2.484-.555 4.072 4.072 0 0 1-1.665-1.506 4.023 4.023 0 0 1-.582-2.14 3.44 3.44 0 0 1 1.375-2.881 6.158 6.158 0 0 1 3.832-1.11h4.572v-.873a3.05 3.05 0 0 0-.952-2.405 3.97 3.97 0 0 0-2.775-.872 7.662 7.662 0 0 0-4.413 1.612l-.872-1.453a13.177 13.177 0 0 1 2.722-1.427 8.861 8.861 0 0 1 2.96-.45 5.6 5.6 0 0 1 3.937 1.269 4.58 4.58 0 0 1 1.428 3.515l.026 9.197zm-4.705-1.639a5.35 5.35 0 0 0 3.013-.819 3.928 3.928 0 0 0 1.665-2.325V31.48h-4.334q-3.541 0-3.541 2.273a2.306 2.306 0 0 0 .872 1.876 3.654 3.654 0 0 0 2.325.687z" class="cls-1"/><path id="path8164" d="M240 27.464a5.736 5.736 0 0 0-4.15-1.638 5.006 5.006 0 0 0-2.564.66 4.649 4.649 0 0 0-1.744 1.85 5.484 5.484 0 0 0-.634 2.67 5.696 5.696 0 0 0 .634 2.722 4.694 4.694 0 0 0 1.744 1.823 5.006 5.006 0 0 0 2.564.66 6.367 6.367 0 0 0 2.458-.449 4.933 4.933 0 0 0 1.85-1.347l1.189 1.215a6.485 6.485 0 0 1-2.378 1.77 7.79 7.79 0 0 1-3.198.635 7.184 7.184 0 0 1-3.568-.872 6.526 6.526 0 0 1-2.458-2.484 7.596 7.596 0 0 1-.872-3.674 7.388 7.388 0 0 1 .872-3.62 6.475 6.475 0 0 1 2.458-2.51 7.109 7.109 0 0 1 3.568-.9 7.845 7.845 0 0 1 3.013.556 6.66 6.66 0 0 1 2.352 1.506z" class="cls-1"/><path id="path8166" d="M252.699 23.976a5.142 5.142 0 0 1 3.885 1.453 5.417 5.417 0 0 1 1.4 3.964v8.563h-2.06v-8.034a3.928 3.928 0 0 0-1.058-2.907 3.838 3.838 0 0 0-2.88-1.057 4.469 4.469 0 0 0-3.463 1.453 5.41 5.41 0 0 0-1.242 3.727v6.818h-2.061v-19.61h2.061v8.827q1.375-3.144 5.418-3.197z" class="cls-1"/><path id="path8168" d="M268.083 23.976a5.938 5.938 0 0 1 4.968 2.114 8.171 8.171 0 0 1 1.533 5.682H263.22a5.17 5.17 0 0 0 1.639 3.303 4.896 4.896 0 0 0 3.409 1.242 6.278 6.278 0 0 0 2.378-.449 5.881 5.881 0 0 0 1.93-1.321l1.136 1.189a6.803 6.803 0 0 1-2.458 1.718 8.26 8.26 0 0 1-3.145.581 7.388 7.388 0 0 1-3.62-.872 6.34 6.34 0 0 1-2.432-2.484 7.596 7.596 0 0 1-.872-3.674 7.388 7.388 0 0 1 .872-3.62 6.293 6.293 0 0 1 2.432-2.51 7.161 7.161 0 0 1 3.594-.9zm4.651 6.157a4.55 4.55 0 0 0-1.374-3.224 4.484 4.484 0 0 0-3.277-1.216 4.729 4.729 0 0 0-3.33 1.216 4.83 4.83 0 0 0-1.533 3.224z" class="cls-1"/></g><path id="path2429" d="M68.835 28.318a34.879 34.879 0 0 0-3.976 2.314c-3.39 2.202-6.626 4.64-9.997 6.865-.277.188-.645.077-.96.14-4.187.255-8.376.463-12.562.707a7.72 7.72 0 0 0-.109 1.15c-.2 2.845-.308 5.7-.602 8.536a7.503 7.503 0 0 1-1.32 3.634c-1.377 1.923-3.02 3.634-4.47 5.5a103.396 103.396 0 0 0-8.086 11.8 50.835 50.835 0 0 0-3.913 7.913 6.246 6.246 0 0 0-.462 2.442c.089.523.654.732 1.026 1.024 2.916 1.855 5.964 3.491 8.999 5.142 3.37 1.797 6.753 3.577 10.216 5.19A6.407 6.407 0 0 0 44 91.18c.316-.066.39-.46.54-.7 1.104-2.516 1.726-5.215 2.839-7.728a38.832 38.832 0 0 1 4.992-8.753 86.58 86.58 0 0 1 9.218-9.989 40.49 40.49 0 0 1 5.616-4.478c.732-.479 1.45-.985 2.21-1.415a84.474 84.474 0 0 1 7.597 5.898A65.52 65.52 0 0 1 88.236 77.28a38.56 38.56 0 0 1 4.02 8.108 33.568 33.568 0 0 0 1.758 5.198c.12.176.283.501.536.33a57.043 57.043 0 0 0 5.52-2.396c4.655-2.237 9.275-4.554 13.792-7.06a17.956 17.956 0 0 0 2.457-1.556 9.293 9.293 0 0 0-.829-3.245 74.725 74.725 0 0 0-4.909-9.929 83.078 83.078 0 0 0-6.176-8.652c-1.625-2.11-3.374-4.124-4.968-6.26a9.097 9.097 0 0 1-1.874-4.09c-.313-2.043-.355-4.12-.518-6.181-.074-1.051-.128-2.105-.232-3.153a3.772 3.772 0 0 0-.842-.078c-3.846-.158-7.693-.262-11.538-.424-3.598-2.422-7.155-4.908-10.813-7.24a38.325 38.325 0 0 0-4.12-2.335.598.598 0 0 0-.665 0z" class="cls-1"/></g><path id="path8097" d="M247.368 122.022c-.207-.54-.288-16-.18-34.356l.195-33.375h6.75l.103 16.325c5.191-7.031 12.609-16.278 25.658-16.993l4.239-.082v6.682a29.552 29.552 0 0 0-28.15 19.228c-1.404 3.769-1.093 7.715-1.449 24.34l-.401 18.75-3.195.231c-2.116.153-3.321-.1-3.57-.75z" class="cls-1"/><path id="path8099-3" d="M318.847 50.777a36.157 36.157 0 0 0-36.294 36.02 36.157 36.157 0 0 0 36.294 36.018 36.372 36.372 0 0 0 29.97-15.764l-5.501-3.846a29.64 29.64 0 0 1-54.094-16.48A29.486 29.486 0 0 1 318.82 57.35a29.697 29.697 0 0 1 22.165 9.963l5.319-4.045a36.412 36.412 0 0 0-27.457-12.492z" class="cls-1"/><g id="text8137"><path id="path8171" d="M348.721 48.32v5.896h-1.177V48.32h-2.115v-1.077h5.407v1.077z" class="cls-1"/><path id="path8173" d="M353.286 54.216h-1.178v-6.973h1.836l2.105 4.38 2.105-4.38h1.826v6.973h-1.177V48.77l-2.435 4.839h-.658l-2.424-4.839z" class="cls-1"/></g></g></svg>