<svg xmlns="http://www.w3.org/2000/svg" role="img" viewBox="-6.23 -6.23 324.22 98.22"><title>Apache Ambari logo</title><path fill="#ffcc23" stroke-linecap="round" stroke-linejoin="bevel" stroke-opacity=".918" stroke-width="2.301" d="M42.963 0A42.964 42.964 0 0 0 0 42.963a42.964 42.964 0 0 0 16.953 34.128c-1.797-1.543-3.825-3.56-3.825-3.852 0-.69 2.7-5.649 4.117-7.561 3.063-4.132 6.203-6.86 14.521-12.614 8.918-6.169 12.694-9.509 14.351-12.696.74-1.422.833-1.834.834-3.664 0-1.874-.064-2.137-.699-2.892-.988-1.174-.917-2.076.259-3.299.526-.547 1.173-1.311 1.437-1.698.265-.386 1.098-.976 1.852-1.31.753-.333 1.37-.72 1.37-.859s.296-2.678.658-5.641l.659-5.388-.659-.95c-.362-.523-.658-1.208-.658-1.523 0-1.574 1.516-2.803 3.044-2.468 1.722.379 2.4 2.698 1.208 4.134l-.599.722.705 5.617a562.7 562.7 0 0 0 .726 5.673c.013.031.664.36 1.448.73.896.425 1.604.972 1.907 1.476.265.44.887 1.225 1.383 1.744 1.086 1.135 1.113 1.533.2 2.852-.635.914-.702 1.227-.7 3.205.003 1.812.109 2.39.61 3.34 1.825 3.453 4.958 6.279 13.174 11.88 3.05 2.08 8.196 5.785 8.753 6.294a42.964 42.964 0 0 0 2.898-15.38A42.964 42.964 0 0 0 42.963 0zM51.4 36.62c-.71.03-.996.593-.996 1.884 0 .734.11 1.667.243 2.074.134.408.368 1.229.52 1.826.259 1.01.58 1.347.855.894.063-.106.156-1.628.206-3.384.09-3.168.087-3.192-.497-3.274a1.817 1.817 0 0 0-.331-.02zm4.433.007a3.147 3.147 0 0 0-.354.014l-.862.082-.073 2.92c-.116 4.667.197 4.732 1.45.3.509-1.797.732-3 .585-3.147-.098-.098-.4-.162-.746-.169zm2.05 5.591c-.17-.003-.437.483-.592 1.08a417.94 417.94 0 0 1-.519 1.979c-.13.491-.238.962-.239 1.046-.003.306 1.54 2.273 1.783 2.273.138 0 .539-.57.892-1.268.354-.698.643-1.547.643-1.886 0-.727-1.52-3.215-1.969-3.224zm-9.13.918c-.2-.004-.477.316-1.12 1.166-.582.772-1.059 1.541-1.059 1.708 0 .62 1.299 2.841 1.66 2.841.207 0 .68-.46 1.052-1.023.658-.993.668-1.066.352-2.551-.178-.842-.464-1.72-.634-1.954-.086-.117-.16-.185-.25-.187zm4.596 2.914c-.145.004-.781.882-1.413 1.952-1.536 2.601-4.456 5.675-6.725 7.08-1.005.622-3.781 2.183-6.168 3.47-2.388 1.286-5.318 2.987-6.511 3.78-2.61 1.733-6.81 5.84-8.666 8.476-1.312 1.862-3.844 6.663-3.844 7.287 0 .17-.162.444-.36.608-.103.086-.219.114-.378.075a42.964 42.964 0 0 0 5.94 3.27c.068-.52.86-1.316 1.85-1.781 1.05-.494 1.142-.611 1.07-1.361-.104-1.075-.885-1.206-1.933-.324-.936.788-1.123.802-1.733.128-.443-.489-.447-.569-.06-1.206.642-1.058 1.88-1.59 3.701-1.59 1.49 0 1.605-.042 1.756-.641.206-.822-.229-1.343-1.616-1.938-.851-.365-1.089-.6-1.089-1.082 0-1.583 1.94-1.51 3.73.14.623.574 1.2.974 1.285.89.524-.524-1.216-3.23-2.603-4.049-.958-.565-1.174-1.439-.494-2.003.316-.262.666-.194 1.932.374 1.735.778 6.694 1.443 7.175.961.697-.697-1.103-2.098-2.696-2.098-1.45 0-2.14-1.047-1.266-1.92.539-.54 2.235-.348 4.008.452l1.24.56.611-.71c.336-.39.61-.994.61-1.344 0-.622-1.008-1.89-1.503-1.89-.336 0-.588-.853-.398-1.348.085-.22.324-.465.531-.544.64-.245 2.354.825 3.08 1.922.662 1 .728 1.035 1.723.877 1.387-.22 1.862-.696 1.465-1.471a9.894 9.894 0 0 0-.618-1.031c-.428-.598.02-1.314.887-1.419.454-.054.805.125 1.182.604.602.766 1.09 2.277.898 2.78-.147.381 1.605 1.505 2.07 1.327.56-.216 1.49-3.639 1.321-4.87-.173-1.264.184-1.772 1.15-1.633.477.068.658.363.99 1.615.72 2.725 2.837 6.25 3.754 6.253.696.003 1.595-.84 1.595-1.495 0-.262-.23-.769-.51-1.126-.82-1.043-.515-1.972.65-1.972.725 0 1.317.691 1.89 2.205.443 1.173.526 1.246 1.49 1.319.85.064 1.107-.037 1.558-.61.297-.377.54-.885.54-1.13 0-.616.623-1.074 1.326-.974.83.117.95 1.689.222 2.922-.636 1.078-.664 1.522-.108 1.735.585.225 1.51-.446 2.266-1.644.67-1.061 1.36-1.295 1.902-.642.477.574.069 1.857-.948 2.982-.496.55-.826 1.075-.732 1.169.093.093 1.146.049 2.339-.099 1.558-.193 2.626-.5 3.795-1.094 1.875-.952 2.541-.944 2.654.03.06.519-.125.831-.797 1.344-1.226.935-2.572 3.522-2.396 4.606.024.149.032.275.027.398a42.964 42.964 0 0 0 5.212-6.662c-.228-.086-1.19-.785-2.245-1.637-1.127-.91-3.8-2.683-5.942-3.94-7.057-4.144-9.151-5.491-11.387-7.326-2.046-1.678-4.511-4.438-5.576-6.24-.245-.415-.565-.751-.71-.747zm8.443 1.269c-.241 0-1.425 2.576-1.428 3.107-.003.52 1.997 2.243 2.61 2.25.278.003.685-.474 1.092-1.276.5-.987.589-1.394.387-1.77-.27-.506-2.35-2.311-2.661-2.311zm-17.153.584c-.378-.12-2.66 1.924-2.66 2.382 0 .51 1.236 2.906 1.5 2.906.117 0 .732-.396 1.367-.88.634-.485 1.226-1.071 1.316-1.304.173-.452-1.055-2.955-1.523-3.104zm22.105 3.565c-.47.078-1.618 2.406-1.43 2.897.178.462 1.715 1.404 2.151 1.318.186-.036.645-.62 1.021-1.296l.684-1.23-1.021-.876c-.562-.482-1.194-.848-1.405-.813zm-26.857.32c-.511-.01-2.248 1.386-2.248 1.856 0 .437 1.162 2.355 1.426 2.355.073 0 .584-.258 1.138-.574.58-.33 1.007-.768 1.008-1.031.002-.512-.888-2.368-1.24-2.585a.165.165 0 0 0-.084-.021zm31.31 2.898c-.386.011-.642.355-1.022 1.09-.617 1.193-.464 1.616.84 2.334 1.328.73 1.602.656 2.257-.61.575-1.113.45-1.459-.826-2.267-.574-.364-.95-.556-1.25-.547zm-35.889.343c-.267-.009-.613.2-1.25.622-1.065.705-1.213 1.168-.719 2.252.366.803.96.822 2.268.076 1.147-.655 1.257-1.171.482-2.26-.323-.453-.513-.68-.78-.69zm40.542 2.503c-.135 0-1.446 2.179-1.446 2.404 0 .284 2.436 1.924 2.867 1.93.263.004.657-.415.973-1.035.432-.847.471-1.112.211-1.426-.326-.392-2.385-1.873-2.605-1.873zm-45.075.51c-.345 0-2.583 1.788-2.583 2.064 0 .464.82 1.51 1.183 1.51.198 0 .816-.302 1.375-.672.559-.37 1.016-.835 1.016-1.034 0-.493-.73-1.868-.991-1.868zm50.979 3.271c-.163.127-.349.132-.64.103-.621-.062-.801.067-1.169.838-.533 1.118-.545 1.507-.058 1.91.127.106.204.19.233.29a42.964 42.964 0 0 0 1.634-3.14zm-55.625.304c-.348 0-2.533 2.05-2.533 2.377 0 .357 1.037 1.452 1.374 1.452.145 0 .7-.425 1.232-.945.533-.52.968-1.126.968-1.347 0-.496-.705-1.537-1.04-1.537zm26.636.895l-1.204 2.552c-2.773 5.882-3.397 8.32-2.684 10.48.357 1.082 2.405 3.434 2.99 3.434.308 0 .357-.517.292-3.062-.068-2.636-.017-3.125.364-3.507.344-.343.544-.38.886-.165.594.374.76 1.274.795 4.33.017 1.416.107 2.65.2 2.744.45.45.935.046 1.514-1.263 2.326-5.261 1.675-10.072-1.915-14.14zm-6.704 1.885c-.914-.017-1.909.167-2.714.556-1.83.886-3.224 2.856-2.8 3.958.23.601.987.332 1.188-.423.658-2.46 3.412-3.714 5.727-2.61.727.347.967.368 1.221.11.253-.257.172-.447-.4-.942-.477-.414-1.309-.632-2.222-.65zm15.047 1.371c-.918.043-1.84.293-2.331.692-.867.703-.417.87.992.37 1.59-.564 2.818-.35 3.787.662.712.743 1.401 1.003 1.401.527 0-.552-1.39-1.82-2.291-2.09-.456-.137-1.006-.186-1.558-.16zm-39.178.247c-.42-.028-.905.317-1.497 1.04-.507.619-.922 1.304-.922 1.524 0 .362 1.162 1.436 1.574 1.455.093.005.602-.581 1.131-1.302.912-1.242.942-1.345.588-1.979-.263-.47-.548-.717-.874-.738zm23.72 1.517c-.732.027-1.4.507-1.79 1.323-.509 1.068-.324 1.446 1.192 2.442 1.446.95 1.777.965 1.78.085 0-.386.12-1.13.265-1.655.324-1.166.002-1.905-.932-2.14a1.833 1.833 0 0 0-.515-.055zm15.714 1.127a2.692 2.692 0 0 0-1.087.2c-.817.341-.937.502-.937 1.255 0 1.504.377 1.558 1.936.28.62-.508 1.128-1.028 1.128-1.154 0-.351-.463-.566-1.04-.581zm10.28.62c-.745-.003-1.982.13-3.281.377-4.137.785-7.016 2.853-8.558 6.149-.733 1.565-1.298 4.705-.848 4.705.108 0 1.446-1.206 2.972-2.68 1.526-1.475 2.938-2.681 3.138-2.681.428 0 1.167.682 1.167 1.077 0 .152-1.12 1.333-2.488 2.626-2.22 2.098-2.448 2.392-2.133 2.776a42.964 42.964 0 0 0 8.88-5.733c.125-.603.43-1.714.829-2.985.572-1.82 1.04-3.382 1.04-3.471 0-.106-.27-.157-.718-.16zm-37.159 1.317c-.56.002-.676.095-.676.312 0 .711 2.031 5.524 2.914 6.905 1.56 2.438 3.475 3.938 5.699 4.462 1.388.327 2.054.32 2.267-.025.107-.174-.004-.42-.262-.575-.247-.15-1.13-.77-1.96-1.381-1.621-1.193-1.968-2.074-1.016-2.583.666-.356.595-.382 1.818.64 1.33 1.11 2.944 2.067 3.88 2.297.646.16.702.113.702-.58 0-1.101-.876-3.467-1.757-4.748-2.1-3.052-4.59-4.2-10.051-4.635-.726-.058-1.222-.09-1.558-.089zm-16.27.27a.187.187 0 0 0-.072.005c-.394.116-1.677 2.733-1.688 3.44-.005.36.248.705.694.947.963.522 1.029.507 1.559-.365.256-.422.623-1.24.814-1.82.339-1.027.33-1.069-.37-1.671-.346-.297-.737-.517-.937-.536zm14.674 4.793c-1.121 0-2.65 2.524-2.654 4.383-.003 1.484.364 1.636.57.237.111-.759.444-1.77.738-2.247.295-.477.81-1.047 1.145-1.266.694-.455.812-1.107.201-1.107zm1.317 2.681c-.42.005-.914.522-1.166 1.285-.48 1.452-.222 1.746 1.348 1.54.734-.097 1.42-.259 1.524-.36.187-.185-.935-2.053-1.432-2.384a.475.475 0 0 0-.274-.08zm19.263 3.536c-2.533-.038-4.86.784-6.627 2.373-.984.886-1.4 1.366-1.22 1.584a42.964 42.964 0 0 0 3.308-.369 4.73 4.73 0 0 0 .69-.595c1.035-1.036 2.432-1.55 4.205-1.55.782 0 1.731.223 2.32.481a42.964 42.964 0 0 0 2.042-.678l-.218-.147c-.56-.38-1.644-.752-2.719-.934a11.778 11.778 0 0 0-1.781-.165zm-25.553.46c-.23-.004-.48.103-.729.329-.067.06-.13.108-.193.149a42.964 42.964 0 0 0 1.887.689 2.412 2.412 0 0 1-.09-.255c-.168-.59-.493-.905-.875-.912zm8.477.867c-1.803.01-2.514.141-3.928.721-.419.172-.742.297-1.015.387a42.964 42.964 0 0 0 11.258 1.603c-.003-.038-.005-.077-.011-.122-.059-.41-.614-.83-2.091-1.58-1.895-.962-2.138-1.02-4.213-1.009z"/><path d="M106.132 32.622l-2.667 9.517q-.03.09.03.182.06.09.152.09h5.03q.092 0 .152-.09.06-.091.03-.182l-2.666-9.517q0-.03-.03-.03-.031 0-.031.03zm-7.85 18.366q-.636 0-1-.515t-.151-1.121l6.273-18.851q.273-.728.88-1.182.636-.455 1.393-.455h1.091q.788 0 1.394.455.637.454.88 1.182l6.273 18.85q.212.607-.152 1.122-.363.515-1 .515h-1.09q-.728 0-1.365-.454-.606-.485-.818-1.212l-.97-3.425q-.03-.243-.333-.243h-6.85q-.272 0-.333.243l-.97 3.425q-.182.727-.818 1.212-.606.454-1.364.454zm23.711-9.94v4.121q0 1.213 1.03 2.152 1.061.94 2.455.94 1.607 0 2.546-1.303.94-1.304.94-3.85 0-5.152-3.486-5.152-1.394 0-2.455.94-1.03.94-1.03 2.152zm-2.273 16.608q-.697 0-1.212-.515-.516-.515-.516-1.212V36.956q0-.697.516-1.212.515-.515 1.212-.515h.364q.727 0 1.242.515.515.485.546 1.212v.212q0 .03.03.03t.06-.03q1.092-1.212 2.183-1.727 1.09-.515 2.546-.515 2.849 0 4.546 2.151 1.697 2.122 1.697 6.032 0 3.788-1.788 6-1.758 2.183-4.455 2.183-2.637 0-4.577-1.91-.03-.03-.06-.03t-.03.03v6.547q0 .697-.516 1.212-.485.515-1.182.515zm23.93-14.244q-4.334 0-4.334 2.667 0 .97.545 1.576.576.606 1.455.606 1.727 0 2.788-1.06 1.06-1.092 1.06-2.971v-.546q0-.272-.272-.272zm-3.425 7.88q-2.061 0-3.425-1.334-1.333-1.364-1.333-3.516 0-2.636 2-4.091 2.03-1.455 6.182-1.455h1.243q.273 0 .273-.273v-.242q0-1.394-.667-1.94-.667-.576-2.364-.576-1.758 0-4.304.637-.545.151-1-.182-.454-.364-.454-.94 0-.697.424-1.242.424-.576 1.091-.697 2.303-.515 4.334-.515 3.88 0 5.425 1.394 1.546 1.394 1.546 4.88v8.061q0 .697-.516 1.212-.484.515-1.182.515h-.333q-.727 0-1.242-.484-.516-.516-.546-1.243v-.424q0-.03-.03-.03-.061 0-.061.03-1.849 2.455-5.061 2.455zm19.746 0q-3.758 0-5.788-2.061-2.03-2.092-2.03-6.122 0-3.97 1.939-6.062 1.97-2.121 5.576-2.121 1.607 0 3.092.212.697.09 1.151.636.455.546.455 1.273 0 .606-.485.97-.455.364-1.06.242-1.183-.242-2.637-.242-1.91 0-2.85 1.212-.939 1.213-.939 3.88 0 2.727 1 3.91 1 1.181 3.092 1.181 1.485 0 2.576-.273.576-.151 1.03.213.485.363.485.94 0 .726-.455 1.272-.424.546-1.12.667-1.547.273-3.032.273zm10.481-.304q-.697 0-1.212-.515-.485-.515-.485-1.212V29.986q0-.698.485-1.213.515-.515 1.212-.515h.606q.697 0 1.212.515.516.515.516 1.213v7.03q0 .031.03.031t.06-.03q2.122-2.091 4.668-2.091 2.758 0 4 1.576 1.243 1.576 1.243 5.394v7.365q0 .697-.515 1.212t-1.213.515h-.484q-.698 0-1.213-.515-.515-.515-.515-1.212v-6.759q0-2.636-.576-3.485-.545-.849-2.091-.849-1.212 0-2.303 1.092-1.091 1.09-1.091 2.333v7.668q0 .697-.516 1.212-.515.515-1.212.515zm22.808-13.244q-1.546 0-2.394.88-.818.848-1.03 2.757 0 .243.242.243h5.94q.243 0 .243-.243-.122-3.637-3-3.637zm.758 13.548q-3.97 0-6.122-2.061-2.122-2.092-2.122-6.122 0-4.001 1.91-6.092 1.909-2.091 5.516-2.091 6.728 0 6.91 7.637.03.727-.516 1.212-.545.485-1.273.485h-8.273q-.273 0-.213.273.213 2.03 1.334 2.97 1.152.91 3.334.91 1.364 0 3.03-.455.546-.152 1 .182.486.333.486.909 0 .697-.425 1.242-.394.516-1.06.637-1.698.364-3.516.364zm25.885-18.67l-2.667 9.517q-.03.09.03.182.06.09.151.09h5.031q.091 0 .152-.09.06-.091.03-.182l-2.667-9.517q0-.03-.03-.03t-.03.03zm-7.85 18.366q-.636 0-1-.515t-.152-1.121l6.274-18.851q.273-.728.879-1.182.636-.455 1.394-.455h1.091q.788 0 1.394.455.637.454.88 1.182l6.273 18.85q.212.607-.152 1.122-.364.515-1 .515h-1.091q-.727 0-1.364-.454-.606-.485-.818-1.212l-.97-3.425q-.03-.243-.333-.243h-6.85q-.273 0-.333.243l-.97 3.425q-.182.727-.818 1.212-.606.454-1.364.454zm21.407 0q-.697 0-1.212-.515-.485-.515-.485-1.212V36.956q0-.697.485-1.212.515-.515 1.212-.515h.425q.697 0 1.182.485.515.485.545 1.182v.212q0 .03.03.03.061 0 .061-.03 1.788-2.182 4.031-2.182 1.364 0 2.182.515.849.515 1.485 1.818 0 .03.06.03.031 0 .061-.03 1.91-2.333 4.304-2.333 2.516 0 3.607 1.363 1.121 1.364 1.121 4.698v8.274q0 .697-.515 1.212-.485.515-1.182.515h-.515q-.698 0-1.213-.515-.515-.515-.515-1.212v-7.668q0-2.212-.424-2.91-.425-.696-1.637-.696-.788 0-1.576.727t-.788 1.455v9.092q0 .697-.515 1.212t-1.212.515h-.516q-.697 0-1.212-.515-.485-.515-.485-1.212v-7.668q0-2.182-.454-2.879-.425-.727-1.637-.727-.788 0-1.576.727t-.788 1.455v9.092q0 .697-.515 1.212t-1.212.515zm27.258-9.94v4.121q0 1.213 1.03 2.152 1.03.94 2.455.94 1.606 0 2.546-1.273.94-1.303.94-3.88 0-5.152-3.486-5.152-1.425 0-2.455.94t-1.03 2.152zm-2.274 9.94q-.697 0-1.212-.515t-.515-1.212V29.986q0-.698.515-1.213.515-.515 1.212-.515h.607q.697 0 1.212.515t.515 1.213v6.819q0 .03.03.03t.061-.03q1.97-1.88 4.546-1.88 2.85 0 4.546 2.152 1.728 2.122 1.728 6.032 0 3.788-1.788 6-1.788 2.183-4.486 2.183-2.758 0-4.758-2.243-.03-.03-.06-.03-.031 0-.031.03l-.03.212q-.03.727-.546 1.243-.485.484-1.212.484zm23.956-7.576q-4.334 0-4.334 2.667 0 .97.546 1.576.575.606 1.454.606 1.728 0 2.789-1.06 1.06-1.092 1.06-2.971v-.546q0-.272-.272-.272zm-3.425 7.88q-2.06 0-3.424-1.334-1.334-1.364-1.334-3.516 0-2.636 2-4.091 2.03-1.455 6.183-1.455h1.243q.272 0 .272-.273v-.242q0-1.394-.666-1.94-.667-.576-2.364-.576-1.758 0-4.304.637-.546.151-1-.182-.455-.364-.455-.94 0-.697.425-1.242.424-.576 1.09-.697 2.304-.515 4.335-.515 3.879 0 5.425 1.394 1.545 1.394 1.545 4.88v8.061q0 .697-.515 1.212-.485.515-1.182.515h-.333q-.728 0-1.243-.484-.515-.516-.545-1.243v-.424q0-.03-.03-.03-.061 0-.061.03-1.85 2.455-5.062 2.455zm14.715-.304q-.696 0-1.211-.515-.516-.515-.516-1.212V36.956q0-.697.516-1.212.515-.515 1.212-.515h.606q.697 0 1.212.515.516.515.516 1.212v1.273q0 .03.03.03.06 0 .06-.03.88-1.212 2.304-1.97 1.424-.788 3.122-.97.636-.06 1.09.425.455.454.455 1.09 0 .637-.454 1.092-.455.454-1.091.515-5.365.424-5.365 5.455v5.395q0 .697-.515 1.212t-1.212.515zm15.59 0q-.697 0-1.212-.515t-.515-1.212V36.956q0-.697.515-1.212t1.212-.515h.788q.697 0 1.212.515.516.515.516 1.212v12.305q0 .697-.516 1.212-.515.515-1.212.515zm0-19.093q-.697 0-1.212-.515-.515-.516-.515-1.213v-.181q0-.698.515-1.213.515-.515 1.212-.515h.788q.697 0 1.212.515.516.515.516 1.213v.181q0 .697-.516 1.213-.515.515-1.212.515z" fill="#767876" stroke-width=".5"/></svg>