<svg xmlns="http://www.w3.org/2000/svg" role="img" viewBox="-6.09 -6.09 316.94 94.69"><title>Apache Falcon logo</title><defs><style>.cls-1{fill:#28709b}</style></defs><g id="layer1"><path id="path1566" d="M33.478 80.558c-5.823-3.125-12.636-10.5-14.859-16.083-1.495-3.758-1.733-5.663-1.714-13.738.025-10.551 1.279-16.537 4.86-23.19 1.205-2.236 2.06-4.196 1.9-4.356-.79-.79-7.502 3.326-10.207 6.26-6.65 7.215-8.832 18.136-6.349 31.786.745 4.096-.88 1.295-2.741-4.726-3.113-10.068-.637-19.284 7.16-26.65a39.566 39.566 0 0 1 15.092-9.136l4.414-1.519-2.33 2.453c-7.517 7.909-9.086 22.473-3.982 36.953 2.842 8.063 7.523 16.829 11.1 20.789 1.43 1.581 2.462 3.012 2.295 3.18s-2.254-.744-4.639-2.023zm14.687-4.324c-10.912-3.88-18.18-11.67-22.037-23.622-2.987-9.256-1.785-21.248 2.712-27.045 1.038-1.338 1.06-1.274.258.795-.48 1.237-.868 5.287-.863 9a32.656 32.656 0 0 0 1.932 12.375C34.47 60.314 42.744 71.263 51.104 75.44c5.248 2.623 3.519 3.09-2.939.794zM16.54 72.586a34.136 34.136 0 0 1-7.032-25.602c.833-5.383 4.109-13.166 6.943-16.497l1.595-1.875-1.431 3c-4.859 10.18-4.302 26.573 1.35 39.758.844 1.969 1.398 3.716 1.23 3.883s-1.361-1.033-2.655-2.667zm34.421-7.39a27.799 27.799 0 0 1-17.33-16.673c-1.83-4.832-2.636-14.76-1.556-19.161l.736-3 .075 2.892c.12 4.593 2.23 11.683 5.118 17.191 3.063 5.843 11.041 14.827 15.917 17.924 3.747 2.38 2.507 2.726-2.96.826zM44.17 50.2c-6.065-6.906-9.785-15.79-9.623-22.98.048-2.122.23-3.183.405-2.358 1.162 5.498 1.05 5.436 2.434 1.346a23.678 23.678 0 0 1 4.067-6.924 19.712 19.712 0 0 0 2.757-3.482c0-.236-1.163-.33-2.584-.207a6.36 6.36 0 0 1-3.026-.219c-.817-.817 4.22-1.384 5.623-.633a15.216 15.216 0 0 0 5.222.744c3.085 0 4.198.365 5.701 1.867 1.939 1.94 2.2 1.765 2.8-1.867.249-1.502.33-1.38.412.612a9.383 9.383 0 0 1-.695 3.978c-.777 1.45-.838 1.44-2.285-.399-3.622-4.605-10.227-3.713-13.93 1.883-1.766 2.667-2.156 4.147-2.377 9.008-.318 6.982.939 11.328 5.168 17.87a28.19 28.19 0 0 1 2.658 4.548 19.848 19.848 0 0 1-2.728-2.787zM.001 43.185C-.063 36.681 1.718 31.897 5.91 27.31a33.956 33.956 0 0 1 7.67-6.095c3.291-1.713 3.604-1.782 1.755-.39C8.242 26.165 3.846 32.845 1.48 41.88L.043 47.362zm12.042-31.448c2.585-3.838 7.675-8.587 10.942-10.21 4.257-2.114 14.755-2.012 17.85.175a26.955 26.955 0 0 0 6.536 2.826 19.927 19.927 0 0 1 6.375 3.099l2.088 1.863-3.375-1.833a32.736 32.736 0 0 0-7.04-2.653 16.78 16.78 0 0 1-5.49-2.255C37.158.568 32.324.129 27.265 1.6c-5.26 1.529-9.615 4.423-13.83 9.19-2.343 2.648-2.702 2.893-1.391.947zm8.916.097c3.772-2.148 7.842-2.718 9.77-1.368 1.458 1.021 1.17 1.127-3.91 1.442a40.799 40.799 0 0 0-6.985.88c-.825.298-.318-.132 1.125-.954zm13.764-1.366a2.785 2.785 0 0 1-2.003-1.816c-.594-2.273 2.6-3.511 5.73-2.221 2.8 1.154 3.911 1.23 6.697.462 1.607-.443 2.062-.312 2.062.593 0 1.56-1.525 2.424-2.238 1.27-.444-.718-.94-.726-2.228-.037-1.372.734-1.818.665-2.6-.403-.864-1.182-.982-1.187-1.414-.06a2.106 2.106 0 0 1-1.808 1.242c-1.137.009-1.169.12-.211.739 1.151.744.83.781-1.986.23zm1.236-2.106c0-.619-.337-1.125-.75-1.125s-.75.506-.75 1.125.338 1.125.75 1.125.75-.506.75-1.125z" class="cls-1"/><g id="text1570"><path id="path2664" d="M83.097 18.138l4.617 40.661h-8.257l-.403-7.308h-2.893l-.479 7.308H67.33l4.1-40.661zm-4.272 26.145q-.614-6.907-1.227-17.054-1.226 11.654-1.532 17.054z" class="cls-1"/><path id="path2666" d="M89.094 18.138h8.123a14.692 14.692 0 0 1 5.058.678 5.474 5.474 0 0 1 2.663 1.959 7.482 7.482 0 0 1 1.207 3.114 34.925 34.925 0 0 1 .326 5.626v3.541a18.986 18.986 0 0 1-.613 5.676 4.92 4.92 0 0 1-2.26 2.738 8.392 8.392 0 0 1-4.273.954H97.16v16.375h-8.066zm8.066 6.956v10.348q.345.026.594.026a1.637 1.637 0 0 0 1.533-.703 6.613 6.613 0 0 0 .44-2.989v-3.34a4.856 4.856 0 0 0-.498-2.713 2.587 2.587 0 0 0-2.07-.628z" class="cls-1"/><path id="path2668" d="M121.76 18.138l4.617 40.661h-8.257l-.402-7.308h-2.893l-.48 7.308h-8.353l4.1-40.661zm-4.272 26.145q-.613-6.907-1.226-17.054-1.227 11.654-1.533 17.054z" class="cls-1"/><path id="path2670" d="M146.629 35.869h-8.066v-7.083a15.757 15.757 0 0 0-.269-3.842 1.067 1.067 0 0 0-1.13-.779 1.19 1.19 0 0 0-1.264.93 18.382 18.382 0 0 0-.269 4.018V48a17.125 17.125 0 0 0 .269 3.867 1.15 1.15 0 0 0 1.207.904 1.128 1.128 0 0 0 1.168-.904 18.507 18.507 0 0 0 .288-4.244v-5.099h8.066v1.583a39.923 39.923 0 0 1-.69 8.94 8.881 8.881 0 0 1-3.008 4.622 8.504 8.504 0 0 1-5.729 1.984 9.638 9.638 0 0 1-5.843-1.683 7.963 7.963 0 0 1-3.046-4.646 39.827 39.827 0 0 1-.748-8.966v-11.88q0-4.395.23-6.58a11.016 11.016 0 0 1 1.36-4.244 8.344 8.344 0 0 1 3.162-3.19 9.094 9.094 0 0 1 4.656-1.18 9.277 9.277 0 0 1 5.881 1.808 8.373 8.373 0 0 1 3.047 4.52 34.992 34.992 0 0 1 .728 8.39z" class="cls-1"/><path id="path2672" d="M168.106 18.138v40.661h-8.066V41.721h-2.414v17.078h-8.066V18.138h8.066v14.541h2.414V18.138z" class="cls-1"/><path id="path2674" d="M171.325 18.138h13.45v8.137h-5.384v7.71h5.039v7.736h-5.04v8.94h5.92V58.8h-13.985z" class="cls-1"/><path id="path2676" d="M194.546 18.138h13.66v8.137h-5.594v7.71h4.981v7.736h-4.981v17.078h-8.066z" class="cls-1"/><path id="path2678" d="M223.342 18.138l4.617 40.661h-8.257l-.403-7.308h-2.893l-.479 7.308h-8.353l4.1-40.661zm-4.273 26.145q-.613-6.907-1.226-17.054-1.226 11.654-1.533 17.054z" class="cls-1"/><path id="path2680" d="M237.405 18.138v32.524h4.904v8.137h-12.97V18.138z" class="cls-1"/><path id="path2682" d="M262.503 35.869h-8.066v-7.083a15.758 15.758 0 0 0-.268-3.842 1.067 1.067 0 0 0-1.13-.779 1.19 1.19 0 0 0-1.265.93 18.38 18.38 0 0 0-.268 4.018V48a17.123 17.123 0 0 0 .268 3.867 1.15 1.15 0 0 0 1.207.904 1.128 1.128 0 0 0 1.169-.904 18.507 18.507 0 0 0 .287-4.244v-5.099h8.066v1.583a39.922 39.922 0 0 1-.69 8.94 8.881 8.881 0 0 1-3.008 4.622 8.504 8.504 0 0 1-5.728 1.984 9.638 9.638 0 0 1-5.844-1.683 7.964 7.964 0 0 1-3.046-4.646 39.827 39.827 0 0 1-.747-8.966v-11.88q0-4.395.23-6.58a11.013 11.013 0 0 1 1.36-4.244 8.344 8.344 0 0 1 3.161-3.19 9.094 9.094 0 0 1 4.656-1.18 9.277 9.277 0 0 1 5.882 1.808 8.373 8.373 0 0 1 3.046 4.52 34.99 34.99 0 0 1 .728 8.39z" class="cls-1"/><path id="path2684" d="M283.865 41.947q0 6.128-.23 8.69a11.423 11.423 0 0 1-1.379 4.646 8.111 8.111 0 0 1-3.123 3.24 9.09 9.09 0 0 1-4.598 1.13 9.433 9.433 0 0 1-4.483-1.055 8.104 8.104 0 0 1-3.18-3.214 11.45 11.45 0 0 1-1.438-4.647q-.23-2.511-.23-8.79V34.99q0-6.128.211-8.665a11.868 11.868 0 0 1 1.38-4.671 8.242 8.242 0 0 1 3.142-3.24 9.843 9.843 0 0 1 9.062-.05 7.896 7.896 0 0 1 3.2 3.19 11.45 11.45 0 0 1 1.437 4.646q.23 2.511.23 8.79zM275.8 28.585a15.575 15.575 0 0 0-.249-3.616.96.96 0 0 0-.977-.804 1.068 1.068 0 0 0-.977.653 11.889 11.889 0 0 0-.326 3.768v18.987a25.437 25.437 0 0 0 .211 4.37.999.999 0 0 0 1.035.829q.824 0 1.054-.955a26.238 26.238 0 0 0 .23-4.546z" class="cls-1"/><path id="path2686" d="M304.902 18.138v40.661h-7.07l-4.195-18.485V58.8h-6.744V18.138h6.744l4.521 18.309v-18.31z" class="cls-1"/></g></g></svg>