<svg xmlns="http://www.w3.org/2000/svg" role="img" viewBox="-2.90 -2.90 150.54 150.54"><title>Apex logo</title><path fill="#06a9da" stroke-width=".265" d="M66.825 144.71c-16.039-1.495-29.898-7.284-41.775-17.448C11.956 116.057 3.358 100.441.64 82.927c-.853-5.493-.853-15.598 0-21.09C3.357 44.322 11.955 28.706 25.05 17.5 35.664 8.418 47.924 2.8 61.837.64c5.492-.852 15.597-.852 21.09 0 13.913 2.16 26.172 7.78 36.787 16.862 13.093 11.205 21.692 26.821 24.41 44.336.852 5.492.852 15.597 0 21.09-2.16 13.913-7.779 26.172-16.862 36.787-11.173 13.057-26.962 21.764-44.2 24.374-3.562.54-13.176.908-16.237.623zm-28.838-28.672l1.27-2.778h10.724l1.232 2.778 1.232 2.778 2.063.078c2.03.077 2.062.068 1.936-.53-.267-1.27-11.41-25.622-11.683-25.531-.322.107-12.068 25.182-12.068 25.764 0 .296.42.357 2.012.296l2.011-.077zm3.525-7.035c-.09-.236.455-1.768 1.248-3.505 1.448-3.175 1.769-3.748 2.094-3.748.31 0 3.247 7.095 3.062 7.396-.104.167-1.376.277-3.207.277-2.528 0-3.063-.07-3.197-.42zm21.813 4.61l.072-5.204 2.045-.172c4.099-.345 6.465-1.587 7.86-4.126.697-1.27.788-1.692.793-3.684.006-2.648-.525-4.048-2.14-5.647-1.904-1.884-3.473-2.29-8.847-2.29h-3.69v26.481l1.917-.077 1.919-.078zm.06-13.324v-4.163l2.051.122c1.202.071 2.412.31 2.922.576 2.603 1.356 2.548 5.729-.087 7.035-.431.213-1.707.434-2.835.49l-2.05.103zm29.318 17.116c.046-.812-.051-1.57-.23-1.785-.25-.3-1.313-.376-5.279-.376-4.284 0-4.988-.057-5.127-.418-.088-.23-.16-1.888-.16-3.683s.072-3.452.16-3.682c.139-.361.833-.419 5.018-.419 5.43 0 5.405.01 5.405-1.945 0-1.822.183-1.76-5.135-1.76-3.39 0-4.907-.093-5.13-.317-.36-.359-.449-5.946-.104-6.49.149-.234 1.641-.344 5.354-.396l5.147-.072v-3.44H78.07l-.069 12.833c-.038 7.057-.01 12.983.06 13.167.1.261 1.714.32 7.345.264l7.216-.07zm9.825-3.086c1.506-2.546 2.89-4.755 3.075-4.91.258-.213.55.084 1.23 1.256l2.855 4.91 1.962 3.373h2.062c1.337 0 2.061-.103 2.061-.294 0-.162-1.667-3.176-3.704-6.699-2.037-3.522-3.704-6.588-3.704-6.814 0-.225 1.607-3.07 3.572-6.32 1.964-3.252 3.572-6.011 3.572-6.132 0-.121-.983-.186-2.183-.144l-2.183.077-2.451 4.101c-1.349 2.256-2.602 4.135-2.785 4.175-.188.042-1.363-1.737-2.708-4.1l-2.375-4.176-1.958-.078c-1.078-.043-2.054.016-2.17.133-.117.116 1.33 2.89 3.215 6.164 1.884 3.273 3.427 6.112 3.427 6.308 0 .196-1.681 3.155-3.737 6.577-2.055 3.422-3.795 6.446-3.867 6.722-.12.46.04.5 1.963.5h2.095zM77.454 82.326c.658-.291.787-.879.462-2.101-.516-1.938-1.536-2.55-2.492-1.493-.263.29-.58.529-.702.529-.728 0 .45-5.056 1.898-8.145.58-1.236 1.053-2.391 1.053-2.567 0-.175-.922-.585-2.05-.91-1.128-.324-3.334-1.196-4.903-1.937-1.724-.815-2.946-1.252-3.09-1.105-.458.47-2.63 6.107-3.206 8.324-.428 1.647-.59 3.077-.611 5.406l-.03 3.168.722.35c.398.193 1.648.454 2.779.581 2.35.264 9.507.194 10.17-.1zm33.67-.402c.25-.21 1.118-1.741 1.927-3.405 1.457-2.995 1.47-3.043 1.328-4.913-.136-1.799-2.946-13.277-4.348-17.76-1.02-3.262-2.569-6.018-4.433-7.888-1.43-1.435-13.944-15.087-15.357-16.754-.521-.615-4.462-2.479-5.241-2.479-.291 0-.484.522-.71 1.919-.436 2.684-.659 3.508-.945 3.49-.136-.007-1.164-1.077-2.284-2.376-1.12-1.299-2.145-2.398-2.277-2.442-.132-.044-1.292 1.085-2.577 2.509s-2.481 2.625-2.658 2.67c-.228.057-.374-.678-.498-2.514-.19-2.795-.275-3.26-.595-3.246-.114.005-1.632.868-3.373 1.918l-3.167 1.909-2.587 3.572c-6.81 9.4-15.402 23.174-18.755 30.064-1.545 3.175-2.349 6.652-2.54 10.98-.157 3.594-.156 3.608.477 4.02 1.057.69 3.8.97 9.535.971 4.944.002 5.518-.045 6.072-.493.584-.473.597-.559.288-1.899-.178-.771-.455-1.56-.615-1.753-.392-.473-1.67-.445-2.078.046-.38.457-.952.519-1.193.129-.298-.483.625-3.03 1.704-4.698.58-.9 2.407-3.096 4.06-4.883 2.582-2.793 3.445-3.98 6.161-8.48 1.737-2.879 3.428-5.557 3.757-5.954l.598-.72-.64 1.72a117.55 117.55 0 0 1-1.719 4.233l-1.078 2.514.783.675c1.856 1.6 7.541 3.883 11.5 4.617 4.978.924 16.055 1.73 16.798 1.223.323-.22.165-.953-1.013-4.71l-1.498-4.782c-.057-.182-.007-.33.112-.33.658 0 7.074 14.772 7.724 17.783.385 1.784.227 2.088-1.324 2.553-1.945.582-2.862 2.808-1.34 3.25.363.106 3.114.17 6.111.143 4.292-.04 5.547-.13 5.907-.43zM94.6 81.91c.269-.144.699-.829.956-1.522.257-.693.71-1.61 1.005-2.04.44-.64.53-1.155.493-2.854-.051-2.396-.53-5.114-.96-5.456-.34-.268-8.858-.585-9.002-.334-.051.09.066 1.057.26 2.148.194 1.092.358 2.973.364 4.181l.01 2.196-.992.408c-1.956.805-2.986 2.36-2.13 3.217.397.396 9.267.446 9.996.056zM48.058 50.264c2.045-.6 4.256-1.834 5.323-2.969.504-.536 2.687-3.475 4.851-6.531a707.049 707.049 0 0 1 7.323-10.127c1.863-2.514 3.387-4.726 3.387-4.915 0-.476-11.189-9.743-12.305-10.191-1.603-.644-2.645-.227-4.761 1.905-1.823 1.837-8.085 9.924-8.658 11.182-.21.463-.178 1.041.128 2.282l.41 1.662-1.827 1.81c-1.004.994-1.827 1.852-1.827 1.905 0 .053.139.4.307.77.286.628.201.776-1.27 2.21-2.09 2.04-2.426 2.853-1.827 4.423.51 1.336 1.253 1.979 2.286 1.979.967 0 5.167-3.027 5.973-4.305.767-1.215 1.066-1.121.931.291-.068.71-.33 1.268-.803 1.713-1.404 1.321-4.873 3.624-5.46 3.624-.896 0-1.308.618-.73 1.097.553.461 3.472 2.21 4.033 2.418.802.297 3.118.177 4.516-.233zm28.44-20.462c1.01-1.154 2.017-2.107 2.236-2.117.22-.01.91.62 1.533 1.401 1.352 1.695 2.379 2.693 2.572 2.5.077-.078.3-1.054.493-2.17.194-1.115.432-2.107.528-2.203.097-.096.774.04 1.505.303.732.263 1.402.406 1.49.318.248-.248-4.92-5.385-6.327-6.288-1.326-.851-2.889-1.204-4.045-.914-.381.096-1.227.666-1.88 1.267-1.14 1.052-5.926 6.86-5.926 7.193 0 .364.659.102 2.685-1.067 2.47-1.425 2.595-1.372 2.607 1.097.008 1.684.208 2.778.508 2.778.1 0 1.01-.944 2.02-2.098z"/><path fill="#f2f2f2" stroke-linecap="round" stroke-width="13.498" d="M99.775 82.196c-.972-.116-1.476-.558-1.325-1.16.223-.889.73-1.373 2.13-2.038l1.418-.673-.094-1.167c-.147-1.8-3.09-9.306-6.081-15.506-2.262-4.688-2.45-4.3-.69 1.42.744 2.418 1.328 4.612 1.297 4.878l-.056.482-3.024-.03c-5.263-.05-12.024-.808-15.686-1.756-3.488-.902-7.984-2.857-9.525-4.141-.592-.493-.627-.58-.436-1.084.114-.302.85-2.122 1.634-4.045.786-1.923 1.428-3.624 1.429-3.78 0-.392-1.036 1.095-3.16 4.536-3.338 5.41-4.907 7.64-7.164 10.184-4.125 4.65-5.111 6.103-5.838 8.605-.296 1.016-.297 1.12-.01 1.406.288.287.365.279 1.05-.115 1.393-.802 2.08-.512 2.54 1.074.735 2.533.498 2.687-4.323 2.804-4.125.1-9.001-.189-10.448-.62-1.385-.412-1.452-.603-1.31-3.726.202-4.436.867-7.67 2.211-10.754 2.395-5.495 11.867-20.759 19.313-31.12l2.349-3.27 1.973-1.186c2.975-1.787 4.526-2.63 4.636-2.52.055.055.216 1.268.359 2.696.142 1.428.356 2.69.474 2.805.158.153.872-.476 2.713-2.39 1.374-1.43 2.547-2.6 2.605-2.6.059 0 1.058 1.064 2.22 2.363 1.162 1.3 2.227 2.362 2.367 2.362.34 0 .432-.283.953-2.898.245-1.23.494-2.286.553-2.346.184-.184 1.64.336 3.355 1.197 1.601.804 1.721.914 5.386 4.938 4.858 5.334 7.93 8.678 10.552 11.488 2.671 2.862 3.334 3.742 4.33 5.752 1.278 2.575 1.936 4.667 3.775 12.013 1.445 5.771 2.035 8.637 2.068 10.045.032 1.332.012 1.392-1.437 4.298-.915 1.836-1.643 3.06-1.932 3.25-.39.256-1.254.313-5.43.362-2.73.031-5.305.017-5.72-.033z"/><path fill="#f2f2f2" stroke-linecap="round" stroke-width="13.498" d="M85.986 82.005c-.62-.045-1.237-.173-1.37-.283-.756-.628.29-2.13 2.045-2.936l1.114-.511-.004-1.992a33.22 33.22 0 0 0-.277-3.882c-.151-1.04-.277-2.094-.28-2.344l-.006-.453 3.638.142c2 .077 4.017.196 4.48.264.802.117.854.163 1.085.961.333 1.15.685 4.846.554 5.807-.059.433-.45 1.466-.869 2.297-.419.831-.762 1.583-.763 1.67 0 .088-.198.406-.438.707l-.438.547-3.672.044c-2.02.024-4.18.007-4.8-.038zm-18.811.322c-1.533-.192-2.666-.492-3.037-.804-.244-.205-.267-.743-.157-3.736.14-3.84.318-4.678 1.86-8.78 1.265-3.37 1.714-4.26 2.146-4.26.211 0 1.369.438 2.573.975a77.415 77.415 0 0 0 4.432 1.778c1.233.442 2.324.886 2.424.986.118.118-.12.882-.667 2.143-1.807 4.166-2.854 8.67-2.016 8.67.089 0 .414-.213.723-.473.96-.808 1.596-.548 2.2.899.446 1.064.386 2.154-.134 2.443-.505.282-8.395.404-10.347.16zm7.124-50.72c-.066-.171-.177-1.204-.248-2.296-.087-1.346-.214-2.055-.395-2.205-.211-.176-.729.02-2.51.945-1.235.641-2.299 1.166-2.365 1.166-.343 0 4.433-5.837 5.895-7.203 1.246-1.166 1.643-1.352 2.854-1.342 1.83.017 3.098.82 6.36 4.03 1.56 1.535 2.775 2.853 2.7 2.928-.075.074-.64-.017-1.257-.204-.616-.187-1.24-.293-1.388-.237-.167.064-.419.862-.674 2.134-.223 1.118-.456 2.082-.516 2.142-.1.1-.627-.422-2.888-2.872-.45-.488-.974-.888-1.163-.888-.194 0-1.204.92-2.314 2.107-1.514 1.617-2 2.034-2.091 1.795zM42.701 49.962c-2.157-1.199-3.334-2.039-3.273-2.335.033-.159.528-.479 1.1-.71 1.896-.77 5.23-3.25 5.769-4.291.296-.574.38-1.985.126-2.142-.083-.051-.645.458-1.248 1.132-1.77 1.979-5.072 4.135-5.99 3.912-.65-.159-1.3-.794-1.702-1.665-.706-1.53-.427-2.285 1.651-4.466 1.403-1.472 1.57-1.847 1.21-2.715-.13-.315.148-.686 1.652-2.209l1.808-1.83-.315-1.435c-.485-2.208-.461-2.317.951-4.287 3.97-5.538 7.673-9.899 9.307-10.956 1.008-.654 2.254-.731 3.128-.195 1.325.812 8.499 6.654 10.894 8.872l1.115 1.033-.371.63c-.204.346-2.273 3.247-4.597 6.448-2.325 3.2-4.983 6.882-5.907 8.181-4.312 6.061-5.132 6.985-7.134 8.04-2.015 1.064-3.264 1.427-5.245 1.527-1.757.089-1.819.078-2.929-.54zm-9.921 68.67c0-.227 1.225-2.965 4.114-9.19 5.932-12.781 7.747-16.467 7.988-16.227.561.562 11.52 24.685 11.52 25.36 0 .156-.582.222-1.949.222h-1.95l-1.22-2.787-1.22-2.788H39.19l-1.268 2.786-1.269 2.787h-1.937c-1.065.002-1.937-.072-1.937-.163zm15.08-9.356c.246-.151-.29-1.79-1.553-4.747-1.012-2.37-1.37-2.99-1.635-2.827-.25.154-1.707 3.074-2.545 5.1-.761 1.838-.78 2.37-.087 2.58.553.167 5.524.077 5.82-.106zm11.566-3.614V92.528l2.788.005c3.953.007 6.3.266 7.538.832 1.35.62 2.969 2.179 3.602 3.474.446.912.522 1.33.591 3.27.077 2.162.063 2.259-.496 3.454-1.35 2.883-3.776 4.23-8.302 4.607l-1.652.138-.133.756c-.074.416-.139 2.776-.145 5.245l-.01 4.488h-3.78zm8.835-1.822c2.047-1.016 2.709-3.731 1.416-5.814-.285-.459-.815-.986-1.18-1.172-.762-.391-2.672-.732-4.11-.734l-.992-.001v8.369l1.984-.1c1.564-.08 2.173-.196 2.882-.548zm10.112 14.832c-.186-.075-.237-2.858-.237-13.025v-12.93H92.5v3.213l-.614.012c-6.157.123-9.638.325-9.793.569-.187.295-.238 5.5-.06 6.162.06.226.25.466.422.533.172.066 2.334.17 4.805.231 3.177.079 4.588.181 4.82.35.255.188.319.494.292 1.413-.019.645-.129 1.268-.245 1.385-.139.138-1.851.253-4.93.332-3.307.085-4.802.19-4.999.354-.42.349-.415 7.4.005 7.749.205.17 1.529.259 4.678.314 5.707.101 5.557.075 5.712.996.068.404.066 1.124-.006 1.6l-.13.867-6.923-.015c-3.808-.008-7.03-.058-7.16-.11zm17.455-.03c-.053-.085 1.099-2.19 2.56-4.678a834.524 834.524 0 0 0 3.868-6.646l1.213-2.125-.502-.994c-.276-.546-1.425-2.63-2.552-4.629-1.829-3.243-3.569-6.525-3.569-6.73 0-.2 1.294-.294 2.56-.187l1.41.12 1.63 2.854c.896 1.57 2.018 3.443 2.493 4.164l.864 1.31.551-.652c.303-.359 1.506-2.224 2.673-4.145l2.121-3.493 1.401-.138c.77-.076 1.718-.09 2.106-.031l.705.107-.309.598c-.17.329-1.346 2.342-2.613 4.472-3.175 5.34-4.064 6.931-4.064 7.275 0 .432.8 1.952 3.743 7.111 2.846 4.991 3.439 6.093 3.439 6.396 0 .123-.727.196-1.952.196h-1.952l-2.7-4.644c-1.484-2.555-2.83-4.695-2.991-4.757-.415-.159-.755.322-3.644 5.152l-2.542 4.249H97.85c-1.059 0-1.969-.07-2.021-.155z"/></svg>