<svg xmlns="http://www.w3.org/2000/svg" role="img" viewBox="-3.91 1.59 645.32 615.32"><title>AresDB logo</title><defs><style>.cls-2{fill:#069fb3}.cls-3{fill:#6a6a6a}.cls-4{fill:#666}.cls-5{fill:#019db2}</style></defs><path fill="none" d="M603.419 577.057c-6.03.036-12.061.009-18.091.002h-13.303q6.651 0 13.303.003c6.03.004 12.06.031 18.09-.005z"/><path d="M629.435 589.944v-7.468c-1.937-5.583-5.081-10.26-10.514-13.243 6.044-5.985 8.052-12.712 4.83-20.224-3.404-7.938-10.144-10.985-18.469-10.991-18.648-.014-37.297.05-55.945-.066-3.076-.019-4.38.598-4.35 4.06.184 20.6.14 41.2.171 61.802l65.55.095c9.72.013 14.96-5.99 18.727-13.965zm-66.347-29.514a4.074 4.074 0 0 0 .003-.53c.131-9.508-1.062-7.89 7.718-7.984 9.027-.097 18.057-.076 27.085.003 5.655.05 8.568 2.402 8.283 6.657-.345 5.162-3.914 6.118-8.241 6.058-4.956-.069-9.914-.016-14.87-.015-3.983 0-7.972-.113-11.952-.054-1.327.02-2.653.058-3.977.127-3.397.175-4.513-1.113-4.049-4.262zm40.419 29.411c-12.416.076-24.832-.005-37.247.067-2.18.013-3.038-.56-3.233-2.94-.81-9.917-.907-9.91 8.998-9.91h13.303c6.03.008 12.06.035 18.09-.001 4.153-.025 7.091 1.736 7.238 6.032.155 4.554-2.794 6.726-7.15 6.752z" class="cls-2"/><path d="M188.756 538.04c-19.339-.17-38.683.094-58.02-.154-4.295-.054-4.856 1.542-4.831 5.246.136 20.581.03 41.164.007 61.747h12.801c1.108-1.953.887-4.095.886-6.207-.002-15.28.167-30.564-.107-45.84-.078-4.335 1.308-5.333 5.4-5.26 13.5.24 27.006.072 40.51.108 5.474.015 9.85 2.126 11.58 7.59 1.547 4.893-.004 9.127-4.227 12.18-2.402 1.735-5.203 2.09-8.107 2.079-9.769-.036-19.537-.014-29.339-.014-.496 2.211 1.35 2.857 2.348 3.858 8.658 8.68 17.573 17.113 26.016 25.994 3.373 3.548 6.826 5.154 11.635 4.634a88.334 88.334 0 0 1 9.588-.05c-6.791-8.212-15.477-14.425-23.014-21.848-1.402-1.381-3.476-2.301-3.985-4.9 5.15 0 9.952.237 14.722-.051a19.34 19.34 0 0 0 17.747-16.34c2.028-12.779-7.156-22.646-21.61-22.772zM73.292 549.375c-4.826-9.129-10.493-13.105-20.691-11.564-3.348.506-5.336 1.273-7.07 4.246-8.136 13.951-16.603 27.71-24.796 41.629-4.13 7.019-8.906 13.675-12.17 21.193h13.868a9.776 9.776 0 0 0 1.828-2.514c2.666-8.61 8.903-9.65 16.9-9.264 12.906.621 25.864.17 38.8.163 2.106 0 4.519-.447 5.334 2.234 2.543 8.36 8.82 9.35 16.164 8.46a20.169 20.169 0 0 1 3.181.106c.58-2.245-1.183-3.592-2.123-5.176-9.783-16.486-20.279-32.59-29.225-49.514zm2.97 37.208c-13.824-.07-27.647-.03-42.575-.03L56.79 547.35c7.46 12.603 14.299 24.212 21.206 35.778 1.351 2.263 1.534 3.472-1.735 3.455z" class="cls-3"/><path d="M338.784 228.671c1.996 3.055 3.79 3.323 6.907 2.477 33.385-9.05 66.772-18.1 100.238-26.844 4.84-1.265 5.573-2.765 3.947-7.411-21.36-61.048-80.54-98.815-145.31-92.514-69.737 6.784-123.959 66.673-124.027 139.057a169.73 169.73 0 0 0 2.95 26.504c11.747 61.11 68.076 108.67 130.246 110.08 4.169.095 5.342-.928 5.32-5.183-.177-34.66-.12-69.319-.062-103.978.005-3.048.079-4.925-4.104-5.543-11.4-1.684-19.15-10.882-19.914-22.41-.672-10.149 5.91-19.979 15.782-23.568a23.313 23.313 0 0 1 28.027 9.333z" class="cls-4"/><path d="M182.123 320.943c3.193-1.804 3.025-3.18 1.496-6.008-12.308-22.767-18.535-47.106-18.438-75.3a125.317 125.317 0 0 1 2.634-26.864C187.9 110.739 299.453 57.628 391.512 106.313c3.443 1.82 4.877 1.618 6.864-1.91q15.545-27.606 31.696-54.867c2.04-3.446 1.686-4.836-1.834-6.682C365.127 9.74 299.62 4.17 233.99 31.868c-85.702 36.17-133.03 102.396-141.232 195.337-3.877 43.943 6.335 85.308 27.293 124.081 1.736 3.213 2.946 3.823 6.27 1.863q27.749-16.364 55.802-32.206z" class="cls-5"/><path d="M318.956 432.177c0-5.422-.022-10.844-.026-16.266-.004-5.422.01-10.844.083-16.265.04-2.897-.658-3.919-3.789-4.027-39.42-1.363-73.668-15.372-102.382-42.515-2.292-2.166-3.435-1.88-5.47.175-15.257 15.413-30.55 30.793-46.037 45.975-2.77 2.715-1.998 4.064.323 6.223a248.693 248.693 0 0 0 20.729 17.577q58.144 43.291 130.608 45.614c4.974.15 6.254-1.262 6.075-6.096-.376-10.12-.114-20.262-.114-30.395z" class="cls-4"/><path d="M431.362 137.13c32.742 35.855 47.035 78.31 39.595 126.147-9.874 63.494-46.988 105.289-107.844 125.813-3.717 1.254-4.18 2.59-3.257 5.956 5.487 20.013 11.02 40.018 16.056 60.147 1.277 5.104 2.979 5.736 7.76 4.322 95.712-28.318 162.23-117.424 162.258-217.607a227.6 227.6 0 0 0-62.835-156.845c-2.732-2.87-4.275-3.436-7.391-.237q-21.763 22.344-44.102 44.121c-3.207 3.13-3.456 4.662-.24 8.184zm15.106-8.48c10.007-9.327 19.564-19.147 29.091-28.973 2.66-2.743 4.102-3.282 6.909.008 30.447 35.686 48.073 76.732 52.146 123.516.54 6.19.805 12.406 1.197 18.61A217.508 217.508 0 0 1 390.44 446.396c-4.16 1.46-5.948 1.443-7.124-3.449-3.356-13.967-7.18-27.826-11.079-41.655-.877-3.11-.17-4.146 2.753-5.295 57.961-22.783 93.965-64.593 105.357-125.826 9.073-48.768-3.27-93.002-34.213-131.817-3.13-3.925-3.647-5.993.335-9.704z" class="cls-2"/><path d="M344.686 252.765q49.559 28.538 99.023 57.238c3.496 2.038 4.663 1.097 6.212-2.06a147.01 147.01 0 0 0 15.5-67.56 141.158 141.158 0 0 0-3.072-29.28c-.621-3.074-1.858-3.734-4.648-2.935-6.132 1.758-12.294 3.41-18.456 5.062q-45.952 12.318-91.928 24.548c-3.143.83-5.143 1.826-4.65 5.518a7.794 7.794 0 0 1-.492 4.189c-1.442 3.004.353 4.037 2.511 5.28z" class="cls-5"/><path d="M498.655 538.139c-20.062-.414-40.14-.075-60.21-.178-2.83-.015-3.693 1-3.645 3.72.129 7.28-.047 14.566.061 21.847.2 13.476-.564 26.962.412 40.43l65.082.108c15.13-2.144 22.25-10.247 22.264-25.35q.008-7.726 0-15.453c-.02-15.654-8.333-24.802-23.964-25.124zm5.865 40.167c-.127 6.747-3.728 10.451-10.577 10.646-6.202.176-12.414.037-18.621.037v.03c-6.208 0-12.417-.07-18.623.035-2.476.042-3.97-.289-3.922-3.378.154-9.93.123-19.865.012-29.796-.029-2.578.89-3.33 3.4-3.31 12.592.102 25.187-.078 37.778.103 6.734.097 10.423 4.042 10.553 10.735q.145 7.447 0 14.898z" class="cls-2"/><path d="M394.742 564.952a51.995 51.995 0 0 0-5.854-.23c-11.912-.022-23.824.07-35.735-.052-5.925-.06-9.574-3.421-9.675-8.426-.106-5.256 3.716-8.873 9.735-8.943 8.177-.094 16.356-.027 24.534-.027 7.467-.001 14.934.029 22.401-.015 3-.018 6.607-4.296 6.033-7.6-.568-3.264-3.48-1.55-5.196-1.57-13.51-.171-27.022-.138-40.534-.074-5.32.025-10.665-.443-15.951.664a18.223 18.223 0 0 0-13.923 23.084c2.522 8.81 9.755 13.92 20.284 14.01 13.155.113 26.312.051 39.469.021 2.919-.006 5.682.291 7.884 2.486 2.932 2.924 3.851 6.422 2.412 10.26-1.626 4.334-5.09 6.184-9.624 6.185l-48.537.012c-8.358.002-8.731.36-9.647 9.29l61.925.014c.7-.122 1.407-.207 2.097-.37 10.748-2.538 16.828-10.504 16.19-21.197-.56-9.389-7.74-16.305-18.288-17.522zm-132.085 29.285c-4.735-.043-11.194 2.168-13.737-1.03-2.377-2.99-.54-9.19-.927-13.946-.303-3.723 1.338-4.45 4.616-4.34 6.034.205 12.08.059 18.122.059 9.418 0 18.837-.116 28.252.044 4.986.085 4.67-3.995 4.952-6.67.317-3.021-2.84-1.685-4.398-1.697-15.28-.118-30.565-.22-45.842.024-4.243.068-5.841-.796-5.76-5.45.238-13.393.019-13.397 13.302-13.397 13.86 0 27.72.023 41.58-.02 2.92-.01 6.759-5.039 6.018-8.333-.693-3.082-3.55-1.382-5.28-1.394-21.322-.143-42.646.02-63.967-.192-4.083-.04-5.01 1.164-4.97 5.093.212 20.254.115 40.512.126 60.769l71.468.105c1.01-2.993 2.02-5.986 3.232-9.572-15.985 0-31.387.088-46.787-.053z" class="cls-3"/><path d="M333.911 379.455c40.707-5.243 73.282-24.23 97.555-57.341 1.294-1.766 4.728-3.906.323-6.161-2.861-1.465-5.097-5.648-8.719-.027-6.671 10.353-15.421 18.995-25.149 26.586a127.211 127.211 0 0 1-65.152 26.562c-1.904.216-4.24-.195-3.534 3.47 1.773 1.794-2.766 7.87 4.676 6.911z" class="cls-2"/><path d="M301.93 242.007c.036 9.148 7.551 17.026 16.279 17.066 9.481.042 17.993-8.01 17.851-16.888-.159-9.952-7.443-17.366-17.084-17.389-9.774-.023-17.084 7.357-17.045 17.21z" class="cls-5"/></svg>