<svg xmlns="http://www.w3.org/2000/svg" role="img" viewBox="-11.95 -11.95 621.40 218.90"><title>AT&amp;T (hosting) logo</title><style>svg {enable-background:new 0 0 597.6 195.2}</style><path fill="#252122" d="M375.39062 156.2376c1.91995 0 3.25325-1.30664 3.25325-3.21326V58.77336h31.9992c1.89328 0 3.19992-1.31996 3.19992-3.21325v-13.013c0-1.8933-1.30664-3.19993-3.19992-3.19993h-85.22454c-1.91995 0-3.21325 1.30664-3.21325 3.19992v13.01301c0 1.89329 1.2933 3.21325 3.21325 3.21325h32.01253v94.25098c0 1.90662 1.30664 3.21325 3.21326 3.21325h14.7463zm145.90301-4.0799c1.90662 2.03995.73332 4.0799-1.59996 4.0799h-18.55953c-2.47994 0-3.81324-.57332-5.42653-2.47994l-11.09306-12.2797c-7.46648 9.94642-17.82622 17.39957-35.10579 17.39957-21.3328 0-38.13238-12.85301-38.13238-34.93246 0-16.93291 9.07978-25.99935 22.81277-33.6125-6.7465-7.7198-9.8131-15.93293-9.8131-23.07942 0-18.11955 12.71969-30.5459 31.87921-30.5459 19.58618 0 31.57254 11.54638 31.57254 28.65262 0 14.61296-10.51973 22.77276-21.62612 28.94594l16.38626 17.66622 9.2131-16.0796c1.15997-1.87995 2.47994-2.61326 4.79988-2.61326h14.18631c2.31994 0 3.6399 1.59996 2.19995 4.0799l-16.38626 28.06596 24.69271 26.73267m-64.75838-97.31757c-7.5998 0-11.98636 4.81321-11.98636 11.25305 0 4.97321 2.63993 9.34643 8.62645 15.77294 10.37307-6.01318 14.7863-9.62643 14.7863-16.06627-.01334-6.01318-3.81324-10.95972-11.42639-10.95972m-6.57317 85.63786c9.34644 0 15.62628-4.54655 20.75948-12.29303l-23.6794-25.43936c-9.07978 5.1332-14.9463 10.23974-14.9463 20.46615.01334 10.09308 8.1998 17.26624 17.86622 17.26624M336.3916 152.46436c.73331 1.87995-.43999 3.78657-2.47994 3.78657H318.6987c-2.17328 0-3.49325-1.01331-4.2399-3.07993l-8.61311-24.83937H258.6202l-8.62645 24.83937c-.73332 2.05329-2.03995 3.07993-4.2399 3.07993h-14.31964c-1.90662 0-3.21325-1.90662-2.5066-3.78657l39.639-110.21058c.70666-2.03995 2.03996-2.9066 4.21324-2.9066h19.5995c2.19995 0 3.66658.86665 4.37323 2.9066l39.63901 110.21058m-37.2924-43.26559l-16.79958-48.2388-16.95958 48.2388h33.75916zm245.30053 47.03882c-1.89328 0-3.21325-1.30663-3.21325-3.21325V58.77336h-32.01253c-1.91996 0-3.22659-1.31996-3.22659-3.21325v-13.013c0-1.8933 1.30663-3.19993 3.22659-3.19993h85.22453c1.90662 0 3.19992 1.30664 3.19992 3.19992v13.01301c0 1.89329-1.2933 3.21325-3.19992 3.21325h-32.01253v94.25098c0 1.90662-1.2933 3.21325-3.19992 3.21325h-14.7863"/><path fill="#3ca3d2" d="M147.58298 13.76116C132.94334 4.98804 115.9571.0015 97.65089.0015c-18.4662 0-35.9591 5.1732-50.65206 14.15965-4.3999 2.71993-6.87983 4.90654-6.87983 7.6798.01333 8.2398 19.25285 17.09291 53.35866 17.09291 33.79916 0 59.9985-9.6931 59.9985-19.01286 0-2.25327-1.94661-3.81324-5.89318-6.15984m14.53297 10.83973c.41332.63998.61332 1.3333.61332 2.25327 0 10.85306-33.1725 30.03925-86.02452 30.03925-38.7857 0-46.05218-14.41297-46.05218-23.58608 0-3.25325 1.23997-6.59983 3.9999-10.01308.14666-.21333.02666-.30666-.16-.13333-5.03987 4.2799-9.67976 9.0931-13.74632 14.27964-1.95995 2.45328-3.14659 4.62655-3.14659 5.93319 0 18.97286 47.59881 32.74585 92.09103 32.74585 47.39882 0 68.54495-15.49295 68.54495-29.07928 0-4.8532-1.87995-7.69314-6.71983-13.19967-3.13325-3.5999-6.11984-6.5065-9.2531-9.3731-.14666-.10666-.26666-.01333-.14666.13334M9.4131 55.73344C6.5465 61.4133 3.35992 70.98639 2.45327 75.9596c-.41332 2.10661-.25332 3.14659.47999 4.71988C8.93311 93.39916 39.21236 113.732 109.90392 113.732c43.07892 0 76.58475-10.5864 82.02462-29.90592 1.0133-3.57324 1.0533-7.33315-.22667-12.39969-1.42663-5.66652-4.1199-12.2397-6.39984-16.86624-.06666-.14667-.2-.13333-.2.05333.86665 25.34603-69.85158 41.69229-105.50402 41.69229-38.63903 0-70.85156-15.39962-70.85156-34.83913 0-1.87995.37332-3.73324.87998-5.66653.02666-.21332-.13333-.23999-.21333-.06666m68.59828 80.9713c-49.98541 0-73.50483-23.25274-77.79805-39.14568C.16 97.34573 0 97.38573 0 97.59906c0 5.35987.53332 12.2397 1.46663 16.83958.43999 2.19994 2.23994 5.70652 4.90654 8.50645 12.09304 12.59969 42.27895 30.26591 94.53097 30.26591 71.15823 0 87.45115-23.69274 90.7444-31.47921 2.39994-5.59986 3.62658-15.6796 3.62658-24.13273 0-2.06661-.05333-3.69324-.10667-5.2932 0-.28-.16-.28-.21332-.02667-3.58658 19.0662-64.37173 44.42556-116.94375 44.42556m26.23935 42.97226c24.0394 0 50.43874-6.5465 66.225-19.51951 4.33323-3.51992 8.45313-8.2398 12.14637-14.5463 2.10662-3.63992 4.1999-7.94647 5.86652-12.18637.06667-.2-.05333-.32-.21333-.09333-14.6663 21.6128-57.19857 35.09246-101.10414 35.09246-31.05255 0-64.43838-9.90642-77.50472-28.87928-.13333-.16-.25333-.09333-.17333.10666 12.18636 25.86602 49.10544 40.02567 94.75763 40.02567m-66.47834-4.98654c16.54625 12.813 37.3324 20.51948 59.8785 20.51948 24.65272 0 47.14549-9.1731 64.29173-24.1994.21333-.18665.12-.30665-.08-.18665-7.70647 5.1332-29.6526 16.35959-64.21173 16.35959-30.05258 0-49.03877-6.69317-59.74517-12.66635-.2-.13333-.29333.02666-.13333.17333"/></svg>