<svg xmlns="http://www.w3.org/2000/svg" role="img" viewBox="-1.69 -2.19 376.88 399.88"><title>Audit AI logo</title><defs><style>.cls-1{fill:#7984e9}.cls-3{fill:#01e2fb}.cls-4{fill:#6644e7}.cls-5{fill:#5617b2}</style></defs><path d="M47.56 77.575l57.354-71.817 144.521-.143.097 71.762-201.972.198z" class="cls-1"/><path fill="#00e2fb" d="M105.876 149.684q-28.23-10.32-56.454-20.655c-2.09-.767-2.82-2.413-2.803-4.475q.182-22.334.317-44.67c1.73-2.222 4.297-2.446 6.883-2.46 15.14-.088 30.282-.13 45.423.025 2.773.029 5.55.327 7.348 2.788.957 1.71.912 3.58.915 5.425q.06 28.876-.006 57.752c-.006 2.184.3 4.5-1.623 6.27z"/><path d="M105.499 150.525c9.053 3.462 16.901 9.138 25.278 13.837 10.656 5.979 21.22 12.127 31.733 18.355 12.77 7.564 26.183 14.05 38.27 22.757-11.437.144-22.62-2.271-33.924-3.44-16.016-1.657-31.976-3.87-47.999-5.46-4.08-.406-5.897-1.509-6.634-5.79-2.311-13.408-5.516-26.664-6.724-40.26z" class="cls-3"/><path d="M176.851 78.608l-70.781.083a17.45 17.45 0 0 0 3.45-11.169c-.109-14.093-.076-28.187 0-42.28.01-1.78-1.05-4.257.985-5.2 1.79-.828 2.709 1.59 4.001 2.576 17.624 13.444 32.32 29.896 47.29 46.066 4.208 4.547 10.884 5.331 15.055 9.924zm-73.066 69.933l100.994 58.871-27.928-58.889-73.066.018z" class="cls-4"/><path d="M104.914 77.345h72.427v72.427h-72.427z" class="cls-5"/><path fill="#0654c4" d="M177.105 77.377h72.427v72.427h-72.427z"/><path d="M104.914 77.345V5.758l72.191 71.619-72.191-.032z" class="cls-4"/><path d="M104.914 5.758L46.923 78.372l57.991-1.027V5.758z" class="cls-1"/><path d="M46.923 78.372v49.754l57.991 21.646V77.345l-57.991 1.027z" class="cls-3"/><path d="M177.105 149.804h72.427l52.6 51.546-22.533 17.054-21.475 70.608-53.345-81.6-27.674-57.608z" class="cls-5"/><path d="M104.914 149.772l8.995 45.014 90.87 12.626-99.865-57.64zM249.435 5.615l.097 71.762 72.863 1.359-72.96-73.121z" class="cls-3"/><path d="M249.532 149.804l52.6 51.546 21.115-50.825-.852-71.789-72.863-1.359v72.427z" class="cls-4"/><path d="M48.36 319.06l26.13 69.873H58.54l-5.285-15.56h-26.13l-5.48 15.56H6.183l26.423-69.874zm.882 42.863l-8.808-25.64h-.196l-9.101 25.64zm64.1 27.01v-7.045h-.294a15.633 15.633 0 0 1-6.85 6.36 20.222 20.222 0 0 1-8.612 1.958 24.323 24.323 0 0 1-9.15-1.468 13.197 13.197 0 0 1-5.627-4.159 16.265 16.265 0 0 1-2.887-6.558 40.753 40.753 0 0 1-.832-8.562v-31.12h13.896v28.576q0 6.263 1.958 9.345 1.956 3.082 6.948 3.083 5.675 0 8.22-3.377 2.544-3.375 2.544-11.107v-26.52h13.897v50.594zm59.695-6.458a14.343 14.343 0 0 1-6.41 5.92 21.324 21.324 0 0 1-8.955 1.81 21.632 21.632 0 0 1-9.982-2.201 20.024 20.024 0 0 1-7.095-5.97 27.053 27.053 0 0 1-4.208-8.66 36.336 36.336 0 0 1-1.419-10.179 34.145 34.145 0 0 1 1.42-9.835 25.56 25.56 0 0 1 4.207-8.367 20.426 20.426 0 0 1 16.783-8.024 19.894 19.894 0 0 1 8.564 1.907 14.928 14.928 0 0 1 6.41 5.627h.195V319.06h13.897v69.874h-13.212v-6.458zm-.587-25.005a14.748 14.748 0 0 0-2.007-5.088 11.318 11.318 0 0 0-3.67-3.572 10.764 10.764 0 0 0-5.675-1.37 11.291 11.291 0 0 0-5.774 1.37 10.836 10.836 0 0 0-3.768 3.62 15.992 15.992 0 0 0-2.055 5.139 27.822 27.822 0 0 0-.637 6.018 25.707 25.707 0 0 0 .686 5.872 15.975 15.975 0 0 0 2.202 5.236 12.17 12.17 0 0 0 3.816 3.718 10.32 10.32 0 0 0 5.53 1.419 11.015 11.015 0 0 0 5.724-1.37 10.419 10.419 0 0 0 3.67-3.67 16.46 16.46 0 0 0 1.958-5.235 30.887 30.887 0 0 0 .587-6.068 30.16 30.16 0 0 0-.587-6.019zm24.856-26.96v-11.45h13.896v11.45zm13.896 7.828v50.595h-13.896v-50.595zm38.753 0v9.297h-10.178v25.053q0 3.523 1.175 4.698 1.174 1.174 4.697 1.174 1.175 0 2.251-.098a19.063 19.063 0 0 0 2.055-.294v10.765a33.296 33.296 0 0 1-3.914.392q-2.154.096-4.209.097a40.567 40.567 0 0 1-6.116-.44 14.417 14.417 0 0 1-5.089-1.712 9.06 9.06 0 0 1-3.474-3.62 12.928 12.928 0 0 1-1.272-6.167v-29.848h-8.416v-9.297h8.416V323.17h13.896v15.17zm70.167-19.278l26.13 69.873H330.3l-5.286-15.56h-26.128l-5.48 15.56h-15.463l26.422-69.874zm.88 42.863l-8.807-25.64h-.196l-9.101 25.64zm46.681-42.863v69.873h-15.365V319.06z"/></svg>