<svg xmlns="http://www.w3.org/2000/svg" role="img" viewBox="-7.19 -6.69 477.88 173.38"><title>AutoGen logo</title><defs><style>.cls-5{fill:#777}</style></defs><path fill="#f25022" d="M2.37542 2.45259h46.675c-.0028 15.55833-.00373 31.11666-.0028 46.675H2.37542v-46.675z"/><path fill="#80ba01" d="M53.81603 2.45259h46.675c0 15.55833-.00093 31.11666-.0028 46.675-15.55553-.00282-31.11199-.00282-46.6694 0a77661.86639 77661.86639 0 0 1-.0028-46.675z"/><path d="M423.27734 20.23674c4.30306-2.8005 9.86203-3.0612 14.71173-1.72683.04205 2.88179.0056 5.76639.0196 8.65099-2.3043-1.0148-5.0151-1.67638-7.43997-.6812-1.92306.7625-3.0668 2.73602-3.36677 4.70954-.36164 2.50335-.12614 5.04034-.18784 7.5577 4.92262.01122 9.8452.0028 14.76782.00561.03644-3.19576-.03925-6.39433.04206-9.5901 3.34712-.95312 6.65784-2.02118 9.98817-3.02476.02802 4.21056-.03925 8.42393.03644 12.6373 3.32752-.04766 6.65784-.01122 9.98817-.02244v8.19686c-3.34155-.13736-6.68587-.03644-10.02742-.04765.01403 4.71235.0028 9.4247.00561 14.13986.05325 2.60987-.14016 5.23376.16539 7.83523.18502 1.5334.74288 3.2322 2.18098 4.02554 2.40802 1.34839 5.46363.7597 7.67544-.72045v8.27815c-2.88461 1.25308-6.1084 1.63432-9.22849 1.41287-2.9603-.21866-6.0271-1.29513-7.95858-3.6499-2.23142-2.66033-2.8061-6.26258-2.85097-9.63215-.02522-7.23253.0028-14.46505-.01122-21.70037a9734.85338 9734.85338 0 0 0-14.7734.0028 41221.66211 41221.66211 0 0 0-.0028 34.05173h-10.0947c0-11.34778.00188-22.69461.00561-34.04051-2.34075-.04485-4.6843.01121-7.02509-.03644.00842-2.69398.0196-5.39076-.00561-8.08754 2.32956-.05326 4.6619-.03083 6.99703-.01401.171-3.58262-.37563-7.26897.69521-10.75908.90013-3.19137 2.92185-5.95066 5.69353-7.77076l.00007.00001zm-216.12905.5887c2.0352-.30837 4.2386.38685 5.58698 1.97913 1.58689 1.82181 1.86682 4.44087.70083 6.55692-1.29513 2.2987-4.19375 3.36677-6.71951 2.81452-2.62108-.47096-4.80487-2.90703-4.68712-5.62343-.0757-2.85937 2.31553-5.40757 5.11884-5.72715h-.00002zm-77.36275 1.25027h14.6809a17231.9053 17231.9053 0 0 0 13.7474 34.7974c1.16897 2.90141 2.26226 5.83647 3.4873 8.71546 5.87852-14.49868 11.84115-28.96092 17.67483-43.47923 4.70673-.07569 9.4163-.01682 14.12584-.02803a56153.54258 56153.54258 0 0 0-.0028 58.86095c-3.3976-.00841-6.7924.02803-10.18721-.01963.03644-14.47905-.0028-28.95812.01682-43.43998.0056-.65037-.01682-1.30073-.06167-1.9511a7.78278 7.78278 0 0 0-.52983.9419c-5.83367 14.82107-11.77948 29.60008-17.57952 44.43516-2.41644.0869-4.8357.0056-7.25495.04486-6.01868-14.82107-11.96168-29.67577-17.94954-44.50805-.15699-.30836-.32519-.60831-.5074-.89705-.12335 6.34387-.01963 12.69335-.05327 19.03723.00281 8.78555.00375 17.5711.00281 26.35665-3.20417.00841-6.40835 0-9.60972.0028a206470.174 206470.174 0 0 1 0-58.86936v.00002zm105.14348 16.6376a27.63408 27.63408 0 0 1 14.99486.04485 12.10015 12.10015 0 0 1 2.879 1.19981c-.05607 3.2154 0 6.43358-.03083 9.65178-3.25463-2.48653-7.38391-4.062-11.52157-3.54058-3.32603.30165-6.3705 1.99235-8.38467 4.65629-2.52578 3.29108-3.10887 7.66143-2.67435 11.68697.32518 3.15091 1.62872 6.29902 4.0788 8.38748 2.5454 2.26227 6.114 3.064 9.44433 2.81171 3.29108-.37844 6.39714-1.77169 9.05747-3.71718.02803 3.04719-.01401 6.09438.02243 9.14158-4.12645 2.4557-9.07429 3.08923-13.79784 2.85656-4.8329-.2551-9.65177-2.08565-13.1503-5.48326-3.80127-3.66392-5.8645-8.88927-6.10838-14.12304-.2467-5.44121.86061-11.1179 3.9919-15.66205 2.62389-3.87697 6.72793-6.6214 11.1992-7.91092h-.00005zm110.26791-.64196c4.6675-.82136 9.55365-.21865 13.97165 1.45492.00562 3.09484 0 6.18689.00281 9.27893a17.78866 17.78866 0 0 0-10.60208-3.13129c-1.88661.07288-3.96107.87183-4.82166 2.66594-.684 1.77449-.21025 4.10123 1.46331 5.16368 2.86216 1.91466 6.2766 2.72762 9.24248 4.44324 2.33514 1.31194 4.60023 3.02757 5.78322 5.50008 2.22303 4.63106 1.2811 10.75066-2.6267 14.20433-3.7312 3.48731-9.10512 4.45165-14.04734 4.26663-3.50974-.22706-7.03629-.91948-10.26289-2.35477.01403-3.25463-.0196-6.50646.01684-9.7583a22.07594 22.07594 0 0 0 9.1584 3.95266c2.30711.37564 4.81609.39246 6.9662-.63915 2.05762-1.0232 2.42767-3.94705 1.20543-5.73556-1.14373-1.37922-2.8229-2.13892-4.40678-2.8846-2.9743-1.33717-6.09999-2.45569-8.71265-4.46005a10.44377 10.44377 0 0 1-3.77043-5.72715c-.80735-3.35555-.55505-7.1372 1.39604-10.06946 2.22861-3.41723 6.09999-5.46645 10.04422-6.17007h-.00007zm-69.82187 1.32877c2.78649-1.67357 6.32706-1.81374 9.36864-.79053-.01403 3.36676 0 6.73353-.00842 10.1003a10.72878 10.72878 0 0 0-6.82325-1.6035c-2.86497.3252-5.13565 2.52578-6.31304 5.04875-1.2783 2.67155-1.51939 5.69351-1.4381 8.61455v20.17538h-9.95172a52971.60923 52971.60923 0 0 1-.00842-42.17009c3.3219-.04205 6.64383-.02523 9.96574-.0084-.01402 2.41364 0 4.82728-.00842 7.24373 1.07926-2.6267 2.68557-5.1777 5.21694-6.6102l.00005.00001zm-72.42894-.63354c3.34715-.01402 6.6971-.04766 10.04424.01681-.03925 14.05296-.0028 28.10872-.01682 42.16168h-10.0218a45304.67226 45304.67226 0 0 1-.00562-42.1785z" class="cls-5"/><path fill="#02a4ef" d="M2.37542 53.8904c15.55834.0056 31.11667.00747 46.675.0056.0028 15.55833.0028 31.11573 0 46.6722h-46.675V53.8904z"/><path fill="#ffb902" d="M53.81884 53.896a77686.407 77686.407 0 0 1 46.67219-.0028v46.67499h-46.675c.00281-15.55834.00374-31.11573.0028-46.6722z"/><path d="M317.77223 39.69166c-4.4965-2.04641-9.60692-2.32113-14.45104-1.7044-5.088.64195-10.04142 3.03597-13.27083 7.09235-2.94908 3.62187-4.38437 8.27535-4.65908 12.8924-.40647 5.4412.5018 11.21601 3.69754 15.75736 2.722 3.91902 7.01948 6.61299 11.66173 7.60536a28.99045 28.99045 0 0 0 11.81873.01121c4.53854-.9335 8.77716-3.44526 11.58885-7.15122 2.74725-3.49012 4.12645-7.8913 4.43762-12.28408.31677-4.4993-.13736-9.15839-2.00718-13.30728-1.76486-3.93868-4.89692-7.1046-8.81637-8.9117h.00003zm-.93349 28.27692c-.95408 2.20881-2.7337 3.95724-4.95902 4.87214a13.61146 13.61146 0 0 1-8.2277.36163c-2.75385-.76382-5.05377-2.66123-6.32703-5.21975-1.62593-3.24622-1.86982-6.99984-1.5334-10.56004.30555-3.23781 1.43248-6.56814 3.8994-8.80237 1.78851-1.67077 4.22737-2.48653 6.64101-2.62109 3.03316-.19903 6.26257.65878 8.44355 2.86498 2.33233 2.2931 3.23502 5.62062 3.48452 8.79396.17942 3.4733.03645 7.09236-1.42126 10.31054h-.00007zm81.92373-27.96014c-4.59743-2.32113-9.94612-2.66034-14.98364-2.0352-4.06199.52142-8.05389 2.06324-11.15436 4.78524-3.78446 3.26024-6.00468 8.05389-6.65784 12.95687-.62233 4.90298-.41208 10.06666 1.58668 14.65566 1.9673 4.54237 5.65468 8.11988 10.25447 9.94892 4.4937 1.76889 9.48917 1.96792 14.21834 1.20262 4.8357-.79894 9.41629-3.34154 12.41023-7.25495 3.19858-4.04236 4.57497-9.27332 4.5666-14.36973.07007-3.41161-.35603-6.87089-1.56985-10.07507-1.55646-4.24345-4.65142-7.74665-8.67063-9.81436zm-.43453 24.11682c-.38686 2.22021-1.15496 4.43482-2.60989 6.1925-1.46612 1.76607-3.6471 2.84254-5.89816 3.17333-2.41645.36163-4.96183.18783-7.22131-.78492-2.43886-1.03161-4.32829-3.1425-5.32347-5.57016-1.19702-2.89301-1.4353-6.09718-1.19702-9.19203.22986-2.99674 1.07927-6.07196 3.05842-8.4015 1.8053-2.17536 4.57497-3.37798 7.36708-3.53497 2.85098-.19903 5.89536.45974 8.08753 2.38561 2.02117 1.67638 3.13968 4.18814 3.6527 6.71671a25.6327 25.6327 0 0 1 .08412 9.01543z" class="cls-5"/><path d="M169.22945 157.29915h-7.21778l-2.86963-7.46484H146.0063l-2.7124 7.46484h-7.03858l12.7998-32.8623h7.01612l13.1582 32.8623zm-12.2168-13.00098l-4.52783-12.19433-4.43848 12.19433h8.9663zm31.35986 13.00098v-3.56445c-.8667 1.2705-2.00586 2.27246-3.41846 3.0039-1.4121.73242-2.90283 1.09863-4.47168 1.09863-1.5996 0-3.03417-.35156-4.3042-1.0537s-2.18945-1.68848-2.75683-2.959c-.56836-1.26952-.85205-3.02636-.85205-5.26757v-15.06348h6.29883v10.93848c0 3.34766.11572 5.39942.34765 6.15332.23145.75488.65332 1.35254 1.2666 1.79395.6123.44043 1.38965.66113 2.33106.66113 1.07617 0 2.04004-.29492 2.8916-.88574.85205-.58985 1.43457-1.32227 1.74854-2.1963.31396-.875.4707-3.01562.4707-6.42284v-10.042h6.29883v23.80567h-5.85059zm23.29053-23.80567v5.02051h-4.3042v9.59473c0 1.94238.04102 3.07422.12353 3.3955.08204.32227.26905.58692.56055.7959.29102.20997.646.31446 1.06445.31446.58301 0 1.42725-.20215 2.5332-.60547l.5381 4.88672c-1.46485.62793-3.12354.9414-4.97657.9414-1.13574 0-2.15967-.19043-3.0708-.57128-.9121-.38184-1.58057-.875-2.00635-1.4795-.42578-.60547-.72119-1.42382-.88574-2.45507-.13428-.73145-.20166-2.21094-.20166-4.43848V138.514h-2.8916v-5.02052h2.8916v-4.73046l6.32129-3.67579v8.40625h4.3042zm2.91406 11.56641c0-2.0918.51563-4.11719 1.54688-6.0752 1.03125-1.95703 2.4917-3.45117 4.38232-4.48242s4.00147-1.54687 6.33252-1.54687c3.60156 0 6.55322 1.16894 8.8545 3.50781s3.45214 5.29395 3.45214 8.86621c0 3.60156-1.1621 6.58594-3.48584 8.95508-2.32373 2.36816-5.24902 3.55273-8.77588 3.55273-2.18213 0-4.2627-.49316-6.24267-1.47949-1.98047-.98633-3.48584-2.43261-4.5171-4.33789s-1.54687-4.22558-1.54687-6.95996zm6.45606.33594c0 2.36133.56054 4.16992 1.68115 5.4248 1.1211 1.25586 2.50293 1.88282 4.14697 1.88282s3.02246-.62696 4.13574-1.88282c1.11328-1.25488 1.66993-3.07812 1.66993-5.46972 0-2.33106-.55665-4.12403-1.66993-5.37989-1.11328-1.25488-2.4917-1.8828-4.13574-1.8828s-3.02588.62792-4.14697 1.8828c-1.1206 1.25586-1.68115 3.06446-1.68115 5.4248zm38.37646-.17871V139.68h14.30127v13.09082c-1.38965 1.3457-3.4038 2.5293-6.04102 3.55273-2.6377 1.02344-5.30908 1.53614-8.01367 1.53614-3.4375 0-6.4336-.7207-8.98877-2.16309-2.55566-1.44238-4.47607-3.50488-5.76123-6.1875-1.28515-2.68164-1.92773-5.59961-1.92773-8.75293 0-3.42187.71728-6.4629 2.15185-9.12305s3.53418-4.7002 6.29883-6.12011c2.10742-1.09082 4.72998-1.63672 7.86817-1.63672 4.08007 0 7.2666.85644 9.56054 2.56738s3.76953 4.07617 4.42725 7.09473l-6.59033 1.23242c-.46338-1.61426-1.33399-2.8877-2.61133-3.82227-1.27783-.9336-2.87354-1.40039-4.78613-1.40039-2.89942 0-5.2041.91895-6.91504 2.75684-1.71143 1.83789-2.5669 4.56543-2.5669 8.18164 0 3.90039.8667 6.82617 2.6001 8.77637s4.00488 2.9248 6.81445 2.9248c1.39014 0 2.7832-.27246 4.18067-.81738 1.39746-.5459 2.59668-1.20703 3.59814-1.98438v-4.16894h-7.59912zm34.16211 4.50586l6.27637 1.05273c-.80664 2.30176-2.08106 4.05371-3.82178 5.25684-1.74121 1.20312-3.91943 1.80468-6.53418 1.80468-4.13965 0-7.20361-1.35253-9.19092-4.05761-1.56885-2.16602-2.35351-4.90137-2.35351-8.2041 0-3.94532 1.03125-7.03516 3.09326-9.26954 2.0625-2.2334 4.66992-3.35058 7.82324-3.35058 3.542 0 6.33643 1.16894 8.38379 3.50781s3.02637 5.92188 2.93652 10.74902h-15.78076c.04444 1.86817.55274 3.3213 1.52393 4.35938.97119 1.03906 2.18213 1.5586 3.63183 1.5586.98584 0 1.81543-.26954 2.4878-.80762.67285-.53809 1.18066-1.4043 1.52441-2.59961zm.35889-6.36621c-.04492-1.82325-.51563-3.20899-1.4126-4.1582-.89649-.94923-1.9873-1.42384-3.27246-1.42384-1.375 0-2.51074.50098-3.40723 1.50196-.89697 1.00097-1.33789 2.36133-1.32275 4.08008h9.41504zm33.04101 13.94238h-6.29883v-12.14942c0-2.5703-.13476-4.2334-.4038-4.9873-.26905-.75488-.70606-1.3418-1.31104-1.75977-.60547-.41894-1.33398-.62793-2.18555-.62793-1.0913 0-2.0703.29883-2.93652.89649-.86719.59766-1.46094 1.38965-1.78223 2.37598-.32177.98632-.48193 2.80957-.48193 5.46972v10.78223h-6.29883v-23.80567h5.85059v3.49708c2.07666-2.69043 4.69238-4.03516 7.8457-4.03516 1.38965 0 2.65967.25 3.81055.75098 1.15039.50097 2.021 1.13964 2.61133 1.91601.59033.77734 1.00097 1.65918 1.2329 2.6455.23145.98634.34766 2.39845.34766 4.23634v14.79492z"/></svg>