<svg xmlns="http://www.w3.org/2000/svg" role="img" viewBox="2.95 2.45 522.60 142.10"><title>AutoGluon logo</title><path fill="#1b7bbe" d="M74.25632 12.87589a60.8965 60.8965 0 1 0 60.89649 60.8965 60.89653 60.89653 0 0 0-60.89649-60.8965zm50.264 58.19839c-2.35252-.24249-2.07291-1.53405-2.32282-3.00255-3.40945-20.046-14.61982-33.68224-34.31848-39.62538-26.17557-7.89724-53.91743 8.53984-59.826 35.022a47.39813 47.39813 0 0 0 38.72163 57.26748c24.68331 3.9203 48.32221-11.26 54.20044-34.64986.6672-2.65483.26667-3.40965-2.50485-3.332q-8.33013.23294-16.67108.00318c-2.92426-.07807-2.97284.818-1.64373 2.98154 2.4552 3.99668 4.56247 8.2142 7.17084 12.10458 2.109 3.14554-.15062 4.56969-1.98889 6.07086-1.49289 1.219-1.774-.66848-2.22163-1.41716-3.32819-5.56572-6.65447-11.13612-9.79173-16.80813-1.12821-2.03981-2.37373-2.98812-4.844-2.948q-13.75171.22244-27.50935.00467a4.8232 4.8232 0 0 0-4.89867 2.88027c-3.06131 5.55639-6.30592 11.01583-9.59359 16.44472-.51106.84393-.65766 3.10883-2.31666 1.95644-1.3917-.96655-3.43151-2.10961-2.88714-4.4931a7.11739 7.11739 0 0 1 .95213-1.82554Q57.82921 70.87 73.44443 44.03951c.2707-.465.633-.87745 1.37663-1.89428 5.703 9.80191 11.08245 19.048 16.50964 28.37576-4.46658 1.28626-7.29134.29489-9.22084-3.87511-1.95007-4.21519-4.63736-8.09475-7.42542-12.84307-4.55229 7.79668-8.79591 15.06469-13.34374 22.85332 1.91676.09122 3.35237.21809 4.7882.21893 19.17444.01337 38.35015.12581 57.522-.08719 3.95615-.04391 4.97659 1.00707 4.4163 4.81175-3.552 24.1156-24.19834 43.7294-48.15037 45.555-25.92969 1.97638-49.041-13.16512-56.585-37.07154-9.4873-30.06489 8.71783-61.15489 39.96758-68.25467 30.04792-6.82674 60.08438 13.82257 64.69565 44.48381.40166 2.66984.93182 5.21648-3.47472 4.76206zm55.34443-20.45116h5.0542l21.7871 48.15039h-5.80517l-5.60059-12.63477h-26.02148l-5.66895 12.63477h-5.53222zm13.31836 30.666l-10.85938-24.3828L171.396 81.28913zm20.83398 4.09767V63.463h5.25928v20.626c0 6.55664 3.55127 10.65527 9.7666 10.65527 6.01025 0 10.58594-4.43945 10.58594-11.06445V63.463h5.19091v35.31051h-5.19091V92.627c-2.39014 3.82422-6.01026 6.89746-12.08887 6.89746-8.53711.00002-13.52295-5.73631-13.52295-14.13767zm44.46484 4.03027V68.10749h-4.91748V63.463h4.91748V52.80866h5.25879V63.463h11.20117v4.64453h-11.20117v20.626c0 4.30273 2.39063 5.874 5.9419 5.874a11.06169 11.06169 0 0 0 5.12256-1.22949v4.50781a13.228 13.228 0 0 1-6.35157 1.50195c-5.66894-.00004-9.97168-2.7998-9.97168-9.97074zm22.53907-8.12793v-.13672a18.40665 18.40665 0 0 1 36.813-.13672v.13672a18.33442 18.33442 0 0 1-18.5088 18.44043 18.08887 18.08887 0 0 1-18.3042-18.30371zm31.41748 0v-.13672c0-7.58105-5.669-13.7959-13.11328-13.7959-7.64942 0-12.9087 6.21485-12.9087 13.65918v.13672c0 7.58106 5.60059 13.72852 13.04541 13.72852 7.64942 0 12.97657-6.14746 12.97657-13.5918zm13.66211-6.2832v-.13672c0-13.11328 9.63037-24.72363 23.97314-24.72363 8.05908 0 13.04492 2.32129 17.82568 6.35156L364.416 60.5948a20.33726 20.33726 0 0 0-14.54737-5.46387c-10.58642 0-18.16748 8.94726-18.16748 19.60156v.13672c0 11.40527 7.30811 19.875 18.91895 19.875A22.50941 22.50941 0 0 0 364.416 89.963V78.07917h-14.54735v-4.84961h19.73828v19.05566a28.97207 28.97207 0 0 1-19.19193 7.30762c-15.02535 0-24.31441-10.92773-24.31441-24.58691zm55.25634-26.08985h5.25928v49.85743h-5.25928zm16.93799 36.47071V63.463h5.25928v20.626c0 6.55664 3.55127 10.65527 9.7666 10.65527 6.01025 0 10.58594-4.43945 10.58594-11.06445V63.463h5.19092v35.31051h-5.19092V92.627c-2.39014 3.82422-6.01026 6.89746-12.08838 6.89746-8.5376.00002-13.52344-5.73631-13.52344-14.13767zM438.73 81.28913v-.13672a18.40665 18.40665 0 0 1 36.813-.13672v.13672a18.33443 18.33443 0 0 1-18.50879 18.44043A18.08887 18.08887 0 0 1 438.73 81.28913zm31.41748 0v-.13672c0-7.58105-5.66894-13.7959-13.11328-13.7959-7.64941 0-12.90869 6.21485-12.90869 13.65918v.13672c0 7.58106 5.60058 13.72852 13.04541 13.72852 7.64939 0 12.97654-6.14746 12.97654-13.5918zM485.03857 63.463h5.25928v6.14746a13.37043 13.37043 0 0 1 12.08887-6.89846c8.53711 0 13.52295 5.73731 13.52295 14.1377v21.92381h-5.25928v-20.626c0-6.55664-3.55127-10.6543-9.7666-10.6543-6.07861 0-10.58594 4.43946-10.58594 11.06446v20.21584h-5.25928z"/></svg>