<svg xmlns="http://www.w3.org/2000/svg" role="img" viewBox="-13.08 -19.08 1044.16 348.16"><title>Avro logo</title><defs><style>.cls-1{fill:#1947f4}.cls-2{fill:#f7f8fd}.cls-3{fill:#fdfdfd}</style></defs><path d="M776.912 197.186c1.807 5.27 5.255 7.882 8.91 10.205 43.286 27.512 84.854 57.596 127.915 85.447a101.759 101.759 0 0 1 19.657 16.374h-5.99q-417.697 0-835.394-.043c-1.86 0-4.763 1.109-5.395-.779-.727-2.171 1.995-3.567 3.755-4.667 23.867-14.92 46.757-31.3 70.193-46.864 24.27-16.116 48.425-32.407 72.626-48.627a28.602 28.602 0 0 0 7.785-6.95c.54-.762 1.543-1.522 1.026-2.615-.54-1.142-1.748-.67-2.658-.674-8.5-.04-17 .07-25.497-.056-6.49-.097-12.993-.275-19.462-.78a38.397 38.397 0 0 1-20.724-7.74c-39.083-29.668-74.134-63.408-104.485-102.042C54.15 68.25 36.647 51.184 22.13 31.617c-3.867-5.212-7.278-10.763-11.186-15.94-2.577-3.413-3.13-7.032-3.15-11.159C7.778.882 9.543.683 12.119 1.226c2.373.5 4.02 2.266 5.76 3.806 26.316 23.3 57.535 35.465 91.945 40.098 34.11 4.593 68.162 2.11 102.171-1.54 41.228-4.425 82.388-9.818 123.947-9.938 39.128-.112 77.353 4.947 113.467 21.199 7.226 3.252 13.319 1.05 18.433-4.529a78.646 78.646 0 0 1 18.367-14.499c15.742-9.263 31.542-9.318 47.273.04 6.03 3.587 11.851 7.55 16.522 12.825 6.3 7.117 13.725 8.268 22.132 4.779a288.37 288.37 0 0 1 31.417-11.32c32.459-9.25 65.585-10.576 99.034-8.558 38.58 2.329 77.007 6.427 115.502 9.724 16.265 1.393 32.52 2.822 48.84 3.457 45.784 1.781 88.884-6.157 126.326-34.697 4.1-3.125 7.892-6.699 12.192-9.508 4.317-2.82 5.377-1.883 5.624 3.33.19 4.005-1.017 7.356-2.918 10.838-4.77 8.731-11.183 16.104-17.912 23.294-21.31 22.77-39.53 48.163-60.425 71.287-14.772 16.348-30.466 31.712-47.86 45.302a153.359 153.359 0 0 0-20.34 19.178c-12.546 14.153-28.529 20.955-47.252 21.344-12.277.255-24.562.048-37.452.048zM142.34 91.972l-.015.271-.015-.198a35.12 35.12 0 0 0-3.55-2.66c-13.958-8.014-29.7-11.123-44.734-16.176-.331-.112-.789.155-1.453.306 7.419 4.582 14.682 8.883 22.51 12.019 8.734 3.498 17.508 7.125 27.257 6.438zm10.874 61.212l-.75-.264.82.192c10.945 10.95 36.07 15.869 52.933 9.885-4.275-.853-7.78-1.617-11.307-2.245-13.907-2.476-27.632-5.95-41.696-7.568zM902.567 302.07l.54-.915c-3.12-2.05-6.262-4.07-9.358-6.157Q707.57 169.488 521.4 43.964c-9.422-6.353-13.202-6.354-22.651-.01q-94.973 63.758-189.925 127.544c-62.518 42.197-125.672 83.453-187.513 126.653-1.53 1.069-3.015 2.201-5.362 3.92zM575.815 65.981c23.28 15.793 45.685 31.05 68.171 46.187 3.483 2.345 7.038 1.514 10.056-1.26a88.493 88.493 0 0 1 11.431-8.865c18.35-12.03 39.177-15.275 60.398-16.699 38.387-2.574 76.816-4.535 115.188-7.3a234.658 234.658 0 0 0 74.397-17.875c1.525-.64 3.445-.886 4.41-2.758-3.119 0-5.958-.228-8.752.036-23.29 2.204-46.597 1.9-69.895.379-38.06-2.486-75.854-7.764-113.846-10.997-34.667-2.95-69.219-2.72-103.562 3.38a172.534 172.534 0 0 0-47.996 15.772zM96.911 57.1l-.186.796c4.746 1.789 9.471 3.637 14.243 5.357 35.685 12.866 72.954 15.909 110.416 17.947 28.093 1.528 56.273 1.657 84.26 4.957 21.392 2.523 41.23 9.04 57.963 23.194 7.022 5.94 7.274 6.07 14.975.9q28.19-18.924 56.33-37.922c2.408-1.63 6.84-2.814 6.564-5.308-.376-3.39-4.694-4.696-7.825-6.221a18.369 18.369 0 0 0-1.86-.706c-26.39-9.47-53.665-14.094-81.632-14.92-47.807-1.412-94.982 5.72-142.33 10.524-31.515 3.199-63.07 5.103-94.746 2.66q-8.086-.625-16.172-1.258zm726.585 59.195c-4.042 0-6.983-.105-9.915.018-16.825.703-33.535-.036-50.114-3.288-7.104-1.393-10.939.852-14.161 7.122-1.504 2.928-1.301 4.392 2.383 4.835 13.884 1.667 27.793 3.03 41.776 1.986 10.504-.784 20.787-2.618 30.03-10.673zm-629.114.035l-.078 1.69c2.912 1.98 6.265 2.963 9.544 4.092 21.625 7.444 43.755 4.094 65.779 3.076 2.122-.098 1.87-1.253 1.573-2.676-1.529-7.337-7.261-11.05-14.84-9.589-8.821 1.7-17.678 3.257-26.68 3.37-11.765.15-23.532.037-35.298.037zm607.725 39.82c-6.566 0-11.814.101-17.058-.018-14.733-.335-29.58 1.422-44.077-3.131-4.787-1.504-8.122.82-8.579 4.916-.498 4.47 2.757 5.823 6.204 6.23 7.754.915 15.568 1.32 23.32 2.245a91.17 91.17 0 0 0 18.92.756c8.045-.716 14.637-4.387 21.27-10.997zm-556.67-57.006c-25.504-8.897-52.46-4.628-78.505-8.73 24.75 15.206 51.035 17.053 78.505 8.73zM850.3 91.448c-25.477 3.05-51.762-1.42-77.671 8.39 27.69 6.778 53.498 6.8 77.67-8.39zm-631.816 68.198a10.503 10.503 0 0 0 1.564 1.464c1.332.675 2.68 1.33 4.062 1.891 9.786 3.973 19.968 4.888 30.368 3.687 9.242-1.067 18.462-2.322 27.697-3.454 3.32-.408 6.572-.877 5.98-5.44-.592-4.556-3.945-4.853-7.471-4.41-3.953.495-7.853 1.47-11.814 1.837-16.538 1.535-33.09 2.92-50.386 4.425zm625.246-37.47a76.775 76.775 0 0 0 13.609-.508c18.805-2.335 35.445-10.878 52.457-18.32 1.738-.76 3.155-2.406 4.506-3.842.831-.884 2.247-1.979 1.347-3.377-.667-1.037-2.114-.603-3.256-.461a23.855 23.855 0 0 0-10.317 3.415 40.82 40.82 0 0 1-12.42 4.958c-11.422 2.934-22.801 6.034-34.178 9.139a18.19 18.19 0 0 0-11.748 8.997zm-561.675 14.999c-14.694-.528-28.877 1.05-43.088 1.494-14.233.445-28.33-.209-43.04-3.733 13.513 12.748 65.29 15.569 86.128 2.239zM173.7 121.005c-8.727-6.12-17.236-9.24-25.964-11.936-10.607-3.277-21.758-4.913-31.61-10.505a10.92 10.92 0 0 0-4.298-1.2c-1.742-.16-4.382-1.108-5.079.446-.98 2.186 1.208 4.144 2.992 5.168 3.142 1.803 6.656 2.942 9.906 4.575 16.55 8.32 33.788 13.874 54.053 13.452zm565.576 18.799c4.554.743 8.159 1.347 11.77 1.918 14.129 2.237 28.182 5.226 42.628 4.362a61.093 61.093 0 0 0 30.617-10.142 2.706 2.706 0 0 0-1.835-.312c-21.328 2.806-42.654 4.915-64.176 1.828a37.42 37.42 0 0 0-19.004 2.346zm133.014-44c2.222.517 3.808-.649 5.523-1.102 15.755-4.165 30.585-10.801 45.486-17.223a14.523 14.523 0 0 0 8.062-8.78c-1.616.485-2.564.673-3.433 1.044A179.788 179.788 0 0 1 895.3 80.25a35.482 35.482 0 0 0-23.01 15.555zm12.8 35.447c-16.42-2.85-42.674 5.545-48.27 15.08 16.507-3.16 32.872-5.66 48.27-15.08zm-750.89.417c15.08 7.428 30.76 12.239 48.68 12.111-15.33-10.393-31.814-12.084-48.68-12.111zm647.274 48.271l-33.9-2.64c9.275 14.573 20.177 15.519 33.9 2.64zm-510.605-2.433L238 180.35c15.534 12.465 24.583 11.612 32.868-2.843zm545.718-12.336c16.427 2.621 30.337.028 42.962-8.66-14.132 1.472-28.633 1.101-42.962 8.66zm-633.634 14.172c12.454 6.111 25.377 6.832 38.728 2.925-12.81-2.06-25.525-4.996-38.728-2.925zm615.173 3.938c1.368.367 2.273.693 3.206.847 9.452 1.563 18.78.174 28.14-1.057 2.257-.297 4.326-.726 4.075-3.124-.278-2.654-2.663-2.034-4.71-1.979-7.74.206-15.257 2.828-23.112 1.934a7.839 7.839 0 0 0-7.599 3.379zm194.337 98.756c-1.345 3.85-2.714 7.692-4.02 11.555-.432 1.276-.629 2.54-2.459 2.599-1.916.061-2.08-1.42-2.508-2.568-1.534-4.12-2.958-8.28-4.424-12.426l-1.317.184c0 4.017.03 8.034-.019 12.05-.013 1.062.398 2.573-1.38 2.642-1.887.074-1.419-1.497-1.428-2.533q-.073-8.24-.001-16.48c.012-1.191-.614-2.876 1.491-3.08 1.72-.166 3.177-.127 3.886 2.073 1.612 5.001 3.5 9.914 5.586 15.73 2.919-5.107 3.796-9.972 5.491-14.512.606-1.621.73-3.645 3.429-3.367 3.096.32 1.999 2.584 2.033 4.148.114 5.325.038 10.653.045 15.98.002 1.225-.006 2.527-1.721 2.332-1.386-.157-1.141-1.408-1.146-2.358-.022-3.952-.01-7.904-.01-11.856l-1.528-.113zm-32.89 4.831a37.03 37.03 0 0 1 .026-4.477c.48-3.983-.358-6.553-5.198-5.628-1.136.217-2.526.14-2.374-1.622.122-1.417 1.354-1.196 2.305-1.2 4.48-.022 8.962-.037 13.443.007 1.062.01 2.607-.442 2.693 1.312.084 1.733-1.425 1.712-2.506 1.498-5.088-1.01-5.257 2.004-5.07 5.736.198 3.974.046 7.965.034 11.948-.003 1.203-.062 2.472-1.72 2.426-1.655-.046-1.616-1.36-1.624-2.531-.018-2.49-.005-4.979-.009-7.469z" class="cls-1"/><path d="M902.567 302.07H115.948c2.347-1.718 3.832-2.85 5.362-3.92 61.84-43.2 124.995-84.455 187.513-126.652q94.812-63.994 189.925-127.544c9.45-6.344 13.229-6.343 22.651.01q186.173 125.521 372.35 251.034c3.096 2.087 6.237 4.106 9.357 6.157zm-744.602-11.42h707.613c-7.756-5.572-14.473-10.669-21.454-15.373Q684.006 167.387 523.819 59.6c-10.314-6.941-16.815-6.846-27.08.058q-98.035 65.93-196.074 131.854-65.717 44.16-131.485 88.244c-4.213 2.832-8.436 5.752-11.215 10.895z" class="cls-2"/><path d="M575.815 65.981a172.534 172.534 0 0 1 47.996-15.772c34.343-6.1 68.895-6.33 103.562-3.38 37.992 3.233 75.786 8.511 113.846 10.997 23.298 1.52 46.605 1.825 69.895-.379 2.794-.264 5.633-.036 8.752-.036-.965 1.872-2.885 2.117-4.41 2.758a234.658 234.658 0 0 1-74.397 17.875c-38.372 2.765-76.801 4.726-115.188 7.3-21.22 1.424-42.047 4.67-60.398 16.699a88.493 88.493 0 0 0-11.431 8.865c-3.018 2.774-6.573 3.605-10.056 1.26-22.486-15.137-44.892-30.394-68.17-46.187zM96.91 57.099l16.173 1.257c31.675 2.444 63.23.54 94.746-2.659 47.348-4.805 94.523-11.936 142.33-10.524 27.967.826 55.243 5.45 81.631 14.92a18.369 18.369 0 0 1 1.86.706c3.132 1.525 7.45 2.832 7.826 6.221.276 2.494-4.156 3.678-6.564 5.308q-28.117 19.032-56.33 37.922c-7.701 5.17-7.953 5.04-14.975-.9-16.733-14.153-36.571-20.671-57.963-23.194-27.987-3.3-56.167-3.43-84.26-4.957-37.462-2.038-74.73-5.081-110.416-17.947-4.772-1.72-9.497-3.568-14.243-5.357z" class="cls-3"/><path d="M823.496 116.294c-9.244 8.055-19.527 9.889-30.031 10.673-13.983 1.045-27.892-.319-41.776-1.986-3.684-.443-3.887-1.907-2.383-4.835 3.222-6.27 7.057-8.515 14.161-7.122 16.579 3.252 33.29 3.99 50.114 3.288 2.932-.123 5.873-.018 9.915-.018zm-629.114.036c11.766 0 23.533.111 35.298-.037 9.002-.114 17.859-1.67 26.68-3.37 7.579-1.462 13.311 2.251 14.84 9.588.297 1.424.549 2.578-1.573 2.676-22.024 1.018-44.154 4.368-65.779-3.076-3.279-1.13-6.632-2.112-9.544-4.093zm607.725 39.82c-6.633 6.61-13.225 10.281-21.27 10.997a91.17 91.17 0 0 1-18.92-.756c-7.752-.925-15.566-1.33-23.32-2.245-3.447-.407-6.702-1.76-6.204-6.23.457-4.097 3.792-6.42 8.58-4.916 14.496 4.553 29.343 2.796 44.076 3.13 5.244.12 10.492.02 17.058.02zm-556.67-57.007c-27.47 8.323-53.755 6.476-78.505-8.73 26.045 4.102 53-.167 78.505 8.73zM850.3 91.448c-24.173 15.19-49.98 15.168-77.671 8.39 25.91-9.81 52.194-5.34 77.67-8.39zm-631.816 68.198c17.296-1.505 33.848-2.89 50.386-4.425 3.96-.367 7.86-1.342 11.814-1.838 3.526-.442 6.879-.145 7.47 4.41.594 4.564-2.659 5.033-5.979 5.44-9.235 1.133-18.455 2.388-27.697 3.455-10.4 1.201-20.582.286-30.368-3.687-1.383-.561-2.73-1.216-4.062-1.89a10.503 10.503 0 0 1-1.564-1.465zm625.246-37.469a18.19 18.19 0 0 1 11.748-8.997c11.377-3.105 22.756-6.205 34.178-9.139a40.82 40.82 0 0 0 12.42-4.958 23.855 23.855 0 0 1 10.317-3.415c1.142-.142 2.589-.576 3.256.46.9 1.4-.516 2.494-1.347 3.378-1.351 1.436-2.768 3.082-4.506 3.842-17.012 7.442-33.652 15.985-52.457 18.32a76.775 76.775 0 0 1-13.609.509zm-561.675 14.998c-20.837 13.33-72.615 10.509-86.128-2.239 14.71 3.524 28.807 4.178 43.04 3.733 14.21-.444 28.394-2.022 43.088-1.494zM173.7 121.005c-20.266.422-37.505-5.132-54.054-13.452-3.25-1.633-6.764-2.772-9.906-4.575-1.784-1.024-3.972-2.982-2.992-5.168.696-1.554 3.337-.606 5.08-.445a10.92 10.92 0 0 1 4.297 1.199c9.852 5.592 21.003 7.228 31.61 10.505 8.728 2.697 17.237 5.816 25.964 11.936zm565.575 18.799a37.42 37.42 0 0 1 19.004-2.346c21.522 3.087 42.848.978 64.176-1.828a2.706 2.706 0 0 1 1.835.312 61.093 61.093 0 0 1-30.617 10.142c-14.446.864-28.5-2.125-42.629-4.362-3.61-.571-7.215-1.175-11.769-1.918zM872.29 95.805a35.482 35.482 0 0 1 23.009-15.555 179.788 179.788 0 0 0 32.628-10.507c.87-.371 1.817-.56 3.433-1.045a14.523 14.523 0 0 1-8.062 8.781c-14.9 6.422-29.731 13.058-45.486 17.223-1.715.453-3.3 1.619-5.523 1.103zm12.798 35.446c-15.397 9.42-31.762 11.92-48.268 15.08 5.595-9.535 31.848-17.93 48.268-15.08zm-731.871 21.931c14.062 1.62 27.787 5.094 41.694 7.57 3.528.628 7.032 1.392 11.307 2.245-16.863 5.984-41.988 1.065-52.933-9.885zm-19.019-21.514c16.867.027 33.352 1.718 48.682 12.111-17.92.128-33.601-4.683-48.682-12.111zm647.275 48.272c-13.723 12.878-24.625 11.932-33.9-2.641zm-510.605-2.434c-8.285 14.455-17.334 15.308-32.868 2.843l32.868-2.843zM142.346 91.962c-9.754.697-18.528-2.93-27.262-6.428-7.828-3.136-15.091-7.437-22.51-12.02.664-.15 1.122-.417 1.453-.305 15.035 5.053 30.776 8.162 44.734 16.176a35.12 35.12 0 0 1 3.55 2.66zm674.24 73.208c14.329-7.559 28.83-7.188 42.962-8.66-12.625 8.688-26.535 11.281-42.962 8.66zm-633.634 14.172c13.203-2.07 25.918.865 38.728 2.925-13.351 3.907-26.274 3.186-38.728-2.925zm615.173 3.938a7.839 7.839 0 0 1 7.6-3.379c7.854.894 15.37-1.728 23.111-1.934 2.047-.055 4.432-.675 4.71 1.979.25 2.398-1.818 2.827-4.075 3.124-9.36 1.231-18.688 2.62-28.14 1.057-.933-.154-1.838-.48-3.206-.847zm-644.84-30.168l-.82-.192.751.263z" class="cls-2"/><path d="M142.31 92.045l.016.198s.015-.27.018-.276l-.033.078z" class="cls-2"/><path d="M157.965 290.65c2.779-5.143 7.002-8.063 11.215-10.895q65.716-44.161 131.485-88.244 98.06-65.893 196.073-131.854c10.266-6.904 16.767-7 27.08-.058Q683.997 167.4 844.125 275.277c6.98 4.704 13.698 9.8 21.454 15.373zm159.005-92.71c-5.293 3.43-10.635 6.787-15.871 10.301q-46.013 30.876-91.966 61.842c-1.256.846-3.36 1.238-2.913 3.507.38 1.93 1.93 1.99 3.499 1.993q40.718.065 81.435.136c3.942.004 6.674-1.808 7.725-5.755q9.486-35.648 18.957-71.3l.081-1.198zm340.541-30.317c-1.567-1.119-2.992-2.191-4.47-3.184q-33.996-22.831-68.033-45.602c-1.684-1.123-3.757-3.945-5.393-2.406-1.618 1.521-.89 4.752.205 7.101a25.27 25.27 0 0 0 2.345 3.817 72.422 72.422 0 0 1 10.858 23.957c3.38 13.136.076 24.302-10.33 33.272-6.534 5.631-14.187 9.223-21.97 12.642-6.835 3.001-7.251 4.618-3.074 10.747 13.594 19.947 27.282 39.831 40.655 59.926 3.412 5.128 7.514 7.506 13.62 7.402 11.826-.202 23.659-.031 35.488-.1 1.154-.007 2.644.776 3.526-.784-39.425-29.88-40.044-80.279 6.573-106.788zm-151.923 4.632v-22.497q0-35.994-.03-71.989c-.003-1.228.672-2.882-.772-3.607-1.373-.689-2.49.607-3.553 1.309-4.46 2.943-4.329 7.952-5.43 12.393q-18.664 75.298-37.26 150.612c-2.17 8.85-4.947 17.632-4.615 26.967.189 5.319 2.822 8.408 7.766 9.577a32.875 32.875 0 0 0 7.91.96c8.326-.11 16.647-.55 24.973-.708 9.44-.18 11.017-1.679 11.017-11.032q.003-45.993-.006-91.985zm-99.612 103.507c3.994-.194 7.985-.48 11.981-.556 4.093-.076 5.963-.914 4.458-5.873-5.603-18.454-10.657-37.075-16.065-55.59-4.894-16.753-9.064-33.733-15.19-50.108-3.09-8.26-6.717-9.615-14.59-5.555a167.882 167.882 0 0 0-19.47 12.155c-6.017 4.23-7.838 10.324-5.517 16.755 7.696 21.317 12.377 43.499 19.274 65.035 7.011 21.893 12.241 25.495 35.119 23.737zm283.316-.527h5.5q56.673 0 113.345-.044c1.665-.003 3.964 1.03 4.878-1.239 1.102-2.734-1.643-3.297-3.127-4.293q-44.314-29.757-88.72-59.38c-1.18-.787-2.185-2.126-4.301-1.797 3.829 26.883-3.354 49.601-27.575 66.753zM468.57 95.74c-18.948 12.614-36.803 24.489-54.642 36.387-3.659 2.44-4.458 5.527-3.158 9.91 7.561 25.476 14.855 51.031 22.26 76.554.431 1.484.213 3.781 2.228 3.913 2.748.18 2.661-2.39 3.129-4.284q8.004-32.416 16.028-64.828c4.645-18.843 9.257-37.695 14.155-57.652zm177.05 126.87a35.307 35.307 0 0 0 7.392 21.815c8.992 12.129 25.292 12.179 33.836.192a37.758 37.758 0 0 0-.293-44.281c-7.766-10.627-20.655-12.137-30.29-3.185-7.31 6.792-10.344 15.633-10.646 25.46zM530.206 104.62c0 23.144-.006 45.246.007 67.348.002 2.867 1.597 3.946 4.368 4.316 8.923 1.193 17.114-1.168 25.12-4.692 9.969-4.388 12.107-9.76 7.897-19.97-7.832-18.995-22.36-32.615-37.392-47.002zm43.876 170.762c-13.622-20.066-26.587-39.155-39.534-58.256-.791-1.167-1.611-2.214-3.197-1.738-1.829.548-1.205 2.164-1.208 3.361-.041 17.143.004 34.286-.059 51.428-.012 3.243 1.24 5.17 4.567 5.184 12.767.051 25.534.02 39.431.02zm-249.594-2.604c8.62 3.064 16.434 3.226 25.037-.04-8.666-4.226-16.48-4.218-25.037.04zm12.302-43.171a87.29 87.29 0 0 0-4.412 8.52 5.202 5.202 0 0 0 1.229 6.007 4.66 4.66 0 0 0 5.6.446c2.053-1.229 2.463-3.512 2.18-5.743-.41-3.216-2.278-5.777-4.597-9.23z" class="cls-1"/><path d="M657.511 167.623c-46.617 26.51-45.998 76.908-6.573 106.788-.882 1.56-2.372.777-3.526.784-11.83.069-23.662-.102-35.488.1-6.106.104-10.208-2.274-13.62-7.402-13.373-20.095-27.06-39.98-40.655-59.926-4.177-6.13-3.761-7.746 3.074-10.747 7.783-3.418 15.436-7.01 21.97-12.642 10.406-8.97 13.71-20.136 10.33-33.272a72.422 72.422 0 0 0-10.858-23.957 25.27 25.27 0 0 1-2.345-3.817c-1.095-2.349-1.822-5.58-.205-7.1 1.636-1.54 3.71 1.282 5.393 2.405q34.067 22.725 68.033 45.602c1.478.993 2.903 2.065 4.47 3.184z" class="cls-3"/><path d="M505.592 172.255q.005 45.993.002 91.985c0 9.353-1.576 10.851-11.017 11.032-8.326.159-16.647.598-24.973.709a32.875 32.875 0 0 1-7.91-.961c-4.944-1.169-7.577-4.258-7.766-9.577-.332-9.335 2.445-18.117 4.615-26.967q18.48-75.342 37.26-150.612c1.101-4.441.97-9.45 5.43-12.393 1.064-.702 2.18-1.998 3.553-1.309 1.444.725.77 2.38.771 3.607q.062 35.995.031 71.99 0 11.247.004 22.496z" class="cls-2"/><path d="M405.976 275.762c-22.878 1.758-28.108-1.844-35.12-23.737-6.896-21.536-11.577-43.718-19.273-65.035-2.321-6.43-.5-12.524 5.517-16.755a167.882 167.882 0 0 1 19.47-12.155c7.873-4.06 11.5-2.704 14.59 5.555 6.126 16.375 10.296 33.355 15.19 50.109 5.408 18.514 10.462 37.135 16.065 55.59 1.505 4.958-.365 5.796-4.458 5.872-3.996.075-7.988.362-11.981.556zm283.316-.527c24.221-17.152 31.404-39.87 27.575-66.753 2.116-.329 3.122 1.01 4.302 1.798q44.396 29.635 88.72 59.38c1.483.995 4.228 1.558 3.126 4.292-.914 2.27-3.213 1.236-4.878 1.239q-56.672.086-113.345.044h-5.5zm-371.452-76.57l-18.961 71.299c-1.05 3.947-3.783 5.759-7.725 5.755q-40.717-.04-81.435-.136c-1.569-.003-3.119-.063-3.5-1.993-.447-2.269 1.658-2.661 2.914-3.507q45.952-30.967 91.966-61.842c5.236-3.514 10.578-6.871 15.871-10.3z" class="cls-3"/><path d="M468.57 95.74c-4.898 19.957-9.51 38.809-14.155 57.652q-7.993 32.42-16.028 64.828c-.468 1.894-.38 4.463-3.129 4.284-2.015-.132-1.797-2.429-2.227-3.913-7.406-25.523-14.7-51.078-22.26-76.554-1.301-4.383-.502-7.47 3.158-9.91 17.838-11.899 35.693-23.773 54.641-36.388zm177.05 126.87c.301-9.826 3.335-18.667 10.645-25.46 9.635-8.95 22.524-7.44 30.29 3.186a37.758 37.758 0 0 1 .293 44.281c-8.544 11.987-24.844 11.937-33.836-.192a35.307 35.307 0 0 1-7.393-21.814zM530.207 104.62c15.032 14.387 29.56 28.007 37.392 47.002 4.21 10.21 2.072 15.581-7.897 19.97-8.006 3.524-16.197 5.885-25.12 4.692-2.77-.37-4.366-1.449-4.368-4.316-.013-22.102-.007-44.204-.007-67.348zm43.876 170.762c-13.897 0-26.664.03-39.431-.021-3.327-.014-4.579-1.94-4.567-5.184.063-17.142.018-34.285.059-51.428.003-1.197-.62-2.813 1.208-3.361 1.586-.476 2.406.57 3.197 1.738 12.947 19.101 25.912 38.19 39.534 58.256zm-249.593-2.604c8.556-4.258 16.37-4.266 25.036-.04-8.603 3.266-16.418 3.104-25.037.04zm12.301-43.171c2.319 3.453 4.188 6.014 4.596 9.23.284 2.231-.126 4.514-2.18 5.743a4.66 4.66 0 0 1-5.599-.446 5.202 5.202 0 0 1-1.23-6.008 87.29 87.29 0 0 1 4.413-8.52z" class="cls-2"/><path d="M316.97 197.94l.947-.474-.079 1.199-.868-.725z" class="cls-3"/></svg>