<svg xmlns="http://www.w3.org/2000/svg" role="img" viewBox="-6.82 -5.32 848.64 397.64"><title>BigDL logo</title><defs><style>.cls-1{fill:#3e3e3e}.cls-2{fill:#828282}.cls-5{opacity:.5}</style></defs><path d="M709.962 11.122h114.913v114.913H709.962z" class="cls-1"/><path d="M341.884 49.535h331.5V368.97h-331.5z" class="cls-2"/><path fill="#fefefe" d="M358.903 208.33q0-65.089-.01-130.177c-.002-4.536-.398-9.08 6.365-8.95 36.014.686 72.146-2.184 107.994 3.427 28.866 4.52 45.51 22.78 46.458 51.861 1.873 57.443 2.356 114.903.133 172.351-1.238 32.005-14.764 46.296-46.809 49.103-35.402 3.102-70.911.593-106.36 1.45-7.698.186-7.495-4.518-7.491-9.763q.043-64.651.016-129.303zm185.19.193c-.01-42.78.24-85.562-.21-128.338-.097-9.188 3.058-11.49 11.665-11.171 16.094.596 32.241.593 48.335-.006 8.394-.312 11.021 2.226 10.978 10.795-.327 64.754-.236 129.511-.145 194.267.027 19.573-2.243 16.857 17.52 17.102 6.444.08 12.896.183 19.336-.018 4.972-.155 7.635 1.328 7.55 6.908-.213 14.062-.131 28.129-.018 42.193.037 4.527-1.19 7.112-6.403 7.094q-50.983-.176-101.967.006c-7.486.033-6.609-4.993-6.612-9.613q-.047-64.61-.03-129.219z"/><path d="M113.126 195.974c-2.369-1.552-6.14-2.024-7.48-6.31 19.86-5.836 23.618-21.475 23.714-39.304.065-12.026.045-24.038-1.835-35.964-4.467-28.338-13.646-43.331-46.674-47.916a52.41 52.41 0 0 0-6.628-.643q-28.97-.099-57.941-.01c-2.36.004-4.708.086-6.573 1.857-.063 3.515-.202 7.03-.175 10.545q.913 120.478 1.858 240.957c.04 5.276.217 10.56.018 15.827-.16 4.246 1.68 5.65 5.746 5.534 27.234-.778 54.524 1.11 81.713-1.852 19.601-2.134 26.929-6.15 32.368-29.407 5.657-24.193 3.371-48.958 2.064-73.54-.864-16.253-5.685-30.275-20.175-39.774zM62.61 140.843c-.112 0 .115 1.431.003 1.431 0-7.036-.19-14.08.088-21.105.122-3.065-1.953-7.732 3.706-8.227 4.566-.4 8.965.434 11.023 5.305a25.576 25.576 0 0 1 2.08 7.586 225.31 225.31 0 0 1-.06 36.891 14.918 14.918 0 0 1-1.27 5.094c-2.422 5.15-7.13 5.823-11.95 5.135-4.863-.695-3.096-4.977-3.192-7.815a761.615 761.615 0 0 1-.428-24.295zM80.397 280.52c-.28 2.54-.814 5.424-2.264 7.384a11.421 11.421 0 0 1-11.674 4.403c-4.233-.942-2.144-5.411-2.227-8.232-.291-9.914-.51-19.842-.51-29.765 0-9.63-.174-19.267.105-28.89.086-2.978-2.18-7.843 3.49-8.187 4.722-.287 9.55.623 11.686 5.8a22.412 22.412 0 0 1 1.298 6.82c1.244 16.885 1.963 33.784.096 50.667zm251.693-51.127c-.138-36.051-.545-72.102-.455-108.152.016-6.533-1.821-8.973-8.45-8.465-6.998.537-14.06.218-21.095.267-16.42.115-16.42.113-22.15 14.462-3.097-3.271-5.903-6.578-9.058-9.51-17.744-16.491-44.974-8.64-51.533 14.641-2.399 8.516-4.131 17.078-4.119 25.92.043 31.358.262 62.716.2 94.074a192.992 192.992 0 0 0 1.958 26.271c2.404 17.788 12.88 29.6 28.59 32.63 14.006 2.702 25.153-2.865 36.302-14.274 0 11.427.14 20.429-.054 29.424-.113 5.275-1.375 10.22-8.032 10.495-6.267.26-7.64-4.375-8.392-9.252-.56-3.627-.934-6.827-6.057-6.672-12.888.39-25.788.368-38.682.553-2.459.036-4.343.534-5.023 3.646-2.91 13.314 7.755 36.57 20.13 43.212 16.621 8.92 34.438 9.088 52.26 5.87 27.782-5.016 42.563-22.816 43.848-51.071 1.425-31.363-.07-62.714-.189-94.07zm-51.304 31.523c-.008 2.906-.016 5.842-1.498 8.537a6.184 6.184 0 0 1-5.643 3.487 5.344 5.344 0 0 1-5.388-3.719 18.89 18.89 0 0 1-1.405-5.912q-.432-50.405-.636-100.812a24.129 24.129 0 0 1 .889-6.924c.982-3.29 3.037-5.7 6.934-5.499 3.577.185 5.2 2.709 5.71 5.693a70.068 70.068 0 0 1 .884 11.33c.094 14.907.039 29.815.039 44.723h.136c0 16.365.024 32.73-.022 49.096zm-77.588-24.438c0-30.473-.092-60.945.09-91.417.03-5.024-.942-7.37-6.671-7.239-15.521.354-31.058.255-46.584.044-4.69-.064-6.772 1.032-6.76 6.275q.227 92.295.011 184.591c-.012 5.156 1.917 6.432 6.69 6.36 14.94-.224 29.902-.501 44.82.103 7.38.3 8.595-2.56 8.532-9.06-.29-29.883-.127-59.771-.128-89.657z" class="cls-1"/><path d="M143.363 117.583c-.04 4.419 1.668 6.33 6.19 6.294q23.674-.186 47.35-.002c4.41.031 6.346-1.656 6.302-6.185q-.196-20.166.01-40.334c.044-4.434-1.7-6.368-6.202-6.282-8.18.157-16.366.045-24.55.042-7.599-.003-15.2.112-22.797-.048-4.426-.093-6.35 1.668-6.307 6.182q.192 20.165.004 40.333z" class="cls-2"/><path fill="#838383" d="M428.048 207.49c0-26.963-.115-53.927.132-80.889.035-3.794-2.64-10.099 3.962-10.681 5.948-.525 12.505.247 15.776 7.058a19.286 19.286 0 0 1 1.647 8.549c.03 47.77.114 95.54.004 143.308a61.958 61.958 0 0 1-1.92 14.751c-1.525 6.091-10.061 10.644-16.084 9.277-4.717-1.071-3.41-4.924-3.422-7.844-.104-27.843-.062-55.685-.062-83.528z"/><g class="cls-5"><path d="M341.884 49.535l368.078-38.413M341.975 50.41l-.182-1.749 368.169-37.539.164 1.578-368.151 37.71z" class="cls-1"/></g><g class="cls-5"><path d="M673.384 368.97l151.49-242.936m-152.31 242.424l151.64-242.843 1.49.93-151.64 242.844z" class="cls-1"/></g><g class="cls-5"><path d="M676.489 143.016l33.473-16.982m-36.578 19.543v-1.973l36.179-18.354.798 1.569-36.977 18.758z" class="cls-1"/></g></svg>