<svg xmlns="http://www.w3.org/2000/svg" role="img" xmlns:xlink="http://www.w3.org/1999/xlink" viewBox="7.22 6.22 1184.56 247.56"><title>BoTorch logo</title><defs><linearGradient id="b" x1="72.437" x2="72.437" y1="228.76" y2="29.06" gradientUnits="userSpaceOnUse"><stop offset="0" stop-color="#7b26ba"/><stop offset="1" stop-color="#fe610d"/></linearGradient><linearGradient id="c" x1="143.905" x2="143.905" y1="228.71" y2="98.3" gradientUnits="userSpaceOnUse"><stop offset="0" stop-color="#7b26ba"/><stop offset=".22" stop-color="#a13788"/><stop offset=".48" stop-color="#c94953"/><stop offset=".707" stop-color="#e6562d"/><stop offset=".887" stop-color="#f75e16"/><stop offset="1" stop-color="#fe610d"/></linearGradient><linearGradient id="a" x1="135.697" x2="103.63" y1="44.904" y2="82.761" gradientTransform="matrix(1 0 0 -1 0 262)" gradientUnits="userSpaceOnUse"><stop offset=".25" stop-color="#4872f9"/><stop offset=".37" stop-color="#4e6bf0"/><stop offset=".57" stop-color="#5d59d9"/><stop offset=".82" stop-color="#773cb2"/><stop offset="1" stop-color="#8b2493"/></linearGradient><linearGradient id="d" x1="116.672" x2="73.182" y1="61.033" y2="87.333" xlink:href="#a"/></defs><path fill="#252525" d="M426.61 179.06c0 28.48-18 49.7-63.07 49.7h-55.82V47.08h52.91c43.31 0 60.17 19.48 60.17 46.52 0 16.85-10.76 38.07-38.66 43 29.36 3.79 44.47 20.66 44.47 42.46zM360.05 58.13h-40.12v74.13h38.37c28.49 0 50.29-12.5 50.29-37.79 0-21.8-14.24-36.34-48.54-36.34zm-1.75 85.17h-38.37v74.42h43.9c37.2 0 50.57-16.28 50.57-38.95 0-21.22-16.56-35.47-56.1-35.47zm155.82 88.37c-36.05 0-64.24-26.74-64.24-68.89s29.35-70.06 65.4-70.06 64.24 26.75 64.24 68.9-29.36 70.05-65.4 70.05zm.58-128.19c-30.23 0-52.91 24.42-52.91 58.72 0 36.33 22.39 58.72 52.91 58.72 30.23 0 52.9-24.42 52.9-58.72 0-36.34-22.67-58.72-52.9-58.72z"/><path fill="#1c60f7" d="M645.72 58.42v170.34h-12.21V58.42h-64.24V47.08H710v11.34zM764 231.67c-36.05 0-64.25-26.74-64.25-68.89s29.36-70.06 65.41-70.06 64.24 26.75 64.24 68.9-29.4 70.05-65.4 70.05zm.58-128.19c-30.24 0-52.91 24.42-52.91 58.72 0 36.33 22.38 58.72 52.91 58.72 30.23 0 52.9-24.42 52.9-58.72-.05-36.34-22.72-58.72-52.95-58.72zM871.3 228.76h-11.92V96.5l11.92-3.78v33.14c7.85-19.48 23-33.14 41-33.14a48.12 48.12 0 0 1 21.8 5.53L930.6 109a37.92 37.92 0 0 0-19.47-5.23c-15.12 0-28.78 11.34-39.83 41.28zm132.06 2.91c-37.79 0-64.53-28.49-64.53-68.89s26.45-70.06 63.08-70.06c15.7 0 29.65 4.07 40.11 11l-2.9 10.75a69.51 69.51 0 0 0-37.21-10.75C972 103.77 951 128.48 951 162.2c0 34 20.64 58.42 52.32 58.42 12.79 0 25.87-4.94 35.47-11l2.9 10.75c-10.69 6.63-24.37 11.3-38.33 11.3zm153.92-2.91v-88.37c0-23.54-9.88-36.62-31.39-36.62-15.12 0-31.39 8.43-45.93 23v102H1068V32.84l12-3.78v86.63c15.41-15.7 34.59-23 47.38-23 26.17 0 41.86 15.7 41.86 45.06v91z"/><path fill="#f7931e" d="M100.06 133.53c5.86 14.18 12.64 28.17 18.49 41.91C135.63 152.91 145 128.61 145 98.3c-19.42-35.54-43.62-67.51-44.88-69.17 22.72 35.15 14.02 70.3-.06 104.4z"/><path fill="url(#b)" d="M100.08 29.14v-.08S75.05 61.8 55.1 98.3c-13.26 24.25-24.3 50.16-24.3 69.22 0 29.88 16.4 50.68 36.93 61.24 0-17.2 6.09-35 13.86-53.32 5.84-13.74 12.62-27.73 18.47-41.91 14.08-34.1 22.78-69.25.02-104.39z"/><path fill="url(#c)" d="M169.26 167.52c0-19.06-11-45-24.3-69.22 0 30.31-9.33 54.61-26.41 77.14 7.76 18.27 13.86 36.09 13.87 53.27 20.49-10.57 36.84-31.36 36.84-61.19z"/><path fill="url(#a)" d="M100.08 196.42v.05l32.29 32.29a.31.31 0 0 0 .1 0c0-17.18-6.11-35-13.87-53.27a204.002 204.002 0 0 1-18.52 20.93z"/><path fill="url(#d)" d="M100.06 133.53c-5.85 14.18-12.63 28.17-18.47 41.91-7.77 18.29-13.86 36.12-13.86 53.32L100 196.47v-.05a204 204 0 0 0 18.47-21c-5.77-13.72-12.55-27.71-18.41-41.89z"/></svg>