<svg xmlns="http://www.w3.org/2000/svg" role="img" viewBox="-5.10 -5.10 1201.20 465.20"><title>Brooklin logo</title><style>.st0{fill-rule:evenodd;clip-rule:evenodd;fill:#0078B5;} .st1{fill:#0078B5;} .st2{fill-rule:evenodd;clip-rule:evenodd;fill:url(#SVGID_1_);} .st3{fill-rule:evenodd;clip-rule:evenodd;fill:url(#SVGID_2_);} .st4{fill-rule:evenodd;clip-rule:evenodd;fill:#FFFFFF;} .st5{fill:#FFFFFF;} .st6{fill-rule:evenodd;clip-rule:evenodd;fill:url(#SVGID_3_);} .st7{fill-rule:evenodd;clip-rule:evenodd;fill:url(#SVGID_4_);}</style><style>.st0{fill-rule:evenodd;clip-rule:evenodd}.st0,.st1{fill:#0078b5}</style><style>.st0{fill-rule:evenodd;clip-rule:evenodd}.st0,.st1{fill:#0078b5}</style><style>.st0{fill-rule:evenodd;clip-rule:evenodd}.st0,.st1{fill:#0078b5}</style><style>.st0{fill-rule:evenodd;clip-rule:evenodd}.st0,.st1{fill:#0078b5}</style><style>.st0{fill-rule:evenodd;clip-rule:evenodd}.st0,.st1{fill:#0078b5}</style><style>.st0{fill-rule:evenodd;clip-rule:evenodd}.st0,.st1{fill:#0078b5}</style><style>.st0{fill-rule:evenodd;clip-rule:evenodd}.st0,.st1{fill:#0078b5}</style><style>.st0{fill-rule:evenodd;clip-rule:evenodd}.st0,.st1{fill:#0078b5}</style><style>.st0{fill-rule:evenodd;clip-rule:evenodd}.st0,.st1{fill:#0078b5}</style><style>.st0{fill-rule:evenodd;clip-rule:evenodd}.st0,.st1{fill:#0078b5}</style><path id="canvas_background" fill="none" d="M-1-1h1176v484H-1z"/><path id="svg_1" d="M228.5 18.1c-116.1 0-210.2 94.1-210.2 210.2 0 115.4 94.1 209.5 210.2 209.5h735.1c116.1 0 210.2-94.1 210.2-209.5 0-116.1-94.1-210.2-210.2-210.2H228.5zm0 28h735.1c101.4 0 181.6 80.9 181.6 182.3 0 100.7-80.1 181.6-181.6 181.6H228.5c-101.4 0-182.3-80.9-182.3-181.6 0-101.5 80.8-182.3 182.3-182.3z" class="st0"/><path id="svg_2" d="M328.3 317.3V196h35.3v18.4c3.7-6.6 8.8-11 14.7-14 5.9-2.9 14-4.4 23.5-4.4h4.4v36.8h-1.5c-14 0-24.3 2.9-30.1 9.6-5.9 5.9-8.8 15.4-8.8 29.4v45.6h-37.5v-.1z" class="st1"/><path id="svg_3" d="M457.6 256.3c0 6.6 1.5 12.5 5.9 17.6 4.4 5.1 9.6 7.4 15.4 7.4 6.6 0 11.8-2.2 16.2-7.4s6.6-11 6.6-17.6c0-6.6-2.2-12.5-6.6-17.6-4.4-4.4-9.6-7.4-16.2-7.4-5.9 0-11 2.9-15.4 7.4-4.4 5.1-5.9 11-5.9 17.6zm-39.7 0c0-8.1 1.5-16.2 4.4-23.5 3.7-7.4 8.1-14.7 14-20.6 5.9-5.9 12.5-10.3 19.8-14 7.4-2.9 14.7-4.4 22.8-4.4 8.8 0 16.2 1.5 24.3 4.4 7.4 3.7 14 8.1 19.8 14 5.1 5.9 9.6 12.5 13.2 20.6 2.9 7.4 4.4 15.4 4.4 23.5 0 8.8-1.5 16.9-4.4 24.3-3.7 8.1-8.1 14.7-13.2 20.6-5.9 5.9-12.5 10.3-19.8 14-8.1 2.9-15.4 4.4-24.3 4.4-8.1 0-15.4-1.5-22.8-4.4-7.4-3.7-14-8.1-19.8-14-5.9-5.9-10.3-13.2-14-20.6-2.9-7.4-4.4-15.5-4.4-24.3z" class="st1"/><path id="svg_4" d="M592.1 256.3c0 6.6 2.2 12.5 6.6 17.6 4.4 5.1 9.6 7.4 15.4 7.4 5.9 0 11.8-2.2 16.2-7.4s5.9-11 5.9-17.6c0-6.6-1.5-12.5-5.9-17.6-4.4-4.4-10.3-7.4-16.2-7.4-5.9 0-11 2.9-15.4 7.4-4.3 5.1-6.6 11-6.6 17.6zm-38.9 0c0-8.1 1.5-16.2 4.4-23.5 2.9-7.4 7.4-14.7 13.2-20.6 5.9-5.9 12.5-10.3 19.8-14 7.4-2.9 15.4-4.4 23.5-4.4s16.2 1.5 23.5 4.4c7.4 3.7 14 8.1 19.8 14 5.9 5.9 10.3 12.5 13.2 20.6 2.9 7.4 4.4 15.4 4.4 23.5 0 8.8-1.5 16.9-4.4 24.3-2.9 8.1-7.4 14.7-13.2 20.6-5.9 5.9-12.5 10.3-19.8 14-7.4 2.9-15.4 4.4-23.5 4.4s-16.2-1.5-23.5-4.4c-7.4-3.7-14-8.1-19.8-14-5.9-5.9-10.3-13.2-13.2-20.6-2.9-7.4-4.4-15.5-4.4-24.3z" class="st1"/><path id="svg_5" d="M692.9 317.3V146h38.2v88.9h7.4c3.7 0 6.6-1.5 9.6-3.7 2.2-2.9 5.1-7.4 8.1-14.7l7.4-20.6H804l-14 36.8c-1.5 3.7-3.7 6.6-6.6 8.8-2.2 2.9-5.9 4.4-9.6 5.9 9.6 2.2 16.9 5.9 20.6 12.5 4.4 5.9 6.6 14 6.6 25v32.3h-38.2V290c0-7.4-1.5-11.8-4.4-14.7-2.9-3.7-7.4-5.1-13.2-5.1h-14v47h-38.3v.1z" class="st1"/><path id="svg_6" d="M820 146h39v171.3h-39z" class="st1"/><path id="svg_7" d="M878.8 162.9c0-5.9 2.2-11 6.6-15.4 4.4-4.4 9.6-6.6 15.4-6.6 6.6 0 11.8 2.2 16.2 6.6 3.7 4.4 5.9 9.6 5.9 15.4 0 6.6-2.2 11.8-5.9 16.2-4.4 4.4-9.6 6.6-16.2 6.6-5.9 0-11-2.2-15.4-6.6-4.4-4.4-6.6-9.5-6.6-16.2zm3 154.4V196h39v121.3h-39z" class="st1"/><path id="svg_8" d="M1014.8 317.3v-67.6c0-5.9-1.5-10.3-5.1-14-2.9-2.9-7.4-5.1-12.5-5.1s-9.6 2.2-13.2 5.1c-2.9 3.7-4.4 8.1-4.4 14v67.6h-38.2v-61.7c0-18.4 5.1-33.8 15.4-44.8 10.3-11.8 23.5-16.9 40.4-16.9 8.8 0 17.6 2.2 25.7 5.9 7.4 4.4 14.7 9.6 19.8 16.9 3.7 5.1 5.9 11 7.4 16.9 1.5 5.9 2.9 13.2 2.9 22.1v61.7h-38.2v-.1z" class="st1"/><g id="svg_9"><path id="svg_10" d="M185.9 110.6v2.7h6.8v-2.7h-6.8zm9.9 5.2v5.6h6.8v-5.6h-6.8zm-9.9 2v10h6.8v-10h-6.8zm20.5 5.2v2.8h6.8V123h-6.8zm-29.6 2.2v2.5h6.8v-2.5h-6.8zm19 1.6v9.1h6.8v-9.1h-6.8zm10.6 3.3v9.7h6.8v-9.7h-6.8zm-29.6.8v7h6.8v-7h-6.8zm9.1 2.1v20h-2.3v-12.5h-6.8v47.8h-11.7v11.5h-3.5v6.8h3.5v2.9h-9.2v6.9h9.2v1.4h-1.8v6.8h13.4v28.1c0 35.5 29.1 64.5 64.5 64.5s64.5-29.1 64.5-64.5c0-35.5-29.2-64.5-64.5-64.5h-28.1V143h-6.8v9.8h-3.7v-13.4h-6.8v13.4h-3.1v-20h-6.8v.2zm-41.3 55.3v6.9h4.5v-6.9h-4.5zm9 0v6.9h9v-6.9h-9zM139 199.8v6.8h5.3v-6.8H139zm10.7 0v6.8h8.8v-6.8h-8.8zm-9.3 9.7v6.9h10.9v-6.9h-10.9zm7.8 8.3v6.8h3.1v-6.8h-3.1zm6.3 0v6.8h6.4v-6.8h-6.4zm58.7 6.9h28.1c15.8 0 28 12.3 28 28.1 0 15.9-12.2 28.1-28 28.1-15.9 0-28.1-12.2-28.1-28.1v-28.1z" class="st0"/><path id="svg_11" fill="url(#SVGID_1_)" fill-rule="evenodd" d="M165.1 188.3h11.7v36.4h-11.7z" clip-rule="evenodd"/><path id="svg_12" fill="url(#SVGID_2_)" fill-rule="evenodd" d="M213.2 188.3h36.4v36.4h-36.4z" clip-rule="evenodd"/></g></svg>