<svg xmlns="http://www.w3.org/2000/svg" role="img" viewBox="-14.48 -10.48 1584.96 678.96"><title>Brooklin logo</title><defs><style>.cls-2{fill:#010101}</style></defs><path fill="#016698" d="M1139.515 221.49q0-85.886.004-171.772a29.362 29.362 0 0 1 28.266-29.578c3.064-.13 6.138-.047 9.207-.047q166.376-.003 332.753.002c13.503.001 24.276 6.858 28.803 18.401a29.368 29.368 0 0 1 2.102 10.75q.003 172.568-.048 345.136c-.014 17.657-14.386 28.998-29.006 29.099-11.324.078-22.65.013-33.974.013q-153.358 0-306.717.015c-16.567.005-27.502-9.54-30.627-22.698a32.491 32.491 0 0 1-.785-7.546q.016-85.887.008-171.774zm215.728-21.256v-3.028c.005-6.35-.056-12.702.054-19.051.033-1.945-.57-2.516-2.517-2.509q-27.783.103-55.567.002c-1.945-.007-2.583.498-2.488 2.477.193 4.015.2 8.04.196 12.061q-.089 82.08-.262 164.16c-.008 2.716.576 3.615 3.465 3.591 17.251-.142 34.504-.075 51.757-.074 5.369 0 5.368.007 5.369-5.34q.003-49.217 0-98.434c-.007-13.78 5.879-24.362 17.773-31.12 12.99-7.382 36.602-6.137 43.306 17.178a71.779 71.779 0 0 1 2.581 20.053c-.02 31.436.024 62.87-.054 94.306-.006 2.56.577 3.43 3.298 3.411q27.147-.182 54.296-.014c2.468.012 3.22-.654 3.214-3.194-.089-33.763-.01-67.527-.1-101.29-.035-13.167-1.564-26.146-6.109-38.624-4.711-12.936-12.096-23.898-23.565-31.821-13.752-9.5-29.22-12.408-45.556-11.429-14.977.898-28.187 6.147-38.903 16.966-3.584 3.618-6.663 7.647-10.188 11.723zm-154.757 66.36c0 29.216.042 58.432-.065 87.647-.01 2.936.831 3.7 3.72 3.68q26.673-.188 53.348.023c3.168.029 3.77-.948 3.766-3.919q-.137-87.646-.004-175.293c.003-2.62-.779-3.109-3.191-3.096-17.995.095-35.99.121-53.984-.02-2.917-.024-3.673.738-3.662 3.65.11 29.109.067 58.219.072 87.328zm-3.447-144.578c.092 7.347 3.749 15.955 12.118 22.053 10.358 7.549 21.998 8.3 33.872 4.838 11.045-3.22 18.472-10.615 21.116-21.968 2.713-11.651-.067-22.087-8.83-30.436-8.28-7.887-18.588-9.37-29.494-8.378-16.69 1.52-28.706 14.472-28.782 33.891z"/><path d="M1017.714 184.745c.712-.995.307-2.183.309-3.279.028-28.263.07-56.526-.044-84.788-.01-2.767.84-3.218 3.363-3.203q26.991.164 53.984-.017c2.681-.02 3.333.674 3.33 3.294q-.099 100.826-.026 201.653c.015 18.944.295 37.89 1.574 56.8.169 2.489-.545 2.904-2.85 2.89q-24.134-.154-48.269.003c-2.209.014-2.77-.567-2.907-2.765-.47-7.6-1.228-15.182-1.895-22.77-.061-.697.157-1.677-.733-1.912-1.114-.295-1.289.866-1.725 1.514-15.583 23.178-38.405 31.65-64.969 29.741-37.121-2.667-60.532-24.226-71.96-58.442-10.621-31.806-9.278-63.79 6.336-93.891 13.75-26.51 35.994-41.981 66.088-45.303a79.364 79.364 0 0 1 40.936 5.78 44.603 44.603 0 0 1 18.185 13.885c.276.363.491.972 1.273.81zm.233 75.747c0-5.818.345-11.66-.073-17.449-.856-11.867-6.185-21.485-16.196-28.017-19.032-12.416-44.75-5.046-54.765 15.998-9.062 19.044-9.546 38.878-2.175 58.515 5.645 15.042 16.701 23.902 33.142 25.584a35.943 35.943 0 0 0 38.926-28.07c1.89-8.787 1.015-17.699 1.14-26.561zM567.96 243.87c6.128-8.838 12.158-17.704 18.363-26.445 11.198-15.773 22.505-31.47 33.753-47.207.946-1.324 1.844-2.24 3.784-2.233 22.86.092 45.72.06 68.58.065.492 0 .983.053 2.002.112-6.135 6.79-11.907 13.194-17.697 19.581q-25.042 27.626-50.138 55.203c-1.44 1.576-1.414 2.512-.22 4.2q38.54 54.494 76.958 109.075c.298.423.547.88.832 1.344-.655.91-1.568.45-2.315.45-22.754.03-45.509-.035-68.262.103a5.458 5.458 0 0 1-5.438-3.097q-21.838-36.23-43.857-72.35c-.492-.809-.995-1.611-1.68-2.72-4.948 6.234-9.778 12.31-14.597 18.397-.81 1.022-.43 2.249-.431 3.378-.025 17.674-.067 35.349.038 53.023.014 2.503-.424 3.387-3.206 3.365q-27.304-.22-54.61-.014c-2.407.015-2.983-.6-2.981-2.958q.088-129.384-.008-258.767c-.002-2.48.773-2.932 3.066-2.92 18.097.103 36.195.135 54.292.005 2.792-.02 3.467.653 3.462 3.465q-.149 72.549-.067 145.098c0 .592-.245 1.242.377 1.847z" class="cls-2"/><path d="M803.898 281.724c-20.001 0-40.002.053-60.002-.067-2.53-.015-2.994.538-2.532 2.962 3.077 16.165 14.074 24.66 28.646 29.54 12.131 4.062 24.693 4.287 37.33 3.552a159.427 159.427 0 0 0 40.411-7.223c1.522-.496 2.218-.254 2.558 1.5q3.396 17.561 7.022 35.076c.45 2.162-.015 3.123-2.158 3.916a179.225 179.225 0 0 1-48.515 10.178c-15.868 1.246-31.69 1.145-47.414-1.787-39.679-7.398-67.44-32.874-74.165-73.304-3.918-23.556-1.707-46.387 8.423-68.091 13.8-29.566 36.802-47.55 69.126-53.026 18.66-3.161 37.119-2.265 54.906 4.756 20.294 8.009 33.992 22.82 42.307 42.672 9.11 21.752 10.38 44.425 7.122 67.552-.322 2.28-1.579 2.032-3.062 2.032q-30.002-.01-60.003-.004zm-27.214-40.602v-.015c10.885 0 21.772-.099 32.655.071 2.652.042 3.326-.827 2.935-3.2-.497-3.013-.718-6.086-1.412-9.05-6.405-27.363-32.067-30.822-48.558-22.58-13.362 6.678-18.95 18.829-21.4 32.855-.446 2.557 1.32 1.89 2.49 1.894 11.096.042 22.193.025 33.29.025zM357.71 200.357c5.106-6.273 10.08-12.27 16.386-17.037 11.264-8.514 24.203-11.737 38.051-11.752 13.886-.014 27.05 2.911 38.844 10.631 11.946 7.819 19.786 18.839 24.724 32.065a103.979 103.979 0 0 1 6.248 36.355c.104 34.72.002 69.441.14 104.162.012 2.98-.948 3.33-3.526 3.315q-26.993-.16-53.986.01c-2.524.017-3.109-.656-3.102-3.113q.125-47 .044-94a67.947 67.947 0 0 0-2.926-21.264c-5.97-18.256-25.731-26.191-42.562-16.833-12.86 7.15-18.432 18.483-18.373 33.06.13 32.603.038 65.208.037 97.811 0 4.273 0 4.273-4.288 4.273-17.573 0-35.145-.06-52.716.065-2.77.02-3.635-.526-3.626-3.522.16-54.514.715-109.028.32-163.544-.032-4.339-.063-8.682-.268-13.015-.087-1.85.532-2.26 2.294-2.255q27.946.088 55.892-.018c2.017-.01 2.458.612 2.433 2.497-.098 7.368-.04 14.74-.04 22.11zM16.978 225.909q0-64.463-.077-128.925c-.008-2.995.884-3.53 3.644-3.513q26.832.17 53.664-.04c2.686-.023 3.313.64 3.31 3.274q-.109 101.139-.054 202.278c0 4.11-.005 4.11 4.009 4.11q50.013-.006 100.025-.061c2.247-.005 2.819.618 2.806 2.832q-.14 24.768.01 49.537c.017 2.37-.76 2.686-2.87 2.684q-80.816-.09-161.632.018c-2.437.004-2.892-.657-2.888-2.953q.107-64.62.053-129.241zM269.1 267.238c0 29.209-.039 58.418.067 87.626.01 2.689-.72 3.26-3.32 3.242q-27.144-.186-54.29-.013c-2.386.013-3.198-.443-3.194-3.054q.124-88.102.005-176.204c-.003-2.556.76-3.099 3.187-3.085q27.144.153 54.29-.009c2.587-.017 3.328.562 3.319 3.236-.102 29.42-.064 58.84-.064 88.26zM238.608 150.97c-16.235-.005-28.41-8.51-32.477-22.688a30.896 30.896 0 0 1 24.923-39.518c9.662-1.625 19.075-.965 27.533 4.393 11.135 7.054 15.566 17.688 14.118 30.446-1.513 13.33-10.392 22.737-23.428 26.058a39.52 39.52 0 0 1-10.67 1.31z" class="cls-2"/><path fill="#fefefe" d="M1355.243 200.234c3.525-4.076 6.604-8.105 10.188-11.723 10.716-10.82 23.926-16.068 38.903-16.966 16.337-.979 31.804 1.928 45.556 11.429 11.47 7.923 18.854 18.885 23.565 31.821 4.545 12.478 6.074 25.457 6.109 38.623.09 33.764.011 67.528.1 101.291.007 2.54-.746 3.206-3.214 3.194q-27.147-.137-54.296.014c-2.721.018-3.304-.851-3.298-3.411.078-31.435.033-62.87.054-94.306a71.779 71.779 0 0 0-2.58-20.053c-6.705-23.315-30.317-24.56-43.307-17.178-11.894 6.758-17.78 17.34-17.773 31.12q.025 49.217 0 98.433c0 5.348 0 5.342-5.37 5.342-17.252-.002-34.505-.07-51.756.073-2.889.024-3.473-.875-3.465-3.592q.222-82.079.262-164.158c.005-4.021-.003-8.047-.196-12.062-.095-1.979.543-2.484 2.488-2.477q27.783.105 55.567-.002c1.948-.007 2.55.564 2.517 2.509-.11 6.349-.049 12.7-.053 19.05q-.002 1.515 0 3.029zm-154.76 66.36c-.002-29.11.041-58.219-.069-87.328-.011-2.912.745-3.674 3.662-3.65 17.994.141 35.99.115 53.984.02 2.412-.013 3.195.476 3.19 3.096q-.128 87.647.005 175.293c.004 2.971-.598 3.948-3.766 3.919q-26.673-.248-53.349-.023c-2.888.02-3.73-.744-3.719-3.68.107-29.215.065-58.431.062-87.647zm-3.444-144.578c.076-19.419 12.092-32.372 28.782-33.89 10.906-.994 21.215.49 29.494 8.377 8.763 8.349 11.543 18.785 8.83 30.436-2.644 11.353-10.07 18.749-21.116 21.968-11.874 3.462-23.514 2.71-33.872-4.838-8.37-6.098-12.026-14.706-12.118-22.053z"/><path d="M497.923 507.687q6.524 9.066 6.525 21.7 0 13.02-6.584 20.928a33.957 33.957 0 0 1-10.842 8.1q10.882 3.957 16.42 12.539 5.539 8.585 5.539 20.832a41.573 41.573 0 0 1-6.33 22.664 39.142 39.142 0 0 1-26.13 18.324 98.366 98.366 0 0 1-20.087 1.929h-64.053V492.546h68.7q26 .387 36.842 15.141zm-77.188 9.548v31.344h34.551q9.259 0 15.033-3.52 5.773-3.52 5.775-12.49 0-9.931-7.636-13.116-6.587-2.218-16.8-2.218zm0 54.876v37.903h34.514q9.244 0 14.395-2.508 9.342-4.63 9.343-17.745 0-11.09-9.057-15.239-5.054-2.314-14.205-2.41zm169.981-44.99q.53.048 2.364.145v28.16q-2.605-.29-4.63-.385-2.025-.095-3.28-.097-16.588 0-22.277 10.802-3.183 6.076-3.183 18.71v50.247h-27.68V529.58h26.233v18.324q6.366-10.512 11.092-14.37 7.714-6.46 20.06-6.462.77 0 1.301.049zm106.137 94.722q-13.31 16.428-40.41 16.428-27.102 0-40.41-16.428-13.31-16.429-13.31-39.557 0-22.739 13.31-39.41 13.31-16.672 40.41-16.672 27.1 0 40.41 16.672 13.308 16.67 13.309 39.41 0 23.128-13.31 39.557zm-21.99-15.192q6.46-8.57 6.462-24.365 0-15.794-6.462-24.315-6.462-8.523-18.517-8.524-12.057 0-18.565 8.524-6.51 8.52-6.51 24.315 0 15.795 6.51 24.365 6.51 8.573 18.565 8.57 12.055 0 18.517-8.57zm142.64 15.192q-13.31 16.428-40.41 16.428-27.102 0-40.41-16.428-13.309-16.429-13.309-39.557 0-22.739 13.31-39.41 13.309-16.671 40.409-16.672 27.1 0 40.41 16.672 13.309 16.67 13.309 39.41 0 23.128-13.309 39.557zm-21.99-15.192q6.46-8.57 6.463-24.365 0-15.794-6.462-24.315-6.462-8.523-18.517-8.524-12.057 0-18.566 8.524-6.51 8.52-6.51 24.315 0 15.795 6.51 24.365 6.51 8.573 18.566 8.57 12.055 0 18.517-8.57zm54.684-113.623h27.005v76.688l34.668-39.654h34.18l-37.68 39.163 39.139 65.478h-33.453l-25.47-44.914-11.384 11.834v33.08h-27.005zM988.4 634.703h-27.486V492.546H988.4zm55.07-117.661h-27.872v-25.364h27.872zm-27.872 12.538h27.872v105.123h-27.872zm139.258 6.027q10.325 8.536 10.325 28.307v70.789h-28.161v-63.942q0-8.293-2.203-12.73-4.022-8.101-15.317-8.101-13.884 0-19.052 11.862-2.682 6.27-2.681 16.01v56.901h-27.487v-104.93h26.62v15.334q5.279-8.102 9.987-11.67 8.449-6.364 21.417-6.365 16.229 0 26.552 8.535z"/></svg>