<svg xmlns="http://www.w3.org/2000/svg" role="img" viewBox="145.62 150.62 1007.76 976.76"><title>ByteDance logo</title><defs><style>.cls-1{fill:#3dbabf}.cls-2{fill:#e5004f}.cls-3{fill:#0a0000}</style></defs><g id="LOGOS"><path d="M593 411.19v-24.42a184.88 184.88 0 0 0-25-1.77c-102.08 0-185.13 83-185.13 185.11a185 185 0 0 0 79 151.59c-30.81-33.08-49.11-77.4-49.11-126.06A184.28 184.28 0 0 1 593 411.19z" class="cls-1"/><path d="M597.33 680.8c45.55 0 83.35-36.84 85-82l.14-402.51 73-.62a140.38 140.38 0 0 1-2.37-25.53H652.57l-.16 403.13A84.36 84.36 0 0 1 528.79 645c15.37 21.25 40.33 35.8 68.54 35.8zM893.1 333.19v-23.08a139.18 139.18 0 0 1-76.21-22.66c19.54 22.44 46.11 39.29 76.21 45.74z" class="cls-1"/><path d="M816.89 287.45a139.37 139.37 0 0 1-34.41-91.76h-27a140.25 140.25 0 0 0 61.41 91.76zM568 485.55A84.52 84.52 0 0 0 528.79 645a84.41 84.41 0 0 1 68.54-133.87 83 83 0 0 1 24.95 3.87V412.3a184.88 184.88 0 0 0-24.95-1.81c-1.46 0-2.91.08-4.37.11v78.86a83.28 83.28 0 0 0-24.96-3.91z" class="cls-2"/><path d="M893.1 332.52v78.18a239.21 239.21 0 0 1-139.94-45v204.41c0 102.09-83.06 185.15-185.15 185.15a184.07 184.07 0 0 1-106.1-33.56 184.62 184.62 0 0 0 135.42 59.08c102.09 0 185.15-83 185.15-185.14V391.22a239.28 239.28 0 0 0 139.94 45V335.63a140.3 140.3 0 0 1-29.32-3.11z" class="cls-2"/><path d="M753.16 570.11V365.69a239.21 239.21 0 0 0 139.94 45v-78.17a140 140 0 0 1-76.21-45.07 140.25 140.25 0 0 1-61.36-91.76h-73.64l-.16 403.13A84.39 84.39 0 0 1 528.79 645 84.52 84.52 0 0 1 568 485.55a83.28 83.28 0 0 1 25 3.91V410.6c-100.07 2.34-180.77 84.41-180.77 185a184.45 184.45 0 0 0 49.68 126.1A184.07 184.07 0 0 0 568 755.26c102.1 0 185.16-83.06 185.16-185.15zM165.77 890.89H328l-14.91 46.41H271v171.59h-52.43V937.28l-52.77.1zm427.94 0h166l-14.9 46.41h-45.75v171.59h-52.55V937.28l-52.76.1zm-255.84 69.34h52.01l-.05 148.64h-51.65l-.31-148.64zm72.64-69.95h51.95v101.51l51.48-50.52h62l-65.13 63.19 72.95 104.4h-57.22l-48.68-72.4-15.4 15v57.43h-51.95zm550.49 0h52v101.51l51.48-50.52h62l-65.13 63.19 72.94 104.4H1077l-48.69-72.4-15.39 15v57.43H961z" class="cls-3"/><circle cx="363.86" cy="917.06" r="26.18" class="cls-3"/><path d="M753.41 1019.89a89 89 0 0 1 82-88.68c-2.3-.18-5.83-.3-8.17-.3a89 89 0 0 0 0 178c2.34 0 5.87-.12 8.17-.3a89 89 0 0 1-82-88.72z" class="cls-1"/><path d="M855.25 930.91c-2.37 0-5.92.12-8.24.3a89 89 0 0 1 0 177.36c2.32.18 5.87.3 8.24.3a89 89 0 1 0 0-178z" class="cls-2"/><path d="M841.19 930.91a89 89 0 1 0 89 89 89 89 0 0 0-89-89zm0 132.23a43.26 43.26 0 1 1 43.25-43.25 43.25 43.25 0 0 1-43.25 43.25z" class="cls-3"/></g></svg>