<svg xmlns="http://www.w3.org/2000/svg" role="img" viewBox="2.70 2.32 113.23 48.61"><title>Ceph logo</title><g fill="#f0424d"><path d="M41.80488 44.61625c-1.60915-.85615-2.52825-1.82112-2.73167-2.86888-.19616-1.01452.25637-2.14288 1.38488-3.4506 2.69683-3.094 4.18223-7.0687 4.18223-11.19262 0-9.40423-7.65134-17.05648-17.05652-17.05648-.01533 0-.07522.00067-.07522.00067s-.06138-.00067-.0775-.00067c-9.4055 0-17.05573 7.65225-17.05573 17.05648 0 4.12391 1.48511 8.09862 4.18289 11.19394 1.1369 1.3164 1.5786 2.39909 1.39005 3.4044-.1957 1.04664-1.1169 2.025-2.74022 2.91244-2.48902-2.07456-4.69-4.84623-6.04774-7.62617-.73637-1.50867-1.30317-3.10194-1.68535-4.7353-.39343-1.67883-.59055-3.41138-.59055-5.1493 0-3.04148.5951-5.99575 1.77122-8.77767 1.13674-2.68397 2.7615-5.096 4.83272-7.16539 2.0689-2.07063 4.48075-3.69531 7.16559-4.83147C21.4353 5.15338 24.388 4.5574 27.43109 4.5574h.15271c3.04309 0 5.99624.59598 8.77795 1.77223 2.68401 1.13616 5.0957 2.76084 7.16555 4.83147 2.0694 2.0694 3.69573 4.48142 4.8319 7.16539 1.17624 2.78192 1.77264 5.73619 1.77264 8.77766 0 1.73793-.19922 3.47048-.59144 5.1493-.38189 1.63337-.94893 3.22664-1.68626 4.73531-1.3577 2.78105-3.55686 5.55244-6.04926 7.6275"/><path d="M33.48527 48.83464c-.26203-.16482-1.15724-.83077-2.02984-2.03968-.8371-1.15517-1.82208-3.07152-1.77058-5.63786.03228-1.54455.34192-3.04854.9222-4.46848.57601-1.40774 1.40212-2.69765 2.45442-3.83257l.00645-.00868c.0775-.0901.1542-.17978.23248-.26864.39718-.46083.80759-.93654 1.13496-1.49326.40363-.68442.69744-1.40356.87215-2.13924.2688-1.13616.28464-2.34217.04406-3.48618-.22199-1.05185-.66918-2.07105-1.29363-2.94973-.60495-.8514-1.39282-1.5941-2.27964-2.1471-.92426-.57737-1.98607-.9638-3.0676-1.11714-.36618-.05249-.74348-.07935-1.12252-.07935h-.16181c-.37825 0-.75634.02684-1.12136.07935-1.0809.15333-2.14255.53977-3.0678 1.11715-.88666.553-1.67614 1.2957-2.2806 2.1471-.62428.87867-1.0694 1.89787-1.29333 2.94972-.23988 1.144-.22538 2.35002.04538 3.48618.17404.73568.46785 1.45482.87065 2.13924.32903.55672.73882 1.03243 1.13613 1.49326.0781.08886.15416.17854.2331.26864l.0047.00868c1.05409 1.13492 1.87937 2.42483 2.45542 3.83257.5799 1.41994.8907 2.92393.92137 4.46848.05216 2.56634-.93298 4.4827-1.76913 5.63786-.87437 1.2089-1.7688 1.87486-2.03112 2.03968a22.10353 22.10353 0 0 1-1.30723-.39342c-1.2956-.43446-2.55745-.9903-3.75652-1.6558 2.06133-1.10897 3.37145-3.27396 3.37145-5.63349 0-1.56132-.60685-3.05904-1.80335-4.44942-.01773-.02116-.03616-.03827-.04988-.05216-.00242-.00351-.00629-.00562-.00918-.0095a42.97366 42.97366 0 0 0-.34841-.3828c-.3437-.37747-.6695-.73415-.96043-1.12472-1.08557-1.44985-1.88084-3.15017-2.3006-4.9162-.45623-1.9202-.48178-3.95694-.07426-5.88994.37503-1.78215 1.13302-3.51057 2.1892-4.99762 1.02177-1.4387 2.35354-2.69265 3.85093-3.6263 1.56876-.9787 3.36695-1.63295 5.19952-1.89415.62061-.08927 1.2564-.13267 1.89151-.13267H27.59203c.63528 0 1.27283.0434 1.89262.13267 1.83323.2612 3.63043.91546 5.19935 1.89415 1.49739.93365 2.82966 2.1876 3.85159 3.6263 1.05552 1.48705 1.81352 3.21547 2.19003 4.99762.40603 1.933.37987 3.96975-.0751 5.88994-.42086 1.76603-1.21518 3.46635-2.3022 4.9162-.29142.39057-.6159.74725-.96092 1.12472-.113.12432-.22893.25203-.34676.3828-.00403.00304-.00678.00599-.01081.0095-.01372.01389-.0331.03182-.04972.05493-1.21279 1.45138-1.80286 2.90649-1.80286 4.44665 0 2.35953 1.31012 4.52452 3.37373 5.63349-1.19956.6655-2.46157 1.22134-3.75719 1.6558-.43024.14416-.86987.27604-1.3085.39342"/><path d="M27.50697 31.77031c-2.45397 0-4.45153-1.99706-4.45153-4.45165 0-2.455 1.99756-4.45207 4.45153-4.45207s4.45054 1.99706 4.45054 4.45207c0 2.45459-1.99657 4.45165-4.45054 4.45165"/></g><path d="M69.53492 29.57468c0 3.12962-.28028 3.99492-1.03414 4.75-.44673.44687-1.14575.7537-2.45947.7537h-4.6096c-1.48083 0-2.37389-.25164-2.98943-.86546-.97688-.97844-1.25628-2.15192-1.25628-6.6772 0-4.52599.2794-5.7 1.25628-6.67723.61554-.61451 1.5086-.86525 2.98943-.86525h4.58254c1.36789 0 1.9824.2782 2.4577.75403.72596.72591 1.0062 1.7318 1.0062 4.55252h-2.82126c-.05656-1.95547-.168-2.29006-.33614-2.45788-.168-.1673-.39101-.25127-1.03347-.25127h-3.49233c-.86565 0-1.08917.08398-1.2844.27957-.2794.27856-.41945.80976-.41945 4.6655 0 3.85457.14004 4.38576.41945 4.66516.19523.1956.41875.27958 1.2844.27958h3.51961c.61518 0 .89564-.05573 1.08982-.25128.19595-.19612.30805-.7551.30805-2.65449h2.8225m4.91695-3.40857h6.87225c0-2.54186-.16814-3.10083-.41808-3.35246-.16884-.1673-.41945-.27856-1.28488-.27856h-3.46545c-.86565 0-1.08915.08385-1.31305.30682-.25162.25216-.36218.75373-.3908 3.3242zm0 2.31942c.02861 2.96078.19507 3.54752.41945 3.77106.22385.22386.41874.27993 1.2844.27993h3.91129c.64312 0 .83903-.1118 1.00703-.27993.19422-.1956.25008-.53071.30734-1.87167h2.8206c-.05555 2.34631-.2794 3.18468-1.03414 3.93976-.47447.47498-1.11693.7537-2.4577.7537h-4.88888c-1.481 0-2.37492-.25164-2.98961-.86546-.9786-.97844-1.25627-2.15192-1.25627-6.6772 0-4.52599.27767-5.7 1.25627-6.67723.61469-.61451 1.5086-.86525 2.9896-.86525h4.13432c1.48153 0 2.43064.2782 2.99031.83717.9767.97789 1.2561 2.1519 1.2561 6.56579v.75421c0 .22248-.0835.33512-.33583.33512h-9.41428m21.12247 3.6598c-.25092.25114-.61571.36289-1.53585.36289h-2.18056c-.89426 0-1.67121-.25216-2.73794-.79475-.06503-.03311-.12711-.06397-.19524-.09846V23.4004c1.11794-.55849 1.89975-.83753 2.8225-.83753h2.29124c.92014 0 1.28493.11175 1.53585.36289.4186.41856.5307 1.22832.5307 4.60996 0 3.38129-.1121 4.19016-.5307 4.6096zm-.83956-12.18177h-2.03777c-1.25817 0-1.87251.28042-3.77226 1.84474v-1.81506h-2.9051V38.4136h2.9051v-5.12257c1.89975 1.5357 2.51409 1.8151 3.77226 1.8151h2.03777c1.62207 0 2.43183-.2794 3.07425-.92099.80945-.81062 1.2013-1.95598 1.2013-6.64943 0-4.69381-.39185-5.84005-1.2013-6.64928-.64242-.64246-1.45218-.92288-3.07425-.92288m18.2454.86685c-.55897-.55897-1.28484-.86685-2.59837-.86685h-2.37408c-1.25747 0-1.87163.28042-3.7724 1.84474v-5.74998c-.90159-.495-1.84292-.85788-2.88448-1.08125-.00749.00035-.01307.00486-.0208.00742v20.09388h2.90527V23.4004c.21282-.10641.4115-.19904.60313-.2851.8155-.36615 1.47248-.55243 2.21866-.55243h1.95596c.97753 0 1.25702.11175 1.56432.41945.27949.27904.39075.72542.39075 1.45222v10.64383h2.907V24.23894c0-2.09552-.30818-2.82179-.89497-3.40853" fill="#333c46"/></svg>