<svg xmlns="http://www.w3.org/2000/svg" role="img" viewBox="-8.07 -8.07 419.90 195.90"><title>Chaitanya Bharathi Institute Of Technology logo</title><path d="M0 17.5V35h200.4c110.2 0 201.1.3 202 .6 1.4.5 1.6-1.4 1.6-17.5V0H0v17.5zM77.5 52c-.9 1-8 5.2-15.7 9.1C45 69.7 37.6 76 32.9 85.5c-2.9 5.9-3.1 7-2.8 14.7.5 9.8 3.4 16.9 10 23.9l4.1 4.4-3.6-4.5c-2-2.4-4.9-6.9-6.4-10-2.3-4.7-2.7-6.7-2.7-14.5 0-7.5.4-9.8 2.5-14 3.2-6.6 9.9-13.2 18.6-18.3 8.5-5.1 10.9-5.5 3.8-.8-6.2 4.2-10.5 9.4-14.2 17.3-2.4 5.2-2.7 7-2.7 16.3 0 9.4.3 11.1 2.8 16.5 1.5 3.2 3.9 7.4 5.2 9.1 1.4 1.8 2.5 3.5 2.5 3.7 0 1.1-12.8-.6-15.2-2.1-1.5-.9-3-1.3-3.4-.9-.4.3-.3 4.4.2 8.9l.9 8.3 4 1.4c6.5 2.2 19.9 2.5 29.9.7 12.2-2.3 21.6-2.2 31.7.5 10.9 2.9 25.2 3.2 29.2.6 2.6-1.7 2.7-2.1 2.7-10.1 0-4.5-.2-8.5-.5-8.8-.3-.3-2.2.3-4.3 1.4-2.6 1.3-5.4 1.8-9.4 1.7-3.2-.1-5.8-.4-5.8-.7 0-.2 1.6-2.6 3.6-5.3 18.5-25.3 3.8-60.8-27.4-65.8-6.4-1-15.6-.1-19.5 2.1-1 .5-2 .8-2.3.6-.2-.2 2.1-1.7 5.1-3.2 4.6-2.4 12-8.6 10.3-8.6-.3 0-1.3.9-2.3 2zm16 20.1c4.8 2.3 5.2 2.8 3.3 4.7-1 1-.6 1.8 1.5 3.9 2.2 2.2 2.9 2.5 3.9 1.5 1.1-1.1 1-1.2-.3-.7-1.8.7-5.4-2.9-4.4-4.4 1.2-2 3.1-1.1 6.2 2.6 4.6 5.9 6.4 10 7 16.4.4 5 .3 5.9-1.1 5.9-.9 0-1.6-.5-1.6-1 0-.6-.4-1-1-1-.5 0-.7.7-.4 1.5.4.8 1.5 1.5 2.5 1.5 2.8 0 2.4 3.7-1.2 10.8-2.9 6-9.9 13.2-12.6 13.2-.7 0-1.3-1-1.3-2.3 0-3.3-.8-3.8-3.8-2.4-2.1 1-2.6.9-3-.3-.8-2.4-6.1-7.2-7.2-6.5-.6.4-1-1.1-1-3.8v-4.5l-9.7-.6c-14.8-1-20.3-1.7-20.3-2.7 0-.5.9-.9 1.9-.9 1.1 0 2.3-.5 2.6-1 .3-.6 2.6-1 5.1-1 2.4 0 4.4-.5 4.4-1 0-.6 1.2-1 2.8-1.1 2.6-.1 2.6-.1.3-.8-2-.5-2.2-.8-.9-1.9 1.2-1 1.9-.7 3.9 1.7s3.3 3 6.9 3.1c7.9.3 9.8 0 10.4-1.6.5-1.3.3-1.4-.6-.7-.7.6-3.8 1.1-6.8 1.2l-5.6.1-1.1-4.3c-.7-2.3-1.5-5-1.8-5.9-.5-1.2 0-1.8 1.7-2.1 1.8-.3 1.6-.5-.9-.6-2.5-.1-3.1.2-2.7 1.4.4 1 0 1.5-1.5 1.5-1.2 0-2.1-.5-2.1-1 0-.6-1-1-2.2-.9-1.3 0-1.8.3-1.2.5.7.3.9 1.5.7 2.7-.5 1.8-.3 2 .8.9.7-.6 1.9-1.2 2.7-1.2.7 0 1.2.6.9 1.2-.2.7-1.1 1.2-1.8 1-.8-.2-1.1 0-.7.3 1.1 1.1-1 4.5-2.7 4.5-.8 0-1.5.5-1.5 1.1 0 .7-1.4 1-3.5.7-2.4-.3-3.5 0-3.5.9 0 .7-.7 1.3-1.6 1.3-1.4 0-1.6-1-1.2-6.6.2-3.8.9-6.9 1.7-7.3.7-.5 1.2-1.1 1.2-1.5-.1-.3.6-2 1.4-3.6 1.4-2.6 1.8-2.8 3.5-1.8 1.6 1 2.3.9 4.5-1.2 2.5-2.3 2.5-2.3 2.5-.2 0 1.1-.4 2.3-.9 2.7-.6.3-.9 1.4-.8 2.5.1 1 .4 1.7.8 1.4.4-.2 1 .2 1.2.8.4.9.8 1 1.4.2.4-.6 1.3-1.3 2-1.5.8-.3.9-.9.3-1.9-.8-1.3-1.1-1.2-2.3.4-.8 1.1-1.7 1.5-2 .9-.3-.5.2-1.5 1.2-2.2 1.1-.8 1.6-2.2 1.3-3.6-.3-1.9.2-2.5 3.3-3.5 2-.7 3.4-1.4 3.2-1.6-.2-.3-2.7.4-5.5 1.5-4.9 2-7.2 1.5-5.6-1 3-5 22.5-6.7 30.9-2.8zM58 73.5c1.9 1.1 2.1 1.4.8 1.5-1 0-1.8.5-1.8 1.1 0 .5-.5.7-1.2.3-.9-.6-.9-.9.1-1.2.8-.3.7-.8-.6-1.8-2.4-1.8-.5-1.7 2.7.1zm51.3.9c.3.8-.3 2.2-1.4 3.2-1.8 1.6-1.9 1.6-1.3.1.5-1.4.2-1.6-1.2-1-1.4.4-1.2 0 .6-1.5 3-2.6 2.7-2.5 3.3-.8zM62 78.5c0 1.5-2.7 2.8-4.2 1.9-.5-.3-.2-1.4.8-2.5 1.8-2 3.4-1.7 3.4.6zm-7.2.5c.4 1.2.2 1.3-.9.4-.8-.7-2.3-1.4-3.4-1.7-1.3-.4-.9-.5.9-.4 1.6.1 3.2.9 3.4 1.7zm55.8.5c-1.1.8-2.4 1.5-3 1.5-.5 0-.1-.7 1-1.5 1-.8 2.4-1.4 2.9-1.4.6 0 .1.6-.9 1.4zm-61.1.5c.3.5.1 1-.4 1-.6 0-1.1-.5-1.1-1 0-.6.2-1 .4-1 .3 0 .8.4 1.1 1zm2.5 2c0 .5-1 1-2.1 1-1.9 0-2 .2-.8 1.7 1.3 1.5 1.2 1.5-.8.2L46 83.5l2.3-1.2C51 80.8 52 80.7 52 82zm60.6.5c-2.5 1.9-4.1 1.9-2.4 0 .7-.8 2-1.4 2.8-1.4 1.1 0 1 .3-.4 1.4zM116 86c0 .3-1 1.1-2.2 1.9-1.3.7-2 1-1.6.6.4-.5.3-1.4-.2-2.1-.8-.9-.4-1.2 1.5-1 1.4 0 2.5.3 2.5.6zm-67.9 2.3c-.6.8-.7 1.7-.3 2.2.4.4-.3.1-1.5-.6-3-1.8-2.9-2.9.3-2.9 2.1 0 2.4.3 1.5 1.3zm69.9 3.1c0 .8-.4 1.8-1 2.1-.6.3-.7-.1-.4-.9 1-2.6-.4-1.8-2.1 1.1-1.4 2.4-1.6 2.5-1.2.5.3-1.2 0-2.2-.6-2.2-1.9 0 1.6-2 3.6-2 .9 0 1.7.6 1.7 1.4zM46.5 93c1.8.8 1.7.9-.7.9-1.5.1-3-.4-3.3-.9-.7-1.2 1.2-1.2 4 0zm24 0c.3.5.1 1-.6 1s-.4.6.7 1.4c1 .8 1.5 1.8 1.1 2.2-1.1 1.1-5.1-3.2-4.3-4.5.9-1.4 2.3-1.4 3.1-.1zm45.9 5.7c-2.6 1.9-3.6 1.6-2.2-.6.6-1.1 1.8-1.7 2.6-1.3 1.2.4 1.2.8-.4 1.9zM47 97.9c0 .4-1.1.6-2.5.3-1.4-.2-2.5-.6-2.5-.8 0-.2 1.1-.4 2.5-.4s2.5.4 2.5.9zm-1 3.6c-1 1.2-1 1.5 0 1.5.8 0 1.1.2.9.5-.3.2-1.5.1-2.8-.2-2.3-.6-2.3-.7-.6-2 2.5-1.8 4-1.7 2.5.2zm72 1.4c0 .4-1.1.6-2.5.3-1.4-.2-2.5-.6-2.5-.8 0-.2 1.1-.4 2.5-.4s2.5.4 2.5.9zM47 107c-2 1.3-4.3 1.3-3.5 0 .3-.6 1.6-1 2.8-1 1.8 0 1.9.2.7 1zm69.5 0l2 .9h-2c-1.1 0-2.7-.4-3.5-.9-1.3-.9-1.3-1 0-.9.8 0 2.4.4 3.5.9zM62 111.5c0 2.3.7 4.1 2 5.2 2.3 2 2.9 9.3.8 9.3-2.1-.1-4.8-2.6-4.8-4.5 0-1-.6-2.6-1.4-3.4-.7-.9-1.6-3.5-2-5.9C56 108 56 108 59 108c2.8 0 3 .3 3 3.5zM48.5 110c-.3.5-1.6 1-2.8 1-1.8 0-1.9-.2-.7-1 2-1.3 4.3-1.3 3.5 0zm21.5 2.7c0 2 .7 4.4 1.6 5.4 2.4 2.7 1 7.9-2.2 7.9-1.5 0-2.4-.6-2.4-1.6 0-1.1.6-1.5 2-1.1 1.8.4 1.6 0-1-3.3-2.1-2.6-3-4.9-3-7.4 0-3.2.3-3.6 2.5-3.6s2.5.4 2.5 3.7zm47-1.5c0 .6-.7.7-1.6.4-.9-.3-2-.6-2.5-.6s-.9-.4-.9-.9c0-.4 1.1-.6 2.5-.3 1.4.2 2.5.9 2.5 1.4zm-40.8 2.3c.5 4-1.1 6.2-3 4.3-.7-.7-1.2-2.7-1.2-4.5 0-2.6.4-3.3 1.9-3.3 1.4 0 2 .9 2.3 3.5zm-25.2 1c0 1.7-3.7 3.9-4.4 2.6-.3-.5.4-1.1 1.5-1.4 1.5-.4 2-1.1 1.5-2.2-.3-.9-.2-1.3.4-1 .6.3 1 1.3 1 2zm63.9.1c1.4 1.2-1.9.1-3.5-1.2-1.8-1.4-1.8-1.4.6-.3 1.4.6 2.7 1.3 2.9 1.5zm-29.2 6.9c1.6 3.3 1.7 3.4 4.5 1.9 2.7-1.4 2.8-1.4 2.8.9s-.2 2.3-5.2 1.6c-2.9-.4-7.4-.8-10-.8-2.7-.1-4.8-.3-4.8-.6 0-1.9 3.5-6.7 5.3-7.4 3-1.2 5.5.3 7.4 4.4zM49 138.1c0 1-.4 1.9-1 1.9-.5 0-1-1.2-1-2.6 0-1.4.4-2.3 1-1.9.6.3 1 1.5 1 2.6zm27-.5c0 2.2-1.6 1.7-1.7-.6-.1-1.1.2-1.8.8-1.5.5.4.9 1.3.9 2.1zm33-.1c0 2.5-1.5 2.4-1.6-.1-.1-1.3.2-2.1.7-1.8.5.3.9 1.1.9 1.9zm-72 .6c0 1.1-.4 1.7-1 1.4-.5-.3-1-1.3-1-2.1s.5-1.4 1-1.4c.6 0 1 .9 1 2.1zm4.7.2c.2 1.4-.1 1.6-1.2.7-1-.8-1.4-.8-1.8.2-.3.7-.6.3-.6-.9-.1-2.8 3.4-2.8 3.6 0zm3.7-.8c.3.8.1 1.5-.3 1.5-.5 0-1.1-.7-1.5-1.5-.3-.8-.1-1.5.3-1.5.5 0 1.1.7 1.5 1.5zm6.3 1.7c-.3.7-.5.2-.5-1.2s.2-1.9.5-1.3c.2.7.2 1.9 0 2.5zm3.6-1.2c-.3 1.1-.7 2-.9 2-.2 0-.4-.9-.4-2s.4-2 .9-2 .7.9.4 2zm3.8-.3c0 1.6.2 1.5 1-.2l.9-2-.3 2c-.3 2.5-3 2.7-3.5.2-.2-.9.1-1.7.7-1.7s1.1.8 1.2 1.7zm4.6 1.5c-.3.7-.5.2-.5-1.2s.2-1.9.5-1.3c.2.7.2 1.9 0 2.5zM68 138c0 1.1-.4 2-1 2-.5 0-1-.9-1-2s.5-2 1-2c.6 0 1 .9 1 2zm4.6-.1c0 1.1-.4 1.7-.8 1.5-.4-.3-.8-1.2-.8-2s.4-1.4.8-1.4.8.9.8 1.9zm5.1 1.3c-.3.7-.5.2-.5-1.2s.2-1.9.5-1.3c.2.7.2 1.9 0 2.5zm6.3-1c0 1.2-.3 1.8-.7 1.4-1.1-1-1.2-3.6-.2-3.6.5 0 .9 1 .9 2.2zm3.3-.2c.3 1.1.1 2-.4 2s-.9-.9-.9-2 .2-2 .4-2 .6.9.9 2zm3.2-1.1c-.3.6.3 1.5 1.2 2.1 1.7 1 1.6 1.1-.2.8-2.1-.3-3.5-3.8-1.5-3.8.6 0 .9.4.5.9zm4.8 1.6c-.7 2.1-1.3 1.9-1.3-.6 0-1.1.4-1.8 1-1.4.5.3.7 1.2.3 2zm2.4.7c-.3.7-.5.2-.5-1.2s.2-1.9.5-1.3c.2.7.2 1.9 0 2.5zm4.3-1.7c.7.9 1 1.8.6 2.2-.3.3-.6.1-.6-.6s-.6-1.1-1.3-.8c-.8.3-1.4-.1-1.4-.9 0-1.8 1.1-1.8 2.7.1zm3.7.6c.2 1.6-.1 1.9-.9 1.1-.5-.5-.7-1.5-.4-2.1 1-1.5 1.2-1.4 1.3 1zm5.6-.1c.3 1.1.1 2-.4 2s-.9-.9-.9-2 .2-2 .4-2 .6.9.9 2zm3 0c.3 1.1.1 1.8-.4 1.4-.5-.3-.9-1.2-.9-2 0-2 .7-1.7 1.3.6zm5.4.2c.2 1.5-.1 1.7-1.1.9-.7-.6-1.6-.8-1.9-.4-.4.3-.7 0-.7-.8 0-2.3 3.6-2.1 3.7.3zm5.3-.2c0 1.1-.2 2-.4 2s-.6-.9-.9-2c-.3-1.1-.1-2 .4-2s.9.9.9 2zm-2 .4c0 .3-.4.8-1 1.1-.5.3-1 .1-1-.4 0-.6.5-1.1 1-1.1.6 0 1 .2 1 .4z"/><path d="M75.1 72.2c-.1 1.1.8 1.8 2.7 2 4.8.5 8.2-.3 8.1-2.1 0-1-.2-1.1-.6-.4-.3.8-2.3 1.3-4.8 1.3s-4.5-.5-4.8-1.3c-.3-.7-.6-.6-.6.5zM92 76.5c0 .8.5 1.5 1 1.5.6 0 1-.7 1-1.5s-.4-1.5-1-1.5c-.5 0-1 .7-1 1.5zm-9.6 2.6c-.3.6 0 1.5.7 2 1.8 1.1 2.1 1.1 3.9-.1 1.3-.9 1.3-1.1 0-2-2-1.3-3.7-1.3-4.6.1zm10.8 1.4c-1.1 1.2-1 1.5.3 1.5.8 0 1.5-.7 1.5-1.5 0-1.8-.2-1.8-1.8 0zm-14.4 1.2c.7.3 1.6.2 1.9-.1.4-.3-.2-.6-1.3-.5-1.1 0-1.4.3-.6.6zm-6.5 1c.9.2 2.3.2 3 0 .6-.3-.1-.5-1.8-.5-1.6 0-2.2.2-1.2.5zm7.7 1.7c0 .8-.6 1.7-1.2 1.9-.8.3-.6.6.5.6 1.1.1 1.7-.6 1.7-1.9 0-1.1-.2-2-.5-2s-.5.6-.5 1.4zm-22.7.3c.9.2 2.3.2 3 0 .6-.3-.1-.5-1.8-.5-1.6 0-2.2.2-1.2.5zm17.5 0c.6.2 1.8.2 2.5 0 .6-.3.1-.5-1.3-.5-1.4 0-1.9.2-1.2.5zm15.7 1.4c-.8 2.5-.4 3.1 1.5 1.9 1-.6 1.1-1 .3-1-.7 0-1-.7-.7-1.5.4-.8.4-1.5.1-1.5-.3 0-.9.9-1.2 2.1zm3.8-.1c.5 3.1 1.7 3.6 1.7.7 0-1.5-.4-2.7-1-2.7-.5 0-.9.9-.7 2zm5.3-.3c-.8.9 1.4 3.3 3 3.3.8 0 1.4-.4 1.4-1 0-1.2-3.5-3.1-4.4-2.3zm-44.8 2c.7.3 1.6.2 1.9-.1.4-.3-.2-.6-1.3-.5-1.1 0-1.4.3-.6.6zm25.3 1.9c0 1.1.3 1.4.6.6.3-.7.2-1.6-.1-1.9-.3-.4-.6.2-.5 1.3zm-23.8.1c.9.2 2.3.2 3 0 .6-.3-.1-.5-1.8-.5-1.6 0-2.2.2-1.2.5zm32.5 3.9c-1.3 2.9-1.4 3.3-.3 1.8 2.3-3.2 6.1-2.1 7.7 2.2.7 1.9 1.6 3.4 2 3.4.5 0 .1-1.4-.7-3.1-.9-1.7-1.5-3.5-1.3-4.1.2-.5 1.3.8 2.3 3.1 1.6 3.2 2.5 4.1 4.5 4 2.3-.2 2.3-.2.3-.6-1.4-.3-3.1-2.2-4.7-5.6-1.4-2.8-2.6-4.3-2.6-3.4 0 2.3-4.7 2.3-5.2.1-.2-1.1-.9-.3-2 2.2zM61 95.5c0 .8.2 1.5.4 1.5s.6-.7 1-1.5c.3-.8.1-1.5-.4-1.5-.6 0-1 .7-1 1.5z"/><path d="M89.6 96.7c-.6 1.4-.5 1.5.5.6.7-.7 1-1.5.7-1.8-.3-.3-.9.2-1.2 1.2zm-2.1 3.3c-.3.5-.1 1 .4 1 .6 0 1.1-.5 1.1-1 0-.6-.2-1-.4-1-.3 0-.8.4-1.1 1zm4 .1c-1.6.6-1.4.8 1.3.8 3.3.1 4.1-.4 2-1.2-.7-.2-2.2-.1-3.3.4zM89 104c0 .5.6.7 1.3.4.8-.3 2 .2 2.7 1.1 1 1.2 1 1.8-.1 3.2-1.3 1.6-1.2 1.7.3.4 1.5-1.1 1.9-1 2.9 1.3.9 2 .9 2.9-.1 4.1-1.1 1.3-1 1.4.4.9 1.2-.4 1.6 0 1.6 1.5 0 2.4-1 2.7-2.8.9-.9-.9-1.5-.9-2.4 0-1.8 1.8-2.8 1.5-2.8-.9 0-1.6.4-1.9 1.9-1.4 1.8.5 1.8.3.8-1.9-1.3-2.9-2.7-3.4-2.7-1 0 .9-.7 1.4-1.7 1.2-2.7-.5-2.6-2.7.1-3.4 1.7-.4 2.3-1 1.8-2.2-.3-1-.7-1.2-1-.4-.2.7-1 1.2-1.7 1.2-2.4 0-2.8 3.4-.6 5.2 1.2.9 2.1 2.3 2.1 3.2 0 2.2 1.9 3 3.6 1.5 1.3-1 1.7-1 2.4.2 1.1 1.7 4.5 0 4.5-2.2 0-.8 1-2 2.3-2.7 2.5-1.4 2.5-3.3.1-4-1.1-.3-1.1-.2.1.7 1.3 1 1.3 1.2 0 2.1-2.5 1.6-3.5 1.2-5-2.3-.7-1.7-1.5-3.5-1.7-3.9-.5-.8 3.6-3.2 4.3-2.5.3.2 0 1.6-.5 3.1-.7 1.6-.7 2.6-.1 2.6 1.5 0 2.4-5 1.2-6.2-.8-.8-1.8-.6-3.6.5-2.1 1.4-2.6 1.4-3.6.2-1.4-1.7-4-2-4-.5zm-5.7-51.2c1.1 1.1 8.2 5.4 16 9.4 20.6 10.6 28.1 18.4 31 32.4.9 4.6.9 6.5-.5 11.7-2 7.6-1.5 8.9.6 1.6 2.8-9.4 1.4-18-4.5-26.8-4.9-7.4-11.6-12.6-24.9-19.2-5.8-2.9-12.5-6.6-15-8.2-3.2-2.2-4-2.5-2.7-.9zm74.6 9.1c-5.2 5.2-3.3 13 3.6 14.7 1.5.4 3.6.2 4.8-.4 1.9-.8 1.7-1-1.5-.9-5 .1-7.8-2.5-7.8-7.3 0-4.7 2.8-7.4 7.5-7.3 1.9.1 3.2-.3 2.9-.8-1.2-2-6.6-.9-9.5 2zM171 68c0 5.3.4 9 1 9s1-1.8 1-4v-4h9v4c0 2.2.5 4 1 4 .6 0 1-3.7 1-9s-.4-9-1-9c-.5 0-1 1.8-1 4v4h-9v-4c0-2.2-.4-4-1-4s-1 3.7-1 9zm19.3 0c-1.8 4.9-2.8 9-2.3 9s1.5-1.2 2.2-2.7c1.2-2.5 2.4-3 6.6-2.4.5 0 1.4 1.2 2 2.6.6 1.4 1.6 2.5 2.1 2.5s-.5-4-2.2-9c-1.8-4.9-3.7-9-4.2-9-.6 0-2.5 4-4.2 9zm6.6.7c.1.7-1 1.3-2.4 1.3-2.9 0-2.9 0-1.3-5.3l1.2-4 1.2 3.4c.7 1.9 1.3 4 1.3 4.6zm8.1-.7c0 5.3.4 9 1 9s1-3.7 1-9-.4-9-1-9-1 3.7-1 9zm4-8c0 .5 1.1 1 2.5 1 2.5 0 2.5.1 2.5 8 0 4.7.4 8 1 8s1-3.3 1-8c0-7.9 0-8 2.5-8 1.4 0 2.5-.5 2.5-1 0-.6-2.7-1-6-1s-6 .4-6 1zm14.3 8c-1.8 4.9-2.8 9-2.3 9s1.5-1.2 2.2-2.7c1.2-2.5 2.4-3 6.6-2.4.5 0 1.4 1.2 2 2.6.6 1.4 1.6 2.5 2.1 2.5.6 0-.4-4.1-2.2-9-1.7-5-3.6-9-4.2-9-.6 0-2.5 4-4.2 9zm6.6.7c.1.7-1 1.3-2.4 1.3-2.9 0-2.9 0-1.3-5.3l1.2-4 1.2 3.4c.7 1.9 1.3 4 1.3 4.6zm8.1-.7c0 5.3.4 9 1 9s1-3.2 1-7.7v-7.8l4.5 7.8c2.5 4.2 5 7.7 5.5 7.7.6 0 1-3.8 1-9 0-5.3-.4-9-1-9s-1 3.1-1 7.2v7.3l-4.2-7.3c-2.4-3.9-4.9-7.2-5.5-7.2-1 0-1.3 2.5-1.3 9zm18.5-4c1.4 2.8 2.5 6.6 2.5 9 0 2.2.5 4 1 4 .6 0 1-1.8 1-4 0-2.6 1-5.7 3-9 1.7-2.9 2.5-5 1.8-4.8-.7.3-2.2 2.4-3.4 4.8l-2.2 4.3-2.1-4.6c-1.2-2.6-2.6-4.7-3.1-4.7-.6 0 .1 2.2 1.5 5zm12.8 4c-1.8 4.9-2.8 9-2.2 9 .5 0 1.4-1.1 1.9-2.5s1.3-2.5 1.7-2.6c.5 0 1.6-.2 2.6-.4 2-.4 4.7 2 4.7 4.1 0 .8.6 1.4 1.4 1.4 1.2 0 .8-2-1.7-9-1.8-4.9-3.7-9-4.2-9-.6 0-2.5 4-4.2 9zm6.6.7c.1.7-1 1.3-2.4 1.3-2.9 0-2.9-.1-1.4-5.5l1.2-4 1.3 3.5c.7 1.9 1.3 4.1 1.3 4.7zM156 99v9h3.5c5.6 0 9.5-5.1 6.1-8-1.2-.9-1.3-1.7-.3-3.7 1-2.2.8-2.8-1.2-4.4-1.3-1.1-3.6-1.9-5.2-1.9H156v9zm7.6-5.9c1.2 1.9-.8 4.9-3.2 4.9-2 0-2.4-.5-2.4-2.8 0-1.6.3-3.1.6-3.4.7-.8 4.3.2 5 1.3zm-1.2 6.9c1.6.6 2.6 1.7 2.6 2.9 0 2.2-.4 2.6-4.2 3.5-2.7.6-2.8.5-2.8-3.4 0-4.3.4-4.6 4.4-3zm7.6-1c0 5.3.4 9 1 9s1-1.8 1-4v-4h9v4c0 2.2.5 4 1 4 .6 0 1-3.7 1-9s-.4-9-1-9c-.5 0-1 1.8-1 4v4h-9v-4c0-2.2-.4-4-1-4s-1 3.7-1 9zm19.2 0c-2.9 8.5-2.9 12.2 0 6.3.8-1.7 2.3-2.8 4-3 2.2-.3 3 .2 4.3 2.7 3.2 6.1 3.3 2.7.2-6-1.7-5-3.7-9-4.3-9-.6 0-2.5 4-4.2 9zm6.7.7c.1.7-1 1.3-2.4 1.3-2.9 0-2.9-.1-1.4-5.5l1.2-4 1.3 3.5c.7 1.9 1.3 4.1 1.3 4.7zm8.1-.7c0 5.3.4 9 1 9s1-1.8 1-4c0-3.3.3-4 2-4 1.9 0 2.5.8 4.6 6.5.6 1.8.8 1.8 1.1.3.3-1-.2-3.1-1-4.8-1.3-2.5-1.3-3.1-.1-4.1 3.5-2.9.3-7.9-5.2-7.9H204v9zm6.1-7c2.6 1.5 2.4 4.9-.3 5.9-3 1.1-3.8.6-3.8-2.8 0-4.1.9-4.8 4.1-3.1zm9.1 7c-1.7 4.9-2.7 9-2.1 9 .5 0 1.5-1.3 2-2.9.8-2.2 1.5-2.8 3.7-2.6 3.8.3 3.8.2 5 3 .6 1.4 1.6 2.5 2.1 2.5s-.5-4-2.2-9c-1.8-4.9-3.7-9-4.3-9-.6 0-2.5 4-4.2 9zm6.7.7c.1.7-1 1.3-2.4 1.3-2.9 0-2.9 0-1.3-5.3l1.2-4 1.2 3.4c.7 1.9 1.3 4 1.3 4.6zM230 91c0 .5 1.1 1 2.5 1 2.5 0 2.5.1 2.5 8 0 4.7.4 8 1 8s1-3.3 1-8v-8h3.1c1.7 0 2.8-.4 2.4-1-.3-.6-3.3-1-6.6-1s-5.9.4-5.9 1zm15 8c0 5.3.4 9 1 9s1-1.8 1-4v-4h9v4c0 2.2.5 4 1 4 .6 0 1-3.7 1-9s-.4-9-1-9c-.5 0-1 1.8-1 4v4h-9v-4c0-2.2-.4-4-1-4s-1 3.7-1 9zm16 0c0 5.3.4 9 1 9s1-3.7 1-9-.4-9-1-9-1 3.7-1 9z"/><path d="M125.5 117c-.8 1.6-3 4.7-4.7 6.7l-3.2 3.8 3-2.8c2.9-2.6 8.2-10.7 7-10.7-.3 0-1.2 1.3-2.1 3zm30.5 13c0 5.3.4 9 1 9s1-3.7 1-9-.4-9-1-9-1 3.7-1 9zm6 0c0 5.3.4 9 1 9s1-3.2 1-7.7v-7.8l4.5 7.8c2.5 4.2 5 7.7 5.5 7.7.6 0 1-3.8 1-9 0-5.8-.4-9-1.1-9-.7 0-.9 2.4-.7 7 .2 3.9.1 7-.2 7-.3 0-2.3-3.2-4.5-7-2.2-3.9-4.6-7-5.2-7-1 0-1.3 2.5-1.3 9zm19-7.2c-3 2.4-2 5.3 2.5 7.5 5.7 2.7 4.4 7.3-2 6.9-2.9-.1-2.9-.1-.6 1 1.8 1 2.9.9 5-.3 3.9-2.2 3.5-5.8-1.1-8.8-2.1-1.3-3.8-3-3.8-3.7 0-1.8 2.9-3.2 5.3-2.6 1.4.3 1.8.1 1.3-.6-1.1-1.7-4.1-1.5-6.6.6zm10-.8c0 .5 1.1 1 2.5 1 2.5 0 2.5.1 2.5 8 0 4.7.4 8 1 8s1-3.3 1-8c0-7.8.1-8 2.4-8 1.4 0 2.8-.5 3.1-1 .4-.6-1.8-1-5.9-1-3.7 0-6.6.4-6.6 1zm15 8c0 5.3.4 9 1 9s1-3.7 1-9-.4-9-1-9-1 3.7-1 9zm4-8c0 .5 1.1 1 2.5 1 2.5 0 2.5.1 2.5 8 0 4.7.4 8 1 8s1-3.3 1-8c0-7.9 0-8 2.5-8 1.4 0 2.5-.5 2.5-1 0-.6-2.7-1-6-1s-6 .4-6 1zm15 5.1c0 10.9 4.8 15.2 10.5 9.4 2.2-2.1 2.5-3.3 2.5-9 0-8.8-1.8-8.3-2.2.6-.3 6.1-.6 7.4-2.5 8.6-1.9 1.3-2.4 1.2-4.2-.6-1.7-1.7-2.1-3.4-2.1-8.6 0-3.7-.4-6.5-1-6.5s-1 2.7-1 6.1zm15.5-5.1c.3.5 1.7 1 3.1 1 2.3 0 2.4.2 2.4 8 0 4.7.4 8 1 8s1-3.3 1-8c0-7.9 0-8 2.5-8 1.4 0 2.5-.5 2.5-1 0-.6-2.9-1-6.6-1-4.1 0-6.3.4-5.9 1zm14.5 8v9h5c2.8 0 5-.4 5-.8s-1.7-.8-3.7-.8c-3.5.1-3.8-.2-4.1-2.8-.4-3.3 1.3-4.9 4.6-4.1 1.2.3 2.2.1 2.2-.5 0-.5-1.6-1-3.5-1-3.2 0-3.5-.3-3.5-2.9 0-3.1 1.1-3.9 4.8-3.6 1.2.1 2.2-.2 2.2-.7 0-.4-2-.8-4.5-.8H255v9zm22.4-7.8c-4.3 2-5.8 9.9-2.6 13.7.9 1.1 3.1 2.4 4.9 2.7 2.7.5 3.7.1 6.3-2.4 7.1-7.1.2-18.3-8.6-14zm8.6 3.8c2.5 4.7-.2 11-4.7 11-3.9 0-6.3-2.7-6.3-7 0-7.2 7.8-10.1 11-4zm6 4c0 5.3.4 9 1 9s1-1.8 1-4c0-3.9.1-4 3.5-4 1.9 0 3.5-.4 3.5-1 0-.5-.8-.9-1.7-.8-4.7.4-5.4-.1-5.1-3.5.3-2.7.7-3.2 3-3.2 1.5-.1 3-.4 3.4-.8.4-.4-1.4-.7-3.9-.7H292v9zM78 149c-.8 2.8-.8 5-.1 5.5 1.5.9 2.2-1.1 1.2-3.7-.6-1.2-1-2.1-1.1-1.8zm-11.5 2c-.3.5.1 1 .9 1 .9 0 1.6-.5 1.6-1 0-.6-.4-1-.9-1-.6 0-1.3.4-1.6 1zm18.5 0c0 .5.5 1 1.1 1 .5 0 .7-.5.4-1-.3-.6-.8-1-1.1-1-.2 0-.4.4-.4 1zm7.3.2c.3.9.1 1.8-.6 2.1-.6.2-.4.6.6 1 1.9.7 2.3-1 .6-3.3-.9-1.3-1-1.3-.6.2zm5.4-.5c-.9.9-.9 4.3.1 4.3.4 0 .8-1.1.8-2.5.2-2.7.1-2.9-.9-1.8zm3.8.3c-.3.5-.1 1 .4 1 .6 0 1.1-.5 1.1-1 0-.6-.2-1-.4-1-.3 0-.8.4-1.1 1zM81 152.9c0 1.2.5 2.1 1 2.1.6 0 1-.6 1-1.4 0-.8-.4-1.8-1-2.1-.5-.3-1 .3-1 1.4zm8.1-.3c0 1.1.3 1.4.6.6.3-.7.2-1.6-.1-1.9-.3-.4-.6.2-.5 1.3zm-18.1.2c0 .5-1.3.7-3 .4-1.7-.2-3 0-3 .6 0 1.4 6.3.8 6.8-.6.2-.7.1-1.2-.2-1.2-.3 0-.6.4-.6.8zm83 .2c0 .5 1.1 1 2.5 1 2.5 0 2.5.1 2.5 8 0 4.7.4 8 1 8s1-3.3 1-8v-8h3.1c1.7 0 2.8-.4 2.4-1-.3-.6-3.3-1-6.6-1s-5.9.4-5.9 1zm15 8v9h4.5c2.5 0 4.5-.5 4.5-1 0-.6-1.5-.8-3.5-.6-3.5.4-3.5.4-3.5-3.6 0-3.7.2-4 2.3-3.5 1.2.4 2.9.2 3.7-.3 1.1-.7.5-1-2.2-1-3.7 0-3.8-.1-3.8-3.5 0-3.6 0-3.6 3.5-2.9 2.3.4 3.5.2 3.5-.5 0-.6-1.9-1.1-4.5-1.1H169v9zm14.9-6.1c-3.3 3.4-3.8 7.8-1.3 11.6 1.8 2.8 7.3 4.2 10.1 2.6 1.5-.8 1.1-1-1.9-.9-5.1.2-7.8-2.4-7.8-7.2 0-4.7 2.4-7 7.6-7 2.9 0 3.5-.3 2.4-1-2.7-1.8-6.1-1-9.1 1.9zM197 161c0 5.3.4 9 1 9s1-1.8 1-4v-4h9v4c0 2.2.5 4 1 4 .6 0 1-3.7 1-9s-.4-9-1-9c-.5 0-1 1.8-1 4v4h-9v-4c0-2.2-.4-4-1-4s-1 3.7-1 9zm17 0c0 5.3.4 9 1 9s1-3.2 1-7.7v-7.8l4.5 7.8c2.5 4.2 5 7.7 5.5 7.7.6 0 1-3.8 1-9 0-5.8-.4-9-1.1-9-.7 0-.9 2.4-.7 7 .2 3.9.1 7-.2 7-.3 0-2.3-3.2-4.5-7s-4.6-7-5.2-7c-1 0-1.3 2.5-1.3 9zm21.7-8.3c-2.3.6-4.7 5.4-4.7 9.3 0 3.6 3.8 8 6.9 8 4 0 7.1-2.3 8.3-6.1 2.2-7.6-2.9-13.2-10.5-11.2zm8.3 4.3c2.5 4.7-.2 11-4.7 11-3.9 0-6.3-2.7-6.3-7 0-7.2 7.8-10.1 11-4zm6 4v9h5.2c6.5 0 5.9-1.5-.7-1.9-2.4-.1-2.5-.3-2.5-8.1 0-4.7-.4-8-1-8s-1 3.7-1 9zm15.9-8.3c-2.1.5-4.9 5.6-4.9 9 0 5.9 5.5 9.6 11.1 7.3 3.9-1.7 5.5-6 4-11.1-1.5-4.9-4.9-6.7-10.2-5.2zm6.6 2.8c6.1 6-.4 16.5-7 11.3-3.6-2.8-3.5-8.8.1-11.7 3.4-2.7 4-2.6 6.9.4zm11.9-2.5c-4.9 2-7 9.3-3.9 13.6 1.6 2.4 6.5 3.7 10.1 2.8 2-.5 2.4-1.2 2.4-4.5 0-3.7-.2-3.9-3.2-3.9-1.7 0-2.8.3-2.4.7.4.5 1.3.8 1.9.8 1.7 0 2.2 5.5.5 5.6-5.4.5-8.8-2-8.8-6.5 0-5 2.4-7.6 7.1-7.6 2.4 0 3.8-.4 3.4-1-.7-1.2-4.2-1.2-7.1 0zm11.6-.3c0 .5 1.1 2.8 2.5 5.2 1.5 2.5 2.5 5.9 2.5 8.2 0 2.1.5 3.9 1 3.9.6 0 1-1.9 1-4.3.1-2.7.9-5.6 2.5-8.2 2.6-4.3 3-5.5 1.7-5.5-.5 0-1.7 1.8-2.7 4-1 2.2-2.1 4-2.5 4-.4 0-1.5-1.8-2.5-4-1.6-3.5-3.5-5.3-3.5-3.3zM58.5 154c.4.6 1.1.8 1.6.5 1.4-.9 1.1-1.5-.7-1.5-.8 0-1.2.5-.9 1zm26 0c.3.5 1 1 1.6 1 .5 0 .9-.5.9-1 0-.6-.7-1-1.6-1-.8 0-1.2.4-.9 1zm16.5 0c0 .5.4 1 .9 1 .6 0 1.3-.5 1.6-1 .3-.6-.1-1-.9-1-.9 0-1.6.4-1.6 1zm-39.2 1.7c.7.3 1.6.2 1.9-.1.4-.3-.2-.6-1.3-.5-1.1 0-1.4.3-.6.6zm33.2 2.7c0 .2.8 1 1.8 1.7 1.5 1.3 1.6 1.2.3-.4s-2.1-2.1-2.1-1.3zm-34.1 3.1c-3.2 1.7-8.5 2.1-15.9 1.2-4.4-.6-5-.5-3 .4 4 1.7 15.1 1.4 18.8-.5 1.8-.9 3.2-1.9 3.2-2.1 0-.7-.1-.6-3.1 1zm38.6.6c1.1 1.7 10.5 2.9 15.6 1.9 9.1-1.7 7.8-2.6-1.6-1.1-3.3.6-6.6.4-9.7-.4-2.6-.6-4.5-.8-4.3-.4zM74.2 164c0 1.4.2 1.9.5 1.2.2-.6.2-1.8 0-2.5-.3-.6-.5-.1-.5 1.3zm4.9-.4c0 1.1.3 1.4.6.6.3-.7.2-1.6-.1-1.9-.3-.4-.6.2-.5 1.3zm8.2-.1c0 .8.4 1.2.9.9.5-.3.6-1 .3-1.5-.9-1.3-1.2-1.1-1.2.6zM67 167c0 .4 1.9 2.4 4.3 4.5 2.3 2 5.4 4.7 6.8 6.1l2.6 2.4 2.4-2.6c1.3-1.4 3.8-3.4 5.6-4.6 1.8-1.1 3.8-2.9 4.4-4 .8-1.6 0-1.2-3.1 1.3-2.4 1.9-5.4 4.6-6.7 6l-2.4 2.6-3.7-3.4c-2-1.8-5.2-4.6-6.9-6.2-1.8-1.6-3.3-2.6-3.3-2.1z"/></svg>