<svg xmlns="http://www.w3.org/2000/svg" role="img" viewBox="-4.45 -4.20 218.40 74.90"><title>Ciena logo</title><style>svg {enable-background:new 0 0 209.9 66.6}</style><style>.st0{fill-rule:evenodd;clip-rule:evenodd;fill:#d31245}</style><path d="M36.1 22.5c-3.5-1-8.3-1.9-11.6-1.9C11 20.6 0 28.9 0 43.8c0 15.1 10.6 22.9 23.4 22.9 3.7 0 9.4-.8 12.8-2.4V52.5c-2.9 1.1-6.3 1.6-8.9 1.6-5.5 0-12-3.2-12-10.1 0-7.8 6.1-10.8 12.2-10.8 2.9 0 6.2.9 8.7 1.6V22.5zm135.6 43.8c5.8 0 9.9-2.2 12.9-5.5v4.5h14.9V40.1c0-6.2-1-10.7-4.4-14-3.5-3.5-8.9-5.4-16.7-5.4-6.4 0-12.3 1.6-18 3.5v11.1c4.9-1.8 10.9-2.7 15.5-2.7 5.9 0 8.8 2.6 8.8 7.1v.7c-2.5-.9-6.5-1.7-10.6-1.7-10.3 0-17.2 4.7-17.2 13.8v.2c.1 8.8 6.5 13.6 14.8 13.6zm5.6-9.7c-3.2 0-5.4-1.8-5.4-4.8v-.2c0-3.2 2.6-5.4 7.1-5.4 2.3 0 4.3.7 6 1.4-.1 5.7-3.3 9-7.7 9zM110.5 22h14.7v6.6l.6-.8c2.8-3.6 6.8-7 12.9-7 9.1 0 14.6 6 14.6 15.8v28.7h-14.7V41.6c0-4.9-2.6-7.7-6.5-7.7s-6.8 2.8-6.8 7.7v23.7h-14.7V22z" class="st0"/><path d="M106.1 59.9c-4.7 3.1-10.9 6.5-18.6 6.5-5.6 0-10.6-1.8-14.4-4.5-7.9 3.6-13.9 4.8-19.9 3.7-9.7-1.7-11.1-10.5-11.1-16.1V22.4h13.7s.1 13.2.4 22.5c.3 7.8 2 11.9 10.5 9.4-1.5-3.1-2.3-6.9-2.3-10.9.2-12.7 10-24.1 23-24.1 14.8 0 18.3 12.5 12.9 21-3.4 5.4-8.4 9.8-13.8 13.6 5.2 3.8 13.7 1.1 19.5-2.6v8.6zm-15.9-19c5-6.4 1-10.2-3.5-9.1-4 .9-10.1 7.4-5.1 16.5 3.6-2.3 6.6-4.8 8.6-7.4z" class="st0"/><path d="M57.2 8.2c0 4.5-3.7 8.2-8.2 8.2-4.5 0-8.2-3.7-8.2-8.2C40.8 3.7 44.5 0 49 0c4.6 0 8.2 3.7 8.2 8.2z" class="st0"/><g><path fill="#d31245" d="M207.2 59.9c1.5 0 2.7 1.2 2.7 2.7 0 1.6-1.2 2.7-2.7 2.7-1.5 0-2.7-1.2-2.7-2.7 0-1.5 1.2-2.7 2.7-2.7zm0 5c1.3 0 2.3-1 2.3-2.3 0-1.3-1-2.3-2.3-2.3-1.3 0-2.3 1-2.3 2.3 0 1.3 1 2.3 2.3 2.3zm-1-3.8h1.1c.7 0 1.1.3 1.1.9 0 .6-.4.8-.8.8l.9 1.4h-.5l-.9-1.3h-.6v1.3h-.4v-3.1zm.4 1.4h.5c.4 0 .8 0 .8-.5 0-.4-.4-.5-.7-.5h-.7v1z"/></g></svg>