<svg xmlns="http://www.w3.org/2000/svg" role="img" viewBox="2.10 2.60 358.80 78.80"><title>CleanRL logo</title><path fill="none" d="M165.58545 52.60601l-2.70752.50781c-2.53809.45215-4.35693 1.00195-5.45703 1.65039-1.86133 1.09961-2.79199 2.80664-2.79199 5.11816 0 2.05957.57764 3.54004 1.73438 4.44238 1.12793.93066 2.50977 1.39551 4.146 1.39551 2.59424 0 4.98438-.76172 7.16992-2.28418 2.18555-1.52344 3.3208-4.30078 3.40576-8.33398v-4.4834c-.76172.47949-1.53027.86719-2.30566 1.16309-.77588.2959-1.84033.57129-3.19385.82422zm116.67041-29.99219c-1.41016-.73291-3.52539-1.09961-6.3457-1.09961h-15.14453v16.75146h14.76367c2.93359 0 5.13281-.33838 6.59961-1.01514 2.59473-1.18457 3.8916-3.5249 3.8916-7.02197 0-3.77881-1.25488-6.31738-3.76465-7.61475zm-166.5874 13.0293c-2.79199 0-4.95654.87451-6.49365 2.62256-1.53711 1.74902-2.50293 4.11816-2.89746 7.10693h18.73975c-.19727-3.18652-1.16309-5.60498-2.89746-7.25488s-3.88525-2.47461-6.45117-2.47461z"/><path fill="#231f20" d="M37.74707 20.62554c4.65332 0 8.16455 1.354 10.5332 4.06104 1.3252 1.52295 2.41113 3.77979 3.25732 6.76855h13.0293c-.19775-3.8916-1.63574-7.76904-4.31494-11.6333-4.85107-6.88086-12.52148-10.32178-23.0127-10.32178-7.84033 0-14.29834 2.56641-19.37451 7.69922C12.02685 23.0938 9.1079 31.48345 9.1079 42.36919c0 10.06787 2.56592 17.99365 7.69922 23.77393 5.13281 5.75293 12.18311 8.62988 21.15137 8.62988 7.24756 0 13.19824-2.12891 17.85156-6.3877 4.625-4.25781 7.50146-9.78613 8.62988-16.58301H51.53759c-.87451 3.21582-1.97412 5.62695-3.29932 7.23438-2.39746 2.98926-5.88037 4.4834-10.44873 4.4834-4.45654 0-8.12939-1.74023-11.02002-5.22363-2.89111-3.4834-4.33594-8.72168-4.33594-15.71582 0-6.99365 1.36768-12.40137 4.10303-16.22314 2.73535-3.8208 6.47266-5.73193 11.21045-5.73193zM73.662 10.685h12.057v62.354H73.662zm59.98497 23.98498c-2.00293-3.10156-4.54102-5.37207-7.61426-6.81055-3.07422-1.43848-6.5293-2.15723-10.36426-2.15723-6.4585 0-11.71143 2.12939-15.75781 6.3877-4.04688 4.2583-6.07031 10.37842-6.07031 18.35889 0 8.51758 2.24219 14.66504 6.72607 18.44434s9.65869 5.66797 15.5249 5.66797c7.10693 0 12.63428-2.24121 16.58301-6.72559 2.53809-2.82031 3.96143-5.59766 4.27246-8.33398h-12.31c-.64941 1.35352-1.396 2.41113-2.24219 3.17285-1.55133 1.41113-3.56787 2.11523-6.04938 2.11523-2.34131 0-4.34326-.57812-6.00684-1.73438-2.73584-1.86133-4.18799-5.10449-4.35742-9.72949h31.55811c.05615-3.97656-.0708-7.02246-.38086-9.1377-.53613-3.60938-1.70654-6.78223-3.51123-9.51807zm-27.36963 10.70264c.39453-2.98877 1.36035-5.35791 2.89746-7.10693 1.53711-1.74805 3.70166-2.62256 6.49365-2.62256 2.56592 0 4.7168.82471 6.45117 2.47461s2.7002 4.06836 2.89746 7.25488h-18.73975zm77.66797 24.49316c-.39648-.56348-.63477-1.63477-.71875-3.21484-.05859-2.08691-.08594-3.86328-.08594-5.33008V40.16949c0-5.55566-1.96094-9.33447-5.87988-11.33691-3.91992-2.00244-8.4043-3.00391-13.45215-3.00391-7.75586 0-13.22656 2.03076-16.41309 6.0918-2.00293 2.59521-3.13037 5.90869-3.38428 9.94092h11.6333c.28125-1.77637.8457-3.18652 1.69189-4.22998 1.18457-1.41016 3.20068-2.11523 6.04932-2.11523 2.53809 0 4.46289.35938 5.77441 1.07861 1.31104.71924 1.9668 2.02393 1.9668 3.91309 0 1.55127-.86035 2.69336-2.58057 3.42676-.95898.42285-2.55225.77588-4.77979 1.05713l-4.10352.50781c-4.65332.59229-8.17871 1.57959-10.57568 2.96143-4.37158 2.5376-6.55664 6.64111-6.55664 12.31006 0 4.37109 1.35986 7.74805 4.08203 10.13086 2.72119 2.38281 6.16895 3.5752 10.34277 3.5752 3.27148 0 6.2041-.74805 8.79932-2.24219 2.1709-1.26953 4.08838-2.80566 5.75293-4.61133.08447 1.04395.19678 1.97461.33838 2.79199.14062.81836.39453 1.69238.76172 2.62305h13.11279v-1.77637c-.78906-.36621-1.38086-.83203-1.77539-1.39648zm-12.86035-14.76367c-.08496 4.0332-1.22021 6.81055-3.40576 8.33398-2.18555 1.52246-4.57568 2.28418-7.16992 2.28418-1.63623 0-3.01807-.46484-4.146-1.39551-1.15674-.90234-1.73438-2.38281-1.73438-4.44238 0-2.31152.93066-4.01855 2.79199-5.11816 1.1001-.64844 2.91895-1.19824 5.45703-1.65039l2.70752-.50781c1.35352-.25293 2.41797-.52832 3.19385-.82422.77539-.2959 1.54395-.68359 2.30566-1.16309v4.4834zm60.00684-25.5293c-3.03223-2.49609-6.93164-3.74414-11.69727-3.74414-3.80664 0-6.95215.93066-9.43359 2.79199-1.38184 1.04395-2.84863 2.75-4.39941 5.11865v-6.72607h-11.63281v46.02539h12.01367v-24.9585c0-2.84814.39453-5.18896 1.18457-7.02246 1.52344-3.46875 4.3291-5.20312 8.41797-5.20312 3.32812 0 5.58398 1.18457 6.76855 3.55371.64844 1.29736.97363 3.15869.97363 5.5835v28.04688h12.35156V41.98835c0-5.78076-1.51562-9.91992-4.54688-12.41553zm66.60449 38.34765c-.22559-1.01562-.33887-2.94727-.33887-5.7959v-4.1875c0-4.37109-.59863-7.62109-1.79785-9.75146-1.19824-2.12891-3.23535-3.77148-6.1123-4.92822 3.44043-1.18408 5.9082-3.20752 7.40332-6.07031 1.49414-2.86182 2.24121-5.77441 2.24121-8.73535 0-2.45361-.39453-4.63867-1.18359-6.55713-.79004-1.91748-1.86133-3.66553-3.21582-5.24512-1.63574-1.91748-3.63086-3.37012-5.98535-4.35742-2.35547-.98682-5.71777-1.52295-10.08887-1.60742h-30.58496v62.354h12.73242V48.58795h13.45312c3.83496 0 6.45117.6626 7.84668 1.98779 1.39648 1.32617 2.12207 3.97656 2.17871 7.95312l.08496 5.7959c.02734 1.83301.21094 3.62402.5498 5.37207.16895.8457.4502 1.95996.8457 3.3418h14.34082V71.4732c-1.24121-.76074-2.03027-1.94531-2.36914-3.55273zm-15.56738-30.66992c-1.4668.67676-3.66602 1.01514-6.59961 1.01514h-14.76367V21.51421h15.14453c2.82031 0 4.93555.3667 6.3457 1.09961 2.50977 1.29736 3.76465 3.83594 3.76465 7.61475 0 3.49707-1.29688 5.8374-3.8916 7.02197zM323.331 61.829V10.685h-13.028v62.354h43.91v-11.21h-30.882z"/></svg>