<svg xmlns="http://www.w3.org/2000/svg" role="img" viewBox="-5.73 3.27 505.96 364.46"><title>CleverHans logo</title><defs><style>.cls-1{fill:none;stroke:#000;stroke-miterlimit:10}</style></defs><path d="M158.264 67.513l23.666 12.798h9.16V67.513l-16.413-28.426 8.398-3.435-8.398-3.436V23.82h-4.199l-4.58-9.924-7.634 6.87-10.688-6.87-3.817 7.634h-16.032v9.16l-9.924 8.398v3.817l-6.107 10.688 3.817 6.107-7.634 13.742 3.817 3.053-3.817 9.925h3.817l-3.817 9.924h6.107l-6.107 12.215h4.58s-20.612 16.031-32.063 21.375-25.193 21.376-25.193 21.376 0-4.58-10.688 0-12.978 51.148-12.978 51.148a88.8 88.8 0 0 1-4.452 30.263c-4.104 12.312 9.796 22.413 18.957 17.832s6.871-16.795 6.871-26.72V194.06s-3.054-9.161 3.054-14.505 9.924 4.58 9.924 4.58l4.58 10.688-10.687 22.903 4.58 11.45s16.782 35.994 20.6 35.994 17.825 1.287 17.825 1.287-11.278-14.02-14.25-18.068c-4.575-6.23-13.234-28.257-13.234-28.257l4.327-8.514 25.193 32.064 2.29 12.978 21.373-8.744-24.426-21.793-12.215-24.429 22.902-30.537s32.064-6.87 37.408-9.16 19.848-17.94 19.848-17.94l10.688-4.581 25.193-39.316v22.903l-9.161 8.397 1.526 18.322s17.177-20.612 17.177-23.666 1.145-27.483 1.145-27.483l15.269 9.161-3.817 11.452 17.558-6.108-12.215-15.268-18.321-9.161-17.915-4.937-20.643 21.178-14.881-17.004z" class="cls-1"/><path d="M336.902 67.513l-23.666 12.798h-9.16V67.513l16.413-28.426h-6.49l6.49-6.87v-8.398h4.199l4.58-9.924 7.634 6.87 10.688-6.87 3.817 7.634h16.032v9.16l9.924 8.398v3.817l6.107 10.688-3.817 6.107 7.634 13.742-3.817 3.053 3.817 9.925h-3.817l3.817 9.924h-6.107l6.107 12.215h-4.58s20.612 16.031 32.063 21.375 25.193 21.376 25.193 21.376 3.149-4.772 10.688 0c9.825 6.218 10.974 47.522 10.974 47.522s-.477 17.463 4.866 33.495c4.104 12.312-8.206 22.807-17.367 18.226s-6.87-16.795-6.87-26.72 1.335-29.39 1.335-29.39 1.718-9.543-4.39-14.887-9.924 4.58-9.924 4.58l-4.58 10.688 10.687 22.903-4.58 11.45s-14.887 35.881-18.704 35.881h-21.184l16.986-16.413 11.885-28.661-4.251-8.365-25.193 32.064-2.29 12.978-21.373-8.744 24.426-21.793 12.215-24.429-22.902-30.536s-32.064-6.871-37.407-9.161-19.086-22.521-19.086-22.521h-11.45L287.28 100.16v22.903l9.161 8.397-1.526 18.322s-17.177-20.612-17.177-23.666-1.145-27.483-1.145-27.483l-15.269 9.161 3.818 11.451-17.559-6.107 12.215-15.268 18.322-9.161 25.192-1.527 13.365 17.768 14.881-17.004z"/><path d="M38.593 324.485a8.274 8.274 0 0 0-3.05-2.606 8.97 8.97 0 0 0-4.232-1.034q-5.61 0-8.71 3.345a13.924 13.924 0 0 0 0 17.517q3.101 3.347 8.71 3.345a7.935 7.935 0 0 0 4.232-1.083 12.87 12.87 0 0 0 3.05-2.557l9.743 10.234a18.852 18.852 0 0 1-8.119 4.97 30.592 30.592 0 0 1-8.906 1.426 30.15 30.15 0 0 1-10.382-1.771 24.94 24.94 0 0 1-8.463-5.069 23.773 23.773 0 0 1-5.658-7.92 26.864 26.864 0 0 1 0-20.667 23.773 23.773 0 0 1 5.658-7.92 24.977 24.977 0 0 1 8.463-5.069 30.15 30.15 0 0 1 10.382-1.77 30.592 30.592 0 0 1 8.906 1.425 18.852 18.852 0 0 1 8.119 4.97zm15.252-42.02h14.76v74.396h-14.76zm70.655 66.131a23.548 23.548 0 0 1-8.954 6.986 26.853 26.853 0 0 1-11.219 2.46 30.15 30.15 0 0 1-10.381-1.771 24.94 24.94 0 0 1-8.464-5.069 23.773 23.773 0 0 1-5.657-7.92 26.864 26.864 0 0 1 0-20.667 23.773 23.773 0 0 1 5.657-7.92 24.977 24.977 0 0 1 8.464-5.069 30.15 30.15 0 0 1 10.381-1.77 23.632 23.632 0 0 1 9.3 1.77 19.365 19.365 0 0 1 7.086 5.069 23.121 23.121 0 0 1 4.477 7.92 31.99 31.99 0 0 1 1.575 10.333v4.625H92.519a11.676 11.676 0 0 0 3.837 6.74 10.852 10.852 0 0 0 7.282 2.51 11.1 11.1 0 0 0 6.151-1.622 16.565 16.565 0 0 0 4.38-4.183zm-12.496-21.06a8.557 8.557 0 0 0-2.46-6.396 8.756 8.756 0 0 0-6.594-2.659 11.091 11.091 0 0 0-4.33.789 10.898 10.898 0 0 0-3.199 2.016 8.862 8.862 0 0 0-2.065 2.854 9.385 9.385 0 0 0-.837 3.395zm18.696-18.5h15.942l12.103 32.473h.198l11.218-32.473h14.86l-18.894 47.825H150.48zm105 39.56a23.548 23.548 0 0 1-8.955 6.986 26.853 26.853 0 0 1-11.218 2.46 30.15 30.15 0 0 1-10.382-1.771 24.94 24.94 0 0 1-8.464-5.069 23.773 23.773 0 0 1-5.657-7.92 26.864 26.864 0 0 1 0-20.667 23.773 23.773 0 0 1 5.657-7.92 24.977 24.977 0 0 1 8.464-5.069 30.15 30.15 0 0 1 10.382-1.77 23.632 23.632 0 0 1 9.299 1.77 19.365 19.365 0 0 1 7.086 5.069 23.121 23.121 0 0 1 4.477 7.92 31.99 31.99 0 0 1 1.575 10.334v4.624h-34.246a11.676 11.676 0 0 0 3.837 6.74 10.852 10.852 0 0 0 7.282 2.51 11.1 11.1 0 0 0 6.151-1.622 16.565 16.565 0 0 0 4.38-4.183zm-12.497-21.06a8.557 8.557 0 0 0-2.46-6.396 8.756 8.756 0 0 0-6.594-2.659 11.091 11.091 0 0 0-4.33.789 10.898 10.898 0 0 0-3.199 2.016 8.862 8.862 0 0 0-2.065 2.854 9.385 9.385 0 0 0-.837 3.395zm23.714-18.5h14.762v7.675h.196a18.173 18.173 0 0 1 5.61-6.644 14.182 14.182 0 0 1 8.168-2.212q1.277 0 2.558.097a12.804 12.804 0 0 1 2.362.394v13.483a22.51 22.51 0 0 0-3.1-.739 20.216 20.216 0 0 0-3.199-.245 15.69 15.69 0 0 0-6.69 1.18 8.894 8.894 0 0 0-3.79 3.296 12.517 12.517 0 0 0-1.721 5.068 49.23 49.23 0 0 0-.394 6.495v19.977h-14.762z" class="cls-1"/><path d="M301.73 282.465v33.065h.197a8.892 8.892 0 0 1 1.672-2.755 13.083 13.083 0 0 1 2.855-2.46 15.547 15.547 0 0 1 3.936-1.773 16.87 16.87 0 0 1 4.92-.687 20.345 20.345 0 0 1 9.054 1.721 13.106 13.106 0 0 1 5.362 4.774 19.3 19.3 0 0 1 2.61 7.184 54.699 54.699 0 0 1 .687 8.954v26.373h-14.76V333.44q0-2.065-.148-4.28a13.492 13.492 0 0 0-.885-4.085 6.35 6.35 0 0 0-6.643-4.23 9.109 9.109 0 0 0-4.626 1.034 7.028 7.028 0 0 0-2.705 2.755 11.214 11.214 0 0 0-1.23 3.886 33.48 33.48 0 0 0-.295 4.528v23.813h-14.762v-74.396zm71.738 68.393h-.196a13.902 13.902 0 0 1-6.544 5.512 22.52 22.52 0 0 1-8.612 1.672 22.19 22.19 0 0 1-6.445-.935 16.265 16.265 0 0 1-5.461-2.805 13.506 13.506 0 0 1-3.74-4.625 14.109 14.109 0 0 1-1.377-6.395 14.665 14.665 0 0 1 1.525-6.988 13.66 13.66 0 0 1 4.132-4.724 20.519 20.519 0 0 1 5.954-2.902 43.384 43.384 0 0 1 6.938-1.525 66.344 66.344 0 0 1 7.184-.592q3.59-.096 6.642-.097a7.678 7.678 0 0 0-2.805-6.25 10.114 10.114 0 0 0-6.642-2.313 14.466 14.466 0 0 0-6.642 1.525 18.2 18.2 0 0 0-5.364 4.184l-7.872-8.07a27.078 27.078 0 0 1 9.644-5.758 34.518 34.518 0 0 1 11.416-1.917 29.877 29.877 0 0 1 10.676 1.622 15.541 15.541 0 0 1 6.692 4.774 18.409 18.409 0 0 1 3.493 7.724 50.756 50.756 0 0 1 .984 10.58v24.306h-13.58zm-3.64-14.958q-1.676 0-4.183.148a21.28 21.28 0 0 0-4.822.836 10.744 10.744 0 0 0-3.937 2.068 4.76 4.76 0 0 0-1.624 3.836 4.222 4.222 0 0 0 2.264 3.938 9.47 9.47 0 0 0 4.724 1.277 14.803 14.803 0 0 0 4.182-.59 12.436 12.436 0 0 0 3.592-1.671 8.114 8.114 0 0 0 2.509-2.755 7.944 7.944 0 0 0 .935-3.938v-3.15zm26.469-26.864h14.17v6.494h.198a11.904 11.904 0 0 1 1.967-2.755 14.312 14.312 0 0 1 3.052-2.46 17.435 17.435 0 0 1 4.034-1.773 16.87 16.87 0 0 1 4.92-.687 20.345 20.345 0 0 1 9.054 1.721 13.106 13.106 0 0 1 5.363 4.774 19.3 19.3 0 0 1 2.608 7.184 54.7 54.7 0 0 1 .689 8.954v26.373H427.59V333.44q0-2.065-.148-4.28a13.492 13.492 0 0 0-.885-4.085 6.35 6.35 0 0 0-6.642-4.23 9.109 9.109 0 0 0-4.626 1.034 7.028 7.028 0 0 0-2.706 2.755 11.214 11.214 0 0 0-1.23 3.886 33.48 33.48 0 0 0-.295 4.528v23.813h-14.762zm83.547 14.073a10.446 10.446 0 0 0-8.562-4.035 8.05 8.05 0 0 0-3.64.885 3.13 3.13 0 0 0-1.772 3.05 2.738 2.738 0 0 0 1.821 2.607 23.962 23.962 0 0 0 4.625 1.478q2.805.64 6.003 1.376a22.664 22.664 0 0 1 6.003 2.314 13.454 13.454 0 0 1 4.625 4.28 12.778 12.778 0 0 1 1.82 7.233 13.391 13.391 0 0 1-2.017 7.626 15.478 15.478 0 0 1-5.167 4.823 22.273 22.273 0 0 1-7.085 2.56 42.212 42.212 0 0 1-7.774.736 37.684 37.684 0 0 1-10.136-1.426 18.923 18.923 0 0 1-8.66-5.069l8.955-9.939a14.875 14.875 0 0 0 4.577 3.888 12.336 12.336 0 0 0 5.854 1.327 13.705 13.705 0 0 0 4.625-.737 2.722 2.722 0 0 0 2.067-2.707 3.003 3.003 0 0 0-1.82-2.805 20.213 20.213 0 0 0-4.625-1.575q-2.804-.637-6.003-1.376a24.828 24.828 0 0 1-6.003-2.214 12.538 12.538 0 0 1-4.625-4.184 12.746 12.746 0 0 1-1.821-7.231 14.585 14.585 0 0 1 1.722-7.283 15.139 15.139 0 0 1 4.527-5.02 19.617 19.617 0 0 1 6.446-2.9 29.54 29.54 0 0 1 7.38-.936 34.63 34.63 0 0 1 9.546 1.377 17.738 17.738 0 0 1 8.167 4.92z"/></svg>