<svg xmlns="http://www.w3.org/2000/svg" role="img" viewBox="-7.07 -8.57 627.64 314.64"><title>CNTK logo</title><defs><style>.cls-4{fill:#777}</style></defs><path fill="#6e6e6e" d="M267.724 232.372v-4.066q0-49.85.005-99.702c0-1.51.022-3.022.134-4.526.237-3.171 1.986-4.915 5.169-4.937q11.328-.08 22.658.007c3.032.022 4.708 1.733 5.05 4.698a33.555 33.555 0 0 1 .12 3.828q.008 77.392 0 154.783a39.446 39.446 0 0 1-.133 4.177c-.332 3.105-2.112 4.954-5.238 4.989-8.016.088-16.035.062-24.051-.025-3.296-.036-5.095-2.285-6.698-4.877q-18.134-29.345-36.357-58.634l-29.39-47.373a7.21 7.21 0 0 0-2.708-2.746v3.692q0 50.897-.003 101.794c-.001 7.018-1.248 8.234-8.373 8.242-5.81.006-11.62.03-17.43-.01-5.486-.038-7.192-1.668-7.194-7.01q-.026-79.482.002-158.964c.001-4.866 1.651-6.56 6.439-6.604 7.203-.067 14.41.07 21.613-.047 3.665-.06 6.036 1.495 7.937 4.576q32.192 52.196 64.516 104.31c.964 1.558 1.976 3.086 2.965 4.627zm243.824-49.031c1.779-1.919 3.534-3.86 5.34-5.752 17-17.816 34.067-35.57 50.97-53.48 3.356-3.555 6.936-5.34 11.914-5.112 7.071.325 14.17.072 21.256.09 2.31.007 4.879-.312 5.95 2.464 1.005 2.6-.636 4.395-2.276 6.126q-28.876 30.487-57.741 60.986c-2.476 2.615-4.826 5.365-7.455 7.814-1.986 1.85-1.86 3.168-.166 5.195 11.317 13.55 22.514 27.201 33.747 40.822q16.516 20.029 33.013 40.073a14.516 14.516 0 0 1 2.096 3.183c1.315 2.936-.072 5.722-3.266 5.786-9.404.189-18.828.316-28.21-.168-2.24-.116-4.799-2.324-6.448-4.23-9.728-11.242-19.24-22.67-28.806-34.051q-14.124-16.806-28.198-33.655a19.161 19.161 0 0 1-1.453-2.333l-1.131.565c-.06 1.303-.169 2.607-.17 3.91q-.016 30.672-.012 61.343c-.004 7.513-1.26 8.771-8.668 8.779q-8.714.009-17.427-.002c-6.8-.013-8.258-1.416-8.259-8.087q-.013-78.42 0-156.84c.002-6.24 1.395-7.651 7.518-7.679q9.584-.043 19.169-.002c6.191.024 7.646 1.423 7.658 7.574q.05 25.965.014 51.93v4.148zM5.186 205.164c.022-14.728 1.476-29.272 6.747-43.136 9.101-23.934 26.375-38.632 51.401-43.78 21.64-4.45 42.764-2.508 62.973 6.854 8.867 4.108 9.276 5.33 5.372 14.222-1.4 3.188-2.77 6.391-4.236 9.55-2.235 4.816-4.248 5.63-9.128 3.536a73.627 73.627 0 0 0-34.727-5.635c-22.719 1.59-36.046 12.51-41.069 34.736a103.514 103.514 0 0 0 1.004 51.387c4.958 17.68 16.97 27.384 34.889 30.188a69.363 69.363 0 0 0 40.484-5.438c5.694-2.608 7.847-1.777 10.428 3.83 1.99 4.325 3.978 8.65 5.89 13.009 1.73 3.942 1.422 5.169-2.15 7.592-7.623 5.17-16.22 8.074-25.114 9.926-18.17 3.783-36.307 3.514-54.02-2.372-22.327-7.42-35.987-23.379-43.24-45.311-4.206-12.717-5.484-25.851-5.504-39.158zm400.757-55.494v4.98l-.002 128.29c-.001 7.407-1.339 8.748-8.693 8.756q-8.89.009-17.779-.003c-6.407-.019-7.99-1.597-7.992-8.088q-.018-64.493-.008-128.987v-4.947h-4.056c-11.388-.001-22.776.016-34.164-.011-5.655-.014-7.247-1.6-7.293-7.264-.045-5.578-.06-11.156.01-16.733.063-4.944 1.618-6.558 6.463-6.562q56.127-.042 112.253-.002c5.121.004 6.73 1.583 6.803 6.64.084 5.81.1 11.622-.013 17.43-.094 4.757-1.882 6.462-6.674 6.481-11.504.047-23.008.019-34.512.02h-4.343z"/><path fill="#f25022" d="M5.186 3.675h40.71q-.004 20.354-.003 40.709H5.186V3.674z"/><path fill="#80ba01" d="M50.052 3.675H90.76l-.002 40.709q-20.351-.004-40.705 0-.007-20.355-.002-40.71z"/><path d="M372.29 19.186c3.754-2.443 8.602-2.67 12.832-1.506.037 2.513.005 5.029.017 7.545-2.01-.885-4.374-1.462-6.489-.594a5.144 5.144 0 0 0-2.936 4.107 55.408 55.408 0 0 0-.164 6.592c4.294.01 8.587.003 12.88.005.032-2.787-.034-5.577.037-8.364 2.92-.832 5.807-1.763 8.712-2.638.024 3.672-.035 7.347.031 11.022 2.903-.042 5.807-.01 8.712-.02v7.15c-2.914-.12-5.831-.033-8.746-.042.012 4.11.003 8.22.005 12.332.047 2.277-.122 4.565.144 6.834a4.428 4.428 0 0 0 1.903 3.511 6.56 6.56 0 0 0 6.694-.628v7.22a17.215 17.215 0 0 1-8.049 1.232 9.79 9.79 0 0 1-6.941-3.183c-1.947-2.32-2.448-5.462-2.487-8.401-.022-6.308.002-12.617-.01-18.927q-6.444-.004-12.885.002-.007 14.85-.002 29.7h-8.805q0-14.846.005-29.69c-2.041-.039-4.086.01-6.127-.032.007-2.35.017-4.701-.005-7.054 2.032-.046 4.066-.026 6.103-.012.149-3.124-.328-6.34.606-9.384a12.008 12.008 0 0 1 4.966-6.777zm-188.504.514a5.385 5.385 0 0 1 4.873 1.725 5.02 5.02 0 0 1 .611 5.72 5.477 5.477 0 0 1-5.86 2.454 4.979 4.979 0 0 1-4.088-4.905 5.096 5.096 0 0 1 4.464-4.995zm-67.475 1.09h12.805q5.978 15.18 11.99 30.35c1.02 2.53 1.973 5.09 3.042 7.601 5.127-12.646 10.327-25.26 15.415-37.922 4.106-.066 8.213-.015 12.32-.024q-.014 25.668-.002 51.337c-2.963-.007-5.924.025-8.885-.017.032-12.628-.002-25.257.015-37.888a21.975 21.975 0 0 0-.054-1.701 6.786 6.786 0 0 0-.462.821c-5.088 12.927-10.274 25.817-15.333 38.756-2.107.076-4.217.005-6.327.04-5.25-12.928-10.433-25.884-15.656-38.82a9.776 9.776 0 0 0-.442-.783c-.108 5.533-.017 11.071-.047 16.604q.004 11.494.003 22.988c-2.795.008-5.59 0-8.382.003q-.003-25.673 0-51.345zm91.705 14.51a24.102 24.102 0 0 1 13.078.04 10.554 10.554 0 0 1 2.511 1.046c-.048 2.805 0 5.612-.027 8.419a13.987 13.987 0 0 0-10.049-3.088 10.339 10.339 0 0 0-7.313 4.06c-2.203 2.871-2.711 6.683-2.332 10.194a11.034 11.034 0 0 0 3.557 7.315 11.148 11.148 0 0 0 8.238 2.453 16.774 16.774 0 0 0 7.9-3.242c.024 2.657-.013 5.315.019 7.973-3.599 2.142-7.914 2.694-12.034 2.491a17.845 17.845 0 0 1-11.47-4.782 18.34 18.34 0 0 1-5.327-12.318 22.303 22.303 0 0 1 3.481-13.66 17.712 17.712 0 0 1 9.768-6.9zm96.174-.56a23.29 23.29 0 0 1 12.186 1.27c.005 2.7 0 5.396.003 8.093a15.515 15.515 0 0 0-9.247-2.731 4.734 4.734 0 0 0-4.206 2.325 3.804 3.804 0 0 0 1.277 4.504c2.496 1.67 5.474 2.379 8.06 3.875a11.593 11.593 0 0 1 5.045 4.797 10.738 10.738 0 0 1-2.291 12.389c-3.255 3.042-7.942 3.883-12.252 3.721a26.178 26.178 0 0 1-8.951-2.054c.012-2.838-.017-5.674.014-8.51a19.254 19.254 0 0 0 7.988 3.447 10.281 10.281 0 0 0 6.076-.558c1.795-.892 2.117-3.442 1.051-5.002a10.585 10.585 0 0 0-3.843-2.516c-2.594-1.166-5.32-2.142-7.6-3.89a9.109 9.109 0 0 1-3.288-4.995 11.223 11.223 0 0 1 1.218-8.783 13.11 13.11 0 0 1 8.76-5.381zm-60.897 1.16a9.93 9.93 0 0 1 8.17-.69c-.011 2.937 0 5.873-.007 8.81a9.358 9.358 0 0 0-5.95-1.399 7.31 7.31 0 0 0-5.507 4.404 16.271 16.271 0 0 0-1.254 7.513v17.597h-8.68q-.01-18.39-.007-36.78c2.897-.037 5.794-.022 8.692-.008-.012 2.105 0 4.21-.008 6.318a11.275 11.275 0 0 1 4.55-5.765zm-63.172-.553c2.92-.012 5.841-.041 8.76.015-.034 12.257-.002 24.516-.014 36.773h-8.741q-.011-18.393-.005-36.788z" class="cls-4"/><path fill="#02a4ef" d="M5.186 48.538q20.355.007 40.71.005.003 20.355 0 40.707H5.185V48.538z"/><path fill="#ffb902" d="M50.054 48.543q20.351-.007 40.707-.003v40.71h-40.71q.004-20.355.003-40.707z"/><path d="M280.27 36.154a23.361 23.361 0 0 0-12.603-1.486 17.569 17.569 0 0 0-11.575 6.185 19.614 19.614 0 0 0-4.063 11.245c-.355 4.746.437 9.782 3.225 13.743a16.672 16.672 0 0 0 10.17 6.634 25.285 25.285 0 0 0 10.309.01 17.04 17.04 0 0 0 10.108-6.238 19.516 19.516 0 0 0 3.87-10.714 24.14 24.14 0 0 0-1.75-11.606 15.57 15.57 0 0 0-7.69-7.773zm-.813 24.663a8.043 8.043 0 0 1-4.326 4.25 11.872 11.872 0 0 1-7.176.315 8.787 8.787 0 0 1-5.518-4.553 16.984 16.984 0 0 1-1.337-9.21 11.7 11.7 0 0 1 3.4-7.678 9.207 9.207 0 0 1 5.793-2.286 9.476 9.476 0 0 1 7.364 2.5c2.034 2 2.822 4.901 3.04 7.67a19.282 19.282 0 0 1-1.24 8.992zM350.91 36.43c-4.01-2.024-8.675-2.32-13.07-1.775a18.228 18.228 0 0 0-9.728 4.174 18.026 18.026 0 0 0-5.807 11.3 24.366 24.366 0 0 0 1.384 12.783 16.317 16.317 0 0 0 8.944 8.678 23.675 23.675 0 0 0 12.401 1.048 17.196 17.196 0 0 0 10.824-6.327 20.132 20.132 0 0 0 3.983-12.533 23.455 23.455 0 0 0-1.37-8.788 15.71 15.71 0 0 0-7.562-8.56zm-.38 21.035a11.47 11.47 0 0 1-2.276 5.4 8.24 8.24 0 0 1-5.144 2.769 11.637 11.637 0 0 1-6.299-.685 8.922 8.922 0 0 1-4.643-4.858 17.473 17.473 0 0 1-1.044-8.017 12.721 12.721 0 0 1 2.668-7.328 9.008 9.008 0 0 1 6.425-3.083 9.656 9.656 0 0 1 7.054 2.08 10.095 10.095 0 0 1 3.186 5.859 22.357 22.357 0 0 1 .073 7.863z" class="cls-4"/></svg>