<svg xmlns="http://www.w3.org/2000/svg" role="img" viewBox="-4.02 -7.02 599.04 240.54"><title>Colaboratory logo</title><defs><style>.cls-1{fill:#fe9e01}.cls-3{fill:#fed837}</style></defs><path d="M487.8 108.248c5.035-4.55 9.282-8.284 14.244-11.049 20.414-11.375 49.913-7.603 67.622 14.89 20.044 25.46 18.396 67.538-4.081 90.866-20.043 20.801-51.536 22.527-73.783 4.044-1.054-.876-2.115-1.743-4.006-3.3 0 3.814-.084 6.734.029 9.647.077 2.01-.61 2.824-2.704 2.8a1099.77 1099.77 0 0 0-22.32-.006c-1.965.018-2.996-.572-2.808-2.686.084-.942.009-1.899.009-2.848q0-100.208-.103-200.415c-.01-4.367 1.122-5.668 5.447-5.392a161.642 161.642 0 0 0 18.037.016c3.492-.168 4.533.758 4.507 4.395-.175 24.061-.09 48.124-.09 72.187zm-1.389 47.237a60.362 60.362 0 0 0 1.31 12.231c2.614 12.891 13.087 23.77 25.848 26.072 13.78 2.486 25.324-1.55 33.715-13.148 10.366-14.328 9.93-37.635-.882-51.627a32.758 32.758 0 0 0-49.59-2.645c-7.82 8.132-10.408 18.172-10.401 29.117z" class="cls-1"/><path fill="#fe9f03" d="M403.679 107.641c0-4.192.109-7.16-.035-10.115-.114-2.339.487-3.394 3.123-3.336 7.434.163 14.876.151 22.31.006 2.557-.05 3.2.892 3.196 3.297q-.083 57.683.017 115.365c.006 2.83-1.086 3.462-3.636 3.419-7.12-.122-14.246-.185-21.361.026-3.042.09-3.874-1.041-3.658-3.843.193-2.5.04-5.028.04-7.408-1.51-.617-2.043.395-2.682.96-28.5 25.221-73.026 14.72-87.203-22.53-10.026-26.345-8.151-51.948 10.996-74.228 19.44-22.62 52.022-24.624 74.57-5.094 1.042.903 2.147 1.733 4.323 3.481zm1.679 47.825c-.062-5.393-.401-10.757-2.338-15.859-5.32-14.006-15.11-22.51-30.375-23.18-13.755-.605-23.958 5.742-30.54 17.796-5.844 10.703-5.916 22.072-3.46 33.63 4.61 21.698 28.417 33.25 48.026 22.92 14.005-7.378 18.59-20.294 18.687-35.307z"/><path d="M257.864 110.417c0-33.553.07-67.106-.094-100.658-.02-3.922.922-5.171 4.916-4.957 6.47.347 12.98.27 19.46.019 3.26-.127 4.322.716 4.253 4.13-.224 11.075-.083 22.157-.083 33.236q0 84.515.089 169.03c.009 3.869-.813 5.241-4.882 4.997a159.548 159.548 0 0 0-18.507-.006c-4.082.23-5.292-.824-5.265-5.133.205-33.552.113-67.105.113-100.658z" class="cls-1"/><path d="M126.714 203.518c-10.537-9.65-16.56-21.79-18.936-35.679-6.143-35.893 17.425-70.06 53.326-76.115 22.09-3.726 41.944 2.021 57.934 18.57a280.747 280.747 0 0 0-22.022 22.016c-.5-.384-1.024-.741-1.497-1.155-11.126-9.74-23.796-11.434-36.994-5.696-13.429 5.837-19.965 16.986-20.278 31.504-.207 9.624 4.148 17.597 10.433 24.615a8.402 8.402 0 0 0-2.474 1.143c-6.83 6.618-13.6 13.297-19.492 20.797z" class="cls-3"/><path fill="#fec009" d="M54.471 127.387c-8.209 6.683-14.134 14.73-15.146 25.647-1.244 13.419 4.217 23.847 14.466 32.102a7.638 7.638 0 0 1-1.1 2.509c-6.777 6.658-13.05 13.835-20.378 19.93-32.515-25.84-32.441-74.556.155-102.092a296.19 296.19 0 0 1 22.003 21.904zm181.695 44.359c-4.701 21.279-17.675 35.805-37.03 44.957-4.229 2-8.61 3.953-13.493 3.936-.027-2.185-1.791-3.22-3.081-4.519q-11.773-11.854-23.615-23.638c-1.437-1.437-3.123-2.73-2.769-5.13 7.368 3.138 14.915 4.832 22.979 3.259 21.099-4.118 35.558-27.718 23.792-50.777 2.208-.288 3.406 1.262 4.733 2.59 5.88 5.885 11.842 11.692 17.62 17.676 3.684 3.818 8.022 7.04 10.864 11.646z"/><path d="M54.471 127.387a296.19 296.19 0 0 0-22.003-21.904c8.486-7.916 18.894-12.112 30.023-13.893 17.484-2.8 33.885.678 48.611 10.91 5.291 3.676 5.283 3.647 2.008 8.87-4.108 6.554-8.172 13.135-12.275 19.692-.838 1.34-1.375 2.718-3.443.871-12.684-11.332-26.64-12.442-41.56-4.75a4.357 4.357 0 0 1-1.36.204zm-22.158 80.187c7.328-6.094 13.601-13.27 20.379-19.93a7.638 7.638 0 0 0 1.1-2.508c9.598 5.163 19.473 8.057 30.354 4.169a32.086 32.086 0 0 0 11.103-6.108c1.831-1.661 3.003-2.296 4.72.332 4.662 7.135 9.551 14.126 14.503 21.065 1.264 1.77 1.292 2.661-.466 4.147-21.58 18.242-59.022 18.273-80.845-.044a6.197 6.197 0 0 1-.848-1.123z" class="cls-3"/><path fill="#feb807" d="M236.166 171.746c-2.842-4.606-7.18-7.828-10.865-11.646-5.777-5.984-11.74-11.79-17.62-17.676-1.326-1.328-2.524-2.878-4.732-2.59l-5.933-7.524a280.66 280.66 0 0 1 22.022-22.017c16.733 17.412 22.541 37.868 17.128 61.453zm-79.988 15.607c-.354 2.4 1.332 3.692 2.77 5.129q11.817 11.808 23.614 23.638c1.29 1.3 3.054 2.334 3.08 4.519-15.78 4.208-30.503.859-44.6-6.427a54.692 54.692 0 0 1-14.328-10.694c5.891-7.5 12.662-14.18 19.492-20.796a8.4 8.4 0 0 1 2.474-1.144l7.498 5.775z"/></svg>