<svg xmlns="http://www.w3.org/2000/svg" role="img" viewBox="-7.20 -6.95 413.66 75.16"><title>Columbia University logo</title><path fill="#040c74" fill-rule="evenodd" stroke="none" d="M18.667 1.908v.742l-.959.05-.958.05-.048 1.375-.049 1.375h2.014v.583c0 .356-.082.584-.209.584-.33 0-1.008.689-1.416 1.439-.398.73-.553 2.894-.209 2.894.092 0 .167.122.167.272 0 .15.158.409.352.577.316.274.325.331.095.561-.284.284-1.614.358-1.614.09 0-.092-.163-.167-.363-.167-.383 0-1.356-.274-1.843-.52-.159-.081-.44-.146-.625-.146-.184 0-.335-.066-.335-.146 0-.079-.372-.194-.827-.254-.454-.061-.871-.183-.926-.272-.055-.089-.396-.162-.757-.162s-.657-.075-.657-.166c0-.094-.472-.167-1.083-.167s-1.084-.073-1.084-.167c0-.091-.412-.166-.916-.166-.505 0-.917.075-.917.166 0 .092-.338.167-.75.167-.413 0-.75.075-.75.167 0 .091-.15.166-.333.166-.184 0-.334.075-.334.167 0 .092-.142.167-.315.167-.605 0-1.851 1.509-1.851 2.241 0 .142-.075.259-.167.259-.224 0-.224 4.445 0 4.583.092.057.167.24.167.407 0 .465.532 2.01.692 2.01.077 0 .141.15.141.333 0 .183.075.333.167.333.091 0 .166.15.166.334 0 .183.075.333.167.333.092 0 .167.098.167.219 0 .12.15.379.333.576.183.197.333.436.333.531 0 .096.075.174.167.174.092 0 .167.131.168.292 0 .16.113.506.25.769.137.262.249.581.249.708s.075.231.166.231c.092 0 .167.188.167.417 0 .229.075.416.167.416.091 0 .166.225.166.5s.072.5.16.5c.087 0 .181.544.208 1.209l.049 1.208 14.292.043 14.291.042v-.834c0-.459.075-.834.167-.834.092 0 .167-.258.167-.574 0-.315.075-.62.166-.676.092-.057.167-.286.167-.51 0-.224.075-.407.167-.407.091 0 .166-.187.166-.417 0-.229.075-.416.167-.416.092 0 .167-.15.167-.334 0-.183.075-.333.166-.333.092 0 .167-.15.167-.333 0-.184.058-.334.129-.334.071 0 .278-.336.459-.748s.385-.749.454-.75c.068-.001.125-.152.125-.335 0-.183.075-.333.166-.333.092 0 .167-.15.167-.334 0-.183.057-.333.126-.333s.224-.244.344-.542c.12-.298.289-.672.374-.831.086-.159.156-.403.156-.541 0-.139.067-.253.149-.253.219 0 .385-1.216.388-2.833.003-1.558-.159-2.667-.389-2.667-.081 0-.148-.118-.148-.263 0-.145-.365-.614-.812-1.042-1.12-1.073-1.291-1.195-1.681-1.195-.187 0-.34-.075-.34-.166 0-.092-.3-.167-.667-.167-.367 0-.667-.075-.667-.167 0-.217-1.948-.217-2.083 0-.057.092-.511.167-1.01.167s-.907.075-.907.167c0 .091-.181.166-.403.166-.509 0-2.418.458-2.803.672-.159.089-.478.162-.708.162-.23 0-.419.075-.419.166 0 .092-.225.167-.5.167s-.5.075-.5.167c0 .091-.221.166-.49.166-.27 0-.537.075-.593.167-.16.258-1.75.212-1.75-.05 0-.307.392-1.114.541-1.115.069-.001.125-.185.125-.408 0-.224.075-.454.167-.51.092-.057.167-.361.167-.677 0-.315-.075-.573-.167-.573-.092 0-.167-.224-.167-.497 0-.362-.203-.71-.75-1.28-1.055-1.102-1.085-1.89-.071-1.89.926 0 1.155-.281 1.155-1.417 0-1.135-.229-1.416-1.155-1.416h-.679v-1.5h-2.166v.741m39.75 9.592c-.057.092-.399.167-.76.167s-.657.075-.657.166c0 .092-.187.167-.417.167-.229 0-.416.075-.416.167 0 .091-.225.166-.5.166s-.5.075-.5.167c0 .092-.099.167-.219.167s-.367.138-.549.308c-.182.169-.411.338-.509.375-.534.201-1.973 1.486-2.39 2.135-.138.214-.344.487-.458.607-.115.12-.209.298-.209.396 0 .098-.075.179-.166.179-.092 0-.167.15-.167.333 0 .183-.075.333-.167.333-.091 0-.166.15-.166.334 0 .183-.075.333-.167.333-.092 0-.167.188-.167.417 0 .229-.075.416-.166.416-.092 0-.167.3-.167.667 0 .367-.075.667-.167.667-.103 0-.166.941-.166 2.49 0 1.48.067 2.532.166 2.593.092.057.167.325.167.595 0 .271.075.642.167.824.091.182.241.48.333.662.092.182.167.445.167.583 0 .139.075.253.166.253.092 0 .167.133.167.296 0 .163.15.405.333.537.184.132.334.357.334.499 0 .227 2.215 2.501 2.437 2.501.047 0 .415.226.816.503.402.276.959.548 1.239.604.279.056.508.167.508.247 0 .08.187.146.416.146.23 0 .417.075.417.167 0 .091.3.166.667.166.366 0 .666.075.666.167 0 .092.441.167.99.167.545 0 1.037.075 1.094.166.061.099 1.109.167 2.583.167 1.474 0 2.522-.068 2.583-.167.057-.091.549-.166 1.094-.166.549 0 .99-.075.99-.167 0-.092.174-.167.386-.167.516 0 1.114-.716 1.114-1.334 0-.275.075-.499.166-.499.092 0 .167-.408.167-.907 0-.499.075-.953.167-1.01.348-.215.198-1.703-.183-1.802-.522-.137-.817.04-.817.487 0 .219-.075.399-.167.399-.092 0-.167.15-.167.333 0 .183-.075.333-.166.333-.092 0-.167.099-.167.219 0 .362-.769 1.055-1.583 1.426-.275.125-.631.294-.79.375-.159.081-.74.147-1.291.147-.557 0-1.003.074-1.003.167 0 .091-.225.166-.5.166s-.5-.075-.5-.166c0-.092-.37-.167-.823-.167-.453 0-.87-.075-.927-.167-.056-.091-.248-.166-.426-.166s-.324-.075-.324-.167c0-.092-.11-.167-.244-.167-.81 0-4.089-2.754-4.089-3.435 0-.127-.075-.231-.167-.231-.091 0-.166-.144-.166-.32 0-.175-.057-.344-.125-.375-.256-.113-.875-1.52-.875-1.988 0-.266-.075-.484-.167-.484-.104 0-.167-.944-.167-2.5s.063-2.5.167-2.5c.092 0 .167-.263.167-.583 0-.321.075-.584.166-.584.092 0 .167-.097.167-.216 0-.307.392-1.114.542-1.116.068 0 .125-.119.125-.263 0-.144.093-.359.208-.477.115-.118.423-.488.685-.821.262-.334.565-.607.672-.607.107 0 .303-.15.435-.333.132-.183.373-.333.536-.333.164 0 .297-.075.297-.167 0-.092.144-.167.319-.167.176 0 .351-.093.389-.208.052-.156.796-.208 2.959-.208 2.163 0 2.906.052 2.958.208.038.115.251.208.472.208.222 0 .403.075.403.167 0 .092.15.167.333.167.184 0 .334.075.334.166 0 .092.077.167.172.167.224 0 1.328 1.104 1.328 1.328 0 .095.075.172.166.172.092 0 .167.15.167.333 0 .184.075.334.167.334.091 0 .166.379.166.844v.843l.542-.052.542-.052.046-2.375c.027-1.396.113-2.375.208-2.375.251 0 .191-.995-.076-1.262-.131-.131-.506-.238-.833-.238-.327 0-.595-.075-.595-.167 0-.091-.408-.166-.907-.166-.499 0-.953-.075-1.01-.167-.064-.103-1.554-.167-3.917-.167-2.362 0-3.853.064-3.916.167m157.75.667c0 .419.066.5.406.5.224 0 .454.075.51.166.057.092.435.167.84.167.632 0 .747.053.808.375.04.206.153.774.254 1.263.112.547.182 3.241.182 7.032 0 3.916.06 6.181.166 6.247.092.056.167.361.167.676 0 .316.075.574.167.574.091 0 .166.135.166.3 0 .372.373 1.197.542 1.198.069.001.125.118.125.259 0 .142.169.434.375.649.206.215.588.625.848.91.26.285.654.563.875.619.221.055.402.168.402.249 0 .082.15.149.333.149.184 0 .334.075.334.167 0 .091.187.166.416.166.23 0 .417.075.417.167 0 .092.375.167.833.167.459 0 .834.075.834.166 0 .103.802.167 2.073.167 1.203 0 2.117-.07 2.177-.167.056-.091.361-.166.676-.166.316 0 .574-.075.574-.167 0-.092.225-.167.5-.167s.5-.075.5-.166c0-.092.15-.167.333-.167.183 0 .333-.07.333-.155 0-.086.16-.207.355-.269.951-.301 2.979-2.985 2.979-3.941 0-.166.075-.302.166-.302.092 0 .167-.337.167-.75 0-.412.075-.75.167-.75.108 0 .166-2.219.166-6.323 0-4.036.061-6.361.167-6.427.092-.056.167-.346.167-.643 0-.66.255-.94.856-.94.252 0 .504-.075.56-.167.057-.091.249-.166.427-.166.248 0 .323-.117.323-.5v-.5h-4.155c-4.003 0-4.159.012-4.261.332-.142.447.023.668.5.668.218 0 .443.075.5.166.056.092.349.167.65.167 1.127 0 1.1-.197 1.1 7.805 0 3.976-.065 7.195-.146 7.195-.079 0-.196.389-.259.864-.066.494-.241.976-.408 1.125-.162.144-.343.392-.402.553-.06.16-.373.418-.697.572-.324.155-.588.342-.588.417 0 .075-.113.136-.25.136-.138 0-.25.075-.25.166 0 .092-.225.167-.5.167s-.5.075-.5.167c0 .096-.528.166-1.25.166-.723 0-1.25-.07-1.25-.166 0-.092-.225-.167-.5-.167s-.5-.075-.5-.167c0-.091-.094-.168-.209-.169-.317-.005-1.958-1.595-1.958-1.898 0-.146-.075-.266-.167-.266-.091 0-.166-.144-.166-.319 0-.176-.077-.345-.17-.377-.467-.155-.831-11.826-.444-14.221.265-1.633.237-1.583.857-1.583.314 0 .617-.075.673-.167.057-.091.249-.166.427-.166.248 0 .323-.117.323-.5v-.5h-9.666v.5M8.5 12.978c.412.096 1.2.261 1.75.366.55.106 1.071.26 1.158.341.087.082.331.148.542.148.211 0 .383.075.383.167 0 .092.225.167.5.167s.5.075.5.166c0 .092.146.167.324.167.178 0 .37.075.426.167.057.091.249.166.427.166s.323.075.323.167c0 .092.118.167.262.167.368 0 .738.412.738.821 0 .19.065.345.144.345.08 0 .19.336.247.747.056.41.19.916.298 1.125.424.816.478.971.478 1.366 0 .225.075.456.167.512.091.057.166.361.166.677 0 .315.075.573.167.573.098 0 .167.584.167 1.417 0 .833-.069 1.417-.167 1.417-.092 0-.167.225-.167.5s-.075.5-.166.5c-.092 0-.167.106-.167.237 0 .482-1.671 1.832-1.798 1.452-.035-.104-.173-.189-.306-.189-.463 0-1.563-1.11-1.563-1.577 0-.2.202-.257.917-.257h.917v-.75c0-.412-.075-.75-.167-.75-.092 0-.167-.123-.167-.273 0-.15-.131-.373-.291-.495-.346-.262-.875-.301-.875-.065 0 .248-.489.202-.762-.071-.131-.131-.238-.394-.238-.584 0-.19-.075-.345-.167-.345-.092 0-.167-.225-.167-.5v-.5h-2.5v.573c0 .316.075.62.167.677.53.327.127.583-.917.583H8v.841c0 1.23.472 1.659 1.826 1.659.896 0 1.007.037 1.007.334 0 .183.075.333.167.333.324 0 .161.687-.263 1.111-.318.318-.478.381-.617.243-.102-.103-.325-.187-.495-.187-.294 0-2.291-1.848-2.292-2.12 0-.072-.22-.387-.487-.7-.268-.313-.617-.857-.775-1.208-.159-.352-.352-.639-.43-.639-.077 0-.141-.15-.141-.333 0-.184-.075-.334-.167-.334-.091 0-.166-.112-.166-.25 0-.137-.075-.25-.167-.25-.092 0-.167-.15-.167-.333 0-.183-.075-.333-.166-.333-.092 0-.167-.15-.167-.334 0-.183-.075-.333-.167-.333-.091 0-.166-.144-.166-.319 0-.176-.074-.345-.165-.375-.204-.07-.513-1.411-.619-2.689-.123-1.48.452-2.497 1.663-2.946.295-.109.65-.266.787-.349.287-.173 1.569-.098 2.667.156m24.833-.145c0 .092.139.167.308.167.694 0 1.859.776 1.859 1.238 0 .144.075.262.167.262.099 0 .166.639.166 1.583 0 .945-.067 1.584-.166 1.584-.092 0-.167.135-.167.3 0 .372-.373 1.197-.542 1.198-.068.001-.125.152-.125.335 0 .183-.075.333-.166.333-.092 0-.167.15-.167.334 0 .183-.056.334-.125.335-.069.001-.35.489-.625 1.083-.275.595-.556 1.082-.625 1.082-.069 0-.125.133-.125.296 0 .163-.15.405-.333.537-.184.132-.334.302-.334.378 0 .075-.179.316-.397.535-.219.218-.498.624-.62.9-.133.299-.477.624-.851.803-.345.165-.629.357-.63.426-.001.068-.145.125-.321.125-.176 0-.363.093-.417.208-.078.167-.116.167-.194 0-.054-.115-.204-.208-.334-.208-.298 0-.328-1.341-.036-1.634.11-.11.597-.2 1.082-.2 1.248 0 1.552-.3 1.552-1.537v-.963h-2v-.5c0-.275.075-.5.166-.5.092 0 .167-.187.167-.416 0-.406-.032-.417-1.19-.417-1.28 0-1.627.201-1.638.95-.009.592-.367 1.217-.699 1.217-.168 0-.306-.075-.306-.167 0-.092-.188-.167-.417-.167-.229 0-.417.075-.417.167 0 .092-.111.167-.246.167-.246 0-.389.375-.443 1.166-.068.979-.046 1 1.023 1 .555 0 1 .074 1 .167 0 .092-.075.167-.167.167-.092 0-.167.15-.167.333 0 .183-.071.333-.159.333-.087 0-.346.188-.576.417-.229.229-.526.417-.66.417s-.275.093-.314.208c-.11.328-1.457-.436-1.457-.826 0-.078-.15-.25-.334-.382-.195-.141-.333-.432-.333-.704 0-.255-.075-.463-.167-.463-.091 0-.166-.262-.166-.583 0-.321-.075-.584-.167-.584-.092 0-.167-.15-.167-.333 0-.183.075-.333.167-.333.093 0 .167-.445.167-1 0-.556.074-1 .166-1 .092 0 .167-.263.167-.584 0-.321.075-.583.167-.583.091 0 .166-.225.166-.5s.075-.5.167-.5c.092 0 .167-.15.167-.333 0-.184.075-.334.166-.334.092 0 .167-.187.167-.416 0-.229.075-.417.167-.417.091 0 .166-.338.166-.75 0-.556.065-.75.25-.75.138 0 .25-.075.25-.167 0-.091.15-.166.334-.166.183 0 .333-.075.333-.167 0-.092.15-.167.333-.167.184 0 .334-.075.334-.166 0-.092.187-.167.416-.167.23 0 .417-.075.417-.167 0-.091.146-.166.323-.166.178 0 .37-.075.427-.167.057-.092.282-.167.5-.167.218 0 .439-.067.49-.15.051-.083.543-.202 1.093-.266.55-.064 1-.184 1-.267 0-.082.338-.15.75-.15.413 0 .75-.075.75-.167 0-.092.445-.166 1-.166.556 0 1 .074 1 .166M81.167 15c0 .092-.333.167-.74.167-.408 0-.787.075-.844.166-.056.092-.286.167-.51.167-.223 0-.406.075-.406.167 0 .091-.12.166-.267.166-.747 0-3.9 2.553-3.9 3.158 0 .097-.061.176-.136.176-.186 0-.697 1.103-.697 1.505 0 .181-.075.328-.167.328-.092 0-.167.225-.167.5s-.075.5-.166.5c-.104 0-.167 1-.167 2.667 0 1.666.063 2.666.167 2.666.091 0 .166.188.166.417 0 .229.075.417.167.417.092 0 .167.185.167.411 0 .467.492 1.589.697 1.589.075 0 .136.079.136.175 0 .356 2.516 2.669 3.01 2.768.269.054.49.164.49.244 0 .08.15.146.333.146.184 0 .334.075.334.167 0 .091.262.166.583.166.321 0 .583.075.583.167 0 .092.408.167.907.167.499 0 .953.075 1.01.166.057.092.582.167 1.167.167.585 0 1.11-.075 1.166-.167.057-.091.511-.166 1.01-.166S86 34.092 86 34c0-.092.225-.167.5-.167s.5-.075.5-.166c0-.092.15-.167.333-.167.184 0 .334-.067.334-.148 0-.082.246-.194.547-.251.301-.056.655-.252.787-.435.131-.183.338-.333.458-.333.282 0 1.221-.939 1.629-1.63.175-.295.376-.536.448-.536.072 0 .131-.15.131-.334 0-.183.056-.334.125-.334.149-.002.541-.809.541-1.116 0-.119.075-.216.167-.216.092 0 .167-.188.167-.417 0-.229.068-.417.151-.417.319 0 .492-3.497.262-5.291-.062-.482-.18-.875-.263-.875-.083 0-.15-.225-.15-.5s-.075-.5-.167-.5c-.092 0-.167-.15-.167-.334 0-.183-.075-.333-.166-.333-.092 0-.167-.133-.167-.297 0-.163-.15-.404-.333-.536-.184-.132-.334-.322-.334-.422 0-.231-.984-1.245-1.208-1.245-.093 0-.291-.131-.439-.292-.384-.416-1.26-.875-1.67-.875-.192 0-.349-.075-.349-.166 0-.092-.225-.167-.5-.167s-.5-.075-.5-.167c0-.091-.338-.166-.75-.166-.413 0-.75-.075-.75-.167 0-.102-.778-.167-2-.167-1.223 0-2 .065-2 .167m55 .167c0 .183-.075.333-.167.333-.094 0-.167.472-.167 1.083s-.072 1.084-.166 1.084c-.093 0-.167.441-.167.99 0 .544-.075 1.036-.167 1.093-.091.057-.166.511-.166 1.01s-.075.907-.167.907c-.092 0-.167.441-.167.99 0 .544-.075 1.036-.166 1.093-.092.057-.167.549-.167 1.093 0 .549-.074.99-.167.99-.094 0-.166.469-.166 1.074 0 .59-.068 1.115-.151 1.166-.083.052-.204.881-.27 1.844-.065.962-.185 1.75-.266 1.75-.081 0-.147.193-.147.428 0 .608-.373.905-1.137.905-.448 0-.693.085-.762.264-.16.417-.12.569.149.569.138 0 .25.075.25.167 0 .092.263.167.584.167.32 0 .583-.075.583-.167 0-.099.636-.167 1.573-.167.87 0 1.62.075 1.677.167.321.519 1.75-.006 1.75-.643 0-.315-.094-.357-.793-.357-1.165 0-1.196-.102-.976-3.198.102-1.435.242-2.665.311-2.734.068-.068.125-.599.125-1.179 0-.581.071-1.056.158-1.056.088 0 .186-.468.219-1.041.045-.774.095-.945.195-.667.073.206.199.375.28.375.081 0 .148.15.148.333 0 .184.075.334.166.334.092 0 .167.15.167.333 0 .183.075.333.167.333.091 0 .166.146.166.324 0 .178.075.37.167.426.092.057.167.209.167.339 0 .301.86 2.143 1.035 2.217.072.03.131.199.131.375s.075.319.167.319c.092 0 .167.15.167.334 0 .183.075.333.166.333.092 0 .167.15.167.333 0 .184.075.334.167.334.091 0 .166.112.166.25 0 .137.075.25.167.25.092 0 .167.121.167.268 0 .316 1.049 2.304 1.4 2.656.382.382 1.266.318 1.266-.091 0-.183.075-.333.167-.333.092 0 .167-.113.167-.25 0-.138.075-.25.166-.25.092 0 .167-.15.167-.334 0-.183.075-.333.167-.333.091 0 .166-.15.166-.333 0-.184.075-.334.167-.334.092 0 .167-.143.167-.319 0-.176.059-.345.131-.375.175-.074 1.035-1.916 1.035-2.217 0-.13.075-.282.167-.339.092-.056.167-.248.167-.426s.075-.324.166-.324c.092 0 .167-.15.167-.333 0-.183.075-.333.167-.333.091 0 .166-.15.166-.334 0-.183.075-.333.167-.333.092 0 .167-.113.167-.25s.075-.25.166-.25c.092 0 .167-.15.167-.333 0-.184.075-.334.167-.334.091 0 .166-.145.166-.323 0-.178.07-.366.154-.419.085-.052.203-.319.263-.593.227-1.031.738-.257.745 1.127.003.58.079 1.042.172 1.042.095 0 .166.5.166 1.166 0 .667.072 1.167.167 1.167.095 0 .167.5.167 1.167 0 .666.071 1.166.166 1.166.098 0 .167.556.167 1.334 0 .777-.069 1.333-.167 1.333-.091 0-.166.188-.166.417v.416h2.323c1.369 0 2.366.069 2.427.167.056.092.398.167.76.167.361 0 .656-.075.656-.167 0-.092.15-.167.334-.167.244 0 .333-.111.333-.416 0-.394-.05-.417-.917-.417-.504 0-.916-.075-.916-.167 0-.091-.15-.166-.334-.166-.222 0-.333-.111-.333-.334 0-.183-.075-.333-.167-.333-.091 0-.166-.225-.166-.5s-.065-.5-.143-.5c-.079 0-.196-.839-.261-1.865-.065-1.025-.188-1.995-.274-2.155-.086-.16-.156-.709-.156-1.219 0-.51-.075-.928-.166-.928-.094 0-.167-.472-.167-1.083s-.073-1.083-.167-1.083c-.094 0-.166-.473-.166-1.084 0-.611-.073-1.083-.167-1.083-.094 0-.167-.472-.167-1.083s-.072-1.084-.166-1.084c-.094 0-.167-.472-.167-1.083s-.073-1.083-.167-1.083c-.091 0-.166-.3-.166-.667 0-.633-.026-.667-.512-.667-.556 0-.988.323-.988.738 0 .144-.075.262-.167.262-.092 0-.167.113-.167.25 0 .138-.075.25-.166.25-.092 0-.167.15-.167.334 0 .183-.075.333-.167.333-.091 0-.166.101-.166.224 0 .124-.103.443-.23.709-.126.266-.331.727-.457 1.025-.125.298-.285.542-.354.542s-.126.146-.126.323c0 .178-.075.37-.167.427-.091.057-.166.249-.166.427 0 .177-.075.323-.167.323-.092 0-.167.15-.167.333 0 .184-.075.334-.166.334-.092 0-.167.15-.167.333 0 .183-.075.333-.167.333-.091 0-.166.15-.166.334 0 .183-.072.333-.159.333-.088 0-.209.262-.269.583-.06.321-.176.584-.258.584-.081 0-.148.15-.148.333 0 .183-.075.333-.166.333-.092 0-.167.15-.167.334 0 .183-.075.333-.167.333-.091 0-.166.15-.166.333 0 .184-.057.334-.126.334-.07 0-.225.243-.345.541-.12.298-.288.672-.374.831-.085.16-.155.403-.155.542 0 .538-.306.207-.768-.831-.265-.595-.539-1.083-.607-1.083-.069 0-.125-.15-.125-.334 0-.183-.075-.333-.167-.333-.092 0-.167-.15-.167-.333 0-.184-.075-.334-.166-.334-.092 0-.167-.15-.167-.333 0-.183-.075-.333-.167-.333-.091 0-.166-.15-.166-.334 0-.183-.069-.333-.154-.333-.084 0-.202-.224-.263-.498-.06-.274-.178-.541-.263-.593-.084-.053-.154-.241-.154-.419s-.061-.323-.135-.323c-.075 0-.239-.263-.365-.584-.126-.321-.29-.583-.364-.583-.075 0-.136-.105-.136-.233s-.225-.661-.5-1.184c-.275-.522-.5-1.016-.5-1.095 0-.235-.891-2.066-1.035-2.127-.072-.03-.131-.167-.131-.303 0-.403-.439-.725-.988-.725-.401 0-.512.073-.512.334m60 0c0 .183-.075.333-.167.333-.092 0-.167.188-.167.417 0 .229-.075.416-.166.416-.092 0-.167.146-.167.324 0 .178-.075.37-.167.426-.091.057-.166.286-.166.51 0 .224-.075.407-.167.407-.092 0-.167.15-.167.333 0 .184-.075.334-.166.334-.092 0-.167.187-.167.416 0 .23-.056.417-.125.417s-.27.469-.446 1.042c-.177.573-.383 1.113-.459 1.2-.075.087-.137.33-.137.541 0 .211-.075.384-.166.384-.092 0-.167.15-.167.333 0 .183-.075.333-.167.333-.091 0-.166.188-.166.417 0 .229-.075.417-.167.417-.092 0-.167.145-.167.323 0 .178-.075.37-.166.427-.092.056-.167.286-.167.51 0 .223-.075.406-.167.406-.091 0-.166.146-.166.324 0 .178-.069.366-.152.417-.084.052-.203.394-.265.76s-.181.666-.265.666c-.083 0-.152.188-.152.417 0 .229-.075.416-.166.416-.092 0-.167.146-.167.324 0 .178-.075.37-.167.426-.091.057-.166.28-.166.496 0 .216-.057.418-.125.449-.069.03-.312.43-.541.889-.459.92-.72 1.25-.989 1.25-.098 0-.179.075-.179.166 0 .092-.375.167-.833.167-.912 0-1.175.454-.542.935.341.258 1.542.309 1.542.065 0-.1.691-.167 1.74-.167.98 0 1.785.073 1.843.167.149.241.949.195 1.307-.076.559-.424.282-.835-.6-.891l-.79-.051v-.658c0-.361.075-.657.167-.657.091 0 .166-.225.166-.5s.075-.5.167-.5c.092 0 .167-.146.167-.324 0-.178.075-.37.166-.426.092-.057.167-.249.167-.427s.075-.323.167-.323c.091 0 .166-.225.166-.5s.075-.5.167-.5c.092 0 .167-.113.167-.25 0-.211.388-.25 2.495-.25h2.496l.254.491c.14.271.255.608.255.75 0 .142.075.259.166.259.092 0 .167.225.167.5s.075.5.167.5c.091 0 .166.187.166.416 0 .23.075.417.167.417.092 0 .167.15.167.333 0 .184.075.334.166.334.092 0 .167.225.167.5s.075.5.167.5c.091 0 .166.075.166.166 0 .092-.15.167-.333.167-.244 0-.333.111-.333.417v.416h1.916c1.167 0 1.917.066 1.917.167 0 .095.5.167 1.167.167.666 0 1.166-.072 1.166-.167 0-.092.225-.167.5-.167.299 0 .5-.087.5-.216 0-.389-.387-.617-1.05-.617-.669 0-2.116-1.214-2.116-1.777 0-.122-.075-.223-.167-.223-.092 0-.167-.157-.167-.35 0-.319-.296-1.127-.68-1.856-.084-.159-.153-.403-.153-.542 0-.138-.075-.252-.167-.252-.091 0-.166-.146-.166-.323 0-.178-.075-.37-.167-.427-.092-.057-.167-.286-.167-.51 0-.224-.056-.407-.125-.408-.169-.002-.541-.826-.541-1.199 0-.165-.069-.3-.152-.3-.084 0-.203-.299-.265-.665-.062-.367-.181-.709-.265-.76-.083-.052-.152-.24-.152-.418s-.075-.323-.166-.323c-.092 0-.167-.148-.167-.329 0-.18-.15-.595-.333-.921-.184-.327-.334-.742-.334-.922 0-.181-.075-.328-.166-.328-.092 0-.167-.15-.167-.334 0-.183-.075-.333-.167-.333-.091 0-.166-.187-.166-.417 0-.229-.067-.416-.148-.416-.082 0-.2-.276-.264-.613-.063-.338-.267-.956-.454-1.375-.187-.419-.447-1.006-.578-1.304-.296-.672-1.556-.841-1.556-.208m47.5.99c0 .728-.075 1.37-.167 1.426-.107.066-.167 2.669-.167 7.26 0 4.66-.058 7.157-.166 7.157-.092 0-.167.118-.167.262 0 .451-.45.738-1.155.738-.739 0-.942.427-.44.929.268.268 1.595.328 1.595.071 0-.1.663-.167 1.657-.167.925 0 1.702.074 1.76.167.331.536 1.916.004 1.916-.643 0-.325-.089-.357-.996-.357-.952 0-1.002-.021-1.098-.458-.055-.252-.15-.571-.211-.709-.061-.137-.16-2.2-.22-4.583-.061-2.383-.162-4.69-.226-5.125-.135-.927.011-.991.585-.253.229.295.669.763.978 1.04.309.278.796.755 1.083 1.062 1.157 1.234 9.064 9.151 9.643 9.654.405.352.795.539 1.125.539h.504v-1.574c0-.869.075-1.619.167-1.676.106-.066.166-2.53.166-6.844 0-4.382.059-6.74.167-6.74.092 0 .167-.135.167-.3 0-.435.331-.7.878-.7.627 0 1.078-.434.841-.809-.271-.43-6.938-.414-7.021.017-.087.453.381.792 1.093.792 1.298 0 1.375.257 1.375 4.575 0 2.313.064 3.778.167 3.842.174.107.242 3.583.07 3.583-.102 0-.705-.633-2.32-2.436-.55-.614-2.763-2.892-4.917-5.063-3.887-3.916-4.857-4.942-5.328-5.638-.168-.249-.417-.363-.792-.363h-.546v1.324M338.417 15c-.057.092-.324.167-.594.167-.269 0-.49.075-.49.166 0 .092-.187.167-.416.167-.229 0-.417.07-.417.155 0 .086-.141.201-.314.255-.387.123-1.019.659-1.019.864 0 .084-.15.261-.334.393-.183.132-.333.369-.333.527 0 .157-.075.333-.167.389-.092.057-.166.804-.166 1.667s.074 1.61.166 1.667c.092.056.167.286.167.51 0 .223.075.406.167.406.091 0 .166.134.166.297 0 .163.15.405.334.537.183.132.333.297.333.367 0 .19 1.322 1.493 2.083 2.053 1.196.88 2.917 2.449 2.917 2.659 0 .056.15.262.333.459.853.915-.185 3.628-1.388 3.628-.142 0-.305.075-.362.167-.056.092-.473.167-.926.167-.453 0-.824-.075-.824-.167 0-.092-.15-.167-.333-.167-.183 0-.333-.075-.333-.166 0-.092-.079-.167-.175-.167-.226 0-.992-.766-.992-.992 0-.096-.075-.175-.167-.175-.091 0-.166-.225-.166-.5s-.075-.5-.167-.5c-.092 0-.167-.305-.167-.677 0-.639-.026-.675-.451-.625-1.134.132-1.03 5.302.106 5.302.19 0 .345.075.345.167 0 .092.413.167.917.167s.917.075.917.166c0 .097.527.167 1.25.167.722 0 1.25-.07 1.25-.167 0-.091.295-.166.656-.166.362 0 .704-.075.76-.167.057-.092.249-.167.427-.167s.323-.075.323-.166c0-.092.116-.167.257-.167.617 0 2.243-1.69 2.243-2.331 0-.276.075-.502.167-.502.206 0 .228-3.548.024-3.961-.673-1.363-1.117-1.973-2.014-2.764-.224-.197-.69-.64-1.035-.984-.346-.343-.692-.625-.769-.625-.128 0-.62-.414-1.729-1.452-.786-.738-1.144-1.209-1.144-1.508 0-.169-.093-.406-.208-.527-.167-.177-.167-.236 0-.297.115-.042.208-.224.208-.404 0-.341.51-.914 1.132-1.27.433-.248 2.368-.282 2.368-.042 0 .092.101.167.224.167.252 0 1.276 1.066 1.276 1.329 0 .094.075.171.167.171.092 0 .167.3.167.667 0 .624.03.666.482.666.633 0 .684-.176.684-2.359 0-2.102-.102-2.307-1.154-2.307-.374 0-.679-.075-.679-.167 0-.1-.691-.167-1.74-.167-.98 0-1.785.073-1.843.167m22.416.323c0 .27-.075.537-.166.594-.092.056-.167.473-.167.926 0 .453-.075.824-.167.824-.262 0-.194.996.088 1.278.352.352.669.183 1.013-.542.161-.339.429-.652.596-.696.167-.044.303-.145.303-.226 0-.081 1.05-.148 2.334-.148H367v7.245c0 8.285-.019 8.422-1.157 8.422-.736 0-1.285.626-.686.783.189.049.343.155.343.236 0 .204 1.29.187 1.417-.019.06-.098 1.029-.167 2.343-.167 1.382 0 2.24.064 2.24.167 0 .257 1.327.197 1.595-.071.584-.584.305-.929-.75-.929-.843 0-1.005-.049-1.095-.333-.058-.184-.176-.334-.261-.334-.094 0-.156-2.972-.156-7.5v-7.5h2c1.223 0 2 .065 2 .167 0 .092.116.167.258.167.371 0 1.076.759 1.076 1.159 0 .252.108.341.416.341H377v-4h-7.5c-4.889 0-7.5-.058-7.5-.167 0-.092-.262-.167-.583-.167-.535 0-.584.041-.584.49m-264.791.093c-.388.44.178.917 1.086.917.453 0 .872.355.872.738 0 .144.075.262.167.262.108 0 .166 2.414.166 6.907 0 4.425-.06 6.944-.166 7.01-.092.057-.167.366-.167.688 0 .766-.322 1.062-1.155 1.062-.758 0-.964.496-.387.935.344.261 1.311.304 1.459.065.059-.096.946-.167 2.093-.167 1.216 0 1.99.065 1.99.167 0 .105 1.146.167 3.105.167 3.582 0 3.728-.057 3.728-1.443 0-.398.075-.724.167-.724.094 0 .167-.472.167-1.083 0-.985-.032-1.084-.346-1.084-.416 0-.821.373-.821.755 0 .641-1.076 1.412-1.969 1.412-.506 0-.875.082-.934.208-.078.167-.116.167-.194 0-.062-.132-.459-.208-1.091-.208-1.395 0-1.812-.418-1.812-1.816 0-.549-.075-1.044-.167-1.101-.105-.065-.166-2.054-.166-5.416 0-3.363.061-5.352.166-5.417.092-.057.167-.404.167-.772 0-.829.299-1.145 1.083-1.145.681 0 1.084-.305 1.084-.821 0-.448-7.735-.539-8.125-.096m14.791.096c0 .515.403.821 1.079.821.418 0 .729.126 1.012.409l.409.41v5.747c0 3.162.066 5.788.145 5.838.08.049.183.482.229.961.046.479.169.899.272.934.103.034.188.206.188.382 0 .176.075.319.166.319.092 0 .167.119.167.263 0 .322 1.269 1.571 1.597 1.571.13 0 .236.075.236.166 0 .092.15.167.334.167.183 0 .333.075.333.167 0 .091.225.166.5.166s.5.075.5.167c0 .092.333.167.74.167s.787.075.843.166c.057.092.624.167 1.26.167.66 0 1.157-.072 1.157-.167 0-.091.412-.166.917-.166.504 0 .916-.075.916-.167 0-.092.169-.168.375-.17.207-.002.563-.151.792-.33.229-.179.495-.328.591-.33.262-.005 2.076-1.981 2.076-2.26 0-.134.075-.243.166-.243.092 0 .167-.188.167-.417 0-.229.075-.417.167-.417.091 0 .166-.285.166-.633 0-.348.07-.705.156-.792.089-.089.179-2.617.208-5.837.059-6.287.05-6.238 1.136-6.238.602 0 1.05-.367.969-.792-.096-.498-7.135-.53-7.135-.032 0 .519.401.824 1.083.824.742 0 1.083.312 1.083.988 0 .282.075.512.167.512.107 0 .167 1.667.167 4.667s-.06 4.667-.167 4.667c-.094 0-.167.472-.167 1.083s-.072 1.083-.166 1.083c-.092 0-.167.188-.167.417 0 .229-.075.417-.167.417-.091 0-.166.15-.166.333 0 .183-.06.333-.132.333-.073 0-.411.263-.751.584-.34.321-.726.583-.858.583s-.286.075-.343.167c-.056.091-.324.166-.595.166-.271 0-.64.092-.819.204-.258.162-.37.162-.532 0-.112-.112-.451-.204-.754-.204-.302 0-.55-.075-.55-.166 0-.092-.116-.167-.258-.167-.33 0-1.908-1.571-1.908-1.899 0-.136-.075-.294-.167-.351-.092-.057-.167-.319-.167-.583 0-.265-.075-.527-.166-.584-.106-.065-.167-2.228-.167-5.938 0-6.369-.009-6.312.955-6.312.578 0 .878-.268.878-.783v-.383h-4c-3.935 0-4 .005-4 .345m48.534-.145c-.463.462.059.953 1.023.961 1.302.011 1.265-.225 1.271 8.074.006 8.355-.025 8.598-1.122 8.598-.554 0-1.039.305-1.039.655 0 .098.15.178.333.178.184 0 .334.075.334.167 0 .092.262.167.583.167.321 0 .583-.075.583-.167 0-.099.639-.167 1.584-.167.944 0 1.583.068 1.583.167 0 .102.778.167 2 .167s2-.065 2-.167c0-.092.3-.167.667-.167.366 0 .666-.075.666-.166 0-.092.225-.167.5-.167s.5-.075.5-.167c0-.091.108-.166.239-.166.132 0 .611-.363 1.066-.806 2.684-2.614 1.852-7.174-1.601-8.784-.341-.158-.642-.306-.668-.328-.026-.021.292-.389.708-.817.482-.496.756-.927.756-1.188 0-.226.075-.411.167-.411.099 0 .167-.639.167-1.583s-.068-1.583-.167-1.583c-.092 0-.169-.132-.172-.292-.011-.582-1.12-1.542-1.782-1.542-.209 0-.379-.075-.379-.166 0-.092-.263-.167-.584-.167-.321 0-.583-.075-.583-.167 0-.256-8.376-.223-8.633.034m17.046.145c-.137.432.313.809.974.816.557.006.946.347.946.827 0 .19.075.345.167.345.108 0 .167 2.389.167 6.833 0 4.445-.059 6.834-.167 6.834-.092 0-.167.305-.167.678 0 .853-.297 1.155-1.137 1.155-.448 0-.693.085-.762.264-.16.417-.12.569.149.569.138 0 .25.075.25.167 0 .092.296.167.657.167.361 0 .703-.075.76-.167.06-.097.998-.167 2.25-.167s2.19.07 2.25.167c.149.242 1.449.194 1.792-.065.688-.523.371-.935-.721-.935-1.212 0-1.488-.214-1.488-1.155 0-.373-.075-.678-.166-.678-.109 0-.167-2.386-.167-6.824 0-4.369.06-6.86.167-6.926.091-.057.166-.217.166-.355 0-.388.429-.729.917-.729.528 0 .917-.348.917-.821 0-.543-7.582-.542-7.754 0m89.087-.003c0 .476.387.824.917.824.621 0 .916.369.916 1.145 0 .368.075.715.167.772.106.066.167 2.252.167 6.01 0 3.827-.059 5.907-.167 5.907-.095 0-.167.504-.167 1.178 0 1.393-.183 1.655-1.154 1.655-.74 0-.942.427-.441.929.269.268 1.595.328 1.595.071 0-.103.861-.167 2.25-.167s2.25.064 2.25.167c0 .251 1.372.19 1.723-.076.611-.463.282-.836-.787-.891-1.626-.084-1.512.515-1.569-8.246-.055-8.542-.066-8.448 1.012-8.459.741-.007 1.257-.409 1.016-.791-.311-.493-7.728-.521-7.728-.028m9.667.003c0 .517.403.821 1.09.821.63 0 1.743.925 1.743 1.45 0 .119.075.217.167.217.091 0 .166.188.166.417 0 .229.069.416.152.416.084 0 .203.3.265.666.062.366.181.708.265.76.083.052.152.24.152.418 0 .177.075.323.166.323.092 0 .167.146.167.323 0 .178.075.37.167.427.091.057.166.286.166.51 0 .224.057.407.125.408.169.002.542.826.542 1.199 0 .165.075.3.167.3.091 0 .166.15.166.333 0 .183.075.333.167.333.092 0 .167.169.168.375 0 .207.113.59.25.853.137.262.249.581.249.708s.075.231.166.231c.092 0 .167.135.167.3 0 .373.373 1.197.542 1.199.068 0 .125.226.125.501s.075.5.166.5c.092 0 .167.15.167.333 0 .184.075.334.167.334.091 0 .166.187.166.416 0 .23.075.417.167.417.092 0 .167.131.168.292 0 .16.113.506.25.769.137.262.249.619.249.791 0 .173.075.315.166.315.092 0 .167.116.167.257 0 1.067 1.573 1.251 1.782.209.051-.257.159-.466.239-.466.08 0 .146-.113.146-.25 0-.138.075-.25.166-.25.092 0 .167-.146.167-.324 0-.178.075-.37.167-.426.091-.057.166-.28.166-.496 0-.216.06-.418.133-.449.18-.075.867-1.571.867-1.887 0-.138.067-.252.148-.252.082 0 .198-.262.258-.583.06-.321.181-.583.269-.583.087 0 .159-.188.159-.417 0-.229.075-.417.166-.417.092 0 .167-.181.167-.402 0-.222.056-.428.125-.459.219-.097 1.708-3.321 1.708-3.697 0-.151.075-.275.167-.275.092 0 .167-.146.167-.323 0-.178.075-.37.166-.427.092-.057.167-.249.167-.427 0-.177.075-.323.167-.323.091 0 .166-.15.166-.333 0-.184.075-.334.167-.334.092 0 .167-.113.167-.252s.068-.382.152-.542c.084-.159.36-.739.615-1.289.576-1.246.745-1.417 1.399-1.417.604 0 1-.325 1-.821 0-.448-5.988-.548-6.428-.107-.45.45-.004.914.887.923.52.005.541.032.541.672 0 .367-.075.667-.166.667-.092 0-.167.15-.167.333 0 .183-.075.333-.167.333-.091 0-.166.188-.166.417 0 .229-.075.417-.167.417-.092 0-.167.15-.167.333 0 .183-.075.333-.166.333-.092 0-.167.225-.167.5s-.075.5-.167.5c-.091 0-.166.146-.166.324 0 .178-.069.366-.152.417-.084.052-.203.394-.265.76s-.181.666-.265.666c-.083 0-.152.188-.152.417 0 .229-.075.416-.166.416-.092 0-.167.146-.167.324 0 .178-.075.37-.167.426-.091.057-.166.286-.166.51 0 .224-.075.407-.167.407-.092 0-.167.146-.167.323 0 .178-.075.37-.166.427-.092.057-.167.249-.167.427 0 .177-.059.323-.13.323-.072 0-.238.356-.369.792-.163.542-.258.686-.302.458-.036-.183-.132-.405-.215-.492-.083-.087-.151-.259-.151-.383 0-.123-.15-.535-.333-.914-.183-.38-.333-.826-.333-.992 0-.166-.075-.302-.167-.302-.092 0-.167-.188-.167-.417 0-.229-.075-.417-.166-.417-.092 0-.167-.187-.167-.416 0-.229-.075-.417-.167-.417-.091 0-.166-.187-.166-.417 0-.229-.069-.416-.152-.416-.084 0-.206-.316-.271-.702-.065-.386-.196-.855-.291-1.042-.395-.78-.453-.93-.453-1.171 0-.138-.075-.252-.167-.252-.091 0-.166-.187-.166-.417 0-.229-.075-.416-.167-.416-.092 0-.167-.219-.167-.486 0-.268-.068-.512-.151-.542-.14-.052-.243-.616-.2-1.097.01-.115.211-.209.447-.209.517 0 .904-.351.904-.821 0-.34-.064-.345-4.083-.345s-4.083.005-4.083.345m21.5 0c0 .546.409.821 1.222.821h.747l.272.875c.284.913.304 12.759.024 14.375-.259 1.5-.194 1.417-1.102 1.417-.893 0-1.137.383-.592.929.271.27 1.523.324 1.679.071.136-.221 3.416-.221 3.416 0 0 .105 1.171.167 3.179.167 3.62 0 3.655-.012 3.655-1.238 0-.419.075-.762.166-.762.096 0 .167-.5.167-1.167 0-1.069-.029-1.167-.345-1.167-.41 0-.822.371-.822.741 0 .689-.7 1.413-1.375 1.421-.252.003-.458.08-.458.172 0 .092-.441.166-.99.166-.545 0-1.037-.075-1.093-.166-.057-.092-.292-.167-.522-.167-.509 0-.895-.355-.895-.821 0-.19-.075-.346-.167-.346-.105 0-.166-1.111-.166-3v-3h1.49c.819 0 1.536.075 1.593.167.057.092.254.167.438.167.465 0 .812.392.812.916 0 .558.354.917.905.917.428 0 .428-.001.428-1.492 0-.821.085-1.678.188-1.905.44-.966-.427-1.761-1.021-.936-.22.305-.431.333-2.537.333h-2.296v-6h1.24c.682 0 1.286.075 1.343.167.057.091.441.166.855.166.819 0 1.228.274 1.228.822 0 .19.075.345.167.345.092 0 .167.15.167.333 0 .26.111.334.5.334.466 0 .5-.042.501-.625 0-.344.049-1.244.108-2l.107-1.375h-6.108c-6.067 0-6.108.002-6.108.345m16.666 0c0 .516.403.821 1.084.821.641 0 1.083.302 1.083.738 0 .144.075.262.167.262.108 0 .166 2.417.166 6.917s-.058 6.917-.166 6.917c-.092 0-.167.305-.167.678 0 .858-.297 1.155-1.155 1.155-.739 0-.942.427-.44.929.27.27 1.762.33 1.762.071 0-.101.75-.167 1.916-.167 1.167 0 1.917.066 1.917.167 0 .262 1.656.201 1.929-.071.549-.55.301-.929-.608-.929-1.472 0-1.654-.432-1.654-3.914v-2.753h.49c.269 0 .536.075.593.167.057.092.306.167.554.167.299 0 .562.153.781.455.183.251.5.629.707.841.206.212.375.478.375.591 0 .113.15.314.333.446.183.132.333.336.333.453 0 .118.075.214.167.214.092 0 .167.082.167.182 0 .455 2.971 3.651 3.394 3.651.15 0 .272.075.272.167 0 .091.375.166.834.166.458 0 .833.075.833.167 0 .279 3.477.213 3.762-.071.546-.546.301-.929-.595-.929-.459 0-.834-.075-.834-.167 0-.091-.112-.166-.25-.166-.137 0-.25-.075-.25-.167 0-.092-.114-.167-.253-.167-.29 0-2.303-1.96-2.909-2.833-.451-.649-.981-1.167-1.197-1.167-.077 0-.141-.134-.141-.298 0-.165-.262-.577-.583-.917-.321-.34-.583-.664-.583-.718 0-.055-.234-.318-.52-.585l-.52-.486.473-.372c.261-.205.602-.523.76-.706.158-.184.441-.515.63-.735.189-.22.343-.501.343-.625 0-.123.075-.224.167-.224.092 0 .167-.15.167-.334 0-.183.075-.333.166-.333.092 0 .167-.3.167-.667 0-.366.075-.666.167-.666.091 0 .166-.296.166-.657 0-.361-.075-.703-.166-.76-.092-.057-.167-.361-.167-.677 0-.315-.075-.573-.167-.573-.091 0-.166-.116-.166-.257 0-.539-1.231-1.709-1.938-1.841-.309-.058-.562-.172-.562-.254 0-.081-.338-.148-.75-.148-.413 0-.75-.075-.75-.167 0-.107-1.667-.166-4.667-.166-4.609 0-4.667.004-4.667.345m35.334-.029c0 .645.188.85.779.85 1.096 0 1.054-.327 1.054 8.238 0 5.064-.058 7.762-.167 7.762-.091 0-.166.15-.166.334 0 .284-.111.333-.75.333-.812 0-1.035.405-.512.929.269.269 1.428.327 1.428.071 0-.103.861-.167 2.25-.167s2.25.064 2.25.167c0 .257 1.327.197 1.596-.071.548-.548.301-.929-.603-.929-.671 0-.924-.083-1.25-.409l-.409-.409v-7.475c0-8.31.007-8.37.97-8.372.628-.002 1.081-.362.998-.794-.092-.476-7.468-.534-7.468-.058m30.583.018c-.125.392.248.832.705.832.373 0 1.209.369 1.21.534.001.065.189.305.418.535.23.229.417.478.417.554 0 .075.15.245.333.377.184.132.334.357.334.5 0 .143.15.368.333.5.183.132.333.374.333.537 0 .163.075.297.167.297.092 0 .167.107.167.238s.093.337.208.458c.115.121.315.427.445.679.13.252.299.458.375.458.076 0 .138.15.138.333 0 .184.075.334.167.334.092 0 .167.096.167.213 0 .117.15.321.333.453.183.132.333.374.333.537 0 .163.075.297.167.297.092 0 .167.14.167.313 0 .172.112.406.25.52.137.114.25.386.25.604 0 .218.075.396.166.396.105 0 .167 1.141.167 3.089 0 3.614-.09 3.911-1.186 3.911-.708 0-.901.437-.409.929.268.268 1.595.328 1.595.071 0-.103.861-.167 2.25-.167s2.25.064 2.25.167c0 .257 1.327.197 1.595-.071.584-.584.305-.929-.75-.929-.843 0-1.005-.049-1.095-.333-.058-.184-.176-.334-.261-.334-.565 0-.03-7.546.553-7.805.068-.031.125-.2.125-.375 0-.176.075-.32.166-.32.092 0 .167-.078.167-.173 0-.096.15-.335.333-.532.184-.197.334-.456.334-.576 0-.12.075-.219.166-.219.092 0 .167-.15.167-.333 0-.183.056-.334.125-.334.156-.002.708-.957.708-1.226 0-.11.15-.308.334-.44.183-.132.333-.357.333-.5 0-.143.15-.368.333-.5.184-.132.334-.325.334-.428 0-.103.15-.323.333-.489.183-.166.333-.402.333-.525 0-.124.07-.225.156-.225.085 0 .203-.15.261-.333.058-.183.251-.333.428-.333s.322-.075.322-.167c0-.092.262-.167.583-.167.321 0 .584-.075.584-.166 0-.092.112-.167.25-.167.269 0 .309-.153.149-.57-.184-.477-6.233-.387-6.233.092 0 .196.18.515.399.709.397.351.46 1.436.082 1.436-.081 0-.147.15-.147.333 0 .183-.075.333-.167.333-.092 0-.167.113-.167.25 0 .138-.056.252-.125.253-.068.002-.35.47-.625 1.042-.275.571-.556 1.064-.625 1.094-.068.031-.125.2-.125.375 0 .176-.075.32-.166.32-.092 0-.167.098-.167.218s-.15.38-.333.577c-.184.196-.334.473-.334.614 0 .142-.118.257-.262.257-.308 0-.738-.392-.738-.674 0-.291-.863-1.826-1.026-1.826-.077 0-.14-.15-.14-.333 0-.183-.075-.333-.167-.333-.092 0-.167-.15-.167-.334 0-.183-.075-.333-.166-.333-.092 0-.167-.113-.167-.25 0-.138-.075-.25-.167-.25-.091 0-.166-.113-.166-.25 0-.138-.075-.25-.167-.25-.092 0-.167-.094-.167-.208-.001-.115-.188-.578-.417-1.029-.477-.941-.475-.93-.237-.93.341 0 .679-.493.571-.832-.165-.521-6.835-.521-7 0M83.917 16.833c.056.092.286.167.51.167.223 0 .406.075.406.167 0 .091.134.166.297.166.163 0 .405.15.537.334.132.183.317.334.411.336.275.004 1.255.935 1.255 1.19 0 .129.15.342.334.474.183.132.333.373.333.536 0 .164.075.297.167.297.091 0 .166.112.166.25 0 .137.065.25.144.25.247 0 .567 2.343.569 4.167.002 1.816-.306 4-.564 4-.082 0-.149.15-.149.333 0 .183-.075.333-.166.333-.092 0-.167.123-.167.272 0 .15-.169.418-.375.596s-.617.544-.912.812c-.296.268-.614.487-.709.487-.094 0-.171.075-.171.167 0 .091-.258.166-.573.166-.316 0-.62.075-.677.167-.056.092-.436.167-.843.167S83 32.592 83 32.5c0-.092-.3-.167-.667-.167-.366 0-.666-.075-.666-.166 0-.092-.15-.167-.334-.167-.183 0-.333-.075-.333-.167 0-.091-.113-.166-.25-.166-.138 0-.25-.066-.25-.147 0-.08-.223-.239-.496-.352-.854-.353-1.053-.594-1.901-2.292-.102-.205-.243-.374-.311-.375-.069 0-.125-.188-.125-.418 0-.229-.075-.416-.167-.416-.092 0-.167-.225-.167-.5s-.075-.5-.166-.5c-.092 0-.167-.338-.167-.75 0-.413-.075-.75-.167-.75-.096 0-.166-.525-.166-1.24 0-.683.075-1.287.166-1.344.092-.056.167-.473.167-.926 0-.453.075-.824.167-.824.091 0 .166-.147.166-.328 0-.896 1.855-3.172 2.586-3.172.136 0 .248-.075.248-.166 0-.092.145-.167.323-.167.178 0 .37-.075.427-.167.056-.091.731-.166 1.5-.166.768 0 1.443.075 1.5.166m82.25 0c0 .092.158.167.351.167.449 0 1.815 1.374 1.815 1.825 0 .188.075.342.167.342.094 0 .167.472.167 1.083s-.073 1.083-.167 1.083c-.092 0-.167.116-.167.258 0 .29-.725 1.076-.992 1.076-.096 0-.174.075-.174.166 0 .093-.445.167-1 .167h-1v-2.924c0-3.028.075-3.389.708-3.403.16-.003.292.069.292.16m155.166.334c0 .091.113.166.25.166s.528.263.868.584c.34.32.678.583.75.583.073 0 .132.183.132.407 0 .224.075.453.167.51.245.151.21 3.179-.042 3.616-.268.466-1.125 1.324-1.591 1.592-.431.248-2.034.281-2.034.042 0-.092-.15-.167-.333-.167-.323 0-.333-.111-.333-3.75V17h1.083c.611 0 1.083.073 1.083.167m-124.817 4.408c.083.087.151.294.151.461 0 .292.062.458.474 1.253.106.205.192.487.192.625 0 .139.075.253.167.253.092 0 .167.225.167.5s.075.5.166.5c.092 0 .167.187.167.416V26h-3.62l.079-.417c.044-.229.146-.416.227-.416.081 0 .147-.225.147-.5s.075-.5.167-.5c.092 0 .167-.148.167-.329 0-.18.15-.595.333-.921.183-.327.333-.737.333-.912 0-.175.075-.365.167-.422.092-.056.175-.267.186-.468.018-.338.025-.34.1-.032.044.184.147.405.23.492m-29.849 3.092c0 .091.191.166.424.166.233 0 .605.169.825.375.221.207.499.458.618.56.464.396.966 1.08.966 1.317 0 .136.075.248.167.248.091 0 .166.221.166.49 0 .27.075.537.167.594.092.056.167.548.167 1.093 0 .549-.075.99-.167.99-.092 0-.167.131-.167.292 0 .34-.702 1.208-.977 1.208-.104 0-.189.075-.189.167 0 .24-2.18.207-2.716-.042-.291-.135-.449-.34-.45-.583 0-.207-.076-.375-.168-.375-.105 0-.166-1.223-.166-3.334V24.5h.75c.412 0 .75.075.75.167M4.869 32.542l.048 1.541 14.625.043 14.625.042V31H4.821l.048 1.542M60.167 50.99c0 2.258-.064 3.696-.167 3.76-.097.06-.167 1.002-.167 2.26v2.157h-.583c-.537 0-.583.039-.583.5v.5h2.3c2.384 0 2.732-.092 2.578-.681-.059-.224-.231-.319-.576-.319-.633 0-.969-.343-.969-.988 0-.282-.075-.512-.167-.512-.104 0-.166-1.056-.166-2.834 0-3.028.026-3.119.666-2.291 1.157 1.499 7.657 7.791 8.047 7.791.646 0 .787-1.176.787-6.597 0-5.227.001-5.236.684-5.236.403 0 .482-.068.482-.417v-.416h-2.345c-2.336 0-2.344.001-2.291.375.039.277.183.389.553.431.912.103.917.124.917 3.836v3.434l-.709-.824c-.389-.453-.961-1.052-1.271-1.33-.31-.278-.722-.686-.917-.907-.194-.221-.755-.795-1.246-1.274-1.117-1.093-1.02-.995-2.295-2.307-.587-.606-1.137-1.101-1.221-1.101-.084 0-.2-.15-.258-.333-.074-.234-.252-.334-.595-.334h-.488v3.657m19.541-3.205c-.246.531-.279 2.318-.045 2.463.205.126.837-.2.837-.432 0-.478.504-.649 1.905-.649h1.428v4.479c0 5.309-.026 5.521-.687 5.521-.422 0-.479.06-.479.504v.504l2.791-.046 2.792-.046.053-.458c.051-.447.031-.458-.792-.458-.725 0-.844-.046-.844-.324 0-.178-.075-.37-.167-.426-.105-.065-.167-1.808-.167-4.677v-4.573h1.388c1.41 0 2.112.322 2.112.969 0 .109.227.197.507.197h.506l-.048-1.458c-.048-1.453-.05-1.459-.506-1.511-.252-.029-.459.027-.459.125 0 .121-1.4.178-4.416.178-2.834 0-4.417-.06-4.417-.167 0-.405-1.082-.167-1.292.285m36.125-.285c0 .106-1.305.167-3.583.167h-3.583v.416c0 .356.076.417.523.417.94 0 .966.133.971 5.115.004 2.847-.056 4.57-.161 4.635-.092.057-.167.286-.167.51 0 .354-.076.407-.583.407-.637 0-.88.683-.32.899.713.273 7.613.105 7.838-.191.381-.502.312-2.875-.084-2.875-.314 0-.517.304-.517.776 0 .538-.45.724-1.75.724-1.734 0-1.75-.023-1.75-2.405v-1.928h1.25c1.139 0 1.25.029 1.25.333 0 .183.075.333.166.333.092 0 .167.113.167.25 0 .156.157.25.417.25.413 0 .416-.011.416-1.5s-.003-1.5-.416-1.5c-.229 0-.417.075-.417.167 0 .098-.583.167-1.417.167h-1.416v-3.834h.74c.407 0 .786.075.843.167.057.092.361.167.677.167.544 0 .573.029.573.583 0 .511.052.583.417.583.333 0 .416-.083.416-.416 0-.229.075-.417.167-.417.094 0 .167-.472.167-1.083 0-1.045-.015-1.084-.417-1.084-.229 0-.417.075-.417.167m14 0c0 .092-.262.167-.583.167-.321 0-.583.066-.583.148 0 .081-.256.196-.568.254-.944.178-2.932 2.389-2.932 3.262 0 .185-.075.336-.167.336-.102 0-.167.777-.167 2 0 1.222.065 2 .167 2 .092 0 .167.225.167.5s.075.5.166.5c.092 0 .167.133.167.296 0 .163.15.405.333.537.184.132.334.309.334.392 0 .344 1.507 1.438 2.645 1.919.842.357 1.201.399 3.521.418 3.69.03 3.777-.02 3.95-2.263l.1-1.299h-.442c-.33 0-.441.084-.441.333 0 .183-.075.333-.167.333-.091 0-.166.085-.166.189 0 .304-.884.978-1.282.978-.201 0-.412.075-.468.167-.057.091-.474.166-.927.166-.453 0-.823-.075-.823-.166 0-.092-.139-.167-.308-.167-.353 0-1.305-.445-1.449-.677-.053-.086-.21-.156-.348-.156-.325 0-.729-.404-.729-.729 0-.138-.07-.295-.156-.348-.232-.144-.677-1.096-.677-1.449 0-.169-.075-.308-.167-.308-.211 0-.223-2.73-.014-3.127.084-.159.237-.518.34-.798.269-.729 1.286-1.741 1.751-1.741.141 0 .257-.075.257-.167 0-.092.285-.167.633-.167.348 0 .723-.09.833-.2.156-.155.2-.155.2 0 0 .132.315.2.917.2.504 0 .917.075.917.167 0 .092.1.167.223.167.413 0 1.277 1.124 1.277 1.662 0 .444.057.504.479.504.562 0 .687-.379.687-2.09 0-1.49-.055-1.576-1.017-1.576-.449 0-.816-.075-.816-.167 0-.103-.889-.167-2.333-.167-1.445 0-2.334.064-2.334.167m16.209.083c-.115.13-.209.503-.209.829 0 .326-.087.732-.193.902-.106.169-.145.433-.087.584.132.344.61.542.755.314.657-1.034.683-1.045 2.315-1.045h1.544v4.573c0 2.869-.062 4.612-.167 4.677-.092.056-.167.243-.167.416 0 .231-.141.326-.541.365-.413.04-.555.14-.594.421-.074.514.269.568 3.219.512l2.5-.048.052-.458c.051-.437.02-.458-.666-.46-1.109-.002-1.136-.133-1.136-5.448v-4.55h1.341c1.344 0 2.159.374 2.159.992 0 .096.097.174.216.174.399 0 .617-.394.617-1.116 0-.606.052-.717.333-.717.184 0 .334.075.334.167 0 .091.15.166.333.166.189 0 .333.111.333.258 0 .141.188.459.417.706.229.247.417.544.417.66 0 .115.075.21.166.21.092 0 .167.098.167.218s.15.38.333.577c.184.196.334.435.334.529 0 .153.219.465.75 1.069.216.247.598 1.231.704 1.815.046.252.15.458.231.458.205 0 .187 2.29-.019 2.417-.091.057-.166.399-.166.76 0 .642-.014.657-.595.657-.55 0-.59.034-.541.458l.052.458h5.5l.053-.458c.049-.426.01-.458-.554-.458-.994 0-1.082-.209-1.082-2.572 0-1.285.064-2.095.167-2.095.091 0 .166-.15.166-.333 0-.184.075-.334.167-.334.092 0 .167-.15.167-.333 0-.183.065-.333.146-.333.08 0 .362-.413.625-.917s.535-.916.604-.916c.068 0 .125-.151.125-.334 0-.183.075-.333.166-.333.092 0 .167-.096.167-.214 0-.117.15-.321.333-.453.184-.132.334-.342.334-.465 0-.269.403-.702.654-.702.099 0 .179-.07.179-.155 0-.086.206-.18.458-.209.329-.037.474-.159.512-.427.053-.373.039-.375-2.125-.375-2.268 0-2.602.121-1.845.666.344.248.461.834.167.834-.092 0-.167.15-.167.333 0 .183-.075.333-.167.333-.091 0-.166.116-.166.257 0 .142-.151.419-.335.616-.184.198-.497.72-.696 1.16-.337.745-.803 1.083-.803.582 0-.12-.15-.379-.333-.576-.183-.197-.333-.474-.333-.615 0-.141-.075-.257-.167-.257-.092 0-.167-.113-.167-.25 0-.138-.075-.25-.166-.25-.092 0-.167-.144-.167-.319 0-.176-.056-.345-.125-.375-.495-.221-.804-1.639-.357-1.639.082 0 .149-.113.149-.25 0-.211-.37-.25-2.324-.25-1.369 0-2.366-.069-2.426-.167-.057-.092-.249-.167-.427-.167s-.323.075-.323.167c0 .107-1.58.167-4.407.167-2.758 0-4.446-.063-4.51-.167-.152-.246-.968-.19-1.208.083m34.375-.083c-.057.092-.361.167-.677.167-.315 0-.573.069-.573.153 0 .084-.227.203-.503.264-.659.145-2.269 1.754-2.413 2.413-.061.277-.18.503-.264.503-.085 0-.154.225-.154.5s-.075.5-.166.5c-.101 0-.167.722-.167 1.833s.066 1.834.167 1.834c.091 0 .166.225.166.5s.075.5.167.5c.092 0 .167.115.167.256 0 .509 1.145 1.901 1.927 2.343 1.635.923 1.876.984 3.89.984 1.841 0 3.516-.295 3.516-.62 0-.071.112-.13.249-.13.136 0 .342-.15.456-.333.115-.184.313-.334.441-.334.297 0 .806-.595 1.53-1.789.932-1.537.894-6.877-.049-6.877-.07 0-.127-.115-.127-.256 0-.689-2.331-2.244-3.365-2.244-.257 0-.468-.075-.468-.167 0-.101-.719-.167-1.824-.167-1.036 0-1.868.072-1.926.167m18.25 0c0 .106-1.417.167-3.917.167-2.674 0-3.917.056-3.917.178 0 .339.478.655.988.655h.512v10.667h-.583c-.537 0-.583.039-.583.5v.5h5.5v-.5c0-.447-.055-.5-.512-.5-.903 0-.988-.237-.988-2.738v-2.262h1.182c1.042 0 1.193.039 1.269.333.048.183.154.333.235.333.081 0 .147.113.147.25 0 .333.604.322.732-.013.324-.845.106-2.737-.315-2.737-.229 0-.417.075-.417.167 0 .098-.583.167-1.417.167h-1.416v-3.834h.74c.407 0 .786.075.843.167.057.092.329.167.605.167.584 0 .978.331.978.821 0 .257.107.345.417.345.414 0 .417-.011.417-1.5 0-1.222-.047-1.5-.25-1.5-.138 0-.25.075-.25.167m10 1.823c0 1.147-.071 2.034-.167 2.094-.103.063-.167 1.478-.167 3.688 0 3.884-.039 4.062-.904 4.062-.366 0-.429.074-.429.5v.5l2.292-.003c1.26-.001 2.404-.074 2.541-.162.377-.24-.006-.741-.613-.802-.875-.088-1.053-.816-1.053-4.296V51.92l.708.814c.39.448 1.099 1.197 1.577 1.665.477.468.943.926 1.035 1.018.091.091.675.676 1.298 1.298.622.623 1.207 1.208 1.298 1.302 2.946 3.007 3.084 3.04 3.084.743 0-.869.074-1.62.166-1.677.104-.064.167-1.616.167-4.105 0-4.248.041-4.478.804-4.478.299 0 .529-.296.529-.68 0-.086-1.027-.153-2.333-.153h-2.333v.416c0 .354.077.417.512.417.951 0 .988.143.988 3.821 0 1.84-.057 3.343-.125 3.34-.208-.009-.764-.542-1.264-1.21-.26-.348-1.498-1.673-2.75-2.945-1.253-1.273-2.518-2.563-2.812-2.868-1.867-1.94-2.049-1.879-2.049.685m21.589-1.833c-.071.115-1.351.177-3.683.177-2.43 0-3.573.057-3.573.178 0 .314.463.655.887.655.602 0 .613.095.613 5.359 0 5.155-.024 5.308-.821 5.308-.273 0-.346.105-.346.5v.5h3.737c4.39 0 4.263.027 4.263-.935 0-.403.075-.732.167-.732.235 0 .208-1.059-.033-1.3-.307-.307-.634-.238-.634.133 0 .184-.075.334-.166.334-.092 0-.167.08-.167.178 0 .475-.501.655-1.821.655h-1.346v-4.333h1.012c1.088 0 1.488.221 1.488.821 0 .27.106.345.482.345.48 0 .482-.004.556-1.208.04-.665.105-1.321.143-1.458.049-.179-.085-.265-.472-.303-.305-.029-.542.026-.542.125 0 .111-.503.178-1.333.178h-1.334v-3.834H228c.367 0 .667.075.667.167 0 .092.23.167.512.167.597 0 .988.329.988.832 0 .291.084.347.458.304l.458-.053v-1.417c0-1.4-.395-2.042-.827-1.343m43.077.01c0 .092-.225.167-.5.167s-.5.066-.5.148c0 .081-.257.196-.571.255-.314.059-.595.161-.625.227-.029.066-.335.33-.679.586-.343.257-.625.548-.625.648 0 .099-.131.302-.291.451-.537.499-.758 1.085-.839 2.222-.045.621-.146 1.129-.225 1.129-.188 0-.189.953-.002 1.069.079.049.183.528.232 1.066.147 1.623 1.612 3.514 3.375 4.359.979.469 5.028.629 5.442.215.115-.115.381-.209.592-.209.21 0 .383-.075.383-.166 0-.092.108-.167.241-.167.398 0 2.43-2.149 2.537-2.683.054-.266.163-.484.243-.484.08 0 .146-.3.146-.666 0-.367.075-.667.166-.667.099 0 .167-.611.167-1.5s-.068-1.5-.167-1.5c-.091 0-.166-.263-.166-.583 0-.321-.075-.584-.167-.584-.092 0-.167-.134-.167-.299 0-.711-1.553-2.243-2.481-2.447-.285-.062-.519-.183-.519-.267 0-.084-.22-.153-.49-.153-.269 0-.536-.075-.593-.167-.059-.095-.918-.167-2.01-.167-1.16 0-1.907.066-1.907.167m-222.166.583c0 .349.079.417.482.417.684 0 .684.001.684 5.359 0 5.155-.023 5.308-.821 5.308-.273 0-.345.105-.345.5v.5h5.5v-.5c0-.482-.028-.5-.75-.5-.744 0-.75-.005-.75-.574 0-.315-.075-.62-.167-.676-.104-.065-.167-1.724-.167-4.427 0-2.771.06-4.323.167-4.323.092 0 .167-.15.167-.334 0-.236.111-.333.383-.333.424 0 .783-.283.783-.617 0-.168-.574-.216-2.583-.216h-2.583v.416m41.166 0c0 .373.068.417.649.417.874 0 .852-.132.849 4.972-.002 5.461-.027 5.659-.726 5.727-.432.042-.522.123-.522.468v.416l2.5.048c2.95.056 3.293.002 3.219-.512-.044-.313-.172-.377-.844-.42-.655-.042-.791-.106-.791-.375 0-.178-.075-.324-.167-.324-.103 0-.167-.833-.167-2.167v-2.166H102v2.262c0 2.404-.1 2.738-.821 2.738-.273 0-.346.105-.346.5v.5h5.5v-.5c0-.455-.05-.5-.55-.5-.759 0-.95-.258-.95-1.284 0-.486-.075-.883-.166-.883-.105 0-.167-1.024-.167-2.74 0-1.647.066-2.781.167-2.843.091-.057.166-.736.166-1.51 0-1.4.002-1.407.429-1.407.439 0 .905-.337.905-.655 0-.12-.93-.178-2.834-.178-1.903 0-2.833.058-2.833.178 0 .314.463.655.887.655.553 0 .613.23.613 2.347v1.82h-5.667v-1.846c0-2.01.121-2.321.905-2.321.346 0 .429-.08.429-.417v-.416h-5.334v.416m46.334-.263c0 .438.243.68.684.68h.482v10.667h-.583c-.537 0-.583.039-.583.5v.5h5.5v-.5c0-.447-.055-.5-.512-.5-.991 0-.988.016-.988-5.572V48.5h.482c.441 0 .684-.242.684-.68 0-.087-1.125-.153-2.583-.153-1.458 0-2.583.066-2.583.153m94 .263c0 .348.079.417.48.417.475 0 1.02 1.018 1.02 1.906 0 .144.075.261.166.261.092 0 .167.225.167.5s.075.5.167.5c.091 0 .166.183.166.406 0 .224.075.454.167.51.092.057.167.286.167.51 0 .224.075.407.166.407.092 0 .167.225.167.5s.075.5.167.5c.091 0 .166.188.166.417 0 .229.075.416.167.416.092 0 .167.185.167.411 0 .437.402 1.813.672 2.295.088.16.161.436.161.616 0 .179.075.372.167.428.091.057.166.254.166.439 0 1.063 1.476 1.001 1.495-.064.003-.16.08-.291.172-.291.092 0 .167-.114.167-.253 0-.138.065-.382.145-.541.652-1.294.855-1.781.855-2.055 0-.175.075-.318.166-.318.092 0 .167-.114.167-.252 0-.139.073-.383.161-.542.193-.346.672-1.812.672-2.057 0-.426.516-.71.613-.337.051.195.159.355.24.355.081 0 .147.225.147.5s.075.5.167.5c.092 0 .167.15.167.333 0 .183.075.333.166.333.092 0 .167.188.167.417 0 .229.075.417.167.417.091 0 .166.15.166.333 0 .183.069.333.152.333.084 0 .203.3.265.666.062.366.181.708.265.76.083.052.152.24.152.418 0 .177.075.323.166.323.092 0 .172.169.179.375.053 1.623 1.821 1.898 1.821.284 0-.179.075-.326.167-.326.092 0 .167-.225.167-.5s.075-.5.166-.5c.092 0 .167-.183.167-.406 0-.224.075-.454.167-.51.091-.057.166-.286.166-.51 0-.224.075-.407.167-.407.092 0 .167-.225.167-.5s.075-.5.166-.5c.092 0 .167-.151.167-.336 0-.184.066-.465.147-.625.269-.533.688-1.952.687-2.331 0-.206.074-.375.166-.375.092 0 .167-.225.167-.5s.075-.5.166-.5c.092 0 .167-.187.167-.416 0-.229.075-.417.167-.417.091 0 .166-.118.166-.262 0-.361.41-.738.804-.738.299 0 .53-.296.53-.68 0-.085-.934-.153-2.095-.153-2.077 0-2.095.003-2.042.375.038.268.183.39.512.427.439.051.71.698.291.698-.091 0-.166.225-.166.5s-.075.5-.167.5c-.092 0-.167.262-.167.583 0 .321-.075.583-.166.583-.092 0-.167.225-.167.5s-.067.5-.148.5c-.082 0-.192.244-.244.542-.412 2.34-.775 3.414-.775 2.292 0-.184-.075-.334-.166-.334-.092 0-.167-.15-.167-.333 0-.183-.075-.333-.167-.333-.091 0-.166-.188-.166-.417 0-.229-.075-.417-.167-.417-.092 0-.167-.15-.167-.333 0-.183-.075-.333-.166-.333-.092 0-.167-.183-.167-.407 0-.224-.075-.453-.167-.51-.091-.057-.166-.249-.166-.427 0-.177-.063-.323-.14-.323-.077 0-.28-.488-.45-1.083-.17-.596-.37-1.084-.443-1.084-.074 0-.136-.131-.139-.291-.025-1.387-1.481-1.091-1.752.356-.063.333-.181.647-.262.697-.081.05-.148.274-.148.498 0 .224-.075.407-.166.407-.092 0-.167.188-.167.417 0 .229-.075.416-.167.416-.091 0-.166.183-.166.407 0 .224-.075.453-.167.51-.092.057-.167.249-.167.427 0 .177-.075.323-.166.323-.092 0-.167.188-.167.417 0 .229-.075.416-.167.416-.091 0-.166.225-.166.5s-.075.5-.167.5c-.092 0-.167.169-.168.375-.001.344-.022.335-.25-.102-.137-.263-.249-.656-.249-.875 0-.219-.075-.398-.166-.398-.092 0-.167-.262-.167-.583 0-.321-.075-.583-.167-.583-.091 0-.166-.225-.166-.5s-.075-.5-.167-.5c-.092 0-.167-.221-.167-.49 0-.27-.075-.537-.166-.594-.092-.056-.167-.323-.167-.593 0-.269-.075-.49-.167-.49-.091 0-.166-.225-.166-.5 0-.389.074-.5.333-.5.244 0 .333-.111.333-.417v-.416h-4.666v.416m23.166 0c0 .308.089.417.339.417.347 0 1.495 1.019 1.495 1.326 0 .094.15.265.333.379.183.115.333.334.333.488 0 .154.057.304.125.335.069.03.275.355.459.722.183.367.464.812.625.99.16.177.291.421.291.541 0 .121.075.219.167.219.092 0 .167.15.167.333 0 .184.075.334.166.334.092 0 .167.15.167.333 0 .183.075.333.167.333.101 0 .166.754.166 1.929 0 2.106-.114 2.405-.915 2.405-.382 0-.433.061-.387.458l.052.458h5.5l.053-.458c.051-.439.022-.458-.685-.458h-.739l-.205-.967c-.304-1.431.059-4.7.521-4.7.076 0 .139-.133.139-.297 0-.163.15-.404.333-.536.183-.132.333-.337.333-.454 0-.117.075-.213.167-.213.092 0 .167-.116.167-.257 0-.141.15-.418.333-.615.183-.197.333-.456.333-.576 0-.12.07-.219.156-.219.085 0 .206-.161.269-.358.169-.532 1.18-1.475 1.582-1.475.373 0 .827-.359.827-.655 0-.118-.761-.178-2.25-.178-2.397 0-2.724.132-1.875.758.251.185.306.303.166.356-.114.044-.208.224-.208.4 0 .175-.075.319-.167.319-.091 0-.166.15-.166.333 0 .184-.064.334-.142.334-.078 0-.281.337-.451.75-.17.412-.369.75-.442.75-.072 0-.132.15-.132.333 0 .183-.075.333-.167.333-.091 0-.166.15-.166.334 0 .183-.075.333-.167.333-.092 0-.167-.15-.167-.333 0-.184-.075-.334-.166-.334-.092 0-.167-.098-.167-.218s-.15-.38-.333-.577c-.184-.196-.334-.426-.334-.51 0-.217-.873-1.767-1.033-1.834-.194-.08-.164-1.027.033-1.027.092 0 .167-.113.167-.25 0-.211-.37-.25-2.333-.25h-2.334v.416m28-.2c0 .347.365.617.834.617.823 0 .833.064.833 5.295 0 5.313-.01 5.372-.916 5.372-.381 0-.432.061-.387.458l.053.458 2.625.046 2.625.046v-.504c0-.461-.048-.504-.557-.504-.762 0-.943-.466-.943-2.425v-1.575h.486c.684 0 1.014.156 1.014.481 0 .153.15.387.333.519.184.132.334.325.334.428 0 .104.225.424.5.712s.5.583.5.656c0 .254 1.632 1.87 1.889 1.87.142 0 .304.075.361.167.064.104 1.751.167 4.51.167h4.406v-.5c0-.456-.049-.5-.556-.5-.775 0-.944-.464-.944-2.592 0-1.923.059-2.022.667-1.122.229.339.81 1.012 1.292 1.495.481.483.875.929.875.991 0 .118 1.002 1.099 1.636 1.603.202.16.479.291.616.291.136 0 .248.078.248.172 0 .111.693.156 1.958.125l1.958-.047.053-.458c.05-.434.016-.458-.625-.458-.373 0-.678-.075-.678-.167 0-.092-.112-.167-.25-.167-.137 0-.25-.062-.25-.138 0-.076-.206-.245-.458-.375-.827-.427-1.38-.971-3.625-3.568-1.197-1.385-1.572-1.751-1.799-1.757-.111-.003-.051-.091.132-.196.184-.104.521-.407.75-.671.788-.909 2.927-2.961 3.086-2.961.052 0 .256-.15.453-.334.224-.209.588-.333.975-.333.58 0 .82-.199.82-.68 0-.202-4.618-.2-4.743.002-.053.085-.02.202.073.26.365.225.13.732-.789 1.695-1.273 1.336-2.041 2.245-2.041 2.417 0 .076-.075.139-.167.139-.248 0-.217-3.383.033-3.633.11-.11.373-.2.584-.2.297 0 .383-.093.383-.417v-.416h-2.667c-2.077 0-2.666.048-2.666.216 0 .337.36.617.795.617.855 0 .871.101.871 5.333 0 3.988-.042 4.9-.238 5.096-.276.275-2.262.338-2.262.071 0-.092-.098-.167-.217-.167-.12 0-.504-.262-.854-.583-.351-.321-.684-.583-.742-.583-.058 0-.208-.232-.333-.515-.126-.284-.482-.769-.791-1.078-.309-.31-.563-.61-.563-.668 0-.058-.232-.322-.515-.587l-.516-.482.682-.655c.376-.361.683-.737.683-.836 0-.098.075-.179.166-.179.092 0 .167-.146.167-.324 0-.178.075-.37.167-.426.091-.057.166-.582.166-1.167 0-.585-.075-1.11-.166-1.167-.092-.056-.167-.218-.167-.359 0-.387-.981-1.224-1.434-1.224-.22 0-.399-.075-.399-.167 0-.106-1.334-.166-3.667-.166-2.897 0-3.667.045-3.667.216m-101.75.784c.057.091.361.166.677.166.315 0 .573.075.573.167 0 .092.08.167.178.167.098 0 .454.262.792.582.337.32.67.582.739.583.068.001.125.151.125.335 0 .183.056.334.125.334.169.002.541.826.541 1.199 0 .165.075.3.167.3.1 0 .167.667.167 1.667s-.067 1.666-.167 1.666c-.092 0-.167.135-.167.3 0 .373-.372 1.197-.541 1.199-.069.001-.125.082-.125.18 0 .822-3.16 1.841-3.584 1.155-.056-.092-.214-.167-.35-.167-.653 0-2.29-1.762-2.554-2.75-.782-2.915.091-6.583 1.565-6.583.141 0 .256-.075.256-.167 0-.092.188-.167.417-.167.229 0 .416-.075.416-.166 0-.092.146-.167.324-.167.178 0 .37.075.426.167m93.084 0c0 .091.172.166.383.166.439 0 1.28.356 1.282.542.001.069.08.125.176.125.192 0 .992.751.992.931 0 .062.139.235.31.383.647.563.935 3.44.541 5.416-.213 1.067-.71 1.667-1.982 2.395-.433.248-2.369.282-2.369.042 0-.092-.15-.167-.333-.167-.184 0-.334-.075-.334-.167 0-.091-.093-.168-.208-.169-.322-.004-1.292-.925-1.292-1.228 0-.148-.056-.269-.126-.269-.069 0-.232-.244-.361-.542-.13-.298-.304-.587-.388-.643-.23-.154-.211-4.37.02-4.447.104-.034.189-.19.189-.345 0-.156.15-.391.333-.523.183-.132.333-.337.333-.454 0-.117.099-.213.219-.213s.379-.15.576-.333c.197-.184.586-.334.865-.334s.507-.075.507-.166c0-.092.15-.167.333-.167.184 0 .334.075.334.167m14 .333c0 .092.116.167.257.167.372 0 1.076.759 1.076 1.159 0 .187.075.341.167.341.091 0 .166.375.166.833 0 .458-.075.833-.166.833-.092 0-.167.15-.167.334 0 .183-.075.333-.167.333-.091 0-.167.094-.168.208-.001.266-.767.625-1.332.625-.762 0-.833-.23-.833-2.7v-2.3h.583c.321 0 .584.075.584.167"/></svg>