<svg xmlns="http://www.w3.org/2000/svg" role="img" viewBox="-19.27 -18.77 976.04 298.54"><title>Common Crawl Foundation logo</title><defs><style>.cls-1{fill:#103}.cls-2{fill:#152a47}</style></defs><g id="Layer_1-2" data-name="Layer 1"><path d="M273.71 62.48c0-9.11 2.28-17.52 6.84-25.23 4.56-7.7 10.69-13.83 18.39-18.39 7.7-4.56 16.11-6.84 25.23-6.84 9.96 0 18.91 2.73 26.85 8.17 7.94 5.45 13.98 12.68 18.11 21.7l-20.15 5.78c-2.54-4.7-5.92-8.43-10.15-11.21-4.23-2.77-9.12-4.2-14.66-4.3-5.54 0-10.55 1.34-15.01 4.02-4.46 2.68-7.96 6.34-10.5 10.99s-3.81 9.75-3.81 15.29 1.27 10.62 3.81 15.22c2.54 4.6 6.04 8.25 10.5 10.92 4.46 2.68 9.47 4.02 15.01 4.02s10.38-1.29 14.52-3.88c4.13-2.58 7.42-6.22 9.87-10.92l20.44 5.5c-4.04 8.93-10.03 16.07-17.97 21.42-7.94 5.36-16.89 8.03-26.85 8.03-9.11 0-17.52-2.25-25.23-6.76-7.71-4.51-13.84-10.62-18.39-18.32-4.56-7.7-6.84-16.11-6.84-25.23zm103.87 0c0-9.11 2.28-17.52 6.84-25.23 4.56-7.7 10.69-13.83 18.39-18.39 7.7-4.56 16.11-6.84 25.23-6.84s17.52 2.28 25.23 6.84c7.7 4.56 13.83 10.69 18.39 18.39 4.56 7.7 6.84 16.12 6.84 25.23s-2.25 17.52-6.76 25.23c-4.51 7.71-10.64 13.81-18.39 18.32s-16.19 6.76-25.3 6.76-17.52-2.25-25.23-6.76c-7.71-4.51-13.84-10.62-18.39-18.32-4.56-7.7-6.84-16.11-6.84-25.23zm21.14 0c0 5.54 1.27 10.66 3.81 15.36 2.54 4.7 6.04 8.41 10.5 11.13 4.46 2.73 9.47 4.09 15.01 4.09s10.55-1.36 15.01-4.09c4.46-2.72 7.96-6.43 10.5-11.13 2.54-4.7 3.81-9.82 3.81-15.36s-1.27-10.66-3.81-15.36c-2.54-4.7-6.04-8.43-10.5-11.21-4.46-2.77-9.47-4.16-15.01-4.16s-10.43 1.39-14.94 4.16c-4.51 2.77-8.03 6.51-10.57 11.21-2.54 4.7-3.81 9.82-3.81 15.36zm91.76 49.19V13.01h20.44l35.09 68.5 34.53-68.5h20.44v98.66h-20.44V53.88l-28.89 57.79h-11.98l-28.75-57.79v57.79h-20.44zm126 0V13.01h20.44l35.09 68.5 34.53-68.5h20.44v98.66h-20.44V53.88l-28.89 57.79h-11.98l-28.75-57.79v57.79h-20.44zm122.47-49.19c0-9.11 2.28-17.52 6.84-25.23 4.56-7.7 10.69-13.83 18.39-18.39 7.7-4.56 16.11-6.84 25.23-6.84s17.52 2.28 25.23 6.84c7.7 4.56 13.83 10.69 18.39 18.39 4.56 7.7 6.84 16.12 6.84 25.23s-2.25 17.52-6.76 25.23c-4.51 7.71-10.64 13.81-18.39 18.32s-16.19 6.76-25.3 6.76-17.53-2.25-25.23-6.76c-7.71-4.51-13.84-10.62-18.39-18.32-4.56-7.7-6.84-16.11-6.84-25.23zm21.14 0c0 5.54 1.27 10.66 3.81 15.36 2.54 4.7 6.04 8.41 10.5 11.13 4.46 2.73 9.46 4.09 15.01 4.09s10.55-1.36 15.01-4.09c4.46-2.72 7.96-6.43 10.5-11.13 2.54-4.7 3.8-9.82 3.8-15.36s-1.27-10.66-3.8-15.36c-2.54-4.7-6.04-8.43-10.5-11.21-4.46-2.77-9.47-4.16-15.01-4.16s-10.43 1.39-14.94 4.16c-4.51 2.77-8.03 6.51-10.57 11.21-2.54 4.7-3.81 9.82-3.81 15.36zm92.18 49.19V13.01h20.72l44.96 66.38V13.01h20.44v98.66h-20.58l-45.1-66.52v66.52h-20.44zM290.2 161.14c9.58-9.77 21.28-14.66 35.09-14.66 10.05 0 19.1 2.84 27.13 8.53 8.03 5.69 13.98 13.18 17.83 22.48l-7.89 2.25c-3.1-7.7-7.94-13.88-14.52-18.53-6.58-4.65-14.09-7.02-22.55-7.12h-.42c-11.65 0-21.4 4.11-29.25 12.33-7.85 8.22-11.77 18.39-11.77 30.51s3.92 21.89 11.77 30.16c7.84 8.27 17.73 12.4 29.67 12.4 8.55 0 16.09-2.3 22.62-6.91 6.53-4.6 11.35-10.76 14.45-18.46l7.75 2.11c-3.57 9.3-9.37 16.8-17.41 22.48-8.03 5.69-17.17 8.53-27.41 8.53-14 0-25.75-4.91-35.24-14.73-9.49-9.82-14.24-21.68-14.24-35.59s4.79-25.93 14.38-35.8zm94.71 85.84v-98.66h41.3c9.11 0 16.32 2.89 21.63 8.67 5.31 5.78 7.96 12.8 7.96 21.07s-2.33 14.42-6.98 19.59-10.5 8.27-17.55 9.3l25.51 40.03h-8.88l-25.23-39.32h-29.88v39.32h-7.89zm39.18-46.37c6.95 0 12.68-2.04 17.19-6.13 4.51-4.09 6.77-9.56 6.77-16.42 0-6.39-1.9-11.72-5.71-16-3.8-4.27-9.19-6.41-16.14-6.41h-33.4v44.96h31.29zm41.86 46.37l41.72-98.66h8.32l41.58 98.66h-8.46l-10.57-25.37h-53.56l-10.71 25.37h-8.31zm69.77-32.56l-23.96-56.52-23.96 56.52h47.92zm17.62-66.1h8.32l22.83 86.82 27.76-86.82h7.89l27.77 86.82 22.97-86.82h8.31l-26.64 98.66h-8.6l-27.62-85.83-27.77 85.83h-8.74l-26.5-98.66z" class="cls-1"/><path d="M0 182.47V79.18c0-7.87 5.24-16.78 12.58-20.97L106.44 0v57.15L51.91 90.18c-5.24 3.15-8.39 8.91-8.39 14.16v57.68c0 5.24 2.62 10.49 6.29 12.58l56.63 33.56v52.96l-97-59.77C4.2 197.68 0 189.81 0 182.47zm122.17 78.65v-52.96l56.63-33.56c3.67-2.1 6.29-7.34 6.29-12.58v-57.68c0-5.24-3.15-11.01-8.39-14.16l-54.53-33.03V0l93.86 58.2c7.34 4.19 12.58 13.11 12.58 20.97v103.29c0 7.34-4.19 15.21-9.44 18.88l-97 59.77z" class="cls-1"/><path d="M700.8 239.94h51.54v7.05h-59.82v-98.68h8.28v91.63z" class="cls-1"/><g><path d="M273.71 62.48c0-9.11 2.28-17.52 6.84-25.23 4.56-7.7 10.69-13.83 18.39-18.39 7.7-4.56 16.11-6.84 25.23-6.84 9.96 0 18.91 2.73 26.85 8.17 7.94 5.45 13.98 12.68 18.11 21.7l-20.15 5.78c-2.54-4.7-5.92-8.43-10.15-11.21-4.23-2.77-9.12-4.2-14.66-4.3-5.54 0-10.55 1.34-15.01 4.02-4.46 2.68-7.96 6.34-10.5 10.99s-3.81 9.75-3.81 15.29 1.27 10.62 3.81 15.22c2.54 4.6 6.04 8.25 10.5 10.92 4.46 2.68 9.47 4.02 15.01 4.02s10.38-1.29 14.52-3.88c4.13-2.58 7.42-6.22 9.87-10.92l20.44 5.5c-4.04 8.93-10.03 16.07-17.97 21.42-7.94 5.36-16.89 8.03-26.85 8.03-9.11 0-17.52-2.25-25.23-6.76-7.71-4.51-13.84-10.62-18.39-18.32-4.56-7.7-6.84-16.11-6.84-25.23zm103.87 0c0-9.11 2.28-17.52 6.84-25.23 4.56-7.7 10.69-13.83 18.39-18.39 7.7-4.56 16.11-6.84 25.23-6.84s17.52 2.28 25.23 6.84c7.7 4.56 13.83 10.69 18.39 18.39 4.56 7.7 6.84 16.12 6.84 25.23s-2.25 17.52-6.76 25.23c-4.51 7.71-10.64 13.81-18.39 18.32s-16.19 6.76-25.3 6.76-17.52-2.25-25.23-6.76c-7.71-4.51-13.84-10.62-18.39-18.32-4.56-7.7-6.84-16.11-6.84-25.23zm21.14 0c0 5.54 1.27 10.66 3.81 15.36 2.54 4.7 6.04 8.41 10.5 11.13 4.46 2.73 9.47 4.09 15.01 4.09s10.55-1.36 15.01-4.09c4.46-2.72 7.96-6.43 10.5-11.13 2.54-4.7 3.81-9.82 3.81-15.36s-1.27-10.66-3.81-15.36c-2.54-4.7-6.04-8.43-10.5-11.21-4.46-2.77-9.47-4.16-15.01-4.16s-10.43 1.39-14.94 4.16c-4.51 2.77-8.03 6.51-10.57 11.21-2.54 4.7-3.81 9.82-3.81 15.36zm91.76 49.19V13.01h20.44l35.09 68.5 34.53-68.5h20.44v98.66h-20.44V53.88l-28.89 57.79h-11.98l-28.75-57.79v57.79h-20.44zm126 0V13.01h20.44l35.09 68.5 34.53-68.5h20.44v98.66h-20.44V53.88l-28.89 57.79h-11.98l-28.75-57.79v57.79h-20.44zm122.47-49.19c0-9.11 2.28-17.52 6.84-25.23 4.56-7.7 10.69-13.83 18.39-18.39 7.7-4.56 16.11-6.84 25.23-6.84s17.52 2.28 25.23 6.84c7.7 4.56 13.83 10.69 18.39 18.39 4.56 7.7 6.84 16.12 6.84 25.23s-2.25 17.52-6.76 25.23c-4.51 7.71-10.64 13.81-18.39 18.32s-16.19 6.76-25.3 6.76-17.53-2.25-25.23-6.76c-7.71-4.51-13.84-10.62-18.39-18.32-4.56-7.7-6.84-16.11-6.84-25.23zm21.14 0c0 5.54 1.27 10.66 3.81 15.36 2.54 4.7 6.04 8.41 10.5 11.13 4.46 2.73 9.46 4.09 15.01 4.09s10.55-1.36 15.01-4.09c4.46-2.72 7.96-6.43 10.5-11.13 2.54-4.7 3.8-9.82 3.8-15.36s-1.27-10.66-3.8-15.36c-2.54-4.7-6.04-8.43-10.5-11.21-4.46-2.77-9.47-4.16-15.01-4.16s-10.43 1.39-14.94 4.16c-4.51 2.77-8.03 6.51-10.57 11.21-2.54 4.7-3.81 9.82-3.81 15.36zm92.18 49.19V13.01h20.72l44.96 66.38V13.01h20.44v98.66h-20.58l-45.1-66.52v66.52h-20.44zM290.2 161.14c9.58-9.77 21.28-14.66 35.09-14.66 10.05 0 19.1 2.84 27.13 8.53 8.03 5.69 13.98 13.18 17.83 22.48l-7.89 2.25c-3.1-7.7-7.94-13.88-14.52-18.53-6.58-4.65-14.09-7.02-22.55-7.12h-.42c-11.65 0-21.4 4.11-29.25 12.33-7.85 8.22-11.77 18.39-11.77 30.51s3.92 21.89 11.77 30.16c7.84 8.27 17.73 12.4 29.67 12.4 8.55 0 16.09-2.3 22.62-6.91 6.53-4.6 11.35-10.76 14.45-18.46l7.75 2.11c-3.57 9.3-9.37 16.8-17.41 22.48-8.03 5.69-17.17 8.53-27.41 8.53-14 0-25.75-4.91-35.24-14.73-9.49-9.82-14.24-21.68-14.24-35.59s4.79-25.93 14.38-35.8zm94.71 85.84v-98.66h41.3c9.11 0 16.32 2.89 21.63 8.67 5.31 5.78 7.96 12.8 7.96 21.07s-2.33 14.42-6.98 19.59-10.5 8.27-17.55 9.3l25.51 40.03h-8.88l-25.23-39.32h-29.88v39.32h-7.89zm39.18-46.37c6.95 0 12.68-2.04 17.19-6.13 4.51-4.09 6.77-9.56 6.77-16.42 0-6.39-1.9-11.72-5.71-16-3.8-4.27-9.19-6.41-16.14-6.41h-33.4v44.96h31.29zm41.86 46.37l41.72-98.66h8.32l41.58 98.66h-8.46l-10.57-25.37h-53.56l-10.71 25.37h-8.31zm69.77-32.56l-23.96-56.52-23.96 56.52h47.92zm17.62-66.1h8.32l22.83 86.82 27.76-86.82h7.89l27.77 86.82 22.97-86.82h8.31l-26.64 98.66h-8.6l-27.62-85.83-27.77 85.83h-8.74l-26.5-98.66z" class="cls-2"/><path d="M0 182.47V79.18c0-7.87 5.24-16.78 12.58-20.97L106.44 0v57.15L51.91 90.18c-5.24 3.15-8.39 8.91-8.39 14.16v57.68c0 5.24 2.62 10.49 6.29 12.58l56.63 33.56v52.96l-97-59.77C4.2 197.68 0 189.81 0 182.47zm122.17 78.65v-52.96l56.63-33.56c3.67-2.1 6.29-7.34 6.29-12.58v-57.68c0-5.24-3.15-11.01-8.39-14.16l-54.53-33.03V0l93.86 58.2c7.34 4.19 12.58 13.11 12.58 20.97v103.29c0 7.34-4.19 15.21-9.44 18.88l-97 59.77z" class="cls-2"/><path d="M700.8 239.94h51.54v7.05h-59.82v-98.68h8.28v91.63z" class="cls-2"/></g></g></svg>