<svg xmlns="http://www.w3.org/2000/svg" role="img" viewBox="-3.38 -3.38 176.02 70.02"><title>CSDN (Beijing) Network Technology Co. Ltd logo</title><path fill="#ff5100" d="M36.32 34.29a2.41 2.41 0 0 0-1.66-.65 2.13 2.13 0 0 0-1.55.71c-3.5 4-9.61 4.45-12.08 4.45-4.57 0-8.07-1.16-10.4-3.44s-3.37-5.37-3.44-9.5c-.18-9.58 5.24-19.49 14.63-19.49 4.48 0 8 3.18 9.25 4.54a2.34 2.34 0 0 0 1.7.75 2.05 2.05 0 0 0 1.63-.73l.36-.43a4.18 4.18 0 0 0 1-3.22 4.64 4.64 0 0 0-1.69-3.08A18.2 18.2 0 0 0 22.27.03 21.3 21.3 0 0 0 6.62 7.32 26.92 26.92 0 0 0 .03 25.99c.1 5.75 2 10.59 5.45 14 3.73 3.65 9.18 5.58 15.78 5.58 7.74 0 12.53-2.29 15.2-4.22a4.1 4.1 0 0 0 1.69-3.21 4.63 4.63 0 0 0-1.47-3.51z"/><path fill="#3d3935" d="M65.13 18.03c-1.76-.6-3.5-1.09-5-1.52-6.5-1.84-7.25-3.53-7.18-4.8.16-2.56 3.64-6 9.55-5.58 4.28.31 7.16 3.59 8.5 5.51a2.4 2.4 0 0 0 1.53 1 2.15 2.15 0 0 0 1.72-.42l.42-.32a4.18 4.18 0 0 0 1.58-3.21 4.66 4.66 0 0 0-1.48-3.44A18.72 18.72 0 0 0 63.19.06a18.49 18.49 0 0 0-12 3.26c-3.22 2.28-5.25 5.45-5.43 8.48-.49 7.48 7.09 9.65 12.65 11.2 1.51.43 3 .9 4.71 1.43 8.05 2.52 8.28 5.06 7.7 8.94s-4.91 5.88-11.89 5.37c-7.26-.54-10.24-4.22-11.37-6.36a2.39 2.39 0 0 0-1.42-1.17 2.18 2.18 0 0 0-1.77.24l-.64.38a4.12 4.12 0 0 0-1.94 3 4.59 4.59 0 0 0 1 3.52c2.48 2.86 7.13 6.48 15.83 7.1 1.06.08 2.06.12 3 .12 12.24 0 15.91-6.17 16.78-11.58.65-4-.15-7.25-2.46-9.85-2.09-2.35-5.54-4.3-10.81-6.11zM116 3.9c-4.22-3-9.82-4.3-16.65-3.75a42.49 42.49 0 0 0-9.42 1.86 3.08 3.08 0 0 0-2.1 2.68l-3.36 36.7a2.38 2.38 0 0 0 1.74 2.47l1 .27a54 54 0 0 0 10.67 1.41h1.51c6.85 0 12.45-1.62 16.65-4.82 5.39-4.12 8.05-10.59 7.89-19.23-.17-7.99-2.83-13.91-7.93-17.59zm.73 17.47c.11 6.47-1.7 11.18-5.4 14-5.9 4.51-14.74 4-18.89 3.4a.9.9 0 0 1-.77-1l2.8-30a.81.81 0 0 1 .61-.71c7.05-1.7 12.54-1.19 16.31 1.54 3.24 2.4 5.23 7.15 5.34 12.77zm49.34-16.28c-2.88-3.22-7.26-4.86-13-4.86a19.45 19.45 0 0 0-13.8 5.64l.13-1.37a1.8 1.8 0 0 0-1.78-1.93h-1.35a4.13 4.13 0 0 0-4.16 3.8l-3 36.45a2.38 2.38 0 0 0 2.34 2.54h2.73a1.6 1.6 0 0 0 1.6-1.45l2-21.7a14.43 14.43 0 0 1 .58-2.91c1.54-4.83 5.43-12.94 14.24-12.94a11.42 11.42 0 0 1 8.25 3.09 6.87 6.87 0 0 1 1.52 4.74l-2.53 29.26a1.78 1.78 0 0 0 .47 1.35 1.83 1.83 0 0 0 1.31.58h2.14a3.12 3.12 0 0 0 3.13-2.86l2.38-27.42a13.74 13.74 0 0 0-3.2-10.01zM42.8 53.45h5v-2.87h1.07v2.87h5v5.86h-1v-.7h-4v4.74h-1.06v-4.79h-4v.7h-1zm1 1v3.25h4v-3.34zm9 0h-4v3.25h4zm8.98-3.13h11.29V63.2h-1v-.59h-9.32v.64h-1zm1 .91v9.48h9.32v-9.48zm1.07 3.88h3.08v-1.75h-3.35v-.85h7.69v.85h-3.36v1.75H71v.86h-3.09v2.55h3.57v.86h-8.09v-.86h3.56v-2.55h-3.08zm4.68 1.71l.75-.59c.28.29.69.75 1.22 1.39l-.8.58a12.05 12.05 0 0 0-1.16-1.38zm12.23-6.23h11.51v1h-2.66v3.73h3.2v1h-3.2v5.8h-1.06v-5.8h-4a5.74 5.74 0 0 1-3.57 6c-.42-.53-.67-.83-.74-.9a5.55 5.55 0 0 0 2.59-1.97 5.42 5.42 0 0 0 .7-3.14h-3.36v-1h3.36V52.6h-2.77zm3.83 1v3.73h4V52.6zm16.32.97h2.77a1.12 1.12 0 0 1 .05-.27c.14-.64.3-1.54.48-2.71l1.12.16c-.11.53-.27 1.33-.48 2.39a3.74 3.74 0 0 1-.11.43h7.14v1h-7.35a5.28 5.28 0 0 1-.27.8 8.09 8.09 0 0 1-.26.79h6.39v.91a8.75 8.75 0 0 1-2.66 3.67 10.33 10.33 0 0 0 4.26 1.39c-.11.18-.32.48-.64.9 0-.07 0 0-.16.16a16.47 16.47 0 0 1-4.32-1.81 25.56 25.56 0 0 1-4.74 1.92 4.46 4.46 0 0 0-.8-.9 17.64 17.64 0 0 0 4.69-1.66 8.58 8.58 0 0 1-2.4-3.56 15.16 15.16 0 0 1-3.78 5.59 4.92 4.92 0 0 0-.69-.85 14.56 14.56 0 0 0 4.26-7.35h-3.57v-1a15.34 15.34 0 0 0 1-2.45l1.07.26c-.11.22-.27.57-.48 1.07a10.3 10.3 0 0 1-.52 1.12zm8.36 3.46h-4.64a6.12 6.12 0 0 0 2.29 3.14 7.11 7.11 0 0 0 2.35-3.14zm-2-5.57l.53-.74a27.38 27.38 0 0 1 2.47 1.74l-.69.85a1 1 0 0 1-.27-.21 18.26 18.26 0 0 0-2.04-1.64zm21.94.09l.85.63a20.38 20.38 0 0 1-2.79 2.61H131v.91h-4.9c-.75.5-1.51 1-2.29 1.38h5.11v6.13h-1v-.75h-6v.75h-1v-4.69l-2.29 1a3.84 3.84 0 0 0-.48-1 31.4 31.4 0 0 0 6.34-2.82h-6v-.91h4.9v-1.59h-3.62v-.91h3.62v-1.6h1v1.6h3.15v.91h-3.15v1.59h1.39a15.59 15.59 0 0 0 3.43-3.24zm-1.28 6.39h-5.75a.37.37 0 0 1-.22 0v1.52h6zm-6 2.29v1.49h6v-1.49zm17.34 2.87h-1V51.38h11v10.07c.07 1-.46 1.56-1.6 1.6h-1.86a3.28 3.28 0 0 0-.21-1h1.75c.68 0 1-.21 1-.75v-9h-9.08v8.05a29 29 0 0 0 1.92-3.25c-.25-.46-.64-1.14-1.17-2-.25-.46-.45-.8-.59-1l.75-.42a3.48 3.48 0 0 1 .26.47c.32.47.73 1.16 1.23 2.08.28-.57.62-1.37 1-2.4a1.08 1.08 0 0 1 .11-.31l.85.31a35 35 0 0 1-1.36 3.3c.11.17.27.46.48.85a17.22 17.22 0 0 1 1 1.7l-.85.48c-.36-.71-.73-1.4-1.12-2.07a19.66 19.66 0 0 1-1.7 2.82l-.81-.46zm4.31-8.57l.75-.43c.21.32.57.91 1.06 1.76.18.28.31.5.38.64a24.48 24.48 0 0 0 1.28-2.88l.9.32c-.64 1.49-1.17 2.66-1.6 3.52.61 1 1.16 2 1.65 2.93l-.85.47-.69-1.22c-.28-.53-.5-.94-.64-1.23a1.85 1.85 0 0 1-.21.32 17.07 17.07 0 0 1-1.49 2.4l-.8-.53a28.66 28.66 0 0 0 1.95-3.14c-.62-1-1.18-2-1.72-2.93zm14.48 3.78l2.56-.27v.11a2.31 2.31 0 0 0-.11.8c-1.28.1-2.45.23-3.52.37l-.26-.91a4.19 4.19 0 0 0 .8-.79c.14-.22.41-.61.8-1.18l.42-.58a19.52 19.52 0 0 0-2 .1l-.32-.9a3.16 3.16 0 0 0 .74-.85 30 30 0 0 0 2-3.68l1 .43c-.25.39-.32.51-.21.37q-1.71 2.77-2.35 3.73H159.27c.1-.22.28-.54.53-1s.3-.5.37-.64l.91.42q-1.59 2.5-3.02 4.47zm-1.65 3q2.3-.27 4.47-.69c0 .32-.05.65-.05 1-1.35.14-2.73.34-4.15.59zm4.37-6.5a15 15 0 0 0 2.71-4.2l1 .21c-.21.43-.42.83-.64 1.22h4.53v.91a9.93 9.93 0 0 1-2.5 3 9.41 9.41 0 0 0 3.46 1.23c-.07.14-.27.48-.59 1a11.9 11.9 0 0 1-3.67-1.65 17.94 17.94 0 0 1-3.93 1.93c-.18-.28-.39-.58-.64-.9a17.69 17.69 0 0 0 3.78-1.6 10.15 10.15 0 0 1-1.6-2c-.39.53-.8 1-1.22 1.55a3.28 3.28 0 0 0-.69-.72zm1.06 3.57h6.43v4.9h-1v-.69h-4.42v.69h-1zm1 .91v2.45h4.43v-2.47zm4.43-6.41h-3.94a.21.21 0 0 1-.05.11 9.79 9.79 0 0 0 1.81 2.29 9 9 0 0 0 2.18-2.4z"/></svg>