<svg xmlns="http://www.w3.org/2000/svg" role="img" viewBox="-1.92 -1.92 99.71 94.71"><title>D3 (Data-Driven Documents) logo</title><clipPath id="a"><path d="M0,0h7.75a45.5,45.5 0 1 1 0,91h-7.75v-20h7.75a25.5,25.5 0 1 0 0,-51h-7.75zm36.2510,0h32a27.75,27.75 0 0 1 21.331,45.5a27.75,27.75 0 0 1 -21.331,45.5h-32a53.6895,53.6895 0 0 0 18.7464,-20h13.2526a7.75,7.75 0 1 0 0,-15.5h-7.75a53.6895,53.6895 0 0 0 0,-20h7.75a7.75,7.75 0 1 0 0,-15.5h-13.2526a53.6895,53.6895 0 0 0 -18.7464,-20z"/></clipPath><linearGradient id="b" x1="7" x2="50" y1="64" y2="107" gradientUnits="userSpaceOnUse"><stop offset="0" stop-color="#f9a03c"/><stop offset="1" stop-color="#f7974e"/></linearGradient><linearGradient id="d" x1="2" x2="87" y1="-2" y2="84" gradientUnits="userSpaceOnUse"><stop offset="0" stop-color="#f26d58"/><stop offset="1" stop-color="#f9a03c"/></linearGradient><linearGradient id="c" x1="45" x2="108" y1="-10" y2="53" gradientUnits="userSpaceOnUse"><stop offset="0" stop-color="#b84e51"/><stop offset="1" stop-color="#f68e48"/></linearGradient><g clip-path="url(#a)"><path fill="url(#b)" d="M-100,-102m-27,0v300h300z"/><path fill="url(#c)" d="M-100,-102m27,0h300v300z"/><path fill="none" stroke="url(#d)" stroke-width="40" d="M-100,-102l300,300"/></g></svg>