<svg xmlns="http://www.w3.org/2000/svg" role="img" viewBox="-1.00 -3.75 441.74 220.74"><title>dash logo</title><defs><style>.cls-2{fill:#516884}</style></defs><path fill="#119cfe" d="M75.578 140.833H15.02c-5.155 0-7.296-2.159-7.296-7.354q-.002-60.667 0-121.334c0-5.199 2.14-7.358 7.291-7.359q60.816-.002 121.63 0c4.976.001 7.168 2.212 7.168 7.225q.002 60.796 0 121.592c0 5.016-2.191 7.228-7.163 7.23q-30.536.003-61.072 0zm-5.995-55.665l-.002-23.942c-.004-4.33-2.313-6.945-6.129-6.968-3.84-.022-6.237 2.595-6.239 6.857q-.01 24.071 0 48.143c.002 4.25 2.415 6.869 6.257 6.839 3.725-.03 6.103-2.627 6.109-6.729q.018-12.1.004-24.2zm49.487.149c0-8.153.012-16.305-.005-24.458-.008-4.048-2.466-6.622-6.235-6.6-3.734.02-6.125 2.613-6.128 6.708q-.014 24.2 0 48.4c.002 4.102 2.383 6.7 6.108 6.73 3.842.03 6.252-2.588 6.257-6.838q.015-11.971.003-23.942zM44.84 97.584c0-4.118.031-8.236-.01-12.353a5.95 5.95 0 0 0-6.074-6.238 5.959 5.959 0 0 0-6.28 6.29q-.05 12.224-.002 24.448c.013 3.84 2.53 6.377 6.204 6.367 3.657-.01 6.129-2.56 6.156-6.418.028-4.032.006-8.064.006-12.096zm49.488-.086c0-4.032.022-8.064-.007-12.095-.027-3.854-2.505-6.404-6.163-6.41-3.67-.007-6.183 2.533-6.196 6.375q-.042 12.224.001 24.45a6.178 6.178 0 1 0 12.355.033c.04-4.117.01-8.235.01-12.353zM44.843 35.87a5.926 5.926 0 0 0-5.962-6.349 5.932 5.932 0 0 0-6.415 5.893 5.93 5.93 0 0 0 6.088 6.478 5.924 5.924 0 0 0 6.289-6.022zm18.483 6.022a5.913 5.913 0 0 0 6.26-6.05 6.19 6.19 0 1 0-12.377-.142 5.918 5.918 0 0 0 6.117 6.192zm31.004-6.01a6.193 6.193 0 0 0-12.376-.48 6.193 6.193 0 1 0 12.376.48zm24.744-.029a6.192 6.192 0 0 0-12.377-.422 6.192 6.192 0 1 0 12.377.422zM38.517 66.627a6.189 6.189 0 0 0 .4-12.37 6.189 6.189 0 1 0-.4 12.37zm49.425 0a6.19 6.19 0 1 0-5.989-6.32 5.93 5.93 0 0 0 5.989 6.32z"/><path d="M180.93 100.613c0 3.256.032 6.257-.007 9.257a6.18 6.18 0 1 1-12.357-.078q-.03-30.767-.003-61.535a6.17 6.17 0 0 1 11.076-3.992c.86 1.106 1.38.977 2.434.422 16.194-8.513 34.643 2.89 35.868 21.485.391 5.94.822 12.021-.663 17.94-4.088 16.287-20.992 24.473-35.304 16.792a6.604 6.604 0 0 0-1.043-.291zm24.663-27.626c0-2.058.11-4.123-.02-6.173-.44-6.895-5.756-12.363-12.03-12.476-6.325-.114-11.937 5.1-12.453 11.997a91.48 91.48 0 0 0-.01 12.853c.434 6.544 5.648 11.787 11.594 12.092 6.02.308 11.155-4.024 12.629-10.606.57-2.548.26-5.125.29-7.687z" class="cls-2"/><path fill="#516885" d="M304.632 72.989c.265 5.535-.01 10.963-2.504 16.084-4.97 10.207-14.748 15.906-25.173 14.579a24.741 24.741 0 0 1-21.11-20.41c-1.323-8.768-2.121-17.826 1.71-26.33 4.713-10.462 14.55-16.183 25.172-14.958 10.45 1.204 19.262 9.805 21.453 20.78.683 3.418.322 6.84.452 10.255zm-12.502-.05h.069c0-1.972.099-3.95-.018-5.915-.41-6.862-5.426-12.32-11.567-12.683-6.252-.37-11.81 4.318-12.799 11.285a51.481 51.481 0 0 0-.001 14.366c.951 6.764 6.21 11.376 12.283 11.288 6.007-.087 11.144-4.979 11.99-11.662a53.597 53.597 0 0 0 .043-6.679zm115.614 2.25c3.115-7.249 5.951-13.84 8.78-20.436 1.25-2.914 2.452-5.85 3.736-8.748 1.599-3.608 5.116-5.116 8.424-3.677 3.361 1.463 4.681 4.946 3.112 8.62-7.194 16.855-14.262 33.765-21.715 50.505-4.166 9.356-11.776 14.257-22.088 14.617a6.127 6.127 0 0 1-6.396-6.019 6.284 6.284 0 0 1 5.824-6.362c7.033-.725 11.568-4.826 13.172-11.807a4.074 4.074 0 0 0-.603-2.68q-7.82-18.31-15.684-36.603c-.27-.63-.564-1.25-.806-1.89-1.345-3.561-.004-7.005 3.252-8.39a6.164 6.164 0 0 1 8.272 3.51c3.773 8.632 7.445 17.307 11.165 25.961.398.926.838 1.834 1.555 3.399z"/><path d="M317.02 58.356q0-11.076.003-22.152c.008-4.085 2.413-6.674 6.159-6.683 3.763-.01 6.178 2.569 6.212 6.633.048 5.734.048 5.734 5.68 5.734 2.32 0 4.64-.051 6.957.014a6.176 6.176 0 0 1 .066 12.337q-5.408.122-10.821-.009c-1.413-.034-1.931.316-1.916 1.835.077 7.469-.065 14.94.068 22.408.134 7.476 4.821 12.237 12.34 12.85 3.939.32 6.268 2.747 6.183 6.44-.082 3.593-2.685 5.94-6.62 5.968-13.001.094-24.27-11.018-24.308-23.996-.021-7.126-.004-14.253-.004-21.38zm-74.23 8.388l-.002 30.128c-.003 4.263-2.399 6.88-6.24 6.858-3.816-.022-6.13-2.637-6.13-6.966q-.007-30.129 0-60.257c0-4.352 2.29-6.957 6.111-6.986 3.93-.03 6.266 2.625 6.263 7.095q-.007 15.064-.001 30.128zm117.531-.384q0-15.064.004-30.128c.005-4.097 2.392-6.69 6.127-6.711 3.777-.023 6.243 2.568 6.244 6.597q.006 30.644-.008 61.287a6.132 6.132 0 0 1-4.711 6.243 6.411 6.411 0 0 1-7.007-3.15 7.08 7.08 0 0 1-.659-3.495q.026-15.321.01-30.643z" class="cls-2"/><path fill="#fefefe" d="M69.583 85.168q0 12.1-.004 24.2c-.006 4.102-2.384 6.7-6.109 6.729-3.842.03-6.255-2.589-6.257-6.84q-.01-24.07 0-48.142c.002-4.262 2.4-6.88 6.239-6.857 3.816.023 6.125 2.637 6.129 6.968q.01 11.971.002 23.942zm49.487.149q0 11.97-.003 23.942c-.005 4.25-2.415 6.868-6.257 6.838-3.725-.03-6.106-2.628-6.108-6.73q-.013-24.2 0-48.4c.003-4.095 2.394-6.687 6.128-6.709 3.769-.021 6.227 2.553 6.235 6.601.017 8.153.005 16.305.005 24.458z"/><path fill="#fdfdfd" d="M44.84 97.584c0 4.032.022 8.064-.006 12.096-.027 3.858-2.499 6.409-6.156 6.418-3.673.01-6.19-2.527-6.204-6.367q-.042-12.224.002-24.449a5.959 5.959 0 0 1 6.28-6.29 5.95 5.95 0 0 1 6.075 6.239c.04 4.117.009 8.235.01 12.353zm49.488-.086c0 4.118.03 8.236-.01 12.353a6.178 6.178 0 1 1-12.355-.034q-.05-12.224-.001-24.449c.013-3.842 2.525-6.382 6.196-6.375 3.658.006 6.136 2.556 6.163 6.41.03 4.031.007 8.063.007 12.095z"/><path fill="#24fbfc" d="M44.843 35.87a5.924 5.924 0 0 1-6.29 6.02 5.93 5.93 0 0 1-6.087-6.477 5.932 5.932 0 0 1 6.415-5.893 5.926 5.926 0 0 1 5.962 6.35zm18.483 6.02a5.918 5.918 0 0 1-6.117-6.191 6.19 6.19 0 1 1 12.378.142 5.913 5.913 0 0 1-6.261 6.05zm31.004-6.01a6.193 6.193 0 1 1-12.376-.478 6.193 6.193 0 0 1 12.376.478zm24.744-.028a6.192 6.192 0 1 1-12.377-.422 6.192 6.192 0 0 1 12.377.422zM38.517 66.627a6.189 6.189 0 1 1 .4-12.37 6.189 6.189 0 0 1-.4 12.37zm49.425 0a6.19 6.19 0 1 1 6.387-5.922 5.922 5.922 0 0 1-6.387 5.922z"/><path d="M175.052 163.679a14.777 14.777 0 0 1 7.621 5.674 19.896 19.896 0 0 1 3.188 7.221 34.543 34.543 0 0 1 .851 7.404q0 8.92-3.584 15.11-4.857 8.344-15 8.344h-19.282v-44.724h19.282a23.545 23.545 0 0 1 6.924.97zm-17.134 6.797v29.188h8.63q6.626 0 9.239-6.523a22.975 22.975 0 0 0 1.428-8.527q0-6.826-2.142-10.482-2.143-3.656-8.524-3.656zm48.205 16.839a13.695 13.695 0 0 0 3.453-.758 2.603 2.603 0 0 0 1.865-2.458 2.907 2.907 0 0 0-1.43-2.807 9.04 9.04 0 0 0-4.199-.773q-3.105 0-4.397 1.516a6.261 6.261 0 0 0-1.23 3.034h-8.345a12.649 12.649 0 0 1 2.438-7.13q3.444-4.37 11.823-4.369a21.075 21.075 0 0 1 9.69 2.155q4.237 2.154 4.237 8.131v15.171q0 1.578.06 3.823a4.805 4.805 0 0 0 .516 2.306 3.1 3.1 0 0 0 1.274 1.001v1.275h-9.406a9.61 9.61 0 0 1-.546-1.881q-.152-.88-.243-2.003a17.842 17.842 0 0 1-4.15 3.307 12.551 12.551 0 0 1-6.348 1.608 10.953 10.953 0 0 1-7.462-2.564 9.115 9.115 0 0 1-2.945-7.266q0-6.1 4.737-8.83a21.181 21.181 0 0 1 7.643-2.124zm5.287 4.036a9.563 9.563 0 0 1-1.676.834 14.092 14.092 0 0 1-2.322.591l-1.97.365a12.943 12.943 0 0 0-3.974 1.183 3.949 3.949 0 0 0-2.043 3.671 3.836 3.836 0 0 0 1.248 3.201 4.74 4.74 0 0 0 3.034.987 9.036 9.036 0 0 0 5.223-1.639q2.388-1.638 2.48-5.978zm22.88 5.522a5.755 5.755 0 0 0 1.188 3.276q1.615 1.73 5.975 1.73a9.145 9.145 0 0 0 4.07-.759 2.54 2.54 0 0 0 .293-4.49q-1.215-.757-9.045-2.61-5.639-1.394-7.944-3.489a7.564 7.564 0 0 1-2.305-5.947 10.306 10.306 0 0 1 3.602-7.873q3.604-3.293 10.142-3.293a18.634 18.634 0 0 1 10.109 2.474q3.907 2.472 4.485 8.54h-8.647a5.104 5.104 0 0 0-.942-2.639q-1.432-1.76-4.87-1.76a7.004 7.004 0 0 0-4.03.88 2.53 2.53 0 0 0-1.202 2.064 2.255 2.255 0 0 0 1.278 2.153q1.278.699 9.029 2.397a16.57 16.57 0 0 1 7.747 3.672 8.336 8.336 0 0 1 2.548 6.22 10.042 10.042 0 0 1-3.664 8.025q-3.663 3.11-11.325 3.11-7.813 0-11.538-3.292a10.7 10.7 0 0 1-3.723-8.389zm51.621-22.331a9.713 9.713 0 0 1 4.094 3.249 8.666 8.666 0 0 1 1.661 3.813 47.011 47.011 0 0 1 .303 6.391v19.437h-8.83v-20.14a8.931 8.931 0 0 0-.903-4.313q-1.174-2.308-4.458-2.31a6.115 6.115 0 0 0-5.166 2.295 10.56 10.56 0 0 0-1.761 6.546v17.922h-8.648v-44.573h8.648v15.779a10.57 10.57 0 0 1 4.336-4.02 12.2 12.2 0 0 1 5.18-1.139 14.004 14.004 0 0 1 5.544 1.063z"/></svg>