<svg xmlns="http://www.w3.org/2000/svg" role="img" xmlns:xlink="http://www.w3.org/1999/xlink" viewBox="36.33 22.83 476.84 201.84"><title>Dask logo</title><defs><linearGradient id="b" x1="154.55" x2="242.36" y1="173.33" y2="173.33" gradientTransform="rotate(7.91 519.902 -229.38)" gradientUnits="userSpaceOnUse"><stop offset=".01" stop-color="#c7422f"/><stop offset=".37" stop-color="#d46e43"/><stop offset="1" stop-color="#eeb575"/></linearGradient><linearGradient id="a" x1="181.83" x2="221.39" y1="171.07" y2="171.07" gradientTransform="rotate(7.91 519.902 -229.38)" gradientUnits="userSpaceOnUse"><stop offset=".21" stop-color="#cf603b"/><stop offset="1" stop-color="#eeb575"/></linearGradient><linearGradient id="c" x1="107.2" x2="204.37" y1="175.53" y2="175.53" xlink:href="#a"/></defs><path fill="#101011" d="M214.33 85.8h36.1c24.73.28 30.29 21.36 30.29 40 0 39.54-20.35 39.14-30.29 39.14h-36.1V85.8zm34.74 64.52c12.94 0 15.6-11.66 15.6-24.55 0-18.13-6.31-25.38-15.6-25.38h-18.7v49.93h18.7zm62.63-64.24h18.46l27.18 78.84h-17L333.87 147h-27.56l-6.92 17.88h-17zm18.18 47.34l-9.09-26.87-10 26.87h19zm34.83-26.84c0-11.68 4.7-20.91 20.54-20.91 7.19 0 27.91 1.13 38.24 3v11.76s-21.49-.8-35.82-.8c-5.45 0-6.91 3.45-6.91 7.19v5.89c0 6.07 2.67 6.19 6.91 6.19h20.61c14 0 18.95 8.92 18.95 20v7.75c0 15.95-9.55 19.64-18.95 19.64-6.58 0-35.16-.8-40.53-3.24v-11.47s23.47.61 37.14.61c4.9 0 6.29-5.82 6.29-5.82v-7c0-4-1.56-5.91-6.29-5.91h-20.13c-14.5 0-20.05-6.54-20.05-19.81v-7.1zm74.14-20.5h15.56v33.19h8.64l22.75-33.19h18.67l-27.35 40.11 27.35 38.87h-18.66l-23-31.67h-8.37v31.67h-15.59v-79z"/><path fill="url(#b)" d="M192.41 110.26q.17-1.83.29-3.66a119.55 119.55 0 0 0-12.24-60.92L173.64 32l-3.16 15a109 109 0 0 1-64.2 77.79l-4.69 2 1.78 4.78a107.9 107.9 0 0 1 6.31 48.3 109.44 109.44 0 0 1-5.68 25.88L100.36 216l10.28-3.38a119.71 119.71 0 0 0 81.77-102.36zM122.68 196l-5.48 2.79 1.2-6a120.35 120.35 0 0 0 1.75-12 118.87 118.87 0 0 0-4.52-45.89l-.73-2.41 2.25-1.12a120.24 120.24 0 0 0 56.25-59.15l3.51-8L179 72.7a107.63 107.63 0 0 1 2.69 36.54A108.48 108.48 0 0 1 122.68 196z"/><path fill="url(#a)" d="M166.91 116.14c4.13-9.12 8.42-31.77 8.15-33.46A126 126 0 0 1 160 105.07c-.85 2.24-1.74 4.47-2.74 6.67a108.87 108.87 0 0 1-31.62 40.47q.85 6.14 1.07 12.36a119.4 119.4 0 0 0 40.2-48.43z"/><path fill="url(#c)" d="M104.08 165.48a109 109 0 0 1-30.87 9.17l-6.08.86 3.08-5.31a120.74 120.74 0 0 0 5.54-10.74 118.79 118.79 0 0 0 10.62-44.87l.09-2.51 2.49-.33a120.18 120.18 0 0 0 54-21.47 102.79 102.79 0 0 0 18.62-33.38 109 109 0 0 1-80.84 45l-5.08.35.13 5.1a107.92 107.92 0 0 1-9.72 47.73 109.43 109.43 0 0 1-13.83 22.67l-6.71 8.49 10.82.14a119.25 119.25 0 0 0 47.52-9.26 104.21 104.21 0 0 0 .22-11.64z"/></svg>