<svg xmlns="http://www.w3.org/2000/svg" role="img" viewBox="-17.90 -18.90 1034.80 611.80"><title>Datashim logo</title><style>svg {enable-background:new 0 0 1000 575}</style><path fill="#1a65d3" d="M295.7 1.43l-11.99 6.79 105.2 185.58h15.85zm238.82 449.24l11.99-6.79-33.06-58.33H497.6zm-69.04-326.34l-11.99 6.79 35.53 62.68h15.85zM704.3 573.57l11.99-6.79-102.73-181.23h-15.85z"/><path fill="#0b386d" d="M103.08 252.38c-9.02-13.08-23-24.8-44.64-24.8-27.95 0-55.68 22.54-55.68 60.64v.45c0 38.32 27.73 60.41 55.68 60.41 21.42 0 35.17-11.95 44.64-25.92v23.45h17.35V182.04h-17.35v70.34zm.67 36.06c0 26.83-20.51 45.08-42.16 45.08-22.09 0-41.02-17.58-41.02-45.08v-.45c0-28.18 18.48-44.86 41.02-44.86 21.64 0 42.16 18.03 42.16 44.86v.45zm99.39-59.96c-16.91 0-29.53 3.83-42.38 9.7l5.18 14.2c10.82-4.96 21.64-8.57 35.4-8.57 21.87 0 34.71 10.82 34.71 31.79v4.06c-10.37-2.93-20.96-4.96-35.84-4.96-29.53 0-49.82 13.08-49.82 37.65v.45c0 23.89 21.87 36.29 43.51 36.29 20.51 0 34.04-9.47 42.16-20.06v17.58h16.69v-71.23c0-14.88-4.06-26.15-11.95-34.04-8.57-8.58-21.2-12.86-37.66-12.86zm33.14 75.29c0 18.49-17.58 31.56-39 31.56-15.78 0-29.31-8.56-29.31-23.22v-.45c0-14.65 12.17-24.12 34.04-24.12 14.2 0 25.7 2.48 34.27 4.96v11.27zm58.37 11.95c0 23.67 14.2 32.91 32.91 32.91 8.34 0 14.88-1.8 20.96-4.96V328.8c-6.09 2.93-11.05 4.06-16.91 4.06-11.73 0-19.61-5.18-19.61-19.39v-68.08h36.97v-15.33H312v-35.17h-17.36v35.17h-16.23v15.33h16.23v70.33zm166.58-74.39c-8.56-8.56-21.19-12.85-37.65-12.85-16.91 0-29.53 3.83-42.38 9.7l5.18 14.2c10.82-4.96 21.64-8.57 35.4-8.57 21.87 0 34.71 10.82 34.71 31.79v4.06c-10.37-2.93-20.96-4.96-35.84-4.96-29.53 0-49.82 13.08-49.82 37.65v.45c0 23.89 21.87 36.29 43.51 36.29 20.51 0 34.04-9.47 42.16-20.06v17.58h16.69v-71.23c-.01-14.89-4.06-26.16-11.96-34.05zm-43.5 94c-15.78 0-29.31-8.56-29.31-23.22v-.45c0-14.65 12.17-24.12 34.04-24.12 14.2 0 25.7 2.48 34.27 4.96v11.27c0 18.49-17.59 31.56-39 31.56zm172.43-21.86c0-20.97-19.38-27.95-37.42-33.37-15.55-4.73-29.98-9.01-29.98-20.06v-.45c0-9.7 8.79-16.91 22.54-16.91 11.27 0 23.67 4.28 34.49 11.27l7.89-13.08c-11.95-7.89-27.73-12.85-41.93-12.85-22.99 0-39.67 13.3-39.67 33.36v.45c0 21.42 20.29 27.73 38.55 32.91 15.33 4.28 29.08 8.79 29.08 20.51v.45c0 11.27-10.15 18.49-24.12 18.49-13.75 0-27.73-5.41-40.35-14.88l-8.79 12.4c13.08 10.59 31.56 17.13 48.24 17.13 23.22 0 41.48-12.85 41.48-34.94v-.43zm89.48-85.89c-4.52 0-8.58.58-12.34 1.52-12.92 3.24-21.62 11.46-27.56 21.25v-68.32h-17.36V346.6h17.36v-66.73c0-19.09 11.34-32.67 27.56-35.82 2.36-.46 4.83-.7 7.38-.7 20.51 0 32.23 13.53 32.23 35.17v68.08h17.36v-72.36c.01-27.73-16.45-46.66-44.63-46.66zm82.04-42.16h19.84v19.16h-19.84zm1.13 44.64h17.36v116.55h-17.36zm191.15-2.48c-20.29 0-32.68 10.37-41.02 23.22-6.32-13.08-18.49-23.22-37.42-23.22-19.61 0-29.98 10.59-37.64 22.09v-19.61h-17.36V346.6h17.36v-66.5c0-21.41 13.97-36.74 32.46-36.74s29.98 12.85 29.98 34.71v68.53h17.13v-67.18c0-22.99 14.65-36.07 32.23-36.07 18.94 0 30.21 12.62 30.21 35.17v68.08h17.36v-72.14c-.01-28.85-16.46-46.88-43.29-46.88z"/></svg>