<svg xmlns="http://www.w3.org/2000/svg" role="img" viewBox="1.78 -3.22 583.44 298.94"><title>data.world (hosting) logo</title><defs><style>.cls-2{fill:#5a6877}.cls-3{fill:#add4e6}.cls-6{fill:#76a5d1}.cls-18{fill:#fefefe}.cls-25{fill:#6c97c8}.cls-28{fill:#4d5057}</style></defs><path fill="#efcda4" d="M298.44749 161.92811a2.0895 2.0895 0 0 0 1.94737-.84685q.8301-.00307 1.65709-.00695a18.83257 18.83257 0 0 1 3.10013 2.71516c1.13131 1.52153 1.612 4.53161.22091 4.762-1.793.2969-3.08259 4.57665-5.71556.9282-1.43167-1.98387-4.74686-2.45262-4.93094-5.65792l-.05408.03011 1.89994-.96218c.51736-.53045.78513-1.5474 1.87514-.96157z"/><path d="M359.4299 224.81784c.27673-2.95484-.60962-4.16046-3.81751-4.03784-6.23987.23858-12.4953.07666-18.74426.067-1.90289-.00293-4.34454-.17181-3.52332 2.678.75354 2.61487-2.98761 6.99256 2.74683 7.7641 2.73547.368 4.06873 2.0304 3.48016 4.5127-2.03753 8.59393-4.33349 17.12658-6.53112 25.68261-3.96662-10.428-6.959-20.74865-10.02857-31.04638-3.5556-11.92859-.3327-9.17615-12.87689-9.62006-2.37805-.08417-3.57172.5495-4.25568 3.07214-2.81573 10.38611-5.839 20.718-8.94531 31.02167-.66925 2.21985-.66058 4.83112-2.67938 6.71649-2.4267-9.16192-4.79169-18.05175-7.12811-26.949-.40448-1.54022-1.57892-3.26349 1.60839-3.47986 5.74659-.39 2.28937-4.90674 2.94684-7.4903.81592-3.20666-1.79382-2.86181-3.81622-2.86041-6.71765.0047-13.43573-.03662-20.15271.03082-1.38995.01392-3.74036-.70715-3.56036 1.689.21588 2.87341-2.084 7.10309 1.439 8.36517 3.5459 1.27033 4.46649 3.52637 5.28839 6.34461 4.14807 14.22363 8.30145 28.44653 12.28168 42.71747.757 2.71392 1.88067 3.7005 4.80426 3.70129 11.33191.00287 11.22088.08881 14.40472-10.90753 2.79639-9.65814 5.87885-19.23352 9.20618-30.05274.91132 2.738 1.47278 4.26911 1.93207 5.83039 2.50915 8.52917 4.96551 17.074 7.49347 25.59753 2.80822 9.46912 2.83856 9.27264 12.53186 9.54639 3.74212.10571 5.42108-.86914 6.45434-4.66236 3.81147-13.99261 8.033-27.8739 12.13636-41.78637.61181-2.07434.98284-5.04474 3.28112-5.30378 5.17367-.58313 3.74187-4.13044 4.02377-7.14075zm213.46728 49.12451c-6.50519-.45892-5.67352-4.38678-5.67267-8.43195.00415-19.81366-.04028-39.6275.03376-59.44091.01519-4.04724-.90747-6.60749-5.74085-6.358a141.42329 141.42329 0 0 1-15.90857-.01978c-3.85577-.23614-4.47168 1.52472-4.19031 4.71332.24537 2.77875-1.00909 6.29992 4.10852 5.66437 1.50416-.18677 4.109-1.16108 4.1327 2.07794.03558 4.87024.00927 9.74084.00927 15.34778-9.238-8.69892-18.8623-9.63355-29.19275-4.85334-6.42279 2.972-10.60656 8.23114-12.99261 14.71369a43.82931 43.82931 0 0 0 .04584 31.5921c6.43658 16.71753 26.36822 20.66907 41.99273 8.28931 1.498 2.46283.67658 6.35473 4.77387 6.36248 5.77368.01093 11.54754-.018 17.32086.0279 1.66132.01318 2.91229-.45294 2.587-2.32129-.44613-2.56223 1.52897-7.16349-1.30679-7.36362zm-27.17047-2.27954c-10.94891 5.61829-20.41351.91717-22.51166-11.14539a43.49118 43.49118 0 0 1 .12592-16.22808c2.64911-13.12488 14.69244-14.87348 24.929-10.30683 1.72248.76843 1.38947 2.23865 1.39631 3.58966.02429 4.82514.00958 9.65051.00866 14.47583-.00091 4.35828-.23327 8.7331.07386 13.06964.23878 3.37171-1.28906 5.1427-4.02209 6.54517zm-464.64954 2.0224c-5.212.06488-5.24963-3.01538-5.23919-6.74921q.08478-30.43285.009-60.866c-.0105-5.54632-.76764-6.25775-6.15564-6.28961-5.15112-.03051-10.31836.23932-15.44873-.08813-3.88415-.24793-4.43909 1.57489-4.17108 4.73248.23633 2.785-.97571 6.42322 4.11346 5.56555 3.20728-.54046 4.44849.68323 4.21277 4.05957-.29065 4.16388-.06946 8.36353-.06946 13.389-14.73394-14.40216-37.84314-6.8808-43.13543 12.537a48.38627 48.38627 0 0 0-.29077 24.96875c3.27011 12.98932 13.73336 20.63339 26.9149 19.54889 6.21326-.51123 11.51209-3.19684 16.71692-7.59149.18122 6.4981 3.96784 7.12634 8.69361 6.76745a56.35632 56.35632 0 0 1 10.757.03009c4.40326.51569 5.6753-1.37353 4.90607-5.25055-.33497-1.688 1.48321-4.80475-1.81343-4.76379zm-26.66265-2.06177c-10.6789 5.60315-20.17426 1.27556-22.57652-10.57464a38.1947 38.1947 0 0 1 .26135-17.59516c3.57465-13.34692 15.69531-13.41711 24.73084-9.48681 1.74469.75885 1.48687 2.16314 1.49188 3.526.01776 4.82739.0069 9.65484.00586 14.48236-.0011 4.36023-.25238 8.7398.0794 13.0747.25967 3.39216-1.27742 5.14881-3.99281 6.57355zm186.97948 1.706c-2.45026.07232-2.93177-2.30579-2.91284-4.527.04522-5.30585.01458-10.61231.01458-15.91852l-.05127-.00006c0-4.9939.12226-9.9914-.02636-14.9809-.27771-9.32226-4.68171-14.89343-13.80243-16.89105a61.12 61.12 0 0 0-29.64124 1.12769c-8.9953 2.48425-7.0625 1.71063-7.15112 9.23358-.02228 1.89135-1.12085 4.76318.9779 5.50689 2.6366.93427 5.82947 1.25458 8.47864-.7973a21.094 21.094 0 0 1 10.24719-4.24365c9.38037-1.293 13.4704 2.36127 13.50513 11.69519.01172 3.15344-.8576 4.14874-3.98 3.47424a43.90591 43.90591 0 0 0-18.586.32727c-9.88275 2.10816-15.42657 9.56311-14.78052 19.71228.60828 9.55585 6.91858 16.022 16.76294 16.973 7.23041.69843 14.04566-.3045 19.5423-5.66992 1.07776-1.05212 1.74274-1.41845 2.79993.23419 4.58716 7.171 11.43255 6.347 18.39941 4.943 2.9801-.60059 4.04694-2.33179 3.76709-5.34577-.22733-2.4476.53488-4.97414-3.56333-4.85316zm-20.43543-10.21436c.0011 8.329-7.07837 13.12506-15.011 10.07629-4.27906-1.64459-5.52778-5.13635-5.2956-9.413.23664-4.35986 2.70557-6.91968 6.74085-7.845 3.668-.84107 7.44146-.37378 11.17639-.18555 1.80212.09082 2.43829 1.01929 2.39441 2.69489-.04074 1.55646-.0087 3.11487-.0051 4.67237zm-77.43938 10.30371c-3.09955-.13946-3.3316-2.69348-3.32886-5.19171.01105-9.99817.11206-19.99878-.06713-29.994-.17487-9.755-4.43976-15.117-13.94556-17.25238-9.13172-2.05127-18.32428-1.48858-27.39606.65558-10.121 2.39215-10.10681 2.45032-9.31128 12.73.03613.46668.036.93622.07575 1.40247a1.43957 1.43957 0 0 0 1.51172 1.45251c2.7348-.09894 5.58038.84638 8.11163-1.17767a19.06949 19.06949 0 0 1 7.954-3.81262c10.51373-2.259 15.61279 1.44177 15.862 10.99182.103 3.94616-1.32984 4.4281-4.62683 3.72638a43.26079 43.26079 0 0 0-18.14008.39624c-9.7492 2.06945-15.15564 9.14557-14.78161 19.25549.35443 9.58075 6.51641 16.18646 16.3443 17.364 8.14886.97632 15.55-.63263 21.38964-6.88159 5.64814 7.2655 12.51807 9.09216 20.65894 6.18732 3.72754-1.33008 2.47809-4.08936 2.77026-6.53369.28483-2.38248-.59066-3.20603-3.08083-3.31815zm-36.6532-.60705c-3.921-1.97681-4.78051-5.44086-4.43445-9.43018.35578-4.10175 2.79517-6.51141 6.61054-7.42285a26.04836 26.04836 0 0 1 6.02051-.40955c7.83093.00739 7.83087.03461 7.82843 7.73438-.00263 8.39361-8.37836 13.3833-16.02502 9.5282zm283.76264-52.91297c-19.34046.0221-32.95941 13.49927-32.92218 32.57941.03644 18.69543 13.85577 32.07007 33.03961 31.9765 19.252-.09387 33.00824-13.48377 32.96863-32.09039-.04053-19.01276-13.77295-32.48761-33.08606-32.46552zm13.68072 43.26117a14.23963 14.23963 0 0 1-12.71551 10.13831c-5.92859.44134-11.06616-2.66938-13.84693-8.465a25.89392 25.89392 0 0 1-2.33563-12.40173 26.36447 26.36447 0 0 1 2.23462-12.17188c2.73749-6.11657 7.72253-9.27209 13.96979-8.94928 5.69781.29444 10.69909 4.23371 12.62579 10.24176a34.76466 34.76466 0 0 1 .06787 21.60782zM181.15744 276.4346c.37286-4.21765-2.83191-2.76569-4.79847-2.85046-6.62249-.28565-8.28765-1.83613-8.32775-8.44391-.05213-8.58222-.01844-17.16492-.02-25.7475-.00147-8.06409.012-8.3609 8.03906-8.02258 4.49084.18927 4.60333-1.9397 4.56445-5.30341-.03741-3.23816.13922-5.54224-4.467-5.33911-8.12286.35821-8.13666.04559-8.13672-7.90894-.00006-8.7464-.00006-8.7464-8.812-8.7467a27.96984 27.96984 0 0 1-4.20892-.03424c-3.78552-.58325-4.93659 1.0166-4.59235 4.65149.29291 3.093.04852 6.23608.05811 9.357.00457 1.492-.10022 3.10535-2.12909 2.75086-6.73352-1.17633-5.11756 3.58917-5.33551 7.19549-.14392 2.38141.67358 3.67426 3.15838 3.23731 4.19892-.73841 4.39508 1.67 4.358 4.87994-.12433 10.76563-.14466 21.53516-.00013 32.30048.124 9.24035 4.4057 14.07855 13.48468 15.67279 4.34876.76367 8.66364.27789 13.03534-.10071 5.64139-.48854 3.85648-4.45405 4.12992-7.5478zm319.97461-2.86047c-4.61023.3349-5.50049-2.24488-5.462-6.1131.10266-10.30982.035-20.6214.03333-30.93225-.00171-10.31086-.11786-20.62372.05584-30.93164.069-4.09656-1.14221-6.09888-5.59344-5.88544-5.45642.2616-10.94062.20636-16.40192.00055-3.09-.1164-4.05347 1.34271-3.45441 3.92206.53858 2.31933-2.35247 6.58837 3.2417 6.35382 3.67286-.15406 4.90882 1.79046 4.89746 5.23248q-.08771 26.71417.00245 53.42883c.01147 3.29395-1.21631 4.93378-4.65613 4.91724-5.60932-.02686-2.2464 4.30255-2.93494 6.5741-.73865 2.4367.50434 3.57965 3.26453 3.52746 8.1225-.15362 16.26471-.34765 24.36938.06342 4.5398.23022 5.90985-1.42218 5.19544-5.51245-.31645-1.81171 1.36873-4.93021-2.55729-4.64508z" class="cls-2"/><path d="M469.75576 226.71969c-.00122-6.72442-1.31146-7.63775-8.09448-6.1336-5.27136 1.16894-9.0285 4.597-12.73334 8.496-1.703-8.23193-1.703-8.232-10.03277-8.23279-4.057-.00043-8.12207.15656-12.168-.0542-2.868-.14941-3.81964 1.24353-3.19611 3.60358.62531 2.36749-2.39483 6.58722 2.81269 6.78046 3.7572.13946 4.90063 2.03253 4.89855 5.3222q-.01025 16.14633-.00012 32.29266c.00122 2.00879-.553 4.513-2.53967 4.42438-6.52393-.29071-4.33881 4.27643-4.69208 7.51337-.25079 2.298.83435 2.93255 2.99488 2.91406 9.20544-.07867 18.412-.02789 27.6181-.0401.90906-.00116 2.15808.21033 2.45508-.84491a14.74934 14.74934 0 0 0 .04834-8.29095c-.58918-1.87616-3.08356-.96839-4.64753-.85035-3.05145.23041-4.04315-.78521-3.98321-3.90393.18573-9.66864.15045-19.34423.01294-29.01446-.03766-2.64612.95556-3.976 3.38147-4.77008a34.78428 34.78428 0 0 1 13.33374-2.01551c3.94092.28657 5.00451-1.36639 4.546-4.85772a18.13264 18.13264 0 0 1-.01448-2.33811zm-207.96923 38.30817a9.58331 9.58331 0 1 0-.78553 19.148 9.58432 9.58432 0 1 0 .78553-19.148z" class="cls-2"/><path d="M293.60979 7.95551c-52.385.032-94.049 42.09655-94.48657 92.468a93.74958 93.74958 0 0 0 93.23486 95.20117c53.00476.55359 95.63513-43.33715 94.30627-93.7268 1.62165-50.79113-42.23889-93.97344-93.05456-93.94237z" class="cls-3"/><g id="sYf6if.tif"><path fill="#6994c4" d="M311.64045 145.95618c-3.506.72291-7.06787.45073-10.601.48324-1.94053.01786-2.53144.62992-2.45 2.53838.1416 3.31813.08284 6.64751.01826 9.97043-.02574 1.32422.23684 1.885 1.77688 1.868 5.72017-.06307 8.57632 4.55088 6.22077 9.86275-.59442 1.34045-.82686 1.31451-2.77518-.39909a7.05319 7.05319 0 0 1-1.10961 2.99559h-.9273c-.32564-1.44632-1.60951-2.01322-2.62983-2.78687-1.90195-1.44217-4.1022-2.49889-5.70353-4.32487-.59934-.68343-.96065-.443-1.462.075-2.36578 2.44446-5.89224 3.41007-7.956 6.26678-.50687.70161-1.16065.38237-1.42611-.295a14.49341 14.49341 0 0 1-.509-2.23451c-.78579-.03713-.91747.71346-1.34221 1.10968-.49489.46166-.92516.40624-1.34348-.15116-1.72772-2.30212-.59876-8.09735 1.90225-9.698a6.36748 6.36748 0 0 1 4.199-1.00369c1.21812.13024 1.84462-.11491 1.80891-1.5552-.08614-3.47373-.06274-6.95161-.0087-10.42665.0198-1.27309-.41133-1.83654-1.7296-1.80352-1.38566.03471-2.77509-.08126-4.16287-.13138.43918-1.50741 1.73339-1.0198 2.68475-1.03235 5.30179-.07 10.6048-.02977 15.90739-.03362a9.29167 9.29167 0 0 0 2.96683-.28069 12.04751 12.04751 0 0 1 4.28677-.03424c1.3739.68064 3.11672-.20019 4.36461 1.02099z"/><path fill="#bcd0e6" d="M354.18565 112.96352a1.93378 1.93378 0 0 1-.41542.03161 11.0333 11.0333 0 0 1 .01657-8.88641.92538.92538 0 0 1 .39885.04z"/><path d="M257.75419 143.56652a16.34721 16.34721 0 0 1-6.4651-4.64206c-3.12576-5.01092-2.39995-10.73316-2.94771-16.21188a27.01136 27.01136 0 0 0-.43609-4.83335c-.16331-.57343-.21722-1.34765-1.02979-1.31347-.6308.02655-.78313.69757-.94165 1.19677-.96114 3.0267-2.19553 5.94462-3.4511 8.85571a33.25164 33.25164 0 0 1-1.50735 3.13312c-.34348.61158-.72594 1.31-1.48916 1.32368-.8997.01613-1.27771-.77343-1.60191-1.481a52.49855 52.49855 0 0 1-4.2372-13.21087 48.477 48.477 0 0 1 1.09818-20.67544 13.26271 13.26271 0 0 1 1.74125-4.02565c1.52613-2.27925 2.78482-2.263 3.96259.18385a26.10886 26.10886 0 0 0 11.7228 12.10677c1.66127.86821 3.28138 2.13426 5.39124 1.6362a39.33692 39.33692 0 0 0 14.12941.84325c2.4824.46149 4.65626-.60414 6.78081-1.565 1.78661-.808 3.02067-.58475 4.09144 1.05589.86183 1.32051 2.27185 2.30181 2.4464 4.0398-.03422.30563-.06255.667-.30744.84009-3.36319 2.377-6.10079 5.46454-9.22626 8.11411-2.82881 2.39945-4.46649 5.66-6.05765 8.86105a30.23529 30.23529 0 0 0-3.65845 13.91576c.02408 1.75537-.85242 2.41124-2.554 2.50493-1.87694.10332-3.60118-.75422-5.45326-.65226z" class="cls-6"/><path fill="#75a5d1" d="M268.37642 36.48175a14.83181 14.83181 0 0 1 4.721 2.781 3.72083 3.72083 0 0 0 3.18618.86294.38663.38663 0 0 1 .54855.05047c-.019.59256-.46382.71614-.97759.85824.929.49478 1.9533.26708 2.8729.55251 3.41929 2.17686 5.67777 5.39777 7.73353 8.76455a47.6631 47.6631 0 0 1 5.66836 12.61765 59.60307 59.60307 0 0 0-3.56635-9.90741 33.98293 33.98293 0 0 0-5.93544-8.80545 3.60968 3.60968 0 0 1-1.10465-1.73283c-.029-.38847-.02048-.89494.32914-1.01885 1.73227-.61391.27735-.97967-.08114-1.43151.27708-1.289-.8745-1.6764-1.54334-2.29219-1.56653-1.44228-3.234-2.7748-4.86058-4.15175-.10808-.42971.03271-.61815.48684-.50282 3.748 2.03966 7.50951 4.0475 11.84978 4.85009l-4.90561-4.35588c-.11912-.42563-.01936-.63967.46515-.48172l7.92778 4.16127c2.04278 1.72731 4.65237 2.06509 7.07424 2.83759a20.535 20.535 0 0 0 4.05758.76957c.7426.07952 1.57209.03569 1.98376.88664.14285.78448-.37647 1.286-.78216 1.841-4.608 6.30288-6.49521 10.2945-8.15152 16.496a50.76865 50.76865 0 0 1 8.8764-16.365 5.73389 5.73389 0 0 1 2.825-2.2744c4.369.77 7.988-.89815 11.55527-3.21987a18.1608 18.1608 0 0 1 8.37687-2.43281c2.5513-.23207 3.1916.39349 3.21008 2.9701.0199 2.77336.22962 5.42273 2.72307 7.24117l1.2452 1.53519c.89817 1.95029 2.157 3.75776 2.37739 5.97678.08368.84264.286 1.79588-.52633 2.34756-.8742.59368-1.62708-.11166-2.285-.59388a31.05421 31.05421 0 0 0-10.87678-5.4603c-10.353-2.55535-19.06207 1.29852-24.11023 10.67653a43.35347 43.35347 0 0 0-3.74165 9.198 10.38667 10.38667 0 0 1-.4786 1.54568c-.22271.498-.45868 1.044-1.10534 1.025-.65351-.01922-.8843-.57972-1.02454-1.101a69.6567 69.6567 0 0 0-2.21291-7.0635c-2.37518-6.13926-5.83767-11.38207-12.04883-14.30726a4.02438 4.02438 0 0 0-2.659-.50259 24.49144 24.49144 0 0 0-11.47513-.00344c-2.47933-.434-4.45976.90156-6.48933 1.92705a38.18585 38.18585 0 0 0-5.745 3.85677c-.567.43049-1.21488 1.25607-1.99095.59907-.65018-.55042-.39184-1.44362-.13622-2.17817.76486-2.19793 1.54931-4.5805 3.46214-5.89284 3.23229-2.21759 3.85814-5.34228 4.00679-8.82075.1592-3.725.97688-4.28408 4.75282-3.73928 2.20879.31858 4.2566 1.29945 6.4984 1.40708z"/><path fill="#6291c5" d="M275.78443 49.03292c.77529-1.07054 1.52165-.22717 2.22269.07791 6.53568 2.84427 10.20329 8.22969 12.66708 14.59051 1.0234 2.64212 1.74547 5.4011 2.6486 8.24564.89423-.535.82424-1.49 1.07755-2.29551 1.69633-5.39425 3.75011-10.59924 7.73856-14.80252 5.698-6.005 12.64207-7.49857 20.48459-5.67969a29.55333 29.55333 0 0 1 10.9355 5.28567c.67618.50089 1.4666 1.64635 2.27982 1.02725.67518-.514.15648-1.69741-.02756-2.61513a17.07294 17.07294 0 0 0-1.29262-3.44506c-.243-.55921-1.04107-1.08407-.33385-1.83693a12.2096 12.2096 0 0 1 4.24238 8.69107 8.086 8.086 0 0 0 2.02369 4.71953c6.30086 7.87041 10.10022 16.56309 8.21658 26.95682a1.82313 1.82313 0 0 0 .35761 1.731c3.87513 4.05209 3.91508 9.37205 4.76166 14.42528q-.00817 4.443-.01653 8.88628a48.03451 48.03451 0 0 1-6.20948 19.45661c-1.15893 1.99164-2.07 2.05247-3.44847.114a20.19782 20.19782 0 0 1-1.70267-3.27944c-1.023-2.21264-2.00113-4.446-3.283-7.30735-.31854 3.84619-.21143 7.03738-.60722 10.19844-.83969 6.70619-5.4692 11.76-12.14358 12.71231a104.81223 104.81223 0 0 1-14.73581 1.06631c-1.40981-.322-2.95594.44118-4.28426-.53652 1.01739-1.05837 2.35986-1.0283 3.65976-1.033a35.52673 35.52673 0 0 0 5.74782-.41686 2.07966 2.07966 0 0 0 1.98494-2.12847 13.27625 13.27625 0 0 0-.06211-3.45855 44.00869 44.00869 0 0 0-14.27893-24.7575 12.14428 12.14428 0 0 0-3.91991-2.39956 2.46352 2.46352 0 0 1-.56212-.37725c-.73663-1.40326.49737-2.13851 1.11336-3.0062 3.40752-4.7999 3.62783-3.42349-.55994-7.70679-1.67332-1.71151-3.34492-3.42766-5.09178-5.06311-.7561-.70788-1.43188-1.68672-2.71331-1.457a35.86537 35.86537 0 0 0-3.64883 3.41855c-.66172.58888-1.1975 1.42888-2.28426 1.2599a.94811.94811 0 0 1-.52068-.84582c.80753-2.74187 2.65949-5.02215 3.33141-7.84408 3.22011-13.52362.75585-25.681-8.55078-36.227a14.26082 14.26082 0 0 0-3.47828-2.6659c-.69705-.41819-1.62519-.63776-1.73762-1.67784z"/><path fill="#6290c5" d="M268.37642 36.48175c-2.26536.76417-4.29883-.52108-6.42652-.83136-3.69185-.53839-4.08018-.34165-4.22555 3.40546-.136 3.506-.69818 6.64989-4.1162 8.93569-2.32735 1.55642-3.20521 4.5562-3.9729 7.93479 2.73322-1.94035 4.8844-3.71843 7.31613-5.09408a41.22488 41.22488 0 0 1 5.30015-2.2414 1.30557 1.30557 0 0 1 1.50628.2535c-.71794 1.24917-2.1109 1.47754-3.2274 2.11221-11.80625 6.71121-19.33933 16.56794-19.97712 30.29852-.46191 9.94407 4.6491 17.51295 13.40707 22.44408 1.17384.66093 2.69138.86831 3.31909 2.32309-2.15765 1.12891-3.66253-.65293-5.21534-1.42726a25.86622 25.86622 0 0 1-12.28464-12.68777c-.88449-1.93244-1.55067-1.94172-2.72828-.09478-1.8708 2.93412-2.39047 6.32871-2.89868 9.65374a45.87279 45.87279 0 0 0 2.67648 24.01306c.71749 1.8332 1.53808 3.626 2.49825 5.87551a65.2415 65.2415 0 0 0 5.001-10.88884c.48374-1.21551.88611-2.46578 1.27414-3.71617.21438-.69084.39318-1.44014 1.27386-1.38432a1.6132 1.6132 0 0 1 1.53294 1.49592 35.96247 35.96247 0 0 1 .56169 4.3389 89.78736 89.78736 0 0 0 .88816 12.39808 12.61579 12.61579 0 0 0 1.25519 3.70013c.22744.48462.90021 1.007.1748 1.626-2.716-2.49649-3.754-5.74914-4.13821-9.28042-.21669-1.99163-.36628-3.99055-.55448-6.07921-.75669.18518-.78982.84758-1.00771 1.33112-1.04605 2.32139-2.02656 4.6732-3.11064 6.97636-1.26622 2.69013-2.2655 2.74969-3.94489.17207a42.605 42.605 0 0 1-4.655-9.80773 47.85375 47.85375 0 0 1-.79117-28.48416 10.41194 10.41194 0 0 1 3.85411-6.14158 2.01352 2.01352 0 0 0 .8659-2.17935c-1.15184-9.06314 1.99627-16.86045 7.28744-23.93553a9.47564 9.47564 0 0 0 2.12366-5.64167c.14154-3.99445 1.45381-7.74089 4.71917-10.18309 2.73285-2.04394 3.224-4.6817 3.36221-7.672.22393-4.846.44709-5.02349 5.139-3.9144 2.69272.63652 5.46368 1.02993 7.93801 2.39689z"/><path fill="#6391c5" d="M332.93949 46.04991a3.72812 3.72812 0 0 1-2.86129-2.55355 13.981 13.981 0 0 1-.444-5.25887c.067-1.435-.49095-1.93864-1.88257-1.83481a22.52868 22.52868 0 0 0-12.00588 4.22254c-1.775 1.31623-3.37135 2.243-5.67063 1.42524a10.4567 10.4567 0 0 0-3.21753-.095 1.62857 1.62857 0 0 1 1.81534-1.84258 3.04949 3.04949 0 0 0 3.78853-.53614c4.33937-3.69952 9.75895-4.43643 15.08436-5.29949 2.223-.36026 4.26933 1.98522 4.33956 4.72726.06151 2.40154.0642 4.79161 1.05411 7.0454z"/><path fill="#356793" d="M308.67294 40.11288a6.00573 6.00573 0 0 0-1.81507 1.84278c-4.89814 4.38926-7.57123 10.1935-10.15421 16.04628-.707 1.602-1.27982 3.26335-2.0848 4.82267a40.57082 40.57082 0 0 1 9.48682-20.84928c.27586-.95758 1.092-1.3749 1.849-1.85134a39.62959 39.62959 0 0 1 6.25413-5.09454 13.61731 13.61731 0 0 1 2.27248-1.08721c.49168-.1967 1.14587-.3873 1.37422.31.15914.48595-.362.80439-.7384 1.03493a32.03827 32.03827 0 0 0-6.44417 4.82571zM281.877 42.415a41.89342 41.89342 0 0 1 10.40592 19.53679 10.48242 10.48242 0 0 1 .20943 1.129 11.966 11.966 0 0 1-.08577 1.36853c-3.40967-8.69776-6.79705-16.72876-13.77733-22.48274a3.70014 3.70014 0 0 1-1.92854-1.78489 1.05508 1.05508 0 0 0-.41717-.05605c-1.19635-1.9395-3.76251-2.25489-5.38855-4.6125 4.06039.04984 6.048 2.93061 8.6532 4.59114A5.29779 5.29779 0 0 1 281.877 42.415z"/><path fill="#6896c8" d="M257.75419 143.56652c1.862-1.23272 3.69109.31768 5.5853.08291 1.37255-.17012 1.84927-.51961 1.848-1.91795-.00605-6.76079 2.526-12.71595 6.01865-18.33876.81082-1.30535 1.62606-2.61616 2.55669-3.83466.363-.47529.63516-1.49594 1.66067-.90659-.32629 1.88594-1.54477 3.31391-2.51482 4.86416a40.81847 40.81847 0 0 0-5.878 15.4256c-.45808 2.88724.00428 4.97163 2.87244 6.11943-.14294.72371-.59586.64612-1.1028.429-3.78144-.06949-7.57723-.05635-11.04613-1.92314z"/><path fill="#88abd3" d="M268.8003 145.48963l.98643-.46169c1.0645-1.0668 2.4495-.87819 3.70279-.75877 8.73754.83257 17.4937.22421 26.23767.43191 1.19862.02847 2.49073-.23113 3.47294.79494-.72609.65755-1.6185.38942-2.43878.39348-5.63453.02781-11.26929.008-16.90379.039-.81435.00447-1.71115-.30641-2.42761.38765a75.80273 75.80273 0 0 1-12.62965-.82652z"/><path fill="#6895c7" d="M305.95469 40.124a5.50785 5.50785 0 0 1-1.849 1.85137c-3.51532-.79533-7.10028-1.35566-10.42911-2.80757-.93664-.40853-2.37706-.3-2.4858-1.86758 4.74001 1.89064 9.58869 3.21191 14.76391 2.82378z"/><path fill="#6190c3" d="M281.877 42.415a7.13024 7.13024 0 0 1-2.32886-2.31067q1.11175-.01539 2.2231-.031c.926.117 2.00691-.1305 2.51226 1.10288-.54873.88564-2.25181-.36671-2.4065 1.23879z"/><path fill="#b7cde4" d="M275.85388 33.1263l-.48685.50282-3.50383-2.812a8.36192 8.36192 0 0 1 3.99068 2.30918z"/><path fill="#bacee5" d="M283.26315 33.13879l-.46522.48175a5.88916 5.88916 0 0 1-2.11-2.06848 5.3552 5.3552 0 0 1 2.57522 1.58673z"/><path d="M303.20013 145.496c-11.14017.01482-22.28181.13363-33.41338-.46818-3.24789-.48968-3.82835-1.31367-3.51309-4.86014a37.17864 37.17864 0 0 1 5.28634-15.57115 34.17364 34.17364 0 0 1 3.86337-5.94541 46.04172 46.04172 0 0 1 9.24687-8.35c1.18264-.38079 1.61737.59233 2.13931 1.26518 1.56215 2.01379 3.06867 4.071 4.59653 6.11152 1.60783 2.14733 1.628 2.14769 3.204.083 1.312-1.71872 2.59447-3.46 3.89375-5.18839a4.633 4.633 0 0 1 1.97324-1.89563c2.04253.27289 3.44963 1.6854 4.82765 2.95888a44.36608 44.36608 0 0 1 13.75337 23.54356c.06546.3009.16432.59561.214.89871.89793 5.47818.01684 6.55743-5.47859 6.84779-2.14864.11354-4.29205.32622-6.43785.49369q-2.07774.03825-4.15552.07657z" class="cls-18"/><path fill="#f3d2aa" d="M294.82733 163.08373c1.52943-.02679 1.38-1.142 1.381-2.14716.00412-4.09061-.0151-8.18136.02072-12.27165.0054-.61661-.37041-1.68337.57216-1.72682 1.22184-.05634.74215 1.12712.7508 1.77406.05056 3.78123.04374 7.56358.01556 11.34526-.00929 1.24682.14964 1.88438 1.6998 1.35687a4.86188 4.86188 0 0 1 5.40043 1.69235c1.53537 1.71617 1.40156 3.83606 1.18554 5.93234-.03851.37367-.35788.9322-.71113.59263-2.50175-2.405-2.42425.173-3.01148 1.80989-2.40606-1.76109-4.6993-3.3961-6.94164-5.09824-1.22485-.92977-1.553-2.05394-.33643-3.28464zm-11.15753 7.99432c-.6858-3.36915-.6858-3.36915-3.29622-1.61653-.58943-2.30829-.77918-4.46236.61638-6.43588 1.39359-1.97075 3.48883-2.29725 5.60245-1.67232 1.74439.51577 1.8022-.29738 1.79436-1.56437q-.03443-5.56664.01-11.13348c.00591-.62273-.34933-1.70687.58035-1.72629 1.16989-.02443.70868 1.149.716 1.80738.04494 4.02.04145 8.04089.01 12.06115a2.29157 2.29157 0 0 0 1.22634 2.47573c1.39351.69884 1.06859 1.591.09728 2.53386-2.13248 2.07017-4.98451 3.0712-7.35694 5.27075z"/><path d="M294.85266 163.05862c-2.61212.75074-4.08777-.34091-4.0836-3.01371.006-3.85364.0589-7.7083-.01686-11.56038-.02893-1.47058.561-1.91081 1.917-1.78983 1.10386.09848 2.37381-.31762 2.32818 1.60168-.11715 4.92759-.12106 9.85788-.17014 14.78722z" class="cls-3"/><path d="M257.27945 106.02225c-5.81114-2.50358-10.67938-6.15752-13.92486-11.6932-4.76872-8.13379-4.41885-16.49784-.71713-24.84754a38.26124 38.26124 0 0 1 21.12036-20.637c4.02817-1.16863 8.04267-1.46308 12.02669.18827 10.14164 5.07768 13.46413 14.48109 15.26638 24.64706 1.5 8.46106.23651 16.56336-4.60645 23.88628-2.65568 4.56718-6.82359 7.16141-11.65856 8.8215a4.79878 4.79878 0 0 1-2.66294.5518 30.87686 30.87686 0 0 1-14.84349-.91717z" class="cls-18"/><path fill="#6b96c6" d="M272.12294 106.9394a29.60206 29.60206 0 0 0 14.32161-9.37315l.53626.55963c.08394 1.57094-1.27947 2.17916-2.13412 3.07433-2.45774 2.57425-2.478 2.52842-.32209 5.44921 2.37856 3.22238 4.87036 6.35771 7.28464 9.55252.40948.54187.74284 1.1911 1.49049 1.36057 1.79828-1.46141 2.79284-3.5616 4.26441-5.27444.62342-.72564 1.052-1.71582 2.24611-1.67782q.3333.03324.66672.06652c-2.1031 2.85475-4.21748 5.70132-6.30388 8.5683-.78768 1.08238-1.407 1.19821-2.26429-.00251-1.748-2.44822-3.61366-4.81233-5.4293-7.21228a4.36618 4.36618 0 0 0-1.80931-1.72938c-.46914-2.14534-2.33583-3.35429-3.424-5.08784-.49347-.78612-1.20737-.41747-1.83237-.07523a29.60861 29.60861 0 0 1-6.06444 2.10666.97643.97643 0 0 1-1.22644-.30509z"/><path fill="#6290c2" d="M276.70072 40.18169a4.554 4.554 0 0 1 1.9284 1.785c-1.20434-.096-2.60505.47023-3.44027-1.04037z"/><path d="M295.22884 78.95258c.39251-7.91684 2.66625-17.26427 9.87984-24.63727 4.916-5.0247 11.0363-6.31336 17.70463-4.16136 13.87731 4.47847 24.69856 20.27341 24.00207 34.83073-.54713 11.4357-11.50711 22.4606-23.25084 23.34213a27.63656 27.63656 0 0 1-9.42658-.59718 25.28452 25.28452 0 0 1-10.70332-6.39763c-6.08195-5.64254-8.21572-12.43938-8.2058-22.37942z" class="cls-18"/><path d="M348.43577 90.28239a19.08612 19.08612 0 0 1 2.38488 7.5157c1.56734 10.74118.688 21.189-4.53363 30.96346-.31933.59777-.45325 1.54414-1.19083 1.597-.96389.06918-1.01831-1.02011-1.33736-1.65506a83.72617 83.72617 0 0 1-4.11758-10.5327c-.366-1.06639-.78179-2.35152-1.99174-2.17253-1.06383.15738-1.03405 1.54949-1.06242 2.50926-.10913 3.69149-.28577 7.38908-.37136 11.06923-.16294 7.00717-6.01056 13.53114-14.19077 14.00094-1.132.065-1.7219-.25973-1.69631-1.53062.2277-11.30925-5.40838-19.93823-12.80694-27.71151a16.88584 16.88584 0 0 0-4.52077-3.54017c-1.29854-.65591-1.50566-1.42-.53547-2.52346a7.10368 7.10368 0 0 0 .92108-1.32263c.88763-1.65662 1.869-1.881 3.64665-.93587 14.75594 7.8456 34.94278 1.27628 40.73841-14.88175a4.12916 4.12916 0 0 1 .66416-.84929z" class="cls-6"/><path fill="#d9bc9c" d="M299.81024 110.61025c-2.49894 2.31111-3.97288 5.45815-6.38552 7.83965-1.15669-1.64929-.75733-3.60055-.8925-5.39477a161.05064 161.05064 0 0 1-.07143-20.09915c.468-.66722.91017-.35265 1.32489.05182q5.12293 4.99638 10.24278 9.99589c.80386.78017.26323 1.38273-.18322 2.00659q-2.00846 2.80647-4.035 5.59997z"/><path fill="#f5d3a9" d="M292.46079 92.956c.80875.65279.50714 1.56709.51172 2.37826q.04059 7.18325.01285 14.36686c-.009 2.92547.7717 5.80933.43947 8.74922-.92119.1289-1.12257-.71113-1.50456-1.20811-3.09034-4.02069-6.10653-8.09877-9.22146-12.1-.82211-1.056-.86088-1.74118.16-2.68758 1.45823-1.35191 2.75572-2.87743 4.12195-4.32877q2.74009-2.58493 5.48003-5.16988z"/><path fill="#719bca" d="M296.28514 123.99576c2.82718.8054 5.25883.999 7.65981.06709.79836-.30989 1.4176-.14228 1.70382.6295.34209.92244-.54911.95871-1.05845 1.153-3.13455 1.19608-6.69175.48271-8.30518-1.84959zm-17.582.1124c2.741.52549 5.37509.92284 7.9486-.21567.494-.21852.87611.129 1.1307.54379a.73809.73809 0 0 1-.11984 1.01336c-1.67006 1.70372-7.53549.93423-8.95946-1.34148z"/><path d="M287.91434 131.497a9.84323 9.84323 0 0 0 7.9935.046 1.042 1.042 0 0 1 1.45876.73777c.22249.70707-.443.8477-.91963 1.06853-2.80697 1.30039-6.83197.55837-8.53263-1.8523z" class="cls-25"/><path fill="#6b97c8" d="M298.91245 137.86111c3.08112 1.18551 5.62308 1.28313 8.1536.26528a1.08867 1.08867 0 0 1 1.51431.62505c.21643.4373-.08527.69151-.411.92951-2.01425 1.47205-7.21354.70396-9.25691-1.81984z"/><path d="M275.396 138.4481c2.79442.59306 5.43466.85329 8.02118-.19557.50455-.2046.86366.19045 1.10752.60406a.70081.70081 0 0 1-.21623.98766c-1.5928 1.39563-7.57947.60075-8.91247-1.39615z" class="cls-25"/><path fill="#f0f3f9" d="M266.23532 87.37008c-.82743 1.02438.27811 3.21559 1.889 3.74864.46883.15514 1.10532-.1927 1.41614.46178-3.22284 1.97865-6.321.96473-8.56389-2.78155-4.07428-6.80537-3.85-13.78327.12371-20.33663 3.23083-5.32822 8.4875-5.67756 12.6077-.41621 1.69691 2.16692 2.20339 4.89221 2.46369 7.57989.07055.7285-.07959 1.9956-.95565 2.14592-1.01264.17375-.92666-1.10842-1.06032-1.73013a14.52 14.52 0 0 0-2.57376-5.87151c-1.58934-2.08669-4.7914-2.44675-6.2402-.747-.60939.71493-1.15893 1.45026.3254 1.80077.12315.73781-.48867 1.06761-.85733 1.52531a9.81563 9.81563 0 0 0 .57672 13.3149c.36729.38258.82517.70156.84879 1.30582z"/><path d="M266.23532 87.37008c-5.65961-2.40074-5.66657-13.06388-.56817-16.14608 3.04456-.76245 3.22317-.61405 2.941 2.45741a5.8057 5.8057 0 0 0 .48984 3.1526c.31391.63915.904 1.42307 1.54863 1.14772 3.09773-1.32317 2.04474 1.12858 1.99041 2.25923-.22271 4.63475-2.4744 7.05875-6.40171 7.12912z" class="cls-28"/><path fill="#f1f4f9" d="M317.20806 87.85192c-1.386.20893-.8137.98524-.4586 1.657 1.10066 2.0822 3.084 2.28392 5.27126 2.16972-2.09675 2.66155-6.88294 2.36818-9.13994-.35385-4.95-5.96987-5.21407-16.70795-.56422-22.94349 3.736-5.01 10.16882-4.0191 13.18161 2.07822a12.29712 12.29712 0 0 1 1.33329 6.72374c-.05135.52421.09209 1.20121-.61169 1.32659-.7503.13368-1.09175-.42358-1.25108-1.08068-.16252-.67028-.32351-1.34133-.46479-2.0163a8.03133 8.03133 0 0 0-4.7712-6.11409c-1.8768-.82013-3.19787-.03273-3.53333 2.03231a1.483 1.483 0 0 1-.4302 1.2623c-2.794 3.29066-2.51644 7.02212-1.72291 10.9075.40985 2.00671 2.41208 2.68789 3.1618 4.35103z"/><path d="M317.20806 87.85192c-5.46287-3.04207-6.01967-12.16172-1.00869-16.52083.61222-.03993 1.225-.07262 1.83654-.12128 1.38688-.11035 1.97937.27735 1.49369 1.83344a5.45037 5.45037 0 0 0 .11922 3.62981c.37862.951.94795 1.97563 2.19766 1.391 1.56343-.73142 1.67926.05651 1.65942 1.27035a11.16447 11.16447 0 0 1-1.60646 6.15314 4.96811 4.96811 0 0 1-4.69138 2.36437z" class="cls-28"/></g></svg>