<svg xmlns="http://www.w3.org/2000/svg" role="img" viewBox="-8.57 -8.07 471.64 158.64"><title>Datakin (hosting) logo</title><g fill="none" fill-rule="evenodd"><path fill="#E15D29" d="M334.046 113.563c.57.571 1.264.856 2.08.856.814 0 1.528-.285 2.14-.856.611-.57.917-1.263.917-2.079V97.786l12.23-12.23 22.993 27.762c.407.734 1.101 1.101 2.079 1.101.979 0 1.713-.203 2.202-.612 1.385-1.385 1.467-2.812.244-4.28l-23.237-28.252 23.115-23.115c.652-.652.978-1.364.978-2.14 0-.774-.326-1.447-.978-2.018-1.387-1.386-2.773-1.386-4.158 0l-35.468 35.345V31.743c0-.814-.306-1.508-.917-2.08-.612-.569-1.326-.856-2.14-.856-.816 0-1.51.287-2.08.856-.571.572-.856 1.266-.856 2.08v79.741c0 .816.285 1.509.856 2.079zm56.381 0c.57.571 1.264.856 2.08.856.814 0 1.528-.285 2.14-.856.611-.57.917-1.263.917-2.079V57.426c0-.814-.286-1.508-.856-2.079-.571-.569-1.284-.856-2.14-.856-.856 0-1.571.287-2.141.856-.571.571-.856 1.265-.856 2.079v54.058c0 .816.285 1.509.856 2.079zm20.791-34.612c.162-5.136 2.037-9.497 5.626-13.086 3.587-3.587 7.928-5.381 13.025-5.381 5.095 0 9.436 1.815 13.025 5.442 3.587 3.629 5.381 7.971 5.381 13.025v32.533c0 .816.285 1.509.856 2.079.57.571 1.264.856 2.08.856.814 0 1.507-.285 2.079-.856.569-.57.856-1.263.856-2.079V78.951c0-6.684-2.385-12.413-7.155-17.183-4.77-4.77-10.722-7.155-17.856-7.155-7.136 0-13.107 2.895-17.917 8.684v-5.749c0-.814-.266-1.507-.795-2.079-.531-.569-1.204-.856-2.018-.856-.816 0-1.51.287-2.079.856-.572.572-.856 1.265-.856 2.079v54.67l.122.244c0 .165.04.287.122.367.407.816 1.059 1.345 1.957 1.59h.734c1.467 0 2.404-.814 2.813-2.446V78.951z"/><path fill="#424F5E" d="M156.04 113.563c.612.571 1.325.856 2.141.856.814 0 1.508-.285 2.079-.856.569-.57.856-1.263.856-2.079V31.743c0-.814-.287-1.508-.856-2.08-.571-.569-1.265-.856-2.079-.856-.816 0-1.529.287-2.141.856-.611.572-.917 1.266-.917 2.08v34.489c-2.69-3.587-6.035-6.44-10.029-8.561-3.995-2.12-8.316-3.18-12.964-3.18-8.072 0-14.921 2.935-20.546 8.806-5.626 5.87-8.439 12.945-8.439 21.219 0 8.277 2.813 15.33 8.439 21.158 5.625 5.831 12.474 8.745 20.546 8.745 4.648 0 8.969-1.04 12.964-3.119 3.994-2.079 7.339-4.911 10.029-8.5v8.684c0 .816.306 1.509.917 2.079zm-40.115-46.047c4.525-4.688 9.907-7.032 16.144-7.032 6.238 0 11.577 2.243 16.022 6.726 4.443 4.485 6.788 9.949 7.032 16.389v1.957c-.244 6.359-2.589 11.762-7.032 16.205-4.445 4.445-9.784 6.665-16.022 6.665-6.237 0-11.619-2.324-16.144-6.971-4.525-4.648-6.787-10.293-6.787-16.939 0-6.644 2.262-12.31 6.787-17zm104.139-10.09v8.806c-2.61-3.587-5.891-6.44-9.845-8.561-3.956-2.12-8.175-3.18-12.658-3.18-7.828 0-14.514 2.935-20.058 8.806-5.546 5.87-8.316 12.924-8.316 21.158 0 8.236 2.77 15.288 8.316 21.158 5.544 5.871 12.23 8.806 20.058 8.806 4.483 0 8.702-1.059 12.658-3.18 3.954-2.119 7.235-5.014 9.845-8.683v8.928c0 .816.285 1.509.856 2.079.57.571 1.264.856 2.08.856.814 0 1.507-.285 2.079-.856.569-.57.856-1.263.856-2.079V57.426c0-.814-.287-1.508-.856-2.079-.572-.569-1.265-.856-2.079-.856-.816 0-1.51.287-2.08.856-.571.571-.856 1.265-.856 2.079zm-38.341 9.907c4.443-4.728 9.742-7.094 15.899-7.094 6.155 0 11.435 2.366 15.838 7.094 4.403 4.729 6.604 10.437 6.604 17.122 0 6.686-2.201 12.373-6.604 17.061-4.403 4.69-9.683 7.032-15.838 7.032-6.157 0-11.456-2.342-15.899-7.032-4.445-4.688-6.666-10.375-6.666-17.061 0-6.685 2.221-12.393 6.666-17.122zm68.915-12.842V32.232c0-.734-.326-1.407-.978-2.018-.654-.612-1.366-.917-2.14-.917-.776 0-1.468.305-2.079.917-.612.611-.918 1.284-.918 2.018v22.259h-7.46c-1.632 0-2.568.489-2.813 1.468-.082.326-.122.898-.122 1.712 0 .816.162 1.467.489 1.957.325.489 1.141.733 2.446.733h7.46v43.662c0 3.018.998 5.504 2.997 7.461 1.997 1.957 4.504 2.935 7.521 2.935.734 0 1.426-.306 2.079-.917.652-.612.979-1.284.979-2.018 0-.734-.327-1.426-.979-2.079-.653-.652-1.387-.979-2.201-.979-.816 0-1.733-.407-2.752-1.223-1.02-.814-1.529-1.874-1.529-3.18V60.361h7.705c.734 0 1.407-.305 2.018-.917.612-.611.918-1.284.918-2.018 0-.734-.306-1.406-.918-2.018-.611-.611-1.284-.917-2.018-.917h-7.705zm64.698 2.935v8.806c-2.611-3.587-5.892-6.44-9.846-8.561-3.955-2.12-8.175-3.18-12.658-3.18-7.827 0-14.514 2.935-20.058 8.806-5.545 5.87-8.316 12.924-8.316 21.158 0 8.236 2.771 15.288 8.316 21.158 5.544 5.871 12.231 8.806 20.058 8.806 4.483 0 8.703-1.059 12.658-3.18 3.954-2.119 7.235-5.014 9.846-8.683v8.928c0 .816.284 1.509.856 2.079.569.571 1.263.856 2.079.856.814 0 1.508-.285 2.079-.856.569-.57.856-1.263.856-2.079V57.426c0-.814-.287-1.508-.856-2.079-.571-.569-1.265-.856-2.079-.856-.816 0-1.51.287-2.079.856-.572.571-.856 1.265-.856 2.079zm-38.342 9.907c4.443-4.728 9.742-7.094 15.899-7.094 6.155 0 11.435 2.366 15.838 7.094 4.403 4.729 6.605 10.437 6.605 17.122 0 6.686-2.202 12.373-6.605 17.061-4.403 4.69-9.683 7.032-15.838 7.032-6.157 0-11.456-2.342-15.899-7.032-4.445-4.688-6.666-10.375-6.666-17.061 0-6.685 2.221-12.393 6.666-17.122z"/><path fill="#E15D29" d="M392.561 41.107c3.384 0 6.127-2.743 6.127-6.127 0-3.383-2.743-6.126-6.127-6.126-3.383 0-6.126 2.743-6.126 6.126 0 3.384 2.743 6.127 6.126 6.127M33.838 30.018l-7.369-7.369c-1.397-1.397-3.662-1.397-5.06 0-1.397 1.397-1.397 3.663 0 5.06l12.429 12.428m7.155 51.161l9.685-9.685c1.397-1.397 1.397-3.662 0-5.06-1.397-1.397-3.662-1.397-5.059 0l-4.626 4.626M21.699 54.658H9.271c-1.976 0-3.578 1.602-3.578 3.578 0 1.976 1.602 3.578 3.578 3.578h19.583"/><path fill="#424F5E" d="M73.022 38.58c-2.954-3.239-7.978-3.327-11.043-.261-.976.976-1.632 2.15-1.969 3.392-.915 3.38-2.664 6.451-4.945 9.095v-18.71c0-1.976-1.601-3.578-3.577-3.578s-3.578 1.602-3.578 3.578v26.026l-6.917 6.917V24.297c0-4.148 1.132-8.194 3.123-11.833.641-1.172.984-2.531.925-3.974-.159-3.927-3.339-7.125-7.265-7.306-4.379-.202-7.993 3.289-7.993 7.624 0 1.38.366 2.674 1.007 3.79 2.053 3.578 3.048 7.665 3.048 11.79v32.286L22.034 44.871c-2.919-2.929-4.972-6.579-6.134-10.548-.375-1.282-1.094-2.485-2.156-3.464-2.889-2.664-7.399-2.677-10.303-.029-3.24 2.954-3.327 7.978-.261 11.043.975.976 2.149 1.632 3.392 1.969 3.981 1.078 7.575 3.265 10.492 6.181l16.774 16.774v9.731l-6.296-6.295c-1.397-1.397-3.662-1.397-5.059 0-1.397 1.397-1.397 3.662 0 5.06l11.355 11.354v32.281c0 4.149-1.132 8.195-3.124 11.835-.641 1.171-.983 2.53-.925 3.973.16 3.927 3.339 7.126 7.265 7.307 4.38.201 7.994-3.289 7.994-7.624 0-1.38-.367-2.675-1.007-3.791-2.053-3.578-3.048-7.665-3.048-11.79V75.199l18.282-18.282c2.88-2.774 6.41-4.753 10.254-5.878 1.282-.375 2.485-1.094 3.464-2.156 2.664-2.889 2.677-7.399.029-10.303"/></g></svg>