<svg xmlns="http://www.w3.org/2000/svg" role="img" viewBox="-3.92 -4.92 489.84 301.84"><title>DeepBench logo</title><defs><style>.cls-1{fill:#2319dc}</style></defs><path d="M189.22 84.664c16.464-3.538 14.225-23.217 13.73-27.52-.81-6.633-8.608-18.219-19.198-17.305-13.326 1.194-15.271 20.444-15.271 20.444-1.807 8.904 4.313 27.918 20.74 24.381zm30.564-33.003c9.093 0 16.441-10.466 16.441-23.407 0-12.928-7.348-23.392-16.44-23.392-9.082 0-16.451 10.464-16.451 23.392 0 12.941 7.37 23.407 16.45 23.407zm39.165 1.547c12.16 1.578 19.971-11.394 21.526-21.225 1.586-9.818-6.258-21.226-14.863-23.186-8.626-1.976-19.392 11.835-20.371 20.843-1.173 11.01 1.577 22.006 13.708 23.568zm48.184 16.51c0-4.702-3.905-18.868-18.396-18.868-14.52 0-16.456 13.37-16.456 22.818 0 9.02.758 21.609 18.792 21.21 18.035-.397 16.06-20.43 16.06-25.16zm-100.43 49.172c-.48 1.385-1.557 4.923-.627 8.004 1.842 6.913 7.842 7.223 7.842 7.223h8.623v-21.078h-9.235a10.124 10.124 0 0 0-6.603 5.851z" class="cls-1"/><path d="M288.737 111.005s-18.808-14.55-29.788-30.277c-14.881-23.187-36.025-13.752-43.094-1.96-7.04 11.792-18.012 19.25-19.574 21.226-1.578 1.945-22.714 13.353-18.021 34.197 4.688 20.829 21.168 20.428 21.168 20.428a92.364 92.364 0 0 0 26.236-1.959 55.349 55.349 0 0 1 26.23.782s32.923 11.025 41.928-10.203c9-21.224-5.085-32.234-5.085-32.234zM232.4 142.592h-21.403c-9.241-1.842-12.925-8.151-13.391-9.227-.456-1.09-3.073-6.161-1.688-14.785 3.995-12.927 15.39-13.855 15.39-13.855h11.393V90.722l9.7.147zm39.864-.147h-24.63c-9.543-2.462-9.993-9.242-9.993-9.242v-27.24l9.993-.162v24.483c.61 2.61 3.854 3.08 3.854 3.08h10.149v-27.401h10.627z" class="cls-1"/><path fill="#e11408" d="M389.56 88.097V76.601h-75.632l-.103 11.659h32.51l-3.044 6.957h-27.64v57.62h65.684c6.868 0 6.265-6.928 6.265-6.928V95.217h-27.704l2.424-7.12zm-14.682 52.431s-.804 1.917-1.915 1.917H329.37v-13.429h45.508zm-.089-35.214v12.604H329.37v-12.604zM475.98 76.915h-29.67v-5.812h-13.923v5.518h-34.043v76.111h12.25v-66.3h65.386zm-8.008 15.737V88.26H456.01v4.392h-24.596v-4.244h-11.34v4.244h-7.667l.153 8.624h7.513v16.184h41.392c5.747 0 6.507-6.059 6.507-6.059v-10.125h8.768v-8.624zm-11.962 14.52s-1.054 1.96-2.418 1.96h-22.318v-8.019h24.736zm-41.923 22.11l19.06 11.04c-1.512 1.666-8.02 3.774-8.02 3.774h-12.72v8.49h17.26c5.144-1.06 14.682-5.896 14.682-5.896 3.944 3.626 11.511 5.13 11.511 5.13h19.664v-8.476h-14.829a22.465 22.465 0 0 1-7.567-2.875l22.396-12.868v-6.957h-61.437zm39.643-.148l-10.892 5.734-9.987-5.734zM145.642 74.479v14.533h16.493V74.48zm0 77.944h16.493V95.364h-16.493zm-26.85-56.999l-35.214-.103v11.998h30.874s7.363 1.813 7.363 6.47v4.23H93.867s-10.995 1.018-14.527 14.137c-.61 6.147.208 9.169.613 10.29.406 1.118 3.625 8.371 13.214 10.186h44.493v-40.875s-2.116-14.019-18.868-16.333zm3.023 45.915H99.313a7.449 7.449 0 0 1-4.237-3.743 5.339 5.339 0 0 1-.096-4.128 8.483 8.483 0 0 1 4.841-4.334h21.994zm-46.1-8.933c.487-13.9-11.984-18.704-11.984-18.704 10.554-5.513 9.207-19.413 9.207-19.413-1.145-21.284-27.139-20.297-27.139-20.297H5.619v79.317H50.98c26.656-.089 24.734-20.903 24.734-20.903zm-25.634 6.163v.028H22.894V121.5h27.04l.914.178s5.152.942 7.024 5.571c0 0 1.076 4.347-1.254 7.576 0 0-1.716 2.992-6.537 3.745zm5.764-36.778a9.227 9.227 0 0 1-6.677 4.083H22.894v-16.42h26.155s5.69-.25 7.57 4.26c0 0 1.128 4.79-.774 8.077z"/><path d="M92.153 227.553a15.698 15.698 0 0 1 8.096 6.027 21.128 21.128 0 0 1 3.386 7.67 36.792 36.792 0 0 1 .904 7.863q0 9.475-3.806 16.05-5.16 8.861-15.933 8.86H64.32v-47.502H84.8a25.033 25.033 0 0 1 7.353 1.032zm-18.197 7.218v31.002h9.167q7.036 0 9.812-6.927a24.411 24.411 0 0 0 1.517-9.057q0-7.25-2.276-11.134-2.275-3.883-9.053-3.883zm60.176 4.837a14.29 14.29 0 0 1 6.07 5.197 17.27 17.27 0 0 1 2.798 7.261 44.92 44.92 0 0 1 .303 6.973H117.72q.214 5.285 3.674 7.412a9.33 9.33 0 0 0 5.064 1.32 7.134 7.134 0 0 0 6.99-4.027h9.377a11.465 11.465 0 0 1-3.405 6.348q-4.72 5.124-13.215 5.125a19.149 19.149 0 0 1-12.373-4.322q-5.361-4.322-5.36-14.064 0-9.127 4.838-13.998a16.933 16.933 0 0 1 12.562-4.87 20.01 20.01 0 0 1 8.26 1.645zm-13.74 7.935a9.543 9.543 0 0 0-2.447 5.438h15.823a7.661 7.661 0 0 0-2.447-5.551 8.047 8.047 0 0 0-5.447-1.895 7.284 7.284 0 0 0-5.482 2.008zm50.446-7.935a14.29 14.29 0 0 1 6.07 5.197 17.27 17.27 0 0 1 2.799 7.261 44.921 44.921 0 0 1 .302 6.973h-25.584q.214 5.285 3.674 7.412a9.33 9.33 0 0 0 5.064 1.32 7.134 7.134 0 0 0 6.99-4.027h9.377a11.465 11.465 0 0 1-3.405 6.348q-4.72 5.124-13.215 5.125a19.149 19.149 0 0 1-12.373-4.322q-5.36-4.322-5.36-14.064 0-9.127 4.838-13.998a16.933 16.933 0 0 1 12.562-4.87 20.01 20.01 0 0 1 8.26 1.645zm-13.74 7.935a9.543 9.543 0 0 0-2.447 5.438h15.823a7.661 7.661 0 0 0-2.447-5.551 8.048 8.048 0 0 0-5.447-1.895 7.284 7.284 0 0 0-5.482 2.008zm57.096-4.875q4.298 4.544 4.298 13.342 0 9.281-4.201 14.146a13.634 13.634 0 0 1-10.817 4.867 11.342 11.342 0 0 1-7.006-2.095 13.523 13.523 0 0 1-2.984-3.383v18.305h-9.088v-48.954h8.798v5.19a14.771 14.771 0 0 1 3.178-3.61 11.728 11.728 0 0 1 7.33-2.353 13.892 13.892 0 0 1 10.492 4.545zm-7.049 6.605a6.536 6.536 0 0 0-6.072-3.125 6.905 6.905 0 0 0-6.934 4.737 17.784 17.784 0 0 0-.977 6.38q0 6.124 3.285 8.606a7.54 7.54 0 0 0 4.624 1.45 6.722 6.722 0 0 0 5.91-2.965 15.529 15.529 0 0 0 .164-15.082zm53.993-17.691a12.081 12.081 0 0 1 2.18 7.25 10.578 10.578 0 0 1-2.2 6.994 11.35 11.35 0 0 1-3.622 2.707 10.58 10.58 0 0 1 5.487 4.19 12.571 12.571 0 0 1 1.85 6.96 13.887 13.887 0 0 1-2.115 7.573 13.075 13.075 0 0 1-8.73 6.123 32.84 32.84 0 0 1-6.713.644h-21.403v-47.502h22.956q8.688.13 12.31 5.061zm-25.792 3.19v10.474h11.545a9.546 9.546 0 0 0 5.024-1.177q1.929-1.176 1.93-4.173 0-3.319-2.553-4.382a17.878 17.878 0 0 0-5.613-.743zm0 18.337v12.664h11.532a11.19 11.19 0 0 0 4.81-.837q3.123-1.547 3.123-5.93a5.101 5.101 0 0 0-3.026-5.092 12.004 12.004 0 0 0-4.746-.805zm60.177-13.501a14.298 14.298 0 0 1 6.07 5.197 17.27 17.27 0 0 1 2.798 7.261 44.86 44.86 0 0 1 .303 6.973H279.11q.214 5.285 3.673 7.412a9.335 9.335 0 0 0 5.064 1.32 7.136 7.136 0 0 0 6.99-4.027h9.377a11.47 11.47 0 0 1-3.404 6.348q-4.721 5.124-13.216 5.125a19.15 19.15 0 0 1-12.373-4.322q-5.36-4.322-5.36-14.064 0-9.127 4.839-13.998a16.933 16.933 0 0 1 12.561-4.87 20.016 20.016 0 0 1 8.262 1.645zm-13.74 7.935a9.544 9.544 0 0 0-2.448 5.438h15.824a7.663 7.663 0 0 0-2.447-5.551 8.05 8.05 0 0 0-5.447-1.895 7.283 7.283 0 0 0-5.482 2.008zm55.881-6.632q3.45 2.852 3.45 9.458v23.654h-9.41v-21.365a9.818 9.818 0 0 0-.736-4.254q-1.344-2.707-5.119-2.707a6.342 6.342 0 0 0-6.365 3.963 13.698 13.698 0 0 0-.897 5.35v19.013h-9.184v-35.062h8.894v5.125a15.59 15.59 0 0 1 3.337-3.9 11.565 11.565 0 0 1 7.156-2.127 13.464 13.464 0 0 1 8.874 2.852zm33.002 10.587a8.13 8.13 0 0 0-1.325-3.545 5.56 5.56 0 0 0-4.813-2.127q-4.653 0-6.364 4.608a19.122 19.122 0 0 0-.905 6.494 17.569 17.569 0 0 0 .905 6.203 6.142 6.142 0 0 0 6.203 4.383q3.23 0 4.587-1.74a8.644 8.644 0 0 0 1.647-4.512h9.378a15.362 15.362 0 0 1-3.032 7.927q-4.324 6.027-12.807 6.028-8.484 0-12.484-5.028-4-5.027-4-13.037 0-9.038 4.419-14.066 4.42-5.027 12.194-5.027 6.612 0 10.822 2.964 4.21 2.967 4.985 10.475zm40.939-12.406a10.296 10.296 0 0 1 4.348 3.451 9.194 9.194 0 0 1 1.764 4.049 50.077 50.077 0 0 1 .322 6.789v20.642h-9.378v-21.39a9.468 9.468 0 0 0-.96-4.58q-1.248-2.452-4.735-2.453a6.494 6.494 0 0 0-5.486 2.436q-1.872 2.436-1.871 6.952v19.035h-9.185v-47.34h9.185v16.758a11.233 11.233 0 0 1 4.604-4.27 12.963 12.963 0 0 1 5.503-1.208 14.865 14.865 0 0 1 5.889 1.129z"/></svg>