<svg xmlns="http://www.w3.org/2000/svg" role="img" viewBox="-10.20 3.30 894.40 189.40"><title>DeepDetect logo</title><path fill="#ef002f" d="M74.229 24.102c-20.649-5.44-41.55-3.477-62.44-1.423-4.094.403-4.723 2.25-4.699 5.761.125 17.813.058 35.627.058 53.44 0 18.148.023 36.294-.028 54.441-.007 2.557.1 4.462 3.469 4.732 18.27 1.468 36.55 2.63 54.686-1.005 16.009-3.207 29.905-10.123 39.034-24.417 8.296-12.99 10.505-27.357 9.611-42.49-1.452-24.572-15.854-42.758-39.691-49.039zm7.115 61.144c-1.428 14.772-7.758 25.996-22.925 30.493-5.335 1.581-10.833 1.405-16.32 1.613-3.62.137-3.526-1.812-3.52-4.34.048-17.31.025-34.622.025-51.934v-5.992c0-9.406 0-9.406 9.66-9.359 24.178-.169 35.372 15.802 33.08 39.52zm378.597-61.219c-20.326-5.328-40.901-3.296-61.466-1.505-4.776.416-5.45 2.609-5.406 6.715.184 17.48.078 34.961.078 52.442q0 27.22-.01 54.44c-.002 2.39-.273 4.617 3.251 4.906 18.436 1.514 36.888 2.693 55.179-1.029 15.809-3.216 29.559-10.088 38.629-24.199 8.337-12.97 10.63-27.318 9.725-42.453-1.494-24.973-15.834-42.989-39.98-49.317zm7.415 61.14c-1.402 14.755-7.689 26.024-22.86 30.545-5.168 1.54-10.49 1.463-15.817 1.638-3.356.11-4.176-1.069-4.14-4.257.154-13.648.065-27.298.065-40.947 0-6.825.3-13.668-.105-20.468-.271-4.542 1.173-6.425 5.692-5.962a37.934 37.934 0 0 0 3.993.016c24.209-.203 35.426 15.712 33.172 39.435z"/><path d="M346.35 51.857a38.775 38.775 0 0 0-24.4 9.509c-1.395-7.751-1.395-7.751-8.54-7.751-4.663 0-9.332.153-13.985-.044-4.384-.185-5.838 1.758-5.727 5.987q.48 18.211.525 36.434.112 36.714-.038 73.428c-.024 4.419 1.37 6.438 6.03 6.27 6.652-.241 13.319-.12 19.978-.039 3.585.044 5.2-1.57 5.083-5.134-.087-2.661-.017-5.328-.017-7.992v-24.513c23.533 13.045 49.163 1.046 56.769-21.112 4.7-13.693 4.82-27.408-.321-40.967-5.204-13.725-18.012-24.923-35.356-24.076zm4.79 59.581a13.84 13.84 0 0 1-15.7 6.773c-5.73-1.35-9.785-6.216-10.107-12.643-.241-4.807-.218-9.641-.029-14.452.281-7.152 5.053-12.946 11.237-14.013 7.19-1.242 13.167 2.353 15.972 9.677a31.515 31.515 0 0 1 1.755 11.345c-.115 4.25-.61 9.014-3.127 13.313zM137.171 58.606c-15.408 10.205-22.945 30.852-18.761 51.237 3.179 15.491 12.036 26.27 27.178 30.87 16.257 4.939 32.513 3.265 48.51-2.032 2.527-.837 2.834-2.12 2.285-4.456-1.024-4.362-1.864-8.774-2.584-13.198-.645-3.964-2.379-5.446-6.529-4.176a60.157 60.157 0 0 1-23.714 2.23c-6.824-.683-12.818-3.052-16.235-10.792 16.839 0 32.811-.006 48.784.008 2.002.002 4.042.367 4.384-2.594 1.606-13.88.7-27.307-7.684-39.152-11.528-16.285-37.552-19.92-55.634-7.945zm31.638 27.051c-3.136-.173-6.29-.04-9.435-.039-2.649 0-5.316-.195-7.943.044-4.554.413-4.119-1.648-2.573-4.582 2.713-5.148 7.173-7.593 13.038-7.092 5.147.438 7.882 3.632 9.529 8.161.933 2.57.258 3.667-2.616 3.508zm54.499-27.154c-15.285 10.036-23.017 30.667-19.051 50.686 2.81 14.188 10.197 24.935 23.934 30.222 17.412 6.7 34.869 4.796 52.195-.887 2.397-.786 2.481-2.07 2.03-4.13-.997-4.54-1.814-9.12-2.68-13.688-.683-3.614-2.387-5.107-6.3-3.902a60.553 60.553 0 0 1-23.71 2.294c-6.854-.654-12.896-2.979-16.425-10.809h5.662c14.323 0 28.647-.018 42.97.02 2.236.005 4.282.247 4.63-2.927 1.404-12.825.595-25.266-6.244-36.642-10.79-17.947-37.905-22.78-57.01-10.237zm31.56 27.154c-3.135-.175-6.289-.04-9.435-.04-2.814.001-5.639-.149-8.441.038-3.794.252-3.704-1.302-2.348-4.065 2.707-5.514 7.068-8.104 13.194-7.606 5.144.419 7.913 3.571 9.562 8.112.901 2.481.442 3.727-2.531 3.561zm268.576-27.256c-15.459 10.054-23.231 30.846-19.104 51.107 3.616 17.753 15.012 29.337 32.682 32.65a84.525 84.525 0 0 0 40.87-2.712c3.633-1.114 5.786-2.332 4.164-6.86-1.327-3.703-1.633-7.783-2.288-11.713-.669-4.008-2.597-5.229-6.652-3.986a59.425 59.425 0 0 1-23.717 2.176c-6.795-.71-12.76-3.099-16.033-10.774 16.922 0 32.91-.019 48.897.023 2.117.006 3.935.1 4.263-2.763 1.529-13.356.643-26.305-6.924-37.923-11.104-17.048-37.568-21.315-56.158-9.225zm31.277 27.255c-3.136-.18-6.29-.038-9.436-.038-2.483 0-4.967.018-7.45-.003-4.732-.04-5.148-.783-2.666-5.033 2.859-4.895 7.052-7.23 12.817-6.6 4.878.534 7.623 3.419 9.279 7.794.998 2.638.801 4.072-2.544 3.88zm113.595-27.158c-15.288 10.032-23.025 30.66-19.061 50.682 2.809 14.186 10.19 24.936 23.927 30.226 17.413 6.706 34.869 4.8 52.195-.878 2.387-.782 2.497-2.056 2.041-4.125-.999-4.54-1.814-9.12-2.68-13.688-.683-3.605-2.37-5.123-6.294-3.914a60.583 60.583 0 0 1-23.709 2.298c-6.858-.65-12.899-2.977-16.436-10.81h5.654q21.486 0 42.97.018c2.23.006 4.288.266 4.638-2.916 1.409-12.825.598-25.266-6.237-36.643-10.782-17.95-37.897-22.79-57.008-10.25zm31.44 27.182c-2.979-.193-5.98-.04-8.97-.04-2.659 0-5.318.016-7.976-.004-4.768-.034-5.155-.724-2.67-5.016 2.855-4.928 7.056-7.274 12.846-6.648 4.904.53 7.644 3.452 9.307 7.829.99 2.606.857 4.098-2.537 3.879z"/><path d="M639.895 77.628c.667 0 1.337-.048 1.999.008 3.783.321 5.582-1.252 5.4-5.19-.168-3.658-.034-7.329-.035-10.994-.002-7.738-.099-7.835-7.842-7.837-10.665-.004-10.665-.004-10.665-10.864 0-2.499.04-4.998-.008-7.496-.087-4.585-1.717-5.823-6.3-4.786q-5.59 1.265-11.156 2.627c-4.18 1.028-9.579.891-12.175 3.512-2.687 2.712-.966 8.23-.752 12.471.198 3.93-1.201 5.043-4.818 4.559-4.795-.641-6.686 1.616-6.346 6.36.25 3.48.046 6.993.05 10.492.006 6.976.01 7.168 6.904 7.055 3.307-.053 4.18.97 4.174 4.22-.023 11.815-.53 23.644.428 35.448 1.139 14.038 8.341 22.987 21.073 25.56 7.93 1.602 15.889.8 23.76-.943 2.542-.564 3.391-1.952 3.228-4.561-.239-3.817-.129-7.661-.047-11.49.144-6.698 1.082-9.24-8.358-8.579-7.51.527-9.469-1.583-9.628-9.196-.132-6.327-.028-12.66-.028-18.99 0-11.377 0-11.377 11.142-11.386zM866.78 125.01c.268-6.026.305-8.521-8.132-7.83-7.766.635-9.766-1.553-9.868-9.42-.115-8.82.141-17.648-.115-26.463-.095-3.265 1.045-3.93 3.954-3.723 3.313.235 6.656 0 9.983.07 3.058.062 4.69-1.203 4.665-4.4-.04-4.993-.023-9.987-.004-14.98.012-3.401-1.787-4.732-5.03-4.665-3.495.072-7-.137-10.484.066-2.456.143-3.129-.69-3.05-3.09.173-5.32.025-10.651.064-15.977.023-3.083-1.484-5.089-4.49-4.39-8.526 1.985-17.268 3.134-25.515 6.26-.004 4.799-.032 9.597 0 14.395.012 1.87-.397 2.983-2.647 3.305-5.915.848-8.344 3.832-8.36 9.664q-.014 5.708-.041 11.416c.714 2.594 2.862 2.651 4.805 2.327 5.08-.846 5.936 1.444 5.852 6.053-.205 11.133-.52 22.288.372 33.42 1.122 13.996 7.856 22.543 20.425 25.53 7.244 1.722 14.501.894 21.774-.163 4.225-.615 6.544-2.11 5.903-6.932a59.906 59.906 0 0 1-.06-10.473z"/><path fill="#fefefe" d="M807.174 70.4c-.041-1.273-.037-2.551-.047-3.834a58.117 58.117 0 0 0 .047 3.834zm11.181-20.49c-.067 2.105-.571 3.369-2.549 3.755 1.761-.256 2.519-1.378 2.549-3.755z"/><path d="M816.11 54.168c2.25-.322 2.66-1.436 2.648-3.305-.032-4.798-.004-9.596 0-14.394-1.144 4.243-.55 8.58-.409 12.843.007.208.008.406.006.598-.03 2.377-.788 3.499-2.549 3.755a8.085 8.085 0 0 1-1.998-.004c-2.107-.224-4.462-.515-5.871 1.731-.841 1.34-1.456.412-2.339.085a62.316 62.316 0 0 0-35.843-2.25c-17.265 3.861-29.5 13.857-34.102 31.305-4.649 17.628-2.403 34.11 11.395 47.439 12.027 11.618 43.069 15.693 57.213 7.84 1.612-.895 1.906-1.936 1.616-3.626-.9-5.245-1.593-10.526-2.491-15.772-.574-3.358-2.263-4.921-5.958-3.672a34.373 34.373 0 0 1-14.822 1.39c-7.123-.774-12.754-4.09-15.493-10.899-5.142-12.78-.892-32.283 21.353-30.53a31.659 31.659 0 0 1 7.34 1.32c4.115 1.35 6.228.216 6.992-4.145.918-5.233 2.23-10.396 3.37-15.59a28.78 28.78 0 0 1 .96 8.279c.009 1.283.005 2.56.046 3.834a26.452 26.452 0 0 0 .535 4.847l.043-11.415c.015-5.832 2.444-8.816 8.359-9.664z"/></svg>