<svg xmlns="http://www.w3.org/2000/svg" role="img" viewBox="-0.07 0.43 887.64 422.14"><title>Differential Privacy Library logo</title><defs><style>.cls-1{fill:#4095d1}.cls-2{fill:#ef4637}</style></defs><path d="M17.08 125.449c0-59.528 50.046-107.993 109.575-107.993 32.925 0 56.367 12.907 74.014 29.764L179.86 68.028c-12.643-11.852-29.764-21.07-53.206-21.07-43.46 0-77.44 35.031-77.44 78.49 0 43.462 33.979 78.494 77.44 78.494 28.183 0 44.25-11.327 54.523-21.6 8.43-8.428 13.96-20.544 16.067-37.138h-70.59v-29.5h99.3a96.11 96.11 0 0 1 1.58 18.438c0 22.125-6.058 49.518-25.55 69.01-18.963 19.754-43.197 30.29-75.33 30.29-59.53 0-109.574-48.465-109.574-107.993z" class="cls-1"/><path d="M307.787 94.368c-38.457 0-69.8 29.237-69.8 69.537 0 40.037 31.343 69.536 69.8 69.536 38.455 0 69.799-29.5 69.799-69.536 0-40.3-31.344-69.537-69.8-69.537zm0 111.68c-21.073 0-39.247-17.383-39.247-42.143 0-25.023 18.174-42.144 39.247-42.144 21.07 0 39.245 17.121 39.245 42.144 0 24.76-18.174 42.143-39.245 42.143z" class="cls-2"/><path fill="#ffc20e" d="M460.055 94.368c-38.457 0-69.8 29.237-69.8 69.537 0 40.037 31.343 69.536 69.8 69.536 38.455 0 69.8-29.5 69.8-69.536 0-40.3-31.345-69.537-69.8-69.537zm0 111.68c-21.071 0-39.247-17.383-39.247-42.143 0-25.023 18.176-42.144 39.247-42.144s39.245 17.121 39.245 42.144c0 24.76-18.174 42.143-39.245 42.143z"/><path d="M646.956 98.582v11.328h-1.053c-6.85-8.166-20.02-15.54-36.613-15.54-34.768 0-66.64 30.553-66.64 69.8 0 38.983 31.872 69.272 66.64 69.272 16.594 0 29.764-7.374 36.613-15.803h1.053v10.01c0 26.603-14.223 40.825-37.14 40.825-18.7 0-30.29-13.433-35.03-24.758l-26.604 11.062c7.638 18.438 27.92 41.09 61.635 41.09 35.822 0 66.113-21.072 66.113-72.434V98.583zm-35.031 107.466c-21.072 0-38.72-17.647-38.72-41.88 0-24.495 17.648-42.407 38.72-42.407 20.808 0 37.138 17.912 37.138 42.407 0 24.233-16.33 41.88-37.138 41.88z" class="cls-1"/><path fill="#30b455" d="M697 24.832h30.555v204.396H697z"/><path d="M811.316 206.048c-15.541 0-26.604-7.111-33.715-21.07l92.98-38.457-3.16-7.902c-5.796-15.54-23.443-44.25-59.53-44.25-35.822 0-65.584 28.183-65.584 69.536 0 38.983 29.499 69.536 69.009 69.536 31.87 0 50.309-19.49 57.947-30.817l-23.706-15.803c-7.901 11.59-18.7 19.227-34.241 19.227zm-2.371-84.813c12.117 0 22.389 6.059 25.813 14.75l-62.16 25.813c-.792-26.867 20.807-40.563 36.347-40.563z" class="cls-2"/><path fill="none" d="M15.594 17.285h856v279.846h-856z"/><path d="M108.065 329.887a19.649 19.649 0 0 1 10.134 7.544 26.454 26.454 0 0 1 4.239 9.6 46.04 46.04 0 0 1 1.13 9.843q0 11.86-4.764 20.09-6.459 11.094-19.943 11.093H73.224v-59.461h25.637a31.332 31.332 0 0 1 9.204 1.29zm-22.78 9.036v38.807h11.476q8.807 0 12.282-8.673a30.544 30.544 0 0 0 1.899-11.336q0-9.076-2.849-13.937-2.848-4.861-11.332-4.86zm58.493-.081H132.12v-10.61h11.658zm-11.658 5.244h11.658v43.97H132.12zm40.986-16.035q.886.062 2.42.182v9.359q-.968-.122-3.248-.182a3.737 3.737 0 0 0-3.146 1.01 3.656 3.656 0 0 0-.867 2.359v3.71h7.543v8.109h-7.543v35.459h-11.417v-35.46h-6.454v-8.108h6.293v-2.823q0-7.059 2.38-9.721 2.501-3.954 12.062-3.955 1.09 0 1.977.061zm27.511 0q.887.062 2.42.182v9.359q-.968-.122-3.247-.182a3.737 3.737 0 0 0-3.146 1.01 3.656 3.656 0 0 0-.868 2.359v3.71h7.544v8.109h-7.544v35.459H184.36v-35.46h-6.454v-8.108h6.293v-2.823q0-7.059 2.38-9.721 2.501-3.954 12.061-3.955 1.09 0 1.977.061zm37.971 16.926a17.89 17.89 0 0 1 7.599 6.505 21.618 21.618 0 0 1 3.503 9.09 56.195 56.195 0 0 1 .378 8.727h-32.024q.267 6.617 4.598 9.278a11.68 11.68 0 0 0 6.34 1.654 8.928 8.928 0 0 0 8.75-5.042h11.736q-.463 3.912-4.261 7.946-5.909 6.415-16.543 6.414a23.97 23.97 0 0 1-15.488-5.41q-6.71-5.41-6.71-17.604 0-11.424 6.058-17.521 6.057-6.097 15.723-6.098a25.04 25.04 0 0 1 10.341 2.06zm-17.2 9.932a11.94 11.94 0 0 0-3.062 6.806h19.807a9.592 9.592 0 0 0-3.063-6.948 10.076 10.076 0 0 0-6.818-2.37 9.119 9.119 0 0 0-6.863 2.512zm58.921-11.851q.22.02.988.06v11.78q-1.09-.122-1.937-.161a31.046 31.046 0 0 0-1.371-.041q-6.938 0-9.318 4.518-1.331 2.542-1.332 7.826v21.017h-11.577v-43.97h10.972v7.664a24.328 24.328 0 0 1 4.64-6.01 12.63 12.63 0 0 1 8.39-2.704c.215 0 .396.007.545.02zm36.377 1.919a17.89 17.89 0 0 1 7.599 6.505 21.618 21.618 0 0 1 3.503 9.09 56.194 56.194 0 0 1 .379 8.727h-32.025q.268 6.617 4.598 9.278a11.68 11.68 0 0 0 6.34 1.654 8.928 8.928 0 0 0 8.75-5.042h11.737q-.464 3.912-4.262 7.946-5.909 6.415-16.543 6.414a23.97 23.97 0 0 1-15.488-5.41q-6.71-5.41-6.71-17.604 0-11.424 6.058-17.521 6.057-6.097 15.723-6.098a25.04 25.04 0 0 1 10.341 2.06zm-17.2 9.932a11.94 11.94 0 0 0-3.062 6.806h19.807a9.592 9.592 0 0 0-3.062-6.948 10.076 10.076 0 0 0-6.82-2.37 9.119 9.119 0 0 0-6.862 2.512zm69.951-8.301q4.318 3.57 4.318 11.84v29.609h-11.779v-26.745a12.283 12.283 0 0 0-.92-5.325q-1.683-3.389-6.407-3.39-5.808 0-7.97 4.963a17.158 17.158 0 0 0-1.12 6.696v23.8H334.06v-43.889h11.134v6.414a19.486 19.486 0 0 1 4.178-4.88 14.471 14.471 0 0 1 8.958-2.664 16.855 16.855 0 0 1 11.106 3.57zm10.49 6.071v-8.19h6.132v-12.262h11.376v12.262h7.14v8.19h-7.14v23.235q0 2.704.686 3.37.685.664 4.195.664c.35 0 .72-.005 1.11-.02q.583-.02 1.149-.06v8.592l-5.446.202q-8.149.282-11.134-2.824-1.936-1.976-1.936-6.09v-27.07zm43.849-13.837h-11.658v-10.61h11.658zm-11.658 5.244h11.658v43.97h-11.658zm40.208 17.226a18.164 18.164 0 0 0 4.592-1.01 3.459 3.459 0 0 0 2.48-3.267 3.864 3.864 0 0 0-1.902-3.731 12.024 12.024 0 0 0-5.582-1.028q-4.13 0-5.847 2.016a8.307 8.307 0 0 0-1.636 4.034h-11.093a16.817 16.817 0 0 1 3.24-9.48q4.578-5.809 15.72-5.809a28.036 28.036 0 0 1 12.884 2.865q5.631 2.865 5.631 10.811v20.17q0 2.098.081 5.083a6.378 6.378 0 0 0 .686 3.065 4.11 4.11 0 0 0 1.694 1.331v1.695h-12.506a12.751 12.751 0 0 1-.725-2.501q-.203-1.17-.324-2.662a23.748 23.748 0 0 1-5.517 4.396 16.685 16.685 0 0 1-8.44 2.138 14.558 14.558 0 0 1-9.92-3.408q-3.918-3.409-3.917-9.661 0-8.11 6.3-11.74 3.453-1.976 10.16-2.823zm7.03 5.365a12.764 12.764 0 0 1-2.228 1.11 18.897 18.897 0 0 1-3.088.785l-2.618.485a17.221 17.221 0 0 0-5.284 1.573 5.25 5.25 0 0 0-2.716 4.88 5.097 5.097 0 0 0 1.66 4.257 6.303 6.303 0 0 0 4.034 1.311 12.019 12.019 0 0 0 6.943-2.178q3.175-2.179 3.297-7.948zm33.241 21.38H481.1v-59.461h11.497zm75.014-25.737q-5.22 4.357-14.912 4.357h-12.381v21.38h-12.344v-59.461h25.531q8.83 0 14.078 4.599 5.25 4.6 5.25 14.24 0 10.528-5.222 14.886zm-9.483-21.42a10.008 10.008 0 0 0-6.613-1.977h-11.197v17.508h11.197a9.495 9.495 0 0 0 6.613-2.139q2.36-2.137 2.36-6.776 0-4.64-2.36-6.616zm48.167 2.158q.22.02.988.06v11.78q-1.09-.122-1.937-.161a31.068 31.068 0 0 0-1.37-.041q-6.94 0-9.32 4.518-1.33 2.542-1.331 7.826v21.017h-11.577v-43.97h10.972v7.664a24.328 24.328 0 0 1 4.639-6.01 12.63 12.63 0 0 1 8.39-2.704q.323 0 .546.02zm19.543-4.216H614.18v-10.61h11.659zm-11.658 5.244h11.659v43.97H614.18zm49.88 0h12.344l-15.878 43.97h-12.122l-15.769-43.97h12.91l9.157 32.434zm36.275 17.226a18.164 18.164 0 0 0 4.591-1.01 3.459 3.459 0 0 0 2.48-3.267 3.864 3.864 0 0 0-1.901-3.731 12.024 12.024 0 0 0-5.582-1.028q-4.13 0-5.847 2.016a8.307 8.307 0 0 0-1.636 4.034h-11.094a16.817 16.817 0 0 1 3.242-9.48q4.577-5.809 15.72-5.809a28.036 28.036 0 0 1 12.883 2.865q5.63 2.865 5.63 10.811v20.17q0 2.098.082 5.083a6.378 6.378 0 0 0 .686 3.065 4.11 4.11 0 0 0 1.694 1.331v1.695h-12.506a12.751 12.751 0 0 1-.726-2.501q-.202-1.17-.323-2.662a23.747 23.747 0 0 1-5.517 4.396 16.685 16.685 0 0 1-8.44 2.138 14.558 14.558 0 0 1-9.92-3.408q-3.918-3.409-3.917-9.661 0-8.11 6.3-11.74 3.453-1.976 10.16-2.823zm7.03 5.365a12.764 12.764 0 0 1-2.229 1.11 18.897 18.897 0 0 1-3.088.785l-2.617.485a17.221 17.221 0 0 0-5.284 1.573 5.25 5.25 0 0 0-2.716 4.88 5.097 5.097 0 0 0 1.66 4.257 6.303 6.303 0 0 0 4.034 1.311 12.019 12.019 0 0 0 6.943-2.178q3.174-2.179 3.297-7.948zm47.804-6.817a10.188 10.188 0 0 0-1.659-4.438q-1.942-2.663-6.025-2.662-5.823 0-7.966 5.769a23.949 23.949 0 0 0-1.132 8.127 22.018 22.018 0 0 0 1.132 7.766q2.063 5.486 7.764 5.486 4.044 0 5.742-2.178a10.824 10.824 0 0 0 2.063-5.648h11.739a19.238 19.238 0 0 1-3.796 9.924q-5.413 7.544-16.03 7.543-10.622 0-15.628-6.293-5.007-6.293-5.007-16.318 0-11.313 5.531-17.608 5.533-6.293 15.265-6.293 8.278 0 13.547 3.712t6.239 13.11zm21.379 36.628l1.453.08a18.102 18.102 0 0 0 3.227-.12 5.801 5.801 0 0 0 2.582-.928 6.212 6.212 0 0 0 1.875-2.865 6.922 6.922 0 0 0 .747-2.662l-16.156-45.907h12.787l9.602 32.434 9.076-32.434h12.222L798.89 387.33q-4.37 12.506-6.914 15.511-2.544 3.006-10.177 3.006-1.535 0-2.462-.02-.93-.021-2.788-.141z"/></svg>