<svg xmlns="http://www.w3.org/2000/svg" role="img" viewBox="-3.39 -4.89 313.78 462.28"><title>Doozer logo</title><defs><style>.cls-1{fill:#fefefe}.cls-3{fill:#f8bd3c}.cls-5{fill:#666}.cls-6{fill:#676767}</style></defs><path d="M150.009 382.173h-147v-4.386q0-184.611-.11-369.223C2.895 4.58 4.059 4.08 7.611 4.09q68.199.192 136.398.084c2.43 5.943 1.338 12.062.733 18.11-.198 1.975-2.17 2.843-3.943 3.452-22.425 7.711-36.49 23.553-44.303 45.49a6.236 6.236 0 0 1-1.225 2.153 6.502 6.502 0 0 0-4.238 4.976c-1.366 5.984-1.563 12.092-2.327 18.137-.231 1.83.981 3.076 1.806 4.482.582 7.102-1.853 13.399-7.289 17.54-4.572 3.483-6.58 7.088-5.453 12.566-6.906 7.845-13.816 15.764-22.537 21.648-9.545 6.44-19.716 6.181-29.94 1.45a59.832 59.832 0 0 1-13.744-8.99c-.887-.759-2.087-1.57-3.11-.543-1.043 1.048-.216 2.26.62 3.06 14.438 13.82 38.685 20.841 56.246 1.347 2.914-3.234 5.1-7.51 10.098-8.266 2.177 1.483.973 3.253.295 4.846-1.233 2.9-2.922 5.593-4.045 8.546-10.409 27.369-5.989 52.726 10.385 76.463 1.589 2.304 3.753 4.247 4.501 7.084-3.571 7.049-14.618 9.525-23.102 4.689.652 5.452 2.723 9.446 7.171 12.044 5.16 3.013 10.845 4.116 16.74 4.453 5.676.325 6.742 1.976 4.56 7.36-3.838 9.468-9.869 16.903-19.654 20.83a71.787 71.787 0 0 0-9.462 4.797 26.996 26.996 0 0 0 15.117 5.897 44.481 44.481 0 0 0 12.942-.608c1.405-.324 3.167-1.023 4.213.379 1.165 1.56.05 3.22-.747 4.64-4.854 8.637-11.052 15.774-20.793 19.23-2.156.765-6.08.7-5.88 3.427.183 2.47 3.879 3.311 6.328 4.191 9.15 3.288 18.052 1.742 26.784-1.795.927-.375 1.798-.886 2.727-1.246 2.102-.816 4.596-3.289 6.352-1.51 2.077 2.105-.43 4.644-1.694 6.652-4.583 7.28-11.26 12.123-19.743 15.99 10.595 2.735 20.24 2.854 29.578-1.896 10.555-5.369 9.379-4.274 11.609 5.278 2.32 9.936 8.786 17.39 15.603 24.591 1.942 2.051 5.142 3.403 4.82 7.056z" class="cls-1"/><path d="M175.009 4.173q62.25 0 124.5-.083c2.983-.01 3.583.601 3.581 3.583q-.142 185.5 0 371c.002 2.982-.598 3.59-3.581 3.584q-74.25-.176-148.5-.084c-3.497-7.906-3.751-16.114-1.857-24.38a49.895 49.895 0 0 1 6.34-15.688c2.957-4.663 4.357-4.51 7.128.452 2.94 5.263 3.841 10.9 3.73 16.855-.094 5.064.71 5.393 5.04 2.929a37.976 37.976 0 0 0 15.418-16.567c2.964-5.937 3.642-5.944 8.52-1.654 7.362 6.476 15.953 9.622 26.88 9.817-6.209-6.515-9.132-13.571-12.039-20.633-.693-1.684-1.688-3.504-.1-5.114 1.37-1.39 3.16-.76 4.728-.25a41.443 41.443 0 0 0 20.232 1.338 12.337 12.337 0 0 0 3.353-.975c2.32-1.14 5.946-1.682 5.948-4.509.003-2.381-3.564-2.476-5.669-3.195-11.114-3.796-17.418-12.368-22.417-22.264-.588-1.163-1.286-2.584-.266-3.759 1.07-1.232 2.527-.452 3.718-.03 6.007 2.126 12.058 3.782 18.548 3.35a27.35 27.35 0 0 0 11.481-3.08c1.281-.697 3.102-1.228 3.099-2.925-.005-1.945-2.076-1.947-3.387-2.334-12.144-3.585-19.505-12.234-24.728-23.164-2.692-5.635-1.983-6.668 4.29-7.628 6.609-1.011 13.205-2.16 17.87-7.802a12.763 12.763 0 0 0 3.418-8.187c-7.79 3.857-13.986 3.21-18.82-1.785-.532-2.631 1.043-4.438 2.546-6.196 12.49-14.606 18.213-31.91 19.456-50.715.675-10.208-1.963-20.075-5.745-29.593-1.019-2.563-2.774-4.993-2.155-8.019a1.871 1.871 0 0 1 1.608-1.015c12.12.83 22.3-4.338 32.127-10.468a141.71 141.71 0 0 0 16.847-12.424c1.16-.989 3.413-2.257 2.184-3.858-1.21-1.574-3.067.12-4.27 1.114a154.359 154.359 0 0 1-17.886 12.702c-7.524 4.602-15.163 8.935-24.475 8.98-6.158.03-9.977-2.82-12.299-8.223a6.845 6.845 0 0 1 .879-2.8c2.253-5.191 1.737-6.993-2.855-10.506-4.01-3.068-7.635-6.388-7.188-12.116.535-1.541 1.362-3.028 1.02-4.75-1.155-5.81-1.485-11.724-2.217-17.587-.284-2.273-1.083-4.105-3.272-5.11-1.458-1.73-1.703-3.929-2.33-5.981-7.024-22.98-20.909-39.765-43.901-48.099-4.298-1.558-6.283-4.067-5.824-8.509.469-4.545-1.273-9.3 1.292-13.645z" class="cls-1"/><path fill="#603813" d="M231.827 241.136a62.521 62.521 0 0 0 7.534 2.586c4.418.94 8.764 1.138 10.475-5.505 3.29 5.51 1.517 9.476-1.235 13.116-4.982 6.59-12.507 8.132-19.99 8.688-5.156.384-4.755 2.019-2.957 5.6 5.344 10.647 12.406 19.3 24.476 22.685a12.678 12.678 0 0 1 5.76 2.776c-6.344 9.095-19.516 10.4-39.55 3.724 2.542 7.538 6.995 13.28 12.259 18.585 5.373 5.415 13.15 6.123 19.482 9.867-7.924 8.442-15.193 9.333-38.798 4.766 4.426 9.486 6.883 19.435 16.34 26.572-14.788 1.836-25.723-3.586-35.378-13.257-4.49 12.208-12.625 20.552-24.889 25.234-.509-17.093-1.129-19.81-6.568-27.835-5.482 9.614-10.226 18.911-9.271 30.07.382 4.465.988 8.91 1.492 13.365h-1c-2.34-3.853-6.047-6.44-9.017-9.715-7.667-8.453-13.733-17.613-13.876-30.732-13.288 8.912-26.98 10.986-42.934 5.446 12.58-4.142 20.946-11.476 25.806-22.647-6.428 3.203-12.807 6.23-19.93 7.222-8.574 1.194-16.562-.09-23.741-5.288-2.458-1.78-2.278-2.918.444-3.948 1.868-.707 3.704-1.51 5.604-2.115 11.218-3.574 17.476-12.102 22.93-22.92-13.027 3.869-24.55 2.575-35.202-5.664 3.997-2.813 8.343-4.35 12.514-6.16 9.915-4.302 15.323-12.4 19.116-21.985.945-2.388.358-3.283-2.266-3.28a41.489 41.489 0 0 1-17.926-3.886c-7.308-3.444-10.683-10.595-8.185-16.908 5.57 6.459 13.315 5.99 22.738-1.378.898-2.958 3.786-4.057 5.722-6.034q9.56-9.764 19.318-19.335a49.54 49.54 0 0 1 20.85-12.099 9.865 9.865 0 0 1 6.339-.218 5.389 5.389 0 0 1 1.335.654c12.392 9.41 25.078 10.247 38.122 1.353a7.637 7.637 0 0 1 2.735-1.147c8.85.492 15.585 5.41 21.773 10.99 9.731 8.774 18.058 19.041 28.51 27.074a4.409 4.409 0 0 1 1.039 1.683z"/><path d="M175.009 4.173c-.018 5.317.048 10.637-.09 15.95-.063 2.36.752 3.451 3.08 4.247 26.833 9.168 41.86 28.643 48.19 55.617a3.848 3.848 0 0 1-2.678 2.741c-7.164 2.686-14.318 5.447-22.12 5.64-3.84-.567-4.539-4.01-6.023-6.686-8.264-14.894-21.053-22.548-37.912-22.056-14.562.425-25.923 7.458-33.685 19.97-1.031 1.663-1.662 3.695-3.86 4.328-8.601-1.1-16.14-5.162-23.894-8.61a2.122 2.122 0 0 1-1.392-2.35c7.462-23.542 22.118-40.323 45.837-48.422 2.654-.907 3.777-2.02 3.655-4.878-.22-5.156-.091-10.326-.108-15.49z" class="cls-3"/><path fill="#8faf54" d="M137.55 200.947c-10.469 1.402-19.068 6.452-26.582 13.62-7.933 7.568-14.795 16.241-23.614 22.894a12.96 12.96 0 0 1-1.27.754c-13.949-16.81-21.711-35.843-21.386-57.978.182-12.449 3.924-23.78 9.45-34.718.708-1.4 2.778-2.716 1.073-4.743 1.117-3.456 3.647-5.243 7.072-5.985a126.665 126.665 0 0 0 46.46 14.269c32.844 3.653 65.419 3.209 96.846-9.024 2.786-1.084 5.234-2.938 8.225-3.512 5.047 1.981 8.114 6.459 12.17 9.695 3.12 8.545 7.063 16.828 8.067 26.035 2.627 24.067-4.261 45.23-19.355 63.938-1.19 1.475-3.215 2.55-2.878 4.945-9.45-5.513-16.397-13.82-23.816-21.556-7.681-8.01-15.997-14.885-27.02-17.719-.242-1.905 1.165-3.021 2.112-4.34 9.672-13.464 4.366-28.958-11.598-33.216-9.35-2.493-18.775-2.715-27.798 1.52-12.464 5.851-15.992 19.014-8.388 30.497.927 1.4 2.946 2.393 2.23 4.624z"/><path d="M234.865 137.077c-20.123 10.704-41.955 14.282-64.365 15.122-21.326.799-42.533-.117-63.258-5.966-9.157-2.585-18.081-5.677-25.977-11.178-2.32-.26-3.481-1.711-3.962-3.86-2.5-6.55-2.127-8.233 3.407-12.01 6.312-4.308 7.935-10.968 9.393-17.775 1.33-.901 2.571-.215 3.73.328 7.93 3.719 16.182 6.633 24.313 9.855 1.735 1.219 2.385 3.122 3.164 4.962a40.867 40.867 0 0 0 60.6 17.849 42.545 42.545 0 0 0 12.562-13.277c1.034-1.684 1.824-3.582 3.666-4.642 9.498-2.404 18.925-5.045 28.185-8.268 1.373-.478 2.844-1.085 4.284-.058a18.821 18.821 0 0 0 7.057 10.578c6.99 5.13 7.271 7.465 1.94 14.643-.677 2.39-2.468 3.351-4.739 3.697z" class="cls-3"/><path d="M117.996 112.266c-9.803-2.321-18.744-6.86-27.893-10.857-1.319-1.08-3.344-1.506-2.948-4.006 1.157-7.326 1.21-14.798 3.135-22.036.704-2.647 1.746-3.662 4.337-2.403 7.943 4.653 16.627 7.493 25.319 10.311 1.059 1.151.779 2.506.378 3.743-2.24 6.919-2.236 13.967-1.388 21.082.177 1.486.292 2.985-.94 4.166z" class="cls-5"/><path d="M77.303 131.195l3.961 3.86c-1.227 2.742-4.318 3.516-6.046 5.724-2.799 2.836-5.678 5.603-8.389 8.526-13.277 14.321-29.193 17.086-46.487 8a59.233 59.233 0 0 1-12.575-8.917c-1.713-1.575-3.156-3.41-1.092-5.495 1.816-1.833 3.58-.652 5.176.837a50.655 50.655 0 0 0 15.41 9.972c12.396 5.077 23.484 3.003 32.955-6.505 5.515-5.536 10.829-11.268 17.087-16.002z" class="cls-6"/><path d="M230.607 108.16c-10.723 3.465-21.21 7.784-32.552 9.016-1.256-1.535-.608-3.178-.128-4.713 1.968-6.289 2.019-12.67 1.199-19.13-.265-2.08-.901-4.358 1.68-5.627 8.665-1.904 17.385-3.625 25.383-7.719 2.372-.952 3.491-.345 3.864 2.39 1 7.34.966 14.824 2.897 22.03.605 2.258-1.111 2.788-2.343 3.752z" class="cls-5"/><path d="M234.865 137.077l4.739-3.696c6.998 7.806 11.214 8.98 21.121 5.433 11.78-4.217 21.73-11.503 31.41-19.194 1.173-.932 2.284-1.946 3.486-2.84 1.496-1.114 3.118-1.365 4.478.125 1.4 1.532.945 3.118-.46 4.386a106.863 106.863 0 0 1-5.733 4.825c-8.949 6.998-18.241 13.459-28.872 17.697-6.117 2.438-12.41 3.836-19.039 2.406-4.948-1.54-8.095-5.273-11.13-9.142z" class="cls-6"/><path fill="#fe89fe" d="M137.55 200.947c-6.84-6.793-9.627-14.76-6.297-24.09 3.276-9.181 10.733-13.1 19.79-14.72a46.633 46.633 0 0 1 21.753 1.087c17.22 5.132 22.097 23.628 9.814 36.772-.562.602-1.082 1.244-1.62 1.867-16.423 11.315-29.052 11.05-43.44-.916z"/><path fill="#8dab51" d="M163.953 230.012c2.817.698 4.021 3.154 5.778 5.486a119.627 119.627 0 0 1-25.498.03c1.61-2.955 3.228-4.799 5.859-5.621a16.708 16.708 0 0 1 13.86.105z"/><path fill="#040301" d="M163.953 230.012a57.222 57.222 0 0 1-13.86-.105c.685-3.177 3.619-4.558 5.467-6.805a1.72 1.72 0 0 1 2.946.092c1.78 2.302 4.812 3.607 5.447 6.818z"/><path fill="#999998" d="M200.807 87.706a3.788 3.788 0 0 0-.74 3.277c2.157 8.955.933 17.637-2.012 26.193-7.141 14.393-18.227 23.235-34.54 25.228a42.056 42.056 0 0 1-43.353-25.119c-.705-1.68-1.443-3.347-2.166-5.02-1.728-9.823-1.59-19.521 1.95-28.99 4.383-7.311 9.302-14 16.777-18.687 20.538-12.874 48.4-5.393 59.65 16.171 1.258 2.413 1.497 5.575 4.434 6.947z"/><path fill="#060705" d="M200.057 165.797c-.205 2.987-1.898 5.286-5.683 5.576a5.734 5.734 0 0 1-6.52-5.828c.002-3.697 1.946-5.904 5.635-6.267 3.555-.35 6.438 2.345 6.568 6.52z"/><path fill="#050603" d="M118.201 165.242a6.26 6.26 0 0 1 7-5.946c3.66.587 5.471 3.01 5.393 6.606-.075 3.434-3.335 5.916-6.932 5.459-3.79-.481-5.25-2.997-5.46-6.12z"/><path d="M158.92 136.138a35.903 35.903 0 0 1-35.68-35.662c-.225-19.218 16.178-35.436 35.817-35.413a35.7 35.7 0 0 1 35.698 35.549c.049 19.365-16.26 35.534-35.834 35.526z" class="cls-1"/><path fill="#ececec" d="M192.539 165.642c-1.108-.078-1.822-.597-1.844-1.78a1.546 1.546 0 0 1 1.325-1.736 1.605 1.605 0 0 1 2.09 1.429c.171 1.174-.494 1.803-1.571 2.087z"/><path fill="#c3c3c3" d="M124.847 163.621a1.881 1.881 0 0 1-1.604 2.109 1.794 1.794 0 0 1-2.236-1.897 1.735 1.735 0 0 1 1.8-1.857 1.847 1.847 0 0 1 2.04 1.645z"/><path fill="#ccc" d="M135.487 91.318c4.299-10.07 14.5-15.151 26.376-14.248 9.572.728 19.484 9.07 22.528 19.824a25.103 25.103 0 0 1-9.877 27.426c6.96-14.609 5.982-26.44-3.155-34.088-8.13-6.805-20.996-11.428-35.872 1.086z"/><path d="M46.893 384.93a21.092 21.092 0 0 1 10.875 8.095 28.4 28.4 0 0 1 4.55 10.304 49.41 49.41 0 0 1 1.213 10.564q0 12.728-5.112 21.56-6.933 11.905-21.404 11.904H9.502v-63.812h27.513a33.606 33.606 0 0 1 9.878 1.385zm-24.447 9.697v41.647h12.315q9.453 0 13.182-9.307a32.787 32.787 0 0 0 2.038-12.165q0-9.741-3.058-14.958-3.057-5.216-12.162-5.217zm89.442 46.958q-5.974 7.374-18.139 7.374-12.166 0-18.14-7.374a29.28 29.28 0 0 1 0-35.448q5.975-7.483 18.14-7.484 12.165 0 18.14 7.484a29.277 29.277 0 0 1 0 35.448zm-9.87-6.82q2.9-3.847 2.9-10.937t-2.9-10.915a9.808 9.808 0 0 0-8.312-3.826 9.866 9.866 0 0 0-8.334 3.826q-2.922 3.825-2.922 10.915 0 7.09 2.922 10.938a9.842 9.842 0 0 0 8.334 3.846 9.785 9.785 0 0 0 8.312-3.846zm64.029 6.82q-5.974 7.374-18.14 7.374-12.165 0-18.139-7.374a29.28 29.28 0 0 1 0-35.448q5.975-7.483 18.139-7.484 12.165 0 18.14 7.484a29.277 29.277 0 0 1 0 35.448zm-9.87-6.82q2.898-3.847 2.9-10.937 0-7.09-2.9-10.915a10.965 10.965 0 0 0-16.646 0q-2.922 3.825-2.922 10.915 0 7.09 2.922 10.938a10.927 10.927 0 0 0 16.645 0zm21.992-24.552v-10.044h37.317v10.26l-23.154 26.798h23.976v10.13h-39.785v-9.61l23.392-27.534zm77.765-9.088a19.196 19.196 0 0 1 8.155 6.98 23.202 23.202 0 0 1 3.76 9.756 60.369 60.369 0 0 1 .406 9.366h-34.369q.288 7.1 4.935 9.957a12.531 12.531 0 0 0 6.803 1.775 9.586 9.586 0 0 0 9.39-5.412h12.597q-.498 4.2-4.574 8.53-6.342 6.882-17.753 6.882a25.721 25.721 0 0 1-16.622-5.806q-7.201-5.805-7.2-18.892 0-12.261 6.5-18.804 6.5-6.543 16.875-6.544a26.86 26.86 0 0 1 11.097 2.212zm-18.458 10.658a12.824 12.824 0 0 0-3.287 7.305h21.257q-.337-4.913-3.287-7.457a10.814 10.814 0 0 0-7.317-2.544q-4.753 0-7.366 2.696zm63.232-12.719q.237.024 1.06.066v12.641q-1.169-.13-2.078-.173-.91-.043-1.472-.043-7.447 0-10 4.848-1.429 2.728-1.43 8.399v22.555h-12.424V400.17h11.775v8.226a26.13 26.13 0 0 1 4.979-6.452 13.559 13.559 0 0 1 9.005-2.9c.23 0 .425.008.585.021z"/></svg>