<svg xmlns="http://www.w3.org/2000/svg" role="img" viewBox="-0.90 -2.40 592.80 565.80"><title>Dopamine logo</title><path fill="none" d="M377.122 289.163v-95.731l-87.698-48.438-87.697 48.438v95.731l87.697 48.423 87.698-48.423z"/><path fill="#fbbc05" d="M407.344 306.99V175.595l-117.92-65.124-117.92 65.124v131.393l117.92 65.13zM201.727 193.431l87.697-48.438 87.698 48.438v95.73l-87.698 48.424-87.698-48.423z"/><path fill="#34a853" d="M454.884 156.925L289.532 61.729l-160.411 92.12-35.138-64.61a46.57 46.57 0 1 0-25.56 16.265l48.931 89.96 171.962-98.76 152.37 85.512a14.694 14.694 0 1 0 13.198-25.291z"/><path fill="#ea4335" d="M449.852 296.408a15.342 15.342 0 0 0-10.854 4.48l-149.682 88.46-171.962-98.76-26.573 48.855a44.953 44.953 0 1 0 24.572 18.077l13.768-25.316 160.411 92.12 166.814-98.584a15.383 15.383 0 0 0-6.494-29.332z"/><path fill="#4285d4" d="M534.107 9.304a46.572 46.572 0 0 0-40.614 69.371l-25.211 35.332L289.425 13.635l-151.379 86.923a15.376 15.376 0 1 0 14.894 26.049l136.485-80.661 185.85 108.16L517.15 99.26a46.576 46.576 0 1 0 16.958-89.956z"/><path d="M143.431 480.21a18.798 18.798 0 0 1 9.695 7.217 25.31 25.31 0 0 1 4.055 9.185 44.048 44.048 0 0 1 1.081 9.416q0 11.345-4.557 19.219-6.179 10.613-19.08 10.612H110.1v-56.884h24.526a29.978 29.978 0 0 1 8.805 1.235zm-21.792 8.645v37.125h10.978q8.426 0 11.75-8.298a29.226 29.226 0 0 0 1.816-10.844q0-8.682-2.724-13.333-2.726-4.65-10.842-4.65zm79.731 41.858q-5.326 6.575-16.17 6.574-10.845 0-16.17-6.574a26.098 26.098 0 0 1 0-31.599q5.325-6.67 16.17-6.67 10.844 0 16.17 6.67a26.099 26.099 0 0 1 0 31.6zm-8.8-6.078q2.586-3.43 2.586-9.75t-2.585-9.73a9.774 9.774 0 0 0-14.839 0q-2.605 3.41-2.605 9.73t2.605 9.75a9.741 9.741 0 0 0 14.839 0zm57.373-26.325q5.146 5.442 5.146 15.977 0 11.114-5.03 16.942a16.328 16.328 0 0 1-12.953 5.827 13.584 13.584 0 0 1-8.39-2.509 16.202 16.202 0 0 1-3.574-4.052v21.92H214.26v-58.62h10.536v6.213a17.697 17.697 0 0 1 3.806-4.322 14.043 14.043 0 0 1 8.778-2.818 16.634 16.634 0 0 1 12.564 5.442zm-8.442 7.911q-2.242-3.742-7.27-3.743a8.269 8.269 0 0 0-8.305 5.672 21.308 21.308 0 0 0-1.17 7.642q0 7.332 3.935 10.304a9.03 9.03 0 0 0 5.537 1.736 8.049 8.049 0 0 0 7.078-3.55q2.437-3.55 2.438-9.455a16.428 16.428 0 0 0-2.243-8.606zm38.006 4.052a17.42 17.42 0 0 0 4.393-.965 3.309 3.309 0 0 0 2.371-3.125 3.695 3.695 0 0 0-1.819-3.57 11.49 11.49 0 0 0-5.34-.985q-3.95 0-5.593 1.93a7.95 7.95 0 0 0-1.565 3.86h-10.613a16.092 16.092 0 0 1 3.101-9.07q4.38-5.557 15.039-5.557a26.812 26.812 0 0 1 12.325 2.74q5.386 2.74 5.387 10.342v19.297q0 2.007.077 4.863a6.111 6.111 0 0 0 .656 2.932 3.945 3.945 0 0 0 1.62 1.274v1.62h-11.963a12.204 12.204 0 0 1-.694-2.392q-.193-1.118-.308-2.547a22.683 22.683 0 0 1-5.28 4.206 15.947 15.947 0 0 1-8.074 2.046 13.932 13.932 0 0 1-9.49-3.261q-3.747-3.261-3.746-9.243 0-7.757 6.026-11.23 3.304-1.89 9.72-2.702zm6.726 5.133a12.18 12.18 0 0 1-2.133 1.061 18.043 18.043 0 0 1-2.953.753l-2.504.462a16.505 16.505 0 0 0-5.055 1.505 5.024 5.024 0 0 0-2.599 4.67 4.879 4.879 0 0 0 1.587 4.072 6.033 6.033 0 0 0 3.86 1.254 11.497 11.497 0 0 0 6.642-2.084q3.037-2.084 3.155-7.602zm73.054-21.456a12.23 12.23 0 0 1 4.901 3.78 12.093 12.093 0 0 1 2.393 5.403 37.445 37.445 0 0 1 .386 6.214l-.078 26.512h-11.268v-26.782a8.802 8.802 0 0 0-.772-3.937q-1.468-2.932-5.403-2.932-4.554 0-6.29 3.782a11.872 11.872 0 0 0-.889 4.823v25.046h-11.075v-25.046a14.085 14.085 0 0 0-.771-5.441q-1.39-3.049-5.442-3.049-4.71 0-6.33 3.049a11.745 11.745 0 0 0-.887 5.171v25.316h-11.153v-41.988h10.69v6.137a17.672 17.672 0 0 1 3.86-4.67 15.27 15.27 0 0 1 16.092-.348 12.35 12.35 0 0 1 3.627 5.056 13.988 13.988 0 0 1 5.364-5.441 16.368 16.368 0 0 1 7.565-1.737 14.643 14.643 0 0 1 5.48 1.081zm29.098-5.172h-11.153v-10.15h11.153zm-11.153 5.016h11.153v42.065h-11.153zm55.724 2.413q4.132 3.414 4.131 11.326v28.326H425.82v-25.586a11.753 11.753 0 0 0-.88-5.094q-1.611-3.242-6.131-3.241-5.555 0-7.624 4.746a16.42 16.42 0 0 0-1.072 6.406v22.77h-10.999v-41.99h10.652v6.137a18.607 18.607 0 0 1 3.996-4.67 13.843 13.843 0 0 1 8.57-2.547 16.121 16.121 0 0 1 10.625 3.416zm41.77-1.561a17.114 17.114 0 0 1 7.268 6.224 20.676 20.676 0 0 1 3.352 8.696 53.723 53.723 0 0 1 .362 8.349H455.07q.256 6.328 4.399 8.875a11.168 11.168 0 0 0 6.064 1.582 8.542 8.542 0 0 0 8.371-4.823h11.229q-.444 3.744-4.077 7.602-5.652 6.137-15.826 6.136a22.928 22.928 0 0 1-14.817-5.176q-6.419-5.175-6.419-16.84 0-10.93 5.795-16.763 5.794-5.832 15.042-5.832a23.954 23.954 0 0 1 9.894 1.97zm-16.454 9.502a11.424 11.424 0 0 0-2.93 6.511h18.948a9.178 9.178 0 0 0-2.93-6.647 9.636 9.636 0 0 0-6.523-2.268 8.722 8.722 0 0 0-6.565 2.404z"/></svg>