<svg xmlns="http://www.w3.org/2000/svg" role="img" viewBox="0.01 -2.99 402.74 206.99"><title>Dynamic Neural Network Toolkit logo</title><path d="M183.474 5.83C181.82 10.6 148.91 161.807 149.3 162.975c.584 1.46 4.09 1.85 4.868.584 1.072-1.752 34.76-155.102 34.468-156.757-.39-2.045-4.48-2.824-5.16-.974zm183.728 8.762c-.876.877-1.169 6.329-1.169 19.473V52.37H355.81c-10.126 0-10.223 0-10.223 2.337 0 3.018 1.46 3.505 11.684 3.505h8.568l.39 22.686c.291 22.004.389 22.783 2.725 27.457 3.019 5.744 9.445 10.612 15.676 11.586 7.4 1.168 9.542-4.381 2.142-5.745a17.575 17.575 0 0 1-12.17-8.08c-2.142-3.409-2.24-4.674-2.532-25.802l-.39-22.102h9.64c10.223 0 13.825-1.169 12.657-4.284-.487-1.266-2.337-1.558-11.294-1.558h-10.808l-.194-19.181c-.293-16.357-.487-19.278-1.753-19.57a3.644 3.644 0 0 0-2.726.973zm-326.27 1.461c-5.355 1.85-11.586 7.984-14.507 14.118-2.337 5.16-2.045 7.594 1.168 7.594 1.46 0 2.824-1.46 5.063-5.647 3.603-6.816 9.055-10.905 15.384-11.587 4.187-.486 4.77-.292 7.692 2.824 3.797 4.09 6.523 12.073 7.205 21.615l.584 6.913-8.86 1.266c-22.784 3.018-39.92 14.507-44.496 29.793-6.329 20.642.681 35.539 17.526 37.291 11.878 1.266 23.757-4.77 30.67-15.384 7.691-11.878 10.223-23.854 10.223-48.585 0-15.578-.292-20.057-1.753-24.828-4.576-14.994-12.95-19.96-25.899-15.383zM62.84 67.364c-1.07 15.773-5.55 29.696-12.17 37.583-3.992 4.868-11.392 8.665-18.208 9.347-7.789.779-13.533-2.142-16.746-8.374-1.948-3.7-2.24-5.355-1.753-10.71.682-9.152 3.018-14.897 8.47-20.836C30.32 65.806 46.775 58.796 60.21 58.31l3.31-.097zm72.828-13.339a260.278 260.278 0 0 1-13.534 43.717c-2.336 5.744-4.673 10.807-5.16 11.294s-7.01-11.002-15.87-27.944C87.18 54.414 85.914 52.37 83.675 52.565c-1.363.194-2.531.973-2.726 1.752-.097.779 7.01 15.286 15.87 32.13s15.871 31.157 15.676 31.839c-1.168 3.018-10.126 15.578-14.604 20.446-10.029 11.1-21.129 17.331-33.202 18.597-5.452.682-5.842.876-6.134 3.31-.292 2.63-.195 2.727 4.382 2.727 12.56 0 24.536-5.842 36.414-17.526 12.56-12.56 22.394-28.917 30.962-51.798 4.381-11.49 10.613-33.688 11.002-38.751.292-3.019 0-3.408-2.336-3.7-2.24-.292-2.727.097-3.31 2.434zm163.476-.682c-7.303 2.921-14.215 9.542-18.013 17.331-2.823 5.648-3.213 7.4-3.213 14.313 0 10.71 2.24 16.65 8.86 23.757 7.108 7.692 14.703 11.1 24.731 11.197 8.666 0 15.19-1.947 21.615-6.718 5.258-3.895 10.029-10.418 9.152-12.658-.973-2.628-4.77-1.655-7.107 1.85-5.063 7.887-18.402 13.34-27.652 11.392a29.262 29.262 0 0 1-15.676-8.568c-4.381-4.576-8.08-12.073-6.328-13.144 40.406-23.66 48.974-29.015 49.169-30.378.487-2.337-1.363-4.284-7.01-7.205-6.913-3.505-21.031-4.09-28.528-1.169zm24.438 6.037l2.824 1.46-11.586 6.816c-26.873 15.87-30.768 18.013-31.255 17.428-.973-.876 1.656-9.639 4.187-13.923 2.921-5.063 9.25-10.515 14.41-12.365 4.966-1.85 17.428-1.558 21.42.584zM211.71 53.538c-.292.682-.39 15.481-.292 32.91l.292 31.643h4.868l.292-22.589.195-22.588 5.842-4.479c7.79-6.037 16.942-10.223 22.2-10.223s7.496 1.168 9.638 5.16c1.558 2.629 1.85 6.718 2.24 28.917l.487 25.802h4.868V91.316c0-25.997-.098-26.873-2.24-30.962-3.407-6.426-7.01-8.179-15.773-7.692-7.984.39-16.162 3.7-23.562 9.639l-3.602 2.824-.293-6.134c-.292-5.55-.486-6.134-2.531-6.426a2.5 2.5 0 0 0-2.629.973zM17.362 173.69a9.288 9.288 0 0 1 3.247.557 7.061 7.061 0 0 1 2.602 1.666 7.706 7.706 0 0 1 1.717 2.78 11.243 11.243 0 0 1 .62 3.915 12.514 12.514 0 0 1-.506 3.638 8.02 8.02 0 0 1-1.528 2.88 7.168 7.168 0 0 1-2.552 1.908 8.628 8.628 0 0 1-3.6.694h-7.78v-18.037zm-.278 14.703a5.094 5.094 0 0 0 1.668-.277 3.665 3.665 0 0 0 1.44-.923 4.634 4.634 0 0 0 1.01-1.679 7.404 7.404 0 0 0 .379-2.526 10.513 10.513 0 0 0-.265-2.464 4.912 4.912 0 0 0-.871-1.882 3.879 3.879 0 0 0-1.605-1.2 6.413 6.413 0 0 0-2.463-.417h-2.83v11.368zm15.663 7.227a5.205 5.205 0 0 1-2.88.68q-.556 0-1.099-.037-.543-.039-1.099-.088v-2.957l1.036.101a7.439 7.439 0 0 0 1.061.026 1.394 1.394 0 0 0 1.049-.556 1.79 1.79 0 0 0 .34-1.06 2.157 2.157 0 0 0-.151-.81l-4.573-12.251h3.815l2.956 8.943h.05l2.855-8.943h3.714l-5.457 14.677a4.424 4.424 0 0 1-1.617 2.274zm11.697-16.952v1.819h.076a4.121 4.121 0 0 1 1.768-1.656 5.117 5.117 0 0 1 2.223-.517 6.101 6.101 0 0 1 2.362.391 3.51 3.51 0 0 1 1.453 1.086 4.206 4.206 0 0 1 .745 1.693 10.556 10.556 0 0 1 .215 2.21v8.034h-3.587v-7.376a4.575 4.575 0 0 0-.506-2.413 1.956 1.956 0 0 0-1.793-.796 2.486 2.486 0 0 0-2.122.872 4.848 4.848 0 0 0-.657 2.867v6.846h-3.587v-13.06zm11.418 4.016a4.158 4.158 0 0 1 .632-2.096 4.296 4.296 0 0 1 1.414-1.34 6.175 6.175 0 0 1 1.933-.72 11.02 11.02 0 0 1 2.16-.214 14.712 14.712 0 0 1 1.996.139 6.12 6.12 0 0 1 1.844.543 3.63 3.63 0 0 1 1.364 1.124 3.14 3.14 0 0 1 .531 1.907v6.796a13.546 13.546 0 0 0 .101 1.693 3.053 3.053 0 0 0 .353 1.212h-3.637a5.035 5.035 0 0 1-.164-.619 5.274 5.274 0 0 1-.089-.644 4.677 4.677 0 0 1-2.02 1.239 8.148 8.148 0 0 1-2.376.352 6.417 6.417 0 0 1-1.743-.227 3.99 3.99 0 0 1-1.414-.707 3.294 3.294 0 0 1-.948-1.213 4.098 4.098 0 0 1-.34-1.743 3.81 3.81 0 0 1 .39-1.832 3.278 3.278 0 0 1 1.011-1.149 4.539 4.539 0 0 1 1.415-.644 15.219 15.219 0 0 1 1.604-.34q.809-.127 1.592-.203a9.56 9.56 0 0 0 1.389-.228 2.415 2.415 0 0 0 .96-.442.97.97 0 0 0 .328-.846 1.906 1.906 0 0 0-.189-.922 1.392 1.392 0 0 0-.505-.53 1.973 1.973 0 0 0-.733-.253 6.063 6.063 0 0 0-.896-.063 2.723 2.723 0 0 0-1.668.454 2.03 2.03 0 0 0-.707 1.516zm8.286 2.653a1.616 1.616 0 0 1-.568.316 5.892 5.892 0 0 1-.732.189q-.393.076-.821.127-.43.05-.86.126a6.484 6.484 0 0 0-.795.202 2.356 2.356 0 0 0-.682.34 1.63 1.63 0 0 0-.468.544 1.752 1.752 0 0 0-.177.834 1.688 1.688 0 0 0 .177.808 1.35 1.35 0 0 0 .48.518 2.017 2.017 0 0 0 .708.265 4.507 4.507 0 0 0 .833.076 3.17 3.17 0 0 0 1.642-.353 2.37 2.37 0 0 0 .86-.847 2.717 2.717 0 0 0 .34-.998 6.94 6.94 0 0 0 .063-.809zM74 178.668v1.768h.051a5.104 5.104 0 0 1 1.706-1.566 4.62 4.62 0 0 1 2.286-.556 5.255 5.255 0 0 1 2.26.48 3.178 3.178 0 0 1 1.555 1.693 5.547 5.547 0 0 1 1.579-1.516 4.196 4.196 0 0 1 2.362-.657 6.97 6.97 0 0 1 1.92.253 3.867 3.867 0 0 1 1.515.808 3.706 3.706 0 0 1 .986 1.453 5.888 5.888 0 0 1 .353 2.16v8.74h-3.587v-7.402q0-.657-.05-1.237a2.636 2.636 0 0 0-.278-1.011 1.69 1.69 0 0 0-.67-.683 2.431 2.431 0 0 0-1.2-.252 2.288 2.288 0 0 0-1.225.29 2.093 2.093 0 0 0-.733.759 3.028 3.028 0 0 0-.353 1.061 8.06 8.06 0 0 0-.089 1.2v7.275h-3.587v-7.326q0-.58-.026-1.149a3.229 3.229 0 0 0-.214-1.05 1.616 1.616 0 0 0-.632-.769 2.378 2.378 0 0 0-1.3-.291 2.712 2.712 0 0 0-.67.114 2.223 2.223 0 0 0-.809.43 2.5 2.5 0 0 0-.67.91 3.69 3.69 0 0 0-.277 1.553v7.578h-3.587v-13.06zm19.504-2.022v-2.955h3.587v2.955zm3.587 2.022v13.06h-3.587v-13.06zm9.069 2.349a2.522 2.522 0 0 0-1.44.391 3.111 3.111 0 0 0-.947 1.01 4.363 4.363 0 0 0-.518 1.365 7.407 7.407 0 0 0-.152 1.478 7.091 7.091 0 0 0 .152 1.44 4.462 4.462 0 0 0 .493 1.327 2.823 2.823 0 0 0 .922.972 2.534 2.534 0 0 0 1.415.38 2.631 2.631 0 0 0 1.983-.721 3.408 3.408 0 0 0 .871-1.933h3.461a5.92 5.92 0 0 1-2.02 3.967 6.522 6.522 0 0 1-4.27 1.363 7.136 7.136 0 0 1-2.69-.492 5.954 5.954 0 0 1-2.085-1.376 6.266 6.266 0 0 1-1.339-2.11 7.319 7.319 0 0 1-.48-2.69 8.703 8.703 0 0 1 .442-2.818 6.335 6.335 0 0 1 1.301-2.248 5.95 5.95 0 0 1 2.097-1.478 7.123 7.123 0 0 1 2.83-.53 8.193 8.193 0 0 1 2.235.303 5.98 5.98 0 0 1 1.92.922 4.768 4.768 0 0 1 1.983 3.726h-3.511a2.406 2.406 0 0 0-2.653-2.248zm19.604-7.327l7.528 12.101h.05v-12.1h3.714v18.037h-3.966l-7.503-12.076h-.05v12.076h-3.714v-18.037zm18.24 14.905a3.677 3.677 0 0 0 4.193.241 2.256 2.256 0 0 0 .96-1.15h3.158a5.996 5.996 0 0 1-2.324 3.36 6.841 6.841 0 0 1-3.79 1.01 7.448 7.448 0 0 1-2.778-.492 5.766 5.766 0 0 1-2.097-1.402 6.295 6.295 0 0 1-1.326-2.173 7.943 7.943 0 0 1-.468-2.778 7.618 7.618 0 0 1 .48-2.729 6.314 6.314 0 0 1 3.474-3.638 6.76 6.76 0 0 1 2.716-.53 6.204 6.204 0 0 1 2.905.644 5.798 5.798 0 0 1 2.033 1.73 7.115 7.115 0 0 1 1.15 2.476 9.224 9.224 0 0 1 .252 2.906h-9.423a3.624 3.624 0 0 0 .885 2.525zm4.055-6.87a2.52 2.52 0 0 0-1.958-.708 3.127 3.127 0 0 0-1.428.29 2.722 2.722 0 0 0-.909.72 2.63 2.63 0 0 0-.48.91 4.088 4.088 0 0 0-.164.859h5.835a4.146 4.146 0 0 0-.896-2.072zm15.448 10.003v-1.819h-.076a4.037 4.037 0 0 1-1.769 1.643 5.231 5.231 0 0 1-2.223.504 6.273 6.273 0 0 1-2.362-.378 3.402 3.402 0 0 1-1.452-1.074 4.196 4.196 0 0 1-.746-1.693 10.523 10.523 0 0 1-.214-2.21v-8.033h3.587v7.376a4.575 4.575 0 0 0 .505 2.413 1.956 1.956 0 0 0 1.794.795 2.486 2.486 0 0 0 2.122-.87 4.846 4.846 0 0 0 .657-2.868v-6.846h3.587v13.06zm9.548-13.06v2.424h.05a4.402 4.402 0 0 1 .683-1.123 4.496 4.496 0 0 1 .985-.885 4.813 4.813 0 0 1 1.188-.568 4.279 4.279 0 0 1 1.313-.202 2.796 2.796 0 0 1 .783.126v3.335q-.252-.05-.606-.088a6.285 6.285 0 0 0-.682-.039 3.821 3.821 0 0 0-1.667.329 2.893 2.893 0 0 0-1.1.897 3.593 3.593 0 0 0-.593 1.326 7.216 7.216 0 0 0-.177 1.642v5.886h-3.587v-13.06zm6.265 4.016a4.158 4.158 0 0 1 .632-2.096 4.296 4.296 0 0 1 1.415-1.34 6.175 6.175 0 0 1 1.933-.72 11.02 11.02 0 0 1 2.16-.214 14.712 14.712 0 0 1 1.995.139 6.12 6.12 0 0 1 1.844.543 3.63 3.63 0 0 1 1.365 1.124 3.14 3.14 0 0 1 .53 1.907v6.796a13.546 13.546 0 0 0 .101 1.693 3.053 3.053 0 0 0 .353 1.212h-3.637a5.039 5.039 0 0 1-.164-.619 5.274 5.274 0 0 1-.089-.644 4.677 4.677 0 0 1-2.02 1.239 8.148 8.148 0 0 1-2.376.352 6.417 6.417 0 0 1-1.743-.227 3.99 3.99 0 0 1-1.414-.707 3.294 3.294 0 0 1-.948-1.213 4.098 4.098 0 0 1-.34-1.743 3.811 3.811 0 0 1 .39-1.832 3.278 3.278 0 0 1 1.011-1.149 4.539 4.539 0 0 1 1.415-.644 15.22 15.22 0 0 1 1.604-.34q.809-.127 1.592-.203a9.56 9.56 0 0 0 1.389-.228 2.416 2.416 0 0 0 .96-.442.97.97 0 0 0 .329-.846 1.906 1.906 0 0 0-.19-.922 1.392 1.392 0 0 0-.505-.53 1.973 1.973 0 0 0-.733-.253 6.063 6.063 0 0 0-.896-.063 2.723 2.723 0 0 0-1.668.454 2.03 2.03 0 0 0-.707 1.516zm8.287 2.653a1.616 1.616 0 0 1-.569.316 5.892 5.892 0 0 1-.732.189q-.393.076-.821.127-.43.05-.86.126a6.484 6.484 0 0 0-.795.202 2.356 2.356 0 0 0-.682.34 1.63 1.63 0 0 0-.468.544 1.752 1.752 0 0 0-.176.834 1.688 1.688 0 0 0 .176.808 1.35 1.35 0 0 0 .48.518 2.017 2.017 0 0 0 .708.265 4.507 4.507 0 0 0 .834.076 3.17 3.17 0 0 0 1.641-.353 2.369 2.369 0 0 0 .86-.847 2.717 2.717 0 0 0 .34-.998 6.938 6.938 0 0 0 .064-.809zm10.054-11.647v18.038h-3.587v-18.037zm14.172 0l7.528 12.101h.051v-12.1h3.713v18.037h-3.966l-7.503-12.076h-.05v12.076h-3.714v-18.037zm18.241 14.905a3.676 3.676 0 0 0 4.193.241 2.256 2.256 0 0 0 .96-1.15h3.158a5.997 5.997 0 0 1-2.325 3.36 6.84 6.84 0 0 1-3.789 1.01 7.45 7.45 0 0 1-2.779-.492 5.761 5.761 0 0 1-2.096-1.402 6.295 6.295 0 0 1-1.327-2.173 7.932 7.932 0 0 1-.468-2.778 7.618 7.618 0 0 1 .481-2.729 6.314 6.314 0 0 1 3.474-3.638 6.762 6.762 0 0 1 2.715-.53 6.203 6.203 0 0 1 2.905.644 5.8 5.8 0 0 1 2.035 1.73 7.124 7.124 0 0 1 1.149 2.476 9.254 9.254 0 0 1 .253 2.906h-9.424a3.62 3.62 0 0 0 .885 2.525zm4.054-6.87a2.521 2.521 0 0 0-1.958-.708 3.13 3.13 0 0 0-1.427.29 2.734 2.734 0 0 0-.91.72 2.636 2.636 0 0 0-.48.91 4.088 4.088 0 0 0-.164.859h5.836a4.15 4.15 0 0 0-.897-2.072zm13.78-3.057v2.4h-2.627v6.466a1.215 1.215 0 0 0 1.516 1.516q.303 0 .581-.025a4.768 4.768 0 0 0 .53-.076v2.78a8.538 8.538 0 0 1-1.01.1q-.556.026-1.086.025a10.54 10.54 0 0 1-1.58-.113 3.74 3.74 0 0 1-1.313-.442 2.345 2.345 0 0 1-.897-.935 3.336 3.336 0 0 1-.328-1.591v-7.706h-2.173v-2.4h2.173v-3.915h3.587v3.916zm12.96 13.06l-2.324-8.766h-.05l-2.224 8.766h-3.713l-4.143-13.06h3.79l2.399 8.866h.05l2.173-8.866h3.486l2.223 8.841h.05l2.4-8.841h3.69l-4.119 13.06zm9.397-9.36a5.971 5.971 0 0 1 3.487-3.562 7.45 7.45 0 0 1 2.78-.492 7.547 7.547 0 0 1 2.79.492 5.946 5.946 0 0 1 3.5 3.562 8.044 8.044 0 0 1 .48 2.843 7.928 7.928 0 0 1-.48 2.829 6.124 6.124 0 0 1-1.365 2.16 5.937 5.937 0 0 1-2.135 1.377 7.735 7.735 0 0 1-2.79.48 7.635 7.635 0 0 1-2.78-.48 5.962 5.962 0 0 1-2.122-1.378 6.124 6.124 0 0 1-1.365-2.16 7.906 7.906 0 0 1-.48-2.828 8.022 8.022 0 0 1 .48-2.843zm3.26 4.37a4.085 4.085 0 0 0 .517 1.34 2.759 2.759 0 0 0 .973.947 2.97 2.97 0 0 0 1.516.354 3.036 3.036 0 0 0 1.528-.354 2.732 2.732 0 0 0 .986-.947 4.086 4.086 0 0 0 .518-1.34 7.712 7.712 0 0 0 .15-1.527 7.92 7.92 0 0 0-.15-1.542 3.94 3.94 0 0 0-.518-1.338 2.87 2.87 0 0 0-.986-.948 2.956 2.956 0 0 0-1.528-.366 2.761 2.761 0 0 0-2.489 1.314 3.939 3.939 0 0 0-.517 1.338 7.844 7.844 0 0 0-.151 1.542 7.64 7.64 0 0 0 .151 1.528zm15.511-8.07v2.424h.05a4.415 4.415 0 0 1 .682-1.123 4.499 4.499 0 0 1 .986-.885 4.826 4.826 0 0 1 1.187-.568 4.284 4.284 0 0 1 1.314-.202 2.805 2.805 0 0 1 .784.126v3.335q-.255-.05-.607-.088a6.308 6.308 0 0 0-.682-.039 3.822 3.822 0 0 0-1.668.329 2.895 2.895 0 0 0-1.099.897 3.609 3.609 0 0 0-.593 1.326 7.216 7.216 0 0 0-.177 1.642v5.886h-3.587v-13.06zm10.332-4.978v9.676l4.522-4.698h4.245l-4.927 4.8 5.482 8.26h-4.345l-3.588-5.835-1.39 1.338v4.497h-3.587v-18.037zm16.572 3.335v-3.334h14.78v3.334h-5.407v14.703h-3.966v-14.703zm13.743 5.343a5.971 5.971 0 0 1 3.487-3.562 7.45 7.45 0 0 1 2.779-.492 7.547 7.547 0 0 1 2.791.492 5.946 5.946 0 0 1 3.5 3.562 8.044 8.044 0 0 1 .48 2.843 7.927 7.927 0 0 1-.48 2.829 6.124 6.124 0 0 1-1.365 2.16 5.937 5.937 0 0 1-2.135 1.377 7.735 7.735 0 0 1-2.791.48 7.635 7.635 0 0 1-2.78-.48 5.962 5.962 0 0 1-2.121-1.378 6.124 6.124 0 0 1-1.365-2.16 7.906 7.906 0 0 1-.48-2.828 8.022 8.022 0 0 1 .48-2.843zm3.26 4.37a4.085 4.085 0 0 0 .517 1.34 2.759 2.759 0 0 0 .973.947 2.97 2.97 0 0 0 1.516.354 3.036 3.036 0 0 0 1.528-.354 2.732 2.732 0 0 0 .986-.947 4.086 4.086 0 0 0 .518-1.34 7.712 7.712 0 0 0 .15-1.527 7.92 7.92 0 0 0-.15-1.542 3.94 3.94 0 0 0-.518-1.338 2.869 2.869 0 0 0-.986-.948 2.956 2.956 0 0 0-1.528-.366 2.761 2.761 0 0 0-2.489 1.314 3.939 3.939 0 0 0-.517 1.338 7.844 7.844 0 0 0-.152 1.542 7.64 7.64 0 0 0 .152 1.528zm12.176-4.37a5.971 5.971 0 0 1 3.486-3.562 7.45 7.45 0 0 1 2.78-.492 7.547 7.547 0 0 1 2.79.492 5.946 5.946 0 0 1 3.5 3.562 8.044 8.044 0 0 1 .48 2.843 7.928 7.928 0 0 1-.48 2.829 6.124 6.124 0 0 1-1.364 2.16 5.937 5.937 0 0 1-2.135 1.377 7.735 7.735 0 0 1-2.791.48 7.635 7.635 0 0 1-2.78-.48 5.962 5.962 0 0 1-2.122-1.378 6.124 6.124 0 0 1-1.364-2.16 7.906 7.906 0 0 1-.48-2.828 8.022 8.022 0 0 1 .48-2.843zm3.26 4.37a4.085 4.085 0 0 0 .517 1.34 2.759 2.759 0 0 0 .973.947 2.97 2.97 0 0 0 1.516.354 3.036 3.036 0 0 0 1.527-.354 2.732 2.732 0 0 0 .986-.947 4.086 4.086 0 0 0 .518-1.34 7.712 7.712 0 0 0 .151-1.527 7.92 7.92 0 0 0-.15-1.542 3.94 3.94 0 0 0-.519-1.338 2.87 2.87 0 0 0-.986-.948 2.956 2.956 0 0 0-1.527-.366 2.761 2.761 0 0 0-2.49 1.314 3.939 3.939 0 0 0-.516 1.338 7.844 7.844 0 0 0-.152 1.542 7.64 7.64 0 0 0 .151 1.528zm15.788-13.048v18.038h-3.588v-18.037zm6.745 0v9.676l4.522-4.698h4.245l-4.927 4.8 5.482 8.26h-4.345l-3.588-5.835-1.389 1.338v4.497h-3.588v-18.037zm10.686 2.956v-2.955h3.587v2.955zm3.587 2.022v13.06h-3.587v-13.06zm10.003 0v2.4h-2.627v6.466a1.215 1.215 0 0 0 1.516 1.516q.303 0 .581-.025a4.769 4.769 0 0 0 .53-.076v2.78a8.538 8.538 0 0 1-1.01.1q-.556.026-1.086.025a10.54 10.54 0 0 1-1.58-.113 3.74 3.74 0 0 1-1.313-.442 2.345 2.345 0 0 1-.897-.935 3.336 3.336 0 0 1-.328-1.591v-7.706h-2.173v-2.4h2.173v-3.915h3.587v3.916z"/></svg>