<svg xmlns="http://www.w3.org/2000/svg" role="img" viewBox="-13.96 -13.96 725.92 288.42"><title>Eclipse Deeplearning4j logo</title><path d="M109.3 1.4c-6.2 2.3-9.6 7.6-9.1 14.2.2 3.1-.7 5.4-2.2 5.4-.5 0-3.5 1.5-6.7 3.4-3.2 1.8-8.3 4.7-11.3 6.3-3 1.7-7.2 4-9.2 5.2-3.9 2.2-8.2 4.6-14.5 8.2-2.1 1.2-5.8 3.3-8.2 4.7-2.5 1.4-6.5 3.7-9 5.2-7 4-7.6 4.1-10.1 1.5-2.7-2.8-8.8-4-15.2-3-3.1.5-5.3 1.8-7.8 4.4C1.8 61.3-.8 69 .8 72.3c.6 1.2 1.4 3.2 1.7 4.4.3 1.2 2.5 3.8 4.7 5.8C11.1 85.7 11.9 86 18 86c5.9 0 6.9-.3 10.4-3.2 3.4-2.8 4-3 6-1.8 1.1.8 6.6 3.7 12.1 6.6 9.4 4.9 10 5.4 10.3 8.6.2 1.9 1.3 4.7 2.6 6.2 1.8 2.3 3.2 3 7.4 3.4 4.4.4 5.6 1 7.3 3.4 1.2 1.6 1.9 3.7 1.7 4.6-.3.9-3.8 6.3-7.8 12-6.9 9.8-7.4 10.3-10.2 9.7-3.6-.8-8.9 1.5-11.7 5.2-2.7 3.3-2.8 11.2-.4 15.1 3.2 4.9 5.5 6.1 11.1 6.2 4.8 0 5.5-.3 9.3-4.1 4-4 4.3-4.1 6.8-2.7 4.6 2.7 13.3 7.4 22.6 12.3 5 2.6 9.5 5.2 10.2 5.9.9.8-2.1 5-12.3 17.1l-13.4 16-6.9-.3c-6.7-.4-6.9-.3-10.5 3.2-3.3 3.3-3.6 4.2-3.6 9.1 0 4.9.4 6 3.4 9.3 3.2 3.4 3.8 3.7 9.1 3.7s5.9-.3 9.1-3.7c2.3-2.5 3.4-4.8 3.4-6.8 0-3.7 1.6-4.5 11-5.9 4.1-.6 16-2.4 26.4-4.1 10.4-1.6 19.9-3 21.2-3 1.7 0 4.2 3 12 14.7 5.3 8.2 9.9 15.7 10.1 16.9.3 1.1-.3 2.6-1.1 3.3-3.7 3.1-.5 16.1 4 16.1.8 0 2.3.5 3.3 1.2 4.4 2.7 14.1-4.8 14.1-10.9 0-1.4-.7-3.7-1.6-5.2-1.5-2.5-1.4-2.9 2.6-9.1 2.2-3.6 6.5-10.3 9.4-15l5.3-8.5 6.4-.6c6.9-.6 9.4-1.6 12.3-4.8 2.4-2.6 4.5-2.6 9.9-.1 2.3 1 7.8 3.3 12.2 5 4.4 1.8 9.6 3.8 11.5 4.7 3.6 1.5 6.2 2.6 10.3 4.2 2.1.8 6.1 2.5 10.2 4.2 1.1.5 4.7 2 8 3.3 5.5 2.2 6 2.7 6.6 6 .9 5.7 4.3 8.6 9.9 8.6 6.4 0 10-3.6 10-10.1 0-5.1-2.6-8.4-7.6-9.8-3.1-.8-4.2-2.6-8.4-13.6-.5-1.1-1.7-4.1-2.9-6.7-1.2-2.6-2.1-5.4-2.1-6.1 0-.7-.4-1.7-.9-2.3-.5-.5-2.8-6-5.1-12.2l-4.3-11.3 2.8-2.8c3.3-3.5 4.4-10.4 2.5-15.1-1.3-3.2-5.8-7-8.2-7-4.1 0-4.7-2-5.8-19.5-.6-9.4-1.2-19.5-1.5-22.5-.2-3-.9-12.9-1.5-22s-1.3-18.2-1.6-20.3c-.4-3.5-.2-3.9 2.8-5.2 6-2.4 9.8-8.3 9.8-15 0-6.8-3.7-12.3-10.4-15.6-5-2.4-7.3-2.4-12.9 0-5.3 2.3-8.3 5.9-9.7 11.5-1.6 6.3-2.1 6.7-9 8.6-3.6 1-9.9 2.7-14 3.8-4.1 1.2-10.2 2.8-13.5 3.7-3.3.9-7.6 2.1-9.5 2.7-1.9.5-4.7 1.2-6.3 1.5-1.5.3-3 .9-3.3 1.4-.3.5-1.5.9-2.6.9-2.2 0-7.7 1.6-11.5 3.3-2.3 1-4.3.3-4.3-1.5 0-1.2-4.6-16.8-6-20.3-.4-1.1-2-6-3.6-10.9-2.6-8.6-2.7-9.1-1.1-11.8 2.7-4.7 2-8.5-2.6-13.6-1.6-1.7-3.1-2.2-7.1-2.2-5.4.1-8.2 1.5-10 5.2-.9 1.8-2.1 2.4-6 2.6-4.4.3-5 .1-7.9-3.3-2.6-3-9.6-6.8-11.7-6.4-.3.1-1.9.7-3.7 1.3zm29.1 16.4c2.1 4.1 3.9 5.3 9.3 6 4.2.6 4.9 1.1 5.7 3.7.5 1.7 1.2 3.9 1.6 5 .4 1.1 1.3 4 2 6.5s1.6 5.4 2 6.5c.9 2.3 5.2 16.5 5.4 17.9 0 .6-3.9 2.2-8.9 3.7-4.9 1.5-9.8 3-10.7 3.4-1.7.7-2.5-.8-9.8-17-1-2.2-3.1-6.9-4.8-10.5-6.9-15-7.6-17.1-6.4-18.9 1.4-1.8 2.8-4.7 3.6-7.4.4-1.3 1.6-1.7 5-1.7 4 0 4.7.4 6 2.8zM102 25.5c0 .3-1.5 3.4-3.4 6.8-6.1 11.3-11.3 21.1-16 30.2C80 67.4 77.1 72.6 76 74c-1.7 2.3-2.1 2.4-6.7 1.3-2.6-.7-11.2-2.2-19-3.4l-14.2-2.2-1.1-3c-1.2-3.6-.7-4.3 5.5-7.8 2.2-1.2 6-3.3 8.5-4.7 2.5-1.4 7.6-4.2 11.3-6.3 3.8-2.2 7-3.9 7.2-3.9.2 0 3.9-2.1 8.2-4.8 4.3-2.6 10.3-6 13.3-7.6 3-1.6 6.6-3.7 8-4.7 2.4-1.8 5-2.5 5-1.4zm3.5 17.3c-5.2 24.4-4.5 22.5-9.7 24-4.4 1.2-8.3 4.5-11.4 9.8-.9 1.5-1.5 1.6-2.4.7-1-.9-.5-2.5 2.2-7.5 7.8-14 9.3-16.7 15.1-27.8 9.5-18.3 10.2-18.2 6.2.8zm12.6-13.1c.8 1 2 2.9 2.6 4.3.6 1.4 2.5 5.9 4.3 10 1.8 4.1 5.3 11.7 7.7 16.8 2.4 5.2 4.2 10 3.9 10.7-.2.7-2 1.6-3.8 2-4.2.9-9.7 2.5-12.5 3.8-2.3 1-4.3.3-4.3-1.7 0-1.4-6.8-8-9-8.8-1-.3-.9-2.2.5-8.8 2-9.5 2.8-13.8 4.4-22.4 1.3-7.3 3.4-9.3 6.2-5.9zm124.3 19.7c-.3.8-1.1 1.7-1.7 1.9-.7.3-4.1 2.6-7.7 5.3-3.6 2.6-8.7 6.4-11.5 8.4-2.7 2-13 9.6-22.8 16.9-9.8 7.2-18.2 12.9-18.7 12.6-.6-.3-1-1.5-1-2.6 0-1-.4-2.7-.9-3.7-.5-.9-1.4-3.7-2.1-6.2-.7-2.5-1.5-5.2-2-6-1.7-3.5-2.2-8-.8-8.4.7-.2 3.3-.9 5.8-1.6 2.5-.7 5.6-1.6 7-2 1.4-.4 4.5-1.3 7-2s5.6-1.6 7-2c1.4-.4 4.5-1.3 7-2s5.6-1.6 7-2c1.4-.4 4.3-1.3 6.5-1.9 2.2-.6 7.6-2.2 12-3.5 9.4-2.9 10.6-3.1 9.9-1.2zM251 55c1.4 1.1 3.5 2 4.7 2 2.8 0 3.1 1.2 3.7 15.5.2 6 1.2 21.6 2.2 34.5 2.2 28.2 2.4 38.5.7 38.5-.6 0-7-6.8-14.1-15.1-12.9-15-13-15.2-11.6-17.9 2-3.9 1.8-13.9-.3-17.3-8.8-13.5-27.4-11.6-32.6 3.3-1.5 4.2-2.1 4.5-12.2 6.4-2.3.4-4.5 1-5.1 1.3-2.9 1.8-5.4-4.4-2.7-6.6 2.1-1.7 15.9-11.9 25.2-18.6 3.4-2.5 13.3-9.8 21.9-16.2 8.6-6.5 16.2-11.7 16.7-11.7.6-.1 2.1.8 3.5 1.9zm-82.2 21.2c4.5 14.7 5.4 17.9 4.9 18.5-.3.3-2-.5-3.8-1.8-2.6-1.9-4.7-2.3-10.7-2.4l-7.5-.2-3-6.6c-3-6.9-3-9.7 0-9.7 1 0 4.5-.9 7.8-1.9 9.8-3.1 10-3 12.3 4.1zM49.5 77c1.1.5 4.3 1.2 7 1.5 2.8.3 7.2.8 9.8 1.1 2.8.4 5.1 1.2 5.4 2 .8 2.2-1.6 4.4-5.1 4.4-1.7 0-4 .7-5 1.5-1.7 1.3-2.9.9-12.5-4.1-14.3-7.6-15.4-8.7-7.6-7.9 3.3.4 6.9 1 8 1.5zm94 7.7l3.6 7.7-4.1 4-4 4.1-5.2-2.9c-2.9-1.5-7.9-4.2-11-5.9-4.4-2.3-5.8-3.5-5.8-5.2 0-2.6 1.5-4 5-4.8 1.4-.3 4.3-1.1 6.5-1.7 7.2-2 10-2.8 10.7-2.9.4-.1 2.3 3.4 4.3 7.6zm-60.1-1c.9 2.3-1.3 4.3-5.7 5-3.7.6-3.7.5-2.5-1.8.7-1.3 1.7-3 2.1-3.7 1.2-1.8 5.4-1.5 6.1.5zm3.9 10.4c1.4 1.9 1.2 2.5-2.5 7.7-2.1 3.2-4.4 5.7-4.9 5.7-.6 0-1.8-1.2-2.7-2.7-1.5-2.5-1.5-3.2-.2-7 1.1-3 2.2-4.4 4-4.9 4.1-1.1 4.8-1 6.3 1.2zm34.5 2.7c1.5 1 4.8 2.8 7.4 4.1 6.8 3.4 8.1 5.1 7.1 9.2-.5 1.8-1.3 3.4-1.8 3.5-1.2.2-16.5-16-16.5-17.5s.8-1.4 3.8.7zm5.3 17.1c8.5 9 15.5 16.6 15.6 17 .2.3-2.6 4-6.2 8.1s-7.5 9-8.8 10.7c-2.9 4.2-5.7 4.4-5.7.4 0-1.7-.4-3.3-1-3.6-.5-.3-1-1.7-1-3s-.4-3.4-.9-4.7c-.5-1.3-1.4-4.3-2.1-6.8-.7-2.5-1.6-5.6-2-7-.4-1.4-1.3-4.5-2-7s-1.6-5.6-2-7c-2.8-9.1-3.2-11-2.6-12.5.3-.9 1.2-1.5 1.9-1.3.7.2 8.3 7.7 16.8 16.7zm-24.8-13c.7.7 6.3 19.7 7.4 25.1.2 1.4.8 3.4 1.3 4.5 1.1 2.7 6 20.1 7 24.7.4 2.1.4 3.8-.1 3.8-.4 0-3-3-5.6-6.8-2.6-3.7-10.1-13.8-16.5-22.4-6.5-8.7-11.8-16.2-11.8-16.7 0-.6 2.1-4 4.6-7.6l4.6-6.6 4.2.6c2.2.4 4.5 1 4.9 1.4zm101.8 9.8c1.3 3.5 4.6 7.1 8.3 9 3.1 1.6 3.1-.1.6 17.3-2.1 15.2-3.1 22.9-3.9 29.8-1 8.3-2.4 10.9-4 7.1-.6-1.3-2.4-7.1-4.1-12.9-1.8-5.8-3.6-11.3-4.1-12.2-.5-1-.9-2.5-.9-3.3 0-.8-.4-2.3-.9-3.3-.5-.9-2.4-6.4-4.1-12.2-1.7-5.8-3.6-11.7-4.2-13.2-.5-1.5-.8-3.3-.6-3.9.4-1.1 11.6-4.6 15.6-4.8.7-.1 1.7 1.1 2.3 2.6zM97.9 141.4c14.5 19.5 16.9 23.1 16 24.8-1.5 2.8-3.8 3.3-6.8 1.6-1.4-.9-6.9-3.8-12.1-6.6-23.9-12.7-24.4-13-25.4-15.9-.5-1.5-1.5-3.5-2.2-4.4-2-2.2-1.8-2.8 2.4-8.4 2.1-2.8 5.3-7.2 7.1-9.8 1.8-2.7 3.4-4.7 3.6-4.5.2.2 8 10.6 17.4 23.2zm146.9-6.9c12.2 14.3 13.1 15.6 12.2 18-.6 1.5-1 4.1-1 5.9 0 3.3-.4 3.6-31.6 23.5-2 1.3-2.5 1.1-6.9-2.4-4.5-3.8-4.7-4.1-4.1-8 1.5-9 4.1-27.8 5.5-39.2 1.1-9.3 1.5-10.3 4-10.3 1 0 3.2-.7 4.7-1.5 1.6-.8 3.1-1.5 3.4-1.5.3 0 6.5 7 13.8 15.5zm-60.8-9.7c2.3 7.7 10.3 32.8 11 34.7 1.9 5.1 5 15.4 5 16.8 0 .8-.8 1.8-1.7 2.2-1.3.4-3.7-1.4-9.3-7.2-4.1-4.3-13-13.6-19.8-20.6-11.4-11.8-13.9-15.6-9.1-14.4 2.5.7 9.7-1.9 13.5-4.8 1.6-1.3 4.1-4.3 5.4-6.8 1.3-2.5 2.7-4.4 3.1-4.1.4.2 1.3 2.1 1.9 4.2zM147 137c0 .6-.9 3.2-2.1 5.8-1.2 2.6-2.4 5.6-2.9 6.7-.4 1.1-1.2 3.1-1.8 4.5-.5 1.4-2.1 5.4-3.5 9-2.4 6.2-2.7 6.5-5.8 6.5-2.9 0-3.4-.4-4.6-4.2l-1.4-4.2 10.3-12.6c9.7-11.8 11.8-13.8 11.8-11.5zm14.1 12.7c5.2 5.4 14.2 14.7 20.2 20.8 10.8 11.2 12 13.4 9.4 16.9-1.3 1.8-1.8 1.8-12.8.1-6.3-.9-14.5-2.1-18.4-2.6-10.7-1.3-12.7-2.1-13.8-5.5-.5-1.6-2.2-4.3-3.7-5.9-1.9-2-2.5-3.5-2-4.5 1.7-3.2 8-19.9 8-21.1 0-1 3-7.9 3.4-7.9.2 0 4.5 4.4 9.7 9.7zm100 18.9c1 .9 3.6 1.8 5.8 2.1 4.8.7 5 1 13.1 22.8 3 7.8 5.5 13.9 10 23.8 3 6.7 1.4 9.5-3.8 6.8-.9-.5-3.4-1.6-5.4-2.5-2.1-.9-5.5-2.3-7.5-3.2-2.1-.9-4.7-2-5.8-2.4-1.1-.4-3.6-1.5-5.5-2.3-1.9-.8-6.6-2.7-10.5-4.2-7.6-2.9-10.5-4.1-17.7-7.4-2.6-1.1-5.4-2.1-6.2-2.1-.7 0-1.8-.6-2.3-1.3-1.1-1.6-.9-11 .3-11.4 1.4-.5 28.5-18 29.7-19.2 1.6-1.6 3.8-1.4 5.8.5zm-140.3 3.5c1.7 2.7 1.1 3.3-2.2 1.8-2.6-1.2-3.1-2-1.9-3.2 1.2-1.3 2.8-.7 4.1 1.4zm-4.4 6.4c1.4 1 2 2.9 2.2 6 .1 4.4.1 4.4-5.8 8-3.3 1.9-6.2 3.5-6.4 3.5-.3 0-2.4 1.3-4.8 2.9-6.6 4.6-13.6 8.3-13.6 7.2 0-1.8 23.5-29.1 25-29.1.8.1 2.4.7 3.4 1.5zm51.1 12.5c9.3 1.2 17.3 2.4 17.7 2.6 2 1.3.4 2.3-4.4 2.8-2.9.3-8 .9-11.3 1.4-3.3.5-9.6 1.5-14 2.2l-8 1.2-2.2-2.9c-2.7-3.4-2.8-4.6-.6-7.9 1.1-1.8 2.2-2.4 3.7-2 1.2.2 9.7 1.4 19.1 2.6zm-41 5.1c2.7 1.6 4.5 2 7.4 1.5 3-.5 4.2-.2 5.6 1.4 2.6 2.9.8 4.2-6.7 5.1-3.5.4-9.2 1.3-12.8 1.9l-12 2c-3 .5-7 1.2-8.9 1.6-5 1.1-3.6-1.2 2.9-4.8 3-1.7 6.7-3.9 8.2-4.9 1.4-1 3-1.9 3.5-1.9.4 0 1.9-.9 3.3-2 3.2-2.5 5.1-2.5 9.5.1zm66.9 8.1c2.3 3.6 2.6 4.6 1.6 6.2-.7 1-2 3.3-2.9 5-1 1.7-3.9 6.3-6.5 10.3-2.5 3.9-4.6 7.5-4.6 7.9 0 2.1-3.6 4.4-7 4.4-3.6 0-3.9-.3-9.5-9.3-3.2-5-7.5-11.9-9.6-15.3-2.2-3.3-3.9-6.3-3.9-6.6 0-.3 1.9-.9 4.3-1.3 11.2-1.8 15.7-2.5 22-3.4 3.8-.5 7.1-1.2 7.4-1.5.4-.3 1.8-.6 3.3-.6 2 0 3.3 1 5.4 4.2zM575.7 81.7c-4.7 7-12.9 19.1-18.2 26.8-5.3 7.7-12.8 18.6-16.6 24.2l-6.9 10.2V162l23.8.2 23.7.3.1 11.3.1 11.4 10.4.1 10.4.2.5-11.5.5-11.5 6.8-.5 6.9-.5v-18l-6.9-.5-6.8-.5-.5-36.5-.5-36.5-9.1-.3-9-.3-8.7 12.8zm6.1 42l-.3 18.8-13.3.3c-7.5.1-13.2-.1-13-.6 1.3-3.4 24.6-37.2 25.6-37.2s1.2 4.1 1 18.7zm-256-12c.1 23 .3 49 .5 57.8l.2 15.9 30-.3c16.5-.1 30.4-.7 30.9-1.2.6-.5 1.8-.9 2.9-.9 3.1 0 14.2-5.9 17.5-9.3 4.4-4.6 9.7-13.8 12.4-21.6 2-5.8 2.2-8.6 2.3-24.1 0-15.7-.2-18.2-2.3-24.5-3.5-10.3-6.9-16-13.3-21.9C395.8 71.3 389.8 70 352.4 70h-26.9l.3 41.7zM382.4 91c5 1.5 12.7 9.3 14.5 14.5 1.8 5.4 2.6 32.7 1.2 39.5-.6 2.8-2 7.1-3.1 9.5-2 4.4-7.4 9.5-10.1 9.5-.8 0-1.9.4-2.4.9-.8.8-24.7 1.6-32.2 1.2-1-.1-1.3-8.4-1.3-37.9 0-20.8.3-38.2.8-38.6 1.1-1.2 28.1 0 32.6 1.4zm61-19.5c-.2.5-.3 26.4-.2 57.4l.3 56.4 40.5-.2 40.5-.1v-18.5l-28-.2c-15.4-.1-28.6-.2-29.3-.3-1 0-1.2-9.6-1.2-47.6l.1-47.6-11.2-.2c-6.6 0-11.3.3-11.5.9zm232.1 42.8c0 40.4-.2 44.5-1.8 47.4-2.3 4.2-6.4 6.3-12.5 6.3-4.1 0-5.4-.5-8.4-3.3-3.8-3.4-5.8-7.9-5.8-13.3 0-1.8-.3-3.5-.8-3.8-.4-.2-2.8 0-5.2.5-2.5.5-7.1 1.1-10.3 1.5l-5.8.6.6 6.4c1.2 10.9 4.2 17.2 11 23.2 6.5 5.7 12.3 7.4 25.3 7.4 9.5 0 11.4-.3 16.4-2.6 9.7-4.5 15-10.2 18.2-19.6 1.2-3.7 1.5-12.7 1.8-49.8l.3-45.2h-23v44.3z"/></svg>