<svg xmlns="http://www.w3.org/2000/svg" role="img" viewBox="3.44 -1.56 1002.12 1069.12"><title>Elastic Deep Learning (EDL) logo</title><defs><linearGradient id="a" x1="24.407" x2="985.278" y1="297.763" y2="297.763" gradientUnits="userSpaceOnUse"><stop offset="0" stop-color="#00e6d2"/><stop offset="1" stop-color="#00a5e4"/></linearGradient></defs><path fill="url(#a)" d="M708.71 174.02c-69.808-.316-124.483 53.437-126.641 121.995-1.496 47.515-32.814 78.248-80.637 79.13-49.704.915-95.345 33.57-112.944 80.463-5.397 14.38-8.728 28.54-8.419 44.413.568 29.17-13.33 51.955-38.973 66.062-26.375 14.51-53.79 14.282-79.068-2.057-23.143-14.958-35.703-36.911-36.292-65.507-.97-47.14-22.666-82.775-62.777-107.123-17.881-10.854-37.597-15.96-58.546-16.289-46.024-.72-79.882-33.464-80.005-77.308-.123-43.759 33.752-76.594 79.822-77.372 62.973-1.062 116.149-51.127 121.045-113.851.872-11.18.656-22.473 4.125-33.389a77.017 77.017 0 0 1 73.684-53.775c34.138-.04 61.45 19.97 71.995 52.747 16.901 52.538-16.317 99.72-71.679 101.808-58.109 2.192-104.252 36.884-119.4 89.768a123.07 123.07 0 0 0 47.182 134.374c40.242 28.388 83.61 31.506 127.078 9.966 43.877-21.744 66.958-58.99 68.743-108.18 1.725-47.543 32.689-78.754 80.254-79.49 66.788-1.031 119.68-55.21 121.177-123.731.66-30.152 14.002-53.435 40.65-67.864 26.181-14.176 52.758-12.97 78.065 2.387 23.668 14.363 33.646 36.667 34.886 63.826 3.247 71.13 55.765 123.974 124.16 125.352 31.678.638 55.957 14.158 70.234 42.623 13.758 27.433 11.299 54.659-6.167 79.88-14.782 21.344-36.24 31.277-61.742 32.202-64.702 2.347-109.79 40.919-124.128 104.117-3.325 14.655-.567 29.195-5.944 44.212-9.53 26.618-32.939 49.129-62.665 52.093-45.729 4.56-84.568-27.25-87.4-71.582-2.869-44.876 32.068-81.716 78.382-82.655 64.148-1.3 117.395-49.811 122.869-111.94 5.626-63.857-38.325-121.595-101.867-133.516-7.071-1.326-14.383-1.373-19.058-1.79z"/><path fill="#080808" d="M229.659 781.243q-.001-42.88.014-85.76c.014-9.56 4.786-16.563 14.113-16.603 30.807-.131 61.864-3.902 92.29 4.166 48.608 12.888 78.182 53.055 76.533 101.043-1.809 52.589-37.148 91.312-87.763 99.06-26.387 4.038-52.975 2.131-79.473 1.768-10.324-.141-15.677-6.778-15.696-17.04q-.079-43.317-.018-86.634zm29.231.419q0 37.182-.01 74.365c-.004 3.591-.474 6.948 5.117 6.785 16.309-.473 32.677.805 48.931-1.262 40.921-5.204 69.225-36.633 70.147-77.68.927-41.287-25.483-73.962-65.79-81.378-16.788-3.089-33.768-.721-50.608-1.801-7.017-.45-8.015 2.184-7.928 8.357.342 24.2.14 48.408.141 72.614zm-233.987-.088c0-28.3-.042-56.6.02-84.901.025-11.784 5.7-18.183 17.44-18.25 43.18-.243 86.36-.178 129.54-.027 8.395.03 12.775 4.438 12.543 11.355-.229 6.839-5.213 11.027-14.045 11.054-35.302.107-70.61.354-105.905-.18-8.422-.128-10.776 1.855-10.402 10.369.755 17.18.573 34.428.058 51.626-.213 7.083 1.437 9.376 8.964 9.268 31.795-.457 63.6-.194 95.402-.193 2.043 0 4.09-.076 6.127.025 7.09.353 11.956 3.75 12.083 11.104.13 7.535-4.954 10.878-11.947 11.069-9.33.255-18.67.08-28.007.08-25.091.003-50.184.165-75.272-.125-5.583-.065-7.463 1.235-7.329 7.133.405 17.788.498 35.602-.03 53.383-.206 6.955 2.314 8.03 8.504 7.98 35.009-.28 70.02-.13 105.031-.143 3.507-.002 7.004-.112 10.297 1.438 5.093 2.397 7.399 6.418 6.911 11.977-.484 5.515-4.169 8.181-9.088 9.198a43.51 43.51 0 0 1-8.715.515q-59.519.044-119.037.007c-18.753-.019-23.139-4.48-23.142-23.236q-.008-40.263-.001-80.526zm435.867-2q0-43.749.011-87.498c.013-12.054 4.256-16.845 14.796-16.933 10.932-.09 15.244 4.77 15.248 17.33.014 53.373.156 106.747-.167 160.119-.045 7.457 1.435 9.935 9.47 9.828 36.45-.482 72.912-.227 109.369-.201 11.75.008 18.51 4.242 18.574 11.487.065 7.425-6.324 11.601-18.356 11.617q-65.623.085-131.246-.009c-14.709-.028-17.684-3.237-17.693-18.243q-.027-43.749-.006-87.497zm509.272 241.807c-12.533 7.235-21.238 7.24-29.338.263-9.017-7.765-11.92-23.516-6.716-36.45 3.958-9.84 12.163-15.266 22.379-14.945a18.872 18.872 0 0 1 9.88 3.042c1.197.77 2.186 2.475 4.138.336 5.275-5.777 6.972-2.989 6.962 3.234-.026 16.335.178 32.672-.085 49.003-.143 8.895-4.337 15.762-12.799 19.134-8.975 3.578-17.726 3.015-25.61-3.166-2.675-2.097-5.088-4.902-2.642-8.13 2.63-3.471 5.07-.226 7.34 1.379 6.016 4.256 12.47 4.951 18.986 1.596 5.704-2.937 8.392-7.83 7.505-15.296zm.34-22.484c.054-14.383-6.696-22.552-17.136-20.739-9.256 1.608-15.422 11.922-14.274 23.882.959 9.992 8.05 17.19 16.632 16.88 9.137-.33 14.732-7.912 14.777-20.023zm-945.996-7.426c0-8.737.227-17.482-.083-26.208-.193-5.42 1.298-8.06 7.283-7.883 11.057.327 22.13.057 33.197.118 2.485.013 5.847-.704 5.894 3.25.05 4.101-3.216 4.172-6.243 4.172-8.737 0-17.48.21-26.208-.08-4.925-.164-7.155.757-7.166 6.572-.03 16.862-.34 16.862 16.291 16.861 4.369 0 8.76-.272 13.098.088 3.028.251 8.073-2.194 8.272 3.369.196 5.503-4.774 3.845-7.928 3.925-7.276.184-14.584.421-21.834-.052-6.166-.402-7.943 1.812-7.87 7.89.176 14.718-.118 14.721 14.57 14.722l19.221.001c2.659.001 5.536-.21 5.874 3.511.372 4.099-2.66 3.778-5.282 3.783-11.65.022-23.302-.153-34.946.08-5.29.105-6.302-2.508-6.2-7.036.204-9.024.06-18.055.06-27.083zm311.831.236c0-8.748.286-17.51-.098-26.242-.273-6.208 2.234-8.456 8.204-8.052 4.354.296 8.745.052 13.119.06 16.846.028 25.77 6.655 29.967 22.247 4.508 16.744-.999 35.41-12.9 42.342-11.114 6.474-23.377 2.814-35.144 3.05-3.205.065-3.147-3.619-3.147-6.283l-.001-27.121zm18.95 26.507c17.636-.01 25.59-7.685 26.055-25.14.562-21.089-8.824-29.288-31.728-28.266-4.53.202-6.036 1.497-5.933 6.056.267 11.925.007 23.86.11 35.79.114 13.417-1.81 11.312 11.495 11.56zm166.71 4.436c0 6.049.026 11.754-.011 17.46-.017 2.529-.774 4.982-3.692 4.957-2.89-.026-3.716-2.546-3.721-5.01-.04-21.555-.074-43.112.063-64.666.02-3.36 3.165-6.765 5.318-3.79 3.585 4.953 5.65 2.102 8.787.51 8.72-4.427 19.852-1.175 26.265 7.452 7.374 9.921 7.817 26.96.966 37.204-7.039 10.522-17.09 12.432-33.975 5.882zm31.366-24.224a27.321 27.321 0 0 0-2.849-11.044c-4.152-7.671-11.1-11.23-17.842-8.664-8.305 3.16-10.605 9.96-10.692 18.16-.092 8.749.317 17.21 10.002 21.14 10.815 4.388 21.482-5.126 21.381-19.592zm120.642 5.107c-3.78.007-7.57-.147-11.339.061-2.48.137-5.948-1.416-7.237 1.122-1.64 3.228 1.3 6.014 3.216 8.4 5.162 6.433 13.648 7.445 22.102 2.643 2.58-1.465 5.337-4.06 7.471-.73 2.23 3.479-.933 5.917-3.686 7.654a23.985 23.985 0 0 1-21.7 2.429c-12.376-4.311-19.031-19.292-15.45-34.97 3.068-13.44 13.295-21.07 26.538-19.802 12.512 1.198 23.838 16.499 21.217 28.55-.767 3.524-3.008 4.67-6.3 4.646-4.943-.036-9.887-.01-14.832-.003zm-3.624-7.473c4.35 0 8.703-.081 13.05.024 3.699.09 4.553-1.663 3.565-4.896-1.997-6.542-5.875-11.493-12.72-13.02-6.467-1.442-12.049.76-16.149 6.066-2.326 3.011-4.874 6.799-3.484 10.235 1.338 3.306 5.747 1.218 8.783 1.55a62.313 62.313 0 0 0 6.955.04zm-265.315 7.476c5.407 15.012 14.405 18.682 26.878 12.026 2.576-1.375 5.233-3.902 7.357-.156 1.921 3.389-1.264 5.31-3.512 7.012-9.104 6.889-24.35 5.015-31.782-3.789-8.955-10.609-8.58-31.036.761-41.386 6.585-7.296 18.211-9.368 27.304-4.867 8.823 4.368 15.4 17.155 13.824 26.326-.834 4.851-4.2 4.847-7.828 4.84-10.743-.019-21.487-.006-33.002-.006zm16.074-7.477c4.374 0 8.749-.055 13.121.017 3.422.057 4.85-1.172 3.729-4.74-2.063-6.566-5.94-11.548-12.79-13.112-6.887-1.574-12.672.914-16.747 6.726-2.001 2.854-4.437 6.44-3.046 9.59 1.49 3.374 5.743 1.059 8.744 1.466a50.815 50.815 0 0 0 6.99.053zm-243.501 30.738c-8.193-.532-15.738-1.479-20.206-8.949-1.498-2.504-2.712-5.947-.008-7.988 3.464-2.615 4.61.86 6.343 3.316 4.977 7.058 18.67 8.086 25.046 2.169 4.748-4.406 3.522-10.145-2.912-11.781-4.758-1.21-9.795-1.281-14.672-2.079-10.522-1.72-14.95-6.266-14.85-14.982.095-8.236 6.278-14.846 15.553-15.92 5.75-.667 11.616-.993 17.188 1.503 3.62 1.621 6.38 4.039 7.721 7.816.833 2.347.87 4.735-1.682 6.092-2.487 1.323-3.515-.817-4.884-2.325-5.777-6.362-15.157-7.954-21.865-3.772-2.862 1.785-5.079 4.107-4.475 7.797.557 3.407 3.26 4.693 6.266 5.155 4.31.664 8.678.956 12.996 1.582 10.82 1.567 15.298 5.673 15.684 14.205.422 9.324-4.442 15.118-14.79 17.403a58.254 58.254 0 0 1-6.453.758zm571.982-28.012c-.003 7.555.2 15.117-.078 22.66-.17 4.614-2.551 7.173-6.343 2.801-2.121-2.446-2.918-2.096-5.345-.795-14.306 7.67-28.337 1.355-32.778-14.975-2.674-9.834-2.084-19.622 3.696-28.482 5.056-7.748 14.314-11.212 23.622-9.35 4.326.866 8.205 6.272 13.44.42 1.519-1.696 3.833 2.115 3.81 5.057-.06 7.554-.02 15.11-.024 22.664zm-6.946.706c-.139-2.586-.163-4.327-.336-6.053-.927-9.214-5.803-14.996-13.686-15.294-8.214-.31-13.795 3.992-16.29 11.715-2.515 7.785-2.044 15.477 2.869 22.351 3.38 4.73 7.975 7.795 14.027 6.834 6.644-1.056 10.86-5.248 12.42-11.79a63.657 63.657 0 0 0 .996-7.763zm-260.573 4.045c-3.789.004-7.584-.142-11.362.055-2.488.13-6.016-1.379-7.237 1.126-1.566 3.214 1.36 5.978 3.366 8.363 5.44 6.463 13.385 7.385 22.186 2.733 2.441-1.29 5.003-4.399 7.444-.772 2.583 3.838-1.15 5.969-3.597 7.565a23.771 23.771 0 0 1-21.724 2.541c-12.552-4.364-18.876-18.703-15.43-35.019 2.87-13.6 12.863-21.058 26.483-19.77 12.813 1.212 23.586 16.016 20.993 28.594-.76 3.69-3.035 4.595-6.26 4.585-4.955-.017-9.908-.005-14.862 0zm-2.971-7.471c4.05 0 8.111-.198 12.145.05 4.777.295 5.436-1.726 3.914-5.695-2.686-7.007-7.093-11.984-15-12.51-7.49-.498-12.54 3.335-15.974 9.75-3.269 6.108-2.147 9.154 5.374 8.457 3.155-.293 6.359-.049 9.54-.052zm395.154 2.323c.002-7.586-.009-15.172.01-22.758.004-2.168.566-4.159 2.92-4.793 1.457-.391 3.252-.066 3.658 1.544 1.404 5.576 3.413 2.962 6.333 1.054 12.076-7.886 27.89-2.367 31.754 11.398 3.437 12.248 1.278 24.957 1.522 37.463.044 2.24-1.386 4.132-3.735 4.028-2.874-.128-3.657-2.395-3.653-4.996.015-8.17.086-16.34-.03-24.508-.164-11.6-5.384-18.703-13.792-19.03-8.704-.337-16.008 6.748-17.084 17.642-.742 7.517-.226 15.151-.493 22.725-.112 3.186 1.454 8.145-3.902 8.011-4.431-.11-3.455-4.579-3.488-7.649-.074-6.71-.023-13.42-.02-20.131zm-728.4.768c0 7.261.072 14.524-.029 21.785-.05 3.697-2.671 7.718-5.383 4.258-3.69-4.709-5.24-2.325-8.459-.513-10.5 5.913-24.177.545-29.41-11.73a36.529 36.529 0 0 1-.165-28.847c5.088-12.44 19.048-17.265 31.253-11.386 1.518.73 3.15 4.333 5.143.44 1.07-2.09 2.55-3.228 4.842-1.981 2.072 1.126 2.213 3.225 2.21 5.317q-.014 11.328-.002 22.657zm-7.394-.432h.09c0-1.74.13-3.49-.02-5.216-.785-9.001-5.778-14.57-13.717-15.408-6.88-.725-14.18 4.13-16.5 11.584a26.642 26.642 0 0 0 .367 17.89c2.914 7.484 8.369 12.337 16.51 11.436 8.3-.92 12.094-7.205 13.234-15.078a36.691 36.691 0 0 0 .036-5.208zm666.001-22.083c7.404-6.907 16.036-9.054 25.38-4.402 10.001 4.98 12.053 14.134 11.789 24.353-.196 7.57.035 15.15-.078 22.723-.04 2.72 1.014 6.867-3.11 6.942-4.834.088-3.537-4.396-3.594-7.345-.138-7.281.154-14.573-.1-21.848-.427-12.16-5.98-19.305-14.614-19.3-9.169.005-16.363 8.362-16.778 19.895-.252 6.983.023 13.983-.09 20.974-.05 3.05.864 7.474-3.566 7.636-4.597.168-3.794-4.228-3.806-7.305q-.076-20.539.014-41.078c.015-2.733-.958-6.258 3.102-7.114 4.506-.95 2.683 4.345 5.451 5.87zm-521.186 50.299a22.85 22.85 0 0 1-3.901-.48c-11.958-2.973-19.331-14.978-18.61-30.163.709-14.914 8.819-24.945 21.64-26.642a20.19 20.19 0 0 1 18.808 6.937c1.854 2.093 3.569 4.253 1.14 6.809-2.243 2.36-4.049.456-5.982-.998-9.297-6.994-17.03-6.87-22.957.217-7.08 8.464-6.91 23.938.345 31.614 6.681 7.069 14.858 6.906 23.803-.646 1.858-1.57 3.411-3.557 5.829-1.165 2.156 2.133 1.03 4.181-.4 6.228-3.544 5.07-10.852 8.408-19.715 8.289zm315.026-35.258c0-9.595-.02-19.19.012-28.783.01-2.905-.254-6.549 3.87-6.43 4.077.117 3.641 3.83 3.649 6.68.043 15.99.286 31.987-.115 47.967-.146 5.83 1.707 7.494 7.326 7.21 8.41-.427 16.857-.1 25.288-.112 2.878-.004 5.467.601 5.333 4.134-.123 3.26-2.8 3.166-5.168 3.167-11.63.007-23.26-.094-34.888.049-4.373.053-5.4-2.143-5.348-5.972.126-9.302.041-18.607.041-27.91zm-370.926 35.036c-8.852-.264-13.277-5.232-13.894-13.13-.725-9.275-.512-18.624-.688-27.942-.074-3.933 1.173-8.69-5.652-7.914-1.97.223-3.286-1.04-3.327-3.151-.039-2.044 1.125-3.642 3.072-3.476 7.308.623 5.737-4.495 5.928-8.634.14-3.033-.921-7.45 3.698-7.463 4.543-.014 4.108 4.383 3.723 7.404-.863 6.758 1.482 9.65 8.464 8.554 2.59-.406 4.726.75 4.513 3.85-.185 2.692-2.375 3.325-4.463 2.944-8.12-1.483-8.946 2.918-8.527 9.431.504 7.84.05 15.735.336 23.595.177 4.85 2.017 8.694 7.968 7.875 2.96-.407 7.292-2.98 7.522 2.106.238 5.291-4.873 5.571-8.673 5.951zm536.255-28.846q.002-10.895-.004-21.79c-.004-2.058-.145-4.193 2.284-5.096 2.052-.763 3.373.358 4.124 2.09 1.374 3.175 2.963 1.523 4.636.372a14.06 14.06 0 0 1 8.958-2.803c2.313.137 3.886 1.172 4.136 3.594.205 1.988-.66 3.453-2.723 3.756-13.76 2.02-14.236 12.48-14.542 22.952-.17 5.805.021 11.62-.054 17.43-.039 3.069.847 7.389-3.784 7.32-4.264-.065-2.933-4.25-2.985-6.908-.139-6.97-.047-13.944-.046-20.917zm-674.179-7.788c0 9.906-.029 19.811.019 29.717.013 2.76-.057 5.81-3.466 5.994-4.152.224-4.067-3.21-4.066-6.203l.017-58.56c.004-2.878-.422-6.547 3.818-6.43 4.127.114 3.666 3.747 3.671 6.639q.029 14.421.007 28.843zm162.056 8.91c.001 7.29-.02 14.58.011 21.868.012 2.837-.364 5.605-3.964 5.41-2.912-.157-3.43-2.584-3.425-5.132q.043-22.306-.004-44.611c-.008-2.874.4-5.648 3.952-5.401 3.544.247 3.442 3.3 3.436 5.998-.018 7.29-.007 14.579-.006 21.868zm610.56-.274v22.715c.001 2.545-.67 4.9-3.624 4.918-2.99.018-3.659-2.398-3.662-4.91q-.026-22.715 0-45.43c.001-2.562.763-4.859 3.707-4.906 3.096-.05 3.564 2.42 3.571 4.897.022 7.572.008 15.143.008 22.715zm.049-39.298c-.039 4.197.078 7.647-4.125 7.386-3.634-.225-3.234-3.536-3.202-6.106.032-2.529-.541-5.874 3.148-6.137 4.187-.299 4.248 3.02 4.18 4.857zm-610.605 1.096c-.162 2.839.415 6.458-3.96 6.252-3.59-.169-3.418-3.297-3.408-5.954.01-2.949-.236-6.398 4.004-6.255 3.708.126 3.293 3.35 3.364 5.957z"/></svg>