<svg xmlns="http://www.w3.org/2000/svg" role="img" viewBox="-10.20 -17.20 1466.40 512.40"><title>Embedded Learning Library logo</title><defs><style>.cls-2{fill:#231f20}.cls-3{clip-path:url(#clip-path)}.cls-6{fill:#777}</style><clipPath id="clip-path"><path fill="none" d="M18.408 11.322h1408.774v300.836H18.408z"/></clipPath></defs><path d="M75.57 369.892v14.13H35.215V400.4h37.038v13.06H35.214v18.733h41.213v14.13h-58.02v-76.431zm25.37 21.088v7.493h.215a21.646 21.646 0 0 1 7.225-6.637 19.588 19.588 0 0 1 9.688-2.355 22.295 22.295 0 0 1 9.581 2.034 13.459 13.459 0 0 1 6.583 7.172 23.579 23.579 0 0 1 6.69-6.423 17.791 17.791 0 0 1 10.01-2.783 29.572 29.572 0 0 1 8.135 1.07 16.41 16.41 0 0 1 6.423 3.426 15.725 15.725 0 0 1 4.174 6.155 24.972 24.972 0 0 1 1.5 9.153v37.038h-15.201v-31.365q0-2.782-.215-5.245a11.162 11.162 0 0 0-1.177-4.282 7.147 7.147 0 0 0-2.836-2.89 10.277 10.277 0 0 0-5.085-1.07 9.737 9.737 0 0 0-5.192 1.23 8.922 8.922 0 0 0-3.104 3.212 12.857 12.857 0 0 0-1.5 4.496 34.276 34.276 0 0 0-.374 5.084v30.83h-15.2V415.28q0-2.462-.108-4.87a13.682 13.682 0 0 0-.91-4.444 6.849 6.849 0 0 0-2.676-3.265 10.11 10.11 0 0 0-5.512-1.23 11.396 11.396 0 0 0-2.838.48 9.429 9.429 0 0 0-3.425 1.82 10.636 10.636 0 0 0-2.837 3.855 15.635 15.635 0 0 0-1.177 6.583v32.114h-15.2V390.98zm97.412-21.088v27.832h.214a16.228 16.228 0 0 1 7.547-6.263 25.564 25.564 0 0 1 9.902-1.98 21.105 21.105 0 0 1 15.575 6.958 26.85 26.85 0 0 1 5.3 9.046 43.287 43.287 0 0 1 0 26.226 26.837 26.837 0 0 1-5.3 9.046 21.1 21.1 0 0 1-15.575 6.957 29.195 29.195 0 0 1-10.919-1.926 13.853 13.853 0 0 1-7.279-6.53h-.214v7.065H183.15v-76.431zm24.621 42.069a17.643 17.643 0 0 0-2.355-5.674 11.55 11.55 0 0 0-15.63-3.907 12.155 12.155 0 0 0-4.067 3.907 17.603 17.603 0 0 0-2.355 5.674 29.57 29.57 0 0 0-.749 6.744 29.079 29.079 0 0 0 .75 6.637 17.587 17.587 0 0 0 2.354 5.674 12.143 12.143 0 0 0 4.068 3.907 11.55 11.55 0 0 0 15.629-3.907 17.627 17.627 0 0 0 2.355-5.674 29.18 29.18 0 0 0 .75-6.637 29.672 29.672 0 0 0-.75-6.744zm41.854 21.088q3.426 3.32 9.849 3.319a13.549 13.549 0 0 0 7.921-2.302 9.554 9.554 0 0 0 4.068-4.87h13.38q-3.21 9.955-9.847 14.237a28.991 28.991 0 0 1-16.057 4.281 31.605 31.605 0 0 1-11.775-2.087 24.472 24.472 0 0 1-8.885-5.94 26.712 26.712 0 0 1-5.62-9.207 33.666 33.666 0 0 1-1.98-11.775 32.265 32.265 0 0 1 2.033-11.56 26.756 26.756 0 0 1 14.719-15.416 28.656 28.656 0 0 1 11.508-2.248 26.318 26.318 0 0 1 12.31 2.73 24.592 24.592 0 0 1 8.617 7.333 30.166 30.166 0 0 1 4.87 10.49 39.122 39.122 0 0 1 1.071 12.31h-39.928q.321 7.386 3.746 10.705zm17.181-29.117q-2.73-2.995-8.296-2.997a13.243 13.243 0 0 0-6.048 1.231 11.53 11.53 0 0 0-3.853 3.05 11.171 11.171 0 0 0-2.034 3.855 17.343 17.343 0 0 0-.696 3.64h24.728a17.576 17.576 0 0 0-3.8-8.779zm67.278 35.326a15.682 15.682 0 0 1-7.011 6.476 23.323 23.323 0 0 1-9.795 1.98 23.663 23.663 0 0 1-10.92-2.408 21.91 21.91 0 0 1-7.76-6.53 29.596 29.596 0 0 1-4.603-9.474 39.75 39.75 0 0 1-1.552-11.132 37.354 37.354 0 0 1 1.552-10.759 27.952 27.952 0 0 1 4.603-9.152 22.347 22.347 0 0 1 18.359-8.778 21.762 21.762 0 0 1 9.366 2.088 16.33 16.33 0 0 1 7.012 6.155h.214v-27.832h15.2v76.431h-14.45v-7.065zm-.642-27.35a16.118 16.118 0 0 0-2.194-5.567 12.38 12.38 0 0 0-4.015-3.907 11.774 11.774 0 0 0-6.209-1.499 12.348 12.348 0 0 0-6.315 1.499 11.847 11.847 0 0 0-4.122 3.96 17.51 17.51 0 0 0-2.248 5.62 30.46 30.46 0 0 0-.695 6.584 28.158 28.158 0 0 0 .749 6.423 17.476 17.476 0 0 0 2.409 5.727 13.329 13.329 0 0 0 4.174 4.068 11.29 11.29 0 0 0 6.048 1.552 12.042 12.042 0 0 0 6.262-1.5 11.39 11.39 0 0 0 4.015-4.013 17.98 17.98 0 0 0 2.14-5.727 33.739 33.739 0 0 0 .643-6.637 32.957 32.957 0 0 0-.642-6.584zm66.046 27.35a15.682 15.682 0 0 1-7.01 6.476 23.324 23.324 0 0 1-9.795 1.98 23.663 23.663 0 0 1-10.92-2.408 21.91 21.91 0 0 1-7.76-6.53 29.596 29.596 0 0 1-4.604-9.474 39.748 39.748 0 0 1-1.551-11.132 37.354 37.354 0 0 1 1.551-10.759 27.953 27.953 0 0 1 4.604-9.152 22.347 22.347 0 0 1 18.359-8.778 21.762 21.762 0 0 1 9.366 2.088 16.33 16.33 0 0 1 7.012 6.155h.214v-27.832h15.2v76.431h-14.45v-7.065zm-.642-27.35a16.118 16.118 0 0 0-2.194-5.567 12.38 12.38 0 0 0-4.014-3.907 11.774 11.774 0 0 0-6.209-1.499 12.348 12.348 0 0 0-6.316 1.499 11.847 11.847 0 0 0-4.12 3.96 17.51 17.51 0 0 0-2.249 5.62 30.461 30.461 0 0 0-.696 6.584 28.159 28.159 0 0 0 .75 6.423 17.476 17.476 0 0 0 2.408 5.727 13.329 13.329 0 0 0 4.175 4.068 11.29 11.29 0 0 0 6.048 1.552 12.042 12.042 0 0 0 6.262-1.5 11.39 11.39 0 0 0 4.015-4.013 17.98 17.98 0 0 0 2.14-5.727 33.74 33.74 0 0 0 .643-6.637 32.958 32.958 0 0 0-.643-6.584zm43.032 21.141q3.426 3.32 9.85 3.319a13.548 13.548 0 0 0 7.92-2.302 9.554 9.554 0 0 0 4.068-4.87h13.38q-3.21 9.955-9.847 14.237a28.995 28.995 0 0 1-16.057 4.281 31.605 31.605 0 0 1-11.775-2.087 24.473 24.473 0 0 1-8.885-5.94 26.712 26.712 0 0 1-5.62-9.207 33.666 33.666 0 0 1-1.98-11.775 32.265 32.265 0 0 1 2.033-11.56 26.756 26.756 0 0 1 14.719-15.416 28.656 28.656 0 0 1 11.508-2.248 26.318 26.318 0 0 1 12.31 2.73 24.556 24.556 0 0 1 8.616 7.333 30.156 30.156 0 0 1 4.871 10.49 39.086 39.086 0 0 1 1.072 12.31h-39.929q.321 7.386 3.747 10.705zm17.182-29.117q-2.73-2.995-8.297-2.997a13.243 13.243 0 0 0-6.048 1.231 11.53 11.53 0 0 0-3.853 3.05 11.171 11.171 0 0 0-2.034 3.855 17.342 17.342 0 0 0-.696 3.64h24.728a17.576 17.576 0 0 0-3.8-8.779zm67.278 35.326a15.677 15.677 0 0 1-7.012 6.476 23.324 23.324 0 0 1-9.794 1.98 23.663 23.663 0 0 1-10.92-2.408 21.903 21.903 0 0 1-7.76-6.53 29.572 29.572 0 0 1-4.604-9.474 39.77 39.77 0 0 1-1.55-11.132 37.374 37.374 0 0 1 1.55-10.759 27.93 27.93 0 0 1 4.604-9.152 22.343 22.343 0 0 1 18.359-8.778 21.76 21.76 0 0 1 9.366 2.088 16.322 16.322 0 0 1 7.01 6.155h.216v-27.832h15.2v76.431h-14.45v-7.065zm-.643-27.35a16.13 16.13 0 0 0-2.194-5.567 12.368 12.368 0 0 0-4.015-3.907 11.77 11.77 0 0 0-6.207-1.499 12.347 12.347 0 0 0-6.317 1.499 11.865 11.865 0 0 0-4.121 3.96 17.509 17.509 0 0 0-2.247 5.62 30.425 30.425 0 0 0-.696 6.584 28.158 28.158 0 0 0 .748 6.423 17.489 17.489 0 0 0 2.41 5.727 13.316 13.316 0 0 0 4.174 4.068 11.292 11.292 0 0 0 6.049 1.552 12.042 12.042 0 0 0 6.261-1.5 11.386 11.386 0 0 0 4.015-4.013 17.994 17.994 0 0 0 2.14-5.727 33.739 33.739 0 0 0 .642-6.637 32.955 32.955 0 0 0-.642-6.584zm74.932-42.016v62.3h37.252v14.131h-54.058v-76.431zm61.336 63.157q3.424 3.32 9.849 3.319a13.549 13.549 0 0 0 7.921-2.302 9.556 9.556 0 0 0 4.068-4.87h13.381q-3.211 9.955-9.849 14.237a28.992 28.992 0 0 1-16.057 4.281 31.604 31.604 0 0 1-11.775-2.087 24.48 24.48 0 0 1-8.885-5.94 26.729 26.729 0 0 1-5.62-9.207 33.68 33.68 0 0 1-1.98-11.775 32.266 32.266 0 0 1 2.034-11.56 26.756 26.756 0 0 1 14.719-15.416 28.655 28.655 0 0 1 11.507-2.248 26.318 26.318 0 0 1 12.31 2.73 24.57 24.57 0 0 1 8.617 7.333 30.155 30.155 0 0 1 4.872 10.49 39.123 39.123 0 0 1 1.07 12.31h-39.929q.322 7.386 3.747 10.705zm17.182-29.117q-2.73-2.995-8.297-2.997a13.244 13.244 0 0 0-6.048 1.231 11.536 11.536 0 0 0-3.854 3.05 11.183 11.183 0 0 0-2.034 3.855 17.38 17.38 0 0 0-.696 3.64h24.728a17.57 17.57 0 0 0-3.8-8.779zM721.696 408a17.65 17.65 0 0 1 2.675-8.885 18.222 18.222 0 0 1 5.995-5.673 26.138 26.138 0 0 1 8.189-3.051 46.625 46.625 0 0 1 9.153-.91 62.226 62.226 0 0 1 8.457.589 25.932 25.932 0 0 1 7.814 2.301 15.41 15.41 0 0 1 5.78 4.764 13.311 13.311 0 0 1 2.249 8.082v28.796a57.622 57.622 0 0 0 .428 7.171 12.931 12.931 0 0 0 1.498 5.139h-15.415a21.278 21.278 0 0 1-.695-2.622 22.525 22.525 0 0 1-.375-2.73 19.805 19.805 0 0 1-8.563 5.245 34.412 34.412 0 0 1-10.064 1.498 27.185 27.185 0 0 1-7.385-.963 16.904 16.904 0 0 1-5.995-2.997 13.93 13.93 0 0 1-4.014-5.138 17.359 17.359 0 0 1-1.445-7.387 16.124 16.124 0 0 1 1.659-7.76 13.864 13.864 0 0 1 4.282-4.871 19.22 19.22 0 0 1 5.995-2.73 64.543 64.543 0 0 1 6.797-1.445q3.425-.535 6.744-.856a40.561 40.561 0 0 0 5.888-.964 10.271 10.271 0 0 0 4.068-1.873 4.117 4.117 0 0 0 1.391-3.586 8.077 8.077 0 0 0-.803-3.908 5.915 5.915 0 0 0-2.14-2.247 8.446 8.446 0 0 0-3.106-1.07 25.478 25.478 0 0 0-3.8-.269 11.544 11.544 0 0 0-7.065 1.927q-2.569 1.927-2.997 6.423zm35.111 11.24a6.8 6.8 0 0 1-2.41 1.338 24.565 24.565 0 0 1-3.103.803q-1.661.322-3.479.535-1.822.216-3.64.536a27.472 27.472 0 0 0-3.372.856 9.996 9.996 0 0 0-2.89 1.445 6.88 6.88 0 0 0-1.98 2.302 7.4 7.4 0 0 0-.75 3.532 7.142 7.142 0 0 0 .75 3.426 5.733 5.733 0 0 0 2.034 2.194 8.573 8.573 0 0 0 2.997 1.124 19.087 19.087 0 0 0 3.533.321 13.43 13.43 0 0 0 6.958-1.499 10.02 10.02 0 0 0 3.639-3.586 11.47 11.47 0 0 0 1.445-4.228 29.201 29.201 0 0 0 .268-3.426zm41.427-28.26v10.276h.213a18.686 18.686 0 0 1 2.89-4.763 18.964 18.964 0 0 1 4.176-3.747 20.436 20.436 0 0 1 5.031-2.408 18.163 18.163 0 0 1 5.567-.857 11.88 11.88 0 0 1 3.317.535v14.13q-1.07-.213-2.568-.374a27.267 27.267 0 0 0-2.89-.16 16.212 16.212 0 0 0-7.066 1.39 12.242 12.242 0 0 0-4.656 3.8 15.224 15.224 0 0 0-2.516 5.62 30.574 30.574 0 0 0-.749 6.96v24.941h-15.2V390.98zm43.566 0v7.707h.32a17.444 17.444 0 0 1 7.494-7.012 21.684 21.684 0 0 1 9.42-2.194 25.835 25.835 0 0 1 10.01 1.66 14.858 14.858 0 0 1 6.155 4.603 17.833 17.833 0 0 1 3.157 7.171 44.719 44.719 0 0 1 .91 9.367v34.041h-15.2v-31.258q0-6.849-2.142-10.223-2.142-3.371-7.6-3.372-6.21 0-8.992 3.694-2.785 3.692-2.783 12.149v29.01h-15.2V390.98zm49.454-8.564v-12.524h15.2v12.524zm15.2 8.564v55.343h-15.2V390.98zm26.44 0v7.707h.321a17.444 17.444 0 0 1 7.493-7.012 21.684 21.684 0 0 1 9.42-2.194 25.834 25.834 0 0 1 10.01 1.66 14.858 14.858 0 0 1 6.155 4.603 17.833 17.833 0 0 1 3.158 7.171 44.719 44.719 0 0 1 .91 9.367v34.041h-15.2v-31.258q0-6.849-2.143-10.223-2.142-3.371-7.6-3.372-6.21 0-8.992 3.694-2.785 3.692-2.783 12.149v29.01h-15.2V390.98zm101.319 59.411a18.746 18.746 0 0 1-3.907 7.975 23.29 23.29 0 0 1-8.67 6.262q-5.675 2.569-15.202 2.57a35.405 35.405 0 0 1-8.296-1.018 26.384 26.384 0 0 1-7.707-3.157 18.95 18.95 0 0 1-5.78-5.514 15.974 15.974 0 0 1-2.623-8.082h15.094a8.672 8.672 0 0 0 4.174 5.941 14.99 14.99 0 0 0 7.173 1.66q6.423 0 9.366-3.854a15.123 15.123 0 0 0 2.837-9.741v-7.28h-.215a15.047 15.047 0 0 1-7.01 6.477 22.711 22.711 0 0 1-9.582 2.087 24.166 24.166 0 0 1-10.704-2.194 20.297 20.297 0 0 1-7.387-5.995 25 25 0 0 1-4.228-8.885 42.076 42.076 0 0 1-1.337-10.758 34.507 34.507 0 0 1 1.55-10.33 26.992 26.992 0 0 1 4.551-8.778 21.98 21.98 0 0 1 7.44-6.048 22.338 22.338 0 0 1 10.223-2.248 21.411 21.411 0 0 1 9.58 2.034 16.544 16.544 0 0 1 6.904 6.85h.215v-7.385h14.451v51.81a37.096 37.096 0 0 1-.91 7.601zm-20.82-18.412a11.86 11.86 0 0 0 4.068-3.426 15.151 15.151 0 0 0 2.408-4.87 20.168 20.168 0 0 0 .803-5.727 31.454 31.454 0 0 0-.642-6.477 16.218 16.218 0 0 0-2.14-5.405 11.118 11.118 0 0 0-3.961-3.747 12.511 12.511 0 0 0-6.21-1.392 11.145 11.145 0 0 0-5.512 1.285 11.574 11.574 0 0 0-3.854 3.479 14.641 14.641 0 0 0-2.248 5.031 24.784 24.784 0 0 0-.696 5.941 30.203 30.203 0 0 0 .589 5.941 16.029 16.029 0 0 0 2.033 5.3 11.872 11.872 0 0 0 3.801 3.852 10.751 10.751 0 0 0 5.888 1.5 12.084 12.084 0 0 0 5.673-1.285zm82.103-62.087v62.3h37.253v14.131h-54.058v-76.431zm45.494 12.524v-12.524h15.2v12.524zm15.2 8.564v55.343h-15.2V390.98zm27.19-21.088v27.832h.213a16.23 16.23 0 0 1 7.548-6.263 25.561 25.561 0 0 1 9.901-1.98 21.107 21.107 0 0 1 15.575 6.958 26.818 26.818 0 0 1 5.299 9.046 43.275 43.275 0 0 1 0 26.226 26.807 26.807 0 0 1-5.299 9.046 21.103 21.103 0 0 1-15.575 6.957 29.196 29.196 0 0 1-10.919-1.926 13.856 13.856 0 0 1-7.28-6.53h-.213v7.065h-14.451v-76.431zM1208 411.96a17.645 17.645 0 0 0-2.355-5.674 11.546 11.546 0 0 0-15.628-3.907 12.145 12.145 0 0 0-4.068 3.907 17.617 17.617 0 0 0-2.356 5.674 29.571 29.571 0 0 0-.75 6.744 29.08 29.08 0 0 0 .75 6.637 17.601 17.601 0 0 0 2.356 5.674 12.134 12.134 0 0 0 4.068 3.907 11.546 11.546 0 0 0 15.628-3.907 17.627 17.627 0 0 0 2.355-5.674 29.145 29.145 0 0 0 .75-6.637 29.637 29.637 0 0 0-.75-6.744zm40.035-20.98v10.276h.214a18.686 18.686 0 0 1 2.89-4.763 18.965 18.965 0 0 1 4.176-3.747 20.437 20.437 0 0 1 5.03-2.408 18.162 18.162 0 0 1 5.568-.857 11.88 11.88 0 0 1 3.317.535v14.13q-1.07-.213-2.568-.374a27.265 27.265 0 0 0-2.89-.16 16.212 16.212 0 0 0-7.066 1.39 12.242 12.242 0 0 0-4.656 3.8 15.226 15.226 0 0 0-2.516 5.62 30.579 30.579 0 0 0-.75 6.96v24.941h-15.2V390.98zm26.547 17.02a17.651 17.651 0 0 1 2.676-8.885 18.22 18.22 0 0 1 5.995-5.673 26.138 26.138 0 0 1 8.189-3.051 46.624 46.624 0 0 1 9.153-.91 62.227 62.227 0 0 1 8.457.589 25.932 25.932 0 0 1 7.814 2.301 15.41 15.41 0 0 1 5.78 4.764 13.31 13.31 0 0 1 2.248 8.082v28.796a57.613 57.613 0 0 0 .429 7.171 12.93 12.93 0 0 0 1.497 5.139h-15.414a21.267 21.267 0 0 1-.696-2.622 22.507 22.507 0 0 1-.374-2.73 19.805 19.805 0 0 1-8.564 5.245 34.411 34.411 0 0 1-10.063 1.498 27.185 27.185 0 0 1-7.386-.963 16.904 16.904 0 0 1-5.995-2.997 13.93 13.93 0 0 1-4.013-5.138 17.359 17.359 0 0 1-1.445-7.387 16.124 16.124 0 0 1 1.658-7.76 13.864 13.864 0 0 1 4.282-4.871 19.22 19.22 0 0 1 5.995-2.73 64.541 64.541 0 0 1 6.797-1.445q3.425-.535 6.744-.856a40.564 40.564 0 0 0 5.888-.964 10.27 10.27 0 0 0 4.068-1.873 4.116 4.116 0 0 0 1.391-3.586 8.076 8.076 0 0 0-.803-3.908 5.915 5.915 0 0 0-2.14-2.247 8.445 8.445 0 0 0-3.106-1.07 25.478 25.478 0 0 0-3.8-.268 11.544 11.544 0 0 0-7.065 1.926q-2.569 1.927-2.997 6.423zm35.112 11.24a6.8 6.8 0 0 1-2.41 1.338 24.57 24.57 0 0 1-3.104.803q-1.66.322-3.478.535-1.822.216-3.64.536a27.471 27.471 0 0 0-3.372.856 9.997 9.997 0 0 0-2.89 1.445 6.879 6.879 0 0 0-1.981 2.302 7.4 7.4 0 0 0-.749 3.532 7.142 7.142 0 0 0 .749 3.426 5.733 5.733 0 0 0 2.034 2.194 8.572 8.572 0 0 0 2.998 1.124 19.087 19.087 0 0 0 3.532.321 13.43 13.43 0 0 0 6.959-1.499 10.02 10.02 0 0 0 3.638-3.586 11.47 11.47 0 0 0 1.445-4.228 29.203 29.203 0 0 0 .269-3.426zm41.426-28.26v10.276h.213a18.686 18.686 0 0 1 2.89-4.763 18.964 18.964 0 0 1 4.175-3.747 20.437 20.437 0 0 1 5.032-2.408 18.162 18.162 0 0 1 5.566-.857 11.88 11.88 0 0 1 3.318.535v14.13q-1.07-.213-2.568-.374a27.265 27.265 0 0 0-2.89-.16 16.212 16.212 0 0 0-7.066 1.39 12.242 12.242 0 0 0-4.657 3.8 15.226 15.226 0 0 0-2.515 5.62 30.57 30.57 0 0 0-.75 6.96v24.941h-15.2V390.98z" class="cls-2"/><path d="M1398.755 462.808q-4.39 2.89-12.203 2.89-2.356 0-4.657-.16-2.303-.161-4.656-.375V452.64q2.14.213 4.389.428a31.779 31.779 0 0 0 4.495.107 5.91 5.91 0 0 0 4.443-2.355 7.593 7.593 0 0 0 1.445-4.496 9.134 9.134 0 0 0-.642-3.425l-19.376-51.918h16.165l12.524 37.894h.215l12.095-37.894h15.737l-23.122 62.194q-2.465 6.744-6.852 9.634z" class="cls-2"/><g class="cls-3"><g class="cls-3"><path fill="#f25022" d="M18.408 11.322H161.52q-.013 71.556-.009 143.112H18.408z"/><path fill="#80ba01" d="M176.132 11.322h143.112q0 71.556-.009 143.112-71.543-.013-143.095 0-.025-71.556-.008-143.112"/><path d="M1308.953 65.85c13.194-8.586 30.238-9.386 45.107-5.294.13 8.836.018 17.68.061 26.525-7.065-3.112-15.377-5.14-22.812-2.089-5.897 2.338-9.404 8.39-10.323 14.44-1.109 7.676-.387 15.455-.576 23.173 15.094.035 30.187.009 45.28.017.112-9.798-.12-19.606.13-29.404 10.262-2.923 20.413-6.197 30.624-9.275.086 12.91-.12 25.83.112 38.748 10.203-.146 20.414-.034 30.625-.069v25.133c-10.245-.421-20.5-.112-30.745-.146.043 14.449.008 28.898.017 43.355.162 8.002-.43 16.047.507 24.024.567 4.701 2.278 9.911 6.687 12.343 7.384 4.134 16.753 2.329 23.534-2.21v25.383c-8.844 3.842-18.729 5.01-28.295 4.332-9.078-.67-18.48-3.971-24.403-11.191-6.841-8.157-8.604-19.202-8.742-29.534-.077-22.176.01-44.352-.033-66.536q-22.653-.013-45.298.008-.026 52.204-.01 104.408h-30.95q0-52.191.017-104.373c-7.178-.138-14.363.034-21.54-.112.026-8.26.06-16.529-.017-24.798 7.143-.163 14.294-.094 21.454-.043.523-10.984-1.152-22.287 2.13-32.989a42.219 42.219 0 0 1 17.459-23.826M646.27 67.655a18.93 18.93 0 0 1 17.13 6.069 17.645 17.645 0 0 1 2.15 20.104c-3.97 7.048-12.86 10.323-20.604 8.63-8.036-1.444-14.732-8.913-14.371-17.242-.232-8.768 7.1-16.58 15.695-17.56m-237.205 3.833h45.014q21.015 53.364 42.151 106.694c3.585 8.896 6.937 17.895 10.693 26.723 18.024-44.455 36.307-88.799 54.193-133.314 14.432-.232 28.872-.052 43.312-.086q-.051 90.238-.008 180.476c-10.418-.026-20.827.086-31.236-.06.112-44.395-.008-88.79.052-133.193a77.253 77.253 0 0 0-.19-5.983 23.87 23.87 0 0 0-1.624 2.888c-17.887 45.444-36.117 90.758-53.901 136.245-7.41.266-14.827.017-22.245.137-18.454-45.443-36.676-90.99-55.036-136.468a34.349 34.349 0 0 0-1.555-2.75c-.379 19.451-.06 38.92-.164 58.37q.013 40.407.009 80.814c-9.825.026-19.649 0-29.465.009q-.013-90.251 0-180.502m322.385 51.013a84.727 84.727 0 0 1 45.976.138 37.105 37.105 0 0 1 8.828 3.679c-.172 9.858 0 19.726-.095 29.593-9.979-7.624-22.64-12.454-35.326-10.856a36.344 36.344 0 0 0-25.709 14.277c-7.744 10.091-9.532 23.491-8.2 35.834.997 9.661 4.994 19.314 12.505 25.716 7.805 6.938 18.748 9.396 28.959 8.622 10.09-1.16 19.614-5.433 27.77-11.397.087 9.343-.042 18.686.07 28.03-12.652 7.529-27.824 9.471-42.306 8.758-14.818-.782-29.594-6.395-40.32-16.812-11.656-11.235-17.982-27.256-18.73-43.304-.756-16.683 2.639-34.089 12.24-48.022 8.045-11.887 20.629-20.302 34.338-24.256m338.097-1.968a81.874 81.874 0 0 1 42.839 4.46c.017 9.49 0 18.97.009 28.451a54.54 54.54 0 0 0-32.508-9.6c-5.785.223-12.145 2.673-14.784 8.174-2.096 5.44-.645 12.575 4.487 15.832 8.776 5.87 19.245 8.363 28.339 13.624 7.16 4.022 14.105 9.283 17.732 16.864 6.816 14.2 3.928 32.963-8.054 43.552-11.44 10.693-27.918 13.65-43.071 13.082-10.762-.696-21.574-2.819-31.467-7.22.042-9.979-.06-19.95.05-29.92a67.688 67.688 0 0 0 28.082 12.12c7.074 1.151 14.767 1.203 21.36-1.96 6.308-3.138 7.443-12.103 3.695-17.586-3.507-4.23-8.655-6.559-13.512-8.845-9.12-4.1-18.703-7.53-26.713-13.675a32.019 32.019 0 0 1-11.562-17.56c-2.474-10.289-1.701-21.884 4.28-30.875 6.834-10.477 18.704-16.76 30.798-18.918m-214.084 4.074c8.544-5.132 19.4-5.561 28.726-2.424-.043 10.323 0 20.646-.025 30.969a32.898 32.898 0 0 0-20.921-4.917c-8.786.997-15.748 7.745-19.358 15.48-3.919 8.192-4.659 17.459-4.41 26.414v61.86h-30.513q-.038-64.644-.026-129.299c10.187-.129 20.371-.077 30.557-.026-.043 7.4 0 14.801-.025 22.21 3.308-8.053 8.234-15.875 15.995-20.267m-222.077-1.943c10.263-.043 20.534-.146 30.797.052-.12 43.088-.009 86.185-.052 129.274h-30.728q-.039-64.659-.017-129.326" class="cls-6"/><path fill="#02a4ef" d="M18.408 169.037q71.556.026 143.112.018.013 71.556 0 143.103H18.408z"/><path fill="#ffb902" d="M176.14 169.054q71.543-.026 143.104-.008v143.112H176.132q.013-71.556.008-143.104"/><path d="M985.459 125.502c-13.787-6.275-29.456-7.117-44.31-5.226-15.6 1.968-30.788 9.309-40.69 21.746-9.042 11.105-13.442 25.374-14.285 39.53-1.246 16.684 1.539 34.39 11.337 48.314 8.347 12.017 21.524 20.277 35.757 23.32a88.893 88.893 0 0 0 36.239.034 59.905 59.905 0 0 0 35.532-21.927c8.423-10.701 12.652-24.196 13.606-37.665.971-13.795-.42-28.08-6.154-40.802a54.735 54.735 0 0 0-27.032-27.324m-2.863 86.7a28.273 28.273 0 0 1-15.204 14.94 41.737 41.737 0 0 1-25.228 1.108 30.887 30.887 0 0 1-19.399-16.004c-4.986-9.954-5.733-21.463-4.702-32.379.937-9.927 4.392-20.139 11.956-26.989 5.484-5.123 12.962-7.624 20.363-8.037 9.3-.61 19.201 2.02 25.89 8.785 7.15 7.03 9.917 17.233 10.682 26.963.55 10.65.112 21.747-4.358 31.614m251.191-85.73c-14.098-7.117-30.497-8.157-45.942-6.24-12.455 1.599-24.695 6.326-34.201 14.672-11.604 9.997-18.412 24.695-20.414 39.728-1.908 15.033-1.264 30.866 4.865 44.936a57.36 57.36 0 0 0 31.441 30.505c13.779 5.424 29.095 6.034 43.596 3.687 14.827-2.45 28.872-10.245 38.051-22.244 9.808-12.395 14.028-28.434 14.002-44.06.215-10.46-1.091-21.067-4.814-30.892a55.226 55.226 0 0 0-26.584-30.092m-1.333 73.946c-1.186 6.807-3.541 13.598-8.003 18.987a28.962 28.962 0 0 1-18.084 9.73 40.909 40.909 0 0 1-22.141-2.407 31.37 31.37 0 0 1-16.324-17.079c-3.669-8.87-4.4-18.695-3.669-28.184.705-9.188 3.308-18.617 9.378-25.76 5.534-6.67 14.027-10.357 22.587-10.839 8.742-.61 18.077 1.41 24.799 7.315 6.197 5.14 9.626 12.841 11.2 20.594a78.618 78.618 0 0 1 .257 27.643" class="cls-6"/></g></g></svg>