<svg xmlns="http://www.w3.org/2000/svg" role="img" viewBox="-11.05 32.95 834.60 557.10"><title>Emet Labs (hosting) logo</title><path fill="#0063db" d="M228.08131 302.66615l23.86247-.90045 1.20062 1.65083-1.3507 15.15793h-60.63168l1.05055-28.81504-1.0505-67.83542H252.394l1.20063 1.65088-1.50075 15.1579-23.11207-.7504-17.4091.15008-.45023 23.26214 16.65868.30015 15.75824-.45023 1.2006 1.50078-1.35068 15.15794-17.10893-.45023-15.45809.15008-.15007 10.35538.45022 14.5576zM344.8423 242.7849l7.05368 75.78957H334.9371l-1.05056-22.96199-2.55132-24.76294h-1.20063l-16.6587 40.221h-14.5576l-14.85775-40.221h-1.20063l-2.70142 22.96199-1.65086 24.76294h-16.05838l8.10423-75.78957h22.21161l3.00156 11.1058 10.95573 32.11678h1.2006l11.85618-31.9667 3.30175-11.25588zm56.57953 61.08189l20.41064-.6003 1.20063 1.2006-1.35068 14.10738h-51.92716l.75038-22.51176-.75038-53.27781h52.67751l1.05053 1.50077-1.2006 13.95729-19.5102-.75038h-14.10738l-.33016 15.30799 13.50706.15007 13.08682-.45022 1.05055 1.35067-1.2006 14.25746-14.25746-.45022h-12.4565l-.15008 6.60343.30015 9.60503zm88.21604-61.0819l1.05055 1.50078-1.05055 14.40754-15.30798-1.05055h-4.35228l-.45025 36.61912.60032 24.31267H451.3679l.75037-22.51174-.30015-38.42005h-4.35227l-15.60814 1.05052-1.20062-1.50075 1.05052-14.40753zm33.76762 27.91458l1.65088 1.65087v12.3064l-35.71865 5.55294-1.65087-1.65085V276.1023zm64.83384 31.06621l1.20063 1.65088-1.3507 15.15791h-52.22726l1.05055-28.81504L535.862 221.924h20.71081l-1.20062 66.03447.45022 13.8072zm53.54797-58.98076l24.16262 75.78955h-19.05996l-2.1011-10.95573-1.3507-4.35225-15.308-.15008-13.50705.30015-1.05055 3.15165-2.25118 12.00626h-18.45963l26.56386-75.78957zm-12.4565 46.3742l10.05525-.15007-8.55448-28.96514h-1.20063l-10.05525 28.96512zm96.50038-9.75512q7.95413 1.95105 11.79615 6.21325 3.81198 4.29225 3.81198 11.34593 0 11.40596-9.45493 16.80879-9.45493 5.4028-28.06464 5.4028-8.25433 0-23.26216-.6003l.7504-22.51176-.7504-53.27781 30.46592-.15008q12.60658 0 19.7503 4.95258 7.11371 4.9526 7.11371 14.25746 0 6.00313-3.15165 10.50548-3.15163 4.50235-9.00468 7.05368zm-7.50393-15.00781q0-4.65243-3.21168-6.45338-3.2417-1.80093-11.34593-1.80093h-4.65243l-.30015 17.85931 10.95574.30015q4.35225-1.05052 6.45335-3.39174 2.1011-2.31124 2.1011-6.51341zm-11.1058 41.5717q7.20377 0 11.04577-2.4913 3.81198-2.46128 3.81198-7.41388 0-3.60188-2.55132-5.70298-2.55133-2.10108-7.80408-3.3017l-13.05681.30015-.15008 6.9036.30015 11.25588q4.8025.45023 8.40438.45023zm77.89067-64.23354q10.80563 0 20.71081 3.75195l-2.8515 16.80879-2.7014.75037q-4.8025-3.60185-9.30486-5.4028-4.50235-1.80095-8.2543-1.80095-4.2022 0-6.60346 2.01105-2.40125 2.04107-2.40125 4.89255 0 3.15165 3.00158 5.1627 3.00155 2.04108 9.45493 4.74248 6.75353 2.8515 11.01573 5.25276 4.29225 2.40125 7.35386 6.66345 3.0916 4.29225 3.0916 10.74563 0 6.45335-3.39178 12.06629-3.36173 5.64295-10.2053 9.09475-6.81356 3.4518-16.86882 3.4518-5.40283 0-11.79615-1.11058-6.36333-1.1406-12.36646-3.54185l2.55132-17.70923 1.95103-1.35073q4.95258 4.50235 11.1058 7.20378 6.15321 2.7014 10.95571 2.7014 4.2022 0 6.81356-2.1011 2.64137-2.1011 2.64137-5.25273 0-3.30172-3.0916-5.3428-3.0616-2.01105-9.51498-4.56238-6.75353-2.85147-11.04575-5.3428-4.26223-2.46128-7.35385-6.81353-3.06159-4.35228-3.06159-10.80566 0-6.75353 3.66191-12.3064 3.69192-5.5529 10.50548-8.70456 6.84358-3.15165 15.99836-3.15165z" class="wordmark-text-0" data-fill-palette-color="primary"/><path fill="#0063db" d="M191.14486 400.90284v-51.51146h29.59667v4.97876h-23.87318v20.23221h20.7149v4.95117h-20.7149v21.34932zm43.66403-49.6634q-2.248 0-2.8962-.6344-1.00679-1.04815-1.00679-2.88245 0-1.83427.22068-2.63418.22067-.78611.662-1.22744.79988-.7999 2.46866-.7999t2.38594.16548q.73096.1655 1.19985.63442.81373.81369.81373 2.64798 0 1.83427-.19308 2.62039-.17928.79991-.62063 1.26883-.84127.84128-3.03414.84128zm-2.64796 49.6634l-.06896-40.0645h5.51661v40.0645zm40.60232-35.48566q-6.56479 0-13.37782 3.87541v31.61025h-5.58556v-40.0645h4.92357l.53787 4.13749q3.66854-2.99275 9.11622-4.27537 2.22043-.53788 5.227-.53788 2.99277 0 5.28214.68959 2.28941.68959 3.641 2.20663 2.4549 2.73074 2.4549 9.92993v27.91411H279.328v-26.86596q0-4.85461-.9516-6.24756-.93783-1.39295-2.23423-1.88943-1.29642-.48271-3.37893-.48271zm33.5962 35.48566v-46.5327H292.6231v-4.97876h33.6652v4.97876H312.083v46.5327zm57.56595-6.93715l1.655 4.81325q-6.96475 2.7997-15.39138 2.7997-4.8822 0-8.27494-1.0068-5.42008-1.55846-7.21298-6.39927-1.6412-4.55124-1.6412-13.47437v-1.71015q0-10.67465 4.4409-14.99142 3.99955-3.83405 13.36399-3.83405 9.13003 0 12.46758 4.50982 1.61362 2.19286 2.1377 5.30978.51028 3.1031.51028 5.93036 0 4.4133-.19308 6.8406-4.7443.20688-8.52318.20688H351.844q-8.48182 0-13.0606-.74473 0 7.75084 1.9446 10.81257 2.39974 3.7375 9.52997 3.7375 7.14403 0 13.66742-2.79967zm-25.14198-15.6948h21.5148v-3.2272q0-5.28216-2.05494-7.54398-2.28939-2.52386-7.91634-2.52386-6.73028 0-9.18518 2.92382-2.35834 2.7997-2.35834 10.37125zm67.50964 16.30163l1.68258 4.55119q-4.68915 2.45492-12.83995 2.45492-4.81324 0-7.06127-.74475-5.76487-1.94462-7.54398-6.63374-1.24123-3.26861-1.44811-7.03368-.20688-3.7789-.20688-6.37171t.13792-5.06149q.13792-2.4687.662-4.75809.51028-2.2894 1.59982-4.2616 1.07575-1.97219 2.92382-3.44789 3.99953-3.1031 11.51592-3.1031 5.51664 0 10.16437 1.61362 1.25503.39996 1.88944.77232l-1.68256 4.99256q-6.46824-2.4963-10.59192-2.4963-4.12366 0-6.05446.93784-1.94462.95163-3.02036 2.86865-1.8205 3.29618-1.8205 12.12279 0 3.53062.23444 6.44061.23445 2.91005 1.1861 5.00636 1.98596 4.30297 8.19216 4.30297 6.21999 0 12.08142-2.1515zm33.01697-29.19673q-6.70269 0-13.29504 3.87544v31.65161h-5.58557v-57.3039l5.44765-.53788v21.91477q3.47546-2.96518 9.01966-4.27537 2.23423-.53788 5.2546-.53788 3.03414 0 5.32353.68959 2.28941.68959 3.64097 2.20663 2.4273 2.73074 2.4273 9.92993v27.91411h-5.66832v-26.90732q0-4.84084-.93783-6.24759-.9378-1.39295-2.23422-1.87564-1.2964-.4965-3.39271-.4965zm44.64327 35.52705V349.5569q10.95048-.8413 18.38414-.8413h.6758q8.10942 0 11.378 3.62717 2.73074 3.1445 2.73074 10.24713 0 9.08864-2.59282 13.52953-2.66175 4.50982-8.82658 5.65453 1.1447 1.42054 2.26182 2.96518l1.98598 2.86865 8.85418 13.29506h-6.73027l-7.75086-12.19174q-3.22722-4.90978-4.78568-6.4958h-.35857q-2.39974-.0276-4.62017-.09656l-4.88223-.20688v18.99096zm5.72348-47.0706v23.52841q3.53065.17929 11.116.17929 6.22 0 8.48181-3.50306 1.91703-3.06173 1.91703-10.71604 0-6.42687-2.85486-8.41285-1.68255-1.17228-3.69613-1.3102-1.99978-.13791-3.50306-.13791-1.48947 0-2.89622.0138-1.39295.01379-2.7721.05515-1.37915.0276-2.7997.09656zm69.56461 40.13345l1.6412 4.81325q-6.96475 2.7997-15.37758 2.7997-4.8822 0-8.28874-1.0068-5.42008-1.55846-7.19919-6.39927-1.65498-4.55124-1.65498-13.47437v-1.71015q0-10.67465 4.44088-14.99142 4.01334-3.83405 13.3778-3.83405 9.11623 0 12.45378 4.50982 1.61362 2.19286 2.1377 5.30978.52407 3.1031.52407 5.93036 0 4.4133-.20682 6.8406-4.74429.20688-8.52318.20688h-5.42008q-8.48182 0-13.06062-.74473 0 7.75084 1.95842 10.81257 2.38594 3.7375 9.52997 3.7375 7.13023 0 13.66742-2.79967zm-25.1558-15.6948h21.51483v-3.2272q0-5.28216-2.05495-7.54398-2.28938-2.52386-7.91634-2.52386-6.73028 0-9.18518 2.92382-2.35837 2.7997-2.35837 10.37125zm38.98874 19.33577l2.4273-4.64778q6.93715 3.87546 13.94326 3.87546 5.82004 0 6.82683-4.15127.34477-1.40675.34477-3.4479 0-2.04114-.48269-3.15826-.46891-1.1309-1.57226-1.69635-1.1171-.55167-2.95138-.8137-1.83427-.27584-4.66153-.75853-2.82729-.49651-5.18564-1.10334-2.35835-.60684-4.01333-1.75152-3.50306-2.45492-3.36514-8.27494v-.84127q0-6.13727 4.04093-8.73008 3.90301-2.55143 12.89508-1.73772 6.13726.56544 9.76444 2.11013l-1.58603 5.08906q-4.02713-1.72395-9.69548-2.4963-1.75152-.23444-3.28238-.23444t-2.7721.23447q-1.24124.23445-2.08252.88265-1.62741 1.31021-1.69637 4.88223-.0966 4.20641 2.35837 5.35112 2.35835 1.11711 5.59936 1.53087 3.22722.42752 5.28217.74472 2.05494.3172 3.7375.85508 1.68258.53787 2.89624 1.72397 2.52384 2.38591 2.45488 8.31627-.16546 10.32989-8.6197 11.778-2.55146.44132-5.11669.44132-2.56522 0-4.70292-.3172-2.13767-.331-4.0823-.89644-3.70992-1.04816-6.70267-2.7583zm72.28152-3.64097l1.65499 4.81325q-6.96475 2.7997-15.39137 2.7997-4.8822 0-8.27494-1.0068-5.42008-1.55846-7.21299-6.39927-1.64119-4.55124-1.64119-13.47437v-1.71015q0-10.67465 4.44089-14.99142 3.99954-3.83405 13.364-3.83405 9.13 0 12.45378 4.50982 1.6274 2.19286 2.15147 5.30978.5103 3.1031.5103 5.93036 0 4.4133-.19295 6.8406-4.75809.20688-8.52318.20688h-5.42008q-8.48181 0-13.06062-.74473 0 7.75084 1.94462 10.81257 2.39974 3.7375 9.52997 3.7375 7.14403 0 13.66743-2.79967zm-25.14201-15.6948h21.51483v-3.2272q0-5.28216-2.05494-7.54398-2.28941-2.52386-7.91635-2.52386-6.7303 0-9.18517 2.92382-2.35837 2.7997-2.35837 10.37125zm72.0195-4.13745v12.5641q0 6.70268.63441 13.92947l-4.97876.41375-.84128-4.68915q-4.27537 3.43412-11.32287 4.78568-2.28939.44134-4.0685.44134t-3.14449-.1655q-1.36535-.17927-2.63418-.66198-1.25503-.48271-2.33075-1.36538-1.08955-.86887-1.88946-2.31696-1.72395-3.06175-1.72395-7.3647 0-4.2892.62063-6.66131.6344-2.37217 2.08251-3.9582 2.85486-3.13067 9.62652-3.13067 6.77164 0 14.43975 2.55143v-4.37192q0-7.30954-6.02692-8.6473-1.94459-.44133-4.46845-.44133-5.76487 0-11.95727 2.2894l-1.25504-4.85462q1.72395-1.1447 8.75763-2.05494 2.22045-.26207 5.33735-.26207t6.10964.74475q3.00657.73096 4.99256 2.41354 4.04093 3.33754 4.04093 10.81257zm-5.66834 8.5921q-7.87498-1.98595-14.5363-1.98595-4.10988 0-5.46144 2.34455-.91024 1.65499-.91024 4.8822 0 3.24102.35857 4.68916.35859 1.4481 1.1585 2.38591 1.58603 1.7929 5.227 1.7929 5.68212 0 11.28149-2.93758 1.71015-.86887 3.0893-1.94462-.20683-3.64097-.20683-9.22654zm35.29259-17.00496q-4.31674 0-8.78522 4.30297v30.8793H707.473v-40.0645h4.92358l.53787 5.30978q1.58603-2.45493 3.42032-3.83405 1.83428-1.37918 3.00655-1.68258 1.68258-.4689 3.19965-.4689t3.80646.60681l-.51028 5.35113q-1.71015-.39996-3.99956-.39996zm40.53338 28.85192l1.68258 4.55123q-4.67535 2.45488-12.82615 2.45488-4.81327 0-7.07506-.74473-5.75108-1.94462-7.54399-6.63374-1.24123-3.26861-1.4481-7.0337-.19296-3.77887-.19296-6.37169t.1241-5.06149q.13796-2.4687.66199-4.75811.52408-2.28939 1.59982-4.26158 1.07573-1.97219 2.9238-3.44789 4.01335-3.1031 11.51595-3.1031 5.5304 0 10.17816 1.61362 1.24124.39996 1.87566.77232l-1.68258 4.99253q-6.45443-2.49626-10.57812-2.49626-4.13746 0-6.06828.93783-1.93082.95163-3.00654 2.86865-1.8205 3.29618-1.8205 12.12279 0 3.53062.23457 6.44061.23457 2.91005 1.17227 5.00636 1.98599 4.30297 8.20598 4.30297 6.2062 0 12.0676-2.1515zm33.03076-29.19671q-6.70268 0-13.30883 3.87544v31.65161h-5.5856v-57.3039l5.46146-.53788v21.91477q3.46168-2.96518 9.01968-4.27537 2.22043-.53788 5.25457-.53788 3.03417 0 5.32356.68959t3.62717 2.20663q2.4273 2.73074 2.4273 9.92993v27.91411h-5.65452v-26.90732q0-4.84084-.95162-6.24759-.93784-1.39295-2.23423-1.87564-1.2964-.4965-3.37894-.4965z" class="slogan-text-1" data-fill-palette-color="secondary"/><path fill="#0063db" stroke="transparent" d="M530.61225 206.79083V49.05815H5.22341V574.447h525.38884V416.71432h-8.83803v148.89464H14.06144V57.89619h507.71278v148.89464z" data-fill-palette-color="primary" stroke-width="2.52227"/></svg>