<svg xmlns="http://www.w3.org/2000/svg" role="img" viewBox="-2.60 -2.35 144.09 161.46"><title>envd logo</title><path fill="#000" fill-opacity=".87" fill-rule="evenodd" d="M92.8342 24.9438c3.2605-6.708 6.5161-11.9859 9.1958-15.36688 1.313-1.65575 2.402-2.74737 3.206-3.34353.165.46307.338 1.0577.513 1.77998.47 1.93881.882 4.47463 1.222 7.09893.683 5.2749 1.029 10.5264 1.029 11.3664 0 1.1771.163 3.1897.759 5.1718.567 1.8809 1.712 4.3587 4.123 5.5642.239.1194.499.2465.777.3828l.001.0002c2.734 1.3371 7.278 3.5591 11.369 8.0369 4.443 4.8623 8.471 12.5434 8.471 24.9931 0 13.3622-5.701 22.208-11.987 27.8189-3.164 2.8244-6.485 4.8334-9.313 6.1614-2.777 1.304-4.926 1.881-5.889 1.999-.362-.001-.603-.005-.803-.026-.021-.129-.041-.323-.041-.599V85.9921c.001-.0106.003-.0279.007-.0534l.01-.0759c.003-.0292.008-.0655.013-.1041.009-.0766.021-.1787.029-.2937.073-1.0437-.251-2.1526-.872-3.0314-.661-.9361-1.824-1.8125-3.425-1.8125H96.0664c-1.8447 0-3.5014 1.1256-4.1818 2.8389l-8.0869 20.361-8.4338-20.4179c-.6955-1.6837-2.3375-2.782-4.1592-2.782h-9.5282c-.8399 0-1.9771.2665-2.9525 1.074-1.0763.891-1.7207 2.2476-1.7207 3.9247V104.061L43.0656 82.6649c-.6925-1.063-2.439-2.5165-4.6375-1.677-.6993.2671-1.5041.7407-2.1398 1.5512-.6602.8417-1.0171 1.8949-1.0171 3.0807V105.481c0 .22-.008.47-.0309.72-.0076.083-.0166.163-.0266.237l-.0579-.008c-.2989-.042-.6988-.112-1.1875-.216-.9766-.207-2.2696-.543-3.7675-1.046-3.0011-1.009-6.7633-2.671-10.4342-5.272-6.8024-4.8207-13.37811-12.9099-14.18398-26.4462.1364.019.27575.0288.41738.0288h25c1.6569 0 3-1.3431 3-3 0-1.6568-1.3431-3-3-3H6c-.13642 0-.27072.0091-.40232.0268.94029-14.7741 8.57792-24.4208 18.95872-29.2609 3.2921-1.535 4.9222-4.1834 5.699-6.6034.7451-2.3216.7448-4.5475.7446-5.5719v-.0446c0-.783.4598-5.8141 1.3244-10.9518.4282-2.5443.9379-5.0031 1.5055-6.89669.1736-.57917.3442-1.0766.5081-1.49036.0266.02563.0536.05191.0812.07884 1.0684 1.04576 2.4357 2.69407 3.8888 4.70961 2.9152 4.0437 5.8892 9.1643 7.2836 13.0473.8674 2.4156 3.6278 3.8947 6.2126 2.8981 13.9276-5.37 28.1966-3.5331 34.411-.3824 2.1785 1.1045 5.338.5421 6.619-2.0934zM104.843 5.35553c0-.00026.003.00366.01.01249-.007-.00783-.01-.01223-.01-.01249zm-71.5713.46352c-.0001-.00012.0028.00113.0086.00408-.0057-.00249-.0086-.00397-.0086-.00408zM107.69 1.31126c-1.033-.59423-2.127-.57116-3-.34194-.841.22083-1.616.66084-2.293 1.14666-1.359.97567-2.8114 2.49569-4.2852 4.3551-2.9476 3.71862-6.3476 9.26482-9.6765 16.08582-7.5863-3.8242-23.1922-5.5974-38.1981.1087-1.6319-4.459-4.8496-9.9213-7.8733-14.11547-1.5353-2.12952-3.0918-4.03198-4.4473-5.35873-.6634-.64935-1.3812-1.26326-2.1015-1.67929-.3592-.20748-.8335-.43348-1.3851-.54026-.5687-.1101-1.3793-.11859-2.176.33943-1.0524.60499-1.6901 1.66624-2.0758 2.43297-.437.86881-.8118 1.90879-1.1377 2.99617-.6551 2.18541-1.2053 4.87908-1.6468 7.50268C26.5189 19.4414 26 24.8087 26 26.0246c0 .9957-.0115 2.5498-.5054 4.0884-.4732 1.4744-1.3431 2.8035-3.051 3.5998C9.53861 39.7298.5 52.1926.5 70.6277c0 17.1018 7.99097 27.4058 16.3756 33.3473 4.1526 2.943 8.3769 4.804 11.7324 5.932 1.6804.565 3.1583.951 4.3209 1.198 1.0968.233 2.0658.376 2.6691.376.5933 0 1.1563-.078 1.6817-.237 1.9027-.576 2.5036-2.397 2.7003-3.157.2503-.968.2912-1.976.2912-2.606V87.5357L53.7327 108.2c2.442 3.749 8.2706 2.026 8.2706-2.455V85.6211h8.8669l8.7774 21.2499c1.5436 3.737 6.849 3.701 8.3414-.057l8.4172-21.1929H100.481c-.008.101-.014.2154-.014.3366v20.0243c0 1.993.578 3.846 2.302 4.879.742.445 1.507.608 2.101.68.559.067 1.123.066 1.523.066H106.564l.119-.011c1.702-.163 4.495-.984 7.643-2.462 3.203-1.504 6.944-3.768 10.517-6.957 7.188-6.4164 13.657-16.5605 13.657-31.5493 0-13.6632-4.472-22.5566-9.779-28.3657-4.764-5.2141-10.107-7.8147-12.857-9.1535-.276-.1342-.526-.2557-.746-.3659-.514-.2568-1.118-1.0295-1.571-2.5333-.422-1.4026-.547-2.9089-.547-3.7306 0-1.159-.378-6.658-1.071-12.0085-.348-2.6884-.787-5.43412-1.321-7.63604-.266-1.09349-.574-2.13527-.94-2.99634-.183-.43101-.406-.87777-.683-1.28403-.262-.38419-.675-.88633-1.295-1.24253z" clip-rule="evenodd"/><rect width="14" height="26" x="53" y="43.479" fill="#000" fill-opacity=".87" rx="7"/><rect width="14" height="26" x="93" y="43.479" fill="#000" fill-opacity=".87" rx="7"/><path fill="#000" fill-rule="evenodd" d="M17.1978 122.831c-4.6945 0-8.50005 3.806-8.50005 8.5v15.799c0 4.694 3.80555 8.5 8.50005 8.5h13.9333c1.3807 0 2.5-1.119 2.5-2.5s-1.1193-2.5-2.5-2.5H17.1978c-1.933 0-3.5-1.567-3.5-3.5v-5.399h15.2783c1.3808 0 2.5-1.12 2.5-2.5 0-1.381-1.1192-2.5-2.5-2.5H13.6978v-5.4c0-1.932 1.567-3.5 3.5-3.5h13.9333c1.3807 0 2.5-1.119 2.5-2.5 0-1.38-1.1193-2.5-2.5-2.5z" clip-rule="evenodd"/><g fill="#000" stroke-linecap="round" color="#000"><path d="M63.49414 122.83008a2.5 2.5 0 0 0-2.5 2.5v22.13086l-16.6582-23.17383v-.002c-.90763-1.2614-2.6211-1.70432-3.91602-1.28711-1.29492.41721-2.42578 1.77796-2.42578 3.33203v26.78906a2.5 2.5 0 0 0 2.5 2.5 2.5 2.5 0 0 0 2.5-2.5v-22.13086l16.6582 23.17383c.90664 1.26184 2.6185 1.70802 3.91407 1.29101 1.29556-.417 2.42773-1.77796 2.42773-3.33203v-26.79101a2.5 2.5 0 0 0-2.5-2.5z"/><path stroke-linejoin="round" d="M72.44531 122.91406a2.5 2.5 0 0 0-1.9121.004 2.5 2.5 0 0 0-1.34766 3.26953l11.57812 27.7832c.55739 1.33884 1.94476 2.1543 3.23047 2.1543 1.2857 0 2.67297-.81558 3.23047-2.1543l11.57617-27.7832a2.5 2.5 0 0 0-1.3457-3.26953 2.5 2.5 0 0 0-3.26953 1.3457l-10.1914 24.46094-10.19337-24.46094a2.5 2.5 0 0 0-1.35547-1.34961z"/><path d="M105.49414 122.72461c-1.90465 0-3.5 1.59534-3.5 3.5v26c0 1.90321 1.59836 3.5 3.5 3.5h10.76758c7.00284 0 12.73242-5.73034 12.73242-12.73242v-7.53516c0-7.00208-5.72928-12.73242-12.73242-12.73242zm1.5 5h9.26758c4.30085 0 7.73242 3.43251 7.73242 7.73242v7.53516c0 4.2999-3.43127 7.73242-7.73242 7.73242h-9.26758z"/></g></svg>