<svg xmlns="http://www.w3.org/2000/svg" role="img" viewBox="-9.46 -9.46 491.92 433.92"><title>Ericsson logo</title><style>svg {enable-background:new 0 0 473.5 415.2}</style><style>.st0{fill:#012b5d}</style><path d="M169.4 110.4c-14.4 5.3-30.4-2.1-35.7-16.5-5.3-14.4 2.1-30.4 16.5-35.7L304.1 1.7c14.4-5.3 30.4 2.1 35.7 16.5 5.3 14.4-2.1 30.4-16.5 35.7l-153.9 56.5z" class="st0"/><path d="M169.4 193.6c-14.4 5.3-30.4-2.1-35.7-16.6-5.3-14.4 2.1-30.4 16.5-35.7L304.1 85c14.4-5.3 30.4 2.1 35.7 16.5 5.3 14.4-2.1 30.4-16.5 35.7l-153.9 56.4z" class="st0"/><path d="M169.4 276.9c-14.4 5.3-30.4-2.1-35.7-16.6-5.3-14.4 2.1-30.4 16.5-35.7L304 168.2c14.4-5.3 30.4 2.1 35.7 16.5 5.3 14.4-2.1 30.4-16.5 35.7l-153.8 56.5z" class="st0"/><path d="M0 346.1h51.6v14H18.2v12.2h32v14.5h-32v12.6h33.9v14.2H0z" class="st0"/><path d="M217.1 348.2l-1.2 14.4c-14.8-8.6-37.6-5.8-38 16.7-.4 22.5 23.4 25.8 38.5 18.1l1 14.7c-26.7 8.3-58.5-.1-58.4-32.9.1-31.9 32.3-40.8 58.1-31" class="st0"/><path d="M271.2 347.2l-1.2 14.1c-9.2-5.1-26.8-5.2-26.8 2.8 0 11.9 31.3 3.3 31.3 28.7 0 25-29.8 25.2-49.2 19.4l1.4-14.9c12.1 5.6 29.3 6.9 29.3-2.9 0-10.8-31.4-4.7-31.4-28.8-.1-19.9 24.4-25.2 46.6-18.4" class="st0"/><path d="M326.6 347.2l-1.2 14.1c-9.3-5.1-26.8-5.2-26.8 2.8 0 11.9 31.3 3.3 31.3 28.7 0 25-29.8 25.2-49.2 19.4l1.4-14.9c12.1 5.6 29.3 6.9 29.3-2.9 0-10.8-31.4-4.7-31.4-28.8-.1-19.9 24.4-25.2 46.6-18.4" class="st0"/><path d="M411.1 346.1h23.3l22.2 43.5v-43.5h16.9v67.5h-22l-23.4-44.4v44.4h-17z" class="st0"/><path d="M368.8 344.4c19.1 0 33.6 11.2 33.6 35.5 0 23.3-14.6 35.3-33.6 35.3s-33.5-11.7-33.5-35.3c0-24.3 14.4-35.5 33.5-35.5M354.1 380c0 10.3 4.4 21.9 14.7 21.9 10.3 0 14.6-11.6 14.7-21.9.1-9.3-4.4-21.9-14.7-21.9-10.3 0-14.7 11.6-14.7 21.9" class="st0"/><path d="M82.5 374.5h10.1c4.5.1 8.6-2.6 8.6-7.6 0-4.4-3.6-7.5-8.3-7.5H82.5v15.1zm-17.6-28.4H98c9 0 21.5 3.9 21.5 18 0 9-4.1 14-11.8 16.3.4 0 4.4 1.7 6.1 6.8.1.2 9.5 26.3 9.6 26.4h-19.5L97 393.3c-1.1-3.1-3.4-5.2-6.7-5.2-2.9 0-7.3-.2-7.3 0v25.5H65v-67.5z" class="st0"/><path d="M131.8 346.1h18.4v67.5h-18.4z" class="st0"/></svg>