<svg xmlns="http://www.w3.org/2000/svg" role="img" viewBox="1.73 0.98 391.04 296.79"><title>euler logo</title><defs><style>.cls-1{fill:#f60}</style></defs><g id="g4687"><path id="path4689" d="M28.463 219.70142h-19.1l29.4-56.8h21.1l28.1 56.8h-21.2l-4.3-10.2h-29.5zm28.9-22.6l-9.1-20.7-9.6 20.7z" class="cls-1"/></g><path id="path4691" d="M92.296 162.9h18.3v56.8h-18.3z" class="cls-1"/><path id="path4693" d="M119.896 162.9h18.3v11.6h-18.3zm0 17.2h18.3v39.6h-18.3z" class="cls-1"/><g id="g4703"><path id="path4705" d="M148.18728 162.8558h18.3v22.9a22.14494 22.14494 0 0 1 7.3-5 22.99883 22.99883 0 0 1 8.8-1.7q9.3 0 15 6c3.8 4 5.7 9.3 5.7 15.8 0 6-1.9 10.8-5.6 14.4s-8.7 5.4-14.9 5.4a21.79534 21.79534 0 0 1-9.3-1.9 18.95826 18.95826 0 0 1-7.1-5.5 20.567 20.567 0 0 1-.2 3.6 17.77173 17.77173 0 0 1-.5 2.8h-18.3a15.85439 15.85439 0 0 0 .5-2.8c.1-1.1.2-2.4.2-3.8v-50.2m36.8 37.2c0-3.5-.8-6.2-2.5-8.3a8.18557 8.18557 0 0 0-6.7-3 8.8998 8.8998 0 0 0-7 2.9c-1.6 1.9-2.4 4.8-2.4 8.5q0 5.25 2.4 8.1a8.477 8.477 0 0 0 6.8 2.9 8.38444 8.38444 0 0 0 6.8-3 12.11436 12.11436 0 0 0 2.6-8.1" class="cls-1"/></g><g id="g4707"><path id="path4709" d="M245.08638 213.3351a15.16716 15.16716 0 0 1-6.8 5.1 27.33118 27.33118 0 0 1-10.1 1.7c-5.6 0-10-1-13-3a9.59138 9.59138 0 0 1-4.5-8.5q0-7.5 7.8-10.8c5.2-2.2 14-3.4 26.3-3.5v-.9a5.52282 5.52282 0 0 0-1.8-4.5c-1.2-1-3-1.5-5.5-1.5a10.16484 10.16484 0 0 0-5.1 1.1 4.242 4.242 0 0 0-2.1 3.3h-16.9a10.75324 10.75324 0 0 1 6.2-9.8c4.1-2.1 10.3-3.2 18.7-3.2 8 0 14 1.2 18 3.8 3.9 2.5 5.9 6.3 5.9 11.4v20.2a22.33257 22.33257 0 0 0 .2 3 6.46277 6.46277 0 0 0 .6 2.1h-17a13.65448 13.65448 0 0 1-.7-2.9 30.28532 30.28532 0 0 1-.2-3.1m-.4-11.3c-5.9 0-10 .4-12.1 1.2s-3.2 2.1-3.2 4a3.58728 3.58728 0 0 0 1.6 3.1 7.71015 7.71015 0 0 0 4.4 1.1c3.1 0 5.4-.7 7-2.2 1.6-1.4 2.3-3.6 2.3-6.6z" class="cls-1"/></g><g id="g4711"><path id="path4713" d="M270.562 162.8558h18.3v22.9a22.145 22.145 0 0 1 7.3-5 22.99885 22.99885 0 0 1 8.8-1.7q9.3 0 15 6c3.8 4 5.7 9.3 5.7 15.8 0 6-1.9 10.8-5.6 14.4s-8.7 5.4-14.9 5.4a21.79527 21.79527 0 0 1-9.3-1.9 18.95818 18.95818 0 0 1-7.1-5.5c0 1.3-.1 2.5-.2 3.6a17.77058 17.77058 0 0 1-.5 2.8h-18.3a15.85439 15.85439 0 0 0 .5-2.8c.1-1.1.2-2.4.2-3.8v-50.2m36.8 37.2c0-3.5-.8-6.2-2.5-8.3a8.18557 8.18557 0 0 0-6.7-3 8.54753 8.54753 0 0 0-6.9 2.9c-1.6 1.9-2.4 4.8-2.4 8.5q0 5.25 2.4 8.1a9.31284 9.31284 0 0 0 13.6-.1c1.7-2 2.5-4.7 2.5-8.1" class="cls-1"/></g><g id="g4715"><path id="path4717" d="M367.46248 213.3351a15.16716 15.16716 0 0 1-6.8 5.1 27.33114 27.33114 0 0 1-10.1 1.7c-5.6 0-10-1-13-3a9.59138 9.59138 0 0 1-4.5-8.5q0-7.5 7.8-10.8c5.2-2.2 14-3.4 26.3-3.5v-.9a5.52282 5.52282 0 0 0-1.8-4.5c-1.2-1-3-1.5-5.5-1.5a10.16484 10.16484 0 0 0-5.1 1.1 4.242 4.242 0 0 0-2.1 3.3h-16.9a10.75324 10.75324 0 0 1 6.2-9.8c4.1-2.1 10.3-3.2 18.7-3.2 8 0 14 1.2 18 3.8 3.9 2.5 5.9 6.3 5.9 11.4v20.2a22.33451 22.33451 0 0 0 .2 3 6.463 6.463 0 0 0 .6 2.1h-17a13.65448 13.65448 0 0 1-.7-2.9 30.28532 30.28532 0 0 1-.2-3.1m-.4-11.3c-5.9 0-9.9.4-12.1 1.2-2.1.8-3.2 2.1-3.2 4a3.58728 3.58728 0 0 0 1.6 3.1 7.71015 7.71015 0 0 0 4.4 1.1c3.1 0 5.4-.7 7-2.2 1.6-1.4 2.3-3.6 2.3-6.6z" class="cls-1"/></g><g id="g4739"><path id="path4741" d="M118.00367 119.11021a8.72749 8.72749 0 0 1-3.7-1.9c-10.7-10.5 3-22.6 19-29.6v-20c3.7 2.4 5.8 2.5 5.9 2.8l12.2-12.1-4.1-10.4c35.7-12.3 50-17 79-21.9l-5.2-4.9 8.5-4.8c19.5 6.4 37.9 8.1 34.7 24.5.8-11.1-13-15.3-34-21.2l-4.1 2.5 7.8 6.4c-34.7 6-56.1 12.8-81.5 21.6l3.5 9-12.8 12.7c2.1.6 24.4 8 47.5-8.1 0 0 .5-.3.5-.5a27.41544 27.41544 0 0 0-4.2-4.1 11.15246 11.15246 0 0 1 10.4 12.6h-3.2a11.04711 11.04711 0 0 0-.9-5.6c-17.9 13.1-38.7 15-56.4 8.8v15.5c-8.6 3-23.9 12.5-23.8 21.7a8.35372 8.35372 0 0 0 4.9 7"/></g><g id="g4743"><path id="path4745" d="M191.21617 113.9868c-19.2 9.7-37.6 17.5-65.9 18.6-36.9-.8-42.6-25.3-25.2-50.9 16.5-25.8 42.7-49.2 84.3-63.8 12.1-4.3 29.8-9.1 46.9-9.4 24.6-.2 48.5 7.4 46.9 31-.9 18.1-27 43.5-40.7 61.8-5.9 8-6.9 13.2 3.2 12.7 36.5-2.4 69.5-15 100.2-28.1-20.8 14.1-128.1 67.2-128.5 31 .1-4.6 2.2-9.5 5.7-14.7 3.4-5.2 8.1-10.6 13-16.1 7.3-8.3 25.5-28.3 31.6-40.3 10.3-22.4-12.7-23.5-32.6-30.5l-8.5 4.8 5.2 4.9c-29 4.8-43.3 9.6-79 21.9l4.1 10.4-12.1 12a28.15926 28.15926 0 0 1-5.9-2.8v20c-15.9 7-29.7 19.1-19 29.6a8.72729 8.72729 0 0 0 3.7 1.9c19.6 11 72.7-4 72.6-4" class="cls-1"/></g><g id="g4747"><path id="path4749" d="M305.95557 126.98026h2.5a3.73 3.73 0 0 0 1.2-.2 1.79381 1.79381 0 0 0 .7-.5 1.2025 1.2025 0 0 0 .2-.8 1.23073 1.23073 0 0 0-.5-1 1.955 1.955 0 0 0-1.4-.4h-2.7zm-1.1 5v-8.9h4a7.44957 7.44957 0 0 1 1.8.2 2.12586 2.12586 0 0 1 1 .9 2.00987 2.00987 0 0 1 .4 1.3 2.271 2.271 0 0 1-.6 1.6 3.05455 3.05455 0 0 1-1.9.8 2.14651 2.14651 0 0 1 .7.4 6.34241 6.34241 0 0 1 1 1.2l1.6 2.4h-1.5l-1.2-1.8a4.84646 4.84646 0 0 0-.9-1.3 1.698 1.698 0 0 0-.6-.6c-.2-.1-.3-.2-.5-.2h-2.2v4h-1.1z" class="cls-1"/></g><g id="g4751"><path id="path4753" d="M308.40958 136.10138a8.5 8.5 0 1 0-8.5-8.5 8.49287 8.49287 0 0 0 8.5 8.5m-7.2-8.5a7.2 7.2 0 1 1 7.2 7.2 7.17006 7.17006 0 0 1-7.2-7.2" class="cls-1"/></g><path d="M145.665 254.86914a14.28654 14.28654 0 0 1 6.06982 5.19727 17.26415 17.26415 0 0 1 2.79883 7.26171 44.90025 44.90025 0 0 1 .30274 6.97168h-25.584q.21387 5.28663 3.67334 7.41211a9.32237 9.32237 0 0 0 5.064 1.32129 7.13277 7.13277 0 0 0 6.99023-4.02832h9.37695a11.47075 11.47075 0 0 1-3.40478 6.34864q-4.72045 5.124-13.21533 5.124a19.14813 19.14813 0 0 1-12.373-4.32129q-5.3606-4.32276-5.36035-14.06445 0-9.126 4.83887-13.998a16.93711 16.93711 0 0 1 12.56152-4.87012 20.01026 20.01026 0 0 1 8.26116 1.64548zm-13.74024 7.93555a9.54007 9.54007 0 0 0-2.44677 5.43652h15.82324a7.65863 7.65863 0 0 0-2.44678-5.5498 8.04262 8.04262 0 0 0-5.44726-1.89453 7.284 7.284 0 0 0-5.48239 2.00781zm36.70854-8.64649v21.17285a11.13387 11.13387 0 0 0 .70557 4.51172q1.251 2.67627 4.90576 2.67481 4.68164 0 6.41357-3.80274a13.8348 13.8348 0 0 0 .898-5.44629V254.1582h9.31348v35.127h-8.92676v-4.96289q-.12818.16113-.64258.96679a6.45472 6.45472 0 0 1-1.22119 1.418 12.75138 12.75138 0 0 1-4.16162 2.64258 14.14756 14.14756 0 0 1-4.708.709q-7.77686 0-10.47607-5.60742-1.511-3.09375-1.51026-9.12012V254.1582zm40.54053 35.12696h-9.18408v-47.502h9.18408zm31.84961-34.41602a14.28244 14.28244 0 0 1 6.06933 5.19727 17.25133 17.25133 0 0 1 2.79883 7.26171 44.83969 44.83969 0 0 1 .30274 6.97168h-25.584q.21387 5.28663 3.67383 7.41211a9.32065 9.32065 0 0 0 5.06348 1.32129 7.13117 7.13117 0 0 0 6.99023-4.02832h9.377a11.46966 11.46966 0 0 1-3.40429 6.34864q-4.72119 5.124-13.21582 5.124a19.14908 19.14908 0 0 1-12.37305-4.32129q-5.35986-4.32276-5.36035-14.06445 0-9.126 4.83887-13.998a16.93711 16.93711 0 0 1 12.56152-4.87012 20.01259 20.01259 0 0 1 8.26168 1.64548zm-13.74024 7.93555a9.54052 9.54052 0 0 0-2.44726 5.43652h15.82324a7.66018 7.66018 0 0 0-2.44629-5.5498 8.04438 8.04438 0 0 0-5.44727-1.89453 7.28321 7.28321 0 0 0-5.48242 2.00781zm47.06934-9.46875c.11719.01172.38086.02734.78906.04883v9.41015q-.87012-.09667-1.54687-.1289t-1.09571-.03223q-5.543 0-7.44433 3.60937a14.04107 14.04107 0 0 0-1.06348 6.252v16.79h-9.249v-35.127h8.76562v6.12305a19.41843 19.41843 0 0 1 3.70606-4.80176 10.09422 10.09422 0 0 1 6.70312-2.15918c.17186.00004.31737.0059.43553.01567z"/></svg>