<svg xmlns="http://www.w3.org/2000/svg" role="img" viewBox="1.01 0.51 545.48 286.98"><title>Facets logo</title><defs><style>.cls-1{fill:#4095d1}.cls-2{fill:#ef4637}</style></defs><path d="M11.934 77.48c0-36.587 30.76-66.375 67.347-66.375 20.236 0 34.645 7.933 45.491 18.294l-12.79 12.789a46.24 46.24 0 0 0-32.701-12.951c-26.712 0-47.596 21.532-47.596 48.243 0 26.712 20.884 48.243 47.596 48.243 17.322 0 27.197-6.961 33.51-13.275 5.182-5.18 8.58-12.627 9.876-22.826H79.281V71.49h61.032a59.072 59.072 0 0 1 .972 11.333c0 13.598-3.724 30.435-15.704 42.415-11.655 12.141-26.55 18.617-46.3 18.617-36.588 0-67.347-29.788-67.347-66.375z" class="cls-1"/><path d="M190.609 58.377c-23.637 0-42.901 17.97-42.901 42.739 0 24.607 19.264 42.739 42.901 42.739 23.635 0 42.9-18.132 42.9-42.74 0-24.768-19.265-42.738-42.9-42.738zm0 68.641c-12.952 0-24.122-10.684-24.122-25.902 0-15.38 11.17-25.903 24.122-25.903 12.95 0 24.12 10.523 24.12 25.903 0 15.218-11.17 25.902-24.12 25.902z" class="cls-2"/><path fill="#ffc20e" d="M284.197 58.377c-23.637 0-42.902 17.97-42.902 42.739 0 24.607 19.265 42.739 42.902 42.739 23.635 0 42.9-18.132 42.9-42.74 0-24.768-19.265-42.738-42.9-42.738zm0 68.641c-12.951 0-24.122-10.684-24.122-25.902 0-15.38 11.17-25.903 24.122-25.903s24.12 10.523 24.12 25.903c0 15.218-11.17 25.902-24.12 25.902z"/><path d="M399.07 60.967v6.961h-.647c-4.21-5.018-12.304-9.55-22.503-9.55-21.37 0-40.958 18.778-40.958 42.9 0 23.96 19.589 42.577 40.958 42.577 10.2 0 18.294-4.533 22.503-9.714h.647v6.152c0 16.351-8.742 25.093-22.826 25.093-11.494 0-18.618-8.256-21.531-15.217l-16.351 6.799c4.694 11.332 17.16 25.255 37.882 25.255 22.017 0 40.634-12.951 40.634-44.52V60.967zm-21.53 66.051c-12.952 0-23.8-10.846-23.8-25.74 0-15.056 10.848-26.065 23.8-26.065 12.788 0 22.826 11.01 22.826 26.065 0 14.894-10.038 25.74-22.827 25.74z" class="cls-1"/><path fill="#30b455" d="M429.829 15.638h18.779v125.626h-18.779z"/><path d="M500.09 127.018c-9.552 0-16.351-4.37-20.722-12.95l57.147-23.637-1.942-4.857c-3.562-9.55-14.409-27.197-36.588-27.197-22.017 0-40.31 17.323-40.31 42.739 0 23.96 18.13 42.739 42.415 42.739a42.513 42.513 0 0 0 35.615-18.941l-14.57-9.713c-4.856 7.123-11.493 11.817-21.045 11.817zm-1.458-52.128c7.448 0 13.761 3.724 15.866 9.066L476.292 99.82c-.486-16.513 12.79-24.931 22.34-24.931z" class="cls-2"/><path fill="none" d="M11.02 11h526.118v172H11.02z"/><path d="M131.503 209.944h47.077v11.602h-33.37v15.184h29.249v11.467h-29.25v27.682h-13.706zm74.343 36.238a20.15 20.15 0 0 0 5.098-1.12q2.753-1.164 2.753-3.628a4.29 4.29 0 0 0-2.112-4.144 13.353 13.353 0 0 0-6.197-1.142q-4.586 0-6.492 2.24a9.232 9.232 0 0 0-1.817 4.48h-12.318a18.681 18.681 0 0 1 3.599-10.527q5.084-6.45 17.455-6.45a31.126 31.126 0 0 1 14.306 3.18q6.252 3.18 6.252 12.004v22.397q0 2.329.09 5.643a7.086 7.086 0 0 0 .761 3.405 4.567 4.567 0 0 0 1.881 1.478v1.88H215.22a14.223 14.223 0 0 1-.806-2.776q-.225-1.298-.359-2.956a26.36 26.36 0 0 1-6.127 4.882 18.52 18.52 0 0 1-9.371 2.373 16.173 16.173 0 0 1-11.016-3.784q-4.348-3.785-4.348-10.727 0-9.005 6.994-13.036 3.836-2.194 11.282-3.135zm7.805 5.957a14.075 14.075 0 0 1-2.474 1.232 20.928 20.928 0 0 1-3.428.873l-2.906.538a19.109 19.109 0 0 0-5.868 1.746 5.83 5.83 0 0 0-3.016 5.42q0 3.271 1.842 4.726a7 7 0 0 0 4.48 1.456 13.343 13.343 0 0 0 7.71-2.42q3.525-2.418 3.66-8.823zm53.08-7.569a11.329 11.329 0 0 0-1.84-4.928q-2.157-2.956-6.691-2.956-6.467 0-8.846 6.405a26.592 26.592 0 0 0-1.257 9.025 24.444 24.444 0 0 0 1.257 8.623q2.29 6.093 8.621 6.092 4.49 0 6.376-2.419a12.023 12.023 0 0 0 2.29-6.27h13.035a21.353 21.353 0 0 1-4.215 11.018q-6.009 8.376-17.8 8.376-11.793 0-17.352-6.987-5.56-6.987-5.56-18.12 0-12.563 6.142-19.551 6.143-6.987 16.95-6.987 9.19 0 15.042 4.12 5.85 4.123 6.928 14.558zm53.629-16.526a19.864 19.864 0 0 1 8.436 7.223 24 24 0 0 1 3.89 10.093 62.346 62.346 0 0 1 .42 9.69h-35.558q.296 7.347 5.105 10.303a12.965 12.965 0 0 0 7.038 1.836 9.915 9.915 0 0 0 9.716-5.6h13.033q-.515 4.347-4.732 8.825-6.56 7.122-18.368 7.122a26.611 26.611 0 0 1-17.197-6.007q-7.45-6.007-7.45-19.547 0-12.685 6.725-19.456 6.725-6.769 17.459-6.77a27.808 27.808 0 0 1 11.482 2.288zm-19.098 11.028a13.259 13.259 0 0 0-3.4 7.558h21.992q-.348-5.083-3.4-7.715a11.186 11.186 0 0 0-7.572-2.633q-4.915 0-7.62 2.79zm33.284-2.476v-9.093h6.808v-13.616h12.632v13.616h7.928v9.093h-7.928v25.8q0 3.002.761 3.74.762.739 4.66.74.58 0 1.23-.022t1.277-.068v9.541l-6.047.224q-9.048.313-12.362-3.136-2.15-2.194-2.15-6.764v-30.055zm45.464 23.695a8.509 8.509 0 0 0 1.756 4.838q2.386 2.553 8.82 2.553a13.51 13.51 0 0 0 6.01-1.12 3.587 3.587 0 0 0 2.227-3.359 3.624 3.624 0 0 0-1.794-3.27q-1.796-1.12-13.355-3.852-8.322-2.06-11.726-5.151-3.404-3.046-3.404-8.78a15.214 15.214 0 0 1 5.32-11.624q5.318-4.859 14.969-4.859 9.157 0 14.926 3.65 5.767 3.652 6.62 12.61h-12.765a7.547 7.547 0 0 0-1.392-3.898q-2.113-2.597-7.187-2.597-4.178 0-5.951 1.298a3.737 3.737 0 0 0-1.774 3.046 3.332 3.332 0 0 0 1.886 3.181q1.886 1.03 13.33 3.538 7.627 1.792 11.435 5.42a12.305 12.305 0 0 1 3.763 9.183 14.826 14.826 0 0 1-5.409 11.847q-5.41 4.591-16.718 4.591-11.536 0-17.033-4.86a15.795 15.795 0 0 1-5.499-12.385z"/></svg>