<svg xmlns="http://www.w3.org/2000/svg" role="img" viewBox="-5.63 19.87 604.76 110.26"><title>Fainlearn logo</title><path fill="#1990f0" d="M61.89391 82.17251q-23.65449.00015-47.309-.00437C9.2886 82.164 6.15952 79.6333 6.04424 75.33021c-.11652-4.3491 3.28508-7.221 8.65756-7.22284q47.69676-.01595 95.39349-.034c3.77455-.006 6.58408 1.245 7.90064 4.90395 1.08662 3.01994.08433 5.54387-2.19681 7.67583-1.68 1.57009-3.73484 1.52785-5.82067 1.5262q-24.04225-.01897-48.08454-.00684zm14.24225 20.92492q16.86142 0 33.72284.00532c5.19073.008 8.42871 2.64837 8.55171 6.89957.12823 4.43249-3.12773 7.35682-8.53609 7.36749q-33.72273.0665-67.44564-.00051c-5.12291-.01013-8.41208-2.93027-8.41482-7.16733-.00274-4.22988 3.33145-7.08643 8.39916-7.09713 11.2409-.02372 22.48189-.00739 33.72284-.00741zm17.82638-69.99007c5.42715-.00023 10.85512-.0593 16.2812.017 5.07172.07128 8.319 3.03994 8.17519 7.29535-.14064 4.16259-3.25114 6.83883-8.20228 6.85939q-16.475.06843-32.95046.0006c-4.98569-.02057-8.00378-2.65535-8.12295-6.89029-.12307-4.3738 2.96371-7.19473 8.15042-7.26484 5.55534-.07513 11.11251-.01698 16.66888-.01721z"/><path fill="#32337f" d="M421.26605 91.18216c-7.989 0-12.44854.9-18.90811.9h-19.25863c-.49076 15.78348 13.57533 20.47313 34.62182 11.70939a84.63308 84.63308 0 0 1-.10967 8.85073 4.10484 4.10484 0 0 1-2.30519 2.59834c-9.47873 3.95519-19.29951 5.24041-29.15191 1.88388-10.16982-3.46468-15.23555-11.50733-16.1746-21.64005a50.14416 50.14416 0 0 1 1.44141-18.2557c4.46849-15.35228 21.12277-22.862 36.15078-17.06081 6.13754 2.36923 10.88156 6.50794 12.6123 12.75958 1.64632 5.94707 1.0818 11.7656 1.0818 18.25464zm-38.07057-8.60764c8.24607 0 16.21487.05183 24.18-.09409.66879-.01225 1.94035.17833 2.00968-.597 1.66457-7.92334-3.76629-12.13333-9.14179-13.25485-8.6162-1.79758-16.18737 4.12398-17.04789 13.94594zm82.64617-2.30728c.81357-8.09787-4.27155-13.21156-12.26654-11.89089-5.87327.97019-11.56492 3.02636-17.68741 4.69387 0-2.34076.11337-10.09413.11337-10.09413s1.36918-.46179 2.38207-.86765c8.29656-3.32454 16.86163-5.11722 25.78646-3.11464 7.69 1.72551 13.411 6.539 13.83252 14.27424.78686 14.437.22608 28.94653.22608 43.87127-3.1283 0-6.60184.123-10.05246-.10195-.70519-.046-1.68239-1.30873-1.89893-2.16856-.32369-1.28518-.084-2.71045-.084-4.92636-1.208 1.08018-1.76544 1.517-2.25095 2.0221a21.682 21.682 0 0 1-23.882 5.10765c-6.10028-2.51691-9.28454-7.26352-9.77983-13.68952-.57411-7.44835 1.27247-14.39005 8.5982-17.47922 5.824-2.45592 12.40349-3.17978 18.6805-4.52022 2.64227-.56423 5.36921-.73631 8.28292-1.11599zm.45742 8.374c-6.28992 1.06108-11.81576 1.713-17.19307 2.985-4.69352 1.11026-6.43727 4.28977-5.995 9.35654.32763 3.7536 3.24376 6.6303 7.3653 7.26579a13.21506 13.21506 0 0 0 15.20407-10.10819c.60195-2.82038.40657-5.80884.6187-9.4991zM158.31851 36.70108h43.68036v11.21777h-30.116v23.89954h27.67624v11.447h-27.81565v33.8788h-13.42495zm95.76413 80.18498h-12.02058l-.43474-6.76136a11.91987 11.91987 0 0 0-1.71852 1.31818c-5.94886 7.1017-13.68878 8.305-22.14931 6.29057-7.42865-1.76878-11.68613-7.57187-12.0374-15.58277-.361-8.23335 3.63608-15.15388 11.17388-17.55966 5.36072-1.71094 11.10284-2.24657 16.67975-3.28015 1.269-.23517 2.56334-.33158 3.83776-.54145 4.96342-.81738 5.43358-1.67758 3.57061-6.453-1.66844-4.27674-6.26-5.97681-11.81693-5.98887-8.847-.01922-11.34989 2.96394-17.428 4.60772 0-2.39357-.12217-5.626.0946-8.8359.04815-.71267 1.17324-1.6413 2.00314-1.9695 8.302-3.28323 16.822-5.05437 25.776-3.17624 7.757 1.62705 13.82666 7.03447 14.26443 15.30281.74551 14.08208.20531 28.23138.20531 42.62962zm-12.20412-28.05842c-5.43788.86137-11.69932 1.44917-16.84009 2.57914-4.99783 1.09855-7.08923 4.57008-6.54065 9.74782.41953 3.95979 3.74325 6.83475 8.29484 7.17484 10.21694.76342 15.55915-7.12224 15.0859-19.5018zm345.81936 28.07491H574.7757c0-10.1428.048-20.02967-.03047-29.91555a57.53271 57.53271 0 0 0-.67344-8.43455c-.702-4.47344-2.78838-8.01119-7.53894-9.31493a12.62546 12.62546 0 0 0-12.85005 3.35314c-3.42917 3.3352-4.71127 7.56165-4.69922 12.26462.02705 10.54788.00849 21.09588.00849 31.97518h-12.7203V59.93369h12.4966v7.37384l.89482.46325c.85937-.94507 1.72424-1.88526 2.57725-2.836 7.74941-8.63765 22.78591-9.13339 30.22653-.98534 3.89528 4.26566 5.03525 9.62056 5.14824 15.03217.26043 12.47632.08267 24.96167.08267 37.92094zm-229.70118.24277h-13.07514V36.82041h13.07514zm-43.0839-51.64979c3.60364-5.33917 8.64981-7.61978 15.01074-6.62227a3.70563 3.70563 0 0 1 2.53044 2.403c.30511 3.29887.1208 6.64244.1208 9.85852-.55708.19344-.82169.39142-1.01052.33573-11.13567-3.28432-18.63587 1.86393-19.07929 13.56625-.35075 9.25582-.23576 18.53718-.03847 27.8011.07052 3.31089-.74132 4.48824-4.28519 4.41187-4.57052-.0985-9.2003-.12825-9.2003-.12825s.05548-4.46395.05549-9.03085q.00007-22.01326.00807-44.02653c.00121-1.38.11408-2.75995.18111-4.27524h12.71174v9.78669m193.69588 47.55109c-3.98924 0-7.591.19419-11.137-.16056-.72674-.0727-1.769-2.19646-1.77967-3.38267-.12491-13.88128-.08044-27.764-.08063-41.64643V59.83716h12.746c.1362 2.86514.27287 5.74094.46582 9.80141 1.15659-1.82929 1.75955-2.826 2.40419-3.79543 3.61908-5.442 8.65144-7.98355 15.20971-7.00023.97811.14665 2.52624 1.21795 2.58343 1.95542.27282 3.52018.12219 7.07279.12219 11.05193-1.06807-.35705-1.51629-.519-1.97172-.65737-9.32806-2.83309-16.18625 1.179-17.8787 10.84348a74.56274 74.56274 0 0 0-.65662 11.89463c-.09301 7.56013-.027 15.12215-.027 23.19564zM269.28619 59.86322v57.19989c1.09772.1 1.69672.06793 2.44361.07733 3.08349.03864 6.16778.01618 9.57916.01618v-57.2934zm6.28562-28.1689a7.76018 7.76018 0 0 1 8.01457 7.65492c-.05984 4.22339-3.30225 7.13766-7.9362 7.13307-4.67318-.00463-7.88214-2.85971-7.9784-7.09854-.09923-4.36977 3.29281-7.67145 7.90003-7.68945z"/></svg>