<svg xmlns="http://www.w3.org/2000/svg" role="img" viewBox="-3.68 -3.18 438.36 113.61"><title>fastText logo</title><defs><style>.cls-1{fill:#e21924}.cls-2{fill:#015581}</style></defs><path d="M47.56 47.877c.598-.002 1.335.244 1.548-.703.787-3.492 1.591-6.981 2.414-10.58-4.709 0-9.272-.039-13.834.025-1.207.017-1.376-.351-1.058-1.41.585-1.95.99-3.956 1.611-5.893 3.092-9.644 9.767-13.438 19.425-11.027 1.042.26 1.323-.183 1.571-.978.972-3.11 1.867-6.25 2.983-9.308.434-1.189-.012-1.431-.927-1.637a38.498 38.498 0 0 0-4.999-.844c-9.361-.845-17.577 1.728-24.38 8.284C25.902 19.6 22.808 26.97 21.099 34.98c-.281 1.32-.762 1.707-2.05 1.64-2.043-.105-4.096-.034-6.145-.023-.559.003-1.163-.148-1.355.711-.782 3.486-1.613 6.96-2.457 10.576 2.616 0 5.013.056 7.405-.022 1.345-.045 1.478.297 1.148 1.596-3.192 12.584-6.256 25.201-9.437 37.789-1.062 4.2-1.85 8.478-3.328 12.57v1.053a3.047 3.047 0 0 1 1.715-.188c3.981-.013 7.962-.007 11.942-.007 2.723 0 2.731.002 3.396-2.53.31-1.184.593-2.375.873-3.566q5.307-22.621 10.601-45.245a1.591 1.591 0 0 1 1.862-1.486c4.096.095 8.195.043 12.293.028z" class="cls-1"/><path d="M412.043 47.77c4.8.053 9.6.043 14.4.055V36.583c-4.683 0-9.367-.044-14.05.029-1.228.019-1.567-.315-1.546-1.547.076-4.448-.01-8.898.054-13.347.019-1.35-.129-1.905-1.699-1.376a227.317 227.317 0 0 1-11.346 3.48 1.314 1.314 0 0 0-1.157 1.563c.035 3.278-.025 6.557.038 9.834.02 1.046-.224 1.436-1.346 1.39-2.22-.091-4.45.016-6.672-.047-.958-.027-1.32.204-1.295 1.238q.103 4.389 0 8.78c-.025 1.051.37 1.258 1.312 1.228 1.93-.063 3.872.092 5.793-.052 1.683-.127 2.27.256 2.238 2.127-.129 7.609-.064 15.22-.05 22.831a110.903 110.903 0 0 0 .592 15.238c.792 5.651 3.403 10.082 8.78 12.39 6.271 2.693 12.69 1.834 19.083.337.678-.159.735-.578.72-1.158q-.116-4.737-.176-9.476c-.01-.795-.142-1.027-1.096-.924-2.777.3-5.625.754-8.34-.216-4.038-1.442-5.203-4.943-5.27-8.683-.184-10.417-.096-20.839-.15-31.259-.004-.912.257-1.202 1.183-1.192z" class="cls-2"/><path d="M153.76 36.569q-6.496.09-12.994.012a46.672 46.672 0 0 0-12.67 1.41c-6.222 1.654-11.61 4.575-15.004 10.342-4.844 8.232-2.778 16.429 5.346 21.41a41.129 41.129 0 0 0 6.315 2.967 23.211 23.211 0 0 1 6.976 3.921c3.473 3.065 2.358 9.852-2.019 11.41a13.128 13.128 0 0 1-3.36.913 231.044 231.044 0 0 1-25.786.148c-4.67-.167-6.578-3.407-5.483-7.958 1.307-5.433 2.645-10.858 3.93-16.295.993-4.205 1.93-8.415 1.774-12.79-.248-6.899-3.539-11.694-9.783-13.91a26.28 26.28 0 0 0-8.752-1.554c-6.847-.016-13.694.022-20.541-.029-1.015-.007-1.436.276-1.64 1.265-.561 2.736-1.216 5.453-1.84 8.176-.46 2.009-.464 1.987 1.649 2.014 6.493.082 12.993-.235 19.48.18 2.634.168 4.72 1.327 5.683 3.943a10.908 10.908 0 0 1 .146 5.708c-.125.74-.607.874-1.267.857a80.51 80.51 0 0 0-8.587.35c-7.352.598-14.58 1.68-21.481 4.503-9.845 4.025-16.228 13.36-14.58 23.875a15.894 15.894 0 0 0 12.898 13.456c6.13 1.075 11.946-.104 17.69-2.097a1.404 1.404 0 0 0 1.076-1.203c.625-3.541 1.295-7.074 1.989-10.82-3.761 1.042-7.251 1.982-10.924 1.777-3.09-.173-5.6-1.78-6.085-4.128a9.365 9.365 0 0 1 1.63-7.962 14.824 14.824 0 0 1 5.825-4.368c4.934-2.251 10.186-2.821 15.533-2.897 3.392-.047 3.391-.073 2.669 3.159-.114.511-.22 1.024-.324 1.538-.954 4.676-2.484 9.258-2.44 14.101.06 6.587 2.93 10.508 8.859 11.955a21.094 21.094 0 0 0 4.864.514c9.54.046 19.083.088 28.623-.005a46.07 46.07 0 0 0 14.144-2.061c11.71-3.87 15.53-16.113 13.562-24.302-1.32-5.49-5.146-8.9-10.066-11.175-3.166-1.465-6.49-2.595-9.639-4.093-3.348-1.592-3.918-4-1.974-7.18a6.751 6.751 0 0 1 3.515-2.754 17.127 17.127 0 0 1 5.846-.982q7.196-.151 14.396-.048c1.194.017 1.6-.399 1.836-1.468.626-2.844 1.335-5.67 2.034-8.498.233-.94.066-1.343-1.049-1.327z" class="cls-1"/><path d="M296.479 35.026c-11.434-.64-20.916 3.358-27.29 13.197-5.802 8.954-7.28 18.893-5.291 29.256 2.011 10.484 7.871 18.214 18.033 21.92 11.888 4.334 23.779 2.867 35.515-1.06.814-.273.884-.76.724-1.477-.622-2.785-1.264-5.566-1.801-8.367-.207-1.08-.63-1.193-1.63-.97-6.858 1.536-13.763 2.615-20.83 1.742-7.88-.972-15.132-5.326-15.825-15.106-.09-1.272.273-1.405 1.34-1.4 6.733.037 13.465.02 20.198.02q10.274 0 20.548-.008c.696-.001 1.448.284 1.598-.98a43.57 43.57 0 0 0-.366-13.1c-2.246-12.227-9.532-22.804-24.923-23.667zm10.958 25.28c-.026.987-.366 1.251-1.333 1.24q-1.689-.018-3.378-.024c-3.378-.013-6.757.003-10.135.003-2.194 0-4.388-.008-6.582-.01s-4.387.005-6.58.033c-1.044.014-1.365-.162-1.25-1.313.57-5.708 4.831-11.379 10.08-13 6.14-1.898 11.532-.449 16.034 4.084 2.44 2.455 3.236 5.578 3.144 8.987zM275.332 22.58c-.096-3.216-.077-6.44-.006-9.658.024-1.125-.264-1.519-1.45-1.517q-32.14.047-64.28-.007c-1.262-.002-1.422.49-1.406 1.543.05 3.278.074 6.558-.01 9.835-.031 1.211.278 1.572 1.53 1.562 7.375-.061 14.753.036 22.128-.078 1.767-.028 2.062.512 2.058 2.142-.055 24.12-.023 48.24-.073 72.36-.003 1.464.35 1.858 1.816 1.816q5.879-.166 11.765-.002c1.53.04 2.039-.28 2.027-1.95-.083-12.06-.044-24.12-.044-36.18 0-12.177.02-24.354-.031-36.531-.006-1.29.274-1.656 1.614-1.643 7.552.074 15.105-.006 22.656.072 1.431.015 1.745-.423 1.706-1.763zm88.952 46.029a2.049 2.049 0 0 1 .03-2.75c5.073-7.139 10.074-14.33 15.093-21.508 1.756-2.511 3.5-5.03 5.402-7.769-5.504 0-10.695.02-15.886-.02a1.557 1.557 0 0 0-1.471.986c-4.068 6.805-8.342 13.49-11.999 20.535-.191.37-.179.97-.827 1.008a4.544 4.544 0 0 1-.42-.555c-3.878-7.136-8.338-13.916-12.714-20.748-.332-.517-.498-1.21-1.334-1.208q-8.125.014-16.273.005c-.027.757.432 1.094.711 1.503q9.735 14.243 19.519 28.452a2.001 2.001 0 0 1-.027 2.706Q333.87 84.11 323.755 99.044c-.295.434-.802.806-.712 1.497 5.278 0 10.486-.031 15.692.028a1.731 1.731 0 0 0 1.699-1.14c2.336-4.105 4.705-8.193 7.052-12.292 2.013-3.516 4.01-7.04 6.059-10.636a6.697 6.697 0 0 1 .47.685c3.796 7.639 8.506 14.745 12.868 22.054.325.544.472 1.317 1.427 1.312 5.538-.027 11.077-.013 16.633-.013.06-.733-.376-1.093-.646-1.505q-9.984-15.227-20.013-30.425z" class="cls-2"/><path d="M205.107 36.604c-5.377-.025-10.755-.01-16.326-.01l3.854-16.507c-5.341 1.363-10.304 2.639-15.274 3.89a1.837 1.837 0 0 0-1.523 1.618c-.66 3.133-1.502 6.227-2.148 9.363-.259 1.257-.732 1.747-2.072 1.67-2.159-.126-4.33-.014-6.496-.045-.783-.012-1.294.089-1.492 1.029-.638 3.02-1.32 6.033-2.103 9.018-.318 1.212.138 1.301 1.13 1.273 2.106-.06 4.218.054 6.321-.045 1.276-.06 1.596.284 1.293 1.545-2.19 9.117-4.325 18.248-6.489 27.372-1.011 4.265-1.988 8.532-1.87 12.96.15 5.64 2.706 9.531 7.809 11.26 6.205 2.102 12.452 1.178 18.657-.228.737-.167.766-.804.89-1.362.695-3.128 1.36-6.263 2.08-9.385.229-.994-.091-1.272-1.036-1.063a21.794 21.794 0 0 1-5.772.273c-3.114-.146-5.33-1.935-5.728-4.682a13.59 13.59 0 0 1 .07-4.898c2.268-10.116 4.63-20.211 6.884-30.33.262-1.177.723-1.469 1.851-1.459 5.854.051 11.71-.009 17.564.054a1.37 1.37 0 0 0 1.627-1.298c.428-2.052.946-4.085 1.397-6.131.274-1.245 1.092-2.95.58-3.636-.599-.799-2.4-.24-3.678-.246z" class="cls-1"/></svg>