<svg xmlns="http://www.w3.org/2000/svg" role="img" viewBox="-0.30 -4.80 483.60 404.10"><title>Feast logo</title><path fill="#ea4335" d="M264.495 41.658h5.111l14.57-14.569.715-6.186a65.485 65.485 0 0 0-106.536 31.95 7.925 7.925 0 0 1 5.111-.306l29.14-4.806s1.482-2.454 2.25-2.3a36.347 36.347 0 0 1 49.74-3.784h-.101z"/><path fill="#4285f4" d="M304.933 52.853a65.647 65.647 0 0 0-19.783-31.899l-20.449 20.448a36.345 36.345 0 0 1 13.342 28.832v3.63a18.2 18.2 0 0 1 0 36.399h-36.397l-3.631 3.681v21.83l3.631 3.629h36.397a47.34 47.34 0 0 0 26.89-86.55z"/><path fill="#34a853" d="M205.194 139.198h36.399v-29.139h-36.399a18.107 18.107 0 0 1-7.515-1.636l-5.11 1.585-14.673 14.568-1.278 5.114a47.09 47.09 0 0 0 28.576 9.508z"/><path fill="#fbbc05" d="M205.194 44.674a47.337 47.337 0 0 0-28.576 84.86l21.112-21.112a18.2 18.2 0 1 1 24.08-24.08l21.111-21.112a47.286 47.286 0 0 0-37.727-18.556z"/><path fill="#5f6368" d="M41.848 278.347a31.46 31.46 0 0 1-22.796-9.36 31.286 31.286 0 0 1 0-45.038 31.469 31.469 0 0 1 22.796-9.534 30.542 30.542 0 0 1 21.863 8.809l-6.147 6.252a22.145 22.145 0 0 0-15.715-6.218 21.897 21.897 0 0 0-16.233 6.908 23.266 23.266 0 0 0 0 32.604 23.176 23.176 0 0 0 32.329.38 18.38 18.38 0 0 0 4.732-10.742H41.952v-8.842h29.324a28.112 28.112 0 0 1 .345 5.389 27.64 27.64 0 0 1-7.564 20.379 29.396 29.396 0 0 1-22.209 9.013zm68.179-5.87a21.137 21.137 0 0 1-29.254 0 21.016 21.016 0 0 1 0-29.358 21.17 21.17 0 0 1 29.254 0 20.974 20.974 0 0 1-.034 29.358zm-22.795-5.769a11.19 11.19 0 0 0 15.817.52c.179-.167.352-.341.52-.52a13.266 13.266 0 0 0 0-17.856 11.363 11.363 0 0 0-16.066-.34 13.195 13.195 0 0 0-.305 18.196zm67.766 5.769a21.138 21.138 0 0 1-29.255 0 21.019 21.019 0 0 1 0-29.358 21.136 21.136 0 0 1 29.255 0 21.019 21.019 0 0 1 0 29.358zm-22.797-5.769a11.19 11.19 0 0 0 15.817.52c.179-.167.353-.341.52-.52a13.263 13.263 0 0 0 0-17.856 11.363 11.363 0 0 0-16.066-.34 13.195 13.195 0 0 0-.305 18.196h.034zm52.361 30.083a18.094 18.094 0 0 1-11.502-3.66 21.192 21.192 0 0 1-6.7-8.497l7.875-3.28a13.277 13.277 0 0 0 3.902 5.145 9.84 9.84 0 0 0 6.459 2.176 10.36 10.36 0 0 0 8.048-3.108 12.61 12.61 0 0 0 2.867-8.979v-2.971h-.311a13.16 13.16 0 0 1-10.811 4.663 18.746 18.746 0 0 1-13.815-6.01 19.863 19.863 0 0 1-5.907-14.471 20.069 20.069 0 0 1 5.907-14.576 18.719 18.719 0 0 1 13.815-6.044 14.83 14.83 0 0 1 6.355 1.416 12.767 12.767 0 0 1 4.49 3.281h.311v-3.281h8.565v36.784a21.444 21.444 0 0 1-5.492 16.061 19.343 19.343 0 0 1-14.056 5.351zm.622-26.525a10.053 10.053 0 0 0 7.806-3.455 12.773 12.773 0 0 0 3.143-8.841 13.058 13.058 0 0 0-3.143-9.015 10.02 10.02 0 0 0-7.806-3.454 10.675 10.675 0 0 0-8.082 3.454 12.605 12.605 0 0 0-3.455 8.945 12.363 12.363 0 0 0 3.455 8.842 10.709 10.709 0 0 0 8.082 3.524zm34.159-53.536v60.374h-9.015V216.73zm24.73 61.617a19.618 19.618 0 0 1-14.541-5.904 20.005 20.005 0 0 1-5.838-14.645 20.248 20.248 0 0 1 5.63-14.784 18.52 18.52 0 0 1 13.815-5.768 17.467 17.467 0 0 1 6.907 1.348 16.26 16.26 0 0 1 5.285 3.453 24.123 24.123 0 0 1 3.454 4.181 24.666 24.666 0 0 1 2.038 4.04l.933 2.348-27.631 11.364a10.359 10.359 0 0 0 9.947 6.216 11.771 11.771 0 0 0 10.119-5.698l6.907 4.663a22.764 22.764 0 0 1-6.631 6.286 18.784 18.784 0 0 1-10.394 2.9zm-11.536-21.172l18.375-7.633a6.365 6.365 0 0 0-2.867-3.144 9.4 9.4 0 0 0-4.732-1.209 10.68 10.68 0 0 0-7.427 3.282 10.949 10.949 0 0 0-3.349 8.704zm76.435 21.172a28.458 28.458 0 0 1-28.947-27.963c-.007-.385-.007-.77.003-1.152a28.458 28.458 0 0 1 27.791-29.112c.385-.009.769-.012 1.153-.004a25.767 25.767 0 0 1 20.48 9.118l-4.973 4.835a18.791 18.791 0 0 0-15.474-7.079 21.103 21.103 0 0 0-15.37 6.146 23.845 23.845 0 0 0 0 32.191 21.102 21.102 0 0 0 15.37 6.149 21.975 21.975 0 0 0 17.269-8.083l4.975 4.974a27.132 27.132 0 0 1-9.568 7.287 29.274 29.274 0 0 1-12.709 2.693zm35.643-1.243h-7.149v-55.78h7.149zm11.674-33.572a20.001 20.001 0 0 1 28.185 0 21.807 21.807 0 0 1 0 29.013 20 20 0 0 1-28.185 0 21.804 21.804 0 0 1 0-29.013zm5.318 24.524a12.056 12.056 0 0 0 17.042.47c.161-.151.317-.309.47-.47a15.422 15.422 0 0 0 0-20.034 12.056 12.056 0 0 0-17.04-.472c-.161.154-.319.311-.472.472a15.323 15.323 0 0 0 .035 19.997zm68.007 9.048h-6.906v-5.285h-.208a13.294 13.294 0 0 1-5.043 4.767 14.097 14.097 0 0 1-7.08 1.9 13.441 13.441 0 0 1-10.846-4.352 17.274 17.274 0 0 1-3.695-11.676v-23.485h7.15v22.175q0 10.67 9.428 10.671a8.77 8.77 0 0 0 7.253-3.453 13.024 13.024 0 0 0 2.799-8.255v-21.138h7.148v38.131zm24.281 1.243a16.778 16.778 0 0 1-12.779-5.836 22.237 22.237 0 0 1 0-28.945 16.792 16.792 0 0 1 12.779-5.837 16.23 16.23 0 0 1 7.806 1.865 13.243 13.243 0 0 1 5.181 4.663h.312l-.312-5.284v-17.649h7.15v55.78h-6.908v-5.285h-.312a13.208 13.208 0 0 1-5.181 4.663 16.19 16.19 0 0 1-7.736 1.865zm1.175-6.528a11.405 11.405 0 0 0 8.6-3.729 16.35 16.35 0 0 0 0-20.102 11.674 11.674 0 0 0-16.491-.779c-.271.248-.531.508-.777.779a16.25 16.25 0 0 0 0 20.032 11.392 11.392 0 0 0 8.668 3.799z"/><path d="M166.008 341.914h33.87v8.347h-24.009v10.925h21.044v8.25H175.87v19.916h-9.861zm62.464 13.022a14.286 14.286 0 0 1 6.07 5.197 17.264 17.264 0 0 1 2.799 7.262 44.9 44.9 0 0 1 .303 6.971H212.06q.213 5.287 3.673 7.412a9.322 9.322 0 0 0 5.064 1.322 7.133 7.133 0 0 0 6.99-4.029h9.377a11.47 11.47 0 0 1-3.405 6.349q-4.72 5.124-13.215 5.124a19.148 19.148 0 0 1-12.373-4.321q-5.36-4.323-5.36-14.065 0-9.126 4.838-13.998a16.937 16.937 0 0 1 12.562-4.87 20.01 20.01 0 0 1 8.261 1.646zm-13.74 7.935a9.54 9.54 0 0 0-2.447 5.437h15.823a7.659 7.659 0 0 0-2.446-5.55 8.043 8.043 0 0 0-5.448-1.895 7.284 7.284 0 0 0-5.482 2.008zm41.469 5.114a14.497 14.497 0 0 0 3.668-.805 2.764 2.764 0 0 0 1.98-2.61 3.087 3.087 0 0 0-1.519-2.982 9.609 9.609 0 0 0-4.459-.821q-3.299 0-4.67 1.61a6.648 6.648 0 0 0-1.307 3.224h-8.863a13.43 13.43 0 0 1 2.59-7.574q3.656-4.64 12.558-4.64a22.389 22.389 0 0 1 10.292 2.288q4.5 2.29 4.499 8.637v16.113q0 1.676.064 4.06a5.102 5.102 0 0 0 .548 2.45 3.285 3.285 0 0 0 1.354 1.063v1.354h-9.99a10.231 10.231 0 0 1-.58-1.998q-.162-.935-.259-2.127a18.967 18.967 0 0 1-4.408 3.512 13.323 13.323 0 0 1-6.742 1.708 11.639 11.639 0 0 1-7.926-2.722 9.687 9.687 0 0 1-3.128-7.72q0-6.477 5.033-9.377a22.487 22.487 0 0 1 8.116-2.256zm5.615 4.286a10.247 10.247 0 0 1-1.78.887 15.156 15.156 0 0 1-2.466.628l-2.09.387a13.743 13.743 0 0 0-4.222 1.257 4.194 4.194 0 0 0-2.17 3.9 4.071 4.071 0 0 0 1.325 3.399 5.033 5.033 0 0 0 3.224 1.047 9.597 9.597 0 0 0 5.546-1.74q2.535-1.74 2.633-6.348zm24.3 5.866a6.117 6.117 0 0 0 1.263 3.48q1.717 1.837 6.347 1.837a9.715 9.715 0 0 0 4.323-.806 2.7 2.7 0 0 0 .311-4.77q-1.292-.805-9.608-2.77-5.988-1.483-8.437-3.707a8.033 8.033 0 0 1-2.449-6.316 10.945 10.945 0 0 1 3.827-8.362q3.827-3.498 10.77-3.497 6.588 0 10.738 2.626 4.152 2.628 4.765 9.072h-9.185a5.42 5.42 0 0 0-1.002-2.804q-1.519-1.868-5.17-1.869a7.446 7.446 0 0 0-4.282.935 2.69 2.69 0 0 0-1.276 2.191 2.396 2.396 0 0 0 1.357 2.288q1.357.743 9.59 2.546 5.487 1.289 8.228 3.9a8.853 8.853 0 0 1 2.707 6.606 10.662 10.662 0 0 1-3.892 8.523q-3.89 3.305-12.027 3.304-8.3 0-12.255-3.497a11.362 11.362 0 0 1-3.956-8.91zm25.974-17.048v-6.542h4.9v-9.797h9.087v9.797h5.704v6.542h-5.704v18.562q0 2.16.548 2.69.548.534 3.352.533c.279 0 .574-.005.886-.017.31-.01.617-.026.918-.047v6.864l-4.35.161q-6.51.224-8.895-2.256a6.715 6.715 0 0 1-1.547-4.866v-21.624z"/></svg>