<svg xmlns="http://www.w3.org/2000/svg" role="img" viewBox="-2.69 -2.69 139.75 62.63"><title>Flair logo</title><defs><linearGradient id="b" x1="0" x2="1" y1="0" y2="0" gradientTransform="scale(-126.5425 126.5425) rotate(60 -6.441 -3.826)" gradientUnits="userSpaceOnUse" spreadMethod="pad"><stop offset="0" stop-color="#f35f30"/><stop offset=".375" stop-color="#f35f30"/><stop offset=".949" stop-color="#f9ab83"/><stop offset=".949" stop-color="#f9ab83"/><stop offset="1" stop-color="#f9ab83"/></linearGradient><linearGradient id="d" x1="0" x2="1" y1="0" y2="0" gradientTransform="scale(-126.5425 126.5425) rotate(60 -6.48 -3.848)" gradientUnits="userSpaceOnUse" spreadMethod="pad"><stop offset="0" stop-color="#f35f30"/><stop offset=".375" stop-color="#f35f30"/><stop offset=".949" stop-color="#f9ab83"/><stop offset=".949" stop-color="#f9ab83"/><stop offset="1" stop-color="#f9ab83"/></linearGradient><linearGradient id="f" x1="0" x2="1" y1="0" y2="0" gradientTransform="matrix(92.2467 0 0 -92.2467 754.623 505.422)" gradientUnits="userSpaceOnUse" spreadMethod="pad"><stop offset="0" stop-color="#f46a37"/><stop offset=".534" stop-color="#f35f30"/><stop offset=".534" stop-color="#f35f30"/><stop offset="1" stop-color="#f35f30"/></linearGradient><clipPath id="a"><path d="M768.645 568.305c-9.579 0-14.5-26.141-13.989-50.684h-.043c.516-21.543 5.282-42.187 14.723-42.187 36.238 0 77.527 34.171 77.527 46.425 0 3.067-3.125 8.957-7.3 13.614h-.028c-.281.332-.586.664-.883.996-12.91 14.406-39.691 31.836-70.007 31.836z"/></clipPath><clipPath id="c"><path d="M839.535 535.465c.008 0 .012.008.02.008l-.02-.008zm-84.883-17.844c27.227-6.394 56.293.801 84.457 17.59.145.086.286.164.426.254-.281.332-.574.664-.875.996-12.906 14.402-39.707 31.844-70.023 31.844-9.574 0-14.496-26.141-13.985-50.684"/></clipPath><clipPath id="e"><path d="M754.625 517.633c.512-21.543 5.277-42.207 14.723-42.207 36.238 0 77.523 34.168 77.523 46.426 0 3.054-3.137 8.964-7.316 13.621-28.309-16.981-57.551-24.285-84.93-17.84"/></clipPath></defs><path fill="#040606" d="M27.749 5.325c-.075.6-.375.9-.976.9-.074 0-.074-.075-.074-.075-1.425-.225-4.125-.75-6.9-.75-1.95 0-3.45.225-4.5 1.05-.9.675-1.425 1.875-1.425 3.826v6.75H24.75c.6 0 1.05.45 1.05 1.123v3.225c0 .676-.45 1.05-1.05 1.05H13.874v32.85c0 .675-.45 1.125-1.125 1.125H8.1c-.674 0-1.2-.45-1.2-1.126V22.424H1.125C.45 22.424 0 22.05 0 21.374V18.15c0-.673.45-1.124 1.125-1.124h5.774V10.65C6.9 3.301 10.574 0 18.225 0c4.199 0 7.424.75 8.999 1.125.6.15.975.525.975 1.05v.076l-.45 3.074M46.274 55.35c0 .599-.45.823-.6.823-.6.3-2.7.975-5.7.975-5.025 0-8.175-2.624-8.175-8.25V2.176c0-.674.376-.974 1.05-1.05L37.725 0h.225c.6 0 .825.45.825 1.05v47.549c0 2.7 1.8 3.149 3.3 3.149 1.05 0 2.175-.225 2.625-.3.15 0 .225-.074.3-.074.3 0 .525.15.6.674l.675 3.076v.225"/><path fill="#f35f30" d="M77.773 36.074l-12.75 2.1c-3.45.525-6.9.825-6.9 6.45 0 7.124 5.776 7.575 10.35 7.575 3.225 0 6.525-.375 9.3-1.276V36.074zm.45 20.25c-2.25.524-5.85 1.049-9.9 1.049-6.824 0-17.399-.374-17.399-12.524 0-9.9 5.7-10.5 12.75-11.7l14.099-2.324v-3.3c0-2.325-.15-4.125-2.625-5.1-1.35-.526-3.45-.75-6.6-.75-5.624 0-10.724 1.426-13.574 2.1-.15.075-.375.075-.525.075-.3 0-.675-.151-.75-.6l-.75-3.675c-.075-.075-.075-.15-.075-.224 0-.525.525-.826.825-.901 2.324-.825 8.774-2.4 15.824-2.4 5.4 0 8.85.75 11.1 1.95 3.9 2.175 4.05 5.85 4.05 9.675v20.924c0 5.324-1.275 6.525-6.45 7.724m23.4.076h-4.726c-.674 0-1.123-.45-1.123-1.126V18.301c0-.677.449-1.126 1.124-1.126h4.725c.675 0 1.124.45 1.124 1.126v36.972c0 .676-.45 1.126-1.124 1.126"/><path fill="#040606" d="M133.646 21.9c-4.798 0-8.85.375-12.523 1.35v32.023c0 .676-.376 1.126-1.126 1.126h-4.65c-.15 0-1.2-.45-1.2-1.126V23.7c0-3.15.9-4.124 3.75-5.325 3.526-1.423 9.9-2.324 13.8-2.324h1.2c.15 0 .3.075.6.075.3.075.975.225.975 1.125v3.675c0 .525-.15.974-.826.974"/><g clip-path="url(#a)" transform="matrix(.125 0 0 -.125 0 71.384)"><path fill="url(#b)" d="M768.645 568.305c-9.579 0-14.5-26.141-13.989-50.684h-.043c.516-21.543 5.282-42.187 14.723-42.187 36.238 0 77.527 34.171 77.527 46.425 0 3.067-3.125 8.957-7.3 13.614h-.028c-.281.332-.586.664-.883.996-12.91 14.406-39.691 31.836-70.007 31.836"/></g><g clip-path="url(#c)" transform="matrix(.125 0 0 -.125 0 71.384)"><path fill="url(#d)" d="M839.535 535.465c.008 0 .012.008.02.008l-.02-.008zm-84.883-17.844c27.227-6.394 56.293.801 84.457 17.59.145.086.286.164.426.254-.281.332-.574.664-.875.996-12.906 14.402-39.707 31.844-70.023 31.844-9.574 0-14.496-26.141-13.985-50.684"/></g><g clip-path="url(#e)" transform="matrix(.125 0 0 -.125 0 71.384)"><path fill="url(#f)" d="M754.625 517.633c.512-21.543 5.277-42.207 14.723-42.207 36.238 0 77.523 34.168 77.523 46.426 0 3.054-3.137 8.964-7.316 13.621-28.309-16.981-57.551-24.285-84.93-17.84"/></g></svg>