<svg xmlns="http://www.w3.org/2000/svg" role="img" viewBox="-5.50 -5.50 520.00 116.50"><title>Foolbox logo</title><path d="M71.601 4.928v17.526H25.794v21.909h39.7V60.56h-39.7v39.17H4.948V4.928zm10.488 45.608a31.393 31.393 0 0 1 18.322-18.721 39.209 39.209 0 0 1 14.606-2.589 39.74 39.74 0 0 1 14.671 2.589 31.263 31.263 0 0 1 18.39 18.721 42.172 42.172 0 0 1 2.523 14.938 41.617 41.617 0 0 1-2.523 14.871 32.25 32.25 0 0 1-7.17 11.352 31.229 31.229 0 0 1-11.22 7.236 40.688 40.688 0 0 1-14.671 2.523 40.142 40.142 0 0 1-14.606-2.523 31.319 31.319 0 0 1-11.152-7.236 32.188 32.188 0 0 1-7.17-11.352 41.574 41.574 0 0 1-2.523-14.871 42.129 42.129 0 0 1 2.523-14.938zm17.128 22.97a21.361 21.361 0 0 0 2.721 7.037 14.475 14.475 0 0 0 5.112 4.98 15.596 15.596 0 0 0 7.967 1.86 15.97 15.97 0 0 0 8.033-1.86 14.329 14.329 0 0 0 5.178-4.98 21.405 21.405 0 0 0 2.722-7.037 40.207 40.207 0 0 0 .796-8.032 41.23 41.23 0 0 0-.796-8.1 20.705 20.705 0 0 0-2.722-7.037 15.12 15.12 0 0 0-5.178-4.978 15.548 15.548 0 0 0-8.033-1.926 14.503 14.503 0 0 0-13.079 6.904 20.665 20.665 0 0 0-2.721 7.037 41.194 41.194 0 0 0-.797 8.1 40.171 40.171 0 0 0 .797 8.032zm63.997-22.97a31.393 31.393 0 0 1 18.322-18.721 39.209 39.209 0 0 1 14.606-2.589 39.74 39.74 0 0 1 14.671 2.589 31.263 31.263 0 0 1 18.39 18.721 42.172 42.172 0 0 1 2.523 14.938 41.617 41.617 0 0 1-2.523 14.871 32.25 32.25 0 0 1-7.17 11.352 31.229 31.229 0 0 1-11.22 7.236 40.688 40.688 0 0 1-14.671 2.523 40.142 40.142 0 0 1-14.606-2.523 31.319 31.319 0 0 1-11.152-7.236 32.188 32.188 0 0 1-7.17-11.352 41.574 41.574 0 0 1-2.523-14.871 42.129 42.129 0 0 1 2.523-14.938zm17.128 22.97a21.361 21.361 0 0 0 2.721 7.037 14.475 14.475 0 0 0 5.112 4.98 15.596 15.596 0 0 0 7.967 1.86 15.97 15.97 0 0 0 8.033-1.86 14.329 14.329 0 0 0 5.178-4.98 21.405 21.405 0 0 0 2.722-7.037 40.207 40.207 0 0 0 .796-8.032 41.23 41.23 0 0 0-.796-8.1 20.705 20.705 0 0 0-2.722-7.037 15.12 15.12 0 0 0-5.178-4.978 15.548 15.548 0 0 0-8.033-1.926 14.503 14.503 0 0 0-13.079 6.904 20.665 20.665 0 0 0-2.721 7.037 41.194 41.194 0 0 0-.797 8.1 40.171 40.171 0 0 0 .797 8.032zm82.983-68.578V99.73h-18.854V4.928zm33.725 0V39.45h.265a20.132 20.132 0 0 1 9.361-7.768 31.699 31.699 0 0 1 12.282-2.456 26.18 26.18 0 0 1 19.319 8.63 33.301 33.301 0 0 1 6.572 11.22 47.088 47.088 0 0 1 2.522 16.265 47.063 47.063 0 0 1-2.522 16.265 33.277 33.277 0 0 1-6.572 11.22 26.18 26.18 0 0 1-19.32 8.63 36.208 36.208 0 0 1-13.543-2.39 17.182 17.182 0 0 1-9.028-8.099h-.266v8.763h-17.924V4.928zm30.538 52.18a21.88 21.88 0 0 0-2.921-7.036 15.296 15.296 0 0 0-4.98-4.846 15.365 15.365 0 0 0-14.405 0 15.068 15.068 0 0 0-5.046 4.846 21.837 21.837 0 0 0-2.92 7.037 36.684 36.684 0 0 0-.93 8.365 36.067 36.067 0 0 0 .93 8.231 21.81 21.81 0 0 0 2.92 7.038 15.052 15.052 0 0 0 5.046 4.846 15.365 15.365 0 0 0 14.406 0 15.28 15.28 0 0 0 4.979-4.846 21.853 21.853 0 0 0 2.921-7.038 36.175 36.175 0 0 0 .93-8.231 36.793 36.793 0 0 0-.93-8.365zm32.131-6.572a31.393 31.393 0 0 1 18.322-18.721 39.211 39.211 0 0 1 14.605-2.589 39.74 39.74 0 0 1 14.672 2.589 31.261 31.261 0 0 1 18.39 18.721 42.194 42.194 0 0 1 2.522 14.938 41.638 41.638 0 0 1-2.522 14.871 32.264 32.264 0 0 1-7.17 11.352 31.224 31.224 0 0 1-11.22 7.236 40.687 40.687 0 0 1-14.672 2.523 40.144 40.144 0 0 1-14.605-2.523 31.319 31.319 0 0 1-11.153-7.236 32.188 32.188 0 0 1-7.17-11.352 41.574 41.574 0 0 1-2.522-14.871 42.128 42.128 0 0 1 2.523-14.938zm17.127 22.97a21.361 21.361 0 0 0 2.722 7.037 14.475 14.475 0 0 0 5.112 4.98 15.593 15.593 0 0 0 7.966 1.86 15.969 15.969 0 0 0 8.033-1.86 14.34 14.34 0 0 0 5.18-4.98 21.424 21.424 0 0 0 2.72-7.037 40.171 40.171 0 0 0 .797-8.032 41.194 41.194 0 0 0-.797-8.1 20.724 20.724 0 0 0-2.72-7.037 15.133 15.133 0 0 0-5.18-4.978 15.547 15.547 0 0 0-8.033-1.926 14.503 14.503 0 0 0-13.078 6.904 20.665 20.665 0 0 0-2.722 7.037 41.194 41.194 0 0 0-.796 8.1 40.171 40.171 0 0 0 .796 8.032zm58.553-42.421h21.51L468.99 49.01l11.95-17.924h20.845l-22.57 32.131 25.36 36.514h-21.51l-14.34-21.643-14.34 21.643h-21.111l24.696-36.115z"/></svg>