<svg id="Layer_1" data-name="Layer 1" xmlns="http://www.w3.org/2000/svg" viewBox="-5.4723900000000185 2.639160000000004 520 100.88000000000001"><title>foolbox</title><path d="M71.60133,4.9281V22.45447H25.79371v21.9082H65.49342V60.56092H25.79371V99.72986H4.948V4.9281Z"/><path d="M82.08863,50.5365a31.39347,31.39347,0,0,1,18.32276-18.72168A39.20891,39.20891,0,0,1,115.01686,29.226a39.74088,39.74088,0,0,1,14.67138,2.58886A31.26331,31.26331,0,0,1,148.07789,50.5365a42.17223,42.17223,0,0,1,2.523,14.9375,41.6167,41.6167,0,0,1-2.523,14.8711A32.25037,32.25037,0,0,1,140.908,91.69666,31.22886,31.22886,0,0,1,129.68824,98.933a40.68807,40.68807,0,0,1-14.67138,2.52343A40.142,40.142,0,0,1,100.41139,98.933a31.31871,31.31871,0,0,1-11.15284-7.23633A32.18834,32.18834,0,0,1,82.08863,80.3451,41.57391,41.57391,0,0,1,79.56568,65.474,42.12865,42.12865,0,0,1,82.08863,50.5365ZM99.21656,73.50623a21.3614,21.3614,0,0,0,2.72168,7.03711,14.47538,14.47538,0,0,0,5.11182,4.97949,15.59561,15.59561,0,0,0,7.9668,1.85938,15.96933,15.96933,0,0,0,8.03271-1.85938,14.32853,14.32853,0,0,0,5.17822-4.97949A21.40483,21.40483,0,0,0,130.95,73.50623a40.207,40.207,0,0,0,.79639-8.03223,41.23063,41.23063,0,0,0-.79639-8.09961,20.70529,20.70529,0,0,0-2.72217-7.03711,15.1203,15.1203,0,0,0-5.17822-4.97851,15.54767,15.54767,0,0,0-8.03271-1.92578,14.50343,14.50343,0,0,0-13.07862,6.90429,20.6648,20.6648,0,0,0-2.72168,7.03711,41.19371,41.19371,0,0,0-.79687,8.09961A40.17107,40.17107,0,0,0,99.21656,73.50623Z"/><path d="M163.21363,50.5365a31.39347,31.39347,0,0,1,18.32276-18.72168A39.20891,39.20891,0,0,1,196.14186,29.226a39.74088,39.74088,0,0,1,14.67138,2.58886A31.26331,31.26331,0,0,1,229.20289,50.5365a42.17223,42.17223,0,0,1,2.523,14.9375,41.6167,41.6167,0,0,1-2.523,14.8711A32.25037,32.25037,0,0,1,222.033,91.69666,31.22886,31.22886,0,0,1,210.81324,98.933a40.68807,40.68807,0,0,1-14.67138,2.52343A40.142,40.142,0,0,1,181.53639,98.933a31.31871,31.31871,0,0,1-11.15284-7.23633,32.18834,32.18834,0,0,1-7.16992-11.35156,41.57391,41.57391,0,0,1-2.523-14.8711A42.12865,42.12865,0,0,1,163.21363,50.5365Zm17.12793,22.96973a21.3614,21.3614,0,0,0,2.72168,7.03711,14.47538,14.47538,0,0,0,5.11182,4.97949,15.59561,15.59561,0,0,0,7.9668,1.85938,15.96933,15.96933,0,0,0,8.03271-1.85938,14.32853,14.32853,0,0,0,5.17822-4.97949,21.40483,21.40483,0,0,0,2.72217-7.03711,40.207,40.207,0,0,0,.79639-8.03223,41.23063,41.23063,0,0,0-.79639-8.09961,20.70529,20.70529,0,0,0-2.72217-7.03711,15.1203,15.1203,0,0,0-5.17822-4.97851,15.54767,15.54767,0,0,0-8.03271-1.92578,14.50343,14.50343,0,0,0-13.07862,6.90429,20.6648,20.6648,0,0,0-2.72168,7.03711,41.19371,41.19371,0,0,0-.79687,8.09961A40.17107,40.17107,0,0,0,180.34156,73.50623Z"/><path d="M263.32545,4.9281V99.72986h-18.854V4.9281Z"/><path d="M297.04957,4.9281V39.44959h.26562A20.132,20.132,0,0,1,306.676,31.682a31.699,31.699,0,0,1,12.28174-2.456,26.18083,26.18083,0,0,1,19.31885,8.63085,33.30146,33.30146,0,0,1,6.57227,11.21875,47.08823,47.08823,0,0,1,2.52246,16.26563,47.063,47.063,0,0,1-2.52246,16.26465,33.2773,33.2773,0,0,1-6.57227,11.21972,26.1808,26.1808,0,0,1-19.31885,8.63086,36.20763,36.20763,0,0,1-13.54345-2.39062,17.182,17.182,0,0,1-9.02832-8.09863h-.26563v8.76269h-17.9248V4.9281Zm30.53857,52.18067a21.88061,21.88061,0,0,0-2.92138-7.03711,15.296,15.296,0,0,0-4.979-4.8457,15.36523,15.36523,0,0,0-14.40625,0,15.06757,15.06757,0,0,0-5.04541,4.8457,21.8368,21.8368,0,0,0-2.9209,7.03711A36.68353,36.68353,0,0,0,296.386,65.474a36.06662,36.06662,0,0,0,.92919,8.23145,21.80952,21.80952,0,0,0,2.9209,7.03711,15.052,15.052,0,0,0,5.04541,4.84668,15.36523,15.36523,0,0,0,14.40625,0,15.27974,15.27974,0,0,0,4.979-4.84668,21.85322,21.85322,0,0,0,2.92138-7.03711,36.1755,36.1755,0,0,0,.9292-8.23145A36.79266,36.79266,0,0,0,327.58814,57.10877Z"/><path d="M359.71852,50.5365a31.39349,31.39349,0,0,1,18.32275-18.72168A39.211,39.211,0,0,1,392.64576,29.226a39.73985,39.73985,0,0,1,14.67188,2.58886A31.26144,31.26144,0,0,1,425.70826,50.5365a42.19413,42.19413,0,0,1,2.52149,14.9375,41.63829,41.63829,0,0,1-2.52149,14.8711,32.26394,32.26394,0,0,1-7.16992,11.35156,31.22442,31.22442,0,0,1-11.2207,7.23633,40.687,40.687,0,0,1-14.67188,2.52343A40.14411,40.14411,0,0,1,378.04127,98.933a31.31867,31.31867,0,0,1-11.15283-7.23633,32.1882,32.1882,0,0,1-7.16992-11.35156,41.57369,41.57369,0,0,1-2.523-14.8711A42.12843,42.12843,0,0,1,359.71852,50.5365Zm17.12792,22.96973a21.3614,21.3614,0,0,0,2.72168,7.03711,14.47546,14.47546,0,0,0,5.11182,4.97949,15.59306,15.59306,0,0,0,7.96582,1.85938,15.96871,15.96871,0,0,0,8.0332-1.85938,14.34044,14.34044,0,0,0,5.17969-4.97949,21.42437,21.42437,0,0,0,2.72071-7.03711,40.17107,40.17107,0,0,0,.79687-8.03223,41.19371,41.19371,0,0,0-.79687-8.09961,20.72375,20.72375,0,0,0-2.72071-7.03711,15.13349,15.13349,0,0,0-5.17969-4.97851,15.54706,15.54706,0,0,0-8.0332-1.92578,14.50327,14.50327,0,0,0-13.07764,6.90429,20.6648,20.6648,0,0,0-2.72168,7.03711,41.19371,41.19371,0,0,0-.79687,8.09961A40.17107,40.17107,0,0,0,376.84644,73.50623Z"/><path d="M435.39869,31.08533h21.50977l12.083,17.92383,11.94922-17.92383h20.84571L479.2151,63.21619l25.36035,36.51367H483.06568L468.72584,78.08728,454.386,99.72986H433.27467L457.971,63.61463Z"/></svg>