<svg xmlns="http://www.w3.org/2000/svg" viewBox="-10.46 -1.46 609.92 647.92"><title>Gearpump logo</title><path fill="#42bef9" d="M356.53 288.75c14.576 7.387 16.458 21.531 17.455 35.259.851 11.717-6.365 18-17.943 20.063-6.698 1.193-16.43-.093-16.125 10.892.352 12.678-12.851 27.214 6.761 37.54 15.574 8.2 16.96 18.923 6.753 33.118-11.797 16.404-14.51 26.035-40.434 8.643-5.666-3.802-10.352-3.547-15.034 1.223-1.52 1.549-2.935 3.601-4.82 4.328-15.985 6.158-20.317 16.817-13.493 32.5.905 2.08.213 5.2-.533 7.589-3.218 10.308-16.472 16.85-34.01 16.576-10.82-.169-15.977-6.83-18.724-16.721-1.555-5.598.115-14.05-6.401-16.089a117.303 117.303 0 0 0-31.901-5.38c-5.53-.13-7.477 7.775-10.75 12.187-9.665 13.029-18.327 14.87-31.94 6.014a163.316 163.316 0 0 1-7.515-5.176c-12.667-9.287-14.456-16.677-5.717-29.587 6.401-9.457 8.618-17.729-1.376-26.019a15.423 15.423 0 0 1-4.477-6.344c-3.976-11.06-11.034-11.965-21.53-8.939-16.96 4.89-25.227-.863-29.03-18.08a146.294 146.294 0 0 1-1.898-10.255c-2.276-15.475.296-19.064 15.22-23.124 6.075-1.653 15.187-.155 17.345-6.641 3.369-10.12 4.248-21.218 5.024-31.985.35-4.857-5.703-5.954-9.137-8.324-8.042-5.548-16.396-10.984-14.123-22.62 2.43-12.44 9.08-22.459 20.305-28.536 7.98-4.32 15.307-.508 21.654 4.494 8.12 6.4 15.512 6.75 22.736-1.205 1.147-1.264 2.927-1.958 4.167-3.098 5.155-4.738 17.006-14.373 11.91-28.523-4.041-11.224 2.269-19.208 13.297-22.88a96.248 96.248 0 0 1 13.966-3.134c14.632-2.54 22.837 2.315 25.089 17.08 1.846 12.108 6.458 16.715 19.417 18.478 15.185 2.067 25.166.8 32.661-14.096 4.67-9.283 14.568-10.23 23.882-5.027 13.382 7.474 27.87 14.361 23.197 34.164l.062-.164c-14.086 14.76-14.054 14.808-2.916 30.145a53.63 53.63 0 0 1 6.052 9.856c3.007 6.92 7.993 8.257 14.662 6.334 4.125-1.19 8.303-2.194 12.457-3.281l5.755-1.255zm-132.145 93.348c19.339-.167 35.438-16.637 35.342-36.155-.093-19.065-16.898-35.885-35.863-35.895-19.288-.011-36.531 17.66-36.123 37.02.402 19.098 17.245 35.198 36.644 35.03z"/><path fill="#99af71" d="M356.53 288.75l-5.742 1.25c-23.864-6.224-33.642-20.122-30.268-43.049l-.062.164c14.654-10.683 15.14-12.755 6.712-27.16-1.748-2.99-3.783-5.993-4.675-9.266-2.425-8.895-7.968-11.697-16.622-9.848-9.446 2.019-19.098 2.004-24.349-7.337-5.877-10.455-7.626-22.625-3.594-33.972 2.905-8.174 10.643-12.51 19.95-11.74 10.855.896 17.335-3.085 18.617-14.601.47-4.225 2.215-8.43 4-12.36 3.255-7.162 1.017-11.876-4.777-16.84-19.016-16.292-13.586-41.652 10.448-50.476 8.119-2.98 14.116.92 20.14 5.712 6.32 5.028 12.358 11.532 21.67 4.622 9.831-7.294 26.395-6.91 23.205-27.298-3.022-19.318 3.4-23.448 29.445-25.347 15.445-1.126 21.71 4.554 22.976 22.33.67 9.416 3.282 16.026 13.956 16.494 1.26.055 2.485.87 3.716 1.144 11.234 2.512 23.068 5.373 32.513-7.341 7.775-10.466 16.866-9.98 27.085-1.763 2.706 2.176 5.41 4.356 8.066 6.593 12.84 10.813 13.67 18.933 3.62 32.287-4.431 5.888-11.984 10.65-5.194 20.113 7.44 10.367 7.384 27.258 28.18 23.852 17.519-2.87 22.828 4.313 24.99 26.23 1.734 17.589-3.389 24.418-19.957 27.325-5.395.947-13.09-1.442-15.671 4.057a143.254 143.254 0 0 0-9.917 30.76c-1.105 5.165 5.56 7.182 8.902 10.338 15.84 14.957 15.744 20.805-1.228 40.145-10.824 12.334-20.678 12.883-34.672.516-6.694-5.917-12.318-5-19.433-1.534-2.703 1.317-5.279 3.241-7.905 4.44-12.724 5.81-14.773 11.624-13.844 23.32 1.26 15.85-6.07 22.73-23.484 24.245-21.014 1.828-26.734-2.156-29.691-19.65-.966-5.711 1.011-13.67-5.603-16.356-9.943-4.04-20.77-11.088-30.702-8.563-7.99 2.031-13.944 12.075-20.8 18.564zm71.872-90.69c20.333.12 35.672-14.77 35.841-34.79a35.989 35.989 0 0 0-35.352-35.907c-19.687-.168-35.289 15.435-35.457 35.461-.177 21.094 13.735 35.112 34.968 35.236z"/><path d="M43.747 574.895H60.71v21.672c-2.745.993-7.253 1.572-12.425 1.572-18.661 0-30.256-12.164-30.256-31.743 0-19.504 12.115-31.619 31.618-31.619 8.83 0 14.077 1.832 17.662 3.426l2.018.897 3.695-12.489-1.483-.715c-4.037-1.949-11.845-4.031-21.644-4.031-28.056 0-46.998 18.09-47.132 45.027 0 13.13 4.459 24.965 12.24 32.48 8.147 7.775 18.79 11.555 32.539 11.555a79.063 79.063 0 0 0 26.286-4.695l1.282-.462v-43.415H43.747zm74.873-29.999c-17.69 0-30.045 14.086-30.045 34.254 0 19.53 12.329 32.15 31.407 32.15 10.018 0 16.804-2.113 20.731-3.888l1.459-.658-2.76-11.587-2.11.895c-3.6 1.528-8.009 2.943-15.833 2.943-5.284 0-17.319-1.698-18.526-16.927h41.802l.25-2.211a39.173 39.173 0 0 0 .327-4.803c0-3.36-.523-11.97-5.365-19.315-4.682-7.1-12.062-10.853-21.337-10.853zm-.867 11.674a12.097 12.097 0 0 1 9.005 3.38c3.087 3.145 3.91 7.687 4.109 10.453H103.32c1.285-5.931 5.364-13.833 14.432-13.833zm88.119 37.19v-22.412c0-17.057-8.78-26.452-24.72-26.452-7.672 0-15.233 2.055-20.742 5.636l-1.27.827 3.777 10.949 2.077-1.343a27.818 27.818 0 0 1 14.549-4.147c7.633 0 11.456 3.68 11.674 11.239-13.944.197-24.055 3.324-30.073 9.309a20.245 20.245 0 0 0-5.95 14.909c0 9.515 6.96 19.148 20.263 19.148a24.866 24.866 0 0 0 17.23-6.64l.607 5.278h13.953l-.416-2.284a80.923 80.923 0 0 1-.959-14.017zm-27.568 5.741c-5.221 0-8.339-3.165-8.339-8.465a8.87 8.87 0 0 1 2.633-6.69c3.296-3.229 9.643-4.87 18.876-4.888v8.483a9.358 9.358 0 0 1-.516 2.841 13.047 13.047 0 0 1-12.654 8.72zm74.668-54.605a18.799 18.799 0 0 0-15.36 8.352l-.222-6.99h-13.482l.138 2.066c.34 5.08.492 10.806.492 18.568v43.169h14.645v-33.883a28.917 28.917 0 0 1 .464-4.73c1.392-7.65 6.261-12.401 12.707-12.401a14.472 14.472 0 0 1 3.293.327l2.357.524v-14.205l-1.466-.367a13.735 13.735 0 0 0-3.566-.43zm50.77 0c-8.14 0-14.912 2.88-19.855 8.386l-.339-7.024h-13.652l.088 2.023c.261 5.98.494 11.97.494 19.477v66.82h14.648v-29.36a24.213 24.213 0 0 0 16.759 6.205c14.522 0 29.178-10.554 29.178-34.13 0-18.772-11.49-32.397-27.32-32.397zm12.55 32.892c0 13.087-6.233 21.217-16.265 21.217a14.824 14.824 0 0 1-14.44-11.163 22.924 22.924 0 0 1-.461-4.11v-10.278a16.064 16.064 0 0 1 .68-3.975c1.826-7.09 7.827-12.042 14.592-12.042 10.98 0 15.894 10.22 15.894 20.35zm83.618 13.992v-45.522h-14.77v38.71a13.917 13.917 0 0 1-.846 4.838 13.75 13.75 0 0 1-12.57 8.704c-4.91 0-11.436-1.777-11.436-17.132v-35.12h-14.77v36.978c0 25.44 15.814 28.187 22.613 28.187a24.136 24.136 0 0 0 18.44-7.989l.42 6.627h13.572l-.165-2.089c-.333-4.222-.488-9.368-.488-16.193zm86.969-46.884a22.372 22.372 0 0 0-14.412 4.597 25.955 25.955 0 0 0-5.395 5.543 19.513 19.513 0 0 0-17.34-10.14 22.069 22.069 0 0 0-17.517 7.785l-.329-6.423h-13.463l.157 2.083c.344 4.565.49 9.374.49 16.074v45.646h14.522v-38.092a13.316 13.316 0 0 1 .776-4.737c1.464-4.599 5.734-9.548 11.651-9.548 9.805 0 10.567 11.124 10.567 14.533v37.844h14.523v-38.959a15.867 15.867 0 0 1 .76-4.81c1.493-4.285 5.488-8.608 11.048-8.608 7.34 0 11.063 5.556 11.063 16.513v35.864h14.523v-37.226c0-26.592-18.013-27.939-21.624-27.939zm73.682 0c-8.14 0-14.912 2.88-19.855 8.386l-.339-7.024h-13.652l.088 2.023c.261 5.98.494 11.97.494 19.477v66.82h14.646v-29.362a24.21 24.21 0 0 0 16.76 6.207c14.523 0 29.179-10.554 29.179-34.13 0-18.772-11.49-32.397-27.32-32.397zm12.55 32.892c0 13.087-6.233 21.217-16.265 21.217a14.824 14.824 0 0 1-14.44-11.163 22.907 22.907 0 0 1-.463-4.11v-10.278a16.157 16.157 0 0 1 .683-3.975c1.825-7.09 7.826-12.042 14.59-12.042 10.98 0 15.895 10.22 15.895 20.35z"/></svg>