<svg xmlns="http://www.w3.org/2000/svg" role="img" viewBox="-10.62 0.38 1020.24 390.24"><title>Generic Neural Elastic Search (GNES) logo</title><defs><style>.cls-1{fill:#267ba0}.cls-2{fill:#206280}</style></defs><path d="M114.303 160.896c22.12-.08 44.24-.132 66.359-.279 2.395-.015 2.95.944 2.938 3.13q-.103 21.101.003 42.203c.013 2.258-.676 3.081-2.995 3.06-15.38-.136-30.763-.163-46.144-.225l-8.82-.054-8.8.101-9.693-.124-10.552.109-12.327-.041a69.238 69.238 0 0 1-12.307-.056 48.25 48.25 0 0 1-10.594 0c-8.426-.87-13.081-5.788-13.151-14.551-.146-18.17-.08-36.343-.067-54.514.006-10.11.08-20.218.122-30.327l.025-17.649c-.587-12.586 4.237-17.778 16.738-17.92 3.492-.039 6.987.106 10.48.166l7.866.108a27.155 27.155 0 0 1 7.934-.082l109.147-.001c5.111-.191 9.38.36 14.997-.02 3.812-.257 4.833-1.287 4.71-5.07-.308-9.525-.289-19.073-.01-28.6.114-3.926-.857-5.108-4.983-5.093-45.184.163-90.369.091-135.553.113-7.187.003-14.39-.136-21.556.299a48.407 48.407 0 0 0-27.954 10.496C15.686 57.654 9.709 73.221 9.595 91.283c-.163 25.67-.118 51.341-.162 77.011l-.018 22.9c.275 3.503.433 7.02.847 10.507 1.105 9.335 4.187 17.96 10.122 25.328 11.579 14.372 27.097 20.423 45.14 20.474 38.386.108 76.773.026 115.16.042 4.83.002 9.662.122 14.493.187l10.583-.262 5.795-1.9c5.967-3.564 9.562-8.687 10.302-15.685l.238-16.698a133.228 133.228 0 0 1-.044-18.547l-.034-54.459-2.202-7.858a24.668 24.668 0 0 0-8.953-8.632c-4.754-1.937-9.855-1.286-14.777-1.978l-22.017-.01q-29.916.102-59.831.199c-9.828.026-19.659.129-29.483-.067-3.16-.063-3.94.98-3.887 3.995.174 9.825.259 19.66-.029 29.48-.118 4.04.673 6.188 5.157 5.383m840.906.225c15.35-.399 24.665 8.703 24.702 24.137a30.24 30.24 0 0 1-1.48 10.929c-2.745 6.511-7.233 9.927-13.611 11.922-3.848 1.203-7.815 1.059-11.764 1.06q-70.127.015-140.254-.072c-3.555-.009-4.786.75-4.683 4.53.275 10.105.222 20.225.018 30.333-.064 3.162.944 3.912 3.955 3.849 8.054-.168 16.116.004 24.175.041l7.972.058 43.092-.054 7.967.013 14.043-.02 13.256.065c1.46-.058 2.92-.128 4.38-.171 13.15-.39 26.347.94 39.459-.907 27.47-3.87 47.378-23.714 51.512-51.143 1.147-7.613.428-15.177-.116-22.76-2.282-9.76-5.532-19.107-11.961-27.013-11.417-14.039-26.478-21.228-44.213-23.3-2.755-.321-5.522-.546-8.283-.817-27.593.665-55.188.23-82.783.157a33.565 33.565 0 0 1-8.766-.469 15.78 15.78 0 0 1-8.07-3.843c-7.668-5.58-9.22-13.477-8.436-22.26.345-6.873 2.63-12.762 8.53-16.817 1.942-2.004 4.208-2.568 7.074-3.696a43.52 43.52 0 0 1 10.809-.903c40.865-.04 81.73-.092 122.594.077 4.137.017 5.092-1.183 4.983-5.11-.274-9.952-.2-19.919-.022-29.876.051-2.847-.8-4.028-3.606-3.72l-10.644-.114a202.005 202.005 0 0 1-21.923.011l-20.34.054-13.125-.065-10.643.113c-17.446.057-34.894-.012-52.338.218a61.085 61.085 0 0 0-30.188 8.306c-25.973 15.065-34.75 42.394-27.844 72.399 4.313 18.74 16.636 31.536 34.023 39.499l7.747 2.785c10.172 2.715 20.573 2.33 30.95 2.32q28.74-.03 57.481.009m-474.552 19.135l.114 3.407-.177.736-.67-.481c-.856-.789-1.756-1.535-2.56-2.373q-67.444-70.304-134.851-140.644c-3.41-3.56-7.022-6.64-11.917-7.865a23.536 23.536 0 0 0-12.191 1.317c-8.414 4.966-11.462 12.346-11.423 22.045.223 55.366.11 110.734.1 166.101 0 1.753-.122 3.505-.188 5.258l-.064 10.535a17.445 17.445 0 0 1-.016 6.17c-.474 4.438 2.95 3.306 5.3 3.71 9.67-.063 19.344-.314 29.007-.091 3.666.084 4.584-.893 4.565-4.56-.132-25.207-.005-50.416.039-75.623l.083-9.754-.091-9.617.1-9.76q-.048-4.364-.094-8.73l-.002-11.507.068-5.212c-.081-4.235-.17-8.47-.228-12.704a10.853 10.853 0 0 1 .519-1.93l7.517 8.348a114.547 114.547 0 0 1 11.504 12.028l9.635 9.99 3.408 3.537a29.31 29.31 0 0 1 5.43 5.734l4.415 4.593a20.678 20.678 0 0 1 4.486 4.794c2.474 2.438 5.01 4.818 7.413 7.326q42.319 44.18 84.57 88.427c6.442 6.769 13.858 9.166 22.664 6.044 7.953-2.819 12.006-9.866 12.107-19.972.065-6.446.182-12.892.276-19.337l-.251-170.658c-.001-1.6.746-3.724-1.98-4.065l-8.895.1-14.887-.056-8.005.048c-2.386.195-5.365-.367-4.725 3.696M610.95 79.605c13.054 4.487 25.66 5.508 38.514.076l28.176-7.458c10.604-3.75 21.584-6.16 32.42-9.085 12.594-3.52 25.188-7.038 38.86-10.857-2.183-.77-3.334-1.258-4.528-1.585-35.81-9.819-71.647-19.542-107.411-29.525a23.415 23.415 0 0 0-13.187.107C607.75 25.746 591.649 30 575.569 34.335c-15.714 4.926-31.65 9.052-47.6 13.122l-15.926 4.698 10.705 3.354" class="cls-1"/><path d="M628.81 168.104l-.063 36.554 123.961-36.975V132.96L628.81 168.104z" class="cls-2"/><path d="M629.134 168.104l.063 36.554-123.96-36.975V132.96l123.897 35.144z" class="cls-1"/><path d="M628.81 227.324l-.063 36.553 123.961-36.975v-34.723L628.81 227.324z" class="cls-2"/><path d="M629.134 227.324l.063 36.553-123.96-36.975v-34.723l123.897 35.145z" class="cls-1"/><path d="M628.762 109.398l-.063 36.554 123.961-36.975V74.254l-123.898 35.144z" class="cls-2"/><path d="M629.134 109.398l.063 36.554-123.96-36.975V74.254l123.897 35.144zM304.277 322.82c-1.872 2.187-1.322 4.019-1.327 5.69-.041 12.47.025 24.94-.02 37.41-.01 2.604.933 5.658-3.76 5.757-4.662.1-3.907-2.797-3.909-5.505-.01-19.22-.033-38.438.04-57.656.008-1.924-1.131-4.9 2.554-4.89 3.133.008 6.571-1.256 7.897 3.783 3.349 12.726 7.234 25.31 10.965 37.934.473 1.602.433 3.502 2.278 4.81 1.301-1.368.842-3.024.847-4.487.041-12.617.07-25.234-.01-37.85-.017-2.748.38-4.355 3.778-4.347 3.354.008 3.84 1.554 3.83 4.327-.062 19.805-.023 39.61-.048 59.416-.003 1.972.498 4.474-2.79 4.31-2.701-.135-5.74 1.132-6.934-3.237-3.738-13.68-7.855-27.258-11.841-40.87-.4-1.365-.907-2.698-1.55-4.594zm-263.31 14.64c0 7.485.133 14.974-.053 22.456-.1 4.07 2.15 5.157 5.494 5.05 3.318-.107 7.607 1.077 7.865-4.4.206-4.393.15-8.8.173-13.2.012-2.273-.51-4.034-3.412-3.966-2.742.064-2.248-2.09-2.307-3.804-.064-1.917.975-2.618 2.745-2.546a4.094 4.094 0 0 0 .44-.008c11.124-.748 11.128-.748 11.123 10.521-.003 5.137.052 10.276-.06 15.411-.095 4.334-2.132 7.08-6.629 7.963a50.32 50.32 0 0 1-15.755.32c-6.106-.73-8.445-3.357-8.524-9.719q-.3-24.215.01-48.435c.096-6.522 3.231-9.376 9.672-9.467 4.82-.068 9.695-.657 14.473.42 4.828 1.087 6.602 3.349 6.78 8.315.062 1.76-.165 3.548.071 5.278.566 4.142-1.469 5.026-5.11 4.77-2.387-.166-3.562-.962-3.456-3.397.032-.731-.003-1.468-.037-2.2-.284-6.195-6.345-9.28-11.731-6.025-1.872 1.13-1.745 2.896-1.749 4.646q-.022 11.008-.006 22.017zm730.848 14.726c0-2.64-.087-5.283.022-7.918.126-3.027-1.394-4.281-4.229-4.312-2.493-.028-4.986-.005-7.478-.058-6.062-.13-9.12-2.717-9.39-8.667-.284-6.293-.256-12.617.015-18.911.222-5.133 2.408-7.604 7.357-8.373a55.897 55.897 0 0 1 15.319-.026c4.457.541 6.634 3.414 7.22 7.61a38.52 38.52 0 0 1 .136 5.272c.005 5.585-.413 5.88-6.033 5.486-1.982-.139-3.05-.764-2.94-2.858.04-.731.003-1.466-.002-2.2-.037-6.145-4.135-8.71-10.07-6.39a2.912 2.912 0 0 0-2.061 2.996c-.012 5.279.002 10.558.003 15.837 0 2.648 1.64 3.61 3.96 3.695 2.93.107 5.868-.002 8.796.137 5.244.247 8.242 3.08 8.348 8.228.148 7.183.125 14.373-.03 21.555-.09 4.175-2.31 6.739-6.573 7.507a47.102 47.102 0 0 1-15.698.187c-4.455-.685-6.858-2.941-7.326-7.346-.2-1.884-.443-3.775-.467-5.665-.06-4.628 3.5-6.888 7.644-4.967 1.812.84 1.37 2.468 1.304 3.827-.398 8.232 1.29 7.602 8.996 7.487 2.191-.032 3.17-1.207 3.163-3.334-.009-2.933-.002-5.866-.002-8.799zm163.75-16.791c-.002-10.562.082-21.126-.053-31.687-.04-3.18.522-4.768 4.292-4.776 3.945-.008 4.223 1.96 4.16 4.943-.108 4.986-.049 9.976-.004 14.963.009.966-.367 2.2.764 2.771 1.04.527 1.454-.654 2.135-1.107 4.54-3.022 9.321-2.266 13.826-.29 3.942 1.731 4.162 5.704 4.171 9.447.03 12.47-.091 24.941.08 37.408.047 3.4-.854 4.598-4.436 4.612-3.732.014-4.734-1.221-4.674-4.82.195-11.88.036-23.765.097-35.648.016-3.054-.1-5.485-4.258-5.508-5.932-.033-7.466.605-7.602 5.277-.246 8.502-.108 17.015-.127 25.523-.008 3.814-.157 7.636.034 11.44.174 3.48-1.809 3.632-4.457 3.668-2.691.037-4.034-.594-3.998-3.649.131-10.854.052-21.71.05-32.567zm-329.109 9.761c.001 7.469.027 14.937-.02 22.406-.01 1.506.535 3.775-1.76 3.81-2.193.035-5.206 1.722-6.492-1.571-.81-2.075-1.408-1.56-2.726-.522-4.489 3.538-9.47 2.697-14.092.665-4.32-1.899-4.2-6.273-4.208-10.273q-.032-14.937-.013-29.874c.009-3.89.185-8.032 4.377-9.74 4.521-1.843 9.373-2.69 13.755.62 1.416 1.069 2.049 1.902 2.975-.538 1.156-3.048 4.078-1.371 6.184-1.442 2.372-.08 1.999 2.068 2.005 3.614.031 7.615.014 15.23.015 22.845zm-20.334-.308v7.479q.002 3.959.01 7.918c.004 1.487.022 2.936 1.642 3.762 4.943 2.52 10.125-.29 10.214-5.764.145-8.796.072-17.596.06-26.394a12.256 12.256 0 0 0-.34-2.605c-1.11-5.02-5.153-3.24-8.237-3.404-3.097-.165-3.381 2.083-3.36 4.49.045 4.84.014 9.679.01 14.518zm-112.659.217c0 7.468.028 14.935-.022 22.402-.01 1.502.579 3.801-1.666 3.887-2.198.084-5.206 1.732-6.553-1.466-.785-1.864-1.24-1.864-2.69-.678-4.447 3.635-9.44 2.758-14.075.784-4.348-1.85-4.287-6.212-4.293-10.222q-.022-14.935.004-29.87c.01-3.883.159-8.023 4.304-9.79 4.506-1.922 9.408-2.802 13.733.539 1.893 1.461 2.147 1.283 3.207-.823 1.297-2.576 4.22-1.182 6.381-1.09 2.01.085 1.65 2.08 1.656 3.486.028 7.614.013 15.228.014 22.841zm-8.422.268h-.068c0-4.985.136-9.975-.038-14.953-.185-5.32-4.207-4.531-7.73-4.64-3.873-.119-4.12 2.256-4.1 5.188q.1 13.858 0 27.717c-.024 3.173-.017 5.816 4.432 5.777 5.872-.051 7.22-.67 7.456-5.454.224-4.535.048-9.09.048-13.635zm394.19-.275c.002 7.484.03 14.968-.022 22.45-.01 1.502.583 3.792-1.7 3.866-2.21.07-5.215 1.696-6.562-1.507-.86-2.048-1.43-1.517-2.753-.499-4.532 3.483-9.508 2.597-14.137.532-4.122-1.84-4.115-6.038-4.122-9.909q-.03-15.187.006-30.374c.013-3.744.241-7.716 4.186-9.444 4.514-1.976 9.385-2.815 13.781.405 1.706 1.25 2.155 1.767 3.245-.674 1.21-2.708 4.183-1.219 6.339-1.175 2.033.041 1.72 2.02 1.725 3.439.026 7.63.012 15.26.014 22.89zm-20.329-.43q0 7.698.002 15.395c0 1.633-.028 3.261 1.84 4.082 5.507 2.422 10.016-.42 10.084-6.53.093-8.356.046-16.714-.002-25.071a12.81 12.81 0 0 0-.553-3.888c-1.482-4.493-5.319-2.56-8.251-2.741-2.821-.175-3.143 1.999-3.129 4.238.03 4.838.01 9.677.01 14.515zm-684.668.516c0-5.865-.127-11.733.037-17.594.152-5.418 1.87-7.281 7.088-8.35a40.372 40.372 0 0 1 16.557.218c3.36.705 5.589 2.768 5.732 6.287.256 6.295.23 12.6.352 18.901.05 2.53-1.287 3.238-3.608 3.192-4.837-.096-9.68.057-14.516-.055-2.4-.056-3.518.732-3.389 3.261a59.013 59.013 0 0 1-.021 7.914c-.323 3.844 1.124 5.717 5.105 5.902 5.506.256 7.301-.551 7.835-4.955.44-3.636 2.956-2.438 4.919-2.656 2.4-.266 3.334.782 3.42 3.275.234 6.735-1.63 9.305-8.25 10.556a38.94 38.94 0 0 1-14.823-.236c-4.012-.783-6.256-3.092-6.319-7.186-.094-6.157-.024-12.316-.024-18.473zm21.25-10.975c0-1.75.035-3.5-.01-5.249a3.098 3.098 0 0 0-1.99-3.067c-6.133-2.658-10.965.326-10.978 6.84a24.13 24.13 0 0 1-.026 3.496c-.642 4.286 1.19 5.518 5.366 5.338 8.612-.372 7.583.81 7.638-7.358zM74.178 344.644c.001-6.01-.057-12.022.021-18.031.053-4.084 2.245-6.458 6.238-7.273a42.029 42.029 0 0 1 16.995.008c3.575.73 5.92 2.737 6.074 6.452.261 6.294.239 12.599.336 18.9.034 2.207-1.024 3.128-3.251 3.09-4.69-.077-9.394.176-14.073-.066-3.366-.174-4.46 1.135-4.194 4.325a40.214 40.214 0 0 1-.004 7.031c-.37 3.982 1.44 5.852 5.264 5.669 3.304-.158 7.633.93 7.703-4.597.05-3.944 2.884-2.795 5.02-2.992 2.503-.23 3.235 1.026 3.31 3.41.21 6.766-1.606 9.226-8.332 10.483a38.763 38.763 0 0 1-14.823-.26c-4.012-.799-6.21-3.149-6.263-7.237-.082-6.303-.022-12.608-.02-18.912zm21.204-10.708c0-8.034-.438-8.636-6.26-8.614-5.998.022-6.72.76-6.745 6.902a26.22 26.22 0 0 1-.025 3.519c-.604 4.291.846 6.028 5.491 5.796 8.605-.43 7.417.748 7.54-7.603zm243.89 10.919c0-6.01-.05-12.022.017-18.032.047-4.262 2.253-6.703 6.477-7.526a43.555 43.555 0 0 1 16.565.02c4.02.755 6.257 3.049 6.363 7.15.155 6.006.158 12.015.27 18.023.046 2.446-1.09 3.36-3.498 3.309-4.837-.102-9.68.09-14.514-.07-2.725-.09-3.666.971-3.516 3.597a58.342 58.342 0 0 1-.01 7.913c-.296 3.733 1.325 5.339 4.982 5.564 5.554.343 7.503-.527 7.94-4.816.368-3.62 2.802-2.605 4.811-2.786 2.289-.207 3.435.558 3.548 3.16.298 6.867-1.62 9.527-8.538 10.748a37.5 37.5 0 0 1-15.255-.445 6.672 6.672 0 0 1-5.599-6.897c-.072-6.303-.02-12.608-.02-18.911zm21.168-10.698c0-1.752.038-3.504-.011-5.255a3.09 3.09 0 0 0-2.01-3.056c-6.26-2.676-10.945.215-10.956 6.827a24.14 24.14 0 0 1-.025 3.5c-.64 4.278 1.165 5.537 5.36 5.354 8.621-.375 7.588.812 7.642-7.37zm430.653 10.826c-.004-6.01-.042-12.022.009-18.032.038-4.484 2.36-6.906 6.795-7.712a43.593 43.593 0 0 1 16.564.133c3.575.718 5.852 2.81 5.99 6.528.232 6.295.221 12.6.314 18.9.034 2.285-1.196 3.024-3.344 2.99-4.69-.074-9.389.12-14.073-.068-2.958-.118-4.364.734-4.097 3.914a43.154 43.154 0 0 1-.002 7.47c-.364 4.005 1.49 5.824 5.291 5.645 3.311-.155 7.61.9 7.687-4.624.055-3.975 2.963-2.7 5.065-2.92 2.575-.268 3.167 1.137 3.226 3.462.17 6.68-1.597 9.082-7.988 10.323a37.956 37.956 0 0 1-15.682-.308c-3.538-.794-5.661-3.086-5.722-6.792-.104-6.302-.029-12.606-.033-18.91zm21.163-11.014c0-1.751.051-3.505-.017-5.254a3.021 3.021 0 0 0-2.176-2.925c-6.527-2.502-10.767.25-10.775 7.072a19.952 19.952 0 0 1-.023 3.062c-.705 4.449 1.093 5.834 5.549 5.613 8.491-.422 7.387.801 7.442-7.568zM398.63 368.073c-4.763 4.71-10.108 3.902-15.36 2.158-2.839-.942-4.323-3.381-4.327-6.514-.018-13.935.023-27.87-.104-41.805-.03-3.3 1.813-3.361 4.245-3.389 2.523-.028 4.194.264 4.161 3.477-.118 11.88-.064 23.763-.028 35.645.018 6.196 3.648 8.633 9.497 6.464 2.416-.897 2.548-2.917 2.545-5.056-.015-11.882.089-23.765-.063-35.645-.044-3.38.55-5.003 4.511-4.982 3.857.021 4.616 1.452 4.578 4.92-.155 14.374-.024 28.75-.115 43.125-.011 1.796 1.193 4.717-1.967 4.93-2.819.19-6.7 1.908-7.573-3.328zm-284.806-23.071c0-7.482-.025-14.964.022-22.445.01-1.509-.537-3.781 1.768-3.812 2.195-.03 5.213-1.727 6.491 1.594.82 2.13 1.454 1.479 2.738.48 4.517-3.517 9.494-2.652 14.121-.596 4.105 1.824 4.153 6.016 4.158 9.895.017 12.177-.072 24.354.06 36.529.035 3.287-.369 5.116-4.444 5.045-3.747-.066-4.707-1.283-4.65-4.853.187-11.734.007-23.472.092-35.208.025-3.432-.169-6.056-4.771-5.938-5.683.145-7.06.804-7.13 5.8-.166 11.734-.22 23.474-.002 35.206.072 3.907-1.16 5.176-5.025 4.949-2.783-.164-3.492-1.24-3.461-3.76.09-7.628.033-15.257.033-22.886zm421.719 26.547c-3.52 0-7.042-.094-10.558.031-2.449.087-3.404-.854-3.397-3.326q.078-30.796.01-61.592c-.004-2.256.911-3.133 3.153-3.111q10.778.105 21.557.002c2.404-.024 2.973 1.182 2.968 3.289-.005 2.078-.574 3.42-2.926 3.419-3.96-.002-7.92.113-11.877.04-2.871-.052-4.373.987-4.31 4.072.101 4.837.052 9.679.007 14.517-.025 2.676.89 4.063 3.887 3.82 2.913-.237 5.865.04 8.793-.068 2.685-.099 3.15 1.448 3.156 3.634.006 2.217-.54 3.697-3.195 3.597-2.928-.112-5.872.11-8.796-.054-2.58-.145-3.842.768-3.824 3.43q.059 8.798-.004 17.597c-.014 2.547 1.02 3.664 3.714 3.553 4.245-.174 8.508.08 12.755-.083 2.807-.108 3.471 1.157 3.49 3.695.02 2.66-.918 3.695-3.606 3.578-3.66-.16-7.33-.04-10.997-.04zm-296.616-26.916c0-4.836-.02-9.672.004-14.508.04-7.942 2.233-10.633 10.103-11.403a37.174 37.174 0 0 1 12.232.461c5.562 1.309 9.905 8.751 7.654 13.887-1.277 2.914-4.152 1.178-6.298 1.472-1.881.257-2.391-.973-2.563-2.714-.53-5.387-5.305-7.998-10.276-5.768-1.631.732-1.842 2.12-1.842 3.644 0 10.258.018 20.516-.011 30.773-.007 2.514 1.054 3.864 3.649 3.843a27.002 27.002 0 0 1 3.076.035c3.877.414 5.95-1.03 5.436-5.174-.49-3.953 2.154-3.597 4.751-3.69 2.772-.1 4.323.378 4.298 3.767-.058 8.137-2.538 11.459-10.468 12.167a38.323 38.323 0 0 1-11.81-.389c-5.66-1.258-7.726-3.411-7.875-9.258-.146-5.712-.032-11.43-.032-17.145zm457.133.469c-.006-4.985-.024-9.97-.002-14.954.035-7.852 2.019-10.388 9.644-11.372a38.145 38.145 0 0 1 14.4.699c4.159 1.065 8.132 10.464 5.73 13.955-1.586 2.305-4.33.967-6.55 1.065-2.082.093-2.001-1.618-2.106-3.13-.34-4.89-6.355-7.752-10.698-5.148-1.356.813-1.44 2.101-1.44 3.44-.006 10.262.029 20.526-.025 30.788-.015 2.827 1.29 4.013 4.019 3.907a31.13 31.13 0 0 1 3.517.013c3.419.255 5.046-1.357 4.6-4.69-.592-4.436 2.212-4.035 5.17-4.214 3.735-.226 3.967 1.773 3.873 4.626-.247 7.538-2.157 10.079-9.488 11.183a36.935 36.935 0 0 1-14.827-.653c-4.473-1.16-5.678-4.764-5.778-8.801-.138-5.568-.035-11.142-.04-16.714zm199.925-.032c0-4.984-.02-9.968.004-14.952.037-7.962 2.217-10.634 10.103-11.402a37.906 37.906 0 0 1 12.67.543c5.156 1.246 9.413 8.984 7.173 13.837-1.319 2.856-4.18 1.15-6.335 1.426-1.915.245-2.342-1.072-2.493-2.78-.467-5.303-5.304-7.925-10.31-5.723-1.645.724-1.835 2.115-1.834 3.64.008 10.262.045 20.524-.005 30.785-.014 2.838 1.319 3.994 4.034 3.89a31.672 31.672 0 0 1 3.517.014c3.406.249 5.044-1.325 4.595-4.681-.664-4.965 2.768-3.959 5.614-4.165 3.768-.272 3.445 2.204 3.368 4.605-.246 7.712-2.374 10.354-9.93 11.246a36.695 36.695 0 0 1-12.241-.326c-5.713-1.255-7.767-3.437-7.901-9.246-.129-5.568-.028-11.14-.029-16.71zm-252.127 11.873c-.089 12.803-2.063 14.791-14.852 14.572a32.05 32.05 0 0 1-6.507-.845c-4.8-1.091-7.884-7.766-5.549-12.067 1.276-2.351 3.693-1.014 5.596-1.233 1.646-.189 2.155.867 2.404 2.424.749 4.687 3.231 6.32 7.42 5.071 1.134-.338 2.457-.778 2.627-2.065a42.258 42.258 0 0 0-.03-12.255c-.318-1.977-2.34-1.827-3.973-1.897-13.546-.587-14.692-1.788-14.603-15.217.087-13.334 4.682-17.05 18.043-14.59 7.465 1.375 9.436 3.833 9.119 10.768-.116 2.539-1.155 3.45-3.515 3.184-1.966-.223-4.87 1.02-4.75-2.702.136-4.303-2.406-5.16-5.968-5.014-3.703.153-4.55 2.305-4.452 5.594.314 10.696-2.22 11.751 10.83 11.676 4.998-.03 7.374 2.528 7.819 7.57.206 2.334.233 4.684.341 7.026zm10.678-10.371c0-5.72.026-11.44-.017-17.161-.012-1.575.175-3.563-2.183-3.565-2.724-.002-3.02-1.544-3.04-3.713-.02-2.221.413-3.536 3.07-3.699 2.89-.177 2.168-2.796 2.08-4.484-.169-3.216.927-4.38 4.264-4.36 3.262.018 4.67 1.07 4.266 4.318-.451 3.626 1.08 5.151 4.746 4.686 2.779-.352 2.967 1.498 2.998 3.636.033 2.261-.467 3.879-3.128 3.509-3.875-.54-4.715 1.42-4.66 4.843.146 9.092.072 18.188.043 27.282-.012 3.607.725 6.464 5.222 6.402 3.044-.042 2.359 2.294 2.492 4.109.16 2.187-.66 3.198-3.004 3.221a25.945 25.945 0 0 1-8.214-1.23c-3.225-1.04-4.863-3.585-4.854-7.073.013-5.574.003-11.147.003-16.72zm-96.814-11.901c0-10.403.084-20.808-.05-31.21-.04-3.049.605-4.555 4.091-4.496 3.166.054 4.4.93 4.383 4.26q-.167 32.09 0 64.18c.017 3.312-1.164 4.207-4.364 4.252-3.472.049-4.154-1.373-4.114-4.457.139-10.841.054-21.685.054-32.529zm-73.129.599c0-10.702.072-21.404-.047-32.105-.032-2.92.736-4.276 3.935-4.222 2.958.049 4.588.532 4.568 4.073q-.184 32.323 0 64.648c.02 3.631-1.751 3.876-4.631 3.971-3.335.111-3.867-1.44-3.84-4.261.104-10.7.042-21.403.042-32.105zm395.234-10.983c1.95-1.893 3.078-4.4 5.709-4.93 1.517-.307 3.805-2.072 4.24.784.3 1.97 1.885 5.322-2.39 5.77-.867.091-1.71.39-2.572.547-3.343.611-5.027 2.66-5.412 5.987-1.34 11.56-.429 23.156-.528 34.733-.03 3.494-1.165 4.544-4.617 4.487-3.225-.054-3.936-1.311-3.915-4.223.101-14.527.005-29.056.087-43.584.013-2.193-1.222-5.194 3.085-5.372 3.525-.145 5.718.532 5.483 4.566-.012.22.296.46.83 1.235zm-685.854 20.517c0-7.483.013-14.967-.007-22.45-.005-2.029.004-4.07 2.874-3.75 2.16.241 5.412-1.41 5.526 2.884.022.827-.165 1.917.859 2.28 1.155.41 1.404-.79 1.888-1.423a7.05 7.05 0 0 1 3.354-2.743c1.455-.442 3.083-1.832 4.507-.44 1.245 1.218.543 3.077.544 4.65.001 2.147-1.747 1.88-3.158 2.165-6.272 1.267-7.869 3.31-7.973 10.983q-.205 15.184.009 30.371c.047 3.24-1.012 4.309-4.302 4.328-3.402.02-4.255-1.247-4.18-4.407.18-7.48.058-14.965.059-22.448zm224.59.076c0-7.337-.019-14.675.013-22.013.008-1.98-.525-4.487 2.786-4.267 2.353.156 5.741-1.291 5.619 3.26-.019.692-.05 1.585.768 1.893 1.18.444 1.437-.719 1.915-1.352a7.142 7.142 0 0 1 3.333-2.773c1.459-.47 3.088-1.817 4.527-.51 1.304 1.184.567 3.062.592 4.634.035 2.135-1.668 1.935-3.103 2.223-6.339 1.271-7.923 3.272-8.032 10.927q-.216 15.187.004 30.379c.043 3.177-.898 4.39-4.25 4.388-3.311 0-4.342-1.086-4.259-4.335.191-7.48.06-14.968.06-22.453zm-199.046.175c0-7.633.104-15.268-.051-22.898-.062-3.06 1.311-3.683 4.002-3.65 2.656.034 4.486.206 4.461 3.675q-.163 22.897.036 45.797c.03 3.5-1.887 3.584-4.505 3.63-2.702.049-4.056-.606-3.995-3.656.154-7.63.051-15.265.052-22.898zm466.353.225c0 7.484-.113 14.97.052 22.45.07 3.244-1.372 3.897-4.257 3.9-2.894.002-4.247-.648-4.218-3.904q.199-22.669-.001-45.341c-.03-3.265 1.334-3.896 4.22-3.896 2.888 0 4.325.659 4.255 3.901-.163 7.627-.052 15.26-.052 22.89zm-4.103-46.25c3.138-.437 4.968.217 4.873 4.067-.08 3.222-.974 4.463-4.27 4.27-2.76-.162-5.198.201-5.107-3.921.073-3.358.983-5.042 4.504-4.417zm-457.596.004c3.561-.639 4.39 1.033 4.482 4.408.116 4.185-2.329 3.748-5.056 3.92-3.273.205-4.27-1.031-4.323-4.258-.061-3.785 1.759-4.532 4.897-4.07z" class="cls-1"/></svg>