<svg xmlns="http://www.w3.org/2000/svg" role="img" viewBox="3.75 11.00 416.00 212.00"><title>genie logo</title><path fill="#d82028" d="M66.85 120.177c-6 1.1-12.1 1.4-18.5 2.2l-19.3-56.6v59c-6 .6-11.5 1.5-17.2 2.3v-108.1h16l22 61.3v-61.3h17v101.2zm33.3-61.6c6.5 0 16.6-.3 22.6-.3v16.9c-7.5 0-16.3 0-22.6.3v25.1c9.9-.6 19.8-1.5 29.9-1.8v16.3l-46.8 3.7v-99.8h46.8v16.9h-29.9zm92.6-22.7h-17.5v77.7c-5.7 0-11.4 0-16.9.2v-77.9h-17.5v-16.9h51.9zm27.5 21.6h23.1v16.9h-23.1v38.3h-16.6v-93.7h47.2v16.9h-30.6zm58.1 40.4c9.6.2 19.3 1 28.7 1.5v16.7c-15.1-1-30.2-1.9-45.6-2.2v-94.9h16.9v78.9zm42.9 19.3c5.4.3 11.1.6 16.6 1.3v-99.5h-16.6zm90.6-98.2l-21.4 51.4 21.4 56.7c-6.3-.8-12.7-2-19-3.1l-12.1-31.2-12.4 28.8c-6.1-1.1-12-1.4-18.2-2.2l21.7-49.5-19.6-50.8h18.2l11.1 28.4 11.8-28.4 18.5-.1z"/><path d="M136.953 158.333a12.628 12.628 0 0 1 6.19 5.829v-5.793h10.258v38.151q0 7.786-2.62 11.734-4.502 6.788-17.267 6.789-7.712 0-12.582-3.026a11.165 11.165 0 0 1-5.387-9.04h11.438a4.734 4.734 0 0 0 1.44 2.657q1.696 1.44 5.718 1.44 5.682 0 7.601-3.802 1.254-2.434 1.254-8.19v-2.583a12.82 12.82 0 0 1-3.247 3.874 13.052 13.052 0 0 1-8.154 2.398 15.427 15.427 0 0 1-12.378-5.442q-4.631-5.442-4.631-14.74 0-8.967 4.459-15.072 4.458-6.106 12.639-6.107a13.815 13.815 0 0 1 5.27.923zm3.581 28.834q2.536-2.785 2.536-8.873 0-5.719-2.407-8.708a7.854 7.854 0 0 0-6.447-2.988 7.6 7.6 0 0 0-7.606 5.202 18.509 18.509 0 0 0-1.103 6.826 15.626 15.626 0 0 0 1.176 6.235 7.663 7.663 0 0 0 7.642 5.092 8.074 8.074 0 0 0 6.21-2.786zm48.889-27.983a16.349 16.349 0 0 1 6.95 5.95 19.77 19.77 0 0 1 3.204 8.314 51.396 51.396 0 0 1 .346 7.982h-29.29q.244 6.052 4.205 8.486a10.68 10.68 0 0 0 5.798 1.513 8.166 8.166 0 0 0 8.002-4.613h10.736q-.424 3.58-3.898 7.27-5.404 5.865-15.13 5.866a21.922 21.922 0 0 1-14.166-4.948q-6.137-4.949-6.137-16.102 0-10.45 5.54-16.026 5.54-5.575 14.382-5.576a22.887 22.887 0 0 1 9.458 1.884zm-15.732 9.084a10.927 10.927 0 0 0-2.801 6.225h18.117a8.774 8.774 0 0 0-2.802-6.354 9.216 9.216 0 0 0-6.236-2.168 8.339 8.339 0 0 0-6.278 2.297zm63.981-7.592q3.95 3.265 3.95 10.829v27.082h-10.774v-24.463a11.22 11.22 0 0 0-.844-4.87q-1.538-3.1-5.86-3.1-5.31 0-7.288 4.54a15.691 15.691 0 0 0-1.026 6.123v21.77h-10.515v-40.144h10.183v5.866a17.869 17.869 0 0 1 3.82-4.463 13.238 13.238 0 0 1 8.194-2.436 15.421 15.421 0 0 1 10.16 3.266zm24.538-7.103h-10.664v-9.704h10.663zm-10.664 4.796h10.663v40.218h-10.663zm47.054.815a16.353 16.353 0 0 1 6.95 5.95 19.782 19.782 0 0 1 3.204 8.314 51.384 51.384 0 0 1 .347 7.982h-29.292q.245 6.052 4.206 8.486a10.68 10.68 0 0 0 5.798 1.513 8.166 8.166 0 0 0 8.003-4.613h10.736q-.425 3.58-3.898 7.27-5.404 5.865-15.131 5.866a21.923 21.923 0 0 1-14.166-4.948q-6.138-4.949-6.137-16.102 0-10.45 5.54-16.026 5.54-5.575 14.382-5.576a22.889 22.889 0 0 1 9.458 1.884zm-15.732 9.084a10.924 10.924 0 0 0-2.8 6.225h18.116a8.773 8.773 0 0 0-2.802-6.354 9.213 9.213 0 0 0-6.236-2.168 8.34 8.34 0 0 0-6.278 2.297z"/></svg>