<svg xmlns="http://www.w3.org/2000/svg" role="img" xmlns:xlink="http://www.w3.org/1999/xlink" viewBox="12.61 10.23 150.28 43.53"><title>Gluon-NLP logo</title><defs><symbol id="a" overflow="visible"><path d="M5.219-2.516v-21.968H2.703V0H13.97v-2.516zm0 0"/></symbol><symbol id="b" overflow="visible"><path d="M20.406-8.094v-16.39h-2.515v16.75c0 1-.172 1.828-.532 2.515-1.047 2.016-3.062 3.016-6.062 3.016-1.938 0-3.485-.422-4.64-1.281-1.329-.985-1.97-2.391-1.97-4.25v-16.75h-2.53v16.39c0 2.656.874 4.75 2.593 6.25C6.375-.39 8.563.328 11.297.328c2.703 0 4.86-.719 6.515-2.172 1.735-1.5 2.594-3.593 2.594-6.25zm0 0"/></symbol><symbol id="c" overflow="visible"><path d="M24.266-12.313c0 2.813-1.016 5.188-2.953 7.126-1.985 1.984-4.36 2.953-7.125 2.953-2.782 0-5.157-.97-7.094-2.954C5.109-7.125 4.14-9.5 4.14-12.313c0-2.734.968-5.109 2.953-7.093 1.937-1.938 4.312-2.953 7.093-2.953 2.766 0 5.141 1.015 7.126 2.953 1.937 1.984 2.953 4.36 2.953 7.093zm2.515 0c0-1.734-.36-3.343-1-4.89a12.738 12.738 0 0 0-2.703-4 13.488 13.488 0 0 0-4-2.672c-1.547-.64-3.172-1-4.89-1-1.735 0-3.391.36-4.907 1a13.414 13.414 0 0 0-3.984 2.672 12.48 12.48 0 0 0-2.703 4c-.656 1.547-.969 3.156-.969 4.89 0 1.735.313 3.391.969 4.891A12.12 12.12 0 0 0 5.297-3.39 12.414 12.414 0 0 0 9.28-.687c1.516.656 3.172.968 4.906.968 1.72 0 3.344-.312 4.891-.969a12.48 12.48 0 0 0 4-2.703c1.156-1.14 2.047-2.484 2.703-4.03.64-1.5 1-3.157 1-4.891zm0 0"/></symbol><symbol id="d" overflow="visible"><path d="M5.219-18.031l13.75 19.547v-26h-2.516v18L2.703-26.031V0H5.22zm0 0"/></symbol><symbol id="e" overflow="visible"><path d="M26.86-11.453H14.11v2.203h9.937c-.75 2.125-2.016 3.844-3.813 5.11-1.797 1.296-3.812 1.906-6.015 1.906-2.813 0-5.188-.97-7.156-2.954-1.954-1.968-2.922-4.39-2.922-7.156 0-2.781.968-5.156 2.953-7.125 1.937-1.953 4.312-2.953 7.125-2.953 2.094 0 4 .61 5.687 1.797 1.735 1.188 2.953 2.734 3.75 4.719h2.657c-.829-2.703-2.375-4.86-4.61-6.516-2.234-1.656-4.812-2.531-7.734-2.531-1.578 0-3.125.36-4.64 1.015a12.12 12.12 0 0 0-4.032 2.704 12.414 12.414 0 0 0-2.703 3.984c-.656 1.547-.969 3.203-.969 4.938 0 1.734.313 3.39.969 4.89A12.12 12.12 0 0 0 5.297-3.39 12.12 12.12 0 0 0 9.328-.687c1.516.656 3.156.968 4.89.968 2.954 0 5.626-.922 8-2.844 2.376-1.937 3.845-4.39 4.391-7.374zm0 0"/></symbol></defs><g fill="#1779be"><use x="60.41" y="44.6" xlink:href="#a"/><use x="80.099" y="44.6" xlink:href="#b"/><use x="107.671" y="44.6" xlink:href="#c"/><use x="141.076" y="44.6" xlink:href="#d"/></g><path fill="#418bc5" d="M47.785 18.727c7.363 7.363 7.363 19.296 0 26.66-7.363 7.363-19.3 7.363-26.664 0-7.36-7.364-7.36-19.297 0-26.66 7.363-7.364 19.3-7.364 26.664 0"/><use x="20.234" y="44.593" fill="#fff" xlink:href="#e"/></svg>