<svg xmlns="http://www.w3.org/2000/svg" role="img" viewBox="-4.93 -4.93 256.36 68.11"><title>Grafana logo</title><defs><linearGradient id="a" x1="26.846" x2="26.846" y1="71.439" y2="18.155" gradientUnits="userSpaceOnUse"><stop offset="0" stop-color="#fff200"/><stop offset="1" stop-color="#f15a29"/></linearGradient></defs><g data-name="Layer 1"><path fill="#5d5e5e" d="M100.853 31.465a18.519 18.519 0 0 1-18.407 18.106c-10.533 0-18.357-8.526-18.357-18.808a18.933 18.933 0 0 1 18.808-18.908 19.266 19.266 0 0 1 13.09 5.617l-3.009 3.712c-2.959-2.558-6.52-4.314-10.081-4.314a13.87 13.87 0 0 0-13.792 13.893c0 7.774 5.868 13.793 13.341 13.793a13.227 13.227 0 0 0 13.04-11.235H80.239v-4.464h20.614zm17.501-2.457h-2.809a5.617 5.617 0 0 0-5.617 5.617V49.27h-5.015V24.193h4.112v2.106a8.35 8.35 0 0 1 5.918-2.106h5.417zm27.333 20.262h-4.263v-3.16a12.305 12.305 0 0 1-13.763 2.454 12.913 12.913 0 0 1 5.136-24.772 12.052 12.052 0 0 1 8.576 3.56v-3.16h4.314zm-5.13-10.735a7.899 7.899 0 1 0-6.306 5.95 7.896 7.896 0 0 0 6.305-5.95zm15.239-15.747v1.405h7.975v4.414h-7.975V49.27h-4.965V22.94c0-5.517 3.962-8.777 8.927-8.777h6.019l-2.006 4.714h-4.013a3.928 3.928 0 0 0-3.962 3.912zm34.555 26.482h-4.263v-3.16a12.305 12.305 0 0 1-13.762 2.454 12.913 12.913 0 0 1 5.136-24.772 12.052 12.052 0 0 1 8.576 3.56v-3.16h4.313zm-5.13-10.735a7.899 7.899 0 1 0-6.306 5.95 7.896 7.896 0 0 0 6.306-5.95zm31.921-4.11V49.27h-5.015V34.425a5.643 5.643 0 0 0-11.285 0V49.27h-5.016V24.193h4.163v2.156a10.18 10.18 0 0 1 6.72-2.557 10.5 10.5 0 0 1 10.433 10.633zm29.489 14.845h-4.263v-3.16a12.305 12.305 0 0 1-13.762 2.454 12.913 12.913 0 0 1 5.136-24.772 12.052 12.052 0 0 1 8.576 3.56v-3.16h4.313zm-5.13-10.735a7.899 7.899 0 1 0-6.306 5.95 7.896 7.896 0 0 0 6.306-5.95z"/><path fill="url(#a)" d="M53.618 25.733a20.164 20.164 0 0 0-.586-3.355 20.908 20.908 0 0 0-1.509-4.02 22.039 22.039 0 0 0-4.344-5.945 8.489 8.489 0 0 0-1-6.09 9 9 0 0 0-5.875 1.511q-.185-.08-.373-.156a22.64 22.64 0 0 0-1.648-.598 24.8 24.8 0 0 0-1.731-.481q-.885-.207-1.805-.35l-.322-.046A10.909 10.909 0 0 0 29.13 0a11.635 11.635 0 0 0-5.216 6.67s-.02.085-.047.23a22.09 22.09 0 0 0-.728.216c-.337.101-.669.226-1.003.346-.332.13-.666.258-.996.404a21.012 21.012 0 0 0-1.958.963c-.622.35-1.233.733-1.827 1.148-.085-.04-.153-.069-.153-.069a15.128 15.128 0 0 0-11.458.47 16.594 16.594 0 0 0 3.001 11.263q-.214.599-.402 1.208a27.983 27.983 0 0 0-.992 4.516c-.03.223-.057.447-.081.672A15.004 15.004 0 0 0 0 36.482a15.987 15.987 0 0 0 10.137 5.716l.015-.013a24.082 24.082 0 0 0 2.4 3.515q.568.689 1.188 1.334a12.611 12.611 0 0 0 .24 8.941 14.537 14.537 0 0 0 9.354-2.852c.52.175 1.044.332 1.574.47a23.79 23.79 0 0 0 4.88.726q.614.027 1.227.023h.198l.13-.004.259-.008.255-.012.006.008a10.485 10.485 0 0 0 6.772 3.997 10.794 10.794 0 0 0 3.247-7.144v-.046l-.003-.097a3.746 3.746 0 0 0-.009-.149 19.503 19.503 0 0 0 1.84-1.46 19.226 19.226 0 0 0 3.194-3.742c.084-.128.165-.258.246-.388a8.594 8.594 0 0 0 5.925-2.15 9.034 9.034 0 0 0-3.07-5.722l-.044-.033-.04-.03a1.907 1.907 0 0 0-.075-.048c.02-.218.04-.436.053-.654.026-.39.035-.78.038-1.17l-.003-.29-.002-.146-.001-.073-.003-.1-.01-.243-.02-.328c-.006-.116-.015-.212-.024-.313-.009-.1-.017-.201-.03-.301l-.034-.3-.042-.3c-.06-.399-.136-.793-.225-1.184a14.983 14.983 0 0 0-4.71-7.876 14.798 14.798 0 0 0-3.72-2.392 14.475 14.475 0 0 0-4.106-1.157 14.702 14.702 0 0 0-2.068-.118l-.256.006-.063.002c-.017 0-.097.002-.088.003l-.106.006-.254.017a5.12 5.12 0 0 0-.28.023q-.528.05-1.046.147a11.584 11.584 0 0 0-6.77 3.954 11.436 11.436 0 0 0-1.87 3.156 11.223 11.223 0 0 0-.743 3.377 10.723 10.723 0 0 0-.014 1.036l.009.224.03.4a9.016 9.016 0 0 0 .31 1.63 8.783 8.783 0 0 0 1.384 2.794 8.668 8.668 0 0 0 2.07 1.988 8.437 8.437 0 0 0 2.372 1.126 8.232 8.232 0 0 0 2.357.337c.094 0 .187-.003.28-.005.05-.001.1-.005.15-.007l.15-.008.238-.024.069-.008.073-.01.145-.02c.099-.012.184-.031.274-.048a7.191 7.191 0 0 0 .767-.198 6.634 6.634 0 0 0 .923-.385 6.81 6.81 0 0 0 .797-.486q.105-.077.205-.155a.598.598 0 0 0-.659-.994q-.093.051-.19.1a5.524 5.524 0 0 1-.69.283 5.832 5.832 0 0 1-.757.186c-.131.018-.264.039-.4.048-.066.008-.134.01-.203.013-.067.002-.14.008-.2.004l-.196-.003-.245-.012s-.042 0-.01-.001l-.027-.003-.054-.005-.11-.01c-.073-.01-.147-.018-.22-.03a6.462 6.462 0 0 1-1.76-.513 6.33 6.33 0 0 1-1.623-1.066 6.213 6.213 0 0 1-1.27-1.591 5.96 5.96 0 0 1-.689-1.992 5.898 5.898 0 0 1-.069-1.079l.014-.297c0 .027.002-.013.003-.017l.003-.036.006-.073c.003-.048.009-.097.014-.145.02-.195.05-.388.084-.581a7.711 7.711 0 0 1 2.24-4.194 7.94 7.94 0 0 1 .963-.786 7.57 7.57 0 0 1 1.089-.62 7.656 7.656 0 0 1 1.185-.43 7.237 7.237 0 0 1 1.249-.219c.212-.019.425-.027.64-.026.056 0 .098.002.143.003l.173.006.107.003c.044 0 0 .001.02.003l.043.003.172.011a9.73 9.73 0 0 1 3.972 1.192 9.58 9.58 0 0 1 3.892 4.039 9.176 9.176 0 0 1 .883 2.72c.036.237.063.476.084.716l.013.18.009.181c.004.06.004.121.005.181s.004.125.002.171v.156l-.004.175-.02.424a13.144 13.144 0 0 1-.199 1.556c-.052.255-.106.51-.172.762a11.942 11.942 0 0 1-.48 1.488 12.414 12.414 0 0 1-6.362 6.711 12.138 12.138 0 0 1-3.015.925 11.83 11.83 0 0 1-1.576.158l-.098.003-.084.001-.17.003-.259-.001h-.13c.072-.001-.01-.002-.008-.003l-.053-.001q-.425-.01-.848-.042a16.486 16.486 0 0 1-6.443-1.858 16.364 16.364 0 0 1-8.14-10.136 16.078 16.078 0 0 1-.542-3.23l-.012-.204-.004-.051-.001-.045-.003-.09-.007-.18-.002-.045-.001-.061-.002-.127-.003-.253v-.166c0-.13.005-.265.008-.398.022-.538.065-1.09.135-1.645.071-.555.162-1.11.275-1.662.115-.55.249-1.097.402-1.635a21.427 21.427 0 0 1 1.146-3.1 17.192 17.192 0 0 1 3.538-5.106q.538-.525 1.116-.992c.386-.31.787-.597 1.199-.866a13.874 13.874 0 0 1 1.271-.745c.216-.117.44-.22.66-.327l.338-.15a16.321 16.321 0 0 1 1.731-.65l.356-.107c.118-.037.239-.065.358-.099.238-.068.48-.124.721-.183.12-.032.243-.054.364-.08.122-.026.243-.054.365-.077l.368-.066.183-.034.185-.028.37-.056c.136-.022.277-.034.414-.055l.413-.05.261-.026.174-.019.087-.01.103-.006.419-.027.209-.014c-.002 0 .076-.002.01-.003l.044-.002.09-.004.355-.016q.711-.023 1.412.001a19.567 19.567 0 0 1 2.74.306 19.166 19.166 0 0 1 4.976 1.654 19.946 19.946 0 0 1 4.062 2.65l.221.187.215.19c.144.125.28.256.418.384.138.128.27.26.404.388.13.132.261.261.386.395a20.982 20.982 0 0 1 3.429 4.808l.1.192.094.191c.062.128.125.253.182.378.057.126.117.249.171.371l.159.365a22.572 22.572 0 0 1 1.093 3.256.461.461 0 0 0 .909-.103 19.341 19.341 0 0 0-.071-2.072z"/></g></svg>