<svg xmlns="http://www.w3.org/2000/svg" role="img" viewBox="-46.20 13.80 2922.40 659.90"><title>GraphPipe logo</title><defs><style>.cls-4{fill:none}.cls-2{fill:#057791}.cls-3{fill:#f19418}.cls-4{stroke:#f19418;stroke-linecap:round;stroke-linejoin:round;stroke-width:0}</style></defs><path fill="none" d="M456.84 142.29l-1.248 2.63 1.248-2.63zm1541.024 153.63c.002-14.35.253-28.709.1-43.054.152 14.345-.099 28.705-.103 43.055 0 10.884.823 21.872.466 32.71.357-10.838-.466-21.826-.463-32.71zM446.753 149.54q1.767-.73 3.534-1.614-1.767.884-3.534 1.614zm0 0c-15.898 6.577-31.735 3.948-47.53-4.993q-6.203-14.526-12.403-29.053 6.2 14.528 12.391 29.06c15.805 8.935 31.644 11.564 47.542 4.986zm146.259 308.058a56.295 56.295 0 0 0-2.573 19.9 56.3 56.3 0 0 1 2.574-19.9q-102.853-19.631-205.717-39.203 102.888 19.44 205.716 39.203zm16.854-208.413c-6.955-4.432-13.006-9.827-16.893-17.531v.003c3.887 7.701 9.938 13.097 16.893 17.528zM260.17 194.089a85.918 85.918 0 0 1 6.85 16.137v-.001a85.937 85.937 0 0 0-6.85-16.136zm140.695 351.026L386.81 573.58l14.055-28.464zM209.57 437.783l32.037-.197-32.037.197zm2411.15-66.167c-12.114-.001-24.228.046-36.341-.028 12.113.074 24.227.027 36.341.029 12.114 0 24.228.045 36.341-.025-12.113.07-24.227.025-36.34.024z"/><path d="M1011.828 410.756c0-20.6-.686-41.23.258-61.787.562-12.25-2.388-17.224-15.713-16.45a469.973 469.973 0 0 1-59.94-.038c-15.64-1.094-20.632 3.03-20.501 19.576.13 16.421 4.263 23.235 20.905 20.34 3.529-.613 7.292.243 10.883-.152 9-.99 13.034 1.773 12.738 11.841-.678 23.003-.594 46.05-.03 69.058.232 9.437-3.897 14.051-11.878 17.935-40.134 19.53-79.297.968-92.347-45.754a266.7 266.7 0 0 1-3.074-132.976c14.883-64.407 65.82-84.89 120.904-48.333 17.796 11.81 22.208-2.777 29.925-10.308 10.497-10.242-2.645-14.71-7.597-19.326-60.254-56.157-153.86-34.552-186.883 44.467-26.238 62.783-25.45 127.749-4.005 191.73 13.34 39.795 41.898 64.923 84.71 69.87 38.504 4.45 74.392-4.035 107.362-25.22 10.96-7.042 15.369-15.076 14.573-28.146-1.14-18.712-.29-37.545-.29-56.327z" class="cls-2"/><path d="M2066.169 190.438c-35.587-5.245-71.297-2.455-106.99-2.49-12.017-.012-15.47 3.594-15.328 15.487.597 49.671.252 99.354.251 149.033v125.41c0 40.374-.004 39.907 39.932 39.654 11.201-.071 14.68-3.16 14.395-14.316-.697-27.245.559-54.552-.545-81.77-.61-15.003 2.25-21.472 19.357-20.5a159.208 159.208 0 0 0 74.346-13.633c42.695-19.032 64.294-63.106 57.305-116.692-5.96-45.705-34.276-73.041-82.723-80.183zm21.675 134.58c-12.862 29.74-39.405 33.925-67.467 36.538-17.77 1.655-25.326-2.945-22.875-22.147.456-3.57.706-7.165.825-10.778.357-10.838-.466-21.826-.466-32.71.004-14.35.255-28.71.102-43.055q-.033-3.074-.092-6.147-.069-3.512-.18-7.023c-.31-9.631 3.208-13.202 12.581-12.325 5.394.506 10.88-.06 16.316.118 54.989 1.808 83.247 46.68 61.256 97.53zm280.549-47.414c-10.756 5.116-20.69 11.964-31.805 18.49-1.004-2.756-2.244-4.807-2.46-6.962-2.605-25.927-22.478-13.278-34.845-14.57-16.241-1.699-9.367 12.593-9.406 19.688-.5 89.626-.329 179.255-.33 268.884 0 40.133 0 40.133 39.707 37.733a11 11 0 0 1 1.816-.006c8.247.869 10.366-3.602 10.246-10.93-.25-15.136 1.014-30.376-.34-45.394-1.628-18.063 2.712-25.04 23.1-23.704 43.121 2.828 81.904-10.097 103.552-49.978 28.227-52.003 29.67-107.01 3.076-160.308-19.708-39.495-62.231-52.001-102.31-32.943zm58.097 168.383c-13.164 32.299-44.918 46.323-77.496 35.28-8.784-2.978-8.374-8.998-8.37-15.713q.016-30.896.002-61.793-.002-26.354.002-52.707c.02-20.274 9.216-30.62 34.746-39.143 18.483-6.171 33.307-1.37 44.405 14.676 10.347 14.961 13.212 32.164 14.854 49.821 2.215 23.82.983 47.188-8.143 69.579z" class="cls-3"/><path d="M1527.676 280.47c-8.842 4.77-17.134 10.56-27.899 17.26 2.533-28.923-16.618-22.887-32.095-23.855-10.416-.652-13.278 3.044-13.115 13.218.563 35.105.215 70.224.215 105.338 0 64.173.333 128.35-.284 192.517-.122 12.694 3.427 16.354 16.164 16.187 35.117-.46 35.125.138 35.125-35.17v-18.162c0-26.467.001-26.47 25.956-26.407 47.173.115 86.272-15.457 106.424-60.893 20.51-46.242 21.137-94.385 2.118-141.204-19.423-47.814-67.102-63.382-112.609-38.83zm54.615 181.987c-15.721 19.75-45.992 27.472-69.177 18.449-7.699-2.996-7.356-8.426-7.342-14.55q.07-30.903.016-61.807-.001-27.267.004-54.535c.027-19.149 9.254-29.501 33.895-37.774 17.21-5.778 32.127-2.988 43.743 12.01 23.7 30.599 23.102 107.753-1.139 138.207zm298.483-148.731c-10.692-29.04-30.805-42.743-61.775-44.117-26.232-1.163-47.95 9.551-72.036 25.637v-88.92c0-34.27-.026-33.432-33.604-34.464-14.745-.453-17.798 4.281-17.713 18.18.59 97.456.312 194.919.312 292.38 0 35.237.008 34.624 35.209 35.084 12.849.169 16.243-3.695 16.076-16.273-.675-50.84.07-101.699-.552-152.54-.137-11.17 3.55-18.083 12.844-23.474 9.459-5.487 18.936-10.86 29.56-13.536 19.415-4.89 34.448 3.236 41.81 22.051 5.845 14.942 6.902 30.594 6.846 46.384-.126 35.104-.429 70.208-.532 105.312-.094 31.942.001 31.19 32.45 32.104 14.133.398 18.728-3.54 18.66-17.892-.189-39.912 1.836-79.838 1.535-119.747-.17-22.259-1.204-44.751-9.09-66.169zm-479.258 106.432v-78.05c0-1.21.025-2.42-.011-3.63-1.003-33.555-18.186-56.3-50.583-64.29-40.842-10.074-80.33-2.762-118.98 11.7-7.003 2.62-8.03 6.219-6.515 13.687 2.908 14.344 5.41 26.324 24.136 15.812 3.565-2.001 8.07-2.474 12.214-3.269 20.785-3.983 41.572-8.566 62.703-2.036 21.214 6.556 32.502 26.619 26.637 52.71-3.96 17.623-19.92 7.626-30.104 8.394-26.207 1.975-51.757 5.337-74.736 19.02-29.71 17.692-42.443 51.83-32.774 86.604 7.898 28.41 31.29 43.71 66.943 44.676a101.29 101.29 0 0 0 65.906-21.26c8.452-6.426 12.721-7.396 14.516 5.447 3.116 22.305 20.857 8.63 31.65 11.001 12.134 2.667 8.794-8.491 8.866-14.838.31-27.223.132-54.452.132-81.678zm-97.128 64.216q-1.276.09-2.568.116a53.792 53.792 0 0 1-8.693-.532c-15.71-2.237-27.41-10.026-30.354-26.548-3.026-16.99-1.046-32.89 15.722-42.696 20.956-12.257 44.216-10.313 67.12-10.074 5.889.061 6.197 4.57 6.208 8.98.018 6.648.005 13.296.025 19.944a50.745 50.745 0 0 1-47.46 50.81z" class="cls-2"/><path d="M2585.945 404.342c19.952.603 39.935.18 59.904.173q14.524-.01 29.047-.006c46.817 0 47.327-.061 41.688-47.356-4.082-34.235-14.242-66.592-50.057-80.134-49.65-18.772-111.349-6.888-134.353 55.833-15.458 42.149-16.028 85.411-2.836 128.274 7.65 24.853 23.485 43.94 48.656 52.752 45.757 16.02 89.52 6.27 131.754-13.202 13.855-6.387 1.45-16.68 1.006-25.071-.5-9.441-6.634-7.401-12.977-5.434-19.665 6.099-39.59 11.03-60.393 11.154-41.543.25-63.667-22.315-63.545-64.139.026-8.99 2.206-13.143 12.106-12.844zm-11.191-38.347c-7.862-29.175 25.627-65.462 56.02-60.369 23.27 3.9 44.002 38.659 36.472 60.788-1.863 5.476-6.005 5.154-10.185 5.178-12.113.07-24.227.025-36.34.025-12.115-.002-24.229.044-36.342-.029-4.176-.025-8.043.278-9.625-5.593z" class="cls-3"/><path d="M92.026 396.638c6.64-9.137 14.782-10.647 24.74-8.625 24.153 4.904 48.27 10.313 72.657 13.629 16.234 2.208 23.672 8.605 20.446 25.319-.675 3.496-.229 7.209-.3 10.822l32.038-.198-.051-185.578-16.058-.125-15.64-.122c.343 18.014.486 25.666-5.433 30.05q-.317.235-.658.457a16.616 16.616 0 0 1-1.46.848q-.391.202-.807.394c-4.652 2.152-11.776 3.495-22.63 5.552-20.104 3.81-40.351 7.087-60.184 12.014-10.648 2.646-18.75.401-27.949-7.456l104.71-52.884q-4.859-9.314-9.715-18.629c-40.022 19.815-80.118 39.488-120.038 59.514-17.206 8.631-40.92 13.982-49.174 28.123-8.761 15.01-2.266 38.698-3.279 58.553-.5 9.793 2.695 15.05 11.8 19.485 53.71 26.166 107.062 53.066 160.535 79.72q5.068-9.245 10.127-18.49c-34.318-17.338-68.641-34.676-103.677-52.373zm51.713-78.812c17.177-3.206 34.37-6.395 51.411-10.236 10.833-2.442 15.897.064 14.777 12.12a91.936 91.936 0 0 0-.352 6.305c-.152 6.322.202 12.691.204 19.028.001 26.791.006 35.312-11.928 35.676q-.578.017-1.193.01-.875-.01-1.829-.07-.955-.058-1.992-.162-1.037-.104-2.16-.25-1.687-.218-3.576-.524-1.26-.203-2.615-.442c-3.614-.635-7.745-1.448-12.467-2.376-14.768-2.903-29.519-6.028-44.408-8.127-9.003-1.27-11.788-5.3-12.152-14.217-1.277-31.255-1.604-31.158 28.28-36.735zm-78.783 63.892c-9.58-1.098-19.824-6.724-27.283-13.185-7.874-6.82-2.835-18.192-3.202-27.492-.671-16.99 15.678-34.437 30.61-33.837 16.942.68 29.735 17.278 29.733 38.576-.002 19.464-13.839 37.775-29.858 35.938zm1094.2-109.048c-7.006 2.468-12.871 6.707-18.126 11.73-8.549 8.173-16.824 16.632-25.463 25.217-7.499-35.74-7.546-34.772-31.029-35.917-14.012-.683-17.048 3.87-16.904 17.181.688 63.507.308 127.026.308 190.54 0 36.368.01 35.659 36.01 36.125 13.672.178 15.728-5.056 15.562-16.892-.595-42.335-.27-84.683-.222-127.026.035-30.06 31.012-58.214 60.627-55.292 3.24.32 6.622 3.754 9.805-.42 2.218-2.91 6.518-40.929 4.063-42.586-10.92-7.375-22.66-6.878-34.63-2.66zM456.84 142.29l-1.248 2.63 61.07 29.849 20.822 10.177 16.94 8.28 34.85 17.032c-107.123 20.71-208.83 40.377-310.543 60.018-2.367.457-4.785.686-7.19.913-10.872 1.03-11.799 8.392-10.77 16.935 1.368 11.374 9.192 5.11 13.752 4.25q147.72-27.9 295.33-56.383c7.701-1.475 15.415-2.888 23.12-4.334v-.003c-4.696-14.1-3.184-26.982 3.147-38.916q.76-1.432 1.611-2.846a69.924 69.924 0 0 1 4.81-6.962l-133.175-67.04v.001q-6.264 13.198-12.526 26.4zm133.599 335.209a56.295 56.295 0 0 1 2.573-19.901q-102.852-19.631-205.716-39.203-34.296-6.48-68.605-12.885-19.606-3.658-39.218-7.282c-5.356-.99-15.27-10.751-18.641 3.274-3.185 13.247 5.498 15.865 16.052 17.859q145.203 27.436 290.303 55.42c5.675 1.088 11.27 2.597 21.08 4.884l-132.813 65.452 13.879 28.482 133.84-67.105-.002-.001c-7.976-8.89-12.077-18.583-12.732-28.994z" class="cls-2"/><path d="M2236.727 309.764c0-36.34-.001-35.865-35.955-35.991-11.55-.041-15.657 2.744-15.376 14.971.807 35.09.285 70.212.284 105.321v88.984c0 34.53.012 33.858 34.046 34.517 13.494.261 17.489-3.341 17.328-17.126-.741-63.551-.327-127.116-.327-190.676z" class="cls-3"/><path d="M645.288 437.502l-.124-185.384-30.355-.002-.07 185.47 30.549-.084zm-378.344 41.395a82.569 82.569 0 0 1-14.14 28.025L386.81 573.58l14.055-28.464-133.921-66.218zm-6.774-284.808a85.937 85.937 0 0 1 6.85 16.136q66.091-32.832 132.191-65.672-6.185-14.535-12.39-29.06l-133.74 66.928a177.7 177.7 0 0 1 4.19 6.598q1.507 2.506 2.9 5.07z" class="cls-2"/><path d="M446.753 149.54q1.767-.731 3.534-1.614a60.379 60.379 0 0 0 5.305-3.006l1.248-2.629 12.525-26.402h.001c-2.396-28.098-18.533-45.328-42.022-44.865-22.652.446-38.36 17.683-40.524 44.47q6.2 14.528 12.402 29.053c15.796 8.94 31.633 11.57 47.531 4.993zm-38.075-37.9c.498-11.823 8.606-18.906 20.191-18.531 11.831.383 17.448 8.9 19.214 19.55-2.616 11.896-8.896 19.838-20.838 19.129-11.566-.687-19.065-8.327-18.567-20.148z" class="cls-3"/><path d="M456.84 142.29q6.262-13.2 12.526-26.399v-.001h-.001l-12.525 26.4zm139.28 50.448c-6.33 11.933-7.842 24.814-3.147 38.916 3.887 7.704 9.938 13.1 16.893 17.531a95.643 95.643 0 0 0 4.943 2.93l30.356.003c25.068-15.224 33.047-39.397 19.873-60.213-13.757-21.739-37.86-25.2-62.497-8.975a69.924 69.924 0 0 0-4.81 6.962q-.851 1.414-1.611 2.846zm34.981 1.61c11.65.23 17.709 7.706 17.952 18.693.272 12.248-7.694 18.15-18.783 20.4-11.342-2.529-19.62-7.986-19.15-20.542.46-12.291 7.878-18.789 19.981-18.55z" class="cls-3"/><path d="M596.12 192.738c-6.331 11.934-7.843 24.815-3.147 38.915-4.695-14.1-3.184-26.982 3.147-38.915z" class="cls-3"/><path d="M596.12 192.738q.76-1.432 1.611-2.846" class="cls-4"/><path d="M209.858 251.76l15.64.122 16.058.125c7.482-3.796 13.378-8.56 17.606-14.34a39.535 39.535 0 0 0 6.475-13.96 46.666 46.666 0 0 0 1.12-6.48 55.693 55.693 0 0 0 .263-7.002 85.918 85.918 0 0 0-6.85-16.136q-1.387-2.567-2.9-5.07a177.662 177.662 0 0 0-4.189-6.598c-14.646-11.531-30.54-13.939-46.917-4.687-17.128 9.675-22.898 25.305-20.432 44.372q4.854 9.315 9.715 18.629l14.41 11.025zm-2.662-39.903c.836-11.317 7.634-17.853 19.068-17.493 12.224.383 18.189 7.824 18.938 18.647-1.077 13.737-9.061 20.405-20.336 19.842-11.58-.577-18.579-8.7-17.67-20.996zm2.662 39.903l15.64.122-15.64-.122zm191.007 293.355L386.81 573.58c2.083 28.237 17.942 44.987 42.134 44.502 23.283-.466 38.245-16.945 40.389-44.482q-6.939-14.243-13.88-28.482c-18.195-11.639-36.391-12.19-54.588-.002zm26.603 51.427c-11.374-.526-19.36-7.91-18.79-19.907.548-11.534 7.691-19.038 19.878-18.651 12.133.386 17.618 8.519 19.435 19.505-2.305 11.616-8.752 19.598-20.523 19.053zm217.82-159.04l-30.549.083a56.178 56.178 0 0 0-12.277 8.13q-.777.689-1.523 1.412-1.325 1.286-2.545 2.686-1.22 1.401-2.328 2.924a42.693 42.693 0 0 0-3.053 4.86 56.3 56.3 0 0 0-2.574 19.902c.655 10.41 4.758 20.105 12.735 28.995 23.084 16.505 47.56 13.236 61.268-8.183 13.843-21.632 6.525-44.865-19.154-60.809zm-15.975 57.91c-10.802-.34-18.22-7.275-18.275-18.687-.057-11.995 6.787-19.783 18.893-19.9 12.13-.118 18.414 7.584 19.442 19.699-1.287 11.95-8.221 19.258-20.06 18.887z" class="cls-3"/><path d="M590.439 477.499c.655 10.41 4.756 20.105 12.732 28.994l.002.001h.001c-7.977-8.89-12.08-18.584-12.735-28.995z" class="cls-3"/><path d="M614.74 437.585l30.548-.083" class="cls-4"/><path d="M241.607 437.586l-32.037.197q-6.935 5.613-13.865 11.226l.003.001-10.13 18.491h-.002c-1.712 18.753 2.964 34.85 20.49 44.424 16.44 8.982 32.25 6.885 46.739-5.003a82.569 82.569 0 0 0 14.139-28.025c.718-19.39-8.563-32.649-25.337-41.311zm-15.684 57.824c-11.012.172-18.426-6.959-19.057-18.015-.683-11.961 6.257-20.1 18.212-20.587 11.903-.484 18.539 7.098 20.04 17.289-.279 14.275-7.488 21.13-19.195 21.313z" class="cls-3"/><path d="M195.708 449.01h-.005q-5.058 9.245-10.127 18.49l.002.001 10.13-18.49zm2016.848-268.963c-25.476-.245-32.848 5.847-33.015 27.286-.17 21.566 6.374 27.528 30.438 27.736 25.51.221 31.875-5.38 31.77-27.953-.097-20.84-6.579-26.85-29.193-27.069zm607.934 97.772c-.112-3.735-4.144-4.012-7.121-3.615-11.529 1.538-8.236 13.28-13.063 19.497-1.035 1.332-1.416 1.952-4.31-.995-1.074-2.272-3.542-6.415-5.013-10.885-1.742-5.29-4.44-8.327-10.374-7.635-7.885.921-4.894 7.075-5.131 11.205-.45 7.832-.174 15.709-.068 23.565.031 2.332-.006 5.099 3.283 5.421 2.803.276 4.216-1.297 4.798-4.05.708-3.347-1.133-7.395 3.567-10.735 5.256 4.506 3.339 14.395 10.334 14.528 10.143.194 5.647-13.647 13.743-17.026.316 4.92-.201 9.94 1.145 14.397 1.552 5.139 7.276 3.847 7.623.484 1.168-11.292.934-22.77.588-34.156zm-88.372-.139c20.001 4.153 13.1 17.941 14.146 28.716.32 3.303-1.141 8.04 4.348 8.038 4.85-.001 5.088-4.1 5.149-7.836.182-11.262-3.274-23.864 12.47-30.31-12.058-1.872-22.632-3.728-36.113 1.392z" class="cls-3"/><path fill="none" stroke="#fefefe" stroke-linecap="round" stroke-linejoin="round" stroke-width="0" d="M1304.388 484.374q-1.276.09-2.568.116m-703.426-34.677q-1.22 1.402-2.328 2.924m6.396-7.022q-.777.689-1.523 1.412m-404.281-66.398q.616.007 1.193-.01m5.916-98.452q.34-.222.658-.457m-2.119 1.305q-.39.202-.806.394"/></svg>