<svg xmlns="http://www.w3.org/2000/svg" role="img" viewBox="-20.00 -20.00 1040.00 395.00"><title>GRAVITI TECHNOLOGIES INC logo</title><style>svg {enable-background:new 0 0 1000.1 356.1}</style><path fill="#6c47f2" d="M746 232l-32.2-79.1H693l48.9 119.4h7.9l49.7-119.4h-20.8zm-102.1-38.8l32.2 79.1h20.8l-49-119.4H640l-49.7 119.4h20.8zM823 152.9h19.4v119.4H823zm157.7 0h19.4v119.4h-19.4zm-411.6 37.2c0-20.5-16.7-37.2-37.2-37.2h-48.5v119.4h18v-45h31.4l20.2 44.9h19.8l-22.6-49.9c11.7-6.7 18.9-19 18.9-32.2zm-18 0c0 10.6-8.6 19.2-19.2 19.2H501.5v-38.4H532c10.5 0 19.1 8.6 19.1 19.2zm316.5-19.2h33.1v101.4h19.4V170.9h33.1v-18h-85.6zm-457.2 57.4h33.4c-1 6.6-4.1 12.6-8.9 17.4-5.7 5.5-13.2 8.6-21.1 8.6-16.8 0-30.4-13.7-30.4-30.4v-22.5c0-5 1.2-9.7 3.4-13.9l1.3-2.1c5.4-8.6 14.5-13.9 24.6-14.4h1.2c10.6 0 20.2 5.4 25.8 14.4l1.4 2.2c.1.2.3.5.4.7h19.2c-.9-3.4-2.2-6.6-3.9-9.6l-.1-.1c-8.2-15.2-24.3-25.6-42.7-25.6h-.1-.1c-18.5 0-34.6 10.4-42.7 25.6l-.1.1c-3.6 6.8-5.7 14.5-5.7 22.7v22.5c0 26.7 21.7 48.4 48.4 48.4 12.7 0 24.7-4.9 33.8-13.8 8.1-7.9 13-18.2 14.3-29.3v-18.9h-51.4v18z"/><path fill="#5570ef" d="M115.1 51.2c-2.7 4.1-3.7 8.7-3.2 13.2.6 5.7 3.6 11.1 8.7 14.6.3.2.5.4.8.6 9.7 6.1 22.6 3.3 28.9-6.2l27.4-41.8c2.7-4.1 3.7-8.7 3.2-13.2-.6-6-3.9-11.6-9.4-15.1-9.7-6.1-22.6-3.3-28.9 6.2l-25.7 39.1-1.8 2.6zm128.5 111.6c-2.7 4.1-3.7 8.7-3.2 13.2.6 5.7 3.6 11.1 8.7 14.5.3.2.5.4.8.6 9.7 6.1 22.6 3.3 28.9-6.2l27.4-41.8c2.7-4.1 3.7-8.7 3.2-13.2-.6-6-3.9-11.6-9.4-15.1-9.7-6.1-22.6-3.3-28.9 6.2l-25.7 39.1-1.8 2.7z"/><linearGradient id="SVGID_1_" x1="-787.909" x2="-562.291" y1="791.628" y2="791.628" gradientTransform="rotate(33.922 667.726 1824.543)" gradientUnits="userSpaceOnUse"><stop offset="0" stop-color="#5570ef"/><stop offset=".061" stop-color="#586bef"/><stop offset=".375" stop-color="#6357f1"/><stop offset=".688" stop-color="#6a4bf2"/><stop offset="1" stop-color="#6c47f2"/></linearGradient><path fill="url(#SVGID_1_)" d="M225.8 277.4c2.2-3.8 3.8-7.7 5-11.7 2.7-9.1 2.9-18.7.9-27.8v-.1c-3.1-12.8-10.7-24.7-22.6-32.7l-.9-.6c-2.3-1.5-4.6-2.8-7-3.9-1-.4-6-2.6-7.4-3.6l-.4-.3c-.4-.2-.8-.5-1.2-.7-7.4-5-9.4-15.1-4.4-22.5l28.4-42.2c3.6-5.4 4.7-11.7 3.6-17.6-.6-3-1.8-6-3.5-8.6-1.6-2.5-3.8-4.6-6.4-6.4-10.2-6.9-24-4.6-31.5 4.9-.4.5-.7.9-1 1.4L93.8 229.2l-.9 1.5c-6 10.6-2.9 24.1 7.3 31 3.7 2.5 7.8 3.8 12 4 7.9.4 15.8-3.3 20.5-10.3l9.2-13.7c5-7.4 15.1-9.4 22.5-4.4 1 .7 2 1.5 2.8 2.4.1 0 .1.1.2.1 0 0 .1 0 .1.1 2 2.2 3.3 4.9 3.8 7.7.8 4.1 0 8.4-2.5 12.1l-14.8 22-.2.2c-3.3 3.5-7 6.6-10.9 9.1h-.1c-.1.1-.2.1-.3.2-10.3 6.5-22.5 9.4-34.5 8.5-9.3-.8-18.6-3.9-26.9-9.5-22.2-15-30.3-42.9-21.1-66.9 1.6-3.9 3.5-7.7 5.9-11.4L83 186.6l26.7-39.4 7.5-11.1c.8-1.6 1.4-3.3 1.8-5.1 1.1-4 1.2-8.3.3-12.3-1.4-7.1-5.5-13.7-12-18-13-8.8-30.5-5.4-39.3 7.4l-5.2 7.7-26.7 39.4-15.6 23-1.5 2.2c-34.5 51.4-21 121.5 30.5 156.4C82.5 359 123 361.5 157 347c13.3-5.7 25.6-14 36.1-24.7 4.2-4.3 8.2-9 11.7-14.1.1-.2.3-.3.4-.5l16-23.5.1-.2 2.4-3.3c.7-1 1.4-2.2 2.1-3.3z"/></svg>