<svg xmlns="http://www.w3.org/2000/svg" role="img" viewBox="33.19 33.44 185.38 53.88"><title>Haystack logo</title><path fill="#03af9d" d="M40.56 37h29.88A3.56 3.56 0 0 1 74 40.56v39.88A3.56 3.56 0 0 1 70.44 84H40.56A3.56 3.56 0 0 1 37 80.44V40.56A3.56 3.56 0 0 1 40.56 37z"/><path fill="#fff" d="M44 55.52a11.5 11.5 0 1 1 23 0v17a.5.5 0 0 1-.5.5A4.5 4.5 0 0 1 62 68.5v-13a6.5 6.5 0 1 0-13 0v5a.49.49 0 0 0 .49.5h3a.5.5 0 0 0 .51-.5v-4a2.5 2.5 0 0 1 5 0v20a.51.51 0 0 1-.52.5A4.48 4.48 0 0 1 53 72.5v-6a.51.51 0 0 0-.51-.5h-3a.49.49 0 0 0-.49.5v2a4.5 4.5 0 0 1-4.5 4.5.5.5 0 0 1-.5-.5zm54.91-7.34a4.9 4.9 0 0 0-4.53 2.63v-8.69a.43.43 0 0 0-.46-.46h-3.3a.43.43 0 0 0-.46.46v21a.43.43 0 0 0 .46.46h3.3a.43.43 0 0 0 .46-.46v-7.81c0-2.11 1.16-3.24 2.94-3.24s2.78 1.13 2.78 3.24v7.77a.44.44 0 0 0 .46.46h3.28a.46.46 0 0 0 .49-.46v-8.72c0-3.92-2.33-6.18-5.42-6.18zm14.78 15.73a5.63 5.63 0 0 0 4.9-2.48l.06 1.65a.43.43 0 0 0 .46.46h3a.45.45 0 0 0 .49-.46V49a.43.43 0 0 0-.45-.46h-3a.43.43 0 0 0-.46.46l-.06 1.65a5.49 5.49 0 0 0-4.9-2.48c-4.22 0-7.13 3.43-7.13 7.86s2.87 7.88 7.09 7.88zm.89-3.86a4 4 0 0 1 0-8 3.71 3.71 0 0 1 3.79 4 3.7 3.7 0 0 1-3.79 4zm17 9.3a.56.56 0 0 0 .55-.36l7.92-19.92c.13-.34 0-.52-.36-.52h-3.37a.56.56 0 0 0-.55.36l-3.55 9.73-3.58-9.73a.56.56 0 0 0-.55-.36h-3.37c-.33 0-.49.18-.36.52l5.78 14.5-2.14 5.26c-.16.34 0 .52.36.52zm15.09-5.44c3 0 5.6-1.56 5.63-4.59 0-2.3-1.47-3.58-3.36-4.35l-2.12-.82c-.82-.31-1.43-.74-1.43-1.47s.45-1.2 1.43-1.2a4.3 4.3 0 0 1 2.73 1.26c.27.21.49.24.7 0l1.35-1.62a.49.49 0 0 0 0-.65 6.44 6.44 0 0 0-5-2.29c-2.78 0-5.23 1.65-5.23 4.53 0 2.08 1.34 3.33 3.27 4.1l1.9.76c1.1.46 1.56.83 1.56 1.56s-.67 1.26-1.68 1.26a5.7 5.7 0 0 1-3.42-1.47.47.47 0 0 0-.77.12l-1.07 1.5a.76.76 0 0 0-.06.89 7.16 7.16 0 0 0 5.62 2.48zm14 0c1 0 2.54-.19 2.54-.89v-2.23c0-.31-.22-.46-.55-.43s-.68 0-.95 0a1.2 1.2 0 0 1-1.32-1.32v-7.22h2.36a.44.44 0 0 0 .46-.46V49a.44.44 0 0 0-.46-.46h-2.36V45a.43.43 0 0 0-.46-.46h-3.33a.43.43 0 0 0-.46.46v3.52h-1.9a.43.43 0 0 0-.46.46v2.35a.43.43 0 0 0 .46.46h1.9v7.71c.06 3.31 2.2 4.41 4.59 4.41zm11.45 0a5.63 5.63 0 0 0 4.9-2.48l.06 1.65a.43.43 0 0 0 .46.46h3a.45.45 0 0 0 .49-.46V49a.43.43 0 0 0-.45-.46h-3a.43.43 0 0 0-.46.46l-.06 1.65a5.48 5.48 0 0 0-4.9-2.48c-4.22 0-7.13 3.43-7.13 7.86s2.97 7.88 7.15 7.88zm.89-3.86a4 4 0 0 1 0-8 3.71 3.71 0 0 1 3.79 4 3.7 3.7 0 0 1-3.73 4zm18.79 3.86a7.17 7.17 0 0 0 5.76-2.7.44.44 0 0 0-.07-.64l-1.83-1.8a.54.54 0 0 0-.8 0 3.85 3.85 0 0 1-2.81 1.23 3.9 3.9 0 0 1-4-4 3.78 3.78 0 0 1 3.95-3.93 3.85 3.85 0 0 1 2.94 1.25.56.56 0 0 0 .8 0l1.83-1.81a.43.43 0 0 0 .06-.64 7.19 7.19 0 0 0-5.81-2.69 7.63 7.63 0 0 0-7.83 7.8 7.74 7.74 0 0 0 7.87 7.93zm12.5-.37a.43.43 0 0 0 .46-.46V59.9l1.87-2.11 4 5.47a.57.57 0 0 0 .55.28h3.55c.37 0 .49-.24.27-.55l-5.87-8.11 5.08-5.78c.24-.31.15-.55-.25-.55h-3.66a.67.67 0 0 0-.55.24l-4.93 5.81V42.12a.43.43 0 0 0-.46-.46H201a.43.43 0 0 0-.46.46v21a.43.43 0 0 0 .46.46z"/><path fill="#2b2f55" d="M98.91 48.18a4.9 4.9 0 0 0-4.53 2.63v-8.69a.43.43 0 0 0-.46-.46h-3.3a.43.43 0 0 0-.46.46v21a.43.43 0 0 0 .46.46h3.3a.43.43 0 0 0 .46-.46v-7.81c0-2.11 1.16-3.24 2.94-3.24s2.78 1.13 2.78 3.24v7.77a.44.44 0 0 0 .46.46h3.28a.46.46 0 0 0 .49-.46v-8.72c0-3.92-2.33-6.18-5.42-6.18zm14.78 15.73a5.63 5.63 0 0 0 4.9-2.48l.06 1.65a.43.43 0 0 0 .46.46h3a.45.45 0 0 0 .49-.46V49a.43.43 0 0 0-.45-.46h-3a.43.43 0 0 0-.46.46l-.06 1.65a5.49 5.49 0 0 0-4.9-2.48c-4.22 0-7.13 3.43-7.13 7.86s2.87 7.88 7.09 7.88zm.89-3.86a4 4 0 0 1 0-8 3.71 3.71 0 0 1 3.79 4 3.7 3.7 0 0 1-3.79 4zm17 9.3a.56.56 0 0 0 .55-.36l7.92-19.92c.13-.34 0-.52-.36-.52h-3.37a.56.56 0 0 0-.55.36l-3.55 9.73-3.58-9.73a.56.56 0 0 0-.55-.36h-3.37c-.33 0-.49.18-.36.52l5.78 14.5-2.14 5.26c-.16.34 0 .52.36.52zm15.09-5.44c3 0 5.6-1.56 5.63-4.59 0-2.3-1.47-3.58-3.36-4.35l-2.12-.82c-.82-.31-1.43-.74-1.43-1.47s.45-1.2 1.43-1.2a4.3 4.3 0 0 1 2.73 1.26c.27.21.49.24.7 0l1.35-1.62a.49.49 0 0 0 0-.65 6.44 6.44 0 0 0-5-2.29c-2.78 0-5.23 1.65-5.23 4.53 0 2.08 1.34 3.33 3.27 4.1l1.9.76c1.1.46 1.56.83 1.56 1.56s-.67 1.26-1.68 1.26a5.7 5.7 0 0 1-3.42-1.47.47.47 0 0 0-.77.12l-1.07 1.5a.76.76 0 0 0-.06.89 7.16 7.16 0 0 0 5.62 2.48zm14 0c1 0 2.54-.19 2.54-.89v-2.23c0-.31-.22-.46-.55-.43s-.68 0-.95 0a1.2 1.2 0 0 1-1.32-1.32v-7.22h2.36a.44.44 0 0 0 .46-.46V49a.44.44 0 0 0-.46-.46h-2.36V45a.43.43 0 0 0-.46-.46h-3.33a.43.43 0 0 0-.46.46v3.52h-1.9a.43.43 0 0 0-.46.46v2.35a.43.43 0 0 0 .46.46h1.9v7.71c.06 3.31 2.2 4.41 4.59 4.41zm11.45 0a5.63 5.63 0 0 0 4.9-2.48l.06 1.65a.43.43 0 0 0 .46.46h3a.45.45 0 0 0 .49-.46V49a.43.43 0 0 0-.45-.46h-3a.43.43 0 0 0-.46.46l-.06 1.65a5.48 5.48 0 0 0-4.9-2.48c-4.22 0-7.13 3.43-7.13 7.86s2.97 7.88 7.15 7.88zm.89-3.86a4 4 0 0 1 0-8 3.71 3.71 0 0 1 3.79 4 3.7 3.7 0 0 1-3.73 4zm18.79 3.86a7.17 7.17 0 0 0 5.76-2.7.44.44 0 0 0-.07-.64l-1.83-1.8a.54.54 0 0 0-.8 0 3.85 3.85 0 0 1-2.81 1.23 3.9 3.9 0 0 1-4-4 3.78 3.78 0 0 1 3.95-3.93 3.85 3.85 0 0 1 2.94 1.25.56.56 0 0 0 .8 0l1.83-1.81a.43.43 0 0 0 .06-.64 7.19 7.19 0 0 0-5.81-2.69 7.63 7.63 0 0 0-7.83 7.8 7.74 7.74 0 0 0 7.87 7.93zm12.5-.37a.43.43 0 0 0 .46-.46V59.9l1.87-2.11 4 5.47a.57.57 0 0 0 .55.28h3.55c.37 0 .49-.24.27-.55l-5.87-8.11 5.08-5.78c.24-.31.15-.55-.25-.55h-3.66a.67.67 0 0 0-.55.24l-4.93 5.81V42.12a.43.43 0 0 0-.46-.46H201a.43.43 0 0 0-.46.46v21a.43.43 0 0 0 .46.46z"/><path fill="#a0a0c0" d="M94.88 81.26a3.88 3.88 0 0 0 0-7.71 2.7 2.7 0 0 0-2.28 1v-4a.21.21 0 0 0-.22-.23h-1.64a.21.21 0 0 0-.22.23v10.3a.22.22 0 0 0 .24.23h1.47a.21.21 0 0 0 .22-.23v-.81a2.74 2.74 0 0 0 2.43 1.22zm-.43-1.89a2 2 0 0 1 0-3.93 2 2 0 0 1 0 3.93zm7.9 4.56a.27.27 0 0 0 .27-.18l3.89-9.75c.06-.16 0-.25-.18-.25h-1.65a.27.27 0 0 0-.27.18l-1.74 4.77-1.76-4.77a.27.27 0 0 0-.27-.18H99c-.16 0-.24.09-.18.25l2.84 7.11-1.07 2.58c-.07.17 0 .26.18.26zm11.55-2.67a2.76 2.76 0 0 0 2.4-1.26v.81a.21.21 0 0 0 .22.23H118a.23.23 0 0 0 .24-.23V70.58a.22.22 0 0 0-.23-.23h-1.63a.22.22 0 0 0-.23.23v4a2.65 2.65 0 0 0-2.26-1 3.87 3.87 0 0 0 0 7.71zm.43-1.89a2 2 0 0 1 0-3.93 2 2 0 0 1 0 3.93zm9.37 1.89a3.61 3.61 0 0 0 2.6-.93c.14-.12.16-.23.08-.33l-.56-.77a.16.16 0 0 0-.25-.06 3.2 3.2 0 0 1-1.71.45 2 2 0 0 1-2.17-1.44h4.47c.64 0 .81-.4.81-1.12a3.39 3.39 0 0 0-3.53-3.51 3.67 3.67 0 0 0-3.78 3.82 3.81 3.81 0 0 0 4.04 3.89zm-2-4.53a1.7 1.7 0 0 1 1.8-1.47 1.56 1.56 0 0 1 1.66 1.47zm10.3 4.53a3.65 3.65 0 0 0 2.61-.93c.13-.12.15-.23.07-.33l-.55-.77a.18.18 0 0 0-.26-.06 3.2 3.2 0 0 1-1.71.45 2 2 0 0 1-2.16-1.44h4.47c.64 0 .81-.4.81-1.12a3.39 3.39 0 0 0-3.53-3.51 3.67 3.67 0 0 0-3.75 3.82 3.81 3.81 0 0 0 4 3.89zm-2-4.53a1.7 1.7 0 0 1 1.8-1.47 1.56 1.56 0 0 1 1.66 1.47zm8.56 7.2a.21.21 0 0 0 .22-.23v-3.49a2.76 2.76 0 0 0 2.22 1.05 3.88 3.88 0 0 0 0-7.71 2.69 2.69 0 0 0-2.4 1.21v-.81a.21.21 0 0 0-.22-.22h-1.48a.21.21 0 0 0-.22.22v9.75a.21.21 0 0 0 .22.23zm2.07-4.56a2 2 0 0 1 0-3.93 2 2 0 0 1 0 3.93zm7.68 1.89c1.47 0 2.75-.77 2.76-2.25a2.22 2.22 0 0 0-1.65-2.13l-1-.41c-.41-.15-.71-.36-.71-.72s.23-.58.71-.58a2.12 2.12 0 0 1 1.33.61c.14.11.24.12.35 0l.66-.79a.24.24 0 0 0 0-.32 3.16 3.16 0 0 0-2.46-1.12 2.32 2.32 0 0 0-2.56 2.22 2.15 2.15 0 0 0 1.6 2l.93.37c.54.23.77.41.77.77s-.33.61-.83.61a2.76 2.76 0 0 1-1.69-.72.23.23 0 0 0-.38.06l-.52.74a.35.35 0 0 0 0 .43 3.5 3.5 0 0 0 2.67 1.23zm7.82 0a3.63 3.63 0 0 0 2.61-.93c.14-.12.15-.23.08-.33l-.56-.77a.17.17 0 0 0-.25-.06 3.2 3.2 0 0 1-1.71.45 2 2 0 0 1-2.18-1.44h4.47c.65 0 .81-.4.81-1.12a3.39 3.39 0 0 0-3.52-3.51 3.66 3.66 0 0 0-3.78 3.82 3.81 3.81 0 0 0 4.01 3.89zm-2-4.53a1.7 1.7 0 0 1 1.8-1.47 1.56 1.56 0 0 1 1.67 1.47zm9.48 4.53c.5 0 1.25-.09 1.25-.44v-1.09c0-.15-.11-.23-.27-.21h-.47a.58.58 0 0 1-.64-.64v-3.55h1.15a.21.21 0 0 0 .23-.22V74a.21.21 0 0 0-.23-.22h-1.15V72a.21.21 0 0 0-.23-.22h-1.63a.21.21 0 0 0-.23.22v1.73h-.93a.21.21 0 0 0-.22.22v1.16a.21.21 0 0 0 .22.22h.93v3.78a2 2 0 0 0 2.16 2.15z"/><path fill="#a0a0c0" fill-opacity=".3" d="M94.88 81.26a3.88 3.88 0 0 0 0-7.71 2.7 2.7 0 0 0-2.28 1v-4a.21.21 0 0 0-.22-.23h-1.64a.21.21 0 0 0-.22.23v10.3a.22.22 0 0 0 .24.23h1.47a.21.21 0 0 0 .22-.23v-.81a2.74 2.74 0 0 0 2.43 1.22zm-.43-1.89a2 2 0 0 1 0-3.93 2 2 0 0 1 0 3.93zm7.9 4.56a.27.27 0 0 0 .27-.18l3.89-9.75c.06-.16 0-.25-.18-.25h-1.65a.27.27 0 0 0-.27.18l-1.74 4.77-1.76-4.77a.27.27 0 0 0-.27-.18H99c-.16 0-.24.09-.18.25l2.84 7.11-1.07 2.58c-.07.17 0 .26.18.26zm11.55-2.67a2.76 2.76 0 0 0 2.4-1.26v.81a.21.21 0 0 0 .22.23H118a.23.23 0 0 0 .24-.23V70.58a.22.22 0 0 0-.23-.23h-1.63a.22.22 0 0 0-.23.23v4a2.65 2.65 0 0 0-2.26-1 3.87 3.87 0 0 0 0 7.71zm.43-1.89a2 2 0 0 1 0-3.93 2 2 0 0 1 0 3.93zm9.37 1.89a3.61 3.61 0 0 0 2.6-.93c.14-.12.16-.23.08-.33l-.56-.77a.16.16 0 0 0-.25-.06 3.2 3.2 0 0 1-1.71.45 2 2 0 0 1-2.17-1.44h4.47c.64 0 .81-.4.81-1.12a3.39 3.39 0 0 0-3.53-3.51 3.67 3.67 0 0 0-3.78 3.82 3.81 3.81 0 0 0 4.04 3.89zm-2-4.53a1.7 1.7 0 0 1 1.8-1.47 1.56 1.56 0 0 1 1.66 1.47zm10.3 4.53a3.65 3.65 0 0 0 2.61-.93c.13-.12.15-.23.07-.33l-.55-.77a.18.18 0 0 0-.26-.06 3.2 3.2 0 0 1-1.71.45 2 2 0 0 1-2.16-1.44h4.47c.64 0 .81-.4.81-1.12a3.39 3.39 0 0 0-3.53-3.51 3.67 3.67 0 0 0-3.75 3.82 3.81 3.81 0 0 0 4 3.89zm-2-4.53a1.7 1.7 0 0 1 1.8-1.47 1.56 1.56 0 0 1 1.66 1.47zm8.56 7.2a.21.21 0 0 0 .22-.23v-3.49a2.76 2.76 0 0 0 2.22 1.05 3.88 3.88 0 0 0 0-7.71 2.69 2.69 0 0 0-2.4 1.21v-.81a.21.21 0 0 0-.22-.22h-1.48a.21.21 0 0 0-.22.22v9.75a.21.21 0 0 0 .22.23zm2.07-4.56a2 2 0 0 1 0-3.93 2 2 0 0 1 0 3.93zm7.68 1.89c1.47 0 2.75-.77 2.76-2.25a2.22 2.22 0 0 0-1.65-2.13l-1-.41c-.41-.15-.71-.36-.71-.72s.23-.58.71-.58a2.12 2.12 0 0 1 1.33.61c.14.11.24.12.35 0l.66-.79a.24.24 0 0 0 0-.32 3.16 3.16 0 0 0-2.46-1.12 2.32 2.32 0 0 0-2.56 2.22 2.15 2.15 0 0 0 1.6 2l.93.37c.54.23.77.41.77.77s-.33.61-.83.61a2.76 2.76 0 0 1-1.69-.72.23.23 0 0 0-.38.06l-.52.74a.35.35 0 0 0 0 .43 3.5 3.5 0 0 0 2.67 1.23zm7.82 0a3.63 3.63 0 0 0 2.61-.93c.14-.12.15-.23.08-.33l-.56-.77a.17.17 0 0 0-.25-.06 3.2 3.2 0 0 1-1.71.45 2 2 0 0 1-2.18-1.44h4.47c.65 0 .81-.4.81-1.12a3.39 3.39 0 0 0-3.52-3.51 3.66 3.66 0 0 0-3.78 3.82 3.81 3.81 0 0 0 4.01 3.89zm-2-4.53a1.7 1.7 0 0 1 1.8-1.47 1.56 1.56 0 0 1 1.67 1.47zm9.48 4.53c.5 0 1.25-.09 1.25-.44v-1.09c0-.15-.11-.23-.27-.21h-.47a.58.58 0 0 1-.64-.64v-3.55h1.15a.21.21 0 0 0 .23-.22V74a.21.21 0 0 0-.23-.22h-1.15V72a.21.21 0 0 0-.23-.22h-1.63a.21.21 0 0 0-.23.22v1.73h-.93a.21.21 0 0 0-.22.22v1.16a.21.21 0 0 0 .22.22h.93v3.78a2 2 0 0 0 2.16 2.15z"/></svg>