<svg xmlns="http://www.w3.org/2000/svg" role="img" viewBox="0.39 0.39 447.46 64.21"><title>Herron Tech logo</title><path d="M403 32.5V56h9V9h-9v23.5zM9.4 13.3c-.2.7-.3 10.5-.2 21.7l.3 20.5 4.8.3 4.7.3V39h25v17.1l4.8-.3 4.7-.3v-43l-4.7-.3-4.8-.3V29H19V12h-4.5c-2.8 0-4.8.5-5.1 1.3zm266 .1c-.3.8-.4 2.9-.2 4.8l.3 3.3 8.3.3 8.2.3v34l4.8-.3 4.7-.3.3-16.7.2-16.7 7.8-.3 7.7-.3.3-4.8.3-4.7H297c-17.2 0-21.2.3-21.6 1.4zM67.3 23.5c-4.7 2-6.3 6-6.3 15.4 0 9.7 1 12.5 5.2 15.1 2.6 1.6 5.1 2 12.1 2H87v-9h-7.4c-9 0-9.8-.7-9.4-8.7l.3-5.8 8.8-.3c8.1-.3 8.7-.1 8.7 1.7s-.8 2-8.2 2.3l-8.3.3v8l9.4.3c10.7.3 13.3-.7 15.7-6.5 2.6-6.2.1-12.2-6.3-14.9-4.2-1.8-18.8-1.8-23 .1zm41.7.2c-5.8 2.9-7.1 6.9-6.8 20.3l.3 11.5 4.7.3 4.7.3.3-11.8.3-11.8 9.8-.3 9.8-.3-.3-4.7-.3-4.7-9.5-.3c-7.5-.2-10.2.1-13 1.5zm34 0c-5.8 2.9-7.1 6.9-6.8 20.3l.3 11.5 4.7.3 4.7.3.3-11.8.3-11.8 9.8-.3 9.8-.3-.3-4.7-.3-4.7-9.5-.3c-7.5-.2-10.2.1-13 1.5zm36-1c-7.3 2.4-9 5.5-9 16.3 0 14 3.1 17 18 17 15.6 0 19-3 19-16.5 0-14-3.7-17.6-18.2-17.4-4.5 0-9 .3-9.8.6zM197 39v7h-17V32h17v7zm18.8-16c-1.6 1-1.8 2.9-1.8 17v16h9V32h7.3c10.2 0 10.7.7 10.7 13.9v10.2l4.8-.3 4.7-.3V43.8c0-10.2-.3-12-2.1-14.4-4.5-6.1-6.6-6.9-19.2-7.2-7.1-.1-12.4.2-13.4.8zm112.5.5c-4.7 2-6.3 6-6.3 15.4 0 9.7 1 12.5 5.2 15.1 2.6 1.6 5.1 2 12.1 2h8.7v-9h-7.4c-9 0-9.8-.7-9.4-8.7l.3-5.8 8.8-.3c8.1-.3 8.7-.1 8.7 1.7s-.8 2-8.2 2.3l-8.3.3v8l9.4.3c10.7.3 13.3-.7 15.7-6.5 2.6-6.2.1-12.2-6.3-14.9-4.2-1.8-18.8-1.8-23 .1zm42.2-.6c-1.1.5-3.1 2.1-4.5 3.6-2.2 2.3-2.5 3.7-2.8 11.4-.7 15.6 2.2 18.1 20.8 18.1h12.1l-.3-4.8-.3-4.7-11.2-.3-11.3-.3V32h23.1l-.3-4.8-.3-4.7-11.5-.2c-6.3-.1-12.4.2-13.5.6zm42.9.5c-.3.8-.4 2.9-.2 4.8l.3 3.3 8 .5 8 .5.5 11.5.5 11.5h9V42.4c0-14.7-.6-16.2-7.2-19-4.4-1.9-18.2-1.9-18.9 0z"/></svg>