<svg xmlns="http://www.w3.org/2000/svg" role="img" viewBox="-7.59 -5.34 407.68 339.18"><title>High School Technology Services logo</title><style>.st0{fill:#1b4176}.st3{fill:#bd2327}</style><style>.st0{fill:#1b4176}.st3{fill:#bd2327}</style><style>.st0{fill:#1b4176}.st3{fill:#bd2327}</style><style>.st0{fill:#1b4176}.st3{fill:#bd2327}</style><style id="style14">.st0{fill:#1b4176}.st3{fill:#bd2327}</style><path id="path16" d="M153.47 216.67c-2.6 0-5.3.1-7.9 0-10.5-.3-14.1-3.9-14.1-14.5v-5.5c.3-12-2.6-10.8 11.6-11.2 4.9-.1 7.6 1 6.9 6.5-.3 2.1 0 4.5 3.1 4.3 3-.2 2.7-2.7 3-4.7 1.3-10.1.3-11.2-10-11.3-11.6-.1-14.6-3-14.6-14.4 0-9.8-.1-19.5 0-29.3.1-9.7 4.3-13.9 14-14.1 5.8-.1 11.6 0 17.4 0 6.6-.1 10.8 3.1 11.5 9.5.8 6.5.5 13.2.6 19.7.1 2.3-1.1 3.3-3.4 3.3-3.2 0-6.4-.2-9.5.1-4.4.4-6.4-1.2-6.1-5.7.1-1.8-.1-3.7-.4-5.5-.3-1.8-1.5-2.7-3.4-2.5-1.5.2-2.3 1.3-2.3 2.7-.1 4.5-.2 9 0 13.5.1 3.6 3.1 3 5.3 3 3.9.1 7.8-.2 11.6 1.6 5.3 2.5 8.3 6.2 8.2 12.3-.1 8.7 0 17.4 0 26.1 0 13.5-2.8 16.3-16 16.3-1.8-.2-3.7-.2-5.5-.2zm105.6-27.1c0 5.3.2 10.6-.1 15.8-.3 7.2-4.2 11.1-11.5 11.3-6.6.1-13.2.3-19.8-.1-8.7-.5-12.1-4.4-12.3-13.1v-5.5c0-13 0-12.8 12.7-12.5 4.5.1 6.2 1.6 5.8 6-.2 2-.4 4.7 2.6 4.9 3.5.2 3.3-2.7 3.5-5 1.1-10 .3-11-9.5-11-12.5-.1-15.1-2.8-15.1-15.5 0-9.8-.1-19.5.1-29.3.2-8.4 4.3-12.6 12.7-13 6.1-.3 12.2.1 18.2-.1 7.4-.2 11.5 3.6 12.3 10.5.7 6 .2 12.1.4 18.2.1 3.3-1.7 4-4.5 3.9-2.4-.1-4.8-.2-7.1 0-5.2.6-8-1-7.5-6.8.2-2.5 1.1-6.8-3.1-6.8-4.5 0-2.6 4.3-3 6.8-.3 2.1.1 4.2-.1 6.3-.4 4.3 1.1 6.5 5.8 6 1.8-.2 3.7-.2 5.5 0 8.9.8 13.8 6.1 14 14.9.1 4.6 0 9.4 0 14.1z" class="st0"/><path id="path18" fill="none" stroke="#1b4176" stroke-miterlimit="10" stroke-width="4" d="M295.67 245.17H43.17c-13.8 0-25-11.2-25-25v-116.9c0-13.8 11.3-25 25-25h252.5c13.8 0 25 11.3 25 25v116.8c0 13.8-11.3 25.1-25 25.1z"/><path id="path20" fill="none" stroke="#1b4176" stroke-miterlimit="10" d="M51.57 92.97h191s60.9 14.4 64.2 30.1v88.5s-1.3 21-20 22H51.57s-20.3-3.9-20.3-22v-98c0 .1-.4-20.6 20.3-20.6z"/><path id="path22" d="M61.47 104.57v100.3h27v-43.1h8.1v43.1h25.9v-87.5h60.8v87.5h26.5v-86.7h55.3v-13.6H96.37v36.3h-8.8v-36.3zm0 103.6h61.6v14.2h-61.6zm122.6 0h25.9v14.2h-25.9z" class="st3"/><path id="path24" d="M344.57 293.47l-14.8-39.7s-3-8.7-25.9-8.7H44.27s-19.4.3-26.1 7.7l-15.5 40.2s-6.5 8.8 13.4 11.1h312.7c.1.1 18.1-2.2 15.8-10.6zm-91.4-42.4c8.2 0 14.8 2.9 14.8 6.4 0 3.6-6.6 6.4-14.8 6.4-8.2 0-14.8-2.9-14.8-6.4-.1-3.5 6.6-6.4 14.8-6.4zm-2.3 22.3c0 3.6-6.6 6.4-14.8 6.4-8.2 0-14.8-2.9-14.8-6.4 0-3.6 6.6-6.4 14.8-6.4 8.1 0 14.8 2.9 14.8 6.4zm-37.9-22.3c8.2 0 14.8 2.9 14.8 6.4 0 3.6-6.6 6.4-14.8 6.4-8.2 0-14.8-2.9-14.8-6.4-.1-3.5 6.6-6.4 14.8-6.4zm-4.7 22.3c0 3.6-6.6 6.4-14.8 6.4-8.2 0-14.8-2.9-14.8-6.4 0-3.6 6.6-6.4 14.8-6.4 8.2 0 14.8 2.9 14.8 6.4zm-35.6-22.3c8.2 0 14.8 2.9 14.8 6.4 0 3.6-6.6 6.4-14.8 6.4-8.2 0-14.8-2.9-14.8-6.4 0-3.5 6.6-6.4 14.8-6.4zm-7 22.3c0 3.6-6.6 6.4-14.8 6.4-8.2 0-14.8-2.9-14.8-6.4 0-3.6 6.6-6.4 14.8-6.4 8.2 0 14.8 2.9 14.8 6.4zm-33.2-22.3c8.2 0 14.8 2.9 14.8 6.4 0 3.6-6.6 6.4-14.8 6.4-8.2 0-14.8-2.9-14.8-6.4 0-3.5 6.6-6.4 14.8-6.4zm-9.3 22.3c0 3.6-6.6 6.4-14.8 6.4-8.2 0-14.8-2.9-14.8-6.4 0-3.6 6.6-6.4 14.8-6.4 8.1 0 14.8 2.9 14.8 6.4zm-30.9-22.3c8.2 0 14.8 2.9 14.8 6.4 0 3.6-6.6 6.4-14.8 6.4-8.2 0-14.8-2.9-14.8-6.4-.1-3.5 6.6-6.4 14.8-6.4zm-55.1 6.5c0-3.6 6.6-6.4 14.8-6.4 8.2 0 14.8 2.9 14.8 6.4 0 3.6-6.6 6.4-14.8 6.4-8.1 0-14.8-2.9-14.8-6.4zm13.7 15.8c0-3.6 6.6-6.4 14.8-6.4 8.2 0 14.8 2.9 14.8 6.4 0 3.6-6.6 6.4-14.8 6.4-8.1.1-14.8-2.8-14.8-6.4zm218.2 24.7H77.37c-2.9 0-5.3-2.4-5.3-5.3s2.4-5.3 5.3-5.3h191.7c2.9 0 5.3 2.4 5.3 5.3s-2.4 5.3-5.3 5.3zm9.5-18.2c-8.2 0-14.8-2.9-14.8-6.4 0-3.6 6.6-6.4 14.8-6.4 8.2 0 14.8 2.9 14.8 6.4 0 3.5-6.6 6.4-14.8 6.4zm14.8-15.9c-8.2 0-14.8-2.9-14.8-6.4 0-3.6 6.6-6.4 14.8-6.4 8.2 0 14.8 2.9 14.8 6.4.1 3.5-6.6 6.4-14.8 6.4zM.47 305.17v15s7.5 5.5 19.4 5.9h309.9s14.2 0 16.2-7.1v-13.8s-2.4 5.9-19 6.7H18.17s-8.2 1.2-17.7-6.7z" class="st0"/><path id="path26" d="M204.77 81.27l8.4-24.6s3.1-6 32-3.6 86.4 30.3 85.7 44.6c-.7 14.3-7.6 24.6-7.6 24.6s-45.9-38.4-118.5-41z" class="st3"/><path id="path28" d="M197.07 67.07l-35.3-42.8 136.7-21.8 93.9 102.1-26.2 4.1-7.3 20.8s7.1 8.1-1.4 12.3c-8.5 4.2-14.5-10.5-4.6-13.1l8.1-19.6-26 5.5s11.5-15.3 3.6-24.6c0 0-17.7-27.1-73.5-42 0 0-57.6-12.9-61.6 8.3l-3 14.1z" class="st0"/><path id="path30" d="M347.37 142.47l-21.1 29.5s22.2-3 25 6.1l3.9-32.9z" class="st3"/></svg>