<svg xmlns="http://www.w3.org/2000/svg" role="img" viewBox="-3.27 -5.77 508.04 141.04"><title>Horizon logo</title><defs><style>.cls-1{fill:#ee6246}</style></defs><path d="M67.166 76.192c-7.159 0-14.319-.071-21.476.045 7.157-.116 14.317-.045 21.476-.045 5.51 0 11.02-.037 16.53-.009-5.51-.028-11.02.009-16.53.009z" class="cls-1"/><path d="M67.204 125.684a60.753 60.753 0 1 0-60.6-60.974 60.74 60.74 0 0 0 60.6 60.974zm35.232-16.085a56.861 56.861 0 0 1-70.058.088c-1.687-1.293-1.973-1.955-.025-3.38q16.65-12.184 33.104-24.635c1.48-1.116 2.425-1.053 3.87.029q16.517 12.364 33.18 24.533c2.01 1.46 1.54 2.122-.071 3.365zM37.339 71.901c1.002 4.289 1.002 4.289-3.476 4.29h-1.13c-3.366 0-4.996.006-5.867-1.012a2.27 2.27 0 0 1-.146-.19 2.846 2.846 0 0 1-.25-.45 18.031 18.031 0 0 1-.806-5.146c-1.431-17.848 5.455-31.86 20.903-40.768 15.273-8.807 30.942-7.966 45.22 2.345 14.356 10.368 19.676 24.907 16.715 42.448-.381 2.261-1.325 2.997-3.528 2.813a50.344 50.344 0 0 0-6.494-.018c-1.8.083-2.32-.347-1.705-2.243a29.486 29.486 0 0 0 .989-13.955 30.81 30.81 0 1 0-60.425 11.886zm14.22-28.616A26.828 26.828 0 0 1 92.674 73.84a3.049 3.049 0 0 1-3.469 2.396q-2.754-.04-5.51-.053c-5.51-.028-11.02.009-16.53.009-7.159 0-14.319-.071-21.476.045-1.995.033-3.007-.512-3.687-2.486a26.891 26.891 0 0 1 9.555-30.466zm5.608 38.428c.069 0 .137.109.207.17-.084.077-.155.188-.22.185s-.129-.118-.192-.184c.068-.062.136-.171.205-.171zm57.478 14.698a88.872 88.872 0 0 1-6.012 7.477c-.61.655-1.123 1.193-2.105.433Q92.14 93.198 77.71 82.131l.304-.67c2.117.71 4.236 1.415 6.352 2.131 9.719 3.292 19.423 6.627 29.165 9.845 1.876.62 2.484 1.14 1.114 2.974zm6.677-13.698c-2.634 8.284-2.581 8.3-10.692 5.664L90.496 81.84c-.846-.276-1.67-.622-2.626-.981a2.312 2.312 0 0 1 2.043-.483c9.882-.014 19.764.033 29.646-.04 1.971-.015 2.379.442 1.763 2.378zM11.15 73.091c-.126-2.723-.452-5.437-.691-8.155.147-32.939 28.381-59.22 60.96-56.627 33.172 2.641 57.004 32.401 52.129 65.006-.325 2.174-1.038 3.173-3.358 2.916a26.17 26.17 0 0 0-5.36-.006c-2.428.235-2.677-.68-2.319-2.89 2.94-18.114-2.707-33.167-16.973-44.632a45.883 45.883 0 0 0-73.392 44.29c.518 2.772-.143 3.513-2.768 3.228a19.155 19.155 0 0 0-4.513.006c-2.5.327-3.599-.643-3.715-3.136zm4.452 15.227c-.605-1.78-1.319-3.527-2.065-5.253-.822-1.9-.737-2.782 1.805-2.75 10.443.13 20.888.054 31.333.054l.158.664c-2.28.754-4.558 1.518-6.842 2.261-6.893 2.243-13.825 4.372-20.66 6.776-2.16.759-3.067.194-3.729-1.752zm4.63 5.557q17.959-5.894 35.892-11.867c.067-.022.171.065.443.178-.249 1.042-1.117 1.357-1.76 1.852-8.496 6.548-17.052 13.02-25.483 19.652-1.69 1.33-2.59 1.127-3.858-.405a87.33 87.33 0 0 1-5.686-7.37c-.576-.87-1.067-1.541.452-2.04z" class="cls-1"/><path d="M57.153 82.068c.066.003.137-.108.221-.184-.07-.062-.138-.171-.207-.171-.069 0-.137.11-.205.17.063.067.125.183.191.185zm161.429-6.846h-28.27v32.15h-10.79V33.795h10.79V65.34h28.27V33.795h10.79v73.577h-10.79zm23.648 5.909q0-8.291 1.32-12.74a18.526 18.526 0 0 1 4.203-7.33 19.26 19.26 0 0 1 5.866-4.668 21.166 21.166 0 0 1 9.532-2.058 21.563 21.563 0 0 1 9.728 2.068 18.355 18.355 0 0 1 5.67 4.694 16.609 16.609 0 0 1 4.287 7.317 50.795 50.795 0 0 1 1.22 12.717 49.46 49.46 0 0 1-1.223 12.616 18.088 18.088 0 0 1-4.3 7.519 16.03 16.03 0 0 1-2.393 2.271 11.118 11.118 0 0 1-3.274 2.17 19.83 19.83 0 0 1-9.724 2.271 20.856 20.856 0 0 1-15.39-6.712 20.316 20.316 0 0 1-4.203-7.52q-1.32-4.338-1.32-12.615zm31.64.1a48.846 48.846 0 0 0-.489-8.203 9.834 9.834 0 0 0-2.009-4.354 7.557 7.557 0 0 0-3.331-2.786 10.758 10.758 0 0 0-4.9-1.062 10.907 10.907 0 0 0-4.8 1.063 9.144 9.144 0 0 0-3.428 2.785 12.444 12.444 0 0 0-1.911 4.354 40.07 40.07 0 0 0-.588 8.103 38.882 38.882 0 0 0 .588 8 13.472 13.472 0 0 0 1.91 4.557 12.5 12.5 0 0 0 3.43 2.684 10.49 10.49 0 0 0 4.8 1.113 10.335 10.335 0 0 0 4.899-1.113 9.669 9.669 0 0 0 3.331-2.684 10.607 10.607 0 0 0 2.01-4.558 45.768 45.768 0 0 0 .488-7.899zm21.731-26.241h10.184v5.551h.213a16.698 16.698 0 0 1 23.863-2.184l-7.438 9.1a10.51 10.51 0 0 0-6.705-2.63 9.432 9.432 0 0 0-6.703 2.626q-3.132 2.578-3.23 8.338v31.581H295.6zm39.697-21.195h10.183v10.492h-10.183zm0 21.195h10.183v52.382h-10.183zm20.317 44.051l25.421-34.77h-24.828v-9.28h37.245v8.388l-26.24 34.106h26.24v9.887h-37.838zm45.852-17.91q0-8.291 1.32-12.74a18.526 18.526 0 0 1 4.204-7.33 19.26 19.26 0 0 1 5.865-4.668 21.166 21.166 0 0 1 9.532-2.058 21.563 21.563 0 0 1 9.728 2.068 18.355 18.355 0 0 1 5.67 4.694 16.609 16.609 0 0 1 4.288 7.317 50.795 50.795 0 0 1 1.219 12.717 49.46 49.46 0 0 1-1.222 12.616 18.088 18.088 0 0 1-4.3 7.519 16.03 16.03 0 0 1-2.394 2.271 11.118 11.118 0 0 1-3.274 2.17 19.83 19.83 0 0 1-9.724 2.271 20.856 20.856 0 0 1-15.39-6.712 20.316 20.316 0 0 1-4.203-7.52q-1.32-4.338-1.319-12.615zm31.64.1a48.846 48.846 0 0 0-.488-8.203 9.834 9.834 0 0 0-2.01-4.354 7.557 7.557 0 0 0-3.33-2.786 10.758 10.758 0 0 0-4.9-1.062 10.907 10.907 0 0 0-4.8 1.063 9.144 9.144 0 0 0-3.429 2.785 12.444 12.444 0 0 0-1.91 4.354 40.07 40.07 0 0 0-.588 8.103 38.882 38.882 0 0 0 .587 8 13.472 13.472 0 0 0 1.911 4.557 12.5 12.5 0 0 0 3.429 2.684 10.49 10.49 0 0 0 4.8 1.113 10.335 10.335 0 0 0 4.9-1.113 9.668 9.668 0 0 0 3.33-2.684 10.607 10.607 0 0 0 2.01-4.558 45.768 45.768 0 0 0 .489-7.899zm21.731-26.241h10.185v5.551h.195a16.154 16.154 0 0 1 13.186-6.206 17.078 17.078 0 0 1 11.526 4.592q5.175 4.643 5.421 13.625v34.82h-10.184V76.145q0-5.507-2.837-8.388a9.472 9.472 0 0 0-7.186-2.93 9.63 9.63 0 0 0-7.237 2.93q-2.885 2.88-2.885 8.388v31.227h-10.184z" class="cls-1"/></svg>