<svg xmlns="http://www.w3.org/2000/svg" role="img" viewBox="-5.13 -4.13 249.76 253.76"><title>Huawei Technologies Co., Ltd logo</title><style>svg {enable-background:new 0 0 239.8 244.2}</style><radialGradient id="SVGID_1_" cx="152.721" cy="219.798" r="174.731" gradientTransform="matrix(.9896 0 0 -.9856 -.012 239.521)" gradientUnits="userSpaceOnUse"><stop offset="0" stop-color="#f7bfa4"/><stop offset=".055" stop-color="#f5a691"/><stop offset=".43" stop-color="#e60012"/><stop offset=".688" stop-color="#e40011"/><stop offset=".791" stop-color="#dd0010"/><stop offset=".867" stop-color="#d1000d"/><stop offset=".929" stop-color="#bf0008"/><stop offset=".983" stop-color="#a90002"/><stop offset="1" stop-color="#a00000"/></radialGradient><path fill="url(#SVGID_1_)" d="M103.2 141.2s.4-.3.2-.9C75.2 79 36.7 32.5 36.7 32.5s-21 19.8-19.5 39.7c.8 15 12.1 23.9 12.1 23.9 18.3 17.7 62.5 40.1 72.8 45.2.3.1.8.3 1.1-.1z"/><radialGradient id="SVGID_2_" cx="152.721" cy="219.815" r="174.741" gradientTransform="matrix(.9896 0 0 -.9856 -.012 239.521)" gradientUnits="userSpaceOnUse"><stop offset="0" stop-color="#f7bfa4"/><stop offset=".055" stop-color="#f5a691"/><stop offset=".43" stop-color="#e60012"/><stop offset=".688" stop-color="#e40011"/><stop offset=".791" stop-color="#dd0010"/><stop offset=".867" stop-color="#d1000d"/><stop offset=".929" stop-color="#bf0008"/><stop offset=".983" stop-color="#a90002"/><stop offset="1" stop-color="#a00000"/></radialGradient><path fill="url(#SVGID_2_)" d="M96.4 156.4c-.2-.7-.9-.7-.9-.7l-73.7 2.6c8 14.2 21.4 25.2 35.5 21.8 9.7-2.4 31.6-17.6 38.8-22.8.5-.5.3-.9.3-.9z"/><radialGradient id="SVGID_3_" cx="152.717" cy="219.793" r="174.718" gradientTransform="matrix(.9896 0 0 -.9856 -.012 239.521)" gradientUnits="userSpaceOnUse"><stop offset="0" stop-color="#f7bfa4"/><stop offset=".055" stop-color="#f5a691"/><stop offset=".43" stop-color="#e60012"/><stop offset=".688" stop-color="#e40011"/><stop offset=".791" stop-color="#dd0010"/><stop offset=".867" stop-color="#d1000d"/><stop offset=".929" stop-color="#bf0008"/><stop offset=".983" stop-color="#a90002"/><stop offset="1" stop-color="#a00000"/></radialGradient><path fill="url(#SVGID_3_)" d="M97.5 149.8c.4-.6-.3-1.1-.3-1.1C64.8 126.9 2.1 93.5 2.1 93.5c-5.7 17.6 2 31.7 2 31.7 8 16.8 23.3 21.9 23.3 21.9 7 2.9 14.1 3.1 14.1 3.1 1.1.2 43.8 0 55.3 0 .4.1.7-.4.7-.4z"/><radialGradient id="SVGID_4_" cx="152.712" cy="219.788" r="174.721" gradientTransform="matrix(.9896 0 0 -.9856 -.012 239.521)" gradientUnits="userSpaceOnUse"><stop offset="0" stop-color="#f7bfa4"/><stop offset=".055" stop-color="#f5a691"/><stop offset=".43" stop-color="#e60012"/><stop offset=".688" stop-color="#e40011"/><stop offset=".791" stop-color="#dd0010"/><stop offset=".867" stop-color="#d1000d"/><stop offset=".929" stop-color="#bf0008"/><stop offset=".983" stop-color="#a90002"/><stop offset="1" stop-color="#a00000"/></radialGradient><path fill="url(#SVGID_4_)" d="M102.4.9c-3.2.3-11.9 2.2-11.9 2.2-19.5 5-24.1 22.7-24.1 22.7-3.6 11.1.1 23.3.1 23.3 6.5 28.8 38.6 76.1 45.4 86 .5.5.9.3.9.3.7-.2.7-.9.7-.9C124.1 28.8 102.4.9 102.4.9z"/><radialGradient id="SVGID_5_" cx="152.754" cy="219.787" r="174.917" gradientTransform="matrix(.9896 0 0 -.9856 -.012 239.521)" gradientUnits="userSpaceOnUse"><stop offset="0" stop-color="#f7bfa4"/><stop offset=".055" stop-color="#f5a691"/><stop offset=".43" stop-color="#e60012"/><stop offset=".688" stop-color="#e40011"/><stop offset=".791" stop-color="#dd0010"/><stop offset=".867" stop-color="#d1000d"/><stop offset=".929" stop-color="#bf0008"/><stop offset=".983" stop-color="#a90002"/><stop offset="1" stop-color="#a00000"/></radialGradient><path fill="url(#SVGID_5_)" d="M126.8 135.3c.7.3 1.1-.4 1.1-.4 7.1-10.2 38.9-57.2 45.4-85.9 0 0 3.5-13.9.1-23.3 0 0-4.8-17.9-24.4-22.6 0 0-5.6-1.4-11.6-2.3 0 0-21.8 28-11.2 133.6.1.8.6.9.6.9z"/><radialGradient id="SVGID_6_" cx="152.753" cy="219.782" r="174.901" gradientTransform="matrix(.9896 0 0 -.9856 -.012 239.521)" gradientUnits="userSpaceOnUse"><stop offset="0" stop-color="#f7bfa4"/><stop offset=".055" stop-color="#f5a691"/><stop offset=".43" stop-color="#e60012"/><stop offset=".688" stop-color="#e40011"/><stop offset=".791" stop-color="#dd0010"/><stop offset=".867" stop-color="#d1000d"/><stop offset=".929" stop-color="#bf0008"/><stop offset=".983" stop-color="#a90002"/><stop offset="1" stop-color="#a00000"/></radialGradient><path fill="url(#SVGID_6_)" d="M144.2 155.7s-.6.1-.8.6c0 0-.2.7.3 1 7.1 5 28.4 19.9 38.7 22.8 0 0 19 6.5 35.6-21.8l-73.8-2.6z"/><radialGradient id="SVGID_7_" cx="152.753" cy="219.777" r="174.896" gradientTransform="matrix(.9896 0 0 -.9856 -.012 239.521)" gradientUnits="userSpaceOnUse"><stop offset="0" stop-color="#f7bfa4"/><stop offset=".055" stop-color="#f5a691"/><stop offset=".43" stop-color="#e60012"/><stop offset=".688" stop-color="#e40011"/><stop offset=".791" stop-color="#dd0010"/><stop offset=".867" stop-color="#d1000d"/><stop offset=".929" stop-color="#bf0008"/><stop offset=".983" stop-color="#a90002"/><stop offset="1" stop-color="#a00000"/></radialGradient><path fill="url(#SVGID_7_)" d="M237.6 93.4s-62.6 33.5-95 55.2c0 0-.6.4-.4 1.1 0 0 .3.6.8.6 11.6 0 55.5.1 56.6-.1 0 0 5.7-.2 12.7-2.9 0 0 15.6-4.9 23.7-22.6 0-.1 7.2-14.5 1.6-31.3z"/><radialGradient id="SVGID_8_" cx="152.753" cy="219.781" r="174.902" gradientTransform="matrix(.9896 0 0 -.9856 -.012 239.521)" gradientUnits="userSpaceOnUse"><stop offset="0" stop-color="#f7bfa4"/><stop offset=".055" stop-color="#f5a691"/><stop offset=".43" stop-color="#e60012"/><stop offset=".688" stop-color="#e40011"/><stop offset=".791" stop-color="#dd0010"/><stop offset=".867" stop-color="#d1000d"/><stop offset=".929" stop-color="#bf0008"/><stop offset=".983" stop-color="#a90002"/><stop offset="1" stop-color="#a00000"/></radialGradient><path fill="url(#SVGID_8_)" d="M136.7 141.2s.5.4 1 .1c10.6-5.2 54.5-27.5 72.7-45.1 0 0 11.5-9.2 12.1-24 1.3-20.6-19.4-39.6-19.4-39.6s-38.4 46.3-66.6 107.5c0-.1-.4.6.2 1.1z"/><g><path fill="#231815" d="M27 220.5H8.6v-16.2H.4v40.2h8.2v-16.3H27v16.3h8.2v-40.2H27zm46.1 6.8c0 6.6-3.3 10-9.2 10s-9.2-3.6-9.2-10.3v-22.8h-8.2v23c0 11.3 6.3 17.8 17.3 17.8 11.1 0 17.4-6.6 17.4-18.2v-22.7H73l.1 23.2zm94.5 4.7l-9.2-27.8h-6.7l-9.1 27.8-8.9-27.7H125l14 40.2h6.8l9.2-26.4 9.1 26.4h6.9l14-40.2h-8.5zm32-4.8h14.9v-7.3h-14.9v-8.3h21.6v-7.3h-29.6v40.2H222v-7.3h-22.4zm32.1-22.9h8.1v40.2h-8.1zm-115.8 31.8l3.6 8.4h8.6l-17.7-40.3h-7.2l-17.8 40.3h8.3l3.7-8.4h18.5zm-9.3-21.7l6.2 14.4h-12.4l6.2-14.4z"/></g></svg>