<svg xmlns="http://www.w3.org/2000/svg" role="img" viewBox="3.82 0.82 711.36 249.86"><title>Hudi logo</title><defs><style>.cls-5{fill-rule:evenodd}.cls-2{fill:none;stroke:#fff;stroke-linejoin:round}.cls-5{fill-opacity:0}</style></defs><path fill="#cfe2f3" fill-rule="evenodd" d="M16.529 211L150.158 13.187 283.787 211z"/><path d="M16.529 211L150.158 13.187 283.787 211z" class="cls-2"/><path fill="#9fc5e8" fill-rule="evenodd" d="M112.742 237.768L219.644 39.955l106.903 197.813z"/><path d="M112.742 237.768L219.644 39.955l106.903 197.813z" class="cls-2"/><path fill="#666" d="M421.508 126.361a20.817 20.817 0 0 1 20.713 20.713v78.507H428.19v-78.507a6.85 6.85 0 0 0-6.682-6.682H361.96a6.687 6.687 0 0 0-4.76 2.005 6.234 6.234 0 0 0-2.005 4.677v78.507h-14.031V93.873h14.03v32.488zm120.773 0h14.031v78.507a20.675 20.675 0 0 1-20.88 20.713h-59.548a20.532 20.532 0 0 1-20.629-20.713v-78.507h13.948v78.507a6.7 6.7 0 0 0 6.681 6.682h59.549a6.645 6.645 0 0 0 4.76-1.921 6.377 6.377 0 0 0 2.088-4.76zm113.782-32.488h13.948V225.58h-80.178a20.273 20.273 0 0 1-14.782-6.014 20.033 20.033 0 0 1-6.097-14.699v-57.794a20.816 20.816 0 0 1 20.88-20.713h66.23zm-66.23 117.677h59.549a6.7 6.7 0 0 0 6.681-6.682v-57.794a6.234 6.234 0 0 0-2.004-4.677 6.41 6.41 0 0 0-4.677-2.005h-59.549a6.504 6.504 0 0 0-4.76 2.005 6.365 6.365 0 0 0-1.921 4.677v57.794a6.562 6.562 0 0 0 6.681 6.682zm98.136 14.03v-99.219H702v99.22zm0-131.707H702v14.03h-14.031z"/><path d="M21.874 211.168L150.158 13.187" class="cls-5"/><path fill="#a4c2f4" d="M21.405 210.863l110.761-171.12 1.023.663-110.762 171.12z"/><path fill="#a4c2f4" fill-rule="evenodd" stroke="#a4c2f4" stroke-miterlimit="10" d="M140.127 44.902l5.782-25.158-20.6 15.556z"/><path d="M219.645 39.955l106.903 197.813" class="cls-5"/><path fill="#6fa8dc" d="M219.11 40.244l1.07-.58 91.656 169.6-1.071.578z"/><path fill="#6fa8dc" fill-rule="evenodd" stroke="#6fa8dc" stroke-miterlimit="10" d="M303.533 213.75l19.3 17.143-3.766-25.537z"/></svg>