<svg xmlns="http://www.w3.org/2000/svg" role="img" viewBox="-2.71 -8.21 790.92 314.92"><title>Infer.net logo</title><defs><style>.cls-4{fill:#fefefe}</style><linearGradient id="linear-gradient" x1="155.438" x2="155.438" y1="291.874" y2="12.993" gradientUnits="userSpaceOnUse"><stop offset="0" stop-color="#3165a3"/><stop offset="1" stop-color="#4a658e"/></linearGradient></defs><path fill="none" d="M487.982 133.11a11.175 11.175 0 0 0-8.819 3.823q-3.359 3.823-4.287 10.65h25.285v-.984q-.438-6.662-3.55-10.075-3.112-3.413-8.629-3.413z"/><path fill="#3165a3" d="M341.93 103.129h13.762v79.514H341.93zm56.566 19.332a21.248 21.248 0 0 0-17.203 7.919l-.382-6.827h-12.506v59.09h13.27v-42.051q3.933-7.263 11.96-7.263 5.515 0 7.947 2.703 2.43 2.705 2.43 8.328v38.283h13.271v-39.047q-.33-21.135-18.787-21.135zm39.638-19.496q-5.461 5.352-5.461 15.182v5.406h-9.012v9.83h9.012v49.26h13.27v-49.26h12.014v-9.83h-12.014v-5.242q0-9.776 9.502-9.776a26.161 26.161 0 0 1 5.08.437l.327-10.376a30.67 30.67 0 0 0-7.427-.983q-9.832 0-15.291 5.352zm49.903 19.496a25.34 25.34 0 0 0-13.762 3.878 25.971 25.971 0 0 0-9.584 10.84 35.446 35.446 0 0 0-3.413 15.81v1.638q0 13.216 7.836 21.162 7.837 7.946 20.452 7.946a29.674 29.674 0 0 0 13.298-2.922 23.89 23.89 0 0 0 9.476-8.219l-7.154-6.826a17.97 17.97 0 0 1-14.855 7.372 14.675 14.675 0 0 1-10.786-4.26q-4.287-4.258-4.888-11.577h38.61v-5.352q0-14.09-6.58-21.79-6.581-7.7-18.65-7.7zm12.124 25.121h-25.285q.928-6.826 4.287-10.649a11.175 11.175 0 0 1 8.82-3.823q5.516.001 8.628 3.414 3.112 3.413 3.55 10.075zm51.597-24.356a12.434 12.434 0 0 0-4.696-.765q-8.521 0-13.326 7.7l-.328-6.608h-12.67v59.09h13.27V142.23q3.167-6.99 12.289-6.99a32.858 32.858 0 0 1 5.406.436zm4.357 45.436a7.504 7.504 0 0 0-5.678 2.103 7.302 7.302 0 0 0-2.022 5.27 6.923 6.923 0 0 0 2.075 5.188 8.946 8.946 0 0 0 11.36-.028 7.048 7.048 0 0 0 2.02-5.16 7.305 7.305 0 0 0-2.02-5.27 7.582 7.582 0 0 0-5.735-2.103zm70.821-65.533v56.631l-35.552-56.631h-13.818v79.514h13.818v-56.414l35.442 56.414h13.817v-79.514h-13.707zm41.056 44.016h32.657v-10.922h-32.657v-21.954h37.791v-11.14h-51.608v79.514h51.99v-11.141h-38.173v-24.357zm42.094-44.016v11.14h24.575v68.374h13.708v-68.374h24.793v-11.14h-63.076z"/><path fill="url(#linear-gradient)" d="M155.438 6.957a142.459 142.459 0 1 0 142.459 142.458A142.459 142.459 0 0 0 155.438 6.957zm-23.786 67.008a104.178 104.178 0 0 0-15.624 7.027A86.727 86.727 0 0 0 95.59 96.17a69.776 69.776 0 0 0-18.087 31.857 83.74 83.74 0 0 0-2.84 25.406 77.56 77.56 0 0 0 2.075 14.078 75.84 75.84 0 0 0 4.275 12.933 79.292 79.292 0 0 0 13.968 21.118c4.166 4.622 8.997 8.497 13.639 12.6 7.165 6.332 7.444 14.681 2.514 20.982-2.417 3.089-5.851 3.989-9.392 4.172a19.459 19.459 0 0 1-12.088-4.477c-21.005-17.462-34.397-39.495-39.758-66.339-1.798-9.003-1.96-18.091-1.533-27.223a93.753 93.753 0 0 1 3.387-21.264 96.566 96.566 0 0 1 7.763-18.168 135.188 135.188 0 0 1 9.193-15.43 87.442 87.442 0 0 1 9.481-11.381A109.6 109.6 0 0 1 102.4 56.546a100.175 100.175 0 0 1 25.928-10.193c1.582-.376 1.752-.231 1.98 1.411q1.594 11.52 3.208 23.036c.312 2.219.237 2.425-1.863 3.165zm43.608 86.769q-.057 32.932-.11 65.864c-.01 5.559-.043 11.117-.048 16.676a19.827 19.827 0 0 1-39.438 2.616 11.281 11.281 0 0 1-.116-1.792q-.046-12.297-.073-24.593-.017-21.713-.003-43.427h-.24q0-17.575-.006-35.15c-.021-10.916-.125-21.832-.12-32.748.004-10.774 9.178-20.329 19.816-20.74 9.713-.374 18.813 7.32 20.018 16.938a50.814 50.814 0 0 1 .42 6.447q-.06 24.954-.1 49.909zM156.75 76.33a19.876 19.876 0 0 1-20.093-19.658v-.168a19.872 19.872 0 1 1 20.092 19.826zm105.833 66.603a104.959 104.959 0 0 1-6.355 46.294 110.255 110.255 0 0 1-53.3 59.098 98.347 98.347 0 0 1-19.162 7.216c-2.331.61-2.341.573-2.341-1.78v-11.518c0-4.04.033-8.08-.023-12.118a2.51 2.51 0 0 1 1.17-2.292 31.049 31.049 0 0 1 7.616-4.273 48.4 48.4 0 0 0 19.046-13.19 185.63 185.63 0 0 0 15.085-19.001c5.116-7.243 8.065-15.423 9.74-24.131a79.4 79.4 0 0 0 1.491-15.718 76.298 76.298 0 0 0-8.84-35.62A89.763 89.763 0 0 0 203 87.452c-5.891-4.68-7.68-13.443-3.75-19.766 1.992-3.205 5.249-4.665 8.992-5.017 5.692-.536 10.344 1.686 14.555 5.288 3.767 3.222 7.541 6.426 10.974 10.013a102.608 102.608 0 0 1 22.568 35.867 108.643 108.643 0 0 1 6.244 29.098z"/><path d="M154.922 87.44c-10.638.411-19.812 9.966-19.817 20.74-.004 10.916.1 21.832.121 32.748q.005 17.575.005 35.15h.241q-.014 21.714.003 43.427.027 12.296.073 24.593a11.281 11.281 0 0 0 .116 1.792 19.827 19.827 0 0 0 39.438-2.616c.005-5.559.037-11.117.047-16.676q.054-32.932.111-65.864.04-24.955.1-49.909a50.814 50.814 0 0 0-.42-6.447c-1.205-9.618-10.305-17.312-20.018-16.937z" class="cls-4"/><path fill="#9ac7f4" d="M222.797 67.956c-4.21-3.602-8.863-5.824-14.555-5.288-3.743.352-7 1.812-8.992 5.017-3.93 6.323-2.141 15.086 3.75 19.767a89.763 89.763 0 0 1 23.71 28.45 76.298 76.298 0 0 1 8.84 35.619 79.4 79.4 0 0 1-1.491 15.718c-1.675 8.708-4.624 16.888-9.74 24.13a185.63 185.63 0 0 1-15.085 19.002 48.4 48.4 0 0 1-19.046 13.19 31.049 31.049 0 0 0-7.616 4.273 2.51 2.51 0 0 0-1.17 2.292c.057 4.039.023 8.078.023 12.118v11.517c0 2.354.01 2.391 2.34 1.781a98.347 98.347 0 0 0 19.163-7.216 110.255 110.255 0 0 0 53.3-59.098 104.959 104.959 0 0 0 6.354-46.294 108.643 108.643 0 0 0-6.243-29.098 102.608 102.608 0 0 0-22.568-35.867c-3.433-3.587-7.207-6.791-10.974-10.013zm-92.491-20.192c-.227-1.642-.397-1.787-1.979-1.411a100.175 100.175 0 0 0-25.928 10.193 109.6 109.6 0 0 0-24.213 18.488 87.442 87.442 0 0 0-9.48 11.38 135.188 135.188 0 0 0-9.194 15.431 96.566 96.566 0 0 0-7.763 18.168 93.753 93.753 0 0 0-3.387 21.264c-.428 9.132-.265 18.22 1.533 27.223 5.36 26.844 18.753 48.877 39.758 66.339a19.459 19.459 0 0 0 12.088 4.477c3.541-.184 6.975-1.083 9.392-4.172 4.93-6.3 4.651-14.65-2.514-20.983-4.642-4.102-9.473-7.977-13.64-12.6a79.292 79.292 0 0 1-13.967-21.118 75.84 75.84 0 0 1-4.275-12.932 77.56 77.56 0 0 1-2.075-14.078 83.74 83.74 0 0 1 2.84-25.406A69.776 69.776 0 0 1 95.59 96.17a86.727 86.727 0 0 1 20.44-15.178 104.178 104.178 0 0 1 15.623-7.027c2.1-.74 2.175-.946 1.863-3.165q-1.614-11.516-3.209-23.036z"/><path d="M156.484 36.59a19.872 19.872 0 0 0-19.828 19.915l.001.168a19.872 19.872 0 1 0 19.827-20.084z" class="cls-4"/></svg>