<svg xmlns="http://www.w3.org/2000/svg" role="img" viewBox="-18.32 -8.32 1056.64 845.64"><title>InternLM logo</title><style>svg {}</style><path fill="#1A377F" d="M981.90808 692.73242c-3.44745 5.1272-7.12408 10.11707-10.29498 15.41004-6.64685 11.09533-12.96942 22.38488-19.60254 33.48877-.70361 1.1778-2.5597 2.29126-3.92658 2.3485-9.81689.41144-19.65002.76636-29.46655.57026-1.94067-.03888-4.49731-2.12787-5.64013-3.97162-8.49524-13.70728-16.69495-27.59747-25.0229-41.40894-.74352-1.23309-1.73779-2.31488-3.7622-3.31915-.13855 1.99378-.39636 3.98737-.39795 5.98126-.02832 34.99982-.0202 69.9997-.03332 104.99951-.00269 7.22059-.0274 7.19135-7.08051 7.17395-10.63184-.02624-21.26373-.00683-32.49085-.00683 0-2.93866.00483-5.03534-.00067-7.13208-.15564-59.33289-.24273-118.66614-.59796-177.9978-.02923-4.8802 1.55127-5.8407 5.90009-5.72687 9.65997.25293 19.33691.26733 28.99487-.02283 3.83295-.11517 6.17572 1.1065 8.08014 4.36603 11.3028 19.34564 22.72266 38.62292 34.12598 57.90973 3.59686 6.08355 7.26385 12.12567 11.58337 19.3283 4.7876-8.01415 8.86316-14.75964 12.86438-21.54882 11.31464-19.19837 22.5351-38.45307 34.02783-57.544.83277-1.38355 3.5437-2.25806 5.40491-2.2989 11.16156-.24524 22.33002-.17706 33.9618-.27246.46569 62.9624.46569 125.98334.46569 189.4729-1.44665.40265-2.89337.33667-5.14648.11621-7.4563-.32092-14.10535-.55053-20.7563-.63794-8.63384-.1134-9.12456-.50512-9.12945-9.00628-.01886-33.2085.05323-66.41736-.09893-99.62513-.01624-3.5515-1.27716-7.0974-1.96076-10.6458z"/><path fill="#1A377E" d="M349.46869 818c-2.08505-1.22186-3.52399-2.99164-5.34506-3.58142-19.93528-6.45642-33.52747-19.68817-40.00812-39.34094-2.54144-7.70704-2.60886-16.37744-2.91193-24.64185-.5083-13.862 2.5467-26.92065 10.7674-38.47076 12.21405-17.1609 28.4025-26.52448 49.85779-25.96662 10.56897.27484 21.00952-.5141 31.39352 3.57263 15.53116 6.11243 25.8299 17.16163 31.3518 32.09748 3.44422 9.3161 4.39838 19.6637 5.61643 29.65246.79987 6.55927.11792 6.65125-6.38605 6.70789-25.32788.22058-50.65588.42487-75.98364.65698-9.34405.0857-10.93567 2.03815-7.48508 10.81067 3.28852 8.36041 12.52582 18.3103 25.23023 17.87964 9.01117-.30542 17.00958-2.15997 24.17926-7.52966.9263-.69379 2.16351-1.38874 2.52307-2.35584 2.4551-6.60412 7.0141-6.48852 12.8346-4.95904 6.5549 1.72253 13.35278 2.52417 20.04891 3.70416 3.92191.69116 4.37061 2.7268 2.6886 6.04608-7.99725 15.78174-19.4888 27.56989-36.85794 32.8222-1.69586.5127-3.26791 1.43494-4.93997 2.5315-2.41308.36444-4.78363.36444-7.69522.25787-.83225-.1535-1.10098-.08246-1.34729.10657h-27.53131m45.10934-86.37213c-.33047-5.76166-3.7109-9.95117-7.7081-13.4472-13.61074-11.90436-39.07077-7.84858-45.48715 9.4646-2.1149 5.70654-2.16955 6.40154 4.16287 6.41229 11.326.01922 22.65561.15551 33.97635-.09235 4.92005-.10767 9.82187-1.04553 15.05603-2.33734z"/><path fill="#1A387F" d="M703.0658 250.92535c-1.45044 7.60025-2.90094 15.20053-4.37775 22.93897 4.54456 1.5021 10.04816 2.7179 15.00537 5.0803 11.76343 5.60598 16.8606 15.82787 18.06354 28.3356 1.04388 10.85333-1.62592 21.00405-7.6582 29.81738-4.69587 6.86084-3.76807 13.3286-1.57526 20.35006 4.57208 14.6399-4.08539 31.90213-20.37543 35.2504-8.58069 1.76373-16.74164 1.13483-25.44098-2.07867-.67138 4.18163-1.2384 7.87106-1.85919 11.55139-2.4367 14.44668-9.15979 26.61868-18.72082 37.67114-13.2942 15.36804-29.88892 26.00168-47.58942 35.28076-.11096.0582-.12763.29636-.35687.87863.77636.29618 1.56512.8791 2.32629.84503 10.6095-.47445 21.21698-1.5148 31.82141-1.47409 24.18714.0928 48.039 3.17069 71.39667 9.62982 2.51318.69495 5.14715 1.32773 7.34924 2.62653 1.23303.7273 2.38489 2.75812 2.39844 4.21256.20984 22.49765.21149 44.99716.3053 67.49606.01367 3.26977-.76361 4.57397-4.43103 3.2417-18.8399-6.84467-38.5337-10.24353-58.32398-12.0304-17.45148-1.57562-35.13183-2.12488-52.62128.60376-13.1665 2.05426-26.41174 3.88153-39.3803 6.86145-19.22962 4.41858-37.58484 11.44428-54.83832 21.18701-1.18128.667-3.31394.96613-4.36652.34888-19.48895-11.42737-40.54889-18.96649-62.51782-23.31451-17.46219-3.45593-35.28418-6.05615-53.04-6.7984-18.11463-.75739-36.42027.47491-54.34623 4.10235-13.17316 2.6656-26.26038 5.75586-39.90259 8.77106-.09637-1.74011-.26147-3.34875-.26306-4.95758-.02121-21.33289.04907-42.6662-.08865-63.99826-.0239-3.7016 1.01953-5.56116 4.78881-6.76886 18.47428-5.91922 37.38922-9.4306 56.7211-10.07733 18.63315-.62336 37.29431-.49356 55.94303-.48068 2.9735.00207 5.94623 1.12786 9.24249 1.04705-1.74884-1.07196-3.42578-2.28988-5.25797-3.19262-13.539-6.67084-25.3562-15.6843-36.5414-25.76175-12.0037-10.81491-21.75367-23.14554-28.29792-37.93506-1.0055-2.27228-1.82486-4.669-2.38199-7.08838-.99008-4.29932-3.32022-4.54938-6.97842-3.11038-8.4097 3.30798-16.93817 2.90692-25.2991-.2218-12.7511-4.77155-20.89033-16.99872-15.95804-33.92045 2.19995-7.54751 1.09603-13.85559-3.39661-20.5877-8.3612-12.52906-10.21655-26.63321-4.5299-40.68912 4.04421-9.99634 12.35073-16.21445 23.19592-19.32642-2.57749-11.10601-5.16144-22.23996-7.84958-33.8228-4.7258 5.57128-9.18262 11.03063-13.85627 16.29753-15.33325 17.2797-33.27377 30.38349-56.29335 35.67917-24.03709 5.52982-48.12928 4.56516-72.29211 1.38153-1.24182-.16363-2.42297-.78762-4.23317-1.40084 1.34694-1.24897 2.15967-2.25873 3.1943-2.9227 11.65787-7.48145 15.45444-19.31037 16.31931-31.95578.90335-13.20775.2661-26.51975.35185-39.78588.01099-1.7017.31972-3.40152.58985-6.091 4.07426 3.19693 7.45538 5.51824 10.4523 8.25955 12.33372 11.28174 26.69684 12.1937 42.0251 8.55367 19.34051-4.59284 32.69772-17.73296 45.39816-31.80048 2.0715-2.29446 4.0495-4.67334 6.81226-7.87166-28.67728-4.1858-54.42005-13.61047-78.54395-31.17607 5.8119-3.44455 10.47248-5.83116 14.72397-8.80298 9.47298-6.6216 16.9799-14.58769 19.28069-26.68898 2.13894-11.25012 1.64189-22.30034-.19129-33.44364-.32968-2.0041-.26886-4.07242-.38833-6.1111l1.29406-.72803c1.66144 1.3895 3.36275 2.73436 4.97774 4.1759 9.1468 8.1645 17.61524 17.27961 27.55225 24.32565 17.0903 12.1182 36.27871 19.1667 57.70645 18.72959 6.82522-.1392 13.71985.78456 20.4748.12195 8.54604-.83834 17.19182-2.07387 25.41518-4.45067 11.81516-3.4149 23.2652-8.08048 34.91593-12.0816 6.51257-2.23655 13.11575-4.2093 20.22635-6.47568-.7449-2.01274-1.26194-3.89418-2.10746-5.61412-4.70193-9.56405-6.36163-19.27774-3.67944-29.93949 1.33566-5.30947.24933-11.18289.7818-16.75117.67813-7.0911 3.2652-13.57075 7.64523-19.27992 10.71994-13.97298 24.24765-23.82645 41.30542-28.76702 22.38556-6.48371 44.77762-6.11746 66.55551 1.5987 18.45587 6.53916 33.89704 17.43712 42.13239 36.40958 3.56805 8.2199 2.31232 16.66673 2.46973 25.09714.06011 3.21835.21447 6.46093.67974 9.64069 1.245 8.50945-.7127 16.44629-3.95697 24.1887-.69146 1.65008-1.52514 3.24058-2.54907 5.39723 8.14807 2.84332 15.91779 5.41732 23.5885 8.25855 18.75836 6.94812 36.2541 16.20664 51.9986 28.66117 4.38708 3.4704 9.08972 6.5408 13.4939 9.99096 7.79125 6.1035 13.18713 14.05245 16.68261 23.21355 5.44855 14.28001 7.97168 29.17425 8.63147 44.40797.23987 5.53658.47016 11.07358.50647 16.89733-.1983.28695-.40399.40214-.40399.40214l.3205-.04207m-46.77912 154.39276c.34528-2.40481.73224-4.8045 1.02918-7.21527 1.9961-16.20718 3.82861-32.4361 5.99933-48.61975 1.95605-14.58368 4.05163-29.15667 6.51849-43.66082 1.5014-8.82782 4.6247-17.65632.96075-26.43128-4.84063-11.59286-9.10717-23.72177-15.92395-34.1086-6.62384-10.0929-15.1712-19.55715-24.71618-26.904-8.021-6.17374-18.50495-9.40492-28.2342-13.04018-13.7376-5.13293-27.72595-3.10689-40.73046 2.31777-9.08301 3.78884-17.07593 10.14535-25.68067 15.13975-7.75573 4.5016-15.81787 8.1278-24.91662 3.77306-10.02259-4.79686-20.20786-9.32582-29.89347-14.73874-16.76416-9.36884-35.0997-10.32679-52.7355-6.86292-18.62656 3.6585-35.008 13.98258-48.8541 27.38709-11.69912 11.326-18.88336 25.47027-23.21582 40.94326-1.8457 6.5918-3.3969 13.79368-2.6657 20.45298 1.03875 9.46072 5.06805 18.56595 6.444 28.02316 2.04525 14.05792 2.97482 28.28314 4.21697 42.45142 1.16983 13.3428 1.41556 26.98495 7.79886 39.11023 4.50943 8.56576 9.5225 17.15576 15.81995 24.428 11.57709 13.3692 25.81747 23.64722 41.71756 31.6251 23.85537 11.96945 48.78994 19.01986 75.71994 17.97183 8.26034-.32144 16.61038.422 24.7889-.49075 14.07868-1.57123 28.34388-2.93055 42.0063-6.42795 20.32385-5.2027 38.9577-14.5499 55.77471-27.42923 12.8573-9.84671 22.84314-21.6438 28.77173-37.69416m-94.18616-317.964c-4.76434-1.25993-9.4843-2.7338-14.30303-3.7312-7.8451-1.62386-15.75342-4.11456-23.63727-4.12257-14.20713-.01443-28.48957.927-42.59946 2.63494-10.44159 1.26392-20.70633 4.18817-30.95782 6.7422-5.37683 1.33958-6.306 3.24164-4.26163 8.36957 2.00857 5.03814 4.54025 9.89181 7.18866 14.633.62292 1.11513 2.7233 2.18403 3.9982 2.03417 11.4913-1.35068 22.90942-3.62323 34.42944-4.35013 12.60776-.79553 25.32681-.75318 37.94919-.11785 11.47888.57777 22.927 2.20429 34.3219 3.83527 5.87402.84078 9.06006-2.07436 11.53973-6.49178 1.35895-2.42083 2.69825-5.03154 3.17005-7.71094.3349-1.90162-.18525-5.2976-1.37995-5.88755-4.68261-2.31232-9.7846-3.77557-15.458-5.83714M326.278 381.02927c3.18198 4.15628 7.809 1.83374 11.64481 2.1581 4.08011.34507 9.81424-6.91573 9.69653-10.59902-.5589-17.48847-1.07241-34.98154-5.20099-52.10639-.55194-2.28946-1.0823-4.7981-2.40731-6.64114-2.50785-3.48819-5.51172-6.63644-8.47354-9.77096-.82343-.87144-2.39759-1.89267-3.32962-1.65879-4.98139 1.25-9.83735 2.6291-12.5735 7.88321-3.40365 6.53601-2.77712 13.09558-.8532 19.66751.96796 3.30637 2.45712 6.57263 4.29205 9.49143 5.3295 8.47744 5.9021 17.48257 3.34943 26.81054-1.50632 5.50418-.45563 10.13227 3.85534 14.7655m369.8545-89.37536c-4.90375-.86762-6.0799 2.75735-6.83637 6.1691-2.27429 10.25604-4.71405 20.51086-6.21814 30.8924-1.56683 10.81371-2.45507 21.75845-2.97217 32.67754-.25512 5.38785 1.60846 10.51383 6.92182 13.46418 5.57214 3.09402 10.2295-.13327 14.208-2.96646 4.00349-2.85096 2.55585-7.76102 1.7433-11.99585-.12482-.65052-.42457-1.26954-.52955-1.92145-1.02649-6.37372-2.67279-12.77606.30756-19.06922 2.19946-4.64428 5.11291-9.0553 6.58978-13.9104 1.84479-6.06488 4.39337-12.83532 3.2727-18.6528-1.44445-7.4978-7.00433-13.48361-16.48693-14.68704M520.12817 499.66946l8.862-4.72827c-.13196-.30533-.26397-.61068-.39593-.91601H493.1575c3.92145 2.65011 7.98343 4.38666 11.86493 6.4609 4.97492 2.65854 9.71872 2.49567 15.10574-.81662z"/><path fill="#1B377E" d="M637.07813 726.1803c-3.33442-6.48651-8.4109-9.1717-15.25062-8.77258-3.39398.19811-7.01226-.40857-10.15228.56463-12.3537 3.82855-16.47168 14.30902-16.87054 26.15051-.71784 21.30976-.55329 42.65271-.5191 63.98139.00707 4.4364-1.18195 6.17071-5.89948 5.9862-8.9853-.3515-17.99536-.18841-26.99231-.05243-3.16608.0478-4.44342-.98132-4.4209-4.28698.25354-37.32562.40692-74.65186.58478-111.97797.01092-2.302.0014-4.60412.0014-7.35315h36.01886c.59528 2.72797 1.20899 5.54028 1.724 7.90064 6.39636-3.57373 12.16437-8.55512 18.74835-10.13459 17.47742-4.19262 35.19977-5.12286 50.23993 7.4682 9.90888 8.29535 13.732 19.91395 13.8783 32.44062.31323 26.82666.0559 53.65973.14288 80.4898.01196 3.68409-.94812 5.39136-5.06128 5.26831-9.32123-.2788-18.65912-.25537-27.9834-.04858-3.44543.07648-4.23706-1.33136-4.25988-4.3924-.17023-22.82983-.27948-45.66265-.81464-68.48498-.11322-4.82886-1.9013-9.61853-3.11407-14.74664zM76.98379 795.9984c.1101-34.32452.27294-68.1496.248-101.97442-.00247-3.349 1.34819-3.92633 4.1359-3.91675 8.83123.03033 17.6669.06665 26.49256-.18744 3.83544-.11035 5.5751 1.04382 5.16598 5.07904-.20693 2.04102.16798 4.141.3127 6.82373 3.5951-3.12036 6.35174-5.9231 9.5061-8.16663 6.90181-4.90893 14.40706-8.1311 23.19602-7.68463 8.43556.4284 16.97387-.76062 25.14929 2.62366 10.34802 4.28363 18.2484 11.21619 22.00333 21.75208 2.17224 6.09503 3.5844 12.78881 3.68174 19.2381.3948 26.15637.0794 52.32287.20859 78.48467.02008 4.06672-.77132 5.97736-5.4154 5.81989-8.65145-.29334-17.32941-.10394-25.986.1892-3.86285.13087-4.79368-1.42663-4.74043-4.99401.34079-22.8255 1.05865-45.66797.44533-68.47247-.20955-7.79163-2.43612-16.146-10.33126-21.05799-6.82737-4.24768-21.40515-3.00024-27.68116 2.1869-7.75978 6.41332-10.1442 15.27831-10.36695 24.39507-.50454 20.6493-.16082 41.32325.09352 61.98401.0551 4.47614-1.16233 6.20356-5.85882 5.98358-8.81555-.41272-17.65746-.41278-26.48566-.3208-2.9477.0307-3.81434-1.11895-3.77046-3.78778.07396-4.49792.0056-8.99823-.00292-13.997z"/><path fill="#1A377D" d="M752.51428 637.01819c.39148 45.13183.7732 89.76727 1.1659 134.40246.06713 7.63373.09039 7.50867 7.76757 7.61805 15.14844.21576 30.29438.5971 45.44208.87304 1.7865.0326 3.57727-.16558 5.75482-.27667v34.2315c-5.53363 0-10.7976-.00823-16.06158.00141-25.48303.04682-50.96698-.005-76.44812.24274-4.64166.04516-5.99213-1.47351-5.96277-5.98627.37897-58.2918.61017-116.58453.88202-174.87707.00622-1.33222.38714-2.76502.02222-3.97925-1.69257-5.6311 1.13775-6.31507 5.82977-6.12659 9.64325.3872 19.30633.27081 28.95202.61847.98597.03552 2.63367 1.74927 2.72706 2.7956.29406 3.29345-.00666 6.64007-.07099 10.46258z"/><path fill="#1B377D" d="M266.11762 648.41266c.3304 12.33765.57696 24.3227.57632 36.30774-.00021 3.54516 1.5795 4.7409 4.80435 4.71911 5.96945-.04028 11.93933-.01153 18.64502-.01153 0 10.30804.08896 19.5827-.15692 28.84845-.0213.8031-2.2387 2.18219-3.45978 2.20886-5.10663.11157-10.22244-.18634-15.33468-.34265-4.2541-.13007-4.17966 2.83899-4.20542 5.79633-.1901 21.81866-.3865 43.6372-.60211 65.45562-.06088 6.1623-.25855 12.32385-.26178 18.48584-.00153 2.89502-1.057 4.1883-4.11984 4.15582-10.64124-.11279-21.28438-.04357-32.48252-.04357-.19333-2.54798-.47097-4.63062-.49138-6.71576-.25096-25.64899-.57716-51.2981-.62791-76.94776-.01848-9.34362.53044-11.02405-12.25795-9.80993-.15009-1.7099-.44006-3.42371-.42615-5.13501.05553-6.82837.44054-13.66327.22826-20.48096-.11787-3.78534 1.13362-5.04273 4.8153-4.88245 2.4395.10627 4.91144-.53186 7.90967-.90387.10538-1.79821.28371-3.56073.29964-5.32476.0917-10.1593.35614-20.3241.11273-30.4762-.10475-4.3692.6623-6.08911 5.6266-5.84796 8.6312.41919 17.3086-.169 25.96726-.21302 1.75293-.0089 3.50854.52265 5.44128 1.15766z"/><path fill="#1B387E" d="M2.8094 813.63428c-.23413-11.98737-.03543-23.86597.10869-36.21479-.04056-51.45874-.02653-102.4472.00009-153.89978 10.96745-.2459 21.922.0749 32.87743.10913 2.35973.00733 3.63052-.2293 3.61931 2.89338-.10746 29.94366-.09037 59.88806-.02007 89.83203.0711 30.28332.14127 60.56756.46899 90.84863.0557 5.14716-1.38314 6.96985-6.69188 6.74616-9.9618-.4195-19.9516-.1745-30.36256-.31476z"/><path fill="#1B377E" d="M455.78293 731.99988c.00247-14.10742.00247-27.7149.00247-41.91956 11.51117 0 22.27844-.0846 33.03897.14545.95758.0205 2.4714 1.982 2.68854 3.22351.56226 3.21484.54413 6.53119.78818 10.27435 2.43121-2.59521 4.75671-4.95636 6.94622-7.43762 6.30881-7.14947 14.33704-10.32403 23.71485-10.1325 5.26129.10742 10.56042.3283 15.7392 1.14971 1.32018.20947 3.3355 3.021 3.17956 4.43238-1.1037 9.9881-2.68976 19.9229-4.14453 30.03143-5.24042-1.39404-9.91028-2.78327-14.6504-3.86365-7.52935-1.71618-20.5482 3.5224-24.93356 10.11792-4.17767 6.2832-6.17056 13.10193-6.09216 20.8753.20325 20.14515-.2412 40.29633-.34476 60.44562-.01751 3.4098-1.35635 4.55408-4.80496 4.48761-8.15368-.15728-16.31503.13416-24.47354.15973-6.64685.02082-6.6955-.0335-6.6968-6.55224-.00498-24.97913.02398-49.95826.04272-75.43744z"/><path fill="#203569" d="M981.71826 693.14105c.87342 3.13977 2.13434 6.68567 2.15058 10.23719.15216 33.20776.08007 66.41662.09893 99.62512.00489 8.50116.4956 8.89288 9.12946 9.00628 6.65094.0874 13.29999.31702 20.3233.60071-7.55798.51703-15.4867 1.16547-23.42145 1.2511-9.10138.09827-9.06524-.11877-9.11517-9.0238-.1914-34.1488-.44177-68.2973-.5606-102.4463-.01026-2.9458.78442-5.89434 1.39495-9.2503z"/><path fill="#000001" d="M562.46411 87.49555c5.30982 1.92012 10.4118 3.38337 15.09442 5.69569 1.1947.58995 1.71485 3.98593 1.37995 5.88755-.4718 2.6794-1.8111 5.29011-3.17005 7.71094-2.47967 4.41742-5.6657 7.33256-11.53973 6.49178-11.3949-1.63098-22.84302-3.2575-34.3219-3.83527-12.62238-.63533-25.34143-.67768-37.94919.11785-11.52002.7269-22.93814 2.99945-34.42944 4.35013-1.2749.14986-3.37528-.91904-3.9982-2.03417-2.6484-4.74119-5.18009-9.59486-7.18866-14.633-2.04437-5.12793-1.1152-7.03 4.26163-8.36956 10.2515-2.55404 20.51623-5.47829 30.95782-6.74221 14.1099-1.70794 28.39233-2.64937 42.59946-2.63494 7.88385.00801 15.79217 2.49871 23.63727 4.12256 4.81872.9974 9.5387 2.47128 14.66662 3.87265z"/><path fill="#1B377C" d="M604.63806 312.58667c-11.17523 12.49329-22.62146 24.31934-32.7934 37.15527-5.57647 7.03693-9.03344 15.76123-13.38684 23.75696-2.82574 5.18991-7.46514 7.98361-11.96728 6.54175-6.63239-2.12409-10.04413-5.14118-9.32666-11.4806.50952-4.50213 1.28796-9.15731 3.00879-13.30325 4.56189-10.99096 11.93036-20.18136 19.9779-28.84204 5.03156-5.41497 9.5509-11.40621 15.0965-16.2217 10.4535-9.07722 21.46747-17.5105 32.30023-26.14646.8648-.68942 2.09992-1.00284 3.2157-1.27307 3.94427-.95526 7.96527-1.74509 10.93475 2.0859 2.48786 3.20963 2.26001 9.04374-1.02075 12.46235-5.02264 5.2336-10.49621 10.03442-16.03894 15.26489zm-159.58203 29.39444c-14.10236-15.40552-28.18701-30.3746-41.92752-45.6532-2.05283-2.28262-3.81915-6.21933-3.3927-9.03918.84048-5.55756 5.77567-7.90933 11.01-5.4972 4.8978 2.25705 9.58412 5.2494 13.81947 8.60483 6.8703 5.44293 13.95202 10.85825 19.76898 17.34018 11.12717 12.39914 21.95566 25.15161 31.81976 38.5582 4.11835 5.59738 8.08875 12.20648 7.62973 20.13489-.36157 6.24487-3.094 11.4082-7.27273 12.38458-6.1651 1.44052-10.57541-1.13046-14.16587-7.45569-5.54986-9.77698-11.42343-19.37024-17.28912-29.37741z"/><path fill="#1B377E" d="M599.90466 387.29718c7.11066 1.4309 13.15955 3.61072 17.61524 9.55966 7.11218 9.49582 5.76825 23.10797-2.12592 32.49161-8.74512 10.39502-27.72772 9.3866-35.03613.42334-11.04602-13.54712-5.80945-35.40216 12.05475-40.67423 2.33252-.68838 4.71942-1.19256 7.49206-1.80038z"/><path fill="#1B377D" d="M404.19006 406.66559c5.89075-17.8697 26.25077-24.2515 39.542-12.51096 2.68017 2.36743 4.54248 6.10324 5.79007 9.56558 3.49887 9.70997-1.00534 21.98145-9.2082 28.4398-12.45819 9.80859-31.5433 4.16992-35.3236-10.76704-1.1507-4.54687-.6156-9.52035-.80027-14.72738z"/></svg>