<svg xmlns="http://www.w3.org/2000/svg" role="img" viewBox="0.38 0.38 71.11 29.11"><title>Intel Corporation logo</title><style>svg {enable-background:new 0 0 72 30}</style><path fill="#00c7fd" d="M1.8 2.1h4.96v4.96H1.8z"/><path fill="#0068b5" d="M6.63 27.9V10.06h-4.7V27.9h4.7zm31.15.18v-4.37c-.69 0-1.26-.04-1.7-.11-.48-.08-.86-.24-1.1-.49-.25-.25-.41-.61-.49-1.07-.07-.44-.11-1.02-.11-1.72v-6.24h3.4v-4.02h-3.4V3.11h-4.7v17.24c0 1.45.13 2.69.38 3.68.25.97.67 1.77 1.25 2.37.58.6 1.36 1.03 2.29 1.29.95.26 2.15.39 3.58.39h.6zm26.93-.18V1.74h-4.7V27.9h4.7zM25.15 11.82C23.84 10.41 22 9.7 19.68 9.7c-1.12 0-2.16.23-3.08.69-.92.46-1.71 1.1-2.33 1.9l-.26.33V10.06H9.37V27.9h4.67v-9.5.34c.05-1.67.46-2.91 1.24-3.7.83-.84 1.83-1.27 2.98-1.27 1.36 0 2.39.42 3.08 1.23.67.8 1.01 1.95 1.02 3.42v9.48h4.74V17.77c.01-2.54-.65-4.54-1.95-5.95zm32.41 7.12c0-1.28-.23-2.49-.68-3.61-.45-1.11-1.09-2.1-1.89-2.95-.8-.84-1.78-1.51-2.91-1.98-1.12-.46-2.38-.7-3.73-.7-1.28 0-2.5.25-3.62.73-1.13.49-2.12 1.15-2.95 1.98-.83.83-1.5 1.82-1.98 2.95-.49 1.12-.73 2.34-.73 3.62 0 1.28.23 2.5.7 3.62.46 1.13 1.11 2.12 1.93 2.94.82.83 1.82 1.5 2.98 1.98 1.16.49 2.45.73 3.82.73 3.98 0 6.46-1.81 7.94-3.5l-3.38-2.58c-.71.85-2.4 1.99-4.52 1.99-1.33 0-2.42-.31-3.24-.91-.83-.61-1.4-1.44-1.7-2.48l-.05-.17h14.01v-1.66zm-13.97-1.63c0-1.31 1.5-3.59 4.73-3.59 3.23 0 4.73 2.28 4.73 3.58l-9.46.01zm26.47 8.34c-.09-.21-.22-.39-.37-.55-.16-.16-.34-.28-.55-.37-.21-.09-.44-.14-.68-.14-.24 0-.47.05-.68.14-.21.09-.39.22-.55.37-.16.16-.28.34-.37.55-.09.21-.14.44-.14.68 0 .24.05.47.14.68.09.21.22.39.37.55.16.16.34.28.55.37.21.09.44.14.68.14.24 0 .47-.05.68-.14.21-.09.39-.22.55-.37.16-.16.28-.34.37-.55.09-.21.14-.44.14-.68 0-.24-.05-.47-.14-.68zm-.28 1.23c-.07.17-.18.33-.31.46s-.28.23-.46.31c-.17.07-.36.11-.56.11-.2 0-.38-.04-.56-.11-.17-.07-.33-.18-.46-.31s-.23-.28-.31-.46c-.07-.17-.11-.36-.11-.56 0-.2.04-.38.11-.56.07-.17.18-.33.31-.46s.28-.23.46-.31c.17-.07.36-.11.56-.11.2 0 .38.04.56.11.17.07.33.18.46.31s.23.28.31.46c.07.17.11.36.11.56 0 .2-.04.39-.11.56zm-.99-.41c.14-.02.25-.07.34-.15.09-.09.13-.22.13-.39 0-.19-.06-.34-.17-.44-.11-.1-.29-.15-.53-.15h-.77v1.99h.36v-.81h.27l.5.81h.38l-.51-.86zm-.2-.29c-.06 0-.11.01-.17.01h-.27v-.56H68.59c.06 0 .11.01.15.03.05.02.08.05.11.08.03.04.04.09.04.15s-.01.12-.04.15c-.03.04-.06.07-.11.08-.04.04-.09.05-.15.06z"/></svg>