<svg xmlns="http://www.w3.org/2000/svg" role="img" viewBox="-2.61 -1.11 278.72 66.97"><title>Intersectional Fairness logo</title><defs><style>.cls-2{fill:#ff1b6b}</style></defs><path fill="#0061ff" d="M100.55885 8.36946v20.17871h-3.04492V8.36947h3.04492zm6.86621 11.19239v8.98632h-2.94629V13.41341h2.82764v2.46386h.1875c.34814-.80175.89502-1.4453 1.64063-1.93164.74511-.48535 1.68603-.72851 2.82275-.72851 1.03125 0 1.93457.21484 2.70947.6455.7749.4297 1.37598 1.06837 1.80322 1.91602.42676.84766.64063 1.89551.64063 3.14356v9.62597h-2.94629V19.2767c0-1.09668-.28564-1.95606-.85742-2.57715-.57129-.62012-1.35645-.93066-2.3545-.93066-.68359 0-1.28954.14746-1.81786.44336-.52881.2959-.9463.72753-1.25147 1.2959-.30566.56835-.458 1.25292-.458 2.0537zm20.41309-6.14844v2.36523h-8.2666v-2.36523h8.2666zm-6.0498-3.625h2.94628v14.3164c0 .5713.08545 1 .25635 1.28516.17041.28613.3921.4795.66504.58203.27246.10156.56982.15234.8916.15234.23633 0 .44336-.0166.6206-.04882.17725-.0332.31544-.05957.41407-.0791l.53174 2.43359c-.1709.06543-.41358.13281-.729.20215-.31544.06836-.70948.10644-1.18213.11328-.7754.0127-1.49805-.125-2.16797-.41406s-1.21192-.73536-1.6255-1.33985c-.41405-.60449-.62109-1.36328-.62109-2.27636V9.7884zm15.38915 19.06543c-1.4912 0-2.77392-.32032-3.84765-.96094-1.07422-.64063-1.90186-1.54395-2.4834-2.70996-.58106-1.16504-.87158-2.5332-.87158-4.10352 0-1.5498.29052-2.91601.87158-4.09863.58154-1.18262 1.396-2.10547 2.44385-2.76855 1.04736-.66407 2.27441-.99512 3.68017-.99512.85352 0 1.68116.14062 2.48291.42383.80127.28222 1.52051.72558 2.15772 1.33007s1.13965 1.3877 1.50732 2.34961c.36817.96192.55225 2.12989.55225 3.50293v1.04395H131.6399v-2.20703h9.14355c0-.77442-.15771-1.4629-.47314-2.06446-.31494-.60058-.75684-1.0752-1.3252-1.42285-.56787-.34863-1.2329-.52246-1.99512-.52246-.82763 0-1.54834.20215-2.1626.60547-.61425.4043-1.0874.92969-1.41894 1.57715-.33154.64648-.49756 1.34766-.49756 2.10351v1.72364c0 1.01172.17871 1.87207.53711 2.58203.35791.70898.8584 1.25 1.50244 1.6211.64356.37109 1.396.55663 2.25635.55663.5581 0 1.06738-.08105 1.52735-.24218.45947-.16016.85693-.40137 1.19189-.72364.33545-.32226.5913-.71972.76855-1.19238l2.78858.50293c-.22315.82129-.62256 1.53809-1.19727 2.15234s-1.29394 1.09082-2.15771 1.42871c-.86377.33887-1.84717.50782-2.95069.50782zm9.49659-.30567V13.41341h2.84765v2.4043h.15772c.27588-.81446.76318-1.45606 1.46289-1.92579s1.49267-.70507 2.3794-.70507c.18407 0 .40234.00683.65527.0205.25293.0127.45166.0293.59619.04883v2.81836c-.11817-.0332-.32862-.07129-.63037-.11328-.30225-.04297-.6045-.06445-.90674-.06445-.6963 0-1.31543.14648-1.85742.43847-.5415.292-.97022.6963-1.28565 1.21192s-.47265 1.10156-.47265 1.75879v9.24218h-2.9463zm21.72412-11.43945l-2.66992.47266c-.11182-.34082-.2876-.66602-.52735-.97559-.23974-.3086-.56348-.56152-.9707-.75781-.40723-.19727-.91602-.2959-1.52686-.2959-.83447 0-1.53076.18555-2.08886.55664-.5586.3711-.8379.84863-.8379 1.4336 0 .50585.1875.91308.56202 1.22167.37402.3086.97851.56153 1.81299.7588l2.4038.55175c1.39258.32227 2.43067.81738 3.11377 1.48828.6831.66992 1.02442 1.54004 1.02442 2.61035 0 .90625-.26074 1.7129-.7832 2.41895-.52198.70605-1.24805 1.25976-2.17725 1.66015-.92969.40137-2.00537.60157-3.22705.60157-1.69483 0-3.07764-.36328-4.14795-1.08887-1.0708-.72559-1.72803-1.75879-1.9707-3.09863l2.84765-.4336c.17725.7422.5415 1.30176 1.09326 1.6797s1.27149.5664 2.1582.5664c.96534 0 1.73731-.20215 2.31544-.60547.57763-.4043.8667-.89844.8667-1.4834 0-.47266-.17579-.87012-.52686-1.19238-.35156-.3213-.88867-.56446-1.61084-.72852l-2.56201-.56152c-1.41211-.32227-2.45508-.83399-3.12842-1.53711s-1.00977-1.59277-1.00977-2.6709c0-.89258.24952-1.6748.74854-2.34473.49951-.66992 1.18896-1.19336 2.06934-1.57129s1.88867-.5664 3.0249-.5664c1.63574 0 2.92285.35254 3.8623 1.0586s1.56006 1.65038 1.8623 2.833zm9.77295 11.74512c-1.49121 0-2.77393-.32032-3.84766-.96094-1.07422-.64063-1.90186-1.54395-2.4834-2.70996-.58105-1.16504-.87158-2.5332-.87158-4.10352 0-1.5498.29053-2.91601.87158-4.09863.58154-1.18262 1.396-2.10547 2.44385-2.76855 1.04736-.66407 2.27441-.99512 3.68018-.99512.85351 0 1.68115.14062 2.4829.42383.80128.28222 1.52051.72558 2.15772 1.33007s1.13965 1.3877 1.50732 2.34961c.36817.96192.55225 2.12989.55225 3.50293v1.04395h-12.03076v-2.20703h9.14355c0-.77442-.15771-1.4629-.47314-2.06446-.31494-.60058-.75684-1.0752-1.3252-1.42285-.56787-.34863-1.2329-.52246-1.99511-.52246-.82764 0-1.54834.20215-2.1626.60547-.61426.4043-1.0874.92969-1.41895 1.57715-.33154.64648-.49755 1.34766-.49755 2.10351v1.72364c0 1.01172.1787 1.87207.5371 2.58203.35791.70898.8584 1.25 1.50245 1.6211.64355.37109 1.396.55663 2.25634.55663.5581 0 1.06739-.08105 1.52735-.24218.45947-.16016.85693-.40137 1.1919-.72364.33544-.32226.5913-.71972.76855-1.19238l2.78857.50293c-.22314.82129-.62256 1.53809-1.19726 2.15234s-1.29395 1.09082-2.15772 1.42871c-.86377.33887-1.84717.50782-2.95068.50782zm15.87109 0c-1.46484 0-2.7246-.33399-3.7788-1-1.0542-.667-1.86378-1.5879-2.42872-2.76367s-.84717-2.52247-.84717-4.04004c0-1.53711.28858-2.89551.8667-4.07422s1.39258-2.10059 2.44385-2.76367c1.05078-.66407 2.28906-.99512 3.71436-.99512 1.1494 0 2.17431.21191 3.07421.63476.8999.42383 1.62745 1.0166 2.18262 1.7793.55469.76172.88477 1.65137.99024 2.66992h-2.8672c-.1577-.70996-.51757-1.32031-1.0791-1.833-.56152-.51172-1.312-.76856-2.25146-.76856-.82129 0-1.53857.21582-2.15283.6455-.61426.43067-1.09229 1.04102-1.4336 1.83302-.3418.79101-.5122 1.72558-.5122 2.80273 0 1.10352.16748 2.05664.50244 2.85742.33496.80176.80957 1.42285 1.42383 1.8623.61377.44044 1.33838.66016 2.17236.66016.5581 0 1.06592-.10351 1.52246-.31054s.84082-.50391 1.15283-.8916.53028-.85352.65528-1.39942h2.86719c-.10547.9795-.42383 1.85254-.95606 2.6211-.53174.76855-1.24316 1.37304-2.13281 1.81347-.89014.43945-1.9331.66016-3.12842.66016zm16.167-15.44043v2.36523h-8.2666v-2.36523h8.2666zm-6.04981-3.625h2.94629v14.3164c0 .5713.08545 1 .25634 1.28516.17041.28613.3921.4795.66504.58203.27246.10156.56983.15234.8916.15234.23633 0 .44336-.0166.62061-.04882.17725-.0332.31543-.05957.41406-.0791l.53174 2.43359c-.1709.06543-.41357.13281-.729.20215-.31543.06836-.70948.10644-1.18213.11328-.7754.0127-1.49805-.125-2.16797-.41406s-1.21191-.73536-1.62549-1.33985c-.41406-.60449-.6211-1.36328-.6211-2.27636V9.7884zm10.51172 1.29004c-.51221 0-.95069-.17188-1.31543-.5166-.36475-.3457-.54688-.75782-.54688-1.23731 0-.48535.18213-.90137.54688-1.2461s.80322-.51757 1.31543-.51757.95068.17285 1.31543.51758.54687.75683.54687 1.23632c0 .48633-.18213.90137-.54687 1.24707-.36475.34473-.80323.5166-1.31543.5166zm-1.4878 17.46972V13.41341h2.9463v15.13476h-2.9463zm13.0044.30567c-1.41895 0-2.65723-.3252-3.71485-.97559s-1.87841-1.56055-2.46289-2.7295c-.58496-1.16894-.87695-2.53515-.87695-4.09862 0-1.57032.292-2.94239.87695-4.11914.58448-1.17579 1.40528-2.08887 2.4629-2.73829 1.05761-.65039 2.2959-.97558 3.71484-.97558s2.65674.3252 3.71435.97558c1.05762.64942 1.87891 1.5625 2.46338 2.73829.58448 1.17675.87696 2.54882.87696 4.11914 0 1.56347-.29248 2.92968-.87696 4.09863s-1.40576 2.0791-2.46338 2.7295-2.2954.97558-3.71435.97558zm.00976-2.47364c.91944 0 1.68164-.24218 2.28614-.72851.604-.48633 1.05224-1.13379 1.34472-1.9414.292-.80762.43848-1.69825.43848-2.66993 0-.96582-.14648-1.8545-.43848-2.66504-.29248-.81151-.74072-1.46387-1.34472-1.95605-.6045-.49317-1.3667-.73926-2.28614-.73926-.92627 0-1.69336.2461-2.30078.73926-.60742.49218-1.05761 1.14454-1.3496 1.95605-.29249.81055-.43848 1.69922-.43848 2.66504 0 .97168.146 1.8623.43847 2.66992.292.80762.7422 1.45508 1.34961 1.9414s1.37451.72852 2.30078.72852zm12.99463-6.81835v8.98632h-2.94629V13.41341h2.82764v2.46386h.1875c.34814-.80175.89502-1.4453 1.64063-1.93164.74511-.48535 1.68603-.72851 2.82275-.72851 1.03125 0 1.93457.21484 2.70947.6455.7749.4297 1.37598 1.06837 1.80322 1.91602.42676.84766.64063 1.89551.64063 3.14356v9.62597h-2.94629V19.2767c0-1.09668-.28564-1.95606-.85742-2.57715-.5713-.62012-1.35645-.93066-2.3545-.93066-.68359 0-1.28954.14746-1.81786.44336-.52881.2959-.9463.72753-1.25147 1.2959-.30566.56835-.458 1.25292-.458 2.0537zm17.75293 9.32128c-.95898 0-1.82617-.1787-2.60107-.5371-.7754-.35743-1.3877-.87794-1.8379-1.56153-.4497-.6836-.6748-1.5205-.6748-2.5127 0-.85351.16407-1.55663.49268-2.1084s.77197-.98827 1.33008-1.31054c.5581-.32129 1.18261-.56445 1.87207-.7295.68994-.16405 1.39258-.28808 2.10888-.37401a390.34882 390.34882 0 0 0 2.20703-.26075c.56446-.06933.9751-.18261 1.23145-.33984.25635-.1582.38428-.41406.38428-.76856v-.06933c0-.86035-.24121-1.52735-.72412-2s-1.20069-.70996-2.15284-.70996c-.99218 0-1.77197.21875-2.34033.65527-.56836.4375-.96045.92188-1.17724 1.4541l-2.76856-.63086c.32813-.91992.80908-1.66406 1.44336-2.23144.63379-.56836 1.36475-.98242 2.19238-1.24219.82764-.25879 1.69776-.38867 2.61084-.38867.6045 0 1.24659.07031 1.92627.21191.6797.14063 1.3169.39844 1.91162.77344.59424.37402 1.08204.9082 1.4629 1.60059.38085.69336.57177 1.5918.57177 2.6953v10.04981h-2.87744v-2.06933h-.11816c-.19043.38086-.47608.75586-.85694 1.12304-.38134.36817-.8706.67383-1.46826.917s-1.31396.36425-2.14795.36425zm.64063-2.36425c.81445 0 1.5122-.16114 2.09375-.4834.58105-.3213 1.02441-.74414 1.33008-1.26563.30517-.52246.458-1.08203.458-1.68066v-1.9502c-.10498.1045-.30713.20215-.60595.29004-.29883.08887-.63868.16504-1.01953.22656a44.19219 44.19219 0 0 1-1.11377.16797 574.40868 574.40868 0 0 0-.90625.12305c-.5713.07227-1.09229.19336-1.56153.36426-.46972.1709-.84424.41601-1.12353.73437s-.41846.74024-.41846 1.2666c0 .72852.26904 1.2793.80762 1.6504s1.2251.55664 2.05957.55664zm13.41845-18.14942v20.17871h-2.94628V8.36947h2.94628zM97.51393 57.21907v-20.1787h12.51367v2.6201h-9.46875v6.14845h8.57178v2.61132h-8.57178v8.79883h-3.04492zm20.08936.33496c-.95899 0-1.82618-.1787-2.60108-.5371-.77539-.35743-1.3877-.87794-1.83789-1.56153-.4497-.6836-.6748-1.5205-.6748-2.5127 0-.85351.16406-1.55664.49267-2.1084s.77197-.98828 1.33008-1.31054c.5581-.32129 1.18262-.56445 1.87207-.7295.68994-.16406 1.39258-.28808 2.10889-.37402a390.34882 390.34882 0 0 0 2.20703-.26074c.56445-.06933.9751-.18262 1.23144-.33984.25635-.1582.38428-.41406.38428-.76856v-.06933c0-.86035-.24121-1.52735-.72412-2s-1.20068-.70996-2.15283-.70996c-.99219 0-1.77198.21875-2.34033.65527-.56836.4375-.96045.92187-1.17725 1.4541l-2.76856-.63086c.32813-.91992.80909-1.66406 1.44336-2.23144.6338-.56836 1.36475-.98243 2.19239-1.2422.82763-.25878 1.69775-.38866 2.61084-.38866.60449 0 1.24658.0703 1.92627.21191.67968.14063 1.3169.39844 1.91162.77344.59424.37402 1.08203.9082 1.46289 1.60058.38086.69336.57178 1.5918.57178 2.69532v10.0498h-2.87745v-2.06933h-.11816c-.19043.38086-.47607.75586-.85693 1.12304-.38135.36817-.8706.67383-1.46827.917s-1.31396.36425-2.14794.36425zm.64062-2.36426c.81445 0 1.5122-.16113 2.09375-.4834.58106-.32128 1.02441-.74413 1.33008-1.26562.30517-.52246.458-1.08203.458-1.68066v-1.9502c-.10497.1045-.30712.20215-.60595.29004-.29883.08888-.63867.16504-1.01953.22656a44.19219 44.19219 0 0 1-1.11377.16797 574.40868 574.40868 0 0 0-.90625.12305c-.5713.07226-1.09229.19336-1.56152.36426-.46973.1709-.84424.41601-1.12354.73437s-.41846.74024-.41846 1.2666c0 .72852.26905 1.2793.80762 1.6504s1.2251.55663 2.05957.55663zm11.95947-15.44043c-.5122 0-.95068-.17187-1.31543-.5166-.36474-.3457-.54687-.7578-.54687-1.2373 0-.48535.18213-.90137.54687-1.2461s.80323-.51757 1.31543-.51757.95069.17285 1.31543.51757.54688.75684.54688 1.23633c0 .48633-.18213.90137-.54688 1.24707-.36474.34473-.80322.5166-1.31543.5166zm-1.48779 17.46973V42.08431h2.94629v15.13476h-2.94629zm6.6294 0V42.08431h2.84765v2.4043h.15772c.27587-.81446.76318-1.45606 1.46289-1.92579s1.49267-.70508 2.3794-.70508c.18407 0 .40233.00684.65526.02051.25293.0127.45166.0293.5962.04883v2.81836c-.11817-.0332-.32862-.07129-.63038-.11328-.30224-.04297-.60449-.06446-.90673-.06446-.6963 0-1.31543.14649-1.85743.43848-.5415.292-.97021.69629-1.28564 1.21192s-.47266 1.10156-.47266 1.75878v9.2422h-2.94629zm13.33007-8.98633v8.98633h-2.94629V42.08431h2.82764v2.46386h.1875c.34814-.80175.89502-1.4453 1.64063-1.93164.74511-.48535 1.68603-.72851 2.82275-.72851 1.03125 0 1.93457.21484 2.70947.6455.7749.4297 1.37598 1.06836 1.80322 1.91602.42676.84766.64063 1.8955.64063 3.14355v9.62598h-2.94629V47.9476c0-1.09668-.28564-1.95606-.85742-2.57715-.57129-.62012-1.35645-.93067-2.3545-.93067-.68359 0-1.28954.14747-1.81786.44336-.52881.2959-.9463.72754-1.25147 1.2959-.30566.56836-.458 1.25293-.458 2.05371zm19.87158 9.292c-1.4912 0-2.77392-.32032-3.84765-.96093-1.07422-.64064-1.90186-1.54396-2.4834-2.70997-.58105-1.16503-.87158-2.5332-.87158-4.10352 0-1.5498.29053-2.91601.87158-4.09863.58154-1.18262 1.396-2.10547 2.44385-2.76856 1.04736-.66406 2.27441-.99511 3.68017-.99511.85352 0 1.68116.14062 2.48291.42382.80127.28223 1.52051.7256 2.15772 1.33008s1.13965 1.3877 1.50732 2.34961c.36817.96192.55225 2.12989.55225 3.50293v1.04395h-12.03076v-2.20703h9.14355c0-.77442-.15771-1.4629-.47314-2.06446-.31494-.60058-.75684-1.0752-1.3252-1.42285-.56787-.34863-1.2329-.52246-1.99511-.52246-.82764 0-1.54834.20215-2.1626.60547-.61426.4043-1.0874.92969-1.41895 1.57715-.33154.64648-.49756 1.34765-.49756 2.10351v1.72364c0 1.01172.17871 1.87207.53711 2.58203.35791.70898.8584 1.25 1.50244 1.6211.64356.37109 1.396.55663 2.25635.55663.5581 0 1.06738-.08105 1.52735-.24219.45947-.16014.85693-.40136 1.19189-.72363.33545-.32226.5913-.71973.76855-1.19238l2.78858.50293c-.22315.82129-.62256 1.53808-1.19727 2.15234s-1.29394 1.09082-2.15771 1.42871c-.86377.33887-1.84717.50782-2.95068.50782zm20.8374-11.74512l-2.66991.47265c-.11182-.34082-.2876-.66601-.52735-.97558-.23974-.3086-.56348-.56152-.9707-.75781-.40723-.19727-.91602-.2959-1.52686-.2959-.83447 0-1.53076.18554-2.08886.55664-.5586.3711-.8379.84863-.8379 1.4336 0 .50585.1875.91308.56202 1.22167.37402.3086.97851.56153 1.81299.7588l2.4038.55175c1.39258.32226 2.43067.81738 3.11377 1.48828.6831.66992 1.02442 1.54004 1.02442 2.61035 0 .90625-.26074 1.7129-.7832 2.41895-.52198.70605-1.24805 1.25976-2.17725 1.66015-.92969.40137-2.00537.60157-3.22705.60157-1.69483 0-3.07764-.36329-4.14795-1.08887-1.0708-.72559-1.72803-1.7588-1.9707-3.09863l2.84765-.4336c.17725.74219.5415 1.30176 1.09326 1.67969s1.27149.5664 2.1582.5664c.96534 0 1.73731-.20214 2.31544-.60546.57763-.4043.8667-.89844.8667-1.4834 0-.47266-.17579-.87012-.52686-1.19238-.35156-.3213-.88867-.56446-1.61084-.72852l-2.56201-.56152c-1.41211-.32227-2.45508-.83399-3.12842-1.53711s-1.00977-1.59278-1.00977-2.6709c0-.89258.24952-1.6748.74854-2.34473.49951-.66992 1.18896-1.19336 2.06934-1.57129s1.88867-.5664 3.0249-.5664c1.63574 0 2.92285.35254 3.8623 1.0586s1.56006 1.65038 1.8623 2.833zm14.59034 0l-2.66992.47265c-.11182-.34082-.2876-.66601-.52735-.97558-.23974-.3086-.56347-.56152-.9707-.75781-.40723-.19727-.91602-.2959-1.52686-.2959-.83447 0-1.53076.18554-2.08886.55664-.5586.3711-.8379.84863-.8379 1.4336 0 .50585.1875.91308.56202 1.22167.37402.3086.97851.56153 1.81299.7588l2.4038.55175c1.39258.32226 2.43067.81738 3.11378 1.48828.6831.66992 1.0244 1.54004 1.0244 2.61035 0 .90625-.26073 1.7129-.7832 2.41895-.52197.70605-1.24804 1.25976-2.17724 1.66015-.92969.40137-2.00537.60157-3.22705.60157-1.69482 0-3.07764-.36329-4.14795-1.08887-1.0708-.72559-1.72803-1.7588-1.9707-3.09863l2.84765-.4336c.17725.74219.5415 1.30176 1.09326 1.67969s1.27149.5664 2.1582.5664c.96534 0 1.73731-.20214 2.31544-.60546.57763-.4043.8667-.89844.8667-1.4834 0-.47266-.17578-.87012-.52686-1.19238-.35156-.3213-.88867-.56446-1.61084-.72852l-2.56201-.56152c-1.41211-.32227-2.45508-.83399-3.12842-1.53711s-1.00976-1.59278-1.00976-2.6709c0-.89258.2495-1.6748.74853-2.34473.49951-.66992 1.18897-1.19336 2.06934-1.57129s1.88867-.5664 3.0249-.5664c1.63574 0 2.92285.35254 3.8623 1.0586s1.56006 1.65038 1.8623 2.833z"/><path d="M100.55885 8.36946v20.17871h-3.04492V8.36947h3.04492zm6.86621 11.19239v8.98632h-2.94629V13.41341h2.82764v2.46386h.1875c.34814-.80175.89502-1.4453 1.64063-1.93164.74511-.48535 1.68603-.72851 2.82275-.72851 1.03125 0 1.93457.21484 2.70947.6455.7749.4297 1.37598 1.06837 1.80322 1.91602.42676.84766.64063 1.89551.64063 3.14356v9.62597h-2.94629V19.2767c0-1.09668-.28564-1.95606-.85742-2.57715-.57129-.62012-1.35645-.93066-2.3545-.93066-.68359 0-1.28954.14746-1.81786.44336-.52881.2959-.9463.72753-1.25147 1.2959-.30566.56835-.458 1.25292-.458 2.0537zm20.41309-6.14844v2.36523h-8.2666v-2.36523h8.2666zm-6.0498-3.625h2.94628v14.3164c0 .5713.08545 1 .25635 1.28516.17041.28613.3921.4795.66504.58203.27246.10156.56982.15234.8916.15234.23633 0 .44336-.0166.6206-.04882.17725-.0332.31544-.05957.41407-.0791l.53174 2.43359c-.1709.06543-.41358.13281-.729.20215-.31544.06836-.70948.10644-1.18213.11328-.7754.0127-1.49805-.125-2.16797-.41406s-1.21192-.73536-1.6255-1.33985c-.41405-.60449-.62109-1.36328-.62109-2.27636V9.7884zm15.38915 19.06543c-1.4912 0-2.77392-.32032-3.84765-.96094-1.07422-.64063-1.90186-1.54395-2.4834-2.70996-.58106-1.16504-.87158-2.5332-.87158-4.10352 0-1.5498.29052-2.91601.87158-4.09863.58154-1.18262 1.396-2.10547 2.44385-2.76855 1.04736-.66407 2.27441-.99512 3.68017-.99512.85352 0 1.68116.14062 2.48291.42383.80127.28222 1.52051.72558 2.15772 1.33007s1.13965 1.3877 1.50732 2.34961c.36817.96192.55225 2.12989.55225 3.50293v1.04395H131.6399v-2.20703h9.14355c0-.77442-.15771-1.4629-.47314-2.06446-.31494-.60058-.75684-1.0752-1.3252-1.42285-.56787-.34863-1.2329-.52246-1.99512-.52246-.82763 0-1.54834.20215-2.1626.60547-.61425.4043-1.0874.92969-1.41894 1.57715-.33154.64648-.49756 1.34766-.49756 2.10351v1.72364c0 1.01172.17871 1.87207.53711 2.58203.35791.70898.8584 1.25 1.50244 1.6211.64356.37109 1.396.55663 2.25635.55663.5581 0 1.06738-.08105 1.52735-.24218.45947-.16016.85693-.40137 1.19189-.72364.33545-.32226.5913-.71972.76855-1.19238l2.78858.50293c-.22315.82129-.62256 1.53809-1.19727 2.15234s-1.29394 1.09082-2.15771 1.42871c-.86377.33887-1.84717.50782-2.95069.50782zm9.49659-.30567V13.41341h2.84765v2.4043h.15772c.27588-.81446.76318-1.45606 1.46289-1.92579s1.49267-.70507 2.3794-.70507c.18407 0 .40234.00683.65527.0205.25293.0127.45166.0293.59619.04883v2.81836c-.11817-.0332-.32862-.07129-.63037-.11328-.30225-.04297-.6045-.06445-.90674-.06445-.6963 0-1.31543.14648-1.85742.43847-.5415.292-.97022.6963-1.28565 1.21192s-.47265 1.10156-.47265 1.75879v9.24218h-2.9463zm21.72412-11.43945l-2.66992.47266c-.11182-.34082-.2876-.66602-.52735-.97559-.23974-.3086-.56348-.56152-.9707-.75781-.40723-.19727-.91602-.2959-1.52686-.2959-.83447 0-1.53076.18555-2.08886.55664-.5586.3711-.8379.84863-.8379 1.4336 0 .50585.1875.91308.56202 1.22167.37402.3086.97851.56153 1.81299.7588l2.4038.55175c1.39258.32227 2.43067.81738 3.11377 1.48828.6831.66992 1.02442 1.54004 1.02442 2.61035 0 .90625-.26074 1.7129-.7832 2.41895-.52198.70605-1.24805 1.25976-2.17725 1.66015-.92969.40137-2.00537.60157-3.22705.60157-1.69483 0-3.07764-.36328-4.14795-1.08887-1.0708-.72559-1.72803-1.75879-1.9707-3.09863l2.84765-.4336c.17725.7422.5415 1.30176 1.09326 1.6797s1.27149.5664 2.1582.5664c.96534 0 1.73731-.20215 2.31544-.60547.57763-.4043.8667-.89844.8667-1.4834 0-.47266-.17579-.87012-.52686-1.19238-.35156-.3213-.88867-.56446-1.61084-.72852l-2.56201-.56152c-1.41211-.32227-2.45508-.83399-3.12842-1.53711s-1.00977-1.59277-1.00977-2.6709c0-.89258.24952-1.6748.74854-2.34473.49951-.66992 1.18896-1.19336 2.06934-1.57129s1.88867-.5664 3.0249-.5664c1.63574 0 2.92285.35254 3.8623 1.0586s1.56006 1.65038 1.8623 2.833zm9.77295 11.74512c-1.49121 0-2.77393-.32032-3.84766-.96094-1.07422-.64063-1.90186-1.54395-2.4834-2.70996-.58105-1.16504-.87158-2.5332-.87158-4.10352 0-1.5498.29053-2.91601.87158-4.09863.58154-1.18262 1.396-2.10547 2.44385-2.76855 1.04736-.66407 2.27441-.99512 3.68018-.99512.85351 0 1.68115.14062 2.4829.42383.80128.28222 1.52051.72558 2.15772 1.33007s1.13965 1.3877 1.50732 2.34961c.36817.96192.55225 2.12989.55225 3.50293v1.04395h-12.03076v-2.20703h9.14355c0-.77442-.15771-1.4629-.47314-2.06446-.31494-.60058-.75684-1.0752-1.3252-1.42285-.56787-.34863-1.2329-.52246-1.99511-.52246-.82764 0-1.54834.20215-2.1626.60547-.61426.4043-1.0874.92969-1.41895 1.57715-.33154.64648-.49755 1.34766-.49755 2.10351v1.72364c0 1.01172.1787 1.87207.5371 2.58203.35791.70898.8584 1.25 1.50245 1.6211.64355.37109 1.396.55663 2.25634.55663.5581 0 1.06739-.08105 1.52735-.24218.45947-.16016.85693-.40137 1.1919-.72364.33544-.32226.5913-.71972.76855-1.19238l2.78857.50293c-.22314.82129-.62256 1.53809-1.19726 2.15234s-1.29395 1.09082-2.15772 1.42871c-.86377.33887-1.84717.50782-2.95068.50782zm15.87109 0c-1.46484 0-2.7246-.33399-3.7788-1-1.0542-.667-1.86378-1.5879-2.42872-2.76367s-.84717-2.52247-.84717-4.04004c0-1.53711.28858-2.89551.8667-4.07422s1.39258-2.10059 2.44385-2.76367c1.05078-.66407 2.28906-.99512 3.71436-.99512 1.1494 0 2.17431.21191 3.07421.63476.8999.42383 1.62745 1.0166 2.18262 1.7793.55469.76172.88477 1.65137.99024 2.66992h-2.8672c-.1577-.70996-.51757-1.32031-1.0791-1.833-.56152-.51172-1.312-.76856-2.25146-.76856-.82129 0-1.53857.21582-2.15283.6455-.61426.43067-1.09229 1.04102-1.4336 1.83302-.3418.79101-.5122 1.72558-.5122 2.80273 0 1.10352.16748 2.05664.50244 2.85742.33496.80176.80957 1.42285 1.42383 1.8623.61377.44044 1.33838.66016 2.17236.66016.5581 0 1.06592-.10351 1.52246-.31054s.84082-.50391 1.15283-.8916.53028-.85352.65528-1.39942h2.86719c-.10547.9795-.42383 1.85254-.95606 2.6211-.53174.76855-1.24316 1.37304-2.13281 1.81347-.89014.43945-1.9331.66016-3.12842.66016zm16.167-15.44043v2.36523h-8.2666v-2.36523h8.2666zm-6.04981-3.625h2.94629v14.3164c0 .5713.08545 1 .25634 1.28516.17041.28613.3921.4795.66504.58203.27246.10156.56983.15234.8916.15234.23633 0 .44336-.0166.62061-.04882.17725-.0332.31543-.05957.41406-.0791l.53174 2.43359c-.1709.06543-.41357.13281-.729.20215-.31543.06836-.70948.10644-1.18213.11328-.7754.0127-1.49805-.125-2.16797-.41406s-1.21191-.73536-1.62549-1.33985c-.41406-.60449-.6211-1.36328-.6211-2.27636V9.7884zm10.51172 1.29004c-.51221 0-.95069-.17188-1.31543-.5166-.36475-.3457-.54688-.75782-.54688-1.23731 0-.48535.18213-.90137.54688-1.2461s.80322-.51757 1.31543-.51757.95068.17285 1.31543.51758.54687.75683.54687 1.23632c0 .48633-.18213.90137-.54687 1.24707-.36475.34473-.80323.5166-1.31543.5166zm-1.4878 17.46972V13.41341h2.9463v15.13476h-2.9463zm13.0044.30567c-1.41895 0-2.65723-.3252-3.71485-.97559s-1.87841-1.56055-2.46289-2.7295c-.58496-1.16894-.87695-2.53515-.87695-4.09862 0-1.57032.292-2.94239.87695-4.11914.58448-1.17579 1.40528-2.08887 2.4629-2.73829 1.05761-.65039 2.2959-.97558 3.71484-.97558s2.65674.3252 3.71435.97558c1.05762.64942 1.87891 1.5625 2.46338 2.73829.58448 1.17675.87696 2.54882.87696 4.11914 0 1.56347-.29248 2.92968-.87696 4.09863s-1.40576 2.0791-2.46338 2.7295-2.2954.97558-3.71435.97558zm.00976-2.47364c.91944 0 1.68164-.24218 2.28614-.72851.604-.48633 1.05224-1.13379 1.34472-1.9414.292-.80762.43848-1.69825.43848-2.66993 0-.96582-.14648-1.8545-.43848-2.66504-.29248-.81151-.74072-1.46387-1.34472-1.95605-.6045-.49317-1.3667-.73926-2.28614-.73926-.92627 0-1.69336.2461-2.30078.73926-.60742.49218-1.05761 1.14454-1.3496 1.95605-.29249.81055-.43848 1.69922-.43848 2.66504 0 .97168.146 1.8623.43847 2.66992.292.80762.7422 1.45508 1.34961 1.9414s1.37451.72852 2.30078.72852zm12.99463-6.81835v8.98632h-2.94629V13.41341h2.82764v2.46386h.1875c.34814-.80175.89502-1.4453 1.64063-1.93164.74511-.48535 1.68603-.72851 2.82275-.72851 1.03125 0 1.93457.21484 2.70947.6455.7749.4297 1.37598 1.06837 1.80322 1.91602.42676.84766.64063 1.89551.64063 3.14356v9.62597h-2.94629V19.2767c0-1.09668-.28564-1.95606-.85742-2.57715-.5713-.62012-1.35645-.93066-2.3545-.93066-.68359 0-1.28954.14746-1.81786.44336-.52881.2959-.9463.72753-1.25147 1.2959-.30566.56835-.458 1.25292-.458 2.0537zm17.75293 9.32128c-.95898 0-1.82617-.1787-2.60107-.5371-.7754-.35743-1.3877-.87794-1.8379-1.56153-.4497-.6836-.6748-1.5205-.6748-2.5127 0-.85351.16407-1.55663.49268-2.1084s.77197-.98827 1.33008-1.31054c.5581-.32129 1.18261-.56445 1.87207-.7295.68994-.16405 1.39258-.28808 2.10888-.37401a390.34882 390.34882 0 0 0 2.20703-.26075c.56446-.06933.9751-.18261 1.23145-.33984.25635-.1582.38428-.41406.38428-.76856v-.06933c0-.86035-.24121-1.52735-.72412-2s-1.20069-.70996-2.15284-.70996c-.99218 0-1.77197.21875-2.34033.65527-.56836.4375-.96045.92188-1.17724 1.4541l-2.76856-.63086c.32813-.91992.80908-1.66406 1.44336-2.23144.63379-.56836 1.36475-.98242 2.19238-1.24219.82764-.25879 1.69776-.38867 2.61084-.38867.6045 0 1.24659.07031 1.92627.21191.6797.14063 1.3169.39844 1.91162.77344.59424.37402 1.08204.9082 1.4629 1.60059.38085.69336.57177 1.5918.57177 2.6953v10.04981h-2.87744v-2.06933h-.11816c-.19043.38086-.47608.75586-.85694 1.12304-.38134.36817-.8706.67383-1.46826.917s-1.31396.36425-2.14795.36425zm.64063-2.36425c.81445 0 1.5122-.16114 2.09375-.4834.58105-.3213 1.02441-.74414 1.33008-1.26563.30517-.52246.458-1.08203.458-1.68066v-1.9502c-.10498.1045-.30713.20215-.60595.29004-.29883.08887-.63868.16504-1.01953.22656a44.19219 44.19219 0 0 1-1.11377.16797 574.40868 574.40868 0 0 0-.90625.12305c-.5713.07227-1.09229.19336-1.56153.36426-.46972.1709-.84424.41601-1.12353.73437s-.41846.74024-.41846 1.2666c0 .72852.26904 1.2793.80762 1.6504s1.2251.55664 2.05957.55664zm13.41845-18.14942v20.17871h-2.94628V8.36947h2.94628zM97.51393 57.21907v-20.1787h12.51367v2.6201h-9.46875v6.14845h8.57178v2.61132h-8.57178v8.79883h-3.04492zm20.08936.33496c-.95899 0-1.82618-.1787-2.60108-.5371-.77539-.35743-1.3877-.87794-1.83789-1.56153-.4497-.6836-.6748-1.5205-.6748-2.5127 0-.85351.16406-1.55664.49267-2.1084s.77197-.98828 1.33008-1.31054c.5581-.32129 1.18262-.56445 1.87207-.7295.68994-.16406 1.39258-.28808 2.10889-.37402a390.34882 390.34882 0 0 0 2.20703-.26074c.56445-.06933.9751-.18262 1.23144-.33984.25635-.1582.38428-.41406.38428-.76856v-.06933c0-.86035-.24121-1.52735-.72412-2s-1.20068-.70996-2.15283-.70996c-.99219 0-1.77198.21875-2.34033.65527-.56836.4375-.96045.92187-1.17725 1.4541l-2.76856-.63086c.32813-.91992.80909-1.66406 1.44336-2.23144.6338-.56836 1.36475-.98243 2.19239-1.2422.82763-.25878 1.69775-.38866 2.61084-.38866.60449 0 1.24658.0703 1.92627.21191.67968.14063 1.3169.39844 1.91162.77344.59424.37402 1.08203.9082 1.46289 1.60058.38086.69336.57178 1.5918.57178 2.69532v10.0498h-2.87745v-2.06933h-.11816c-.19043.38086-.47607.75586-.85693 1.12304-.38135.36817-.8706.67383-1.46827.917s-1.31396.36425-2.14794.36425zm.64062-2.36426c.81445 0 1.5122-.16113 2.09375-.4834.58106-.32128 1.02441-.74413 1.33008-1.26562.30517-.52246.458-1.08203.458-1.68066v-1.9502c-.10497.1045-.30712.20215-.60595.29004-.29883.08888-.63867.16504-1.01953.22656a44.19219 44.19219 0 0 1-1.11377.16797 574.40868 574.40868 0 0 0-.90625.12305c-.5713.07226-1.09229.19336-1.56152.36426-.46973.1709-.84424.41601-1.12354.73437s-.41846.74024-.41846 1.2666c0 .72852.26905 1.2793.80762 1.6504s1.2251.55663 2.05957.55663zm11.95947-15.44043c-.5122 0-.95068-.17187-1.31543-.5166-.36474-.3457-.54687-.7578-.54687-1.2373 0-.48535.18213-.90137.54687-1.2461s.80323-.51757 1.31543-.51757.95069.17285 1.31543.51757.54688.75684.54688 1.23633c0 .48633-.18213.90137-.54688 1.24707-.36474.34473-.80322.5166-1.31543.5166zm-1.48779 17.46973V42.08431h2.94629v15.13476h-2.94629zm6.6294 0V42.08431h2.84765v2.4043h.15772c.27587-.81446.76318-1.45606 1.46289-1.92579s1.49267-.70508 2.3794-.70508c.18407 0 .40233.00684.65526.02051.25293.0127.45166.0293.5962.04883v2.81836c-.11817-.0332-.32862-.07129-.63038-.11328-.30224-.04297-.60449-.06446-.90673-.06446-.6963 0-1.31543.14649-1.85743.43848-.5415.292-.97021.69629-1.28564 1.21192s-.47266 1.10156-.47266 1.75878v9.2422h-2.94629zm13.33007-8.98633v8.98633h-2.94629V42.08431h2.82764v2.46386h.1875c.34814-.80175.89502-1.4453 1.64063-1.93164.74511-.48535 1.68603-.72851 2.82275-.72851 1.03125 0 1.93457.21484 2.70947.6455.7749.4297 1.37598 1.06836 1.80322 1.91602.42676.84766.64063 1.8955.64063 3.14355v9.62598h-2.94629V47.9476c0-1.09668-.28564-1.95606-.85742-2.57715-.57129-.62012-1.35645-.93067-2.3545-.93067-.68359 0-1.28954.14747-1.81786.44336-.52881.2959-.9463.72754-1.25147 1.2959-.30566.56836-.458 1.25293-.458 2.05371zm19.87158 9.292c-1.4912 0-2.77392-.32032-3.84765-.96093-1.07422-.64064-1.90186-1.54396-2.4834-2.70997-.58105-1.16503-.87158-2.5332-.87158-4.10352 0-1.5498.29053-2.91601.87158-4.09863.58154-1.18262 1.396-2.10547 2.44385-2.76856 1.04736-.66406 2.27441-.99511 3.68017-.99511.85352 0 1.68116.14062 2.48291.42382.80127.28223 1.52051.7256 2.15772 1.33008s1.13965 1.3877 1.50732 2.34961c.36817.96192.55225 2.12989.55225 3.50293v1.04395h-12.03076v-2.20703h9.14355c0-.77442-.15771-1.4629-.47314-2.06446-.31494-.60058-.75684-1.0752-1.3252-1.42285-.56787-.34863-1.2329-.52246-1.99511-.52246-.82764 0-1.54834.20215-2.1626.60547-.61426.4043-1.0874.92969-1.41895 1.57715-.33154.64648-.49756 1.34765-.49756 2.10351v1.72364c0 1.01172.17871 1.87207.53711 2.58203.35791.70898.8584 1.25 1.50244 1.6211.64356.37109 1.396.55663 2.25635.55663.5581 0 1.06738-.08105 1.52735-.24219.45947-.16014.85693-.40136 1.19189-.72363.33545-.32226.5913-.71973.76855-1.19238l2.78858.50293c-.22315.82129-.62256 1.53808-1.19727 2.15234s-1.29394 1.09082-2.15771 1.42871c-.86377.33887-1.84717.50782-2.95068.50782zm20.8374-11.74512l-2.66991.47265c-.11182-.34082-.2876-.66601-.52735-.97558-.23974-.3086-.56348-.56152-.9707-.75781-.40723-.19727-.91602-.2959-1.52686-.2959-.83447 0-1.53076.18554-2.08886.55664-.5586.3711-.8379.84863-.8379 1.4336 0 .50585.1875.91308.56202 1.22167.37402.3086.97851.56153 1.81299.7588l2.4038.55175c1.39258.32226 2.43067.81738 3.11377 1.48828.6831.66992 1.02442 1.54004 1.02442 2.61035 0 .90625-.26074 1.7129-.7832 2.41895-.52198.70605-1.24805 1.25976-2.17725 1.66015-.92969.40137-2.00537.60157-3.22705.60157-1.69483 0-3.07764-.36329-4.14795-1.08887-1.0708-.72559-1.72803-1.7588-1.9707-3.09863l2.84765-.4336c.17725.74219.5415 1.30176 1.09326 1.67969s1.27149.5664 2.1582.5664c.96534 0 1.73731-.20214 2.31544-.60546.57763-.4043.8667-.89844.8667-1.4834 0-.47266-.17579-.87012-.52686-1.19238-.35156-.3213-.88867-.56446-1.61084-.72852l-2.56201-.56152c-1.41211-.32227-2.45508-.83399-3.12842-1.53711s-1.00977-1.59278-1.00977-2.6709c0-.89258.24952-1.6748.74854-2.34473.49951-.66992 1.18896-1.19336 2.06934-1.57129s1.88867-.5664 3.0249-.5664c1.63574 0 2.92285.35254 3.8623 1.0586s1.56006 1.65038 1.8623 2.833zm14.59034 0l-2.66992.47265c-.11182-.34082-.2876-.66601-.52735-.97558-.23974-.3086-.56347-.56152-.9707-.75781-.40723-.19727-.91602-.2959-1.52686-.2959-.83447 0-1.53076.18554-2.08886.55664-.5586.3711-.8379.84863-.8379 1.4336 0 .50585.1875.91308.56202 1.22167.37402.3086.97851.56153 1.81299.7588l2.4038.55175c1.39258.32226 2.43067.81738 3.11378 1.48828.6831.66992 1.0244 1.54004 1.0244 2.61035 0 .90625-.26073 1.7129-.7832 2.41895-.52197.70605-1.24804 1.25976-2.17724 1.66015-.92969.40137-2.00537.60157-3.22705.60157-1.69482 0-3.07764-.36329-4.14795-1.08887-1.0708-.72559-1.72803-1.7588-1.9707-3.09863l2.84765-.4336c.17725.74219.5415 1.30176 1.09326 1.67969s1.27149.5664 2.1582.5664c.96534 0 1.73731-.20214 2.31544-.60546.57763-.4043.8667-.89844.8667-1.4834 0-.47266-.17578-.87012-.52686-1.19238-.35156-.3213-.88867-.56446-1.61084-.72852l-2.56201-.56152c-1.41211-.32227-2.45508-.83399-3.12842-1.53711s-1.00976-1.59278-1.00976-2.6709c0-.89258.2495-1.6748.74853-2.34473.49951-.66992 1.18897-1.19336 2.06934-1.57129s1.88867-.5664 3.0249-.5664c1.63574 0 2.92285.35254 3.8623 1.0586s1.56006 1.65038 1.8623 2.833z"/><g><path d="M7.44129 30.06854C8.6624 18.21878 18.70579 8.94363 30.87246 8.94363c12.16673 0 22.2101 9.27515 23.43128 21.12491h4.57966c-.70794-8.23032-4.96386-15.4639-11.24367-20.1419 2.18342-.65752 4.45118-.98798 6.78922-.98798 12.16859 0 22.2131 9.27775 23.43184 21.12988h4.58372C81.20668 15.69468 69.11802 4.37266 54.42906 4.37266c-4.06794 0-8.12188.8931-11.79236 2.58777-3.58275-1.656-7.56636-2.58777-11.76436-2.58777-14.68857 0-26.77762 11.32202-28.01545 25.69588h4.5844zm43.1624 22.4752c4.90158-4.82522 7.80073-11.11875 8.30765-17.90418h-4.58175c-.49529 5.55127-2.90953 10.68832-6.93248 14.64844-.90003.88598-.9106 2.33109-.02461 3.23112.88603.9001 2.3311.91065 3.23118.02462z" class="cls-2"/><path d="M77.88349 34.63956C76.7958 46.62611 66.69345 56.0547 54.42895 56.0547l.0001.00192c-12.26624 0-22.36957-9.42858-23.45487-21.41705h-4.58209c.63162 8.3461 4.91288 15.68965 11.2592 20.422-2.18348.65748-4.45118.99505-6.77883.99505-12.2662 0-22.36952-9.42858-23.45488-21.41705H2.83465c1.09806 14.51211 13.2495 25.9879 28.0377 25.9879 4.1171 0 8.08665-.87193 11.79596-2.58772 3.58276 1.65596 7.56275 2.58772 11.76075 2.58772 14.7878 0 26.93964-11.47579 28.0377-25.9879h-4.58327zM37.86924 12.52903c-.88948-.89659-2.33448-.90359-3.23113-.01405-4.79547 4.74833-7.6621 10.90824-8.22665 17.55356h4.58575c.55078-5.41404 2.93544-10.4252 6.85797-14.30838.89654-.88953.90353-2.33448.01406-3.23113z" class="cls-2"/></g></svg>