<svg xmlns="http://www.w3.org/2000/svg" role="img" viewBox="8.50 230.50 624.00 182.50"><title>JanusGraph logo</title><style>svg {enable-background:new 0 0 652 652}</style><style>.st0{fill:#108768}</style><path d="M219.7 358c-2.4 0-4.4-.4-5.9-1.2v-5.9c2 .4 4 .8 5.9.8 2.8 0 4.7-.8 5.9-2.4 1.6-1.6 2-4 2-7.1v-59.4h6.7v59c0 5.1-1.2 9.1-4 11.9s-5.9 4.3-10.6 4.3zm51.8-15.8l-1.2-6.3h-.4c-2.4 2.8-4.4 4.7-6.7 5.5s-5.1 1.6-8.3 1.6c-4.4 0-7.9-1.2-10.3-3.6s-3.6-5.5-3.6-9.9c0-9.1 7.1-13.9 21.4-14.2l7.5-.4v-2.8c0-3.6-.8-5.9-2.4-7.9-1.6-1.6-4-2.4-7.1-2.4-3.6 0-7.9 1.2-12.7 3.6l-2-5.1c2.4-1.2 4.7-2 7.1-2.8 2.8-.8 5.1-1.2 7.9-1.2 5.1 0 9.1 1.2 11.9 3.6 2.4 2.4 4 5.9 4 11.5v30.5h-5.1v.3zm-15-4.8c4.4 0 7.5-1.2 9.9-3.6s3.6-5.5 3.6-9.5v-4l-6.7.4c-5.5 0-9.1 1.2-11.5 2.4-2.4 1.6-3.6 4-3.6 6.7 0 2.4.8 4.4 2.4 5.5 1.1 1.3 3.1 2.1 5.9 2.1zm59.4 4.8v-28.9c0-3.6-.8-6.3-2.4-8.3s-4.4-2.8-7.9-2.8c-4.7 0-7.9 1.2-10.3 4-2 2.4-3.2 6.7-3.2 12.3v23.4h-6.7V298h5.5l1.2 5.9h.4c1.2-2.4 3.2-4 5.9-5.1 2.4-1.2 5.1-2 8.3-2 5.5 0 9.5 1.2 12.3 4 2.8 2.8 4 6.7 4 12.3V342h-7.1v.2zm22.1-44.3v28.9c0 3.6.8 6.3 2.4 8.3 1.6 2 4.4 2.8 7.9 2.8 4.7 0 7.9-1.2 10.3-4 2-2.4 3.2-6.7 3.2-12.3v-23.4h6.7v44.3H363l-.8-5.9h-.4c-1.2 2.4-3.2 4-5.9 5.1-2.4 1.2-5.1 1.6-8.3 1.6-5.5 0-9.5-1.2-12.3-4-2.8-2.4-4-6.7-4-12.3v-29.3h6.7zm68.5 32c0 4-1.6 7.5-4.7 9.5-3.2 2.4-7.5 3.6-13.1 3.6-5.9 0-10.7-.8-13.9-2.8v-6.3c2 1.2 4.4 2 6.7 2.4 2.4.8 4.7.8 7.1.8 3.6 0 6.3-.4 8.3-1.6 2-1.2 2.8-2.8 2.8-5.1 0-1.6-.8-3.2-2.4-4.4-1.6-1.2-4.4-2.8-8.7-4.4-4-1.6-7.1-2.8-8.7-4-1.6-1.2-3.2-2.4-4-4-.8-1.6-1.2-3.2-1.2-5.1 0-3.6 1.6-6.3 4.4-8.7 2.8-2 7.1-3.2 12.3-3.2 4.7 0 9.5.8 13.9 2.8l-2.4 5.5c-4.4-2-8.3-2.8-12.3-2.8-3.2 0-5.5.4-7.1 1.6-1.6 1.2-2.4 2.4-2.4 4 0 1.2.4 2.4.8 3.2.8.8 1.6 1.6 2.8 2.4 1.2.8 4 2 7.9 3.2 5.1 2 8.7 4 10.7 5.9 2 2.4 3.2 4.7 3.2 7.5z" class="st0"/><path d="M439.3 311.3h20.2v28.9c-3.2 1.2-6.3 1.6-9.5 2.4-3.2.4-7.1.8-11.5.8-9.1 0-15.8-2.8-21-7.9-5.1-5.1-7.5-12.7-7.5-22.6 0-6.3 1.2-11.5 3.6-16.2s5.9-8.3 10.7-10.7 10.3-3.6 16.2-3.6c6.3 0 12.3 1.2 17.8 3.6l-2.8 5.9c-5.5-2.4-10.7-3.6-15.4-3.6-7.1 0-13.1 2-17 6.3-4 4.4-5.9 10.3-5.9 17.8 0 7.9 2 14.2 5.9 18.2 4 4 9.5 6.3 17.4 6.3 4 0 8.3-.4 11.9-1.6v-18.2h-13.5v-5.9h.4zm48.7-14.2c2 0 3.6 0 5.1.4l-.8 6.3c-2-.4-3.6-.8-4.7-.8-3.6 0-6.7 1.6-9.1 4.4s-4 6.7-4 11.1v23.7h-6.7v-44.3h5.5l.8 8.3h.4c1.6-2.8 3.6-5.1 5.9-6.7 2.5-1.6 4.8-2.4 7.6-2.4zm36 45.1l-1.2-6.3h-.4c-2.4 2.8-4.4 4.7-6.7 5.5-2.4.8-5.1 1.6-8.3 1.6-4.4 0-7.9-1.2-10.3-3.6s-3.6-5.5-3.6-9.9c0-9.1 7.1-13.9 21.4-14.2l7.5-.4v-2.8c0-3.6-.8-5.9-2.4-7.9-1.6-1.6-4-2.4-7.1-2.4-3.6 0-7.9 1.2-12.7 3.6l-2-5.1c2.4-1.2 4.7-2 7.1-2.8 2.8-.8 5.1-1.2 7.9-1.2 5.1 0 9.1 1.2 11.9 3.6 2.4 2.4 4 5.9 4 11.5v30.5H524v.3zm-15-4.8c4.4 0 7.5-1.2 9.9-3.6s3.6-5.5 3.6-9.5v-4l-6.7.4c-5.5 0-9.1 1.2-11.5 2.4-2.4 1.6-3.6 4-3.6 6.7 0 2.4.8 4.4 2.4 5.5 1.1 1.3 3.1 2.1 5.9 2.1zm49.5 5.6c-2.8 0-5.5-.4-7.9-1.6s-4.4-2.8-5.9-4.7h-.4c.4 2.8.4 5.1.4 7.5v18.2H538v-64.5h5.5l.8 5.9h.4c1.6-2.4 3.6-4.4 5.9-5.1 2.4-1.2 4.7-1.6 7.9-1.6 5.9 0 10.3 2 13.9 5.9 3.2 4 4.7 9.5 4.7 17 0 7.1-1.6 13.1-4.7 17-3.3 4-8 6-13.9 6zm-.8-40.4c-4.4 0-7.9 1.2-9.9 4-2 2.4-3.2 6.3-3.2 11.9v1.6c0 6.3 1.2 10.7 3.2 13.5 2 2.8 5.5 4 9.9 4 4 0 6.7-1.6 9.1-4.7 2-3.2 3.2-7.5 3.2-13.1 0-5.5-1.2-9.9-3.2-12.7s-5.2-4.5-9.1-4.5zm56.6 39.6v-28.9c0-3.6-.8-6.3-2.4-8.3-1.6-2-4.4-2.8-7.9-2.8-4.7 0-7.9 1.2-10.3 4-2 2.4-3.2 6.7-3.2 12.7v23.4h-6.7V279h6.7v19.4c0 2.4 0 4.4-.4 5.5h.4c1.2-2 3.2-4 5.5-5.1 2.4-1.2 5.1-2 8.3-2 5.5 0 9.5 1.2 12.3 4 2.8 2.8 4 6.7 4 12.3V342h-6.3v.2z"/><path d="M177.3 317.3c0-7.9-6.3-14.6-14.6-14.6-5.9 0-11.1 3.6-13.1 8.7H108c-2.4-5.1-7.5-8.7-13.1-8.7-7.9 0-14.6 6.3-14.6 14.6 0 7.9 6.3 14.6 14.6 14.6 5.9 0 11.1-3.6 13.5-9.1h41.2c1.2 3.2 4 5.9 7.1 7.5-5.1 24.5-24.5 43.9-49.1 48.7-2.4-4.4-7.1-7.1-12.7-7.1-7.9 0-14.6 6.3-14.6 14.6 0 7.9 6.3 14.6 14.6 14.6 6.7 0 12.3-4.4 13.9-10.3 30.1-5.5 53.8-29.3 59.4-59.8 5.6-2.3 9.1-7.8 9.1-13.7z" class="st0"/><path d="M69.7 386.9c-.8 0-1.6 0-2-.4-28.9-11.5-47.1-38.4-47.1-69.3 0-41.2 33.6-74.4 74.4-74.4 30.1 0 57.4 18.2 68.9 45.9 1.2 2.8 0 6.3-3.2 7.5-2.8 1.2-6.3 0-7.5-3.2-9.9-23.7-32.8-38.8-58.2-38.8-34.8 0-62.9 28.5-62.9 62.9 0 26.1 15.8 49.1 40 58.6 2.8 1.2 4.4 4.4 3.2 7.5-1.3 2.1-3.2 3.7-5.6 3.7z"/></svg>