<svg xmlns="http://www.w3.org/2000/svg" role="img" xmlns:xlink="http://www.w3.org/1999/xlink" viewBox="15.67 11.80 88.53 36.28"><title>Kaggle logo</title><defs><path id="a" d="M31.5 15.978h289v130.044h-289z"/><clipPath id="b"><use width="100%" height="100%" overflow="visible" xlink:href="#a"/></clipPath></defs><path d="M105.75 102.968c-.06.238-.298.357-.713.357h-7.936c-.477 0-.891-.208-1.248-.625L82.746 86.028l-3.655 3.477v12.929c0 .595-.298.892-.892.892h-6.152c-.595 0-.892-.297-.892-.892V43.499c0-.593.297-.891.892-.891h6.152c.594 0 .892.298.892.891v36.288l15.692-15.87c.416-.415.832-.624 1.248-.624h8.204c.356 0 .593.149.713.445.119.357.089.624-.089.803L88.274 80.588l17.297 21.488c.237.238.297.535.179.892m32.145.356h-6.152c-.654 0-.981-.296-.981-.891v-1.249c-2.616 1.961-5.974 2.942-10.075 2.942-3.744 0-6.985-1.159-9.719-3.476-2.675-2.377-4.012-5.409-4.012-9.094 0-5.825 3.625-9.778 10.877-11.858 2.853-.833 7.162-1.545 12.928-2.14.179-2.198-.401-4.071-1.738-5.617-1.337-1.545-3.285-2.318-5.84-2.318-3.329 0-6.717 1.19-10.164 3.566-.535.298-.922.238-1.159-.178l-3.21-4.547c-.298-.357-.208-.772.267-1.248 4.577-3.15 9.332-4.726 14.266-4.726 3.804 0 7.044.892 9.719 2.675 3.923 2.616 5.884 6.806 5.884 12.571v24.697c0 .595-.298.891-.891.891m-7.133-18.634c-5.826.595-9.807 1.368-11.947 2.318-2.913 1.248-4.222 3.031-3.924 5.35.178 1.308.833 2.363 1.962 3.165 1.128.802 2.437 1.264 3.923 1.382 4.16.297 7.49-.803 9.986-3.299zm44.463 34.103c-3.24 3.357-7.832 5.038-13.775 5.038-3.448 0-6.717-.862-9.807-2.585a33.53 33.53 0 0 1-2.318-1.65 80.427 80.427 0 0 1-3.121-2.541c-.417-.356-.446-.802-.09-1.338l4.191-4.19c.178-.179.416-.268.713-.268.237 0 .446.089.624.268 3.328 3.328 6.568 4.993 9.718 4.993 7.191 0 10.788-3.745 10.788-11.234v-4.636c-2.794 2.318-6.508 3.477-11.145 3.477-5.766 0-10.284-2.168-13.552-6.508-2.853-3.803-4.28-8.589-4.28-14.354 0-5.468 1.367-10.104 4.102-13.909 3.209-4.576 7.757-6.865 13.642-6.865 4.458 0 8.203 1.159 11.233 3.478v-1.783c0-.594.297-.892.892-.892h6.153c.593 0 .891.298.891.892v39.854c0 6.476-1.62 11.395-4.859 14.753m-3.077-42.84c-1.486-3.803-4.934-5.706-10.342-5.706-6.954 0-10.431 4.34-10.431 13.017 0 4.814 1.159 8.323 3.477 10.521 1.723 1.725 3.952 2.586 6.687 2.586 5.586 0 9.123-1.902 10.609-5.706zm44.994 42.84c-3.241 3.357-7.832 5.038-13.775 5.038-3.449 0-6.718-.862-9.808-2.585a33.53 33.53 0 0 1-2.318-1.65 81.194 81.194 0 0 1-3.121-2.541c-.416-.356-.446-.802-.089-1.338l4.19-4.19c.178-.179.416-.268.713-.268.237 0 .446.089.624.268 3.328 3.328 6.567 4.993 9.718 4.993 7.191 0 10.789-3.745 10.789-11.234v-4.636c-2.795 2.318-6.509 3.477-11.145 3.477-5.766 0-10.284-2.168-13.552-6.508-2.854-3.803-4.28-8.589-4.28-14.354 0-5.468 1.367-10.104 4.101-13.909 3.21-4.576 7.757-6.865 13.642-6.865 4.458 0 8.202 1.159 11.234 3.478v-1.783c0-.594.296-.892.892-.892h6.152c.593 0 .891.298.891.892v39.854c0 6.476-1.62 11.395-4.858 14.753m-3.076-42.84c-1.487-3.803-4.935-5.706-10.343-5.706-6.955 0-10.432 4.34-10.432 13.017 0 4.814 1.16 8.323 3.477 10.521 1.724 1.725 3.953 2.586 6.687 2.586 5.586 0 9.124-1.902 10.61-5.706V75.953zm21.615 27.371h-6.153c-.594 0-.891-.296-.891-.891V43.499c0-.593.297-.891.891-.891h6.153c.593 0 .891.297.891.891v58.935c0 .594-.298.89-.891.89m44.842-18.099c0 .595-.299.892-.892.892h-28.977c.356 2.913 1.605 5.349 3.745 7.311 2.437 2.082 5.498 3.121 9.184 3.121 3.268 0 6.209-.921 8.826-2.764.536-.357.981-.357 1.338 0l4.19 4.28c.476.477.476.891 0 1.248-4.279 3.21-9.244 4.814-14.889 4.814-6.063 0-11.116-2.02-15.158-6.062-3.922-3.982-5.884-9.064-5.884-15.246 0-5.825 1.931-10.758 5.795-14.801 3.567-3.685 8.203-5.527 13.909-5.527 5.408 0 9.955 1.932 13.642 5.795 3.803 3.983 5.557 8.976 5.26 14.979zm-11.68-13.106c-2.021-1.842-4.458-2.764-7.311-2.764-2.675 0-5.024.892-7.043 2.674-2.021 1.783-3.299 4.102-3.834 6.955h21.487c-.06-2.733-1.159-5.023-3.299-6.865" clip-path="url(#b)" transform="translate(-11.403 -3.781) scale(.40593)" fill="#20beff"/></svg>