<svg xmlns="http://www.w3.org/2000/svg" role="img" viewBox="102.74 24.24 199.27 364.52"><title>Kedro logo</title><defs><linearGradient id="a" x1="202.5" x2="202.5" y1="556.79" y2="372.7" gradientTransform="matrix(1 0 0 -1 0 588.11)" gradientUnits="userSpaceOnUse"><stop offset=".009" stop-color="#e6e6e6"/><stop offset="1" stop-color="#f2f2f2" stop-opacity="0"/></linearGradient><linearGradient id="b" x1="202.5" x2="202.5" y1="522.83" y2="344.39" gradientTransform="matrix(1 0 0 -1 0 588.11)" gradientUnits="userSpaceOnUse"><stop offset=".004" stop-color="#e6e6e6"/><stop offset=".995" stop-color="#fff" stop-opacity="0"/></linearGradient><linearGradient id="c" x1="202.5" x2="202.5" y1="488.74" y2="304.65" gradientTransform="matrix(1 0 0 -1 0 588.11)" gradientUnits="userSpaceOnUse"><stop offset=".006" stop-color="#e6e6e6"/><stop offset="1" stop-color="#f2f2f2" stop-opacity=".8"/></linearGradient></defs><path fill="none" d="M0-48h405v405H0z" data-name="Clear space"/><path fill="url(#a)" d="M202.5 215.41l-92.05-92.04 92.05-92.05 92.05 92.05-92.05 92.04z" data-name="grad back"/><path fill="url(#b)" stroke="#faba0d" stroke-miterlimit="10" stroke-width="5" d="M113.28 154.5l89.22-89.22 89.22 89.22-89.22 89.22-89.22-89.22z"/><path fill="url(#c)" d="M202.5 283.46l-92.05-92.05 92.05-92.04 92.05 92.04-92.05 92.05z" data-name="grad dark"/><g><path d="M163.88135 356.88672v13.13281l14.11035-13.13281h3.12793l-10.8457 10.08887 11.35546 14.3291h-2.99218L168.53955 368.582l-4.6582 4.34375v8.37891h-2.31153v-24.418z"/><path d="M183.79541 375.47363a6.60241 6.60241 0 0 0 1.03711 2.23926 5.93718 5.93718 0 0 0 1.80176 1.64258 5.02077 5.02077 0 0 0 2.61816.64941 5.19121 5.19121 0 0 0 3.67188-1.23144 6.48368 6.48368 0 0 0 1.83593-3.28321h2.14161a8.61563 8.61563 0 0 1-2.499 4.65137 7.4203 7.4203 0 0 1-5.15039 1.6416 8.13793 8.13793 0 0 1-3.58691-.73535 6.6075 6.6075 0 0 1-2.46485-2.01758 8.78513 8.78513 0 0 1-1.41113-2.97558 13.57256 13.57256 0 0 1-.459-3.57324 12.86 12.86 0 0 1 .459-3.41993 9.20866 9.20866 0 0 1 1.41113-2.99218 7.07866 7.07866 0 0 1 2.46485-2.12012 7.549 7.549 0 0 1 3.58691-.80371 6.92652 6.92652 0 0 1 6.03516 3.09472 9.33246 9.33246 0 0 1 1.34277 3.17969 14.08288 14.08288 0 0 1 .33984 3.64258h-13.498a9.59067 9.59067 0 0 0 .32317 2.41113zm10.60742-6.583a6.466 6.466 0 0 0-1.10449-2 5.46511 5.46511 0 0 0-1.73438-1.40234 4.93541 4.93541 0 0 0-2.31152-.53125 5.01208 5.01208 0 0 0-2.3457.53125 5.46511 5.46511 0 0 0-1.73438 1.40234 6.98572 6.98572 0 0 0-1.13867 2.01758 9.89955 9.89955 0 0 0-.56152 2.3418h11.35644a7.84442 7.84442 0 0 0-.42578-2.35939zm18.82666 12.41406v-3.35157h-.06836a5.05351 5.05351 0 0 1-1.00293 1.57227 6.47834 6.47834 0 0 1-1.51269 1.21484 7.86164 7.86164 0 0 1-1.81934.76954 7.06951 7.06951 0 0 1-1.9209.27343 7.75136 7.75136 0 0 1-3.48437-.73535 6.97787 6.97787 0 0 1-2.46533-2.01758 8.65989 8.65989 0 0 1-1.46289-2.97558 13.66121 13.66121 0 0 1 0-7.14649 8.65989 8.65989 0 0 1 1.46289-2.97558 7.15289 7.15289 0 0 1 2.46533-2.03516 7.59879 7.59879 0 0 1 3.48437-.752 7.73157 7.73157 0 0 1 1.9209.23926 6.41026 6.41026 0 0 1 1.751.73535 6.199 6.199 0 0 1 1.44531 1.21386 5.107 5.107 0 0 1 .96875 1.67579h.06836v-10.123h2.1416v24.418zm-11.74756-6.10547a7.5269 7.5269 0 0 0 1.02051 2.41211 5.62322 5.62322 0 0 0 1.78467 1.72656 4.91929 4.91929 0 0 0 2.61816.667 5.48882 5.48882 0 0 0 4.77735-2.39355 7.13047 7.13047 0 0 0 1.05371-2.41211 11.59111 11.59111 0 0 0 0-5.43652 7.13389 7.13389 0 0 0-1.05371-2.41114 5.49246 5.49246 0 0 0-4.77735-2.39453 4.91081 4.91081 0 0 0-2.61816.668 5.61291 5.61291 0 0 0-1.78467 1.72656 7.53077 7.53077 0 0 0-1.02051 2.41114 11.59111 11.59111 0 0 0 0 5.43652zm19.48877-11.54102v4.13868h.06836a6.76209 6.76209 0 0 1 2.53321-3.31836 6.60352 6.60352 0 0 1 4.09673-1.05952v2.15429a6.417 6.417 0 0 0-2.65235.39356 5.87726 5.87726 0 0 0-3.39941 3.35156 6.81448 6.81448 0 0 0-.47657 2.582v9.4043H218.999V363.6582zm19.00977.23926a7.75774 7.75774 0 0 1 2.60153 2.01854 8.75116 8.75116 0 0 1 1.59766 2.957 12.23746 12.23746 0 0 1 0 7.21582 8.756 8.756 0 0 1-1.59766 2.958 7.56576 7.56576 0 0 1-2.60156 2.001 8.94993 8.94993 0 0 1-7.10547 0 7.54747 7.54747 0 0 1-2.60156-2.001 8.72229 8.72229 0 0 1-1.59766-2.958 12.23746 12.23746 0 0 1 0-7.21582 8.71743 8.71743 0 0 1 1.59766-2.957 7.7385 7.7385 0 0 1 2.60156-2.01856 8.76877 8.76877 0 0 1 7.10547 0zm-6.23926 1.71a5.9303 5.9303 0 0 0-1.9209 1.71 7.76618 7.76618 0 0 0-1.15527 2.41114 9.87229 9.87229 0 0 0 0 5.50586 7.75034 7.75034 0 0 0 1.15527 2.41015 5.92187 5.92187 0 0 0 1.9209 1.71094 5.87958 5.87958 0 0 0 5.37207 0 5.912 5.912 0 0 0 1.9209-1.71094 7.75224 7.75224 0 0 0 1.15625-2.41015 9.87229 9.87229 0 0 0 0-5.50586 7.76809 7.76809 0 0 0-1.15625-2.41114 5.92039 5.92039 0 0 0-1.9209-1.71 5.8717 5.8717 0 0 0-5.37207 0z"/></g></svg>