<svg xmlns="http://www.w3.org/2000/svg" role="img" viewBox="20.34 20.59 179.83 229.58"><title>Kedro logo</title><path d="M24.994 245.07v-47.74h8.578v28.18l11.7946-13.327h10.1863l-13.604 14.985 15.8155 17.902H47.042l-13.47-16.51v16.51h-8.578zm50.2184.796c-3.3508 0-6.3218-.708-8.913-2.122-2.5913-1.415-4.624-3.404-6.0984-5.968-1.4743-2.563-2.2115-5.525-2.2115-8.884 0-3.404.7149-6.432 2.1445-9.084 1.4743-2.653 3.4848-4.708 6.0314-6.167 2.5912-1.503 5.6292-2.254 9.114-2.254 3.2614 0 6.1431.707 8.645 2.122 2.5018 1.414 4.4453 3.359 5.8303 5.835 1.4296 2.431 2.1444 5.149 2.1444 8.155 0 .486-.0223.995-.067 1.525 0 .531-.0223 1.083-.067 1.658H66.5004c.1787 2.564 1.0723 4.575 2.6806 6.034 1.6531 1.458 3.6412 2.188 5.9644 2.188 1.7424 0 3.1944-.376 4.356-1.128 1.2062-.795 2.0998-1.812 2.6806-3.05h8.7119c-.6255 2.078-1.6754 3.979-3.1497 5.703-1.4296 1.679-3.2167 3.006-5.3612 3.978-2.0998.972-4.49 1.459-7.1706 1.459zm.067-27.583c-2.0998 0-3.9539.596-5.5622 1.79-1.6084 1.149-2.636 2.917-3.0827 5.304h16.5527c-.134-2.166-.9382-3.89-2.4126-5.172-1.4743-1.281-3.306-1.922-5.4952-1.922zm36.7686 27.583c-3.128 0-5.92-.752-8.377-2.255-2.457-1.503-4.4009-3.558-5.8306-6.166-1.4296-2.608-2.1444-5.57-2.1444-8.885 0-3.315.7148-6.255 2.1444-8.819 1.4297-2.608 3.3736-4.641 5.8306-6.1 2.457-1.503 5.249-2.254 8.377-2.254 2.502 0 4.691.464 6.567 1.392 1.877.929 3.396 2.233 4.557 3.912V197.33h8.578v47.74h-7.64l-.938-4.708c-1.072 1.459-2.502 2.741-4.289 3.846-1.742 1.105-4.021 1.658-6.835 1.658zm1.809-7.426c2.77 0 5.026-.907 6.769-2.719 1.787-1.857 2.68-4.221 2.68-7.095 0-2.873-.893-5.216-2.68-7.028-1.743-1.857-3.999-2.785-6.769-2.785-2.725 0-4.981.906-6.768 2.719-1.788 1.812-2.681 4.155-2.681 7.028 0 2.873.893 5.238 2.681 7.095 1.787 1.856 4.043 2.785 6.768 2.785zm25.288 6.63v-32.887h7.639l.805 6.166c1.206-2.122 2.837-3.802 4.892-5.039 2.1-1.282 4.557-1.923 7.371-1.923v8.951h-2.412c-1.877 0-3.552.287-5.026.862-1.475.575-2.636 1.569-3.485 2.984-.804 1.414-1.206 3.381-1.206 5.901v14.985h-8.578zm39.839.796c-3.217 0-6.121-.73-8.712-2.188-2.546-1.459-4.579-3.47-6.098-6.034-1.475-2.608-2.212-5.614-2.212-9.018 0-3.403.76-6.387 2.279-8.951 1.519-2.608 3.552-4.641 6.098-6.1 2.591-1.459 5.495-2.188 8.712-2.188 3.172 0 6.032.729 8.578 2.188 2.591 1.459 4.624 3.492 6.098 6.1 1.519 2.564 2.279 5.548 2.279 8.951 0 3.404-.76 6.41-2.279 9.018-1.474 2.564-3.507 4.575-6.098 6.034-2.591 1.458-5.473 2.188-8.645 2.188zm0-7.36c2.234 0 4.177-.818 5.83-2.453 1.653-1.68 2.48-4.156 2.48-7.427s-.827-5.724-2.48-7.36c-1.653-1.679-3.574-2.519-5.763-2.519-2.278 0-4.244.84-5.897 2.519-1.609 1.636-2.413 4.089-2.413 7.36s.804 5.747 2.413 7.427c1.653 1.635 3.596 2.453 5.83 2.453z"/><path fill="#FFC900" d="M110.5 24.9951l73.667 73.6699-73.667 73.67-73.6667-73.67L110.5 24.9951z"/></svg>