<svg xmlns="http://www.w3.org/2000/svg" role="img" viewBox="-20.98 -27.98 1506.96 376.96"><title>Keystone ML logo</title><defs><style>.cls-1{fill:none}.cls-2{fill:#e69428}.cls-4{fill:#e59226}.cls-6{fill:#e59225}.cls-7{fill:#faeede}.cls-8{fill:#ecb162}.cls-9{fill:#f8e4ca}.cls-10{fill:#f3ce9d}.cls-11{fill:#fff}</style></defs><path d="M916.97 177.38c13.14-.092 26.28-.048 39.422-.048h39.422c2.75 0 2.775-.007 2.178-2.587-.406-1.753-.814-3.512-1.354-5.226-2.64-8.388-6.36-16.217-13.522-21.68-13.165-10.04-27.776-10.765-42.548-4.726-14.165 5.792-21.645 17.547-25.341 32.003-.458 1.789-.24 2.278 1.743 2.264zm191.605 8.567c.555 3.635 2.266 4.794 5.858 3.695 9.49-2.905 18.957-5.882 28.469-8.713 1.793-.534 2.934-1.14 2.351-2.961a11.89 11.89 0 0 0-.806-4.913c-1.555-4.103-3.373-5.05-7.585-3.996-.21.053-.43.058-.64.104-8.171 1.805-16.181 4.048-23.487 8.312-3.294 1.923-4.746 4.634-4.16 8.472zM363.963 300.224c.661.014 1.336.466 2.075-.134a2.036 2.036 0 0 0-2.075.134zm700.473-1.718a1.326 1.326 0 0 0 .279-.364l-1.266.147c.366.386.696.469.987.217zm-621.273-2.933c.887-.013 1.33.18 1.75-.212-.432-.237-.86-.37-1.75.212zm247.973 2.313l-1.215.668c-.275.067-.579.097-.865.15.287-.053.59-.082.865-.15a3.098 3.098 0 0 0 .83.519 3.098 3.098 0 0 1-.83-.518l1.215-.669zm552.984-3.074l1.293-.015-1.293.015zm-179.405 3.33a2.184 2.184 0 0 0-.44-.275 2.187 2.187 0 0 1 .44.275zm-479.655 5.076a.487.487 0 0 1 .034-.17l3.321-.6-3.32.6a.487.487 0 0 0-.036.17z" class="cls-1"/><path d="M1066.072 297.526l-.042.722a1.869 1.869 0 0 1 .355.05c.833.191 1.71.8 2.665-.349l-1.556-.221-1.422-.203a17.64 17.64 0 0 0-3.8-.024 17.627 17.627 0 0 1 3.8.025zm337.347-1.356c.51.03 1.02.051 1.53.06a1.78 1.78 0 0 0 .201.418 1.786 1.786 0 0 1-.2-.418l.695-.119-.696.119c-.51-.009-1.02-.03-1.53-.06zm-535.757-1.695c-.42-.128-.848.026-1.015-.407h-.003c.17.433.599.28 1.018.407zm-748.77 6.862h-2.401a2.282 2.282 0 0 0 2.4 0zm319.879-1.386c.827-.152 1.647-.315 2.469-.455-.822.14-1.642.303-2.469.455zm597.994-61.115q21.542.006 43.085 0c2.691 0 4.183-1.268 4.195-3.533.013-2.276-1.433-3.503-4.176-3.506q-10.826-.01-21.651-.002l-21.434.002c-2.307.002-4.223 1.539-4.228 3.361-.004 1.963 1.943 3.677 4.209 3.678zm-902.372 62l-4.57.198c1.082 1.865 3.365 1.766 4.57-.198zm-18.891-.834a.871.871 0 0 0-.196-.079 11.323 11.323 0 0 0-2.787.051c-.764.2-.011.36.18.5l3.064-.246a3.391 3.391 0 0 0-.26-.226zm1106.588-5.312l-.099.116zm24.584-1.495l.007.105zM54.367 298.404c.33.403.755.222 1.138.25-.252-.603-.639-.619-1.138-.25zm400.443-4.449l-3.72-.214a4.49 4.49 0 0 0 3.72.214zm592.027-102.737c.26 7.28.363 14.566.612 21.846a23.382 23.382 0 0 0 1.52 6.716 5.89 5.89 0 0 0 5.226 4.233 70.345 70.345 0 0 0 8.205.496c3.517-.014 4.587-1.24 4.595-4.75.047-20.279-.266-40.55-1.45-60.799-1.255-21.452-3.078-42.874-3.429-65.589-.443-10.04-.3-21.3-.328-32.56-.005-1.94.317-3.703 1.928-5.028.472-.389.787-.864 1.385-.2 2 2.221 4.32 4.044 5.507 7.067 9.34 23.791 18.889 47.5 28.285 71.27 3.89 9.842 8.46 19.413 11.794 29.472 1.451 4.378 1.574 4.586 6.192 4.605a28.213 28.213 0 0 0 9.367-1.4c3.383-1.166 4.939-3.515 4.114-6.33a94.925 94.925 0 0 0-3.063-9.225q-23.255-56.95-46.607-113.86c-2.65-6.467-5.131-13.001-8.902-18.957-4.771-7.534-11.443-10.899-20.338-9.825-2.65.32-3.894 1.503-4.015 4.158a491.33 491.33 0 0 0-.349 9.51c-.3 11.68-.759 23.359-.826 35.04-.106 18.254-1.028 36.484-1.322 54.73-.207 12.912.704 25.804 1.013 38.707.326 13.557.404 27.118.886 40.673zM390.423 301.257a1.364 1.364 0 0 0 .934-.294 1.366 1.366 0 0 1-.934.294zm858.127-7.725l-1.863-.135 1.863.135zm9.937 1.531l.003-1.01a3.752 3.752 0 0 1 1.62-.76 3.755 3.755 0 0 0-1.62.76l-1.384-.124 1.384.124-.003 1.01zm-734.635 5.897l-2.51-.14 2.51.14zm419.215-3.81a52.835 52.835 0 0 0 11.085-.004 54.36 54.36 0 0 0-11.085.004zm307.567-2.559a.797.797 0 0 1-.015.143 6.656 6.656 0 0 1-1.297.351 6.669 6.669 0 0 0 1.297-.35 3.714 3.714 0 0 0 .756.121 3.71 3.71 0 0 1-.756-.122.798.798 0 0 0 .015-.143zm-475.354-1.238l2.432-.07a1.999 1.999 0 0 1 .425-.485 2.001 2.001 0 0 0-.425.485l-2.432.069a5.497 5.497 0 0 0-3.68-.035 5.495 5.495 0 0 1 3.68.036zM60.457 297.21l3.342-.234.045-.54.27.21-.27-.21-3.631.03-2.021-.257 2.021.258.244.744zm371.486-3.94a2.732 2.732 0 0 0-2.306-.03 2.595 2.595 0 0 0 2.306.03zM160.8 302.306a1.127 1.127 0 0 0 .917-.614l-.862-.158q-.098-.152-.193-.273.095.121.193.273l-1.769.165a2.485 2.485 0 0 1 .383-.672 2.484 2.484 0 0 0-.383.672l-.04.541-.01.07.01-.07c.547-.16 1.184.118 1.753.066zm234.851-7.088l2.642-.008a2.002 2.002 0 0 0-2.642.008zm35.57 3.376l-10.868.054 10.868-.054zM1339.186 30.48c1.884.012 2.801-.752 2.94-2.62a45.001 45.001 0 0 0-.027-7.116 2.35 2.35 0 0 0-2.667-2.435q-22.074.02-44.147.01a5.038 5.038 0 0 0-4.787 3.089c-1.13 2.262-1.18 4.701-1.404 7.145-.145 1.588.324 1.947 1.833 1.934 8.007-.064 16.014-.03 24.021-.027 8.08 0 16.159-.028 24.238.02zM170.279 177.365q9.91-.045 19.82-.039 9.909 0 19.819.006c13.357 0 26.714-.017 40.071.024 1.492.005 2.148-.217 1.587-1.911-.633-1.909-.938-3.924-1.534-5.847-2.605-8.402-6.331-16.231-13.473-21.711-13.14-10.082-27.766-10.821-42.54-4.807-14.247 5.8-21.766 17.612-25.443 32.168-.465 1.84-.04 2.125 1.693 2.117zm494.373 69.822a50.312 50.312 0 0 0 48.741-31.836 57.933 57.933 0 0 0 3.936-22.59c-.18-1.89-.139-4.839-.485-7.786-2.742-23.381-22.628-45.366-49.953-45.405-17.415-.025-31.403 6.75-41.67 20.72-10.625 14.459-12.372 30.745-8.583 47.841 4.931 22.253 25.262 38.495 48.014 39.056zm419.776 50.364c-.203.053-.202.184-.004.262a.632.632 0 0 0 .365.048c.073-.02.113-.16.216-.318a2.563 2.563 0 0 0-.577.008zm88.542-134.341c4.367 2.847 9.352 3.547 14.319 4.425a3.795 3.795 0 0 0 4.333-2.019 32.813 32.813 0 0 0 3.005-6.692q14.782-45.434 29.581-90.863c1.317-4.042 2.614-8.091 3.969-12.12.475-1.415 1.475-2.845 2.852-2.905 1.142-.05 2.392 1.29 2.638 2.55.812 4.161 2.192 8.24 2.2 12.533.025 15.511-.418 31.017-.161 46.535.288 17.384.393 34.772.943 52.152.262 8.288.682 16.573.826 24.862.15 8.72.911 17.415.9 26.142-.002 2.507.573 5.253 3.124 6.482a25.92 25.92 0 0 0 9.565 2.453 4.088 4.088 0 0 0 4.273-4.038c.447-10.747.228-21.495.19-32.246-.08-21.795-.387-43.587-.814-68.776-.27-12.252-.633-27.901-.951-43.551q-.472-23.153-.873-46.308c-.107-5.722-.515-11.416-2.771-16.758-1.74-4.119-4.353-7.476-8.979-8.696-6.651-1.754-12.915.61-17.554 6.424-3.356 4.206-5.036 9.194-6.98 14.069-10.661 26.743-22.15 53.164-30.78 80.692-3.615 11.532-7.213 23.104-12.35 34.095a42.674 42.674 0 0 0-3.774 15.214 6.494 6.494 0 0 0 3.27 6.344z" class="cls-1"/><path d="M1158.311 173.57a6.316 6.316 0 0 0 3.192 2.09c9.974 3.027 19.931 6.112 29.896 9.174.474.145.965.238 1.449.356a2.196 2.196 0 0 0 1.932-.83c1.055-1.089 2.095-2.199 3.23-3.2.893-.787.663-1.374.011-2.155a11.755 11.755 0 0 0-5.48-3.32c-9.375-3.268-18.75-6.534-28.245-9.44-2.368-.726-7.199 3.583-6.678 6.017a3.294 3.294 0 0 0 .693 1.308zm-10.078 24.727c.502 1.855.977 3.765 3.223 4.096 1.486.22 3.003-1.854 3.352-4.468a44.716 44.716 0 0 0 .108-10.344 2.4 2.4 0 0 0-2.12-2.354c-2.95-.553-4.727.823-4.901 3.818-.071 1.22-.012 2.447-.012 3.67a23.78 23.78 0 0 0 .35 5.582z" class="cls-1"/><path d="M1133.87 189.91c-7.41.027-9.476 2.653-7.774 9.592.017.07.047.137.067.206a135.549 135.549 0 0 0 19.627 41.147 25.351 25.351 0 0 0 6.073 6.414c3.257 2.259 6.053 2.124 9.041-.461a28.237 28.237 0 0 0 5.15-6.38 127.076 127.076 0 0 0 11.69-24.317c2.738-7.369 5.287-14.81 6.56-22.596.71-4.34-.668-6.258-4.89-7.473a32.909 32.909 0 0 0-10.726-.961 6.25 6.25 0 0 0-5.559 3.876 33.455 33.455 0 0 0-2.237 6.525c-1.24 5.108-1.895 10.344-3.378 15.4a10.401 10.401 0 0 1-3.27 5.23 2.108 2.108 0 0 1-3.197-.04c-2.223-1.924-3.355-4.456-4.38-7.098-1.926-4.967-3.317-10.143-5.869-14.867-1.55-2.868-3.784-4.483-6.928-4.198zM861.899 291.765l-1.037.084c.442.314.774.344 1.037-.084zm377.754-59.993c-4.179 0-8.358-.025-12.536.015-1.413.013-2.76.338-3.328 1.885a6.735 6.735 0 0 0 3.603 8.65c4.305 2.027 8.916 2.36 13.517 2.037 4.832-.34 9.648-.284 14.474-.23a36.935 36.935 0 0 0 11.953-1.393 9.387 9.387 0 0 0 4.374-2.65c.349-.401 1.065-.933.478-1.45-2.043-1.804-3.338-4.513-6.518-4.946-8.638-1.175-17.28-2.21-26.017-1.918zm-856.952 68.19c-1.882-.153-3.818.42-5.649-.421.543.01 1.14.281 1.61-.354-.65-.222-1.22-.365-1.618.344-1.994-.387-3.788.718-5.74.658 3.065.623 6.13.256 9.188.283.702-.32 1.62.297 2.21-.51zm700.916-2.149a.928.928 0 0 0-.52.152c-.252.225.07.347.17.355a1.511 1.511 0 0 0 .527-.16c-.076-.154-.135-.35-.177-.347zm-562.274 3.007a1.29 1.29 0 0 0-.369-.582 1.29 1.29 0 0 1 .369.582z" class="cls-1"/><path d="M1052.978 291.484l-1.596.188 1.596-.188zm-996.883 6.399l-.042.01.042-.01zm367.326 3.77l.86.058-.86-.058zm630.486-3.463c.466-.04.931-.09 1.397-.139-.466.05-.93.1-1.397.139zm-930.431 2.885l3.002.034-3.002-.034zm292.103.768a2.34 2.34 0 0 0-1.748-.014 2.34 2.34 0 0 1 1.748.015zm-359.641-5.789c.004-.008.009-.01.013-.018-.005.007-.01.01-.014.018zm1119.753 1.386a.418.418 0 0 1-.328.024.418.418 0 0 0 .328-.024zm-798.573-2.462c-.775-.069-1.554-.19-2.331-.28.777.09 1.556.212 2.331.28zm892.304 3.13c3.271-.033 6.548.261 9.818.233-3.27.028-6.546-.266-9.816-.233zm-806.078-4.18c-1.02.007-2.04.02-3.06.03 1.02-.01 2.04-.023 3.06-.03zm-1.309-.628l1.255.125-1.255-.126zm713.365 5.249c4.393.044 8.784-.009 13.176-.038-4.392.029-8.783.082-13.175.038zM101.445 292.62c-.894-.017-1.792 0-2.688-.005.896.004 1.794-.012 2.688.006zm986.297 6.08l-.027-.024.027.024zm-632.289-5.238h-.001c.004.01.01.016.013.027-.003-.01-.009-.016-.012-.027zm406.477-1.737l.03.035h.001l-.031-.035zm-723.155 9.68l1.621.054-1.62-.055zm723.141-9.662a7.543 7.543 0 0 0-3.062-.62 7.543 7.543 0 0 1 3.062.62zm-79.946 1.732c0-.011.008-.013.01-.023-.002.01-.01.012-.011.023h.1-.002z" class="cls-2"/><path d="M455.479 293.488l-.026-.026c.003.011.009.016.012.027zm65.864 7.332z" class="cls-2"/><path d="M1403.358 296.494c-3.545-.024-7.09-.022-10.634-.028-6.387.101-12.772.162-19.132-.325 3.96-1.4 8.052-.31 12.041-.973-5.419-1.252-10.856-.163-16.273-.367-.6.302-1.19.521-1.701-.155l-5.641-.069a3.926 3.926 0 0 0-.824-.371 4.574 4.574 0 0 0-2.625.064c-2.382.638-4.868.327-7.314.226a5.887 5.887 0 0 0-2.557.02c-.33.837.838.679.815 1.342-.17.02-.39.116-.548.054-2.388-.938-5.046-.669-7.372-1.341-2.775-.802-5.071 1.006-7.717.353-2.909-.717-5.959-.108-8.93-.188-4.155-.111-8.396.554-12.734-.706a2.02 2.02 0 0 1 1.746-.454c4.09-.156 8.181-.323 12.273-.407a20.65 20.65 0 0 1 3.402.353c4.318.637 8.625-.479 12.929-.09 4.284.387 8.52-.84 12.868-.004a24.473 24.473 0 0 0 4.908.106c.559-.01 1.116-.005 1.666.036l11.276-.64c1.154-.777 2.82.212 3.816-1.109a51.559 51.559 0 0 0-5.18-.195c-6.956.407-13.924.13-20.881.257-5.566.102-11.184.032-16.777-.079-12.328-.243-24.666.33-36.995-.416a68.247 68.247 0 0 0-9.293.07c-10.363.79-20.735-.119-31.1.3-7.89.318-15.809-.777-23.69.403-.478.072-1.23.206-1.373-.307-.324-1.172-1.044-.598-1.69-.585-2.648.054-5.16.909-7.902.755-7.114-.398-14.256-.499-21.383-.412-4.524.055-9.07.246-13.578.185-11.337-.153-22.67.015-34.003-.016-6.598-.018-13.196.134-19.794.163-6.35.028-12.702-.02-19.053 0-1.946.006-3.9.274-5.835.16-4.164-.246-8.302-.729-12.494-.266-4.834.534-9.716-.436-14.562.298-.315.048-.928.288-1.001-.343-.058-.504.88-1.398-.421-1.335-.847.041-2.046-.567-2.505.928a1.36 1.36 0 0 1-1.663.709c-2.868-.714-5.724-.13-8.584-.022a8.811 8.811 0 0 1-1.658.005c-.334-2.307-2.104-.767-3.103-1.199.246.222.68.427.702.67.06.634-.526.534-.91.535-2.768.01-5.535-.006-8.304-.013a.81.81 0 0 1-.93-.229 1.059 1.059 0 0 1-.158-.358l-1.596.188-.949.069c-4.668.591-9.36.321-14.042.45-4.623.126-9.2-.772-13.809-.485a12.323 12.323 0 0 1-5.866-.926c-1.229-.544-3.214-.498-3.457-.028-.965 1.872-2.318 1.018-3.25.604-2.557-1.136-5.126-.3-7.678-.453-2.703-.163-4.921 1.746-7.788 1.398a21.526 21.526 0 0 0-8.308.145 4.005 4.005 0 0 1-3.036-.557c.884-.93 2.002-.777 2.929-1.3-3.05-.703-5.898 1.331-8.859.331-.158.763-.495 1.326-1.404 1.151-1.433-.275-2.943-.144-4.299-.821-1.48.052-2.96.124-4.44.188s-2.96.117-4.44.131-2.96-.01-4.437-.103a39.737 39.737 0 0 1-4.432-.518c-.838-.148-2.02-.408-2.522.01-1.21 1.004-2.421.61-3.691.617-4.874.023-9.764-.368-14.602-.29-7.642.125-15.275-.046-22.912-.037l-.543.004a34.094 34.094 0 0 1-8.354.058c-1.393-.15-2.929-.985-4.005-.656-3.31 1.015-6.57-.543-9.835.266a13.453 13.453 0 0 1-4.906.312c-4.662-.623-9.29.963-13.985-.068a11.424 11.424 0 0 0-6.532.561l.03.035-.062.005c-.262.427-.595.398-1.036.084l1.036-.084c.006-.01.013-.013.018-.022a7.543 7.543 0 0 0-3.062-.62c-1.057-.027-2.123.05-3.16-.013-5.005-.302-10.034-.248-15.054-.263-4.096-.012-8.206.314-12.284.065a68.194 68.194 0 0 0-11.821.507c-.38.442-.864.365-1.337.342a2.183 2.183 0 0 0-.465.015c3.12.709 6.387.516 9.443 1.733l-12.915-1.002c.647-.564 1.429-.165 2.192-.493l-1.09-.516a2.998 2.998 0 0 1 1.924-.174l2.12-.052a6.191 6.191 0 0 0-2.9-.481 23.774 23.774 0 0 0-2.81.135 7.374 7.374 0 0 0-3.027.772c-.73.571-2.084.614-1.887-.064.302-1.045-.184-.65-.603-.837-1.38-.62-2.587.404-3.836.36-4.641-.165-9.27-.73-13.924-.273 1.306.89 3.09.238 4.66 1.523h-6.418l2.883-.315-2.055-.905c-4.8.795-9.693-1.085-14.47.502-.253.085-.709.098-.833-.052-1.01-1.22-2.37-.688-3.583-.736-1.506-.06-3.06.623-4.379.663-3.083.093-6.242.19-9.283-.01-3.12-.204-6.232-.246-9.352-.387-10.237-.464-20.468-.34-30.702-.114-7.965.175-15.927.162-23.885-.206-2.686-.124-5.277.626-7.965.645-8.286.06-16.575-.205-24.86.238-2.788.149-5.613.748-8.381-.001-2.215-.6-4.476.87-6.884-1.038-1.418-1.124-4.453-.206-6.471-.206.783.675 2.496-.047 3.62 1.191-3.837.31-7.488-.109-11.137-.105-3.233.004-6.473.907-9.684-.23a1.225 1.225 0 0 0-.853-.023c-4.029 2.019-8.23-.828-12.47.612-2.528.858-5.676-.11-8.545-.258-.784.033-1.465.665-2.301.395-1.746.328-3.453-.48-5.164-.258-4.518.586-9.06.252-13.586.492-.919.049-2 .352-2.691-.914 1.277-.067 2.463-.13 3.638-.19-2.37.041-4.715-.729-7.242.841-1.566.973-4.701.185-7.056-.115a49.64 49.64 0 0 0-9.05-.352 48.541 48.541 0 0 1-6.855.355c-2.148-.182-4.198-1.47-6.46-.58a6.113 6.113 0 0 1-1.932.16c-.736.03-.9.415-.708 1.053l-3.227-.194c-3.27-.198-6.539-.474-9.812-.559-1.393-.036-2.53 1.397-4.15.807-2.154-.784-4.43-.526-6.648-.358a136.842 136.842 0 0 1-16.508.373c-1.719-.077-3.393-.779-5.14-.354.065 1.077-.557 1.263-1.475 1.245-2.405-.049-4.812-.034-7.219-.044a5.232 5.232 0 0 1-.733.057c-1.696.014-3.288-.728-4.94-.846a119.168 119.168 0 0 0-15.135-.032l.056.645 1.255.126c.192-.179.367-.135.367.113 0 .13-.202.26-.313.39-1.02.007-2.04.02-3.06.03s-2.038.013-3.058.004c-.307-.003-.666.13-.99.134a.753.753 0 0 1-.77-.607l-12.53.624c3.179.353 6.32-.496 9.215 1.141-4.341-.626-8.718-.212-13.072-.584l1.994.312c-.866.767-2.013 1.138-2.533.655-1.288-1.195-2.58-.367-3.86-.432a26.422 26.422 0 0 1-7.4.41l-2.908-.044a.797.797 0 0 1-.968-.421c-2.347-.512-4.767.536-7.102-.344-1.875-.707-3.762-1.379-5.644-2.067-.282.864-1.273.457-1.82.99 1.005.435 2.452-.407 3.096 1.682a15.381 15.381 0 0 0-3.32-.93 4.469 4.469 0 0 1-.456-.163 3.087 3.087 0 0 1-1.221-.909c-.278.062-.759.059-.803.196-.654 2.033-2.26 1.632-3.775 1.568-1.067-.045-2.138.016-3.208.03l-.858.007-2.642.008-1.32-.051-13.841-.32a4.291 4.291 0 0 1-3.372.131c-.775-.068-1.554-.19-2.331-.281a12.344 12.344 0 0 0-2.319-.095c-5.613.407-11.228-.034-16.84.194-4.749.192-9.5-.399-14.257-.106-1.533.095-3.293.624-4.52.339-2.066-.48-4.102.012-6.158-.654.258.52 1.032.02.974.759-4.027.43-8.002-.872-12.024-.22-1.025.166-1.298-.384-.829-1.302.263-.513.5-1.04.757-1.556q39.903-80.667 79.8-161.337a4.254 4.254 0 0 0 .82-2.348c-3.821 0-7.64.147-11.44-.058-2.081-.112-3.014.711-3.872 2.463q-20.117 41.07-40.343 82.087c-.939 1.908-1.903 3.805-2.87 5.733a3.065 3.065 0 0 1-1.235-1.689c-14.453-27.843-28.974-55.653-43.24-83.592-1.911-3.742-3.874-5.666-8.237-5.025-2.915.428-5.943.081-9.205.081.487 1.04.763 1.693 1.09 2.319q26.241 50.336 52.522 100.651a3.44 3.44 0 0 1 .083 3.573q-13.918 27.971-27.665 56.027c-1.223 2.509-2.23 3.795-5.502 3.617-6.469-.352-12.985.165-19.482.316-3.303.076-6.589-.779-9.911-.07a14.961 14.961 0 0 1-8.262-.748c-.829-.295-1.92-1.01-2.673-.405-1.318 1.057-2.734.674-4.13.75-4.042.217-8.14-.632-12.131.69a3.345 3.345 0 0 1-1.922-.053 10.78 10.78 0 0 0-4.287-.316c-2.249.208-4.375-.708-6.626-.559 1.136-.94 2.715-.426 4.21-1.629-2.71-.004-4.99.795-7.259-.277-2.543-1.201-5.237-.02-7.864-.074-11.624-.24-23.253-.621-34.872-.163-8.291.327-16.588.141-24.878.32-7.894.17-15.841.108-23.764-.086-10.802-.265-21.609.451-32.414-.015a4.465 4.465 0 0 0-2.54.347.884.884 0 0 1 .944.104c.008.006-.087.228-.154.24-.324.059-.675.132-.817-.31-.894-.017-1.792-.001-2.688-.005h-.002c-.448-.002-.896-.01-1.342-.03s-.89-.05-1.333-.1c-3.372-.384-6.677.563-10.053.281-2.787-.232-5.755-.612-8.374.085-2.646.703-5.37-1.784-7.777.545a1.047 1.047 0 0 1-.962-.21c-.466-1.045-1.358-.532-2.064-.663-2.187-.406-4.246 1.022-6.382.573-3.062-.643-6.134-.336-9.201-.434 1.588.726 3.331.66 5.002 1.076-2.57-.096-5.174.92-7.69-.392a15.686 15.686 0 0 1-3.369.193 7.498 7.498 0 0 0-3.365.628c-1.019.5-1.988-1.027-2.847-1.069-2.533-.124-5.074-.629-7.812-.242 1.372 1.13 3.006.035 4.797.972a46.253 46.253 0 0 1-6.503.366c-1.57-.133-3.374.26-4.67-.404-3.287-1.685-6.38-.476-9.547.03-.26.042-.572.469-.647.77-.114.46.312.565.682.6a22.372 22.372 0 0 0 4.49.346c3.047-.352 5.879-1.251 9.157-.159 1.699.566 4.207.191 6.344.054.86-.055 1.647-.853 2.496-.516a17.786 17.786 0 0 0 6.522 1q5.822.058 11.643.121a.768.768 0 0 1 .573-.413 1.693 1.693 0 0 1 .457.013 2.3 2.3 0 0 0 .688.035h4.226l.021.303-3.724.235 2.022.257 3.631-.03.27.21-.315.33-3.342.235c-1.343.95-2.894.543-4.362.672l-.042.01-.042.01-.122.87a30.354 30.354 0 0 1 4.587-.093 7.994 7.994 0 0 1 1.523.316l-1.237.164a2.782 2.782 0 0 0 2.456.261c.26-.06.52-.124.781-.175a4.235 4.235 0 0 1 .692-.09 46.57 46.57 0 0 1 3.231-.144 86.33 86.33 0 0 1 9.662.55 6.758 6.758 0 0 1 4.842-.231c1.623.558 3.158 1.22 4.622-.266.68.881-.59 1.143-.323 1.783l11.273.016c.275-.315.631-.626.035-.97H88.83c3.084-.16 6.152-.477 9.23-.638 3.349-.489 6.699-1.037 9.965.062-2.536.689-5.303.264-7.888 1.125.464.038.933.052 1.399.08a9.723 9.723 0 0 1 1.38.162 23.785 23.785 0 0 0 9.807.16 3.33 3.33 0 0 1-.024-.372c-.192-.139-.945-.3-.18-.499a11.323 11.323 0 0 1 2.786-.05c-.153-.15-.436-.297-.438-.447-.005-.814.636-.368.852-.29a6.667 6.667 0 0 0 2.913.395 7.65 7.65 0 0 0 2.802-.854h4.019c-1.254 1.029-2.685.743-4.063.79.148.692-.72.712-.858 1.221.988.282 2.025-.226 2.943.336l3.002.034 1.024.012a1.855 1.855 0 0 1 .572-.255 2.049 2.049 0 0 1 .579-.058c.012 0 .025.004.038.005a5.22 5.22 0 0 1 1.132.221l4.57-.198c1.46.196 3.047-.586 4.382.569l1.621.054a.837.837 0 0 1 .967-.599h14.86a40.008 40.008 0 0 0-7.895 1.52h10.698l.01-.07.01-.07.04-.54a2.484 2.484 0 0 1 .383-.673.658.658 0 0 1 .423-.255.508.508 0 0 1 .225.03 1.328 1.328 0 0 1 .545.459q.095.121.193.273l.862.158a2.683 2.683 0 0 1 .738.015.75.75 0 0 1 .544.5 12.873 12.873 0 0 0 3.364.36 8.22 8.22 0 0 0 1.22-.155l-1.234-1.153a5.316 5.316 0 0 1-3.068-.443c2.208-.63 4.466-.337 6.697-.406 1.08-.033 2.164.019 3.246.01.79-.007 1.47.09 1.45 1.117a9.823 9.823 0 0 1 1.982-.252 3.695 3.695 0 0 1 .671.072c-.067.561-.924.05-.77.844 14.3-.869 28.637-.076 42.941-.73l-3.4-.246c1.46-.352 2.948-1.343 4.376-.537 3.031 1.709 6.332.773 9.486 1.191.495.066-.187-.169-.08-.4.285-.61.843-.464 1.289-.514 2.223-.25 4.38.616 6.9.154-.847 1.05-1.833.344-2.706 1.057 21.922-1.863 43.64-.72 65.626-1.722l-9.819 19.887c4.312 0 8.332-.06 12.348.031a2.713 2.713 0 0 0 2.97-1.787c2.486-5.286 5.25-10.442 7.69-15.75.937-2.04 2.45-2.38 4.291-2.453 3.026-.12 5.942.732 9.105.184a49.172 49.172 0 0 1 11.85-.102c2.153.158 4.299-.228 6.432.177a32.419 32.419 0 0 0 8.513.352c2.8-.21 5.508-1.398 8.409-.882-.355.668-1.114.596-1.695 1.072a12.805 12.805 0 0 0 2.296.235c3.348-.282 6.687-1.015 10.03.098a1.932 1.932 0 0 0 1.467-.139 4.434 4.434 0 0 1 2.152-.692 11.515 11.515 0 0 1 2.236.127 5.338 5.338 0 0 1 .648-.047.763.763 0 0 0 .58-.293c-3.058-.027-6.123.34-9.189-.283 1.953.06 3.747-1.045 5.741-.657.398-.71.969-.567 1.618-.345-.47.635-1.067.365-1.61.354 1.83.841 3.767.268 5.65.421 1.388-.336 2.59.518 3.987.523-.597.855-2.031-.28-2.24 1.132.439.008.877.02 1.316.03a19.069 19.069 0 0 0 3.935-.226 1.648 1.648 0 0 1 .723-.164 1.366 1.366 0 0 0 .934-.294.97.97 0 0 0 .172-.236 11.307 11.307 0 0 1-1.934.052 3.527 3.527 0 0 1-.84-.248c2.825-.964 5.464-.211 7.907-.917-1.505 1.392-3.513.254-5.117 1.106l.236.863 6.561-.052c1.732-.313 3.466-.715 5.147.21a5.952 5.952 0 0 0 1.64-.007c.553-.064 1.111-.161 1.664-.21a3.687 3.687 0 0 1 3.181.988c.184.182.706-.02 1.056.043a3.04 3.04 0 0 0 1.705-.288c.365-.148.727-.317 1.096-.438a2.34 2.34 0 0 1 1.748.014.8.8 0 0 1 .652-.61c1.105-.996 2.479-.124 3.92-.594l-1.88-.457 1.802-.453c-1.052-.427-2.302.307-3.125-1.081h3.405l10.868-.054a2.722 2.722 0 0 1 2.484-.312 18.73 18.73 0 0 0 3.978.353c.69.005 1.38-.001 2.07.005.638.007 1.274.023 1.91.076l6.833.032c2.536.785 5.055-.38 7.602-.06 1.33.167 2.699.03 4.051.15-2.007.2-4.01.438-6.018.584a38.653 38.653 0 0 1-6.042.03c-1.141.024-2.282.127-3.424.178a16.721 16.721 0 0 1-3.425-.134c-.822.14-1.642.303-2.469.455a19.424 19.424 0 0 1-7.875.222l5.853-.731-.005-.383h-5.586l-8.102.119a1.626 1.626 0 0 0 .402.268 2.148 2.148 0 0 0 .878.176 4.44 4.44 0 0 1 2.37.277c-.883.766-1.903.51-2.78.48-1.615-.054-.384.842-.505 1.274l.86.058c.874-1.092 2.03-.913 3.123-.572a11.922 11.922 0 0 0 3.803.56 12.575 12.575 0 0 1 4.863-.339c.035.734-1.006.129-.956.897.931.386 1.943.126 2.907.264 4.538.65 9.038-1.2 13.626-.096 1.313.316 2.82.128 4.236.401 2.648.511 5.224-.202 7.81-.638 4.53-.824 9.133-.913 13.702-1.333a26.782 26.782 0 0 0 5.346-.563 3.691 3.691 0 0 0-2.515-.285 22.496 22.496 0 0 1-7.394-.91c4.454 0 8.908-.01 13.362.02a.932.932 0 0 1 .46.17c.153.094.306.207.46.287a22.597 22.597 0 0 1 2.817-.238 47.53 47.53 0 0 1 2.822.023c.94.03 1.881.073 2.822.097s1.88.029 2.82-.017c1.588-.864 1.645.253 1.728 1.335 1.67.083 3.38 1.293 5.008-.27.27-.26.938-.107 1.421-.145.09-1.054-.653-.882-1.294-.898a6.398 6.398 0 0 1-3.066-.242c3.928-.056 7.5-.43 11.03.963 1.889.745 3.955-.383 5.963-.218a5.21 5.21 0 0 1 1.536.12.992.992 0 0 1 .253.154 1.29 1.29 0 0 1 .369.582l2.51.14a4.87 4.87 0 0 1-4.252 1.582l-2.964.13a1.674 1.674 0 0 0 1.094.326c12.364.134 24.73.41 37.092.287a74.268 74.268 0 0 1 8.349.037c3.762.378 7.624-.228 11.443-.412a4.683 4.683 0 0 1 2.82-.799c3.647.016 7.296.006 10.98.338l-3.321.6a.475.475 0 0 0-.007.34 14.783 14.783 0 0 0 4.5-.142c3.643-.452 7.223-1.206 10.962-1.157 10.27.133 20.545-.132 30.817-.038 2.136.02 4.09-1.426 6.098-.777 3.988 1.29 8.012.64 12 .529 10.132-.284 20.27-.32 30.405-.759a90.305 90.305 0 0 1 15.427.39c1.624.21 3.512.627 5.08.039a15.943 15.943 0 0 1 5.958-.595c3.79.02 7.535.748 11.376.227 4.214-.572 8.504.19 12.712.047 5.672-.19 11.316-.019 16.975.027 5.873.048 11.745.157 17.623.023 8.085-.186 16.176-.119 24.264-.05 4.75.04 9.487-.401 14.257.073 2.91.29 5.9-.348 8.855-.356 6.778-.018 13.562.284 20.333.08 3.953-.12 7.915-.146 11.844.002 3.541.133 6.933-.833 10.573-.388 5.354.654 10.847.168 16.508.168l-1.048-.513c3.671.238 7.332.213 10.997.223 5.24.015 10.48.316 15.719.316 3.877 0 7.767-.563 11.629-.387 7.146.326 14.28-.304 21.419.02 6.41.291 12.815-.398 19.235-.063 3.749.196 7.523-.03 11.282-.168 1.1-.04 2.307.358 3.318-.573.237-.217.838-.041 1.271-.042 2.81 0 5.63.325 8.419-.329a1.76 1.76 0 0 1 1.243.13c2.63 1.763 5.598.186 8.459.812 2.313.505 5.198-.142 7.84.054.425.032.96.17 1.266-.023 1.966-1.242 4.033-.753 6.096-.477.416.056.876.32 1.23-.042 1.205-1.235 2.59-.707 3.988-.534 1.29.16 2.433.795 3.768.849 6.493.259 12.961-.44 19.46-.386 5.015.042 10.155.487 15.117-.955a.756.756 0 0 1 .216.002c-.508-.774-1.306-.493-1.973-.466a29.691 29.691 0 0 1-7.465-.668 97.463 97.463 0 0 0 3.46-.089 51.495 51.495 0 0 1 10.38.243 12.403 12.403 0 0 1 5.217.11c.571.118 1.141.26 1.71.414.466-.04.931-.09 1.397-.139a18.871 18.871 0 0 1 4.204-.123c.48-.02.663.264.712.69l.806-.775-.006-.046c.053.005.106.001.16.004a5.942 5.942 0 0 1 1.091-.3 17.64 17.64 0 0 1 3.801.024l1.421.203 1.557.221c-.956 1.15-1.832.54-2.665.35a1.869 1.869 0 0 0-.355-.051l.03.84c1.848-.164 4.198.765 5.44-.513 1.713-1.763 3.456-1.214 5.247-1.141a29.975 29.975 0 0 1 6.96 1.183c.573.163 1.453.432 1.63.108a1.7 1.7 0 0 1 .631-.732.666.666 0 0 1 .303-.079c.02 0 .038.01.057.01a1.004 1.004 0 0 1 .383.119c.333.17.66.466.997.637l.007-.004a18.114 18.114 0 0 1 5.636-.836c1.075.005 2.15.036 3.224.072a7.461 7.461 0 0 1-.546-.182 2.29 2.29 0 0 1 1.993-.165 1.337 1.337 0 0 1-.656.371 59.088 59.088 0 0 0 8.215-.112c3.85-.406 7.71.512 11.6-.038 1.668-.235 3.466-.817 5.235.279a2.49 2.49 0 0 0 2.685-.086c1.69-1.68 3.532-1.124 5.329-.593a16.727 16.727 0 0 0 6.372.77c8.755-.887 17.573.747 26.35-1.114 3.997-.847 8.325-.133 12.504-.127a51.937 51.937 0 0 1 12.833.334c-4.272-.187-8.516.71-12.798.19v.001a.418.418 0 0 1-.329.024 1.02 1.02 0 0 0 .038 1.085c4.392.044 8.783-.009 13.175-.038 4.392-.03 8.785-.034 13.18.106 8.39.269 16.802-.596 25.19.377 2.027.235 3.926-.696 5.982-.631a88.754 88.754 0 0 0 9.164.184c4.257-.311 8.463.064 12.691.107a5.568 5.568 0 0 0 1.9-.251 8.551 8.551 0 0 1 6.64.167 5.547 5.547 0 0 1 6.1-.462h.001c3.27-.033 6.546.261 9.817.233a41.418 41.418 0 0 0 1.961-.06 28.044 28.044 0 0 0 3.916-.478 9.055 9.055 0 0 1 3.418-.343c4.752.86 9.592.108 14.352.775 2.026.284 3.942-.753 5.97-.392a47.358 47.358 0 0 0 8.968.511c6.27-.08 12.576-1.507 18.832.12 1.96.51 3.81-.74 5.758-.324.473-.431.988-.336 1.689-.091a2.766 2.766 0 0 1-.777.266c1.215.048 2.439.138 3.656.194a27.39 27.39 0 0 0 2.308.024 14.395 14.395 0 0 0 2.191-.24 50.017 50.017 0 0 1 10.317-.52c3.013.038 6.081-.892 9.073.382a2.037 2.037 0 0 0 2.071-.24c.811-.785 1.732-.607 2.631-.564 4.535.214 9.073.212 13.61.578 3.5.283 7.04-.372 10.577-.158a10.114 10.114 0 0 0 4.264-.372c-.01-.46-.11-.912-.667-.915zm-1338.202.539h2.374a2.484 2.484 0 0 1-2.374 0zm4.678-.152h4.572c-1.261-1.158-2.644-.651-3.974-.629-1.65.028-3.3.127-4.952.173-.367.01-.732-.097-.75-.57-.016-.395.283-.47.578-.435 4.772.562 9.628-.339 14.376.725a16.31 16.31 0 0 1-9.85.736zm34.116-.888a8.448 8.448 0 0 1-1.095-.061.99.99 0 0 1 1.17-.2c.166.076.133.244-.075.26zm1.412-.719h4.733c-1.586.17-3.146 1.06-4.733 0zm258.601 4.95a2.036 2.036 0 0 1 2.075-.134c-.739.6-1.414.148-2.075.134zm21.196-1.883h7.779c-1.574.984-3.121 1.015-7.779 0zm16.675 1.051c2.279-.296 4.454-.229 6.628-.638l.006.638zm41.33-3.82c.889-.58 1.317-.448 1.748-.211-.418.392-.862.199-1.749.212zm7.926-1.83l3.72.213a4.49 4.49 0 0 1-3.72-.214zm65.676 5.586c1.34.008 2.588-1.36 4.37 0zm11.58 1.608a18.926 18.926 0 0 1 5.437.152c-1.662.89-1.826.886-5.438-.152zm32.196-1.817c1.412-.79 2.851-.404 4.704-.32-1.788 1.138-3.249.658-4.703.32zm18.489.388c2.054-1.386 4.268-.592 6.318-.522l-6.318.522zm17.997-.321c1.62-.017 3.334-1.366 4.85.284-1.666-.003-3.293.32-4.85-.284zm19.208-5.548c-1.495.824-1.495.824-3.792.623 1.508-.856 1.508-.856 3.792-.623zm-11.18 5.007h12.335c-4.16 1.478-8.247.77-12.334 0zm73.845-4.485c2.278.015 4.497-.966 6.79-.33a4.437 4.437 0 0 0 3.355-.48c1.64-1.011 2.95-.426 4.375.204 5.362.694 10.802-1.065 16.157 1.154h-16.16a33.483 33.483 0 0 0-10.9.03c-1.295.25-2.41-.406-3.617-.578a6.797 6.797 0 0 1-.773-.038 3.523 3.523 0 0 1 .773.038zm-53.486 4.748c4.632-.804 8.76-.066 12.891-.149-4.143 1.117-8.29 1.874-12.891.149zm15.23.533c.686-1.816 1.524-1.934 3.753-.498a6.025 6.025 0 0 1-3.752.498zm14.737-.104c-2.325.317-4.691.04-7.013.576-.93.214-.507-.772-.652-1.212-.277-.845.49-.443.716-.456 1.07-.063 2.147-.028 3.22-.028v-.21c1.216 0 2.431-.007 3.646.005.39.003.697.17.716.614a.643.643 0 0 1-.633.711zm5.913-4.293c-2.762-.872-5.375.41-8.061.507-1.88.068-3.777.366-5.653-.64a5.011 5.011 0 0 0-3.564-.178 13.298 13.298 0 0 1-6.964-.189 1.362 1.362 0 0 0-.634-.072c-4.502 1.093-8.954-1.23-13.46-.194-.478.11-.998-.05-1.505-.813 5.91 0 11.633.147 17.344-.044 5.019-.168 10.044.105 15.063-.347 1.766-.159 3.654.617 5.363.3 5.503-1.025 10.935-.16 16.437.31a10.435 10.435 0 0 1-6.174.503 9.569 9.569 0 0 0-7.579.752.852.852 0 0 1-.613.105zm10.577.309l-.01.717c-2.785-.72-5.584-.25-8.37-.717zm-4.806 2.292a.81.81 0 0 1-.173-.033c.02-.027.04-.076.061-.077a.827.827 0 0 1 .172.028c-.02.03-.04.082-.06.082zm40.637 1.442c-2.052-.014-4.078-.378-6.082.795a1.876 1.876 0 0 1-1.591.116c-.532-.165-1.067-.464-1.611-.69a3.491 3.491 0 0 0-1.105-.29c-.028.045-.06.065-.089.107a2.096 2.096 0 0 1-.734.714 1.334 1.334 0 0 1-.281.11 2.509 2.509 0 0 1-1.491-.163 10.245 10.245 0 0 0-2.456-.37 7.998 7.998 0 0 1-.618-.084 4.187 4.187 0 0 1-.895-.26 3.098 3.098 0 0 1-.829-.517c-.275.066-.578.096-.865.148a1.817 1.817 0 0 0-.766.283c-.947.702-1.601.405-2.643.017-1.943-.723-4.093-.162-6.159-.153a72.66 72.66 0 0 1-11.546-.38l-.012-.688c1.28 0 2.563-.044 3.84.009 2.374.098 4.805-.571 7.043-.338a69.1 69.1 0 0 0 7.729-.124 15.406 15.406 0 0 1 4.594.557h7.334c-1.276.726-2.394.03-3.906.631l2.745.224c4.513-.272 8.948-1.337 13.548-.912 1.76.162 3.647-.17 5.486-.107a3.285 3.285 0 0 1 2.544 1.014 111.351 111.351 0 0 1-11.184.351zm37.577-.218c-3.167.187-6.346.035-9.517.244 3.134-.96 6.345-.197 9.517-.244.666-.04 1.331-.072 1.996-.15a13.816 13.816 0 0 1-1.996.15zm32.532-.441c-2.266.142-4.5 1.212-6.895.502 2.267-1.045 4.59-.632 6.895-.502a6.437 6.437 0 0 1 1.346.034 17.29 17.29 0 0 1-1.346-.034zm4.257-4.953h-.1c0-.011.01-.013.01-.023-2.243-.209-4.405 1.016-6.672.38h-12.925l-.01-.353a69.773 69.773 0 0 1 7.004.054 7.267 7.267 0 0 0 2.224-.216 5.497 5.497 0 0 1 3.68.035l2.432-.07a2.001 2.001 0 0 1 .425-.484.768.768 0 0 1 .63-.134h4.158a.564.564 0 0 1-.243.26c-.195.112-.434.132-.58.258a.403.403 0 0 0-.123.27h.014c.025.01.05.014.074.023h7.69c-2.568.24-5.14.928-7.689 0zm19.344-.075a.735.735 0 0 1-.568-.793l-.015.001.007-.01c-.47-.002-1.138.236-1.183-.485-.04-.617.608-.453.991-.464a15.258 15.258 0 0 1 1.53.101c-.188.786-1.086.29-1.338.849h.006l.002.008a9.126 9.126 0 0 1 2.376.024c.786.1 1.565.273 2.343.447s1.557.35 2.343.459a9.473 9.473 0 0 0 2.39.06 20.98 20.98 0 0 1-8.884-.197zm38.916.276a5.777 5.777 0 0 1 4.588.561 7.368 7.368 0 0 1-4.588-.56zm13.955.022h-6.809l.014-.556c2.274-.23 4.53.456 6.795.556zm14.75-.131a1.372 1.372 0 0 1-.547.242c-.044.01-.09.022-.135.03a8.188 8.188 0 0 0-1.705.229c.167.433.596.279 1.016.407a.897.897 0 0 1 .406.254c-1.837-.231-3.579.417-4.962-.823 2.214.417 4.076-1.809 6.179-.607a1.236 1.236 0 0 1-.253.268zm37.063-1.346c-1.284.988-3.548 1.14-7.65.546 2.573-.297 5.142.156 7.65-.546zm-17.538 5.262a145.939 145.939 0 0 1 23.549 0zm44.632.15c1.51-1.162 3.04-.658 4.708-.626-1.518 1.439-3.043.985-4.708.626zm9.876-.483a54.36 54.36 0 0 1 11.085-.004 52.835 52.835 0 0 1-11.085.004zm30.682.691c-5.321-.679-10.656-.022-15.974-.768h15.983l-.01.769zm8.412-2q-1.813-.069-3.629-.231a3.738 3.738 0 0 1-.505.05 4.212 4.212 0 0 1-.495-.015 16.181 16.181 0 0 1-2.9-.76h3.985c.444.104.902.21 1.364.3a6.797 6.797 0 0 0 3.976-.116c3.196-1.406 6.065.146 9.075.326a69.684 69.684 0 0 1-10.87.445zm8.87 1.368h-4.042a30.073 30.073 0 0 1 4.042 0h6.359a37.044 37.044 0 0 1-6.36 0zm5.89-1.916c2.12-.101 4.248-.081 6.376-.198-2.754.873-4.7.918-6.375.199zm13.474.13a26.567 26.567 0 0 1 6.925-.032 21.498 21.498 0 0 1-6.926.032zm14.579.622c3.029-1.354 5.884-.64 8.771 0zm9.987-.687l6.45-.572c-1.732 1.039-3.18 1.163-6.45.572zm48.307 2.962c-.101-.008-.423-.13-.171-.355a.928.928 0 0 1 .52-.152c.042-.003.101.193.177.347a1.511 1.511 0 0 1-.526.16zm1.521-.46a.632.632 0 0 1-.365-.047c-.198-.078-.2-.21.004-.262a2.563 2.563 0 0 1 .577-.008c-.103.159-.143.298-.216.318zm-3.162-4.27q4.324.316 8.654.526c-2.9.11-5.826.687-8.654-.527zm46.736 1.285c-1.346-.351-1.332-.215-2.65 1.021a1.812 1.812 0 0 1-1.456.187 36.532 36.532 0 0 0-2.15-.509 24.56 24.56 0 0 0-6.558-.506q-.128.143-.25.292c-2.582.208-5.087.73-7.716-.403-1.513-.652-3.44.7-5.238.082 4.58-1.136 17.817-2.399 29.06-1.043a2.778 2.778 0 0 1-3.042.879zm4.368-.886c1.4.095 2.63-.134 3.801.57-1.174-.316-2.568 1.127-3.801-.57zm8.845 1.176c4.323-2.063 8.723-.711 13.12-.356-4.352.553-8.728 1.166-13.12.356zm12.362-1.395a11.748 11.748 0 0 1 5.2-.609 9.705 9.705 0 0 1-5.2.609zm16.905.27a29.239 29.239 0 0 1-4.005 1.198 14.449 14.449 0 0 1-6.1-.105c3.276-1.676 6.722-.949 10.105-1.094a5.429 5.429 0 0 1 1.962-.197 14.27 14.27 0 0 1-1.962.197zm19.068 2.673c2.804-.329 5.605.13 8.409 0a13.1 13.1 0 0 1-8.409 0zm23.3.588c1.165-.925 2.69-1.075 6.817-.638-2.595.92-4.658.643-6.816.638zm24.76.072c-2.443-.828-4.79.128-7.176.02a3.839 3.839 0 0 1-2.752-.722h12.104c-.813.737-1.06 1.08-2.176.702zm6.054-.196a1.351 1.351 0 0 1-1.293-.828c3.802.933 7.36-.773 11.017.074a5.146 5.146 0 0 0 3.783-.469c1.137-.656 2.026-.024 3.06.95-5.663-.388-11.096 1.015-16.567.273zm46.327-2.323c-5.757-.148-11.509-.185-17.27.046-.97.04-1.941.05-2.913.042a110.22 110.22 0 0 1-3.034-.073c-1.908-.068-3.817-.164-5.723-.212a.786.786 0 0 1-.375.451.682.682 0 0 1-.16.054 1.816 1.816 0 0 1-.732-.055l-1.658-.044h-4.35c.794-.482 1.848.174 2.457-.664a6.197 6.197 0 0 0-2.987.173 12.227 12.227 0 0 1-1.483.267 4.827 4.827 0 0 1-.749.017 3.714 3.714 0 0 1-.756-.122 6.669 6.669 0 0 1-1.297.35 7.37 7.37 0 0 1-1.3.096 9.42 9.42 0 0 1-1.304-.113c-.434-.066-.87-.16-1.304-.27l-1.293.014-2.586.03a1.453 1.453 0 0 1-.705.286 2.489 2.489 0 0 1-.74-.026c-3.286-.55-6.612-.24-9.91-.49a7.484 7.484 0 0 1-1.006.329c-2.347.59-4.7.003-7.053-.287l-.031.037-.099.116c-2.424.773-4.883.136-7.325.148-.145.001-.293-.407-.439-.625-7.487 1.462-15.013.748-22.55.601a94.49 94.49 0 0 0-9.498.254 3.577 3.577 0 0 1-2.464-.24c1.263-.91 2.675-.75 3.944-.876 4.428-.442 8.892.157 13.346-.746 1.843-.374 3.941.596 5.938.843a11.204 11.204 0 0 0 1.287.253.82.82 0 0 0 .57-.193 1.37 1.37 0 0 0 .38-.762 2.188 2.188 0 0 1 .38-.394c.929-.737 2.115-.277 3.159-.3a12.117 12.117 0 0 1 3.638.602q-1.315.12-2.631.238a2.201 2.201 0 0 0 1.637.697 6.567 6.567 0 0 0 1.155-.118 4.909 4.909 0 0 1 1.722-.087q7.534-.42 15.069-.843a29.712 29.712 0 0 0 6.258.095 23.026 23.026 0 0 1 3.76.09 3.725 3.725 0 0 1 1.763.455 1.735 1.735 0 0 1 .445.471c.421-.129.838-.279 1.254-.428s.833-.299 1.255-.426a6.585 6.585 0 0 1 2.63-.32c1.455-.36 2.86.09 4.28.285.237.033.474.058.712.071a5.891 5.891 0 0 0 .717 0c.298-.017.597-.042.896-.066s.598-.047.896-.06a5.619 5.619 0 0 1 2.93.504l1.385.124a3.755 3.755 0 0 1 1.62-.76 7.05 7.05 0 0 1 1.8-.103c9.213.444 18.433.711 27.658.745a5.78 5.78 0 0 1 .865.032c.454.07 1.219-.12 1.124.624-.104.814-.765.274-1.205.263zm4.969 1.474a24.383 24.383 0 0 1 7.415-.051 30.761 30.761 0 0 1-7.415.052zm.97-1.84c4.879.262 9.762-.912 14.638-.05-4.88.09-9.761.766-14.638.05z" class="cls-2"/><path fill="#345691" d="M1030.617 243.944q27.624-.032 55.247.006a2.933 2.933 0 0 0 3.127-2.373c.982-3.132.593-6.316.232-9.447-.385-3.339-1.593-4.387-4.967-5.035-1.627-.313-3.275-.52-4.903-.824a6.07 6.07 0 0 1-5.057-5.878q-.589-11.45-1.196-22.897c-1.032-18.864-2.132-37.724-3.11-56.59q-1.27-24.52-2.308-49.053c-.25-5.895-1.142-11.78-.461-17.7.073-.631-.342-1.504.85-1.626 1.02-.104 1.425.442 1.693 1.27.133.411.31.808.465 1.212 11.514 29.938 22.968 59.9 34.61 89.788 1.712 4.396 1.938 8.015-1.961 11.222a5.325 5.325 0 0 0-1.753 5.078c.721 6.26 3.342 11.453 8.549 15.146 2.112 1.498 4.5 2.43 7.128 1.672 1.378-.397 1.879.065 2.421 1.243q8.1 17.58 16.305 35.113a54.622 54.622 0 0 0 7.225 12.025c3.279 3.946 7.227 6.942 12.456 7.55 4.174.484 8.49.63 11.914-2.42a19.663 19.663 0 0 0 5.542-8.65c3.583-10.872 7.177-21.742 10.698-32.635a27.935 27.935 0 0 1 8.08-12.32c4.221-3.827 8.508-7.603 12.066-12.108a15.185 15.185 0 0 0 3.252-8.985 2.919 2.919 0 0 0-.983-2.48c-1.796-1.672-3.497-3.445-5.3-5.11a3.975 3.975 0 0 1-1.133-4.112 107.22 107.22 0 0 1 2.799-10.425c8.414-26.643 16.188-53.486 25.083-79.977.413-1.229.847-2.455 1.166-3.708.241-.946.855-1.023 1.631-.972.89.058.725.733.757 1.275.03.504.007 1.01.007 1.516v132.16l-.001 15.165c-.003 3.127-.238 3.418-3.258 4.459a44.794 44.794 0 0 0-4.851 1.81c-3.432 1.65-6.266 3.845-6.781 8.031-1.005 8.17 4.466 14.457 12.726 14.475 12.205.028 24.41-.055 36.615.05a21.763 21.763 0 0 0 9.176-2.098c2.19-.979 3.634-2.492 3.46-5.329a117.502 117.502 0 0 1-.01-12.343c.092-2.084-.627-2.453-2.536-2.427-7.699.106-12.066-3.403-13.906-10.9-1.253-5.11-.767-10.304-.892-15.482-.418-17.23-1.091-34.453-1.545-51.682-.372-14.064-.596-28.131-.84-42.198-.428-24.548-.315-49.098-.061-73.646a59.125 59.125 0 0 0-2.347-17.496c-2.004-6.785-6.181-11.601-13.29-13.514-12.932-3.48-25.727 5.373-29.357 15.746-15.57 44.495-31.57 88.84-47.374 133.254a13.249 13.249 0 0 1-7.46 7.966c-2.682 1.141-4.105 2.668-4.486 5.418a10.332 10.332 0 0 1-.518 1.873c-.748 2.202-1.126 2.342-2.993 1.083q-6.285-4.238-12.134-9.062a10.792 10.792 0 0 1-3.224-4.237c-17.232-41.347-33.946-82.91-51.634-124.068-2.33-5.42-4.269-11.025-7.566-15.996a21.165 21.165 0 0 0-13.817-9.61c-3.133-.633-6.353-.266-9.486-.624-3.956-.451-6.656 1.06-9.16 3.927a12.096 12.096 0 0 0-3.459 8.493c.107 33.87.065 67.741.065 101.612V219.59c0 .65.006 1.3-.006 1.95a2.535 2.535 0 0 1-2.229 2.73 32.16 32.16 0 0 0-4.367 1.206c-2.441.896-4.69 2.211-5.267 4.969a24.806 24.806 0 0 0-.117 11.362 2.49 2.49 0 0 0 2.76 2.137zm235.053-10.254c3.18.433 4.475 3.142 6.519 4.945.586.518-.13 1.05-.479 1.45a9.387 9.387 0 0 1-4.373 2.651 36.935 36.935 0 0 1-11.954 1.393c-4.826-.054-9.642-.11-14.474.23-4.601.323-9.212-.01-13.517-2.038a6.735 6.735 0 0 1-3.603-8.649c.568-1.547 1.915-1.872 3.328-1.885 4.179-.04 8.358-.015 12.536-.015 8.737-.292 17.38.743 26.017 1.918zm-95.969-76.824a42.674 42.674 0 0 1 3.773-15.214c5.138-10.991 8.736-22.563 12.35-34.095 8.631-27.528 20.12-53.95 30.782-80.692 1.943-4.875 3.623-9.863 6.98-14.07 4.638-5.814 10.902-8.177 17.553-6.423 4.626 1.22 7.238 4.577 8.979 8.696 2.256 5.342 2.664 11.036 2.771 16.758q.434 23.154.873 46.308c.318 15.65.682 31.299.951 43.55.427 25.19.733 46.982.813 68.777.04 10.751.258 21.5-.19 32.246a4.088 4.088 0 0 1-4.272 4.038 25.92 25.92 0 0 1-9.565-2.453c-2.55-1.23-3.126-3.975-3.123-6.482.01-8.727-.75-17.422-.901-26.142-.144-8.29-.564-16.574-.826-24.862-.55-17.38-.655-34.768-.943-52.152-.257-15.518.186-31.024.16-46.535-.007-4.294-1.387-8.372-2.2-12.534-.245-1.258-1.495-2.598-2.637-2.549-1.377.06-2.377 1.49-2.852 2.904-1.355 4.03-2.652 8.079-3.968 12.121q-14.794 45.43-29.582 90.863a32.813 32.813 0 0 1-3.005 6.692 3.795 3.795 0 0 1-4.333 2.02c-4.967-.88-9.952-1.58-14.319-4.426a6.494 6.494 0 0 1-3.269-6.344zm-5.405 9.378c9.495 2.907 18.87 6.173 28.244 9.44a11.755 11.755 0 0 1 5.481 3.32c.653.782.882 1.37-.01 2.157-1.136 1-2.176 2.11-3.231 3.199a2.196 2.196 0 0 1-1.932.83c-.484-.118-.975-.21-1.45-.356-9.964-3.062-19.92-6.147-29.895-9.175a6.316 6.316 0 0 1-3.192-2.09 3.294 3.294 0 0 1-.693-1.307c-.52-2.434 4.31-6.743 6.678-6.018zm-16.401 22.801c.174-2.995 1.95-4.371 4.9-3.818a2.4 2.4 0 0 1 2.121 2.354 44.716 44.716 0 0 1-.108 10.344c-.349 2.614-1.866 4.687-3.352 4.468-2.246-.331-2.72-2.241-3.223-4.096a23.78 23.78 0 0 1-.35-5.582c0-1.223-.06-2.45.012-3.67zm3.152 27.028a2.108 2.108 0 0 0 3.198.039 10.401 10.401 0 0 0 3.27-5.23c1.482-5.056 2.137-10.292 3.377-15.4a33.455 33.455 0 0 1 2.237-6.525 6.25 6.25 0 0 1 5.559-3.876 32.909 32.909 0 0 1 10.727.961c4.22 1.215 5.599 3.133 4.89 7.473-1.274 7.785-3.823 15.227-6.56 22.596a127.076 127.076 0 0 1-11.691 24.317 28.237 28.237 0 0 1-5.15 6.38c-2.988 2.585-5.784 2.72-9.04.46a25.351 25.351 0 0 1-6.074-6.413 135.549 135.549 0 0 1-19.627-41.147c-.02-.07-.05-.136-.067-.206-1.702-6.94.364-9.565 7.774-9.593 3.144-.285 5.379 1.33 6.928 4.198 2.552 4.724 3.943 9.9 5.87 14.867 1.024 2.642 2.156 5.174 4.379 7.099zm-14.825-46.91c.21-.046.43-.051.64-.104 4.212-1.055 6.03-.107 7.585 3.996a11.89 11.89 0 0 1 .807 4.913c.582 1.822-.559 2.427-2.352 2.96-9.512 2.832-18.98 5.809-28.47 8.714-3.591 1.099-5.302-.06-5.857-3.695-.586-3.839.866-6.549 4.16-8.472 7.306-4.264 15.316-6.507 23.487-8.312zm-91.284-57.325c.294-18.246 1.216-36.476 1.322-54.73.067-11.681.526-23.36.826-35.04.082-3.171.206-6.342.35-9.51.12-2.655 1.363-3.838 4.014-4.158 8.895-1.074 15.567 2.291 20.337 9.825 3.772 5.956 6.253 12.49 8.903 18.957q23.322 56.922 46.607 113.86a94.925 94.925 0 0 1 3.063 9.225c.825 2.815-.731 5.164-4.114 6.33a28.213 28.213 0 0 1-9.367 1.4c-4.618-.019-4.74-.227-6.192-4.605-3.334-10.06-7.904-19.63-11.794-29.471-9.396-23.77-18.945-47.48-28.285-71.271-1.187-3.023-3.506-4.846-5.507-7.067-.598-.664-.913-.189-1.385.2-1.61 1.325-1.933 3.088-1.928 5.028.028 11.26-.115 22.52.328 32.56.35 22.715 2.174 44.137 3.429 65.59 1.184 20.247 1.497 40.52 1.45 60.798-.008 3.51-1.078 4.736-4.595 4.75a70.345 70.345 0 0 1-8.205-.496 5.89 5.89 0 0 1-5.225-4.233 23.382 23.382 0 0 1-1.521-6.716c-.25-7.28-.353-14.566-.612-21.846-.482-13.555-.56-27.117-.886-40.673-.31-12.903-1.22-25.795-1.013-38.707zm-8.154 119.96q10.717-.01 21.434-.003l21.65.002c2.744.003 4.19 1.23 4.177 3.506-.012 2.265-1.504 3.532-4.195 3.533q-21.543.006-43.085 0c-2.266 0-4.213-1.715-4.209-3.678.005-1.822 1.92-3.359 4.228-3.36z"/><path d="M21.301 258.425c2.1.104 2.61-.493 2.605-2.594q-.112-46.472-.051-92.944v-2.332a3.182 3.182 0 0 1 1.75 1.195q5.98 5.656 11.929 11.346 44.095 42.12 88.172 84.26a3.504 3.504 0 0 0 2.681 1.039c5.416-.047 10.832-.011 16.249-.038.509-.003 1.146.315 1.007.193-2.96-3.064-5.578-6.469-8.642-9.41q-46.11-44.246-92.367-88.34c-1.075-1.026-1.111-1.549-.05-2.654q39.776-41.395 79.47-82.869c4.383-4.573 8.759-9.153 13.514-14.123-6.037 0-11.524.067-17.007-.04a5.058 5.058 0 0 0-4.127 1.728q-44.29 46.071-88.661 92.064c-1.179 1.223-2.43 2.376-3.918 3.827v-36.219c0-19.788-.02-39.575.038-59.363.005-1.619-.395-2.095-2.028-2.037-3.606.128-7.23.192-10.828-.016-2.253-.13-2.71.597-2.708 2.753q.092 93.919.05 187.838c0 1.66.076 3.327-.025 4.981-.08 1.311.319 1.766 1.685 1.734 3.753-.088 7.516-.163 11.262.021z" class="cls-4"/><path fill="#335691" d="M1444.49 259.952c2.578-1.19 5.368-2.373 5.634-5.884.796-10.495 1.744-20.981 2.344-31.487a56.237 56.237 0 0 0-.3-12.75 3.257 3.257 0 0 0-2.918-2.997 29.884 29.884 0 0 0-9.05-.158 4.826 4.826 0 0 0-4.183 3.241c-.606 1.62-1.045 3.305-1.719 4.892-.992 2.338-2.724 3.99-5.35 4.074-19.7.637-39.406 1.125-59.103 1.845-5.542.202-11.093.206-16.634.699-10.688.95-18.853-4.048-22.203-13.707-1.276-3.679-.892-7.558-1.136-11.365-.977-15.254-1.936-30.507-2.633-45.778-.838-18.37-2.339-36.711-2.212-55.122.075-10.896.1-21.792.445-32.685q.373-11.79.691-23.58c.044-1.65.375-2.52 2.436-2.45 5.483.187 10.977-.02 16.462.111 1.798.043 2.139-.552 2.116-2.195-.088-6.426-.1-12.855.006-19.28.03-1.768-.406-2.302-2.237-2.294q-24.372.11-48.746.015a40.046 40.046 0 0 0-10.01 1.452c-2.327.586-3.498 1.66-3.154 4.181a26.767 26.767 0 0 1 .092 4.11c-.136 7.11 2.041 12.917 8.97 16.082.13.06.24.169.372.22 1.582.623 1.928 1.786 1.902 3.428-.1 6.282-.04 12.565-.04 18.848 0 3.361.001 3.277 3.26 3.355 1.52.037 1.938-.41 1.92-1.925-.083-6.643-.036-13.287-.036-19.931 0-3.266 1.605-4.987 4.93-5.052 3.897-.077 7.797.03 11.693-.043 1.345-.024 1.683.468 1.73 1.754.311 8.504.712 17.004 1.073 25.506q1.427 33.616 2.846 67.232c.995 23.49 2.115 46.977 2.917 70.474.254 7.457 2.207 14.046 7.132 19.66a14.482 14.482 0 0 0 11.56 5.272c28.237-.114 56.474-.056 84.71-.056a4.28 4.28 0 0 1 4.636 4.251 48.727 48.727 0 0 1 .019 10.58c-.488 3.822-2.72 5.905-6.634 5.865-12.201-.122-24.4.113-36.605-.336-24.892-.914-49.795-1.51-74.692-2.271-7.31-.224-11.793-3.768-13.907-10.78a39.584 39.584 0 0 1-1.41-11.548c.004-43.762-.072-87.526.092-131.288a38.69 38.69 0 0 0-3.292-16.306c-.516-1.157-1.09-1.558-2.247-1.412-1.315.167-.82 1.183-.819 1.854.015 7.073.035 14.146.134 21.218.273 19.41.584 38.819.783 51.899.397 20.251.709 34.174.933 48.097.198 12.34.296 24.681.454 37.022a6.931 6.931 0 0 0 .262 2.345c4.356 11.354 11.046 17.734 23.998 17.703 35.386-.084 70.772.028 106.158-.101 4.207-.015 7.958.26 10.786 3.76.309.382.824.591 1.176.947 1.995 2.02 4.362 1.822 6.598.789zM1314.948 30.46c-8.007-.003-16.014-.037-24.02.027-1.51.013-1.979-.346-1.834-1.934.224-2.444.274-4.883 1.404-7.145a5.038 5.038 0 0 1 4.787-3.088q22.073-.007 44.147-.011a2.35 2.35 0 0 1 2.667 2.435 45.001 45.001 0 0 1 .027 7.115c-.139 1.87-1.056 2.633-2.94 2.622-8.08-.05-16.159-.021-24.238-.021zm123.786 180.756h8.842v42.897h-8.842z"/><path d="M190.406 255.897c11.644 5.157 23.948 5.835 36.48 4.291a79.135 79.135 0 0 0 37.992-15.453c.619-.458 1.344-.804 1.338-1.803-.03-4.889-.014-9.778-.014-15.129-1.049.797-1.68 1.263-2.298 1.747a88.449 88.449 0 0 1-19.143 11.684c-12.827 5.6-26.097 7.863-39.845 4.256-24.842-6.519-40.268-28.275-38.929-54.388.099-1.923.588-2.522 2.598-2.518q48.521.102 97.043.048a13.632 13.632 0 0 1 1.515.009c1.198.134 1.504-.462 1.433-1.535a127.971 127.971 0 0 0-1.486-14.613c-5.633-30.898-33.926-51.905-67.623-45.589-19.418 3.64-32.758 15.378-41.21 32.734-7.994 16.411-8.724 33.855-4.668 51.332 4.838 20.843 17.06 36.179 36.817 44.927zm-21.82-80.649c3.677-14.556 11.196-26.368 25.444-32.168 14.773-6.014 29.399-5.275 42.539 4.807 7.142 5.48 10.868 13.309 13.473 21.711.596 1.923.901 3.938 1.534 5.847.561 1.694-.095 1.916-1.587 1.911-13.357-.04-26.714-.024-40.071-.024q-9.91 0-19.82-.006-9.91.001-19.82.04c-1.732.007-2.157-.279-1.692-2.118zM939.272 256.8c10.95 4.357 22.43 4.823 34.065 3.41a79.211 79.211 0 0 0 37.848-15.253c.659-.483 1.622-.786 1.623-1.865.004-4.949.002-9.898.002-14.937a4.618 4.618 0 0 0-2.168 1.298 88.418 88.418 0 0 1-18.338 11.363c-13.175 5.938-26.76 8.155-41.053 4.65-18.393-4.51-40.744-23.83-38.67-53.337.245-3.493.19-3.497 3.754-3.497h67.15q14.839 0 29.676.008c1.134.002 2.185.146 2.034-1.591-.36-4.163-.475-8.337-1.112-12.485-4.937-32.134-33.31-53.868-67.641-47.75-19.17 3.417-32.547 14.887-41.138 31.9-8.376 16.588-9.26 34.313-5.127 52.097 5.076 21.848 18.016 37.603 39.095 45.99zm-24.045-81.684c3.696-14.456 11.176-26.211 25.341-32.003 14.772-6.039 29.383-5.314 42.548 4.726 7.163 5.463 10.882 13.292 13.522 21.68.54 1.714.948 3.473 1.354 5.226.597 2.58.573 2.587-2.178 2.587h-39.422c-13.141 0-26.282-.044-39.422.048-1.983.014-2.2-.475-1.743-2.264zM628 249.259c14.502 10.405 30.926 13.24 48.342 10.909 21.926-2.935 37.83-14.771 48.28-33.942 7.33-13.444 8.813-28.06 6.933-43.065-2.547-20.337-12.566-36.155-29.616-47.377-12.79-8.418-27.079-10.864-42.177-9.649-17.984 1.448-32.68 9.224-44.278 22.888-10.835 12.764-15.5 27.75-15.383 44.94.197 2.428.096 5.449.43 8.476 2.172 19.73 11.454 35.328 27.47 46.82zm-2.778-88.97c10.266-13.97 24.254-20.744 41.669-20.719 27.325.04 47.211 22.024 49.953 45.405.346 2.947.305 5.895.485 7.787a57.933 57.933 0 0 1-3.936 22.59 50.312 50.312 0 0 1-48.74 31.835c-22.753-.56-43.084-16.803-48.015-39.056-3.79-17.096-2.042-33.382 8.584-47.841z" class="cls-6"/><path d="M762.699 253.6a26.72 26.72 0 0 1-.022 3.03c-.17 1.483.466 1.81 1.832 1.772 3.248-.089 6.507-.17 9.745.023 2.067.123 2.448-.61 2.444-2.516-.06-27.224.096-54.45-.16-81.67a20.762 20.762 0 0 1 4.453-13.474c10.36-13.746 23.344-21.991 41.222-21.152 13.142.617 23.474 7.788 28.147 20.075a59.445 59.445 0 0 1 3.74 20.968c.115 20.796.09 41.592.118 62.388.006 4.55.047 9.1-.026 13.647-.022 1.335.396 1.743 1.72 1.71 3.32-.083 6.65-.169 9.962.024 2.09.122 2.462-.642 2.458-2.547-.059-25.418-.002-50.837-.073-76.255a82.07 82.07 0 0 0-1.102-14.002c-1.71-9.737-5.335-18.547-12.185-25.833-8.108-8.625-18.248-12.751-29.927-13.728-15.895-1.329-29.392 3.47-40.41 15.1a98.898 98.898 0 0 0-7.63 9.691 3.218 3.218 0 0 1-.334-2.243c-.024-6.138-.05-12.277.014-18.414.015-1.37-.306-1.903-1.784-1.854-3.245.108-6.503.146-9.745-.009-1.924-.092-2.51.4-2.507 2.438q.1 61.416.05 122.832z" class="cls-4"/><path d="M412.256 250.19c10.64 6.172 21.974 10.065 34.335 10.63 12.805.586 24.368-2.553 34.262-11.125 16.92-14.661 13.835-41.36-3.19-52.416-7.616-4.946-15.868-8.449-24.266-11.732-7.049-2.757-14.053-5.66-20.378-9.899a18.017 18.017 0 0 1-3.06-27.97c8.268-8.52 18.587-10.142 29.747-8.252 8.957 1.517 16.91 5.58 24.572 10.27 1.141.699 2.263 1.43 3.732 2.362 0-4.806-.047-9.183.03-13.558a2.486 2.486 0 0 0-1.482-2.537c-9.22-5.104-18.8-9.134-29.458-9.92-15.581-1.15-28.937 3.473-39.065 15.725a30.93 30.93 0 0 0 5.317 44.07c6.917 5.202 14.764 8.664 22.733 11.863 8.223 3.302 16.455 6.607 23.85 11.584 8.568 5.766 11.182 16.543 6.034 25.368-4.924 8.442-12.913 11.876-22.245 12.394-11.25.625-21.841-2.387-32.116-6.65-3.703-1.535-7.322-3.273-11.198-5.017 0 4.017.091 7.828-.043 11.631a3.108 3.108 0 0 0 1.889 3.18zm85.484-110.358c10.033-.12 20.07.003 30.104-.102 2.015-.02 2.515.554 2.51 2.534q-.094 44.507-.03 89.014a42.346 42.346 0 0 0 .342 6.905c1.952 11.702 9.908 19.632 22.003 21.932 11.819 2.247 22.874-.543 33.603-5.325a1.676 1.676 0 0 0 1.038-1.864c-.038-2.887-.014-5.775-.014-8.663 0-3.475.002-3.47-3.096-2.146-8.738 3.732-17.686 6.038-27.327 4.579-6.66-1.009-9.882-3.827-11.19-10.418a71.66 71.66 0 0 1-1.314-13.542c-.078-13.21-.028-26.421-.028-39.632h-.07v-40.067c0-3.259 0-3.26 3.154-3.26 10.396 0 20.792-.03 31.187.033 1.546.01 2.203-.287 2.098-2.001a67 67 0 0 1-.005-7.576c.082-1.576-.496-1.898-1.961-1.89-10.54.058-21.08.046-31.62.022-3.286-.007-2.84.486-2.845-2.863-.02-12.706 0-25.412-.029-38.118-.001-.636.44-1.474-.486-1.904-1.337-.62-4.262.16-5.216 1.387-2.26 2.903-4.47 5.847-6.805 8.69a5.976 5.976 0 0 0-1.466 4.116c.072 8.735-.018 17.471.075 26.206.02 1.917-.41 2.571-2.476 2.548-10.25-.116-20.502-.027-30.753-.083-1.406-.008-1.882.363-1.813 1.799a63.299 63.299 0 0 1-.006 7.143c-.124 1.908.361 2.57 2.436 2.546z" class="cls-6"/><path d="M1362.004 293.57l.014 1.007zm-6.574-.142c-4.348-.836-8.584.391-12.868.004-4.304-.389-8.611.728-12.93.09a20.65 20.65 0 0 0-3.4-.353c-4.093.084-8.183.252-12.274.407a2.02 2.02 0 0 0-1.746.454c4.338 1.26 8.58.595 12.734.706 2.971.08 6.021-.53 8.93.188 2.646.653 4.942-1.155 7.717-.353 2.325.672 4.983.403 7.372 1.341.158.062.379-.034.547-.054.024-.663-1.144-.505-.814-1.342a5.887 5.887 0 0 1 2.557-.02c2.446.1 4.932.412 7.314-.225a4.574 4.574 0 0 1 2.625-.065 3.926 3.926 0 0 1 .824.371l-.014-1.007a18.07 18.07 0 0 0-1.666-.036 24.473 24.473 0 0 1-4.908-.106zm-1.085 1l-.44-.278a2.035 2.035 0 0 1 .5-.281.396.396 0 0 1 .34.178c.113.267-.087.343-.4.38z" class="cls-7"/><path d="M1373.255 293.463l.025-.533-.025.533zm-.001.007l.001-.007h-.005l.004.007zm.002-.007c4.074-.193 8.194.755 12.23-.486a1.65 1.65 0 0 1 .86-.004c2.844.749 5.688.374 8.563.192 2.615-.166 5.251-1.111 7.906.012.619.262 1.49.157 2.529-1.097-5.096.508-9.446-1.387-14.011-.588a27.15 27.15 0 0 1-3.003-.013c-2.214.144-4.36-1.37-6.588-.203a7.601 7.601 0 0 1-4.646.545c-.995 1.322-2.662.332-3.816 1.109l-.024.533zm-882.204 8.713a1.559 1.559 0 0 0 .316 1.129 1.559 1.559 0 0 1-.316-1.129z" class="cls-8"/><path d="M498.396 299.439c-.303.68-.929.583-1.484.583-2.79-.002-5.583-.242-8.363.329-.301.062-1.824 1.003-1.436-.777-.153-.08-.306-.193-.459-.287a.932.932 0 0 0-.46-.17c-4.454-.03-8.908-.02-13.362-.02a22.496 22.496 0 0 0 7.394.91 3.691 3.691 0 0 1 2.515.285l3.166.215c-1.363.82-3.112-.362-4.022 1.21a39.323 39.323 0 0 1 6.68.111c.742.05 1.483.096 2.225.12.327-.796.967-.666 1.632-.547-.283.597-.855.636-1.37.775a1.559 1.559 0 0 0 .316 1.129.871.871 0 0 0 .224.175 1.236 1.236 0 0 0 .728.116 2.231 2.231 0 0 0 .952-.342c2.312-1.605 4.739-1.12 7.194-.841a2.223 2.223 0 0 0 2.102-.772h-7.7l-.012-.24 5.268-.627c-.084-1.082-.141-2.199-1.728-1.335z" class="cls-8"/><path d="M487.113 299.574c-.153-.08-.306-.193-.459-.287.153.094.306.207.46.287zm-400.065-.509c-1.464 1.487-2.999.824-4.622.266a6.758 6.758 0 0 0-4.842.23c-1.18.903-2.624.538-3.894.596-2.816.13-5.65-.132-8.475-.251-.446-.019-.564-.348-.524-.749a4.233 4.233 0 0 0-.692.089c-.26.051-.52.115-.78.175a2.782 2.782 0 0 1-2.457-.261c-2.376-.19-4.138 1.715-6.433 1.824 1.062-.036 2.07-.246 3.145-.199 3.8.167 7.575.776 11.4.557 4.226-.242 8.462-.327 12.69-.558 1.728-.094 3.43 1.218 5.161.064-.266-.64 1.002-.902.323-1.783z" class="cls-8"/><path d="M64.691 299.157a4.235 4.235 0 0 0-.692.089 4.233 4.233 0 0 1 .692-.089z" class="cls-8"/><path d="M1435.524 295.607c-4.278.187-8.573-.394-12.844.325-.639.107-1.483.203-1.79-.737a3.109 3.109 0 0 1-1.713-.42c-.223 1.173-1.161.824-1.875.833-2.983.034-5.967.024-8.951.03-.76.697-1.705.32-2.563.449l-.144.024-.694.12a1.786 1.786 0 0 0 .2.417c.373.553.924.426 1.458.274a4.767 4.767 0 0 1 .619-.153c.253-.035.504-.095.754-.148a1.858 1.858 0 0 1 2.108.5 22.172 22.172 0 0 1 7.02-.53q1.174.093 2.353.3c.358.063.705.066.909.423l3.663.013c2.24-.28 4.476-.582 6.719-.823a1.22 1.22 0 0 1 1.451.987 2.296 2.296 0 0 0 .907.09 4.292 4.292 0 0 0 .865-.188c.427-.132.85-.295 1.283-.382a3.086 3.086 0 0 1 .438-.057c.495-.028 1.162.009 1.155-.664-.009-.87-.822-.561-1.328-.683zm-914.196 5.244c-.002-.012 0-.02-.001-.032h.016a1.29 1.29 0 0 0-.369-.581.992.992 0 0 0-.253-.154 5.21 5.21 0 0 0-1.536-.12c-2.008-.165-4.074.963-5.962.218-3.53-1.394-7.103-1.02-11.031-.963a6.398 6.398 0 0 0 3.066.242c.641.016 1.385-.156 1.295.898a.417.417 0 0 0 .34.094c.727-1.058 1.588-.368 2.619-.284-.938.538-1.749.142-2.504.323a.868.868 0 0 0 .144.367c.203.282.565.34.94.454a18.337 18.337 0 0 0 9.357-.044c1.196-1.046 2.582-.311 3.879-.418z" class="cls-9"/><path d="M521.343 300.82l-.017-.001h.017z" class="cls-9"/><path d="M123.644 301.872c.101-.17.041-.432-.168-.796.209.364.27.626.168.796zm-7.673-.405v.001a29.546 29.546 0 0 1-4.075.297 29.672 29.672 0 0 0 4.077-.296z" class="cls-8"/><path d="M123.476 301.075c-.918-.562-1.955-.054-2.943-.336.139-.51 1.006-.529.858-1.221l.044-.79a7.654 7.654 0 0 1-2.802.854 6.667 6.667 0 0 1-2.913-.395c-.216-.078-.857-.524-.852.29.002.15.285.298.438.446a.871.871 0 0 1 .196.08 3.391 3.391 0 0 1 .261.225l-3.063.245a3.33 3.33 0 0 0 .024.372 3.339 3.339 0 0 0 2.875.26l.517-.102a35.69 35.69 0 0 0-.145.464l.002.002a29.672 29.672 0 0 1-4.077.296 7.32 7.32 0 0 0-1.54.344c4.464 0 8.476-.01 12.487.009.438.002.7-.076.801-.246s.04-.432-.168-.797zm-6.985.262h2.4a2.282 2.282 0 0 1-2.4 0z" class="cls-8"/><path d="M121.435 298.728a7.65 7.65 0 0 1-2.802.854 7.654 7.654 0 0 0 2.802-.853z" class="cls-8"/><path d="M481.666 301.693l.108.03-.108-.03zm4.241-1.186l-3.166-.215a26.782 26.782 0 0 1-5.346.563c-4.569.42-9.172.51-13.701 1.333-.443 1.338.688.887 1.076.786 2.114-.552 4.268-.274 6.397-.441.97-.642 2.077-.399 3.101-.356a44.777 44.777 0 0 0 7.397-.484h.001l.108.03.057-.003.054-.003c.91-1.572 2.66-.39 4.022-1.21z" class="cls-7"/><path d="M434.68 295.205l-.075-.468h-5.484l-.001-.404h2.536c2.133-.86 4.407-.836 7.102-1.083-3.597-.831-6.82-.458-10.002-.65-.313-.02-.885.115-.65.567.609 1.166-.822 1.55-.826 2.447a26.422 26.422 0 0 0 7.4-.41zm-2.737-1.936a2.595 2.595 0 0 1-2.306-.029 2.732 2.732 0 0 1 2.306.03z" class="cls-8"/><path d="M1422.68 295.932c4.271-.72 8.566-.138 12.844-.325-4.831-1.794-9.73-1.189-14.634-.412.307.94 1.151.844 1.79.737z" class="cls-2"/><path d="M423.235 301.91a.862.862 0 0 0 .186-.257.863.863 0 0 1-.186.257z" class="cls-10"/><path d="M423.925 300.38c.878.03 1.898.285 2.78-.481a4.44 4.44 0 0 0-2.369-.277 2.148 2.148 0 0 1-.878-.177 1.624 1.624 0 0 1-.402-.267 1.533 1.533 0 0 0-.336-.074 3.902 3.902 0 0 0-.703.006c-.119.008-.237.017-.355.021a2.883 2.883 0 0 1-.35-.006 1.335 1.335 0 0 1-.959-.477h-3.404c.822 1.388 2.073.654 3.124 1.081l-1.801.453 1.88.456c-1.442.471-2.815-.401-3.92.594 1.09.624 2.193.18 3.314.124.987-.05 2.126-.54 3.004.417a.647.647 0 0 0 .476.234.365.365 0 0 0 .209-.097.863.863 0 0 0 .186-.257c.122-.432-1.11-1.328.504-1.274z" class="cls-10"/><path d="M423.458 299.445a1.626 1.626 0 0 1-.402-.267 1.624 1.624 0 0 0 .402.267z" class="cls-10"/><path d="M137.194 302.544a3.153 3.153 0 0 0 1.581-1.14 3.154 3.154 0 0 1-1.581 1.14z" class="cls-8"/><path d="M138.775 301.405c-1.335-1.155-2.922-.373-4.382-.569-1.205 1.964-3.488 2.063-4.57.199a5.217 5.217 0 0 0-1.132-.222c-.013 0-.026-.005-.039-.005a2.049 2.049 0 0 0-.578.058 1.856 1.856 0 0 0-.572.255 2.745 2.745 0 0 0 .14 1.06.776.776 0 0 0 .89.433c2.286-.217 4.536.31 6.794.223a6.573 6.573 0 0 0 1.868-.293 3.154 3.154 0 0 0 1.58-1.14z" class="cls-8"/><path d="M129.823 301.034a5.22 5.22 0 0 0-1.132-.221 5.217 5.217 0 0 1 1.132.222z" class="cls-8"/><path d="M1404.13 295.624a23.168 23.168 0 0 0-3.61-.674 23.168 23.168 0 0 1 3.61.674z" class="cls-2"/><path d="M1403.419 296.17c.51.03 1.02.05 1.53.06l.696-.119.142-.024a.573.573 0 0 0-.128-.126 1.622 1.622 0 0 0-.14-.086 1.06 1.06 0 0 0-.44-.143c-.173-.015-.35-.018-.524-.027a1.317 1.317 0 0 1-.424-.08 23.168 23.168 0 0 0-3.612-.675 36.062 36.062 0 0 0-3.65-.196c-2.449-.02-4.932.134-7.466.17a5.09 5.09 0 0 0 3.306.777c3.592-.368 7.142.259 10.71.469z" class="cls-2"/><path d="M1396.87 294.754a36.062 36.062 0 0 1 3.65.196 36.024 36.024 0 0 0-3.65-.196zm8.775 1.357l.143-.024z" class="cls-2"/><path d="M376.89 293.644a1.566 1.566 0 0 1 .228 1.334 1.566 1.566 0 0 0-.228-1.334z" class="cls-8"/><path d="M377.118 294.978a4.291 4.291 0 0 0 3.372-.13c.077-.87 1.185-.204 1.39-.892-.607-.711-2.025.311-2.205-1.051-.04-.31.543-.718-.299-.635-1.44.14-2.935-.21-4.356.478.142.047.287.09.43.135a4.082 4.082 0 0 1 1.163.5 1.399 1.399 0 0 1 .277.26 1.566 1.566 0 0 1 .228 1.335z" class="cls-8"/><path d="M1407.98 296.62c-.249.054-.5.113-.753.148a4.767 4.767 0 0 0-.62.154c-.533.152-1.084.28-1.457-.274a1.78 1.78 0 0 1-.2-.418 36.98 36.98 0 0 1-1.531-.06c-3.568-.21-7.118-.837-10.71-.47l.015.766c3.544.006 7.09.004 10.634.028.558.003.657.454.667.915 1.722.747 3.519.246 5.282.314l.782-.6a1.857 1.857 0 0 0-2.108-.503z" class="cls-10"/><path d="M1410.089 297.122a1.858 1.858 0 0 0-2.108-.502 1.857 1.857 0 0 1 2.108.502zm-3.481-.2c-.534.152-1.085.28-1.458-.274.373.553.924.426 1.458.274z" class="cls-10"/><path d="M398.293 295.21l.858-.007c-.197-.79.376-.771.874-.835.817-.104 1.687-.027 2.159-.502a5.835 5.835 0 0 0-7.179-.154c.4.25 1.01-.131 1.375.506a3.393 3.393 0 0 0-1.674.448 1.33 1.33 0 0 0-.376.5q.66.027 1.321.052a2.002 2.002 0 0 1 2.642-.008z" class="cls-8"/><path d="M99.888 300.582zm-1.828-1.326l-.027.637c.597.345.24.656-.035.97.762.577 1.31.072 1.89-.281.082-.05.166-.098.25-.139 2.585-.861 5.352-.436 7.888-1.125-3.266-1.099-6.616-.55-9.965-.062z" class="cls-7"/><path d="M173.224 300.42c-1.082.009-2.165-.043-3.246-.01-2.231.069-4.489-.224-6.697.406a5.316 5.316 0 0 0 3.068.443 14.176 14.176 0 0 1 3.12.132 15.222 15.222 0 0 0 5.204.146c.021-1.027-.66-1.124-1.449-1.118zm309.339-7.27a.514.514 0 0 1 .224.325.513.513 0 0 0-.224-.326z" class="cls-8"/><path d="M491.482 292.274a75.968 75.968 0 0 0-10.075.353c.347.449.851.331 1.156.522a.513.513 0 0 1 .224.326c2.407.01 4.814-.005 7.22.044.917.018 1.539-.168 1.475-1.245z" class="cls-8"/><path d="M1046.972 298.157l.008-.49a51.455 51.455 0 0 0-10.38-.244 97.463 97.463 0 0 1-3.46.089 29.691 29.691 0 0 0 7.465.668c.668-.028 1.466-.309 1.973.465l2.657.023c.352-.94 1.137-.412 1.737-.511z" class="cls-9"/><path d="M1046.98 297.666a51.495 51.495 0 0 0-10.38-.243 51.455 51.455 0 0 1 10.38.243z" class="cls-9"/><path d="M1419.462 296.891q-1.179-.206-2.353-.3a22.155 22.155 0 0 0-7.02.532l-.782.6 11.064-.41c-.204-.356-.55-.359-.91-.422z" class="cls-2"/><path d="M1410.09 297.123a22.155 22.155 0 0 1 7.019-.533 22.172 22.172 0 0 0-7.02.532z" class="cls-2"/><path d="M1220.541 301.347l8.347-.536c-1.8-1.521-7.428-1.193-8.347.536z" class="cls-8"/><path d="M581.045 302.675c1.357.219 2.698.272 4.05.373l3.32-.6c-3.684-.33-7.333-.321-10.98-.337a4.683 4.683 0 0 0-2.82.799c.42.735 1.13.5 1.761.527 1.352-1.442 3.134-1.01 4.669-.762z" class="cls-7"/><path d="M1412.658 291.411c-2.192-.197-4.33-.378-6.522.535 2.404 1.618 5.035 1.363 6.522-.535z" class="cls-8"/><path d="M1175.656 296.915l.035.525-.035-.525zm12.834.335a51.937 51.937 0 0 0-12.834-.335l.035.525c4.282.518 8.526-.378 12.798-.19z" class="cls-9"/><path d="M1447.286 295.602h10.314l.007-.589c-3.514-1.357-6.88.464-10.32.59z" class="cls-8"/><path d="M1408.35 295.639c2.985-.007 5.969.003 8.952-.031.714-.009 1.652.34 1.875-.833-3.603.022-7.23-.496-10.791.468a.704.704 0 0 0-.035.396z" class="cls-2"/><path d="M1439.875 297.185a22.848 22.848 0 0 0 9.271.114c-2.942-.114-5.908-1.355-9.271-.114z" class="cls-8"/><path d="M424.281 301.711c2.476 1.215 5.077.917 7.793.78l-.866-.793a11.922 11.922 0 0 1-3.803-.559c-1.093-.341-2.25-.52-3.124.572z" class="cls-10"/><path d="M386.689 300.485c-1.397-.005-2.599-.86-3.988-.523-.59.807-1.507.19-2.209.51a.763.763 0 0 1-.58.293 5.338 5.338 0 0 0-.648.047c.43.23-1.228.827.131.854 1.684.034 3.37-.028 5.054-.049.209-1.412 1.643-.277 2.24-1.132z" class="cls-8"/><path d="M596.373 291.672c.312-.363 1.213-.905-.177-.848a73.25 73.25 0 0 1-9.899-.406c-.368-.035-.874-.173-1.22.904 2.454 0 4.76-.051 7.06.032.657.024 1.676-.536 1.935.713.836.27 1.517-.361 2.301-.395z" class="cls-10"/><path d="M1054.067 292.071c2.768.007 5.535.022 8.302.013.385 0 .97.1.911-.534-.022-.243-.456-.448-.702-.67l-1.792.017c-.663 1.346-1.372 1.29-2.105.473a4.887 4.887 0 0 1-.316-.395 3.881 3.881 0 0 1-.345-.024c-.231-.025-.464-.065-.695-.094a4.777 4.777 0 0 0-.346-.032 2.697 2.697 0 0 0-.343.002 1.663 1.663 0 0 0-.991.4c-.246.807-1.177.331-1.578.844z" class="cls-9"/><path d="M1054.067 292.071c2.768.007 5.535.022 8.302.013-2.767.01-5.534-.006-8.302-.013zm-76.797-1.151a10.711 10.711 0 0 0-3.611-.59 3.703 3.703 0 0 0-2.093.92c1.356.677 2.866.546 4.299.821.909.175 1.246-.388 1.404-1.15z" class="cls-9"/><path d="M55.908 297.068c.148.133.227.376.187.815.04-.439-.04-.682-.187-.815z" class="cls-8"/><path d="M56.095 297.883c1.468-.129 3.02.278 4.362-.672l-.244-.744q-1.01-.13-2.021-.258l-.438-.102a5.954 5.954 0 0 1-1.367.121 1.201 1.201 0 0 1-.434-.168c-.234.92-1.264.104-1.628.708.337.29 1 .044 1.416.2a.516.516 0 0 1 .168.1c.147.133.226.376.186.815z" class="cls-8"/><path d="M1053.339 298.653a.833.833 0 0 0 .568-.463.834.834 0 0 1-.568.463z" class="cls-7"/><path d="M1046.98 297.666l-.008.49c.184.34 1.096-.346.845.603.267 1.103.836.951 1.51.363.947-1.223 2.098-.942 3.279-.447a2.492 2.492 0 0 0 .733-.022.834.834 0 0 0 .568-.463 28.726 28.726 0 0 0-1.71-.415 12.394 12.394 0 0 0-5.217-.109z" class="cls-7"/><path d="M1052.197 297.775a12.403 12.403 0 0 0-5.217-.11v.001a12.394 12.394 0 0 1 5.217.11z" class="cls-7"/><path d="M55.544 298.654l-.023.027.166.115-.166-.115.023-.027z" class="cls-8"/><path d="M50.747 299.3c1.873.36 3.397.46 4.77-.626-.004-.009-.009-.012-.012-.02-.383-.028-.809.153-1.138-.25.5-.369.886-.353 1.138.25h.04l-.024.027.166.115.202-.023.122-.87c-1.73.147-3.64-.385-5.264 1.396z" class="cls-8"/><path d="M56.27 293.739c-1.672-.417-3.415-.351-5.003-1.077a6.238 6.238 0 0 1-1.101-.11 1.31 1.31 0 0 0-1.587.794c2.516 1.312 5.121.296 7.69.393z" class="cls-10"/><path d="M411.934 295.411c-.644-2.089-2.091-1.247-3.097-1.681.548-.534 1.54-.127 1.821-.99l-3.292-.128-.423.458q.003.17-.006.34a3.087 3.087 0 0 0 1.22.908 4.469 4.469 0 0 0 .457.163 15.381 15.381 0 0 1 3.32.93z" class="cls-7"/><path d="M20.526 301.79l.063-.85h-7.327c2.41.508 4.853.377 7.264.85zm221.728-9.161a19.865 19.865 0 0 1 4.73.39.717.717 0 0 0 .956-.608c.004-.49-.502-.65-.944-.624a14.296 14.296 0 0 0-4.742.842zm173.326 9.214a1.056 1.056 0 0 0 .704.577 1.057 1.057 0 0 1-.705-.577z" class="cls-8"/><path d="M419.546 301.356c-1.121.056-2.225.5-3.315-.124a.8.8 0 0 0-.652.611 1.057 1.057 0 0 0 .705.577 4.903 4.903 0 0 0 1.394-.105c.814-.058 1.626-.147 2.438-.244s1.622-.204 2.434-.298c-.878-.957-2.017-.466-3.004-.417zm-3.967.487v.001-.001z" class="cls-8"/><path d="M416.231 301.232a.8.8 0 0 0-.652.611.8.8 0 0 1 .652-.61zm633.911-10.796a23.233 23.233 0 0 0-5.881.272 6.425 6.425 0 0 0 4.294.376c.6-.116 1.784-1.015 1.878.657l.949-.07c-.307-.512-.314-1.223-1.24-1.235z" class="cls-8"/><path d="M785.662 292.407h6.419c-1.572-1.285-3.355-.633-4.66-1.523-.37-.08-.715-.086-.931.303l2.055.905-2.883.315zm-200.568 10.641c-1.351-.101-2.692-.154-4.05-.373-1.534-.248-3.316-.68-4.668.762l8.71-.049a.476.476 0 0 1 .008-.34z" class="cls-10"/><path d="M398.342 301.53a.852.852 0 0 0 1.086.936 16.873 16.873 0 0 1 2.06-.209 4.918 4.918 0 0 0 2.001-.517c-1.68-.924-3.415-.523-5.147-.21z" class="cls-8"/><path d="M1066.072 297.526a17.627 17.627 0 0 0-3.8-.025 5.942 5.942 0 0 0-1.092.3 15.004 15.004 0 0 0 1.716-.132 4.55 4.55 0 0 1 .35-.012 2.415 2.415 0 0 1 1.029.21 2.184 2.184 0 0 1 .44.275 1.326 1.326 0 0 1-.279.364c-.291.252-.621.169-.987-.217l-1.335.038c1.074 1.508 2.63.515 3.946.76l-.03-.84.042-.721zm-5.046.317l.016-.004c-.005-.019-.017-.022-.022-.042z" class="cls-7"/><path d="M1268.374 298.23l1.049-.121h-.001l-1.048.121z" class="cls-9"/><path d="M1263.323 298.57a6.05 6.05 0 0 0 3.748-.185c.248-.69.56-.84.923-.565a1.95 1.95 0 0 1 .38.41l1.048-.122a5.547 5.547 0 0 0-6.099.462z" class="cls-9"/><path d="M474.268 302.177c-1.024-.043-2.131-.286-3.101.356 2.865.008 5.73.029 8.595.016.277 0 .578.035.859.022a.997.997 0 0 0 1.044-.878 44.777 44.777 0 0 1-7.397.484zm-450.946-.637c1.6.1 3.23.449 4.974-.514a7.105 7.105 0 0 0-4.974.514z" class="cls-8"/><path d="M1430.753 296.504c-2.243.24-4.48.544-6.719.823l8.17.164a1.22 1.22 0 0 0-1.451-.987z" class="cls-2"/><path d="M460.975 293.375a5.05 5.05 0 0 0 1.06-.075 5.051 5.051 0 0 1-1.06.075z" class="cls-8"/><path d="M461.979 292.654c-1.372-.788-2.719-.69-4.535.162a30.42 30.42 0 0 0 3.531.56 5.051 5.051 0 0 0 1.06-.077l-.056-.645z" class="cls-8"/><path d="M1183.022 300.294h10.357l.054-.27h-10.41l-.001.27zm105.315-.059c1.876-.053 3.843.731 6.029-.776-2.319.273-4.264-.32-6.03.776z" class="cls-10"/><path d="M521.328 300.851c-1.297.107-2.683-.628-3.879.418.437.959 1.345.814 2.147.917.818-.14 1.923.083 1.732-1.335z" class="cls-2"/><path d="M666.214 290.747c2.12-.166 4.292.579 6.364-.338a4.808 4.808 0 0 0-3.262-.222c-1.024.376-2.112.126-3.102.56zm738.866 4.985a1.06 1.06 0 0 1 .439.143 1.622 1.622 0 0 1 .14.086.579.579 0 0 1 .129.126c.858-.129 1.804.248 2.563-.448a.704.704 0 0 1 .035-.396c-.92-.051-2.168.256-2.693-.225a2.424 2.424 0 0 0-.74-.515.384.384 0 0 0-.42.055.63.63 0 0 0-.13.182 2.936 2.936 0 0 0-.186.557c-.027.106-.055.216-.086.327a1.317 1.317 0 0 0 .424.08c.175.01.351.013.524.028z" class="cls-10"/><path d="M1405.787 296.087a.579.579 0 0 0-.128-.126.573.573 0 0 1 .128.126z" class="cls-10"/><path d="M523.852 300.96l-2.51-.14c.005.012.011.019.015.03-.01.002-.02 0-.029.001.19 1.418-.914 1.195-1.732 1.335a1.174 1.174 0 0 1 .005.355 4.87 4.87 0 0 0 4.251-1.58z" class="cls-9"/><path d="M521.357 300.85c-.004-.011-.01-.018-.014-.03.004.012.01.019.014.03z" class="cls-9"/><path d="M521.327 300.819l.015.016.015.016c-.004-.012-.01-.02-.014-.031z" class="cls-9"/><path d="M521.327 300.819l.001.032h.029l-.015-.016z" class="cls-9"/><path d="M916.094 290.573h-8.412c.768.484 1.446.172 1.865.68l.543-.005c1.798-.93 3.802.143 6.004-.675zm321.138 9.174c2.246 1.05 4.201.614 6.11.343-1.942.314-3.775-.861-6.11-.343z" class="cls-10"/><path d="M429.12 294.737h5.485a.66.66 0 0 0 .145-.157c.012-.026-.054-.126-.088-.128-1.002-.045-2.004-.081-3.006-.12h-2.536v.405zm629.245-3.762l2.421-.078-2.42.078z" class="cls-2"/><path d="M1060.786 290.897l-2.42.078a4.887 4.887 0 0 0 .315.395c.733.818 1.442.873 2.105-.473z" class="cls-2"/><path d="M159.026 302.38zm3.429-.673a2.683 2.683 0 0 0-.738-.015 1.127 1.127 0 0 1-.918.614c-.569.052-1.206-.227-1.753-.066l-.01.07-.01.07c.332.006.665.026.997.046a7.642 7.642 0 0 0 2.976-.219.75.75 0 0 0-.544-.5z" class="cls-8"/><path d="M162.455 301.707a2.683 2.683 0 0 0-.738-.016 2.683 2.683 0 0 1 .738.016z" class="cls-8"/><path d="M1049.327 299.122a12.821 12.821 0 0 0 3.279-.447c-1.18-.495-2.332-.776-3.279.447z" class="cls-2"/><path d="M391.53 300.727a.972.972 0 0 1-.173.236 1.364 1.364 0 0 1-.934.294 1.647 1.647 0 0 0-.723.165 1.505 1.505 0 0 0 .729.727.801.801 0 0 0 .488.012 1.242 1.242 0 0 0 .305-.125 2.674 2.674 0 0 0 .559-.453l-.236-.863z" class="cls-8"/><path d="M391.53 300.727a.97.97 0 0 1-.173.236.972.972 0 0 0 .173-.236z" class="cls-8"/><path d="M404.472 292.345c.72.865 1.646.596 2.47.725l.424-.458-2.894-.267z" class="cls-2"/><path d="M1055.645 291.227l-2.667.257 2.667-.257zm-2.509.615a.81.81 0 0 0 .93.229c.402-.513 1.333-.037 1.579-.844l-2.667.257a1.059 1.059 0 0 0 .158.358z" class="cls-8"/><path d="M1053.136 291.842a.81.81 0 0 0 .93.23v-.001a.81.81 0 0 1-.93-.229z" class="cls-8"/><path d="M1064.714 298.142a2.187 2.187 0 0 0-.44-.275 2.415 2.415 0 0 0-1.028-.21c-.116 0-.233.004-.35.012a15.004 15.004 0 0 1-1.716.132c-.046.016-.092.02-.138.038.159.572.705.345 1.072.488l1.335-.038 1.265-.147z" class="cls-2"/><path d="M1061.02 297.797c.005.02.017.023.022.042.046-.019.092-.021.138-.038-.053-.003-.107 0-.16-.004z" class="cls-2"/><path d="M1369.36 294.8a1.162 1.162 0 0 0-.813-.493 1.217 1.217 0 0 0-.701.23 1.863 1.863 0 0 0-.187.11c.51.675 1.102.456 1.701.154z" class="cls-7"/><path d="M140.396 301.46l1.597.076c-.135-.296-.688-.202-.63-.676a.837.837 0 0 0-.967.599z" class="cls-8"/><path d="M1046.972 298.157c-.6.1-1.385-.43-1.737.511l2.582.09c.251-.948-.661-.263-.845-.601z" class="cls-2"/><path d="M1174.893 298.574a1.604 1.604 0 0 0 .507-.025 1.602 1.602 0 0 1-.507.025z" class="cls-9"/><path d="M1175.363 297.464c-.42-.07-.875-.096-.916.457a.798.798 0 0 0 .054.399.468.468 0 0 0 .392.254 1.602 1.602 0 0 0 .507-.025 1.02 1.02 0 0 1-.037-1.085z" class="cls-9"/><path d="M1059.508 297.928c.032.441.192.752.713.69-.05-.426-.233-.71-.713-.69z" class="cls-7"/><path d="M424.372 295.571c-.2-.423-.372-.908-.968-.421a.797.797 0 0 0 .968.421z" class="cls-8"/><path d="M1267.994 297.82c-.363-.274-.675-.126-.923.565l1.303-.155a1.957 1.957 0 0 0-.38-.41z" class="cls-2"/><path d="M1267.994 297.82a1.957 1.957 0 0 1 .38.41 1.95 1.95 0 0 0-.38-.41z" class="cls-2"/><path d="M463.29 293.425l.053.503-.053-.503zm.367.113c0-.248-.175-.292-.367-.113l.054.503c.11-.13.313-.26.313-.39z" class="cls-8"/><path d="M455.452 293.461c.054-.033.108-.065.161-.1-.053.035-.107.067-.16.1z" class="cls-2"/><path d="M455.452 293.461l.027.027.29-.234c-.052.036-.103.073-.156.108s-.107.066-.16.1zm632.289 5.239l-.18.084.18-.084-.033-.02.033.02z" class="cls-2"/><path d="M1087.708 298.68l-.332.198.186-.094.179-.084-.033-.02z" class="cls-2"/><path d="M1087.742 298.7l-.027-.024-.007.004.034.02z" class="cls-2"/><path d="M1373.25 293.463l-.048.052.053-.044-.001-.001v.001l-.004-.008z" class="cls-8"/><path d="M1373.254 293.471v-.001l-.004-.007.004.008z" class="cls-8"/><path d="M669.487 294.187a10.435 10.435 0 0 0 6.174-.503c-5.502-.47-10.934-1.335-16.437-.31-1.709.317-3.597-.459-5.363-.3-5.019.452-10.044.179-15.063.347-5.711.191-11.433.044-17.344.044.507.764 1.027.923 1.506.813 4.505-1.036 8.957 1.287 13.46.194a1.362 1.362 0 0 1 .633.073 13.298 13.298 0 0 0 6.964.188 5.011 5.011 0 0 1 3.564.178c1.876 1.006 3.774.708 5.653.64 2.686-.098 5.3-1.38 8.06-.507a.852.852 0 0 0 .614-.105 9.569 9.569 0 0 1 7.58-.752z" class="cls-7"/><path d="M1212.518 294.188a6.567 6.567 0 0 1-1.155.118 2.201 2.201 0 0 1-1.637-.696l-4.546-.147a1.369 1.369 0 0 1-.38.762.82.82 0 0 1-.57.193 11.204 11.204 0 0 1-1.287-.253c-1.997-.247-4.095-1.216-5.939-.843-4.453.903-8.917.305-13.345.746-1.269.127-2.681-.033-3.945.875a3.577 3.577 0 0 0 2.464.24 94.49 94.49 0 0 1 9.5-.253c7.536.148 15.062.862 22.549-.6a.596.596 0 0 0 .013-.228 4.911 4.911 0 0 0-1.722.086z" class="cls-9"/><path d="M1204.8 294.225a1.369 1.369 0 0 0 .38-.762 1.37 1.37 0 0 1-.38.762zm-.57.193a.82.82 0 0 0 .57-.193.82.82 0 0 1-.57.193zm10.01-.316a4.909 4.909 0 0 0-1.722.086 4.911 4.911 0 0 1 1.722-.086zm-111.895.938c1.798.618 3.725-.735 5.238-.083 2.63 1.133 5.134.61 7.717.403a7.346 7.346 0 0 1-3.003-.775 2.672 2.672 0 0 1 3.252.483 24.58 24.58 0 0 1 6.559.507 36.36 36.36 0 0 1 2.149.508 1.812 1.812 0 0 0 1.457-.187c1.317-1.236 1.303-1.372 2.65-1.021a2.778 2.778 0 0 0 3.041-.88c-11.243-1.355-24.48-.092-29.06 1.045zm21.809-.583a8.611 8.611 0 0 1-4.14.2 9.763 9.763 0 0 1 4.14-.2z" class="cls-9"/><path d="M1115.55 295.067h-.001a24.56 24.56 0 0 1 6.559.508 24.58 24.58 0 0 0-6.559-.508z" class="cls-9"/><path d="M1290.432 293.967a5.78 5.78 0 0 0-.865-.031c-9.225-.035-18.444-.302-27.657-.746a7.05 7.05 0 0 0-1.8.103 3.752 3.752 0 0 0-1.62.76l-.003 1.01 1.658.044c.183-.823.6-.99 1.266-.45 1.907.048 3.816.144 5.724.212 1.012.036 2.023.065 3.034.073.972.008 1.943-.003 2.913-.041 5.761-.232 11.513-.194 17.27-.047.44.011 1.101.551 1.205-.263.095-.745-.67-.553-1.125-.624zm-31.945 1.096l1.658.044-1.658-.044z" class="cls-7"/><path d="M1261.411 294.657c1.907.048 3.816.144 5.724.212-1.908-.068-3.817-.164-5.724-.212zm-570.275 3.229a15.406 15.406 0 0 0-4.594-.557 69.1 69.1 0 0 1-7.73.124c-2.237-.233-4.668.436-7.041.338-1.278-.053-2.56-.01-3.84-.01l.01.69a72.66 72.66 0 0 0 11.547.38c2.066-.01 4.216-.57 6.159.153 1.042.388 1.696.685 2.643-.018a1.817 1.817 0 0 1 .766-.282c.286-.053.59-.083.865-.15l1.215-.668z" class="cls-7"/><path d="M691.136 297.886a15.406 15.406 0 0 0-4.594-.557 15.406 15.406 0 0 1 4.594.557zm19.721-.057c-4.6-.424-9.035.64-13.548.912a2.571 2.571 0 0 0 .005.277 3.494 3.494 0 0 1 1.105.291c.544.225 1.08.524 1.61.689a1.876 1.876 0 0 0 1.592-.116c2.004-1.173 4.03-.809 6.082-.795a111.351 111.351 0 0 0 11.184-.351 3.285 3.285 0 0 0-2.544-1.013c-1.84-.063-3.727.268-5.486.106z" class="cls-7"/><path d="M697.314 299.018a3.491 3.491 0 0 1 1.105.291 3.494 3.494 0 0 0-1.105-.291zm531.996-5.759h-.002l-15.068.843a.596.596 0 0 1-.013.227c.146.218.294.626.439.625 2.442-.012 4.9.625 7.325-.148h-2.225c.791-.403 1.586-.77 2.355-.153l.002-.002c2.351.292 4.704.879 7.05.29a7.484 7.484 0 0 0 1.007-.33c.158-.739-.778-.775-.87-1.352z" class="cls-7"/><path d="M1229.308 293.259h.001v-.001q-7.535.423-15.07.843l15.07-.842zm-7.185 1.392l-.002.002c2.353.29 4.706.877 7.053.287-2.347.59-4.7.003-7.051-.289z" class="cls-7"/><path d="M693.417 294.708h16.16c-5.354-2.22-10.794-.46-16.156-1.154.6.387.535.772-.004 1.154z" class="cls-9"/><path d="M1141.576 295.165c4.392.81 8.768.197 13.12-.356-4.397-.355-8.797-1.707-13.12.356z" class="cls-7"/><path d="M1241.535 294.37a1.736 1.736 0 0 0-.445-.472 3.725 3.725 0 0 0-1.763-.456 23.026 23.026 0 0 0-3.76-.089 29.736 29.736 0 0 1-6.258-.094c.093.577 1.029.613.87 1.352 3.3.25 6.625-.059 9.911.49a2.489 2.489 0 0 0 .74.027 1.45 1.45 0 0 0 .705-.287z" class="cls-10"/><path d="M1240.83 295.128a1.453 1.453 0 0 0 .705-.286 1.45 1.45 0 0 1-.705.286zm.705-.758a1.735 1.735 0 0 0-.445-.472 1.736 1.736 0 0 1 .445.471zm-5.969-1.017a29.712 29.712 0 0 1-6.257-.095v.001a29.736 29.736 0 0 0 6.257.094zM65.308 295.42c-.295-.035-.594.04-.579.434.019.474.384.581.75.571 1.652-.046 3.302-.145 4.953-.173 1.33-.022 2.713-.529 3.974.629h-4.572a16.31 16.31 0 0 0 9.85-.736c-4.748-1.064-9.604-.163-14.376-.725zm1192.224.535a5.146 5.146 0 0 1-3.783.468c-3.657-.847-7.215.86-11.017-.074a1.351 1.351 0 0 0 1.293.828c5.471.742 10.904-.66 16.567-.273-1.034-.974-1.923-1.606-3.06-.95z" class="cls-10"/><path d="M1160.738 295.133a14.449 14.449 0 0 0 6.1.106 29.239 29.239 0 0 0 4.005-1.2c-3.383.145-6.829-.582-10.105 1.094zm10.105-1.093a14.27 14.27 0 0 0 1.962-.198 5.429 5.429 0 0 0-1.962.197z" class="cls-9"/><path d="M682.518 294.739a33.483 33.483 0 0 1 10.9-.03c.538-.383.604-.768.003-1.155-1.426-.63-2.735-1.215-4.375-.204a4.437 4.437 0 0 1-3.355.48c-2.293-.636-4.512.345-6.79.33 1.207.172 2.322.828 3.617.579zm-4.39-.617a6.797 6.797 0 0 0 .773.038 3.523 3.523 0 0 0-.773-.038z" class="cls-10"/><path d="M888.56 297.483h23.548a145.939 145.939 0 0 0-23.549 0zm95.397-2.413a6.797 6.797 0 0 1-3.976.116 38.08 38.08 0 0 1-1.364-.301l-.085.725q1.816.162 3.63.23a69.684 69.684 0 0 0 10.87-.445c-3.01-.18-5.879-1.732-9.075-.326z" class="cls-9"/><path d="M978.532 295.61q1.816.162 3.63.23-1.814-.068-3.63-.23z" class="cls-9"/><path d="M436.744 299.059l.005.383-5.853.731a19.424 19.424 0 0 0 7.875-.222c.827-.152 1.647-.315 2.469-.455l.422-.78a25.904 25.904 0 0 0-1.908-.076c-.69-.007-1.38 0-2.071-.005a18.73 18.73 0 0 1-3.977-.353 2.722 2.722 0 0 0-2.485.312l-.063.465zm4.919-.343zm-10.505.343h5.586-5.586z" class="cls-8"/><path d="M625.415 298.908c4.601 1.725 8.748.968 12.891-.149-4.13.083-8.26-.655-12.891.149z" class="cls-10"/><path d="M655.3 298.012c-1.216-.012-2.43-.005-3.646-.005v.21c-1.074 0-2.15-.035-3.22.028-.228.013-.994-.39-.717.456.145.44-.278 1.426.652 1.212 2.322-.536 4.688-.259 7.013-.576a.643.643 0 0 0 .633-.71c-.019-.445-.325-.611-.716-.615zm-3.197.883a1.677 1.677 0 0 1 1.76-.05 1.742 1.742 0 0 1-1.76.05z" class="cls-7"/><path d="M973.749 297.841l.009-.768h-15.983c5.318.746 10.653.09 15.974.769z" class="cls-9"/><path d="M694.564 298.517c1.512-.6 2.63.095 3.906-.63h-7.334l-1.215.668a3.098 3.098 0 0 0 .83.518 4.187 4.187 0 0 0 .894.259c.204.037.41.064.618.085a10.245 10.245 0 0 1 2.456.369 2.509 2.509 0 0 0 1.49.163 1.334 1.334 0 0 0 .282-.11 2.098 2.098 0 0 0 .734-.713c.028-.043.061-.063.089-.108a2.571 2.571 0 0 1-.005-.277l-2.745-.224z" class="cls-10"/><path d="M696.49 299.839a2.096 2.096 0 0 0 .735-.713 2.098 2.098 0 0 1-.734.713zm-5.354-1.953h1.766-1.766z" class="cls-10"/><path d="M64.691 299.157c-.04.4.078.73.524.749 2.826.119 5.66.38 8.475.251 1.27-.058 2.714.307 3.894-.596a86.33 86.33 0 0 0-9.662-.55 46.49 46.49 0 0 0-3.23.146zm.001 0z" class="cls-7"/><path d="M1230.795 297.392c2.385.109 4.733-.847 7.176-.019 1.116.378 1.363.035 2.176-.701h-12.104a3.839 3.839 0 0 0 2.752.72z" class="cls-10"/><path d="M1296.291 294.487c4.877.717 9.758.04 14.638-.048-4.876-.863-9.76.31-14.638.048z" class="cls-7"/><path d="M617.39 298.645h-12.333c4.087.77 8.173 1.478 12.334 0z" class="cls-9"/><path d="M812.364 291.498l1.09.516c-.764.328-1.546-.07-2.193.493l12.915 1.003c-3.056-1.218-6.323-1.025-9.443-1.734l-.445-.452a2.998 2.998 0 0 0-1.924.174zm438.27 3.093a.8.8 0 0 0 .015-.142 1.135 1.135 0 0 1 .135-.31.588.588 0 0 1 .176-.178.689.689 0 0 1 .435-.083 2.51 2.51 0 0 0 .938.058q.031-.192.05-.385a5.881 5.881 0 0 1-.717 0 8.894 8.894 0 0 1-.712-.07c-1.42-.196-2.825-.646-4.28-.286l.007.105.006.097 1.863.135c-.252.507-.675.284-.975.409-.51.816-1.662.012-2.162.856.435.11.87.204 1.305.27a9.42 9.42 0 0 0 1.303.113 7.37 7.37 0 0 0 1.3-.095 6.656 6.656 0 0 0 1.298-.351.797.797 0 0 0 .015-.143z" class="cls-10"/><path d="M1252.382 293.55a5.891 5.891 0 0 1-.716.002 5.881 5.881 0 0 0 .716-.001z" class="cls-10"/><path d="M735.763 299.113c3.17-.21 6.35-.057 9.517-.244-3.172.047-6.383-.716-9.517.244zm11.513-.395c-.665.079-1.33.111-1.996.15a13.816 13.816 0 0 0 1.996-.15z" class="cls-9"/><path d="M454.131 299.422c2.008-.146 4.011-.384 6.018-.583-1.352-.122-2.72.015-4.051-.151-2.547-.32-5.066.845-7.602.06l-.407.705a38.645 38.645 0 0 0 6.042-.03z" class="cls-10"/><path d="M448.09 299.453a38.653 38.653 0 0 0 6.041-.03 38.645 38.645 0 0 1-6.041.03zm415.017-5.547c1.383 1.24 3.125.592 4.962.823a.897.897 0 0 0-.407-.254c-.42-.128-.849.026-1.018-.406l.003-.001a8.142 8.142 0 0 1 1.705-.229c.046-.008.09-.02.135-.03a1.372 1.372 0 0 0 .546-.242 1.236 1.236 0 0 0 .253-.268c-2.103-1.202-3.965 1.024-6.18.607z" class="cls-10"/><path d="M866.647 294.068a8.188 8.188 0 0 1 1.705-.229 8.142 8.142 0 0 0-1.706.228zm-58.74-.531c-.786-.11-1.564-.285-2.343-.46s-1.557-.345-2.343-.446a9.126 9.126 0 0 0-2.376-.024.735.735 0 0 0 .568.793 20.98 20.98 0 0 0 8.884.198 9.473 9.473 0 0 1-2.39-.06z" class="cls-10"/><path d="M800.83 292.608h.015l-.003-.01zm0 0h.015-.015zm-29.23.709a7.267 7.267 0 0 1-2.224.216 69.773 69.773 0 0 0-7.005-.054l.011.353h12.925l-.027-.48a5.495 5.495 0 0 0-3.68-.035z" class="cls-10"/><path d="M488.549 300.35c2.78-.57 5.573-.33 8.363-.329.555 0 1.181.099 1.484-.582-.94.045-1.88.04-2.821.017s-1.882-.067-2.822-.097a47.53 47.53 0 0 0-2.822-.023 22.609 22.609 0 0 0-2.818.238c-.388 1.78 1.135.838 1.436.777z" class="cls-7"/><path d="M489.931 299.336a22.597 22.597 0 0 0-2.818.238 22.609 22.609 0 0 1 2.818-.238z" class="cls-7"/><path d="M1189.911 296.713a13.1 13.1 0 0 0 8.409 0c-2.804.13-5.605-.329-8.409 0z" class="cls-10"/><path d="M441.662 298.716l-.422.78a16.721 16.721 0 0 0 3.426.134c1.14-.051 2.282-.154 3.423-.177l.407-.705-6.833-.032zm.001 0l6.833.032-6.833-.032z" class="cls-7"/><path d="M448.09 299.453c-1.142.023-2.283.126-3.424.177 1.14-.051 2.282-.154 3.423-.177zm-6.428-.737l-.422.78.422-.78z" class="cls-7"/><path d="M1024.974 296.045h8.771c-2.887-.639-5.742-1.353-8.771 0zm222.601-2.105c-.339-.11-.798-.023-.888-.542l-.006-.098-.007-.105a6.585 6.585 0 0 0-2.63.32c-.422.127-.838.276-1.255.426s-.833.3-1.254.428v.472q1.293-.014 2.585-.03l1.293-.014c.5-.844 1.652-.04 2.162-.856z" class="cls-9"/><path d="M1242.79 293.941c-.417.15-.834.3-1.255.428.421-.128.838-.278 1.254-.428zm-1.255.9l2.585-.03-2.585.03zm5.152-1.444l-.006-.097.006.097z" class="cls-9"/><path d="M1212.357 293.371a12.117 12.117 0 0 0-3.638-.602c-1.044.023-2.23-.437-3.159.3a2.188 2.188 0 0 0-.38.394l4.546.147 2.631-.239zm-429.675-.447a.564.564 0 0 0 .243-.26h-4.158c-.102.632-.43.879-1.055.62q-1.216.033-2.432.069l.027.479c2.267.636 4.429-.589 6.672-.38a.405.405 0 0 1 .123-.27c.146-.126.385-.146.58-.258z" class="cls-7"/><path d="M781.993 293.452h-.014c0 .01-.01.012-.01.023zm.109-.27a.405.405 0 0 0-.123.27.403.403 0 0 1 .123-.27z" class="cls-7"/><path d="M391.53 300.726l.015-.006c1.604-.852 3.612.285 5.117-1.106-2.443.706-5.082-.047-7.906.917a3.527 3.527 0 0 0 .839.248 11.262 11.262 0 0 0 1.935-.053z" class="cls-10"/><path d="M391.53 300.726a11.262 11.262 0 0 1-1.935.053 11.307 11.307 0 0 0 1.934-.052z" class="cls-10"/><path d="M640.646 299.441a6.025 6.025 0 0 0 3.752-.498c-2.23-1.436-3.068-1.318-3.752.498z" class="cls-9"/><path d="M1213.212 297.301c2.158.005 4.221.282 6.816-.637-4.126-.438-5.652-.288-6.816.637zm-442.295 1.629c2.394.71 4.629-.36 6.895-.502-2.305-.13-4.628-.543-6.895.502zm6.895-.502c.45.025.898.043 1.346.034a6.437 6.437 0 0 0-1.346-.034zM88.83 299.893h9.203l.028-.637c-3.078.161-6.146.478-9.23.637zm304.108-1.552h-7.779c4.658 1.015 6.205.984 7.779 0z" class="cls-10"/><path d="M847.489 293.142l-.014.556h6.81c-2.266-.1-4.522-.786-6.796-.556z" class="cls-8"/><path d="M1254.175 293.425c-.298.013-.597.036-.896.06s-.598.049-.897.066q-.018.193-.05.385c-.436.58-1.144.27-1.683.513a4016.92 4016.92 0 0 0-.03.285 3.71 3.71 0 0 0 .756.122 4.827 4.827 0 0 0 .749-.017 12.227 12.227 0 0 0 1.483-.267 6.197 6.197 0 0 1 2.987-.173l.512-.47a5.619 5.619 0 0 0-2.93-.504z" class="cls-9"/><path d="M1253.279 293.485c-.3.024-.598.049-.897.066.299-.017.598-.042.897-.066zm-2.63.964a.8.8 0 0 1-.015.142.798.798 0 0 0 .015-.142z" class="cls-9"/><path d="M997.39 297.21h-6.36a37.044 37.044 0 0 0 6.36 0zm-10.401 0h4.042a30.073 30.073 0 0 0-4.042 0z" class="cls-10"/><path d="M421.312 299.125a2.883 2.883 0 0 0 .35.006c.118-.004.236-.013.355-.021a3.902 3.902 0 0 1 .703-.006 1.533 1.533 0 0 1 .336.074l8.102-.12.063-.464-10.868.054a1.335 1.335 0 0 0 .96.477zm9.846-.066l-8.102.119 8.102-.12z" class="cls-7"/><path d="M423.056 299.178a1.533 1.533 0 0 0-.336-.074 1.533 1.533 0 0 1 .336.074z" class="cls-7"/><path d="M1003.297 295.095c-2.128.117-4.255.097-6.375.199 1.675.719 3.62.674 6.375-.2z" class="cls-9"/><path d="M1090.281 294.116q-4.33-.206-8.654-.527c2.828 1.214 5.754.636 8.654.527zm-418.409 1.237h-8.38c2.786.466 5.585-.003 8.37.717l.01-.717z" class="cls-8"/><path d="M789.756 293.475h-7.688c2.548.928 5.121.24 7.688 0zm-7.689 0c-.025-.01-.05-.013-.074-.023l-.024.023zm.001 0h7.688-7.689z" class="cls-9"/><path d="M933.19 297.633c1.666.36 3.191.813 4.71-.626-1.67-.032-3.2-.536-4.71.626z" class="cls-7"/><path d="M528.345 300.936c3.612 1.038 3.776 1.043 5.438.152a18.926 18.926 0 0 0-5.438-.152z" class="cls-8"/><path d="M579.03 299.507l6.32-.522c-2.05-.07-4.265-.864-6.32.522zm327.067-7.287c-2.508.703-5.077.25-7.65.548 4.102.593 6.366.442 7.65-.547z" class="cls-10"/><path d="M597.028 299.186c1.557.604 3.184.28 4.85.284-1.516-1.65-3.23-.301-4.85-.284zm-36.485-.067c1.454.338 2.915.818 4.703-.32-1.853-.084-3.292-.47-4.703.32z" class="cls-9"/><path d="M401.834 299.392h6.634l-.006-.638c-2.174.41-4.35.342-6.628.638zm-280.399-.663l-.044.789c1.378-.047 2.81.239 4.063-.79h-4.019zm0 0h4.019-4.019z" class="cls-10"/><path d="M1153.938 293.77a9.705 9.705 0 0 0 5.2-.609 11.748 11.748 0 0 0-5.2.609zm-17.406.79c-1.17-.705-2.402-.476-3.801-.57 1.233 1.696 2.627.253 3.801.57z" class="cls-9"/><path d="M1041.41 294.786l-6.449.572c3.27.591 4.718.467 6.45-.572z" class="cls-10"/><path d="M1010.394 295.423a21.498 21.498 0 0 0 6.926-.032 26.567 26.567 0 0 0-6.926.032z" class="cls-9"/><path d="M1258.49 294.053l-1.384-.124-.512.47c-.609.838-1.663.182-2.457.664h4.35l.003-1.01zm-2.144 1.01h2.141-2.14zm-640.11-1.425c-2.284-.233-2.284-.233-3.792.623 2.297.2 2.297.2 3.792-.623zm224.093.039a7.368 7.368 0 0 0 4.588.56 5.777 5.777 0 0 0-4.588-.56zm454.991 2.652a30.761 30.761 0 0 0 7.415-.052 24.383 24.383 0 0 0-7.414.052zm-778.554 2.999h4.37c-1.782-1.36-3.03.008-4.37 0zm-406.671-4.054h-4.733c1.587 1.06 3.147.17 4.733 0z" class="cls-10"/><path d="M978.617 294.885h-3.986a16.181 16.181 0 0 0 2.9.76 4.212 4.212 0 0 0 .496.014 3.729 3.729 0 0 0 .505-.05l.085-.724z" class="cls-8"/><path d="M978.027 295.66a3.738 3.738 0 0 0 .505-.05 3.729 3.729 0 0 1-.505.05z" class="cls-8"/><path d="M61.894 295.671h-4.226l.086.436.438.102 3.723-.235zm740.281-3.921a15.258 15.258 0 0 0-1.53-.101c-.383.01-1.03-.153-.992.464.046.721.715.483 1.184.486.252-.558 1.15-.063 1.338-.849zm-1.338.849l-.007.009.012-.01-.005.001z" class="cls-10"/><path d="M160.855 301.534q-.098-.152-.193-.273a1.328 1.328 0 0 0-.545-.459.508.508 0 0 0-.225-.03.658.658 0 0 0-.423.255 2.485 2.485 0 0 0-.382.672l1.768-.165zm-93.325-4.501h-2.374a2.484 2.484 0 0 0 2.374 0z" class="cls-8"/><path d="M1261.411 294.657c-.667-.54-1.083-.373-1.266.45a1.816 1.816 0 0 0 .733.056.682.682 0 0 0 .159-.055.785.785 0 0 0 .374-.45z" class="cls-9"/><path d="M1261.037 295.108a.786.786 0 0 0 .374-.45.785.785 0 0 1-.374.45z" class="cls-9"/><path d="M104.026 295.732a.99.99 0 0 0-1.17.2 8.448 8.448 0 0 0 1.094.06c.208-.016.241-.184.076-.26zm673.686-2.449c.626.26.953.013 1.055-.619a.768.768 0 0 0-.63.134 1.999 1.999 0 0 0-.425.485z" class="cls-10"/><path d="M666.893 297.612a.81.81 0 0 0 .173.033c.02 0 .04-.053.06-.082a.827.827 0 0 0-.172-.028c-.02 0-.04.05-.06.077z" class="cls-7"/><path d="M63.799 296.976l.315-.33-.27-.21-.045.54z" class="cls-10"/><path d="M1354.405 293.869a2.035 2.035 0 0 0-.5.28l.44.279c.313-.038.513-.114.4-.38a.396.396 0 0 0-.34-.18zm-844.893 6.3c-1.03-.084-1.892-.774-2.618.284l.057.02.057.019c.755-.181 1.566.215 2.504-.323zm602.785-5.584a7.346 7.346 0 0 0 3.003.775q.12-.15.249-.292a2.672 2.672 0 0 0-3.252-.483zm11.857-.128a9.763 9.763 0 0 0-4.14.2 8.611 8.611 0 0 0 4.14-.2zm95.612.349h2.225l.099-.116.031-.037c-.77-.618-1.564-.25-2.355.153zm-567.663 4.089a1.742 1.742 0 0 0 1.76-.05 1.677 1.677 0 0 0-1.76.05zm595.472-4.955c.3-.124.723.099.975-.408l-1.863-.134c.09.519.55.432.888.543zm3.82-.062a.689.689 0 0 0-.435.083.588.588 0 0 0-.176.178 1.135 1.135 0 0 0-.135.31c.54-.243 1.247.068 1.684-.513a2.51 2.51 0 0 1-.938-.058z" class="cls-2"/><path d="M1444.852 232.592c0-5.48.02-10.962-.023-16.443-.007-.773.579-2.026-1.106-1.981-1.509.04-1.001 1.158-1.003 1.887q-.043 16.335-.002 32.67c.002.736-.483 1.846 1.026 1.87 1.696.029 1.075-1.232 1.082-1.993.049-5.336.026-10.673.026-16.01z" class="cls-11"/><path d="M1447.576 211.216h-8.842v42.897h8.842zm-3.832 39.38c-1.51-.025-1.023-1.135-1.026-1.871q-.04-16.335.002-32.67c.002-.729-.506-1.847 1.003-1.887 1.685-.045 1.1 1.208 1.106 1.981.043 5.48.023 10.962.023 16.443 0 5.337.023 10.674-.026 16.01-.007.761.614 2.022-1.082 1.994z" class="cls-11"/></svg>