<svg xmlns="http://www.w3.org/2000/svg" role="img" viewBox="-4.98 -4.98 284.70 71.20"><title>Labelbox logo</title><path fill="#4A4A4A" fill-rule="evenodd" d="M8.695 5.719V52.3h15.961V60H.504V5.719h8.191zm44.561 20.039h7.946V60h-7.946v-3.586c-3.258 3.047-6.761 4.57-10.511 4.57-4.735 0-8.649-1.71-11.743-5.132-3.07-3.493-4.605-7.852-4.605-13.079 0-5.132 1.535-9.41 4.605-12.832 3.07-3.421 6.914-5.132 11.532-5.132 3.984 0 7.558 1.64 10.722 4.921v-3.972zM34.483 42.773c0 3.282.879 5.954 2.637 8.016 1.804 2.086 4.078 3.129 6.82 3.129 2.93 0 5.297-1.008 7.101-3.023 1.805-2.086 2.707-4.735 2.707-7.946 0-3.21-.902-5.86-2.707-7.945-1.804-2.04-4.148-3.059-7.03-3.059-2.72 0-4.993 1.032-6.821 3.094-1.805 2.086-2.707 4.664-2.707 7.734zM76.196.621v29.11c3.164-3.282 6.75-4.922 10.758-4.922 4.617 0 8.46 1.722 11.531 5.168 3.07 3.421 4.606 7.687 4.606 12.796 0 5.274-1.547 9.633-4.641 13.079-3.07 3.421-6.95 5.132-11.637 5.132-3.96 0-7.5-1.523-10.617-4.57V60h-7.91V.621h7.91zm18.809 42.504c0-3.281-.89-5.953-2.672-8.016-1.805-2.109-4.067-3.164-6.785-3.164-2.907 0-5.274 1.02-7.102 3.059-1.805 2.016-2.707 4.64-2.707 7.875 0 3.328.89 5.988 2.672 7.98 1.781 2.04 4.125 3.059 7.031 3.059 2.742 0 5.016-1.02 6.82-3.059 1.829-2.062 2.743-4.64 2.743-7.734zm44.736 1.617h-24.539c.211 2.813 1.125 5.051 2.743 6.715 1.617 1.64 3.69 2.461 6.222 2.461 1.969 0 3.598-.469 4.887-1.406 1.266-.938 2.707-2.672 4.324-5.203l6.68 3.726c-1.031 1.758-2.121 3.264-3.27 4.518-1.148 1.254-2.379 2.285-3.691 3.093-1.313.81-2.73 1.4-4.254 1.776-1.523.375-3.176.562-4.957.562-5.11 0-9.211-1.64-12.305-4.922-3.094-3.304-4.64-7.687-4.64-13.148 0-5.414 1.5-9.797 4.5-13.148 3.023-3.305 7.03-4.957 12.023-4.957 5.04 0 9.023 1.605 11.953 4.816 2.906 3.188 4.36 7.605 4.36 13.254l-.036 1.863zm-8.12-6.469c-1.102-4.218-3.762-6.328-7.981-6.328-.961 0-1.863.147-2.707.44a7.745 7.745 0 0 0-2.303 1.265 8.023 8.023 0 0 0-1.775 1.987 9.23 9.23 0 0 0-1.125 2.636h15.89zM153.4.621V60h-7.91V.621h7.91zm15.03 0v29.11c3.164-3.282 6.75-4.922 10.757-4.922 4.618 0 8.461 1.722 11.532 5.168 3.07 3.421 4.605 7.687 4.605 12.796 0 5.274-1.547 9.633-4.64 13.079-3.07 3.421-6.95 5.132-11.637 5.132-3.961 0-7.5-1.523-10.617-4.57V60h-7.91V.621h7.91zm18.808 42.504c0-3.281-.89-5.953-2.672-8.016-1.804-2.109-4.066-3.164-6.785-3.164-2.906 0-5.273 1.02-7.101 3.059-1.805 2.016-2.707 4.64-2.707 7.875 0 3.328.89 5.988 2.672 7.98 1.78 2.04 4.125 3.059 7.03 3.059 2.743 0 5.016-1.02 6.821-3.059 1.828-2.062 2.742-4.64 2.742-7.734zm11.936-.492c0-4.946 1.77-9.153 5.309-12.621 3.539-3.469 7.851-5.203 12.937-5.203 5.11 0 9.446 1.746 13.008 5.238 3.516 3.492 5.274 7.781 5.274 12.867 0 5.133-1.77 9.434-5.309 12.902-3.563 3.446-7.934 5.168-13.113 5.168-5.133 0-9.434-1.757-12.903-5.273-3.468-3.469-5.203-7.828-5.203-13.078zm8.086.14c0 3.422.914 6.13 2.742 8.122 1.875 2.015 4.348 3.023 7.418 3.023 3.094 0 5.567-.996 7.418-2.988 1.852-1.993 2.778-4.653 2.778-7.98 0-3.329-.926-5.99-2.778-7.981-1.875-2.016-4.347-3.024-7.418-3.024-3.023 0-5.472 1.008-7.347 3.024-1.875 2.015-2.813 4.617-2.813 7.804zm42.803-1.3L237.76 25.758h9.421l7.63 9.984 7.769-9.984h9.703l-12.656 15.715L274.286 60h-9.422L254.81 47.203 244.51 60h-9.668l15.222-18.527z"/></svg>