<svg xmlns="http://www.w3.org/2000/svg" role="img" viewBox="-1.16 -0.53 127.31 170.69"><title>Label Studio logo</title><defs><style>.cls-2{fill:#8aad00;stroke:#000;stroke-miterlimit:10;stroke-width:.75px}.cls-4{fill:#f9c2cf}</style></defs><rect width="80" height="80" x="22.429" y="30.8" rx="4.67" style="isolation:isolate" fill="#8aad00" opacity=".2"/><path d="M115.34 125.7H9.62a2 2 0 0 1-2-2V18.1a2 2 0 0 1 2-2h105.72a2 2 0 0 1 2 2v105.6a2 2 0 0 1-2 2zm-103.69-4h101.69V20.1H11.62z" class="cls-2"/><rect width="13" height="13" x="3.119" y="11.6" class="cls-2" rx="1.69"/><rect width="13" height="13" x="108.589" y="11.6" class="cls-2" rx="1.69"/><rect width="13" height="13" x="3.119" y="117.19" class="cls-2" rx="1.69"/><rect width="13" height="13" x="55.979" y="11.6" class="cls-2" rx="1.69"/><rect width="13" height="13" x="55.979" y="117.19" class="cls-2" rx="1.69"/><rect width="13" height="13" x="108.589" y="117.19" class="cls-2" rx="1.69"/><rect width="13" height="13" x="3.119" y="64.4" class="cls-2" rx="1.69"/><rect width="13" height="13" x="108.589" y="64.4" class="cls-2" rx="1.69"/><path fill="none" d="M76.19 13.02a1.27 1.27 0 0 0 .67 1.21l-.61-1.33a.3.3 0 0 0-.06.12z"/><path d="M71.11 8.35c-.37-.29-.68-.57-1-.81a7.49 7.49 0 0 0-1.82-1.13c-1.08-.34-1.68.44-2.38 1.06a7.73 7.73 0 0 0-2.66 6.78c0 .23.41.5-.13.61s-.49-.24-.61-.47a3.78 3.78 0 0 1 0-2.46 7.29 7.29 0 0 1 2.16-4.36c.75-.68 1.46-1.41 2.2-2.13a25.469 25.469 0 0 0-3.59-1.2 1.82 1.82 0 0 0-2.33 1 9.71 9.71 0 0 0-.86 2.6c-.26 1.88-.64 3.71.7 5.47.5.66.61 1.47 1.59 1.92s1.66 1.08 2.56 1.54c-.07-4.08 2.15-6.76 6.17-8.42z" class="cls-4"/><path d="M54.49 10.76a2.93 2.93 0 0 0 2.85 2.44 9.93 9.93 0 0 1 1.58.27c.24.05.49.17.68 0s0-.39-.09-.58a6.55 6.55 0 0 1-.68-3 14 14 0 0 1 1.62-5.7l-3.79.36a5.361 5.361 0 0 0-.78.15 10.38 10.38 0 0 0-1.47 2.29c-.46 1.24-.07 2.51.08 3.77zm16.24 4.5a14.31 14.31 0 0 1 3.7-1.31c.28-.07.6-.1.65-.47a.88.88 0 0 1-.15-.27c-.26-1.61-1.61-2.67-2.47-4a.57.57 0 0 0-.796-.134l-.005.004a2.37 2.37 0 0 1-.72.3 7.45 7.45 0 0 0-4 3c-1.53 2-1.47 4.42-.55 6.74.07.17 0 .38.34.39s.33-.16.46-.36a10.35 10.35 0 0 1 3.54-3.89z" class="cls-4"/><path d="M69.34 22.88a10.86 10.86 0 0 1 7.76-2.86c.94 0 1-.11.72-.87-.53-1.27-1.09-2.52-1.6-3.8a.9.9 0 0 0-1.128-.59h-.003c-.32-.16-.64.1-1 .17a7.77 7.77 0 0 0-4.21 2 12.44 12.44 0 0 0-1.76 2.52 3.86 3.86 0 0 0-.33 3.08c.25.99.73 1.07 1.55.35zm-.07 17.28a1.36 1.36 0 0 1 1-.5c.57-.08.8.33 1.1.62s.68.56 1-.07c.06-.14.24-.24.37-.35.78-.7 1.11-.71 2-.05.34.25.58.1.81-.17.88-1 1.25-1.1 2.24-.14.61.59 1.46-.32 2 .37a.31.31 0 0 0 .25 0 1.52 1.52 0 0 0 .27-.57 11.19 11.19 0 0 0 .2-2.58c-.19-1.51-.1-3-.32-4.53 0-.17 0-.54-.19-.44-1 .46-1.57-.28-2.28-.56a7.44 7.44 0 0 0-4.66-.28c-1.55.41-3.43.37-4 2.38a13.59 13.59 0 0 0-.72 2.38 17.7 17.7 0 0 1 3.11-1.24 9.85 9.85 0 0 1 7.69.36 1.79 1.79 0 0 1 .62.47c.3.37.13.61-.34.67a1.21 1.21 0 0 1-.76-.18 7.53 7.53 0 0 0-3.32-1.11 13.22 13.22 0 0 0-5.28 1.26 6.72 6.72 0 0 0-2.15 1.29.84.84 0 0 0-.27 1c.19.26.59-.09.83-.22a10.63 10.63 0 0 1 3.61-1.21 13 13 0 0 1 3.68-.13c.88.15 1.72.4 2.59.56.46.09 1 .09 1.15.59.09.24.11.52-.18.66a1.43 1.43 0 0 1-1.37-.17 7.06 7.06 0 0 0-4-.79 14.58 14.58 0 0 0-6.11 1.74c-.23.1-.74.29-.47.74a1.08 1.08 0 0 0 1.9.2z" class="cls-4"/><path d="M75.77 20.91a11.81 11.81 0 0 0-4.88 1.85 5 5 0 0 0-1.75 1.51c-.37.66-.15 1.48-.49 2.19-.07.15.11.4.17.61s.25.26.11.44-.22.37 0 .5.39 0 .56-.16a2.85 2.85 0 0 1 .52-.31 9.86 9.86 0 0 1 6.33-1.93c.9.07 1.88.16 2.2 1.34a5.14 5.14 0 0 1-1.46-.13 4.23 4.23 0 0 0-2.6-.27 16.7 16.7 0 0 0-2.87 1c-1.6.61-2.13 2-2.8 3.2-.06.11-.22.27 0 .43s.32 0 .48 0a14.871 14.871 0 0 1 2.39-.88 11.61 11.61 0 0 1 4.11-.44 10.22 10.22 0 0 1 3.55.9c.2.1.72.48.7-.1a11.24 11.24 0 0 0-.07-1.53c-.41-2.32-.8-4.65-1.24-7-.1-.5 0-1.25-.83-1.34a8.46 8.46 0 0 0-2.13.12zm-16.43-3.87a1.92 1.92 0 0 0-1.43-.37 3.52 3.52 0 0 0-3 1.19.82.82 0 0 0-.15.92c.14.33.49.11.77.06a2.78 2.78 0 0 1 1 0 8.32 8.32 0 0 1 4.28 1.92c.53.49.68.25.9-.22.51-1.19-2.01-3.22-2.37-3.5z" class="cls-4"/><path d="M55.98 19.56a6.25 6.25 0 0 0-1.66.85c-.86.77-.22.92.29 1.26a4.65 4.65 0 0 1 1.61 1.71 2.49 2.49 0 0 1-.11 2.61c-.16.26-.32.66-.07.86s.57-.06.86-.24c.87-.54 1.65-1.16 2.45-1.75 1.14-.84.44-2.08 1.22-2.9 0 0-.13-.22-.21-.33-1.02-1.38-2.57-1.8-4.38-2.07zm-12.89-.96a4.74 4.74 0 0 0 2.36 1.47 9 9 0 0 0 2.69.07c1.21-.29 2.27-2.6.66-3a8.12 8.12 0 0 1-3.76-.76 2.66 2.66 0 0 1-1.19-1.17.43.43 0 0 1 .21-.64c.26-.12.54-.05.6.18.26.91 1.16 1.1 1.93 1.33a3.48 3.48 0 0 0 3.75-.67 8.78 8.78 0 0 1-4-4c-.09-.23-.19-.39 0-.58s.33-.35.61-.27a.42.42 0 0 1 .344.483l-.005.027a1.95 1.95 0 0 0 .25.76 6.31 6.31 0 0 0 2.73 2.59 1.8 1.8 0 0 0 2.5-.15c.38-.31.45-.6 0-.82a6.86 6.86 0 0 1-1.64-1.34 4.9 4.9 0 0 1-1.42-3.85 2 2 0 0 1 .25-.93.66.66 0 0 1 .83-.35c.39.15.09.39 0 .61a3.45 3.45 0 0 0 .9 3.89 4.21 4.21 0 0 0 2.58 1.59c.55 0 .31 0 .21-.3a15.3 15.3 0 0 1-.85-3.01 7.84 7.84 0 0 1 .61-4.48 1.62 1.62 0 0 0-.25-.07 1.49 1.49 0 0 0-.52.1 15.33 15.33 0 0 0-7.94 5.15 9.47 9.47 0 0 0-2.47 6.62c.01.49-.23 1.03.03 1.52z" class="cls-4"/><path d="M54.28 22.44a1.67 1.67 0 0 0-1.24-.39c-.47.07-.36.49-.55.73-1 1.25-1.94 2.67-4 2.7-.15 0-.33 0-.32.19a.38.38 0 0 0 .12.28 10 10 0 0 0 4.22 1.68 2.83 2.83 0 0 0 2.91-1.68 2.89 2.89 0 0 0-1.14-3.51z" class="cls-4"/><path d="M48.93 24.55a4.35 4.35 0 0 0 2.89-2.6c.24-.47 0-.67-.52-.49-1.58.54-3.17 1-4.79 1.48-.71.19-.73.52-.16 1s1.5.45 2.16.64c.21.1.3-.01.42-.03zm4.76-8.86a1 1 0 0 1 .8.6c.16.42.39.42.81.16a4.71 4.71 0 0 1 2.45-.64 5.27 5.27 0 0 1 3 .8 2.91 2.91 0 0 0-3.3-2.43 4.82 4.82 0 0 1-1.34-.11 2.29 2.29 0 0 0-2.21.51c.21.17.58-.06.65.24.14.57-.59.48-.86.87z" class="cls-4"/><path fill="#a3a3a3" d="M97.78 52.45a1.09 1.09 0 0 1 .18-.53 2.6 2.6 0 0 0 .15-1.61 35.152 35.152 0 0 0-1-3.54c-.09-.42-1.38-.86-1.74-.58a10.29 10.29 0 0 0-2.05 1.7c-.91 1.22-2.33 1.57-3.69 2a3.36 3.36 0 0 1-3.46-.43 3.32 3.32 0 0 0-1.32-.66 13.47 13.47 0 0 1-3.87-2 3 3 0 0 0-1.66-.73c-.49 0-.89-.81-.55-1.12.56-.5.47-1.2.81-1.75.46-.75 0-1.41-.24-2.09-.11-.36-.47-.35-.79-.08-.58.49-1 .4-1.35-.24-.13-.26-.07-.7-.55-.67s-.49.43-.61.77-.29.85-.8.87-.64-.34-.81-.67a1 1 0 0 0-.17-.19c-.66-.71-.87-.69-1.25.19-.2.46-.35 1-.9 1.16s-.74-.6-1.1-.92-.39-.59-.82-.51a1 1 0 0 0-.84.82c-.11.48.08 1.16-.66 1.26s-.73-.64-1-1-.74-.57-1.13-.06a5.36 5.36 0 0 0-1 1.5c-.14.48-.6 1.16-.14 1.52a1.06 1.06 0 0 1 .39 1.07 34.62 34.62 0 0 0-.23 4.1.44.44 0 1 1-.87 0 17.518 17.518 0 0 0 0-1.88c-.06-.68.49-1.36 0-2.14-1.53 2.66-2.22 5.47-3.14 8.2-.57 1.7-1 3.43-1.49 5.15-.38 1.32-.74 2.63-1 4a38.81 38.81 0 0 0-.82 6.14c-.11 2-.73 3.85-.93 5.81a34.708 34.708 0 0 0-.59 4.64 45.82 45.82 0 0 1 .27 5.81 15.12 15.12 0 0 0 .09 2.79 36.44 36.44 0 0 1 .24 4.94 47.722 47.722 0 0 0 .42 4.77 58.349 58.349 0 0 0 .83 5.81c.06.39.08.81.56 1 .13.05.39.08.42 0a1.17 1.17 0 0 0 0-1.09c-.15-.33-.06-.69-.24-1s0-.63.23-.91a.43.43 0 0 1 .46-.19c.26 0 .21.25.19.39a3.69 3.69 0 0 0 .22 1.6c.22.84.13 1.88 1.45 2.26.52.15.72.76.87 1.27.6 1.95-.37 3.61-1.21 5.29a2.67 2.67 0 0 1-1 1.09c1.11 1 1.84 4.38 2.3 5.6 1.09-1 1.32-2.71 2.56-3.77a12.9 12.9 0 0 1 4.66-2.41c4.09-.86 6.67.75 6.86 4.72a8.14 8.14 0 0 1-1.46 5.2 13.62 13.62 0 0 0 1.87-2 19.942 19.942 0 0 1 1.38-1.59.59.59 0 0 1 .81-.05c.32.23.17.46-.07.69a4 4 0 0 0-.85.94c-.28.58-1 .94-1.14 1.7a53.92 53.92 0 0 1 6.51-2.12c1.2-.27 1.63-.2 2.17.83a7 7 0 0 1 1.2 3.66.82.82 0 0 0 .4.79 10.43 10.43 0 0 1 .71-.92c.29-.3 0-1.06.87-.88.7.15.2.77.62 1.24.26-1 .71-1.47 1.86-1.11.57.18 1.67-.68 1.76-1.2.32-1.75.09-3.53.55-5.28.5-1.92.14-3.91.39-5.86s.92-3.81 1.16-5.76c.16-1.3.55-2.57.6-3.91a20.78 20.78 0 0 1 .61-3.87 27.67 27.67 0 0 0 .67-4.45c.07-1 .15-2.08.16-3.12q.06-5.22.07-10.43v-5.5a11.59 11.59 0 0 0 0-2.32c-.19-.9.67-2-.6-2.71a.324.324 0 0 1 .07-.2 54.26 54.26 0 0 0 1.78-6.67 11.29 11.29 0 0 0-.62-6.27 14.26 14.26 0 0 1-.62-4.3zm-37.72 11a2.27 2.27 0 0 1 .36-.64.39.39 0 0 1 .5 0c.15.09.27.19.18.4a7.33 7.33 0 0 0-.51 3.29c0 .22.11.53-.35.51-.29 0-.56 0-.37-.5a10 10 0 0 1 .19-3.04zm-1 8.24a.81.81 0 0 1 .31-.65c.23-.22.45-.65.86-.41s0 .48-.14.71a2.6 2.6 0 0 0-.31 1.32c.1 1-.18 2 0 2.95 0 .21.13.52-.33.53s-.57-.15-.57-.48v-1.34c-.13-.8.33-1.68.22-2.56zm-.07 13.47a7.08 7.08 0 0 0-.19-2.49c-.25-.79 0-1.6-.31-2.34a.68.68 0 0 0 .16-.57c0-.31.18-.36.46-.33s.52.18.44.42c-.45 1.33.23 2.6.2 3.91 0 .49-.21.94-.21 1.43 0 .2-.06.41-.32.38s-.19-.21-.19-.39zm.15 3.46c0-.54-.08-1 .44-1s.46.41.49.72c.11 1 .23 2.07.3 3.11a1.53 1.53 0 0 1-.21.68.38.38 0 0 1-.27.18c-.22 0-.17-.17-.2-.29a30.598 30.598 0 0 0-.51-3.38zm1.93 11.53c-.2 0-.35-.18-.41-.47-.34-1.61-.76-3.21-1.13-4.82a.53.53 0 0 1 .356-.66h.003a.55.55 0 0 1 .67.6c0 .91.52 1.71.43 2.63a8 8 0 0 0 .23 1.77 1.367 1.367 0 0 1-.07.49c-.07.19.28.44-.04.48zm26-42.74c.45 0 .37.25.38.49 0 .67.33 1.32.16 1.94a7 7 0 0 1 0 1.19.447.447 0 1 1-.87-.09 9.32 9.32 0 0 0-.13-3 .46.46 0 0 1 .51-.51zm-.91 22.76c.24-.95-.08-1.94.29-2.88.11-.27.16-.61.62-.54s.19.43.32.7a24.911 24.911 0 0 0-.6 2.83c-.06.25-.2.42-.48.38s-.15-.25-.09-.46zm-.43 2.91v1.87c0 .37-.08.9-.45.91s-.19-.63-.51-.87a5.68 5.68 0 0 0 .27-2 .481.481 0 0 1 .67-.47c.45.14.1.38.07.59zm-.15-12.14c0 .28 0 .73-.42.66s-.49-.49-.52-.83a7.42 7.42 0 0 0 0-3.38c0-.18-.13-.48.28-.47a.4.4 0 0 1 .43.35 15.27 15.27 0 0 1 .28 3.7zm-.64-11.9c.25 0 .3.13.3.31 0 1 .37 2 0 3.09a6.12 6.12 0 0 1-.7-3.19c.06-.2.27-.18.45-.18zm-1.34 17.5c.59-1.14.36-2.33.36-3.52 0-.18-.15-.48.24-.51s.38.16.49.38a4.22 4.22 0 0 1 .17 1.66 2.59 2.59 0 0 1-.78 2.21c-.1.1-.2.24-.37.17a.23.23 0 0 1-.11-.39zm-1-12.46c.59 1 .16 2.09.47 3.11 0 .13-.12.3-.14.45-.05.35-.29.46-.64.42-.6-.07 0-.36-.12-.53a.31.31 0 0 1 0-.39 7.22 7.22 0 0 0-.29-2.38 2.56 2.56 0 0 1-.07-.56c0-.31-.15-.78.3-.84s.3.47.45.72zm-1.73-11.9c.29 0 .4.17.5.39a2.63 2.63 0 0 1 .28 1.19 8.49 8.49 0 0 0 .26 1.91c.08.43-.06.78-.39.84s-.58-.4-.57-.67c0-.68-.25-1.33-.19-2a4.45 4.45 0 0 0-.21-1.08c.09-.26-.12-.56.28-.58zm-.22 5.89c.3 0 .61 0 .64.32a10.78 10.78 0 0 0 1 3.14c.12.29.06.52-.22.6s-.35-.17-.45-.4c-.38-.92-.8-1.82-1.2-2.74a4.428 4.428 0 0 1-.15-.53c.07-.1.07-.36.35-.39zm.16 14.41c0-.17 0-.59.42-.46a.51.51 0 0 1 .34.57v1.52a5.69 5.69 0 0 1-.14 2c-.07.27-.15.49-.49.46s-.14-.4-.13-.48c.1-1.21-.33-2.41-.03-3.61zm-1.3-5.22c.41 0 .42.36.48.64q.16.78.34 1.55a.4.4 0 0 1-.28.53.33.33 0 0 1-.41-.33c0-.6-.57-1.09-.36-1.64-.11-.34-.28-.71.19-.75zm-2.7 18.76c-.07-.36 0-.7.42-.74s.5.35.44.64c-.16.67.38 1.31.1 2 .18.54-.22 1.1-.12 1.68a.32.32 0 0 1-.39.35c-.27 0-.17-.23-.18-.43a20.55 20.55 0 0 0-.27-3.5zm.1 8.51c0 .36-.16.56-.59.55s-.31-.32-.32-.53 0-.6 0-.9a8.84 8.84 0 0 1 0-1.14.54.54 0 0 1 .575-.501l.014.001a.48.48 0 0 1 .384.56l-.004.02a10.06 10.06 0 0 0-.05 1.94zm.69 5.84a8.74 8.74 0 0 0 1-1.76 4.81 4.81 0 0 0 .3-1.82c0-.31.06-.64.44-.69.58-.07.27.38.38.78a5.16 5.16 0 0 1-1 3.19c-.14.2-.35.34-.41.61a.53.53 0 0 1-.65.376l-.02-.006c-.37-.14-.2-.44-.03-.69zm.3-24.2v-.49a.5.5 0 0 1 .41-.48c.33-.05.25.26.35.43.32.57 0 1.18.15 1.66a3.87 3.87 0 0 1-.34 2.14c-.1.15-.16.28-.39.25a.25.25 0 0 1-.19-.38c.45-1.06-.06-2.1.02-3.14zm.78 8.42c-.41 0-.45-.29-.45-.58v-1.23a11.901 11.901 0 0 1 0-1.47.48.48 0 0 1 .59-.47c.57.1.1.36.1.54v2.64c.04.21.21.56-.23.56zm-.06-14.7a.35.35 0 0 1 .4.35 10.968 10.968 0 0 0 .07 1.4 3.37 3.37 0 0 1-.07 1.4.318.318 0 0 1-.29.35c-.19.01-.24-.14-.26-.3a13.66 13.66 0 0 1-.13-2.85.36.36 0 0 1 .28-.35zm-.11-6.3a2.56 2.56 0 0 1-.07.48.51.51 0 0 1-.6.37c-.36-.06-.17-.35-.21-.41a5.34 5.34 0 0 0-.54-3.64.564.564 0 0 1 0-.46c1-.77.22-1.61.11-2.41 0-.31-.26-.6-.32-.91s-.15-.47.23-.52.57 0 .65.31c.25 1 .95 2.23.62 3.11-.49 1.46.46 2.73.14 4.08zm-1.34-16.1c.24-.07.37.2.49.38a1.72 1.72 0 0 1 .37 1.32 6.9 6.9 0 0 1-.45 2.43c-.06.18-.15.46-.49.34s-.19-.34-.15-.49a5.89 5.89 0 0 0 0-3.38.45.45 0 0 1 .221-.596zm-1.66-4a.506.506 0 0 1 .59-.56c.46.04.27.35.3.56a1.66 1.66 0 0 1-.91 2c.01-.73-.02-1.35.03-1.96zm.16 10.15c.57 0 .53.61.51 1.05v.32c0 .3 0 .65-.42.67s-.49-.36-.49-.68v-.46c0-.19-.27-.88.4-.86zm0 9.78c.41 0 .31.28.37.45a20.12 20.12 0 0 1 .86 3.5c0 .22 0 .51-.26.55a.45.45 0 0 1-.47-.42c.05-1.11-.78-2-.9-3.06v-.49a.458.458 0 0 1 .37-.49zm-.44 9.2a.41.41 0 0 1 .43-.35c.26 0 .22.18.31.32.31.5.15 1.06.29 1.58a11.36 11.36 0 0 1 .2 1.68c0 .34-.11.79-.56.79s-.33-.44-.33-.72c0-.95-.27-1.86-.35-2.8a3.803 3.803 0 0 1-.02-.47zm.66 14.18c0 .9-.48 1.63-.46 2.45 0 .17-.15.62-.56.5s-.32-.38-.16-.67c.39-.71.14-1.5.3-2.23.07-.32.09-.93.53-.91.57.06.18.65.31.89zm-1.41-21.12c0 1.21.65 2.34.58 3.57 0 .22 0 .36-.23.41s-.34-.1-.38-.32a24.81 24.81 0 0 1-.72-3 3.83 3.83 0 0 1 .07-.68.4.4 0 0 1 .42-.25.23.23 0 0 1 .26.27zM73.1 51.76a6.35 6.35 0 0 1 0-1.06 12.001 12.001 0 0 1 0-1.46.5.5 0 0 1 .56-.51c.46 0 .32.32.32.53v2.44c0 .35 0 .76-.54.78s-.3-.5-.34-.72zm0 4a.48.48 0 0 1 .65.49c-.06 1.14.66 2.21.38 3.21v1.26a.55.55 0 0 1-.63.55c-.27 0-.19-.35-.22-.6-.15-1.4.17-2.84-.37-4.22-.07-.22-.22-.58.21-.69zm-1 5.22a14.36 14.36 0 0 0 .33 2.48.21.21 0 0 1-.2.29.41.41 0 0 1-.49-.28 6.84 6.84 0 0 1-.38-2 .7.7 0 0 1 0-.52c.07-.2.1-.34.38-.34s.36.15.39.36zm-.24 23.78c-.07.25 0 .66-.37.61s-.33-.42-.22-.71v-.23h-.11v-3.6c0-.37.07-.66.58-.64s.34.39.32.61a18.15 18.15 0 0 1-.2 3.96zm-.06 7a27.672 27.672 0 0 1-.39 3.21.47.47 0 0 1-.47.47h-.02c-.28 0-.28-.35-.22-.55.4-1.19 0-2.41.24-3.61a2.921 2.921 0 0 1 .18-.58.42.42 0 0 1 .52-.22c.24.07.15.26.16.41s.01.56 0 .87zm-2.11-19.14c-.1-1.11.26-2.2.23-3.31a2.12 2.12 0 0 1 .39-.88c.08-.15.22-.29.42-.21s.3.2.27.31c-.46 1.78-.27 3.57-.88 5.24-.07.19 0 .6-.45.43a.42.42 0 0 1-.18-.66 1 1 0 0 0 .2-.92zm.23-6.17c-.07-.67.41-1.25.06-1.89-.05-.1 0-.73.54-.63a.6.6 0 0 1 .45.81 4.45 4.45 0 0 0-.13 1.6c0 .42 0 1-.55 1s-.29-.64-.38-.9zm.11 11.31a4.209 4.209 0 0 0 0-.57 2.32 2.32 0 0 1 .31-1.43c.14-.18.23-.41.53-.3a.41.41 0 0 1 .28.54 3.82 3.82 0 0 0-.13 1.76c0 .31-.11.82-.56.79s-.47-.41-.43-.79zm1.31-22.56c-.46.07-.5-.28-.49-.59s0-.43 0-.65a.63.63 0 0 1 0-.24c.11-.26-.28-.74.32-.77s.36.5.38.78.17.51.19.77-.02.65-.4.7zm-.72-12.24c.39 0 .48.32.47.56 0 .62.63 1 .55 1.64 0 .21.17.53-.29.56s-.61-.08-.62-.43c0-.6-.52-1.07-.55-1.66.01-.3-.03-.65.44-.67zm-.57 5.61c.09-.17.13-.46.48-.38a.41.41 0 0 1 .36.41 5.68 5.68 0 0 0 .34 2.71.29.29 0 0 1-.19.46.56.56 0 0 1-.64-.2 1.056 1.056 0 0 1-.23-.51 10.82 10.82 0 0 0-.21-1.92 1.66 1.66 0 0 1 .09-.57zm-.12 7.19c.33.11.16.31.09.52-.23.78.13 1.58-.07 2.37v.48c-.15.31-.14.89-.66.76s-.21-.56-.13-.92a9.48 9.48 0 0 0 .11-1.46 9.751 9.751 0 0 1 0-1.38.46.46 0 0 1 .66-.37zm-1.8 37.3c.07.3-.14.41-.38.43s-.49 0-.51-.3 0-.6 0-.9a7 7 0 0 1 .17-1.62c0-.26.11-.56.44-.48a.52.52 0 0 1 .4.67 5.33 5.33 0 0 0-.12 2.18zm-.19-40.17c-.42-.13-.24-.51-.15-.76.3-.81.07-1.68.36-2.49a.43.43 0 0 0 0-.16c0-.44.19-.84.68-.77s.12.55.27.84c-.15.92-.26 1.85-.47 2.77-.05.27-.2.72-.69.57zm0-8.7c.24-.13.62-.26.55.16-.14.91.67 1.46.95 2.31-1.14.15-1.35-.66-1.6-1.25-.12-.33-.5-.87.13-1.22zm-1 16.86c0-.26-.14-.67.44-.59s.42.31.38.7a26.696 26.696 0 0 0-.11 3 3.23 3.23 0 0 1-.17 1.26c-.1.23-.21.41-.49.38s-.19-.33-.19-.5c-.03-1.39.22-2.81.21-4.24zm-.3 13.47c-.2-.37 0-.9 0-1.36a.4.4 0 0 1 .37-.4c.29-.06.29.15.39.32.26.44.09.9.17 1.37-.23.32.36 1-.35 1s-.41-.6-.58-.93zm.14-6.47a7.65 7.65 0 0 0-.18 2.32 1 1 0 0 1-.12.46c-.13.22-.06.62-.48.56s-.3-.41-.32-.8a9 9 0 0 0 .22-2.51c0-.24.09-.57.49-.55a.38.38 0 0 1 .39.52zm-1.2-12.8c0-.15.14-.31.25-.29a.68.68 0 0 1 .39.29 2.13 2.13 0 0 1-1.07 2.51c.19-.94.29-1.73.42-2.51zm-.5 34.19c0-.17.24-.15.38-.11s.13.22.15.34c.06.45-.23.83-.27 1.28a1.62 1.62 0 0 0 .16 1.12c.2.3.1.54-.25.64s-.48-.23-.52-.42c-.08-.44-.35-.87-.2-1.36-.33-.62.4-.97.54-1.49zm-.44-30.74l-.93 3.39c-.08.27-.07.67-.51.62s-.06-.47-.26-.64c.21-1.11.4-2.19.63-3.26 0-.17.25-.3.33-.47s.41-.2.62-.15c.37.08.17.32.12.51zm-2.05 8.5v-.39a4.39 4.39 0 0 1 .36-1.72.54.54 0 0 1 .688-.33h.001c.45.11.13.36.1.57a8.11 8.11 0 0 0-.25 1.91c0 .33.11.79-.49.76s-.39-.5-.41-.8zm.69 11.56a4.809 4.809 0 0 1 0-.85c-.15-.72.29-1.53.2-2.37a1.13 1.13 0 0 1 .31-.65.4.4 0 0 1 .48-.11c.18.07.19.17.16.37-.17 1.21-.27 2.42-.45 3.62 0 .24 0 .69-.42.68s-.22-.48-.28-.69zm-.78-23c.69-.8.48-1.83.94-2.67 0-.07.09-.14.13-.21a.45.45 0 0 1 .55-.31c.28.07.15.31.21.61-.24.72-.5 1.55-.82 2.38a1 1 0 0 1-.59.46c-.36.17-.58-.09-.42-.26zm-.49 18.18v-.73a15.87 15.87 0 0 0 .2-3c0-.1 0-.27.07-.3.26-.14.25-.68.69-.49s.1.47.09.73c0 1.19-.58 2.36-.18 3.58a.51.51 0 0 1-.49.71c-.51.13-.36-.23-.38-.47zm1.51 17.27c-.41 0-.43-.25-.5-.54-.38-1.51-.33-3.07-.66-4.59-.05-.24.09-.37.31-.42a.42.42 0 0 1 .528.27q.007.02.011.04a5.58 5.58 0 0 1 .11.87 12.64 12.64 0 0 0 .58 3.8c-.23.12.02.58-.38.6zm.15-6.42c-.47.1-.41-.39-.51-.63a9.53 9.53 0 0 1-.63-2.4c0-.33 0-.61.42-.63s.33.28.39.49c.21.8.45 1.58.62 2.39.06.26.16.75-.29.81zm1.25 18.23a.67.67 0 0 1-.81-.49 3.43 3.43 0 0 1 0-.89v-.81a.56.56 0 0 1 .56-.54c.34 0 .33.3.35.55a3.81 3.81 0 0 0 .13 1.52c.07.21.19.6-.24.69zm.62-4.26c-.44.13-.49-.23-.54-.55-.15-.95-.36-1.89-.51-2.84 0-.21-.12-.53.34-.51s.71.21.56.81a16 16 0 0 1 .46 2.29c.07.39.01.71-.31.8zm1.33-10.73c0 .22 0 .44-.33.45s-.37-.17-.39-.41c-.08-1-.18-2.06-.28-3.23.25-.45.07-1.08.13-1.7a.42.42 0 0 1 .56-.38.4.4 0 0 1 .32.51 13.9 13.9 0 0 0-.01 4.76zm.05-7.4a17.002 17.002 0 0 1 0-2.72 1.7 1.7 0 0 1 .31-.9c.13-.14.25-.42.57-.27s0 .33.06.55a8.2 8.2 0 0 0-.08 3.31c0 .22 0 .77-.46.78s-.4-.44-.4-.74zm1 22a.42.42 0 0 1-.57.37c-.31-.08-.3-.26-.22-.56a18.24 18.24 0 0 0 .42-2.44 1.23 1.23 0 0 1 .32-.64c.11-.13.16-.29.39-.25s.13.31.22.41zm.38-5.24c-.44 0-.32-.42-.35-.7-.06-.45-.12-.9-.19-1.39a1.8 1.8 0 0 1 .1-.6c.12-.22.19-.57.6-.51s.2.39.23.6a9.47 9.47 0 0 0 .11 1.77.7.7 0 0 1-.457.879l-.004.001zm.57-12.16c-.06-.26 0-.49.29-.54a.39.39 0 0 1 .48.38 11.46 11.46 0 0 1 .29 3.93c-1-.5-.62-1.33-.79-1.95s-.13-1.17-.27-1.77zm4.07 11.63a.12.12 0 0 0 0 .07 4.44 4.44 0 0 1-.92 2.67c-.76 1.18-1 2.59-1.68 3.83a2.4 2.4 0 0 1-.73.76c-.25-.14-.5-.23-.28-.51 1-1.25 1.1-2.79 1.73-4.16a3.09 3.09 0 0 1 .73-1.17 1.37 1.37 0 0 0 .39-1 1.55 1.55 0 0 1 .08-.64c.14-.28.32-.74.69-.63s.22.54-.01.82zm.67-3.52a2.07 2.07 0 0 1-.18.53c0 .12-.14.16-.27.16a.256.256 0 0 1-.25-.26v-1.45c0-.84-.11-1.9-.18-3 0-.23 0-.48.3-.52s.37.28.4.45a19.8 19.8 0 0 1 .18 4.13zm0-16.83a2.18 2.18 0 0 0 .07-.95 3.45 3.45 0 0 0-.28-1.92c-.13-.25-.21-.67.16-.79s.56.25.64.47a4.27 4.27 0 0 1 .14 3.44c-.12.25-.25.58-.63.44s-.21-.44-.1-.65zm.28 4.92a.83.83 0 0 1 .17-.67c.08-.15.19-.33.39-.27a.48.48 0 0 1 .28.36 11.75 11.75 0 0 0 .4 2.54c0 .25 0 .55-.28.62s-.5-.31-.56-.52c-.19-.66-.28-1.38-.4-2.02zm.6 17.51c.72-.8.51-1.79.75-2.68.1-.35.22-.71.6-.68s.39.52.32.8c-.2.83-.47 1.64-.74 2.45a.88.88 0 0 1-.52.47c-.32.01-.63-.07-.41-.32zm4.18 14.68a3.1 3.1 0 0 1-2.12.39 1.45 1.45 0 0 1-1.51-1.18 7.61 7.61 0 0 1-.56-3 4.85 4.85 0 0 1 2.24-4.36 2.91 2.91 0 0 1 4.33 1.4 6.44 6.44 0 0 1-2.38 6.79zm3.2-25c-.31 1.51.08 3.09-.56 4.57-.1.23-.22.43-.5.35s-.07-.34 0-.46c.38-1.29-.06-2.64.38-3.91-.31-.34.12-.48.19-.72s.18-.12.3-.12a.21.21 0 0 1 .19.35zm-.13-4.39c.5-.93.38-2 .81-2.93.15-.33.06-.69.25-1s.12-.47.42-.42.12.32.15.49a1.27 1.27 0 0 1 0 .24 10.2 10.2 0 0 1-1.14 4c-.06.12-.14.27-.31.2a.39.39 0 0 1-.18-.52zm2.11 10.86c-.46 1.12-.38 2.37-1 3.45-.11.19-.17.41-.47.44a.299.299 0 0 1-.3-.44c.64-1 .48-2.13.88-3.16a1.24 1.24 0 0 1 .36-.54.44.44 0 0 1 .42-.09.23.23 0 0 1 .11.4zm.42-2.82a.58.58 0 0 1-.48-.17c-.23-.28.12-.36.22-.53a8.25 8.25 0 0 0 .41-2.36 3.33 3.33 0 0 1 .33-.91c.1-.19.21-.34.47-.25s.11.28.14.42c-.19 1.12-.37 2.23-.59 3.33-.05.24-.12.54-.5.53zm2.68 2c-.31 1.24-.59 2.49-.94 3.73-.14.51-.58.71-1.3.55a5.32 5.32 0 0 0 1.15-3.45 1.39 1.39 0 0 1 .57-1.13.54.54 0 0 1 .42-.06.458.458 0 0 1 .1.47zm-.2-5c-.62 0-.57-.34-.44-.55a5.68 5.68 0 0 0 .43-2.4c0-.33.13-.67.6-.63s.18.4.21.62a15.349 15.349 0 0 1-.21 2.16.7.7 0 0 1-.59.92zm1.42 4.12a1 1 0 0 1-.93.44 3 3 0 0 0 .48-2.19c0-.33-.11-.83.45-.79s.28.52.28.82a2.68 2.68 0 0 1-.28 1.84zm0-21.4c-.56 0-.34-.68-.29-1 .14-1.15-.46-2.14-.77-3.19a1.51 1.51 0 0 1-.15-.62c0-.26.08-.59.43-.62s.27.33.3.53c.18 1.31.85 2.53.91 3.92-.17.41-.09 1.11-.48 1.09zm.94 8.26c.07-1 .15-2 .18-3a1.38 1.38 0 0 1 .94-1.33 19.09 19.09 0 0 0-.38 4.29.42.42 0 0 1-.51.55c-.26 0-.3-.19-.28-.4zm.81 8.16a.41.41 0 0 1-.45.31c-.24-.05-.26-.29-.22-.48a19.71 19.71 0 0 0 .57-3 .33.33 0 0 1 .41-.33c.41.13.29.48.31 1-.05.85-.67 1.66-.67 2.61z"/><path fill="#fff" d="M70.09 113.21a12.9 12.9 0 0 0-4.66 2.41c-1.25 1.06-1.48 2.76-2.56 3.77-.47-1.22-1.2-4.59-2.3-5.6a3.22 3.22 0 0 1-.94.41.93.93 0 0 0-.7.69c-.24 1.26-.94 2.39-1.26 3.65-.41 1.64-1 3.28-1.53 4.91a46.779 46.779 0 0 1-1.47 4.51c-1.13 2.57-2.05 5.2-3.19 7.77-.14.32.07.33.34.33.51 0 1.14.11 1.27.5.29.86 1 .58 1.47.46 2.22-.56 4-1.91 6-2.82 1.29-.59 2.35-1.46 3.59-2.1a18.7 18.7 0 0 0 4.42-2.7c1.75-1.69 3.91-3 5.42-4.88a3.1 3.1 0 0 1 .49-.57c.35-.26.68-.54 1-.83a8.14 8.14 0 0 0 1.46-5.2c-.18-3.96-2.76-5.57-6.85-4.71zm-10.12 6.8q-1.45.68-1.45-.82a3.22 3.22 0 0 1 1.23-2.23.51.51 0 0 1 .78 0c.51.5.11 2.74-.56 3.05zm10.66 1.75c-.35.26-.74.72-1.33.39s-.31-.72-.2-1.15c.24-.94.46-1.88 1.69-2.2a1.13 1.13 0 0 1 1.45 1 3.78 3.78 0 0 1-1.61 1.96z"/><path d="M103.12 52.39c-1.25-1.23-1.78-3-3-4.29a10.79 10.79 0 0 0-3.59-2.89 1.68 1.68 0 0 0-1.9.18c-1.13.86-2.08 1.89-3.22 2.74a4.47 4.47 0 0 1-4.12.84c-1.1-.4-2.11-1.11-3.28-1.51a18.48 18.48 0 0 1-3.08-1.75c-.8-.46-1.06-.94-.64-1.7a3.32 3.32 0 0 0 .31-.65 22.72 22.72 0 0 0 .47-2.6 16 16 0 0 0 .43-3.45c-.1-2.47-.29-4.95-.61-7.42-.34-2.63-.88-5.24-1.29-7.86a10 10 0 0 0-.54-2c-.48-1.25-1-2.49-1.47-3.75a29 29 0 0 0-2.3-4.69 24.67 24.67 0 0 0-5.36-5.56 39.221 39.221 0 0 0-4.59-2.33 13.63 13.63 0 0 0-4.9-.94 17.31 17.31 0 0 0-3.59.56 23.22 23.22 0 0 0-6.61 2 24.63 24.63 0 0 0-4.16 2.94 13.25 13.25 0 0 0-2.91 3.63 11.43 11.43 0 0 0-.83 2.77 9.47 9.47 0 0 0-.43 3.78 32.299 32.299 0 0 0 3 5.56c.91.57 1.28 1.52 2 2.2a12.19 12.19 0 0 0 4.54 2.24 6.91 6.91 0 0 0 4.22-.28 10.24 10.24 0 0 0 4.48-2.68 8.16 8.16 0 0 0 1.88-3.19c.32-1.06 1.4-2 .85-3.26-.07-.16.16-.28.29-.39a1.29 1.29 0 0 1 2.09.56 37.912 37.912 0 0 1 1.79 4.85 5.23 5.23 0 0 1 .52 1.94c-.11 1.7.19 3.38.06 5.1a26.93 26.93 0 0 1-1.6 7.47c-.87 2.31-2.47 4.4-2.45 7a1.48 1.48 0 0 1-.2.52 34.5 34.5 0 0 0-2.05 5.44c-.31 1.27-.72 2.53-1.1 3.78-1 2.45-2.79 12.81-3.06 14.26-.34 1.82-.54 3.67-.87 5.49-.28 1.51-.29 6.81-.33 7.93-.14 3.47.39 6.91.36 10.37 0 .57.44 6.49.89 8.85.14.73.46 3.18-.12 3.46a3 3 0 0 0-1.71 2.46 4.71 4.71 0 0 0 1.39 3.88 3.57 3.57 0 0 1 .87 3.82c-.69 2.15-1.43 4.28-2.08 6.44s-1.3 4.25-2.15 6.33c-.34.82-.78 1.61-1.05 2.44a44.001 44.001 0 0 1-2.03 5.01c-.22.47-.49 1-.24 1.38a2 2 0 0 0 1.29.78 7.88 7.88 0 0 0 4.65-.59c.95-.5 1.91-1 2.86-1.49.3-.16.51-.24.71.13.45.83 1.36 1.33 1.93 2.08.19.25.54.61 1 .3a.57.57 0 0 0-.11-.94c-.95-.59-1.44-1.56-2.39-2.14l3.85-2.2 2.45-1.43c.38-.21.67-.23.75.28.1.71.28 1.41.34 2.12.13 1.44.38 2.9-.81 4.15a.74.74 0 0 0 0 1c.25.28.58.14.91 0a4.7 4.7 0 0 1 .87-.15.353.353 0 0 1 .07.14c.12 1.27.19 1.32 1.47.73a.36.36 0 0 1 .47.09 1.25 1.25 0 0 0 2.11-.39 11.2 11.2 0 0 0 .9-2.24 49.002 49.002 0 0 0 1-5.29c.31-2.25.82-4.48 1.24-6.73.3-1.6.36-1.88 1.94-1.88a.47.47 0 0 0 .18 0 52.62 52.62 0 0 1 5.66-1.9c1.46-.42 1.74-.25 2.31 1s0 2.8.28 4.21a17.79 17.79 0 0 1 .06 5.38 14.42 14.42 0 0 1-1.66 6.14c-.2.32-.82.82-.16 1.29s.9-.27 1.22-.47c.57-.35.64-.25.77.26a1.29 1.29 0 0 0 2 .37c.33-.4.56-.36.83 0 .58.69 1.07.39 1.4-.14s.5-.46.9-.23a.59.59 0 0 0 .93-.4 16.35 16.35 0 0 0 .59-3.89 18.72 18.72 0 0 1 .33-4.29c.33-1.77.5-3.56.83-5.33s.5-3.86.73-5.79.54-3.69.59-5.53a32.16 32.16 0 0 1 .55-4.61c.35-2 .81-4.05 1.17-6.08.07-.37.09-.95.14-1.4.13-1.1.28-2.21.5-3.27a43.51 43.51 0 0 0 .9-8.94c0-5.68 0-11.35.07-17a27 27 0 0 1 .73-7.19 33.23 33.23 0 0 0 .7-4.42c0-.3 0-.57.45-.35 1.16.55 1.39.45 1.64-.75.09-.43.46.14.93.3a.57.57 0 0 0 .81-.38c.05-.13.16-.63.33-.46.57.57 1.1.35 1.26.16s-1-6.22-2.45-7.65zM78.68 22.21c.45 2.32.83 4.64 1.24 7a11.24 11.24 0 0 1 .07 1.53c0 .58-.5.21-.7.1a10.22 10.22 0 0 0-3.54-1 11.61 11.61 0 0 0-4.11.44 14.871 14.871 0 0 0-2.39.88c-.16.07-.29.2-.48 0s-.05-.31 0-.43c.67-1.25 1.2-2.59 2.8-3.2a16.7 16.7 0 0 1 2.87-1 4.23 4.23 0 0 1 2.6.27 5.14 5.14 0 0 0 1.46.13c-.32-1.18-1.3-1.27-2.2-1.34a9.86 9.86 0 0 0-6.31 1.91c-.17.11-.36.19-.52.31s-.36.27-.56.16-.13-.33 0-.5-.07-.3-.11-.44-.24-.46-.17-.61c.34-.71.12-1.53.49-2.19a5 5 0 0 1 1.77-1.47 11.81 11.81 0 0 1 4.88-1.83 8.46 8.46 0 0 1 2.08 0c.86.02.73.78.83 1.28zM55.92 4.68c.26 0 .51-.13.78-.15l3.79-.36a14 14 0 0 0-1.62 5.7 6.55 6.55 0 0 0 .68 3c.07.19.33.39.09.58s-.44 0-.68 0a9.931 9.931 0 0 0-1.62-.25 2.93 2.93 0 0 1-2.85-2.44c-.14-1.24-.54-2.51 0-3.76a10.38 10.38 0 0 1 1.43-2.32zm-1.35 10.16c-.06-.3-.44-.08-.65-.24a2.29 2.29 0 0 1 2.21-.51 4.82 4.82 0 0 0 1.34.11 2.91 2.91 0 0 1 3.3 2.43 5.27 5.27 0 0 0-3-.8 4.71 4.71 0 0 0-2.45.64c-.41.26-.64.26-.81-.16a1 1 0 0 0-.8-.6c.25-.41.98-.32.86-.87zm-9-4.41a15.33 15.33 0 0 1 7.94-5.15 1.49 1.49 0 0 1 .52-.1 1.62 1.62 0 0 1 .25.07 7.84 7.84 0 0 0-.65 4.51 15.3 15.3 0 0 0 .86 3c.09.31.33.35-.21.3a4.21 4.21 0 0 1-2.58-1.59 3.45 3.45 0 0 1-.9-3.89c.07-.21.37-.45 0-.61a.66.66 0 0 0-.83.35 2 2 0 0 0-.25.93 4.9 4.9 0 0 0 1.42 3.85 6.86 6.86 0 0 0 1.64 1.34c.46.22.4.51 0 .82a1.8 1.8 0 0 1-2.5.15 6.31 6.31 0 0 1-2.73-2.59c-.1-.25-.3-.47-.25-.76a.42.42 0 0 0-.314-.505l-.027-.005c-.29-.08-.45.11-.61.27s-.1.36 0 .58a8.78 8.78 0 0 0 4 4 3.48 3.48 0 0 1-3.78.63c-.77-.23-1.67-.43-1.93-1.33a.4.4 0 0 0-.6-.18.43.43 0 0 0-.21.64 2.66 2.66 0 0 0 1.19 1.17 8.12 8.12 0 0 0 3.76.76c1.32.65.55 2.42-.66 2.72a7.52 7.52 0 0 1-2.39.19c-.57-.16-2.34-.81-2.65-1.4s0-1 0-1.56a9.47 9.47 0 0 1 2.45-6.61zm.77 13.49c-.57-.47-.55-.8.16-1 1.62-.44 3.21-.94 4.79-1.48.55-.19.76 0 .52.49a4.35 4.35 0 0 1-2.89 2.6c-.11 0-.2.13-.42 0a4.508 4.508 0 0 1-2.16-.61zm9.06 2a2.83 2.83 0 0 1-2.91 1.68 10 10 0 0 1-4.22-1.68.38.38 0 0 1-.12-.28c0-.19.17-.19.32-.19 2.07 0 3-1.44 4-2.7.19-.23.08-.66.55-.73a1.67 1.67 0 0 1 1.24.39 2.89 2.89 0 0 1 1.15 3.53zm3.94-1.06c-.8.59-1.58 1.22-2.45 1.75-.29.18-.71.36-.86.24s-.08-.6.07-.86a2.49 2.49 0 0 0 .11-2.61 4.65 4.65 0 0 0-1.61-1.71c-.51-.34-1.16-.49-.29-1.26a6.25 6.25 0 0 1 1.66-.85c1.81.28 3.38.69 4.38 2.07.08.11.24.3.21.33-.77.8-.06 2.05-1.22 2.9zm2.35-4.34c-.21.47-.37.7-.9.22a8.32 8.32 0 0 0-4.22-1.98 2.78 2.78 0 0 0-1 0c-.29.05-.63.27-.77-.06a.82.82 0 0 1 .15-.92 3.52 3.52 0 0 1 3-1.19 1.92 1.92 0 0 1 1.43.37c.32.36 2.84 2.39 2.33 3.55zm3.2-3.69c-.9-.46-1.67-1.13-2.56-1.54s-1.09-1.26-1.59-1.92c-1.33-1.76-1-3.59-.7-5.47a9.71 9.71 0 0 1 .86-2.6 1.82 1.82 0 0 1 2.33-1 25.47 25.47 0 0 1 3.59 1.2c-.74.72-1.44 1.45-2.2 2.13a7.29 7.29 0 0 0-2.16 4.36 3.78 3.78 0 0 0 0 2.46c.11.23.19.56.61.47s.15-.38.13-.61a7.73 7.73 0 0 1 2.66-6.78c.7-.62 1.29-1.4 2.38-1.06a7.49 7.49 0 0 1 1.82 1.13 9.103 9.103 0 0 1 1 .81c-3.97 1.6-6.19 4.28-6.15 8.41zm1.87 2.67c-.32 0-.27-.22-.34-.39-.92-2.32-1-4.69.55-6.74a7.45 7.45 0 0 1 4-3 2.37 2.37 0 0 0 .72-.3.57.57 0 0 1 .795.125l.004.005c.86 1.31 2.21 2.37 2.47 4a.88.88 0 0 0 .15.27c-.05.38-.38.4-.65.47a14.31 14.31 0 0 0-3.7 1.31 10.35 10.35 0 0 0-3.5 3.87c-.16.21-.17.38-.49.37zm1.36 0a12.44 12.44 0 0 1 1.76-2.52 7.77 7.77 0 0 1 4.21-2c.34-.07.66-.32 1-.17a.9.9 0 0 1 1.09.58c.51 1.27 1.07 2.53 1.6 3.8.32.76.22.87-.72.87a10.86 10.86 0 0 0-7.72 2.82c-.78.72-1.26.64-1.49-.32a3.86 3.86 0 0 1 .29-3.08zm-.27 19.77a14.58 14.58 0 0 1 6.11-1.74 7.06 7.06 0 0 1 4 .79 1.43 1.43 0 0 0 1.37.17.479.479 0 0 0 .18-.66c-.19-.49-.69-.5-1.15-.59-.87-.17-1.71-.42-2.59-.56a13 13 0 0 0-3.68.13 10.63 10.63 0 0 0-3.59 1.17c-.24.12-.65.48-.83.22a.84.84 0 0 1 .27-1 6.72 6.72 0 0 1 2.15-1.29 13.22 13.22 0 0 1 5.25-1.27 7.53 7.53 0 0 1 3.34 1.12 1.21 1.21 0 0 0 .76.18c.47-.06.64-.31.34-.67a1.79 1.79 0 0 0-.62-.47 9.85 9.85 0 0 0-7.69-.36 17.7 17.7 0 0 0-3.13 1.23 13.59 13.59 0 0 1 .57-2.42c.61-2 2.5-2 4-2.38a7.44 7.44 0 0 1 4.66.28c.71.28 1.3 1 2.28.56.22-.1.17.28.19.44.22 1.5.13 3 .32 4.53a11.19 11.19 0 0 1-.2 2.58 1.52 1.52 0 0 1-.27.57.31.31 0 0 1-.25 0c-.53-.69-1.38.22-2-.37-1-1-1.37-.9-2.24.14-.23.27-.47.42-.81.17-.89-.65-1.22-.65-2 .05-.13.12-.31.21-.37.35-.28.63-.58.44-1 .07s-.53-.7-1.1-.62a1.36 1.36 0 0 0-1 .5 1.08 1.08 0 0 1-1.88-.17c-.11-.41.4-.6.62-.7zm31.21 23.76a54.26 54.26 0 0 1-1.72 6.65c0 .07-.09.19-.07.2 1.27.7.41 1.81.6 2.71a11.59 11.59 0 0 1 0 2.32v5.5q0 5.22-.07 10.43c0 1-.09 2.08-.16 3.12a27.67 27.67 0 0 1-.67 4.45 20.78 20.78 0 0 0-.61 3.87c-.05 1.33-.44 2.6-.6 3.91-.23 1.95-.9 3.81-1.16 5.76s.11 3.94-.39 5.86c-.45 1.75-.23 3.53-.55 5.28-.09.52-1.19 1.38-1.76 1.2-1.15-.36-1.59.14-1.86 1.11-.42-.47.08-1.09-.62-1.24-.86-.19-.59.58-.87.88a10.43 10.43 0 0 0-.71.92.82.82 0 0 1-.4-.79 7 7 0 0 0-1.2-3.66c-.54-1-1-1.1-2.17-.83a53.923 53.923 0 0 0-6.57 2.08c.15-.76.85-1.13 1.14-1.7a4 4 0 0 1 .85-.94c.23-.23.39-.46.07-.69a.59.59 0 0 0-.81.05 19.94 19.94 0 0 0-1.41 1.62 13.62 13.62 0 0 1-1.87 2 15.27 15.27 0 0 1-2.67 2.89c-2.12 1.84-4.3 4.11-6.63 5.56-2 1.23-14.22 8.86-15.38 5-.25-.84 1.22-3.2 1.52-4.09.45-1.35 1-2.66 1.55-4 1.14-2.68 1.49-5.59 2.68-8.24.63-1.4.66-3.08 1.33-4.45l.43-.64c.88-1.72 1.62-1.9 2.24-1.34a2.67 2.67 0 0 0 1-1.09c.84-1.68 1.81-3.35 1.21-5.29-.15-.5-.35-1.12-.87-1.27-1.32-.37-1.22-1.41-1.45-2.26a3.69 3.69 0 0 1-.22-1.6c0-.14.07-.34-.19-.39a.43.43 0 0 0-.46.19c-.19.28-.39.61-.23.91s.09.69.24 1a1.17 1.17 0 0 1 0 1.09h-.42c-.47-.2-.5-.61-.56-1a58.35 58.35 0 0 1-.83-5.81 47.722 47.722 0 0 1-.42-4.77 36.44 36.44 0 0 0-.24-4.94 15.12 15.12 0 0 1-.09-2.8 45.821 45.821 0 0 0-.32-5.92 34.71 34.71 0 0 1 .59-4.64c.2-2 .82-3.84.93-5.81a38.81 38.81 0 0 1 .82-6.14c.29-1.34.66-2.65 1-4 .5-1.72.93-3.45 1.49-5.15.92-2.74 1.6-5.55 3.14-8.2.49.78-.06 1.46 0 2.14a17.518 17.518 0 0 1 0 1.88.44.44 0 1 0 .87 0 34.62 34.62 0 0 1 .23-4.1 1.06 1.06 0 0 0-.39-1.07c-.45-.36 0-1 .14-1.52a5.36 5.36 0 0 1 1-1.5c.39-.51.79-.47 1.13.06s.23 1.15 1 1 .54-.77.66-1.26a1 1 0 0 1 .84-.82c.42-.07.56.29.82.51s.42 1.07 1.1.92.7-.7.9-1.16c.38-.88.59-.9 1.25-.19a1 1 0 0 1 .17.19c.17.33.41.69.81.67s.68-.51.8-.87.11-.75.61-.77.42.41.55.67c.32.64.77.73 1.35.24.32-.27.68-.29.79.08.2.67.69 1.34.24 2.09-.34.55-.25 1.25-.81 1.75-.34.31.06 1.11.55 1.12a3 3 0 0 1 1.66.73 13.47 13.47 0 0 0 3.87 2 3.32 3.32 0 0 1 1.32.66 3.36 3.36 0 0 0 3.46.43c1.36-.39 2.78-.75 3.69-2a10.29 10.29 0 0 1 2.05-1.7c.36-.28 1.66.16 1.74.58a35.151 35.151 0 0 1 1 3.54 2.6 2.6 0 0 1-.15 1.61 1.09 1.09 0 0 0-.18.53 14.26 14.26 0 0 0 .67 4.28 11.29 11.29 0 0 1 .67 6.39z"/><path d="M51.43 20.4a1.67 1.67 0 0 0-.91-.93c-.45-.16-.55.27-.82.39-1.5.63-3 1.46-4.8.52-.13-.07-.29-.15-.38 0a.38.38 0 0 0 0 .3c.73 1.49.89 2.65 2 3.45 1.35.72 3.62.58 4.36-.13a2.89 2.89 0 0 0 .55-3.6z" class="cls-4"/><path d="M73.99 124.53c-1.52 1.88-3.67 3.19-5.42 4.88a18.7 18.7 0 0 1-4.42 2.7c-1.24.64-2.3 1.52-3.59 2.1-2 .92-3.8 2.26-6 2.82-.48.12-1.18.41-1.47-.46-.13-.39-.76-.5-1.27-.5-.27 0-.48 0-.34-.33 1.14-2.56 2.06-5.2 3.19-7.77.64-1.45.95-3 1.47-4.51s1.11-3.26 1.53-4.91c.32-1.26 1-2.38 1.26-3.65a.93.93 0 0 1 .7-.69 3.22 3.22 0 0 0 .94-.41c-.62-.56-1.36-.38-2.24 1.34l-.43.64c-.67 1.37-.7 3-1.33 4.45-1.2 2.65-1.55 5.56-2.68 8.24-.57 1.35-1.1 2.67-1.55 4-.3.89-1.77 3.25-1.52 4.09 1.16 3.86 13.42-3.77 15.38-5 2.32-1.45 4.5-3.72 6.63-5.56a15.27 15.27 0 0 0 2.67-2.89c-.32.29-.65.57-1 .83a3.1 3.1 0 0 0-.51.59zm-24.65 3.76a11.85 11.85 0 0 0-3.17-1.41c-.27.07-.53-.08-.61.2s.23.35.42.43a8.88 8.88 0 0 1 2.71 1.46c.32.32 1.06.46 1.31.15.34-.45-.37-.62-.66-.83zm-2.36-2.99c-.3.43.09.75.44.9a15.77 15.77 0 0 1 2.13 1 .71.71 0 0 0 .31.06c.42 0 .69 0 .75-.34s-.27-.48-.54-.55a6 6 0 0 1-2.15-.93c-.22-.17-.58-.68-.94-.14zm4.17.85c.27.19.59.27.76-.1 0-.1 0-.17-.05-.2a16.46 16.46 0 0 0-2.84-2.19.39.39 0 0 0-.47.14.33.33 0 0 0 0 .51c.17.14.39.24.57.37.69.49 1.34 1 2.03 1.47zm12.74 10.35a3.27 3.27 0 0 1-1.07-.57 2.74 2.74 0 0 0-1.25-.6c-.19 0-.46-.1-.55.16a.48.48 0 0 0 .238.635l.011.005a7 7 0 0 1 2.14 1.25c.17.17.68.25.83-.1s.16-.68-.35-.78zm-.38-1.9c-.4-.21-.46.17-.5.39 0 .47 1.41 1.4 1.9 1.34s.34-.27.21-.47a4 4 0 0 0-1.61-1.26zm13.21-29.13a4.85 4.85 0 0 0-2.24 4.36 7.61 7.61 0 0 0 .56 3 1.45 1.45 0 0 0 1.51 1.18 3.1 3.1 0 0 0 2.12-.39 6.44 6.44 0 0 0 2.39-6.8 2.91 2.91 0 0 0-4.34-1.35z"/><path d="M70.79 118.81c-1.23.32-1.44 1.26-1.69 2.2-.11.43-.35.85.2 1.15s1-.13 1.33-.39a3.78 3.78 0 0 0 1.6-1.92 1.13 1.13 0 0 0-1.44-1.04zM77.8 56.4c-.07-.3-.35-.35-.65-.31s-.27.34-.23.52a7.136 7.136 0 0 1 .32.91c.11.8.94 1.64-.11 2.41a.405.405 0 0 0 0 .46 5.34 5.34 0 0 1 .54 3.64c0 .06-.19.34.21.41s.49-.15.6-.37a2.56 2.56 0 0 0 .07-.48c.33-1.35-.63-2.62-.1-4.08.29-.88-.4-2.06-.65-3.11zm-4.89 39.71c-.37-.11-.55.35-.69.63a1.55 1.55 0 0 0-.08.64 1.37 1.37 0 0 1-.39 1 3.09 3.09 0 0 0-.73 1.17c-.63 1.37-.76 2.91-1.73 4.16-.22.28 0 .37.28.51a2.4 2.4 0 0 0 .73-.76c.68-1.24.92-2.65 1.68-3.83a4.44 4.44 0 0 0 .92-2.67.12.12 0 0 1 0-.07c.27-.27.44-.66.01-.78zm-13.17 20.85a3.22 3.22 0 0 0-1.23 2.23q0 1.49 1.45.82c.66-.31 1.07-2.55.55-3.06a.51.51 0 0 0-.77.01zm1.5-17.74a8 8 0 0 1-.23-1.77c.09-.92-.47-1.72-.43-2.63a.55.55 0 0 0-.67-.6.53.53 0 0 0-.362.657l.001.003c.38 1.61.8 3.21 1.13 4.82.06.29.21.5.41.47s0-.3.06-.47a2.628 2.628 0 0 0 .09-.48zm8.43-25.02c.42.17.38-.24.45-.43.61-1.68.41-3.46.88-5.24a.391.391 0 0 0-.27-.31.354.354 0 0 0-.42.21 2.12 2.12 0 0 0-.39.88c0 1.11-.33 2.2-.23 3.31a1 1 0 0 1-.19.93.42.42 0 0 0 .17.65zM59.58 85.19c0-.48.2-.93.21-1.43 0-1.31-.65-2.58-.2-3.91.08-.23-.15-.39-.44-.42s-.48 0-.46.33a.68.68 0 0 1-.16.57c.33.74.06 1.56.31 2.34a7.08 7.08 0 0 1 .19 2.49c0 .18 0 .38.23.4s.32-.17.32-.37zm-.68-9.52c0 .34.2.49.57.48s.36-.32.33-.53c-.16-1 .13-2 0-2.95a2.6 2.6 0 0 1 .31-1.32c.1-.23.47-.52.14-.71s-.63.19-.86.41a.81.81 0 0 0-.31.65c.11.92-.35 1.81-.2 2.62.02.54.02.95.02 1.35zm14.38-15.01c0 .25-.06.55.22.6a.55.55 0 0 0 .63-.55v-1.26c.28-1-.44-2.06-.38-3.21a.48.48 0 0 0-.65-.49c-.43.12-.28.48-.2.69.55 1.38.23 2.81.38 4.22zM63.22 86.01a.42.42 0 0 0-.5-.32q-.021.004-.04.01a.32.32 0 0 0-.31.42c.33 1.52.28 3.08.66 4.59.07.29.09.56.5.54s.15-.43.38-.56a12.64 12.64 0 0 1-.58-3.8 5.58 5.58 0 0 0-.11-.88zm3.83-20.15c.28 0 .39-.15.49-.38a3.23 3.23 0 0 0 .17-1.26 26.701 26.701 0 0 1 .11-3c0-.39.12-.63-.38-.7s-.44.32-.44.59c0 1.43-.24 2.86-.14 4.3 0 .12-.2.42.19.45zm4.65 14.29c-.51 0-.58.27-.58.64v3.6h.11c0 .08.07.17 0 .23-.11.29-.05.68.22.71s.3-.37.37-.61a18.15 18.15 0 0 0 .17-4c.05-.18.24-.55-.29-.57zm-5.13 2.61a.42.42 0 0 0-.56.38c-.07.61.12 1.25-.13 1.7.1 1.17.2 2.2.28 3.23 0 .24 0 .42.39.41s.37-.23.33-.45a13.9 13.9 0 0 1 0-4.76.4.4 0 0 0-.31-.51zm11.08 18.29a.53.53 0 0 0 .663-.348l.006-.022c.05-.27.26-.41.41-.61a5.16 5.16 0 0 0 1-3.19c-.1-.41.21-.85-.38-.78-.38 0-.44.38-.44.69a4.81 4.81 0 0 1-.3 1.82 8.74 8.74 0 0 1-1 1.76c-.17.24-.34.54.04.68zM63.9 58.34c-.08.17-.3.3-.33.47-.23 1.07-.42 2.14-.63 3.26.2.17-.2.59.26.64s.43-.35.51-.62l.93-3.39c.05-.19.25-.43-.13-.51-.17-.05-.47-.14-.61.15zm18.2 5.03c-.45.06-.28.53-.3.84a2.56 2.56 0 0 0 .07.56 7.22 7.22 0 0 1 .25 2.37.31.31 0 0 0 0 .39c.1.16-.47.46.12.53.35 0 .58-.07.64-.42 0-.15.18-.32.14-.45-.31-1 .11-2.12-.47-3.11-.14-.25.1-.78-.45-.71zM71.64 90.5a.42.42 0 0 0-.52.22 2.92 2.92 0 0 0-.18.58c-.2 1.2.16 2.42-.24 3.61-.07.2-.06.52.22.55a.47.47 0 0 0 .489-.45v-.02a27.669 27.669 0 0 0 .39-3.23v-.87c0-.27.08-.32-.16-.39zm1.39-1.62c-.27 0-.32.29-.3.52.06 1.06.13 2.12.18 3v1.45c0 .15 0 .27.25.26s.23 0 .27-.16a2.07 2.07 0 0 0 .18-.53 19.8 19.8 0 0 0-.18-4.05c-.02-.21-.09-.53-.4-.49zM62.89 73.81c-.39-1.22.16-2.39.18-3.58 0-.26.21-.6-.09-.73s-.43.34-.69.49c-.07 0-.07.2-.07.3a15.87 15.87 0 0 1-.2 3v.73c0 .16-.13.6.39.55a.51.51 0 0 0 .48-.76zm17.87-19.94c-.05.67.23 1.32.19 2 0 .27.14.75.57.67s.46-.41.39-.84a8.49 8.49 0 0 1-.26-1.94 2.63 2.63 0 0 0-.31-1.2c-.1-.22-.21-.4-.5-.39s-.19.33-.28.55a4.45 4.45 0 0 1 .2 1.15zM59.93 92.35a.38.38 0 0 0 .27-.18 1.53 1.53 0 0 0 .21-.68c-.08-1-.2-2.08-.3-3.11 0-.32 0-.73-.49-.72s-.4.45-.44 1a30.6 30.6 0 0 1 .55 3.42c.03.1-.02.28.2.27zm8.71-40.03c.2-.92.32-1.85.47-2.77-.16-.29.21-.78-.27-.84s-.7.33-.68.77a.43.43 0 0 1 0 .16c-.28.81-.06 1.68-.36 2.49-.09.25-.28.63.15.76s.63-.3.69-.57zm-5.09 27.1c.39 0 .39-.44.42-.68.18-1.2.28-2.42.45-3.62 0-.2 0-.31-.16-.37a.4.4 0 0 0-.48.11 1.02 1.02 0 0 0-.31.65c.09.84-.35 1.64-.2 2.37a4.81 4.81 0 0 0 0 .85c.07.24-.24.68.28.69zm23.3 14.6a.54.54 0 0 0-.42.06 1.39 1.39 0 0 0-.57 1.13 5.32 5.32 0 0 1-1.15 3.45c.72.16 1.16 0 1.3-.55.35-1.23.64-2.48.94-3.73.03-.13.06-.31-.1-.36zm.49-27.38c-.34 0-.39.36-.43.62a1.51 1.51 0 0 0 .15.62c.31 1.05.91 2 .77 3.19 0 .36-.26 1 .29 1 .39 0 .31-.68.42-1-.05-1.39-.72-2.61-.91-3.92-.02-.18.18-.56-.29-.51zm-11.2.9a.45.45 0 0 0 .47.42c.28 0 .25-.33.26-.55a20.119 20.119 0 0 0-.86-3.5c-.06-.17 0-.5-.37-.45s-.43.26-.42.53 0 .33 0 .49c.12 1.06.98 1.95.92 3.06zm-.6 8.41c0 .28-.11.72.33.72s.6-.45.56-.79a11.36 11.36 0 0 0-.2-1.68c-.14-.53 0-1.09-.29-1.58-.08-.13-.05-.33-.31-.32a.41.41 0 0 0-.43.35 3.797 3.797 0 0 0 0 .49c.06.94.35 1.86.34 2.81zm6.11 12.45c-.11 0-.26 0-.3.12s-.5.38-.19.72c-.44 1.27 0 2.62-.38 3.91 0 .12-.28.37 0 .46s.4-.12.5-.35c.64-1.48.24-3.06.56-4.57a.21.21 0 0 0-.19-.29zm3.36-21.46c-.41 0-.29.29-.28.47a8.365 8.365 0 0 1 0 3.38c0 .34.12.78.52.83s.4-.39.42-.66a15.27 15.27 0 0 0-.19-3.68.4.4 0 0 0-.45-.343zM67.77 80.61a8.2 8.2 0 0 1 .08-3.31c0-.22.24-.42-.06-.55s-.44.13-.57.27a1.7 1.7 0 0 0-.31.9 17.002 17.002 0 0 0 0 2.72c0 .3-.14.77.39.75s.52-.56.47-.78zm9.17-29.15c0 .15-.12.4.15.49s.43-.16.49-.34a6.9 6.9 0 0 0 .45-2.43 1.72 1.72 0 0 0-.37-1.32c-.11-.18-.25-.45-.49-.38a.45.45 0 0 0-.294.565l.013.035a5.89 5.89 0 0 1 .05 3.38zm-2.6 25.3a4.27 4.27 0 0 0-.12-3.37c-.07-.22-.35-.57-.64-.47s-.29.54-.16.79a3.45 3.45 0 0 1 .28 1.92 2.18 2.18 0 0 1-.07.95c-.11.22-.24.51.08.62s.49-.22.63-.44zm6.56-.19c.34 0 .42-.19.49-.46a5.69 5.69 0 0 0 .14-2v-1.52a.51.51 0 0 0-.34-.57c-.45-.12-.38.3-.42.46-.29 1.19.13 2.4 0 3.61 0 .07-.27.44.13.48zm1.34 8.09a10.2 10.2 0 0 0 1.14-4 1.27 1.27 0 0 0 0-.24c0-.17.12-.44-.15-.49s-.31.23-.42.42-.1.69-.25 1c-.44.94-.31 2-.81 2.93a.39.39 0 0 0 .19.57c.16.08.24-.09.3-.19zm-16.9 11.02c.15-.6-.08-.79-.56-.81s-.38.3-.34.51c.16.95.36 1.89.51 2.84.05.33.11.68.54.55s.38-.41.31-.8a15.998 15.998 0 0 0-.46-2.29zm18.37-18.79c.17.06.28-.08.37-.17a2.59 2.59 0 0 0 .79-2.15 4.22 4.22 0 0 0-.17-1.66c-.1-.23-.2-.41-.49-.38s-.24.33-.24.51c0 1.18.23 2.38-.36 3.52a.23.23 0 0 0 .074.317zm-6.44 13.08a.32.32 0 0 0 .39-.35c-.1-.58.3-1.14.12-1.68.28-.71-.26-1.35-.1-2 .07-.29 0-.69-.44-.64s-.5.38-.42.74a20.55 20.55 0 0 1 .27 3.53c0 .19-.1.37.18.4zm.83-10.3c.23 0 .29-.1.39-.25a3.87 3.87 0 0 0 .34-2.14c-.12-.48.17-1.08-.15-1.66-.1-.17 0-.49-.35-.43a.5.5 0 0 0-.41.48v.49c-.07 1 .44 2.08 0 3.13a.25.25 0 0 0 .18.38zM60.22 66.98c.47 0 .37-.29.35-.51a7.33 7.33 0 0 1 .51-3.29c.09-.21 0-.32-.18-.4a.39.39 0 0 0-.5 0 2.27 2.27 0 0 0-.36.64 10 10 0 0 0-.21 3c-.17.51.1.55.39.56zm26.54-6.01a.42.42 0 0 0 .38.55c.39.06.45-.27.49-.46a7.002 7.002 0 0 0 0-1.19c.18-.62-.15-1.27-.16-1.94 0-.24.07-.51-.38-.49a.46.46 0 0 0-.49.55 9.32 9.32 0 0 1 .16 2.98zm-3.05 33.84a.44.44 0 0 0-.42.09 1.24 1.24 0 0 0-.36.54c-.4 1-.24 2.18-.88 3.16-.1.15-.11.46.3.44s.35-.25.47-.44c.66-1.07.58-2.33 1-3.45a.23.23 0 0 0-.11-.34zM73.46 52.44c.52 0 .53-.43.54-.78v-2.44c0-.21.14-.51-.32-.53a.5.5 0 0 0-.56.51 12.001 12.001 0 0 0 0 1.46 6.35 6.35 0 0 0 0 1.06c.02.26-.32.75.34.72zm.34 13.23a3.83 3.83 0 0 0-.07.68 24.807 24.807 0 0 0 .72 3c0 .22.09.38.38.32s.22-.19.23-.41c.07-1.23-.58-2.35-.58-3.57a.23.23 0 0 0-.26-.26.4.4 0 0 0-.42.24zm11.54 22.85c0-.14.08-.34-.14-.42s-.37.07-.47.25a3.33 3.33 0 0 0-.33.91 8.25 8.25 0 0 1-.41 2.36c-.09.17-.44.25-.22.53a.58.58 0 0 0 .48.17c.38 0 .45-.29.49-.48.24-1.08.42-2.2.6-3.32zm-3.72-26.76c.09.22.16.47.45.4s.35-.31.22-.6a10.78 10.78 0 0 1-1-3.14c0-.3-.34-.35-.64-.32s-.27.29-.34.39a4.43 4.43 0 0 0 .15.53c.36.89.78 1.79 1.16 2.74zM69.93 89.04a11.46 11.46 0 0 0-.29-3.93.39.39 0 0 0-.48-.38c-.34.05-.35.27-.29.54.14.6.11 1.25.27 1.82s-.19 1.45.79 1.95zm-.67-31.54a9.48 9.48 0 0 1-.11 1.46c-.08.35-.28.81.13.92s.51-.45.66-.76c.07-.14 0-.33 0-.48.21-.79-.15-1.59.07-2.37.06-.21.23-.41-.09-.52a.46.46 0 0 0-.64.38 9.75 9.75 0 0 0-.02 1.37zm-5.92 24.1c-.06-.21 0-.52-.39-.49s-.44.31-.42.63a9.53 9.53 0 0 0 .63 2.46c.1.24 0 .72.51.63s.35-.54.29-.83c-.17-.82-.41-1.61-.62-2.4zm23-.91a.438.438 0 0 0 .48-.38 24.907 24.907 0 0 1 .6-2.83c-.13-.27.18-.63-.32-.7s-.52.27-.62.54c-.37.94-.05 1.93-.29 2.88-.03.21-.19.43.15.49zM70.41 51.58a.56.56 0 0 0 .64.2.29.29 0 0 0 .19-.46 5.68 5.68 0 0 1-.34-2.71.41.41 0 0 0-.36-.41c-.35-.08-.39.21-.48.38a1.66 1.66 0 0 0-.09.57 10.82 10.82 0 0 1 .21 1.92c-.01.16.16.34.23.51zm19.37 28.76a19.09 19.09 0 0 1 .38-4.29 1.38 1.38 0 0 0-.94 1.33c0 1-.11 2-.18 3 0 .21 0 .44.27.44a.42.42 0 0 0 .47-.48zM68.26 99.15c-.23 0-.29.12-.39.25a1.23 1.23 0 0 0-.32.64 18.241 18.241 0 0 1-.42 2.44c-.08.3-.1.48.22.56a.42.42 0 0 0 .57-.37l.57-3.12c-.1-.08.12-.34-.23-.4zm6.63.19a.88.88 0 0 0 .52-.47c.27-.81.54-1.62.74-2.45.07-.28.18-.76-.32-.8s-.5.33-.6.68c-.24.89 0 1.88-.75 2.68-.21.25.1.33.41.36zm-9-31.26a9 9 0 0 1-.22 2.51c0 .4-.07.75.32.8s.35-.34.48-.56a1 1 0 0 0 .12-.46 7.65 7.65 0 0 1 .18-2.32.38.38 0 0 0-.39-.52c-.4-.02-.47.3-.49.55zm21.67 18.35c0-.22.32-.58-.21-.62s-.55.3-.6.63a5.68 5.68 0 0 1-.43 2.4c-.13.21-.18.56.44.55a.7.7 0 0 0 .59-.79 15.349 15.349 0 0 0 .21-2.17zM62.92 56.05a1 1 0 0 0 .59-.46c.31-.82.57-1.66.82-2.38-.07-.3.07-.54-.21-.61a.45.45 0 0 0-.55.31c0 .07-.09.14-.13.21-.46.85-.25 1.88-.94 2.67-.16.14.06.4.42.26zM63 67.96c.61 0 .53-.43.49-.76a8.11 8.11 0 0 1 .25-1.91c0-.21.35-.46-.1-.57a.54.54 0 0 0-.685.34l-.006.02a4.39 4.39 0 0 0-.36 1.68v.39c.02.35-.11.78.41.81zm12.51 18.01c-.43 0-.46.59-.53.91-.16.73.09 1.52-.3 2.23-.17.3-.18.57.16.67s.56-.33.56-.5c0-.82.5-1.55.46-2.45-.14-.24.25-.83-.35-.86zm-.67-1.92c.31-.06.33-.37.28-.62a11.75 11.75 0 0 1-.4-2.54.48.48 0 0 0-.28-.36c-.2-.07-.31.12-.39.27a.83.83 0 0 0-.17.67c.12.64.21 1.36.4 2.06.06.23.16.61.56.52zM70.28 67.3c.53 0 .54-.53.55-1a4.45 4.45 0 0 1 .13-1.6.6.6 0 0 0-.45-.81c-.56-.11-.6.53-.54.63.35.64-.13 1.21-.06 1.89.09.29-.24.88.37.89zm.18 11.27c.46 0 .6-.48.56-.79a3.82 3.82 0 0 1 .11-1.82.41.41 0 0 0-.28-.54c-.3-.11-.39.12-.53.3a2.32 2.32 0 0 0-.27 1.49 4.209 4.209 0 0 1 0 .57c-.06.36.05.78.41.79zm-2.62 11.6c-.32-.09-.41.22-.44.48a7 7 0 0 0-.17 1.62v.9c0 .3.28.32.51.3s.46-.14.38-.43a5.33 5.33 0 0 1 .11-2.19.52.52 0 0 0-.39-.68zm8.78 1.84a.54.54 0 0 0-.59.486v.014a8.84 8.84 0 0 0 0 1.14v.9c0 .3-.14.52.32.53s.57-.19.59-.55a10.06 10.06 0 0 1 .08-1.94.48.48 0 0 0-.364-.573zm2.26-11.17a.48.48 0 0 0-.59.47 11.898 11.898 0 0 0 0 1.47v1.23c0 .41 0 .59.45.58s.27-.36.28-.56v-2.64c-.04-.19.43-.45-.14-.55zm11.3 4.18a.33.33 0 0 0-.41.33 19.71 19.71 0 0 1-.57 3c0 .19 0 .42.22.48a.41.41 0 0 0 .45-.31c0-1 .63-1.78.63-2.54-.03-.48.09-.83-.32-.96zm-25.66 5.92c-.15.5.13.92.2 1.36a.401.401 0 0 0 .52.42c.38-.11.44-.35.25-.64a1.62 1.62 0 0 1-.15-1.13c0-.45.32-.84.27-1.28 0-.13 0-.29-.15-.34s-.33-.05-.38.11c-.15.52-.88.87-.56 1.5zm4.16 3.91c0-.21.17-.53-.23-.6s-.48.28-.6.51a1.8 1.8 0 0 0-.1.6c.07.49.14.94.19 1.39 0 .28-.09.74.35.7a.7.7 0 0 0 .5-.82 9.47 9.47 0 0 1-.11-1.78zm16.36-11.86a5.68 5.68 0 0 1-.27 2c.32.24 0 .88.51.87s.45-.53.45-.91v-1.87c0-.21.34-.46-.08-.58s-.56.26-.61.49zM65 100.87c0-.25 0-.55-.35-.55a.56.56 0 0 0-.56.54v.81a3.43 3.43 0 0 0 0 .89.67.67 0 0 0 .81.49c.46-.08.31-.48.22-.66a3.81 3.81 0 0 1-.12-1.52zm6.34-55.11c.46 0 .26-.35.29-.56.07-.61-.58-1-.55-1.64 0-.24-.08-.58-.47-.56s-.42.37-.43.67c0 .59.54 1.06.55 1.66.02.31.28.43.61.43zm7 24.48a13.66 13.66 0 0 0 .17 2.86.296.296 0 0 0 .26.3c.13 0 .26-.17.29-.35a3.37 3.37 0 0 0 .07-1.4 8.063 8.063 0 0 0-.07-1.4.35.35 0 0 0-.4-.35.36.36 0 0 0-.32.34zm-7-9.26a.7.7 0 0 0 0 .52 6.84 6.84 0 0 0 .38 2 .41.41 0 0 0 .49.28.21.21 0 0 0 .2-.29 14.36 14.36 0 0 1-.33-2.48c0-.24-.12-.33-.38-.33s-.26.08-.36.3zM67.16 75.5c.71-.08.12-.72.35-1-.09-.47.08-.93-.17-1.37-.1-.17-.09-.37-.39-.32a.4.4 0 0 0-.37.4 4.126 4.126 0 0 0 0 1.36c.15.36-.16 1.01.58.93zm2.3-28.84c-.28-.86-1.09-1.41-.95-2.31.06-.42-.31-.28-.55-.16-.66.35-.24.88-.1 1.22.25.59.48 1.4 1.6 1.25zm15.88 12.73c0-.18-.06-.32-.3-.31s-.39 0-.41.21a6.12 6.12 0 0 0 .7 3.19 9.71 9.71 0 0 0 .01-3.09zm2.82 31.57c-.55 0-.43.46-.45.79a3 3 0 0 1-.48 2.19 1 1 0 0 0 .93-.44 2.68 2.68 0 0 0 .28-1.74c0-.27.19-.76-.28-.8zM66.22 55.24a.68.68 0 0 0-.39-.29c-.11 0-.23.14-.25.29-.13.79-.27 1.57-.42 2.48a2.13 2.13 0 0 0 1.06-2.48zm10.19-11.71c0-.21.16-.52-.3-.56s-.57.29-.59.56v2a1.66 1.66 0 0 0 .89-2zm3.19 26.13a.33.33 0 0 0 .41.33.4.4 0 0 0 .33-.53q-.18-.78-.34-1.55c-.06-.28-.07-.67-.48-.64s-.31.41-.24.76c-.25.54.31 1.04.32 1.63zm-4.34-14.62c0 .33 0 .71.49.68s.42-.38.42-.67v-.32c0-.44.06-1-.51-1.05s-.28.62-.41.9.01.33.01.46zm-4.05-2.08c-.6 0-.21.51-.32.77a.63.63 0 0 0 0 .24v.65c0 .22 0 .66.49.59s.44-.39.42-.7-.17-.5-.19-.77.3-.81-.4-.78z"/><path d="M38.76 20.1h14.58a3.18 3.18 0 0 0 1-2.2 2.48 2.48 0 0 0-1-1.8H39.17" class="cls-2"/><path d="M2.185 151.774H5.27v12.109h7.371v2.654H2.185zm16.624 8.123a4.533 4.533 0 0 0 1.14-.25.86.86 0 0 0 .615-.812.96.96 0 0 0-.472-.927 2.991 2.991 0 0 0-1.386-.255 1.822 1.822 0 0 0-1.452.5 2.068 2.068 0 0 0-.406 1.002h-2.754a4.178 4.178 0 0 1 .804-2.353q1.137-1.443 3.904-1.442a6.965 6.965 0 0 1 3.198.71 2.729 2.729 0 0 1 1.399 2.685v5.008q0 .521.02 1.262a1.593 1.593 0 0 0 .17.761 1.024 1.024 0 0 0 .42.33v.421h-3.104a3.171 3.171 0 0 1-.18-.62q-.051-.29-.08-.662a5.907 5.907 0 0 1-1.37 1.092 4.147 4.147 0 0 1-2.096.531 3.616 3.616 0 0 1-2.464-.847 3.01 3.01 0 0 1-.972-2.398 3.108 3.108 0 0 1 1.564-2.915 6.992 6.992 0 0 1 2.523-.701zm1.745 1.332a3.211 3.211 0 0 1-.554.275 4.596 4.596 0 0 1-.766.195l-.65.12a4.288 4.288 0 0 0-1.312.391 1.305 1.305 0 0 0-.674 1.212 1.267 1.267 0 0 0 .412 1.057 1.561 1.561 0 0 0 1.002.326 2.985 2.985 0 0 0 1.723-.541 2.292 2.292 0 0 0 .82-1.974zm14.661-4.297a6.277 6.277 0 0 1 1.224 4.007 7.02 7.02 0 0 1-1.208 4.216 3.923 3.923 0 0 1-3.372 1.672 3.932 3.932 0 0 1-2.185-.54 4.357 4.357 0 0 1-1.067-1.122v1.372h-2.815v-14.743h2.855v5.248a4.18 4.18 0 0 1 1.2-1.162 3.58 3.58 0 0 1 1.975-.501 4.081 4.081 0 0 1 3.393 1.553zm-2.386 6.65a4.043 4.043 0 0 0 .616-2.344 5.24 5.24 0 0 0-.303-1.922 2.11 2.11 0 0 0-2.121-1.443 2.141 2.141 0 0 0-2.15 1.412 5.258 5.258 0 0 0-.304 1.944 4.043 4.043 0 0 0 .626 2.324 2.148 2.148 0 0 0 1.909.92 1.98 1.98 0 0 0 1.727-.89zm12.708-7.742a4.44 4.44 0 0 1 1.886 1.616 5.361 5.361 0 0 1 .87 2.257 13.902 13.902 0 0 1 .094 2.167h-7.951a2.621 2.621 0 0 0 1.141 2.304 2.904 2.904 0 0 0 1.574.41 2.217 2.217 0 0 0 2.173-1.252h2.914a3.566 3.566 0 0 1-1.058 1.974 5.304 5.304 0 0 1-4.107 1.591 5.951 5.951 0 0 1-3.846-1.342 5.292 5.292 0 0 1-1.666-4.372 5.914 5.914 0 0 1 1.504-4.35 5.265 5.265 0 0 1 3.904-1.514 6.219 6.219 0 0 1 2.568.512zm-4.27 2.467a2.968 2.968 0 0 0-.761 1.69h4.918a2.385 2.385 0 0 0-.76-1.725 2.5 2.5 0 0 0-1.694-.59 2.263 2.263 0 0 0-1.704.625zm11.478 8.23h-2.854v-14.763h2.854zm10.938-4.557a2.999 2.999 0 0 0 .562 1.512 3.278 3.278 0 0 0 2.629.911 5.67 5.67 0 0 0 1.81-.24 1.718 1.718 0 0 0 1.319-1.713 1.261 1.261 0 0 0-.647-1.132 7.008 7.008 0 0 0-2.048-.69l-1.6-.35a9.967 9.967 0 0 1-3.237-1.132 3.6 3.6 0 0 1-1.492-3.196 4.242 4.242 0 0 1 1.46-3.295 6.222 6.222 0 0 1 4.289-1.312 6.58 6.58 0 0 1 4.03 1.237 4.4 4.4 0 0 1 1.749 3.591h-2.965a2.112 2.112 0 0 0-1.191-1.894 4.077 4.077 0 0 0-1.838-.37 3.502 3.502 0 0 0-1.951.48 1.52 1.52 0 0 0-.729 1.343 1.268 1.268 0 0 0 .719 1.182 9.006 9.006 0 0 0 1.96.61l2.592.612a6.584 6.584 0 0 1 2.553 1.071 3.612 3.612 0 0 1 1.32 3.015 4.237 4.237 0 0 1-1.564 3.361 6.604 6.604 0 0 1-4.418 1.337 7.225 7.225 0 0 1-4.586-1.317 4.358 4.358 0 0 1-1.67-3.621zm10.107-4.227v-2.033h1.522v-3.045h2.825v3.045h1.772v2.033h-1.772v5.77a1.3 1.3 0 0 0 .17.836 1.874 1.874 0 0 0 1.042.165 6.85 6.85 0 0 0 .56-.02v2.134l-1.352.05a3.628 3.628 0 0 1-2.764-.702 2.084 2.084 0 0 1-.481-1.512v-6.721zm10.797-2.133v6.58a3.472 3.472 0 0 0 .219 1.403 1.518 1.518 0 0 0 1.525.83 1.992 1.992 0 0 0 1.993-1.18 4.305 4.305 0 0 0 .28-1.693v-5.94h2.894v10.917h-2.774v-1.542a5.043 5.043 0 0 0-.2.3 1.981 1.981 0 0 1-.38.44 3.969 3.969 0 0 1-1.293.823 4.404 4.404 0 0 1-1.463.22 3.26 3.26 0 0 1-3.256-1.743 6.68 6.68 0 0 1-.47-2.835v-6.58zm15.473.175a3.454 3.454 0 0 1 1.253 1.207v-5.208h2.894v14.743h-2.774v-1.513a4.013 4.013 0 0 1-1.392 1.413 3.91 3.91 0 0 1-1.943.441 4.054 4.054 0 0 1-3.22-1.548 5.939 5.939 0 0 1-1.308-3.972 6.832 6.832 0 0 1 1.287-4.396 4.188 4.188 0 0 1 3.44-1.603 3.524 3.524 0 0 1 1.764.436zm.702 7.777a3.98 3.98 0 0 0 .63-2.334 3.58 3.58 0 0 0-1.01-2.864 2.183 2.183 0 0 0-1.443-.52 2.005 2.005 0 0 0-1.837.946 5.104 5.104 0 0 0 .01 4.767 2.016 2.016 0 0 0 1.807.907 2.109 2.109 0 0 0 1.843-.902zm8.974-9.255h-2.894v-2.633h2.894zm-2.894 1.303h2.894v10.917h-2.894zm14.763 9.581a6.015 6.015 0 0 1-8.393 0 6.775 6.775 0 0 1 0-8.2 5.954 5.954 0 0 1 8.393 0 6.771 6.771 0 0 1 0 8.2zm-2.283-1.577a5.098 5.098 0 0 0 0-5.056 2.536 2.536 0 0 0-3.851 0 5.066 5.066 0 0 0 0 5.056 2.53 2.53 0 0 0 3.851 0z"/></svg>