<svg xmlns="http://www.w3.org/2000/svg" role="img" viewBox="170.55 246.80 322.66 270.16"><title>LabelImg logo</title><style>.st0{fill:#E6E6E6;} .st1{fill:#FFFFFF;} .st2{fill:none;} .st3{fill:#3C3C3C;} .st4{fill:url(#SVGID_1_);} .st5{fill:url(#SVGID_2_);} .st6{fill:url(#SVGID_3_);} .st7{fill:#8ACB58;} .st8{fill:#F7EC41;} .st9{fill:#B5E363;} .st10{fill:url(#SVGID_4_);} .st11{fill:url(#SVGID_5_);} .st12{fill:url(#SVGID_6_);} .st13{fill:url(#SVGID_7_);} .st14{fill:url(#SVGID_8_);} .st15{fill:url(#SVGID_9_);} .st16{fill:url(#SVGID_10_);} .st17{fill:url(#SVGID_11_);} .st18{fill:url(#SVGID_12_);} .st19{fill:url(#SVGID_13_);} .st20{fill:url(#SVGID_14_);} .st21{fill:url(#SVGID_15_);} .st22{fill:url(#SVGID_16_);} .st23{fill:url(#SVGID_17_);} .st24{fill:url(#SVGID_18_);} .st25{fill:url(#SVGID_19_);} .st26{fill:url(#SVGID_20_);} .st27{fill:url(#SVGID_21_);}</style><style>.st1{fill:#fff}.st2{fill:none}.st7{fill:#8acb58}.st9{fill:#b5e363}</style><style>.st1{fill:#fff}.st2{fill:none}.st7{fill:#8acb58}.st9{fill:#b5e363}</style><style>.st1{fill:#fff}.st2{fill:none}.st7{fill:#8acb58}.st9{fill:#b5e363}</style><style>.st1{fill:#fff}.st2{fill:none}.st7{fill:#8acb58}.st9{fill:#b5e363}</style><style>.st1{fill:#fff}.st2{fill:none}.st7{fill:#8acb58}.st9{fill:#b5e363}</style><style>.st1{fill:#fff}.st2{fill:none}.st7{fill:#8acb58}.st9{fill:#b5e363}</style><style>.st1{fill:#fff}.st2{fill:none}.st7{fill:#8acb58}.st9{fill:#b5e363}</style><style>.st1{fill:#fff}.st2{fill:none}.st7{fill:#8acb58}.st9{fill:#b5e363}</style><style>.st1{fill:#fff}.st2{fill:none}.st7{fill:#8acb58}.st9{fill:#b5e363}</style><style>.st1{fill:#fff}.st2{fill:none}.st7{fill:#8acb58}.st9{fill:#b5e363}</style><g id="svg_204"><g id="svg_205"><path id="svg_206" fill="#3c3c3c" d="M362.3 343.5v-24.6h-24.2v-5.3h-9.2v5.3h-24.3v24.6h-5.5v9.3h5.5v25.6h24.3v4.8h9.2v-4.8h24.2v-25.6h5.6v-9.3h-5.6zm-9.2 0h-5.6v9.3h5.6v16.3h-15v-6.6h-9.2v6.6h-15.1v-16.3h5.7v-9.3h-5.7v-15.3h15.1v6.1h9.2v-6.1h15v15.3z"/><g id="svg_207"><linearGradient id="SVGID_1_" x1="331.206" x2="331.206" y1="276.258" y2="395.255" gradientUnits="userSpaceOnUse"><stop offset=".009" stop-color="#81BFE8"/><stop offset=".172" stop-color="#79B6DB"/><stop offset=".471" stop-color="#639EB9"/><stop offset=".748" stop-color="#4B8494"/></linearGradient><path id="svg_208" fill="url(#SVGID_1_)" d="M400.9 288.3v79.4l-8.6-11.4-10.7-14.2-25.6-34.3-2 2.6-2 2.6-4.4 5.9h-9.5v-5.3h-9.2v5.3h-16.5v-.6c0-.2 0-.3-.1-.5 0-.2-.1-.4-.1-.6 0-.2-.1-.4-.1-.5 0-.1-.1-.2-.1-.4 0-.1 0-.1-.1-.2 0-.1-.1-.3-.1-.4 0-.1-.1-.3-.2-.4-.1-.1-.1-.3-.2-.4-.1-.1-.1-.3-.2-.4-.1-.1-.1-.2-.2-.4-.1-.1-.2-.3-.2-.4-.1-.2-.2-.4-.3-.5-.1-.3-.3-.5-.5-.7-.1-.1-.1-.2-.2-.3-.1-.1-.1-.2-.2-.3-.1-.1-.2-.2-.2-.3-.1-.1-.2-.3-.4-.4-.1-.1-.2-.3-.4-.4l-.9-.9c-.2-.1-.3-.3-.5-.4-1.7-1.3-3.6-2.1-5.8-2.5-.3-.1-.7-.1-1-.1H298c-.3 0-.7.1-1 .1-2.1.4-4.1 1.2-5.8 2.5-.2.1-.3.3-.5.4l-.9.9-.4.4c-.1.1-.2.3-.4.4-.1.1-.2.2-.2.3-.1.1-.2.2-.2.3-.1.1-.1.2-.2.3-.1.2-.3.4-.4.6-.1.1-.1.2-.2.3-.1.2-.3.5-.4.7-.1.1-.1.2-.2.4-.1.1-.1.3-.2.4s-.1.3-.2.4c-.1.1-.1.3-.2.4-.1.1-.1.3-.1.4 0 .1 0 .1-.1.2 0 .1-.1.2-.1.4s-.1.4-.1.5c0 .2-.1.4-.1.6 0 .2-.1.3-.1.5-.1.6-.1 1.2-.1 1.9v1.4c0 .2 0 .3.1.5v.3c0 .2.1.4.1.6 0 .2.1.4.1.6.1.4.2.9.4 1.3s.3.8.5 1.2l.3.6c.3.6.7 1.1 1 1.6.5.7 1.1 1.3 1.7 1.9.3.3.6.6 1 .8.3.3.7.5 1.1.7.1.1.3.2.4.2.4.2.9.5 1.3.6.2.1.4.2.6.2.2.1.4.1.6.2.2.1.4.1.6.2.2.1.4.1.6.2.2 0 .4.1.6.1h.1c.2 0 .4.1.6.1.2 0 .4 0 .7.1h1.4c.2 0 .5 0 .7-.1.2 0 .4 0 .6-.1h.1c.2 0 .4-.1.6-.1.2 0 .4-.1.6-.2.2 0 .4-.1.6-.2.5-.1.9-.3 1.4-.5h.1v11.1h-5.5v5.6l-37.6 50.2v-111c0-7.1 5.7-12.8 12.7-12.8h116.2c.1 0 .3 0 .4.1.4.1.8.2 1.1.3.1 0 .3.1.4.1.1 0 .3.1.4.2.2.1.3.1.5.2l.6.3c.2.1.3.1.4.2.1 0 .1.1.2.1.9.5 1.7 1.1 2.4 1.7l.4.4.4.4c.1.1.2.3.3.4 0 0 .1.1.1.2.1.1.2.3.3.4.3.4.6.9.9 1.4.1.1.1.2.1.3.1.1.2.3.2.4l.3.6.6 1.8c.1.2.1.4.1.6 0 .2.1.3.1.5v.3c0 .1 0 .3.1.4 0 .2 0 .5.1.7.3.3.3.6.3.8z"/><linearGradient id="SVGID_2_" x1="307.604" x2="308.153" y1="256.789" y2="371.943" gradientUnits="userSpaceOnUse"><stop offset=".009" stop-color="#81BFE8"/><stop offset=".172" stop-color="#79B6DB"/><stop offset=".471" stop-color="#639EB9"/><stop offset=".748" stop-color="#4B8494"/></linearGradient><path id="svg_209" fill="url(#SVGID_2_)" d="M376.6 262.1H262.5c-8.7 0-15.7 7.1-15.7 15.9v91.9l-7.6 10.1V269c0-7.1 5.7-12.8 12.7-12.8h115.3c.2 0 .4 0 .5.1h.2c.2 0 .3.1.5.1s.4.1.5.1c.2 0 .4.1.5.1.1 0 .2.1.3.1.1 0 .2.1.3.1.1 0 .2.1.3.1.1.1.3.1.4.2.3.1.7.3 1 .5.1.1.2.1.3.2.2.1.4.2.6.4 0 0 .1 0 .1.1.2.1.4.3.6.4.2.2.4.3.6.5.2.2.4.3.6.5l.1.1c.2.2.4.3.5.5.4.4.7.8 1 1.2 0 0 0 .1.1.1.2.1.3.3.4.5z"/><linearGradient id="SVGID_3_" x1="318.908" x2="318.908" y1="266.388" y2="386.522" gradientUnits="userSpaceOnUse"><stop offset=".009" stop-color="#81BFE8"/><stop offset=".172" stop-color="#79B6DB"/><stop offset=".471" stop-color="#639EB9"/><stop offset=".748" stop-color="#4B8494"/></linearGradient><path id="svg_210" fill="url(#SVGID_3_)" d="M388 272.4H274.2c-8.7 0-15.7 7.1-15.7 15.9v89.4l-8.6 11.4V278c0-7.1 5.7-12.8 12.7-12.8h115.6c.2 0 .3 0 .5.1.2 0 .4.1.6.1l1.2.3c.2.1.5.2.7.3.1.1.3.1.4.2h.1l.6.3.6.3c.2.1.3.2.5.3.2.1.3.2.5.3.1.1.3.2.4.3.1.1.2.1.2.2.4.3.8.6 1.1 1l.3.3.3.3c.2.2.4.4.5.7.1.1.2.2.2.3.3.4.5.7.7 1.1.1.3.2.5.4.8z"/></g><path id="svg_211" d="M247 396.1v.2c-4.4-1.8-7.5-6.1-7.8-11.2l7.5-10.1v18.8c.1.8.2 1.6.3 2.3z" class="st1"/><path id="svg_212" d="M258.4 404.1c0 .5 0 1.1.1 1.6l-.9-.3c-.1-.1-.3-.1-.4-.2-.1-.1-.3-.1-.4-.2-.1-.1-.3-.1-.4-.2-.1-.1-.3-.1-.4-.2-.2-.1-.3-.2-.5-.3-.1-.1-.2-.1-.3-.2-.1-.1-.3-.2-.4-.3-.1-.1-.2-.1-.2-.2-.1-.1-.2-.1-.3-.2-.2-.1-.3-.3-.5-.4l-.4-.4c-.3-.3-.5-.6-.8-.9v-.1l-.3-.3-.6-.9c-.1-.2-.3-.4-.4-.6 0-.1-.1-.1-.1-.2-.1-.1-.1-.3-.2-.4 0-.1-.1-.1-.1-.2s-.1-.2-.1-.3v-.6c0-.1-.1-.3-.1-.4 0-.1-.1-.2-.1-.4v-.1c0-.1-.1-.2-.1-.4v-.3c0-.1 0-.2-.1-.3v-.2c0-.1 0-.3-.1-.4v-1.3l8.5-11.4V404c-.4 0-.4.1-.4.1z" class="st1"/><path id="svg_213" d="M258.5 405.7l-.9-.3c-.1-.1-.3-.1-.4-.2-.1-.1-.3-.1-.4-.2-.1-.1-.3-.1-.4-.2-.1-.1-.3-.1-.4-.2-.2-.1-.3-.2-.5-.3-.1-.1-.2-.1-.3-.2-.1-.1-.3-.2-.4-.3-.1-.1-.2-.1-.2-.2-.1-.1-.2-.1-.3-.2-.2-.1-.3-.3-.5-.4l-.4-.4c-.3-.3-.5-.6-.8-.9v-.1l-.3-.3-.6-.9c-.1-.2-.3-.4-.4-.6 0-.1-.1-.1-.1-.2-.1-.1-.1-.3-.2-.4 0-.1-.1-.1-.1-.2s-.1-.2-.1-.3v-.6c0-.1-.1-.3-.1-.4 0-.1-.1-.2-.1-.4v-.1c0-.1-.1-.2-.1-.4v-.3c0-.1 0-.2-.1-.3v-.2c0-.1 0-.3-.1-.4v-1.3l8.5-11.4v21.3c-.4.4-.3 1-.3 1.5z" class="st2"/><path id="svg_214" d="M352 313l-4.4 5.9h3.9l2.5-3.3 1.9-2.6 4.4 5.9h1.9v2.6l19.4 25.8 10.7 14.2 8.6 11.4v30.9c0 6.6-5.1 12.2-11.6 12.7h-16.7l-5.4-7.2-6.8-9.1-16.4-21.7h-3.9l16.4 21.9 6.8 9.1 5.4 7.2h-95.6c-.2 0-.4 0-.6-.1-.2 0-.4-.1-.6-.1-.6-.1-1.1-.2-1.7-.4-.2-.1-.4-.1-.5-.2-.4-.1-.7-.3-1-.4-.3-.2-.6-.3-.9-.5-.5-.3-1-.6-1.4-1-.1-.1-.3-.2-.4-.4l-.4-.4-.2-.2-.2-.2c-.4-.4-.7-.8-1-1.2-.1-.1-.2-.2-.3-.4-.1-.1-.1-.2-.2-.3-.2-.2-.3-.5-.4-.7-.1-.1-.1-.2-.2-.3 0 0 0-.1-.1-.1 0-.1-.1-.2-.1-.3 0-.1-.1-.2-.1-.3v-.1c0-.1-.1-.2-.1-.3-.1-.1-.1-.3-.2-.4-.3-.7-.4-1.4-.6-2.1 0-.1-.1-.3-.1-.4 0-.2 0-.3-.1-.5v-.7l3.1-4.2 35.6-47.5h-1.1v-3.7l-37.6 50.2v-111c0-7.1 5.7-12.8 12.7-12.8h116.2c.1 0 .3 0 .4.1.4.1.8.2 1.1.3.1 0 .3.1.4.1.1 0 .3.1.4.2.2.1.3.1.5.2l.6.3c.2.1.3.1.4.2.1 0 .1.1.2.1.9.5 1.7 1.1 2.4 1.7l.4.4.4.4c.1.1.2.3.3.4 0 0 .1.1.1.2.1.1.2.3.3.4.3.4.6.9.9 1.4.1.1.1.2.1.3.1.1.2.3.2.4l.3.6.6 1.8c.1.2.1.4.1.6 0 .2.1.3.1.5v.3c0 .1 0 .3.1.4 0 .2 0 .5.1.7v80.1l-8.6-11.4-10.7-14.2-25.7-34.4-2 2.6-2 2.6z" class="st2"/><path id="svg_215" d="M313.9 343.5h-.1v-.1z" class="st2"/><path id="svg_216" d="M360.4 318.9h-8.9l2.5-3.3 1.9-2.6h.1z" class="st7"/><g id="svg_217"><path id="svg_218" fill="#f7ec41" d="M309.3 318.9h-4.7v9.9c-1.6 1-3.5 1.6-5.5 1.6-5.6 0-10.2-4.6-10.2-10.3 0-5.7 4.6-10.4 10.2-10.4 5.3.1 9.6 4.1 10.2 9.2z"/><path id="svg_219" d="M247 396.3c-4.4-1.8-7.5-6.1-7.8-11.2l7.5-10.1v18.8c0 .8.1 1.5.2 2.3.1.1.1.1.1.2z" class="st9"/><path id="svg_220" d="M258.5 405.7l-.9-.3c-.1-.1-.3-.1-.4-.2-.1-.1-.3-.1-.4-.2-.1-.1-.3-.1-.4-.2-.1-.1-.3-.1-.4-.2-.2-.1-.3-.2-.5-.3-.1-.1-.2-.1-.3-.2-.1-.1-.3-.2-.4-.3-.1-.1-.2-.1-.2-.2-.1-.1-.2-.1-.3-.2-.2-.1-.3-.3-.5-.4l-.4-.4c-.3-.3-.5-.6-.8-.9v-.1l-.3-.3-.6-.9c-.1-.2-.3-.4-.4-.6 0-.1-.1-.1-.1-.2-.1-.1-.1-.3-.2-.4 0-.1-.1-.1-.1-.2s-.1-.2-.1-.3v-.6c0-.1-.1-.3-.1-.4 0-.1-.1-.2-.1-.4v-.1c0-.1-.1-.2-.1-.4v-.3c0-.1 0-.2-.1-.3v-.2c0-.1 0-.3-.1-.4v-1.3l8.5-11.4v21.3c-.4.4-.3 1-.3 1.5z" class="st9"/><path id="svg_221" d="M368.7 416.5h-95.6c-.2 0-.4 0-.6-.1-.2 0-.4-.1-.6-.1-.6-.1-1.1-.2-1.7-.4-.2-.1-.4-.1-.5-.2-.4-.1-.7-.3-1-.4-.3-.2-.6-.3-.9-.5-.5-.3-1-.6-1.4-1-.1-.1-.3-.2-.4-.4l-.4-.4-.2-.2-.2-.2c-.4-.4-.7-.8-1-1.2-.1-.1-.2-.2-.3-.4-.1-.1-.1-.2-.2-.3-.2-.2-.3-.5-.4-.7-.1-.1-.1-.2-.2-.3 0 0 0-.1-.1-.1 0-.1-.1-.2-.1-.3 0-.1-.1-.2-.1-.3v-.1c0-.1-.1-.2-.1-.3-.1-.1-.1-.3-.2-.4-.3-.7-.4-1.4-.6-2.1 0-.1-.1-.3-.1-.4 0-.2 0-.3-.1-.5v-.7l3.1-4.2 35.6-47.5h4.4v25.6h24.3v4.8h9.2v-4.8h2l16.4 21.9 6.8 9.1 5.2 7.1z" class="st9"/><path id="svg_222" d="M400.9 372.9v30.9c0 6.6-5.1 12.2-11.6 12.7h-16.7l-5.4-7.2-6.8-9.1-16.4-21.7h18.3v-25.6h5.6v-9.3h-5.6v-22l19.4 25.8 10.7 14.2 8.5 11.3z" class="st7"/></g><g id="svg_223"><path id="svg_224" d="M391.4 272.7c-1.8-5-5.9-8.9-11.1-10.2-2.4-5.6-8-9.5-14.4-9.5h-114c-8.7 0-15.7 7.1-15.7 15.9v115.9c0 .8.1 1.5.2 2.3l.3 1.5c1.5 5.6 5.8 10 11.4 11.3 2 4.7 6.1 8.1 11.2 9.2 2 5.8 7.2 10.1 13.6 10.6h116.6c8.1-.6 14.5-7.6 14.5-15.9V288.3c0-7.7-5.4-14.1-12.6-15.6zM239.2 385.1l7.5-10.1v18.8c0 .8.1 1.5.2 2.3v.2c-4.3-1.8-7.4-6.1-7.7-11.2zm7.6-107.1v91.9l-7.6 10.1V269c0-7.1 5.7-12.8 12.7-12.8h115.3c.2 0 .4 0 .5.1h.2c.2 0 .3.1.5.1s.4.1.5.1c.2 0 .4.1.5.1.1 0 .2.1.3.1.1 0 .2.1.3.1.1 0 .2.1.3.1.1.1.3.1.4.2.3.1.7.3 1 .5.1.1.2.1.3.2.2.1.4.2.6.4 0 0 .1 0 .1.1.2.1.4.3.6.4.2.2.4.3.6.5.2.2.4.3.6.5l.1.1c.2.2.4.3.5.5.4.4.7.8 1 1.2 0 0 0 .1.1.1.1.2.3.4.4.6H262.5c-8.7-.1-15.7 7-15.7 15.8zm10.8 127.3c-.2-.1-.3-.1-.4-.2-.1-.1-.3-.1-.4-.2-.1-.1-.3-.1-.4-.2-.1-.1-.3-.1-.4-.2-.2-.1-.3-.2-.5-.3-.1-.1-.2-.1-.3-.2-.1-.1-.3-.2-.4-.3-.1-.1-.2-.1-.2-.2-.1-.1-.2-.1-.3-.2-.2-.1-.3-.3-.5-.4l-.4-.4c-.3-.3-.5-.6-.8-.9v-.1l-.3-.3-.6-.9c-.1-.2-.3-.4-.4-.6 0-.1-.1-.1-.1-.2-.1-.1-.1-.3-.2-.4 0-.1-.1-.1-.1-.2s-.1-.2-.1-.3v-.6c0-.1-.1-.3-.1-.4 0-.1-.1-.2-.1-.4v-.1c0-.1-.1-.2-.1-.4v-.3c0-.1 0-.2-.1-.3v-.2c0-.1 0-.3-.1-.4v-1.3l8.5-11.4v21.3c0 .5 0 1.1.1 1.6-.7-.1-1-.2-1.3-.4zm.8-117v89.4l-8.6 11.4V278c0-7.1 5.7-12.8 12.7-12.8h115.6c.2 0 .3 0 .5.1.2 0 .4.1.6.1l1.2.3c.2.1.5.2.7.3.1.1.3.1.4.2h.1l.6.3.6.3c.2.1.3.2.5.3.2.1.3.2.5.3.1.1.3.2.4.3.1.1.2.1.2.2.4.3.8.6 1.1 1l.3.3.3.3c.2.2.4.4.5.7.1.1.2.2.2.3.3.4.5.7.7 1.1.1.2.3.5.4.7H274.2c-8.7.1-15.8 7.2-15.8 16zm142.5 79.4l-8.6-11.4-10.7-14.2-25.6-34.3-2 2.6-2 2.6-4.4 5.9h3.9l2.5-3.3 1.9-2.6 4.4 5.9h1.9v2.6l19.4 25.8 10.7 14.2 8.6 11.4v30.9c0 6.6-5.1 12.2-11.6 12.7h-16.7l-5.4-7.2-6.8-9.1-16.4-21.7h-3.9l16.4 21.9 6.8 9.1 5.4 7.2h-95.6c-.2 0-.4 0-.6-.1-.2 0-.4-.1-.6-.1-.6-.1-1.1-.2-1.7-.4-.2-.1-.4-.1-.5-.2-.4-.1-.7-.3-1-.4-.3-.2-.6-.3-.9-.5-.5-.3-1-.6-1.4-1-.1-.1-.3-.2-.4-.4l-.4-.4-.2-.2-.2-.2c-.4-.4-.7-.8-1-1.2-.1-.1-.2-.2-.3-.4-.1-.1-.2-.2-.2-.3-.2-.2-.3-.5-.4-.7-.1-.1-.1-.2-.2-.3 0 0 0-.1-.1-.1 0-.1-.1-.2-.1-.3 0-.1-.1-.2-.1-.3v-.1c0-.1-.1-.2-.1-.3-.1-.1-.1-.3-.2-.4-.3-.7-.4-1.4-.6-2.1 0-.1-.1-.3-.1-.4 0-.2 0-.3-.1-.5v-.7l3.1-4.2 35.6-47.5h-1.1v-3.7l-37.6 50.2v-111c0-7.1 5.7-12.8 12.7-12.8h116.2c.1 0 .3 0 .4.1.4.1.8.2 1.1.3.1 0 .3.1.4.1.1 0 .3.1.4.2.2.1.3.1.5.2l.6.3c.2.1.3.1.4.2.1 0 .1.1.2.1.9.5 1.7 1.1 2.4 1.7l.4.4.4.4c.1.1.2.3.3.4 0 0 .1.1.1.2.1.1.2.3.3.4.3.4.6.9.9 1.4.1.1.1.2.1.3.1.1.2.3.2.4l.3.6.6 1.8c.1.2.1.4.1.6 0 .2.1.3.1.5v.3c0 .1 0 .3.1.4 0 .2 0 .5.1.7v80h-.1z" class="st1"/><path id="svg_225" d="M347.5 343.5v9.3h5.6v16.4h-15v-6.6h-9.2v6.6h-15.1v-16.4h5.8v-9.3h-5.8v-15.3h15.1v6.1h9.2v-6.1h15v15.3z" class="st1"/><path id="svg_226" d="M312.4 319.1v-.2h-3.1c-.6-5.1-4.9-9.2-10.1-9.2-5.6 0-10.2 4.6-10.2 10.4 0 5.7 4.6 10.3 10.2 10.3 2 0 3.9-.6 5.5-1.6v3.5s-.1.1-.2.1c-.4.2-.9.4-1.4.5-.2.1-.4.1-.6.2-.2.1-.4.1-.6.2-.2 0-.4.1-.6.1h-.1c-.2 0-.4.1-.6.1-.2 0-.4 0-.7.1h-1.4c-.2 0-.5 0-.7-.1-.2 0-.4 0-.6-.1h-.1c-.2 0-.4-.1-.6-.1-.2 0-.4-.1-.6-.2-.2-.1-.4-.1-.6-.2-.2-.1-.4-.1-.6-.2-.2-.1-.4-.2-.6-.2-.4-.2-.9-.4-1.3-.6-.1-.1-.3-.2-.4-.2-.4-.2-.7-.5-1.1-.7-.3-.3-.7-.5-1-.8-.6-.6-1.2-1.2-1.7-1.9-.4-.5-.7-1.1-1-1.6l-.3-.6c-.2-.4-.4-.8-.5-1.2-.2-.4-.3-.8-.4-1.3-.1-.2-.1-.4-.1-.6 0-.2-.1-.4-.1-.6v-.3c0-.2 0-.3-.1-.5v-1.4c0-.6 0-1.2.1-1.9 0-.2 0-.3.1-.5 0-.2.1-.4.1-.6 0-.2.1-.4.1-.5 0-.1.1-.2.1-.4 0-.1 0-.1.1-.2 0-.1.1-.3.1-.4 0-.1.1-.3.2-.4.1-.1.1-.3.2-.4s.1-.3.2-.4c.1-.1.1-.2.2-.4s.2-.5.4-.7c.1-.1.1-.2.2-.3.1-.2.3-.4.4-.6.1-.1.1-.2.2-.3.1-.1.1-.2.2-.3.1-.1.2-.2.2-.3.1-.1.2-.3.4-.4.1-.1.2-.3.4-.4l.9-.9c.2-.1.3-.3.5-.4 1.7-1.3 3.6-2.1 5.8-2.5.3-.1.7-.1 1-.1h2.4c.3 0 .7.1 1 .1 2.1.4 4.1 1.2 5.8 2.5.2.1.3.3.5.4l.9.9.4.4c.1.1.2.3.4.4.1.1.2.2.2.3.1.1.2.2.2.3.1.1.1.2.2.3.2.2.3.5.5.7.1.2.2.4.3.5.1.1.2.3.2.4.1.1.1.2.2.4.1.1.1.3.2.4.1.1.1.3.2.4.1.1.1.3.2.4.1.1.1.3.1.4 0 .1 0 .1.1.2 0 .1.1.2.1.4s.1.4.1.5c0 .2.1.4.1.6 0 .2.1.3.1.5v.6c-.2.1-.2.1-.2.2z" class="st1"/></g></g><g id="svg_227"><g id="svg_228"><path id="svg_229" d="M210.1 489.6v6.9h-33.2v-52.2h8.6v45.3z"/></g><g id="svg_230"><path id="svg_231" d="M243.3 460v3.2c-1.2-1-2.5-1.9-3.9-2.6-2.5-1.2-5.2-1.8-8.1-1.8-3.8 0-7.3.8-10.3 2.5-3 1.7-5.4 4-7.1 6.9-1.7 2.9-2.5 6.2-2.5 9.9s.9 7.1 2.6 10c1.7 3 4.1 5.3 7.1 7 3 1.7 6.5 2.5 10.3 2.5 2.9 0 5.6-.6 8-1.8 1.4-.7 2.7-1.5 3.8-2.5v3.1h8V460h-7.9zm-11.9 5.6c2.3 0 4.4.5 6.2 1.6 1.8 1 3.2 2.5 4.2 4.4 1 1.9 1.6 4.1 1.6 6.6 0 2.4-.5 4.7-1.6 6.6-.5.9-1.1 1.8-1.8 2.5s-1.5 1.4-2.4 1.9c-1.8 1-3.9 1.6-6.2 1.6-2.3 0-4.3-.5-6.1-1.6-1.8-1-3.2-2.5-4.2-4.4-1-1.9-1.6-4.2-1.6-6.7 0-2.4.5-4.6 1.6-6.5 1-1.9 2.4-3.4 4.2-4.4 1.8-1 3.8-1.6 6.1-1.6z"/></g><g id="svg_232"><path id="svg_233" d="M296.3 468.2c-.8-1.5-1.9-2.8-3-3.9-1.2-1.2-2.5-2.1-4-3-3-1.7-6.5-2.5-10.3-2.5-2.9 0-5.7.6-8.1 1.8-1.4.7-2.7 1.5-3.9 2.5v-22h-8v55.3h8v-3.1c1.2 1 2.4 1.8 3.8 2.5 2.4 1.2 5.1 1.8 8 1.8 3.8 0 7.3-.8 10.3-2.5 3-1.7 5.4-4 7.1-7 1.7-2.9 2.6-6.3 2.6-10 0-3.6-.8-7-2.5-9.9zM279 490.8c-2.3 0-4.4-.5-6.2-1.6-1.8-1-3.2-2.5-4.2-4.4-1-1.9-1.6-4.1-1.6-6.6 0-2.4.5-4.7 1.6-6.6 1-1.9 2.4-3.4 4.2-4.4 1.8-1 3.9-1.6 6.2-1.6 2.3 0 4.3.5 6.1 1.6 1.8 1 3.2 2.5 4.2 4.4 1 1.9 1.6 4.1 1.6 6.5 0 2.5-.5 4.7-1.6 6.7-.5.9-1.1 1.8-1.8 2.5s-1.5 1.4-2.4 1.9c-1.8 1.1-3.9 1.6-6.1 1.6z"/></g><g id="svg_234"><path id="svg_235" d="M334.3 484.1l-.7 1c-1.2 1.8-2.7 3.2-4.6 4.2-1.9 1-4.4 1.5-7.4 1.5-3.6 0-6.4-1.1-8.4-3.3-1.8-2-3-4.4-3.4-7.1h30.7l.1-1c.1-.5.1-1.3.1-2.2 0-3.4-.8-6.5-2.5-9.3-.8-1.4-1.8-2.6-3-3.7s-2.5-2.1-3.9-2.9c-2.9-1.6-6.2-2.4-9.8-2.4-3.8 0-7.3.8-10.3 2.5-3 1.7-5.4 4-7.1 7-1.7 2.9-2.5 6.3-2.5 10s.9 7 2.6 10c1.7 3 4.1 5.3 7.1 7 3 1.7 6.5 2.5 10.4 2.5 4.2 0 7.8-.8 10.9-2.3 3.1-1.5 5.6-3.7 7.4-6.3l.7-1-6.4-4.2zm-12.8-18.5c3.2 0 5.8.8 7.6 2.4 1.6 1.4 2.7 3.4 3.3 6h-22.1c.7-2.2 1.8-4.1 3.5-5.7 2-1.8 4.5-2.7 7.7-2.7z"/></g><g id="svg_236"><path id="svg_237" d="M346.6 441.1h8v55.3h-8z"/></g><g id="svg_238"><path id="svg_239" d="M375.7 451.5v37.8h5.3v7.2h-19.2v-7.2h5.3v-37.8h-5.3v-7.2H381v7.2z"/><path id="svg_240" d="M442.6 472.4v24h-8v-21.8c0-3.3-.7-5.7-1.9-7-1.3-1.3-2.9-2-4.9-2-2.5 0-4.4.9-5.8 2.6-1.5 1.9-2.4 4.5-2.6 7.8v20.4h-8v-21.8c0-3.3-.7-5.7-1.9-7-1.3-1.3-2.9-2-4.9-2-2.8 0-4.9 1-6.3 3.2-1.5 2.3-2.3 5.5-2.3 9.4v18.2h-8V460h8v2.8c.8-.8 1.7-1.5 2.7-2.1 2.1-1.2 4.5-1.9 7.2-1.9 3 0 5.6.7 7.9 2.2 1.5 1 2.8 2.3 3.7 3.9 1.1-1.6 2.4-2.9 3.9-3.9 2.2-1.5 4.9-2.3 7.8-2.3 3.8 0 7.1 1.2 9.6 3.7 1.3 1.2 2.2 2.7 2.8 4.3s1 3.7 1 5.7z"/></g><g id="svg_241"><path id="svg_242" d="M479.3 460v3.2c-1.2-1-2.5-1.9-3.9-2.6-2.5-1.2-5.2-1.8-8.1-1.8-3.8 0-7.3.8-10.3 2.5-3 1.7-5.4 4-7.1 6.9-1.7 2.9-2.5 6.2-2.5 9.9s.9 7.1 2.6 10c1.7 3 4.1 5.3 7.1 7 3 1.7 6.5 2.5 10.3 2.5 2.9 0 5.6-.6 8-1.8 1.4-.7 2.7-1.5 3.8-2.5v.7c0 3-.9 5.5-2.8 7.4-1.8 1.9-4.1 2.8-7 2.8h-16.9v6.8h16.9c3.4 0 6.5-.7 9.2-2.2 2.7-1.5 4.8-3.5 6.3-6.1 1.5-2.6 2.2-5.5 2.2-8.8v-34h-7.8v.1zm-12 5.6c2.3 0 4.4.5 6.2 1.6 1.8 1 3.2 2.5 4.2 4.4 1 1.9 1.6 4.1 1.6 6.6 0 2.4-.5 4.7-1.6 6.6-1 1.9-2.4 3.4-4.2 4.4-1.8 1-3.9 1.6-6.2 1.6-2.3 0-4.3-.5-6.1-1.6-1.8-1-3.2-2.5-4.2-4.4-1-1.9-1.6-4.2-1.6-6.7 0-2.4.5-4.6 1.6-6.5 1-1.9 2.4-3.4 4.2-4.4 1.8-1 3.8-1.6 6.1-1.6z"/></g></g></g></svg>