<svg xmlns="http://www.w3.org/2000/svg" role="img" viewBox="-9.20 -9.20 1102.40 802.40"><title>LIME logo</title><path fill="#231f20" d="M341.414 636.809h27.742v108.898h66.293v23.87h-94.035zm137 22.878h-26.031v-23.689h26.031zm-26.031 11.71h26.031v98.18h-26.031zm173.389.36a28.554 28.554 0 0 1 11.44 8.827 28.223 28.223 0 0 1 5.584 12.61 87.268 87.268 0 0 1 .9 14.502l-.18 61.88h-26.3v-62.51a20.53 20.53 0 0 0-1.802-9.188q-3.425-6.844-12.61-6.845-10.63 0-14.682 8.827a27.713 27.713 0 0 0-2.072 11.26v58.456H560.2V711.12q0-8.736-1.802-12.7-3.243-7.115-12.7-7.116-10.99 0-14.772 7.116-2.073 4.053-2.072 12.07v59.087h-26.03v-97.999h24.95V685.9q4.772-7.655 9.006-10.899 7.475-5.763 19.366-5.765 11.258 0 18.195 4.954a28.836 28.836 0 0 1 8.467 11.8 32.631 32.631 0 0 1 12.52-12.7 38.203 38.203 0 0 1 17.654-4.054 34.2 34.2 0 0 1 12.79 2.522zm105.5 1.629a39.942 39.942 0 0 1 16.967 14.524 48.26 48.26 0 0 1 7.823 20.297 125.636 125.636 0 0 1 .845 19.485H685.4q.598 14.774 10.268 20.717a26.069 26.069 0 0 0 14.153 3.693q8.772 0 14.254-4.503a21.586 21.586 0 0 0 5.283-6.756h26.21q-1.038 8.737-9.517 17.744-13.193 14.322-36.938 14.322a53.518 53.518 0 0 1-34.582-12.08q-14.982-12.08-14.981-39.307 0-25.51 13.525-39.124 13.524-13.612 35.109-13.613a55.892 55.892 0 0 1 23.088 4.6zm-38.403 22.176q-5.442 5.609-6.838 15.197h44.226q-.702-10.222-6.839-15.514a22.495 22.495 0 0 0-15.225-5.293q-9.884 0-15.324 5.61z"/><path fill="#31006f" d="M968.13 300.04l-3.284 3.15.37 1.215h10.062c-1.579 10.91-3.036 20.365-5.337 35.636-3.268 22.672-6.066 30.675-8.362 32.612a4.43 4.43 0 0 1-3.03 1.087c-1.457 0-3.752-1.087-5.337-1.815a2.863 2.863 0 0 0-3.394.844c-.965 1.098-2.064 2.792-2.064 4.128 0 2.423 3.157 3.637 5.216 3.637 2.301 0 8.118-1.942 13.333-8.36 4.123-5.1 9.703-16.856 14.427-44.252.85-5.095 1.822-10.183 3.88-23.517l12.362-1.214 2.666-3.151h-14.305c3.637-22.424 6.667-29.213 11.882-29.213a13.126 13.126 0 0 1 9.333 4.002 2.46 2.46 0 0 0 3.394-.127c.971-.845 2.429-2.787 2.429-4.482.115-2.422-3.152-5.094-7.274-5.094-7.031 0-14.427 4.128-19.521 10.188-4.73 5.696-7.881 14.907-9.57 24.726zm-54.48 31.755c0-17.93 9.096-27.633 12.848-29.211a11.554 11.554 0 0 1 4.007-.966c6.06 0 9.576 4.603 9.576 13.941.242 15.75-7.997 30.062-13.091 31.756a12.047 12.047 0 0 1-3.759.85c-6.782 0-9.58-7.268-9.58-16.37m20.734-34.664c-3.151 0-8.124 1.451-13.09 4.366-8.368 4.972-17.458 16.242-17.458 33.213 0 8.483 4.002 17.942 15.271 17.942 5.332 0 12.976-3.515 18.064-8.118 8.003-7.28 12.727-19.764 12.727-30.553 0-10.062-5.331-16.85-15.514-16.85m-130.974-24.95l21.794 39.348v33.201l-6.87 6.87h23.25l-6.875-6.87v-33.2l22.227-39.198 7.17-7.02h-21.354l6.73 6.725-18.138 32.328-17.26-32.328 6.736-6.725h-24.43zm-49.143 72.55v-72.985h16.38l9.217 9.212V265.31H719.17v15.647l9.368-9.212h16.224v72.984l-6.73 6.87h23.112zm-81.9-79.42l6.869 6.87v72.55l-6.87 6.87h23.25l-6.868-6.87v-72.55l6.869-6.87zm-28.664 62.304c0-8.482-3.949-13.75-8.048-16.526l-17.55-12.726c-6.29-4.528-9.506-10.385-9.506-14.774 0-9.067 7.755-12.282 12.432-12.282 2.487 0 4.244 1.024 5.551 1.024l7.61 8.193 8.049-11.998-17.11-3.215a13.714 13.714 0 0 0-4.1-.44c-15.068 0-21.937 12.872-21.937 21.21 0 6.574 3.365 14.04 11.113 19.74l17.694 12.727c4.828 3.366 6.147 8.338 6.147 12.577 0 7.314-4.534 15.213-14.335 15.213a14.667 14.667 0 0 1-5.996-1.174l-8.194-9.65-7.459 13.455 16.538 3.215a29.25 29.25 0 0 0 5.111.59 24.776 24.776 0 0 0 23.99-25.159m-114.517-55.869h10.524c9.222 0 16.531 7.9 16.531 17.255 0 8.922-7.459 15.942-16.531 15.942h-10.524zm0 72.984v-33.352h13.01l20.92 40.222h14.335l-6.73-6.87-19.302-35.399c9.65-2.925 16.236-11.992 16.236-20.18 0-14.629-13.606-23.84-27.945-23.84H512.95l6.725 6.87v72.55l-6.725 6.869h23.106zm-42.419 6.87v-15.797l-9.211 9.361h-26.182v-36.272h19.452l6.874 6.875v-20.18l-6.874 6.875h-19.452v-30.716h26.182l9.211 9.212V265.31h-51.624l6.724 6.87v72.55l-6.724 6.869zm-115.541-86.29h-24.424l7.019 6.87 24.286 79.42h4.382l25.014-79.42 7.02-6.87h-20.77l6.731 6.726-18.283 59.673-17.7-59.673zm-70.636 0l6.87 6.87v72.55l-6.87 6.87h23.244l-6.87-6.87v-72.55l6.87-6.87zm-83.953 78.83v-64.645l46.507 72.26h2.78v-78.99l7.454-7.454h-22.516l7.453 7.453v54.851l-38.897-62.304h-17.844l7.309 7.453v71.377l-7.31 7.459h22.528zm-100.773-15.646c0 14.183 11.997 25.008 26.766 25.008 14.04 0 27.94-10.38 27.94-25.008v-55.73l7.308-7.453h-22.522l7.454 7.453v55.73a17.73 17.73 0 0 1-17.844 17.844c-10.085 0-19.007-7.748-19.007-17.844v-55.73l7.453-7.453h-25.008l7.46 7.453zm880.431 193.058v-86.884l61.373 96.974h4.874V425.624l10.027-10.026h-30.276l10.027 10.026v73.719l-52.284-83.745h-23.99l9.835 10.026v95.928l-9.836 10.027h30.282zm-88.3 3.736c-23.188 0-31.254-27.72-31.254-51.694 0-23.99 8.066-51.71 31.253-51.71 23.395 0 31.456 27.72 31.456 51.71 0 23.973-8.06 51.694-31.456 51.694m-46.391-51.694c0 29.478 16.71 60.54 46.391 60.54 29.877 0 46.593-31.062 46.593-60.54 0-29.495-16.716-60.552-46.593-60.552-29.68 0-46.391 31.057-46.391 60.552M815.53 522.34v-98.09h22.018l12.386 12.385v-21.036h-81.588v21.036l12.588-12.386h21.817v98.09l-9.044 9.241h31.063zm-84.572-43.442v37.353a24.974 24.974 0 0 1-19.058 8.257c-25.754 0-38.73-25.95-38.73-50.913 0-25.164 16.312-50.918 38.73-50.918 5.892 0 10.211 1.376 14.143 5.504l12.785 12.577V420.71c-6.88-3.538-13.762-6.684-26.928-6.684-31.652 0-53.874 28.31-53.874 59.57 0 30.663 22.222 59.557 53.874 59.557 17.884 0 25.546-4.326 31.837-8.454v-45.801l9.043-9.24h-31.056zm-165.592 42.655v-86.884l61.685 96.864 4.562.03.006-105.938 10.02-10.026h-30.27l10.021 10.026v73.718l-52.29-83.744h-23.984l9.824 10.026v95.928l-9.824 10.027h30.276zm-185.334-48.16h48.75v48.947l-9.234 9.24h31.253l-9.24-9.24v-97.501l9.24-9.24H419.55l9.235 9.24v39.91h-48.75v-39.91l9.239-9.24h-31.056l9.043 9.24v97.5l-9.043 9.241h31.056l-9.24-9.24zm-49.334 25.95c0-11.402-5.314-18.48-10.813-22.22l-23.592-17.099c-8.447-6.088-12.779-13.958-12.779-19.85 0-12.19 10.42-16.52 16.711-16.52 3.342 0 5.702 1.382 7.471 1.382l10.217 11.01 10.813-16.122-23.002-4.325a18.406 18.406 0 0 0-5.499-.59c-20.25 0-29.483 17.3-29.483 28.5 0 8.848 4.516 18.874 14.935 26.542l23.788 17.104c6.488 4.516 8.257 11.206 8.257 16.907 0 9.824-6.094 20.446-19.266 20.446a19.636 19.636 0 0 1-8.06-1.579l-11.01-12.969-10.02 18.081 22.215 4.325a39.62 39.62 0 0 0 6.875.787c13.953 0 32.242-11.79 32.242-33.81m-126.817-57.995l15.93 47.964h-32.438zm-27.911 81.188l8.454-24.568h38.33l8.06 24.568-9.048 9.044h32.837l-9.246-9.437-36.162-106.544h-5.904l-36.757 106.544-9.437 9.437h27.917zM60.673 531.58l26.534-83.935 25.749 83.935h5.898l33.618-106.741 9.436-9.24h-27.916l9.043 9.043-24.575 80.206-23.787-80.206 9.043-9.043H70.884l9.246 9.24 2.359 7.662-22.215 72.347-23.783-80.206 9.043-9.043H12.703l9.437 9.24L54.769 531.58zM482.09 415.598l9.241 9.24v97.501l-9.241 9.24h31.253l-9.24-9.24v-97.501l9.24-9.24H482.09zM414.484 11.996v29.431h18.648l32.733 131.512h45.906l21.827-82.299 20.915 82.299h45.923l34.543-131.512h17.734V11.996h-63.194v29.431h20.909l-22.73 85.59-28.189-115.021h-29.097L499.5 127.924l-22.273-86.497h22.731V11.996h-85.474z"/></svg>