<svg xmlns="http://www.w3.org/2000/svg" role="img" viewBox="-2.01 -1.26 442.52 157.02"><title>LIME logo</title><path fill="#231f20" d="M6.697 8.122h28.405V119.62h67.876v24.44H6.698zm140.271 23.425h-26.652V7.292h26.652zm-26.652 11.989h26.652v100.523h-26.652zm177.529.369a29.226 29.226 0 0 1 11.712 9.038 28.894 28.894 0 0 1 5.719 12.91 89.397 89.397 0 0 1 .922 14.848l-.186 63.358h-26.929V80.056a21.011 21.011 0 0 0-1.844-9.407q-3.506-7.007-12.911-7.009-10.883 0-15.032 9.038a28.368 28.368 0 0 0-2.121 11.528v59.853h-26.468V84.206q0-8.944-1.844-13.004-3.32-7.284-13.004-7.285-11.253 0-15.125 7.285-2.122 4.15-2.12 12.359v60.498H171.96V43.72h25.546v14.664q4.887-7.838 9.222-11.16 7.654-5.9 19.828-5.902 11.527 0 18.629 5.073a29.522 29.522 0 0 1 8.669 12.08 33.41 33.41 0 0 1 12.819-13.003 39.119 39.119 0 0 1 18.075-4.15 35.01 35.01 0 0 1 13.096 2.583zm108.018 1.667a40.882 40.882 0 0 1 17.37 14.87 49.393 49.393 0 0 1 8.01 20.783 128.632 128.632 0 0 1 .867 19.95h-73.214q.611 15.125 10.512 21.21a26.68 26.68 0 0 0 14.491 3.782q8.982 0 14.596-4.61a22.115 22.115 0 0 0 5.408-6.917h26.835q-1.063 8.945-9.745 18.168-13.505 14.662-37.818 14.663a54.796 54.796 0 0 1-35.408-12.368q-15.34-12.367-15.338-40.245 0-26.12 13.847-40.058 13.846-13.937 35.947-13.939a57.23 57.23 0 0 1 23.64 4.711zm-39.32 22.706q-5.572 5.742-7.002 15.559h45.282q-.717-10.465-7.002-15.884a23.035 23.035 0 0 0-15.588-5.42q-10.122 0-15.69 5.745z"/></svg>