<svg xmlns="http://www.w3.org/2000/svg" role="img" viewBox="-0.07 -12.07 887.64 504.64"><title>Lucid logo</title><defs><style>.cls-1{fill:#4095d1}.cls-2{fill:#ef4637}</style></defs><path d="M17.412 113.379c0-59.528 50.045-107.993 109.574-107.993 32.925 0 56.367 12.907 74.014 29.764l-20.808 20.808c-12.643-11.852-29.764-21.07-53.206-21.07-43.46 0-77.439 35.031-77.439 78.49 0 43.462 33.978 78.494 77.439 78.494 28.183 0 44.25-11.327 54.523-21.6 8.43-8.428 13.96-20.544 16.067-37.138h-70.59v-29.5h99.3a96.11 96.11 0 0 1 1.581 18.438c0 22.125-6.059 49.518-25.55 69.01-18.964 19.754-43.198 30.29-75.331 30.29-59.529 0-109.574-48.465-109.574-107.993z" class="cls-1"/><path d="M308.118 82.298c-38.457 0-69.8 29.237-69.8 69.537 0 40.037 31.343 69.536 69.8 69.536 38.455 0 69.799-29.5 69.799-69.536 0-40.3-31.344-69.537-69.799-69.537zm0 111.68c-21.073 0-39.247-17.383-39.247-42.143 0-25.023 18.174-42.144 39.247-42.144 21.071 0 39.245 17.121 39.245 42.144 0 24.76-18.174 42.143-39.245 42.143z" class="cls-2"/><path fill="#ffc20e" d="M460.386 82.298c-38.457 0-69.8 29.237-69.8 69.537 0 40.037 31.343 69.536 69.8 69.536 38.455 0 69.801-29.5 69.801-69.536 0-40.3-31.346-69.537-69.8-69.537zm0 111.68c-21.071 0-39.247-17.383-39.247-42.143 0-25.023 18.176-42.144 39.247-42.144s39.245 17.121 39.245 42.144c0 24.76-18.174 42.143-39.245 42.143z"/><path d="M647.287 86.512V97.84h-1.053c-6.849-8.166-20.019-15.54-36.613-15.54-34.768 0-66.64 30.553-66.64 69.8 0 38.983 31.872 69.272 66.64 69.272 16.594 0 29.764-7.374 36.613-15.803h1.053v10.01c0 26.603-14.223 40.825-37.14 40.825-18.7 0-30.29-13.433-35.03-24.758l-26.604 11.062c7.638 18.438 27.92 41.09 61.635 41.09 35.822 0 66.113-21.072 66.113-72.434V86.513zm-35.031 107.466c-21.072 0-38.72-17.647-38.72-41.88 0-24.495 17.648-42.407 38.72-42.407 20.808 0 37.138 17.912 37.138 42.407 0 24.233-16.33 41.88-37.138 41.88z" class="cls-1"/><path fill="#30b455" d="M697.332 12.762h30.554v204.396h-30.554z"/><path d="M811.647 193.978c-15.541 0-26.604-7.111-33.715-21.07l92.98-38.457-3.16-7.902c-5.796-15.54-23.443-44.25-59.53-44.25-35.822 0-65.584 28.183-65.584 69.536 0 38.983 29.499 69.536 69.009 69.536 31.87 0 50.309-19.49 57.947-30.817l-23.706-15.803c-7.901 11.59-18.7 19.227-34.241 19.227zm-2.371-84.813c12.117 0 22.389 6.059 25.813 14.75l-62.16 25.813c-.792-26.867 20.807-40.563 36.347-40.563z" class="cls-2"/><path fill="none" d="M15.925 5.215h856v279.846h-856z"/><path d="M220.385 344.52h26.743v104.975h63.906v23.01h-90.65zm131.285 33.341v57.047q0 8.074 1.9 12.156 3.37 7.207 13.219 7.207 12.613 0 17.28-10.246 2.418-5.556 2.419-14.674v-51.49h25.093v94.644H387.53v-13.372q-.347.436-1.732 2.605a17.39 17.39 0 0 1-3.29 3.82 34.346 34.346 0 0 1-11.213 7.12 38.15 38.15 0 0 1-12.685 1.91q-20.953 0-28.226-15.108-4.07-8.335-4.069-24.572v-57.047zm140.574 33.951a21.938 21.938 0 0 0-3.567-9.551q-4.18-5.73-12.969-5.73-12.536 0-17.147 12.415-2.44 6.583-2.437 17.495 0 10.395 2.437 16.716 4.438 11.808 16.711 11.809 8.705 0 12.36-4.69a23.296 23.296 0 0 0 4.438-12.155h25.268a41.393 41.393 0 0 1-8.17 21.36q-11.648 16.237-34.505 16.237-22.86 0-33.636-13.546-10.777-13.544-10.777-35.124 0-24.352 11.906-37.899 11.905-13.545 32.855-13.545 17.817 0 29.159 7.989 11.34 7.989 13.429 28.219zm67.726-45.238h-25.093v-22.836h25.094zm-25.093 11.287h25.094v94.644h-25.094zm99.246 1.519a30.072 30.072 0 0 1 10.854 10.464v-45.15h25.093v127.81h-24.05v-13.11q-5.297 8.422-12.07 12.243-6.772 3.82-16.845 3.82-16.586 0-27.915-13.415-11.332-13.415-11.332-34.428 0-24.224 11.159-38.117 11.156-13.891 29.825-13.892a30.534 30.534 0 0 1 15.282 3.776zm6.078 67.424q5.47-7.815 5.47-20.232 0-17.364-8.77-24.833a18.883 18.883 0 0 0-12.503-4.514q-10.856 0-15.933 8.205-5.079 8.206-5.08 20.361 0 13.112 5.167 20.969 5.165 7.86 15.673 7.858 10.504 0 15.976-7.814z"/></svg>