<svg xmlns="http://www.w3.org/2000/svg" role="img" viewBox="-9.21 -11.71 790.92 621.42"><title>MLlib logo</title><path fill="#e77215" d="M735.471 49.917c-9.346.535-18.655 3.01-27.81 5.304-17.109 4.288-34.066 9.182-51.17 13.5-1.853.467-5.142-.54-6.225-2.004-3.45-4.66-6.141-9.879-9.183-14.847-7.649-12.493-15.076-25.132-23.072-37.4-7.49-11.494-22.75-16.402-33.168-1.029a53.384 53.384 0 0 0-7.819 18.652c-3.993 19.212-7.124 38.606-10.446 57.954-.598 3.485-1.923 5.548-5.551 6.635-14.67 4.398-29.301 8.94-43.839 13.753-9.77 3.235-19.802 6.143-28.918 10.771-12.043 6.116-14.98 20.134-6.606 29.468a52.753 52.753 0 0 0 15.267 11.692c12.04 6.035 24.643 10.934 36.896 16.56 2.801 1.286 4.826 1.178 7.33-.469 9.181-6.035 18.483-11.885 27.718-17.838a14.503 14.503 0 0 0 1.934-2.008l-50.429-20.146.256-1.89c2.41-.913 4.781-1.944 7.234-2.721 19.043-6.035 38.13-11.933 57.111-18.155 1.918-.628 4.283-2.907 4.649-4.771 2.466-12.562 4.378-25.232 6.612-37.84 1.608-9.08 3.438-18.122 5.17-27.18l1.57-.486a69.572 69.572 0 0 1 4.168 5.583q13.985 23.063 27.81 46.222c1.523 2.557 3.079 3.255 6.1 2.421 19.725-5.443 39.506-10.687 59.29-15.913 1.916-.506 3.98-.449 7.555-.815-1.895 2.58-2.748 3.906-3.761 5.096q-20.873 24.517-41.795 48.992c-1.69 1.976-2.973 3.67-1.394 6.586 8.79 16.245 17.403 32.587 26.031 48.919.963 1.822 1.645 3.792 2.457 5.694l-.875 1.396-48.817-13.176c1.822 10.514 3.257 19.867 5.23 29.105.322 1.512 2.828 3.057 4.635 3.664 7.094 2.383 14.294 4.46 21.488 6.533 9.741 2.807 19.37 6.338 29.305 8.064 17.186 2.986 29.876-12.084 24.783-28.687a53.567 53.567 0 0 0-4.038-9.095q-13.385-25.4-26.915-50.725c-1.293-2.43-2.303-4.548.017-7.23q19.923-23.036 39.537-46.34c5.428-6.483 11.305-12.876 15.273-20.23 6.483-12.018-.006-22.347-13.595-21.569z"/><path fill="#3a3633" d="M207.65 208.223c-37.708 6.623-65.397 36.73-70.087 75.142-3.06 25.074-6.637 50.084-9.938 75.13-1.406 10.662-2.697 21.34-4.12 32.652 9.768 0 19.056.094 28.335-.16.845-.023 2.174-2.203 2.358-3.511 1.776-12.657 3.325-25.345 5.01-38.015.46-3.461 1.16-6.89 1.874-11.06 11.788 8.672 24.173 12.911 37.618 13.018 28.468.227 51.183-11.859 68.24-34.243 13.136-17.238 19.273-36.885 15.542-58.606-6.222-36.223-38.911-56.656-74.832-50.347zm44.352 69.788c-2.5 23.287-23.463 42.22-46.794 42.259-24.108.041-40.452-20.21-35.427-43.898 4.934-23.26 27.036-40.162 49.732-38.031 20.564 1.93 34.688 19.177 32.489 39.67zm-135.593-16.574c-4.334-5.862-9.439-11.171-14.366-16.574-8.746-9.588-17.855-18.855-26.384-28.629-8.046-9.218-5.338-19.18 5.996-23.92 9.951-4.16 20.34-.773 27.512 9.043 1.904 2.605 3.642 5.332 5.537 8.122l30.521-22.762c-3.35-4.386-6.036-8.189-9.013-11.747-10.28-12.287-23.702-18.244-39.516-17.812-18.514.505-34.237 8.053-46.578 21.82-12.757 14.233-18.76 30.873-10.976 49.217 3.991 9.408 10.926 17.805 17.58 25.784 8.941 10.72 19.041 20.465 28.345 30.895 3.714 4.163 5.725 9.361 4.768 15.17-1.75 10.62-9.126 16.013-18.652 18.532-10.005 2.646-19.012.262-25.26-8.487-3.245-4.542-5.597-9.722-8.432-14.758-8 4.257-16.078 8.546-24.147 12.85-8.676 4.629-8.793 4.685-4.936 13.918 5.585 13.373 14.48 23.48 28.827 27.75 26.898 8.009 57.17-1.257 74.584-23.253 13.124-16.576 21.17-42.73 4.59-65.159zm240.637-51.304c-33.833 9.83-57.906 38.157-61.174 73.14-1.943 20.8 4.55 39.342 21.014 53.06 21.675 18.063 45.98 18.623 71.462 9.419 3.2-1.156 4.176-3.25 4.533-6.302 1.276-10.885 2.695-21.754 4.213-33.856-7.683 7.187-15.56 11.93-24.937 13.896-26.355 5.526-48.114-13.354-44.797-39.763 2.375-18.914 13.472-32.027 31.28-38.672 21.151-7.893 48.621-1.51 50.4 31.476.741 13.757-1.7 27.722-3.123 41.548-1.147 11.159-2.936 22.252-4.532 34.05 9.745 0 18.874.12 27.99-.17 1.003-.032 2.599-2.316 2.794-3.713q4.525-32.314 8.696-64.677c2.019-15.69-.541-30.517-9.096-44.051-15.523-24.556-45.354-33.917-74.723-25.385zm241.219 44.136c11.135-11.688 22.318-23.33 33.373-35.094 1.253-1.333 2.743-3.462 2.524-4.993-1.448-10.12-3.334-20.177-5.27-31.37l-55.939 61.785-.886-.523 10.543-81.352c-12.827 8.267-24.305 15.594-35.662 23.105-1.015.672-1.598 2.489-1.783 3.855-2.982 22.055-5.859 44.125-8.775 66.19q-4.408 33.352-8.833 66.702c-1.092 8.316-2.075 16.646-3.177 25.533 10.796 0 20.945.144 31.078-.19 1.209-.04 3.14-2.57 3.367-4.144 2.022-13.977 3.718-28.001 5.545-42.007 1.235-9.465 2.525-18.923 3.961-29.656 1.892 2.658 3.062 4.201 4.128 5.813q22.162 33.528 44.365 67.027c.89 1.334 2.722 2.87 4.138 2.893 12.477.197 24.96.076 37.44.012.168-.001.333-.484.627-.94l-63.713-89.32c1.205-1.364 2.044-2.377 2.949-3.326zm-93.118-43.663c-23.615.013-41.843 15.92-45.06 39.462-2.582 18.9-5.03 37.819-7.518 56.732-1.772 13.47-3.51 26.946-5.364 41.19 10.12 0 19.413.136 28.69-.173 1.157-.039 3.025-2.325 3.23-3.76 2.476-17.402 4.701-34.84 6.994-52.268 1.69-12.835 3.29-25.682 5.108-38.499 1.002-7.06 5.619-11.016 12.497-11.098 5.16-.062 10.324.093 15.477-.103 1.218-.046 3.338-.97 3.454-1.733 1.461-9.636 2.632-19.316 3.976-29.75-7.605 0-14.545-.004-21.484 0zM459.9 463.619c-4.17-.287-5.652 1.701-6.784 5.188-3.492 10.751-7.208 21.43-10.847 32.132-8.156 23.993-16.319 47.985-25.063 73.694l-37.04-110.352h-24.894v128.375h15.923V487.828a13.101 13.101 0 0 1 3.51 5.896c10.474 30.674 21.104 61.297 31.244 92.081 1.897 5.76 4.379 7.572 10.492 7.748 6.565.188 8.502-2.657 10.255-8.03 6.47-19.822 13.325-39.52 20.086-59.248 4.52-13.187 9.127-26.345 13.696-39.515l1.658.257v105.697h15.805V463.717c-6.536 0-12.313.295-18.042-.098zm298.633 50.612c-9.53-17.64-39.23-24.871-54.145-6.775-.657.797-1.76 1.225-4.035 2.75V464.17h-14.54v128.572h13.699l.792-10.257c6.2 3.912 11.396 8.647 17.5 10.756 15.108 5.22 33.357-2.7 41.42-18.32 10.361-20.073 10.134-40.651-.691-60.689zm-12.397 52.115a22.956 22.956 0 0 1-23.991 13.504c-10.544-1.36-18.294-7.452-20.106-17.68a90.452 90.452 0 0 1-.527-29.745 24.178 24.178 0 0 1 24.275-20.698c11.59.117 20.59 8.237 23.5 21.547.906 4.143 1.146 8.432 1.691 12.655l.824.387c-1.828 6.703-2.874 13.755-5.666 20.03zM521.883 464.228h-15.75v128.536h79.38v-14.202h-63.63zm83.995 128.829h13.941V464.18h-13.941zm39.516-.228h14.129v-93.962h-14.13zm-.163-113.343h14.477V464.06H645.23z"/></svg>