<svg xmlns="http://www.w3.org/2000/svg" role="img" viewBox="-15.78 -9.78 1704.56 640.56"><title>MMdnn logo</title><defs><style>.cls-3{fill:#777}</style></defs><path fill="#f25022" d="M17.987 23.683h166.5q-.015 83.25-.01 166.5H17.987v-166.5z"/><path fill="#80ba01" d="M201.487 23.683h166.5q0 83.25-.01 166.5-83.235-.015-166.48 0-.03-83.25-.01-166.5z"/><path d="M1519.437 87.123c15.35-9.99 35.18-10.92 52.48-6.16.15 10.28.02 20.57.07 30.86-8.22-3.62-17.89-5.98-26.54-2.43-6.86 2.72-10.94 9.76-12.01 16.8-1.29 8.93-.45 17.98-.67 26.96 17.56.04 35.12.01 52.68.02.13-11.4-.14-22.81.15-34.21 11.94-3.4 23.75-7.21 35.63-10.79.1 15.02-.14 30.05.13 45.08 11.87-.17 23.75-.04 35.63-.08v29.24c-11.92-.49-23.85-.13-35.77-.17.05 16.81.01 33.62.02 50.44.19 9.31-.5 18.67.59 27.95.66 5.47 2.65 11.53 7.78 14.36 8.59 4.81 19.49 2.71 27.38-2.57v29.53c-10.29 4.47-21.79 5.83-32.92 5.04-10.56-.78-21.5-4.62-28.39-13.02-7.96-9.49-10.01-22.34-10.17-34.36-.09-25.8.01-51.6-.04-77.41q-26.355-.015-52.7.01-.03 60.735-.01 121.47h-36.01q0-60.72.02-121.43c-8.35-.16-16.71.04-25.06-.13.03-9.61.07-19.23-.02-28.85 8.31-.19 16.63-.11 24.96-.05.61-12.78-1.34-25.93 2.48-38.38a49.112 49.112 0 0 1 20.31-27.72zm-770.98 2.1c7.26-1.1 15.12 1.38 19.93 7.06a20.528 20.528 0 0 1 2.5 23.39c-4.62 8.2-14.96 12.01-23.97 10.04-9.35-1.68-17.14-10.37-16.72-20.06-.27-10.2 8.26-19.29 18.26-20.43zm-275.97 4.46h52.37q24.45 62.085 49.04 124.13c4.17 10.35 8.07 20.82 12.44 31.09 20.97-51.72 42.24-103.31 63.05-155.1 16.79-.27 33.59-.06 50.39-.1q-.06 104.985-.01 209.97c-12.12-.03-24.23.1-36.34-.07.13-51.65-.01-103.3.06-154.96.02-2.32-.06-4.64-.22-6.96a27.754 27.754 0 0 0-1.89 3.36c-20.81 52.87-42.02 105.59-62.71 158.51-8.62.31-17.25.02-25.88.16-21.47-52.87-42.67-105.86-64.03-158.77-.56-1.1-1.16-2.17-1.81-3.2-.44 22.63-.07 45.28-.19 67.91q.015 47.01.01 94.02c-11.43.03-22.86 0-34.28.01q-.015-105 0-210zm375.07 59.35a98.577 98.577 0 0 1 53.49.16 43.163 43.163 0 0 1 10.27 4.28c-.2 11.47 0 22.95-.11 34.43-11.61-8.87-26.34-14.49-41.1-12.63a42.285 42.285 0 0 0-29.91 16.61c-9.01 11.74-11.09 27.33-9.54 41.69 1.16 11.24 5.81 22.47 14.55 29.92 9.08 8.07 21.81 10.93 33.69 10.03 11.74-1.35 22.82-6.32 32.31-13.26.1 10.87-.05 21.74.08 32.61-14.72 8.76-32.37 11.02-49.22 10.19-17.24-.91-34.43-7.44-46.91-19.56-13.56-13.07-20.92-31.71-21.79-50.38-.88-19.41 3.07-39.66 14.24-55.87 9.36-13.83 24-23.62 39.95-28.22zm393.35-2.29c16.65-2.93 34.08-.78 49.84 5.19.02 11.04 0 22.07.01 33.1a63.456 63.456 0 0 0-37.82-11.17c-6.73.26-14.13 3.11-17.2 9.51-2.44 6.33-.75 14.63 5.22 18.42 10.21 6.83 22.39 9.73 32.97 15.85 8.33 4.68 16.41 10.8 20.63 19.62 7.93 16.52 4.57 38.35-9.37 50.67-13.31 12.44-32.48 15.88-50.11 15.22-12.52-.81-25.1-3.28-36.61-8.4.05-11.61-.07-23.21.06-34.81a78.75 78.75 0 0 0 32.67 14.1c8.23 1.34 17.18 1.4 24.85-2.28 7.34-3.65 8.66-14.08 4.3-20.46-4.08-4.92-10.07-7.63-15.72-10.29-10.61-4.77-21.76-8.76-31.08-15.91a37.255 37.255 0 0 1-13.45-20.43c-2.88-11.97-1.98-25.46 4.98-35.92 7.95-12.19 21.76-19.5 35.83-22.01zm-249.07 4.74c9.94-5.97 22.57-6.47 33.42-2.82-.05 12.01 0 24.02-.03 36.03a38.272 38.272 0 0 0-24.34-5.72c-10.22 1.16-18.32 9.01-22.52 18.01-4.56 9.53-5.42 20.31-5.13 30.73v71.97h-35.5q-.045-75.21-.03-150.43c11.85-.15 23.7-.09 35.55-.03-.05 8.61 0 17.22-.03 25.84 3.85-9.37 9.58-18.47 18.61-23.58zm-258.37-2.26c11.94-.05 23.89-.17 35.83.06-.14 50.13-.01 100.27-.06 150.4h-35.75q-.045-75.225-.02-150.46z" class="cls-3"/><path fill="#02a4ef" d="M17.987 207.173q83.25.03 166.5.02.015 83.25 0 166.49h-166.5v-166.51z"/><path fill="#ffb902" d="M201.497 207.193q83.235-.03 166.49-.01v166.5h-166.5q.015-83.25.01-166.49z"/><path d="M1143.077 156.523c-16.04-7.3-34.27-8.28-51.55-6.08-18.15 2.29-35.82 10.83-47.34 25.3-10.52 12.92-15.64 29.52-16.62 45.99-1.45 19.41 1.79 40.01 13.19 56.21 9.71 13.98 25.04 23.59 41.6 27.13a103.416 103.416 0 0 0 42.16.04c16.19-3.33 31.31-12.29 41.34-25.51 9.8-12.45 14.72-28.15 15.83-43.82 1.13-16.05-.49-32.67-7.16-47.47a63.68 63.68 0 0 0-31.45-31.79zm-3.33 100.87a32.895 32.895 0 0 1-17.69 17.38 48.555 48.555 0 0 1-29.35 1.29 35.94 35.94 0 0 1-22.57-18.62c-5.8-11.58-6.67-24.97-5.47-37.67 1.09-11.55 5.11-23.43 13.91-31.4 6.38-5.96 15.08-8.87 23.69-9.35 10.82-.71 22.34 2.35 30.12 10.22 8.32 8.18 11.54 20.05 12.43 31.37.64 12.39.13 25.3-5.07 36.78zm292.24-99.74c-16.4-8.28-35.48-9.49-53.45-7.26-14.49 1.86-28.73 7.36-39.79 17.07-13.5 11.63-21.42 28.73-23.75 46.22-2.22 17.49-1.47 35.91 5.66 52.28a66.735 66.735 0 0 0 36.58 35.49c16.03 6.31 33.85 7.02 50.72 4.29 17.25-2.85 33.59-11.92 44.27-25.88 11.41-14.42 16.32-33.08 16.29-51.26.25-12.17-1.27-24.51-5.6-35.94a64.254 64.254 0 0 0-30.93-35.01zm-1.55 86.03c-1.38 7.92-4.12 15.82-9.31 22.09-5.23 6.3-13.01 10.14-21.04 11.32-8.62 1.29-17.7.67-25.76-2.8-8.7-3.68-15.44-11.21-18.99-19.87-4.27-10.32-5.12-21.75-4.27-32.79.82-10.69 3.85-21.66 10.91-29.97 6.44-7.76 16.32-12.05 26.28-12.61 10.17-.71 21.03 1.64 28.85 8.51 7.21 5.98 11.2 14.94 13.03 23.96a91.437 91.437 0 0 1 .3 32.16z" class="cls-3"/><path d="M603.654 455.175h42.158v140.213h-27.3V500.55q0-4.088.095-11.461.093-7.372.095-11.368L592.13 595.388h-28.475l-26.38-117.668q0 3.995.095 11.368.093 7.372.095 11.461v94.84h-27.3V455.174h42.633l25.523 110.25zm162.282 0h42.157v140.213h-27.3V500.55q0-4.088.095-11.461.094-7.372.095-11.368l-26.57 117.668h-28.475l-26.38-117.668q0 3.995.094 11.368.093 7.372.095 11.461v94.84h-27.3V455.174h42.633l25.523 110.25zm122.061 38.193a32.936 32.936 0 0 1 11.89 11.463v-49.465h27.492v140.022h-26.35v-14.363q-5.803 9.227-13.222 13.412-7.42 4.185-18.454 4.186-18.17 0-30.582-14.698-12.413-14.695-12.414-37.715 0-26.54 12.224-41.76 12.222-15.218 32.674-15.22a33.442 33.442 0 0 1 16.742 4.138zm6.66 73.864q5.992-8.562 5.992-22.164 0-19.024-9.608-27.206a20.687 20.687 0 0 0-13.697-4.946q-11.892 0-17.456 8.989-5.565 8.99-5.565 22.307 0 14.364 5.66 22.972 5.658 8.61 17.17 8.609 11.508 0 17.503-8.56zm140.968-69.582q10.182 8.418 10.183 27.917v69.821h-27.777v-63.067q0-8.18-2.17-12.556-3.969-7.99-15.109-7.99-13.693 0-18.792 11.7-2.644 6.184-2.644 15.79v56.123h-27.11V491.893h26.254v15.125q5.209-7.99 9.852-11.51 8.333-6.278 21.123-6.278 16.007 0 26.19 8.42zm119 0q10.182 8.418 10.183 27.917v69.821h-27.777v-63.067q0-8.18-2.17-12.556-3.969-7.99-15.109-7.99-13.693 0-18.792 11.7-2.644 6.184-2.644 15.79v56.123h-27.11V491.893h26.254v15.125q5.209-7.99 9.852-11.51 8.333-6.278 21.123-6.278 16.007 0 26.19 8.42z"/></svg>