<svg xmlns="http://www.w3.org/2000/svg" role="img" viewBox="7.91 -9.59 940.68 419.68"><title>Mahout logo</title><defs><style>.cls-2{fill:#1f1f1f}.cls-6{fill:#021637}.cls-11{fill:#fbe500}.cls-13{fill:#ead500}.cls-14{fill:#ebd600}.cls-18{fill:#ead600}.cls-20{fill:#cebc01}.cls-22{fill:#0747a0}.cls-24{fill:#0d5db5}.cls-25{fill:#043c96}.cls-26{fill:#917013}.cls-37{fill:#436db0}.cls-38{fill:#1a1a1a}</style></defs><path fill="#fefefe" d="M26.16 104.56v-96h151.68c-.277 1.47-1.583 1.071-2.47 1.263a25.954 25.954 0 1 0 10.457.04c-.942-.209-2.378.293-2.707-1.303h747.84v256.8c-1.061-.004-.972-.897-1.129-1.535-1.645-6.684-5.789-11.051-12.234-13.336-3.614-1.28-3.588-1.307-3.623-5.119a57.088 57.088 0 0 0-.426-9.089 18.493 18.493 0 0 0-15.88-15.414c-7.25-.941-14.537-.276-21.806-.424a60.493 60.493 0 0 0-10.052.397 18.323 18.323 0 0 0-15.787 18.05c-.016 2.079.04 4.16-.02 6.238-.073 2.6-.522 3.09-3.13 3.112-7.118.057-14.237-.018-21.355.03-8.695.058-14.977 3.9-18.5 11.978-.317.727-.569 1.677-1.488 1.689-.953.012-1.148-1.009-1.466-1.7-3.846-8.358-10.475-12.091-19.542-11.993q-11.756.127-23.515 0c-6.136-.056-11.505 1.671-15.769 6.253-1.277 1.373-2.537 1.932-4.394.784a65.812 65.812 0 0 0-29.162-9.489c-11.396-1.02-22.667-.52-33.735 2.71a62.028 62.028 0 0 0-24.112 13.418c-2.43 2.16-2.417 2.116-4.766-.259a52.974 52.974 0 0 0-28.224-14.839c-6.819-1.334-13.673-1.17-20.542-.639-2.37.184-3.045-.33-3.097-2.763-.083-3.838-.02-7.678-.027-11.518-.021-10.672-7.767-18.861-18.405-19.109q-13.55-.315-27.113-.002c-10.603.238-18.421 8.474-18.439 19.098-.01 5.759.033 11.518-.018 17.276-.027 3.033-.583 3.381-3.453 2.34a87.868 87.868 0 0 0-26.936-5.279 95.63 95.63 0 0 0-27.072 2.579 54.153 54.153 0 0 0-21.316 10.575c-2.672 2.177-3.147 2.058-5.649-.298-8.86-8.344-19.601-12.08-31.558-12.73-9.68-.527-19.073.983-27.715 5.374-3.822 1.942-6.672 1.792-10.338-.277-6.435-3.63-13.64-4.88-21.01-5.114a58.81 58.81 0 0 0-22.877 3.306 5.374 5.374 0 0 1-3.761.034 21.5 21.5 0 0 0-7.334-.948c-6.718.042-13.437.015-20.156.014-.56 0-1.122.026-1.679-.026-.78-.072-1.785.062-2.076-.835-.272-.836.496-1.459 1.044-2.02 1.564-1.603 3.046-3.276 4.53-4.954a125.94 125.94 0 0 0 30.256-61.673c1.672-9.104 2.187-18.266.199-27.398-2.557-11.745-11.135-20.044-22.03-21.539-6.748-.925-13.384-.036-20 1.158a160.097 160.097 0 0 0-20.629 5.455c-3.674 1.185-4.089.975-4.88-2.742a81.65 81.65 0 0 0-13.19-30.884 73.926 73.926 0 0 0-23.562-21.128c-3.539-2.053-7.447-3.3-10.93-5.429a2.171 2.171 0 0 1-.431-.659c-.55-1.876.024-3.841-.448-5.724a6.179 6.179 0 0 1-.183-1.06 8.35 8.35 0 0 0-.26-1.977 5.807 5.807 0 0 1-.158-.628 4.18 4.18 0 0 0-.534-1.505 23.214 23.214 0 0 0-7.777-10.061 3.448 3.448 0 0 0-4.527-.205c-4.127 2.698-8.207 5.474-12.503 7.911a23.772 23.772 0 0 1-5.895 2.552c-6.276 1.888-12.12.313-17.867-2.187a146.94 146.94 0 0 1-14.182-6.924c-7.61-4.336-14.198-1.755-19.426 3.047-4.513 4.146-7.12 9.538-9.457 15.075-1.009 1.933-1.084 4.28-2.63 5.977-4.142 2.06-8.414 3.851-12.494 6.043-17.169 9.223-31.009 21.842-40.118 39.293-1.334 2.556-2.094 2.736-4.413 1.094a5.655 5.655 0 0 1-2.432-6.682c1.142-4.245 2.281-8.488 2.999-12.828 1.637-9.895-5.004-20.188-14.745-22.901-12.447-3.468-23.819 3.827-25.922 16.556-.21 1.267.19 2.931-1.519 3.627z"/><path d="M221.06 76.212a101.413 101.413 0 0 1 13.51 6.682c16.716 10.279 27.373 25.117 32.998 43.754 1.036 3.432 1.812 6.93 2.546 10.596 3.567-1.08 6.972-2.155 10.402-3.14 8.85-2.54 17.8-4.511 27.054-4.876 14.381-.566 24.669 6.903 28.625 19.628a53.386 53.386 0 0 1 1.72 21.14c-2.85 29.747-15.517 54.875-36.117 76.23-.474.492-.927 1.005-1.708 1.855h2.752c7.52 0 15.039.027 22.558-.016a17.874 17.874 0 0 1 6.584 1.063 3.917 3.917 0 0 0 2.974-.064 60.172 60.172 0 0 1 37.686-1.03 38.31 38.31 0 0 1 10.235 4.611 2.544 2.544 0 0 0 3 .09c16.813-8.731 34.001-9.737 51.506-2.19a42.53 42.53 0 0 1 12.592 8.637c.515.495.899 1.127 1.462 1.578a1.426 1.426 0 0 0 .954-.482c7.668-6.976 16.804-11.042 26.838-13.028a93.57 93.57 0 0 1 46.893 2.242c1.066.334 2.117.72 3.174 1.083a11.812 11.812 0 0 0 2.955.983 3.846 3.846 0 0 0 .219-2.101c.017-6.08-.064-12.16.03-18.239a19.12 19.12 0 0 1 14.451-18.402 20.855 20.855 0 0 1 5.22-.661c8.72.014 17.439-.01 26.158.01a19.333 19.333 0 0 1 19.609 19.62c-.124 4.547-.021 9.1-.021 13.707a3.967 3.967 0 0 0 2.412.015c13.124-1.54 25.653.33 37.376 6.623a48.303 48.303 0 0 1 12.872 10.283 8.318 8.318 0 0 1 .69 1.053c1.129-1.043 1.992-1.864 2.88-2.657a61.039 61.039 0 0 1 29.584-14.449 88.512 88.512 0 0 1 42.692 1.673 58.162 58.162 0 0 1 15.42 7.052c1.044.684 1.52.57 2.298-.357a19.358 19.358 0 0 1 15.832-7.068c8.398.086 16.804.22 25.196-.035 8.554-.26 17.017 4.265 20.194 14.25.657-.31.659-.968.86-1.504a19.254 19.254 0 0 1 18.294-12.689c7.6-.007 15.199.004 22.798-.005 1.939-.003 1.95-.025 1.961-1.956.013-2.32-.018-4.64.008-6.96a19.097 19.097 0 0 1 16.474-18.617 33.042 33.042 0 0 1 4.538-.31c8 .015 15.999-.003 23.998.012a20.117 20.117 0 0 1 9.932 2.312c6.654 3.696 9.995 9.444 10.314 16.977.108 2.555.013 5.12.019 7.679.005 2.103.012 2.095 2.048 2.65 6.571 1.795 10.952 5.954 13.43 12.268.471 1.197.1 2.556.921 3.628v24.48c-.626 8.8-5.888 13.747-13.768 16.462a2.462 2.462 0 0 0-1.905 2.642c.015 6.556.037 13.113-.014 19.67a2.486 2.486 0 0 0 2.09 2.702 20.827 20.827 0 0 1 11.528 8.882c1.54 2.42 1.711 5.062 2.07 7.722v25.44c-.629 8.937-6 13.826-14.021 16.49-2.177.724-4.444.569-6.655.707-9.398.586-18.817 1.213-28.175-.52a44.26 44.26 0 0 1-13.829-4.58 3.713 3.713 0 0 0-4.616.24c-4.02 3.138-8.725 4.176-13.73 4.17q-11.394-.016-22.788.004a25.21 25.21 0 0 1-8.03-1.186 6.68 6.68 0 0 0-4.2.088c-17.036 5.048-33.715 4.826-49.812-3.533a40.691 40.691 0 0 1-10.622-8.112c-2.236-2.332-2.203-2.191-4.558-.148a61.55 61.55 0 0 1-34.814 15.142c-2.132.22-4.292-.129-6.39.438H693.84c-2.426-.469-4.904-.316-7.345-.608a61.794 61.794 0 0 1-23.825-8.37c-1.775-1.03-2.97-1.22-4.546.445-3.834 4.053-8.803 5.756-14.279 5.823-9.038.11-18.084.222-27.116-.027-8.349-.23-14.684-3.991-18.265-11.807-.233-.509-.43-1.033-.686-1.532-.029-.057-.117-.083-.312-.213a19.632 19.632 0 0 1-9.726 11.298 20.589 20.589 0 0 1-9.474 2.294q-29.638.06-59.277.008a20.438 20.438 0 0 1-7.52-1.338 6.393 6.393 0 0 0-5.09.136 43.237 43.237 0 0 1-18.675 3.643h-8.533a42.63 42.63 0 0 1-19.964-4.28 4.722 4.722 0 0 0-4.338-.112 22.87 22.87 0 0 1-9.796 1.964c-8.318-.056-16.636-.02-24.954-.018a20.74 20.74 0 0 1-15.32-6.28c-2.007-2.02-2.037-2.014-3.9-.047a19.922 19.922 0 0 1-14.817 6.297q-13.075.152-26.153 0a19.875 19.875 0 0 1-14.608-6.19c-2.02-2.093-2.239-2.118-4.178-.054-4.166 4.432-9.383 6.23-15.303 6.261-8.637.046-17.284.245-25.911-.057-7.875-.275-14.615-3.346-19.306-9.964-1.086-1.533-2.032-1.616-3.59-.888-5.435 2.536-10.919 4.97-16.534 7.088-4.89 1.846-9.932 3.33-15.164 3.284a51.18 51.18 0 0 1-25.233-6.68 62.56 62.56 0 0 1-23.65-23.932c-1.034-1.814-2.021-1.993-3.85-1.16a73.931 73.931 0 0 1-29.08 6.379c-7.035.18-14.064.242-20.92-1.908-12.402-3.89-21.012-11.453-23.56-24.606-1.065-5.5-.557-11.16-.2-16.742.259-4.052.66-8.097 1.057-12.476a37.125 37.125 0 0 1-11.229 4.41c-11.93 2.114-23.873 2.663-35.582-1.099-11.519-3.7-18.216-13.228-18.317-25.368-.035-4.153-.014-8.296-.374-12.455-.337-3.884.46-7.794.415-11.722-.114-9.837-.05-19.675-.027-29.513a15.563 15.563 0 0 0-.855-4.921c-3.446-10.593-6.352-21.323-6.81-32.528-.443-10.823 4.144-19.317 12.543-25.914 1.002-.786 2.055-1.483 2.27-2.935.465-3.13-.044-4.16-3.044-5.26-12.126-4.445-20.012-12.995-24.657-24.907a174.998 174.998 0 0 1-7.108-23.388c-.552-2.332-.294-4.763-.964-7.071v-.96a9.025 9.025 0 0 0 .856-3.675c1.264-8.839 7.618-16.726 18.485-17.849a21.342 21.342 0 0 1 22.335 13.807 20.605 20.605 0 0 1 .851 12.236c-.862 3.73-1.64 7.493-2.758 11.15-.79 2.582.081 4.326 1.935 5.877a17.988 17.988 0 0 0 1.57 1.09c.622.416 1.152.54 1.463-.378a9.537 9.537 0 0 1 .647-1.28c8.107-15.598 20.058-27.52 34.984-36.6a122.716 122.716 0 0 1 18.01-8.906 1.634 1.634 0 0 1 .316 1.775 146.192 146.192 0 0 0-3.34 14.865 3.682 3.682 0 0 1-.418 1.113 6.39 6.39 0 0 1-2.69 1.928c-15.06 8.235-26.996 19.527-34.47 35.193a62.652 62.652 0 0 0-2.8 7.139c-.464 1.385-1.194 2.494-2.84 2.465-9.817-.178-18.514-3.002-24.426-11.355-3.347-4.729-4.75-10.055-2.9-15.912.986-3.12 1.603-6.354 2.422-9.527a11.517 11.517 0 0 0 .398-4.035 6.164 6.164 0 0 0-5.927-5.543c-3.392.046-5.535 2.25-5.696 5.817-.186 4.161 1.107 8.069 2.178 11.983a91.634 91.634 0 0 0 7.09 19.065 21.121 21.121 0 0 0 9.202 9.132 55.951 55.951 0 0 0 10.69 4.198 31.25 31.25 0 0 1 2.73.907c4.512 1.705 4.622 1.876 3.882 6.667-.492 3.184-.13 6.385-.264 9.575-.073 1.717.595 2.285 2.314 1.923 4.223-.891 8.463-1.706 12.695-2.553q16.695-3.345 33.391-6.68c3.097-.621 3.055-.626 3.134-3.697a40.074 40.074 0 0 1 2.794-14.256c.484-.464.91-.154 1.209.192a14.418 14.418 0 0 0 7.246 4.278 2.09 2.09 0 0 1 1.172.768 4.282 4.282 0 0 1 .403 1.902c.017 1.179.004 2.358.007 3.536a11.07 11.07 0 0 0 .167 3.329 6.147 6.147 0 0 1 .182 1.049 8.235 8.235 0 0 0 .28 1.992 6.009 6.009 0 0 1 .183.967 7.448 7.448 0 0 0 .31 1.574 5.06 5.06 0 0 1 .18.966 7.507 7.507 0 0 0 .34 1.967 5.483 5.483 0 0 1 .179 1.06 5.949 5.949 0 0 1-.07 1.507c-.443 1.827-1.898 2.173-3.464 2.413-9.406 1.446-18.825 2.802-28.237 4.205-8.382 1.249-16.837 1.97-25.186 3.438-5.603.985-11.13 2.28-16.123 5.2-6.447 3.77-8.803 9.553-7.818 16.69 1.871 13.554 5.326 26.66 11.905 38.782 8.486 15.636 21.195 25.284 39.092 27.688a172.316 172.316 0 0 0 28.94 1.393 84.987 84.987 0 0 0 10.256-.94 4.109 4.109 0 0 0 3.49-2.528c1.796-4.189 3.82-8.276 5.49-12.523a5.723 5.723 0 0 0-1.224-6.618 58.499 58.499 0 0 1-5.654-6.835 27.592 27.592 0 0 1-5.478-15.84c-.033-2.622-.639-5.22.022-7.865a11.251 11.251 0 0 1 1.699-3.926c2.489-3.483 4.185-3.542 6.824-.228 2.954 4.09 4.308 8.907 5.834 13.587a27.063 27.063 0 0 0 16.882 17.71 31.166 31.166 0 0 1 6.326 3.366c2.705 1.615 4.073 3.9 3.572 7.122-1.627 7.385.054 14.421 3.078 20.998a107.467 107.467 0 0 1 9.276 35.057c.625 6.596.168 13.269.147 19.906a49.602 49.602 0 0 0 13.941 35.227 39.56 39.56 0 0 0 26.094 12.824 20.071 20.071 0 0 0 7.776-1.157c9.508-2.958 18.341-7.508 27.38-11.572a43.52 43.52 0 0 1 6.245-2.447 11.842 11.842 0 0 1 3.157-.016 5.17 5.17 0 0 1 3.955 3.887c.403 2.193.173 4.448.738 6.64a5.329 5.329 0 0 0 4.096 4.195c4.854 1.263 9.183.332 12.266-3.687a11.425 11.425 0 0 0 1.17-12.626c-1.724-3.588-4.748-6.187-6.934-9.417a7.818 7.818 0 0 1-.604-.922 4.41 4.41 0 0 1-.486-3.232c.122-.473.284-.935.446-1.396 1.518-2.985 3.333-5.825 4.408-9.028a7.043 7.043 0 0 0-2.882-8.338c-3.93-2.563-11.069-2.607-14.832.18-3.806 2.818-4.36 6.825-3.431 11.196a4.507 4.507 0 0 1 .06.774 17.193 17.193 0 0 1-.187 3.623 2.15 2.15 0 0 1-1.043 1.273c-2.28.744-4.694-.078-6.982.59-3.494.21-6.986.564-10.482.645-1.956.045-2.904.576-3.114 2.621a35.337 35.337 0 0 1-2.151 9.054 14.42 14.42 0 0 1-3.388 5.435 6.59 6.59 0 0 1-10.063-.455 9.76 9.76 0 0 1-1.556-4.254c-.796-5.46.767-9.791 5.95-12.384a4.38 4.38 0 0 0 1.205-.778 3.01 3.01 0 0 0 .666-3.727c-.664-1.274-1.911-1.389-3.14-1.019a38.542 38.542 0 0 0-7.398 3.385 110.268 110.268 0 0 1-11.806 5.85 7.837 7.837 0 0 1-1.546.138c-4.383-.624-6.368-4.192-5.064-9.099a9.334 9.334 0 0 1 .817-1.968c1.046-2.067 3-2.99 4.948-3.925 2.728-.893 5.544-1.472 8.285-2.324a7.366 7.366 0 0 0 4-2.466 4.184 4.184 0 0 0-2.306-6.794 9.322 9.322 0 0 0-4.262-.054c-2.59.466-5.118 1.226-7.724 1.62a9.616 9.616 0 0 1-5.276-1.081c-1.947-1.188-3.47-2.665-3.488-5.16-.006-.615 0-1.232.037-1.847a5.595 5.595 0 0 1 .18-1.066 11.201 11.201 0 0 0 .363-1.736c.846-2.982 3.302-4.066 5.89-4.997.858-.213 1.748-.272 2.592-.557a52.96 52.96 0 0 1 10.75.177c3.3.49 3.544.344 4.368-2.79 2.231-8.496 4.377-17.025 5.77-25.697 1.01-6.285-.442-12.376-2.534-18.318-2.012-5.715-4.712-11.181-5.976-17.168-1.116-5.283-1.492-10.413-.01-15.796 2.496-9.07 4.877-18.19 6.552-27.47.651-2.988.126-6.019.327-9.021.236-3.525 2.569-5.33 5.535-4.214a6.798 6.798 0 0 1 3.908 4.246 34.615 34.615 0 0 1 1.242 6.047 12.039 12.039 0 0 1 .232 2.072c.001 1.366.025 2.732-.02 4.098a10.733 10.733 0 0 1-.186 1.998 12.27 12.27 0 0 0-.362 3.426 100.674 100.674 0 0 1-5.72 23.179c-.547 1.42-.166 2.053 1.33 2.276a48.031 48.031 0 0 1 12.811 3.818c.97.53 1.962 1.02 2.942 1.534a41.843 41.843 0 0 1 7.41 5.671c1.771 1.809 2.166 1.817 4.197.132a113.182 113.182 0 0 0 17.511-18.026c11.068-14.369 18.624-30.348 21.838-48.262 1.317-7.344 1.993-14.718.337-22.138-1.807-8.094-7.286-11.383-15.38-10.69-16.526 1.414-31.878 7.254-47.302 12.783-2.106.755-4.26 1.39-6.29 2.351q-.544.236-1.102.426c-2.784.941-3.335.64-4.162-2.254-1.71-5.818-3.396-11.644-5.546-17.326a34.78 34.78 0 0 0-5.656-10.212c-.05-.679.472-.95.925-1.239 2.77-1.763 4.476-4.128 4.376-7.556a1.889 1.889 0 0 1 .447-1.31.588.588 0 0 1 .814.233 74.777 74.777 0 0 1 10.976 26.875 7.831 7.831 0 0 0 .264 1.17c.177.508.24 1.279.95 1.179.874-.123.692-.926.63-1.548-1.328-13.427-4.95-26.045-13.107-37.054a57.592 57.592 0 0 0-17.665-15.607 22.754 22.754 0 0 1-4.482-13.254c-.079-1.883-1.328-3.863.159-5.715z" class="cls-2"/><path fill="#fff" d="M26.16 105.52a13.12 13.12 0 0 1 .965 3.665 139.684 139.684 0 0 0 9.528 30.567c4.54 10.062 12.187 16.61 22.355 20.461.746.283 1.477.62 2.242.839.811.232 1.243.664 1.154 1.536a1.958 1.958 0 0 0 .003.479c.464 3.146-.499 5.268-3.259 7.364-7.724 5.862-11.384 13.99-11.469 23.704-.047 5.478 1.104 10.801 2.18 16.12a123.655 123.655 0 0 0 5.127 18.197 7.82 7.82 0 0 1 .544 2.797c-.07 11.354.012 22.712-.217 34.063-.148 7.349-.275 14.69.14 22.028a26.641 26.641 0 0 0 4.644 14.156 25.328 25.328 0 0 0 13.183 9.5 48.574 48.574 0 0 0 13.425 2.28c6.55.266 13.096.367 19.597-.808a36.092 36.092 0 0 0 13.142-4.935 1.77 1.77 0 0 1 1.23-.493 67.337 67.337 0 0 1-.68 7.25c-.564 6.444-1.217 12.898-.763 19.362.84 11.92 7.033 20.278 17.63 25.469 6.284 3.077 13.059 4.183 19.977 4.373a89.852 89.852 0 0 0 30.662-4.504 38.147 38.147 0 0 0 6.363-2.766c1.402-.764 1.44-.756 2.257.73a66.308 66.308 0 0 0 12.277 16.17c10.442 9.96 22.765 15.459 37.322 15.502 4.863.014 9.454-1.422 13.98-3.028 6.105-2.166 11.967-4.906 17.848-7.6 2.312-1.059 1.84-1.14 3.094.808 4.334 6.733 10.885 9.89 18.56 10.22 9.34.399 18.712.179 28.068.064a18.672 18.672 0 0 0 14.888-7.5l.922-1.15c.767.27 1.02.982 1.451 1.497a19.004 19.004 0 0 0 15.066 7.17c8.637.052 17.275-.023 25.912.024 6.858.038 12.43-2.487 16.581-8.009.185-.246.41-.463.623-.7a9.955 9.955 0 0 1 1.943 2.167 18.717 18.717 0 0 0 14.163 6.505c9.357.095 18.715.037 28.072.019a17.15 17.15 0 0 0 8.499-2.168 2.903 2.903 0 0 1 3.088-.032 50.357 50.357 0 0 0 20.256 5.238q.292.093.224.244c-.048.11-.1.165-.157.165H26.16zm682.56 287.04c2.837-.4 5.684-.744 8.51-1.212 13.36-2.213 25.166-7.6 34.821-17.19.739.026.988.598 1.34.991a47.103 47.103 0 0 0 26.497 14.863c10.955 2.218 21.924 2.137 32.677-1.23 2.875-.901 5.484-1.66 8.435-.255a11.078 11.078 0 0 0 4.72.609c8.557-.034 17.113-.017 25.67-.016a18.682 18.682 0 0 0 12.937-4.82 1.873 1.873 0 0 1 2.651-.247c6.478 3.77 13.59 5.418 20.977 6.116 8.791.832 17.559.151 26.31-.506 8.116-.61 15.118-7.45 16.287-15.495a.969.969 0 0 1 .408-.808v19.2zm-220.726-.4a53.874 53.874 0 0 0 19.45-4.668 3.358 3.358 0 0 1 3.136-.06 18.902 18.902 0 0 0 8.379 1.697c19.513-.017 39.027-.135 58.538.045 9.637.088 17.157-5.684 19.677-13.832.092-.3.221-.59.392-1.04.635 1.515 1.104 2.937 1.8 4.239 3.628 6.786 9.343 10.407 17.016 10.542 8.955.157 17.915-.01 26.872.052a19.586 19.586 0 0 0 16.009-7.235c.203-.244.385-.506.609-.802a64.791 64.791 0 0 0 16.031 7.737 76.828 76.828 0 0 0 16.407 3.29c.523.047 1.148-.15 1.53.435H487.92q-.248-.184-.132-.3a.289.289 0 0 1 .206-.1zm442.966-44.24c-.78-1.187-.435-2.627-.938-3.912a19.417 19.417 0 0 0-13.644-12.315c-1.788-.49-1.813-.46-1.815-2.313q-.011-10.533 0-21.067c0-1.978.01-1.985 1.904-2.491a19.352 19.352 0 0 0 13.338-11.688c.601-1.393.4-2.965 1.155-4.294z"/><path fill="#02132f" d="M183.12 8.56c1.05.663 2.296.562 3.442.817a26.566 26.566 0 1 1-10.285-.37c.535-.089 1.133.02 1.563-.447z"/><path fill="#7d7d7d" d="M487.994 392.16q-.03.201-.074.4h-9.12a1.036 1.036 0 0 0-.067-.409l9.261.009z"/><path d="M126.886 74.275c2.296-5.83 5.173-11.3 9.81-15.66a18.282 18.282 0 0 1 10.321-5.093 12.387 12.387 0 0 1 6.544.851c4.12 1.72 8.023 3.89 12.042 5.818 2.225 1.067 4.49 2.05 6.736 3.072a23.7 23.7 0 0 0 16.076 1.55c2.053.347 3.748-.74 5.335-1.66 3.581-2.08 7.101-4.277 10.589-6.52 3.668-2.359 7.7-1.466 11.006 2.426a19.742 19.742 0 0 1 4.56 9.524 31.796 31.796 0 0 1 .64 6.596 38.864 38.864 0 0 0 5.817 22.275c.59.947 1.258 1.9.66 3.11-.578.57-1.061.147-1.404-.245-3.537-4.04-6.373-8.446-7.116-13.918a7.442 7.442 0 0 0-.29-2.518 6.077 6.077 0 0 1-.18-1.115 13.087 13.087 0 0 0-.36-3.803 18.578 18.578 0 0 1-.179-3.18 29.967 29.967 0 0 0-.19-5.44c-.188-.701-.252-1.43-.47-2.124a15.793 15.793 0 0 0-6.24-10.08 2.396 2.396 0 0 0-3.22-.1c-1.433 1.002-2.91 1.941-4.351 2.935-5.01 2.99-9.76 6.508-15.65 7.719-3.159.186-6.316.096-9.47.074-4.825-.696-9.103-2.913-13.457-4.907-3.923-1.795-7.578-4.12-11.605-5.728a11.336 11.336 0 0 0-11.164 1.198c-5.51 3.678-8.519 9.204-11.077 15.04a77.783 77.783 0 0 0-4.126 12.762 6.951 6.951 0 0 0-.402 1.718c-.186.943-.435 1.872-.627 2.815a8.157 8.157 0 0 0-.27 1.904 94.472 94.472 0 0 0-1.823 20.942 30.511 30.511 0 0 0 .555 4.03 3.58 3.58 0 0 1-.148 2.788c-1.32.656-1.771-.42-2.099-1.236a16.088 16.088 0 0 1-1.609-5.962c-.008-3.195-.11-6.399.062-9.584a53.544 53.544 0 0 1 1.313-7.95c.838-4.027 1.413-8.114 2.59-12.081.767-2.58 1.563-5.148 2.458-7.684a5.024 5.024 0 0 0 .413-2.559z" class="cls-6"/><path fill="#020d1c" d="M126.886 74.275a1.558 1.558 0 0 1 .348 2.155c-.514.86-.497 1.868-.896 2.66-1.27 2.528-1.302 5.438-2.63 7.935a4.161 4.161 0 0 0-.107 1.657c-.035.942.172 1.94-.675 2.683a.564.564 0 0 0-.189.423c.443 2.587-1.328 4.843-1.082 7.416a4.035 4.035 0 0 1-.727 3.39c-.421.468-.199 1.235-.201 1.868-.01 2.957.089 5.918-.03 8.87-.109 2.722 1.008 5.048 1.997 7.44a.963.963 0 0 0 .955.568c1.799.638 1.282 2.538 2.158 3.815 2.798-9.757 9.361-14.173 19.431-13.49.02-.801-.786-1.023-.904-1.631a13.343 13.343 0 0 0-1.924-3.57c-.444-.723-1.152-1.404-.653-2.397a1.163 1.163 0 0 1 1.308.274c3.796 2.976 7.8 5.683 11.484 8.802 1.362 1.154 1.773 2.42.158 3.74a3.476 3.476 0 0 1-1.523.276c-3.458-.486-6.836-1.473-10.387-1.393-5.789.13-9.891 2.595-12.002 8.128a50.505 50.505 0 0 0-1.994 7.133c-.264 1.191-.631 2.438-2.114 2.549-1.412.105-2.098-.975-2.66-2.059-3.13-6.024-5.382-12.39-5.182-19.205.14-4.79-.267-9.761 1.815-14.35a118.742 118.742 0 0 1 3.774-16.76 4.995 4.995 0 0 0 .104-1.17l2.348-5.757z"/><path fill="#020c1a" d="M226.813 100.685a3.467 3.467 0 0 0-.431-2.061 31.145 31.145 0 0 1-3.966-7.99c-.59-1.735-1.415-3.5-1.378-5.432a1.595 1.595 0 0 0-.033-.712c-1.787-3.385-.58-7.027-.918-10.533-.15-1.544.407-3.207-.848-4.557-.132-.142-.089-.46-.106-.697a14.395 14.395 0 0 0-5.848-10.582c-.718-.564-1.134-1.35-2.193-1.68a8.12 8.12 0 0 0-6.879 1.063c-2.717 1.598-5.457 3.167-8.089 4.898a25.525 25.525 0 0 1-4.77 2.454 2.975 2.975 0 0 1-2.939-.043c4.74-1.64 8.8-4.513 12.98-7.166a474.082 474.082 0 0 0 5.378-3.478c2.189-1.43 2.47-1.49 4.535.068a24.359 24.359 0 0 1 6.68 7.12c.705 1.214 1.067 2.55 1.64 3.807.378.416.015 1.045.418 1.454l.07.46c.428.587-.044 1.358.398 1.942l.071.944c.607 2.05-.225 4.208.472 6.25l.004-.002c.363 5.302.41 10.668 2.946 15.552.576 1.11 1.283 2.152 1.93 3.225 3.527 3.33 6.865 6.879 11.063 9.43a2.14 2.14 0 0 1 1.1 2.84c-.55 1.234-1.726 1.31-2.873 1.166-2.371-.296-4.68-.935-7.015-1.417a12.69 12.69 0 0 0-10.773 2.561 2.82 2.82 0 0 1-.712.276 8.911 8.911 0 0 1-1.9.135 10.007 10.007 0 0 1-8.386-5.131 42.326 42.326 0 0 1-2.389-4.134c-.357-.777-.917-1.545-.33-2.455 1.564.01 2.043 1.307 2.703 2.34a15.878 15.878 0 0 0 6.184 5.755 3.693 3.693 0 0 0 3.211.28c2.16-1.015 4.529-1.466 6.63-2.575a8.45 8.45 0 0 1 4.776-1.087c.69-.083.415-.38.163-.71-.354-.46-.956-.844-.576-1.578z"/><path d="M221.057 76.215c-.78-.597-.466-1.455-.487-2.21-.038-1.346.006-2.694.015-4.042.678 2.045.397 4.162.472 6.252zm-.543-7.195c-.64-.543-.423-1.263-.398-1.942a2.528 2.528 0 0 1 .398 1.942zm-.468-2.402c-.534-.372-.472-.914-.419-1.454a1.677 1.677 0 0 1 .419 1.454z" class="cls-6"/><path fill="#23a9ff" d="M313.4 369.672c.49-1.89 1.101-3.437 1.398-5.09a15.044 15.044 0 0 0-2.143-10.789 43.777 43.777 0 0 0-4.043-5.354c-.358-.43-.76-.825-1.1-1.267-2.48-3.208-2.387-2.291-.66-5.807.88-1.793 1.727-3.609 2.714-5.343 4.168-7.327-.356-14.543-7.622-16.262-2.4-.568-2.18-.588-2.182-2.82q-.007-23.518-.001-47.035c0-.48.015-.96.022-1.44a.8.8 0 0 1 .886-.879c.88-.029 1.758-.097 2.637-.098q9.84-.014 19.678-.005c.24 0 .48-.002.72.011 1.853.1 1.882.101 1.895 1.9.023 3.28.007 6.56.007 9.84v2.403c.86.139.899-.58 1.186-.964 1.243-1.666 2.406-3.392 3.686-5.028 4.856-6.209 11.385-9.329 19.086-10.32a46.1 46.1 0 0 1 13.835.375c8.764 1.513 14.688 6.596 18.545 14.387.284.573.554 1.152.837 1.725a1.003 1.003 0 0 0 .18.193c.757-.094.888-.825 1.196-1.308 5.953-9.359 14.56-14.24 25.49-15.462 6.937-.776 13.624-.019 19.84 3.115a29.181 29.181 0 0 1 16.177 21.378 57.814 57.814 0 0 1 .966 11.211q-.009 33.235-.066 66.47c-.003 2.303-.016 2.367-2.144 2.372-7.599.017-15.198.019-22.796-.043-2.294-.019-2.345.402-2.345-2.367q.003-26.637 0-53.273c0-3.2.024-6.4-.01-9.6a24.476 24.476 0 0 0-1.3-8.24 12.359 12.359 0 0 0-9.28-8.197 20.548 20.548 0 0 0-9.744.062c-6.733 1.67-10.273 6.364-11.8 12.838a41.442 41.442 0 0 0-.904 9.527q-.018 28.317-.009 56.634c0 2.87.324 2.674-2.743 2.675q-10.799.007-21.597-.002c-2.188-.002-2.204-.02-2.205-2.253q-.006-29.996-.01-59.993a42.215 42.215 0 0 0-.783-8.339c-1.362-6.75-5.17-10.34-11.975-11.143a24.366 24.366 0 0 0-9.734.841c-6.338 1.849-9.274 6.436-10.015 12.683a62.03 62.03 0 0 0-.472 7.413q.047 28.916.017 57.833c0 .64-.002 1.28-.011 1.92-.008.522-.16.988-.773.994-4.13.044-8.263.152-12.532-.079zm265.549-89.779c.453-.614.91-1.225 1.357-1.844 6.638-9.206 15.883-13.294 26.98-13.633 6.978-.214 13.763.886 19.95 4.222 9.662 5.21 15.416 13.146 16.308 24.341.343 4.312.451 8.62.451 12.936q0 30.597-.003 61.193c0 2.882.32 2.688-2.73 2.69q-10.558.006-21.117 0c-.4 0-.8.008-1.2-.003-2.297-.063-2.308-.065-2.309-2.46q-.004-29.757 0-59.513a36.742 36.742 0 0 0-.967-9.268c-2.359-9.141-7.973-12.21-17.058-11.93a22.856 22.856 0 0 0-4.264.602c-7.704 1.728-11.921 7.007-14.157 14.178a42.492 42.492 0 0 0-1.632 12.794q.027 26.276.007 52.553c0 3.022-.001 3.04-2.927 3.044q-10.438.016-20.877.001c-.56 0-1.12-.049-1.679-.046-.899.005-1.31-.408-1.25-1.32.035-.558.003-1.12.003-1.68V234.766c0-.16-.002-.32 0-.48.023-2.73-.325-2.599 2.568-2.6q11.039-.004 22.078.004c2.06.003 2.08.028 2.081 2.12q.01 21.718.004 43.435v2.534zm-62.892 77.887c-1.458 1.352-2.53 2.39-3.646 3.376-4.956 4.38-10.307 8.162-16.741 10.012-10.115 2.908-20.1 2.737-29.598-2.238-9.1-4.766-13.83-12.511-14.64-22.693a40.94 40.94 0 0 1 .887-13.093c2.256-9.213 7.95-15.499 16.44-19.384 5.646-2.585 11.676-3.81 17.773-4.754 6.47-1.002 13.034-1.341 19.439-2.8a18.193 18.193 0 0 0 5.343-2.069 7.635 7.635 0 0 0 3.955-7.174c-.113-4.934-2.283-7.977-7.028-9.398a36.354 36.354 0 0 0-16.145-.828c-6.178.955-9.678 4.836-11.277 10.678-.796 2.91-.799 2.91-3.897 2.91q-10.08 0-20.159-.005c-2.157-.003-2.228-.032-2.024-2.084 1.041-10.46 4.779-19.535 13.642-25.853a37.853 37.853 0 0 1 15.441-6.235c13.053-2.375 25.93-1.913 38.524 2.592a41.615 41.615 0 0 1 8.231 3.871c6.243 3.935 9.37 9.857 10.59 16.944a41.689 41.689 0 0 1 .526 7.165q-.038 23.52.001 47.038c.01 4.555.01 9.112.384 13.662.277 3.375 1.282 6.24 4.524 7.903.845.433 1.315 3.338.743 4.096a.95.95 0 0 1-.587.325 11.747 11.747 0 0 1-1.437.053q-12.359.004-24.718-.001c-2.177-.002-2.187-.016-2.856-2.033a39.596 39.596 0 0 1-1.69-9.984zm186.186 15.432a72.133 72.133 0 0 1-18.55-2.323c-11.707-3.297-20.27-10.506-26.294-20.95-6.052-10.495-8.3-21.858-7.911-33.847a59.617 59.617 0 0 1 11.2-33.592 41.324 41.324 0 0 1 24.255-16.493 69.082 69.082 0 0 1 32.292-.343c12.109 2.717 21.298 9.456 27.825 19.986a60.519 60.519 0 0 1 9.008 29.214c.582 10.974-1.077 21.524-5.95 31.43-4.17 8.478-9.82 15.701-18.23 20.443a50.318 50.318 0 0 1-16.958 5.652 101.273 101.273 0 0 1-10.687.823zm123.318-17.022a1.362 1.362 0 0 0-1.19.805c-6.646 9.477-15.771 14.41-27.316 14.932a46.074 46.074 0 0 1-17.726-2.176c-9.412-3.341-15.123-10.083-17.824-19.54a69.322 69.322 0 0 1-2.365-18.967c-.053-20.554-.02-41.108-.02-61.661 0-.4.035-.803-.001-1.2-.084-.916.316-1.307 1.23-1.304 1.36.003 2.719-.072 4.078-.074q9.957-.013 19.914 0c2.195.003 2.211.02 2.212 2.244q.007 30.47.012 60.941a35.178 35.178 0 0 0 1.277 9.951 12.67 12.67 0 0 0 9.638 9.36 23.82 23.82 0 0 0 14.592-.908c5.826-2.248 9.162-6.749 10.856-12.586a48.896 48.896 0 0 0 1.55-13.768q-.014-26.152-.003-52.304c0-2.902.002-2.924 2.8-2.93q11.036-.019 22.073 0c2.187.003 2.208.026 2.208 2.29q.007 49.065.002 98.13c0 .4-.014.8-.008 1.199a1.005 1.005 0 0 1-1.162 1.166c-.32-.006-.64.008-.96.008q-10.916.001-21.833-.005c-1.988-.004-2.017-.036-2.027-1.985-.021-3.833-.007-7.666-.007-11.617zm43.074-35.794v-30.225c0-.48.01-.96-.003-1.44-.048-1.717-.051-1.752-1.708-1.764-3.438-.024-6.877.001-10.315-.011-2.084-.008-2.157-.022-2.174-2.04q-.062-7.434.01-14.87c.015-1.764.093-1.79 1.922-1.8 3.518-.019 7.037.01 10.555-.013 1.659-.012 1.7-.047 1.704-1.762q.025-12.114.009-24.228c0-.56.026-1.121 0-1.68-.037-.781.256-1.217 1.092-1.19.399.014.8-.007 1.199-.007h21.83c2.474 0 2.277-.14 2.278 2.389q.006 11.754.001 23.509c0 .48.04.963-.006 1.438-.108 1.115.308 1.612 1.485 1.553 1.436-.071 2.878-.015 4.317-.015 3.119.002 6.238.039 9.355-.016 1.152-.02 1.526.397 1.517 1.533a803.287 803.287 0 0 0 .005 15.593c.015 1.278-.452 1.645-1.669 1.628-3.917-.054-7.836-.02-11.754-.018a15.437 15.437 0 0 1-1.678-.009c-1.317-.144-1.7.516-1.576 1.694a9.197 9.197 0 0 1 .004.959q0 25.668-.01 51.336a36.518 36.518 0 0 0 .46 5.489c.393 2.6 1.233 3.422 3.764 3.963 3.4.727 6.84.486 10.272.404 2.133-.05 2.155-.078 2.16 1.958.013 5.358-.026 10.715.026 16.072.012 1.218-.374 1.673-1.61 1.734a186.364 186.364 0 0 1-19.169.37 35.55 35.55 0 0 1-12.11-2.64 15.557 15.557 0 0 1-9.776-12.659 35.675 35.675 0 0 1-.42-5.728c.028-9.836.013-19.671.013-29.507z"/><path fill="#e9d500" d="M291.52 362.342a5.776 5.776 0 0 0-3.284-3.423c-1.116-.436-2.276-.107-3.412-.198a35.817 35.817 0 0 0-7.74 2.481 66.636 66.636 0 0 1-14.795 4.81 19.837 19.837 0 0 0-7.291 2.924c-7.649 5.14-15.552 4.903-23.692 1.198a54.699 54.699 0 0 1-12.43-8.088 33.905 33.905 0 0 1-6.963-8.505c-4.972-8.18-8.15-16.886-7.927-26.726.183-8.053.575-16.141-.84-24.171-1.663-9.44-3.358-18.825-7.214-27.723-2.989-6.897-5.51-14.003-5.323-21.728a17.694 17.694 0 0 1 .292-3.337c.17-.78-.325-.27-.514-.35a3.618 3.618 0 0 1-.023-.712 4.863 4.863 0 0 0-2.455-5.243 7.378 7.378 0 0 1-.88-.778 14.372 14.372 0 0 0-4.921-3.293c-9.704-3.984-15.596-11.27-18.587-21.144a26.143 26.143 0 0 0-5.42-9.979 8.067 8.067 0 0 1-1.176-1.168c-.437-.651-.65-1.515-1.716-1.315a3.926 3.926 0 0 0-2.34 1.364 10.743 10.743 0 0 0-2.74 7.233 50.21 50.21 0 0 0 .642 9.31 31.164 31.164 0 0 0 7.368 14.598q2.176 2.556 4.411 5.061a3.914 3.914 0 0 1 .762 4.231 171.09 171.09 0 0 1-6.895 15.812 1.715 1.715 0 0 1-1.472 1.036c-1.66.231-3.308.61-4.976.732a180.406 180.406 0 0 1-23.718.262 112.207 112.207 0 0 1-18.288-2.275c-13.335-3.016-23.375-10.667-30.759-22.02-6.226-9.573-9.986-20.142-12.604-31.171a109.964 109.964 0 0 1-2.302-12.482c-.895-7.578 1.132-13.482 8.515-17.783 4.202-2.448 8.834-3.67 13.541-4.642 6.737-1.39 13.598-1.928 20.396-2.9q10.909-1.557 21.818-3.119c4.819-.698 9.628-1.465 14.45-2.135 1.257-.174 2.113-.62 2.313-1.95a1.25 1.25 0 0 0-.025-1.435l-.064-.887c-.412-.61.027-1.38-.381-1.99l-.107-.876c-.318-.462-.043-1.063-.36-1.525l-.105-.904c-.438-.596.047-1.386-.413-1.977l-.092-.852c-.462-1.12.122-2.35-.37-3.467v-3.848c.197-1.11.5-2.118 1.942-2.049a3.814 3.814 0 0 1 2.345.425 2.786 2.786 0 0 1 .567 2.49c-.706 3.698.072 7.319.446 10.963q.05.477.075.956c.385 7.305-1.721 10.101-8.912 11.47-13.673 2.601-27.52 4.058-41.271 6.157-6.794 1.037-13.62 1.84-20.008 4.713-6.715 3.02-10.229 8.302-9.375 15.625 1.571 13.466 5.082 26.36 12.241 38.063 4.32 7.06 9.623 13.15 16.791 17.458a49.054 49.054 0 0 0 15.923 5.813 117.89 117.89 0 0 0 34.604 1.415 9.251 9.251 0 0 0 7.417-4.701 25.188 25.188 0 0 0 2.126-4.557 10.188 10.188 0 0 0-1.248-9.581c-3.844-5.643-7.254-11.549-8.595-18.345-1.023-5.185-.959-10.368 1.558-15.217 3.059-5.893 8.195-6.622 12.835-1.952 3.158 3.177 4.554 7.282 6.152 11.285a66.386 66.386 0 0 0 3.063 7.029c2.797 5.183 7.359 8.336 12.36 10.983a49.893 49.893 0 0 1 7.084 4.485c2.83 2.172 4.801 5.1 4.643 8.568-.5 10.922 3.439 20.66 7.147 30.577 3.658 9.782 5.276 20.045 6.028 30.476.514 7.118.215 14.227.453 21.335.226 6.735 2.796 12.82 6.082 18.52a40.819 40.819 0 0 0 18.714 16.978 27.13 27.13 0 0 0 8.324 2.157 9.395 9.395 0 0 0 4.702-.707c1.562-.646 2.391-1.834 1.6-3.43a80.014 80.014 0 0 1-4.659-13.082c-.55-1.861-1.868-2.62-3.825-2.563-1.925.057-3.797.526-5.73.51-6.872-.053-10.983-4.879-10.054-11.646a18.41 18.41 0 0 1 2.877-7.026c1.729-2.88 1.48-4.06-1.127-6.126-.94-.745-1.912-1.45-2.831-2.223-6.532-5.496-4.605-15.807 3.706-19.42 3.065-1.333 6.39-1.435 9.636-1.782a7.684 7.684 0 0 0 7.11-5.837c2.08-6.893 4.356-13.809 4.73-21.021.31-5.948-1.434-11.687-3.474-17.294-2.321-6.381-4.784-12.728-5.618-19.554a33.104 33.104 0 0 1 .45-10.957c1.775-8.455 4.064-16.79 5.867-25.238a67.934 67.934 0 0 0 1.05-8.316 19.947 19.947 0 0 1 .895-4.944c1.082-3.058 3.078-5.288 6.42-5.812 3.203-.502 5.482 1.157 7.386 3.548 2.822 3.543 3.257 7.792 3.364 12.03a85.973 85.973 0 0 1-1.636 18.114 56.662 56.662 0 0 0-1.207 8.058 5.652 5.652 0 0 0 2.676 5.297 93.834 93.834 0 0 0 13.84 7.114c4.015 1.773 7.459-.163 10.413-2.955a89.606 89.606 0 0 0 9.437-10.848 111.56 111.56 0 0 0 20.05-40.845 81.084 81.084 0 0 0 2.148-16.376 31.674 31.674 0 0 0-.593-7.39c-1.482-7.533-6.698-10.152-14.524-9.46-9.143.806-17.85 3.581-26.589 6.204-6.212 1.865-12.263 4.177-18.379 6.311a19.397 19.397 0 0 1-8.015 1.15 7.081 7.081 0 0 1-6.126-4.023 48.848 48.848 0 0 1-3.012-7.308c-1.81-5.89-3.832-11.707-7.343-16.872-.672-.988-1.365-2.065-.321-3.266a2.237 2.237 0 0 1 2.173-.555c3.39 3.667 4.866 8.357 6.652 12.842 1.56 3.913 2.717 7.987 4.15 11.956a4.78 4.78 0 0 0 1.235 2.278 3.856 3.856 0 0 1 .41.815c.41 1.74.718 1.933 2.397 1.284a5.33 5.33 0 0 1 1.969-.632c2.236.131 4.154-.945 6.15-1.674 12.788-4.668 25.638-9.123 39.05-11.692 2.027-.388 4.103-.493 6.156-.74.791-.007 1.582.012 2.374-.027a15.702 15.702 0 0 1 8.483 1.888c4.723 2.718 6.438 7.203 7.051 12.284a21.01 21.01 0 0 1 .046 3.091c-.027 2.51.003 5.017-.01 7.524 0 .527-.007 1.056-.029 1.582a92.122 92.122 0 0 1-8.282 29.905c-4.743 10.26-10.347 20.028-18.089 28.416-1.895 2.053-3.357 4.488-5.401 6.415-2.681 2.527-5.393 5.03-9.228 5.705a43.08 43.08 0 0 1-2.216.006c-3.174-.26-5.53-2.35-8.221-3.69-1.08-.48-2.156-.969-3.198-1.531-2.311-1.372-4.785-2.406-7.205-3.556-1.964-.933-4.141-1.838-4.224-4.582-.03-1.03-.005-2.061-.048-3.091a54.133 54.133 0 0 1 2.058-10.832 4.242 4.242 0 0 0 .355-1.853 17.942 17.942 0 0 1 .895-5.265c.147-1.093.009-2.202.172-3.294.07-.793.264-1.608-.38-2.285l.033-4.33a3.334 3.334 0 0 0 .348-.785 3.604 3.604 0 0 0 .018-1.344c-.425-.4-.192.351-.439.259-.322-1.542-.598-3.094-.979-4.621a7.89 7.89 0 0 0-2.39-4.293 4.104 4.104 0 0 0-3.254-1.143 2.65 2.65 0 0 0-2.567 2c-.736 2.424-.566 4.865-.539 7.314.014 1.257.331 2.528-.265 3.74-1.53-1.959-.192-4.166-.56-5.913a12.799 12.799 0 0 1-.047 1.32 6.99 6.99 0 0 0-.234 2.204c.289 4.653-1.374 8.964-2.343 13.396-1.551 7.1-3.719 14.05-5.059 21.2a5.939 5.939 0 0 0-.259 1.912c.68 6.365 1.802 12.637 4.379 18.538 1.537 3.52 2.58 7.202 3.865 10.804a28.073 28.073 0 0 1 1.352 10.852c-.045 1.206-.03 2.412-.009 3.618-.158 4.903-1.789 9.529-2.758 14.276a57.465 57.465 0 0 1-2.229 7.813c-1.511 4.229-4.325 6.582-8.923 6.56a7.22 7.22 0 0 0-2.25.245c-1.708.226-3.456-.23-5.148.294-.568.423-1.41.22-1.899.827-.896.454-1.82.86-2.68 1.374a5.053 5.053 0 0 0-2.663 3.325c-.394.425-.045 1.059-.418 1.49l-.057.91a1.929 1.929 0 0 0 .004 1.916c-.124 2.257 1.496 3.442 2.92 4.749 1.97 1.818 4.57 2.086 6.981 2.795.986.29 2.033.394 3 .758 2.639.993 2.994 2.474.927 4.364-1.93 1.765-4.157 3.176-6.152 4.875-.861.734-1.737 1.4-1.87 2.627a11.358 11.358 0 0 0-.927 5.359c.244 3.554 1.118 4.593 4.754 5.28a3.691 3.691 0 0 0 1.746.13c3.013-.432 5.806-1.697 8.773-2.31 3.076-.637 4.74.583 4.953 3.736.114 1.668-.07 3.351.128 5.014.098.828-.064 1.778.736 2.407l1.39 3.908c1.289 2.957 3.785 4.228 6.774 4.513 2.064.197 3.45-1.16 4.323-2.89a37.494 37.494 0 0 0 3.602-8.85c.237-1.101.667-2.132 1-3.196a7.384 7.384 0 0 1 5.517-5.104c3.385-.982 6.902-1.159 10.304-1.988 1.494-.183 3.033.35 4.495-.293l.532-.927a7.352 7.352 0 0 0-.003-3.834l-.006-.488a20.917 20.917 0 0 0 .806-3.71c2.234-9.33 11.216-10.036 16.699-6.71a6.04 6.04 0 0 1 2.72 4.829 13.81 13.81 0 0 1-1.022 6.547 50.12 50.12 0 0 0-1.927 5.14 10.327 10.327 0 0 0-.008 1.116 5.59 5.59 0 0 0 .531 3.321c-.165.7.272 1.214.553 1.78 2.006 2.87 4.185 5.605 5.623 8.851 3.1 6.995-1.009 14.148-8.596 14.81-3.176.278-5.858-1.452-7.29-4.722a47.176 47.176 0 0 0-1.96-4.824z"/><path d="M120.66 97.961c-.323 3.818-.806 7.617-1.033 11.45a39.708 39.708 0 0 0 3.222 17.99c.649 1.545 1.395 3.05 2.098 4.572a1.637 1.637 0 0 0 1.882 1.127c.865-.153 1.077-.802 1.222-1.564.312-1.647.62-3.3 1.059-4.917a26.573 26.573 0 0 1 1.37-3.832 12.104 12.104 0 0 1 11.23-7.627c3.964-.2 7.78.701 11.61 1.508.775.98.714 1.065-.985 1.38a28.948 28.948 0 0 0-9.686-.867 11.959 11.959 0 0 0-10.428 7.923c-1.904 4.694-2.539 9.372.029 14.052a1.245 1.245 0 0 1 .083.928c.104 1.332-.592 2.466-.919 3.69a41.789 41.789 0 0 0-1.549 12.556c.059 1.391-.382 1.881-1.793 2.154-10.971 2.122-21.921 4.356-32.878 6.553q-7.749 1.553-15.5 3.093c-.778.155-1.562.278-2.269.403-.68-.59-.446-1.267-.452-1.864a80.818 80.818 0 0 1 .74-13.863c.218-1.334-.326-1.712-1.317-2.044q-4.543-1.52-9.082-3.054a54.121 54.121 0 0 1-7.052-2.99 20.931 20.931 0 0 1-9.254-9.078c-3.44-6.463-5.619-13.383-7.53-20.402-.65-2.386-1.176-4.806-1.73-7.218a12.844 12.844 0 0 1-.262-5.229c.414-2.278 1.506-4.068 3.775-4.844a6.45 6.45 0 0 1 6.75 1.11 7.17 7.17 0 0 1 2.29 7.599c-.88 3.565-1.676 7.155-2.684 10.684-2.154 7.543.343 13.741 5.677 18.894 5.892 5.692 13.262 7.702 21.318 7.634 1.201-.01 1.443-.722 1.72-1.576a68.265 68.265 0 0 1 5.993-13.302c6.961-11.973 16.79-21.033 28.615-28.04a31.043 31.043 0 0 1 5.72-2.989zm69.014 189.428c.923 12.717 1.873 25.302 2.727 37.893a40.546 40.546 0 0 1-.656 10.499c-.845 4.354-3.13 7.346-7.44 8.861a75.144 75.144 0 0 1-12.277 3.177 68.64 68.64 0 0 1-15.994 1.053 36.64 36.64 0 0 1-11.903-2.513c-6.164-2.572-10.595-7.54-10.47-15.638a200.684 200.684 0 0 1 2.219-26.01c1.065-7.274 2.256-14.52 4.032-21.659.577-2.322.58-2.325 2.973-2.33 2.16-.004 4.319-.016 6.478.004 1.975.019 2.196.15 1.968 1.995a94.218 94.218 0 0 0-.335 13.896c.213 8.601 3.777 15.91 9.28 22.328 1.866 2.174 3.244 2.203 5.64.514a31.914 31.914 0 0 0 6.366-6.481 188.013 188.013 0 0 0 12.663-18.633c1.174-1.905 2.297-3.842 3.483-5.739.272-.435.357-1.086 1.246-1.217zM70.306 249.26a77.896 77.896 0 0 0 8.4 8.58c7.49 6.392 15.723 11.488 25.2 14.399a35.48 35.48 0 0 0 10.834 1.74c1.206-.014 1.657.326 1.7 1.604.083 2.39.414 4.77.596 7.156.55 7.21-2.727 12.071-9.609 14.432a36.707 36.707 0 0 1-10.37 1.657 70.6 70.6 0 0 1-15.998-.891c-7.534-1.388-10.864-4.936-11.143-12.413-.445-11.89-.038-23.781.39-36.263z" class="cls-11"/><path fill="#ffc" d="M162.63 309.308c-1.758-7.907-2.63-15.744-1.009-23.736a137.827 137.827 0 0 1 7.528-25.706c.643-1.544 1.398-3.04 2.139-4.64 1.2.45 1.626 1.76 2.655 2.085 1.11.352 1.683 1.335 2.644 1.823.997.506 1.962 1.075 2.952 1.594.91.475 1.017 1.362 1.202 2.22a41.415 41.415 0 0 1-.503 19.226c-2.751 10.735-8.849 19.378-16.873 26.798a2.982 2.982 0 0 1-.736.336zm126.247-21.945a29.597 29.597 0 0 1-9.3-2.953 79.965 79.965 0 0 1-16.377-10.35 4.783 4.783 0 0 1-1.729-2.225q-4.025-12.292-8.085-24.573a1.067 1.067 0 0 1-.025-.966c.608-.32 1.186.054 1.765.235a47.361 47.361 0 0 1 22.496 15.263 10.765 10.765 0 0 0 2.544 2.759c.707.431.779 1.915 1.364 2.858a58.488 58.488 0 0 1 7.139 18.206c.104.46.115.942.208 1.746z"/><path d="M262.055 280.217a13.016 13.016 0 0 1 2.458 3.835 107.51 107.51 0 0 1 8.87 27.013 45.11 45.11 0 0 1 1.014 8.794c-.003 5.235-2.39 8.208-7.486 9.307a28.52 28.52 0 0 1-5.719.53 5.578 5.578 0 0 1-5.693-3.93 18.285 18.285 0 0 1-1.039-9.657c1.254-7.325 3.194-14.507 4.691-21.782l2.904-14.11z" class="cls-11"/><path d="M190.387 249.506c.56-.29.183-1.057.893-1.517 0 2.173.129 4.214-.03 6.232-.238 3.014.542 5.862 1.256 8.698a90.21 90.21 0 0 0 5.028 14.141 64.206 64.206 0 0 1 3.681 12.057c1.257 5.727 2.248 11.495 3.098 17.3a68.18 68.18 0 0 1 .393 9.056c.056 4.154.21 8.322-.033 12.463a37.021 37.021 0 0 0 3.183 16.267c1.81 4.412 3.687 9 7.274 12.479a12.038 12.038 0 0 1 1.115 1.545c3.008 4.052 7.248 6.606 11.372 9.287.998.648 2.174 1.017 3.203 1.623 3.018 1.779 6.319 2.357 9.746 2.871 5.149.773 9.608-.693 13.727-3.43a23.17 23.17 0 0 1 8.56-3.38 62.71 62.71 0 0 0 13.582-4.41 20.864 20.864 0 0 1 8.453-2.305q.231.154.147.295c-.054.092-.108.139-.163.139-8.237 3.284-16.07 7.474-24.277 10.825-2.143.875-4.329 1.646-6.469 2.529-6.883 2.837-13.754 2.251-20.593-.098a41.792 41.792 0 0 1-18.551-13.123 50.228 50.228 0 0 1-11.435-23.929 43.673 43.673 0 0 1-.547-7.155c-.038-4.556-.134-9.117.019-13.67.218-6.52-.922-12.882-1.925-19.267a83.386 83.386 0 0 0-6.705-21.664 50.317 50.317 0 0 1-4.71-17.474 21.967 21.967 0 0 1 .708-6.385z" class="cls-13"/><path d="M304.56 145.36c-4.844.313-9.508 1.607-14.24 2.548-6.58 1.308-12.797 3.758-19.151 5.776-4.768 1.514-9.514 3.092-14.139 5.025-1.186.496-2.524 1.15-3.825.108 4.83-2.103 9.842-3.723 14.8-5.48a197.641 197.641 0 0 1 28.25-8.22c5.093-.989 10.212-1.87 15.445-1.275a11.684 11.684 0 0 1 10.118 7.696c1.722 4.225 1.998 8.69 1.907 13.182-.274 13.473-3.805 26.165-9.416 38.32a113.794 113.794 0 0 1-32.147 41.495c-.31.25-.642.48-.93.754-.674.64-1.211.498-1.811-.153a48.451 48.451 0 0 0-8.93-7.199c-.073-.397-.023-.656.469-.417a18.468 18.468 0 0 1 4.867 2.287 6.793 6.793 0 0 0 3.293 1.073 2.598 2.598 0 0 0 2.4 0c2.793-.276 4.76-2.134 6.792-3.737a31.232 31.232 0 0 0 5.353-5.73c2.599-3.41 5.582-6.504 8.1-9.994a107.26 107.26 0 0 0 6.894-10.881 118.544 118.544 0 0 0 10.136-23.637 68.307 68.307 0 0 0 2.577-12.811c.092-.943.309-1.874.468-2.81.456-.583.162-1.265.248-1.898-.152-2.566.309-5.15-.248-7.702a21.447 21.447 0 0 0-1.132-7.673c-1.479-5.05-6.702-8.577-12.083-8.646-.555-.007-1.11-.001-1.665-.001a2.598 2.598 0 0 0-2.4 0z" class="cls-14"/><path fill="#fae400" d="M217.186 109.332c2.479-2.875 5.747-3.478 9.291-3.14a59.458 59.458 0 0 1 8.183 1.578c1.03.247 2.222.804 3.03-.45.543-.842.104-1.559-1.593-2.741-3.865-2.692-7.546-5.574-10.16-9.59a43.646 43.646 0 0 1 11.149 8.176c9.648 9.183 15.12 20.634 17.998 33.47a116.067 116.067 0 0 1 1.854 11.824 2.887 2.887 0 0 1-.07 1.652c-2.482.484-2.53.494-2.986-1.856a76.613 76.613 0 0 0-5.472-17.814 32.86 32.86 0 0 0-3.881-6.597 7.37 7.37 0 0 1-1.845-4.002 2.06 2.06 0 0 1-.727-1.45c-1.225-6.395-7.142-9.911-13.26-10.306a15.386 15.386 0 0 0-8.978 1.756 2.862 2.862 0 0 1-1.587.44c-.511-.121-1.074-.193-.946-.95z"/><path fill="#020f25" d="M132.333 140.084a12.329 12.329 0 0 1-2.05-10.858 36.57 36.57 0 0 1 1.901-5.647 11.01 11.01 0 0 1 7.745-6.529 20.851 20.851 0 0 1 12.447.524 11.214 11.214 0 0 1 6.118 2.825 9.068 9.068 0 0 1 1.637 1.435c4.476 5.2 4.536 10.78 1.428 16.632a33.225 33.225 0 0 1-3.156 3.394c-1.22 1.196-2.824 1.76-4.266 2.596a16.517 16.517 0 0 1-6.713 1.557 15.772 15.772 0 0 0-3.954-.42 5.35 5.35 0 0 1-1.985-.16c-3.718-.64-6.983-2.057-9.152-5.349z"/><path fill="#021025" d="M218.344 109.921c6.587-3.944 13.09-3.355 19.355.633a10.796 10.796 0 0 1 4.984 9.288 7.723 7.723 0 0 0-.076 1.188c.382 4.446-2.052 7.056-5.741 8.858-.02.34-.201.473-.531.416l-1.853.686c-2.581 1.59-5.46 1.614-8.348 1.588a9.676 9.676 0 0 1-4.16-.968 12.389 12.389 0 0 1-3.838-2.935 18.2 18.2 0 0 1-3.928-12.39 9.794 9.794 0 0 1 .642-2.442 10.088 10.088 0 0 1 2.548-3.578 3.8 3.8 0 0 1 .946-.344z"/><path d="M249.84 272.56a32.674 32.674 0 0 0-2.038-12.855c-1.286-3.863-2.968-7.56-4.265-11.4a77.3 77.3 0 0 1-2.295-9.004c-.483-2.322-.678-4.705-1.001-7.061.46-.38.043-1.052.48-1.44a14.501 14.501 0 0 1 .706-4.684c1.735-7.154 3.614-14.274 5.338-21.43.704-2.92 1.498-5.858 1.155-8.926.542-.545-.036-1.369.48-1.92.125-1.28-.369-2.666.887-4.219l.143 8.696a100.773 100.773 0 0 1-2.66 12.633c-1.19 5.048-2.319 10.123-3.828 15.08-1.55 5.092-1.183 10.067-.034 15.104a86.652 86.652 0 0 0 4.323 12.675 79.505 79.505 0 0 1 3.553 10.666 35.966 35.966 0 0 1 .015 16.832c-1.815 7.85-3.531 15.723-5.636 23.503-.473 1.747-.486 1.743-2.373 1.433-4.277-.703-8.59-.497-12.895-.505-.526.113-1.154.45-1.175-.538.859-.863 1.942-.39 2.924-.464.94-.073 1.89-.016 2.836-.016.551-.516 1.376.062 1.92-.48 3.913.102 6.728-1.474 8.155-5.254a82.387 82.387 0 0 0 3.368-12.117c.41-1.933.717-3.898 1.287-5.783a13.41 13.41 0 0 0 .63-4.686 6.245 6.245 0 0 0 0-3.84z" class="cls-18"/><path d="M247.463 355.063c-.112.508-.435 1.128-.752.292a9.122 9.122 0 0 1-.727-3.71c.071-1.353.052-2.713.008-4.067-.088-2.698-1.367-3.63-3.986-3.077a50.603 50.603 0 0 0-5.731 1.605 6.252 6.252 0 0 1-3.713.375q-.24-.145-.156-.284c.055-.091.11-.137.165-.137 5.175-2.658 10.346-5.328 15.532-7.966a24.817 24.817 0 0 1 3.285-1.427c2.044-.69 3.678-.084 4.24 1.456a3.951 3.951 0 0 1-1.696 4.842c-4.455 2.068-6.767 5.413-6.415 10.427a15.718 15.718 0 0 1-.054 1.671z" class="cls-13"/><path d="M291.52 362.342c1.365.69 1.624 2.08 2.044 3.337a10.895 10.895 0 0 0 1.715 3.372 5.907 5.907 0 0 0 5.932 2.107 10.157 10.157 0 0 0 2.992-.7 9.578 9.578 0 0 0 4.643-13.013 29.376 29.376 0 0 0-4.222-6.88 4.968 4.968 0 0 1-1.504-2.645c-.32-.525-.397-.938.429-.938a80.428 80.428 0 0 1 6.19 7.586 12.87 12.87 0 0 1 2.036 10.69c-1.541 6.405-6.605 9.273-12.372 8.947a15.2 15.2 0 0 1-2.6-.4 5.823 5.823 0 0 1-4.769-5.031 51.46 51.46 0 0 1-.515-6.432zm10.64-19.702c-.106-2.251 1.118-4.106 1.882-6.082a13.337 13.337 0 0 0 .98-6.044 5.64 5.64 0 0 0-4.034-5.303c-2.959-1.02-5.85-1.332-8.771.044a9.365 9.365 0 0 0-5.402 7.302c-.22 1.248-.25 2.533-1.424 3.357a11.94 11.94 0 0 1-.425-4.026c.424-5.202 3.094-8.33 8.227-9.51a15.502 15.502 0 0 1 10.284.97c4.258 1.995 5.79 6.004 3.983 10.323a78.397 78.397 0 0 1-4.363 8.493c-.257.268-.383.794-.937.476z" class="cls-18"/><path fill="#f1dc00" d="M229.684 321.1c2.63-.6 5.252-1.236 7.892-1.789a8.546 8.546 0 0 1 4.471.154c1.793.582 3.152 1.597 3.477 3.529a5.177 5.177 0 0 1-1.97 5.296 10.562 10.562 0 0 1-3.645 1.714c-2.745.784-5.516 1.477-8.276 2.207-.77-1.333.289-1.84 1.13-2.376 1.6-1.02 3.288-1.915 4.796-3.066 1.827-1.395 1.624-2.576-.516-3.386a12.722 12.722 0 0 0-4.917-.49c-1.103.026-2.75.31-2.442-1.792z"/><path d="M280.078 341.774a4.553 4.553 0 0 1-2.446.834c-3.072.057-5.895 1.159-8.8 1.935a4.235 4.235 0 0 0-3.075 2.749 42.196 42.196 0 0 0-1.616 4.71 32.662 32.662 0 0 1-4.232 9.812c-1.438 2.276-3.384 2.852-5.983 2.09a8.598 8.598 0 0 1-5.195-3.914c-.238-.396-.286-.723.122-1.02 3.42 3.475 7.274 3.261 10.295-.645 2.458-3.18 3.35-6.985 4.081-10.829a22.85 22.85 0 0 0 .441-3.308c.079-1.914-.096-2.013 2.03-2.011 3.982.003 7.926-.708 11.911-.533a2.651 2.651 0 0 1 2.467.13z" class="cls-13"/><path d="M257.04 228.4a2.334 2.334 0 0 0 1.306 2.339 23.49 23.49 0 0 0 4.204 2.165 17.83 17.83 0 0 1 5.53 3.176q.212.194.132.376-.08.179-.154.179a62.22 62.22 0 0 0-12.76-3.764c-3.035-.482-3.014-.524-1.923-3.466a96.847 96.847 0 0 0 5.216-20.516c.097-.706.279-1.4.421-2.1.315-.352.09-1.213.972-1.029.34.451-.042 1.1.416 1.52a9.615 9.615 0 0 0-.96 5.28c-.461.38-.044 1.052-.48 1.44-.395 1.748-.893 3.48-1.158 5.248a35.71 35.71 0 0 0-.762 5.792 4.91 4.91 0 0 0 0 3.36z" class="cls-14"/><path d="M158.102 208.357c.218-.362.508-.38.742-.065a37.669 37.669 0 0 1 5.596 10.746c1.647 5.01 3.873 9.857 7.811 13.534a35.67 35.67 0 0 0 9.63 6.167 33.336 33.336 0 0 1 5.132 3.42.372.372 0 0 1 .015.614c-3.305-1.916-6.8-3.454-10.244-5.085a23.066 23.066 0 0 1-10.943-10.908 55.762 55.762 0 0 1-3.06-7.507 48.651 48.651 0 0 0-4.68-10.916zM229.684 321.1c.595 1.565 1.833 1.44 3.138 1.231a7.421 7.421 0 0 1 6.004 1.326c1.151.895 1.247 1.45.322 2.527-1.43 1.663-3.43 2.508-5.285 3.555-1.022.577-2.26.95-2.23 2.472a13.708 13.708 0 0 0-4.333 3.236c-.501-1.641.703-2.38 1.691-3.265 2.07-1.853 4.54-3.208 6.492-5.2 1.065-1.088.97-1.588-.24-2.427a7.067 7.067 0 0 0-3.162-.98 49.021 49.021 0 0 1-5.495-1.558 2.814 2.814 0 0 1-2.173-1.99 15.136 15.136 0 0 0 5.27 1.074z" class="cls-13"/><path d="M236.335 130.304l.531-.416c1.037-.092 1.309.792 1.736 1.418a44.389 44.389 0 0 1 4.924 10.072 155.184 155.184 0 0 1 4.903 15.972c-1-.001-1.29-.664-1.569-1.496q-1.902-5.66-3.916-11.282a54.916 54.916 0 0 0-6.11-12.942 2.868 2.868 0 0 1-.5-1.326z" class="cls-14"/><path d="M280.078 341.774l-2.467-.13c2.383-.712 4.843-.248 7.257-.481-.49.759-1.265.486-1.944.523-.947.051-1.897.06-2.846.088z" class="cls-20"/><path d="M259.464 201.52c1.27.173.84 1.175.936 1.92-.647.525.276 1.629-.744 2.015-.793-.648-.408-1.437-.264-2.197z" class="cls-14"/><path d="M268.058 236.635l.022-.555c.892.616 2.045.71 2.88 1.44l-.47.417a6.928 6.928 0 0 1-2.432-1.302zm-8.666-33.377c.139.71-.202 1.54.528 2.102a.286.286 0 0 1 .12.32q-.06.16-.12.16l-.908.948a9.003 9.003 0 0 1 .38-3.53z" class="cls-18"/><path d="M285.397 336.402a3.826 3.826 0 0 1 .003 3.834l-.003-3.834z" class="cls-20"/><path d="M259.424 195.32c.011-.225.014-.451.035-.676.028-.303.116-.708.467-.586.373.13.026.485-.006.742a1.893 1.893 0 0 1 0 1.92l-.423.471a4.11 4.11 0 0 1-.073-1.87z" class="cls-14"/><path d="M141.485 145.432l1.623.013q.365.02.232.361c-1.153-.18-1.475.73-1.925 1.47a3.265 3.265 0 0 1 .07-1.844zm143.387 213.485l.016-.434c1.122.097 2.324-.413 3.348.436l-3.364-.002zM141.414 151.123c.758 1.088.342 2.301.37 3.467a5.404 5.404 0 0 1-.37-3.467z" class="cls-20"/><path d="M228.72 305.2c.266.451.722.49 1.174.538a5.506 5.506 0 0 1-2.586.526c.244-.655.9-.764 1.412-1.064z" class="cls-13"/><path d="M221.494 315.279a1.203 1.203 0 0 1-.004-1.916z" class="cls-20"/><path d="M303.55 346.982a.98.98 0 0 0-.43.938c-.642-.523-.597-1.013.07-1.473a.495.495 0 0 1 .36.535z" class="cls-13"/><path d="M141.876 155.442c.647.552.452 1.28.413 1.977a2.794 2.794 0 0 1-.413-1.977zm.985 5.281c.618.57.431 1.293.38 1.99a2.658 2.658 0 0 1-.38-1.99zm78.686 151.73c-.074-.557-.124-1.106.418-1.49a1.931 1.931 0 0 1-.418 1.49zm-79.153-154.13c.515.415.444.968.36 1.525a1.864 1.864 0 0 1-.36-1.525z" class="cls-20"/><path d="M302.16 342.64l.937-.476a1.106 1.106 0 0 1-.438.962z" class="cls-13"/><path d="M232.57 346.06l-.008.421c-.51-.014-1.058.106-1.435-.395l1.444-.026zM143.306 163.6a.823.823 0 0 1 .025 1.437z" class="cls-20"/><path fill="#0c56af" d="M180.339 58.984a23.605 23.605 0 0 1-23.508-23.566c.022-13.51 10.18-23.842 23.708-23.788 13.954.056 23.677 10.892 23.631 23.86a23.721 23.721 0 0 1-23.831 23.494z"/><path d="M177.345 68.098l10.58-.014c3.132-.074 5.813-1.5 8.448-2.95 2.447-1.348 4.938-2.604 7.423-3.875 3.747-1.915 7.147-1.122 9.763 2.174a17.742 17.742 0 0 1 3.359 8.55c.644 4.022.716 8.081 1.047 12.124.317 3.871 1.846 7.535 2.947 11.261.93 3.146.58 4.465-1.858 6.508-2.085 1.748-4.35 1.752-6.719.69-1.902-.852-3.238-2.605-5.243-3.296a3.322 3.322 0 0 1-1.568-2.143c-.203-.77-.532-1.62.245-2.214.859-.657 1.674-.095 2.428.351a10.564 10.564 0 0 1 2.958 2.412 4.662 4.662 0 0 0 3.306 1.733 2.801 2.801 0 0 0 3.289-3.326 13.295 13.295 0 0 0-.82-3.74c-2.365-5.505-2.052-11.418-2.74-17.178-.04-.33.418-1.092-.567-.736-1.064-.593-.845-1.645-.883-2.563a13.066 13.066 0 0 0-1.627-5.96c-1.274-2.263-3.248-2.792-5.47-1.447-1.983 1.201-3.742 2.732-5.622 4.088a29.495 29.495 0 0 1-13.521 5.056c-7.648 1.092-14.33-1.435-20.976-4.512-3.48-1.612-6.849-3.446-10.39-4.946-5.488-2.325-10.133-.919-14.371 2.808-4.93 4.336-7.525 10.006-9.371 16.157-.991 3.304-1.117 6.773-2.17 10.05-1.58 3.062-1.594 6.467-2.045 9.756a32.092 32.092 0 0 0-.027 5.742c.114 2.577 1.61 3.597 4.037 2.542a11.318 11.318 0 0 0 5.713-4.885c1.05-1.923 1.422-1.945 3.214-.502a2.003 2.003 0 0 1 .218.742 8.032 8.032 0 0 1-4.104 5.585c-2.167 1.178-4.176 2.652-6.628 3.28-2.41.618-3.516.165-4.7-2.044a9.288 9.288 0 0 1-.995-4.146c-.216-5.534.88-10.9 1.66-16.342a76.227 76.227 0 0 1 4.19-15.412 38.486 38.486 0 0 1 8.765-14.419 20.28 20.28 0 0 1 6.34-4.202c4.59-1.995 8.653-.138 12.628 1.656 4.647 2.097 9.135 4.56 13.909 6.377 1.893.72 3.814 1.56 5.948 1.21z" class="cls-22"/><path fill="#0e5db5" d="M177.345 68.098a1.44 1.44 0 0 1-1.528.43 37.268 37.268 0 0 1-10.125-3.388c-4.53-2.061-8.89-4.46-13.68-6.014-2.989-.97-5.467-.232-8.026.834-3.583 1.492-6.045 4.324-8.233 7.391a50.524 50.524 0 0 0-6.486 13.45c-.887 2.633-1.597 5.32-2.526 7.936a3.622 3.622 0 0 0-.24 1.16 36.442 36.442 0 0 1-.793 5.124c-.752 5.093-1.615 10.22-1.152 15.425a8.633 8.633 0 0 0 1.776 4.125c.628.908 1.767.66 2.673.413a29.264 29.264 0 0 0 8.218-4.23c1.464-.963 2.14-2.712 2.727-4.378 2.341.147 3.404 2.016 4.74 3.517.488.952 1.764 1.076 2.282 2.223a3.768 3.768 0 0 1-2.284.165 23.352 23.352 0 0 0-7.346.734c-5.396 1.6-8.438 5.447-10.342 10.467a8.088 8.088 0 0 1-1.21 2.91c-1.135-1.56-1.235-3.48-2.141-5.052a51.403 51.403 0 0 1-1.105-11.098 106.068 106.068 0 0 1 2.052-17.206c.388-.433.058-1.057.401-1.502a7.008 7.008 0 0 1 .543-2.816c.42-.42.062-1.06.423-1.495a57.078 57.078 0 0 1 9.346-22.718c2.372-3.35 5.444-6.255 9.63-7.516a11.147 11.147 0 0 1 7.668.36c3.536 1.428 6.824 3.33 10.23 5.007 4.675 2.301 9.35 4.642 14.508 5.742z"/><path d="M207.05 98.805c1.752-.15 2.632 1.321 3.835 2.14a9.323 9.323 0 0 0 3.152 1.633 6.328 6.328 0 0 0 6.757-3.777 2.433 2.433 0 0 0 .03-1.85c-1.192-3.19-1.714-6.593-2.81-9.773-.958-2.778-.667-5.463-.792-8.198a27.185 27.185 0 0 0-.44-3.533c-.469-2.638-.854-5.283-1.49-7.897-1.196-4.925-6.381-8.048-10.566-6.102-2.658 1.236-5.185 2.751-7.786 4.113-2.597 1.359-5.218 2.67-8.209 2.935a.902.902 0 0 1-.807-.412c5.446-1.604 10.044-4.865 14.9-7.62.439.125.742-.19 1.106-.324 5.167-1.907 9.28-.233 11.742 4.72.52 1.047.61 2.317 1.586 3.133.562.556.426 1.279.468 1.96.542 1.907-.192 3.903.405 5.807l.063 3.323c.55 1.248-.17 2.634.423 3.878l.047.931c.493.75-.073 1.678.407 2.43.612 4.63 2.93 8.472 5.672 12.092a7.704 7.704 0 0 0 2.07 2.271c.524 1.041 1.573 1.62 2.297 2.451-.353.625-.87.298-1.272.405-3.919-.742-7.402.64-10.649 2.511a4.734 4.734 0 0 1-5.533-.142c-2.506-1.71-4.33-3.92-4.606-7.105z" class="cls-24"/><path d="M217.258 67.993c-.267.33-.61.647-.893.104-.4-.765-.676-1.593-1.019-2.388-1.615-3.753-4.881-6.94-9.854-5.428-.749.227-1.741.88-2.668.183 1.706-1.153 3.417-2.298 5.113-3.465a1.537 1.537 0 0 1 1.965-.16c3.785 2.837 6.792 6.192 7.356 11.154z" class="cls-24"/><path d="M218.13 75.76c-.895-1.883-.308-3.869-.404-5.808.832 1.887.373 3.865.405 5.808zm.487 7.2c-.908-1.208-.325-2.58-.423-3.877.804 1.22.349 2.578.423 3.878zm.454 3.362c-.733-.71-.38-1.601-.407-2.43.679.719.423 1.595.407 2.43z" class="cls-25"/><path d="M125.963 87.223c.047.551.13 1.114-.424 1.495a1.522 1.522 0 0 1 .424-1.495zm-.966 4.311c.052.55.14 1.11-.4 1.502a1.524 1.524 0 0 1 .4-1.502z" class="cls-22"/><path d="M217.768 110.42l-2.473 3.279a2.211 2.211 0 0 1-1.013.614c-4.77.467-8.591 3.272-12.793 5.141-8.961 3.987-18.138 5.32-27.74 2.46a39.722 39.722 0 0 0-15.638-1.093 24.855 24.855 0 0 0-5.735-3.247c.286-.331 1.651.46.944-.906l1.42-.144c1.055-.21 2.06-.625 3.13-.781a29.315 29.315 0 0 1 3.552-.317 40.106 40.106 0 0 1 13.711 1.467c10.181 2.997 19.494.608 28.47-4.242.42-.227.814-.501 1.24-.72 1.231-.544 2.392-1.246 3.679-1.675a16.78 16.78 0 0 1 9.246.164z" class="cls-26"/><path fill="#031838" d="M160.921 115.978c-1.073.06-2.139.474-3.223.075-1.899-1.4-2.742-3.634-4.233-5.372a47.255 47.255 0 0 0-7.972-6.804c-1.259-.94-2.434-.146-3.633.166.201 1.502 1.398 2.446 2.09 3.673a3.152 3.152 0 0 1 .74 2.177c-1.783-.899-2.97-2.6-4.74-3.516a.91.91 0 0 0-.046-.379c-.69-2.179.314-4.787 2.368-5.483 2.064-.699 4.255-.875 6.191.47a36.705 36.705 0 0 1 11.946 12.783c.366.688.92 1.34.512 2.21z"/><path fill="#f7e100" d="M141.86 104.043c1.804-1.719 2.206-1.79 4.029-.577 4.92 3.27 9.118 7.224 11.81 12.587-.917.598-1.851 1.078-2.96.471.895-1.538.913-1.857-.26-2.77-3.265-2.542-6.527-5.094-9.884-7.512-.96-.69-1.607-1.744-2.735-2.2z"/><path fill="#031b41" d="M208.079 110.787a4.938 4.938 0 0 1-2.71 1.445c-1.83-2.617-2.319-5.843-3.893-8.58-.314-.546-.45-1.189-.743-1.751-.917-1.761-1.263-3.643.338-5.037 1.532-1.334 3.385-.886 5.054.111a2.677 2.677 0 0 0 .925 1.83c.833 1.45 1.623 2.927 2.511 4.342a7.377 7.377 0 0 0 3.178 2.818 3.618 3.618 0 0 0 4.016-.29 12.976 12.976 0 0 1 11.083-2.133c-2.184-.109-4.045.8-6.058 1.509-2.379.837-4.581 2.414-7.253 2.383a4.987 4.987 0 0 1-2.432-.671 15.621 15.621 0 0 1-6.507-6.375 3.762 3.762 0 0 0-1.905-2.035c-.16 1.708 1.003 2.937 1.65 4.33a60.373 60.373 0 0 1 2.585 5.629c.275.796.82 1.605.16 2.475z"/><path fill="#e7d302" d="M208.079 110.787c-1.02-3.599-2.752-6.907-4.167-10.345-.245-.597-1.161-1.298-.23-2.09a33.014 33.014 0 0 0 3.73 6.865 9.356 9.356 0 0 0 7.364 4.221 2.403 2.403 0 0 0 1.957-.024 1.118 1.118 0 0 1 .453-.082c.253.458.714.507 1.158.59l-.576.498a22.515 22.515 0 0 0-7.802.303 3.837 3.837 0 0 1-1.887.064z"/><path d="M216.733 109.414a1.206 1.206 0 0 1-1.957.024l1.957-.024z" class="cls-26"/><path d="M515.194 320.392c-.054 5.692.376 11.503-.93 17.24-1.256 5.511-4.154 9.778-9.255 12.454-5.454 2.861-11.162 4.352-17.317 3.172-5.912-1.134-9.193-4.872-9.746-10.827-.673-7.249 2.396-12.13 9.25-14.69 4.593-1.714 9.436-2.371 14.219-3.244 4.425-.808 8.76-1.802 12.695-4.09a.928.928 0 0 1 1.084-.015zm210.867-1.727a44.426 44.426 0 0 1-2.6 17.25c-2.21 5.797-5.662 10.736-11.639 13.012-9.09 3.46-17.893 3.061-25.636-3.545a22.942 22.942 0 0 1-7.061-12.03 54.942 54.942 0 0 1 .336-30.265c1.927-6.345 5.549-11.565 11.831-14.33a25.088 25.088 0 0 1 20.923-.002c5.842 2.572 9.285 7.395 11.4 13.245a44.643 44.643 0 0 1 2.446 16.665z" class="cls-2"/><path d="M225.877 131.98a72.03 72.03 0 0 0 8.605-.99 1.701 1.701 0 0 0 .177 2.197c4.078 5.656 6.163 12.17 8.197 18.728a33.594 33.594 0 0 0 2.713 6.37 6.577 6.577 0 0 0 5.67 3.431c3.8.244 7.239-.987 10.676-2.259q8.96-3.317 18.107-6.062c4.732-1.424 9.499-2.677 14.28-3.9a65.457 65.457 0 0 1 10.574-1.646 14.48 14.48 0 0 1 8.582 1.533c3.906 2.254 5.685 5.872 5.968 10.273a20.085 20.085 0 0 0 .428 4.748 4.336 4.336 0 0 1-.097 2.371 5.857 5.857 0 0 0-.298 1.635 56.665 56.665 0 0 1-2.673 16.664 84.234 84.234 0 0 1-5.824 15.663c-2.597 5.036-4.951 10.203-8.166 14.897a133.61 133.61 0 0 1-11.4 14.704c-2.3 2.523-4.493 5.046-7.656 6.613a8.414 8.414 0 0 1-7.554 0c-4.05-1.856-7.997-3.96-11.883-6.145-5.168-2.904-4.718-4.546-4.19-9.296.472-4.248 1.732-8.417 2.09-12.667.334-3.955 1.039-7.945.556-11.924-.435-3.592-.598-7.258-3.026-10.372-1.853-2.376-3.938-4.127-7.01-3.62-3.428.567-5.468 2.99-6.138 6.269a79.315 79.315 0 0 0-1.048 8.98 52.637 52.637 0 0 1-1.618 8.173c-1.62 6.476-3.038 12.998-4.661 19.47-1.544 6.153-.958 12.135.619 18.138 1.46 5.558 3.679 10.86 5.445 16.31a58.167 58.167 0 0 1 2.206 10.234c.69 5.137-.627 9.924-1.7 14.781-.669 3.027-1.536 6.012-2.343 9.007a16.586 16.586 0 0 1-1.815 4.163 6.189 6.189 0 0 1-3.637 2.934 22.316 22.316 0 0 1-5.15.892 21.676 21.676 0 0 0-6.534 1.25 11.109 11.109 0 0 0-7.652 9.257c-.615 4.276 1.177 7.615 4.623 10.115.837.607 1.704 1.173 2.522 1.805 2.023 1.561 2.384 3.187 1.197 5.437a18.985 18.985 0 0 1-1.703 2.878c-1.691 2.163-1.862 4.729-1.854 7.25a8.686 8.686 0 0 0 8.483 8.642c2.5.137 4.89-.664 7.38-.534 2.328.122 2.878.365 3.73 2.563a29.091 29.091 0 0 1 1.02 3.432 33.07 33.07 0 0 0 3.023 8.291 11.417 11.417 0 0 1 .778 1.747c.82 2.294.052 3.767-2.308 4.541a14.561 14.561 0 0 1-8.25-.01 32.664 32.664 0 0 1-13.665-7.096c-.598-.522-1.3-.924-1.892-1.452a42.23 42.23 0 0 1-10.633-14.582c-.964-2.184-1.74-4.452-2.563-6.695a26.308 26.308 0 0 1-1.465-9.138c-.001-3.04-.12-6.084.026-9.117.24-4.96-.533-9.868-.593-14.816a51.601 51.601 0 0 0-1.378-8.927c-1.107-5.776-2.132-11.577-4.189-17.122-1.634-4.408-3.517-8.718-4.994-13.191a44.8 44.8 0 0 1-2.326-14.299 24.373 24.373 0 0 0-.167-4.778c-.716-3.696-2.993-6.166-5.962-8.288-2.875-2.056-6.08-3.505-9.099-5.283-6.088-3.583-9.494-9.03-11.705-15.44a56.57 56.57 0 0 0-3.46-8.132 14.325 14.325 0 0 0-5.695-5.994 5.042 5.042 0 0 0-5.416.235 10.705 10.705 0 0 0-4.933 7.34 27.923 27.923 0 0 0 1.458 16.631 63.088 63.088 0 0 0 7.084 12.964c2.248 3.202 2.325 6.512 1.222 10.014a20.344 20.344 0 0 1-2.898 5.742 10.314 10.314 0 0 1-7.38 3.983 100.05 100.05 0 0 1-17.21.45c-8.348-.315-16.646-1.126-24.65-3.836a46.957 46.957 0 0 1-15.435-8.825c-5.298-4.478-8.883-10.155-12.297-15.996a56.765 56.765 0 0 1-3.87-7.971 112.378 112.378 0 0 1-4.926-16.448 76.638 76.638 0 0 1-1.845-12.946c-.302-6.176 4.183-11.772 9.658-14.098a67.602 67.602 0 0 1 17.762-4.354c5.03-.672 10.015-1.697 15.054-2.265 5.207-.586 10.354-1.555 15.57-2.096 4.803-.498 9.553-1.529 14.314-2.393a12.85 12.85 0 0 0 3.176-1.042 6.794 6.794 0 0 0 4.147-6.455 66.214 66.214 0 0 0-.861-10.203 6.924 6.924 0 0 1 .03-2.852 15.898 15.898 0 0 0 .337-4.276c.542-.616 1.404.004 1.972-.51 2.344.06 4.456-.868 6.627-1.546 1.416-.103 2.111 1.002 2.93 1.822 14.587 14.6 25.632 31.387 31.728 51.256a16.059 16.059 0 0 0 14.199 11.132 16.496 16.496 0 0 0 15.958-9.372c1.256-2.765 1.196-5.792 1.259-8.707.294-13.817 1.277-27.576 2.813-41.307q.787-7.025 1.826-14.01a4.102 4.102 0 0 1 .896-2.671zm75.803 201.374c.264 2.02-.746 4.017-1.104 6.127-.2 1.172-.59 2.313-.77 3.486a9.063 9.063 0 0 0 .96 5.098c1.26 2.864 3.33 5.26 4.58 8.127 1.084 2.486 1.609 4.992.579 7.635a5.647 5.647 0 0 1-5.374 3.713c-2.195-.206-3.7-1.736-4.748-3.597a36.557 36.557 0 0 0-2.686-4.23c-2.589-3.411-6.034-4.098-10.012-3.456-3.49.563-6.714 1.952-10.024 3.074a11.367 11.367 0 0 1-4.232.594c-1.77-.08-2.434-.651-2.674-2.37a10.772 10.772 0 0 1 7.718-11.937 27.113 27.113 0 0 1 6.09-1.082c4.425-.167 7.386-2.466 8.173-6.9a26.586 26.586 0 0 1 2.053-6.341c1.762-3.89 7.652-5.576 10.65-1.726.777.997.825.96.822 3.785z" class="cls-20"/><path d="M321.84 161.68c.67.539.466 1.298.473 1.986.02 2.058.007 4.116.007 6.174q-.24.327-.48 0z" class="cls-13"/><path d="M147.641 145.384c-.58.466-1.351.199-1.972.51l-2.33-.088q-.123-.176-.23-.362l4.532-.06z" class="cls-2"/><path d="M259.92 205.84v-.48c.068-.663-.223-1.416.48-1.92v3.84c-.565-.345-.463-.912-.48-1.44zm-10.08 66.72a3.637 3.637 0 0 1 0 3.84zm7.2-44.16a2.77 2.77 0 0 1 0-3.36zm24.48 12.48a1.63 1.63 0 0 1-2.4 0z" class="cls-13"/><path d="M304.56 145.36a1.63 1.63 0 0 1 2.4 0zm-44.64 51.36v-1.92a1.157 1.157 0 0 1 0 1.92z" class="cls-18"/><path d="M248.4 193.84c-.068.663.224 1.416-.48 1.92.068-.663-.223-1.416.48-1.92zm-12 110.4c-.504.704-1.257.412-1.92.48.504-.703 1.257-.412 1.92-.48zm4.32-73.44c-.017.528.085 1.095-.48 1.44.017-.528-.085-1.095.48-1.44z" class="cls-13"/><path d="M321.84 169.84h.48c-.017.528.085 1.095-.48 1.44zM258.96 214c.017-.528-.085-1.095.48-1.44-.017.528.085 1.095-.48 1.44z" class="cls-18"/><path fill="#c67a41" d="M214.772 116.15a19.58 19.58 0 0 0 3.869 12.415 2.668 2.668 0 0 1 .146 2.51c-.671 2.365-.93 4.833-1.808 7.143-1.649 6.517-3.66 12.886-7.185 18.694-4.615 7.605-11.094 9.084-18.92 5.671-7.255-3.165-13.265-8.224-19.264-13.254-1.527-1.28-3.081-2.533-4.535-3.9-1.609-1.628-3.482-2.98-5-4.705-.552-.628-1.39-1.13-1.12-2.187a21.235 21.235 0 0 0 2.04-6.314 12.947 12.947 0 0 0-3.56-10.27c.94-1.097 2.192-.788 3.34-.65a104.502 104.502 0 0 1 12.7 2.205c9.708 2.405 18.96 1.273 27.568-4.066a25.048 25.048 0 0 1 9.034-3.643c.927-.156 1.892-.494 2.695.351z"/><path fill="#e15d01" d="M160.954 138.537a24.913 24.913 0 0 0 4.486 4.59c.656.573 1.225 1.211 1.855 1.797 2.615 3.635 5.622 6.956 8.373 10.483a128.813 128.813 0 0 1 17.641 31.207 33.425 33.425 0 0 0 3.777 7.736c1.772 2.373 3.856 4.21 7.141 4.145 4.677-.094 7.379-2.513 7.992-7.206a114.131 114.131 0 0 0 .999-16.97c-.078-4.162.899-8.248 1.137-12.4.426-7.415 1.236-14.797 2.274-22.153a1.914 1.914 0 0 0-.317-1.587 94.716 94.716 0 0 0 2.329-9.614 16.168 16.168 0 0 0 3.384 2.495c.83 1.156.606 2.429.416 3.7-1.764 11.853-3.02 23.752-3.69 35.722-.402 7.173-.877 14.334-.935 21.524a13.239 13.239 0 0 1-11.358 13.406c-5.986.935-13.338-2.786-15.235-9.353-4.184-14.488-11.48-27.351-20.69-39.204-3.535-4.55-7.557-8.668-11.28-13.05-.553-.651-1.312-1.228-1.126-2.26z"/><path fill="#927013" d="M158.127 141.545c1.355 1.568 2.646 3.196 4.075 4.692a138.86 138.86 0 0 1 19.258 25.55 105.462 105.462 0 0 1 10.327 23.898c1.59 5.408 5.53 8.152 10.695 9.065 4.942.873 9.106-1.09 12.298-4.933a11.842 11.842 0 0 0 2.382-7.134 18.073 18.073 0 0 0 .01-1.92c-.265-5.677.34-11.334.634-16.984.268-5.15.611-10.317 1.191-15.463.427-3.787.696-7.607 1.114-11.402a232.88 232.88 0 0 1 1.658-12.044 34.545 34.545 0 0 0 .255-3.81 15.834 15.834 0 0 0 3.853.92c-.551 4.255-1 8.527-1.698 12.757-.326 1.97-.415 3.963-.618 5.926-.442 4.268-.932 8.538-1.17 12.837a768.77 768.77 0 0 1-.99 15.49c-.295 3.913-.068 7.829-.45 11.708-.277 2.81.057 5.714-1.295 8.422a17.021 17.021 0 0 1-27.259 4.705 14.673 14.673 0 0 1-4.095-6.559 109.596 109.596 0 0 0-15.19-31.558 142.813 142.813 0 0 0-10.653-13.509 198.068 198.068 0 0 0-6.382-6.813 6.309 6.309 0 0 0-1.81-1.548z"/><path fill="#0e5fb7" d="M160.144 131.234a10.389 10.389 0 0 1-5.794 9.164 19.713 19.713 0 0 1-12.964 2.08c-7.102-1.27-10.01-8.208-8.152-13.045.4-1.04.617-2.149.99-3.2 1.272-3.577 3.587-5.92 7.491-6.589 6.094-1.043 11.405.388 15.84 4.745a9.008 9.008 0 0 1 2.589 6.845z"/><path fill="#e35e02" d="M214.772 116.15a22.238 22.238 0 0 0-11.189 3.754 34.062 34.062 0 0 1-12.124 4.831 37.87 37.87 0 0 1-16.96-.726 53.652 53.652 0 0 0-15.063-2.056l-1.325-1.131c.339-1.237 1.373-.848 2.18-.896a46.984 46.984 0 0 1 15.548 1.796c6.62 1.856 13.194 1.225 19.71-.753a50.192 50.192 0 0 0 10.883-4.805 19.8 19.8 0 0 1 8.863-2.465 8.37 8.37 0 0 1-.523 2.451z"/><path fill="#0e60b8" d="M227.012 110.251a15.845 15.845 0 0 1 7.808 1.925 9.462 9.462 0 0 1 4.974 10.028 6.37 6.37 0 0 1-2.975 4.443 11.073 11.073 0 0 1-3.036 1.398 33.296 33.296 0 0 1-7.089.933c-3.744.206-5.851-2.076-7.428-5.044a15.33 15.33 0 0 1-1.51-4.769 7.347 7.347 0 0 1 5.247-8.31 11.146 11.146 0 0 1 4.01-.604z"/><path d="M160.99 34.024a6.558 6.558 0 0 1 .366-5.512 28.614 28.614 0 0 1 6.695-8.916 16.86 16.86 0 0 1 7.845-3.817c6.01-1.261 11.296.628 16.165 3.942a19.927 19.927 0 0 1 7.493 8.777 7.556 7.556 0 0 1 .42 6.006c-.104 1.892-1.533 2.718-2.943 3.42a28.184 28.184 0 0 1-11.985 2.973c-5.588.137-11.173.162-16.617-1.465a17.283 17.283 0 0 1-6.003-2.875c-.8-.638-1.705-1.267-1.437-2.533z" class="cls-37"/><path d="M160.99 34.024c1.381 2.367 3.702 3.456 6.121 4.28a36.69 36.69 0 0 0 11.483 1.958c4.952.056 9.899.115 14.681-1.47 2.592-.859 5.12-1.837 6.698-4.288.714.072.89.536.907 1.17a16.441 16.441 0 0 1-.48 4.736c-2.223 8.27-7.534 13.485-15.87 15.03-7.125 1.32-13.737-.527-18.835-5.864a20.115 20.115 0 0 1-5.428-9.13 17.06 17.06 0 0 1-.04-5.951c.044-.352.451-.4.762-.47z" class="cls-25"/><path d="M128.86 93.05a57.099 57.099 0 0 1 3.883-15.695c2.141-5.01 5.102-9.4 9.679-12.51a12.633 12.633 0 0 1 12.929-1.31c3.002 1.315 5.94 2.753 8.874 4.204a53.796 53.796 0 0 0 12.235 4.752 22.247 22.247 0 0 0 8.49.53c2.499-.402 5.056-.471 7.506-1.24a29.692 29.692 0 0 0 9.311-5.29 43.763 43.763 0 0 1 3.656-2.691 4.213 4.213 0 0 1 6.466 2.05 14.243 14.243 0 0 1 1.5 6.46c-.033.692-.185 1.46.44 2.032.903 1.195.627 2.646.584 3.922-.144 4.276.686 8.427 1.219 12.623.231 1.82 1.193 4.2-1.048 5.147-2.077.877-3.111-1.457-4.34-2.697-1.175-1.186-2.113-2.604-3.184-3.896a17.264 17.264 0 0 0-4.087-3.67c-3.44-2.16-6.083-1.217-7.477 2.642a73.223 73.223 0 0 0-2.612 11.44 40.008 40.008 0 0 1-1.494 6.047c-1.597 4.479-5.144 6.568-9.89 6.251-6.52-.435-12.21-3.08-17.617-6.416a54.853 54.853 0 0 1-13.8-11.778 9.857 9.857 0 0 0-6.927-3.411c-3.147-.318-5.633 1.248-6.943 4.44a20.785 20.785 0 0 1-4.36 6.535c-.909.948-2.003 1.085-2.403-.311-.76-2.65-1.798-5.343-.59-8.16z" class="cls-37"/><path d="M128.86 93.05a32.612 32.612 0 0 0 .981 7.793c.087.404.164.83.57.987.459.178.713-.217.953-.522 1.72-2.184 3.474-4.292 4.442-7.016 1.052-2.96 4.123-5.048 8.352-4.245a12.434 12.434 0 0 1 7.31 4.526 53.953 53.953 0 0 0 14.868 11.905 37.546 37.546 0 0 0 11.281 4.495 19 19 0 0 0 7.53.276c3.048-.662 4.709-2.835 5.666-5.62a59.988 59.988 0 0 0 1.926-8.594 91.192 91.192 0 0 1 2.3-9.493 5.096 5.096 0 0 1 7.528-2.818 21.682 21.682 0 0 1 5.494 4.914 47.126 47.126 0 0 0 4.66 5.445c.54.497 1.059 1.058 1.872.655.678-.337.632-1.02.704-1.665a16.685 16.685 0 0 0-.604-5.442c-1.044-4.743-.853-9.512-.865-14.289v-1.537a1.03 1.03 0 0 1 .872 1.06c-.06 2.157.58 4.231.625 6.389a28.278 28.278 0 0 0 1.781 10.472 29.279 29.279 0 0 1 1.444 5.751 3.366 3.366 0 0 1-3 3.681c-1.66.105-3.448-.093-4.509-1.591a10.987 10.987 0 0 0-3.391-2.904c-.518-.323-1.002-1.007-1.66-.444-.648.555.065 1.165.135 1.756-.871-.042-1.742-.101-2.613-.12-.818-.02-1.801-.555-2.326.533a3.555 3.555 0 0 0-.293 3.372c1.209 2.492 2.254 5.064 3.35 7.61a13.062 13.062 0 0 1 1.125 3.862 39.162 39.162 0 0 1-22.998 6.682 20.405 20.405 0 0 1-4.708-.712 57.154 57.154 0 0 0-16.74-2.224 38.015 38.015 0 0 0-12.418-14.21 6.118 6.118 0 0 0-6.063-.684c-1.95.757-2.506 2.844-2.537 4.914-1.708-1.035-1.698-1.03-2.447.854a3.22 3.22 0 0 1-.61.997 19.771 19.771 0 0 1-5.055 3.907 4.606 4.606 0 0 1-2.538.481c-1.803-.1-2.727-.848-2.74-2.604-.027-3.562-.437-7.176.549-10.657.416-1.472.115-3.012.748-4.435.262-.59.387-1.21 1.05-1.49z" class="cls-25"/><path d="M229.707 215.816a2.272 2.272 0 0 1-1.445-1.332c-2.698-5.67-2.761-11.719-2.625-17.812.055-2.46.88-4.444 3.213-5.417 2.364-.986 4.524-.348 6.455 1.28a8.205 8.205 0 0 1 3.128 6.974 34.456 34.456 0 0 1-2.83 12.764c-1.55 3.274-2.271 3.761-5.896 3.543z" class="cls-38"/><path d="M187.985 218.899c-.221 2.39-1.082 4.438-3.573 5.136-2.533.71-4.287-.737-5.686-2.642a14.969 14.969 0 0 1-1.727-2.87c-2.996-6.956-5.022-14.14-4.918-21.799a11.498 11.498 0 0 1 1.12-4.866c1.465-3.048 5.564-5.257 8.857-.963a14.334 14.334 0 0 1 1.532 2.43 46.092 46.092 0 0 1 4.357 16.33 46.589 46.589 0 0 1 .038 9.244z"/><path fill="#010100" d="M229.707 215.816c.129-.09.265-.267.386-.257 3.153.242 4.543-1.757 5.512-4.305a24.093 24.093 0 0 0 1.766-7.607 11.82 11.82 0 0 1 .231-1.644c.662-3.605.041-6.78-2.965-9.22a5.217 5.217 0 0 0-5.552-.987 4.386 4.386 0 0 0-2.785 4.56c.076 2.788-.063 5.582.042 8.367a22.402 22.402 0 0 0 1.88 8.296c.21.475.707.958.04 1.464a11.73 11.73 0 0 1-2.529-6.088c-1.158-6.566-1.477-13.137.059-19.7a13.735 13.735 0 0 1 1.574-3.988 8.296 8.296 0 0 1 3.838-3.463 3.03 3.03 0 0 1 3.523.521 10.177 10.177 0 0 1 2.72 3.876 28.132 28.132 0 0 1 1.788 13.38 42.68 42.68 0 0 1-2.982 12.996 17.761 17.761 0 0 1-1.176 2.347c-1.458 2.43-2.619 2.729-5.37 1.452z"/><path d="M187.985 218.899l-.038-9.243a20.147 20.147 0 0 1 .038 9.243z" class="cls-38"/><path fill="#b24e02" d="M216.312 138.18c.715.082.829.566.895 1.185a19.62 19.62 0 0 1-.479 4.497q-.716 5.904-1.394 11.812c-.063.553-.037 1.117-.055 1.676a130.14 130.14 0 0 1-1.32 13.979 32.343 32.343 0 0 0-.096 6.225 76.78 76.78 0 0 1-1.092 14.498c-.532 3.919-2.623 6.762-7.911 7.104-4.76.309-7.267-2.563-9.403-6.113a41.814 41.814 0 0 1-2.658-5.886 134.364 134.364 0 0 0-10.948-21.755 139.589 139.589 0 0 0-9.652-13.326c-1.411-1.725-2.765-3.492-4.172-5.217a2.481 2.481 0 0 1-.732-1.936c3.247 2.681 6.485 5.374 9.744 8.04a67.88 67.88 0 0 0 13.988 9.078 17.393 17.393 0 0 0 9.314 1.521 10.044 10.044 0 0 0 5.475-2.725 19.77 19.77 0 0 0 4.319-5.67 65.509 65.509 0 0 0 6.177-16.988z"/><path fill="#ff3" d="M182.54 141.733a10.718 10.718 0 0 1 11.235-11.112 11.115 11.115 0 0 1 10.897 11.134c.024 5.446-3.795 10.991-11.26 11.22-5.094.155-11.389-4.56-10.872-11.242z"/><path d="M144.34 140.079c-2.137-.312-4.977-.803-6.706-3.485a9.258 9.258 0 0 1-.169-10.367 9.077 9.077 0 0 1 8.76-4.337 12.834 12.834 0 0 1 7.962 3.352c3.695 3.547 3.625 9.228-1.062 12.347a14.56 14.56 0 0 1-8.785 2.49z" class="cls-25"/><path fill="#043e98" d="M228.679 126.158c-6.887.08-8.387-5.76-6.49-10.226.73-1.723 2.71-2.234 4.367-2.642 3.142-.774 7.026 1.091 8.655 3.862a6.386 6.386 0 0 1-.613 6.262c-1.641 1.968-3.603 3.121-5.92 2.744z"/><path d="M187.501 214.51a25.545 25.545 0 0 1-1.218 6.529c-.968 2.462-2.939 2.838-4.89 1.092-2.29-2.051-3.36-4.807-4.412-7.555a35.78 35.78 0 0 1-2.324-8.967 4.988 4.988 0 0 1 4.63-5.549 6.678 6.678 0 0 1 6.544 4.61 57.693 57.693 0 0 1 1.67 9.84z" class="cls-38"/></svg>