<svg xmlns="http://www.w3.org/2000/svg" role="img" viewBox="-14.95 -14.95 777.40 209.40"><title>Mahout logo</title><style>svg {enable-background:new 0 0 747.9 180}</style><style>.st0{fill:#0bbcd4}</style><path d="M272.2 119.8v-46l-20 51c-.7 1.7-2.3 2.9-4.2 2.9s-3.5-1.2-4.2-2.9l-20-51v46c0 4.2-3.4 7.9-7.7 7.9-4.4 0-8-3.7-8-7.9V65.1c0-7.1 5.8-12.8 12.8-12.8 5.5 0 10.2 3.4 12.1 8.3l15 38.5 15.2-38.5c1.8-4.9 6.5-8.3 11.9-8.3 7.2 0 12.9 5.8 12.9 12.8v54.6c0 4.2-3.5 7.9-8 7.9-4.3 0-7.8-3.6-7.8-7.8zm109.5-.2c0 4.4-3.6 8-8.1 8-3.4 0-6.4-2.2-7.4-5.3l-3-8.6H330l-3 8.6c-1 3.1-4.1 5.3-7.5 5.3-4.4 0-8-3.5-8-8 0-1 .2-2 .6-2.8l21.6-55.7c2-5.2 7-8.8 12.9-8.8s11 3.7 12.9 8.8l21.5 55.7c.3.9.7 1.8.7 2.8zm-23.4-19.5l-11.7-33.4-11.7 33.4h23.4zm97.5 19.7V95.9H421v23.9c0 4.2-3.4 7.9-7.7 7.9-4.4 0-8-3.7-8-7.9V60.1c0-4.3 3.5-7.9 7.9-7.9s7.9 3.5 7.9 7.9V82h34.8V60.1c0-4.3 3.5-7.9 8-7.9 4.3 0 7.9 3.5 7.9 7.9v59.6c0 4.2-3.5 7.9-8 7.9s-8-3.6-8-7.8zm79-68c22.3 0 38.6 15.9 38.6 38.2 0 22.2-16.3 38.2-38.6 38.2-22.2 0-38.5-15.9-38.5-38.2.1-22.2 16.3-38.2 38.5-38.2zm0 14c-13.6 0-22.3 10.4-22.3 24.2 0 13.7 8.7 24.2 22.3 24.2s22.5-10.5 22.5-24.2c0-13.8-8.8-24.2-22.5-24.2zm63.5-5.6c0-4.4 3.5-8 8-8 4.4 0 8 3.5 8 8v36.6c0 10.3 5.6 17.4 17.1 17.4 11.3 0 16.9-7.1 16.9-17.4V60.2c0-4.4 3.5-8 8-8 4.4 0 8 3.5 8 8v37.1c0 18.4-10.5 30.9-32.9 30.9-22.6 0-33.1-12.6-33.1-30.8V60.2zm111.4 59.6V66.9h-15.4c-3.8 0-7-3.1-7-6.9 0-3.9 3.2-7 7-7h46.6c3.8 0 7 3.1 7 7 0 3.8-3.2 6.9-7 6.9h-15.4v52.9c0 4.2-3.5 7.9-7.9 7.9-4.3-.1-7.9-3.7-7.9-7.9z" class="st0"/><path d="M71 148.3v-18.6c-7.4-1.4-13-7.9-13-15.7 0-3.2 1-6.3 2.6-8.8L45 93.7l-15.6 11.5c1.7 2.5 2.6 5.5 2.6 8.8 0 3.3-1 6.3-2.7 8.8l35.5 28c1.9-1.2 4-2.1 6.2-2.5zm6 0c2.2.4 4.3 1.3 6.1 2.6l35.5-28c-1.7-2.5-2.7-5.6-2.7-8.8 0-3.2 1-6.3 2.6-8.8L103 93.7l-15.6 11.5c1.7 2.5 2.6 5.5 2.6 8.8 0 7.8-5.6 14.3-13 15.7v18.6zm10.3 6.9c1.7 2.5 2.7 5.6 2.7 8.8 0 8.8-7.2 16-16 16s-16-7.2-16-16c0-3.3 1-6.3 2.7-8.8l-35.5-28c-2.6 1.8-5.7 2.9-9.1 2.9-8.8 0-16-7.2-16-16 0-7.8 5.6-14.3 13-15.7V81.7C5.6 80.3 0 73.8 0 66c0-8.8 7.2-16 16-16 3.4 0 6.5 1.1 9.1 2.9l35.5-28C59 22.3 58 19.3 58 16c0-8.8 7.2-16 16-16s16 7.2 16 16c0 3.3-1 6.3-2.7 8.8l35.5 28c2.6-1.8 5.7-2.9 9.1-2.9 8.8 0 16 7.2 16 16 0 7.8-5.6 14.3-13 15.7v16.6c7.4 1.4 13 7.9 13 15.7 0 8.8-7.2 16-16 16-3.4 0-6.5-1.1-9.1-2.9l-35.5 28.2zm-62.1-54.3L39.9 90 25.2 79.1c-1.8 1.3-3.9 2.2-6.2 2.6v16.6c2.3.4 4.4 1.3 6.2 2.6zm4.2-26.1L45 86.3l15.6-11.5C59 72.3 58 69.2 58 66c0-7.8 5.6-14.3 13-15.7V31.7c-2.2-.4-4.3-1.3-6.1-2.6l-35.5 28C31 59.7 32 62.7 32 66c0 3.2-1 6.3-2.6 8.8zm93.4 26.1c1.8-1.3 3.9-2.2 6.2-2.6V81.7c-2.3-.4-4.4-1.3-6.2-2.6L108.1 90l14.7 10.9zm-4.1-43.7l-35.5-28c-1.8 1.3-3.9 2.2-6.1 2.6v18.6c7.4 1.4 13 7.9 13 15.7 0 3.2-1 6.3-2.6 8.8L103 86.3l15.6-11.5c-1.7-2.5-2.6-5.5-2.6-8.8 0-3.3 1-6.3 2.7-8.8zm-53.9 43.7c2.6-1.8 5.8-2.9 9.2-2.9s6.6 1.1 9.2 2.9L97.9 90 83.2 79.1C80.6 80.9 77.4 82 74 82s-6.6-1.1-9.2-2.9L50.1 90l14.7 10.9zM74 76c5.5 0 10-4.5 10-10s-4.5-10-10-10-10 4.5-10 10 4.5 10 10 10zm0 48c5.5 0 10-4.5 10-10s-4.5-10-10-10-10 4.5-10 10 4.5 10 10 10zm58-48c5.5 0 10-4.5 10-10s-4.5-10-10-10-10 4.5-10 10 4.5 10 10 10zm0 48c5.5 0 10-4.5 10-10s-4.5-10-10-10-10 4.5-10 10 4.5 10 10 10zM16 76c5.5 0 10-4.5 10-10s-4.5-10-10-10S6 60.5 6 66s4.5 10 10 10zm0 48c5.5 0 10-4.5 10-10s-4.5-10-10-10-10 4.5-10 10 4.5 10 10 10zm58 50c5.5 0 10-4.5 10-10s-4.5-10-10-10-10 4.5-10 10 4.5 10 10 10zm0-148c5.5 0 10-4.5 10-10S79.5 6 74 6s-10 4.5-10 10 4.5 10 10 10z" class="st0"/></svg>