<svg xmlns="http://www.w3.org/2000/svg" role="img" viewBox="-0.56 0.44 497.12 112.62"><title>MediaPipe logo</title><defs><style>.cls-1{fill:#0197a7}.cls-2{fill:#273339}</style></defs><path d="M93.18022 104a.53063.53063 0 0 0-.2665-.09652 8.18652 8.18652 0 0 1-3.98342-1.82376 8.36077 8.36077 0 0 1-2.91407-4.83764 8.68234 8.68234 0 0 1-.18695-1.772q-.00015-.17284 0-.3457 0-37.9127-.00272-75.82537a12.63626 12.63626 0 0 1 .092-1.60865 8.17715 8.17715 0 0 1 .57243-2.10446 8.51727 8.51727 0 0 1 5.98335-5.0328c.33556-.07795.68133-.11215 1.02258-.16525a.36492.36492 0 0 0 .25971-.09888h1.15275c.10656.10574.24831.08937.37887.1046a8.73649 8.73649 0 0 1 2.01175.47564 8.50972 8.50972 0 0 1 5.34877 6.04112 7.9878 7.9878 0 0 1 .22332 1.82426c-.00122.21122.00074.42246.00074.6337q.00008 37.82064-.00005 75.6413c0 .23043.00259.46095-.00242.69128a8.30167 8.30167 0 0 1-1.91151 5.19528 8.42967 8.42967 0 0 1-4.7599 2.94022c-.14926.03467-.30348.04777-.45313.08111A.56439.56439 0 0 0 95.601 104zM44.18829 10.28893a.125.125 0 0 0 .10494.11174c.37628.07419.75631.13421 1.12746.22889a8.49889 8.49889 0 0 1 6.11615 6.21544 8.03038 8.03038 0 0 1 .24528 2.05355c-.002.13439-.00021.26885-.00021.40328q0 25.17669.00093 50.35339a11.20665 11.20665 0 0 1-.07683 1.37858 8.51952 8.51952 0 0 1-13.51024 5.78359 8.41123 8.41123 0 0 1-3.30738-5.23071A6.59334 6.59334 0 0 1 34.736 70.157c.00377-.23038-.0003-.46089-.0003-.69133q-.00008-25.03267 0-50.06534c0-.21124-.00109-.4225.001-.63373a8.51742 8.51742 0 0 1 4.90983-7.62012 9.13938 9.13938 0 0 1 2.41818-.7243 1.48078 1.48078 0 0 0 .225-.044c.02513-.0083.0365-.05828.05415-.08922zM67.58914 104a.33323.33323 0 0 0-.20422-.09215 8.51174 8.51174 0 0 1-6.96987-6.92664 7.78839 7.78839 0 0 1-.11118-1.08712c-.00869-.26866-.01031-.53765-.01032-.80649q-.00068-25.09245-.00005-50.18488c0-.26885.00006-.53787.00889-.80652a8.49437 8.49437 0 0 1 6.29166-7.90491 8.51908 8.51908 0 0 1 10.10341 5.00452 7.88916 7.88916 0 0 1 .603 2.6826c.01182.307.022.61423.022.92136q.00157 25.15005.00009 50.30011c0 .30715-.00571.61464-.0209.92138a8.1786 8.1786 0 0 1-1.666 4.58493 8.4567 8.4567 0 0 1-5.02175 3.239c-.14928.03451-.30389.04553-.454.07708a.62148.62148 0 0 0-.14999.07773z" class="cls-1"/><path d="M487.07534 65.96229a.4697.4697 0 0 0-.079.145c-.02251.171-.03068.34379-.04582.51578a.14848.14848 0 0 1-.15332.13625c-.192.004-.38393.007-.57593.00705q-12.849.00048-25.698.00028c-.15363 0-.3073.00036-.46093 0-.42181-.00094-.41976-.00135-.34315.40823a12.50033 12.50033 0 0 0 .85353 2.80085 9.13517 9.13517 0 0 0 5.642 5.08861 10.40652 10.40652 0 0 0 2.47785.49244 12.51292 12.51292 0 0 0 2.58775-.049 9.83976 9.83976 0 0 0 6.96048-4.04878c.17221-.23021.32526-.475.48356-.71534.16909-.25667.19715-.27.45142-.14585q1.0344.505 2.06679 1.01407 2.37738 1.16559 4.75465 2.33138c.12023.059.2359.12741.35281.19313a.1306.1306 0 0 1 .03653.15258c-.02578.0512-.05089.103-.07987.15239a20.79056 20.79056 0 0 1-3.3678 4.36526 17.11107 17.11107 0 0 1-7.94777 4.43694 20.80051 20.80051 0 0 1-4.32527.60923 24.82659 24.82659 0 0 1-2.9363-.04309 18.72869 18.72869 0 0 1-9.095-3.13539 18.0036 18.0036 0 0 1-6.71433-8.35889 19.31621 19.31621 0 0 1-1.18475-4.4372 21.52971 21.52971 0 0 1-.17525-4.82618 19.4343 19.4343 0 0 1 4.80821-11.59954 17.888 17.888 0 0 1 11.93829-6.14859 20.73463 20.73463 0 0 1 2.81963-.07389 19.07128 19.07128 0 0 1 6.24768 1.19756 15.868 15.868 0 0 1 8.96354 8.40421 19.43276 19.43276 0 0 1 1.53708 5.04954 6.82077 6.82077 0 0 1 .092 1.02913c.00462.14088-.00067.28459.01784.42517a1.1453 1.1453 0 0 0 .09091.24654zm-17.984-5.84879h2.01478q3.31 0 6.62.00085c.4672.00042.46321-.01847.39566-.43316a6.91828 6.91828 0 0 0-.58386-1.858 8.621 8.621 0 0 0-4.38546-4.2133 8.22291 8.22291 0 0 0-2.37513-.65587 10.62071 10.62071 0 0 0-2.64027-.038 9.233 9.233 0 0 0-2.60554.67513 8.98535 8.98535 0 0 0-3.34827 2.56651 11.51 11.51 0 0 0-2.02778 3.71487c-.01216.03562-.01638.0739-.025.11078a.11138.11138 0 0 0 .09667.11708c.19151.0055.38311.01251.57468.01256q4.1448.0012 8.28953.00055z" class="cls-2"/><path d="M18.71248 10.28893c.01241.03254.01873.08893.03818.09389.16707.04263.33552.08165.50539.11123a8.495 8.495 0 0 1 6.65433 6.07538 7.79257 7.79257 0 0 1 .30644 2.04316c.00141.23039.003.4608.003.6912q.00022 12.35552.00009 24.711c0 .1728.00054.34561-.00095.51841a8.5139 8.5139 0 0 1-6.94022 8.25671 8.51292 8.51292 0 0 1-9.87417-6.43239c-.076-.316-.10549-.64309-.15989-.96447a2.68434 2.68434 0 0 0-.07481-.33384c-.018-.05913-.08189-.07138-.14045-.07532V18.35753a.19693.19693 0 0 0 .15919-.14658c.02641-.11125.0403-.22547.0591-.3385.05343-.32134.08708-.64741.16293-.96336a8.49748 8.49748 0 0 1 6.73377-6.41255c.18871-.033.3765-.07213.56291-.11606.02119-.005.03064-.05983.04553-.09155zM9.02937 69.42027c.047-.02717.12091-.04419.13571-.08348a1.35876 1.35876 0 0 0 .07749-.33269 8.518 8.518 0 0 1 16.75552-.99221 7.64683 7.64683 0 0 1 .21873 1.70935c.00033.21124.00294.42249.00294.63373q.00024 12.38718 0 24.77435c0 .192.00152.38415-.00248.57612a8.50516 8.50516 0 0 1-7.07276 8.19984A.30579.30579 0 0 0 18.943 104h-2.42075a.53425.53425 0 0 0-.26484-.09787c-.28134-.0566-.56612-.10252-.84171-.18037a8.50372 8.50372 0 0 1-6.17308-7.25627 1.9918 1.9918 0 0 0-.051-.28137.178.178 0 0 0-.16222-.13746zm60.74999-59.13134c.01489.032.02424.08723.04553.09231q.27947.06661.56267.11736a8.51394 8.51394 0 1 1-3.79086.14065c.36964-.09913.74987-.159 1.12556-.23515a.11631.11631 0 0 0 .09743-.11517zM41.99806 104c-.06384-.08762-.16265-.08882-.25612-.10494a7.8562 7.8562 0 0 1-2.49064-.86128 8.3206 8.3206 0 0 1-4.36015-5.91434 8.52019 8.52019 0 0 1 14.27112-7.7502 8.30838 8.30838 0 0 1 2.49466 4.69944 8.5149 8.5149 0 0 1-5.05459 9.28132 7.84315 7.84315 0 0 1-1.87191.55047.26028.26028 0 0 0-.19632.09953zm445.07728-42.4178a1.1453 1.1453 0 0 1-.09091-.24654c-.01851-.14058-.01322-.28429-.01784-.42518.03625-.044.0725-.0896.10875-.13515z" class="cls-1"/><path d="M189.5295 57.26134q0 12.36081-.00021 24.7216 0 .288-.00541.57608a.18786.18786 0 0 1-.19133.17337q-.259.00843-.51822.00822-2.968.00079-5.936.00034-1.18143 0-2.36285-.00053c-.1343-.00019-.26864-.00608-.40287-.01158a.20122.20122 0 0 1-.14058-.15867q-.00387-.08633-.00425-.17279c-.00066-.13446-.00042-.26893-.00042-.40338q0-11.92858-.00066-23.85716a17.21854 17.21854 0 0 1 .08974-1.95592c.00869-.07627.01238-.15316.01711-.22984.05324-.86257.10252-1.72541.16036-2.58767.054-.80471.11854-1.6087.17529-2.41323.03917-.55552.07307-1.11141.10912-1.66715.00845-.13-.06374-.2015-.21272-.208-.05741-.00251-.11512-.00042-.17264.00113a.24359.24359 0 0 0-.22273.15454c-.05593.12187-.10055.249-.1489.37428q-1.26414 3.27549-2.52784 6.55115-5.01189 12.99563-10.02374 25.99127c-.26054.6755-.13253.59154-.84474.59253q-3.14088.00438-6.28175.00071c-.15358 0-.30732-.00134-.46066-.00894a.1968.1968 0 0 1-.17631-.1262c-.06083-.14082-.12238-.28147-.17786-.42444q-.70812-1.82431-1.41408-3.64946-5.21055-13.44345-10.42135-26.88681-.38481-.99278-.771-1.985c-.05564-.14293-.11156-.28589-.17316-.42629a.23865.23865 0 0 0-.22081-.15641c-.07662-.0021-.15349-.002-.23.00166a.19453.19453 0 0 0-.1533.14583c.0032.1151.0065.23031.01424.34516q.10076 1.49446.20355 2.98878c.05721.82376.11782 1.64729.17547 2.471.01742.24906.02861.49856.04523.74769.02043.30656.049.61267.06419.91947.02281.46019.0525.9208.05273 1.38125q.005 10.28623.00231 20.57247 0 1.7576-.0002 3.51518 0 .20162-.00476.40323a.19024.19024 0 0 1-.1395.15828c-.09569.00615-.19157.01322-.28737.01324q-4.32229.00093-8.6446.00005c-.07676 0-.15358-.00325-.23025-.00749a.18046.18046 0 0 1-.174-.18825c-.00394-.15358-.00456-.30727-.00456-.46091q-.00028-24.89442-.00007-49.78884c0-.13444-.00383-.2692.00391-.40325.00872-.15121.02941-.22871.25474-.23.07684-.00044.15367-.00147.23052-.00147q5.73426-.00014 11.4685.00036a2.28205 2.28205 0 0 1 .3446.01529.20462.20462 0 0 1 .13414.0963c.06655.1374.11784.28236.172.42556q2.29978 6.08353 4.59872 12.16739 4.27113 11.30667 8.54135 22.61368c.02711.0718.05911.14178.08562.21379.13609.3697.14472.36887.54385.35132a.194.194 0 0 0 .17881-.12163c.06885-.15823.13465-.318.19558-.47943q1.687-4.46921 3.37251-8.939 3.98493-10.55358 7.97158-21.10651.89493-2.369 1.79515-4.73592c.04762-.12561.09227-.25265.14692-.37518a.21.21 0 0 1 .18366-.11815c.05726-.00545.115-.007.17258-.00753.11525-.00114.23052-.0005.34578-.0005q5.56137 0 11.12272.00035c.8128.00018.7077-.06523.7079.70654q.00306 12.44724.00122 24.89444zm217.42461 14.93435q0-12.53238.00206-25.06474c.00036-.89563-.13346-.76874.74422-.77041q4.03372-.00768 8.06749-.00162c.56748.0001.53354-.03909.53359.52379q.00021 1.75741.00144 3.51482c0 .0533-.01182.11384.04506.15044.01457.00938.04376.02092.04975.015a1.46164 1.46164 0 0 0 .154-.16806 12.54637 12.54637 0 0 1 5.92077-4.40021 12.72653 12.72653 0 0 1 3.02327-.68682 15.39666 15.39666 0 0 1 2.416-.08183 16.62162 16.62162 0 0 1 11.31689 4.85369 17.8672 17.8672 0 0 1 4.02912 6.1796 20.3001 20.3001 0 0 1 1.19046 4.31874 24.65686 24.65686 0 0 1 .29418 5.16645 22.00571 22.00571 0 0 1-1.12084 6.15333 18.31093 18.31093 0 0 1-3.576 6.25891 16.56178 16.56178 0 0 1-8.62571 5.233 17.66073 17.66073 0 0 1-4.62615.47861 14.48537 14.48537 0 0 1-3.08026-.37975 12.82019 12.82019 0 0 1-5.69216-3.00526 9.4569 9.4569 0 0 1-1.40289-1.59951c-.06566-.09351-.14094-.18037-.21442-.26806-.00619-.00737-.034-.00106-.04942.005s-.03923.01935-.03968.03028c-.00645.15328-.01292.3067-.01292.46009q-.00088 8.499-.00079 16.99793 0 .92182-.00523 1.84364a.16382.16382 0 0 1-.17432.18063c-.03831.00209-.07667.00465-.115.005-.096.0009-.19208.0009-.2881.0009q-4.09131.00006-8.18262-.00023-.20154 0-.403-.00632a.16323.16323 0 0 1-.17353-.18106c-.00375-.192-.005-.384-.005-.576q-.00037-12.58998-.00026-25.17997zm9.29012-7.48811c.03217.46715.04081 1.13758.14142 1.80536a10.62224 10.62224 0 0 0 1.91324 4.69681 9.66464 9.66464 0 0 0 8.53111 4.00072 9.48312 9.48312 0 0 0 3.1099-.77874 9.90619 9.90619 0 0 0 4.91315-4.73941 11.26556 11.26556 0 0 0 1.138-4.77645 12.83294 12.83294 0 0 0-.19846-2.63656 10.37385 10.37385 0 0 0-1.90944-4.45472 9.65415 9.65415 0 0 0-9.0574-3.81841 9.32922 9.32922 0 0 0-4.38994 1.75737 9.95719 9.95719 0 0 0-3.67136 5.16625 12.17344 12.17344 0 0 0-.52022 3.77778zM277.856 57.23028q0 12.39025-.00042 24.7805c0 .19178-.00478.3836-.01.57532a.16048.16048 0 0 1-.15192.14325c-.115.00585-.2301.01109-.34518.01111q-4.12081.00091-8.24164.00012-.17274 0-.34549-.00845a.18845.18845 0 0 1-.171-.19433c-.00422-.15356-.00535-.30725-.00543-.46089q-.00068-1.556-.00152-3.112a2.10309 2.10309 0 0 0-.02874-.2799c-.002-.01474-.02448-.03118-.04111-.038a.05673.05673 0 0 0-.049.004.64079.64079 0 0 0-.11922.11762 12.24776 12.24776 0 0 1-6.70672 4.6005 14.25694 14.25694 0 0 1-3.06535.4831 19.0876 19.0876 0 0 1-2.59107-.04444 16.54483 16.54483 0 0 1-6.36422-1.87163 17.11338 17.11338 0 0 1-6.79961-6.54983 19.29334 19.29334 0 0 1-2.33949-6.21866 25.64446 25.64446 0 0 1-.35038-2.56593 23.52054 23.52054 0 0 1-.07061-2.936 21.20218 21.20218 0 0 1 1.814-8.09419 18.26323 18.26323 0 0 1 3.04523-4.72695 16.60565 16.60565 0 0 1 8.77986-5.19253 17.32755 17.32755 0 0 1 4.92077-.41266 12.86146 12.86146 0 0 1 4.94062 1.2307 13.71142 13.71142 0 0 1 3.10776 2.06756 10.89785 10.89785 0 0 1 1.48223 1.60707c.09219.1223.18321.24572.28109.36334.01436.01724.06484.00945.09721.00443a.05836.05836 0 0 0 .03861-.03973c.00915-.09479.01813-.19.01844-.28514.00171-.51866.00095-1.03733.00095-1.556q0-8.12569.00059-16.25139c.00017-.8004-.07843-.71905.69624-.71958q3.97674-.00267 7.95345.00045c.17156.00011.34343.01321.51443.02843.02871.00256.06152.04267.07824.0732a.24578.24578 0 0 1 .02482.11076c.00316.192.00355.38415.00355.57623q.0001 12.39026.00003 24.78054zm-9.28012 7.32691c-.01441-.30678-.02938-.61354-.04315-.92035a10.51814 10.51814 0 0 0-.48856-2.71145 9.91154 9.91154 0 0 0-2.74108-4.39593 9.54678 9.54678 0 0 0-6.93461-2.59235 9.01415 9.01415 0 0 0-2.65557.45789 9.66727 9.66727 0 0 0-5.64559 4.79637 11.22378 11.22378 0 0 0-1.24732 4.98028 12.79784 12.79784 0 0 0 .19675 2.63658 10.40608 10.40608 0 0 0 2.22265 4.8657 9.628 9.628 0 0 0 8.12518 3.53955 9.43525 9.43525 0 0 0 3.42715-.90849 9.97768 9.97768 0 0 0 5.13721-5.78938 11.6063 11.6063 0 0 0 .64692-3.95842zm78.67067-7.33619V32.43975c0-.17288-.00147-.34581.00152-.51865.00354-.20776.05563-.25531.2843-.25936.17288-.00307.3458-.00163.51871-.00163q8.44359-.00009 16.88722-.00038a22.80688 22.80688 0 0 1 3.21819.19832 17.75181 17.75181 0 0 1 8.48975 3.45994 14.94536 14.94536 0 0 1 5.48862 8.29641 16.04232 16.04232 0 0 1 .40994 2.38107 17.54469 17.54469 0 0 1 .077 2.47452 15.72961 15.72961 0 0 1-1.53674 6.39133 15.19574 15.19574 0 0 1-5.69917 6.34387 17.8692 17.8692 0 0 1-5.90644 2.34985 21.68013 21.68013 0 0 1-4.40629.43542q-3.74629.00012-7.4926.00039c-.17283 0-.34572.00264-.51852.00649a.17507.17507 0 0 0-.171.18529q-.00512.28806-.00476.5762-.00033 8.61581-.00031 17.23161c0 .17288.00037.34581-.00352.51862-.00323.14278-.07539.22319-.20311.22737-.13435.0044-.26891.00437-.40338.00439q-4.2074.00032-8.41477-.00115c-.17125-.00011-.34284-.01586-.51348-.03254-.02794-.00272-.06416-.044-.07452-.07485a.56931.56931 0 0 1-.02516-.169c-.00309-.17284-.00146-.34576-.00146-.51866zm9.63954-9.41063q0 3.25283-.0005 6.50567c-.00031.54061-.01323.52941.54147.52914q4.03039-.00195 8.06076-.00264a10.60331 10.60331 0 0 0 1.94645-.17123 6.7991 6.7991 0 0 0 4.5465-2.96533 6.53272 6.53272 0 0 0 1.06258-2.7089 7.63874 7.63874 0 0 0 .05128-2.00807 6.55192 6.55192 0 0 0-.58282-2.154 6.78061 6.78061 0 0 0-5.16833-3.88206 10.47246 10.47246 0 0 0-1.89134-.14277q-2.2743.00046-4.54859-.00005-1.72731 0-3.45459.00036c-.13424.00008-.26849.00419-.4027.00832a.15789.15789 0 0 0-.14843.14109c-.0051.19167-.01115.38339-.01123.5751q-.00118 3.13765-.00051 6.27534zm-136.52166 18.9563q-6.4549 0-12.90983.00041c-.192 0-.384.00494-.57591.01a.13166.13166 0 0 0-.114.15919 13.81443 13.81443 0 0 0 .48265 1.95409 11.96526 11.96526 0 0 0 .50785 1.28374 9.104 9.104 0 0 0 5.21543 4.7731 10.30774 10.30774 0 0 0 2.80383.60889 12.76932 12.76932 0 0 0 2.58844-.04719 9.82765 9.82765 0 0 0 6.61308-3.58859 10.12763 10.12763 0 0 0 .807-1.1214 1.64991 1.64991 0 0 1 .16627-.23241.11736.11736 0 0 1 .15163-.039c.11914.06149.2451.10957.36559.16861q3.30876 1.62149 6.61671 3.24469c.10328.05068.2052.10431.30621.15941a.15544.15544 0 0 1 .06785.23723c-.009.01693-.016.03494-.02565.05142a20.02524 20.02524 0 0 1-4.73486 5.60044 17.12444 17.12444 0 0 1-6.66958 3.26651 21.25252 21.25252 0 0 1-2.77676.48574 23.04457 23.04457 0 0 1-4.48771.06209 18.53843 18.53843 0 0 1-10.77757-4.4605 17.98751 17.98751 0 0 1-4.73216-6.44891 19.16243 19.16243 0 0 1-1.30661-4.28431 23.78955 23.78955 0 0 1-.30986-5.45174 19.50766 19.50766 0 0 1 5.78173-12.71708 17.69191 17.69191 0 0 1 7.49516-4.46506 18.42158 18.42158 0 0 1 3.4995-.673 20.65387 20.65387 0 0 1 2.87794-.07071 19.22693 19.22693 0 0 1 5.86637 1.08239 15.85812 15.85812 0 0 1 9.13345 8.22274 19.33228 19.33228 0 0 1 1.65886 5.25165 23.1967 23.1967 0 0 1 .30672 4.64815c-.019.57538-.07508 1.14976-.12354 1.72381a3.89791 3.89791 0 0 1-.09487.50854.12445.12445 0 0 1-.07635.07075.59639.59639 0 0 1-.16853.02445c-.17285.00313-.34578.00184-.51868.00185q-6.45489.00004-12.9098.00001zm-4.19132-6.65317q4.20241 0 8.40485-.00037c.17254 0 .34513-.00334.51756-.00893a.15289.15289 0 0 0 .15622-.187 7.3535 7.3535 0 0 0-.39258-1.55746 8.6741 8.6741 0 0 0-5.85358-5.18317 11.45828 11.45828 0 0 0-1.75778-.28558 9.86812 9.86812 0 0 0-3.14428.21341 8.42606 8.42606 0 0 0-4.03943 2.20458 11.12075 11.12075 0 0 0-2.83094 4.61076c-.03792.11348.01122.1833.13237.1866q.25884.007.51787.00684 4.14486.00063 8.28972.00032zM337.1074 70.67188q0 5.70525-.00084 11.41051c-.00034.71775.08156.65806-.636.65825q-4.26484.00112-8.52974-.00035c-.15329-.00005-.30665-.0079-.45983-.01582a.16579.16579 0 0 1-.14666-.14984c-.00489-.15339-.00911-.30688-.00925-.46033-.00085-.826.00019-1.652-.00116-2.478-.00017-.11487-.00886-.2298-.01688-.34449-.0009-.01288-.02291-.02438-.03527-.03635-.03712-.03591-.06512-.02872-.09811.00913-.11333.13016-.22911.25826-.34565.38559a12.65472 12.65472 0 0 1-6.49017 3.84459 14.91171 14.91171 0 0 1-3.83.37493 17.21528 17.21528 0 0 1-2.12477-.15474 12.62712 12.62712 0 0 1-8.08769-4.33274 10.76575 10.76575 0 0 1-2.28029-4.53636 13.61952 13.61952 0 0 1-.318-4.34889 10.80657 10.80657 0 0 1 3.04347-6.7395 12.82131 12.82131 0 0 1 4.14349-2.86347 16.82618 16.82618 0 0 1 3.84447-1.17375 22.06348 22.06348 0 0 1 5.39541-.26229q.28753.01875.57514.03678a23.4175 23.4175 0 0 1 6.85465 1.40974c.07132.027.144.05052.21659.07413.04368.01422.10962-.04352.11387-.0974.003-.03816.00968-.07626.00968-.11439.00017-.51865.01106-1.03762-.00315-1.5559a5.89408 5.89408 0 0 0-2.22234-4.56021 7.68675 7.68675 0 0 0-2.90242-1.47861 11.83243 11.83243 0 0 0-3.25019-.38063 11.85144 11.85144 0 0 0-8.49034 3.91489c-.07627.08592-.15521.16958-.235.25232a.12786.12786 0 0 1-.15865.02073 1.85571 1.85571 0 0 1-.23558-.16394q-2.65124-2.08176-5.30122-4.165-.09056-.07117-.17911-.1448c-.15493-.12906-.16624-.192-.05879-.33165.0468-.06081.09577-.12.14412-.17957a17.62033 17.62033 0 0 1 6.62815-5.0485 19.43353 19.43353 0 0 1 4.67107-1.41175 22.5521 22.5521 0 0 1 3.61065-.3205q1.49994-.01051 2.99282.12268a20.98578 20.98578 0 0 1 5.71656 1.2583 14.57973 14.57973 0 0 1 2.32371 1.13811 11.99457 11.99457 0 0 1 5.11837 6.17941 15.521 15.521 0 0 1 .82913 3.28641 21.54139 21.54139 0 0 1 .21732 3.10012q-.00652 5.18654-.00157 10.37315zM320.31081 66.204c-.26869 0-.53791-.01087-.806.002a12.33347 12.33347 0 0 0-2.44723.33588 6.49869 6.49869 0 0 0-2.00471.84507 4.30044 4.30044 0 0 0-1.81063 2.4439 6.09134 6.09134 0 0 0-.20725 2.39366 4.476 4.476 0 0 0 1.38142 2.83619 5.00619 5.00619 0 0 0 1.96665 1.15581 7.33453 7.33453 0 0 0 1.91828.35356 11.40406 11.40406 0 0 0 3.14682-.22977 7.66309 7.66309 0 0 0 3.49608-1.788 8.76537 8.76537 0 0 0 2.91061-5.6511c.03186-.28514.0268-.57462.03307-.86222a.20234.20234 0 0 0-.11268-.18668c-.10174-.05343-.20576-.10306-.31107-.14907a17.554 17.554 0 0 0-7.15336-1.49923zm68.60601-1.62394q0-8.75639.001-17.51274c.00028-.8215-.08846-.70561.69877-.70692q4.06167-.00673 8.12335-.00169c.5551 0 .54269-.03515.53877.52576-.00053.07681 0 .15362 0 .23043q0 17.42632-.00155 34.85266c-.00017.86258.11862.7719-.7577.77261q-4.03288.00325-8.06575.0012c-.54575.00019-.53753.01889-.53742-.53336q.00143-8.81401.00053-17.62795zM287.49879 64.517q0-8.6979.00223-17.39582c.00064-.88837-.13453-.75876.75331-.76057q3.91727-.008 7.83452-.0019c.096 0 .192.00039.288-.00005.47411-.00218.47853-.01.47391.474-.0011.1152-.00014.23041-.00014.34561q0 17.367-.00248 34.734c-.00033.94177.15533.82575-.81421.8273q-3.91726.00628-7.83452.00111-.25911 0-.51817-.00795a.18081.18081 0 0 1-.177-.18642c-.00422-.19191-.00523-.38393-.00523-.5759q-.00036-8.72673-.00022-17.45341zm4.69367-34.19638a5.51987 5.51987 0 0 1 3.08321.815 5.98745 5.98745 0 0 1 2.6931 3.45894 5.87 5.87 0 0 1 .22193 1.53274 5.80349 5.80349 0 0 1-.61411 2.894 6.08834 6.08834 0 0 1-3.33929 3.00784 5.27175 5.27175 0 0 1-1.6288.32413 6.2119 6.2119 0 0 1-2.2173-.2465c-.20007-.06526-.39792-.139-.59231-.21965a6.13148 6.13148 0 0 1-3.45848-3.99573 5.81535 5.81535 0 0 1 1.566-5.82024 5.87494 5.87494 0 0 1 2.649-1.55253 5.80571 5.80571 0 0 1 1.63705-.198zm107.43127 5.88348a6.02647 6.02647 0 0 1-2.7484 5.21375 5.30237 5.30237 0 0 1-2.801.93228 6.162 6.162 0 0 1-2.274-.24868c-.19993-.0656-.39733-.14086-.59118-.22281a6.23636 6.23636 0 0 1-3.43591-3.95092 5.97888 5.97888 0 0 1-.19934-1.36193 6.14755 6.14755 0 0 1 .24673-2.0457c.04661-.14589.09347-.29213.1497-.43446a6.14656 6.14656 0 0 1 4.37215-3.64582 6.33825 6.33825 0 0 1 3.3998.23239 6.00861 6.00861 0 0 1 3.80957 4.61638c.05322.33971.05496.68747.07188.91552z" class="cls-2"/></svg>