<svg xmlns="http://www.w3.org/2000/svg" role="img" viewBox="-16.36 -8.36 1890.72 387.72"><title>Metaflow logo</title><defs><style>.cls-1{fill:#00bacd}.cls-4{fill:#06a3d4}.cls-5{fill:#04acd2}.cls-6{fill:#05a9d3}.cls-11{fill:#02b5cf}.cls-12{fill:#1178e2}.cls-13{fill:#0f81df}.cls-17{fill:#079fd6}.cls-20{fill:#03aed1}.cls-33{fill:#07a1d5}</style></defs><path d="M343.37 148.698c-26.951-5.188-52.884.429-78.276 8.447-46.863 14.798-86.771 41.49-123.083 74.031-2.835 2.541-2.054 3.487.674 5.242 17.387 11.184 35.35 21.37 53.443 31.343 1.372 4.598.412 9.296.515 13.94.156 7.013.245 14.038-.083 21.048-.11 2.329.09 5.454-3.967 4.658-13.255-5.446-25.658-12.568-38.089-19.599a726.904 726.904 0 0 1-67.733-43.97c-3.383-2.444-5.02-4.39-1.517-8.355 43.56-49.29 95.123-87.239 156.95-110.46a244.35 244.35 0 0 1 89.383-15.898c45.1.506 77.797 34.092 76.199 78.97a71.71 71.71 0 0 1-1.866 16.005c-1.806-.166-1.878-1.746-2.212-2.937-2.38-8.468-5.866-16.376-11.452-23.256-1.32-3.616-4.323-5.826-6.985-8.32-1.942-2.615-4.99-3.907-7.304-6.078-3.485-3.426-8.59-3.978-12.334-6.945-7.2-3.261-14.49-6.243-22.263-7.866zM228.383 88.873c-28.157 12.266-54.966 27.024-81.02 43.26-33.12 20.641-62.956 45.605-93.254 69.978-.262.211-.507.444-.768.656-6.723 5.47-6.703 5.446-13.223-.32-5.8-5.132-11.606-10.26-17.502-15.28-3.105-2.643-3.567-4.931-.127-7.752 39.062-32.027 77.86-64.408 121.872-89.707 2.318-1.332 4.72-2.52 7.084-3.774 3.584-1.401 7.29-.515 10.936-.523 19.578-.04 39.157-.1 58.735.055 2.75.021 6.361-.924 7.267 3.407z" class="cls-1"/><path fill="#1275e3" d="M469.858 261.8c-2.913 7.614-7.637 14.086-12.793 20.285-3.354 2.46-4.14 2.244-4.716-1.383a28.961 28.961 0 0 1-.12-4.534c-.005-17.827.137-35.655-.043-53.48-.168-16.618-1.832-33.232-.868-49.842.829-14.284.679-28.56.843-42.841a10.213 10.213 0 0 1 .926-4.9c1.81-2.004 3.482-.716 4.648.586a74.434 74.434 0 0 1 11.391 16.86 4.693 4.693 0 0 1-.06 4.337c-.965 2.26-.574 4.65-.577 6.965q-.084 50.175.032 100.35c.008 2.528-1.065 5.422 1.337 7.597z"/><path d="M468.912 145.6a64.558 64.558 0 0 0-14.176-21.204c-5.089-4.778-10.006-9.735-15.132-14.477-5.565-6.85-13.052-11.312-20.175-16.235-2.208-1.522-5.006-2.502-5.296-5.783.759-2.626 3.089-3.055 5.174-3.167 10.528-.564 21.068-.411 31.604-.108a8.56 8.56 0 0 1 3.264 1.23c12.382 14.134 20.835 30.484 26.504 48.249a162.308 162.308 0 0 1 6.607 71.093c-1.486-.962-1.367-2.554-1.58-4.019-2.565-17.617-6.3-34.866-15.662-50.378-.935-1.55-1.848-3.233-1.132-5.202z" class="cls-1"/><path fill="#1372e4" d="M468.912 145.6c9.982 16.17 14.96 34.055 17.945 52.607a68.603 68.603 0 0 1 .428 6.994c-1.384 17.61-6.31 34.259-13.625 50.267-1.034 2.262-3.287 3.772-3.802 6.332-1.214.587-2.362.702-2.771-.896a12.252 12.252 0 0 1-.212-3.005q-.014-53.54-.006-107.079c0-2-.343-4.148 2.043-5.22z"/><path d="M224.288 50.457a124.946 124.946 0 0 1 22.315-7.893c2.445 1.044 4.992.342 7.477.346q66.284.093 132.568-.012c3.148-.006 6.348.93 9.472-.244 5.473.92 9.018 5.66 14.197 7.161 2.236 1.892.516 2.915-.972 3.679-1.834.942-3.93.794-5.945.794q-85.233.032-170.465-.07c-3.194-.007-7.395 1.193-8.647-3.76z" class="cls-4"/><path d="M282.93 70.994l-1.977.761a4.902 4.902 0 0 0-3.344-.824c-27.38 1.135-54.772.283-82.158.43-3.746.02-7.865.305-10.438-3.528a67.216 67.216 0 0 1 15.13-6.994c3.67.637 7.371.254 11.052.256q102.62.06 205.24.019a72.605 72.605 0 0 0 11.06-.459 31.016 31.016 0 0 1 7.898 6.184c-2.08 1.936-4.7 1.523-7.164 1.534-13.236.059-26.472.104-39.708-.002a225.95 225.95 0 0 0-24.571 1.004 4.371 4.371 0 0 1-1.774.013c-7.122-1.316-14.173-3.215-21.522-2.92-13.784-1.57-27.447.294-41.135 1.449-1.707.911-3.753-.243-5.424.889l-.42.175-.444-.106c-1.576 1.11-3.663-.34-5.186 1.037l.058-.03c-1.559 1.143-3.694-.4-5.174 1.112z" class="cls-5"/><path d="M427.494 60.655c-1.034 2.398-3.163 2.107-5.174 2.107q-108.44 0-216.881-.005c-1.985 0-4.139.397-5.296-1.918a39.53 39.53 0 0 1 11.764-5.31c64.706 1.236 129.419.191 194.127.587 4.71.029 9.386-.689 14.094-.369z" class="cls-6"/><path fill="#089ed6" d="M396.12 42.654c-1.023 2.075-2.925 1.927-4.795 1.926l-140.805-.018c-1.595 0-3.55.5-3.917-1.998a132.203 132.203 0 0 1 26.038-7.16c4.312-1.064 8.705-.47 13.045-.489 28.452-.125 56.905-.027 85.357-.043 1.636-.001 3.38-.245 4.952.588 7.234.926 13.106 5.665 20.125 7.194z"/><path fill="#05a6d3" d="M420.128 55.747c-2.462 1.72-5.213 2-8.156 1.998q-95.464-.07-190.928.016a16.762 16.762 0 0 1-9.136-2.232 49.526 49.526 0 0 1 12.38-5.072c1.605 2.211 3.96 2.21 6.352 2.209q87.81-.015 175.622-.052c1.767-.002 4.818 1.164 4.055-2.799a25.436 25.436 0 0 1 9.81 5.932z"/><path fill="#107ce1" d="M420.38 267.83a162.433 162.433 0 0 0 18.027-25.625c3.08 2.648 2.695 6.321 2.74 9.777.201 15.728-.213 31.46.24 47.186-3.829 4.945-8.882 8.537-13.974 11.943-1.606 1.074-3.164 2.28-4.817 3.314-3.092.099-3.544-2.274-3.614-4.392-.417-12.662-.3-25.33-.08-37.995a9.118 9.118 0 0 1 1.478-4.208z"/><path fill="#117be1" d="M366.773 155.722c3.505 3.242 8.993 3.105 12.065 7.083-.633 18.28-.118 36.566-.284 54.848-.088 9.73.19 19.462-.174 29.19a28.61 28.61 0 0 1-10.175 6.026c-3.484.195-3.768-2.53-3.782-4.757-.085-13.26-.852-26.534.436-39.78 7.224-15.118 7.081-30.214-.137-45.29-.46-1.811-2.873-2.952-1.939-5.205.708-1.707 1.703-3.223 3.99-2.115z"/><path d="M228.383 88.873c-1.354-2.493-3.744-1.843-5.851-1.846q-28.036-.045-56.073-.016c-5.031.001-10.08.26-15.014-1.077a117.69 117.69 0 0 1 18.14-10.153c25.933-1.09 51.877-.342 77.815-.366 2.614-.003 5.945-.196 6.424 3.839l-25.441 9.62z" class="cls-11"/><path d="M440.58 109.245q5.217 4.953 10.437 9.903a13.917 13.917 0 0 1 3.719 5.248c-1.539 1.321-.952 3.117-.98 4.731-.072 4.035-.16 8.076 0 12.105.51 12.761-2.328 25.51-1.712 38.062 1.656 33.718 1.672 67.424 1.618 101.145-.006 3.857 1.583 2.533 3.403 1.647a20.077 20.077 0 0 1-5.206 6.329c-1.996-1.172-2.52-3.188-2.524-5.202-.044-22.841-.874-45.688.437-68.52.022-.382.133-.66.038-.61-.714.758.417 3.503-2.296 3.24 3-16.07 4.324-32.178 2.315-48.532-1.78-14.489-6.245-28.074-12.337-41.222a68.222 68.222 0 0 1-.305-13.333c.132-2.187-.02-4.892 3.393-4.99z" class="cls-12"/><path d="M420.38 267.83q.004 20.512.013 41.023c.002 2.136-.423 4.464 2.203 5.572a74.556 74.556 0 0 1-17.14 10.095c-4.757.627-4.523-3.102-4.702-5.864-.433-6.686-.13-13.398-.166-20.1-.015-3.015.024-6.032.009-9.047-.014-2.621.552-4.98 2.522-6.847l17.261-14.832z" class="cls-13"/><path d="M447.514 217.323c1.98-2.24 1.642-5.24 2.575-7.924 1.22 1.24.57 2.718.573 4.007q.08 33.046.006 66.091a27.15 27.15 0 0 0 1.19 8.918c-2.376 4.669-7.452 6.71-10.472 10.753-2.713-.705-1.75-2.945-1.76-4.598-.072-12.623-.041-25.246-.039-37.87.001-4.864.28-9.75-1.18-14.495a223.844 223.844 0 0 0 9.107-24.882z" class="cls-12"/><path fill="#0b8fdb" d="M370.2 337.723a40.048 40.048 0 0 1-14.272 2.947c-1.419.74-2.959.241-4.428.434-3.443.453-5.083-1.362-5.232-4.488-.448-9.336-.335-18.681-.064-28.023a4.324 4.324 0 0 1 3.45-4.327l18.147-4.391c2.02 2.637 1.436 5.759 1.56 8.723.401 9.704-.772 19.454.838 29.125z"/><path fill="#0d8add" d="M370.2 337.723c-1.908-.249-2.362-1.49-2.36-3.211q.016-17.318-.039-34.637l19.252-7.704c1.191 9.878.269 19.793.47 29.69a23.386 23.386 0 0 0 1.866 9.79 69.816 69.816 0 0 1-19.19 6.072z"/><path fill="#03b0d0" d="M253.824 79.254c-1.803-2.705-4.601-2.345-7.27-2.345q-35.06-.007-70.118 0c-2.349 0-4.727.219-6.851-1.128a87.357 87.357 0 0 1 15.428-7.948 28.834 28.834 0 0 0 10.763 2.033q40.09-.09 80.179.017c1.768.004 4.247-1.148 4.998 1.872-9.298 1.576-17.977 5.392-27.129 7.499z"/><path d="M290.079 339.72a102.601 102.601 0 0 1-21.247-4.363 5.62 5.62 0 0 1-1.515-4.116c-.153-9.328-.376-18.664.133-27.98.144-2.637.381-6.094 4.8-5.221l18.109 4.032a15.122 15.122 0 0 0-1.844 8.221c.072 6.552.192 13.111-.047 19.655-.125 3.434 1.017 6.528 1.61 9.772z" class="cls-4"/><path d="M290.079 339.72c-2.576-1.197-3.174-3.226-3.124-5.981.165-9.152.117-18.309.027-27.462-.025-2.496.345-4.326 3.376-4.205l20.217 3.02c-3.244 2.204-3.97 5.323-3.854 9.09.217 7.012.121 14.036.028 21.053-.03 2.284.35 4.749-1.69 6.546a60.34 60.34 0 0 1-14.98-2.06z" class="cls-17"/><path fill="#0e86de" d="M389.389 331.651c-2.129-.247-3.348-1.318-3.342-3.582.028-11.195.024-22.39.101-33.585a7.16 7.16 0 0 1 .905-2.313l16.066-9.508c-1.693 4.543-.785 9.265-.878 13.905-.147 7.35-.063 14.705-.025 22.057.013 2.51-.118 5.184 3.24 5.895a62.036 62.036 0 0 1-16.067 7.131z"/><path d="M236.492 286.067l19.333 7a18.737 18.737 0 0 0-1.633 8.733c.045 6.994.113 13.99-.04 20.984-.06 2.807-.035 5.73-2.519 7.793a66.325 66.325 0 0 1-15.21-4.922 8.335 8.335 0 0 1-1.524-5.222c-.08-9.74-.094-19.482.013-29.222.02-1.84.09-3.727 1.58-5.144z" class="cls-5"/><path fill="#05a8d3" d="M251.633 330.577c2.063-10.996.616-22.102 1.006-33.151.08-2.28-.173-4.576 3.186-4.36a108.073 108.073 0 0 1 16.424 4.974c-3.656.714-3.397 3.608-3.405 6.265-.033 10.35-.013 20.702-.012 31.052a77.832 77.832 0 0 1-17.199-4.78z"/><path d="M362.783 68.869c3.698-1.673 7.71-1.973 11.62-1.998 20.329-.133 40.66-.044 60.99-.032a34.339 34.339 0 0 1 7.414 6.653c-1.063 4.605-5.018 3.743-8.011 3.802-12.03.24-24.068.198-36.102.04-2.16-.028-4.364-.35-6.332.924-3.555.994-6.508-1.102-9.566-2.15a187.79 187.79 0 0 0-19.058-5.85 1.076 1.076 0 0 1-.955-1.39z" class="cls-20"/><path fill="#099bd7" d="M375.995 35.46a1023.242 1023.242 0 0 1-103.353-.057c10.144-3.13 20.617-4.536 31.11-5.723 23.606-2.67 46.997-1.815 69.979 4.794a18.288 18.288 0 0 1 2.264.986z"/><path fill="#05a7d3" d="M283.965 255.88a55.326 55.326 0 0 1-14.131-4.156c-2.197-1.271-2.528-3.423-2.559-5.645-.128-9.365-.22-18.733.054-28.095.08-2.75.088-6.252 4.741-4.758l15.23 5.007a15.558 15.558 0 0 0-1.815 8.23c.061 7.218.086 14.438-.016 21.657-.038 2.652.213 5.412-1.504 7.76z"/><path fill="#01b6ce" d="M192.593 307.407c3.025-.35 2.46-2.673 2.465-4.602q.042-14.6.003-29.199c-.005-2.026-.044-4.034 1.067-5.845a94.799 94.799 0 0 1 14.19 6.98c1.29 5.811.286 11.69.468 17.533.178 5.699.214 11.414-.069 17.11-.096 1.944.554 4.64-2.694 5.05a75.048 75.048 0 0 1-15.43-7.027z"/><path d="M378.38 246.843c-2.031-1.222-1.413-3.248-1.415-5.004q-.05-37.269.012-74.537c.004-1.65-.908-3.902 1.863-4.497 2.177 2.243 5.656 2.96 7.109 6.056-.754 13.364-.256 26.74-.319 40.11-.05 10.532-.25 21.068.16 31.598-1.402 3.352-5.276 3.785-7.41 6.274z" class="cls-12"/><path d="M272.07 213.226c-1.507.122-3.214.094-3.189 2.245.136 11.627-.541 23.263.373 34.88a4.783 4.783 0 0 0 .58 1.373 56.688 56.688 0 0 1-14.153-5.022 5.873 5.873 0 0 1-2.526-5.22q-.24-14.627.002-29.254a7.743 7.743 0 0 1 1.435-4.24c1.282-1.31 2.749-.967 4.171-.376 4.447 1.844 8.873 3.739 13.307 5.614z" class="cls-20"/><path fill="#03b0d1" d="M236.492 286.067l-.069 39.588a64.448 64.448 0 0 1-14.073-5.254 7.407 7.407 0 0 1-1.582-5.14q-.13-15.004.01-30.008c.02-1.824.065-3.704 1.57-5.1l14.144 5.914z"/><path fill="#0a94d9" d="M349.654 304.266c-1.77 1.337-2.085 3.139-2.055 5.27.107 7.502.042 15.006.042 22.51 0 8.44 0 8.44 8.287 8.623-5.535 1.777-11.243 2.118-17 2.053-7.361.93-7.943.505-8.036-6.576-.096-7.34-.068-14.681 0-22.022.025-2.659-.049-5.383 1.886-7.583 3.06-1.98 6.734.34 9.837-1.386a18.42 18.42 0 0 1 7.039-.889z"/><path fill="#1274e3" d="M385.79 240.57c-2.442-.572-1.749-2.567-1.751-4.113q-.054-31.809-.006-63.618c.002-1.571-.582-3.555 1.917-3.978 2.826 2.297 5.838 4.432 7.103 8.099 1.183 17.366.589 34.747.376 52.124a4.327 4.327 0 0 0 .47 2.397c-1.576 4.035-5.12 6.314-8.108 9.088z"/><path fill="#099ad7" d="M342.615 305.155c-2.804 2.212-6.114.535-9.12 1.186-1.844 1.526-4.076 1.36-6.256 1.46-5.266.242-6.15.954-6.246 6.279-.145 8.076-.349 16.16.187 24.235.196 2.952.201 5.771-4.178 4.404l-2.703-.097c-2.966-1.363-6.229.243-9.215-.92l-.025.079c.048-10.323.333-20.652.034-30.964-.127-4.354 1.115-6.235 5.48-5.724 10.681.342 21.361.641 32.043.062z"/><path d="M392.1 77.902c-.477-3.644 2.786-2.393 3.9-2.322 13.005.832 26.013.03 39.013.31 2.85.061 5.664-.08 7.794-2.398a65.153 65.153 0 0 1 11.367 12.365c-11.03.047-22.063.042-33.093.186-2.309.03-5.329-.73-5.773 3.058-2.578 1.505-4.293-.822-6.375-1.466a57.587 57.587 0 0 1-13.76-6.72c-1.195-.828-2.633-1.414-3.073-3.013z" class="cls-11"/><path fill="#02b3cf" d="M222.349 280.153l.001 40.248a62.488 62.488 0 0 1-14.327-5.967c1.828-1.38 1.155-3.38 1.166-5.138.06-9.403.039-18.807.02-28.21-.005-2.19-.113-4.378 1.108-6.344a70.53 70.53 0 0 1 12.032 5.411z"/><path fill="#0a96d9" d="M307.298 223.142c9.704 1.157 19.418 2.133 29.212 1.334-.74 2.95-3.233 2.065-5.177 2.378-9.003.446-9.579-1.83-9.47 9.837.05 5.554-.014 11.11.014 16.664.033 6.67.193 6.821 6.723 6.915 1.01.015 2.02.06 3.035.075 1.88-.015 3.76-.044 5.141 1.562a61.879 61.879 0 0 1-20.454-.104 1.494 1.494 0 0 0-.442-.229c-10.25-1.319-10.255-1.318-10.26-11.821-.002-6.678-.053-13.355.03-20.032.03-2.293-.295-4.738 1.648-6.579z"/><path d="M364.859 208.333c1.133 1.817.974 3.844.973 5.854q-.013 16.59-.007 33.181c-.001 2.185-.28 4.474 2.38 5.501-3.515 2.99-8.102 3.383-12.17 5.035-3.454.12-3.692-2.57-3.773-4.826-.353-9.917-.219-19.84-.094-29.763a8.281 8.281 0 0 1 2.443-5.368 54.464 54.464 0 0 0 10.248-9.614z" class="cls-13"/><path fill="#0a97d8" d="M317.002 342.719c1.973-.119 3.407-.156 2.957-3.156-1.397-9.314-.461-18.728-.515-28.099-.019-3.282 1.308-5.777 5.504-5.272a78.947 78.947 0 0 0 8.546.148c-2.113 11.343-.84 22.79-.781 34.178.019 3.663 4.103 1.411 6.213 2.204a87.033 87.033 0 0 1-21.924-.003z"/><path fill="#1371e4" d="M393.898 231.481c-1.8-.317-1.801-1.677-1.8-3.065.007-16.412-.005-32.824.05-49.236a6.66 6.66 0 0 1 .906-2.22c6.795 7.858 10.08 17.381 12.866 27.14-1.91 10.047-5.302 19.445-12.022 27.381z"/><path fill="#089cd7" d="M307.298 223.142c-.025 10.271.174 20.55-.169 30.81-.166 4.965 1.33 7.373 6.49 6.852a2.723 2.723 0 0 1 2.703.999 81.636 81.636 0 0 1-20.197-2.987 5.058 5.058 0 0 1-2.489-4.633c-.222-9.523-.349-19.05.075-28.568.117-2.625.968-5.064 4.547-4.344l-.095-.057c1.445 1.575 3.6-.043 5.132 1.14 1.376.051 2.818-.237 4.003.788z"/><path d="M298.259 221.271c-1.889.255-3.126 1.2-3.126 3.225q.008 16 .108 32.001a7.303 7.303 0 0 0 .884 2.319 42.046 42.046 0 0 1-12.16-2.935c.009-11.474.064-22.947-.01-34.42-.016-2.482 1.192-3.227 3.345-3.227a48.31 48.31 0 0 1 10.959 3.037z" class="cls-33"/><path fill="#0e87dd" d="M354.61 217.947c-1.783 5.557-.69 11.272-.865 16.91-.187 6.008-.021 12.026-.053 18.04-.01 2.068-.024 4.077 2.343 5.006a15.018 15.018 0 0 1-7.255 1.917c-6.934 1.01-7.696.465-7.803-6.295-.126-8.033-.058-16.069-.02-24.103.01-2.192.116-4.369 1.567-6.2l12.087-5.275z"/><path fill="#0d8cdc" d="M342.524 223.221c.022 10.068.326 20.147-.055 30.2-.19 5.004 1.094 7.32 6.31 6.4a30.51 30.51 0 0 1-12.003 2.086l-5.3-.243c-1.431-1.418-1.552-3.265-1.573-5.098q-.15-12.964 0-25.928c.02-1.835.158-3.677 1.576-5.1 1.667-.4 3.617.54 5.03-1.062l6.015-1.255z"/><path fill="#02b4cf" d="M254.592 207.988q.046 16.162.088 32.324c.004 2.187-.174 4.392 1.001 6.39a55.909 55.909 0 0 1-13.12-5.243 8.232 8.232 0 0 1-1.531-5.145c.215-7.09-.672-14.202.39-21.277a62.176 62.176 0 0 1 13.172-7.049z"/><path fill="#01bace" d="M241.42 215.037c2.282 5.154.763 10.58 1.098 15.872.222 3.504.042 7.033.042 10.55-6.413-2.777-12.892-5.415-19.216-8.383-3.987-1.871-4.126-4.591-.362-7.04 5.999-3.9 11.877-8.032 18.439-10.999z"/><path fill="#117de1" d="M440.58 109.245c-2.323 1.067-1.876 3.177-2.028 5.134-.34 4.398 1.025 8.936-1.06 13.19a159.14 159.14 0 0 0-19.266-25.978c-.74-3.208-1.86-6.511 2.156-8.514 7.292 4.69 14.696 9.241 20.198 16.168z"/><path fill="#1183df" d="M420.382 93.077c-1.476 2.645-1.577 5.64-2.156 8.513a165.28 165.28 0 0 0-24.223-18.31c-.826-1.52-.431-2.631 1.128-3.35l20.178 9.17c.958 2.262 3.788 2.133 5.073 3.977z"/><path fill="#1189de" d="M395.131 79.93l-1.128 3.35a171.712 171.712 0 0 0-33.213-13.564c-.138-.827-.056-1.406 1-.883q.496.014.993.035l29.317 9.034 3.031 2.029z"/><path fill="#1283df" d="M366.773 155.722c-5.655 1.047-2.203 4.646-2.051 7.32-5.543-7.124-13.063-11.304-21.351-14.344 8.419.278 16.02 3.287 23.402 7.024z"/><path d="M361.79 68.833l-1 .883-20.136-3.249c7.254-1.073 14.21.5 21.135 2.366z" class="cls-6"/><path d="M305.084 341.701c3.076.269 6.311-1.065 9.215.92-3.094-.086-6.24.355-9.215-.92z" class="cls-17"/><path d="M303.295 222.354c-1.742-.237-3.775.835-5.132-1.14 1.78.067 3.59.002 5.132 1.14z" class="cls-33"/><path d="M282.93 70.994c1.397-1.891 3.41-.923 5.173-1.111-1.552 1.173-3.373 1.095-5.174 1.11z" class="cls-5"/><path d="M288.045 69.912c1.432-1.827 3.427-.84 5.186-1.037-1.569 1.142-3.39 1.029-5.186 1.037zm6.05-1.106c1.577-1.695 3.584-.77 5.422-.89a9.835 9.835 0 0 1-5.422.89z" class="cls-5"/><path fill="#0b91da" d="M331.479 225.537l-.002 36.128c-11.117.462-11.117.462-11.117-10.784 0-6.686.3-13.39-.103-20.052-.279-4.618 1.441-6.013 5.714-5.438a48.902 48.902 0 0 0 5.508.146z"/><path d="M1408.19 281.984c-31.355 0-56.223-.129-81.088.07-8.681.07-12.593-2.847-11.068-12.197 8.816-54.078 17.31-108.209 26.075-162.296 2.627-16.212 2.864-16.282 19.583-16.172 24.525.161 24.548-3.25 20.104 23.84-6.446 39.292-12.152 78.705-18.591 117.998-1.453 8.866.34 12.847 10.06 11.813a112.173 112.173 0 0 1 19.397-.07c7.217.493 9.136-2.13 8.851-9.397-1.32-33.698 4.094-66.538 15.11-98.336 10.457-30.187 32.501-45.758 64.367-48.059 17.448-1.26 34.675-1.22 51.775 2.356 20.096 4.2 32.725 17.409 34.615 37.749a228.787 228.787 0 0 1-18.648 114.566c-10.13 23.08-29.853 33.436-54.133 36.306-30.91 3.653-61.94.84-86.41 1.829zm118.109-122.525c-.272-12.318 1.218-23.817-10.213-30.635-21.584-12.874-52.715-2.116-61.21 21.317-7.728 21.316-10.53 43.65-11.345 66.107-.337 9.268.373 19.393 10.456 24.979 24.297 13.46 54.805 1.362 62.96-24.994 5.873-18.981 8.254-38.51 9.352-56.774zM918.234 91.312q56.69 0 113.379.028c12.187.024 13.95 1.898 11.84 13.784-3.795 21.373 1.545 21.89-24.765 21.65-7.83-.07-15.685.4-23.487-.067-7.343-.439-10.073 2.657-11.159 9.726-6.35 41.355-13.307 82.617-19.617 123.978-3.267 21.417-2.855 21.48-24.513 21.506-20.052.025-20.095.019-16.925-20.062 6.523-41.319 12.995-82.646 19.739-123.93 1.278-7.824-.564-11.366-9.164-11.292-32.003.275-64.011.224-96.015.016-6.594-.043-10.073 1.967-10.783 8.95a192.433 192.433 0 0 1-3.953 24.158c-1.771 7.596 1.165 9.74 8.256 9.68 19.746-.173 39.496-.078 59.243.078 13.082.104 14.89 2.004 12.426 14.246-4.168 20.697.82 20.953-24.688 21.034-17.69.057-35.375 1.02-53.065 1.117-6.757.037-10.012 2.7-10.787 9.286a158.684 158.684 0 0 1-3.047 19.136c-1.97 8.055.323 11.043 8.902 10.868 21.441-.437 42.898-.188 64.348-.117 14.428.048 16.08 2.064 13.738 16.177-.446 2.686-1.173 5.342-1.4 8.043-.814 9.716-5.936 12.99-15.623 12.867-34.724-.442-69.457-.122-104.186-.202-12.84-.03-14.248-1.894-12.253-14.43q12.913-81.126 25.745-162.265c1.99-12.6 3.287-13.882 16.476-13.896q55.669-.059 111.338-.013zm779.116 81.478c-9.841 24.92-20.695 49.496-29.281 74.84-12.118 35.772-25.97 38.85-66.113 33.81-10.22-1.284-13.728-9.178-14.49-18.372q-1.222-14.74-1.769-29.535-2.264-63.747-4.27-127.503c-.43-14.212.171-14.57 13.922-14.665 24.961-.175 26.363-.264 27.89 23.882 2.34 36.98 2.44 74.098 3.729 111.15.152 4.37-2.448 11.346 3.351 12.434 5.66 1.061 6.109-6.26 7.773-10.337 15.948-39.08 31.94-78.145 47.259-117.473 3.771-9.68 8.837-13.799 19.519-13.54 24.284.585 24.806.044 27.05 23.834 3.418 36.226 5.996 72.53 9.095 108.788.287 3.356-1.169 8.778 4.123 9 4.515.191 4.91-5.001 6.095-8.37 14.91-42.386 29.946-84.73 44.4-127.273 2.975-8.754 7.105-13.283 16.743-12.21 5.72.638 11.572.286 17.356.11 8.777-.27 10.735 3.762 7.995 11.542q-27.81 78.973-55.525 157.98c-5.24 14.839-15.3 22.798-31.813 21.471-7.788-.625-15.68.085-23.479-.46-12.324-.86-17.575-5.049-19.042-17.202-2.566-21.258-4.108-42.64-6.04-63.974-.827-9.123-1.556-18.255-2.33-27.383l-2.148-.544zM652.73 212.593c9.14-16.706 18.084-32.953 26.932-49.253 10.556-19.446 21.228-38.832 31.451-58.453 4.91-9.424 11.543-14.685 22.654-13.776 6.767.554 13.615.197 20.425.13 6.306-.061 9.56 2.629 9.129 9.246-3.666 56.34-7.447 112.673-10.79 169.033-.585 9.877-5.025 13.147-14.216 12.463a138.937 138.937 0 0 0-16.34-.046c-9.288.406-11.454-4.115-10.747-12.748 2.666-32.51 4.766-65.065 5.353-98.44-6.628 11.78-13.295 23.538-19.874 35.346-11.264 20.22-22.847 40.273-33.572 60.776-7.226 13.814-19.434 8.09-29.878 8.728-8.964.547-9.4-7.399-10.857-13.531-6.297-26.489-12.42-53.019-18.637-79.526-.913-3.893-1.992-7.747-3.11-12.064-3.672 2.298-3.331 5.622-4.012 8.313-7.68 30.36-15.43 60.706-22.699 91.166-2.089 8.755-6.326 13.137-15.55 12.088a72.83 72.83 0 0 0-8.168-.042c-20.634-.004-20.733-.084-15.719-19.635q19.657-76.652 39.386-153.285c4.557-17.719 4.577-17.713 23.328-17.72 26.127-.01 26.258-.039 31.986 25.31 6.376 28.213 12.423 56.5 18.785 84.717.783 3.472.611 7.481 4.74 11.203zm484.295 69.387c-2.722-.001-5.455-.155-8.165.029-7.464.506-11.237-2.455-11.852-10.338-.925-11.85-2.886-23.617-4.027-35.457-.6-6.22-3.311-9.143-9.71-9.068-15.31.18-30.627.253-45.937.03-6.072-.089-9.333 2.754-11.567 8.003-5.33 12.516-11.236 24.797-16.221 37.444-2.836 7.192-7.338 9.944-14.8 9.452-6.099-.403-12.245-.153-18.37-.101-8.115.068-10.317-3.192-6.95-10.825 13.04-29.561 25.822-59.236 38.756-88.844 10.074-23.062 20.427-46.004 30.285-69.157 6.99-16.417 19.214-24.023 36.788-23.58 7.474.188 15.02-.107 22.403.837 13.845 1.769 18.39 5.624 20.723 19.74 3.155 19.094 5.253 38.372 7.463 57.61q5.7 49.637 10.952 99.323c1.542 14.372 1.018 14.8-13.646 14.9-2.041.015-4.083.003-6.125.002zm-50.489-88.647c3.74 0 7.52-.35 11.212.073 7.546.864 10.446-1.591 9.328-9.63-2.338-16.81-3.883-33.728-5.914-50.583-.342-2.842.215-6.78-3.718-7.567-4.41-.882-5.68 3.046-7.002 6.06-5.87 13.38-11.525 26.856-17.348 40.258-9.283 21.367-9.313 21.354 13.442 21.39zm179.67-101.959c19.076.005 38.154.182 57.226-.077 8.42-.114 11.695 2.686 10.181 11.593-4.432 26.087-1.278 23.79-27.325 23.832-21.119.034-42.244.293-63.355-.132-7.71-.155-11.243 2.663-12.052 10.172a221.299 221.299 0 0 1-3.54 23.203c-1.667 7.68 1.63 9.643 8.55 9.614 18.05-.075 36.12-.27 54.143.487 13.833.581 14.493 2.085 12.13 15.49-3.87 21.939-2.476 18.76-23.004 19.194-16.335.345-32.669 1.191-49 1.107-7.908-.041-10.846 3.567-11.91 10.68-2.666 17.836-5.873 35.593-8.386 53.449-1.222 8.684-5.313 12.717-14.203 12.072-5.082-.368-10.215.006-15.323-.075-11.495-.183-13.366-2.016-11.616-13.327 3.902-25.226 8.248-50.382 12.285-75.587 4.79-29.907 9.661-59.805 14.025-89.776 1.27-8.718 4.907-12.314 13.952-12.077 19.062.5 38.147.153 57.222.158z"/><path fill="#fff" d="M1367.918 237.828h107.077v7.066h-107.077z"/></svg>