<svg xmlns="http://www.w3.org/2000/svg" role="img" viewBox="98.75 128.75 2377.50 2405.00"><title>Milvus logo</title><defs><style>.cls-1{fill:#33b5f1}</style></defs><path d="M1212.445 174.62c206.883 3.282 388.014 71.943 539.122 214.837 121.065 114.484 195.683 254.585 225.376 418.499A681.837 681.837 0 0 1 1988.01 943.2c-3.688 184.313-64.36 347.43-185.498 486.815-117.414 135.101-264.838 220.855-440.576 253.142-237.012 43.545-452.044-9.362-642.378-158.437-39.538-30.967-73.845-67.647-109.597-102.712q-115.452-113.232-230.631-226.744-104.482-102.676-209.01-205.304c-32.357-31.893-32.38-76.144-.04-108.034q107.352-105.86 215.074-211.344c67.425-66.196 134.515-132.741 202.462-198.398 45.11-43.589 87.799-89.771 137.279-128.757q147.884-116.52 332.401-153.344a784.387 784.387 0 0 1 154.949-15.464zm597.996 761.913c-.795-33.092-3.51-65.557-9.64-97.695-30.161-158.1-113.224-281.583-247.556-368.923-129.56-84.237-271.953-110.416-423.819-81.663-109.266 20.688-204.532 69.783-284.97 146.612-53.188 50.802-105.323 102.708-157.843 154.208q-105.61 103.56-211.037 207.305c-24.277 23.937-24.173 55.216-.082 79.045 34.49 34.114 69.224 67.981 103.817 101.991q126.508 124.375 253.014 248.751 183.432 179.671 440.092 167.934c90.503-4.179 175.84-28.316 253.608-74.626 182.804-108.859 276.177-271.122 284.416-482.939zM538.337 2225.905c-28.128 56.343-53.71 110.78-77.61 165.988-3.722 8.595-7.82 12.61-17.976 12.028-18.652-1.07-37.42-.661-56.117-.122-7.066.203-10.454-1.874-13.317-8.534q-34.707-80.756-74.458-159.176c-1.106-2.19-2.426-4.27-4.826-8.46-.923 12.69-1.871 23.158-2.416 33.647-2.794 53.777-5.432 107.563-8.24 161.34-.89 17.075-2.343 34.123-3.087 51.203-.223 5.123-1.407 7.296-6.99 7.257q-46.147-.326-92.297.001c-6.035.044-7.43-2.119-7.096-7.84 4.49-76.84 8.71-153.694 13.148-230.536 2.775-48.06 5.13-96.159 8.971-144.136 2.244-28.025 18.593-43.55 46.434-46.597 23.053-2.522 45.514-.042 66.629 10.698a33.921 33.921 0 0 1 16.204 16.29c29.261 60.427 56.835 121.678 88.115 181.121 1.316 2.502 2.717 4.958 4.728 8.615 6.466-13.08 12.393-25.251 18.476-37.344 22.064-43.857 44.249-87.676 64.132-132.56 18.115-40.893 44.716-51.368 89.389-46.43 13.328 1.474 25.69 6.544 37.946 11.849 5.06 2.19 7.085 5.342 7.36 10.776q2.81 55.522 6.043 111.024 6.225 107.68 12.616 215.35c1.41 24.033 2.688 48.074 4.3 72.093.386 5.746-1.212 7.71-7.245 7.654-30.13-.284-60.263-.24-90.393-.036-5.94.04-8.306-1.63-8.63-8.002q-4.666-92.058-9.903-184.088c-1.116-20.158-2.478-40.302-3.89-63.073zM2187.453 936.046c.11-83.165-8.133-165.517-26.483-246.746a76.009 76.009 0 0 1-1.302-7.487c-.933-7.614 1.69-13.653 8.253-17.787 6.832-4.304 13.79-4.502 20.47.139a59.157 59.157 0 0 1 7.695 7.028q104.586 104.542 209.138 209.12c34.354 34.36 34.29 78.108-.146 112.545q-104.226 104.23-208.456 208.457c-1.793 1.793-3.54 3.637-5.402 5.355-6.867 6.335-14.688 7.628-22.671 2.85-7.427-4.445-10.714-11.12-8.746-20.171 7.328-33.702 13.61-67.585 18.114-101.806 5.334-40.535 8.87-81.185 9.513-122.07.154-9.806.023-19.618.023-29.427zm-86.778 1553.209a359.077 359.077 0 0 1-119.407-19.354c-12.96-4.375-24.917-10.842-36.704-17.75-5.176-3.035-5.305-5.592-2.545-10.462q14.984-26.447 29.18-53.338c2.43-4.571 4.096-5.101 9.086-2.585 45.907 23.142 94.564 31.356 145.598 25.383a46.558 46.558 0 0 0 11.004-2.81c7.314-2.784 12.43-7.49 12.464-16.091.034-8.662-4.04-14.391-12.07-17.413-15.892-5.981-32.65-7.452-49.313-9.232-24.28-2.593-48.398-6.083-71.685-13.63-41.015-13.292-65.548-41.943-67.446-78.14-2.69-51.278 16.24-85.195 58.062-104.443 24.897-11.459 51.234-16.287 78.374-16.798 40.998-.772 81.781.655 120.47 16.725a85.627 85.627 0 0 1 11.067 5.43c14.464 8.638 24.482 20.042 23.273 38.29-1.176 17.749-11.44 29.568-25.129 39.338-4.103 2.928-6.901.493-10.252-1.342-41.542-22.746-86.057-28.337-132.44-22.476a28.454 28.454 0 0 0-16.87 8.052c-9.837 9.813-7.403 23.076 5.495 28.295 14.552 5.888 30.144 7.006 45.455 9.331 27.204 4.132 54.698 6.658 81.134 14.975 35.592 11.197 61.508 32.367 66.978 71.018 5.715 40.372-4.858 75.624-39.662 100.456-29.252 20.871-62.952 27.106-97.947 28.54-5.382.22-10.78.03-16.17.03zm-234.28-218.445c-.798 25.693.322 57.372-.734 89.08-1.932 57.984-37.603 106.342-102.038 122.403-47.004 11.717-93.81 10.772-138.835-8.357-47.803-20.308-74.191-57.33-77.427-109.17-3.279-52.541-1.178-105.222-1.048-157.835.074-29.928 15.66-44.31 45.658-45.31 15.98-.534 31.522 1.101 46.88 5.94 6.792 2.14 9.34 4.91 9.285 12.347-.365 50.418-.211 100.84-.16 151.26a108.456 108.456 0 0 0 .74 16.132c6.785 44.645 57.97 65.57 94.715 38.625 16.04-11.763 20.71-29.271 20.926-47.83.496-42.804.181-85.617.199-128.427.013-32.479 15.023-47.355 47.744-48.104a137.829 137.829 0 0 1 45.849 6.374c6.043 1.94 8.518 4.528 8.42 11.264-.411 28.534-.174 57.078-.174 91.608zm-563.388 94.462c14.752-36.33 28.582-70.647 42.622-104.88 9.483-23.12 17.67-46.8 28.829-69.202 10.188-20.455 26.876-29.765 49.91-29.772a117.946 117.946 0 0 1 51.31 11.647c7.73 3.643 9.7 7.93 6.596 16.203-12.909 34.408-27.66 68.03-42.766 101.489-27.745 61.453-56.562 122.396-88 182.077-3.236 6.144-6.834 8.455-13.87 8.325-25.35-.467-50.716-.28-76.074-.103-5.217.036-8.684-1.102-11.437-6.183-43-79.366-83.745-159.8-116.611-244.001-3.926-10.058-6.793-20.464-5.395-31.44 2.666-20.923 16.013-35.087 36.874-37.163 17.649-1.757 35.389-1.652 52.49 5.065 5.51 2.165 8.539 5.013 10.53 10.722q31.757 91.016 71.035 179.069c.88 1.986 1.894 3.912 3.957 8.147zm-240.958-110.438c0 71.958-.133 143.917.186 215.873.036 8.049-2.294 10.024-10.089 9.89-27.57-.468-55.156-.366-82.731-.048-6.548.076-8.64-1.758-8.631-8.487q.27-204.462.215-408.925c.034-27.534 14.19-41.043 44.326-43.714 18.029-1.598 35.218 2.382 52.279 7.617 5.847 1.795 4.4 6.176 4.404 10.018q.09 81.785.04 163.57l.001 54.206zm-200.495 70.874c0 48.178-.248 96.358.22 144.532.09 9.093-2.85 11.07-11.312 10.918-27.25-.49-54.517-.391-81.77-.04-7.053.09-9.15-1.977-9.131-9.142.235-88.431.074-176.863.2-265.295.04-28.23 14.764-43.248 43.094-44.891 17.245-1 34.074.66 50.596 6.13 6.08 2.013 8.31 4.731 8.268 11.353-.305 48.81-.165 97.623-.165 146.435zm-51.2-194.236c-32.013.013-56.007-23.584-56.328-55.396-.322-31.77 24.464-56.861 56.194-56.887 31.944-.026 56.777 24.514 56.934 56.263.158 31.8-24.386 56.006-56.8 56.02z" class="cls-1"/><path fill="#fefefe" d="M1624.806 936.176c-1.151-219.094-181.105-385.873-390.48-381.408-207.784 4.431-380.352 178.894-373.054 395.5 6.655 197.54 169.696 371.557 388.164 368.013 210.363-3.411 374.925-173.916 375.37-382.105z"/><path d="M1624.806 936.176c-.445 208.189-165.007 378.694-375.37 382.105-218.468 3.544-381.509-170.473-388.164-368.014-7.298-216.605 165.27-391.068 373.053-395.499 209.376-4.465 389.33 162.314 390.48 381.408z" class="cls-1"/></svg>