<svg xmlns="http://www.w3.org/2000/svg" role="img" viewBox="-1.35 -1.85 668.20 396.20"><title>MLPerf logo</title><defs><style>.cls-1{fill:#333}.cls-2{fill:#b3bec0}</style></defs><path d="M138.903 257.06c-1.09-5.763-4.808-8.772-10.606-9.29-5.693-.508-9.045 2.76-11.932 7.102-13.475 20.268-27.03 40.482-41.015 61.403-3.142-4.793-5.84-8.888-8.516-12.998Q50.94 278.853 35.04 254.431c-3.876-5.924-9.647-8.362-15.33-6.216-5.873 2.219-8.143 6.655-8.11 13.052.18 36.148.055 72.297.114 108.446.011 7.314 4.073 11.535 10.706 11.605 6.84.073 10.96-3.821 11.22-11.13.244-6.836.084-13.687.086-20.531.005-18.503.002-37.006.002-55.786 2.653.863 3.057 2.928 4.023 4.445 8.48 13.322 16.875 26.7 25.347 40.03 6.655 10.47 15.775 10.468 22.726.034 1.894-2.843 3.702-5.744 5.58-8.598 7.464-11.34 14.94-22.672 22.628-34.334 1.74 2.57 1.007 4.745 1.013 6.762.067 20.962.028 41.924.06 62.886a41.914 41.914 0 0 0 .453 7.015c1.062 6.167 5.127 9.244 11.827 9.208 6.67-.035 10.686-3.235 11.585-9.471a54.208 54.208 0 0 0 .447-7.668q.042-49.73-.002-99.462a41.564 41.564 0 0 0-.512-7.659z" class="cls-1"/><path d="M192.919 174.318c1.049 4.437 3.678 7.487 8.653 6.56 4.736-.88 6.522-3.891 5.694-8.881a106.699 106.699 0 0 1 .955-41.925c17.896-77.5 109.48-109.052 170.767-58.677 2.654 2.182 4.24 2.344 7.083.534q18.106-11.525 36.553-22.51c3.488-2.07 3.643-3.113.44-5.658-32.197-25.601-68.539-36.305-109.492-31.094-69.02 8.78-123.009 69.67-122.08 141.522-.183 5.723-.258 13.003 1.427 20.13z" class="cls-2"/><path d="M326.09 247.768c-12.61 0-25.22-.02-37.83.007-9.377.02-13.293 3.852-13.309 13.083q-.047 26.929-.009 53.858h-.022c0 18.166-.034 36.332.016 54.498.022 7.753 3.993 12.08 10.867 12.104 7.025.025 11.028-4.079 11.14-11.862.144-9.83.347-19.676-.086-29.488-.226-5.13 1.36-6.426 6.349-6.288 10.669.296 21.524 1.058 32.002-.455 22.943-3.313 38.056-30.155 31.538-54.338-5.33-19.777-20.148-31.119-40.657-31.119zm13.582 58.151c-3.113 3.907-6.92 6.03-12.119 5.904a558.452 558.452 0 0 0-26.277.008c-3.406.079-4.485-1.09-4.353-4.418.221-5.546.06-11.108.06-16.663s.178-11.118-.064-16.662c-.15-3.435 1.127-4.405 4.429-4.34 9.183.179 18.373.082 27.56.054 5.265-.016 8.772 2.941 11.603 6.895a24.573 24.573 0 0 1-.839 29.222zm136.902 10.686c-5.98-36.079-47.95-53.479-76.37-31.29-17.982 14.039-22.861 33.63-19.2 55.165 5.163 30.38 31.961 44.667 61.334 40.134 9.357-1.445 18.23-4.633 25.148-11.615 3.761-3.796 4.565-8.26 1.56-12.776-2.996-4.503-7.371-5.55-12.373-3.542a34.24 34.24 0 0 0-5.12 2.586c-8.297 5.091-17.315 5.907-26.576 4.087a27.307 27.307 0 0 1-21.366-22.98h6.406c18.174 0 36.348.03 54.522-.012 9.708-.022 13.959-4.967 12.755-14.678-.21-1.697-.441-3.393-.72-5.08zm-24.428-.282c-1.015 2.072-4.709.726-7.183.743-13.682.098-27.366.047-41.672.047 2.547-11.576 8.852-18.061 19.844-19.936 10.945-1.866 19.797 1.48 26.474 10.32 1.952 2.585 3.94 5.96 2.537 8.826z" class="cls-1"/><path d="M409.394 112.665a124.438 124.438 0 0 1 8.249 42.453c.282 17.335 18.19 29.784 34.913 25.097 15.005-4.206 21.444-13.815 21.43-31.982-.023-29.136-13.154-63.695-32.682-86.375-2.181-2.533-3.136-2.496-4.93.472-8.62 14.256-17.48 28.365-26.278 42.512a8.06 8.06 0 0 0-.702 7.823z" class="cls-2"/><path fill="#1a6196" d="M416.96 67.75c-.89.444-1.822.821-2.665 1.34q-47.69 29.368-95.344 58.795c-11.485 7.13-16.546 18.46-14.167 30.426a28.69 28.69 0 0 0 22.15 22.322c11.926 2.512 23.329-2.556 30.526-13.924 7.988-12.616 15.763-25.366 23.598-38.079q18.451-29.937 36.859-59.902l-.957-.977z"/><path d="M647.33 242.139c-5.452-2.7-11.272-2.294-16.994-2.003-18.193.924-30.637 12.122-32.303 28.627-.384 3.804 1.544 8.523-.948 11.185-2.515 2.686-7.287.547-11.03 1.128-5.532.859-9.355 5.01-9.22 10.52.138 5.61 2.993 9.249 8.603 10.346a16.454 16.454 0 0 0 5.732.311c5.991-1.004 7.12 1.763 6.884 7.151-.42 9.608-.119 19.246-.117 28.872.002 10.481-.15 20.965.052 31.443.151 7.863 5.185 12.197 12.862 11.596 6.342-.497 10.087-4.89 10.119-12.415.087-20.32.162-40.643-.071-60.961-.053-4.527 1.26-6.058 5.759-5.704a74.033 74.033 0 0 0 12.81-.156c6.23-.597 9.736-4.69 9.672-10.632-.062-5.815-3.89-9.89-9.996-10.392-2.763-.226-5.557-.105-8.336-.107-10.346-.01-11.914-2.108-9.155-12.284 1.696-6.254 6.108-8.81 13.985-7.962 2.113.228 4.183.827 6.286 1.175 5.618.93 9.766-1.022 11.558-6.583 1.837-5.703-.58-10.396-6.152-13.155zM239.784 358.896c-13.677-.081-27.368-.38-41.026.137-6.186.234-7.247-1.934-7.199-7.53.26-30.13.158-60.265.1-90.398-.017-8.774-4.212-13.323-11.922-13.337-7.861-.013-11.961 4.422-11.986 13.21-.05 17.738-.015 35.476-.015 53.214 0 17.952-.035 35.904.015 53.855.026 9.389 3.892 13.257 13.127 13.267q29.492.033 58.984 0c8.637-.01 13.307-3.99 13.245-11.178-.062-7.177-4.698-11.189-13.323-11.24zm310.952-81.553c-11.978-.15-21.963 4.353-29.753 13.882-2.224-8.992-6.433-12.585-13.42-11.855-6.965.727-10.245 5.282-10.249 14.308q-.014 36.871-.008 73.743c-.001 2.567-.1 5.12 1.05 7.54a11.42 11.42 0 0 0 13.411 6.174c5.622-1.453 8.593-5.412 8.623-11.234.08-15.603-.185-31.21.1-46.81.348-19.136 11.057-27.436 29.33-23.175 9.35 2.18 16.601-4.986 13.846-14.052-1.858-6.11-6.91-8.446-12.93-8.521z" class="cls-1"/></svg>