<svg xmlns="http://www.w3.org/2000/svg" role="img" viewBox="-1.96 -0.71 218.92 92.17"><title>mleap logo</title><defs><style>.cls-1{fill:#2d7dcd}</style></defs><circle cx="44.21" cy="45.561" r="41.852" class="cls-1"/><path fill="#5d5d5d" d="M118.804 55.606V44.47a10.88 10.88 0 0 0-.123-1.658 3.973 3.973 0 0 0-.45-1.371 2.597 2.597 0 0 0-.88-.921 2.705 2.705 0 0 0-1.454-.349 2.923 2.923 0 0 0-1.495.369 3.314 3.314 0 0 0-1.064.982 4.298 4.298 0 0 0-.635 1.413 6.639 6.639 0 0 0-.204 1.658v11.013h-6.715V43.98a4.894 4.894 0 0 0-.696-2.784 2.486 2.486 0 0 0-2.21-1.024 2.842 2.842 0 0 0-2.478 1.27 5.322 5.322 0 0 0-.88 3.111v11.054h-6.755V35.218h6.51v2.824h.081a7.146 7.146 0 0 1 .921-1.269 5.845 5.845 0 0 1 1.33-1.085 7.46 7.46 0 0 1 1.741-.757 8.12 8.12 0 0 1 5.855.614 6.178 6.178 0 0 1 2.395 2.58 7.764 7.764 0 0 1 2.62-2.54 7.537 7.537 0 0 1 3.89-.94 7.341 7.341 0 0 1 3.5.757 6.521 6.521 0 0 1 2.272 1.965 8.168 8.168 0 0 1 1.249 2.702 11.62 11.62 0 0 1 .389 2.928v12.61zm11.873 0V24.655h6.837v30.951zm32.343-9.948v.819a7.294 7.294 0 0 1-.041.778h-14.78a3.57 3.57 0 0 0 .511 1.556 4.429 4.429 0 0 0 1.105 1.207 5.415 5.415 0 0 0 3.255 1.085 5.641 5.641 0 0 0 2.702-.594 5.324 5.324 0 0 0 1.802-1.535l4.667 2.948a9.455 9.455 0 0 1-3.787 3.214 12.542 12.542 0 0 1-5.466 1.126 13.048 13.048 0 0 1-4.34-.717 10.518 10.518 0 0 1-3.582-2.088 9.666 9.666 0 0 1-2.416-3.378 11.304 11.304 0 0 1-.88-4.585 11.494 11.494 0 0 1 .86-4.524 10.234 10.234 0 0 1 2.334-3.44 10.41 10.41 0 0 1 3.48-2.19 11.907 11.907 0 0 1 4.34-.778 10.999 10.999 0 0 1 4.135.758 9.013 9.013 0 0 1 3.234 2.19 10.13 10.13 0 0 1 2.109 3.48 13.398 13.398 0 0 1 .758 4.668zm-6.183-2.58a4.028 4.028 0 0 0-1.003-2.743 3.787 3.787 0 0 0-3.009-1.146 5.097 5.097 0 0 0-1.802.307 4.655 4.655 0 0 0-1.432.84 4.157 4.157 0 0 0-.984 1.248 3.667 3.667 0 0 0-.409 1.495zm9.827-5.077a11.757 11.757 0 0 1 4.196-2.579 14.378 14.378 0 0 1 4.893-.86 13.083 13.083 0 0 1 4.36.635A6.498 6.498 0 0 1 183 37.162a8.377 8.377 0 0 1 1.617 3.358 19.855 19.855 0 0 1 .512 4.81v10.276h-6.14v-2.17h-.124a5.049 5.049 0 0 1-2.354 1.965 8.37 8.37 0 0 1-3.418.697 10.486 10.486 0 0 1-2.54-.327 7.44 7.44 0 0 1-2.394-1.065 5.758 5.758 0 0 1-1.781-1.966 6.064 6.064 0 0 1-.696-3.03 5.15 5.15 0 0 1 1.208-3.562 7.926 7.926 0 0 1 3.11-2.087 16.482 16.482 0 0 1 4.238-.982 43.329 43.329 0 0 1 4.544-.247v-.327a2.5 2.5 0 0 0-1.064-2.231 4.591 4.591 0 0 0-2.62-.716 6.523 6.523 0 0 0-2.764.613 8.837 8.837 0 0 0-2.272 1.474zm12.323 8.72h-.86q-1.104 0-2.23.103a9.155 9.155 0 0 0-2.007.39 3.702 3.702 0 0 0-1.453.839 1.925 1.925 0 0 0-.574 1.453 1.75 1.75 0 0 0 .267.982 2.05 2.05 0 0 0 .675.656 2.858 2.858 0 0 0 .942.348 5.39 5.39 0 0 0 1.024.102 4.148 4.148 0 0 0 3.131-1.125 4.215 4.215 0 0 0 1.085-3.051zm33.817-1.391a12.859 12.859 0 0 1-.656 4.094 10.526 10.526 0 0 1-1.903 3.46 9.402 9.402 0 0 1-3.05 2.395 9.042 9.042 0 0 1-4.094.9 8.557 8.557 0 0 1-3.562-.757 6.341 6.341 0 0 1-2.62-2.067h-.082v12.078h-6.715V35.218h6.387v2.497h.123a8.274 8.274 0 0 1 2.6-2.15 7.93 7.93 0 0 1 3.91-.92 9.202 9.202 0 0 1 4.012.86 9.064 9.064 0 0 1 3.05 2.333 10.631 10.631 0 0 1 1.924 3.418 12.334 12.334 0 0 1 .676 4.074zm-6.51 0a6.191 6.191 0 0 0-.307-1.924 5.018 5.018 0 0 0-.901-1.658 4.565 4.565 0 0 0-1.494-1.167 4.612 4.612 0 0 0-2.088-.45 4.51 4.51 0 0 0-2.047.45 4.888 4.888 0 0 0-1.535 1.187 5.44 5.44 0 0 0-.984 1.679 5.498 5.498 0 0 0 0 3.848 5.418 5.418 0 0 0 .984 1.679 4.875 4.875 0 0 0 1.535 1.187 4.504 4.504 0 0 0 2.047.45 4.605 4.605 0 0 0 2.088-.45 4.427 4.427 0 0 0 1.494-1.187 5.21 5.21 0 0 0 .901-1.7 6.372 6.372 0 0 0 .307-1.944z"/><path fill="#fafbfc" d="M36.472 41.1c-.163-1.117-.372-2.172-.453-3.236-.05-.66-.507-.823-.935-1.092a9.958 9.958 0 0 1-4.347-10.574c.15-.692.517-.607 1.01-.538a11.388 11.388 0 0 1 7.318 4.211c.503.6.857.798 1.635.484a7.844 7.844 0 0 1 5.593.004 1.627 1.627 0 0 0 2.182-.568 11.335 11.335 0 0 1 7.042-4.123c.929-.159 1.21.093 1.153.987-.054.873-.032 1.751-.027 2.627a7.9 7.9 0 0 1-4.419 7.562c-.404.215-1.496 3.866-1.197 4.13.505.444 1.174.14 1.768.207a.8.8 0 0 0 1.005-.683 2.912 2.912 0 0 1 5.778-.013c.202.826.727.7 1.274.7 3.3 0 6.598.031 9.897-.019.953-.014 1.313.216 1.406 1.248a38.335 38.335 0 0 1-2.532 18.466A22.609 22.609 0 0 1 54.41 74.507a36.884 36.884 0 0 1-19.847.248c-9.933-2.587-15.512-9.386-17.83-19.136a46.443 46.443 0 0 1-.917-12.59c.05-1.317.425-1.959 1.971-1.887 3.138.145 6.287.02 9.43.058.89.01 1.484-.023 1.754-1.135a2.811 2.811 0 0 1 5.449-.019c.322 1.336 1.08 1.227 2.051 1.054zm-13.36 1.326c-1.545 0-3.094.061-4.636-.021-1.074-.058-1.415.313-1.448 1.381a43.663 43.663 0 0 0 .933 11.506c1.748 7.365 5.45 13.31 12.529 16.643 6.228 2.934 12.83 3.194 19.505 2.267a22.438 22.438 0 0 0 13.218-6.125c6.898-6.901 8.217-15.584 7.745-24.81-.042-.811-.498-.852-1.125-.848-3.04.017-6.08.039-9.12-.014a1.378 1.378 0 0 0-1.455 1.022 2.73 2.73 0 0 1-2.545 1.719 2.574 2.574 0 0 1-2.556-1.674c-.373-1.006-1-1.066-1.884-1.061q-8.038.046-16.077.001a1.833 1.833 0 0 0-2.018 1.119c-.985 1.975-3.482 2.334-4.505.534-.984-1.73-2.249-1.708-3.778-1.646-.926.037-1.855.007-2.782.007z"/><path d="M23.113 42.426c.927 0 1.856.03 2.782-.007 1.53-.062 2.794-.084 3.778 1.646 1.023 1.8 3.52 1.44 4.505-.534a1.833 1.833 0 0 1 2.018-1.119q8.039.043 16.077-.001c.884-.005 1.51.055 1.884 1.06a2.574 2.574 0 0 0 2.556 1.675 2.73 2.73 0 0 0 2.545-1.72 1.378 1.378 0 0 1 1.455-1.02c3.04.052 6.08.03 9.12.013.627-.004 1.083.037 1.125.848.472 9.226-.847 17.909-7.745 24.81a22.438 22.438 0 0 1-13.218 6.125c-6.675.927-13.277.667-19.505-2.267-7.08-3.333-10.781-9.278-12.53-16.643a43.663 43.663 0 0 1-.932-11.506c.033-1.068.374-1.438 1.448-1.381 1.542.082 3.09.021 4.637.021z" class="cls-1"/></svg>