<svg xmlns="http://www.w3.org/2000/svg" role="img" viewBox="-0.01 -0.51 312.52 275.02"><title>Model Server for Apache MXNet logo</title><defs><style>.cls-1{fill:#252f3e}.cls-2{fill:#f90;fill-rule:evenodd}</style></defs><path d="M90.587 70.931a29.432 29.432 0 0 0 1.3 8.9 53.526 53.526 0 0 0 3.2 7.2 4.35 4.35 0 0 1 .7 2.3 3.96 3.96 0 0 1-1.9 3l-6.3 4.2a4.795 4.795 0 0 1-2.6.9 4.601 4.601 0 0 1-3-1.4 30.937 30.937 0 0 1-3.6-4.7c-1-1.7-2-3.6-3.1-5.9q-11.7 13.8-29.4 13.8c-8.4 0-15.1-2.4-20-7.2s-7.4-11.2-7.4-19.2c0-8.5 3-15.4 9.1-20.6s14.2-7.8 24.5-7.8a79.176 79.176 0 0 1 10.6.8c3.7.5 7.5 1.3 11.5 2.2v-7.3c0-7.6-1.6-12.9-4.7-16-3.2-3.1-8.6-4.6-16.3-4.6a45.498 45.498 0 0 0-10.8 1.3 79.68 79.68 0 0 0-10.8 3.4 28.693 28.693 0 0 1-3.5 1.3 6.134 6.134 0 0 1-1.6.3c-1.4 0-2.1-1-2.1-3.1v-4.9a6.328 6.328 0 0 1 .7-3.5 7.488 7.488 0 0 1 2.8-2.1 57.571 57.571 0 0 1 12.6-4.5 60.628 60.628 0 0 1 15.6-1.9c11.9 0 20.6 2.7 26.2 8.1 5.5 5.4 8.3 13.6 8.3 24.6v32.4zm-40.4 15.2a32.409 32.409 0 0 0 10.3-1.8 22.284 22.284 0 0 0 9.5-6.4 15.873 15.873 0 0 0 3.4-6.4 35.9 35.9 0 0 0 1-8.7v-4.2a83.511 83.511 0 0 0-9.2-1.7 75.35 75.35 0 0 0-9.4-.6c-6.7 0-11.6 1.3-14.9 4s-4.9 6.5-4.9 11.5c0 4.7 1.2 8.2 3.7 10.6 2.4 2.5 5.9 3.7 10.5 3.7zm80.3 10.8a5.583 5.583 0 0 1-3.8-1 8.15 8.15 0 0 1-2.1-3.9l-23.5-77.3a17.517 17.517 0 0 1-.9-4 2.194 2.194 0 0 1 2.4-2.5h9.8c1.9 0 3.2.3 3.9 1 .8.6 1.4 2 2 3.9l16.8 66.2 15.6-66.2c.5-2 1.1-3.3 1.9-3.9a6.879 6.879 0 0 1 4-1h8c1.9 0 3.2.3 4 1a6.738 6.738 0 0 1 1.9 3.9l15.8 67 17.3-67a8.575 8.575 0 0 1 2-3.9 6.524 6.524 0 0 1 3.9-1h9.3a2.223 2.223 0 0 1 2.5 2.5 9.972 9.972 0 0 1-.2 1.6 14.23 14.23 0 0 1-.7 2.5l-24.1 77.3q-.9 3-2.1 3.9a6.398 6.398 0 0 1-3.8 1h-8.6c-1.9 0-3.2-.3-4-1a7.09 7.09 0 0 1-1.9-4l-15.5-64.5-15.4 64.4a7.805 7.805 0 0 1-1.9 4 6.198 6.198 0 0 1-4 1zm128.5 2.7a66.174 66.174 0 0 1-15.4-1.8c-5-1.2-8.9-2.5-11.5-4a7.205 7.205 0 0 1-3.1-2.8 7.059 7.059 0 0 1-.6-2.8v-5.1c0-2.1.8-3.1 2.3-3.1a5.663 5.663 0 0 1 1.8.3c.6.2 1.5.6 2.5 1a54.393 54.393 0 0 0 11 3.5 60.054 60.054 0 0 0 11.9 1.2c6.3 0 11.2-1.1 14.6-3.3a10.769 10.769 0 0 0 5.2-9.5 9.739 9.739 0 0 0-2.7-7c-1.8-1.9-5.2-3.6-10.1-5.2l-14.5-4.5c-7.3-2.3-12.7-5.7-16-10.2a23.825 23.825 0 0 1-5-14.5 22.255 22.255 0 0 1 2.7-11.1 25.712 25.712 0 0 1 7.2-8.2 31.739 31.739 0 0 1 10.4-5.2 43.584 43.584 0 0 1 12.6-1.7 50.203 50.203 0 0 1 6.7.4c2.3.3 4.4.7 6.5 1.1 2 .5 3.9 1 5.7 1.6a21.826 21.826 0 0 1 4.2 1.8 8.647 8.647 0 0 1 3 2.5 5.389 5.389 0 0 1 .9 3.3v4.7c0 2.1-.8 3.2-2.3 3.2a10.402 10.402 0 0 1-3.8-1.2 45.748 45.748 0 0 0-19.2-3.9c-5.7 0-10.2.9-13.3 2.8s-4.7 4.8-4.7 8.9a9.443 9.443 0 0 0 3 7.1c2 1.9 5.7 3.8 11 5.5l14.2 4.5c7.2 2.3 12.4 5.5 15.5 9.6a22.628 22.628 0 0 1 4.6 14 25.708 25.708 0 0 1-2.6 11.6 26.894 26.894 0 0 1-7.3 8.8 32.235 32.235 0 0 1-11.1 5.6 47.552 47.552 0 0 1-14.3 2.1z" class="cls-1"/><path d="M277.887 148.231c-32.9 24.3-80.7 37.2-121.8 37.2-57.6 0-109.5-21.3-148.7-56.7-3.1-2.8-.3-6.6 3.4-4.4 42.4 24.6 94.7 39.5 148.8 39.5a296.936 296.936 0 0 0 113.5-23.2c5.5-2.5 10.2 3.6 4.8 7.6z" class="cls-2"/><path d="M291.587 132.631c-4.2-5.4-27.8-2.6-38.5-1.3-3.2.4-3.7-2.4-.8-4.5 18.8-13.2 49.7-9.4 53.3-5 3.6 4.5-1 35.4-18.6 50.2-2.7 2.3-5.3 1.1-4.1-1.9 4-9.9 12.9-32.2 8.7-37.5z" class="cls-2"/><path d="M111.77 216.696h15.214V267.3h-9.853v-34.228q0-1.477.035-4.138.033-2.66.034-4.103l-9.59 42.47H97.333l-9.52-42.47q0 1.442.033 4.103.034 2.662.034 4.138V267.3h-9.853v-50.605h15.388l9.211 39.79zm58.57 0h15.214V267.3h-9.852v-34.228q0-1.477.034-4.138.034-2.66.034-4.103l-9.59 42.47h-10.277l-9.521-42.47q0 1.442.034 4.103.034 2.662.034 4.138V267.3h-9.853v-50.605h15.388l9.21 39.79zm32.622 34.984a10.26 10.26 0 0 0 1.927 5.184q2.628 3.124 9.01 3.125a19.395 19.395 0 0 0 6.203-.825q4.522-1.579 4.523-5.87a4.327 4.327 0 0 0-2.215-3.88 24.034 24.034 0 0 0-7.027-2.369l-5.478-1.202q-8.077-1.784-11.098-3.879-5.116-3.502-5.115-10.952a14.544 14.544 0 0 1 5.004-11.295q5.005-4.497 14.701-4.497a22.547 22.547 0 0 1 13.816 4.24q5.717 4.24 5.995 12.308h-10.162a7.247 7.247 0 0 0-4.083-6.49 13.985 13.985 0 0 0-6.3-1.27 11.99 11.99 0 0 0-6.688 1.649 5.212 5.212 0 0 0-2.499 4.6 4.34 4.34 0 0 0 2.464 4.051 30.608 30.608 0 0 0 6.723 2.095l8.88 2.093q5.84 1.374 8.754 3.674 4.523 3.572 4.524 10.334a14.518 14.518 0 0 1-5.361 11.518q-5.362 4.583-15.147 4.584-9.994 0-15.72-4.515-5.726-4.514-5.725-12.41z" class="cls-1"/></svg>