<svg xmlns="http://www.w3.org/2000/svg" role="img" viewBox="24.05 10.55 491.40 450.90"><title>ModelDB logo</title><defs><style>.cls-2{fill:#9e31f7}</style></defs><path fill="#f08c34" d="M257.111 19.983L159.359 227.94 62.613 19.983H33.611v347.805h30.906l-.831-272.334 94.799 201.897 96.196-202.524.706 241.12H75.472v31.841h212.615l-2.05-347.805h-28.926z"/><path d="M334.99538 263.33662C321.76472 248.16189 299.223 244.595 275.30251 244.595h-48.82483v207.79743h45.87349c25.51627 0 48.941-3.46864 62.35759-18.455s12.19266-40.249 12.19266-67.74683v-34.82418c0-27.49398 1.31686-52.85096-11.90604-68.0298zm-5.63155 104.08343c-.18591 20.6666-.488 44.25041-8.83851 54.77035-8.3505 10.52381-29.51335 11.76128-47.61641 11.76128h-28.61284v-170.916h31.00644c16.79394 0 37.27512 1.1 45.57139 11.33306 8.304 10.237 8.48993 34.29619 8.48993 56.20026zm168.02853-6.93728c-5.48437-8.85037-8.69569-11.98907-18.33546-17.5555 8.16071-4.08931 11.85641-9.84819 16.64362-17.26865 4.78333-7.42045 5.98715-15.984 5.98715-25.68692q0-27.68837-14.14472-41.53364c-9.42722-9.22728-19.509-13.84309-38.17756-13.84309h-62.36146v207.79746h64.33289c18.66467 0 29.07568-5.32678 39.16134-15.98421 10.08566-10.65332 15.92176-25.30978 15.92176-43.95726a59.77249 59.77249 0 0 0-9.02756-31.96819zm-92.572-99.50345h45.545c10.2251 0 20.7903 6.62307 25.76341 11.8201 4.96925 5.19316 7.4558 15.51315 7.4558 26.95635q0 15.16118-8.23042 24.312c-5.48825 6.10456-16.65452 9.15683-25.56662 9.15683h-44.96715zM479.084 420.20807c-5.7245 6.52092-17.42914 13.8-27.18558 13.8h-47.07804v-82.82738h47.64353c20.822 0 35.203 16.534 35.203 41.55712q-.00001 17.69495-8.58291 27.47026z" class="cls-2"/><path d="M452.46391 351.18069h-3.9661c24.78811 0 39.16909 16.534 39.16909 41.55712 0-25.02316-14.38098-41.55712-35.20299-41.55712z" class="cls-2"/></svg>