<svg xmlns="http://www.w3.org/2000/svg" role="img" viewBox="-10.36 -9.86 512.72 184.72"><title>MXNet logo</title><g transform="translate(382.512 -338.426)"><circle cx="-299.924" cy="421.014" r="82.588" fill="#010101" stroke-linecap="round" stroke-width="5.504"/><path fill="#020303" stroke-width=".265" d="M13.134 454.36c-5.315-.683-11.474-2.602-14.791-4.607-8.813-5.328-13.714-14.027-14.856-26.374-1.177-12.714 2.408-24.318 9.798-31.707 4.517-4.517 10.209-7.487 17.336-9.044 3.492-.763 11.673-.953 15.68-.364 4.913.722 9.41 2.198 12.895 4.232 2.479 1.447 7.043 6.012 8.497 8.499 3.04 5.2 5.129 13.432 5.129 20.216 0 1.89-.08 2.37-.419 2.5-.23.088-11.779.16-25.664.16H1.493v2.104c0 5.17 1.397 11.872 3.284 15.751 2.613 5.37 6.059 8.41 10.8 9.528 2.206.52 8.45.52 10.919 0 4.108-.867 7.48-2.674 10.328-5.535 1.73-1.738 2.356-2.604 3.357-4.65.677-1.382 1.376-3.019 1.554-3.637.254-.885.447-1.125.906-1.125.95 0 7.1 1.311 7.357 1.568.285.285-.597 3.055-1.852 5.819-1.996 4.398-6.09 9.275-9.927 11.828-3.325 2.213-7.863 3.957-12.308 4.732-2.466.43-9.786.491-12.777.107zm23.016-45.815c-.01-5.411-2.212-11.154-5.57-14.517-1.284-1.288-2.364-2.057-4.069-2.902-2.318-1.149-2.325-1.15-5.746-1.257-2.061-.064-4.072.02-5.052.214-2.04.4-5.191 1.97-7.132 3.55-3.542 2.887-6.204 8.925-6.748 15.31l-.152 1.785h34.472l-.003-2.183zm52.3 44.518c-3.819-.684-6.984-2.069-8.976-3.926-1.91-1.782-3-3.539-3.97-6.394l-.854-2.514-.074-23.482-.074-23.481h-5.496c-3.92 0-5.586-.091-5.812-.318-.448-.448-.437-5.874.013-6.228.182-.144 1.105-.33 2.05-.414 6.976-.618 11.385-3.181 13.64-7.927 1.112-2.344 1.59-4.786 1.823-9.323.11-2.149.299-3.564.502-3.77.504-.51 10.636-1.291 11.156-.86.339.282.396 1.773.396 10.351V384.8h8.434c7.16 0 8.484.06 8.763.395.258.312.265 1.278.03 4.553-.163 2.286-.405 4.264-.536 4.396-.143.143-1.45.057-3.24-.214-1.65-.25-5.354-.518-8.23-.595l-5.232-.141.072 24.312.071 24.312.622 1c.944 1.517 2.216 2.042 4.95 2.042 2.703 0 3.585-.394 4.441-1.984.513-.953.578-1.546.658-5.953.052-2.86.203-5.031.364-5.225.372-.449 5.531-.46 5.978-.014.49.49.42 8.2-.097 10.74-1.068 5.247-3.832 8.344-8.936 10.014-1.939.634-2.617.714-6.657.78-2.473.042-5.074-.028-5.778-.154zm-140.379-.73c-9.309-.049-13.444-.16-13.692-.365-.264-.219-.355-1.192-.355-3.806 0-3.952-.066-3.832 2.09-3.832 2.928 0 5.795-1.644 6.393-3.667.196-.662.253-6.623.182-19.087-.09-15.89-.157-18.329-.546-19.783-.934-3.5-2.52-5.716-4.98-6.958-1.404-.71-1.77-.775-4.256-.772-3.231.005-5.35.459-7.947 1.702-5.555 2.66-10.24 7.207-13.302 12.91l-1.173 2.185-.004 14.954-.004 14.954.671.988c.971 1.428 2.895 2.322 5.385 2.5 1.108.08 2.163.263 2.344.407.454.358.466 6.835.014 7.287-.46.46-37.535.46-37.995 0-.44-.44-.44-6.862 0-7.302.183-.183 1.06-.318 2.069-.318 4.47 0 7.827-1.46 8.709-3.787.191-.506.282-7.646.282-22.202v-21.457l-.642-1.095c-1.126-1.923-4.723-3.28-8.764-3.308-.735-.005-1.479-.152-1.654-.327-.438-.439-.438-6.599 0-7.038.459-.458 28.805-.458 29.263 0 .228.228.318 1.982.318 6.218 0 3.245.09 5.899.198 5.897.11-.002 1.522-1.293 3.139-2.87 7.576-7.39 15.939-10.885 26.05-10.885 7.307 0 12.477 1.7 16.176 5.317 2.015 1.97 3.243 4.23 4.23 7.78.578 2.082.59 2.454.731 23.019l.144 20.902.612.859c1.288 1.804 4.56 2.963 8.397 2.973 1.092.003 1.997.136 2.183.322.214.214.317 1.44.317 3.783s-.103 3.57-.317 3.784c-.23.23-1.775.3-5.623.254a4006.6 4006.6 0 0 0-18.642-.135zm-162.955-.383c-.213-.213-.317-1.411-.317-3.651 0-2.24.104-3.438.317-3.651.175-.175.979-.32 1.786-.322 3.658-.01 7.61-1.726 11.126-4.833 1.237-1.092 6.517-6.27 11.734-11.508 8.215-8.247 9.449-9.587 9.215-10.016-.534-.977-18.636-21.154-19.845-22.118-2.56-2.043-5.668-3.115-9.037-3.115-.817 0-1.629-.142-1.804-.317-.213-.213-.317-1.411-.317-3.651 0-2.24.104-3.438.317-3.652.46-.46 39.387-.46 39.847 0 .213.214.317 1.411.317 3.652 0 2.24-.104 3.438-.317 3.65-.213.214-1.398.318-3.59.318-1.799 0-3.502.124-3.783.274-.597.32-.693 1.892-.172 2.8.808 1.407 11.436 13.595 11.856 13.595.442 0 11.252-11.21 12.21-12.661.274-.416.462-1.208.463-1.95.002-1.786-.617-2.058-4.694-2.058-2.086 0-3.242-.106-3.453-.317-.44-.44-.44-6.863 0-7.303.458-.458 29.863-.458 30.321 0 .213.214.318 1.411.318 3.652 0 2.24-.105 3.438-.318 3.65-.175.176-.814.318-1.42.318-2.293 0-5.781.79-7.787 1.765-1.698.824-2.636 1.598-6.483 5.347-10.39 10.126-14.948 14.735-14.944 15.11.007.587 21.97 24.797 23.77 26.202 2.423 1.893 4.942 2.93 7.523 3.099 1.195.077 2.32.259 2.503.403.453.36.465 6.836.013 7.288-.46.46-41.503.46-41.963 0-.45-.45-.44-6.662.013-7.032.184-.15 2.272-.315 4.697-.37 5.165-.117 5.556-.25 5.555-1.88 0-.635-.216-1.459-.5-1.91-.597-.95-13.63-16.265-14.233-16.724-.284-.217-.574-.239-.892-.069-.596.32-14.733 15.09-15.377 16.068-.308.465-.48 1.22-.48 2.107-.004 2.021.446 2.194 6.177 2.379 2.495.08 4.685.264 4.867.408.453.358.464 6.572.013 7.023-.459.459-32.773.459-33.232 0z"/><path fill="#008bc5" stroke-width=".265" d="M-363.828 454.316c-.073-.191-.1-1.77-.059-3.507l.075-3.16 2.25-.184c4.953-.407 7.693-1.91 8.45-4.637.396-1.426.382-42.161-.015-43.598-.655-2.373-3.422-3.914-7.852-4.373-1.402-.146-2.647-.362-2.766-.481-.119-.12-.183-1.636-.141-3.37l.074-3.153h28.046l.071 6.681c.066 6.279.1 6.68.556 6.68.277 0 1.006-.661 1.696-1.54 1.94-2.468 4.92-5.384 7.33-7.17 10.245-7.597 24.951-8.062 32.002-1.011 1.91 1.91 3.41 4.69 4.11 7.62.72 3.016.82 3.032 2.937.466 2.318-2.809 4.43-4.843 7.258-6.988 10.105-7.667 25.01-8.22 32.035-1.188 1.968 1.97 3.091 4.016 4.005 7.298.58 2.086.591 2.428.73 23.151.126 19.13.18 21.109.589 21.855 1.185 2.165 3.884 3.385 8.281 3.747l2.382.195v6.88h-37.042v-6.88l1.674-.184c3.263-.36 5.219-1.368 6.192-3.19l.6-1.124-.014-18.388c-.017-20.138-.07-20.945-1.59-24.333-.864-1.924-2.587-3.573-4.187-4.008-1.566-.425-5.522-.137-7.435.542-5.236 1.857-10.501 7.038-14.006 13.784l-1.475 2.838v14.727c0 14.095.023 14.77.518 15.742 1.002 1.965 2.966 3.062 6.097 3.405l1.72.19v6.879h-34.396v-6.88l1.919-.191c3.441-.343 5.745-1.815 6.422-4.104.209-.706.264-6.394.191-19.517-.113-20.168-.134-20.467-1.667-23.6-.807-1.649-2.597-3.307-4.036-3.738-2.47-.74-6.292-.265-9.288 1.155-5.3 2.512-9.677 7.19-12.888 13.777l-1.176 2.411.075 14.655.075 14.654.6 1.124c.974 1.822 2.93 2.83 6.193 3.19l1.674.184v6.88l-18.33.067c-14.952.056-18.355.004-18.464-.28z"/></g></svg>