<svg xmlns="http://www.w3.org/2000/svg" role="img" viewBox="-5.89 -4.39 592.28 542.78"><title>Nauta logo</title><defs><style>.cls-3{fill:#0f7dc2}</style><clipPath id="clip-path"><path fill="none" d="M-14.853-216.142h612v792h-612z"/></clipPath></defs><g clip-path="url(#clip-path)"><path d="M276.243 342.095c-112.55 10.382-229.86-5.971-246.292-93.93-8.038-43.36 11.744-89.34 37.947-117.92v-15.26c-47.204 41.4-72.786 93.782-58.052 155.66 18.824 79.368 119.477 124.313 273.157 109.388 60.828-5.894 140.382-25.454 195.723-55.852v-43.153c-50.228 29.927-133.287 54.648-202.483 61.067M572.74 113.953c-26.697-130.34-279.77-138.604-442.906-39.3v10.968C292.782 1.847 523.918 2.356 544.962 122.424c7.06 39.718-15.312 81.097-55.282 104.923V258.5c48.082-17.636 97.4-74.678 83.06-144.548" class="cls-3"/><path d="M469.626 94.973h-29.51v131.431c0 15.403 7.447 28.798 29.51 30.939zM118.247 142.96H88.683l-.016 85.87c0 15.457 7.47 28.837 29.58 30.939zM88.683 98.97h29.472v27.973H88.683zm206.294 159.438c-23.885 0-33.994-16.6-33.994-32.955V111.439h29.253v31.522h22.03v23.628h-22.03v57.056c0 6.668 3.166 10.383 10.119 10.383h11.912v24.38h-17.29m53.829-48.574c0 14.97 9.362 25.972 25.925 25.972 12.978 0 19.376-3.601 26.868-11.001l18.077 17.218c-11.589 11.45-23.732 18.41-45.161 18.41-27.995 0-54.819-15.28-54.819-59.824 0-38.08 23.44-59.606 54.17-59.606 31.24 0 49.193 25.199 49.193 58.278v10.553h-74.253m23.778-44.636c-10.013 0-17.706 5.157-20.967 12.113a30.212 30.212 0 0 0-2.811 12.577h45.084c-.571-12.577-6.274-24.69-21.306-24.69m-174.885 1.391c8.578 0 12.144 4.241 12.144 11.124v80.866h29.259v-81.036c0-16.42-8.75-34.551-34.443-34.551l-60.441-.031v115.618h29.271v-91.99zm303.678-48.132a11.743 11.743 0 0 1 0-23.485 11.743 11.743 0 1 1 0 23.485m0-21.527a9.761 9.761 0 1 0 9.81 9.784 9.868 9.868 0 0 0-9.81-9.784m5.206 16.822h-2.194a.496.496 0 0 1-.447-.293l-2.967-5.045a.87.87 0 0 0-.417-.232h-1.36v5.03a.517.517 0 0 1-.494.54h-1.978a.538.538 0 0 1-.494-.54v-12.685c0-.742.247-1.047.895-1.14.711-.077 2.566-.17 3.6-.17 3.662 0 5.81 1.078 5.81 4.473v.248a3.558 3.558 0 0 1-2.641 3.75l3.09 5.26a.949.949 0 0 1 .077.372.418.418 0 0 1-.48.432m-2.843-10.062c0-1.417-.88-1.865-2.765-1.865h-1.87v4.024c.294 0 1.623.062 1.87.062 1.885 0 2.765-.629 2.765-1.973z" class="cls-3"/></g><path d="M131.03 439.39h18.854l34.167 60.016V439.39h16.76v86.074h-17.982l-35.04-61.073v61.073h-16.76zm110.524 47.357a26.319 26.319 0 0 0 6.646-1.46q3.589-1.518 3.589-4.73 0-3.91-2.753-5.4-2.752-1.49-8.08-1.49-5.978 0-8.464 2.92a12.038 12.038 0 0 0-2.368 5.84h-16.058q.527-8.351 4.692-13.723 6.627-8.41 22.755-8.41a40.568 40.568 0 0 1 18.65 4.147q8.151 4.146 8.151 15.65v29.197q0 3.037.117 7.357a9.24 9.24 0 0 0 .993 4.438 5.958 5.958 0 0 0 2.452 1.928v2.452h-18.102a18.506 18.506 0 0 1-1.05-3.62q-.294-1.694-.468-3.855a34.348 34.348 0 0 1-7.988 6.365 24.147 24.147 0 0 1-12.217 3.095q-8.694 0-14.36-4.935-5.67-4.933-5.669-13.985 0-11.736 9.118-16.992 5.001-2.86 14.707-4.088zm10.175 7.767a18.382 18.382 0 0 1-3.226 1.606 27.37 27.37 0 0 1-4.469 1.139l-3.788.7a24.934 24.934 0 0 0-7.65 2.277 7.602 7.602 0 0 0-3.932 7.067q0 4.262 2.402 6.16a9.123 9.123 0 0 0 5.84 1.897 17.39 17.39 0 0 0 10.05-3.153q4.596-3.152 4.773-11.503zm47.71-32.701v38.365q0 5.431 1.277 8.175 2.268 4.848 8.89 4.847 8.482 0 11.622-6.89a25.065 25.065 0 0 0 1.627-9.869v-34.628h16.875v63.65h-16.176v-8.993q-.231.293-1.164 1.752a11.678 11.678 0 0 1-2.21 2.569 23.099 23.099 0 0 1-7.544 4.789 25.653 25.653 0 0 1-8.53 1.284q-14.09 0-18.984-10.16-2.735-5.606-2.735-16.526v-38.365zm49.927 12.437v-11.853h8.876v-17.752h16.466v17.752h10.336v11.854h-10.336v33.635q0 3.914.994 4.876.991.963 6.072.963c.506 0 1.04-.008 1.606-.029q.846-.028 1.664-.088v12.439l-7.883.292q-11.795.407-16.117-4.088-2.803-2.86-2.802-8.818v-39.182zm71.574 12.497a26.314 26.314 0 0 0 6.647-1.46q3.59-1.518 3.59-4.73 0-3.91-2.754-5.4-2.752-1.49-8.079-1.49-5.978 0-8.465 2.92a12.028 12.028 0 0 0-2.367 5.84h-16.058q.527-8.351 4.691-13.723 6.627-8.41 22.756-8.41a40.568 40.568 0 0 1 18.65 4.147q8.151 4.146 8.15 15.65v29.197q0 3.037.118 7.357a9.23 9.23 0 0 0 .992 4.438 5.956 5.956 0 0 0 2.453 1.928v2.452h-18.102a18.468 18.468 0 0 1-1.051-3.62q-.293-1.694-.468-3.855a34.34 34.34 0 0 1-7.988 6.365 24.143 24.143 0 0 1-12.217 3.095q-8.694 0-14.36-4.935-5.67-4.933-5.668-13.985 0-11.736 9.117-16.992 5-2.86 14.708-4.088zm10.177 7.767a18.386 18.386 0 0 1-3.227 1.606 27.335 27.335 0 0 1-4.469 1.139l-3.788.7a24.93 24.93 0 0 0-7.65 2.277 7.6 7.6 0 0 0-3.93 7.067q0 4.262 2.4 6.16a9.122 9.122 0 0 0 5.84 1.897 17.394 17.394 0 0 0 10.051-3.153q4.595-3.152 4.773-11.503z"/></svg>