<svg xmlns="http://www.w3.org/2000/svg" role="img" viewBox="75.65 23.15 2041.20 2696.20"><title>ncnn logo</title><defs><style>.cls-2{fill:#bdbdbd}.cls-3{fill:#212121}.cls-4{fill:#616161}.cls-5{fill:#424242}.cls-6{fill:#9e9e9e}.cls-7{fill:#cacaca}</style></defs><path fill="#f5f5f5" d="M127.813 76.438h1939.016V2048.29H127.813z"/><path d="M1327.223 1436.178v-120.257h247.96v120.257z" class="cls-2"/><path d="M366.045 76.438h120.257v120.257H366.045zM247.903 196.696H368.16v250.775H247.903zm120.258 0h242.797v120.257H368.161zM606.56 318.783h120.257V439.04H606.56zm120.258 116.599h120.257v120.257H726.818zm120.257 120.257h488.188v120.257H847.075zm488.188-120.257h120.257v120.257h-120.257zm120.258-120.258h120.257v120.257h-120.257zm120.257-120.257h370.794v120.257h-370.794z" class="cls-3"/><path d="M1826.268 440.393V194.867h120.257v245.526zm-120.257-125.269V76.438h120.257v238.686z" class="cls-3"/><path d="M1329.494 1315.919v-243.951h121.788v243.951z"/><path d="M1451.282 1315.92v-243.951h121.788v243.951z" class="cls-3"/><path d="M845.403 1067.471v243.951H725.146v-243.951z"/><path d="M725.146 1067.47v243.951H604.889V1067.47z" class="cls-3"/><path d="M488.418 947.213h477.243v120.257H488.418z" class="cls-4"/><path d="M488.419 1432.985V945.906h120.257v487.079z" class="cls-4"/><path d="M965.662 1431.678H488.419v-120.257h477.243zm726.2-479.967v487.079h-120.257V951.711z" class="cls-4"/><path d="M1209.237 951.712h482.627v120.257h-482.627z" class="cls-4"/><path d="M1209.237 1438.789V951.71h120.257v487.079z" class="cls-4"/><path d="M127.646 1553.244V446.331h120.257v1106.913z" class="cls-3"/><path d="M127.646 2046.375v-493.132h120.257v493.132zm494.076-493.133H248.219v-120.257h373.503zm110.394 120.259h-246.88v-120.257h246.88z" class="cls-5"/><path d="M735.612 1551.665v496.314H615.355v-496.314zm849.549-4.757v501.495h-120.257v-501.495z" class="cls-5"/><path d="M1946.571 1554.675h-373.503v-120.257h373.503z" class="cls-5"/><path d="M2066.83 1667.164h-253.56v-120.257h253.56z" class="cls-5"/><path d="M2066.83 1546.908v496.314h-120.257v-496.314z" class="cls-5"/><path d="M1946.572 1546.908V439.995h120.257v1106.913z" class="cls-3"/><path d="M1455.521 435.382h120.257v120.257h-120.257zm120.257-120.258h250.49v120.257h-250.49zm130.233 120.258h120.257v120.257h-120.257z" class="cls-6"/><path d="M1826.268 680.907h120.257v120.257h-120.257z" class="cls-2"/><path d="M606.56 435.382h120.257v120.257H606.56zM366.045 316.953H606.56V437.21H366.045z" class="cls-6"/><path d="M366.045 433.552h120.257v120.257H366.045z" class="cls-6"/><path d="M244.659 687.986h120.257v120.257H244.659zm600.745 377.48h120.257v247.96H845.404z" class="cls-2"/><path d="M1825.362 1797.532h120.257v247.96h-120.257z" class="cls-6"/><path d="M495.098 1798.218h120.257v247.96H495.098z" class="cls-2"/><path d="M374.841 1799.822h120.257v120.257H374.841z" class="cls-7"/><path d="M247.903 1928.032H368.16v120.257H247.903zm1337.258-6.52h120.257v124.103h-120.257z" class="cls-6"/><path d="M1705.738 1801.254h120.257v120.257h-120.257z" class="cls-7"/><path d="M248.061 1553.243h240.201v246.579H248.061zm1337.1 1.432h240.201v246.579h-240.201z" class="cls-6"/><path d="M736.968 1927.919h727.935v120.484H736.968z"/><path fill="#757575" d="M244.659 447.471h120.257v240.515H244.659zm1581.609-7.079h120.257v240.515h-120.257z"/><path d="M726.818 555.639h120.257v120.257H726.818zm608.445 0h120.257v120.257h-120.257z" class="cls-5"/><path d="M757.924 2418.173q25.302 20.906 25.304 69.365v173.5h-69.02v-156.717q0-20.32-5.396-31.2-9.859-19.855-37.543-19.85-34.027 0-46.691 29.067-6.576 15.375-6.573 39.247v139.453h-67.367v-257.173h65.243v37.583q12.94-19.854 24.477-28.596 20.703-15.6 52.488-15.6 39.776 0 65.078 20.92zm242.053 77.642a59.684 59.684 0 0 0-9.714-26.001q-11.377-15.6-35.304-15.6-34.124 0-46.676 33.805-6.636 17.915-6.633 47.624 0 28.3 6.633 45.499 12.084 32.148 45.494 32.153 23.694 0 33.646-12.765 9.95-12.76 12.084-33.095h68.784q-2.374 30.735-22.243 58.144-31.712 44.201-93.93 44.206-62.229 0-91.569-36.872-29.337-36.882-29.337-95.617 0-66.295 32.414-103.172 32.41-36.867 89.44-36.872 48.5 0 79.375 21.742 30.878 21.748 36.557 76.82zm322.863-77.642q25.309 20.906 25.309 69.365v173.5h-69.025v-156.717q0-20.32-5.39-31.2-9.86-19.855-37.544-19.85-34.027 0-46.692 29.067-6.582 15.375-6.572 39.247v139.453h-67.367v-257.173h65.242v37.583q12.94-19.854 24.478-28.596 20.696-15.6 52.483-15.6 39.783 0 65.077 20.92zm295.698 0q25.295 20.906 25.3 69.365v173.5h-69.025v-156.717q0-20.32-5.39-31.2-9.86-19.855-37.544-19.85-34.027 0-46.692 29.067-6.568 15.375-6.573 39.247v139.453h-67.361v-257.173h65.237v37.583q12.94-19.854 24.478-28.596 20.71-15.6 52.483-15.6 39.783 0 65.087 20.92z"/></svg>