<svg xmlns="http://www.w3.org/2000/svg" role="img" viewBox="-3.63 -3.13 228.02 208.52"><title>Neon logo</title><defs><style>.cls-3{fill:#0f7dc2}</style><clipPath id="clip-path"><path fill="none" d="M-7.043-84.741h235.692v305.014H-7.043z"/></clipPath></defs><g clip-path="url(#clip-path)"><path d="M105.064 130.246c-43.345 3.999-88.523-2.299-94.852-36.174-3.095-16.698 4.523-34.406 14.614-45.413v-5.877C6.647 58.726-3.204 78.9 2.47 102.73c7.249 30.566 46.012 47.875 105.197 42.127 23.426-2.27 54.064-9.803 75.377-21.51V106.73c-19.344 11.525-51.332 21.045-77.98 23.517M219.25 42.385C208.97-7.812 111.506-10.994 48.68 27.25v4.224C111.433-.79 200.448-.593 208.552 45.647c2.72 15.296-5.897 31.232-21.29 40.408v11.998c18.517-6.792 37.51-28.76 31.988-55.668" class="cls-3"/><path d="M179.54 35.075h-11.366v50.617c0 5.932 2.868 11.09 11.365 11.915zM44.217 53.556H32.83l-.006 33.07c0 5.953 2.877 11.106 11.391 11.915zM32.831 36.615h11.35v10.773h-11.35zm79.447 61.402c-9.198 0-13.091-6.393-13.091-12.691v-43.91h11.266v12.14h8.484v9.1h-8.484V84.63c0 2.568 1.219 4 3.897 4h4.587v9.388h-6.659m20.731-18.708c0 5.766 3.606 10.003 9.984 10.003 4.998 0 7.462-1.387 10.347-4.237l6.962 6.631c-4.463 4.41-9.14 7.09-17.392 7.09-10.781 0-21.112-5.884-21.112-23.04 0-14.665 9.027-22.955 20.862-22.955 12.031 0 18.945 9.705 18.945 22.444v4.064H133.01m9.157-17.19a8.65 8.65 0 0 0-8.074 4.665 11.635 11.635 0 0 0-1.083 4.844h17.363c-.22-4.844-2.416-9.509-8.206-9.509m-67.352.536c3.304 0 4.677 1.633 4.677 4.284v31.143H90.76V66.875c0-6.324-3.37-13.307-13.265-13.307l-23.276-.012v44.527H65.49V62.656zM191.767 44.12a4.522 4.522 0 0 1 0-9.045 4.522 4.522 0 1 1 0 9.045m0-8.29a3.76 3.76 0 1 0 3.778 3.767 3.8 3.8 0 0 0-3.778-3.768m2.005 6.479h-.845a.19.19 0 0 1-.172-.113l-1.143-1.943a.335.335 0 0 0-.16-.09h-.524V42.1a.199.199 0 0 1-.19.209h-.762a.207.207 0 0 1-.19-.209v-4.885c0-.285.095-.403.344-.439.274-.03.988-.065 1.387-.065 1.41 0 2.237.415 2.237 1.723v.095a1.37 1.37 0 0 1-1.017 1.444l1.19 2.026a.365.365 0 0 1 .03.143.16.16 0 0 1-.185.167m-1.095-3.875c0-.546-.339-.719-1.065-.719h-.72v1.55c.113 0 .625.024.72.024.726 0 1.065-.242 1.065-.76z" class="cls-3"/></g><path d="M56.196 166.971h7.291l13.211 23.206v-23.206h6.48v33.282h-6.952l-13.55-23.615v23.615h-6.48zm49.026 9.169a10.011 10.011 0 0 1 4.253 3.64 12.091 12.091 0 0 1 1.96 5.089 31.432 31.432 0 0 1 .213 4.885H93.723q.15 3.703 2.573 5.193a6.538 6.538 0 0 0 3.548.926 4.996 4.996 0 0 0 4.898-2.824h6.57a8.035 8.035 0 0 1-2.386 4.449q-3.307 3.59-9.26 3.59a13.415 13.415 0 0 1-8.668-3.028q-3.756-3.028-3.756-9.853 0-6.394 3.391-9.808a11.866 11.866 0 0 1 8.8-3.412 14.017 14.017 0 0 1 5.789 1.153zm-9.627 5.559a6.687 6.687 0 0 0-1.714 3.81h11.086a5.37 5.37 0 0 0-1.714-3.89 5.637 5.637 0 0 0-3.817-1.326 5.103 5.103 0 0 0-3.841 1.406zm39.831 15.543q-3.116 3.847-9.46 3.846-6.345 0-9.46-3.846a15.268 15.268 0 0 1 0-18.487q3.115-3.904 9.46-3.904 6.343 0 9.46 3.904a15.272 15.272 0 0 1 0 18.487zm-5.148-3.557a11.489 11.489 0 0 0 0-11.396 5.718 5.718 0 0 0-8.682 0 11.418 11.418 0 0 0 0 11.396 5.698 5.698 0 0 0 8.682 0zm32.715-16.633q2.417 2 2.417 6.627v16.574h-6.592v-14.97a6.873 6.873 0 0 0-.516-2.98 3.62 3.62 0 0 0-3.586-1.897 4.446 4.446 0 0 0-4.46 2.777 9.61 9.61 0 0 0-.628 3.748v13.322h-6.435v-24.566h6.232v3.59a10.92 10.92 0 0 1 2.338-2.732 8.102 8.102 0 0 1 5.014-1.49 9.434 9.434 0 0 1 6.216 1.997z"/></svg>