<svg xmlns="http://www.w3.org/2000/svg" role="img" viewBox="-7.07 1.43 809.64 295.64"><title>New York University logo</title><defs><style>.cls-2{fill:#fdfbfd}</style></defs><path fill="#5b0f8c" d="M141.521 17.153q65.312 0 130.623-.036c1.414 0 1.719.34 1.718 1.73q-.056 130.674.002 261.347c0 1.409-.33 1.721-1.728 1.72q-130.763-.056-261.526.001c-1.414 0-1.722-.338-1.722-1.73q.056-130.604.034-261.208c0-1.825 0-1.823 1.836-1.823h130.763zm-31.995 103.5c-.04 6.635 1.12 10.887 3.34 14.86 4.546 8.135 11.712 13.586 19.215 18.686.215.146.467.438.736.22.337-.272.05-.595-.066-.882-.522-1.29-1.093-2.56-1.569-3.867a40.891 40.891 0 0 1-2.204-20.825c1.48-9.141 5.89-16.833 11.785-23.79a105.17 105.17 0 0 1 13.26-12.552c.535-.446 1.09-.871 1.054-1.694-.056-1.348.012-2.706-.126-4.043a86.205 86.205 0 0 0-3.824-17.363 55.96 55.96 0 0 0-3.829-9.7c-.196-.363-.327-.89-.776-.907-.575-.02-.47.62-.576.96a32.857 32.857 0 0 1-2.546 5.872 109.494 109.494 0 0 1-13.528 18.741c-5.253 6.103-10.482 12.216-14.464 19.266-3.351 5.932-5.82 12.141-5.882 17.018zm85.79-24.576c-.606 1.155-1.14 2.272-1.759 3.339-5.38 9.273-13.325 15.64-23.009 19.899a45.419 45.419 0 0 0-18.127 13.965 44.961 44.961 0 0 0-9.13 21.096c-.158 1.065.1 1.391 1.173 1.393a73.485 73.485 0 0 0 12.64-.879c14.09-2.42 24.55-9.855 31.093-22.576 5.699-11.078 7.298-23.078 7.555-35.341a.932.932 0 0 0-.437-.896zm-61.384 40.683a43.19 43.19 0 0 0 3.28 14.739c.171.427.18 1.193.805 1.122.477-.055.4-.763.496-1.188a67.29 67.29 0 0 1 2.306-7.865c4.577-12.767 13.276-21.788 25.255-27.88 3.513-1.787 7.175-3.298 10.462-5.526a5.934 5.934 0 0 0 2.524-3.687 28.334 28.334 0 0 0 .625-7.834 56.62 56.62 0 0 0-5.771-22.016c-.227-.483-.39-1.214-1.017-1.178-.533.03-.58.758-.805 1.197-4.157 8.084-9.105 15.554-16.342 21.283-7.352 5.82-13.774 12.447-17.963 20.978a38.12 38.12 0 0 0-3.855 17.855zm-8.059 19.07a.725.725 0 0 0-.454-.726c-5.827-3.606-11.11-7.83-15.085-13.497a31.804 31.804 0 0 1-5.402-24.326 46.635 46.635 0 0 1 7.127-17.692 3.803 3.803 0 0 0 .58-3.033 58.554 58.554 0 0 0-4.003-11.255c-.74-1.697-1.659-3.318-2.521-4.96-.14-.267-.297-.637-.702-.584-.492.065-.308.5-.342.78a26.232 26.232 0 0 1-1.765 6.28 146.478 146.478 0 0 1-11.118 21.804 35.593 35.593 0 0 0-4.816 13.81c-1.53 11.578 3.599 21.99 13.742 27.659a46.904 46.904 0 0 0 17.916 5.285 66.208 66.208 0 0 0 6.843.455zm-1.666 21.899c.06.359.125.67.16.984q.874 7.968 1.74 15.936c.993 9.053 2.002 18.105 2.975 27.16.518 4.821.946 9.652 1.467 14.473.508 4.703 1.105 9.396 1.612 14.1a2.497 2.497 0 0 0 2.601 2.405 2.46 2.46 0 0 0 2.735-2.023c.204-1.095.342-2.203.48-3.31q2.143-17.181 4.28-34.364 2.154-17.07 4.386-34.131c.142-1.089-.177-1.34-1.221-1.333-6.75.042-13.5.024-20.25.031-.321 0-.642.047-.965.072zm11.297-16.511c-5.955 0-11.91.017-17.865-.019-.908-.005-1.316.133-1.29 1.184.072 2.927.052 5.858.004 8.786-.015.89.215 1.193 1.162 1.19q18.004-.05 36.009 0c.99.003 1.15-.351 1.138-1.202-.04-2.882-.06-5.766.003-8.647.022-1.013-.212-1.334-1.296-1.323-5.955.061-11.91.03-17.865.03zm308.456 4.039v-2.328q.019-44.118.01-88.237c-.001-1.149.253-1.453 1.425-1.447q14.879.077 29.758.005c1.038-.004 1.291.246 1.29 1.292q-.044 73.857 0 147.714c0 1.05-.25 1.296-1.29 1.29q-12.713-.068-25.427-.008a2.157 2.157 0 0 1-1.975-.94q-15.275-20.13-30.613-40.211-11.95-15.678-23.902-31.352-8.192-10.746-16.387-21.488c-.328-.43-.714-.814-1.113-1.264a2.552 2.552 0 0 0-.196 1.554q-.147 46.143-.246 92.285c-.002 1.181-.308 1.432-1.451 1.426q-14.74-.074-29.48-.004c-1.135.004-1.557-.145-1.556-1.462q.063-73.718.014-147.435c0-1.039.188-1.406 1.335-1.4 9.267.05 18.535.037 27.802.01a2.637 2.637 0 0 1 2.432 1.143q10.34 13.745 20.8 27.4 10.13 13.297 20.275 26.584 9.832 12.908 19.645 25.832 4.254 5.59 8.524 11.17zm212.406-46.399q0-22.13-.028-44.26c-.004-1.128.326-1.35 1.38-1.345q15.16.057 30.318-.007c1.152-.005 1.332.368 1.332 1.402q0 41.676.064 83.353c.01 7.014.806 13.9 3.74 20.382 4.094 9.048 11.102 14.484 20.803 16.307a40.603 40.603 0 0 0 19.2-.757 27.021 27.021 0 0 0 17.847-15.779 42.875 42.875 0 0 0 3.4-17.322q.067-43.003-.007-86.006c-.002-1.269.307-1.587 1.58-1.58q15.019.085 30.038 0c1.2-.007 1.42.34 1.418 1.465-.033 29.227.112 58.455-.097 87.68a72.856 72.856 0 0 1-7.773 33.058 51.22 51.22 0 0 1-14.74 17.742c-8.266 6.272-17.645 9.71-27.758 11.478a97.658 97.658 0 0 1-21.842 1.029 69.522 69.522 0 0 1-27.534-6.726 51.226 51.226 0 0 1-24.1-24.206c-4.48-9.25-6.476-19.083-7.035-29.283-.176-3.211-.2-6.417-.202-9.626q-.015-18.5-.004-37zM493.411 73.31c12.787-.152 25.312-.105 37.837-.052.782.003 1.04.418 1.35.94q6.43 10.827 12.864 21.65l19.06 32.066c1.064 1.79 2.136 3.573 3.342 5.59 1.318-2.13 2.536-4.06 3.718-6.013q11.166-18.456 22.32-36.919c3.313-5.477 6.648-10.941 9.949-16.425a1.442 1.442 0 0 1 1.39-.885q18.09.04 36.179.023a2.164 2.164 0 0 1 .386.101c-1.703 2.683-3.376 5.333-5.064 7.975q-13.493 21.114-26.992 42.225-12.405 19.412-24.817 38.82a4.359 4.359 0 0 0-.7 2.472c-.065 19.032-.165 38.063-.203 57.095-.002 1.27-.32 1.585-1.585 1.578q-14.946-.083-29.893-.002c-1.074.005-1.275-.292-1.277-1.308q-.071-28.268-.208-56.536a4.594 4.594 0 0 0-.658-2.625q-11.074-17.367-22.085-34.775-15.478-24.382-30.965-48.759c-1.286-2.025-2.566-4.053-3.948-6.236z"/><path d="M109.526 120.653c.062-4.877 2.53-11.086 5.882-17.018 3.982-7.05 9.21-13.163 14.464-19.266A109.494 109.494 0 0 0 143.4 65.628a32.857 32.857 0 0 0 2.546-5.871c.107-.34 0-.981.576-.96.45.015.58.543.776.906a55.96 55.96 0 0 1 3.829 9.7 86.205 86.205 0 0 1 3.824 17.363c.138 1.337.07 2.695.126 4.043.035.823-.52 1.248-1.055 1.694a105.17 105.17 0 0 0-13.26 12.552c-5.893 6.957-10.304 14.649-11.784 23.79a40.891 40.891 0 0 0 2.204 20.825c.476 1.306 1.047 2.577 1.57 3.867.116.287.402.61.065.882-.27.218-.521-.074-.736-.22-7.503-5.1-14.669-10.551-19.215-18.687-2.22-3.972-3.38-8.224-3.34-14.859zm85.789-24.576a.932.932 0 0 1 .437.896c-.257 12.263-1.856 24.263-7.555 35.34-6.544 12.722-17.002 20.157-31.092 22.577a73.485 73.485 0 0 1-12.641.88c-1.073-.003-1.331-.33-1.173-1.394a44.961 44.961 0 0 1 9.13-21.096 45.419 45.419 0 0 1 18.127-13.965c9.684-4.26 17.63-10.626 23.01-19.9.618-1.067 1.152-2.183 1.757-3.338z" class="cls-2"/><path d="M133.932 136.76a38.12 38.12 0 0 1 3.855-17.855c4.19-8.531 10.611-15.158 17.963-20.978 7.237-5.73 12.185-13.2 16.342-21.283.226-.438.272-1.167.805-1.197.626-.035.79.696 1.017 1.178a56.62 56.62 0 0 1 5.77 22.016 28.334 28.334 0 0 1-.624 7.834 5.934 5.934 0 0 1-2.524 3.687c-3.287 2.228-6.949 3.739-10.462 5.525-11.98 6.093-20.678 15.114-25.255 27.88a67.29 67.29 0 0 0-2.306 7.866c-.096.425-.019 1.133-.496 1.188-.625.071-.634-.695-.804-1.122a43.19 43.19 0 0 1-3.281-14.74zm-8.059 19.07a66.208 66.208 0 0 1-6.843-.455 46.904 46.904 0 0 1-17.916-5.285c-10.143-5.67-15.271-16.081-13.742-27.66a35.593 35.593 0 0 1 4.816-13.81 146.478 146.478 0 0 0 11.118-21.803 26.232 26.232 0 0 0 1.765-6.28c.034-.28-.15-.716.342-.78.405-.054.562.317.702.583.862 1.643 1.78 3.264 2.521 4.96a58.554 58.554 0 0 1 4.003 11.256 3.803 3.803 0 0 1-.58 3.033 46.635 46.635 0 0 0-7.127 17.692 31.804 31.804 0 0 0 5.402 24.326c3.975 5.667 9.258 9.89 15.085 13.497a.725.725 0 0 1 .454.726zm-1.666 21.899c.323-.025.644-.072.965-.072 6.75-.007 13.5.01 20.25-.031 1.044-.007 1.363.244 1.22 1.333q-2.233 17.06-4.385 34.131-2.168 17.179-4.28 34.364c-.138 1.107-.276 2.215-.48 3.31a2.46 2.46 0 0 1-2.735 2.023 2.497 2.497 0 0 1-2.6-2.406c-.508-4.703-1.105-9.396-1.613-14.1-.52-4.82-.949-9.65-1.467-14.472-.973-9.055-1.982-18.107-2.974-27.16q-.873-7.968-1.741-15.936c-.035-.314-.1-.625-.16-.984zm11.297-16.512c5.955 0 11.91.031 17.864-.03 1.085-.01 1.319.31 1.297 1.323-.063 2.881-.042 5.765-.003 8.647.012.85-.149 1.205-1.138 1.202q-18.005-.056-36.009 0c-.947.003-1.177-.3-1.162-1.19.048-2.928.068-5.859-.004-8.786-.026-1.05.382-1.19 1.29-1.184 5.955.036 11.91.019 17.865.018z" class="cls-2"/></svg>