<svg xmlns="http://www.w3.org/2000/svg" role="img" viewBox="-1.63 -3.38 436.02 390.27"><title>NLP Architect logo</title><defs><style>.cls-1{fill:#0e7dc2}</style></defs><path d="M206.1 251.487c-82.836 7.64-169.174-4.395-181.268-69.132-5.916-31.912 8.642-65.753 27.928-86.787V84.336C18.018 114.806-.81 153.359 10.036 198.9c13.853 58.413 87.934 91.493 201.04 80.508 44.768-4.339 103.318-18.734 144.05-41.108v-31.759c-36.968 22.026-98.099 40.22-149.025 44.945zm218.22-167.91c-19.65-95.93-205.91-102.01-325.977-28.925v8.073C218.273 1.068 388.385 1.444 403.872 89.811c5.198 29.233-11.268 59.688-40.686 77.222v22.93c35.388-12.98 71.684-54.962 61.132-106.387z" class="cls-1"/><path d="M348.427 69.608h-21.719v96.731c0 11.337 5.481 21.196 21.72 22.771zM89.816 104.927H68.058l-.012 63.197c0 11.376 5.5 21.225 21.771 22.771zM68.057 72.549h21.69v20.588h-21.69zm151.832 117.346c-17.581 0-25.02-12.22-25.02-24.255V81.725h21.53v23.2h16.213v17.39H216.4v41.994c0 4.906 2.328 7.64 7.445 7.64h8.767v17.945H219.89m39.617-35.75c0 11.019 6.89 19.115 19.08 19.115 9.552 0 14.26-2.65 19.775-8.096l13.305 12.673c-8.53 8.425-17.468 13.548-33.24 13.548-20.603 0-40.344-11.246-40.344-44.03 0-28.026 17.25-43.869 39.866-43.869 22.994 0 36.208 18.547 36.208 42.891v7.767h-54.651m17.501-32.852c-7.37 0-13.032 3.796-15.432 8.917a22.238 22.238 0 0 0-2.069 9.255h33.181c-.42-9.255-4.616-18.17-15.68-18.17zm-128.713 1.025c6.313 0 8.937 3.12 8.937 8.187v59.517h21.534v-59.642c0-12.085-6.439-25.428-25.35-25.428l-44.484-.025v85.095h21.543v-67.704zm223.503-35.424a8.642 8.642 0 1 1 .006 0zm0-15.843a7.184 7.184 0 1 0 7.22 7.2 7.262 7.262 0 0 0-7.22-7.2zm3.832 12.38h-1.615a.364.364 0 0 1-.33-.217l-2.183-3.711a.647.647 0 0 0-.307-.172h-1v3.703a.38.38 0 0 1-.36.397h-1.46a.396.396 0 0 1-.364-.397v-9.337c0-.545.181-.77.66-.838q1.321-.114 2.649-.126c2.695 0 4.275.793 4.275 3.293v.18a2.619 2.619 0 0 1-1.944 2.762l2.275 3.872a.687.687 0 0 1 .056.273.307.307 0 0 1-.352.318zm-2.093-7.405c0-1.044-.648-1.374-2.035-1.374h-1.376v2.962c.216 0 1.194.046 1.376.046 1.387 0 2.036-.463 2.036-1.452z" class="cls-1"/><path d="M8.007 330.978h10.18l18.449 32.406v-32.406h9.049v46.475h-9.71l-18.919-32.976v32.976h-9.05zm46.789 0h9.712v38.12h23.205v8.355H54.796zm70.644 26.359q-4.08 3.406-11.655 3.405h-9.677v16.711H94.46v-46.475h19.955q6.9 0 11.003 3.595t4.103 11.13q0 8.23-4.08 11.634zm-7.412-16.742a7.824 7.824 0 0 0-5.168-1.545h-8.752v13.684h8.752a7.417 7.417 0 0 0 5.168-1.672q1.844-1.67 1.845-5.297 0-3.625-1.845-5.17zm47.012-9.617h10.987l16.443 46.475h-10.531l-3.067-9.554h-17.114l-3.15 9.554h-10.159zm-.64 28.913h11.902l-5.871-18.287zm52.348-17.609q.173.016.772.047v9.207q-.851-.095-1.514-.126-.662-.032-1.071-.032-5.424 0-7.283 3.531a13.736 13.736 0 0 0-1.04 6.117v16.427h-9.05v-34.367h8.576v5.99a19.005 19.005 0 0 1 3.626-4.697 9.87 9.87 0 0 1 6.559-2.113c.168 0 .31.005.425.016zm26.595 13.132a7.971 7.971 0 0 0-1.296-3.469 5.44 5.44 0 0 0-4.709-2.08q-4.552 0-6.226 4.509a18.693 18.693 0 0 0-.885 6.352 17.186 17.186 0 0 0 .885 6.07 6.008 6.008 0 0 0 6.068 4.288q3.16 0 4.487-1.702a8.465 8.465 0 0 0 1.613-4.414h9.175a15.027 15.027 0 0 1-2.967 7.755q-4.23 5.896-12.53 5.897-8.3 0-12.213-4.919-3.915-4.919-3.915-12.755 0-8.842 4.325-13.762 4.322-4.917 11.93-4.918a17.98 17.98 0 0 1 10.588 2.9q4.118 2.903 4.876 10.248zm40.054-12.138a10.097 10.097 0 0 1 4.254 3.376 9.016 9.016 0 0 1 1.726 3.961 49.091 49.091 0 0 1 .314 6.643v20.197h-9.175v-20.928a9.284 9.284 0 0 0-.938-4.482q-1.222-2.398-4.632-2.399a6.353 6.353 0 0 0-5.368 2.383q-1.831 2.383-1.831 6.802v18.624h-8.986v-46.316h8.986v16.394a10.995 10.995 0 0 1 4.504-4.177 12.674 12.674 0 0 1 5.384-1.182 14.546 14.546 0 0 1 5.762 1.104zm23.983-4.289h-9.113v-8.292h9.112zm-9.113 4.099h9.112v34.367h-9.112zm14.283 6.716v-6.4h4.793v-9.586h8.89v9.585h5.582v6.4h-5.581v18.162q0 2.112.536 2.633.536.52 3.28.52.408 0 .866-.017.456-.014.899-.046v6.715l-4.257.158q-6.37.22-8.702-2.207a6.57 6.57 0 0 1-1.513-4.761v-21.156zm47.429-6.02a13.981 13.981 0 0 1 5.94 5.084 16.898 16.898 0 0 1 2.738 7.106 44.045 44.045 0 0 1 .296 6.82h-25.03q.207 5.17 3.593 7.252a9.122 9.122 0 0 0 4.954 1.292 6.98 6.98 0 0 0 6.839-3.94h9.175a11.22 11.22 0 0 1-3.332 6.21q-4.617 5.013-12.93 5.014a18.735 18.735 0 0 1-12.104-4.228q-5.246-4.23-5.245-13.76 0-8.93 4.734-13.695a16.57 16.57 0 0 1 12.29-4.765 19.566 19.566 0 0 1 8.082 1.61zm-13.442 7.763a9.332 9.332 0 0 0-2.394 5.32h15.48a7.496 7.496 0 0 0-2.393-5.432 7.878 7.878 0 0 0-5.33-1.852 7.124 7.124 0 0 0-5.363 1.964zm47.517 3.869a7.971 7.971 0 0 0-1.296-3.469 5.44 5.44 0 0 0-4.709-2.08q-4.552 0-6.226 4.509a18.693 18.693 0 0 0-.885 6.352 17.186 17.186 0 0 0 .885 6.07 6.008 6.008 0 0 0 6.068 4.288q3.16 0 4.487-1.702a8.465 8.465 0 0 0 1.613-4.414h9.174a15.027 15.027 0 0 1-2.966 7.755q-4.23 5.896-12.53 5.897-8.3 0-12.214-4.919-3.914-4.919-3.914-12.755 0-8.842 4.325-13.762 4.322-4.917 11.93-4.918a17.98 17.98 0 0 1 10.588 2.9q4.118 2.903 4.876 10.248zm11.823-5.612v-6.4h4.793v-9.586h8.891v9.585h5.581v6.4h-5.581v18.162q0 2.112.536 2.633.536.52 3.28.52.408 0 .867-.017.455-.014.898-.046v6.715l-4.257.158q-6.369.22-8.702-2.207a6.57 6.57 0 0 1-1.513-4.761v-21.156z"/></svg>