<svg xmlns="http://www.w3.org/2000/svg" role="img" viewBox="-6.01 -6.01 312.26 60.76"><title>Nokia logo</title><style>svg {enable-background:new 0 0 300.5 48.9}</style><path fill="#006cb7" d="M14.5 48.3H0V.8h25l28.7 35.5V.8h14.5v47.5H43.7L14.5 12.2zm103-11.4c3.3 0 4.5-.2 5.3-.9.7-.6 1.1-1.5 1.1-4.3V17.2c0-2.8-.3-3.6-1.1-4.3-.8-.7-2-.9-5.3-.9H94c-3.3 0-4.5.2-5.3.9-.7.7-1.1 1.5-1.1 4.3v14.5c0 2.8.3 3.6 1.1 4.3.8.7 1.9.9 5.3.9h23.5zm19.9-3.3c0 6.6-1.2 8.9-3.2 11.1-3.1 3.3-7.5 4.2-16.2 4.2H93.4c-8.6 0-13.1-1-16.1-4.2-2-2.2-3.2-4.5-3.2-11.1V15.3c0-6.6 1.2-8.9 3.2-11.1C80.3 1 84.8 0 93.4 0h24.7c8.6 0 13.1 1 16.2 4.2 2 2.2 3.2 4.5 3.2 11.1v18.3zM184 .8h20L177 23l30.4 25.3H186l-27.6-24.8L184 .8zm-25.5 47.5h-15.1V.8h15.1v47.5zM210.2.8h15.1v47.6h-15.1zm44.3 28.9h18.8l-9.4-17.2-9.4 17.2zM283 48.3l-4.5-8.3h-29.3l-4.4 8.3h-16.7L254.9.8h18.8l26.8 47.5H283z"/></svg>