<svg xmlns="http://www.w3.org/2000/svg" role="img" viewBox="-7.48 77.53 414.70 89.70"><title>NVIDIA Corporation logo</title><style>svg {enable-background:new 0 0 400 245}</style><g id="NVIDIA_Logo"><path id="Eye_Mark" fill="#76b900" d="M42 107.7V101c.6 0 1.3-.1 2-.1 18.2-.6 30.1 15.6 30.1 15.6s-12.9 17.9-26.7 17.9c-1.8 0-3.6-.3-5.4-.9v-20.2c7.1.9 8.5 4 12.8 11.1l9.5-8s-6.9-9.1-18.6-9.1c-1.2.1-2.5.2-3.7.4m0-22v9.9c.7-.1 1.3-.1 2-.1 25.3-.9 41.8 20.7 41.8 20.7s-18.9 23-38.6 23c-1.7 0-3.4-.1-5.1-.4v6.1c1.4.2 2.8.3 4.2.3 18.4 0 31.6-9.4 44.5-20.5 2.1 1.7 10.9 5.9 12.6 7.7-12.2 10.2-40.7 18.5-56.8 18.5-1.6 0-3-.1-4.5-.2v8.6h69.8V85.7H42zm0 47.9v5.2c-17-3-21.7-20.7-21.7-20.7s8.1-9 21.7-10.5v5.8c-7.1-.9-12.7 5.8-12.7 5.8s3.2 11.2 12.7 14.4m-30.1-16.2S22 102.6 42 101v-5.4C19.8 97.4.5 116.2.5 116.2s10.9 31.5 41.5 34.4V145c-22.4-2.9-30.1-27.6-30.1-27.6z"/><path id="NVIDIA" d="M237.4 99.6v48.3H251V99.6h-13.6zM130 99.5v48.4h13.8v-36.7h10.7c3.5 0 6.1.9 7.8 2.7 2.2 2.3 3 6 3 12.8V148h13.3v-26.7c0-19.1-12.2-21.7-24.1-21.7l-24.5-.1m129.4.1v48.3h22.1c11.8 0 15.6-2 19.8-6.4 2.9-3.1 4.8-9.9 4.8-17.3 0-6.8-1.6-12.9-4.4-16.6-5.1-6.7-12.3-8.1-23.2-8.1h-19.1zm13.5 10.5h5.9c8.5 0 14 3.8 14 13.7 0 9.9-5.5 13.7-14 13.7h-5.9v-27.4zm-55.2-10.5l-11.4 38.3-10.9-38.3h-14.7l15.6 48.3H216l15.7-48.3h-14zm94.8 48.3h13.6V99.6h-13.7l.1 48.3zm38.3-48.3l-19.1 48.3h13.5l3-8.5h22.6l2.9 8.5h14.6L369 99.6h-18.2zm8.9 8.8L368 131h-16.8l8.5-22.6z"/><path id="Vector" d="M395.2 149.4c-.8 0-1.7-.3-2.4-.7-.7-.5-1.2-1.1-1.6-1.9-.3-.8-.4-1.6-.2-2.5.2-.8.6-1.6 1.2-2.2.6-.6 1.4-1 2.2-1.2.8-.2 1.7-.1 2.5.2.8.3 1.4.9 1.9 1.6s.7 1.5.7 2.4c0 .6-.1 1.1-.3 1.6-.2.5-.5 1-.9 1.4-.4.4-.9.7-1.4.9-.6.3-1.1.4-1.7.4zm0-7.7c-1.9 0-3.4 1.5-3.4 3.4 0 2 1.5 3.4 3.4 3.4s3.4-1.5 3.4-3.4-1.5-3.4-3.4-3.4zm.8 5.7l-.8-1.8h-.5v1.8h-1v-4.5h1.9c.9 0 1.5.7 1.5 1.4 0 .3-.1.5-.2.7-.2.2-.4.4-.6.5l1 1.9H396zm-.6-3.7h-.7v1.2H395.6c.1 0 .1-.1.2-.1.1-.1.1-.1.1-.2v-.2-.2c0-.1-.1-.1-.1-.2-.1-.1-.1-.1-.2-.1-.1-.2-.1-.2-.2-.2z"/></g></svg>