<svg xmlns="http://www.w3.org/2000/svg" role="img" viewBox="-7.52 -2.52 625.04 267.54"><title>ODPi Egeria logo</title><defs><style>.cls-2{fill:#242021}.cls-3{fill:#70ccdb}</style></defs><path fill="none" d="M334 77.274c.001-1.179.01-2.358.01-3.537 0-2.359.003-4.717-.005-7.076.008 2.358.004 4.717.004 7.076 0 1.179-.008 2.358-.01 3.537zm-40.863-9.952c-.001 1.1-.007 2.2-.007 3.3s.007 2.199.009 3.298c-.002-1.1-.009-2.2-.009-3.299s.006-2.2.007-3.299z"/><path d="M160.896 79.411a17.834 17.834 0 0 1-7.22-6.678c-2.47-3.972-3.708-8.19-2.29-12.882a13.31 13.31 0 0 0 .447-2.711c.39-4.57-.217-9.089-.73-13.615-.766-6.773-2.394-13.27-6.007-19.136a1.339 1.339 0 0 1 .21-1.92 26.353 26.353 0 0 0 5.185-8.274 3.407 3.407 0 0 0-6.305-2.583 26.845 26.845 0 0 1-6.913 9.373c-5.075 4.735-10.846 8.558-16.516 12.508-9.09 6.335-17.997 12.883-25.735 20.893a88.378 88.378 0 0 0-22.15 38.774 121.772 121.772 0 0 0-3.4 42.78 65.855 65.855 0 0 0 8.468 27.342c4.17 7.293 9.72 13.45 15.81 19.163 5.04 4.73 10.44 9.072 15.213 14.09 3.44 3.616 6.465 7.536 8.045 12.34 2.566 7.796 1.9 15.564-.854 23.136-2.518 6.924-7.09 12.052-14.202 14.611a3.184 3.184 0 0 0-1.964 1.97 3.226 3.226 0 0 0 .721 3.55 3.295 3.295 0 0 0 3.743.82 29.055 29.055 0 0 0 15.73-13.349c3.559-6.121 4.863-12.837 5.143-19.835a34.363 34.363 0 0 0-5.98-21.28 64.607 64.607 0 0 0-9.358-10.574c-5.15-4.848-10.632-9.335-15.583-14.399-6.966-7.125-12.393-15.2-15.44-24.77-2.525-7.931-3.243-16.096-3.22-24.362a124.317 124.317 0 0 1 1.677-20.4A84.921 84.921 0 0 1 89.026 72.92c6.157-9.816 14.275-17.782 23.337-24.877 8.654-6.776 18.105-12.458 26.607-19.439.522-.428.637-.102.832.265a36.78 36.78 0 0 1 2.666 6.132c1.456 4.604 1.864 9.387 2.391 14.146a29.05 29.05 0 0 1-.034 8.839c-.376 1.916-1.023 3.788-.904 5.774.582 9.738 5.362 16.835 13.692 21.68 1.34.78 1.463.993.876 2.449a19.153 19.153 0 0 1-3.204 5.027 3.407 3.407 0 0 0 5.157 4.453 21.568 21.568 0 0 0 4.47-7.176c1.562-4.312.698-8.433-4.016-10.782zM376.44 144.67c-5.24.03-10.479.015-15.718.015-5.319 0-10.638.015-15.957-.016-.76-.005-1.028.16-1.002.971a79.56 79.56 0 0 1-.004 5.878c-.042 1.012.272 1.242 1.26 1.237 7.48-.045 14.958-.007 22.437-.048.907-.005 1.129.225 1.11 1.118-.06 2.918-.022 5.839-.022 8.758 0 5.296 0 5.296-4.536 8.104-12.476 7.727-28.703 4.731-36.973-6.946-5.314-7.504-6.465-15.914-4.81-24.802a26.899 26.899 0 0 1 26.77-22.271 26 26 0 0 1 20.38 9.253c.4.462.676.642 1.26.254a203.946 203.946 0 0 1 5.753-3.67c.572-.354.675-.586.195-1.153a35.853 35.853 0 0 0-10.245-8.552c-7.5-4.079-15.533-4.986-23.822-3.603-11.143 1.86-19.834 7.53-25.489 17.426a38.455 38.455 0 0 0-4.643 22.76 35.658 35.658 0 0 0 33.406 33.53c12.143.943 22.562-2.84 31.053-11.682a1.977 1.977 0 0 0 .596-1.484q-.032-12.058.006-24.117c.004-.82-.26-.965-1.005-.96zm110.099 7.676a20.365 20.365 0 0 0 11.889-5.412c5.642-5.466 7.018-12.288 5.817-19.726-1.73-10.712-10.132-16.89-20.171-17.247-10.026-.357-20.073-.094-30.111-.133-.768-.003-.928.248-.916.961.042 2.399.016 4.8.016 7.199q0 31.196-.027 62.392c-.002 1.075.27 1.335 1.313 1.293a78.805 78.805 0 0 1 6.476 0c1.056.045 1.314-.235 1.308-1.3-.05-8.678-.01-17.357-.052-26.035-.004-1.006.268-1.251 1.257-1.236 3.959.06 7.919.053 11.878.004a1.912 1.912 0 0 1 1.902 1.023c5.544 8.773 11.15 17.507 16.7 26.278a2.26 2.26 0 0 0 2.25 1.27c2.715-.095 5.437-.024 8.157-.04.286 0 .63.162.913-.21l-19.18-28.993c.28-.043.43-.068.58-.088zm-23.553-7.121c-.792.004-.9-.275-.895-.962.028-4.235.014-8.47.014-12.706s.017-8.47-.015-12.706c-.006-.748.143-1.03.973-1.024 6.153.037 12.31-.112 18.458.06 5.61.156 10.253 2.364 12.553 7.798 2.28 5.389 1.668 10.591-2.255 15.092a13.155 13.155 0 0 1-10.134 4.404c-6.232.088-12.466.008-18.7.044zm137.874 23.867q-11.676-29.078-23.334-58.163a1.454 1.454 0 0 0-1.634-1.111c-2.838.074-5.68.085-8.518-.002a1.815 1.815 0 0 0-2.057 1.374q-13.484 33.568-27.046 67.104c-.437 1.082-.849 2.174-1.308 3.353 3.221 0 6.26-.03 9.298.02a1.206 1.206 0 0 0 1.361-.933c1.827-4.72 3.729-9.412 5.559-14.132a1.305 1.305 0 0 1 1.45-1.018q16.798.052 33.597-.002a1.294 1.294 0 0 1 1.423 1.032c1.855 4.753 3.766 9.485 5.627 14.237.217.553.438.82 1.087.812 3.118-.036 6.237-.016 9.543-.016-1.722-4.284-3.386-8.419-5.047-12.555zm-15.244-11.409c-9.4.002-18.798-.008-28.196.018-.895.003-1.082-.14-.729-1.036q7.193-18.243 14.327-36.51a1.542 1.542 0 0 1 .483-.846l15.113 38.322c-.448.024-.723.052-.998.052zm-285.874-47.86q-22.315.047-44.631-.009c-1.132-.004-1.272.36-1.269 1.346q.05 17.277.021 34.554v6.479c0 9.438.017 18.876-.024 28.314-.005.974.287 1.161 1.196 1.16q22.436-.042 44.871.005c.944.002 1.13-.274 1.102-1.138-.063-1.877-.081-3.761.005-5.637.047-1.019-.286-1.237-1.261-1.234-11.878.034-23.755.008-35.633.047-1.012.003-1.243-.272-1.237-1.254q.064-11.098 0-22.196c-.006-1.006.172-1.328 1.274-1.323 11.557.049 23.115.005 34.673.066 1.28.006 1.527-.382 1.464-1.534a45.999 45.999 0 0 1 .001-5.156c.065-1.13-.221-1.464-1.416-1.459-11.637.051-23.275.029-34.913.037-.638 0-1.091.059-1.085-.89.047-7.078.036-14.157.01-21.235-.003-.739.199-.947.94-.937 2.919.043 5.839.018 8.758.018 9.078 0 18.157-.015 27.235.022.942.004 1.225-.237 1.187-1.185a65.221 65.221 0 0 1 .003-5.637c.048-1.03-.307-1.226-1.27-1.224zm138.038-.001q-22.314.05-44.628-.002c-1.041-.002-1.32.225-1.316 1.3.044 11.517.027 23.034.027 34.551q0 17.456-.007 34.912c0 .647-.04 1.089.894 1.086q22.675-.048 45.35-.004c.786.002.917-.27.903-.963-.041-1.999-.06-4 .007-5.998.03-.88-.287-1.043-1.09-1.036-4.64.035-9.278.017-13.917.017q-11.037 0-22.075.005c-.59 0-1.046.06-1.042-.825q.05-11.577.01-23.154c-.002-.558.136-.787.73-.755.837.045 1.679.011 2.518.011 10.958 0 21.915-.012 32.872.021.931.003 1.234-.214 1.193-1.176a62.24 62.24 0 0 1 .002-5.637c.05-1.045-.223-1.322-1.3-1.318-11.637.045-23.274.017-34.91.05-.892.002-1.124-.207-1.119-1.11.042-6.839.063-13.678-.013-20.515-.014-1.271.373-1.466 1.524-1.461 11.757.043 23.515.008 35.272.055 1.138.004 1.397-.333 1.347-1.394a56.932 56.932 0 0 1 0-5.396c.048-.99-.22-1.266-1.231-1.264z" class="cls-2"/><path d="M48.87 58.18c2.493-3.717 5.008-7.42 7.49-11.144 1.722-2.585.633-5.639-2.242-6.375a4.017 4.017 0 0 0-4.326 1.861q-5.764 8.548-11.498 17.117-16.369 24.387-32.743 48.772a5.345 5.345 0 0 0-1.062 2.565 5.065 5.065 0 0 0 1.105 3.038q15.402 22.944 30.792 45.896l13.358 19.911a3.925 3.925 0 0 0 4.063 1.948c2.877-.441 4.447-3.656 2.477-6.563C47.768 162.633 39.34 150 30.881 137.39q-8.481-12.645-16.96-25.291c-.327-.487-.683-.847-.2-1.563Q31.325 84.38 48.868 58.18zm148.734 5.984q-7.214-10.75-14.416-21.51a4.34 4.34 0 0 0-3.426-2.103 4.003 4.003 0 0 0-3.463 6.134c.929 1.537 1.968 3.008 2.97 4.501q19.885 29.607 39.79 59.2a1.259 1.259 0 0 1-.043 1.68c-1.703 2.465-3.363 4.96-5.034 7.448q-10.327 15.375-20.65 30.753-8.349 12.443-16.69 24.892a4.293 4.293 0 0 0-.91 3.363 3.986 3.986 0 0 0 7.36 1.338q8.615-12.842 17.247-25.673 13.463-20.056 26.916-40.118c1.498-2.233 1.508-3.476.01-5.71q-14.827-22.1-29.66-44.195zm61.919 32.521q41.15.004 82.3 0a7.243 7.243 0 0 0 7.52-7.568c.002-12.676-.082-25.354.051-38.03a7.716 7.716 0 0 0-7.772-7.754c-13.635.135-27.273.048-40.91.048-13.716 0-27.433.068-41.149-.044a7.605 7.605 0 0 0-7.647 7.646c.035 12.717.006 25.434.016 38.151a7.364 7.364 0 0 0 7.59 7.55zm.3-50.737c13.635.1 27.27.044 40.904.044h40.784c3.403 0 5.236 1.762 5.24 5.137q.025 18.892 0 37.785c-.004 3.3-1.932 5.156-5.25 5.156h-81.688c-3.332 0-5.268-1.94-5.268-5.283-.001-12.515.041-25.03-.03-37.545a5.114 5.114 0 0 1 5.309-5.294z" class="cls-3"/><path d="M149.542 119.21a3.3 3.3 0 0 0-3.493-.47 3.395 3.395 0 0 0-2.096 3.343 13.734 13.734 0 0 1-.521 3.9 2.92 2.92 0 0 1-2.547 2.202 35.422 35.422 0 0 1-6.7.1c-7.622-.342-15.21-1.124-22.809-1.78a14.131 14.131 0 0 1-9.804-4.816 52.983 52.983 0 0 1-5.82-8.012 10.253 10.253 0 0 0-.464 3.406c-.094 6.077 2.017 11.039 7.528 14.081 1.183.653 1.351 1.187 1.032 2.44a63.35 63.35 0 0 0-.902 25.332 35.971 35.971 0 0 0 5.435 14.693 8.506 8.506 0 0 0 4.193 3.552 32.769 32.769 0 0 1-2.746-10.629 111.22 111.22 0 0 1-.504-18.662 100.23 100.23 0 0 1 1.386-13.573c.15-.788.407-1.041 1.242-.954q5.899.613 11.81 1.103a142.352 142.352 0 0 0 16.398.619c4.11-.135 7.35-1.738 9.199-5.572a17.821 17.821 0 0 0 1.446-7.825 3.08 3.08 0 0 0-1.263-2.478zm378.123 26.645q0-17.46.022-34.92c.002-.893-.203-1.143-1.109-1.114a92.192 92.192 0 0 1-6.718-.004c-1.047-.042-1.219.31-1.217 1.269q.046 23.4.022 46.8c0 7.56.018 15.12-.024 22.68-.005.92.246 1.128 1.126 1.102 2.238-.065 4.482-.087 6.718.008 1.052.044 1.205-.31 1.202-1.261-.034-11.52-.022-23.04-.022-34.56zM123.14 72.509c0 .365-.01.711.002 1.056a7.425 7.425 0 1 0 14.808-1.06 10.33 10.33 0 0 0-9.679-8.706c-3.297-.093-6.032 1.38-8.619 3.13-2.417 1.636-4.873 2.521-7.75 1.44a.915.915 0 0 0-.338.015c.658 4.331 4.558 5.73 11.577 4.125zm4.956-1.422c.309-1.246 1.332-.846 1.95-.949a22.495 22.495 0 0 1 3.608.516 1.2 1.2 0 0 1 1.065 1.44 3.355 3.355 0 0 1-1.981 3.038 3.309 3.309 0 0 1-3.673-.551 3.356 3.356 0 0 1-.969-3.494zm23.134 29.291a22.248 22.248 0 0 0-5.549 1.797c-3.986 1.588-7.995 3.117-12.116 4.717 3.266 3.135 6.322 6.35 10.18 8.633a6.752 6.752 0 0 0 2.133.76 5.7 5.7 0 0 0 6.293-2.775 7.968 7.968 0 0 1-5.927-3.78c-.445-.626-.366-.746.234-1.063a22.44 22.44 0 0 0 3.385-2.024c2.963-2.32 6.106-3.422 9.964-1.687-.16-.35-.212-.476-.274-.598a8.113 8.113 0 0 0-8.323-3.98z" class="cls-2"/><path d="M290.218 82.078c2.835-.033 5.673.051 8.505-.058 4.762-.183 7.896-3.534 7.901-8.305q.003-2.935 0-5.87c0-5.2-3.144-8.468-8.344-8.597-2.594-.065-5.19-.026-7.786-.025-1.418 0-1.6.179-1.603 1.575q-.01 4.912-.003 9.824v9.943c0 .04.003.08 0 .12-.056.942.343 1.404 1.33 1.393zm2.912-11.457c0-1.1.006-2.2.007-3.299s-.002-2.2-.02-3.298c-.01-.717.205-1.02.953-.97 1.748.118 3.517-.215 5.25.236a4.033 4.033 0 0 1 3.217 4.08c.03 2.078.013 4.158.005 6.237a4.251 4.251 0 0 1-4.325 4.589c-1.356.076-2.72-.01-4.077.048-.788.034-1.04-.24-1.025-1.026.022-1.099.025-2.198.024-3.298s-.009-2.2-.009-3.299zm-20.39 11.472a14.027 14.027 0 0 0 5.343.395c3.918-.314 6.832-2.858 7.326-6.557a40.133 40.133 0 0 0 .04-5.27h.055c0-1.518.072-3.041-.017-4.555a7.13 7.13 0 0 0-2.937-5.642c-2.614-1.896-5.598-2.052-8.603-1.527-4.272.748-6.55 3.157-6.805 7.428a48.526 48.526 0 0 0 .123 9.452 7.202 7.202 0 0 0 5.475 6.276zm-1.407-15.704a3.421 3.421 0 0 1 1.905-3.118 6.524 6.524 0 0 1 6.52.194 3.71 3.71 0 0 1 1.681 3.389c.016 2.518.03 5.036-.005 7.553a3.982 3.982 0 0 1-3.296 4.128c-2.686.724-5.446-.206-6.42-2.145a3.778 3.778 0 0 1-.41-1.73v-4.076h.012c0-1.398-.047-2.799.013-4.195zm38.651 4.131v8.87c0 2.759 0 2.729 2.757 2.696.968-.011 1.366-.337 1.339-1.335-.053-1.917.009-3.836-.028-5.753-.013-.684.222-.899.894-.884 1.678.038 3.356.018 5.034.011 4.406-.018 7.257-2.872 7.284-7.287.03-4.642-2.708-7.553-7.208-7.609-2.876-.036-5.754.03-8.629-.027-1.125-.022-1.467.436-1.456 1.49.036 3.276.013 6.553.013 9.829zm4.922-7.467c1.634.031 3.27-.035 4.901.03a3.143 3.143 0 0 1 3.16 3.34c.05 2.302-.986 3.704-3.008 3.834-1.707.11-3.426.028-5.139.058-.595.011-.748-.27-.736-.803.011-.478.013-.956.012-1.434s-.006-.957-.006-1.435c0-.458.007-.917.009-1.375s0-.917-.018-1.375c-.023-.615.199-.852.825-.84zm19.104 10.684c0-2.359.003-4.717-.005-7.076-.001-.386.14-.889-.278-1.098a3.973 3.973 0 0 0-2.914-.11c-.803.229-.607 1.03-.609 1.645q-.016 6.236-.005 12.473c0 2.585 0 2.555 2.567 2.516.925-.015 1.276-.336 1.258-1.275-.023-1.18-.027-2.358-.025-3.538s.01-2.358.01-3.537zm-1.898-10.387c1.7.005 2.112-.404 2.112-2.099 0-1.64-.503-2.166-2.095-2.19-1.53-.022-2.188.637-2.169 2.172.02 1.643.497 2.112 2.152 2.117z" class="cls-3"/></svg>