<svg xmlns="http://www.w3.org/2000/svg" role="img" viewBox="30.48 23.48 286.78 254.78"><title>OdiseIA logo</title><path fill="#fff" d="M0 0v300h350V0H0z"/><path fill="#a4bfc6" d="M166 29v1h8l-8-1m-11 1v1h5l-5-1z"/><path fill="#07aed5" d="M52 128c3.2423 0 8.6817 1.007 11.436-1.028 3.4117-2.521 4.2328-11.097 5.7677-14.972 3.8635-9.754 9.0508-18.6981 15.4475-27C102.72 61.5499 128.752 46.6163 158 42.4283c28.685-4.1075 58.862 6.4749 81 24.3765 6.914 5.5911 12.784 12.0891 18.105 19.1952 2.474 3.3045 4.715 8.7515 8.274 10.9722C268.666 99.0237 274.276 98 278 98c-3.674-12.7287-13.851-23.8513-23-33-37.883-37.8831-97.264-45.3701-144-19.6883C78.328 63.2654 61.7267 93.4686 52 128z"/><path fill="#a4bfc6" d="M180 30v1h5l-5-1m-32 1v1h3l-3-1m41 0v1h3l-3-1m-44.333 1.3333l.666.3334-.666-.3334m51 0l.666.3334-.666-.3334m-56 1l.666.3334-.666-.3334m60 0l.666.3334-.666-.3334M136 34l1 1-1-1m67 0l1 1-1-1m-70 1l1 1-1-1m73.667.3333l.666.3334-.666-.3334M130 36l1 1-1-1m79.667.3333l.666.3334-.666-.3334M127 37l1 1-1-1m85 0l1 1-1-1m-87.333 1.3333l.666.3334-.666-.3334M215 38l1 1-1-1m-93 1l1 1-1-1m95 0l1 1-1-1m-97 1l1 1-1-1m99.667.3333l.666.3334-.666-.3334M118 41l1 1-1-1m103.667.3333l.666.3334-.666-.3334M116 42l1 1-1-1m41 0v1h5l-5-1m21 0v1h5l-5-1m46 0l1 1-1-1m-110 1l1 1-1-1m37 0v1h3l-3-1m36.667.3333l.666.3334-.666-.3334M112 44l1 1-1-1m34.667.3333l.666.3334-.666-.3334M193 44l1 1-1-1m34 0l1 1-1-1m-117 1l1 1-1-1m32.667.3333l.666.3334-.666-.3334M197 45l1 1-1-1m32 0l1 1-1-1m-121 1l1 1-1-1m31 0l1 1-1-1m61.667.3333l.666.3334-.666-.3334M231 46l1 1-1-1m-124 1l1 1-1-1m29 0l1 1-1-1m68 0l1 1-1-1m29 0l1 1-1-1m-128 1l1 1-1-1m28 0l1 1-1-1m74 0l1 1-1-1m27 0l1 1-1-1m-130 1l1 1-1-1m26 0l1 1-1-1m79.667.3333l.666.3334-.666-.3334M236 49l1 1-1-1m-134 1l1 1-1-1m26 0l1 1-1-1m84 0l1 1-1-1m25 0l1 1-1-1m-136 1l1 1-1-1m25 0l1 1-1-1m88 0l1 1-1-1m25 0l1 1-1-1m-115 1l1 1-1-1m92 0l1 1-1-1m24 0l1 1-1-1M98 53l1 1-1-1m24 0l1 1-1-1m96 0l1 1-1-1M97 54l1 1-1-1m23 0l1 1-1-1m100 0l1 1-1-1m23 0l1 1-1-1m-125 1l1 1-1-1m104 0l1 1-1-1m22 0l1 1-1-1M94 56l1 1-1-1m22 0l1 1-1-1m108 0l1 1-1-1M93 57l1 1-1-1m21 0l1 1-1-1m112 0l1 1-1-1M92 58l1 1-1-1m21 0l1 1-1-1m114 0l1 1-1-1m21 0l1 1-1-1m-137 1l1 1-1-1m118 0l1 1-1-1m20 0l1 1-1-1m-139 1l1 1-1-1m120 0l1 1-1-1m20 0l1 1-1-1m-142 1l1 1-1-1m124 0l1 1-1-1m19 0l1 1-1-1m-144 1l1 1-1-1m126 0l1 1-1-1m19 0l1 1-1-1m1 1l1 1-1-1m-149 1l1 1-1-1m132 0l1 1-1-1m18 0l1 1-1-1m-151 1l1 1-1-1m134 0l1 1-1-1m18 0l1 1-1-1m1 1l1 1-1-1m1 1l1 1-1-1m-16 1l1 1-1-1m17 0l1 1-1-1M98 69l1 1-1-1m144 0l1 1-1-1m17 0l1 1-1-1M97 70l1 1-1-1m146 0l1 1-1-1m17 0l1 1-1-1M79 71l1 1-1-1m17 0l1 1-1-1m148 0l1 1-1-1m17 0l1 1-1-1M78 72l1 1-1-1m17 0l1 1-1-1m150 0l1 1-1-1M77 73l1 1-1-1m17 0l1 1-1-1m152 0l1 1-1-1M93 74l1 1-1-1m154 0l1 1-1-1M92 75l1 1-1-1m156 0l1 1-1-1m16 0l1 1-1-1M91 76l1 1-1-1m158 0l1 1-1-1m16 0l1 1-1-1M74 77l1 1-1-1m16 0l1 1-1-1m160 0l1 1-1-1M89 78l1 1-1-1m162 0l1 1-1-1m16 1l1 1-1-1m1 1l1 1-1-1M71 81l1 1-1-1m15 1l1 1-1-1m168 0l1 1-1-1M85 83l1 1-1-1m170 0l1 1-1-1m15 0l1 1-1-1M69 84l1 1-1-1m-1 2l1 1-1-1m189 0l1 1-1-1m15 0l1 1-1-1M82 87l1 1-1-1m176 0l1 1-1-1m15 1l1 1-1-1M66 89l1 1-1-1m14 1l1 1-1-1m180 0l1 1-1-1M65 91l1 1-1-1m14 0l1 1-1-1m-15 2l1 1-1-1m14 0l1 1-1-1m184 0l1 1-1-1m14 0l1 1-1-1m-13 2l1 1-1-1m14 0l1 1-1-1M76 96l1 1-1-1m202 1l-13 1v1l13-2M75 98l1 1-1-1m-14 1l1 1-1-1m13 1l1 1-1-1m-14 1l1 1-1-1m13 1l1 1-1-1m-14 1l1 1-1-1m13 1l1 1-1-1m-14 2l1 1-1-1m13 0l1 1-1-1m152 0v1h12v73h-11c2.952 1.239 9.611 2.31 11.397-1.318 2.089-4.246.603-12.029.603-16.682v-38c0-4.125 1.662-13-1.028-16.397C232.738 104.782 226.18 106 223 106m51 0v1h6l-6-1z"/><path fill="#a5308c" d="M223 107v73h12v-73h-12m50 0l-30 73h13l21-50 15.15 35 7.244 13.972L312 180c-7.57-18.451-15.857-36.607-23.576-55-3.658-8.719-4.632-17.962-15.424-18z"/><path fill="#a4bfc6" d="M57 108l1 1-1-1m13 0l1 1-1-1m211 0l1 1-1-1m-9 1l1 1-1-1m10 1l1 1-1-1m-226 1l1 1-1-1m13 0l1 1-1-1m202 0l1 1-1-1m-202.6667 2.667l.3334.666-.3334-.666M270 113l1 1-1-1m13 0l1 1-1-1m-228 1l1 1-1-1m229 1l1 1-1-1m-217 1l1 1-1-1m202 0l1 1-1-1m-214.6667 1.667l.3334.666-.3334-.666M268 118l1 1-1-1m-201.6667 1.667l.3334.666-.3334-.666M267 120l1 1-1-1m19 0l1 1-1-1m-232.6667 1.667l.3334.666-.3334-.666M287 122l1 1-1-1m-221.6667 1.667l.3334.666-.3334-.666M266 123l1 1-1-1m-213.6667 2.667l.3334.666-.3334-.666M265 125l1 1-1-1z"/><path fill="#636461" d="M288 125l1 1-1-1z"/><path fill="#a4bfc6" d="M64 127l1 1-1-1m200 0l1 1-1-1m25 0l1 1-1-1m-236 1v1h11l-11-1m237 1l1 1-1-1m-27 1l1 1-1-1z"/><path fill="#636461" d="M277 130l1 1-1-1z"/><path fill="#a4bfc6" d="M276 131l1 1-1-1m-14 1l1 1-1-1z"/><path fill="#636461" d="M291 132l1 1-1-1m-16 1l1 1-1-1z"/><path fill="#a4bfc6" d="M278 133l1 1-1-1m-17 1l1 1-1-1m31 0l1 1-1-1m-238.3333 1.333l.6666.334-.6666-.334z"/><path fill="#636461" d="M55 180c-.1147-9.623-10.8537-11.234-11.7994-21-2.8606-29.541 46.5438-13.324 26.5857 8.956-2.2569 2.519-4.6462 3.976-7.7863 5.044v7c25.6657-6.096 23.9698-45.66-4-44.87-27.084.764-27.7996 38.925-3 44.87z"/><path fill="#a4bfc6" d="M62 135v1h3l-3-1z"/><path fill="#636461" d="M87 135v38h7l-1-31c5.9029 0 12.046-.495 16.957 3.419 11.225 8.946 5.518 23.876-6.957 27.581v7c17.841-2.674 27.009-24.281 13.895-37.956C108.952 133.762 97.4979 135 87 135z"/><path fill="#a4bfc6" d="M104 135v1h3l-3-1m24 0v35c0 3.378-1.176 10.704 4 10.704s4-7.326 4-10.704v-35h-1v45h-6c0-12.742 3.91-33.299-1-45z"/><path fill="#636461" d="M129 135v45h6v-45h-6z"/><path fill="#a4bfc6" d="M153 135l1 1-1-1z"/><path fill="#636461" d="M153 142c6.915 0 13.555-1.147 17 6h7c-2.409-10.019-23.497-21.309-24-6z"/><path fill="#a4bfc6" d="M166.667 135.333l.666.334-.666-.334M183 135v19h1l-1-19z"/><path fill="#636461" d="M184 135v19h6v-12h22v-7h-28z"/><path fill="#a4bfc6" d="M212 135v7h1l-1-7m67 0l1 1-1-1m-229 1l1 1-1-1m16 0l1 1-1-1m42.667.333l.666.334-.666-.334M169 136l1 1-1-1m105 0l1 1-1-1m19 0l1 1-1-1m-245 1l1 1-1-1m20 0l1 1-1-1m43 0l1 1-1-1m60 0l1 1-1-1m89 0l1 1-1-1m20 0l1 1-1-1m-234 1l1 1-1-1m24 0l1 1-1-1m102 0l1 1-1-1m101 0l1 1-1-1m-201 1l1 1-1-1m42 0l1 1-1-1m59 0l1 1-1-1m86 0l1 1-1-1z"/><path fill="#636461" d="M294 139l1 1-1-1z"/><path fill="#a4bfc6" d="M43 140l1 1-1-1m30 0l1 1-1-1m42 0l1 1-1-1m59 0l1 1-1-1z"/><path fill="#636461" d="M272 140l1 1-1-1z"/><path fill="#a4bfc6" d="M281 140l1 1-1-1m-239 1l1 1-1-1m32 0l1 1-1-1m42 0l1 1-1-1m179 0l1 1-1-1m-254 1l1 1-1-1m12 0v1h3l-3-1m9.6667.333l.6666.334-.6666-.334M75 142l1 1-1-1m18 0v29h1l-1-29m10.667.333l.666.334-.666-.334M117 142l1 1-1-1m49 0l1 1-1-1m9 0l1 1-1-1m15 0v12h1l-1-12m92 0l1 1-1-1m-231 1l1 1-1-1m14 0l1 1-1-1m42 0l1 1-1-1m11 0l1 1-1-1m153 0l1 1-1-1m25 0l1 1-1-1m-247 1l1 1-1-1m18 0l1 1-1-1m42 0l1 1-1-1m10 0l1 1-1-1m57.333.667l.334.666-.334-.666M257 144l1 1-1-1m26 0l1 1-1-1m-244 1l1 1-1-1m9 0l1 1-1-1m20 0l1 1-1-1m9 0l1 1-1-1m9 0l1 1-1-1m24 0l1 1-1-1m59 0l1 1-1-1m101 0l1 1-1-1m-223 1l1 1-1-1m22 0l1 1-1-1m51 0l1 1-1-1m136 0l1 1-1-1z"/><path fill="#636461" d="M297 146l1 1-1-1z"/><path fill="#a4bfc6" d="M38 147l1 1-1-1m8 0l1 1-1-1m24 0l1 1-1-1m8 0l1 1-1-1m34 0l1 1-1-1m157 0l1 1-1-1m15 0l1 1-1-1m-171 1l1 1-1-1m8 0l1 1-1-1m19 0v4h1l-1-4z"/><path fill="#636461" d="M141 148c.45 8.212 5.908 12.77 14 12.985 4.863.129 12.393-1.139 14.149 5.034 2.878 10.115-19.248 9.046-22.149.981h-6c1.037 19.945 39.057 16.709 35.427-2-3.291-16.958-23.544-4.793-29.427-17h-6z"/><path fill="#a4bfc6" d="M298 148l1 1-1-1m-260.6667 1.667l.3334.666-.3334-.666M45 149l1 1-1-1m34 0l1 1-1-1m68.333.667l.334.666-.334-.666z"/><path fill="#636461" d="M255 149l1 1-1-1z"/><path fill="#a4bfc6" d="M285 149l1 1-1-1m-213 1l1 1-1-1m42 0l1 1-1-1m154 0l1 1-1-1m31 0l1 1-1-1m-255 1l1 1-1-1m78 0l1 1-1-1m132 0l1 1-1-1m32 0l1 1-1-1m-250 1v4h1l-1-4m44.3333.667l.3334.666-.3334-.666M115 152l1 1-1-1m152 0l1 1-1-1m-224 1v3h1l-1-3m30.3333.667l.3334.666-.3334-.666M141 153l1 1-1-1m9 0l1 1-1-1m103 0l1 1-1-1m47 0l1 1-1-1m-214 1l1 1-1-1m80.667.333l.666.334-.666-.334M195 154v7h1l-1-7z"/><path fill="#636461" d="M196 154v7h11v-7h-11z"/><path fill="#a4bfc6" d="M207 154v7h1l-1-7m59 0l1 1-1-1m21 0l1 1-1-1m-164 1v6h1l-1-6m19 0l1 1-1-1m27 0l1 1-1-1m132 0l1 1-1-1m-185 1v3h1l-1-3m27 0l1 1-1-1m28 0l1 1-1-1m81 0l1 1-1-1m36 0l1 1-1-1m-144 1l1 1-1-1m28 0l1 1-1-1m130 0l1 1-1-1m-157 1l1 1-1-1m28 0l1 1-1-1m78 0l1 1-1-1m38 0l1 1-1-1m-253 1v4h1l-1-4m50 0l1 1-1-1m88 0l1 1-1-1m90 0l1 1-1-1m-220.6667 1.667l.3334.666-.3334-.666M149 160l1 1-1-1m101 0l1 1-1-1m-176.6667 1.667l.3334.666-.3334-.666M80 161v3h1l-1-3m35.333.667l.334.666-.334-.666m50.334-.334l.666.334-.666-.334M175 161l1 1-1-1m8 0c0 4.557-1.907 14.692 1.028 18.397 3.303 4.17 18.97 1.603 23.972 1.603v-1h-24l-1-19z"/><path fill="#636461" d="M184 161v19h28v-6c-13.144 0-22 2.626-22-13h-6z"/><path fill="#a4bfc6" d="M190 161v12h1l-1-12m73 0l1 1-1-1m27 0l1 1-1-1m-123 1l1 1-1-1m137 0l1 1-1-1m-181.667 1.667l.334.666-.334-.666M168 163l1 1-1-1m8.333.667l.334.666-.334-.666z"/><path fill="#636461" d="M249 163l1 1-1-1z"/><path fill="#a4bfc6" d="M262 163l1 1-1-1m29 0l1 1-1-1m-247 1l1 1-1-1m28 0l1 1-1-1m42 0l1 1-1-1m191 0l1 1-1-1m-268 1l1 1-1-1m132 0l1 1-1-1m79 0l1 1-1-1z"/><path fill="#636461" d="M292 165l1 1-1-1z"/><path fill="#a4bfc6" d="M45 166l1 1-1-1m26 0l1 1-1-1m8 0l1 1-1-1m34 0l1 1-1-1m8 0l1 1-1-1m140 0l1 1-1-1m-223 1l1 1-1-1m8 0l1 1-1-1m66 0l1 1-1-1m28 0v4h1l-1-4m107 0l1 1-1-1m59 0l1 1-1-1m-228 1l1 1-1-1m33 0l1 1-1-1m9 0l1 1-1-1m27.333.667l.334.666-.334-.666M260 168l1 1-1-1m33 0l1 1-1-1m-254 1l1 1-1-1m47 0l1 1-1-1m24 0l1 1-1-1m59 0l1 1-1-1m7.333.667l.334.666-.334-.666M307 169l1 1-1-1m-258 1l1 1-1-1m28 0l1 1-1-1m32 0l1 1-1-1m10 0l1 1-1-1m127 0l1 1-1-1m13 0l1 1-1-1m35 0l1 1-1-1m-243 1l1 1-1-1m15 0l1 1-1-1m10 0l1 1-1-1m31 0l1 1-1-1m11 0l1 1-1-1m30 0l1 1-1-1m20 0l1 1-1-1m-127 1l1 1-1-1m12 0l1 1-1-1m10.6667.333l.6666.334-.6666-.334M86 172l1 1-1-1m19 0l1 1-1-1m36 0l1 1-1-1m9 0l1 1-1-1m16.667.333l.666.334-.666-.334M175 172l1 1-1-1m70 0l1 1-1-1m50 0l1 1-1-1m-253 1l1 1-1-1m121 0l1 1-1-1m28 0v1h21v6h1v-7h-22m-148 1l1 1-1-1m99 0l1 1-1-1m32 0l1 1-1-1m70 0l1 1-1-1m65 0l1 1-1-1m-265 1l1 1-1-1m70 0l1 1-1-1m59 0l1 1-1-1m84 0l1 1-1-1m39 0l1 1-1-1m-250 1l1 1-1-1m25 0l1 1-1-1m42 0l1 1-1-1m59 0l1 1-1-1m138 0l1 1-1-1m-263 1l1 1-1-1m22 0l1 1-1-1m42 0l1 1-1-1m34 0l1 1-1-1m26 0l1 1-1-1m72 0l1 1-1-1m13 0l1 1-1-1m41 0l1 1-1-1m-248 1l1 1-1-1m18 0l1 1-1-1m42 0l1 1-1-1m37 0l1 1-1-1m23 0l1 1-1-1m142 0l1 1-1-1m-259 1l1 1-1-1m12.6667.333l.6666.334-.6666-.334M106 179l1 1-1-1m42.667.333l.666.334-.666-.334M167 179l1 1-1-1m75 0l13 2v-1l-13-1m56 0l1 1-1-1m-138 1l1 1-1-1m3 0l1 1-1-1m46 0v1h3l-3-1m90 0v1h13l-13-1z"/><path fill="#07aed5" d="M55 186c10.6114 32.612 32.3008 61.064 64 75.691 64.833 29.915 147.871-5.612 167-75.691h-13c-3.629 15.277-14.095 30.042-25.001 41-44.493 44.706-111.94 43.589-155.9951-1C81.3388 215.206 72.0342 200.75 68 186H55z"/><path fill="#a4bfc6" d="M55.3333 187.667l.3334.666-.3334-.666m13 0l.3334.666-.3334-.666M272 188l1 1-1-1m-216 2l1 1-1-1m13 0l1 1-1-1m215.333.667l.334.666-.334-.666M271 191l1 1-1-1m-214 2l1 1-1-1m13 0l1 1-1-1m200 0l1 1-1-1m13 0l1 1-1-1m-212 2l1 1-1-1m198 0l1 1-1-1m-211 1l1 1-1-1m224 0l1 1-1-1m-210 1l1 1-1-1m-13 1l1 1-1-1m209 0l1 1-1-1m13 0l1 1-1-1m-208 1l1 1-1-1m194 1l1 1-1-1m13 0l1 1-1-1m-206 1l1 1-1-1m-13 2l1 1-1-1m14 0l1 1-1-1m204 0l1 1-1-1m-217 2l1 1-1-1m14 0l1 1-1-1m188 0l1 1-1-1m14 0l1 1-1-1m-215 2l1 1-1-1m14 0l1 1-1-1m186 0l1 1-1-1m14 0l1 1-1-1m-213 2l1 1-1-1m15 1l1 1-1-1m182 0l1 1-1-1m13 2l1 1-1-1m-193 1l1 1-1-1m178 0l1 1-1-1m-192 1l1 1-1-1m206 0l1 1-1-1m-205 2l1 1-1-1m15 0l1 1-1-1m174 0l1 1-1-1m-188 1l1 1-1-1m15 0l1 1-1-1m172 0l1 1-1-1m15 0l1 1-1-1m-201 2l1 1-1-1m1 1l1 1-1-1m15 0l1 1-1-1m168 0l1 1-1-1m15 0l1 1-1-1m-182 1l1 1-1-1m166 0l1 1-1-1m-181 1l1 1-1-1m16 0l1 1-1-1m164 0l1 1-1-1m-179 1l1 1-1-1m194 0l1 1-1-1m-1 1l1 1-1-1m-191 2l1 1-1-1m1 1l1 1-1-1m187 1l1 1-1-1m-1 1l1 1-1-1m-183 2l1 1-1-1m1 1l1 1-1-1m1 1l1 1-1-1m1 1l1 1-1-1m158 0l1 1-1-1m-157 1l1 1-1-1m18 0l1 1-1-1m138 0l1 1-1-1m-155 1l1 1-1-1m18 0l1 1-1-1m136 0l1 1-1-1m-135 1l1 1-1-1m2 1l1 1-1-1m130 0l1 1-1-1m19 0l1 1-1-1m-148 1l1 1-1-1m128 0l1 1-1-1m-146 1l1 1-1-1m19 0l1 1-1-1m126 0l1 1-1-1m-144 1l1 1-1-1m20 0l1 1-1-1m122 0l1 1-1-1m-141 1l1 1-1-1m20 0l1 1-1-1m120 0l1 1-1-1m-139 1l1 1-1-1m21 0l1 1-1-1m116 0l1 1-1-1m20 0l1 1-1-1m-156 1l1 1-1-1m21 0l1 1-1-1m114 0l1 1-1-1m20 0l1 1-1-1m-132 1l1 1-1-1m110 0l1 1-1-1m21 0l1 1-1-1m-129 1l1 1-1-1m106 0l1 1-1-1m-127 1l1 1-1-1m1 1l1 1-1-1m23 0l1 1-1-1m100 0l1 1-1-1m22 0l1 1-1-1m-120 1l1 1-1-1m96 0l1 1-1-1m23 0l1 1-1-1m-141 1l1 1-1-1m25 0l1 1-1-1m91 0l1 1-1-1m23 0l1 1-1-1m-138 1l1 1-1-1m26 0l1 1-1-1m86 0l1 1-1-1m25 0l1 1-1-1m-109 1l1 1-1-1m82 0l1 1-1-1m25 0l1 1-1-1m-132 1l1 1-1-1m28 0l1 1-1-1m76.667.333l.666.334-.666-.334M235 253l1 1-1-1m-100.333 1.333l.666.334-.666-.334M206 254l1 1-1-1m27 0l1 1-1-1m-126 1l1 1-1-1m30.667.333l.666.334-.666-.334M203 255l1 1-1-1m-94 1l1 1-1-1m32 0l1 1-1-1m58.667.333l.666.334-.666-.334M230 256l1 1-1-1m-119 1l1 1-1-1m33.667.333l.666.334-.666-.334m51 0l.666.334-.666-.334M228 257l1 1-1-1m-116 1l1 1-1-1m37 0v1h3l-3-1m41 0v1h3l-3-1m36 0l1 1-1-1m-112 1l1 1-1-1m40 0v1h4l-4-1m30 0v1h4l-4-1m40 0l1 1-1-1m-108 1l1 1-1-1m48 0v1h15l-15-1m58 0l1 1-1-1m-104 1l1 1-1-1m102 0l1 1-1-1m-100 1l1 1-1-1m98 0l1 1-1-1m-95 1l1 1-1-1m93 0l1 1-1-1m-91 1l1 1-1-1m88 0l1 1-1-1m-85 1l1 1-1-1m82 0l1 1-1-1m-79.333 1.333l.666.334-.666-.334m77 0l.666.334-.666-.334m-74 1l.666.334-.666-.334M204 267l1 1-1-1m-67.333 1.333l.666.334-.666-.334m64 0l.666.334-.666-.334m-60 1l.666.334-.666-.334m56 0l.666.334-.666-.334m-51 1l.666.334-.666-.334m47 0l.666.334-.666-.334M150 271v1h4l-4-1m34 0v1h4l-4-1m-26 1v1h8l-8-1m13 0v1h9l-9-1z"/></svg>