<svg xmlns="http://www.w3.org/2000/svg" role="img" viewBox="-0.39 -5.89 592.28 555.78"><title>OpenFL logo</title><defs><clipPath id="clip-path"><path fill="none" d="M-9.497-217.752h612v792h-612z"/></clipPath><style>.cls-3{fill:#0f7dc2}</style></defs><g clip-path="url(#clip-path)"><path d="M281.59867 340.485c-112.55 10.382-229.86-5.971-246.292-93.93-8.038-43.36 11.744-89.34 37.947-117.92v-15.26c-47.204 41.4-72.786 93.782-58.052 155.66 18.824 79.368 119.477 124.313 273.157 109.388 60.828-5.894 140.382-25.454 195.723-55.852v-43.153c-50.228 29.927-133.287 54.648-202.483 61.067m296.497-228.142c-26.697-130.34-279.77-138.604-442.906-39.3v10.968c162.948-83.774 394.084-83.265 415.128 36.803 7.06 39.718-15.312 81.097-55.282 104.923v31.153c48.082-17.636 97.4-74.678 83.06-144.548" class="cls-3"/><path d="M474.98166 93.363h-29.51v131.431c0 15.403 7.447 28.798 29.51 30.939zm-351.379 47.987h-29.564l-.016 85.87c0 15.457 7.47 28.837 29.58 30.939zm-29.564-43.99h29.472v27.973h-29.472zm206.294 159.438c-23.885 0-33.994-16.6-33.994-32.955V109.829h29.253v31.522h22.03v23.628h-22.03v57.056c0 6.668 3.166 10.383 10.119 10.383h11.912v24.38h-17.29m53.829-48.574c0 14.97 9.362 25.972 25.925 25.972 12.978 0 19.376-3.601 26.868-11.001l18.077 17.218c-11.589 11.45-23.732 18.41-45.161 18.41-27.995 0-54.819-15.28-54.819-59.824 0-38.08 23.44-59.606 54.17-59.606 31.24 0 49.193 25.199 49.193 58.278v10.553h-74.253m23.778-44.636c-10.013 0-17.706 5.157-20.967 12.113a30.21194 30.21194 0 0 0-2.811 12.577h45.084c-.571-12.577-6.274-24.69-21.306-24.69m-174.885 1.391c8.578 0 12.144 4.241 12.144 11.124v80.866h29.259v-81.036c0-16.42-8.75-34.551-34.443-34.551l-60.441-.031v115.618h29.271v-91.99zm303.678-48.132a11.743 11.743 0 1 1 .21673 0q-.10834.001-.21673 0m0-21.527a9.761 9.761 0 1 0 9.81 9.784 9.868 9.868 0 0 0-9.81-9.784m5.206 16.822h-2.194a.496.496 0 0 1-.447-.293l-2.967-5.045a.87009.87009 0 0 0-.417-.232h-1.36v5.03a.517.517 0 0 1-.493.54H502.08166a.538.538 0 0 1-.494-.54V98.917c0-.742.247-1.047.895-1.14.711-.077 2.566-.17 3.6-.17 3.662 0 5.81 1.078 5.81 4.473v.248a3.558 3.558 0 0 1-2.641 3.75l3.09 5.26a.94907.94907 0 0 1 .077.372.418.418 0 0 1-.48.432m-2.843-10.062c0-1.417-.88-1.865-2.765-1.865h-1.87v4.024c.294 0 1.623.062 1.87.062 1.885 0 2.765-.629 2.765-1.973z" class="cls-3"/></g><path d="M148.55438 507.16875q-9.49584 9.77929-27.46289 9.7793-17.96776 0-27.46289-9.7793-12.7376-11.99707-12.73681-34.57129 0-23.02734 12.73681-34.57031 9.49512-9.7793 27.46289-9.7793 17.967 0 27.46289 9.7793 12.679 11.543 12.67969 34.57031 0 22.57472-12.67969 34.57129zm-10.94531-12.7373q6.11133-7.67578 6.11231-21.834 0-14.10059-6.11231-21.80469-6.11279-7.70508-16.51758-7.70507-10.40551 0-16.603 7.67578-6.19776 7.67724-6.19776 21.834 0 14.15917 6.19776 21.834 6.197 7.67724 16.603 7.67675 10.40551-.00002 16.51758-7.67677zm87.79932-35.13868q7.58276 8.01709 7.58252 23.54 0 16.37549-7.41113 24.96094a24.05439 24.05439 0 0 1-19.08545 8.58594 20.00859 20.00859 0 0 1-12.36133-3.69625 23.876 23.876 0 0 1-5.26514-5.96973v32.2959h-16.03418v-86.36914h15.52246v9.1543a26.07459 26.07459 0 0 1 5.60791-6.36817 20.69563 20.69563 0 0 1 12.93311-4.15136 24.51 24.51 0 0 1 18.51123 8.01757zm-12.4375 11.65623q-3.30322-5.51513-10.7124-5.51562-8.9048 0-12.23536 8.3584a31.386 31.386 0 0 0-1.72363 11.25781q0 10.80468 5.79688 15.18164a13.30378 13.30378 0 0 0 8.15869 2.55859 11.86161 11.86161 0 0 0 10.42822-5.23046q3.59034-5.231 3.59082-13.93067a24.20043 24.20043 0 0 0-3.30322-12.67969zm71.83496-17.05369a25.21678 25.21678 0 0 1 10.71 9.16895 30.45931 30.45931 0 0 1 4.9375 12.8125 79.3012 79.3012 0 0 1 .5332 12.30078h-45.13822q.37719 9.3252 6.481 13.07715a16.4586 16.4586 0 0 0 8.93506 2.332 12.58818 12.58818 0 0 0 12.33349-7.10742h16.54395q-.6548 5.51512-6.00782 11.20117-8.32762 9.03956-23.31689 9.04a33.78592 33.78592 0 0 1-21.83008-7.625q-9.45775-7.626-9.45752-24.81348 0-16.103 8.5376-24.69726 8.53712-8.59278 22.16309-8.59375a35.29433 35.29433 0 0 1 14.57564 2.90436zm-24.24268 13.999a16.8355 16.8355 0 0 0-4.31689 9.59375h27.918q-.44238-6.45264-4.31641-9.793a14.20259 14.20259 0 0 0-9.61181-3.3418q-6.2388.00006-9.67289 3.54108zm98.5962-11.70017q6.08641 5.03173 6.08691 16.68848V514.617h-16.60352v-37.69825a17.31909 17.31909 0 0 0-1.29785-7.50488q-2.37158-4.77685-9.03027-4.77637-8.18554 0-11.23242 6.99414a24.17788 24.17788 0 0 0-1.58106 9.43848V514.617h-16.20508v-61.86329h15.69336v9.041a27.44529 27.44529 0 0 1 5.88868-6.87989q4.98192-3.75293 12.626-3.75293 9.56834.00002 15.65525 5.03225zm22.46191-25.27441h59.75879v14.72656h-42.35938v19.27539h37.12891v14.55664h-37.12891V514.617h-17.39941zm71.13086-.11328h17.51269v68.74316h41.84864V514.617h-59.36133z"/></svg>