<svg xmlns="http://www.w3.org/2000/svg" role="img" viewBox="0.14 0.14 746.72 224.72"><title>OpenDS4All logo</title><defs><style>.cls-1{fill:#231f20}</style></defs><path d="M207.26 140.86c0-21.5 14.6-37.6 36.1-37.6s36.2 16.1 36.2 37.6-14.7 37.6-36.2 37.6-36.1-16.2-36.1-37.6zm63 0c0-17-10.6-29.6-26.8-29.6-16.4 0-26.7 12.5-26.7 29.6 0 16.9 10.4 29.6 26.7 29.6 16.2-.1 26.8-12.7 26.8-29.6zm24.7 28.3v28h-8.2v-72.8h8.2v7.9a22.21509 22.21509 0 0 1 17.8-9.2c13.9 0 23.5 10.5 23.5 27.6 0 17-9.6 27.7-23.5 27.7-7.2.1-13.4-3.4-17.8-9.2zm32.6-18.4c0-11.7-6.3-20.3-16.9-20.3-6.4 0-12.9 3.8-15.7 8.4v23.8c2.8 4.6 9.3 8.5 15.7 8.5 10.6 0 16.9-8.7 16.9-20.4zm14.2 0c0-15.3 10.9-27.6 26-27.6 15.9 0 25.3 12.4 25.3 28.2v2.1h-42.5c.7 9.9 7.5 18.2 18.9 18.2a22.99244 22.99244 0 0 0 16.4-6.8l3.9 5.3a29.05161 29.05161 0 0 1-20.9 8.2c-15.9.1-27.1-11.1-27.1-27.6zm25.9-20.8c-11.2 0-16.8 9.5-17.2 17.5h34.6c-.2-7.8-5.4-17.5-17.4-17.5zm65.5 47.2v-34.5c0-9.4-4.8-12.2-11.9-12.2-6.4 0-12.4 3.9-15.6 8.2v38.5h-8.2v-52.7h8.2v7.6a25.63734 25.63734 0 0 1 18.9-8.9c10.9 0 16.7 5.6 16.7 17v37zm16.1 0v-72.8h24.9c22.7 0 37.3 15.8 37.3 36.4 0 20.7-14.6 36.3-37.3 36.3h-24.9zm52.8-36.3c0-15.7-9.9-28.4-27.9-28.4h-15.8v56.6h15.8c17.7 0 27.9-12.6 27.9-28.2zm12.7 26l5.5-7a29.81748 29.81748 0 0 0 22.8 10.5c13 0 17.1-7 17.1-12.7 0-18.8-43.1-8.3-43.1-34.2 0-12 10.7-20.3 25.1-20.3 11 0 19.6 3.8 25.7 10.3l-5.5 6.7c-5.5-6.1-13.1-8.7-21.1-8.7-8.6 0-14.9 4.7-14.9 11.6 0 16.4 43.1 7 43.1 34.1 0 10.5-7.2 21.4-26.8 21.4-12.5-.1-21.9-4.9-27.9-11.7zm95.6 10.3v-18.4h-34.5v-7.5l31.2-46.8h12.4v46.4h10.3v8h-10.3v18.4h-9.1zm0-64.4l-25.5 38h25.5zm78.9 64.4l-6.4-16.3h-36.2l-6.4 16.3h-10.4l29.3-72.7h11.2l29.2 72.7zm-24.5-63.5l-15.4 39.3h30.9zm39.7 63.5v-72.8h8.2v72.7h-8.2zm20.1 0v-72.8h8.2v72.7h-8.2z" class="cls-1"/><path fill="none" d="M60.26 103.76c1.5 0 2.5-1.5 2.5-3.6s-1-3.6-2.5-3.6-2.5 1.5-2.5 3.6c0 2 1 3.6 2.5 3.6zm31.3 37.7c0 2.1 1 3.7 2.5 3.7s2.5-1.5 2.5-3.6-1-3.6-2.5-3.6c-1.5-.1-2.5 1.4-2.5 3.5zm-43.6-55.7c0 2.1 1 3.7 2.5 3.7s2.5-1.5 2.5-3.6-1-3.6-2.5-3.6c-1.6-.1-2.5 1.4-2.5 3.5zm117.8 23.7c1.5 0 2.5-1.5 2.5-3.6s-1-3.6-2.5-3.6-2.5 1.5-2.5 3.6c0 2 1 3.6 2.5 3.6zm-101.3-27.3c-1.5 0-2.5 1.5-2.5 3.6s1 3.6 2.5 3.6 2.5-1.5 2.5-3.6c0-2-1-3.6-2.5-3.6zm9 20.4c1.5 0 2.5-1.5 2.5-3.6s-1-3.6-2.5-3.6-2.5 1.5-2.5 3.6 1 3.6 2.5 3.6zm74.4 7.4c-1.5 0-2.5 1.5-2.5 3.6s1 3.6 2.5 3.6 2.5-1.5 2.5-3.6c0-2-1-3.6-2.5-3.6zm-97.7 9.1c1.5 0 2.5-1.5 2.5-3.6s-1-3.6-2.5-3.6-2.5 1.5-2.5 3.6 1 3.6 2.5 3.6zm-11.2-21.5c-1.5 0-2.5 1.5-2.5 3.6s1 3.6 2.5 3.6 2.5-1.5 2.5-3.6c0-2-1-3.6-2.5-3.6zm68.5 52.9c0-2.1-1-3.7-2.5-3.7s-2.5 1.5-2.5 3.6 1 3.6 2.5 3.6 2.5-1.4 2.5-3.5zm-59.5-16.7c1.5 0 2.5-1.5 2.5-3.6s-1-3.6-2.5-3.6-2.5 1.5-2.5 3.6 1 3.6 2.5 3.6zm109.3-40.9c0-2.1-1-3.7-2.5-3.7s-2.5 1.5-2.5 3.6 1 3.6 2.5 3.6c1.6.1 2.5-1.4 2.5-3.5zm-113.2-25.8c-1.5 0-2.5 1.5-2.5 3.6s1 3.6 2.5 3.6 2.5-1.5 2.5-3.6c0-2-1-3.6-2.5-3.6zm53.4-25.4c1.5 0 2.5-1.5 2.5-3.6s-1-3.6-2.5-3.6-2.5 1.5-2.5 3.6c0 2 .9 3.6 2.5 3.6zm60.6 25.4c1.5 0 2.5-1.5 2.5-3.6s-1-3.6-2.5-3.6-2.5 1.5-2.5 3.6c0 2 .9 3.6 2.5 3.6zm-38.9 21c0 2.1 1 3.7 2.5 3.7s2.5-1.5 2.5-3.6-1-3.6-2.5-3.6c-1.5-.1-2.5 1.4-2.5 3.5zm-8.4 45.8c0-2.1-1-3.7-2.5-3.7s-2.5 1.5-2.5 3.6 1 3.6 2.5 3.6 2.5-1.5 2.5-3.5zm-3.3-11.7c1.5 0 2.5-1.5 2.5-3.6s-1-3.6-2.5-3.6-2.5 1.5-2.5 3.6 1 3.6 2.5 3.6zm6-59.6c1.5 0 2.5-1.5 2.5-3.6s-1-3.6-2.5-3.6-2.5 1.5-2.5 3.6c0 2 1 3.6 2.5 3.6zm1.7 35c-1.5 0-2.5 1.5-2.5 3.6s1 3.6 2.5 3.6 2.5-1.5 2.5-3.6c0-2-1-3.6-2.5-3.6zm-18.5 68.9c1.5 0 2.5-1.5 2.5-3.6s-1-3.6-2.5-3.6-2.5 1.5-2.5 3.6c0 2 1 3.6 2.5 3.6zm-12.9-43.4c0 2.1 1 3.7 2.5 3.7s2.5-1.5 2.5-3.6-1-3.6-2.5-3.6c-1.5-.1-2.5 1.5-2.5 3.5zm-27.1 22.8c1.5 0 2.5-1.5 2.5-3.6s-1-3.6-2.5-3.6-2.5 1.5-2.5 3.6c0 2 1 3.6 2.5 3.6zm88.8-75.8c1.5 0 2.5-1.5 2.5-3.6s-1-3.6-2.5-3.6-2.5 1.5-2.5 3.6 1 3.6 2.5 3.6zm-82.7 55.3c-1.5 0-2.5 1.5-2.5 3.6s1 3.6 2.5 3.6 2.5-1.5 2.5-3.6c0-2-1-3.6-2.5-3.6zm72.6-65.4c1.5 0 2.5-1.5 2.5-3.6s-1-3.6-2.5-3.6-2.5 1.5-2.5 3.6 1 3.6 2.5 3.6zm-40.2 55.5c1.5 0 2.5-1.5 2.5-3.6s-1-3.6-2.5-3.6-2.5 1.5-2.5 3.6 1 3.6 2.5 3.6zm-19.9 31.4c1.5 0 2.5-1.5 2.5-3.6s-1-3.6-2.5-3.6-2.5 1.5-2.5 3.6 1 3.6 2.5 3.6zm-8.7-80.9c-1.5 0-2.5 1.5-2.5 3.6s1 3.6 2.5 3.6 2.5-1.5 2.5-3.6c0-2-1.1-3.6-2.5-3.6zm91.4 69c-1.5 0-2.5 1.5-2.5 3.6s1 3.6 2.5 3.6 2.5-1.5 2.5-3.6c0-2-1-3.6-2.5-3.6zm-29.3 28.4c1.5 0 2.5-1.5 2.5-3.6s-1-3.6-2.5-3.6-2.5 1.5-2.5 3.6.9 3.6 2.5 3.6zm39-69c1.5 0 2.5-1.5 2.5-3.6s-1-3.6-2.5-3.6-2.5 1.5-2.5 3.6c0 2 1 3.6 2.5 3.6zm-104.3-51.1c0 2.1 1 3.7 2.5 3.7s2.5-1.5 2.5-3.6-1-3.6-2.5-3.6c-1.5-.1-2.5 1.4-2.5 3.5zm80.1 37.4c0-2.1-1-3.7-2.5-3.7s-2.5 1.5-2.5 3.6 1 3.6 2.5 3.6c1.5.1 2.5-1.5 2.5-3.5zm4.5 71.8c1.5 0 2.5-1.5 2.5-3.6s-1-3.6-2.5-3.6-2.5 1.5-2.5 3.6c0 2 .9 3.6 2.5 3.6zm-70-113c1.5 0 2.5-1.5 2.5-3.6s-1-3.6-2.5-3.6-2.5 1.5-2.5 3.6 1 3.6 2.5 3.6zm-.2 122.5c1.5 0 2.5-1.5 2.5-3.6s-1-3.6-2.5-3.6-2.5 1.5-2.5 3.6c0 2 1 3.6 2.5 3.6zm93.6-82.4c1.5 0 2.5-1.5 2.5-3.6s-1-3.6-2.5-3.6-2.5 1.5-2.5 3.6 1 3.6 2.5 3.6zm-34.1 21.7c-1.5 0-2.5 1.5-2.5 3.6s1 3.6 2.5 3.6 2.5-1.5 2.5-3.6-1-3.6-2.5-3.6z"/><path fill="#71cbdc" d="M53.36 68.96l2-.5v9h2.4v-11.5h-1.7l-3.2 1zm-17.9 12.3l.5 2 2-.5v8.9h2.5v-11.4h-1.7zm16.1 25.8v-11.4h-1.7l-3.2 1 .5 2 2-.5v8.9zm24.4-20.1v-11.5h-1.7l-3.3 1 .5 2 2-.4v8.9zm10.3 25.9v-11.5h-1.7l-3.3 1 .6 2 1.9-.4v8.9zm-44.8 10.7v-11.5h-1.7l-3.2 1 .5 2 2-.4v8.9zm20.5-2.9v-11.4h-1.8l-3.2.9.5 2.1 2-.5v8.9zm8.2-14.3h-1.7l-3.3 1 .6 2 1.9-.5v8.9h2.5zm8.3 2.1h-1.7l-3.3 1 .5 2 2-.5v9h2.5zm-2.9 25.3v-11.5h-1.7l-3.3 1 .5 2 2-.5v9zm9.7-1.2h-1.7l-3.3.9.5 2.1 2-.5v8.9h2.5zm3.7 27v-11.4h-1.7l-3.2 1 .5 2 2-.5v8.9zm-21.2-2.6v-11.5h-1.7l-3.3 1 .5 2 2-.4v8.9zm32.3-24.2v-11.4h-1.7l-3.2 1 .5 2 2-.5v8.9zm16.5 8.2h-1.7l-3.2 1 .5 2 2-.5v9h2.4zm-1.6 28.1v-11.4h-1.7l-3.3 1 .5 2 2-.5v8.9zm4.2-120.8l.5 2.1 2-.5v8.9h2.5v-11.5h-1.7zm9.4 61.4v-11.4h-1.7l-3.2.9.5 2.1 2-.5v8.9zm15.4-8.8h2.4v-11.4h-1.7l-3.2 1 .5 2 2-.5zm-3.7 61v-11.4h-1.7l-3.3.9.6 2.1 2-.5v8.9zm23.6-37.4l.5 2.1 2-.5v8.9h2.5v-11.4h-1.8zm8.7-24.6l.5 2.1 2-.5v8.9h2.4v-11.5h-1.7zm-4.2 14l.5 2 2-.5v8.9h2.4v-11.4h-1.7zm8.8-30.4l-3.2 1 .5 2.1 2-.5v8.9h2.5v-11.5zm-16.7 45.8v-11.5h-1.7l-3.2 1 .5 2.1 2-.5v8.9zm-4.9-24v8.9h2.4v-11.4h-1.7l-3.2 1 .5 2zm-6-28.9l2-.5v9h2.5v-11.5h-1.7l-3.3 1zm12.5-4h-1.7l-3.3 1 .6 2.1 1.9-.5v8.9h2.5zm4.9-14.2v8.9h2.5v-11.5h-1.7l-3.3 1 .5 2zm-32.9 37.7v-11.4h-1.7l-3.3 1 .6 2 1.9-.5v8.9zm-80.6-48.8l.6 2 1.9-.4v8.9h2.5v-11.5h-1.7zm33.5-18v8.9h2.5v-11.4h-1.7l-3.3 1 .6 2zm18-2.4v8.9h2.5v-11.5h-1.7l-3.3 1 .5 2.1zm16.2 1.7v8.9h2.4v-11.4h-1.7l-3.2.9.5 2.1zm8 12.3v8.9h2.4v-11.4h-1.7l-3.2 1 .5 2zm-85.1 24.2c-3 0-5.1 2.6-5.1 5.9s2 5.8 5 5.8 5.1-2.6 5.1-5.9c.1-3.3-2-5.8-5-5.8zm2.5 5.9c0 2.1-1 3.6-2.5 3.6s-2.5-1.5-2.5-3.6 1-3.6 2.5-3.6c1.5-.1 2.5 1.5 2.5 3.6zm17.9 9.2c-3 0-5.1 2.6-5.1 5.9s2 5.8 5 5.8 5.1-2.6 5.1-5.9c.1-3.3-2-5.8-5-5.8zm2.5 5.9c0 2.1-1 3.6-2.5 3.6s-2.5-1.5-2.5-3.6 1-3.6 2.5-3.6c1.5-.1 2.5 1.5 2.5 3.6zm-21.6 0c0 3.3 2 5.9 5 5.9s5.1-2.6 5.1-5.9-2-5.8-5-5.8c-3.1-.1-5.1 2.5-5.1 5.8zm7.5 0c0 2.1-1 3.6-2.5 3.6s-2.5-1.5-2.5-3.6 1-3.6 2.5-3.6c1.5-.1 2.5 1.5 2.5 3.6zm-8.8 15.4c0-3.3-2-5.9-5-5.9s-5.1 2.6-5.1 5.9 2 5.8 5 5.8c3.1 0 5.1-2.5 5.1-5.8zm-2.6 0c0 2.1-1 3.6-2.5 3.6s-2.5-1.5-2.5-3.6 1-3.6 2.5-3.6c1.5-.1 2.5 1.5 2.5 3.6zm53.6 16.5c3 0 5.1-2.6 5.1-5.9s-2-5.8-5-5.8-5.1 2.6-5.1 5.9c0 3.2 2 5.8 5 5.8zm-2.4-5.9c0-2.1 1-3.6 2.5-3.6s2.5 1.6 2.5 3.6c0 2.1-1 3.6-2.5 3.6s-2.5-1.5-2.5-3.6zm-44.8 24.2c3 0 5.1-2.6 5.1-5.9s-2-5.8-5-5.8-5.1 2.6-5.1 5.9c0 3.2 2 5.8 5 5.8zm-2.4-5.9c0-2.1 1-3.6 2.5-3.6s2.5 1.6 2.5 3.6c0 2.1-1 3.6-2.5 3.6s-2.5-1.5-2.5-3.6zm35.8-7c0 3.3 2 5.9 5 5.9s5.1-2.6 5.1-5.9-2-5.8-5-5.8c-3.1-.1-5.1 2.5-5.1 5.8zm7.5 0c0 2.1-1 3.6-2.5 3.6s-2.5-1.5-2.5-3.6 1-3.6 2.5-3.6c1.5-.1 2.5 1.5 2.5 3.6zm-32.1 24.9c3 0 5.1-2.6 5.1-5.9s-2-5.8-5-5.8-5.1 2.6-5.1 5.9c-.1 3.3 1.9 5.8 5 5.8zm-2.5-5.9c0-2.1 1-3.6 2.5-3.6s2.5 1.6 2.5 3.6c0 2.1-1 3.6-2.5 3.6-1.5.1-2.5-1.5-2.5-3.6zm13.7-13.2c0-3.3-2-5.8-5-5.8s-5.1 2.6-5.1 5.9 2 5.8 5 5.8 5.1-2.6 5.1-5.9zm-2.6.1c0 2.1-1 3.6-2.5 3.6s-2.5-1.5-2.5-3.6 1-3.6 2.5-3.6c1.5-.1 2.5 1.5 2.5 3.6zm23.7 12.4c0 3.3 2 5.9 5 5.9s5.1-2.6 5.1-5.9-2-5.8-5-5.8c-3-.1-5.1 2.5-5.1 5.8zm7.6 0c0 2.1-1 3.6-2.5 3.6s-2.5-1.5-2.5-3.6 1-3.6 2.5-3.6 2.5 1.5 2.5 3.6zm5.8-22.9c0 3.3 2 5.9 5 5.9s5.1-2.6 5.1-5.9-2-5.8-5-5.8c-3-.1-5.1 2.5-5.1 5.8zm2.6 0c0-2.1 1-3.6 2.5-3.6s2.5 1.6 2.5 3.6c0 2.1-1 3.6-2.5 3.6s-2.5-1.5-2.5-3.6zm8.3 15.2c0-3.3-2-5.9-5-5.9s-5.1 2.6-5.1 5.9 2 5.8 5 5.8c3.1.1 5.1-2.5 5.1-5.8zm-7.5 0c0-2.1 1-3.6 2.5-3.6s2.5 1.6 2.5 3.6c0 2.1-1 3.6-2.5 3.6s-2.5-1.5-2.5-3.6zm4.2 16.7c0-3.3-2-5.9-5-5.9s-5.1 2.6-5.1 5.9 2 5.8 5 5.8c3.1 0 5.1-2.5 5.1-5.8zm-7.5 0c0-2.1 1-3.6 2.5-3.6s2.5 1.6 2.5 3.6c0 2.1-1 3.6-2.5 3.6s-2.5-1.6-2.5-3.6zm-5.9 18.2c3 0 5.1-2.6 5.1-5.9s-2-5.8-5-5.8-5.1 2.6-5.1 5.9 2 5.8 5 5.8zm-2.4-5.9c0-2.1 1-3.6 2.5-3.6s2.5 1.6 2.5 3.6c0 2.1-1 3.6-2.5 3.6-1.5.1-2.5-1.5-2.5-3.6zm-20-14.6c3 0 5.1-2.6 5.1-5.9s-2-5.8-5-5.8-5.1 2.6-5.1 5.9 2 5.8 5 5.8zm-2.4-5.9c0-2.1 1-3.6 2.5-3.6s2.5 1.6 2.5 3.6c0 2.1-1 3.6-2.5 3.6s-2.5-1.5-2.5-3.6zm6 21.9c3 0 5.1-2.6 5.1-5.9s-2-5.8-5-5.8-5.1 2.6-5.1 5.9 2 5.8 5 5.8zm-2.5-5.9c0-2.1 1-3.6 2.5-3.6s2.5 1.6 2.5 3.6c0 2.1-1 3.6-2.5 3.6-1.5.1-2.5-1.5-2.5-3.6zm55-101.9c0 3.3 2 5.8 5 5.8s5.1-2.6 5.1-5.9-2-5.8-5-5.8c-3.1 0-5.1 2.6-5.1 5.9zm2.6 0c0-2.1 1-3.6 2.5-3.6s2.5 1.6 2.5 3.6c0 2.1-1 3.6-2.5 3.6s-2.5-1.5-2.5-3.6zm-19.4 8.4c3 0 5.1-2.6 5.1-5.9s-2-5.8-5-5.8-5.1 2.6-5.1 5.9c-.1 3.3 1.9 5.8 5 5.8zm-2.5-5.9c0-2.1 1-3.6 2.5-3.6s2.5 1.6 2.5 3.6c0 2.1-1 3.6-2.5 3.6s-2.5-1.5-2.5-3.6zm29.4 7.7c0 3.3 2 5.8 5 5.8s5.1-2.6 5.1-5.9-2-5.8-5-5.8c-3.1-.1-5.1 2.5-5.1 5.9zm2.6-.1c0-2.1 1-3.6 2.5-3.6s2.5 1.6 2.5 3.6c0 2.1-1 3.6-2.5 3.6s-2.5-1.5-2.5-3.6zm-26.4 21.6c0 3.3 2 5.9 5 5.9s5.1-2.6 5.1-5.9-2-5.8-5-5.8c-3-.1-5.1 2.5-5.1 5.8zm7.6 0c0 2.1-1 3.6-2.5 3.6s-2.5-1.5-2.5-3.6 1-3.6 2.5-3.6 2.5 1.6 2.5 3.6zm-26.8-44.2c3 0 5.1-2.6 5.1-5.9s-2-5.8-5-5.8-5.1 2.6-5.1 5.9 2 5.8 5 5.8zm-2.4-5.9c0-2.1 1-3.6 2.5-3.6s2.5 1.6 2.5 3.6c0 2.1-1 3.6-2.5 3.6s-2.5-1.5-2.5-3.6zm-34.2 5.3c0 3.3 2 5.9 5 5.9s5.1-2.6 5.1-5.9-2-5.8-5-5.8c-3-.1-5.1 2.5-5.1 5.8zm7.6 0c0 2.1-1 3.6-2.5 3.6s-2.5-1.5-2.5-3.6 1-3.6 2.5-3.6 2.5 1.5 2.5 3.6zm9.6-1.5c3 0 5.1-2.6 5.1-5.9s-2-5.8-5-5.8-5.1 2.6-5.1 5.9 2 5.8 5 5.8zm-2.5-5.9c0-2.1 1-3.6 2.5-3.6s2.5 1.6 2.5 3.6c0 2.1-1 3.6-2.5 3.6s-2.5-1.5-2.5-3.6zm44.7 65.4c0-3.3-2-5.9-5-5.9s-5.1 2.6-5.1 5.9 2 5.8 5 5.8c3.1 0 5.1-2.5 5.1-5.8zm-2.5 0c0 2.1-1 3.6-2.5 3.6s-2.5-1.5-2.5-3.6 1-3.6 2.5-3.6c1.5-.1 2.5 1.5 2.5 3.6zm5.9 58.5c0 3.3 2 5.8 5 5.8s5.1-2.6 5.1-5.9-2-5.8-5-5.8c-3.1 0-5.1 2.6-5.1 5.9zm2.6 0c0-2.1 1-3.6 2.5-3.6s2.5 1.6 2.5 3.6c0 2.1-1 3.6-2.5 3.6-1.6 0-2.5-1.5-2.5-3.6zm21.7-5.1c3 0 5.1-2.6 5.1-5.9s-2-5.8-5-5.8-5.1 2.6-5.1 5.9 2 5.8 5 5.8zm-2.4-5.9c0-2.1 1-3.6 2.5-3.6s2.5 1.6 2.5 3.6c0 2.1-1 3.6-2.5 3.6s-2.5-1.5-2.5-3.6zm12.6-16c-3 0-5.1 2.6-5.1 5.9s2 5.8 5 5.8 5.1-2.6 5.1-5.9-2-5.8-5-5.8zm2.4 5.9c0 2.1-1 3.6-2.5 3.6s-2.5-1.5-2.5-3.6 1-3.6 2.5-3.6c1.5-.1 2.5 1.5 2.5 3.6zm5.3-27c3 0 5.1-2.6 5.1-5.9s-2-5.8-5-5.8-5.1 2.6-5.1 5.9 2 5.8 5 5.8zm-2.5-5.9c0-2.1 1-3.6 2.5-3.6s2.5 1.6 2.5 3.6c0 2.1-1 3.6-2.5 3.6s-2.5-1.5-2.5-3.6zm-3.4-12.9c0-3.3-2-5.9-5-5.9s-5.1 2.6-5.1 5.9 2 5.8 5 5.8c3.1.1 5.1-2.5 5.1-5.8zm-7.5 0c0-2.1 1-3.6 2.5-3.6s2.5 1.6 2.5 3.6c0 2.1-1 3.6-2.5 3.6s-2.5-1.5-2.5-3.6zm14-16.9c0 3.3 2 5.9 5 5.9s5.1-2.6 5.1-5.9-2-5.8-5-5.8c-3.1-.1-5.1 2.5-5.1 5.8zm2.5 0c0-2.1 1-3.6 2.5-3.6s2.5 1.6 2.5 3.6c0 2.1-1 3.6-2.5 3.6s-2.5-1.5-2.5-3.6zm-6.2 14.8c0 3.3 2 5.8 5 5.8s5.1-2.6 5.1-5.9-2-5.8-5-5.8c-3.1 0-5.1 2.5-5.1 5.9zm2.5-.1c0-2.1 1-3.6 2.5-3.6s2.5 1.6 2.5 3.6c0 2.1-1 3.6-2.5 3.6s-2.5-1.5-2.5-3.6zm-7.2-21.4c3 0 5.1-2.6 5.1-5.9s-2-5.8-5-5.8-5.1 2.6-5.1 5.9 2 5.8 5 5.8zm-2.4-5.9c0-2.1 1-3.6 2.5-3.6s2.5 1.6 2.5 3.6c0 2.1-1 3.6-2.5 3.6-1.6.1-2.5-1.5-2.5-3.6zm-2.6 50.2c0-3.3-2-5.8-5-5.8s-5.1 2.6-5.1 5.9 2 5.8 5 5.8c3.1 0 5.1-2.5 5.1-5.9zm-2.6.1c0 2.1-1 3.6-2.5 3.6s-2.5-1.5-2.5-3.6 1-3.6 2.5-3.6c1.5-.1 2.5 1.5 2.5 3.6zm-8-8.8c0-3.3-2-5.9-5-5.9s-5.1 2.6-5.1 5.9 2 5.8 5 5.8c3.1.1 5.1-2.5 5.1-5.8zm-2.6 0c0 2.1-1 3.6-2.5 3.6s-2.5-1.5-2.5-3.6 1-3.6 2.5-3.6 2.5 1.5 2.5 3.6zm6.3-24.3c0-3.3-2-5.9-5-5.9s-5.1 2.6-5.1 5.9 2 5.8 5 5.8c3 .1 5.1-2.5 5.1-5.8zm-7.6 0c0-2.1 1-3.6 2.5-3.6s2.5 1.6 2.5 3.6c0 2.1-1 3.6-2.5 3.6-1.5.1-2.5-1.5-2.5-3.6zm-83.2 19.5c0 3.3 2 5.9 5 5.9s5.1-2.6 5.1-5.9-2-5.8-5-5.8c-3.1 0-5.1 2.5-5.1 5.8zm2.5 0c0-2.1 1-3.6 2.5-3.6s2.5 1.6 2.5 3.6c0 2.1-1 3.6-2.5 3.6s-2.5-1.5-2.5-3.6zm-12.6 15.4c0 3.3 2 5.9 5 5.9s5.1-2.6 5.1-5.9-2-5.8-5-5.8c-3.1-.1-5.1 2.5-5.1 5.8zm2.5 0c0-2.1 1-3.6 2.5-3.6s2.5 1.6 2.5 3.6c0 2.1-1 3.6-2.5 3.6s-2.5-1.5-2.5-3.6zm20.8-16.5c0 3.3 2 5.9 5 5.9s5.1-2.6 5.1-5.9-2-5.8-5-5.8c-3.1-.1-5.1 2.5-5.1 5.8zm2.5 0c0-2.1 1-3.6 2.5-3.6s2.5 1.6 2.5 3.6c0 2.1-1 3.6-2.5 3.6s-2.5-1.5-2.5-3.6zm-4.4-35.2c-3 0-5.1 2.6-5.1 5.9s2 5.8 5 5.8 5.1-2.6 5.1-5.9-2-5.8-5-5.8zm2.5 5.9c0 2.1-1 3.6-2.5 3.6s-2.5-1.5-2.5-3.6 1-3.6 2.5-3.6c1.4-.1 2.5 1.5 2.5 3.6z"/><path d="M156.96 169.66a4.72229 4.72229 0 0 0-6.4-1.7c-40.3 23.2-91.9 9.6-115.1-30.3-23.1-39.8-9.1-91.1 31.2-114.3a4.68241 4.68241 0 1 0-4.7-8.1c-44.9 25.8-60.4 82.9-34.7 127.1a92.92184 92.92184 0 0 0 73.9 46v12.7h-27.5v9.8h63.3v-9.8h-26.3v-12.4a93.40967 93.40967 0 0 0 44.7-12.5 4.95575 4.95575 0 0 0 1.6-6.5z" class="cls-1"/></svg>