<svg xmlns="http://www.w3.org/2000/svg" role="img" viewBox="6.16 30.54 82.42 33.80"><title>OpenDataology logo</title><path fill="#810202" d="M20.10214 61.8449l.13159-.01.12967-.01648.1276-.02278.2483-.06384.23803-.08713.22649-.10911.21363-.12977.19945-.14916.184-.16722.16723-.18399.14915-.19947.12977-.21363.10912-.22648.08712-.23804.06384-.2483.02279-.1276.01647-.12967.01-.13156.00339-.13333V34.71757l-.00339-.13332-.01-.13158-.01647-.12967-.02279-.1276-.06384-.2483-.08712-.23803-.10912-.22649-.12977-.21363-.14915-.19945-.16722-.18401-.18401-.16722-.19945-.14915-.21363-.12977-.22649-.10912-.23804-.08712-.2483-.06384-.1276-.02279-.12966-.01648-.13159-.01-.13331-.00338h-9.51915l-.13333.00338-.13159.01-.12966.01648-.1276.02279-.2483.06384-.23804.08712-.22648.10912-.21363.12977-.19946.14915-.184.16722-.16723.184-.14915.19946-.12977.21363-.10911.22649-.08713.23804-.06384.2483-.02278.1276-.01648.12966-.01.13158-.00337.13332v24.53977l.00337.13333.01.13156.01648.12967.02278.1276.06384.2483.08713.23804.10911.22648.12977.21363.14915.19947.16722.184.18401.16721.19946.14916.21363.12977.22648.10911.23804.08713.2483.06384.1276.02278.12966.01648.13159.01.13333.00339h9.51915zm-4.9626-16.01777l-.15345-.00352-.15145-.00705-.14945-.01057-.14744-.01408-.14544-.01762-.14343-.02112-.14143-.02467-.13943-.02817-.1374-.0317-.13543-.03522-.13342-.03874-.1314-.04227-.12942-.04579-.12739-.0493-.1254-.05283-.06196-.02774-.06139-.0285-.12096-.05897-.11853-.06157-.1161-.06418-.1137-.06681-.11123-.0694-.10882-.07204-.1064-.07461-.10395-.07725-.10153-.07985-.09912-.08246-.09667-.0851-.09425-.08767-.09182-.0903-.08939-.09291-.08695-.09552-.04258-.04875-.04194-.04933-.08204-.10032-.07956-.1025-.07706-.10469-.07456-.10689-.07208-.10906-.0696-.11125-.0671-.11343-.0646-.11561-.06214-.11782-.05962-.12-.05714-.12217-.05465-.12436-.05217-.12656-.04967-.12874-.0472-.13091-.02266-.0663-.02198-.06669-.0419-.13426-.03912-.13542-.0363-.13658-.03353-.13772-.03073-.13887-.02793-.14003-.02513-.1412-.02235-.14234-.01956-.14349-.01677-.14466-.01395-.1458-.01118-.14694-.00838-.14812-.0056-.14925-.00277-.15043-.00037-.07564.00037-.07564.00278-.15041.0056-.14928.00837-.1481.01118-.14695.01395-.1458.01677-.14465.01956-.1435.02235-.14233.02513-.1412.02793-.14002.03073-.13888.03353-.13773.0363-.13656.03911-.13542.0419-.13427.022-.0667.02266-.06628.04719-.13093.04967-.12874.05217-.12654.05465-.12436.05714-.1222.05962-.11999.06214-.1178.0646-.11563.0671-.11343.0696-.11125.07208-.10907.07456-.10686.07706-.1047.07956-.10251.08204-.1003.04194-.04935.04258-.04873.08695-.09554.0894-.0929.09181-.0903.09425-.08769.09667-.08507.09912-.08246.10153-.07985.10394-.07725.1064-.07464.10883-.07202.11123-.0694.1137-.0668.1161-.06419.11853-.06158.12096-.05897.0614-.0285.06195-.02774.1254-.05282.1274-.04931.1294-.0458.13141-.04224.13342-.03875.13542-.03522.1374-.0317.13944-.02818.14143-.02465.14343-.02114.14544-.0176.14744-.0141.14945-.01057.15145-.00703.15345-.00352.07747-.00045.07747.00045.1534.00352.15133.00703.14926.01057.1472.0141.14514.0176.14306.02114.14101.02465.13893.02817.13689.03171.1348.03522.13274.03875.13069.04225.12861.04579.12656.04931.12449.05282.06146.02774.06092.0285.12005.05897.1177.06158.1153.06419.11296.0668.11058.0694.10821.07202.10583.07464.10349.07725.10111.07985.09874.08246.09636.08507.09402.0877.09163.0903.08927.0929.08688.09553.04256.04873.04196.04935.08205.1003.07954.10251.07707.1047.07457.10686.07208.10907.0696.11125.0671.11343.0646.11563.06213.1178.05962.12.05714.12219.05466.12436.05216.12654.04968.12874.04719.13093.02264.06627.022.06671.04191.13427.0391.13542.03632.13656.03352.13773.03073.13888.02793.14003.02513.14119.02236.14233.01955.1435.01675.14465.01398.1458.01117.14696.00838.1481.00558.14927.0028.15041.00034.07564-.00034.07564-.0028.15043-.00558.14925-.00838.14812-.01117.14694-.01398.1458-.01675.14466-.01955.1435-.02236.14234-.02513.14119-.02793.14003-.03073.13887-.03352.13772-.03631.13658-.0391.13542-.04191.13426-.022.0667-.02265.06629-.0472.13091-.04967.12874-.05216.12656-.05466.12436-.05714.12217-.05962.12-.06213.11782-.0646.1156-.0671.11344-.0696.11125-.07208.10906-.07457.10689-.07707.1047-.07954.10249-.08205.10032-.04196.04933-.04256.04875-.08688.09552-.08927.0929-.09163.09031-.09402.08768-.09636.08509-.09874.08246-.10111.07985-.10349.07725-.10583.07461-.10821.07203-.11058.0694-.11295.06682-.11532.06418-.1177.06157-.12004.05897-.06092.0285-.06146.02774-.12449.05283-.12656.0493-.12861.0458-.13069.04226-.13274.03874-.1348.03522-.13689.0317-.13893.02817-.14101.02467-.14306.02112-.14514.01762-.1472.01408-.14926.01057-.15133.00705-.1534.00352-.07747.00043zm.14525-.5907l.13414-.00328.13226-.00657.13038-.00984.1285-.01311.12662-.0164.12473-.01967.12284-.02296.12097-.02623.11908-.0295.1172-.0328.1153-.03607.11346-.03935.11155-.04263.10966-.04591.10779-.0492.05318-.02582.10492-.05358.20378-.11393.19578-.1229.18777-.1319.17974-.14088.17173-.14987.16371-.15886.1557-.16784.07485-.0873.07275-.08936.13895-.18435.13018-.1919.12147-.19942.1127-.20695.10395-.2145.09523-.222.08647-.22954.03995-.1176.03765-.11901.06802-.24096.0583-.24484.04857-.24873.03887-.25262.02915-.2565.01944-.2604.0097-.26427.00121-.13361-.0012-.13359-.00971-.26428-.01944-.26039-.02915-.2565-.03887-.25262-.04857-.24873-.0583-.24484-.06802-.24096-.03765-.11903-.03995-.1176-.08647-.22954-.09523-.222-.10395-.21449-.1127-.20694-.12147-.19944-.13018-.19188-.13895-.18438-.07275-.08935-.07485-.08728-.1557-.16786-.1637-.15886-.17174-.14986-.17974-.14088-.18777-.1319-.19578-.1229-.20378-.11392-.10492-.0536-.05318-.02582-.10779-.04918-.10966-.04591-.11155-.04263-.11345-.03935-.11532-.03608-.1172-.03279-.11907-.02952-.12097-.02622-.12284-.02295-.12473-.01968-.12663-.0164-.1285-.01312-.13037-.00984-.13226-.00655-.13414-.00328-.06778-.00042-.06778.00042-.1342.00328-.13237.00655-.13057.00984-.12874.01311-.12692.01641-.12509.01968-.12328.02295-.12144.02622-.11963.02952-.1178.03279-.116.03608-.11415.03935-.11235.04263-.11053.0459-.1087.04919-.05366.02582-.10583.0536-.2055.11391-.19724.12292-.18898.1319-.18071.14087-.17246.14986-.16421.15886-.15594.16786-.07488.08728-.07274.08935-.13894.18438-.1302.19188-.12145.19944-.1127.20694-.10398.21448-.0952.22201-.08647.22954-.03997.1176-.03764.11903-.06802.24096-.0583.24484-.04857.24873-.03886.25262-.02916.2565-.01943.2604-.00971.26427-.00123.13359.00123.1336.0097.26428.01944.2604.02916.2565.03886.25262.04857.24873.0583.24484.06802.24096.03764.11901.03997.1176.08647.22954.0952.222.10397.2145.1127.20695.12145.19942.1302.1919.13895.18435.07274.08936.07488.0873.15594.16784.16421.15886.17246.14987.1807.14088.18899.1319.19724.1229.2055.11393.10583.05358.05367.02582.1087.0492.11052.0459.11235.04264.11416.03935.11598.03606.1178.0328.11964.0295.12144.02624.12328.02296.1251.01967.12691.0164.12874.0131.13057.00985.13238.00657.1342.00328.06777.0004zm-4.45944 14.5391V48.6759h3.6377l.09278.00045.1826.00364.17865.00729.17472.01093.17076.01456.1668.01823.16287.02186.15891.0255.15498.02916.15103.03278.14708.03643.14313.04009.13918.04372.13523.04736.1313.051.12733.05466.06218.0287.06132.02946.1203.06071.11719.06315.1141.06559.11102.06802.1079.07044.10482.07287.10172.0753.0986.07772.09553.08017.09242.08258.08934.08502.08623.08743.08313.08988.08003.0923.07695.09475.0373.04827.03658.04878.0711.09887.0684.10057.06563.10225.0629.10397.06019.10566.05745.10737.0547.10906.052.11075.04924.11247.04651.11415.0438.11587.04103.11756.03833.11927.03558.12096.03286.12268.01539.06197.02919.12461.0527.25067.04518.25261.03766.25457.0301.2565.0226.25845.01506.26039.00753.26234.00094.1319-.00118.14704-.00948.29026-.01893.28517-.02843.28007-.0379.27495-.04736.26987-.05683.26476-.06631.25967-.03673.12792-.01926.06338-.0405.12514-.04311.12304-.04574.12089-.04833.11879-.05096.11666-.05354.11452-.05618.1124-.0588.11028-.06138.10815-.064.10602-.06662.10391-.06923.10178-.07184.09964-.07445.09753-.07705.0954-.03952.0469-.04016.04634-.08227.09076-.0849.0883-.0875.08582-.09012.0833-.09274.08082-.09533.07835-.09795.07585-.10056.07334-.10318.07087-.10578.06839-.1084.06588-.111.0634-.11362.06091-.11623.05842-.11884.05593-.0604.02703-.06108.02629-.1243.0501-.12716.04677-.13001.0434-.13287.0401-.13573.03673-.13856.0334-.14143.03005-.14428.02672-.14715.02339-.14998.02003-.15285.0167-.1557.01336-.15855.01002-.16142.00668-.16426.00333-.0832.00044zm3.76598-.5917l.19456-.00752.1948-.01506.19507-.0226.1953-.0301.19552-.03766.19577-.04518.19604-.0527.09809-.02918.09756-.0314.19166-.07044.18703-.08065.18242-.09084.1778-.10104.17319-.11126.16856-.12145.16398-.13165.08023-.06965.0396-.03585.0778-.07397.0759-.07698.07403-.08005.07214-.08306.07026-.08612.06837-.08913.0665-.09219.06462-.09523.06272-.09824.06085-.1013.05897-.10432.05707-.10737.0552-.1104.05333-.11342.05142-.11648.025-.05936.0244-.06025.04646-.12333.04336-.12715.04026-.131.03716-.1348.03408-.13865.03097-.14245.02786-.14628.02478-.15012.02168-.15394.01859-.15777.01547-.16159.01239-.1654.0093-.16924.0062-.17308.00308-.1769.00038-.08986-.00088-.14059-.00703-.27352-.0141-.26329-.02112-.2531-.02819-.24291-.03522-.2327-.04226-.2225-.0493-.2123-.0273-.1023-.02872-.10005-.06073-.19408-.0651-.18607-.06947-.17805-.07384-.17003-.07822-.16202-.08258-.154-.08695-.14598-.04513-.06998-.04609-.06807-.09472-.13069-.09815-.1234-.10153-.1161-.10493-.10882-.10834-.10153-.11172-.09425-.11514-.08695-.05885-.04074-.05939-.03927-.1195-.07506-.12049-.07044-.12144-.06583-.12242-.0612-.1234-.0566-.12436-.05198-.12534-.04738-.06304-.02193-.06315-.02094-.1263-.0391-.12632-.03547-.1263-.03181-.12632-.02818-.1263-.02454-.12631-.02088-.1263-.01724-.06317-.00726-.12473-.01276-.23997-.0204-.22737-.01361-.21472-.0068-.10264-.00084h-2.84486v9.91816h2.98478z"/><path fill="#423c09" d="M23.84546 54.2105q.04664-.77729.38864-1.2903.342-.513.87056-.82392.52856-.31091 1.18925-.44305.6607-.13214 1.32916-.13214.60628 0 1.2281.0855.62183.0855 1.13484.33424.51301.24873.83947.69178.32646.44305.32646 1.1737v4.1818q0 .5441.06218 1.04155.06219.49747.21764.7462h-2.23858q-.06218-.18655-.10105-.38087-.03886-.19432-.0544-.39642-.52856.5441-1.24366.76174-.7151.21764-1.4613.21764-.57519 0-1.07265-.1399-.49746-.13992-.87056-.43529t-.58296-.7462q-.20987-.45082-.20987-1.07265 0-.684.24096-1.12706.24096-.44305.62183-.70733.38087-.26427.87056-.39641.48969-.13214.98715-.20987.49746-.07773.97938-.12437.48191-.04663.85501-.1399.3731-.09328.59074-.27206.21764-.17877.2021-.52078 0-.35755-.1166-.56742-.1166-.20986-.31092-.32646-.19432-.11659-.45082-.15545-.2565-.03887-.55187-.03887-.65292 0-1.02602.27983-.3731.27982-.43528.93274zm5.099 1.6323q-.13992.12436-.34979.19432-.20986.06995-.45082.11659t-.50524.07773q-.26427.03109-.52855.07773-.24873.04663-.4897.12436-.24095.07773-.41973.20987-.17877.13214-.2876.33423-.10881.2021-.10881.51301 0 .29537.10882.49746.10882.2021.29537.31869.18655.1166.43528.16323.24873.04664.513.04664.65292 0 1.01048-.21764.35755-.21764.52855-.52078.171-.30315.20987-.61406.03886-.31091.03886-.49746zm6.71573-4.10407v-2.40958H33.4527v2.40958h-1.33693v1.47684h1.33693v4.74144q0 .60628.2021.97938t.55187.5752q.34978.20209.80838.27204.4586.06996.9716.06996.32646 0 .66847-.01555.342-.01554.62183-.06218v-1.71003q-.15546.0311-.32646.04664-.171.01554-.35755.01554-.55965 0-.7462-.18654-.18655-.18655-.18655-.7462v-3.9797h1.61676v-1.47684zm2.58059 2.47177q.04664-.77729.38864-1.2903.342-.513.87056-.82392.52855-.31091 1.18925-.44305.66069-.13214 1.32915-.13214.60629 0 1.22811.0855.62183.0855 1.13484.33424.513.24873.83947.69178.32646.44305.32646 1.1737v4.1818q0 .5441.06218 1.04155.06218.49747.21764.7462H43.5885q-.06218-.18655-.10105-.38087-.03886-.19432-.0544-.39642-.52856.5441-1.24366.76174-.7151.21764-1.4613.21764-.57519 0-1.07265-.1399-.49746-.13992-.87056-.43529t-.58296-.7462q-.20987-.45082-.20987-1.07265 0-.684.24096-1.12706.24095-.44305.62182-.70733.38087-.26427.87056-.39641.4897-.13214.98716-.20987t.97937-.12437q.48192-.04663.85502-.1399.3731-.09328.59073-.27206.21764-.17877.2021-.52078 0-.35755-.1166-.56742-.11659-.20986-.3109-.32646-.19433-.11659-.45083-.15545-.2565-.03887-.55188-.03887-.65291 0-1.02601.27983-.3731.27982-.43528.93274zm5.09899 1.6323q-.13991.12436-.34978.19432-.20987.06995-.45082.11659-.24096.04664-.50524.07773-.26428.03109-.52855.07773-.24873.04663-.4897.12436-.24095.07773-.41973.20987-.17877.13214-.2876.33423-.10881.2021-.10881.51301 0 .29537.10882.49746.10882.2021.29537.31869.18654.1166.43528.16323.24873.04664.513.04664.65292 0 1.01047-.21764.35756-.21764.52856-.52078.171-.30315.20986-.61406.03887-.31091.03887-.49746zm5.87627-.07773q0-.48192.09328-.94829.09327-.46637.31868-.82392.22542-.35755.59851-.58297.3731-.2254.93275-.2254.55964 0 .94051.2254.38087.22542.60628.58297.22542.35755.31869.82392.09327.46637.09327.94829 0 .48191-.09327.94051-.09327.4586-.31869.82392-.2254.36533-.60628.58297-.38087.21764-.94051.21764-.55965 0-.93275-.21764t-.5985-.58297q-.22542-.36532-.3187-.82392-.09327-.4586-.09327-.94051zm-2.20749 0q0 .96383.29537 1.74112.29537.77728.83947 1.32915.5441.55188 1.30584.84724.76174.29537 1.71003.29537.94828 0 1.7178-.29537.7695-.29536 1.3136-.84724.5441-.55187.83948-1.32915.29536-.77729.29536-1.74112 0-.96384-.29536-1.7489-.29537-.78505-.83947-1.33692-.5441-.55188-1.31361-.85502-.76952-.30314-1.7178-.30314-.9483 0-1.71003.30314-.76174.30314-1.30584.85502-.5441.55187-.83947 1.33693-.29537.78505-.29537 1.74889zm9.80934-7.08884v11.09963h2.20749V48.67623zm5.90737 7.08884q0-.48192.09327-.94829.09328-.46637.31869-.82392.22541-.35755.5985-.58297.3731-.2254.93275-.2254.55964 0 .94051.2254.38087.22542.60629.58297.2254.35755.31868.82392.09328.46637.09328.94829 0 .48191-.09328.94051-.09327.4586-.31868.82392-.22542.36533-.60629.58297t-.94051.21764q-.55965 0-.93274-.21764-.3731-.21764-.59851-.58297-.22541-.36532-.31869-.82392-.09327-.4586-.09327-.94051zm-2.2075 0q0 .96383.29538 1.74112.29536.77728.83946 1.32915.5441.55188 1.30584.84724.76174.29537 1.71003.29537t1.7178-.29537q.76951-.29536 1.31361-.84724.5441-.55187.83947-1.32915.29537-.77729.29537-1.74112 0-.96384-.29537-1.7489-.29537-.78505-.83947-1.33692-.5441-.55188-1.31361-.85502-.76951-.30314-1.7178-.30314t-1.71003.30314q-.76174.30314-1.30584.85502-.5441.55187-.83946 1.33693-.29537.78505-.29537 1.74889zm13.49368 2.11421q-.51301 0-.85502-.21764-.342-.21764-.55187-.55964-.20987-.342-.29537-.76951-.0855-.42751-.0855-.86279 0-.45083.10105-.86279.10104-.41196.32646-.73064.2254-.3187.55964-.50524.33423-.18655.8006-.18655.5441 0 .90166.2021.35755.20209.57519.5441.21764.342.31091.78505.09327.44306.09327.94052 0 .43528-.11659.8317-.1166.3964-.34978.70732t-.59073.49746q-.35755.18655-.82392.18655zm3.9797 1.38357v-7.52412h-2.09868v1.07265h-.03109q-.40418-.69955-1.0027-.99492-.5985-.29537-1.39133-.29537-.83947 0-1.48462.32646t-1.08042.87833q-.43528.55188-.6607 1.27475-.22541.72288-.22541 1.50016 0 .82392.19432 1.56234.19432.73842.61406 1.2903.41973.55187 1.07265.87056.65292.31868 1.55457.31868.73065 0 1.39134-.30314.6607-.30314 1.01824-.94051h.0311v1.0571q.01554.85502-.41197 1.41466-.4275.55965-1.36025.55965-.59073 0-1.04156-.24096-.45082-.24096-.60628-.86279h-2.19194q.04663.68401.38087 1.1737.33423.4897.83946.8006.50524.31092 1.1193.4586.61405.14769 1.20479.14769 1.38356 0 2.20749-.3731.82392-.3731 1.2592-.90942.43528-.53633.56742-1.15815.13213-.62183.13213-1.10375zm5.73636 1.50793l3.35787-9.03205h-2.28522l-1.75666 5.50318h-.0311l-1.81884-5.50318h-2.3474l2.81377 7.53967q.09327.23318.09327.49746 0 .35755-.20986.65292-.20987.29537-.64515.342-.32646.01555-.65292-.01554-.32646-.0311-.63737-.06219v1.81885q.342.0311.67624.05441.33423.02332.67623.02332 1.13484 0 1.77221-.41973.63738-.41974.99493-1.39912z"/><path fill="#423c09" d="M27.65416 44.11775q-.52856 0-.90165-.21764-.3731-.21764-.59851-.56742-.22542-.34978-.32646-.81615-.10105-.46637-.10105-.94829 0-.49746.09328-.96383.09327-.46637.31868-.82392t.59074-.58297q.36532-.2254.90942-.2254.52856 0 .89388.2254.36532.22542.5985.59074.2332.36532.33424.8317.10105.46637.10105.94828 0 .48192-.09328.9483-.09327.46636-.31868.81614t-.59074.56742q-.36532.21764-.90942.21764zm-4.05743-6.59138v10.8509h2.20749v-3.8087h.0311q.40418.59074 1.03378.89388.6296.30314 1.3758.30314.8861 0 1.5468-.342.66068-.342 1.10374-.9172.44305-.57519.66069-1.32138.21764-.7462.21764-1.55457 0-.85502-.21764-1.64008-.21764-.78505-.66847-1.37579-.45082-.59074-1.13483-.94829-.68401-.35755-1.6323-.35755-.7462 0-1.36802.29537-.62183.29537-1.02602.94829h-.03109v-1.02602zm14.90833 3.15578H34.914q.01555-.23319.10105-.52856.0855-.29536.29536-.55964.20987-.26428.55965-.44305.34978-.17878.87833-.17878.80838 0 1.2048.43528.3964.43528.55187 1.27475zM34.914 42.08126h5.79855q.06218-.93274-.15546-1.78775-.21764-.85502-.70733-1.52348-.48969-.66847-1.25143-1.06488-.76174-.39642-1.78776-.39642-.9172 0-1.67116.32646t-1.29806.89388q-.5441.56742-.83947 1.3447-.29537.77729-.29537 1.67894 0 .93274.2876 1.71002.2876.77729.81614 1.33693.52856.55965 1.2903.8628.76174.30313 1.71002.30313 1.36803 0 2.33186-.62183.96383-.62182 1.4302-2.06757h-1.9432q-.10883.3731-.59074.70733-.48192.33423-1.15039.33423-.93274 0-1.4302-.48192-.49746-.48192-.5441-1.55457zm7.10438-4.55489v8.03713h2.2075V41.3506q0-1.2281.40418-1.76443.40419-.53633 1.30584-.53633.79283 0 1.10375.48969.31091.48969.31091 1.48461v4.53935h2.20749v-4.94353q0-.7462-.13214-1.36025-.13214-.61406-.4586-1.04156-.32646-.42751-.89388-.66847-.56741-.24096-1.45352-.24096-.69955 0-1.36802.31869-.66846.31869-1.0882 1.01824h-.04664v-1.11929z"/></svg>