<svg xmlns="http://www.w3.org/2000/svg" role="img" viewBox="-15.47 70.53 830.44 658.44"><title>Open Platform for Enterprise AI (OPEA) logo</title><style>svg {enable-background:new 0 0 800 800}</style><style>.st0{fill:#ff6900}.st1{fill:#ffb500}</style><linearGradient id="SVGID_1_" x1="-2460" x2="-2460" y1="0" y2="-1" gradientUnits="userSpaceOnUse"><stop offset="0" stop-color="#656565"/><stop offset=".618" stop-color="#1b1b1b"/><stop offset=".629" stop-color="#545454"/><stop offset=".983" stop-color="#3e3e3e"/></linearGradient><path d="M410.8 86.5l158 85.1-61 33.2-158-85z" class="st0"/><path d="M555.1 280.6l13.7 7.4-61 33.3-21-11.3v-14.9l18.7 10.1c.7.4 1.5.6 2.3.6.8 0 1.6-.2 2.3-.6l45-24.6zm-70.7 54.9c-.1 0-.1-.1-.2-.1l-16-8.6 14.6-8 20.1 10.8v79.5l-16.2-8.7v-60.8c.1-1.6-.8-3.2-2.3-4.1zM415.7 265l61.4-33.6v79.5l-61.4 33.6z" class="st1"/><path d="M344.5 127.9L503 213.2v79.5l-16.2-8.7v-60.8c0-1.7-.9-3.3-2.4-4.2-.1 0-.1-.1-.2-.1l-139.7-75.2v-15.8z" class="st0"/><path d="M313.8 138.2l158 85.1-61 33.3-158-85.1zm-66.3 121v-79.5L406 265v79.5l-137.2-73.8z" class="st1"/><path d="M266.5 280.4l142 76.5c.7.4 1.5.6 2.3.6.8 0 1.6-.2 2.3-.6l45-24.5 13.7 7.4-61 33.3-158-85.1 13.7-7.6zm-19 15.7L406 381.4v79.5l-158.5-85.3zm229.6 131.3l-61.4 33.5v-79.5l61.4-33.5z" class="st0"/><path d="M574.1 375.6l-61.4 33.5v-79.5l61.4-33.5z" class="st1"/><path d="M574.1 259.2l-61.4 33.5v-79.5l61.4-33.5z" class="st0"/><g><path d="M13.2 515.6c7.9-7.9 17.5-11.8 29-11.8s21.1 3.9 28.8 11.8c7.9 7.8 11.8 17.3 11.8 28.5 0 11.3-3.9 20.7-11.7 28.5-7.8 7.7-17.5 11.6-29.1 11.6-11.6 0-21.3-3.9-29-11.6-7.6-7.6-11.4-17.1-11.4-28.3 0-11.3 3.8-20.9 11.6-28.7zm45.1 45c4.3-4.4 6.5-9.9 6.4-16.4-.1-6.6-2.3-12.2-6.6-16.5-4.3-4.4-9.7-6.6-15.9-6.6-6.3 0-11.7 2.2-16 6.6-4.3 4.4-6.5 9.9-6.5 16.5 0 6.5 2.2 12 6.5 16.4 4.3 4.3 9.7 6.5 16 6.5 6.4 0 11.8-2.2 16.1-6.5zm88.6-27.9c5.4 5.8 8 12.9 8 21.4 0 8.5-2.7 15.7-8.1 21.6-5.4 5.9-12.1 8.8-20.2 8.8-6.8 0-12.6-2.4-17.4-7.4v29.7H92.7v-81.5H109v6.4c4.7-5.3 10.6-7.9 17.6-7.9 8.2.1 15 3 20.3 8.9zm-12.8 10.8c-2.7-2.9-6.2-4.4-10.5-4.4-4.2 0-7.7 1.5-10.4 4.4-2.7 2.8-4.1 6.4-4.1 10.6 0 8.5 6 15.2 14.5 15.2s14.6-6.6 14.6-15.2c0-4.1-1.4-7.7-4.1-10.6zm86.9 16.3h-42.4c2 7.3 7.3 10.8 15.7 10.8 6.5 0 12.5-1.9 18-5.6l6.5 11.3c-7.1 5.4-15.5 8-25.3 8-10.2 0-18-3-23.5-8.7-5.4-5.8-8.1-12.9-8.1-21.5 0-8.7 2.8-15.9 8.4-21.6 5.6-5.8 13-8.6 22-8.6 8.5 0 15.5 2.6 21 7.8 5.5 5.2 8.2 12.2 8.2 21.2.1 1.9-.2 4.2-.5 6.9zM178.5 548h27.2c-1.6-6.6-6.4-10.7-13.3-10.7-6.7-.1-12.1 3.9-13.9 10.7zm52.7 35v-57.7h16.1v8c3.1-5.5 9.9-9.6 18.2-9.6 6.2 0 11.6 2.1 15.9 6.2 4.3 4.1 6.5 10.1 6.5 17.8V583h-16.5v-31c0-8.4-4.4-13.2-11.3-13.2-7.5 0-12.4 5.5-12.4 13.6V583h-16.5zm126.3-77.8c9.5 0 16.5 2.5 21.2 7.6 4.7 5.1 7.1 11.3 7.1 18.7 0 7.5-2.4 13.6-7.3 18.4-4.8 4.8-12.2 7.3-22.2 7.3h-11.2V583h-17.4v-77.8h29.8zm-.6 36.3c7.2 0 11.1-4.6 11.1-10.2s-4-10.1-10.3-10.1h-12.5v20.3h11.7zm53.9 41.5h-16.5v-80.1h16.5V583zm56-57.7h15.6V583h-15.6v-5.9c-4.9 4.9-10.8 7.4-17.8 7.4-8.2 0-15.1-3-20.4-8.7-5.4-5.9-8-13.2-8-21.9 0-8.6 2.7-15.8 8.1-21.5 5.4-5.7 12.2-8.5 20.3-8.5 6.9 0 12.8 2.5 17.8 7.6v-6.2zM441.2 565c2.8 2.9 6.3 4.4 10.6 4.4s7.8-1.5 10.6-4.5c2.8-3.1 4.3-6.6 4.3-10.8 0-4.2-1.5-7.8-4.3-10.7-2.8-2.9-6.3-4.4-10.6-4.4s-7.8 1.5-10.6 4.4c-2.7 2.9-4.1 6.5-4.1 10.7 0 4.3 1.4 7.9 4.1 10.9zm97.1 14.8c-4.9 3.2-10.8 4.7-17.7 4.7-13.8 0-20.6-7.8-20.6-23.3V539h-9.2v-13.7h9.3v-20.4h16.4v20.4H535V539h-18.5v20.6c0 6.5 2.5 9.8 7.7 9.8 2.6 0 5.8-.9 9.5-2.8l4.6 13.2zm28.3-55.9v1.5h17.8V539h-17.8v44h-16.4v-44h-8.5v-13.7h8.5v-1.9c0-7.7 2.2-13.5 6.6-17.5 4.5-4 10.3-6 17.4-6 5.9 0 11.8 1.6 17.6 4.6l-5.4 12.5c-3.9-1.8-7.2-2.6-9.7-2.6-6.4.1-10.1 3.5-10.1 9.5zm29.2 52c-5.8-5.9-8.6-13.2-8.6-21.7s2.8-15.8 8.6-21.6c5.8-5.9 13.3-8.8 22.4-8.8s16.7 2.9 22.5 8.8c5.8 5.8 8.7 13.1 8.7 21.6 0 8.5-3 15.8-8.7 21.7-5.8 5.8-13.4 8.7-22.5 8.7s-16.6-2.9-22.4-8.7zm32.9-32.4c-2.8-2.9-6.3-4.4-10.4-4.4-4.1 0-7.6 1.5-10.4 4.4-2.8 2.8-4.2 6.4-4.2 10.5 0 4.3 1.4 7.9 4.2 10.8 2.8 2.8 6.3 4.3 10.4 4.3 4.1 0 7.6-1.5 10.4-4.3 2.8-2.9 4.3-6.5 4.3-10.8 0-4-1.5-7.6-4.3-10.5zm30.5 39.5v-57.7H675v7.5c3.7-6 8.8-9.1 15.7-9.1 2.2 0 4.5.4 7.2 1.4l-1.4 15.8c-2.4-.8-4.8-1.3-7.3-1.3-8.1 0-13.5 5.3-13.5 17.1V583h-16.5zm133.3-52.9c4.5 4.2 6.7 10.2 6.7 17.9v35h-16.5v-31.9c0-8-4.3-12.2-10.6-12.2-6.8 0-11.8 4.8-11.8 12.7V583h-16.5v-31.8c0-7.7-4.4-12.3-10.8-12.3-6.7 0-11.7 4.8-11.7 12.8V583h-16.5v-57.7h16.1v8.2c3.3-6.2 10.3-9.9 17.8-9.8 7.1 0 13.5 3.2 16.5 9.8 4.3-6.3 12.1-9.8 20.4-9.8 6.8.1 12.4 2.2 16.9 6.4zm-768.7 107v1.4h16.4V651H23.8v40.5H8.6V651H.8v-12.6h7.9v-1.7c0-7.1 2-12.4 6.1-16.1 4.2-3.7 9.5-5.5 16-5.5 5.4 0 10.9 1.5 16.2 4.3l-5 11.5c-3.6-1.7-6.6-2.4-8.9-2.4-5.9-.1-9.3 3-9.3 8.6zM50.7 685c-5.3-5.4-8-12.1-8-20s2.6-14.6 8-19.9c5.3-5.4 12.2-8.1 20.7-8.1s15.4 2.7 20.8 8.1c5.3 5.3 8.1 12 8.1 19.9 0 7.9-2.7 14.5-8.1 20-5.3 5.3-12.3 8.1-20.8 8.1s-15.3-2.8-20.7-8.1zM81 655.2c-2.6-2.7-5.8-4.1-9.6-4.1s-7 1.4-9.6 4.1c-2.6 2.6-3.9 5.9-3.9 9.7 0 4 1.3 7.3 3.9 10 2.6 2.6 5.8 4 9.6 4s7-1.4 9.6-4c2.6-2.7 4-6 4-10 0-3.8-1.4-7.1-4-9.7zm28.1 36.4v-53.2h14.6v6.9c3.4-5.5 8.1-8.3 14.5-8.3 2 0 4.2.4 6.6 1.3l-1.3 14.5c-2.2-.8-4.5-1.2-6.7-1.2-7.5 0-12.4 4.8-12.4 15.7v24.3h-15.3zm65.1 0v-71.7h50.1v14.9h-34v13.3h31.4V663h-31.4v13.7h33.9v14.9h-50zm60.7 0v-53.2h14.8v7.4c2.8-5 9.1-8.8 16.8-8.8 5.7 0 10.7 1.9 14.6 5.7 4 3.8 6 9.3 6 16.4v32.5h-15.2v-28.5c0-7.8-4.1-12.1-10.4-12.1-6.9 0-11.4 5-11.4 12.5v28.1h-15.2zm102.4-3c-4.6 2.9-10 4.4-16.3 4.4-12.7 0-19-7.2-19-21.4V651h-8.4v-12.6h8.5v-18.8h15.1v18.8h17.1V651h-17.1v19c0 6 2.3 9 7.1 9 2.4 0 5.3-.9 8.7-2.6l4.3 12.2zm57.2-18.5h-39.1c1.8 6.7 6.7 10 14.5 10 6 0 11.5-1.7 16.6-5.1l6 10.4c-6.5 4.9-14.3 7.4-23.3 7.4-9.4 0-16.6-2.7-21.6-8.1-4.9-5.3-7.5-11.9-7.5-19.8 0-8.1 2.6-14.6 7.8-19.9 5.1-5.3 11.9-8 20.3-8 7.9 0 14.3 2.4 19.3 7.2 5 4.8 7.6 11.3 7.6 19.5-.1 1.9-.3 4-.6 6.4zm-39.2-10.8h25c-1.5-6.1-5.9-9.9-12.2-9.9-6.2 0-11.1 3.7-12.8 9.9zm48.6 32.3v-53.2h14.6v6.9c3.4-5.5 8.1-8.3 14.5-8.3 2 0 4.2.4 6.6 1.3l-1.3 14.5c-2.2-.8-4.5-1.2-6.7-1.2-7.5 0-12.4 4.8-12.4 15.7v24.3h-15.3zm91.9-46.4c4.9 5.3 7.4 11.9 7.4 19.7 0 7.9-2.5 14.5-7.5 19.9-4.9 5.4-11.2 8.1-18.6 8.1-6.3 0-11.6-2.2-16-6.8v27.4h-15.2v-75.1h15v5.9c4.4-4.8 9.8-7.3 16.2-7.3 7.5.1 13.7 2.8 18.7 8.2zm-11.9 10c-2.5-2.7-5.7-4.1-9.7-4.1-3.9 0-7.1 1.4-9.6 4.1-2.5 2.6-3.8 5.9-3.8 9.8 0 7.9 5.5 14 13.4 14s13.5-6.1 13.5-14c0-3.9-1.2-7.2-3.8-9.8zm28.3 36.4v-53.2h14.6v6.9c3.4-5.5 8.1-8.3 14.5-8.3 2 0 4.2.4 6.6 1.3l-1.3 14.5c-2.2-.8-4.5-1.2-6.7-1.2-7.5 0-12.4 4.8-12.4 15.7v24.3h-15.3zM553 624c0-5.1 4-9 9.1-9 5 0 9 3.9 9 9s-4 9-9 9c-5.1 0-9.1-3.9-9.1-9zm16.6 67.6h-15.2v-53.2h15.2v53.2zm7.5-8.4l7.5-9.9c4.6 4.7 9.6 7 15.2 7 3.8 0 6.5-1.7 6.5-4.3 0-1.6-1.1-2.8-3.3-3.9-.8-.4-2.9-1.2-6.3-2.3-3.4-1.3-5.7-2.1-6.9-2.7-6.3-3-9.5-7.8-9.5-14.1 0-4.8 1.8-8.8 5.6-11.8s8.8-4.6 15.1-4.6c7.7 0 14.1 2.4 19.2 7.4l-7.1 9.9c-4-3.3-8.1-4.9-12.4-4.9-3.4 0-5.5 1.6-5.5 3.8 0 1.9 1.6 3.4 4.8 4.5 5.7 1.8 9.9 3.4 12.6 4.9 6 3.2 9 7.7 9 13.6 0 4.9-2 9.1-6 12.4-4 3.3-9.2 4.9-15.8 4.9-9.4-.1-16.9-3.4-22.7-9.9zm105.1-13.1h-39.1c1.8 6.7 6.7 10 14.5 10 6 0 11.5-1.7 16.6-5.1l6 10.4c-6.5 4.9-14.3 7.4-23.3 7.4-9.4 0-16.6-2.7-21.6-8.1-4.9-5.3-7.5-11.9-7.5-19.8 0-8.1 2.6-14.6 7.8-19.9 5.1-5.3 11.9-8 20.3-8 7.9 0 14.3 2.4 19.3 7.2 5 4.8 7.6 11.3 7.6 19.5-.1 1.9-.3 4-.6 6.4zM643 659.3h25c-1.5-6.1-5.9-9.9-12.2-9.9-6.2 0-11.2 3.7-12.8 9.9zm115.2 32.3l-4.7-14.5h-24.1l-4.9 14.5h-16.7l26.9-71.7h14l26.3 71.7h-16.8zm-16.7-51.2l-7.8 22.7h15.4l-7.6-22.7zm41.6-20.5h16.1v71.7h-16.1v-71.7z"/></g></svg>