<svg xmlns="http://www.w3.org/2000/svg" role="img" viewBox="-6.69 -7.19 659.88 188.88"><title>OpenNLP logo</title><defs><style>.cls-1{fill:none}.cls-2{fill:#be2043}.cls-3{fill:#f59523}.cls-4{fill:#e56b28}.cls-5{fill:#832778}.cls-6{fill:#282662}.cls-67{fill:#662e8d}.cls-81{fill:#742b83}.cls-82{fill:#752a82}.cls-83{fill:#762a81}.cls-84{fill:#772a81}.cls-85{fill:#782a80}.cls-86{fill:#79297f}.cls-87{fill:#7a297e}.cls-88{fill:#7b297e}.cls-89{fill:#7c297d}.cls-90{fill:#7d287c}.cls-91{fill:#7e287b}.cls-92{fill:#7f287b}.cls-93{fill:#80287a}.cls-94{fill:#812779}.cls-95{fill:#832779}.cls-96{fill:#842778}.cls-97{fill:#852777}.cls-98{fill:#862676}.cls-99{fill:#872676}.cls-100{fill:#882675}.cls-101{fill:#892674}.cls-102{fill:#8a2573}.cls-103{fill:#8b2573}.cls-104{fill:#8c2572}.cls-105{fill:#8d2571}.cls-106{fill:#8e2470}.cls-107{fill:#8f2470}.cls-108{fill:#90246f}.cls-109{fill:#91246e}.cls-110{fill:#92236e}.cls-111{fill:#f69923}.cls-112{fill:#f79a23}.cls-129{fill:#d12e33}.cls-130{fill:#d12f33}.cls-131{fill:#d13033}.cls-132{fill:#d23133}.cls-133{fill:#d23232}.cls-134{fill:#d23332}.cls-135{fill:#d33432}.cls-136{fill:#d33532}.cls-137{fill:#d33632}.cls-138{fill:#d43731}.cls-139{fill:#d43831}.cls-140{fill:#d43931}.cls-141{fill:#d53a31}.cls-142{fill:#d53b31}.cls-143{fill:#d53c31}.cls-144{fill:#d63d30}.cls-145{fill:#d63e30}.cls-146{fill:#d63f30}.cls-147{fill:#d74030}.cls-148{fill:#d74130}.cls-149{fill:#d7422f}.cls-150{fill:#d8432f}.cls-151{fill:#d8442f}.cls-152{fill:#d8452f}.cls-153{fill:#d9462f}.cls-154{fill:#d9472f}.cls-155{fill:#d9482e}.cls-156{fill:#da492e}.cls-157{fill:#da4a2e}.cls-158{fill:#da4b2e}.cls-159{fill:#db4c2e}.cls-160{fill:#db4e2e}.cls-161{fill:#db4f2d}.cls-162{fill:#dc502d}.cls-163{fill:#dc512d}.cls-164{fill:#dc522d}.cls-165{fill:#dd532d}.cls-166{fill:#dd542c}.cls-167{fill:#dd552c}.cls-168{fill:#de562c}.cls-169{fill:#de572c}.cls-170{fill:#de582c}.cls-171{fill:#df592c}.cls-172{fill:#df5a2b}.cls-173{fill:#df5b2b}.cls-174{fill:#e05c2b}.cls-175{fill:#e05d2b}.cls-176{fill:#e05e2b}.cls-177{fill:#e15f2a}.cls-178{fill:#e1602a}.cls-179{fill:#e1612a}.cls-180{fill:#e2622a}.cls-181{fill:#e2632a}.cls-182{fill:#e2642a}.cls-183{fill:#e36529}.cls-184{fill:#e36629}.cls-185{fill:#e36729}.cls-186{fill:#e46829}.cls-187{fill:#e46929}.cls-188{fill:#e46a29}.cls-189{fill:#e56c28}.cls-190{fill:#e56d28}.cls-191{fill:#e66e28}.cls-192{fill:#e66f28}.cls-193{fill:#e67027}.cls-194{fill:#e77127}.cls-195{fill:#e77227}.cls-196{fill:#e77327}.cls-197{fill:#e87427}.cls-198{fill:#e87527}.cls-199{fill:#e87626}.cls-200{fill:#e97726}.cls-201{fill:#e97826}.cls-202{fill:#a12061}.cls-203{fill:#a22060}.cls-204{fill:#a3205f}.cls-205{fill:#a4205e}.cls-206{fill:#a5205d}.cls-207{fill:#a6205c}.cls-208{fill:#a7205b}.cls-209{fill:#a8205a}.cls-210{fill:#a92059}.cls-211{fill:#aa2058}.cls-212{fill:#ab2057}.cls-213{fill:#ac2056}.cls-214{fill:#ad2055}.cls-215{fill:#ae2054}.cls-216{fill:#af2053}.cls-217{fill:#b02052}.cls-218{fill:#b12051}.cls-219{fill:#b22050}.cls-220{fill:#b3204f}.cls-221{fill:#b4204e}.cls-222{fill:#b4204c}.cls-223{fill:#b5204b}.cls-224{fill:#b6204a}.cls-225{fill:#b72049}.cls-226{fill:#b82048}.cls-227{fill:#b92047}.cls-228{fill:#ba2046}.cls-229{fill:#bb2045}.cls-230{fill:#bc2044}.cls-231{fill:#bd2043}.cls-232{fill:#be2042}.cls-233{fill:#bf2041}.cls-234{fill:#c02040}.cls-235{fill:#c1203f}.cls-236{fill:#c2203e}.cls-237{fill:#c3203d}.cls-238{fill:#c4203c}.cls-239{fill:#c5203b}.cls-240{fill:#c6203a}.cls-241{fill:#c72039}.cls-242{fill:#c82038}.cls-243{fill:#c92037}.cls-244{fill:#ca2136}.cls-245{fill:#cc2236}.cls-246{fill:#cd2335}.cls-247{fill:#cd2435}.cls-248{fill:#ce2535}.cls-249{fill:#ce2634}.cls-250{fill:#ce2734}.cls-251{fill:#cf2834}.cls-252{fill:#cf2934}.cls-253{fill:#cf2a34}.cls-254{fill:#d02b34}.cls-255{fill:#d02c33}</style></defs><path d="M200.28 137.426a16.192 16.192 0 0 0-5.514-2.867 26.331 26.331 0 0 0-14.431 0 16.198 16.198 0 0 0-5.515 2.867 12.66 12.66 0 0 0-3.497 4.505 14.07 14.07 0 0 0-1.229 5.987 14.276 14.276 0 0 0 1.229 6.02 12.566 12.566 0 0 0 3.497 4.536 16.113 16.113 0 0 0 5.515 2.866 26.3 26.3 0 0 0 14.43 0 16.107 16.107 0 0 0 5.514-2.866 12.553 12.553 0 0 0 3.498-4.537 14.276 14.276 0 0 0 1.228-6.019 14.07 14.07 0 0 0-1.228-5.987 12.647 12.647 0 0 0-3.498-4.505zm366.803-96.424a22.047 22.047 0 0 0-8.648-5.158 37.796 37.796 0 0 0-12.354-1.794h-19.767v51.797h19.767q14.825 0 21.339-7.063t6.514-19.732a29.465 29.465 0 0 0-1.685-10.202 19.98 19.98 0 0 0-5.166-7.85zM53.058 37.98l.176.007.127.005-.005-.001-.298-.01zm134.932 73.894v-4.601a35.498 35.498 0 0 0-.408-5.67 12.802 12.802 0 0 0-1.388-4.254 6.85 6.85 0 0 0-2.677-2.68 8.894 8.894 0 0 0-4.348-.944 8.029 8.029 0 0 0-4.16.977 7.372 7.372 0 0 0-2.614 2.647 11.475 11.475 0 0 0-1.356 3.875 27.632 27.632 0 0 0-.378 4.664q0 3.908.19 5.986z" class="cls-1"/><path d="M85.668 59.894c5.788 3.202 11.555 7.056 14.815 12.59a20.275 20.275 0 0 1 2.745 12.605l-.031.048c.01-.008.02-.013.03-.019l-.004.03.031-.048a31.564 31.564 0 0 1 14.139-5.042c8.26-.884 16.14 1.61 23.153 4.215-6.677-5.702-15.529-11.398-32.57-6.476l-2.774 4.263 2.739-4.28c-2.792-9.097-7.974-13.685-13.761-16.211a39.857 39.857 0 0 0-8.857-2.531l.246.611c.033.082.067.163.099.245z" class="cls-2"/><path d="M86.519 127.572c17.157 4.255 31.537 17.326 38.98 42.062l26.767-61.211.165-6.138-26.509 52.022c-13.24-21.916-25.208-24.808-39.403-26.735z" class="cls-3"/><path d="M125.69 147.62l25.586-50.237-.61-6.173-23.02 41.497c-13.446-13.748-35.978-10.728-46.438-8.101 10.966-.59 32.314.881 44.482 23.013z" class="cls-4"/><path d="M21.28 107.636l38.496-46.488-6.12 3.389L6 116.103c28.99-7.915 49.876-4.703 63.324 5.173-9.515-9.02-18.818-15.95-48.045-13.64z" class="cls-5"/><path d="M42.21 94.903l22.92-29.63c-.091-.099-.18-.21-.271-.31a32.09 32.09 0 0 1-.481-.551c-.159-.185-.32-.362-.477-.554-.15-.183-.298-.382-.447-.572s-.3-.376-.447-.572c-.067-.087-.135-.167-.2-.256l-.013-.018-34.626 41.796c28.874-3.183 41.739 11.142 46.987 19.218-2.918-8.803-11.87-26.36-32.944-28.55z" class="cls-2"/><path d="M99.384 103.436a2.344 2.344 0 0 0 1.773 1.34q-1.607-3.627-3.197-7.117l-.916.574a355.79 355.79 0 0 1 2.34 5.203z" class="cls-6"/><path d="M97.044 98.233l.916-.574-.036-.079-.916.574z" class="cls-6"/><path fill="#292663" d="M97.008 98.154l.916-.574-.036-.079-.916.575z"/><path fill="#2a2663" d="M96.972 98.076l.916-.575-.036-.078-.916.574z"/><path fill="#2b2664" d="M96.936 97.997l.916-.574-.036-.079-.916.575z"/><path fill="#2c2765" d="M96.9 97.919l.916-.575-.036-.079-.917.575z"/><path fill="#2d2766" d="M96.863 97.84l.917-.575-.036-.078-.917.575z"/><path fill="#2e2766" d="M96.827 97.762l.917-.575-.036-.079-.917.575z"/><path fill="#2f2767" d="M96.791 97.683l.917-.575-.036-.078-.917.575z"/><path fill="#302768" d="M96.755 97.605l.917-.575-.036-.08-.917.576z"/><path fill="#312768" d="M96.719 97.526l.917-.575-.036-.079-.917.576z"/><path fill="#322769" d="M96.683 97.448l.917-.576-.035-.078-.918.575z"/><path fill="#33276a" d="M96.647 97.369l.918-.575-.036-.079-.918.575z"/><path fill="#34286a" d="M96.61 97.29l.919-.575-.036-.079-.918.576z"/><path fill="#35286b" d="M96.575 97.212l.918-.576-.036-.078-.918.576z"/><path fill="#36286c" d="M96.539 97.133l.918-.575-.036-.079-.918.576z"/><path fill="#37286d" d="M96.503 97.055l.918-.576-.036-.078-.919.575z"/><path fill="#38286d" d="M96.466 96.976l.92-.575-.037-.08-.919.577z"/><path fill="#39286e" d="M96.43 96.898l.92-.576-.037-.079-.92.577z"/><path fill="#3a286f" d="M96.394 96.82l.92-.577-.037-.078-.92.576z"/><path fill="#3b286f" d="M96.358 96.741l.92-.576-.037-.079-.92.577z"/><path fill="#3c2970" d="M96.321 96.663l.92-.577-.035-.079-.921.578z"/><path fill="#3d2971" d="M96.285 96.585l.92-.578-.035-.078-.921.577z"/><path fill="#3e2972" d="M96.249 96.506l.92-.577-.035-.079-.922.578z"/><path fill="#3f2972" d="M96.212 96.428l.922-.578-.036-.079-.922.578z"/><path fill="#402973" d="M96.176 96.35l.922-.579-.036-.078-.922.578z"/><path fill="#412974" d="M96.14 96.271l.922-.578-.036-.079-.923.579z"/><path fill="#422974" d="M96.103 96.193l.923-.579-.036-.078-.923.578z"/><path fill="#432a75" d="M96.067 96.114l.923-.578-.036-.08-.923.58z"/><path fill="#442a76" d="M96.03 96.036l.924-.58-.036-.078-.924.58z"/><path fill="#452a76" d="M95.994 95.958l.924-.58-.036-.078-.924.58z"/><path fill="#462a77" d="M95.958 95.88l.924-.58-.037-.078-.924.579z"/><path fill="#482a78" d="M95.922 95.8l.924-.578-.037-.079-.924.58z"/><path fill="#492a79" d="M95.885 95.722l.924-.579-.036-.078-.924.58z"/><path fill="#4a2a79" d="M95.849 95.644l.924-.58-.036-.077-.924.579z"/><path fill="#4b2a7a" d="M95.813 95.566l.924-.58-.037-.078-.924.58z"/><path fill="#4c2b7b" d="M95.776 95.487l.924-.579-.036-.078-.924.58z"/><path fill="#4d2b7b" d="M95.74 95.409l.924-.58-.036-.078-.925.58z"/><path fill="#4e2b7c" d="M95.703 95.33l.925-.579-.037-.078-.924.58z"/><path fill="#4f2b7d" d="M95.667 95.253l.924-.58-.036-.078-.925.58z"/><path fill="#502b7d" d="M95.63 95.174l.925-.58-.036-.078-.925.58z"/><path fill="#512b7e" d="M95.594 95.096l.925-.58-.036-.078-.926.58z"/><path fill="#522b7f" d="M95.557 95.018l.926-.58-.037-.079-.925.58z"/><path fill="#532c80" d="M95.52 94.94l.926-.58-.036-.08-.926.582z"/><path fill="#542c80" d="M95.484 94.862l.926-.581-.036-.078-.927.58z"/><path fill="#552c81" d="M95.447 94.783l.927-.58-.037-.079-.926.581z"/><path fill="#562c82" d="M95.41 94.705l.927-.58-.036-.08-.927.582z"/><path fill="#572c82" d="M95.374 94.627l.927-.581-.036-.079-.927.582z"/><path fill="#582c83" d="M95.338 94.549l.927-.582-.036-.078-.928.581z"/><path fill="#592c84" d="M95.301 94.47l.928-.581-.037-.078-.927.581z"/><path fill="#5a2c85" d="M95.265 94.392l.927-.581-.036-.079-.928.582z"/><path fill="#5b2d85" d="M95.228 94.314l.928-.582-.036-.078-.929.582z"/><path fill="#5c2d86" d="M95.191 94.236l.929-.582-.037-.079-.928.583z"/><path fill="#5d2d87" d="M95.155 94.158l.928-.583-.036-.078-.929.582z"/><path fill="#5e2d87" d="M95.118 94.08l.93-.583-.037-.078-.93.582z"/><path fill="#5f2d88" d="M95.082 94.001l.929-.582-.036-.079-.93.583z"/><path fill="#602d89" d="M95.045 93.923l.93-.583-.037-.078-.93.583z"/><path fill="#612d89" d="M95.008 93.845l.93-.583-.036-.079-.93.584z"/><path fill="#622d8a" d="M94.972 93.767l.93-.584-.036-.078-.93.583z"/><path fill="#632e8b" d="M94.935 93.688l.93-.583-.036-.078-.93.583z"/><path fill="#642e8c" d="M94.899 93.61l.93-.583-.036-.079-.931.584z"/><path fill="#652e8c" d="M94.862 93.532l.931-.584-.036-.078-.932.584z"/><path d="M94.825 93.454l.932-.584-.036-.079-.933.585z" class="cls-67"/><path d="M94.788 93.376l.933-.585-.288-.617-.936.586.291.616z" class="cls-67"/><path fill="#672e8c" d="M94.497 92.76l.936-.586-.29-.617-.936.587c.1.21.193.41.29.616z"/><path fill="#682e8c" d="M94.207 92.144l.936-.587-.29-.616-.938.588.292.615z"/><path fill="#692d8b" d="M93.915 91.529l.939-.588-.29-.617-.942.59.293.615z"/><path fill="#6a2d8a" d="M93.622 90.914l.942-.59c-.096-.205-.193-.413-.29-.617l-.945.593.293.614z"/><path fill="#6b2d89" d="M93.33 90.3l.944-.593-.292-.615-.946.594.293.614z"/><path fill="#6c2d89" d="M93.036 89.686l.946-.594-.293-.614-.948.594.295.614z"/><path fill="#6d2c88" d="M92.741 89.072l.948-.594-.293-.614-.95.595.295.613z"/><path fill="#6e2c87" d="M92.446 88.46l.95-.596-.293-.615-.952.597.295.613z"/><path fill="#6f2c86" d="M92.151 87.846l.952-.597c-.098-.203-.196-.411-.293-.614l-.956.6.297.611z"/><path fill="#702c86" d="M91.854 87.234l.956-.599-.297-.612-.956.6.297.611z"/><path fill="#712b85" d="M91.557 86.623l.956-.6-.297-.612-.957.6.298.612z"/><path fill="#722b84" d="M91.26 86.01l.956-.599-.297-.612-.958.6c.1.206.2.408.298.612z"/><path fill="#732b83" d="M97.165 81.468c-.212-.122-.424-.24-.635-.358l-.227.143c.283.067.566.135.862.215zM90.961 85.4l.958-.6-.298-.613-.96.602.3.61z"/><path d="M96.303 81.253l.227-.143a33.51 33.51 0 0 0-.685-.369l-.488.306c.308.061.622.129.946.206zm-5.642 3.537l.96-.603-.298-.61-.961.602.3.61z" class="cls-81"/><path d="M90.362 84.18l.96-.604-.3-.609-.96.602.3.61zm4.995-3.133l.488-.306a23.965 23.965 0 0 0-.705-.356l-.78.49q.483.07.997.172z" class="cls-82"/><path d="M90.062 83.569l.96-.602-.302-.609-.96.602.302.609zm4.298-2.694l.78-.49q-.37-.18-.737-.336l-1.12.702c.344.027.704.07 1.076.124z" class="cls-83"/><path d="M89.76 82.96l.96-.602-.301-.61-.96.603.301.609zm3.523-2.209l1.12-.702q-.395-.17-.784-.307l-1.56.98a11.223 11.223 0 0 1 1.224.03z" class="cls-84"/><path d="M89.458 82.351l.96-.602c-.1-.202-.2-.409-.3-.61l-.962.604.302.608zm2.6-1.63l1.561-.979q-.434-.153-.858-.26l-2.366 1.484a6.85 6.85 0 0 1 1.663-.245z" class="cls-85"/><path d="M89.156 81.743l.962-.603-.041-.083c.1-.037.212-.061.318-.091l2.366-1.483a6.858 6.858 0 0 0-.986-.18l-2.921 1.83.302.61z" class="cls-86"/><path d="M88.853 81.134l2.922-1.832a5.162 5.162 0 0 0-.822-.023 8.913 8.913 0 0 0 3.06-2.178l-5.464 3.426c.101.201.205.407.304.607z" class="cls-87"/><path d="M88.549 80.527l5.465-3.426c.268-.271.543-.562.83-.9a18.065 18.065 0 0 1-2.213.968l-4.387 2.75.305.608z" class="cls-88"/><path d="M88.244 79.92l4.387-2.75a7.589 7.589 0 0 1-2.002.456l-2.69 1.687.305.607z" class="cls-89"/><path d="M87.94 79.313l2.689-1.687a4.4 4.4 0 0 1-.615.029c-.006-.147.006-.297.005-.445l-2.385 1.496.305.607z" class="cls-90"/><path d="M87.576 78.59l.058.116 2.385-1.496c0-.267-.008-.533.01-.803L87.326 78.1l.249.49z" class="cls-91"/><path d="M87.327 78.1l2.701-1.693c.018-.284.059-.571.095-.858l-3.103 1.945z" class="cls-92"/><path d="M86.84 77.143c.053.104.109.21.162.316l.018.035 3.103-1.945q.056-.44.14-.885L86.71 76.89l.13.252z" class="cls-93"/><path d="M86.71 76.89l3.553-2.226c.057-.305.114-.61.19-.918L86.4 76.287c.101.199.21.406.31.604z" class="cls-94"/><path d="M86.4 76.287l4.053-2.54c.079-.321.173-.645.27-.969l-4.634 2.906c.103.2.21.404.31.603z" class="cls-95"/><path d="M86.09 75.684l4.634-2.906a23 23 0 0 1 .331-1.006L85.78 75.08l.31.604z" class="cls-96"/><path d="M85.779 75.08l5.276-3.308c.122-.346.25-.693.39-1.042l-5.977 3.747c.105.202.207.402.31.603z" class="cls-97"/><path d="M85.468 74.477l5.977-3.747c.143-.36.29-.719.45-1.08l-2.665 1.67c-.025.05-.063.102-.087.153l-.017-.087-3.968 2.487.31.604z" class="cls-98"/><path d="M84.847 73.27l.31.603 3.969-2.487c-.012-.056-.024-.111-.034-.167-.035-.178-.087-.355-.124-.532zm7.563-4.741l-2.273 1.424a7.844 7.844 0 0 0-.907 1.367l2.665-1.67c.164-.373.335-.746.515-1.121z" class="cls-99"/><path d="M92.99 67.367l-.842.527a17.912 17.912 0 0 0-2.01 2.06l2.272-1.425c.185-.386.38-.774.58-1.162zm-8.455 5.3l.128.245.184.358 4.12-2.583c-.048-.233-.11-.464-.162-.697z" class="cls-100"/><path d="M84.222 72.066l.313.601 4.27-2.677c-.051-.232-.108-.464-.162-.696zm8.91-4.982c.002-.007-.413.308-.984.81l.842-.527c.049-.095.093-.189.142-.283z" class="cls-101"/><path d="M84.426 71.14c-.05.132-.096.266-.148.398-.048.123-.09.25-.138.372a.121.121 0 0 1 .01.019l.072.137 4.42-2.772c-.054-.232-.104-.464-.162-.696z" class="cls-102"/><path d="M84.812 70.1l-.122.328c-.089.237-.173.475-.264.711l4.054-2.541c-.057-.232-.101-.465-.162-.697z" class="cls-103"/><path d="M85.197 69.06l-.095.257-.29.783 3.506-2.199c-.06-.227-.122-.455-.185-.682z" class="cls-104"/><path d="M85.583 68.02l-.07.187c-.101.286-.212.568-.316.853l2.936-1.841c-.061-.224-.137-.448-.201-.672z" class="cls-105"/><path d="M85.944 66.995l-.04.115-.321.91 2.349-1.473c-.064-.224-.134-.448-.201-.672z" class="cls-106"/><path d="M86.299 65.975l-.016.045c-.113.326-.225.65-.34.975l1.788-1.12c-.067-.224-.132-.448-.202-.672z" class="cls-107"/><path d="M86.654 64.954c-.117.34-.237.68-.355 1.02l1.23-.77c-.07-.225-.13-.449-.201-.673z" class="cls-108"/><path d="M87.01 63.933l-.348.997-.008.024.674-.423c-.058-.18-.102-.36-.162-.538l-.042-.132z" class="cls-109"/><path d="M87.01 63.933l.114-.072-.043-.135-.04.114z" class="cls-110"/><path d="M49.216 19.409c.185-.01.37-.013.555-.025-.155-.182-.315-.362-.47-.544zm.927-.186l.029-.075.182-.48 2.07-5.438.001.001v-.001c-.659-.628-1.34-1.232-2.018-1.84l-1.04 6.997c.258.279.521.554.776.836z" class="cls-111"/><path d="M45.593 19.527a83.087 83.087 0 0 0 3.623-.118l.084-.57a104.609 104.609 0 0 0-3.09-3.466zm3.774-1.14l1.04-6.998c-.321-.289-.632-.59-.958-.874a80.084 80.084 0 0 0-2.242-1.843l-.965 6.492a83.435 83.435 0 0 1 3.125 3.223z" class="cls-111"/><path d="M45.593 19.527l.618-4.154q-1.508-1.604-3.149-3.07l-1.072 7.211c.555.011 1.11.023 1.664.027l.335.002c.535.002 1.07-.01 1.604-.016zm.649-4.363l.965-6.492a18.45 18.45 0 0 0-3.288-2.133l-.853 5.74q1.636 1.39 3.176 2.885zm-3.176-2.886l.853-5.74c-.014-.006-.027-.015-.041-.022-.096-.043-.199-.065-.298-.1l-.83 5.588c.106.09.21.184.316.274z" class="cls-112"/><path d="M43.062 12.303c-.106-.095-.207-.195-.314-.288l-1.114 7.494c.119.003.238.003.356.006z" class="cls-112"/><path fill="#f79923" d="M42.748 12.015c-.082-.072-.158-.15-.24-.22.082.067.16.14.241.21l.83-5.588a3.413 3.413 0 0 0-.34-.114l-1.961 13.2c.118.003.237.003.356.006z"/><path fill="#f69823" d="M43.24 6.303a3.389 3.389 0 0 0-.35-.047l-1.968 13.241c.118.003.237.003.356.006z"/><path fill="#f69723" d="M42.89 6.256a3.35 3.35 0 0 0-.351-.041l-1.973 13.27c.119.003.237.009.356.012z"/><path fill="#f59623" d="M42.539 6.215a3.287 3.287 0 0 0-.362.03l-1.966 13.228.355.012z"/><path d="M42.177 6.245a3.218 3.218 0 0 0-.363.036l-1.958 13.18.355.012z" class="cls-3"/><path fill="#f49424" d="M41.814 6.281a3.151 3.151 0 0 0-.375.121L39.5 19.448l.356.012z"/><path fill="#f49324" d="M41.44 6.402c-.093.032-.19.05-.279.09-.035.016-.066.038-.1.056l-1.916 12.888.355.012z"/><path fill="#f49224" d="M41.06 6.548q-.2.1-.389.216l-1.881 12.66.355.012z"/><path fill="#f39124" d="M40.671 6.764a5.459 5.459 0 0 0-.397.273l-1.84 12.375.356.012z"/><path fill="#f39024" d="M40.274 7.037c-.14.103-.276.21-.406.326l-1.789 12.036.355.013z"/><path fill="#f28f24" d="M39.868 7.363a6.48 6.48 0 0 0-.416.4l-1.633 10.983c.06.218.117.437.182.65l.078.003z"/><path fill="#f28e24" d="M39.02 8.261l-1.426 9.594q.104.45.225.891l1.633-10.984q-.227.24-.432.5z"/><path fill="#f18d24" d="M38.568 8.899l-1.18 7.943q.09.51.206 1.013L39.02 8.26c-.16.205-.31.418-.452.638z"/><path fill="#f18c24" d="M38.088 9.73l-.872 5.866q.063.625.172 1.246l1.18-7.943a9.813 9.813 0 0 0-.48.83z"/><path fill="#f18b24" d="M37.701 10.543c-.078.226-.133.457-.193.686l-.362 2.43a13.997 13.997 0 0 0 .07 1.937l.872-5.867c-.14.269-.27.54-.387.814z"/><path fill="#f08a24" d="M37.146 13.659l.362-2.43a11.06 11.06 0 0 0-.362 2.43z"/><path d="M53.058 37.98c.1.004.198.008.298.01h-.003l-.026-.01-.049-.014-.432.006.066.003.146.006zM83.69 71.055l-.339-.64-.019-.036c-.43-.817-.856-1.629-1.299-2.46q-.3-.563-.604-1.127-1.34-2.501-2.752-5.051-1.351-2.44-2.754-4.904-1.407-2.463-2.857-4.928-1.476-2.507-2.998-4.993-1.504-2.459-3.045-4.873-.556-.87-1.115-1.732-.967-1.492-1.945-2.953c-.037-.053-.073-.103-.108-.157l-.22.609-.37.006.068.104c.14.216.282.429.421.647q.637.977 1.286 1.995.7 1.104 1.425 2.26.366.582.733 1.176 1.104 1.783 2.25 3.689 1.407 2.343 2.878 4.875 1.4 2.415 2.854 5.007 1.38 2.459 2.806 5.082 1.272 2.34 2.577 4.813c.04.08.083.16.125.24q1.298 2.458 2.63 5.054c.02.037.04.077.06.118l.415-.007.346-.961-.112-.212c-.11-.211-.227-.429-.338-.64z" class="cls-1"/><path fill="#be202e" d="M59.773 52.51c.193.016.385.03.581.04.195.01.39.013.59.018l-.006-.002c-.398-.018-.787-.036-1.165-.057zm-.015-.002l.015.001-.015-.001zm-1.621-4.793l-.745-.032-.187-.008c.248.021.503.035.761.04.06 0 .121.004.183.004z"/><path d="M64 36.794l-.296.186.151.219z" class="cls-129"/><path d="M64 36.794l.17-.472-.641.402c.058.087.117.17.175.256z" class="cls-130"/><path d="M64.17 36.322l.17-.472-.987.619c.058.086.117.169.176.255z" class="cls-131"/><path d="M64.34 35.85l.17-.472-1.333.836c.059.086.118.169.176.255z" class="cls-132"/><path d="M64.51 35.378l.17-.471-1.678 1.051.175.256z" class="cls-133"/><path d="M64.68 34.907l.169-.472-2.023 1.268c.058.086.117.17.176.255z" class="cls-134"/><path d="M64.849 34.435l.17-.472-2.369 1.485.176.255z" class="cls-135"/><path d="M65.018 33.963l.17-.472-2.714 1.701.176.256z" class="cls-136"/><path d="M65.188 33.491l.034-.096.136-.376-3.06 1.918.176.255z" class="cls-137"/><path d="M65.358 33.02l.034-.096.135-.377-3.404 2.135.176.255z" class="cls-138"/><path d="M65.527 32.547l.034-.095.136-.376-3.75 2.35.176.256z" class="cls-139"/><path d="M65.697 32.076l.034-.096.135-.376-4.094 2.567.175.255z" class="cls-140"/><path d="M65.866 31.604l.035-.096.135-.376-4.44 2.784.176.255z" class="cls-141"/><path d="M66.036 31.132l.034-.096.135-.376-4.785 3c.059.084.117.171.176.256z" class="cls-142"/><path d="M66.205 30.66l.035-.095.135-.377-5.13 3.217.175.255z" class="cls-143"/><path d="M66.375 30.188l.034-.095.136-.376-5.476 3.432c.059.084.117.172.176.256z" class="cls-144"/><path d="M66.545 29.717l.034-.096.135-.376-5.82 3.65.175.254z" class="cls-145"/><path d="M60.717 32.64l.02.026c.052.075.104.154.156.228l5.821-3.65.035-.095.029-.081.003-.011-.115-.141-.003-.004z" class="cls-146"/><path d="M60.534 32.388c.06.086.122.165.183.251l5.946-3.727c-.067-.083-.133-.159-.199-.241z" class="cls-147"/><path d="M60.35 32.138c.062.085.123.165.184.25l5.93-3.717c-.066-.083-.132-.16-.199-.241z" class="cls-148"/><path d="M60.168 31.887c.06.085.122.165.183.25l5.914-3.707c-.066-.082-.132-.16-.198-.241z" class="cls-149"/><path d="M59.985 31.636c.06.085.122.166.183.25l5.899-3.697-.2-.241z" class="cls-150"/><path d="M59.985 31.636l5.883-3.688-.199-.24-5.867 3.677.183.251z" class="cls-151"/><path d="M59.802 31.385l5.867-3.678-.198-.24-5.852 3.667.183.251z" class="cls-152"/><path d="M59.62 31.134l5.85-3.668-.198-.24-5.836 3.658.183.25z" class="cls-153"/><path d="M59.436 30.884l5.836-3.659-.199-.24-5.82 3.648.183.25z" class="cls-154"/><path d="M59.253 30.633l5.82-3.649-.199-.24-5.804 3.638.183.25z" class="cls-155"/><path d="M59.07 30.382l5.804-3.639-.198-.24-5.788 3.628.182.25z" class="cls-156"/><path d="M58.888 30.131l5.788-3.629-.199-.24-5.772 3.618.183.251z" class="cls-157"/><path d="M58.705 29.88l5.772-3.619-.199-.24-5.756 3.608.183.251z" class="cls-158"/><path d="M58.522 29.63l5.756-3.61c-.066-.078-.132-.162-.198-.24l-5.741 3.599.183.25z" class="cls-159"/><path d="M58.339 29.379l5.74-3.6c-.065-.078-.132-.162-.198-.24l-5.725 3.589.183.25z" class="cls-160"/><path d="M58.156 29.128l5.725-3.59c-.066-.078-.133-.162-.199-.24l-5.71 3.579c.062.082.123.168.184.25z" class="cls-161"/><path d="M57.973 28.877l5.71-3.58c-.034-.038-.067-.08-.1-.12l-.102-.119-5.691 3.568.183.251z" class="cls-162"/><path d="M57.79 28.626l5.69-3.568c-.067-.08-.135-.157-.203-.237l-5.67 3.554c.061.082.122.17.183.251z" class="cls-163"/><path d="M57.607 28.375l5.67-3.554-.204-.238-5.649 3.542c.061.08.122.169.183.25z" class="cls-164"/><path d="M57.37 28.05l.054.075 5.649-3.542-.205-.237-5.631 3.53c.044.06.088.115.132.174z" class="cls-165"/><path d="M57.237 27.877l5.631-3.531-.204-.238-5.617 3.522c.063.083.127.163.19.247z" class="cls-166"/><path d="M57.047 27.63l5.617-3.522-.204-.237-5.602 3.512.19.247z" class="cls-167"/><path d="M56.858 27.383l5.602-3.512-.204-.238-5.588 3.504.19.246z" class="cls-168"/><path d="M56.668 27.137l5.588-3.504-.204-.237-5.573 3.494.19.247z" class="cls-169"/><path d="M56.29 26.643l.189.247 5.573-3.494-.204-.238z" class="cls-170"/><path d="M56.1 26.396l.19.247 5.558-3.485-.207-.235z" class="cls-171"/><path d="M55.91 26.15c.063.081.126.165.19.246l5.54-3.473c-.069-.08-.138-.156-.207-.235z" class="cls-172"/><path d="M55.72 25.903c.064.081.127.166.19.247l5.523-3.462-.209-.235z" class="cls-173"/><path d="M55.529 25.658l.192.245 5.503-3.45-.208-.235z" class="cls-174"/><path d="M55.334 25.414c.065.083.13.161.195.244l5.487-3.44-.208-.235z" class="cls-175"/><path d="M55.14 25.171c.064.082.13.161.194.243l5.474-3.431-.208-.235z" class="cls-176"/><path d="M54.945 24.928c.065.081.13.161.194.243l5.46-3.423-.207-.235z" class="cls-177"/><path d="M54.75 24.684l.195.244 5.447-3.415c-.07-.077-.14-.158-.208-.235z" class="cls-178"/><path d="M54.555 24.44l.195.244 5.434-3.406-.167-.189-.042-.046z" class="cls-179"/><path d="M54.36 24.197l.195.244 5.42-3.398c-.072-.079-.142-.153-.213-.232z" class="cls-180"/><path d="M54.166 23.954l.194.243 5.402-3.386-.213-.232z" class="cls-181"/><path d="M53.97 23.71c.066.08.13.164.196.244l5.383-3.375-.212-.232z" class="cls-182"/><path d="M53.776 23.467l.068.085c.043.052.085.107.127.159l5.366-3.364-.213-.233z" class="cls-183"/><path d="M53.579 23.226l.058.07.139.171 5.348-3.353-.212-.232z" class="cls-184"/><path d="M53.378 22.986c.067.081.134.158.2.24l5.334-3.344-.213-.232z" class="cls-185"/><path d="M53.177 22.747c.067.08.134.158.2.24L58.7 19.65l-.212-.232z" class="cls-186"/><path d="M52.976 22.507c.067.08.134.159.2.24l5.31-3.33-.212-.231z" class="cls-187"/><path d="M52.775 22.267l.2.24 5.299-3.321-.214-.232z" class="cls-188"/><path d="M52.574 22.028l.2.24 5.286-3.314c-.073-.078-.144-.15-.217-.23z" class="cls-4"/><path d="M52.373 21.788l.2.24 5.27-3.303-.217-.23z" class="cls-189"/><path d="M52.172 21.549l.201.24 5.253-3.294c-.073-.077-.145-.152-.217-.23z" class="cls-190"/><path d="M51.971 21.31c.067.078.134.16.201.239l5.237-3.283-.217-.23z" class="cls-191"/><path d="M51.766 21.072l.205.237 5.22-3.272-.216-.23z" class="cls-192"/><path d="M51.56 20.837c.068.08.137.155.206.235l5.209-3.265-.217-.23z" class="cls-193"/><path d="M51.352 20.601l.207.236 5.199-3.26-.217-.229z" class="cls-194"/><path d="M51.145 20.365l.207.236 5.189-3.253c-.072-.074-.146-.155-.217-.23z" class="cls-195"/><path d="M50.938 20.13l.207.235 5.179-3.246-.023-.025c-.067-.07-.132-.133-.199-.202z" class="cls-196"/><path d="M50.73 19.894l.208.236 5.165-3.238-.222-.227z" class="cls-197"/><path d="M50.523 19.659c.07.077.138.157.208.235l5.15-3.229-.222-.226z" class="cls-198"/><path d="M50.316 19.423c.07.077.138.158.207.236l5.136-3.22-.222-.227z" class="cls-199"/><path d="M50.175 19.146l-.03.079-.002-.002v.002l.173.198 5.121-3.21-.221-.227z" class="cls-200"/><path d="M50.175 19.146l-.003.002-.029.075.002.002z" class="cls-200"/><path d="M50.357 18.666l-.182.48 5.04-3.16-.22-.227z" class="cls-201"/><path d="M50.357 18.666l-.003.002-.182.48.003-.002zm4.637-2.906a129.866 129.866 0 0 0-1.788-1.778c-.264-.255-.523-.505-.78-.75l-2.069 5.434z" class="cls-201"/><path d="M50.354 18.668l.003-.002 2.068-5.435-.002-.001z" class="cls-201"/><path d="M84.272 71.542l-.244.153.111.212.001.003z" class="cls-202"/><path d="M84.272 71.542l-.132.368c.049-.123.09-.249.138-.372zm-.244.153l.111.213v-.001l-.111-.212z" class="cls-202"/><path d="M84.668 70.442l-.979.613.339.64.244-.153.142-.395z" class="cls-203"/><path d="M84.272 71.542l.006-.004c.052-.132.097-.266.148-.399l-.012.008z" class="cls-203"/><path d="M84.414 71.147l.012-.008c.09-.236.175-.474.264-.711l-.022.014zm-.724-.092c.11.212.227.43.337.64l-.338-.64z" class="cls-203"/><path d="M83.69 71.055l.978-.613.117-.325.278-.775-1.712 1.073.338.64zm.978-.613l.022-.014c.04-.11.08-.219.122-.328l-.027.017z" class="cls-204"/><path d="M84.785 70.117l.027-.017.29-.783-.039.025zm-1.434.298l.338.64c-.11-.212-.226-.427-.338-.64z" class="cls-204"/><path d="M85.063 69.342l.092-.256.303-.844-2.445 1.532.32.605.018.036z" class="cls-205"/><path d="M85.063 69.342l.039-.025.095-.257-.042.026z" class="cls-205"/><path d="M85.155 69.086l.042-.026c.104-.285.215-.567.316-.853l-.055.035zm-1.804 1.329l-.019-.036.02.036z" class="cls-205"/><path d="M85.458 68.242l.067-.186.329-.915-3.179 1.993.338.64zm0 0l.055-.035.07-.187-.058.036z" class="cls-206"/><path d="M85.525 68.056l.058-.036.32-.91-.05.031z" class="cls-206"/><path d="M85.854 67.141l.041-.115.354-.985-3.912 2.453c.115.215.224.426.338.64z" class="cls-207"/><path d="M85.854 67.141l.05-.031.04-.115-.049.03z" class="cls-207"/><path d="M85.895 67.026l.049-.03.34-.976-.035.021z" class="cls-207"/><path d="M86.249 66.041l.016-.045.37-1.03.01-.025-4.646 2.913.034.064c.104.194.201.382.304.576z" class="cls-208"/><path d="M86.249 66.041l.034-.021.016-.045-.034.02z" class="cls-208"/><path d="M86.265 65.996l.034-.021c.118-.341.238-.681.355-1.021l-.018.011z" class="cls-208"/><path d="M86.636 64.965l.018-.011.008-.024-.018.011z" class="cls-208"/><path d="M86.644 64.941l.362-1.006.034-.094-5.383 3.374.342.639z" class="cls-209"/><path d="M86.644 64.941l.018-.011.347-.997-.003.002z" class="cls-209"/><path d="M87.01 63.933l.032-.093-.002.001-.034.094z" class="cls-209"/><path d="M81.314 66.578l.115.212.228.425 5.383-3.374.041-.115c-.07-.208-.151-.415-.223-.623zm5.726-2.737l.002-.001.04-.114z" class="cls-210"/><path d="M80.968 65.943c.113.21.233.426.346.635l5.544-3.475c-.08-.232-.167-.464-.25-.696z" class="cls-211"/><path d="M80.622 65.308l.346.635 5.64-3.536a48.428 48.428 0 0 0-.25-.696z" class="cls-212"/><path d="M80.622 65.308l5.737-3.597c-.085-.232-.162-.464-.25-.696l-5.833 3.658.346.635z" class="cls-213"/><path d="M80.276 64.673l5.833-3.658c-.086-.228-.177-.457-.265-.685l-5.914 3.707.346.636z" class="cls-214"/><path d="M79.583 63.402c.117.212.23.423.347.635l5.913-3.707c-.056-.146-.118-.291-.175-.436l-.26-.143z" class="cls-215"/><path d="M85.407 59.75l.26.144c-.031-.082-.065-.163-.098-.245z" class="cls-215"/><path d="M84.682 59.353l-5.445 3.414.346.635 5.824-3.651c-.241-.133-.483-.267-.725-.398zm.641-.315l-.028-.07-.08.05.108.02z" class="cls-216"/><path d="M84.682 59.353c.242.13.484.265.725.398l.162-.102-.246-.611-.108-.019z" class="cls-216"/><path d="M85.215 59.019l.08-.05c-.093-.227-.18-.454-.274-.68l-.867.543c.352.059.706.123 1.061.187zm-1.265-.059l-5.059 3.171c.118.214.23.423.346.636l5.445-3.414c-.244-.133-.488-.262-.733-.393z" class="cls-217"/><path d="M85.215 59.019c-.355-.064-.709-.128-1.061-.187l-.205.128c.245.13.489.26.733.393z" class="cls-217"/><path d="M78.677 61.738l.214.393 5.058-3.17-.455-.245c.218.035.44.08.66.116l.867-.543c-.063-.15-.118-.302-.182-.452-.032-.075-.067-.15-.1-.225l-6.197 3.886.135.24z" class="cls-218"/><path d="M83.494 58.716c.152.08.304.163.455.244l.205-.128c-.22-.036-.442-.081-.66-.116z" class="cls-218"/><path d="M78.542 61.498l6.198-3.886c-.095-.222-.197-.445-.294-.668l-6.258 3.924c.116.209.238.42.354.63z" class="cls-219"/><path d="M78.188 60.868l6.258-3.924q-.145-.334-.294-.668l-6.318 3.961.354.63z" class="cls-220"/><path d="M77.834 60.237l6.318-3.96c-.099-.224-.193-.446-.293-.669l-6.379 3.999.354.63z" class="cls-221"/><path d="M77.48 59.607l6.379-3.999c-.04-.088-.077-.177-.117-.265-.06-.127-.132-.266-.193-.393l-6.423 4.027.354.63z" class="cls-222"/><path d="M77.126 58.977l6.423-4.027c-.1-.212-.215-.437-.32-.652l-6.457 4.048.354.63z" class="cls-223"/><path d="M76.772 58.346l6.458-4.048a77.491 77.491 0 0 0-.32-.652l-6.492 4.07c.12.21.235.42.354.63z" class="cls-224"/><path d="M76.418 57.716l6.492-4.07c-.107-.219-.208-.43-.32-.652l-6.526 4.092c.12.21.234.42.354.63z" class="cls-225"/><path d="M75.923 56.835c.048.084.093.167.141.25l6.527-4.091c-.111-.222-.205-.428-.32-.652l-6.566 4.116c.072.126.147.252.218.377z" class="cls-226"/><path d="M75.705 56.458l6.566-4.116-.01-.02c-.102-.201-.221-.416-.328-.62l-6.59 4.131c.119.209.243.417.362.625z" class="cls-227"/><path d="M75.342 55.833l6.591-4.132-.338-.64-6.615 4.147c.12.209.243.417.362.625z" class="cls-228"/><path d="M74.98 55.208l6.615-4.147c-.113-.214-.222-.424-.338-.64l-6.64 4.162.363.625z" class="cls-229"/><path d="M74.618 54.583l6.639-4.162c-.115-.214-.223-.422-.341-.638l-6.66 4.175.362.625z" class="cls-230"/><path d="M74.255 53.958l6.66-4.175c-.112-.206-.239-.422-.355-.63l-6.667 4.18c.122.208.241.417.362.625z" class="cls-231"/><path d="M73.893 53.333l6.667-4.18c-.115-.208-.236-.42-.355-.63l-6.675 4.185c.123.208.241.417.363.625z" class="cls-232"/><path d="M73.53 52.708l6.675-4.184c-.119-.21-.233-.418-.355-.63l-6.682 4.189c.123.208.24.416.362.625z" class="cls-233"/><path d="M73.066 51.907c.035.058.068.117.102.176l6.682-4.189c-.107-.186-.202-.364-.311-.551l-.047-.077-6.693 4.196c.088.149.18.296.267.445z" class="cls-234"/><path d="M72.799 51.462l6.694-4.196c-.12-.203-.25-.415-.371-.62l-6.695 4.197c.123.207.25.412.372.619z" class="cls-235"/><path d="M72.427 50.843l6.694-4.197c-.121-.205-.246-.413-.37-.62l-6.696 4.198c.124.206.25.412.372.619z" class="cls-236"/><path d="M72.055 50.224l6.695-4.198c-.124-.207-.243-.41-.37-.62l-6.696 4.198.371.62z" class="cls-237"/><path d="M71.684 49.604l6.695-4.197c-.125-.206-.248-.41-.376-.617l-6.691 4.195.372.62z" class="cls-238"/><path d="M71.312 48.985l6.691-4.195c-.124-.2-.259-.408-.386-.61l-6.677 4.186c.125.206.248.413.372.62z" class="cls-239"/><path d="M70.94 48.366l6.677-4.186-.386-.61-6.663 4.177c.125.206.247.413.372.619z" class="cls-240"/><path d="M70.568 47.747l6.663-4.177c-.13-.204-.253-.405-.386-.61l-6.648 4.168c.125.205.246.413.371.619z" class="cls-241"/><path d="M70.068 46.913l.129.215 6.648-4.169c-.08-.123-.15-.242-.232-.366l-.158-.242-6.637 4.162c.082.134.168.266.25.4z" class="cls-242"/><path d="M69.818 46.513l6.637-4.162-.355-.543-.041-.06-6.624 4.153c.127.205.256.406.383.612zm-.383-.613l6.624-4.152c-.592-.894-1.202-1.772-1.81-2.652l-6.515 4.084q.856 1.354 1.7 2.72z" class="cls-243"/><path d="M67.022 42.041c.24.376.473.761.712 1.14l6.515-4.085c-.26-.376-.511-.76-.774-1.133-.355-.506-.723-.99-1.082-1.49l-6.38 4q.505.781 1.01 1.568z" class="cls-244"/><path d="M64.25 37.792a249.21 249.21 0 0 1 1.658 2.516l.105.165 6.38-4c-.628-.873-1.253-1.749-1.89-2.601z" class="cls-245"/><path d="M65.331 33.327l-.037.098-.187.482-.187.483-.187.483-.184.48-.18.479-.18.478-.18.478c-.05.138-.104.273-.154.41.037.054.073.105.107.158.097.144.191.292.288.436l6.252-3.92c-.081-.11-.16-.225-.242-.334-.57-.76-1.147-1.482-1.722-2.222z" class="cls-246"/><path d="M64 36.794l-.145.405c.05-.138.104-.273.155-.41zm0 0l.01-.006c.058-.16.12-.319.18-.478l-.02.012zm.17-.472l.02-.012c.06-.16.118-.32.18-.478l-.03.018z" class="cls-246"/><path d="M64.34 35.85l.03-.018c.06-.16.118-.32.179-.478l-.04.024z" class="cls-246"/><path d="M64.51 35.378l.039-.024.184-.481-.054.034z" class="cls-246"/><path d="M64.68 34.907l.053-.034.187-.483-.071.045zm.169-.472l.07-.045q.095-.241.188-.483l-.089.056z" class="cls-246"/><path d="M65.018 33.963l.089-.056.187-.482-.106.066zm.17-.472l.106-.066.037-.098-.109.068zm.321-.641l-.035.096c-.048.127-.094.255-.143.381l3.207-2.01-.19-.247z" class="cls-246"/><path d="M65.222 33.395l.11-.068.142-.38-.116.072z" class="cls-246"/><path d="M65.358 33.02l.116-.074.035-.096-.117.074z" class="cls-246"/><path d="M65.682 32.376l-.035.096c-.047.126-.09.253-.138.378l2.839-1.78c-.064-.081-.127-.164-.19-.246z" class="cls-247"/><path d="M65.392 32.924l.117-.074c.047-.125.091-.252.138-.378l-.12.075zm.135-.377l.12-.075.035-.096-.12.076z" class="cls-247"/><path d="M65.855 31.902L65.82 32l-.138.377 2.475-1.551-.19-.246z" class="cls-248"/><path d="M65.561 32.452l.12-.076.139-.377-.123.077z" class="cls-248"/><path d="M65.697 32.076l.123-.077.035-.097-.124.078z" class="cls-248"/><path d="M66.028 31.429l-.035.096c-.045.126-.093.251-.138.377l2.112-1.323c-.064-.082-.127-.166-.191-.246z" class="cls-249"/><path d="M65.731 31.98l.124-.078c.045-.126.093-.25.138-.377l-.127.079zm.135-.376l.127-.08.035-.095-.127.08z" class="cls-249"/><path d="M66.189 30.962c-.01.03-.019.062-.03.092-.042.126-.088.25-.131.375l1.748-1.096c-.064-.081-.127-.166-.19-.246z" class="cls-250"/><path d="M65.9 31.508l.128-.08c.043-.124.09-.248.132-.374l-.124.078zm.136-.376l.124-.078c.01-.03.018-.061.029-.092l-.119.074z" class="cls-250"/><path d="M66.33 30.508l-.029.092c-.04.12-.072.243-.112.362l1.396-.875-.19-.246z" class="cls-251"/><path d="M66.07 31.036l.119-.074c.04-.12.073-.242.112-.362l-.096.06z" class="cls-251"/><path d="M66.205 30.66l.096-.06.029-.092-.09.057z" class="cls-251"/><path d="M66.471 30.054l-.029.092c-.038.12-.073.242-.112.362l1.065-.667c-.064-.08-.127-.166-.19-.246z" class="cls-252"/><path d="M66.24 30.565l.09-.057c.039-.12.074-.241.112-.362l-.067.042zm.135-.377l.067-.042.03-.092-.063.039z" class="cls-252"/><path d="M66.612 29.6c-.009.031-.02.061-.028.092l-.113.362.733-.46c-.064-.08-.127-.165-.19-.245z" class="cls-253"/><path d="M66.41 30.093l.061-.039c.038-.12.076-.24.113-.362l-.04.025z" class="cls-253"/><path d="M66.545 29.717l.039-.025c.009-.03.02-.061.028-.092l-.033.021z" class="cls-253"/><path d="M66.753 29.146c-.008.031-.02.061-.028.092-.035.122-.077.24-.113.362l.402-.251-.004-.005-.19-.24z" class="cls-254"/><path d="M66.612 29.6c.036-.121.078-.24.113-.362l-.01.007-.136.376zm.141-.454l-.004.003-.035.096.01-.007.03-.092z" class="cls-254"/><path d="M66.82 29.105l-.038-.048-.004.01c-.007.027-.017.052-.025.08z" class="cls-255"/><path d="M66.753 29.146c.008-.027.018-.052.025-.078l-.03.081z" class="cls-255"/><path d="M82.152 72.871l.922.002h.3a5.839 5.839 0 0 1-.058-.115c-.081-.159-.16-.307-.242-.465z" class="cls-202"/><path d="M80.797 72.868l.838.002.517.001.922-.578c-.112-.219-.222-.425-.334-.643z" class="cls-203"/><path d="M79.53 72.81c.286.022.58.057.851.057l.416.001 1.943-1.218-.334-.642z" class="cls-204"/><path d="M78.385 72.676c.393.064.772.106 1.145.134l2.876-1.802-.334-.643z" class="cls-205"/><path d="M77.33 72.485c.36.083.706.135 1.055.191l3.687-2.311-.335-.643z" class="cls-206"/><path d="M76.383 72.226c.317.09.636.188.947.26l4.407-2.764-.334-.643z" class="cls-207"/><path d="M75.458 71.954c.312.104.617.185.925.272l5.02-3.147-.334-.642z" class="cls-208"/><path d="M74.6 71.64c.286.107.573.22.858.314l5.61-3.517c-.11-.21-.223-.435-.333-.643z" class="cls-209"/><path d="M73.757 71.316c.281.118.561.218.843.324l6.135-3.846-.046-.088c-.04-.08-.083-.16-.125-.24l-.167-.313z" class="cls-210"/><path d="M72.968 70.959c.263.12.524.246.789.357l6.64-4.163-.34-.64z" class="cls-211"/><path d="M72.968 70.959l7.09-4.445-.34-.64-7.535 4.724c.26.13.523.24.785.36z" class="cls-212"/><path d="M72.183 70.598l7.535-4.723c-.114-.212-.228-.43-.34-.64l-7.923 4.968c.243.131.481.272.728.395z" class="cls-213"/><path d="M71.455 70.203l7.923-4.968-.343-.637-8.309 5.209c.239.14.485.264.729.396z" class="cls-214"/><path d="M70.726 69.807l8.31-5.21c-.116-.213-.23-.423-.344-.636l-8.647 5.42c.227.143.449.29.681.426z" class="cls-215"/><path d="M70.045 69.382l8.647-5.421-.344-.637-8.974 5.626c.22.148.445.29.671.432z" class="cls-216"/><path d="M69.374 68.95l8.974-5.626-.343-.637-9.273 5.813c.211.153.424.302.642.45z" class="cls-217"/><path d="M68.732 68.5l9.273-5.813-.018-.034-.33-.6-9.537 5.979c.202.157.403.316.612.468z" class="cls-218"/><path d="M67.59 67.626c.168.14.355.269.53.406l9.537-5.98-.347-.634-9.795 6.14.075.068z" class="cls-219"/><path d="M67.515 67.559l9.795-6.14-.348-.635-10.007 6.273c.187.168.37.342.56.502z" class="cls-220"/><path d="M66.955 67.057l10.007-6.273-.347-.635-10.22 6.407c.185.175.374.334.56.501z" class="cls-221"/><path d="M66.395 66.556l10.22-6.406-.352-.633-10.39 6.514c.175.175.346.357.522.525z" class="cls-222"/><path d="M65.874 66.03l10.39-6.513-.352-.632-10.557 6.618c.172.182.345.354.519.528z" class="cls-223"/><path d="M65.853 64.34l-.723.933c.074.08.15.152.225.23l10.557-6.618-.352-.631zm-.994.622c.09.102.18.212.271.311l.723-.934z" class="cls-224"/><path d="M67.133 62.685l-1.28 1.654 9.707-6.085-.351-.632z" class="cls-225"/><path d="M67.133 62.685l-2.755 1.727c.16.186.32.371.48.55l.995-.623z" class="cls-225"/><path d="M68.412 61.03l-1.28 1.655 8.077-5.063-.029-.051-.327-.579z" class="cls-226"/><path d="M68.412 61.03l-4.51 2.828c.157.192.317.369.476.554l2.755-1.727z" class="cls-226"/><path d="M69.692 59.375l-1.28 1.655 6.441-4.038-.356-.629z" class="cls-227"/><path d="M69.692 59.375l-6.238 3.911c.15.19.297.389.447.572l4.511-2.828z" class="cls-227"/><path d="M70.972 57.72l-1.28 1.655 4.805-3.012-.355-.63z" class="cls-228"/><path d="M70.972 57.72l-7.965 4.994c.148.196.298.383.447.572l6.238-3.91z" class="cls-228"/><path d="M70.766 56.998l1.154-.502-.948 1.225 3.17-1.987-.356-.63zm-8.192 5.135c.073.101.146.208.22.307l.766-.924z" class="cls-229"/><path d="M63.007 62.714l7.965-4.993.948-1.225-1.154.502-7.206 4.518-.766.924.012.018c.066.09.134.169.2.256z" class="cls-229"/><path d="M65.029 59.742l-2.876 1.803c.14.2.28.395.421.588l.986-.617zm1.296-.812l4.441-1.932 3.02-1.893c-.12-.212-.24-.417-.36-.627z" class="cls-230"/><path d="M65.029 59.742l-1.469 1.774 7.206-4.518-4.441 1.932-1.296.812z" class="cls-230"/><path d="M65.35 59.354l.975-.424 7.101-4.452-.36-.627-11.323 7.099q.204.301.41.595l2.876-1.803z" class="cls-231"/><path d="M65.351 59.354l-.322.388 1.296-.812-.974.424z" class="cls-231"/><path d="M73.066 53.851l-.36-.626-11.363 7.123q.2.305.4.602z" class="cls-232"/><path d="M72.706 53.225l-.36-.626-11.394 7.143q.195.307.391.607z" class="cls-233"/><path d="M72.346 52.599l-.02-.034-.345-.59-11.41 7.153c.126.207.253.412.38.613z" class="cls-234"/><path d="M71.98 51.975c-.121-.21-.242-.416-.364-.624l-11.421 7.16c.124.21.25.413.375.617z" class="cls-235"/><path d="M71.616 51.351l-.365-.623-11.42 7.16c.12.208.242.42.364.624z" class="cls-236"/><path d="M71.251 50.728c-.12-.206-.244-.42-.365-.624l-11.418 7.158.032.058c.11.195.22.378.33.567z" class="cls-237"/><path d="M70.886 50.104c-.124-.21-.245-.412-.37-.62l-11.39 7.141c.114.208.227.434.342.637z" class="cls-238"/><path d="M70.517 49.484c-.124-.21-.247-.414-.37-.62l-11.365 7.124c.114.213.229.43.343.637z" class="cls-239"/><path d="M70.147 48.863c-.123-.207-.247-.416-.37-.62L58.44 55.35c.114.217.229.425.343.637z" class="cls-240"/><path d="M69.777 48.243c-.109-.183-.22-.373-.33-.554l-.04-.067-11.311 7.092c.114.221.229.42.343.637z" class="cls-241"/><path d="M69.407 47.622c-.128-.212-.249-.406-.376-.616l-8.614 5.4c.175.052.341.115.521.16l.02.001.008.001h-.023.022-.02l.014.004.008.002a15.38 15.38 0 0 1-.612-.02c-.053-.002-.104-.007-.157-.01l-2.422 1.518c.107.212.213.443.32.652z" class="cls-242"/><path d="M60.966 52.568h-.008l-.02-.002.005.002z" class="cls-242"/><path d="M69.031 47.006l-.376-.617-9.134 5.727c.288.11.592.2.896.29zm-9.271 5.507c-.247-.021-.472-.07-.71-.103l-1.594 1c.107.216.213.44.32.652l2.422-1.518c-.148-.01-.296-.019-.439-.03z" class="cls-243"/><path d="M56.697 51.86c.252.538.506 1.035.76 1.55l1.594-1a10.897 10.897 0 0 1-2.354-.55zm11.958-5.47c-.488-.805-.98-1.62-1.457-2.39l-.217-.348-10.634 6.667a12.19 12.19 0 0 0 3.174 1.797z" class="cls-243"/><path d="M66.981 43.652c-.172-.277-.344-.555-.515-.828-.403-.645-.798-1.269-1.192-1.888l-9.445 5.921a15.505 15.505 0 0 0 2.308.858h.012l.003.003h.001l-.002-.002.002.002h.004-.008l.011.001-.005-.001.005.001h-.01l.002.002.005.002a10.562 10.562 0 0 1-.952-.044 11.386 11.386 0 0 1-2.046-.401l-1.156.724a15.123 15.123 0 0 0 2.344 2.317z" class="cls-244"/><path d="M58.153 47.718l-.003-.003h-.013l.012.004h.008z" class="cls-244"/><path d="M65.274 40.936l-.234-.372q-.653-1.02-1.285-1.995l-.216-.332-10.676 6.693a11.083 11.083 0 0 0 1.943 1.43c.32.185.676.337 1.023.497zm-12.505 5.422a20.66 20.66 0 0 0 1.234 1.644l1.156-.724a13.283 13.283 0 0 1-2.39-.92z" class="cls-245"/><path d="M63.334 37.923l-.067-.1h-.03l-.3.006-.6.01-.6.01-.598.01-.6.011-.6.01-.599.01-.6.01-.599.011-.125.002-7.219 4.526c.041.062.073.116.115.18.135.203.273.409.417.619.11.144.22.283.333.42a12.272 12.272 0 0 0 1.147 1.225c.018.016.036.03.054.047l10.676-6.693-.205-.314zm-5.318-.01l-.474.008-.126.003-6.785 4.253c.057.09.107.171.166.262z" class="cls-246"/><path d="M57.416 37.924l-.473.008-.126.002-6.352 3.982.166.262z" class="cls-247"/><path d="M56.817 37.934l-.474.008-.125.002-5.92 3.711c.053.085.112.174.167.261z" class="cls-248"/><path d="M56.218 37.944l-.474.008-.126.003-5.486 3.439c.051.083.114.176.167.261z" class="cls-249"/><path d="M55.618 37.955l-.474.008-.125.002-5.046 3.163c.053.09.103.174.16.266z" class="cls-250"/><path d="M55.019 37.965l-.474.008-.126.002-4.602 2.885c.053.091.1.175.156.268z" class="cls-251"/><path d="M54.42 37.975l-.474.008-.126.002-4.16 2.608.157.267z" class="cls-252"/><path d="M53.82 37.985l-.456.008h-.003l-.127-.006-3.73 2.338c.049.086.106.18.157.268z" class="cls-253"/><path d="M52.844 37.972c-.046-.003-.099-.011-.146-.014l-.026.016z" class="cls-254"/><path d="M53.234 37.987l-.176-.006-.147-.005c-.022-.003-.045-.002-.068-.004h.003-.002l-.172.002-3.32 2.082.044.083c.032.058.075.127.109.186z" class="cls-254"/><path d="M52.912 37.976l.146.005-.146-.006-.066-.003h-.003c.023.002.046.001.069.004z" class="cls-254"/><path d="M52.672 37.974l-.597.009-2.869 1.798c.05.093.092.177.146.275z" class="cls-255"/><path d="M52.672 37.974l.026-.016c-.163-.011-.336-.032-.506-.049l-.117.074z" class="cls-255"/><path fill="#d02d33" d="M52.075 37.983l-.597.008-2.417 1.516.145.274zm0 0l.117-.074c-.17-.017-.332-.026-.505-.048l-.209.13z"/><path d="M50.882 38l.596-.009.209-.13c-.155-.02-.308-.051-.464-.075zm.596-.009l-.596.009-1.966 1.232c.044.087.098.185.145.275z" class="cls-129"/><path d="M50.285 38.009l.597-.009.341-.214a18.166 18.166 0 0 1-.461-.076zm0 0l-1.51.946.08.164c.018.035.043.078.06.113L50.883 38z" class="cls-130"/><path d="M49.926 38.014l.359-.005.477-.3c-.152-.027-.3-.053-.448-.084l-1.674 1.05.035.078.1.202 1.51-.946z" class="cls-131"/><path d="M50.314 37.625c-.146-.03-.28-.068-.42-.102l-1.382.866c.044.098.078.18.128.285z" class="cls-132"/><path d="M49.893 37.523c-.14-.034-.286-.064-.42-.102l-1.09.683.129.285z" class="cls-133"/><path d="M49.472 37.422c-.138-.038-.261-.08-.391-.12l-.825.517c.034.084.088.194.128.285z" class="cls-134"/><path d="M49.081 37.301c-.132-.042-.251-.087-.372-.132l-.567.356c.035.093.064.175.107.279l.007.015z" class="cls-135"/><path d="M48.709 37.17c-.122-.046-.264-.085-.373-.133l-.307.193c.03.087.074.195.113.295z" class="cls-136"/><path d="M48.336 37.037h-.002c-.118-.052-.217-.109-.318-.165l-.086.054c.03.094.058.188.099.304z" class="cls-137"/><path d="M47.892 36.808l.038.118.086-.054c-.04-.021-.087-.041-.124-.064z" class="cls-138"/><path d="M63.237 37.824h.03l-.095-.143-.234.147z" class="cls-130"/><path d="M62.937 37.829l.3-.005-.299.004-.001.001z" class="cls-130"/><path d="M62.938 37.828l.234-.147-.17-.258-.66.413z" class="cls-131"/><path d="M62.342 37.836l-.005.003.6-.01.001-.001-.596.008z" class="cls-131"/><path d="M61.746 37.845l.596-.009.66-.413-.172-.258z" class="cls-132"/><path d="M61.746 37.845l-.008.004.599-.01.005-.003-.596.009z" class="cls-132"/><path d="M61.15 37.853l.596-.008 1.084-.68-.17-.259z" class="cls-133"/><path d="M61.149 37.853l-.01.007.599-.011.008-.004-.597.008z" class="cls-133"/><path d="M60.553 37.861l.596-.008 1.51-.947-.17-.258zm0 0l-.014.009.6-.01.01-.007-.596.008z" class="cls-134"/><path d="M59.957 37.87l.596-.009 1.935-1.213-.17-.258z" class="cls-135"/><path d="M59.957 37.87l-.017.01.599-.01.014-.009-.596.009z" class="cls-135"/><path d="M59.36 37.878l.597-.008 2.36-1.48-.17-.259z" class="cls-136"/><path d="M59.36 37.878l-.02.013.6-.011.017-.01-.597.008z" class="cls-136"/><path d="M58.764 37.886l.596-.008 2.786-1.747-.17-.258zm0 0l-.023.015.599-.01.02-.013-.596.008z" class="cls-137"/><path d="M58.168 37.895l.596-.009 3.211-2.013-.17-.258zm0 0l-.027.016.6-.01.023-.015-.596.009z" class="cls-138"/><path d="M57.571 37.903l.472-.006.125-.002 3.636-2.28-.171-.258z" class="cls-139"/><path d="M58.043 37.897l-.027.016.125-.002.027-.016-.125.002zm-.472.006l-.029.018.474-.008.027-.016-.472.006z" class="cls-139"/><path d="M56.975 37.912l.471-.007.125-.002 4.062-2.546-.174-.256z" class="cls-140"/><path d="M57.446 37.905l-.03.019.126-.003.029-.018-.125.002z" class="cls-140"/><path d="M56.975 37.912l-.032.02.473-.008.03-.019-.471.007z" class="cls-140"/><path d="M56.379 37.92l.47-.007.126-.001 4.484-2.811-.174-.257z" class="cls-141"/><path d="M56.85 37.913l-.033.021.126-.002.032-.02-.125.001z" class="cls-141"/><path d="M56.379 37.92l-.036.022.474-.008.033-.021-.471.007z" class="cls-141"/><path d="M55.782 37.928l.472-.006.125-.002 4.906-3.076-.174-.256z" class="cls-142"/><path d="M56.254 37.922l-.036.022.125-.002.036-.022-.125.002z" class="cls-142"/><path d="M55.782 37.928l-.038.024.474-.008.036-.022-.472.006z" class="cls-142"/><path d="M55.186 37.937l.471-.007.125-.002 5.329-3.34-.174-.257z" class="cls-143"/><path d="M55.657 37.93l-.039.025.126-.003.038-.024-.125.002z" class="cls-143"/><path d="M55.186 37.937l-.042.026.474-.008.039-.025-.471.007z" class="cls-143"/><path d="M54.59 37.945l.47-.007.126-.001 5.75-3.606-.173-.256z" class="cls-144"/><path d="M55.061 37.938l-.042.027.125-.002.042-.026-.125.001zm-.471.007l-.045.028.474-.008.042-.027-.471.007z" class="cls-144"/><path d="M53.993 37.953l.472-.006.125-.002 6.173-3.87-.174-.257z" class="cls-145"/><path d="M54.465 37.947l-.046.028.126-.002.045-.028-.125.002z" class="cls-145"/><path d="M53.993 37.953l-.047.03.473-.008.046-.028-.472.006z" class="cls-145"/><path d="M53.354 37.989h.001-.001zm.004.002h-.002l.005.001h.002l-.005-.001zm.039-.029l.471-.007.125-.002 6.596-4.135-.174-.256zm-.042.027h-.002l.003.002h.002l-.003-.002z" class="cls-146"/><path d="M53.868 37.955l-.048.03.126-.002.047-.03-.125.002z" class="cls-146"/><path d="M53.397 37.962l-.043.027h.001l.004.002h-.001l.005.001h-.002l.003.001.456-.008.048-.03-.471.007z" class="cls-146"/><path d="M53.359 37.991l-.004-.002.003.002h.001z" class="cls-146"/><path d="M53.354 37.989a.542.542 0 0 0-.068-.026l.11-.001 7.019-4.4-.174-.256-7.265 4.554c.119.04.227.081.351.12l.027.009zm0 0l-.027-.008.026.008z" class="cls-147"/><path d="M53.286 37.963a.542.542 0 0 1 .068.026l.043-.027z" class="cls-147"/><path d="M60.24 33.306c-.032-.048-.066-.1-.099-.147l-.075-.109-7.467 4.681.377.13z" class="cls-148"/><path d="M60.066 33.05l-.177-.255-7.663 4.804c.119.044.25.088.373.132z" class="cls-149"/><path d="M59.889 32.795l-.177-.254-7.84 4.915c.119.048.23.096.354.143z" class="cls-150"/><path d="M59.712 32.54l-.177-.254-8.018 5.027c.113.048.236.095.355.143z" class="cls-151"/><path d="M59.535 32.286l-.177-.254-8.183 5.13c.111.05.225.101.342.151z" class="cls-152"/><path d="M59.358 32.032l-.177-.255-8.337 5.227c.109.053.217.106.33.158z" class="cls-153"/><path d="M59.18 31.777l-.176-.254-8.49 5.323c.103.054.221.105.33.158z" class="cls-154"/><path d="M59.004 31.523l-.177-.255-8.62 5.404c.103.057.199.117.306.174z" class="cls-155"/><path d="M58.827 31.268l-.177-.254-8.748 5.484c.098.06.203.116.305.174z" class="cls-156"/><path d="M58.65 31.014l-.177-.255-8.863 5.557c.095.06.192.122.292.182z" class="cls-157"/><path d="M58.473 30.76l-.18-.253-8.965 5.62c.093.063.186.127.282.189z" class="cls-158"/><path d="M58.292 30.507l-.18-.252-9.06 5.68c.088.065.184.128.276.191z" class="cls-159"/><path d="M58.112 30.255l-.18-.253-9.139 5.729c.086.068.17.138.258.204z" class="cls-160"/><path d="M57.931 30.002l-.18-.252-9.216 5.777c.084.07.172.136.258.204z" class="cls-161"/><path d="M57.75 29.75l-.18-.252-9.277 5.815c.08.072.16.145.242.214z" class="cls-162"/><path d="M57.57 29.498l-.18-.253-9.335 5.852c.079.074.158.145.238.216z" class="cls-163"/><path d="M57.39 29.245l-.181-.252-9.385 5.884c.076.075.154.147.231.22z" class="cls-164"/><path d="M57.209 28.993c-.06-.082-.122-.17-.18-.252l-9.427 5.909c.074.076.147.153.222.227z" class="cls-165"/><path d="M57.028 28.74c-.06-.08-.122-.17-.18-.251l-9.467 5.934c.073.079.148.151.221.227z" class="cls-166"/><path d="M56.847 28.489l-.008-.013c-.06-.083-.116-.155-.176-.237l-9.489 5.948c.06.068.12.143.18.21l.027.026z" class="cls-167"/><path d="M56.663 28.239c-.062-.087-.121-.165-.184-.25l-9.51 5.961c.069.078.137.16.205.237z" class="cls-168"/><path d="M56.48 27.989l-.185-.25-9.53 5.974c.068.08.136.16.205.237z" class="cls-169"/><path d="M56.295 27.739l-.184-.25-9.55 5.987.204.237z" class="cls-170"/><path d="M56.11 27.489l-.184-.25-9.57 6c.068.081.136.157.204.237z" class="cls-171"/><path d="M55.926 27.239l-.184-.25L46.152 33l.023.029c.06.072.12.137.18.209z" class="cls-172"/><path d="M55.742 26.989l-.184-.25-9.599 6.017c.065.079.128.167.193.245z" class="cls-173"/><path d="M55.558 26.739c-.061-.082-.124-.17-.185-.25l-9.606 6.023c.064.08.128.165.192.244z" class="cls-174"/><path d="M55.373 26.489l-.184-.25-9.615 6.028c.064.08.128.165.193.245z" class="cls-175"/><path d="M55.189 26.239l-.186-.25-9.622 6.033.193.245z" class="cls-176"/><path d="M55.003 25.99c-.064-.086-.124-.162-.188-.247l-9.627 6.035.193.244z" class="cls-177"/><path d="M54.815 25.742l-.189-.247-9.63 6.038c.063.083.128.163.192.245z" class="cls-178"/><path d="M54.626 25.495l-.188-.247-9.635 6.04c.063.084.128.162.192.245z" class="cls-179"/><path d="M54.438 25.248L54.249 25l-9.64 6.043c.064.084.13.161.194.244z" class="cls-180"/><path d="M54.25 25l-.19-.247-9.643 6.046c.063.085.13.16.193.245z" class="cls-181"/><path d="M54.06 24.753l-.188-.247-9.638 6.042c.062.084.12.168.183.251z" class="cls-182"/><path d="M53.872 24.506l-.188-.247-9.63 6.037c.06.084.118.17.18.252z" class="cls-183"/><path d="M53.684 24.259l-.189-.248-9.622 6.033c.061.083.119.169.18.252z" class="cls-184"/><path d="M53.495 24.011l-.095-.125-.094-.121-9.613 6.026.18.253z" class="cls-185"/><path d="M53.306 23.765l-.103-.133-.089-.113-9.602 6.02.18.252z" class="cls-186"/><path d="M53.114 23.52l-.192-.246-9.59 6.013.18.252z" class="cls-187"/><path d="M52.922 23.274l-.192-.245-9.579 6.005c.06.085.121.168.18.253z" class="cls-188"/><path d="M52.73 23.03l-.193-.246-9.566 5.998c.059.085.121.167.18.252z" class="cls-4"/><path d="M52.537 22.784l-.192-.245-9.554 5.99c.058.085.121.168.18.253z" class="cls-189"/><path d="M52.345 22.54l-.194-.244-9.539 5.98.044.065c.043.064.091.125.135.188z" class="cls-190"/><path d="M52.15 22.296l-.194-.244-9.515 5.966.171.258z" class="cls-191"/><path d="M51.956 22.052l-.195-.243-9.491 5.95.171.259z" class="cls-192"/><path d="M51.76 21.81l-.194-.244-9.468 5.935.172.258z" class="cls-193"/><path d="M51.566 21.566l-.196-.243-9.443 5.92.171.258z" class="cls-194"/><path d="M51.173 21.082l-9.413 5.9c.056.088.11.174.167.261l9.443-5.92-.197-.241z" class="cls-195"/><path d="M50.975 20.84l-9.38 5.88c.055.088.109.175.165.262l9.413-5.9-.198-.242z" class="cls-196"/><path d="M50.777 20.599l-9.347 5.86.165.262 9.38-5.881-.198-.241z" class="cls-197"/><path d="M50.58 20.357l-9.316 5.84.166.262 9.347-5.86-.197-.242z" class="cls-198"/><path d="M50.38 20.117l-9.28 5.817.163.263 9.316-5.84-.2-.24z" class="cls-199"/><path d="M50.179 19.877l-9.237 5.79c.054.09.104.177.159.267l9.278-5.817-.2-.24z" class="cls-200"/><path d="M49.978 19.637l-9.194 5.765.158.266 9.237-5.79-.2-.24z" class="cls-201"/><path d="M49.77 19.388c-1.59.118-3.636.163-5.781.155l-.335-.002a148.298 148.298 0 0 1-5.652-.143c.186.605.407 1.237.672 1.898a25.542 25.542 0 0 0 1.192 2.5c.28.517.591 1.057.918 1.606l9.194-5.765-.208-.25zm-.001-.001l.001.001-.001-.001z" class="cls-201"/><path d="M43.989 19.544l-.335-.003c.112 0 .223.002.335.003z" class="cls-201"/><path d="M85.505 85.961l.076-.18-.072.045c.002.046-.007.09-.004.135z" class="cls-81"/><path d="M85.509 85.826l.072-.045c.18-.439.368-.861.566-1.26l-.616.386a6.554 6.554 0 0 0-.022.92z" class="cls-82"/><path d="M85.724 83.881a6.283 6.283 0 0 0-.193 1.026l.616-.386a8.555 8.555 0 0 1 .892-1.464z" class="cls-83"/><path d="M86.172 82.696a6.194 6.194 0 0 0-.448 1.185l1.315-.824a3.764 3.764 0 0 1 .966-.909l-.225-.46z" class="cls-84"/><path d="M86.997 81.412a6.43 6.43 0 0 0-.825 1.284l1.608-1.009-.337-.693-.725.454c.094-.015.184-.02.279-.036z" class="cls-85"/><path d="M84.896 81.685a26.437 26.437 0 0 0 1.822-.237l.725-.454-.338-.693z" class="cls-86"/><path d="M83.339 81.757c.513-.01 1.028-.025 1.557-.072l2.209-1.384-.339-.693z" class="cls-87"/><path d="M81.949 81.723c.457.025.917.043 1.39.034l3.427-2.149-.34-.692z" class="cls-88"/><path d="M80.678 81.615c.414.055.84.085 1.27.108l4.478-2.807-.25-.506c-.032-.061-.062-.123-.093-.184z" class="cls-89"/><path d="M79.546 81.42q.555.118 1.132.195l5.405-3.389-.205-.41-.03-.062-.11-.217z" class="cls-90"/><path d="M78.534 81.149c.333.1.665.197 1.012.27l6.192-3.882c-.116-.233-.23-.455-.347-.687z" class="cls-91"/><path d="M77.576 80.845c.308.121.636.207.958.304l6.857-4.299c-.116-.232-.231-.457-.347-.687z" class="cls-92"/><path d="M76.762 80.45c.27.134.53.283.814.395l7.468-4.682-.347-.688z" class="cls-93"/><path d="M75.959 80.048c.255.155.534.27.803.402l7.935-4.975-.348-.687z" class="cls-94"/><path d="M78.04 77.913l.017.005-.018-.005c-.054.01-.1.013-.154.022l-2.592 1.625c.223.162.431.346.666.488l8.39-5.26c-.115-.227-.232-.462-.347-.687l-6.04 3.786c.027.009.05.018.077.026z" class="cls-95"/><path d="M76.18 78.099l-1.552.973c.21.182.443.327.665.488l2.592-1.624a10.253 10.253 0 0 1-1.704.163zm1.782-.212l6.04-3.786-.237-.47h.001l-.112-.217-6.636 4.16c.307.106.612.211.944.313z" class="cls-96"/><path d="M83.061 72.88l-6.957 4.362c.293.112.598.224.914.332l6.636-4.16c-.092-.18-.184-.361-.278-.54h-.001v.002zm-8.122 5.093l-.86.539c.183.186.354.392.55.56l1.552-.973a5.776 5.776 0 0 1-1.242-.126z" class="cls-97"/><path d="M83.061 72.88l.315-.004-.001-.002-.301-.001-.013.007z" class="cls-97"/><path d="M83.061 72.88l-.946.014-.532.008-6.36 3.988c.277.121.58.236.881.352zm-9.059 4.775l-.462.29c.17.203.356.382.538.567l.86-.54a4.416 4.416 0 0 1-.936-.317z" class="cls-98"/><path d="M83.061 72.88l.013-.007-.922-.002-.037.023.946-.014z" class="cls-98"/><path d="M82.115 72.894l.037-.023-.517-.001-.052.032.532-.008z" class="cls-98"/><path d="M81.583 72.902l-.86.013-.525.008c.06-.02.123-.036.183-.056l-.183.053c-.05.016-.098.023-.148.038L74.4 76.5c.267.133.534.265.822.39zm-8.323 4.314l-.195.122c.095.131.18.276.28.402.06.075.133.131.195.205l.462-.29a4.535 4.535 0 0 1-.743-.44z" class="cls-99"/><path d="M81.583 72.902l.052-.032-.838-.002-.074.047.86-.013zm-.86.013l.074-.047h-.417c-.06.02-.122.035-.182.055z" class="cls-99"/><path d="M72.64 76.699l-.014.009c.137.223.29.424.439.63l.194-.122a5.69 5.69 0 0 1-.62-.517zm5.214-3.269l-4.23 2.652c.25.143.507.284.777.418l5.65-3.542a14.372 14.372 0 0 1-2.197.472z" class="cls-100"/><path d="M76.218 73.551l-3.327 2.086c.234.154.482.3.734.445l4.23-2.652a12.641 12.641 0 0 1-1.637.121zm-3.631 3.101c.012.02.026.036.039.056l.014-.009c-.018-.017-.036-.03-.053-.047z" class="cls-101"/><path d="M74.88 73.485l-2.671 1.674c.219.166.448.323.682.478l3.327-2.086a11.858 11.858 0 0 1-1.338-.066z" class="cls-102"/><path d="M73.718 73.308l-2.133 1.337c.204.176.408.351.624.514l2.671-1.674a11.59 11.59 0 0 1-1.162-.177z" class="cls-103"/><path d="M72.68 73.054l-1.684 1.055c.192.186.39.364.589.536l2.133-1.337a11.637 11.637 0 0 1-1.038-.254z" class="cls-104"/><path d="M71.777 72.715l-1.337.838c.18.196.37.375.556.556l1.684-1.055c-.302-.093-.602-.22-.903-.339z" class="cls-105"/><path d="M71.777 72.715c-.288-.114-.576-.225-.863-.364l-.982.616c.168.198.336.401.508.586z" class="cls-106"/><path d="M70.914 72.35c-.258-.125-.515-.274-.771-.42l-.702.44c.068.085.136.18.203.263.095.118.192.22.288.334z" class="cls-107"/><path d="M69.4 71.49l-.428.268c.157.213.313.412.47.611l.7-.44c-.247-.14-.495-.279-.741-.44z" class="cls-108"/><path d="M68.725 71.008l-.199.125c.15.211.3.426.446.625l.429-.268c-.227-.148-.451-.317-.676-.482z" class="cls-109"/><path d="M68.152 70.6c.126.187.25.355.375.533l.198-.125c-.19-.14-.384-.257-.573-.409z" class="cls-110"/><path d="M204.595 133.236a20.691 20.691 0 0 0-7.152-4.506 30.127 30.127 0 0 0-19.787 0 20.714 20.714 0 0 0-7.152 4.506 18.6 18.6 0 0 0-4.316 6.585 21.922 21.922 0 0 0-1.45 7.97 22.589 22.589 0 0 0 1.45 8.098 18.759 18.759 0 0 0 4.316 6.681 20.456 20.456 0 0 0 7.152 4.537 30.148 30.148 0 0 0 19.787 0 20.434 20.434 0 0 0 7.152-4.537 18.726 18.726 0 0 0 4.317-6.68 22.589 22.589 0 0 0 1.45-8.098 21.922 21.922 0 0 0-1.45-7.971 18.567 18.567 0 0 0-4.317-6.585zm-.818 20.701a12.553 12.553 0 0 1-3.498 4.537 16.107 16.107 0 0 1-5.513 2.866 26.3 26.3 0 0 1-14.431 0 16.113 16.113 0 0 1-5.515-2.866 12.566 12.566 0 0 1-3.497-4.537 14.276 14.276 0 0 1-1.229-6.019 14.07 14.07 0 0 1 1.229-5.987 12.66 12.66 0 0 1 3.497-4.505 16.198 16.198 0 0 1 5.515-2.867 26.331 26.331 0 0 1 14.43 0 16.192 16.192 0 0 1 5.514 2.867 12.647 12.647 0 0 1 3.498 4.505 14.07 14.07 0 0 1 1.228 5.987 14.276 14.276 0 0 1-1.228 6.02zm-37.4-35.951h43.04v-6.112H193.22v-4.852a40.911 40.911 0 0 0-.756-8.256 17.852 17.852 0 0 0-2.426-6.206 11.11 11.11 0 0 0-4.348-3.907 14.176 14.176 0 0 0-6.46-1.355q-6.93 0-10.428 4.946-3.497 4.948-3.498 14.147 0 2.648.221 5.83a34.53 34.53 0 0 0 .85 5.765zm4.662-16.762a11.475 11.475 0 0 1 1.356-3.875 7.372 7.372 0 0 1 2.615-2.647 8.029 8.029 0 0 1 4.159-.977 8.894 8.894 0 0 1 4.348.945 6.85 6.85 0 0 1 2.677 2.679 12.802 12.802 0 0 1 1.388 4.253 35.498 35.498 0 0 1 .409 5.67v4.602h-17.14q-.188-2.081-.19-5.986a27.632 27.632 0 0 1 .378-4.664zm38.377-49.781h-5.229v22.118h-15.125V55.287h-5.104v18.274h-12.981V53.018h-5.23v26.656h43.669V51.443zm0-13.738h-34.09q2.015-1.763 4.662-3.844 2.648-2.08 5.64-4.285 2.994-2.205 6.207-4.443 3.214-2.236 6.333-4.316 3.119-2.08 6.019-3.876 2.898-1.796 5.23-3.182V8.655h-43.67v5.986h32.326q-3.338 2.017-7.625 4.947-4.283 2.93-8.727 6.238-4.443 3.308-8.633 6.68-4.19 3.372-7.34 6.333v4.852h43.668z" class="cls-5"/><path d="M334.676 92.126q0 3.924.224 8.408.225 4.373.674 9.082l-77.718-98.1a29.5 29.5 0 0 0-2.808-3.028 9.001 9.001 0 0 0-2.583-1.681 9.571 9.571 0 0 0-3.032-.897 32.262 32.262 0 0 0-4.156-.225h-19.99v163.351h33.468V81.475q0-3.588-.225-7.624-.225-4.148-.562-8.408l77.157 97.315a19.011 19.011 0 0 0 5.84 4.933 18.242 18.242 0 0 0 7.412 1.346h19.767V5.686h-33.468z" class="cls-2"/><path d="M416.906 138.765V5.685h-37.961v163.351h98.608v-30.27h-60.647v-.001z" class="cls-4"/><path d="M596.17 21.045q-7.973-7.175-20.44-11.211-12.354-4.149-29.65-4.149h-57.726v163.351h37.96v-54.6h19.767q16.959 0 29.312-4.036a57.238 57.238 0 0 0 20.553-11.435 44.993 44.993 0 0 0 12.017-17.49 61.877 61.877 0 0 0 3.931-22.423 57.31 57.31 0 0 0-3.819-21.078 43.673 43.673 0 0 0-11.904-16.929zm-28.75 57.74q-6.514 7.062-21.34 7.062h-19.765V34.05h19.766a37.796 37.796 0 0 1 12.354 1.794 22.047 22.047 0 0 1 8.648 5.157 19.98 19.98 0 0 1 5.166 7.848 29.465 29.465 0 0 1 1.684 10.203q0 12.669-6.513 19.732z" class="cls-3"/><path d="M615.469 7.27h4.11v11.483h1.829V7.27h4.112V5.686h-10.051V7.27zm24.57-1.584h-1.604q-.508.829-1.093 1.96-.584 1.131-1.17 2.368-.585 1.233-1.13 2.47l-1 2.252-1-2.252q-.546-1.236-1.13-2.47-.586-1.236-1.17-2.367-.584-1.13-1.094-1.96h-1.602q-.17 1.413-.312 2.997-.142 1.584-.264 3.252-.121 1.67-.216 3.394-.096 1.726-.17 3.423h1.792q.094-2.64.226-5.232.13-2.593.339-4.818c.126.213.292.521.5.924s.43.858.67 1.366q.357.764.763 1.622.405.858.764 1.67.357.81.669 1.507.31.698.5 1.15h1.47q.188-.45.5-1.15l.67-1.507q.357-.81.764-1.67.405-.858.763-1.622.357-.762.67-1.366.31-.604.499-.924.208 2.226.34 4.818.13 2.593.226 5.232H641q-.32-6.75-.961-13.067z" class="cls-5"/></svg>