<svg xmlns="http://www.w3.org/2000/svg" role="img" viewBox="-7.17 -7.17 373.10 82.10"><title>OpenLineage logo</title><defs><style>.cls-1{fill:#74a4bc}</style></defs><path d="M333.96 0H135.5v67.97h200.44l23.03-33.99L333.96 0z" class="cls-1"/><path fill="#fff" d="M166.53 48.49a1.48 1.48 0 0 1 .45 1.12 1.54 1.54 0 0 1-1.48833 1.59q-.05082.00168-.10167 0h-19a1.56 1.56 0 0 1-1.59978-1.51917q-.00091-.03542-.00023-.07083v-34a1.5 1.5 0 0 1 .48-1.14 1.72 1.72 0 0 1 1.22-.45 1.63 1.63 0 0 1 1.17.45 1.5 1.5 0 0 1 .48 1.14v32.46h17.22a1.61 1.61 0 0 1 1.17001.42zm5.6-28.98a1.82 1.82 0 0 1-.58-1.46v-.53a1.76 1.76 0 0 1 .61-1.46 2.54 2.54 0 0 1 1.67-.51c1.42 0 2.13.66 2.13 2v.53a1.88006 1.88006 0 0 1-.56 1.46 2.31 2.31 0 0 1-1.62.5 2.43 2.43 0 0 1-1.65-.53zm2.79 31.24a1.59 1.59 0 0 1-2.73-1.14V25.17a1.58 1.58 0 0 1 .45-1.15 1.67 1.67 0 0 1 2.28 0 1.58 1.58 0 0 1 .45 1.15v24.44a1.54 1.54 0 0 1-.45 1.14zm28.8-24.44A12 12 0 0 1 206 34v15.61a1.5 1.5 0 0 1-.48 1.14 1.64 1.64 0 0 1-2.26 0 1.54 1.54 0 0 1-.45-1.14V34.15a8.7 8.7 0 0 0-1.72-5.61 6.47 6.47 0 0 0-5.34-2.15 9.53 9.53 0 0 0-7.65 3.9 6.44994 6.44994 0 0 0-1.28 3.86v15.46a1.54 1.54 0 0 1-1.48832 1.59q-.05082.00168-.10167 0a1.57 1.57 0 0 1-1.15-.45 1.54 1.54 0 0 1-.45-1.14V25.8a1.54 1.54 0 0 1 .45-1.14 1.57 1.57 0 0 1 1.15-.45 1.54 1.54 0 0 1 1.59 1.48832q.00168.05083 0 .10168v2.93a11.25 11.25 0 0 1 4.12-3.8 11.06 11.06 0 0 1 5.5-1.52q4.95999 0 7.27999 2.9zm33.13 10.84a1.6 1.6 0 0 1-1.12.45h-20.08a12.22 12.22 0 0 0 1.3 5.71 9.93 9.93 0 0 0 3.72 4 10.85 10.85 0 0 0 5.71 1.46 9.66 9.66 0 0 0 4.62-1.08 9.4001 9.4001 0 0 0 3.19-2.69 1.83 1.83 0 0 1 1.12-.47 1.31993 1.31993 0 0 1 .95.42 1.35 1.35 0 0 1 .43 1 1.55 1.55 0 0 1-.54 1.11 13.10005 13.10005 0 0 1-4.27 3.4 11.7 11.7 0 0 1-5.45 1.33 14.51 14.51 0 0 1-7.22-1.79 12.44 12.44 0 0 1-4.89-4.92 14.77 14.77 0 0 1-1.75-7.3 16.14 16.14 0 0 1 1.72-7.63 12.50992 12.50992 0 0 1 4.6-5 11.66 11.66 0 0 1 6.11-1.74 12.52 12.52 0 0 1 6 1.49 11.80985 11.80985 0 0 1 4.55 4.36 13.07 13.07 0 0 1 1.8 6.8 1.48005 1.48005 0 0 1-.5 1.09zm-17.56-8.53a9.84008 9.84008 0 0 0-3.38 6.11H234v-.42a8.47989 8.47989 0 0 0-1.59-4.18 8.74006 8.74006 0 0 0-3.33-2.7 9.59 9.59 0 0 0-4.08-.93 8.86 8.86 0 0 0-5.71 2.12zm48.03-4.09a1.65 1.65 0 0 1 .45 1.17v23.91a1.53994 1.53994 0 0 1-.45 1.14 1.58005 1.58005 0 0 1-1.15.45 1.54 1.54 0 0 1-1.59-1.48832q-.00169-.05083 0-.10168v-3.56a11.16024 11.16024 0 0 1-4 4 10.84 10.84 0 0 1-5.79 1.64 11.45006 11.45006 0 0 1-6.4-1.86 12.81008 12.81008 0 0 1-4.46-5.1 16.00017 16.00017 0 0 1-1.62-7.28 15.63982 15.63982 0 0 1 1.69-7.21 12.57 12.57 0 0 1 4.48-5 11.86 11.86 0 0 1 12.11-.24 10.1901 10.1901 0 0 1 4 4v-3.3a1.65 1.65 0 0 1 .45-1.17 1.5 1.5 0 0 1 1.14-.48 1.53 1.53 0 0 1 1.14.48zm-7.23 22.77a9.9 9.9 0 0 0 3.45-4 12.99983 12.99983 0 0 0 1.25-5.77 12.53959 12.53959 0 0 0-1.25-5.63 9.99993 9.99993 0 0 0-3.45-4 8.83 8.83 0 0 0-5-1.46 8.99992 8.99992 0 0 0-5 1.43 9.80005 9.80005 0 0 0-3.45 4 12.74 12.74 0 0 0-1.25 5.71 13.37 13.37 0 0 0 1.22 5.77 9.79 9.79 0 0 0 3.43 4 9.27 9.27 0 0 0 10 0zm40.11-22.8a1.62 1.62 0 0 1 .45 1.2v23a13.82992 13.82992 0 0 1-1.72 7.1 11.49 11.49 0 0 1-4.73 4.49 15 15 0 0 1-6.88 1.54 17.18015 17.18015 0 0 1-3.91-.48 15.83956 15.83956 0 0 1-3.5-1.22c-1-.5-1.54-1-1.68-1.54a1.16 1.16 0 0 1-.37-.85 1 1 0 0 1 .48-.85.84.84 0 0 1 .53-.16 4.00033 4.00033 0 0 1 1.22.37l1.12.48a17.09 17.09 0 0 0 6.16 1.27 10 10 0 0 0 7.41-2.68 9.8 9.8 0 0 0 2.69-7.25v-3.3a9.79985 9.79985 0 0 1-4.2 4.49 12 12 0 0 1-6 1.62 12.3 12.3 0 0 1-6.62-1.83 12.99983 12.99983 0 0 1-4.65-5.07 15.48017 15.48017 0 0 1-1.7-7.28 15.3601 15.3601 0 0 1 1.7-7.23 13.00012 13.00012 0 0 1 4.65-5.07 12.12013 12.12013 0 0 1 6.56-1.84 11.69015 11.69015 0 0 1 6.14 1.68 11.19018 11.19018 0 0 1 4.12 4V25.7a1.65006 1.65006 0 0 1 .45-1.17 1.5 1.5 0 0 1 1.14-.48 1.54 1.54 0 0 1 1.14.45zm-7.44 22.85a9.60011 9.60011 0 0 0 3.62-4 12.76988 12.76988 0 0 0 1.3-5.81 12.64978 12.64978 0 0 0-1.3-5.79 9.63994 9.63994 0 0 0-3.62-4 9.83 9.83 0 0 0-5.23-1.41 9.52993 9.52993 0 0 0-5.18 1.46 10.0898 10.0898 0 0 0-3.61 4 12.30985 12.30985 0 0 0-1.3 5.69 12.3898 12.3898 0 0 0 1.3 5.73 10.11983 10.11983 0 0 0 3.61 4 9.52993 9.52993 0 0 0 5.18 1.46 9.82991 9.82991 0 0 0 5.23-1.33zm37.7-10.2a1.58 1.58 0 0 1-1.12.45h-20.08a12.21967 12.21967 0 0 0 1.3 5.71 9.92991 9.92991 0 0 0 3.72 4 10.86994 10.86994 0 0 0 5.72 1.45 9.63 9.63 0 0 0 4.57-1.07A9.22008 9.22008 0 0 0 327.8 45a1.84991 1.84991 0 0 1 1.12-.47 1.36 1.36 0 0 1 1 .42 1.34 1.34 0 0 1 .42 1 1.57006 1.57006 0 0 1-.53 1.11 13.13989 13.13989 0 0 1-4.28 3.4 11.66015 11.66015 0 0 1-5.44 1.33 14.55 14.55 0 0 1-7.27-1.79 12.43985 12.43985 0 0 1-4.89-4.92 14.77 14.77 0 0 1-1.75-7.3 16.14022 16.14022 0 0 1 1.73-7.63 12.4901 12.4901 0 0 1 4.59-5 11.66005 11.66005 0 0 1 6.11-1.73 12.53 12.53 0 0 1 6 1.49 11.78 11.78 0 0 1 4.54 4.36 13.16976 13.16976 0 0 1 1.81 6.8 1.45 1.45 0 0 1-.5 1.08zm-17.56-8.53a9.83 9.83 0 0 0-3.37 6.11h18.12v-.42a8.39992 8.39992 0 0 0-1.6-4.18 8.71021 8.71021 0 0 0-3.32-2.7 9.63988 9.63988 0 0 0-4.12-.93 8.88 8.88 0 0 0-5.71 2.12z"/><path d="M33.31 42.43a17 17 0 0 1-15.51 9.3 17 17 0 0 1-15.51-9.3A20.74 20.74 0 0 1 0 32.61a20.91 20.91 0 0 1 2.29-9.89 17 17 0 0 1 6.32-6.8 17.37 17.37 0 0 1 9.19-2.44 17.39 17.39 0 0 1 9.2 2.44 17 17 0 0 1 6.32 6.8 20.91 20.91 0 0 1 2.29 9.89 20.73992 20.73992 0 0 1-2.3 9.82zm-3-18.09a13.59 13.59 0 0 0-12.51-7.67 13.59 13.59 0 0 0-12.57 7.67 18.16 18.16 0 0 0-1.83 8.27 18.15 18.15 0 0 0 1.83 8.26 13.94 13.94 0 0 0 5.1 5.66 14 14 0 0 0 7.47 2 13.55 13.55 0 0 0 12.56-7.67 17.99995 17.99995 0 0 0 1.84-8.26 17.99995 17.99995 0 0 0-1.84-8.26zm31.32 1.28a12.28 12.28 0 0 1 4.49 4.94 15.32012 15.32012 0 0 1 1.62 7.09 15.4601 15.4601 0 0 1-1.62 7.15 12.56993 12.56993 0 0 1-4.46 5 11.63 11.63 0 0 1-6.35 1.8 11.2099 11.2099 0 0 1-5.66-1.46 11.4299 11.4299 0 0 1-4.12-3.9v14a1.58 1.58 0 0 1-.45 1.15 1.67 1.67 0 0 1-2.28 0 1.58994 1.58994 0 0 1-.46-1.15V25.59a1.66 1.66 0 0 1 .46-1.17 1.62 1.62 0 0 1 2.28 0 1.65 1.65 0 0 1 .45 1.17v3.62a9.89 9.89 0 0 1 4-3.94 12.26 12.26 0 0 1 12.11.35zM60 47.19a9.59 9.59 0 0 0 3.45-3.91 12.43 12.43 0 0 0 1.25-5.63 12.18 12.18 0 0 0-1.25-5.55A9.63 9.63 0 0 0 60 28.22a9 9 0 0 0-5-1.41 9.33 9.33 0 0 0-5.05 1.39 9.14994 9.14994 0 0 0-3.45 3.85 12.35989 12.35989 0 0 0-1.22 5.6 12.55008 12.55008 0 0 0 1.22 5.63A9.21 9.21 0 0 0 55 48.6a9 9 0 0 0 5-1.41zm36.8-10.04a1.57 1.57 0 0 1-1.11.45H75.6a12.22985 12.22985 0 0 0 1.31 5.71 9.83994 9.83994 0 0 0 3.71 4 10.91 10.91 0 0 0 5.72 1.46 9.66 9.66 0 0 0 4.57-1.07 9.40012 9.40012 0 0 0 3.24-2.7 1.83 1.83 0 0 1 1.11-.47 1.44 1.44 0 0 1 1.38 1.38 1.53 1.53 0 0 1-.53 1.09 13.19993 13.19993 0 0 1-4.27 3.4 11.69992 11.69992 0 0 1-5.45 1.33A14.55 14.55 0 0 1 79.16 50a12.35 12.35 0 0 1-4.88-4.92 14.77 14.77 0 0 1-1.76-7.3 16.14 16.14 0 0 1 1.73-7.63 12.4901 12.4901 0 0 1 4.59-5A11.69 11.69 0 0 1 85 23.41a12.53 12.53 0 0 1 6 1.49 11.71 11.71 0 0 1 4.54 4.36 13.07 13.07 0 0 1 1.81 6.8 1.45 1.45 0 0 1-.55 1.09zm-17.56-8.53a9.88 9.88 0 0 0-3.37 6.11H94v-.42a8.4 8.4 0 0 0-1.6-4.18 8.63 8.63 0 0 0-3.32-2.7A9.64012 9.64012 0 0 0 85 26.5a8.9 8.9 0 0 0-5.76 2.12zm44.69-2.31a12 12 0 0 1 2.31 7.69v15.61a1.5 1.5 0 0 1-.48 1.14 1.58 1.58 0 0 1-1.12.45 1.54 1.54 0 0 1-1.59-1.48832q-.00169-.05083 0-.10168V34.15a8.7 8.7 0 0 0-1.73-5.61 6.45 6.45 0 0 0-5.32-2.15 9.27 9.27 0 0 0-4.33 1.06 9.36983 9.36983 0 0 0-3.32 2.84 6.51008 6.51008 0 0 0-1.27 3.86v15.46a1.54 1.54 0 0 1-.45 1.14 1.58 1.58 0 0 1-1.15.45 1.54 1.54 0 0 1-1.59-1.48832q-.00168-.05083 0-.10168V25.8a1.54 1.54 0 0 1 1.48832-1.59q.05082-.00168.10167 0a1.58 1.58 0 0 1 1.15.45 1.54 1.54 0 0 1 .45 1.14v2.93a11.21 11.21 0 0 1 4.11-3.8 11.09 11.09 0 0 1 5.5-1.52q4.93001 0 7.24001 2.9z" class="cls-1"/></svg>