<svg xmlns="http://www.w3.org/2000/svg" role="img" viewBox="-5.31 -3.81 536.12 148.12"><title>OpenAI Gym logo</title><path d="M148.135 65.904c.412-2.279.72-4.582 1.253-6.832 3.077-13.004 12.911-20.833 26.024-22.334a40.96 40.96 0 0 1 15.99 1.09c11.106 3.151 18.214 10.446 20.475 21.673a73.414 73.414 0 0 1-.176 30.5c-2.658 11.979-12.221 20.216-24.39 21.825a42.436 42.436 0 0 1-17.372-.89c-12.175-3.46-18.933-11.739-21.139-23.999-.255-1.416-.445-2.843-.665-4.265zM200.01 76.04c-.247-5.387-.184-9.183-.648-12.914-.697-5.618-3.12-10.372-8.166-13.412a19.937 19.937 0 0 0-10.397-2.579c-9.925-.082-16.843 5.018-18.561 14.306a69.766 69.766 0 0 0-.735 12.499 79.182 79.182 0 0 0 .669 12.97c1.168 7.093 5.218 12.12 12.406 13.939a27.226 27.226 0 0 0 7.826.715c8.55-.392 14.5-5.092 16.374-13.436.996-4.435.954-9.103 1.232-12.088zm37.332 53.277h-12.747c-.034-.583-.093-1.128-.093-1.674q-.007-34.373-.037-68.746c-.003-1.467.46-1.834 1.842-1.799 3.352.084 6.708.028 10.236.028v8.272c.544-.616.822-.87 1.027-1.174 4.205-6.239 10.144-8.775 17.547-8.404 14.475.726 20.987 11.708 21.19 22.737a126.6 126.6 0 0 1-.346 14.715 20.855 20.855 0 0 1-18.528 18.597c-5.02.623-9.88.37-14.132-2.607a62.81 62.81 0 0 1-5.96-5.365zm26.038-51.593c-.598-6.952-5.172-11.253-12.3-11.754A12.473 12.473 0 0 0 237.831 76a44.651 44.651 0 0 0-.24 15.129 12.35 12.35 0 0 0 11.425 10.847c7.252.377 12.416-3.005 13.923-9.427a63.252 63.252 0 0 0 .877-7.831m203.962 26.136c-4.091 0-8.072.037-12.05-.055-.422-.01-1.039-.712-1.208-1.213a483.683 483.683 0 0 1-4.197-12.97 1.804 1.804 0 0 0-2.073-1.498q-13.507.072-27.015 0a1.803 1.803 0 0 0-2.067 1.509c-1.304 4.3-2.745 8.557-4.047 12.857a1.675 1.675 0 0 1-1.962 1.398c-3.72-.07-7.443-.027-11.376-.027.215-.677.364-1.207.55-1.723Q414.824 74.27 427.297 39.4a1.84 1.84 0 0 1 2.09-1.48c3.724.08 7.452.06 11.178.01a1.468 1.468 0 0 1 1.641 1.184q12.593 35.236 25.236 70.454c.136.378.205.78.335 1.285zm-21.237-25.925l-11.565-36.544-.409-.02-11.599 36.564zm74.089 15.786v10.07h-44.493V100.74h15.431V48.17h-15.416V38.064h44.44v10.032h-15.585c-.039.67-.093 1.17-.093 1.67-.004 16.401.017 32.802-.038 49.202-.005 1.49.485 1.798 1.852 1.776 4.593-.075 9.187-.029 13.902-.029zM343.904 57.139c3.8 0 7.467-.027 11.133.048.311.007.851.686.87 1.073.095 1.858.04 3.724.053 5.587.003.492.057.984.11 1.846a11.613 11.613 0 0 0 .784-1.171c2.335-4.996 6.436-7.515 11.722-8.354a24.512 24.512 0 0 1 10.161.316c7.602 1.997 11.477 7.3 12.776 14.75a32.235 32.235 0 0 1 .413 5.405c.037 10.866.02 21.733.017 32.6 0 .46-.04.922-.066 1.498H379.18v-1.719c0-9.935.026-19.87-.025-29.805a22.69 22.69 0 0 0-.567-5.062 8.954 8.954 0 0 0-8.374-7.299 17.474 17.474 0 0 0-4.637.1 10.016 10.016 0 0 0-8.797 10.067c-.186 5.22-.101 10.45-.115 15.676-.013 5.433-.003 10.866-.003 16.3v1.764h-12.759zm-9.645 31.127h-36.177c-1.18 9.643 4.308 15.651 13.192 15.112a17.767 17.767 0 0 0 12.562-6.286c.284-.32 1.042-.626 1.33-.472 2.405 1.285 4.751 2.679 7.237 4.11a20.624 20.624 0 0 1-10.289 9.194 30.723 30.723 0 0 1-22.86.172c-7.466-2.843-11.933-8.464-13.189-16.308a54.757 54.757 0 0 1 .323-20.662c2.176-9.757 10.143-16.353 20.143-17.138a31.415 31.415 0 0 1 12.274 1.06c8.549 2.764 13.57 8.746 14.862 17.534.648 4.41.416 8.948.592 13.684zm-36.395-8.776h24.393c.879-5.62-1.006-11.045-4.923-13.261-4.77-2.698-9.798-2.804-14.423.197-4.635 3.008-5.022 7.951-5.047 13.064zM65.107 6.6c6.369.113 14.153 3.452 20.47 10.126a2.044 2.044 0 0 0 2.151.74c17.194-3.11 33.253 7.137 37.247 23.735a29.897 29.897 0 0 1-.596 16.163 2.141 2.141 0 0 0 .471 2.385c15.834 17.95 6.508 46.265-16.941 51.419a2.16 2.16 0 0 0-1.847 1.578 31.643 31.643 0 0 1-29.415 21.398 30.885 30.885 0 0 1-23.712-9.84 2.98 2.98 0 0 0-3.104-1.039 31.68 31.68 0 0 1-36.613-23.548 30.143 30.143 0 0 1 .553-16.465 2.032 2.032 0 0 0-.441-2.244 31.308 31.308 0 0 1 16.985-51.361A2.205 2.205 0 0 0 32.12 28C36.66 15.031 48.678 6.524 65.106 6.6zM29.912 38.415a5.57 5.57 0 0 0-.558.183C20.75 42.36 15.51 48.87 14.61 58.205c-.929 9.648 2.921 17.446 11.237 22.528 8.055 4.922 16.387 9.39 24.61 14.035a1.63 1.63 0 0 0 1.263.226c3.337-1.825 6.636-3.72 10.218-5.75-.945-.55-1.605-.942-2.272-1.319q-13.157-7.431-26.32-14.851a3.264 3.264 0 0 1-2.074-3.034c.052-9.191.038-18.382.074-27.574.006-1.484.085-2.947-1.435-4.05zM48.65 73.302c.068-.59.123-.843.123-1.097.003-10.4.048-20.802-.042-31.203a3.885 3.885 0 0 1 2.212-3.917q12.06-6.655 24.043-13.447a23.87 23.87 0 0 0 2.99-2.42c-.735-.569-1.165-.936-1.63-1.255a24.622 24.622 0 0 0-17.313-4.269c-10.81 1.227-20.517 11.148-20.845 21.975-.292 9.604-.11 19.224-.098 28.836a1.7 1.7 0 0 0 .608 1.284c3.223 1.844 6.49 3.61 9.952 5.513zm6.874-18.285c.779-.412 1.24-.64 1.687-.895 9.024-5.151 18.062-10.278 27.054-15.484a4.786 4.786 0 0 1 5.296-.03q11.589 6.69 23.264 13.23a25.247 25.247 0 0 0 3.659 1.381l.586-.38c-.153-2.697.017-5.459-.514-8.078a24.124 24.124 0 0 0-34.55-16.732c-8.682 4.447-17.09 9.428-25.603 14.202a1.72 1.72 0 0 0-.84 1.155c-.065 3.769-.039 7.539-.039 11.63zm33.953 12.36c-.065.598-.118.854-.118 1.11-.002 10.397-.053 20.796.05 31.193a3.994 3.994 0 0 1-2.312 4.021q-12.13 6.681-24.187 13.496a19.004 19.004 0 0 0-2.723 2.327 24.768 24.768 0 0 0 19.347 5.37c10.724-1.465 20.086-11.293 20.405-22.05.282-9.549.094-19.112.084-28.67a1.588 1.588 0 0 0-.472-1.201c-3.266-1.868-6.572-3.665-10.074-5.596zm-6.843 18.37c-.84.453-1.383.732-1.915 1.034-8.934 5.08-17.884 10.134-26.785 15.272a4.87 4.87 0 0 1-5.423.026c-7.664-4.45-15.377-8.813-23.101-13.157a31.653 31.653 0 0 0-3.7-1.52 17.855 17.855 0 0 0-.151 8.653 24.23 24.23 0 0 0 34.805 16.5c8.562-4.439 16.914-9.282 25.34-13.983a1.864 1.864 0 0 0 .89-1.277c.07-3.72.04-7.443.04-11.547zm25.536 16.49a1.241 1.241 0 0 0 .268-.036 5.39 5.39 0 0 0 .585-.226c8.76-4.048 13.88-10.877 14.456-20.485.565-9.405-3.463-16.871-11.576-21.752-7.908-4.757-16.024-9.166-24.028-13.763a1.879 1.879 0 0 0-2.15.03c-2.76 1.617-5.557 3.171-8.333 4.761a11.608 11.608 0 0 0-1.032.765c.615.357 1.063.623 1.515.879q13.424 7.587 26.854 15.164a3.528 3.528 0 0 1 2.128 3.346c-.051 9.03-.027 18.061-.04 27.092-.002 1.51-.205 3.063 1.353 4.225zM82.616 70.42c0-1.891-.047-3.784.02-5.673a1.923 1.923 0 0 0-1.114-2.006c-3.859-2.132-7.668-4.355-11.537-6.466a2.211 2.211 0 0 0-1.81-.023 357.238 357.238 0 0 0-11.533 6.468 2.523 2.523 0 0 0-1.052 1.809q-.144 5.749 0 11.503a2.538 2.538 0 0 0 1.036 1.822 361.288 361.288 0 0 0 11.49 6.546 2.245 2.245 0 0 0 1.83.047q5.908-3.14 11.71-6.475a2.215 2.215 0 0 0 .916-1.565c.11-1.99.043-3.99.044-5.987z"/></svg>