<svg xmlns="http://www.w3.org/2000/svg" role="img" viewBox="-4.76 -4.76 247.52 58.02"><title>Parquet logo</title><path fill="#50abf1" d="M28.28 45.964c-2.452-2.616-2.525-2.73-2.084-3.224.698-.784 30.496-28.06 30.923-28.307.37-.213 4.024 1.55 4.822 2.328.306.299-2.068 2.836-15.02 16.055-8.462 8.635-15.546 15.736-15.742 15.78-.197.043-1.501-1.141-2.899-2.632zm131.651-.27c-.234-.234-.325-1.69-.325-5.168 0-2.663-.07-4.842-.156-4.842s-.768.536-1.515 1.19c-1.783 1.559-3.342 2.068-5.954 1.942-5.82-.279-9.3-5.311-9.3-13.45 0-5.085 1.202-8.606 3.764-11.03 2.68-2.534 6.454-3.205 9.589-1.703.873.418 1.937 1.132 2.365 1.587.427.455.867.827.977.827.11 0 .237-.566.281-1.257l.081-1.257 3.375-.074 3.376-.074-.068 16.743-.068 16.743-3.048.074c-2.146.052-3.145-.023-3.374-.252zm-3.183-13.349c3.75-1.915 4.09-10.825.518-13.549-1.3-.992-3.543-1.113-4.798-.26-1.847 1.255-2.916 3.746-2.916 6.794 0 5.568 3.448 8.93 7.196 7.015zm-135.232 6.67c-1.321-1.329-2.157-2.373-2.074-2.59.15-.393 17.28-14.24 17.601-14.227.395.015 4.426 3.078 4.426 3.363 0 .3-17.22 15.68-17.556 15.68-.1 0-1.179-1.002-2.397-2.226zm185.781-.292c-2.261-.492-4.026-1.513-5.77-3.34-2.447-2.567-3.56-5.688-3.553-9.964.01-5.845 2.512-10.425 6.863-12.568 1.621-.798 1.891-.847 4.637-.847 2.612 0 3.074.074 4.434.711 4.142 1.942 6.703 7.043 6.497 12.943l-.077 2.221-7.532.07c-4.142.04-7.634.174-7.76.3-.369.368.858 2.87 1.824 3.719 2.11 1.852 5.104 1.735 7.955-.311l1.208-.867 1.046 1.19a59.813 59.813 0 0 1 1.749 2.087l.702.896-1.184 1.06c-2.088 1.87-5.492 3.134-8.297 3.08-.599-.012-1.832-.183-2.742-.38zm6.097-15.54c.405-.301.41-.46.064-1.76-.937-3.526-4.145-5.003-6.52-3.004-.938.788-1.422 1.67-1.848 3.362-.262 1.04-.253 1.298.052 1.49.595.377 7.73.3 8.252-.088zM104.241 38.497c-3.52-1.31-5.46-5.213-4.693-9.444.535-2.948 1.854-4.714 4.363-5.843 1.787-.804 6.015-1.005 8.142-.387.806.234 1.523.426 1.594.426.344 0 .426-.963.165-1.947-.327-1.233-1.055-2.135-2.228-2.76-1.188-.633-4.155-.54-6.467.204-1.088.35-1.986.51-2.105.374-.294-.334-1.615-4.2-1.615-4.725 0-1.006 4.594-2.283 8.32-2.314 4.398-.036 7.26 1.056 9.006 3.435 1.812 2.47 1.857 2.795 1.857 13.421v9.525l-3.02.076c-1.662.041-3.127-.03-3.256-.16-.13-.13-.285-.626-.345-1.104-.06-.477-.17-.927-.242-1-.072-.072-.553.24-1.07.693-1.613 1.417-2.455 1.72-5.032 1.813-1.583.057-2.714-.038-3.374-.283zm7.845-5.264c1.372-.787 2.011-2.043 2.011-3.951 0-1.89-.33-2.116-3.307-2.27-1.893-.097-2.214-.043-3.039.52-1.265.861-1.633 1.667-1.515 3.32.153 2.147 1.086 2.937 3.496 2.96.903.007 1.65-.176 2.354-.58zm64.763 5.29c-1.46-.467-3.377-2.404-4.065-4.107-.6-1.485-.61-1.674-.61-11.696V12.533l3.36-.074 3.36-.074.08 8.806c.07 7.831.13 8.9.547 9.662 1.381 2.528 4.998 2.509 6.358-.034.56-1.047.585-1.416.667-9.76l.086-8.673 3.354.073 3.354.074.069 12.67c.05 9.296-.013 12.768-.238 13.039-.236.285-1.003.352-3.376.295l-3.07-.075-.082-1.19c-.046-.655-.183-1.292-.304-1.415-.121-.124-.739.281-1.372.899-1.66 1.62-2.87 2.096-5.253 2.07-1.091-.011-2.38-.147-2.865-.302zm53.338.085c-1.565-.497-2.556-1.36-3.298-2.871l-.74-1.508-.087-8.004-.087-8.003h-1.005c-1.456 0-1.632-.365-1.544-3.215.075-2.42.091-2.475.738-2.548 1.959-.22 1.852-.028 1.852-3.317 0-1.97.108-3.093.318-3.303.45-.45 6.187-.438 6.48.014.117.181.273 1.7.346 3.373l.132 3.043 2.456.076 2.457.076-.075 2.834-.075 2.835-2.448.076-2.447.076v6.737c0 8.484-.174 8.186 4.366 7.48.494-.077.534.088.605 2.508l.075 2.59-1.266.579c-1.382.63-5.375.91-6.753.472zm-156.71-.336c-.072-.186-.1-7.9-.062-17.14l.069-16.8 7.144.015c6.696.015 7.251.053 8.863.61 4.704 1.627 7.275 5.082 7.603 10.222.336 5.25-2.045 9.556-6.358 11.5-2.25 1.013-3.97 1.332-7.179 1.332-1.945 0-2.816.101-3.023.35-.182.22-.318 2.177-.363 5.226l-.073 4.875-3.246.075c-2.45.056-3.278-.01-3.376-.265zm13.5-17.11c1.953-.902 3.053-2.709 3.032-4.982-.034-3.664-1.85-5.264-6.302-5.553-3.639-.236-3.476-.485-3.476 5.334 0 2.675.072 5.052.16 5.282.248.645 5.143.585 6.587-.082zm39.321 17.072c-.216-.26-.28-3.896-.23-13.03l.068-12.67 3.286-.075c2.452-.056 3.342.011 3.502.264.118.187.217.964.22 1.728.003 1.36.35 1.853.646.92.208-.654 1.943-2.396 2.859-2.87.418-.216 1.35-.463 2.069-.548l1.309-.155v7.436l-1.125.187c-1.87.311-3.073.924-4.047 2.062-1.513 1.768-1.708 2.893-1.708 9.901 0 3.759-.107 6.388-.273 6.699-.247.46-.58.512-3.275.512-2.212 0-3.08-.095-3.3-.361zM15.258 32.63c-1.035-1.156-1.685-2.09-1.546-2.22.722-.674 8.17-5.839 8.416-5.836.4.005 3.995 3.087 3.995 3.426 0 .416-8.066 6.625-8.606 6.625-.26 0-1.278-.898-2.26-1.995zm-5.133-5.269c-1.483-1.499-1.66-1.778-1.323-2.09.482-.449 24.16-15.734 24.643-15.91.379-.137 3.659 1.849 3.659 2.215 0 .263-24.273 17.26-24.864 17.412-.234.06-1.122-.622-2.115-1.627zm15.791-2.413c-.977-.812-1.772-1.615-1.765-1.786.006-.171.87-.914 1.918-1.65 1.049-.738 5.75-4.101 10.447-7.475 4.698-3.374 8.734-6.135 8.97-6.135.633 0 3.833 1.85 3.731 2.157-.148.445-20.687 16.357-21.118 16.36-.223.003-1.205-.66-2.183-1.471zm-20.56-2.383c-1.166-1.234-1.335-1.532-1.03-1.81.265-.241 14.931-8.904 16.705-9.867.293-.159 3.403 2.084 3.303 2.382-.129.386-16.67 10.77-17.156 10.771-.234 0-1.053-.664-1.821-1.476zm35.463.099c-1.074-.77-1.993-1.525-2.044-1.677-.072-.218 9.657-8.304 11.864-9.86.43-.304.767-.203 2.607.778 1.163.62 2.112 1.252 2.11 1.406-.005.393-11.585 10.581-12.135 10.676-.248.042-1.329-.553-2.402-1.323zM1.41 18.38L0 16.95l.626-.405c.345-.223 7.337-4.038 15.539-8.476L31.077 0l1.426.7c.784.384 1.426.829 1.426.988 0 .218-30.66 18.121-31.033 18.121-.04 0-.709-.643-1.485-1.428zm22.927-7.204c-.692-.519-1.256-1.08-1.256-1.249.001-.168 2.796-1.95 6.211-3.962l6.21-3.657 1.594.85c.877.467 1.594.94 1.594 1.05 0 .313-12.176 7.928-12.663 7.92-.238-.005-1-.433-1.69-.952zm12.435-1.583c-.837-.517-1.52-1.079-1.516-1.25.005-.288 4.234-3.12 4.927-3.3.32-.083 3.166 1.418 3.396 1.79.069.113-.08.388-.331.611-.86.765-4.387 3.104-4.671 3.097-.156-.004-.968-.43-1.805-.948z"/></svg>