<svg xmlns="http://www.w3.org/2000/svg" role="img" viewBox="-0.69 1.56 326.63 347.88"><title>Petastorm logo</title><defs><style>.cls-2{fill:#0a0c36}</style></defs><path fill="#415a77" d="M223.979 213.721c1.05-9.908 6.982-9.69 13.32-9.719 46.569-.206 79.142-45.383 63.692-88.599-7.668-21.45-23.199-34.757-45.36-39.744-5.074-1.141-7.114-3.255-8.647-8.014-13.153-40.83-58.474-61.322-93.78-42.419-17.056 9.132-27.571 23.826-32.916 42.126-1.585 5.429-3.36 7.77-9.688 8.178-17.311 1.12-30.48 9.218-37.82 25.754-.944 2.124-4.492 4.383-6.843 4.393-29.038.121-49.52 18.592-49.675 45.25-.175 30.087 20.858 52.731 49.51 53.106 13.548.177 27.099.03 40.919.03-.365 7.593-3.417 10.056-9.943 9.776a279.376 279.376 0 0 0-31.15-.003c-30.418 2.103-58.032-23.703-59.373-58.268-1.277-32.92 19.454-56.39 52.14-60.234a13.881 13.881 0 0 0 8.749-5.404c9.098-13.391 21.208-21.577 37.165-24.675 2.938-.57 6.53-3.808 7.671-6.67 12.175-30.529 37.609-50.013 66.47-50.336 34.222-.384 63.42 18.452 76.079 49.59 2.143 5.272 4.847 8.104 10.464 9.894 34.253 10.912 54.739 45.214 48.982 81.11-5.934 37.001-36.96 64.776-72.48 64.876-5.701.016-11.403.002-17.486.002z"/><path d="M92.223 286.857l33.31-84.492c5.913-14.99 11.65-30.056 17.941-44.886 1.13-2.661 4.544-6.143 6.962-6.189 23.986-.461 47.985-.28 73.948-.28l-8.675 12.017 6.384 2.277-15.747 22.216 7.06 2.234c-6.085 10.143-11.837 20.22-18.216 29.884-1.062 1.61-4.847 1.942-7.385 1.973-14.752.178-29.51.26-44.258-.006-4.727-.085-7.417 1.47-9.603 5.709-7.762 15.048-15.438 30.18-24.114 44.7-3.848 6.441-10.009 11.5-15.12 17.185l-2.487-2.342zm49.124-82.545c15.004 0 28.143.882 41.023-.557 3.687-.412 6.872-7.384 9.694-11.732.57-.878-1.539-3.495-2.668-5.839l13.75-22.169c-15.01 0-28.246-.074-41.48.123-1.236.019-3.012 1.498-3.582 2.738-5.438 11.843-10.67 23.78-16.737 37.436z" class="cls-2"/><path fill="#fff" d="M141.347 204.312c6.067-13.656 11.299-25.593 16.737-37.436.57-1.24 2.346-2.72 3.583-2.738 13.233-.197 26.47-.123 41.478-.123l-13.749 22.169c1.129 2.344 3.238 4.96 2.668 5.839-2.822 4.348-6.007 11.32-9.694 11.732-12.88 1.44-26.019.557-41.023.557z"/><path d="M28.804 296.062a19.151 19.151 0 0 1 7.34 1.255 13.742 13.742 0 0 1 4.924 3.316 12.753 12.753 0 0 1 2.769 4.7 17.563 17.563 0 0 1 0 10.913 12.71 12.71 0 0 1-2.769 4.733 13.73 13.73 0 0 1-4.925 3.315 19.152 19.152 0 0 1-7.34 1.255H18.18v16.482H8.072v-45.97zm-2.769 21.632a21.148 21.148 0 0 0 3.348-.257 7.808 7.808 0 0 0 2.833-.998 5.443 5.443 0 0 0 1.964-2.092 8.84 8.84 0 0 0 0-7.082 5.45 5.45 0 0 0-1.964-2.093 7.807 7.807 0 0 0-2.833-.998 21.265 21.265 0 0 0-3.348-.257H18.18v13.777zm33.8 16.354a8.171 8.171 0 0 0 5.924 1.996 8.144 8.144 0 0 0 4.764-1.385 5.745 5.745 0 0 0 2.447-2.929h8.048q-1.932 5.987-5.924 8.563a17.438 17.438 0 0 1-9.657 2.575 18.988 18.988 0 0 1-7.082-1.256 14.705 14.705 0 0 1-5.344-3.573 16.063 16.063 0 0 1-3.38-5.536 20.26 20.26 0 0 1-1.191-7.082 19.415 19.415 0 0 1 1.223-6.954 16.093 16.093 0 0 1 8.853-9.27 17.237 17.237 0 0 1 6.921-1.353 15.838 15.838 0 0 1 7.404 1.641 14.795 14.795 0 0 1 5.183 4.41 18.154 18.154 0 0 1 2.93 6.31 23.535 23.535 0 0 1 .643 7.404H57.582q.193 4.443 2.253 6.439zm10.334-17.512a6.423 6.423 0 0 0-4.99-1.803 7.956 7.956 0 0 0-3.637.74 6.919 6.919 0 0 0-2.318 1.836 6.73 6.73 0 0 0-1.223 2.317 10.442 10.442 0 0 0-.419 2.19h14.873a10.567 10.567 0 0 0-2.286-5.28zm35.121-7.791v6.116h-6.697v16.483a4.471 4.471 0 0 0 .773 3.09 4.47 4.47 0 0 0 3.09.773q.773 0 1.481-.064a12.546 12.546 0 0 0 1.352-.194v7.082a21.942 21.942 0 0 1-2.575.258q-1.417.063-2.769.064a26.654 26.654 0 0 1-4.024-.29 9.478 9.478 0 0 1-3.347-1.127 5.948 5.948 0 0 1-2.286-2.381 8.498 8.498 0 0 1-.837-4.057v-19.637h-5.537v-6.116h5.537v-9.98h9.142v9.98zm3.99 10.237a10.621 10.621 0 0 1 1.61-5.343 10.948 10.948 0 0 1 3.605-3.412 15.714 15.714 0 0 1 4.925-1.835 28.048 28.048 0 0 1 5.505-.548 37.432 37.432 0 0 1 5.087.354 15.609 15.609 0 0 1 4.7 1.384 9.264 9.264 0 0 1 3.476 2.865 8.007 8.007 0 0 1 1.352 4.862v17.318a34.73 34.73 0 0 0 .258 4.313 7.77 7.77 0 0 0 .901 3.091h-9.27a12.877 12.877 0 0 1-.42-1.577 13.62 13.62 0 0 1-.225-1.641 11.906 11.906 0 0 1-5.15 3.154 20.685 20.685 0 0 1-6.053.901 16.369 16.369 0 0 1-4.442-.579 10.18 10.18 0 0 1-3.605-1.803 8.39 8.39 0 0 1-2.415-3.09 10.449 10.449 0 0 1-.869-4.443 9.7 9.7 0 0 1 .998-4.668 8.344 8.344 0 0 1 2.575-2.929 11.55 11.55 0 0 1 3.606-1.642 39.162 39.162 0 0 1 4.088-.87q2.06-.32 4.056-.514a24.526 24.526 0 0 0 3.541-.579 6.174 6.174 0 0 0 2.447-1.127 2.475 2.475 0 0 0 .837-2.157 4.852 4.852 0 0 0-.483-2.35 3.55 3.55 0 0 0-1.288-1.351 5.067 5.067 0 0 0-1.867-.645 15.397 15.397 0 0 0-2.285-.161 6.939 6.939 0 0 0-4.25 1.16 5.17 5.17 0 0 0-1.802 3.862zm21.118 6.76a4.067 4.067 0 0 1-1.449.805 14.802 14.802 0 0 1-1.867.483q-.999.194-2.092.322-1.096.13-2.19.322a16.648 16.648 0 0 0-2.028.514 6.028 6.028 0 0 0-1.738.87 4.12 4.12 0 0 0-1.19 1.384 4.453 4.453 0 0 0-.451 2.125 4.29 4.29 0 0 0 .45 2.06 3.449 3.449 0 0 0 1.223 1.32 5.176 5.176 0 0 0 1.803.676 11.485 11.485 0 0 0 2.125.193 8.077 8.077 0 0 0 4.185-.901 6.035 6.035 0 0 0 2.189-2.157 6.901 6.901 0 0 0 .869-2.543 17.553 17.553 0 0 0 .16-2.06zm23.917 8.016a5.338 5.338 0 0 0 1.578 1.738 6.738 6.738 0 0 0 2.221.998 10.4 10.4 0 0 0 2.608.322 9.701 9.701 0 0 0 2.028-.225 6.862 6.862 0 0 0 1.931-.708 4.393 4.393 0 0 0 1.449-1.288 3.384 3.384 0 0 0 .579-2.028q0-2.06-2.736-3.09a54.809 54.809 0 0 0-7.63-2.061q-1.996-.45-3.895-1.062a13.288 13.288 0 0 1-3.38-1.61 7.813 7.813 0 0 1-2.382-2.51 7.106 7.106 0 0 1-.901-3.703 10.018 10.018 0 0 1 1.255-5.279 9.26 9.26 0 0 1 3.316-3.251 14.52 14.52 0 0 1 4.635-1.674 28.557 28.557 0 0 1 5.28-.483 26.348 26.348 0 0 1 5.247.515 13.888 13.888 0 0 1 4.539 1.739 10.44 10.44 0 0 1 3.316 3.25 10.938 10.938 0 0 1 1.576 5.119h-8.691a4 4 0 0 0-1.995-3.573 9.142 9.142 0 0 0-4.25-.934 15.757 15.757 0 0 0-1.674.097 5.569 5.569 0 0 0-1.641.419 3.386 3.386 0 0 0-1.256.933 2.465 2.465 0 0 0-.515 1.642 2.506 2.506 0 0 0 .902 1.996 6.944 6.944 0 0 0 2.35 1.255 29.118 29.118 0 0 0 3.315.869q1.866.387 3.798.837a38.798 38.798 0 0 1 3.895 1.095 12.864 12.864 0 0 1 3.381 1.706 8.27 8.27 0 0 1 2.381 2.64 7.745 7.745 0 0 1 .902 3.895 10.114 10.114 0 0 1-4.763 9.078 14.122 14.122 0 0 1-4.861 1.9 28.383 28.383 0 0 1-5.57.546 27.62 27.62 0 0 1-5.666-.579 14.957 14.957 0 0 1-4.925-1.932 11.042 11.042 0 0 1-3.541-3.573 11.181 11.181 0 0 1-1.513-5.57h8.692a5.006 5.006 0 0 0 .611 2.544zm45.165-25.013v6.116h-6.697v16.483a3.096 3.096 0 0 0 3.863 3.863q.772 0 1.481-.064a12.59 12.59 0 0 0 1.352-.194v7.082a21.952 21.952 0 0 1-2.575.258q-1.418.063-2.768.064a26.656 26.656 0 0 1-4.025-.29 9.478 9.478 0 0 1-3.347-1.127 5.952 5.952 0 0 1-2.286-2.381 8.51 8.51 0 0 1-.837-4.057v-19.637h-5.537v-6.116h5.537v-9.98h9.142v9.98zm4.57 9.433a15.221 15.221 0 0 1 8.885-9.078 19.01 19.01 0 0 1 7.082-1.256 19.27 19.27 0 0 1 7.114 1.256 15.158 15.158 0 0 1 8.917 9.078 20.46 20.46 0 0 1 1.223 7.243 20.195 20.195 0 0 1-1.223 7.21 15.627 15.627 0 0 1-3.477 5.505 15.132 15.132 0 0 1-5.44 3.509 19.723 19.723 0 0 1-7.114 1.223 19.456 19.456 0 0 1-7.082-1.223 15.18 15.18 0 0 1-5.409-3.51 15.6 15.6 0 0 1-3.476-5.503 20.152 20.152 0 0 1-1.224-7.211 20.416 20.416 0 0 1 1.224-7.243zm8.305 11.137a10.334 10.334 0 0 0 1.32 3.413 7.024 7.024 0 0 0 2.478 2.415 7.562 7.562 0 0 0 3.864.9 7.745 7.745 0 0 0 3.895-.9 6.951 6.951 0 0 0 2.51-2.415 10.377 10.377 0 0 0 1.32-3.413 19.467 19.467 0 0 0 .387-3.894 19.966 19.966 0 0 0-.387-3.928 10.028 10.028 0 0 0-1.32-3.412 7.34 7.34 0 0 0-2.51-2.415 7.549 7.549 0 0 0-3.895-.933 7.026 7.026 0 0 0-6.342 3.348 9.988 9.988 0 0 0-1.32 3.412 19.966 19.966 0 0 0-.386 3.928 19.467 19.467 0 0 0 .386 3.894zm39.53-20.57v6.18h.129a11.2 11.2 0 0 1 1.738-2.863 11.402 11.402 0 0 1 2.51-2.254 12.29 12.29 0 0 1 3.027-1.449 10.904 10.904 0 0 1 3.348-.515 7.13 7.13 0 0 1 1.996.322v8.498q-.645-.127-1.545-.225a16.338 16.338 0 0 0-1.738-.096 9.742 9.742 0 0 0-4.25.837 7.36 7.36 0 0 0-2.8 2.285 9.146 9.146 0 0 0-1.514 3.38 18.39 18.39 0 0 0-.45 4.185v15.001h-9.143v-33.286zm25.238 0v4.507h.129a13.014 13.014 0 0 1 4.346-3.991 11.772 11.772 0 0 1 5.827-1.417 13.399 13.399 0 0 1 5.762 1.223 8.095 8.095 0 0 1 3.96 4.314 14.167 14.167 0 0 1 4.023-3.863 10.705 10.705 0 0 1 6.02-1.674 17.777 17.777 0 0 1 4.893.644 9.86 9.86 0 0 1 3.863 2.06 9.463 9.463 0 0 1 2.511 3.702 15.025 15.025 0 0 1 .901 5.505v22.276h-9.142v-18.864q0-1.673-.13-3.154a6.687 6.687 0 0 0-.707-2.575 4.297 4.297 0 0 0-1.706-1.74 6.19 6.19 0 0 0-3.059-.643 5.86 5.86 0 0 0-3.122.74 5.359 5.359 0 0 0-1.867 1.932 7.74 7.74 0 0 0-.901 2.704 20.584 20.584 0 0 0-.226 3.058v18.542h-9.143v-18.67q0-1.482-.063-2.93a8.244 8.244 0 0 0-.548-2.672 4.12 4.12 0 0 0-1.61-1.964 6.088 6.088 0 0 0-3.315-.74 6.839 6.839 0 0 0-1.706.29 5.665 5.665 0 0 0-2.06 1.094 6.39 6.39 0 0 0-1.706 2.318 9.403 9.403 0 0 0-.708 3.96v19.314h-9.143v-33.286z" class="cls-2"/></svg>