<svg xmlns="http://www.w3.org/2000/svg" role="img" viewBox="-4.31 -6.81 510.12 183.12"><title>Pinball logo</title><defs><style>.cls-3{fill:#bd2026}</style><clipPath id="clip-path"><path fill="none" d="M5.43 1.935H497v120.129H5.43z"/></clipPath></defs><path fill="#231f20" d="M199.674 151.386q-3.004 2.506-8.58 2.507h-7.124v12.302h-7.103V131.98h14.69a11.851 11.851 0 0 1 8.1 2.646q3.021 2.646 3.021 8.194 0 6.058-3.004 8.565zm-5.457-12.326a5.76 5.76 0 0 0-3.804-1.137h-6.443v10.073h6.443a5.464 5.464 0 0 0 3.804-1.23 5.023 5.023 0 0 0 1.359-3.9 4.717 4.717 0 0 0-1.359-3.806zm20.462-1.184h-6.708v-6.104h6.708zm-6.708 3.018h6.708v25.3h-6.708zm33.516 1.451q2.485 2.054 2.485 6.813v17.037h-6.778v-15.39a7.064 7.064 0 0 0-.53-3.064 3.723 3.723 0 0 0-3.686-1.95 4.571 4.571 0 0 0-4.586 2.856 9.878 9.878 0 0 0-.645 3.852v13.696h-6.615V140.94h6.406v3.69a11.198 11.198 0 0 1 2.404-2.809 8.327 8.327 0 0 1 5.155-1.532 9.695 9.695 0 0 1 6.39 2.055zm30.239 1.59a14.539 14.539 0 0 1 2.84 9.284 16.26 16.26 0 0 1-2.801 9.772 10.165 10.165 0 0 1-12.88 2.623 10.085 10.085 0 0 1-2.472-2.6v3.18h-6.521v-34.167h6.615v12.163a9.658 9.658 0 0 1 2.78-2.693 8.298 8.298 0 0 1 4.577-1.16 9.455 9.455 0 0 1 7.862 3.598zm-5.53 15.412a9.377 9.377 0 0 0 1.428-5.432 12.178 12.178 0 0 0-.701-4.456 4.89 4.89 0 0 0-4.916-3.343 4.962 4.962 0 0 0-4.985 3.273 12.181 12.181 0 0 0-.703 4.504 9.379 9.379 0 0 0 1.451 5.385 4.986 4.986 0 0 0 4.424 2.135 4.587 4.587 0 0 0 4.002-2.066zm22.987-8.542a10.422 10.422 0 0 0 2.64-.58 1.992 1.992 0 0 0 1.428-1.88 2.222 2.222 0 0 0-1.096-2.147 6.91 6.91 0 0 0-3.21-.592 4.218 4.218 0 0 0-3.366 1.16 4.777 4.777 0 0 0-.94 2.321h-6.384a9.688 9.688 0 0 1 1.865-5.454q2.634-3.343 9.045-3.343a16.128 16.128 0 0 1 7.414 1.649q3.24 1.648 3.24 6.22v11.606q0 1.207.047 2.925a3.651 3.651 0 0 0 .395 1.763 2.362 2.362 0 0 0 .974.767v.975h-7.195a7.282 7.282 0 0 1-.418-1.44 17.217 17.217 0 0 1-.186-1.531 13.636 13.636 0 0 1-3.175 2.53 9.592 9.592 0 0 1-4.856 1.23 8.379 8.379 0 0 1-5.709-1.961 6.977 6.977 0 0 1-2.254-5.56 7.205 7.205 0 0 1 3.625-6.755 16.183 16.183 0 0 1 5.846-1.624zm4.045 3.088a7.331 7.331 0 0 1-1.284.637 10.807 10.807 0 0 1-1.777.454l-1.506.278a9.922 9.922 0 0 0-3.039.905 3.021 3.021 0 0 0-1.564 2.809 2.934 2.934 0 0 0 .955 2.449 3.63 3.63 0 0 0 2.322.754 6.908 6.908 0 0 0 3.994-1.254q1.828-1.252 1.899-4.572zm19.125 12.302h-6.616V131.98h6.616zm13.208 0h-6.615V131.98h6.615z"/><g id="g10"><path id="path12" d="M199.076 45.236h15.527v48.77h-15.527z" class="cls-3"/><g clip-path="url(#clip-path)" id="g14"><g id="g16"><g id="g22"><path id="path24" d="M217.845 45.236h14.954v6.668h.286c3.62-5.24 8.287-8.096 15.05-8.096 10.668 0 16.955 7.62 16.955 18.478v31.72h-15.526V65.43c0-5.144-2.572-8.669-7.62-8.669-5.144 0-8.573 4.287-8.573 10.288v26.956h-15.526z" class="cls-3"/></g><g id="g26"><path id="path28" d="M216.153 32.188a9.313 9.313 0 1 0-9.314 9.313 9.313 9.313 0 0 0 9.314-9.313" class="cls-3"/></g><g id="g30"><path id="path32" d="M374.288 44.532c-.443-.04-.951-.058-1.546-.058-5.905 0-9.906 2.572-13.335 8.382h-.286v-7.62h-14.86v48.769h15.527V72.097c0-10.15 5.621-14.855 14.5-14.034z" class="cls-3"/></g><g id="g34"><path id="path36" d="M450.48 63.238c-6.191-1.142-11.716-1.618-11.716-5.047 0-3.049 2.953-4.477 6.763-4.477 4.286 0 7.24 1.333 7.81 5.715h14.289c-.762-9.62-8.192-15.622-22.003-15.622-11.526 0-21.052 5.334-21.052 15.622 0 11.43 9.05 13.716 17.527 15.145 6.477 1.143 12.383 1.62 12.383 6 0 3.144-2.953 4.859-7.62 4.859-4.683 0-7.78-1.982-8.73-6.001h-14.794c1.089 10.025 9.89 16.097 23.619 16.097 12.764 0 22.194-5.524 22.194-16.192 0-12.479-10.097-14.67-18.67-16.099" class="cls-3"/></g><g id="g38"><path id="path40" d="M398.373 54.856c5.048 0 8.667 3.715 9.239 9.526H388.37c1.048-5.81 4.096-9.526 10.002-9.526m.857 29.433c-6.382 0-10.002-4.095-10.955-10.668h35.054c.095-9.906-2.762-18.384-8.573-23.717a23.981 23.981 0 0 0-16.67-6.097c-14.859 0-25.05 11.144-25.05 25.719 0 14.763 9.906 25.908 26.003 25.908a25.787 25.787 0 0 0 15.24-4.477 19.844 19.844 0 0 0 8.192-11.525h-15.145c-1.334 3.048-4 4.857-8.096 4.857" class="cls-3"/></g><g id="g42"><path id="path44" d="M496.494 82.505c-.719.028-1.685.07-2.572.07-3.335 0-5.43-.953-5.43-4.763v-22.86h8.002v-9.716h-8.002v-15.43h-15.145v15.43h-4.765v9.716h4.765v26.194c0 10.478 6.477 13.43 15.526 13.43a42.576 42.576 0 0 0 7.621-.562z" class="cls-3"/></g><g id="g46"><path id="path48" d="M292.817 82.527c-.62.024-1.335.048-2.003.048-3.333 0-5.429-.953-5.429-4.763v-22.86h7.432v-9.716h-7.432v-15.43H270.24v15.43h-5.05v9.716h5.05v26.194c0 10.478 6.477 13.43 15.526 13.43a46.02 46.02 0 0 0 7.05-.461z" class="cls-3"/></g><g id="g50"><path id="path52" d="M326.636 64.382c-.572-5.81-4.192-9.526-9.24-9.526-5.906 0-8.954 3.716-10.002 9.526zm-34.577 5.143c0-14.573 10.192-25.717 25.051-25.717a23.981 23.981 0 0 1 16.67 6.096c5.81 5.334 8.667 13.811 8.572 23.717h-35.053c.952 6.572 4.572 10.668 10.954 10.668 4.096 0 6.763-1.81 8.096-4.857h15.146a19.847 19.847 0 0 1-8.192 11.526 25.787 25.787 0 0 1-15.24 4.476c-16.098 0-26.004-11.145-26.004-25.909" class="cls-3"/></g><g id="g54"><path id="path56" d="M172.113 57.905c6.096 0 9.525-3.62 9.525-9.05 0-5.429-3.525-8.762-9.525-8.762h-11.908v17.812zM144.487 25.9h26.962c8.286 0 14.382 2.286 18.574 6.287a22.366 22.366 0 0 1 6.858 16.764c0 13.05-9.05 22.29-23.051 22.29h-13.625v22.764h-15.718z" class="cls-3"/></g><g id="g58"><path id="path60" fill="#fff" d="M123.173 62a58.62 58.62 0 1 1-58.62-58.62A58.62 58.62 0 0 1 123.174 62"/></g><g id="g62"><path id="path64" d="M64.553 3.38a58.63 58.63 0 0 0-21.362 113.225c-.512-4.638-.975-11.77.203-16.834 1.066-4.575 6.874-29.138 6.874-29.138a21.166 21.166 0 0 1-1.753-8.703c0-8.15 4.724-14.236 10.607-14.236 5 0 7.416 3.755 7.416 8.257 0 5.03-3.202 12.55-4.854 19.518-1.381 5.834 2.926 10.592 8.68 10.592 10.419 0 18.428-10.985 18.428-26.843 0-14.035-10.085-23.848-24.486-23.848-16.68 0-26.47 12.51-26.47 25.439 0 5.038 1.941 10.44 4.363 13.377a1.752 1.752 0 0 1 .407 1.682c-.445 1.851-1.434 5.833-1.628 6.648-.256 1.073-.85 1.3-1.96.783-7.322-3.407-11.9-14.111-11.9-22.709 0-18.491 13.436-35.473 38.733-35.473 20.335 0 36.138 14.49 36.138 33.856 0 20.202-12.738 36.46-30.419 36.46-5.94 0-11.524-3.085-13.435-6.73 0 0-2.94 11.192-3.652 13.935-1.324 5.091-4.896 11.474-7.286 15.367A58.625 58.625 0 1 0 64.553 3.381" class="cls-3"/></g></g></g></g></svg>