<svg xmlns="http://www.w3.org/2000/svg" role="img" viewBox="-23.12 -23.12 1202.24 1145.24"><title>PREFECT logo</title><style>svg {enable-background:new 0 0 1157 1100}</style><style>.st2{fill-rule:evenodd;clip-rule:evenodd;fill:#0d3958;fill-opacity:.2}</style><g id="LOGOTYPE" transform="translate(0 934)"><path id="PREFECT" fill="#465968" fill-rule="evenodd" d="M0 166V.2h96.5C140.7.2 157 15 157 54.2s-16.3 53.7-60.5 53.7H32.3V166H0zm32.3-86.6h61.2c23.2 0 31.1-6.2 31.1-25.2s-7.9-25.5-31.1-25.5H32.3v50.7zM180 166V.2h94.6c42.4 0 58 14.6 58 52.7 0 32.2-11.1 47.3-40 51.2l48.2 61.9h-39.5l-46.7-60.9h-43.1V166H180zm31.6-89.1H272c21.7 0 29.1-6.2 29.1-23.8 0-18.1-7.7-24.5-29.1-24.5h-60.4v48.3zM356.2 166V.2h143.6v28.5H388v39.1h95V96h-95v41.6h113.8V166H356.2zm172.3 0V.2H674v28.5H561v39.1h95.9V96H561v70h-32.5zm164.7 0V.2h143.6v28.5H725v39.1h95.1V96H725v41.6h113.8V166H693.2zM1011.1.2h145.5v29h-60.5V166h-32.2V29.1H944.1c-57.8 0-57.9-.5-57.9 54s0 54.5 57.9 54.5h52.2V166h-52.2c-90.1 0-90.1-5.4-90.1-82.9S852.7.2 944.1.2h67z" clip-rule="evenodd"/></g><g id="LOGOMARK"><g id="middle-triangle_1_" transform="translate(231 231)"><g id="triangle_1_"><linearGradient id="SVGID_1_" x1="48.136" x2="47.403" y1="459.616" y2="460.358" gradientTransform="matrix(231.75 0 0 -235.91 -10613.25 108673.969)" gradientUnits="userSpaceOnUse"><stop offset="0" stop-color="#b4c0c9"/><stop offset=".972" stop-color="#94a5b2"/></linearGradient><path fill="url(#SVGID_1_)" fill-rule="evenodd" d="M607.3 127.7L367.8 7.7v243.9z" clip-rule="evenodd"/></g><path id="left-shadow_1_" d="M398.3 235.8L367.8 54.5v197.1z" class="st2"/><path id="right-shadow_1_" d="M576.6 112.2L367.8 7.7v26.6z" class="st2"/></g><linearGradient id="bottom_1_" x1="740.477" x2="741.57" y1="688.932" y2="688.033" gradientTransform="matrix(231.6003 0 0 -513.8261 -171105.406 354328.563)" gradientUnits="userSpaceOnUse"><stop offset="0" stop-color="#647989"/><stop offset="1" stop-color="#2f383e"/></linearGradient><path id="bottom" fill="url(#bottom_1_)" fill-rule="evenodd" d="M374 767.3c.5-.3 220-106.7 220.2-106.8 3-1.8 4.7-2.3 4.8-7.6 0-.5-.1-414.2-.1-414.2-93 46.5-223.9 111.8-235.2 117.8-3.6 2-4.1 3.7-4.1 6.3v393.8c-.1 8.9.5 17.7 14.4 10.7z" clip-rule="evenodd"/><linearGradient id="top_2_" x1="741.494" x2="742.097" y1="690.043" y2="689.305" gradientTransform="matrix(454.75 0 0 -346.9656 -336674 239464.39)" gradientUnits="userSpaceOnUse"><stop offset="0" stop-color="#2edaff"/><stop offset="1" stop-color="#3b8dff"/></linearGradient><path id="top_1_" fill="url(#top_2_)" fill-rule="evenodd" d="M838.3 124v234.6S391.5 135.1 376 127.1c-10.3-5.4-10.3-10.5 0-16.3 9.5-5.3 190.8-95.7 218.6-109.6 3.6-1.6 4.7-1.6 7.9-.3l231.3 115.9c3.3 1.6 4.3 3.2 4.5 7.2z" clip-rule="evenodd"/></g></svg>