<svg xmlns="http://www.w3.org/2000/svg" role="img" viewBox="-7.52 -1.77 456.04 150.79"><title>PyText logo</title><defs><style>.cls-1{fill:#677b80;fill-rule:evenodd}</style></defs><path d="M159.3 110.395q-3.61 3.013-10.31 3.012h-8.56v14.783h-8.535V87.078h17.653q6.104 0 9.734 3.18 3.628 3.18 3.629 9.845 0 7.28-3.61 10.292zm-6.556-14.81a6.918 6.918 0 0 0-4.573-1.367h-7.74v12.105h7.74a6.564 6.564 0 0 0 4.573-1.478q1.632-1.478 1.632-4.686t-1.632-4.574zm17.614 38.435l1.004.056a12.506 12.506 0 0 0 2.232-.084 4.017 4.017 0 0 0 1.785-.641 4.292 4.292 0 0 0 1.297-1.981 4.783 4.783 0 0 0 .516-1.841l-11.171-31.74h8.842l6.638 22.424 6.276-22.425h8.451l-10.423 29.9q-3.022 8.647-4.78 10.725-1.76 2.077-7.037 2.078-1.06 0-1.703-.014-.964-.03-1.927-.098zm61.083-46.942v7.279h-12.3v33.834h-8.646V94.357h-12.357v-7.28zm19.979 11.326a12.369 12.369 0 0 1 5.253 4.498 14.944 14.944 0 0 1 2.422 6.285 38.874 38.874 0 0 1 .262 6.034h-22.142q.185 4.573 3.179 6.414a8.072 8.072 0 0 0 4.383 1.144 6.173 6.173 0 0 0 6.05-3.486h8.116a9.93 9.93 0 0 1-2.948 5.495q-4.084 4.434-11.437 4.434a16.576 16.576 0 0 1-10.71-3.74q-4.638-3.742-4.639-12.173 0-7.897 4.189-12.114a14.656 14.656 0 0 1 10.872-4.216 17.304 17.304 0 0 1 7.15 1.425zm-11.893 6.867a8.258 8.258 0 0 0-2.117 4.706h13.695a6.63 6.63 0 0 0-2.117-4.804 6.97 6.97 0 0 0-4.715-1.638 6.304 6.304 0 0 0-4.746 1.736zm20.824 22.92l10.376-15.397-9.93-14.95h9.735l5.079 8.806 4.962-8.805h9.456l-9.986 14.808 10.376 15.538h-9.901l-5.233-9.141-5.283 9.14zm31.672-24.462v-5.662h4.24v-8.479h7.866v8.48h4.936v5.661h-4.936v16.065a3.624 3.624 0 0 0 .473 2.33q.473.46 2.902.46.361 0 .767-.014.403-.014.794-.042v5.941l-3.765.14q-5.635.194-7.699-1.952a5.814 5.814 0 0 1-1.338-4.212V103.73z"/><path id="Fill-11" d="M36.167 8.543v6.115a.628.628 0 0 1-.664.664H9.27V27.82h21.65a.628.628 0 0 1 .664.665V34.6a.627.627 0 0 1-.664.665H9.27v18.478a.627.627 0 0 1-.664.665H2.031a.627.627 0 0 1-.663-.665v-45.2a.628.628 0 0 1 .663-.665h33.472a.628.628 0 0 1 .664.666" class="cls-1"/><path id="Fill-12" d="M75.78 34.731c-2.423-6.713-5.113-13.427-7.87-19.542h-1.56a278.228 278.228 0 0 0-7.903 19.542zm13.913 19.675h-7.238a.723.723 0 0 1-.763-.598 179.432 179.432 0 0 0-3.454-11.898H56.023c-1.328 4.055-2.49 8.076-3.42 11.898a.723.723 0 0 1-.764.598h-6.973c-.465 0-.731-.265-.598-.73A309.655 309.655 0 0 1 61.269 8.742a1.27 1.27 0 0 1 1.296-.864h9.43a1.27 1.27 0 0 1 1.295.864 304.357 304.357 0 0 1 17.001 44.934c.133.465-.133.73-.598.73z" class="cls-1"/><path id="Fill-13" d="M101.58 31.541c0-14.424 9.497-24.527 23.045-24.527h.995a20.675 20.675 0 0 1 18.562 10.568.588.588 0 0 1-.232.93l-5.844 2.892a.81.81 0 0 1-1.162-.298c-2.457-4.255-6.143-6.514-11.589-6.514h-.996c-8.534 0-14.41 6.78-14.41 16.617 0 9.87 5.777 16.484 14.41 16.484h.996c5.579 0 8.833-1.894 11.324-4.786a.844.844 0 0 1 1.095-.232l6.01 2.925a.55.55 0 0 1 .332.464.877.877 0 0 1-.199.5c-3.685 5.383-10.327 8.707-18.429 8.707h-.996c-13.78 0-22.912-9.472-22.912-23.73" class="cls-1"/><path id="Fill-14" d="M197.078 47.627v6.115a.628.628 0 0 1-.664.665h-34.866a.628.628 0 0 1-.665-.665v-45.2a.628.628 0 0 1 .665-.664h34.268a.628.628 0 0 1 .664.665v6.115a.627.627 0 0 1-.664.664h-27.03V27.42h21.983a.628.628 0 0 1 .664.665v6.05a.628.628 0 0 1-.664.664h-21.983v12.164h27.628a.628.628 0 0 1 .664.665" class="cls-1"/><path id="Fill-15" d="M249.01 40.946c0-4.32-2.856-6.281-9.132-6.281h-15.64V47.16h15.64c6.377 0 9.132-1.861 9.132-6.215m-11.356-25.823H224.24v12.496h13.415c6.01 0 8.766-1.96 8.766-6.248s-2.756-6.248-8.766-6.248m19.458 26.521c0 8.143-6.242 12.763-17.266 12.763H217a.628.628 0 0 1-.664-.664v-45.2a.628.628 0 0 1 .664-.665h20.82c10.725 0 16.57 4.254 16.57 12.031 0 5.118-2.59 8.475-7.836 10.037 7.37 1.562 10.558 5.982 10.558 11.698" class="cls-1"/><path id="Fill-16" d="M295.928 47.694c9.53 0 15.54-6.548 15.54-16.551 0-10.004-6.01-16.552-15.54-16.552h-.996c-9.53 0-15.54 6.548-15.54 16.552 0 10.003 6.01 16.55 15.54 16.55zm-24.903-16.551c0-14.026 9.297-24.13 23.907-24.13h.996c14.61 0 23.909 10.104 23.909 24.13 0 14.024-9.298 24.128-23.909 24.128h-.996c-14.61 0-23.907-10.104-23.907-24.128z" class="cls-1"/><path id="Fill-17" d="M358.221 47.694c9.53 0 15.54-6.548 15.54-16.551 0-10.004-6.01-16.552-15.54-16.552h-.997c-9.53 0-15.54 6.548-15.54 16.552 0 10.003 6.01 16.55 15.54 16.55zm-24.904-16.551c0-14.026 9.297-24.13 23.907-24.13h.997c14.61 0 23.908 10.104 23.908 24.13 0 14.024-9.297 24.128-23.908 24.128h-.997c-14.61 0-23.907-10.104-23.907-24.128z" class="cls-1"/><path id="Fill-18" d="M439.407 54.407h-8.567a1.262 1.262 0 0 1-1.163-.565 181.565 181.565 0 0 0-19.16-19.31h-3.85v19.21a.627.627 0 0 1-.665.665h-6.575a.628.628 0 0 1-.664-.665v-45.2a.628.628 0 0 1 .664-.664h6.575a.628.628 0 0 1 .664.665v18.345h3.918a142.669 142.669 0 0 0 17.333-18.511 1.065 1.065 0 0 1 .997-.5h8.102c.399 0 .598.2.598.467a.825.825 0 0 1-.233.498 165.51 165.51 0 0 1-20.753 21.603 200.407 200.407 0 0 1 23.145 23.13c.364.433.165.832-.366.832" class="cls-1"/></svg>