<svg xmlns="http://www.w3.org/2000/svg" role="img" viewBox="-6.65 -6.65 345.54 53.29"><title>PyTorch BigGraph logo</title><defs><style>.icon{fill:#db5838}.pt{fill:#252525}</style></defs><path d="M33.48 7.04a6 6 0 0 0-8 2.88.42.42 0 0 0 0 .1L14 7.58v-.07a7 7 0 1 0-7 7h.57l2.12 8a7 7 0 0 0 0 12.67 7 7 0 0 0 9-10l8.72-7.78a5.4 5.4 0 0 0 1 .59 5.92 5.92 0 0 0 2.55.57 6 6 0 0 0 2.57-11.45zM9.3 11.31a3.79 3.79 0 0 1-.81.39l-.36.12a4.17 4.17 0 0 1-1.27.14 4.06 4.06 0 0 1-1.8-.42 4.49 4.49 0 1 1 6.38-4.48 4.54 4.54 0 0 1-.07 1.27.2.2 0 0 1 0 .07 4.8 4.8 0 0 1-.33 1s-.04.08-.04.18a4.32 4.32 0 0 1-1.7 1.73zm7.43 19.36a4.49 4.49 0 1 1-6.41-5.74 4.88 4.88 0 0 1 .83-.4l.34-.11a4.56 4.56 0 0 1 1.16-.15h.11a4.43 4.43 0 0 1 1.8.42 4.09 4.09 0 0 1 .46.25 4.54 4.54 0 0 1 1 .82 4.54 4.54 0 0 1 .71 4.9zm.27-7.45a6.77 6.77 0 0 0-1.32-.81 7 7 0 0 0-3.54-.64l-2.13-8a7 7 0 0 0 3.33-3.34 3.93 3.93 0 0 0 .18-.43l11.39 2.48a6 6 0 0 0 .79 3zm17.1-9.25a3.49 3.49 0 0 1-4.64 1.67l-.1-.05a3.33 3.33 0 0 1-1-.79 3.24 3.24 0 0 1-.65-1.1 3 3 0 0 1-.19-.67 3.56 3.56 0 0 1 0-1.26 3.15 3.15 0 0 1 .25-.75 3 3 0 0 1 .23-.44A3.47 3.47 0 0 1 30.92 9a3.54 3.54 0 0 1 1.48.33 3.5 3.5 0 0 1 1.67 4.64z" class="icon"/><path d="M8.3 7.58a.44.44 0 0 1 0 .16 1.34 1.34 0 0 1-1 1h-.13a1.32 1.32 0 0 1-1.3-.57 1.21 1.21 0 0 1-.18-.38 1.34 1.34 0 0 1 .94-1.64 1.35 1.35 0 0 1 1 .13 1.38 1.38 0 0 1 .62.81 1.34 1.34 0 0 1 .05.49zM14 28.41a1 1 0 0 0-.18-.38 1.13 1.13 0 0 0-.1-.13 1.34 1.34 0 0 0-1.35-.41l-.17.06a1.33 1.33 0 0 0-.8 1.13 1.26 1.26 0 0 0 0 .43 1.33 1.33 0 0 0 1.64 1 1.32 1.32 0 0 0 .82-.65 1.38 1.38 0 0 0 .14-1.05zm-1.29.35zm18.76-15.07l-.19.07a1.35 1.35 0 0 1-1-.15 1.16 1.16 0 0 1-.29-.25 1.3 1.3 0 0 1-.3-.54 1.19 1.19 0 0 1 0-.62 1.16 1.16 0 0 1 .13-.37 1.28 1.28 0 0 1 .81-.64h.16a1.35 1.35 0 0 1 1.47 1 1.33 1.33 0 0 1-.79 1.5z" class="icon"/><path d="M55.56 19.58H52v9.3h-2.7V2.5h6.6c7 0 10.3 3.4 10.3 8.3-.04 5.78-4.14 8.7-10.64 8.78zm.2-14.6h-3.9v12.1l3.8-.1c5-.1 7.7-2.1 7.7-6.2 0-3.68-2.6-5.78-7.6-5.78zm22.6 23.82l-1.6 4.2c-1.8 4.7-3.6 6.1-6.3 6.1a9.24 9.24 0 0 1-3.8-.9l.8-2.4a6.11 6.11 0 0 0 3 .8c1.5 0 2.6-.8 4-4.5l1.3-3.4-7.5-19.12h2.8l6.1 16 6-16h2.7z" class="pt"/><path d="M94.86 5.1V29h-2.7V5.1h-9.3V2.5h21.3V5h-9.3zm16.9 24.4c-5.4 0-9.4-4-9.4-10.2 0-6.2 4.1-10.3 9.6-10.3s9.3 4 9.3 10.2c0 6.2-4.1 10.3-9.5 10.3zm.1-18.1c-4.1 0-6.8 3.3-6.8 7.8 0 4.7 2.8 7.9 6.9 7.9 4.1 0 6.8-3.3 6.8-7.8 0-4.72-2.76-7.9-6.9-7.9zM128 29h-2.6V9.58l2.6-.5v4.1c1.3-2.5 3.2-4.1 5.7-4.1a7.13 7.13 0 0 1 3.4.9l-.7 2.5a5.83 5.83 0 0 0-3-.8c-2 0-3.9 1.5-5.5 5v12.3zm19.36.5c-5.8 0-9.5-4.2-9.5-10.2 0-6 4-10.3 9.5-10.3a10.93 10.93 0 0 1 6.1 1.7l-.7 2.4a9.56 9.56 0 0 0-5.4-1.6c-4.2 0-6.8 3.1-6.8 7.7s2.8 7.8 6.9 7.8a10.06 10.06 0 0 0 5.4-1.6l.5 2.4a11.07 11.07 0 0 1-6 1.7zm22.3-.5V16.5c0-3.4-1.4-4.9-4.1-4.9a8.48 8.48 0 0 0-6 2.8v14.7H157V.5l2.6-.5v12.2a10.08 10.08 0 0 1 6.7-3.1c3.8 0 6.1 2.4 6.1 6.6V29z" class="pt"/><path fill="#da5134" d="M202.7 22.12c0 4.37-2.87 7.46-9.65 7.46h-8.7V2.78h8.36c6.43 0 9.13 2.92 9.13 7 0 2.62-1.58 5.19-5.14 6.09 3.94.76 6 3.12 6 6.25zm-9.86-16.85h-5.75v9.65h5.32c4 0 6.69-1.76 6.69-4.93 0-2.88-2.02-4.72-6.26-4.72zm-.26 12.13h-5.49v9.69h6.18c4.71 0 6.69-1.92 6.69-5s-2.62-4.69-7.38-4.69zM208.1 5.44a1.8 1.8 0 0 1-1.8-2 1.8 1.8 0 1 1 3.6 0 1.8 1.8 0 0 1-1.8 2zm-1.33 24.14V9.94l2.66-.55v20.19zm6.9-3.09c0-1.63 1.42-3 3.22-3.73a6.85 6.85 0 0 1-3.18-6c0-4.16 3.09-7.37 7.72-7.37a9.25 9.25 0 0 1 4.63 1.19l5.45-.42.13 2.65-4.33-.42a6.82 6.82 0 0 1 1.58 4.41c0 4.16-3.26 7.2-7.63 7.2a8.5 8.5 0 0 1-2.92-.55c-1 .43-2.18 1.24-2.18 2.36 0 1.12.94 2 4.46 2h2.53c5.7 0 8.14 1.93 8.14 5.15 0 4.33-4.84 7.29-10.33 7.29-5.27 0-8.88-2.32-8.88-5.75a5.25 5.25 0 0 1 4.25-4.92c-1.67-.56-2.66-1.67-2.66-3.09zm1 7.51c0 2.31 2.53 4 6.69 4s7.37-2 7.37-4.63c0-2.32-2.06-3.13-6-3.13-1.33 0-3 0-4.12-.13-2.32.67-3.95 2.22-3.95 3.89zm6.73-12.18c3 0 4.89-2.14 4.89-5.14 0-3-1.72-5.11-5-5.11-3 0-4.93 2.19-4.93 5.23a4.79 4.79 0 0 0 5.03 5.02zm26.23 8.32c-7.76 0-12.95-5.4-12.95-13.89s5.44-14 12.95-14a17.33 17.33 0 0 1 8.49 2.23l-.9 2.48a14.87 14.87 0 0 0-7.64-2.23c-5.83 0-10.12 4.16-10.12 11.45 0 7.08 4.08 11.49 10.21 11.49a13.23 13.23 0 0 0 6.43-1.63v-7.31h-7.76v-2.48h10.42v11.23a17 17 0 0 1-9.13 2.66zm16.71-.56h-2.65V9.94l2.65-.55v4.19c1.29-2.53 3.22-4.2 5.79-4.2a7.06 7.06 0 0 1 3.43.9l-.68 2.48a5.9 5.9 0 0 0-3-.85c-2.06 0-4 1.54-5.54 5.06zM287 27.22a7.62 7.62 0 0 1-5.74 2.92c-3.6 0-6.22-2.32-6.22-5.45 0-3.56 2.79-6.47 11.92-7v-1.11c0-3.09-1.37-4.68-4.63-4.68a12 12 0 0 0-6.43 2.36l-.6-2.49a13.94 13.94 0 0 1 7.29-2.35c4.54 0 7.07 2 7 7v9.43c0 1.42.26 2 2 2l-.17 2.19c-2.57.17-4-.86-4.29-2.79zm0-7.71c-6.73.77-9.13 2.27-9.13 4.88 0 2.1 1.71 3.43 4 3.43a7 7 0 0 0 5.1-2.57zm16.92-9.99c5.31 0 8.79 4.2 8.79 10.16s-4 10.46-9.7 10.46a12.69 12.69 0 0 1-4.8-1v10.44h-2.66V9.86l2.66-.56v2.62a8.41 8.41 0 0 1 5.71-2.4zm-5.71 16.67a8.21 8.21 0 0 0 4.93 1.55c4.2 0 6.82-3.39 6.82-8 0-4.61-2.49-7.76-6.47-7.76a7.93 7.93 0 0 0-5.28 2.19zm31.51 3.39V16.89c0-3.43-1.37-5-4.2-5a8.87 8.87 0 0 0-6.09 2.78v14.91h-2.66V.68l2.66-.56v12.4a10.05 10.05 0 0 1 6.82-3.13c3.82 0 6.13 2.44 6.13 6.73v13.46z"/></svg>