<svg xmlns="http://www.w3.org/2000/svg" role="img" viewBox="0.44 -0.31 406.38 183.13"><title>Pythia logo</title><path fill="#3665a3" d="M163.581 32.787c-18.05 0-23.248 9.577-23.248 21.273v10.947c0 13.37 7.005 22.617 24.621 22.617a86.329 86.329 0 0 0 20.503-2.106V72.185a95.697 95.697 0 0 1-19.14 1.786c-7.355 0-9.578-1.62-9.578-7.86v-1.104h30.087V54.06c0-11.806-5.192-21.273-23.245-21.273zm6.836 21.273H156.74v-2.12c0-3.79 1.274-6.843 6.842-6.843s6.836 3.051 6.836 6.842zm98.447-21.238c-19.287 0-23.978 10.808-23.978 21.96v10.763c0 11.14 4.69 21.948 23.978 21.948 19.272 0 23.881-10.809 23.881-21.948V54.782c0-11.152-4.61-21.96-23.88-21.96zm7.464 34.306c0 3.792-1.955 6.843-7.524 6.843-5.57 0-7.51-3.05-7.51-6.843V53.302c0-3.784 1.94-6.83 7.51-6.83s7.524 3.046 7.524 6.83zm45.08-34.306c-19.287 0-23.98 10.808-23.98 21.96v10.763c0 11.14 4.693 21.948 23.98 21.948 19.271 0 23.877-10.809 23.877-21.948V54.782c0-11.152-4.606-21.96-23.877-21.96zm7.476 34.306c0 3.792-1.96 6.843-7.534 6.843-5.569 0-7.507-3.05-7.507-6.843V53.302c0-3.784 1.938-6.83 7.507-6.83 5.575 0 7.534 3.046 7.534 6.83zM94.444 55.431v9.577c0 13.37 7.008 22.617 24.62 22.617a72.517 72.517 0 0 0 16.413-2.106V72.185c-8.506 1.464-10.953 1.786-15.047 1.786-7.354 0-9.577-1.62-9.577-7.86V54.312c0-6.24 2.223-7.86 9.577-7.86 4.094 0 6.54.32 15.047 1.774V34.902a72.504 72.504 0 0 0-16.413-2.115c-17.612 0-24.62 9.27-24.62 22.643zM45.296 33.557H32.904l.01-6.843c0-3.56.344-5.474 5.463-5.474h6.842V7.571H34.275c-13.153 0-17.782 6.632-17.782 17.783v8.204h-8.2v13.668h8.2v39.665h16.41V47.225H43.85zm20.72 0H50.682l-1.368 13.668H63.34c8.58 0 9.224 1.636 9.224 7.204v2.37H61.222c-11.142 0-17.37 3.894-17.37 14.806 0 9.256 5.335 15.945 15.37 15.945a31.38 31.38 0 0 0 15.49-4.01l.591 3.451H88.98V54.544c0-15.046-4.125-20.987-22.96-20.987zm6.547 40.17c-2.447 1.122-4.432 2.215-7.774 2.215-3.12 0-4.538-1.55-4.538-4.555 0-3.006 1.53-3.647 4.985-3.647h7.327zm148.466-40.94a37.252 37.252 0 0 0-12.304 1.982V8.941l-16.41 2.731v73.845c8.927 1.372 13.67 2.083 21.76 2.083 22.397 0 26.09-9.42 26.09-22.342v-13.32c0-11.807-2.73-19.152-19.136-19.152zm2.73 32.58c0 5.134-1.099 8.806-9.134 8.806a52.3 52.3 0 0 1-5.9-.227v-25.26a18.482 18.482 0 0 1 8.2-2.215c5.58 0 6.833 3.047 6.833 6.831zm175.45-31.81h-17.776l-15.04 23.81V8.941l-16.413 2.731v75.22h16.412V61.817l15.04 25.073h17.778l-16.42-27.357z"/><path d="M138.554 139.699q-4.258 3.553-12.163 3.553h-10.099v17.44h-10.069V112.19h20.826q7.2 0 11.483 3.75 4.281 3.752 4.281 11.616 0 8.588-4.259 12.142zm-7.735-17.472a8.16 8.16 0 0 0-5.393-1.612h-9.134v14.28h9.134a7.745 7.745 0 0 0 5.393-1.744q1.925-1.743 1.925-5.529 0-3.782-1.925-5.395zm20.779 45.342l1.185.065a14.71 14.71 0 0 0 2.632-.099 4.717 4.717 0 0 0 2.106-.756 5.064 5.064 0 0 0 1.53-2.336 5.645 5.645 0 0 0 .61-2.172l-13.18-37.446h10.432l7.831 26.456 7.403-26.456h9.97L169.823 160.1q-3.565 10.2-5.64 12.651-2.075 2.45-8.301 2.451-1.252 0-2.01-.016-.758-.016-2.273-.115zm32.378-35.735v-6.68h5.002v-10.002h9.28v10.003h5.823v6.68h-5.824v18.952q0 2.205.56 2.748.559.542 3.422.542.427 0 .904-.015.477-.016.938-.05v7.009l-4.442.164q-6.647.23-9.082-2.303a6.856 6.856 0 0 1-1.58-4.969v-22.079zm51.904-6.809a10.533 10.533 0 0 1 4.439 3.523 9.402 9.402 0 0 1 1.801 4.134 51.23 51.23 0 0 1 .329 6.932v21.078h-9.576v-21.84a9.672 9.672 0 0 0-.98-4.678q-1.275-2.503-4.834-2.504a6.63 6.63 0 0 0-5.602 2.488q-1.911 2.487-1.91 7.098v19.436h-9.378v-48.337h9.378v17.11a11.465 11.465 0 0 1 4.701-4.36 13.225 13.225 0 0 1 5.618-1.234 15.178 15.178 0 0 1 6.013 1.154zm25.027-4.477h-9.51v-8.653h9.51zm-9.51 4.277h9.51v35.867h-9.51zm32.798 14.051a14.81 14.81 0 0 0 3.745-.823 2.821 2.821 0 0 0 2.022-2.665 3.15 3.15 0 0 0-1.552-3.043 9.797 9.797 0 0 0-4.552-.84q-3.368 0-4.77 1.646a6.79 6.79 0 0 0-1.334 3.29h-9.049a13.723 13.723 0 0 1 2.644-7.733q3.735-4.737 12.823-4.738a22.864 22.864 0 0 1 10.509 2.337q4.592 2.336 4.593 8.818v16.452q0 1.711.065 4.146a5.214 5.214 0 0 0 .56 2.5 3.359 3.359 0 0 0 1.382 1.087v1.382h-10.2a10.404 10.404 0 0 1-.592-2.04q-.166-.954-.264-2.172a19.37 19.37 0 0 1-4.501 3.587 13.609 13.609 0 0 1-6.884 1.744 11.879 11.879 0 0 1-8.093-2.781q-3.193-2.78-3.193-7.88 0-6.614 5.138-9.575a22.942 22.942 0 0 1 8.287-2.304zm5.733 4.376a10.399 10.399 0 0 1-1.817.906 15.364 15.364 0 0 1-2.519.641l-2.135.395a14.074 14.074 0 0 0-4.31 1.283 4.284 4.284 0 0 0-2.215 3.981 4.16 4.16 0 0 0 1.352 3.472 5.144 5.144 0 0 0 3.291 1.07 9.798 9.798 0 0 0 5.664-1.778q2.59-1.777 2.689-6.481z"/></svg>