<svg xmlns="http://www.w3.org/2000/svg" role="img" viewBox="11.73 0.73 534.04 123.04"><title>QuantumBlack Labs (hosting) logo</title><style>svg {enable-background:new 0 0 572.72 125.26}</style><g id="Layer_1"><path d="M98.28 14.76L97 14.01H47.87l-1.28.75-24.57 43.01v1.46l24.57 43.01 1.28.75h14.06v-2.96h-13.2L25.01 58.5l23.72-41.53h47.41l23.72 41.53-6.81 11.93 2.56 1.48 7.24-12.68v-1.46z"/><path fill="#00a9f4" d="M105.86 83.01l-9.72 17.02H76.9v2.96H97l1.28-.75 10.14-17.75z"/><path d="M142.78 36.19c0-13.08 9.03-23.28 22.18-23.28s22.3 10.08 22.3 23.22c0 11-6.76 19.47-16.4 21.99v.18l7 .12s5.28 5.34 10.2 9.4v1.9h-8.54l-8.11-8.97c-1.11-1.23-2.4-1.78-4.3-1.66l-2.09.12c-12.78.01-22.24-9.94-22.24-23.02zm7.31 7.49c.86 7.56 6.7 12.29 15.48 12.29 8.85 0 13.33-5.16 14.38-12.29.61-3.99.55-11.67 0-15.6-1.04-7.56-6.7-12.29-15.48-12.29-8.85 0-13.52 5.16-14.38 12.29-.49 4.05-.49 11.61 0 15.6zm72.21 12.53h1.78v2.21h-9.15l-1.11-6.2c-3.26 3.75-6.27 6.88-11.37 6.88-4.48 0-8.05-3.5-8.05-8.48V34.59c0-.98-2.33-3.07-3.19-3.07h-1.47v-2.21h10.01v21.13c0 2.89 1.47 4.98 4.61 4.98 4.67 0 9.4-4.73 9.4-6.7V34.59c0-.98-2.33-3.07-3.19-3.07h-1.66v-2.21h10.2v23.84c-.01.91 2.32 3.06 3.19 3.06zm20.42-3.62c-2.33 3.01-5.41 6.39-9.71 6.39-3.99 0-7.37-3.19-7.37-7.92 0-5.77 5.28-7.8 9.4-8.66l7.49-1.54.06-3.62c.06-4.12-1.6-6.45-6.82-6.45-4.98 0-6.57 3.19-4.42 8.17h-2.09l-3.87-5.84c2.4-2.46 5.77-4.49 11.67-4.49 6.27 0 10.87 2.95 10.87 8.66v15.85c0 .98 2.4 3.07 3.19 3.07h1.72v2.21h-9.4l-.72-5.83zm-7.06-8.05c-3.62.92-4.85 2.89-4.85 5.77 0 2.52 1.78 4.67 4.67 4.67 2.83 0 5.9-2.95 7.13-5.1v-7.13l-6.95 1.79z"/><path d="M284.19 56.21h1.47v2.21H270.8v-2.21h1.66c.86 0 3.19-2.09 3.19-3.07V37.29c0-2.83-1.47-4.98-4.61-4.98-4.12 0-9.46 4.05-9.46 6.02v14.8c0 .98 2.33 3.07 3.19 3.07h1.66v2.21h-15.17V56.2h1.78c.86 0 3.19-2.09 3.19-3.07V34.59c0-.92-2.33-3.07-3.19-3.07h-1.78v-2.21h9.15l1.11 5.96c3.5-3.56 6.21-6.57 11.43-6.57 4.48 0 8.05 3.32 8.05 8.29v16.16c0 .97 2.33 3.06 3.19 3.06zm11.13 2.89c-3.26 0-6.2-2.4-6.2-6.76V32.01h-5.16v-1.84c3.62-2.95 5.77-4.98 8.6-8.48h1.78v7.62h8.54v2.7h-8.36v19.41c0 2.15 1.23 3.56 3.75 3.56 1.47 0 3.56-1.17 4.48-1.84l1.04 1.54c-1.28 1.41-5.34 4.42-8.47 4.42zm43.12-2.89h1.78v2.21h-9.15l-1.11-6.2c-3.26 3.75-6.27 6.88-11.37 6.88-4.48 0-8.05-3.5-8.05-8.48V34.59c0-.98-2.33-3.07-3.19-3.07h-1.47v-2.21h10.01v21.13c0 2.89 1.47 4.98 4.61 4.98 4.67 0 9.4-4.73 9.4-6.7V34.59c0-.98-2.33-3.07-3.19-3.07h-1.66v-2.21h10.2v23.84c-.01.91 2.33 3.06 3.19 3.06z"/><path d="M390.24 56.21h1.35v2.21h-14.5v-2.21h1.66c.86 0 3.07-2.09 3.07-3.07V36.99c0-2.83-1.41-4.79-4.55-4.79-3.81 0-8.54 3.69-8.54 5.65v15.3c0 .98 2.21 3.07 3.07 3.07h1.66v2.21h-14.8v-2.21h1.66c.86 0 3.07-2.09 3.07-3.07V36.99c0-2.83-1.47-4.79-4.61-4.79-3.81 0-8.54 3.87-8.54 5.84v15.11c0 .98 2.21 3.07 3.07 3.07h1.66v2.21h-14.8v-2.21h1.66c.86 0 3.07-2.09 3.07-3.07V34.59c0-.92-2.21-3.07-3.07-3.07h-1.66v-2.21h8.91l1.17 5.59c3.32-3.5 5.47-6.21 10.57-6.21 3.87 0 7.13 2.09 7.68 6.14 3.56-3.5 5.84-6.08 10.75-6.08 4.36 0 7.92 2.95 7.92 8.23v16.16c-.01.98 2.21 3.07 3.07 3.07zm5.76 0c.86 0 3.44-2.46 3.44-3.38V19.29c0-.92-2.58-3.38-3.44-3.38h-2.33V13.7h18.18c8.6 0 15.42 3.26 15.42 10.94 0 4.3-1.72 6.27-4.12 7.74l-6.2 1.78c6.33 1.11 12.9 3.99 12.9 11.55 0 8.11-6.63 12.72-17.39 12.72h-18.8v-2.21H396zm9.52-38.08v15.6h7.19c3.81-.49 7.92-2.52 8.29-7.07.06-.8.06-2.15 0-3.07-.25-4.61-5.04-7.43-9.21-7.43h-4.36c-.74 0-1.91 1.23-1.91 1.97zm17.82 29.42c.06-1.11.06-2.4 0-3.5-.25-4.98-5.53-7.99-10.08-7.99h-7.74v17.88c0 .61 1.17 1.84 1.78 1.84h5.22c6.03 0 10.57-3.01 10.82-8.23zm17.88 5.59c0 .98 2.4 3.07 3.19 3.07h1.78v2.21h-15.36v-2.21h1.78c.86 0 3.19-2.09 3.19-3.07V18.99c0-.92-2.33-3.07-3.19-3.07h-1.78V13.7l10.38-2.64v42.08zm24.39-.55c-2.33 3.01-5.41 6.39-9.71 6.39-3.99 0-7.37-3.19-7.37-7.92 0-5.77 5.28-7.8 9.4-8.66l7.49-1.54.06-3.62c.06-4.12-1.6-6.45-6.82-6.45-4.98 0-6.57 3.19-4.42 8.17h-2.09l-3.87-5.84c2.4-2.46 5.77-4.49 11.67-4.49 6.27 0 10.87 2.95 10.87 8.66v15.85c0 .98 2.4 3.07 3.19 3.07h1.72v2.21h-9.4l-.72-5.83zm-7.06-8.05c-3.62.92-4.85 2.89-4.85 5.77 0 2.52 1.78 4.67 4.67 4.67 2.83 0 5.9-2.95 7.13-5.1v-7.13l-6.95 1.79zm30.37-13.76c-5.77 0-8.6 4.61-8.6 11.43 0 6.45 4.12 11.79 10.75 11.79 5.04 0 7.19-1.78 9.21-5.16h1.78c-1.9 6.33-5.77 10.32-13.02 10.32-8.05 0-13.27-6.88-13.27-15.11 0-9.34 6.21-15.48 13.82-15.48 4.55 0 7.62 1.41 10.26 4.05l-4.24 6.57-1.78.12c.8-4.48.06-8.53-4.91-8.53zm24.06 14.56l9.83-9.64c.92-.86-.37-4.18-1.54-4.18h-1.66v-2.21h14.38v2.21h-1.35c-1.47.31-5.84 3.56-6.76 4.48l-5.1 4.79 9.71 11.73c.8.98 3.13 3.69 4.05 3.69h1.35v2.21h-8.42s-4.91-6.2-10.63-13.82l-3.87 3.62v4.91c0 .98 2.4 3.07 3.19 3.07h1.78v2.21H502.6V56.2h1.78c.86 0 3.19-2.09 3.19-3.07V19.05c0-.92-2.33-3.19-3.19-3.19h-1.78V13.7l10.38-2.64v34.28z"/><g><path d="M208.57 70.49l10.58 28.38c.53.71 2.48 2.66 3.1 2.66h.84v1.64H210.2v-1.64h1.77c.66-.04 2.17-1.9 2.17-2.66l-2.13-5.8h-11.47l-2.17 5.8c.13.75 1.55 2.66 2.21 2.66h1.68v1.64h-10.27v-1.64h.75c.62-.04 3.05-1.86 3.54-2.66l10.45-27.32 1.84-1.06zm2.71 20.37l-4.87-13.28-5.05 13.28h9.92zm15.84-18.34h-1.68v-1.59h12.75v1.59h-1.68c-.62 0-2.48 1.77-2.48 2.44v24.18c0 .66 1.86 2.44 2.48 2.44h1.68v1.59h-12.75v-1.59h1.68c.62 0 2.48-1.77 2.48-2.44V74.96c0-.66-1.86-2.44-2.48-2.44zm40.07 9.13c5.09 0 8.15 4.29 8.15 10.72 0 6.38-3.81 11.25-8.94 11.25-3.76 0-5.54-1.5-7-4.07l-3.54 3.9h-.18V74.69c0-.66-1.68-2.21-2.3-2.21h-1.28v-1.55l7.48-1.9v17.45c1.81-3.37 4.16-4.83 7.61-4.83zm-7.61 8.19v4.87c0 3.68 2.35 6.78 5.89 6.78 3.67 0 5.4-2.35 5.84-5.67.27-1.99.31-4.29.04-6.24-.44-3.32-2.26-5.45-5.27-5.45-3.53 0-5.44 2.43-6.5 5.71z"/><path d="M275.22 83.77h-.93v-1.59h11.11v1.59h-1.28c-.58 0-1.86 1.46-1.86 2.26l4.87 11.2 4.78-11.16c.04-.84-1.24-2.3-1.82-2.3h-1.28v-1.59h8.37v1.59h-.97c-.49 0-1.99 1.59-2.44 2.3l-7.13 16.07-5.27 11.6-1.9-.89 5.58-11.42-7.13-15.28c-.31-.7-2.17-2.38-2.7-2.38zm34.76-11.25h-1.59v-1.59h9.39l9.65 24.31h.22l10.18-24.31h8.41v1.59h-1.59c-.62 0-2.48 1.77-2.48 2.44v24.18c0 .66 1.86 2.44 2.48 2.44h1.59v1.59h-12.49v-1.59h1.59c.62 0 2.48-1.77 2.48-2.44V75.67l-11.73 28.07-11.73-28.56v23.96c0 .66 1.86 2.44 2.48 2.44h1.59v1.59h-10.05v-1.59h1.59c.62 0 2.48-1.77 2.48-2.44V74.96c.01-.66-1.85-2.44-2.47-2.44zm45.98 10.72c-4.16 0-6.2 3.32-6.2 8.24 0 4.65 2.97 8.5 7.75 8.5 3.63 0 5.18-1.28 6.64-3.72h1.28c-1.37 4.56-4.16 7.44-9.39 7.44-5.8 0-9.57-4.96-9.57-10.89 0-6.73 4.47-11.16 9.96-11.16 3.28 0 5.49 1.02 7.39 2.92l-3.06 4.74-1.28.09c.6-3.24.07-6.16-3.52-6.16z"/><path d="M383.33 72.52h-1.55v-1.59h11.69v1.59h-1.55c-.62 0-3.67 2.44-4.12 2.92l-7.84 8.41 11.29 15.01c.53.71 3.14 2.7 3.81 2.7h1.06v1.59h-7.93l-11.16-16.12-3.28 3.54v8.55c0 .66 1.86 2.44 2.48 2.44h1.59v1.59h-12.58v-1.59h1.59c.62 0 2.48-1.77 2.48-2.44V74.96c0-.66-1.86-2.44-2.48-2.44h-1.59v-1.59h12.58v1.59h-1.59c-.62 0-2.48 1.77-2.48 2.44v13.2l11.51-12.84c.51-.58-1.31-2.8-1.93-2.8z"/><path d="M403.17 99.36c0 .71 1.73 2.21 2.3 2.21h1.28v1.59h-11.07v-1.59h1.28c.62 0 2.3-1.51 2.3-2.21V85.99c0-.67-1.68-2.21-2.3-2.21h-1.28v-1.59h7.48v17.17zm-2.35-27.41c1.55 0 2.7 1.02 2.7 2.66 0 1.64-1.15 2.7-2.7 2.7s-2.75-1.06-2.75-2.7c0-1.64 1.2-2.66 2.75-2.66z"/><path d="M430.18 101.57h1.06v1.59h-10.72v-1.59h1.2c.62 0 2.3-1.51 2.3-2.21V87.93c0-2.04-1.06-3.59-3.32-3.59-2.97 0-6.82 2.92-6.82 4.34v10.67c0 .71 1.68 2.21 2.3 2.21h1.2v1.59h-10.94v-1.59h1.28c.62 0 2.3-1.51 2.3-2.21V85.99c0-.67-1.68-2.21-2.3-2.21h-1.28v-1.59h6.6l.8 4.29c2.52-2.57 4.47-4.74 8.24-4.74 3.23 0 5.8 2.39 5.8 5.98v11.65c-.01.7 1.68 2.2 2.3 2.2zm11.19.4c2.61 0 4.07-.93 4.07-2.88 0-2.35-2.08-3.14-3.94-3.94-1.46-.62-2.66-1.11-4.34-1.86-2.52-1.15-4.43-2.83-4.43-5.71 0-3.76 2.26-5.93 6.29-5.93 2.3 0 3.59 1.11 5.18 1.11.62 0 .97-.13 1.15-.58h1.15v6.46h-1.28c0-1.73-2.44-5.4-6.33-5.4-2.44 0-3.59 1.06-3.59 2.79 0 1.82 1.24 2.48 3.41 3.41 1.59.67 2.79 1.2 4.52 1.86 2.26.89 4.83 2.7 4.83 6.07 0 3.99-2.75 6.33-6.69 6.33-2.66 0-4.21-1.24-6.02-1.24-.84 0-1.06.22-1.59.71h-1.02v-7.35h1.28c0 1.94 2.83 6.15 7.35 6.15zm7.78-9.3c0-6.2 4.21-11.03 9.61-10.98 4.74.04 7.39 3.28 7.62 7.35l.09 1.51-13.95 1.11c0 4.21 2.92 8.37 7.66 8.37 3.59 0 5.22-1.37 6.51-3.76h1.28c-1.37 4.56-3.99 7.4-9.12 7.4-5.85-.02-9.7-5.11-9.7-11zm9.52-9.39c-4.34 0-6.07 3.59-6.2 6.86l10.41-.89c.35-2.95-.14-5.97-4.21-5.97zm8.28.49h-.93v-1.59h11.11v1.59h-1.28c-.58 0-1.86 1.46-1.86 2.26l4.87 11.2 4.78-11.16c.04-.84-1.24-2.3-1.82-2.3h-1.28v-1.59h8.37v1.59h-.97c-.49 0-1.99 1.59-2.44 2.3l-7.13 16.07-5.27 11.6-1.9-.89 5.58-11.42-7.13-15.28c-.3-.7-2.16-2.38-2.7-2.38z"/></g></g></svg>