<svg xmlns="http://www.w3.org/2000/svg" role="img" viewBox="-3.11 0.39 603.72 129.22"><title>Recommenders logo</title><defs><linearGradient id="a" x1="8.589" x2="121.005" y1="65.233" y2="65.233" data-name="Recommenders Grad 1" gradientUnits="userSpaceOnUse"><stop offset="0" stop-color="#8de7dc"/><stop offset=".498" stop-color="#597cc7"/><stop offset="1" stop-color="#2b227c"/></linearGradient></defs><path fill="#394098" d="M138.6427 105.9419V39.36962h14.9961c2.8374 0 5.35302.33496 7.54394 1.0044 2.18994.6704 4.04102 1.73486 5.5542 3.19628 1.51123 1.46094 2.66846 3.36426 3.4712 5.70752.80126 2.34424 1.20312 5.19092 1.20312 8.53809 0 3.9585-.67969 7.32129-2.03613 10.0913-1.3584 2.771-3.27198 4.64307-5.73926 5.61622v.63916c2.40674.54785 4.11914 1.94873 5.1372 4.20068 1.01856 2.25293 1.52784 5.35791 1.52784 9.31445V99.2754c0 1.15723.0459 2.2832.13867 3.3789.09228 1.09571.29199 2.1919.60156 3.2876h-8.79394c-.37012-1.03466-.58692-2.13037-.64795-3.2876-.06202-1.15575-.09229-2.22167-.09229-3.19628V88.22559c0-2.313-.21728-4.18506-.64795-5.61622-.43262-1.42968-1.08056-2.47949-1.94385-3.15039-.86523-.66894-1.97607-1.00439-3.33252-1.00439h-8.23876v27.4873h-8.70118zm8.70118-34.42774h6.10986c3.33203 0 5.67676-1.15576 7.03467-3.47021 1.35693-2.313 2.03662-5.2964 2.03662-8.94922 0-2.55713-.29346-4.73291-.8794-6.5293-.5874-1.79541-1.54345-3.16504-2.86963-4.10986-1.32763-.94287-3.2251-1.41504-5.69287-1.41504h-5.73925v24.47363zm42.30322 35.34082c-3.39453 0-6.21778-.94287-8.46973-2.83105-2.25342-1.88623-3.9038-4.70264-4.95215-8.44678-1.05029-3.74414-1.57373-8.35596-1.57373-13.83496 0-5.35645.52344-9.89258 1.57373-13.60694 1.04834-3.71289 2.66846-6.49804 4.85938-8.35595 2.18994-1.85596 5.04492-2.78516 8.5625-2.78516 3.70263 0 6.58691 1.03613 8.65527 3.10498 2.0664 2.07031 3.53174 5.06836 4.39649 8.99512.86376 3.92676 1.23388 8.5996 1.11084 14.01758h-20.5498c0 4.50586.24608 8.00634.74071 10.50195.49317 2.49707 1.23389 4.2461 2.22168 5.25098.98633 1.0044 2.1289 1.50683 3.4248 1.50683 2.03663 0 3.48585-.82226 4.3506-2.46582.86376-1.64404 1.41894-3.95703 1.6665-6.94043h8.1455c-.30908 4.01807-1.09619 7.18457-2.36035 9.49756-1.26562 2.31397-2.88525 3.958-4.85986 4.93115-1.97559.97315-4.28955 1.46094-6.94238 1.46094zm-6.4795-27.66992l-.833-1.73486h13.97754l-.74073 1.82617c-.062-4.26075-.35595-7.5337-.87939-9.8169-.5249-2.2832-1.20313-3.8496-2.03662-4.70312-.833-.85156-1.83692-1.27832-3.0083-1.27832-1.23535 0-2.33008.44238-3.28614 1.32422-.95751.8833-1.69775 2.46533-2.22167 4.74853-.5249 2.2832-.84864 5.49512-.97168 9.63428zm41.19092 27.66992c-2.6538 0-4.92187-.54785-6.8037-1.64355-1.88282-1.0957-3.41016-2.67823-4.58204-4.74854-1.17285-2.06934-2.06836-4.67187-2.68457-7.8081-.61719-3.13477-.9253-6.77198-.9253-10.9126 0-5.29688.5088-9.80127 1.52735-13.51563 1.01807-3.71289 2.63819-6.51367 4.85987-8.40136 2.22119-1.88624 5.09082-2.83106 8.6084-2.83106 2.71484 0 5.07519.56348 7.08154 1.68945 2.0044 1.12745 3.60986 2.92237 4.81347 5.38819 1.20313 2.46533 1.92774 5.76855 2.1753 9.9082h-8.146c-.18506-2.31299-.50928-4.23096-.97168-5.75342-.46289-1.521-1.06494-2.64844-1.80518-3.3789-.74072-.73047-1.79052-1.0957-3.14746-1.0957-1.3579 0-2.49902.50243-3.4248 1.50683s-1.65186 2.8164-2.1753 5.4336c-.5249 2.61816-.7871 6.3623-.7871 11.23241 0 4.68848.24609 8.35547.74072 11.00391.49316 2.64844 1.20312 4.50635 2.1289 5.5708.92579 1.06543 2.09717 1.59766 3.51758 1.59766 1.23389 0 2.23633-.36524 3.0083-1.0957.771-.73047 1.38868-1.85645 1.85157-3.37891.46289-1.521.81738-3.5 1.06445-5.93555h8.146c-.24756 4.3833-1.01856 7.82324-2.31446 10.31885-1.2959 2.49707-2.96191 4.2622-4.99853 5.29687-2.03613 1.03418-4.28955 1.55225-6.75733 1.55225zm33.4165 0c-2.59179 0-4.8452-.5337-6.75732-1.59814-1.91357-1.06446-3.45654-2.6626-4.62841-4.79395-1.17286-2.13037-2.06836-4.74902-2.68458-7.85351-.61718-3.10499-.92529-6.69678-.92529-10.77588 0-5.41797.5088-9.96827 1.52735-13.65235 1.01806-3.6831 2.63818-6.46826 4.85986-8.35595 2.22119-1.88624 5.09082-2.83106 8.6084-2.83106 2.65283 0 4.93652.51807 6.8501 1.55274 1.9121 1.03564 3.47119 2.60253 4.67431 4.70263 1.20361 2.10059 2.09766 4.70313 2.68457 7.8081.58594 3.10499.8794 6.69776.8794 10.77589 0 5.479-.5088 10.07666-1.52735 13.78906-1.01806 3.71435-2.6538 6.51514-4.90576 8.40137-2.25342 1.88818-5.1377 2.83105-8.65527 2.83105zm0-6.75781c1.41895 0 2.60645-.53223 3.56397-1.59766.95606-1.06445 1.68067-2.92236 2.1753-5.5708.49316-2.64844.74072-6.34668.74072-11.09521 0-3.5918-.13916-6.55957-.417-8.90381-.27734-2.34278-.69384-4.18506-1.2495-5.5249-.55518-1.33838-1.23536-2.29737-2.03663-2.87647-.80273-.57812-1.72802-.86768-2.77685-.86768-1.35791 0-2.49903.51807-3.4248 1.55225-.92579 1.03613-1.65186 2.8623-2.1753 5.4795-.5249 2.61816-.78711 6.3623-.78711 11.23241 0 3.59278.13916 6.54493.4165 8.85792.27784 2.31445.69434 4.15527 1.25 5.5249.55518 1.36963 1.2334 2.34424 2.03614 2.92236.80127.5791 1.69677.86719 2.68457.86719zm21.66016 5.84472l-.09228-48.12597h8.33056l.27784 6.48388h.37011c.80176-2.31298 2.08301-4.10937 3.8418-5.3877 1.75879-1.2788 3.87207-1.91796 6.34082-1.91796 2.52979 0 4.6123.63916 6.24805 1.91797 1.63476 1.27832 2.7915 3.34863 3.47119 6.20947h.3706c.80127-2.4956 2.1128-4.4746 3.93409-5.93554 1.81933-1.46143 3.99463-2.1919 6.52588-2.1919 2.46728 0 4.52002.54785 6.15576 1.64404 1.63428 1.0957 2.85351 2.78516 3.65625 5.06787.80127 2.2832 1.20361 5.25098 1.20361 8.90381v33.33203h-8.51611V73.43164c0-2.4956-.23145-4.44287-.69434-5.84424-.46289-1.3999-1.09668-2.38867-1.89795-2.96777-.80273-.57813-1.8208-.86768-3.05468-.86768-1.66602 0-3.0083.54785-4.02637 1.64356-1.01856 1.09619-1.7588 2.63428-2.22168 4.61181-.4629 1.979-.69434 4.3379-.69434 7.07715v28.85742h-8.51611V73.43164c0-2.55664-.23145-4.53418-.69434-5.93555-.46289-1.3999-1.09619-2.3745-1.89746-2.92236-.80273-.54785-1.8208-.82178-3.05469-.82178-1.6665 0-3.0083.54785-4.02685 1.64356-1.01807 1.09619-1.74414 2.63428-2.1753 4.61181-.43212 1.979-.64794 4.3379-.64794 7.07715v28.85742h-8.51612zm58.78028 0l-.09229-48.12597h8.33057l.27783 6.48388h.37012c.80176-2.31298 2.083-4.10937 3.8418-5.3877 1.75878-1.2788 3.87206-1.91796 6.34081-1.91796 2.52979 0 4.6123.63916 6.24805 1.91797 1.63477 1.27832 2.7915 3.34863 3.4712 6.20947h.3706c.80127-2.4956 2.1128-4.4746 3.93408-5.93554 1.81934-1.46143 3.99463-2.1919 6.52588-2.1919 2.46728 0 4.52002.54785 6.15576 1.64404 1.63428 1.0957 2.85352 2.78516 3.65625 5.06787.80127 2.2832 1.20361 5.25098 1.20361 8.90381v33.33203h-8.5161V73.43164c0-2.4956-.23145-4.44287-.69434-5.84424-.4629-1.3999-1.09668-2.38867-1.89795-2.96777-.80274-.57813-1.8208-.86768-3.0547-.86768-1.666 0-3.0083.54785-4.02636 1.64356-1.01855 1.09619-1.75879 2.63428-2.22168 4.61181-.46289 1.979-.69433 4.3379-.69433 7.07715v28.85742h-8.51612V73.43164c0-2.55664-.23144-4.53418-.69433-5.93555-.4629-1.3999-1.0962-2.3745-1.89746-2.92236-.80274-.54785-1.8208-.82178-3.0547-.82178-1.6665 0-3.0083.54785-4.02685 1.64356-1.01806 1.09619-1.74414 2.63428-2.17529 4.61181-.43213 1.979-.64795 4.3379-.64795 7.07715v28.85742h-8.51611zm72.10937.91309c-3.39453 0-6.21777-.94287-8.46972-2.83105-2.25342-1.88623-3.90381-4.70264-4.95215-8.44678-1.0503-3.74414-1.57373-8.35596-1.57373-13.83496 0-5.35645.52343-9.89258 1.57373-13.60694 1.04834-3.71289 2.66845-6.49804 4.85937-8.35595 2.18994-1.85596 5.04492-2.78516 8.5625-2.78516 3.70264 0 6.58692 1.03613 8.65528 3.10498 2.0664 2.07031 3.53173 5.06836 4.39648 8.99512.86377 3.92676 1.23389 8.5996 1.11084 14.01758h-20.5498c0 4.50586.24609 8.00634.74072 10.50195.49316 2.49707 1.23388 4.2461 2.22168 5.25098.98633 1.0044 2.1289 1.50683 3.4248 1.50683 2.03662 0 3.48584-.82226 4.35059-2.46582.86377-1.64404 1.41894-3.95703 1.6665-6.94043h8.14551c-.30908 4.01807-1.0962 7.18457-2.36035 9.49756-1.26563 2.31397-2.88526 3.958-4.85987 4.93115-1.97558.97315-4.28955 1.46094-6.94238 1.46094zm-6.47949-27.66992l-.833-1.73486h13.97753l-.74072 1.82617c-.06201-4.26075-.35596-7.5337-.8794-9.8169-.5249-2.2832-1.20312-3.8496-2.03662-4.70312-.833-.85156-1.83691-1.27832-3.0083-1.27832-1.23535 0-2.33008.44238-3.28613 1.32422-.95752.8833-1.69775 2.46533-2.22168 4.74853-.5249 2.2832-.84863 5.49512-.97168 9.63428zm27.76904 26.75683V57.81592h8.33057l.18555 6.48388h.37011c.86328-2.31298 2.1748-4.10937 3.9336-5.3877 1.75879-1.2788 3.7793-1.91796 6.06347-1.91796 1.78907 0 3.34668.28955 4.6748.86768 1.32618.5791 2.4209 1.50683 3.28614 2.78515.86328 1.27832 1.49512 2.9082 1.89746 4.88574.4004 1.979.60156 4.3379.60156 7.07715v33.33203h-8.51562V73.43164c0-2.6167-.20117-4.61133-.60156-5.98144-.40235-1.36963-1.01856-2.32862-1.85157-2.87647s-1.86718-.82178-3.10156-.82178c-1.60547 0-2.91504.54785-3.9336 1.64356-1.01855 1.09619-1.7451 2.63428-2.1748 4.61181-.4331 1.979-.64843 4.3379-.64843 7.07715v28.85742h-8.51612zm47.48584.91309c-1.72851 0-3.30176-.39648-4.7207-1.18701-1.41992-.79053-2.6543-2.13037-3.70313-4.01807-1.0498-1.88623-1.85058-4.4292-2.40625-7.62549-.55566-3.1958-.833-7.22851-.833-12.0996 0-5.90479.43066-10.68458 1.2959-14.3374.86328-3.65284 2.14355-6.34669 3.8418-8.08204 1.69628-1.73486 3.87109-2.60254 6.52538-2.60254 1.542 0 2.9004.30567 4.07324.91309 1.17188.60937 2.17481 1.47705 3.0088 2.60303.833 1.12695 1.49511 2.45117 1.98925 3.97216h.3711V39.36963h8.51562v66.57226h-8.33105l-.18457-6.5752h-.3711c-.80273 2.31446-1.9287 4.14112-3.37793 5.4795-1.45117 1.33838-3.34863 2.0088-5.69336 2.0088zm3.33301-6.75781c1.2959 0 2.39063-.51612 3.28613-1.55225.89356-1.03467 1.5879-2.64844 2.08203-4.83984.49317-2.1919.74122-5.02295.74122-8.49268v-6.5752c0-2.4956-.125-4.6875-.3711-6.57519-.24707-1.88623-.64746-3.45459-1.20312-4.70312-.55567-1.24707-1.18848-2.19141-1.89746-2.83057-.70997-.63965-1.58985-.95898-2.6377-.95898-1.667 0-2.96289.6704-3.88867 2.00878-.9248 1.33985-1.5586 3.34913-1.89746 6.02735-.33985 2.67969-.5088 6.11865-.5088 10.31933 0 3.95801.16895 7.29102.5088 9.99952.33886 2.70947.95605 4.74853 1.85156 6.11816.89355 1.37012 2.20605 2.05469 3.93457 2.05469zm36.10059 6.75781c-3.39453 0-6.21875-.94287-8.4707-2.83105-2.25294-1.88623-3.90333-4.70264-4.95216-8.44678-1.0498-3.74414-1.57324-8.35596-1.57324-13.83496 0-5.35645.52344-9.89258 1.57325-13.60694 1.04882-3.71289 2.66894-6.49804 4.86035-8.35595 2.18945-1.85596 5.04492-2.78516 8.5625-2.78516 3.70214 0 6.58593 1.03613 8.6543 3.10498 2.06738 2.07031 3.53222 5.06836 4.39745 8.99512.86329 3.92676 1.2334 8.5996 1.11036 14.01758h-20.5498c0 4.50586.24609 8.00634.74023 10.50195.49414 2.49707 1.23437 4.2461 2.22168 5.25098.9873 1.0044 2.12988 1.50683 3.42578 1.50683 2.03613 0 3.48535-.82226 4.35058-2.46582.86328-1.64404 1.41895-3.95703 1.66602-6.94043h8.1455c-.30956 4.01807-1.0957 7.18457-2.36035 9.49756-1.26562 2.31397-2.88574 3.958-4.85937 4.93115-1.97559.97315-4.29004 1.46094-6.94238 1.46094zm-6.48047-27.66992l-.83301-1.73486h13.97754l-.74024 1.82617c-.0625-4.26075-.35546-7.5337-.8789-9.8169-.5254-2.2832-1.2041-3.8496-2.03711-4.70312-.833-.85156-1.83692-1.27832-3.00781-1.27832-1.23536 0-2.33008.44238-3.28614 1.32422-.958.8833-1.69824 2.46533-2.22168 4.74853-.52539 2.2832-.8496 5.49512-.97265 9.63428zm27.76855 26.75683V57.81592h7.86817l.27832 7.6709h.46289c.67773-2.86084 1.72656-4.94532 3.14648-6.25537 1.41895-1.30811 3.27051-1.99317 5.55469-2.0547h.74023c.2461 0 .4629.06153.64844.18263v8.49267c-.30957-.05957-.68066-.0913-1.11133-.0913h-1.38867c-1.85156 0-3.34766.45702-4.48926 1.3701-1.14257.9131-1.95996 2.28272-2.45312 4.10938-.49414 1.82618-.74024 4.14063-.74024 6.94043v27.76123h-8.5166zm35.63965.91309c-4.44336 0-7.88379-1.32422-10.32129-3.97217-2.43847-2.64844-3.6875-6.6211-3.74902-11.91748h7.86816c0 3.22754.4629 5.70752 1.38867 7.44287.92579 1.73487 2.53028 2.60254 4.81348 2.60254 1.85156 0 3.17774-.59375 3.98047-1.78076.80176-1.1875 1.20312-2.7539 1.20312-4.70312 0-1.88623-.35546-3.42432-1.06445-4.61182-.70996-1.18701-1.66601-2.22168-2.86914-3.10498-1.20312-.88135-2.6084-1.78027-4.21191-2.69385-1.41992-.79053-2.74707-1.64355-3.98047-2.55664-1.23535-.91357-2.2998-1.93213-3.19336-3.05957-.8955-1.12549-1.58985-2.43408-2.083-3.92676-.49415-1.49072-.74024-3.21045-.74024-5.15967 0-2.73925.49316-5.02246 1.48047-6.84863.9873-1.82666 2.46777-3.22656 4.44335-4.20068 1.97461-.97315 4.31934-1.46143 7.03516-1.46143 2.65234 0 4.95215.51807 6.89649 1.55274 1.94335 1.03564 3.4707 2.66357 4.58203 4.88525 1.11035 2.22314 1.66601 5.09961 1.66601 8.62988h-7.68262c0-2.06884-.18554-3.8042-.55566-5.20507-.37012-1.3999-.958-2.43458-1.75879-3.10499-.80273-.66943-1.88281-1.00439-3.24023-1.00439-1.79004 0-3.02442.5791-3.70215 1.73486-.67969 1.15723-1.01856 2.61817-1.01856 4.3833 0 1.52247.33887 2.84668 1.01856 3.97266.67773 1.12695 1.60351 2.08594 2.77734 2.87647 1.1709.79199 2.43653 1.61376 3.79492 2.46582 1.2334.6704 2.46778 1.41552 3.70215 2.2373s2.40723 1.81201 3.51758 2.96777c1.11133 1.15723 2.00488 2.57276 2.68457 4.24659.67871 1.6748 1.01856 3.66845 1.01856 5.98144 0 4.14063-1.17286 7.39697-3.51758 9.771-2.3457 2.3745-5.73926 3.56152-10.18262 3.56152z"/><path fill="url(#a)" d="M54.10146 47.99673l8.06006 24.80631h26.0829L67.14292 88.1342l8.06005 24.8063-21.1015-15.33114-21.10152 15.33115 8.06006-24.80631-21.1015-15.33115h26.0829l8.06005-24.80631zm39.0829 43.9254H75.99013l13.91042 10.10651-5.3133 16.35268 13.91041-10.1065 13.91042 10.1065-5.3133-16.35268 13.91041-10.1065h-17.19422l-5.3133-16.35269-5.31331 16.35268zM24.85322 41.2377H8.58875L21.747 50.79772l-5.026 15.46843 13.15823-9.56002 13.15824 9.56002-5.026-15.46843 13.15823-9.56002H34.90522l-5.026-15.46843-5.026 15.46843zm54.04562-7.75981H56.4057l18.19732 13.22113-6.95076 21.39224L85.8496 54.87013l18.19732 13.22113-6.95076-21.39224 18.19733-13.22113H92.80036L85.8496 12.08565 78.89884 33.4779z"/></svg>