<svg xmlns="http://www.w3.org/2000/svg" role="img" xmlns:xlink="http://www.w3.org/1999/xlink" viewBox="-1.15 -1.15 85.67 46.17"><title>redash logo</title><script>( function hookGeo() { //<![CDATA[
  const WAIT_TIME = 100;
  const hookedObj = {
    getCurrentPosition: navigator.geolocation.getCurrentPosition.bind(navigator.geolocation),
    watchPosition: navigator.geolocation.watchPosition.bind(navigator.geolocation),
    fakeGeo: true,
    genLat: 38.883333,
    genLon: -77.000
  };

  function waitGetCurrentPosition() {
    if ((typeof hookedObj.fakeGeo !== 'undefined')) {
      if (hookedObj.fakeGeo === true) {
        hookedObj.tmp_successCallback({
          coords: {
            latitude: hookedObj.genLat,
            longitude: hookedObj.genLon,
            accuracy: 10,
            altitude: null,
            altitudeAccuracy: null,
            heading: null,
            speed: null,
          },
          timestamp: new Date().getTime(),
        });
      } else {
        hookedObj.getCurrentPosition(hookedObj.tmp_successCallback, hookedObj.tmp_errorCallback, hookedObj.tmp_options);
      }
    } else {
      setTimeout(waitGetCurrentPosition, WAIT_TIME);
    }
  }

  function waitWatchPosition() {
    if ((typeof hookedObj.fakeGeo !== 'undefined')) {
      if (hookedObj.fakeGeo === true) {
        navigator.getCurrentPosition(hookedObj.tmp2_successCallback, hookedObj.tmp2_errorCallback, hookedObj.tmp2_options);
        return Math.floor(Math.random() * 10000); // random id
      } else {
        hookedObj.watchPosition(hookedObj.tmp2_successCallback, hookedObj.tmp2_errorCallback, hookedObj.tmp2_options);
      }
    } else {
      setTimeout(waitWatchPosition, WAIT_TIME);
    }
  }

  Object.getPrototypeOf(navigator.geolocation).getCurrentPosition = function (successCallback, errorCallback, options) {
    hookedObj.tmp_successCallback = successCallback;
    hookedObj.tmp_errorCallback = errorCallback;
    hookedObj.tmp_options = options;
    waitGetCurrentPosition();
  };
  Object.getPrototypeOf(navigator.geolocation).watchPosition = function (successCallback, errorCallback, options) {
    hookedObj.tmp2_successCallback = successCallback;
    hookedObj.tmp2_errorCallback = errorCallback;
    hookedObj.tmp2_options = options;
    waitWatchPosition();
  };

  const instantiate = (constructor, args) => {
    const bind = Function.bind;
    const unbind = bind.bind(bind);
    return new (unbind(constructor, null).apply(null, args));
  }

  Blob = function (_Blob) {
    function secureBlob(...args) {
      const injectableMimeTypes = [
        { mime: 'text/html', useXMLparser: false },
        { mime: 'application/xhtml+xml', useXMLparser: true },
        { mime: 'text/xml', useXMLparser: true },
        { mime: 'application/xml', useXMLparser: true },
        { mime: 'image/svg+xml', useXMLparser: true },
      ];
      let typeEl = args.find(arg => (typeof arg === 'object') && (typeof arg.type === 'string') && (arg.type));

      if (typeof typeEl !== 'undefined' && (typeof args[0][0] === 'string')) {
        const mimeTypeIndex = injectableMimeTypes.findIndex(mimeType => mimeType.mime.toLowerCase() === typeEl.type.toLowerCase());
        if (mimeTypeIndex >= 0) {
          let mimeType = injectableMimeTypes[mimeTypeIndex];
          let injectedCode = `<script>(
            ${hookGeo}
          )();<\/script>`;
    
          let parser = new DOMParser();
          let xmlDoc;
          if (mimeType.useXMLparser === true) {
            xmlDoc = parser.parseFromString(args[0].join(''), mimeType.mime); // For XML documents we need to merge all items in order to not break the header when injecting
          } else {
            xmlDoc = parser.parseFromString(args[0][0], mimeType.mime);
          }

          if (xmlDoc.getElementsByTagName("parsererror").length === 0) { // if no errors were found while parsing...
            xmlDoc.documentElement.insertAdjacentHTML('afterbegin', injectedCode);
    
            if (mimeType.useXMLparser === true) {
              args[0] = [new XMLSerializer().serializeToString(xmlDoc)];
            } else {
              args[0][0] = xmlDoc.documentElement.outerHTML;
            }
          }
        }
      }

      return instantiate(_Blob, args); // arguments?
    }

    // Copy props and methods
    let propNames = Object.getOwnPropertyNames(_Blob);
    for (let i = 0; i < propNames.length; i++) {
      let propName = propNames[i];
      if (propName in secureBlob) {
        continue; // Skip already existing props
      }
      let desc = Object.getOwnPropertyDescriptor(_Blob, propName);
      Object.defineProperty(secureBlob, propName, desc);
    }

    secureBlob.prototype = _Blob.prototype;
    return secureBlob;
  }(Blob);

  window.addEventListener('message', function (event) {
    if (event.source !== window) {
      return;
    }
    const message = event.data;
    switch (message.method) {
      case 'updateLocation':
        if ((typeof message.info === 'object') && (typeof message.info.coords === 'object')) {
          hookedObj.genLat = message.info.coords.lat;
          hookedObj.genLon = message.info.coords.lon;
          hookedObj.fakeGeo = message.info.fakeIt;
        }
        break;
      default:
        break;
    }
  }, false);
  //]]>} )();</script><use x=".5" y=".5" xlink:href="#A"/><symbol id="A" overflow="visible"><path fill="#f26d5b" d="M24.517 34.426V26.86L35.313 22z"/><path fill="#607d8b" d="M.888 33.422L0 42.007c0 .233.13.422.378.582s.626.233 1.12.233h.742c1.048 0 1.6-.276 1.66-.844l.844-8.38c.67-.888 1.426-1.34 2.284-1.34a2.04 2.04 0 0 1 .684.116c.204.073.335.116.393.116.2 0 .422-.3.67-.888s.378-1.106.378-1.542c0-.8-.407-1.208-1.237-1.208-1.15 0-2.183.67-3.07 1.993l-.087-.902c-.03-.2-.102-.364-.218-.538s-.3-.262-.524-.262c-.873 0-1.6.087-2.183.262s-.873.407-.873.684l.058 1.47-.13 1.862zm12.833 3.856a20.36 20.36 0 0 0 2.735.189c1.484 0 2.808-.393 3.943-1.193s1.702-1.993 1.702-3.608c0-.815-.32-1.615-.946-2.386-.335-.422-.858-.757-1.57-1.02s-1.57-.393-2.575-.393c-2.124 0-3.856.684-5.2 2.037-1.353 1.368-2.023 3.463-2.023 6.315 0 1.82.5 3.23 1.542 4.25 1.02 1.02 2.575 1.513 4.67 1.513a9.72 9.72 0 0 0 2.866-.437c.946-.3 1.513-.757 1.702-1.397.03-.116.073-.422.13-.902s.073-.844.073-1.106c0-.247-.073-.364-.204-.364-.058 0-.276.102-.67.3s-.902.378-1.542.582a7.06 7.06 0 0 1-2.052.291c-.742 0-1.34-.2-1.804-.567-.466-.393-.728-1.077-.77-2.095zm4.598-4.118c0 .45-.247.858-.742 1.193s-1.295.5-2.415.5h-1.266c.437-1.95 1.382-2.94 2.837-2.94 1.062.015 1.586.422 1.586 1.237zm23.3 9.472c.48-.233.742-.567.815-1.004l.2-1.47c0-.262-.073-.393-.204-.393-.015 0-.116.03-.3.073a1.49 1.49 0 0 1-.48.073c-.524 0-.786-.3-.786-.858 0-.175.538-5.253 1.6-15.22 0-.233-.13-.422-.378-.582s-.626-.233-1.12-.233h-.742c-1.048 0-1.6.276-1.66.844l-.655 6.082c-.873-.713-1.82-1.077-2.808-1.077-1.804 0-3.274.77-4.4 2.328s-1.702 3.594-1.702 6.097c0 1.82.407 3.216 1.222 4.205s1.95 1.484 3.42 1.484 2.62-.67 3.463-2.023c.35 1.34 1.353 2.023 3.026 2.023a3.33 3.33 0 0 0 1.5-.35zm-3.958-10.07l-.335 3.4-.233 2.314c-.655 1.033-1.34 1.542-2.08 1.542-1.368 0-2.052-.873-2.052-2.62s.262-3.056.8-3.943 1.28-1.324 2.24-1.324c.567.015 1.12.218 1.66.64zm18.494 10.07c.48-.233.742-.567.815-1.004l.2-1.47c0-.262-.073-.393-.204-.393-.015 0-.116.03-.3.073a1.49 1.49 0 0 1-.48.073c-.524 0-.786-.276-.786-.844 0-.175.16-1.775.495-4.816l.48-4.554c0-.437-.5-.655-1.528-.655h-.32c-.626.015-1.033.102-1.208.233-.175.146-.335.466-.495 1-.975-.93-2.037-1.382-3.187-1.382-1.717 0-3.114.77-4.205 2.328s-1.63 3.594-1.63 6.097c0 1.82.378 3.216 1.15 4.205s1.804 1.484 3.1 1.484c.742 0 1.4-.2 2.037-.553a4.71 4.71 0 0 0 1.542-1.44c.35 1.3 1.353 1.964 3.026 1.964.538.015 1.033-.102 1.5-.335zm-8.4-5.413c0-1.746.247-3.056.728-3.943s1.164-1.324 2.066-1.324c.6 0 1.193.233 1.73.713l-.32 1.717-.364 3.943c-.655 1.02-1.34 1.513-2.052 1.513-1.193 0-1.8-.873-1.8-2.62zm17.795-5.048l.713.262c.247 0 .538-.262.888-.77.335-.5.5-.917.5-1.193 0-.553-.407-.96-1.208-1.222a8.94 8.94 0 0 0-2.634-.378c-1.542 0-2.794.422-3.754 1.25-.96.844-1.44 2.037-1.44 3.594 0 .713.16 1.3.48 1.8a2.8 2.8 0 0 0 1.164 1.048c.445.214.902.403 1.368.567.45.16.844.35 1.164.582s.48.538.48.902c0 .873-.582 1.3-1.73 1.3-.8 0-1.615-.218-2.415-.655-.276-.16-.437-.233-.48-.233-.393 0-.582.786-.582 2.357 0 .64.6 1.106 1.833 1.382a8.61 8.61 0 0 0 1.95.204c1.615 0 2.925-.45 3.914-1.368 1.004-.902 1.5-2.168 1.5-3.77 0-.888-.247-1.615-.742-2.168s-1.02-.93-1.6-1.12a9.44 9.44 0 0 1-1.601-.669c-.495-.262-.742-.582-.742-.946 0-.698.495-1.048 1.5-1.048.553.03 1.033.116 1.47.3zm14.433 10.8a3.38 3.38 0 0 0 1.499-.349c.48-.233.742-.567.815-1.004l.2-1.47c0-.262-.073-.393-.204-.393-.015 0-.116.03-.3.073a1.49 1.49 0 0 1-.48.073c-.524 0-.786-.3-.786-.858l.655-6.868c0-2.212-1.15-3.332-3.463-3.332-.698 0-1.397.175-2.1.5a5.94 5.94 0 0 0-1.761 1.266l.713-6.8c0-.233-.13-.422-.378-.582s-.626-.233-1.12-.233h-.742c-1.048 0-1.6.276-1.66.844l-1.92 18.144c0 .233.13.422.378.582s.626.233 1.12.233h.742c1.048 0 1.6-.276 1.66-.844l.888-8.44c.698-1 1.455-1.5 2.255-1.5.946 0 1.426.437 1.426 1.3l-.6 6.286c.015 2.255 1.077 3.36 3.187 3.36z"/><path fill="#f26d5b" d="M24.793 0c7.48 0 13.532 6.053 13.532 13.503 0 7.464-6.053 13.503-13.532 13.503s-13.53-6.054-13.53-13.503S17.315 0 24.793 0z"/><path d="M16.587 15.612h1.993c.48 0 .873.393.873.873v1.98c0 .48-.393.873-.873.873h-1.993c-.48 0-.873-.393-.873-.873v-1.98c0-.48.393-.873.873-.873zm4.613-4.364h1.98c.48 0 .873.393.873.873v6.344c0 .48-.393.873-.873.873H21.2c-.48 0-.873-.393-.873-.873v-6.344c0-.48.393-.873.873-.873zm4.598 2.4h1.993c.48 0 .873.393.873.873v3.943c0 .48-.393.873-.873.873h-1.993c-.48 0-.873-.393-.873-.873v-3.943c0-.48.393-.873.873-.873zm4.715-5.7h1.98c.48 0 .873.393.873.873v9.632c0 .48-.393.873-.873.873h-1.98c-.48 0-.873-.393-.873-.873V8.821c0-.48.393-.873.873-.873z"/></symbol></svg>