<svg xmlns="http://www.w3.org/2000/svg" role="img" viewBox="23.95 31.45 2662.10 3044.60"><title>rmarkdown logo</title><defs><style>.cls-1{fill:#a41e22}.cls-3{fill:#faecec}.cls-4{fill:#db282d}.cls-6{fill:#d92025}</style></defs><path d="M2628.848 1554.621q0 358.484.244 716.967c.016 11.677-2.809 18.342-13.61 24.564q-503.699 290.105-1006.932 581.017c-80.257 46.334-160.68 92.38-240.827 138.903-8.1 4.702-14.094 4.71-22.258-.01q-489.646-283.038-979.553-565.624-134.563-77.663-269.282-155.055c-8.894-5.088-12.55-10.287-12.543-21.045q.5-720.381.034-1440.763c-.006-10.492 3.14-15.949 12.233-21.194q613.864-354.11 1227.04-709.408c24.733-14.36 41.612-14.4 66.347-.039q612.896 355.856 1227.112 709.44c9.08 5.238 12.27 10.676 12.255 21.183q-.506 360.532-.26 721.064zM367.818 777.616c-2.218.14-4.247.649-5.432 2.797-57.687 30.64-113.443 64.656-170.122 97.06-7.707 4.406-7.287 10.524-7.287 17.367q.028 662.327-.248 1324.653c-.008 10.402 4.182 15.452 12.331 20.119q128.2 73.426 256.168 147.257 174.523 100.736 348.89 201.743 157.954 91.32 315.93 182.601 101.347 58.64 202.56 117.508c37.267 21.64 36.789 20.9 74.715-1.517 71.494-42.257 143.493-83.665 215.43-125.168 80.595-46.498 161.439-92.566 242.02-139.09 71.922-41.526 143.546-83.568 215.461-125.106 74.678-43.134 149.609-85.831 224.315-128.918 74.304-42.856 148.394-86.085 222.783-128.793 9.253-5.313 13.192-11.115 13.184-22.389q-.506-660.278 0-1320.556c.008-11.651-3.819-18.258-13.509-23.757-41.444-23.52-82.4-47.907-124.034-71.08-12.896-7.179-24.386-17.85-40.143-19.237-.228-3.015-1.939-4.747-4.539-6.223q-59.108-33.57-118.117-67.317-69.497-39.825-138.876-79.859-37.68-21.699-75.295-43.515-81.754-47.278-163.494-94.58c-53.734-31.185-107.304-62.651-161.092-93.742-54.518-31.513-109.282-62.6-163.813-94.092q-81.282-46.94-162.267-94.39c-5.012-2.931-8.869-2.675-13.784.222-23.46 13.825-47.133 27.285-70.724 40.888q-102.54 59.129-205.085 118.25c-40.878 23.526-81.94 46.731-122.76 70.356-58.066 33.606-115.904 67.604-173.988 101.177-54.21 31.334-108.639 62.288-162.925 93.49-61.694 35.46-123.532 70.68-184.893 106.709-20.6 12.096-42.395 22.31-61.36 37.132z" class="cls-1"/><path fill="#fdfdfd" d="M1368.562 1075.78c11.665-17.24 22.521-35.098 35.167-51.585 25.02-32.62 48.63-66.316 77.523-95.953 42.93-44.035 89.117-83.935 140.608-117.616 29.602-14.599 58.452-30.708 89.539-42.251a468.366 468.366 0 0 1 201.113-28.394c9.609.734 10.916 5.425 8.801 13.007-1.547 5.55-4.89 10.612-4.431 16.698-7.605 25.565-15.55 51.038-22.652 76.744-2.925 10.583-8.133 15.33-19.583 16.389-32.79 3.032-65.45 7.466-101.15 11.703 5.52 1.04 8.12 1.705 10.762 2.001 29.252 3.28 58.482 6.82 87.789 9.512 7.186.66 8.172 3.283 6.521 9.066a42.63 42.63 0 0 0-5.867 17.105c-9.005 22.185-17.726 44.49-27.065 66.534-39.162 92.432-90.198 176.892-164.763 245.657-9.903 9.132-18.616 12.482-32.623 7.67-64.91-22.292-132.341-29.387-200.893-29.426 39.494 11.164 78.354 24.083 116.72 38.47l3.003.76.74.59.94-.114 54.552 25.093c-4.752 6.627-13.346 7.324-18.302 12.996-23.075 11.42-45.683 23.743-69.768 33.142-66.787 26.064-136.291 36.699-207.58 37.703-6.395.09-13.293-.665-17.24 5.613-7.59 12.069-14.643 24.475-22.467 37.667h35.907c13.13.15 26.26.371 39.39.435 20.505.1 24.225 3.728 24.893 24.446.087 2.692.494 5.374.753 8.063-.52 5.855-1.249 11.698-1.507 17.561-.342 7.76-3.935 15.146-11.466 14.21-22.314-2.772-19.134 11.822-18.897 25.045.089 4.994.608 10.077-.099 14.97-1.991 13.796 4.452 16.834 16.353 13.655 15.847.264 31.694.558 47.542.787 31.584.456 43.077 9.419 50.929 39.784 4.876 41.472 9.29 83.006 14.782 124.396 4.147 31.257-7.355 45.276-39.163 45.28q-201.215.025-402.43.03c-9.099.001-18.126-.344-26.942-2.857-13.426-7.689-18.29-19.75-16.574-34.468 5.355-45.893 10.46-91.828 16.855-137.58 2.906-20.794 15.567-31.885 36.77-33.624 17.558-1.442 35.294-.828 52.953-.912 23.382-.112 23.383-.023 21.775-23.164.19-5.747-.139-11.57.682-17.226 1.709-11.782-3.498-14.958-14.085-12.363-11.997-.096-17.036-6.308-16.57-18.08.375-9.513-.068-19.055.102-28.579.263-14.736 4.672-19.232 19.886-19.298 39.923-.172 79.852-.41 119.768.173 10.716.156 17.425-2.737 23.12-12.282 14.36-24.07 29.922-47.425 45.003-71.07 2.484-3.196 5.14-6.272 7.426-9.602 87.287-127.134 188.332-242.296 301.39-347.064 32.634-30.24 67.555-57.77 101.218-86.784l1.38-2.585-3.299.1c-29.848 18.323-57.376 39.846-84.552 61.805-82.596 66.742-155.81 142.99-224.701 223.486-31.838 37.202-63.393 74.709-90.715 115.495l-28.22 35.642c-.723-16.999 3.41-32.537 7.402-48.05a662.762 662.762 0 0 1 69.421-168.827c1.757-3.021 2.768-6.477 4.126-9.73zm-52.489 349.41c-.145 4.899-.057 9.818-.491 14.69-.597 6.684.325 10.57 8.894 10.505 8.176-.061 11.461-2.152 10.321-10.513-.657-4.826-.343-9.784-.466-14.682.16-4.007.032-8.052.543-12.014.99-7.661-2.114-9.844-9.702-9.87-7.647-.025-10.633 2.253-9.643 9.87.515 3.962.384 8.007.544 12.014zm-39.051 130.671c-11.02 19.407-28.365 30.925-48.537 38.918-27.344 5.966-27.344 5.966-8.482 26.947 26.356 31.008 64.857 38.08 78.442 14.41-38.362-.586-42.8-1.995-72.534-23.03-1.583-4.129-7.34-5.191-7.77-10.94l10.253-2.668c26.606-4.89 50.927-13.376 63.503-40.347a31.538 31.538 0 0 0 4.042-16.68c-.659-23.757-15.16-35.772-36.684-30.913-6.324 1.428-12.662 3.104-17.588 6.912-37.212 28.763-61.81 64.683-62.533 113.582-.116 7.91 1.695 15.187 10.137 20.269 1.03-4.662 2.237-8.46 2.67-12.342 3.927-35.22 16.099-67.734 32.294-98.926 7.957-15.325 23.308-15.92 37.458-17.362 10.683-1.089 16.166 6.582 18.754 16.262l-3.425 15.908z"/><path d="M494.107 2030.6c57.566-55.292 101.29-53.644 137.277 4.802 6.982-7.783 12.33-16.61 19.976-23.673 42.067-38.858 105.535-22.6 123.04 31.828 4.927 15.319 6.498 31.138 6.54 47.116.106 40.504-.187 81.012.248 121.512.09 8.45-2.353 10.62-10.711 10.654-29.317.121-29.065.471-29.382-28.818-.428-39.556 2.024-79.168-1.705-118.657-2.808-29.727-17.606-47.489-41.114-50.28-30.068-3.572-56.739 20.626-57.353 53.755-.81 43.675-.607 87.379-.106 131.062.115 9.995-2.156 13.207-12.666 12.998-28.259-.56-28.27-.017-28.27-28.353q0-51.2.002-102.399c.002-11.423-1.066-22.68-4.547-33.647-10.83-34.124-46.156-44.744-73.717-21.97-14.874 12.289-22.508 28.358-22.617 47.608-.237 41.868-.427 83.741.036 125.605.107 9.618-1.503 13.416-12.38 13.18-28.577-.623-28.488-.024-28.61-28.06-.278-63.708-.561-127.417-1.183-191.121-.058-5.877 1.003-7.618 7.094-8.034 28.676-1.96 28.657-2.18 29.677 26.417.091 2.57.283 5.136.471 8.474zm1047.888-5.48c0-42.503.303-82.558-.22-122.603-.126-9.632 2.75-12.222 12.219-12.158 28.89.194 28.929-.208 28.987 27.932q.306 147.453.721 294.906c.029 6.754-.996 9.404-8.591 9.634-26.154.794-26.121 1.14-28.467-24.948-.308-3.417-.975-6.803-1.88-12.951-13.258 21.482-30.492 34.091-52.22 39.956-38.804 10.475-79.785-4.595-100.773-39.214-28.771-47.46-28.978-97.11-2.703-145.344 31.47-57.767 113.069-67.143 152.927-15.21zm-.078 83.315c0-8.185.406-16.394-.072-24.55-1.774-30.248-20.882-53.276-49.042-59.556-25.814-5.756-54.69 7.303-67.504 32.616-16.999 33.578-16.932 68.693-2.158 102.76 10.357 23.885 30.503 35.051 57.017 33.914 27.365-1.174 46.094-14.484 56.762-39.496 6.276-14.713 5.111-30.267 4.997-45.688zm395.625 69.795c16.624-55.923 35.823-110.637 53.273-165.895 1.785-5.653 1.236-14.657 8.106-15.872 9.679-1.713 19.984-.989 29.868.093 4.07.446 4.14 6.385 5.247 10.138 16.55 56.136 36.164 111.368 49.692 168.397.386 1.63 1.571 3.07 3.435 6.575 11.967-59.149 30.208-114.488 44.84-170.794 3.054-11.751 7.465-15.917 19.942-15.342 25.156 1.16 25.216.344 17.484 24.297-20.347 63.037-40.952 125.994-60.836 189.178-3.175 10.09-6.834 14.544-18.383 13.963-22.93-1.151-23.07-.283-29.931-22.025-15.972-50.606-34.021-100.589-45.772-152.464-.365-1.61-1.389-3.072-3.486-7.552-11.471 52.239-28.978 99.563-45.104 147.326-2.467 7.307-5.788 14.425-7.348 21.916-2.065 9.921-7.315 12.497-17.072 12.228-23.931-.658-24.105-.111-31.27-23.714-19.243-63.39-38.15-126.885-57.68-190.187-3.14-10.172-2.006-13.13 9.43-12.895 28.76.588 28.719.037 35.731 27.435q19.865 77.61 39.834 155.194z" class="cls-3"/><path d="M1223.459 2100.054c27.193-31.911 52.893-61.179 77.431-91.39 7.746-9.538 15.76-13.57 27.688-12.49 9.434.852 19.007.17 29.438.17-1.003 6.993-6.305 10.276-10.048 14.277-22.06 23.582-44.118 47.178-66.738 70.217-6.366 6.483-6.618 10.592-1.019 17.915 29.813 39 58.991 78.485 88.38 117.808 1.003 1.342 1.913 2.754 4.183 6.038-16.31 0-30.642-.202-44.963.099-5.816.122-7.612-4.07-10.197-7.666-21.755-30.256-43.922-60.229-64.992-90.954-6.64-9.684-9.64-7.763-16.526-.524-9.435 9.918-13.428 20.343-12.611 34.089 1.103 18.564.028 37.248.394 55.87.133 6.748-1.459 9.421-8.908 9.775-31.964 1.517-31.951 1.79-31.951-30.43 0-95.53.212-191.061-.265-286.59-.06-12.15 2.579-16.55 15.563-16.005 25.108 1.05 25.14.264 25.14 25.137zm617.051 22.476c-.663 33.469-16.761 73.467-62.366 93.665-80.12 35.483-164.705-13.937-157.626-116.286 5.354-77.405 72.39-124.77 144.581-104.082 46.107 13.213 75.794 57.491 75.41 126.703zm-178.848-13.913c-.058 22.866 4.785 44.326 18.797 62.856 24.905 32.933 72.332 33.9 97.379 1.071 27.387-35.896 26.47-75.22 8.685-114.591-10.323-22.85-29.01-35.508-54.955-35.8-26.781-.3-45.996 11.92-58.472 35.216-8.569 16-11.81 33.264-11.434 51.249zm-707.738 85.477c-20.314 25.566-45.592 35.446-75.634 33.485-28.674-1.871-50.927-18.229-59.24-42.918-9.082-26.977-1.109-57.717 20.016-75.955 21.62-18.665 48.041-24.842 75.423-28.092 9.92-1.178 19.924-1.773 29.907-2.254 4.68-.225 7.38-.902 7.538-6.736.722-26.728-15.93-46.226-42.888-48.968a100.256 100.256 0 0 0-57.989 11.259c-7.412 3.925-10.47 3.736-13.327-4.997-5.945-18.168-6.565-18.166 10.75-25.605a141.108 141.108 0 0 1 82.79-9.297c33.432 6.18 55.068 31.208 59.445 67.592 4.2 34.91 1.812 69.986 1.982 104.986.073 15.004-.622 30.087 2.163 44.814 1.83 9.68-1.293 11.437-10.161 11.398-24.266-.107-24.267.254-30.775-28.712zm-1.566-62.763c0-5.456-.161-10.918.049-16.365.184-4.773-.831-7.543-6.586-7.602-22.91-.237-45.544.989-66.28 12.099-19.955 10.691-28.057 32.22-20.588 53.456 6.568 18.67 25.124 27.56 47.961 22.978 30.148-6.049 45.452-27.786 45.445-64.566zm1289.05-98.716c21.031-30.93 48.374-43.717 82.192-41.44 36.669 2.47 65.549 31.322 70.303 71.832 5.953 50.728 1.586 101.814 2.709 152.728.121 5.521-2.455 6.538-7.396 7.002-34.145 3.206-33.898 3.32-34.198-30.646-.329-37.294 1.525-74.62-1.124-111.879-2.43-34.184-19.264-53.267-47.444-54.403-31.132-1.254-56.259 19.138-60.234 51.056-3.773 30.288-.875 60.888-1.41 91.345-.255 14.555-.447 29.135.115 43.673.308 7.973-1.446 11.876-10.359 10.881a90.148 90.148 0 0 0-20.44.006c-9.563 1.134-11-3.228-10.954-11.598.302-55.964.197-111.93.06-167.895-.032-13.185-.357-26.39-1.209-39.544-.389-6.006 1.237-8.597 7.31-7.857a8.222 8.222 0 0 0 1.364.001c26.28-1.201 26.259-1.2 28.765 24.642.3 3.11.982 6.18 1.95 12.096z" class="cls-3"/><path d="M1018 1720.366c8.817 2.512 17.844 2.858 26.942 2.856q201.216-.048 402.431-.03c31.808-.003 43.31-14.023 39.162-45.28-5.492-41.39-9.905-82.924-14.782-124.396 9.816 7.678 14.58 17.85 16.107 30.156 5.161 41.62 10.642 83.2 16.084 124.786 4.159 31.786-9.114 47.005-41.426 47.014q-196.291.057-392.582-.112c-9.885-.014-20.062-.687-29.584-3.1-15.931-4.037-21.357-16.716-22.351-31.894zm854.702-808.16c2.479 7.778 9.142 4.787 13.862 4.584 9.205-.397 10.918 2.558 7.925 10.99-13.034 36.723-26.903 73.116-43.2 108.514-14.8 32.15-31.71 63.23-49.458 93.847-17.41 23.04-32.417 47.788-51.135 69.94-19.006 22.493-39.051 43.818-61.38 63.018-5.25 4.514-10.62 4.04-16.487 1.959-27.304-9.684-55.437-16.108-83.823-21.671-6.822-1.337-13.468-1.26-20.243-1.04l-.942.115-.743-.591c-.71-1.4-1.656-1.868-3-.76-38.366-14.387-77.226-27.306-116.72-38.47 68.551.039 135.983 7.134 200.892 29.427 14.008 4.81 22.72 1.46 32.623-7.671 74.566-68.765 125.601-153.225 164.763-245.657 9.34-22.043 18.06-44.349 27.066-66.534z" class="cls-1"/><path d="M1078.192 2037.285c8.845-10.353 14.071-21.91 24.164-29.898 6.085-4.815 12.097-9.645 19.604-12.113 10.414-3.424 23.78-9.435 30.856-1.055 6.588 7.801 1.85 21.827 1.771 33.106-.034 4.872-4.244 3.515-7.218 3.586-36.947.875-57.781 19.577-61.464 56.83-3.855 38.99-1.518 78.167-1.316 117.243.07 13.685-2.494 18.873-17.39 18.011-24.175-1.398-24.168-.371-24.247-24.466-.21-64.163-.264-128.33-.982-192.488-.1-8.991 2.814-10.348 10.737-10.346 25.013.004 25.032-.312 25.47 24.635.1 5.65.015 11.303.015 16.955zm-724.568.061c12.582-22.552 27.894-39.42 53.196-44.97 20.326-4.457 23.584-1.78 23.584 18.898a41.568 41.568 0 0 0 .034 5.452c1.375 10.308-.467 14.894-13.39 14.118-31.835-1.912-56.226 26.052-57.091 64.838-.851 38.175-.7 76.39-.058 114.57.176 10.455-2.854 12.808-12.876 12.62-28.324-.533-28.113-.06-28.378-28.189-.598-63.638 1.742-127.303-1.614-190.91-.311-5.91 1.323-7.625 7.313-8.058 28.452-2.061 28.461-2.271 29.258 25.597.152 5.34.022 10.689.022 16.034z" class="cls-3"/><path d="M1323.863 1394.56h-35.907c7.824-13.191 14.877-25.597 22.466-37.666 3.948-6.278 10.846-5.523 17.241-5.613 71.289-1.004 140.793-11.639 207.58-37.703 24.085-9.4 46.693-21.722 69.768-33.142 9.734 9.195 23.527 10.79 35.632 19.286-10.503 6.105-20.334 12.027-30.355 17.609-54.042 30.102-112.147 48.654-173 57.913-29.89 4.548-60.202 7.819-90.657 6.151-10.617-.581-18.733 2.626-22.768 13.165zm-8.03-127.816c27.322-40.787 58.877-78.294 90.714-115.495 68.891-80.497 142.106-156.744 224.702-223.486 27.176-21.96 54.704-43.482 84.552-61.806l1.92 2.486c-33.664 29.014-68.585 56.543-101.219 86.783-113.059 104.768-214.103 219.93-301.39 347.065-2.286 3.33-4.942 6.406-7.426 9.602-.5-15.628 8.365-29.569 8.147-45.15zm57.45 246.202c-11.9 3.179-18.344.141-16.353-13.655.707-4.893.188-9.976.099-14.97-.237-13.223-3.417-27.817 18.897-25.045 7.53.936 11.124-6.45 11.466-14.21.258-5.863.987-11.706 1.507-17.561a7.81 7.81 0 0 1 1.356.108c15.167 3.804 19.005 15.059 15.374 46.109-1.363 11.655-7.372 17.774-19.996 17.04-18.631-1.085-10.902 13.269-12.35 22.184zm-256.906-51.918c10.587-2.595 15.794.582 14.085 12.364-.821 5.655-.491 11.478-.682 17.225-10.628.935-10.12-6.744-11.583-13.875-1.08-5.261-2.019-10.375-1.82-15.714zm813.676-642.339c-5.736 16.985-11.687 33.902-17.157 50.972-7.97 24.864-7.822 24.911-34.327 25.44 1.65-5.783.664-8.405-6.522-9.066-29.306-2.692-58.536-6.232-87.788-9.512-2.642-.296-5.242-.96-10.763-2.001 35.7-4.237 68.36-8.671 101.15-11.703 11.45-1.06 16.66-5.806 19.583-16.39 7.103-25.705 15.047-51.178 22.652-76.743 24.433.47 24.116.4 19.13 23.022-1.913 8.679-6.81 16.688-5.958 25.98zm-649.606 721.269c-2.588-9.685-8.072-17.356-18.754-16.267-14.15 1.442-29.501 2.037-37.458 17.362-16.195 31.192-28.367 63.706-32.294 98.926-.433 3.883-1.64 7.68-2.67 12.342-8.442-5.082-10.254-12.36-10.137-20.268.722-48.9 25.321-84.82 62.532-113.583 4.927-3.808 11.264-5.483 17.588-6.911 21.526-4.86 36.026 7.156 36.685 30.911l-15.492-2.512z" class="cls-1"/><path d="M1225.908 1613.103c29.736 21.037 34.175 22.447 72.537 23.033-13.585 23.67-52.086 16.598-78.442-14.41 1.736-3.034 2.426-6.783 5.905-8.623zm2.577-18.323c20.172-7.994 37.516-19.512 48.536-38.918 5.229-.13 10.274.575 14.876 3.289-12.577 26.971-36.897 35.457-63.504 40.347q.045-2.36.092-4.719zm105.846-169.59c.123 4.898-.19 9.856.467 14.681 1.14 8.361-2.146 10.452-10.322 10.514-8.569.064-9.49-3.82-8.894-10.505.434-4.872.346-9.791.492-14.69h18.257z" class="cls-1"/><path d="M1334.331 1425.19h-18.258c-.16-4.007-.029-8.052-.544-12.014-.99-7.617 1.996-9.895 9.643-9.87 7.588.026 10.691 2.208 9.702 9.87-.511 3.962-.382 8.006-.543 12.014z" class="cls-4"/><path fill="#dc3338" d="M1228.485 1594.78l-.092 4.718-10.252 2.668c.43 5.749 6.187 6.811 7.768 10.938-3.48 1.839-4.17 5.589-5.906 8.622-18.862-20.981-18.862-20.981 8.482-26.947z"/><path d="M1291.897 1559.15c-4.602-2.713-9.647-3.417-14.876-3.288l3.426-15.907q7.746 1.26 15.492 2.515a31.54 31.54 0 0 1-4.042 16.68z" class="cls-4"/><path d="M1715.801 865.957l3.3-.1-1.381 2.586-1.919-2.486z" class="cls-1"/><path d="M2528.516 897.184c.008-11.651-3.818-18.257-13.509-23.756-41.444-23.52-82.4-47.907-124.034-71.081-12.896-7.179-24.385-17.85-40.143-19.237-.228-3.015-1.939-4.746-4.538-6.223q-59.11-33.57-118.117-67.317-69.498-39.825-138.876-79.858-37.681-21.7-75.295-43.515-81.755-47.279-163.495-94.582c-53.734-31.184-107.304-62.65-161.092-93.74-54.518-31.514-109.282-62.601-163.813-94.092q-81.281-46.94-162.267-94.391c-5.012-2.93-8.869-2.675-13.784.222-23.459 13.825-47.133 27.285-70.723 40.888q-102.541 59.13-205.086 118.251c-40.878 23.526-81.94 46.73-122.76 70.356-58.065 33.606-115.904 67.603-173.988 101.176-54.21 31.334-108.638 62.288-162.925 93.49-61.694 35.46-123.532 70.68-184.893 106.709-20.6 12.096-42.395 22.31-61.36 37.132-2.218.14-4.247.649-5.431 2.797-57.688 30.64-113.444 64.656-170.122 97.06-7.708 4.406-7.288 10.524-7.288 17.367q.028 662.327-.248 1324.654c-.008 10.401 4.182 15.451 12.331 20.118q128.2 73.426 256.168 147.257 174.523 100.736 348.89 201.744 157.954 91.32 315.93 182.6 101.347 58.64 202.56 117.509c37.267 21.64 36.789 20.9 74.715-1.517 71.494-42.258 143.493-83.665 215.43-125.168 80.595-46.498 161.44-92.567 242.02-139.09 71.922-41.526 143.546-83.568 215.461-125.106 74.678-43.135 149.61-85.832 224.315-128.919 74.305-42.855 148.394-86.085 222.783-128.792 9.254-5.313 13.192-11.115 13.184-22.39q-.506-660.278 0-1320.556zM417.049 2030.844c-31.836-1.912-56.227 26.052-57.092 64.839-.851 38.174-.7 76.389-.058 114.57.176 10.454-2.854 12.807-12.876 12.619-28.324-.533-28.113-.06-28.378-28.189-.598-63.638 1.742-127.303-1.614-190.91-.311-5.91 1.323-7.625 7.313-8.058 28.452-2.061 28.461-2.271 29.258 25.597.152 5.34.022 10.689.022 16.034 12.582-22.552 27.894-39.42 53.196-44.97 20.326-4.457 23.584-1.78 23.584 18.899a41.56 41.56 0 0 0 .034 5.452c1.375 10.307-.467 14.894-13.39 14.118zm183.156-995.127c6.341 4.175 12.475 8.766 18.635 13.322-6.16-4.556-12.294-9.147-18.635-13.321q-8.197-5.396-16.14-11.1 7.948 5.698 16.14 11.1zM481.222 934.73q6.961 6.864 13.98 13.67-7.023-6.8-13.98-13.67-5.896-5.814-11.642-11.75 5.746 5.936 11.642 11.75zm289.255 1288.11c-29.317.12-29.065.47-29.382-28.82-.428-39.555 2.024-79.167-1.705-118.656-2.808-29.728-17.606-47.489-41.114-50.281-30.068-3.571-56.739 20.627-57.353 53.756-.81 43.675-.607 87.379-.106 131.062.115 9.995-2.156 13.206-12.666 12.998-28.259-.561-28.27-.017-28.27-28.353l.002-102.4c.002-11.422-1.066-22.68-4.547-33.647-10.83-34.123-46.156-44.743-73.717-21.97-14.874 12.29-22.508 28.358-22.617 47.608-.237 41.869-.427 83.742.036 125.606.107 9.618-1.503 13.416-12.38 13.179-28.577-.623-28.488-.024-28.61-28.06-.278-63.707-.561-127.416-1.183-191.12-.058-5.877 1.003-7.618 7.094-8.035 28.676-1.96 28.657-2.179 29.677 26.418.091 2.57.283 5.136.471 8.474 57.566-55.29 101.29-53.644 137.277 4.803 6.982-7.783 12.33-16.61 19.976-23.673 42.067-38.858 105.535-22.6 123.04 31.828 4.927 15.318 6.498 31.138 6.54 47.116.106 40.504-.187 81.011.248 121.511.09 8.451-2.353 10.62-10.711 10.655zM2326.302 816.781c1.79-.293 3.58-.574 5.37-.801 1.988-2.537 4.191-4.949 6.374-7.372-2.183 2.423-4.386 4.835-6.373 7.372a78.751 78.751 0 0 1-4.88 10.626 78.758 78.758 0 0 0 4.88-10.626c-1.79.227-3.58.508-5.371.801-1.791.293-3.582.597-5.372.87 1.79-.273 3.58-.577 5.372-.87zm-1.854 13.88zm-2.776 4.298q-2.545 3.758-5.324 7.35c-4.814 6.248-10.015 12.192-14.982 18.165q-4.393 5.285-8.78 10.58 4.39-5.292 8.78-10.58c4.967-5.973 10.168-11.917 14.982-18.166q2.77-3.595 5.324-7.349zM2195.691 819.2c38.162-.717 76.327-1.18 114.507-.633a56.667 56.667 0 0 0 8.046-.534 56.667 56.667 0 0 1-8.046.534c-38.18-.548-76.345-.084-114.507.633q-14.31.27-28.62.574 14.31-.3 28.62-.574zm42.376 113.845q-4.828 4.92-9.803 9.71-11.737 11.285-23.72 22.293 11.992-10.992 23.72-22.293 4.978-4.787 9.803-9.71zm-128.238-112.122q-14.31.252-28.622.434c-13.815.17-27.63.217-41.446.213 13.816.004 27.631-.044 41.446-.213q14.311-.176 28.622-.434zm-122.892 287.413q-23.442 11.396-47.148 22.21a26.21 26.21 0 0 1-10.497 2.161q-44.522.168-89.045.102 44.522.014 89.045-.102a26.21 26.21 0 0 0 10.497-2.16q23.688-10.814 47.148-22.21zm52.807-286.766q-6.91-.002-13.821-.018 6.91.015 13.821.018zm-81.855-.087c-5.094-.04-10.178-.2-15.24-.7 5.062.501 10.146.66 15.24.7zm-813.11 253.981q55.946.02 111.892.126-55.946-.092-111.891-.126-54.754-.019-109.508-.013 54.754 0 109.508.013zM984.7 2222.806c-24.266-.107-24.267.254-30.775-28.712-20.314 25.566-45.592 35.445-75.634 33.485-28.674-1.871-50.927-18.23-59.24-42.918-9.082-26.977-1.109-57.717 20.017-75.955 21.62-18.665 48.04-24.842 75.422-28.092 9.92-1.178 19.924-1.773 29.908-2.254 4.678-.225 7.38-.903 7.537-6.736.723-26.729-15.93-46.226-42.888-48.968a100.257 100.257 0 0 0-57.988 11.259c-7.413 3.925-10.47 3.735-13.328-4.997-5.945-18.168-6.565-18.166 10.75-25.606a141.11 141.11 0 0 1 82.79-9.296c33.432 6.179 55.068 31.208 59.445 67.591 4.2 34.91 1.812 69.986 1.982 104.987.073 15.003-.622 30.087 2.163 44.813 1.831 9.68-1.292 11.438-10.16 11.399zm169.888-195.48c-.034 4.871-4.244 3.515-7.219 3.585-36.946.876-57.78 19.578-61.463 56.83-3.855 38.99-1.518 78.167-1.316 117.244.07 13.684-2.494 18.872-17.39 18.01-24.175-1.398-24.168-.371-24.247-24.465-.21-64.164-.265-128.33-.982-192.489-.1-8.991 2.814-10.347 10.737-10.346 25.013.005 25.032-.311 25.47 24.635.1 5.65.015 11.303.015 16.955 8.845-10.353 14.07-21.91 24.164-29.898 6.085-4.815 12.097-9.645 19.604-12.113 10.414-3.424 23.78-9.435 30.856-1.055 6.588 7.802 1.85 21.827 1.771 33.107zm215.01 833.094a5.59 5.59 0 0 0 .966 1.217 5.59 5.59 0 0 1-.966-1.217zm2.115 2.332c.28-.737.558-1.475.848-2.225a123.45 123.45 0 0 0-1.645-1.84l1.655 1.826c-.3.764-.579 1.502-.858 2.24zm-43.9-640.054c-5.817.123-7.613-4.07-10.198-7.666-21.754-30.255-43.922-60.229-64.992-90.954-6.64-9.684-9.64-7.763-16.526-.524-9.434 9.917-13.428 20.343-12.611 34.089 1.103 18.564.028 37.248.395 55.87.132 6.748-1.46 9.42-8.908 9.775-31.965 1.516-31.952 1.79-31.952-30.43 0-95.53.212-191.061-.265-286.59-.06-12.15 2.579-16.55 15.563-16.006 25.108 1.051 25.141.265 25.141 25.137v184.655c27.193-31.911 52.893-61.18 77.431-91.391 7.747-9.537 15.76-13.57 27.688-12.49 9.434.853 19.007.172 29.438.172-1.003 6.992-6.305 10.275-10.048 14.276-22.06 23.582-44.118 47.178-66.738 70.217-6.366 6.483-6.618 10.592-1.02 17.915 29.814 39 58.992 78.485 88.382 117.808 1.002 1.342 1.912 2.754 4.182 6.038-16.31 0-30.642-.202-44.963.099zm50.755 621.344c-.12-.145-.25-.343-.374-.507.125.166.257.366.377.506zm72.217-32.639zm124.327-588.572c-26.153.794-26.121 1.14-28.467-24.948-.308-3.418-.975-6.803-1.88-12.951-13.258 21.482-30.492 34.091-52.22 39.956-38.804 10.475-79.785-4.595-100.773-39.215-28.771-47.459-28.978-97.11-2.702-145.343 31.469-57.767 113.068-67.143 152.926-15.21 0-42.503.303-82.558-.22-122.603-.126-9.632 2.75-12.222 12.219-12.159 28.89.195 28.929-.207 28.987 27.933q.306 147.453.721 294.906c.029 6.754-.996 9.403-8.591 9.634zm35.177-905.5c-54.042 30.102-112.147 48.654-173 57.913-29.89 4.548-60.202 7.818-90.657 6.151-10.617-.581-18.733 2.626-22.768 13.165 13.13.15 26.26.372 39.39.436 20.505.1 24.225 3.728 24.893 24.446.087 2.692.494 5.373.752 8.06a8.111 8.111 0 0 1 1.357.11c15.167 3.805 19.005 15.06 15.374 46.11-1.363 11.655-7.372 17.774-19.996 17.04-18.631-1.085-10.902 13.269-12.35 22.184 15.847.264 31.694.557 47.542.786 31.584.457 43.077 9.42 50.929 39.784 9.816 7.678 14.58 17.849 16.106 30.156 5.162 41.62 10.642 83.2 16.084 124.786 4.16 31.786-9.113 47.005-41.426 47.014q-196.291.057-392.582-.112c-9.884-.014-20.061-.687-29.584-3.1-15.932-4.037-21.357-16.716-22.351-31.894-13.426-7.689-18.29-19.75-16.574-34.468 5.355-45.893 10.46-91.829 16.855-137.581 2.906-20.793 15.568-31.884 36.77-33.624 17.558-1.441 35.294-.827 52.953-.912 23.382-.112 23.383-.023 21.775-23.164-10.628.935-10.12-6.744-11.583-13.875-1.08-5.261-2.019-10.375-1.82-15.714-11.997-.096-17.036-6.308-16.57-18.08.375-9.512-.068-19.054.102-28.579.263-14.736 4.672-19.232 19.886-19.297 39.923-.173 79.852-.41 119.768.172 10.716.157 17.425-2.736 23.12-12.282 14.36-24.07 29.922-47.425 45.001-71.066-.499-15.631 8.367-29.572 8.15-45.152q-14.111 17.82-28.221 35.642c-.723-17 3.41-32.538 7.402-48.051a662.767 662.767 0 0 1 69.42-168.826c1.758-3.021 2.769-6.477 4.127-9.73 11.665-17.238 22.522-35.097 35.167-51.584 25.02-32.62 48.63-66.316 77.523-95.954 42.93-44.034 89.117-83.934 140.608-117.616 29.601-14.598 58.452-30.707 89.539-42.25a468.368 468.368 0 0 1 201.113-28.394c9.608.734 10.916 5.425 8.801 13.007-1.548 5.55-4.89 10.612-4.431 16.699 24.432.468 24.115.399 19.129 23.021-1.913 8.679-6.81 16.688-5.958 25.98a87.243 87.243 0 0 0 10.068 1.814 87.243 87.243 0 0 1-10.068-1.813c-5.736 16.985-11.687 33.902-17.158 50.972-7.968 24.864-7.82 24.911-34.326 25.44a42.627 42.627 0 0 0-5.867 17.105c2.479 7.778 9.142 4.787 13.862 4.584 9.205-.397 10.918 2.558 7.925 10.99-13.034 36.723-26.903 73.116-43.2 108.514-14.8 32.15-31.71 63.23-49.458 93.847a6.635 6.635 0 0 0 4.507 2.504 6.634 6.634 0 0 1-4.507-2.503c-17.41 23.04-32.417 47.787-51.135 69.94-19.006 22.492-39.051 43.817-61.38 63.017-5.25 4.514-10.62 4.04-16.487 1.959-27.304-9.684-55.437-16.108-83.823-21.671-6.821-1.337-13.467-1.26-20.243-1.04l54.55 25.092c-4.752 6.627-13.346 7.324-18.304 12.998 9.737 9.194 23.529 10.788 35.634 19.285-10.503 6.105-20.334 12.027-30.355 17.608zm63.355 1376.034c-10.643-1.241-14.404-9.04-15.293-18.009-.725-7.304 4.305-13.148 11.397-12.269 9.89 1.226 13.564 9.853 14.725 18.832.976 7.546-4.28 10.268-10.83 11.446zm59.85-35.427c-10.304-.966-14.627-8.71-15.511-17.624-.79-7.968 4.823-13.427 12.463-12.531 9.855 1.156 13.367 9.34 14.59 16.85-.41 8.956-3.554 14.055-11.543 13.305zm88.762-50.493c-8.101.31-16.213-9.591-15.948-18.945.222-7.869 4.678-12.308 12.07-11.313 10.17 1.368 13.528 9.361 14.531 17.612-.405 7.797-3.446 12.37-10.653 12.646zm-44.111-391.25c-80.12 35.483-164.705-13.937-157.626-116.286 5.354-77.405 72.39-124.77 144.581-104.082 46.107 13.213 75.794 57.49 75.41 126.703-.662 33.469-16.76 73.467-62.365 93.665zm391.285-196.368c-20.347 63.037-40.951 125.994-60.835 189.177-3.176 10.09-6.835 14.545-18.384 13.964-22.93-1.151-23.069-.283-29.931-22.026-15.972-50.605-34.02-100.588-45.772-152.464-.364-1.61-1.388-3.071-3.486-7.552-11.471 52.24-28.978 99.563-45.104 147.326-2.467 7.308-5.788 14.426-7.347 21.916-2.066 9.922-7.315 12.498-17.073 12.229-23.93-.659-24.104-.112-31.27-23.714-19.243-63.391-38.15-126.885-57.68-190.187-3.139-10.173-2.005-13.13 9.43-12.896 28.76.589 28.719.037 35.732 27.436q19.863 77.611 39.833 155.194c16.624-55.924 35.823-110.637 53.273-165.895 1.785-5.653 1.236-14.657 8.106-15.872 9.679-1.713 19.984-.99 29.868.093 4.07.446 4.14 6.385 5.246 10.138 16.55 56.136 36.165 111.367 49.693 168.397.387 1.63 1.571 3.07 3.435 6.575 11.968-59.149 30.208-114.488 44.84-170.794 3.054-11.751 7.465-15.917 19.942-15.342 25.156 1.16 25.216.344 17.484 24.297zm5.897-1028.947q-4.948 4.205-9.95 8.335-12.51 10.322-25.404 20.116-7.74 5.867-15.636 11.514-5.264 3.762-10.602 7.419 5.338-3.655 10.602-7.419 7.897-5.643 15.636-11.514 12.902-9.778 25.403-20.116 5.004-4.13 9.95-8.335 12.369-10.513 24.41-21.45-12.05 10.921-24.41 21.45zm221.285 1224.855c.122 5.521-2.454 6.538-7.395 7.002-34.145 3.206-33.898 3.32-34.198-30.646-.329-37.294 1.524-74.62-1.124-111.879-2.43-34.184-19.264-53.267-47.445-54.403-31.131-1.254-56.258 19.138-60.234 51.056-3.772 30.288-.874 60.888-1.41 91.345-.255 14.555-.446 29.135.116 43.673.308 7.973-1.447 11.876-10.36 10.882a90.134 90.134 0 0 0-20.439.005c-9.564 1.134-11-3.227-10.955-11.598.302-55.963.197-111.93.06-167.895-.031-13.185-.356-26.39-1.208-39.544-.39-6.006 1.237-8.597 7.31-7.857a8.233 8.233 0 0 0 1.363.002c26.28-1.202 26.26-1.2 28.765 24.641.301 3.109.983 6.18 1.95 12.096 21.032-30.93 48.375-43.718 82.193-41.44 36.668 2.47 65.548 31.322 70.302 71.832 5.953 50.728 1.587 101.814 2.71 152.728z" class="cls-6"/><path d="M1564.078 1241.111l3 .76c-.71-1.4-1.656-1.868-3-.76zm-22.233 842.774c-1.774-30.248-20.882-53.276-49.042-59.556-25.813-5.756-54.69 7.303-67.504 32.616-16.999 33.578-16.932 68.694-2.158 102.76 10.357 23.885 30.503 35.051 57.017 33.914 27.365-1.173 46.093-14.484 56.762-39.496 6.276-14.713 5.111-30.267 5.005-45.692-.008-8.18.398-16.39-.08-24.546zm189.723-61.731c-26.781-.3-45.996 11.92-58.472 35.215-8.569 16-11.81 33.264-11.434 51.248-.058 22.866 4.785 44.326 18.797 62.856 24.905 32.934 72.332 33.9 97.379 1.071 27.387-35.896 26.47-75.22 8.685-114.591-10.323-22.85-29.01-35.508-54.955-35.799zm-785.747 85.21c-22.91-.236-45.544.989-66.28 12.099-19.955 10.692-28.057 32.22-20.588 53.456 6.568 18.67 25.124 27.56 47.961 22.978 30.148-6.049 45.452-27.786 45.449-64.566-.005-5.456-.166-10.918.044-16.365.184-4.773-.831-7.543-6.586-7.602z" class="cls-6"/><path d="M1673.643 2693.365c-10.643-1.241-14.404-9.04-15.293-18.009-.725-7.304 4.305-13.148 11.397-12.269 9.89 1.227 13.564 9.853 14.725 18.832.976 7.546-4.28 10.268-10.83 11.446zm159.265-98.565c-.404 7.796-3.446 12.369-10.653 12.645-8.101.31-16.213-9.591-15.948-18.945.222-7.869 4.678-12.308 12.07-11.313 10.17 1.368 13.528 9.361 14.531 17.612zm-87.874 49.833c-.408 8.956-3.553 14.055-11.541 13.305-10.304-.966-14.627-8.71-15.511-17.624-.79-7.968 4.823-13.427 12.463-12.531 9.855 1.156 13.367 9.34 14.59 16.85z" class="cls-4"/><path d="M1358.391 2798.987l15.22 15.418c3.336 3.386 6.43 6.521 9.227 9.826l.223-.127c-1.28-4.084-2.319-8.606-3.358-13.125l-4.713-21.595 5.461-3.157 15.861 14.654c3.803 3.512 7.012 6.678 9.915 9.822l.222-.129a124.09 124.09 0 0 1-3.97-13.162l-5.28-20.873 6.42-3.713 9.145 42.368-5.903 3.414-15.318-13.885a138.046 138.046 0 0 1-9.959-9.897l-.146.084a121.719 121.719 0 0 1 3.58 13.684l4.062 20.299-5.904 3.414-31.425-29.48zm55.189-31.922l15.22 15.419c3.339 3.386 6.43 6.52 9.23 9.825l.22-.127c-1.28-4.084-2.318-8.606-3.357-13.125l-4.711-21.594 5.459-3.158 15.861 14.654c3.803 3.512 7.014 6.678 9.916 9.822l.22-.127a124.167 124.167 0 0 1-3.97-13.164l-5.277-20.873 6.418-3.712 9.144 42.368-5.902 3.414-15.319-13.886a137.422 137.422 0 0 1-9.957-9.896l-.148.085a122.071 122.071 0 0 1 3.582 13.682l4.06 20.299-5.902 3.414-31.428-29.48zm55.191-31.922l15.22 15.42c3.337 3.386 6.429 6.52 9.228 9.826l.22-.129c-1.279-4.084-2.318-8.604-3.355-13.124l-4.713-21.595 5.461-3.158 15.86 14.654c3.804 3.512 7.013 6.678 9.915 9.823l.223-.127a123.805 123.805 0 0 1-3.97-13.164l-5.28-20.873 6.42-3.713 9.145 42.369-5.903 3.414-15.318-13.887a137.646 137.646 0 0 1-9.96-9.896l-.146.086a121.672 121.672 0 0 1 3.58 13.681l4.061 20.3-5.902 3.414-31.426-29.48zm65.731 4.517a5.04 5.04 0 0 1 1.385-6.991q.173-.116.355-.218c2.582-1.493 5.461-.597 7.041 2.131 1.537 2.657.992 5.631-1.738 7.21-2.582 1.493-5.506.525-7.043-2.132zm4.83-30.462c-2.432-4.206-4.596-7.778-6.738-10.97l5.681-3.286 4.276 6.882.295-.171c-1.15-5.735 1.01-11.022 5.363-13.54a8.056 8.056 0 0 1 1.973-.845l3.543 6.123a11.206 11.206 0 0 0-2.342 1.06c-4.574 2.645-5.817 7.99-3.885 13.372a21.092 21.092 0 0 0 1.455 3.197l11.01 19.035-6.418 3.713zm33.613 4.486a19.65 19.65 0 0 0 10.053-2.367c4.723-2.73 5.57-6.372 3.863-9.325-1.793-3.098-4.619-3.728-10.44-2.726-7.741 1.426-12.814-.365-15.29-4.645-3.328-5.756-1.412-13.166 6.262-17.603a20.598 20.598 0 0 1 10.06-2.865l1.108 5.66a16.06 16.06 0 0 0-8.498 2.158c-3.838 2.22-4.696 5.672-3.16 8.328 1.706 2.951 4.615 3.041 10.287 2.123 7.564-1.223 12.529.041 15.601 5.354 3.627 6.271 1.318 13.515-7.168 18.422a23.54 23.54 0 0 1-11.441 3.37zm15.18-61.262l5.932 10.256 9.297-5.377 2.859 4.943-9.297 5.377 11.137 19.258c2.56 4.428 5.267 6.211 8.883 4.12a16.606 16.606 0 0 0 3.505-2.62l3.112 4.7a18.358 18.358 0 0 1-5.242 4.214c-3.026 1.75-6.016 2.198-8.59 1.324-2.953-.853-5.453-3.64-7.885-7.846l-11.266-19.479-5.535 3.2-2.857-4.943 5.533-3.2-4.951-8.56zm67.435 9.343c2.135 3.69 4.086 6.893 5.93 9.57l-5.756 3.327-3.74-5.615-.148.084a15.516 15.516 0 0 1-7.963 13.469c-5.608 3.244-14.115 4.027-21.37-8.516l-12.077-20.879 6.494-3.756 11.435 19.774c3.928 6.787 8.639 10.168 14.541 6.754a10.842 10.842 0 0 0 5.145-10.854 10.963 10.963 0 0 0-1.33-3.662l-12.674-21.912 6.492-3.756zm16.95-66.717l24.965 43.164c1.836 3.173 4 6.745 5.629 9.052l-5.829 3.371-3.88-6.027-.147.086c.313 5.136-2.291 10.68-8.121 14.05-8.63 4.993-19.498 1.53-25.77-9.316-6.945-11.836-3.79-23.408 4.914-28.444 5.461-3.158 10.643-2.71 13.932-.77l.147-.087-12.332-21.324zm11.558 34.966a13.214 13.214 0 0 0-1.875-2.559 11.03 11.03 0 0 0-13.722-2.106c-6.715 3.884-7.285 12.09-2.719 19.985 4.182 7.23 11.18 11.16 18.19 7.106a11.275 11.275 0 0 0 5.037-13.252 12.985 12.985 0 0 0-1.325-2.975zm10.286-38.738a4.645 4.645 0 0 1-8.041 4.652 4.57 4.57 0 0 1 1.502-6.286q.103-.063.208-.12a4.451 4.451 0 0 1 6.135 1.409q.106.168.196.345zm19.228 49.927l-20.654-35.71 6.492-3.756 20.656 35.71zm39.084-46.828c7.639 13.207 1.818 24.254-6.814 29.247-9.666 5.591-21.215 2.818-27.745-8.471-6.914-11.952-3.146-23.486 6.74-29.203 10.257-5.933 21.503-2.493 27.819 8.427zm-28.12 16.756c4.524 7.821 12.438 11.121 18.784 7.451 6.197-3.584 7.475-12.103 2.824-20.144-3.5-6.051-10.963-11.975-18.636-7.537-7.674 4.44-6.899 13.442-2.971 20.23zm41.27-5.26a5.04 5.04 0 0 1 1.385-6.993q.172-.115.354-.216c2.582-1.494 5.463-.6 7.04 2.131 1.538 2.656.993 5.63-1.738 7.21-2.582 1.493-5.503.525-7.04-2.132zm43.729-21.943a27.66 27.66 0 0 1-9.06 7.998c-10.774 6.23-22.008 2.98-28.325-7.941-6.357-10.993-3.441-23.315 8.217-30.057a25.054 25.054 0 0 1 10.068-3.361l1.426 5.87a17.37 17.37 0 0 0-8.506 2.655c-8.191 4.738-9.119 13.35-4.808 20.8 4.779 8.265 13.037 10.282 20.119 6.186a21.317 21.317 0 0 0 6.945-6.38zm29.745-39.654c7.638 13.207 1.817 24.254-6.815 29.246-9.666 5.59-21.215 2.818-27.745-8.47-6.912-11.954-3.146-23.487 6.74-29.206 10.259-5.932 21.503-2.49 27.82 8.43zm-28.12 16.756c4.523 7.82 12.44 11.12 18.783 7.45 6.2-3.585 7.475-12.103 2.824-20.144-3.5-6.05-10.963-11.974-18.636-7.537s-6.897 13.441-2.971 20.23zm31.744-29.39c-2.135-3.689-3.957-6.671-5.885-9.493l5.68-3.287 3.625 5.584.22-.127c.03-4.547 1.514-9.64 7.419-13.054a12.194 12.194 0 0 1 14.246 1.31l.148-.085a16.996 16.996 0 0 1 1.295-6.953 14.082 14.082 0 0 1 6.444-7.074c4.722-2.732 13.525-3.687 20.695 8.708l12.162 21.028-6.346 3.67-11.693-20.216c-3.969-6.862-8.867-9.542-14.106-6.512-3.69 2.133-4.988 6.527-4.26 10.34a12.31 12.31 0 0 0 1.362 3.545l12.76 22.062-6.346 3.67-12.375-21.398c-3.287-5.68-8.186-8.362-13.129-5.502-4.057 2.347-5.13 7.3-4.287 11.144a10.396 10.396 0 0 0 1.318 3.47l12.463 21.546-6.345 3.67z" class="cls-3"/></svg>