<svg xmlns="http://www.w3.org/2000/svg" role="img" viewBox="-14.81 -14.81 770.12 210.12"><title>RWKV logo</title><style>svg {clip-rule:evenodd;fill-rule:evenodd;image-rendering:optimizeQuality;shape-rendering:geometricPrecision;text-rendering:geometricPrecision}</style><g id="g3" transform="translate(-28.5 -55.5)"><path id="path3" fill="#292694" d="M167.5 218.5c-.333-1-1-1.667-2-2 1.895-.413 3.895-.747 6-1 1.181-1.635 1.181-3.302 0-5-2.678-3.177-5.512-6.177-8.5-9-1.605-3.148-2.605-6.481-3-10-4.288-1.77-7.955-4.437-11-8-1.521 6.883-2.354 13.883-2.5 21h-4c-2.889-2.756-5.056-6.089-6.5-10-.017-4.393-.85-8.56-2.5-12.5-2.702-.607-5.368-.44-8 .5-3.759-1.309-7.593-2.309-11.5-3-11.696 3.013-23.5298 5.179-35.5 6.5-7.1914 3.064-14.5247 5.73-22 8-6.6667.667-13.3333.667-20 0-.928-.388-1.5946-1.055-2-2 .9394-1.944 2.2727-3.611 4-5 11.8912-5.101 22.5578-11.934 32-20.5-1.9213-1.141-3.9213-1.308-6-.5-8.7857 2.373-17.6191 4.54-26.5 6.5-2.4075-1.036-4.7409-1.036-7 0-.8333-.833-1.6667-1.667-2.5-2.5 2.4547-4.452 6.1214-7.452 11-9 12.6895-4.004 25.3561-8.004 38-12 1.5905-1.046 3.0905-2.213 4.5-3.5 1.554-9.884 7.054-16.384 16.5-19.5 10.272-4.308 20.605-8.308 31-12L164 85.5c4.717-8.7126 10.217-16.8792 16.5-24.5 4.359-3.0097 9.192-4.843 14.5-5.5 10.591 3.9746 21.424 7.1412 32.5 9.5 2.679 1.346 4.679 3.346 6 6-.259 1.2613-.926 2.2613-2 3-5.047.3379-10.047 1.0046-15 2-4.006 1.8282-6.173 4.9948-6.5 9.5-1.294 7.1657-1.461 14.3324-.5 21.5-2.684 7.242-4.184 14.742-4.5 22.5-2.184 5.188-5.518 9.522-10 13-14.382 18.112-22.049 38.778-23 62 4.378 4.435 9.212 8.268 14.5 11.5 3.326.172 6.659.005 10-.5.203 1.89-.463 3.39-2 4.5-8.338 1.918-16.672 1.918-25 0-.916-.278-1.582-.778-2-1.5z" opacity=".989"/></g><g id="g4" transform="translate(-28.5 -55.5)"><path id="path4" fill="#0c0c0c" d="M303.5 150.5c-2.052.553-2.385 1.553-1 3 6.271 10.478 12.437 21.145 18.5 32 1.1 4.235-.567 5.901-5 5-3.63.519-6.296-.815-8-4-6.04-10.915-12.207-21.748-18.5-32.5-4.536-1.379-9.203-1.879-14-1.5-1.333 0-2 .667-2 2 .167 11.338 0 22.672-.5 34-3.667 2.667-7.333 2.667-11 0-.667-28.667-.667-57.333 0-86l1.5-1.5c12.705-.848 25.371-.515 38 1 16.652 4.8 22.819 15.633 18.5 32.5-2.72 8.22-8.22 13.553-16.5 16zm-28-40c8.831-.58 17.498.253 26 2.5 4.693 3.047 7.36 7.38 8 13-.305 8.61-4.638 13.943-13 16-6.967.997-13.967 1.497-21 1.5-.333-1-1-1.667-2-2v-29c1-.333 1.667-1 2-2z" opacity=".957"/></g><g id="g5" transform="translate(-28.5 -55.5)"><path id="path5" fill="#0e0e0e" d="M387.5 166.5c.129 1.716.462 3.383 1 5-.237 1.291.096 2.291 1 3 .951-1.419 1.284-3.085 1-5 1.689-21.705 3.856-43.372 6.5-65 .465-1.431 1.299-2.597 2.5-3.5 8.586-2.9066 11.753-.073 9.5 8.5-3.721 26.382-7.721 52.715-12 79-1.996 1.559-4.329 2.226-7 2-2.793.195-5.293-.471-7.5-2-3.983-14.597-7.649-29.264-11-44v-2-1c.149-1.052-.017-2.052-.5-3-1.524 3.11-2.358 6.444-2.5 10-2.355 14.256-6.021 28.089-11 41.5-4.058.767-8.058.6-12-.5-.692-.525-1.192-1.192-1.5-2-4.26-27.486-8.427-54.986-12.5-82.5.059-1.436.392-2.769 1-4 3.333-.667 6.667-.667 10 0l1.5 1.5c3.192 24.203 6.192 48.203 9 72 2.98-17.077 7.48-33.91 13.5-50.5 3.817-1.023 7.317-.523 10.5 1.5 3.815 13.606 7.315 27.273 10.5 41z" opacity=".961"/></g><g id="g6" transform="translate(-28.5 -55.5)"><path id="path6" fill="#090909" d="M435.5 102.5c-.332 14.746.001 28.746 1 42 1-.333 1.667-1 2-2 1.333-.333 1.333-.667 0-1 10.946-11.85 21.446-24.183 31.5-37 3.743-3.759 8.243-4.9261 13.5-3.5 1.017 1.049 1.184 2.216.5 3.5-7.667 9.831-15.501 19.497-23.5 29-2.281 1.134-2.281 2.468 0 4 8.902 16.136 18.069 32.136 27.5 48 .667 1.333.667 2.667 0 4-4.729 1.735-9.063 1.068-13-2-7.512-13.694-15.012-27.36-22.5-41-1-2.667-2-2.667-3 0-4.345 4.347-8.345 9.014-12 14-.617.111-1.117.444-1.5 1-.5 8.994-.666 17.994-.5 27-.111.617-.444 1.117-1 1.5-3.493 1.004-6.659.504-9.5-1.5-.667-28.667-.667-57.333 0-86 2.841-2.004 6.007-2.5037 9.5-1.5.556.383.889.883 1 1.5zm3 40c-.333 1-1 1.667-2 2 0-1.333.667-2 2-2z" opacity=".957"/></g><g id="g7" transform="translate(-28.5 -55.5)"><path id="path7" fill="#101010" d="M493.5 100.5c3.018-.165 6.018.002 9 .5l2.5 2.5c7.333 24.667 14.667 49.333 22 74 7.309-24.6 14.642-49.267 22-74 .5-1.167 1.333-2 2.5-2.5 2.929-.777 5.763-.61 8.5.5.07 5.479-.93 10.813-3 16-7.535 22.938-14.868 45.938-22 69-.465 1.431-1.299 2.597-2.5 3.5-3.667.667-7.333.667-11 0-1.167-.5-2-1.333-2.5-2.5-8.868-26.938-17.535-53.938-26-81-.678-2.098-.511-4.098.5-6z" opacity=".966"/></g><g id="g8" transform="translate(-28.5 -55.5)"><path id="path8" fill="#1a1a1a" d="M667.5 125.5v-3h-3c-1.291-1.042-1.291-2.208 0-3.5 2.847-.944 5.347-.444 7.5 1.5.784 5.387.618 10.72-.5 16-6.673 4.396-12.84 3.729-18.5-2-5.274-10.746-4.441-20.913 2.5-30.5 4.17-2.788 8.503-3.121 13-1 1.537 1.11 2.203 2.61 2 4.5-6.933-2.738-11.766-.738-14.5 6-.851 5.753-.517 11.42 1 17 7.402 6.443 10.902 4.777 10.5-5z" opacity=".884"/></g><g id="g9" transform="translate(-28.5 -55.5)"><path id="path9" fill="#141414" d="M741.5 134.5c.996.086 1.829-.248 2.5-1 .667-3.333.667-6.667 0-10-1.011-.837-2.178-1.17-3.5-1-1.291-1.042-1.291-2.208 0-3.5 2.847-.944 5.347-.444 7.5 1.5.903 5.781.57 11.447-1 17-9.382 3.986-16.048 1.319-20-8-.877-6.749-.544-13.416 1-20 3.955-7.485 9.789-9.485 17.5-6 .929 1.189 1.262 2.522 1 4-7.455-2.855-12.288-.522-14.5 7-.826 5.089-.492 10.089 1 15 1.674 3.589 4.507 5.255 8.5 5z" opacity=".845"/></g><g id="g10" transform="translate(-28.5 -55.5)"><path id="path10" fill="#858585" d="M435.5 102.5c.831 12.493 1.331 25.16 1.5 38 .383.556.883.889 1.5 1v1c-1.333 0-2 .667-2 2-.999-13.254-1.332-27.254-1-42z" opacity=".436"/></g><g id="g11" transform="translate(-28.5 -55.5)"><path id="path11" fill="#1a1a1a" d="M606.5 102.5c2.222-.322 4.056.345 5.5 2 3.294 10.841 5.794 21.841 7.5 33-1.644.214-3.144-.12-4.5-1-.667-2-1.333-4-2-6-3.019-.146-6.185.188-9.5 1-.51 2.73-1.844 4.897-4 6.5-5.333.667-10.667.667-16 0l-1.5-1.5c-.667-10.667-.667-21.333 0-32 1.333-1.333 2.667-1.333 4 0 .333 9.333.667 18.667 1 28 2.497 1.978 5.331 2.478 8.5 1.5 1.201-.903 2.035-2.069 2.5-3.5 1.923-9.714 4.757-19.047 8.5-28zm1 7c.667 1 1.333 2 2 3 1.085 4.26 1.752 8.594 2 13-2.672 1.009-5.005 1.009-7 0 1.021-5.358 2.021-10.692 3-16z" opacity=".838"/></g><g id="g12" transform="translate(-28.5 -55.5)"><path id="path12" fill="#141414" d="M638.5 125.5c.61.891.943 1.891 1 3 .333 1.333.667 1.333 1 0v-3c-.166-7.008 0-14.008.5-21 1.049-1.017 2.216-1.184 3.5-.5 1.153 10.757 1.32 21.59.5 32.5-2.12 2.58-4.287 2.58-6.5 0-3.014-6.693-6.014-13.359-9-20 .237-1.291-.096-2.291-1-3-.706-1.057-1.039-.724-1 1v4c.166 5.676-.001 11.343-.5 17-.423 1.456-1.256 1.956-2.5 1.5-1.153-10.757-1.32-21.59-.5-32.5 2-2.667 4-2.667 6 0 3.136 6.916 5.97 13.916 8.5 21z" opacity=".764"/></g><g id="g13" transform="translate(-28.5 -55.5)"><path id="path13" fill="#1b1b1b" d="M711.5 102.5c2.493-.171 4.326.829 5.5 3 2.735 9.774 5.235 19.608 7.5 29.5-.559 2.188-1.893 2.854-4 2-1.466-1.552-2.466-3.386-3-5.5-6.076-2.583-10.076-.749-12 5.5-1.293.49-2.627.657-4 .5 1.863-10.787 4.363-21.454 7.5-32 .698-1.191 1.531-2.191 2.5-3zm1 11c.667.333 1.333.667 2 1 .997 3.637 1.497 7.304 1.5 11-1.699.906-3.533 1.239-5.5 1-.333-1.333-.667-1.333-1 0-.164-4.365.836-8.698 3-13z" opacity=".883"/></g><g id="g14" transform="translate(-28.5 -55.5)"><path id="path14" fill="#161616" d="M766.5 121.5h-8v11c0 1.333.667 2 2 2 3.307-.437 6.307.23 9 2-2.379 1.542-5.046 2.209-8 2-2-.167-4-.333-6-.5l-1.5-1.5c-.667-10.667-.667-21.333 0-32 1.996-1.559 4.329-2.226 7-2 9.9 1.479 9.733 2.979-.5 4.5-4.179 7.34-2.012 11.173 6.5 11.5.74 1.249.573 2.249-.5 3z" opacity=".75"/></g><g id="g15" transform="translate(-28.5 -55.5)"><path id="path15" fill="#1b1b1b" d="M678.5 103.5c1.322-.17 2.489.163 3.5 1 .333 8.333.667 16.667 1 25 5.465 7.217 9.131 6.217 11-3 .333-7.333.667-14.667 1-22 1.333-1.333 2.667-1.333 4 0 .667 8.333.667 16.667 0 25-1.709 7.779-6.542 10.945-14.5 9.5-3.5-.833-5.667-3-6.5-6.5-.806-9.744-.639-19.411.5-29z" opacity=".809"/></g><g id="g16" transform="translate(-28.5 -55.5)"><path id="path16" fill="#919191" d="M609.5 112.5c-.667-1-1.333-2-2-3-.107-1.879.393-2.212 1.5-1 .49 1.293.657 2.627.5 4z" opacity=".78"/></g><g id="g17" transform="translate(-28.5 -55.5)"><path id="path17" fill="#e4e4e4" d="M714.5 114.5c-.667-.333-1.333-.667-2-1 0-.667-.333-1-1-1 1.757-4.775 2.757-4.108 3 2z" opacity=".023"/></g><g id="g18" transform="translate(-28.5 -55.5)"><path id="path18" fill="#fefffe" d="M275.5 110.5c-.333 1-1 1.667-2 2 0-1.333.667-2 2-2z" opacity=".12"/></g><g id="g19" transform="translate(-28.5 -55.5)"><path id="path19" fill="#c8c8c8" d="M628.5 113.5c.904.709 1.237 1.709 1 3l-2 2v-4c.667 0 1-.333 1-1z" opacity=".331"/></g><g id="g20" transform="translate(-28.5 -55.5)"><path id="path20" fill="#8c8c8c" d="M766.5 121.5c-2.772.582-5.439 1.582-8 3v-3h8z" opacity=".385"/></g><g id="g21" transform="translate(-28.5 -55.5)"><path id="path21" fill="#d2d2d2" d="M664.5 122.5h3v3c-1.333-.667-2.333-1.667-3-3z" opacity=".042"/></g><g id="g22" transform="translate(-28.5 -55.5)"><path id="path22" fill="#f5f5f5" d="M638.5 125.5h2v3h-1c-.057-1.109-.39-2.109-1-3z" opacity=".013"/></g><g id="g23" transform="translate(-28.5 -55.5)"><path id="path23" fill="#717171" d="M740.5 122.5c1.322-.17 2.489.163 3.5 1 .667 3.333.667 6.667 0 10-.671.752-1.504 1.086-2.5 1 2.921-4.302 2.587-8.302-1-12z" opacity=".388"/></g><g id="g24" transform="translate(-28.5 -55.5)"><path id="path24" fill="#ccc" d="M758.5 132.5c1 .333 1.667 1 2 2-1.333 0-2-.667-2-2z" opacity=".51"/></g><g id="g25" transform="translate(-28.5 -55.5)"><path id="path25" fill="#d2d2d2" d="M460.5 133.5v4c-2.281-1.532-2.281-2.866 0-4z" opacity=".102"/></g><g id="g26" transform="translate(-28.5 -55.5)"><path id="path26" fill="#cdcdcd" d="M273.5 141.5c1 .333 1.667 1 2 2-1.333 0-2-.667-2-2z" opacity=".178"/></g><g id="g27" transform="translate(-28.5 -55.5)"><path id="path27" fill="#b8b8b8" d="M371.5 141.5c-1.333.333-1.333.667 0 1v2c-1 1.333-2 2.667-3 4 .142-3.556.976-6.89 2.5-10 .483.948.649 1.948.5 3z" opacity=".038"/></g><g id="g28" transform="translate(-28.5 -55.5)"><path id="path28" fill="#f7f7f7" d="M452.5 146.5h-3c1-2.667 2-2.667 3 0z" opacity=".086"/></g><g id="g29" transform="translate(-28.5 -55.5)"><path id="path29" fill="#cbcbcb" d="M303.5 150.5c-.057 1.109-.39 2.109-1 3-1.385-1.447-1.052-2.447 1-3z" opacity=".024"/></g><g id="g30" transform="translate(-28.5 -55.5)"><path id="path30" fill="#cdcdcd" d="M275.5 152.5c-.333 1-1 1.667-2 2 0-1.333.667-2 2-2z" opacity=".357"/></g><g id="g31" transform="translate(-28.5 -55.5)"><path id="path31" fill="#171717" d="M607.5 188.5c.166-9.339 0-18.673-.5-28-1.039.744-1.539 1.744-1.5 3v2c-1.112 2.099-1.779 4.433-2 7-1.185 5.403-2.685 10.737-4.5 16-1.388 1.054-2.888 1.22-4.5.5-2.543-6.672-4.543-13.505-6-20.5-.338-2.354-.838-4.687-1.5-7-.494 1.634-.66 3.301-.5 5-.172.992.162 1.658 1 2-.47 6.899-1.136 13.732-2 20.5-1.284.684-2.451.517-3.5-.5-.667-11-.667-22 0-33 2.459-2.6 4.959-2.6 7.5 0 2.2 8.145 4.7 16.145 7.5 24 2-7.333 4-14.667 6-22 1.845-4.295 4.512-4.962 8-2 .667 11 .667 22 0 33-1.292 1.291-2.458 1.291-3.5 0z" opacity=".837"/></g><g id="g32" transform="translate(-28.5 -55.5)"><path id="path32" fill="#1b1b1b" d="M626.5 152.5c8.397.225 13.23 4.558 14.5 13 1.5 7.921.167 15.255-4 22-9.975 5.564-16.642 2.898-20-8-.87-6.417-.536-12.751 1-19 2.098-3.603 4.932-6.27 8.5-8zm1 5c3.022-.072 5.188 1.262 6.5 4 3.045 7.38 2.712 14.714-1 22-3.374 2.905-6.374 2.572-9-1-4.211-9.295-3.045-17.628 3.5-25z" opacity=".906"/></g><g id="g33" transform="translate(-28.5 -55.5)"><path id="path33" fill="#131313" d="M648.5 153.5c8.176-1.673 14.343.994 18.5 8 2.49 8.3 1.823 16.3-2 24-5.439 5.01-11.439 6.01-18 3-.667-11-.667-22 0-33 .717-.544 1.217-1.211 1.5-2zm8 5c2.612.777 4.445 2.444 5.5 5 2.826 7.609 1.659 14.443-3.5 20.5-1.956 1.612-3.956 1.778-6 .5-1.134-8.255-1.301-16.588-.5-25 1.356-.88 2.856-1.214 4.5-1z" opacity=".87"/></g><g id="g34" transform="translate(-28.5 -55.5)"><path id="path34" fill="#080808" d="M680.5 157.5h-3v12h8c2.667 1 2.667 2 0 3h-8v13h3c2.357-.163 4.69.003 7 .5 1.333 1.333 1.333 2.667 0 4-4 .667-8 .667-12 0l-1.5-1.5c-.667-11-.667-22 0-33l1.5-1.5c3.333-.667 6.667-.667 10 0 1.771.535 2.104 1.369 1 2.5-1.909.848-3.909 1.182-6 1z" opacity=".763"/></g><g id="g35" transform="translate(-28.5 -55.5)"><path id="path35" fill="#131313" d="M698.5 183.5c0 1.333.667 2 2 2 2.027-.162 4.027.005 6 .5 1.333 1.333 1.333 2.667 0 4-3.667.667-7.333.667-11 0l-1.5-1.5c-.667-11-.667-22 0-33 1.049-1.017 2.216-1.184 3.5-.5.985 9.417 1.318 18.917 1 28.5z" opacity=".8"/></g><g id="g36" transform="translate(-28.5 -55.5)"><path id="path36" fill="#898989" d="M656.5 158.5c-1.644-.214-3.144.12-4.5 1-.801 8.412-.634 16.745.5 25-.667 0-1 .333-1 1-.994-9.152-1.327-18.485-1-28 2.235-.295 4.235.039 6 1z" opacity=".466"/></g><g id="g37" transform="translate(-28.5 -55.5)"><path id="path37" fill="#838383" d="M680.5 157.5c-1.824 3.346-2.49 7.013-2 11 2.559-.302 4.893.032 7 1h-8v-12h3z" opacity=".491"/></g><g id="g38" transform="translate(-28.5 -55.5)"><path id="path38" fill="#838383" d="M437.5 160.5c-.616 9.463-1.283 18.797-2 28-.166-9.006 0-18.006.5-27 .383-.556.883-.889 1.5-1z" opacity=".392"/></g><g id="g39" transform="translate(-28.5 -55.5)"><path id="path39" fill="#c4c4c4" d="M588.5 168.5h-1c.172-.992-.162-1.658-1-2-.16-1.699.006-3.366.5-5 .662 2.313 1.162 4.646 1.5 7z" opacity=".025"/></g><g id="g40" transform="translate(-28.5 -55.5)"><path id="path40" fill="#cbcbcb" d="M605.5 165.5c.329 2.728-.337 5.062-2 7 .221-2.567.888-4.901 2-7z" opacity=".033"/></g><g id="g41" transform="translate(-28.5 -55.5)"><path id="path41" fill="#494949" d="M607.5 188.5c-1.118-8.465-1.784-16.798-2-25-.039-1.256.461-2.256 1.5-3 .5 9.327.666 18.661.5 28z" opacity=".592"/></g><g id="g42" transform="translate(-28.5 -55.5)"><path id="path42" fill="#b3b3b3" d="M387.5 166.5c.772 1.194 1.772 2.194 3 3 .284 1.915-.049 3.581-1 5 .237-1.291-.096-2.291-1-3-.538-1.617-.871-3.284-1-5z" opacity=".082"/></g><g id="g43" transform="translate(-28.5 -55.5)"><path id="path43" fill="#8f8f8f" d="M685.5 172.5c-1.843.783-3.843 1.45-6 2-1.488 3.93-1.154 7.596 1 11h-3v-13h8z" opacity=".497"/></g><g id="g44" transform="translate(-28.5 -55.5)"><path id="path44" fill="#dcdcdc" d="M698.5 183.5c1 .333 1.667 1 2 2-1.333 0-2-.667-2-2z" opacity=".027"/></g><g id="g45" transform="translate(-28.5 -55.5)"><path id="path45" fill="#413bc1" d="M142.5 204.5h4c.773 10.21 5.606 17.877 14.5 23 .725 1.657.225 2.657-1.5 3-3.676-1.317-4.009-.65-1 2 1.367 1.593 1.034 2.926-1 4-2.761-1.545-5.094-3.545-7-6-.553-2.052-1.553-2.385-3-1-2.771.079-5.437-.421-8-1.5 2.048-1.681 4.215-3.181 6.5-4.5.667-3.333.667-6.667 0-10-1.271-2.984-2.438-5.984-3.5-9z" opacity=".93"/></g><g id="g46" transform="translate(-28.5 -55.5)"><path id="path46" fill="#b2b1e1" d="M165.5 216.5c1 .333 1.667 1 2 2-.739.131-1.406-.036-2-.5-1.238-.69-1.238-1.19 0-1.5z" opacity=".298"/></g><g id="g47" transform="translate(-28.5 -55.5)"><path id="path47" fill="#d3d1f1" d="M147.5 229.5c1.447-1.385 2.447-1.052 3 1-.891-.61-1.891-.943-3-1z" opacity=".522"/></g><g id="g48" transform="translate(-28.5 -55.5)"><path id="path48" fill="#cac8ec" d="M159.5 230.5c-.333.667-.667 1.333-1 2-3.009-2.65-2.676-3.317 1-2z" opacity=".239"/></g></svg>