<svg xmlns="http://www.w3.org/2000/svg" role="img" viewBox="-4.22 -5.72 505.44 139.44"><title>Samza logo</title><defs><style>.cls-1{fill:#ed242c}.cls-2{fill:#5a5a5a}</style></defs><path d="M491.926 98.016c-.404.03-.807.082-1.211.089-9.322.154-9.322.153-10.753-8.424-2.614 2.36-4.9 4.872-7.608 6.789-9.66 6.834-21.672 3.049-25.81-7.968-5.302-14.111.274-28.31 12.574-31.478 5.758-1.484 11.645-.775 17.448.212 1.33.227 2.552 1.073 3.376-1.02 3.383-8.591-2.013-16.728-11.349-16.565-4.831.085-9.659.743-14.474 1.273-2.085.23-3.901.123-3.517-2.527.36-2.483-1.92-6.327 2.146-7.153 8.325-1.692 16.78-2.782 25.283-1.036 7.864 1.615 11.47 7.414 13.895 14.331zm-11.892-25.584c.007-6.044.017-6.13-6.14-6.854a25.132 25.132 0 0 0-7.21-.01c-9.048 1.605-13.261 13.809-7.272 20.895a7.344 7.344 0 0 0 8.1 2.554c5.37-1.457 14.144-9.786 12.522-16.585z" class="cls-1"/><path d="M41.015 123.54c-4.728-1.514-4.929-6.423-7.888-10.383-2.805-3.754-8.003-6.823-11.195-10.171a37.795 37.795 0 0 0-3.198-2.536s2.678-1.87 3.616-2.47c1.044-.666 2.909-2.095 2.909-2.095a12.112 12.112 0 0 1 2.962 2.545 49.61 49.61 0 0 0 4.656 4.779c2.95 2.677 5.596 5.312 10.506 3.463 3.707-1.395 7.555.789 9.046 4.39 1.527 3.692 4.171 4.546 7.426 5.064 29.908 4.76 58.015-17.557 60.103-47.795.217-3.142.588-6.26-1.84-9.184-2.236-2.692-1.272-5.88 1.13-8.211a6.11 6.11 0 0 1 8.32-.602c2.703 1.927 3.97 4.736 2.265 7.941-1.395 2.624-1.524 5.321-1.646 8.173-1.21 28.246-17.885 49.906-45.386 56.48a30.996 30.996 0 0 1-5.44 1.167c-9.554.492-14.45 1.032-23.509-1.343-3.592-.942-6.908 2.687-12.837.788zm3.567-2.483c3.324-.42 5.717-2.198 5.508-5.767-.18-3.057-2.02-5.313-5.507-5.122-3.466.19-5.85 1.983-5.62 5.64.195 3.125 2.14 5.091 5.619 5.25zm82.314-65.205a3.125 3.125 0 1 0-6.237-.003 2.83 2.83 0 0 0 3.09 2.932c1.897-.025 2.859-1.134 3.147-2.93zM95.624 5.626c6.78 2.367 4.995 9.676 7.42 12.538 4.244 5.011 4.812 6.4 9.73 11.399a43.239 43.239 0 0 0-5.636 3.442s-2.002-3.05-3.87-5.294c-2.015-2.42-5.24-5.88-5.24-5.88s-2.22.579-3.876 1.13c-3.393 1.132-8.79-1.18-10.056-4.637-1.402-3.83-4.245-4.492-7.411-5.096C46.129 7.405 16.219 31.866 15.67 63.12c-.035 1.986-.226 3.915 1.46 5.637 3.01 3.076 3.206 6.662.065 9.663-2.911 2.783-6.148 3.12-9.257.77a7.465 7.465 0 0 1-2.015-2.42 9.41 9.41 0 0 1 .96-7.32c1.812-2.638.693-3.098.736-5.147C8.2 36.718 24.535 15.01 50.836 7.055c1.578-.477 4.953-1.5 6.919-2.068 6.89-1.994 14.952-.302 24.051.64 4.329.447 9.749-1.42 13.818 0zm-2.662 13.605a4.93 4.93 0 0 0 4.683-5.502 5.143 5.143 0 0 0-5.53-5.24c-3.437.085-5.944 2.02-5.764 5.593.15 3.017 1.992 5.24 6.611 5.15zM15.68 73.426c-.229-1.81-1.243-2.988-3.07-2.945a3.143 3.143 0 1 0 .39 6.273c1.833-.15 2.658-1.505 2.68-3.328z" class="cls-2"/><path d="M297.814 39.103c16.006-13.708 26.132-13.165 34.308 1.557 2.428-2.357 4.688-4.89 7.288-7.004 5.631-4.577 12.092-5.67 18.774-2.926 7.732 3.175 10.437 10.13 10.656 17.654.447 15.368.088 30.759.235 46.138.053 5.548-3.942 3.306-6.435 3.518-2.545.216-5.712 1.223-5.624-3.684.244-13.555.094-27.118.06-40.677-.024-9.257-2.702-13.19-8.822-13.12-6.956.078-14.512 7.43-14.562 14.413-.089 12.547-.35 25.107.124 37.637.21 5.539-2.402 5.433-6.459 5.658-4.623.256-5.765-1.214-5.656-5.73.314-12.945.116-25.903.091-38.855-.017-8.821-2.584-12.857-8.26-13.103-6.808-.296-15.146 6.994-15.23 13.723-.161 12.95-.347 25.915.09 38.853.189 5.588-2.893 4.833-6.387 5.049-3.893.24-5.702-.447-5.632-5.084.28-18.614.136-37.236.097-55.855-.007-3.477-.66-6.51 4.94-6.425 5.122.077 7.026 1.475 6.165 6.455a8.378 8.378 0 0 0 .239 1.808zm-44.157 49.37a55.457 55.457 0 0 1-3.662 4.882c-5.526 5.646-12.123 8.251-19.786 5.39-7.713-2.88-10.716-9.452-11.381-17.145-1.65-19.069 9.276-28.234 30.087-24.587 5.077.89 5.251-.636 5.213-4.573-.098-10.12-2.807-13.037-12.998-12.797-4.221.1-8.43.767-12.642 1.192-1.949.197-4.586 1.013-4.005-2.344.436-2.52-2.475-6.519 2.54-7.374 6.364-1.085 12.748-2.2 19.253-1.58 13.778 1.314 19.343 7.188 19.537 21.18.198 14.355-.114 28.72.18 43.072.085 4.218-1.77 4.732-5.032 4.34-2.989-.36-7.522 1.707-6.81-4.433.13-1.109-.195-2.27-.494-5.223zm.413-17.01c1.602-4.261-1.429-5.536-5.66-5.794a43.158 43.158 0 0 0-6.041-.308c-4.39.356-8.407 1.672-10.373 6.114-2.18 4.926-2.054 9.901.926 14.428a7.081 7.081 0 0 0 8.446 3.106c6.718-1.926 12.677-9.66 12.702-17.545zm153.277 26.664q-7.589.002-15.178 0c-7.498-.002-9.778-4.032-5.959-10.826 1.88-3.346 4.095-6.504 6.184-9.731 6.702-10.356 13.344-20.75 20.16-31.03 2.481-3.74 2.152-5.2-2.702-5.022-6.467.238-12.968-.263-19.42.136-4.653.287-4.598-2.18-4.774-5.545-.203-3.87.868-5.26 4.982-5.145 10.515.293 21.045.032 31.567.145 2.531.028 6.474-1.326 7.31.94a11.936 11.936 0 0 1-1.476 10.92c-8.501 12.803-16.665 25.831-24.895 38.814-1.017 1.603-3.433 3.2-2.084 5.125.677.966 3.355.678 5.131.697 6.678.072 13.364.238 20.032-.023 4.882-.192 3.588 3.113 3.76 5.705.183 2.75.363 5.143-3.821 4.924-6.257-.328-12.543-.085-18.817-.084zm-226.591 1.915c-4.362-.672-8.135-1.355-11.935-1.801-2.173-.255-3.051-1.073-3.236-3.392-.506-6.376.203-7.128 6.517-6.407a91.266 91.266 0 0 0 12.665.934c4.322-.114 9.351.139 10.538-5.805 1.397-7-.552-10.339-7.516-13.138-3.933-1.58-7.992-2.862-11.887-4.528-9.245-3.956-12.197-8.716-11.942-18.802.249-9.885 5.506-15.787 15.281-17.22 5.857-.857 11.688-.3 17.546.04 5.564.324 4.891 4.102 4.764 7.754-.179 5.128-3.436 2.224-5.608 2.187-4.445-.075-8.904-.372-13.332-.125-3.42.192-6.182 1.745-6.868 5.648-.69 3.93-.225 7.352 3.845 9.178 4.787 2.146 9.635 4.157 14.465 6.206 13.258 5.624 15.471 15.025 11.896 27.788-1.833 6.54-7.41 9.39-13.655 10.533-3.946.722-8.031.686-11.538.95z" class="cls-1"/><path d="M53.436 87.979c-16.81-8.507-18.36-33.607-3.207-45.247a29.342 29.342 0 0 1 13.124-5.917c4.117-.696 8.256-.828 12.347-2.433 4.156-1.63 8.379.465 9.933 4.728 1.425 3.907 3.814 6.983 5.98 10.347 11.173 17.35.215 40.331-20.55 43.252-2.363.332-5.068 1.13-5.186-2.859-.088-2.987-.244-5.064 4.112-5.527 14.331-1.522 22.28-16.459 15.757-28.757-1.4-2.64-2.737-4.568-6.537-3.53A7.62 7.62 0 0 1 70 47.824c-1.779-3.711-4.375-3.484-7.494-2.613C49.822 48.75 43.59 63.99 50.876 74.895c2.75 4.117 3.272 8.017 2.56 13.084zM83.153 43.1c-.299-3.197-2-5.483-5.216-5.611-3.51-.14-5.661 1.967-5.654 5.625.007 3.274 1.887 5.649 5.04 5.728 3.372.084 5.496-2.15 5.83-5.742z" class="cls-2"/><path d="M67.805 108.925c-2.688.328-5.602-.697-8.592-1.169-4.14-.653-3.76-3.793-3.32-6.53.59-3.674 3.044-1.228 4.7-1.01 14.539 1.924 27.092-1.78 35.999-13.878 8.438-11.463 10.004-24.07 3.918-37.23-1.594-3.445-3.095-6.846-7.789-7.59-3.005-.477-4.548-3.263-4.405-6.463a6.296 6.296 0 0 1 4.928-6.183c2.767-.751 5.712-.06 6.878 2.558 4.22 9.475 10.969 17.683 11.923 28.802 2.183 25.45-18.357 48.715-44.24 48.693zM98.027 35.02c-.433-1.798-1.57-2.825-3.422-2.648a2.825 2.825 0 0 0-2.709 3.316 2.726 2.726 0 0 0 3.317 2.659c1.885-.222 2.7-1.495 2.814-3.327zM78.4 21.93c-1.017 5.585-3.969 6.998-9.417 6.843A35.749 35.749 0 0 0 35.52 80.579c1.62 3.248 3.05 6.402 7.689 6.638 3.105.158 4.767 2.957 4.952 6.046.19 3.164-1.548 5.36-4.388 6.616a5.42 5.42 0 0 1-7.036-1.893c-6.495-9.944-13.096-19.74-13.049-32.536.117-31.175 29.59-51.299 54.714-43.52zM44.627 93.273a2.893 2.893 0 0 0-3.313-2.69 2.705 2.705 0 0 0-2.776 3.209 2.824 2.824 0 0 0 3.234 2.815 3.041 3.041 0 0 0 2.855-3.334z" class="cls-1"/></svg>