<svg xmlns="http://www.w3.org/2000/svg" role="img" viewBox="-3.45 -3.95 335.14 71.64"><title>SapientML logo</title><defs><style>.cls-1{fill:#1dd7fa}.cls-3{fill:#a272f7}</style></defs><path d="M17.9488 2.60563c2.6117-.01534 8.23387-.01918 8.23387-.01918s-.20317.59444-.32206.97028c-1.30393 6.17068-.29913 12.31067 2.02493 18.094-1.62607-.5254-2.96453-1.78715-4.52925-2.35475-3.32886-4.80538-5.48035-10.81881-5.40749-16.69035z" class="cls-3"/><path d="M35.88758 2.59552c4.20795-.00907 8.63908-.0115 12.87686 0-.21093.28764-.49534.59688-.74846.85767-5.31544 5.62609-8.25313 13.37682-8.03453 21.10838-2.186-.05369-4.47173-.372-6.59637-.89358-1.76798-7.0259-.7535-14.62183 2.5025-21.07247zm131.18905 10.64484c1.67594-.61745 3.65102-.21477 4.76321 1.21956 1.25023 1.56856 1.08532 4.0422-.43337 5.37681-1.81017 1.7258-5.11219 1.2886-6.2819-.97028-1.12751-2.03644-.23394-4.76703 1.95206-5.6261z" class="cls-1"/><path fill="#1d5098" d="M97.97199 18.92014c-1.1467 1.54938-2.34325 3.06425-3.5398 4.57144l-.23394-.01534c-1.6491-1.71429-3.83127-2.86098-6.18985-3.21381-1.44967-.26079-3.15245-.0652-4.41037.744-1.33078.83606-1.90988 2.535-1.33462 4.00769.349.92425 1.25409 1.65676 2.0748 2.15916 3.14862 1.70662 6.78045 2.84564 9.84853 4.70566.97412.67881 1.96358 1.3768 2.65773 2.35092 2.04794 2.5465 2.27037 6.2282 1.17737 9.21957-1.04698 2.7536-3.30202 4.77087-5.99425 5.87155-6.6846 2.59252-15.09496.64812-19.0758-5.5724l.06904-.2608c1.29626-1.44966 2.54267-2.95686 3.86578-4.37967 1.77565 2.65005 4.46406 4.56376 7.66253 5.0048 1.93672.29914 4.326.06136 5.7373-1.45734 1.00864-.93193 1.40748-2.53117.7977-3.78908-.72866-1.58773-2.3931-2.35475-3.88878-3.04507-3.4516-1.45733-7.27519-2.60403-9.89456-5.442-2.63472-2.7536-3.03356-7.19848-1.40748-10.5542 1.33078-2.74209 3.91947-4.55226 6.8073-5.35763 5.3423-1.3653 11.70856.0882 15.27137 4.45255zm139.24094-4.1419c2.04795-.00767 4.09588-.01151 6.14384.00383.16106 2.83414.01533 6.18218.07286 9.08535 2.89934.05369 5.80635-.0115 8.7095.03068a248.18198 248.18198 0 0 1 0 5.34613c-2.90315.04219-5.80632-.02301-8.7095.03068-.01151 3.7047-.00383 7.40941-.00383 11.11412.0767 1.46884.39118 3.1026 1.78333 3.88879 1.5532.75935 3.6395.41036 5.1467-.32982.40267-.1534.84372-.5254 1.2809-.47172.51392 1.57239 1.53788 3.36722 1.82551 4.9166-1.80631 1.12752-3.80057 1.78332-5.91371 1.99809-2.6654.21476-5.3423 0-7.4746-1.77566-2.1515-1.7488-2.85716-4.82455-2.97221-7.46694-.01152-3.95781.00768-7.91564-.00768-11.87346-1.43048-.04986-2.86864.0115-4.30297-.03068a413.62967 413.62967 0 0 1 0-5.34613c1.46501-.03835 2.93.01534 4.39117-.02301.0422-3.02973-.023-6.0633.03069-9.09686zm24.24167-.12273c1.19655-.16107 2.53883-.02684 3.76607-.0652 4.2608 6.76512 8.46407 13.62995 12.65199 20.44492 4.16491-6.81497 8.37584-13.67213 12.5983-20.44491 1.28476-.0115 2.56951 0 3.85426 0 .01152 11.75074.03069 23.52833-.00765 35.27907-1.94056.0115-3.88112.00384-5.82168 0l-.10356-.18408c.01152-6.82265-.01917-13.64528.01534-20.46409-.3068.30297-.51006.67114-.74018 1.03548-2.89165 4.69416-5.84468 9.36147-8.72485 14.0633-.57142.12273-1.63375.16875-2.17833-.0115-3.0067-4.85907-6.04028-9.69896-9.04317-14.55804-.1227-.19176-.26844-.36433-.43718-.52157.0345 6.8188.00381 13.64145.01533 20.46025l-.1074.18025c-1.90987 0-3.82358.01534-5.73345-.00767-.02301-11.72773-.01152-23.47847-.00384-35.2062zm39.30593-.06903c2.1975.00384 4.40269-.00384 6.60403.00384.03453 9.64527-.0115 19.30205.02303 28.94733 5.99424.00766 12.00386-.00768 17.99428.00383a217.48743 217.48743 0 0 1 0 6.32791c-8.18027.00384-16.37204.00767-24.55231-.00383l-.07287-.23778c.01152-11.67404.00384-23.36726.00384-35.0413zM61.92205 15.7255c.0115 4.24546.0115 8.49858 0 12.74404l-.15723.21093c-6.40462 3.29435-13.93292 4.13424-20.92814 2.46597-7.04125-1.66827-13.27712-5.97509-17.48039-11.85046 1.56472.5676 2.90318 1.82934 4.52925 2.35475 1.70279.93577 3.63568 1.50336 5.49954 2.01726 2.12464.52158 4.41037.8399 6.59637.89358 8.20328.16875 16.13043-3.0604 21.9406-8.83607zM3.26421 17.27488c9.33846.0767 18.70378 5.02782 23.88116 12.82457-1.18888-.64813-2.27805-1.48034-3.50912-2.06328-6.21669-3.22915-13.5379-4.22244-20.37204-2.63088a574.60986 574.60986 0 0 1 0-8.1304zm125.48825 6.6232c-1.99805.01154-4.0575-.08434-6.04786.04603.03064 1.0393-.04223 2.06714.06519 3.09875-2.3855-2.53497-5.58777-4.03833-9.11609-3.74304-3.31726.07288-6.57336 1.54938-8.79004 4.02301-4.6903 5.23493-4.48706 14.19373.30298 19.29059 3.86194 4.16492 10.82654 5.20422 15.5514 1.92902.77465-.45636 1.28088-1.19654 2.0172-1.67975.04602.93194-.15722 2.14764.08435 3.00671 1.95594 0 3.91187.01148 5.86768-.00384l.073-.2378c-.0116-8.56756 0-17.16205-.00781-25.72967zm-9.05848 19.41328c-2.47363 1.8255-6.13232 1.8485-8.64807.09204-3.75073-2.57337-4.34912-8.30683-1.469-11.75458 2.59254-3.21765 7.85438-3.48993 10.81507-.64044 1.43433 1.28857 2.30493 3.22534 2.43152 5.14288.27612 2.67304-.90515 5.5877-3.12952 7.1601zM200.48805 29.133c-1.66064-2.86865-4.54468-4.8476-7.77759-5.52637-3.63183-.74401-7.69323-.3183-10.86108 1.70276-2.99512 1.88306-5.02002 5.03168-5.66052 8.49475-.74793 4.02686-.0575 8.47559 2.51965 11.75074 1.74121 2.30877 4.30298 3.75842 7.09106 4.41424 5.31543 1.2157 11.06055 0 15.51294-3.11798-.859-1.50336-1.67968-3.03357-2.5426-4.54077-2.73828 1.73352-5.86767 2.76898-9.13135 2.66925-1.95984-.09967-4.0537-.78235-5.39978-2.27039-1.00879-1.00476-1.49194-2.24353-1.90612-3.57428 6.57336-.00384 13.1698.00763 19.73547-.00769.46399-3.45922.1687-6.91082-1.58008-9.99426zm-18.15161 5.20038c.34521-1.2464.83618-2.40076 1.6875-3.3902 2.20898-2.68072 6.5044-3.14099 9.33081-1.1966 1.44202 1.07002 2.52344 2.79963 2.65002 4.60597-4.55603-.04603-9.11218-.00379-13.66833-.01917zm45.38462-7.87728c1.75264 1.97508 2.57336 4.79387 2.47748 7.40174-.01151 5.33079.01533 10.67309-.01151 16.00387a346.33367 346.33367 0 0 1-6.31256 0c-.02685-4.9511 0-9.90606-.01152-14.85717-.08436-1.88303-.78235-3.88496-2.36241-5.02782-2.25888-1.6606-5.78718-1.19271-7.63186.87824-1.0815 1.08533-1.6606 2.69991-1.79482 4.19943-.00384 4.87825 0 9.76033 0 14.63858l-.1074.17641c-2.0671.00384-4.13422.0115-6.20134-.00383-.0345-8.64815-.02301-17.31548-.00766-25.96746 2.07094-.02301 4.14574-.01917 6.21668 0 .00384 1.06616.00384 2.12848-.00384 3.19464.97413-1.03931 1.77182-2.0748 3.09493-2.71142 3.98851-2.09396 9.64145-1.41515 12.65583 2.07479zm-67.0643 4.55227c-1.5226-3.64716-4.72108-6.50434-8.5984-7.40174-2.75354-.59826-5.6875-.47558-8.19165.92041-1.25805.63282-2.20532 1.58008-3.23315 2.51197.01538-1.04694.00781-2.09394.00781-3.14093a347.39696 347.39696 0 0 0-6.32031 0 49641.14729 49641.14729 0 0 0 0 34.10937 347.39696 347.39696 0 0 0 6.32031 0c-.0039-3.72772.02295-7.45923-.01538-11.1908.85132.72102 1.59546 1.4765 2.56177 2.05946 2.92627 1.883 6.88025 2.00958 10.094.86291 3.39404-1.1659 6.12475-3.93866 7.45556-7.2445 1.47265-3.63569 1.45727-7.87733-.08057-11.48615zm-7.87354 12c-2.94532 2.48901-7.7583 2.2282-10.30872-.70947-2.41223-2.72675-2.59253-7.14863-.52539-10.117.88977-1.32313 2.22058-2.27802 3.73157-2.76508 2.79577-.85907 5.96728-.09205 7.89258 2.1438 2.79956 3.23681 2.4928 8.65197-.79004 11.44775zM165.4889 23.8981a345.96798 345.96798 0 0 1 6.30873 0c.0192 8.58679 0 17.20426.00768 25.79104l-.1074.18025c-2.0671.00384-4.13422.0115-6.20135-.00383-.03451-8.64815-.023-17.31548-.00766-25.96746zM29.73407 34.6057c4.83222 2.20518 8.9703 5.68362 12.05371 9.9981-1.55705-.63662-2.89933-1.81784-4.52925-2.38927-1.7143-.88207-3.61266-1.49952-5.46885-2.00191-1.4305-.33366-2.8725-.59828-4.33366-.74785-8.87442-.91275-17.91759 2.35475-24.19181 8.69033-.02301-4.24929-.01534-8.49858-.00384-12.74787.23011-.37967.82839-.4909 1.20423-.71716 7.85428-3.69704 17.3845-3.72005 25.26947-.08437zm8.29148-.80537c1.5072.8744 2.92618 1.86002 4.54075 2.56184 5.9866 2.84565 12.89361 3.59349 19.35192 2.11314a574.52072 574.52072 0 0 1 0 8.13042c-9.31546-.0652-18.7498-5.00481-23.89267-12.8054z"/><path d="M25.25083 39.37273c.73634-.0652 1.46118.13039 2.20519.09204 1.46117.14957 2.90316.41419 4.33366.74785 1.6836 7.05658.7862 14.50817-2.48515 20.97415l-.29914.09204c-4.17642-.01533-8.35668.03068-12.5331-.023.9281-1.24258 2.08246-2.28189 2.94536-3.58199 3.9233-5.3001 5.79483-11.73924 5.83318-18.3011z" class="cls-1"/><path d="M37.25853 42.21453c1.62992.57143 2.9722 1.75265 4.52925 2.38927 3.39023 4.85907 5.30011 10.5772 5.49954 16.50627l-.26463.19175c-2.6232-.0652-5.2656.04986-7.88496-.05752 1.0163-4.74018.97795-9.6261-.3068-14.30876-.40653-1.6184-1.07767-3.13711-1.5724-4.721z" class="cls-3"/></svg>