<svg xmlns="http://www.w3.org/2000/svg" role="img" viewBox="-4.77 -4.27 456.04 253.54"><title>SciKit-learn logo</title><defs><style>.cls-3{fill:#010101}</style></defs><g id="g3"><path fill="#f89939" d="M340.41 205.475c53.544-53.541 62.443-131.447 19.875-174.012C317.723-11.097 239.82-2.2 186.279 51.338c-53.541 53.54-38.053 155.829-19.873 174.012 14.692 14.692 120.465 33.663 174.003-19.875z" id="path5"/><path fill="#3499cd" d="M120.708 128.11C89.646 97.046 44.441 91.875 19.74 116.576-4.956 141.274.207 186.485 31.275 217.542c31.069 31.072 90.421 22.084 100.963 11.533 8.53-8.516 19.542-69.9-11.53-100.966z" id="path7"/></g><g id="g9"><g id="g11"><path d="M227.884 192.352a86.381 86.381 0 0 1-14.439 11.174 23.649 23.649 0 0 1-11.838 3.603 12.657 12.657 0 0 1-10.445-5.024q-3.97-5.03-3.965-13.506 0-12.713 5.511-30.514a193.75 193.75 0 0 1 13.38-32.821l15.38-5.695a3.853 3.853 0 0 1 1.093-.243c1.167 0 2.13.86 2.87 2.572a17.699 17.699 0 0 1 1.125 6.937 53.496 53.496 0 0 1-5.695 23.918q-5.696 11.57-17.8 24.705-.487 6.298-.486 8.659a15.607 15.607 0 0 0 1.936 8.355 5.852 5.852 0 0 0 5.148 3.088 13.042 13.042 0 0 0 6.966-2.356q3.687-2.367 11.257-9.813v6.961zm-23.19-23.671a73.886 73.886 0 0 0 12.476-19.163q4.78-10.612 4.78-18.258a8.322 8.322 0 0 0-.662-3.601c-.444-.91-1.013-1.366-1.698-1.366q-2.231 0-6.508 11.156-4.271 11.155-8.387 31.232z" class="cls-3" id="path13"/><path d="M273.18 192.352a74.229 74.229 0 0 1-13.804 11.174 26.097 26.097 0 0 1-13.503 3.603q-8.236 0-13.295-5.265-5.054-5.276-5.051-13.87a34.761 34.761 0 0 1 8.905-23.22q8.893-10.389 19.736-10.386a13.4 13.4 0 0 1 9.023 2.908 9.564 9.564 0 0 1 3.39 7.63q0 12.537-26.641 20.345 2.419 11.802 12.654 11.808a14.775 14.775 0 0 0 7.626-2.146q3.64-2.153 10.962-9.54v6.959zm-31.729-11.2q15.497-4.363 15.501-16.106 0-5.812-4.236-5.811-3.999 0-7.627 6.086-3.642 6.083-3.638 15.832z" class="cls-3" id="path15"/><path d="M337.85 192.352q-9.69 9.203-13.865 11.996a14.508 14.508 0 0 1-7.995 2.782q-9.568 0-9.022-16.893-6.054 8.655-11.174 12.78a16.685 16.685 0 0 1-10.567 4.113q-5.321 0-9.05-4.992a19.91 19.91 0 0 1-3.722-12.265 32.92 32.92 0 0 1 4.99-17.319 41.105 41.105 0 0 1 12.808-13.318q7.809-5.086 13.805-5.089a10.714 10.714 0 0 1 10.6 6.963l12.375-6.84h3.396l-5.345 17.74q-4.117 13.387-4.122 18.35 0 5.205 3.693 5.206 2.353 0 5.203-2.514 2.848-2.516 7.989-7.66v6.96zm-44.325 3.334q6.055 0 11.42-10.322 5.359-10.327 5.357-19.048a8.344 8.344 0 0 0-1.513-5.296 4.912 4.912 0 0 0-4.056-1.909q-6.06 0-11.475 10.295-5.418 10.297-5.422 18.95a8.303 8.303 0 0 0 1.606 5.302 4.976 4.976 0 0 0 4.083 2.028z" class="cls-3" id="path17"/><path d="M383.085 192.352q-15.2 14.895-23.436 14.899a7.771 7.771 0 0 1-6.237-3.113 11.853 11.853 0 0 1-2.543-7.726q0-8.537 9.145-22.887a33.764 33.764 0 0 1-9.81 3.207q-3.936 7.266-12.353 15.618h-1.39v-5.443A79.41 79.41 0 0 0 345 176.37q-5.215-2.303-5.21-6.84a19.503 19.503 0 0 1 3.181-9.967q3.178-5.293 8.75-5.293 4.725 0 4.722 4.841 0 3.816-2.728 10.9 10.05-1.093 17.563-15.38l5.508-.244-5.631 15.501q-3.51 9.81-4.54 13.354a22.873 22.873 0 0 0-1.03 6.265 6.421 6.421 0 0 0 1.18 4.057 3.81 3.81 0 0 0 3.18 1.516 6.946 6.946 0 0 0 4.179-1.48q1.996-1.496 8.963-8.21v6.963z" class="cls-3" id="path19"/><path d="M442.55 192.352q-13.987 14.783-23.98 14.778a8.254 8.254 0 0 1-6.54-2.847 11.17 11.17 0 0 1-2.485-7.626q0-6.479 5.332-19.798 2.844-7.148 2.847-9.084c0-1.293-.509-1.94-1.512-1.94a4.76 4.76 0 0 0-2.242.846 27.548 27.548 0 0 0-2.97 2.365q-1.511 1.39-3.392 3.385-1.638 1.71-3.508 3.878l-3.396 3.94a12.494 12.494 0 0 0-2.782 5.75 91.61 91.61 0 0 0-1.214 9.451q-.185 3.202-.182 8.66l-13.383 3.142q-.661-8.174-.667-12.168a72.915 72.915 0 0 1 2.274-18.469 119.454 119.454 0 0 1 7.296-19.622l14.772-2.844a140.966 140.966 0 0 0-6.114 19.736q9.932-11.08 15.76-15.35 5.827-4.27 10.367-4.263a6.57 6.57 0 0 1 5.138 2.326 8.484 8.484 0 0 1 2.056 5.832q0 5.807-5.202 19.135-3.576 9.14-3.576 11.873 0 3.645 2.973 3.644 4.428 0 14.33-11.688z" class="cls-3" id="path21"/></g></g><path fill="#fff" d="M250.794 128.123a4.592 4.592 0 0 0 .818 2.458q1.237 1.552 4.292 1.55a6.423 6.423 0 0 0 3.2-.775 2.559 2.559 0 0 0 1.382-2.396 2.047 2.047 0 0 0-1.103-1.87 13.214 13.214 0 0 0-2.79-.908l-2.589-.642a12.764 12.764 0 0 1-3.657-1.353 4.037 4.037 0 0 1-2.1-3.6 5.467 5.467 0 0 1 1.976-4.383 7.959 7.959 0 0 1 5.316-1.675q4.374 0 6.304 2.531a5.445 5.445 0 0 1 1.173 3.455h-3.028a3.633 3.633 0 0 0-.786-1.967q-1.127-1.256-3.92-1.258a4.778 4.778 0 0 0-2.818.694 2.149 2.149 0 0 0-.957 1.827 2.241 2.241 0 0 0 1.258 1.988 7.64 7.64 0 0 0 2.143.784l2.16.515a16.945 16.945 0 0 1 4.72 1.621 4.298 4.298 0 0 1 1.87 3.867 5.867 5.867 0 0 1-1.957 4.402q-1.958 1.852-5.962 1.85-4.313 0-6.105-1.932a7.265 7.265 0 0 1-1.923-4.783zm28.941-12.078q2.023 1.565 2.433 5.398h-3.117a5.748 5.748 0 0 0-1.302-2.931 4.114 4.114 0 0 0-3.259-1.168 4.506 4.506 0 0 0-4.384 2.99 11.877 11.877 0 0 0-.855 4.787 9.007 9.007 0 0 0 1.211 4.822 4.707 4.707 0 0 0 6.976.741 6.672 6.672 0 0 0 1.613-3.326h3.117a7.54 7.54 0 0 1-8.142 7.303 7.303 7.303 0 0 1-5.969-2.734 10.46 10.46 0 0 1-2.226-6.832q0-5.024 2.44-7.822a7.891 7.891 0 0 1 6.219-2.798 8.31 8.31 0 0 1 5.245 1.57zm5.641-8.108h3.26v3.635h-3.26zm0 7.18h3.26v18.992h-3.26zm8.034-7.18h3.082v15.196l8.223-8.104h4.097l-7.332 7.094 7.742 11.986h-4.096l-6-9.71-2.634 2.55v7.16h-3.081zm18.316 0h3.26v3.635h-3.26zm0 7.18h3.26v18.992h-3.26zm8.747-5.415h3.243v5.327h3.044v2.618h-3.044V130.1a1.346 1.346 0 0 0 .676 1.338 2.87 2.87 0 0 0 1.247.195c.155 0 .32-.004.499-.013a7.14 7.14 0 0 0 .622-.058v2.547a7.089 7.089 0 0 1-1.146.232 11.014 11.014 0 0 1-1.293.07q-2.248 0-3.047-1.148a5.106 5.106 0 0 1-.8-2.985v-12.631h-2.586v-2.618h2.585z" id="text25" style=""/></svg>