<svg xmlns="http://www.w3.org/2000/svg" role="img" viewBox="-16.76 -3.76 1443.52 620.52"><title>SciPy logo</title><defs><style>.cls-2{fill:#fdfdfd}.cls-77{fill:#00264a}.cls-162{fill:#0053a0}.cls-163{fill:#fff}</style><clipPath id="clip-path"><circle cx="294.108" cy="306.896" r="279.529" fill="none"/></clipPath></defs><path d="M727.67 391.537a92.567 92.567 0 0 0 39.08-6.536c25.006-9.959 40.38-33.716 39.791-60.919-.568-26.258-12.659-42.01-40.46-52.158-7.182-2.621-14.662-4.42-21.984-6.668-7.313-2.245-14.881-3.942-21.836-7.014-13.708-6.055-15.018-22.057-2.953-31.06 13.567-10.125 39.132-6.981 46.344 8.029 5.626 11.707 11.913 11.694 21.519 8.127 2.262-.84 4.792-.93 7.168-1.5 20.428-4.889 20.475-5.48 9.593-23.657-19.052-31.824-58.245-38.408-91.967-29.056-26.891 7.458-44.565 31.55-44.99 59.028-.418 26.934 12.72 44.155 41.934 54.17 12.51 4.288 25.372 7.546 37.912 11.755 6.792 2.28 12.549 6.094 13.436 14.365.945 8.813-2.11 15.695-9.119 20.999-15.717 11.89-48.332 6.97-56.602-10.812-5.432-11.683-11.34-13.657-21.879-10.304a16.667 16.667 0 0 1-3.133.227c-24.731 2.74-26.823 7.072-14.037 29.075.699 1.203 1.434 2.391 2.243 3.52 17.265 24.117 42.43 30.002 69.94 30.39zm350.138-4.287c13.928 0 27.517-.148 41.099.083 4.549.077 4.636-2.482 5.18-5.822 3.246-19.942 7.062-39.797 9.932-59.79.884-6.164 2.733-8.28 9.025-8.1 15.022.427 30.063.153 45.097.13 9.5-.014 18.748-1.29 27.53-5.235 26.546-11.929 37.23-34.48 37.476-61.452.317-34.847-21.928-53.839-47.795-56.019-30.03-2.53-60.085-.4-90.114-1.266-5.221-.15-5.294 3.447-5.854 6.825-10.49 63.237-20.954 126.48-31.576 190.646zm321.932-147.014c-9.949 0-18.016.441-26.008-.147-5.868-.432-8.685 1.677-10.743 7.022-3.757 9.758-8.205 19.252-12.424 28.83q-11.006 24.985-22.038 49.84c-3.42-1.181-3.12-3.135-3.442-4.758-4.823-24.27-9.59-48.55-14.513-72.8-.693-3.414-.053-8.07-5.94-8.017-13.216.116-26.433.036-40.286.036 10.605 45.803 20.988 90.585 31.338 135.375 4.664 20.187-5.039 31.77-25.965 32.524-6.157.222-14.106-5.81-18.01.824-3.023 5.138-1.582 12.913-2.08 19.52-.13 1.74.046 3.51-.16 5.239-.511 4.307.853 5.845 5.619 6.18 36.33 2.557 52.57-6.117 68.641-38.867 17.503-35.67 34.382-71.646 51.396-107.553 8.164-17.23 16.011-34.61 24.615-53.248zm-432.734 97.05c-5.267-.846-10.127-1.406-14.885-2.434-12.367-2.671-22.711-3.891-27.717 12.578-2.81 9.248-13.052 13.168-23.496 12.097-8.39-.861-15.172-5.123-16.9-13.376-5.179-24.73-3.28-48.927 11.964-69.909 10.019-13.788 32.775-10.594 35.84 5.452 2.922 15.302 11.068 13.9 21.52 12.432a91.094 91.094 0 0 1 13.561-.939c4.543.047 5.99-1.68 5.832-6.214-.328-9.375-3.682-17.572-8.088-25.66-17.507-32.14-69.483-30.397-92.51-14.274-27.074 18.959-42.038 58.225-34.995 92.816 5.076 24.93 17.786 43.047 43.426 49.559 40.11 10.187 74.232-10.215 86.448-52.127zm91.246-97.042c-13.568 0-26.786.091-40.003-.046-5.151-.054-5.133 3.562-5.7 7.01-7.627 46.373-15.27 92.745-23.062 140.049 12.463 0 24.66-.396 36.814.16 6.424.295 8.255-2.21 9.19-8.065 7.366-46.072 15.03-92.096 22.76-139.108zm-19.681-12.585c21.414 0 21.437.004 24.551-18.679 1.25-7.5 2.376-15.022 3.558-22.534-7.991-.27-15.981-.725-23.974-.773-19.07-.114-19.07-.037-22.711 18.508-4.611 23.478-4.611 23.478 18.576 23.478z" class="cls-2"/><path fill="#040404" d="M727.67 391.537c-27.51-.387-52.675-6.272-69.94-30.388-.809-1.13-1.544-2.318-2.243-3.52-12.786-22.004-10.694-26.336 14.037-29.076a16.667 16.667 0 0 0 3.133-.227c10.54-3.353 16.447-1.38 21.88 10.304 8.269 17.782 40.884 22.703 56.601 10.812 7.01-5.304 10.064-12.186 9.119-20.999-.887-8.271-6.644-12.086-13.436-14.365-12.54-4.209-25.402-7.467-37.912-11.756-29.215-10.014-42.352-27.235-41.935-54.17.426-27.476 18.1-51.57 44.991-59.027 33.722-9.352 72.915-2.768 91.967 29.056 10.882 18.177 10.835 18.768-9.593 23.658-2.376.568-4.906.658-7.168 1.499-9.606 3.567-15.893 3.58-21.518-8.127-7.213-15.01-32.778-18.154-46.345-8.03-12.065 9.004-10.755 25.006 2.953 31.061 6.955 3.072 14.523 4.769 21.836 7.015 7.322 2.248 14.802 4.046 21.984 6.667 27.801 10.149 39.892 25.9 40.46 52.158.589 27.203-14.785 50.96-39.79 60.919a92.567 92.567 0 0 1-39.08 6.536zm350.138-4.287c10.622-64.167 21.085-127.409 31.576-190.646.56-3.378.633-6.975 5.854-6.825 30.029.865 60.085-1.265 90.114 1.266 25.867 2.18 48.112 21.172 47.795 56.019-.246 26.972-10.93 49.523-37.476 61.452-8.782 3.946-18.03 5.221-27.53 5.236-15.034.023-30.075.296-45.097-.132-6.292-.18-8.14 1.937-9.025 8.102-2.87 19.992-6.686 39.847-9.932 59.789-.544 3.34-.631 5.899-5.18 5.822-13.582-.23-27.171-.083-41.1-.083zm63.591-106.993c16.551-.785 31.997 1.631 47.128-2.157 12.431-3.113 21.668-15.801 20.992-27.996-.672-12.138-9-21.334-22.798-23.156-10.333-1.364-20.9-.905-31.353-1.43-3.89-.195-5.663 1.302-6.24 5.186-2.412 16.194-5.028 32.359-7.729 49.553zm258.341-40.021c-8.604 18.639-16.451 36.018-24.615 53.248-17.014 35.907-33.893 71.884-51.396 107.553-16.07 32.75-34.248 41.178-70.579 38.62-4.766-.335-3.68-5.933-3.68-5.933s.029-3.499.16-5.24c.497-6.606 2.079-19.519 2.079-19.519s11.853-.602 18.01-.824c20.926-.755 30.63-12.337 25.965-32.524-10.35-44.79-20.733-89.572-31.338-135.375 13.853 0 27.07.08 40.286-.036 5.887-.052 5.247 4.602 5.94 8.017 4.924 24.25 9.69 48.53 14.513 72.8.322 1.623.023 3.577 3.442 4.757q10.979-24.818 22.038-49.839c4.22-9.578 8.667-19.072 12.424-28.83 2.058-5.345 4.875-7.454 10.743-7.022 7.992.588 16.06.147 26.008.147zm-432.734 97.051c-12.216 41.912-46.338 62.314-86.448 52.127-25.64-6.512-38.35-24.628-43.426-49.559-7.043-34.591 7.92-73.857 34.995-92.816 23.027-16.123 75.003-17.866 92.51 14.273 4.406 8.09 7.76 16.286 8.088 25.661a14.293 14.293 0 0 1-.72 4.218l-34.706 1.665s-1.066-4.44-2.88-10.12c-4.842-15.158-28.428-20.281-38.447-6.494-15.245 20.982-17.143 45.18-11.964 69.909 1.728 8.253 8.51 12.515 16.9 13.376 10.444 1.071 18.88-3.79 26.932-13.422 3.925-4.774 11.04-13.493 11.04-13.493s2.53.291 13.24 2.24c4.79.871 9.619 1.588 14.886 2.435zm91.246-97.043c-7.732 47.012-15.395 93.036-22.76 139.108-.936 5.854-2.767 8.36-9.19 8.066-12.155-.557-24.352-.161-36.815-.161 7.793-47.304 15.435-93.676 23.063-140.05.567-3.447.548-7.063 5.7-7.01 13.216.138 26.434.047 40.002.047zm-19.682-12.584c-23.186 0-23.186 0-18.575-23.479 3.642-18.545 3.642-18.622 22.711-18.508 7.993.048 15.983.503 23.974.773-1.182 7.512-2.308 15.034-3.558 22.534-3.114 18.683-3.136 18.68-24.551 18.68z"/><path d="M1141.4 280.257c2.7-17.194 5.316-33.359 7.727-49.553.578-3.884 2.351-5.381 6.241-5.186 10.454.525 21.02.066 31.353 1.43 13.798 1.821 22.126 11.018 22.798 23.156.676 12.195-8.56 24.883-20.992 27.996-15.131 3.788-30.577 1.372-47.128 2.157z" class="cls-2"/><path d="M554.672 209.302l-3.264-4.896 16.344-10.896v-16.08h5.885v14.712h11.77v5.885h-13.822l-16.913 11.275z"/><g clip-path="url(#clip-path)"><path d="M14.58 27.367h559.057v559.057H14.58z"/><path d="M579.522 418.708V199.906h39.092a391.53 391.53 0 0 0-649.011 0H8.695V592.31h570.827z"/><path fill="#000101" d="M579.522 418.708V200.053h38.872a391.265 391.265 0 0 0-648.572 0H8.695V592.31h570.827z"/><path fill="#000102" d="M579.522 418.708V200.2h38.653a391 391 0 0 0-648.133 0H8.695v392.11h570.827z"/><path fill="#000203" d="M579.522 418.708V200.349h38.434a390.735 390.735 0 0 0-647.695 0H8.695v391.96h570.827z"/><path fill="#000204" d="M579.522 418.708V200.497h38.215a390.47 390.47 0 0 0-647.257 0H8.695V592.31h570.827z"/><path fill="#000305" d="M579.522 418.708V200.645h37.995a390.206 390.206 0 0 0-646.818 0H8.695V592.31h570.827z"/><path fill="#000306" d="M579.522 418.708V200.793h37.776a389.942 389.942 0 0 0-646.38 0H8.696V592.31h570.827z"/><path fill="#000407" d="M579.522 418.708V200.94h37.557a389.677 389.677 0 0 0-645.941 0H8.695v391.37h570.827z"/><path fill="#000408" d="M579.522 418.708v-217.62h37.338a389.413 389.413 0 0 0-645.503 0H8.695V592.31h570.827z"/><path fill="#000509" d="M579.522 418.708V201.236h37.118a389.148 389.148 0 0 0-645.064 0H8.695V592.31h570.827z"/><path fill="#00050a" d="M579.522 418.708V201.384h36.9a388.884 388.884 0 0 0-644.626 0H8.695V592.31h570.827z"/><path fill="#00060b" d="M579.522 418.708V201.532h36.68a388.62 388.62 0 0 0-644.187 0h36.68V592.31h570.827z"/><path fill="#00060c" d="M579.522 418.708V201.68h36.46a388.355 388.355 0 0 0-643.748 0h36.46v390.63h570.828z"/><path fill="#00070d" d="M579.522 418.708v-216.88h36.241a388.09 388.09 0 0 0-643.31 0H8.695V592.31h570.827z"/><path fill="#00070e" d="M579.522 418.708V201.975h36.022a387.825 387.825 0 0 0-642.871 0H8.695V592.31h570.827z"/><path fill="#00080f" d="M579.522 418.708V202.123h35.803a387.56 387.56 0 0 0-642.433 0H8.695V592.31h570.827z"/><path fill="#000810" d="M579.522 418.708V202.27h35.584a387.296 387.296 0 0 0-641.995 0H8.695v390.04h570.827z"/><path fill="#000911" d="M579.522 418.708v-216.29h35.364a387.032 387.032 0 0 0-641.556 0H8.695V592.31h570.827z"/><path fill="#000912" d="M579.522 418.708V202.567h35.145a386.767 386.767 0 0 0-641.117 0H8.695V592.31h570.827z"/><path fill="#000a13" d="M579.522 418.708V202.715h34.926a386.503 386.503 0 0 0-640.679 0H8.695V592.31h570.827z"/><path fill="#000a14" d="M579.522 418.708V202.862h34.707a386.238 386.238 0 0 0-640.24 0H8.694V592.31h570.827z"/><path fill="#000b15" d="M579.522 418.708V203.01h34.487a385.974 385.974 0 0 0-639.802 0H8.695v389.3h570.827z"/><path fill="#000b16" d="M579.522 418.708v-215.55h34.268a385.71 385.71 0 0 0-639.363 0H8.695V592.31h570.827z"/><path fill="#000c17" d="M579.522 418.708V203.306h34.049a385.445 385.445 0 0 0-638.925 0H8.695V592.31h570.827z"/><path fill="#000c18" d="M579.522 418.708V203.454h33.83a385.18 385.18 0 0 0-638.487 0h33.83V592.31h570.827z"/><path fill="#000d19" d="M579.522 418.708V203.602h33.61a384.915 384.915 0 0 0-638.047 0h33.61V592.31h570.827z"/><path fill="#000e1a" d="M579.522 418.708V203.749h33.391a384.65 384.65 0 0 0-637.61 0H8.696v388.56h570.827z"/><path fill="#000e1b" d="M579.522 418.708v-214.81h33.172a384.386 384.386 0 0 0-637.17 0h33.17V592.31h570.828z"/><path fill="#000f1c" d="M579.522 418.708V204.045h32.952a384.122 384.122 0 0 0-636.732 0H8.695V592.31h570.827z"/><path fill="#000f1d" d="M579.522 418.708V204.193h32.733a383.857 383.857 0 0 0-636.293 0H8.695V592.31h570.827z"/><path fill="#00101e" d="M579.522 418.708V204.34h32.514a383.593 383.593 0 0 0-635.855 0H8.695v387.97h570.827z"/><path fill="#00101f" d="M579.522 418.708v-214.22h32.295a383.328 383.328 0 0 0-635.417 0H8.695V592.31h570.827z"/><path fill="#001120" d="M579.522 418.708V204.636h32.075a383.064 383.064 0 0 0-634.978 0H8.695V592.31h570.827z"/><path fill="#001121" d="M579.522 418.708V204.784h31.856a382.8 382.8 0 0 0-634.54 0H8.696V592.31h570.827z"/><path fill="#001222" d="M579.522 418.708V204.932h31.637a382.535 382.535 0 0 0-634.101 0H8.695V592.31h570.827z"/><path fill="#001223" d="M579.522 418.708V205.08h31.418a382.27 382.27 0 0 0-633.663 0H8.695v387.23h570.827z"/><path fill="#001324" d="M579.522 418.708v-213.48h31.198a382.005 382.005 0 0 0-633.224 0H8.695V592.31h570.827z"/><path fill="#001326" d="M579.522 418.708V205.376h30.98a381.74 381.74 0 0 0-632.786 0H8.695V592.31h570.827z"/><path fill="#001427" d="M579.522 418.708V205.524h30.76a381.476 381.476 0 0 0-632.347 0h30.76V592.31h570.827z"/><path fill="#001428" d="M579.522 418.708V205.67h30.54a381.212 381.212 0 0 0-631.908 0h30.54v386.64h570.828z"/><path fill="#001529" d="M579.522 418.708V205.819h30.321a380.947 380.947 0 0 0-631.47 0H8.695v386.49h570.827z"/><path fill="#00152a" d="M579.522 418.708V205.967h30.102a380.683 380.683 0 0 0-631.031 0H8.695V592.31h570.827z"/><path fill="#00162b" d="M579.522 418.708V206.115h29.883a380.418 380.418 0 0 0-630.593 0H8.695V592.31h570.827z"/><path fill="#00162c" d="M579.522 418.708V206.263h29.664a380.154 380.154 0 0 0-630.155 0H8.695V592.31h570.827z"/><path fill="#00172d" d="M579.522 418.708V206.41h29.444a379.89 379.89 0 0 0-629.716 0H8.695v385.9h570.827z"/><path fill="#00172e" d="M579.522 418.708v-212.15h29.225a379.625 379.625 0 0 0-629.277 0H8.695V592.31h570.827z"/><path fill="#00182f" d="M579.522 418.708V206.706h29.006a379.36 379.36 0 0 0-628.839 0H8.695V592.31h570.827z"/><path fill="#001830" d="M579.522 418.708V206.854h28.787a379.095 379.095 0 0 0-628.4 0H8.694V592.31h570.827z"/><path fill="#001931" d="M579.522 418.708V207.002h28.567a378.83 378.83 0 0 0-627.961 0H8.695V592.31h570.827z"/><path fill="#001a32" d="M579.522 418.708V207.15h28.348a378.566 378.566 0 0 0-627.523 0H8.695v385.16h570.827z"/><path fill="#001a33" d="M579.522 418.708v-211.41h28.129a378.302 378.302 0 0 0-627.085 0H8.695V592.31h570.827z"/><path fill="#001b34" d="M579.522 418.708V207.445h27.91a378.037 378.037 0 0 0-626.647 0h27.91V592.31h570.827z"/><path fill="#001b35" d="M579.522 418.708V207.593h27.69a377.773 377.773 0 0 0-626.207 0h27.69V592.31h570.827z"/><path fill="#001c36" d="M579.522 418.708V207.74h27.471a377.508 377.508 0 0 0-625.77 0H8.696v384.57h570.827z"/><path fill="#001c37" d="M579.522 418.708v-210.82h27.252a377.244 377.244 0 0 0-625.33 0h27.25V592.31h570.828z"/><path fill="#001d38" d="M579.522 418.708V208.037h27.032a376.98 376.98 0 0 0-624.892 0H8.695V592.31h570.827z"/><path fill="#001d39" d="M579.522 418.708V208.185h26.813a376.714 376.714 0 0 0-624.453 0H8.695V592.31h570.827z"/><path fill="#001e3a" d="M579.522 418.708V208.332h26.594a376.45 376.45 0 0 0-624.015 0H8.695V592.31h570.827z"/><path fill="#001e3b" d="M579.522 418.708V208.48h26.375a376.185 376.185 0 0 0-623.577 0H8.695v383.83h570.827z"/><path fill="#001f3c" d="M579.522 418.708v-210.08h26.155a375.92 375.92 0 0 0-623.138 0H8.695V592.31h570.827z"/><path fill="#001f3d" d="M579.522 418.708V208.776h25.936a375.656 375.656 0 0 0-622.7 0H8.696V592.31h570.827z"/><path fill="#00203e" d="M579.522 418.708V208.924h25.717a375.392 375.392 0 0 0-622.261 0H8.695V592.31h570.827z"/><path fill="#00203f" d="M579.522 418.708V209.072h25.498a375.127 375.127 0 0 0-621.823 0H8.695V592.31h570.827z"/><path fill="#002140" d="M579.522 418.708V209.219H604.8a374.863 374.863 0 0 0-621.384 0H8.695v383.09h570.827z"/><path fill="#002141" d="M579.522 418.708v-209.34h25.06a374.598 374.598 0 0 0-620.946 0H8.695V592.31h570.827z"/><path fill="#002242" d="M579.522 418.708V209.515h24.84a374.334 374.334 0 0 0-620.507 0h24.84V592.31h570.827z"/><path fill="#002243" d="M579.522 418.708V209.663h24.62a374.069 374.069 0 0 0-620.068 0h24.62V592.31h570.828z"/><path fill="#002344" d="M579.522 418.708V209.81h24.401a373.804 373.804 0 0 0-619.63 0H8.695v382.5h570.827z"/><path fill="#002345" d="M579.522 418.708v-208.75h24.182a373.54 373.54 0 0 0-619.191 0H8.695V592.31h570.827z"/><path fill="#002446" d="M579.522 418.708V210.107h23.963a373.275 373.275 0 0 0-618.753 0H8.695V592.31h570.827z"/><path fill="#002447" d="M579.522 418.708V210.254h23.744a373.01 373.01 0 0 0-618.315 0H8.695V592.31h570.827z"/><path fill="#002548" d="M579.522 418.708V210.402h23.524a372.746 372.746 0 0 0-617.875 0H8.695V592.31h570.827z"/><path fill="#002549" d="M579.522 418.708V210.55h23.305a372.482 372.482 0 0 0-617.437 0H8.695v381.76h570.827z"/><path d="M579.522 418.708v-208.01h23.086a372.217 372.217 0 0 0-616.999 0H8.695V592.31h570.827z" class="cls-77"/><path d="M579.522 418.708V210.846h22.866a371.953 371.953 0 0 0-616.56 0H8.695V592.31h570.827z" class="cls-77"/><path fill="#00274b" d="M579.522 418.708V211.99h21.168a369.904 369.904 0 0 0-613.164 0H8.695v380.32h570.827z"/><path fill="#00274c" d="M579.522 418.708V213.136h19.47a367.855 367.855 0 0 0-609.768 0h19.47V592.31h570.828z"/><path fill="#00284d" d="M579.522 418.708V214.28h17.773a365.807 365.807 0 0 0-606.373 0H8.695v378.03h570.827z"/><path fill="#00284e" d="M579.522 418.708V215.425h16.075a363.758 363.758 0 0 0-602.977 0H8.695V592.31h570.827z"/><path fill="#00294f" d="M579.522 418.708V216.57h14.377a361.71 361.71 0 0 0-599.58 0H8.694v375.74h570.827z"/><path fill="#002950" d="M579.522 418.708V217.715H592.2a359.66 359.66 0 0 0-596.185 0h12.68V592.31h570.827z"/><path fill="#002a51" d="M579.522 418.708V218.86h10.98a357.612 357.612 0 0 0-592.788 0h10.98v373.45h570.828z"/><path fill="#002a52" d="M579.522 418.708V220.005h9.283a355.563 355.563 0 0 0-589.393 0h9.283V592.31h570.827z"/><path fill="#002b53" d="M579.522 418.708V281.17h40.163a353.547 353.547 0 0 0-651.153 0H8.695v311.14h570.827z"/><path fill="#002b54" d="M579.522 418.708v-136.74h38.276a351.498 351.498 0 0 0-647.379 0H8.695V592.31h570.827z"/><path fill="#002c55" d="M579.522 418.708V282.764h36.389a349.45 349.45 0 0 0-643.605 0H8.695V592.31h570.827z"/><path fill="#002c56" d="M579.522 418.708V283.56h34.502a347.4 347.4 0 0 0-639.831 0H8.695v308.75h570.827z"/><path fill="#002d57" d="M579.522 418.708v-134.35h32.615a345.352 345.352 0 0 0-636.058 0H8.695V592.31h570.827z"/><path fill="#002d58" d="M579.522 418.708V285.156h30.729a343.303 343.303 0 0 0-632.285 0H8.695V552.26h-30.729A342.336 342.336 0 0 0 9.6 610.54v-18.23h569.017v18.231a342.337 342.337 0 0 0 31.634-58.281h-30.73z"/><path fill="#002e59" d="M579.522 418.708V285.953h28.842a341.254 341.254 0 0 0-628.511 0H8.695v265.51h-28.842a340.293 340.293 0 0 0 31.445 57.933V592.31h565.62v17.086a340.293 340.293 0 0 0 31.446-57.933h-28.842z"/><path fill="#002e5a" d="M579.522 418.708V286.75h26.955a339.205 339.205 0 0 0-624.737 0H8.695v263.915H-18.26a338.25 338.25 0 0 0 31.256 57.586V592.31h562.225v15.941a338.25 338.25 0 0 0 31.256-57.586h-26.955z"/><path fill="#002f5b" d="M579.522 418.708V287.547h25.068a337.156 337.156 0 0 0-620.964 0H8.695v262.321h-25.069a336.206 336.206 0 0 0 31.068 57.238V592.31h558.829v14.796a336.207 336.207 0 0 0 31.067-57.238h-25.068z"/><path fill="#00305c" d="M579.522 418.708V288.344h23.181a335.107 335.107 0 0 0-617.19 0H8.695V549.07h-23.182a334.164 334.164 0 0 0 30.88 56.89v-13.65h555.432v13.651a334.164 334.164 0 0 0 30.878-56.89h-23.181z"/><path fill="#00305d" d="M579.522 418.708V289.14h21.295a333.058 333.058 0 0 0-613.417 0H8.695v259.133H-12.6a332.122 332.122 0 0 0 30.69 56.543V592.31h552.037v12.507a332.12 332.12 0 0 0 30.69-56.543h-21.295z"/><path fill="#00315e" d="M579.522 418.708v-128.77h19.408a331.01 331.01 0 0 0-609.643 0H8.695v257.54h-19.408a330.078 330.078 0 0 0 30.501 56.194V592.31h548.64v11.362a330.077 330.077 0 0 0 30.502-56.195h-19.408z"/><path fill="#00315f" d="M579.522 418.708V290.735h17.521a328.96 328.96 0 0 0-605.87 0H8.696V546.68H-8.826a328.035 328.035 0 0 0 30.312 55.847V592.31h545.245v10.217a328.033 328.033 0 0 0 30.312-55.847h-17.521z"/><path fill="#003260" d="M579.522 418.708V291.532h15.634a326.912 326.912 0 0 0-602.096 0H8.695v254.351H-6.94a325.992 325.992 0 0 0 30.124 55.499v-9.072h541.849v9.072a325.992 325.992 0 0 0 30.123-55.499h-15.634z"/><path fill="#003261" d="M618.784 418.708c0-179.314-145.362-324.676-324.676-324.676S-30.567 239.394-30.567 418.708H8.695v126.378H-5.053a323.948 323.948 0 0 0 29.935 55.15v-7.926h538.453v7.927a323.949 323.949 0 0 0 29.935-55.15h-13.748v-126.38z"/><path fill="#003362" d="M616.736 418.708c0-178.183-144.445-322.628-322.628-322.628S-28.52 240.525-28.52 418.708H8.695v125.581H-3.166a321.905 321.905 0 0 0 29.746 54.803v-6.782h535.057v6.782a321.906 321.906 0 0 0 29.746-54.803h-11.861V418.708z"/><path fill="#003363" d="M614.689 418.708c0-177.052-143.529-320.58-320.58-320.58S-26.473 241.655-26.473 418.707H8.695v124.784H-1.28a319.862 319.862 0 0 0 29.557 54.455v-5.637h531.66v5.637a319.862 319.862 0 0 0 29.558-54.455h-9.974V418.708z"/><path fill="#003464" d="M612.641 418.708c0-175.921-142.612-318.533-318.533-318.533S-24.424 242.787-24.424 418.708H8.695v123.987H.608a317.818 317.818 0 0 0 29.368 54.107v-4.492h528.265v4.492a317.82 317.82 0 0 0 29.368-54.107h-8.087V418.708z"/><path fill="#003465" d="M610.593 418.708c0-174.79-141.695-316.485-316.485-316.485S-22.377 243.918-22.377 418.708H8.695v123.19h-6.2a315.776 315.776 0 0 0 29.18 53.76v-3.348h524.868v3.347a315.776 315.776 0 0 0 29.18-53.76h-6.201v-123.19z"/><path fill="#003566" d="M608.546 418.708c0-173.66-140.779-314.438-314.438-314.438S-20.329 245.05-20.329 418.708H8.695V541.1H4.38a313.732 313.732 0 0 0 28.991 53.411v-2.202h521.473v2.202a313.733 313.733 0 0 0 28.99-53.411h-4.313V418.708z"/><path fill="#003567" d="M606.498 418.708c0-172.528-139.862-312.39-312.39-312.39s-312.39 139.862-312.39 312.39H8.696v121.596H6.268a311.689 311.689 0 0 0 28.802 53.064v-1.058h518.077v1.058a311.69 311.69 0 0 0 28.802-53.064h-2.427V418.708z"/><path fill="#003668" d="M604.45 418.708c0-171.397-138.945-310.342-310.342-310.342S-16.233 247.31-16.233 418.708H8.695v120.799h-.54a309.647 309.647 0 0 0 28.613 52.716q8.366 12.382 17.866 23.89V592.31h478.95v23.804q9.486-11.496 17.865-23.891a309.646 309.646 0 0 0 28.613-52.716h-.54v-120.8z"/><path fill="#003669" d="M602.402 418.708c0-170.267-138.028-308.294-308.294-308.294S-14.186 248.442-14.186 418.708a306.854 306.854 0 0 0 52.652 172.37q8.31 12.3 17.748 23.733V592.31h475.79v22.501q9.423-11.42 17.747-23.733a306.854 306.854 0 0 0 52.651-172.37z"/><path fill="#00376a" d="M600.355 418.708c0-169.136-137.111-306.247-306.247-306.247S-12.138 249.572-12.138 418.708a304.816 304.816 0 0 0 52.302 171.225q8.255 12.22 17.63 23.576v-21.2h472.629v21.2q9.362-11.344 17.63-23.576a304.816 304.816 0 0 0 52.302-171.225z"/><path fill="#00376b" d="M598.307 418.708c0-168.005-136.194-304.2-304.199-304.2S-10.09 250.704-10.09 418.709a302.778 302.778 0 0 0 51.952 170.08q8.2 12.138 17.512 23.418V592.31h469.469v19.896q9.299-11.268 17.512-23.418a302.778 302.778 0 0 0 51.952-170.08z"/><path fill="#00386c" d="M596.26 418.708c0-166.874-135.278-302.151-302.152-302.151S-8.042 251.834-8.042 418.707a301.205 301.205 0 0 0 88.497 213.654V592.31h427.306v40.05a301.205 301.205 0 0 0 88.498-213.652z"/><path fill="#00396d" d="M594.212 418.708c0-165.743-134.361-300.104-300.104-300.104S-5.995 252.965-5.995 418.708a299.164 299.164 0 0 0 87.898 212.205V592.31h424.41v38.603a299.164 299.164 0 0 0 87.899-212.205z"/><path fill="#00396e" d="M592.164 418.708c0-164.612-133.444-298.056-298.056-298.056S-3.947 254.096-3.947 418.708A297.123 297.123 0 0 0 83.35 629.465V592.31h421.514v37.155a297.123 297.123 0 0 0 87.299-210.757z"/><path fill="#003a6f" d="M590.116 418.708c0-163.481-132.527-296.008-296.008-296.008S-1.899 255.227-1.899 418.708a295.081 295.081 0 0 0 86.698 209.309V592.31h418.619v35.707a295.081 295.081 0 0 0 86.698-209.31z"/><path fill="#003a70" d="M588.069 418.708c0-162.35-131.61-293.96-293.96-293.96S.148 256.357.148 418.707a293.04 293.04 0 0 0 86.098 207.86V592.31H501.97v34.259a293.04 293.04 0 0 0 86.099-207.861z"/><path fill="#003b71" d="M586.02 418.708c0-161.22-130.693-291.913-291.912-291.913S2.196 257.49 2.196 418.708a290.999 290.999 0 0 0 85.5 206.413V592.31h412.826v32.81a290.999 290.999 0 0 0 85.499-206.412z"/><path fill="#003b72" d="M583.973 418.708c0-160.088-129.777-289.865-289.865-289.865S4.244 258.62 4.244 418.708a288.957 288.957 0 0 0 84.9 204.965V592.31h409.93v31.363a288.957 288.957 0 0 0 84.9-204.965z"/><path fill="#003c73" d="M581.925 418.708c0-158.957-128.86-287.817-287.817-287.817S6.291 259.75 6.291 418.708a286.916 286.916 0 0 0 84.3 203.517V592.31h407.035v29.915a286.916 286.916 0 0 0 84.3-203.517z"/><path fill="#003c74" d="M579.878 418.708c0-157.826-127.944-285.77-285.77-285.77S8.34 260.882 8.34 418.708a284.875 284.875 0 0 0 83.7 202.069V592.31h404.139v28.467a284.875 284.875 0 0 0 83.7-202.07z"/><path fill="#003d76" d="M577.83 418.708c0-156.695-127.026-283.722-283.722-283.722S10.387 262.013 10.387 418.708a282.834 282.834 0 0 0 83.1 200.621v-27.02H494.73v27.02a282.834 282.834 0 0 0 83.1-200.621z"/><path fill="#003d77" d="M575.782 418.708c0-155.565-126.11-281.674-281.674-281.674S12.435 263.144 12.435 418.708a280.792 280.792 0 0 0 82.5 199.173V592.31h398.347v25.571a280.792 280.792 0 0 0 82.5-199.173z"/><path fill="#003e78" d="M573.735 418.708c0-154.434-125.193-279.627-279.627-279.627S14.482 264.274 14.482 418.708a278.751 278.751 0 0 0 81.9 197.725V592.31h395.452v24.123a278.751 278.751 0 0 0 81.9-197.725z"/><path fill="#003e79" d="M571.687 418.708c0-153.303-124.276-277.579-277.579-277.579S16.53 265.405 16.53 418.708a276.71 276.71 0 0 0 81.3 196.277V592.31h392.556v22.675a276.71 276.71 0 0 0 81.3-196.277z"/><path fill="#003f7a" d="M569.64 418.708c0-152.172-123.36-275.531-275.532-275.531s-275.53 123.36-275.53 275.53a274.668 274.668 0 0 0 80.7 194.83V592.31h389.66v21.227a274.668 274.668 0 0 0 80.701-194.83z"/><path fill="#003f7b" d="M567.591 418.708c0-151.04-122.442-273.483-273.483-273.483S20.625 267.667 20.625 418.708a272.627 272.627 0 0 0 80.102 193.381v-19.78H487.49v19.78a272.627 272.627 0 0 0 80.101-193.381z"/><path fill="#00407c" d="M565.544 418.708c0-149.91-121.526-271.436-271.436-271.436S22.673 268.798 22.673 418.708a270.586 270.586 0 0 0 79.502 191.933V592.31h383.867v18.331a270.586 270.586 0 0 0 79.502-191.933z"/><path fill="#00407d" d="M563.496 418.708c0-148.78-120.609-269.388-269.388-269.388S24.721 269.929 24.721 418.708a268.545 268.545 0 0 0 78.902 190.485V592.31h380.971v16.883a268.545 268.545 0 0 0 78.902-190.485z"/><path fill="#00417e" d="M561.448 418.708c0-147.648-119.692-267.34-267.34-267.34S26.768 271.06 26.768 418.708a266.503 266.503 0 0 0 78.302 189.037V592.31h378.076v15.435a266.503 266.503 0 0 0 78.302-189.037z"/><path fill="#00427f" d="M559.4 418.708c0-146.517-118.775-265.293-265.292-265.293S28.816 272.191 28.816 418.708a264.462 264.462 0 0 0 77.702 187.59V592.31h375.18v13.988a264.462 264.462 0 0 0 77.703-187.59z"/><path fill="#004280" d="M557.353 418.708c0-145.386-117.859-263.245-263.245-263.245S30.864 273.322 30.864 418.708a262.42 262.42 0 0 0 77.102 186.142v-12.54H480.25v12.54a262.42 262.42 0 0 0 77.103-186.142z"/><path fill="#004381" d="M555.305 418.708c0-144.255-116.942-261.197-261.197-261.197S32.912 274.453 32.912 418.708a260.38 260.38 0 0 0 76.502 184.694V592.31h369.388v11.092a260.38 260.38 0 0 0 76.503-184.694z"/><path fill="#004382" d="M553.257 418.708c0-143.124-116.025-259.15-259.149-259.15S34.96 275.585 34.96 418.709a258.338 258.338 0 0 0 75.903 183.246v-9.644h366.492v9.644a258.338 258.338 0 0 0 75.903-183.246z"/><path fill="#004483" d="M551.21 418.708c0-141.994-115.108-257.102-257.102-257.102S37.007 276.714 37.007 418.708a256.297 256.297 0 0 0 75.303 181.798v-8.196h363.596v8.196a256.297 256.297 0 0 0 75.304-181.798z"/><path fill="#004484" d="M549.162 418.708c0-140.863-114.191-255.054-255.054-255.054S39.055 277.845 39.055 418.708a254.255 254.255 0 0 0 74.703 180.35v-6.748h360.7v6.748a254.255 254.255 0 0 0 74.704-180.35z"/><path fill="#004585" d="M547.114 418.708c0-139.732-113.274-253.006-253.006-253.006S41.102 278.976 41.102 418.708a252.214 252.214 0 0 0 74.104 178.902v-5.3h357.805v5.3a252.214 252.214 0 0 0 74.103-178.902z"/><path fill="#004586" d="M545.067 418.708c0-138.6-112.358-250.959-250.959-250.959S43.15 280.107 43.15 418.708a250.173 250.173 0 0 0 73.504 177.454v-3.852h354.909v3.852a250.173 250.173 0 0 0 73.504-177.454z"/><path fill="#004687" d="M543.019 418.708c0-137.47-111.441-248.91-248.91-248.91S45.197 281.237 45.197 418.707a248.132 248.132 0 0 0 72.904 176.006v-2.404h352.013v2.404a248.131 248.131 0 0 0 72.904-176.006z"/><path fill="#004688" d="M540.971 418.708c0-136.339-110.524-246.863-246.863-246.863S47.246 282.369 47.246 418.708a246.09 246.09 0 0 0 72.304 174.558v-.956h349.117v.956a246.09 246.09 0 0 0 72.304-174.558z"/><path fill="#004789" d="M538.923 418.708c0-135.208-109.607-244.815-244.815-244.815S49.293 283.5 49.293 418.708A245.07 245.07 0 0 0 157.23 621.712V592.31h273.757v29.402a245.07 245.07 0 0 0 107.936-203.004z"/><path fill="#00478a" d="M536.876 418.708c0-134.077-108.69-242.768-242.768-242.768S51.341 284.63 51.341 418.708a243.02 243.02 0 0 0 107.034 201.306V592.31h271.467v27.704a243.02 243.02 0 0 0 107.034-201.306z"/><path fill="#00488b" d="M534.828 418.708c0-132.946-107.774-240.72-240.72-240.72s-240.72 107.774-240.72 240.72A240.97 240.97 0 0 0 159.52 618.316V592.31h269.177v26.006a240.97 240.97 0 0 0 106.131-199.608z"/><path fill="#00488c" d="M532.78 418.708c0-131.815-106.857-238.672-238.672-238.672S55.436 286.893 55.436 418.708a238.92 238.92 0 0 0 105.229 197.91V592.31h266.887v24.308a238.92 238.92 0 0 0 105.228-197.91z"/><path fill="#00498d" d="M530.733 418.708c0-130.684-105.94-236.625-236.625-236.625S57.484 288.023 57.484 418.708A236.87 236.87 0 0 0 161.81 614.92v-22.61h264.597v22.61a236.87 236.87 0 0 0 104.326-196.212z"/><path fill="#00498e" d="M528.685 418.708c0-129.553-105.024-234.577-234.577-234.577S59.532 289.155 59.532 418.708a234.82 234.82 0 0 0 103.422 194.514V592.31h262.308v20.912a234.82 234.82 0 0 0 103.423-194.514z"/><path fill="#004a8f" d="M526.637 418.708c0-128.423-104.106-232.53-232.529-232.53S61.58 290.286 61.58 418.709a232.791 232.791 0 0 0 142.018 214.255V592.31h181.021v40.653a232.791 232.791 0 0 0 142.018-214.255z"/><path fill="#004b90" d="M524.59 418.708c0-127.292-103.19-230.482-230.482-230.482s-230.48 103.19-230.48 230.482a230.741 230.741 0 0 0 140.767 212.368V592.31h179.427v38.766A230.741 230.741 0 0 0 524.59 418.708z"/><path fill="#004b91" d="M522.542 418.708c0-126.16-102.273-228.434-228.434-228.434S65.675 292.547 65.675 418.708A228.691 228.691 0 0 0 205.192 629.19v-36.88h177.833v36.88a228.691 228.691 0 0 0 139.517-210.482z"/><path fill="#004c92" d="M520.494 418.708c0-125.03-101.356-226.386-226.386-226.386S67.723 293.678 67.723 418.708a226.641 226.641 0 0 0 138.266 208.595V592.31h176.239v34.993a226.641 226.641 0 0 0 138.266-208.595z"/><path fill="#004c93" d="M518.446 418.708c0-123.899-100.44-224.338-224.338-224.338S69.77 294.81 69.77 418.708a224.591 224.591 0 0 0 137.016 206.708V592.31H381.43v33.106a224.591 224.591 0 0 0 137.015-206.708z"/><path fill="#004d94" d="M516.399 418.708c0-122.768-99.523-222.29-222.29-222.29s-222.29 99.522-222.29 222.29a222.541 222.541 0 0 0 135.764 204.821v-31.22h173.05v31.22A222.541 222.541 0 0 0 516.4 418.708z"/><path fill="#004d95" d="M514.351 418.708c0-121.637-98.606-220.243-220.243-220.243S73.866 297.071 73.866 418.708A220.491 220.491 0 0 0 208.38 621.642V592.31h171.457v29.332A220.491 220.491 0 0 0 514.35 418.708z"/><path fill="#004e96" d="M512.303 418.708c0-120.506-97.689-218.195-218.195-218.195S75.914 298.202 75.914 418.708a218.441 218.441 0 0 0 133.263 201.048V592.31H379.04v27.446a218.441 218.441 0 0 0 133.263-201.048z"/><path fill="#004e97" d="M510.256 418.708c0-119.375-96.773-216.148-216.148-216.148S77.961 299.333 77.961 418.708a216.391 216.391 0 0 0 132.013 199.16V592.31h168.269v25.559a216.391 216.391 0 0 0 132.013-199.161z"/><circle cx="294.108" cy="418.708" r="214.099" fill="#004f98"/><circle cx="294.108" cy="418.708" r="212.052" fill="#004f99"/><circle cx="294.108" cy="418.708" r="210.004" fill="#00509a"/><circle cx="294.108" cy="418.708" r="207.956" fill="#00509b"/><circle cx="294.108" cy="418.708" r="205.909" fill="#00519c"/><circle cx="294.108" cy="418.708" r="203.861" fill="#00519d"/><circle cx="294.108" cy="418.708" r="201.813" fill="#00529e"/><circle cx="294.108" cy="418.708" r="199.765" fill="#00529f"/><circle cx="294.108" cy="418.708" r="197.718" class="cls-162"/><circle cx="294.108" cy="418.708" r="195.67" class="cls-162"/><circle cx="294.108" cy="418.708" r="97.835" class="cls-162"/></g><path d="M294.108 589.367c-155.755 0-282.47-126.713-282.47-282.47 0-155.756 126.715-282.472 282.47-282.472 155.758 0 282.471 126.716 282.471 282.471 0 155.758-126.713 282.471-282.47 282.471zm0-559.057c-152.51 0-276.586 124.075-276.586 276.586s124.075 276.586 276.586 276.586 276.587-124.075 276.587-276.586S446.619 30.31 294.108 30.31z"/><path d="M327.578 501.377a147.893 147.893 0 0 1-32.053-3.713l-1.19-.304c-45.613-13.034-74.976-38.16-98.567-58.349-22.057-18.878-35.209-29.493-50.507-28.113-20.373 1.833-49.423 24.269-88.807 68.571l-30.786-27.366c100.243-112.777 141.253-91.996 196.883-44.39 21.505 18.402 45.863 39.252 82.505 49.867 34.562 7.516 60.532-1.391 71.32-24.46 10.798-23.107 3.93-60.192-30.092-86.358l-.844-.69c-20.011-17.148-44.28-22.981-69.975-29.16-20.588-4.947-41.874-10.062-61.704-21.28-33.7-17.103-52.532-51.733-49.185-90.522 3.391-39.314 28.631-71.684 64.348-82.591 95.126-32.625 129.256 20.393 154.186 59.118 27.568 42.823 44.194 68.675 130.23 19.137l20.552 35.7c-119.995 69.095-157.816 10.353-185.424-32.542-24.177-37.565-41.659-64.698-106.493-42.34l-.795.258c-23.887 7.164-34.085 29.689-35.562 46.8-1.911 22.126 8.215 40.964 27.085 50.4l1.006.538c14.87 8.496 32.607 12.76 51.385 17.275 27.801 6.68 59.294 14.252 86.735 37.579 45.613 35.355 62.831 91.255 41.86 136.12-12.326 26.379-40.78 50.815-86.11 50.815z" class="cls-163"/><path d="M470.653 200.97l29.424 64.732 52.963-47.078-5.885-17.654z" class="cls-163"/><path d="M500.077 270.116a4.485 4.485 0 0 1-.914-.095 4.41 4.41 0 0 1-3.103-2.491l-29.424-64.733a4.41 4.41 0 0 1 4.017-6.241h76.502a4.417 4.417 0 0 1 4.19 3.017l5.885 17.654a4.414 4.414 0 0 1-1.259 4.696L503.008 269a4.419 4.419 0 0 1-2.931 1.115zm-22.568-64.733l24.108 53.044 46.314-41.168-3.96-11.876z" class="cls-163"/></svg>