<svg xmlns="http://www.w3.org/2000/svg" role="img" viewBox="11.52 -2.98 345.96 570.96"><title>seaborn logo</title><path fill="#fff" d="M95.335 30.556h177.513v286.31H95.335z"/><path fill="#57068c" d="M346.77 332.614H22.586V8.411H346.77v324.203zm-173.314-37.876c.387 2.251 5.288 3.377 6.414 0l11.327-89.836h-27.556l9.815 89.836zm27.345-96.326v-13.614h-46.788v13.614zm-13.474-20.245c59.3 2.134 63.522-51.924 63.768-72.164 0-1.166-.563-1.266-.878-.458-1.725 4.222-9.453 19.308-30.853 28.455-19.09 8.213-30.593 26.812-32.576 43.522a.53.53 0 0 0 .54.645zm-6.519-3.917c9.393-45.029 46.026-46.125 49.297-54.667 5.125-13.304-4.233-36.945-6.625-39.76-.234-.28-.551-.104-.669.148-5.018 10.935-13.051 21.295-18.95 26.062-8.278 6.69-40.103 30.288-23.827 68.247a.395.395 0 0 0 .774-.03zm-6.473 1.794c-19.877-42.432 19.852-69.836 26.35-75.78.913-.839.667-1.62.68-2.563 0-13.338-7.634-34.99-10.133-38.07-.363-.486-.668-.274-.808.194-3.413 13.21-21.495 32.81-25.118 37.131-30.688 36.446-23.653 58.65 8.361 79.61.399.247.914-.03.668-.522zm-8.888 1.472c-33.245-19.841-29.914-48.142-16.147-68.95a3.155 3.155 0 0 0 .304-2.006c-.562-4.96-5.968-17.478-8.22-20.86-.598-.898-1.09-.827-1.126-.206-.175 5.664-6.648 19.852-16.498 36.164-10.483 17.443-10.52 55.16 41.546 56.632.48.036.621-.457.14-.774zM22.585 364.673h22.268l51.456 67.59v-67.59h23.827v109.782H99.592L46.425 404.66v69.795h-23.84zm151.833 66.488l-42.18-66.488h28.214l26.208 44.067 26.653-44.067h27.451l-42.19 66.02v43.762h-24.156zm76.712-3.764v-62.724h24.145v62.091c0 17.906 8.935 27.147 23.699 27.147 14.729 0 23.663-8.948 23.663-26.372v-62.866h24.156v61.939c0 33.255-18.668 49.578-48.147 49.578-29.492 0-47.516-16.463-47.516-48.793z"/><path fill="#231f20" d="M62.621 544.003a6.444 6.444 0 0 0 1.33 3.667q1.807 1.934 6.686 1.935a10.237 10.237 0 0 0 4.553-.849 2.718 2.718 0 0 0 1.688-2.546 2.747 2.747 0 0 0-1.36-2.478q-1.36-.848-10.12-2.92-6.308-1.56-8.887-3.903a8.463 8.463 0 0 1-2.58-6.653 11.53 11.53 0 0 1 4.031-8.81q4.032-3.682 11.345-3.682 6.94 0 11.311 2.767 4.371 2.767 5.018 9.555h-9.674a5.725 5.725 0 0 0-1.055-2.953q-1.6-1.969-5.447-1.969a7.842 7.842 0 0 0-4.51.985 2.832 2.832 0 0 0-1.345 2.307 2.524 2.524 0 0 0 1.43 2.41q1.43.783 10.101 2.682 5.781 1.358 8.667 4.108a9.328 9.328 0 0 1 2.852 6.959 11.235 11.235 0 0 1-4.1 8.978q-4.098 3.48-12.669 3.48-8.742 0-12.909-3.683a11.971 11.971 0 0 1-4.166-9.387zm55.273-24.437a15.048 15.048 0 0 1 6.394 5.473 18.187 18.187 0 0 1 2.948 7.65 47.232 47.232 0 0 1 .319 7.344h-26.949q.225 5.566 3.87 7.806a9.82 9.82 0 0 0 5.334 1.393 7.514 7.514 0 0 0 7.363-4.243h9.877a12.08 12.08 0 0 1-3.587 6.686q-4.971 5.398-13.92 5.398a20.167 20.167 0 0 1-13.033-4.553q-5.647-4.551-5.646-14.814 0-9.613 5.097-14.744 5.097-5.13 13.231-5.13a21.058 21.058 0 0 1 8.702 1.734zm-14.473 8.357a10.053 10.053 0 0 0-2.577 5.728h16.667a8.071 8.071 0 0 0-2.577-5.847 8.477 8.477 0 0 0-5.738-1.995 7.672 7.672 0 0 0-5.775 2.114zm43.68 5.387a15.264 15.264 0 0 0 3.865-.848 2.91 2.91 0 0 0 2.086-2.75 3.251 3.251 0 0 0-1.6-3.14 10.113 10.113 0 0 0-4.697-.865q-3.476 0-4.92 1.698a6.994 6.994 0 0 0-1.377 3.394h-9.335a14.155 14.155 0 0 1 2.727-7.977q3.852-4.889 13.228-4.888a23.592 23.592 0 0 1 10.842 2.41q4.738 2.41 4.738 9.097v16.972q0 1.767.068 4.278a5.375 5.375 0 0 0 .577 2.58 3.462 3.462 0 0 0 1.426 1.12v1.426h-10.523a10.775 10.775 0 0 1-.611-2.105q-.17-.984-.272-2.24a19.983 19.983 0 0 1-4.643 3.7 14.035 14.035 0 0 1-7.102 1.799 12.253 12.253 0 0 1-8.348-2.868q-3.296-2.868-3.295-8.13 0-6.823 5.3-9.879a23.685 23.685 0 0 1 8.55-2.376zm5.916 4.515a10.683 10.683 0 0 1-1.875.934 15.926 15.926 0 0 1-2.598.662l-2.202.407a14.478 14.478 0 0 0-4.447 1.325 4.418 4.418 0 0 0-2.286 4.107 4.292 4.292 0 0 0 1.396 3.581 5.305 5.305 0 0 0 3.395 1.103 10.105 10.105 0 0 0 5.843-1.833q2.671-1.833 2.774-6.687zm49.687-14.562q4.151 5.262 4.151 13.578 0 8.622-4.094 14.291a14.863 14.863 0 0 1-18.834 3.836 14.729 14.729 0 0 1-3.617-3.802v4.65h-9.539V505.85h9.675v17.787a14.175 14.175 0 0 1 4.065-3.938 12.143 12.143 0 0 1 6.696-1.697q7.346 0 11.497 5.262zm-8.086 22.54a13.71 13.71 0 0 0 2.087-7.943 17.772 17.772 0 0 0-1.026-6.518 7.15 7.15 0 0 0-7.187-4.889 7.258 7.258 0 0 0-7.29 4.788 17.828 17.828 0 0 0-1.028 6.585 13.702 13.702 0 0 0 2.122 7.875 7.284 7.284 0 0 0 6.47 3.123 6.71 6.71 0 0 0 5.852-3.021zm49.815 5.487q-4.685 5.782-14.223 5.783-9.54 0-14.224-5.783a22.957 22.957 0 0 1 0-27.795q4.685-5.866 14.224-5.867 9.537 0 14.223 5.867a22.957 22.957 0 0 1 0 27.795zm-7.74-5.346q2.274-3.018 2.275-8.577 0-5.559-2.275-8.558a8.599 8.599 0 0 0-13.052 0q-2.291 3-2.291 8.558 0 5.56 2.29 8.577a8.57 8.57 0 0 0 13.053 0zm39.903-27.994c.124.012.402.029.832.051v9.912q-.917-.1-1.63-.135-.712-.034-1.154-.035-5.838 0-7.841 3.803a14.78 14.78 0 0 0-1.12 6.585v17.686h-9.743v-37.001h9.234v6.45a20.43 20.43 0 0 1 3.903-5.058 10.626 10.626 0 0 1 7.06-2.274c.181 0 .335.006.459.016zm36.338 2.988q3.632 3.004 3.633 9.963v24.916h-9.912V533.31a10.335 10.335 0 0 0-.775-4.48q-1.417-2.853-5.392-2.852-4.887 0-6.706 4.175a14.443 14.443 0 0 0-.943 5.635v20.028h-9.674v-36.933h9.368v5.398a16.38 16.38 0 0 1 3.516-4.108 12.177 12.177 0 0 1 7.538-2.24 14.183 14.183 0 0 1 9.347 3.004z"/></svg>