<svg xmlns="http://www.w3.org/2000/svg" role="img" viewBox="-7.34 -0.84 511.68 61.68"><title>ShaderNN logo</title><path fill="#47a062" d="M2.7565 36.00432h16.22963c.27686.8322 1.08952 1.53616 2.43758 2.11024 1.34684.5753 3.15986 1.01094 5.43946 1.30816 2.2784.29721 4.92402.44582 7.93608.44582 2.97257 0 5.32099-.08917 7.04484-.2675s2.94285-.49508 3.65617-.95109c.71332-.45519 1.06998-1.07975 1.06998-1.87287 0-.7524-.5749-1.33747-1.72386-1.75357-1.15018-.4161-3.1908-.70314-6.12347-.86193-2.93348-.15797-7.0546-.23818-12.365-.23818-3.96356 0-7.38196-.18729-10.25518-.56471-2.87364-.3762-5.23141-.97063-7.07415-1.7833-1.84315-.81184-3.20098-1.84274-4.07227-3.09145-.8721-1.24831-1.30775-2.74376-1.30775-4.48837 0-3.01125 1.0199-5.49891 3.06132-7.46054 2.04102-1.96203 5.13207-3.42775 9.27396-4.3992 4.14108-.97064 9.32322-1.45677 15.54604-1.45677 9.11517 0 16.08061 1.31834 20.89592 3.95338 4.81531 2.63627 7.22317 6.43086 7.22317 11.3846H44.25195c-.1991-1.30815-1.42704-2.30851-3.68589-3.00229-2.25925-.69296-5.46918-1.04025-9.63062-1.04025-4.12234 0-7.18408.23777-9.1848.71332-2.00192.47554-3.00228 1.2882-3.00228 2.43758 0 .59443.27686 1.06997.8322 1.42663.55454.35666 1.5158.64451 2.8834.86193 1.3672.21823 3.2991.36684 5.79613.44582 2.49702.0798 5.66706.11889 9.51173.11889 4.24042 0 7.84732.20805 10.81949.62415 2.97257.4161 5.38042 1.04067 7.22316 1.87287s3.18062 1.89282 4.01283 3.18022c.8322 1.28861 1.2483 2.80441 1.2483 4.54781 0 3.01247-.95108 5.4696-2.85327 7.37178-1.90259 1.90218-4.91506 3.30968-9.03618 4.22087-4.12235.9112-9.51174 1.3672-16.1702 1.3672-3.76568 0-7.22316-.21823-10.37365-.65388-3.1509-.43646-5.95532-1.07934-8.41203-1.9319-2.45794-.85175-4.53845-1.9026-6.24195-3.1509-1.70472-1.2483-3.0023-2.65459-3.89394-4.22088-.89165-1.56506-1.33788-3.2995-1.33788-5.20169zM66.72353 49.9747V8.9552h14.2676v41.0195h-14.2676zm39.71134 0V39.15522c0-1.7837-.35666-3.28933-1.06998-4.5181-.71332-1.22794-1.9718-2.14972-3.77505-2.76451-1.80366-.61398-4.34994-.92137-7.63886-.92137-1.86351 0-3.67653.16896-5.43988.50527-1.76375.33711-3.34917.74304-4.75586 1.21858-1.4071.47555-2.52634.9511-3.35854 1.42705l-.1189-2.85368c.15798-.59444.70315-1.49545 1.6347-2.70508.93073-1.2084 2.28897-2.47626 4.07227-3.80477 1.7833-1.3273 4.03237-2.45672 6.74721-3.38827 2.71444-.93073 5.93496-1.39732 9.66075-1.39732 2.33783 0 4.59667.21864 6.77694.65428 2.17904.43646 4.1317 1.15915 5.85556 2.16968 1.72426 1.01054 3.10082 2.36877 4.13171 4.07227 1.03008 1.70431 1.54593 3.82513 1.54593 6.36083V49.9747h-14.268zm41.19742.8322c-4.28032 0-8.08469-.6046-11.41392-1.81301-3.32922-1.2084-5.95531-2.96239-7.87704-5.26113-1.92295-2.29834-2.8834-5.07263-2.8834-8.32287 0-3.40822.96045-6.2615 2.8834-8.56064 1.92173-2.29793 4.54782-4.0222 7.87704-5.17197 3.32923-1.14896 7.1336-1.72426 11.41392-1.72426 4.75587 0 8.86722.64492 12.3357 1.93231 3.46765 1.28821 6.1426 3.09146 8.02483 5.40974 1.88264 2.3187 2.82396 5.02336 2.82396 8.11482 0 2.29874-.53417 4.38984-1.60415 6.27167-1.06998 1.88305-2.61632 3.50756-4.63739 4.87475-2.02107 1.3676-4.45865 2.41804-7.31233 3.1509-2.85328.73286-6.06362 1.0997-9.63062 1.0997zm5.3503-9.03618c3.01165 0 5.77617-.1877 8.29314-.5647 2.51657-.37621 4.53764-1.0199 6.06403-1.93191 1.52435-.9112 2.28816-2.19981 2.28816-3.86422 0-1.7035-.7638-3.01166-2.28816-3.92366-1.52639-.9112-3.54746-1.54553-6.06403-1.90219-2.51697-.35706-5.28149-.5354-8.29314-.5354-4.04214 0-7.1735.52604-9.39285 1.57566-2.21975 1.05044-3.32882 2.64523-3.32882 4.78559 0 1.38755.49509 2.55606 1.48608 3.50756.99018.95109 2.43758 1.6644 4.33977 2.13995s4.20052.71332 6.89582.71332zm16.64533-20.92565h14.268V49.9747h-13.4358c-.27686-1.82238-.48532-3.58654-.62375-5.29085-.14005-1.7035-.20845-3.70543-.20845-6.00418v-17.8346zm41.19823 29.96184c-4.28073 0-8.0851-.60461-11.41473-1.81302-3.32882-1.2084-5.9549-2.96239-7.87664-5.26113-1.92254-2.29834-2.8834-5.07263-2.8834-8.32287 0-3.40822.96086-6.2615 2.8834-8.56064 1.92173-2.29793 4.54782-4.0222 7.87664-5.17197 3.32964-1.14896 7.134-1.72426 11.41473-1.72426 3.5666 0 6.77653.36724 9.63062 1.1001 2.85327.73368 5.29045 1.7833 7.31233 3.1505 2.02107 1.3676 3.5666 3.00229 4.63657 4.90447 1.06998 1.9026 1.60497 4.00346 1.60497 6.3018 0 2.29874-.53499 4.38984-1.60497 6.27167-1.06997 1.88305-2.6155 3.50756-4.63657 4.87475-2.02188 1.3676-4.45906 2.41804-7.31233 3.1509-2.8541.73286-6.06403 1.0997-9.63062 1.0997zm5.3499-9.03619c3.01124 0 5.77576-.1877 8.29354-.5647 2.51616-.37621 4.53723-1.0199 6.06321-1.93191 1.52517-.9112 2.28898-2.19981 2.28898-3.86422 0-1.7035-.7638-3.01166-2.28897-3.92366-1.52599-.9112-3.54706-1.54553-6.06322-1.90219-2.51778-.35706-5.2823-.5354-8.29355-.5354-4.04214 0-7.1739.52604-9.39284 1.57566-2.21976 1.05044-3.32883 2.64523-3.32883 4.78559 0 1.38755.4951 2.55606 1.48609 3.50756.99017.95109 2.43717 1.6644 4.33935 2.13995 1.903.47555 4.20093.71332 6.89623.71332zm16.64573-32.81551h14.268v41.0195h-13.4358c-.15878-.9112-.33711-2.3871-.53499-4.42893-.19868-2.04062-.29721-4.32959-.29721-6.8661V8.9552zm61.8853 30.55667h14.02941c-.35666 2.29874-1.49585 4.30068-3.4184 6.00417-1.92253 1.70431-4.71637 3.02265-8.3823 3.95339s-8.33264 1.39691-14.0001 1.39691c-5.98423 0-11.14602-.47554-15.4862-1.42664-4.33935-.95109-7.67876-2.55646-10.01658-4.8153-2.33946-2.25925-3.50797-5.3104-3.50797-9.15508 0-3.80477 1.1392-6.84574 3.4184-9.12535 2.27838-2.2788 5.57789-3.91348 9.89851-4.90447 4.319-.99018 9.55082-1.4865 15.69383-1.4865 6.02413 0 10.95873.5354 14.803 1.60538 3.84345 1.06998 6.678 2.80401 8.5012 5.2017 1.82238 2.39849 2.69448 5.63814 2.6155 9.71978h-40.42466c.19787 1.03089.76217 1.98239 1.69372 2.85368.93155.8721 2.37855 1.57525 4.34017 2.11023s4.5869.80249 7.87664.80249c3.40862 0 6.21304-.23777 8.41244-.71332s3.51692-1.14896 3.95338-2.02107zM282.34124 28.5731c-4.20093 0-7.40109.45641-9.60049 1.3676-2.1994.91201-3.4982 1.8232-3.89394 2.7344h26.15747c-.27767-1.03008-1.38837-1.971-3.32964-2.82356-1.94208-.85175-5.05267-1.27844-9.3334-1.27844zm31.26959-7.72803h14.268V49.9747h-14.268V20.84507zm29.60599 10.99782c-2.57724 0-4.9346.23777-7.07456.71332s-3.96397 1.04025-5.4696 1.69454c-1.50643.65387-2.63586 1.29838-3.38826 1.9319l-.11889-2.85368c.11889-.8322.43565-1.81302.9511-2.94244.51463-1.12983 1.2084-2.29834 2.0805-3.50756.8713-1.2084 1.94128-2.33783 3.20994-3.38867 1.26867-1.04962 2.72462-1.90218 4.36949-2.55606s3.45748-.98122 5.44028-.98122v11.88987zm64.97634 6.47972l-5.52904 3.1509V11.92778h14.86244V49.9747h-14.86244L357.8993 24.05501l5.52904-3.20994V49.9747H348.5659V11.92777h14.86244l44.76483 26.39484zm77.2819 0l-5.52903 3.1509V11.92778h14.86244V49.9747h-14.86244l-44.76483-25.91969 5.52904-3.20994V49.9747H425.8478V11.92777h14.86244l44.76483 26.39484z"/></svg>