<svg xmlns="http://www.w3.org/2000/svg" role="img" viewBox="-20.50 -20.50 1066.00 260.00"><title>SOAJS logo</title><path fill="#da8c27" d="M0 110.00222C0 49.25227 49.24824.0055 109.99725.0055c60.74915 0 109.99725 49.24677 109.99725 109.99672C219.9945 170.75176 170.7464 220 109.99725 220 49.24824 220 0 170.75176 0 110.00222"/><path fill="#f1efe0" d="M169.86375 132.69912l-.44799-.0068c-.02933 0-.05733 0-.09066-.0016v.0016h-.03467v-.0016c-11.09972-.27346-19.8115-8.52952-19.8115-18.80167 0-6.62116 3.66657-12.63141 9.80242-16.07866l.2-.11c1.95728-1.0733 4.08123-1.82849 6.31984-2.24674.72931-.13653 1.48263-.23653 2.2346-.29586l.02-.0016c.58133-.04893 1.18798-.07333 1.79996-.07333 11.23039 0 20.36883 8.43619 20.36883 18.8062 0 10.37013-9.13177 18.80579-20.36083 18.81006zm-54.95356 26.3612l-34.79713.00947v-33.54143c0-18.49527 15.0591-33.53916 33.55383-33.53916h2.9698v-2.96873c0-15.4488 12.55075-28.0485 27.9717-28.08583 12.22369 0 23.35408 7.53315 27.9313 18.81953-.60799 3.81857-2.6866 7.24609-5.80386 9.57203-.68398.07493-1.3613.1744-2.02528.29946-2.92126.54585-5.69853 1.54476-8.25713 2.9734l-.40932.20679-.06133.06293c-3.64658 2.13168-6.7065 5.0936-8.86911 8.58525-2.32928 3.7603-3.55858 8.06127-3.55858 12.43502 0 6.53277 2.67993 12.69395 7.54648 17.34917.16133.1536.32532.3056.49198.45665-5.47453-1.35143-10.4024-4.25242-14.10364-8.40605-.71199-1.0885-1.51063-2.12848-2.37861-3.10766-2.55314-3.93897-3.9015-8.47112-3.9015-13.06634h-5.92959c0 2.14582.23746 4.26283.69318 6.33998-3.44098-1.54743-7.22368-2.38234-11.04705-2.38234v5.93171c5.86958 0 11.50958 2.47901 15.48654 6.8081.70572 1.05464 1.4865 2.07968 2.32861 3.05206 2.09915 3.33845 3.20179 7.19662 3.20179 11.16692 0 11.59704-9.43803 21.02907-21.03308 21.02907zm-85.1416-22.2025c0-12.24864 9.97468-22.21452 22.22184-22.21452 12.24756 0 22.22078 9.96735 22.22078 22.21758v22.20571H51.98257c-12.24863 0-22.21398-9.96322-22.21398-22.20878zm144.95104-47.2811c2.07862-2.87232 3.40525-6.2573 3.80657-9.85988l.07733-.70798-.24932-.66665c-2.55994-6.7865-7.05983-12.58902-13.01301-16.78092-6.09051-4.28922-13.261-6.55716-20.74215-6.55716-17.72716.044-32.32066 13.77298-33.77675 31.15255-18.6314 1.33357-33.72316 15.6536-36.25283 33.93182-5.13374-6.8973-13.34753-11.37318-22.5869-11.37318-15.51788 0-28.14303 12.62568-28.14303 28.14556 0 15.51681 12.62515 28.1405 28.14303 28.1405h94.93909v-5.93479h-15.16655c6.1641-4.93161 10.11868-12.53822 10.11868-21.0364 0-1.3349-.096-2.6598-.28933-3.96657 5.10654 2.86246 10.98773 4.41442 17.09824 4.41962l10.5104.136h.056c.2.00573.40266.00933.60665.00933 14.50097 0 26.30068-11.0976 26.30068-24.73952 0-12.07676-9.25044-22.15984-21.4368-24.31232"/><path fill="#f1efe0" d="M169.85575 118.82546c-3.03459 0-5.50253-2.2146-5.50253-4.9364 0-2.7202 2.46794-4.93415 5.50253-4.93415 3.03326 0 5.5012 2.21394 5.5012 4.93414 0 2.7218-2.46794 4.93641-5.5012 4.93641zm0-15.80067c-6.30384 0-11.43171 4.87388-11.43171 10.86426 0 5.99265 5.12787 10.866 11.43171 10.866 6.30385 0 11.43172-4.87335 11.43172-10.866 0-5.99038-5.12787-10.86426-11.43172-10.86426"/><path fill="#3f5f7d" d="M398.16205 50.15625l-7.05316 15.5556c-13.06634-8.7091-28.4193-12.23835-40.035-12.23835-18.6702 0-30.91123 7.05449-30.91123 19.29418 0 37.33667 81.73263 17.83969 81.5273 70.5301 0 24.2702-21.3688 39.8286-52.48402 39.8286-21.15814 0-41.90296-9.1279-55.59461-22.1957l7.46648-14.93563c13.48766 13.06794 31.94853 20.53695 48.33479 20.53695 20.9528 0 34.02181-8.50498 34.02181-22.40717.20533-38.16678-81.52462-17.83702-81.52462-69.90519 0-22.8181 20.12083-37.54839 50.20007-37.54839 16.80358 0 34.02049 5.3932 46.05219 13.485m61.39846 59.74237c0 31.946 26.96866 57.46416 59.32918 57.46416 32.36186 0 58.91186-25.51816 58.91186-57.46416 0-31.94707-26.55-57.2531-58.91186-57.2531-32.36052 0-59.32918 25.30603-59.32918 57.2531zm135.25129 0c0 40.86564-33.60583 73.43563-75.9221 73.43563-42.5256 0-76.13277-32.56999-76.13277-73.43563 0-41.0735 33.60716-73.0207 76.13276-73.0207 42.31628 0 75.9221 32.15519 75.9221 73.0207m99.56685-53.72652l-32.36052 73.64109h65.1397zm-39.41501 89.61362l-16.17827 36.72042H621.1498L686.28818 37.2939h17.21957l64.9277 145.21224h-18.04488l-16.18093-36.72042h-79.24601m216.77324-6.84356c0 28.2097-15.55827 44.39209-41.48963 44.39209-16.17826 0-30.07791-7.67687-40.24032-20.74481l8.29579-13.27727c9.1291 10.99452 20.53815 16.80371 31.7392 16.80371 15.9716 0 24.89138-9.5435 24.89138-27.58984V53.2655h-51.85737V37.2939h68.66095v101.64826m150.39091-88.78591l-7.0545 15.5556c-13.069-8.7091-28.41795-12.23835-40.03632-12.23835-18.66887 0-30.9099 7.05449-30.9099 19.29418 0 37.33667 81.7353 17.83969 81.52596 70.5301 0 24.2702-21.36346 39.8286-52.48135 39.8286-21.15947 0-41.90162-9.1279-55.59728-22.1957l7.46915-14.93563c13.48633 13.06794 31.9472 20.53695 48.33612 20.53695 20.95281 0 34.02182-8.50498 34.02182-22.40717.20533-38.16678-81.52463-17.83702-81.52463-69.90519 0-22.8181 20.12083-37.54839 50.19875-37.54839 16.80358 0 34.02048 5.3932 46.05218 13.485"/></svg>