<svg xmlns="http://www.w3.org/2000/svg" role="img" viewBox="-3.39 -5.89 505.28 514.28"><title>Stable Baselines logo</title><defs><style>.cls-1{fill:#b2b5e7}.cls-8{fill:#3f3b3d}.cls-13{fill:#4f4a4c}.cls-22{fill:#4a4649}.cls-25{fill:#525051}.cls-29{fill:#5f5c65}.cls-32{fill:#e6fc78}.cls-33{fill:#626066}.cls-42{fill:#434448}.cls-57{fill:#a3a5d9}.cls-70{fill:#fdfdfd}.cls-76{fill:#fafafa}.cls-77{fill:#f8f8f8}.cls-78{fill:#f0efef}.cls-80{fill:#fbfbfb}.cls-81{fill:#f6f6f6}.cls-83{fill:#f7f7f7}.cls-84{fill:#737286}.cls-85{fill:#f1f1f1}.cls-86{fill:#e7e7e7}.cls-88{fill:#f4f4f4}.cls-113{fill:#f5701d}</style></defs><path d="M445.955 346.198c.2 1.68.422 3.362-.554 4.91-.304-.104-.316-.375-.435-.58-.202-.346-.203-.321-.195-.059.128 4.127.036 8.255.062 12.393.035 6.675-1.302 13.284-.817 19.97a10.007 10.007 0 0 0 .044 2.392c1.657 4.797-.462 8.235-3.876 11.259a4.924 4.924 0 0 1-1.244.81c-4.28 1.793-5.403 1.146-5.158-3.358.822-15.073-.028-30.187.751-45.23 1.173-22.646.276-45.28.64-67.913.037-2.319.613-4.53.796-6.809.072-7.076.047-14.152.006-21.227a24.076 24.076 0 0 1-.029-3.726c.21-2.449-.113-4.927.37-7.363 1.03-4.665.3-9.39.477-14.085.045-22.913 0-45.824.021-68.734a52.794 52.794 0 0 1 .176-6.459c1.417-3.788-.148-7.905 1.261-11.697 3.26-2.033 4.124-4.966 4.465-8.781.863-9.66 2.534-19.228 2.556-28.991.008-3.425 1.321-6.848 1.456-10.378.038-1.016.092-2.609 2.001-2.186 1.108 2.719.355 5.56.552 8.336-.91 5.544-.128 11.142-.509 16.708-.538 2.338-.176 4.71-.283 7.068-.601 11.514-.385 23.034-.414 34.55-.465 5.143-1.572 10.289-.001 15.437.053 10.04.06 20.077-.09 30.114a130.992 130.992 0 0 0-.652 13.696c.042 8.227-.528 16.436-.463 24.659.033 6.926.064 13.852-.449 20.766-.519 5.063-.38 10.14-.415 15.22-.106 15.29.482 30.58-.07 45.867a184.725 184.725 0 0 0 .02 23.42z" class="cls-1"/><path fill="#88818b" d="M437.14 249.056l-.08 3.326c-.777 6.935-.038 13.899-.4 20.842-1.128 7.332-.834 14.72-.917 22.097-.2 17.725.27 35.464-.83 53.17-.16 2.588.203 5.084.206 7.626.013 13.826-.848 27.638-.721 41.463.03 3.365-2.208 3.108-4.317 3.36-1.314-.172-1.615-1.091-1.641-2.216a348.417 348.417 0 0 0 .735-36.188c-.607-8.18.042-16.318.813-24.452a6.248 6.248 0 0 0 .28-2.79q.01-33.192 0-66.383a6.135 6.135 0 0 0-.286-2.79c-.224-17.861-.501-35.724.72-53.566a75.029 75.029 0 0 0 .062-16.114c-.033-1.425-.191-2.871.68-4.149.716-.46.445-1.178.446-1.806q.007-18.933 0-37.866a4.296 4.296 0 0 0-.325-2.356 9.587 9.587 0 0 1 .639-5.818c1.068-1.107.476-2.474.464-3.689-.107-10.32.386-20.644-.24-30.96-.173-3.33-.39-6.662.577-9.926 1.007 1.645.178 3.485.552 5.121-.098-3.989 0-8.054-.081-12.117-.005-.223.682-1.201-.5-.882a15.828 15.828 0 0 1-.578-3.1c.05-4.856-.188-9.636-2.632-14.015 1.5-1.406 3.405-2.565 3.078-5.085 1.595-10.922 1.724-21.906 1.548-32.904a16.454 16.454 0 0 0-.96-4.72c-.274-2.64 1.24-4.109 3.387-5.162 2.41-.895 3.749.094 3.782 2.509.127 9.293.497 18.599-.22 27.875-.175 2.27-.468 4.54-.463 6.823.058 23.657-.932 47.299-1.054 70.957a140.542 140.542 0 0 1-1.277 16.784c-.105 24.614-.015 49.226-.045 73.839a5.27 5.27 0 0 0 .24 1.987c.07 4.702.696 9.423-.484 14.082-1.146-3.905-.276-7.825-.584-11.739.253 6.31-.46 12.617.426 18.932z"/><path fill="#c8fc5e" d="M429.24 398.866c-.094.646-.166 1.284.574 1.639 1.606-.686 3.34-.187 4.978-.541 2.48 1.975 4.747 4.186 8.332 4.225 2.483.028 4.161-.622 4.963-3.039 1.497-1.838 3.43-2.192 5.718-2.015a25.528 25.528 0 0 0 8.693-.528 1.397 1.397 0 0 1 1.063.581 5.795 5.795 0 0 1 .82 4.376c-2.329 6.75-3.768 7.797-10.808 7.844-2.019.014-4.04.06-6.057-.008-4.884-.165-9.746-.439-13.01 4.363a4.321 4.321 0 0 1-2.867 1.371c-11.152.042-22.302.201-33.444-.35-3.582-.02-7.174.012-10.657-1.007-4.108-1.202-5.745-3.968-4.763-7.963 3.918-3.085 7.793-6.26 13.238-5.95 2.272.128 4.124-1.073 6.115-1.886 4.354-1.78 8.61-3.727 13.444-4.2 4.684-.457 9.193-2.071 13.817-3.005a30.802 30.802 0 0 1-.15 6.093z"/><path fill="#dafc6c" d="M311.2 401.745c1.593 1.794 4.084 1.96 5.941 3.28 3.422 2.431 3.205 5.046.115 7.776-4.966 4.386-11.155 4.287-17.034 5.309-3.7.642-7.488.775-11.237 1.137a6.355 6.355 0 0 1-4.735.212c-6.818-3.15-13.528-.128-20.264.037-2.421.06-4.834.133-7.246-.023-1.82-.118-3.485-.583-4.092-2.631.118-.521-.295.057-.018-.382 3.763-5.973 6.956-12.342 12.033-17.41 3.402-.132 6.583.958 9.856 1.648 3.217.679 6.61 1.513 9.71-.777a2.574 2.574 0 0 1 3.045-.04 5.036 5.036 0 0 1 1.767 2.539 7.27 7.27 0 0 0 7.13 5.155 19.007 19.007 0 0 0 11.21-4.102c1.123-.814 2.027-2.32 3.82-1.728z"/><path fill="#d6fc65" d="M198.144 401.337c9.008-1.638 18.162-2.425 27.078-4.607a1.237 1.237 0 0 1 1.266.8 59.218 59.218 0 0 0 10.967 17.247c.108 4.337-1.283 5.984-5.5 5.986-9.272.003-18.541.09-27.807.432a484.96 484.96 0 0 1-16.844.347c-4.643.01-8.836-2.098-13.047-3.72-2.682-1.032-2.274-4.79.675-6.868a60.485 60.485 0 0 1 18.967-8.516 1.23 1.23 0 0 1 1.203 1.68c-.97 3.296 1.062 5.023 3.343 6.64.99.702 2.064 1.275 3.043 2 4.349 3.227 4.38 3.236 6.962-1.44a4.287 4.287 0 0 1 3.212-2.203c3.108-.543 5.746-2.31 8.71-3.215a4.54 4.54 0 0 0 2.528-1.922c.495-.762 1.393-1.642.602-2.514-.864-.953-1.864-.118-2.412.55-2.67 3.257-5.838 2.904-9.138 1.353-2.985-1.404-6.051-1.073-9.135-.675-1.595.205-3.19.746-4.696-.313a.794.794 0 0 1 .023-1.042z"/><path fill="#383234" d="M142.16 160.496c-13.594 8.81-29.181 11.215-44.685 13.84-9.436 1.599-19.008 3.288-28.51 2.268-13.543-1.455-26.924-4.013-37.69-13.66-3.775-3.381-8.534-5.669-11.565-9.906-5.568-7.785-9.625-16.104-11.359-25.756-1.668-9.289-2.413-18.483-.647-27.674 2.73-14.2 9.15-26.615 19.774-36.599a34.05 34.05 0 0 1 10.745-6.949c1.76-.154 1.708 1.033 1.65 2.224-2.44 3.324-6.522 4.559-9.362 7.463-7.791 7.965-14.374 16.276-17.375 27.595-3.792 14.303-2.648 28.064 1.203 41.853 2.689 9.626 9.487 16.517 17.135 22.431A70.67 70.67 0 0 0 59.46 170.67c6.425 1.46 12.907 1.572 19.255 1.458a181.569 181.569 0 0 0 43.164-5.694 61.858 61.858 0 0 0 14.458-6.105c1.4-.782 2.693-1.843 4.444-1.732a1.582 1.582 0 0 1 1.38 1.9z"/><path fill="#504c4d" d="M296.157 408.498c-5.507.171-7.49-3.632-8.996-7.974-.418-1.034-1.471-1.713-1.632-2.893-.581-9.75-.92-19.52-2.015-29.238-.372-3.295-.795-6.51-5.04-6.999-1.226-.93-1.94-1.957-.617-3.354 12.04-2.07 18.41-11.506 25.596-19.826 5.206-6.028 9.6-12.692 14.38-19.052 5.226-6.955 6.399-15.385 7.174-23.728 1.2-12.915-2.664-24.626-8.425-36.112-5.734-11.432-10.696-23.303-13.532-35.88-.739-3.273-2.357-6.342-2.305-9.8a2.093 2.093 0 0 1 2.71-1.058c3.504 7.182 4.078 15.234 6.846 22.685a297.827 297.827 0 0 0 12.155 27.998c4.467 9.063 6.317 18.795 6.721 28.84.242 6.005-1.382 11.717-2.673 17.479-.358 1.598-.653 3.057.129 4.683 4.514 9.391 5.01 19.4 4.355 29.568-1.065 1.104-.693 2.508-.806 3.815-.099 1.148.207 2.531-1.507 2.823-1.776-1.777-1.08-4.05-1.148-6.13-.24-7.372.745-14.836-1.73-22.03a6.607 6.607 0 0 0-1.555-3.29 157.824 157.824 0 0 0-11.483 15.292 87.362 87.362 0 0 1-23.151 24.41c-1.577 1.127-2.638 2.112-2.198 4.222 2.041 9.799 1.63 19.814 2.497 29.718.172 1.969.48 3.722 2.117 4.992a1.606 1.606 0 0 1 .355 1.081c-1.911 3.45-1.152 5.405 2.518 6.372a9.175 9.175 0 0 1 2.654.701c1.627 1.977-2.007 1.23-1.394 2.685z"/><path d="M359.363 21.374c.23-5.816 1.14-11.576 1.585-17.48 1.585 11.281-1.988 23.285 5.02 33.66-1.946 1.136-2.306-.657-3.096-1.665-1.672-2.187-1.935-5.292-4.51-6.894a2.138 2.138 0 0 1-1.009-.137c-1.49-1.419-3.394-.498-5.063-.893-4.972-1.888-4.943-1.888-4.859 3.498a44.136 44.136 0 0 1-.16 7.17 2.19 2.19 0 0 1-2.14 1.92 1.694 1.694 0 0 1-1.44-.992c-.183-3.21.473-6.46-.323-9.648-.215-.86-.198-2.1-1.406-2.165-1.113-.06-1.444 1.062-1.843 1.893a21.9 21.9 0 0 0-1.186 3.863 18.553 18.553 0 0 0-.396 4.002c-.273 2.407-1.296 3.814-3.988 2.99-2.974-3.25-1.683-7.678-3.24-11.448-2.716 3.044-.858 7.035-2.139 10.335a1.682 1.682 0 0 1-2.065.929c-2.224-2.896-.985-6.2-1.027-9.336-.018-1.351.588-2.838-1.646-2.772-1.58-.016-2.48 1.135-3.51 2.049-2.777 2.594-1.293 5.636-.902 8.558.751 3.425 3.331 2.475 5.576 2.324 1.396.059 2.782.251 4.183.222 1.281 0 2.56-.014 3.839-.025 3.095-.217 6.225.403 9.292-.428a4.233 4.233 0 0 1 1.358-.09c2.67.11 5.086-1.453 7.798-1.148 1.676.188 3.484-.239 4.826 1.227.118 1.442-1.012 1.768-1.989 2.232-1.333.368-2.73.358-4.077.651a8.215 8.215 0 0 1-2.642-.09c-.86-.094-1.519.562-2.334.638a1.12 1.12 0 0 0-1.552.343 5.092 5.092 0 0 1-1.009.32c-2.07.155-2.261 1.662-2.679 3.288-.682 2.657.213 5.579-1.423 8.052a2.115 2.115 0 0 1-2.204-.667c-1.486-1.656-.202-3.814-.81-5.532-.27 1.28 1.104 2.938-1.046 3.83-1.89-1.846-.647-4.344-1.332-6.472-.641.252-.895 1.462-1.2 1.268-2.164-1.376-1.104-.106-.859.887a82.903 82.903 0 0 1 2.23 16.979 3.301 3.301 0 0 1-2.138 1.982c-2.011-.424-1.632-2.17-1.894-3.521a93.259 93.259 0 0 0-5.26-18.139c-1.895 2.046-.892 4.103-1.19 5.881-.294 1.171-.575 2.352-1.838 2.906-2.474-.076-2.63-2.36-3.605-3.839-1.741-2.64-2.7-5.99-6.373-6.808a11.225 11.225 0 0 1-1.102-.22c-.9-.103-1.74-.736-2.784-.272.85 2.654 4.29 4.288 3.089 7.726a.747.747 0 0 1-1.002-.111c-4.328-5.37-9.516-9.874-14.598-14.484-.291-.728.1-1.255.518-1.775 3.869-3.735 8.58-5.965 13.614-7.628 14.082-4.65 28.413-7.04 43.279-4.976 1.656.23 3.475.734 5.073-.407a6.284 6.284 0 0 1 1.608-1.56z" class="cls-8"/><path fill="#423b3c" d="M171.504 189.099c-.141-7.012 1.09-13.883 2.497-21.29-2.667.731-5.05 1.545-7.245.096a8.994 8.994 0 0 1-3.404-3.89c-1.606-3.645.327-6.306 2.685-8.565 3.011-2.883 6.479-2.749 10.2-.407 1.042-6.728 1.06-13.498 3.22-19.904.77-2.283 1.086-4.73 1.961-6.963 1.353-3.454 2.666-6.548.857-10.519-1.613-3.543.87-7.435.692-11.393a47.468 47.468 0 0 1 .947-12.723c2.34-10.005 8.731-16.685 18.142-20.556 2.095-.862 4.266-1.54 6.402-2.302 1.988-.186 1.017 1.166 1.05 2.002-1.121 2.509-2.581 4.862-3.504 7.467-3.237 6.008-2.023 12.47-1.89 18.815.03 1.41 1.156 1.18 2.088 1.141a2.07 2.07 0 0 1 1.977 1.062 2.263 2.263 0 0 1 0 1.16c-1.49 1.643-3.42 2.942-4.127 5.21-.715.759-1.746 2.138-2.322 1.897-2.275-.95-1.13.79-1.315 1.437-.226.79-.481 1.504-1.52 1.377-1.597-1.937-.578-4.46-1.466-6.557-.355-.839-.43-2.01-1.613-2.052-1.16-.042-1.44 1.04-1.758 1.909-.693 1.893.228 3.695.332 5.541.169 2.985 2.702 1.333 3.923 2.197 1.311 1.1 3.775 1.404 2.825 4.07a5.429 5.429 0 0 1-2.7.719c-5.808.424-9.621 3.727-12.382 8.557-3.356 5.875-4.586 12.392-5.237 18.963-.982 9.901-1.572 19.83-3.992 29.544-.635 2.548-1.228 5.317.376 7.861a1.52 1.52 0 0 1-.458 1.656c-1.97 1.056-1.934 3.063-2.287 4.888-.647 2.075-.021 4.273-.621 6.352-.672 1.102-1.484 2.723-1.969-.012-.395-2.225.309-4.55-.364-6.788z"/><path fill="#4a4547" d="M171.504 189.099c1.453 2.196.355 4.66.737 6.967.015.09.146.161.222.241l.58-.793c1.915.174 1.688 1.787 1.862 2.977a58.245 58.245 0 0 0 2.352 9.189c1.698 7.312 6.467 12.541 11.78 17.42 1.576 1.446 2.79 1.19 4-.446a7.694 7.694 0 0 0 1.615-4.883c-.34-13.315-4.496-24.752-16.05-32.547-1.087-.733-2.417-1.295-2.577-2.878l1.035-.788c2.239-1.502 3.968.09 5.378 1.275 10.594 8.911 16.178 20.23 15.871 34.218a14.923 14.923 0 0 1-2.8 7.894c-1.366 2.07-.703 3.221 1.284 4.527 4.716 3.101 9.954 3.653 15.346 3.792a2.736 2.736 0 0 1 .395 2.426c-.606 1.568-2.093 1.769-3.434 2.183-1.342.416-2.856.568-3.274 2.3.065 7.707.08 15.398-1.596 22.97-.811 6.993-2.482 13.85-3.35 20.835-.01.45-.048.899-.095 1.346-2.399 12.878-2.634 25.617 1.952 38.168 1.435 3.928 4.38 7.132 5.163 11.335a2.722 2.722 0 0 1-.962 2.533c-1.972-.46-2.591-2.186-3.45-3.687a64.067 64.067 0 0 1-7.539-44.749c2.453-13.498 4.429-27.1 6.083-40.721.777-6.4-1.663-11.567-7.29-15.855-7.72-5.884-15.631-11.799-19.967-21.195-3.604-7.809-4.034-15.786-3.271-24.054z"/><path fill="#8d8790" d="M436.339 27.864c-.568 1.486-2.488 2.152-2.436 4.013-3.213 2.257-6.975 1.205-10.409 1.335-3.834.146-7.606.811-11.405.879-1.655 2.875.818 4.373 2.08 6.263 1.887 1.841 2.705 4.355 4.116 6.495 1.087 1.647 1.998 3.426 3.566 4.71 4.489 4.403 8.623 9.039 10.06 15.431-.015 1.635.95 2.76 2.003 3.84.039 2.805-1.427 4.069-4.148 4.048l-.66-.875a59.428 59.428 0 0 0-9.043-12.837 11.76 11.76 0 0 1-3.857-5.025c-.747-3.244-2.761-5.684-5.043-7.956l-2.393-5.266c-.403-1.214-1.613-1.58-2.464-2.327a18.961 18.961 0 0 1-3.507-4.468c-1.047-1.667-2.745-1.423-4.32-1.439-4.802-.049-9.607.043-14.41-.04-5.328-.09-6.466-2.014-4.27-7.063 9.39-.248 18.78-.2 28.169-.112 8.047-.19 16.104.388 24.147-.366 1.415-.133 2.982-.395 4.224.76z"/><path fill="#524e4d" d="M206.938 339.36l.184-3.005a1.718 1.718 0 0 1 1.901-.132c5.335 4.072 12.141 4.67 17.926 7.66a6.983 6.983 0 0 1 2.318 1.543 3.074 3.074 0 0 1 .12 2.993c-1.323 1.5-2.744.548-4.07.068-3.77-1.365-7.632-2.451-11.71-4.184 1.446 4.802 3.704 8.822 4.912 13.221.354 1.286 1.79 1.587 2.48 2.586a9.26 9.26 0 0 0-.04 4.355c2.612 10.472 5.33 20.919 7.793 31.43 1.8 7.673 5.385 10.075 15.276 10.86 1.304.155 2.741-.006 3.56 1.402-2.914 2.005-2.914 2.005-12.996.159 3.93 3.36 7.614 5.98 12.79 5.838 3.454-.094 4.899-2.37 6.501-4.722.952-1.396-1.072-2.059-.767-3.284 4.21-1.103 5.894-4.627 7.852-7.988 4.074-6.992 6.245-14.782 9.478-22.127.643-.768 1.057-1.968 2.46-1.34 1.215 1.77.59 3.616.106 5.39-1.688 6.176-3.593 12.279-6.8 17.882a6.988 6.988 0 0 1-1.774 1.764c-3.84 5.298-6.498 11.42-11.22 16.104a4.414 4.414 0 0 1-4.387 2.818c-4.826.149-9.262-.71-12.565-4.653-5.914-4.331-8.298-10.92-11.046-17.272-3.32-15.721-7.032-31.34-12.71-46.42a19.253 19.253 0 0 1-1.071-3.847c-.464-3.055-1.665-5.578-4.5-7.1z"/><path d="M142.16 160.496l-.735-1.354c-.318-1.772 1.177-2.322 2.218-2.992 9.718-6.253 14.765-16.062 18.779-26.18 7.047-17.763 3.179-34.441-7.15-49.892-2.31-3.458-4.006-7.303-7.034-10.343-11.444-11.49-25.669-17.459-41.097-21.15-1.39-.333-3.05-.044-3.96-1.593.405-1.88 2.44-1.025 3.38-2.012a73.978 73.978 0 0 1 30.72 12.238c2.18 1.539 4.652 2.695 6.702 4.378 11.52 9.454 18.459 21.746 23.33 35.747 4.906 14.1 1.677 27.043-3.78 39.744a57.338 57.338 0 0 1-14.657 19.887 18.2 18.2 0 0 1-6.716 3.522z" class="cls-13"/><path fill="#2f2a2c" d="M331.685 68.616l1.612-1.85c1.597 1.227.965 3.202 1.6 4.75.339.823.123 2.4 1.863 1.509a24.113 24.113 0 0 0-.174-10.801c-.07-2.325-.875-4.75.93-6.812l1.444.822c2.147 3.466 1.486 7.46 2.066 11.215.284 1.836-.12 3.737.51 5.62.643-2.431.356-4.952.49-7.435.111-2.09-.474-4.328 1.138-6.15a.79.79 0 0 1 1.115.24c.167 2.123.084 4.246.046 6.719.008.19.482-.244.447-.342-.791-2.212-.222-4.512-.347-6.781-.08-4.359.376-8.725-.32-13.067a2.711 2.711 0 0 1 .694-2.2c.403-.624.652-.309.878.145 2.18 1.044 1.638 3.113 1.856 4.898.156 3.152-.404 6.347.58 9.45.077 4.666-1.172 9.18-1.61 13.784-1.087 3.048-.907 5.316 3.166 5.386.665.011 1.091.726 1.562 1.198 1.093 2.703 1.204 4.909-2.71 4.477-4.014-.442-3.92 2.291-3.885 5.034-1.954-1.023.301-4.414-2.378-4.367-3.673.065-.094 4.136-2.588 5.318-1.423-1.347.598-4.11-1.448-4.761-1.691-.538-3.706-.059-5.577-.03a2.001 2.001 0 0 1-2.56.07 2.327 2.327 0 0 1-.69-.19c-2.326-.912-4.874.379-7.18-.727l-.03-1.585c.677-1.65 2.164-2.156 3.692-2.573 1.543-.422 1.863-1.236.873-2.525-2.435-6.01-3.798-12.364-6.03-18.435a3.417 3.417 0 0 1 .193-3.118c1.354-.295.977-1.828 1.794-2.507 2.568 2.42 2.622 5.994 4.015 8.959a82.315 82.315 0 0 1 4.108 12.104c.067-1.838-.487-3.8.855-5.442z"/><path fill="#433e40" d="M303.454 212.584l-2.207.794c-1.299-.448-1.756-1.618-2.223-2.718-1.677-3.954-2.947-8.1-5.843-11.447a2.424 2.424 0 0 1-.371-2.998 2.57 2.57 0 0 1 2.378-.385 5.582 5.582 0 0 1 2.558 2.275 23.636 23.636 0 0 0-1.24-15.089c-5.075-12.006-8.524-24.828-15.997-35.68-6.659-9.67-11.924-20.538-22.4-27.191a24.609 24.609 0 0 1-7.493-7.856c-.524-1.813-1.809-3.763.877-5.01a5.788 5.788 0 0 0 2.185 4.163c4.114 3.456 7.606 7.66 12.28 10.437 4.97 2.953 7.338 8.133 10.783 12.374 10.15 12.5 15.745 27.278 21.407 42.132 3.392 8.899 4.588 17.536 2.733 26.808-.669 3.344 1.64 6.27 2.573 9.391z"/><path fill="#f5fc8f" d="M236.266 413.998c3.6 1.815 7.083 3.808 11.396 3.629 2.12-.088 3.965-.373 5.556-1.794 1.63 4.663 5.664 2.175 8.547 2.64 5.07.82 10.009-1.152 15.018-1.799 4.47-.577 7.702 3.864 12.201 2.572-5.133 1.547-10.403.534-15.604.784-24.245 1.167-48.51 1.52-72.782 1.81-7.622.09-15.213.425-22.818-.27-2.474-.227-4.615-.972-5.27-3.583-.66-2.633-1.21-5.549 1.516-7.396 7.303-4.946 14.937-9.148 24.117-9.254q-.015.405-.042.809a2.635 2.635 0 0 1-3.2.87 71.55 71.55 0 0 0-20.25 9.051 3.24 3.24 0 0 0-1.491 3.479c.276 1.415 1.646 1.514 2.753 1.986 10.157 4.334 20.889 3.677 31.448 3.115 8.312-.443 16.609-.512 24.915-.716 3.626-.089 4.94-2.22 3.99-5.933z"/><path fill="#593f34" d="M207.866 101.604a1.945 1.945 0 0 0-1.714-.864c2.765-4.3 6.147-8.134 9.179-12.233 2.455-3.87 5.249-7.558 6.832-11.908 1.361-3.74.709-4.628-3.186-4.725a22.05 22.05 0 0 0-6.824.63c-1.126.329-2.322.9-3.453-.061.115-.614.779-1.303-.243-1.76 24.736-7.44 43.11 9.399 43.075 30.908a1.003 1.003 0 0 1-1.07.078c-1.828-1.454-1.37-3.692-1.867-5.589a52.606 52.606 0 0 0-3.376-9.832c-3.521 10.403-11.414 15.567-18.987 21.046a59.71 59.71 0 0 1-9.333 4.922c-3.955 1.442-7.808 3.173-11.923 4.165-1.375-.875-1.266-2.107-.83-3.42 2.054-2.664 5.443-1.876 8.049-3.113a74.544 74.544 0 0 0 11.433-5.675 40.697 40.697 0 0 0 16.57-16.603c2.64-4.74 2.24-6.083-2.014-9.566a30.137 30.137 0 0 0-7.583-4.553c-1.948-.808-3.476-.605-3.843 1.858-1.141 7.65-5.63 13.54-10.166 19.413-1.603 1.816-2.886 3.92-4.804 5.447-1.134.905-2.207 2.076-3.922 1.435z"/><path fill="#403c3c" d="M328.699 350.327c1.946-1.746-.904-5.184 2.289-6.49.558 15.881-1.62 31.178-9.59 45.258a43.13 43.13 0 0 1-10.192 12.646c-4.39 3.659-8.965 6.888-15.049 6.757-2.544-3.104 2.41-.41 1.65-2.134 2.041-2.708 5.502-3.357 7.96-5.505 1.988-1.736 4.3-3.118 4.771-6.025 7.624-7.34 11.283-16.723 13.689-26.719a155.73 155.73 0 0 0 3.364-15.735 2.619 2.619 0 0 1 1.108-2.053z"/><path fill="#443e41" d="M106.56 44.98c-.684 1.527-2.132 1.452-3.452 1.646a2.672 2.672 0 0 1-2.382.458c-3.182-1.577-6.375-.566-9.568-.018a15.586 15.586 0 0 1-4.382.54c-14.85-.483-28.511 4.031-41.895 9.82-1.716.743-3.368 2.465-5.557 1.123.004-.994.006-1.986-1.1-2.489A63.318 63.318 0 0 1 62.3 45.436a124.487 124.487 0 0 1 31.323-2.182c4.331.272 8.626 1.133 12.938 1.726z"/><path fill="#ecfc85" d="M428.769 392.502c-1.087 2.518-3.624 2.784-5.714 3.098-8.045 1.207-16 2.567-23.143 6.796a2.478 2.478 0 0 1-1.48.502c-6.15-1.28-10.526 3.012-15.656 4.916.333-2.35 2.367-3.275 4-4.276 12.877-7.89 26.67-13.157 41.892-14.147 1.389.993 1.073 2.041.1 3.11z"/><path fill="#5f5b64" d="M436.339 27.864l-28.418-.119q-.343-.224-.21-.413c.085-.12.169-.18.253-.18 10.331-.399 20.69-.022 30.997-1.135a3.23 3.23 0 0 1 3.166 1.376 2.154 2.154 0 0 1 .303 1.418c-.021 7.542-.366 15.07-.636 22.604-.793 22.094-1.195 44.204-.987 66.32.06 6.46-1.079 12.892-.846 19.377a4.742 4.742 0 0 1-1.145 3.374c-.614 3.762.525 7.64-.747 11.359-.24.352-.505.354-.79.054.255-11.818.552-23.635.748-35.454.086-5.231-.26-10.477-.008-15.697.652-13.51.245-27.055.971-40.539.543-10.09.28-20.154.589-30.224.085-2.79-.822-3.455-3.24-2.121z"/><path d="M407.233 40.074a2.69 2.69 0 0 1 1.537 2.845c-3.632-.122-7.321-.693-10.878-.235-3.355.433-5.095 3.79-6.689 6.314-2.056 3.256-5.08 5.563-7.179 8.691a2.266 2.266 0 0 1-2.043 1.083c-3.874-.15-11.636-6.151-12.976-9.991-.866-2.48-1.84-4.924-2.867-7.65-2.48 2.12-3.712 4.67-5.327 6.92-.752.084-.96-.406-1.067-1.007-.02-1.952 1.764-3.146 2.16-4.969-1.595-.682-3.19.193-4.723-.208-.133-.134-.264-.27-.396-.406-4.324-1.875-8.619.453-12.933.091-.217-.754.178-1.177.8-1.477a1.737 1.737 0 0 0 1.802-1.784c1.348-.635 1.478-2.079 2.131-3.18.478-.802.635-2.182 2.168-1.457 1.82 4.598 2.492 4.728 6.756 1.306a1.669 1.669 0 0 1 1.089.023c1.57 2.668 3.275 1.147 4.963.16.935.672.565 2.646 2.408 2.412a34.63 34.63 0 0 1 5.39 12.333c.57 2.397 1.989 3.248 4.267 3.11 1.203-.844 2.113.874 3.277.374.884.586 1.808 1.12 2.641 1.77 1.074.837 1.655 1.005 2.805-.287a135.326 135.326 0 0 0 9.335-11.858c-1.681-1.346-4.032.645-5.466-1.25a2.528 2.528 0 0 1 1.132-.895c5.923-1.095 11.95.171 17.883-.778z" class="cls-22"/><path fill="#e9fc81" d="M444.618 386.942c14.202.12 28.145 1.933 41.484 6.995 6.698 2.542 7.7 5.845 4.395 12.223a2.88 2.88 0 0 1-2.994.324c-1.265-1.838 1.846-3.465.33-5.216-1.447-1.672-3.576-.551-5.344-.992-1.662-.414-2.318-1.738-2.724-3.195-.841-3.02-2.837-4.297-5.911-4.413-4.69-.178-9.208-1.713-13.937-1.804-3.722-.072-7.434-.94-11.046.862a4.016 4.016 0 0 1-4.205-.54 3.663 3.663 0 0 1-.048-4.244z"/><path fill="#604137" d="M250.699 101.593l.833-.002-.04 5.689c-1.245 1.622-.697 3.203.11 4.777a29.528 29.528 0 0 1-11.24 18.188 6.414 6.414 0 0 1-3.966 1.704 2.727 2.727 0 0 1-1.973-1.224c.202-2.079 2.149-2.565 3.402-3.67 2.33-2.054 2.269-2.635-.586-3.626a25.083 25.083 0 0 0-10.693-1.268c-3.795-.358-7.514.966-11.312.493-1.463-1.15-4.555.637-4.831-2.662 4.088-1.556 8.389-1.541 12.666-1.704 2.547-.097 5.111.239 7.638-.31a6.55 6.55 0 0 1 2.004-.081c3.051.548 6.078 1.231 9.082 2 2.32.608 3.505-.724 4.356-2.58a28.17 28.17 0 0 0 3.048-11.171c.449-1.536.333-3.258 1.502-4.553z"/><path d="M327.848 77.267c2.115 1.332 1.346 2.388-.464 2.918a17.98 17.98 0 0 0-5.199 1.968c-2.025-10.839-7.571-20.229-12.316-29.948l.944-.047c.135-.009.345-.078.392-.019 3.667 4.655 5.634 10.135 7.97 15.013-.02-.81-.85-1.968-1.315-3.181a28.483 28.483 0 0 0-1.783-3.619c-2.032-3.647-3.593-7.515-5.3-11.313-.7-1.558-1.482-3.255-.122-4.929l.916-.041c5.001 8.89 9.495 18.018 11.676 28.048.62 2.852 1.728 4.622 4.601 5.15z" class="cls-25"/><path fill="#7f808a" d="M445.39 322.882q-.057-28.938-.108-57.877a4.604 4.604 0 0 1 .688-3.08c.503.06.554.558.82.846q.076 28.113.117 56.226c0 1.57.277 3.259-.715 4.712-.51-.04-.555-.531-.802-.827z"/><path fill="#fafca0" d="M487.358 406.18l3.14-.02c-4.774 4.223-10.88 4.868-16.724 6.018a278.007 278.007 0 0 1-31.771 4.402c1.351-2.46 4.293-2.333 6.234-3.843 12.732-.257 24.959-3.341 37.15-6.625a2.879 2.879 0 0 1 1.97.068z"/><path fill="#484244" d="M407.964 27.152q-.01.298-.043.594l-28.32.1c-.71.229-1.031.049-.771-.738 4.421-.668 8.86-.204 13.284-.112 2.348.05 3.036-.779 2.854-3.02-.454-5.63-.764-11.271-1.124-16.908-.072-1.115-.912-2.825.742-3.031 1.992-.249 1.1 1.685 1.196 2.69.552 5.744 1.158 11.489 1.45 17.249.129 2.558 1.216 3.13 3.478 3.031 2.411-.104 4.835.084 7.254.145z"/><path d="M378.83 27.108l.772.739c-.024 6.934-.084 5.598 5.51 5.68 5.106.075 10.214.044 15.32-.01 2.24-.022 3.715.61 3.45 3.203a127.453 127.453 0 0 0-18.831-.361c.917 2.414 4.137 2.51 4.375 5.15l-1.208.238a54.513 54.513 0 0 1-7.812-5.506c-3.21-2.69-3.044-5.747-1.576-9.133z" class="cls-29"/><path fill="#656166" d="M429.982 266.122c1.014.994.659 2.276.66 3.446q.031 32.53.001 65.06c0 1.173.328 2.452-.655 3.457l-.006-71.963z"/><path fill="#565153" d="M351.231 78.914a10.867 10.867 0 0 0-2.728-.611c-4.213.153-4.34-2.026-3.055-5.103.925.502 1.21 2.368 2.798 1.419 1.202-.718.471-1.895.498-2.892.062-2.3-.88-4.76 1.039-6.779 2.229 1.579.442 3.858 1.165 5.783a38.418 38.418 0 0 1 1.083-13.552 3.055 3.055 0 0 1 .643-1.084 1.825 1.825 0 0 1 1.81-.13 2.003 2.003 0 0 1 .634 1.706 3.495 3.495 0 0 1-.542 1.123c-.086 5.133-2.72 9.796-2.723 14.96a41.647 41.647 0 0 1-.622 5.16z"/><path d="M398.195 416.783c2.113-1.286 4.517-1.101 6.703-.763 9.114 1.412 18.259.465 27.385.677a2.28 2.28 0 0 1 1.827-.467 1.268 1.268 0 0 1 .702.634c-12.208 1.234-24.415 1.725-36.617-.08z" class="cls-32"/><path d="M428.769 392.502l-.101-3.114c-.797-8.967.278-17.901.507-26.852a5.82 5.82 0 0 1 .664 1.817q.05 16.53-.019 33.06a4.411 4.411 0 0 1-.581 1.453l-.47-6.364z" class="cls-33"/><path fill="#868386" d="M359.363 21.374l-.742 1.55a6.675 6.675 0 0 1-4.728.388c-5.208-.976-10.45-.63-15.68-.765a7.865 7.865 0 0 1-2.77-.49 2.298 2.298 0 0 1-1.394-1.652c4.716-1.319 9.518-.667 14.267-.437 3.697.179 7.366.917 11.047 1.406z"/><path fill="#424044" d="M431.565 150.264c.24.454.688.907.688 1.361q.01 20.404-.063 40.807c0 .123.022.317-.043.359-.625.407-.423-.39-.704-.499l.122-42.028z"/><path fill="#4c4a4f" d="M446.22 240.946q.369-17.311.753-34.622c.027-1.17-.274-2.453.732-3.432l.327.615a79.388 79.388 0 0 1-.124 9.032l-.367 24.305c-.576 1.261-.074 2.624-.37 3.912a.668.668 0 0 1-.95.19z"/><path fill="#555654" d="M444.618 386.942c0 1.348-.468 2.748.446 3.994a.765.765 0 0 1 .385.953c-1.561 1.878-2.62 4.414-5.67 4.356-.038-.386-.23-1.039-.091-1.119 4.624-2.675 3.778-7.142 3.906-11.378.214-7.1.623-14.195.95-21.292.202-.35.402-.367.598.004l-.524 24.482z"/><path fill="#81828b" d="M448.669 99.338l-.29-8.999a15.067 15.067 0 0 1-.029-12.103c2.263-.54.783 1.717 1.655 2.218.153 6.81.407 13.623-.643 20.395-.704-.287-.278-1.092-.693-1.511z"/><path fill="#676468" d="M334.049 20.405l.985.904c-1.02 1.322-2.612 1.366-4.01 1.571a167.47 167.47 0 0 0-22.028 4.664 4.505 4.505 0 0 1-2.385.093 1.409 1.409 0 0 1-.94-.897c9.045-3.965 18.648-5.434 28.378-6.335z"/><path fill="#93939a" d="M450.208 35.871a2.496 2.496 0 0 1 .826 2.154c-.4 10.387.43 20.811-.935 31.17a.915.915 0 0 1-1.258-.37 8.808 8.808 0 0 1-.677-5.534c1.21-8.592.556-17.219.654-25.833a1.85 1.85 0 0 1 1.39-1.587z"/><path d="M447.717 413.536c-1.158 2.417-3.9 1.86-5.714 3.045q-3.596.14-7.191.282l-.157-.202c1.213-4.604 5.921-5.875 13.062-3.125z" class="cls-32"/><path fill="#39363a" d="M432.428 109.798c.986 1.01.622 2.283.624 3.456q.022 15.752-.012 31.504c0 .4-.007.8-.01 1.199-1.033-.09-.368-1.107-.826-1.51z"/><path d="M447.75 157.487v-35.48c2.413 2.089.744 4.711.924 7.092l-.293 28.388c-.21.364-.42.382-.631 0z" class="cls-42"/><path fill="#48494e" d="M447.705 202.892l.004-30.817q.316-.546.627.002c1.036 10.253.097 20.508.04 30.762q-.364.58-.719-.005z"/><path fill="#6d6c6c" d="M370.1 37.43c-3.531-7.182-3.812-14.726-2.501-22.447 1.999.687.89 2.117.79 3.306-1.065 6.381.596 12.399 2.456 18.39.323.817-.039.955-.746.751z"/><path fill="#908f90" d="M368.388 18.289c-.354-1.08.199-2.377-.79-3.306-.052-3.672-.426-7.358.822-11.003.58 4.765 1.217 9.518-.032 14.309z"/><path fill="#5a595a" d="M296.103 36.805l-.833.916c-1.52-2.077-.654-3.713.94-5.244a23.425 23.425 0 0 1 9.46-5.737 2.754 2.754 0 0 0 .503.561c-.227 1.806-1.835 2.066-3.067 2.768-2.9 1.65-5.617 3.505-7.003 6.736z"/><path fill="#49484e" d="M445.39 322.882l.802.827-.237 22.488c-1.532-4.918-.404-9.962-.675-14.941-.15-2.781.062-5.582.11-8.374z"/><path d="M448.669 99.338l.693 1.511-.12 19.332c-2.19-1.228-.87-3.142-.934-4.785l.36-16.058z" class="cls-42"/><path fill="#595659" d="M420.063 61.166c.376-.633.846-.565 1.212-.056q4.172 5.795 8.287 11.632a.805.805 0 0 1-.455 1.261 119.998 119.998 0 0 1-9.044-12.837z"/><path fill="#44444d" d="M446.22 240.946q.28.002.56.007c.962 5.364.439 10.754.286 16.138l-.276 5.68-.82-.845.25-20.98z"/><path fill="#6b6a6a" d="M378.903 53.372c-1.292 1.628-2.168-.4-3.277-.373-2.98-2.89-3.692-6.69-4.236-10.557a.565.565 0 0 1 .873.045c.917 4.419 2.17 8.633 6.64 10.885z"/><path d="M447.066 257.091l-.287-16.138c.485-1.328-.363-2.902.762-4.11.012 6.754.75 13.524-.475 20.248z" class="cls-1"/><path fill="#454245" d="M432.976 91.993c.524-1.065-.269-2.415.812-3.516v17.813l-.384.02-.399-6.439z"/><path fill="#4a4952" d="M448.336 172.077h-.314l-.314-.002c-1.547-4.867-.698-9.727.041-14.588q.316.006.632 0c-.04 4.863-1.515 9.722-.045 14.59z"/><path fill="#666" d="M354.576 58.794l-.048-1.01a46.535 46.535 0 0 1 2.852-7.696c.575-1.203.822-2.914 2.793-2.793l.638.756q-1.947 4.196-3.896 8.391c-.496 1.059-.726 2.398-2.34 2.352z"/><path fill="#525156" d="M450.208 35.871l-.826.798a22.645 22.645 0 0 1-7.358-8.066l.103-1.21a30.27 30.27 0 0 1 8.081 8.478z"/><path fill="#525055" d="M430.764 196.441a35.889 35.889 0 0 1-.063 16.114l.063-16.114z"/><path fill="#484a4e" d="M445.142 362.46l-.299.005-.298-.009V348.11l.428-.034.428 3.034-.259 11.351z"/><path d="M448.308 115.396c.58 1.542-.508 3.41.934 4.785.093 2.992.433 5.999-.568 8.92-.86-2.295.833-4.92-.925-7.095.09-2.211-.696-4.497.559-6.61z" class="cls-57"/><path fill="#585557" d="M411.163 48.185c2.497.962 5.128 5.111 5.043 7.956l-5.043-7.956z"/><path fill="#46444b" d="M449.419 69.291a2.51 2.51 0 0 1 .68-.097l-.094 11.26c-.885-.597-.502-1.601-.77-2.397-1.643-2.958-1.828-5.885.184-8.766z"/><path d="M322.216 83.738c2.402.154 4.893-.57 7.179.727a10.801 10.801 0 0 1-2.412.11c-2.994-.527-4.689.302-4.767 3.754z" class="cls-25"/><path fill="#666465" d="M330.085 84.655l2.56-.07v4.29l-.582.235z"/><path d="M447.657 202.834a2.156 2.156 0 0 0 .718.004c.045 3.245.581 6.512-.467 9.702l-.25-9.706z" class="cls-1"/><path fill="#a2a2a2" d="M372.263 42.487l-.873-.045c-1.283-1.45-.432-3.451-1.29-5.012l.745-.752c1.182 1.763.629 3.95 1.418 5.809z"/><path d="M449.419 69.291l-.183 8.766c-1.552 4.005-.24 8.21-.856 12.281-.264 5.38-2.058 10.512-1.853 16.049.205 5.536-.952 11.125-1.544 16.687-.425 3.987-1.203 7.964-1.267 11.953-.057 3.552-1.49 5.231-4.9 5.459.387-21.387.74-42.774 1.172-64.16.288-14.238.703-28.473 1.007-42.71.032-1.46-.345-2.925-.46-4.393-.126-1.599.79-.893 1.489-.62a38.928 38.928 0 0 1 7.358 8.066c1.471 7.67.943 15.412.395 23.088-.228 3.187-.428 6.347-.358 9.534z" class="cls-57"/><path d="M435.477 400.352a10.492 10.492 0 0 1-5.663.153c3.958-.5 4.302-3.088 4.192-6.458-.36-11.017.447-22.03.537-33.037.107-12.992.898-26.016.415-38.948-.365-9.77 1.06-19.44.171-29.276-.563-6.24-.578-13.075 1.142-19.487a1.39 1.39 0 0 1 .748.798c-1.278 14.22-.431 28.477-.73 42.715-.493 23.545-.797 47.095-1.162 70.643-.054 3.45-.008 6.9-.008 10.28 1.875.706 2.184-2.298 3.962-1.305-.163 2.261-1.552 3.397-3.604 3.922z" class="cls-33"/><path fill="#b5f856" d="M435.477 400.352c1.037-1.457 2.976-2.086 3.603-3.922a2.066 2.066 0 0 0 .697-.183l5.294-4.807a54.231 54.231 0 0 0 7.439 3.895c1.135 1.523.719 2.695-.84 3.58a13.765 13.765 0 0 0-2.727 1.6c-.097.09-2.051-.062-.433.941.174 4.703-3.676 3.324-6.088 3.888-2.209.518-6.483-2.752-6.945-4.992z"/><path fill="#413e45" d="M437.279 151.9a6.839 6.839 0 0 1 .79-.055l-.288 75.936c-.86-1.05-.604-2.316-.603-3.498q.028-36.192.101-72.384z"/><path fill="#424046" d="M437.02 274.097l-.749-.798c.001-5.729-.007-11.457.01-17.186.004-1.288-.45-2.691.78-3.731l-.042 21.715z"/><path fill="#4b4852" d="M437.14 249.056c-1.815-2.693-.61-5.692-.79-8.537-.228-3.58-.055-7.186-.055-10.781h1.003v12.125l-.158 7.193z"/><path d="M433.914 70.83c-2.737-.871-2.975-1.187-2.456-3.26 1.437-6.804 1.467-13.697 1.261-20.6-.034-1.127-.39-2.269-1.693-2.381a46.93 46.93 0 0 0-11.181.098c-.882.135-1.127 1.059-1.445 1.797a2.384 2.384 0 0 1-.758.924l-4.126-6.645c.266-1.158 1.173-.925 1.909-.78 4.792.947 9.666.108 14.47.708 1.857.231 2.815-.48 2.787-2.41-.026-1.77-.316-3.133-2.63-3.147-4.963-.03-9.91-.601-14.886-.454-1.71.05-3.528.275-5-1.007 3.26-2.06 7.026-.944 10.528-1.52 4.301-.71 8.797-.237 13.21-.275 2.189 1.45 1.553 3.776 1.602 5.76a211.448 211.448 0 0 1-1.592 33.191z" class="cls-29"/><path fill="#d1fc66" d="M452.523 395.683a7.902 7.902 0 0 1-7.45-4.243.832.832 0 0 1-.009-.505c2.025.245 3.939.244 5.742-1.076 1.83-1.338 3.903-.092 5.838-.192 6.632-.344 12.943 1.906 19.51 2.107 2.907.089 4.285 2.497 4.697 5.25.253 1.694.898 3.137 2.798 2.428 2.578-.961 4.91-.398 6.055 1.67 1.107 1.999-1.583 3.317-2.346 5.059-5.021 2.712-10.655 3.171-16.065 4.515-7.773 1.93-15.55 3.267-23.576 2.84-2.396-.214-4.791.102-7.214-.324-2.722-.479-4.005 2.093-5.847 3.45l-2.374.035c3.619-5.602 8.833-7.359 15.238-6.462 1.587.222 3.265-.18 4.842.071 6.04.964 9.79-1.462 11.388-7.321 1.243-.237 2.365.414 3.568.489 2.165.135 3.818-.72 4.195-2.877.424-2.42-1.461-3.486-3.377-3.673-3.419-.334-6.847-.956-10.315.38-1.792.69-4.699 1.691-3.965-2.43-.529.13-.735.792-1.333.81z"/><path fill="#6c7d3a" d="M452.523 395.683c.979-1.216 1.185-3.032 2.92-3.74.378 1.795-1.927 2.989-.915 5.12 3.823-.835 7.596-2.424 11.763-1.548 2.517.53 5.265.428 6.385 3.239a4.162 4.162 0 0 1-1.642 5.001c-2.56 1.858-5.011.987-7.284-.77l-.69-4.088c1.953-.237 2.106 1.795 3.246 2.594.972.681 1.918 1.014 2.962.282a1.81 1.81 0 0 0 .914-1.697c-.184-1.384-1.32-1.548-2.4-1.692-1.333-.179-2.775.196-4.003-.36-2.205-.996.048.995-.669.921a13.16 13.16 0 0 1-9.824 1.145c-2.032-.502-3.267.647-4.776 1.366l-3.272 1.253-.333-.478c1.782-1.102 3.503-2.32 5.364-3.266 1.435-.73 2.47-1.518 2.254-3.282z"/><path fill="#f5fc8d" d="M264.438 399.729l.926-1.556a5.647 5.647 0 0 1 4.13-1.27 87.886 87.886 0 0 0 11.672-.536 5.5 5.5 0 0 1 5.146 1.704c.328.802 1.195 1.418.849 2.453-.38-.12-.935-.468-1.116-.33-6.462 4.952-12.835.551-19.233-.148-.793-.086-1.583-.21-2.374-.317z"/><path fill="#c5fc5c" d="M194.9 403.015a5.106 5.106 0 0 1 3.201-.869c2.196.4 4.23-.54 6.348-.79a19.486 19.486 0 0 1 10.402 1.921c1.848.827 3.447.6 4.623-1.089 1.138-1.633 2.55-2.855 4.585-2.606a1.662 1.662 0 0 1 1.306 2.169c-.948 2.01-1.656 4.636-4.091 5.11-3.571.695-6.451 3.212-10.151 3.435-1.644.1-2.016 1.338-2.228 2.818-.492 3.433-2.42 4.484-5.165 2.734-2.582-1.646-4.963-3.605-7.448-5.405-2.822-2.046-3.74-4.427-1.382-7.428z"/><path d="M39.324 58.55c5.942-2.04 11.455-5.087 17.472-7.025 10.325-3.327 20.76-5.502 31.642-5.291a11.726 11.726 0 0 0 2.346-.43c3.331.908 6.804-.76 10.112.557l2.212.265c8.181 2.05 16.746 3.16 24.058 7.618 5.13 3.127 11.119 4.743 15.622 8.886 13.858 12.75 22.842 28.268 24.218 47.18.746 10.261-2.2 20.2-7.944 29.04-1.17 1.799-2.323 3.62-3.31 5.522-3.263 6.293-8.54 10.53-14.327 14.27-2.505.35-4.354 2.051-6.451 3.207C123.146 168.866 110.055 170.43 97 172a194.676 194.676 0 0 1-25 1.163c-16.04-.142-29.97-5.929-42.325-15.427-10.42-8.011-16.436-18.729-18.855-32.101-2.395-13.246-.79-25.776 2.886-38.226 2.703-9.152 9.352-15.903 16.057-22.375a27.065 27.065 0 0 1 9.56-6.485zM292.68 196.443c4.206 4.962 6.161 11.063 8.567 16.935a221.823 221.823 0 0 0 15.286 43.573c3.165 6.687 6.802 13.173 8.277 20.46 2.853 14.095 2.782 28.51-5.06 40.684-8.237 12.788-17.573 25.13-29.075 35.397-3.257 2.907-7.3 5.06-12.06 4.77-5.333.34-10.342-1.324-15.327-2.757-9.802-2.816-19.871-4.46-29.71-7.089-1.841-.492-3.627-1.05-4.667-2.846-7.21-3.197-15.275-4.373-21.789-9.215-8.347-12.772-10.424-26.854-8.652-41.717.302-2.535.836-5.041 1.263-7.56a3.677 3.677 0 0 1 2.985-.96c5.426.752 9.25-1.88 12.504-5.778a31.343 31.343 0 0 0 4.5-3.979c2.969-2.679 4.102-5.933 4.173-9.998a88.95 88.95 0 0 0-2.049-19.933 10.563 10.563 0 0 0-1.708-4.054c-.266-.298-.515-.612-.766-.923-1.101-1.833-3.516-2.751-3.68-5.245a6.263 6.263 0 0 1 1.746-2.676c11.17-12.087 13.463-25.358 5.245-39.97-1.781-3.166-2.3-6.043.948-8.586 3.026-2.799 6.273-3.764 10.295-1.928 8.844 4.039 17.574 2.756 26.152-1.047 3.498-1.002 6.667-2.84 10.093-4.034a6.591 6.591 0 0 1 4.319.282c7.929 2.863 13.314 8.654 17.75 15.512a3.04 3.04 0 0 1 .44 2.682z" class="cls-70"/><path d="M328.699 350.327c-1.578 14.247-5.12 27.868-12.358 40.412-1.38 2.39-3.872 3.095-5.53 4.93a2.776 2.776 0 0 1-1.033.946c-5.781 2.002-11.577 3.877-17.759 1.695-2.654-.263-3.025-2.115-3.182-4.307-.566-7.92-.48-15.868-1.394-23.783-.414-3.58-2.864-7.702-1.334-10.408 1.418-2.505 5.696-3.495 8.234-5.964 6.637-6.456 13.536-12.647 18.127-20.894 3.329-5.982 8.612-10.585 12.111-17.195 5.423 11.41 4.07 23.077 4.118 34.568zm-42.387 47.743c-6.987-1.026-13.963.564-20.948.102 3.128-7.639 6.616-15.165 7.397-23.542-.465-4.01.348-7.95.85-11.88.357-2.8 1.998-4.04 4.73-2.038 4.135-.597 5.718 1.194 6.118 5.36 1.023 10.65 2.06 21.283 1.853 31.999z" class="cls-70"/><path fill="#5f595b" d="M278.342 360.712c-2.585-.899-3.62-.139-3.784 2.747-.213 3.754-.22 7.61-1.797 11.171l-1.584 1.621c-1.82-1.688-.848-3.724-.737-5.672.672-11.863 2.273-9.435-8.34-12.157-10-2.565-20.05-4.936-30.215-6.779a4.831 4.831 0 0 1-2.966-3.007l-.008-3.066c7.88 3.705 16.628 3.968 24.868 6.261 8.237 2.292 16.554 4.3 24.835 6.432-1.4.67-.76 1.568-.272 2.449z"/><path fill="#fcfbfb" d="M309.964 395.679l.847-.01c1.052 2.53-1.16 3.68-2.51 4.548-3.4 2.186-6.346 5.23-10.494 6.147-5.556-.136-7.14-1.253-8.054-5.23-.568-2.474.762-2.344 2.387-2.084a57.134 57.134 0 0 0 13.872-1.547 7.527 7.527 0 0 0 3.952-1.824z"/><path fill="#918e8f" d="M309.964 395.679c-.115.37-.143.999-.359 1.072-5.664 1.925-11.328 3.95-17.465 2.298a.84.84 0 0 1-.12-.74 54.72 54.72 0 0 0 17.944-2.63z"/><path fill="#cdd1ea" d="M296.103 36.805c-.493-4.42 3.51-5.176 5.94-7.153 1.211-.985 3.014-1.092 4.13-2.351a147.367 147.367 0 0 1 28.861-5.992c7.904-.069 15.8-.015 23.587 1.614.977 1.296 1.69 2.343-.971 2.04-4.133-.47-8.278-.933-12.43-1.101-13.333-.542-26.146 2.019-38.661 6.527-3.995 1.44-7.022 4.2-10.456 6.416z"/><path fill="#fbfafb" d="M349.722 65.211c.115 2.984-1.139 6.057.702 8.958.235.37.611 2.322-.857 1.783-1.475-.543-5.042 1.45-4.119-2.752l1.892-14.364c.204-5.359-1.028-11.003 3.1-15.58 1.136-1.342 2.68-.616 4.044-.798 1.853.832 1.383 2.355 1.07 3.775-.742 3.367-1.749 6.666-2.662 9.989l-.196-.096c-.63 3.147-.934 6.4-2.974 9.085z"/><path d="M327.848 77.267c-4.41.213-4.501.23-5.251-3.72-1.59-8.38-5.37-15.912-8.878-23.561-.874-1.905-2.375-3.605-2.148-5.917 2.541-.55 3.71 1.31 4.736 2.98 1.678 2.73 3.085 5.626 4.606 8.453l6.935 21.765z" class="cls-76"/><path d="M331.685 68.616c-.553 2.656 1.203 5.517-1.015 8.912-1.815-8.973-6.245-16.28-7.963-24.533.199-1.855-.736-3.698-.001-5.575.362-.925-.19-2.407 1.285-2.618 1.445-.206 1.635 1.222 1.952 2.148 2.258 6.585 4.657 13.138 5.278 20.155a7.449 7.449 0 0 0 .464 1.511z" class="cls-77"/><path d="M344.017 59.46c-1.744 4.12-.7 8.39-.552 12.584.09 2.58-.627 4.073-3.34 4.187l-1.165-19.997c-.685-3.628 1.136-7.068.6-10.832-.293-2.066 2.721-1.106 4.308-1.29a30.406 30.406 0 0 1 .15 15.347z" class="cls-78"/><path fill="#f5f5f5" d="M337.51 74.858l-3.166.708-1.047-8.8c-1.113-7.36-1.499-14.796-2.789-22.163 1.901.918.789 2.647 1.663 3.753.669-1.292-.015-3.32 2.297-4.112 1.079 3.056.567 6.222.708 9.314 1.218 1.498.853 3.428 1.4 5.109.204 1.748-.046 3.526.348 5.262a14.649 14.649 0 0 0 .507 3.824c.43 2.365.862 4.728.08 7.105z"/><path d="M338.177 32.74c.403-2.404.863-4.804 2.89-6.456 1.304-1.061 2.649-1.17 2.903.849.51 4.044 1.703 8.115.071 12.181a4.78 4.78 0 0 1-5.768.109 14.902 14.902 0 0 1-.096-6.682z" class="cls-80"/><path d="M357.76 35.154c-.636 3.742-3.748 3.528-6.118 3.134-3.114-.517-.256-3.263-1.112-4.797-.23-2.105-.141-4.074 2.163-5.104 1.833-1.956 3.618-3.036 5.16.284a5.41 5.41 0 0 1-.093 6.483z" class="cls-76"/><path d="M352.693 28.387l-2.163 5.104c-1.286.828-1.237 2.256-1.415 3.493-.274 1.899-1.112 2.217-2.661 1.307-.138-3.31.116-6.7-.528-9.909-.62-3.094.794-3.306 2.805-2.583 1.424.512 4.598-1.164 3.962 2.588z" class="cls-81"/><path fill="#efefef" d="M310.654 44.11c.467 5.827 3.97 10.491 6.064 15.691 1.141 2.833 2.644 5.516 2.671 8.73-1.92-5.97-6.494-10.51-8.576-16.373-.888-3.372-3.241-5.888-5.36-8.692a7.277 7.277 0 0 1 5.201.644z"/><path d="M328.668 39.052c.222-4.004-1.637-8.47 2.803-11.834 2.168 4.071 2.346 8.398 2.565 12.715-2.096 1.575-3.944 1.636-5.368-.88z" class="cls-83"/><path d="M310.735 35.956c-.924-5.425-.924-5.425 6.304-7.031-.99 3.495-.154 6.844.133 10.219-2.19 1.752-3.983.804-5.681-.826a3.13 3.13 0 0 1-.756-2.362z" class="cls-76"/><path d="M311.51 37.036a5.059 5.059 0 0 0 5.662 2.107c2.391 4.795-.818 2.153-2.786 2.508-5.004.901-9.43-.698-13.987-1.98-.676-.19-1.752-.418-1.482-1.497.187-.75 1.055-.613 1.696-.666 2.15-1.352 4.135.574 6.232.296a6.87 6.87 0 0 1 1.073-.011 4.83 4.83 0 0 0 3.593-.757z" class="cls-84"/><path d="M318.96 39.077c-.178-3.352-2.34-7.008 1.49-9.748 2.067-.682 2.54.91 2.971 2.252a25.692 25.692 0 0 1 1.53 6.922 1.647 1.647 0 0 1-.706 1.155 4.565 4.565 0 0 1-5.286-.581z" class="cls-77"/><path d="M323.868 27.218l4.833-.405c-2.676 4.389-1.698 8.81-1.96 13.095-1.472.237-1.625-.928-1.99-1.87-.87-2.346-1.181-4.845-2.054-7.205-.481-1.3-.797-2.929 1.17-3.615z" class="cls-85"/><path d="M325.225 38.427c.155.853.856 1.146 1.516 1.48a1.746 1.746 0 0 0 1.927-.855c1.587 1.525 3.586.54 5.368.881 2.46.43 3.673-.387 3.463-3.096-.105-1.359-.467-2.89.678-4.096l.143 6.455c1.096 1.85 3.64.877 4.857 2.493-3.158 1.58-6.524.385-9.775.734-1.303-1.226-2.614-1.031-3.93-.023-1.366.068-2.745.214-3.922-.73-1.404-.436-1.73-1.352-1.183-2.657a1.715 1.715 0 0 1-.013-.615.583.583 0 0 1 .871.03z" class="cls-22"/><path d="M363.56 35.143c.514 3.227-1.964 2.216-3.527 2.48-2.408.405-1.453-1.404-1.612-2.476-.736-2.167.392-4.312.077-6.474.193-.637.423-1.504 1.104-.395 1.381 2.25 2.646 4.572 3.959 6.865z" class="cls-86"/><path d="M350.44 43.255c-2.147 4.972-1.63 10.474-3.1 15.58-1.955-3.144-.534-6.608-.938-9.9 1.426-1.928.04-4.516 1.508-6.434z" class="cls-22"/><path fill="#f3f3f3" d="M336.726 36.038a16.823 16.823 0 0 1-2.645-8.638c-.213-3.326 3.026-1.285 5.14-2.124-1.753 3.433-2.901 6.524-2.495 10.762z"/><path d="M352.892 56.222c-1.484-2.51.628-4.557.914-6.84.289-2.305 1.977-4.46.678-6.924l2.302-.997.136.16a21.312 21.312 0 0 1-2.53 14.59z" class="cls-22"/><path d="M306.733 38.402c-2.22.934-4.025-.972-6.12-.894-.084-.548-1.893-.653-.408-1.606 1.558-1 3.109-2.01 4.663-3.016a5.002 5.002 0 0 1 1.865 5.516z" class="cls-88"/><path d="M344.017 59.46l-.149-15.348.93-.058a49.72 49.72 0 0 1 .848 12.22c-.02 1.139.335 2.44-.964 3.215-.282.34-.533.337-.75-.067z" class="cls-22"/><path d="M311.51 37.036c-.28 3.019-1.684 2.823-3.57 1.249-1.639-1.584-2.338-3.392-1.334-5.604 2.655-.52 2.485 2.52 4.13 3.275z" class="cls-88"/><path fill="#d2d2d2" d="M336.771 67.578c-1.358-.917-.976-2.22-.775-3.483.633-2.373.079-4.764.314-6.566a1.216 1.216 0 0 1-.574 1.151c-1.16-1.6-.709-3.378-.56-5.122 1.242-1.064.03-2.89 1.22-3.969.376 1.942-.057 4.036 1.119 5.823l.07 7.297c.375 1.731.441 3.41-.814 4.87z"/><path d="M324.367 39.013q.59 1.329 1.182 2.657c-3.142 1.54-5.67 1.517-6.59-2.593a11.04 11.04 0 0 0 5.408-.064z" class="cls-84"/><path fill="#767689" d="M343.177 41.69c-1.675-.724-4.963 1.696-4.857-2.494q2.86.06 5.721.118l.612.76-.8 1.479a2.651 2.651 0 0 0-.676.136z"/><path d="M325.225 38.427q-.436-.014-.871-.03c-.749-2.458-1.567-4.898-2.21-7.384-.26-1.003-.568-1.683-1.695-1.684 1.24-.541 1.574-2.55 3.419-2.112-2.125 1.828-.144 3.666.065 5.46a52.25 52.25 0 0 0 1.292 5.75z" class="cls-84"/><path fill="#c4c2c2" d="M347.91 42.501c.257 2.323.546 4.653-1.508 6.434-.2-1.585.4-3.293-.725-4.737.994-.237.697-2.173 2.233-1.697z"/><path fill="#717171" d="M306.606 32.68c-.359 2.06.764 3.766 1.334 5.605l-1.207.117-1.865-5.516z"/><path fill="#3f3f3f" d="M358.498 28.673c1.14 2.172-.04 4.316-.077 6.474l-.661.007.093-6.483.645.002z"/><path fill="#727186" d="M329.471 42.4c.174-2.502 2.117-1.54 3.382-1.602 1.47-.071.849.909.55 1.625l-3.932-.023z"/><path d="M211.918 235.467c-7.198 2.672-12.66-1.453-18.352-4.683-1.512-.858-.648-1.803-.038-2.628 7.023-9.5 3.196-18.908-.43-28.174a36.16 36.16 0 0 0-8.185-11.856 14.365 14.365 0 0 0-7.853-4.568c-1.628-.781-2.809-1.538-2.276-3.883a275.773 275.773 0 0 0 5.409-37.285 48.47 48.47 0 0 1 2.55-11.262c2.797-8.296 7.89-14.856 18.633-14.265 4.825 1.189 6.745 5.143 8.468 9.146a25.307 25.307 0 0 1 1.616 6.544c1.515 7.167 1.33 14.342 1.135 21.66-.336 12.571 1.508 24.89 7.899 36.242 4.525 8.039 8.07 16.565 5.596 26.23a32.845 32.845 0 0 1-8.424 15.417c-1.573 1.578-3.168 3.386-5.748 3.365z" class="cls-70"/><path d="M176.025 184.346c13.977 7.85 19.46 20.319 19.64 35.78.035 3.035-1.755 4.955-3.241 7.158-.968 1.433-1.744.643-2.575-.127-5.734-5.31-11.447-10.634-13.48-18.623 2.772-5.726-.962-10.596-2.155-15.783-.293-1.276-1.178-2.408-.447-3.785.667-1.582-1.541-4.568 2.258-4.62z" class="cls-80"/><path fill="#fca511" d="M208.7 72.443c3.812-1.565 7.823-1.594 11.862-1.776 3.33-.15 3.99 1.34 3.338 4.096-1.334 5.645-4.881 10.07-8.162 14.639-3.913-.34-6.266-3.127-8.578-5.764a8.092 8.092 0 0 1-1.742-3.927c.4-2.736 1.985-4.937 3.282-7.268z"/><path fill="#fa682c" d="M200.23 92.044v11.537c-1.999-3.914-4.329-5.55-8.49-3.046-2.32 1.396-6.253-2.126-5.88-4.965.958-7.288 4.848-12.853 10.646-17.193a16.845 16.845 0 0 1 .479 8.625 19.099 19.099 0 0 0-.506 3.163 3.277 3.277 0 0 0 1.29 3.194c1.323.81 1.236-1.592 2.462-1.315z"/><path fill="#fa7e12" d="M205.418 79.71a42.86 42.86 0 0 0 8.301 8.558c.65.477 1.161 1.075 2.02 1.134-3.02 3.928-5.365 8.426-9.587 11.338-1.859 1.03-3.292 1.79-3.246-1.62.068-5.056-.768-10.134.501-15.149.39-1.544.627-3.177 2.01-4.26z"/><path fill="#fb860d" d="M224.099 104.921a37.965 37.965 0 0 1-11.391 5.562c-3.363-1.072-4.745-3.37-4.964-8.256q.059-.312.122-.623c3.763-1.241 5.23-5.03 8.083-7.282 5.433 2.363 8.474 6.319 8.15 10.6z"/><path fill="#f97d18" d="M200.23 92.044c-.188.9-.315 1.82-.58 2.698-.38 1.265-1.517 1.499-2.044.513-.975-1.824-3.442-3.078-2.065-5.947 1.653-3.444-.046-7.337.965-10.931a23.648 23.648 0 0 1 8.38-4.566 45.6 45.6 0 0 0-4.655 18.233z"/><path d="M176.345 161.16a6.066 6.066 0 0 1-6.177 5.626 5.61 5.61 0 0 1-5.088-5.646 6.316 6.316 0 0 1 6.173-5.722c2.529.144 5.168 3.12 5.092 5.743z" class="cls-80"/><path fill="#332a2b" d="M210.41 132.346a20.766 20.766 0 0 0-9.034-15.483l-3.235-3.069a1.477 1.477 0 0 1 .983-1.656c.089-.099.257-.2.254-.296-.092-3.08 1.932-4.08 4.474-4.58 1.35 1.672 1.233 3.566.83 5.503.164 1.157-.63 2.53.769 3.409 2.867-.19 4.568 1.039 4.846 3.992 1.177 1.851 3.634-.11 4.849 1.628-.53 1.077-1.676 1.391-2.533 2.058-1.053 1.596-.23 3.38-.52 5.041-.225 1.292.43 3.065-1.684 3.453z"/><path d="M185.395 107.329c.043-.971.094-1.64.097-2.31a3.022 3.022 0 0 1 2.493-3.216c1.628-.238 2.122 1.505 2.41 2.715.736 3.085.51 6.336 1.755 9.372.554 1.352-.912 1.726-1.87 2.104-1.357.535-2.322-.08-3.015-1.246a15.494 15.494 0 0 1-1.87-7.42z" class="cls-85"/><path d="M199.124 112.138l-.983 1.656c-1.327-.944-3.486 1.636-4.223-.643-1.141-3.535-2.383-7.362.403-10.708 1.417-1.702 2.924-1.015 3.557.988a22.143 22.143 0 0 1 1.246 8.707z" class="cls-83"/><path fill="#e76c1d" d="M204.682 112.765c-1.121-1.707-.372-3.697-.83-5.504-.589-3.136 1.566-4.151 3.892-5.034 1.9 2.605 1.592 6.536 4.963 8.256-2.386 1.776-5.37 1.449-8.025 2.282z"/><path fill="#e4e3e3" d="M173.767 188.966c1.935 4.016 2.963 8.341 4.239 12.578.785 2.607 1.297 5.222-1.638 6.99-1.724-4.182-2.28-8.663-3.325-13.02.38-2.167-.53-4.477.724-6.548z"/><path fill="#deddde" d="M184.05 112.944c.943 2.58 3.57 3.15 2.71 5.502-.197.54-1.5 1.922-2.112 1.245-1.383-1.528-1.477-3.595-.597-6.747z"/><path d="M219.564 277.428c-.507 1.793-2.007 2.492-3.509 3.188a8.82 8.82 0 0 0-2.488 2.018c-3.717 4.543-8.522 4.776-13.717 3.532l3.332-20.923c1.197-2.03 2.136-.547 3.12.201 1.189-5.235.629-10.695 2.286-15.853.278-.865-.743-1.653-1.073-2.497-1.359-.137-2.671-.204-2.517-2.201a9.085 9.085 0 0 0-.21-3.949c-.317-1.108-.023-1.699 1.253-1.708a12.817 12.817 0 0 0 5.925-1.369 2.215 2.215 0 0 1 1.52-.977c3.192-.26 4.225 2.955 6.558 4.081l-.065-.065c3.54 5.348 3.459 11.63 4.415 17.617.376 2.357-.163 4.85.108 7.235.556 4.888-1.621 8.49-4.938 11.67z" class="cls-70"/><path fill="#463e3f" d="M213.509 237.622l-1.543.245-.048-2.4c14.41-11.116 18.298-25.393 8.35-43.073-7.034-12.5-9.063-25.698-8.77-39.602.144-6.846.446-13.693-1.089-20.446 1.348-2.391.66-4.949.454-7.415-.09-1.098-.047-1.8.938-2.302a3.293 3.293 0 0 1 1.017 1.637 20.836 20.836 0 0 1 .194 3.983c.058 5.106 1.654 6.584 6.87 5.934a32.779 32.779 0 0 0 10.01-2.667c1.397-.657 2.775-1.74 4.5-.897l1.836.805a44.16 44.16 0 0 1 3.356 6.455c1.093 2.206 2.61 3.139 5.208 2.705 2.602-.434 5.353-1.024 7.84.656.627 2.098-1.027 2.446-2.336 3.062a79.612 79.612 0 0 0-10.183 2.131c-6.533 2.063-11.124 6.215-14.48 11.981-1.268 1.815-1.776 4.018-2.98 5.868-1.475 1.17-2.25.52-2.68-1.026.238-6.701 3.933-11.493 8.728-15.652a27.406 27.406 0 0 1 2.35-1.563c5.612-3.922 5.614-3.92 3.136-10.466-5.069 3.352-10.807 4.13-16.666 4.352-2.013.076-3.052 1.031-2.893 3.011.92 11.455-.63 23.15 3.323 34.314.403 1.139.82 2.286 1.127 3.448.645 2.442 2.074 3.201 4.421 2.367 1.29.655 1.29 1.576.552 2.65-2.562 1.978-2.16 3.907-.777 6.694 3.647 7.351 6.877 14.868 4.948 23.552-1.57 7.06-5.1 12.892-9.817 18.175-.78.874-1.982 1.422-2.24 2.728-.724.819-1.897.062-2.656.756z"/><path d="M204.787 240.944c1.42 1.482.141 3.62.964 4.997 1.593.96.943-3.208 2.867-.834.164 6.22-1.541 12.282-1.578 18.487-.006.935.013 1.916-.962 2.493-.904-.49-1.544-1.889-2.896-.844a139.812 139.812 0 0 0 1.605-24.299z" class="cls-86"/><path fill="#737373" d="M199.85 286.166c5.555.5 10.821.187 14.417-5.002a1.452 1.452 0 0 1 1.788-.548c-3.743 6.442-9.719 7.244-16.322 6.461z"/><path d="M417.802 45.994c-.605-1.485-1.639-2.987 1.438-2.821 4.04.217 8.098.13 12.146.071 1.763-.025 2.651.348 2.646 2.43-.019 7.154-.403 14.283-1.015 21.406-.133 1.538-.626 1.64-1.56.49a33.772 33.772 0 0 0-10.351-15.404c-.95-2.138-2.684-3.858-3.304-6.172z" class="cls-70"/><path fill="#7171a3" d="M410.165 33.673q10.824-.04 21.649-.086c1.3-.007 2.037.522 2.034 1.89-.003 1.617-.018 3.234.01 4.85.026 1.596-.839 2.347-2.278 1.958-4.39-1.189-8.852-.598-13.26-.509-1.805.036-3.039-1.58-4.802-1.012-2.494-1.715-3.318-4.216-3.353-7.091z"/><path fill="#72729d" d="M389.426 41.51c-2.22-1.98-5.373-2.922-7.021-6.33 6.35 0 12.321.019 18.292-.012 1.358-.007 2.114 1.06 3.186 1.553l3.35 3.352c-.128 2.147-1.791 1.586-2.987 1.586-4.94 0-9.88-.091-14.82-.15z"/><path fill="#555355" d="M417.802 45.994c1.245 1.98 3.194 3.584 3.304 6.172a13.524 13.524 0 0 1-3.463-4.758l.159-1.414z"/><path d="M231.411 351.01c.623-.17 1.306-.6 1.86-.473 12.424 2.866 24.827 5.819 37.252 8.682 2.07.477 1.964 1.786 1.817 3.362-.424 4.554-.78 9.113-1.163 13.67-3.192 9.188-6.405 18.345-11.734 26.618-1.545 2.398-3.097 3.93-6.06 3.4a4.908 4.908 0 0 1-5.49 1.43 5.628 5.628 0 0 0-3.554-.014c-4.184.583-8.075-.862-11.576-2.627-3.213-1.62-4.157-5.452-5.027-8.774-2.916-11.131-5.51-22.348-8.509-33.456-.582-2.156 1.408-1.756 1.712-2.823 3.468-3.025 6.97-6.011 10.472-8.995z" class="cls-70"/><path d="M231.411 351.01a20.664 20.664 0 0 1-10.472 8.994c-1.904.226-2.962-.127-3.629-2.428-1.413-4.876-3.461-9.569-5.421-14.796l17.03 5.856c.65.981 2.685.509 2.492 2.374z" class="cls-80"/><path d="M244.339 407.685c2.87-1.395 6.146-.2 9.045-1.415.435 1.634 2.223.208 2.913 1.268-5.775 10.617-16.667 10.258-24.256-1.22 5.111 1.041 9.75 3.316 14.852 2.009-.692-1.082-1.784-.218-2.554-.642z" class="cls-77"/><path d="M336.771 67.578l.814-4.869a19.494 19.494 0 0 1-.075 12.149c.463-2.499-.462-4.856-.739-7.28z" class="cls-8"/><path d="M343.933 59.422a.797.797 0 0 0 .749.067c.045 2.473.31 4.957-.75 7.403z" class="cls-78"/><path d="M252.397 141.418c-2.01-.016-4.035-.199-6.026-.017-6.314.576-6.37.653-8.648-5.257-.588-1.525-2.055-2.821-1.496-4.72 6.513-2.69 9.783-8.334 12.85-14.148.901-1.708.984-3.815 2.525-5.218 2.148 3.712 5.539 6.16 8.838 8.709 4.59 3.544 8.738 7.36 11.771 12.53 3.646 6.216 8.51 11.635 11.968 18.075 5.672 10.564 9.42 21.901 13.825 32.956a23.019 23.019 0 0 1 .473 15.107c-1.661-.534-2.094-2.138-3.185-3.046-3.642-2.35-5.011-6.57-7.908-9.597a34.714 34.714 0 0 0-12.048-8.581c-1.369-.557-2.826-1.052-3.133-2.814.024-1.466.984-2.608 1.352-3.958 4.335-9.023-1.483-26.951-15.825-28.319a10.118 10.118 0 0 1-5.333-1.702z" class="cls-70"/><path fill="#524e50" d="M272.452 175.329c1.015 1.909 3.169 1.865 4.79 2.58 8.53 3.766 13.829 10.57 18.05 18.48l-2.612.053c-4.722-7.943-10.548-14.65-19.703-17.654a3.997 3.997 0 0 0-2.72-.185 2.86 2.86 0 0 1 2.195-3.274z"/><path fill="#fca010" d="M224.099 104.921c-1.27-3.883-3.241-7.23-7.107-9.062a1.796 1.796 0 0 1-1.043-1.538c3.127-4.538 6.525-8.92 8.525-14.13a22.086 22.086 0 0 0 1.208-4.248c.809-4.862 1.733-5.352 6.269-3.099a37.302 37.302 0 0 1 7.736 5.092c4.218 3.616 4.539 4.56 1.768 9.538-4.13 7.42-9.652 13.542-17.356 17.447z"/><path fill="#fc9912" d="M250.699 101.593c-.176 1.633.167 3.336-.658 4.882-1.596 1.444-2.531 3.46-4.189 4.857-.52.147.178.224-.343.198-6.316-.317-12.806.437-18.642-2.92a1.81 1.81 0 0 1-1.109-1.949c3.861-3.067 7.988-5.86 11.508-9.278a26.076 26.076 0 0 0 7.482-13.045c4.24 5.385 4.613 11.49 5.951 17.255z"/><path fill="#fb880c" d="M225.758 106.661c3.72 1.757 7.094 4.66 11.753 3.133a5.087 5.087 0 0 1 4.267.664 3.466 3.466 0 0 0 4.126.049c1.126 2.157-.666 2.996-1.848 4.115-3.383 2.367-6.817 4.608-11.253 4.07l-1.305-.01c-3.826.704-7.692.351-11.525.243-3.463-.098-4.789-3.507-3.188-7.523z"/><path d="M216.785 111.402c.109 6.34.962 7.192 7.098 7.19 2.538-.001 5.076.058 7.615.09l-21.2 1.484a10.039 10.039 0 0 0-4.847-3.992c3.181-3.008 7.654-2.949 11.334-4.772z" class="cls-113"/><path d="M100.896 46.36c-3.373-.122-6.772.23-10.11-.555 3.371.134 6.874-2.078 10.11.556z" class="cls-13"/><path d="M354.391 56.211l2.531-14.59c2.19-.856 4.485-.78 7.159-.813l-3.908 6.487-5.645 10.488-.137-1.572z" class="cls-77"/><path fill="#fb6d28" d="M234.391 130.619c-5.96 2.82-11.904 5.429-18.84 4.505-2.942-.392-3.998-1.544-3.774-4.375.168-2.137.082-4.295.11-6.443 1.043-.977 2.016-.279 2.947.182a16.273 16.273 0 0 0 3.804 1.293c5.785 1.255 6.683.792 8.71-4.609 4.383-.561 8.45.656 12.532 2.055 2.171.744 2.285 1.682.67 2.963-1.977 1.57-4.1 2.96-6.159 4.429z"/><path fill="#fb8711" d="M227.347 121.172c.79 4.573-1.589 6.959-6.22 6.258a33.233 33.233 0 0 1-9.24-3.124l-.086-1.677 3.345-.835c4.073-.087 8.09-1.27 12.201-.622z"/><path fill="#fa722e" d="M243.503 113.759c1.275-.734 2.372-1.6 2.401-3.252 1.003-1.73 1.567-3.91 4.136-4.032.478 4.934-1.96 9.029-3.935 13.218-.846 1.794-2.44 2.325-4.277 1.104-2.082-1.166-1.91-2.67-.54-4.229a26.103 26.103 0 0 0 2.215-2.81z"/><path d="M243.503 113.759c.224 2.532-4.1 3.983-1.675 7.039a44.946 44.946 0 0 1-9.024-2.106 28.493 28.493 0 0 0 10.7-4.933z" class="cls-113"/><path fill="#a5a3a3" d="M349.722 65.211a24.001 24.001 0 0 1 2.974-9.085c.581 5.245-2.302 10.1-1.284 16.312-1.59-2.908-.06-5.383-1.69-7.227z"/><path fill="#cef764" d="M463.11 398.945c-.649-1.483-1.923.391-2.97-.807 3.376-1.769 6.69-1.182 9.948-.355a2.01 2.01 0 0 1 1.492 2.493 3.793 3.793 0 0 1-1.959 2.859c-1.552.738-2.847.122-4.076-.76-1.216-.872-1.037-2.76-2.486-3.478z"/><path d="M53.022 136.64c1.777-5.347 3.006-10.778 7.185-15.191A75.481 75.481 0 0 1 83.88 104.33c5.22-2.383 11-3.177 16.166-5.378 5.088-2.168 10.798.309 15.437-3.034 2.027 3.389 1.082 7.224 1.59 10.839.294 2.088-.203 4.249.367 6.34a67.753 67.753 0 0 0 .475 8.11c.13 5.377.488 10.744 1.131 16.076.235 1.943-.205 2.547-2.14 2.885-3.619.634-7.267.411-10.872.527-12.225.39-24.432.884-36.6 2.184a18.978 18.978 0 0 1-4.436-.098 13.244 13.244 0 0 0-7.98-1.991 5.715 5.715 0 0 1-3.846-.81 3.513 3.513 0 0 1-.15-3.34z" class="cls-70"/><path fill="#767273" d="M64.44 142.055c9.78-.546 19.557-1.147 29.34-1.619q10.668-.515 21.35-.727c2.506-.051 3.754-.09 3.147-3.495-.89-4.986-.715-10.163-.994-15.259.566-.756-.199-1.92.78-2.55.501 5.726 1.123 11.445 1.456 17.181.176 3.049 1.3 4.46 4.451 3.93 3.718-.627 7.775.983 11.185-2.11.749-.679 2.684.502 3.845 1.416.682 1.73.077 2.525-1.76 2.424.189-1.684-.938-1.158-1.832-1.122-16.775.684-33.557 1.227-50.324 2.08-9.077.462-18.127 1.446-27.189 2.194-.654-.74-2.336.434-2.447-1.317 2.79-2.159 5.923-1.316 8.993-1.026z"/><path fill="#6c696a" d="M116.97 113.159c-1.408-5.668-.061-11.574-1.487-17.24.452-2.16-.26-2.783-2.544-2.511-8.554 1.018-17.012 2.31-25.032 5.7-2.333.987-4.844 1.554-7.274 2.313q-.427-.242-.286-.486c.093-.163.187-.245.283-.245 9.032-4.346 18.363-7.562 28.494-8.165 4.763-.283 5.983-1.95 5.756-6.724-.135-2.83-.278-5.661-.385-8.493-.009-.23.232-.47.906-1.743 1.488 12.535 2.128 24.15 2.385 35.797-.46.514-.019 1.436-.816 1.797z"/><path fill="#5c5859" d="M80.63 100.69a4.028 4.028 0 0 0 .003.731c-8.74 4.547-16.764 9.985-23.545 17.29a16.973 16.973 0 0 0-4.666 13.193 11.093 11.093 0 0 1-.246 3.166c-.794-3.531-1.781-7.012-1.574-10.663-.145-.954-1.107-2.153.75-2.508l.385 2.15a222.667 222.667 0 0 1 13.42-23.316.967.967 0 0 1 1.272.166l-7.018 12.056c4.494-2.974 8.95-5.743 13.233-8.762a17.855 17.855 0 0 1 7.986-3.503z"/><path fill="#636061" d="M48.356 103.98l-2.755-25.772c-1.281-.438-1.006 1.895-2.693 1.267.937-1.738 1.48-4.367 2.863-4.93 2.073-.843 3.527 1.34 4.676 3.182-1.7.98-2.04-1.257-3.616-.94l2.35 24.54c.035.981 1.074 2.275-.825 2.654z"/><path fill="#767274" d="M48.356 103.98c.902-.688.563-1.763.826-2.652l2.17 20.57c-.88.648-.548 1.658-.75 2.509a93.314 93.314 0 0 1-2.246-20.426z"/><path fill="#6e6b6c" d="M66.43 100.899l-1.274-.166c-.799-1.395-1.873.48-3.16-.616 1.856-1.203 3.625-2.348 5.393-3.496.86-.559 1.828-.826 2.424.175a8.481 8.481 0 0 1 .978 2.948c.08.496-.83 1.098-1.063.683-1.609-2.881-2.12 1.055-3.299.472z"/><path fill="#494646" d="M55.45 143.657l2.445.741c-3.932.203-7.78 1.768-11.853.784.176-.238.335-.576.426-.558 7.124 1.38 5.641-4.286 6.554-7.984l.074 3.028c1.111 1.137 1.274 2.834 2.355 3.989z"/><path fill="#676365" d="M137.24 141.246a2.314 2.314 0 0 0 1.76-2.424c.765.076 1.77-.266 2.152.608.307.699-.442 1.193-.97 1.588a46.837 46.837 0 0 1-2.65 1.84c-.474.306-1.098.438-1.086-.367.006-.419.513-.83.793-1.245z"/><path fill="#585355" d="M116.97 113.159l.816-1.797.276 7.044-.779 2.549z"/><path fill="#4f4b4c" d="M224.05 185.717c.001-.89.092-1.814-.885-2.333a7.08 7.08 0 0 0-.921-5.294 20.393 20.393 0 0 1-3.227-11.094c.003-1.519-.387-3.349 1.65-4.118.163.872.229 1.883 1.554 1.08a2.178 2.178 0 0 1 1.103 1.523c.21.913.135 1.864.298 2.778.96 5.39 2.934 9.736 8.962 11.47 4.628 1.332 9.08 3.095 14.01 2.584 1.594-.056 3.22.218 4.753-.471 2.12-.695 4.194-1.614 6.512-1.366a4.594 4.594 0 0 1 2.829 2.218 30.976 30.976 0 0 1-29.303.512c-3.617-1.747-4.8 1.993-7.334 2.51z"/><path fill="#fcfcfc" d="M283.578 206.886c-.696-2.451-2.62-4.564-2.031-7.37-1.13-2.294-.063-3.722 1.893-4.798 6.855.034 8.161 5.599 10.3 10.333.475 2.208.356 4.152-1.774 5.618-2.305 1.587-3.691-.561-5.437-1.155-1.29-.438-1.773-1.96-2.951-2.628z"/><path fill="#3d3a3b" d="M260.688 182.694a2.836 2.836 0 0 1-2.585-1.606 2.61 2.61 0 0 1 1.768-1.503c5.163-1.496 9.026-4.84 12.545-8.697a1.766 1.766 0 0 1 1.89 1.186c.103 1.495-1.063 2.269-1.854 3.255l-2.196 3.274c-3.034 1.726-6.022 3.56-9.568 4.091z"/><path fill="#727272" d="M219.564 277.428c6.688-7.86 4.633-16.859 3.367-25.762a44.61 44.61 0 0 0-2.952-10.76c4.003 2.89 3.026 7.601 4.105 11.523 1.474 5.36 1.132 10.915.833 16.397a9.972 9.972 0 0 1-5.353 8.602z"/><path fill="#7b7b7b" d="M283.578 206.886c1.006-.443 1.371.439 1.928.93 1.667 1.47 3.38 3.129 5.81 2.44 2.604-.739 1.63-3.45 2.425-5.205 1.597 1.93 1.026 3.735-.444 5.358-1.615 1.783-3.58 1.575-5.496.558-1.78-.945-3.504-2.01-4.223-4.08z"/><path fill="#777" d="M213.509 237.622c.682-.964 1.724-.669 2.656-.756 1.47 1.2 3.07 2.28 3.88 4.105-2.668-.163-3.478-3.95-6.536-3.349zm69.931-42.904c-1.038 1.439-2.272 2.8-1.893 4.799-2.091-1.903-1.368-3.737 1.893-4.8z"/><path d="M335.736 58.68l.45-2.235c.079 2.565 1.104 5.146-.19 7.65l-.26-5.415z" class="cls-8"/><path fill="#423f40" d="M204.697 171.625c-.145 2.918-1.536 4.62-4.722 4.708-3.487.095-4.852-1.833-4.852-4.978 0-3.168 2.063-4.71 4.89-4.741 2.993-.034 4.586 1.87 4.684 5.011z"/><path fill="#868686" d="M206.078 266.087c.108-6.595 1.901-13.04 1.78-19.66-.008-.436.495-.88.76-1.32 1.612 7.916-1.181 15.447-1.427 23.548-1.507-.944-.911-1.852-1.113-2.568z"/><path d="M272.669 171.262c-3.144 5.813-8.635 8.145-14.566 9.826l-6.5 1.516c-5.762-.931-11.621-1.786-16.709-4.77-4.639-2.72-6.458-7.79-8.527-12.42-.996-2.229-2.487-4.556-1.588-7.285 5.354-10.135 14.398-13.894 25.213-14.593 5.386-1.783 10.293-.134 15.073 2.176 6.58 3.179 11.813 15.628 9.574 22.61a5.019 5.019 0 0 1-1.97 2.94z" class="cls-70"/><path d="M220.667 162.878c-2.082 5.873-.266 11.37 3.214 15.699 2.274 2.828 1.006 3.43-.716 4.807l-2.97 2.317a67.33 67.33 0 0 1-6.297-31.213 124.377 124.377 0 0 0-.328-12.47c-.205-2.65.63-3.351 3.242-3.334 5.64.036 11.302-.22 16.203-3.647a4.948 4.948 0 0 1 1.033-.524c1.343 2.248 2.72 4.483 3.907 6.814 1.026 2.016-.946 2.037-1.987 2.643-4.663 2.712-9.106 5.665-12.048 10.391a19.434 19.434 0 0 0-3.253 8.517z" class="cls-70"/><path fill="#e4e1e2" d="M224.78 158.129a69.395 69.395 0 0 0 6.534 14.684c2.766 4.79 7.615 6.234 12.443 7.12a24.214 24.214 0 0 1 7.845 2.671c-1.477 1.093-3.207.746-4.857.854-4.135-.89-8.306-1.31-12.344-2.992-5.696-2.372-9.264-6.135-10.634-12.055-.246-1.063-.361-2.123-1.337-2.81l-.209-1.643c.522-2.089.936-4.224 2.558-5.83z"/><path fill="#5c5758" d="M272.669 171.262c3.06-8.43.85-16.011-4.85-22.236-4.59-5.012-11.247-5.692-17.827-5.49.578-.96 2.496-.398 2.405-2.118a29.731 29.731 0 0 1 13.919 3.487c7.791 4.028 11.95 18.217 7.99 27.169z"/><path d="M55.45 143.657c-3.495.27-2.41-2.163-2.354-3.989 2.56 0 5.126.117 7.676-.037a3.295 3.295 0 0 1 3.669 2.424c-2.81 1.586-6.152.176-8.99 1.602z" class="cls-70"/><path fill="#c3bfc0" d="M222.43 165.6c2.563-.847 2.2 1.3 2.402 2.532.928 5.685 4.558 8.893 9.467 11.35 3.985 1.994 8.413 2.308 12.446 3.976-6.92.997-13.194-1.703-18.882-4.702-4.58-2.413-5.377-8.012-5.433-13.156z"/><path d="M200.352 168.468a3.398 3.398 0 0 1 2.544 3.426 2.409 2.409 0 0 1-2.592 2.476c-2.032-.133-2.967-1.673-2.89-3.585.065-1.589 1.345-2.138 2.938-2.317z" class="cls-81"/><path fill="#423d3f" d="M241.002 164.419a3.135 3.135 0 0 1 1.818-2.74c1.571-.859 3.69-.967 4.51.22 1.716 2.484 3.68 1.504 5.662 1.155 2.252-.396 4.456-1.089 6.716-1.403 1.642-.229 2.906-.335 3.747-2.24.885-2.007 2.888-2.363 4.782-1.054 1.207.834 2.556 1.865 1.603 3.64-1.152 2.145-2.958 2.497-5.155 1.612-3.88-1.563-13.406.728-16.487 3.843-1.291 1.306-2.912 2.083-4.761 1.412-1.698-.616-2.405-2.048-2.435-4.445z"/><path d="M22.615 484.31a8.728 8.728 0 0 0 1.64 4.41q2.236 2.657 7.662 2.657a16.471 16.471 0 0 0 5.278-.701q3.846-1.342 3.846-4.994a3.68 3.68 0 0 0-1.884-3.3 20.46 20.46 0 0 0-5.976-2.014l-4.66-1.022q-6.87-1.519-9.439-3.3-4.351-2.979-4.35-9.315a12.369 12.369 0 0 1 4.256-9.606q4.257-3.826 12.504-3.825a19.178 19.178 0 0 1 11.75 3.605q4.863 3.608 5.1 10.469h-8.644a6.16 6.16 0 0 0-3.473-5.519 11.888 11.888 0 0 0-5.358-1.08 10.198 10.198 0 0 0-5.688 1.402 4.433 4.433 0 0 0-2.126 3.912 3.693 3.693 0 0 0 2.096 3.446 26.077 26.077 0 0 0 5.718 1.781l7.554 1.781a19.221 19.221 0 0 1 7.444 3.124q3.848 3.039 3.848 8.79a12.35 12.35 0 0 1-4.56 9.796q-4.56 3.9-12.883 3.899-8.5 0-13.37-3.84a12.704 12.704 0 0 1-4.87-10.556zm29.465-12.323v-5.927h4.438v-8.878h8.234v8.878h5.168v5.927h-5.168v16.82a3.784 3.784 0 0 0 .497 2.438q.495.482 3.036.482.38 0 .803-.014c.282-.01.56-.025.832-.044v6.22l-3.942.146q-5.898.204-8.06-2.045a6.085 6.085 0 0 1-1.4-4.41v-19.593zm35.79 6.249a13.162 13.162 0 0 0 3.324-.73 2.504 2.504 0 0 0 1.795-2.365 2.797 2.797 0 0 0-1.377-2.7 8.702 8.702 0 0 0-4.04-.746q-2.99 0-4.233 1.461a6.017 6.017 0 0 0-1.184 2.92h-8.03a12.177 12.177 0 0 1 2.346-6.862q3.314-4.206 11.38-4.205a20.293 20.293 0 0 1 9.325 2.073q4.077 2.074 4.076 7.826v14.6q0 1.519.059 3.68a4.618 4.618 0 0 0 .496 2.218 2.981 2.981 0 0 0 1.227.964v1.226H93.98a9.253 9.253 0 0 1-.525-1.81q-.146-.847-.234-1.927a17.17 17.17 0 0 1-3.994 3.183 12.077 12.077 0 0 1-6.11 1.548 10.542 10.542 0 0 1-7.18-2.468 8.773 8.773 0 0 1-2.835-6.993q0-5.87 4.56-8.498a20.383 20.383 0 0 1 7.354-2.044zm5.089 3.884a9.264 9.264 0 0 1-1.613.804 13.738 13.738 0 0 1-2.235.569l-1.894.35a12.46 12.46 0 0 0-3.825 1.14 3.8 3.8 0 0 0-1.967 3.532 3.69 3.69 0 0 0 1.202 3.08 4.563 4.563 0 0 0 2.92.95 8.693 8.693 0 0 0 5.025-1.577q2.299-1.577 2.387-5.752zm42.741-12.526q3.571 4.526 3.571 11.68 0 7.417-3.522 12.293a12.785 12.785 0 0 1-16.201 3.299 12.655 12.655 0 0 1-3.111-3.27v4h-8.206v-42.983h8.323v15.3a12.18 12.18 0 0 1 3.497-3.386 10.437 10.437 0 0 1 5.76-1.46 11.895 11.895 0 0 1 9.89 4.527zm-6.956 19.388a11.792 11.792 0 0 0 1.797-6.833 15.3 15.3 0 0 0-.884-5.606 6.151 6.151 0 0 0-6.182-4.205 6.245 6.245 0 0 0-6.272 4.117 15.338 15.338 0 0 0-.883 5.665 11.788 11.788 0 0 0 1.826 6.774 6.265 6.265 0 0 0 5.564 2.687 5.77 5.77 0 0 0 5.034-2.599zm24.806 8.614h-8.321v-43.042h8.322zm28.86-31.183a12.944 12.944 0 0 1 5.5 4.708 15.644 15.644 0 0 1 2.535 6.58 40.674 40.674 0 0 1 .274 6.317h-23.181q.194 4.789 3.328 6.716a8.448 8.448 0 0 0 4.589 1.197 6.463 6.463 0 0 0 6.334-3.65h8.496a10.388 10.388 0 0 1-3.085 5.753q-4.277 4.644-11.975 4.643a17.345 17.345 0 0 1-11.21-3.916q-4.858-3.916-4.858-12.743 0-8.27 4.384-12.683a15.344 15.344 0 0 1 11.382-4.414 18.125 18.125 0 0 1 7.486 1.492zm-12.451 7.188a8.647 8.647 0 0 0-2.217 4.927h14.338a6.945 6.945 0 0 0-2.217-5.03 7.296 7.296 0 0 0-4.936-1.715 6.601 6.601 0 0 0-4.968 1.818zm74.357-14.461a10.948 10.948 0 0 1 1.976 6.57 9.582 9.582 0 0 1-1.994 6.336 10.282 10.282 0 0 1-3.283 2.453 9.591 9.591 0 0 1 4.972 3.796 11.39 11.39 0 0 1 1.677 6.307 12.588 12.588 0 0 1-1.916 6.863 11.858 11.858 0 0 1-7.912 5.547 29.785 29.785 0 0 1-6.082.584H212.36v-43.042h20.8q7.873.118 11.156 4.585zm-23.37 2.89v9.49h10.46a8.645 8.645 0 0 0 4.552-1.065 4.067 4.067 0 0 0 1.749-3.782q0-3.006-2.312-3.971a16.22 16.22 0 0 0-5.087-.672zm0 16.615v11.476h10.449a10.162 10.162 0 0 0 4.359-.759q2.829-1.402 2.829-5.373a4.621 4.621 0 0 0-2.743-4.613 10.865 10.865 0 0 0-4.3-.73zm46.391-.409a13.157 13.157 0 0 0 3.323-.73 2.503 2.503 0 0 0 1.795-2.365 2.796 2.796 0 0 0-1.377-2.7 8.698 8.698 0 0 0-4.04-.746q-2.988 0-4.232 1.461a6.012 6.012 0 0 0-1.184 2.92h-8.03a12.174 12.174 0 0 1 2.345-6.862q3.314-4.206 11.38-4.205a20.293 20.293 0 0 1 9.326 2.073q4.076 2.074 4.076 7.826v14.6q0 1.519.058 3.68a4.624 4.624 0 0 0 .496 2.218 2.981 2.981 0 0 0 1.227.964v1.226h-9.052a9.226 9.226 0 0 1-.526-1.81q-.147-.847-.234-1.927a17.19 17.19 0 0 1-3.994 3.183 12.077 12.077 0 0 1-6.109 1.548 10.544 10.544 0 0 1-7.182-2.468 8.773 8.773 0 0 1-2.834-6.993q0-5.87 4.56-8.498a20.38 20.38 0 0 1 7.354-2.044zm5.089 3.884a9.298 9.298 0 0 1-1.614.804 13.746 13.746 0 0 1-2.235.569l-1.894.35a12.47 12.47 0 0 0-3.826 1.14 3.8 3.8 0 0 0-1.965 3.532 3.69 3.69 0 0 0 1.2 3.08 4.56 4.56 0 0 0 2.92.95 8.695 8.695 0 0 0 5.027-1.577q2.298-1.577 2.387-5.752zm22.017 5.314a5.541 5.541 0 0 0 1.145 3.155q1.554 1.664 5.75 1.664a8.81 8.81 0 0 0 3.918-.73 2.446 2.446 0 0 0 .282-4.322q-1.17-.73-8.707-2.51-5.424-1.344-7.643-3.36a7.28 7.28 0 0 1-2.22-5.723 9.918 9.918 0 0 1 3.468-7.577q3.467-3.168 9.76-3.168a17.93 17.93 0 0 1 9.729 2.38q3.76 2.379 4.316 8.22h-8.322a4.92 4.92 0 0 0-.907-2.541q-1.377-1.694-4.686-1.694a6.743 6.743 0 0 0-3.879.847 2.437 2.437 0 0 0-1.157 1.985 2.171 2.171 0 0 0 1.23 2.074q1.23.672 8.689 2.307a15.937 15.937 0 0 1 7.456 3.533 8.024 8.024 0 0 1 2.452 5.987 9.662 9.662 0 0 1-3.525 7.722q-3.526 2.995-10.9 2.994-7.519 0-11.103-3.168a10.298 10.298 0 0 1-3.584-8.075zm47.547-21.021a12.938 12.938 0 0 1 5.5 4.708 15.645 15.645 0 0 1 2.536 6.58 40.612 40.612 0 0 1 .275 6.317h-23.182q.193 4.789 3.328 6.716a8.45 8.45 0 0 0 4.59 1.197 6.463 6.463 0 0 0 6.333-3.65h8.496a10.388 10.388 0 0 1-3.085 5.753q-4.277 4.644-11.974 4.643a17.345 17.345 0 0 1-11.211-3.916q-4.858-3.916-4.858-12.743 0-8.27 4.385-12.683a15.343 15.343 0 0 1 11.382-4.414 18.12 18.12 0 0 1 7.485 1.492zm-12.449 7.188a8.65 8.65 0 0 0-2.218 4.927h14.338a6.947 6.947 0 0 0-2.217-5.03 7.296 7.296 0 0 0-4.935-1.715 6.6 6.6 0 0 0-4.968 1.818zm33.465 23.995h-8.322v-43.042h8.322zm16.674-35.625h-8.44v-7.68h8.44zm-8.44 3.796h8.44v31.83h-8.44zm42.165 1.826q3.126 2.585 3.126 8.57v21.433h-8.527v-19.36a8.899 8.899 0 0 0-.666-3.854q-1.219-2.453-4.638-2.453a5.748 5.748 0 0 0-5.768 3.592 12.418 12.418 0 0 0-.812 4.847v17.228h-8.322v-31.77h8.058v4.644a14.088 14.088 0 0 1 3.025-3.534 10.477 10.477 0 0 1 6.484-1.927 12.201 12.201 0 0 1 8.04 2.584zm31.605-1.18a12.938 12.938 0 0 1 5.5 4.708 15.645 15.645 0 0 1 2.536 6.58 40.612 40.612 0 0 1 .274 6.317h-23.18q.193 4.789 3.328 6.716a8.45 8.45 0 0 0 4.589 1.197 6.463 6.463 0 0 0 6.334-3.65h8.496a10.388 10.388 0 0 1-3.085 5.753q-4.278 4.644-11.975 4.643a17.345 17.345 0 0 1-11.21-3.916q-4.858-3.916-4.858-12.743 0-8.27 4.385-12.683a15.343 15.343 0 0 1 11.381-4.414 18.12 18.12 0 0 1 7.486 1.492zm-12.45 7.188a8.65 8.65 0 0 0-2.217 4.927h14.338a6.947 6.947 0 0 0-2.217-5.03 7.296 7.296 0 0 0-4.936-1.715 6.6 6.6 0 0 0-4.967 1.818zm31.422 13.833a5.541 5.541 0 0 0 1.145 3.155q1.554 1.664 5.75 1.664a8.81 8.81 0 0 0 3.918-.73 2.446 2.446 0 0 0 .282-4.322q-1.17-.73-8.707-2.51-5.424-1.344-7.643-3.36a7.28 7.28 0 0 1-2.22-5.723 9.918 9.918 0 0 1 3.468-7.577q3.467-3.168 9.76-3.168a17.93 17.93 0 0 1 9.729 2.38q3.76 2.379 4.316 8.22h-8.322a4.92 4.92 0 0 0-.907-2.541q-1.377-1.694-4.686-1.694a6.743 6.743 0 0 0-3.879.847 2.437 2.437 0 0 0-1.157 1.985 2.171 2.171 0 0 0 1.23 2.074q1.23.672 8.689 2.307a15.937 15.937 0 0 1 7.456 3.533 8.024 8.024 0 0 1 2.452 5.987 9.662 9.662 0 0 1-3.525 7.722q-3.526 2.995-10.9 2.994-7.519 0-11.103-3.168a10.298 10.298 0 0 1-3.584-8.075z"/></svg>