<svg xmlns="http://www.w3.org/2000/svg" role="img" viewBox="-8.65 -6.65 448.30 579.80"><title>Stan logo</title><defs><style>.cls-1{fill:#b1011e}</style></defs><path d="M195.56 4.904h38.532c.372 1.187 1.395 1.012 2.293 1.097a207.586 207.586 0 0 1 72.395 20.527c8.724 4.272 17.292 8.87 25.642 15.206-2.484.75-4.217 1.283-5.955 1.799-43.091 12.791-86.912 23.143-129.233 38.505-17.359 6.3-34.37 13.408-49.877 23.65-9.645 6.371-17.056 14.37-21.55 25.389-7.458 18.286-15.818 36.203-23.641 54.343-1.537 3.565-3.766 6.948-3.902 11.032l.207-.047c-1.098-.436-.994.432-1.13 1.04-3.295 7.83-2.287 12.01 4.385 17.092 14.34 10.92 31.174 16.66 47.87 22.534 34.66 12.194 70.107 22.058 104.523 34.978 10.905 4.094 21.985 7.963 31.452 15.111a17.675 17.675 0 0 1-2.188 1.695c-22.52 12.489-46.642 21.06-71.065 28.846-50.085 15.967-101.539 27.096-151.682 42.851-3.515 1.105-5.129-.478-7.063-2.763-43.4-51.274-60.506-110.166-49.325-176.407C21.313 92.138 89.875 24.107 179.31 8c5.418-.976 11.142-.488 16.25-3.096z" class="cls-1"/><path d="M427.407 196.054c1.766 9.434 1.416 31.666.208 41.035-.237 1.834-.852 3.476-1.008 4.652a225.492 225.492 0 0 1-8.521 39.744c-43.498 134.841-199.66 190.872-318.733 114.311a185.097 185.097 0 0 1-31.148-24.968c1.746-.467 2.61-.743 3.493-.927 38.362-8.025 77.013-14.662 115.116-23.926 29.662-7.21 59.162-14.882 87.5-26.56 13.014-5.363 23.163-12.748 27.01-27.12 1.828-6.827 6.571-12.663 7.465-19.91 10.323-15.085 3.596-24.075-5.49-33.25-16.322-16.486-36.516-27.264-57.686-35.822-26.72-10.801-53.198-21.985-78.367-36.09 38.845-10.307 78.296-17.792 117.787-25.047 37.65-6.917 75.371-13.454 113.01-20.434 5.244-.972 7.571.408 9.704 5.205a244.51 244.51 0 0 1 15.896 48.202c1.677 7.82 2.279 12.97 3.764 20.905z" class="cls-1"/><path fill="#590815" d="M100.264 196.452c19.641-15.898 43.086-23.08 66.981-29.23 25.17 14.106 51.648 25.29 78.369 36.091 21.169 8.558 41.363 19.336 57.685 35.821 9.086 9.176 15.813 18.166 5.49 33.25-5.34 3.959-9.714 9.166-15.732 12.242-1.793.916-3.316 2.438-5.487 2.535-9.466-7.149-20.546-11.018-31.451-15.112-34.416-12.92-69.862-22.784-104.523-34.978-16.696-5.873-33.53-11.613-47.87-22.534-6.672-5.081-7.68-9.262-4.386-17.092a1.002 1.002 0 0 0 1.13-1.04z"/><path fill="#fefdfd" d="M100.47 196.405a1.002 1.002 0 0 1-1.13 1.04c.137-.607.033-1.476 1.13-1.04z"/><path d="M87.061 533.636a16.818 16.818 0 0 0 5.122 6.012 22.115 22.115 0 0 0 7.498 3.415 35.432 35.432 0 0 0 8.908 1.114 46.122 46.122 0 0 0 6.681-.52 23.21 23.21 0 0 0 6.682-2.004 14.57 14.57 0 0 0 5.196-4.083 10.244 10.244 0 0 0 2.078-6.607 9.302 9.302 0 0 0-2.746-6.978 21.785 21.785 0 0 0-7.2-4.454 71.784 71.784 0 0 0-10.097-3.118q-5.644-1.336-11.432-2.97a100.838 100.838 0 0 1-11.58-3.637 39.65 39.65 0 0 1-10.097-5.568 26.189 26.189 0 0 1-7.2-8.537 25.896 25.896 0 0 1-2.748-12.397 27.755 27.755 0 0 1 3.49-14.179 31.568 31.568 0 0 1 9.13-10.021 39.81 39.81 0 0 1 12.77-5.94 54.381 54.381 0 0 1 14.253-1.93 67.504 67.504 0 0 1 15.96 1.856 39.88 39.88 0 0 1 13.585 6.014 30.454 30.454 0 0 1 9.428 10.615 32.582 32.582 0 0 1 3.489 15.664h-22.567a18.797 18.797 0 0 0-2.005-7.87 13.138 13.138 0 0 0-4.528-4.899 19.208 19.208 0 0 0-6.459-2.524 39.835 39.835 0 0 0-7.943-.742 27.402 27.402 0 0 0-5.642.593 15.144 15.144 0 0 0-5.122 2.08 12.857 12.857 0 0 0-3.786 3.711 9.965 9.965 0 0 0-1.485 5.642 9.51 9.51 0 0 0 1.188 5.048 10.577 10.577 0 0 0 4.677 3.563 59.492 59.492 0 0 0 9.65 3.267q6.16 1.635 16.11 4.157 2.968.595 8.24 2.153a39.562 39.562 0 0 1 10.467 4.973 31.683 31.683 0 0 1 8.982 9.131q3.786 5.717 3.786 14.625a32.41 32.41 0 0 1-2.82 13.51 29.349 29.349 0 0 1-8.389 10.764 40.3 40.3 0 0 1-13.808 7.053 65.313 65.313 0 0 1-19.079 2.525 67.035 67.035 0 0 1-17-2.154 42.704 42.704 0 0 1-14.55-6.756 33.32 33.32 0 0 1-10.022-11.728 34.993 34.993 0 0 1-3.563-16.926h22.568a19.426 19.426 0 0 0 1.93 9.057zm118.478-50.629v14.105h-15.441v38.008q0 5.345 1.781 7.127 1.782 1.781 7.127 1.781 1.782 0 3.415-.148a28.458 28.458 0 0 0 3.118-.445v16.332a50.348 50.348 0 0 1-5.94.593q-3.267.147-6.384.149a61.547 61.547 0 0 1-9.279-.668 21.85 21.85 0 0 1-7.72-2.599 13.731 13.731 0 0 1-5.271-5.493 19.602 19.602 0 0 1-1.93-9.354v-45.283h-12.769v-14.105h12.769v-23.013h21.083v23.013zm9.203 23.607a24.487 24.487 0 0 1 3.712-12.323 25.283 25.283 0 0 1 8.314-7.87 36.255 36.255 0 0 1 11.359-4.23 64.669 64.669 0 0 1 12.693-1.262 86.285 86.285 0 0 1 11.73.816 35.969 35.969 0 0 1 10.839 3.192 21.366 21.366 0 0 1 8.017 6.607q3.117 4.232 3.117 11.21v39.938a80.063 80.063 0 0 0 .594 9.948 17.938 17.938 0 0 0 2.078 7.127h-21.379a29.792 29.792 0 0 1-.964-3.638 31.23 31.23 0 0 1-.52-3.786 27.467 27.467 0 0 1-11.879 7.275 47.701 47.701 0 0 1-13.955 2.078 37.694 37.694 0 0 1-10.244-1.336 23.413 23.413 0 0 1-8.315-4.157 19.33 19.33 0 0 1-5.568-7.126 24.092 24.092 0 0 1-2.004-10.245 22.362 22.362 0 0 1 2.301-10.764 19.226 19.226 0 0 1 5.94-6.756 26.64 26.64 0 0 1 8.314-3.786 89.249 89.249 0 0 1 9.428-2.004q4.749-.74 9.353-1.187a56.423 56.423 0 0 0 8.166-1.337 14.232 14.232 0 0 0 5.64-2.598 5.703 5.703 0 0 0 1.932-4.974 11.193 11.193 0 0 0-1.113-5.42 8.211 8.211 0 0 0-2.97-3.116 11.681 11.681 0 0 0-4.305-1.486 35.437 35.437 0 0 0-5.272-.37q-6.234 0-9.799 2.672-3.562 2.672-4.158 8.908zm48.7 15.59a9.43 9.43 0 0 1-3.342 1.856 34.14 34.14 0 0 1-4.305 1.113q-2.306.445-4.826.742-2.526.299-5.047.742a38.066 38.066 0 0 0-4.678 1.189 13.857 13.857 0 0 0-4.008 2.004 9.51 9.51 0 0 0-2.748 3.192 10.267 10.267 0 0 0-1.039 4.9 9.904 9.904 0 0 0 1.04 4.75 7.959 7.959 0 0 0 2.822 3.044 11.898 11.898 0 0 0 4.156 1.559 26.512 26.512 0 0 0 4.9.445q6.235 0 9.65-2.078a13.912 13.912 0 0 0 5.047-4.973 15.932 15.932 0 0 0 2.006-5.866 40.565 40.565 0 0 0 .371-4.75zm57.455-39.197v10.69h.447a24.183 24.183 0 0 1 10.392-9.724 30.062 30.062 0 0 1 13.066-3.044q8.462 0 13.882 2.3a20.601 20.601 0 0 1 8.537 6.385 24.719 24.719 0 0 1 4.38 9.948 61.978 61.978 0 0 1 1.261 12.99v47.215H351.78v-43.354q0-9.5-2.97-14.179-2.972-4.677-10.541-4.676-8.612 0-12.471 5.122-3.863 5.122-3.86 16.851v40.236h-21.083v-76.76z"/></svg>