<svg xmlns="http://www.w3.org/2000/svg" role="img" viewBox="83.30 94.30 1284.40 213.40"><title>Streamlit logo</title><path fill="#ff4b4b" d="M258.73 221.683l-52.592-27.8-91.292-48.25a.49706.49706 0 0 0-.333-.084 4.04222 4.04222 0 0 0-5.5 5.084l46.517 118.642.008.025c.05.116.092.233.142.35 1.908 4.425 6.075 7.158 10.608 8.233.384.083.658.159 1.118.251a12.33225 12.33225 0 0 0 1.649.282c.092.009.175.009.267.017h.066c.067.008.134.008.2.017h.092a1.40118 1.40118 0 0 0 .183.008h.109a1.66584 1.66584 0 0 0 .2.008 817.71679 817.71679 0 0 0 177.258 0c.709 0 1.4-.033 2.067-.1.217-.025.425-.05.633-.075.025-.008.059-.008.084-.016.141-.017.283-.042.425-.067.208-.025.416-.067.625-.108a9.03439 9.03439 0 0 0 1.171-.353 22.44968 22.44968 0 0 0 2.092-.817 14.21852 14.21852 0 0 0 1.487-.864c.608-.383 1.187-.775 1.773-1.215a6.99454 6.99454 0 0 0 .61-.493l-.1-.058z"/><path fill="#7d353b" d="M402.766 145.634h-.083l-91.326 48.25 50.767 75.609 46.4-118.859v-.167a4.00679 4.00679 0 0 0-5.758-4.833"/><path fill="#bd4043" d="M263.597 122.691a5.84806 5.84806 0 0 0-9.667 0l-47.791 71.192 52.591 27.801 99.668 52.674c.625-.613 1.127-1.21 1.658-1.841a21.033 21.033 0 0 0 2.067-3.025l-50.767-75.609z"/><path fill="#262730" d="M583.705 163.429h18.391c-.843-23.679-22.683-41.381-53.029-41.381-30.04 0-53.642 17.472-53.642 43.833 0 21.151 15.326 33.718 39.848 40.768l19.312 5.518c16.552 4.598 31.265 10.422 31.265 26.055 0 17.165-16.552 28.507-38.316 28.507-18.698 0-35.25-8.276-36.783-26.055h-19.618c1.839 25.748 22.683 43.22 56.401 43.22 36.171 0 56.708-19.924 56.708-45.366 0-29.426-27.894-38.929-44.14-43.22l-15.939-4.292c-11.649-3.065-30.347-9.195-30.347-26.054 0-15.02 13.794-26.055 34.638-26.055 19.005 0 33.412 9.042 35.251 24.522zm96.206 0h-25.135v-28.201H636.69v28.201h-17.778v15.326h17.778v73.567c0 20.537 16.553 30.346 31.879 30.346a37.65583 37.65583 0 0 0 13.488-2.145l-3.679-16.246a34.949 34.949 0 0 1-7.97.919c-7.969 0-15.632-2.452-15.632-17.778v-68.663h25.135zm22.888 117.707h18.085v-74.487c0-15.939 12.56806-27.587 29.734-27.587a55.25811 55.25811 0 0 1 11.035 1.226v-18.392c-2.069-.153-6.82105-.306-9.503-.306-14.1 0-26.361 7.969-30.652 19.618h-1.227v-17.779h-17.472zm121.744 2.452c23.909 0 41.381-11.955 46.899-29.733l-17.472-4.905c-4.598 12.261-15.25 18.392-29.42694 18.392-21.22705 0-35.864-13.717-36.707-38.929h85.445v-7.663c0-43.834-26.055-58.854-50.577-58.854-31.879 0-53.029 25.136-53.029 61.306s20.84294 60.386 54.86794 60.386zm-36.707-70.808c1.226-18.315 14.177-34.638 34.868-34.638 19.618 0 32.185 14.714 32.185 34.638zm143.278 71.114c20.537 0 31.266-11.035 34.944-18.698h.92v15.94h18.085v-77.552c0-37.396-28.507-41.688-43.527-41.688-17.779 0-38.01 6.131-47.206 27.588l17.166 6.13c3.985-8.582 13.411-17.778 30.653-17.778 16.629 0 24.829 8.812 24.829 23.909v.613c0 8.736-8.89 7.97-30.347 10.728-21.84 2.836-45.672 7.664-45.672 34.638 0 22.99 17.778 36.17 40.155 36.17zm2.759-16.245c-14.407 0-24.829-6.438-24.829-19.005 0-13.794 12.567-18.085 26.668-19.925 7.663-.919 28.2-3.065 31.266-6.743v16.552c0 14.714-11.649 29.121-33.105 29.121zm79.887 13.487h18.08v-73.567c0-17.242 12.57006-29.427 26.67-29.427 13.72 0 23.30005 8.966 23.30005 22.377v80.617H1100.2v-76.632c0-15.173 9.5-26.362 26.05005-26.362 12.88 0 23.91 6.821 23.91 24.216v78.778h18.09v-78.778c0-27.664-14.87-40.462-35.87-40.462-16.86 0-29.19006 7.74-35.25 19.925h-1.22c-5.83007-12.568-16.1-19.925-31.58007-19.925-15.32 0-26.65992 7.357-31.57 19.925h-1.53v-18.392h-17.47zm201.32-156.943H1197v156.943h18.08zm28.81 156.943h18.09V163.429h-18.09zm9.2-137.325c7.05 0 12.87-5.517 12.87-12.261s-5.81995-12.261-12.87-12.261c-7.04993 0-12.88 5.517-12.88 12.261s5.83 12.261 12.88 12.261zm88.88 19.618h-25.13v-28.201h-18.09v28.201h-17.77v15.326h17.77v73.567c0 20.537 16.56006 30.346 31.88 30.346a37.62741 37.62741 0 0 0 13.49-2.145l-3.68006-16.246a34.8903 34.8903 0 0 1-7.97.919c-7.97 0-15.63-2.452-15.63-17.778v-68.663h25.13z"/></svg>