<svg xmlns="http://www.w3.org/2000/svg" role="img" viewBox="-8.46 -8.46 440.18 94.43"><title>Streamlit logo</title><g fill="#131811" fill-rule="evenodd"><path d="M30.77 32.79c-11.06-1.61-13.37-4-13.37-9.16 0-4.82 3.62-8.14 10.76-8.14s11 3 12 9.55h15c-1.36-14.28-10.81-21.52-27-21.52C12.27 3.52 2 12.67 2 24.94c0 13.88 7.54 19.41 26 21.83 10.56 1.6 13.57 3.62 13.57 9.35s-4.72 9.55-11.86 9.55c-10.66 0-13.38-5.33-14.08-11.76H0c.9 14.38 10 23.63 29.67 23.63 17 0 27.45-10.16 27.45-22.93 0-14.88-8.95-19.61-26.35-21.82zm51.8 26.75V34.19h11.06V23.83H82.57V12.47H68.08v11.36h-6.73v10.36h6.73v26.65c0 11 5.94 16.6 17 16.6A26.33 26.33 0 0 0 93.93 76V64.77a13.65 13.65 0 0 1-5.53 1c-3.72 0-5.83-2.01-5.83-6.23zm34.09-25.65V23.83h-14.58v52.6h14.58V50.08c0-10 6.24-13.57 17-13.47V23c-8.55.13-13.66 3.85-17 10.89z"/><path fill-rule="nonzero" d="M162.32 22.63c-15.29 0-27 10.76-27 27.35v.81c0 16.79 11.56 26.75 27.45 26.75 14.38 0 23.44-6.34 25.14-17.7h-13.82c-.91 4.42-4.23 7.34-11 7.34-7.94 0-12.67-5-13.07-13.78H188v-4c0-18.83-12.1-26.77-25.68-26.77zm-12.07 21.82c1.11-7.44 5.53-11.76 12.07-11.76 6.94 0 11 3.82 11.47 11.76zm68.29-21.82c-12.87 0-22.73 5.53-23.64 18h13.78c.61-4.53 3.22-7.44 8.95-7.44 6.64 0 8.55 3.42 8.55 9.65V45h-5.93c-16.09 0-27.36 4.62-27.36 16.89 0 11.06 8.05 15.69 17.6 15.69 8.25 0 12.88-3.22 15.89-7.44v6.33h14.18V42.14c0-14.28-9.15-19.51-22.02-19.51zM226.18 58c0 5.83-4.93 9.35-11.36 9.35-5.33 0-7.65-2.51-7.65-6.33 0-5.64 4.93-7.45 13.38-7.45h5.63z"/><path d="M314.38 22.63a20.9 20.9 0 0 0-17.7 9.15c-2.51-6.24-7.74-9.15-14.68-9.15a17.86 17.86 0 0 0-16.09 9.25v-8.05h-14.58v52.6h14.58V45.36c0-7.14 4.52-10.76 10.16-10.76 5.12 0 8.24 3 8.24 9.75v32.08h14.49V45.36c0-7.14 4.52-10.76 10.15-10.76 5.23 0 8.25 3 8.25 9.75v32.08h14.48V42.74c0-13.98-7.54-20.11-17.3-20.11zM342.85 0h14.48v76.43h-14.48zm26.45 23.83h14.48v52.6H369.3zM376.44.8a8 8 0 1 0 0 15.89c4.72 0 8.34-3.41 8.34-7.94A8 8 0 0 0 376.44.8zM418 65.77c-3.72 0-5.83-2-5.83-6.23V34.19h11.03V23.83h-11.06V12.47h-14.48v11.36h-6.74v10.36h6.74v26.65c0 11 5.93 16.6 17 16.6A26.33 26.33 0 0 0 423.5 76V64.77a13.65 13.65 0 0 1-5.5 1z"/></g></svg>