<svg xmlns="http://www.w3.org/2000/svg" role="img" viewBox="17.82 15.82 1617.36 1621.36"><title>studio.ml logo</title><defs><style>.cls-1{fill:#2789c5}.cls-3{fill:#278bc7}.cls-5{fill:#0e3961}.cls-6{fill:#38bfd4}.cls-7{fill:#0f3a61}.cls-9{fill:#278bc8}.cls-10{fill:#333}</style></defs><path d="M758.705 1000.185c.197-84.034 22.1-165.684 21.767-249.729-.116-29.337-29.023-85.665-29.023-85.665s-90.728-44.206-115.283-58.749l-5.423 444.916" class="cls-1"/><path fill="#3cbfd3" d="M914.009 94.536c128.489 74.782 257.487 148.688 386.172 223.132 6.931 4.01 7.732 5.774 18.329 15.932-34.216 13.044-64.074 34.088-95.575 52.112L834.303 162.301c-30.434 10.81-54.793 32.726-83.96 45.893-13.616 6.146-8.136 13.405.523 18.297 26.997 15.252 54.424 29.743 81.685 44.53 4.945 3.419 9.682 7.2 14.868 10.205q135.837 78.726 271.773 157.284c-.162 6.073-4.334 8.703-9.04 11.406Q971.28 529.671 832.516 609.618l-101.412-58.183Q539.527 441.572 347.945 331.716c25.924-23.152 58.47-35.618 87.304-54.078 9.116-5.836 16.504.118 23.884 4.218 27.094 15.052 54.079 30.3 81.105 45.475l280.397 163.325c6.064 3.532 12.108 7.142 19.35 2.964l90.07-51.958c-59.67-34.45-115.155-66.234-170.395-98.439q-107.585-62.722-214.863-125.97c52.419-36.777 110.307-64.362 164.615-97.94 39.348-24.328 74.675-41.916 118.902-72.357"/><path d="M832.516 609.618q138.8-79.883 277.636-159.702c4.706-2.703 8.878-5.333 9.038-11.41 9.532 5.998 5.435 15.57 5.557 23.575.472 31.054.197 62.119.201 93.18-.086 30.055-.114 60.11-.285 90.166-.067 11.831 3.818 20.354 16.432 12.167 25.67-16.66 55.19-27.195 77.715-48.802 6.646-6.29 4.186-14.49 4.2-21.934q.171-100.572-.077-201.145c31.503-18.025 61.36-39.07 95.577-52.112.666 9.45 1.931 18.902 1.918 28.353q-.342 253.643-.765 507.286c-.004 13.882-1.883 23.78-15.841 31.764q-231.232 132.271-461.743 265.801c-2.836 1.635-6.308 2.166-9.484 3.212l-.079-560.399zm99.418 62.133l.444 104.193a28.115 28.115 0 0 0-.325 4.688c-.072 65.717.378 131.442-.51 197.148-.298 22.132 5.718 22.946 23.128 12.467 49.499-29.793 100.356-57.343 149.623-87.501 38.024-23.276 80.093-39.975 114.149-69.717 10.166-35.656 2.21-71.25 5.211-112.373-35.042 24.037-69.216 34.97-94.364 60.484-13.143 1.551-23.518 9.553-34.807 15.265-23.27 11.775-43.336 29.688-69.372 36.193l.75-202.642.181-10.191c-2.182-6.69-5.092-4.255-8.097-.647-29.245 11.307-55.556 27.829-81.121 45.673z" class="cls-3"/><path d="M547.603 896.082c.197-84.034-6.258-169.177-6.592-253.222-.116-29.336-1.457-86.585-1.457-86.585s-70.805-46.235-95.36-60.779l-5.814 448.3" class="cls-1"/><path d="M639.368 1056.601q-1.303-2.535-2.617-5.064" class="cls-3"/><path fill="#0e3960" d="M544.797 217.254q107.418 63.008 214.863 125.97c55.24 32.204 110.725 63.988 170.394 98.438l-90.068 51.958c-7.243 4.178-13.287.568-19.35-2.964q-140.198-81.664-280.398-163.325c3.718-36.602-4.786-73.709 4.56-110.077z"/><path d="M1124.948 555.26c-.004-31.06.271-62.125-.201-93.18-.122-8.005 3.976-17.576-5.557-23.573q-135.9-78.61-271.771-157.281c-5.186-3.006-9.923-6.786-14.867-10.206q.877-54.36 1.75-108.72l388.633 223.412q.086 100.574.074 201.146c-.013 7.443 2.447 15.645-4.202 21.935q-46.932-26.765-93.859-53.532z" class="cls-5"/><path d="M834.303 162.3l-1.75 108.72c-27.263-14.786-54.69-29.277-81.687-44.529-8.659-4.892-14.14-12.151-.523-18.297 29.167-13.167 53.526-35.083 83.96-45.893z" class="cls-3"/><path d="M1218.443 833.03c-34.056 29.741-76.125 46.44-114.15 69.716-49.266 30.158-100.123 57.708-149.622 87.501-17.41 10.48-23.426 9.665-23.127-12.467.887-65.706.437-131.43.509-197.148l9.966 3.18c22.533 15.073 45.475 29.422 70.578 39.955l12.513 8.828c26.037-6.502 46.103-24.415 69.373-36.19 11.289-5.713 21.664-13.714 34.81-15.264l89.15 51.888z" class="cls-6"/><path d="M1012.597 823.767c-25.103-10.533-48.045-24.882-70.58-39.962-.694-5.718-4.487-7.622-9.639-7.86l-.444-104.194 4.89-6.96c25.565-17.844 51.876-34.366 81.133-45.677q4.054.322 8.085.65l-.181 10.193c-8.663 7.499-5.178 17.632-5.24 26.66-.328 47.29-.018 94.585-.274 141.876-.049 8.97 3.196 19.44-7.75 25.274z" class="cls-5"/><path d="M1218.443 833.03l-89.15-51.889c25.145-25.514 59.319-36.448 94.361-60.485-3 41.122 4.955 76.717-5.211 112.373z" class="cls-7"/><path d="M1124.948 555.26q46.928 26.767 93.86 53.533c-22.523 21.606-52.043 32.141-77.713 48.801-12.614 8.187-16.499-.336-16.432-12.167.17-30.055.2-60.11.285-90.166z" class="cls-6"/><path d="M1012.597 823.767c10.946-5.833 7.701-16.304 7.75-25.274.256-47.291-.054-94.586.274-141.876.062-9.028-3.423-19.161 5.24-26.66l-.75 202.64q-6.258-4.417-12.514-8.83z" class="cls-5"/><path fill="#0b2e53" d="M932.378 775.944c5.151.239 8.945 2.143 9.638 7.861q-4.979-1.579-9.963-3.173a28.135 28.135 0 0 1 .325-4.688zm4.446-111.154l-4.89 6.96 4.89-6.96zm89.218-45.025q-4.037-.327-8.085-.65c2.993-3.605 5.903-6.04 8.085.65z"/><path d="M832.516 609.618l.079 560.399-87.454-48.285-9.859-455.376-98.792-51.792-5.747 436.514-97.326-50.367 6.137-444.436-92.009-53.235-9.165 440.755-92.681-55.098.271-557.802" class="cls-7"/><path d="M1226.391 1415.044h52.258v26.135c12.035-15.478 27.853-29.572 54.328-29.572 24.07 0 42.292 10.657 51.922 29.226 16.159-18.914 35.414-29.226 60.516-29.226 38.85 0 62.234 23.379 62.234 67.736v119.998h-52.264v-102.808c0-24.756-11.002-37.477-30.603-37.477s-31.63 12.72-31.63 37.477v102.808h-52.264v-102.808c0-24.756-11.003-37.477-30.603-37.477s-31.636 12.72-31.636 37.477v102.808h-52.258zm325.625-66.703h52.263v251h-52.263z" class="cls-9"/><circle cx="1152.068" cy="1565.758" r="33.583" class="cls-9"/><path d="M49.083 1578.148l22.351-34.387c19.941 14.44 40.915 22.006 58.108 22.006 15.129 0 22.005-5.501 22.005-13.753v-.687c0-11.348-17.88-15.131-38.166-21.32-25.789-7.565-55.014-19.595-55.014-55.359v-.686c0-37.478 30.258-58.451 67.392-58.451 23.38 0 48.826 7.906 68.767 21.319l-19.94 36.1c-18.226-10.657-36.449-17.191-49.857-17.191-12.723 0-19.254 5.501-19.254 12.721v.687c0 10.316 17.533 15.131 37.477 22.005 25.789 8.598 55.7 20.979 55.7 54.674v.686c0 40.92-30.6 59.483-70.485 59.483a129.099 129.099 0 0 1-79.084-27.847zm188.776-27.853v-87.336h-22.006v-44.698h22.006v-47.107h52.263v47.107h43.325v44.698h-43.325v78.738c0 12.035 5.158 17.882 16.85 17.882a53.178 53.178 0 0 0 25.786-6.533v41.947c-11.003 6.533-23.724 10.662-41.26 10.662-31.977 0-53.64-12.722-53.64-55.36zm129.288-12.721V1418.26h52.263v102.808c0 24.757 11.69 37.478 31.633 37.478s32.665-12.721 32.665-37.478V1418.26h52.264v184.297h-52.264v-26.129c-12.035 15.472-27.507 29.566-53.981 29.566-39.542 0-62.58-26.129-62.58-68.421zm203.9-26.821v-.686c0-61.548 40.228-95.243 83.896-95.243 27.85 0 45.043 12.722 57.422 27.507v-90.773h52.263v251h-52.263v-26.475c-12.724 17.191-30.258 29.912-57.422 29.912-42.979 0-83.896-33.694-83.896-95.242zm142.004 0v-.686c0-30.604-20.284-50.89-44.698-50.89s-45.043 19.945-45.043 50.89v.686c0 30.603 20.63 50.89 45.043 50.89s44.698-20.287 44.698-50.89zm97.314-92.492h52.264v184.297h-52.264zm89.05 93.179v-.687c0-52.95 42.638-95.929 100.057-95.929 57.078 0 99.37 42.293 99.37 95.243v.686c0 52.95-42.637 95.929-100.056 95.929-57.079 0-99.371-42.288-99.371-95.243zm147.851 0v-.687c0-27.161-19.6-50.885-48.48-50.885-29.912 0-47.794 23.037-47.794 50.199v.686c0 27.166 19.6 50.89 48.48 50.89 29.917 0 47.794-23.037 47.794-50.204z" class="cls-10"/><circle cx="834.934" cy="1362.762" r="33.583" class="cls-10"/></svg>