<svg xmlns="http://www.w3.org/2000/svg" role="img" viewBox="-2.96 17.29 205.92 60.42"><title>Substra logo</title><style>svg {enable-background:new 0 0 200 100}</style><style>.st46{fill:#4b6073}</style><path d="M1.4 54.9c-.2-.1-.4-.4-.4-.7 0-.5.4-1 1-1 .3 0 .5.1.6.2 2.6 2.3 5.1 3.3 8.7 3.3 3.9 0 6.5-2.2 6.5-5.1v-.1c0-2.7-1.4-4.3-7.3-5.5-6.2-1.2-8.7-3.3-8.7-7.2v-.1c0-3.8 3.5-6.8 8.3-6.8 3.5 0 5.8.9 8.2 2.6.2.1.4.4.4.8 0 .5-.4 1-1 1-.2 0-.4-.1-.6-.2-2.2-1.7-4.5-2.4-7.1-2.4-3.8 0-6.3 2.2-6.3 4.9v.1c0 2.7 1.4 4.4 7.5 5.6 6 1.2 8.5 3.3 8.5 7.1v.1c0 4.2-3.6 7-8.5 7-3.9 0-6.9-1.2-9.8-3.6zm27.8-7.4V33.2c0-.5.4-1 1-1 .5 0 1 .4 1 1v14c0 6.1 3.3 9.6 8.7 9.6 5.2 0 8.6-3.2 8.6-9.4V33.2c0-.5.4-1 1-1s1 .4 1 1v14c0 7.4-4.3 11.3-10.6 11.3-6.3.1-10.7-3.8-10.7-11zm32.1-14.1c0-.5.4-1 1-1H72c2.9 0 5.3.8 6.7 2.3 1.1 1.1 1.7 2.4 1.7 4v.1c0 3.5-2.3 5.3-4.4 6.1 3.1.8 5.8 2.6 5.8 6.1v.1c0 4.3-3.7 7-9.2 7H62.2c-.5 0-1-.4-1-1l.1-23.7zm10.4 10.9c3.9 0 6.6-1.9 6.6-5.3v-.1c0-2.8-2.3-4.7-6.4-4.7h-8.7v10.1h8.5zm.8 12.1c4.4 0 7.2-2 7.2-5.3V51c0-3.2-2.8-5-7.8-5h-8.7v10.3l9.3.1zm17.9-1.5c-.2-.1-.4-.4-.4-.7 0-.5.4-1 1-1 .3 0 .5.1.6.2 2.6 2.3 5.1 3.3 8.7 3.3 3.9 0 6.5-2.2 6.5-5.1v-.1c0-2.7-1.4-4.3-7.3-5.5-6.2-1.2-8.7-3.3-8.7-7.2v-.1c0-3.8 3.5-6.8 8.3-6.8 3.5 0 5.8.9 8.2 2.6.2.1.4.4.4.8 0 .5-.4 1-1 1-.2 0-.4-.1-.6-.2-2.2-1.7-4.5-2.4-7.1-2.4-3.8 0-6.3 2.2-6.3 4.9v.1c0 2.7 1.4 4.4 7.5 5.6 6 1.2 8.5 3.3 8.5 7.1v.1c0 4.2-3.6 7-8.5 7-3.9 0-6.9-1.2-9.8-3.6zm34.9-20.7H117c-.5 0-.9-.4-.9-.9s.4-.9.9-.9h18.4c.5 0 .9.4.9.9s-.4.9-.9.9h-8.2v23.2c0 .5-.4 1-1 1s-1-.4-1-1V34.2h.1zm20.3-.8c0-.5.4-1 1-1h9.9c3.2 0 5.7 1 7.2 2.5 1.2 1.2 1.9 2.9 1.9 4.8v.1c0 4.3-3.1 6.9-7.5 7.5l-2.2.2h-8.4v9.9c0 .5-.4 1-1 1-.5 0-1-.4-1-1v-24h.1zm10.6 12.4c4.3 0 7.5-2.2 7.5-5.9v-.1c0-3.5-2.7-5.6-7.4-5.6h-8.8v11.6h8.7z" class="st46"/><path fill="#1dbcc0" d="M174.3 46.1l11-23.8c.3-.6.6-.9 1.3-.9h.1c.7 0 1 .4 1.3.9L199 46c.1.2.1.4.1.6 0 .5-.4.9-.9.9h-23.1c-.5 0-.9-.4-.9-.8-.1-.2-.1-.4.1-.6zm22.5-.4l-10.2-22.2-10.2 22.2h20.4z"/><path d="M158.3 50.4c-.3-.4-.2-1 .2-1.3s1-.2 1.3.2l5.8 7.4c.3.4.2 1-.2 1.3s-1 .2-1.3-.2l-5.8-7.4z" class="st46"/><g><path d="M48.4 73.5c-.1-.1-.1-.2-.1-.3v-7.4c0-.1 0-.2.1-.3s.2-.1.3-.1h4.1c.1 0 .2 0 .3.1s.1.2.1.3c0 .1 0 .2-.1.3s-.2-.1-.3-.1h-3.6v2.9h3.5c.1 0 .2 0 .3.1s.1.2.1.3 0 .2-.1.3-.2.1-.3.1h-3.5v3.5c0 .1 0 .3-.1.3s-.2.1-.3.1c-.2 0-.3 0-.4-.1zm10.3-.9c-.7-.8-1.1-1.8-1.1-3.1s.4-2.3 1.1-3.1 1.6-1.1 2.8-1.1 2.1.4 2.8 1.1c.7.7 1.1 1.8 1.1 3.1s-.4 2.3-1.1 3.1-1.6 1.1-2.8 1.1-2.1-.4-2.8-1.1zm4.9-.6c.5-.6.8-1.5.8-2.6s-.3-2-.8-2.6-1.2-.8-2.1-.8-1.6.3-2.1.9-.8 1.5-.8 2.6.3 1.9.8 2.6 1.2.9 2.1.9c.9 0 1.6-.3 2.1-1zm8.7 1.5c-.4-.1-.7-.3-1-.6s-.5-.6-.7-1-.3-.8-.3-1.3v-5c0-.1 0-.3.1-.3s.2-.1.3-.1c.1 0 .2 0 .3.1s.1.2.1.3v5c0 .4.1.7.2 1s.3.5.5.7.5.3.7.4.5.1.8.1c.2 0 .5 0 .7-.1l.6-.3c.2-.1.4-.3.5-.5s.3-.4.3-.6.1-.5.1-.8v-5c0-.1 0-.3.1-.3s.2-.1.3-.1c.1 0 .2 0 .3.1s.1.2.1.3v5c0 .5-.1.9-.3 1.3s-.4.7-.7 1-.6.4-1 .6-.8.2-1.2.2-.4.1-.8-.1zm9.8 0c-.1-.1-.1-.2-.1-.3v-7.3c0-.2.1-.4.2-.5s.2-.2.4-.2c.1 0 .2 0 .4.1s.2.2.3.4l4.5 6.6v-6.6c0-.1 0-.2.1-.3s.2-.1.3-.1c.1 0 .2 0 .3.1s.1.2.1.3V73c0 .2-.1.4-.2.5s-.3.2-.5.2c-.3 0-.4-.1-.6-.3l-4.5-6.6v6.5c0 .1 0 .2-.1.3s-.2.1-.3.1c-.1-.1-.3-.1-.3-.2zm11.7 0c-.1-.1-.1-.2-.1-.3v-7.4c0-.1 0-.2.1-.3s.2-.1.3-.1h2c1.4 0 2.6.4 3.3 1.1s1.1 1.8 1.1 3.1c0 1.4-.4 2.4-1.2 3.1s-1.9 1.1-3.3 1.1h-2c0-.2-.1-.2-.2-.3zm2.4-.6c.6 0 1.2-.1 1.6-.2s.8-.4 1.1-.7.5-.7.6-1.1.2-.9.2-1.5c0-1.2-.3-2.1-.9-2.6s-1.6-.8-2.9-.8h-1.3v6.8l1.6.1zm14.3-1.5h-4.2l-.8 2c-.1.2-.2.3-.4.3-.1 0-.2 0-.3-.1s-.1-.2-.1-.3v-.2l2.8-7c.1-.3.2-.5.4-.6s.3-.2.5-.2.4.1.5.2.3.3.4.6l2.8 7v.2c0 .1 0 .2-.1.3s-.2.1-.3.1c-.2 0-.4-.1-.4-.3l-.8-2zm-2-5.3l-1.8 4.6h3.6l-1.8-4.6zm10.1 7.4c-.1-.1-.1-.2-.1-.3V66h-2.4c-.1 0-.2 0-.3-.1s-.1-.2-.1-.3c0-.1 0-.2.1-.3s.2-.1.3-.1h5.6c.1 0 .2 0 .3.1s.1.2.1.3c0 .1 0 .2-.1.3s-.2.1-.3.1h-2.3v7.1c0 .1 0 .3-.1.3s-.2.1-.3.1-.3.1-.4 0zm8.1 0c-.1-.1-.1-.2-.1-.3v-7.4c0-.1 0-.3.1-.3s.2-.1.3-.1.2 0 .3.1.1.2.1.3v7.4c0 .1 0 .3-.1.3s-.2.1-.3.1c-.1 0-.2 0-.3-.1zm6.9-.9c-.7-.8-1.1-1.8-1.1-3.1s.4-2.3 1.1-3.1 1.6-1.1 2.8-1.1 2.1.4 2.8 1.1 1.1 1.8 1.1 3.1-.4 2.3-1.1 3.1-1.6 1.1-2.8 1.1-2.1-.4-2.8-1.1zm4.9-.6c.5-.6.8-1.5.8-2.6s-.3-2-.8-2.6-1.2-.9-2.1-.9c-.9 0-1.6.3-2.1.9s-.8 1.5-.8 2.6.3 1.9.8 2.6 1.2.9 2.1.9c.9.1 1.6-.2 2.1-.9zm6.8 1.5c-.1-.1-.1-.2-.1-.3v-7.3c0-.2.1-.4.2-.5s.2-.2.4-.2c.1 0 .2 0 .4.1s.2.2.3.4l4.5 6.6v-6.6c0-.1 0-.2.1-.3s.2-.1.3-.1.2 0 .3.1.1.2.1.3V73c0 .2-.1.4-.2.5s-.3.2-.5.2c-.3 0-.4-.1-.6-.3l-4.5-6.6v6.5c0 .1 0 .2-.1.3s-.2.1-.3.1c-.1-.1-.2-.1-.3-.2z" class="st46"/></g></svg>