<svg xmlns="http://www.w3.org/2000/svg" role="img" viewBox="-3.56 0.94 809.12 296.62"><title>talos logo</title><defs><style>.cls-4{fill:#6b6b6b}.cls-7{fill:#fefdfd}</style></defs><path fill="#e4545c" d="M164.98 272.97c51.133-42.666 52.98-117.113.444-160.955 26.248-16.535 75.346-14.022 106.276 21.16 27.714 31.523 29.802 79.873 4.093 113.373-26.429 34.438-72.427 45.676-110.812 26.422z"/><path fill="#f4c763" d="M158.382 16.506c35.693.287 71.847 28.711 81.862 69.243 2.748 11.123 1.843 12.012-9.145 8.992-57.235-15.728-114.697 19.38-126.338 77.724-2.128 10.662-5.859 7.033-10.892 2.966C46.78 137.376 53.976 58.243 107.115 28.544c14.052-7.853 28.832-12.38 51.267-12.038z"/><path fill="#e98365" d="M51.283 119.192c4.484 22.857 12.67 42.87 29.104 58.682 29.177 28.074 63.393 36.617 102.122 25.324 9.409-2.744 10.324-1.19 8.44 7.805-7.86 37.55-41.812 68.273-79.612 71.261-41.45 3.276-80.187-21.492-93.745-59.94-13.366-37.904-.17-79.751 33.69-103.132z"/><path d="M152.242 196.775c-11.13.291-21.691-2.283-32.149-5.885-5.067-1.745-6.864-4.375-6.023-9.717 3.803-24.142 14.822-44.012 33.77-59.636 4.38-3.612 7.143-3.05 11.167.29 18.559 15.412 29.42 35.032 33.404 58.697.883 5.248-.886 7.922-5.926 9.731-11.113 3.99-22.35 6.842-34.243 6.52z" class="cls-4"/><path fill="none" d="M485.727 137.788a10.913 10.913 0 0 0-1.858-.254 20.828 20.828 0 0 0-1.916-.008c-1.289.045-2.594.16-3.872.161-2.557 0-5.117-.052-7.674-.072s-5.114-.008-7.664.12c-8.033.406-12.604 4.051-12.98 12.86-.776 18.225 4.606 23.18 22.645 19.795 7.27-1.365 13.587-4.891 19.997-8.43 8.92-4.925 7.057-13.225 5.995-20.3-1.12-7.47-8.29-2.85-12.673-3.872z"/><path d="M517.835 175.526q.382-30.77.077-61.549c-.176-20.08-9.079-29.684-29.126-30.997-15.044-.986-29.964 1.082-44.847 3.161-5.085.71-10.276.07-8.785 8.476 1.357 7.65 5.35 6.53 10.947 6.149 13.497-.92 27.03-2.511 40.596-.992 10.613 1.189 12.046 8.485 12.177 17.406.133 9.036-6.356 7.778-12.691 7.387-10.959-.678-21.983-.767-32.977-.588-8.212.134-14.913 3.423-19.38 10.503-5.769 9.145-5.19 33.78 1.418 42.232 8.743 11.183 21.025 12.318 33.869 10.408 11.46-1.704 21.143-7.614 31.165-15.35.87 2.983 1.1 4.359 1.618 6.004 2.263 7.188 3.99 8.388 10.39 8.132 8.418-.336 5.5-6.393 5.549-10.382zm-25.43-13.566c-6.41 3.539-12.727 7.065-19.996 8.43-18.04 3.386-23.422-1.57-22.645-19.795.375-8.809 4.946-12.454 12.979-12.86 2.55-.128 5.106-.14 7.664-.12s5.117.072 7.674.072c1.278 0 2.583-.116 3.872-.161.645-.023 1.285-.028 1.916.008s2.197.02 2.82.014c4.977-.053 10.969-.25 11.711 4.113 1.2 7.052 2.924 15.374-5.995 20.299zM656.44 84.269c-45.056-6.537-62.423 10.575-61.08 52.191-.074 9.867.451 20.741 4.748 31.073 6.4 15.386 20.83 21.619 35.84 22.09 18.362.578 36.24.143 47.215-19.363 2.448-4.351 3.68-9.547 4.691-14.513a106.758 106.758 0 0 0 .057-40.338c-3.43-19.245-12.006-28.316-31.471-31.14zm13.639 59.853c-1.172 23.748-18.98 34.838-42.064 25.874-5.7-2.214-9.356-6.71-10.89-12.856a84.851 84.851 0 0 1-.377-41.085c3.087-12.664 10.046-16.823 25.538-16.8 15.61.023 22.106 4.338 25.863 16.633a62.68 62.68 0 0 1 2.43 19.482c0 2.918-.357 5.842-.5 8.752zm110.331-44.078c5.044.226 6.152-2.35 6.397-6.63.253-4.408-4.365-7.321-10.392-8.442-18.293-3.402-29.454-4.133-46.698-1.361-18.118 2.912-23.67 8.78-24.123 25.248-.502 18.174 5.898 26.673 23.082 30.59 9.968 2.272 19.992 4.313 29.904 6.804 6.868 1.726 13.666 3.862 13.372 13.168-.299 9.417-6.947 10.864-14.24 11.845-13.89 1.867-27.792 1.376-41.667.154-4.929-.434-7.178.982-7.901 6.067-.461 3.24-2.325 7.58 3.804 8.31 20.423 2.435 40.866 4.158 61.189-.375 7.497-1.672 13.851-5.964 15.46-13.955 4.284-21.274 1.217-36.068-23.408-40.903-10.733-2.107-21.376-4.749-31.955-7.545-7.014-1.854-9.887-6.838-9.131-14.112.723-6.962 5.137-8.252 11.29-9.25 10.88-1.766 16.094-1.212 24.14-1.212m-356.019 72.089c-12.113-.764-14.853-3.007-14.947-14.976-.082-10.605-.015-21.21-.015-31.815 0-22.831-.003-23.041 22.97-23.429 5.933-.1 8.274-1.34 8.299-7.832.026-7.025-3.397-7.797-8.832-7.394-2.912.216-5.677.294-8.77.464-10.62.583-13.093.672-14.087-11.19a47.843 47.843 0 0 1 .471-8.966c1.269-7.987-2.503-9.258-9.793-9.675-9.748-.558-9.526 4.62-9.345 11.357.263 9.79 3.211 21.665-13.86 19.605-5.244-.632-4.012 3.93-4.187 6.983-.198 3.483 0 7.296 4.856 6.385 14.309-2.686 12.896 6.142 13.332 15.946.277 6.199-.07 12.43-.07 18.646.002 9.142-.299 18.297.069 27.424q.934 23.187 21.84 25.509c6.15.68 12.383-.482 18.543-.728 11.336-.451 9.005-7.546 6.918-13.365-2.357-6.57-8.885-2.665-13.392-2.95z" class="cls-4"/><path fill="#717171" d="M578.554 170.078c-14.815-.413-16.486-2.65-16.518-17.936-.07-34.078-.255-68.16.156-102.233.095-7.906-3.944-7.837-9.532-7.833-5.55.004-9.807-.198-9.575 7.774.541 18.672.173 37.371.172 56.06q0 26.382.005 52.766c.033 22.998 14.307 33.91 36.724 28.252 4.206-1.061 7.758-1.965 6.526-7.699-1.001-4.658-.768-8.95-7.958-9.15z"/><path d="M483.869 137.534a20.73 20.73 0 0 0-1.916-.008c-1.289.045-2.594.16-3.872.161-2.557 0-5.117-.052-7.674-.072s-5.114-.008-7.664.12c-8.033.406-12.604 4.05-12.98 12.86-.776 18.225 4.606 23.18 22.645 19.795 7.27-1.365 13.587-4.891 19.997-8.43 8.92-4.925 7.203-13.248 5.995-20.3" class="cls-7"/><path fill="none" stroke="#fefdfd" stroke-linecap="round" stroke-linejoin="round" stroke-width="0" d="M462.743 137.735c2.55-.128 5.106-.14 7.664-.12"/><path d="M481.953 137.526c-1.289.045-2.594.16-3.872.16-2.557.001-5.117-.051-7.674-.071 2.557.02 5.117.072 7.674.072 1.278 0 2.583-.116 3.872-.161zm1.916.008z" class="cls-7"/><path d="M420.134 254.826h-16.586l-3.764 10.263h-3.237l13.826-36.533h2.936l13.825 36.533h-3.211zm-15.632-2.61h14.653l-7.327-19.897zm65.588-23.66v24.941a12.63 12.63 0 0 1-1.63 6.423 10.688 10.688 0 0 1-4.528 4.203 14.764 14.764 0 0 1-6.712 1.468 13.245 13.245 0 0 1-9.247-3.15 11.545 11.545 0 0 1-3.6-8.718v-25.167h3.06v24.715a9.5 9.5 0 0 0 2.635 7.164 11.273 11.273 0 0 0 14.29-.013 9.499 9.499 0 0 0 2.621-7.126v-24.74zm46.244 2.609h-12.52v33.924h-3.086v-33.924H488.23v-2.61h28.103zm45.04 17.64a21.101 21.101 0 0 1-1.744 8.857 13.296 13.296 0 0 1-4.98 5.871 13.635 13.635 0 0 1-7.478 2.058 12.976 12.976 0 0 1-10.337-4.58q-3.94-4.578-3.94-12.357v-3.763a20.985 20.985 0 0 1 1.769-8.845 13.144 13.144 0 0 1 12.458-7.992 13.656 13.656 0 0 1 7.44 2.032 13.355 13.355 0 0 1 4.98 5.746 20.675 20.675 0 0 1 1.832 8.606zm-3.086-3.965q0-6.6-2.986-10.338a10.738 10.738 0 0 0-16.297.013q-3.024 3.751-3.024 10.475v3.815q0 6.498 3.011 10.3a10.747 10.747 0 0 0 16.36.05q2.936-3.75 2.936-10.45zm50.91 20.249h-3.087l-21-31.264v31.264h-3.112v-36.533h3.111l21.027 31.289v-31.29h3.061zm49.129-16.284a21.101 21.101 0 0 1-1.744 8.857 13.296 13.296 0 0 1-4.98 5.871 13.635 13.635 0 0 1-7.478 2.058 12.976 12.976 0 0 1-10.337-4.58q-3.94-4.578-3.94-12.357v-3.763a20.985 20.985 0 0 1 1.77-8.845 13.144 13.144 0 0 1 12.457-7.992 13.656 13.656 0 0 1 7.44 2.032 13.356 13.356 0 0 1 4.98 5.746 20.675 20.675 0 0 1 1.832 8.606zm-3.086-3.965q0-6.6-2.986-10.338a10.738 10.738 0 0 0-16.297.013q-3.023 3.751-3.023 10.475v3.815q0 6.498 3.01 10.3a10.747 10.747 0 0 0 16.36.05q2.936-3.75 2.936-10.45zm27.801-16.284l13.474 32.242 13.524-32.242h4.115v36.533h-3.086V249.18l.25-16.31-13.598 32.218h-2.384l-13.55-32.092.251 16.083v16.009h-3.086v-36.533zm63.23 19.923l11.166-19.923h3.563l-13.198 22.783v13.75h-3.086v-13.75l-13.173-22.783h3.663z" class="cls-4"/></svg>