<svg xmlns="http://www.w3.org/2000/svg" role="img" viewBox="-1.13 -1.13 58.97 17.97"><title>Tech Mahindra logo</title><style>svg {enable-background:new 0 0 56.7 15.7}</style><style>.st0,.st1{fill-rule:evenodd;clip-rule:evenodd;fill:#ed1c24}.st1{fill:#3e4142}</style><path d="M1.9 10.4c2.6 0 2.3-.2 2.3 1v4.3H6v-4.4c0-.6-.1-.9.5-.9 1.4 0 1.8-.2 1.8.8v4.5h1.8v-4.3c0-.6.1-1.5-.2-2-.2-.5-.6-.6-1.4-.6H0v6.9h1.8l.1-5.3zm40.3.2v3.8h-2.4c-.6 0-.6-.1-.6-.6 0-2.1-.2-1.8 1.8-1.8.8-.1.8-.9 1.2-1.4zm0 0c-.5 0-3.8-.1-4.1.1-.6.2-.7.6-.7 1.3v2.1c0 .7-.1 1.2.5 1.5.3.2 3.5.1 4.1.1.6 0 1.5.1 2.1 0V8.8h-1.8l-.1 1.8zM18 15.7v-3.3c0-1.1 0-1.8-1.4-1.8h-3.2c-.6 0-1-.1-1.3.3-.1.2-.6.8-.6 1h3.7c.7 0 1.1-.1 1.1.7v1.8h-3.2c-.1-.9 0-.8.8-.8h1.6c0-1 .2-1-.8-1-3.7 0-3.2-.3-3.2 2.3 0 .8.4.7 1.2.7l5.3.1zm38.7 0v-3.3c0-1.1 0-1.8-1.4-1.8h-3.2c-.6 0-.9-.1-1.3.3-.1.2-.6.8-.6 1h3.7c.7 0 1.1-.1 1.1.7v1.8h-3.2v-.7c.1-.2 1.9-.1 2.4-.1 0-1 .2-1-.8-1-3.7 0-3.2-.3-3.2 2.3 0 .8.4.7 1.1.7 1.7.1 3.6 0 5.4.1z" class="st0"/><path d="M8.8 6.9h4c.5 0 .6-.2.8-.5.1-.2.5-.7.5-.8h-3.6c-.7 0-1.1.1-1.1-.7V3.1h3.2c0 .7.1.8-.4.8h-2v.6c0 .6.3.5.8.5h1.4c.9 0 1.9.2 1.9-.8 0-2.2.2-2.2-1.2-2.2H7.6v3.1c0 .7-.2 1.8 1.2 1.8z" class="st1"/><path d="M21 11.9h1.6c.5 0 1.1-.1 1.2.5v3.3h1.8v-2.8c0-.9.2-1.8-.6-2.1-.4-.2-2-.1-2.6-.1-.7 0-.6.1-.9.5-.2.1-.4.4-.5.7-.1-.3 0-2.7 0-3.2h-1.8v6.9H21v-3.7zm10.7 0h1.6c.5 0 1 0 1 .6v3.2h1.8v-2.9c0-1 .1-1.8-.7-2.1-.3-.1-5-.1-5.6-.1v5.1h1.9v-3.8z" class="st0"/><path d="M0 1.6h2.5v5.3c.2.1 1.5 0 1.8 0V1.6h2.5V0H0v1.6zm21 5.3V5.6h-2.9c-1.2 0-1.1-.1-1-1.9 0-.5.2-.7.7-.7h1.5c1.2 0 1.3.2 1.7-1.2h-4.1c-1.9 0-1.6.8-1.6 2.5 0 1.8-.3 2.5 1.6 2.5.6.1 3.8.2 4.1.1z" class="st1"/><path d="M47.2 15.6v-2c0-.7-.1-1.5.4-1.7.5-.1 1.5.1 1.9-.2.1-.1.8-1 .8-1.2h-3.7c-1.1 0-1.2.3-1.2 1.3v3.7l1.8.1z" class="st0"/><path d="M22.2 6.9H24V0h-1.8v6.9z" class="st1"/><path d="M24 3.2h1.7c1.4 0 1.2 0 1.2 2.1v1.6h1.8V4.2c0-.9.2-1.8-.6-2.2-.4-.2-2-.1-2.6-.1-.7 0-.6.1-1.3 1.1l-.2.2z" class="st1"/><path d="M28.7 10.7l-.6.3c-.6.4-1.3.6-1.3 1.2-.1 1.1 0 2.3 0 3.4h1.8l.1-4.9zm-1.9.5c.1 0 1.7-1.1 1.8-1.2V8.7h-1.8v2.5z" class="st0"/></svg>