<svg xmlns="http://www.w3.org/2000/svg" role="img" viewBox="-5.40 29.61 410.54 185.54"><title>Tencent Holdings Limited logo</title><style>svg {enable-background:new 0 0 400 245}</style><style>.st14{fill:#1853a3}</style><g id="XMLID_2630_"><path id="XMLID_2631_" d="M365.41 60.91h-16.87l6.64 9.52h8.55l-7.19 40.95h14.98l7.21-40.95h18.69l-29.51-23.74z" class="st14"/><path id="XMLID_2632_" d="M72.53 37.66H4.45L2.58 48.38h26.44l-11.08 63h14.99l11.08-63h26.66z" class="st14"/><path id="XMLID_2633_" d="M83.61 59.78c-19.05 0-31.24 11.99-33.66 25.91-2.68 15.47 6.82 26.79 26.04 26.79 8.59 0 16.63-1.61 23.15-5.24l2.03-11.53c-6.38 4.57-14.49 7.12-21.37 7.12-9.58 0-17.2-3.99-16-13.14h39.6c.48-1.08 1.05-2.99 1.47-5.36 1.91-11.07-2.01-24.55-21.26-24.55zm7.77 21H65.31c1.56-5.16 6.63-12.3 15.85-12.3 10.03 0 11.09 7.63 10.22 12.3z" class="st14"/><path id="XMLID_2636_" d="M149.79 59.78c-9.36 0-16.36 3.88-19.66 7.8h-.35l-13.19-7.8c-.49 4.37-1.13 10.31-2.15 16.14l-6.16 35.46h14.98l5.21-29.7c.25-1.45.75-3 1.39-4.05 2.24-3.9 6.93-7.49 12.89-7.49 8.18 0 10.41 5.51 9.15 12.75l-5.01 28.48h14.98l5.28-29.98c2.78-15.95-7.04-21.61-17.36-21.61z" class="st14"/><path id="XMLID_2637_" d="M329.56 59.78c-9.36 0-16.36 3.88-19.66 7.8h-.35l-13.19-7.8c-.49 4.37-1.14 10.31-2.15 16.14l-6.15 35.46h14.98l5.21-29.7c.25-1.45.75-3 1.39-4.05 2.24-3.9 6.94-7.49 12.89-7.49 8.19 0 10.41 5.51 9.15 12.75l-5 28.48h14.98l5.27-29.98c2.76-15.95-7.05-21.61-17.37-21.61z" class="st14"/><path id="XMLID_2638_" d="M263.37 59.78c-19.05 0-31.24 11.99-33.66 25.91-2.68 15.47 6.82 26.79 26.04 26.79 8.59 0 16.63-1.61 23.16-5.24l2.03-11.53c-6.38 4.57-14.49 7.12-21.37 7.12-9.58 0-17.19-3.99-16-13.14h39.6c.47-1.08 1.04-2.99 1.46-5.36 1.91-11.07-2.01-24.55-21.26-24.55zm7.77 21h-26.06c1.57-5.16 6.63-12.3 15.84-12.3 10.04 0 11.1 7.63 10.22 12.3z" class="st14"/><path id="XMLID_2643_" d="M173.44 85.47c-2.72 15.66 8.25 27 26.82 27 7.38 0 16.2-2.12 19.53-3.36l2.43-13.49c-5.21 5.6-12.27 6.76-17.27 6.76-10.2 0-17.92-5.94-16.13-16.29 1.56-9.25 10.32-16.36 21.74-16.36 4.65 0 10.96 1.56 14.94 6.79l2.32-13.72c-3.22-1.23-8.38-3-16.02-3-20.81 0-35.73 10.56-38.36 25.67z" class="st14"/><path id="XMLID_2646_" d="M151.86 139.24c-4.09 22.45-7.76 44.64-11.93 67.01h-8.43c1.67-8.43 3.59-17.36 5.01-25.62h-6.01c-1.84 8.68-3.76 17.36-5.59 25.62h-8.43c7.09-22.61 10.6-45.9 14.6-71.6h15.77c4.09.01 5.76.67 5.01 4.59zm-11.6 21.45h-5.76c-.83 4.34-1.75 8.85-2.67 13.35h6.01l2.42-13.35zm1.76-19.11h-4.17c-.67 4.01-1.34 8.18-2.17 12.52h5.67l2.09-10.93c.24-1.25-.26-1.59-1.42-1.59zm33.29 54.83h-28.29l-1.17-6.43h30.88v.08l-1.42 6.35zm9.35-24.87l-1.92 8.68h4.09c2.75 0 4.76.58 4.26 4.01-.92 6.18-2.59 14.77-3.92 22.03h-22.2l-1.84-6.59h16.36c.75-3.5 1.67-7.76 2.17-11.27.17-1.17-.33-1.59-1.5-1.59h-27.7l2.5-13.43c-2 .92-5.01 1.92-7.93 2.5l1.75-8.09c5.17-1.25 10.43-3.76 13.69-7.34h-12.35l1.42-6.34h15.27c.83-1.17 1.5-2.67 1.84-3.75h-16.52l1.25-6.59h5.92l-2.17-9.76h8.43l2 9.76h2.92c.92-3.25 1.59-7.59 1.67-11.18h8.6c-.17 3.59-.67 7.84-1.5 11.18h3.42c1.34-3 2.67-6.59 3.76-9.76h8.59c-1.17 3-2.67 6.68-4.09 9.76h6.01l-1.59 6.59H177.4c-.33 1.08-1 2.67-1.59 3.75h22.03l-1.5 6.34h-12.85c2.75 4.09 9.35 7.18 14.44 8.26l-2.84 7.18c-3.51-.76-7.34-2.43-10.43-4.35zm-8.68 1.17H157.7l5.51 2.5-1 5.01h12.1l1.67-7.51zm3.09-6.26c-1.42-1.59-2.92-4.17-3.84-6.01h-3.09c-1.67 2.09-4.17 4.42-6.34 6.01h13.27z" class="st14"/><path id="XMLID_2654_" d="M204.3 154.02h17.52c-1.75 11.68-3.75 23.53-6.01 35.38 3.34-2.5 6.84-5.17 10.01-7.93L224 192.23c-5.92 5.01-14.1 10.85-21.61 15.1 3.25-15.1 6.26-31.13 8.43-45.9h-7.84l1.32-7.41zm20.61-3.93c-1.25-5.84-2.84-11.93-4.17-17.61h-9.43c1.25 5.76 2.59 11.93 3.67 17.61h9.93zm42.81-15.35h-38.97l1.67 7.43h29.12c1.92 0 2.84.25 2.42 2.42-1.09 6.01-2.25 12.1-3.42 18.02h-12.68l2.17-12.68-8.85-5.17-3.25 17.86h-9.43l-1.25 7.43h9.26c-1.92 12.02-4.26 24.28-6.68 36.3h10.1c2.34-12.1 4.67-24.2 6.68-36.3h12.6c-2.09 12.1-4.42 24.53-6.76 36.3h17.86l3.09-7.51h-9.51c3.76-19.11 7.68-39.05 11.02-58.33.74-4.19-.1-5.77-5.19-5.77z" class="st14"/></g></svg>