<svg xmlns="http://www.w3.org/2000/svg" role="img" viewBox="0.93 -12.07 887.64 504.64"><title>TensorFlow Reinforcement Learning (TRFL) logo</title><defs><style>.cls-1{fill:#4095d1}.cls-2{fill:#ef4637}</style></defs><path d="M18.25 113.379C18.25 53.85 68.298 5.386 127.826 5.386c32.925 0 56.368 12.907 74.015 29.764l-20.808 20.808c-12.644-11.852-29.765-21.07-53.207-21.07-43.46 0-77.439 35.031-77.439 78.49 0 43.462 33.978 78.494 77.44 78.494 28.182 0 44.25-11.327 54.522-21.6 8.43-8.428 13.96-20.544 16.068-37.138h-70.59v-29.5h99.299a96.11 96.11 0 0 1 1.581 18.438c0 22.125-6.058 49.518-25.55 69.01-18.963 19.754-43.198 30.29-75.33 30.29-59.53 0-109.575-48.465-109.575-107.993z" class="cls-1"/><path d="M308.957 82.298c-38.457 0-69.8 29.237-69.8 69.537 0 40.037 31.343 69.536 69.8 69.536 38.455 0 69.799-29.5 69.799-69.536 0-40.3-31.344-69.537-69.799-69.537zm0 111.68c-21.073 0-39.247-17.383-39.247-42.143 0-25.023 18.174-42.144 39.247-42.144 21.072 0 39.245 17.121 39.245 42.144 0 24.76-18.174 42.143-39.245 42.143z" class="cls-2"/><path fill="#ffc20e" d="M461.225 82.298c-38.457 0-69.8 29.237-69.8 69.537 0 40.037 31.343 69.536 69.8 69.536 38.456 0 69.801-29.5 69.801-69.536 0-40.3-31.345-69.537-69.8-69.537zm0 111.68c-21.07 0-39.246-17.383-39.246-42.143 0-25.023 18.175-42.144 39.246-42.144s39.245 17.121 39.245 42.144c0 24.76-18.173 42.143-39.245 42.143z"/><path d="M648.126 86.512V97.84h-1.053c-6.848-8.166-20.019-15.54-36.613-15.54-34.767 0-66.64 30.553-66.64 69.8 0 38.983 31.873 69.272 66.64 69.272 16.594 0 29.765-7.374 36.613-15.803h1.053v10.01c0 26.603-14.223 40.825-37.14 40.825-18.7 0-30.29-13.433-35.03-24.758l-26.603 11.062c7.638 18.438 27.919 41.09 61.634 41.09 35.823 0 66.113-21.072 66.113-72.434V86.513zm-35.031 107.466c-21.071 0-38.72-17.647-38.72-41.88 0-24.495 17.649-42.407 38.72-42.407 20.808 0 37.139 17.912 37.139 42.407 0 24.233-16.331 41.88-37.14 41.88z" class="cls-1"/><path fill="#30b455" d="M698.172 12.762h30.554v204.396h-30.554z"/><path d="M812.486 193.978c-15.541 0-26.603-7.111-33.715-21.07l92.98-38.457-3.16-7.902c-5.796-15.54-23.443-44.25-59.529-44.25-35.823 0-65.585 28.183-65.585 69.536 0 38.983 29.5 69.536 69.01 69.536 31.87 0 50.308-19.49 57.946-30.817l-23.706-15.803c-7.9 11.59-18.7 19.227-34.241 19.227zm-2.371-84.813c12.117 0 22.39 6.059 25.813 14.75l-62.16 25.813c-.792-26.867 20.808-40.563 36.347-40.563z" class="cls-2"/><path fill="none" d="M16.764 5.215h856v279.846h-856z"/><path fill="#231f20" d="M321.274 342.912v23.51h-39.721v109.257H253.63V366.421h-39.902v-23.509zm101.296 3.423a32.79 32.79 0 0 1 12.428 9.277 41.339 41.339 0 0 1 6.676 11.17 37.229 37.229 0 0 1 2.46 13.96 39.785 39.785 0 0 1-4.774 18.6q-4.775 9.144-15.762 12.926 9.186 3.694 13.014 10.494 3.828 6.802 3.828 20.761v8.917q0 9.1.733 12.34a11.076 11.076 0 0 0 5.123 7.567v3.332H415.67q-1.263-4.412-1.802-7.115a65.31 65.31 0 0 1-1.17-11.44l-.18-12.34q-.172-12.7-4.39-16.933-4.216-4.233-15.804-4.234H365.23v52.062h-27.112V342.912h63.504q13.613.27 20.947 3.423zm-57.34 19.636v35.669h29.857q8.896 0 13.345-2.162 7.869-3.784 7.87-14.952 0-12.069-7.614-16.213-4.278-2.341-12.832-2.342zm105.476-22.879h94.666v23.33h-67.104v30.534h58.817v23.058h-58.817v55.665h-27.562zm112.681-.18h27.742V451.81h66.293v23.87h-94.035z"/></svg>