<svg xmlns="http://www.w3.org/2000/svg" role="img" viewBox="-4.72 0.28 895.44 420.94"><title>Tensorflow Privacy logo</title><defs><style>.cls-1{fill:#4095d1}.cls-2{fill:#ef4637}</style></defs><path d="M15.831 125.449c0-59.528 50.045-107.993 109.574-107.993 32.925 0 56.367 12.907 74.014 29.764l-20.808 20.808c-12.643-11.852-29.764-21.07-53.206-21.07-43.46 0-77.439 35.031-77.439 78.49 0 43.462 33.978 78.494 77.44 78.494 28.182 0 44.25-11.327 54.522-21.6 8.43-8.428 13.96-20.544 16.067-37.138h-70.59v-29.5h99.3a96.11 96.11 0 0 1 1.581 18.438c0 22.125-6.059 49.518-25.55 69.01-18.964 19.754-43.198 30.29-75.33 30.29-59.53 0-109.575-48.465-109.575-107.993z" class="cls-1"/><path d="M306.537 94.368c-38.457 0-69.8 29.237-69.8 69.537 0 40.037 31.343 69.536 69.8 69.536 38.455 0 69.8-29.5 69.8-69.536 0-40.3-31.345-69.537-69.8-69.537zm0 111.68c-21.073 0-39.247-17.383-39.247-42.143 0-25.023 18.174-42.144 39.247-42.144 21.071 0 39.245 17.121 39.245 42.144 0 24.76-18.174 42.143-39.245 42.143z" class="cls-2"/><path fill="#ffc20e" d="M458.805 94.368c-38.457 0-69.8 29.237-69.8 69.537 0 40.037 31.343 69.536 69.8 69.536 38.455 0 69.801-29.5 69.801-69.536 0-40.3-31.346-69.537-69.8-69.537zm0 111.68c-21.07 0-39.247-17.383-39.247-42.143 0-25.023 18.176-42.144 39.247-42.144s39.245 17.121 39.245 42.144c0 24.76-18.174 42.143-39.245 42.143z"/><path d="M645.706 98.582v11.328h-1.053c-6.849-8.166-20.019-15.54-36.613-15.54-34.768 0-66.64 30.553-66.64 69.8 0 38.983 31.872 69.272 66.64 69.272 16.594 0 29.764-7.374 36.613-15.803h1.053v10.01c0 26.603-14.223 40.825-37.14 40.825-18.7 0-30.29-13.433-35.03-24.758l-26.604 11.062c7.638 18.438 27.92 41.09 61.635 41.09 35.822 0 66.113-21.072 66.113-72.434V98.583zm-35.03 107.466c-21.073 0-38.72-17.647-38.72-41.88 0-24.495 17.647-42.407 38.72-42.407 20.807 0 37.137 17.912 37.137 42.407 0 24.233-16.33 41.88-37.138 41.88z" class="cls-1"/><path fill="#30b455" d="M695.751 24.832h30.554v204.396h-30.554z"/><path d="M810.066 206.048c-15.54 0-26.604-7.111-33.715-21.07l92.98-38.457-3.16-7.902c-5.796-15.54-23.443-44.25-59.53-44.25-35.822 0-65.584 28.183-65.584 69.536 0 38.983 29.5 69.536 69.01 69.536 31.87 0 50.308-19.49 57.946-30.817l-23.706-15.803c-7.9 11.59-18.7 19.227-34.24 19.227zm-2.37-84.813c12.116 0 22.388 6.059 25.812 14.75l-62.16 25.813c-.792-26.867 20.807-40.563 36.347-40.563z" class="cls-2"/><path fill="none" d="M15.288 17.285h856v279.846h-856z"/><path d="M68.335 315.604v12.101h-20.45v56.246H33.512v-56.246H12.97v-12.101zm33.213 18.829a20.554 20.554 0 0 1 8.734 7.477 24.835 24.835 0 0 1 4.027 10.449 64.6 64.6 0 0 1 .436 10.03H77.933q.308 7.605 5.285 10.666a13.425 13.425 0 0 0 7.287 1.9 10.265 10.265 0 0 0 10.058-5.796h13.492q-.533 4.499-4.9 9.135-6.79 7.373-19.014 7.373a27.55 27.55 0 0 1-17.803-6.219q-7.713-6.218-7.713-20.235 0-13.132 6.963-20.14 6.962-7.008 18.074-7.008a28.774 28.774 0 0 1 11.886 2.368zm-19.77 11.416a13.726 13.726 0 0 0-3.52 7.823h22.767q-.36-5.262-3.52-7.986a11.58 11.58 0 0 0-7.838-2.725q-5.089 0-7.889 2.888zm80.406-9.542q4.963 4.104 4.964 13.61v34.034h-13.54V353.21a14.126 14.126 0 0 0-1.059-6.12q-1.935-3.897-7.364-3.896-6.676 0-9.16 5.704a19.714 19.714 0 0 0-1.29 7.697v27.357H121.52v-50.449h12.798v7.372a22.388 22.388 0 0 1 4.802-5.61 16.634 16.634 0 0 1 10.297-3.06q7.803 0 12.767 4.103zm27.499 31.508q.42 3.524 1.817 5.007 2.47 2.643 9.132 2.644a13.967 13.967 0 0 0 6.22-1.16 3.884 3.884 0 0 0 .448-6.862q-1.859-1.158-13.825-3.988-8.615-2.131-12.139-5.333-3.524-3.152-3.524-9.088a15.75 15.75 0 0 1 5.507-12.033q5.506-5.03 15.497-5.031 9.479 0 15.45 3.78 5.971 3.778 6.855 13.052h-13.215a7.81 7.81 0 0 0-1.441-4.033q-2.186-2.69-7.44-2.69-4.324 0-6.16 1.344a3.87 3.87 0 0 0-1.838 3.154 3.448 3.448 0 0 0 1.954 3.291q1.952 1.068 13.797 3.664 7.897 1.855 11.84 5.61a12.74 12.74 0 0 1 3.894 9.507 15.345 15.345 0 0 1-5.599 12.264q-5.6 4.752-17.307 4.753-11.94 0-17.632-5.031a16.351 16.351 0 0 1-5.692-12.821zm84.717 9.953q-6.4 7.898-19.43 7.9-13.03 0-19.428-7.9a31.358 31.358 0 0 1 0-37.967q6.398-8.014 19.429-8.016 13.029 0 19.428 8.016a31.358 31.358 0 0 1 0 37.967zm-10.573-7.303q3.106-4.122 3.107-11.715 0-7.594-3.107-11.691a11.746 11.746 0 0 0-17.829 0q-3.13 4.097-3.13 11.691t3.13 11.715a11.706 11.706 0 0 0 17.83 0zm54.508-38.238q.254.023 1.136.07v13.54q-1.253-.142-2.226-.186-.974-.047-1.576-.047-7.977 0-10.712 5.193-1.53 2.92-1.53 8.996v24.158h-13.308v-50.543h12.613v8.81a27.921 27.921 0 0 1 5.332-6.907 14.514 14.514 0 0 1 9.645-3.108q.37 0 .626.024zm29.792-17.25q1.02.07 2.782.209v10.758q-1.113-.14-3.733-.21-2.62-.07-3.617 1.16a4.205 4.205 0 0 0-.997 2.713v4.266h8.671v9.32h-8.67v40.758H329.44v-40.758h-7.42v-9.32h7.234v-3.246q0-8.115 2.736-11.176 2.874-4.544 13.865-4.544 1.251 0 2.272.07zm24.205 68.974h-13.216v-68.347h13.216zm55.04-6.183q-6.4 7.898-19.43 7.9-13.03 0-19.428-7.9a31.358 31.358 0 0 1 0-37.967q6.399-8.014 19.429-8.016 13.029 0 19.429 8.016a31.358 31.358 0 0 1 0 37.967zm-10.573-7.303q3.107-4.122 3.107-11.715 0-7.594-3.107-11.691a11.746 11.746 0 0 0-17.829 0q-3.13 4.097-3.13 11.691t3.13 11.715a11.706 11.706 0 0 0 17.83 0zm50.266-37.057h13.4l7.697 36.4 7.883-36.4h13.771l-14.652 50.543h-13.586l-7.93-36.817-8.021 36.817h-13.726l-14.189-50.543h14.19l7.881 36.262zm123.367 20.959q-6 5.009-17.14 5.008H559.06v24.576h-14.19v-68.347h29.347q10.148 0 16.182 5.285 6.033 5.286 6.034 16.369 0 12.103-6.002 17.11zm-10.9-24.62q-2.714-2.273-7.601-2.273h-12.87v20.124h12.87q4.888 0 7.6-2.457 2.713-2.458 2.713-7.791 0-5.332-2.713-7.604zm55.366 2.48q.253.023 1.135.07v13.54q-1.252-.142-2.225-.186-.974-.047-1.577-.047-7.977 0-10.711 5.193-1.531 2.92-1.53 8.996v24.158h-13.308v-50.543h12.612v8.81a27.934 27.934 0 0 1 5.332-6.907 14.515 14.515 0 0 1 9.646-3.108c.247 0 .455.008.626.024zm22.464-4.846h-13.4v-12.195h13.4zm-13.4 6.027h13.4v50.543h-13.4zm57.336 0h14.19l-18.253 50.543h-13.933l-18.125-50.543h14.838l10.526 37.282zm41.696 19.802a20.878 20.878 0 0 0 5.279-1.161q2.849-1.204 2.85-3.756 0-3.105-2.187-4.289a13.816 13.816 0 0 0-6.415-1.182q-4.748 0-6.722 2.319a9.553 9.553 0 0 0-1.88 4.637h-12.752a19.341 19.341 0 0 1 3.726-10.897q5.263-6.678 18.069-6.678a32.227 32.227 0 0 1 14.81 3.292q6.473 3.293 6.472 12.427v23.186q0 2.41.093 5.841a7.346 7.346 0 0 0 .788 3.525 4.74 4.74 0 0 0 1.948 1.53v1.947h-14.375a14.726 14.726 0 0 1-.835-2.875q-.231-1.344-.37-3.06a27.297 27.297 0 0 1-6.344 5.054 19.164 19.164 0 0 1-9.7 2.457 16.74 16.74 0 0 1-11.404-3.918q-4.502-3.917-4.501-11.105 0-9.32 7.24-13.493 3.971-2.272 11.679-3.246zm8.081 6.165a14.595 14.595 0 0 1-2.562 1.276 21.728 21.728 0 0 1-3.55.904l-3.007.556a19.758 19.758 0 0 0-6.074 1.81 6.034 6.034 0 0 0-3.122 5.61q0 3.385 1.907 4.891a7.239 7.239 0 0 0 4.638 1.508 13.816 13.816 0 0 0 7.98-2.504q3.65-2.505 3.79-9.135zm54.948-7.835a11.705 11.705 0 0 0-1.906-5.101q-2.232-3.06-6.926-3.06-6.694 0-9.157 6.63a27.543 27.543 0 0 0-1.3 9.343 25.32 25.32 0 0 0 1.3 8.926q2.37 6.307 8.925 6.306 4.648 0 6.6-2.504a12.441 12.441 0 0 0 2.37-6.491h13.495a22.113 22.113 0 0 1-4.363 11.407q-6.222 8.672-18.427 8.671-12.208 0-17.963-7.233-5.755-7.234-5.756-18.758 0-13.005 6.358-20.24 6.36-7.233 17.546-7.233 9.515 0 15.573 4.266 6.055 4.267 7.17 15.07zm24.576 42.103l1.669.092a20.797 20.797 0 0 0 3.71-.14 6.663 6.663 0 0 0 2.967-1.066 7.144 7.144 0 0 0 2.157-3.292 7.966 7.966 0 0 0 .858-3.06l-18.572-52.769h14.699l11.036 37.282 10.433-37.282h14.05l-17.328 49.71q-5.023 14.372-7.947 17.827-2.924 3.455-11.698 3.456-1.764 0-2.831-.024-1.068-.023-3.203-.162z"/></svg>