<svg xmlns="http://www.w3.org/2000/svg" role="img" viewBox="0.35 -3.90 345.80 326.05"><title>TensorRT logo</title><path d="M337.426 240.153a5.716 5.716 0 0 1-5.725 5.967v-.022a5.955 5.955 0 1 1 5.725-5.945zm2.322 0c0-4.899-3.806-7.743-8.047-7.743-4.27 0-8.077 2.844-8.077 7.743 0 4.897 3.807 7.752 8.077 7.752 4.242 0 8.047-2.855 8.047-7.752m-9.382.655h.862l1.996 3.506h2.193l-2.212-3.653a1.98 1.98 0 0 0 2.083-2.165c0-1.911-1.318-2.525-3.55-2.525h-3.23v8.343h1.857v-3.506m.001-1.412v-2.01h1.291c.703 0 1.66.058 1.66.914 0 .933-.495 1.096-1.323 1.096h-1.628m-44.81-41.923l10.033 27.448H275.21zm-10.746-10.688l-23.122 58.584h16.327l3.658-10.352h27.363l3.461 10.352h17.725l-23.294-58.591-22.118.007zm-46.42 58.606h16.564v-58.624l-16.568-.004zm-114.997-58.628l-13.82 46.464-13.24-46.46-17.873-.004 18.908 58.628h23.864l19.06-58.628h-16.9zm66.957 12.766h7.12c10.328 0 17.008 4.637 17.008 16.671 0 12.037-6.68 16.675-17.009 16.675h-7.119zm-16.426-12.766v58.628h26.855c14.308 0 18.98-2.379 24.032-7.714 3.568-3.747 5.876-11.968 5.876-20.955 0-8.244-1.953-15.591-5.358-20.17-6.136-8.188-14.975-9.789-28.165-9.789h-23.24zM7.01 186.682v58.709h16.705v-44.578l12.944.004c4.286 0 7.341 1.068 9.405 3.272 2.618 2.789 3.687 7.29 3.687 15.522v25.78h16.187v-32.437c0-23.15-14.756-26.272-29.194-26.272zm130.254.081l.007 58.628h16.557v-58.628z"/><path fill="#77b900" d="M51.529 70.03s21.305-31.434 63.844-34.686V23.94c-47.118 3.784-87.92 43.69-87.92 43.69s23.11 66.807 87.92 72.923v-12.121C67.813 122.448 51.53 70.03 51.53 70.03zm63.844 34.294v11.101C79.428 109.017 69.45 71.651 69.45 71.651a77.724 77.724 0 0 1 45.923-22.22v12.182c-.022 0-.037-.006-.055-.006-15.044-1.806-26.797 12.248-26.797 12.248s6.587 23.66 26.852 30.469m0-101.418V23.94a97.926 97.926 0 0 1 4.157-.243c53.568-1.806 88.471 43.934 88.471 43.934s-40.087 48.745-81.851 48.745a61.532 61.532 0 0 1-10.777-.952v13.008a71.039 71.039 0 0 0 8.976.58c38.864 0 66.97-19.848 94.185-43.34 4.512 3.614 22.984 12.406 26.782 16.254-25.876 21.664-86.182 39.127-120.371 39.127-3.296 0-6.46-.2-9.572-.5v18.278h147.72V2.906h-147.72zm0 46.526V35.345c1.37-.095 2.748-.17 4.157-.214 38.52-1.21 63.793 33.103 63.793 33.103s-27.296 37.91-56.564 37.91a35.45 35.45 0 0 1-11.387-1.82v-42.71c14.996 1.811 18.015 8.436 27.03 23.465l20.052-16.908s-14.637-19.197-39.312-19.197a72.186 72.186 0 0 0-7.769.458"/><path d="M92.425 281.057v5.966H82.343v27.73h-7.086v-27.73H65.13v-5.966zm16.374 9.283a10.138 10.138 0 0 1 4.305 3.686 12.243 12.243 0 0 1 1.986 5.151 31.836 31.836 0 0 1 .215 4.945H97.157q.151 3.75 2.605 5.258a6.618 6.618 0 0 0 3.592.938 5.062 5.062 0 0 0 4.959-2.858h6.651a8.133 8.133 0 0 1-2.415 4.503q-3.348 3.635-9.374 3.635a13.583 13.583 0 0 1-8.777-3.065q-3.802-3.066-3.802-9.976 0-6.475 3.432-9.93a12.011 12.011 0 0 1 8.911-3.455 14.203 14.203 0 0 1 5.86 1.167zm-9.747 5.628a6.768 6.768 0 0 0-1.735 3.857h11.224a5.436 5.436 0 0 0-1.736-3.938 5.713 5.713 0 0 0-3.864-1.343 5.166 5.166 0 0 0-3.889 1.424zm39.64-4.704q2.447 2.023 2.447 6.71v16.778h-6.675v-15.156a6.959 6.959 0 0 0-.522-3.017 3.666 3.666 0 0 0-3.63-1.92 4.5 4.5 0 0 0-4.516 2.811 9.72 9.72 0 0 0-.636 3.795v13.487h-6.515V289.88h6.31v3.635a11.064 11.064 0 0 1 2.367-2.766 8.204 8.204 0 0 1 5.076-1.508 9.553 9.553 0 0 1 6.294 2.023zm13.557 15.533a4.339 4.339 0 0 0 .896 2.469q1.217 1.302 4.502 1.303a6.893 6.893 0 0 0 3.066-.572 1.914 1.914 0 0 0 .222-3.382q-.917-.572-6.816-1.967a14.146 14.146 0 0 1-5.985-2.629 5.698 5.698 0 0 1-1.737-4.48 7.763 7.763 0 0 1 2.715-5.932q2.714-2.48 7.64-2.48a14.038 14.038 0 0 1 7.617 1.863q2.943 1.863 3.38 6.434h-6.516a3.848 3.848 0 0 0-.71-1.988 4.479 4.479 0 0 0-3.669-1.326 5.279 5.279 0 0 0-3.037.663 1.908 1.908 0 0 0-.905 1.555 1.7 1.7 0 0 0 .963 1.623 41.744 41.744 0 0 0 6.802 1.805 12.476 12.476 0 0 1 5.837 2.766 6.281 6.281 0 0 1 1.92 4.686 7.568 7.568 0 0 1-2.76 6.047q-2.76 2.343-8.532 2.343-5.888 0-8.693-2.48a8.06 8.06 0 0 1-2.806-6.32zm41.766 4.907q-3.156 3.894-9.58 3.894-6.424 0-9.578-3.894a15.46 15.46 0 0 1 0-18.717q3.155-3.952 9.579-3.952 6.423 0 9.579 3.952a15.461 15.461 0 0 1 0 18.717zm-5.213-3.601a11.627 11.627 0 0 0 0-11.538 5.79 5.79 0 0 0-8.79 0 11.556 11.556 0 0 0 0 11.538 5.77 5.77 0 0 0 8.79 0zm26.872-18.851q.126.012.56.035v6.674q-.618-.069-1.097-.09-.48-.024-.778-.024-3.931 0-5.28 2.56a9.958 9.958 0 0 0-.755 4.435v11.91h-6.56v-24.917h6.217v4.343a13.803 13.803 0 0 1 2.63-3.406 7.16 7.16 0 0 1 4.754-1.531c.122 0 .225.004.309.011zm26.496-7.327a8.322 8.322 0 0 1 3.155 2.355 10.488 10.488 0 0 1 1.695 2.835 9.45 9.45 0 0 1 .624 3.543 10.092 10.092 0 0 1-1.211 4.72 6.773 6.773 0 0 1-4.001 3.28 6.296 6.296 0 0 1 3.303 2.664 11.092 11.092 0 0 1 .972 5.27v2.263a17.038 17.038 0 0 0 .186 3.132 2.812 2.812 0 0 0 1.3 1.92v.845h-7.773q-.32-1.119-.457-1.805a16.569 16.569 0 0 1-.297-2.904l-.046-3.131q-.044-3.225-1.113-4.298-1.071-1.074-4.012-1.074h-6.876v13.212h-6.88v-33.695h16.115a14.684 14.684 0 0 1 5.317.868zm-14.55 4.984v9.052h7.576a8.057 8.057 0 0 0 3.387-.548q1.997-.96 1.997-3.794 0-3.063-1.933-4.116a6.975 6.975 0 0 0-3.255-.594zm51.25-5.852v5.966h-10.08v27.73h-7.088v-27.73h-10.127v-5.966z"/></svg>