<svg xmlns="http://www.w3.org/2000/svg" role="img" viewBox="-39.05 -39.05 2550.60 515.60"><title>Tensor Comprehensions logo</title><defs><style>.cls-2{fill:#940194}.cls-3{fill:#151516}</style><linearGradient id="linear-gradient" x1="815.237" x2="815.237" y1="9.821" y2="429.894" gradientUnits="userSpaceOnUse"><stop offset="0" stop-color="#f40fb2"/><stop offset=".066" stop-color="#e60fae"/><stop offset=".191" stop-color="#c20fa2"/><stop offset=".36" stop-color="#880f8f"/><stop offset=".556" stop-color="#3c0f77"/><stop offset="1" stop-color="#1578c3"/></linearGradient></defs><path fill="none" d="M948.466 267.31c.151-.002.282-.218.544-.65.059-1.394.147-2.789.195-4.183-.048 1.394-.136 2.789-.195 4.183-.262.432-.393.648-.544.65zm-21.032-12.184a1.607 1.607 0 0 1-.71-.099 1.615 1.615 0 0 0 .712.1l-.002-.001zm-137.785 16.737c2.322-.102 4.635-.357 6.917.334-2.282-.69-4.595-.436-6.917-.336-.048 1.895-.14 3.789-.138 5.682-.002-1.893.09-3.787.138-5.68zm135.121-17.907a1.698 1.698 0 0 0 .729.09l-.003-.002a1.687 1.687 0 0 1-.726-.088zm-2.053-1.649a.874.874 0 0 1 .077.094.874.874 0 0 0-.077-.094zm-210.081 63.412a.56.56 0 0 0 .19.425.56.56 0 0 1-.19-.425zm4.754 2.636zm206.027-65.271a1.211 1.211 0 0 0 .56.06 1.21 1.21 0 0 1-.56-.06zm-216.241-.073zm52.927 12.987c1.167.259 2.335.507 3.503.76v-.001c-1.168-.252-2.336-.5-3.503-.759zm-49.492 48.71a.575.575 0 0 0 .208.336.576.576 0 0 1-.208-.336zm-1.821-62.773l.069-.025zm-1.095.958a2.02 2.02 0 0 0 .97-.912l-.004.002a2.007 2.007 0 0 1-.966.91zm-.827.118l-.052.022zm56.935 20.519zm-58.099-19.562a1.768 1.768 0 0 0 .883-.839l-.003.002a1.756 1.756 0 0 1-.88.837zm216.427-1.88a9.372 9.372 0 0 0-1.992.443 9.312 9.312 0 0 1 1.994-.442.738.738 0 0 1 .374.063.747.747 0 0 0-.376-.064zm76.739-42.418a5.446 5.446 0 0 1 .944-.07 5.446 5.446 0 0 0-.944.07zm-49.469 30.046c2.359-.185 4.285-1.381 6.225-2.54-1.94 1.159-3.866 2.354-6.225 2.539-.051 7.123-.09 14.245-.163 21.367.074-7.122.112-14.244.163-21.366zm-23.489 14.508l-.007-.003zm-1.804-.83zm-294.313-39.407l.008-.278-.008.278zm368.525-4.172a3.127 3.127 0 0 1 .365-.108 3.127 3.127 0 0 0-.366.108zm-368.551 6.017q0-.329.003-.657-.003.328-.003.657zm250.403 122.015l-.043.002zm-.376-.115l.002-.009zm.018-.083l.015-.063zm.022-.095l.008-.033zm.209.298l-.07.003zm-.184-.408l.002-.01zm.185-.006l.084.002zm-1.774 1.222l1.494-.796-1.493.794zm1.494-.796l.208-.009-.208.009zm.544-.419zm1014.542-98.929h-23.317q11.658.006 23.317 0 15.286 0 30.572-.004-15.286.012-30.572.004zm-240.465-.006q16.061.014 32.123.006h29.014-29.014q-16.062 0-32.123-.007zm-653.801-28.893c.084-1.719.24-3.437.24-5.155 0 1.719-.156 3.437-.24 5.155z"/><path d="M629.9 210.657v-.001c-.077-1.048-.214-2.098-.247-3.148.033 1.05.17 2.1.247 3.15v-.001z" class="cls-2"/><path d="M629.772 215.175q.007-.594.023-1.188-.015.594-.023 1.188zm.128-4.517c-.027 1.016-.068 2.033-.097 3.05.029-1.016.07-2.033.097-3.05zm370.806 2.582c-.015-1.207-.083-2.415-.12-3.623.037 1.208.105 2.416.12 3.623zm-.12-3.623c-.259-.008-.516-.018-.772-.018.256 0 .513.01.772.018zM681.112 239.75v-.001c-2.885.056-5.264-1.278-7.615-2.677 2.351 1.4 4.73 2.733 7.615 2.679zm-48.581-28.76a6.365 6.365 0 0 0-2.631-.333 6.35 6.35 0 0 1 2.631.333zm208.317 60.879v-.002c-2.987-.081-5.984-.474-8.924.288 2.94-.762 5.937-.37 8.924-.286zM629.9 210.658v-.001.001zm822.892 14.68a42.721 42.721 0 0 0-2.968-13.594 27.441 27.441 0 0 0-15.099-15.564 35.452 35.452 0 0 0-22.836-1.614 33.456 33.456 0 0 0-18.274 12.006c-.974 1.208-1.843 2.5-2.77 3.747-.57.768-1.38.638-1.964-.327-.714-1.18-1.35-2.413-2.122-3.553a28.826 28.826 0 0 0-15.507-11.489 33.63 33.63 0 0 0-8.147-1.387c-10.242-.683-19.037 2.538-26.227 9.907-1.44 1.477-2.66 3.17-3.98 4.764-.436.527-.858 1.067-1.314 1.577-.07.079-.295.06-.435.027-.157-.038-.426-.137-.43-.217-.06-1.724-.098-3.45-.127-5.174-.041-2.416-.06-4.832-.118-7.248a1.07 1.07 0 0 0-.917-1.07c-2.582-.074-5.167-.06-7.751-.046a1.435 1.435 0 0 0-1.262 1.384 165.735 165.735 0 0 0-.085 4.66q-.01 20.984-.004 41.97l.002 41.97c0 1.555.008 3.11.04 4.663a2.167 2.167 0 0 0 .225.977c.153.274.435.622.702.662a39.258 39.258 0 0 0 9.279.05c.314-.028.784-.715.815-1.125.118-1.546.105-3.104.106-4.657q.007-29.017.003-58.034c0-1.382.023-2.764.004-4.145a5.87 5.87 0 0 1 .818-2.945 36.688 36.688 0 0 1 9.164-11.12 25.849 25.849 0 0 1 19.793-5.905c9.32 1.04 15.465 5.598 18.417 14.994a29.934 29.934 0 0 1 1.516 8.122c.068 2.417.154 4.834.156 7.25q.021 25.39.008 50.78c0 1.21-.008 2.419.004 3.627.03 3.14.192 3.326 3.07 3.356 1.9.02 3.8.012 5.7-.01a5.341 5.341 0 0 0 1.53-.194c.286-.09.676-.42.699-.672a45.49 45.49 0 0 0 .204-4.11q.018-30.312.008-60.624c-.489-3.286.703-6.081 2.488-8.728a38.13 38.13 0 0 1 5.214-6.42c7.558-7.194 16.423-9.13 26.338-6.319a18.023 18.023 0 0 1 10.516 7.937 27.04 27.04 0 0 1 3.186 7.603 43.257 43.257 0 0 1 1.182 11.3q-.003 17.099.001 34.198.002 11.659.011 23.317c.005 2.345.36 2.694 2.66 2.72 2.073.023 4.146.012 6.218-.012a4.812 4.812 0 0 0 1.527-.215 1.12 1.12 0 0 0 .661-.736c.105-1.2.133-2.411.133-3.618q.01-29.535.001-59.07c0-1.209.012-2.42-.062-3.626zm104.138-17.085c-10.117-10.693-22.658-15.385-37.261-14.688-11.854.565-21.508 5.705-29.34 14.474-.803.9-1.515 1.883-2.298 2.802a2.882 2.882 0 0 1-.807.596.55.55 0 0 1-.438-.082c-.35-.213-.42-.027-.43.017-.002.012-.003.01 0 0a1.739 1.739 0 0 0-.006-.288 39.343 39.343 0 0 1-.127-2.567c-.027-3.625-.023-7.25-.055-10.876a1.462 1.462 0 0 0-1.56-1.626c-2.07-.031-4.142-.052-6.213-.034-1.643.014-2.166.53-2.2 2.138-.033 1.554-.023 3.108-.023 4.662q-.002 32.892 0 65.785 0 33.15.003 66.302c0 1.726.047 3.452.089 5.177a1.752 1.752 0 0 0 1.416 1.267q4.14-.006 8.282-.045a1.378 1.378 0 0 0 1.228-1.362c.031-1.553.06-3.107.061-4.66q.006-26.158.007-52.317c0-1.38.04-2.76.088-4.14a1.904 1.904 0 0 0-.003-.258c-.012-.034-.006-.052 0 0 .024.064.116.184.413-.017.116-.079.375-.137.438-.074a148.59 148.59 0 0 1 3.223 3.315 41.388 41.388 0 0 0 21.607 12.537 45.082 45.082 0 0 0 24.023-1.321c14.786-4.812 24.683-14.81 29.884-29.353a57.707 57.707 0 0 0 .692-36.645 45.955 45.955 0 0 0-10.693-18.72zm-1.455 52.846c-4.157 10.28-11.184 17.76-21.858 21.282a35.495 35.495 0 0 1-29.919-3.017 42.628 42.628 0 0 1-15.416-15.694 7.316 7.316 0 0 1-1.045-3.927q.01-.97.015-1.94c.028-4.528.004-9.056.004-13.584 0-4.377.025-8.754-.004-13.13q-.006-.938-.015-1.876a8.092 8.092 0 0 1 1.147-4.418 42.725 42.725 0 0 1 14.177-14.81c10.723-6.56 22.005-7.504 33.665-2.73a34.025 34.025 0 0 1 16.122 14.019 42.329 42.329 0 0 1 6.065 18.51 44.446 44.446 0 0 1-2.938 21.315z" class="cls-3"/><path d="M1476.172 268.566V202.78q-.002 32.892 0 65.785 0 33.15.003 66.302-.008-33.151-.003-66.302zm10.184-57.194c-.003.01-.002.012 0 0zm.987 67.158c-.006-.053-.012-.034 0 0zm-296.163-14.787a1.146 1.146 0 0 0-1.41.04q-1.463 1.464-2.912 2.942a53.545 53.545 0 0 1-10.113 8.042c-13.657 8.43-28.447 11.147-44.226 8.598-15.757-2.546-28.389-10.351-37.924-23.087a66.349 66.349 0 0 1-12.8-33.973 76.656 76.656 0 0 1 .77-21.161 67.103 67.103 0 0 1 8.526-23.185c8.754-14.415 21.214-23.838 37.757-27.659a63.54 63.54 0 0 1 23.654-.973 59.08 59.08 0 0 1 32.307 15.108c.762.7 1.494 1.436 2.225 2.17a1.408 1.408 0 0 0 2.247.085c.788-.67 1.53-1.394 2.28-2.107 5.28-5.029 5.333-3.373-.059-8.594a59.068 59.068 0 0 0-11.2-8.332 71.524 71.524 0 0 0-37.57-9.881 72.718 72.718 0 0 0-23.903 3.917c-19.054 6.732-32.737 19.444-41.382 37.613-5.278 11.094-7.646 22.86-7.526 37.89a68.863 68.863 0 0 0 2.464 18.263 73.804 73.804 0 0 0 14.9 29.862c12.411 14.893 28.314 23.276 47.597 25.446a74.855 74.855 0 0 0 32.182-3.373 68.556 68.556 0 0 0 30.01-19.588 1.432 1.432 0 0 0 .014-2.256 749.044 749.044 0 0 0-5.907-5.807zm525.13-59.521a46.541 46.541 0 0 0-63.652 3.935 48.073 48.073 0 0 0-8.94 13.85 55.975 55.975 0 0 0-4.387 25.267 50.824 50.824 0 0 0 9.76 27.928 48.674 48.674 0 0 0 51.346 18.533 55.759 55.759 0 0 0 24.98-14.013 44.754 44.754 0 0 0 3.14-3.425 1.029 1.029 0 0 0 .103-1.415q-3.032-3.174-6.107-6.307a.973.973 0 0 0-1.36.137c-1.086 1.108-2.123 2.267-3.249 3.333-8.805 8.336-19.139 12.761-31.404 12.155-11.314-.559-20.61-5.153-27.729-14.014a39.956 39.956 0 0 1-7.497-15.2 33.358 33.358 0 0 1-.663-4.083c-.18-1.39.3-1.987 1.572-2.015 1.38-.03 2.762-.033 4.142-.034q17.61-.003 35.218-.001h35.736c1.381 0 2.763.009 4.143-.019 1.664-.033 2.262-.563 2.326-2.069a55.633 55.633 0 0 0-5.286-26.636 46.525 46.525 0 0 0-12.192-15.907zm4.392 34.24c-.517.025-1.034.048-1.552.051-1.209.008-2.418.003-3.626.003h-29.014q-16.062 0-32.123-.007c-.857 0-1.715-.084-2.572-.146a1.064 1.064 0 0 1-.838-1.108 11.124 11.124 0 0 1 .071-1.546 39.599 39.599 0 0 1 10.76-21.396 32.668 32.668 0 0 1 17.072-9.147 37.34 37.34 0 0 1 18.434.657 32.301 32.301 0 0 1 17.014 12.074 40.591 40.591 0 0 1 7.792 18.942c.146 1.044-.309 1.57-1.418 1.623zm209.362-28.949c-11.84-13.499-26.865-18.374-44.311-15.109-14.47 2.708-24.98 11.186-31.855 24.148a54.208 54.208 0 0 0-6.137 26.942 51.157 51.157 0 0 0 10.313 30.346 48.525 48.525 0 0 0 49.131 18.342 54.007 54.007 0 0 0 26.542-14.294c1.116-1.074 2.143-2.241 3.188-3.387a1.372 1.372 0 0 0 .075-1.864q-2.873-2.976-5.78-5.919c-.529-.534-1.169-.453-1.767.17-.955.997-1.858 2.047-2.857 2.997-8.773 8.353-19.066 12.858-31.34 12.334a36.422 36.422 0 0 1-25.78-11.508 39.954 39.954 0 0 1-9.873-18.501 29.995 29.995 0 0 1-.477-4.1 1.068 1.068 0 0 1 .846-1.103c1.373-.062 2.747-.146 4.121-.148q18.127-.017 36.254-.006 18.645 0 37.29-.008a34.236 34.236 0 0 0 3.607-.205 1.147 1.147 0 0 0 .742-.653 4.675 4.675 0 0 0 .274-1.512 58.265 58.265 0 0 0-.928-12.881 49.518 49.518 0 0 0-11.278-24.08zm-.5 28.904c-1.38.048-2.76.094-4.14.095q-15.286.012-30.572.004h-23.318q-3.886-.003-7.772-.01a33.185 33.185 0 0 1-3.593-.227.945.945 0 0 1-.623-.648 6.858 6.858 0 0 1-.001-2.05 41.105 41.105 0 0 1 6.841-16.618c6.546-9.209 15.573-13.874 26.751-14.58a36.096 36.096 0 0 1 12.305 1.316 31.651 31.651 0 0 1 14.444 8.758 40.177 40.177 0 0 1 10.745 22.518 1.282 1.282 0 0 1-1.066 1.442z" class="cls-3"/><path d="M1900.357 248.853q-18.127 0-36.254.006 18.127-.017 36.254-.006 18.645 0 37.29-.008-18.645.02-37.29.008zM188.031 216.572c-10.8-18.479-31.549-27.477-53.53-21.153-13.195 3.796-22.503 12.457-28.472 24.714a54.41 54.41 0 0 0-5.33 26.13 51.171 51.171 0 0 0 10.484 29.807 48.507 48.507 0 0 0 48.79 18.15 53.423 53.423 0 0 0 26.976-14.596c4.605-4.535 4.276-3.696.258-7.91-1.066-1.119-2.222-2.154-3.384-3.172a.933.933 0 0 0-.908.008c-1.255 1.18-2.424 2.453-3.68 3.633-8.847 8.32-19.214 12.65-31.492 12.02a36.437 36.437 0 0 1-17.661-5.312c-9.805-6.084-15.48-15.03-17.816-26.21a17.68 17.68 0 0 1-.195-2.575 1.054 1.054 0 0 1 .841-1.108c1.03-.06 2.06-.138 3.09-.139q18.664-.014 37.327-.006h11.924q12.702 0 25.403-.005c1.035 0 2.07-.052 3.104-.098a1.488 1.488 0 0 0 1.31-1.34c.054-1.896.16-3.797.098-5.691a52.526 52.526 0 0 0-7.137-25.147zm-4.582 21.056c-.106.266-.39.628-.623.65-1.367.127-2.742.227-4.114.229q-15.547.026-31.093.01-15.288 0-30.576-.004a104.327 104.327 0 0 1-3.624-.085 1.287 1.287 0 0 1-1.073-1.44c.26-1.53.48-3.072.858-4.572a38.8 38.8 0 0 1 9.504-17.561 32.83 32.83 0 0 1 17.883-9.74 37.652 37.652 0 0 1 17.938.633 31.956 31.956 0 0 1 16.131 10.75 40.553 40.553 0 0 1 8.872 20.114 2.038 2.038 0 0 1-.083 1.016z" class="cls-3"/><path d="M116.002 248.86q18.664-.015 37.327-.007h11.924-11.924q-18.663 0-37.327.006zm1714.248-27.68c-2.647-12.432-9.74-21.106-21.838-25.487a40.158 40.158 0 0 0-15.798-2.15 35.254 35.254 0 0 0-10.62 2.113 36.825 36.825 0 0 0-15.132 10.556c-.903 1.032-1.791 2.077-2.703 3.102-.088.1-.356.181-.43.125-.253-.19-.635-.438-.648-.68a87.523 87.523 0 0 1-.103-4.66q-.007-32.915-.017-65.828c-.011-6.54.925-5.682-5.766-5.756a89.03 89.03 0 0 0-3.11.013c-1.819.043-2.231.41-2.26 2.032-.028 1.554-.021 3.11-.021 4.664q-.002 36.542-.001 73.085 0 36.023.018 72.047c.003 2.571-.343 5.166.29 7.717 2.661 1.076 5.446.345 8.166.55a8.475 8.475 0 0 0 1.035-.034c1.097-.052 1.604-.51 1.624-1.535.031-1.554.037-3.11.037-4.664q.003-27.472.002-54.943c0-1.382.023-2.765 0-4.147a6.353 6.353 0 0 1 .762-2.969 39.135 39.135 0 0 1 10.908-13.643 28.956 28.956 0 0 1 11.563-5.567 32.275 32.275 0 0 1 14.371.08c9.722 2.134 15.758 8.042 18.33 17.616a39.098 39.098 0 0 1 1.103 10.27q-.015 26.693-.002 53.387 0 2.332.037 4.665a1.38 1.38 0 0 0 1.2 1.397q4.4.019 8.802-.008a1.253 1.253 0 0 0 1.051-.942c.05-1.032.125-2.064.126-3.096.007-19.178-.02-38.357.028-57.535a46.275 46.275 0 0 0-1.004-9.775zm425.344-17.733a48.324 48.324 0 0 0-29.336-10.09c-2.065.137-4.131.248-6.193.42a32.054 32.054 0 0 0-4.105.5c-17.76 3.845-29.917 14.306-36.28 31.282a53.668 53.668 0 0 0-.734 35.55 47.11 47.11 0 0 0 15.24 22.961c12.438 10.184 26.746 13.32 42.27 9.973 16.541-3.566 28.04-13.673 34.399-29.252 5.513-13.51 5.376-27.27.052-40.874a47.284 47.284 0 0 0-15.313-20.47zm6.092 53.111a38.498 38.498 0 0 1-5.142 11.792c-6.324 9.567-15.362 14.57-26.644 15.732a40.595 40.595 0 0 1-4.136.019 33.6 33.6 0 0 1-12.245-1.532 34.048 34.048 0 0 1-20.307-16.57 41.471 41.471 0 0 1-4.938-15.686 48.037 48.037 0 0 1 1.849-20.457 41.185 41.185 0 0 1 3.82-8.46 33.614 33.614 0 0 1 20.97-15.716 40.933 40.933 0 0 1 23.464.649 33.474 33.474 0 0 1 17.53 13.025 40.516 40.516 0 0 1 6.843 18.212 49.654 49.654 0 0 1-1.064 18.992zm-960.28-28.045c-6.987-23.105-28.435-38.829-56.356-34.297-16.316 3.422-28.175 12.593-35.037 27.798-6.427 14.242-6.488 28.784-.654 43.234a46.234 46.234 0 0 0 19.835 23.166c11.72 6.87 24.269 8.52 37.42 5.325 13.868-3.368 24.076-11.578 30.844-24.055a51.922 51.922 0 0 0 6.175-25.98 47.567 47.567 0 0 0-2.227-15.191zm-9.63 21.761a42.828 42.828 0 0 1-2.913 11.5c-4.3 10.279-11.548 17.425-22.301 20.783a35.065 35.065 0 0 1-12.067 1.648 36.296 36.296 0 0 1-12.404-1.737 33.956 33.956 0 0 1-21.495-19.548 45.292 45.292 0 0 1-3.494-23.765 44.39 44.39 0 0 1 3.287-12.978c5.1-11.57 13.751-18.678 26.249-21.09a40.982 40.982 0 0 1 18.95.733 33.77 33.77 0 0 1 22.216 18.73 45.714 45.714 0 0 1 3.973 25.724zM476.686 207.2c-12.34-11.99-27.246-15.493-43.906-12.931-16.936 3.635-28.906 13.413-35.515 29.389-5.74 13.875-5.574 27.956.16 41.811a46.441 46.441 0 0 0 24.997 25.669 48.796 48.796 0 0 0 26.818 3.618q22.398-3.158 34.493-22.154c5.52-8.675 7.877-18.288 7.968-29.843a42.1 42.1 0 0 0-1.146-9.461 49.171 49.171 0 0 0-13.87-26.098zm.315 54.04c-4.098 10.572-11.486 17.867-22.433 21.3a34.829 34.829 0 0 1-12.045 1.667 37.376 37.376 0 0 1-12.917-1.89 33.669 33.669 0 0 1-18.382-14.329 41.539 41.539 0 0 1-5.665-14.883 47.96 47.96 0 0 1 1.042-22.021 38.049 38.049 0 0 1 4.588-10.367 33.947 33.947 0 0 1 22.353-15.433 41.3 41.3 0 0 1 20.955.833 33.632 33.632 0 0 1 19.794 15.66 43.179 43.179 0 0 1 5.276 15.566 45.703 45.703 0 0 1-2.566 23.897zM375.57 249.67a31.96 31.96 0 0 0-6.057-3.96 53.005 53.005 0 0 0-10.61-4.086c-4.166-1.113-8.367-2.1-12.562-3.102a83.693 83.693 0 0 1-13.353-4.064 23.57 23.57 0 0 1-6.223-3.667 12.078 12.078 0 0 1-4.277-6.905 13.82 13.82 0 0 1 4.03-13.256 18.431 18.431 0 0 1 6.518-4.132 30.972 30.972 0 0 1 10.09-2.132 39.958 39.958 0 0 1 26.14 8.236c.826.624 1.616 1.3 2.475 1.872a.997.997 0 0 0 .944-.05 41.598 41.598 0 0 0 6.163-6.935 1.01 1.01 0 0 0-.335-1.372 61.682 61.682 0 0 0-5.208-4.238c-8.382-5.727-17.742-8.316-27.846-8.554-2.581.21-5.185.277-7.74.66a35.315 35.315 0 0 0-15.728 6.256 27.586 27.586 0 0 0-8.244 9.18 23.853 23.853 0 0 0-1.49 20.03 21.693 21.693 0 0 0 6.96 9.499 39.238 39.238 0 0 0 9.772 5.786 80.487 80.487 0 0 0 12.78 4.172c4.193 1.016 8.39 2.013 12.568 3.09a45.142 45.142 0 0 1 8.744 3.177 19.136 19.136 0 0 1 5.504 3.824 10.944 10.944 0 0 1 2.958 5.363 13.5 13.5 0 0 1-4.377 13.584 21.204 21.204 0 0 1-7.136 4.112 38.423 38.423 0 0 1-14.252 2.178 37.982 37.982 0 0 1-28.72-13.295c-.801-.902-1.53-1.869-2.301-2.797a.999.999 0 0 0-1.352-.261c-2.36 2.017-4.743 4.01-7.054 6.081a1.59 1.59 0 0 0-.227 1.402 6.04 6.04 0 0 0 1.107 1.728 48.65 48.65 0 0 0 22.321 15.37 52.595 52.595 0 0 0 27.095 1.871 39.77 39.77 0 0 0 16.584-6.935c5.851-4.346 9.438-10.055 10.166-17.34.806-8.058-1.486-15.029-7.827-20.39zm2078.361-1.22a40.966 40.966 0 0 0-9.125-4.817 103.823 103.823 0 0 0-13.883-4.073 555.626 555.626 0 0 1-12.538-3.141 37.24 37.24 0 0 1-8.155-3.244 17.765 17.765 0 0 1-4.93-3.732 12.492 12.492 0 0 1-3.111-10.544 14.142 14.142 0 0 1 5.69-9.52 23.384 23.384 0 0 1 8.858-4.078 37.131 37.131 0 0 1 19.422.701 39.762 39.762 0 0 1 14.495 7.754c1.37 1.14 1.798 1.094 2.958-.177 1.512-1.658 2.999-3.338 4.487-5.018a4.45 4.45 0 0 0 .593-.841 1.183 1.183 0 0 0-.086-1.422 34.309 34.309 0 0 0-8.666-6.479 51.268 51.268 0 0 0-23.754-6.476c-2.238.145-4.478.26-6.712.441a35.293 35.293 0 0 0-14.24 4.36 28.3 28.3 0 0 0-11.396 11.013 23.549 23.549 0 0 0-1.589 20.46 22.318 22.318 0 0 0 7.43 9.765 40.426 40.426 0 0 0 9.386 5.413 79.597 79.597 0 0 0 12.776 4.142c3.018.726 6.056 1.366 9.064 2.126a69.862 69.862 0 0 1 10.34 3.296 21.964 21.964 0 0 1 6.988 4.358 11.187 11.187 0 0 1 3.443 6.775 13.546 13.546 0 0 1-4.66 12.532 22.236 22.236 0 0 1-7.156 4.064 40.186 40.186 0 0 1-42.915-11.19c-.799-.904-1.527-1.87-2.298-2.798a1.012 1.012 0 0 0-1.354-.193c-2.367 2.01-4.756 3.994-7.071 6.061a1.542 1.542 0 0 0-.175 1.415 9.638 9.638 0 0 0 1.44 2.127 48.615 48.615 0 0 0 20.998 14.623 52.738 52.738 0 0 0 28.562 2.118 39.045 39.045 0 0 0 16.482-7.13c5.61-4.313 9.073-9.888 9.763-16.995.866-8.92-1.938-16.31-9.36-21.676zm-332.224.483a36.63 36.63 0 0 0-7.128-4.196 71.729 71.729 0 0 0-12.25-4.127c-4.352-1.089-8.732-2.068-13.09-3.133a57.724 57.724 0 0 1-9.809-3.273 20.833 20.833 0 0 1-6.48-4.214 12.121 12.121 0 0 1-3.202-5.24c-1.464-5.098-.242-9.552 3.19-13.47a17.131 17.131 0 0 1 5.389-3.97 28.43 28.43 0 0 1 11.461-2.91 39.71 39.71 0 0 1 26.632 8.282c.687.523 1.34 1.09 2.02 1.623a1.273 1.273 0 0 0 1.818-.242q2.76-3.087 5.484-6.207a1.337 1.337 0 0 0-.228-1.841c-1.874-1.522-3.663-3.177-5.67-4.5a50.58 50.58 0 0 0-27.445-8.186c-2.582.213-5.186.279-7.74.67a35.321 35.321 0 0 0-15.707 6.31 27.988 27.988 0 0 0-7.948 8.766 23.722 23.722 0 0 0-2.189 19.017 21.697 21.697 0 0 0 7.141 10.594 39.816 39.816 0 0 0 10.185 6.095 81.292 81.292 0 0 0 12.789 4.15c4.19 1.028 8.389 2.02 12.567 3.094a45.297 45.297 0 0 1 8.738 3.196 18.96 18.96 0 0 1 5.482 3.859 10.225 10.225 0 0 1 2.793 4.885c1.216 5.718-.196 10.605-4.787 14.408a22.477 22.477 0 0 1-6.77 3.728 39.135 39.135 0 0 1-19.932 1.65 37.11 37.11 0 0 1-23.647-13.727c-2.546-3.165-2.218-2.79-5.043-.43-1.72 1.438-3.391 2.937-5.049 4.448a1.143 1.143 0 0 0-.094 1.448 15.053 15.053 0 0 0 1.493 2.101 48.804 48.804 0 0 0 22.037 14.908 52.669 52.669 0 0 0 27.101 1.815 39.998 39.998 0 0 0 16.145-6.682c6.395-4.632 10.131-10.811 10.574-18.736.452-8.099-2.225-14.93-8.83-19.963zm-1830.628-18.27a45.672 45.672 0 0 0-1.595-12.29c-3.208-11.031-10.115-18.629-20.959-22.605a42.233 42.233 0 0 0-22.442-1.352 36.07 36.07 0 0 0-20.172 12.787c-.985 1.2-1.868 2.482-2.851 3.684-.129.158-.573.09-.864.06-.08-.009-.19-.26-.193-.402-.056-2.76-.115-5.52-.138-8.28-.062-7.297.754-6.201-6.376-6.295a25.336 25.336 0 0 0-2.58.134 1.107 1.107 0 0 0-1.015.987c-.118 1.546-.143 3.102-.144 4.654q-.013 21.503-.005 43.006 0 20.985.003 41.97c0 1.553.011 3.107.075 4.658a1.03 1.03 0 0 0 .898 1.07 45.275 45.275 0 0 0 9.28-.015 1.046 1.046 0 0 0 .882-1.09c.052-1.552.073-3.106.074-4.659q.006-27.72.003-55.44c0-1.21.013-2.419.002-3.628a8.094 8.094 0 0 1 .988-3.958 41.336 41.336 0 0 1 6.91-9.652c8.933-9.166 19.677-11.627 31.824-8.268a21.729 21.729 0 0 1 13.78 11 25.646 25.646 0 0 1 2.613 7.28 50.158 50.158 0 0 1 .945 9.775q-.068 26.944-.012 53.887c.001 1.372.1 2.746.23 4.111a.961.961 0 0 0 .666.625 46.256 46.256 0 0 0 9.28.046c.147-.012.29-.18.416-.298.116-.11.287-.245.294-.378.082-1.375.187-2.752.188-4.128q.019-22.54.008-45.078c0-3.973.034-7.946-.013-11.918zm2079.897.629a46.223 46.223 0 0 0-1.529-12.82c-3.111-10.841-9.84-18.428-20.41-22.513a39.038 39.038 0 0 0-16.274-2.421 35.299 35.299 0 0 0-26.536 13.21c-1.112 1.318-2.094 2.745-3.184 4.084-.135.165-.568.12-.86.106-.083-.004-.218-.245-.221-.38-.063-2.76-.134-5.519-.157-8.279-.06-7.306.733-6.213-6.374-6.314-.69-.01-1.382.01-2.072.037a1.51 1.51 0 0 0-1.633 1.564q-.058 2.33-.057 4.662-.006 20.992-.003 41.984l.002 41.984c0 1.555.003 3.11.03 4.664.02 1.098.515 1.684 1.47 1.696q3.886.048 7.772.03a2.143 2.143 0 0 0 .993-.234c.277-.153.644-.442.67-.7.13-1.364.224-2.738.225-4.108q.02-27.73.01-55.46c0-1.382.022-2.765 0-4.146a8.918 8.918 0 0 1 1.133-4.45 39.89 39.89 0 0 1 8.068-10.709c9.597-8.846 20.657-10.548 32.719-6.269a20.936 20.936 0 0 1 12.394 11.826 28.493 28.493 0 0 1 2.083 6.917 56.543 56.543 0 0 1 .734 9.284c-.03 16.931-.068 33.863.008 50.795.04 8.764-1.376 7.097 7.347 7.283.855.018 1.713-.096 2.569-.149a1.427 1.427 0 0 0 .988-1.054c.039-1.38.09-2.76.091-4.14q.012-16.069.004-32.137v-23.843zm-333.096-5.195a30.35 30.35 0 0 0-1.32-7.64c-3.183-11.023-10.055-18.664-20.9-22.67a39.328 39.328 0 0 0-13.713-2.326 35.845 35.845 0 0 0-28.595 13.291c-1.003 1.184-1.884 2.47-2.844 3.692a5.014 5.014 0 0 1-.718.595c-.26.224-.44.189-.5-.133a12.169 12.169 0 0 1-.313-1.982c-.056-3.799-.062-7.598-.1-11.397a1.445 1.445 0 0 0-1.21-1.428c-2.584-.02-5.17-.047-7.75.038-.338.01-.902.631-.937 1.008-.142 1.543-.15 3.101-.152 4.654q-.012 21.247-.005 42.494l.002 41.976c0 1.554.007 3.109.038 4.663.02 1.068.528 1.624 1.534 1.635 2.59.028 5.18.04 7.77.018 1.203-.01 1.778-.672 1.802-2 .028-1.554.025-3.109.025-4.664l.003-54.931c0-1.382-.048-2.769.06-4.143a6.803 6.803 0 0 1 .612-2.485c3.247-6.444 7.62-11.954 13.866-15.718 8.377-5.048 17.268-5.517 26.422-2.468a21.757 21.757 0 0 1 13.94 13.634 35.654 35.654 0 0 1 1.439 5.494 50.705 50.705 0 0 1 .786 10.314q-.034 24.357.013 48.713c.006 2.557-.405 5.146.337 7.674.241.82 2.327.592 8.078.608.51.001 1.02-.111 1.531-.156a1.482 1.482 0 0 0 .972-1.074c.033-1.208.077-2.417.077-3.625q.008-27.466-.007-54.931c-.003-2.244-.186-4.486-.244-6.73zm-1928.037-71.59a1.534 1.534 0 0 0 1.656-1.551c.019-2.415.006-4.83-.025-7.245a1.39 1.39 0 0 0-1.255-1.378c-1.206-.042-2.414-.08-3.62-.08q-45.084-.007-90.167.007c-5.59.004-5.273-.749-5.274 5.303 0 1.036.008 2.073.05 3.108a2.326 2.326 0 0 0 .242.984c.147.273.417.634.67.668a24.148 24.148 0 0 0 3.085.207q17.1.02 34.201.01c1.555 0 3.11.006 4.663.035a1.664 1.664 0 0 1 1.695 1.557c.045 1.553.08 3.107.08 4.66q.003 15.805.003 31.61v31.61q0 31.092.004 62.184c0 1.726.062 3.452.092 5.177.006.352.611 1.137.891 1.138 2.934.012 5.868.05 8.8-.02a1.415 1.415 0 0 0 1.026-.914c.143-1.717.159-3.447.16-5.172q.01-45.602.004-91.204 0-17.36.002-34.719c0-1.381.012-2.763.049-4.144a1.59 1.59 0 0 1 1.517-1.73q2.07-.067 4.141-.067 16.583-.007 33.165-.004c1.382 0 2.764-.003 4.145-.03z" class="cls-3"/><path d="M55.847 224.013v-31.61 31.61q0 31.091.004 62.183-.01-31.091-.004-62.183zM560.9 195.914a4.003 4.003 0 0 0-1.35-.728 45.304 45.304 0 0 0-12.776-1.726 28.92 28.92 0 0 0-15.297 4.093 33.407 33.407 0 0 0-8.906 7.804c-.865 1.073-1.641 2.218-2.497 3.298a2.155 2.155 0 0 1-.803.448c-.353.162-.63-.337-.638-1.198-.013-1.553.004-3.106-.018-4.659-.125-8.734 1.21-7.098-7.41-7.279-.345-.007-.69.009-1.035.025a1.645 1.645 0 0 0-1.662 1.586c-.04 1.552-.065 3.104-.066 4.656q-.007 20.967-.002 41.934v21.225q0 10.613.003 21.226c0 1.552-.013 3.109.11 4.653a1.48 1.48 0 0 0 .86 1.095 37.006 37.006 0 0 0 9.27.039c.334-.036.826-.689.858-1.086.122-1.545.11-3.102.11-4.654q.007-29.25.004-58.5c0-1.38-.036-2.763.034-4.14a5.116 5.116 0 0 1 .437-1.989c2.99-5.976 7.02-11.068 12.828-14.54a21.837 21.837 0 0 1 11.314-3.162 37.16 37.16 0 0 1 10.715 1.51 5.936 5.936 0 0 0 1.483.315 1.101 1.101 0 0 0 .876-.407q2.026-4.452 3.932-8.958c.09-.213-.148-.696-.375-.881z" class="cls-3"/><path d="M508.442 202.234q-.007 20.967-.002 41.934v21.225-21.225l.002-41.934zm1130.903-6.679c-.32-.126-.624-.3-.953-.395a46.036 46.036 0 0 0-12.792-1.7 29.23 29.23 0 0 0-19.506 7.137 37.516 37.516 0 0 0-5.955 6.46c-.501.68-1.043 1.33-1.597 1.967-.063.072-.342.001-.495-.064-.13-.054-.294-.18-.32-.302-.581-2.73-.118-5.498-.276-8.245-.069-1.196-.136-2.395-.289-3.582a.96.96 0 0 0-.665-.642 314.514 314.514 0 0 0-7.739-.134 1.383 1.383 0 0 0-1.21 1.397c-.04 1.207-.074 2.414-.075 3.622q-.007 21.5-.003 43 0 22.02.003 44.038c0 1.035.034 2.07.066 3.105a1.39 1.39 0 0 0 1.27 1.324c1.897.037 3.796.086 5.694.071a23.23 23.23 0 0 0 3.07-.24.976.976 0 0 0 .653-.658c.135-1.536.253-3.08.254-4.622q.024-29.272.012-58.543c0-1.382-.08-2.772.048-4.142a8.122 8.122 0 0 1 .752-2.981 34.885 34.885 0 0 1 11.372-13.197 22.224 22.224 0 0 1 12.668-3.89 34.284 34.284 0 0 1 11.198 1.747 1.428 1.428 0 0 0 2.081-.881 913.202 913.202 0 0 0 3.56-8.041 1.298 1.298 0 0 0-.826-1.609z" class="cls-3"/><path d="M1587.47 244.075q0-21.5.003-43.001-.007 21.5-.003 43 0 22.02.003 44.038-.006-22.019-.003-44.037zm571.054-47.457c-.248-.72-1.428-.782-8.058-.653-.345.007-.69.012-1.035.028a1.62 1.62 0 0 0-1.652 1.588q-.058 2.328-.061 4.658-.007 20.976-.003 41.951l.001 41.952c0 1.554.003 3.107.035 4.66.026 1.25.589 1.778 1.974 1.793 2.416.027 4.833.009 7.25.005.171 0 .341-.042.512-.055a1.429 1.429 0 0 0 1.376-1.26c.04-1.724.073-3.45.073-5.176q.006-40.915-.021-81.831c-.004-2.553.473-5.154-.391-7.66zm-5.018-40.381a8.418 8.418 0 0 0-8.732 8.271c-.26 4.496 3.777 8.596 8.379 8.67a8.624 8.624 0 0 0 8.733-8.321 8.43 8.43 0 0 0-8.38-8.62z" class="cls-3"/><path fill="url(#linear-gradient)" d="M1000.805 154.215c-.005-8.806.07-17.614-.04-26.419-.121-9.522-4.3-16.88-12.298-22.048-1.304-.842-2.672-1.584-4.018-2.36Q932.637 73.53 880.823 43.677q-25.348-14.603-50.71-29.18a48.279 48.279 0 0 0-4.568-2.428 24.395 24.395 0 0 0-12.102-2.16 25.818 25.818 0 0 0-10.808 3.304c-1.642.952-3.302 1.874-4.947 2.822q-37.685 21.71-75.367 43.422-38.58 22.23-77.156 44.469c-1.345.775-2.713 1.522-3.997 2.391a25.244 25.244 0 0 0-10.701 15.34 29.611 29.611 0 0 0-.79 7.182q-.002 39.11-.03 78.22 0 .225.006.45c.033 1.05.17 2.1.247 3.148a6.365 6.365 0 0 1 2.631.334 6.35 6.35 0 0 0-2.631-.332c-.027 1.017-.068 2.034-.097 3.05l-.008.279q-.015.594-.023 1.188-.003.328-.003.657.047 47.165.114 94.33c.001 1.037-.058 2.08.03 3.11.725 8.594 4.405 15.51 11.68 20.343 1.15.763 2.366 1.426 3.562 2.116q17.273 9.958 34.55 19.909l113.95 65.685c3.438 1.981 6.839 4.047 10.387 5.813a24.31 24.31 0 0 0 22.44.024c1.552-.751 3.056-1.608 4.551-2.47q21.311-12.272 42.611-24.564l111.715-64.391c1.346-.776 2.71-1.534 3.985-2.416a25.21 25.21 0 0 0 10.547-15.448 31.033 31.033 0 0 0 .705-7.193q.054-48.461.113-96.922 0-.26-.003-.518c-.015-1.207-.083-2.415-.12-3.622v-.001c.084-1.718.24-3.436.24-5.155q.012-25.124-.02-50.247zM789.65 271.863c-.048 1.893-.14 3.787-.138 5.68q.047 38.266.106 76.53c.001 1.539-.12 3.08-.258 4.612a.914.914 0 0 1-.743.482 12.683 12.683 0 0 1-2.32-1.012q-11.425-6.565-22.827-13.168l-46.08-26.632c-.277-.16-.558-.316-.84-.469-1.075-.582-2.175-1.12-3.257-1.686a.567.567 0 0 1-.465-.056.56.56 0 0 1-.191-.425l-1.262-.62a.661.661 0 0 1-.555-.055.575.575 0 0 1-.208-.336 1.215 1.215 0 0 1-.031-.166c-.719-.473-1.444-.937-2.154-1.423-.961-.656-1.045-1.488-.193-1.99 1.335-.786 2.684-1.549 4.032-2.313q23.585-13.379 47.168-26.763c4.988-2.84 4.363-1.79 4.374-7.556q0-.484-.004-.968a124.52 124.52 0 0 0-.052-2.368c-.044-1.467-.104-2.935-.145-4.403-1.168-.253-2.336-.502-3.503-.76 1.167.259 2.335.507 3.503.759a11.527 11.527 0 0 0 .37-2.015c.035-4.132-.016-8.265.034-12.397a3.476 3.476 0 0 0-1.909-3.359q-11.168-6.467-22.284-13.026a3.39 3.39 0 0 0-3.823.108c-8.507 4.882-17.051 9.697-25.57 14.557a11.712 11.712 0 0 0-1.565 1.284l-.07.026-.125.046a2.02 2.02 0 0 1-.969.912 1.71 1.71 0 0 1-.52.118 2 2 0 0 1-.154.006q-.075 0-.153-.006l-.052.022-.23.096a1.768 1.768 0 0 1-.882.839 1.652 1.652 0 0 1-.618.11q-.069 0-.14-.005l-14.43 8.012c-2.555 1.42-5.102 2.855-7.66 4.27a1.033 1.033 0 0 1-1.502-.787c-.045-1.202-.092-2.405-.095-3.608-.012-5.857 0-11.713-.018-17.57-.005-1.547-.084-3.094-.13-4.64a13.02 13.02 0 0 1-6.824-2.213 13.002 13.002 0 0 0 6.825 2.211c.089-1.89.255-3.782.255-5.674q.007-28.513-.025-57.026a32.829 32.829 0 0 1 .216-3.598c.02-.186.6-.522.763-.447a44.505 44.505 0 0 1 3.665 1.89q18.121 10.581 36.225 21.192 30.843 18.08 61.677 36.176c1.34.787 2.696 1.55 4.023 2.358a2.738 2.738 0 0 1 1.474 2.535c-.035 1.382.01 2.765.01 4.147-.006 8.468-.03 16.935-.01 25.402.004 1.72.171 3.438.264 5.158a22.233 22.233 0 0 1 6.489.217 22.187 22.187 0 0 0-6.49-.215zm29.5-83.289a35.883 35.883 0 0 1-3.178 1.739 2.053 2.053 0 0 1-1.455-.004 17.13 17.13 0 0 1-2.274-1.23Q761.718 159.51 711.2 129.93c-.889-.52-1.732-1.12-2.587-1.697a.954.954 0 0 1 .042-1.354c.714-.48 1.416-.98 2.159-1.409q31.618-18.28 63.244-36.547c4.336-2.506 8.664-5.026 13.01-7.514a3.457 3.457 0 0 1 1.43-.43c.25-.019.73.29.757.497a28.036 28.036 0 0 1 .285 3.59q.031 14.253.011 28.506h-.05l.002 26.952c0 1.382.039 2.764.022 4.146a2.53 2.53 0 0 0 1.277 2.108 9.704 9.704 0 0 0 .885.535q10.947 6.423 21.888 12.859a3.026 3.026 0 0 0 3.385-.023q11.16-6.572 22.347-13.1a3 3 0 0 0 1.688-2.94c-.068-1.379-.009-2.764-.01-4.146q-.022-26.952-.036-53.904c0-1.545.121-3.093.264-4.632a.936.936 0 0 1 .77-.485 10.855 10.855 0 0 1 2.36.938c4.797 2.743 9.57 5.528 14.354 8.294q29.824 17.245 59.645 34.493c1.191.69 2.332 1.466 3.487 2.215a.94.94 0 0 1 .044 1.35c-1.299.845-2.583 1.717-3.919 2.5q-25.697 15.067-51.408 30.11-23.696 13.87-47.397 27.732zm130.252 51.142c-.051 7.122-.09 14.244-.163 21.366-.005.465-.016.93-.033 1.395-.048 1.394-.136 2.789-.195 4.183-.262.432-.393.648-.544.65a.295.295 0 0 1-.185-.089 4.629 4.629 0 0 1-.477-.546l-20.368-11.548a1.615 1.615 0 0 1-.713-.1 1.515 1.515 0 0 1-.75-.689q-.032-.055-.061-.114l-.007-.003-.406-.175a1.698 1.698 0 0 1-.729-.09 1.321 1.321 0 0 1-.662-.562 1.836 1.836 0 0 1-.131-.25 1.211 1.211 0 0 1-.56-.06 1.022 1.022 0 0 1-.533-.49 1.69 1.69 0 0 1-.09-.193.874.874 0 0 0-.077-.094.694.694 0 0 0-.21-.155.738.738 0 0 0-.374-.063 9.312 9.312 0 0 0-1.994.442 9.372 9.372 0 0 1 1.992-.443c-.989-.681-1.934-1.435-2.97-2.029-5.542-3.177-11.106-6.315-16.663-9.466l-8.56-4.852a2.739 2.739 0 0 0-2.936.041q-11.169 6.553-22.35 13.087a3.5 3.5 0 0 0-2.011 3.308c.058 4.318.014 8.638.037 12.956a9.02 9.02 0 0 0 .265 1.522c-.047 3.798-.086 7.595-.144 11.392a2.655 2.655 0 0 0 1.557 2.468l9.905 5.628q20.504 11.613 41.006 23.23a40.72 40.72 0 0 1 3.456 2.243.952.952 0 0 1-.032.907 21.514 21.514 0 0 1-2.545 1.745q-17.256 9.99-34.526 19.955c-1.792 1.037-3.542 2.147-5.309 3.222-.002.001-.112.353-.126.397l-.002.005h-.01l-.043.002-.084.003-.072.003-.208.009-1.493.795c-.004.01-.086.314-.086.314l-.325-.005c-1.522.797-3.075 1.54-4.562 2.398q-14.331 8.262-28.644 16.556a19.327 19.327 0 0 1-2.78 1.276.915.915 0 0 1-.752-.467 29.822 29.822 0 0 1-.25-3.584q.016-19.916.068-39.833.029-19.141.034-38.282c0-1.722-.084-3.444-.128-5.164-2.987-.082-5.984-.475-8.924.287 2.94-.762 5.937-.37 8.924-.288.076-1.503.207-3.007.241-4.511q.007-.323.008-.645c.019-8.638-.006-17.276-.01-25.913 0-1.382.01-2.764.045-4.145a2.076 2.076 0 0 1 1.02-1.697 54.95 54.95 0 0 1 2.641-1.631q50.052-29.336 100.11-58.659a33.624 33.624 0 0 1 3.211-1.64.918.918 0 0 1 .782.422 13.828 13.828 0 0 1 .252 2.548q.016 12.438-.008 24.877-.013 16.844-.016 33.687c.003 1.718.18 3.435.277 5.155a13.503 13.503 0 0 0 5.861-2.322 13.523 13.523 0 0 1-5.86 2.323z"/><path d="M866.943 266.656c.32-.02.641-.059.962-.08-.32.021-.642.06-.962.08zm60.491-11.53a2.25 2.25 0 0 0-.455-.534q-.043-.036-.088-.068a1.56 1.56 0 0 0-.288-.166 1.64 1.64 0 0 0-.691-.134q.03.06.061.114a1.515 1.515 0 0 0 .75.69 1.607 1.607 0 0 0 .711.098z" class="cls-2"/><path d="M925.973 254.338a1.515 1.515 0 0 0 .75.69 1.515 1.515 0 0 1-.75-.69zm1.461.788a2.249 2.249 0 0 0-.455-.534 2.25 2.25 0 0 1 .455.534zm-.831-.768a1.56 1.56 0 0 1 .288.165 1.56 1.56 0 0 0-.288-.165zm-220.019-1.228a1.814 1.814 0 0 0-1.638.943q.071.005.14.005a1.653 1.653 0 0 0 .618-.11 1.756 1.756 0 0 0 .88-.837z" class="cls-2"/><path d="M705.704 253.968a1.653 1.653 0 0 1-.618.11 1.652 1.652 0 0 0 .618-.11zM949.01 266.66l-1.206.015a4.629 4.629 0 0 0 .477.546.295.295 0 0 0 .185.088c.151-.001.282-.217.544-.649z" class="cls-2"/><path d="M948.466 267.31a.295.295 0 0 1-.185-.089.295.295 0 0 0 .185.088zm-24.489-14.166l-.01-.02h.028a1.339 1.339 0 0 0-1.2-.723 1.69 1.69 0 0 0 .09.193 1.022 1.022 0 0 0 .532.49 1.21 1.21 0 0 0 .56.06z" class="cls-2"/><path d="M922.884 252.594a1.022 1.022 0 0 0 .533.49 1.022 1.022 0 0 1-.533-.49zm-214.224-.611a1.976 1.976 0 0 0-1.792 1.028q.078.006.153.006a2 2 0 0 0 .155-.006 1.71 1.71 0 0 0 .52-.118 2.007 2.007 0 0 0 .965-.91z" class="cls-2"/><path d="M707.695 252.893a1.71 1.71 0 0 1-.52.118 1.71 1.71 0 0 0 .52-.118zm217.801 1.151a1.642 1.642 0 0 0-1.5-.92l.01.017h.001l-.03.003a1.842 1.842 0 0 0 .13.25 1.322 1.322 0 0 0 .663.562 1.687 1.687 0 0 0 .726.088z" class="cls-2"/><path d="M924.006 253.141l-.03.003.031-.003zm.102.253a1.321 1.321 0 0 0 .662.562 1.322 1.322 0 0 1-.662-.562zm-.141-.27l.01.004z" class="cls-2"/><path d="M923.967 253.124l.01.02.03-.003-.03-.013z" class="cls-2"/><path d="M923.978 253.128l.028.013-.01-.017h-.028zm.028.013l-.028-.013zm-212.634 61.957l.002.001c-.02-.532-.297-.701-.794-.557a1.215 1.215 0 0 0 .031.166.576.576 0 0 0 .208.336.656.656 0 0 0 .553.054z" class="cls-2"/><path d="M711.372 315.098a.656.656 0 0 1-.553-.054.661.661 0 0 0 .555.056zm1.918 1.101l.002.001c.012-.473-.216-.621-.656-.481a.473.473 0 0 0 .654.48z" class="cls-2"/><path d="M713.29 316.199a.561.561 0 0 1-.463-.055.567.567 0 0 0 .465.056zm166.756 21.239l-.183-.004-.002.01-.017.077-.008.033-.007.032-.015.063-.016.074-.002.009-.03.132.208-.009.071-.003.084-.003.043-.002h.011l.002-.005.124-.396.002-.001-.18-.005zm.084.411l-.085.003z" class="cls-2"/><path d="M880.185 337.842c.013-.044.124-.396.126-.397l-.002.001zm-.002.005h-.01zm-.354-.261l.007-.032zm.015-.065l.017-.077zm-.046.202l.016-.074zm-.032.141l.03-.132zm-1.863.736l-.041.369.325.004.084-.313.001-.001.001-.001-.37-.058z" class="cls-2"/><path d="M878.187 338.973l.085-.314v.001z" class="cls-2"/></svg>