<svg xmlns="http://www.w3.org/2000/svg" role="img" viewBox="5.91 0.91 784.68 174.18"><title>TF Encrypted logo</title><defs><style>.cls-3{fill:#788791}</style></defs><path fill="none" d="M588.833 82.744c-4.197 2.167-7.358 3.94-8.996 8.279a18.783 18.783 0 0 0-1.008 4.362 31.904 31.904 0 0 0-.22 2.75l.028 6.988c.07 1.906-.251 4.024.621 5.686 5.406 10.295 17.893 15.129 28.176 9.149 8.887-5.169 11.785-15.27 9.276-24.744-3.3-12.46-16.445-18.374-27.877-12.47zm104.884-2.251a19.137 19.137 0 0 0-19.959 15.488c-.492 2.307.381 2.548 2.225 2.53 5.41-.053 10.82-.019 16.23-.02l16.978.002c1.365 0 2.44 0 2.067-2.037-1.637-8.937-9.189-15.648-17.541-15.963zm75.871 21.27c0-2.58-.004-5.162.002-7.743a4.812 4.812 0 0 0-.465-2.415c-5.015-9.234-16.053-13.803-26.004-9.444-7.228 3.166-12.984 11.914-11.382 23.075 1.974 13.761 16.255 21.54 28.466 14.912 5.789-3.142 10.553-7.426 9.407-15.141a22.594 22.594 0 0 1-.024-3.244z"/><path fill="#74838e" d="M305.819 80.475c-8.66.1-17.32-.023-25.98.086-2.137.026-2.946-.493-2.866-2.768.168-4.736.18-9.488-.003-14.224-.093-2.423.666-3.104 3.076-3.07 9.491.131 18.985.014 28.477.086 1.042.008 1.712-.163 2.084-.658V48.183c-.355-.48-.993-.675-2.037-.67q-21.483.097-42.967 0c-1.94-.009-2.557.54-2.542 2.545.092 12.397.046 24.795.046 37.193 0 12.565.04 25.13-.042 37.693-.012 1.942.493 2.679 2.503 2.583a86.667 86.667 0 0 1 8.989.007c2.034.115 2.526-.614 2.507-2.552-.09-9.568.026-19.138-.09-28.706-.027-2.223.644-2.832 2.831-2.802 8.575.116 17.154-.03 25.73.097a3.728 3.728 0 0 0 2.743-.684v-11.8a3.442 3.442 0 0 0-2.46-.612zM253.05 49.6c.036-1.444-.347-2.084-1.945-2.08q-26.974.067-53.948.004c-1.703-.004-2.123.685-2.066 2.24a76.783 76.783 0 0 1-.017 7.983c-.146 2.16.484 2.924 2.748 2.855 5.24-.159 10.488-.05 15.733-.05 3.556.002 3.559.003 3.559 3.507 0 20.299.026 40.597-.042 60.896-.007 1.958.52 2.663 2.512 2.57a86.887 86.887 0 0 1 8.987.01c2.048.117 2.515-.636 2.499-2.56-.084-10.232-.04-20.465-.04-30.698 0-10.398.044-20.798-.038-31.196-.016-1.957.548-2.61 2.547-2.57 5.825.117 11.655.003 17.482.067 1.5.016 2.081-.448 2.033-1.995-.093-2.992-.08-5.99-.005-8.984z"/><path d="M775.858 43.04c-.006-.498.022-1.13-.54-1.276a8.624 8.624 0 0 0-4.681-.04c-1.313.41-.682 1.883-.685 2.872-.04 11.985-.022 23.97-.038 35.955 0 .635.282 1.427-.335 1.87-.653.468-1.062-.23-1.417-.619-5.493-6.014-12.421-7.992-20.322-7.262a23.966 23.966 0 0 0-16.638 8.52c-6.729 7.958-7.775 17.282-5.264 27.019 4.264 16.532 23.096 22.826 36.495 15.69 2.73-1.456 4.786-3.729 7.217-5.997.67 2.028.225 3.848.378 5.615.06.7-.244 1.503.654 1.97 2.497 1.297 5.182-.2 5.182-2.918q.002-39.45 0-78.901c0-.833.005-1.665-.006-2.497zm-15.653 77.108c-12.211 6.628-26.492-1.15-28.467-14.912-1.601-11.16 4.155-19.909 11.383-23.075 9.951-4.359 20.99.21 26.004 9.444a4.812 4.812 0 0 1 .465 2.415c-.006 2.581-.002 5.162-.002 7.743a22.594 22.594 0 0 0 .024 3.244c1.146 7.715-3.618 11.999-9.407 15.141zM582.72 79.793c-1.107.94-2.134 3.09-3.318 2.572-1.463-.641-.657-2.864-.572-4.343.164-2.86-1.685-2.385-3.43-2.547-2.076-.193-2.494.674-2.483 2.573.074 12.065.038 24.132.038 36.198q0 18.348.012 36.697c.001.797-.381 1.986.481 2.286a7.986 7.986 0 0 0 4.91.043c1.163-.36.605-1.755.609-2.68.037-9.403.017-18.806.036-28.209 0-.626-.293-1.433.424-1.819.522-.28.893.286 1.215.632 5.594 6.005 12.59 8.054 20.575 7.266a23.734 23.734 0 0 0 16.581-8.598c6.459-7.848 7.504-16.909 5.269-26.555-4.245-18.323-27.397-24.513-40.347-13.516zm24.714 40.165c-10.283 5.98-22.77 1.146-28.176-9.15-.872-1.66-.551-3.779-.62-5.685l-.03-6.989c.036-.997.117-1.897.22-2.75a11.895 11.895 0 0 1 1.009-4.361c1.638-4.338 4.799-6.112 8.996-8.28 11.432-5.903 24.578.011 27.877 12.471 2.509 9.475-.389 19.575-9.276 24.744z" class="cls-3"/><path d="M578.829 95.385a18.783 18.783 0 0 1 1.008-4.362 11.895 11.895 0 0 0-1.008 4.362zm-215.813 26.252c-10.83.13-21.661.056-32.492.055-3.495 0-3.497-.003-3.498-3.61q-.002-12.613 0-25.226c0-3.317.003-3.32 3.214-3.321q14.996-.004 29.993-.018c.866-.002 2.088.415 2.488-.597a5.839 5.839 0 0 0 .021-3.922c-.41-1.216-1.693-.812-2.637-.814-10.08-.023-20.162-.069-30.242.028-2.164.02-2.91-.598-2.881-2.82q.164-12.61.002-25.224c-.027-2.166.615-2.885 2.832-2.865 10.997.098 21.995 0 32.993.08 2.316.017 3.006-.864 3.056-3.096.052-2.295-.86-2.795-2.947-2.784q-19.746.104-39.491-.014c-2.08-.015-2.483.71-2.472 2.594.07 12.488.036 24.976.036 37.464s.042 24.976-.043 37.463c-.013 1.98.55 2.546 2.534 2.533q19.745-.124 39.49-.017c1.977.008 3.282-.04 3.139-2.711-.123-2.283-.578-3.208-3.095-3.178zm346.493-40.88c-5.496-5.134-12.196-6.826-19.599-6.244a23.5 23.5 0 0 0-16.95 8.856c-4.764 5.806-6.395 12.562-6.069 20.016a25.779 25.779 0 0 0 8.451 18.297c10.678 9.963 27.481 8.976 37.824-.889 3.328-3.174 3.192-2.25.095-5.595-1.302-1.406-2.183-1.502-3.51.004a22.549 22.549 0 0 1-11.67 6.746c-10.513 2.758-22.456-4.8-24.384-15.432-.435-2.396.41-2.696 2.374-2.678 6.497.059 12.994.022 19.491.022q10.12-.001 20.241-.005c.98 0 2.07.201 2.163-1.34.516-8.553-2.189-15.903-8.457-21.758zm-.318 17.736q-8.49-.006-16.979-.002c-5.41.001-10.82-.033-16.229.02-1.844.018-2.717-.223-2.225-2.53a19.137 19.137 0 0 1 19.959-15.488c8.352.315 15.904 7.026 17.54 15.963.374 2.036-.701 2.038-2.066 2.037zM566.412 75.677c-1.63-1.146-6.147.205-6.9 2.107q-4.95 12.501-9.858 25.02c-2.269 5.76-4.546 11.515-7.088 17.954-.787-1.437-1.212-2.143-1.572-2.88q-9.4-19.236-18.791-38.476c-2.047-4.184-2.069-4.107-6.808-3.92-1.837.072-1.92.745-1.22 2.142 2.156 4.308 4.27 8.638 6.407 12.957q8.83 17.85 17.67 35.697c.448.904 1.003 1.771.53 2.82-2.255 4.995-3.746 10.324-6.445 15.114-2.642 4.688-6.352 5.468-10.83 2.493-2.832-1.883-2.808-1.866-4.84 1.099-.79 1.15-1.664 2.231-.153 3.422a15.06 15.06 0 0 0 14.112 2.702c5.192-1.485 7.413-5.854 9.26-10.4 3.593-8.84 7.123-17.707 10.67-26.566q7.917-19.77 15.818-39.547c.226-.566.869-1.154.038-1.738zM417.026 92.395a18.752 18.752 0 0 0-1.614-7.241c-4.89-11.961-22.657-14.207-32.064-5.576-1.015.932-2.057 3.081-2.908 2.653-1.45-.728-.65-2.843-.585-4.322.12-2.698-1.612-2.316-3.29-2.424-1.838-.119-2.668.3-2.633 2.426.129 7.82.051 15.644.051 23.467s.13 15.648-.071 23.465c-.069 2.678 1.188 2.655 3.141 2.71 2.133.062 3.068-.325 3.03-2.817-.156-10.15-.067-20.304-.06-30.456a5.962 5.962 0 0 1 .423-2.925 20.01 20.01 0 0 1 9.282-9.402c7.807-3.631 17.197-.416 19.914 6.994a23.273 23.273 0 0 1 1.343 8.074c-.018 9.32.088 18.642-.07 27.96-.042 2.537 1.157 2.614 3.023 2.547 1.7-.061 3.173.261 3.136-2.43-.15-10.9-.088-21.802-.048-32.703zm51.57 22.075c-1.204-.609-1.943.946-2.734 1.73a21.063 21.063 0 0 1-23.699 4.333c-6.997-3.217-12.585-11.4-11.391-21.57.972-8.286 5.238-14.193 12.944-17.117 7.599-2.883 14.76-1.303 20.987 3.911 3.032 2.538 3.045 2.592 5.977-.28 1.083-1.062 1.108-1.739.05-2.828-7.123-7.333-15.99-9.524-25.64-7.764a25.77 25.77 0 0 0-21.116 26.46 25.373 25.373 0 0 0 7.972 19.973c6.107 6.006 13.683 7.861 22.03 7.144 6.972-.599 12.614-3.826 17.33-8.842.505-.536 1.24-1.277.7-1.943a11.603 11.603 0 0 0-3.41-3.208zm188.573 6.84a26.402 26.402 0 0 1-2.846.926c-4.437 1.135-8.97-.985-10.257-4.87a18.82 18.82 0 0 1-1.074-5.862c-.02-9.234.035-18.468-.047-27.701-.018-2.03.77-2.56 2.662-2.515 4.327.104 8.66-.06 12.985.063 2.772.078 2.159-1.787 2.31-3.38.17-1.788-.376-2.548-2.322-2.495-4.409.12-8.825-.04-13.234.073-1.894.049-2.457-.635-2.399-2.458.113-3.573.033-7.153.033-10.73 0-3.94-.001-3.834-3.889-3.878-1.875-.022-2.204.76-2.172 2.377.08 4.158-.025 8.32.051 12.477.03 1.591-.473 2.268-2.136 2.2-2.41-.098-4.833.075-7.24-.053-2.103-.11-2.517.91-2.461 2.731.053 1.756.168 3.191 2.476 3.12 2.163-.068 4.338.107 6.491-.048 2.16-.156 2.949.565 2.89 2.8-.139 5.236-.045 10.48-.044 15.72.001 5.075.028 10.15-.01 15.223a14.501 14.501 0 0 0 1.717 6.677c4.261 8.548 16.256 7.988 22.479 4.578a1.573 1.573 0 0 0 .819-1.441c.087-2.969-2.078-4.564-4.782-3.533zM506.795 74.935c-6.506-.989-12.788-.944-17.957 4.115-.823.805-1.383 2.637-2.64 2.133-.978-.392-.463-2.14-.376-3.246.211-2.676-1.542-2.364-3.248-2.453-1.8-.094-2.694.242-2.658 2.404.132 7.907.052 15.817.052 23.726 0 7.742.13 15.488-.071 23.225-.07 2.676 1.183 2.66 3.14 2.715 2.133.06 3.067-.326 3.03-2.82-.152-10.57-.032-21.145-.095-31.717a8.187 8.187 0 0 1 1.43-4.906c3.732-5.448 9.074-9.397 17.054-6.82 1.24.4 2.292.293 2.675-1.293a7.734 7.734 0 0 1 .947-2.297c1.053-1.66.28-2.528-1.283-2.766z" class="cls-3"/><path fill="#28c6a5" d="M165.819 47.663v-.073H85.056v16.318h64.549v15.955H85.072v16.318h64.533v15.711h-32.44v16.318h48.758V47.663h-.104z"/><path fill="#f9864e" d="M101.674 143.989v-32.217H85.356v32.217H37.545V79.674H21.227v64.315h-.12v16.318h144.816v-16.318h-64.249z"/><path fill="#facc79" d="M165.923 15.974H21.217v16.318h31.924v95.918H69.46V32.292h96.463V15.974z"/></svg>