<svg xmlns="http://www.w3.org/2000/svg" role="img" viewBox="0.48 -0.02 312.78 257.03"><title>TorchServe logo</title><defs><style>.cls-1{fill:#252f3e}.cls-2{fill:#f90;fill-rule:evenodd}</style></defs><path d="M91.4266 71.42a30.25684 30.25684 0 0 0 1.1 8.9 53.52809 53.52809 0 0 0 3.2 7.2 4.34976 4.34976 0 0 1 .7 2.3 3.95918 3.95918 0 0 1-1.9 3l-6.3 4.2a4.79469 4.79469 0 0 1-2.6.9 4.60134 4.60134 0 0 1-3-1.4 30.93667 30.93667 0 0 1-3.6-4.7c-1-1.7-2-3.6-3.1-5.9q-11.7 13.8-29.4 13.8c-8.4 0-15.1-2.4-20-7.2s-7.4-11.2-7.4-19.2c0-8.5 3-15.4 9.1-20.6s14.2-7.8 24.5-7.8a79.17556 79.17556 0 0 1 10.6.8c3.7.5 7.5 1.3 11.5 2.2v-7.3c0-7.6-1.6-12.9-4.7-16-3.2-3.1-8.6-4.6-16.3-4.6a45.49849 45.49849 0 0 0-10.8 1.3 79.68071 79.68071 0 0 0-10.8 3.4 28.69334 28.69334 0 0 1-3.5 1.3 6.13374 6.13374 0 0 1-1.6.3c-1.4 0-2.1-1-2.1-3.1v-4.9a6.3276 6.3276 0 0 1 .7-3.5 7.48785 7.48785 0 0 1 2.8-2.1 57.57126 57.57126 0 0 1 12.6-4.5 60.62763 60.62763 0 0 1 15.6-1.9c11.9 0 20.6 2.7 26.2 8.1 5.5 5.4 8.3 13.6 8.3 24.6v32.4zm-40.6 15.2a32.40857 32.40857 0 0 0 10.3-1.8 22.28367 22.28367 0 0 0 9.5-6.4 15.87253 15.87253 0 0 0 3.4-6.4 35.90022 35.90022 0 0 0 1-8.7v-4.2a83.51147 83.51147 0 0 0-9.2-1.7 75.34938 75.34938 0 0 0-9.4-.6c-6.7 0-11.6 1.3-14.9 4s-4.9 6.5-4.9 11.5c0 4.7 1.2 8.2 3.7 10.6 2.4 2.5 5.9 3.7 10.5 3.7zm80.3 10.8a5.58272 5.58272 0 0 1-3.8-1 8.1504 8.1504 0 0 1-2.1-3.9l-23.5-77.3a17.5169 17.5169 0 0 1-.9-4 2.19368 2.19368 0 0 1 2.4-2.5h9.8c1.9 0 3.2.3 3.9 1 .8.6 1.4 2 2 3.9l16.8 66.2 15.6-66.2c.5-2 1.1-3.3 1.9-3.9a6.8788 6.8788 0 0 1 4-1h8c1.9 0 3.2.3 4 1a6.7383 6.7383 0 0 1 1.9 3.9l15.8 67 17.3-67a8.57525 8.57525 0 0 1 2-3.9 6.52434 6.52434 0 0 1 3.9-1h9.3a2.2229 2.2229 0 0 1 2.5 2.5 9.97244 9.97244 0 0 1-.2 1.6 14.22818 14.22818 0 0 1-.7 2.5l-24.1 77.3q-.9 3-2.1 3.9a6.39764 6.39764 0 0 1-3.8 1h-8.6c-1.9 0-3.2-.3-4-1a7.0893 7.0893 0 0 1-1.9-4l-15.5-64.5-15.4 64.4a7.8054 7.8054 0 0 1-1.9 4 6.19832 6.19832 0 0 1-4 1zm128.5 2.7a66.17435 66.17435 0 0 1-15.4-1.8c-5-1.2-8.9-2.5-11.5-4a7.2053 7.2053 0 0 1-3.1-2.8 7.05869 7.05869 0 0 1-.6-2.8v-5.1c0-2.1.8-3.1 2.3-3.1a5.66258 5.66258 0 0 1 1.8.3c.6.2 1.5.6 2.5 1a54.3936 54.3936 0 0 0 11 3.5 60.05408 60.05408 0 0 0 11.9 1.2c6.3 0 11.2-1.1 14.6-3.3a10.76863 10.76863 0 0 0 5.2-9.5 9.73861 9.73861 0 0 0-2.7-7c-1.8-1.9-5.2-3.6-10.1-5.2l-14.5-4.5c-7.3-2.3-12.7-5.7-16-10.2a23.82507 23.82507 0 0 1-5-14.5 22.2555 22.2555 0 0 1 2.7-11.1 25.71212 25.71212 0 0 1 7.2-8.2 31.7387 31.7387 0 0 1 10.4-5.2 43.58431 43.58431 0 0 1 12.6-1.7 50.20078 50.20078 0 0 1 6.7.4c2.3.3 4.4.7 6.5 1.1 2 .5 3.9 1 5.7 1.6a21.82535 21.82535 0 0 1 4.2 1.8 8.64729 8.64729 0 0 1 3 2.5 5.389 5.389 0 0 1 .9 3.3v4.7c0 2.1-.8 3.2-2.3 3.2a10.4019 10.4019 0 0 1-3.8-1.2 45.74832 45.74832 0 0 0-19.2-3.9c-5.7 0-10.2.9-13.3 2.8s-4.7 4.8-4.7 8.9a9.44284 9.44284 0 0 0 3 7.1c2 1.9 5.7 3.8 11 5.5l14.2 4.5c7.2 2.3 12.4 5.5 15.5 9.6a22.62845 22.62845 0 0 1 4.6 14 25.70752 25.70752 0 0 1-2.6 11.6 26.89407 26.89407 0 0 1-7.3 8.8 32.23459 32.23459 0 0 1-11.1 5.6 47.55189 47.55189 0 0 1-14.3 2.1z" class="cls-1"/><path d="M278.52659 148.72c-32.9 24.3-80.7 37.2-121.8 37.2-57.6 0-109.5-21.3-148.7-56.7-3.1-2.8-.3-6.6 3.4-4.4 42.4 24.6 94.7 39.5 148.8 39.5a296.9357 296.9357 0 0 0 113.5-23.2c5.50002-2.5 10.20003 3.6 4.8 7.6z" class="cls-2"/><path d="M292.22661 133.12c-4.2-5.4-27.8-2.6-38.5-1.3-3.2.4-3.7-2.4-.8-4.5 18.8-13.2 49.7-9.4 53.3-5 3.6 4.5-1 35.4-18.6 50.2-2.7 2.3-5.3 1.1-4.1-1.9 3.99998-9.9 12.89998-32.2 8.7-37.5z" class="cls-2"/><path d="M50.29573 213.94327v6.41455H39.45825v29.81009h-7.61877v-29.81009H20.95294v-6.41455zm22.48666 32.94734q-3.39114 4.18713-10.29729 4.18618-6.90591 0-10.29682-4.18618a16.61843 16.61843 0 0 1 0-20.12205q3.39114-4.24859 10.29682-4.2481 6.90591 0 10.29729 4.2481a16.61843 16.61843 0 0 1 0 20.12205zm-5.60332-3.87083a12.5046 12.5046 0 0 0 0-12.40515 6.2262 6.2262 0 0 0-9.44939 0 12.42661 12.42661 0 0 0 0 12.40515 6.20327 6.20327 0 0 0 9.44939 0zm28.88883-20.26591q.135.01286.6021.03715v7.17577q-.6638-.07431-1.17944-.09813-.51661-.0243-.83552-.02477-4.22715 0-5.67716 2.75236a10.71043 10.71043 0 0 0-.81075 4.76733v12.80433h-7.05335v-26.78716h6.68465V228.05a14.81549 14.81549 0 0 1 2.82619-3.66219 7.69374 7.69374 0 0 1 5.11173-1.64628c.131-.00005.24152.00472.33155.01234zm20.7294 10.23585a6.21564 6.21564 0 0 0-1.00987-2.70378 4.23968 4.23968 0 0 0-3.67077-1.6215 4.83288 4.83288 0 0 0-4.85307 3.51453 14.57742 14.57742 0 0 0-.68976 4.9512 13.40548 13.40548 0 0 0 .68976 4.73112 4.68371 4.68371 0 0 0 4.73017 3.34208 4.17369 4.17369 0 0 0 3.49786-1.32711 6.59159 6.59159 0 0 0 1.25661-3.44021h7.15147a11.71748 11.71748 0 0 1-2.31221 6.04585q-3.29754 4.59585-9.76617 4.59489-6.47 0-9.52036-3.83368a15.4824 15.4824 0 0 1-3.05056-9.94146q0-6.89234 3.36971-10.72649 3.37044-3.83415 9.29934-3.83368a14.01244 14.01244 0 0 1 8.25327 2.26077q3.20967 2.26219 3.80081 7.98747zm31.21961-9.4613a7.8602 7.8602 0 0 1 3.31541 2.63232 7.00717 7.00717 0 0 1 1.34712 3.08676 38.441 38.441 0 0 1 .2439 5.17794v15.74247h-7.151v-16.31219a7.2276 7.2276 0 0 0-.73167-3.49356 3.66929 3.66929 0 0 0-3.61075-1.87016 4.95574 4.95574 0 0 0-4.18427 1.85777 8.55751 8.55751 0 0 0-1.42668 5.3018v14.51634h-7.0038v-36.10174h7.0038v12.77956a8.56 8.56 0 0 1 3.51119-3.25634 9.8896 9.8896 0 0 1 4.19761-.92126 11.3393 11.3393 0 0 1 4.48914.86029zm17.51403 15.45758a7.34754 7.34754 0 0 0 1.37951 3.71078q1.88206 2.23647 6.44885 2.237a13.86626 13.86626 0 0 0 4.44151-.59068q3.2368-1.12894 3.23728-4.20237a3.09841 3.09841 0 0 0-1.58529-2.77713 17.20364 17.20364 0 0 0-5.03028-1.69486l-3.92133-.86029q-5.782-1.27758-7.94459-2.77713-3.66125-2.50657-3.66124-7.8398a10.41164 10.41164 0 0 1 3.58216-8.0856q3.58264-3.21822 10.52357-3.21918a16.13542 16.13542 0 0 1 9.88906 3.03531 10.79175 10.79175 0 0 1 4.29193 8.8106h-7.27485a5.18593 5.18593 0 0 0-2.92194-4.64538 10.01852 10.01852 0 0 0-4.5101-.90888 8.58139 8.58139 0 0 0-4.78733 1.17945 3.73159 3.73159 0 0 0-1.78823 3.2935 3.10542 3.10542 0 0 0 1.76346 2.89907 21.87265 21.87265 0 0 0 4.8121 1.49956l6.3574 1.4986a16.17235 16.17235 0 0 1 6.265 2.63042 8.85982 8.85982 0 0 1 3.2392 7.39679 10.39645 10.39645 0 0 1-3.83749 8.24564q-3.83845 3.27969-10.84272 3.28016-7.15386 0-11.25238-3.23157a10.6918 10.6918 0 0 1-4.09853-8.884zm45.00381-15.06316a10.89989 10.89989 0 0 1 4.62918 3.96324 13.17655 13.17655 0 0 1 2.13406 5.53807 34.13889 34.13889 0 0 1 .23055 5.31608h-19.50946q.16291 4.03137 2.801 5.65239a7.11716 7.11716 0 0 0 3.86226 1.008 5.43942 5.43942 0 0 0 5.33038-3.07246h7.151a8.75133 8.75133 0 0 1-2.59707 4.84164q-3.59979 3.907-10.0777 3.907a14.60233 14.60233 0 0 1-9.43557-3.2954q-4.08854-3.29539-4.08806-10.72458 0-6.95951 3.69078-10.675a12.91694 12.91694 0 0 1 9.57848-3.71363 15.25662 15.25662 0 0 1 6.30017 1.25465zm-10.47784 6.05062a7.2808 7.2808 0 0 0-1.86634 4.14616h12.06694a5.84269 5.84269 0 0 0-1.86539-4.23191 6.13861 6.13861 0 0 0-4.15474-1.4443 5.55222 5.55222 0 0 0-4.18047 1.53005zm35.89501-7.21959q.13434.01286.60211.03715v7.17577q-.66308-.07431-1.17944-.09813c-.34393-.0162-.62307-.02477-.83552-.02477q-4.22715 0-5.67716 2.75236a10.71709 10.71709 0 0 0-.81076 4.76733v12.80433h-7.05381v-26.78716h6.68512V228.05a14.8392 14.8392 0 0 1 2.82572-3.66219 7.695 7.695 0 0 1 5.1122-1.64628c.13052-.00005.24104.00472.33154.01234zm21.20908.62688h7.51969l-9.6728 26.78716h-7.38536l-9.60611-26.78716h7.86362l5.579 19.75812zm28.9441.54209a10.89989 10.89989 0 0 1 4.62918 3.96324 13.17681 13.17681 0 0 1 2.13406 5.53807 34.14014 34.14014 0 0 1 .23055 5.31608h-19.50946q.16291 4.03137 2.801 5.65239a7.11714 7.11714 0 0 0 3.86226 1.008 5.43945 5.43945 0 0 0 5.33038-3.07246h7.151a8.7514 8.7514 0 0 1-2.59707 4.84164q-3.59979 3.907-10.0777 3.907a14.60237 14.60237 0 0 1-9.43558-3.2954q-4.08852-3.29539-4.088-10.72458 0-6.95951 3.69078-10.675a12.91694 12.91694 0 0 1 9.57848-3.71363 15.25666 15.25666 0 0 1 6.30012 1.25465zm-10.47784 6.05062a7.28073 7.28073 0 0 0-1.86634 4.14616h12.06694a5.84273 5.84273 0 0 0-1.86539-4.23191 6.13861 6.13861 0 0 0-4.15474-1.4443 5.55221 5.55221 0 0 0-4.18047 1.53005z" class="cls-1"/></svg>