<svg xmlns="http://www.w3.org/2000/svg" role="img" viewBox="-2.66 -0.91 302.56 359.06"><title>TRAINS logo</title><path d="M194.833 28.966c2.918-10.045 7.266-18.315 17.346-21.634 15.572-5.126 30.699 4.922 31.8 21.88.803 12.383.312 24.851.322 37.281.028 34.005-.058 68.01.047 102.014.063 20.566 5.752 27.009 26.288 30.464 14.398 2.422 23.71 13.485 22.287 26.48-1.51 13.793-13.064 23.065-27.823 22.056-21.107-1.443-38.967-9.914-52.149-26.507-4.823-6.07-7.34-5.979-13.288-1.374-39.796 30.813-83.517 36.546-128.487 14.257-44.98-22.294-67.389-60.652-66.738-110.902 1.17-90.42 102.176-145.993 180.607-99.887 3.053 1.795 6.075 3.643 9.788 5.872zm.619 97.948c.135-39.472-31.143-71.374-70.292-71.693-39.637-.323-72.198 31.6-72.446 71.026-.247 39.192 32.448 71.908 71.777 71.823a71.284 71.284 0 0 0 70.961-71.156zM51.587 294.25v9.862H34.92v45.84H23.206v-45.84H6.466v-9.863zm42.498 1.435a13.757 13.757 0 0 1 5.215 3.893 17.325 17.325 0 0 1 2.8 4.685 15.62 15.62 0 0 1 1.032 5.858 16.69 16.69 0 0 1-2.003 7.803 11.19 11.19 0 0 1-6.613 5.423 10.407 10.407 0 0 1 5.46 4.402q1.606 2.855 1.607 8.711v3.742a28.152 28.152 0 0 0 .307 5.177 4.647 4.647 0 0 0 2.15 3.174v1.399H91.19q-.53-1.852-.755-2.986a27.353 27.353 0 0 1-.491-4.8l-.076-5.176q-.072-5.33-1.841-7.105t-6.631-1.776H70.028v21.843H58.653v-55.703h26.644a24.26 24.26 0 0 1 8.788 1.436zm-24.057 8.238v14.965h12.526a13.331 13.331 0 0 0 5.6-.907q3.3-1.587 3.3-6.273 0-5.064-3.193-6.802a11.55 11.55 0 0 0-5.384-.983zm60.181-9.673h13.17l19.707 55.702h-12.622l-3.675-11.45h-20.513l-3.776 11.45h-12.176zm-.767 34.653h14.266l-7.037-21.92zm51.349 21.049h-11.564v-55.703h11.564zm10.695-55.702h12.202l22.111 38.84v-38.84h10.846v55.702h-11.637l-22.677-39.524v39.524h-10.845zm64.469 38.507a11.297 11.297 0 0 0 2.123 5.706q2.893 3.44 9.916 3.44a21.337 21.337 0 0 0 6.83-.907q4.977-1.74 4.977-6.462a4.762 4.762 0 0 0-2.437-4.27 26.46 26.46 0 0 0-7.735-2.608l-6.03-1.324q-8.89-1.964-12.216-4.269-5.63-3.855-5.63-12.056a16.009 16.009 0 0 1 5.508-12.432q5.51-4.95 16.183-4.95a24.812 24.812 0 0 1 15.206 4.666q6.293 4.667 6.6 13.548h-11.187a7.972 7.972 0 0 0-4.494-7.142 15.398 15.398 0 0 0-6.935-1.399 13.204 13.204 0 0 0-7.361 1.814 5.74 5.74 0 0 0-2.75 5.064 4.777 4.777 0 0 0 2.712 4.46 33.697 33.697 0 0 0 7.4 2.305l9.775 2.305q6.427 1.511 9.634 4.044 4.98 3.93 4.98 11.375a15.98 15.98 0 0 1-5.9 12.677q-5.903 5.045-16.674 5.045-11 0-17.302-4.969t-6.302-13.66z"/></svg>