<svg xmlns="http://www.w3.org/2000/svg" role="img" viewBox="7.70 -4.30 1679.60 315.60"><title>Transformers logo</title><defs><style>.cls-2{fill:#fed11e}</style></defs><path fill="#feac04" d="M311.265 233.39c5.115 17.732-5.851 25.45-19.263 31.626a149.366 149.366 0 0 1-59.036 14.195c-8.798.232-17.45-.986-25.2-5.2-20.094-10.927-39.975-10.456-60.068-.123-11.841 6.09-24.646 6.293-37.406 4.634A156.735 156.735 0 0 1 64.9 265.628c-21.203-9.732-29.112-26.228-21.231-48.195 4.368-12.176-1.58-29.514 16.574-35.762 1.071-.369.249-7.588-.43-11.491-8.465-48.618 11.065-96.2 52.08-121.79 42.811-26.71 87.38-27.628 129.73-.036 43.42 28.287 60.598 69.921 52.442 121.394-1.233 7.778-2.908 14.422 7.825 16.982 4.247 1.013 7.754 6.44 7.009 10.94-2.043 12.328 7.223 23.598 2.367 35.72z"/><path d="M281.437 145.097c0 5.113.249 10.244-.11 15.331-.166 2.374-1.783 6.753-2.277 6.688-13.065-1.72-24.14 10.442-36.809 6.337-12.576-4.076-20.505.745-24.939 10.925-5.188 11.912-12.414 21.956-20.572 31.832-6.805 8.238-13.065 17.529-9.84 29.302 1.433 5.234 2.206 9.406-5.092 9.018-5.553-.295-14.405 2.638-13.53-7.24 2.639-29.757-24.611-43.99-34.25-67.391-3.479-8.45-13.237-11.586-22.183-5.243-5.125 3.634-8.347 2.023-11.826-1.706-2.997-3.213-6.743-4.367-11.06-4.258-4.959.126-13.438 1.638-14.257-.193-3.002-6.717-5.107-14.684-4.612-21.98 3.738-55.075 40.336-96.456 89.994-103.06 64.447-8.57 108.313 31.184 120.55 81.798 1.531 6.336.855 13.205 1.202 19.828z" class="cls-2"/><path d="M246.242 221.969c11.963-.798 15.32-8.787 21.312-12.998a208.27 208.27 0 0 1 18.071-11.35c3.188-1.782 7.402-2.33 9.819.988 2.572 3.532-.215 6.59-2.623 9.399-4.121 4.809-9.547 7.575-15.129 10.155-7.015 3.243-13.231 7.397-18.896 17.255 11.433-5.752 20.046-10.32 28.878-14.419 3.728-1.73 8.587-6.126 11.461.758 2.333 5.588-2.31 7.89-6.318 10.501-7.907 5.15-18.426 5.733-26.25 14.534 9.698 2.903 13.51-5.747 19.99-6.706 4.019-.594 9.152-2.482 11.33 1.283 2.607 4.51-2.326 7.513-5.702 9.232-21.137 10.763-43.206 18.56-67.388 15.94-11.86-1.285-21.164-7.539-25.098-19.517-3.541-10.785 1.848-18.748 9.293-25.693 8.02-7.481 12.313-17.33 17.256-26.753 2.576-4.91 4.9-12.02 11.597-8.193 6.109 3.49 4.292 10.418 1.613 16.452-2.182 4.916-13.67 8.709-6.769 13.556 6.946 4.88 9.855-6.544 13.167-11.375 4.885-7.127 8.442-15.204 15.521-20.595 3.407-2.594 7.095-7.393 11.803-2.96 4.403 4.146 1.188 9.173-1.492 12.427-7.385 8.966-15.554 17.286-25.446 28.079zM85.348 247.988c-4.22-10.297-14.263-10.364-21.79-14.941-4.13-2.51-10.318-4.95-7.222-11.358 2.93-6.065 8.003-1.35 12.138-.682 8.854 1.428 14.405 10.882 26.745 11.15-9.734-10.45-19.934-15.656-29.845-21.38-3.71-2.143-9.1-5.055-5.965-10.542 3.085-5.4 8.807-5.014 13.376-1.752 10.713 7.65 21.08 15.786 32.72 24.582-.622-10.828-8.442-15.437-13.799-21.62-4.17-4.814-11.06-8.18-9.12-16.391.722-3.058 3.123-3.843 5.811-3.772 8.113.214 10.718 6.944 14.128 12.452 4.013 6.482 7.443 13.324 11.44 19.818 1.963 3.188 5.263 5.9 8.77 2.776 3.263-2.908-.664-5.179-2.183-7.551-1.613-2.52-4.008-5.038-4.348-7.77-.666-5.355-2.593-12.468 3.8-15.054 7.48-3.027 6.766 5.127 9.224 8.96 6.3 9.829 12.496 19.75 19.326 29.207 13.55 18.762 5.254 40.51-17.443 42.504-24.406 2.145-47.356-4.628-68.889-15.962-3.363-1.77-8.299-4.645-5.813-9.196 2.146-3.927 7.476-2.632 11.198-1.29 6.064 2.186 11.842 5.167 17.741 7.812z" class="cls-2"/><path fill="#3c3c44" d="M152.303 184.82c-5.42-2.503-8.528-7.25-11.02-12.243-3.647-7.308-8.55-16.58-3.245-22.894 5.638-6.71 12.786 1.991 18.613 4.717 15.97 7.473 30.602 4.452 45.34-3.03 3.92-1.991 8.703-6.291 12.598-2.902 4.145 3.606 1.757 9.412.333 14.347-2.449 8.49-5.961 16.217-13.721 21.242-16.427-7.93-32.729-7.834-48.898.762z"/><path fill="#eb4f4d" d="M152.303 184.82c4.633-5.2 10.321-14.685 15.939-11.703 10.657 5.656 26.84-6.186 32.962 10.938-17.439 12.77-31.577 12.99-48.9.764z"/><path fill="#3d3d44" d="M133.944 97.564c11.653.401 16.973 4.413 18.513 12.38 2.252 11.652-5.104 10.256-13.228 11.033-4.79.459-8.773 9.279-14.734 1.34-3.664-4.88-3.845-10.401-1.544-15.803 2.658-6.238 7.66-9.173 10.993-8.95zm95.076 11.059c.6 8.36-.864 12.581-4.457 15.82-4.164 3.754-7.252 1.23-10.25-1.99-.965-1.038-2.683-2.49-3.655-2.233-8.842 2.339-14.074.39-12.104-9.948 1.665-8.733 7.262-13.03 16.202-12.479 8.93.551 13.573 5.646 14.265 10.83z"/><path d="M360.321 104.471V78.503h115.084v25.968h-42.1v114.493H402.42V104.471zm141.641 12.787v18.885h.393a34.262 34.262 0 0 1 5.312-8.754 34.849 34.849 0 0 1 7.672-6.886 37.57 37.57 0 0 1 9.246-4.425 33.39 33.39 0 0 1 10.23-1.575 21.82 21.82 0 0 1 6.099.985v25.967q-1.97-.392-4.722-.689a50.069 50.069 0 0 0-5.312-.295 29.786 29.786 0 0 0-12.983 2.558 22.504 22.504 0 0 0-8.558 6.983 27.97 27.97 0 0 0-4.623 10.328 56.175 56.175 0 0 0-1.377 12.787v45.837h-27.935V117.258zm53.705 31.279q.59-9.834 4.918-16.329a33.49 33.49 0 0 1 11.016-10.425 48.004 48.004 0 0 1 15.05-5.607 85.66 85.66 0 0 1 16.82-1.673 114.417 114.417 0 0 1 15.54 1.082 47.677 47.677 0 0 1 14.362 4.23 28.308 28.308 0 0 1 10.623 8.755q4.13 5.606 4.131 14.852v52.92a106.106 106.106 0 0 0 .787 13.18q.783 6.297 2.754 9.442h-28.329a39.486 39.486 0 0 1-1.278-4.819 41.32 41.32 0 0 1-.689-5.017 36.403 36.403 0 0 1-15.738 9.64 63.21 63.21 0 0 1-18.492 2.754 49.973 49.973 0 0 1-13.574-1.77 31.054 31.054 0 0 1-11.016-5.51 25.6 25.6 0 0 1-7.377-9.442 31.922 31.922 0 0 1-2.656-13.574q0-8.654 3.049-14.263a25.481 25.481 0 0 1 7.869-8.95 35.276 35.276 0 0 1 11.017-5.016 118.491 118.491 0 0 1 12.491-2.657q6.294-.981 12.394-1.573a74.709 74.709 0 0 0 10.82-1.77 18.86 18.86 0 0 0 7.476-3.444q2.752-2.259 2.557-6.59a14.822 14.822 0 0 0-1.476-7.18 10.854 10.854 0 0 0-3.934-4.131 15.518 15.518 0 0 0-5.705-1.968 47.068 47.068 0 0 0-6.984-.491q-8.262 0-12.984 3.54-4.72 3.541-5.508 11.804zm64.525 20.656a12.484 12.484 0 0 1-4.426 2.459 45.164 45.164 0 0 1-5.705 1.475q-3.052.59-6.394.984-3.347.397-6.688.984a50.62 50.62 0 0 0-6.197 1.573 18.361 18.361 0 0 0-5.312 2.657 12.613 12.613 0 0 0-3.64 4.23 13.601 13.601 0 0 0-1.376 6.49 13.125 13.125 0 0 0 1.377 6.296 10.53 10.53 0 0 0 3.737 4.033 15.757 15.757 0 0 0 5.509 2.066 35.204 35.204 0 0 0 6.492.59q8.262 0 12.787-2.754a18.439 18.439 0 0 0 6.688-6.591 21.11 21.11 0 0 0 2.656-7.77 53.846 53.846 0 0 0 .492-6.295zm81.048-51.935v14.164h.59a32.049 32.049 0 0 1 13.771-12.885 39.843 39.843 0 0 1 17.312-4.034q11.213 0 18.393 3.05a27.3 27.3 0 0 1 11.312 8.46 32.769 32.769 0 0 1 5.803 13.18 82.119 82.119 0 0 1 1.672 17.213v62.558H742.16v-57.443q0-12.587-3.935-18.787-3.937-6.198-13.967-6.197-11.412 0-16.525 6.787-5.118 6.786-5.115 22.328v53.312h-27.935V117.258zm118.524 76.427a16.317 16.317 0 0 0 4.82 5.312 20.662 20.662 0 0 0 6.787 3.05 31.885 31.885 0 0 0 7.967.983 29.746 29.746 0 0 0 6.197-.689 21.056 21.056 0 0 0 5.902-2.164 13.405 13.405 0 0 0 4.426-3.934 10.338 10.338 0 0 0 1.77-6.198q0-6.293-8.36-9.442a167.524 167.524 0 0 0-23.312-6.295q-6.1-1.374-11.902-3.246a40.534 40.534 0 0 1-10.328-4.918 23.866 23.866 0 0 1-7.279-7.673 21.713 21.713 0 0 1-2.754-11.311q0-9.834 3.836-16.131a28.28 28.28 0 0 1 10.132-9.935 44.407 44.407 0 0 1 14.164-5.115 87.354 87.354 0 0 1 16.13-1.476 80.697 80.697 0 0 1 16.034 1.575 42.493 42.493 0 0 1 13.87 5.311 31.895 31.895 0 0 1 10.13 9.935q4.031 6.196 4.82 15.64h-26.558q-.589-8.065-6.098-10.919a27.897 27.897 0 0 0-12.984-2.852 48.064 48.064 0 0 0-5.115.295 17.07 17.07 0 0 0-5.016 1.278 10.352 10.352 0 0 0-3.836 2.853 7.531 7.531 0 0 0-1.574 5.016 7.653 7.653 0 0 0 2.754 6.099 21.227 21.227 0 0 0 7.18 3.836 89.736 89.736 0 0 0 10.132 2.656q5.703 1.18 11.606 2.557a119.133 119.133 0 0 1 11.902 3.344 39.223 39.223 0 0 1 10.328 5.213 25.249 25.249 0 0 1 7.28 8.067 23.696 23.696 0 0 1 2.753 11.901q0 10.033-4.033 16.82a32.28 32.28 0 0 1-10.525 10.918 43.11 43.11 0 0 1-14.852 5.804 86.772 86.772 0 0 1-17.017 1.672 84.308 84.308 0 0 1-17.311-1.77 45.666 45.666 0 0 1-15.05-5.903 33.722 33.722 0 0 1-10.82-10.918q-4.232-6.787-4.623-17.017h26.558a15.293 15.293 0 0 0 1.87 7.771zm76.424-57.738v-18.689h16.722v-7.869q0-13.575 8.46-22.23 8.456-8.655 25.573-8.656 3.736 0 7.476.295 3.734.295 7.278.492v20.853a85.83 85.83 0 0 0-10.23-.59q-5.706 0-8.163 2.655-2.463 2.656-2.46 8.952v6.098h19.28v18.689h-19.28v83.017H912.91v-83.017zm81.64 10.131a46.509 46.509 0 0 1 27.149-27.738 58.073 58.073 0 0 1 21.64-3.837 58.867 58.867 0 0 1 21.737 3.837 46.319 46.319 0 0 1 27.247 27.738 62.504 62.504 0 0 1 3.737 22.131 61.672 61.672 0 0 1-3.737 22.034 47.804 47.804 0 0 1-10.623 16.82 46.284 46.284 0 0 1-16.623 10.72 60.288 60.288 0 0 1-21.739 3.739 59.472 59.472 0 0 1-21.64-3.738 46.415 46.415 0 0 1-16.525-10.721 47.721 47.721 0 0 1-10.623-16.82 61.608 61.608 0 0 1-3.737-22.034 62.439 62.439 0 0 1 3.737-22.131zm25.378 34.033a31.65 31.65 0 0 0 4.033 10.427 21.442 21.442 0 0 0 7.574 7.377 23.091 23.091 0 0 0 11.803 2.754 23.645 23.645 0 0 0 11.902-2.754 21.233 21.233 0 0 0 7.672-7.377 31.714 31.714 0 0 0 4.033-10.427 59.52 59.52 0 0 0 1.18-11.902 61.038 61.038 0 0 0-1.18-12 30.665 30.665 0 0 0-4.033-10.426 22.4 22.4 0 0 0-7.672-7.377 23.037 23.037 0 0 0-11.902-2.853 21.483 21.483 0 0 0-19.377 10.23 30.606 30.606 0 0 0-4.033 10.426 61.038 61.038 0 0 0-1.18 12 59.522 59.522 0 0 0 1.18 11.902zm125.704-62.853v18.885h.394a34.262 34.262 0 0 1 5.311-8.754 34.84 34.84 0 0 1 7.673-6.886 37.564 37.564 0 0 1 9.245-4.425 33.398 33.398 0 0 1 10.23-1.575 21.817 21.817 0 0 1 6.098.985v25.967q-1.968-.392-4.72-.689a50.053 50.053 0 0 0-5.312-.295 29.789 29.789 0 0 0-12.984 2.558 22.504 22.504 0 0 0-8.558 6.983 27.985 27.985 0 0 0-4.623 10.328 56.175 56.175 0 0 0-1.377 12.787v45.837h-27.934V117.258zm82.033 0v13.77h.393a39.784 39.784 0 0 1 13.28-12.196 35.995 35.995 0 0 1 17.803-4.329 40.969 40.969 0 0 1 17.606 3.739q7.968 3.74 12.099 13.18a43.319 43.319 0 0 1 12.296-11.803 32.69 32.69 0 0 1 18.393-5.116 54.337 54.337 0 0 1 14.952 1.968 30.154 30.154 0 0 1 11.802 6.295 28.911 28.911 0 0 1 7.673 11.312 45.906 45.906 0 0 1 2.754 16.82v68.066h-27.934v-57.64q0-5.113-.394-9.639a20.508 20.508 0 0 0-2.164-7.87 13.129 13.129 0 0 0-5.213-5.31q-3.445-1.965-9.345-1.968a17.887 17.887 0 0 0-9.54 2.262 16.384 16.384 0 0 0-5.706 5.902 23.645 23.645 0 0 0-2.754 8.262 62.97 62.97 0 0 0-.688 9.345v56.656h-27.936v-57.05q0-4.523-.196-8.95a25.179 25.179 0 0 0-1.672-8.165 12.584 12.584 0 0 0-4.919-6q-3.444-2.259-10.13-2.262a20.9 20.9 0 0 0-5.214.885 17.317 17.317 0 0 0-6.295 3.344 19.548 19.548 0 0 0-5.213 7.082q-2.167 4.625-2.164 12.099v59.017h-27.935V117.258zm185.903 77.312q6.293 6.1 18.098 6.1a24.893 24.893 0 0 0 14.558-4.231q6.095-4.228 7.476-8.95h24.59q-5.901 18.294-18.1 26.164-12.198 7.87-29.507 7.869a58.089 58.089 0 0 1-21.64-3.836 44.965 44.965 0 0 1-16.328-10.919 49.064 49.064 0 0 1-10.328-16.918 61.866 61.866 0 0 1-3.64-21.64 59.327 59.327 0 0 1 3.738-21.246 49.167 49.167 0 0 1 27.05-28.328 52.657 52.657 0 0 1 21.148-4.132q12.983 0 22.623 5.017a45.2 45.2 0 0 1 15.836 13.476 55.427 55.427 0 0 1 8.951 19.279 71.87 71.87 0 0 1 1.967 22.623h-73.378q.59 13.575 6.886 19.673zm31.574-53.508q-5.017-5.506-15.246-5.509a24.32 24.32 0 0 0-11.115 2.263 21.177 21.177 0 0 0-7.082 5.606 20.523 20.523 0 0 0-3.738 7.082 31.856 31.856 0 0 0-1.279 6.689h45.443q-1.968-10.623-6.983-16.131zm82.917-23.804v18.885h.393a34.262 34.262 0 0 1 5.312-8.754 34.84 34.84 0 0 1 7.673-6.886 37.565 37.565 0 0 1 9.245-4.425 33.398 33.398 0 0 1 10.23-1.575 21.817 21.817 0 0 1 6.098.985v25.967q-1.969-.392-4.72-.689a50.053 50.053 0 0 0-5.312-.295 29.789 29.789 0 0 0-12.985 2.558 22.504 22.504 0 0 0-8.557 6.983 27.985 27.985 0 0 0-4.623 10.328 56.175 56.175 0 0 0-1.377 12.787v45.837h-27.935V117.258zm78.393 76.427a16.322 16.322 0 0 0 4.82 5.312 20.662 20.662 0 0 0 6.787 3.05 31.884 31.884 0 0 0 7.968.983 29.749 29.749 0 0 0 6.196-.689 21.06 21.06 0 0 0 5.902-2.164 13.392 13.392 0 0 0 4.426-3.934 10.332 10.332 0 0 0 1.77-6.198q0-6.293-8.36-9.442a167.544 167.544 0 0 0-23.312-6.295q-6.1-1.374-11.902-3.246a40.534 40.534 0 0 1-10.328-4.918 23.865 23.865 0 0 1-7.278-7.673 21.704 21.704 0 0 1-2.755-11.311q0-9.834 3.836-16.131a28.277 28.277 0 0 1 10.132-9.935 44.402 44.402 0 0 1 14.164-5.115 87.356 87.356 0 0 1 16.132-1.476 80.683 80.683 0 0 1 16.032 1.575 42.493 42.493 0 0 1 13.87 5.311 31.888 31.888 0 0 1 10.131 9.935q4.03 6.196 4.82 15.64h-26.558q-.59-8.065-6.099-10.919a27.897 27.897 0 0 0-12.983-2.852 48.057 48.057 0 0 0-5.116.295 17.08 17.08 0 0 0-5.016 1.278 10.35 10.35 0 0 0-3.836 2.853 7.534 7.534 0 0 0-1.573 5.016 7.654 7.654 0 0 0 2.754 6.099 21.225 21.225 0 0 0 7.18 3.836 89.67 89.67 0 0 0 10.131 2.656q5.704 1.18 11.606 2.557a119.28 119.28 0 0 1 11.903 3.344 39.253 39.253 0 0 1 10.328 5.213 25.257 25.257 0 0 1 7.278 8.067 23.686 23.686 0 0 1 2.754 11.901q0 10.033-4.032 16.82a32.28 32.28 0 0 1-10.525 10.918 43.115 43.115 0 0 1-14.853 5.804 86.76 86.76 0 0 1-17.017 1.672 84.312 84.312 0 0 1-17.311-1.77 45.67 45.67 0 0 1-15.05-5.903 33.72 33.72 0 0 1-10.82-10.918q-4.233-6.787-4.622-17.017h26.557a15.293 15.293 0 0 0 1.87 7.771z"/></svg>