<svg xmlns="http://www.w3.org/2000/svg" role="img" viewBox="-3.15 -2.65 267.80 238.80"><title>TransmogrifAI logo</title><g data-name="Mobile-Nav---Test-B-(0)"><path fill="#00a1e0" d="M109.252 22.322a45.182 45.182 0 0 1 72.458 9.516 54.803 54.803 0 0 1 22.501-4.758c30.728 0 55.51 25.078 55.51 56.004s-24.88 56.005-55.51 56.005a55.71 55.71 0 0 1-10.903-1.09 40.686 40.686 0 0 1-53.23 16.751 46.33 46.33 0 0 1-86.137-2.082 43.668 43.668 0 0 1-8.822.893 43.597 43.597 0 0 1-21.51-81.182 49.093 49.093 0 0 1-4.163-19.924 50.009 50.009 0 0 1 89.806-30.133"/><path fill="#fff" d="M39.37 96.168l1.09-2.874c.199-.496.496-.297.694-.198.298.198.496.297.892.594a12.303 12.303 0 0 0 6.84 1.983c2.28 0 3.767-1.19 3.767-2.875V92.7c0-1.784-2.181-2.478-4.758-3.27l-.595-.2c-3.47-.99-7.236-2.477-7.236-6.839v-.099c0-4.163 3.37-7.137 8.227-7.137h.496a14.006 14.006 0 0 1 7.533 2.082.481.481 0 0 1 .298.595c-.1.297-.992 2.577-1.09 2.874-.2.496-.695.199-.695.199a15.066 15.066 0 0 0-6.74-1.686c-2.082 0-3.37 1.09-3.37 2.578v.099c0 1.685 2.28 2.478 4.857 3.27l.495.1c3.47 1.09 7.137 2.577 7.137 6.84v.098c0 4.56-3.27 7.336-8.524 7.336a16.007 16.007 0 0 1-7.732-1.785 11.802 11.802 0 0 1-1.487-.892c-.099-.198-.297-.297-.099-.694zm77.316 0l1.09-2.874a.41.41 0 0 1 .694-.198c.297.198.496.297.892.594a12.303 12.303 0 0 0 6.84 1.983c2.28 0 3.766-1.19 3.766-2.875V92.7c0-1.784-2.18-2.478-4.758-3.27l-.594-.2c-3.47-.99-7.236-2.477-7.236-6.839v-.099c0-4.163 3.37-7.137 8.227-7.137h.496a14.006 14.006 0 0 1 7.533 2.082.481.481 0 0 1 .297.595c-.099.297-.99 2.577-1.09 2.874-.198.496-.694.199-.694.199a15.066 15.066 0 0 0-6.74-1.686c-2.082 0-3.37 1.09-3.37 2.578v.099c0 1.685 2.28 2.478 4.857 3.27l.495.1c3.47 1.09 7.137 2.577 7.137 6.84v.098c0 4.56-3.271 7.336-8.525 7.336a16.007 16.007 0 0 1-7.731-1.785 11.8 11.8 0 0 1-1.487-.892c0-.198-.198-.297-.1-.694zm57.293-13.58a18.377 18.377 0 0 1 .694 4.759 14.94 14.94 0 0 1-.694 4.757 10.228 10.228 0 0 1-1.983 3.866 9.575 9.575 0 0 1-3.37 2.577 13.134 13.134 0 0 1-9.515 0 8.764 8.764 0 0 1-3.37-2.577 10.228 10.228 0 0 1-1.983-3.866 18.378 18.378 0 0 1-.694-4.757 14.94 14.94 0 0 1 .694-4.758 10.228 10.228 0 0 1 1.982-3.866 9.574 9.574 0 0 1 3.37-2.577 11.978 11.978 0 0 1 4.758-.992 10.486 10.486 0 0 1 4.758.992 8.764 8.764 0 0 1 3.37 2.577 10.228 10.228 0 0 1 1.983 3.866zm-4.46 4.66a10.984 10.984 0 0 0-1.388-5.948 4.767 4.767 0 0 0-4.263-2.082 4.657 4.657 0 0 0-4.262 2.082 10.984 10.984 0 0 0-1.388 5.947 11.61 11.61 0 0 0 1.388 6.047 5.405 5.405 0 0 0 8.525 0c.99-1.388 1.387-3.47 1.387-6.047zm40.739 7.434l1.09 2.973c.1.397-.198.496-.198.496a17.143 17.143 0 0 1-6.245 1.09c-3.866 0-6.74-1.09-8.723-3.27a12.672 12.672 0 0 1-2.973-8.823 14.939 14.939 0 0 1 .694-4.758 10.596 10.596 0 0 1 2.18-3.865 10.307 10.307 0 0 1 3.569-2.578 12.606 12.606 0 0 1 4.956-.99 28.913 28.913 0 0 1 3.27.197 15.866 15.866 0 0 1 2.975.793.396.396 0 0 1 .297.496 48.906 48.906 0 0 1-1.09 2.974c-.199.495-.496.297-.496.297a13.932 13.932 0 0 0-4.659-.694c-2.18 0-3.866.694-4.857 2.18a9.134 9.134 0 0 0-1.685 5.85c0 2.775.694 4.757 1.883 6.046a6.51 6.51 0 0 0 5.056 1.883 16.447 16.447 0 0 0 2.379-.198 8.228 8.228 0 0 0 2.081-.595c-.099.198.298.1.496.496zm22.5-12.985a13.574 13.574 0 0 1 .397 6.443.388.388 0 0 1-.396.396H217.79c.1 2.28.595 3.866 1.784 4.956a7.014 7.014 0 0 0 5.155 1.784 14.674 14.674 0 0 0 6.145-1.09.532.532 0 0 1 .595.297l.991 2.776c.199.495 0 .595-.099.694-.892.495-3.172 1.487-7.533 1.487a14.958 14.958 0 0 1-5.452-.893 9.995 9.995 0 0 1-3.767-2.478 11.035 11.035 0 0 1-2.18-3.766 16.66 16.66 0 0 1 0-9.516 10.228 10.228 0 0 1 1.982-3.866 9.106 9.106 0 0 1 3.47-2.577 11.068 11.068 0 0 1 4.956-.991 9.634 9.634 0 0 1 4.262.892 8.804 8.804 0 0 1 2.874 2.18 8.124 8.124 0 0 1 1.785 3.272zm-14.868 3.171h10.606a7.924 7.924 0 0 0-.99-3.568 4.559 4.559 0 0 0-4.164-2.18 4.726 4.726 0 0 0-4.262 2.18 10.032 10.032 0 0 0-1.19 3.568zm-104.772-3.171a16.228 16.228 0 0 1 .495 6.443.388.388 0 0 1-.396.396H98.249c.1 2.28.595 3.866 1.784 4.956a7.014 7.014 0 0 0 5.155 1.784 14.674 14.674 0 0 0 6.145-1.09.532.532 0 0 1 .595.297l.991 2.776c.198.495 0 .595-.099.694-.892.495-3.172 1.487-7.533 1.487a14.958 14.958 0 0 1-5.452-.893 9.995 9.995 0 0 1-3.767-2.478 11.035 11.035 0 0 1-2.18-3.766 16.66 16.66 0 0 1 0-9.516 10.228 10.228 0 0 1 1.982-3.866 9.106 9.106 0 0 1 3.47-2.577 11.068 11.068 0 0 1 4.956-.991 9.634 9.634 0 0 1 4.262.892 8.804 8.804 0 0 1 2.874 2.18 8.192 8.192 0 0 1 1.686 3.272zm-14.869 3.171h10.705a7.923 7.923 0 0 0-.99-3.568 4.559 4.559 0 0 0-4.164-2.18 4.726 4.726 0 0 0-4.262 2.18 8.396 8.396 0 0 0-1.289 3.568zm-26.267-.793s1.189.1 2.478.298v-.595c0-1.982-.397-2.974-1.19-3.568a6.221 6.221 0 0 0-3.667-.992 16.39 16.39 0 0 0-6.542 1.487.307.307 0 0 1-.199.1s-.396.099-.495-.199l-1.09-2.874a.442.442 0 0 1 .098-.595c1.388-1.09 4.56-1.685 4.56-1.685a26.866 26.866 0 0 1 3.965-.397q4.46 0 6.84 2.082c1.585 1.388 2.378 3.568 2.378 6.641v13.679s0 .396-.297.496a10.88 10.88 0 0 1-1.09.297c-.496.1-2.28.496-3.767.694a22.96 22.96 0 0 1-4.56.396 16.281 16.281 0 0 1-3.965-.396 9.57 9.57 0 0 1-3.072-1.289 6.713 6.713 0 0 1-1.983-2.379 7.06 7.06 0 0 1-.694-3.37 7.776 7.776 0 0 1 .793-3.47 7.443 7.443 0 0 1 2.181-2.477 11.037 11.037 0 0 1 3.073-1.487 14.88 14.88 0 0 1 3.667-.496c1.19.1 1.983.1 2.578.1zm-5.948 10.507a6.637 6.637 0 0 0 4.362.893 28.42 28.42 0 0 0 4.064-.496v-6.84a29.249 29.249 0 0 0-4.064-.297c-3.073 0-4.362 1.09-4.362 1.09a3.208 3.208 0 0 0-1.288 2.875 3.904 3.904 0 0 0 .495 1.982c.1.199.198.397.793.793zm126.382-18.139c-.1.396-.892 2.478-1.09 3.172a.544.544 0 0 1-.595.396 9.124 9.124 0 0 0-1.685-.198 8.012 8.012 0 0 0-1.983.298 5.197 5.197 0 0 0-1.883 1.09 4.744 4.744 0 0 0-1.289 2.18 13.828 13.828 0 0 0-.495 3.966v11.101a.468.468 0 0 1-.496.496h-3.965a.468.468 0 0 1-.496-.496V76.146a.453.453 0 0 1 .397-.496h3.866c.297 0 .396.198.396.496v1.784a6.609 6.609 0 0 1 2.478-1.883 7.849 7.849 0 0 1 3.866-.595 15.865 15.865 0 0 1 2.478.396c.397.1.595.199.496.595zM155.64 66.134a.396.396 0 0 1 .298.496l-1.19 3.172c-.1.198-.198.396-.694.198-.099 0-.297-.1-.793-.198a4.444 4.444 0 0 0-1.19-.1 7.704 7.704 0 0 0-1.585.199 2.555 2.555 0 0 0-1.289.793 4.957 4.957 0 0 0-1.09 1.586 14.845 14.845 0 0 0-.793 3.37h4.758c.396 0 .495.198.495.496l-.594 3.072c-.1.496-.496.397-.496.397h-4.956l-3.172 19.13a37.15 37.15 0 0 1-1.289 5.056 9.484 9.484 0 0 1-1.982 3.37 5.811 5.811 0 0 1-2.775 1.883 10.158 10.158 0 0 1-3.668.595 8.502 8.502 0 0 1-2.18-.198 5.682 5.682 0 0 1-1.388-.397.441.441 0 0 1-.199-.594c.1-.298.992-2.677 1.09-3.073.199-.397.496-.198.496-.198.298.099.496.198.793.297a6.064 6.064 0 0 0 2.974-.198 2.98 2.98 0 0 0 1.388-1.09 9.915 9.915 0 0 0 1.09-2.082 33.358 33.358 0 0 0 .892-3.668l3.37-18.734h-3.27c-.397 0-.496-.198-.496-.496l.594-3.072c.1-.496.496-.397.496-.397h3.37l.198-.991a12.178 12.178 0 0 1 2.974-6.74 8.71 8.71 0 0 1 6.344-2.28 12.372 12.372 0 0 1 2.081.198 2.376 2.376 0 0 1 1.388.198zM88.832 98.35a.453.453 0 0 1-.396.496H84.47c-.297 0-.396-.198-.396-.496V66.531c0-.199.198-.496.396-.496h3.965c.297 0 .396.198.396.496z"/></g><path d="M3.406 194.726h22.932v4.285h-9.006v24.043h-4.96v-24.043H3.407zm21.94 7.816h4.245v3.968h.08a4.572 4.572 0 0 1 .773-1.627 7.512 7.512 0 0 1 1.389-1.448 7.016 7.016 0 0 1 1.805-1.052 5.416 5.416 0 0 1 2.023-.396 9.91 9.91 0 0 1 1.091.04q.298.04.615.079v4.364a23.266 23.266 0 0 0-.972-.14 8.302 8.302 0 0 0-.972-.058 5.204 5.204 0 0 0-2.162.457 4.952 4.952 0 0 0-1.766 1.348 6.588 6.588 0 0 0-1.19 2.202 9.504 9.504 0 0 0-.436 3.015v9.76h-4.523zm31.144 15.949a2.407 2.407 0 0 0 .218 1.191.92.92 0 0 0 .853.357h.476a2.964 2.964 0 0 0 .635-.08v3.135c-.159.052-.364.112-.615.178q-.377.099-.774.179-.397.08-.793.119c-.265.026-.49.04-.675.04a4.364 4.364 0 0 1-2.3-.556 2.761 2.761 0 0 1-1.19-1.944 7.997 7.997 0 0 1-3.314 1.904 13.052 13.052 0 0 1-3.788.596 9.309 9.309 0 0 1-2.66-.377 6.976 6.976 0 0 1-2.24-1.111 5.315 5.315 0 0 1-1.548-1.865 5.738 5.738 0 0 1-.575-2.638 6.095 6.095 0 0 1 .694-3.095 5.15 5.15 0 0 1 1.826-1.865 8.246 8.246 0 0 1 2.538-.972q1.408-.297 2.837-.455a23.1 23.1 0 0 1 2.34-.338 11.06 11.06 0 0 0 1.965-.337 3.012 3.012 0 0 0 1.349-.734 2.022 2.022 0 0 0 .496-1.488 2.32 2.32 0 0 0-.417-1.429 2.81 2.81 0 0 0-1.031-.853 4.504 4.504 0 0 0-1.37-.397 11.178 11.178 0 0 0-1.427-.098 5.683 5.683 0 0 0-3.135.793 3.094 3.094 0 0 0-1.388 2.46h-4.523a6.818 6.818 0 0 1 .952-3.293 6.587 6.587 0 0 1 2.122-2.103 8.692 8.692 0 0 1 2.917-1.11 17.34 17.34 0 0 1 3.332-.318 14.028 14.028 0 0 1 2.976.317 8.481 8.481 0 0 1 2.638 1.032 5.719 5.719 0 0 1 1.885 1.845 5.063 5.063 0 0 1 .714 2.758zm-4.523-5.713a5.477 5.477 0 0 1-2.539.813q-1.508.14-3.015.417a9.83 9.83 0 0 0-1.39.338 4.194 4.194 0 0 0-1.189.594 2.616 2.616 0 0 0-.813.992 3.395 3.395 0 0 0-.298 1.488 1.897 1.897 0 0 0 .437 1.27 3.172 3.172 0 0 0 1.05.813 4.836 4.836 0 0 0 1.35.417 8.417 8.417 0 0 0 1.329.119 7.389 7.389 0 0 0 1.626-.198 5.422 5.422 0 0 0 1.647-.675 4.317 4.317 0 0 0 1.29-1.21 3.06 3.06 0 0 0 .515-1.805zm9.403-10.236h4.285v3.016l.08.08a7.589 7.589 0 0 1 2.697-2.68 7.193 7.193 0 0 1 3.69-.971 7.672 7.672 0 0 1 5.316 1.745 6.687 6.687 0 0 1 1.944 5.238v14.084h-4.523V210.16a5.581 5.581 0 0 0-1.031-3.51 3.747 3.747 0 0 0-2.976-1.091 4.913 4.913 0 0 0-2.063.416 4.465 4.465 0 0 0-1.547 1.151 5.414 5.414 0 0 0-.992 1.726 6.159 6.159 0 0 0-.357 2.103v12.1H61.37zm26.184 13.926a3.406 3.406 0 0 0 1.508 2.777 5.928 5.928 0 0 0 3.134.794 12.15 12.15 0 0 0 1.448-.1 6.312 6.312 0 0 0 1.528-.376 2.873 2.873 0 0 0 1.17-.813 1.957 1.957 0 0 0 .417-1.409 2 2 0 0 0-.635-1.429 4.418 4.418 0 0 0-1.527-.892 14.844 14.844 0 0 0-2.123-.575q-1.19-.239-2.42-.516a22.504 22.504 0 0 1-2.44-.674 7.872 7.872 0 0 1-2.103-1.071 4.942 4.942 0 0 1-1.488-1.727 5.506 5.506 0 0 1-.555-2.598 4.66 4.66 0 0 1 .813-2.797 6.235 6.235 0 0 1 2.063-1.825 9.006 9.006 0 0 1 2.777-.973 16.342 16.342 0 0 1 2.917-.277 13.346 13.346 0 0 1 3.035.337 8.255 8.255 0 0 1 2.618 1.091 6.412 6.412 0 0 1 1.944 1.964 6.808 6.808 0 0 1 .972 2.916h-4.721a2.818 2.818 0 0 0-1.488-2.182 6.184 6.184 0 0 0-2.678-.555 9.579 9.579 0 0 0-1.13.08 5.254 5.254 0 0 0-1.23.296 2.59 2.59 0 0 0-.973.636 1.516 1.516 0 0 0-.396 1.09 1.725 1.725 0 0 0 .575 1.35 4.553 4.553 0 0 0 1.508.853 14.702 14.702 0 0 0 2.122.574q1.19.238 2.46.517a25.079 25.079 0 0 1 2.42.674A7.82 7.82 0 0 1 99.2 212.7a5.22 5.22 0 0 1 1.508 1.706 5.163 5.163 0 0 1 .575 2.54 5.515 5.515 0 0 1-.834 3.094 6.578 6.578 0 0 1-2.162 2.063 9.848 9.848 0 0 1-2.956 1.15 14.975 14.975 0 0 1-3.213.358 13.99 13.99 0 0 1-3.59-.437 8.35 8.35 0 0 1-2.857-1.329 6.41 6.41 0 0 1-1.904-2.222 7.065 7.065 0 0 1-.735-3.154zm17.18-13.926h4.284v2.857h.12a11.672 11.672 0 0 1 1.11-1.39 6.104 6.104 0 0 1 1.33-1.07 6.764 6.764 0 0 1 1.685-.695 8.42 8.42 0 0 1 2.183-.257 7.43 7.43 0 0 1 3.471.833 4.715 4.715 0 0 1 2.281 2.579 9.132 9.132 0 0 1 2.659-2.5 7.167 7.167 0 0 1 3.769-.912 7.41 7.41 0 0 1 5.058 1.587q1.805 1.587 1.805 5.317v14.163h-4.522v-11.981q0-1.23-.08-2.242a4.588 4.588 0 0 0-.456-1.746 2.598 2.598 0 0 0-1.13-1.13 4.48 4.48 0 0 0-2.064-.397 3.83 3.83 0 0 0-3.333 1.428 6.826 6.826 0 0 0-1.031 4.047v12.021h-4.523v-13.172a5.587 5.587 0 0 0-.773-3.233 3.255 3.255 0 0 0-2.837-1.091 4.137 4.137 0 0 0-1.686.357 4.192 4.192 0 0 0-1.429 1.031 5.15 5.15 0 0 0-.992 1.667 6.333 6.333 0 0 0-.377 2.26v12.181h-4.523zm43.92 21.068a11.18 11.18 0 0 1-4.384-.814 9.314 9.314 0 0 1-3.254-2.242 9.55 9.55 0 0 1-2.024-3.412 13.955 13.955 0 0 1 0-8.688 9.55 9.55 0 0 1 2.024-3.412 9.327 9.327 0 0 1 3.254-2.242 12.223 12.223 0 0 1 8.768 0 9.383 9.383 0 0 1 3.253 2.242 9.604 9.604 0 0 1 2.022 3.412 13.917 13.917 0 0 1 0 8.688 9.605 9.605 0 0 1-2.022 3.412 9.37 9.37 0 0 1-3.253 2.242 11.195 11.195 0 0 1-4.384.814zm0-3.571a5.188 5.188 0 0 0 2.617-.635 5.51 5.51 0 0 0 1.825-1.666 7.209 7.209 0 0 0 1.05-2.321 10.4 10.4 0 0 0 0-5.258 6.974 6.974 0 0 0-1.05-2.32 5.615 5.615 0 0 0-1.825-1.647 5.722 5.722 0 0 0-5.237 0 5.595 5.595 0 0 0-1.824 1.647 7.014 7.014 0 0 0-1.051 2.32 10.4 10.4 0 0 0 0 5.258 7.252 7.252 0 0 0 1.05 2.32 5.491 5.491 0 0 0 1.825 1.667 5.186 5.186 0 0 0 2.62.635zm33.087 1.944q0 4.641-2.598 6.923-2.6 2.28-7.48 2.28a15.718 15.718 0 0 1-3.114-.316 9.278 9.278 0 0 1-2.856-1.07 6.907 6.907 0 0 1-2.163-1.985 6.015 6.015 0 0 1-1.03-3.015h4.521a3.623 3.623 0 0 0 .676 1.547 3.464 3.464 0 0 0 1.13.932 4.32 4.32 0 0 0 1.448.437 13.462 13.462 0 0 0 1.666.099 5.275 5.275 0 0 0 4.007-1.349 5.466 5.466 0 0 0 1.27-3.889v-3.134h-.08a6.868 6.868 0 0 1-2.598 2.659 6.974 6.974 0 0 1-3.551.952 9.362 9.362 0 0 1-4.185-.853 7.96 7.96 0 0 1-2.857-2.341 9.723 9.723 0 0 1-1.646-3.431 16.2 16.2 0 0 1-.516-4.166 12.093 12.093 0 0 1 .634-3.928 10.012 10.012 0 0 1 1.826-3.273 8.742 8.742 0 0 1 2.915-2.242 8.88 8.88 0 0 1 3.909-.833 7.883 7.883 0 0 1 3.57.813 5.52 5.52 0 0 1 2.5 2.56h.08v-2.818h4.522zm-10.038-2.5a4.8 4.8 0 0 0 4.265-2.24 7.164 7.164 0 0 0 .953-2.303 11.49 11.49 0 0 0 .297-2.598 10.113 10.113 0 0 0-.317-2.54 6.829 6.829 0 0 0-.973-2.181 4.709 4.709 0 0 0-1.705-1.508 5.34 5.34 0 0 0-2.52-.555 4.762 4.762 0 0 0-2.539.634 5.078 5.078 0 0 0-1.666 1.647 7.095 7.095 0 0 0-.912 2.302 12.077 12.077 0 0 0-.278 2.558 9.727 9.727 0 0 0 .317 2.48 6.848 6.848 0 0 0 .972 2.162 5.204 5.204 0 0 0 1.666 1.548 4.732 4.732 0 0 0 2.44.594zm14.6-16.941h4.245v3.968h.08a4.572 4.572 0 0 1 .773-1.627 7.527 7.527 0 0 1 1.389-1.448 7.008 7.008 0 0 1 1.805-1.052 5.412 5.412 0 0 1 2.023-.396 9.922 9.922 0 0 1 1.091.04c.199.027.403.053.616.079v4.364a23.629 23.629 0 0 0-.973-.14 8.33 8.33 0 0 0-.972-.058 5.204 5.204 0 0 0-2.162.457 4.948 4.948 0 0 0-1.765 1.348 6.58 6.58 0 0 0-1.191 2.202 9.532 9.532 0 0 0-.437 3.015v9.76h-4.522zm14.084-7.816h4.523v4.285h-4.523zm0 7.816h4.523v20.512h-4.523zm7.418 0h3.373v-1.705a8.768 8.768 0 0 1 .476-3.154 4.486 4.486 0 0 1 1.27-1.866 4.192 4.192 0 0 1 1.805-.872 10.08 10.08 0 0 1 2.122-.219 13.02 13.02 0 0 1 3.174.278v3.532a6.477 6.477 0 0 0-.932-.18 9.93 9.93 0 0 0-1.17-.059 2.76 2.76 0 0 0-1.567.437 1.915 1.915 0 0 0-.655 1.706v2.102h3.848v3.373H215.7v17.14h-4.523v-17.14h-3.373zm29.003-7.816l10.592 28.328h-6.467l-2.142-6.308h-10.593l-2.222 6.308h-6.268l10.711-28.328zm.356 17.378l-3.57-10.395h-.08l-3.69 10.395zm18.925-17.378v28.328h-6.229v-28.328z"/></svg>