<svg xmlns="http://www.w3.org/2000/svg" role="img" viewBox="36.64 -6.36 720.72 557.22"><title>TreeInterpreter logo</title><defs><style>.cls-1{fill:#35d086}</style></defs><path d="M398.39 414.475c-.823-.943-2.037-.676-3.057-.893a35.78 35.78 0 0 1-28.419-36.71c.905-18.613 14.767-32.844 32.749-34.365a35.998 35.998 0 0 1 10.651 71.088c-.945.193-2.06.01-2.812.88z" class="cls-1"/><path fill="#34d086" d="M50.603 160.428q0-74.877-.057-149.755c-.004-2.406.551-3.03 3.001-3.024 36.202.087 72.403.002 108.605.075 45.669.092 83.278 31.382 92.628 74.148 5.217 23.865 1.672 46.63-10.613 67.87-.916 1.584-.933 2.412.373 3.772 14.265 14.854 23.056 32.49 25.641 52.914 6.361 50.255-25.828 92.597-69.772 104.018a91.53 91.53 0 0 1-23.205 2.98q-61.735-.054-123.469-.025c-3.594-.001-3.124.47-3.125-3.22q-.016-74.876-.007-149.753zm100.674 81.009c8.546 0 17.093.016 25.64-.004a22.474 22.474 0 0 0 20.558-14.278c5.758-15.143-5.17-30.472-21.91-30.565-16.854-.094-33.709.01-50.562-.065-1.97-.009-2.36.666-2.351 2.474q.101 20.117-.007 40.234c-.01 1.814.491 2.265 2.273 2.246 8.785-.093 17.572-.042 26.359-.042zm-28.589-139.251c0 6.623.075 13.248-.046 19.87-.036 1.959.451 2.559 2.486 2.543 12.455-.096 24.912-.04 37.368-.05a22.341 22.341 0 0 0 .49-44.68c-12.774-.15-25.55-.007-38.326-.072-1.608-.008-2.019.501-2.002 2.04.071 6.782.03 13.566.03 20.349zm391.287 103.458a111.074 111.074 0 0 1-222.147-.121c0-60.103 48.323-111.028 111.147-110.95a110.739 110.739 0 0 1 111 111.071zm-75.228-.025a35.91 35.91 0 1 0-35.943 35.818 35.934 35.934 0 0 0 35.943-35.818zm269.061-4.321c0 8.867-.058 17.734.022 26.6a46.297 46.297 0 0 0 2.772 16.667c3.443 8.798 10.375 12.967 19.797 12.03a68.384 68.384 0 0 0 11.355-1.6c1.566-.428 2.072-.05 2.058 1.635-.072 8.547-.033 17.094-.033 25.642 0 7.749-.044 15.498.036 23.246a2.945 2.945 0 0 1-1.893 3.128 77.252 77.252 0 0 1-44.003 7.362c-11.812-1.371-23.01-4.55-33.074-11.047-15.463-9.983-24.054-24.505-27.588-42.277a89.786 89.786 0 0 1-1.55-17.617q.04-91.547-.047-183.093c-.003-2.412.76-3.184 3-3.65q33.383-6.953 66.716-14.144c2.034-.439 2.405-.012 2.397 1.94-.064 16.695-.001 33.39-.084 50.086-.01 1.978.478 2.53 2.487 2.51 10.39-.105 20.782-.004 31.172-.091 1.853-.016 2.41.43 2.404 2.358q-.106 33.79-.003 67.58c.005 1.805-.467 2.283-2.26 2.269-10.39-.084-20.782.008-31.172-.085-1.965-.017-2.58.481-2.556 2.512.108 9.345.047 18.692.047 28.039z"/><path d="M607.909 160.914q0 74.758.054 149.516c.003 2.36-.482 3.056-2.972 3.044q-33.324-.166-66.649-.014c-2.114.008-2.65-.525-2.649-2.64q.083-142.567-.005-285.134c0-2.128.701-2.837 2.67-3.248q33.492-6.988 66.943-14.165c2.215-.477 2.656-.042 2.654 2.167q-.09 75.237-.046 150.474z" class="cls-1"/><path d="M109.385 446.177v12.516H88.237v58.168H73.372v-58.168H52.128v-12.516zm31.195 17.193q.262.023 1.174.07v14.003q-1.295-.143-2.302-.192-1.007-.047-1.63-.048-8.249 0-11.078 5.371-1.582 3.02-1.582 9.303v24.984h-13.763v-52.27h13.043v9.112a28.926 28.926 0 0 1 5.515-7.145 15.014 15.014 0 0 1 9.975-3.213q.383 0 .647.024zm43.243 2.28a21.259 21.259 0 0 1 9.032 7.733 25.693 25.693 0 0 1 4.165 10.805 66.842 66.842 0 0 1 .45 10.374H159.4q.319 7.867 5.467 11.03a13.88 13.88 0 0 0 7.535 1.967 10.617 10.617 0 0 0 10.402-5.995h13.953q-.552 4.651-5.067 9.447-7.023 7.624-19.665 7.625a28.489 28.489 0 0 1-18.41-6.432q-7.978-6.43-7.977-20.926 0-13.582 7.2-20.83 7.2-7.246 18.692-7.247a29.758 29.758 0 0 1 12.293 2.45zm-20.446 11.807a14.195 14.195 0 0 0-3.64 8.09h23.545q-.373-5.443-3.64-8.259a11.975 11.975 0 0 0-8.106-2.818q-5.263 0-8.159 2.987zm75.065-11.807a21.259 21.259 0 0 1 9.033 7.733 25.693 25.693 0 0 1 4.165 10.805 66.844 66.844 0 0 1 .45 10.374h-38.07q.318 7.867 5.466 11.03a13.88 13.88 0 0 0 7.536 1.967 10.617 10.617 0 0 0 10.401-5.995h13.953q-.551 4.651-5.066 9.447-7.023 7.624-19.665 7.625a28.489 28.489 0 0 1-18.411-6.432q-7.977-6.43-7.976-20.926 0-13.582 7.2-20.83 7.2-7.246 18.692-7.247a29.758 29.758 0 0 1 12.292 2.45zm-20.445 11.807a14.195 14.195 0 0 0-3.64 8.09H237.9q-.372-5.443-3.64-8.259a11.975 11.975 0 0 0-8.106-2.818q-5.262 0-8.158 2.987zm55.583 39.404h-14.675v-70.684h14.675zm54.857-49.272q5.132 4.244 5.133 14.074v35.198h-14.003v-31.794a14.598 14.598 0 0 0-1.095-6.329q-2-4.028-7.616-4.028-6.903 0-9.473 5.898a20.391 20.391 0 0 0-1.333 7.96v28.293h-13.667v-52.173h13.235v7.625a23.156 23.156 0 0 1 4.967-5.803 17.204 17.204 0 0 1 10.648-3.165q8.07 0 13.204 4.244zm12.469 7.217v-9.735h7.29v-14.578h13.522v14.578h8.489v9.735h-8.489v27.62q0 3.215.816 4.006.815.79 4.987.79.623 0 1.319-.024.694-.023 1.367-.071v10.214l-6.475.24q-9.687.334-13.235-3.357-2.301-2.349-2.302-7.242v-32.176zm72.137-9.156a21.269 21.269 0 0 1 9.033 7.733 25.711 25.711 0 0 1 4.164 10.805 66.806 66.806 0 0 1 .45 10.374h-38.07q.318 7.867 5.466 11.03a13.88 13.88 0 0 0 7.537 1.967 10.616 10.616 0 0 0 10.4-5.995h13.954q-.551 4.651-5.067 9.447-7.022 7.624-19.664 7.625a28.49 28.49 0 0 1-18.412-6.432q-7.977-6.43-7.976-20.926 0-13.582 7.2-20.83 7.2-7.246 18.692-7.247a29.762 29.762 0 0 1 12.293 2.45zm-20.446 11.807a14.195 14.195 0 0 0-3.64 8.09h23.545q-.375-5.443-3.64-8.259a11.976 11.976 0 0 0-8.106-2.818q-5.263 0-8.159 2.987zm70.041-14.087c.175.015.567.04 1.175.07v14.003q-1.295-.143-2.302-.192-1.008-.047-1.631-.048-8.249 0-11.077 5.371-1.582 3.02-1.582 9.303v24.984h-13.763v-52.27h13.043v9.112a28.926 28.926 0 0 1 5.515-7.145 15.014 15.014 0 0 1 9.974-3.213q.384 0 .648.024zm53.139 6.832q6.396 6.762 6.396 19.853 0 13.812-6.25 21.051a20.288 20.288 0 0 1-16.097 7.242 16.878 16.878 0 0 1-10.426-3.118 20.122 20.122 0 0 1-4.44-5.035v27.239h-13.522v-72.842h13.091v7.72a21.98 21.98 0 0 1 4.73-5.37 17.453 17.453 0 0 1 10.907-3.502 20.668 20.668 0 0 1 15.611 6.762zm-10.488 9.83q-2.788-4.65-9.035-4.651-7.51 0-10.32 7.05a26.466 26.466 0 0 0-1.453 9.494q0 9.113 4.89 12.804a11.217 11.217 0 0 0 6.88 2.158 10.003 10.003 0 0 0 8.795-4.411q3.028-4.413 3.028-11.75a20.417 20.417 0 0 0-2.785-10.694zm55.559-16.662c.174.015.567.04 1.174.07v14.003q-1.294-.143-2.301-.192-1.008-.047-1.631-.048-8.249 0-11.077 5.371-1.582 3.02-1.582 9.303v24.984h-13.763v-52.27h13.043v9.112a28.926 28.926 0 0 1 5.515-7.145 15.014 15.014 0 0 1 9.974-3.213q.384 0 .648.024zm43.242 2.28a21.263 21.263 0 0 1 9.034 7.733 25.699 25.699 0 0 1 4.164 10.805 66.783 66.783 0 0 1 .45 10.374H579.67q.318 7.867 5.466 11.03a13.881 13.881 0 0 0 7.536 1.967 10.62 10.62 0 0 0 10.401-5.995h13.953q-.552 4.651-5.067 9.447-7.022 7.624-19.664 7.625a28.491 28.491 0 0 1-18.412-6.432q-7.976-6.43-7.976-20.926 0-13.582 7.2-20.83 7.2-7.246 18.692-7.247a29.755 29.755 0 0 1 12.293 2.45zm-20.444 11.807a14.198 14.198 0 0 0-3.641 8.09h23.545q-.374-5.443-3.64-8.259a11.975 11.975 0 0 0-8.106-2.818q-5.262 0-8.158 2.987zm35.634-2.651v-9.735h7.288v-14.578h13.524v14.578h8.487v9.735h-8.487v27.62q0 3.215.814 4.006.816.79 4.988.79.622 0 1.319-.024.694-.023 1.366-.071v10.214l-6.474.24q-9.687.334-13.235-3.357-2.301-2.349-2.302-7.242v-32.176zm72.135-9.156a21.263 21.263 0 0 1 9.033 7.733 25.698 25.698 0 0 1 4.164 10.805 66.782 66.782 0 0 1 .45 10.374h-38.069q.318 7.867 5.466 11.03a13.881 13.881 0 0 0 7.536 1.967 10.62 10.62 0 0 0 10.401-5.995h13.954q-.553 4.651-5.068 9.447-7.022 7.624-19.664 7.625a28.491 28.491 0 0 1-18.412-6.432q-7.976-6.43-7.976-20.926 0-13.582 7.2-20.83 7.2-7.246 18.692-7.247a29.755 29.755 0 0 1 12.293 2.45zm-20.445 11.807a14.198 14.198 0 0 0-3.64 8.09h23.544q-.374-5.443-3.64-8.259a11.975 11.975 0 0 0-8.106-2.818q-5.262 0-8.158 2.987zm70.04-14.087c.176.015.568.04 1.176.07v14.003q-1.295-.143-2.302-.192-1.008-.047-1.631-.048-8.249 0-11.077 5.371-1.582 3.02-1.582 9.303v24.984H711.83v-52.27h13.043v9.112a28.926 28.926 0 0 1 5.515-7.145 15.014 15.014 0 0 1 9.974-3.213q.384 0 .648.024z"/></svg>