<svg xmlns="http://www.w3.org/2000/svg" role="img" viewBox="8.64 3.14 590.72 284.72"><title>Trino logo</title><defs><style>.cls-2{fill:#040404}.cls-5{fill:#e4e4e4}.cls-6{fill:#d3d2d2}.cls-7{fill:#060606}.cls-9{fill:#565656}.cls-10{fill:#dd06a2}.cls-15{fill:#fff}</style></defs><path fill="#fbfafb" d="M173.50465 92.216a1.90749 1.90749 0 0 1-.499.5165q-4.83988.71973-4.76221 5.59846a1.81418 1.81418 0 0 1-.50319.52634c-3.45652.806-5.54452 2.78945-5.63052 6.49974a2.11408 2.11408 0 0 1-.4869.5033c-2.993.18149-4.07916 1.92935-3.89962 4.71864a1.86853 1.86853 0 0 1-.49118.53077c-2.81153.13182-3.95865 1.72524-3.88362 4.394l.01341-.01452c-2.55329.36024-3.66591 1.87125-3.51839 4.38883l.011-.01171c-.4233.06548-1.01724-.02632-1.24477.21962-4.777 5.16374-7.72781 11.44736-10.7651 17.6727-.41413.84882-.39336 1.932.46881 2.32169 3.37246 1.52431 5.77527 4.8767 9.78861 5.16358l-.014-.013c3.33122 5.89156 9.008 9.71684 13.16024 14.88519l-.00335-.00507c1.84355 5.02344 5.02327 9.4463 6.549 14.631.30246 1.02781-.00543 2.79091 2.1807 2.99865 0-7.33033-.10161-14.58.05225-21.82432.0579-2.72623-.542-4.41459-3.17318-5.90055-4.49494-2.53849-5.98429-6.59744-4.73265-10.53977 1.40128-4.41361 5.39323-7.10167 10.24843-7.41934 3.43961-.22505 6.04482 1.754 9.04225 2.68141l-.00706-.00461.883.88131-.00417-.00648c2.918 4.50973.95584 9.0165-.00819 13.52388a2.35428 2.35428 0 0 1-.48673.48292c-4.14849-.09916-5.93363 1.71571-5.75662 6.03981.2712 6.62511.196 13.2727.01939 19.90417-.08868 3.33012 1.14155 4.88539 4.48648 4.68688l-.01276-.01193a25.40364 25.40364 0 0 1 3.59406 14.37232c-.53009 7.88693.75723 15.90365-1.84642 23.635a1.97676 1.97676 0 0 1-.50676.50163c-4.34741.73337-8.24173 3.57562-12.94345 2.72923a1.6779 1.6779 0 0 0-1.37126.82943c-1.64371 4.291-5.37347 7.522-6.21061 12.21016l.01-.01047c-2.69472.43134-3.74264 2.09434-3.52884 4.70105q-.70161.70705-1.40679 1.41408c-1.14936-.06107-2.48625-.28363-2.823 1.20029-.246 1.0838.64644 1.436 1.62233 1.43478l-.01149-.012a2.91666 2.91666 0 0 0 .98423 2.31586c3.65781 4.29777 3.55416 4.79486-.36324 8.97754-1.52938 1.633-3.96111 2.65347-4.12695 5.35612l.01043-.01c-2.44731-.52222-3.62128 1.57493-5.2497 2.63576-14.37361 9.36354-30.19823 12.91392-47.2126 12.28851-15.658-.57557-30.0071-4.83321-42.6873-14.16964-1.33012-.97935-2.49757-2.00264-4.27845-1.63873-1.72553-1.87568-2.14629-4.71755-4.53868-6.102-2.61577-2.93054-.016-5.53484.516-8.26863a1.97334 1.97334 0 0 1 .51538-.49073c1.88685-.0094 4.63061-.15607 2.95593-2.70122-1.6195-2.46132-3.556-5.33826-6.9959-6.05652l.011.01157c-1.0306-5.04907-4.96022-8.61283-6.84775-13.23115a1.74935 1.74935 0 0 0-1.47685-.69631c-3.86511.54139-7.264-1.562-10.97309-1.83525l.01219.01154a2.34416 2.34416 0 0 0-2.64187-2.63675l.01093.01132c-1.70992-8.78181-.68618-17.65752-.86292-26.48908-.14315-7.15383 4.24237-11.79345 11.37065-11.951 2.7105-.0599 3.79137-1.08782 4.56046-3.53077a58.55882 58.55882 0 0 1 9.86723-18.32525c.94637-1.2185 1.6574-2.36737 1.37363-3.9417 2.32729-1.52835 4.94017-2.77064 5.8032-5.76918 2.27163.35949 3.71388-.758 4.73169-2.63441 1.1404-.89612.82481-2.02947.56211-3.18789-3.22943-14.24073-6.063-28.56007-8.90128-42.88419-3.43353-17.32833-2.39186-34.566-.77505-51.92836.34557-3.71095 2.3005-7.55211.356-11.38655-.1355-2.85859 1.19452-5.29459 2.14582-7.86965.89034-2.41 3.35064-4.121 3.08066-7.01587l-.00981.0102c5.26458-3.397 10.7461-4.73033 16.68133-1.74716l-.01537-.01538c.08751.71-.05983 1.57925.29841 2.10567C77.17166 26.59 78.268 33.73663 78.6545 40.7561a295.06983 295.06983 0 0 1-1.77585 49.99815c-1.65 14.32593-1.57741 28.68-1.54166 43.0495.00466 1.87.41472 2.70339 2.5406 1.96071 14.42008-5.03773 29.10748-4.5238 43.87793-1.94882 2.098.10237 2.67046-1.51324 3.252-2.995 2.17555-5.54287 4.39016-11.07344 6.4156-16.67154 9.43426-26.07513 24.2043-48.81567 42.90181-69.182 2.28963-2.494 5.10569-4.763 6.2196-8.2157q.42663-.88791.85322-1.77582l-.00337.00254c3.44092-.34371 6.36154-3.00631 10.00846-2.33945 7.024 1.28439 10.01989 6.79067 8.08361 15.05531-2.11625 9.03288-6.84176 16.8263-11.88872 24.46566-1.15471 1.74782-3.07823 3.21351-2.68722 5.71454l.01-.01054c-2.328.086-2.79435 1.56727-2.64207 3.51225l.01309-.01422c-2.78632.6558-4.42545 2.2661-4.39626 5.26453l.01289-.014c-2.90997.73886-4.57949 2.4488-4.40351 5.6038zm-26.28026 135.3137c5.73693-2.92313 7.82429-8.12882 8.80464-14.02685a18.427 18.427 0 0 0 1.65959-9.24759c-1.084-12.87993-7.55131-22.76942-17.75867-30.20552-15.14086-11.03013-32.32706-13.4028-50.32592-10.23683-14.76841 2.59775-27.16188 9.73262-35.46936 22.48975-5.3676 8.24258-8.2514 17.30515-4.39038 27.23371a18.75934 18.75934 0 0 0 8.04258 13.9866 21.60107 21.60107 0 0 0 6.3673 5.83746c9.12175 5.61928 19.13321 7.90312 29.66924 9.16672a79.03973 79.03973 0 0 0 42.86613-6.557c4.00237-1.81605 8.84864-3.38774 10.53485-8.44045zm-43.33064 25.93445c2.13949-.143 5.5043-.23327 8.83589-.61352 16.00269-1.82658 30.457-7.15853 41.15155-19.76879 13.0746-15.41666 14.17817-33.36842 9.5006-52.00145-4.40272-17.53813-14.97285-30.34028-31.578-37.93714-4.67114-2.13707-4.69147-2.10368-4.6989 2.79327-.00686 4.5191.1941 9.04977-.07253 13.55317-.16817 2.84036.95838 4.02108 3.469 5.04323a53.72272 53.72272 0 0 1 21.688 15.81155c16.1024 19.67028 11.22982 45.30779-10.95083 57.6589-9.21951 5.13378-19.24351 7.52123-29.65924 8.33534-16.57491 1.29557-32.71832-.32685-47.5041-8.624C42.35846 225.52813 37.55512 200.62756 52.946 181.016a54.77287 54.77287 0 0 1 22.6281-16.68578c1.62746-.678 3.14164-1.19891 3.07049-3.57278-.16589-5.53461-.10593-11.07831-.02729-16.61676.03325-2.3428-.69719-2.74562-2.85181-1.84472a55.51222 55.51222 0 0 0-14.2738 8.38969C45.006 164.398 39.14054 182.49164 40.15074 203.24287c.786 16.14594 7.87543 29.05387 21.1 38.40657 12.38476 8.75872 26.56799 11.53292 42.64301 11.81471zM64.12492 141.379c5.4888-1.19791 6.81112-4.11921 6.74022-9.19268-.26638-19.06218.13511-38.13279.17292-57.20046.01671-8.4298.61692-16.90025-.91673-25.266-.63458-3.46156-.3927-8.26405-4.81242-8.8151-4.61764-.57572-5.89067 4.11289-7.19661 7.56041-2.81564 7.43293-3.5228 15.29412-3.697 23.15511-.52684 23.76979 4.22345 46.8165 9.70962 69.75872zm38.42542 128.16836c17.53936-.37609 33.70825-4.62515 46.93386-16.89444 1.01428-.94092 4.18043-1.93208 1.63719-4.17563-1.77695-1.56756-2.82374-4.58993-6.73554-2.47374-27.5641 14.91164-55.36616 14.956-82.94845.086-4.13211-2.22766-5.24692.93539-7.079 2.57148-2.31466 2.06708.77579 2.97678 1.71126 3.8549 13.04104 12.24119 29.05659 16.52655 46.48068 17.03141zM185.9805 58.74743c.16039-3.29209-1.52283-4.28453-5.07783-2.75064-7.305 3.1519-12.55855 8.89547-17.698 14.6764-16.26281 18.29268-25.48012 40.5531-35.21423 62.522-.775 1.74907-.27717 2.4096 1.37026 3.14692 3.02961 1.35591 4.8626 1.52686 6.84285-2.10759a322.80854 322.80854 0 0 1 32.31485-48.75115 190.27818 190.27818 0 0 0 14.15554-19.424c1.45062-2.34683 2.94264-4.7013 3.30656-7.31194zM82.4331 150.7c0 2.61954.20043 5.25866-.054 7.85335-.27806 2.83588.88635 2.98908 3.1744 2.42364a69.94434 69.94434 0 0 1 35.00793.18965c2.28386.599 2.73855.13681 2.69044-2.05155-.11508-5.23656-.22778-10.48706.03929-15.71255.14438-2.82489-.96382-3.75328-3.50568-4.28943a82.1227 82.1227 0 0 0-30.41213-.68572c-6.95215 1.13212-6.94033 1.20444-6.94037 8.3433q.00002 1.96465.00012 3.92931zm-54.47766 44.22211c0 2.02669.07849 4.05706-.01719 6.07923-.17122 3.61861 2.53221 2.34509 4.2526 2.4358 1.70006.08966 3.964.79511 3.76307-2.46862a66.56948 66.56948 0 0 1 1.24249-15.10875c.18232-1.08623.38774-1.80936-1.12868-2.14661-4.25739-.94684-7.9355 1.66959-8.09962 5.99792-.06578 1.73466-.01083 3.47392-.01267 5.21103zm149.97276.25215c0-1.60284.03427-3.20655-.00648-4.80836-.11825-4.65062-2.58465-6.80379-7.21172-6.66852-2.03724.05958-2.32639.63-1.97766 2.588a67.25712 67.25712 0 0 1 1.22732 14.341c-.04033 1.06819-.45339 2.2614 1.20475 2.82259 4.25493 1.44008 6.75983-.26556 6.76542-4.7776q.00217-1.74854-.00163-3.49711zm-7.35609 20.84274c4.83364.01664 7.14647-2.15755 7.431-6.22452.265-3.78693-2.2723-2.91487-4.295-2.94-4.6141-.05732-5.2748 1.03251-5.80127 7.30414-.24746 2.94805 1.78005 1.40714 2.66527 1.86038zm-135.83511.01031c.8621-.49941 3.752.84249 2.79966-1.94632-.89056-2.60769 1.30167-7.64957-4.42857-7.17086-1.97412.16491-5.382-1.84261-5.32494 2.74621.0503 4.04205 2.16877 6.19789 6.95385 6.37097zm137.88937-69.78114c2.80492-.0466 5.01364-1.16347 5.17956-4.11658.1803-3.20956-2.03121-4.66941-5.0099-4.71094-2.81835-.0393-4.90722 1.41619-4.96029 4.33372-.05302 2.91544 1.92859 4.33063 4.79063 4.4938z"/><path d="M541.32641 257.51856c-26.75714.001-46.96433-19.79514-46.92212-45.96777.04265-26.44007 20.35306-46.37195 47.16279-46.28384 26.5453.08724 46.59182 19.78758 46.61076 45.80582.01953 26.72223-19.87518 46.44475-46.85143 46.44579zm34.661-45.98934c.09428-19.65483-14.70257-34.61168-34.397-34.769-20.1126-.16062-34.90073 14.42963-34.9682 34.50026-.06619 19.69668 14.673 34.55507 34.41595 34.69434 20.24316.14282 34.85247-14.24757 34.94921-34.4256z" class="cls-2"/><path fill="#050505" d="M412.9956 177.09037c11.7764-11.44937 25.39592-14.15122 40.3534-10.34275 14.636 3.72661 24.68819 15.9239 26.08349 31.56729 1.5174 17.01225.45154 34.08881.59061 51.13582.03312 4.06522-2.65154 6.36-6.39322 6.11761-3.89637-.25247-5.67847-2.49753-5.6751-6.32666.01214-13.70255-.00846-27.40512.01-41.10764a46.07011 46.07011 0 0 0-2.00281-14.65437c-3.20881-9.69411-10.1661-15.013-20.14342-16.39093-10.67232-1.47391-19.60669 1.86016-26.32667 10.37719a30.18583 30.18583 0 0 0-6.63448 19.0163c-.0457 13.84812-.017 27.69647-.043 41.54469-.00953 5.06285-1.87783 7.43535-5.84477 7.5551-4.17108.12588-6.33583-2.38033-6.34046-7.54629q-.03255-36.29712-.00658-72.59428c.00195-5.5734 2.03272-8.299 6.11492-8.30164 4.03533-.0026 5.96827 2.62759 6.094 8.28395.00649.28999.05509.57903.16409 1.66661zm-159.77882 30.50694c0-8.6-.1228-17.20268.0714-25.79827.06191-2.7411-.71033-3.68255-3.397-3.33016a17.8264 17.8264 0 0 1-4.37261-.01543c-3.16953-.37569-5.15228-2.26813-5.25438-5.41792-.11-3.393 1.93888-5.36618 5.26776-5.8687 2.42009-.36533 5.785 1.08182 7.10478-.58866 1.69477-2.14519.48193-5.5824.55425-8.45833.10257-4.0788.078-8.16281.01383-12.24313-.06135-3.90356 1.98462-6.0193 5.65664-6.47532 3.465-.43032 6.32358 2.246 6.45218 6.16875.18621 5.67876.27912 11.3795-.02014 17.04815-.18391 3.48354.52375 4.831 4.38419 4.59666 6.256-.37973 12.55231-.13857 18.83105-.09024 4.73164.03643 7.09009 2.06685 6.99977 5.87008-.08628 3.63268-2.32993 5.46907-6.89867 5.498-6.57091.04163-13.14728.16012-19.71116-.05836-2.8685-.09547-3.61768.72669-3.592 3.5843.14382 16.03254.012 32.0673.08885 48.10077.06182 12.90409 6.82212 17.954 19.35167 14.60886a16.388 16.388 0 0 0 2.88611-.99538c2.95973-1.425 5.73524-1.79274 7.36723 1.74149a6.68424 6.68424 0 0 1-3.31234 9.12976c-7.87905 3.1133-15.97157 3.66174-23.93944.683-9.78486-3.658-13.96848-11.56163-14.3963-21.45681-.37741-8.72926-.079-17.48758-.079-26.23307z"/><path fill="#020202" d="M321.93305 179.14752c3.92267-3.49407 7.02385-6.72369 10.96287-8.94834a34.90188 34.90188 0 0 1 18.32726-4.90955c3.31427.08394 4.537 2.00266 4.60148 5.11035.06614 3.18757-.38573 5.834-4.28748 6.34819-17.79872 2.34576-29.346 15.7061-29.56871 34.43388-.149 12.52809.024 25.05964-.05714 37.58895-.036 5.562-4.6494 8.55056-9.03651 6.04821-2.31685-1.32152-2.9595-3.42772-2.95837-5.91092.01123-25.05961-.02028-50.11927.03791-75.17875.00971-4.1803 2.37394-6.58787 5.97327-6.593 3.59839-.00516 5.82936 2.41267 5.99531 6.56891.06244 1.56333.01011 3.13125.01011 5.44207z"/><path d="M369.93678 211.30415q-.00044-18.1436.00728-36.28718c.00993-5.11292 2.20224-7.87852 6.12491-7.87211 3.92941.00641 6.06027 2.73936 6.06257 7.88609q.01637 36.5058-.00129 73.01162c-.00294 5.05337-1.88467 7.42438-5.85614 7.53875-4.17161.12012-6.31574-2.38048-6.3278-7.5528-.02863-12.24138-.00923-24.48291-.00953-36.72437z" class="cls-2"/><path d="M180.54452 36.75146c-1.11388 3.4527-3.92994 5.72172-6.21957 8.2157-18.69751 20.3663-33.46755 43.10684-42.90181 69.182-2.02544 5.5981-4.24 11.12867-6.4156 16.67154-.58156 1.48173-1.154 3.09734-3.25173 2.99548 2.04253-7.65568 3.88391-15.358 6.27039-22.93095 2.74484-8.71 7.10875-16.71442 10.38792-25.181l-.00413.01414c3.08644-3.33954 5.99323-6.78941 7.02643-11.39082l-.01911.013c2.34914-.0693 2.76975-1.58646 2.64658-3.5119l-.01573.00908c2.346-.0692 2.76778-1.58315 2.64321-3.50732l-.01174.00451c2.34962-.06508 2.76475-1.58287 2.64173-3.50481l-.01176.00454c2.35306-.06367 2.76142-1.58829 2.64472-3.50738l-.01636.01c2.62527-.29931 3.63747-1.8893 3.52025-4.38306l-.01207.0049c2.72143-.3132 3.66751-1.99847 3.51575-4.53224q.33874-.36562.67973-.7311c2.66915-.26583 4.085-1.83679 4.5779-4.37055l.00666.01375q.44061-.44009.88127-.88l-.00468.005q.44061-.44009.88127-.88l-.00456.00488q.44057-.44.88119-.87991l-.00449.00482q.44055-.44.88112-.87986l-.00444.00472q.44049-.43994.881-.87971l-.00432.00456q.44061-.44.88125-.8799l-.0048.00512q.441-.44045.882-.88073l-.0147-.00523a3.5205 3.5205 0 0 0 3.51926-3.50353l-.01081.01092q1.34154.02072 2.68278.04134z" class="cls-5"/><path d="M138.41412 85.70415c-3.27917 8.46663-7.64308 16.471-10.38792 25.18105-2.38648 7.57292-4.22786 15.27527-6.27039 22.93095-14.77074-2.57549-29.45814-3.08942-43.87822 1.94831-2.12588.74268-2.53594-.09071-2.5406-1.96071-.03575-14.36947-.10839-28.72357 1.54166-43.0495A295.06983 295.06983 0 0 0 78.6545 40.7561c-.3865-7.01947-1.48284-14.1661-5.66107-20.30576-.35824-.52642-.2109-1.39567-.29841-2.10567 5.207 4.25538 6.15594 10.512 6.87476 16.44114 1.98445 16.36867 1.15526 32.74447-.56762 49.13911a352.43277 352.43277 0 0 0-1.95489 46.60635c.07577 2.73637.56779 3.54315 3.54124 2.65734a77.66368 77.66368 0 0 1 36.29372-1.70354c3.747.67521 4.11666-.87064 4.69872-3.40588A166.1389 166.1389 0 0 1 135.48714 89.157c.68676-1.33814.86827-3.22491 2.92698-3.45285zM56.03887 20.097c.27 2.89487-2.19032 4.60585-3.08066 7.01587-.9513 2.57506-2.28132 5.01106-2.14615 7.86966-4.23548 11.41677-4.47113 23.47012-5.15736 35.36239a147.82891 147.82891 0 0 0 2.60292 37.20408c2.49876 12.63217 5.859 25.06306 11.313 36.82053-1.01781 1.87645-2.46006 2.9939-4.73169 2.63441 2.359-1.83428 2.207-3.97346 1.2542-6.597-5.21454-14.35876-9.69167-29.00582-11.09853-44.22474-.9886-10.69483-.64431-21.55781-.25123-32.3222.43417-11.88929 1.76477-23.73366 5.95517-35.02024 1.19764-3.22584 2.11997-6.70876 5.34033-8.74276zm-3.85954 238.898c1.78088-.36391 2.94833.65938 4.27845 1.63873 12.6802 9.33643 27.02929 13.59407 42.6873 14.16964 17.01437.62541 32.839-2.925 47.2126-12.28851 1.62842-1.06083 2.80239-3.158 5.2497-2.63576-5.53985 6.43883-13.139 9.69-20.83031 12.15435-23.31954 7.47188-46.18 6.37823-68.06548-5.35164-3.8444-2.06048-7.61829-4.31134-10.53226-7.68681z" class="cls-6"/><path d="M383.03717 148.24555a6.64863 6.64863 0 0 1-6.53935 6.744 6.66254 6.66254 0 1 1-.6344-13.30006 6.71163 6.71163 0 0 1 7.17375 6.55606z" class="cls-7"/><path d="M181.41179 134.73821c-2.99743-.92739-5.60264-2.90646-9.04225-2.68141-4.8552.31767-8.84715 3.00573-10.24843 7.41934-1.25164 3.94233.23771 8.00128 4.73265 10.53977 2.6312 1.486 3.23108 3.17432 3.17318 5.90055-.15386 7.24429-.05225 14.494-.05225 21.82432-2.18613-.20774-1.87824-1.97084-2.1807-2.99865-1.52573-5.1847-4.70545-9.60756-6.549-14.631 3.732 1.74226 4.09209 5.98581 6.96427 9.59031 0-5.68668-.04171-10.517.01908-15.346.027-2.1442-1.76219-2.41777-3.036-3.25331a10.34328 10.34328 0 0 1-4.77992-11.29752c.87457-4.74512 4.01953-7.605 8.57591-8.887 4.47255-1.25842 8.621-.60747 12.16891 2.57575.25361.22751.17739.82132.25455 1.24485zm-132.37605 18.0349c.28377 1.57433-.42726 2.7232-1.37363 3.9417a58.55882 58.55882 0 0 0-9.86723 18.32525c-.76909 2.44295-1.85 3.47087-4.56046 3.53077-7.12828.15752-11.5138 4.79714-11.37065 11.951.17674 8.83156-.847 17.70727.86292 26.48908-2.48443-1.51006-2.64654-3.95934-2.64474-6.48385.00487-6.8362-.0176-13.67246.00507-20.50858.0245-7.3899 4.75734-12.68809 12.28971-13.15453 2.5917-.16051 3.41172-1.2314 4.22728-3.32869 2.95907-7.60958 6.4301-14.95156 12.43173-20.76215zm135.87479-74.89887c-.391-2.501 1.53251-3.96672 2.68722-5.71454 5.047-7.63936 9.77247-15.43278 11.88872-24.46566 1.93628-8.26464-1.05962-13.77092-8.08361-15.05531-3.64692-.66686-6.56754 1.99574-10.00846 2.33945 2.44952-3.28138 7.72126-4.7856 12.26373-3.4993a10.8315 10.8315 0 0 1 7.92624 9.75793c.51883 6.47594-1.68172 12.29063-4.474 17.87368-3.34817 6.69459-6.70324 13.43786-12.19984 18.76375zm-2.63771 140.36721c2.60365-7.73132 1.31633-15.748 1.84642-23.635a25.40364 25.40364 0 0 0-3.59406-14.37232c4.15907 1.64785 5.05533 5.33952 5.17941 9.10035.23346 7.07633.08719 14.16586.05945 21.24975a10.47 10.47 0 0 1-3.49122 7.65722z" class="cls-6"/><path d="M180.53794 180.24609c-3.34493.19851-4.57516-1.35676-4.48648-4.68688.1766-6.63147.25181-13.27906-.01939-19.90417-.177-4.3241 1.60813-6.139 5.75662-6.03981-3.40927 1.93963-4.312 4.8344-4.03016 8.6777a130.49611 130.49611 0 0 1 .03256 14.77c-.11676 2.89607.25418 5.38543 2.74685 7.18316zM148.10207 145.244c-4.01334-.28688-6.41615-3.63927-9.78861-5.16358-.86217-.3897-.88294-1.47287-.46881-2.32169 3.03729-6.22534 5.98808-12.509 10.7651-17.6727.22753-.24594.82147-.15414 1.24476-.21962-2.97664 5.08294-5.87 10.21717-8.96423 15.22776-1.60587 2.60037-1.67547 4.26424 1.50518 5.68488 2.17495.97144 4.46327 2.14595 5.70661 4.46495zm13.13867 89.2679c.83714-4.68818 4.5669-7.91912 6.21061-12.21016a1.6779 1.6779 0 0 1 1.37126-.82943c4.70172.84639 8.596-1.99586 12.94345-2.72923-2.52777 3.34152-6.27735 4.12489-10.057 4.25363-2.45771.08369-3.56645 1.06983-4.57092 3.103-1.52114 3.07906-2.80751 6.39903-5.8974 8.41219zm-135.8953-14.88713c3.70905.27322 7.108 2.37664 10.97309 1.83525a1.74935 1.74935 0 0 1 1.47685.69631c1.88753 4.61832 5.81715 8.18208 6.84775 13.23115-3.07646-1.99685-4.40835-5.27679-5.90791-8.34859-1.23469-2.52923-2.53788-4.00981-5.76035-4.15821-2.6575-.12242-5.89425-.32952-7.62943-3.25591zM151.597 259.88911c.16584-2.70265 2.59757-3.72316 4.12695-5.35612 3.9174-4.18268 4.02105-4.67977.36324-8.97754a2.91666 2.91666 0 0 1-.98423-2.31586c6.33864 2.9998 7.22586 7.06372 2.40717 11.93285-1.75963 1.778-3.06965 4.2464-5.91313 4.71667z" class="cls-6"/><path d="M161.24834 160.1162c-4.15219-5.16835-9.829-8.99363-13.16024-14.88519 5.7361 3.77299 10.86353 8.08229 13.16024 14.88519zM72.71039 18.36005c-5.93523-2.98317-11.41675-1.64988-16.68133 1.74716a10.055 10.055 0 0 1 16.68133-1.74716zm109.56503 130.77226c.964-4.50738 2.92624-9.01415.00819-13.52388 4.72754 3.31457 4.72433 8.62225-.00819 13.52388zm-137.64333 86.2436c3.43986.71826 5.3764 3.5952 6.9959 6.05652 1.67468 2.54515-1.06908 2.69182-2.95593 2.70122 1.59157-1.43839.90249-2.55119-.3408-3.8489-1.41326-1.47516-3.472-2.52627-3.69917-4.90884zM145.43642 74.32747c-1.0332 4.60141-3.94 8.05128-7.02643 11.39082.57406-4.88359 4.16531-7.91283 7.02643-11.39082zM48.15668 244.62438c-.532 2.73379-3.1318 5.33809-.516 8.26863-2.02967.13777-2.9259-.97546-2.967-2.84441a5.305 5.305 0 0 1 3.483-5.42422zm113.9531-139.26733c.086-3.71029 2.174-5.6937 5.63052-6.49974-1.22693 2.72584-3.6203 4.44736-5.63052 6.49974zm6.13371-7.02605q-.08627-4.88746 4.76221-5.59846c-.99128 2.36978-3.00104 3.87868-4.76221 5.59846zm5.26116-6.115c-.176-3.155 1.49354-4.86495 4.40348-5.60371-.44013 2.67255-2.82962 3.81884-4.40348 5.60371z" class="cls-6"/><path d="M177.89524 86.62626c-.02919-2.99843 1.60994-4.60873 4.39626-5.26453-.5145 2.54601-2.48676 3.87918-4.39626 5.26453zm-9.67572-40.30111c-.49287 2.53376-1.90875 4.10472-4.5779 4.37055.92002-2.08812 2.07869-3.92924 4.5779-4.37055zm-5.25763 5.10165c.15176 2.53377-.79432 4.219-3.51575 4.53224.30198-2.18314 2.07975-3.22561 3.51575-4.53224zm-13.11841 68.45131c-.14752-2.51758.9651-4.02859 3.51839-4.38883-.31142 2.15097-1.84922 3.32236-3.51839 4.38883z" class="cls-6"/><path d="M153.34846 115.5038c-.075-2.6688 1.07209-4.26222 3.88362-4.394a9.10643 9.10643 0 0 1-3.88362 4.394zm4.3748-4.9248c-.17954-2.78929.90664-4.53715 3.89962-4.71864-.77878 2.00057-2.38655 3.32058-3.89962 4.71864zm-.00138 128.62348c-.2138-2.60671.83412-4.26971 3.52884-4.70105-.19433 2.30144-2.17753 3.26493-3.52884 4.70105zm1.73633-183.24834c.11722 2.49376-.895 4.08375-3.52025 4.38306.36083-2.11128 1.90415-3.27628 3.52025-4.38306zm18.41437-19.25504a3.5205 3.5205 0 0 1-3.51926 3.50353c.08002-2.26185 2.03868-2.64347 3.51926-3.50353zm-24.55122 27.13096c.123 1.92194-.29211 3.43973-2.64173 3.50481a4.54522 4.54522 0 0 1 2.64173-3.50481z" class="cls-6"/><path d="M155.95432 60.32722c.1167 1.91909-.29166 3.44371-2.64472 3.50738a4.57377 4.57377 0 0 1 2.64472-3.50738zM182.27841 81.376c-.15228-1.945.31406-3.42629 2.64207-3.51225-.10835 1.74958-1.22563 2.74299-2.64207 3.51225zm-34.21452-10.5474c.12317 1.92544-.29744 3.4426-2.64658 3.5119a4.65876 4.65876 0 0 1 2.64658-3.5119z" class="cls-6"/><path d="M150.69137 67.33036c.12457 1.92417-.2972 3.43812-2.64321 3.50732a4.56486 4.56486 0 0 1 2.64321-3.50732zm4.42303 175.92127c-.97589.00123-1.86829-.351-1.62233-1.43478.33677-1.48392 1.67366-1.26136 2.823-1.20029a3.86031 3.86031 0 0 0-1.20067 2.63507zM22.71576 216.99956a2.34416 2.34416 0 0 1 2.64187 2.63675 2.55363 2.55363 0 0 1-2.64187-2.63675zm157.82879-180.2481q-1.34134-.02067-2.68278-.04144a3.105 3.105 0 0 1 3.536-1.73436q-.42658.8879-.85322 1.7758zm-6.17655 3.4564q-.441.44034-.882.88073.44105-.44028.882-.88073zm-.87718.87561q-.44063.43992-.88126.8799.44066-.43988.88126-.8799zm-.87693.87534q-.44052.43982-.881.87971.44051-.43978.881-.87971zm-.87659.87499q-.44056.43991-.88112.87986.4406-.43986.88112-.87986zm-.87663.87504q-.44061.43991-.88119.87991.44064-.43986.88119-.87991zm-.87667.87503l-.88127.88q.44071-.43987.88127-.88zm-.87655.87501l-.88127.88q.44066-.43988.88127-.88zm13.18033 90.15603l-.883-.88131z" class="cls-6"/><path fill="#e6f3f3" d="M49.74429 213.53637c-3.861-9.92856-.97722-18.99113 4.39038-27.23371 8.30748-12.75713 20.701-19.892 35.46936-22.48975 17.99886-3.166 35.18506-.7933 50.32592 10.23683 10.20736 7.4361 16.6747 17.32559 17.75867 30.20552a18.42107 18.42107 0 0 1-1.66015 9.24754c-2.19068-1.06607-4.28393-2.37958-6.94059-1.37435-3.16464 1.1974-5.57846 3.03815-6.10507 6.57425-.57412 3.855 1.48321 6.52725 4.24158 8.827-1.68621 5.05271-6.53248 6.6244-10.53485 8.44045a79.03973 79.03973 0 0 1-42.86613 6.557c-10.536-1.2636-20.54749-3.54744-29.66924-9.16672a21.59671 21.59671 0 0 1-6.36718-5.8377c.54848-.45168 1.11325-.88492 1.64254-1.35771a8.20167 8.20167 0 0 0 1.32029-10.90249c-2.65061-3.46562-7.1459-4.17069-11.00553-1.72616zm39.72165 5.36315c1.13118 6.07149 5.45059 8.29982 9.85288 5.62189 2.31594-1.4088 3.69171-.99455 5.74457.14469 3.29731 1.82983 5.52226 1.26427 7.57407-1.31774-.7374-.45062-1.35359.03643-2.04422.20691-5.16883 1.276-8.60618-1.96226-7.79576-7.11783.3514-2.2354 2.40654-2.77326 3.533-4.21007 1.04163-1.32858 2.89067-2.36254 2.15972-4.42935a5.31653 5.31653 0 0 0-4.289-3.33864c-3.45688-.72074-6.68383.00155-8.40207 3.11316-1.77418 3.21292 1.58195 4.447 3.36175 6.17621.10392.101.23777.17076.34517.26874a5.53159 5.53159 0 0 1 .6896 7.80823 4.93976 4.93976 0 0 1-7.7083.71265 30.47985 30.47985 0 0 1-3.02141-3.63885zm44.52294-24.99773a6.154 6.154 0 0 0-6.302 6.30509 6.34953 6.34953 0 0 0 12.69834-.10777 6.11845 6.11845 0 0 0-6.39634-6.19732zm-56.8302 6.28521a6.15632 6.15632 0 0 0-6.33065-6.28365 6.3081 6.3081 0 0 0-6.46664 6.218 6.41459 6.41459 0 0 0 6.39329 6.34031 6.32743 6.32743 0 0 0 6.404-6.27466z"/><path d="M103.89375 253.46415c-16.075-.28179-30.25825-3.056-42.643-11.81471-13.22459-9.3527-20.314-22.26063-21.1-38.40657-1.0102-20.75123 4.85521-38.8449 21.341-52.55722a55.51222 55.51222 0 0 1 14.2738-8.38969c2.15462-.9009 2.88506-.49808 2.85181 1.84472-.07864 5.53845-.1386 11.08215.02729 16.61676.07115 2.37387-1.443 2.89478-3.07049 3.57278A54.77287 54.77287 0 0 0 52.946 181.016c-15.39089 19.61155-10.58755 44.51212 11.12923 56.69868 14.78578 8.29717 30.92919 9.91959 47.5041 8.624 10.41573-.81411 20.43973-3.20156 29.65924-8.33534 22.18065-12.35111 27.05323-37.98862 10.95083-57.6589a53.72272 53.72272 0 0 0-21.688-15.81155c-2.51066-1.02215-3.63721-2.20287-3.469-5.04323.26663-4.5034.06567-9.03407.07253-13.55317.00743-4.897.02776-4.93034 4.6989-2.79327 16.60516 7.59686 27.17529 20.399 31.578 37.93714 4.67757 18.633 3.574 36.58479-9.5006 52.00145-10.69457 12.61026-25.14886 17.94221-41.15155 19.76879-3.33163.38028-6.69644.47051-8.83593.61355z" class="cls-9"/><path d="M64.12492 141.379c-5.48617-22.9422-10.23646-45.98891-9.70965-69.75875.17423-7.861.88139-15.72218 3.697-23.15511 1.30594-3.44752 2.579-8.13613 7.19661-7.56041 4.41972.551 4.17784 5.35354 4.81242 8.8151 1.53365 8.36578.93344 16.83623.91673 25.266-.03781 19.06767-.4393 38.13828-.17292 57.20046.07089 5.07348-1.25139 7.99478-6.74019 9.19271z" class="cls-10"/><path fill="#545454" d="M102.55034 269.54734c-17.42409-.50486-33.43964-4.79022-46.48064-17.03146-.93547-.87812-4.02592-1.78782-1.71126-3.8549 1.832-1.63609 2.94685-4.79914 7.079-2.57148 27.58229 14.87 55.38435 14.82567 82.94845-.086 3.9118-2.11619 4.95859.90618 6.73554 2.47374 2.54324 2.24355-.62291 3.23471-1.63719 4.17563-13.22565 12.26932-29.39454 16.51838-46.9339 16.89447z"/><path d="M185.9805 58.74743c-.36392 2.61064-1.85594 4.96511-3.30656 7.31192a190.27818 190.27818 0 0 1-14.15554 19.424 322.80854 322.80854 0 0 0-32.31483 48.75114c-1.98025 3.63445-3.81324 3.4635-6.84285 2.10759-1.64743-.73732-2.14525-1.39785-1.37026-3.14692 9.73411-21.96889 18.95142-44.22931 35.21423-62.522 5.13943-5.78093 10.39294-11.5245 17.698-14.6764 3.55498-1.53386 5.2382-.54142 5.07781 2.75067z" class="cls-10"/><path d="M82.43306 150.7q-.00007-1.96467-.00005-3.92931c0-7.13886-.01178-7.21118 6.94037-8.3433a82.1227 82.1227 0 0 1 30.41213.68572c2.54186.53615 3.65006 1.46454 3.50568 4.28943-.26707 5.22549-.15437 10.476-.03929 15.71255.04811 2.18836-.40658 2.65057-2.69044 2.05155a69.94434 69.94434 0 0 0-35.00793-.18965c-2.288.56544-3.45246.41224-3.1744-2.42364.2544-2.5947.05397-5.23382.05393-7.85335z" class="cls-7"/><path d="M59.57063 144.36952c-5.454-11.75747-8.81425-24.18836-11.313-36.82053a147.82891 147.82891 0 0 1-2.60293-37.20407c.68623-11.89227.92188-23.94562 5.15736-35.36238 1.94485 3.83443-.01008 7.67559-.35565 11.38654-1.61681 17.36236-2.65848 34.6.77505 51.92836 2.83824 14.32412 5.67185 28.64346 8.90128 42.88419.2627 1.15842.57826 2.29177-.56211 3.18789z" class="cls-5"/><path d="M27.95636 194.92211c.00092-1.73715-.054-3.47637.01175-5.211.16412-4.32833 3.84223-6.94476 8.09962-5.99792 1.51642.33725 1.311 1.06038 1.12868 2.14661a66.56948 66.56948 0 0 0-1.24249 15.10875c.20092 3.26373-2.063 2.55828-3.76307 2.46862-1.72039-.09071-4.42382 1.18281-4.2526-2.4358.09568-2.0222.01719-4.05257.01811-6.07926zm149.97277.25215q.00137 1.74855.0007 3.49712c-.00559 4.512-2.51049 6.21768-6.76542 4.7776-1.65814-.56119-1.24508-1.7544-1.20475-2.82259a67.25712 67.25712 0 0 0-1.22732-14.341c-.34873-1.958-.05958-2.52846 1.97766-2.588 4.62707-.13527 7.09347 2.0179 7.21172 6.66852.04075 1.6018.00648 3.20551.00741 4.80835z" class="cls-9"/><path fill="#e1d5d1" d="M147.22439 227.5297c-2.75837-2.29975-4.8157-4.972-4.24158-8.827.52661-3.5361 2.94043-5.37685 6.10507-6.57425 2.65666-1.00523 4.74991.30828 6.94059 1.37435-.97979 5.89808-3.06715 11.10377-8.80408 14.0269zm-97.4801-13.99333c3.85963-2.44453 8.35492-1.73946 11.00553 1.72616a8.20167 8.20167 0 0 1-1.32029 10.90247c-.52929.47279-1.09406.906-1.64254 1.35771a18.75823 18.75823 0 0 1-8.0427-13.98634z"/><path fill="#5f5f5f" d="M170.57211 216.017c-.88522-.45324-2.91273 1.08767-2.66527-1.86035.52647-6.27163 1.18717-7.36146 5.80127-7.30414 2.02272.0251 4.56-.847 4.295 2.94-.28453 4.06694-2.59736 6.24113-7.431 6.22449zm-135.83511.01031c-4.78508-.17308-6.90355-2.32892-6.95385-6.371-.0571-4.58882 3.35082-2.5813 5.32494-2.74621 5.73024-.47871 3.538 4.56317 4.42857 7.17086.95239 2.78884-1.93756 1.44694-2.79966 1.94635z"/><path d="M172.62637 146.24617c-2.862-.16312-4.84365-1.57836-4.79063-4.4938.05307-2.91753 2.14194-4.373 4.96029-4.33372 2.97869.04153 5.1902 1.50138 5.0099 4.71094-.16593 2.95311-2.37464 4.06998-5.17956 4.11658z" class="cls-9"/><path fill="#2f3d3b" d="M89.46594 218.89952a30.47985 30.47985 0 0 0 3.0214 3.63885 4.93976 4.93976 0 0 0 7.7083-.71265 5.53159 5.53159 0 0 0-.6896-7.80823c-.1074-.098-.24125-.16776-.34517-.26874-1.7798-1.72925-5.13593-2.96329-3.36175-6.17621 1.71824-3.11161 4.94519-3.8339 8.40207-3.11316a5.31653 5.31653 0 0 1 4.289 3.33864c.731 2.06681-1.11809 3.10077-2.15972 4.42935-1.12648 1.43681-3.18162 1.97467-3.533 4.21007-.81042 5.15557 2.62693 8.39385 7.79576 7.11783.69063-.17048 1.30682-.65753 2.04452-.20424-2.05211 2.57934-4.27706 3.1449-7.57437 1.31507-2.05286-1.13924-3.42863-1.55349-5.74457-.14469-4.40228 2.67793-8.72169.44959-9.85287-5.62189zm44.52294-24.99773a6.11845 6.11845 0 0 1 6.39636 6.19732 6.34953 6.34953 0 0 1-12.69834.10777 6.154 6.154 0 0 1 6.30198-6.30509zm-56.8302 6.28521a6.32743 6.32743 0 0 1-6.404 6.27465 6.41459 6.41459 0 0 1-6.39329-6.34031 6.3081 6.3081 0 0 1 6.46664-6.218 6.15632 6.15632 0 0 1 6.33065 6.28366z"/><circle cx="72.668" cy="197.93" r="1.702" class="cls-15"/><circle cx="135.881" cy="197.781" r="1.702" class="cls-15"/></svg>