<svg xmlns="http://www.w3.org/2000/svg" role="img" viewBox="-21.64 -21.64 1125.28 1118.28"><title>Union.ai logo</title><defs><style>.cls-1{fill:#fcb51f}</style></defs><path d="M397.81 1076C178.81 1076 0 906.35 0 683.68V295.9h218.12v526.53c0 24.23 13.41 37.86 37.25 37.86h284.87c23.84 0 37.25-13.63 37.25-37.86V295.9h218.13v387.78c0 222.67-178.79 392.32-397.81 392.32" class="cls-1"/><path d="M684.61 0c219 0 397.81 169.65 397.81 392.32v387.79H864.3V253.57c0-24.23-13.41-37.86-37.25-37.86H542.18c-23.84 0-37.25 13.63-37.25 37.86v526.54H286.8V392.32C286.8 169.65 465.59 0 684.61 0" class="cls-1"/></svg>