<svg xmlns="http://www.w3.org/2000/svg" role="img" viewBox="-6.83 -6.83 354.90 129.90"><title>Unity Catalog logo</title><g clip-path="url(#clip0_94_1441)"><path fill="#163357" d="M148.212 52.2801c-3.324 0-6.288-.696-8.892-2.096-2.604-1.396-4.656-3.312-6.144-5.748-1.492-2.436-2.236-5.2-2.236-8.296V9.40405h8.78V35.5721c0 1.66.368 3.164 1.104 4.5.736 1.34 1.744 2.388 3.028 3.144 1.284.756 2.736 1.132 4.36 1.132s3.124-.376 4.388-1.132c1.264-.756 2.264-1.804 3-3.144.736-1.34 1.104-2.84 1.104-4.5V9.40405h8.78V36.1361c0 3.096-.748 5.864-2.236 8.296-1.492 2.436-3.54 4.352-6.144 5.748-2.604 1.4-5.568 2.096-8.892 2.096v.004zm50.132-26.708c-.984-1.756-2.348-3.124-4.108-4.108-1.756-.98-3.804-1.472-6.144-1.472-2.152 0-4.028.444-5.636 1.328-1.312.724-2.312 1.792-3.028 3.16v-3.808H171.5v30.924h8.496v-18.068c0-1.208.236-2.248.708-3.116.472-.868 1.14-1.548 2.012-2.04.868-.488 1.848-.736 2.944-.736 1.096 0 2.124.248 2.972.736.852.492 1.512 1.172 1.984 2.04.472.868.708 1.908.708 3.116v18.068h8.496v-19.88c0-2.34-.492-4.388-1.472-6.144h-.004zm6.848-7.672V9.40405h8.496v8.49605h-8.496zm0 33.7v-30.924h8.496v30.924h-8.496zm28.984.34c-3.74 0-6.636-1.008-8.696-3.028-2.06-2.02-3.088-4.844-3.088-8.468v-12.404h-5.212v-7.364h.284c1.584 0 2.804-.396 3.652-1.192.848-.792 1.272-1.984 1.272-3.568v-2.264h8.496v7.024h7.252v7.364h-7.252v11.836c0 1.06.188 1.936.568 2.636.376.7.964 1.216 1.756 1.556.792.34 1.776.5079 2.948.5079.264 0 .564-.02.904-.0559.34-.036.696-.0761 1.076-.112v7.192c-.568.076-1.208.148-1.928.228-.716.076-1.396.112-2.036.112h.004zM265 20.6761l-7.304 19.896-7.304-19.896h-9.12l12.184 30.912-.572 1.312c-.452.98-1.04 1.86-1.756 2.636-.716.772-1.908 1.16-3.568 1.16-.604 0-1.264-.056-1.984-.172-.716-.116-1.34-.2441-1.868-.3961v6.9681c.64.34 1.388.584 2.236.736.852.152 1.728.2279 2.636.2279 1.888 0 3.596-.348 5.124-1.0479 1.528-.7001 2.896-1.764 4.108-3.2 1.208-1.436 2.228-3.212 3.06-5.324l13.252-33.812H265zM150.652 104.636c-3.02 0-5.824-.548-8.412-1.644-2.588-1.096-4.844-2.624-6.768-4.5879-1.924-1.964-3.428-4.268-4.504-6.908-1.076-2.644-1.616-5.532-1.616-8.668 0-3.136.528-6.032 1.588-8.692 1.056-2.664 2.548-4.964 4.472-6.908 1.924-1.944 4.18-3.456 6.768-4.532 2.584-1.076 5.408-1.612 8.468-1.612 3.06 0 5.804.508 8.24 1.528s4.5 2.38 6.2 4.08c1.7 1.7 2.908 3.588 3.624 5.664l-7.76 3.736c-.72-2.04-1.976-3.728-3.768-5.068-1.792-1.34-3.976-2.012-6.544-2.012-2.568 0-4.68.584-6.568 1.756-1.888 1.172-3.352 2.784-4.388 4.844-1.04 2.06-1.556 4.464-1.556 7.22 0 2.756.52 5.172 1.556 7.248 1.036 2.076 2.5 3.7 4.388 4.872 1.888 1.172 4.08 1.756 6.568 1.756 2.488 0 4.748-.672 6.544-2.012 1.792-1.34 3.048-3.032 3.768-5.072l7.76 3.74c-.716 2.076-1.924 3.964-3.624 5.664-1.7 1.6999-3.768 3.0599-6.2 4.0799-2.436 1.02-5.184 1.528-8.24 1.528h.004zm69.268-.34c-3.74 0-6.636-1.008-8.696-3.028-2.06-2.0199-3.088-4.8439-3.088-8.4679v-12.404h-5.212v-7.364h.284c1.584 0 2.804-.396 3.652-1.192.848-.792 1.272-1.984 1.272-3.568v-2.264h8.496v7.024h7.252v7.364h-7.252v11.836c0 1.06.188 1.936.568 2.636.376.7.964 1.216 1.756 1.556.792.34 1.776.508 2.948.508.264 0 .564-.02.904-.056.34-.036.696-.076 1.076-.112v7.1919c-.568.076-1.208.148-1.928.228-.716.076-1.396.112-2.036.112h.004zm-26.336-30.5279c-2-.944-4.304-1.416-6.908-1.416-2.192 0-4.212.34-6.06 1.02-1.852.68-3.436 1.644-4.76 2.888-1.324 1.244-2.284 2.74-2.888 4.472l6.796 3.228c.528-1.356 1.368-2.456 2.52-3.284 1.152-.828 2.484-1.244 3.992-1.244 1.584 0 2.84.396 3.768 1.192.924.792 1.388 1.776 1.388 2.944v.828l-8.552 1.384c-2.456.376-4.504 1.02-6.144 1.924-1.64.904-2.86 2.032-3.652 3.368-.792 1.34-1.192 2.88-1.192 4.616 0 1.852.436 3.448 1.304 4.7839.868 1.34 2.116 2.368 3.74 3.088 1.624.716 3.548 1.076 5.776 1.076 1.66 0 3.172-.216 4.532-.652 1.36-.432 2.584-1.096 3.68-1.984.372-.3.728-.64 1.076-.992v2.948h7.928V83.5681c0-2.228-.556-4.184-1.672-5.864-1.116-1.68-2.672-2.992-4.672-3.936zm-3.028 21.268c-.584 1.04-1.408 1.86-2.464 2.464-1.056.604-2.284.904-3.68.904-1.056 0-1.944-.264-2.66-.792-.72-.528-1.076-1.264-1.076-2.208 0-1.02.32-1.804.964-2.352.64-.548 1.568-.932 2.776-1.16l7.024-1.256v.972c0 1.248-.292 2.388-.88 3.428h-.004zm63.432-17.332c-1.112-1.68-2.672-2.992-4.672-3.936-2-.944-4.304-1.416-6.908-1.416-2.192 0-4.212.34-6.06 1.02-1.852.68-3.436 1.644-4.76 2.888-1.324 1.244-2.284 2.74-2.888 4.472l6.796 3.228c.528-1.356 1.368-2.456 2.52-3.284 1.152-.828 2.484-1.244 3.992-1.244 1.584 0 2.84.396 3.768 1.192.924.792 1.388 1.776 1.388 2.944v.828l-8.552 1.384c-2.456.376-4.504 1.02-6.144 1.924-1.64.904-2.86 2.032-3.652 3.368-.792 1.34-1.192 2.88-1.192 4.616 0 1.852.436 3.448 1.304 4.7839.868 1.34 2.116 2.368 3.74 3.088 1.624.716 3.548 1.076 5.776 1.076 1.66 0 3.172-.216 4.532-.652 1.36-.432 2.584-1.096 3.68-1.984.372-.3.728-.64 1.076-.992v2.948h7.928V83.5681c0-2.228-.556-4.184-1.672-5.864zm-7.7 17.332c-.584 1.04-1.408 1.86-2.464 2.464-1.056.604-2.284.904-3.68.904-1.056 0-1.944-.264-2.66-.792-.72-.528-1.076-1.264-1.076-2.208 0-1.02.32-1.804.964-2.352.64-.548 1.568-.932 2.776-1.16l7.024-1.256v.972c0 1.248-.292 2.388-.88 3.428h-.004zm14.388 8.9199V66.7241l8.496-4.524v41.7559h-8.496zm29.308.68c-3.06 0-5.844-.696-8.352-2.096-2.512-1.396-4.512-3.3119-6.004-5.7479-1.492-2.436-2.236-5.2-2.236-8.296 0-3.096.744-5.908 2.236-8.328 1.492-2.416 3.492-4.324 6.004-5.72 2.512-1.396 5.296-2.096 8.352-2.096s5.832.7 8.328 2.096c2.492 1.4 4.484 3.304 5.976 5.72s2.236 5.192 2.236 8.328c0 3.136-.748 5.864-2.236 8.296-1.492 2.436-3.484 4.3519-5.976 5.7479-2.492 1.4-5.268 2.096-8.328 2.096zm0-7.6479c1.548 0 2.896-.356 4.048-1.076 1.152-.716 2.06-1.716 2.72-3 .66-1.284.992-2.756.992-4.416 0-1.66-.332-3.124-.992-4.388-.66-1.264-1.568-2.268-2.72-3-1.152-.736-2.5-1.104-4.048-1.104s-2.908.368-4.08 1.104c-1.172.736-2.088 1.736-2.748 3-.66 1.264-.992 2.728-.992 4.388 0 1.66.332 3.132.992 4.416.66 1.284 1.576 2.288 2.748 3 1.172.72 2.532 1.076 4.08 1.076zm43.496-23.956v3.264c-.936-1.1-1.988-1.98-3.172-2.612-1.66-.888-3.608-1.332-5.832-1.332-2.832 0-5.364.644-7.588 1.924-2.228 1.284-3.984 3.048-5.268 5.296-1.284 2.248-1.928 4.824-1.928 7.732 0 2.908.644 5.504 1.928 7.788 1.284 2.284 3.056 4.08 5.324 5.3799 2.268 1.304 4.832 1.956 7.704 1.956 2.228 0 4.172-.424 5.832-1.276.904-.464 1.712-1.068 2.436-1.7919v2.9519c0 1.324-.276 2.472-.82 3.456-.548.98-1.332 1.728-2.352 2.236-1.02.512-2.228.764-3.624.764-1.776 0-3.304-.416-4.588-1.244-1.284-.832-2.136-1.964-2.548-3.4l-7.872 2.776c.644 1.924 1.688 3.596 3.144 5.012 1.452 1.416 3.2 2.52 5.24 3.312 2.04.792 4.248 1.188 6.628 1.188 2.984 0 5.616-.604 7.9-1.812 2.284-1.208 4.088-2.88 5.408-5.012 1.32-2.132 1.984-4.56 1.984-7.276V73.0321h-7.936zm-1.444 18.236c-.584 1.096-1.408 1.948-2.464 2.548-1.056.604-2.304.904-3.736.904-1.432 0-2.712-.312-3.824-.9361-1.116-.624-1.984-1.4799-2.608-2.5759-.624-1.096-.932-2.36-.932-3.796s.312-2.768.932-3.88c.624-1.112 1.492-1.9841 2.608-2.604 1.112-.624 2.388-.936 3.824-.936s2.624.312 3.68.936c1.056.624 1.888 1.492 2.492 2.604.604 1.112.904 2.408.904 3.88s-.292 2.756-.88 3.852l.004.004zM55.684 37.884l-16.62 9.596v19.192l16.62 9.596 16.62-9.596V47.48l-16.62-9.596z"/><path fill="#FFBC00" d="M90.7158 36.848h19.1162l-9.56-16.552-9.5562 16.552zm0 40.4519l9.5562 16.556 9.56-16.556H90.7158zM46.1238 114.08h19.116l-9.556-16.552-9.56 16.552zM1.53589 77.2999l9.55601 16.556 9.56-16.556H1.53589zm0-40.4519H20.6519l-9.56-16.552-9.55601 16.552zM46.1238.068l9.56 16.556L65.2398.068h-19.116z"/><path fill="#F43BA6" d="M73.9201 3.3108l-11.092 19.2119L82.04 33.6147l11.092-19.2119-19.2119-11.092zM111.364 45.984H89.1802v22.184h22.1838V45.984zM82.0351 80.5334l-19.2119 11.092 11.092 19.2116 19.2119-11.0917-11.092-19.2119zm-52.7043.0037L18.2388 99.749l19.2119 11.092 11.092-19.2119-19.2119-11.092zM22.184 45.98H0v22.184h22.184V45.98zM37.4448 3.30253L18.2329 14.3945l11.092 19.2119 19.2119-11.092-11.092-19.21187z"/></g><defs><clipPath id="clip0_94_1441"><path fill="#fff" d="M0 0h341.408v116.348H0z" transform="translate(0 .068)"/></clipPath></defs></svg>