<svg xmlns="http://www.w3.org/2000/svg" role="img" viewBox="-4.70 -4.70 244.40 119.40"><title>Univa logo</title><style>svg {enable-background:new 0 0 235.1 110.2}</style><path fill="#ef3e42" d="M117.6 0C74.8 0 34.7 2.6 0 7.2v95.7c34.7 4.6 74.8 7.2 117.6 7.2s82.9-2.6 117.5-7.2V7.2C200.4 2.6 160.3 0 117.6 0z"/><path fill="#fff" d="M196.7 28.7L220 80.4h-7.2l-3.9-8.6h-25.3l-3.3 8.6h-6.5l19.9-51.6h3zm-1.6 12.7L186 65.6h20.1l-11-24.2zm-61.4-12.7h7.1L157.5 70l15.7-41.3h6.6l-20.2 51.6h-4.5l-21.4-51.6zm-13.3 0h6.7v51.6h-6.7V28.7zm-53.1 0H74l26.9 40.6V28.7h6.7v51.6h-6.7l-27-40.6v40.6h-6.7V28.7zM49.2 72.4V28.7H56v42.6c0 5.9-4.2 9-9.3 9H25.1c-5.2 0-9.3-3.1-9.3-9V28.7h6.8v43.7c0 1.1.4 1.8 1.6 1.8h23.6c1 0 1.4-.7 1.4-1.8z"/></svg>