<svg xmlns="http://www.w3.org/2000/svg" role="img" viewBox="9.14 -8.86 980.72 299.72"><title>Vespa logo</title><defs><linearGradient id="linear-gradient" x1="28.303" x2="132.048" y1="177.493" y2="177.493" gradientUnits="userSpaceOnUse"><stop offset="0" stop-color="#1a7db6"/><stop offset="1" stop-color="#005a8e"/></linearGradient><linearGradient id="linear-gradient-2" x1="170.687" x2="276.192" y1="104.4" y2="104.4" gradientUnits="userSpaceOnUse"><stop offset="0" stop-color="#da9728"/><stop offset="1" stop-color="#ffc43c"/></linearGradient><style>.cls-1{fill:none}.cls-2{fill:#333}</style></defs><path d="M175.66585 11.13571c-1.44563-.98092-2.99353-1.72576-4.97833-.71567-18.66331 12.45445-36.87507 25.70215-55.75881 37.7696 18.88374-12.06732 37.09525-25.31478 55.75807-37.76811 1.9853-1.01121 3.53332-.26674 4.97907.71418zm38.22996 85.2269c2.21827-1.45978 4.42041-2.9455 6.63422-4.4126-2.21381 1.4671-4.41607 2.95282-6.63447 4.41247q-21.46618 15.15078-42.93088 30.30006 21.46358-15.14854 42.93113-30.29993zM68.53872 109.85458C58.86183 103.22 49.18494 96.58528 38.8831 89.5221a1684937.58176 1684937.58176 0 0 1 29.65575 20.33322z" class="cls-1"/><path d="M771.4894 72.0815c-10.20739 3.25008-17.53754 10.37917-24.76952 19.07477-.95213-19.87187-.95213-19.872-20.16715-19.87087-2.71.00012-5.43459.18158-8.12713-.03488-5.20981-.41866-7.14683 1.67661-7.13318 7.01439q.20517 80.73419.08863 161.46936c.00049 3.03982-.39992 6.26744 4.15044 6.59735 16.9332 1.22742 31.42819-.99854 31.4967-24.96935.03352-11.72649.00584-23.45322.00584-38.03435 15.23983 19.76177 32.86586 24.64279 53.38551 20.34973 19.47418-4.07436 31.15847-16.98508 36.978-35.2728a100.28762 100.28762 0 0 0-.18345-62.87735C827.8703 77.12934 799.638 63.119 771.4894 72.0815zm27.781 91.02516c-10.82848 17.19745-34.40111 17.571-45.59748.687-9.46192-14.26835-9.14864-39.8043.66032-53.82366a26.65708 26.65708 0 0 1 43.29542-.6803c5.97191 7.89614 7.62519 17.09716 8.1249 28.65273-.27356 7.49674-1.23223 16.8251-6.48312 25.16423z" class="cls-2"/><path fill="#1c7db5" d="M235.836 173.36928c-.134-27.18092-.226-54.36209-.47265-81.542-.02246-2.47893 1.57385-5.91817-1.285-7.32345-2.71885-1.3364-4.67647 1.81935-6.84534 3.14607-2.26408 1.3848-4.4893 2.83316-6.703 4.30013s-4.416 2.95282-6.63422 4.4126q-21.46656 15.15058-42.93113 30.29993-19.48523 14.078-38.96972 28.156.0257 58.9338.05275 117.86735v.00013c1.67538-1.12093 3.34094-2.25787 5.01309-3.38414q12.92964-8.708 25.8048-17.50477c17.104-11.63253 55.361-38.2752 72.97041-49.08568"/><path d="M932.62971 145.87346c-11.33216 1.4141-22.9951.01813-34.04687 3.66105-6.14779 2.02651-10.51421 5.975-10.96153 12.99884-.38192 5.99549 2.25848 10.39965 7.35187 13.32267q.72443.41574 1.46623.77364a24.05487 24.05487 0 0 0 11.1116 2.32328c12.84853.21771 23.06758-6.03186 27.3887-15.42564q.37515-.81546.69507-1.65948a24.05926 24.05926 0 0 0 1.02908-3.488q.19214-.8998.31427-1.82717a26.23533 26.23533 0 0 0 .09694-5.84233c-.28635-3.07373-.56276-5.32142-4.44536-4.83686z" class="cls-1"/><path d="M932.6297 145.87348c-11.33215 1.41406-22.99506.01812-34.04688 3.661-6.14776 2.02655-10.51416 5.975-10.96154 12.99884-.3819 5.99554 2.25854 10.39965 7.35193 13.32269q.72437.41574 1.46618.77362a24.05515 24.05515 0 0 0 11.11164 2.3233c12.84851.21772 23.06756-6.03186 27.38867-15.42566q.37518-.81546.69507-1.65948a24.06673 24.06673 0 0 0 1.02911-3.488q.19208-.89986.31427-1.82721a26.23539 26.23539 0 0 0 .09692-5.84234c-.28637-3.07364-.56274-5.32132-4.44537-4.83676z" class="cls-1"/><path d="M971.56689 111.01721c-.0418-11.8789-5.02349-21.62-14.06549-29.16558-21.28784-17.76532-64.3354-17.17737-85.23272 1.20737a44.34363 44.34363 0 0 0-7.81067 9.25617c-3.3078 5.13989-7.15662 13.41028-4.715 18.98962l32.51672.03992c5.631-17.56879 29.06989-18.57562 38.45221-10.51862 6.0221 5.17121 7.675 12.38306 5.88056 19.42115-1.70624 6.69207-8.60761 3.65917-13.15967 4.03405-15.13995 1.24665-30.46637.88483-45.04578 6.13782-17.76495 6.40076-26.61743 18.30548-26.4248 35.42761.19177 17.04041 10.175 30.85663 27.26892 36.28845 22.42712 7.12659 41.758 1.9441 57.72491-16.7752 3.80213 13.44635 12.65625 18.74054 25.89032 18.5047 6.43335-.11457 8.97284-1.65662 8.89155-8.55609-.33164-28.0938-.07236-56.19408-.17106-84.29137zm-34.58874 45.5354q-.12122.92735-.31427 1.82721a24.06673 24.06673 0 0 1-1.02911 3.488q-.31907.844-.69507 1.65948c-4.32111 9.3938-14.54016 15.64338-27.38867 15.42566a24.05515 24.05515 0 0 1-11.11164-2.3233q-.74166-.358-1.46618-.77362c-5.09339-2.923-7.73383-7.32715-7.35193-13.32269.44738-7.02381 4.81378-10.97229 10.96154-12.99884 11.05182-3.64289 22.71473-2.24695 34.04688-3.661 3.88263-.48456 4.159 1.76312 4.44537 4.83679a26.23539 26.23539 0 0 1-.09692 5.84231zM496.54 70.61415c-29.01876 5.2262-44.772 26.41759-48.045 60.8851-5.30079 55.82112 43.45107 90.91481 94.97776 68.34942 12.61308-5.52359 22.09188-14.30173 27.218-27.24149 1.18782-2.99812 3.50964-8.58663-.87964-9.24781-6.47779-.97579-24.66563-.49785-24.66563-.49785s-12.44488 21.01066-39.43864 15.20731c-12.22026-2.62721-18.93489-11.0154-21.77686-22.82-1.56367-6.4947-.30571-9.98384 7.72709-9.559 3.04044.16086 6.08449.25184 9.131.29764 9.13946.13765 18.30063-.13008 27.44753-.13169 12.53451-.002 25.07026-.1024 37.60316.04642 5.16252.06132 8.306-1.193 8.46784-7.23893C575.60788 90.03869 544.343 62.00519 496.54 70.61415zm37.3157 52.90033c-14.85829-.23334-29.72352-.17377-44.58379-.02271-4.35389.04419-6.04949-.84017-4.834-5.75135a28.52571 28.52571 0 0 1 27.96374-22.01033c13.027.07782 23.84793 8.764 26.41039 20.83975.95184 4.4857.68933 7.03326-4.95639 6.94464zm58.92283 39.52578c-10.27888.11183-10.968 1.26416-7.707 11.35636a39.54586 39.54586 0 0 0 15.64747 20.59759c21.01265 14.66578 61.18261 14.48853 81.99369-.28113 13.44481-9.54185 18.80865-22.64061 16.42307-38.79868-2.167-14.67694-12.467-21.66689-25.49053-25.70377-4.82107-1.4944-9.77694-2.54855-14.6417-3.90891-10.06378-2.81442-20.6707-3.53866-30.34077-7.85568-4.59716-2.05245-8.338-5.18151-8.21252-10.51805.13107-5.5715 3.75388-9.18935 8.72489-11.4286 12.52284-5.64114 27.09925-1.51427 33.20273 10.11416 1.96246 3.73887 4.15566 4.778 7.82316 4.73034 6.431-.08353 12.87013-.197 19.29408.03066 5.51962.19549 7.21585-2.061 6.22351-7.40314a37.14369 37.14369 0 0 0-14.63822-23.525c-20.71824-15.72117-60.73789-15.27012-81.25133.80889-19.90389 15.60139-18.08851 46.35374 3.56572 59.26495 7.02482 4.18856 14.79039 6.42756 22.71781 8.33541 10.15128 2.44317 20.70744 3.49087 30.33456 7.79808 9.488 4.24491 10.78082 12.82185 3.18406 19.08358-8.83164 7.27927-29.32316 5.65722-37.55473-1.89352-7.23812-6.63946-5.4548-8.76183-8.7685-10.06643" class="cls-2"/><path fill="#fdc33d" d="M68.53872 109.85458l.00013.00074.001.00062q16.54191 12.22626 33.08581 24.45252 15.18485 10.255 30.36894 20.50984l.00037.00025q19.48412-14.078 38.96972-28.156l-.002.00136q-.13647-58.12186-.27591-116.24237c-18.66278 12.45332-36.87433 25.70078-55.75807 37.7681-6.29463 4.02248-38.331 25.92854-44.81649 29.61565"/><path d="M450.35849 71.34832C431.92 65.905 417.58931 73.89589 412.41227 92.6153c-6.917 25.01093-13.96971 49.98425-20.96412 74.97371q-1.0212.07484-2.04228.14993c-1.05427-3.38363-2.199-6.7422-3.14818-10.15512-6.32279-22.73668-12.55312-45.4993-18.91825-68.22407-3.62219-12.93231-9.99129-17.78913-23.31011-18.06132-3.72013-.076-7.45614.18779-11.16174-.05561-6.89115-.45242-8.06222 2.20127-5.85872 8.4697q20.62094 58.66161 40.75854 117.49239c1.4846 4.3174 3.41169 6.80426 8.545 6.59127 9.11923-.37844 18.27432-.347 27.3964-.0062 4.6262.1729 6.72842-1.92721 8.087-5.86815q20.59356-59.73493 41.221-119.45795c.96574-2.80921 1.95719-5.75297-2.65832-7.11556z" class="cls-2"/><path fill="url(#linear-gradient)" d="M131.995 154.81855l-.00037-.00025q-15.18372-10.25479-30.36894-20.50984-16.54345-12.22626-33.08585-24.45252l-.001-.00062A1647730.14121 1647730.14121 0 0 0 38.8831 89.5221q-5.15124-3.53182-10.5341-7.22229c0 40.62833.02445 79.13185-.04642 117.63525a7.01475 7.01475 0 0 0 3.72546 6.56769c8.23561 5.24059 16.34115 10.68549 24.4967 16.05169 13.96537 9.71749 27.68125 19.82148 41.976 29.02808 4.16224 2.68074 8.13048 5.67713 12.136 8.61616 2.5035 1.83686 5.02153 3.65124 7.61067 5.35206 1.72614 1.13384 3.4838 2.21728 5.28987 3.22315q1.35445.75439 2.74752 1.44724c1.1918.59093 2.41761 1.12788 3.66055 1.63689.69532.28473 1.3889.57232 2.10234.828v-.00013q-.02678-58.93359-.05269-117.86734z"/><path fill="#fdfdfd" d="M754.33328 109.97c-9.809 14.01936-10.12224 39.55531-.66032 53.82366 11.19637 16.884 34.769 16.51044 45.59748-.687 5.25089-8.33913 6.2096-17.66749 6.48316-25.16422-.49971-11.55557-2.153-20.75659-8.1249-28.65273a26.65708 26.65708 0 0 0-43.29542.68029zm178.29643 35.90346c-11.33216 1.4141-22.9951.01813-34.04687 3.66105-6.14779 2.02651-10.51421 5.975-10.96153 12.99884-.38192 5.99549 2.25848 10.39965 7.35187 13.32267q.72443.41574 1.46623.77364a24.05487 24.05487 0 0 0 11.1116 2.32328c12.84853.21771 23.06758-6.03186 27.3887-15.42564q.37515-.81546.69507-1.65948a24.05926 24.05926 0 0 0 1.02908-3.488q.19214-.8998.31427-1.82717a26.23533 26.23533 0 0 0 .09694-5.84233c-.28635-3.07373-.56276-5.32142-4.44536-4.83686zM512.40162 95.73009a28.52571 28.52571 0 0 0-27.96374 22.01033c-1.21551 4.91118.48009 5.79554 4.834 5.75135 14.86027-.15106 29.7255-.21063 44.58379.02271 5.64572.08862 5.90823-2.45894 4.95636-6.94464-2.56248-12.07576-13.38339-20.76193-26.41041-20.83975z"/><path fill="url(#linear-gradient-2)" d="M276.18644 85.19739c.01713-4.1826-1.262-7.012-4.72612-9.25849-11.82293-7.667-23.5617-15.46374-35.3325-23.21106q-29.51252-20.30368-59.03806-40.58862c-.47154-.32333-.94208-.67645-1.42391-1.00351-1.44575-.98092-2.99377-1.72539-4.97907-.71418q.13814 58.122.27591 116.24237l.002-.00136q21.46358-15.14855 42.93088-30.30006c2.2184-1.45965 4.42066-2.94537 6.63447-4.41247s4.4389-2.91533 6.703-4.30013c2.16887-1.32672 4.12649-4.48247 6.84534-3.14607 2.85886 1.40528 1.26255 4.84452 1.285 7.32345.24663 27.17993.3386 54.3611.47265 81.542 11.07635 7.7256 22.21848 15.35948 33.20136 23.21566 5.4732 3.915 7.19 2.87722 7.15453-3.8867q-.28283-53.74922-.00548-107.50083z"/></svg>