<svg xmlns="http://www.w3.org/2000/svg" role="img" viewBox="-4.18 -3.43 438.36 181.61"><title>XGBoost logo</title><defs><style>.cls-1{fill:#1ca0dc}.cls-2{fill:#706f6f}</style></defs><path d="M96.657 168.667c-.976-.243-2.282-.448-3.227-.736-9.83-2.994-14.48-10.65-15.255-20.492-1.178-14.973 1.13-29.507 8.5-42.805 10.012-18.065 27.011-24.811 49.523-20.052 1.018.215 2.024.483 3.037.724 9.396 2.229 10.175 4.222 5.714 12.93-1.3 2.537-3.088 1.74-4.831 1.576-5.696-.534-11.368-1.338-17.068-1.793-7.399-.59-13.32 2.5-17.452 8.436-8.185 11.76-10.6 25.181-9.718 39.155.428 6.775 12.583 11.47 18.56 7.699a3.603 3.603 0 0 0 1.41-2.63c1.183-4.873 2.294-9.765 3.494-14.923a29.58 29.58 0 0 0-3.888-.252c-2.833.205-3.83-.944-2.995-3.667.102-.332.177-.672.269-1.006 3.247-11.855-.016-9.558 12.195-9.621 4.737-.025 11.146-2.345 13.801 1.127 2.357 3.082-1.22 8.784-2.205 13.318-1.766 8.133-3.92 16.186-5.543 24.345-.847 4.253-2.104 5.086-6.764 7.415a12.094 12.094 0 0 1-3.577 1.252c-6.492 1.043-16.224 1.932-23.98 0zm129.283 0c-12.939-3.404-14.755-16.775-12.817-29.394 1.32-8.592 4.101-16.466 9.538-23.28 8.17-10.241 20.308-13.62 32.715-9.295 6.63 2.31 10.902 6.863 12.23 13.67 2.782 14.271-.69 27.145-9.506 38.619a25.397 25.397 0 0 1-14.435 9.68 38.251 38.251 0 0 1-17.725 0zm25.995-37.558c.17-5.32-.068-9.207-4.03-10.88a9.195 9.195 0 0 0-10.57 1.992 21.095 21.095 0 0 0-4.474 6.328 40.876 40.876 0 0 0-3.6 15.057c-.213 4.051-.246 8.226 4.205 10.298 3.994 1.86 8.913.086 12.269-4.33 4.48-5.894 5.705-12.86 6.2-18.465zm33.435 37.558c-12.94-3.404-14.756-16.775-12.818-29.394 1.319-8.592 4.101-16.466 9.538-23.28 8.169-10.241 20.308-13.62 32.715-9.295 6.63 2.31 10.902 6.863 12.229 13.67 2.782 14.27-.689 27.145-9.505 38.619a25.397 25.397 0 0 1-14.435 9.68 38.252 38.252 0 0 1-17.725 0zm26.028-37.974c.104-5.137-.18-9.173-4.572-10.684-4.539-1.562-8.52-.081-11.528 3.746-4.587 5.838-6.087 12.73-6.598 19.893-.288 4.045-.244 8.223 4.235 10.266 4.026 1.837 8.892.068 12.254-4.373 4.466-5.902 5.693-12.867 6.209-18.848zm22.974 37.974c-8.199-1.857-8.207-5.795-4.685-13.901 1.017-2.34 2.528-1.888 4.192-1.727 4.656.452 9.299 1.078 13.963 1.372a29.492 29.492 0 0 0 7.234-.484 4.767 4.767 0 0 0 4.109-4.166c.322-2.698-1.806-3.464-3.825-4.133-3.122-1.034-6.318-1.866-9.384-3.04-10.546-4.042-13.603-10.555-10.181-21.387 2.84-8.988 11.306-15.326 21.627-16.058a66.446 66.446 0 0 1 21.092 2.365c2.889.731 4.225 1.956 3.01 5.054a16.453 16.453 0 0 0-1.076 4.537c-.304 3.535-2.303 4.184-5.37 3.657a93.965 93.965 0 0 0-16.576-1.256c-3.438.023-6.426 1.058-7.042 4.765-.621 3.742 2.72 4.299 5.27 5.254 4.049 1.516 8.193 2.804 12.157 4.513 5.18 2.232 7.433 6.39 7.326 12.032-.206 10.874-6.247 18.634-16.965 21.485a34.133 34.133 0 0 1-5.067 1.118c-6.565.709-13.369 1.458-19.81 0zm60.471 0c-9.394-2.806-10.053-9.853-7.901-20.347 1.633-7.967 3.59-15.868 5.452-23.787.544-2.319.678-4.2-2.581-4.128-.647.014-1.77-.24-1.883-.61-1.19-3.917 1.353-7.276 1.81-10.973.21-1.702 1.052-3.09 3.05-2.71 3.583.684 4.277-1.588 4.937-4.297 3.103-12.72 3.133-12.67 16.293-11.458 1.918.176 3.025.485 2.366 2.693-.247.828-.39 1.688-.556 2.538-.627 3.21-2.698 7.219-1.489 9.433 1.463 2.679 5.984.777 9.162.997 2.129.148 2.778.792 2.126 2.83-.368 1.149-.494 2.374-.782 3.552-1.948 7.969-1.956 8.153-10.397 7.996-3.411-.063-4.92.973-5.584 4.326-1.513 7.638-3.437 15.194-5.044 22.815-1.276 6.05-.262 6.997 5.862 6.957 1.668-.01 4.928-2.037 4.938 1.405.01 3.79 1.429 8.61-3.403 10.896a23.312 23.312 0 0 1-6.992 1.872c-3.104.392-6.387.895-9.384 0z" class="cls-1"/><path d="M53.91 4.977c-4.457 19.197-9.003 38.374-13.28 57.61-.698 3.14-1.663 4.476-5.036 4.142-4.04-.4-.821-3.336-2.113-4.836a77.168 77.168 0 0 1-7.107 4.564c-7.468 3.77-15.11.17-15.965-7.956-1.124-10.683 1.32-20.673 8.174-29.236 4.861-6.074 11.383-7.822 18.662-5.973 4.529 1.151 6.302-.144 6.752-4.64.463-4.614 2.766-8.914 2.615-13.675zM16.774 54.135c-.011 5.876 2.939 9.135 7.282 7.607 5.921-2.084 10.719-6.032 12.761-12.091 1.818-5.393 2.656-11.115 3.949-16.686.32-1.378.74-2.634-.984-3.536-5.626-2.945-13.333-.907-17.072 4.693-4.078 6.11-5.311 13.085-5.936 20.013zM136.276 4.977c.105 7.374-2.568 14.225-4.075 21.288-2.633 12.334-5.681 24.581-8.2 36.938-.76 3.733-2.842 3.895-5.573 3.384-3.547-.664-1.196-3.055-.895-4.422 3.825-17.389 7.82-34.74 11.736-52.109.376-1.665.507-3.384.751-5.079z" class="cls-2"/><path d="M198.902 124.74c8.87 6.583 8.541 15.074 5.811 23.812-3.206 10.26-10.863 16.035-21.034 18.073-12.87 2.578-25.977.84-38.977 1.144-3.817.089-2.287-2.76-1.913-4.437 2.603-11.674 5.366-23.312 8.07-34.963 3.097-13.34 6.303-26.655 9.192-40.04.68-3.152 1.79-4.286 5.092-4.196 8.852.241 17.716.015 26.573.122 10.646.128 17.18 3.967 19.739 11.379a23.228 23.228 0 0 1-7.759 25.71c-1.367 1.064-2.827 2.008-4.794 3.395zm-27.142 28.198a50.554 50.554 0 0 0 6.756-.048c6.32-.86 10.495-6.71 9.998-13.703-.352-4.965-2.282-6.091-10.494-6.128-11.048-.049-11.048-.049-13.49 10.546-2.18 9.453-2.18 9.453 7.23 9.333zm11.804-53.945c-8.052-.003-8.228-.037-9.748 7.793-.746 3.841-4.445 8.96-1.434 11.213 2.786 2.085 8.332.493 12.663.482a5.527 5.527 0 0 0 1.504-.38 12.024 12.024 0 0 0 8.298-13.849c-1.118-6.15-5.997-5.12-10.242-5.258-.347-.011-.694-.001-1.04-.001zM47.462 113.194c6.316-9.223 11.916-17.152 17.217-25.276 1.82-2.789 3.765-4.083 7.175-3.814 4.096.323 8.238.076 13.454.076-4.173 5.766-7.76 10.783-11.41 15.753-5.551 7.556-11.08 15.131-16.764 22.586a7.209 7.209 0 0 0-1.363 7.149c3.257 11.153 6.163 22.409 9.315 33.594.891 3.163.673 4.597-3.316 4.64-13.38.142-13.364.3-16.349-12.877-1.142-5.042-2.36-10.067-3.643-15.53-2.123.77-2.763 2.427-3.68 3.739-4.877 6.97-9.818 13.9-14.529 20.982-1.699 2.554-3.517 3.885-6.739 3.66-4.14-.292-8.316-.071-12.495-.071-.553-2.603 1.379-3.71 2.416-5.12q12.502-16.991 25.224-33.821a7.173 7.173 0 0 0 1.44-7.106c-3.142-11.002-5.819-22.137-8.91-33.154-.897-3.196-.967-4.507 3.089-4.522 13.69-.05 13.7-.213 16.548 13.084 1.043 4.87 2.022 9.752 3.32 16.028z" class="cls-1"/><path d="M112.413 36.242c-1.107 8.667-3.902 18.344-6.01 28.164-.678 3.153-3 2.342-4.923 2.194-3.045-.235-1.705-2.497-1.407-3.917 1.743-8.315 3.66-16.594 5.452-24.9.695-3.222.534-6.44-2.553-8.362-2.944-1.833-5.68-.25-8.215 1.401-3.74 2.436-6.359 5.345-7.077 10.215-1.087 7.362-3.195 14.568-4.607 21.89-.638 3.311-2.353 4.382-5.403 3.706-3.83-.85-1.267-3.338-.96-4.9 1.532-7.828 3.388-15.592 5-23.405.64-3.107 1.034-6.477-2.132-8.504-3.299-2.111-6.281-.505-9.08 1.544-4.34 3.176-7.448 6.937-8.332 12.587-.962 6.15-2.8 12.158-4.071 18.266-.642 3.085-1.697 5.4-5.392 4.406-3.718-1-1.418-3.545-1.029-5.336q3.645-16.78 7.58-33.497c.387-1.651.024-4.117 2.95-4.058 2.093.043 4.587-.82 3.621 3.21-.305 1.272 1.805.782 2.85.154a51.312 51.312 0 0 1 5.772-3.472c5-2.165 9.355-1.115 12.283 3.408 1.53 2.364 2.446 2.224 4.28.68a25.81 25.81 0 0 1 4.765-3.14c9.363-4.827 16.881-.147 16.638 11.666zm47.753-7.378c-8.143-.465-12.145 1.96-15.488 9.422a36.93 36.93 0 0 0-2.962 14.687c-.102 6.673 3.181 9.592 9.752 9.052 1.381-.114 2.745-.537 4.122-.57 1.508-.034 3.67-1.455 4.156 1.391.455 2.666-1.097 3.517-3.507 4.054a33.309 33.309 0 0 1-10.856.704c-5.74-.614-9.556-4.336-10.13-10.137a40.617 40.617 0 0 1 4.38-23.708c5.146-9.56 15.546-13.457 25.834-10.05 1.648.546 2.38 1.254 2.023 2.924-.303 1.425-.773 2.705-2.647 2.543-1.557-.134-3.118-.214-4.677-.312z" class="cls-2"/></svg>