<svg xmlns="http://www.w3.org/2000/svg" role="img" viewBox="1.23 6.73 456.04 142.04"><title>XLM logo</title><defs><style>.cls-1{fill:#677b80;fill-rule:evenodd}</style></defs><path id="Fill-11" d="M45.032 17.092v6.115a.628.628 0 0 1-.664.664H18.135v12.498h21.65a.628.628 0 0 1 .664.665v6.115a.627.627 0 0 1-.664.665h-21.65v18.478a.627.627 0 0 1-.664.665h-6.575a.627.627 0 0 1-.663-.665v-45.2a.628.628 0 0 1 .663-.665h33.472a.628.628 0 0 1 .664.666" class="cls-1"/><path id="Fill-12" d="M84.645 43.28c-2.423-6.713-5.113-13.427-7.87-19.542h-1.56q-4.32 9.618-7.903 19.542zm13.913 19.675H91.32a.723.723 0 0 1-.763-.598q-1.521-6.007-3.454-11.898H64.888c-1.328 4.055-2.49 8.076-3.42 11.898a.723.723 0 0 1-.764.598h-6.973c-.465 0-.731-.265-.598-.73A309.655 309.655 0 0 1 70.134 17.29a1.27 1.27 0 0 1 1.296-.864h9.43a1.27 1.27 0 0 1 1.295.864 304.356 304.356 0 0 1 17.001 44.934c.133.465-.133.73-.598.73z" class="cls-1"/><path id="Fill-13" d="M110.445 40.09c0-14.424 9.497-24.527 23.045-24.527h.995a20.675 20.675 0 0 1 18.562 10.568.588.588 0 0 1-.232.93l-5.844 2.892a.81.81 0 0 1-1.122-.23q-.022-.033-.04-.068c-2.457-4.255-6.143-6.514-11.589-6.514h-.996c-8.534 0-14.41 6.78-14.41 16.617 0 9.87 5.777 16.484 14.41 16.484h.996c5.579 0 8.833-1.894 11.324-4.786a.844.844 0 0 1 1.095-.232l6.01 2.925a.55.55 0 0 1 .332.464.877.877 0 0 1-.199.5c-3.685 5.383-10.327 8.707-18.429 8.707h-.996c-13.78 0-22.912-9.472-22.912-23.73" class="cls-1"/><path id="Fill-14" d="M205.943 56.176v6.115a.628.628 0 0 1-.664.665h-34.866a.628.628 0 0 1-.665-.665v-45.2a.628.628 0 0 1 .665-.664h34.268a.628.628 0 0 1 .664.665v6.115a.627.627 0 0 1-.664.664h-27.03v12.098h21.983a.628.628 0 0 1 .664.665v6.05a.628.628 0 0 1-.664.664h-21.983v12.164h27.628a.628.628 0 0 1 .664.665" class="cls-1"/><path id="Fill-15" d="M257.875 49.495c0-4.32-2.856-6.281-9.132-6.281h-15.64v12.495h15.64c6.377 0 9.132-1.861 9.132-6.215M246.519 23.67h-13.414v12.496h13.415c6.01 0 8.766-1.96 8.766-6.248s-2.756-6.248-8.766-6.248m19.458 26.52c0 8.144-6.242 12.764-17.266 12.764h-22.847a.628.628 0 0 1-.664-.664v-45.2a.628.628 0 0 1 .664-.665h20.82c10.725 0 16.57 4.254 16.57 12.03 0 5.119-2.59 8.476-7.836 10.038 7.37 1.562 10.558 5.982 10.558 11.698" class="cls-1"/><path id="Fill-16" d="M304.793 56.243c9.53 0 15.54-6.548 15.54-16.551 0-10.004-6.01-16.552-15.54-16.552h-.996c-9.53 0-15.54 6.548-15.54 16.552 0 10.003 6.01 16.55 15.54 16.55zM279.89 39.692c0-14.026 9.297-24.13 23.907-24.13h.996c14.61 0 23.909 10.104 23.909 24.13 0 14.024-9.298 24.128-23.909 24.128h-.996c-14.61 0-23.907-10.104-23.907-24.128z" class="cls-1"/><path id="Fill-17" d="M367.086 56.243c9.53 0 15.54-6.548 15.54-16.551 0-10.004-6.01-16.552-15.54-16.552h-.997c-9.53 0-15.54 6.548-15.54 16.552 0 10.003 6.01 16.55 15.54 16.55zm-24.904-16.551c0-14.026 9.297-24.13 23.907-24.13h.997c14.61 0 23.908 10.104 23.908 24.13 0 14.024-9.297 24.128-23.908 24.128h-.997c-14.61 0-23.907-10.104-23.907-24.128z" class="cls-1"/><path id="Fill-18" d="M448.272 62.956h-8.567a1.262 1.262 0 0 1-1.163-.565 181.566 181.566 0 0 0-19.16-19.31h-3.85v19.21a.627.627 0 0 1-.665.665h-6.575a.628.628 0 0 1-.664-.665v-45.2a.628.628 0 0 1 .664-.664h6.575a.628.628 0 0 1 .664.665v18.345h3.918a142.668 142.668 0 0 0 17.333-18.511 1.065 1.065 0 0 1 .997-.5h8.102c.399 0 .598.2.598.467a.825.825 0 0 1-.233.498 165.51 165.51 0 0 1-20.753 21.603 200.406 200.406 0 0 1 23.145 23.13c.364.433.165.832-.366.832" class="cls-1"/><path d="M171.447 140.204h-12.073l15.985-25.326-15.21-24.383h12.41l8.866 16.189 9.11-16.189h12.005l-15.21 23.978 16.154 25.731h-12.613l-9.445-16.949zm38.124-49.709h10.387v40.773h24.822v8.936h-35.21zm75.164 0h14.946v49.71h-9.679v-33.623q0-1.45.033-4.064.034-2.612.035-4.03l-9.42 41.716h-10.096l-9.352-41.716q0 1.417.034 4.03.033 2.615.033 4.064v33.622h-9.679V90.495h15.115l9.048 39.086z"/></svg>