<svg xmlns="http://www.w3.org/2000/svg" role="img" viewBox="-1.12 3.38 500.24 68.74"><title>YouTokenToMe logo</title><path d="M40.178 13.333h11.384L35.48 43.385v18.03H25.434v-18.03L8.797 13.333H20.64l9.981 20.941zm41.101 43.731q-4.502 5.557-13.668 5.557-9.167 0-13.668-5.557a20.582 20.582 0 0 1-4.501-13.379 20.718 20.718 0 0 1 4.501-13.33q4.502-5.638 13.668-5.638t13.668 5.638a20.718 20.718 0 0 1 4.501 13.33 20.582 20.582 0 0 1-4.501 13.38zm-7.437-5.138q2.185-2.899 2.185-8.24 0-5.343-2.185-8.225a7.39 7.39 0 0 0-6.263-2.883 7.433 7.433 0 0 0-6.28 2.883q-2.201 2.882-2.201 8.224 0 5.343 2.201 8.241a7.415 7.415 0 0 0 6.28 2.899 7.373 7.373 0 0 0 6.263-2.899zM101.7 25.858V47.29a11.269 11.269 0 0 0 .713 4.566q1.266 2.708 4.966 2.708 4.739 0 6.492-3.85a14.003 14.003 0 0 0 .909-5.512V25.858h9.427v35.556h-9.036v-5.023q-.13.163-.65.978a6.543 6.543 0 0 1-1.236 1.436 12.908 12.908 0 0 1-4.213 2.674 14.333 14.333 0 0 1-4.765.718q-7.872 0-10.604-5.676-1.53-3.131-1.529-9.231V25.858zm67.228-12.525v8.513h-14.385v39.568h-10.112V21.846h-14.45v-8.513zm29.847 43.731q-4.501 5.557-13.667 5.557-9.167 0-13.668-5.557a20.582 20.582 0 0 1-4.502-13.379 20.718 20.718 0 0 1 4.502-13.33q4.501-5.638 13.668-5.638 9.165 0 13.667 5.638a20.718 20.718 0 0 1 4.502 13.33 20.582 20.582 0 0 1-4.502 13.38zm-7.437-5.138q2.185-2.899 2.186-8.24 0-5.343-2.186-8.225a8.263 8.263 0 0 0-12.542 0q-2.202 2.882-2.202 8.224 0 5.343 2.202 8.241a8.234 8.234 0 0 0 12.542 0zm18.496-38.43h9.133v25.938l11.726-13.412h11.56L229.51 39.267l13.238 22.147h-11.314l-8.616-15.191-3.85 4.003v11.188h-9.134zm60.421 13.083a14.467 14.467 0 0 1 6.144 5.26 17.472 17.472 0 0 1 2.832 7.35 45.33 45.33 0 0 1 .307 7.057h-25.895q.215 5.35 3.717 7.503a9.444 9.444 0 0 0 5.126 1.337 7.22 7.22 0 0 0 7.076-4.078h9.49a11.605 11.605 0 0 1-3.446 6.427q-4.776 5.186-13.377 5.186a19.383 19.383 0 0 1-12.523-4.374q-5.426-4.375-5.426-14.236 0-9.238 4.899-14.168a17.139 17.139 0 0 1 12.714-4.93 20.242 20.242 0 0 1 8.362 1.666zm-13.908 8.03a9.664 9.664 0 0 0-2.477 5.504h16.017a7.755 7.755 0 0 0-2.477-5.618 8.148 8.148 0 0 0-5.514-1.917 7.372 7.372 0 0 0-5.55 2.032zm56.564-6.712q3.492 2.887 3.492 9.574v23.943h-9.525V39.787a9.94 9.94 0 0 0-.744-4.306q-1.361-2.74-5.182-2.74a6.421 6.421 0 0 0-6.443 4.012 13.874 13.874 0 0 0-.907 5.415v19.246h-9.297v-35.49h9.004v5.186a15.745 15.745 0 0 1 3.378-3.947 11.706 11.706 0 0 1 7.243-2.153 13.63 13.63 0 0 1 8.981 2.887zm47.822-14.564v8.513H346.35v39.568h-10.113V21.846h-14.45v-8.513zm29.848 43.731q-4.501 5.557-13.668 5.557-9.167 0-13.668-5.557a20.582 20.582 0 0 1-4.501-13.379 20.718 20.718 0 0 1 4.501-13.33q4.502-5.638 13.668-5.638t13.668 5.638a20.718 20.718 0 0 1 4.501 13.33 20.582 20.582 0 0 1-4.5 13.38zm-7.437-5.138q2.184-2.899 2.185-8.24 0-5.343-2.185-8.225a8.263 8.263 0 0 0-12.543 0q-2.202 2.882-2.202 8.224 0 5.343 2.202 8.241a8.234 8.234 0 0 0 12.543 0zm51.238-38.593h14.457v48.081h-9.361V28.892q0-1.402.032-3.93.032-2.528.032-3.899l-9.111 40.351h-9.765l-9.046-40.35q0 1.369.032 3.897t.033 3.931v32.522h-9.362V13.333h14.62l8.752 37.806zm46.173 13.246a14.467 14.467 0 0 1 6.144 5.26 17.472 17.472 0 0 1 2.832 7.35 45.328 45.328 0 0 1 .307 7.057h-25.896q.216 5.35 3.718 7.503a9.444 9.444 0 0 0 5.126 1.337 7.22 7.22 0 0 0 7.075-4.078h9.492a11.605 11.605 0 0 1-3.447 6.427q-4.777 5.186-13.377 5.186a19.383 19.383 0 0 1-12.523-4.374q-5.426-4.375-5.426-14.236 0-9.238 4.899-14.168a17.139 17.139 0 0 1 12.713-4.93 20.242 20.242 0 0 1 8.363 1.666zm-13.909 8.03a9.665 9.665 0 0 0-2.476 5.504h16.017a7.755 7.755 0 0 0-2.477-5.618 8.148 8.148 0 0 0-5.514-1.917 7.372 7.372 0 0 0-5.55 2.032z"/></svg>