<svg xmlns="http://www.w3.org/2000/svg" role="img" viewBox="-46.25 -46.25 2405.00 655.00"><title>ZenML logo</title><defs><style>.cls-2{fill:#424240}</style></defs><g id="Layer_2" data-name="Layer 2"><g id="Layer_1-2" data-name="Layer 1"><path fill="#431d93" d="M544 366.31a279.85 279.85 0 0 0-22.23-224.83l-191.92-4.86v-2.4l184.73-4.68a280.52 280.52 0 0 0-87.37-87L279 38.83v-2.4l131.72-3.33A278.86 278.86 0 0 0 76.2 87.39l165.8 4.2V94L66.29 98.43A278 278 0 0 0 0 279c0 3 0 5.9.15 8.84a5.34 5.34 0 0 0 0 .59l66.16 1.68v2.4L.4 294.16a5.45 5.45 0 0 1 0 .59 277.42 277.42 0 0 0 36.87 123.63l110.37 2.79v2.4L42 426.24a280.1 280.1 0 0 0 105.49 98.82c3.44 1.87 6.92 3.64 10.45 5.34V298.67h26.76a7.83 7.83 0 0 1 7.84 7.84v237.78a280.39 280.39 0 0 0 172.87 0V306.51a7.83 7.83 0 0 1 7.84-7.84H400V530.4c3.48-1.68 6.95-3.44 10.34-5.27a279 279 0 0 0 73-56.25L414 467.12v-2.4l74.76-1.89a278.26 278.26 0 0 0 52.59-89l-99.76-2.53v-2.4zm-105.31-75H119.26l-5.77-23.06h44.45v-24.72H167a24.68 24.68 0 0 1 24.67 24.69h70V235.3H92.1c-3.31-26.35-18.95-46.93-18.95-46.93C119.26 199.06 279 199.89 279 199.89s159.71-.83 205.79-11.52c0 0-15.61 20.58-18.92 46.93H296.26v32.93h70a24.69 24.69 0 0 1 24.7-24.69H400v24.69h44.47z"/><path d="M0 552.07l4.36-1.38 4.36-1.23 8.72-2.46c5.81-1.5 11.62-3 17.44-4.25 11.62-2.7 23.25-4.95 34.87-7.09 23.25-4.17 46.49-7.29 69.74-9.82A1320.1 1320.1 0 0 1 279 518.76 1343.66 1343.66 0 0 1 418.45 526c23.25 2.55 46.49 5.66 69.74 9.82 11.62 2.13 23.25 4.37 34.87 7.05 5.81 1.29 11.62 2.74 17.44 4.23l8.72 2.42 4.36 1.22 4.36 1.37V556l-69.74 1-69.74.35-139.46.59-139.48-.65-69.74-.34L0 556zm2146.92-336.93l-6.95-7.06h-55.59l-7 7.06v254.35c0 63.59 48.64 91.85 97.28 91.85h133.14l6.95-7.06v-49.47l-6.95-7.06h-133.09c-13.89 0-27.79-7.07-27.79-28.26zm-244.71-10.6c-48.64 0-83.39 21.2-104.23 49.46H1791c-13.9-21.2-34.75-49.46-90.33-49.46-4.55 0-32.58.55-32.58.55l-7 7.06v49.59l7 7.06h24.1c44.25 5 50.17 38 50.17 77v212l6.95 7.06h55.59l6.95-7.06V360c0-56.52 27.79-91.84 76.44-91.84 55.59 0 62.54 35.33 62.54 77.72v212l7 7.06h55.59l6.95-7.06v-212c-.03-77.75-20.88-141.34-118.16-141.34zm-332.71 7.07l-6.95 7.07V557.8l6.95 7.07h55.59l6.95-7.07V218.68l-6.95-7.07h-55.59zm-247.1 342.77l-5.07 5.07h-60.91l-5.08-5.07V310.75l5.08-5.08h60.9l5.08 5.08v243.63zm42.82-192.88l-5.08-5.07v-50.76l5.08-5.08h28.23c60.91 0 96.44 40.61 96.44 101.51v152.28l-5.08 5.07h-60.91l-5.07-5.07V407.19c0-25.38-10.15-45.68-40.61-45.68zm-401.38 96.44a175 175 0 0 1-1.84-25.38c0-71.06 40.61-132 121.82-132s121.81 60.91 121.81 132v20.3l-5.07 5.07h-157.32m81.21 30.46l5.08-5.08h60.91l5.08 5.08m-66-86.29c0-5.08-5.08-40.61-45.68-40.61s-45.68 35.53-45.68 40.61l5.07 5.08h81.21z" class="cls-2"/><path d="M1195.51 488.4c-5.08 30.45-30.45 76.13-106.59 76.13s-111.32-45.68-116.4-76.13l5.08-5.08h68.26l5.08 5.08c5.07 10.15 22.75 15.23 38 15.23 15.23 0 30.46-5.08 35.53-15.23M906.2 265.07H667.65l-5.08-5.08v-50.75l5.08-5.08H906.2l5.08 5.08v50.75m-167.5 233.48v5.08h172.58l5.07 5.07v50.76l-5.07 5.07H662.57l-5.07-5.07v-55.83l5.07-10.16 59.55-79.6 81.01-104.33 5.07-5.08h69.97l5.07 5.08-139.46 189.01z" class="cls-2"/></g></g></svg>