<svg xmlns="http://www.w3.org/2000/svg" role="img" viewBox="5.27 0.27 583.96 225.96"><title>Zilliz (hosting) logo</title><path fill="#4fc4f9" d="M42.6485 193.80393a10.45785 10.45785 0 0 0 1.96383-6.32813q0-5.71464-3.53895-8.70465-3.53712-2.99-10.10475-2.98995h-12.87v38.87518h5.15463V198.9291h9.13022l8.43752 15.72728h5.501v-.32057l-9.132-16.501a11.71091 11.71091 0 0 0 5.45859-4.03088m-11.51958.934h-7.87574v-14.76562h7.848a9.10582 9.10582 0 0 1 6.20841 1.95464 7.04748 7.04748 0 0 1 2.14807 5.536 6.69819 6.69819 0 0 1-2.25492 5.29647 8.889 8.889 0 0 1-6.07389 1.97853M63.597 185.234a11.52266 11.52266 0 0 0-6.39448 1.90853 12.78148 12.78148 0 0 0-4.59272 5.28546 17.345 17.345 0 0 0-1.64143 7.67665v.90639q0 6.46352 3.68265 10.32213a12.63142 12.63142 0 0 0 9.55938 3.85584q7.26217 0 10.89325-5.58016l-3.01765-2.3489a11.11841 11.11841 0 0 1-3.176 2.82972 8.5989 8.5989 0 0 1-4.43246 1.06848 7.84151 7.84151 0 0 1-6.0739-2.63076 10.25557 10.25557 0 0 1-2.49625-6.90107h19.57025v-2.05595q0-6.91393-3.12449-10.62792-3.12258-3.70844-8.75615-3.70844m6.94161 12.33383H56.06765a10.57572 10.57572 0 0 1 2.50915-6.1015 6.58732 6.58732 0 0 1 5.02015-2.17385 6.19832 6.19832 0 0 1 4.91144 2.06883 9.40345 9.40345 0 0 1 2.03017 5.83259zm14.79284-22.32112a2.75677 2.75677 0 0 0-2.17573.82718 2.95007 2.95007 0 0 0-.735 2.0302 2.84876 2.84876 0 0 0 .735 2.00248 2.80141 2.80141 0 0 0 2.17573.79958 2.67094 2.67094 0 0 0 2.93653-2.80206 2.92557 2.92557 0 0 0-.748-2.0302 2.80152 2.80152 0 0 0-2.18857-.82718M82.821 185.767h4.939v28.888h-4.939zm27.53025-.53363a10.5233 10.5233 0 0 0-8.65125 4.16536l-.16026-3.63109h-4.67193V214.656h4.93908v-20.5853a8.69706 8.69706 0 0 1 2.82969-3.364 7.12681 7.12681 0 0 1 4.21874-1.284 5.72812 5.72812 0 0 1 4.36616 1.49773 6.65575 6.65575 0 0 1 1.42773 4.61856v19.117h4.93908v-19.09127q-.08016-10.33222-9.237-10.33135M137.772 207.954l-7.342-22.186h-5.046l10.466 28.888h3.764l10.361-28.888h-5.048l-7.155 22.186zm29.18448-22.72a11.53151 11.53151 0 0 0-6.39448 1.90853 12.78148 12.78148 0 0 0-4.59272 5.28546 17.345 17.345 0 0 0-1.64143 7.67665v.90639q0 6.46352 3.6845 10.32213a12.6245 12.6245 0 0 0 9.55758 3.85581q7.26218 0 10.89508-5.58016l-3.01944-2.34886a11.11841 11.11841 0 0 1-3.176 2.82972 8.5942 8.5942 0 0 1-4.43246 1.06848 7.84694 7.84694 0 0 1-6.0739-2.63076 10.26475 10.26475 0 0 1-2.49625-6.90107h19.57025v-2.05595q0-6.91393-3.12449-10.62792-3.12258-3.70848-8.7562-3.70845m6.94161 12.33383h-14.47095a10.58777 10.58777 0 0 1 2.50915-6.1015 6.59012 6.59012 0 0 1 5.02015-2.17385 6.19575 6.19575 0 0 1 4.91144 2.06883 9.39245 9.39245 0 0 1 2.03017 5.83259zm25.33995-12.33446a10.52333 10.52333 0 0 0-8.65125 4.16536l-.16025-3.63109h-4.672V214.656h4.93908v-20.5853a8.69723 8.69723 0 0 1 2.82969-3.364 7.12686 7.12686 0 0 1 4.21875-1.284 5.72811 5.72811 0 0 1 4.36615 1.49773 6.6558 6.6558 0 0 1 1.42775 4.61857v19.117h4.93907v-19.09128q-.08016-10.33222-9.237-10.33135m25.31199 24.89563a4.00734 4.00734 0 0 1-.72036-2.60675v-17.93613h5.3923v-3.81905h-5.3923v-6.995h-4.93905v6.995H213.631v3.81905h5.25962v17.91405a8.59872 8.59872 0 0 0 1.682 5.687 6.14729 6.14729 0 0 0 4.99251 2.00253 14.41115 14.41115 0 0 0 3.79133-.53055V210.678a12.08681 12.08681 0 0 1-2.35072.32057 3.03769 3.03769 0 0 1-2.45568-.86957m47.101-32.104a17.66123 17.66123 0 0 0-8.97176-2.24389h-10.97244v38.87523h10.75875a18.79221 18.79221 0 0 0 9.17257-2.2715 14.93724 14.93724 0 0 0 6.061-6.35394 20.8396 20.8396 0 0 0 2.12229-9.63865v-2.48154a20.78259 20.78259 0 0 0-2.14995-9.506 15.16992 15.16992 0 0 0-6.02049-6.37969m3.09688 18.2493q0 6.8145-3.29765 10.50086-3.29669 3.68908-9.22419 3.68821H256.832v-30.49113h5.98q5.71466.05532 8.8262 3.72875 3.10881 3.67526 3.10976 10.30189zm35.24541-1.66918a9.01332 9.01332 0 0 0-2.9366-6.87713q-2.83243-2.49537-7.824-2.49442a13.97725 13.97725 0 0 0-5.77919 1.17536 10.454 10.454 0 0 0-4.16531 3.18892 6.8144 6.8144 0 0 0-1.53646 4.18009h4.96674a3.929 3.929 0 0 1 1.78884-3.23131 7.19373 7.19373 0 0 1 4.43247-1.33564 6.22775 6.22775 0 0 1 4.56509 1.53461 5.54783 5.54783 0 0 1 1.54934 4.12477v2.2697h-4.80645q-6.22038 0-9.65158 2.49621a8.16742 8.16742 0 0 0-3.43027 7.00982 7.81715 7.81715 0 0 0 2.73577 6.1273 10.20645 10.20645 0 0 0 7.00975 2.41706 11.0177 11.0177 0 0 0 8.222-3.57954 10.447 10.447 0 0 0 .6945 3.04527h5.17857v-.42739a16.26213 16.26213 0 0 1-1.01321-6.32813zm-4.93908 11.9617a7.2666 7.2666 0 0 1-3.01761 3.12078 8.66351 8.66351 0 0 1-4.40486 1.203 5.95006 5.95006 0 0 1-3.97742-1.308 4.494 4.494 0 0 1-1.54934-3.63109q0-5.314 9.07678-5.31306h3.87245zm21.30638 3.56216a4.00734 4.00734 0 0 1-.72036-2.60675v-17.93613h5.39227v-3.81905h-5.39227v-6.995h-4.93908v6.995h-5.25959v3.81905h5.25959v17.91405a8.59888 8.59888 0 0 0 1.682 5.687 6.14739 6.14739 0 0 0 4.99254 2.00253 14.411 14.411 0 0 0 3.79132-.53055V210.678a12.08926 12.08926 0 0 1-2.34886.32057 3.042 3.042 0 0 1-2.45753-.86957m33.64496-15.52386a9.01444 9.01444 0 0 0-2.9384-6.87713q-2.83243-2.49537-7.8222-2.49442a13.97974 13.97974 0 0 0-5.781 1.17536 10.454 10.454 0 0 0-4.1653 3.18892 6.81435 6.81435 0 0 0-1.53647 4.18009h4.96859a3.93164 3.93164 0 0 1 1.787-3.23131 7.19916 7.19916 0 0 1 4.43427-1.33564 6.226 6.226 0 0 1 4.56329 1.53461 5.54783 5.54783 0 0 1 1.54934 4.12477v2.2697h-4.80459q-6.22317 0-9.65344 2.49621a8.16742 8.16742 0 0 0-3.43027 7.00982 7.81715 7.81715 0 0 0 2.73577 6.1273 10.20645 10.20645 0 0 0 7.00975 2.41706 11.01769 11.01769 0 0 0 8.222-3.57954 10.44729 10.44729 0 0 0 .6945 3.04527h5.18043v-.42739a16.22734 16.22734 0 0 1-1.01327-6.32813zm-4.94088 11.9617a7.256 7.256 0 0 1-3.01761 3.12078 8.65854 8.65854 0 0 1-4.40486 1.203 5.95342 5.95342 0 0 1-3.97742-1.308 4.494 4.494 0 0 1-1.54934-3.63109q0-5.314 9.07678-5.31306h3.87245zM404.955 195.792a31.87369 31.87369 0 0 0-7.58091-3.00653 19.71209 19.71209 0 0 1-6.8624-3.01025 5.01013 5.01013 0 0 1-2.01726-4.02346 5.58009 5.58009 0 0 1 2.12414-4.64245 9.34338 9.34338 0 0 1 5.91361-1.671 9.10713 9.10713 0 0 1 6.32633 2.02463 7.0996 7.0996 0 0 1 2.24384 5.55808h5.15278a10.93019 10.93019 0 0 0-1.72251-5.95415 11.75476 11.75476 0 0 0-4.858-4.27219 15.94274 15.94274 0 0 0-7.14244-1.54748 14.58646 14.58646 0 0 0-9.5447 3.00468 9.39526 9.39526 0 0 0-3.67158 7.59563 8.909 8.909 0 0 0 3.00283 6.82187q3.00659 2.76337 9.6 4.659 5.25874 1.51982 7.26033 3.08209a5.27242 5.27242 0 0 1 2.00254 4.41954 5.37593 5.37593 0 0 1-2.16283 4.51168 10.07133 10.07133 0 0 1-6.2194 1.65622 10.97629 10.97629 0 0 1-6.95634-2.04122 6.70363 6.70363 0 0 1-2.60129-5.56914H382.087a10.261 10.261 0 0 0 1.88279 6.061 12.57674 12.57674 0 0 0 5.35359 4.20584 18.28437 18.28437 0 0 0 7.47588 1.53461q6.16785 0 9.85235-2.84445a9.08011 9.08011 0 0 0 3.68451-7.568 9.76676 9.76676 0 0 0-1.32277-5.15277 11.51114 11.51114 0 0 0-4.05835-3.83178m18.10394-3.79057a6.91889 6.91889 0 0 1 5.83439-2.70991 6.59509 6.59509 0 0 1 4.71245 1.80171 6.8001 6.8001 0 0 1 2.12229 4.60563H440.4a10.39858 10.39858 0 0 0-3.43027-7.5569 11.592 11.592 0 0 0-8.07644-2.90893 12.61962 12.61962 0 0 0-6.84952 1.81645 11.80419 11.80419 0 0 0-4.44534 5.0975 17.44071 17.44071 0 0 0-1.54749 7.50349v.82718q0 6.83382 3.48368 10.77348a11.90587 11.90587 0 0 0 9.38628 3.93873 12.10875 12.10875 0 0 0 5.56543-1.33559 11.27394 11.27394 0 0 0 4.2059-3.57768 8.95028 8.95028 0 0 0 1.70777-4.72723h-4.672a5.63536 5.63536 0 0 1-2.19043 4.00693 7.11345 7.11345 0 0 1-4.6167 1.60089 6.95089 6.95089 0 0 1-5.87487-2.69518q-2.05593-2.69709-2.05595-7.68958v-.93586q0-5.12608 2.06888-7.83513m27.03486-16.75472a2.762 2.762 0 0 0-2.17575.82718 2.94862 2.94862 0 0 0-.73318 2.0302 2.84738 2.84738 0 0 0 .73318 2.00248 2.80676 2.80676 0 0 0 2.17575.79958 2.84738 2.84738 0 0 0 2.18857-.79958 2.819 2.819 0 0 0 .74977-2.00248 2.91859 2.91859 0 0 0-.74977-2.0302 2.80149 2.80149 0 0 0-2.18857-.82718M447.584 185.767h4.941v28.888h-4.941zm25.41836-.533a11.521 11.521 0 0 0-6.39262 1.90853 12.78176 12.78176 0 0 0-4.59274 5.28547 17.345 17.345 0 0 0-1.64143 7.67665v.90639q0 6.46352 3.6845 10.32213a12.62458 12.62458 0 0 0 9.55758 3.85581q7.26222 0 10.89508-5.58016l-3.01761-2.34886a11.174 11.174 0 0 1-3.17784 2.82972 8.59437 8.59437 0 0 1-4.43247 1.06848 7.84417 7.84417 0 0 1-6.0739-2.63076 10.26466 10.26466 0 0 1-2.49627-6.90107h19.57026v-2.05595q0-6.91393-3.12448-10.62792a10.82233 10.82233 0 0 0-8.75806-3.70845m6.94347 12.33383h-14.47091a10.56337 10.56337 0 0 1 2.50914-6.1015 6.58621 6.58621 0 0 1 5.0183-2.17385 6.19951 6.19951 0 0 1 4.91327 2.06883 9.39252 9.39252 0 0 1 2.0302 5.83259zm25.33984-12.33447a10.52326 10.52326 0 0 0-8.65124 4.16536l-.16029-3.63109h-4.67191V214.656h4.93908v-20.5853a8.69707 8.69707 0 0 1 2.82966-3.364 7.131 7.131 0 0 1 4.21877-1.284 5.72525 5.72525 0 0 1 4.36613 1.49773 6.65561 6.65561 0 0 1 1.42773 4.61856v19.117h4.94094v-19.09127q-.0829-10.33222-9.23887-10.33135m23.61656 6.76806a6.91889 6.91889 0 0 1 5.8344-2.70991 6.59513 6.59513 0 0 1 4.71245 1.80171 6.80827 6.80827 0 0 1 2.12228 4.60563h4.672a10.40531 10.40531 0 0 0-3.43027-7.5569 11.59512 11.59512 0 0 0-8.07643-2.90893 12.61077 12.61077 0 0 0-6.84953 1.81645 11.79262 11.79262 0 0 0-4.44534 5.0975 17.41392 17.41392 0 0 0-1.54934 7.50349v.82718q0 6.83382 3.48554 10.77348a11.90323 11.90323 0 0 0 9.38627 3.93873 12.11437 12.11437 0 0 0 5.56544-1.33559 11.268 11.268 0 0 0 4.204-3.57768 8.95308 8.95308 0 0 0 1.70962-4.72723h-4.672a5.63539 5.63539 0 0 1-2.19042 4.00693 7.1135 7.1135 0 0 1-4.61671 1.60089 6.94856 6.94856 0 0 1-5.87493-2.69518q-2.05593-2.69709-2.056-7.68958v-.93586q0-5.12608 2.06888-7.83513m35.47153-6.76743a11.53141 11.53141 0 0 0-6.39447 1.90853 12.76462 12.76462 0 0 0-4.5909 5.28546 17.32009 17.32009 0 0 0-1.64328 7.67665v.90639q0 6.46352 3.6845 10.32213a12.63012 12.63012 0 0 0 9.55758 3.85581q7.26222 0 10.89508-5.58016l-3.01761-2.34886a11.14918 11.14918 0 0 1-3.17784 2.82972 8.59437 8.59437 0 0 1-4.43247 1.06848 7.84688 7.84688 0 0 1-6.0739-2.63076 10.2635 10.2635 0 0 1-2.49441-6.90107h19.57021v-2.05595q0-6.91393-3.12628-10.62792-3.12264-3.70848-8.75621-3.70845m6.94162 12.33383h-14.46906a10.563 10.563 0 0 1 2.50915-6.1015 6.58339 6.58339 0 0 1 5.01829-2.17385 6.1957 6.1957 0 0 1 4.91142 2.06883 9.39252 9.39252 0 0 1 2.0302 5.83259zM16.766 11.458h3.793v3.804h-3.793zm4.742 0h3.793v3.804h-3.793zm4.74 0h3.793v3.804h-3.793zm4.74 0h3.793v3.804h-3.793zm-14.222 4.755h3.793v3.802h-3.793zm4.742 0h3.793v3.802h-3.793zm4.74 0h3.793v3.802h-3.793zm4.74 0h3.793v3.802h-3.793zm-14.222 4.753h3.793v3.804h-3.793zm4.742 0h3.793v3.804h-3.793zm4.74 0h3.793v3.804h-3.793zm4.74 0h3.793v3.804h-3.793zm-14.222 4.757h3.793v3.804h-3.793zm4.742 0h3.793v3.804h-3.793zm4.74 0h3.793v3.804h-3.793zm4.74 0h3.793v3.804h-3.793zm6.637-14.265h3.793v3.804h-3.793zm4.741 0h3.793v3.804h-3.793zm4.742 0h3.793v3.804h-3.793zm4.74 0h3.793v3.804h-3.793zm-14.223 4.755h3.793v3.802h-3.793zm4.741 0h3.793v3.802h-3.793zm4.742 0h3.793v3.802h-3.793zm4.74 0h3.793v3.802h-3.793zm-14.223 4.753h3.793v3.804h-3.793zm4.741 0h3.793v3.804h-3.793zm4.742 0h3.793v3.804h-3.793zm4.74 0h3.793v3.804h-3.793zm-14.223 4.757h3.793v3.804h-3.793zm4.741 0h3.793v3.804h-3.793zm4.742-.002h3.793v3.804h-3.793zm4.74.002h3.793v3.804h-3.793zm6.635-14.265h3.793v3.804h-3.793zm4.742 0h3.793v3.804h-3.793zm4.74 0h3.793v3.804h-3.793zm4.742 0H76.5v3.804h-3.793zm-14.224 4.755h3.793v3.802h-3.793zm4.742 0h3.793v3.802h-3.793zm4.74 0h3.793v3.802h-3.793zm4.742 0H76.5v3.802h-3.793zm-14.224 4.753h3.793v3.804h-3.793zm4.742 0h3.793v3.804h-3.793zm4.74 0h3.793v3.804h-3.793zm4.742 0H76.5v3.804h-3.793zm-14.224 4.757h3.793v3.804h-3.793zm4.742 0h3.793v3.804h-3.793zm4.74 0h3.793v3.804h-3.793zm4.742-.002H76.5v3.804h-3.793zm6.636-14.263h3.793v3.804h-3.793zm4.742 0h3.793v3.804h-3.793zm4.74 0h3.793v3.804h-3.793zm4.74 0h3.793v3.804h-3.793zm-14.222 4.755h3.793v3.802h-3.793zm4.742 0h3.793v3.802h-3.793zm4.74 0h3.793v3.802h-3.793zm4.74 0h3.793v3.802h-3.793zm-14.222 4.753h3.793v3.804h-3.793zm4.742 0h3.793v3.804h-3.793zm4.74 0h3.793v3.804h-3.793zm4.74 0h3.793v3.804h-3.793zm-14.222 4.757h3.793v3.804h-3.793zm4.742 0h3.793v3.804h-3.793zm4.74-.002h3.793v3.804h-3.793zm4.74.002h3.793v3.804h-3.793zm-14.222 6.656h3.793v3.804h-3.793zm4.742 0h3.793v3.804h-3.793zm4.74 0h3.793v3.804h-3.793zm4.74 0h3.793v3.804h-3.793zm-14.222 4.755h3.793v3.802h-3.793zm4.742 0h3.793v3.802h-3.793zm4.74 0h3.793v3.802h-3.793zm4.74 0h3.793v3.802h-3.793zm-14.222 4.755h3.793v3.802h-3.793zm4.742 0h3.793v3.802h-3.793zm4.74 0h3.793v3.802h-3.793zm4.74 0h3.793v3.802h-3.793zm-14.222 4.753h3.793v3.804h-3.793zm4.742 0h3.793v3.804h-3.793zm4.74 0h3.793v3.804h-3.793zm4.74 0h3.793v3.804h-3.793zM58.483 53.3h3.793v3.804h-3.793zm4.742 0h3.793v3.804h-3.793zm4.74 0h3.793v3.804h-3.793zm4.742 0H76.5v3.804h-3.793zm-14.224 4.754h3.793v3.804h-3.793zm4.742 0h3.793v3.804h-3.793zm4.74 0h3.793v3.804h-3.793zm4.742 0H76.5v3.804h-3.793zm-14.224 4.755h3.793v3.802h-3.793zm4.742 0h3.793v3.802h-3.793zm4.74 0h3.793v3.802h-3.793zm4.742 0H76.5v3.802h-3.793zm-14.224 4.753h3.793v3.804h-3.793zm4.742 0h3.793v3.804h-3.793zm4.74 0h3.793v3.804h-3.793zm4.742 0H76.5v3.804h-3.793zM37.625 74.22h3.793v3.804h-3.793zm4.741 0h3.793v3.804h-3.793zm4.742 0h3.793v3.804h-3.793zm4.74 0h3.793v3.804h-3.793zm-14.223 4.755h3.793v3.804h-3.793zm4.741 0h3.793v3.804h-3.793zm4.742 0h3.793v3.804h-3.793zm4.74 0h3.793v3.804h-3.793zM37.625 83.73h3.793v3.802h-3.793zm4.741 0h3.793v3.802h-3.793zm4.742 0h3.793v3.802h-3.793zm4.74 0h3.793v3.802h-3.793zm-14.223 4.753h3.793v3.804h-3.793zm4.741 0h3.793v3.804h-3.793zm4.742 0h3.793v3.804h-3.793zm4.74 0h3.793v3.804h-3.793zm-35.082 6.658h3.793v3.804h-3.793zm4.742 0h3.793v3.804h-3.793zm4.74 0h3.793v3.804h-3.793zm4.74 0h3.793v3.804h-3.793zm-14.222 4.755h3.793v3.804h-3.793zm4.742 0h3.793v3.804h-3.793zm4.74 0h3.793v3.804h-3.793zm4.74 0h3.793v3.804h-3.793zm-14.222 4.754h3.793v3.802h-3.793zm4.742 0h3.793v3.802h-3.793zm4.74 0h3.793v3.802h-3.793zm4.74 0h3.793v3.802h-3.793zm-14.222 4.755h3.793v3.802h-3.793zm4.742 0h3.793v3.802h-3.793zm4.74 0h3.793v3.802h-3.793zm4.74 0h3.793v3.802h-3.793zm6.637 6.656h3.793v3.804h-3.793zm4.741 0h3.793v3.804h-3.793zm4.742 0h3.793v3.804h-3.793zm4.74 0h3.793v3.804h-3.793zm-14.223 4.755h3.793v3.802h-3.793zm4.741 0h3.793v3.802h-3.793zm4.742 0h3.793v3.802h-3.793zm4.74 0h3.793v3.802h-3.793zm-14.223 4.755h3.793v3.802h-3.793zm4.741 0h3.793v3.802h-3.793zm4.742 0h3.793v3.802h-3.793zm4.74 0h3.793v3.802h-3.793zm-14.223 4.755h3.793v3.802h-3.793zm4.741 0h3.793v3.802h-3.793zm4.742 0h3.793v3.802h-3.793zm4.74 0h3.793v3.802h-3.793zm6.635-14.265h3.793v3.804h-3.793zm4.742 0h3.793v3.804h-3.793zm4.74 0h3.793v3.804h-3.793zm4.742 0H76.5v3.804h-3.793zm-14.224 4.755h3.793v3.802h-3.793zm4.742 0h3.793v3.802h-3.793zm4.74 0h3.793v3.802h-3.793zm4.742 0H76.5v3.802h-3.793zm-14.224 4.755h3.793v3.802h-3.793zm4.742 0h3.793v3.802h-3.793zm4.74 0h3.793v3.802h-3.793zm4.742 0H76.5v3.802h-3.793zm-14.224 4.755h3.793v3.802h-3.793zm4.742 0h3.793v3.802h-3.793zm4.74 0h3.793v3.802h-3.793zm4.742 0H76.5v3.802h-3.793zm6.636-14.265h3.793v3.804h-3.793zm4.742 0h3.793v3.804h-3.793zm4.74 0h3.793v3.804h-3.793zm4.74 0h3.793v3.804h-3.793zm-14.222 4.755h3.793v3.802h-3.793zm4.742 0h3.793v3.802h-3.793zm4.74 0h3.793v3.802h-3.793zm4.74 0h3.793v3.802h-3.793zm-14.222 4.755h3.793v3.802h-3.793zm4.742 0h3.793v3.802h-3.793zm4.74 0h3.793v3.802h-3.793zm4.74 0h3.793v3.802h-3.793zm-14.222 4.755h3.793v3.802h-3.793zm4.742 0h3.793v3.802h-3.793zm4.74 0h3.793v3.802h-3.793zm4.74 0h3.793v3.802h-3.793zm27.774-118.868h3.793v3.804h-3.793zm4.74 0h3.793v3.804h-3.793zm4.74 0h3.793v3.804h-3.793zm4.742 0h3.793v3.804h-3.793zm-14.222 4.755h3.793v3.802h-3.793zm4.74 0h3.793v3.802h-3.793zm4.74 0h3.793v3.802h-3.793zm4.742 0h3.793v3.802h-3.793zm-14.222 4.753h3.793v3.804h-3.793zm4.74 0h3.793v3.804h-3.793zm4.74 0h3.793v3.804h-3.793zm4.742 0h3.793v3.804h-3.793zm-14.222 4.755h3.793v3.804h-3.793zm4.74.002h3.793v3.804h-3.793zm4.74 0h3.793v3.804h-3.793zm4.742 0h3.793v3.804h-3.793zm6.636-14.265h3.793v3.804h-3.793zm4.742 0h3.793v3.804h-3.793zm4.74 0h3.793v3.804h-3.793zm4.74 0h3.793v3.804h-3.793zm-14.222 4.755h3.793v3.802h-3.793zm4.742 0h3.793v3.802h-3.793zm4.74 0h3.793v3.802h-3.793zm4.74 0h3.793v3.802h-3.793zm-14.222 4.753h3.793v3.804h-3.793zm4.742 0h3.793v3.804h-3.793zm4.74 0h3.793v3.804h-3.793zm4.74 0h3.793v3.804h-3.793zm-14.222 4.757h3.793v3.804h-3.793zm4.742-.002h3.793v3.804h-3.793zm4.74.002h3.793v3.804h-3.793zm4.74 0h3.793v3.804h-3.793zm6.638-14.265h3.793v3.804h-3.793zm4.74 0h3.793v3.804h-3.793zm4.742 0h3.793v3.804h-3.793zm4.742 0h3.793v3.804h-3.793zm-14.224 4.755h3.793v3.802h-3.793zm4.74 0h3.793v3.802h-3.793zm4.742 0h3.793v3.802h-3.793zm4.742 0h3.793v3.802h-3.793zm-14.224 4.753h3.793v3.804h-3.793zm4.74 0h3.793v3.804h-3.793zm4.742 0h3.793v3.804h-3.793zm4.742 0h3.793v3.804h-3.793zm-14.224 4.757h3.793v3.804h-3.793zm4.74 0h3.793v3.804h-3.793zm4.742 0h3.793v3.804h-3.793zm4.742-.002h3.793v3.804h-3.793zm-35.084 6.658h3.793v3.804h-3.793zm4.742 0h3.793v3.804h-3.793zm4.74 0h3.793v3.804h-3.793zm4.74 0h3.793v3.804h-3.793zm-14.222 4.755h3.793v3.802h-3.793zm4.742 0h3.793v3.802h-3.793zm4.74 0h3.793v3.802h-3.793zm4.74 0h3.793v3.802h-3.793zm-14.222 4.755h3.793v3.802h-3.793zm4.742 0h3.793v3.802h-3.793zm4.74 0h3.793v3.802h-3.793zm4.74 0h3.793v3.802h-3.793zm-14.222 4.753h3.793v3.804h-3.793zm4.742 0h3.793v3.804h-3.793zm4.74 0h3.793v3.804h-3.793zm4.74 0h3.793v3.804h-3.793zM142.197 53.3h3.793v3.804h-3.793zm4.742 0h3.793v3.804h-3.793zm4.74 0h3.793v3.804h-3.793zm4.74 0h3.793v3.804h-3.793zm-14.222 4.754h3.793v3.804h-3.793zm4.742 0h3.793v3.804h-3.793zm4.74 0h3.793v3.804h-3.793zm4.74 0h3.793v3.804h-3.793zm-14.222 4.755h3.793v3.802h-3.793zm4.742 0h3.793v3.802h-3.793zm4.74 0h3.793v3.802h-3.793zm4.74 0h3.793v3.802h-3.793zm-14.222 4.753h3.793v3.804h-3.793zm4.742 0h3.793v3.804h-3.793zm4.74 0h3.793v3.804h-3.793zm4.74 0h3.793v3.804h-3.793zm-14.222 6.658h3.793v3.804h-3.793zm4.742 0h3.793v3.804h-3.793zm4.74 0h3.793v3.804h-3.793zm4.74 0h3.793v3.804h-3.793zm-14.222 4.755h3.793v3.804h-3.793zm4.742 0h3.793v3.804h-3.793zm4.74 0h3.793v3.804h-3.793zm4.74 0h3.793v3.804h-3.793zm-14.222 4.755h3.793v3.802h-3.793zm4.742 0h3.793v3.802h-3.793zm4.74 0h3.793v3.802h-3.793zm4.74 0h3.793v3.802h-3.793zm-14.222 4.753h3.793v3.804h-3.793zm4.742 0h3.793v3.804h-3.793zm4.74 0h3.793v3.804h-3.793zm4.74 0h3.793v3.804h-3.793zm-14.222 6.658h3.793v3.804h-3.793zm4.742 0h3.793v3.804h-3.793zm4.74 0h3.793v3.804h-3.793zm4.74 0h3.793v3.804h-3.793zm-14.222 4.755h3.793v3.804h-3.793zm4.742 0h3.793v3.804h-3.793zm4.74 0h3.793v3.804h-3.793zm4.74 0h3.793v3.804h-3.793zm-14.222 4.754h3.793v3.802h-3.793zm4.742.001h3.793v3.802h-3.793zm4.74-.001h3.793v3.802h-3.793zm4.74 0h3.793v3.802h-3.793zm-14.222 4.755h3.793v3.802h-3.793zm4.742 0h3.793v3.802h-3.793zm4.74 0h3.793v3.802h-3.793zm4.74 0h3.793v3.802h-3.793zm-35.08 6.656h3.793v3.804h-3.793zm4.74 0h3.793v3.804h-3.793zm4.74 0h3.793v3.804h-3.793zm4.742 0h3.793v3.804h-3.793zm-14.222 4.755h3.793v3.802h-3.793zm4.74 0h3.793v3.802h-3.793zm4.74 0h3.793v3.802h-3.793zm4.742 0h3.793v3.802h-3.793zm-14.222 4.755h3.793v3.802h-3.793zm4.74 0h3.793v3.802h-3.793zm4.74 0h3.793v3.802h-3.793zm4.742 0h3.793v3.802h-3.793zm-14.222 4.755h3.793v3.802h-3.793zm4.74 0h3.793v3.802h-3.793zm4.74 0h3.793v3.802h-3.793zm4.742 0h3.793v3.802h-3.793zm6.636-14.265h3.793v3.804h-3.793zm4.742 0h3.793v3.804h-3.793zm4.74 0h3.793v3.804h-3.793zm4.74 0h3.793v3.804h-3.793zm-14.222 4.755h3.793v3.802h-3.793zm4.742 0h3.793v3.802h-3.793zm4.74 0h3.793v3.802h-3.793zm4.74 0h3.793v3.802h-3.793zm-14.222 4.755h3.793v3.802h-3.793zm4.742 0h3.793v3.802h-3.793zm4.74 0h3.793v3.802h-3.793zm4.74 0h3.793v3.802h-3.793zm-14.222 4.755h3.793v3.802h-3.793zm4.742 0h3.793v3.802h-3.793zm4.74 0h3.793v3.802h-3.793zm4.74 0h3.793v3.802h-3.793zm6.638-14.265h3.793v3.804h-3.793zm4.74 0h3.793v3.804h-3.793zm4.742 0h3.793v3.804h-3.793zm4.742 0h3.793v3.804h-3.793zm-14.224 4.755h3.793v3.802h-3.793zm4.74 0h3.793v3.802h-3.793zm4.742 0h3.793v3.802h-3.793zm4.742 0h3.793v3.802h-3.793zm-14.224 4.755h3.793v3.802h-3.793zm4.74 0h3.793v3.802h-3.793zm4.742 0h3.793v3.802h-3.793zm4.742 0h3.793v3.802h-3.793zm-14.224 4.755h3.793v3.802h-3.793zm4.74 0h3.793v3.802h-3.793zm4.742 0h3.793v3.802h-3.793zm4.742 0h3.793v3.802h-3.793zm27.772-118.868h3.793v3.804h-3.793zm4.74 0h3.793v3.804h-3.793zm4.74 0h3.793v3.804h-3.793zm4.74 0h3.793v3.804h-3.793zm-14.22 4.755h3.793v3.802h-3.793zm4.74 0h3.793v3.802h-3.793zm4.74 0h3.793v3.802h-3.793zm4.74 0h3.793v3.802h-3.793zm-14.22 4.753h3.793v3.804h-3.793zm4.74 0h3.793v3.804h-3.793zm4.74 0h3.793v3.804h-3.793zm4.74 0h3.793v3.804h-3.793zm-14.22 4.755h3.793v3.804h-3.793zm4.74 0h3.793v3.804h-3.793zm4.74.002h3.793v3.804h-3.793zm4.74 0h3.793v3.804h-3.793zm-14.22 6.656h3.793v3.804h-3.793zm4.74 0h3.793v3.804h-3.793zm4.74 0h3.793v3.804h-3.793zm4.74 0h3.793v3.804h-3.793zm-14.22 4.755h3.793v3.802h-3.793zm4.74 0h3.793v3.802h-3.793zm4.74 0h3.793v3.802h-3.793zm4.74 0h3.793v3.802h-3.793zm-14.22 4.755h3.793v3.802h-3.793zm4.74 0h3.793v3.802h-3.793zm4.74 0h3.793v3.802h-3.793zm4.74 0h3.793v3.802h-3.793zm-14.22 4.753h3.793v3.804h-3.793zm4.74 0h3.793v3.804h-3.793zm4.74 0h3.793v3.804h-3.793zm4.74 0h3.793v3.804h-3.793zm-14.22 6.658h3.793v3.804h-3.793zm4.74 0h3.793v3.804h-3.793zm4.74 0h3.793v3.804h-3.793zm4.74 0h3.793v3.804h-3.793zm-14.22 4.754h3.793v3.804h-3.793zm4.74 0h3.793v3.804h-3.793zm4.74 0h3.793v3.804h-3.793zm4.74 0h3.793v3.804h-3.793zm-14.22 4.755h3.793v3.802h-3.793zm4.74 0h3.793v3.802h-3.793zm4.74 0h3.793v3.802h-3.793zm4.74 0h3.793v3.802h-3.793zm-14.22 4.753h3.793v3.804h-3.793zm4.74 0h3.793v3.804h-3.793zm4.74 0h3.793v3.804h-3.793zm4.74 0h3.793v3.804h-3.793zm-14.22 6.658h3.793v3.804h-3.793zm4.74 0h3.793v3.804h-3.793zm4.74 0h3.793v3.804h-3.793zm4.74 0h3.793v3.804h-3.793zm-14.22 4.755h3.793v3.804h-3.793zm4.74 0h3.793v3.804h-3.793zm4.74 0h3.793v3.804h-3.793zm4.74 0h3.793v3.804h-3.793zm-14.22 4.755h3.793v3.802h-3.793zm4.74 0h3.793v3.802h-3.793zm4.74 0h3.793v3.802h-3.793zm4.74 0h3.793v3.802h-3.793zm-14.22 4.753h3.793v3.804h-3.793zm4.74 0h3.793v3.804h-3.793zm4.74 0h3.793v3.804h-3.793zm4.74 0h3.793v3.804h-3.793zm-14.22 6.658h3.793v3.804h-3.793zm4.74 0h3.793v3.804h-3.793zm4.74 0h3.793v3.804h-3.793zm4.74 0h3.793v3.804h-3.793zm-14.22 4.755h3.793v3.804h-3.793zm4.74 0h3.793v3.804h-3.793zm4.74 0h3.793v3.804h-3.793zm4.74 0h3.793v3.804h-3.793zm-14.22 4.755h3.793v3.802h-3.793zm4.74 0h3.793v3.802h-3.793zm4.74-.001h3.793v3.802h-3.793zm4.74 0h3.793v3.802h-3.793zm-14.22 4.755h3.793v3.802h-3.793zm4.74 0h3.793v3.802h-3.793zm4.74 0h3.793v3.802h-3.793zm4.74 0h3.793v3.802h-3.793zm48.358-14.264h3.793v3.804h-3.793zm4.74 0h3.793v3.804h-3.793zm4.742 0h3.793v3.804h-3.793zm4.74 0h3.793v3.804h-3.793zm-14.222 4.755h3.793v3.804h-3.793zm4.74 0h3.793v3.804h-3.793zm4.742 0h3.793v3.804h-3.793zm4.74 0h3.793v3.804h-3.793zm-14.222 4.754h3.793v3.802h-3.793zm4.74 0h3.793v3.802h-3.793zm4.742.001h3.793v3.802h-3.793zm4.74 0h3.793v3.802h-3.793zm-14.222 4.754h3.793v3.802h-3.793zm4.74 0h3.793v3.802h-3.793zm4.742 0h3.793v3.802h-3.793zm4.74 0h3.793v3.802h-3.793zm-76.8 6.656h3.793v3.804h-3.793zm4.74 0h3.793v3.804h-3.793zm4.74 0h3.793v3.804h-3.793zm4.74 0h3.793v3.804h-3.793zm-14.22 4.755h3.793v3.802h-3.793zm4.74 0h3.793v3.802h-3.793zm4.74 0h3.793v3.802h-3.793zm4.74 0h3.793v3.802h-3.793zm-14.22 4.755h3.793v3.802h-3.793zm4.74 0h3.793v3.802h-3.793zm4.74 0h3.793v3.802h-3.793zm4.74 0h3.793v3.802h-3.793zm-14.22 4.755h3.793v3.802h-3.793zm4.74 0h3.793v3.802h-3.793zm4.74 0h3.793v3.802h-3.793zm4.74 0h3.793v3.802h-3.793zm6.64-14.265h3.793v3.804h-3.793zm4.74 0h3.793v3.804h-3.793zm4.74 0h3.793v3.804h-3.793zm4.74 0h3.793v3.804h-3.793zm-14.22 4.755h3.793v3.802h-3.793zm4.74 0h3.793v3.802h-3.793zm4.74 0h3.793v3.802h-3.793zm4.74 0h3.793v3.802h-3.793zm-14.22 4.755h3.793v3.802h-3.793zm4.74 0h3.793v3.802h-3.793zm4.74 0h3.793v3.802h-3.793zm4.74 0h3.793v3.802h-3.793zm-14.22 4.755h3.793v3.802h-3.793zm4.74 0h3.793v3.802h-3.793zm4.74 0h3.793v3.802h-3.793zm4.74 0h3.793v3.802h-3.793zm6.638-14.265h3.793v3.804h-3.793zm4.74 0h3.793v3.804h-3.793zm4.74 0h3.793v3.804h-3.793zm4.742 0h3.793v3.804h-3.793zm-14.222 4.755h3.793v3.802h-3.793zm4.74 0h3.793v3.802h-3.793zm4.74 0h3.793v3.802h-3.793zm4.742 0h3.793v3.802h-3.793zm-14.222 4.755h3.793v3.802h-3.793zm4.74 0h3.793v3.802h-3.793zm4.74 0h3.793v3.802h-3.793zm4.742 0h3.793v3.802h-3.793zm-14.222 4.755h3.793v3.802h-3.793zm4.74 0h3.793v3.802h-3.793zm4.74 0h3.793v3.802h-3.793zm4.742 0h3.793v3.802h-3.793zm6.638-14.265h3.793v3.804h-3.793zm4.74 0h3.793v3.804h-3.793zm4.742 0h3.793v3.804h-3.793zm4.74 0h3.793v3.804h-3.793zm-14.222 4.755h3.793v3.802h-3.793zm4.74 0h3.793v3.802h-3.793zm4.742 0h3.793v3.802h-3.793zm4.74 0h3.793v3.802h-3.793zm-14.222 4.755h3.793v3.802h-3.793zm4.74 0h3.793v3.802h-3.793zm4.742 0h3.793v3.802h-3.793zm4.74 0h3.793v3.802h-3.793zm-14.222 4.755h3.793v3.802h-3.793zm4.74 0h3.793v3.802h-3.793zm4.742 0h3.793v3.802h-3.793zm4.74 0h3.793v3.802h-3.793zm27.803-118.868h3.793v3.804h-3.793zm4.74 0h3.793v3.804h-3.793zm4.74 0h3.793v3.804h-3.793zm4.74 0h3.793v3.804h-3.793zm-14.22 4.755h3.793v3.802h-3.793zm4.74 0h3.793v3.802h-3.793zm4.74 0h3.793v3.802h-3.793zm4.74 0h3.793v3.802h-3.793zm-14.22 4.753h3.793v3.804h-3.793zm4.74 0h3.793v3.804h-3.793zm4.74 0h3.793v3.804h-3.793zm4.74 0h3.793v3.804h-3.793zm-14.22 4.755h3.793v3.804h-3.793zm4.74.002h3.793v3.804h-3.793zm4.74 0h3.793v3.804h-3.793zm4.74 0h3.793v3.804h-3.793zm-14.22 6.656h3.793v3.804h-3.793zm4.74 0h3.793v3.804h-3.793zm4.74 0h3.793v3.804h-3.793zm4.74 0h3.793v3.804h-3.793zm-14.22 4.755h3.793v3.802h-3.793zm4.74 0h3.793v3.802h-3.793zm4.74 0h3.793v3.802h-3.793zm4.74 0h3.793v3.802h-3.793zm-14.22 4.755h3.793v3.802h-3.793zm4.74 0h3.793v3.802h-3.793zm4.74 0h3.793v3.802h-3.793zm4.74 0h3.793v3.802h-3.793zm-14.22 4.753h3.793v3.804h-3.793zm4.74 0h3.793v3.804h-3.793zm4.74 0h3.793v3.804h-3.793zm4.74 0h3.793v3.804h-3.793zm-14.22 6.658h3.793v3.804h-3.793zm4.74 0h3.793v3.804h-3.793zm4.74 0h3.793v3.804h-3.793zm4.74 0h3.793v3.804h-3.793zm-14.22 4.754h3.793v3.804h-3.793zm4.74 0h3.793v3.804h-3.793zm4.74 0h3.793v3.804h-3.793zm4.74 0h3.793v3.804h-3.793zm-14.22 4.755h3.793v3.802h-3.793zm4.74 0h3.793v3.802h-3.793zm4.74 0h3.793v3.802h-3.793zm4.74 0h3.793v3.802h-3.793zm-14.22 4.753h3.793v3.804h-3.793zm4.74 0h3.793v3.804h-3.793zm4.74 0h3.793v3.804h-3.793zm4.74 0h3.793v3.804h-3.793zm-14.22 6.658h3.793v3.804h-3.793zm4.74 0h3.793v3.804h-3.793zm4.74 0h3.793v3.804h-3.793zm4.74 0h3.793v3.804h-3.793zm-14.22 4.755h3.793v3.804h-3.793zm4.74 0h3.793v3.804h-3.793zm4.74 0h3.793v3.804h-3.793zm4.74 0h3.793v3.804h-3.793zm-14.22 4.755h3.793v3.802h-3.793zm4.74 0h3.793v3.802h-3.793zm4.74 0h3.793v3.802h-3.793zm4.74 0h3.793v3.802h-3.793zm-14.22 4.753h3.793v3.804h-3.793zm4.74 0h3.793v3.804h-3.793zm4.74 0h3.793v3.804h-3.793zm4.74 0h3.793v3.804h-3.793zm-14.22 6.658h3.793v3.804h-3.793zm4.74 0h3.793v3.804h-3.793zm4.74 0h3.793v3.804h-3.793zm4.74 0h3.793v3.804h-3.793zm-14.22 4.755h3.793v3.804h-3.793zm4.74 0h3.793v3.804h-3.793zm4.74 0h3.793v3.804h-3.793zm4.74 0h3.793v3.804h-3.793zm-14.22 4.755h3.793v3.802h-3.793zm4.74-.001h3.793v3.802h-3.793zm4.74 0h3.793v3.802h-3.793zm4.74 0h3.793v3.802h-3.793zm-14.22 4.755h3.793v3.802h-3.793zm4.74 0h3.793v3.802h-3.793zm4.74 0h3.793v3.802h-3.793zm4.74 0h3.793v3.802h-3.793zm48.358-14.264h3.793v3.804h-3.793zm4.74 0h3.793v3.804h-3.793zm4.74 0h3.793v3.804h-3.793zm4.74 0h3.795v3.804h-3.795zm-14.22 4.755h3.793v3.804h-3.793zm4.74 0h3.793v3.804h-3.793zm4.74 0h3.793v3.804h-3.793zm4.74 0h3.795v3.804h-3.795zm-14.22 4.755h3.793v3.802h-3.793zm4.74 0h3.793v3.802h-3.793zm4.74-.001h3.793v3.802h-3.793zm4.74 0h3.795v3.802h-3.795zm-14.22 4.755h3.793v3.802h-3.793zm4.74 0h3.793v3.802h-3.793zm4.74 0h3.793v3.802h-3.793zm4.74 0h3.795v3.802h-3.795zm-76.798 6.656h3.793v3.804h-3.793zm4.74 0h3.793v3.804h-3.793zm4.74 0h3.793v3.804h-3.793zm4.74 0h3.793v3.804h-3.793zm-14.22 4.755h3.793v3.802h-3.793zm4.74 0h3.793v3.802h-3.793zm4.74 0h3.793v3.802h-3.793zm4.74 0h3.793v3.802h-3.793zm-14.22 4.755h3.793v3.802h-3.793zm4.74 0h3.793v3.802h-3.793zm4.74 0h3.793v3.802h-3.793zm4.74 0h3.793v3.802h-3.793zm-14.22 4.755h3.793v3.802h-3.793zm4.74 0h3.793v3.802h-3.793zm4.74 0h3.793v3.802h-3.793zm4.74 0h3.793v3.802h-3.793zm6.638-14.265h3.793v3.804h-3.793zm4.74 0h3.793v3.804h-3.793zm4.74 0h3.793v3.804h-3.793zm4.742 0h3.795v3.804h-3.795zm-14.222 4.755h3.793v3.802h-3.793zm4.74 0h3.793v3.802h-3.793zm4.74 0h3.793v3.802h-3.793zm4.742 0h3.795v3.802h-3.795zm-14.222 4.755h3.793v3.802h-3.793zm4.74 0h3.793v3.802h-3.793zm4.74 0h3.793v3.802h-3.793zm4.742 0h3.795v3.802h-3.795zm-14.222 4.755h3.793v3.802h-3.793zm4.74 0h3.793v3.802h-3.793zm4.74 0h3.793v3.802h-3.793zm4.742 0h3.795v3.802h-3.795zm6.638-14.265h3.793v3.804h-3.793zm4.74 0h3.793v3.804h-3.793zm4.742 0h3.793v3.804h-3.793zm4.74 0h3.793v3.804h-3.793zm-14.222 4.755h3.793v3.802h-3.793zm4.74 0h3.793v3.802h-3.793zm4.742 0h3.793v3.802h-3.793zm4.74 0h3.793v3.802h-3.793zm-14.222 4.755h3.793v3.802h-3.793zm4.74 0h3.793v3.802h-3.793zm4.742 0h3.793v3.802h-3.793zm4.74 0h3.793v3.802h-3.793zm-14.222 4.755h3.793v3.802h-3.793zm4.74 0h3.793v3.802h-3.793zm4.742 0h3.793v3.802h-3.793zm4.74 0h3.793v3.802h-3.793zm6.638-14.265h3.793v3.804h-3.793zm4.74 0h3.793v3.804h-3.793zm4.74 0h3.793v3.804h-3.793zm4.74 0h3.795v3.804h-3.795zm-14.22 4.755h3.793v3.802h-3.793zm4.74 0h3.793v3.802h-3.793zm4.74 0h3.793v3.802h-3.793zm4.74 0h3.795v3.802h-3.795zm-14.22 4.755h3.793v3.802h-3.793zm4.74 0h3.793v3.802h-3.793zm4.74 0h3.793v3.802h-3.793zm4.74 0h3.795v3.802h-3.795zm-14.22 4.755h3.793v3.802h-3.793zm4.74 0h3.793v3.802h-3.793zm4.74 0h3.793v3.802h-3.793zm4.74 0h3.795v3.802h-3.795zm27.772-118.868h3.795v3.804h-3.795zm4.744 0h3.793v3.804h-3.793zm4.74 0h3.793v3.804h-3.793zm4.74 0h3.793v3.804h-3.793zm-14.224 4.755h3.795v3.802h-3.795zm4.744 0h3.793v3.802h-3.793zm4.74 0h3.793v3.802h-3.793zm4.74 0h3.793v3.802h-3.793zm-14.224 4.753h3.795v3.804h-3.795zm4.744 0h3.793v3.804h-3.793zm4.74 0h3.793v3.804h-3.793zm4.74 0h3.793v3.804h-3.793zm-14.224 4.757h3.795v3.804h-3.795zm4.744 0h3.793v3.804h-3.793zm4.74 0h3.793v3.804h-3.793zm4.74 0h3.793v3.804h-3.793zm6.638-14.265h3.793v3.804h-3.793zm4.74 0h3.793v3.804h-3.793zm4.74 0h3.793v3.804h-3.793zm4.742 0h3.793v3.804h-3.793zm-14.222 4.755h3.793v3.802h-3.793zm4.74 0h3.793v3.802h-3.793zm4.74 0h3.793v3.802h-3.793zm4.742 0h3.793v3.802h-3.793zm-14.222 4.753h3.793v3.804h-3.793zm4.74 0h3.793v3.804h-3.793zm4.74 0h3.793v3.804h-3.793zm4.742 0h3.793v3.804h-3.793zm-14.222 4.757h3.793v3.804h-3.793zm4.74-.002h3.793v3.804h-3.793zm4.74.002h3.793v3.804h-3.793zm4.742-.002h3.793v3.804h-3.793zm6.636-14.263h3.795v3.804h-3.795zm4.742 0h3.793v3.804h-3.793zm4.74 0h3.793v3.804h-3.793zm4.742 0h3.793v3.804h-3.793zm-14.224 4.755h3.795v3.802h-3.795zm4.742 0h3.793v3.802h-3.793zm4.74 0h3.793v3.802h-3.793zm4.742 0h3.793v3.802h-3.793zm-14.224 4.753h3.795v3.804h-3.795zm4.742 0h3.793v3.804h-3.793zm4.74 0h3.793v3.804h-3.793zm4.742 0h3.793v3.804h-3.793zm-14.224 4.755h3.795v3.804h-3.795zm4.742.002h3.793v3.804h-3.793zm4.74 0h3.793v3.804h-3.793zm4.742 0h3.793v3.804h-3.793zm-35.082 6.656h3.793v3.804h-3.793zm4.74 0h3.793v3.804h-3.793zm4.74 0h3.793v3.804h-3.793zm4.742 0h3.793v3.804h-3.793zm-14.222 4.755h3.793v3.802h-3.793zm4.74 0h3.793v3.802h-3.793zm4.74 0h3.793v3.802h-3.793zm4.742 0h3.793v3.802h-3.793zm-14.222 4.755h3.793v3.802h-3.793zm4.74 0h3.793v3.802h-3.793zm4.74 0h3.793v3.802h-3.793zm4.742 0h3.793v3.802h-3.793zm-14.222 4.753h3.793v3.804h-3.793zm4.74 0h3.793v3.804h-3.793zm4.74 0h3.793v3.804h-3.793zm4.742 0h3.793v3.804h-3.793zM435.088 53.3h3.793v3.804h-3.793zm4.74 0h3.793v3.804h-3.793zm4.74 0h3.793v3.804h-3.793zm4.742 0h3.793v3.804h-3.793zm-14.222 4.754h3.793v3.804h-3.793zm4.74 0h3.793v3.804h-3.793zm4.74 0h3.793v3.804h-3.793zm4.742 0h3.793v3.804h-3.793zm-14.222 4.755h3.793v3.802h-3.793zm4.74 0h3.793v3.802h-3.793zm4.74 0h3.793v3.802h-3.793zm4.742 0h3.793v3.802h-3.793zm-14.222 4.753h3.793v3.804h-3.793zm4.74 0h3.793v3.804h-3.793zm4.74 0h3.793v3.804h-3.793zm4.742 0h3.793v3.804h-3.793zm-14.222 6.658h3.793v3.804h-3.793zm4.74 0h3.793v3.804h-3.793zm4.74 0h3.793v3.804h-3.793zm4.742 0h3.793v3.804h-3.793zm-14.222 4.755h3.793v3.804h-3.793zm4.74 0h3.793v3.804h-3.793zm4.74 0h3.793v3.804h-3.793zm4.742 0h3.793v3.804h-3.793zm-14.222 4.755h3.793v3.802h-3.793zm4.74 0h3.793v3.802h-3.793zm4.74 0h3.793v3.802h-3.793zm4.742 0h3.793v3.802h-3.793zm-14.222 4.753h3.793v3.804h-3.793zm4.74 0h3.793v3.804h-3.793zm4.74 0h3.793v3.804h-3.793zm4.742 0h3.793v3.804h-3.793zm-14.222 6.658h3.793v3.804h-3.793zm4.74 0h3.793v3.804h-3.793zm4.74 0h3.793v3.804h-3.793zm4.742 0h3.793v3.804h-3.793zm-14.222 4.755h3.793v3.804h-3.793zm4.74 0h3.793v3.804h-3.793zm4.74 0h3.793v3.804h-3.793zm4.742 0h3.793v3.804h-3.793zm-14.222 4.754h3.793v3.802h-3.793zm4.74.001h3.793v3.802h-3.793zm4.74-.001h3.793v3.802h-3.793zm4.742.001h3.793v3.802h-3.793zm-14.222 4.754h3.793v3.802h-3.793zm4.74 0h3.793v3.802h-3.793zm4.74 0h3.793v3.802h-3.793zm4.742 0h3.793v3.802h-3.793zm-35.084 6.656h3.795v3.804h-3.795zm4.744 0h3.793v3.804h-3.793zm4.74 0h3.793v3.804h-3.793zm4.74 0h3.793v3.804h-3.793zm-14.224 4.755h3.795v3.802h-3.795zm4.744 0h3.793v3.802h-3.793zm4.74 0h3.793v3.802h-3.793zm4.74 0h3.793v3.802h-3.793zm-14.224 4.755h3.795v3.802h-3.795zm4.744 0h3.793v3.802h-3.793zm4.74 0h3.793v3.802h-3.793zm4.74 0h3.793v3.802h-3.793zm-14.224 4.755h3.795v3.802h-3.795zm4.744 0h3.793v3.802h-3.793zm4.74 0h3.793v3.802h-3.793zm4.74 0h3.793v3.802h-3.793zm6.638-14.265h3.793v3.804h-3.793zm4.74 0h3.793v3.804h-3.793zm4.74 0h3.793v3.804h-3.793zm4.742 0h3.793v3.804h-3.793zm-14.222 4.755h3.793v3.802h-3.793zm4.74 0h3.793v3.802h-3.793zm4.74 0h3.793v3.802h-3.793zm4.742 0h3.793v3.802h-3.793zm-14.222 4.755h3.793v3.802h-3.793zm4.74 0h3.793v3.802h-3.793zm4.74 0h3.793v3.802h-3.793zm4.742 0h3.793v3.802h-3.793zm-14.222 4.755h3.793v3.802h-3.793zm4.74 0h3.793v3.802h-3.793zm4.74 0h3.793v3.802h-3.793zm4.742 0h3.793v3.802h-3.793zm6.636-14.265h3.795v3.804h-3.795zm4.742 0h3.793v3.804h-3.793zm4.74 0h3.793v3.804h-3.793zm4.742 0h3.793v3.804h-3.793zm-14.224 4.755h3.795v3.802h-3.795zm4.742 0h3.793v3.802h-3.793zm4.74 0h3.793v3.802h-3.793zm4.742 0h3.793v3.802h-3.793zm-14.224 4.755h3.795v3.802h-3.795zm4.742 0h3.793v3.802h-3.793zm4.74 0h3.793v3.802h-3.793zm4.742 0h3.793v3.802h-3.793zm-14.224 4.755h3.795v3.802h-3.795zm4.742 0h3.793v3.802h-3.793zm4.74 0h3.793v3.802h-3.793zm4.742 0h3.793v3.802h-3.793zm27.772-118.868h3.793v3.804h-3.793zm4.74 0h3.793v3.804h-3.793zm4.74 0h3.793v3.804h-3.793zm4.742 0h3.793v3.804h-3.793zm-14.222 4.755h3.793v3.802h-3.793zm4.74 0h3.793v3.802h-3.793zm4.74 0h3.793v3.802h-3.793zm4.742 0h3.793v3.802h-3.793zm-14.222 4.753h3.793v3.804h-3.793zm4.74 0h3.793v3.804h-3.793zm4.74 0h3.793v3.804h-3.793zm4.742 0h3.793v3.804h-3.793zm-14.222 4.757h3.793v3.804h-3.793zm4.74 0h3.793v3.804h-3.793zm4.74 0h3.793v3.804h-3.793zm4.742-.002h3.793v3.804h-3.793zm6.636-14.263h3.793v3.804H518.8zm4.74 0h3.793v3.804h-3.793zm4.742 0h3.795v3.804h-3.795zm4.742 0h3.793v3.804h-3.793zM518.8 16.213h3.793v3.802H518.8zm4.74 0h3.793v3.802h-3.793zm4.742 0h3.795v3.802h-3.795zm4.742 0h3.793v3.802h-3.793zM518.8 20.966h3.793v3.804H518.8zm4.74 0h3.793v3.804h-3.793zm4.742 0h3.795v3.804h-3.795zm4.742 0h3.793v3.804h-3.793zM518.8 25.723h3.793v3.804H518.8zm4.74 0h3.793v3.804h-3.793zm4.742 0h3.795v3.804h-3.795zm4.742 0h3.793v3.804h-3.793zm6.635-14.265h3.793v3.804h-3.793zm4.742 0h3.793v3.804h-3.793zm4.74 0h3.793v3.804h-3.793zm4.741 0h3.793v3.804h-3.793zm-14.223 4.755h3.793v3.802h-3.793zm4.742 0h3.793v3.802h-3.793zm4.74 0h3.793v3.802h-3.793zm4.741 0h3.793v3.802h-3.793zm-14.223 4.753h3.793v3.804h-3.793zm4.742 0h3.793v3.804h-3.793zm4.74 0h3.793v3.804h-3.793zm4.741 0h3.793v3.804h-3.793zm-14.223 4.757h3.793v3.804h-3.793zm4.742-.002h3.793v3.804h-3.793zm4.74.002h3.793v3.804h-3.793zm4.741 0h3.793v3.804h-3.793zm6.637-14.265h3.793v3.804h-3.793zm4.74 0h3.793v3.804h-3.793zm4.74 0h3.795v3.804h-3.795zm4.744 0h3.793v3.804h-3.793zm-14.224 4.755h3.793v3.802h-3.793zm4.74 0h3.793v3.802h-3.793zm4.74 0h3.795v3.802h-3.795zm4.744 0h3.793v3.802h-3.793zm-14.224 4.753h3.793v3.804h-3.793zm4.74 0h3.793v3.804h-3.793zm4.74 0h3.795v3.804h-3.795zm4.744 0h3.793v3.804h-3.793zm-14.224 4.757h3.793v3.804h-3.793zm4.74 0h3.793v3.804h-3.793zm4.74 0h3.795v3.804h-3.795zm4.744-.002h3.793v3.804h-3.793zm-14.224 6.658h3.793v3.804h-3.793zm4.74 0h3.793v3.804h-3.793zm4.74 0h3.795v3.804h-3.795zm4.744 0h3.793v3.804h-3.793zm-14.224 4.755h3.793v3.802h-3.793zm4.74 0h3.793v3.802h-3.793zm4.74 0h3.795v3.802h-3.795zm4.744 0h3.793v3.802h-3.793zm-14.224 4.755h3.793v3.802h-3.793zm4.74 0h3.793v3.802h-3.793zm4.74 0h3.795v3.802h-3.795zm4.744 0h3.793v3.802h-3.793zm-14.224 4.753h3.793v3.804h-3.793zm4.74 0h3.793v3.804h-3.793zm4.74 0h3.795v3.804h-3.795zm4.744 0h3.793v3.804h-3.793zM539.659 53.3h3.793v3.804h-3.793zm4.742 0h3.793v3.804h-3.793zm4.74 0h3.793v3.804h-3.793zm4.741 0h3.793v3.804h-3.793zm-14.223 4.754h3.793v3.804h-3.793zm4.742 0h3.793v3.804h-3.793zm4.74 0h3.793v3.804h-3.793zm4.741 0h3.793v3.804h-3.793zm-14.223 4.755h3.793v3.802h-3.793zm4.742 0h3.793v3.802h-3.793zm4.74 0h3.793v3.802h-3.793zm4.741 0h3.793v3.802h-3.793zm-14.223 4.753h3.793v3.804h-3.793zm4.742 0h3.793v3.804h-3.793zm4.74 0h3.793v3.804h-3.793zm4.741 0h3.793v3.804h-3.793zM518.8 74.22h3.793v3.804H518.8zm4.74 0h3.793v3.804h-3.793zm4.742 0h3.795v3.804h-3.795zm4.742 0h3.793v3.804h-3.793zM518.8 78.975h3.793v3.804H518.8zm4.74 0h3.793v3.804h-3.793zm4.742 0h3.795v3.804h-3.795zm4.742 0h3.793v3.804h-3.793zM518.8 83.73h3.793v3.802H518.8zm4.74 0h3.793v3.802h-3.793zm4.742 0h3.795v3.802h-3.795zm4.742 0h3.793v3.802h-3.793zM518.8 88.483h3.793v3.804H518.8zm4.74 0h3.793v3.804h-3.793zm4.742 0h3.795v3.804h-3.795zm4.742 0h3.793v3.804h-3.793zm-35.082 6.658h3.793v3.804h-3.793zm4.74 0h3.793v3.804h-3.793zm4.74 0h3.793v3.804h-3.793zm4.742 0h3.793v3.804h-3.793zm-14.222 4.755h3.793v3.804h-3.793zm4.74 0h3.793v3.804h-3.793zm4.74 0h3.793v3.804h-3.793zm4.742 0h3.793v3.804h-3.793zm-14.222 4.754h3.793v3.802h-3.793zm4.74 0h3.793v3.802h-3.793zm4.74 0h3.793v3.802h-3.793zm4.742.001h3.793v3.802h-3.793zm-14.222 4.754h3.793v3.802h-3.793zm4.74 0h3.793v3.802h-3.793zm4.74 0h3.793v3.802h-3.793zm4.742 0h3.793v3.802h-3.793zm-14.222 6.656h3.793v3.804h-3.793zm4.74 0h3.793v3.804h-3.793zm4.74 0h3.793v3.804h-3.793zm4.742 0h3.793v3.804h-3.793zm-14.222 4.755h3.793v3.802h-3.793zm4.74 0h3.793v3.802h-3.793zm4.74 0h3.793v3.802h-3.793zm4.742 0h3.793v3.802h-3.793zm-14.222 4.755h3.793v3.802h-3.793zm4.74 0h3.793v3.802h-3.793zm4.74 0h3.793v3.802h-3.793zm4.742 0h3.793v3.802h-3.793zm-14.222 4.755h3.793v3.802h-3.793zm4.74 0h3.793v3.802h-3.793zm4.74 0h3.793v3.802h-3.793zm4.742 0h3.793v3.802h-3.793zm6.636-14.265h3.793v3.804H518.8zm4.74 0h3.793v3.804h-3.793zm4.742 0h3.795v3.804h-3.795zm4.742 0h3.793v3.804h-3.793zm-14.224 4.755h3.793v3.802H518.8zm4.74 0h3.793v3.802h-3.793zm4.742 0h3.795v3.802h-3.795zm4.742 0h3.793v3.802h-3.793zm-14.224 4.755h3.793v3.802H518.8zm4.74 0h3.793v3.802h-3.793zm4.742 0h3.795v3.802h-3.795zm4.742 0h3.793v3.802h-3.793zm-14.224 4.755h3.793v3.802H518.8zm4.74 0h3.793v3.802h-3.793zm4.742 0h3.795v3.802h-3.795zm4.742 0h3.793v3.802h-3.793zm6.635-14.265h3.793v3.804h-3.793zm4.742 0h3.793v3.804h-3.793zm4.74 0h3.793v3.804h-3.793zm4.741 0h3.793v3.804h-3.793zm-14.223 4.755h3.793v3.802h-3.793zm4.742 0h3.793v3.802h-3.793zm4.74 0h3.793v3.802h-3.793zm4.741 0h3.793v3.802h-3.793zm-14.223 4.755h3.793v3.802h-3.793zm4.742 0h3.793v3.802h-3.793zm4.74 0h3.793v3.802h-3.793zm4.741 0h3.793v3.802h-3.793zm-14.223 4.755h3.793v3.802h-3.793zm4.742 0h3.793v3.802h-3.793zm4.74 0h3.793v3.802h-3.793zm4.741 0h3.793v3.802h-3.793zm6.637-14.265h3.793v3.804h-3.793zm4.74 0h3.793v3.804h-3.793zm4.74 0h3.795v3.804h-3.795zm4.744 0h3.793v3.804h-3.793zm-14.224 4.755h3.793v3.802h-3.793zm4.74 0h3.793v3.802h-3.793zm4.74 0h3.795v3.802h-3.795zm4.744 0h3.793v3.802h-3.793zm-14.224 4.755h3.793v3.802h-3.793zm4.74 0h3.793v3.802h-3.793zm4.74 0h3.795v3.802h-3.795zm4.744 0h3.793v3.802h-3.793zm-14.224 4.755h3.793v3.802h-3.793zm4.74 0h3.793v3.802h-3.793zm4.74 0h3.795v3.802h-3.795zm4.744 0h3.793v3.802h-3.793zM16.742 116.061h3.802v3.804h-3.802zm4.755 0h3.802v3.804h-3.802zm4.753 0h3.804v3.804H26.25zm4.754 0h3.804v3.804h-3.804zm-14.262 4.755h3.802v3.802h-3.802zm4.755 0h3.802v3.802h-3.802zm4.753 0h3.804v3.802H26.25zm4.754 0h3.804v3.802h-3.804zm-14.262 4.755h3.802v3.802h-3.802zm4.755 0h3.802v3.802h-3.802zm4.753 0h3.804v3.802H26.25zm4.754 0h3.804v3.802h-3.804zm-14.262 4.755h3.802v3.802h-3.802zm4.755 0h3.802v3.802h-3.802zm4.753 0h3.804v3.802H26.25zm4.754 0h3.804v3.802h-3.804z"/></svg>