<svg xmlns="http://www.w3.org/2000/svg" role="img" viewBox="5.27 0.27 583.96 225.96"><title>Zilliz logo</title><path fill="#4fc4f9" d="M42.648 193.804a10.458 10.458 0 0 0 1.964-6.328q0-5.715-3.539-8.705-3.537-2.99-10.104-2.99h-12.87v38.875h5.154V198.93h9.13l8.438 15.727h5.501v-.32l-9.132-16.501a11.71 11.71 0 0 0 5.459-4.031m-11.52.934h-7.876v-14.766h7.848a9.106 9.106 0 0 1 6.209 1.955 7.047 7.047 0 0 1 2.148 5.536 6.698 6.698 0 0 1-2.255 5.296 8.889 8.889 0 0 1-6.074 1.979m32.468-9.505a11.523 11.523 0 0 0-6.394 1.909 12.781 12.781 0 0 0-4.593 5.285 17.345 17.345 0 0 0-1.642 7.677v.906q0 6.464 3.683 10.322a12.631 12.631 0 0 0 9.56 3.856q7.262 0 10.893-5.58l-3.018-2.35a11.118 11.118 0 0 1-3.176 2.83 8.599 8.599 0 0 1-4.432 1.07 7.842 7.842 0 0 1-6.074-2.632 10.256 10.256 0 0 1-2.497-6.9h19.57v-2.057q0-6.914-3.124-10.628-3.122-3.708-8.756-3.708m6.942 12.334H56.068a10.576 10.576 0 0 1 2.509-6.102 6.587 6.587 0 0 1 5.02-2.174 6.198 6.198 0 0 1 4.911 2.07 9.403 9.403 0 0 1 2.03 5.832zm14.792-22.321a2.757 2.757 0 0 0-2.175.827 2.95 2.95 0 0 0-.735 2.03 2.849 2.849 0 0 0 .735 2.003 2.801 2.801 0 0 0 2.175.8 2.67 2.67 0 0 0 2.937-2.803 2.926 2.926 0 0 0-.748-2.03 2.802 2.802 0 0 0-2.189-.827m-2.51 10.52h4.939v28.888h-4.939zm27.53-.534a10.523 10.523 0 0 0-8.651 4.166l-.16-3.631h-4.672v28.888h4.939v-20.585a8.697 8.697 0 0 1 2.83-3.364 7.127 7.127 0 0 1 4.218-1.284 5.728 5.728 0 0 1 4.366 1.497 6.656 6.656 0 0 1 1.428 4.619v19.117h4.94v-19.091q-.08-10.333-9.238-10.332m27.421 22.721l-7.342-22.186h-5.046l10.466 28.888h3.764l10.361-28.888h-5.048l-7.155 22.186zm29.184-22.72a11.532 11.532 0 0 0-6.394 1.909 12.781 12.781 0 0 0-4.593 5.285 17.345 17.345 0 0 0-1.641 7.677v.906q0 6.464 3.684 10.322a12.624 12.624 0 0 0 9.558 3.856q7.262 0 10.895-5.58l-3.02-2.35a11.118 11.118 0 0 1-3.175 2.83 8.594 8.594 0 0 1-4.433 1.07 7.847 7.847 0 0 1-6.074-2.632 10.265 10.265 0 0 1-2.496-6.9h19.57v-2.057q0-6.914-3.124-10.628-3.123-3.708-8.756-3.708m6.941 12.334h-14.47a10.588 10.588 0 0 1 2.508-6.102 6.59 6.59 0 0 1 5.02-2.174 6.196 6.196 0 0 1 4.912 2.07 9.392 9.392 0 0 1 2.03 5.832zm25.34-12.335a10.523 10.523 0 0 0-8.651 4.166l-.16-3.631h-4.672v28.888h4.939v-20.585a8.697 8.697 0 0 1 2.83-3.364 7.127 7.127 0 0 1 4.218-1.284 5.728 5.728 0 0 1 4.366 1.497 6.656 6.656 0 0 1 1.428 4.619v19.117h4.94v-19.091q-.081-10.333-9.238-10.332m25.312 24.896a4.007 4.007 0 0 1-.72-2.607v-17.936h5.392v-3.819h-5.392v-6.995h-4.94v6.995h-5.259v3.82h5.26V207.5a8.599 8.599 0 0 0 1.682 5.687 6.147 6.147 0 0 0 4.992 2.003 14.411 14.411 0 0 0 3.791-.53v-3.982a12.087 12.087 0 0 1-2.35.32 3.038 3.038 0 0 1-2.456-.869m47.101-32.104a17.661 17.661 0 0 0-8.972-2.244h-10.972v38.875h10.759a18.792 18.792 0 0 0 9.172-2.271 14.937 14.937 0 0 0 6.061-6.354 20.84 20.84 0 0 0 2.122-9.639v-2.481a20.783 20.783 0 0 0-2.15-9.506 15.17 15.17 0 0 0-6.02-6.38m3.097 18.25q0 6.814-3.298 10.5-3.296 3.69-9.224 3.688h-5.394v-30.49h5.98q5.715.055 8.826 3.728 3.109 3.675 3.11 10.302zm35.245-1.67a9.013 9.013 0 0 0-2.936-6.877q-2.833-2.495-7.824-2.494a13.977 13.977 0 0 0-5.78 1.175 10.454 10.454 0 0 0-4.165 3.189 6.814 6.814 0 0 0-1.536 4.18h4.967a3.929 3.929 0 0 1 1.788-3.231 7.194 7.194 0 0 1 4.433-1.336 6.228 6.228 0 0 1 4.565 1.535 5.548 5.548 0 0 1 1.55 4.124v2.27h-4.807q-6.22 0-9.652 2.496a8.167 8.167 0 0 0-3.43 7.01 7.817 7.817 0 0 0 2.736 6.127 10.206 10.206 0 0 0 7.01 2.417 11.018 11.018 0 0 0 8.221-3.58 10.447 10.447 0 0 0 .695 3.046h5.179v-.427a16.262 16.262 0 0 1-1.014-6.328zm-4.939 11.962a7.267 7.267 0 0 1-3.017 3.12 8.664 8.664 0 0 1-4.405 1.204 5.95 5.95 0 0 1-3.978-1.308 4.494 4.494 0 0 1-1.549-3.631q0-5.314 9.077-5.314h3.872zm21.306 3.562a4.007 4.007 0 0 1-.72-2.607v-17.936h5.393v-3.819h-5.393v-6.995h-4.939v6.995h-5.26v3.82h5.26V207.5a8.599 8.599 0 0 0 1.682 5.687 6.147 6.147 0 0 0 4.993 2.003 14.411 14.411 0 0 0 3.791-.53v-3.982a12.09 12.09 0 0 1-2.349.32 3.042 3.042 0 0 1-2.457-.869m33.645-15.524a9.014 9.014 0 0 0-2.939-6.877q-2.832-2.495-7.822-2.494a13.98 13.98 0 0 0-5.781 1.175 10.454 10.454 0 0 0-4.165 3.189 6.814 6.814 0 0 0-1.537 4.18h4.969a3.932 3.932 0 0 1 1.787-3.231 7.2 7.2 0 0 1 4.434-1.336 6.226 6.226 0 0 1 4.563 1.535 5.548 5.548 0 0 1 1.55 4.124v2.27h-4.805q-6.223 0-9.653 2.496a8.167 8.167 0 0 0-3.43 7.01 7.817 7.817 0 0 0 2.735 6.127 10.206 10.206 0 0 0 7.01 2.417 11.018 11.018 0 0 0 8.222-3.58 10.447 10.447 0 0 0 .694 3.046h5.18v-.427a16.227 16.227 0 0 1-1.012-6.328zm-4.941 11.962a7.256 7.256 0 0 1-3.018 3.12 8.659 8.659 0 0 1-4.405 1.204 5.953 5.953 0 0 1-3.977-1.308 4.494 4.494 0 0 1-1.55-3.631q0-5.314 9.077-5.314h3.873zm49.89-10.775a31.874 31.874 0 0 0-7.58-3.007 19.712 19.712 0 0 1-6.863-3.01 5.01 5.01 0 0 1-2.018-4.023 5.58 5.58 0 0 1 2.125-4.643 9.343 9.343 0 0 1 5.913-1.67 9.107 9.107 0 0 1 6.327 2.024 7.1 7.1 0 0 1 2.243 5.558h5.153a10.93 10.93 0 0 0-1.722-5.954 11.755 11.755 0 0 0-4.858-4.272 15.943 15.943 0 0 0-7.143-1.548 14.586 14.586 0 0 0-9.545 3.005 9.395 9.395 0 0 0-3.671 7.596 8.909 8.909 0 0 0 3.003 6.821q3.006 2.764 9.6 4.66 5.258 1.52 7.26 3.081a5.272 5.272 0 0 1 2.003 4.42 5.376 5.376 0 0 1-2.163 4.512 10.071 10.071 0 0 1-6.22 1.656 10.976 10.976 0 0 1-6.956-2.041 6.704 6.704 0 0 1-2.601-5.57h-5.155a10.261 10.261 0 0 0 1.883 6.062 12.577 12.577 0 0 0 5.353 4.205 18.284 18.284 0 0 0 7.476 1.535q6.168 0 9.853-2.844a9.08 9.08 0 0 0 3.684-7.568 9.767 9.767 0 0 0-1.323-5.153 11.511 11.511 0 0 0-4.058-3.832m18.104-3.791a6.919 6.919 0 0 1 5.834-2.71 6.595 6.595 0 0 1 4.713 1.802 6.8 6.8 0 0 1 2.122 4.606h4.672a10.399 10.399 0 0 0-3.43-7.557 11.592 11.592 0 0 0-8.077-2.909 12.62 12.62 0 0 0-6.85 1.816 11.804 11.804 0 0 0-4.445 5.098 17.44 17.44 0 0 0-1.547 7.503v.828q0 6.833 3.484 10.773a11.906 11.906 0 0 0 9.386 3.939 12.109 12.109 0 0 0 5.565-1.336 11.274 11.274 0 0 0 4.206-3.577 8.95 8.95 0 0 0 1.708-4.728h-4.672a5.635 5.635 0 0 1-2.19 4.007 7.113 7.113 0 0 1-4.617 1.601 6.95 6.95 0 0 1-5.875-2.695q-2.056-2.697-2.056-7.69v-.935q0-5.127 2.069-7.836m27.035-16.754a2.762 2.762 0 0 0-2.176.827 2.949 2.949 0 0 0-.733 2.03 2.847 2.847 0 0 0 .733 2.003 2.807 2.807 0 0 0 2.176.8 2.847 2.847 0 0 0 2.188-.8 2.819 2.819 0 0 0 .75-2.003 2.919 2.919 0 0 0-.75-2.03 2.801 2.801 0 0 0-2.188-.827m-2.51 10.52h4.941v28.888h-4.941zm25.418-.533a11.521 11.521 0 0 0-6.392 1.909 12.782 12.782 0 0 0-4.593 5.285 17.345 17.345 0 0 0-1.641 7.677v.906q0 6.464 3.684 10.322a12.625 12.625 0 0 0 9.558 3.856q7.262 0 10.895-5.58l-3.018-2.349a11.174 11.174 0 0 1-3.178 2.83 8.594 8.594 0 0 1-4.432 1.068 7.844 7.844 0 0 1-6.074-2.63 10.265 10.265 0 0 1-2.496-6.902h19.57v-2.056q0-6.914-3.125-10.628a10.822 10.822 0 0 0-8.758-3.708m6.944 12.334h-14.471a10.563 10.563 0 0 1 2.51-6.102 6.586 6.586 0 0 1 5.017-2.174 6.2 6.2 0 0 1 4.914 2.07 9.393 9.393 0 0 1 2.03 5.832zm25.34-12.335a10.523 10.523 0 0 0-8.652 4.166l-.16-3.631h-4.672v28.888h4.94v-20.585a8.697 8.697 0 0 1 2.829-3.364 7.131 7.131 0 0 1 4.219-1.284 5.725 5.725 0 0 1 4.366 1.497 6.656 6.656 0 0 1 1.428 4.619v19.117h4.94v-19.091q-.082-10.333-9.238-10.332m23.616 6.768a6.919 6.919 0 0 1 5.835-2.71 6.595 6.595 0 0 1 4.712 1.802 6.808 6.808 0 0 1 2.122 4.606h4.672a10.405 10.405 0 0 0-3.43-7.557 11.595 11.595 0 0 0-8.076-2.909 12.61 12.61 0 0 0-6.85 1.816 11.793 11.793 0 0 0-4.445 5.098 17.414 17.414 0 0 0-1.55 7.503v.828q0 6.833 3.486 10.773a11.903 11.903 0 0 0 9.386 3.939 12.114 12.114 0 0 0 5.566-1.336 11.268 11.268 0 0 0 4.204-3.577 8.953 8.953 0 0 0 1.71-4.728h-4.673a5.635 5.635 0 0 1-2.19 4.007 7.114 7.114 0 0 1-4.617 1.601 6.949 6.949 0 0 1-5.875-2.695q-2.056-2.697-2.056-7.69v-.935q0-5.127 2.07-7.836m35.471-6.767a11.531 11.531 0 0 0-6.395 1.909 12.765 12.765 0 0 0-4.59 5.285 17.32 17.32 0 0 0-1.644 7.677v.906q0 6.464 3.685 10.322a12.63 12.63 0 0 0 9.557 3.856q7.262 0 10.895-5.58l-3.017-2.35a11.15 11.15 0 0 1-3.178 2.83 8.594 8.594 0 0 1-4.433 1.07 7.847 7.847 0 0 1-6.074-2.632 10.264 10.264 0 0 1-2.494-6.9h19.57v-2.057q0-6.914-3.126-10.628-3.123-3.708-8.756-3.708m6.941 12.334h-14.469a10.563 10.563 0 0 1 2.51-6.102 6.583 6.583 0 0 1 5.018-2.174 6.196 6.196 0 0 1 4.911 2.07 9.393 9.393 0 0 1 2.03 5.832zM16.766 11.458h3.793v3.804h-3.793zm4.742 0h3.793v3.804h-3.793zm4.74 0h3.793v3.804h-3.793zm4.74 0h3.793v3.804h-3.793zm-14.222 4.755h3.793v3.802h-3.793zm4.742 0h3.793v3.802h-3.793zm4.74 0h3.793v3.802h-3.793zm4.74 0h3.793v3.802h-3.793zm-14.222 4.753h3.793v3.804h-3.793zm4.742 0h3.793v3.804h-3.793zm4.74 0h3.793v3.804h-3.793zm4.74 0h3.793v3.804h-3.793zm-14.222 4.757h3.793v3.804h-3.793zm4.742 0h3.793v3.804h-3.793zm4.74 0h3.793v3.804h-3.793zm4.74 0h3.793v3.804h-3.793zm6.637-14.265h3.793v3.804h-3.793zm4.741 0h3.793v3.804h-3.793zm4.742 0h3.793v3.804h-3.793zm4.74 0h3.793v3.804h-3.793zm-14.223 4.755h3.793v3.802h-3.793zm4.741 0h3.793v3.802h-3.793zm4.742 0h3.793v3.802h-3.793zm4.74 0h3.793v3.802h-3.793zm-14.223 4.753h3.793v3.804h-3.793zm4.741 0h3.793v3.804h-3.793zm4.742 0h3.793v3.804h-3.793zm4.74 0h3.793v3.804h-3.793zm-14.223 4.757h3.793v3.804h-3.793zm4.741 0h3.793v3.804h-3.793zm4.742-.002h3.793v3.804h-3.793zm4.74.002h3.793v3.804h-3.793zm6.635-14.265h3.793v3.804h-3.793zm4.742 0h3.793v3.804h-3.793zm4.74 0h3.793v3.804h-3.793zm4.742 0H76.5v3.804h-3.793zm-14.224 4.755h3.793v3.802h-3.793zm4.742 0h3.793v3.802h-3.793zm4.74 0h3.793v3.802h-3.793zm4.742 0H76.5v3.802h-3.793zm-14.224 4.753h3.793v3.804h-3.793zm4.742 0h3.793v3.804h-3.793zm4.74 0h3.793v3.804h-3.793zm4.742 0H76.5v3.804h-3.793zm-14.224 4.757h3.793v3.804h-3.793zm4.742 0h3.793v3.804h-3.793zm4.74 0h3.793v3.804h-3.793zm4.742-.002H76.5v3.804h-3.793zm6.636-14.263h3.793v3.804h-3.793zm4.742 0h3.793v3.804h-3.793zm4.74 0h3.793v3.804h-3.793zm4.74 0h3.793v3.804h-3.793zm-14.222 4.755h3.793v3.802h-3.793zm4.742 0h3.793v3.802h-3.793zm4.74 0h3.793v3.802h-3.793zm4.74 0h3.793v3.802h-3.793zm-14.222 4.753h3.793v3.804h-3.793zm4.742 0h3.793v3.804h-3.793zm4.74 0h3.793v3.804h-3.793zm4.74 0h3.793v3.804h-3.793zm-14.222 4.757h3.793v3.804h-3.793zm4.742 0h3.793v3.804h-3.793zm4.74-.002h3.793v3.804h-3.793zm4.74.002h3.793v3.804h-3.793zm-14.222 6.656h3.793v3.804h-3.793zm4.742 0h3.793v3.804h-3.793zm4.74 0h3.793v3.804h-3.793zm4.74 0h3.793v3.804h-3.793zm-14.222 4.755h3.793v3.802h-3.793zm4.742 0h3.793v3.802h-3.793zm4.74 0h3.793v3.802h-3.793zm4.74 0h3.793v3.802h-3.793zm-14.222 4.755h3.793v3.802h-3.793zm4.742 0h3.793v3.802h-3.793zm4.74 0h3.793v3.802h-3.793zm4.74 0h3.793v3.802h-3.793zm-14.222 4.753h3.793v3.804h-3.793zm4.742 0h3.793v3.804h-3.793zm4.74 0h3.793v3.804h-3.793zm4.74 0h3.793v3.804h-3.793zM58.483 53.3h3.793v3.804h-3.793zm4.742 0h3.793v3.804h-3.793zm4.74 0h3.793v3.804h-3.793zm4.742 0H76.5v3.804h-3.793zm-14.224 4.754h3.793v3.804h-3.793zm4.742 0h3.793v3.804h-3.793zm4.74 0h3.793v3.804h-3.793zm4.742 0H76.5v3.804h-3.793zm-14.224 4.755h3.793v3.802h-3.793zm4.742 0h3.793v3.802h-3.793zm4.74 0h3.793v3.802h-3.793zm4.742 0H76.5v3.802h-3.793zm-14.224 4.753h3.793v3.804h-3.793zm4.742 0h3.793v3.804h-3.793zm4.74 0h3.793v3.804h-3.793zm4.742 0H76.5v3.804h-3.793zM37.625 74.22h3.793v3.804h-3.793zm4.741 0h3.793v3.804h-3.793zm4.742 0h3.793v3.804h-3.793zm4.74 0h3.793v3.804h-3.793zm-14.223 4.755h3.793v3.804h-3.793zm4.741 0h3.793v3.804h-3.793zm4.742 0h3.793v3.804h-3.793zm4.74 0h3.793v3.804h-3.793zM37.625 83.73h3.793v3.802h-3.793zm4.741 0h3.793v3.802h-3.793zm4.742 0h3.793v3.802h-3.793zm4.74 0h3.793v3.802h-3.793zm-14.223 4.753h3.793v3.804h-3.793zm4.741 0h3.793v3.804h-3.793zm4.742 0h3.793v3.804h-3.793zm4.74 0h3.793v3.804h-3.793zm-35.082 6.658h3.793v3.804h-3.793zm4.742 0h3.793v3.804h-3.793zm4.74 0h3.793v3.804h-3.793zm4.74 0h3.793v3.804h-3.793zm-14.222 4.755h3.793v3.804h-3.793zm4.742 0h3.793v3.804h-3.793zm4.74 0h3.793v3.804h-3.793zm4.74 0h3.793v3.804h-3.793zm-14.222 4.754h3.793v3.802h-3.793zm4.742 0h3.793v3.802h-3.793zm4.74 0h3.793v3.802h-3.793zm4.74 0h3.793v3.802h-3.793zm-14.222 4.755h3.793v3.802h-3.793zm4.742 0h3.793v3.802h-3.793zm4.74 0h3.793v3.802h-3.793zm4.74 0h3.793v3.802h-3.793zm6.637 6.656h3.793v3.804h-3.793zm4.741 0h3.793v3.804h-3.793zm4.742 0h3.793v3.804h-3.793zm4.74 0h3.793v3.804h-3.793zm-14.223 4.755h3.793v3.802h-3.793zm4.741 0h3.793v3.802h-3.793zm4.742 0h3.793v3.802h-3.793zm4.74 0h3.793v3.802h-3.793zm-14.223 4.755h3.793v3.802h-3.793zm4.741 0h3.793v3.802h-3.793zm4.742 0h3.793v3.802h-3.793zm4.74 0h3.793v3.802h-3.793zm-14.223 4.755h3.793v3.802h-3.793zm4.741 0h3.793v3.802h-3.793zm4.742 0h3.793v3.802h-3.793zm4.74 0h3.793v3.802h-3.793zm6.635-14.265h3.793v3.804h-3.793zm4.742 0h3.793v3.804h-3.793zm4.74 0h3.793v3.804h-3.793zm4.742 0H76.5v3.804h-3.793zm-14.224 4.755h3.793v3.802h-3.793zm4.742 0h3.793v3.802h-3.793zm4.74 0h3.793v3.802h-3.793zm4.742 0H76.5v3.802h-3.793zm-14.224 4.755h3.793v3.802h-3.793zm4.742 0h3.793v3.802h-3.793zm4.74 0h3.793v3.802h-3.793zm4.742 0H76.5v3.802h-3.793zm-14.224 4.755h3.793v3.802h-3.793zm4.742 0h3.793v3.802h-3.793zm4.74 0h3.793v3.802h-3.793zm4.742 0H76.5v3.802h-3.793zm6.636-14.265h3.793v3.804h-3.793zm4.742 0h3.793v3.804h-3.793zm4.74 0h3.793v3.804h-3.793zm4.74 0h3.793v3.804h-3.793zm-14.222 4.755h3.793v3.802h-3.793zm4.742 0h3.793v3.802h-3.793zm4.74 0h3.793v3.802h-3.793zm4.74 0h3.793v3.802h-3.793zm-14.222 4.755h3.793v3.802h-3.793zm4.742 0h3.793v3.802h-3.793zm4.74 0h3.793v3.802h-3.793zm4.74 0h3.793v3.802h-3.793zm-14.222 4.755h3.793v3.802h-3.793zm4.742 0h3.793v3.802h-3.793zm4.74 0h3.793v3.802h-3.793zm4.74 0h3.793v3.802h-3.793zm27.774-118.868h3.793v3.804h-3.793zm4.74 0h3.793v3.804h-3.793zm4.74 0h3.793v3.804h-3.793zm4.742 0h3.793v3.804h-3.793zm-14.222 4.755h3.793v3.802h-3.793zm4.74 0h3.793v3.802h-3.793zm4.74 0h3.793v3.802h-3.793zm4.742 0h3.793v3.802h-3.793zm-14.222 4.753h3.793v3.804h-3.793zm4.74 0h3.793v3.804h-3.793zm4.74 0h3.793v3.804h-3.793zm4.742 0h3.793v3.804h-3.793zm-14.222 4.755h3.793v3.804h-3.793zm4.74.002h3.793v3.804h-3.793zm4.74 0h3.793v3.804h-3.793zm4.742 0h3.793v3.804h-3.793zm6.636-14.265h3.793v3.804h-3.793zm4.742 0h3.793v3.804h-3.793zm4.74 0h3.793v3.804h-3.793zm4.74 0h3.793v3.804h-3.793zm-14.222 4.755h3.793v3.802h-3.793zm4.742 0h3.793v3.802h-3.793zm4.74 0h3.793v3.802h-3.793zm4.74 0h3.793v3.802h-3.793zm-14.222 4.753h3.793v3.804h-3.793zm4.742 0h3.793v3.804h-3.793zm4.74 0h3.793v3.804h-3.793zm4.74 0h3.793v3.804h-3.793zm-14.222 4.757h3.793v3.804h-3.793zm4.742-.002h3.793v3.804h-3.793zm4.74.002h3.793v3.804h-3.793zm4.74 0h3.793v3.804h-3.793zm6.638-14.265h3.793v3.804h-3.793zm4.74 0h3.793v3.804h-3.793zm4.742 0h3.793v3.804h-3.793zm4.742 0h3.793v3.804h-3.793zm-14.224 4.755h3.793v3.802h-3.793zm4.74 0h3.793v3.802h-3.793zm4.742 0h3.793v3.802h-3.793zm4.742 0h3.793v3.802h-3.793zm-14.224 4.753h3.793v3.804h-3.793zm4.74 0h3.793v3.804h-3.793zm4.742 0h3.793v3.804h-3.793zm4.742 0h3.793v3.804h-3.793zm-14.224 4.757h3.793v3.804h-3.793zm4.74 0h3.793v3.804h-3.793zm4.742 0h3.793v3.804h-3.793zm4.742-.002h3.793v3.804h-3.793zm-35.084 6.658h3.793v3.804h-3.793zm4.742 0h3.793v3.804h-3.793zm4.74 0h3.793v3.804h-3.793zm4.74 0h3.793v3.804h-3.793zm-14.222 4.755h3.793v3.802h-3.793zm4.742 0h3.793v3.802h-3.793zm4.74 0h3.793v3.802h-3.793zm4.74 0h3.793v3.802h-3.793zm-14.222 4.755h3.793v3.802h-3.793zm4.742 0h3.793v3.802h-3.793zm4.74 0h3.793v3.802h-3.793zm4.74 0h3.793v3.802h-3.793zm-14.222 4.753h3.793v3.804h-3.793zm4.742 0h3.793v3.804h-3.793zm4.74 0h3.793v3.804h-3.793zm4.74 0h3.793v3.804h-3.793zM142.197 53.3h3.793v3.804h-3.793zm4.742 0h3.793v3.804h-3.793zm4.74 0h3.793v3.804h-3.793zm4.74 0h3.793v3.804h-3.793zm-14.222 4.754h3.793v3.804h-3.793zm4.742 0h3.793v3.804h-3.793zm4.74 0h3.793v3.804h-3.793zm4.74 0h3.793v3.804h-3.793zm-14.222 4.755h3.793v3.802h-3.793zm4.742 0h3.793v3.802h-3.793zm4.74 0h3.793v3.802h-3.793zm4.74 0h3.793v3.802h-3.793zm-14.222 4.753h3.793v3.804h-3.793zm4.742 0h3.793v3.804h-3.793zm4.74 0h3.793v3.804h-3.793zm4.74 0h3.793v3.804h-3.793zm-14.222 6.658h3.793v3.804h-3.793zm4.742 0h3.793v3.804h-3.793zm4.74 0h3.793v3.804h-3.793zm4.74 0h3.793v3.804h-3.793zm-14.222 4.755h3.793v3.804h-3.793zm4.742 0h3.793v3.804h-3.793zm4.74 0h3.793v3.804h-3.793zm4.74 0h3.793v3.804h-3.793zm-14.222 4.755h3.793v3.802h-3.793zm4.742 0h3.793v3.802h-3.793zm4.74 0h3.793v3.802h-3.793zm4.74 0h3.793v3.802h-3.793zm-14.222 4.753h3.793v3.804h-3.793zm4.742 0h3.793v3.804h-3.793zm4.74 0h3.793v3.804h-3.793zm4.74 0h3.793v3.804h-3.793zm-14.222 6.658h3.793v3.804h-3.793zm4.742 0h3.793v3.804h-3.793zm4.74 0h3.793v3.804h-3.793zm4.74 0h3.793v3.804h-3.793zm-14.222 4.755h3.793v3.804h-3.793zm4.742 0h3.793v3.804h-3.793zm4.74 0h3.793v3.804h-3.793zm4.74 0h3.793v3.804h-3.793zm-14.222 4.754h3.793v3.802h-3.793zm4.742.001h3.793v3.802h-3.793zm4.74-.001h3.793v3.802h-3.793zm4.74 0h3.793v3.802h-3.793zm-14.222 4.755h3.793v3.802h-3.793zm4.742 0h3.793v3.802h-3.793zm4.74 0h3.793v3.802h-3.793zm4.74 0h3.793v3.802h-3.793zm-35.08 6.656h3.793v3.804h-3.793zm4.74 0h3.793v3.804h-3.793zm4.74 0h3.793v3.804h-3.793zm4.742 0h3.793v3.804h-3.793zm-14.222 4.755h3.793v3.802h-3.793zm4.74 0h3.793v3.802h-3.793zm4.74 0h3.793v3.802h-3.793zm4.742 0h3.793v3.802h-3.793zm-14.222 4.755h3.793v3.802h-3.793zm4.74 0h3.793v3.802h-3.793zm4.74 0h3.793v3.802h-3.793zm4.742 0h3.793v3.802h-3.793zm-14.222 4.755h3.793v3.802h-3.793zm4.74 0h3.793v3.802h-3.793zm4.74 0h3.793v3.802h-3.793zm4.742 0h3.793v3.802h-3.793zm6.636-14.265h3.793v3.804h-3.793zm4.742 0h3.793v3.804h-3.793zm4.74 0h3.793v3.804h-3.793zm4.74 0h3.793v3.804h-3.793zm-14.222 4.755h3.793v3.802h-3.793zm4.742 0h3.793v3.802h-3.793zm4.74 0h3.793v3.802h-3.793zm4.74 0h3.793v3.802h-3.793zm-14.222 4.755h3.793v3.802h-3.793zm4.742 0h3.793v3.802h-3.793zm4.74 0h3.793v3.802h-3.793zm4.74 0h3.793v3.802h-3.793zm-14.222 4.755h3.793v3.802h-3.793zm4.742 0h3.793v3.802h-3.793zm4.74 0h3.793v3.802h-3.793zm4.74 0h3.793v3.802h-3.793zm6.638-14.265h3.793v3.804h-3.793zm4.74 0h3.793v3.804h-3.793zm4.742 0h3.793v3.804h-3.793zm4.742 0h3.793v3.804h-3.793zm-14.224 4.755h3.793v3.802h-3.793zm4.74 0h3.793v3.802h-3.793zm4.742 0h3.793v3.802h-3.793zm4.742 0h3.793v3.802h-3.793zm-14.224 4.755h3.793v3.802h-3.793zm4.74 0h3.793v3.802h-3.793zm4.742 0h3.793v3.802h-3.793zm4.742 0h3.793v3.802h-3.793zm-14.224 4.755h3.793v3.802h-3.793zm4.74 0h3.793v3.802h-3.793zm4.742 0h3.793v3.802h-3.793zm4.742 0h3.793v3.802h-3.793zm27.772-118.868h3.793v3.804h-3.793zm4.74 0h3.793v3.804h-3.793zm4.74 0h3.793v3.804h-3.793zm4.74 0h3.793v3.804h-3.793zm-14.22 4.755h3.793v3.802h-3.793zm4.74 0h3.793v3.802h-3.793zm4.74 0h3.793v3.802h-3.793zm4.74 0h3.793v3.802h-3.793zm-14.22 4.753h3.793v3.804h-3.793zm4.74 0h3.793v3.804h-3.793zm4.74 0h3.793v3.804h-3.793zm4.74 0h3.793v3.804h-3.793zm-14.22 4.755h3.793v3.804h-3.793zm4.74 0h3.793v3.804h-3.793zm4.74.002h3.793v3.804h-3.793zm4.74 0h3.793v3.804h-3.793zm-14.22 6.656h3.793v3.804h-3.793zm4.74 0h3.793v3.804h-3.793zm4.74 0h3.793v3.804h-3.793zm4.74 0h3.793v3.804h-3.793zm-14.22 4.755h3.793v3.802h-3.793zm4.74 0h3.793v3.802h-3.793zm4.74 0h3.793v3.802h-3.793zm4.74 0h3.793v3.802h-3.793zm-14.22 4.755h3.793v3.802h-3.793zm4.74 0h3.793v3.802h-3.793zm4.74 0h3.793v3.802h-3.793zm4.74 0h3.793v3.802h-3.793zm-14.22 4.753h3.793v3.804h-3.793zm4.74 0h3.793v3.804h-3.793zm4.74 0h3.793v3.804h-3.793zm4.74 0h3.793v3.804h-3.793zm-14.22 6.658h3.793v3.804h-3.793zm4.74 0h3.793v3.804h-3.793zm4.74 0h3.793v3.804h-3.793zm4.74 0h3.793v3.804h-3.793zm-14.22 4.754h3.793v3.804h-3.793zm4.74 0h3.793v3.804h-3.793zm4.74 0h3.793v3.804h-3.793zm4.74 0h3.793v3.804h-3.793zm-14.22 4.755h3.793v3.802h-3.793zm4.74 0h3.793v3.802h-3.793zm4.74 0h3.793v3.802h-3.793zm4.74 0h3.793v3.802h-3.793zm-14.22 4.753h3.793v3.804h-3.793zm4.74 0h3.793v3.804h-3.793zm4.74 0h3.793v3.804h-3.793zm4.74 0h3.793v3.804h-3.793zm-14.22 6.658h3.793v3.804h-3.793zm4.74 0h3.793v3.804h-3.793zm4.74 0h3.793v3.804h-3.793zm4.74 0h3.793v3.804h-3.793zm-14.22 4.755h3.793v3.804h-3.793zm4.74 0h3.793v3.804h-3.793zm4.74 0h3.793v3.804h-3.793zm4.74 0h3.793v3.804h-3.793zm-14.22 4.755h3.793v3.802h-3.793zm4.74 0h3.793v3.802h-3.793zm4.74 0h3.793v3.802h-3.793zm4.74 0h3.793v3.802h-3.793zm-14.22 4.753h3.793v3.804h-3.793zm4.74 0h3.793v3.804h-3.793zm4.74 0h3.793v3.804h-3.793zm4.74 0h3.793v3.804h-3.793zm-14.22 6.658h3.793v3.804h-3.793zm4.74 0h3.793v3.804h-3.793zm4.74 0h3.793v3.804h-3.793zm4.74 0h3.793v3.804h-3.793zm-14.22 4.755h3.793v3.804h-3.793zm4.74 0h3.793v3.804h-3.793zm4.74 0h3.793v3.804h-3.793zm4.74 0h3.793v3.804h-3.793zm-14.22 4.755h3.793v3.802h-3.793zm4.74 0h3.793v3.802h-3.793zm4.74-.001h3.793v3.802h-3.793zm4.74 0h3.793v3.802h-3.793zm-14.22 4.755h3.793v3.802h-3.793zm4.74 0h3.793v3.802h-3.793zm4.74 0h3.793v3.802h-3.793zm4.74 0h3.793v3.802h-3.793zm48.358-14.264h3.793v3.804h-3.793zm4.74 0h3.793v3.804h-3.793zm4.742 0h3.793v3.804h-3.793zm4.74 0h3.793v3.804h-3.793zm-14.222 4.755h3.793v3.804h-3.793zm4.74 0h3.793v3.804h-3.793zm4.742 0h3.793v3.804h-3.793zm4.74 0h3.793v3.804h-3.793zm-14.222 4.754h3.793v3.802h-3.793zm4.74 0h3.793v3.802h-3.793zm4.742.001h3.793v3.802h-3.793zm4.74 0h3.793v3.802h-3.793zm-14.222 4.754h3.793v3.802h-3.793zm4.74 0h3.793v3.802h-3.793zm4.742 0h3.793v3.802h-3.793zm4.74 0h3.793v3.802h-3.793zm-76.8 6.656h3.793v3.804h-3.793zm4.74 0h3.793v3.804h-3.793zm4.74 0h3.793v3.804h-3.793zm4.74 0h3.793v3.804h-3.793zm-14.22 4.755h3.793v3.802h-3.793zm4.74 0h3.793v3.802h-3.793zm4.74 0h3.793v3.802h-3.793zm4.74 0h3.793v3.802h-3.793zm-14.22 4.755h3.793v3.802h-3.793zm4.74 0h3.793v3.802h-3.793zm4.74 0h3.793v3.802h-3.793zm4.74 0h3.793v3.802h-3.793zm-14.22 4.755h3.793v3.802h-3.793zm4.74 0h3.793v3.802h-3.793zm4.74 0h3.793v3.802h-3.793zm4.74 0h3.793v3.802h-3.793zm6.64-14.265h3.793v3.804h-3.793zm4.74 0h3.793v3.804h-3.793zm4.74 0h3.793v3.804h-3.793zm4.74 0h3.793v3.804h-3.793zm-14.22 4.755h3.793v3.802h-3.793zm4.74 0h3.793v3.802h-3.793zm4.74 0h3.793v3.802h-3.793zm4.74 0h3.793v3.802h-3.793zm-14.22 4.755h3.793v3.802h-3.793zm4.74 0h3.793v3.802h-3.793zm4.74 0h3.793v3.802h-3.793zm4.74 0h3.793v3.802h-3.793zm-14.22 4.755h3.793v3.802h-3.793zm4.74 0h3.793v3.802h-3.793zm4.74 0h3.793v3.802h-3.793zm4.74 0h3.793v3.802h-3.793zm6.638-14.265h3.793v3.804h-3.793zm4.74 0h3.793v3.804h-3.793zm4.74 0h3.793v3.804h-3.793zm4.742 0h3.793v3.804h-3.793zm-14.222 4.755h3.793v3.802h-3.793zm4.74 0h3.793v3.802h-3.793zm4.74 0h3.793v3.802h-3.793zm4.742 0h3.793v3.802h-3.793zm-14.222 4.755h3.793v3.802h-3.793zm4.74 0h3.793v3.802h-3.793zm4.74 0h3.793v3.802h-3.793zm4.742 0h3.793v3.802h-3.793zm-14.222 4.755h3.793v3.802h-3.793zm4.74 0h3.793v3.802h-3.793zm4.74 0h3.793v3.802h-3.793zm4.742 0h3.793v3.802h-3.793zm6.638-14.265h3.793v3.804h-3.793zm4.74 0h3.793v3.804h-3.793zm4.742 0h3.793v3.804h-3.793zm4.74 0h3.793v3.804h-3.793zm-14.222 4.755h3.793v3.802h-3.793zm4.74 0h3.793v3.802h-3.793zm4.742 0h3.793v3.802h-3.793zm4.74 0h3.793v3.802h-3.793zm-14.222 4.755h3.793v3.802h-3.793zm4.74 0h3.793v3.802h-3.793zm4.742 0h3.793v3.802h-3.793zm4.74 0h3.793v3.802h-3.793zm-14.222 4.755h3.793v3.802h-3.793zm4.74 0h3.793v3.802h-3.793zm4.742 0h3.793v3.802h-3.793zm4.74 0h3.793v3.802h-3.793zm27.803-118.868h3.793v3.804h-3.793zm4.74 0h3.793v3.804h-3.793zm4.74 0h3.793v3.804h-3.793zm4.74 0h3.793v3.804h-3.793zm-14.22 4.755h3.793v3.802h-3.793zm4.74 0h3.793v3.802h-3.793zm4.74 0h3.793v3.802h-3.793zm4.74 0h3.793v3.802h-3.793zm-14.22 4.753h3.793v3.804h-3.793zm4.74 0h3.793v3.804h-3.793zm4.74 0h3.793v3.804h-3.793zm4.74 0h3.793v3.804h-3.793zm-14.22 4.755h3.793v3.804h-3.793zm4.74.002h3.793v3.804h-3.793zm4.74 0h3.793v3.804h-3.793zm4.74 0h3.793v3.804h-3.793zm-14.22 6.656h3.793v3.804h-3.793zm4.74 0h3.793v3.804h-3.793zm4.74 0h3.793v3.804h-3.793zm4.74 0h3.793v3.804h-3.793zm-14.22 4.755h3.793v3.802h-3.793zm4.74 0h3.793v3.802h-3.793zm4.74 0h3.793v3.802h-3.793zm4.74 0h3.793v3.802h-3.793zm-14.22 4.755h3.793v3.802h-3.793zm4.74 0h3.793v3.802h-3.793zm4.74 0h3.793v3.802h-3.793zm4.74 0h3.793v3.802h-3.793zm-14.22 4.753h3.793v3.804h-3.793zm4.74 0h3.793v3.804h-3.793zm4.74 0h3.793v3.804h-3.793zm4.74 0h3.793v3.804h-3.793zm-14.22 6.658h3.793v3.804h-3.793zm4.74 0h3.793v3.804h-3.793zm4.74 0h3.793v3.804h-3.793zm4.74 0h3.793v3.804h-3.793zm-14.22 4.754h3.793v3.804h-3.793zm4.74 0h3.793v3.804h-3.793zm4.74 0h3.793v3.804h-3.793zm4.74 0h3.793v3.804h-3.793zm-14.22 4.755h3.793v3.802h-3.793zm4.74 0h3.793v3.802h-3.793zm4.74 0h3.793v3.802h-3.793zm4.74 0h3.793v3.802h-3.793zm-14.22 4.753h3.793v3.804h-3.793zm4.74 0h3.793v3.804h-3.793zm4.74 0h3.793v3.804h-3.793zm4.74 0h3.793v3.804h-3.793zm-14.22 6.658h3.793v3.804h-3.793zm4.74 0h3.793v3.804h-3.793zm4.74 0h3.793v3.804h-3.793zm4.74 0h3.793v3.804h-3.793zm-14.22 4.755h3.793v3.804h-3.793zm4.74 0h3.793v3.804h-3.793zm4.74 0h3.793v3.804h-3.793zm4.74 0h3.793v3.804h-3.793zm-14.22 4.755h3.793v3.802h-3.793zm4.74 0h3.793v3.802h-3.793zm4.74 0h3.793v3.802h-3.793zm4.74 0h3.793v3.802h-3.793zm-14.22 4.753h3.793v3.804h-3.793zm4.74 0h3.793v3.804h-3.793zm4.74 0h3.793v3.804h-3.793zm4.74 0h3.793v3.804h-3.793zm-14.22 6.658h3.793v3.804h-3.793zm4.74 0h3.793v3.804h-3.793zm4.74 0h3.793v3.804h-3.793zm4.74 0h3.793v3.804h-3.793zm-14.22 4.755h3.793v3.804h-3.793zm4.74 0h3.793v3.804h-3.793zm4.74 0h3.793v3.804h-3.793zm4.74 0h3.793v3.804h-3.793zm-14.22 4.755h3.793v3.802h-3.793zm4.74-.001h3.793v3.802h-3.793zm4.74 0h3.793v3.802h-3.793zm4.74 0h3.793v3.802h-3.793zm-14.22 4.755h3.793v3.802h-3.793zm4.74 0h3.793v3.802h-3.793zm4.74 0h3.793v3.802h-3.793zm4.74 0h3.793v3.802h-3.793zm48.358-14.264h3.793v3.804h-3.793zm4.74 0h3.793v3.804h-3.793zm4.74 0h3.793v3.804h-3.793zm4.74 0h3.795v3.804h-3.795zm-14.22 4.755h3.793v3.804h-3.793zm4.74 0h3.793v3.804h-3.793zm4.74 0h3.793v3.804h-3.793zm4.74 0h3.795v3.804h-3.795zm-14.22 4.755h3.793v3.802h-3.793zm4.74 0h3.793v3.802h-3.793zm4.74-.001h3.793v3.802h-3.793zm4.74 0h3.795v3.802h-3.795zm-14.22 4.755h3.793v3.802h-3.793zm4.74 0h3.793v3.802h-3.793zm4.74 0h3.793v3.802h-3.793zm4.74 0h3.795v3.802h-3.795zm-76.798 6.656h3.793v3.804h-3.793zm4.74 0h3.793v3.804h-3.793zm4.74 0h3.793v3.804h-3.793zm4.74 0h3.793v3.804h-3.793zm-14.22 4.755h3.793v3.802h-3.793zm4.74 0h3.793v3.802h-3.793zm4.74 0h3.793v3.802h-3.793zm4.74 0h3.793v3.802h-3.793zm-14.22 4.755h3.793v3.802h-3.793zm4.74 0h3.793v3.802h-3.793zm4.74 0h3.793v3.802h-3.793zm4.74 0h3.793v3.802h-3.793zm-14.22 4.755h3.793v3.802h-3.793zm4.74 0h3.793v3.802h-3.793zm4.74 0h3.793v3.802h-3.793zm4.74 0h3.793v3.802h-3.793zm6.638-14.265h3.793v3.804h-3.793zm4.74 0h3.793v3.804h-3.793zm4.74 0h3.793v3.804h-3.793zm4.742 0h3.795v3.804h-3.795zm-14.222 4.755h3.793v3.802h-3.793zm4.74 0h3.793v3.802h-3.793zm4.74 0h3.793v3.802h-3.793zm4.742 0h3.795v3.802h-3.795zm-14.222 4.755h3.793v3.802h-3.793zm4.74 0h3.793v3.802h-3.793zm4.74 0h3.793v3.802h-3.793zm4.742 0h3.795v3.802h-3.795zm-14.222 4.755h3.793v3.802h-3.793zm4.74 0h3.793v3.802h-3.793zm4.74 0h3.793v3.802h-3.793zm4.742 0h3.795v3.802h-3.795zm6.638-14.265h3.793v3.804h-3.793zm4.74 0h3.793v3.804h-3.793zm4.742 0h3.793v3.804h-3.793zm4.74 0h3.793v3.804h-3.793zm-14.222 4.755h3.793v3.802h-3.793zm4.74 0h3.793v3.802h-3.793zm4.742 0h3.793v3.802h-3.793zm4.74 0h3.793v3.802h-3.793zm-14.222 4.755h3.793v3.802h-3.793zm4.74 0h3.793v3.802h-3.793zm4.742 0h3.793v3.802h-3.793zm4.74 0h3.793v3.802h-3.793zm-14.222 4.755h3.793v3.802h-3.793zm4.74 0h3.793v3.802h-3.793zm4.742 0h3.793v3.802h-3.793zm4.74 0h3.793v3.802h-3.793zm6.638-14.265h3.793v3.804h-3.793zm4.74 0h3.793v3.804h-3.793zm4.74 0h3.793v3.804h-3.793zm4.74 0h3.795v3.804h-3.795zm-14.22 4.755h3.793v3.802h-3.793zm4.74 0h3.793v3.802h-3.793zm4.74 0h3.793v3.802h-3.793zm4.74 0h3.795v3.802h-3.795zm-14.22 4.755h3.793v3.802h-3.793zm4.74 0h3.793v3.802h-3.793zm4.74 0h3.793v3.802h-3.793zm4.74 0h3.795v3.802h-3.795zm-14.22 4.755h3.793v3.802h-3.793zm4.74 0h3.793v3.802h-3.793zm4.74 0h3.793v3.802h-3.793zm4.74 0h3.795v3.802h-3.795zm27.772-118.868h3.795v3.804h-3.795zm4.744 0h3.793v3.804h-3.793zm4.74 0h3.793v3.804h-3.793zm4.74 0h3.793v3.804h-3.793zm-14.224 4.755h3.795v3.802h-3.795zm4.744 0h3.793v3.802h-3.793zm4.74 0h3.793v3.802h-3.793zm4.74 0h3.793v3.802h-3.793zm-14.224 4.753h3.795v3.804h-3.795zm4.744 0h3.793v3.804h-3.793zm4.74 0h3.793v3.804h-3.793zm4.74 0h3.793v3.804h-3.793zm-14.224 4.757h3.795v3.804h-3.795zm4.744 0h3.793v3.804h-3.793zm4.74 0h3.793v3.804h-3.793zm4.74 0h3.793v3.804h-3.793zm6.638-14.265h3.793v3.804h-3.793zm4.74 0h3.793v3.804h-3.793zm4.74 0h3.793v3.804h-3.793zm4.742 0h3.793v3.804h-3.793zm-14.222 4.755h3.793v3.802h-3.793zm4.74 0h3.793v3.802h-3.793zm4.74 0h3.793v3.802h-3.793zm4.742 0h3.793v3.802h-3.793zm-14.222 4.753h3.793v3.804h-3.793zm4.74 0h3.793v3.804h-3.793zm4.74 0h3.793v3.804h-3.793zm4.742 0h3.793v3.804h-3.793zm-14.222 4.757h3.793v3.804h-3.793zm4.74-.002h3.793v3.804h-3.793zm4.74.002h3.793v3.804h-3.793zm4.742-.002h3.793v3.804h-3.793zm6.636-14.263h3.795v3.804h-3.795zm4.742 0h3.793v3.804h-3.793zm4.74 0h3.793v3.804h-3.793zm4.742 0h3.793v3.804h-3.793zm-14.224 4.755h3.795v3.802h-3.795zm4.742 0h3.793v3.802h-3.793zm4.74 0h3.793v3.802h-3.793zm4.742 0h3.793v3.802h-3.793zm-14.224 4.753h3.795v3.804h-3.795zm4.742 0h3.793v3.804h-3.793zm4.74 0h3.793v3.804h-3.793zm4.742 0h3.793v3.804h-3.793zm-14.224 4.755h3.795v3.804h-3.795zm4.742.002h3.793v3.804h-3.793zm4.74 0h3.793v3.804h-3.793zm4.742 0h3.793v3.804h-3.793zm-35.082 6.656h3.793v3.804h-3.793zm4.74 0h3.793v3.804h-3.793zm4.74 0h3.793v3.804h-3.793zm4.742 0h3.793v3.804h-3.793zm-14.222 4.755h3.793v3.802h-3.793zm4.74 0h3.793v3.802h-3.793zm4.74 0h3.793v3.802h-3.793zm4.742 0h3.793v3.802h-3.793zm-14.222 4.755h3.793v3.802h-3.793zm4.74 0h3.793v3.802h-3.793zm4.74 0h3.793v3.802h-3.793zm4.742 0h3.793v3.802h-3.793zm-14.222 4.753h3.793v3.804h-3.793zm4.74 0h3.793v3.804h-3.793zm4.74 0h3.793v3.804h-3.793zm4.742 0h3.793v3.804h-3.793zM435.088 53.3h3.793v3.804h-3.793zm4.74 0h3.793v3.804h-3.793zm4.74 0h3.793v3.804h-3.793zm4.742 0h3.793v3.804h-3.793zm-14.222 4.754h3.793v3.804h-3.793zm4.74 0h3.793v3.804h-3.793zm4.74 0h3.793v3.804h-3.793zm4.742 0h3.793v3.804h-3.793zm-14.222 4.755h3.793v3.802h-3.793zm4.74 0h3.793v3.802h-3.793zm4.74 0h3.793v3.802h-3.793zm4.742 0h3.793v3.802h-3.793zm-14.222 4.753h3.793v3.804h-3.793zm4.74 0h3.793v3.804h-3.793zm4.74 0h3.793v3.804h-3.793zm4.742 0h3.793v3.804h-3.793zm-14.222 6.658h3.793v3.804h-3.793zm4.74 0h3.793v3.804h-3.793zm4.74 0h3.793v3.804h-3.793zm4.742 0h3.793v3.804h-3.793zm-14.222 4.755h3.793v3.804h-3.793zm4.74 0h3.793v3.804h-3.793zm4.74 0h3.793v3.804h-3.793zm4.742 0h3.793v3.804h-3.793zm-14.222 4.755h3.793v3.802h-3.793zm4.74 0h3.793v3.802h-3.793zm4.74 0h3.793v3.802h-3.793zm4.742 0h3.793v3.802h-3.793zm-14.222 4.753h3.793v3.804h-3.793zm4.74 0h3.793v3.804h-3.793zm4.74 0h3.793v3.804h-3.793zm4.742 0h3.793v3.804h-3.793zm-14.222 6.658h3.793v3.804h-3.793zm4.74 0h3.793v3.804h-3.793zm4.74 0h3.793v3.804h-3.793zm4.742 0h3.793v3.804h-3.793zm-14.222 4.755h3.793v3.804h-3.793zm4.74 0h3.793v3.804h-3.793zm4.74 0h3.793v3.804h-3.793zm4.742 0h3.793v3.804h-3.793zm-14.222 4.754h3.793v3.802h-3.793zm4.74.001h3.793v3.802h-3.793zm4.74-.001h3.793v3.802h-3.793zm4.742.001h3.793v3.802h-3.793zm-14.222 4.754h3.793v3.802h-3.793zm4.74 0h3.793v3.802h-3.793zm4.74 0h3.793v3.802h-3.793zm4.742 0h3.793v3.802h-3.793zm-35.084 6.656h3.795v3.804h-3.795zm4.744 0h3.793v3.804h-3.793zm4.74 0h3.793v3.804h-3.793zm4.74 0h3.793v3.804h-3.793zm-14.224 4.755h3.795v3.802h-3.795zm4.744 0h3.793v3.802h-3.793zm4.74 0h3.793v3.802h-3.793zm4.74 0h3.793v3.802h-3.793zm-14.224 4.755h3.795v3.802h-3.795zm4.744 0h3.793v3.802h-3.793zm4.74 0h3.793v3.802h-3.793zm4.74 0h3.793v3.802h-3.793zm-14.224 4.755h3.795v3.802h-3.795zm4.744 0h3.793v3.802h-3.793zm4.74 0h3.793v3.802h-3.793zm4.74 0h3.793v3.802h-3.793zm6.638-14.265h3.793v3.804h-3.793zm4.74 0h3.793v3.804h-3.793zm4.74 0h3.793v3.804h-3.793zm4.742 0h3.793v3.804h-3.793zm-14.222 4.755h3.793v3.802h-3.793zm4.74 0h3.793v3.802h-3.793zm4.74 0h3.793v3.802h-3.793zm4.742 0h3.793v3.802h-3.793zm-14.222 4.755h3.793v3.802h-3.793zm4.74 0h3.793v3.802h-3.793zm4.74 0h3.793v3.802h-3.793zm4.742 0h3.793v3.802h-3.793zm-14.222 4.755h3.793v3.802h-3.793zm4.74 0h3.793v3.802h-3.793zm4.74 0h3.793v3.802h-3.793zm4.742 0h3.793v3.802h-3.793zm6.636-14.265h3.795v3.804h-3.795zm4.742 0h3.793v3.804h-3.793zm4.74 0h3.793v3.804h-3.793zm4.742 0h3.793v3.804h-3.793zm-14.224 4.755h3.795v3.802h-3.795zm4.742 0h3.793v3.802h-3.793zm4.74 0h3.793v3.802h-3.793zm4.742 0h3.793v3.802h-3.793zm-14.224 4.755h3.795v3.802h-3.795zm4.742 0h3.793v3.802h-3.793zm4.74 0h3.793v3.802h-3.793zm4.742 0h3.793v3.802h-3.793zm-14.224 4.755h3.795v3.802h-3.795zm4.742 0h3.793v3.802h-3.793zm4.74 0h3.793v3.802h-3.793zm4.742 0h3.793v3.802h-3.793zm27.772-118.868h3.793v3.804h-3.793zm4.74 0h3.793v3.804h-3.793zm4.74 0h3.793v3.804h-3.793zm4.742 0h3.793v3.804h-3.793zm-14.222 4.755h3.793v3.802h-3.793zm4.74 0h3.793v3.802h-3.793zm4.74 0h3.793v3.802h-3.793zm4.742 0h3.793v3.802h-3.793zm-14.222 4.753h3.793v3.804h-3.793zm4.74 0h3.793v3.804h-3.793zm4.74 0h3.793v3.804h-3.793zm4.742 0h3.793v3.804h-3.793zm-14.222 4.757h3.793v3.804h-3.793zm4.74 0h3.793v3.804h-3.793zm4.74 0h3.793v3.804h-3.793zm4.742-.002h3.793v3.804h-3.793zm6.636-14.263h3.793v3.804H518.8zm4.74 0h3.793v3.804h-3.793zm4.742 0h3.795v3.804h-3.795zm4.742 0h3.793v3.804h-3.793zM518.8 16.213h3.793v3.802H518.8zm4.74 0h3.793v3.802h-3.793zm4.742 0h3.795v3.802h-3.795zm4.742 0h3.793v3.802h-3.793zM518.8 20.966h3.793v3.804H518.8zm4.74 0h3.793v3.804h-3.793zm4.742 0h3.795v3.804h-3.795zm4.742 0h3.793v3.804h-3.793zM518.8 25.723h3.793v3.804H518.8zm4.74 0h3.793v3.804h-3.793zm4.742 0h3.795v3.804h-3.795zm4.742 0h3.793v3.804h-3.793zm6.635-14.265h3.793v3.804h-3.793zm4.742 0h3.793v3.804h-3.793zm4.74 0h3.793v3.804h-3.793zm4.741 0h3.793v3.804h-3.793zm-14.223 4.755h3.793v3.802h-3.793zm4.742 0h3.793v3.802h-3.793zm4.74 0h3.793v3.802h-3.793zm4.741 0h3.793v3.802h-3.793zm-14.223 4.753h3.793v3.804h-3.793zm4.742 0h3.793v3.804h-3.793zm4.74 0h3.793v3.804h-3.793zm4.741 0h3.793v3.804h-3.793zm-14.223 4.757h3.793v3.804h-3.793zm4.742-.002h3.793v3.804h-3.793zm4.74.002h3.793v3.804h-3.793zm4.741 0h3.793v3.804h-3.793zm6.637-14.265h3.793v3.804h-3.793zm4.74 0h3.793v3.804h-3.793zm4.74 0h3.795v3.804h-3.795zm4.744 0h3.793v3.804h-3.793zm-14.224 4.755h3.793v3.802h-3.793zm4.74 0h3.793v3.802h-3.793zm4.74 0h3.795v3.802h-3.795zm4.744 0h3.793v3.802h-3.793zm-14.224 4.753h3.793v3.804h-3.793zm4.74 0h3.793v3.804h-3.793zm4.74 0h3.795v3.804h-3.795zm4.744 0h3.793v3.804h-3.793zm-14.224 4.757h3.793v3.804h-3.793zm4.74 0h3.793v3.804h-3.793zm4.74 0h3.795v3.804h-3.795zm4.744-.002h3.793v3.804h-3.793zm-14.224 6.658h3.793v3.804h-3.793zm4.74 0h3.793v3.804h-3.793zm4.74 0h3.795v3.804h-3.795zm4.744 0h3.793v3.804h-3.793zm-14.224 4.755h3.793v3.802h-3.793zm4.74 0h3.793v3.802h-3.793zm4.74 0h3.795v3.802h-3.795zm4.744 0h3.793v3.802h-3.793zm-14.224 4.755h3.793v3.802h-3.793zm4.74 0h3.793v3.802h-3.793zm4.74 0h3.795v3.802h-3.795zm4.744 0h3.793v3.802h-3.793zm-14.224 4.753h3.793v3.804h-3.793zm4.74 0h3.793v3.804h-3.793zm4.74 0h3.795v3.804h-3.795zm4.744 0h3.793v3.804h-3.793zM539.659 53.3h3.793v3.804h-3.793zm4.742 0h3.793v3.804h-3.793zm4.74 0h3.793v3.804h-3.793zm4.741 0h3.793v3.804h-3.793zm-14.223 4.754h3.793v3.804h-3.793zm4.742 0h3.793v3.804h-3.793zm4.74 0h3.793v3.804h-3.793zm4.741 0h3.793v3.804h-3.793zm-14.223 4.755h3.793v3.802h-3.793zm4.742 0h3.793v3.802h-3.793zm4.74 0h3.793v3.802h-3.793zm4.741 0h3.793v3.802h-3.793zm-14.223 4.753h3.793v3.804h-3.793zm4.742 0h3.793v3.804h-3.793zm4.74 0h3.793v3.804h-3.793zm4.741 0h3.793v3.804h-3.793zM518.8 74.22h3.793v3.804H518.8zm4.74 0h3.793v3.804h-3.793zm4.742 0h3.795v3.804h-3.795zm4.742 0h3.793v3.804h-3.793zM518.8 78.975h3.793v3.804H518.8zm4.74 0h3.793v3.804h-3.793zm4.742 0h3.795v3.804h-3.795zm4.742 0h3.793v3.804h-3.793zM518.8 83.73h3.793v3.802H518.8zm4.74 0h3.793v3.802h-3.793zm4.742 0h3.795v3.802h-3.795zm4.742 0h3.793v3.802h-3.793zM518.8 88.483h3.793v3.804H518.8zm4.74 0h3.793v3.804h-3.793zm4.742 0h3.795v3.804h-3.795zm4.742 0h3.793v3.804h-3.793zm-35.082 6.658h3.793v3.804h-3.793zm4.74 0h3.793v3.804h-3.793zm4.74 0h3.793v3.804h-3.793zm4.742 0h3.793v3.804h-3.793zm-14.222 4.755h3.793v3.804h-3.793zm4.74 0h3.793v3.804h-3.793zm4.74 0h3.793v3.804h-3.793zm4.742 0h3.793v3.804h-3.793zm-14.222 4.754h3.793v3.802h-3.793zm4.74 0h3.793v3.802h-3.793zm4.74 0h3.793v3.802h-3.793zm4.742.001h3.793v3.802h-3.793zm-14.222 4.754h3.793v3.802h-3.793zm4.74 0h3.793v3.802h-3.793zm4.74 0h3.793v3.802h-3.793zm4.742 0h3.793v3.802h-3.793zm-14.222 6.656h3.793v3.804h-3.793zm4.74 0h3.793v3.804h-3.793zm4.74 0h3.793v3.804h-3.793zm4.742 0h3.793v3.804h-3.793zm-14.222 4.755h3.793v3.802h-3.793zm4.74 0h3.793v3.802h-3.793zm4.74 0h3.793v3.802h-3.793zm4.742 0h3.793v3.802h-3.793zm-14.222 4.755h3.793v3.802h-3.793zm4.74 0h3.793v3.802h-3.793zm4.74 0h3.793v3.802h-3.793zm4.742 0h3.793v3.802h-3.793zm-14.222 4.755h3.793v3.802h-3.793zm4.74 0h3.793v3.802h-3.793zm4.74 0h3.793v3.802h-3.793zm4.742 0h3.793v3.802h-3.793zm6.636-14.265h3.793v3.804H518.8zm4.74 0h3.793v3.804h-3.793zm4.742 0h3.795v3.804h-3.795zm4.742 0h3.793v3.804h-3.793zm-14.224 4.755h3.793v3.802H518.8zm4.74 0h3.793v3.802h-3.793zm4.742 0h3.795v3.802h-3.795zm4.742 0h3.793v3.802h-3.793zm-14.224 4.755h3.793v3.802H518.8zm4.74 0h3.793v3.802h-3.793zm4.742 0h3.795v3.802h-3.795zm4.742 0h3.793v3.802h-3.793zm-14.224 4.755h3.793v3.802H518.8zm4.74 0h3.793v3.802h-3.793zm4.742 0h3.795v3.802h-3.795zm4.742 0h3.793v3.802h-3.793zm6.635-14.265h3.793v3.804h-3.793zm4.742 0h3.793v3.804h-3.793zm4.74 0h3.793v3.804h-3.793zm4.741 0h3.793v3.804h-3.793zm-14.223 4.755h3.793v3.802h-3.793zm4.742 0h3.793v3.802h-3.793zm4.74 0h3.793v3.802h-3.793zm4.741 0h3.793v3.802h-3.793zm-14.223 4.755h3.793v3.802h-3.793zm4.742 0h3.793v3.802h-3.793zm4.74 0h3.793v3.802h-3.793zm4.741 0h3.793v3.802h-3.793zm-14.223 4.755h3.793v3.802h-3.793zm4.742 0h3.793v3.802h-3.793zm4.74 0h3.793v3.802h-3.793zm4.741 0h3.793v3.802h-3.793zm6.637-14.265h3.793v3.804h-3.793zm4.74 0h3.793v3.804h-3.793zm4.74 0h3.795v3.804h-3.795zm4.744 0h3.793v3.804h-3.793zm-14.224 4.755h3.793v3.802h-3.793zm4.74 0h3.793v3.802h-3.793zm4.74 0h3.795v3.802h-3.795zm4.744 0h3.793v3.802h-3.793zm-14.224 4.755h3.793v3.802h-3.793zm4.74 0h3.793v3.802h-3.793zm4.74 0h3.795v3.802h-3.795zm4.744 0h3.793v3.802h-3.793zm-14.224 4.755h3.793v3.802h-3.793zm4.74 0h3.793v3.802h-3.793zm4.74 0h3.795v3.802h-3.795zm4.744 0h3.793v3.802h-3.793zM16.742 116.061h3.802v3.804h-3.802zm4.755 0h3.802v3.804h-3.802zm4.753 0h3.804v3.804H26.25zm4.754 0h3.804v3.804h-3.804zm-14.262 4.755h3.802v3.802h-3.802zm4.755 0h3.802v3.802h-3.802zm4.753 0h3.804v3.802H26.25zm4.754 0h3.804v3.802h-3.804zm-14.262 4.755h3.802v3.802h-3.802zm4.755 0h3.802v3.802h-3.802zm4.753 0h3.804v3.802H26.25zm4.754 0h3.804v3.802h-3.804zm-14.262 4.755h3.802v3.802h-3.802zm4.755 0h3.802v3.802h-3.802zm4.753 0h3.804v3.802H26.25zm4.754 0h3.804v3.802h-3.804z"/></svg>