<svg xmlns="http://www.w3.org/2000/svg" role="img" viewBox="-19.98 -19.98 1038.96 522.96"><title>ZTE (hosting) logo</title><path d="M340.69725 449.57403v1.4969c0 19.05287-16.35225 32.93207-32.932 32.93207H33.83026c-19.75333 0-33.33028-16.04894-33.33028-33.03901 0-12.64841 4.67916-17.34371 14.39598-32.75793L212.93508 107.186c3.9096-6.15617 6.10358-11.10382 6.10358-16.48981 0-12.23605-8.6808-22.83479-23.54187-22.83479H50.2963c-23.00977-.0795-33.98259-19.01457-33.98259-33.40504 0-19.90072 16.17124-33.95601 33.98259-33.95601h255.97195c20.29838 0 35.11875 15.37273 35.11875 32.76701 0 10.65149-3.92138 17.56108-9.589 25.81734L128.43666 378.19703c-3.22526 4.64422-5.70721 8.12923-5.70721 15.69483 0 10.08658 6.40839 22.75009 23.36923 22.75009h161.66657c20.41938 0 32.932 17.29195 32.932 32.93208zm187.2675 34.35286c-23.172 0-36.90437-21.35873-36.90437-36.07938V99.93628c0-17.1016-14.89025-32.07488-30.74538-32.07488h-59.74125c-18.74375 0-34.4555-14.12122-34.4555-33.40504 0-19.51442 15.83288-33.95601 34.4555-33.95601h254.795c19.65888 0 35.585 14.47156 35.585 33.48041 0 17.39875-13.76262 33.88064-34.408 33.88064h-59.8765c-15.03162 0-30.76325 15.23171-30.76325 31.61974V448.0771c0 16.74325-14.41162 35.84978-37.94125 35.84978zm221.38963.07611c-17.6535 0-34.429-13.78631-34.429-34.42898V34.92933c0-19.89484 14.41275-34.42897 34.429-34.42897h217.05224C984.99425.50035 999.5 15.69479 999.5 34.45636c0 16.53407-12.45075 33.40504-33.09337 33.40504h-145.2005c-16.47063 0-30.61363 14.79838-30.61363 31.43515v79.33635c0 15.08746 15.48388 29.93825 30.61362 29.93825H942.456c16.10912 0 32.19387 13.95513 32.19387 33.48508 0 15.5673-12.4125 33.87597-33.69075 33.87597H822.703c-18.21675 0-32.1105 15.66973-32.1105 31.43515v80.83326c0 14.40983 14.51863 28.44134 29.11675 28.44134h146.69737c17.65538 0 33.09338 13.68395 33.09338 33.60864 0 19.852-15.32175 33.75241-33.09337 33.75241z" fill="#4286d2"/></svg>